<?xml version="1.0" encoding="utf-8" standalone="no"?>
<!DOCTYPE svg PUBLIC "-//W3C//DTD SVG 1.1//EN"
  "http://www.w3.org/Graphics/SVG/1.1/DTD/svg11.dtd">
<svg xmlns:xlink="http://www.w3.org/1999/xlink" width="1152pt" height="576pt" viewBox="0 0 1152 576" xmlns="http://www.w3.org/2000/svg" version="1.1">
 <metadata>
  <rdf:RDF xmlns:dc="http://purl.org/dc/elements/1.1/" xmlns:cc="http://creativecommons.org/ns#" xmlns:rdf="http://www.w3.org/1999/02/22-rdf-syntax-ns#">
   <cc:Work>
    <dc:type rdf:resource="http://purl.org/dc/dcmitype/StillImage"/>
    <dc:date>1980-01-01T00:00:00+00:00</dc:date>
    <dc:format>image/svg+xml</dc:format>
    <dc:creator>
     <cc:Agent>
      <dc:title>Matplotlib v3.9.1, https://matplotlib.org/</dc:title>
     </cc:Agent>
    </dc:creator>
   </cc:Work>
  </rdf:RDF>
 </metadata>
 <defs>
  <style type="text/css">*{stroke-linejoin: round; stroke-linecap: butt}</style>
 </defs>
 <g id="figure_1">
  <g id="patch_1">
   <path d="M 0 576 
L 1152 576 
L 1152 0 
L 0 0 
z
" style="fill: #ffffff"/>
  </g>
  <g id="axes_1">
   <g id="patch_2">
    <path d="M 144 512.64 
L 1036.8 512.64 
L 1036.8 69.12 
L 144 69.12 
z
" style="fill: #ffffff"/>
   </g>
   <g id="PathCollection_1">
    <path d="M 184.581818 496.352983 
C 185.608945 496.352983 186.594142 495.944901 187.320431 495.218613 
C 188.04672 494.492324 188.454802 493.507127 188.454802 492.48 
C 188.454802 491.452873 188.04672 490.467676 187.320431 489.741387 
C 186.594142 489.015099 185.608945 488.607017 184.581818 488.607017 
C 183.554691 488.607017 182.569494 489.015099 181.843205 489.741387 
C 181.116917 490.467676 180.708835 491.452873 180.708835 492.48 
C 180.708835 493.507127 181.116917 494.492324 181.843205 495.218613 
C 182.569494 495.944901 183.554691 496.352983 184.581818 496.352983 
z
" clip-path="url(#pc3844f99dc)" style="fill: #1f77b4; fill-opacity: 0.3; stroke: #1f77b4; stroke-opacity: 0.3"/>
    <path d="M 194.01945 495.66859 
C 195.748363 495.66859 197.406697 494.981686 198.629223 493.75916 
C 199.851748 492.536634 200.538653 490.8783 200.538653 489.149388 
C 200.538653 487.420475 199.851748 485.762141 198.629223 484.539616 
C 197.406697 483.31709 195.748363 482.630185 194.01945 482.630185 
C 192.290538 482.630185 190.632204 483.31709 189.409678 484.539616 
C 188.187152 485.762141 187.500248 487.420475 187.500248 489.149388 
C 187.500248 490.8783 188.187152 492.536634 189.409678 493.75916 
C 190.632204 494.981686 192.290538 495.66859 194.01945 495.66859 
z
" clip-path="url(#pc3844f99dc)" style="fill: #1f77b4; fill-opacity: 0.3; stroke: #1f77b4; stroke-opacity: 0.3"/>
    <path d="M 203.457082 492.030274 
C 205.675931 492.030274 207.8042 491.148716 209.373162 489.579753 
C 210.942125 488.010791 211.823683 485.882522 211.823683 483.663673 
C 211.823683 481.444825 210.942125 479.316556 209.373162 477.747594 
C 207.8042 476.178631 205.675931 475.297073 203.457082 475.297073 
C 201.238234 475.297073 199.109965 476.178631 197.541003 477.747594 
C 195.97204 479.316556 195.090482 481.444825 195.090482 483.663673 
C 195.090482 485.882522 195.97204 488.010791 197.541003 489.579753 
C 199.109965 491.148716 201.238234 492.030274 203.457082 492.030274 
z
" clip-path="url(#pc3844f99dc)" style="fill: #1f77b4; fill-opacity: 0.3; stroke: #1f77b4; stroke-opacity: 0.3"/>
    <path d="M 212.894715 486.752616 
C 214.285451 486.752616 215.619414 486.20007 216.602814 485.216671 
C 217.586213 484.233271 218.138759 482.899308 218.138759 481.508571 
C 218.138759 480.117835 217.586213 478.783872 216.602814 477.800472 
C 215.619414 476.817073 214.285451 476.264527 212.894715 476.264527 
C 211.503978 476.264527 210.170015 476.817073 209.186615 477.800472 
C 208.203216 478.783872 207.65067 480.117835 207.65067 481.508571 
C 207.65067 482.899308 208.203216 484.233271 209.186615 485.216671 
C 210.170015 486.20007 211.503978 486.752616 212.894715 486.752616 
z
" clip-path="url(#pc3844f99dc)" style="fill: #1f77b4; fill-opacity: 0.3; stroke: #1f77b4; stroke-opacity: 0.3"/>
    <path d="M 222.332347 484.064513 
C 223.269981 484.064513 224.169339 483.691987 224.832347 483.02898 
C 225.495354 482.365972 225.867881 481.466614 225.867881 480.52898 
C 225.867881 479.591345 225.495354 478.691987 224.832347 478.02898 
C 224.169339 477.365972 223.269981 476.993446 222.332347 476.993446 
C 221.394712 476.993446 220.495354 477.365972 219.832347 478.02898 
C 219.169339 478.691987 218.796813 479.591345 218.796813 480.52898 
C 218.796813 481.466614 219.169339 482.365972 219.832347 483.02898 
C 220.495354 483.691987 221.394712 484.064513 222.332347 484.064513 
z
" clip-path="url(#pc3844f99dc)" style="fill: #1f77b4; fill-opacity: 0.3; stroke: #1f77b4; stroke-opacity: 0.3"/>
    <path d="M 231.769979 483.71757 
C 233.498892 483.71757 235.157225 483.030665 236.379751 481.80814 
C 237.602277 480.585614 238.289181 478.92728 238.289181 477.198367 
C 238.289181 475.469455 237.602277 473.811121 236.379751 472.588595 
C 235.157225 471.366069 233.498892 470.679165 231.769979 470.679165 
C 230.041066 470.679165 228.382733 471.366069 227.160207 472.588595 
C 225.937681 473.811121 225.250776 475.469455 225.250776 477.198367 
C 225.250776 478.92728 225.937681 480.585614 227.160207 481.80814 
C 228.382733 483.030665 230.041066 483.71757 231.769979 483.71757 
z
" clip-path="url(#pc3844f99dc)" style="fill: #1f77b4; fill-opacity: 0.3; stroke: #1f77b4; stroke-opacity: 0.3"/>
    <path d="M 241.207611 480.383316 
C 242.831642 480.383316 244.389375 479.738082 245.537738 478.589719 
C 246.686101 477.441356 247.331335 475.883623 247.331335 474.259592 
C 247.331335 472.635561 246.686101 471.077828 245.537738 469.929465 
C 244.389375 468.781102 242.831642 468.135867 241.207611 468.135867 
C 239.58358 468.135867 238.025847 468.781102 236.877484 469.929465 
C 235.729121 471.077828 235.083887 472.635561 235.083887 474.259592 
C 235.083887 475.883623 235.729121 477.441356 236.877484 478.589719 
C 238.025847 479.738082 239.58358 480.383316 241.207611 480.383316 
z
" clip-path="url(#pc3844f99dc)" style="fill: #1f77b4; fill-opacity: 0.3; stroke: #1f77b4; stroke-opacity: 0.3"/>
    <path d="M 250.645243 476.492984 
C 253.263914 476.492984 255.775683 475.452575 257.627363 473.600896 
C 259.479043 471.749216 260.519452 469.237446 260.519452 466.618776 
C 260.519452 464.000105 259.479043 461.488335 257.627363 459.636655 
C 255.775683 457.784976 253.263914 456.744567 250.645243 456.744567 
C 248.026572 456.744567 245.514803 457.784976 243.663123 459.636655 
C 241.811443 461.488335 240.771034 464.000105 240.771034 466.618776 
C 240.771034 469.237446 241.811443 471.749216 243.663123 473.600896 
C 245.514803 475.452575 248.026572 476.492984 250.645243 476.492984 
z
" clip-path="url(#pc3844f99dc)" style="fill: #1f77b4; fill-opacity: 0.3; stroke: #1f77b4; stroke-opacity: 0.3"/>
    <path d="M 260.082875 469.788351 
C 261.910661 469.788351 263.663832 469.062164 264.956272 467.769724 
C 266.248712 466.477284 266.9749 464.724113 266.9749 462.896327 
C 266.9749 461.06854 266.248712 459.315369 264.956272 458.022929 
C 263.663832 456.730489 261.910661 456.004302 260.082875 456.004302 
C 258.255089 456.004302 256.501918 456.730489 255.209478 458.022929 
C 253.917038 459.315369 253.190851 461.06854 253.190851 462.896327 
C 253.190851 464.724113 253.917038 466.477284 255.209478 467.769724 
C 256.501918 469.062164 258.255089 469.788351 260.082875 469.788351 
z
" clip-path="url(#pc3844f99dc)" style="fill: #1f77b4; fill-opacity: 0.3; stroke: #1f77b4; stroke-opacity: 0.3"/>
    <path d="M 269.520507 465.876478 
C 270.778476 465.876478 271.985091 465.376681 272.874609 464.487163 
C 273.764128 463.597645 274.263924 462.39103 274.263924 461.133061 
C 274.263924 459.875092 273.764128 458.668477 272.874609 457.778959 
C 271.985091 456.889441 270.778476 456.389645 269.520507 456.389645 
C 268.262539 456.389645 267.055924 456.889441 266.166405 457.778959 
C 265.276887 458.668477 264.777091 459.875092 264.777091 461.133061 
C 264.777091 462.39103 265.276887 463.597645 266.166405 464.487163 
C 267.055924 465.376681 268.262539 465.876478 269.520507 465.876478 
z
" clip-path="url(#pc3844f99dc)" style="fill: #1f77b4; fill-opacity: 0.3; stroke: #1f77b4; stroke-opacity: 0.3"/>
    <path d="M 278.95814 462.977292 
C 279.551152 462.977292 280.119955 462.741686 280.539278 462.322363 
C 280.958601 461.90304 281.194208 461.334237 281.194208 460.741224 
C 281.194208 460.148212 280.958601 459.579409 280.539278 459.160086 
C 280.119955 458.740763 279.551152 458.505157 278.95814 458.505157 
C 278.365127 458.505157 277.796324 458.740763 277.377001 459.160086 
C 276.957678 459.579409 276.722072 460.148212 276.722072 460.741224 
C 276.722072 461.334237 276.957678 461.90304 277.377001 462.322363 
C 277.796324 462.741686 278.365127 462.977292 278.95814 462.977292 
z
" clip-path="url(#pc3844f99dc)" style="fill: #1f77b4; fill-opacity: 0.3; stroke: #1f77b4; stroke-opacity: 0.3"/>
    <path d="M 288.395772 463.043121 
C 290.980652 463.043121 293.46001 462.016137 295.287796 460.188351 
C 297.115582 458.360565 298.142566 455.881207 298.142566 453.296327 
C 298.142566 450.711446 297.115582 448.232088 295.287796 446.404302 
C 293.46001 444.576516 290.980652 443.549532 288.395772 443.549532 
C 285.810892 443.549532 283.331534 444.576516 281.503747 446.404302 
C 279.675961 448.232088 278.648977 450.711446 278.648977 453.296327 
C 278.648977 455.881207 279.675961 458.360565 281.503747 460.188351 
C 283.331534 462.016137 285.810892 463.043121 288.395772 463.043121 
z
" clip-path="url(#pc3844f99dc)" style="fill: #1f77b4; fill-opacity: 0.3; stroke: #1f77b4; stroke-opacity: 0.3"/>
    <path d="M 297.833404 456.304061 
C 299.930018 456.304061 301.941043 455.471068 303.423574 453.988537 
C 304.906104 452.506007 305.739098 450.494982 305.739098 448.398367 
C 305.739098 446.301753 304.906104 444.290728 303.423574 442.808197 
C 301.941043 441.325667 299.930018 440.492673 297.833404 440.492673 
C 295.736789 440.492673 293.725764 441.325667 292.243234 442.808197 
C 290.760703 444.290728 289.92771 446.301753 289.92771 448.398367 
C 289.92771 450.494982 290.760703 452.506007 292.243234 453.988537 
C 293.725764 455.471068 295.736789 456.304061 297.833404 456.304061 
z
" clip-path="url(#pc3844f99dc)" style="fill: #1f77b4; fill-opacity: 0.3; stroke: #1f77b4; stroke-opacity: 0.3"/>
    <path d="M 307.271036 451.552306 
C 308.782926 451.552306 310.233097 450.951625 311.302165 449.882557 
C 312.371233 448.81349 312.971913 447.363319 312.971913 445.851429 
C 312.971913 444.339538 312.371233 442.889368 311.302165 441.8203 
C 310.233097 440.751232 308.782926 440.150551 307.271036 440.150551 
C 305.759146 440.150551 304.308975 440.751232 303.239907 441.8203 
C 302.170839 442.889368 301.570159 444.339538 301.570159 445.851429 
C 301.570159 447.363319 302.170839 448.81349 303.239907 449.882557 
C 304.308975 450.951625 305.759146 451.552306 307.271036 451.552306 
z
" clip-path="url(#pc3844f99dc)" style="fill: #1f77b4; fill-opacity: 0.3; stroke: #1f77b4; stroke-opacity: 0.3"/>
    <path d="M 316.708668 448.526313 
C 319.080717 448.526313 321.355932 447.583888 323.033223 445.906596 
C 324.710515 444.229304 325.65294 441.954089 325.65294 439.582041 
C 325.65294 437.209992 324.710515 434.934777 323.033223 433.257485 
C 321.355932 431.580194 319.080717 430.637769 316.708668 430.637769 
C 314.336619 430.637769 312.061404 431.580194 310.384113 433.257485 
C 308.706821 434.934777 307.764396 437.209992 307.764396 439.582041 
C 307.764396 441.954089 308.706821 444.229304 310.384113 445.906596 
C 312.061404 447.583888 314.336619 448.526313 316.708668 448.526313 
z
" clip-path="url(#pc3844f99dc)" style="fill: #1f77b4; fill-opacity: 0.3; stroke: #1f77b4; stroke-opacity: 0.3"/>
    <path d="M 326.1463 441.525772 
C 328.895984 441.525772 331.533419 440.433311 333.477739 438.48899 
C 335.42206 436.54467 336.514521 433.907235 336.514521 431.157551 
C 336.514521 428.407867 335.42206 425.770432 333.477739 423.826112 
C 331.533419 421.881791 328.895984 420.78933 326.1463 420.78933 
C 323.396616 420.78933 320.759181 421.881791 318.814861 423.826112 
C 316.870541 425.770432 315.77808 428.407867 315.77808 431.157551 
C 315.77808 433.907235 316.870541 436.54467 318.814861 438.48899 
C 320.759181 440.433311 323.396616 441.525772 326.1463 441.525772 
z
" clip-path="url(#pc3844f99dc)" style="fill: #1f77b4; fill-opacity: 0.3; stroke: #1f77b4; stroke-opacity: 0.3"/>
    <path d="M 335.583932 433.536155 
C 336.422578 433.536155 337.226988 433.202958 337.82 432.609946 
C 338.413012 432.016933 338.74621 431.212523 338.74621 430.373878 
C 338.74621 429.535232 338.413012 428.730822 337.82 428.13781 
C 337.226988 427.544797 336.422578 427.2116 335.583932 427.2116 
C 334.745287 427.2116 333.940877 427.544797 333.347864 428.13781 
C 332.754852 428.730822 332.421655 429.535232 332.421655 430.373878 
C 332.421655 431.212523 332.754852 432.016933 333.347864 432.609946 
C 333.940877 433.202958 334.745287 433.536155 335.583932 433.536155 
z
" clip-path="url(#pc3844f99dc)" style="fill: #1f77b4; fill-opacity: 0.3; stroke: #1f77b4; stroke-opacity: 0.3"/>
    <path d="M 345.021564 433.46282 
C 346.412301 433.46282 347.746264 432.910274 348.729664 431.926875 
C 349.713063 430.943475 350.265609 429.609512 350.265609 428.218776 
C 350.265609 426.828039 349.713063 425.494076 348.729664 424.510676 
C 347.746264 423.527277 346.412301 422.974731 345.021564 422.974731 
C 343.630828 422.974731 342.296865 423.527277 341.313465 424.510676 
C 340.330066 425.494076 339.77752 426.828039 339.77752 428.218776 
C 339.77752 429.609512 340.330066 430.943475 341.313465 431.926875 
C 342.296865 432.910274 343.630828 433.46282 345.021564 433.46282 
z
" clip-path="url(#pc3844f99dc)" style="fill: #1f77b4; fill-opacity: 0.3; stroke: #1f77b4; stroke-opacity: 0.3"/>
    <path d="M 354.459197 431.144818 
C 356.638062 431.144818 358.727981 430.279145 360.268672 428.738455 
C 361.809362 427.197764 362.675035 425.107845 362.675035 422.92898 
C 362.675035 420.750114 361.809362 418.660195 360.268672 417.119505 
C 358.727981 415.578814 356.638062 414.713141 354.459197 414.713141 
C 352.280331 414.713141 350.190412 415.578814 348.649722 417.119505 
C 347.109031 418.660195 346.243358 420.750114 346.243358 422.92898 
C 346.243358 425.107845 347.109031 427.197764 348.649722 428.738455 
C 350.190412 430.279145 352.280331 431.144818 354.459197 431.144818 
z
" clip-path="url(#pc3844f99dc)" style="fill: #1f77b4; fill-opacity: 0.3; stroke: #1f77b4; stroke-opacity: 0.3"/>
    <path d="M 363.896829 426.055185 
C 365.349406 426.055185 366.742685 425.47807 367.769812 424.450943 
C 368.796939 423.423815 369.374054 422.030536 369.374054 420.577959 
C 369.374054 419.125382 368.796939 417.732103 367.769812 416.704976 
C 366.742685 415.677849 365.349406 415.100734 363.896829 415.100734 
C 362.444252 415.100734 361.050973 415.677849 360.023845 416.704976 
C 358.996718 417.732103 358.419603 419.125382 358.419603 420.577959 
C 358.419603 422.030536 358.996718 423.423815 360.023845 424.450943 
C 361.050973 425.47807 362.444252 426.055185 363.896829 426.055185 
z
" clip-path="url(#pc3844f99dc)" style="fill: #1f77b4; fill-opacity: 0.3; stroke: #1f77b4; stroke-opacity: 0.3"/>
    <path d="M 373.334461 421.962381 
C 376.299522 421.962381 379.14354 420.78435 381.240155 418.687735 
C 383.33677 416.59112 384.514801 413.747102 384.514801 410.782041 
C 384.514801 407.81698 383.33677 404.972961 381.240155 402.876347 
C 379.14354 400.779732 376.299522 399.601701 373.334461 399.601701 
C 370.3694 399.601701 367.525381 400.779732 365.428767 402.876347 
C 363.332152 404.972961 362.154121 407.81698 362.154121 410.782041 
C 362.154121 413.747102 363.332152 416.59112 365.428767 418.687735 
C 367.525381 420.78435 370.3694 421.962381 373.334461 421.962381 
z
" clip-path="url(#pc3844f99dc)" style="fill: #1f77b4; fill-opacity: 0.3; stroke: #1f77b4; stroke-opacity: 0.3"/>
    <path d="M 382.772093 413.708083 
C 384.950959 413.708083 387.040877 412.842411 388.581568 411.30172 
C 390.122259 409.761029 390.987931 407.671111 390.987931 405.492245 
C 390.987931 403.313379 390.122259 401.223461 388.581568 399.68277 
C 387.040877 398.142079 384.950959 397.276407 382.772093 397.276407 
C 380.593227 397.276407 378.503309 398.142079 376.962618 399.68277 
C 375.421927 401.223461 374.556255 403.313379 374.556255 405.492245 
C 374.556255 407.671111 375.421927 409.761029 376.962618 411.30172 
C 378.503309 412.842411 380.593227 413.708083 382.772093 413.708083 
z
" clip-path="url(#pc3844f99dc)" style="fill: #1f77b4; fill-opacity: 0.3; stroke: #1f77b4; stroke-opacity: 0.3"/>
    <path d="M 392.209725 408.536171 
C 394.26398 408.536171 396.234374 407.720007 397.686951 406.26743 
C 399.139528 404.814852 399.955692 402.844458 399.955692 400.790204 
C 399.955692 398.73595 399.139528 396.765556 397.686951 395.312979 
C 396.234374 393.860401 394.26398 393.044237 392.209725 393.044237 
C 390.155471 393.044237 388.185077 393.860401 386.7325 395.312979 
C 385.279922 396.765556 384.463758 398.73595 384.463758 400.790204 
C 384.463758 402.844458 385.279922 404.814852 386.7325 406.26743 
C 388.185077 407.720007 390.155471 408.536171 392.209725 408.536171 
z
" clip-path="url(#pc3844f99dc)" style="fill: #1f77b4; fill-opacity: 0.3; stroke: #1f77b4; stroke-opacity: 0.3"/>
    <path d="M 401.647357 403.623265 
C 403.90548 403.623265 406.07142 402.726103 407.668155 401.129369 
C 409.264889 399.532635 410.16205 397.366694 410.16205 395.108571 
C 410.16205 392.850448 409.264889 390.684508 407.668155 389.087774 
C 406.07142 387.49104 403.90548 386.593878 401.647357 386.593878 
C 399.389234 386.593878 397.223294 387.49104 395.62656 389.087774 
C 394.029826 390.684508 393.132664 392.850448 393.132664 395.108571 
C 393.132664 397.366694 394.029826 399.532635 395.62656 401.129369 
C 397.223294 402.726103 399.389234 403.623265 401.647357 403.623265 
z
" clip-path="url(#pc3844f99dc)" style="fill: #1f77b4; fill-opacity: 0.3; stroke: #1f77b4; stroke-opacity: 0.3"/>
    <path d="M 411.084989 397.487176 
C 411.923635 397.487176 412.728045 397.153978 413.321057 396.560966 
C 413.91407 395.967954 414.247267 395.163544 414.247267 394.324898 
C 414.247267 393.486252 413.91407 392.681842 413.321057 392.08883 
C 412.728045 391.495818 411.923635 391.16262 411.084989 391.16262 
C 410.246344 391.16262 409.441934 391.495818 408.848921 392.08883 
C 408.255909 392.681842 407.922712 393.486252 407.922712 394.324898 
C 407.922712 395.163544 408.255909 395.967954 408.848921 396.560966 
C 409.441934 397.153978 410.246344 397.487176 411.084989 397.487176 
z
" clip-path="url(#pc3844f99dc)" style="fill: #1f77b4; fill-opacity: 0.3; stroke: #1f77b4; stroke-opacity: 0.3"/>
    <path d="M 420.522622 396.703502 
C 421.361267 396.703502 422.165677 396.370305 422.75869 395.777292 
C 423.351702 395.18428 423.684899 394.37987 423.684899 393.541224 
C 423.684899 392.702579 423.351702 391.898169 422.75869 391.305157 
C 422.165677 390.712144 421.361267 390.378947 420.522622 390.378947 
C 419.683976 390.378947 418.879566 390.712144 418.286554 391.305157 
C 417.693541 391.898169 417.360344 392.702579 417.360344 393.541224 
C 417.360344 394.37987 417.693541 395.18428 418.286554 395.777292 
C 418.879566 396.370305 419.683976 396.703502 420.522622 396.703502 
z
" clip-path="url(#pc3844f99dc)" style="fill: #1f77b4; fill-opacity: 0.3; stroke: #1f77b4; stroke-opacity: 0.3"/>
    <path d="M 429.960254 395.974996 
C 432.476191 395.974996 434.889421 394.975404 436.668458 393.196367 
C 438.447494 391.417331 439.447087 389.004101 439.447087 386.488163 
C 439.447087 383.972226 438.447494 381.558996 436.668458 379.779959 
C 434.889421 378.000923 432.476191 377.00133 429.960254 377.00133 
C 427.444316 377.00133 425.031086 378.000923 423.25205 379.779959 
C 421.473013 381.558996 420.473421 383.972226 420.473421 386.488163 
C 420.473421 389.004101 421.473013 391.417331 423.25205 393.196367 
C 425.031086 394.975404 427.444316 395.974996 429.960254 395.974996 
z
" clip-path="url(#pc3844f99dc)" style="fill: #1f77b4; fill-opacity: 0.3; stroke: #1f77b4; stroke-opacity: 0.3"/>
    <path d="M 439.397886 387.872585 
C 442.362947 387.872585 445.206965 386.694554 447.30358 384.597939 
C 449.400195 382.501324 450.578226 379.657306 450.578226 376.692245 
C 450.578226 373.727184 449.400195 370.883165 447.30358 368.786551 
C 445.206965 366.689936 442.362947 365.511905 439.397886 365.511905 
C 436.432825 365.511905 433.588806 366.689936 431.492192 368.786551 
C 429.395577 370.883165 428.217546 373.727184 428.217546 376.692245 
C 428.217546 379.657306 429.395577 382.501324 431.492192 384.597939 
C 433.588806 386.694554 436.432825 387.872585 439.397886 387.872585 
z
" clip-path="url(#pc3844f99dc)" style="fill: #1f77b4; fill-opacity: 0.3; stroke: #1f77b4; stroke-opacity: 0.3"/>
    <path d="M 448.835518 379.367129 
C 451.207567 379.367129 453.482782 378.424704 455.160073 376.747412 
C 456.837365 375.070121 457.77979 372.794906 457.77979 370.422857 
C 457.77979 368.050809 456.837365 365.775593 455.160073 364.098302 
C 453.482782 362.42101 451.207567 361.478585 448.835518 361.478585 
C 446.463469 361.478585 444.188254 362.42101 442.510963 364.098302 
C 440.833671 365.775593 439.891246 368.050809 439.891246 370.422857 
C 439.891246 372.794906 440.833671 375.070121 442.510963 376.747412 
C 444.188254 378.424704 446.463469 379.367129 448.835518 379.367129 
z
" clip-path="url(#pc3844f99dc)" style="fill: #1f77b4; fill-opacity: 0.3; stroke: #1f77b4; stroke-opacity: 0.3"/>
    <path d="M 458.27315 373.3489 
C 460.452016 373.3489 462.541934 372.483227 464.082625 370.942536 
C 465.623316 369.401845 466.488988 367.311927 466.488988 365.133061 
C 466.488988 362.954195 465.623316 360.864277 464.082625 359.323586 
C 462.541934 357.782895 460.452016 356.917223 458.27315 356.917223 
C 456.094284 356.917223 454.004366 357.782895 452.463675 359.323586 
C 450.922984 360.864277 450.057312 362.954195 450.057312 365.133061 
C 450.057312 367.311927 450.922984 369.401845 452.463675 370.942536 
C 454.004366 372.483227 456.094284 373.3489 458.27315 373.3489 
z
" clip-path="url(#pc3844f99dc)" style="fill: #1f77b4; fill-opacity: 0.3; stroke: #1f77b4; stroke-opacity: 0.3"/>
    <path d="M 467.710782 367.511665 
C 468.549428 367.511665 469.353838 367.178468 469.94685 366.585456 
C 470.539862 365.992444 470.87306 365.188034 470.87306 364.349388 
C 470.87306 363.510742 470.539862 362.706332 469.94685 362.11332 
C 469.353838 361.520308 468.549428 361.18711 467.710782 361.18711 
C 466.872136 361.18711 466.067726 361.520308 465.474714 362.11332 
C 464.881702 362.706332 464.548505 363.510742 464.548505 364.349388 
C 464.548505 365.188034 464.881702 365.992444 465.474714 366.585456 
C 466.067726 367.178468 466.872136 367.511665 467.710782 367.511665 
z
" clip-path="url(#pc3844f99dc)" style="fill: #1f77b4; fill-opacity: 0.3; stroke: #1f77b4; stroke-opacity: 0.3"/>
    <path d="M 477.148414 367.43833 
C 478.539151 367.43833 479.873114 366.885784 480.856514 365.902385 
C 481.839913 364.918986 482.392459 363.585023 482.392459 362.194286 
C 482.392459 360.803549 481.839913 359.469586 480.856514 358.486186 
C 479.873114 357.502787 478.539151 356.950241 477.148414 356.950241 
C 475.757678 356.950241 474.423715 357.502787 473.440315 358.486186 
C 472.456916 359.469586 471.90437 360.803549 471.90437 362.194286 
C 471.90437 363.585023 472.456916 364.918986 473.440315 365.902385 
C 474.423715 366.885784 475.757678 367.43833 477.148414 367.43833 
z
" clip-path="url(#pc3844f99dc)" style="fill: #1f77b4; fill-opacity: 0.3; stroke: #1f77b4; stroke-opacity: 0.3"/>
    <path d="M 486.586047 365.346986 
C 488.461316 365.346986 490.260031 364.601934 491.586047 363.275918 
C 492.912062 361.949903 493.657114 360.151187 493.657114 358.275918 
C 493.657114 356.400649 492.912062 354.601934 491.586047 353.275918 
C 490.260031 351.949903 488.461316 351.204851 486.586047 351.204851 
C 484.710777 351.204851 482.912062 351.949903 481.586047 353.275918 
C 480.260031 354.601934 479.514979 356.400649 479.514979 358.275918 
C 479.514979 360.151187 480.260031 361.949903 481.586047 363.275918 
C 482.912062 364.601934 484.710777 365.346986 486.586047 365.346986 
z
" clip-path="url(#pc3844f99dc)" style="fill: #1f77b4; fill-opacity: 0.3; stroke: #1f77b4; stroke-opacity: 0.3"/>
    <path d="M 496.023679 361.319844 
C 498.077933 361.319844 500.048327 360.50368 501.500904 359.051103 
C 502.953481 357.598526 503.769645 355.628132 503.769645 353.573878 
C 503.769645 351.519623 502.953481 349.549229 501.500904 348.096652 
C 500.048327 346.644075 498.077933 345.827911 496.023679 345.827911 
C 493.969424 345.827911 491.99903 346.644075 490.546453 348.096652 
C 489.093876 349.549229 488.277712 351.519623 488.277712 353.573878 
C 488.277712 355.628132 489.093876 357.598526 490.546453 359.051103 
C 491.99903 360.50368 493.969424 361.319844 496.023679 361.319844 
z
" clip-path="url(#pc3844f99dc)" style="fill: #1f77b4; fill-opacity: 0.3; stroke: #1f77b4; stroke-opacity: 0.3"/>
    <path d="M 505.461311 356.478667 
C 506.647335 356.478667 507.784943 356.007454 508.623588 355.168808 
C 509.462234 354.330162 509.933447 353.192555 509.933447 352.006531 
C 509.933447 350.820506 509.462234 349.682899 508.623588 348.844253 
C 507.784943 348.005607 506.647335 347.534395 505.461311 347.534395 
C 504.275286 347.534395 503.137679 348.005607 502.299033 348.844253 
C 501.460387 349.682899 500.989175 350.820506 500.989175 352.006531 
C 500.989175 353.192555 501.460387 354.330162 502.299033 355.168808 
C 503.137679 356.007454 504.275286 356.478667 505.461311 356.478667 
z
" clip-path="url(#pc3844f99dc)" style="fill: #1f77b4; fill-opacity: 0.3; stroke: #1f77b4; stroke-opacity: 0.3"/>
    <path d="M 514.898943 354.887417 
C 517.117791 354.887417 519.24606 354.005859 520.815023 352.436896 
C 522.383985 350.867933 523.265543 348.739665 523.265543 346.520816 
C 523.265543 344.301968 522.383985 342.173699 520.815023 340.604737 
C 519.24606 339.035774 517.117791 338.154216 514.898943 338.154216 
C 512.680095 338.154216 510.551826 339.035774 508.982863 340.604737 
C 507.4139 342.173699 506.532343 344.301968 506.532343 346.520816 
C 506.532343 348.739665 507.4139 350.867933 508.982863 352.436896 
C 510.551826 354.005859 512.680095 354.887417 514.898943 354.887417 
z
" clip-path="url(#pc3844f99dc)" style="fill: #1f77b4; fill-opacity: 0.3; stroke: #1f77b4; stroke-opacity: 0.3"/>
    <path d="M 524.336575 349.709406 
C 526.065488 349.709406 527.723821 349.022502 528.946347 347.799976 
C 530.168873 346.57745 530.855777 344.919117 530.855777 343.190204 
C 530.855777 341.461291 530.168873 339.802958 528.946347 338.580432 
C 527.723821 337.357906 526.065488 336.671002 524.336575 336.671002 
C 522.607662 336.671002 520.949329 337.357906 519.726803 338.580432 
C 518.504277 339.802958 517.817373 341.461291 517.817373 343.190204 
C 517.817373 344.919117 518.504277 346.57745 519.726803 347.799976 
C 520.949329 349.022502 522.607662 349.709406 524.336575 349.709406 
z
" clip-path="url(#pc3844f99dc)" style="fill: #1f77b4; fill-opacity: 0.3; stroke: #1f77b4; stroke-opacity: 0.3"/>
    <path d="M 533.774207 346.279146 
C 535.164944 346.279146 536.498907 345.726601 537.482306 344.743201 
C 538.465706 343.759802 539.018251 342.425839 539.018251 341.035102 
C 539.018251 339.644365 538.465706 338.310402 537.482306 337.327003 
C 536.498907 336.343603 535.164944 335.791058 533.774207 335.791058 
C 532.38347 335.791058 531.049507 336.343603 530.066108 337.327003 
C 529.082709 338.310402 528.530163 339.644365 528.530163 341.035102 
C 528.530163 342.425839 529.082709 343.759802 530.066108 344.743201 
C 531.049507 345.726601 532.38347 346.279146 533.774207 346.279146 
z
" clip-path="url(#pc3844f99dc)" style="fill: #1f77b4; fill-opacity: 0.3; stroke: #1f77b4; stroke-opacity: 0.3"/>
    <path d="M 543.211839 343.336998 
C 545.796719 343.336998 548.276077 342.310015 550.103864 340.482228 
C 551.93165 338.654442 552.958634 336.175084 552.958634 333.590204 
C 552.958634 331.005324 551.93165 328.525966 550.103864 326.69818 
C 548.276077 324.870393 545.796719 323.84341 543.211839 323.84341 
C 540.626959 323.84341 538.147601 324.870393 536.319815 326.69818 
C 534.492029 328.525966 533.465045 331.005324 533.465045 333.590204 
C 533.465045 336.175084 534.492029 338.654442 536.319815 340.482228 
C 538.147601 342.310015 540.626959 343.336998 543.211839 343.336998 
z
" clip-path="url(#pc3844f99dc)" style="fill: #1f77b4; fill-opacity: 0.3; stroke: #1f77b4; stroke-opacity: 0.3"/>
    <path d="M 552.649471 336.716409 
C 554.102049 336.716409 555.495328 336.139294 556.522455 335.112167 
C 557.549582 334.08504 558.126697 332.691761 558.126697 331.239184 
C 558.126697 329.786606 557.549582 328.393328 556.522455 327.3662 
C 555.495328 326.339073 554.102049 325.761958 552.649471 325.761958 
C 551.196894 325.761958 549.803615 326.339073 548.776488 327.3662 
C 547.749361 328.393328 547.172246 329.786606 547.172246 331.239184 
C 547.172246 332.691761 547.749361 334.08504 548.776488 335.112167 
C 549.803615 336.139294 551.196894 336.716409 552.649471 336.716409 
z
" clip-path="url(#pc3844f99dc)" style="fill: #1f77b4; fill-opacity: 0.3; stroke: #1f77b4; stroke-opacity: 0.3"/>
    <path d="M 562.087104 333.797504 
C 564.532155 333.797504 566.877393 332.826074 568.606306 331.097162 
C 570.335219 329.368249 571.306648 327.023011 571.306648 324.577959 
C 571.306648 322.132907 570.335219 319.787669 568.606306 318.058757 
C 566.877393 316.329844 564.532155 315.358415 562.087104 315.358415 
C 559.642052 315.358415 557.296814 316.329844 555.567901 318.058757 
C 553.838989 319.787669 552.867559 322.132907 552.867559 324.577959 
C 552.867559 327.023011 553.838989 329.368249 555.567901 331.097162 
C 557.296814 332.826074 559.642052 333.797504 562.087104 333.797504 
z
" clip-path="url(#pc3844f99dc)" style="fill: #1f77b4; fill-opacity: 0.3; stroke: #1f77b4; stroke-opacity: 0.3"/>
    <path d="M 571.524736 327.73066 
C 573.400005 327.73066 575.19872 326.985607 576.524736 325.659592 
C 577.850751 324.333576 578.595804 322.534861 578.595804 320.659592 
C 578.595804 318.784323 577.850751 316.985607 576.524736 315.659592 
C 575.19872 314.333576 573.400005 313.588524 571.524736 313.588524 
C 569.649467 313.588524 567.850751 314.333576 566.524736 315.659592 
C 565.19872 316.985607 564.453668 318.784323 564.453668 320.659592 
C 564.453668 322.534861 565.19872 324.333576 566.524736 325.659592 
C 567.850751 326.985607 569.649467 327.73066 571.524736 327.73066 
z
" clip-path="url(#pc3844f99dc)" style="fill: #1f77b4; fill-opacity: 0.3; stroke: #1f77b4; stroke-opacity: 0.3"/>
    <path d="M 580.962368 323.785797 
C 582.414945 323.785797 583.808224 323.208682 584.835351 322.181555 
C 585.862478 321.154428 586.439593 319.761149 586.439593 318.308571 
C 586.439593 316.855994 585.862478 315.462715 584.835351 314.435588 
C 583.808224 313.408461 582.414945 312.831346 580.962368 312.831346 
C 579.509791 312.831346 578.116512 313.408461 577.089385 314.435588 
C 576.062257 315.462715 575.485142 316.855994 575.485142 318.308571 
C 575.485142 319.761149 576.062257 321.154428 577.089385 322.181555 
C 578.116512 323.208682 579.509791 323.785797 580.962368 323.785797 
z
" clip-path="url(#pc3844f99dc)" style="fill: #1f77b4; fill-opacity: 0.3; stroke: #1f77b4; stroke-opacity: 0.3"/>
    <path d="M 590.4 321.461272 
C 592.275269 321.461272 594.073985 320.71622 595.4 319.390204 
C 596.726016 318.064189 597.471068 316.265473 597.471068 314.390204 
C 597.471068 312.514935 596.726016 310.71622 595.4 309.390204 
C 594.073985 308.064189 592.275269 307.319136 590.4 307.319136 
C 588.524731 307.319136 586.726016 308.064189 585.4 309.390204 
C 584.073985 310.71622 583.328932 312.514935 583.328932 314.390204 
C 583.328932 316.265473 584.073985 318.064189 585.4 319.390204 
C 586.726016 320.71622 588.524731 321.461272 590.4 321.461272 
z
" clip-path="url(#pc3844f99dc)" style="fill: #1f77b4; fill-opacity: 0.3; stroke: #1f77b4; stroke-opacity: 0.3"/>
    <path d="M 599.837632 317.370355 
C 601.095601 317.370355 602.302216 316.870559 603.191734 315.981041 
C 604.081252 315.091523 604.581049 313.884908 604.581049 312.626939 
C 604.581049 311.36897 604.081252 310.162355 603.191734 309.272837 
C 602.302216 308.383319 601.095601 307.883522 599.837632 307.883522 
C 598.579663 307.883522 597.373048 308.383319 596.48353 309.272837 
C 595.594012 310.162355 595.094216 311.36897 595.094216 312.626939 
C 595.094216 313.884908 595.594012 315.091523 596.48353 315.981041 
C 597.373048 316.870559 598.579663 317.370355 599.837632 317.370355 
z
" clip-path="url(#pc3844f99dc)" style="fill: #1f77b4; fill-opacity: 0.3; stroke: #1f77b4; stroke-opacity: 0.3"/>
    <path d="M 609.275264 314.995651 
C 611.825906 314.995651 614.272423 313.982271 616.076 312.178694 
C 617.879576 310.375118 618.892956 307.928601 618.892956 305.377959 
C 618.892956 302.827317 617.879576 300.3808 616.076 298.577224 
C 614.272423 296.773648 611.825906 295.760267 609.275264 295.760267 
C 606.724623 295.760267 604.278105 296.773648 602.474529 298.577224 
C 600.670953 300.3808 599.657572 302.827317 599.657572 305.377959 
C 599.657572 307.928601 600.670953 310.375118 602.474529 312.178694 
C 604.278105 313.982271 606.724623 314.995651 609.275264 314.995651 
z
" clip-path="url(#pc3844f99dc)" style="fill: #1f77b4; fill-opacity: 0.3; stroke: #1f77b4; stroke-opacity: 0.3"/>
    <path d="M 618.712896 306.928329 
C 621.618051 306.928329 624.404609 305.774099 626.458863 303.719844 
C 628.513117 301.66559 629.667348 298.879032 629.667348 295.973878 
C 629.667348 293.068723 628.513117 290.282165 626.458863 288.227911 
C 624.404609 286.173656 621.618051 285.019426 618.712896 285.019426 
C 615.807742 285.019426 613.021184 286.173656 610.96693 288.227911 
C 608.912675 290.282165 607.758445 293.068723 607.758445 295.973878 
C 607.758445 298.879032 608.912675 301.66559 610.96693 303.719844 
C 613.021184 305.774099 615.807742 306.928329 618.712896 306.928329 
z
" clip-path="url(#pc3844f99dc)" style="fill: #1f77b4; fill-opacity: 0.3; stroke: #1f77b4; stroke-opacity: 0.3"/>
    <path d="M 628.150529 298.954029 
C 629.408497 298.954029 630.615112 298.454232 631.504631 297.564714 
C 632.394149 296.675196 632.893945 295.468581 632.893945 294.210612 
C 632.893945 292.952643 632.394149 291.746029 631.504631 290.85651 
C 630.615112 289.966992 629.408497 289.467196 628.150529 289.467196 
C 626.89256 289.467196 625.685945 289.966992 624.796427 290.85651 
C 623.906908 291.746029 623.407112 292.952643 623.407112 294.210612 
C 623.407112 295.468581 623.906908 296.675196 624.796427 297.564714 
C 625.685945 298.454232 626.89256 298.954029 628.150529 298.954029 
z
" clip-path="url(#pc3844f99dc)" style="fill: #1f77b4; fill-opacity: 0.3; stroke: #1f77b4; stroke-opacity: 0.3"/>
    <path d="M 637.588161 297.363313 
C 639.46343 297.363313 641.262145 296.61826 642.588161 295.292245 
C 643.914176 293.966229 644.659228 292.167514 644.659228 290.292245 
C 644.659228 288.416976 643.914176 286.61826 642.588161 285.292245 
C 641.262145 283.966229 639.46343 283.221177 637.588161 283.221177 
C 635.712892 283.221177 633.914176 283.966229 632.588161 285.292245 
C 631.262145 286.61826 630.517093 288.416976 630.517093 290.292245 
C 630.517093 292.167514 631.262145 293.966229 632.588161 295.292245 
C 633.914176 296.61826 635.712892 297.363313 637.588161 297.363313 
z
" clip-path="url(#pc3844f99dc)" style="fill: #1f77b4; fill-opacity: 0.3; stroke: #1f77b4; stroke-opacity: 0.3"/>
    <path d="M 647.025793 293.444945 
C 648.901062 293.444945 650.699777 292.699893 652.025793 291.373878 
C 653.351808 290.047862 654.096861 288.249147 654.096861 286.373878 
C 654.096861 284.498608 653.351808 282.699893 652.025793 281.373878 
C 650.699777 280.047862 648.901062 279.30281 647.025793 279.30281 
C 645.150524 279.30281 643.351808 280.047862 642.025793 281.373878 
C 640.699777 282.699893 639.954725 284.498608 639.954725 286.373878 
C 639.954725 288.249147 640.699777 290.047862 642.025793 291.373878 
C 643.351808 292.699893 645.150524 293.444945 647.025793 293.444945 
z
" clip-path="url(#pc3844f99dc)" style="fill: #1f77b4; fill-opacity: 0.3; stroke: #1f77b4; stroke-opacity: 0.3"/>
    <path d="M 656.463425 289.555551 
C 658.242461 289.555551 659.948873 288.848732 661.206841 287.590763 
C 662.46481 286.332795 663.171629 284.626383 663.171629 282.847347 
C 663.171629 281.06831 662.46481 279.361899 661.206841 278.10393 
C 659.948873 276.845962 658.242461 276.139143 656.463425 276.139143 
C 654.684388 276.139143 652.977977 276.845962 651.720008 278.10393 
C 650.46204 279.361899 649.755221 281.06831 649.755221 282.847347 
C 649.755221 284.626383 650.46204 286.332795 651.720008 287.590763 
C 652.977977 288.848732 654.684388 289.555551 656.463425 289.555551 
z
" clip-path="url(#pc3844f99dc)" style="fill: #1f77b4; fill-opacity: 0.3; stroke: #1f77b4; stroke-opacity: 0.3"/>
    <path d="M 665.901057 286.016922 
C 667.728843 286.016922 669.482014 285.290735 670.774454 283.998295 
C 672.066894 282.705855 672.793081 280.952684 672.793081 279.124898 
C 672.793081 277.297112 672.066894 275.543941 670.774454 274.251501 
C 669.482014 272.959061 667.728843 272.232874 665.901057 272.232874 
C 664.073271 272.232874 662.3201 272.959061 661.02766 274.251501 
C 659.73522 275.543941 659.009033 277.297112 659.009033 279.124898 
C 659.009033 280.952684 659.73522 282.705855 661.02766 283.998295 
C 662.3201 285.290735 664.073271 286.016922 665.901057 286.016922 
z
" clip-path="url(#pc3844f99dc)" style="fill: #1f77b4; fill-opacity: 0.3; stroke: #1f77b4; stroke-opacity: 0.3"/>
    <path d="M 675.338689 281.957958 
C 677.596812 281.957958 679.762752 281.060797 681.359487 279.464063 
C 682.956221 277.867328 683.853382 275.701388 683.853382 273.443265 
C 683.853382 271.185142 682.956221 269.019202 681.359487 267.422468 
C 679.762752 265.825734 677.596812 264.928572 675.338689 264.928572 
C 673.080566 264.928572 670.914626 265.825734 669.317892 267.422468 
C 667.721158 269.019202 666.823996 271.185142 666.823996 273.443265 
C 666.823996 275.701388 667.721158 277.867328 669.317892 279.464063 
C 670.914626 281.060797 673.080566 281.957958 675.338689 281.957958 
z
" clip-path="url(#pc3844f99dc)" style="fill: #1f77b4; fill-opacity: 0.3; stroke: #1f77b4; stroke-opacity: 0.3"/>
    <path d="M 684.776321 276.225968 
C 687.073048 276.225968 689.276015 275.313469 690.900046 273.689439 
C 692.524076 272.065408 693.436575 269.862441 693.436575 267.565714 
C 693.436575 265.268988 692.524076 263.066021 690.900046 261.44199 
C 689.276015 259.817959 687.073048 258.90546 684.776321 258.90546 
C 682.479595 258.90546 680.276628 259.817959 678.652597 261.44199 
C 677.028566 263.066021 676.116067 265.268988 676.116067 267.565714 
C 676.116067 269.862441 677.028566 272.065408 678.652597 273.689439 
C 680.276628 275.313469 682.479595 276.225968 684.776321 276.225968 
z
" clip-path="url(#pc3844f99dc)" style="fill: #1f77b4; fill-opacity: 0.3; stroke: #1f77b4; stroke-opacity: 0.3"/>
    <path d="M 694.213953 269.509445 
C 696.963638 269.509445 699.601072 268.416984 701.545393 266.472664 
C 703.489713 264.528343 704.582174 261.890909 704.582174 259.141224 
C 704.582174 256.39154 703.489713 253.754106 701.545393 251.809785 
C 699.601072 249.865465 696.963638 248.773004 694.213953 248.773004 
C 691.464269 248.773004 688.826835 249.865465 686.882514 251.809785 
C 684.938194 253.754106 683.845733 256.39154 683.845733 259.141224 
C 683.845733 261.890909 684.938194 264.528343 686.882514 266.472664 
C 688.826835 268.416984 691.464269 269.509445 694.213953 269.509445 
z
" clip-path="url(#pc3844f99dc)" style="fill: #1f77b4; fill-opacity: 0.3; stroke: #1f77b4; stroke-opacity: 0.3"/>
    <path d="M 703.651586 262.293925 
C 705.526855 262.293925 707.32557 261.548873 708.651586 260.222857 
C 709.977601 258.896842 710.722653 257.098126 710.722653 255.222857 
C 710.722653 253.347588 709.977601 251.548873 708.651586 250.222857 
C 707.32557 248.896842 705.526855 248.151789 703.651586 248.151789 
C 701.776317 248.151789 699.977601 248.896842 698.651586 250.222857 
C 697.32557 251.548873 696.580518 253.347588 696.580518 255.222857 
C 696.580518 257.098126 697.32557 258.896842 698.651586 260.222857 
C 699.977601 261.548873 701.776317 262.293925 703.651586 262.293925 
z
" clip-path="url(#pc3844f99dc)" style="fill: #1f77b4; fill-opacity: 0.3; stroke: #1f77b4; stroke-opacity: 0.3"/>
    <path d="M 713.089218 255.901186 
C 716.282686 255.901186 719.345788 254.632408 721.603911 252.374285 
C 723.862034 250.116162 725.130812 247.05306 725.130812 243.859592 
C 725.130812 240.666124 723.862034 237.603022 721.603911 235.344899 
C 719.345788 233.086776 716.282686 231.817997 713.089218 231.817997 
C 709.89575 231.817997 706.832648 233.086776 704.574525 235.344899 
C 702.316402 237.603022 701.047623 240.666124 701.047623 243.859592 
C 701.047623 247.05306 702.316402 250.116162 704.574525 252.374285 
C 706.832648 254.632408 709.89575 255.901186 713.089218 255.901186 
z
" clip-path="url(#pc3844f99dc)" style="fill: #1f77b4; fill-opacity: 0.3; stroke: #1f77b4; stroke-opacity: 0.3"/>
    <path d="M 722.52685 246.936345 
C 724.537852 246.936345 726.466759 246.137365 727.888753 244.715372 
C 729.310746 243.293379 730.109725 241.364471 730.109725 239.353469 
C 730.109725 237.342467 729.310746 235.41356 727.888753 233.991567 
C 726.466759 232.569574 724.537852 231.770594 722.52685 231.770594 
C 720.515848 231.770594 718.58694 232.569574 717.164947 233.991567 
C 715.742954 235.41356 714.943974 237.342467 714.943974 239.353469 
C 714.943974 241.364471 715.742954 243.293379 717.164947 244.715372 
C 718.58694 246.137365 720.515848 246.936345 722.52685 246.936345 
z
" clip-path="url(#pc3844f99dc)" style="fill: #1f77b4; fill-opacity: 0.3; stroke: #1f77b4; stroke-opacity: 0.3"/>
    <path d="M 731.964482 242.479675 
C 733.417059 242.479675 734.810338 241.90256 735.837465 240.875432 
C 736.864593 239.848305 737.441708 238.455026 737.441708 237.002449 
C 737.441708 235.549872 736.864593 234.156593 735.837465 233.129466 
C 734.810338 232.102338 733.417059 231.525223 731.964482 231.525223 
C 730.511905 231.525223 729.118626 232.102338 728.091499 233.129466 
C 727.064371 234.156593 726.487256 235.549872 726.487256 237.002449 
C 726.487256 238.455026 727.064371 239.848305 728.091499 240.875432 
C 729.118626 241.90256 730.511905 242.479675 731.964482 242.479675 
z
" clip-path="url(#pc3844f99dc)" style="fill: #1f77b4; fill-opacity: 0.3; stroke: #1f77b4; stroke-opacity: 0.3"/>
    <path d="M 741.402114 240.155149 
C 743.277383 240.155149 745.076099 239.410097 746.402114 238.084082 
C 747.72813 236.758066 748.473182 234.959351 748.473182 233.084082 
C 748.473182 231.208813 747.72813 229.410097 746.402114 228.084082 
C 745.076099 226.758066 743.277383 226.013014 741.402114 226.013014 
C 739.526845 226.013014 737.72813 226.758066 736.402114 228.084082 
C 735.076099 229.410097 734.331046 231.208813 734.331046 233.084082 
C 734.331046 234.959351 735.076099 236.758066 736.402114 238.084082 
C 737.72813 239.410097 739.526845 240.155149 741.402114 240.155149 
z
" clip-path="url(#pc3844f99dc)" style="fill: #1f77b4; fill-opacity: 0.3; stroke: #1f77b4; stroke-opacity: 0.3"/>
    <path d="M 750.839746 236.010124 
C 753.018612 236.010124 755.108531 235.144452 756.649221 233.603761 
C 758.189912 232.06307 759.055585 229.973152 759.055585 227.794286 
C 759.055585 225.61542 758.189912 223.525501 756.649221 221.984811 
C 755.108531 220.44412 753.018612 219.578447 750.839746 219.578447 
C 748.66088 219.578447 746.570962 220.44412 745.030271 221.984811 
C 743.48958 223.525501 742.623908 225.61542 742.623908 227.794286 
C 742.623908 229.973152 743.48958 232.06307 745.030271 233.603761 
C 746.570962 235.144452 748.66088 236.010124 750.839746 236.010124 
z
" clip-path="url(#pc3844f99dc)" style="fill: #1f77b4; fill-opacity: 0.3; stroke: #1f77b4; stroke-opacity: 0.3"/>
    <path d="M 760.277378 230.946986 
C 762.152648 230.946986 763.951363 230.201934 765.277378 228.875918 
C 766.603394 227.549903 767.348446 225.751187 767.348446 223.875918 
C 767.348446 222.000649 766.603394 220.201934 765.277378 218.875918 
C 763.951363 217.549903 762.152648 216.804851 760.277378 216.804851 
C 758.402109 216.804851 756.603394 217.549903 755.277378 218.875918 
C 753.951363 220.201934 753.206311 222.000649 753.206311 223.875918 
C 753.206311 225.751187 753.951363 227.549903 755.277378 228.875918 
C 756.603394 230.201934 758.402109 230.946986 760.277378 230.946986 
z
" clip-path="url(#pc3844f99dc)" style="fill: #1f77b4; fill-opacity: 0.3; stroke: #1f77b4; stroke-opacity: 0.3"/>
    <path d="M 769.715011 226.708979 
C 771.973134 226.708979 774.139074 225.811817 775.735808 224.215083 
C 777.332542 222.618349 778.229704 220.452409 778.229704 218.194286 
C 778.229704 215.936163 777.332542 213.770223 775.735808 212.173488 
C 774.139074 210.576754 771.973134 209.679593 769.715011 209.679593 
C 767.456888 209.679593 765.290947 210.576754 763.694213 212.173488 
C 762.097479 213.770223 761.200317 215.936163 761.200317 218.194286 
C 761.200317 220.452409 762.097479 222.618349 763.694213 224.215083 
C 765.290947 225.811817 767.456888 226.708979 769.715011 226.708979 
z
" clip-path="url(#pc3844f99dc)" style="fill: #1f77b4; fill-opacity: 0.3; stroke: #1f77b4; stroke-opacity: 0.3"/>
    <path d="M 779.152643 221.382876 
C 780.881555 221.382876 782.539889 220.695972 783.762415 219.473446 
C 784.984941 218.25092 785.671845 216.592586 785.671845 214.863673 
C 785.671845 213.134761 784.984941 211.476427 783.762415 210.253901 
C 782.539889 209.031375 780.881555 208.344471 779.152643 208.344471 
C 777.42373 208.344471 775.765396 209.031375 774.54287 210.253901 
C 773.320345 211.476427 772.63344 213.134761 772.63344 214.863673 
C 772.63344 216.592586 773.320345 218.25092 774.54287 219.473446 
C 775.765396 220.695972 777.42373 221.382876 779.152643 221.382876 
z
" clip-path="url(#pc3844f99dc)" style="fill: #1f77b4; fill-opacity: 0.3; stroke: #1f77b4; stroke-opacity: 0.3"/>
    <path d="M 788.590275 217.995076 
C 790.511854 217.995076 792.354989 217.231625 793.71375 215.872863 
C 795.072512 214.514102 795.835963 212.670967 795.835963 210.749388 
C 795.835963 208.827809 795.072512 206.984674 793.71375 205.625912 
C 792.354989 204.267151 790.511854 203.503699 788.590275 203.503699 
C 786.668696 203.503699 784.825561 204.267151 783.466799 205.625912 
C 782.108038 206.984674 781.344586 208.827809 781.344586 210.749388 
C 781.344586 212.670967 782.108038 214.514102 783.466799 215.872863 
C 784.825561 217.231625 786.668696 217.995076 788.590275 217.995076 
z
" clip-path="url(#pc3844f99dc)" style="fill: #1f77b4; fill-opacity: 0.3; stroke: #1f77b4; stroke-opacity: 0.3"/>
    <path d="M 798.027907 213.931061 
C 799.806943 213.931061 801.513355 213.224242 802.771323 211.966274 
C 804.029292 210.708305 804.736111 209.001894 804.736111 207.222857 
C 804.736111 205.443821 804.029292 203.737409 802.771323 202.479441 
C 801.513355 201.221472 799.806943 200.514653 798.027907 200.514653 
C 796.24887 200.514653 794.542459 201.221472 793.28449 202.479441 
C 792.026522 203.737409 791.319703 205.443821 791.319703 207.222857 
C 791.319703 209.001894 792.026522 210.708305 793.28449 211.966274 
C 794.542459 213.224242 796.24887 213.931061 798.027907 213.931061 
z
" clip-path="url(#pc3844f99dc)" style="fill: #1f77b4; fill-opacity: 0.3; stroke: #1f77b4; stroke-opacity: 0.3"/>
    <path d="M 807.465539 210.376795 
C 808.977429 210.376795 810.4276 209.776115 811.496668 208.707047 
C 812.565736 207.637979 813.166416 206.187809 813.166416 204.675918 
C 813.166416 203.164028 812.565736 201.713857 811.496668 200.644789 
C 810.4276 199.575722 808.977429 198.975041 807.465539 198.975041 
C 805.953649 198.975041 804.503478 199.575722 803.43441 200.644789 
C 802.365342 201.713857 801.764662 203.164028 801.764662 204.675918 
C 801.764662 206.187809 802.365342 207.637979 803.43441 208.707047 
C 804.503478 209.776115 805.953649 210.376795 807.465539 210.376795 
z
" clip-path="url(#pc3844f99dc)" style="fill: #1f77b4; fill-opacity: 0.3; stroke: #1f77b4; stroke-opacity: 0.3"/>
    <path d="M 816.903171 204.978879 
C 820.204923 204.978879 823.371888 203.667079 825.70658 201.332388 
C 828.041271 198.997697 829.353071 195.830732 829.353071 192.52898 
C 829.353071 189.227228 828.041271 186.060262 825.70658 183.725571 
C 823.371888 181.39088 820.204923 180.07908 816.903171 180.07908 
C 813.601419 180.07908 810.434454 181.39088 808.099763 183.725571 
C 805.765072 186.060262 804.453272 189.227228 804.453272 192.52898 
C 804.453272 195.830732 805.765072 198.997697 808.099763 201.332388 
C 810.434454 203.667079 813.601419 204.978879 816.903171 204.978879 
z
" clip-path="url(#pc3844f99dc)" style="fill: #1f77b4; fill-opacity: 0.3; stroke: #1f77b4; stroke-opacity: 0.3"/>
    <path d="M 826.340803 195.698555 
C 828.16859 195.698555 829.921761 194.972368 831.214201 193.679928 
C 832.506641 192.387488 833.232828 190.634317 833.232828 188.806531 
C 833.232828 186.978744 832.506641 185.225573 831.214201 183.933133 
C 829.921761 182.640693 828.16859 181.914506 826.340803 181.914506 
C 824.513017 181.914506 822.759846 182.640693 821.467406 183.933133 
C 820.174966 185.225573 819.448779 186.978744 819.448779 188.806531 
C 819.448779 190.634317 820.174966 192.387488 821.467406 193.679928 
C 822.759846 194.972368 824.513017 195.698555 826.340803 195.698555 
z
" clip-path="url(#pc3844f99dc)" style="fill: #1f77b4; fill-opacity: 0.3; stroke: #1f77b4; stroke-opacity: 0.3"/>
    <path d="M 835.778436 190.750261 
C 838.52812 190.750261 841.165554 189.6578 843.109875 187.71348 
C 845.054195 185.76916 846.146656 183.131725 846.146656 180.382041 
C 846.146656 177.632357 845.054195 174.994922 843.109875 173.050602 
C 841.165554 171.106281 838.52812 170.01382 835.778436 170.01382 
C 833.028751 170.01382 830.391317 171.106281 828.446996 173.050602 
C 826.502676 174.994922 825.410215 177.632357 825.410215 180.382041 
C 825.410215 183.131725 826.502676 185.76916 828.446996 187.71348 
C 830.391317 189.6578 833.028751 190.750261 835.778436 190.750261 
z
" clip-path="url(#pc3844f99dc)" style="fill: #1f77b4; fill-opacity: 0.3; stroke: #1f77b4; stroke-opacity: 0.3"/>
    <path d="M 845.216068 183.164744 
C 847.512794 183.164744 849.715761 182.252245 851.339792 180.628214 
C 852.963823 179.004183 853.876322 176.801216 853.876322 174.50449 
C 853.876322 172.207764 852.963823 170.004796 851.339792 168.380765 
C 849.715761 166.756735 847.512794 165.844236 845.216068 165.844236 
C 842.919341 165.844236 840.716374 166.756735 839.092343 168.380765 
C 837.468313 170.004796 836.555814 172.207764 836.555814 174.50449 
C 836.555814 176.801216 837.468313 179.004183 839.092343 180.628214 
C 840.716374 182.252245 842.919341 183.164744 845.216068 183.164744 
z
" clip-path="url(#pc3844f99dc)" style="fill: #1f77b4; fill-opacity: 0.3; stroke: #1f77b4; stroke-opacity: 0.3"/>
    <path d="M 854.6537 177.674065 
C 856.481486 177.674065 858.234657 176.947878 859.527097 175.655438 
C 860.819537 174.362998 861.545724 172.609827 861.545724 170.782041 
C 861.545724 168.954255 860.819537 167.201084 859.527097 165.908644 
C 858.234657 164.616204 856.481486 163.890016 854.6537 163.890016 
C 852.825914 163.890016 851.072743 164.616204 849.780303 165.908644 
C 848.487863 167.201084 847.761675 168.954255 847.761675 170.782041 
C 847.761675 172.609827 848.487863 174.362998 849.780303 175.655438 
C 851.072743 176.947878 852.825914 177.674065 854.6537 177.674065 
z
" clip-path="url(#pc3844f99dc)" style="fill: #1f77b4; fill-opacity: 0.3; stroke: #1f77b4; stroke-opacity: 0.3"/>
    <path d="M 864.091332 173.971902 
C 865.768624 173.971902 867.377444 173.305507 868.563468 172.119483 
C 869.749492 170.933459 870.415887 169.324639 870.415887 167.647347 
C 870.415887 165.970055 869.749492 164.361235 868.563468 163.175211 
C 867.377444 161.989187 865.768624 161.322792 864.091332 161.322792 
C 862.41404 161.322792 860.80522 161.989187 859.619196 163.175211 
C 858.433172 164.361235 857.766777 165.970055 857.766777 167.647347 
C 857.766777 169.324639 858.433172 170.933459 859.619196 172.119483 
C 860.80522 173.305507 862.41404 173.971902 864.091332 173.971902 
z
" clip-path="url(#pc3844f99dc)" style="fill: #1f77b4; fill-opacity: 0.3; stroke: #1f77b4; stroke-opacity: 0.3"/>
    <path d="M 873.528964 170.688163 
C 874.85498 170.688163 876.126863 170.161332 877.064498 169.223697 
C 878.002133 168.286063 878.528964 167.014179 878.528964 165.688163 
C 878.528964 164.362148 878.002133 163.090264 877.064498 162.152629 
C 876.126863 161.214995 874.85498 160.688163 873.528964 160.688163 
C 872.202949 160.688163 870.931065 161.214995 869.99343 162.152629 
C 869.055796 163.090264 868.528964 164.362148 868.528964 165.688163 
C 868.528964 167.014179 869.055796 168.286063 869.99343 169.223697 
C 870.931065 170.161332 872.202949 170.688163 873.528964 170.688163 
z
" clip-path="url(#pc3844f99dc)" style="fill: #1f77b4; fill-opacity: 0.3; stroke: #1f77b4; stroke-opacity: 0.3"/>
    <path d="M 882.966596 168.819566 
C 884.888175 168.819566 886.73131 168.056114 888.090072 166.697353 
C 889.448833 165.338591 890.212285 163.495457 890.212285 161.573878 
C 890.212285 159.652299 889.448833 157.809164 888.090072 156.450402 
C 886.73131 155.091641 884.888175 154.328189 882.966596 154.328189 
C 881.045017 154.328189 879.201882 155.091641 877.843121 156.450402 
C 876.484359 157.809164 875.720908 159.652299 875.720908 161.573878 
C 875.720908 163.495457 876.484359 165.338591 877.843121 166.697353 
C 879.201882 168.056114 881.045017 168.819566 882.966596 168.819566 
z
" clip-path="url(#pc3844f99dc)" style="fill: #1f77b4; fill-opacity: 0.3; stroke: #1f77b4; stroke-opacity: 0.3"/>
    <path d="M 892.404228 164.406938 
C 894.662351 164.406938 896.828292 163.509776 898.425026 161.913042 
C 900.02176 160.316308 900.918922 158.150368 900.918922 155.892245 
C 900.918922 153.634122 900.02176 151.468182 898.425026 149.871448 
C 896.828292 148.274714 894.662351 147.377552 892.404228 147.377552 
C 890.146105 147.377552 887.980165 148.274714 886.383431 149.871448 
C 884.786697 151.468182 883.889535 153.634122 883.889535 155.892245 
C 883.889535 158.150368 884.786697 160.316308 886.383431 161.913042 
C 887.980165 163.509776 890.146105 164.406938 892.404228 164.406938 
z
" clip-path="url(#pc3844f99dc)" style="fill: #1f77b4; fill-opacity: 0.3; stroke: #1f77b4; stroke-opacity: 0.3"/>
    <path d="M 901.84186 158.998239 
C 903.808659 158.998239 905.695168 158.216822 907.085905 156.826085 
C 908.476641 155.435348 909.258059 153.54884 909.258059 151.582041 
C 909.258059 149.615242 908.476641 147.728733 907.085905 146.337997 
C 905.695168 144.94726 903.808659 144.165842 901.84186 144.165842 
C 899.875062 144.165842 897.988553 144.94726 896.597816 146.337997 
C 895.207079 147.728733 894.425662 149.615242 894.425662 151.582041 
C 894.425662 153.54884 895.207079 155.435348 896.597816 156.826085 
C 897.988553 158.216822 899.875062 158.998239 901.84186 158.998239 
z
" clip-path="url(#pc3844f99dc)" style="fill: #1f77b4; fill-opacity: 0.3; stroke: #1f77b4; stroke-opacity: 0.3"/>
    <path d="M 911.279493 153.815433 
C 913.898163 153.815433 916.409933 152.775024 918.261613 150.923345 
C 920.113292 149.071665 921.153701 146.559895 921.153701 143.941224 
C 921.153701 141.322554 920.113292 138.810784 918.261613 136.959104 
C 916.409933 135.107425 913.898163 134.067016 911.279493 134.067016 
C 908.660822 134.067016 906.149052 135.107425 904.297373 136.959104 
C 902.445693 138.810784 901.405284 141.322554 901.405284 143.941224 
C 901.405284 146.559895 902.445693 149.071665 904.297373 150.923345 
C 906.149052 152.775024 908.660822 153.815433 911.279493 153.815433 
z
" clip-path="url(#pc3844f99dc)" style="fill: #1f77b4; fill-opacity: 0.3; stroke: #1f77b4; stroke-opacity: 0.3"/>
    <path d="M 920.717125 146.82211 
C 922.935973 146.82211 925.064242 145.940553 926.633205 144.37159 
C 928.202167 142.802627 929.083725 140.674359 929.083725 138.45551 
C 929.083725 136.236662 928.202167 134.108393 926.633205 132.53943 
C 925.064242 130.970468 922.935973 130.08891 920.717125 130.08891 
C 918.498276 130.08891 916.370008 130.970468 914.801045 132.53943 
C 913.232082 134.108393 912.350524 136.236662 912.350524 138.45551 
C 912.350524 140.674359 913.232082 142.802627 914.801045 144.37159 
C 916.370008 145.940553 918.498276 146.82211 920.717125 146.82211 
z
" clip-path="url(#pc3844f99dc)" style="fill: #1f77b4; fill-opacity: 0.3; stroke: #1f77b4; stroke-opacity: 0.3"/>
    <path d="M 930.154757 141.288571 
C 932.41288 141.288571 934.57882 140.391409 936.175554 138.794675 
C 937.772288 137.197941 938.66945 135.032001 938.66945 132.773878 
C 938.66945 130.515755 937.772288 128.349814 936.175554 126.75308 
C 934.57882 125.156346 932.41288 124.259184 930.154757 124.259184 
C 927.896634 124.259184 925.730694 125.156346 924.13396 126.75308 
C 922.537225 128.349814 921.640064 130.515755 921.640064 132.773878 
C 921.640064 135.032001 922.537225 137.197941 924.13396 138.794675 
C 925.730694 140.391409 927.896634 141.288571 930.154757 141.288571 
z
" clip-path="url(#pc3844f99dc)" style="fill: #1f77b4; fill-opacity: 0.3; stroke: #1f77b4; stroke-opacity: 0.3"/>
    <path d="M 939.592389 135.963739 
C 941.269681 135.963739 942.878501 135.297344 944.064525 134.11132 
C 945.250549 132.925295 945.916944 131.316475 945.916944 129.639184 
C 945.916944 127.961892 945.250549 126.353072 944.064525 125.167048 
C 942.878501 123.981023 941.269681 123.314628 939.592389 123.314628 
C 937.915097 123.314628 936.306277 123.981023 935.120253 125.167048 
C 933.934229 126.353072 933.267834 127.961892 933.267834 129.639184 
C 933.267834 131.316475 933.934229 132.925295 935.120253 134.11132 
C 936.306277 135.297344 937.915097 135.963739 939.592389 135.963739 
z
" clip-path="url(#pc3844f99dc)" style="fill: #1f77b4; fill-opacity: 0.3; stroke: #1f77b4; stroke-opacity: 0.3"/>
    <path d="M 949.030021 131.350744 
C 951.874008 131.350744 954.601895 130.220816 956.612897 128.209814 
C 958.623899 126.198812 959.753826 123.470925 959.753826 120.626939 
C 959.753826 117.782952 958.623899 115.055065 956.612897 113.044063 
C 954.601895 111.033061 951.874008 109.903133 949.030021 109.903133 
C 946.186035 109.903133 943.458148 111.033061 941.447146 113.044063 
C 939.436144 115.055065 938.306216 117.782952 938.306216 120.626939 
C 938.306216 123.470925 939.436144 126.198812 941.447146 128.209814 
C 943.458148 130.220816 946.186035 131.350744 949.030021 131.350744 
z
" clip-path="url(#pc3844f99dc)" style="fill: #1f77b4; fill-opacity: 0.3; stroke: #1f77b4; stroke-opacity: 0.3"/>
    <path d="M 958.467653 120.541559 
C 961.874249 120.541559 965.141778 119.188104 967.550604 116.779278 
C 969.959431 114.370451 971.312886 111.102922 971.312886 107.696327 
C 971.312886 104.289731 969.959431 101.022202 967.550604 98.613375 
C 965.141778 96.204549 961.874249 94.851094 958.467653 94.851094 
C 955.061058 94.851094 951.793529 96.204549 949.384702 98.613375 
C 946.975875 101.022202 945.622421 104.289731 945.622421 107.696327 
C 945.622421 111.102922 946.975875 114.370451 949.384702 116.779278 
C 951.793529 119.188104 955.061058 120.541559 958.467653 120.541559 
z
" clip-path="url(#pc3844f99dc)" style="fill: #1f77b4; fill-opacity: 0.3; stroke: #1f77b4; stroke-opacity: 0.3"/>
    <path d="M 967.905285 110.77308 
C 969.916287 110.77308 971.845195 109.9741 973.267188 108.552107 
C 974.689181 107.130114 975.488161 105.201206 975.488161 103.190204 
C 975.488161 101.179202 974.689181 99.250295 973.267188 97.828301 
C 971.845195 96.406308 969.916287 95.607329 967.905285 95.607329 
C 965.894283 95.607329 963.965376 96.406308 962.543383 97.828301 
C 961.12139 99.250295 960.32241 101.179202 960.32241 103.190204 
C 960.32241 105.201206 961.12139 107.130114 962.543383 108.552107 
C 963.965376 109.9741 965.894283 110.77308 967.905285 110.77308 
z
" clip-path="url(#pc3844f99dc)" style="fill: #1f77b4; fill-opacity: 0.3; stroke: #1f77b4; stroke-opacity: 0.3"/>
    <path d="M 977.342918 105.281779 
C 980.027894 105.281779 982.603263 104.215027 984.501828 102.316462 
C 986.400393 100.417896 987.467146 97.842528 987.467146 95.157551 
C 987.467146 92.472574 986.400393 89.897206 984.501828 87.99864 
C 982.603263 86.100075 980.027894 85.033323 977.342918 85.033323 
C 974.657941 85.033323 972.082572 86.100075 970.184007 87.99864 
C 968.285442 89.897206 967.218689 92.472574 967.218689 95.157551 
C 967.218689 97.842528 968.285442 100.417896 970.184007 102.316462 
C 972.082572 104.215027 974.657941 105.281779 977.342918 105.281779 
z
" clip-path="url(#pc3844f99dc)" style="fill: #1f77b4; fill-opacity: 0.3; stroke: #1f77b4; stroke-opacity: 0.3"/>
    <path d="M 986.78055 97.990612 
C 989.038673 97.990612 991.204613 97.09345 992.801347 95.496716 
C 994.398081 93.899982 995.295243 91.734041 995.295243 89.475918 
C 995.295243 87.217795 994.398081 85.051855 992.801347 83.455121 
C 991.204613 81.858387 989.038673 80.961225 986.78055 80.961225 
C 984.522427 80.961225 982.356486 81.858387 980.759752 83.455121 
C 979.163018 85.051855 978.265856 87.217795 978.265856 89.475918 
C 978.265856 91.734041 979.163018 93.899982 980.759752 95.496716 
C 982.356486 97.09345 984.522427 97.990612 986.78055 97.990612 
z
" clip-path="url(#pc3844f99dc)" style="fill: #1f77b4; fill-opacity: 0.3; stroke: #1f77b4; stroke-opacity: 0.3"/>
    <path d="M 996.218182 90.861139 
C 996.637505 90.861139 997.03971 90.69454 997.336216 90.398034 
C 997.632722 90.101528 997.799321 89.699323 997.799321 89.28 
C 997.799321 88.860677 997.632722 88.458472 997.336216 88.161966 
C 997.03971 87.86546 996.637505 87.698861 996.218182 87.698861 
C 995.798859 87.698861 995.396654 87.86546 995.100148 88.161966 
C 994.803642 88.458472 994.637043 88.860677 994.637043 89.28 
C 994.637043 89.699323 994.803642 90.101528 995.100148 90.398034 
C 995.396654 90.69454 995.798859 90.861139 996.218182 90.861139 
z
" clip-path="url(#pc3844f99dc)" style="fill: #1f77b4; fill-opacity: 0.3; stroke: #1f77b4; stroke-opacity: 0.3"/>
   </g>
   <g id="matplotlib.axis_1">
    <g id="xtick_1">
     <g id="line2d_1">
      <defs>
       <path id="maf7f17862d" d="M 0 0 
L 0 3.5 
" style="stroke: #000000; stroke-width: 0.8"/>
      </defs>
      <g>
       <use xlink:href="#maf7f17862d" x="184.581818" y="512.64" style="stroke: #000000; stroke-width: 0.8"/>
      </g>
     </g>
     <g id="text_1">
      <!-- 2026-01-01 -->
      <g transform="translate(155.524006 527.238438) scale(0.1 -0.1)">
       <defs>
        <path id="DejaVuSans-32" d="M 1228 531 
L 3431 531 
L 3431 0 
L 469 0 
L 469 531 
Q 828 903 1448 1529 
Q 2069 2156 2228 2338 
Q 2531 2678 2651 2914 
Q 2772 3150 2772 3378 
Q 2772 3750 2511 3984 
Q 2250 4219 1831 4219 
Q 1534 4219 1204 4116 
Q 875 4013 500 3803 
L 500 4441 
Q 881 4594 1212 4672 
Q 1544 4750 1819 4750 
Q 2544 4750 2975 4387 
Q 3406 4025 3406 3419 
Q 3406 3131 3298 2873 
Q 3191 2616 2906 2266 
Q 2828 2175 2409 1742 
Q 1991 1309 1228 531 
z
" transform="scale(0.015625)"/>
        <path id="DejaVuSans-30" d="M 2034 4250 
Q 1547 4250 1301 3770 
Q 1056 3291 1056 2328 
Q 1056 1369 1301 889 
Q 1547 409 2034 409 
Q 2525 409 2770 889 
Q 3016 1369 3016 2328 
Q 3016 3291 2770 3770 
Q 2525 4250 2034 4250 
z
M 2034 4750 
Q 2819 4750 3233 4129 
Q 3647 3509 3647 2328 
Q 3647 1150 3233 529 
Q 2819 -91 2034 -91 
Q 1250 -91 836 529 
Q 422 1150 422 2328 
Q 422 3509 836 4129 
Q 1250 4750 2034 4750 
z
" transform="scale(0.015625)"/>
        <path id="DejaVuSans-36" d="M 2113 2584 
Q 1688 2584 1439 2293 
Q 1191 2003 1191 1497 
Q 1191 994 1439 701 
Q 1688 409 2113 409 
Q 2538 409 2786 701 
Q 3034 994 3034 1497 
Q 3034 2003 2786 2293 
Q 2538 2584 2113 2584 
z
M 3366 4563 
L 3366 3988 
Q 3128 4100 2886 4159 
Q 2644 4219 2406 4219 
Q 1781 4219 1451 3797 
Q 1122 3375 1075 2522 
Q 1259 2794 1537 2939 
Q 1816 3084 2150 3084 
Q 2853 3084 3261 2657 
Q 3669 2231 3669 1497 
Q 3669 778 3244 343 
Q 2819 -91 2113 -91 
Q 1303 -91 875 529 
Q 447 1150 447 2328 
Q 447 3434 972 4092 
Q 1497 4750 2381 4750 
Q 2619 4750 2861 4703 
Q 3103 4656 3366 4563 
z
" transform="scale(0.015625)"/>
        <path id="DejaVuSans-2d" d="M 313 2009 
L 1997 2009 
L 1997 1497 
L 313 1497 
L 313 2009 
z
" transform="scale(0.015625)"/>
        <path id="DejaVuSans-31" d="M 794 531 
L 1825 531 
L 1825 4091 
L 703 3866 
L 703 4441 
L 1819 4666 
L 2450 4666 
L 2450 531 
L 3481 531 
L 3481 0 
L 794 0 
L 794 531 
z
" transform="scale(0.015625)"/>
       </defs>
       <use xlink:href="#DejaVuSans-32"/>
       <use xlink:href="#DejaVuSans-30" x="63.623047"/>
       <use xlink:href="#DejaVuSans-32" x="127.246094"/>
       <use xlink:href="#DejaVuSans-36" x="190.869141"/>
       <use xlink:href="#DejaVuSans-2d" x="254.492188"/>
       <use xlink:href="#DejaVuSans-30" x="290.576172"/>
       <use xlink:href="#DejaVuSans-31" x="354.199219"/>
       <use xlink:href="#DejaVuSans-2d" x="417.822266"/>
       <use xlink:href="#DejaVuSans-30" x="453.90625"/>
       <use xlink:href="#DejaVuSans-31" x="517.529297"/>
      </g>
     </g>
    </g>
    <g id="xtick_2">
     <g id="line2d_2">
      <g>
       <use xlink:href="#maf7f17862d" x="316.708668" y="512.64" style="stroke: #000000; stroke-width: 0.8"/>
      </g>
     </g>
     <g id="text_2">
      <!-- 2026-01-15 -->
      <g transform="translate(287.650856 527.238438) scale(0.1 -0.1)">
       <defs>
        <path id="DejaVuSans-35" d="M 691 4666 
L 3169 4666 
L 3169 4134 
L 1269 4134 
L 1269 2991 
Q 1406 3038 1543 3061 
Q 1681 3084 1819 3084 
Q 2600 3084 3056 2656 
Q 3513 2228 3513 1497 
Q 3513 744 3044 326 
Q 2575 -91 1722 -91 
Q 1428 -91 1123 -41 
Q 819 9 494 109 
L 494 744 
Q 775 591 1075 516 
Q 1375 441 1709 441 
Q 2250 441 2565 725 
Q 2881 1009 2881 1497 
Q 2881 1984 2565 2268 
Q 2250 2553 1709 2553 
Q 1456 2553 1204 2497 
Q 953 2441 691 2322 
L 691 4666 
z
" transform="scale(0.015625)"/>
       </defs>
       <use xlink:href="#DejaVuSans-32"/>
       <use xlink:href="#DejaVuSans-30" x="63.623047"/>
       <use xlink:href="#DejaVuSans-32" x="127.246094"/>
       <use xlink:href="#DejaVuSans-36" x="190.869141"/>
       <use xlink:href="#DejaVuSans-2d" x="254.492188"/>
       <use xlink:href="#DejaVuSans-30" x="290.576172"/>
       <use xlink:href="#DejaVuSans-31" x="354.199219"/>
       <use xlink:href="#DejaVuSans-2d" x="417.822266"/>
       <use xlink:href="#DejaVuSans-31" x="453.90625"/>
       <use xlink:href="#DejaVuSans-35" x="517.529297"/>
      </g>
     </g>
    </g>
    <g id="xtick_3">
     <g id="line2d_3">
      <g>
       <use xlink:href="#maf7f17862d" x="477.148414" y="512.64" style="stroke: #000000; stroke-width: 0.8"/>
      </g>
     </g>
     <g id="text_3">
      <!-- 2026-02-01 -->
      <g transform="translate(448.090602 527.238438) scale(0.1 -0.1)">
       <use xlink:href="#DejaVuSans-32"/>
       <use xlink:href="#DejaVuSans-30" x="63.623047"/>
       <use xlink:href="#DejaVuSans-32" x="127.246094"/>
       <use xlink:href="#DejaVuSans-36" x="190.869141"/>
       <use xlink:href="#DejaVuSans-2d" x="254.492188"/>
       <use xlink:href="#DejaVuSans-30" x="290.576172"/>
       <use xlink:href="#DejaVuSans-32" x="354.199219"/>
       <use xlink:href="#DejaVuSans-2d" x="417.822266"/>
       <use xlink:href="#DejaVuSans-30" x="453.90625"/>
       <use xlink:href="#DejaVuSans-31" x="517.529297"/>
      </g>
     </g>
    </g>
    <g id="xtick_4">
     <g id="line2d_4">
      <g>
       <use xlink:href="#maf7f17862d" x="609.275264" y="512.64" style="stroke: #000000; stroke-width: 0.8"/>
      </g>
     </g>
     <g id="text_4">
      <!-- 2026-02-15 -->
      <g transform="translate(580.217452 527.238438) scale(0.1 -0.1)">
       <use xlink:href="#DejaVuSans-32"/>
       <use xlink:href="#DejaVuSans-30" x="63.623047"/>
       <use xlink:href="#DejaVuSans-32" x="127.246094"/>
       <use xlink:href="#DejaVuSans-36" x="190.869141"/>
       <use xlink:href="#DejaVuSans-2d" x="254.492188"/>
       <use xlink:href="#DejaVuSans-30" x="290.576172"/>
       <use xlink:href="#DejaVuSans-32" x="354.199219"/>
       <use xlink:href="#DejaVuSans-2d" x="417.822266"/>
       <use xlink:href="#DejaVuSans-31" x="453.90625"/>
       <use xlink:href="#DejaVuSans-35" x="517.529297"/>
      </g>
     </g>
    </g>
    <g id="xtick_5">
     <g id="line2d_5">
      <g>
       <use xlink:href="#maf7f17862d" x="741.402114" y="512.64" style="stroke: #000000; stroke-width: 0.8"/>
      </g>
     </g>
     <g id="text_5">
      <!-- 2026-03-01 -->
      <g transform="translate(712.344302 527.238438) scale(0.1 -0.1)">
       <defs>
        <path id="DejaVuSans-33" d="M 2597 2516 
Q 3050 2419 3304 2112 
Q 3559 1806 3559 1356 
Q 3559 666 3084 287 
Q 2609 -91 1734 -91 
Q 1441 -91 1130 -33 
Q 819 25 488 141 
L 488 750 
Q 750 597 1062 519 
Q 1375 441 1716 441 
Q 2309 441 2620 675 
Q 2931 909 2931 1356 
Q 2931 1769 2642 2001 
Q 2353 2234 1838 2234 
L 1294 2234 
L 1294 2753 
L 1863 2753 
Q 2328 2753 2575 2939 
Q 2822 3125 2822 3475 
Q 2822 3834 2567 4026 
Q 2313 4219 1838 4219 
Q 1578 4219 1281 4162 
Q 984 4106 628 3988 
L 628 4550 
Q 988 4650 1302 4700 
Q 1616 4750 1894 4750 
Q 2613 4750 3031 4423 
Q 3450 4097 3450 3541 
Q 3450 3153 3228 2886 
Q 3006 2619 2597 2516 
z
" transform="scale(0.015625)"/>
       </defs>
       <use xlink:href="#DejaVuSans-32"/>
       <use xlink:href="#DejaVuSans-30" x="63.623047"/>
       <use xlink:href="#DejaVuSans-32" x="127.246094"/>
       <use xlink:href="#DejaVuSans-36" x="190.869141"/>
       <use xlink:href="#DejaVuSans-2d" x="254.492188"/>
       <use xlink:href="#DejaVuSans-30" x="290.576172"/>
       <use xlink:href="#DejaVuSans-33" x="354.199219"/>
       <use xlink:href="#DejaVuSans-2d" x="417.822266"/>
       <use xlink:href="#DejaVuSans-30" x="453.90625"/>
       <use xlink:href="#DejaVuSans-31" x="517.529297"/>
      </g>
     </g>
    </g>
    <g id="xtick_6">
     <g id="line2d_6">
      <g>
       <use xlink:href="#maf7f17862d" x="873.528964" y="512.64" style="stroke: #000000; stroke-width: 0.8"/>
      </g>
     </g>
     <g id="text_6">
      <!-- 2026-03-15 -->
      <g transform="translate(844.471152 527.238438) scale(0.1 -0.1)">
       <use xlink:href="#DejaVuSans-32"/>
       <use xlink:href="#DejaVuSans-30" x="63.623047"/>
       <use xlink:href="#DejaVuSans-32" x="127.246094"/>
       <use xlink:href="#DejaVuSans-36" x="190.869141"/>
       <use xlink:href="#DejaVuSans-2d" x="254.492188"/>
       <use xlink:href="#DejaVuSans-30" x="290.576172"/>
       <use xlink:href="#DejaVuSans-33" x="354.199219"/>
       <use xlink:href="#DejaVuSans-2d" x="417.822266"/>
       <use xlink:href="#DejaVuSans-31" x="453.90625"/>
       <use xlink:href="#DejaVuSans-35" x="517.529297"/>
      </g>
     </g>
    </g>
    <g id="xtick_7">
     <g id="line2d_7">
      <g>
       <use xlink:href="#maf7f17862d" x="1033.96871" y="512.64" style="stroke: #000000; stroke-width: 0.8"/>
      </g>
     </g>
     <g id="text_7">
      <!-- 2026-04-01 -->
      <g transform="translate(1004.910898 527.238438) scale(0.1 -0.1)">
       <defs>
        <path id="DejaVuSans-34" d="M 2419 4116 
L 825 1625 
L 2419 1625 
L 2419 4116 
z
M 2253 4666 
L 3047 4666 
L 3047 1625 
L 3713 1625 
L 3713 1100 
L 3047 1100 
L 3047 0 
L 2419 0 
L 2419 1100 
L 313 1100 
L 313 1709 
L 2253 4666 
z
" transform="scale(0.015625)"/>
       </defs>
       <use xlink:href="#DejaVuSans-32"/>
       <use xlink:href="#DejaVuSans-30" x="63.623047"/>
       <use xlink:href="#DejaVuSans-32" x="127.246094"/>
       <use xlink:href="#DejaVuSans-36" x="190.869141"/>
       <use xlink:href="#DejaVuSans-2d" x="254.492188"/>
       <use xlink:href="#DejaVuSans-30" x="290.576172"/>
       <use xlink:href="#DejaVuSans-34" x="354.199219"/>
       <use xlink:href="#DejaVuSans-2d" x="417.822266"/>
       <use xlink:href="#DejaVuSans-30" x="453.90625"/>
       <use xlink:href="#DejaVuSans-31" x="517.529297"/>
      </g>
     </g>
    </g>
   </g>
   <g id="matplotlib.axis_2">
    <g id="ytick_1">
     <g id="line2d_8">
      <defs>
       <path id="mcf79a86eb8" d="M 0 0 
L -3.5 0 
" style="stroke: #000000; stroke-width: 0.8"/>
      </defs>
      <g>
       <use xlink:href="#mcf79a86eb8" x="144" y="489.933061" style="stroke: #000000; stroke-width: 0.8"/>
      </g>
     </g>
     <g id="text_8">
      <!-- 13000 -->
      <g transform="translate(105.1875 493.73228) scale(0.1 -0.1)">
       <use xlink:href="#DejaVuSans-31"/>
       <use xlink:href="#DejaVuSans-33" x="63.623047"/>
       <use xlink:href="#DejaVuSans-30" x="127.246094"/>
       <use xlink:href="#DejaVuSans-30" x="190.869141"/>
       <use xlink:href="#DejaVuSans-30" x="254.492188"/>
      </g>
     </g>
    </g>
    <g id="ytick_2">
     <g id="line2d_9">
      <g>
       <use xlink:href="#mcf79a86eb8" x="144" y="391.973878" style="stroke: #000000; stroke-width: 0.8"/>
      </g>
     </g>
     <g id="text_9">
      <!-- 13500 -->
      <g transform="translate(105.1875 395.773096) scale(0.1 -0.1)">
       <use xlink:href="#DejaVuSans-31"/>
       <use xlink:href="#DejaVuSans-33" x="63.623047"/>
       <use xlink:href="#DejaVuSans-35" x="127.246094"/>
       <use xlink:href="#DejaVuSans-30" x="190.869141"/>
       <use xlink:href="#DejaVuSans-30" x="254.492188"/>
      </g>
     </g>
    </g>
    <g id="ytick_3">
     <g id="line2d_10">
      <g>
       <use xlink:href="#mcf79a86eb8" x="144" y="294.014694" style="stroke: #000000; stroke-width: 0.8"/>
      </g>
     </g>
     <g id="text_10">
      <!-- 14000 -->
      <g transform="translate(105.1875 297.813913) scale(0.1 -0.1)">
       <use xlink:href="#DejaVuSans-31"/>
       <use xlink:href="#DejaVuSans-34" x="63.623047"/>
       <use xlink:href="#DejaVuSans-30" x="127.246094"/>
       <use xlink:href="#DejaVuSans-30" x="190.869141"/>
       <use xlink:href="#DejaVuSans-30" x="254.492188"/>
      </g>
     </g>
    </g>
    <g id="ytick_4">
     <g id="line2d_11">
      <g>
       <use xlink:href="#mcf79a86eb8" x="144" y="196.05551" style="stroke: #000000; stroke-width: 0.8"/>
      </g>
     </g>
     <g id="text_11">
      <!-- 14500 -->
      <g transform="translate(105.1875 199.854729) scale(0.1 -0.1)">
       <use xlink:href="#DejaVuSans-31"/>
       <use xlink:href="#DejaVuSans-34" x="63.623047"/>
       <use xlink:href="#DejaVuSans-35" x="127.246094"/>
       <use xlink:href="#DejaVuSans-30" x="190.869141"/>
       <use xlink:href="#DejaVuSans-30" x="254.492188"/>
      </g>
     </g>
    </g>
    <g id="ytick_5">
     <g id="line2d_12">
      <g>
       <use xlink:href="#mcf79a86eb8" x="144" y="98.096327" style="stroke: #000000; stroke-width: 0.8"/>
      </g>
     </g>
     <g id="text_12">
      <!-- 15000 -->
      <g transform="translate(105.1875 101.895545) scale(0.1 -0.1)">
       <use xlink:href="#DejaVuSans-31"/>
       <use xlink:href="#DejaVuSans-35" x="63.623047"/>
       <use xlink:href="#DejaVuSans-30" x="127.246094"/>
       <use xlink:href="#DejaVuSans-30" x="190.869141"/>
       <use xlink:href="#DejaVuSans-30" x="254.492188"/>
      </g>
     </g>
    </g>
   </g>
   <g id="line2d_13">
    <path d="M 184.581818 492.48 
L 194.01945 489.149388 
L 203.457082 483.663673 
L 212.894715 481.508571 
L 222.332347 480.52898 
L 231.769979 477.198367 
L 241.207611 474.259592 
L 250.645243 466.618776 
L 260.082875 462.896327 
L 269.520507 461.133061 
L 278.95814 460.741224 
L 288.395772 453.296327 
L 297.833404 448.398367 
L 307.271036 445.851429 
L 316.708668 439.582041 
L 326.1463 431.157551 
L 335.583932 430.373878 
L 345.021564 428.218776 
L 354.459197 422.92898 
L 363.896829 420.577959 
L 373.334461 410.782041 
L 382.772093 405.492245 
L 392.209725 400.790204 
L 401.647357 395.108571 
L 411.084989 394.324898 
L 420.522622 393.541224 
L 429.960254 386.488163 
L 439.397886 376.692245 
L 448.835518 370.422857 
L 458.27315 365.133061 
L 467.710782 364.349388 
L 477.148414 362.194286 
L 486.586047 358.275918 
L 496.023679 353.573878 
L 505.461311 352.006531 
L 514.898943 346.520816 
L 524.336575 343.190204 
L 533.774207 341.035102 
L 543.211839 333.590204 
L 552.649471 331.239184 
L 562.087104 324.577959 
L 571.524736 320.659592 
L 580.962368 318.308571 
L 590.4 314.390204 
L 599.837632 312.626939 
L 609.275264 305.377959 
L 618.712896 295.973878 
L 628.150529 294.210612 
L 637.588161 290.292245 
L 647.025793 286.373878 
L 656.463425 282.847347 
L 665.901057 279.124898 
L 675.338689 273.443265 
L 684.776321 267.565714 
L 694.213953 259.141224 
L 703.651586 255.222857 
L 713.089218 243.859592 
L 722.52685 239.353469 
L 731.964482 237.002449 
L 741.402114 233.084082 
L 750.839746 227.794286 
L 760.277378 223.875918 
L 769.715011 218.194286 
L 779.152643 214.863673 
L 788.590275 210.749388 
L 798.027907 207.222857 
L 807.465539 204.675918 
L 816.903171 192.52898 
L 826.340803 188.806531 
L 835.778436 180.382041 
L 845.216068 174.50449 
L 854.6537 170.782041 
L 864.091332 167.647347 
L 873.528964 165.688163 
L 882.966596 161.573878 
L 892.404228 155.892245 
L 901.84186 151.582041 
L 911.279493 143.941224 
L 920.717125 138.45551 
L 930.154757 132.773878 
L 939.592389 129.639184 
L 949.030021 120.626939 
L 958.467653 107.696327 
L 967.905285 103.190204 
L 977.342918 95.157551 
L 986.78055 89.475918 
L 996.218182 89.28 
" clip-path="url(#pc3844f99dc)" style="fill: none; stroke: #1f77b4; stroke-width: 1.5; stroke-linecap: square"/>
   </g>
   <g id="patch_3">
    <path d="M 144 512.64 
L 144 69.12 
" style="fill: none; stroke: #000000; stroke-width: 0.8; stroke-linejoin: miter; stroke-linecap: square"/>
   </g>
   <g id="patch_4">
    <path d="M 1036.8 512.64 
L 1036.8 69.12 
" style="fill: none; stroke: #000000; stroke-width: 0.8; stroke-linejoin: miter; stroke-linecap: square"/>
   </g>
   <g id="patch_5">
    <path d="M 144 512.64 
L 1036.8 512.64 
" style="fill: none; stroke: #000000; stroke-width: 0.8; stroke-linejoin: miter; stroke-linecap: square"/>
   </g>
   <g id="patch_6">
    <path d="M 144 69.12 
L 1036.8 69.12 
" style="fill: none; stroke: #000000; stroke-width: 0.8; stroke-linejoin: miter; stroke-linecap: square"/>
   </g>
   <g id="text_13">
    <!-- Number of AEDs in the OpenStreetMap database in Poland from 2026-01-01, day by day. As at: 2026-03-28 -->
    <g transform="translate(144 63.12) scale(0.14 -0.14)">
     <defs>
      <path id="DejaVuSans-4e" d="M 628 4666 
L 1478 4666 
L 3547 763 
L 3547 4666 
L 4159 4666 
L 4159 0 
L 3309 0 
L 1241 3903 
L 1241 0 
L 628 0 
L 628 4666 
z
" transform="scale(0.015625)"/>
      <path id="DejaVuSans-75" d="M 544 1381 
L 544 3500 
L 1119 3500 
L 1119 1403 
Q 1119 906 1312 657 
Q 1506 409 1894 409 
Q 2359 409 2629 706 
Q 2900 1003 2900 1516 
L 2900 3500 
L 3475 3500 
L 3475 0 
L 2900 0 
L 2900 538 
Q 2691 219 2414 64 
Q 2138 -91 1772 -91 
Q 1169 -91 856 284 
Q 544 659 544 1381 
z
M 1991 3584 
L 1991 3584 
z
" transform="scale(0.015625)"/>
      <path id="DejaVuSans-6d" d="M 3328 2828 
Q 3544 3216 3844 3400 
Q 4144 3584 4550 3584 
Q 5097 3584 5394 3201 
Q 5691 2819 5691 2113 
L 5691 0 
L 5113 0 
L 5113 2094 
Q 5113 2597 4934 2840 
Q 4756 3084 4391 3084 
Q 3944 3084 3684 2787 
Q 3425 2491 3425 1978 
L 3425 0 
L 2847 0 
L 2847 2094 
Q 2847 2600 2669 2842 
Q 2491 3084 2119 3084 
Q 1678 3084 1418 2786 
Q 1159 2488 1159 1978 
L 1159 0 
L 581 0 
L 581 3500 
L 1159 3500 
L 1159 2956 
Q 1356 3278 1631 3431 
Q 1906 3584 2284 3584 
Q 2666 3584 2933 3390 
Q 3200 3197 3328 2828 
z
" transform="scale(0.015625)"/>
      <path id="DejaVuSans-62" d="M 3116 1747 
Q 3116 2381 2855 2742 
Q 2594 3103 2138 3103 
Q 1681 3103 1420 2742 
Q 1159 2381 1159 1747 
Q 1159 1113 1420 752 
Q 1681 391 2138 391 
Q 2594 391 2855 752 
Q 3116 1113 3116 1747 
z
M 1159 2969 
Q 1341 3281 1617 3432 
Q 1894 3584 2278 3584 
Q 2916 3584 3314 3078 
Q 3713 2572 3713 1747 
Q 3713 922 3314 415 
Q 2916 -91 2278 -91 
Q 1894 -91 1617 61 
Q 1341 213 1159 525 
L 1159 0 
L 581 0 
L 581 4863 
L 1159 4863 
L 1159 2969 
z
" transform="scale(0.015625)"/>
      <path id="DejaVuSans-65" d="M 3597 1894 
L 3597 1613 
L 953 1613 
Q 991 1019 1311 708 
Q 1631 397 2203 397 
Q 2534 397 2845 478 
Q 3156 559 3463 722 
L 3463 178 
Q 3153 47 2828 -22 
Q 2503 -91 2169 -91 
Q 1331 -91 842 396 
Q 353 884 353 1716 
Q 353 2575 817 3079 
Q 1281 3584 2069 3584 
Q 2775 3584 3186 3129 
Q 3597 2675 3597 1894 
z
M 3022 2063 
Q 3016 2534 2758 2815 
Q 2500 3097 2075 3097 
Q 1594 3097 1305 2825 
Q 1016 2553 972 2059 
L 3022 2063 
z
" transform="scale(0.015625)"/>
      <path id="DejaVuSans-72" d="M 2631 2963 
Q 2534 3019 2420 3045 
Q 2306 3072 2169 3072 
Q 1681 3072 1420 2755 
Q 1159 2438 1159 1844 
L 1159 0 
L 581 0 
L 581 3500 
L 1159 3500 
L 1159 2956 
Q 1341 3275 1631 3429 
Q 1922 3584 2338 3584 
Q 2397 3584 2469 3576 
Q 2541 3569 2628 3553 
L 2631 2963 
z
" transform="scale(0.015625)"/>
      <path id="DejaVuSans-20" transform="scale(0.015625)"/>
      <path id="DejaVuSans-6f" d="M 1959 3097 
Q 1497 3097 1228 2736 
Q 959 2375 959 1747 
Q 959 1119 1226 758 
Q 1494 397 1959 397 
Q 2419 397 2687 759 
Q 2956 1122 2956 1747 
Q 2956 2369 2687 2733 
Q 2419 3097 1959 3097 
z
M 1959 3584 
Q 2709 3584 3137 3096 
Q 3566 2609 3566 1747 
Q 3566 888 3137 398 
Q 2709 -91 1959 -91 
Q 1206 -91 779 398 
Q 353 888 353 1747 
Q 353 2609 779 3096 
Q 1206 3584 1959 3584 
z
" transform="scale(0.015625)"/>
      <path id="DejaVuSans-66" d="M 2375 4863 
L 2375 4384 
L 1825 4384 
Q 1516 4384 1395 4259 
Q 1275 4134 1275 3809 
L 1275 3500 
L 2222 3500 
L 2222 3053 
L 1275 3053 
L 1275 0 
L 697 0 
L 697 3053 
L 147 3053 
L 147 3500 
L 697 3500 
L 697 3744 
Q 697 4328 969 4595 
Q 1241 4863 1831 4863 
L 2375 4863 
z
" transform="scale(0.015625)"/>
      <path id="DejaVuSans-41" d="M 2188 4044 
L 1331 1722 
L 3047 1722 
L 2188 4044 
z
M 1831 4666 
L 2547 4666 
L 4325 0 
L 3669 0 
L 3244 1197 
L 1141 1197 
L 716 0 
L 50 0 
L 1831 4666 
z
" transform="scale(0.015625)"/>
      <path id="DejaVuSans-45" d="M 628 4666 
L 3578 4666 
L 3578 4134 
L 1259 4134 
L 1259 2753 
L 3481 2753 
L 3481 2222 
L 1259 2222 
L 1259 531 
L 3634 531 
L 3634 0 
L 628 0 
L 628 4666 
z
" transform="scale(0.015625)"/>
      <path id="DejaVuSans-44" d="M 1259 4147 
L 1259 519 
L 2022 519 
Q 2988 519 3436 956 
Q 3884 1394 3884 2338 
Q 3884 3275 3436 3711 
Q 2988 4147 2022 4147 
L 1259 4147 
z
M 628 4666 
L 1925 4666 
Q 3281 4666 3915 4102 
Q 4550 3538 4550 2338 
Q 4550 1131 3912 565 
Q 3275 0 1925 0 
L 628 0 
L 628 4666 
z
" transform="scale(0.015625)"/>
      <path id="DejaVuSans-73" d="M 2834 3397 
L 2834 2853 
Q 2591 2978 2328 3040 
Q 2066 3103 1784 3103 
Q 1356 3103 1142 2972 
Q 928 2841 928 2578 
Q 928 2378 1081 2264 
Q 1234 2150 1697 2047 
L 1894 2003 
Q 2506 1872 2764 1633 
Q 3022 1394 3022 966 
Q 3022 478 2636 193 
Q 2250 -91 1575 -91 
Q 1294 -91 989 -36 
Q 684 19 347 128 
L 347 722 
Q 666 556 975 473 
Q 1284 391 1588 391 
Q 1994 391 2212 530 
Q 2431 669 2431 922 
Q 2431 1156 2273 1281 
Q 2116 1406 1581 1522 
L 1381 1569 
Q 847 1681 609 1914 
Q 372 2147 372 2553 
Q 372 3047 722 3315 
Q 1072 3584 1716 3584 
Q 2034 3584 2315 3537 
Q 2597 3491 2834 3397 
z
" transform="scale(0.015625)"/>
      <path id="DejaVuSans-69" d="M 603 3500 
L 1178 3500 
L 1178 0 
L 603 0 
L 603 3500 
z
M 603 4863 
L 1178 4863 
L 1178 4134 
L 603 4134 
L 603 4863 
z
" transform="scale(0.015625)"/>
      <path id="DejaVuSans-6e" d="M 3513 2113 
L 3513 0 
L 2938 0 
L 2938 2094 
Q 2938 2591 2744 2837 
Q 2550 3084 2163 3084 
Q 1697 3084 1428 2787 
Q 1159 2491 1159 1978 
L 1159 0 
L 581 0 
L 581 3500 
L 1159 3500 
L 1159 2956 
Q 1366 3272 1645 3428 
Q 1925 3584 2291 3584 
Q 2894 3584 3203 3211 
Q 3513 2838 3513 2113 
z
" transform="scale(0.015625)"/>
      <path id="DejaVuSans-74" d="M 1172 4494 
L 1172 3500 
L 2356 3500 
L 2356 3053 
L 1172 3053 
L 1172 1153 
Q 1172 725 1289 603 
Q 1406 481 1766 481 
L 2356 481 
L 2356 0 
L 1766 0 
Q 1100 0 847 248 
Q 594 497 594 1153 
L 594 3053 
L 172 3053 
L 172 3500 
L 594 3500 
L 594 4494 
L 1172 4494 
z
" transform="scale(0.015625)"/>
      <path id="DejaVuSans-68" d="M 3513 2113 
L 3513 0 
L 2938 0 
L 2938 2094 
Q 2938 2591 2744 2837 
Q 2550 3084 2163 3084 
Q 1697 3084 1428 2787 
Q 1159 2491 1159 1978 
L 1159 0 
L 581 0 
L 581 4863 
L 1159 4863 
L 1159 2956 
Q 1366 3272 1645 3428 
Q 1925 3584 2291 3584 
Q 2894 3584 3203 3211 
Q 3513 2838 3513 2113 
z
" transform="scale(0.015625)"/>
      <path id="DejaVuSans-4f" d="M 2522 4238 
Q 1834 4238 1429 3725 
Q 1025 3213 1025 2328 
Q 1025 1447 1429 934 
Q 1834 422 2522 422 
Q 3209 422 3611 934 
Q 4013 1447 4013 2328 
Q 4013 3213 3611 3725 
Q 3209 4238 2522 4238 
z
M 2522 4750 
Q 3503 4750 4090 4092 
Q 4678 3434 4678 2328 
Q 4678 1225 4090 567 
Q 3503 -91 2522 -91 
Q 1538 -91 948 565 
Q 359 1222 359 2328 
Q 359 3434 948 4092 
Q 1538 4750 2522 4750 
z
" transform="scale(0.015625)"/>
      <path id="DejaVuSans-70" d="M 1159 525 
L 1159 -1331 
L 581 -1331 
L 581 3500 
L 1159 3500 
L 1159 2969 
Q 1341 3281 1617 3432 
Q 1894 3584 2278 3584 
Q 2916 3584 3314 3078 
Q 3713 2572 3713 1747 
Q 3713 922 3314 415 
Q 2916 -91 2278 -91 
Q 1894 -91 1617 61 
Q 1341 213 1159 525 
z
M 3116 1747 
Q 3116 2381 2855 2742 
Q 2594 3103 2138 3103 
Q 1681 3103 1420 2742 
Q 1159 2381 1159 1747 
Q 1159 1113 1420 752 
Q 1681 391 2138 391 
Q 2594 391 2855 752 
Q 3116 1113 3116 1747 
z
" transform="scale(0.015625)"/>
      <path id="DejaVuSans-53" d="M 3425 4513 
L 3425 3897 
Q 3066 4069 2747 4153 
Q 2428 4238 2131 4238 
Q 1616 4238 1336 4038 
Q 1056 3838 1056 3469 
Q 1056 3159 1242 3001 
Q 1428 2844 1947 2747 
L 2328 2669 
Q 3034 2534 3370 2195 
Q 3706 1856 3706 1288 
Q 3706 609 3251 259 
Q 2797 -91 1919 -91 
Q 1588 -91 1214 -16 
Q 841 59 441 206 
L 441 856 
Q 825 641 1194 531 
Q 1563 422 1919 422 
Q 2459 422 2753 634 
Q 3047 847 3047 1241 
Q 3047 1584 2836 1778 
Q 2625 1972 2144 2069 
L 1759 2144 
Q 1053 2284 737 2584 
Q 422 2884 422 3419 
Q 422 4038 858 4394 
Q 1294 4750 2059 4750 
Q 2388 4750 2728 4690 
Q 3069 4631 3425 4513 
z
" transform="scale(0.015625)"/>
      <path id="DejaVuSans-4d" d="M 628 4666 
L 1569 4666 
L 2759 1491 
L 3956 4666 
L 4897 4666 
L 4897 0 
L 4281 0 
L 4281 4097 
L 3078 897 
L 2444 897 
L 1241 4097 
L 1241 0 
L 628 0 
L 628 4666 
z
" transform="scale(0.015625)"/>
      <path id="DejaVuSans-61" d="M 2194 1759 
Q 1497 1759 1228 1600 
Q 959 1441 959 1056 
Q 959 750 1161 570 
Q 1363 391 1709 391 
Q 2188 391 2477 730 
Q 2766 1069 2766 1631 
L 2766 1759 
L 2194 1759 
z
M 3341 1997 
L 3341 0 
L 2766 0 
L 2766 531 
Q 2569 213 2275 61 
Q 1981 -91 1556 -91 
Q 1019 -91 701 211 
Q 384 513 384 1019 
Q 384 1609 779 1909 
Q 1175 2209 1959 2209 
L 2766 2209 
L 2766 2266 
Q 2766 2663 2505 2880 
Q 2244 3097 1772 3097 
Q 1472 3097 1187 3025 
Q 903 2953 641 2809 
L 641 3341 
Q 956 3463 1253 3523 
Q 1550 3584 1831 3584 
Q 2591 3584 2966 3190 
Q 3341 2797 3341 1997 
z
" transform="scale(0.015625)"/>
      <path id="DejaVuSans-64" d="M 2906 2969 
L 2906 4863 
L 3481 4863 
L 3481 0 
L 2906 0 
L 2906 525 
Q 2725 213 2448 61 
Q 2172 -91 1784 -91 
Q 1150 -91 751 415 
Q 353 922 353 1747 
Q 353 2572 751 3078 
Q 1150 3584 1784 3584 
Q 2172 3584 2448 3432 
Q 2725 3281 2906 2969 
z
M 947 1747 
Q 947 1113 1208 752 
Q 1469 391 1925 391 
Q 2381 391 2643 752 
Q 2906 1113 2906 1747 
Q 2906 2381 2643 2742 
Q 2381 3103 1925 3103 
Q 1469 3103 1208 2742 
Q 947 2381 947 1747 
z
" transform="scale(0.015625)"/>
      <path id="DejaVuSans-50" d="M 1259 4147 
L 1259 2394 
L 2053 2394 
Q 2494 2394 2734 2622 
Q 2975 2850 2975 3272 
Q 2975 3691 2734 3919 
Q 2494 4147 2053 4147 
L 1259 4147 
z
M 628 4666 
L 2053 4666 
Q 2838 4666 3239 4311 
Q 3641 3956 3641 3272 
Q 3641 2581 3239 2228 
Q 2838 1875 2053 1875 
L 1259 1875 
L 1259 0 
L 628 0 
L 628 4666 
z
" transform="scale(0.015625)"/>
      <path id="DejaVuSans-6c" d="M 603 4863 
L 1178 4863 
L 1178 0 
L 603 0 
L 603 4863 
z
" transform="scale(0.015625)"/>
      <path id="DejaVuSans-2c" d="M 750 794 
L 1409 794 
L 1409 256 
L 897 -744 
L 494 -744 
L 750 256 
L 750 794 
z
" transform="scale(0.015625)"/>
      <path id="DejaVuSans-79" d="M 2059 -325 
Q 1816 -950 1584 -1140 
Q 1353 -1331 966 -1331 
L 506 -1331 
L 506 -850 
L 844 -850 
Q 1081 -850 1212 -737 
Q 1344 -625 1503 -206 
L 1606 56 
L 191 3500 
L 800 3500 
L 1894 763 
L 2988 3500 
L 3597 3500 
L 2059 -325 
z
" transform="scale(0.015625)"/>
      <path id="DejaVuSans-2e" d="M 684 794 
L 1344 794 
L 1344 0 
L 684 0 
L 684 794 
z
" transform="scale(0.015625)"/>
      <path id="DejaVuSans-3a" d="M 750 794 
L 1409 794 
L 1409 0 
L 750 0 
L 750 794 
z
M 750 3309 
L 1409 3309 
L 1409 2516 
L 750 2516 
L 750 3309 
z
" transform="scale(0.015625)"/>
      <path id="DejaVuSans-38" d="M 2034 2216 
Q 1584 2216 1326 1975 
Q 1069 1734 1069 1313 
Q 1069 891 1326 650 
Q 1584 409 2034 409 
Q 2484 409 2743 651 
Q 3003 894 3003 1313 
Q 3003 1734 2745 1975 
Q 2488 2216 2034 2216 
z
M 1403 2484 
Q 997 2584 770 2862 
Q 544 3141 544 3541 
Q 544 4100 942 4425 
Q 1341 4750 2034 4750 
Q 2731 4750 3128 4425 
Q 3525 4100 3525 3541 
Q 3525 3141 3298 2862 
Q 3072 2584 2669 2484 
Q 3125 2378 3379 2068 
Q 3634 1759 3634 1313 
Q 3634 634 3220 271 
Q 2806 -91 2034 -91 
Q 1263 -91 848 271 
Q 434 634 434 1313 
Q 434 1759 690 2068 
Q 947 2378 1403 2484 
z
M 1172 3481 
Q 1172 3119 1398 2916 
Q 1625 2713 2034 2713 
Q 2441 2713 2670 2916 
Q 2900 3119 2900 3481 
Q 2900 3844 2670 4047 
Q 2441 4250 2034 4250 
Q 1625 4250 1398 4047 
Q 1172 3844 1172 3481 
z
" transform="scale(0.015625)"/>
     </defs>
     <use xlink:href="#DejaVuSans-4e"/>
     <use xlink:href="#DejaVuSans-75" x="74.804688"/>
     <use xlink:href="#DejaVuSans-6d" x="138.183594"/>
     <use xlink:href="#DejaVuSans-62" x="235.595703"/>
     <use xlink:href="#DejaVuSans-65" x="299.072266"/>
     <use xlink:href="#DejaVuSans-72" x="360.595703"/>
     <use xlink:href="#DejaVuSans-20" x="401.708984"/>
     <use xlink:href="#DejaVuSans-6f" x="433.496094"/>
     <use xlink:href="#DejaVuSans-66" x="494.677734"/>
     <use xlink:href="#DejaVuSans-20" x="529.882812"/>
     <use xlink:href="#DejaVuSans-41" x="561.669922"/>
     <use xlink:href="#DejaVuSans-45" x="630.078125"/>
     <use xlink:href="#DejaVuSans-44" x="693.261719"/>
     <use xlink:href="#DejaVuSans-73" x="770.263672"/>
     <use xlink:href="#DejaVuSans-20" x="822.363281"/>
     <use xlink:href="#DejaVuSans-69" x="854.150391"/>
     <use xlink:href="#DejaVuSans-6e" x="881.933594"/>
     <use xlink:href="#DejaVuSans-20" x="945.3125"/>
     <use xlink:href="#DejaVuSans-74" x="977.099609"/>
     <use xlink:href="#DejaVuSans-68" x="1016.308594"/>
     <use xlink:href="#DejaVuSans-65" x="1079.6875"/>
     <use xlink:href="#DejaVuSans-20" x="1141.210938"/>
     <use xlink:href="#DejaVuSans-4f" x="1172.998047"/>
     <use xlink:href="#DejaVuSans-70" x="1251.708984"/>
     <use xlink:href="#DejaVuSans-65" x="1315.185547"/>
     <use xlink:href="#DejaVuSans-6e" x="1376.708984"/>
     <use xlink:href="#DejaVuSans-53" x="1440.087891"/>
     <use xlink:href="#DejaVuSans-74" x="1503.564453"/>
     <use xlink:href="#DejaVuSans-72" x="1542.773438"/>
     <use xlink:href="#DejaVuSans-65" x="1581.636719"/>
     <use xlink:href="#DejaVuSans-65" x="1643.160156"/>
     <use xlink:href="#DejaVuSans-74" x="1704.683594"/>
     <use xlink:href="#DejaVuSans-4d" x="1743.892578"/>
     <use xlink:href="#DejaVuSans-61" x="1830.171875"/>
     <use xlink:href="#DejaVuSans-70" x="1891.451172"/>
     <use xlink:href="#DejaVuSans-20" x="1954.927734"/>
     <use xlink:href="#DejaVuSans-64" x="1986.714844"/>
     <use xlink:href="#DejaVuSans-61" x="2050.191406"/>
     <use xlink:href="#DejaVuSans-74" x="2111.470703"/>
     <use xlink:href="#DejaVuSans-61" x="2150.679688"/>
     <use xlink:href="#DejaVuSans-62" x="2211.958984"/>
     <use xlink:href="#DejaVuSans-61" x="2275.435547"/>
     <use xlink:href="#DejaVuSans-73" x="2336.714844"/>
     <use xlink:href="#DejaVuSans-65" x="2388.814453"/>
     <use xlink:href="#DejaVuSans-20" x="2450.337891"/>
     <use xlink:href="#DejaVuSans-69" x="2482.125"/>
     <use xlink:href="#DejaVuSans-6e" x="2509.908203"/>
     <use xlink:href="#DejaVuSans-20" x="2573.287109"/>
     <use xlink:href="#DejaVuSans-50" x="2605.074219"/>
     <use xlink:href="#DejaVuSans-6f" x="2661.751953"/>
     <use xlink:href="#DejaVuSans-6c" x="2722.933594"/>
     <use xlink:href="#DejaVuSans-61" x="2750.716797"/>
     <use xlink:href="#DejaVuSans-6e" x="2811.996094"/>
     <use xlink:href="#DejaVuSans-64" x="2875.375"/>
     <use xlink:href="#DejaVuSans-20" x="2938.851562"/>
     <use xlink:href="#DejaVuSans-66" x="2970.638672"/>
     <use xlink:href="#DejaVuSans-72" x="3005.84375"/>
     <use xlink:href="#DejaVuSans-6f" x="3044.707031"/>
     <use xlink:href="#DejaVuSans-6d" x="3105.888672"/>
     <use xlink:href="#DejaVuSans-20" x="3203.300781"/>
     <use xlink:href="#DejaVuSans-32" x="3235.087891"/>
     <use xlink:href="#DejaVuSans-30" x="3298.710938"/>
     <use xlink:href="#DejaVuSans-32" x="3362.333984"/>
     <use xlink:href="#DejaVuSans-36" x="3425.957031"/>
     <use xlink:href="#DejaVuSans-2d" x="3489.580078"/>
     <use xlink:href="#DejaVuSans-30" x="3525.664062"/>
     <use xlink:href="#DejaVuSans-31" x="3589.287109"/>
     <use xlink:href="#DejaVuSans-2d" x="3652.910156"/>
     <use xlink:href="#DejaVuSans-30" x="3688.994141"/>
     <use xlink:href="#DejaVuSans-31" x="3752.617188"/>
     <use xlink:href="#DejaVuSans-2c" x="3816.240234"/>
     <use xlink:href="#DejaVuSans-20" x="3848.027344"/>
     <use xlink:href="#DejaVuSans-64" x="3879.814453"/>
     <use xlink:href="#DejaVuSans-61" x="3943.291016"/>
     <use xlink:href="#DejaVuSans-79" x="4004.570312"/>
     <use xlink:href="#DejaVuSans-20" x="4063.75"/>
     <use xlink:href="#DejaVuSans-62" x="4095.537109"/>
     <use xlink:href="#DejaVuSans-79" x="4159.013672"/>
     <use xlink:href="#DejaVuSans-20" x="4218.193359"/>
     <use xlink:href="#DejaVuSans-64" x="4249.980469"/>
     <use xlink:href="#DejaVuSans-61" x="4313.457031"/>
     <use xlink:href="#DejaVuSans-79" x="4374.736328"/>
     <use xlink:href="#DejaVuSans-2e" x="4419.666016"/>
     <use xlink:href="#DejaVuSans-20" x="4451.453125"/>
     <use xlink:href="#DejaVuSans-41" x="4483.240234"/>
     <use xlink:href="#DejaVuSans-73" x="4551.648438"/>
     <use xlink:href="#DejaVuSans-20" x="4603.748047"/>
     <use xlink:href="#DejaVuSans-61" x="4635.535156"/>
     <use xlink:href="#DejaVuSans-74" x="4696.814453"/>
     <use xlink:href="#DejaVuSans-3a" x="4736.023438"/>
     <use xlink:href="#DejaVuSans-20" x="4769.714844"/>
     <use xlink:href="#DejaVuSans-32" x="4801.501953"/>
     <use xlink:href="#DejaVuSans-30" x="4865.125"/>
     <use xlink:href="#DejaVuSans-32" x="4928.748047"/>
     <use xlink:href="#DejaVuSans-36" x="4992.371094"/>
     <use xlink:href="#DejaVuSans-2d" x="5055.994141"/>
     <use xlink:href="#DejaVuSans-30" x="5092.078125"/>
     <use xlink:href="#DejaVuSans-33" x="5155.701172"/>
     <use xlink:href="#DejaVuSans-2d" x="5219.324219"/>
     <use xlink:href="#DejaVuSans-32" x="5255.408203"/>
     <use xlink:href="#DejaVuSans-38" x="5319.03125"/>
    </g>
   </g>
  </g>
 </g>
 <defs>
  <clipPath id="pc3844f99dc">
   <rect x="144" y="69.12" width="892.8" height="443.52"/>
  </clipPath>
 </defs>
</svg>
