<?xml version="1.0" encoding="utf-8" standalone="no"?>
<!DOCTYPE svg PUBLIC "-//W3C//DTD SVG 1.1//EN"
  "http://www.w3.org/Graphics/SVG/1.1/DTD/svg11.dtd">
<svg xmlns:xlink="http://www.w3.org/1999/xlink" width="1152pt" height="576pt" viewBox="0 0 1152 576" xmlns="http://www.w3.org/2000/svg" version="1.1">
 <metadata>
  <rdf:RDF xmlns:dc="http://purl.org/dc/elements/1.1/" xmlns:cc="http://creativecommons.org/ns#" xmlns:rdf="http://www.w3.org/1999/02/22-rdf-syntax-ns#">
   <cc:Work>
    <dc:type rdf:resource="http://purl.org/dc/dcmitype/StillImage"/>
    <dc:date>2023-04-04T09:33:26.933144</dc:date>
    <dc:format>image/svg+xml</dc:format>
    <dc:creator>
     <cc:Agent>
      <dc:title>Matplotlib v3.5.1, https://matplotlib.org/</dc:title>
     </cc:Agent>
    </dc:creator>
   </cc:Work>
  </rdf:RDF>
 </metadata>
 <defs>
  <style type="text/css">*{stroke-linejoin: round; stroke-linecap: butt}</style>
 </defs>
 <g id="figure_1">
  <g id="patch_1">
   <path d="M 0 576 
L 1152 576 
L 1152 0 
L 0 0 
z
" style="fill: #ffffff"/>
  </g>
  <g id="axes_1">
   <g id="patch_2">
    <path d="M 144 512.64 
L 1036.8 512.64 
L 1036.8 69.12 
L 144 69.12 
z
" style="fill: #ffffff"/>
   </g>
   <g id="PathCollection_1">
    <path d="M 184.581818 505.422179 
C 188.014124 505.422179 191.306314 504.058509 193.733321 501.631503 
C 196.160328 499.204496 197.523997 495.912306 197.523997 492.48 
C 197.523997 489.047694 196.160328 485.755504 193.733321 483.328497 
C 191.306314 480.901491 188.014124 479.537821 184.581818 479.537821 
C 181.149512 479.537821 177.857322 480.901491 175.430316 483.328497 
C 173.003309 485.755504 171.639639 489.047694 171.639639 492.48 
C 171.639639 495.912306 173.003309 499.204496 175.430316 501.631503 
C 177.857322 504.058509 181.149512 505.422179 184.581818 505.422179 
z
" clip-path="url(#p2ca6e08801)" style="fill: #1f77b4; fill-opacity: 0.3; stroke: #1f77b4; stroke-opacity: 0.3"/>
    <path d="M 193.309091 493.856551 
C 194.495115 493.856551 195.632723 493.385338 196.471369 492.546692 
C 197.310014 491.708046 197.781227 490.570439 197.781227 489.384415 
C 197.781227 488.19839 197.310014 487.060783 196.471369 486.222137 
C 195.632723 485.383491 194.495115 484.912279 193.309091 484.912279 
C 192.123067 484.912279 190.985459 485.383491 190.146813 486.222137 
C 189.308167 487.060783 188.836955 488.19839 188.836955 489.384415 
C 188.836955 490.570439 189.308167 491.708046 190.146813 492.546692 
C 190.985459 493.385338 192.123067 493.856551 193.309091 493.856551 
z
" clip-path="url(#p2ca6e08801)" style="fill: #1f77b4; fill-opacity: 0.3; stroke: #1f77b4; stroke-opacity: 0.3"/>
    <path d="M 202.036364 487.843625 
C 204.090618 487.843625 206.061012 487.027461 207.513589 485.574884 
C 208.966166 484.122307 209.78233 482.151913 209.78233 480.097658 
C 209.78233 478.043404 208.966166 476.07301 207.513589 474.620433 
C 206.061012 473.167856 204.090618 472.351692 202.036364 472.351692 
C 199.982109 472.351692 198.011715 473.167856 196.559138 474.620433 
C 195.106561 476.07301 194.290397 478.043404 194.290397 480.097658 
C 194.290397 482.151913 195.106561 484.122307 196.559138 485.574884 
C 198.011715 487.027461 199.982109 487.843625 202.036364 487.843625 
z
" clip-path="url(#p2ca6e08801)" style="fill: #1f77b4; fill-opacity: 0.3; stroke: #1f77b4; stroke-opacity: 0.3"/>
    <path d="M 210.763636 477.62971 
C 212.982485 477.62971 215.110753 476.748152 216.679716 475.179189 
C 218.248679 473.610226 219.130237 471.481958 219.130237 469.263109 
C 219.130237 467.044261 218.248679 464.915992 216.679716 463.34703 
C 215.110753 461.778067 212.982485 460.896509 210.763636 460.896509 
C 208.544788 460.896509 206.416519 461.778067 204.847557 463.34703 
C 203.278594 464.915992 202.397036 467.044261 202.397036 469.263109 
C 202.397036 471.481958 203.278594 473.610226 204.847557 475.179189 
C 206.416519 476.748152 208.544788 477.62971 210.763636 477.62971 
z
" clip-path="url(#p2ca6e08801)" style="fill: #1f77b4; fill-opacity: 0.3; stroke: #1f77b4; stroke-opacity: 0.3"/>
    <path d="M 219.490909 467.946177 
C 221.501911 467.946177 223.430819 467.147197 224.852812 465.725204 
C 226.274805 464.303211 227.073785 462.374303 227.073785 460.363301 
C 227.073785 458.352299 226.274805 456.423392 224.852812 455.001399 
C 223.430819 453.579405 221.501911 452.780426 219.490909 452.780426 
C 217.479907 452.780426 215.551 453.579405 214.129006 455.001399 
C 212.707013 456.423392 211.908034 458.352299 211.908034 460.363301 
C 211.908034 462.374303 212.707013 464.303211 214.129006 465.725204 
C 215.551 467.147197 217.479907 467.946177 219.490909 467.946177 
z
" clip-path="url(#p2ca6e08801)" style="fill: #1f77b4; fill-opacity: 0.3; stroke: #1f77b4; stroke-opacity: 0.3"/>
    <path d="M 228.218182 460.496686 
C 229.895473 460.496686 231.504293 459.830291 232.690318 458.644266 
C 233.876342 457.458242 234.542737 455.849422 234.542737 454.172131 
C 234.542737 452.494839 233.876342 450.886019 232.690318 449.699995 
C 231.504293 448.51397 229.895473 447.847575 228.218182 447.847575 
C 226.54089 447.847575 224.93207 448.51397 223.746046 449.699995 
C 222.560022 450.886019 221.893626 452.494839 221.893626 454.172131 
C 221.893626 455.849422 222.560022 457.458242 223.746046 458.644266 
C 224.93207 459.830291 226.54089 460.496686 228.218182 460.496686 
z
" clip-path="url(#p2ca6e08801)" style="fill: #1f77b4; fill-opacity: 0.3; stroke: #1f77b4; stroke-opacity: 0.3"/>
    <path d="M 236.945455 454.670936 
C 238.514417 454.670936 240.019331 454.04758 241.128755 452.938156 
C 242.238179 451.828732 242.861534 450.323819 242.861534 448.754856 
C 242.861534 447.185893 242.238179 445.68098 241.128755 444.571556 
C 240.019331 443.462132 238.514417 442.838776 236.945455 442.838776 
C 235.376492 442.838776 233.871579 443.462132 232.762154 444.571556 
C 231.65273 445.68098 231.029375 447.185893 231.029375 448.754856 
C 231.029375 450.323819 231.65273 451.828732 232.762154 452.938156 
C 233.871579 454.04758 235.376492 454.670936 236.945455 454.670936 
z
" clip-path="url(#p2ca6e08801)" style="fill: #1f77b4; fill-opacity: 0.3; stroke: #1f77b4; stroke-opacity: 0.3"/>
    <path d="M 245.672727 448.888241 
C 247.350019 448.888241 248.958839 448.221845 250.144863 447.035821 
C 251.330888 445.849797 251.997283 444.240977 251.997283 442.563685 
C 251.997283 440.886394 251.330888 439.277574 250.144863 438.091549 
C 248.958839 436.905525 247.350019 436.23913 245.672727 436.23913 
C 243.995436 436.23913 242.386616 436.905525 241.200591 438.091549 
C 240.014567 439.277574 239.348172 440.886394 239.348172 442.563685 
C 239.348172 444.240977 240.014567 445.849797 241.200591 447.035821 
C 242.386616 448.221845 243.995436 448.888241 245.672727 448.888241 
z
" clip-path="url(#p2ca6e08801)" style="fill: #1f77b4; fill-opacity: 0.3; stroke: #1f77b4; stroke-opacity: 0.3"/>
    <path d="M 254.4 444.11498 
C 255.427127 444.11498 256.412324 443.706898 257.138613 442.980609 
C 257.864901 442.25432 258.272983 441.269123 258.272983 440.241996 
C 258.272983 439.214869 257.864901 438.229672 257.138613 437.503383 
C 256.412324 436.777095 255.427127 436.369013 254.4 436.369013 
C 253.372873 436.369013 252.387676 436.777095 251.661387 437.503383 
C 250.935099 438.229672 250.527017 439.214869 250.527017 440.241996 
C 250.527017 441.269123 250.935099 442.25432 251.661387 442.980609 
C 252.387676 443.706898 253.372873 444.11498 254.4 444.11498 
z
" clip-path="url(#p2ca6e08801)" style="fill: #1f77b4; fill-opacity: 0.3; stroke: #1f77b4; stroke-opacity: 0.3"/>
    <path d="M 263.127273 441.502879 
C 264.385241 441.502879 265.591856 441.003083 266.481375 440.113565 
C 267.370893 439.224046 267.870689 438.017431 267.870689 436.759463 
C 267.870689 435.501494 267.370893 434.294879 266.481375 433.405361 
C 265.591856 432.515842 264.385241 432.016046 263.127273 432.016046 
C 261.869304 432.016046 260.662689 432.515842 259.773171 433.405361 
C 258.883653 434.294879 258.383856 435.501494 258.383856 436.759463 
C 258.383856 438.017431 258.883653 439.224046 259.773171 440.113565 
C 260.662689 441.003083 261.869304 441.502879 263.127273 441.502879 
z
" clip-path="url(#p2ca6e08801)" style="fill: #1f77b4; fill-opacity: 0.3; stroke: #1f77b4; stroke-opacity: 0.3"/>
    <path d="M 271.854545 436.892847 
C 273.531837 436.892847 275.140657 436.226452 276.326681 435.040428 
C 277.512706 433.854403 278.179101 432.245583 278.179101 430.568292 
C 278.179101 428.891 277.512706 427.28218 276.326681 426.096156 
C 275.140657 424.910131 273.531837 424.243736 271.854545 424.243736 
C 270.177254 424.243736 268.568434 424.910131 267.382409 426.096156 
C 266.196385 427.28218 265.52999 428.891 265.52999 430.568292 
C 265.52999 432.245583 266.196385 433.854403 267.382409 435.040428 
C 268.568434 436.226452 270.177254 436.892847 271.854545 436.892847 
z
" clip-path="url(#p2ca6e08801)" style="fill: #1f77b4; fill-opacity: 0.3; stroke: #1f77b4; stroke-opacity: 0.3"/>
    <path d="M 280.581818 422.675803 
C 283.517079 422.675803 286.332514 421.509612 288.408056 419.434069 
C 290.483599 417.358526 291.64979 414.543092 291.64979 411.607831 
C 291.64979 408.672571 290.483599 405.857136 288.408056 403.781593 
C 286.332514 401.706051 283.517079 400.539859 280.581818 400.539859 
C 277.646558 400.539859 274.831123 401.706051 272.75558 403.781593 
C 270.680038 405.857136 269.513846 408.672571 269.513846 411.607831 
C 269.513846 414.543092 270.680038 417.358526 272.75558 419.434069 
C 274.831123 421.509612 277.646558 422.675803 280.581818 422.675803 
z
" clip-path="url(#p2ca6e08801)" style="fill: #1f77b4; fill-opacity: 0.3; stroke: #1f77b4; stroke-opacity: 0.3"/>
    <path d="M 289.309091 412.441679 
C 290.761668 412.441679 292.154947 411.864564 293.182074 410.837436 
C 294.209201 409.810309 294.786316 408.41703 294.786316 406.964453 
C 294.786316 405.511876 294.209201 404.118597 293.182074 403.09147 
C 292.154947 402.064342 290.761668 401.487227 289.309091 401.487227 
C 287.856514 401.487227 286.463235 402.064342 285.436108 403.09147 
C 284.40898 404.118597 283.831865 405.511876 283.831865 406.964453 
C 283.831865 408.41703 284.40898 409.810309 285.436108 410.837436 
C 286.463235 411.864564 287.856514 412.441679 289.309091 412.441679 
z
" clip-path="url(#p2ca6e08801)" style="fill: #1f77b4; fill-opacity: 0.3; stroke: #1f77b4; stroke-opacity: 0.3"/>
    <path d="M 298.036364 408.158644 
C 298.455687 408.158644 298.857892 407.992045 299.154398 407.695539 
C 299.450904 407.399033 299.617502 406.996828 299.617502 406.577505 
C 299.617502 406.158182 299.450904 405.755977 299.154398 405.459471 
C 298.857892 405.162965 298.455687 404.996366 298.036364 404.996366 
C 297.617041 404.996366 297.214836 405.162965 296.91833 405.459471 
C 296.621824 405.755977 296.455225 406.158182 296.455225 406.577505 
C 296.455225 406.996828 296.621824 407.399033 296.91833 407.695539 
C 297.214836 407.992045 297.617041 408.158644 298.036364 408.158644 
z
" clip-path="url(#p2ca6e08801)" style="fill: #1f77b4; fill-opacity: 0.3; stroke: #1f77b4; stroke-opacity: 0.3"/>
    <path d="M 306.763636 407.411352 
C 308.216214 407.411352 309.609493 406.834237 310.63662 405.80711 
C 311.663747 404.779983 312.240862 403.386704 312.240862 401.934127 
C 312.240862 400.481549 311.663747 399.088271 310.63662 398.061143 
C 309.609493 397.034016 308.216214 396.456901 306.763636 396.456901 
C 305.311059 396.456901 303.91778 397.034016 302.890653 398.061143 
C 301.863526 399.088271 301.286411 400.481549 301.286411 401.934127 
C 301.286411 403.386704 301.863526 404.779983 302.890653 405.80711 
C 303.91778 406.834237 305.311059 407.411352 306.763636 407.411352 
z
" clip-path="url(#p2ca6e08801)" style="fill: #1f77b4; fill-opacity: 0.3; stroke: #1f77b4; stroke-opacity: 0.3"/>
    <path d="M 315.490909 402.253628 
C 317.11494 402.253628 318.672673 401.608394 319.821036 400.460031 
C 320.969399 399.311668 321.614633 397.753935 321.614633 396.129904 
C 321.614633 394.505873 320.969399 392.94814 319.821036 391.799777 
C 318.672673 390.651414 317.11494 390.00618 315.490909 390.00618 
C 313.866878 390.00618 312.309145 390.651414 311.160782 391.799777 
C 310.012419 392.94814 309.367185 394.505873 309.367185 396.129904 
C 309.367185 397.753935 310.012419 399.311668 311.160782 400.460031 
C 312.309145 401.608394 313.866878 402.253628 315.490909 402.253628 
z
" clip-path="url(#p2ca6e08801)" style="fill: #1f77b4; fill-opacity: 0.3; stroke: #1f77b4; stroke-opacity: 0.3"/>
    <path d="M 324.218182 396.963751 
C 325.670759 396.963751 327.064038 396.386636 328.091165 395.359509 
C 329.118292 394.332382 329.695407 392.939103 329.695407 391.486526 
C 329.695407 390.033949 329.118292 388.64067 328.091165 387.613543 
C 327.064038 386.586415 325.670759 386.0093 324.218182 386.0093 
C 322.765605 386.0093 321.372326 386.586415 320.345198 387.613543 
C 319.318071 388.64067 318.740956 390.033949 318.740956 391.486526 
C 318.740956 392.939103 319.318071 394.332382 320.345198 395.359509 
C 321.372326 396.386636 322.765605 396.963751 324.218182 396.963751 
z
" clip-path="url(#p2ca6e08801)" style="fill: #1f77b4; fill-opacity: 0.3; stroke: #1f77b4; stroke-opacity: 0.3"/>
    <path d="M 332.945455 393.03782 
C 333.972582 393.03782 334.957779 392.629738 335.684067 391.90345 
C 336.410356 391.177161 336.818438 390.191964 336.818438 389.164837 
C 336.818438 388.13771 336.410356 387.152513 335.684067 386.426224 
C 334.957779 385.699935 333.972582 385.291854 332.945455 385.291854 
C 331.918327 385.291854 330.93313 385.699935 330.206842 386.426224 
C 329.480553 387.152513 329.072471 388.13771 329.072471 389.164837 
C 329.072471 390.191964 329.480553 391.177161 330.206842 391.90345 
C 330.93313 392.629738 331.918327 393.03782 332.945455 393.03782 
z
" clip-path="url(#p2ca6e08801)" style="fill: #1f77b4; fill-opacity: 0.3; stroke: #1f77b4; stroke-opacity: 0.3"/>
    <path d="M 341.672727 388.496941 
C 343.547996 388.496941 345.346712 387.751889 346.672727 386.425873 
C 347.998743 385.099858 348.743795 383.301142 348.743795 381.425873 
C 348.743795 379.550604 347.998743 377.751889 346.672727 376.425873 
C 345.346712 375.099858 343.547996 374.354806 341.672727 374.354806 
C 339.797458 374.354806 337.998743 375.099858 336.672727 376.425873 
C 335.346712 377.751889 334.601659 379.550604 334.601659 381.425873 
C 334.601659 383.301142 335.346712 385.099858 336.672727 386.425873 
C 337.998743 387.751889 339.797458 388.496941 341.672727 388.496941 
z
" clip-path="url(#p2ca6e08801)" style="fill: #1f77b4; fill-opacity: 0.3; stroke: #1f77b4; stroke-opacity: 0.3"/>
    <path d="M 350.4 382.977168 
C 351.427127 382.977168 352.412324 382.569086 353.138613 381.842797 
C 353.864901 381.116508 354.272983 380.131311 354.272983 379.104184 
C 354.272983 378.077057 353.864901 377.09186 353.138613 376.365571 
C 352.412324 375.639283 351.427127 375.231201 350.4 375.231201 
C 349.372873 375.231201 348.387676 375.639283 347.661387 376.365571 
C 346.935099 377.09186 346.527017 378.077057 346.527017 379.104184 
C 346.527017 380.131311 346.935099 381.116508 347.661387 381.842797 
C 348.387676 382.569086 349.372873 382.977168 350.4 382.977168 
z
" clip-path="url(#p2ca6e08801)" style="fill: #1f77b4; fill-opacity: 0.3; stroke: #1f77b4; stroke-opacity: 0.3"/>
    <path d="M 359.127273 379.938032 
C 360.57985 379.938032 361.973129 379.360917 363.000256 378.333789 
C 364.027383 377.306662 364.604498 375.913383 364.604498 374.460806 
C 364.604498 373.008229 364.027383 371.61495 363.000256 370.587823 
C 361.973129 369.560696 360.57985 368.983581 359.127273 368.983581 
C 357.674696 368.983581 356.281417 369.560696 355.254289 370.587823 
C 354.227162 371.61495 353.650047 373.008229 353.650047 374.460806 
C 353.650047 375.913383 354.227162 377.306662 355.254289 378.333789 
C 356.281417 379.360917 357.674696 379.938032 359.127273 379.938032 
z
" clip-path="url(#p2ca6e08801)" style="fill: #1f77b4; fill-opacity: 0.3; stroke: #1f77b4; stroke-opacity: 0.3"/>
    <path d="M 367.854545 376.061599 
C 368.79218 376.061599 369.691538 375.689073 370.354545 375.026065 
C 371.017553 374.363058 371.390079 373.4637 371.390079 372.526065 
C 371.390079 371.588431 371.017553 370.689073 370.354545 370.026065 
C 369.691538 369.363058 368.79218 368.990531 367.854545 368.990531 
C 366.916911 368.990531 366.017553 369.363058 365.354545 370.026065 
C 364.691538 370.689073 364.319012 371.588431 364.319012 372.526065 
C 364.319012 373.4637 364.691538 374.363058 365.354545 375.026065 
C 366.017553 375.689073 366.916911 376.061599 367.854545 376.061599 
z
" clip-path="url(#p2ca6e08801)" style="fill: #1f77b4; fill-opacity: 0.3; stroke: #1f77b4; stroke-opacity: 0.3"/>
    <path d="M 376.581818 369.577874 
C 378.878544 369.577874 381.081512 368.665375 382.705543 367.041344 
C 384.329573 365.417314 385.242072 363.214346 385.242072 360.91762 
C 385.242072 358.620894 384.329573 356.417926 382.705543 354.793896 
C 381.081512 353.169865 378.878544 352.257366 376.581818 352.257366 
C 374.285092 352.257366 372.082125 353.169865 370.458094 354.793896 
C 368.834063 356.417926 367.921564 358.620894 367.921564 360.91762 
C 367.921564 363.214346 368.834063 365.417314 370.458094 367.041344 
C 372.082125 368.665375 374.285092 369.577874 376.581818 369.577874 
z
" clip-path="url(#p2ca6e08801)" style="fill: #1f77b4; fill-opacity: 0.3; stroke: #1f77b4; stroke-opacity: 0.3"/>
    <path d="M 385.309091 361.051004 
C 386.986383 361.051004 388.595203 360.384609 389.781227 359.198585 
C 390.967251 358.012561 391.633646 356.403741 391.633646 354.726449 
C 391.633646 353.049157 390.967251 351.440338 389.781227 350.254313 
C 388.595203 349.068289 386.986383 348.401894 385.309091 348.401894 
C 383.631799 348.401894 382.022979 349.068289 380.836955 350.254313 
C 379.650931 351.440338 378.984536 353.049157 378.984536 354.726449 
C 378.984536 356.403741 379.650931 358.012561 380.836955 359.198585 
C 382.022979 360.384609 383.631799 361.051004 385.309091 361.051004 
z
" clip-path="url(#p2ca6e08801)" style="fill: #1f77b4; fill-opacity: 0.3; stroke: #1f77b4; stroke-opacity: 0.3"/>
    <path d="M 394.036364 354.667533 
C 395.765276 354.667533 397.42361 353.980628 398.646136 352.758102 
C 399.868662 351.535576 400.555566 349.877243 400.555566 348.14833 
C 400.555566 346.419417 399.868662 344.761084 398.646136 343.538558 
C 397.42361 342.316032 395.765276 341.629128 394.036364 341.629128 
C 392.307451 341.629128 390.649117 342.316032 389.426591 343.538558 
C 388.204066 344.761084 387.517161 346.419417 387.517161 348.14833 
C 387.517161 349.877243 388.204066 351.535576 389.426591 352.758102 
C 390.649117 353.980628 392.307451 354.667533 394.036364 354.667533 
z
" clip-path="url(#p2ca6e08801)" style="fill: #1f77b4; fill-opacity: 0.3; stroke: #1f77b4; stroke-opacity: 0.3"/>
    <path d="M 402.763636 348.982178 
C 404.216214 348.982178 405.609493 348.405063 406.63662 347.377935 
C 407.663747 346.350808 408.240862 344.957529 408.240862 343.504952 
C 408.240862 342.052375 407.663747 340.659096 406.63662 339.631969 
C 405.609493 338.604841 404.216214 338.027726 402.763636 338.027726 
C 401.311059 338.027726 399.91778 338.604841 398.890653 339.631969 
C 397.863526 340.659096 397.286411 342.052375 397.286411 343.504952 
C 397.286411 344.957529 397.863526 346.350808 398.890653 347.377935 
C 399.91778 348.405063 401.311059 348.982178 402.763636 348.982178 
z
" clip-path="url(#p2ca6e08801)" style="fill: #1f77b4; fill-opacity: 0.3; stroke: #1f77b4; stroke-opacity: 0.3"/>
    <path d="M 411.490909 344.338799 
C 412.943486 344.338799 414.336765 343.761684 415.363892 342.734557 
C 416.39102 341.70743 416.968135 340.314151 416.968135 338.861574 
C 416.968135 337.408997 416.39102 336.015718 415.363892 334.988591 
C 414.336765 333.961463 412.943486 333.384348 411.490909 333.384348 
C 410.038332 333.384348 408.645053 333.961463 407.617926 334.988591 
C 406.590799 336.015718 406.013684 337.408997 406.013684 338.861574 
C 406.013684 340.314151 406.590799 341.70743 407.617926 342.734557 
C 408.645053 343.761684 410.038332 344.338799 411.490909 344.338799 
z
" clip-path="url(#p2ca6e08801)" style="fill: #1f77b4; fill-opacity: 0.3; stroke: #1f77b4; stroke-opacity: 0.3"/>
    <path d="M 420.218182 340.462367 
C 421.155816 340.462367 422.055174 340.089841 422.718182 339.426833 
C 423.38119 338.763825 423.753716 337.864468 423.753716 336.926833 
C 423.753716 335.989198 423.38119 335.089841 422.718182 334.426833 
C 422.055174 333.763825 421.155816 333.391299 420.218182 333.391299 
C 419.280547 333.391299 418.38119 333.763825 417.718182 334.426833 
C 417.055174 335.089841 416.682648 335.989198 416.682648 336.926833 
C 416.682648 337.864468 417.055174 338.763825 417.718182 339.426833 
C 418.38119 340.089841 419.280547 340.462367 420.218182 340.462367 
z
" clip-path="url(#p2ca6e08801)" style="fill: #1f77b4; fill-opacity: 0.3; stroke: #1f77b4; stroke-opacity: 0.3"/>
    <path d="M 428.945455 338.401496 
C 430.054879 338.401496 431.119013 337.960717 431.903494 337.176236 
C 432.687976 336.391754 433.128755 335.32762 433.128755 334.218196 
C 433.128755 333.108772 432.687976 332.044637 431.903494 331.260156 
C 431.119013 330.475675 430.054879 330.034896 428.945455 330.034896 
C 427.83603 330.034896 426.771896 330.475675 425.987415 331.260156 
C 425.202933 332.044637 424.762154 333.108772 424.762154 334.218196 
C 424.762154 335.32762 425.202933 336.391754 425.987415 337.176236 
C 426.771896 337.960717 427.83603 338.401496 428.945455 338.401496 
z
" clip-path="url(#p2ca6e08801)" style="fill: #1f77b4; fill-opacity: 0.3; stroke: #1f77b4; stroke-opacity: 0.3"/>
    <path d="M 437.672727 335.818989 
C 438.610362 335.818989 439.50972 335.446463 440.172727 334.783455 
C 440.835735 334.120447 441.208261 333.221089 441.208261 332.283455 
C 441.208261 331.34582 440.835735 330.446463 440.172727 329.783455 
C 439.50972 329.120447 438.610362 328.747921 437.672727 328.747921 
C 436.735093 328.747921 435.835735 329.120447 435.172727 329.783455 
C 434.50972 330.446463 434.137193 331.34582 434.137193 332.283455 
C 434.137193 333.221089 434.50972 334.120447 435.172727 334.783455 
C 435.835735 335.446463 436.735093 335.818989 437.672727 335.818989 
z
" clip-path="url(#p2ca6e08801)" style="fill: #1f77b4; fill-opacity: 0.3; stroke: #1f77b4; stroke-opacity: 0.3"/>
    <path d="M 446.4 333.834749 
C 447.427127 333.834749 448.412324 333.426667 449.138613 332.700379 
C 449.864901 331.97409 450.272983 330.988893 450.272983 329.961766 
C 450.272983 328.934639 449.864901 327.949442 449.138613 327.223153 
C 448.412324 326.496864 447.427127 326.088782 446.4 326.088782 
C 445.372873 326.088782 444.387676 326.496864 443.661387 327.223153 
C 442.935099 327.949442 442.527017 328.934639 442.527017 329.961766 
C 442.527017 330.988893 442.935099 331.97409 443.661387 332.700379 
C 444.387676 333.426667 445.372873 333.834749 446.4 333.834749 
z
" clip-path="url(#p2ca6e08801)" style="fill: #1f77b4; fill-opacity: 0.3; stroke: #1f77b4; stroke-opacity: 0.3"/>
    <path d="M 455.127273 331.576251 
C 455.965919 331.576251 456.770329 331.243053 457.363341 330.650041 
C 457.956353 330.057029 458.28955 329.252619 458.28955 328.413973 
C 458.28955 327.575327 457.956353 326.770917 457.363341 326.177905 
C 456.770329 325.584893 455.965919 325.251695 455.127273 325.251695 
C 454.288627 325.251695 453.484217 325.584893 452.891205 326.177905 
C 452.298193 326.770917 451.964995 327.575327 451.964995 328.413973 
C 451.964995 329.252619 452.298193 330.057029 452.891205 330.650041 
C 453.484217 331.243053 454.288627 331.576251 455.127273 331.576251 
z
" clip-path="url(#p2ca6e08801)" style="fill: #1f77b4; fill-opacity: 0.3; stroke: #1f77b4; stroke-opacity: 0.3"/>
    <path d="M 463.854545 329.888636 
C 464.96397 329.888636 466.028104 329.447857 466.812585 328.663376 
C 467.597067 327.878894 468.037846 326.81476 468.037846 325.705336 
C 468.037846 324.595912 467.597067 323.531777 466.812585 322.747296 
C 466.028104 321.962815 464.96397 321.522036 463.854545 321.522036 
C 462.745121 321.522036 461.680987 321.962815 460.896506 322.747296 
C 460.112024 323.531777 459.671245 324.595912 459.671245 325.705336 
C 459.671245 326.81476 460.112024 327.878894 460.896506 328.663376 
C 461.680987 329.447857 462.745121 329.888636 463.854545 329.888636 
z
" clip-path="url(#p2ca6e08801)" style="fill: #1f77b4; fill-opacity: 0.3; stroke: #1f77b4; stroke-opacity: 0.3"/>
    <path d="M 472.581818 320.7481 
C 475.166698 320.7481 477.646056 319.721116 479.473843 317.89333 
C 481.301629 316.065543 482.328613 313.586185 482.328613 311.001305 
C 482.328613 308.416425 481.301629 305.937067 479.473843 304.109281 
C 477.646056 302.281495 475.166698 301.254511 472.581818 301.254511 
C 469.996938 301.254511 467.51758 302.281495 465.689794 304.109281 
C 463.862008 305.937067 462.835024 308.416425 462.835024 311.001305 
C 462.835024 313.586185 463.862008 316.065543 465.689794 317.89333 
C 467.51758 319.721116 469.996938 320.7481 472.581818 320.7481 
z
" clip-path="url(#p2ca6e08801)" style="fill: #1f77b4; fill-opacity: 0.3; stroke: #1f77b4; stroke-opacity: 0.3"/>
    <path d="M 481.309091 312.463477 
C 481.902103 312.463477 482.470907 312.227871 482.89023 311.808548 
C 483.309553 311.389225 483.545159 310.820421 483.545159 310.227409 
C 483.545159 309.634397 483.309553 309.065593 482.89023 308.64627 
C 482.470907 308.226947 481.902103 307.991341 481.309091 307.991341 
C 480.716079 307.991341 480.147275 308.226947 479.727952 308.64627 
C 479.308629 309.065593 479.073023 309.634397 479.073023 310.227409 
C 479.073023 310.820421 479.308629 311.389225 479.727952 311.808548 
C 480.147275 312.227871 480.716079 312.463477 481.309091 312.463477 
z
" clip-path="url(#p2ca6e08801)" style="fill: #1f77b4; fill-opacity: 0.3; stroke: #1f77b4; stroke-opacity: 0.3"/>
    <path d="M 490.036364 311.828202 
C 490.973998 311.828202 491.873356 311.455676 492.536364 310.792668 
C 493.199371 310.12966 493.571898 309.230302 493.571898 308.292668 
C 493.571898 307.355033 493.199371 306.455676 492.536364 305.792668 
C 491.873356 305.12966 490.973998 304.757134 490.036364 304.757134 
C 489.098729 304.757134 488.199371 305.12966 487.536364 305.792668 
C 486.873356 306.455676 486.50083 307.355033 486.50083 308.292668 
C 486.50083 309.230302 486.873356 310.12966 487.536364 310.792668 
C 488.199371 311.455676 489.098729 311.828202 490.036364 311.828202 
z
" clip-path="url(#p2ca6e08801)" style="fill: #1f77b4; fill-opacity: 0.3; stroke: #1f77b4; stroke-opacity: 0.3"/>
    <path d="M 498.763636 309.893461 
C 499.701271 309.893461 500.600629 309.520935 501.263636 308.857927 
C 501.926644 308.194919 502.29917 307.295562 502.29917 306.357927 
C 502.29917 305.420293 501.926644 304.520935 501.263636 303.857927 
C 500.600629 303.194919 499.701271 302.822393 498.763636 302.822393 
C 497.826002 302.822393 496.926644 303.194919 496.263636 303.857927 
C 495.600629 304.520935 495.228102 305.420293 495.228102 306.357927 
C 495.228102 307.295562 495.600629 308.194919 496.263636 308.857927 
C 496.926644 309.520935 497.826002 309.893461 498.763636 309.893461 
z
" clip-path="url(#p2ca6e08801)" style="fill: #1f77b4; fill-opacity: 0.3; stroke: #1f77b4; stroke-opacity: 0.3"/>
    <path d="M 507.490909 307.83259 
C 508.600333 307.83259 509.664468 307.391811 510.448949 306.60733 
C 511.23343 305.822848 511.674209 304.758714 511.674209 303.64929 
C 511.674209 302.539866 511.23343 301.475731 510.448949 300.69125 
C 509.664468 299.906769 508.600333 299.46599 507.490909 299.46599 
C 506.381485 299.46599 505.317351 299.906769 504.532869 300.69125 
C 503.748388 301.475731 503.307609 302.539866 503.307609 303.64929 
C 503.307609 304.758714 503.748388 305.822848 504.532869 306.60733 
C 505.317351 307.391811 506.381485 307.83259 507.490909 307.83259 
z
" clip-path="url(#p2ca6e08801)" style="fill: #1f77b4; fill-opacity: 0.3; stroke: #1f77b4; stroke-opacity: 0.3"/>
    <path d="M 516.218182 304.636904 
C 517.608919 304.636904 518.942882 304.084359 519.926281 303.100959 
C 520.90968 302.11756 521.462226 300.783597 521.462226 299.39286 
C 521.462226 298.002123 520.90968 296.66816 519.926281 295.684761 
C 518.942882 294.701361 517.608919 294.148816 516.218182 294.148816 
C 514.827445 294.148816 513.493482 294.701361 512.510083 295.684761 
C 511.526683 296.66816 510.974138 298.002123 510.974138 299.39286 
C 510.974138 300.783597 511.526683 302.11756 512.510083 303.100959 
C 513.493482 304.084359 514.827445 304.636904 516.218182 304.636904 
z
" clip-path="url(#p2ca6e08801)" style="fill: #1f77b4; fill-opacity: 0.3; stroke: #1f77b4; stroke-opacity: 0.3"/>
    <path d="M 524.945455 300.944154 
C 525.972582 300.944154 526.957779 300.536072 527.684067 299.809784 
C 528.410356 299.083495 528.818438 298.098298 528.818438 297.071171 
C 528.818438 296.044044 528.410356 295.058847 527.684067 294.332558 
C 526.957779 293.606269 525.972582 293.198187 524.945455 293.198187 
C 523.918327 293.198187 522.93313 293.606269 522.206842 294.332558 
C 521.480553 295.058847 521.072471 296.044044 521.072471 297.071171 
C 521.072471 298.098298 521.480553 299.083495 522.206842 299.809784 
C 522.93313 300.536072 523.918327 300.944154 524.945455 300.944154 
z
" clip-path="url(#p2ca6e08801)" style="fill: #1f77b4; fill-opacity: 0.3; stroke: #1f77b4; stroke-opacity: 0.3"/>
    <path d="M 533.672727 298.201689 
C 534.998743 298.201689 536.270627 297.674858 537.208261 296.737223 
C 538.145896 295.799588 538.672727 294.527705 538.672727 293.201689 
C 538.672727 291.875674 538.145896 290.60379 537.208261 289.666155 
C 536.270627 288.728521 534.998743 288.201689 533.672727 288.201689 
C 532.346712 288.201689 531.074828 288.728521 530.137193 289.666155 
C 529.199559 290.60379 528.672727 291.875674 528.672727 293.201689 
C 528.672727 294.527705 529.199559 295.799588 530.137193 296.737223 
C 531.074828 297.674858 532.346712 298.201689 533.672727 298.201689 
z
" clip-path="url(#p2ca6e08801)" style="fill: #1f77b4; fill-opacity: 0.3; stroke: #1f77b4; stroke-opacity: 0.3"/>
    <path d="M 542.4 291.433679 
C 544.496615 291.433679 546.50764 290.600685 547.99017 289.118155 
C 549.4727 287.635624 550.305694 285.624599 550.305694 283.527985 
C 550.305694 281.43137 549.4727 279.420345 547.99017 277.937815 
C 546.50764 276.455284 544.496615 275.62229 542.4 275.62229 
C 540.303385 275.62229 538.29236 276.455284 536.80983 277.937815 
C 535.3273 279.420345 534.494306 281.43137 534.494306 283.527985 
C 534.494306 285.624599 535.3273 287.635624 536.80983 289.118155 
C 538.29236 290.600685 540.303385 291.433679 542.4 291.433679 
z
" clip-path="url(#p2ca6e08801)" style="fill: #1f77b4; fill-opacity: 0.3; stroke: #1f77b4; stroke-opacity: 0.3"/>
    <path d="M 551.127273 284.722175 
C 551.546596 284.722175 551.948801 284.555577 552.245307 284.25907 
C 552.541813 283.962564 552.708412 283.560359 552.708412 283.141036 
C 552.708412 282.721714 552.541813 282.319509 552.245307 282.023002 
C 551.948801 281.726496 551.546596 281.559898 551.127273 281.559898 
C 550.70795 281.559898 550.305745 281.726496 550.009239 282.023002 
C 549.712733 282.319509 549.546134 282.721714 549.546134 283.141036 
C 549.546134 283.560359 549.712733 283.962564 550.009239 284.25907 
C 550.305745 284.555577 550.70795 284.722175 551.127273 284.722175 
z
" clip-path="url(#p2ca6e08801)" style="fill: #1f77b4; fill-opacity: 0.3; stroke: #1f77b4; stroke-opacity: 0.3"/>
    <path d="M 559.854545 284.692331 
C 560.881673 284.692331 561.86687 284.284249 562.593158 283.55796 
C 563.319447 282.831672 563.727529 281.846475 563.727529 280.819347 
C 563.727529 279.79222 563.319447 278.807023 562.593158 278.080735 
C 561.86687 277.354446 560.881673 276.946364 559.854545 276.946364 
C 558.827418 276.946364 557.842221 277.354446 557.115933 278.080735 
C 556.389644 278.807023 555.981562 279.79222 555.981562 280.819347 
C 555.981562 281.846475 556.389644 282.831672 557.115933 283.55796 
C 557.842221 284.284249 558.827418 284.692331 559.854545 284.692331 
z
" clip-path="url(#p2ca6e08801)" style="fill: #1f77b4; fill-opacity: 0.3; stroke: #1f77b4; stroke-opacity: 0.3"/>
    <path d="M 568.581818 282.08023 
C 569.839787 282.08023 571.046402 281.580434 571.93592 280.690916 
C 572.825438 279.801398 573.325235 278.594783 573.325235 277.336814 
C 573.325235 276.078845 572.825438 274.87223 571.93592 273.982712 
C 571.046402 273.093194 569.839787 272.593397 568.581818 272.593397 
C 567.323849 272.593397 566.117234 273.093194 565.227716 273.982712 
C 564.338198 274.87223 563.838402 276.078845 563.838402 277.336814 
C 563.838402 278.594783 564.338198 279.801398 565.227716 280.690916 
C 566.117234 281.580434 567.323849 282.08023 568.581818 282.08023 
z
" clip-path="url(#p2ca6e08801)" style="fill: #1f77b4; fill-opacity: 0.3; stroke: #1f77b4; stroke-opacity: 0.3"/>
    <path d="M 577.309091 278.937607 
C 578.246725 278.937607 579.146083 278.565081 579.809091 277.902073 
C 580.472099 277.239065 580.844625 276.339707 580.844625 275.402073 
C 580.844625 274.464438 580.472099 273.565081 579.809091 272.902073 
C 579.146083 272.239065 578.246725 271.866539 577.309091 271.866539 
C 576.371456 271.866539 575.472099 272.239065 574.809091 272.902073 
C 574.146083 273.565081 573.773557 274.464438 573.773557 275.402073 
C 573.773557 276.339707 574.146083 277.239065 574.809091 277.902073 
C 575.472099 278.565081 576.371456 278.937607 577.309091 278.937607 
z
" clip-path="url(#p2ca6e08801)" style="fill: #1f77b4; fill-opacity: 0.3; stroke: #1f77b4; stroke-opacity: 0.3"/>
    <path d="M 586.036364 276.596264 
C 586.455687 276.596264 586.857892 276.429665 587.154398 276.133159 
C 587.450904 275.836653 587.617502 275.434448 587.617502 275.015125 
C 587.617502 274.595802 587.450904 274.193597 587.154398 273.897091 
C 586.857892 273.600585 586.455687 273.433986 586.036364 273.433986 
C 585.617041 273.433986 585.214836 273.600585 584.91833 273.897091 
C 584.621824 274.193597 584.455225 274.595802 584.455225 275.015125 
C 584.455225 275.434448 584.621824 275.836653 584.91833 276.133159 
C 585.214836 276.429665 585.617041 276.596264 586.036364 276.596264 
z
" clip-path="url(#p2ca6e08801)" style="fill: #1f77b4; fill-opacity: 0.3; stroke: #1f77b4; stroke-opacity: 0.3"/>
    <path d="M 594.763636 276.615918 
C 595.701271 276.615918 596.600629 276.243392 597.263636 275.580384 
C 597.926644 274.917376 598.29917 274.018018 598.29917 273.080384 
C 598.29917 272.142749 597.926644 271.243392 597.263636 270.580384 
C 596.600629 269.917376 595.701271 269.54485 594.763636 269.54485 
C 593.826002 269.54485 592.926644 269.917376 592.263636 270.580384 
C 591.600629 271.243392 591.228102 272.142749 591.228102 273.080384 
C 591.228102 274.018018 591.600629 274.917376 592.263636 275.580384 
C 592.926644 276.243392 593.826002 276.615918 594.763636 276.615918 
z
" clip-path="url(#p2ca6e08801)" style="fill: #1f77b4; fill-opacity: 0.3; stroke: #1f77b4; stroke-opacity: 0.3"/>
    <path d="M 603.490909 273.914231 
C 604.943486 273.914231 606.336765 273.337116 607.363892 272.309989 
C 608.39102 271.282862 608.968135 269.889583 608.968135 268.437006 
C 608.968135 266.984429 608.39102 265.59115 607.363892 264.564022 
C 606.336765 263.536895 604.943486 262.95978 603.490909 262.95978 
C 602.038332 262.95978 600.645053 263.536895 599.617926 264.564022 
C 598.590799 265.59115 598.013684 266.984429 598.013684 268.437006 
C 598.013684 269.889583 598.590799 271.282862 599.617926 272.309989 
C 600.645053 273.337116 602.038332 273.914231 603.490909 273.914231 
z
" clip-path="url(#p2ca6e08801)" style="fill: #1f77b4; fill-opacity: 0.3; stroke: #1f77b4; stroke-opacity: 0.3"/>
    <path d="M 612.218182 270.014774 
C 612.94447 270.014774 613.64111 269.726216 614.154673 269.212653 
C 614.668237 268.699089 614.956795 268.00245 614.956795 267.276161 
C 614.956795 266.549873 614.668237 265.853233 614.154673 265.33967 
C 613.64111 264.826106 612.94447 264.537548 612.218182 264.537548 
C 611.491893 264.537548 610.795254 264.826106 610.28169 265.33967 
C 609.768127 265.853233 609.479569 266.549873 609.479569 267.276161 
C 609.479569 268.00245 609.768127 268.699089 610.28169 269.212653 
C 610.795254 269.726216 611.491893 270.014774 612.218182 270.014774 
z
" clip-path="url(#p2ca6e08801)" style="fill: #1f77b4; fill-opacity: 0.3; stroke: #1f77b4; stroke-opacity: 0.3"/>
    <path d="M 620.945455 268.750824 
C 622.054879 268.750824 623.119013 268.310045 623.903494 267.525564 
C 624.687976 266.741083 625.128755 265.676948 625.128755 264.567524 
C 625.128755 263.4581 624.687976 262.393965 623.903494 261.609484 
C 623.119013 260.825003 622.054879 260.384224 620.945455 260.384224 
C 619.83603 260.384224 618.771896 260.825003 617.987415 261.609484 
C 617.202933 262.393965 616.762154 263.4581 616.762154 264.567524 
C 616.762154 265.676948 617.202933 266.741083 617.987415 267.525564 
C 618.771896 268.310045 619.83603 268.750824 620.945455 268.750824 
z
" clip-path="url(#p2ca6e08801)" style="fill: #1f77b4; fill-opacity: 0.3; stroke: #1f77b4; stroke-opacity: 0.3"/>
    <path d="M 629.672727 265.238075 
C 631.184618 265.238075 632.634788 264.637394 633.703856 263.568327 
C 634.772924 262.499259 635.373604 261.049088 635.373604 259.537198 
C 635.373604 258.025307 634.772924 256.575137 633.703856 255.506069 
C 632.634788 254.437001 631.184618 253.836321 629.672727 253.836321 
C 628.160837 253.836321 626.710666 254.437001 625.641598 255.506069 
C 624.572531 256.575137 623.97185 258.025307 623.97185 259.537198 
C 623.97185 261.049088 624.572531 262.499259 625.641598 263.568327 
C 626.710666 264.637394 628.160837 265.238075 629.672727 265.238075 
z
" clip-path="url(#p2ca6e08801)" style="fill: #1f77b4; fill-opacity: 0.3; stroke: #1f77b4; stroke-opacity: 0.3"/>
    <path d="M 638.4 258.656974 
C 640.321579 258.656974 642.164714 257.893523 643.523475 256.534761 
C 644.882237 255.176 645.645688 253.332865 645.645688 251.411286 
C 645.645688 249.489707 644.882237 247.646572 643.523475 246.287811 
C 642.164714 244.929049 640.321579 244.165598 638.4 244.165598 
C 636.478421 244.165598 634.635286 244.929049 633.276525 246.287811 
C 631.917763 247.646572 631.154312 249.489707 631.154312 251.411286 
C 631.154312 253.332865 631.917763 255.176 633.276525 256.534761 
C 634.635286 257.893523 636.478421 258.656974 638.4 258.656974 
z
" clip-path="url(#p2ca6e08801)" style="fill: #1f77b4; fill-opacity: 0.3; stroke: #1f77b4; stroke-opacity: 0.3"/>
    <path d="M 647.127273 249.179524 
C 649.306139 249.179524 651.396057 248.313851 652.936748 246.77316 
C 654.477439 245.232469 655.343111 243.142551 655.343111 240.963685 
C 655.343111 238.784819 654.477439 236.694901 652.936748 235.15421 
C 651.396057 233.613519 649.306139 232.747847 647.127273 232.747847 
C 644.948407 232.747847 642.858488 233.613519 641.317798 235.15421 
C 639.777107 236.694901 638.911434 238.784819 638.911434 240.963685 
C 638.911434 243.142551 639.777107 245.232469 641.317798 246.77316 
C 642.858488 248.313851 644.948407 249.179524 647.127273 249.179524 
z
" clip-path="url(#p2ca6e08801)" style="fill: #1f77b4; fill-opacity: 0.3; stroke: #1f77b4; stroke-opacity: 0.3"/>
    <path d="M 655.854545 240.083462 
C 657.776124 240.083462 659.619259 239.32001 660.978021 237.961249 
C 662.336782 236.602487 663.100234 234.759353 663.100234 232.837774 
C 663.100234 230.916194 662.336782 229.07306 660.978021 227.714298 
C 659.619259 226.355537 657.776124 225.592085 655.854545 225.592085 
C 653.932966 225.592085 652.089832 226.355537 650.73107 227.714298 
C 649.372309 229.07306 648.608857 230.916194 648.608857 232.837774 
C 648.608857 234.759353 649.372309 236.602487 650.73107 237.961249 
C 652.089832 239.32001 653.932966 240.083462 655.854545 240.083462 
z
" clip-path="url(#p2ca6e08801)" style="fill: #1f77b4; fill-opacity: 0.3; stroke: #1f77b4; stroke-opacity: 0.3"/>
    <path d="M 664.581818 230.369825 
C 666.800667 230.369825 668.928935 229.488267 670.497898 227.919304 
C 672.066861 226.350342 672.948418 224.222073 672.948418 222.003225 
C 672.948418 219.784376 672.066861 217.656107 670.497898 216.087145 
C 668.928935 214.518182 666.800667 213.636624 664.581818 213.636624 
C 662.36297 213.636624 660.234701 214.518182 658.665738 216.087145 
C 657.096776 217.656107 656.215218 219.784376 656.215218 222.003225 
C 656.215218 224.222073 657.096776 226.350342 658.665738 227.919304 
C 660.234701 229.488267 662.36297 230.369825 664.581818 230.369825 
z
" clip-path="url(#p2ca6e08801)" style="fill: #1f77b4; fill-opacity: 0.3; stroke: #1f77b4; stroke-opacity: 0.3"/>
    <path d="M 673.309091 214.656402 
C 676.183824 214.656402 678.941202 213.514258 680.973946 211.481515 
C 683.006689 209.448772 684.148833 206.691393 684.148833 203.81666 
C 684.148833 200.941927 683.006689 198.184549 680.973946 196.151805 
C 678.941202 194.119062 676.183824 192.976919 673.309091 192.976919 
C 670.434358 192.976919 667.676979 194.119062 665.644236 196.151805 
C 663.611493 198.184549 662.469349 200.941927 662.469349 203.81666 
C 662.469349 206.691393 663.611493 209.448772 665.644236 211.481515 
C 667.676979 213.514258 670.434358 214.656402 673.309091 214.656402 
z
" clip-path="url(#p2ca6e08801)" style="fill: #1f77b4; fill-opacity: 0.3; stroke: #1f77b4; stroke-opacity: 0.3"/>
    <path d="M 682.036364 204.136162 
C 683.660394 204.136162 685.218128 203.490928 686.366491 202.342565 
C 687.514854 201.194202 688.160088 199.636468 688.160088 198.012438 
C 688.160088 196.388407 687.514854 194.830674 686.366491 193.682311 
C 685.218128 192.533947 683.660394 191.888713 682.036364 191.888713 
C 680.412333 191.888713 678.8546 192.533947 677.706237 193.682311 
C 676.557874 194.830674 675.912639 196.388407 675.912639 198.012438 
C 675.912639 199.636468 676.557874 201.194202 677.706237 202.342565 
C 678.8546 203.490928 680.412333 204.136162 682.036364 204.136162 
z
" clip-path="url(#p2ca6e08801)" style="fill: #1f77b4; fill-opacity: 0.3; stroke: #1f77b4; stroke-opacity: 0.3"/>
    <path d="M 690.763636 199.487101 
C 691.873061 199.487101 692.937195 199.046322 693.721676 198.26184 
C 694.506158 197.477359 694.946936 196.413225 694.946936 195.3038 
C 694.946936 194.194376 694.506158 193.130242 693.721676 192.34576 
C 692.937195 191.561279 691.873061 191.1205 690.763636 191.1205 
C 689.654212 191.1205 688.590078 191.561279 687.805596 192.34576 
C 687.021115 193.130242 686.580336 194.194376 686.580336 195.3038 
C 686.580336 196.413225 687.021115 197.477359 687.805596 198.26184 
C 688.590078 199.046322 689.654212 199.487101 690.763636 199.487101 
z
" clip-path="url(#p2ca6e08801)" style="fill: #1f77b4; fill-opacity: 0.3; stroke: #1f77b4; stroke-opacity: 0.3"/>
    <path d="M 699.490909 196.904593 
C 700.428544 196.904593 701.327901 196.532067 701.990909 195.86906 
C 702.653917 195.206052 703.026443 194.306694 703.026443 193.36906 
C 703.026443 192.431425 702.653917 191.532067 701.990909 190.86906 
C 701.327901 190.206052 700.428544 189.833526 699.490909 189.833526 
C 698.553275 189.833526 697.653917 190.206052 696.990909 190.86906 
C 696.327901 191.532067 695.955375 192.431425 695.955375 193.36906 
C 695.955375 194.306694 696.327901 195.206052 696.990909 195.86906 
C 697.653917 196.532067 698.553275 196.904593 699.490909 196.904593 
z
" clip-path="url(#p2ca6e08801)" style="fill: #1f77b4; fill-opacity: 0.3; stroke: #1f77b4; stroke-opacity: 0.3"/>
    <path d="M 708.218182 194.499578 
C 709.544197 194.499578 710.816081 193.972746 711.753716 193.035112 
C 712.69135 192.097477 713.218182 190.825593 713.218182 189.499578 
C 713.218182 188.173562 712.69135 186.901678 711.753716 185.964044 
C 710.816081 185.026409 709.544197 184.499578 708.218182 184.499578 
C 706.892166 184.499578 705.620282 185.026409 704.682648 185.964044 
C 703.745013 186.901678 703.218182 188.173562 703.218182 189.499578 
C 703.218182 190.825593 703.745013 192.097477 704.682648 193.035112 
C 705.620282 193.972746 706.892166 194.499578 708.218182 194.499578 
z
" clip-path="url(#p2ca6e08801)" style="fill: #1f77b4; fill-opacity: 0.3; stroke: #1f77b4; stroke-opacity: 0.3"/>
    <path d="M 725.672727 190.760461 
C 726.930696 190.760461 728.137311 190.260664 729.026829 189.371146 
C 729.916347 188.481628 730.416144 187.275013 730.416144 186.017044 
C 730.416144 184.759075 729.916347 183.55246 729.026829 182.662942 
C 728.137311 181.773424 726.930696 181.273628 725.672727 181.273628 
C 724.414759 181.273628 723.208144 181.773424 722.318625 182.662942 
C 721.429107 183.55246 720.929311 184.759075 720.929311 186.017044 
C 720.929311 187.275013 721.429107 188.481628 722.318625 189.371146 
C 723.208144 190.260664 724.414759 190.760461 725.672727 190.760461 
z
" clip-path="url(#p2ca6e08801)" style="fill: #1f77b4; fill-opacity: 0.3; stroke: #1f77b4; stroke-opacity: 0.3"/>
    <path d="M 734.4 187.479216 
C 734.993012 187.479216 735.561816 187.24361 735.981139 186.824287 
C 736.400462 186.404964 736.636068 185.83616 736.636068 185.243148 
C 736.636068 184.650136 736.400462 184.081332 735.981139 183.662009 
C 735.561816 183.242686 734.993012 183.00708 734.4 183.00708 
C 733.806988 183.00708 733.238184 183.242686 732.818861 183.662009 
C 732.399538 184.081332 732.163932 184.650136 732.163932 185.243148 
C 732.163932 185.83616 732.399538 186.404964 732.818861 186.824287 
C 733.238184 187.24361 733.806988 187.479216 734.4 187.479216 
z
" clip-path="url(#p2ca6e08801)" style="fill: #1f77b4; fill-opacity: 0.3; stroke: #1f77b4; stroke-opacity: 0.3"/>
    <path d="M 743.127273 186.076995 
C 744.57985 186.076995 745.973129 185.49988 747.000256 184.472753 
C 748.027383 183.445626 748.604498 182.052347 748.604498 180.59977 
C 748.604498 179.147192 748.027383 177.753914 747.000256 176.726786 
C 745.973129 175.699659 744.57985 175.122544 743.127273 175.122544 
C 741.674696 175.122544 740.281417 175.699659 739.254289 176.726786 
C 738.227162 177.753914 737.650047 179.147192 737.650047 180.59977 
C 737.650047 182.052347 738.227162 183.445626 739.254289 184.472753 
C 740.281417 185.49988 741.674696 186.076995 743.127273 186.076995 
z
" clip-path="url(#p2ca6e08801)" style="fill: #1f77b4; fill-opacity: 0.3; stroke: #1f77b4; stroke-opacity: 0.3"/>
    <path d="M 751.854545 178.368007 
C 754.033411 178.368007 756.12333 177.502335 757.66402 175.961644 
C 759.204711 174.420953 760.070384 172.331035 760.070384 170.152169 
C 760.070384 167.973303 759.204711 165.883385 757.66402 164.342694 
C 756.12333 162.802003 754.033411 161.936331 751.854545 161.936331 
C 749.67568 161.936331 747.585761 162.802003 746.04507 164.342694 
C 744.50438 165.883385 743.638707 167.973303 743.638707 170.152169 
C 743.638707 172.331035 744.50438 174.420953 746.04507 175.961644 
C 747.585761 177.502335 749.67568 178.368007 751.854545 178.368007 
z
" clip-path="url(#p2ca6e08801)" style="fill: #1f77b4; fill-opacity: 0.3; stroke: #1f77b4; stroke-opacity: 0.3"/>
    <path d="M 760.581818 170.285553 
C 762.25911 170.285553 763.86793 169.619158 765.053954 168.433134 
C 766.239978 167.24711 766.906374 165.63829 766.906374 163.960998 
C 766.906374 162.283706 766.239978 160.674886 765.053954 159.488862 
C 763.86793 158.302838 762.25911 157.636443 760.581818 157.636443 
C 758.904527 157.636443 757.295707 158.302838 756.109682 159.488862 
C 754.923658 160.674886 754.257263 162.283706 754.257263 163.960998 
C 754.257263 165.63829 754.923658 167.24711 756.109682 168.433134 
C 757.295707 169.619158 758.904527 170.285553 760.581818 170.285553 
z
" clip-path="url(#p2ca6e08801)" style="fill: #1f77b4; fill-opacity: 0.3; stroke: #1f77b4; stroke-opacity: 0.3"/>
    <path d="M 769.309091 165.538766 
C 770.03538 165.538766 770.732019 165.250209 771.245583 164.736645 
C 771.759146 164.223082 772.047704 163.526442 772.047704 162.800154 
C 772.047704 162.073865 771.759146 161.377225 771.245583 160.863662 
C 770.732019 160.350098 770.03538 160.061541 769.309091 160.061541 
C 768.582802 160.061541 767.886163 160.350098 767.372599 160.863662 
C 766.859036 161.377225 766.570478 162.073865 766.570478 162.800154 
C 766.570478 163.526442 766.859036 164.223082 767.372599 164.736645 
C 767.886163 165.250209 768.582802 165.538766 769.309091 165.538766 
z
" clip-path="url(#p2ca6e08801)" style="fill: #1f77b4; fill-opacity: 0.3; stroke: #1f77b4; stroke-opacity: 0.3"/>
    <path d="M 778.036364 163.994344 
C 778.455687 163.994344 778.857892 163.827745 779.154398 163.531239 
C 779.450904 163.234733 779.617502 162.832528 779.617502 162.413205 
C 779.617502 161.993882 779.450904 161.591677 779.154398 161.295171 
C 778.857892 160.998665 778.455687 160.832067 778.036364 160.832067 
C 777.617041 160.832067 777.214836 160.998665 776.91833 161.295171 
C 776.621824 161.591677 776.455225 161.993882 776.455225 162.413205 
C 776.455225 162.832528 776.621824 163.234733 776.91833 163.531239 
C 777.214836 163.827745 777.617041 163.994344 778.036364 163.994344 
z
" clip-path="url(#p2ca6e08801)" style="fill: #1f77b4; fill-opacity: 0.3; stroke: #1f77b4; stroke-opacity: 0.3"/>
    <path d="M 786.763636 164.02769 
C 787.602282 164.02769 788.406692 163.694493 788.999704 163.101481 
C 789.592717 162.508468 789.925914 161.704059 789.925914 160.865413 
C 789.925914 160.026767 789.592717 159.222357 788.999704 158.629345 
C 788.406692 158.036333 787.602282 157.703135 786.763636 157.703135 
C 785.924991 157.703135 785.120581 158.036333 784.527568 158.629345 
C 783.934556 159.222357 783.601359 160.026767 783.601359 160.865413 
C 783.601359 161.704059 783.934556 162.508468 784.527568 163.101481 
C 785.120581 163.694493 785.924991 164.02769 786.763636 164.02769 
z
" clip-path="url(#p2ca6e08801)" style="fill: #1f77b4; fill-opacity: 0.3; stroke: #1f77b4; stroke-opacity: 0.3"/>
    <path d="M 795.490909 162.416707 
C 796.518036 162.416707 797.503233 162.008625 798.229522 161.282336 
C 798.95581 160.556048 799.363892 159.570851 799.363892 158.543724 
C 799.363892 157.516596 798.95581 156.531399 798.229522 155.805111 
C 797.503233 155.078822 796.518036 154.67074 795.490909 154.67074 
C 794.463782 154.67074 793.478585 155.078822 792.752296 155.805111 
C 792.026008 156.531399 791.617926 157.516596 791.617926 158.543724 
C 791.617926 159.570851 792.026008 160.556048 792.752296 161.282336 
C 793.478585 162.008625 794.463782 162.416707 795.490909 162.416707 
z
" clip-path="url(#p2ca6e08801)" style="fill: #1f77b4; fill-opacity: 0.3; stroke: #1f77b4; stroke-opacity: 0.3"/>
    <path d="M 804.218182 160.144517 
C 805.155816 160.144517 806.055174 159.77199 806.718182 159.108983 
C 807.38119 158.445975 807.753716 157.546617 807.753716 156.608983 
C 807.753716 155.671348 807.38119 154.77199 806.718182 154.108983 
C 806.055174 153.445975 805.155816 153.073449 804.218182 153.073449 
C 803.280547 153.073449 802.38119 153.445975 801.718182 154.108983 
C 801.055174 154.77199 800.682648 155.671348 800.682648 156.608983 
C 800.682648 157.546617 801.055174 158.445975 801.718182 159.108983 
C 802.38119 159.77199 803.280547 160.144517 804.218182 160.144517 
z
" clip-path="url(#p2ca6e08801)" style="fill: #1f77b4; fill-opacity: 0.3; stroke: #1f77b4; stroke-opacity: 0.3"/>
    <path d="M 812.945455 158.223468 
C 813.7841 158.223468 814.58851 157.89027 815.181523 157.297258 
C 815.774535 156.704246 816.107732 155.899836 816.107732 155.06119 
C 816.107732 154.222544 815.774535 153.418134 815.181523 152.825122 
C 814.58851 152.23211 813.7841 151.898912 812.945455 151.898912 
C 812.106809 151.898912 811.302399 152.23211 810.709387 152.825122 
C 810.116374 153.418134 809.783177 154.222544 809.783177 155.06119 
C 809.783177 155.899836 810.116374 156.704246 810.709387 157.297258 
C 811.302399 157.89027 812.106809 158.223468 812.945455 158.223468 
z
" clip-path="url(#p2ca6e08801)" style="fill: #1f77b4; fill-opacity: 0.3; stroke: #1f77b4; stroke-opacity: 0.3"/>
    <path d="M 821.672727 154.393294 
C 823.547996 154.393294 825.346712 153.648242 826.672727 152.322226 
C 827.998743 150.996211 828.743795 149.197496 828.743795 147.322226 
C 828.743795 145.446957 827.998743 143.648242 826.672727 142.322226 
C 825.346712 140.996211 823.547996 140.251159 821.672727 140.251159 
C 819.797458 140.251159 817.998743 140.996211 816.672727 142.322226 
C 815.346712 143.648242 814.601659 145.446957 814.601659 147.322226 
C 814.601659 149.197496 815.346712 150.996211 816.672727 152.322226 
C 817.998743 153.648242 819.797458 154.393294 821.672727 154.393294 
z
" clip-path="url(#p2ca6e08801)" style="fill: #1f77b4; fill-opacity: 0.3; stroke: #1f77b4; stroke-opacity: 0.3"/>
    <path d="M 830.4 148.309841 
C 831.790737 148.309841 833.1247 147.757295 834.108099 146.773896 
C 835.091499 145.790496 835.644044 144.456533 835.644044 143.065797 
C 835.644044 141.67506 835.091499 140.341097 834.108099 139.357697 
C 833.1247 138.374298 831.790737 137.821752 830.4 137.821752 
C 829.009263 137.821752 827.6753 138.374298 826.691901 139.357697 
C 825.708501 140.341097 825.155956 141.67506 825.155956 143.065797 
C 825.155956 144.456533 825.708501 145.790496 826.691901 146.773896 
C 827.6753 147.757295 829.009263 148.309841 830.4 148.309841 
z
" clip-path="url(#p2ca6e08801)" style="fill: #1f77b4; fill-opacity: 0.3; stroke: #1f77b4; stroke-opacity: 0.3"/>
    <path d="M 839.127273 144.617091 
C 840.1544 144.617091 841.139597 144.209009 841.865886 143.48272 
C 842.592174 142.756432 843.000256 141.771235 843.000256 140.744107 
C 843.000256 139.71698 842.592174 138.731783 841.865886 138.005495 
C 841.139597 137.279206 840.1544 136.871124 839.127273 136.871124 
C 838.100146 136.871124 837.114949 137.279206 836.38866 138.005495 
C 835.662371 138.731783 835.254289 139.71698 835.254289 140.744107 
C 835.254289 141.771235 835.662371 142.756432 836.38866 143.48272 
C 837.114949 144.209009 838.100146 144.617091 839.127273 144.617091 
z
" clip-path="url(#p2ca6e08801)" style="fill: #1f77b4; fill-opacity: 0.3; stroke: #1f77b4; stroke-opacity: 0.3"/>
    <path d="M 847.854545 141.731722 
C 849.245282 141.731722 850.579245 141.179176 851.562645 140.195777 
C 852.546044 139.212377 853.09859 137.878414 853.09859 136.487678 
C 853.09859 135.096941 852.546044 133.762978 851.562645 132.779578 
C 850.579245 131.796179 849.245282 131.243633 847.854545 131.243633 
C 846.463809 131.243633 845.129846 131.796179 844.146446 132.779578 
C 843.163047 133.762978 842.610501 135.096941 842.610501 136.487678 
C 842.610501 137.878414 843.163047 139.212377 844.146446 140.195777 
C 845.129846 141.179176 846.463809 141.731722 847.854545 141.731722 
z
" clip-path="url(#p2ca6e08801)" style="fill: #1f77b4; fill-opacity: 0.3; stroke: #1f77b4; stroke-opacity: 0.3"/>
    <path d="M 856.581818 136.027687 
C 858.409604 136.027687 860.162775 135.301499 861.455215 134.009059 
C 862.747655 132.716619 863.473843 130.963448 863.473843 129.135662 
C 863.473843 127.307876 862.747655 125.554705 861.455215 124.262265 
C 860.162775 122.969825 858.409604 122.243638 856.581818 122.243638 
C 854.754032 122.243638 853.000861 122.969825 851.708421 124.262265 
C 850.415981 125.554705 849.689794 127.307876 849.689794 129.135662 
C 849.689794 130.963448 850.415981 132.716619 851.708421 134.009059 
C 853.000861 135.301499 854.754032 136.027687 856.581818 136.027687 
z
" clip-path="url(#p2ca6e08801)" style="fill: #1f77b4; fill-opacity: 0.3; stroke: #1f77b4; stroke-opacity: 0.3"/>
    <path d="M 865.309091 129.96951 
C 866.761668 129.96951 868.154947 129.392395 869.182074 128.365267 
C 870.209201 127.33814 870.786316 125.944861 870.786316 124.492284 
C 870.786316 123.039707 870.209201 121.646428 869.182074 120.619301 
C 868.154947 119.592174 866.761668 119.015058 865.309091 119.015058 
C 863.856514 119.015058 862.463235 119.592174 861.436108 120.619301 
C 860.40898 121.646428 859.831865 123.039707 859.831865 124.492284 
C 859.831865 125.944861 860.40898 127.33814 861.436108 128.365267 
C 862.463235 129.392395 863.856514 129.96951 865.309091 129.96951 
z
" clip-path="url(#p2ca6e08801)" style="fill: #1f77b4; fill-opacity: 0.3; stroke: #1f77b4; stroke-opacity: 0.3"/>
    <path d="M 874.036364 125.479898 
C 875.4271 125.479898 876.761063 124.927353 877.744463 123.943953 
C 878.727862 122.960554 879.280408 121.626591 879.280408 120.235854 
C 879.280408 118.845117 878.727862 117.511154 877.744463 116.527755 
C 876.761063 115.544355 875.4271 114.99181 874.036364 114.99181 
C 872.645627 114.99181 871.311664 115.544355 870.328264 116.527755 
C 869.344865 117.511154 868.792319 118.845117 868.792319 120.235854 
C 868.792319 121.626591 869.344865 122.960554 870.328264 123.943953 
C 871.311664 124.927353 872.645627 125.479898 874.036364 125.479898 
z
" clip-path="url(#p2ca6e08801)" style="fill: #1f77b4; fill-opacity: 0.3; stroke: #1f77b4; stroke-opacity: 0.3"/>
    <path d="M 882.763636 121.787148 
C 883.790764 121.787148 884.775961 121.379066 885.502249 120.652778 
C 886.228538 119.926489 886.63662 118.941292 886.63662 117.914165 
C 886.63662 116.887038 886.228538 115.901841 885.502249 115.175552 
C 884.775961 114.449264 883.790764 114.041182 882.763636 114.041182 
C 881.736509 114.041182 880.751312 114.449264 880.025024 115.175552 
C 879.298735 115.901841 878.890653 116.887038 878.890653 117.914165 
C 878.890653 118.941292 879.298735 119.926489 880.025024 120.652778 
C 880.751312 121.379066 881.736509 121.787148 882.763636 121.787148 
z
" clip-path="url(#p2ca6e08801)" style="fill: #1f77b4; fill-opacity: 0.3; stroke: #1f77b4; stroke-opacity: 0.3"/>
    <path d="M 891.490909 119.514958 
C 892.428544 119.514958 893.327901 119.142432 893.990909 118.479424 
C 894.653917 117.816416 895.026443 116.917059 895.026443 115.979424 
C 895.026443 115.04179 894.653917 114.142432 893.990909 113.479424 
C 893.327901 112.816416 892.428544 112.44389 891.490909 112.44389 
C 890.553275 112.44389 889.653917 112.816416 888.990909 113.479424 
C 888.327901 114.142432 887.955375 115.04179 887.955375 115.979424 
C 887.955375 116.917059 888.327901 117.816416 888.990909 118.479424 
C 889.653917 119.142432 890.553275 119.514958 891.490909 119.514958 
z
" clip-path="url(#p2ca6e08801)" style="fill: #1f77b4; fill-opacity: 0.3; stroke: #1f77b4; stroke-opacity: 0.3"/>
    <path d="M 900.218182 117.441596 
C 900.811194 117.441596 901.379998 117.20599 901.799321 116.786667 
C 902.218644 116.367344 902.45425 115.79854 902.45425 115.205528 
C 902.45425 114.612516 902.218644 114.043712 901.799321 113.624389 
C 901.379998 113.205066 900.811194 112.96946 900.218182 112.96946 
C 899.62517 112.96946 899.056366 113.205066 898.637043 113.624389 
C 898.21772 114.043712 897.982114 114.612516 897.982114 115.205528 
C 897.982114 115.79854 898.21772 116.367344 898.637043 116.786667 
C 899.056366 117.20599 899.62517 117.441596 900.218182 117.441596 
z
" clip-path="url(#p2ca6e08801)" style="fill: #1f77b4; fill-opacity: 0.3; stroke: #1f77b4; stroke-opacity: 0.3"/>
    <path d="M 908.945455 116.399718 
C 909.364777 116.399718 909.766982 116.23312 910.063489 115.936614 
C 910.359995 115.640108 910.526593 115.237903 910.526593 114.81858 
C 910.526593 114.399257 910.359995 113.997052 910.063489 113.700546 
C 909.766982 113.40404 909.364777 113.237441 908.945455 113.237441 
C 908.526132 113.237441 908.123927 113.40404 907.827421 113.700546 
C 907.530914 113.997052 907.364316 114.399257 907.364316 114.81858 
C 907.364316 115.237903 907.530914 115.640108 907.827421 115.936614 
C 908.123927 116.23312 908.526132 116.399718 908.945455 116.399718 
z
" clip-path="url(#p2ca6e08801)" style="fill: #1f77b4; fill-opacity: 0.3; stroke: #1f77b4; stroke-opacity: 0.3"/>
    <path d="M 917.672727 116.01277 
C 918.09205 116.01277 918.494255 115.846172 918.790761 115.549665 
C 919.087267 115.253159 919.253866 114.850954 919.253866 114.431631 
C 919.253866 114.012309 919.087267 113.610104 918.790761 113.313597 
C 918.494255 113.017091 918.09205 112.850493 917.672727 112.850493 
C 917.253404 112.850493 916.851199 113.017091 916.554693 113.313597 
C 916.258187 113.610104 916.091588 114.012309 916.091588 114.431631 
C 916.091588 114.850954 916.258187 115.253159 916.554693 115.549665 
C 916.851199 115.846172 917.253404 116.01277 917.672727 116.01277 
z
" clip-path="url(#p2ca6e08801)" style="fill: #1f77b4; fill-opacity: 0.3; stroke: #1f77b4; stroke-opacity: 0.3"/>
    <path d="M 926.4 115.56215 
C 927.726015 115.56215 928.997899 115.035318 929.935534 114.097684 
C 930.873168 113.160049 931.4 111.888165 931.4 110.56215 
C 931.4 109.236134 930.873168 107.96425 929.935534 107.026616 
C 928.997899 106.088981 927.726015 105.56215 926.4 105.56215 
C 925.073984 105.56215 923.802101 106.088981 922.864466 107.026616 
C 921.926832 107.96425 921.4 109.236134 921.4 110.56215 
C 921.4 111.888165 921.926832 113.160049 922.864466 114.097684 
C 923.802101 115.035318 925.073984 115.56215 926.4 115.56215 
z
" clip-path="url(#p2ca6e08801)" style="fill: #1f77b4; fill-opacity: 0.3; stroke: #1f77b4; stroke-opacity: 0.3"/>
    <path d="M 935.127273 111.75634 
C 935.546596 111.75634 935.948801 111.589742 936.245307 111.293236 
C 936.541813 110.996729 936.708412 110.594524 936.708412 110.175202 
C 936.708412 109.755879 936.541813 109.353674 936.245307 109.057168 
C 935.948801 108.760661 935.546596 108.594063 935.127273 108.594063 
C 934.70795 108.594063 934.305745 108.760661 934.009239 109.057168 
C 933.712733 109.353674 933.546134 109.755879 933.546134 110.175202 
C 933.546134 110.594524 933.712733 110.996729 934.009239 111.293236 
C 934.305745 111.589742 934.70795 111.75634 935.127273 111.75634 
z
" clip-path="url(#p2ca6e08801)" style="fill: #1f77b4; fill-opacity: 0.3; stroke: #1f77b4; stroke-opacity: 0.3"/>
    <path d="M 943.854545 111.637373 
C 944.447558 111.637373 945.016361 111.401767 945.435684 110.982444 
C 945.855007 110.563121 946.090613 109.994317 946.090613 109.401305 
C 946.090613 108.808293 945.855007 108.239489 945.435684 107.820166 
C 945.016361 107.400843 944.447558 107.165237 943.854545 107.165237 
C 943.261533 107.165237 942.69273 107.400843 942.273407 107.820166 
C 941.854084 108.239489 941.618477 108.808293 941.618477 109.401305 
C 941.618477 109.994317 941.854084 110.563121 942.273407 110.982444 
C 942.69273 111.401767 943.261533 111.637373 943.854545 111.637373 
z
" clip-path="url(#p2ca6e08801)" style="fill: #1f77b4; fill-opacity: 0.3; stroke: #1f77b4; stroke-opacity: 0.3"/>
    <path d="M 952.581818 105.464612 
C 955.02687 105.464612 957.372108 104.493182 959.101021 102.76427 
C 960.829933 101.035357 961.801363 98.690119 961.801363 96.245067 
C 961.801363 93.800015 960.829933 91.454777 959.101021 89.725865 
C 957.372108 87.996952 955.02687 87.025523 952.581818 87.025523 
C 950.136766 87.025523 947.791528 87.996952 946.062616 89.725865 
C 944.333703 91.454777 943.362274 93.800015 943.362274 96.245067 
C 943.362274 98.690119 944.333703 101.035357 946.062616 102.76427 
C 947.791528 104.493182 950.136766 105.464612 952.581818 105.464612 
z
" clip-path="url(#p2ca6e08801)" style="fill: #1f77b4; fill-opacity: 0.3; stroke: #1f77b4; stroke-opacity: 0.3"/>
    <path d="M 961.309091 97.71973 
C 962.418515 97.71973 963.482649 97.278951 964.267131 96.49447 
C 965.051612 95.709988 965.492391 94.645854 965.492391 93.53643 
C 965.492391 92.427006 965.051612 91.362871 964.267131 90.57839 
C 963.482649 89.793909 962.418515 89.35313 961.309091 89.35313 
C 960.199667 89.35313 959.135532 89.793909 958.351051 90.57839 
C 957.56657 91.362871 957.125791 92.427006 957.125791 93.53643 
C 957.125791 94.645854 957.56657 95.709988 958.351051 96.49447 
C 959.135532 97.278951 960.199667 97.71973 961.309091 97.71973 
z
" clip-path="url(#p2ca6e08801)" style="fill: #1f77b4; fill-opacity: 0.3; stroke: #1f77b4; stroke-opacity: 0.3"/>
    <path d="M 970.036364 95.114198 
C 970.762652 95.114198 971.459292 94.825641 971.972855 94.312077 
C 972.486419 93.798513 972.774976 93.101874 972.774976 92.375585 
C 972.774976 91.649297 972.486419 90.952657 971.972855 90.439094 
C 971.459292 89.92553 970.762652 89.636973 970.036364 89.636973 
C 969.310075 89.636973 968.613436 89.92553 968.099872 90.439094 
C 967.586308 90.952657 967.297751 91.649297 967.297751 92.375585 
C 967.297751 93.101874 967.586308 93.798513 968.099872 94.312077 
C 968.613436 94.825641 969.310075 95.114198 970.036364 95.114198 
z
" clip-path="url(#p2ca6e08801)" style="fill: #1f77b4; fill-opacity: 0.3; stroke: #1f77b4; stroke-opacity: 0.3"/>
    <path d="M 978.763636 93.837757 
C 979.356649 93.837757 979.925452 93.602151 980.344775 93.182828 
C 980.764098 92.763505 980.999704 92.194701 980.999704 91.601689 
C 980.999704 91.008677 980.764098 90.439873 980.344775 90.02055 
C 979.925452 89.601227 979.356649 89.365621 978.763636 89.365621 
C 978.170624 89.365621 977.60182 89.601227 977.182498 90.02055 
C 976.763175 90.439873 976.527568 91.008677 976.527568 91.601689 
C 976.527568 92.194701 976.763175 92.763505 977.182498 93.182828 
C 977.60182 93.602151 978.170624 93.837757 978.763636 93.837757 
z
" clip-path="url(#p2ca6e08801)" style="fill: #1f77b4; fill-opacity: 0.3; stroke: #1f77b4; stroke-opacity: 0.3"/>
    <path d="M 987.490909 93.216174 
C 988.329555 93.216174 989.133965 92.882976 989.726977 92.289964 
C 990.319989 91.696952 990.653187 90.892542 990.653187 90.053896 
C 990.653187 89.215251 990.319989 88.410841 989.726977 87.817828 
C 989.133965 87.224816 988.329555 86.891619 987.490909 86.891619 
C 986.652263 86.891619 985.847853 87.224816 985.254841 87.817828 
C 984.661829 88.410841 984.328631 89.215251 984.328631 90.053896 
C 984.328631 90.892542 984.661829 91.696952 985.254841 92.289964 
C 985.847853 92.882976 986.652263 93.216174 987.490909 93.216174 
z
" clip-path="url(#p2ca6e08801)" style="fill: #1f77b4; fill-opacity: 0.3; stroke: #1f77b4; stroke-opacity: 0.3"/>
    <path d="M 996.218182 91.516068 
C 996.811194 91.516068 997.379998 91.280462 997.799321 90.861139 
C 998.218644 90.441816 998.45425 89.873012 998.45425 89.28 
C 998.45425 88.686988 998.218644 88.118184 997.799321 87.698861 
C 997.379998 87.279538 996.811194 87.043932 996.218182 87.043932 
C 995.62517 87.043932 995.056366 87.279538 994.637043 87.698861 
C 994.21772 88.118184 993.982114 88.686988 993.982114 89.28 
C 993.982114 89.873012 994.21772 90.441816 994.637043 90.861139 
C 995.056366 91.280462 995.62517 91.516068 996.218182 91.516068 
z
" clip-path="url(#p2ca6e08801)" style="fill: #1f77b4; fill-opacity: 0.3; stroke: #1f77b4; stroke-opacity: 0.3"/>
   </g>
   <g id="matplotlib.axis_1">
    <g id="xtick_1">
     <g id="line2d_1">
      <defs>
       <path id="m9d97d760bb" d="M 0 0 
L 0 3.5 
" style="stroke: #000000; stroke-width: 0.8"/>
      </defs>
      <g>
       <use xlink:href="#m9d97d760bb" x="184.581818" y="512.64" style="stroke: #000000; stroke-width: 0.8"/>
      </g>
     </g>
     <g id="text_1">
      <!-- 2023-01-01 -->
      <g transform="translate(155.524006 527.238438)scale(0.1 -0.1)">
       <defs>
        <path id="DejaVuSans-32" d="M 1228 531 
L 3431 531 
L 3431 0 
L 469 0 
L 469 531 
Q 828 903 1448 1529 
Q 2069 2156 2228 2338 
Q 2531 2678 2651 2914 
Q 2772 3150 2772 3378 
Q 2772 3750 2511 3984 
Q 2250 4219 1831 4219 
Q 1534 4219 1204 4116 
Q 875 4013 500 3803 
L 500 4441 
Q 881 4594 1212 4672 
Q 1544 4750 1819 4750 
Q 2544 4750 2975 4387 
Q 3406 4025 3406 3419 
Q 3406 3131 3298 2873 
Q 3191 2616 2906 2266 
Q 2828 2175 2409 1742 
Q 1991 1309 1228 531 
z
" transform="scale(0.015625)"/>
        <path id="DejaVuSans-30" d="M 2034 4250 
Q 1547 4250 1301 3770 
Q 1056 3291 1056 2328 
Q 1056 1369 1301 889 
Q 1547 409 2034 409 
Q 2525 409 2770 889 
Q 3016 1369 3016 2328 
Q 3016 3291 2770 3770 
Q 2525 4250 2034 4250 
z
M 2034 4750 
Q 2819 4750 3233 4129 
Q 3647 3509 3647 2328 
Q 3647 1150 3233 529 
Q 2819 -91 2034 -91 
Q 1250 -91 836 529 
Q 422 1150 422 2328 
Q 422 3509 836 4129 
Q 1250 4750 2034 4750 
z
" transform="scale(0.015625)"/>
        <path id="DejaVuSans-33" d="M 2597 2516 
Q 3050 2419 3304 2112 
Q 3559 1806 3559 1356 
Q 3559 666 3084 287 
Q 2609 -91 1734 -91 
Q 1441 -91 1130 -33 
Q 819 25 488 141 
L 488 750 
Q 750 597 1062 519 
Q 1375 441 1716 441 
Q 2309 441 2620 675 
Q 2931 909 2931 1356 
Q 2931 1769 2642 2001 
Q 2353 2234 1838 2234 
L 1294 2234 
L 1294 2753 
L 1863 2753 
Q 2328 2753 2575 2939 
Q 2822 3125 2822 3475 
Q 2822 3834 2567 4026 
Q 2313 4219 1838 4219 
Q 1578 4219 1281 4162 
Q 984 4106 628 3988 
L 628 4550 
Q 988 4650 1302 4700 
Q 1616 4750 1894 4750 
Q 2613 4750 3031 4423 
Q 3450 4097 3450 3541 
Q 3450 3153 3228 2886 
Q 3006 2619 2597 2516 
z
" transform="scale(0.015625)"/>
        <path id="DejaVuSans-2d" d="M 313 2009 
L 1997 2009 
L 1997 1497 
L 313 1497 
L 313 2009 
z
" transform="scale(0.015625)"/>
        <path id="DejaVuSans-31" d="M 794 531 
L 1825 531 
L 1825 4091 
L 703 3866 
L 703 4441 
L 1819 4666 
L 2450 4666 
L 2450 531 
L 3481 531 
L 3481 0 
L 794 0 
L 794 531 
z
" transform="scale(0.015625)"/>
       </defs>
       <use xlink:href="#DejaVuSans-32"/>
       <use xlink:href="#DejaVuSans-30" x="63.623047"/>
       <use xlink:href="#DejaVuSans-32" x="127.246094"/>
       <use xlink:href="#DejaVuSans-33" x="190.869141"/>
       <use xlink:href="#DejaVuSans-2d" x="254.492188"/>
       <use xlink:href="#DejaVuSans-30" x="290.576172"/>
       <use xlink:href="#DejaVuSans-31" x="354.199219"/>
       <use xlink:href="#DejaVuSans-2d" x="417.822266"/>
       <use xlink:href="#DejaVuSans-30" x="453.90625"/>
       <use xlink:href="#DejaVuSans-31" x="517.529297"/>
      </g>
     </g>
    </g>
    <g id="xtick_2">
     <g id="line2d_2">
      <g>
       <use xlink:href="#m9d97d760bb" x="306.763636" y="512.64" style="stroke: #000000; stroke-width: 0.8"/>
      </g>
     </g>
     <g id="text_2">
      <!-- 2023-01-15 -->
      <g transform="translate(277.705824 527.238438)scale(0.1 -0.1)">
       <defs>
        <path id="DejaVuSans-35" d="M 691 4666 
L 3169 4666 
L 3169 4134 
L 1269 4134 
L 1269 2991 
Q 1406 3038 1543 3061 
Q 1681 3084 1819 3084 
Q 2600 3084 3056 2656 
Q 3513 2228 3513 1497 
Q 3513 744 3044 326 
Q 2575 -91 1722 -91 
Q 1428 -91 1123 -41 
Q 819 9 494 109 
L 494 744 
Q 775 591 1075 516 
Q 1375 441 1709 441 
Q 2250 441 2565 725 
Q 2881 1009 2881 1497 
Q 2881 1984 2565 2268 
Q 2250 2553 1709 2553 
Q 1456 2553 1204 2497 
Q 953 2441 691 2322 
L 691 4666 
z
" transform="scale(0.015625)"/>
       </defs>
       <use xlink:href="#DejaVuSans-32"/>
       <use xlink:href="#DejaVuSans-30" x="63.623047"/>
       <use xlink:href="#DejaVuSans-32" x="127.246094"/>
       <use xlink:href="#DejaVuSans-33" x="190.869141"/>
       <use xlink:href="#DejaVuSans-2d" x="254.492188"/>
       <use xlink:href="#DejaVuSans-30" x="290.576172"/>
       <use xlink:href="#DejaVuSans-31" x="354.199219"/>
       <use xlink:href="#DejaVuSans-2d" x="417.822266"/>
       <use xlink:href="#DejaVuSans-31" x="453.90625"/>
       <use xlink:href="#DejaVuSans-35" x="517.529297"/>
      </g>
     </g>
    </g>
    <g id="xtick_3">
     <g id="line2d_3">
      <g>
       <use xlink:href="#m9d97d760bb" x="455.127273" y="512.64" style="stroke: #000000; stroke-width: 0.8"/>
      </g>
     </g>
     <g id="text_3">
      <!-- 2023-02-01 -->
      <g transform="translate(426.06946 527.238438)scale(0.1 -0.1)">
       <use xlink:href="#DejaVuSans-32"/>
       <use xlink:href="#DejaVuSans-30" x="63.623047"/>
       <use xlink:href="#DejaVuSans-32" x="127.246094"/>
       <use xlink:href="#DejaVuSans-33" x="190.869141"/>
       <use xlink:href="#DejaVuSans-2d" x="254.492188"/>
       <use xlink:href="#DejaVuSans-30" x="290.576172"/>
       <use xlink:href="#DejaVuSans-32" x="354.199219"/>
       <use xlink:href="#DejaVuSans-2d" x="417.822266"/>
       <use xlink:href="#DejaVuSans-30" x="453.90625"/>
       <use xlink:href="#DejaVuSans-31" x="517.529297"/>
      </g>
     </g>
    </g>
    <g id="xtick_4">
     <g id="line2d_4">
      <g>
       <use xlink:href="#m9d97d760bb" x="577.309091" y="512.64" style="stroke: #000000; stroke-width: 0.8"/>
      </g>
     </g>
     <g id="text_4">
      <!-- 2023-02-15 -->
      <g transform="translate(548.251278 527.238438)scale(0.1 -0.1)">
       <use xlink:href="#DejaVuSans-32"/>
       <use xlink:href="#DejaVuSans-30" x="63.623047"/>
       <use xlink:href="#DejaVuSans-32" x="127.246094"/>
       <use xlink:href="#DejaVuSans-33" x="190.869141"/>
       <use xlink:href="#DejaVuSans-2d" x="254.492188"/>
       <use xlink:href="#DejaVuSans-30" x="290.576172"/>
       <use xlink:href="#DejaVuSans-32" x="354.199219"/>
       <use xlink:href="#DejaVuSans-2d" x="417.822266"/>
       <use xlink:href="#DejaVuSans-31" x="453.90625"/>
       <use xlink:href="#DejaVuSans-35" x="517.529297"/>
      </g>
     </g>
    </g>
    <g id="xtick_5">
     <g id="line2d_5">
      <g>
       <use xlink:href="#m9d97d760bb" x="699.490909" y="512.64" style="stroke: #000000; stroke-width: 0.8"/>
      </g>
     </g>
     <g id="text_5">
      <!-- 2023-03-01 -->
      <g transform="translate(670.433097 527.238438)scale(0.1 -0.1)">
       <use xlink:href="#DejaVuSans-32"/>
       <use xlink:href="#DejaVuSans-30" x="63.623047"/>
       <use xlink:href="#DejaVuSans-32" x="127.246094"/>
       <use xlink:href="#DejaVuSans-33" x="190.869141"/>
       <use xlink:href="#DejaVuSans-2d" x="254.492188"/>
       <use xlink:href="#DejaVuSans-30" x="290.576172"/>
       <use xlink:href="#DejaVuSans-33" x="354.199219"/>
       <use xlink:href="#DejaVuSans-2d" x="417.822266"/>
       <use xlink:href="#DejaVuSans-30" x="453.90625"/>
       <use xlink:href="#DejaVuSans-31" x="517.529297"/>
      </g>
     </g>
    </g>
    <g id="xtick_6">
     <g id="line2d_6">
      <g>
       <use xlink:href="#m9d97d760bb" x="821.672727" y="512.64" style="stroke: #000000; stroke-width: 0.8"/>
      </g>
     </g>
     <g id="text_6">
      <!-- 2023-03-15 -->
      <g transform="translate(792.614915 527.238438)scale(0.1 -0.1)">
       <use xlink:href="#DejaVuSans-32"/>
       <use xlink:href="#DejaVuSans-30" x="63.623047"/>
       <use xlink:href="#DejaVuSans-32" x="127.246094"/>
       <use xlink:href="#DejaVuSans-33" x="190.869141"/>
       <use xlink:href="#DejaVuSans-2d" x="254.492188"/>
       <use xlink:href="#DejaVuSans-30" x="290.576172"/>
       <use xlink:href="#DejaVuSans-33" x="354.199219"/>
       <use xlink:href="#DejaVuSans-2d" x="417.822266"/>
       <use xlink:href="#DejaVuSans-31" x="453.90625"/>
       <use xlink:href="#DejaVuSans-35" x="517.529297"/>
      </g>
     </g>
    </g>
    <g id="xtick_7">
     <g id="line2d_7">
      <g>
       <use xlink:href="#m9d97d760bb" x="970.036364" y="512.64" style="stroke: #000000; stroke-width: 0.8"/>
      </g>
     </g>
     <g id="text_7">
      <!-- 2023-04-01 -->
      <g transform="translate(940.978551 527.238438)scale(0.1 -0.1)">
       <defs>
        <path id="DejaVuSans-34" d="M 2419 4116 
L 825 1625 
L 2419 1625 
L 2419 4116 
z
M 2253 4666 
L 3047 4666 
L 3047 1625 
L 3713 1625 
L 3713 1100 
L 3047 1100 
L 3047 0 
L 2419 0 
L 2419 1100 
L 313 1100 
L 313 1709 
L 2253 4666 
z
" transform="scale(0.015625)"/>
       </defs>
       <use xlink:href="#DejaVuSans-32"/>
       <use xlink:href="#DejaVuSans-30" x="63.623047"/>
       <use xlink:href="#DejaVuSans-32" x="127.246094"/>
       <use xlink:href="#DejaVuSans-33" x="190.869141"/>
       <use xlink:href="#DejaVuSans-2d" x="254.492188"/>
       <use xlink:href="#DejaVuSans-30" x="290.576172"/>
       <use xlink:href="#DejaVuSans-34" x="354.199219"/>
       <use xlink:href="#DejaVuSans-2d" x="417.822266"/>
       <use xlink:href="#DejaVuSans-30" x="453.90625"/>
       <use xlink:href="#DejaVuSans-31" x="517.529297"/>
      </g>
     </g>
    </g>
   </g>
   <g id="matplotlib.axis_2">
    <g id="ytick_1">
     <g id="line2d_8">
      <defs>
       <path id="me14b8e38c3" d="M 0 0 
L -3.5 0 
" style="stroke: #000000; stroke-width: 0.8"/>
      </defs>
      <g>
       <use xlink:href="#me14b8e38c3" x="144" y="511.053512" style="stroke: #000000; stroke-width: 0.8"/>
      </g>
     </g>
     <g id="text_8">
      <!-- 4200 -->
      <g transform="translate(111.55 514.852731)scale(0.1 -0.1)">
       <use xlink:href="#DejaVuSans-34"/>
       <use xlink:href="#DejaVuSans-32" x="63.623047"/>
       <use xlink:href="#DejaVuSans-30" x="127.246094"/>
       <use xlink:href="#DejaVuSans-30" x="190.869141"/>
      </g>
     </g>
    </g>
    <g id="ytick_2">
     <g id="line2d_9">
      <g>
       <use xlink:href="#me14b8e38c3" x="144" y="433.663877" style="stroke: #000000; stroke-width: 0.8"/>
      </g>
     </g>
     <g id="text_9">
      <!-- 4400 -->
      <g transform="translate(111.55 437.463096)scale(0.1 -0.1)">
       <use xlink:href="#DejaVuSans-34"/>
       <use xlink:href="#DejaVuSans-34" x="63.623047"/>
       <use xlink:href="#DejaVuSans-30" x="127.246094"/>
       <use xlink:href="#DejaVuSans-30" x="190.869141"/>
      </g>
     </g>
    </g>
    <g id="ytick_3">
     <g id="line2d_10">
      <g>
       <use xlink:href="#me14b8e38c3" x="144" y="356.274242" style="stroke: #000000; stroke-width: 0.8"/>
      </g>
     </g>
     <g id="text_10">
      <!-- 4600 -->
      <g transform="translate(111.55 360.073461)scale(0.1 -0.1)">
       <defs>
        <path id="DejaVuSans-36" d="M 2113 2584 
Q 1688 2584 1439 2293 
Q 1191 2003 1191 1497 
Q 1191 994 1439 701 
Q 1688 409 2113 409 
Q 2538 409 2786 701 
Q 3034 994 3034 1497 
Q 3034 2003 2786 2293 
Q 2538 2584 2113 2584 
z
M 3366 4563 
L 3366 3988 
Q 3128 4100 2886 4159 
Q 2644 4219 2406 4219 
Q 1781 4219 1451 3797 
Q 1122 3375 1075 2522 
Q 1259 2794 1537 2939 
Q 1816 3084 2150 3084 
Q 2853 3084 3261 2657 
Q 3669 2231 3669 1497 
Q 3669 778 3244 343 
Q 2819 -91 2113 -91 
Q 1303 -91 875 529 
Q 447 1150 447 2328 
Q 447 3434 972 4092 
Q 1497 4750 2381 4750 
Q 2619 4750 2861 4703 
Q 3103 4656 3366 4563 
z
" transform="scale(0.015625)"/>
       </defs>
       <use xlink:href="#DejaVuSans-34"/>
       <use xlink:href="#DejaVuSans-36" x="63.623047"/>
       <use xlink:href="#DejaVuSans-30" x="127.246094"/>
       <use xlink:href="#DejaVuSans-30" x="190.869141"/>
      </g>
     </g>
    </g>
    <g id="ytick_4">
     <g id="line2d_11">
      <g>
       <use xlink:href="#me14b8e38c3" x="144" y="278.884607" style="stroke: #000000; stroke-width: 0.8"/>
      </g>
     </g>
     <g id="text_11">
      <!-- 4800 -->
      <g transform="translate(111.55 282.683825)scale(0.1 -0.1)">
       <defs>
        <path id="DejaVuSans-38" d="M 2034 2216 
Q 1584 2216 1326 1975 
Q 1069 1734 1069 1313 
Q 1069 891 1326 650 
Q 1584 409 2034 409 
Q 2484 409 2743 651 
Q 3003 894 3003 1313 
Q 3003 1734 2745 1975 
Q 2488 2216 2034 2216 
z
M 1403 2484 
Q 997 2584 770 2862 
Q 544 3141 544 3541 
Q 544 4100 942 4425 
Q 1341 4750 2034 4750 
Q 2731 4750 3128 4425 
Q 3525 4100 3525 3541 
Q 3525 3141 3298 2862 
Q 3072 2584 2669 2484 
Q 3125 2378 3379 2068 
Q 3634 1759 3634 1313 
Q 3634 634 3220 271 
Q 2806 -91 2034 -91 
Q 1263 -91 848 271 
Q 434 634 434 1313 
Q 434 1759 690 2068 
Q 947 2378 1403 2484 
z
M 1172 3481 
Q 1172 3119 1398 2916 
Q 1625 2713 2034 2713 
Q 2441 2713 2670 2916 
Q 2900 3119 2900 3481 
Q 2900 3844 2670 4047 
Q 2441 4250 2034 4250 
Q 1625 4250 1398 4047 
Q 1172 3844 1172 3481 
z
" transform="scale(0.015625)"/>
       </defs>
       <use xlink:href="#DejaVuSans-34"/>
       <use xlink:href="#DejaVuSans-38" x="63.623047"/>
       <use xlink:href="#DejaVuSans-30" x="127.246094"/>
       <use xlink:href="#DejaVuSans-30" x="190.869141"/>
      </g>
     </g>
    </g>
    <g id="ytick_5">
     <g id="line2d_12">
      <g>
       <use xlink:href="#me14b8e38c3" x="144" y="201.494971" style="stroke: #000000; stroke-width: 0.8"/>
      </g>
     </g>
     <g id="text_12">
      <!-- 5000 -->
      <g transform="translate(111.55 205.29419)scale(0.1 -0.1)">
       <use xlink:href="#DejaVuSans-35"/>
       <use xlink:href="#DejaVuSans-30" x="63.623047"/>
       <use xlink:href="#DejaVuSans-30" x="127.246094"/>
       <use xlink:href="#DejaVuSans-30" x="190.869141"/>
      </g>
     </g>
    </g>
    <g id="ytick_6">
     <g id="line2d_13">
      <g>
       <use xlink:href="#me14b8e38c3" x="144" y="124.105336" style="stroke: #000000; stroke-width: 0.8"/>
      </g>
     </g>
     <g id="text_13">
      <!-- 5200 -->
      <g transform="translate(111.55 127.904555)scale(0.1 -0.1)">
       <use xlink:href="#DejaVuSans-35"/>
       <use xlink:href="#DejaVuSans-32" x="63.623047"/>
       <use xlink:href="#DejaVuSans-30" x="127.246094"/>
       <use xlink:href="#DejaVuSans-30" x="190.869141"/>
      </g>
     </g>
    </g>
   </g>
   <g id="line2d_14">
    <path d="M 184.581818 492.48 
L 193.309091 489.384415 
L 202.036364 480.097658 
L 210.763636 469.263109 
L 219.490909 460.363301 
L 228.218182 454.172131 
L 236.945455 448.754856 
L 245.672727 442.563685 
L 254.4 440.241996 
L 263.127273 436.759463 
L 271.854545 430.568292 
L 280.581818 411.607831 
L 289.309091 406.964453 
L 298.036364 406.577505 
L 306.763636 401.934127 
L 315.490909 396.129904 
L 324.218182 391.486526 
L 332.945455 389.164837 
L 341.672727 381.425873 
L 350.4 379.104184 
L 359.127273 374.460806 
L 367.854545 372.526065 
L 376.581818 360.91762 
L 385.309091 354.726449 
L 394.036364 348.14833 
L 402.763636 343.504952 
L 411.490909 338.861574 
L 420.218182 336.926833 
L 428.945455 334.218196 
L 437.672727 332.283455 
L 446.4 329.961766 
L 455.127273 328.413973 
L 463.854545 325.705336 
L 472.581818 311.001305 
L 481.309091 310.227409 
L 490.036364 308.292668 
L 498.763636 306.357927 
L 507.490909 303.64929 
L 516.218182 299.39286 
L 524.945455 297.071171 
L 533.672727 293.201689 
L 542.4 283.527985 
L 551.127273 283.141036 
L 559.854545 280.819347 
L 568.581818 277.336814 
L 577.309091 275.402073 
L 586.036364 275.015125 
L 594.763636 273.080384 
L 603.490909 268.437006 
L 612.218182 267.276161 
L 620.945455 264.567524 
L 629.672727 259.537198 
L 638.4 251.411286 
L 647.127273 240.963685 
L 655.854545 232.837774 
L 664.581818 222.003225 
L 673.309091 203.81666 
L 682.036364 198.012438 
L 690.763636 195.3038 
L 699.490909 193.36906 
L 708.218182 189.499578 
L 725.672727 186.017044 
L 734.4 185.243148 
L 743.127273 180.59977 
L 751.854545 170.152169 
L 760.581818 163.960998 
L 769.309091 162.800154 
L 778.036364 162.413205 
L 786.763636 160.865413 
L 795.490909 158.543724 
L 804.218182 156.608983 
L 812.945455 155.06119 
L 821.672727 147.322226 
L 830.4 143.065797 
L 839.127273 140.744107 
L 847.854545 136.487678 
L 856.581818 129.135662 
L 865.309091 124.492284 
L 874.036364 120.235854 
L 882.763636 117.914165 
L 891.490909 115.979424 
L 900.218182 115.205528 
L 908.945455 114.81858 
L 917.672727 114.431631 
L 926.4 110.56215 
L 935.127273 110.175202 
L 943.854545 109.401305 
L 952.581818 96.245067 
L 961.309091 93.53643 
L 970.036364 92.375585 
L 978.763636 91.601689 
L 987.490909 90.053896 
L 996.218182 89.28 
" clip-path="url(#p2ca6e08801)" style="fill: none; stroke: #1f77b4; stroke-width: 1.5; stroke-linecap: square"/>
   </g>
   <g id="patch_3">
    <path d="M 144 512.64 
L 144 69.12 
" style="fill: none; stroke: #000000; stroke-width: 0.8; stroke-linejoin: miter; stroke-linecap: square"/>
   </g>
   <g id="patch_4">
    <path d="M 1036.8 512.64 
L 1036.8 69.12 
" style="fill: none; stroke: #000000; stroke-width: 0.8; stroke-linejoin: miter; stroke-linecap: square"/>
   </g>
   <g id="patch_5">
    <path d="M 144 512.64 
L 1036.8 512.64 
" style="fill: none; stroke: #000000; stroke-width: 0.8; stroke-linejoin: miter; stroke-linecap: square"/>
   </g>
   <g id="patch_6">
    <path d="M 144 69.12 
L 1036.8 69.12 
" style="fill: none; stroke: #000000; stroke-width: 0.8; stroke-linejoin: miter; stroke-linecap: square"/>
   </g>
   <g id="text_14">
    <!-- Number of AEDs in the OpenStreetMap database in Poland from 2023-01-01, day by day. As at: 2023-04-04 -->
    <g transform="translate(144 63.12)scale(0.14 -0.14)">
     <defs>
      <path id="DejaVuSans-4e" d="M 628 4666 
L 1478 4666 
L 3547 763 
L 3547 4666 
L 4159 4666 
L 4159 0 
L 3309 0 
L 1241 3903 
L 1241 0 
L 628 0 
L 628 4666 
z
" transform="scale(0.015625)"/>
      <path id="DejaVuSans-75" d="M 544 1381 
L 544 3500 
L 1119 3500 
L 1119 1403 
Q 1119 906 1312 657 
Q 1506 409 1894 409 
Q 2359 409 2629 706 
Q 2900 1003 2900 1516 
L 2900 3500 
L 3475 3500 
L 3475 0 
L 2900 0 
L 2900 538 
Q 2691 219 2414 64 
Q 2138 -91 1772 -91 
Q 1169 -91 856 284 
Q 544 659 544 1381 
z
M 1991 3584 
L 1991 3584 
z
" transform="scale(0.015625)"/>
      <path id="DejaVuSans-6d" d="M 3328 2828 
Q 3544 3216 3844 3400 
Q 4144 3584 4550 3584 
Q 5097 3584 5394 3201 
Q 5691 2819 5691 2113 
L 5691 0 
L 5113 0 
L 5113 2094 
Q 5113 2597 4934 2840 
Q 4756 3084 4391 3084 
Q 3944 3084 3684 2787 
Q 3425 2491 3425 1978 
L 3425 0 
L 2847 0 
L 2847 2094 
Q 2847 2600 2669 2842 
Q 2491 3084 2119 3084 
Q 1678 3084 1418 2786 
Q 1159 2488 1159 1978 
L 1159 0 
L 581 0 
L 581 3500 
L 1159 3500 
L 1159 2956 
Q 1356 3278 1631 3431 
Q 1906 3584 2284 3584 
Q 2666 3584 2933 3390 
Q 3200 3197 3328 2828 
z
" transform="scale(0.015625)"/>
      <path id="DejaVuSans-62" d="M 3116 1747 
Q 3116 2381 2855 2742 
Q 2594 3103 2138 3103 
Q 1681 3103 1420 2742 
Q 1159 2381 1159 1747 
Q 1159 1113 1420 752 
Q 1681 391 2138 391 
Q 2594 391 2855 752 
Q 3116 1113 3116 1747 
z
M 1159 2969 
Q 1341 3281 1617 3432 
Q 1894 3584 2278 3584 
Q 2916 3584 3314 3078 
Q 3713 2572 3713 1747 
Q 3713 922 3314 415 
Q 2916 -91 2278 -91 
Q 1894 -91 1617 61 
Q 1341 213 1159 525 
L 1159 0 
L 581 0 
L 581 4863 
L 1159 4863 
L 1159 2969 
z
" transform="scale(0.015625)"/>
      <path id="DejaVuSans-65" d="M 3597 1894 
L 3597 1613 
L 953 1613 
Q 991 1019 1311 708 
Q 1631 397 2203 397 
Q 2534 397 2845 478 
Q 3156 559 3463 722 
L 3463 178 
Q 3153 47 2828 -22 
Q 2503 -91 2169 -91 
Q 1331 -91 842 396 
Q 353 884 353 1716 
Q 353 2575 817 3079 
Q 1281 3584 2069 3584 
Q 2775 3584 3186 3129 
Q 3597 2675 3597 1894 
z
M 3022 2063 
Q 3016 2534 2758 2815 
Q 2500 3097 2075 3097 
Q 1594 3097 1305 2825 
Q 1016 2553 972 2059 
L 3022 2063 
z
" transform="scale(0.015625)"/>
      <path id="DejaVuSans-72" d="M 2631 2963 
Q 2534 3019 2420 3045 
Q 2306 3072 2169 3072 
Q 1681 3072 1420 2755 
Q 1159 2438 1159 1844 
L 1159 0 
L 581 0 
L 581 3500 
L 1159 3500 
L 1159 2956 
Q 1341 3275 1631 3429 
Q 1922 3584 2338 3584 
Q 2397 3584 2469 3576 
Q 2541 3569 2628 3553 
L 2631 2963 
z
" transform="scale(0.015625)"/>
      <path id="DejaVuSans-20" transform="scale(0.015625)"/>
      <path id="DejaVuSans-6f" d="M 1959 3097 
Q 1497 3097 1228 2736 
Q 959 2375 959 1747 
Q 959 1119 1226 758 
Q 1494 397 1959 397 
Q 2419 397 2687 759 
Q 2956 1122 2956 1747 
Q 2956 2369 2687 2733 
Q 2419 3097 1959 3097 
z
M 1959 3584 
Q 2709 3584 3137 3096 
Q 3566 2609 3566 1747 
Q 3566 888 3137 398 
Q 2709 -91 1959 -91 
Q 1206 -91 779 398 
Q 353 888 353 1747 
Q 353 2609 779 3096 
Q 1206 3584 1959 3584 
z
" transform="scale(0.015625)"/>
      <path id="DejaVuSans-66" d="M 2375 4863 
L 2375 4384 
L 1825 4384 
Q 1516 4384 1395 4259 
Q 1275 4134 1275 3809 
L 1275 3500 
L 2222 3500 
L 2222 3053 
L 1275 3053 
L 1275 0 
L 697 0 
L 697 3053 
L 147 3053 
L 147 3500 
L 697 3500 
L 697 3744 
Q 697 4328 969 4595 
Q 1241 4863 1831 4863 
L 2375 4863 
z
" transform="scale(0.015625)"/>
      <path id="DejaVuSans-41" d="M 2188 4044 
L 1331 1722 
L 3047 1722 
L 2188 4044 
z
M 1831 4666 
L 2547 4666 
L 4325 0 
L 3669 0 
L 3244 1197 
L 1141 1197 
L 716 0 
L 50 0 
L 1831 4666 
z
" transform="scale(0.015625)"/>
      <path id="DejaVuSans-45" d="M 628 4666 
L 3578 4666 
L 3578 4134 
L 1259 4134 
L 1259 2753 
L 3481 2753 
L 3481 2222 
L 1259 2222 
L 1259 531 
L 3634 531 
L 3634 0 
L 628 0 
L 628 4666 
z
" transform="scale(0.015625)"/>
      <path id="DejaVuSans-44" d="M 1259 4147 
L 1259 519 
L 2022 519 
Q 2988 519 3436 956 
Q 3884 1394 3884 2338 
Q 3884 3275 3436 3711 
Q 2988 4147 2022 4147 
L 1259 4147 
z
M 628 4666 
L 1925 4666 
Q 3281 4666 3915 4102 
Q 4550 3538 4550 2338 
Q 4550 1131 3912 565 
Q 3275 0 1925 0 
L 628 0 
L 628 4666 
z
" transform="scale(0.015625)"/>
      <path id="DejaVuSans-73" d="M 2834 3397 
L 2834 2853 
Q 2591 2978 2328 3040 
Q 2066 3103 1784 3103 
Q 1356 3103 1142 2972 
Q 928 2841 928 2578 
Q 928 2378 1081 2264 
Q 1234 2150 1697 2047 
L 1894 2003 
Q 2506 1872 2764 1633 
Q 3022 1394 3022 966 
Q 3022 478 2636 193 
Q 2250 -91 1575 -91 
Q 1294 -91 989 -36 
Q 684 19 347 128 
L 347 722 
Q 666 556 975 473 
Q 1284 391 1588 391 
Q 1994 391 2212 530 
Q 2431 669 2431 922 
Q 2431 1156 2273 1281 
Q 2116 1406 1581 1522 
L 1381 1569 
Q 847 1681 609 1914 
Q 372 2147 372 2553 
Q 372 3047 722 3315 
Q 1072 3584 1716 3584 
Q 2034 3584 2315 3537 
Q 2597 3491 2834 3397 
z
" transform="scale(0.015625)"/>
      <path id="DejaVuSans-69" d="M 603 3500 
L 1178 3500 
L 1178 0 
L 603 0 
L 603 3500 
z
M 603 4863 
L 1178 4863 
L 1178 4134 
L 603 4134 
L 603 4863 
z
" transform="scale(0.015625)"/>
      <path id="DejaVuSans-6e" d="M 3513 2113 
L 3513 0 
L 2938 0 
L 2938 2094 
Q 2938 2591 2744 2837 
Q 2550 3084 2163 3084 
Q 1697 3084 1428 2787 
Q 1159 2491 1159 1978 
L 1159 0 
L 581 0 
L 581 3500 
L 1159 3500 
L 1159 2956 
Q 1366 3272 1645 3428 
Q 1925 3584 2291 3584 
Q 2894 3584 3203 3211 
Q 3513 2838 3513 2113 
z
" transform="scale(0.015625)"/>
      <path id="DejaVuSans-74" d="M 1172 4494 
L 1172 3500 
L 2356 3500 
L 2356 3053 
L 1172 3053 
L 1172 1153 
Q 1172 725 1289 603 
Q 1406 481 1766 481 
L 2356 481 
L 2356 0 
L 1766 0 
Q 1100 0 847 248 
Q 594 497 594 1153 
L 594 3053 
L 172 3053 
L 172 3500 
L 594 3500 
L 594 4494 
L 1172 4494 
z
" transform="scale(0.015625)"/>
      <path id="DejaVuSans-68" d="M 3513 2113 
L 3513 0 
L 2938 0 
L 2938 2094 
Q 2938 2591 2744 2837 
Q 2550 3084 2163 3084 
Q 1697 3084 1428 2787 
Q 1159 2491 1159 1978 
L 1159 0 
L 581 0 
L 581 4863 
L 1159 4863 
L 1159 2956 
Q 1366 3272 1645 3428 
Q 1925 3584 2291 3584 
Q 2894 3584 3203 3211 
Q 3513 2838 3513 2113 
z
" transform="scale(0.015625)"/>
      <path id="DejaVuSans-4f" d="M 2522 4238 
Q 1834 4238 1429 3725 
Q 1025 3213 1025 2328 
Q 1025 1447 1429 934 
Q 1834 422 2522 422 
Q 3209 422 3611 934 
Q 4013 1447 4013 2328 
Q 4013 3213 3611 3725 
Q 3209 4238 2522 4238 
z
M 2522 4750 
Q 3503 4750 4090 4092 
Q 4678 3434 4678 2328 
Q 4678 1225 4090 567 
Q 3503 -91 2522 -91 
Q 1538 -91 948 565 
Q 359 1222 359 2328 
Q 359 3434 948 4092 
Q 1538 4750 2522 4750 
z
" transform="scale(0.015625)"/>
      <path id="DejaVuSans-70" d="M 1159 525 
L 1159 -1331 
L 581 -1331 
L 581 3500 
L 1159 3500 
L 1159 2969 
Q 1341 3281 1617 3432 
Q 1894 3584 2278 3584 
Q 2916 3584 3314 3078 
Q 3713 2572 3713 1747 
Q 3713 922 3314 415 
Q 2916 -91 2278 -91 
Q 1894 -91 1617 61 
Q 1341 213 1159 525 
z
M 3116 1747 
Q 3116 2381 2855 2742 
Q 2594 3103 2138 3103 
Q 1681 3103 1420 2742 
Q 1159 2381 1159 1747 
Q 1159 1113 1420 752 
Q 1681 391 2138 391 
Q 2594 391 2855 752 
Q 3116 1113 3116 1747 
z
" transform="scale(0.015625)"/>
      <path id="DejaVuSans-53" d="M 3425 4513 
L 3425 3897 
Q 3066 4069 2747 4153 
Q 2428 4238 2131 4238 
Q 1616 4238 1336 4038 
Q 1056 3838 1056 3469 
Q 1056 3159 1242 3001 
Q 1428 2844 1947 2747 
L 2328 2669 
Q 3034 2534 3370 2195 
Q 3706 1856 3706 1288 
Q 3706 609 3251 259 
Q 2797 -91 1919 -91 
Q 1588 -91 1214 -16 
Q 841 59 441 206 
L 441 856 
Q 825 641 1194 531 
Q 1563 422 1919 422 
Q 2459 422 2753 634 
Q 3047 847 3047 1241 
Q 3047 1584 2836 1778 
Q 2625 1972 2144 2069 
L 1759 2144 
Q 1053 2284 737 2584 
Q 422 2884 422 3419 
Q 422 4038 858 4394 
Q 1294 4750 2059 4750 
Q 2388 4750 2728 4690 
Q 3069 4631 3425 4513 
z
" transform="scale(0.015625)"/>
      <path id="DejaVuSans-4d" d="M 628 4666 
L 1569 4666 
L 2759 1491 
L 3956 4666 
L 4897 4666 
L 4897 0 
L 4281 0 
L 4281 4097 
L 3078 897 
L 2444 897 
L 1241 4097 
L 1241 0 
L 628 0 
L 628 4666 
z
" transform="scale(0.015625)"/>
      <path id="DejaVuSans-61" d="M 2194 1759 
Q 1497 1759 1228 1600 
Q 959 1441 959 1056 
Q 959 750 1161 570 
Q 1363 391 1709 391 
Q 2188 391 2477 730 
Q 2766 1069 2766 1631 
L 2766 1759 
L 2194 1759 
z
M 3341 1997 
L 3341 0 
L 2766 0 
L 2766 531 
Q 2569 213 2275 61 
Q 1981 -91 1556 -91 
Q 1019 -91 701 211 
Q 384 513 384 1019 
Q 384 1609 779 1909 
Q 1175 2209 1959 2209 
L 2766 2209 
L 2766 2266 
Q 2766 2663 2505 2880 
Q 2244 3097 1772 3097 
Q 1472 3097 1187 3025 
Q 903 2953 641 2809 
L 641 3341 
Q 956 3463 1253 3523 
Q 1550 3584 1831 3584 
Q 2591 3584 2966 3190 
Q 3341 2797 3341 1997 
z
" transform="scale(0.015625)"/>
      <path id="DejaVuSans-64" d="M 2906 2969 
L 2906 4863 
L 3481 4863 
L 3481 0 
L 2906 0 
L 2906 525 
Q 2725 213 2448 61 
Q 2172 -91 1784 -91 
Q 1150 -91 751 415 
Q 353 922 353 1747 
Q 353 2572 751 3078 
Q 1150 3584 1784 3584 
Q 2172 3584 2448 3432 
Q 2725 3281 2906 2969 
z
M 947 1747 
Q 947 1113 1208 752 
Q 1469 391 1925 391 
Q 2381 391 2643 752 
Q 2906 1113 2906 1747 
Q 2906 2381 2643 2742 
Q 2381 3103 1925 3103 
Q 1469 3103 1208 2742 
Q 947 2381 947 1747 
z
" transform="scale(0.015625)"/>
      <path id="DejaVuSans-50" d="M 1259 4147 
L 1259 2394 
L 2053 2394 
Q 2494 2394 2734 2622 
Q 2975 2850 2975 3272 
Q 2975 3691 2734 3919 
Q 2494 4147 2053 4147 
L 1259 4147 
z
M 628 4666 
L 2053 4666 
Q 2838 4666 3239 4311 
Q 3641 3956 3641 3272 
Q 3641 2581 3239 2228 
Q 2838 1875 2053 1875 
L 1259 1875 
L 1259 0 
L 628 0 
L 628 4666 
z
" transform="scale(0.015625)"/>
      <path id="DejaVuSans-6c" d="M 603 4863 
L 1178 4863 
L 1178 0 
L 603 0 
L 603 4863 
z
" transform="scale(0.015625)"/>
      <path id="DejaVuSans-2c" d="M 750 794 
L 1409 794 
L 1409 256 
L 897 -744 
L 494 -744 
L 750 256 
L 750 794 
z
" transform="scale(0.015625)"/>
      <path id="DejaVuSans-79" d="M 2059 -325 
Q 1816 -950 1584 -1140 
Q 1353 -1331 966 -1331 
L 506 -1331 
L 506 -850 
L 844 -850 
Q 1081 -850 1212 -737 
Q 1344 -625 1503 -206 
L 1606 56 
L 191 3500 
L 800 3500 
L 1894 763 
L 2988 3500 
L 3597 3500 
L 2059 -325 
z
" transform="scale(0.015625)"/>
      <path id="DejaVuSans-2e" d="M 684 794 
L 1344 794 
L 1344 0 
L 684 0 
L 684 794 
z
" transform="scale(0.015625)"/>
      <path id="DejaVuSans-3a" d="M 750 794 
L 1409 794 
L 1409 0 
L 750 0 
L 750 794 
z
M 750 3309 
L 1409 3309 
L 1409 2516 
L 750 2516 
L 750 3309 
z
" transform="scale(0.015625)"/>
     </defs>
     <use xlink:href="#DejaVuSans-4e"/>
     <use xlink:href="#DejaVuSans-75" x="74.804688"/>
     <use xlink:href="#DejaVuSans-6d" x="138.183594"/>
     <use xlink:href="#DejaVuSans-62" x="235.595703"/>
     <use xlink:href="#DejaVuSans-65" x="299.072266"/>
     <use xlink:href="#DejaVuSans-72" x="360.595703"/>
     <use xlink:href="#DejaVuSans-20" x="401.708984"/>
     <use xlink:href="#DejaVuSans-6f" x="433.496094"/>
     <use xlink:href="#DejaVuSans-66" x="494.677734"/>
     <use xlink:href="#DejaVuSans-20" x="529.882812"/>
     <use xlink:href="#DejaVuSans-41" x="561.669922"/>
     <use xlink:href="#DejaVuSans-45" x="630.078125"/>
     <use xlink:href="#DejaVuSans-44" x="693.261719"/>
     <use xlink:href="#DejaVuSans-73" x="770.263672"/>
     <use xlink:href="#DejaVuSans-20" x="822.363281"/>
     <use xlink:href="#DejaVuSans-69" x="854.150391"/>
     <use xlink:href="#DejaVuSans-6e" x="881.933594"/>
     <use xlink:href="#DejaVuSans-20" x="945.3125"/>
     <use xlink:href="#DejaVuSans-74" x="977.099609"/>
     <use xlink:href="#DejaVuSans-68" x="1016.308594"/>
     <use xlink:href="#DejaVuSans-65" x="1079.6875"/>
     <use xlink:href="#DejaVuSans-20" x="1141.210938"/>
     <use xlink:href="#DejaVuSans-4f" x="1172.998047"/>
     <use xlink:href="#DejaVuSans-70" x="1251.708984"/>
     <use xlink:href="#DejaVuSans-65" x="1315.185547"/>
     <use xlink:href="#DejaVuSans-6e" x="1376.708984"/>
     <use xlink:href="#DejaVuSans-53" x="1440.087891"/>
     <use xlink:href="#DejaVuSans-74" x="1503.564453"/>
     <use xlink:href="#DejaVuSans-72" x="1542.773438"/>
     <use xlink:href="#DejaVuSans-65" x="1581.636719"/>
     <use xlink:href="#DejaVuSans-65" x="1643.160156"/>
     <use xlink:href="#DejaVuSans-74" x="1704.683594"/>
     <use xlink:href="#DejaVuSans-4d" x="1743.892578"/>
     <use xlink:href="#DejaVuSans-61" x="1830.171875"/>
     <use xlink:href="#DejaVuSans-70" x="1891.451172"/>
     <use xlink:href="#DejaVuSans-20" x="1954.927734"/>
     <use xlink:href="#DejaVuSans-64" x="1986.714844"/>
     <use xlink:href="#DejaVuSans-61" x="2050.191406"/>
     <use xlink:href="#DejaVuSans-74" x="2111.470703"/>
     <use xlink:href="#DejaVuSans-61" x="2150.679688"/>
     <use xlink:href="#DejaVuSans-62" x="2211.958984"/>
     <use xlink:href="#DejaVuSans-61" x="2275.435547"/>
     <use xlink:href="#DejaVuSans-73" x="2336.714844"/>
     <use xlink:href="#DejaVuSans-65" x="2388.814453"/>
     <use xlink:href="#DejaVuSans-20" x="2450.337891"/>
     <use xlink:href="#DejaVuSans-69" x="2482.125"/>
     <use xlink:href="#DejaVuSans-6e" x="2509.908203"/>
     <use xlink:href="#DejaVuSans-20" x="2573.287109"/>
     <use xlink:href="#DejaVuSans-50" x="2605.074219"/>
     <use xlink:href="#DejaVuSans-6f" x="2661.751953"/>
     <use xlink:href="#DejaVuSans-6c" x="2722.933594"/>
     <use xlink:href="#DejaVuSans-61" x="2750.716797"/>
     <use xlink:href="#DejaVuSans-6e" x="2811.996094"/>
     <use xlink:href="#DejaVuSans-64" x="2875.375"/>
     <use xlink:href="#DejaVuSans-20" x="2938.851562"/>
     <use xlink:href="#DejaVuSans-66" x="2970.638672"/>
     <use xlink:href="#DejaVuSans-72" x="3005.84375"/>
     <use xlink:href="#DejaVuSans-6f" x="3044.707031"/>
     <use xlink:href="#DejaVuSans-6d" x="3105.888672"/>
     <use xlink:href="#DejaVuSans-20" x="3203.300781"/>
     <use xlink:href="#DejaVuSans-32" x="3235.087891"/>
     <use xlink:href="#DejaVuSans-30" x="3298.710938"/>
     <use xlink:href="#DejaVuSans-32" x="3362.333984"/>
     <use xlink:href="#DejaVuSans-33" x="3425.957031"/>
     <use xlink:href="#DejaVuSans-2d" x="3489.580078"/>
     <use xlink:href="#DejaVuSans-30" x="3525.664062"/>
     <use xlink:href="#DejaVuSans-31" x="3589.287109"/>
     <use xlink:href="#DejaVuSans-2d" x="3652.910156"/>
     <use xlink:href="#DejaVuSans-30" x="3688.994141"/>
     <use xlink:href="#DejaVuSans-31" x="3752.617188"/>
     <use xlink:href="#DejaVuSans-2c" x="3816.240234"/>
     <use xlink:href="#DejaVuSans-20" x="3848.027344"/>
     <use xlink:href="#DejaVuSans-64" x="3879.814453"/>
     <use xlink:href="#DejaVuSans-61" x="3943.291016"/>
     <use xlink:href="#DejaVuSans-79" x="4004.570312"/>
     <use xlink:href="#DejaVuSans-20" x="4063.75"/>
     <use xlink:href="#DejaVuSans-62" x="4095.537109"/>
     <use xlink:href="#DejaVuSans-79" x="4159.013672"/>
     <use xlink:href="#DejaVuSans-20" x="4218.193359"/>
     <use xlink:href="#DejaVuSans-64" x="4249.980469"/>
     <use xlink:href="#DejaVuSans-61" x="4313.457031"/>
     <use xlink:href="#DejaVuSans-79" x="4374.736328"/>
     <use xlink:href="#DejaVuSans-2e" x="4419.666016"/>
     <use xlink:href="#DejaVuSans-20" x="4451.453125"/>
     <use xlink:href="#DejaVuSans-41" x="4483.240234"/>
     <use xlink:href="#DejaVuSans-73" x="4551.648438"/>
     <use xlink:href="#DejaVuSans-20" x="4603.748047"/>
     <use xlink:href="#DejaVuSans-61" x="4635.535156"/>
     <use xlink:href="#DejaVuSans-74" x="4696.814453"/>
     <use xlink:href="#DejaVuSans-3a" x="4736.023438"/>
     <use xlink:href="#DejaVuSans-20" x="4769.714844"/>
     <use xlink:href="#DejaVuSans-32" x="4801.501953"/>
     <use xlink:href="#DejaVuSans-30" x="4865.125"/>
     <use xlink:href="#DejaVuSans-32" x="4928.748047"/>
     <use xlink:href="#DejaVuSans-33" x="4992.371094"/>
     <use xlink:href="#DejaVuSans-2d" x="5055.994141"/>
     <use xlink:href="#DejaVuSans-30" x="5092.078125"/>
     <use xlink:href="#DejaVuSans-34" x="5155.701172"/>
     <use xlink:href="#DejaVuSans-2d" x="5219.324219"/>
     <use xlink:href="#DejaVuSans-30" x="5255.408203"/>
     <use xlink:href="#DejaVuSans-34" x="5319.03125"/>
    </g>
   </g>
  </g>
 </g>
 <defs>
  <clipPath id="p2ca6e08801">
   <rect x="144" y="69.12" width="892.8" height="443.52"/>
  </clipPath>
 </defs>
</svg>
