<?xml version="1.0" encoding="utf-8" standalone="no"?>
<!DOCTYPE svg PUBLIC "-//W3C//DTD SVG 1.1//EN"
  "http://www.w3.org/Graphics/SVG/1.1/DTD/svg11.dtd">
<svg xmlns:xlink="http://www.w3.org/1999/xlink" width="1152pt" height="576pt" viewBox="0 0 1152 576" xmlns="http://www.w3.org/2000/svg" version="1.1">
 <metadata>
  <rdf:RDF xmlns:dc="http://purl.org/dc/elements/1.1/" xmlns:cc="http://creativecommons.org/ns#" xmlns:rdf="http://www.w3.org/1999/02/22-rdf-syntax-ns#">
   <cc:Work>
    <dc:type rdf:resource="http://purl.org/dc/dcmitype/StillImage"/>
    <dc:date>1980-01-01T00:00:00+00:00</dc:date>
    <dc:format>image/svg+xml</dc:format>
    <dc:creator>
     <cc:Agent>
      <dc:title>Matplotlib v3.9.1, https://matplotlib.org/</dc:title>
     </cc:Agent>
    </dc:creator>
   </cc:Work>
  </rdf:RDF>
 </metadata>
 <defs>
  <style type="text/css">*{stroke-linejoin: round; stroke-linecap: butt}</style>
 </defs>
 <g id="figure_1">
  <g id="patch_1">
   <path d="M 0 576 
L 1152 576 
L 1152 0 
L 0 0 
z
" style="fill: #ffffff"/>
  </g>
  <g id="axes_1">
   <g id="patch_2">
    <path d="M 144 512.64 
L 1036.8 512.64 
L 1036.8 69.12 
L 144 69.12 
z
" style="fill: #ffffff"/>
   </g>
   <g id="PathCollection_1">
    <path d="M 184.581818 496.352983 
C 185.608945 496.352983 186.594142 495.944901 187.320431 495.218613 
C 188.04672 494.492324 188.454802 493.507127 188.454802 492.48 
C 188.454802 491.452873 188.04672 490.467676 187.320431 489.741387 
C 186.594142 489.015099 185.608945 488.607017 184.581818 488.607017 
C 183.554691 488.607017 182.569494 489.015099 181.843205 489.741387 
C 181.116917 490.467676 180.708835 491.452873 180.708835 492.48 
C 180.708835 493.507127 181.116917 494.492324 181.843205 495.218613 
C 182.569494 495.944901 183.554691 496.352983 184.581818 496.352983 
z
" clip-path="url(#p3f435f9df0)" style="fill: #1f77b4; fill-opacity: 0.3; stroke: #1f77b4; stroke-opacity: 0.3"/>
    <path d="M 196.695794 494.574154 
C 198.424706 494.574154 200.08304 493.88725 201.305566 492.664724 
C 202.528092 491.442198 203.214996 489.783864 203.214996 488.054952 
C 203.214996 486.326039 202.528092 484.667705 201.305566 483.445179 
C 200.08304 482.222653 198.424706 481.535749 196.695794 481.535749 
C 194.966881 481.535749 193.308547 482.222653 192.086022 483.445179 
C 190.863496 484.667705 190.176591 486.326039 190.176591 488.054952 
C 190.176591 489.783864 190.863496 491.442198 192.086022 492.664724 
C 193.308547 493.88725 194.966881 494.574154 196.695794 494.574154 
z
" clip-path="url(#p3f435f9df0)" style="fill: #1f77b4; fill-opacity: 0.3; stroke: #1f77b4; stroke-opacity: 0.3"/>
    <path d="M 208.809769 489.133237 
C 211.028618 489.133237 213.156886 488.251679 214.725849 486.682716 
C 216.294812 485.113754 217.17637 482.985485 217.17637 480.766637 
C 217.17637 478.547788 216.294812 476.419519 214.725849 474.850557 
C 213.156886 473.281594 211.028618 472.400036 208.809769 472.400036 
C 206.590921 472.400036 204.462652 473.281594 202.89369 474.850557 
C 201.324727 476.419519 200.443169 478.547788 200.443169 480.766637 
C 200.443169 482.985485 201.324727 485.113754 202.89369 486.682716 
C 204.462652 488.251679 206.590921 489.133237 208.809769 489.133237 
z
" clip-path="url(#p3f435f9df0)" style="fill: #1f77b4; fill-opacity: 0.3; stroke: #1f77b4; stroke-opacity: 0.3"/>
    <path d="M 220.923745 483.147414 
C 222.314482 483.147414 223.648445 482.594869 224.631844 481.611469 
C 225.615244 480.62807 226.167789 479.294107 226.167789 477.90337 
C 226.167789 476.512633 225.615244 475.17867 224.631844 474.195271 
C 223.648445 473.211871 222.314482 472.659326 220.923745 472.659326 
C 219.533008 472.659326 218.199045 473.211871 217.215646 474.195271 
C 216.232246 475.17867 215.679701 476.512633 215.679701 477.90337 
C 215.679701 479.294107 216.232246 480.62807 217.215646 481.611469 
C 218.199045 482.594869 219.533008 483.147414 220.923745 483.147414 
z
" clip-path="url(#p3f435f9df0)" style="fill: #1f77b4; fill-opacity: 0.3; stroke: #1f77b4; stroke-opacity: 0.3"/>
    <path d="M 233.03772 480.137419 
C 233.975355 480.137419 234.874713 479.764893 235.53772 479.101885 
C 236.200728 478.438877 236.573254 477.53952 236.573254 476.601885 
C 236.573254 475.664251 236.200728 474.764893 235.53772 474.101885 
C 234.874713 473.438877 233.975355 473.066351 233.03772 473.066351 
C 232.100086 473.066351 231.200728 473.438877 230.53772 474.101885 
C 229.874713 474.764893 229.502187 475.664251 229.502187 476.601885 
C 229.502187 477.53952 229.874713 478.438877 230.53772 479.101885 
C 231.200728 479.764893 232.100086 480.137419 233.03772 480.137419 
z
" clip-path="url(#p3f435f9df0)" style="fill: #1f77b4; fill-opacity: 0.3; stroke: #1f77b4; stroke-opacity: 0.3"/>
    <path d="M 245.151696 478.696039 
C 246.880609 478.696039 248.538942 478.009135 249.761468 476.786609 
C 250.983994 475.564083 251.670898 473.905749 251.670898 472.176837 
C 251.670898 470.447924 250.983994 468.78959 249.761468 467.567064 
C 248.538942 466.344539 246.880609 465.657634 245.151696 465.657634 
C 243.422783 465.657634 241.76445 466.344539 240.541924 467.567064 
C 239.319398 468.78959 238.632494 470.447924 238.632494 472.176837 
C 238.632494 473.905749 239.319398 475.564083 240.541924 476.786609 
C 241.76445 478.009135 243.422783 478.696039 245.151696 478.696039 
z
" clip-path="url(#p3f435f9df0)" style="fill: #1f77b4; fill-opacity: 0.3; stroke: #1f77b4; stroke-opacity: 0.3"/>
    <path d="M 257.265672 474.396107 
C 258.889702 474.396107 260.447436 473.750872 261.595799 472.602509 
C 262.744162 471.454146 263.389396 469.896413 263.389396 468.272382 
C 263.389396 466.648351 262.744162 465.090618 261.595799 463.942255 
C 260.447436 462.793892 258.889702 462.148658 257.265672 462.148658 
C 255.641641 462.148658 254.083908 462.793892 252.935545 463.942255 
C 251.787182 465.090618 251.141947 466.648351 251.141947 468.272382 
C 251.141947 469.896413 251.787182 471.454146 252.935545 472.602509 
C 254.083908 473.750872 255.641641 474.396107 257.265672 474.396107 
z
" clip-path="url(#p3f435f9df0)" style="fill: #1f77b4; fill-opacity: 0.3; stroke: #1f77b4; stroke-opacity: 0.3"/>
    <path d="M 269.379647 467.995009 
C 271.998318 467.995009 274.510087 466.9546 276.361767 465.102921 
C 278.213447 463.251241 279.253856 460.739471 279.253856 458.120801 
C 279.253856 455.50213 278.213447 452.99036 276.361767 451.13868 
C 274.510087 449.287001 271.998318 448.246592 269.379647 448.246592 
C 266.760976 448.246592 264.249207 449.287001 262.397527 451.13868 
C 260.545847 452.99036 259.505438 455.50213 259.505438 458.120801 
C 259.505438 460.739471 260.545847 463.251241 262.397527 465.102921 
C 264.249207 466.9546 266.760976 467.995009 269.379647 467.995009 
z
" clip-path="url(#p3f435f9df0)" style="fill: #1f77b4; fill-opacity: 0.3; stroke: #1f77b4; stroke-opacity: 0.3"/>
    <path d="M 281.493623 459.985929 
C 283.368892 459.985929 285.167607 459.240877 286.493623 457.914861 
C 287.819638 456.588846 288.564691 454.79013 288.564691 452.914861 
C 288.564691 451.039592 287.819638 449.240877 286.493623 447.914861 
C 285.167607 446.588846 283.368892 445.843793 281.493623 445.843793 
C 279.618354 445.843793 277.819638 446.588846 276.493623 447.914861 
C 275.167607 449.240877 274.422555 451.039592 274.422555 452.914861 
C 274.422555 454.79013 275.167607 456.588846 276.493623 457.914861 
C 277.819638 459.240877 279.618354 459.985929 281.493623 459.985929 
z
" clip-path="url(#p3f435f9df0)" style="fill: #1f77b4; fill-opacity: 0.3; stroke: #1f77b4; stroke-opacity: 0.3"/>
    <path d="M 293.607598 455.315605 
C 294.865567 455.315605 296.072182 454.815809 296.9617 453.92629 
C 297.851219 453.036772 298.351015 451.830157 298.351015 450.572189 
C 298.351015 449.31422 297.851219 448.107605 296.9617 447.218087 
C 296.072182 446.328568 294.865567 445.828772 293.607598 445.828772 
C 292.34963 445.828772 291.143015 446.328568 290.253496 447.218087 
C 289.363978 448.107605 288.864182 449.31422 288.864182 450.572189 
C 288.864182 451.830157 289.363978 453.036772 290.253496 453.92629 
C 291.143015 454.815809 292.34963 455.315605 293.607598 455.315605 
z
" clip-path="url(#p3f435f9df0)" style="fill: #1f77b4; fill-opacity: 0.3; stroke: #1f77b4; stroke-opacity: 0.3"/>
    <path d="M 305.721574 452.287663 
C 306.314586 452.287663 306.88339 452.052056 307.302713 451.632733 
C 307.722036 451.21341 307.957642 450.644607 307.957642 450.051595 
C 307.957642 449.458582 307.722036 448.889779 307.302713 448.470456 
C 306.88339 448.051133 306.314586 447.815527 305.721574 447.815527 
C 305.128562 447.815527 304.559758 448.051133 304.140435 448.470456 
C 303.721112 448.889779 303.485506 449.458582 303.485506 450.051595 
C 303.485506 450.644607 303.721112 451.21341 304.140435 451.632733 
C 304.559758 452.052056 305.128562 452.287663 305.721574 452.287663 
z
" clip-path="url(#p3f435f9df0)" style="fill: #1f77b4; fill-opacity: 0.3; stroke: #1f77b4; stroke-opacity: 0.3"/>
    <path d="M 317.83555 449.639716 
C 320.487581 449.639716 323.031348 448.586053 324.906617 446.710784 
C 326.781886 444.835515 327.83555 442.291747 327.83555 439.639716 
C 327.83555 436.987685 326.781886 434.443917 324.906617 432.568648 
C 323.031348 430.693379 320.487581 429.639716 317.83555 429.639716 
C 315.183519 429.639716 312.639751 430.693379 310.764482 432.568648 
C 308.889213 434.443917 307.83555 436.987685 307.83555 439.639716 
C 307.83555 442.291747 308.889213 444.835515 310.764482 446.710784 
C 312.639751 448.586053 315.183519 449.639716 317.83555 449.639716 
z
" clip-path="url(#p3f435f9df0)" style="fill: #1f77b4; fill-opacity: 0.3; stroke: #1f77b4; stroke-opacity: 0.3"/>
    <path d="M 329.949525 441.037986 
C 332.04614 441.037986 334.057165 440.204992 335.539695 438.722462 
C 337.022225 437.239931 337.855219 435.228906 337.855219 433.132292 
C 337.855219 431.035677 337.022225 429.024652 335.539695 427.542122 
C 334.057165 426.059591 332.04614 425.226598 329.949525 425.226598 
C 327.852911 425.226598 325.841886 426.059591 324.359355 427.542122 
C 322.876825 429.024652 322.043831 431.035677 322.043831 433.132292 
C 322.043831 435.228906 322.876825 437.239931 324.359355 438.722462 
C 325.841886 440.204992 327.852911 441.037986 329.949525 441.037986 
z
" clip-path="url(#p3f435f9df0)" style="fill: #1f77b4; fill-opacity: 0.3; stroke: #1f77b4; stroke-opacity: 0.3"/>
    <path d="M 342.063501 435.449308 
C 343.575391 435.449308 345.025562 434.848628 346.09463 433.77956 
C 347.163697 432.710492 347.764378 431.260322 347.764378 429.748431 
C 347.764378 428.236541 347.163697 426.78637 346.09463 425.717302 
C 345.025562 424.648234 343.575391 424.047554 342.063501 424.047554 
C 340.55161 424.047554 339.10144 424.648234 338.032372 425.717302 
C 336.963304 426.78637 336.362624 428.236541 336.362624 429.748431 
C 336.362624 431.260322 336.963304 432.710492 338.032372 433.77956 
C 339.10144 434.848628 340.55161 435.449308 342.063501 435.449308 
z
" clip-path="url(#p3f435f9df0)" style="fill: #1f77b4; fill-opacity: 0.3; stroke: #1f77b4; stroke-opacity: 0.3"/>
    <path d="M 354.177476 430.3632 
C 356.549525 430.3632 358.82474 429.420775 360.502032 427.743484 
C 362.179323 426.066192 363.121748 423.790977 363.121748 421.418928 
C 363.121748 419.04688 362.179323 416.771665 360.502032 415.094373 
C 358.82474 413.417081 356.549525 412.474656 354.177476 412.474656 
C 351.805428 412.474656 349.530213 413.417081 347.852921 415.094373 
C 346.175629 416.771665 345.233204 419.04688 345.233204 421.418928 
C 345.233204 423.790977 346.175629 426.066192 347.852921 427.743484 
C 349.530213 429.420775 351.805428 430.3632 354.177476 430.3632 
z
" clip-path="url(#p3f435f9df0)" style="fill: #1f77b4; fill-opacity: 0.3; stroke: #1f77b4; stroke-opacity: 0.3"/>
    <path d="M 366.291452 420.594379 
C 369.041136 420.594379 371.678571 419.501918 373.622891 417.557598 
C 375.567211 415.613278 376.659673 412.975843 376.659673 410.226159 
C 376.659673 407.476475 375.567211 404.83904 373.622891 402.89472 
C 371.678571 400.950399 369.041136 399.857938 366.291452 399.857938 
C 363.541768 399.857938 360.904333 400.950399 358.960013 402.89472 
C 357.015692 404.83904 355.923231 407.476475 355.923231 410.226159 
C 355.923231 412.975843 357.015692 415.613278 358.960013 417.557598 
C 360.904333 419.501918 363.541768 420.594379 366.291452 420.594379 
z
" clip-path="url(#p3f435f9df0)" style="fill: #1f77b4; fill-opacity: 0.3; stroke: #1f77b4; stroke-opacity: 0.3"/>
    <path d="M 378.405427 412.347249 
C 379.244073 412.347249 380.048483 412.014051 380.641495 411.421039 
C 381.234508 410.828027 381.567705 410.023617 381.567705 409.184971 
C 381.567705 408.346325 381.234508 407.541915 380.641495 406.948903 
C 380.048483 406.355891 379.244073 406.022693 378.405427 406.022693 
C 377.566782 406.022693 376.762372 406.355891 376.169359 406.948903 
C 375.576347 407.541915 375.24315 408.346325 375.24315 409.184971 
C 375.24315 410.023617 375.576347 410.828027 376.169359 411.421039 
C 376.762372 412.014051 377.566782 412.347249 378.405427 412.347249 
z
" clip-path="url(#p3f435f9df0)" style="fill: #1f77b4; fill-opacity: 0.3; stroke: #1f77b4; stroke-opacity: 0.3"/>
    <path d="M 390.519403 411.565749 
C 391.91014 411.565749 393.244103 411.013203 394.227502 410.029804 
C 395.210902 409.046404 395.763447 407.712441 395.763447 406.321704 
C 395.763447 404.930968 395.210902 403.597004 394.227502 402.613605 
C 393.244103 401.630206 391.91014 401.07766 390.519403 401.07766 
C 389.128666 401.07766 387.794703 401.630206 386.811304 402.613605 
C 385.827904 403.597004 385.275359 404.930968 385.275359 406.321704 
C 385.275359 407.712441 385.827904 409.046404 386.811304 410.029804 
C 387.794703 411.013203 389.128666 411.565749 390.519403 411.565749 
z
" clip-path="url(#p3f435f9df0)" style="fill: #1f77b4; fill-opacity: 0.3; stroke: #1f77b4; stroke-opacity: 0.3"/>
    <path d="M 402.633379 407.509525 
C 404.812244 407.509525 406.902163 406.643852 408.442854 405.103161 
C 409.983544 403.56247 410.849217 401.472552 410.849217 399.293686 
C 410.849217 397.11482 409.983544 395.024902 408.442854 393.484211 
C 406.902163 391.94352 404.812244 391.077848 402.633379 391.077848 
C 400.454513 391.077848 398.364594 391.94352 396.823904 393.484211 
C 395.283213 395.024902 394.41754 397.11482 394.41754 399.293686 
C 394.41754 401.472552 395.283213 403.56247 396.823904 405.103161 
C 398.364594 406.643852 400.454513 407.509525 402.633379 407.509525 
z
" clip-path="url(#p3f435f9df0)" style="fill: #1f77b4; fill-opacity: 0.3; stroke: #1f77b4; stroke-opacity: 0.3"/>
    <path d="M 414.747354 401.647348 
C 416.199931 401.647348 417.59321 401.070233 418.620337 400.043106 
C 419.647465 399.015979 420.22458 397.6227 420.22458 396.170123 
C 420.22458 394.717545 419.647465 393.324267 418.620337 392.297139 
C 417.59321 391.270012 416.199931 390.692897 414.747354 390.692897 
C 413.294777 390.692897 411.901498 391.270012 410.874371 392.297139 
C 409.847244 393.324267 409.270129 394.717545 409.270129 396.170123 
C 409.270129 397.6227 409.847244 399.015979 410.874371 400.043106 
C 411.901498 401.070233 413.294777 401.647348 414.747354 401.647348 
z
" clip-path="url(#p3f435f9df0)" style="fill: #1f77b4; fill-opacity: 0.3; stroke: #1f77b4; stroke-opacity: 0.3"/>
    <path d="M 426.86133 394.335614 
C 429.826391 394.335614 432.670409 393.157583 434.767024 391.060969 
C 436.863638 388.964354 438.04167 386.120335 438.04167 383.155274 
C 438.04167 380.190214 436.863638 377.346195 434.767024 375.24958 
C 432.670409 373.152966 429.826391 371.974934 426.86133 371.974934 
C 423.896269 371.974934 421.05225 373.152966 418.955636 375.24958 
C 416.859021 377.346195 415.68099 380.190214 415.68099 383.155274 
C 415.68099 386.120335 416.859021 388.964354 418.955636 391.060969 
C 421.05225 393.157583 423.896269 394.335614 426.86133 394.335614 
z
" clip-path="url(#p3f435f9df0)" style="fill: #1f77b4; fill-opacity: 0.3; stroke: #1f77b4; stroke-opacity: 0.3"/>
    <path d="M 438.975305 384.343095 
C 441.154171 384.343095 443.24409 383.477422 444.78478 381.936731 
C 446.325471 380.396041 447.191144 378.306122 447.191144 376.127256 
C 447.191144 373.94839 446.325471 371.858472 444.78478 370.317781 
C 443.24409 368.77709 441.154171 367.911418 438.975305 367.911418 
C 436.796439 367.911418 434.706521 368.77709 433.16583 370.317781 
C 431.625139 371.858472 430.759467 373.94839 430.759467 376.127256 
C 430.759467 378.306122 431.625139 380.396041 433.16583 381.936731 
C 434.706521 383.477422 436.796439 384.343095 438.975305 384.343095 
z
" clip-path="url(#p3f435f9df0)" style="fill: #1f77b4; fill-opacity: 0.3; stroke: #1f77b4; stroke-opacity: 0.3"/>
    <path d="M 451.089281 377.626096 
C 453.143535 377.626096 455.113929 376.809932 456.566506 375.357355 
C 458.019084 373.904777 458.835248 371.934383 458.835248 369.880129 
C 458.835248 367.825875 458.019084 365.855481 456.566506 364.402904 
C 455.113929 362.950326 453.143535 362.134162 451.089281 362.134162 
C 449.035026 362.134162 447.064632 362.950326 445.612055 364.402904 
C 444.159478 365.855481 443.343314 367.825875 443.343314 369.880129 
C 443.343314 371.934383 444.159478 373.904777 445.612055 375.357355 
C 447.064632 376.809932 449.035026 377.626096 451.089281 377.626096 
z
" clip-path="url(#p3f435f9df0)" style="fill: #1f77b4; fill-opacity: 0.3; stroke: #1f77b4; stroke-opacity: 0.3"/>
    <path d="M 463.203256 370.84621 
C 465.461379 370.84621 467.62732 369.949049 469.224054 368.352314 
C 470.820788 366.75558 471.71795 364.58964 471.71795 362.331517 
C 471.71795 360.073394 470.820788 357.907454 469.224054 356.31072 
C 467.62732 354.713986 465.461379 353.816824 463.203256 353.816824 
C 460.945133 353.816824 458.779193 354.713986 457.182459 356.31072 
C 455.585725 357.907454 454.688563 360.073394 454.688563 362.331517 
C 454.688563 364.58964 455.585725 366.75558 457.182459 368.352314 
C 458.779193 369.949049 460.945133 370.84621 463.203256 370.84621 
z
" clip-path="url(#p3f435f9df0)" style="fill: #1f77b4; fill-opacity: 0.3; stroke: #1f77b4; stroke-opacity: 0.3"/>
    <path d="M 475.317232 364.452607 
C 476.155878 364.452607 476.960288 364.119409 477.5533 363.526397 
C 478.146312 362.933385 478.47951 362.128975 478.47951 361.290329 
C 478.47951 360.451683 478.146312 359.647273 477.5533 359.054261 
C 476.960288 358.461249 476.155878 358.128052 475.317232 358.128052 
C 474.478586 358.128052 473.674176 358.461249 473.081164 359.054261 
C 472.488152 359.647273 472.154954 360.451683 472.154954 361.290329 
C 472.154954 362.128975 472.488152 362.933385 473.081164 363.526397 
C 473.674176 364.119409 474.478586 364.452607 475.317232 364.452607 
z
" clip-path="url(#p3f435f9df0)" style="fill: #1f77b4; fill-opacity: 0.3; stroke: #1f77b4; stroke-opacity: 0.3"/>
    <path d="M 487.431208 363.411419 
C 488.269853 363.411419 489.074263 363.078222 489.667276 362.485209 
C 490.260288 361.892197 490.593485 361.087787 490.593485 360.249141 
C 490.593485 359.410496 490.260288 358.606086 489.667276 358.013073 
C 489.074263 357.420061 488.269853 357.086864 487.431208 357.086864 
C 486.592562 357.086864 485.788152 357.420061 485.19514 358.013073 
C 484.602127 358.606086 484.26893 359.410496 484.26893 360.249141 
C 484.26893 361.087787 484.602127 361.892197 485.19514 362.485209 
C 485.788152 363.078222 486.592562 363.411419 487.431208 363.411419 
z
" clip-path="url(#p3f435f9df0)" style="fill: #1f77b4; fill-opacity: 0.3; stroke: #1f77b4; stroke-opacity: 0.3"/>
    <path d="M 499.545183 360.235846 
C 502.095825 360.235846 504.542342 359.222465 506.345918 357.418889 
C 508.149495 355.615313 509.162875 353.168795 509.162875 350.618154 
C 509.162875 348.067512 508.149495 345.620994 506.345918 343.817418 
C 504.542342 342.013842 502.095825 341.000462 499.545183 341.000462 
C 496.994541 341.000462 494.548024 342.013842 492.744448 343.817418 
C 490.940872 345.620994 489.927491 348.067512 489.927491 350.618154 
C 489.927491 353.168795 490.940872 355.615313 492.744448 357.418889 
C 494.548024 359.222465 496.994541 360.235846 499.545183 360.235846 
z
" clip-path="url(#p3f435f9df0)" style="fill: #1f77b4; fill-opacity: 0.3; stroke: #1f77b4; stroke-opacity: 0.3"/>
    <path d="M 511.659159 348.783645 
C 514.62422 348.783645 517.468238 347.605614 519.564853 345.509 
C 521.661467 343.412385 522.839499 340.568366 522.839499 337.603305 
C 522.839499 334.638245 521.661467 331.794226 519.564853 329.697611 
C 517.468238 327.600997 514.62422 326.422965 511.659159 326.422965 
C 508.694098 326.422965 505.850079 327.600997 503.753465 329.697611 
C 501.65685 331.794226 500.478819 334.638245 500.478819 337.603305 
C 500.478819 340.568366 501.65685 343.412385 503.753465 345.509 
C 505.850079 347.605614 508.694098 348.783645 511.659159 348.783645 
z
" clip-path="url(#p3f435f9df0)" style="fill: #1f77b4; fill-opacity: 0.3; stroke: #1f77b4; stroke-opacity: 0.3"/>
    <path d="M 523.773134 338.218074 
C 526.145183 338.218074 528.420398 337.275649 530.09769 335.598358 
C 531.774981 333.921066 532.717406 331.645851 532.717406 329.273802 
C 532.717406 326.901754 531.774981 324.626539 530.09769 322.949247 
C 528.420398 321.271955 526.145183 320.329531 523.773134 320.329531 
C 521.401086 320.329531 519.125871 321.271955 517.448579 322.949247 
C 515.771287 324.626539 514.828862 326.901754 514.828862 329.273802 
C 514.828862 331.645851 515.771287 333.921066 517.448579 335.598358 
C 519.125871 337.275649 521.401086 338.218074 523.773134 338.218074 
z
" clip-path="url(#p3f435f9df0)" style="fill: #1f77b4; fill-opacity: 0.3; stroke: #1f77b4; stroke-opacity: 0.3"/>
    <path d="M 535.88711 330.461623 
C 538.065976 330.461623 540.155894 329.59595 541.696585 328.055259 
C 543.237276 326.514569 544.102948 324.42465 544.102948 322.245784 
C 544.102948 320.066919 543.237276 317.977 541.696585 316.436309 
C 540.155894 314.895619 538.065976 314.029946 535.88711 314.029946 
C 533.708244 314.029946 531.618326 314.895619 530.077635 316.436309 
C 528.536944 317.977 527.671272 320.066919 527.671272 322.245784 
C 527.671272 324.42465 528.536944 326.514569 530.077635 328.055259 
C 531.618326 329.59595 533.708244 330.461623 535.88711 330.461623 
z
" clip-path="url(#p3f435f9df0)" style="fill: #1f77b4; fill-opacity: 0.3; stroke: #1f77b4; stroke-opacity: 0.3"/>
    <path d="M 548.001085 324.366874 
C 548.839731 324.366874 549.644141 324.033677 550.237153 323.440664 
C 550.830166 322.847652 551.163363 322.043242 551.163363 321.204597 
C 551.163363 320.365951 550.830166 319.561541 550.237153 318.968529 
C 549.644141 318.375516 548.839731 318.042319 548.001085 318.042319 
C 547.16244 318.042319 546.35803 318.375516 545.765018 318.968529 
C 545.172005 319.561541 544.838808 320.365951 544.838808 321.204597 
C 544.838808 322.043242 545.172005 322.847652 545.765018 323.440664 
C 546.35803 324.033677 547.16244 324.366874 548.001085 324.366874 
z
" clip-path="url(#p3f435f9df0)" style="fill: #1f77b4; fill-opacity: 0.3; stroke: #1f77b4; stroke-opacity: 0.3"/>
    <path d="M 560.115061 323.585374 
C 561.505798 323.585374 562.839761 323.032829 563.82316 322.049429 
C 564.80656 321.06603 565.359105 319.732067 565.359105 318.34133 
C 565.359105 316.950593 564.80656 315.61663 563.82316 314.633231 
C 562.839761 313.649831 561.505798 313.097286 560.115061 313.097286 
C 558.724324 313.097286 557.390361 313.649831 556.406962 314.633231 
C 555.423562 315.61663 554.871017 316.950593 554.871017 318.34133 
C 554.871017 319.732067 555.423562 321.06603 556.406962 322.049429 
C 557.390361 323.032829 558.724324 323.585374 560.115061 323.585374 
z
" clip-path="url(#p3f435f9df0)" style="fill: #1f77b4; fill-opacity: 0.3; stroke: #1f77b4; stroke-opacity: 0.3"/>
    <path d="M 572.229037 320.206458 
C 574.104306 320.206458 575.903021 319.461406 577.229037 318.135391 
C 578.555052 316.809375 579.300104 315.01066 579.300104 313.135391 
C 579.300104 311.260121 578.555052 309.461406 577.229037 308.135391 
C 575.903021 306.809375 574.104306 306.064323 572.229037 306.064323 
C 570.353768 306.064323 568.555052 306.809375 567.229037 308.135391 
C 565.903021 309.461406 565.157969 311.260121 565.157969 313.135391 
C 565.157969 315.01066 565.903021 316.809375 567.229037 318.135391 
C 568.555052 319.461406 570.353768 320.206458 572.229037 320.206458 
z
" clip-path="url(#p3f435f9df0)" style="fill: #1f77b4; fill-opacity: 0.3; stroke: #1f77b4; stroke-opacity: 0.3"/>
    <path d="M 584.343012 314.63423 
C 586.397267 314.63423 588.367661 313.818066 589.820238 312.365489 
C 591.272815 310.912912 592.088979 308.942518 592.088979 306.888263 
C 592.088979 304.834009 591.272815 302.863615 589.820238 301.411038 
C 588.367661 299.958461 586.397267 299.142297 584.343012 299.142297 
C 582.288758 299.142297 580.318364 299.958461 578.865787 301.411038 
C 577.413209 302.863615 576.597046 304.834009 576.597046 306.888263 
C 576.597046 308.942518 577.413209 310.912912 578.865787 312.365489 
C 580.318364 313.818066 582.288758 314.63423 584.343012 314.63423 
z
" clip-path="url(#p3f435f9df0)" style="fill: #1f77b4; fill-opacity: 0.3; stroke: #1f77b4; stroke-opacity: 0.3"/>
    <path d="M 596.456988 309.278024 
C 597.643012 309.278024 598.78062 308.806811 599.619265 307.968165 
C 600.457911 307.129519 600.929124 305.991912 600.929124 304.805888 
C 600.929124 303.619863 600.457911 302.482256 599.619265 301.64361 
C 598.78062 300.804964 597.643012 300.333752 596.456988 300.333752 
C 595.270963 300.333752 594.133356 300.804964 593.29471 301.64361 
C 592.456064 302.482256 591.984852 303.619863 591.984852 304.805888 
C 591.984852 305.991912 592.456064 307.129519 593.29471 307.968165 
C 594.133356 308.806811 595.270963 309.278024 596.456988 309.278024 
z
" clip-path="url(#p3f435f9df0)" style="fill: #1f77b4; fill-opacity: 0.3; stroke: #1f77b4; stroke-opacity: 0.3"/>
    <path d="M 608.570963 305.884173 
C 610.789812 305.884173 612.91808 305.002615 614.487043 303.433652 
C 616.056006 301.86469 616.937564 299.736421 616.937564 297.517573 
C 616.937564 295.298724 616.056006 293.170456 614.487043 291.601493 
C 612.91808 290.03253 610.789812 289.150972 608.570963 289.150972 
C 606.352115 289.150972 604.223846 290.03253 602.654884 291.601493 
C 601.085921 293.170456 600.204363 295.298724 600.204363 297.517573 
C 600.204363 299.736421 601.085921 301.86469 602.654884 303.433652 
C 604.223846 305.002615 606.352115 305.884173 608.570963 305.884173 
z
" clip-path="url(#p3f435f9df0)" style="fill: #1f77b4; fill-opacity: 0.3; stroke: #1f77b4; stroke-opacity: 0.3"/>
    <path d="M 620.684939 299.611727 
C 622.413852 299.611727 624.072185 298.924822 625.294711 297.702296 
C 626.517237 296.479771 627.204141 294.821437 627.204141 293.092524 
C 627.204141 291.363612 626.517237 289.705278 625.294711 288.482752 
C 624.072185 287.260226 622.413852 286.573322 620.684939 286.573322 
C 618.956026 286.573322 617.297693 287.260226 616.075167 288.482752 
C 614.852641 289.705278 614.165737 291.363612 614.165737 293.092524 
C 614.165737 294.821437 614.852641 296.479771 616.075167 297.702296 
C 617.297693 298.924822 618.956026 299.611727 620.684939 299.611727 
z
" clip-path="url(#p3f435f9df0)" style="fill: #1f77b4; fill-opacity: 0.3; stroke: #1f77b4; stroke-opacity: 0.3"/>
    <path d="M 632.798915 295.473302 
C 634.189651 295.473302 635.523614 294.920756 636.507014 293.937357 
C 637.490413 292.953957 638.042959 291.619994 638.042959 290.229258 
C 638.042959 288.838521 637.490413 287.504558 636.507014 286.521158 
C 635.523614 285.537759 634.189651 284.985213 632.798915 284.985213 
C 631.408178 284.985213 630.074215 285.537759 629.090815 286.521158 
C 628.107416 287.504558 627.55487 288.838521 627.55487 290.229258 
C 627.55487 291.619994 628.107416 292.953957 629.090815 293.937357 
C 630.074215 294.920756 631.408178 295.473302 632.798915 295.473302 
z
" clip-path="url(#p3f435f9df0)" style="fill: #1f77b4; fill-opacity: 0.3; stroke: #1f77b4; stroke-opacity: 0.3"/>
    <path d="M 644.91289 289.951885 
C 647.531561 289.951885 650.04333 288.911476 651.89501 287.059796 
C 653.74669 285.208116 654.787099 282.696347 654.787099 280.077676 
C 654.787099 277.459005 653.74669 274.947236 651.89501 273.095556 
C 650.04333 271.243876 647.531561 270.203467 644.91289 270.203467 
C 642.294219 270.203467 639.78245 271.243876 637.93077 273.095556 
C 636.07909 274.947236 635.038681 277.459005 635.038681 280.077676 
C 635.038681 282.696347 636.07909 285.208116 637.93077 287.059796 
C 639.78245 288.911476 642.294219 289.951885 644.91289 289.951885 
z
" clip-path="url(#p3f435f9df0)" style="fill: #1f77b4; fill-opacity: 0.3; stroke: #1f77b4; stroke-opacity: 0.3"/>
    <path d="M 657.026866 282.431338 
C 658.479443 282.431338 659.872722 281.854223 660.899849 280.827096 
C 661.926976 279.799968 662.504091 278.40669 662.504091 276.954112 
C 662.504091 275.501535 661.926976 274.108256 660.899849 273.081129 
C 659.872722 272.054002 658.479443 271.476887 657.026866 271.476887 
C 655.574288 271.476887 654.18101 272.054002 653.153882 273.081129 
C 652.126755 274.108256 651.54964 275.501535 651.54964 276.954112 
C 651.54964 278.40669 652.126755 279.799968 653.153882 280.827096 
C 654.18101 281.854223 655.574288 282.431338 657.026866 282.431338 
z
" clip-path="url(#p3f435f9df0)" style="fill: #1f77b4; fill-opacity: 0.3; stroke: #1f77b4; stroke-opacity: 0.3"/>
    <path d="M 669.140841 277.32356 
C 671.585893 277.32356 673.931131 276.352131 675.660044 274.623218 
C 677.388956 272.894305 678.360386 270.549067 678.360386 268.104015 
C 678.360386 265.658964 677.388956 263.313726 675.660044 261.584813 
C 673.931131 259.8559 671.585893 258.884471 669.140841 258.884471 
C 666.695789 258.884471 664.350552 259.8559 662.621639 261.584813 
C 660.892726 263.313726 659.921297 265.658964 659.921297 268.104015 
C 659.921297 270.549067 660.892726 272.894305 662.621639 274.623218 
C 664.350552 276.352131 666.695789 277.32356 669.140841 277.32356 
z
" clip-path="url(#p3f435f9df0)" style="fill: #1f77b4; fill-opacity: 0.3; stroke: #1f77b4; stroke-opacity: 0.3"/>
    <path d="M 681.254817 269.969144 
C 683.130086 269.969144 684.928801 269.224092 686.254817 267.898076 
C 687.580832 266.572061 688.325885 264.773345 688.325885 262.898076 
C 688.325885 261.022807 687.580832 259.224092 686.254817 257.898076 
C 684.928801 256.572061 683.130086 255.827008 681.254817 255.827008 
C 679.379548 255.827008 677.580832 256.572061 676.254817 257.898076 
C 674.928801 259.224092 674.183749 261.022807 674.183749 262.898076 
C 674.183749 264.773345 674.928801 266.572061 676.254817 267.898076 
C 677.580832 269.224092 679.379548 269.969144 681.254817 269.969144 
z
" clip-path="url(#p3f435f9df0)" style="fill: #1f77b4; fill-opacity: 0.3; stroke: #1f77b4; stroke-opacity: 0.3"/>
    <path d="M 693.368792 265.251738 
C 694.82137 265.251738 696.214649 264.674623 697.241776 263.647496 
C 698.268903 262.620369 698.846018 261.22709 698.846018 259.774513 
C 698.846018 258.321935 698.268903 256.928656 697.241776 255.901529 
C 696.214649 254.874402 694.82137 254.297287 693.368792 254.297287 
C 691.916215 254.297287 690.522936 254.874402 689.495809 255.901529 
C 688.468682 256.928656 687.891567 258.321935 687.891567 259.774513 
C 687.891567 261.22709 688.468682 262.620369 689.495809 263.647496 
C 690.522936 264.674623 691.916215 265.251738 693.368792 265.251738 
z
" clip-path="url(#p3f435f9df0)" style="fill: #1f77b4; fill-opacity: 0.3; stroke: #1f77b4; stroke-opacity: 0.3"/>
    <path d="M 705.482768 261.639641 
C 707.358037 261.639641 709.156752 260.894589 710.482768 259.568573 
C 711.808783 258.242558 712.553836 256.443842 712.553836 254.568573 
C 712.553836 252.693304 711.808783 250.894589 710.482768 249.568573 
C 709.156752 248.242558 707.358037 247.497505 705.482768 247.497505 
C 703.607499 247.497505 701.808783 248.242558 700.482768 249.568573 
C 699.156752 250.894589 698.4117 252.693304 698.4117 254.568573 
C 698.4117 256.443842 699.156752 258.242558 700.482768 259.568573 
C 701.808783 260.894589 703.607499 261.639641 705.482768 261.639641 
z
" clip-path="url(#p3f435f9df0)" style="fill: #1f77b4; fill-opacity: 0.3; stroke: #1f77b4; stroke-opacity: 0.3"/>
    <path d="M 717.596744 256.969317 
C 718.854712 256.969317 720.061327 256.469521 720.950846 255.580003 
C 721.840364 254.690484 722.34016 253.483869 722.34016 252.225901 
C 722.34016 250.967932 721.840364 249.761317 720.950846 248.871799 
C 720.061327 247.98228 718.854712 247.482484 717.596744 247.482484 
C 716.338775 247.482484 715.13216 247.98228 714.242642 248.871799 
C 713.353123 249.761317 712.853327 250.967932 712.853327 252.225901 
C 712.853327 253.483869 713.353123 254.690484 714.242642 255.580003 
C 715.13216 256.469521 716.338775 256.969317 717.596744 256.969317 
z
" clip-path="url(#p3f435f9df0)" style="fill: #1f77b4; fill-opacity: 0.3; stroke: #1f77b4; stroke-opacity: 0.3"/>
    <path d="M 729.710719 252.212605 
C 732.261361 252.212605 734.707878 251.199224 736.511454 249.395648 
C 738.31503 247.592072 739.328411 245.145555 739.328411 242.594913 
C 739.328411 240.044271 738.31503 237.597754 736.511454 235.794178 
C 734.707878 233.990602 732.261361 232.977221 729.710719 232.977221 
C 727.160077 232.977221 724.71356 233.990602 722.909984 235.794178 
C 721.106408 237.597754 720.093027 240.044271 720.093027 242.594913 
C 720.093027 245.145555 721.106408 247.592072 722.909984 249.395648 
C 724.71356 251.199224 727.160077 252.212605 729.710719 252.212605 
z
" clip-path="url(#p3f435f9df0)" style="fill: #1f77b4; fill-opacity: 0.3; stroke: #1f77b4; stroke-opacity: 0.3"/>
    <path d="M 741.824695 241.05511 
C 744.729849 241.05511 747.516407 239.90088 749.570661 237.846625 
C 751.624916 235.792371 752.779146 233.005813 752.779146 230.100658 
C 752.779146 227.195504 751.624916 224.408946 749.570661 222.354692 
C 747.516407 220.300437 744.729849 219.146207 741.824695 219.146207 
C 738.91954 219.146207 736.132982 220.300437 734.078728 222.354692 
C 732.024474 224.408946 730.870244 227.195504 730.870244 230.100658 
C 730.870244 233.005813 732.024474 235.792371 734.078728 237.846625 
C 736.132982 239.90088 738.91954 241.05511 741.824695 241.05511 
z
" clip-path="url(#p3f435f9df0)" style="fill: #1f77b4; fill-opacity: 0.3; stroke: #1f77b4; stroke-opacity: 0.3"/>
    <path d="M 753.93867 232.501402 
C 755.196639 232.501402 756.403254 232.001606 757.292772 231.112088 
C 758.18229 230.22257 758.682087 229.015955 758.682087 227.757986 
C 758.682087 226.500017 758.18229 225.293402 757.292772 224.403884 
C 756.403254 223.514366 755.196639 223.014569 753.93867 223.014569 
C 752.680702 223.014569 751.474087 223.514366 750.584568 224.403884 
C 749.69505 225.293402 749.195254 226.500017 749.195254 227.757986 
C 749.195254 229.015955 749.69505 230.22257 750.584568 231.112088 
C 751.474087 232.001606 752.680702 232.501402 753.93867 232.501402 
z
" clip-path="url(#p3f435f9df0)" style="fill: #1f77b4; fill-opacity: 0.3; stroke: #1f77b4; stroke-opacity: 0.3"/>
    <path d="M 766.052646 229.623114 
C 767.927915 229.623114 769.72663 228.878062 771.052646 227.552046 
C 772.378661 226.226031 773.123714 224.427316 773.123714 222.552046 
C 773.123714 220.676777 772.378661 218.878062 771.052646 217.552046 
C 769.72663 216.226031 767.927915 215.480979 766.052646 215.480979 
C 764.177377 215.480979 762.378661 216.226031 761.052646 217.552046 
C 759.72663 218.878062 758.981578 220.676777 758.981578 222.552046 
C 758.981578 224.427316 759.72663 226.226031 761.052646 227.552046 
C 762.378661 228.878062 764.177377 229.623114 766.052646 229.623114 
z
" clip-path="url(#p3f435f9df0)" style="fill: #1f77b4; fill-opacity: 0.3; stroke: #1f77b4; stroke-opacity: 0.3"/>
    <path d="M 778.166621 224.417175 
C 780.041891 224.417175 781.840606 223.672123 783.166621 222.346107 
C 784.492637 221.020092 785.237689 219.221376 785.237689 217.346107 
C 785.237689 215.470838 784.492637 213.672123 783.166621 212.346107 
C 781.840606 211.020092 780.041891 210.275039 778.166621 210.275039 
C 776.291352 210.275039 774.492637 211.020092 773.166621 212.346107 
C 771.840606 213.672123 771.095554 215.470838 771.095554 217.346107 
C 771.095554 219.221376 771.840606 221.020092 773.166621 222.346107 
C 774.492637 223.672123 776.291352 224.417175 778.166621 224.417175 
z
" clip-path="url(#p3f435f9df0)" style="fill: #1f77b4; fill-opacity: 0.3; stroke: #1f77b4; stroke-opacity: 0.3"/>
    <path d="M 790.280597 219.368966 
C 792.059633 219.368966 793.766045 218.662147 795.024014 217.404178 
C 796.281982 216.14621 796.988801 214.439798 796.988801 212.660762 
C 796.988801 210.881725 796.281982 209.175314 795.024014 207.917345 
C 793.766045 206.659377 792.059633 205.952558 790.280597 205.952558 
C 788.501561 205.952558 786.795149 206.659377 785.537181 207.917345 
C 784.279212 209.175314 783.572393 210.881725 783.572393 212.660762 
C 783.572393 214.439798 784.279212 216.14621 785.537181 217.404178 
C 786.795149 218.662147 788.501561 219.368966 790.280597 219.368966 
z
" clip-path="url(#p3f435f9df0)" style="fill: #1f77b4; fill-opacity: 0.3; stroke: #1f77b4; stroke-opacity: 0.3"/>
    <path d="M 802.394573 214.607144 
C 804.222359 214.607144 805.97553 213.880957 807.26797 212.588517 
C 808.56041 211.296077 809.286597 209.542906 809.286597 207.715119 
C 809.286597 205.887333 808.56041 204.134162 807.26797 202.841722 
C 805.97553 201.549282 804.222359 200.823095 802.394573 200.823095 
C 800.566786 200.823095 798.813615 201.549282 797.521175 202.841722 
C 796.228735 204.134162 795.502548 205.887333 795.502548 207.715119 
C 795.502548 209.542906 796.228735 211.296077 797.521175 212.588517 
C 798.813615 213.880957 800.566786 214.607144 802.394573 214.607144 
z
" clip-path="url(#p3f435f9df0)" style="fill: #1f77b4; fill-opacity: 0.3; stroke: #1f77b4; stroke-opacity: 0.3"/>
    <path d="M 814.508548 208.566464 
C 816.805274 208.566464 819.008242 207.653965 820.632273 206.029935 
C 822.256303 204.405904 823.168802 202.202937 823.168802 199.90621 
C 823.168802 197.609484 822.256303 195.406517 820.632273 193.782486 
C 819.008242 192.158455 816.805274 191.245956 814.508548 191.245956 
C 812.211822 191.245956 810.008854 192.158455 808.384824 193.782486 
C 806.760793 195.406517 805.848294 197.609484 805.848294 199.90621 
C 805.848294 202.202937 806.760793 204.405904 808.384824 206.029935 
C 810.008854 207.653965 812.211822 208.566464 814.508548 208.566464 
z
" clip-path="url(#p3f435f9df0)" style="fill: #1f77b4; fill-opacity: 0.3; stroke: #1f77b4; stroke-opacity: 0.3"/>
    <path d="M 826.622524 200.640413 
C 828.957215 200.640413 831.196598 199.71283 832.847474 198.061954 
C 834.49835 196.411078 835.425932 194.171696 835.425932 191.837005 
C 835.425932 189.502313 834.49835 187.262931 832.847474 185.612055 
C 831.196598 183.961179 828.957215 183.033596 826.622524 183.033596 
C 824.287833 183.033596 822.04845 183.961179 820.397574 185.612055 
C 818.746698 187.262931 817.819115 189.502313 817.819115 191.837005 
C 817.819115 194.171696 818.746698 196.411078 820.397574 198.061954 
C 822.04845 199.71283 824.287833 200.640413 826.622524 200.640413 
z
" clip-path="url(#p3f435f9df0)" style="fill: #1f77b4; fill-opacity: 0.3; stroke: #1f77b4; stroke-opacity: 0.3"/>
    <path d="M 838.736499 191.012456 
C 841.486184 191.012456 844.123618 189.919995 846.067938 187.975674 
C 848.012259 186.031354 849.10472 183.393919 849.10472 180.644235 
C 849.10472 177.894551 848.012259 175.257116 846.067938 173.312796 
C 844.123618 171.368475 841.486184 170.276014 838.736499 170.276014 
C 835.986815 170.276014 833.349381 171.368475 831.40506 173.312796 
C 829.46074 175.257116 828.368279 177.894551 828.368279 180.644235 
C 828.368279 183.393919 829.46074 186.031354 831.40506 187.975674 
C 833.349381 189.919995 835.986815 191.012456 838.736499 191.012456 
z
" clip-path="url(#p3f435f9df0)" style="fill: #1f77b4; fill-opacity: 0.3; stroke: #1f77b4; stroke-opacity: 0.3"/>
    <path d="M 850.850475 182.423687 
C 852.772054 182.423687 854.615189 181.660236 855.97395 180.301474 
C 857.332712 178.942713 858.096163 177.099578 858.096163 175.177999 
C 858.096163 173.25642 857.332712 171.413285 855.97395 170.054523 
C 854.615189 168.695762 852.772054 167.93231 850.850475 167.93231 
C 848.928896 167.93231 847.085761 168.695762 845.727 170.054523 
C 844.368238 171.413285 843.604787 173.25642 843.604787 175.177999 
C 843.604787 177.099578 844.368238 178.942713 845.727 180.301474 
C 847.085761 181.660236 848.928896 182.423687 850.850475 182.423687 
z
" clip-path="url(#p3f435f9df0)" style="fill: #1f77b4; fill-opacity: 0.3; stroke: #1f77b4; stroke-opacity: 0.3"/>
    <path d="M 862.96445 171.965436 
C 866.185331 171.965436 869.274726 170.685766 871.552232 168.40826 
C 873.829739 166.130753 875.109408 163.041358 875.109408 159.820478 
C 875.109408 156.599597 873.829739 153.510202 871.552232 151.232696 
C 869.274726 148.955189 866.185331 147.67552 862.96445 147.67552 
C 859.74357 147.67552 856.654175 148.955189 854.376668 151.232696 
C 852.099162 153.510202 850.819493 156.599597 850.819493 159.820478 
C 850.819493 163.041358 852.099162 166.130753 854.376668 168.40826 
C 856.654175 170.685766 859.74357 171.965436 862.96445 171.965436 
z
" clip-path="url(#p3f435f9df0)" style="fill: #1f77b4; fill-opacity: 0.3; stroke: #1f77b4; stroke-opacity: 0.3"/>
    <path d="M 875.078426 161.416523 
C 877.089428 161.416523 879.018335 160.617543 880.440329 159.19555 
C 881.862322 157.773557 882.661301 155.84465 882.661301 153.833648 
C 882.661301 151.822645 881.862322 149.893738 880.440329 148.471745 
C 879.018335 147.049752 877.089428 146.250772 875.078426 146.250772 
C 873.067424 146.250772 871.138517 147.049752 869.716523 148.471745 
C 868.29453 149.893738 867.495551 151.822645 867.495551 153.833648 
C 867.495551 155.84465 868.29453 157.773557 869.716523 159.19555 
C 871.138517 160.617543 873.067424 161.416523 875.078426 161.416523 
z
" clip-path="url(#p3f435f9df0)" style="fill: #1f77b4; fill-opacity: 0.3; stroke: #1f77b4; stroke-opacity: 0.3"/>
    <path d="M 887.192402 156.18731 
C 888.644979 156.18731 890.038258 155.610194 891.065385 154.583067 
C 892.092512 153.55594 892.669627 152.162661 892.669627 150.710084 
C 892.669627 149.257507 892.092512 147.864228 891.065385 146.837101 
C 890.038258 145.809973 888.644979 145.232858 887.192402 145.232858 
C 885.739824 145.232858 884.346545 145.809973 883.319418 146.837101 
C 882.292291 147.864228 881.715176 149.257507 881.715176 150.710084 
C 881.715176 152.162661 882.292291 153.55594 883.319418 154.583067 
C 884.346545 155.610194 885.739824 156.18731 887.192402 156.18731 
z
" clip-path="url(#p3f435f9df0)" style="fill: #1f77b4; fill-opacity: 0.3; stroke: #1f77b4; stroke-opacity: 0.3"/>
    <path d="M 899.306377 152.489536 
C 901.227956 152.489536 903.071091 151.726085 904.429853 150.367323 
C 905.788614 149.008561 906.552066 147.165427 906.552066 145.243848 
C 906.552066 143.322269 905.788614 141.479134 904.429853 140.120372 
C 903.071091 138.761611 901.227956 137.998159 899.306377 137.998159 
C 897.384798 137.998159 895.541663 138.761611 894.182902 140.120372 
C 892.82414 141.479134 892.060689 143.322269 892.060689 145.243848 
C 892.060689 147.165427 892.82414 149.008561 894.182902 150.367323 
C 895.541663 151.726085 897.384798 152.489536 899.306377 152.489536 
z
" clip-path="url(#p3f435f9df0)" style="fill: #1f77b4; fill-opacity: 0.3; stroke: #1f77b4; stroke-opacity: 0.3"/>
    <path d="M 911.420353 146.431668 
C 913.599219 146.431668 915.689137 145.565995 917.229828 144.025305 
C 918.770519 142.484614 919.636191 140.394695 919.636191 138.21583 
C 919.636191 136.036964 918.770519 133.947045 917.229828 132.406355 
C 915.689137 130.865664 913.599219 129.999991 911.420353 129.999991 
C 909.241487 129.999991 907.151569 130.865664 905.610878 132.406355 
C 904.070187 133.947045 903.204514 136.036964 903.204514 138.21583 
C 903.204514 140.394695 904.070187 142.484614 905.610878 144.025305 
C 907.151569 145.565995 909.241487 146.431668 911.420353 146.431668 
z
" clip-path="url(#p3f435f9df0)" style="fill: #1f77b4; fill-opacity: 0.3; stroke: #1f77b4; stroke-opacity: 0.3"/>
    <path d="M 923.534328 140.080958 
C 925.409597 140.080958 927.208313 139.335906 928.534328 138.00989 
C 929.860344 136.683875 930.605396 134.885159 930.605396 133.00989 
C 930.605396 131.134621 929.860344 129.335906 928.534328 128.00989 
C 927.208313 126.683875 925.409597 125.938822 923.534328 125.938822 
C 921.659059 125.938822 919.860344 126.683875 918.534328 128.00989 
C 917.208313 129.335906 916.463261 131.134621 916.463261 133.00989 
C 916.463261 134.885159 917.208313 136.683875 918.534328 138.00989 
C 919.860344 139.335906 921.659059 140.080958 923.534328 140.080958 
z
" clip-path="url(#p3f435f9df0)" style="fill: #1f77b4; fill-opacity: 0.3; stroke: #1f77b4; stroke-opacity: 0.3"/>
    <path d="M 935.648304 133.861235 
C 937.94503 133.861235 940.147998 132.948736 941.772028 131.324706 
C 943.396059 129.700675 944.308558 127.497707 944.308558 125.200981 
C 944.308558 122.904255 943.396059 120.701288 941.772028 119.077257 
C 940.147998 117.453226 937.94503 116.540727 935.648304 116.540727 
C 933.351578 116.540727 931.14861 117.453226 929.52458 119.077257 
C 927.900549 120.701288 926.98805 122.904255 926.98805 125.200981 
C 926.98805 127.497707 927.900549 129.700675 929.52458 131.324706 
C 931.14861 132.948736 933.351578 133.861235 935.648304 133.861235 
z
" clip-path="url(#p3f435f9df0)" style="fill: #1f77b4; fill-opacity: 0.3; stroke: #1f77b4; stroke-opacity: 0.3"/>
    <path d="M 947.76228 127.295135 
C 949.491192 127.295135 951.149526 126.608231 952.372052 125.385705 
C 953.594578 124.163179 954.281482 122.504846 954.281482 120.775933 
C 954.281482 119.04702 953.594578 117.388687 952.372052 116.166161 
C 951.149526 114.943635 949.491192 114.25673 947.76228 114.25673 
C 946.033367 114.25673 944.375033 114.943635 943.152507 116.166161 
C 941.929981 117.388687 941.243077 119.04702 941.243077 120.775933 
C 941.243077 122.504846 941.929981 124.163179 943.152507 125.385705 
C 944.375033 126.608231 946.033367 127.295135 947.76228 127.295135 
z
" clip-path="url(#p3f435f9df0)" style="fill: #1f77b4; fill-opacity: 0.3; stroke: #1f77b4; stroke-opacity: 0.3"/>
    <path d="M 959.876255 122.274772 
C 961.930509 122.274772 963.900903 121.458608 965.353481 120.006031 
C 966.806058 118.553454 967.622222 116.58306 967.622222 114.528806 
C 967.622222 112.474551 966.806058 110.504157 965.353481 109.05158 
C 963.900903 107.599003 961.930509 106.782839 959.876255 106.782839 
C 957.822001 106.782839 955.851607 107.599003 954.39903 109.05158 
C 952.946452 110.504157 952.130288 112.474551 952.130288 114.528806 
C 952.130288 116.58306 952.946452 118.553454 954.39903 120.006031 
C 955.851607 121.458608 957.822001 122.274772 959.876255 122.274772 
z
" clip-path="url(#p3f435f9df0)" style="fill: #1f77b4; fill-opacity: 0.3; stroke: #1f77b4; stroke-opacity: 0.3"/>
    <path d="M 971.990231 116.551664 
C 973.769267 116.551664 975.475678 115.844846 976.733647 114.586877 
C 977.991616 113.328908 978.698435 111.622497 978.698435 109.84346 
C 978.698435 108.064424 977.991616 106.358013 976.733647 105.100044 
C 975.475678 103.842075 973.769267 103.135256 971.990231 103.135256 
C 970.211194 103.135256 968.504783 103.842075 967.246814 105.100044 
C 965.988845 106.358013 965.282027 108.064424 965.282027 109.84346 
C 965.282027 111.622497 965.988845 113.328908 967.246814 114.586877 
C 968.504783 115.844846 970.211194 116.551664 971.990231 116.551664 
z
" clip-path="url(#p3f435f9df0)" style="fill: #1f77b4; fill-opacity: 0.3; stroke: #1f77b4; stroke-opacity: 0.3"/>
    <path d="M 984.104206 112.160477 
C 985.616097 112.160477 987.066267 111.559796 988.135335 110.490729 
C 989.204403 109.421661 989.805083 107.97149 989.805083 106.4596 
C 989.805083 104.947709 989.204403 103.497539 988.135335 102.428471 
C 987.066267 101.359403 985.616097 100.758723 984.104206 100.758723 
C 982.592316 100.758723 981.142145 101.359403 980.073077 102.428471 
C 979.004009 103.497539 978.403329 104.947709 978.403329 106.4596 
C 978.403329 107.97149 979.004009 109.421661 980.073077 110.490729 
C 981.142145 111.559796 982.592316 112.160477 984.104206 112.160477 
z
" clip-path="url(#p3f435f9df0)" style="fill: #1f77b4; fill-opacity: 0.3; stroke: #1f77b4; stroke-opacity: 0.3"/>
    <path d="M 996.218182 102.125233 
C 999.624777 102.125233 1002.892306 100.771778 1005.301133 98.362951 
C 1007.70996 95.954124 1009.063414 92.686596 1009.063414 89.28 
C 1009.063414 85.873404 1007.70996 82.605876 1005.301133 80.197049 
C 1002.892306 77.788222 999.624777 76.434767 996.218182 76.434767 
C 992.811586 76.434767 989.544058 77.788222 987.135231 80.197049 
C 984.726404 82.605876 983.372949 85.873404 983.372949 89.28 
C 983.372949 92.686596 984.726404 95.954124 987.135231 98.362951 
C 989.544058 100.771778 992.811586 102.125233 996.218182 102.125233 
z
" clip-path="url(#p3f435f9df0)" style="fill: #1f77b4; fill-opacity: 0.3; stroke: #1f77b4; stroke-opacity: 0.3"/>
   </g>
   <g id="matplotlib.axis_1">
    <g id="xtick_1">
     <g id="line2d_1">
      <defs>
       <path id="m2850956113" d="M 0 0 
L 0 3.5 
" style="stroke: #000000; stroke-width: 0.8"/>
      </defs>
      <g>
       <use xlink:href="#m2850956113" x="184.581818" y="512.64" style="stroke: #000000; stroke-width: 0.8"/>
      </g>
     </g>
     <g id="text_1">
      <!-- 2026-01-01 -->
      <g transform="translate(155.524006 527.238438) scale(0.1 -0.1)">
       <defs>
        <path id="DejaVuSans-32" d="M 1228 531 
L 3431 531 
L 3431 0 
L 469 0 
L 469 531 
Q 828 903 1448 1529 
Q 2069 2156 2228 2338 
Q 2531 2678 2651 2914 
Q 2772 3150 2772 3378 
Q 2772 3750 2511 3984 
Q 2250 4219 1831 4219 
Q 1534 4219 1204 4116 
Q 875 4013 500 3803 
L 500 4441 
Q 881 4594 1212 4672 
Q 1544 4750 1819 4750 
Q 2544 4750 2975 4387 
Q 3406 4025 3406 3419 
Q 3406 3131 3298 2873 
Q 3191 2616 2906 2266 
Q 2828 2175 2409 1742 
Q 1991 1309 1228 531 
z
" transform="scale(0.015625)"/>
        <path id="DejaVuSans-30" d="M 2034 4250 
Q 1547 4250 1301 3770 
Q 1056 3291 1056 2328 
Q 1056 1369 1301 889 
Q 1547 409 2034 409 
Q 2525 409 2770 889 
Q 3016 1369 3016 2328 
Q 3016 3291 2770 3770 
Q 2525 4250 2034 4250 
z
M 2034 4750 
Q 2819 4750 3233 4129 
Q 3647 3509 3647 2328 
Q 3647 1150 3233 529 
Q 2819 -91 2034 -91 
Q 1250 -91 836 529 
Q 422 1150 422 2328 
Q 422 3509 836 4129 
Q 1250 4750 2034 4750 
z
" transform="scale(0.015625)"/>
        <path id="DejaVuSans-36" d="M 2113 2584 
Q 1688 2584 1439 2293 
Q 1191 2003 1191 1497 
Q 1191 994 1439 701 
Q 1688 409 2113 409 
Q 2538 409 2786 701 
Q 3034 994 3034 1497 
Q 3034 2003 2786 2293 
Q 2538 2584 2113 2584 
z
M 3366 4563 
L 3366 3988 
Q 3128 4100 2886 4159 
Q 2644 4219 2406 4219 
Q 1781 4219 1451 3797 
Q 1122 3375 1075 2522 
Q 1259 2794 1537 2939 
Q 1816 3084 2150 3084 
Q 2853 3084 3261 2657 
Q 3669 2231 3669 1497 
Q 3669 778 3244 343 
Q 2819 -91 2113 -91 
Q 1303 -91 875 529 
Q 447 1150 447 2328 
Q 447 3434 972 4092 
Q 1497 4750 2381 4750 
Q 2619 4750 2861 4703 
Q 3103 4656 3366 4563 
z
" transform="scale(0.015625)"/>
        <path id="DejaVuSans-2d" d="M 313 2009 
L 1997 2009 
L 1997 1497 
L 313 1497 
L 313 2009 
z
" transform="scale(0.015625)"/>
        <path id="DejaVuSans-31" d="M 794 531 
L 1825 531 
L 1825 4091 
L 703 3866 
L 703 4441 
L 1819 4666 
L 2450 4666 
L 2450 531 
L 3481 531 
L 3481 0 
L 794 0 
L 794 531 
z
" transform="scale(0.015625)"/>
       </defs>
       <use xlink:href="#DejaVuSans-32"/>
       <use xlink:href="#DejaVuSans-30" x="63.623047"/>
       <use xlink:href="#DejaVuSans-32" x="127.246094"/>
       <use xlink:href="#DejaVuSans-36" x="190.869141"/>
       <use xlink:href="#DejaVuSans-2d" x="254.492188"/>
       <use xlink:href="#DejaVuSans-30" x="290.576172"/>
       <use xlink:href="#DejaVuSans-31" x="354.199219"/>
       <use xlink:href="#DejaVuSans-2d" x="417.822266"/>
       <use xlink:href="#DejaVuSans-30" x="453.90625"/>
       <use xlink:href="#DejaVuSans-31" x="517.529297"/>
      </g>
     </g>
    </g>
    <g id="xtick_2">
     <g id="line2d_2">
      <g>
       <use xlink:href="#m2850956113" x="354.177476" y="512.64" style="stroke: #000000; stroke-width: 0.8"/>
      </g>
     </g>
     <g id="text_2">
      <!-- 2026-01-15 -->
      <g transform="translate(325.119664 527.238438) scale(0.1 -0.1)">
       <defs>
        <path id="DejaVuSans-35" d="M 691 4666 
L 3169 4666 
L 3169 4134 
L 1269 4134 
L 1269 2991 
Q 1406 3038 1543 3061 
Q 1681 3084 1819 3084 
Q 2600 3084 3056 2656 
Q 3513 2228 3513 1497 
Q 3513 744 3044 326 
Q 2575 -91 1722 -91 
Q 1428 -91 1123 -41 
Q 819 9 494 109 
L 494 744 
Q 775 591 1075 516 
Q 1375 441 1709 441 
Q 2250 441 2565 725 
Q 2881 1009 2881 1497 
Q 2881 1984 2565 2268 
Q 2250 2553 1709 2553 
Q 1456 2553 1204 2497 
Q 953 2441 691 2322 
L 691 4666 
z
" transform="scale(0.015625)"/>
       </defs>
       <use xlink:href="#DejaVuSans-32"/>
       <use xlink:href="#DejaVuSans-30" x="63.623047"/>
       <use xlink:href="#DejaVuSans-32" x="127.246094"/>
       <use xlink:href="#DejaVuSans-36" x="190.869141"/>
       <use xlink:href="#DejaVuSans-2d" x="254.492188"/>
       <use xlink:href="#DejaVuSans-30" x="290.576172"/>
       <use xlink:href="#DejaVuSans-31" x="354.199219"/>
       <use xlink:href="#DejaVuSans-2d" x="417.822266"/>
       <use xlink:href="#DejaVuSans-31" x="453.90625"/>
       <use xlink:href="#DejaVuSans-35" x="517.529297"/>
      </g>
     </g>
    </g>
    <g id="xtick_3">
     <g id="line2d_3">
      <g>
       <use xlink:href="#m2850956113" x="560.115061" y="512.64" style="stroke: #000000; stroke-width: 0.8"/>
      </g>
     </g>
     <g id="text_3">
      <!-- 2026-02-01 -->
      <g transform="translate(531.057249 527.238438) scale(0.1 -0.1)">
       <use xlink:href="#DejaVuSans-32"/>
       <use xlink:href="#DejaVuSans-30" x="63.623047"/>
       <use xlink:href="#DejaVuSans-32" x="127.246094"/>
       <use xlink:href="#DejaVuSans-36" x="190.869141"/>
       <use xlink:href="#DejaVuSans-2d" x="254.492188"/>
       <use xlink:href="#DejaVuSans-30" x="290.576172"/>
       <use xlink:href="#DejaVuSans-32" x="354.199219"/>
       <use xlink:href="#DejaVuSans-2d" x="417.822266"/>
       <use xlink:href="#DejaVuSans-30" x="453.90625"/>
       <use xlink:href="#DejaVuSans-31" x="517.529297"/>
      </g>
     </g>
    </g>
    <g id="xtick_4">
     <g id="line2d_4">
      <g>
       <use xlink:href="#m2850956113" x="729.710719" y="512.64" style="stroke: #000000; stroke-width: 0.8"/>
      </g>
     </g>
     <g id="text_4">
      <!-- 2026-02-15 -->
      <g transform="translate(700.652907 527.238438) scale(0.1 -0.1)">
       <use xlink:href="#DejaVuSans-32"/>
       <use xlink:href="#DejaVuSans-30" x="63.623047"/>
       <use xlink:href="#DejaVuSans-32" x="127.246094"/>
       <use xlink:href="#DejaVuSans-36" x="190.869141"/>
       <use xlink:href="#DejaVuSans-2d" x="254.492188"/>
       <use xlink:href="#DejaVuSans-30" x="290.576172"/>
       <use xlink:href="#DejaVuSans-32" x="354.199219"/>
       <use xlink:href="#DejaVuSans-2d" x="417.822266"/>
       <use xlink:href="#DejaVuSans-31" x="453.90625"/>
       <use xlink:href="#DejaVuSans-35" x="517.529297"/>
      </g>
     </g>
    </g>
    <g id="xtick_5">
     <g id="line2d_5">
      <g>
       <use xlink:href="#m2850956113" x="899.306377" y="512.64" style="stroke: #000000; stroke-width: 0.8"/>
      </g>
     </g>
     <g id="text_5">
      <!-- 2026-03-01 -->
      <g transform="translate(870.248565 527.238438) scale(0.1 -0.1)">
       <defs>
        <path id="DejaVuSans-33" d="M 2597 2516 
Q 3050 2419 3304 2112 
Q 3559 1806 3559 1356 
Q 3559 666 3084 287 
Q 2609 -91 1734 -91 
Q 1441 -91 1130 -33 
Q 819 25 488 141 
L 488 750 
Q 750 597 1062 519 
Q 1375 441 1716 441 
Q 2309 441 2620 675 
Q 2931 909 2931 1356 
Q 2931 1769 2642 2001 
Q 2353 2234 1838 2234 
L 1294 2234 
L 1294 2753 
L 1863 2753 
Q 2328 2753 2575 2939 
Q 2822 3125 2822 3475 
Q 2822 3834 2567 4026 
Q 2313 4219 1838 4219 
Q 1578 4219 1281 4162 
Q 984 4106 628 3988 
L 628 4550 
Q 988 4650 1302 4700 
Q 1616 4750 1894 4750 
Q 2613 4750 3031 4423 
Q 3450 4097 3450 3541 
Q 3450 3153 3228 2886 
Q 3006 2619 2597 2516 
z
" transform="scale(0.015625)"/>
       </defs>
       <use xlink:href="#DejaVuSans-32"/>
       <use xlink:href="#DejaVuSans-30" x="63.623047"/>
       <use xlink:href="#DejaVuSans-32" x="127.246094"/>
       <use xlink:href="#DejaVuSans-36" x="190.869141"/>
       <use xlink:href="#DejaVuSans-2d" x="254.492188"/>
       <use xlink:href="#DejaVuSans-30" x="290.576172"/>
       <use xlink:href="#DejaVuSans-33" x="354.199219"/>
       <use xlink:href="#DejaVuSans-2d" x="417.822266"/>
       <use xlink:href="#DejaVuSans-30" x="453.90625"/>
       <use xlink:href="#DejaVuSans-31" x="517.529297"/>
      </g>
     </g>
    </g>
   </g>
   <g id="matplotlib.axis_2">
    <g id="ytick_1">
     <g id="line2d_6">
      <defs>
       <path id="mc844f05be7" d="M 0 0 
L -3.5 0 
" style="stroke: #000000; stroke-width: 0.8"/>
      </defs>
      <g>
       <use xlink:href="#mc844f05be7" x="144" y="509.6596" style="stroke: #000000; stroke-width: 0.8"/>
      </g>
     </g>
     <g id="text_6">
      <!-- 13000 -->
      <g transform="translate(105.1875 513.458818) scale(0.1 -0.1)">
       <use xlink:href="#DejaVuSans-31"/>
       <use xlink:href="#DejaVuSans-33" x="63.623047"/>
       <use xlink:href="#DejaVuSans-30" x="127.246094"/>
       <use xlink:href="#DejaVuSans-30" x="190.869141"/>
       <use xlink:href="#DejaVuSans-30" x="254.492188"/>
      </g>
     </g>
    </g>
    <g id="ytick_2">
     <g id="line2d_7">
      <g>
       <use xlink:href="#mc844f05be7" x="144" y="457.600207" style="stroke: #000000; stroke-width: 0.8"/>
      </g>
     </g>
     <g id="text_7">
      <!-- 13200 -->
      <g transform="translate(105.1875 461.399425) scale(0.1 -0.1)">
       <use xlink:href="#DejaVuSans-31"/>
       <use xlink:href="#DejaVuSans-33" x="63.623047"/>
       <use xlink:href="#DejaVuSans-32" x="127.246094"/>
       <use xlink:href="#DejaVuSans-30" x="190.869141"/>
       <use xlink:href="#DejaVuSans-30" x="254.492188"/>
      </g>
     </g>
    </g>
    <g id="ytick_3">
     <g id="line2d_8">
      <g>
       <use xlink:href="#mc844f05be7" x="144" y="405.540813" style="stroke: #000000; stroke-width: 0.8"/>
      </g>
     </g>
     <g id="text_8">
      <!-- 13400 -->
      <g transform="translate(105.1875 409.340032) scale(0.1 -0.1)">
       <defs>
        <path id="DejaVuSans-34" d="M 2419 4116 
L 825 1625 
L 2419 1625 
L 2419 4116 
z
M 2253 4666 
L 3047 4666 
L 3047 1625 
L 3713 1625 
L 3713 1100 
L 3047 1100 
L 3047 0 
L 2419 0 
L 2419 1100 
L 313 1100 
L 313 1709 
L 2253 4666 
z
" transform="scale(0.015625)"/>
       </defs>
       <use xlink:href="#DejaVuSans-31"/>
       <use xlink:href="#DejaVuSans-33" x="63.623047"/>
       <use xlink:href="#DejaVuSans-34" x="127.246094"/>
       <use xlink:href="#DejaVuSans-30" x="190.869141"/>
       <use xlink:href="#DejaVuSans-30" x="254.492188"/>
      </g>
     </g>
    </g>
    <g id="ytick_4">
     <g id="line2d_9">
      <g>
       <use xlink:href="#mc844f05be7" x="144" y="353.48142" style="stroke: #000000; stroke-width: 0.8"/>
      </g>
     </g>
     <g id="text_9">
      <!-- 13600 -->
      <g transform="translate(105.1875 357.280639) scale(0.1 -0.1)">
       <use xlink:href="#DejaVuSans-31"/>
       <use xlink:href="#DejaVuSans-33" x="63.623047"/>
       <use xlink:href="#DejaVuSans-36" x="127.246094"/>
       <use xlink:href="#DejaVuSans-30" x="190.869141"/>
       <use xlink:href="#DejaVuSans-30" x="254.492188"/>
      </g>
     </g>
    </g>
    <g id="ytick_5">
     <g id="line2d_10">
      <g>
       <use xlink:href="#mc844f05be7" x="144" y="301.422027" style="stroke: #000000; stroke-width: 0.8"/>
      </g>
     </g>
     <g id="text_10">
      <!-- 13800 -->
      <g transform="translate(105.1875 305.221246) scale(0.1 -0.1)">
       <defs>
        <path id="DejaVuSans-38" d="M 2034 2216 
Q 1584 2216 1326 1975 
Q 1069 1734 1069 1313 
Q 1069 891 1326 650 
Q 1584 409 2034 409 
Q 2484 409 2743 651 
Q 3003 894 3003 1313 
Q 3003 1734 2745 1975 
Q 2488 2216 2034 2216 
z
M 1403 2484 
Q 997 2584 770 2862 
Q 544 3141 544 3541 
Q 544 4100 942 4425 
Q 1341 4750 2034 4750 
Q 2731 4750 3128 4425 
Q 3525 4100 3525 3541 
Q 3525 3141 3298 2862 
Q 3072 2584 2669 2484 
Q 3125 2378 3379 2068 
Q 3634 1759 3634 1313 
Q 3634 634 3220 271 
Q 2806 -91 2034 -91 
Q 1263 -91 848 271 
Q 434 634 434 1313 
Q 434 1759 690 2068 
Q 947 2378 1403 2484 
z
M 1172 3481 
Q 1172 3119 1398 2916 
Q 1625 2713 2034 2713 
Q 2441 2713 2670 2916 
Q 2900 3119 2900 3481 
Q 2900 3844 2670 4047 
Q 2441 4250 2034 4250 
Q 1625 4250 1398 4047 
Q 1172 3844 1172 3481 
z
" transform="scale(0.015625)"/>
       </defs>
       <use xlink:href="#DejaVuSans-31"/>
       <use xlink:href="#DejaVuSans-33" x="63.623047"/>
       <use xlink:href="#DejaVuSans-38" x="127.246094"/>
       <use xlink:href="#DejaVuSans-30" x="190.869141"/>
       <use xlink:href="#DejaVuSans-30" x="254.492188"/>
      </g>
     </g>
    </g>
    <g id="ytick_6">
     <g id="line2d_11">
      <g>
       <use xlink:href="#mc844f05be7" x="144" y="249.362634" style="stroke: #000000; stroke-width: 0.8"/>
      </g>
     </g>
     <g id="text_11">
      <!-- 14000 -->
      <g transform="translate(105.1875 253.161853) scale(0.1 -0.1)">
       <use xlink:href="#DejaVuSans-31"/>
       <use xlink:href="#DejaVuSans-34" x="63.623047"/>
       <use xlink:href="#DejaVuSans-30" x="127.246094"/>
       <use xlink:href="#DejaVuSans-30" x="190.869141"/>
       <use xlink:href="#DejaVuSans-30" x="254.492188"/>
      </g>
     </g>
    </g>
    <g id="ytick_7">
     <g id="line2d_12">
      <g>
       <use xlink:href="#mc844f05be7" x="144" y="197.303241" style="stroke: #000000; stroke-width: 0.8"/>
      </g>
     </g>
     <g id="text_12">
      <!-- 14200 -->
      <g transform="translate(105.1875 201.10246) scale(0.1 -0.1)">
       <use xlink:href="#DejaVuSans-31"/>
       <use xlink:href="#DejaVuSans-34" x="63.623047"/>
       <use xlink:href="#DejaVuSans-32" x="127.246094"/>
       <use xlink:href="#DejaVuSans-30" x="190.869141"/>
       <use xlink:href="#DejaVuSans-30" x="254.492188"/>
      </g>
     </g>
    </g>
    <g id="ytick_8">
     <g id="line2d_13">
      <g>
       <use xlink:href="#mc844f05be7" x="144" y="145.243848" style="stroke: #000000; stroke-width: 0.8"/>
      </g>
     </g>
     <g id="text_13">
      <!-- 14400 -->
      <g transform="translate(105.1875 149.043066) scale(0.1 -0.1)">
       <use xlink:href="#DejaVuSans-31"/>
       <use xlink:href="#DejaVuSans-34" x="63.623047"/>
       <use xlink:href="#DejaVuSans-34" x="127.246094"/>
       <use xlink:href="#DejaVuSans-30" x="190.869141"/>
       <use xlink:href="#DejaVuSans-30" x="254.492188"/>
      </g>
     </g>
    </g>
    <g id="ytick_9">
     <g id="line2d_14">
      <g>
       <use xlink:href="#mc844f05be7" x="144" y="93.184454" style="stroke: #000000; stroke-width: 0.8"/>
      </g>
     </g>
     <g id="text_14">
      <!-- 14600 -->
      <g transform="translate(105.1875 96.983673) scale(0.1 -0.1)">
       <use xlink:href="#DejaVuSans-31"/>
       <use xlink:href="#DejaVuSans-34" x="63.623047"/>
       <use xlink:href="#DejaVuSans-36" x="127.246094"/>
       <use xlink:href="#DejaVuSans-30" x="190.869141"/>
       <use xlink:href="#DejaVuSans-30" x="254.492188"/>
      </g>
     </g>
    </g>
   </g>
   <g id="line2d_15">
    <path d="M 184.581818 492.48 
L 196.695794 488.054952 
L 208.809769 480.766637 
L 220.923745 477.90337 
L 233.03772 476.601885 
L 245.151696 472.176837 
L 257.265672 468.272382 
L 269.379647 458.120801 
L 281.493623 452.914861 
L 293.607598 450.572189 
L 305.721574 450.051595 
L 317.83555 439.639716 
L 329.949525 433.132292 
L 342.063501 429.748431 
L 354.177476 421.418928 
L 366.291452 410.226159 
L 378.405427 409.184971 
L 390.519403 406.321704 
L 402.633379 399.293686 
L 414.747354 396.170123 
L 426.86133 383.155274 
L 438.975305 376.127256 
L 451.089281 369.880129 
L 463.203256 362.331517 
L 475.317232 361.290329 
L 487.431208 360.249141 
L 499.545183 350.618154 
L 511.659159 337.603305 
L 523.773134 329.273802 
L 535.88711 322.245784 
L 548.001085 321.204597 
L 560.115061 318.34133 
L 572.229037 313.135391 
L 584.343012 306.888263 
L 596.456988 304.805888 
L 608.570963 297.517573 
L 620.684939 293.092524 
L 632.798915 290.229258 
L 644.91289 280.077676 
L 657.026866 276.954112 
L 669.140841 268.104015 
L 681.254817 262.898076 
L 693.368792 259.774513 
L 705.482768 254.568573 
L 717.596744 252.225901 
L 729.710719 242.594913 
L 741.824695 230.100658 
L 753.93867 227.757986 
L 766.052646 222.552046 
L 778.166621 217.346107 
L 790.280597 212.660762 
L 802.394573 207.715119 
L 814.508548 199.90621 
L 826.622524 191.837005 
L 838.736499 180.644235 
L 850.850475 175.177999 
L 862.96445 159.820478 
L 875.078426 153.833648 
L 887.192402 150.710084 
L 899.306377 145.243848 
L 911.420353 138.21583 
L 923.534328 133.00989 
L 935.648304 125.200981 
L 947.76228 120.775933 
L 959.876255 114.528806 
L 971.990231 109.84346 
L 984.104206 106.4596 
L 996.218182 89.28 
" clip-path="url(#p3f435f9df0)" style="fill: none; stroke: #1f77b4; stroke-width: 1.5; stroke-linecap: square"/>
   </g>
   <g id="patch_3">
    <path d="M 144 512.64 
L 144 69.12 
" style="fill: none; stroke: #000000; stroke-width: 0.8; stroke-linejoin: miter; stroke-linecap: square"/>
   </g>
   <g id="patch_4">
    <path d="M 1036.8 512.64 
L 1036.8 69.12 
" style="fill: none; stroke: #000000; stroke-width: 0.8; stroke-linejoin: miter; stroke-linecap: square"/>
   </g>
   <g id="patch_5">
    <path d="M 144 512.64 
L 1036.8 512.64 
" style="fill: none; stroke: #000000; stroke-width: 0.8; stroke-linejoin: miter; stroke-linecap: square"/>
   </g>
   <g id="patch_6">
    <path d="M 144 69.12 
L 1036.8 69.12 
" style="fill: none; stroke: #000000; stroke-width: 0.8; stroke-linejoin: miter; stroke-linecap: square"/>
   </g>
   <g id="text_15">
    <!-- Number of AEDs in the OpenStreetMap database in Poland from 2026-01-01, day by day. As at: 2026-03-09 -->
    <g transform="translate(144 63.12) scale(0.14 -0.14)">
     <defs>
      <path id="DejaVuSans-4e" d="M 628 4666 
L 1478 4666 
L 3547 763 
L 3547 4666 
L 4159 4666 
L 4159 0 
L 3309 0 
L 1241 3903 
L 1241 0 
L 628 0 
L 628 4666 
z
" transform="scale(0.015625)"/>
      <path id="DejaVuSans-75" d="M 544 1381 
L 544 3500 
L 1119 3500 
L 1119 1403 
Q 1119 906 1312 657 
Q 1506 409 1894 409 
Q 2359 409 2629 706 
Q 2900 1003 2900 1516 
L 2900 3500 
L 3475 3500 
L 3475 0 
L 2900 0 
L 2900 538 
Q 2691 219 2414 64 
Q 2138 -91 1772 -91 
Q 1169 -91 856 284 
Q 544 659 544 1381 
z
M 1991 3584 
L 1991 3584 
z
" transform="scale(0.015625)"/>
      <path id="DejaVuSans-6d" d="M 3328 2828 
Q 3544 3216 3844 3400 
Q 4144 3584 4550 3584 
Q 5097 3584 5394 3201 
Q 5691 2819 5691 2113 
L 5691 0 
L 5113 0 
L 5113 2094 
Q 5113 2597 4934 2840 
Q 4756 3084 4391 3084 
Q 3944 3084 3684 2787 
Q 3425 2491 3425 1978 
L 3425 0 
L 2847 0 
L 2847 2094 
Q 2847 2600 2669 2842 
Q 2491 3084 2119 3084 
Q 1678 3084 1418 2786 
Q 1159 2488 1159 1978 
L 1159 0 
L 581 0 
L 581 3500 
L 1159 3500 
L 1159 2956 
Q 1356 3278 1631 3431 
Q 1906 3584 2284 3584 
Q 2666 3584 2933 3390 
Q 3200 3197 3328 2828 
z
" transform="scale(0.015625)"/>
      <path id="DejaVuSans-62" d="M 3116 1747 
Q 3116 2381 2855 2742 
Q 2594 3103 2138 3103 
Q 1681 3103 1420 2742 
Q 1159 2381 1159 1747 
Q 1159 1113 1420 752 
Q 1681 391 2138 391 
Q 2594 391 2855 752 
Q 3116 1113 3116 1747 
z
M 1159 2969 
Q 1341 3281 1617 3432 
Q 1894 3584 2278 3584 
Q 2916 3584 3314 3078 
Q 3713 2572 3713 1747 
Q 3713 922 3314 415 
Q 2916 -91 2278 -91 
Q 1894 -91 1617 61 
Q 1341 213 1159 525 
L 1159 0 
L 581 0 
L 581 4863 
L 1159 4863 
L 1159 2969 
z
" transform="scale(0.015625)"/>
      <path id="DejaVuSans-65" d="M 3597 1894 
L 3597 1613 
L 953 1613 
Q 991 1019 1311 708 
Q 1631 397 2203 397 
Q 2534 397 2845 478 
Q 3156 559 3463 722 
L 3463 178 
Q 3153 47 2828 -22 
Q 2503 -91 2169 -91 
Q 1331 -91 842 396 
Q 353 884 353 1716 
Q 353 2575 817 3079 
Q 1281 3584 2069 3584 
Q 2775 3584 3186 3129 
Q 3597 2675 3597 1894 
z
M 3022 2063 
Q 3016 2534 2758 2815 
Q 2500 3097 2075 3097 
Q 1594 3097 1305 2825 
Q 1016 2553 972 2059 
L 3022 2063 
z
" transform="scale(0.015625)"/>
      <path id="DejaVuSans-72" d="M 2631 2963 
Q 2534 3019 2420 3045 
Q 2306 3072 2169 3072 
Q 1681 3072 1420 2755 
Q 1159 2438 1159 1844 
L 1159 0 
L 581 0 
L 581 3500 
L 1159 3500 
L 1159 2956 
Q 1341 3275 1631 3429 
Q 1922 3584 2338 3584 
Q 2397 3584 2469 3576 
Q 2541 3569 2628 3553 
L 2631 2963 
z
" transform="scale(0.015625)"/>
      <path id="DejaVuSans-20" transform="scale(0.015625)"/>
      <path id="DejaVuSans-6f" d="M 1959 3097 
Q 1497 3097 1228 2736 
Q 959 2375 959 1747 
Q 959 1119 1226 758 
Q 1494 397 1959 397 
Q 2419 397 2687 759 
Q 2956 1122 2956 1747 
Q 2956 2369 2687 2733 
Q 2419 3097 1959 3097 
z
M 1959 3584 
Q 2709 3584 3137 3096 
Q 3566 2609 3566 1747 
Q 3566 888 3137 398 
Q 2709 -91 1959 -91 
Q 1206 -91 779 398 
Q 353 888 353 1747 
Q 353 2609 779 3096 
Q 1206 3584 1959 3584 
z
" transform="scale(0.015625)"/>
      <path id="DejaVuSans-66" d="M 2375 4863 
L 2375 4384 
L 1825 4384 
Q 1516 4384 1395 4259 
Q 1275 4134 1275 3809 
L 1275 3500 
L 2222 3500 
L 2222 3053 
L 1275 3053 
L 1275 0 
L 697 0 
L 697 3053 
L 147 3053 
L 147 3500 
L 697 3500 
L 697 3744 
Q 697 4328 969 4595 
Q 1241 4863 1831 4863 
L 2375 4863 
z
" transform="scale(0.015625)"/>
      <path id="DejaVuSans-41" d="M 2188 4044 
L 1331 1722 
L 3047 1722 
L 2188 4044 
z
M 1831 4666 
L 2547 4666 
L 4325 0 
L 3669 0 
L 3244 1197 
L 1141 1197 
L 716 0 
L 50 0 
L 1831 4666 
z
" transform="scale(0.015625)"/>
      <path id="DejaVuSans-45" d="M 628 4666 
L 3578 4666 
L 3578 4134 
L 1259 4134 
L 1259 2753 
L 3481 2753 
L 3481 2222 
L 1259 2222 
L 1259 531 
L 3634 531 
L 3634 0 
L 628 0 
L 628 4666 
z
" transform="scale(0.015625)"/>
      <path id="DejaVuSans-44" d="M 1259 4147 
L 1259 519 
L 2022 519 
Q 2988 519 3436 956 
Q 3884 1394 3884 2338 
Q 3884 3275 3436 3711 
Q 2988 4147 2022 4147 
L 1259 4147 
z
M 628 4666 
L 1925 4666 
Q 3281 4666 3915 4102 
Q 4550 3538 4550 2338 
Q 4550 1131 3912 565 
Q 3275 0 1925 0 
L 628 0 
L 628 4666 
z
" transform="scale(0.015625)"/>
      <path id="DejaVuSans-73" d="M 2834 3397 
L 2834 2853 
Q 2591 2978 2328 3040 
Q 2066 3103 1784 3103 
Q 1356 3103 1142 2972 
Q 928 2841 928 2578 
Q 928 2378 1081 2264 
Q 1234 2150 1697 2047 
L 1894 2003 
Q 2506 1872 2764 1633 
Q 3022 1394 3022 966 
Q 3022 478 2636 193 
Q 2250 -91 1575 -91 
Q 1294 -91 989 -36 
Q 684 19 347 128 
L 347 722 
Q 666 556 975 473 
Q 1284 391 1588 391 
Q 1994 391 2212 530 
Q 2431 669 2431 922 
Q 2431 1156 2273 1281 
Q 2116 1406 1581 1522 
L 1381 1569 
Q 847 1681 609 1914 
Q 372 2147 372 2553 
Q 372 3047 722 3315 
Q 1072 3584 1716 3584 
Q 2034 3584 2315 3537 
Q 2597 3491 2834 3397 
z
" transform="scale(0.015625)"/>
      <path id="DejaVuSans-69" d="M 603 3500 
L 1178 3500 
L 1178 0 
L 603 0 
L 603 3500 
z
M 603 4863 
L 1178 4863 
L 1178 4134 
L 603 4134 
L 603 4863 
z
" transform="scale(0.015625)"/>
      <path id="DejaVuSans-6e" d="M 3513 2113 
L 3513 0 
L 2938 0 
L 2938 2094 
Q 2938 2591 2744 2837 
Q 2550 3084 2163 3084 
Q 1697 3084 1428 2787 
Q 1159 2491 1159 1978 
L 1159 0 
L 581 0 
L 581 3500 
L 1159 3500 
L 1159 2956 
Q 1366 3272 1645 3428 
Q 1925 3584 2291 3584 
Q 2894 3584 3203 3211 
Q 3513 2838 3513 2113 
z
" transform="scale(0.015625)"/>
      <path id="DejaVuSans-74" d="M 1172 4494 
L 1172 3500 
L 2356 3500 
L 2356 3053 
L 1172 3053 
L 1172 1153 
Q 1172 725 1289 603 
Q 1406 481 1766 481 
L 2356 481 
L 2356 0 
L 1766 0 
Q 1100 0 847 248 
Q 594 497 594 1153 
L 594 3053 
L 172 3053 
L 172 3500 
L 594 3500 
L 594 4494 
L 1172 4494 
z
" transform="scale(0.015625)"/>
      <path id="DejaVuSans-68" d="M 3513 2113 
L 3513 0 
L 2938 0 
L 2938 2094 
Q 2938 2591 2744 2837 
Q 2550 3084 2163 3084 
Q 1697 3084 1428 2787 
Q 1159 2491 1159 1978 
L 1159 0 
L 581 0 
L 581 4863 
L 1159 4863 
L 1159 2956 
Q 1366 3272 1645 3428 
Q 1925 3584 2291 3584 
Q 2894 3584 3203 3211 
Q 3513 2838 3513 2113 
z
" transform="scale(0.015625)"/>
      <path id="DejaVuSans-4f" d="M 2522 4238 
Q 1834 4238 1429 3725 
Q 1025 3213 1025 2328 
Q 1025 1447 1429 934 
Q 1834 422 2522 422 
Q 3209 422 3611 934 
Q 4013 1447 4013 2328 
Q 4013 3213 3611 3725 
Q 3209 4238 2522 4238 
z
M 2522 4750 
Q 3503 4750 4090 4092 
Q 4678 3434 4678 2328 
Q 4678 1225 4090 567 
Q 3503 -91 2522 -91 
Q 1538 -91 948 565 
Q 359 1222 359 2328 
Q 359 3434 948 4092 
Q 1538 4750 2522 4750 
z
" transform="scale(0.015625)"/>
      <path id="DejaVuSans-70" d="M 1159 525 
L 1159 -1331 
L 581 -1331 
L 581 3500 
L 1159 3500 
L 1159 2969 
Q 1341 3281 1617 3432 
Q 1894 3584 2278 3584 
Q 2916 3584 3314 3078 
Q 3713 2572 3713 1747 
Q 3713 922 3314 415 
Q 2916 -91 2278 -91 
Q 1894 -91 1617 61 
Q 1341 213 1159 525 
z
M 3116 1747 
Q 3116 2381 2855 2742 
Q 2594 3103 2138 3103 
Q 1681 3103 1420 2742 
Q 1159 2381 1159 1747 
Q 1159 1113 1420 752 
Q 1681 391 2138 391 
Q 2594 391 2855 752 
Q 3116 1113 3116 1747 
z
" transform="scale(0.015625)"/>
      <path id="DejaVuSans-53" d="M 3425 4513 
L 3425 3897 
Q 3066 4069 2747 4153 
Q 2428 4238 2131 4238 
Q 1616 4238 1336 4038 
Q 1056 3838 1056 3469 
Q 1056 3159 1242 3001 
Q 1428 2844 1947 2747 
L 2328 2669 
Q 3034 2534 3370 2195 
Q 3706 1856 3706 1288 
Q 3706 609 3251 259 
Q 2797 -91 1919 -91 
Q 1588 -91 1214 -16 
Q 841 59 441 206 
L 441 856 
Q 825 641 1194 531 
Q 1563 422 1919 422 
Q 2459 422 2753 634 
Q 3047 847 3047 1241 
Q 3047 1584 2836 1778 
Q 2625 1972 2144 2069 
L 1759 2144 
Q 1053 2284 737 2584 
Q 422 2884 422 3419 
Q 422 4038 858 4394 
Q 1294 4750 2059 4750 
Q 2388 4750 2728 4690 
Q 3069 4631 3425 4513 
z
" transform="scale(0.015625)"/>
      <path id="DejaVuSans-4d" d="M 628 4666 
L 1569 4666 
L 2759 1491 
L 3956 4666 
L 4897 4666 
L 4897 0 
L 4281 0 
L 4281 4097 
L 3078 897 
L 2444 897 
L 1241 4097 
L 1241 0 
L 628 0 
L 628 4666 
z
" transform="scale(0.015625)"/>
      <path id="DejaVuSans-61" d="M 2194 1759 
Q 1497 1759 1228 1600 
Q 959 1441 959 1056 
Q 959 750 1161 570 
Q 1363 391 1709 391 
Q 2188 391 2477 730 
Q 2766 1069 2766 1631 
L 2766 1759 
L 2194 1759 
z
M 3341 1997 
L 3341 0 
L 2766 0 
L 2766 531 
Q 2569 213 2275 61 
Q 1981 -91 1556 -91 
Q 1019 -91 701 211 
Q 384 513 384 1019 
Q 384 1609 779 1909 
Q 1175 2209 1959 2209 
L 2766 2209 
L 2766 2266 
Q 2766 2663 2505 2880 
Q 2244 3097 1772 3097 
Q 1472 3097 1187 3025 
Q 903 2953 641 2809 
L 641 3341 
Q 956 3463 1253 3523 
Q 1550 3584 1831 3584 
Q 2591 3584 2966 3190 
Q 3341 2797 3341 1997 
z
" transform="scale(0.015625)"/>
      <path id="DejaVuSans-64" d="M 2906 2969 
L 2906 4863 
L 3481 4863 
L 3481 0 
L 2906 0 
L 2906 525 
Q 2725 213 2448 61 
Q 2172 -91 1784 -91 
Q 1150 -91 751 415 
Q 353 922 353 1747 
Q 353 2572 751 3078 
Q 1150 3584 1784 3584 
Q 2172 3584 2448 3432 
Q 2725 3281 2906 2969 
z
M 947 1747 
Q 947 1113 1208 752 
Q 1469 391 1925 391 
Q 2381 391 2643 752 
Q 2906 1113 2906 1747 
Q 2906 2381 2643 2742 
Q 2381 3103 1925 3103 
Q 1469 3103 1208 2742 
Q 947 2381 947 1747 
z
" transform="scale(0.015625)"/>
      <path id="DejaVuSans-50" d="M 1259 4147 
L 1259 2394 
L 2053 2394 
Q 2494 2394 2734 2622 
Q 2975 2850 2975 3272 
Q 2975 3691 2734 3919 
Q 2494 4147 2053 4147 
L 1259 4147 
z
M 628 4666 
L 2053 4666 
Q 2838 4666 3239 4311 
Q 3641 3956 3641 3272 
Q 3641 2581 3239 2228 
Q 2838 1875 2053 1875 
L 1259 1875 
L 1259 0 
L 628 0 
L 628 4666 
z
" transform="scale(0.015625)"/>
      <path id="DejaVuSans-6c" d="M 603 4863 
L 1178 4863 
L 1178 0 
L 603 0 
L 603 4863 
z
" transform="scale(0.015625)"/>
      <path id="DejaVuSans-2c" d="M 750 794 
L 1409 794 
L 1409 256 
L 897 -744 
L 494 -744 
L 750 256 
L 750 794 
z
" transform="scale(0.015625)"/>
      <path id="DejaVuSans-79" d="M 2059 -325 
Q 1816 -950 1584 -1140 
Q 1353 -1331 966 -1331 
L 506 -1331 
L 506 -850 
L 844 -850 
Q 1081 -850 1212 -737 
Q 1344 -625 1503 -206 
L 1606 56 
L 191 3500 
L 800 3500 
L 1894 763 
L 2988 3500 
L 3597 3500 
L 2059 -325 
z
" transform="scale(0.015625)"/>
      <path id="DejaVuSans-2e" d="M 684 794 
L 1344 794 
L 1344 0 
L 684 0 
L 684 794 
z
" transform="scale(0.015625)"/>
      <path id="DejaVuSans-3a" d="M 750 794 
L 1409 794 
L 1409 0 
L 750 0 
L 750 794 
z
M 750 3309 
L 1409 3309 
L 1409 2516 
L 750 2516 
L 750 3309 
z
" transform="scale(0.015625)"/>
      <path id="DejaVuSans-39" d="M 703 97 
L 703 672 
Q 941 559 1184 500 
Q 1428 441 1663 441 
Q 2288 441 2617 861 
Q 2947 1281 2994 2138 
Q 2813 1869 2534 1725 
Q 2256 1581 1919 1581 
Q 1219 1581 811 2004 
Q 403 2428 403 3163 
Q 403 3881 828 4315 
Q 1253 4750 1959 4750 
Q 2769 4750 3195 4129 
Q 3622 3509 3622 2328 
Q 3622 1225 3098 567 
Q 2575 -91 1691 -91 
Q 1453 -91 1209 -44 
Q 966 3 703 97 
z
M 1959 2075 
Q 2384 2075 2632 2365 
Q 2881 2656 2881 3163 
Q 2881 3666 2632 3958 
Q 2384 4250 1959 4250 
Q 1534 4250 1286 3958 
Q 1038 3666 1038 3163 
Q 1038 2656 1286 2365 
Q 1534 2075 1959 2075 
z
" transform="scale(0.015625)"/>
     </defs>
     <use xlink:href="#DejaVuSans-4e"/>
     <use xlink:href="#DejaVuSans-75" x="74.804688"/>
     <use xlink:href="#DejaVuSans-6d" x="138.183594"/>
     <use xlink:href="#DejaVuSans-62" x="235.595703"/>
     <use xlink:href="#DejaVuSans-65" x="299.072266"/>
     <use xlink:href="#DejaVuSans-72" x="360.595703"/>
     <use xlink:href="#DejaVuSans-20" x="401.708984"/>
     <use xlink:href="#DejaVuSans-6f" x="433.496094"/>
     <use xlink:href="#DejaVuSans-66" x="494.677734"/>
     <use xlink:href="#DejaVuSans-20" x="529.882812"/>
     <use xlink:href="#DejaVuSans-41" x="561.669922"/>
     <use xlink:href="#DejaVuSans-45" x="630.078125"/>
     <use xlink:href="#DejaVuSans-44" x="693.261719"/>
     <use xlink:href="#DejaVuSans-73" x="770.263672"/>
     <use xlink:href="#DejaVuSans-20" x="822.363281"/>
     <use xlink:href="#DejaVuSans-69" x="854.150391"/>
     <use xlink:href="#DejaVuSans-6e" x="881.933594"/>
     <use xlink:href="#DejaVuSans-20" x="945.3125"/>
     <use xlink:href="#DejaVuSans-74" x="977.099609"/>
     <use xlink:href="#DejaVuSans-68" x="1016.308594"/>
     <use xlink:href="#DejaVuSans-65" x="1079.6875"/>
     <use xlink:href="#DejaVuSans-20" x="1141.210938"/>
     <use xlink:href="#DejaVuSans-4f" x="1172.998047"/>
     <use xlink:href="#DejaVuSans-70" x="1251.708984"/>
     <use xlink:href="#DejaVuSans-65" x="1315.185547"/>
     <use xlink:href="#DejaVuSans-6e" x="1376.708984"/>
     <use xlink:href="#DejaVuSans-53" x="1440.087891"/>
     <use xlink:href="#DejaVuSans-74" x="1503.564453"/>
     <use xlink:href="#DejaVuSans-72" x="1542.773438"/>
     <use xlink:href="#DejaVuSans-65" x="1581.636719"/>
     <use xlink:href="#DejaVuSans-65" x="1643.160156"/>
     <use xlink:href="#DejaVuSans-74" x="1704.683594"/>
     <use xlink:href="#DejaVuSans-4d" x="1743.892578"/>
     <use xlink:href="#DejaVuSans-61" x="1830.171875"/>
     <use xlink:href="#DejaVuSans-70" x="1891.451172"/>
     <use xlink:href="#DejaVuSans-20" x="1954.927734"/>
     <use xlink:href="#DejaVuSans-64" x="1986.714844"/>
     <use xlink:href="#DejaVuSans-61" x="2050.191406"/>
     <use xlink:href="#DejaVuSans-74" x="2111.470703"/>
     <use xlink:href="#DejaVuSans-61" x="2150.679688"/>
     <use xlink:href="#DejaVuSans-62" x="2211.958984"/>
     <use xlink:href="#DejaVuSans-61" x="2275.435547"/>
     <use xlink:href="#DejaVuSans-73" x="2336.714844"/>
     <use xlink:href="#DejaVuSans-65" x="2388.814453"/>
     <use xlink:href="#DejaVuSans-20" x="2450.337891"/>
     <use xlink:href="#DejaVuSans-69" x="2482.125"/>
     <use xlink:href="#DejaVuSans-6e" x="2509.908203"/>
     <use xlink:href="#DejaVuSans-20" x="2573.287109"/>
     <use xlink:href="#DejaVuSans-50" x="2605.074219"/>
     <use xlink:href="#DejaVuSans-6f" x="2661.751953"/>
     <use xlink:href="#DejaVuSans-6c" x="2722.933594"/>
     <use xlink:href="#DejaVuSans-61" x="2750.716797"/>
     <use xlink:href="#DejaVuSans-6e" x="2811.996094"/>
     <use xlink:href="#DejaVuSans-64" x="2875.375"/>
     <use xlink:href="#DejaVuSans-20" x="2938.851562"/>
     <use xlink:href="#DejaVuSans-66" x="2970.638672"/>
     <use xlink:href="#DejaVuSans-72" x="3005.84375"/>
     <use xlink:href="#DejaVuSans-6f" x="3044.707031"/>
     <use xlink:href="#DejaVuSans-6d" x="3105.888672"/>
     <use xlink:href="#DejaVuSans-20" x="3203.300781"/>
     <use xlink:href="#DejaVuSans-32" x="3235.087891"/>
     <use xlink:href="#DejaVuSans-30" x="3298.710938"/>
     <use xlink:href="#DejaVuSans-32" x="3362.333984"/>
     <use xlink:href="#DejaVuSans-36" x="3425.957031"/>
     <use xlink:href="#DejaVuSans-2d" x="3489.580078"/>
     <use xlink:href="#DejaVuSans-30" x="3525.664062"/>
     <use xlink:href="#DejaVuSans-31" x="3589.287109"/>
     <use xlink:href="#DejaVuSans-2d" x="3652.910156"/>
     <use xlink:href="#DejaVuSans-30" x="3688.994141"/>
     <use xlink:href="#DejaVuSans-31" x="3752.617188"/>
     <use xlink:href="#DejaVuSans-2c" x="3816.240234"/>
     <use xlink:href="#DejaVuSans-20" x="3848.027344"/>
     <use xlink:href="#DejaVuSans-64" x="3879.814453"/>
     <use xlink:href="#DejaVuSans-61" x="3943.291016"/>
     <use xlink:href="#DejaVuSans-79" x="4004.570312"/>
     <use xlink:href="#DejaVuSans-20" x="4063.75"/>
     <use xlink:href="#DejaVuSans-62" x="4095.537109"/>
     <use xlink:href="#DejaVuSans-79" x="4159.013672"/>
     <use xlink:href="#DejaVuSans-20" x="4218.193359"/>
     <use xlink:href="#DejaVuSans-64" x="4249.980469"/>
     <use xlink:href="#DejaVuSans-61" x="4313.457031"/>
     <use xlink:href="#DejaVuSans-79" x="4374.736328"/>
     <use xlink:href="#DejaVuSans-2e" x="4419.666016"/>
     <use xlink:href="#DejaVuSans-20" x="4451.453125"/>
     <use xlink:href="#DejaVuSans-41" x="4483.240234"/>
     <use xlink:href="#DejaVuSans-73" x="4551.648438"/>
     <use xlink:href="#DejaVuSans-20" x="4603.748047"/>
     <use xlink:href="#DejaVuSans-61" x="4635.535156"/>
     <use xlink:href="#DejaVuSans-74" x="4696.814453"/>
     <use xlink:href="#DejaVuSans-3a" x="4736.023438"/>
     <use xlink:href="#DejaVuSans-20" x="4769.714844"/>
     <use xlink:href="#DejaVuSans-32" x="4801.501953"/>
     <use xlink:href="#DejaVuSans-30" x="4865.125"/>
     <use xlink:href="#DejaVuSans-32" x="4928.748047"/>
     <use xlink:href="#DejaVuSans-36" x="4992.371094"/>
     <use xlink:href="#DejaVuSans-2d" x="5055.994141"/>
     <use xlink:href="#DejaVuSans-30" x="5092.078125"/>
     <use xlink:href="#DejaVuSans-33" x="5155.701172"/>
     <use xlink:href="#DejaVuSans-2d" x="5219.324219"/>
     <use xlink:href="#DejaVuSans-30" x="5255.408203"/>
     <use xlink:href="#DejaVuSans-39" x="5319.03125"/>
    </g>
   </g>
  </g>
 </g>
 <defs>
  <clipPath id="p3f435f9df0">
   <rect x="144" y="69.12" width="892.8" height="443.52"/>
  </clipPath>
 </defs>
</svg>
