<?xml version="1.0" encoding="utf-8" standalone="no"?>
<!DOCTYPE svg PUBLIC "-//W3C//DTD SVG 1.1//EN"
  "http://www.w3.org/Graphics/SVG/1.1/DTD/svg11.dtd">
<svg xmlns:xlink="http://www.w3.org/1999/xlink" width="1152pt" height="576pt" viewBox="0 0 1152 576" xmlns="http://www.w3.org/2000/svg" version="1.1">
 <metadata>
  <rdf:RDF xmlns:dc="http://purl.org/dc/elements/1.1/" xmlns:cc="http://creativecommons.org/ns#" xmlns:rdf="http://www.w3.org/1999/02/22-rdf-syntax-ns#">
   <cc:Work>
    <dc:type rdf:resource="http://purl.org/dc/dcmitype/StillImage"/>
    <dc:date>1980-01-01T00:00:00+00:00</dc:date>
    <dc:format>image/svg+xml</dc:format>
    <dc:creator>
     <cc:Agent>
      <dc:title>Matplotlib v3.9.1, https://matplotlib.org/</dc:title>
     </cc:Agent>
    </dc:creator>
   </cc:Work>
  </rdf:RDF>
 </metadata>
 <defs>
  <style type="text/css">*{stroke-linejoin: round; stroke-linecap: butt}</style>
 </defs>
 <g id="figure_1">
  <g id="patch_1">
   <path d="M 0 576 
L 1152 576 
L 1152 0 
L 0 0 
z
" style="fill: #ffffff"/>
  </g>
  <g id="axes_1">
   <g id="patch_2">
    <path d="M 144 512.64 
L 1036.8 512.64 
L 1036.8 69.12 
L 144 69.12 
z
" style="fill: #ffffff"/>
   </g>
   <g id="PathCollection_1">
    <path d="M 184.581818 496.352983 
C 185.608945 496.352983 186.594142 495.944901 187.320431 495.218613 
C 188.04672 494.492324 188.454802 493.507127 188.454802 492.48 
C 188.454802 491.452873 188.04672 490.467676 187.320431 489.741387 
C 186.594142 489.015099 185.608945 488.607017 184.581818 488.607017 
C 183.554691 488.607017 182.569494 489.015099 181.843205 489.741387 
C 181.116917 490.467676 180.708835 491.452873 180.708835 492.48 
C 180.708835 493.507127 181.116917 494.492324 181.843205 495.218613 
C 182.569494 495.944901 183.554691 496.352983 184.581818 496.352983 
z
" clip-path="url(#p0d27a52e6b)" style="fill: #1f77b4; fill-opacity: 0.3; stroke: #1f77b4; stroke-opacity: 0.3"/>
    <path d="M 202.618182 491.879443 
C 204.397218 491.879443 206.10363 491.172624 207.361598 489.914655 
C 208.619567 488.656686 209.326386 486.950275 209.326386 485.171239 
C 209.326386 483.392202 208.619567 481.685791 207.361598 480.427822 
C 206.10363 479.169853 204.397218 478.463035 202.618182 478.463035 
C 200.839145 478.463035 199.132734 479.169853 197.874765 480.427822 
C 196.616797 481.685791 195.909978 483.392202 195.909978 485.171239 
C 195.909978 486.950275 196.616797 488.656686 197.874765 489.914655 
C 199.132734 491.172624 200.839145 491.879443 202.618182 491.879443 
z
" clip-path="url(#p0d27a52e6b)" style="fill: #1f77b4; fill-opacity: 0.3; stroke: #1f77b4; stroke-opacity: 0.3"/>
    <path d="M 220.654545 482.168655 
C 222.873394 482.168655 225.001663 481.287097 226.570625 479.718134 
C 228.139588 478.149171 229.021146 476.020903 229.021146 473.802054 
C 229.021146 471.583206 228.139588 469.454937 226.570625 467.885975 
C 225.001663 466.317012 222.873394 465.435454 220.654545 465.435454 
C 218.435697 465.435454 216.307428 466.317012 214.738466 467.885975 
C 213.169503 469.454937 212.287945 471.583206 212.287945 473.802054 
C 212.287945 476.020903 213.169503 478.149171 214.738466 479.718134 
C 216.307428 481.287097 218.435697 482.168655 220.654545 482.168655 
z
" clip-path="url(#p0d27a52e6b)" style="fill: #1f77b4; fill-opacity: 0.3; stroke: #1f77b4; stroke-opacity: 0.3"/>
    <path d="M 238.690909 474.579633 
C 240.081646 474.579633 241.415609 474.027088 242.399008 473.043688 
C 243.382408 472.060289 243.934953 470.726326 243.934953 469.335589 
C 243.934953 467.944852 243.382408 466.610889 242.399008 465.62749 
C 241.415609 464.64409 240.081646 464.091545 238.690909 464.091545 
C 237.300172 464.091545 235.966209 464.64409 234.98281 465.62749 
C 233.99941 466.610889 233.446865 467.944852 233.446865 469.335589 
C 233.446865 470.726326 233.99941 472.060289 234.98281 473.043688 
C 235.966209 474.027088 237.300172 474.579633 238.690909 474.579633 
z
" clip-path="url(#p0d27a52e6b)" style="fill: #1f77b4; fill-opacity: 0.3; stroke: #1f77b4; stroke-opacity: 0.3"/>
    <path d="M 256.727273 470.840912 
C 257.664907 470.840912 258.564265 470.468385 259.227273 469.805378 
C 259.89028 469.14237 260.262807 468.243012 260.262807 467.305378 
C 260.262807 466.367743 259.89028 465.468385 259.227273 464.805378 
C 258.564265 464.14237 257.664907 463.769844 256.727273 463.769844 
C 255.789638 463.769844 254.89028 464.14237 254.227273 464.805378 
C 253.564265 465.468385 253.191739 466.367743 253.191739 467.305378 
C 253.191739 468.243012 253.564265 469.14237 254.227273 469.805378 
C 254.89028 470.468385 255.789638 470.840912 256.727273 470.840912 
z
" clip-path="url(#p0d27a52e6b)" style="fill: #1f77b4; fill-opacity: 0.3; stroke: #1f77b4; stroke-opacity: 0.3"/>
    <path d="M 274.763636 466.921861 
C 276.492549 466.921861 278.150883 466.234957 279.373409 465.012431 
C 280.595934 463.789905 281.282839 462.131571 281.282839 460.402659 
C 281.282839 458.673746 280.595934 457.015412 279.373409 455.792886 
C 278.150883 454.57036 276.492549 453.883456 274.763636 453.883456 
C 273.034724 453.883456 271.37639 454.57036 270.153864 455.792886 
C 268.931338 457.015412 268.244434 458.673746 268.244434 460.402659 
C 268.244434 462.131571 268.931338 463.789905 270.153864 465.012431 
C 271.37639 466.234957 273.034724 466.921861 274.763636 466.921861 
z
" clip-path="url(#p0d27a52e6b)" style="fill: #1f77b4; fill-opacity: 0.3; stroke: #1f77b4; stroke-opacity: 0.3"/>
    <path d="M 292.8 460.230537 
C 294.477292 460.230537 296.086112 459.564142 297.272136 458.378118 
C 298.45816 457.192094 299.124555 455.583274 299.124555 453.905982 
C 299.124555 452.22869 298.45816 450.61987 297.272136 449.433846 
C 296.086112 448.247822 294.477292 447.581427 292.8 447.581427 
C 291.122708 447.581427 289.513888 448.247822 288.327864 449.433846 
C 287.14184 450.61987 286.475445 452.22869 286.475445 453.905982 
C 286.475445 455.583274 287.14184 457.192094 288.327864 458.378118 
C 289.513888 459.564142 291.122708 460.230537 292.8 460.230537 
z
" clip-path="url(#p0d27a52e6b)" style="fill: #1f77b4; fill-opacity: 0.3; stroke: #1f77b4; stroke-opacity: 0.3"/>
    <path d="M 310.836364 447.66429 
C 313.488395 447.66429 316.032162 446.610627 317.907431 444.735358 
C 319.782701 442.860089 320.836364 440.316321 320.836364 437.66429 
C 320.836364 435.012259 319.782701 432.468491 317.907431 430.593222 
C 316.032162 428.717953 313.488395 427.66429 310.836364 427.66429 
C 308.184333 427.66429 305.640565 428.717953 303.765296 430.593222 
C 301.890027 432.468491 300.836364 435.012259 300.836364 437.66429 
C 300.836364 440.316321 301.890027 442.860089 303.765296 444.735358 
C 305.640565 446.610627 308.184333 447.66429 310.836364 447.66429 
z
" clip-path="url(#p0d27a52e6b)" style="fill: #1f77b4; fill-opacity: 0.3; stroke: #1f77b4; stroke-opacity: 0.3"/>
    <path d="M 328.872727 436.614512 
C 330.747996 436.614512 332.546712 435.86946 333.872727 434.543444 
C 335.198743 433.217429 335.943795 431.418713 335.943795 429.543444 
C 335.943795 427.668175 335.198743 425.86946 333.872727 424.543444 
C 332.546712 423.217429 330.747996 422.472376 328.872727 422.472376 
C 326.997458 422.472376 325.198743 423.217429 323.872727 424.543444 
C 322.546712 425.86946 321.801659 427.668175 321.801659 429.543444 
C 321.801659 431.418713 322.546712 433.217429 323.872727 434.543444 
C 325.198743 435.86946 326.997458 436.614512 328.872727 436.614512 
z
" clip-path="url(#p0d27a52e6b)" style="fill: #1f77b4; fill-opacity: 0.3; stroke: #1f77b4; stroke-opacity: 0.3"/>
    <path d="M 346.909091 430.483021 
C 348.235106 430.483021 349.50699 429.95619 350.444625 429.018555 
C 351.382259 428.080921 351.909091 426.809037 351.909091 425.483021 
C 351.909091 424.157006 351.382259 422.885122 350.444625 421.947487 
C 349.50699 421.009853 348.235106 420.483021 346.909091 420.483021 
C 345.583075 420.483021 344.311192 421.009853 343.373557 421.947487 
C 342.435922 422.885122 341.909091 424.157006 341.909091 425.483021 
C 341.909091 426.809037 342.435922 428.080921 343.373557 429.018555 
C 344.311192 429.95619 345.583075 430.483021 346.909091 430.483021 
z
" clip-path="url(#p0d27a52e6b)" style="fill: #1f77b4; fill-opacity: 0.3; stroke: #1f77b4; stroke-opacity: 0.3"/>
    <path d="M 364.945455 426.907005 
C 365.538467 426.907005 366.10727 426.671398 366.526593 426.252075 
C 366.945916 425.832752 367.181523 425.263949 367.181523 424.670937 
C 367.181523 424.077924 366.945916 423.509121 366.526593 423.089798 
C 366.10727 422.670475 365.538467 422.434869 364.945455 422.434869 
C 364.352442 422.434869 363.783639 422.670475 363.364316 423.089798 
C 362.944993 423.509121 362.709387 424.077924 362.709387 424.670937 
C 362.709387 425.263949 362.944993 425.832752 363.364316 426.252075 
C 363.783639 426.671398 364.352442 426.907005 364.945455 426.907005 
z
" clip-path="url(#p0d27a52e6b)" style="fill: #1f77b4; fill-opacity: 0.3; stroke: #1f77b4; stroke-opacity: 0.3"/>
    <path d="M 382.981818 417.293164 
C 385.763292 417.293164 388.431218 416.188073 390.398017 414.221274 
C 392.364815 412.254475 393.469907 409.586549 393.469907 406.805076 
C 393.469907 404.023602 392.364815 401.355676 390.398017 399.388877 
C 388.431218 397.422078 385.763292 396.316987 382.981818 396.316987 
C 380.200345 396.316987 377.532419 397.422078 375.56562 399.388877 
C 373.598821 401.355676 372.49373 404.023602 372.49373 406.805076 
C 372.49373 409.586549 373.598821 412.254475 375.56562 414.221274 
C 377.532419 416.188073 380.200345 417.293164 382.981818 417.293164 
z
" clip-path="url(#p0d27a52e6b)" style="fill: #1f77b4; fill-opacity: 0.3; stroke: #1f77b4; stroke-opacity: 0.3"/>
    <path d="M 401.018182 404.559712 
C 403.114796 404.559712 405.125821 403.726718 406.608352 402.244188 
C 408.090882 400.761658 408.923876 398.750633 408.923876 396.654018 
C 408.923876 394.557404 408.090882 392.546379 406.608352 391.063848 
C 405.125821 389.581318 403.114796 388.748324 401.018182 388.748324 
C 398.921567 388.748324 396.910542 389.581318 395.428012 391.063848 
C 393.945481 392.546379 393.112488 394.557404 393.112488 396.654018 
C 393.112488 398.750633 393.945481 400.761658 395.428012 402.244188 
C 396.910542 403.726718 398.921567 404.559712 401.018182 404.559712 
z
" clip-path="url(#p0d27a52e6b)" style="fill: #1f77b4; fill-opacity: 0.3; stroke: #1f77b4; stroke-opacity: 0.3"/>
    <path d="M 419.054545 397.076345 
C 420.566436 397.076345 422.016606 396.475665 423.085674 395.406597 
C 424.154742 394.337529 424.755423 392.887359 424.755423 391.375468 
C 424.755423 389.863578 424.154742 388.413407 423.085674 387.344339 
C 422.016606 386.275272 420.566436 385.674591 419.054545 385.674591 
C 417.542655 385.674591 416.092484 386.275272 415.023417 387.344339 
C 413.954349 388.413407 413.353668 389.863578 413.353668 391.375468 
C 413.353668 392.887359 413.954349 394.337529 415.023417 395.406597 
C 416.092484 396.475665 417.542655 397.076345 419.054545 397.076345 
z
" clip-path="url(#p0d27a52e6b)" style="fill: #1f77b4; fill-opacity: 0.3; stroke: #1f77b4; stroke-opacity: 0.3"/>
    <path d="M 437.090909 387.326387 
C 439.462958 387.326387 441.738173 386.383962 443.415464 384.70667 
C 445.092756 383.029378 446.035181 380.754163 446.035181 378.382115 
C 446.035181 376.010066 445.092756 373.734851 443.415464 372.057559 
C 441.738173 370.380268 439.462958 369.437843 437.090909 369.437843 
C 434.71886 369.437843 432.443645 370.380268 430.766354 372.057559 
C 429.089062 373.734851 428.146637 376.010066 428.146637 378.382115 
C 428.146637 380.754163 429.089062 383.029378 430.766354 384.70667 
C 432.443645 386.383962 434.71886 387.326387 437.090909 387.326387 
z
" clip-path="url(#p0d27a52e6b)" style="fill: #1f77b4; fill-opacity: 0.3; stroke: #1f77b4; stroke-opacity: 0.3"/>
    <path d="M 455.127273 371.290517 
C 457.876957 371.290517 460.514391 370.198056 462.458712 368.253735 
C 464.403032 366.309415 465.495493 363.67198 465.495493 360.922296 
C 465.495493 358.172612 464.403032 355.535177 462.458712 353.590857 
C 460.514391 351.646537 457.876957 350.554075 455.127273 350.554075 
C 452.377588 350.554075 449.740154 351.646537 447.795834 353.590857 
C 445.851513 355.535177 444.759052 358.172612 444.759052 360.922296 
C 444.759052 363.67198 445.851513 366.309415 447.795834 368.253735 
C 449.740154 370.198056 452.377588 371.290517 455.127273 371.290517 
z
" clip-path="url(#p0d27a52e6b)" style="fill: #1f77b4; fill-opacity: 0.3; stroke: #1f77b4; stroke-opacity: 0.3"/>
    <path d="M 473.163636 362.460405 
C 474.002282 362.460405 474.806692 362.127207 475.399704 361.534195 
C 475.992717 360.941183 476.325914 360.136773 476.325914 359.298127 
C 476.325914 358.459481 475.992717 357.655071 475.399704 357.062059 
C 474.806692 356.469047 474.002282 356.135849 473.163636 356.135849 
C 472.324991 356.135849 471.520581 356.469047 470.927568 357.062059 
C 470.334556 357.655071 470.001359 358.459481 470.001359 359.298127 
C 470.001359 360.136773 470.334556 360.941183 470.927568 361.534195 
C 471.520581 362.127207 472.324991 362.460405 473.163636 362.460405 
z
" clip-path="url(#p0d27a52e6b)" style="fill: #1f77b4; fill-opacity: 0.3; stroke: #1f77b4; stroke-opacity: 0.3"/>
    <path d="M 491.2 360.075706 
C 492.590737 360.075706 493.9247 359.52316 494.908099 358.539761 
C 495.891499 357.556361 496.444044 356.222398 496.444044 354.831662 
C 496.444044 353.440925 495.891499 352.106962 494.908099 351.123562 
C 493.9247 350.140163 492.590737 349.587617 491.2 349.587617 
C 489.809263 349.587617 488.4753 350.140163 487.491901 351.123562 
C 486.508501 352.106962 485.955956 353.440925 485.955956 354.831662 
C 485.955956 356.222398 486.508501 357.556361 487.491901 358.539761 
C 488.4753 359.52316 489.809263 360.075706 491.2 360.075706 
z
" clip-path="url(#p0d27a52e6b)" style="fill: #1f77b4; fill-opacity: 0.3; stroke: #1f77b4; stroke-opacity: 0.3"/>
    <path d="M 509.236364 352.084358 
C 511.415229 352.084358 513.505148 351.218685 515.045839 349.677995 
C 516.586529 348.137304 517.452202 346.047385 517.452202 343.86852 
C 517.452202 341.689654 516.586529 339.599735 515.045839 338.059045 
C 513.505148 336.518354 511.415229 335.652681 509.236364 335.652681 
C 507.057498 335.652681 504.967579 336.518354 503.426889 338.059045 
C 501.886198 339.599735 501.020525 341.689654 501.020525 343.86852 
C 501.020525 346.047385 501.886198 348.137304 503.426889 349.677995 
C 504.967579 351.218685 507.057498 352.084358 509.236364 352.084358 
z
" clip-path="url(#p0d27a52e6b)" style="fill: #1f77b4; fill-opacity: 0.3; stroke: #1f77b4; stroke-opacity: 0.3"/>
    <path d="M 527.272727 344.100007 
C 528.84169 344.100007 530.346603 343.476652 531.456027 342.367228 
C 532.565452 341.257803 533.188807 339.75289 533.188807 338.183927 
C 533.188807 336.614965 532.565452 335.110052 531.456027 334.000627 
C 530.346603 332.891203 528.84169 332.267848 527.272727 332.267848 
C 525.703765 332.267848 524.198851 332.891203 523.089427 334.000627 
C 521.980003 335.110052 521.356647 336.614965 521.356647 338.183927 
C 521.356647 339.75289 521.980003 341.257803 523.089427 342.367228 
C 524.198851 343.476652 525.703765 344.100007 527.272727 344.100007 
z
" clip-path="url(#p0d27a52e6b)" style="fill: #1f77b4; fill-opacity: 0.3; stroke: #1f77b4; stroke-opacity: 0.3"/>
    <path d="M 545.309091 329.062153 
C 548.274152 329.062153 551.11817 327.884121 553.214785 325.787507 
C 555.3114 323.690892 556.489431 320.846873 556.489431 317.881813 
C 556.489431 314.916752 555.3114 312.072733 553.214785 309.976119 
C 551.11817 307.879504 548.274152 306.701473 545.309091 306.701473 
C 542.34403 306.701473 539.500011 307.879504 537.403397 309.976119 
C 535.306782 312.072733 534.128751 314.916752 534.128751 317.881813 
C 534.128751 320.846873 535.306782 323.690892 537.403397 325.787507 
C 539.500011 327.884121 542.34403 329.062153 545.309091 329.062153 
z
" clip-path="url(#p0d27a52e6b)" style="fill: #1f77b4; fill-opacity: 0.3; stroke: #1f77b4; stroke-opacity: 0.3"/>
    <path d="M 563.345455 315.134509 
C 565.52432 315.134509 567.614239 314.268836 569.15493 312.728146 
C 570.69562 311.187455 571.561293 309.097536 571.561293 306.918671 
C 571.561293 304.739805 570.69562 302.649886 569.15493 301.109196 
C 567.614239 299.568505 565.52432 298.702832 563.345455 298.702832 
C 561.166589 298.702832 559.07667 299.568505 557.53598 301.109196 
C 555.995289 302.649886 555.129616 304.739805 555.129616 306.918671 
C 555.129616 309.097536 555.995289 311.187455 557.53598 312.728146 
C 559.07667 314.268836 561.166589 315.134509 563.345455 315.134509 
z
" clip-path="url(#p0d27a52e6b)" style="fill: #1f77b4; fill-opacity: 0.3; stroke: #1f77b4; stroke-opacity: 0.3"/>
    <path d="M 581.381818 304.171367 
C 583.560684 304.171367 585.650602 303.305695 587.191293 301.765004 
C 588.731984 300.224313 589.597657 298.134395 589.597657 295.955529 
C 589.597657 293.776663 588.731984 291.686744 587.191293 290.146054 
C 585.650602 288.605363 583.560684 287.73969 581.381818 287.73969 
C 579.202952 287.73969 577.113034 288.605363 575.572343 290.146054 
C 574.031652 291.686744 573.16598 293.776663 573.16598 295.955529 
C 573.16598 298.134395 574.031652 300.224313 575.572343 301.765004 
C 577.113034 303.305695 579.202952 304.171367 581.381818 304.171367 
z
" clip-path="url(#p0d27a52e6b)" style="fill: #1f77b4; fill-opacity: 0.3; stroke: #1f77b4; stroke-opacity: 0.3"/>
    <path d="M 599.418182 292.434514 
C 601.714908 292.434514 603.917875 291.522015 605.541906 289.897984 
C 607.165937 288.273953 608.078436 286.070986 608.078436 283.77426 
C 608.078436 281.477534 607.165937 279.274566 605.541906 277.650535 
C 603.917875 276.026505 601.714908 275.114006 599.418182 275.114006 
C 597.121456 275.114006 594.918488 276.026505 593.294457 277.650535 
C 591.670427 279.274566 590.757928 281.477534 590.757928 283.77426 
C 590.757928 286.070986 591.670427 288.273953 593.294457 289.897984 
C 594.918488 291.522015 597.121456 292.434514 599.418182 292.434514 
z
" clip-path="url(#p0d27a52e6b)" style="fill: #1f77b4; fill-opacity: 0.3; stroke: #1f77b4; stroke-opacity: 0.3"/>
    <path d="M 617.454545 285.312368 
C 618.293191 285.312368 619.097601 284.979171 619.690613 284.386159 
C 620.283626 283.793146 620.616823 282.988736 620.616823 282.150091 
C 620.616823 281.311445 620.283626 280.507035 619.690613 279.914023 
C 619.097601 279.32101 618.293191 278.987813 617.454545 278.987813 
C 616.6159 278.987813 615.81149 279.32101 615.218477 279.914023 
C 614.625465 280.507035 614.292268 281.311445 614.292268 282.150091 
C 614.292268 282.988736 614.625465 283.793146 615.218477 284.386159 
C 615.81149 284.979171 616.6159 285.312368 617.454545 285.312368 
z
" clip-path="url(#p0d27a52e6b)" style="fill: #1f77b4; fill-opacity: 0.3; stroke: #1f77b4; stroke-opacity: 0.3"/>
    <path d="M 635.490909 283.655413 
C 636.428544 283.655413 637.327901 283.282887 637.990909 282.619879 
C 638.653917 281.956871 639.026443 281.057514 639.026443 280.119879 
C 639.026443 279.182245 638.653917 278.282887 637.990909 277.619879 
C 637.327901 276.956871 636.428544 276.584345 635.490909 276.584345 
C 634.553275 276.584345 633.653917 276.956871 632.990909 277.619879 
C 632.327901 278.282887 631.955375 279.182245 631.955375 280.119879 
C 631.955375 281.057514 632.327901 281.956871 632.990909 282.619879 
C 633.653917 283.282887 634.553275 283.655413 635.490909 283.655413 
z
" clip-path="url(#p0d27a52e6b)" style="fill: #1f77b4; fill-opacity: 0.3; stroke: #1f77b4; stroke-opacity: 0.3"/>
    <path d="M 653.527273 274.714006 
C 656.077914 274.714006 658.524432 273.700626 660.328008 271.897049 
C 662.131584 270.093473 663.144965 267.646956 663.144965 265.096314 
C 663.144965 262.545672 662.131584 260.099155 660.328008 258.295579 
C 658.524432 256.492003 656.077914 255.478622 653.527273 255.478622 
C 650.976631 255.478622 648.530114 256.492003 646.726537 258.295579 
C 644.922961 260.099155 643.909581 262.545672 643.909581 265.096314 
C 643.909581 267.646956 644.922961 270.093473 646.726537 271.897049 
C 648.530114 273.700626 650.976631 274.714006 653.527273 274.714006 
z
" clip-path="url(#p0d27a52e6b)" style="fill: #1f77b4; fill-opacity: 0.3; stroke: #1f77b4; stroke-opacity: 0.3"/>
    <path d="M 671.563636 255.679747 
C 674.558201 255.679747 677.430519 254.489994 679.547996 252.372517 
C 681.665473 250.25504 682.855226 247.382722 682.855226 244.388157 
C 682.855226 241.393592 681.665473 238.521274 679.547996 236.403797 
C 677.430519 234.28632 674.558201 233.096567 671.563636 233.096567 
C 668.569072 233.096567 665.696754 234.28632 663.579277 236.403797 
C 661.4618 238.521274 660.272047 241.393592 660.272047 244.388157 
C 660.272047 247.382722 661.4618 250.25504 663.579277 252.372517 
C 665.696754 254.489994 668.569072 255.679747 671.563636 255.679747 
z
" clip-path="url(#p0d27a52e6b)" style="fill: #1f77b4; fill-opacity: 0.3; stroke: #1f77b4; stroke-opacity: 0.3"/>
    <path d="M 689.6 240.071712 
C 692.008827 240.071712 694.319319 239.114675 696.022616 237.411378 
C 697.725914 235.70808 698.682951 233.397588 698.682951 230.988761 
C 698.682951 228.579935 697.725914 226.269443 696.022616 224.566145 
C 694.319319 222.862847 692.008827 221.90581 689.6 221.90581 
C 687.191173 221.90581 684.880681 222.862847 683.177384 224.566145 
C 681.474086 226.269443 680.517049 228.579935 680.517049 230.988761 
C 680.517049 233.397588 681.474086 235.70808 683.177384 237.411378 
C 684.880681 239.114675 687.191173 240.071712 689.6 240.071712 
z
" clip-path="url(#p0d27a52e6b)" style="fill: #1f77b4; fill-opacity: 0.3; stroke: #1f77b4; stroke-opacity: 0.3"/>
    <path d="M 707.636364 228.241458 
C 709.815229 228.241458 711.905148 227.375785 713.445839 225.835094 
C 714.986529 224.294404 715.852202 222.204485 715.852202 220.025619 
C 715.852202 217.846754 714.986529 215.756835 713.445839 214.216144 
C 711.905148 212.675454 709.815229 211.809781 707.636364 211.809781 
C 705.457498 211.809781 703.367579 212.675454 701.826889 214.216144 
C 700.286198 215.756835 699.420525 217.846754 699.420525 220.025619 
C 699.420525 222.204485 700.286198 224.294404 701.826889 225.835094 
C 703.367579 227.375785 705.457498 228.241458 707.636364 228.241458 
z
" clip-path="url(#p0d27a52e6b)" style="fill: #1f77b4; fill-opacity: 0.3; stroke: #1f77b4; stroke-opacity: 0.3"/>
    <path d="M 725.672727 221.563728 
C 726.511373 221.563728 727.315783 221.23053 727.908795 220.637518 
C 728.501807 220.044506 728.835005 219.240096 728.835005 218.40145 
C 728.835005 217.562804 728.501807 216.758394 727.908795 216.165382 
C 727.315783 215.57237 726.511373 215.239172 725.672727 215.239172 
C 724.834081 215.239172 724.029671 215.57237 723.436659 216.165382 
C 722.843647 216.758394 722.51045 217.562804 722.51045 218.40145 
C 722.51045 219.240096 722.843647 220.044506 723.436659 220.637518 
C 724.029671 221.23053 724.834081 221.563728 725.672727 221.563728 
z
" clip-path="url(#p0d27a52e6b)" style="fill: #1f77b4; fill-opacity: 0.3; stroke: #1f77b4; stroke-opacity: 0.3"/>
    <path d="M 743.709091 219.006168 
C 745.161668 219.006168 746.554947 218.429053 747.582074 217.401926 
C 748.609201 216.374799 749.186316 214.98152 749.186316 213.528943 
C 749.186316 212.076365 748.609201 210.683086 747.582074 209.655959 
C 746.554947 208.628832 745.161668 208.051717 743.709091 208.051717 
C 742.256514 208.051717 740.863235 208.628832 739.836108 209.655959 
C 738.80898 210.683086 738.231865 212.076365 738.231865 213.528943 
C 738.231865 214.98152 738.80898 216.374799 739.836108 217.401926 
C 740.863235 218.429053 742.256514 219.006168 743.709091 219.006168 
z
" clip-path="url(#p0d27a52e6b)" style="fill: #1f77b4; fill-opacity: 0.3; stroke: #1f77b4; stroke-opacity: 0.3"/>
    <path d="M 761.745455 211.283579 
C 763.842069 211.283579 765.853094 210.450586 767.335624 208.968055 
C 768.818155 207.485525 769.651149 205.4745 769.651149 203.377885 
C 769.651149 201.281271 768.818155 199.270246 767.335624 197.787715 
C 765.853094 196.305185 763.842069 195.472191 761.745455 195.472191 
C 759.64884 195.472191 757.637815 196.305185 756.155285 197.787715 
C 754.672754 199.270246 753.83976 201.281271 753.83976 203.377885 
C 753.83976 205.4745 754.672754 207.485525 756.155285 208.968055 
C 757.637815 210.450586 759.64884 211.283579 761.745455 211.283579 
z
" clip-path="url(#p0d27a52e6b)" style="fill: #1f77b4; fill-opacity: 0.3; stroke: #1f77b4; stroke-opacity: 0.3"/>
    <path d="M 779.781818 200.883043 
C 781.919954 200.883043 783.970805 200.033553 785.482695 198.521663 
C 786.994586 197.009772 787.844076 194.958921 787.844076 192.820785 
C 787.844076 190.68265 786.994586 188.631799 785.482695 187.119908 
C 783.970805 185.608018 781.919954 184.758528 779.781818 184.758528 
C 777.643682 184.758528 775.592831 185.608018 774.080941 187.119908 
C 772.569051 188.631799 771.71956 190.68265 771.71956 192.820785 
C 771.71956 194.958921 772.569051 197.009772 774.080941 198.521663 
C 775.592831 200.033553 777.643682 200.883043 779.781818 200.883043 
z
" clip-path="url(#p0d27a52e6b)" style="fill: #1f77b4; fill-opacity: 0.3; stroke: #1f77b4; stroke-opacity: 0.3"/>
    <path d="M 797.818182 194.044583 
C 799.004206 194.044583 800.141814 193.573371 800.980459 192.734725 
C 801.819105 191.896079 802.290318 190.758471 802.290318 189.572447 
C 802.290318 188.386423 801.819105 187.248815 800.980459 186.410169 
C 800.141814 185.571524 799.004206 185.100311 797.818182 185.100311 
C 796.632157 185.100311 795.49455 185.571524 794.655904 186.410169 
C 793.817258 187.248815 793.346046 188.386423 793.346046 189.572447 
C 793.346046 190.758471 793.817258 191.896079 794.655904 192.734725 
C 795.49455 193.573371 796.632157 194.044583 797.818182 194.044583 
z
" clip-path="url(#p0d27a52e6b)" style="fill: #1f77b4; fill-opacity: 0.3; stroke: #1f77b4; stroke-opacity: 0.3"/>
    <path d="M 815.854545 186.051432 
C 818.151272 186.051432 820.354239 185.138933 821.97827 183.514903 
C 823.6023 181.890872 824.514799 179.687904 824.514799 177.391178 
C 824.514799 175.094452 823.6023 172.891485 821.97827 171.267454 
C 820.354239 169.643423 818.151272 168.730924 815.854545 168.730924 
C 813.557819 168.730924 811.354852 169.643423 809.730821 171.267454 
C 808.10679 172.891485 807.194291 175.094452 807.194291 177.391178 
C 807.194291 179.687904 808.10679 181.890872 809.730821 183.514903 
C 811.354852 185.138933 813.557819 186.051432 815.854545 186.051432 
z
" clip-path="url(#p0d27a52e6b)" style="fill: #1f77b4; fill-opacity: 0.3; stroke: #1f77b4; stroke-opacity: 0.3"/>
    <path d="M 833.890909 176.790621 
C 835.669946 176.790621 837.376357 176.083802 838.634326 174.825833 
C 839.892294 173.567865 840.599113 171.861453 840.599113 170.082417 
C 840.599113 168.30338 839.892294 166.596969 838.634326 165.339 
C 837.376357 164.081032 835.669946 163.374213 833.890909 163.374213 
C 832.111873 163.374213 830.405461 164.081032 829.147493 165.339 
C 827.889524 166.596969 827.182705 168.30338 827.182705 170.082417 
C 827.182705 171.861453 827.889524 173.567865 829.147493 174.825833 
C 830.405461 176.083802 832.111873 176.790621 833.890909 176.790621 
z
" clip-path="url(#p0d27a52e6b)" style="fill: #1f77b4; fill-opacity: 0.3; stroke: #1f77b4; stroke-opacity: 0.3"/>
    <path d="M 851.927273 170.313905 
C 853.496235 170.313905 855.001149 169.690549 856.110573 168.581125 
C 857.219997 167.471701 857.843353 165.966787 857.843353 164.397825 
C 857.843353 162.828862 857.219997 161.323949 856.110573 160.214525 
C 855.001149 159.1051 853.496235 158.481745 851.927273 158.481745 
C 850.35831 158.481745 848.853397 159.1051 847.743973 160.214525 
C 846.634548 161.323949 846.011193 162.828862 846.011193 164.397825 
C 846.011193 165.966787 846.634548 167.471701 847.743973 168.581125 
C 848.853397 169.690549 850.35831 170.313905 851.927273 170.313905 
z
" clip-path="url(#p0d27a52e6b)" style="fill: #1f77b4; fill-opacity: 0.3; stroke: #1f77b4; stroke-opacity: 0.3"/>
    <path d="M 869.963636 157.874319 
C 872.648613 157.874319 875.223982 156.807566 877.122547 154.909001 
C 879.021112 153.010436 880.087865 150.435067 880.087865 147.750091 
C 880.087865 145.065114 879.021112 142.489745 877.122547 140.59118 
C 875.223982 138.692615 872.648613 137.625862 869.963636 137.625862 
C 867.27866 137.625862 864.703291 138.692615 862.804726 140.59118 
C 860.906161 142.489745 859.839408 145.065114 859.839408 147.750091 
C 859.839408 150.435067 860.906161 153.010436 862.804726 154.909001 
C 864.703291 156.807566 867.27866 157.874319 869.963636 157.874319 
z
" clip-path="url(#p0d27a52e6b)" style="fill: #1f77b4; fill-opacity: 0.3; stroke: #1f77b4; stroke-opacity: 0.3"/>
    <path d="M 888 147.981578 
C 889.568963 147.981578 891.073876 147.358223 892.1833 146.248799 
C 893.292724 145.139374 893.91608 143.634461 893.91608 142.065498 
C 893.91608 140.496536 893.292724 138.991623 892.1833 137.882198 
C 891.073876 136.772774 889.568963 136.149419 888 136.149419 
C 886.431037 136.149419 884.926124 136.772774 883.8167 137.882198 
C 882.707276 138.991623 882.08392 140.496536 882.08392 142.065498 
C 882.08392 143.634461 882.707276 145.139374 883.8167 146.248799 
C 884.926124 147.358223 886.431037 147.981578 888 147.981578 
z
" clip-path="url(#p0d27a52e6b)" style="fill: #1f77b4; fill-opacity: 0.3; stroke: #1f77b4; stroke-opacity: 0.3"/>
    <path d="M 906.036364 136.934809 
C 908.552301 136.934809 910.965531 135.935216 912.744568 134.15618 
C 914.523604 132.377143 915.523197 129.963913 915.523197 127.447976 
C 915.523197 124.932038 914.523604 122.518808 912.744568 120.739772 
C 910.965531 118.960735 908.552301 117.961143 906.036364 117.961143 
C 903.520426 117.961143 901.107196 118.960735 899.32816 120.739772 
C 897.549123 122.518808 896.549531 124.932038 896.549531 127.447976 
C 896.549531 129.963913 897.549123 132.377143 899.32816 134.15618 
C 901.107196 135.935216 903.520426 136.934809 906.036364 136.934809 
z
" clip-path="url(#p0d27a52e6b)" style="fill: #1f77b4; fill-opacity: 0.3; stroke: #1f77b4; stroke-opacity: 0.3"/>
    <path d="M 924.072727 124.700672 
C 926.251593 124.700672 928.341512 123.835 929.882202 122.294309 
C 931.422893 120.753618 932.288566 118.6637 932.288566 116.484834 
C 932.288566 114.305968 931.422893 112.21605 929.882202 110.675359 
C 928.341512 109.134668 926.251593 108.268995 924.072727 108.268995 
C 921.893861 108.268995 919.803943 109.134668 918.263252 110.675359 
C 916.722561 112.21605 915.856889 114.305968 915.856889 116.484834 
C 915.856889 118.6637 916.722561 120.753618 918.263252 122.294309 
C 919.803943 123.835 921.893861 124.700672 924.072727 124.700672 
z
" clip-path="url(#p0d27a52e6b)" style="fill: #1f77b4; fill-opacity: 0.3; stroke: #1f77b4; stroke-opacity: 0.3"/>
    <path d="M 942.109091 116.907161 
C 943.620981 116.907161 945.071152 116.306481 946.14022 115.237413 
C 947.209288 114.168345 947.809968 112.718174 947.809968 111.206284 
C 947.809968 109.694394 947.209288 108.244223 946.14022 107.175155 
C 945.071152 106.106087 943.620981 105.505407 942.109091 105.505407 
C 940.597201 105.505407 939.14703 106.106087 938.077962 107.175155 
C 937.008894 108.244223 936.408214 109.694394 936.408214 111.206284 
C 936.408214 112.718174 937.008894 114.168345 938.077962 115.237413 
C 939.14703 116.306481 940.597201 116.907161 942.109091 116.907161 
z
" clip-path="url(#p0d27a52e6b)" style="fill: #1f77b4; fill-opacity: 0.3; stroke: #1f77b4; stroke-opacity: 0.3"/>
    <path d="M 960.145455 109.689552 
C 962.112253 109.689552 963.998762 108.908135 965.389499 107.517398 
C 966.780236 106.126661 967.561653 104.240152 967.561653 102.273353 
C 967.561653 100.306555 966.780236 98.420046 965.389499 97.029309 
C 963.998762 95.638572 962.112253 94.857155 960.145455 94.857155 
C 958.178656 94.857155 956.292147 95.638572 954.90141 97.029309 
C 953.510674 98.420046 952.729256 100.306555 952.729256 102.273353 
C 952.729256 104.240152 953.510674 106.126661 954.90141 107.517398 
C 956.292147 108.908135 958.178656 109.689552 960.145455 109.689552 
z
" clip-path="url(#p0d27a52e6b)" style="fill: #1f77b4; fill-opacity: 0.3; stroke: #1f77b4; stroke-opacity: 0.3"/>
    <path d="M 978.181818 103.212931 
C 979.507834 103.212931 980.779718 102.686099 981.717352 101.748464 
C 982.654987 100.81083 983.181818 99.538946 983.181818 98.212931 
C 983.181818 96.886915 982.654987 95.615031 981.717352 94.677397 
C 980.779718 93.739762 979.507834 93.212931 978.181818 93.212931 
C 976.855803 93.212931 975.583919 93.739762 974.646284 94.677397 
C 973.70865 95.615031 973.181818 96.886915 973.181818 98.212931 
C 973.181818 99.538946 973.70865 100.81083 974.646284 101.748464 
C 975.583919 102.686099 976.855803 103.212931 978.181818 103.212931 
z
" clip-path="url(#p0d27a52e6b)" style="fill: #1f77b4; fill-opacity: 0.3; stroke: #1f77b4; stroke-opacity: 0.3"/>
    <path d="M 996.218182 96.696198 
C 998.184981 96.696198 1000.071489 95.914781 1001.462226 94.524044 
C 1002.852963 93.133307 1003.63438 91.246799 1003.63438 89.28 
C 1003.63438 87.313201 1002.852963 85.426693 1001.462226 84.035956 
C 1000.071489 82.645219 998.184981 81.863802 996.218182 81.863802 
C 994.251383 81.863802 992.364874 82.645219 990.974138 84.035956 
C 989.583401 85.426693 988.801983 87.313201 988.801983 89.28 
C 988.801983 91.246799 989.583401 93.133307 990.974138 94.524044 
C 992.364874 95.914781 994.251383 96.696198 996.218182 96.696198 
z
" clip-path="url(#p0d27a52e6b)" style="fill: #1f77b4; fill-opacity: 0.3; stroke: #1f77b4; stroke-opacity: 0.3"/>
   </g>
   <g id="matplotlib.axis_1">
    <g id="xtick_1">
     <g id="line2d_1">
      <defs>
       <path id="m541445d757" d="M 0 0 
L 0 3.5 
" style="stroke: #000000; stroke-width: 0.8"/>
      </defs>
      <g>
       <use xlink:href="#m541445d757" x="184.581818" y="512.64" style="stroke: #000000; stroke-width: 0.8"/>
      </g>
     </g>
     <g id="text_1">
      <!-- 2026-01-01 -->
      <g transform="translate(155.524006 527.238438) scale(0.1 -0.1)">
       <defs>
        <path id="DejaVuSans-32" d="M 1228 531 
L 3431 531 
L 3431 0 
L 469 0 
L 469 531 
Q 828 903 1448 1529 
Q 2069 2156 2228 2338 
Q 2531 2678 2651 2914 
Q 2772 3150 2772 3378 
Q 2772 3750 2511 3984 
Q 2250 4219 1831 4219 
Q 1534 4219 1204 4116 
Q 875 4013 500 3803 
L 500 4441 
Q 881 4594 1212 4672 
Q 1544 4750 1819 4750 
Q 2544 4750 2975 4387 
Q 3406 4025 3406 3419 
Q 3406 3131 3298 2873 
Q 3191 2616 2906 2266 
Q 2828 2175 2409 1742 
Q 1991 1309 1228 531 
z
" transform="scale(0.015625)"/>
        <path id="DejaVuSans-30" d="M 2034 4250 
Q 1547 4250 1301 3770 
Q 1056 3291 1056 2328 
Q 1056 1369 1301 889 
Q 1547 409 2034 409 
Q 2525 409 2770 889 
Q 3016 1369 3016 2328 
Q 3016 3291 2770 3770 
Q 2525 4250 2034 4250 
z
M 2034 4750 
Q 2819 4750 3233 4129 
Q 3647 3509 3647 2328 
Q 3647 1150 3233 529 
Q 2819 -91 2034 -91 
Q 1250 -91 836 529 
Q 422 1150 422 2328 
Q 422 3509 836 4129 
Q 1250 4750 2034 4750 
z
" transform="scale(0.015625)"/>
        <path id="DejaVuSans-36" d="M 2113 2584 
Q 1688 2584 1439 2293 
Q 1191 2003 1191 1497 
Q 1191 994 1439 701 
Q 1688 409 2113 409 
Q 2538 409 2786 701 
Q 3034 994 3034 1497 
Q 3034 2003 2786 2293 
Q 2538 2584 2113 2584 
z
M 3366 4563 
L 3366 3988 
Q 3128 4100 2886 4159 
Q 2644 4219 2406 4219 
Q 1781 4219 1451 3797 
Q 1122 3375 1075 2522 
Q 1259 2794 1537 2939 
Q 1816 3084 2150 3084 
Q 2853 3084 3261 2657 
Q 3669 2231 3669 1497 
Q 3669 778 3244 343 
Q 2819 -91 2113 -91 
Q 1303 -91 875 529 
Q 447 1150 447 2328 
Q 447 3434 972 4092 
Q 1497 4750 2381 4750 
Q 2619 4750 2861 4703 
Q 3103 4656 3366 4563 
z
" transform="scale(0.015625)"/>
        <path id="DejaVuSans-2d" d="M 313 2009 
L 1997 2009 
L 1997 1497 
L 313 1497 
L 313 2009 
z
" transform="scale(0.015625)"/>
        <path id="DejaVuSans-31" d="M 794 531 
L 1825 531 
L 1825 4091 
L 703 3866 
L 703 4441 
L 1819 4666 
L 2450 4666 
L 2450 531 
L 3481 531 
L 3481 0 
L 794 0 
L 794 531 
z
" transform="scale(0.015625)"/>
       </defs>
       <use xlink:href="#DejaVuSans-32"/>
       <use xlink:href="#DejaVuSans-30" x="63.623047"/>
       <use xlink:href="#DejaVuSans-32" x="127.246094"/>
       <use xlink:href="#DejaVuSans-36" x="190.869141"/>
       <use xlink:href="#DejaVuSans-2d" x="254.492188"/>
       <use xlink:href="#DejaVuSans-30" x="290.576172"/>
       <use xlink:href="#DejaVuSans-31" x="354.199219"/>
       <use xlink:href="#DejaVuSans-2d" x="417.822266"/>
       <use xlink:href="#DejaVuSans-30" x="453.90625"/>
       <use xlink:href="#DejaVuSans-31" x="517.529297"/>
      </g>
     </g>
    </g>
    <g id="xtick_2">
     <g id="line2d_2">
      <g>
       <use xlink:href="#m541445d757" x="310.836364" y="512.64" style="stroke: #000000; stroke-width: 0.8"/>
      </g>
     </g>
     <g id="text_2">
      <!-- 2026-01-08 -->
      <g transform="translate(281.778551 527.238438) scale(0.1 -0.1)">
       <defs>
        <path id="DejaVuSans-38" d="M 2034 2216 
Q 1584 2216 1326 1975 
Q 1069 1734 1069 1313 
Q 1069 891 1326 650 
Q 1584 409 2034 409 
Q 2484 409 2743 651 
Q 3003 894 3003 1313 
Q 3003 1734 2745 1975 
Q 2488 2216 2034 2216 
z
M 1403 2484 
Q 997 2584 770 2862 
Q 544 3141 544 3541 
Q 544 4100 942 4425 
Q 1341 4750 2034 4750 
Q 2731 4750 3128 4425 
Q 3525 4100 3525 3541 
Q 3525 3141 3298 2862 
Q 3072 2584 2669 2484 
Q 3125 2378 3379 2068 
Q 3634 1759 3634 1313 
Q 3634 634 3220 271 
Q 2806 -91 2034 -91 
Q 1263 -91 848 271 
Q 434 634 434 1313 
Q 434 1759 690 2068 
Q 947 2378 1403 2484 
z
M 1172 3481 
Q 1172 3119 1398 2916 
Q 1625 2713 2034 2713 
Q 2441 2713 2670 2916 
Q 2900 3119 2900 3481 
Q 2900 3844 2670 4047 
Q 2441 4250 2034 4250 
Q 1625 4250 1398 4047 
Q 1172 3844 1172 3481 
z
" transform="scale(0.015625)"/>
       </defs>
       <use xlink:href="#DejaVuSans-32"/>
       <use xlink:href="#DejaVuSans-30" x="63.623047"/>
       <use xlink:href="#DejaVuSans-32" x="127.246094"/>
       <use xlink:href="#DejaVuSans-36" x="190.869141"/>
       <use xlink:href="#DejaVuSans-2d" x="254.492188"/>
       <use xlink:href="#DejaVuSans-30" x="290.576172"/>
       <use xlink:href="#DejaVuSans-31" x="354.199219"/>
       <use xlink:href="#DejaVuSans-2d" x="417.822266"/>
       <use xlink:href="#DejaVuSans-30" x="453.90625"/>
       <use xlink:href="#DejaVuSans-38" x="517.529297"/>
      </g>
     </g>
    </g>
    <g id="xtick_3">
     <g id="line2d_3">
      <g>
       <use xlink:href="#m541445d757" x="437.090909" y="512.64" style="stroke: #000000; stroke-width: 0.8"/>
      </g>
     </g>
     <g id="text_3">
      <!-- 2026-01-15 -->
      <g transform="translate(408.033097 527.238438) scale(0.1 -0.1)">
       <defs>
        <path id="DejaVuSans-35" d="M 691 4666 
L 3169 4666 
L 3169 4134 
L 1269 4134 
L 1269 2991 
Q 1406 3038 1543 3061 
Q 1681 3084 1819 3084 
Q 2600 3084 3056 2656 
Q 3513 2228 3513 1497 
Q 3513 744 3044 326 
Q 2575 -91 1722 -91 
Q 1428 -91 1123 -41 
Q 819 9 494 109 
L 494 744 
Q 775 591 1075 516 
Q 1375 441 1709 441 
Q 2250 441 2565 725 
Q 2881 1009 2881 1497 
Q 2881 1984 2565 2268 
Q 2250 2553 1709 2553 
Q 1456 2553 1204 2497 
Q 953 2441 691 2322 
L 691 4666 
z
" transform="scale(0.015625)"/>
       </defs>
       <use xlink:href="#DejaVuSans-32"/>
       <use xlink:href="#DejaVuSans-30" x="63.623047"/>
       <use xlink:href="#DejaVuSans-32" x="127.246094"/>
       <use xlink:href="#DejaVuSans-36" x="190.869141"/>
       <use xlink:href="#DejaVuSans-2d" x="254.492188"/>
       <use xlink:href="#DejaVuSans-30" x="290.576172"/>
       <use xlink:href="#DejaVuSans-31" x="354.199219"/>
       <use xlink:href="#DejaVuSans-2d" x="417.822266"/>
       <use xlink:href="#DejaVuSans-31" x="453.90625"/>
       <use xlink:href="#DejaVuSans-35" x="517.529297"/>
      </g>
     </g>
    </g>
    <g id="xtick_4">
     <g id="line2d_4">
      <g>
       <use xlink:href="#m541445d757" x="563.345455" y="512.64" style="stroke: #000000; stroke-width: 0.8"/>
      </g>
     </g>
     <g id="text_4">
      <!-- 2026-01-22 -->
      <g transform="translate(534.287642 527.238438) scale(0.1 -0.1)">
       <use xlink:href="#DejaVuSans-32"/>
       <use xlink:href="#DejaVuSans-30" x="63.623047"/>
       <use xlink:href="#DejaVuSans-32" x="127.246094"/>
       <use xlink:href="#DejaVuSans-36" x="190.869141"/>
       <use xlink:href="#DejaVuSans-2d" x="254.492188"/>
       <use xlink:href="#DejaVuSans-30" x="290.576172"/>
       <use xlink:href="#DejaVuSans-31" x="354.199219"/>
       <use xlink:href="#DejaVuSans-2d" x="417.822266"/>
       <use xlink:href="#DejaVuSans-32" x="453.90625"/>
       <use xlink:href="#DejaVuSans-32" x="517.529297"/>
      </g>
     </g>
    </g>
    <g id="xtick_5">
     <g id="line2d_5">
      <g>
       <use xlink:href="#m541445d757" x="743.709091" y="512.64" style="stroke: #000000; stroke-width: 0.8"/>
      </g>
     </g>
     <g id="text_5">
      <!-- 2026-02-01 -->
      <g transform="translate(714.651278 527.238438) scale(0.1 -0.1)">
       <use xlink:href="#DejaVuSans-32"/>
       <use xlink:href="#DejaVuSans-30" x="63.623047"/>
       <use xlink:href="#DejaVuSans-32" x="127.246094"/>
       <use xlink:href="#DejaVuSans-36" x="190.869141"/>
       <use xlink:href="#DejaVuSans-2d" x="254.492188"/>
       <use xlink:href="#DejaVuSans-30" x="290.576172"/>
       <use xlink:href="#DejaVuSans-32" x="354.199219"/>
       <use xlink:href="#DejaVuSans-2d" x="417.822266"/>
       <use xlink:href="#DejaVuSans-30" x="453.90625"/>
       <use xlink:href="#DejaVuSans-31" x="517.529297"/>
      </g>
     </g>
    </g>
    <g id="xtick_6">
     <g id="line2d_6">
      <g>
       <use xlink:href="#m541445d757" x="869.963636" y="512.64" style="stroke: #000000; stroke-width: 0.8"/>
      </g>
     </g>
     <g id="text_6">
      <!-- 2026-02-08 -->
      <g transform="translate(840.905824 527.238438) scale(0.1 -0.1)">
       <use xlink:href="#DejaVuSans-32"/>
       <use xlink:href="#DejaVuSans-30" x="63.623047"/>
       <use xlink:href="#DejaVuSans-32" x="127.246094"/>
       <use xlink:href="#DejaVuSans-36" x="190.869141"/>
       <use xlink:href="#DejaVuSans-2d" x="254.492188"/>
       <use xlink:href="#DejaVuSans-30" x="290.576172"/>
       <use xlink:href="#DejaVuSans-32" x="354.199219"/>
       <use xlink:href="#DejaVuSans-2d" x="417.822266"/>
       <use xlink:href="#DejaVuSans-30" x="453.90625"/>
       <use xlink:href="#DejaVuSans-38" x="517.529297"/>
      </g>
     </g>
    </g>
    <g id="xtick_7">
     <g id="line2d_7">
      <g>
       <use xlink:href="#m541445d757" x="996.218182" y="512.64" style="stroke: #000000; stroke-width: 0.8"/>
      </g>
     </g>
     <g id="text_7">
      <!-- 2026-02-15 -->
      <g transform="translate(967.160369 527.238438) scale(0.1 -0.1)">
       <use xlink:href="#DejaVuSans-32"/>
       <use xlink:href="#DejaVuSans-30" x="63.623047"/>
       <use xlink:href="#DejaVuSans-32" x="127.246094"/>
       <use xlink:href="#DejaVuSans-36" x="190.869141"/>
       <use xlink:href="#DejaVuSans-2d" x="254.492188"/>
       <use xlink:href="#DejaVuSans-30" x="290.576172"/>
       <use xlink:href="#DejaVuSans-32" x="354.199219"/>
       <use xlink:href="#DejaVuSans-2d" x="417.822266"/>
       <use xlink:href="#DejaVuSans-31" x="453.90625"/>
       <use xlink:href="#DejaVuSans-35" x="517.529297"/>
      </g>
     </g>
    </g>
   </g>
   <g id="matplotlib.axis_2">
    <g id="ytick_1">
     <g id="line2d_8">
      <defs>
       <path id="m4b2dcd5ef9" d="M 0 0 
L -3.5 0 
" style="stroke: #000000; stroke-width: 0.8"/>
      </defs>
      <g>
       <use xlink:href="#m4b2dcd5ef9" x="144" y="481.9229" style="stroke: #000000; stroke-width: 0.8"/>
      </g>
     </g>
     <g id="text_8">
      <!-- 13200 -->
      <g transform="translate(105.1875 485.722119) scale(0.1 -0.1)">
       <defs>
        <path id="DejaVuSans-33" d="M 2597 2516 
Q 3050 2419 3304 2112 
Q 3559 1806 3559 1356 
Q 3559 666 3084 287 
Q 2609 -91 1734 -91 
Q 1441 -91 1130 -33 
Q 819 25 488 141 
L 488 750 
Q 750 597 1062 519 
Q 1375 441 1716 441 
Q 2309 441 2620 675 
Q 2931 909 2931 1356 
Q 2931 1769 2642 2001 
Q 2353 2234 1838 2234 
L 1294 2234 
L 1294 2753 
L 1863 2753 
Q 2328 2753 2575 2939 
Q 2822 3125 2822 3475 
Q 2822 3834 2567 4026 
Q 2313 4219 1838 4219 
Q 1578 4219 1281 4162 
Q 984 4106 628 3988 
L 628 4550 
Q 988 4650 1302 4700 
Q 1616 4750 1894 4750 
Q 2613 4750 3031 4423 
Q 3450 4097 3450 3541 
Q 3450 3153 3228 2886 
Q 3006 2619 2597 2516 
z
" transform="scale(0.015625)"/>
       </defs>
       <use xlink:href="#DejaVuSans-31"/>
       <use xlink:href="#DejaVuSans-33" x="63.623047"/>
       <use xlink:href="#DejaVuSans-32" x="127.246094"/>
       <use xlink:href="#DejaVuSans-30" x="190.869141"/>
       <use xlink:href="#DejaVuSans-30" x="254.492188"/>
      </g>
     </g>
    </g>
    <g id="ytick_2">
     <g id="line2d_9">
      <g>
       <use xlink:href="#m4b2dcd5ef9" x="144" y="400.714441" style="stroke: #000000; stroke-width: 0.8"/>
      </g>
     </g>
     <g id="text_9">
      <!-- 13400 -->
      <g transform="translate(105.1875 404.51366) scale(0.1 -0.1)">
       <defs>
        <path id="DejaVuSans-34" d="M 2419 4116 
L 825 1625 
L 2419 1625 
L 2419 4116 
z
M 2253 4666 
L 3047 4666 
L 3047 1625 
L 3713 1625 
L 3713 1100 
L 3047 1100 
L 3047 0 
L 2419 0 
L 2419 1100 
L 313 1100 
L 313 1709 
L 2253 4666 
z
" transform="scale(0.015625)"/>
       </defs>
       <use xlink:href="#DejaVuSans-31"/>
       <use xlink:href="#DejaVuSans-33" x="63.623047"/>
       <use xlink:href="#DejaVuSans-34" x="127.246094"/>
       <use xlink:href="#DejaVuSans-30" x="190.869141"/>
       <use xlink:href="#DejaVuSans-30" x="254.492188"/>
      </g>
     </g>
    </g>
    <g id="ytick_3">
     <g id="line2d_10">
      <g>
       <use xlink:href="#m4b2dcd5ef9" x="144" y="319.505982" style="stroke: #000000; stroke-width: 0.8"/>
      </g>
     </g>
     <g id="text_10">
      <!-- 13600 -->
      <g transform="translate(105.1875 323.305201) scale(0.1 -0.1)">
       <use xlink:href="#DejaVuSans-31"/>
       <use xlink:href="#DejaVuSans-33" x="63.623047"/>
       <use xlink:href="#DejaVuSans-36" x="127.246094"/>
       <use xlink:href="#DejaVuSans-30" x="190.869141"/>
       <use xlink:href="#DejaVuSans-30" x="254.492188"/>
      </g>
     </g>
    </g>
    <g id="ytick_4">
     <g id="line2d_11">
      <g>
       <use xlink:href="#m4b2dcd5ef9" x="144" y="238.297523" style="stroke: #000000; stroke-width: 0.8"/>
      </g>
     </g>
     <g id="text_11">
      <!-- 13800 -->
      <g transform="translate(105.1875 242.096741) scale(0.1 -0.1)">
       <use xlink:href="#DejaVuSans-31"/>
       <use xlink:href="#DejaVuSans-33" x="63.623047"/>
       <use xlink:href="#DejaVuSans-38" x="127.246094"/>
       <use xlink:href="#DejaVuSans-30" x="190.869141"/>
       <use xlink:href="#DejaVuSans-30" x="254.492188"/>
      </g>
     </g>
    </g>
    <g id="ytick_5">
     <g id="line2d_12">
      <g>
       <use xlink:href="#m4b2dcd5ef9" x="144" y="157.089063" style="stroke: #000000; stroke-width: 0.8"/>
      </g>
     </g>
     <g id="text_12">
      <!-- 14000 -->
      <g transform="translate(105.1875 160.888282) scale(0.1 -0.1)">
       <use xlink:href="#DejaVuSans-31"/>
       <use xlink:href="#DejaVuSans-34" x="63.623047"/>
       <use xlink:href="#DejaVuSans-30" x="127.246094"/>
       <use xlink:href="#DejaVuSans-30" x="190.869141"/>
       <use xlink:href="#DejaVuSans-30" x="254.492188"/>
      </g>
     </g>
    </g>
    <g id="ytick_6">
     <g id="line2d_13">
      <g>
       <use xlink:href="#m4b2dcd5ef9" x="144" y="75.880604" style="stroke: #000000; stroke-width: 0.8"/>
      </g>
     </g>
     <g id="text_13">
      <!-- 14200 -->
      <g transform="translate(105.1875 79.679823) scale(0.1 -0.1)">
       <use xlink:href="#DejaVuSans-31"/>
       <use xlink:href="#DejaVuSans-34" x="63.623047"/>
       <use xlink:href="#DejaVuSans-32" x="127.246094"/>
       <use xlink:href="#DejaVuSans-30" x="190.869141"/>
       <use xlink:href="#DejaVuSans-30" x="254.492188"/>
      </g>
     </g>
    </g>
   </g>
   <g id="line2d_14">
    <path d="M 184.581818 492.48 
L 202.618182 485.171239 
L 220.654545 473.802054 
L 238.690909 469.335589 
L 256.727273 467.305378 
L 274.763636 460.402659 
L 292.8 453.905982 
L 310.836364 437.66429 
L 328.872727 429.543444 
L 346.909091 425.483021 
L 364.945455 424.670937 
L 382.981818 406.805076 
L 401.018182 396.654018 
L 419.054545 391.375468 
L 437.090909 378.382115 
L 455.127273 360.922296 
L 473.163636 359.298127 
L 491.2 354.831662 
L 509.236364 343.86852 
L 527.272727 338.183927 
L 545.309091 317.881813 
L 563.345455 306.918671 
L 581.381818 295.955529 
L 599.418182 283.77426 
L 617.454545 282.150091 
L 635.490909 280.119879 
L 653.527273 265.096314 
L 671.563636 244.388157 
L 689.6 230.988761 
L 707.636364 220.025619 
L 725.672727 218.40145 
L 743.709091 213.528943 
L 761.745455 203.377885 
L 779.781818 192.820785 
L 797.818182 189.572447 
L 815.854545 177.391178 
L 833.890909 170.082417 
L 851.927273 164.397825 
L 869.963636 147.750091 
L 888 142.065498 
L 906.036364 127.447976 
L 924.072727 116.484834 
L 942.109091 111.206284 
L 960.145455 102.273353 
L 978.181818 98.212931 
L 996.218182 89.28 
" clip-path="url(#p0d27a52e6b)" style="fill: none; stroke: #1f77b4; stroke-width: 1.5; stroke-linecap: square"/>
   </g>
   <g id="patch_3">
    <path d="M 144 512.64 
L 144 69.12 
" style="fill: none; stroke: #000000; stroke-width: 0.8; stroke-linejoin: miter; stroke-linecap: square"/>
   </g>
   <g id="patch_4">
    <path d="M 1036.8 512.64 
L 1036.8 69.12 
" style="fill: none; stroke: #000000; stroke-width: 0.8; stroke-linejoin: miter; stroke-linecap: square"/>
   </g>
   <g id="patch_5">
    <path d="M 144 512.64 
L 1036.8 512.64 
" style="fill: none; stroke: #000000; stroke-width: 0.8; stroke-linejoin: miter; stroke-linecap: square"/>
   </g>
   <g id="patch_6">
    <path d="M 144 69.12 
L 1036.8 69.12 
" style="fill: none; stroke: #000000; stroke-width: 0.8; stroke-linejoin: miter; stroke-linecap: square"/>
   </g>
   <g id="text_14">
    <!-- Number of AEDs in the OpenStreetMap database in Poland from 2026-01-01, day by day. As at: 2026-02-15 -->
    <g transform="translate(144 63.12) scale(0.14 -0.14)">
     <defs>
      <path id="DejaVuSans-4e" d="M 628 4666 
L 1478 4666 
L 3547 763 
L 3547 4666 
L 4159 4666 
L 4159 0 
L 3309 0 
L 1241 3903 
L 1241 0 
L 628 0 
L 628 4666 
z
" transform="scale(0.015625)"/>
      <path id="DejaVuSans-75" d="M 544 1381 
L 544 3500 
L 1119 3500 
L 1119 1403 
Q 1119 906 1312 657 
Q 1506 409 1894 409 
Q 2359 409 2629 706 
Q 2900 1003 2900 1516 
L 2900 3500 
L 3475 3500 
L 3475 0 
L 2900 0 
L 2900 538 
Q 2691 219 2414 64 
Q 2138 -91 1772 -91 
Q 1169 -91 856 284 
Q 544 659 544 1381 
z
M 1991 3584 
L 1991 3584 
z
" transform="scale(0.015625)"/>
      <path id="DejaVuSans-6d" d="M 3328 2828 
Q 3544 3216 3844 3400 
Q 4144 3584 4550 3584 
Q 5097 3584 5394 3201 
Q 5691 2819 5691 2113 
L 5691 0 
L 5113 0 
L 5113 2094 
Q 5113 2597 4934 2840 
Q 4756 3084 4391 3084 
Q 3944 3084 3684 2787 
Q 3425 2491 3425 1978 
L 3425 0 
L 2847 0 
L 2847 2094 
Q 2847 2600 2669 2842 
Q 2491 3084 2119 3084 
Q 1678 3084 1418 2786 
Q 1159 2488 1159 1978 
L 1159 0 
L 581 0 
L 581 3500 
L 1159 3500 
L 1159 2956 
Q 1356 3278 1631 3431 
Q 1906 3584 2284 3584 
Q 2666 3584 2933 3390 
Q 3200 3197 3328 2828 
z
" transform="scale(0.015625)"/>
      <path id="DejaVuSans-62" d="M 3116 1747 
Q 3116 2381 2855 2742 
Q 2594 3103 2138 3103 
Q 1681 3103 1420 2742 
Q 1159 2381 1159 1747 
Q 1159 1113 1420 752 
Q 1681 391 2138 391 
Q 2594 391 2855 752 
Q 3116 1113 3116 1747 
z
M 1159 2969 
Q 1341 3281 1617 3432 
Q 1894 3584 2278 3584 
Q 2916 3584 3314 3078 
Q 3713 2572 3713 1747 
Q 3713 922 3314 415 
Q 2916 -91 2278 -91 
Q 1894 -91 1617 61 
Q 1341 213 1159 525 
L 1159 0 
L 581 0 
L 581 4863 
L 1159 4863 
L 1159 2969 
z
" transform="scale(0.015625)"/>
      <path id="DejaVuSans-65" d="M 3597 1894 
L 3597 1613 
L 953 1613 
Q 991 1019 1311 708 
Q 1631 397 2203 397 
Q 2534 397 2845 478 
Q 3156 559 3463 722 
L 3463 178 
Q 3153 47 2828 -22 
Q 2503 -91 2169 -91 
Q 1331 -91 842 396 
Q 353 884 353 1716 
Q 353 2575 817 3079 
Q 1281 3584 2069 3584 
Q 2775 3584 3186 3129 
Q 3597 2675 3597 1894 
z
M 3022 2063 
Q 3016 2534 2758 2815 
Q 2500 3097 2075 3097 
Q 1594 3097 1305 2825 
Q 1016 2553 972 2059 
L 3022 2063 
z
" transform="scale(0.015625)"/>
      <path id="DejaVuSans-72" d="M 2631 2963 
Q 2534 3019 2420 3045 
Q 2306 3072 2169 3072 
Q 1681 3072 1420 2755 
Q 1159 2438 1159 1844 
L 1159 0 
L 581 0 
L 581 3500 
L 1159 3500 
L 1159 2956 
Q 1341 3275 1631 3429 
Q 1922 3584 2338 3584 
Q 2397 3584 2469 3576 
Q 2541 3569 2628 3553 
L 2631 2963 
z
" transform="scale(0.015625)"/>
      <path id="DejaVuSans-20" transform="scale(0.015625)"/>
      <path id="DejaVuSans-6f" d="M 1959 3097 
Q 1497 3097 1228 2736 
Q 959 2375 959 1747 
Q 959 1119 1226 758 
Q 1494 397 1959 397 
Q 2419 397 2687 759 
Q 2956 1122 2956 1747 
Q 2956 2369 2687 2733 
Q 2419 3097 1959 3097 
z
M 1959 3584 
Q 2709 3584 3137 3096 
Q 3566 2609 3566 1747 
Q 3566 888 3137 398 
Q 2709 -91 1959 -91 
Q 1206 -91 779 398 
Q 353 888 353 1747 
Q 353 2609 779 3096 
Q 1206 3584 1959 3584 
z
" transform="scale(0.015625)"/>
      <path id="DejaVuSans-66" d="M 2375 4863 
L 2375 4384 
L 1825 4384 
Q 1516 4384 1395 4259 
Q 1275 4134 1275 3809 
L 1275 3500 
L 2222 3500 
L 2222 3053 
L 1275 3053 
L 1275 0 
L 697 0 
L 697 3053 
L 147 3053 
L 147 3500 
L 697 3500 
L 697 3744 
Q 697 4328 969 4595 
Q 1241 4863 1831 4863 
L 2375 4863 
z
" transform="scale(0.015625)"/>
      <path id="DejaVuSans-41" d="M 2188 4044 
L 1331 1722 
L 3047 1722 
L 2188 4044 
z
M 1831 4666 
L 2547 4666 
L 4325 0 
L 3669 0 
L 3244 1197 
L 1141 1197 
L 716 0 
L 50 0 
L 1831 4666 
z
" transform="scale(0.015625)"/>
      <path id="DejaVuSans-45" d="M 628 4666 
L 3578 4666 
L 3578 4134 
L 1259 4134 
L 1259 2753 
L 3481 2753 
L 3481 2222 
L 1259 2222 
L 1259 531 
L 3634 531 
L 3634 0 
L 628 0 
L 628 4666 
z
" transform="scale(0.015625)"/>
      <path id="DejaVuSans-44" d="M 1259 4147 
L 1259 519 
L 2022 519 
Q 2988 519 3436 956 
Q 3884 1394 3884 2338 
Q 3884 3275 3436 3711 
Q 2988 4147 2022 4147 
L 1259 4147 
z
M 628 4666 
L 1925 4666 
Q 3281 4666 3915 4102 
Q 4550 3538 4550 2338 
Q 4550 1131 3912 565 
Q 3275 0 1925 0 
L 628 0 
L 628 4666 
z
" transform="scale(0.015625)"/>
      <path id="DejaVuSans-73" d="M 2834 3397 
L 2834 2853 
Q 2591 2978 2328 3040 
Q 2066 3103 1784 3103 
Q 1356 3103 1142 2972 
Q 928 2841 928 2578 
Q 928 2378 1081 2264 
Q 1234 2150 1697 2047 
L 1894 2003 
Q 2506 1872 2764 1633 
Q 3022 1394 3022 966 
Q 3022 478 2636 193 
Q 2250 -91 1575 -91 
Q 1294 -91 989 -36 
Q 684 19 347 128 
L 347 722 
Q 666 556 975 473 
Q 1284 391 1588 391 
Q 1994 391 2212 530 
Q 2431 669 2431 922 
Q 2431 1156 2273 1281 
Q 2116 1406 1581 1522 
L 1381 1569 
Q 847 1681 609 1914 
Q 372 2147 372 2553 
Q 372 3047 722 3315 
Q 1072 3584 1716 3584 
Q 2034 3584 2315 3537 
Q 2597 3491 2834 3397 
z
" transform="scale(0.015625)"/>
      <path id="DejaVuSans-69" d="M 603 3500 
L 1178 3500 
L 1178 0 
L 603 0 
L 603 3500 
z
M 603 4863 
L 1178 4863 
L 1178 4134 
L 603 4134 
L 603 4863 
z
" transform="scale(0.015625)"/>
      <path id="DejaVuSans-6e" d="M 3513 2113 
L 3513 0 
L 2938 0 
L 2938 2094 
Q 2938 2591 2744 2837 
Q 2550 3084 2163 3084 
Q 1697 3084 1428 2787 
Q 1159 2491 1159 1978 
L 1159 0 
L 581 0 
L 581 3500 
L 1159 3500 
L 1159 2956 
Q 1366 3272 1645 3428 
Q 1925 3584 2291 3584 
Q 2894 3584 3203 3211 
Q 3513 2838 3513 2113 
z
" transform="scale(0.015625)"/>
      <path id="DejaVuSans-74" d="M 1172 4494 
L 1172 3500 
L 2356 3500 
L 2356 3053 
L 1172 3053 
L 1172 1153 
Q 1172 725 1289 603 
Q 1406 481 1766 481 
L 2356 481 
L 2356 0 
L 1766 0 
Q 1100 0 847 248 
Q 594 497 594 1153 
L 594 3053 
L 172 3053 
L 172 3500 
L 594 3500 
L 594 4494 
L 1172 4494 
z
" transform="scale(0.015625)"/>
      <path id="DejaVuSans-68" d="M 3513 2113 
L 3513 0 
L 2938 0 
L 2938 2094 
Q 2938 2591 2744 2837 
Q 2550 3084 2163 3084 
Q 1697 3084 1428 2787 
Q 1159 2491 1159 1978 
L 1159 0 
L 581 0 
L 581 4863 
L 1159 4863 
L 1159 2956 
Q 1366 3272 1645 3428 
Q 1925 3584 2291 3584 
Q 2894 3584 3203 3211 
Q 3513 2838 3513 2113 
z
" transform="scale(0.015625)"/>
      <path id="DejaVuSans-4f" d="M 2522 4238 
Q 1834 4238 1429 3725 
Q 1025 3213 1025 2328 
Q 1025 1447 1429 934 
Q 1834 422 2522 422 
Q 3209 422 3611 934 
Q 4013 1447 4013 2328 
Q 4013 3213 3611 3725 
Q 3209 4238 2522 4238 
z
M 2522 4750 
Q 3503 4750 4090 4092 
Q 4678 3434 4678 2328 
Q 4678 1225 4090 567 
Q 3503 -91 2522 -91 
Q 1538 -91 948 565 
Q 359 1222 359 2328 
Q 359 3434 948 4092 
Q 1538 4750 2522 4750 
z
" transform="scale(0.015625)"/>
      <path id="DejaVuSans-70" d="M 1159 525 
L 1159 -1331 
L 581 -1331 
L 581 3500 
L 1159 3500 
L 1159 2969 
Q 1341 3281 1617 3432 
Q 1894 3584 2278 3584 
Q 2916 3584 3314 3078 
Q 3713 2572 3713 1747 
Q 3713 922 3314 415 
Q 2916 -91 2278 -91 
Q 1894 -91 1617 61 
Q 1341 213 1159 525 
z
M 3116 1747 
Q 3116 2381 2855 2742 
Q 2594 3103 2138 3103 
Q 1681 3103 1420 2742 
Q 1159 2381 1159 1747 
Q 1159 1113 1420 752 
Q 1681 391 2138 391 
Q 2594 391 2855 752 
Q 3116 1113 3116 1747 
z
" transform="scale(0.015625)"/>
      <path id="DejaVuSans-53" d="M 3425 4513 
L 3425 3897 
Q 3066 4069 2747 4153 
Q 2428 4238 2131 4238 
Q 1616 4238 1336 4038 
Q 1056 3838 1056 3469 
Q 1056 3159 1242 3001 
Q 1428 2844 1947 2747 
L 2328 2669 
Q 3034 2534 3370 2195 
Q 3706 1856 3706 1288 
Q 3706 609 3251 259 
Q 2797 -91 1919 -91 
Q 1588 -91 1214 -16 
Q 841 59 441 206 
L 441 856 
Q 825 641 1194 531 
Q 1563 422 1919 422 
Q 2459 422 2753 634 
Q 3047 847 3047 1241 
Q 3047 1584 2836 1778 
Q 2625 1972 2144 2069 
L 1759 2144 
Q 1053 2284 737 2584 
Q 422 2884 422 3419 
Q 422 4038 858 4394 
Q 1294 4750 2059 4750 
Q 2388 4750 2728 4690 
Q 3069 4631 3425 4513 
z
" transform="scale(0.015625)"/>
      <path id="DejaVuSans-4d" d="M 628 4666 
L 1569 4666 
L 2759 1491 
L 3956 4666 
L 4897 4666 
L 4897 0 
L 4281 0 
L 4281 4097 
L 3078 897 
L 2444 897 
L 1241 4097 
L 1241 0 
L 628 0 
L 628 4666 
z
" transform="scale(0.015625)"/>
      <path id="DejaVuSans-61" d="M 2194 1759 
Q 1497 1759 1228 1600 
Q 959 1441 959 1056 
Q 959 750 1161 570 
Q 1363 391 1709 391 
Q 2188 391 2477 730 
Q 2766 1069 2766 1631 
L 2766 1759 
L 2194 1759 
z
M 3341 1997 
L 3341 0 
L 2766 0 
L 2766 531 
Q 2569 213 2275 61 
Q 1981 -91 1556 -91 
Q 1019 -91 701 211 
Q 384 513 384 1019 
Q 384 1609 779 1909 
Q 1175 2209 1959 2209 
L 2766 2209 
L 2766 2266 
Q 2766 2663 2505 2880 
Q 2244 3097 1772 3097 
Q 1472 3097 1187 3025 
Q 903 2953 641 2809 
L 641 3341 
Q 956 3463 1253 3523 
Q 1550 3584 1831 3584 
Q 2591 3584 2966 3190 
Q 3341 2797 3341 1997 
z
" transform="scale(0.015625)"/>
      <path id="DejaVuSans-64" d="M 2906 2969 
L 2906 4863 
L 3481 4863 
L 3481 0 
L 2906 0 
L 2906 525 
Q 2725 213 2448 61 
Q 2172 -91 1784 -91 
Q 1150 -91 751 415 
Q 353 922 353 1747 
Q 353 2572 751 3078 
Q 1150 3584 1784 3584 
Q 2172 3584 2448 3432 
Q 2725 3281 2906 2969 
z
M 947 1747 
Q 947 1113 1208 752 
Q 1469 391 1925 391 
Q 2381 391 2643 752 
Q 2906 1113 2906 1747 
Q 2906 2381 2643 2742 
Q 2381 3103 1925 3103 
Q 1469 3103 1208 2742 
Q 947 2381 947 1747 
z
" transform="scale(0.015625)"/>
      <path id="DejaVuSans-50" d="M 1259 4147 
L 1259 2394 
L 2053 2394 
Q 2494 2394 2734 2622 
Q 2975 2850 2975 3272 
Q 2975 3691 2734 3919 
Q 2494 4147 2053 4147 
L 1259 4147 
z
M 628 4666 
L 2053 4666 
Q 2838 4666 3239 4311 
Q 3641 3956 3641 3272 
Q 3641 2581 3239 2228 
Q 2838 1875 2053 1875 
L 1259 1875 
L 1259 0 
L 628 0 
L 628 4666 
z
" transform="scale(0.015625)"/>
      <path id="DejaVuSans-6c" d="M 603 4863 
L 1178 4863 
L 1178 0 
L 603 0 
L 603 4863 
z
" transform="scale(0.015625)"/>
      <path id="DejaVuSans-2c" d="M 750 794 
L 1409 794 
L 1409 256 
L 897 -744 
L 494 -744 
L 750 256 
L 750 794 
z
" transform="scale(0.015625)"/>
      <path id="DejaVuSans-79" d="M 2059 -325 
Q 1816 -950 1584 -1140 
Q 1353 -1331 966 -1331 
L 506 -1331 
L 506 -850 
L 844 -850 
Q 1081 -850 1212 -737 
Q 1344 -625 1503 -206 
L 1606 56 
L 191 3500 
L 800 3500 
L 1894 763 
L 2988 3500 
L 3597 3500 
L 2059 -325 
z
" transform="scale(0.015625)"/>
      <path id="DejaVuSans-2e" d="M 684 794 
L 1344 794 
L 1344 0 
L 684 0 
L 684 794 
z
" transform="scale(0.015625)"/>
      <path id="DejaVuSans-3a" d="M 750 794 
L 1409 794 
L 1409 0 
L 750 0 
L 750 794 
z
M 750 3309 
L 1409 3309 
L 1409 2516 
L 750 2516 
L 750 3309 
z
" transform="scale(0.015625)"/>
     </defs>
     <use xlink:href="#DejaVuSans-4e"/>
     <use xlink:href="#DejaVuSans-75" x="74.804688"/>
     <use xlink:href="#DejaVuSans-6d" x="138.183594"/>
     <use xlink:href="#DejaVuSans-62" x="235.595703"/>
     <use xlink:href="#DejaVuSans-65" x="299.072266"/>
     <use xlink:href="#DejaVuSans-72" x="360.595703"/>
     <use xlink:href="#DejaVuSans-20" x="401.708984"/>
     <use xlink:href="#DejaVuSans-6f" x="433.496094"/>
     <use xlink:href="#DejaVuSans-66" x="494.677734"/>
     <use xlink:href="#DejaVuSans-20" x="529.882812"/>
     <use xlink:href="#DejaVuSans-41" x="561.669922"/>
     <use xlink:href="#DejaVuSans-45" x="630.078125"/>
     <use xlink:href="#DejaVuSans-44" x="693.261719"/>
     <use xlink:href="#DejaVuSans-73" x="770.263672"/>
     <use xlink:href="#DejaVuSans-20" x="822.363281"/>
     <use xlink:href="#DejaVuSans-69" x="854.150391"/>
     <use xlink:href="#DejaVuSans-6e" x="881.933594"/>
     <use xlink:href="#DejaVuSans-20" x="945.3125"/>
     <use xlink:href="#DejaVuSans-74" x="977.099609"/>
     <use xlink:href="#DejaVuSans-68" x="1016.308594"/>
     <use xlink:href="#DejaVuSans-65" x="1079.6875"/>
     <use xlink:href="#DejaVuSans-20" x="1141.210938"/>
     <use xlink:href="#DejaVuSans-4f" x="1172.998047"/>
     <use xlink:href="#DejaVuSans-70" x="1251.708984"/>
     <use xlink:href="#DejaVuSans-65" x="1315.185547"/>
     <use xlink:href="#DejaVuSans-6e" x="1376.708984"/>
     <use xlink:href="#DejaVuSans-53" x="1440.087891"/>
     <use xlink:href="#DejaVuSans-74" x="1503.564453"/>
     <use xlink:href="#DejaVuSans-72" x="1542.773438"/>
     <use xlink:href="#DejaVuSans-65" x="1581.636719"/>
     <use xlink:href="#DejaVuSans-65" x="1643.160156"/>
     <use xlink:href="#DejaVuSans-74" x="1704.683594"/>
     <use xlink:href="#DejaVuSans-4d" x="1743.892578"/>
     <use xlink:href="#DejaVuSans-61" x="1830.171875"/>
     <use xlink:href="#DejaVuSans-70" x="1891.451172"/>
     <use xlink:href="#DejaVuSans-20" x="1954.927734"/>
     <use xlink:href="#DejaVuSans-64" x="1986.714844"/>
     <use xlink:href="#DejaVuSans-61" x="2050.191406"/>
     <use xlink:href="#DejaVuSans-74" x="2111.470703"/>
     <use xlink:href="#DejaVuSans-61" x="2150.679688"/>
     <use xlink:href="#DejaVuSans-62" x="2211.958984"/>
     <use xlink:href="#DejaVuSans-61" x="2275.435547"/>
     <use xlink:href="#DejaVuSans-73" x="2336.714844"/>
     <use xlink:href="#DejaVuSans-65" x="2388.814453"/>
     <use xlink:href="#DejaVuSans-20" x="2450.337891"/>
     <use xlink:href="#DejaVuSans-69" x="2482.125"/>
     <use xlink:href="#DejaVuSans-6e" x="2509.908203"/>
     <use xlink:href="#DejaVuSans-20" x="2573.287109"/>
     <use xlink:href="#DejaVuSans-50" x="2605.074219"/>
     <use xlink:href="#DejaVuSans-6f" x="2661.751953"/>
     <use xlink:href="#DejaVuSans-6c" x="2722.933594"/>
     <use xlink:href="#DejaVuSans-61" x="2750.716797"/>
     <use xlink:href="#DejaVuSans-6e" x="2811.996094"/>
     <use xlink:href="#DejaVuSans-64" x="2875.375"/>
     <use xlink:href="#DejaVuSans-20" x="2938.851562"/>
     <use xlink:href="#DejaVuSans-66" x="2970.638672"/>
     <use xlink:href="#DejaVuSans-72" x="3005.84375"/>
     <use xlink:href="#DejaVuSans-6f" x="3044.707031"/>
     <use xlink:href="#DejaVuSans-6d" x="3105.888672"/>
     <use xlink:href="#DejaVuSans-20" x="3203.300781"/>
     <use xlink:href="#DejaVuSans-32" x="3235.087891"/>
     <use xlink:href="#DejaVuSans-30" x="3298.710938"/>
     <use xlink:href="#DejaVuSans-32" x="3362.333984"/>
     <use xlink:href="#DejaVuSans-36" x="3425.957031"/>
     <use xlink:href="#DejaVuSans-2d" x="3489.580078"/>
     <use xlink:href="#DejaVuSans-30" x="3525.664062"/>
     <use xlink:href="#DejaVuSans-31" x="3589.287109"/>
     <use xlink:href="#DejaVuSans-2d" x="3652.910156"/>
     <use xlink:href="#DejaVuSans-30" x="3688.994141"/>
     <use xlink:href="#DejaVuSans-31" x="3752.617188"/>
     <use xlink:href="#DejaVuSans-2c" x="3816.240234"/>
     <use xlink:href="#DejaVuSans-20" x="3848.027344"/>
     <use xlink:href="#DejaVuSans-64" x="3879.814453"/>
     <use xlink:href="#DejaVuSans-61" x="3943.291016"/>
     <use xlink:href="#DejaVuSans-79" x="4004.570312"/>
     <use xlink:href="#DejaVuSans-20" x="4063.75"/>
     <use xlink:href="#DejaVuSans-62" x="4095.537109"/>
     <use xlink:href="#DejaVuSans-79" x="4159.013672"/>
     <use xlink:href="#DejaVuSans-20" x="4218.193359"/>
     <use xlink:href="#DejaVuSans-64" x="4249.980469"/>
     <use xlink:href="#DejaVuSans-61" x="4313.457031"/>
     <use xlink:href="#DejaVuSans-79" x="4374.736328"/>
     <use xlink:href="#DejaVuSans-2e" x="4419.666016"/>
     <use xlink:href="#DejaVuSans-20" x="4451.453125"/>
     <use xlink:href="#DejaVuSans-41" x="4483.240234"/>
     <use xlink:href="#DejaVuSans-73" x="4551.648438"/>
     <use xlink:href="#DejaVuSans-20" x="4603.748047"/>
     <use xlink:href="#DejaVuSans-61" x="4635.535156"/>
     <use xlink:href="#DejaVuSans-74" x="4696.814453"/>
     <use xlink:href="#DejaVuSans-3a" x="4736.023438"/>
     <use xlink:href="#DejaVuSans-20" x="4769.714844"/>
     <use xlink:href="#DejaVuSans-32" x="4801.501953"/>
     <use xlink:href="#DejaVuSans-30" x="4865.125"/>
     <use xlink:href="#DejaVuSans-32" x="4928.748047"/>
     <use xlink:href="#DejaVuSans-36" x="4992.371094"/>
     <use xlink:href="#DejaVuSans-2d" x="5055.994141"/>
     <use xlink:href="#DejaVuSans-30" x="5092.078125"/>
     <use xlink:href="#DejaVuSans-32" x="5155.701172"/>
     <use xlink:href="#DejaVuSans-2d" x="5219.324219"/>
     <use xlink:href="#DejaVuSans-31" x="5255.408203"/>
     <use xlink:href="#DejaVuSans-35" x="5319.03125"/>
    </g>
   </g>
  </g>
 </g>
 <defs>
  <clipPath id="p0d27a52e6b">
   <rect x="144" y="69.12" width="892.8" height="443.52"/>
  </clipPath>
 </defs>
</svg>
