<?xml version="1.0" encoding="utf-8" standalone="no"?>
<!DOCTYPE svg PUBLIC "-//W3C//DTD SVG 1.1//EN"
  "http://www.w3.org/Graphics/SVG/1.1/DTD/svg11.dtd">
<svg xmlns:xlink="http://www.w3.org/1999/xlink" width="1152pt" height="576pt" viewBox="0 0 1152 576" xmlns="http://www.w3.org/2000/svg" version="1.1">
 <metadata>
  <rdf:RDF xmlns:dc="http://purl.org/dc/elements/1.1/" xmlns:cc="http://creativecommons.org/ns#" xmlns:rdf="http://www.w3.org/1999/02/22-rdf-syntax-ns#">
   <cc:Work>
    <dc:type rdf:resource="http://purl.org/dc/dcmitype/StillImage"/>
    <dc:date>2024-02-17T12:33:21.636504</dc:date>
    <dc:format>image/svg+xml</dc:format>
    <dc:creator>
     <cc:Agent>
      <dc:title>Matplotlib v3.5.1, https://matplotlib.org/</dc:title>
     </cc:Agent>
    </dc:creator>
   </cc:Work>
  </rdf:RDF>
 </metadata>
 <defs>
  <style type="text/css">*{stroke-linejoin: round; stroke-linecap: butt}</style>
 </defs>
 <g id="figure_1">
  <g id="patch_1">
   <path d="M 0 576 
L 1152 576 
L 1152 0 
L 0 0 
z
" style="fill: #ffffff"/>
  </g>
  <g id="axes_1">
   <g id="patch_2">
    <path d="M 144 512.64 
L 1036.8 512.64 
L 1036.8 69.12 
L 144 69.12 
z
" style="fill: #ffffff"/>
   </g>
   <g id="PathCollection_1">
    <path d="M 184.581818 496.015534 
C 185.519453 496.015534 186.41881 495.643008 187.081818 494.98 
C 187.744826 494.316992 188.117352 493.417635 188.117352 492.48 
C 188.117352 491.542365 187.744826 490.643008 187.081818 489.98 
C 186.41881 489.316992 185.519453 488.944466 184.581818 488.944466 
C 183.644184 488.944466 182.744826 489.316992 182.081818 489.98 
C 181.41881 490.643008 181.046284 491.542365 181.046284 492.48 
C 181.046284 493.417635 181.41881 494.316992 182.081818 494.98 
C 182.744826 495.643008 183.644184 496.015534 184.581818 496.015534 
z
" clip-path="url(#p0f8084a622)" style="fill: #1f77b4; fill-opacity: 0.3; stroke: #1f77b4; stroke-opacity: 0.3"/>
    <path d="M 201.850677 474.067507 
C 203.772256 474.067507 205.615391 473.304055 206.974152 471.945294 
C 208.332914 470.586532 209.096365 468.743397 209.096365 466.821818 
C 209.096365 464.900239 208.332914 463.057104 206.974152 461.698343 
C 205.615391 460.339581 203.772256 459.57613 201.850677 459.57613 
C 199.929098 459.57613 198.085963 460.339581 196.727202 461.698343 
C 195.36844 463.057104 194.604989 464.900239 194.604989 466.821818 
C 194.604989 468.743397 195.36844 470.586532 196.727202 471.945294 
C 198.085963 473.304055 199.929098 474.067507 201.850677 474.067507 
z
" clip-path="url(#p0f8084a622)" style="fill: #1f77b4; fill-opacity: 0.3; stroke: #1f77b4; stroke-opacity: 0.3"/>
    <path d="M 219.119536 443.116803 
C 221.257672 443.116803 223.308523 442.267313 224.820413 440.755423 
C 226.332303 439.243532 227.181794 437.192681 227.181794 435.054545 
C 227.181794 432.91641 226.332303 430.865559 224.820413 429.353668 
C 223.308523 427.841778 221.257672 426.992288 219.119536 426.992288 
C 216.9814 426.992288 214.930549 427.841778 213.418659 429.353668 
C 211.906768 430.865559 211.057278 432.91641 211.057278 435.054545 
C 211.057278 437.192681 211.906768 439.243532 213.418659 440.755423 
C 214.930549 442.267313 216.9814 443.116803 219.119536 443.116803 
z
" clip-path="url(#p0f8084a622)" style="fill: #1f77b4; fill-opacity: 0.3; stroke: #1f77b4; stroke-opacity: 0.3"/>
    <path d="M 236.388395 435.413866 
C 236.807718 435.413866 237.209922 435.247267 237.506429 434.950761 
C 237.802935 434.654255 237.969533 434.25205 237.969533 433.832727 
C 237.969533 433.413404 237.802935 433.011199 237.506429 432.714693 
C 237.209922 432.418187 236.807718 432.251588 236.388395 432.251588 
C 235.969072 432.251588 235.566867 432.418187 235.270361 432.714693 
C 234.973855 433.011199 234.807256 433.413404 234.807256 433.832727 
C 234.807256 434.25205 234.973855 434.654255 235.270361 434.950761 
C 235.566867 435.247267 235.969072 435.413866 236.388395 435.413866 
z
" clip-path="url(#p0f8084a622)" style="fill: #1f77b4; fill-opacity: 0.3; stroke: #1f77b4; stroke-opacity: 0.3"/>
    <path d="M 253.657253 426.614545 
C 254.983269 426.614545 256.255153 426.087714 257.192787 425.150079 
C 258.130422 424.212445 258.657253 422.940561 258.657253 421.614545 
C 258.657253 420.28853 258.130422 419.016646 257.192787 418.079012 
C 256.255153 417.141377 254.983269 416.614545 253.657253 416.614545 
C 252.331238 416.614545 251.059354 417.141377 250.121719 418.079012 
C 249.184085 419.016646 248.657253 420.28853 248.657253 421.614545 
C 248.657253 422.940561 249.184085 424.212445 250.121719 425.150079 
C 251.059354 426.087714 252.331238 426.614545 253.657253 426.614545 
z
" clip-path="url(#p0f8084a622)" style="fill: #1f77b4; fill-opacity: 0.3; stroke: #1f77b4; stroke-opacity: 0.3"/>
    <path d="M 288.194971 419.040988 
C 289.132606 419.040988 290.031963 418.668462 290.694971 418.005455 
C 291.357979 417.342447 291.730505 416.443089 291.730505 415.505455 
C 291.730505 414.56782 291.357979 413.668462 290.694971 413.005455 
C 290.031963 412.342447 289.132606 411.969921 288.194971 411.969921 
C 287.257336 411.969921 286.357979 412.342447 285.694971 413.005455 
C 285.031963 413.668462 284.659437 414.56782 284.659437 415.505455 
C 284.659437 416.443089 285.031963 417.342447 285.694971 418.005455 
C 286.357979 418.668462 287.257336 419.040988 288.194971 419.040988 
z
" clip-path="url(#p0f8084a622)" style="fill: #1f77b4; fill-opacity: 0.3; stroke: #1f77b4; stroke-opacity: 0.3"/>
    <path d="M 305.46383 413.780459 
C 306.302476 413.780459 307.106886 413.447262 307.699898 412.85425 
C 308.29291 412.261238 308.626107 411.456828 308.626107 410.618182 
C 308.626107 409.779536 308.29291 408.975126 307.699898 408.382114 
C 307.106886 407.789102 306.302476 407.455904 305.46383 407.455904 
C 304.625184 407.455904 303.820774 407.789102 303.227762 408.382114 
C 302.63475 408.975126 302.301552 409.779536 302.301552 410.618182 
C 302.301552 411.456828 302.63475 412.261238 303.227762 412.85425 
C 303.820774 413.447262 304.625184 413.780459 305.46383 413.780459 
z
" clip-path="url(#p0f8084a622)" style="fill: #1f77b4; fill-opacity: 0.3; stroke: #1f77b4; stroke-opacity: 0.3"/>
    <path d="M 322.732689 409.69134 
C 323.458977 409.69134 324.155617 409.402783 324.66918 408.889219 
C 325.182744 408.375655 325.471301 407.679016 325.471301 406.952727 
C 325.471301 406.226439 325.182744 405.529799 324.66918 405.016236 
C 324.155617 404.502672 323.458977 404.214114 322.732689 404.214114 
C 322.0064 404.214114 321.309761 404.502672 320.796197 405.016236 
C 320.282633 405.529799 319.994076 406.226439 319.994076 406.952727 
C 319.994076 407.679016 320.282633 408.375655 320.796197 408.889219 
C 321.309761 409.402783 322.0064 409.69134 322.732689 409.69134 
z
" clip-path="url(#p0f8084a622)" style="fill: #1f77b4; fill-opacity: 0.3; stroke: #1f77b4; stroke-opacity: 0.3"/>
    <path d="M 340.001547 405.227732 
C 340.840193 405.227732 341.644603 404.894535 342.237615 404.301523 
C 342.830628 403.70851 343.163825 402.9041 343.163825 402.065455 
C 343.163825 401.226809 342.830628 400.422399 342.237615 399.829387 
C 341.644603 399.236374 340.840193 398.903177 340.001547 398.903177 
C 339.162902 398.903177 338.358492 399.236374 337.765479 399.829387 
C 337.172467 400.422399 336.83927 401.226809 336.83927 402.065455 
C 336.83927 402.9041 337.172467 403.70851 337.765479 404.301523 
C 338.358492 404.894535 339.162902 405.227732 340.001547 405.227732 
z
" clip-path="url(#p0f8084a622)" style="fill: #1f77b4; fill-opacity: 0.3; stroke: #1f77b4; stroke-opacity: 0.3"/>
    <path d="M 357.270406 398.607529 
C 358.297533 398.607529 359.28273 398.199447 360.009019 397.473158 
C 360.735308 396.74687 361.14339 395.761673 361.14339 394.734545 
C 361.14339 393.707418 360.735308 392.722221 360.009019 391.995933 
C 359.28273 391.269644 358.297533 390.861562 357.270406 390.861562 
C 356.243279 390.861562 355.258082 391.269644 354.531793 391.995933 
C 353.805505 392.722221 353.397423 393.707418 353.397423 394.734545 
C 353.397423 395.761673 353.805505 396.74687 354.531793 397.473158 
C 355.258082 398.199447 356.243279 398.607529 357.270406 398.607529 
z
" clip-path="url(#p0f8084a622)" style="fill: #1f77b4; fill-opacity: 0.3; stroke: #1f77b4; stroke-opacity: 0.3"/>
    <path d="M 374.539265 381.51001 
C 376.216557 381.51001 377.825377 380.843615 379.011401 379.657591 
C 380.197425 378.471566 380.86382 376.862746 380.86382 375.185455 
C 380.86382 373.508163 380.197425 371.899343 379.011401 370.713319 
C 377.825377 369.527294 376.216557 368.860899 374.539265 368.860899 
C 372.861973 368.860899 371.253153 369.527294 370.067129 370.713319 
C 368.881105 371.899343 368.21471 373.508163 368.21471 375.185455 
C 368.21471 376.862746 368.881105 378.471566 370.067129 379.657591 
C 371.253153 380.843615 372.861973 381.51001 374.539265 381.51001 
z
" clip-path="url(#p0f8084a622)" style="fill: #1f77b4; fill-opacity: 0.3; stroke: #1f77b4; stroke-opacity: 0.3"/>
    <path d="M 391.808124 374.258613 
C 392.534412 374.258613 393.231052 373.970055 393.744615 373.456492 
C 394.258179 372.942928 394.546737 372.246289 394.546737 371.52 
C 394.546737 370.793711 394.258179 370.097072 393.744615 369.583508 
C 393.231052 369.069945 392.534412 368.781387 391.808124 368.781387 
C 391.081835 368.781387 390.385196 369.069945 389.871632 369.583508 
C 389.358069 370.097072 389.069511 370.793711 389.069511 371.52 
C 389.069511 372.246289 389.358069 372.942928 389.871632 373.456492 
C 390.385196 373.970055 391.081835 374.258613 391.808124 374.258613 
z
" clip-path="url(#p0f8084a622)" style="fill: #1f77b4; fill-opacity: 0.3; stroke: #1f77b4; stroke-opacity: 0.3"/>
    <path d="M 409.076983 370.593158 
C 409.803271 370.593158 410.499911 370.304601 411.013474 369.791037 
C 411.527038 369.277474 411.815595 368.580834 411.815595 367.854545 
C 411.815595 367.128257 411.527038 366.431617 411.013474 365.918054 
C 410.499911 365.40449 409.803271 365.115933 409.076983 365.115933 
C 408.350694 365.115933 407.654055 365.40449 407.140491 365.918054 
C 406.626927 366.431617 406.33837 367.128257 406.33837 367.854545 
C 406.33837 368.580834 406.626927 369.277474 407.140491 369.791037 
C 407.654055 370.304601 408.350694 370.593158 409.076983 370.593158 
z
" clip-path="url(#p0f8084a622)" style="fill: #1f77b4; fill-opacity: 0.3; stroke: #1f77b4; stroke-opacity: 0.3"/>
    <path d="M 426.345841 355.650997 
C 427.969872 355.650997 429.527605 355.005763 430.675968 353.8574 
C 431.824332 352.709037 432.469566 351.151303 432.469566 349.527273 
C 432.469566 347.903242 431.824332 346.345509 430.675968 345.197146 
C 429.527605 344.048783 427.969872 343.403548 426.345841 343.403548 
C 424.721811 343.403548 423.164077 344.048783 422.015714 345.197146 
C 420.867351 346.345509 420.222117 347.903242 420.222117 349.527273 
C 420.222117 351.151303 420.867351 352.709037 422.015714 353.8574 
C 423.164077 355.005763 424.721811 355.650997 426.345841 355.650997 
z
" clip-path="url(#p0f8084a622)" style="fill: #1f77b4; fill-opacity: 0.3; stroke: #1f77b4; stroke-opacity: 0.3"/>
    <path d="M 443.6147 347.802278 
C 444.453346 347.802278 445.257756 347.46908 445.850768 346.876068 
C 446.44378 346.283056 446.776978 345.478646 446.776978 344.64 
C 446.776978 343.801354 446.44378 342.996944 445.850768 342.403932 
C 445.257756 341.81092 444.453346 341.477722 443.6147 341.477722 
C 442.776054 341.477722 441.971644 341.81092 441.378632 342.403932 
C 440.78562 342.996944 440.452423 343.801354 440.452423 344.64 
C 440.452423 345.478646 440.78562 346.283056 441.378632 346.876068 
C 441.971644 347.46908 442.776054 347.802278 443.6147 347.802278 
z
" clip-path="url(#p0f8084a622)" style="fill: #1f77b4; fill-opacity: 0.3; stroke: #1f77b4; stroke-opacity: 0.3"/>
    <path d="M 460.883559 335.455407 
C 462.336136 335.455407 463.729415 334.878292 464.756542 333.851165 
C 465.78367 332.824038 466.360785 331.430759 466.360785 329.978182 
C 466.360785 328.525605 465.78367 327.132326 464.756542 326.105198 
C 463.729415 325.078071 462.336136 324.500956 460.883559 324.500956 
C 459.430982 324.500956 458.037703 325.078071 457.010576 326.105198 
C 455.983448 327.132326 455.406333 328.525605 455.406333 329.978182 
C 455.406333 331.430759 455.983448 332.824038 457.010576 333.851165 
C 458.037703 334.878292 459.430982 335.455407 460.883559 335.455407 
z
" clip-path="url(#p0f8084a622)" style="fill: #1f77b4; fill-opacity: 0.3; stroke: #1f77b4; stroke-opacity: 0.3"/>
    <path d="M 478.152418 327.404625 
C 479.090052 327.404625 479.98941 327.032099 480.652418 326.369091 
C 481.315426 325.706083 481.687952 324.806725 481.687952 323.869091 
C 481.687952 322.931456 481.315426 322.032099 480.652418 321.369091 
C 479.98941 320.706083 479.090052 320.333557 478.152418 320.333557 
C 477.214783 320.333557 476.315426 320.706083 475.652418 321.369091 
C 474.98941 322.032099 474.616884 322.931456 474.616884 323.869091 
C 474.616884 324.806725 474.98941 325.706083 475.652418 326.369091 
C 476.315426 327.032099 477.214783 327.404625 478.152418 327.404625 
z
" clip-path="url(#p0f8084a622)" style="fill: #1f77b4; fill-opacity: 0.3; stroke: #1f77b4; stroke-opacity: 0.3"/>
    <path d="M 495.421277 320.411165 
C 496.448404 320.411165 497.433601 320.003083 498.159889 319.276795 
C 498.886178 318.550506 499.29426 317.565309 499.29426 316.538182 
C 499.29426 315.511055 498.886178 314.525858 498.159889 313.799569 
C 497.433601 313.07328 496.448404 312.665198 495.421277 312.665198 
C 494.394149 312.665198 493.408952 313.07328 492.682664 313.799569 
C 491.956375 314.525858 491.548293 315.511055 491.548293 316.538182 
C 491.548293 317.565309 491.956375 318.550506 492.682664 319.276795 
C 493.408952 320.003083 494.394149 320.411165 495.421277 320.411165 
z
" clip-path="url(#p0f8084a622)" style="fill: #1f77b4; fill-opacity: 0.3; stroke: #1f77b4; stroke-opacity: 0.3"/>
    <path d="M 512.690135 315.61134 
C 513.416424 315.61134 514.113063 315.322783 514.626627 314.809219 
C 515.140191 314.295655 515.428748 313.599016 515.428748 312.872727 
C 515.428748 312.146439 515.140191 311.449799 514.626627 310.936236 
C 514.113063 310.422672 513.416424 310.134114 512.690135 310.134114 
C 511.963847 310.134114 511.267207 310.422672 510.753644 310.936236 
C 510.24008 311.449799 509.951523 312.146439 509.951523 312.872727 
C 509.951523 313.599016 510.24008 314.295655 510.753644 314.809219 
C 511.267207 315.322783 511.963847 315.61134 512.690135 315.61134 
z
" clip-path="url(#p0f8084a622)" style="fill: #1f77b4; fill-opacity: 0.3; stroke: #1f77b4; stroke-opacity: 0.3"/>
    <path d="M 529.958994 311.945886 
C 530.685283 311.945886 531.381922 311.657328 531.895486 311.143764 
C 532.409049 310.630201 532.697607 309.933561 532.697607 309.207273 
C 532.697607 308.480984 532.409049 307.784345 531.895486 307.270781 
C 531.381922 306.757217 530.685283 306.46866 529.958994 306.46866 
C 529.232706 306.46866 528.536066 306.757217 528.022503 307.270781 
C 527.508939 307.784345 527.220381 308.480984 527.220381 309.207273 
C 527.220381 309.933561 527.508939 310.630201 528.022503 311.143764 
C 528.536066 311.657328 529.232706 311.945886 529.958994 311.945886 
z
" clip-path="url(#p0f8084a622)" style="fill: #1f77b4; fill-opacity: 0.3; stroke: #1f77b4; stroke-opacity: 0.3"/>
    <path d="M 547.227853 306.633716 
C 548.165488 306.633716 549.064845 306.26119 549.727853 305.598182 
C 550.390861 304.935174 550.763387 304.035816 550.763387 303.098182 
C 550.763387 302.160547 550.390861 301.26119 549.727853 300.598182 
C 549.064845 299.935174 548.165488 299.562648 547.227853 299.562648 
C 546.290218 299.562648 545.390861 299.935174 544.727853 300.598182 
C 544.064845 301.26119 543.692319 302.160547 543.692319 303.098182 
C 543.692319 304.035816 544.064845 304.935174 544.727853 305.598182 
C 545.390861 306.26119 546.290218 306.633716 547.227853 306.633716 
z
" clip-path="url(#p0f8084a622)" style="fill: #1f77b4; fill-opacity: 0.3; stroke: #1f77b4; stroke-opacity: 0.3"/>
    <path d="M 564.496712 300.524625 
C 565.434346 300.524625 566.333704 300.152099 566.996712 299.489091 
C 567.65972 298.826083 568.032246 297.926725 568.032246 296.989091 
C 568.032246 296.051456 567.65972 295.152099 566.996712 294.489091 
C 566.333704 293.826083 565.434346 293.453557 564.496712 293.453557 
C 563.559077 293.453557 562.65972 293.826083 561.996712 294.489091 
C 561.333704 295.152099 560.961178 296.051456 560.961178 296.989091 
C 560.961178 297.926725 561.333704 298.826083 561.996712 299.489091 
C 562.65972 300.152099 563.559077 300.524625 564.496712 300.524625 
z
" clip-path="url(#p0f8084a622)" style="fill: #1f77b4; fill-opacity: 0.3; stroke: #1f77b4; stroke-opacity: 0.3"/>
    <path d="M 581.765571 295.264096 
C 582.604216 295.264096 583.408626 294.930898 584.001639 294.337886 
C 584.594651 293.744874 584.927848 292.940464 584.927848 292.101818 
C 584.927848 291.263172 584.594651 290.458762 584.001639 289.86575 
C 583.408626 289.272738 582.604216 288.939541 581.765571 288.939541 
C 580.926925 288.939541 580.122515 289.272738 579.529503 289.86575 
C 578.93649 290.458762 578.603293 291.263172 578.603293 292.101818 
C 578.603293 292.940464 578.93649 293.744874 579.529503 294.337886 
C 580.122515 294.930898 580.926925 295.264096 581.765571 295.264096 
z
" clip-path="url(#p0f8084a622)" style="fill: #1f77b4; fill-opacity: 0.3; stroke: #1f77b4; stroke-opacity: 0.3"/>
    <path d="M 599.034429 291.89425 
C 599.627442 291.89425 600.196245 291.658644 600.615568 291.239321 
C 601.034891 290.819998 601.270497 290.251194 601.270497 289.658182 
C 601.270497 289.06517 601.034891 288.496366 600.615568 288.077043 
C 600.196245 287.65772 599.627442 287.422114 599.034429 287.422114 
C 598.441417 287.422114 597.872613 287.65772 597.453291 288.077043 
C 597.033968 288.496366 596.798361 289.06517 596.798361 289.658182 
C 596.798361 290.251194 597.033968 290.819998 597.453291 291.239321 
C 597.872613 291.658644 598.441417 291.89425 599.034429 291.89425 
z
" clip-path="url(#p0f8084a622)" style="fill: #1f77b4; fill-opacity: 0.3; stroke: #1f77b4; stroke-opacity: 0.3"/>
    <path d="M 616.303288 285.288755 
C 617.412712 285.288755 618.476847 284.847976 619.261328 284.063494 
C 620.045809 283.279013 620.486588 282.214879 620.486588 281.105455 
C 620.486588 279.99603 620.045809 278.931896 619.261328 278.147415 
C 618.476847 277.362933 617.412712 276.922154 616.303288 276.922154 
C 615.193864 276.922154 614.12973 277.362933 613.345248 278.147415 
C 612.560767 278.931896 612.119988 279.99603 612.119988 281.105455 
C 612.119988 282.214879 612.560767 283.279013 613.345248 284.063494 
C 614.12973 284.847976 615.193864 285.288755 616.303288 285.288755 
z
" clip-path="url(#p0f8084a622)" style="fill: #1f77b4; fill-opacity: 0.3; stroke: #1f77b4; stroke-opacity: 0.3"/>
    <path d="M 633.572147 280.897886 
C 634.165159 280.897886 634.733963 280.66228 635.153286 280.242957 
C 635.572609 279.823634 635.808215 279.25483 635.808215 278.661818 
C 635.808215 278.068806 635.572609 277.500002 635.153286 277.080679 
C 634.733963 276.661356 634.165159 276.42575 633.572147 276.42575 
C 632.979135 276.42575 632.410331 276.661356 631.991008 277.080679 
C 631.571685 277.500002 631.336079 278.068806 631.336079 278.661818 
C 631.336079 279.25483 631.571685 279.823634 631.991008 280.242957 
C 632.410331 280.66228 632.979135 280.897886 633.572147 280.897886 
z
" clip-path="url(#p0f8084a622)" style="fill: #1f77b4; fill-opacity: 0.3; stroke: #1f77b4; stroke-opacity: 0.3"/>
    <path d="M 668.109865 271.443636 
C 669.43588 271.443636 670.707764 270.916805 671.645399 269.97917 
C 672.583033 269.041536 673.109865 267.769652 673.109865 266.443636 
C 673.109865 265.117621 672.583033 263.845737 671.645399 262.908102 
C 670.707764 261.970468 669.43588 261.443636 668.109865 261.443636 
C 666.783849 261.443636 665.511965 261.970468 664.574331 262.908102 
C 663.636696 263.845737 663.109865 265.117621 663.109865 266.443636 
C 663.109865 267.769652 663.636696 269.041536 664.574331 269.97917 
C 665.511965 270.916805 666.783849 271.443636 668.109865 271.443636 
z
" clip-path="url(#p0f8084a622)" style="fill: #1f77b4; fill-opacity: 0.3; stroke: #1f77b4; stroke-opacity: 0.3"/>
    <path d="M 685.378723 266.802957 
C 685.798046 266.802957 686.200251 266.636358 686.496757 266.339852 
C 686.793263 266.043346 686.959862 265.641141 686.959862 265.221818 
C 686.959862 264.802495 686.793263 264.40029 686.496757 264.103784 
C 686.200251 263.807278 685.798046 263.640679 685.378723 263.640679 
C 684.9594 263.640679 684.557195 263.807278 684.260689 264.103784 
C 683.964183 264.40029 683.797585 264.802495 683.797585 265.221818 
C 683.797585 265.641141 683.964183 266.043346 684.260689 266.339852 
C 684.557195 266.636358 684.9594 266.802957 685.378723 266.802957 
z
" clip-path="url(#p0f8084a622)" style="fill: #1f77b4; fill-opacity: 0.3; stroke: #1f77b4; stroke-opacity: 0.3"/>
    <path d="M 702.647582 261.763892 
C 703.674709 261.763892 704.659906 261.35581 705.386195 260.629522 
C 706.112484 259.903233 706.520566 258.918036 706.520566 257.890909 
C 706.520566 256.863782 706.112484 255.878585 705.386195 255.152296 
C 704.659906 254.426008 703.674709 254.017926 702.647582 254.017926 
C 701.620455 254.017926 700.635258 254.426008 699.908969 255.152296 
C 699.182681 255.878585 698.774599 256.863782 698.774599 257.890909 
C 698.774599 258.918036 699.182681 259.903233 699.908969 260.629522 
C 700.635258 261.35581 701.620455 261.763892 702.647582 261.763892 
z
" clip-path="url(#p0f8084a622)" style="fill: #1f77b4; fill-opacity: 0.3; stroke: #1f77b4; stroke-opacity: 0.3"/>
    <path d="M 719.916441 245.687361 
C 721.540472 245.687361 723.098205 245.042126 724.246568 243.893763 
C 725.394931 242.7454 726.040165 241.187667 726.040165 239.563636 
C 726.040165 237.939606 725.394931 236.381872 724.246568 235.233509 
C 723.098205 234.085146 721.540472 233.439912 719.916441 233.439912 
C 718.29241 233.439912 716.734677 234.085146 715.586314 235.233509 
C 714.437951 236.381872 713.792717 237.939606 713.792717 239.563636 
C 713.792717 241.187667 714.437951 242.7454 715.586314 243.893763 
C 716.734677 245.042126 718.29241 245.687361 719.916441 245.687361 
z
" clip-path="url(#p0f8084a622)" style="fill: #1f77b4; fill-opacity: 0.3; stroke: #1f77b4; stroke-opacity: 0.3"/>
    <path d="M 737.1853 227.360088 
C 738.80933 227.360088 740.367064 226.714854 741.515427 225.566491 
C 742.66379 224.418128 743.309024 222.860394 743.309024 221.236364 
C 743.309024 219.612333 742.66379 218.0546 741.515427 216.906237 
C 740.367064 215.757874 738.80933 215.112639 737.1853 215.112639 
C 735.561269 215.112639 734.003536 215.757874 732.855173 216.906237 
C 731.70681 218.0546 731.061575 219.612333 731.061575 221.236364 
C 731.061575 222.860394 731.70681 224.418128 732.855173 225.566491 
C 734.003536 226.714854 735.561269 227.360088 737.1853 227.360088 
z
" clip-path="url(#p0f8084a622)" style="fill: #1f77b4; fill-opacity: 0.3; stroke: #1f77b4; stroke-opacity: 0.3"/>
    <path d="M 754.454159 220.309522 
C 755.180447 220.309522 755.877087 220.020964 756.39065 219.507401 
C 756.904214 218.993837 757.192771 218.297198 757.192771 217.570909 
C 757.192771 216.84462 756.904214 216.147981 756.39065 215.634417 
C 755.877087 215.120854 755.180447 214.832296 754.454159 214.832296 
C 753.72787 214.832296 753.031231 215.120854 752.517667 215.634417 
C 752.004103 216.147981 751.715546 216.84462 751.715546 217.570909 
C 751.715546 218.297198 752.004103 218.993837 752.517667 219.507401 
C 753.031231 220.020964 753.72787 220.309522 754.454159 220.309522 
z
" clip-path="url(#p0f8084a622)" style="fill: #1f77b4; fill-opacity: 0.3; stroke: #1f77b4; stroke-opacity: 0.3"/>
    <path d="M 788.991876 215.845914 
C 789.830522 215.845914 790.634932 215.512717 791.227944 214.919704 
C 791.820956 214.326692 792.154154 213.522282 792.154154 212.683636 
C 792.154154 211.844991 791.820956 211.040581 791.227944 210.447568 
C 790.634932 209.854556 789.830522 209.521359 788.991876 209.521359 
C 788.15323 209.521359 787.34882 209.854556 786.755808 210.447568 
C 786.162796 211.040581 785.829599 211.844991 785.829599 212.683636 
C 785.829599 213.522282 786.162796 214.326692 786.755808 214.919704 
C 787.34882 215.512717 788.15323 215.845914 788.991876 215.845914 
z
" clip-path="url(#p0f8084a622)" style="fill: #1f77b4; fill-opacity: 0.3; stroke: #1f77b4; stroke-opacity: 0.3"/>
    <path d="M 806.260735 198.43193 
C 807.989648 198.43193 809.647981 197.745025 810.870507 196.5225 
C 812.093033 195.299974 812.779937 193.64164 812.779937 191.912727 
C 812.779937 190.183815 812.093033 188.525481 810.870507 187.302955 
C 809.647981 186.080429 807.989648 185.393525 806.260735 185.393525 
C 804.531822 185.393525 802.873489 186.080429 801.650963 187.302955 
C 800.428437 188.525481 799.741533 190.183815 799.741533 191.912727 
C 799.741533 193.64164 800.428437 195.299974 801.650963 196.5225 
C 802.873489 197.745025 804.531822 198.43193 806.260735 198.43193 
z
" clip-path="url(#p0f8084a622)" style="fill: #1f77b4; fill-opacity: 0.3; stroke: #1f77b4; stroke-opacity: 0.3"/>
    <path d="M 823.529594 192.272048 
C 823.948917 192.272048 824.351122 192.105449 824.647628 191.808943 
C 824.944134 191.512437 825.110733 191.110232 825.110733 190.690909 
C 825.110733 190.271586 824.944134 189.869381 824.647628 189.572875 
C 824.351122 189.276369 823.948917 189.10977 823.529594 189.10977 
C 823.110271 189.10977 822.708066 189.276369 822.41156 189.572875 
C 822.115054 189.869381 821.948455 190.271586 821.948455 190.690909 
C 821.948455 191.110232 822.115054 191.512437 822.41156 191.808943 
C 822.708066 192.105449 823.110271 192.272048 823.529594 192.272048 
z
" clip-path="url(#p0f8084a622)" style="fill: #1f77b4; fill-opacity: 0.3; stroke: #1f77b4; stroke-opacity: 0.3"/>
    <path d="M 840.798453 188.965914 
C 841.637098 188.965914 842.441508 188.632717 843.034521 188.039704 
C 843.627533 187.446692 843.96073 186.642282 843.96073 185.803636 
C 843.96073 184.964991 843.627533 184.160581 843.034521 183.567568 
C 842.441508 182.974556 841.637098 182.641359 840.798453 182.641359 
C 839.959807 182.641359 839.155397 182.974556 838.562385 183.567568 
C 837.969372 184.160581 837.636175 184.964991 837.636175 185.803636 
C 837.636175 186.642282 837.969372 187.446692 838.562385 188.039704 
C 839.155397 188.632717 839.959807 188.965914 840.798453 188.965914 
z
" clip-path="url(#p0f8084a622)" style="fill: #1f77b4; fill-opacity: 0.3; stroke: #1f77b4; stroke-opacity: 0.3"/>
    <path d="M 858.067311 184.876795 
C 858.7936 184.876795 859.490239 184.588237 860.003803 184.074673 
C 860.517367 183.56111 860.805924 182.86447 860.805924 182.138182 
C 860.805924 181.411893 860.517367 180.715254 860.003803 180.20169 
C 859.490239 179.688127 858.7936 179.399569 858.067311 179.399569 
C 857.341023 179.399569 856.644383 179.688127 856.13082 180.20169 
C 855.617256 180.715254 855.328699 181.411893 855.328699 182.138182 
C 855.328699 182.86447 855.617256 183.56111 856.13082 184.074673 
C 856.644383 184.588237 857.341023 184.876795 858.067311 184.876795 
z
" clip-path="url(#p0f8084a622)" style="fill: #1f77b4; fill-opacity: 0.3; stroke: #1f77b4; stroke-opacity: 0.3"/>
    <path d="M 875.33617 181.21134 
C 876.062459 181.21134 876.759098 180.922783 877.272662 180.409219 
C 877.786225 179.895655 878.074783 179.199016 878.074783 178.472727 
C 878.074783 177.746439 877.786225 177.049799 877.272662 176.536236 
C 876.759098 176.022672 876.062459 175.734114 875.33617 175.734114 
C 874.609882 175.734114 873.913242 176.022672 873.399679 176.536236 
C 872.886115 177.049799 872.597557 177.746439 872.597557 178.472727 
C 872.597557 179.199016 872.886115 179.895655 873.399679 180.409219 
C 873.913242 180.922783 874.609882 181.21134 875.33617 181.21134 
z
" clip-path="url(#p0f8084a622)" style="fill: #1f77b4; fill-opacity: 0.3; stroke: #1f77b4; stroke-opacity: 0.3"/>
    <path d="M 892.605029 163.188204 
C 894.384065 163.188204 896.090477 162.481385 897.348446 161.223416 
C 898.606414 159.965448 899.313233 158.259036 899.313233 156.48 
C 899.313233 154.700964 898.606414 152.994552 897.348446 151.736584 
C 896.090477 150.478615 894.384065 149.771796 892.605029 149.771796 
C 890.825993 149.771796 889.119581 150.478615 887.861613 151.736584 
C 886.603644 152.994552 885.896825 154.700964 885.896825 156.48 
C 885.896825 158.259036 886.603644 159.965448 887.861613 161.223416 
C 889.119581 162.481385 890.825993 163.188204 892.605029 163.188204 
z
" clip-path="url(#p0f8084a622)" style="fill: #1f77b4; fill-opacity: 0.3; stroke: #1f77b4; stroke-opacity: 0.3"/>
    <path d="M 909.873888 155.553158 
C 910.600176 155.553158 911.296816 155.264601 911.810379 154.751037 
C 912.323943 154.237474 912.612501 153.540834 912.612501 152.814545 
C 912.612501 152.088257 912.323943 151.391617 911.810379 150.878054 
C 911.296816 150.36449 910.600176 150.075933 909.873888 150.075933 
C 909.147599 150.075933 908.45096 150.36449 907.937396 150.878054 
C 907.423833 151.391617 907.135275 152.088257 907.135275 152.814545 
C 907.135275 153.540834 907.423833 154.237474 907.937396 154.751037 
C 908.45096 155.264601 909.147599 155.553158 909.873888 155.553158 
z
" clip-path="url(#p0f8084a622)" style="fill: #1f77b4; fill-opacity: 0.3; stroke: #1f77b4; stroke-opacity: 0.3"/>
    <path d="M 927.142747 148.445118 
C 928.252171 148.445118 929.316305 148.004339 930.100787 147.219858 
C 930.885268 146.435377 931.326047 145.371242 931.326047 144.261818 
C 931.326047 143.152394 930.885268 142.08826 930.100787 141.303778 
C 929.316305 140.519297 928.252171 140.078518 927.142747 140.078518 
C 926.033322 140.078518 924.969188 140.519297 924.184707 141.303778 
C 923.400225 142.08826 922.959446 143.152394 922.959446 144.261818 
C 922.959446 145.371242 923.400225 146.435377 924.184707 147.219858 
C 924.969188 148.004339 926.033322 148.445118 927.142747 148.445118 
z
" clip-path="url(#p0f8084a622)" style="fill: #1f77b4; fill-opacity: 0.3; stroke: #1f77b4; stroke-opacity: 0.3"/>
    <path d="M 944.411605 142.536823 
C 945.250251 142.536823 946.054661 142.203626 946.647673 141.610613 
C 947.240686 141.017601 947.573883 140.213191 947.573883 139.374545 
C 947.573883 138.5359 947.240686 137.73149 946.647673 137.138477 
C 946.054661 136.545465 945.250251 136.212268 944.411605 136.212268 
C 943.57296 136.212268 942.76855 136.545465 942.175537 137.138477 
C 941.582525 137.73149 941.249328 138.5359 941.249328 139.374545 
C 941.249328 140.213191 941.582525 141.017601 942.175537 141.610613 
C 942.76855 142.203626 943.57296 142.536823 944.411605 142.536823 
z
" clip-path="url(#p0f8084a622)" style="fill: #1f77b4; fill-opacity: 0.3; stroke: #1f77b4; stroke-opacity: 0.3"/>
    <path d="M 961.680464 125.122839 
C 963.409377 125.122839 965.067711 124.435934 966.290236 123.213409 
C 967.512762 121.990883 968.199667 120.332549 968.199667 118.603636 
C 968.199667 116.874724 967.512762 115.21639 966.290236 113.993864 
C 965.067711 112.771338 963.409377 112.084434 961.680464 112.084434 
C 959.951552 112.084434 958.293218 112.771338 957.070692 113.993864 
C 955.848166 115.21639 955.161262 116.874724 955.161262 118.603636 
C 955.161262 120.332549 955.848166 121.990883 957.070692 123.213409 
C 958.293218 124.435934 959.951552 125.122839 961.680464 125.122839 
z
" clip-path="url(#p0f8084a622)" style="fill: #1f77b4; fill-opacity: 0.3; stroke: #1f77b4; stroke-opacity: 0.3"/>
    <path d="M 978.949323 101.238341 
C 980.824592 101.238341 982.623308 100.493288 983.949323 99.167273 
C 985.275339 97.841257 986.020391 96.042542 986.020391 94.167273 
C 986.020391 92.292004 985.275339 90.493288 983.949323 89.167273 
C 982.623308 87.841257 980.824592 87.096205 978.949323 87.096205 
C 977.074054 87.096205 975.275339 87.841257 973.949323 89.167273 
C 972.623308 90.493288 971.878255 92.292004 971.878255 94.167273 
C 971.878255 96.042542 972.623308 97.841257 973.949323 99.167273 
C 975.275339 100.493288 977.074054 101.238341 978.949323 101.238341 
z
" clip-path="url(#p0f8084a622)" style="fill: #1f77b4; fill-opacity: 0.3; stroke: #1f77b4; stroke-opacity: 0.3"/>
    <path d="M 996.218182 92.442278 
C 997.056828 92.442278 997.861238 92.10908 998.45425 91.516068 
C 999.047262 90.923056 999.380459 90.118646 999.380459 89.28 
C 999.380459 88.441354 999.047262 87.636944 998.45425 87.043932 
C 997.861238 86.45092 997.056828 86.117722 996.218182 86.117722 
C 995.379536 86.117722 994.575126 86.45092 993.982114 87.043932 
C 993.389102 87.636944 993.055904 88.441354 993.055904 89.28 
C 993.055904 90.118646 993.389102 90.923056 993.982114 91.516068 
C 994.575126 92.10908 995.379536 92.442278 996.218182 92.442278 
z
" clip-path="url(#p0f8084a622)" style="fill: #1f77b4; fill-opacity: 0.3; stroke: #1f77b4; stroke-opacity: 0.3"/>
   </g>
   <g id="matplotlib.axis_1">
    <g id="xtick_1">
     <g id="line2d_1">
      <defs>
       <path id="m15000e2819" d="M 0 0 
L 0 3.5 
" style="stroke: #000000; stroke-width: 0.8"/>
      </defs>
      <g>
       <use xlink:href="#m15000e2819" x="184.581818" y="512.64" style="stroke: #000000; stroke-width: 0.8"/>
      </g>
     </g>
     <g id="text_1">
      <!-- 2024-01-01 -->
      <g transform="translate(155.524006 527.238438)scale(0.1 -0.1)">
       <defs>
        <path id="DejaVuSans-32" d="M 1228 531 
L 3431 531 
L 3431 0 
L 469 0 
L 469 531 
Q 828 903 1448 1529 
Q 2069 2156 2228 2338 
Q 2531 2678 2651 2914 
Q 2772 3150 2772 3378 
Q 2772 3750 2511 3984 
Q 2250 4219 1831 4219 
Q 1534 4219 1204 4116 
Q 875 4013 500 3803 
L 500 4441 
Q 881 4594 1212 4672 
Q 1544 4750 1819 4750 
Q 2544 4750 2975 4387 
Q 3406 4025 3406 3419 
Q 3406 3131 3298 2873 
Q 3191 2616 2906 2266 
Q 2828 2175 2409 1742 
Q 1991 1309 1228 531 
z
" transform="scale(0.015625)"/>
        <path id="DejaVuSans-30" d="M 2034 4250 
Q 1547 4250 1301 3770 
Q 1056 3291 1056 2328 
Q 1056 1369 1301 889 
Q 1547 409 2034 409 
Q 2525 409 2770 889 
Q 3016 1369 3016 2328 
Q 3016 3291 2770 3770 
Q 2525 4250 2034 4250 
z
M 2034 4750 
Q 2819 4750 3233 4129 
Q 3647 3509 3647 2328 
Q 3647 1150 3233 529 
Q 2819 -91 2034 -91 
Q 1250 -91 836 529 
Q 422 1150 422 2328 
Q 422 3509 836 4129 
Q 1250 4750 2034 4750 
z
" transform="scale(0.015625)"/>
        <path id="DejaVuSans-34" d="M 2419 4116 
L 825 1625 
L 2419 1625 
L 2419 4116 
z
M 2253 4666 
L 3047 4666 
L 3047 1625 
L 3713 1625 
L 3713 1100 
L 3047 1100 
L 3047 0 
L 2419 0 
L 2419 1100 
L 313 1100 
L 313 1709 
L 2253 4666 
z
" transform="scale(0.015625)"/>
        <path id="DejaVuSans-2d" d="M 313 2009 
L 1997 2009 
L 1997 1497 
L 313 1497 
L 313 2009 
z
" transform="scale(0.015625)"/>
        <path id="DejaVuSans-31" d="M 794 531 
L 1825 531 
L 1825 4091 
L 703 3866 
L 703 4441 
L 1819 4666 
L 2450 4666 
L 2450 531 
L 3481 531 
L 3481 0 
L 794 0 
L 794 531 
z
" transform="scale(0.015625)"/>
       </defs>
       <use xlink:href="#DejaVuSans-32"/>
       <use xlink:href="#DejaVuSans-30" x="63.623047"/>
       <use xlink:href="#DejaVuSans-32" x="127.246094"/>
       <use xlink:href="#DejaVuSans-34" x="190.869141"/>
       <use xlink:href="#DejaVuSans-2d" x="254.492188"/>
       <use xlink:href="#DejaVuSans-30" x="290.576172"/>
       <use xlink:href="#DejaVuSans-31" x="354.199219"/>
       <use xlink:href="#DejaVuSans-2d" x="417.822266"/>
       <use xlink:href="#DejaVuSans-30" x="453.90625"/>
       <use xlink:href="#DejaVuSans-31" x="517.529297"/>
      </g>
     </g>
    </g>
    <g id="xtick_2">
     <g id="line2d_2">
      <g>
       <use xlink:href="#m15000e2819" x="305.46383" y="512.64" style="stroke: #000000; stroke-width: 0.8"/>
      </g>
     </g>
     <g id="text_2">
      <!-- 2024-01-08 -->
      <g transform="translate(276.406017 527.238438)scale(0.1 -0.1)">
       <defs>
        <path id="DejaVuSans-38" d="M 2034 2216 
Q 1584 2216 1326 1975 
Q 1069 1734 1069 1313 
Q 1069 891 1326 650 
Q 1584 409 2034 409 
Q 2484 409 2743 651 
Q 3003 894 3003 1313 
Q 3003 1734 2745 1975 
Q 2488 2216 2034 2216 
z
M 1403 2484 
Q 997 2584 770 2862 
Q 544 3141 544 3541 
Q 544 4100 942 4425 
Q 1341 4750 2034 4750 
Q 2731 4750 3128 4425 
Q 3525 4100 3525 3541 
Q 3525 3141 3298 2862 
Q 3072 2584 2669 2484 
Q 3125 2378 3379 2068 
Q 3634 1759 3634 1313 
Q 3634 634 3220 271 
Q 2806 -91 2034 -91 
Q 1263 -91 848 271 
Q 434 634 434 1313 
Q 434 1759 690 2068 
Q 947 2378 1403 2484 
z
M 1172 3481 
Q 1172 3119 1398 2916 
Q 1625 2713 2034 2713 
Q 2441 2713 2670 2916 
Q 2900 3119 2900 3481 
Q 2900 3844 2670 4047 
Q 2441 4250 2034 4250 
Q 1625 4250 1398 4047 
Q 1172 3844 1172 3481 
z
" transform="scale(0.015625)"/>
       </defs>
       <use xlink:href="#DejaVuSans-32"/>
       <use xlink:href="#DejaVuSans-30" x="63.623047"/>
       <use xlink:href="#DejaVuSans-32" x="127.246094"/>
       <use xlink:href="#DejaVuSans-34" x="190.869141"/>
       <use xlink:href="#DejaVuSans-2d" x="254.492188"/>
       <use xlink:href="#DejaVuSans-30" x="290.576172"/>
       <use xlink:href="#DejaVuSans-31" x="354.199219"/>
       <use xlink:href="#DejaVuSans-2d" x="417.822266"/>
       <use xlink:href="#DejaVuSans-30" x="453.90625"/>
       <use xlink:href="#DejaVuSans-38" x="517.529297"/>
      </g>
     </g>
    </g>
    <g id="xtick_3">
     <g id="line2d_3">
      <g>
       <use xlink:href="#m15000e2819" x="426.345841" y="512.64" style="stroke: #000000; stroke-width: 0.8"/>
      </g>
     </g>
     <g id="text_3">
      <!-- 2024-01-15 -->
      <g transform="translate(397.288029 527.238438)scale(0.1 -0.1)">
       <defs>
        <path id="DejaVuSans-35" d="M 691 4666 
L 3169 4666 
L 3169 4134 
L 1269 4134 
L 1269 2991 
Q 1406 3038 1543 3061 
Q 1681 3084 1819 3084 
Q 2600 3084 3056 2656 
Q 3513 2228 3513 1497 
Q 3513 744 3044 326 
Q 2575 -91 1722 -91 
Q 1428 -91 1123 -41 
Q 819 9 494 109 
L 494 744 
Q 775 591 1075 516 
Q 1375 441 1709 441 
Q 2250 441 2565 725 
Q 2881 1009 2881 1497 
Q 2881 1984 2565 2268 
Q 2250 2553 1709 2553 
Q 1456 2553 1204 2497 
Q 953 2441 691 2322 
L 691 4666 
z
" transform="scale(0.015625)"/>
       </defs>
       <use xlink:href="#DejaVuSans-32"/>
       <use xlink:href="#DejaVuSans-30" x="63.623047"/>
       <use xlink:href="#DejaVuSans-32" x="127.246094"/>
       <use xlink:href="#DejaVuSans-34" x="190.869141"/>
       <use xlink:href="#DejaVuSans-2d" x="254.492188"/>
       <use xlink:href="#DejaVuSans-30" x="290.576172"/>
       <use xlink:href="#DejaVuSans-31" x="354.199219"/>
       <use xlink:href="#DejaVuSans-2d" x="417.822266"/>
       <use xlink:href="#DejaVuSans-31" x="453.90625"/>
       <use xlink:href="#DejaVuSans-35" x="517.529297"/>
      </g>
     </g>
    </g>
    <g id="xtick_4">
     <g id="line2d_4">
      <g>
       <use xlink:href="#m15000e2819" x="547.227853" y="512.64" style="stroke: #000000; stroke-width: 0.8"/>
      </g>
     </g>
     <g id="text_4">
      <!-- 2024-01-22 -->
      <g transform="translate(518.17004 527.238438)scale(0.1 -0.1)">
       <use xlink:href="#DejaVuSans-32"/>
       <use xlink:href="#DejaVuSans-30" x="63.623047"/>
       <use xlink:href="#DejaVuSans-32" x="127.246094"/>
       <use xlink:href="#DejaVuSans-34" x="190.869141"/>
       <use xlink:href="#DejaVuSans-2d" x="254.492188"/>
       <use xlink:href="#DejaVuSans-30" x="290.576172"/>
       <use xlink:href="#DejaVuSans-31" x="354.199219"/>
       <use xlink:href="#DejaVuSans-2d" x="417.822266"/>
       <use xlink:href="#DejaVuSans-32" x="453.90625"/>
       <use xlink:href="#DejaVuSans-32" x="517.529297"/>
      </g>
     </g>
    </g>
    <g id="xtick_5">
     <g id="line2d_5">
      <g>
       <use xlink:href="#m15000e2819" x="719.916441" y="512.64" style="stroke: #000000; stroke-width: 0.8"/>
      </g>
     </g>
     <g id="text_5">
      <!-- 2024-02-01 -->
      <g transform="translate(690.858629 527.238438)scale(0.1 -0.1)">
       <use xlink:href="#DejaVuSans-32"/>
       <use xlink:href="#DejaVuSans-30" x="63.623047"/>
       <use xlink:href="#DejaVuSans-32" x="127.246094"/>
       <use xlink:href="#DejaVuSans-34" x="190.869141"/>
       <use xlink:href="#DejaVuSans-2d" x="254.492188"/>
       <use xlink:href="#DejaVuSans-30" x="290.576172"/>
       <use xlink:href="#DejaVuSans-32" x="354.199219"/>
       <use xlink:href="#DejaVuSans-2d" x="417.822266"/>
       <use xlink:href="#DejaVuSans-30" x="453.90625"/>
       <use xlink:href="#DejaVuSans-31" x="517.529297"/>
      </g>
     </g>
    </g>
    <g id="xtick_6">
     <g id="line2d_6">
      <g>
       <use xlink:href="#m15000e2819" x="840.798453" y="512.64" style="stroke: #000000; stroke-width: 0.8"/>
      </g>
     </g>
     <g id="text_6">
      <!-- 2024-02-08 -->
      <g transform="translate(811.74064 527.238438)scale(0.1 -0.1)">
       <use xlink:href="#DejaVuSans-32"/>
       <use xlink:href="#DejaVuSans-30" x="63.623047"/>
       <use xlink:href="#DejaVuSans-32" x="127.246094"/>
       <use xlink:href="#DejaVuSans-34" x="190.869141"/>
       <use xlink:href="#DejaVuSans-2d" x="254.492188"/>
       <use xlink:href="#DejaVuSans-30" x="290.576172"/>
       <use xlink:href="#DejaVuSans-32" x="354.199219"/>
       <use xlink:href="#DejaVuSans-2d" x="417.822266"/>
       <use xlink:href="#DejaVuSans-30" x="453.90625"/>
       <use xlink:href="#DejaVuSans-38" x="517.529297"/>
      </g>
     </g>
    </g>
    <g id="xtick_7">
     <g id="line2d_7">
      <g>
       <use xlink:href="#m15000e2819" x="961.680464" y="512.64" style="stroke: #000000; stroke-width: 0.8"/>
      </g>
     </g>
     <g id="text_7">
      <!-- 2024-02-15 -->
      <g transform="translate(932.622652 527.238438)scale(0.1 -0.1)">
       <use xlink:href="#DejaVuSans-32"/>
       <use xlink:href="#DejaVuSans-30" x="63.623047"/>
       <use xlink:href="#DejaVuSans-32" x="127.246094"/>
       <use xlink:href="#DejaVuSans-34" x="190.869141"/>
       <use xlink:href="#DejaVuSans-2d" x="254.492188"/>
       <use xlink:href="#DejaVuSans-30" x="290.576172"/>
       <use xlink:href="#DejaVuSans-32" x="354.199219"/>
       <use xlink:href="#DejaVuSans-2d" x="417.822266"/>
       <use xlink:href="#DejaVuSans-31" x="453.90625"/>
       <use xlink:href="#DejaVuSans-35" x="517.529297"/>
      </g>
     </g>
    </g>
   </g>
   <g id="matplotlib.axis_2">
    <g id="ytick_1">
     <g id="line2d_8">
      <defs>
       <path id="m5bb1664421" d="M 0 0 
L -3.5 0 
" style="stroke: #000000; stroke-width: 0.8"/>
      </defs>
      <g>
       <use xlink:href="#m5bb1664421" x="144" y="459.490909" style="stroke: #000000; stroke-width: 0.8"/>
      </g>
     </g>
     <g id="text_8">
      <!-- 6350 -->
      <g transform="translate(111.55 463.290128)scale(0.1 -0.1)">
       <defs>
        <path id="DejaVuSans-36" d="M 2113 2584 
Q 1688 2584 1439 2293 
Q 1191 2003 1191 1497 
Q 1191 994 1439 701 
Q 1688 409 2113 409 
Q 2538 409 2786 701 
Q 3034 994 3034 1497 
Q 3034 2003 2786 2293 
Q 2538 2584 2113 2584 
z
M 3366 4563 
L 3366 3988 
Q 3128 4100 2886 4159 
Q 2644 4219 2406 4219 
Q 1781 4219 1451 3797 
Q 1122 3375 1075 2522 
Q 1259 2794 1537 2939 
Q 1816 3084 2150 3084 
Q 2853 3084 3261 2657 
Q 3669 2231 3669 1497 
Q 3669 778 3244 343 
Q 2819 -91 2113 -91 
Q 1303 -91 875 529 
Q 447 1150 447 2328 
Q 447 3434 972 4092 
Q 1497 4750 2381 4750 
Q 2619 4750 2861 4703 
Q 3103 4656 3366 4563 
z
" transform="scale(0.015625)"/>
        <path id="DejaVuSans-33" d="M 2597 2516 
Q 3050 2419 3304 2112 
Q 3559 1806 3559 1356 
Q 3559 666 3084 287 
Q 2609 -91 1734 -91 
Q 1441 -91 1130 -33 
Q 819 25 488 141 
L 488 750 
Q 750 597 1062 519 
Q 1375 441 1716 441 
Q 2309 441 2620 675 
Q 2931 909 2931 1356 
Q 2931 1769 2642 2001 
Q 2353 2234 1838 2234 
L 1294 2234 
L 1294 2753 
L 1863 2753 
Q 2328 2753 2575 2939 
Q 2822 3125 2822 3475 
Q 2822 3834 2567 4026 
Q 2313 4219 1838 4219 
Q 1578 4219 1281 4162 
Q 984 4106 628 3988 
L 628 4550 
Q 988 4650 1302 4700 
Q 1616 4750 1894 4750 
Q 2613 4750 3031 4423 
Q 3450 4097 3450 3541 
Q 3450 3153 3228 2886 
Q 3006 2619 2597 2516 
z
" transform="scale(0.015625)"/>
       </defs>
       <use xlink:href="#DejaVuSans-36"/>
       <use xlink:href="#DejaVuSans-33" x="63.623047"/>
       <use xlink:href="#DejaVuSans-35" x="127.246094"/>
       <use xlink:href="#DejaVuSans-30" x="190.869141"/>
      </g>
     </g>
    </g>
    <g id="ytick_2">
     <g id="line2d_9">
      <g>
       <use xlink:href="#m5bb1664421" x="144" y="398.4" style="stroke: #000000; stroke-width: 0.8"/>
      </g>
     </g>
     <g id="text_9">
      <!-- 6400 -->
      <g transform="translate(111.55 402.199219)scale(0.1 -0.1)">
       <use xlink:href="#DejaVuSans-36"/>
       <use xlink:href="#DejaVuSans-34" x="63.623047"/>
       <use xlink:href="#DejaVuSans-30" x="127.246094"/>
       <use xlink:href="#DejaVuSans-30" x="190.869141"/>
      </g>
     </g>
    </g>
    <g id="ytick_3">
     <g id="line2d_10">
      <g>
       <use xlink:href="#m5bb1664421" x="144" y="337.309091" style="stroke: #000000; stroke-width: 0.8"/>
      </g>
     </g>
     <g id="text_10">
      <!-- 6450 -->
      <g transform="translate(111.55 341.10831)scale(0.1 -0.1)">
       <use xlink:href="#DejaVuSans-36"/>
       <use xlink:href="#DejaVuSans-34" x="63.623047"/>
       <use xlink:href="#DejaVuSans-35" x="127.246094"/>
       <use xlink:href="#DejaVuSans-30" x="190.869141"/>
      </g>
     </g>
    </g>
    <g id="ytick_4">
     <g id="line2d_11">
      <g>
       <use xlink:href="#m5bb1664421" x="144" y="276.218182" style="stroke: #000000; stroke-width: 0.8"/>
      </g>
     </g>
     <g id="text_11">
      <!-- 6500 -->
      <g transform="translate(111.55 280.017401)scale(0.1 -0.1)">
       <use xlink:href="#DejaVuSans-36"/>
       <use xlink:href="#DejaVuSans-35" x="63.623047"/>
       <use xlink:href="#DejaVuSans-30" x="127.246094"/>
       <use xlink:href="#DejaVuSans-30" x="190.869141"/>
      </g>
     </g>
    </g>
    <g id="ytick_5">
     <g id="line2d_12">
      <g>
       <use xlink:href="#m5bb1664421" x="144" y="215.127273" style="stroke: #000000; stroke-width: 0.8"/>
      </g>
     </g>
     <g id="text_12">
      <!-- 6550 -->
      <g transform="translate(111.55 218.926491)scale(0.1 -0.1)">
       <use xlink:href="#DejaVuSans-36"/>
       <use xlink:href="#DejaVuSans-35" x="63.623047"/>
       <use xlink:href="#DejaVuSans-35" x="127.246094"/>
       <use xlink:href="#DejaVuSans-30" x="190.869141"/>
      </g>
     </g>
    </g>
    <g id="ytick_6">
     <g id="line2d_13">
      <g>
       <use xlink:href="#m5bb1664421" x="144" y="154.036364" style="stroke: #000000; stroke-width: 0.8"/>
      </g>
     </g>
     <g id="text_13">
      <!-- 6600 -->
      <g transform="translate(111.55 157.835582)scale(0.1 -0.1)">
       <use xlink:href="#DejaVuSans-36"/>
       <use xlink:href="#DejaVuSans-36" x="63.623047"/>
       <use xlink:href="#DejaVuSans-30" x="127.246094"/>
       <use xlink:href="#DejaVuSans-30" x="190.869141"/>
      </g>
     </g>
    </g>
    <g id="ytick_7">
     <g id="line2d_14">
      <g>
       <use xlink:href="#m5bb1664421" x="144" y="92.945455" style="stroke: #000000; stroke-width: 0.8"/>
      </g>
     </g>
     <g id="text_14">
      <!-- 6650 -->
      <g transform="translate(111.55 96.744673)scale(0.1 -0.1)">
       <use xlink:href="#DejaVuSans-36"/>
       <use xlink:href="#DejaVuSans-36" x="63.623047"/>
       <use xlink:href="#DejaVuSans-35" x="127.246094"/>
       <use xlink:href="#DejaVuSans-30" x="190.869141"/>
      </g>
     </g>
    </g>
   </g>
   <g id="line2d_15">
    <path d="M 184.581818 492.48 
L 201.850677 466.821818 
L 219.119536 435.054545 
L 236.388395 433.832727 
L 253.657253 421.614545 
L 288.194971 415.505455 
L 305.46383 410.618182 
L 322.732689 406.952727 
L 340.001547 402.065455 
L 357.270406 394.734545 
L 374.539265 375.185455 
L 391.808124 371.52 
L 409.076983 367.854545 
L 426.345841 349.527273 
L 443.6147 344.64 
L 460.883559 329.978182 
L 478.152418 323.869091 
L 495.421277 316.538182 
L 512.690135 312.872727 
L 529.958994 309.207273 
L 547.227853 303.098182 
L 564.496712 296.989091 
L 581.765571 292.101818 
L 599.034429 289.658182 
L 616.303288 281.105455 
L 633.572147 278.661818 
L 668.109865 266.443636 
L 685.378723 265.221818 
L 702.647582 257.890909 
L 719.916441 239.563636 
L 737.1853 221.236364 
L 754.454159 217.570909 
L 788.991876 212.683636 
L 806.260735 191.912727 
L 823.529594 190.690909 
L 840.798453 185.803636 
L 858.067311 182.138182 
L 875.33617 178.472727 
L 892.605029 156.48 
L 909.873888 152.814545 
L 927.142747 144.261818 
L 944.411605 139.374545 
L 961.680464 118.603636 
L 978.949323 94.167273 
L 996.218182 89.28 
" clip-path="url(#p0f8084a622)" style="fill: none; stroke: #1f77b4; stroke-width: 1.5; stroke-linecap: square"/>
   </g>
   <g id="patch_3">
    <path d="M 144 512.64 
L 144 69.12 
" style="fill: none; stroke: #000000; stroke-width: 0.8; stroke-linejoin: miter; stroke-linecap: square"/>
   </g>
   <g id="patch_4">
    <path d="M 1036.8 512.64 
L 1036.8 69.12 
" style="fill: none; stroke: #000000; stroke-width: 0.8; stroke-linejoin: miter; stroke-linecap: square"/>
   </g>
   <g id="patch_5">
    <path d="M 144 512.64 
L 1036.8 512.64 
" style="fill: none; stroke: #000000; stroke-width: 0.8; stroke-linejoin: miter; stroke-linecap: square"/>
   </g>
   <g id="patch_6">
    <path d="M 144 69.12 
L 1036.8 69.12 
" style="fill: none; stroke: #000000; stroke-width: 0.8; stroke-linejoin: miter; stroke-linecap: square"/>
   </g>
   <g id="text_15">
    <!-- Number of AEDs in the OpenStreetMap database in Poland from 2024-01-01, day by day. As at: 2024-02-17 -->
    <g transform="translate(144 63.12)scale(0.14 -0.14)">
     <defs>
      <path id="DejaVuSans-4e" d="M 628 4666 
L 1478 4666 
L 3547 763 
L 3547 4666 
L 4159 4666 
L 4159 0 
L 3309 0 
L 1241 3903 
L 1241 0 
L 628 0 
L 628 4666 
z
" transform="scale(0.015625)"/>
      <path id="DejaVuSans-75" d="M 544 1381 
L 544 3500 
L 1119 3500 
L 1119 1403 
Q 1119 906 1312 657 
Q 1506 409 1894 409 
Q 2359 409 2629 706 
Q 2900 1003 2900 1516 
L 2900 3500 
L 3475 3500 
L 3475 0 
L 2900 0 
L 2900 538 
Q 2691 219 2414 64 
Q 2138 -91 1772 -91 
Q 1169 -91 856 284 
Q 544 659 544 1381 
z
M 1991 3584 
L 1991 3584 
z
" transform="scale(0.015625)"/>
      <path id="DejaVuSans-6d" d="M 3328 2828 
Q 3544 3216 3844 3400 
Q 4144 3584 4550 3584 
Q 5097 3584 5394 3201 
Q 5691 2819 5691 2113 
L 5691 0 
L 5113 0 
L 5113 2094 
Q 5113 2597 4934 2840 
Q 4756 3084 4391 3084 
Q 3944 3084 3684 2787 
Q 3425 2491 3425 1978 
L 3425 0 
L 2847 0 
L 2847 2094 
Q 2847 2600 2669 2842 
Q 2491 3084 2119 3084 
Q 1678 3084 1418 2786 
Q 1159 2488 1159 1978 
L 1159 0 
L 581 0 
L 581 3500 
L 1159 3500 
L 1159 2956 
Q 1356 3278 1631 3431 
Q 1906 3584 2284 3584 
Q 2666 3584 2933 3390 
Q 3200 3197 3328 2828 
z
" transform="scale(0.015625)"/>
      <path id="DejaVuSans-62" d="M 3116 1747 
Q 3116 2381 2855 2742 
Q 2594 3103 2138 3103 
Q 1681 3103 1420 2742 
Q 1159 2381 1159 1747 
Q 1159 1113 1420 752 
Q 1681 391 2138 391 
Q 2594 391 2855 752 
Q 3116 1113 3116 1747 
z
M 1159 2969 
Q 1341 3281 1617 3432 
Q 1894 3584 2278 3584 
Q 2916 3584 3314 3078 
Q 3713 2572 3713 1747 
Q 3713 922 3314 415 
Q 2916 -91 2278 -91 
Q 1894 -91 1617 61 
Q 1341 213 1159 525 
L 1159 0 
L 581 0 
L 581 4863 
L 1159 4863 
L 1159 2969 
z
" transform="scale(0.015625)"/>
      <path id="DejaVuSans-65" d="M 3597 1894 
L 3597 1613 
L 953 1613 
Q 991 1019 1311 708 
Q 1631 397 2203 397 
Q 2534 397 2845 478 
Q 3156 559 3463 722 
L 3463 178 
Q 3153 47 2828 -22 
Q 2503 -91 2169 -91 
Q 1331 -91 842 396 
Q 353 884 353 1716 
Q 353 2575 817 3079 
Q 1281 3584 2069 3584 
Q 2775 3584 3186 3129 
Q 3597 2675 3597 1894 
z
M 3022 2063 
Q 3016 2534 2758 2815 
Q 2500 3097 2075 3097 
Q 1594 3097 1305 2825 
Q 1016 2553 972 2059 
L 3022 2063 
z
" transform="scale(0.015625)"/>
      <path id="DejaVuSans-72" d="M 2631 2963 
Q 2534 3019 2420 3045 
Q 2306 3072 2169 3072 
Q 1681 3072 1420 2755 
Q 1159 2438 1159 1844 
L 1159 0 
L 581 0 
L 581 3500 
L 1159 3500 
L 1159 2956 
Q 1341 3275 1631 3429 
Q 1922 3584 2338 3584 
Q 2397 3584 2469 3576 
Q 2541 3569 2628 3553 
L 2631 2963 
z
" transform="scale(0.015625)"/>
      <path id="DejaVuSans-20" transform="scale(0.015625)"/>
      <path id="DejaVuSans-6f" d="M 1959 3097 
Q 1497 3097 1228 2736 
Q 959 2375 959 1747 
Q 959 1119 1226 758 
Q 1494 397 1959 397 
Q 2419 397 2687 759 
Q 2956 1122 2956 1747 
Q 2956 2369 2687 2733 
Q 2419 3097 1959 3097 
z
M 1959 3584 
Q 2709 3584 3137 3096 
Q 3566 2609 3566 1747 
Q 3566 888 3137 398 
Q 2709 -91 1959 -91 
Q 1206 -91 779 398 
Q 353 888 353 1747 
Q 353 2609 779 3096 
Q 1206 3584 1959 3584 
z
" transform="scale(0.015625)"/>
      <path id="DejaVuSans-66" d="M 2375 4863 
L 2375 4384 
L 1825 4384 
Q 1516 4384 1395 4259 
Q 1275 4134 1275 3809 
L 1275 3500 
L 2222 3500 
L 2222 3053 
L 1275 3053 
L 1275 0 
L 697 0 
L 697 3053 
L 147 3053 
L 147 3500 
L 697 3500 
L 697 3744 
Q 697 4328 969 4595 
Q 1241 4863 1831 4863 
L 2375 4863 
z
" transform="scale(0.015625)"/>
      <path id="DejaVuSans-41" d="M 2188 4044 
L 1331 1722 
L 3047 1722 
L 2188 4044 
z
M 1831 4666 
L 2547 4666 
L 4325 0 
L 3669 0 
L 3244 1197 
L 1141 1197 
L 716 0 
L 50 0 
L 1831 4666 
z
" transform="scale(0.015625)"/>
      <path id="DejaVuSans-45" d="M 628 4666 
L 3578 4666 
L 3578 4134 
L 1259 4134 
L 1259 2753 
L 3481 2753 
L 3481 2222 
L 1259 2222 
L 1259 531 
L 3634 531 
L 3634 0 
L 628 0 
L 628 4666 
z
" transform="scale(0.015625)"/>
      <path id="DejaVuSans-44" d="M 1259 4147 
L 1259 519 
L 2022 519 
Q 2988 519 3436 956 
Q 3884 1394 3884 2338 
Q 3884 3275 3436 3711 
Q 2988 4147 2022 4147 
L 1259 4147 
z
M 628 4666 
L 1925 4666 
Q 3281 4666 3915 4102 
Q 4550 3538 4550 2338 
Q 4550 1131 3912 565 
Q 3275 0 1925 0 
L 628 0 
L 628 4666 
z
" transform="scale(0.015625)"/>
      <path id="DejaVuSans-73" d="M 2834 3397 
L 2834 2853 
Q 2591 2978 2328 3040 
Q 2066 3103 1784 3103 
Q 1356 3103 1142 2972 
Q 928 2841 928 2578 
Q 928 2378 1081 2264 
Q 1234 2150 1697 2047 
L 1894 2003 
Q 2506 1872 2764 1633 
Q 3022 1394 3022 966 
Q 3022 478 2636 193 
Q 2250 -91 1575 -91 
Q 1294 -91 989 -36 
Q 684 19 347 128 
L 347 722 
Q 666 556 975 473 
Q 1284 391 1588 391 
Q 1994 391 2212 530 
Q 2431 669 2431 922 
Q 2431 1156 2273 1281 
Q 2116 1406 1581 1522 
L 1381 1569 
Q 847 1681 609 1914 
Q 372 2147 372 2553 
Q 372 3047 722 3315 
Q 1072 3584 1716 3584 
Q 2034 3584 2315 3537 
Q 2597 3491 2834 3397 
z
" transform="scale(0.015625)"/>
      <path id="DejaVuSans-69" d="M 603 3500 
L 1178 3500 
L 1178 0 
L 603 0 
L 603 3500 
z
M 603 4863 
L 1178 4863 
L 1178 4134 
L 603 4134 
L 603 4863 
z
" transform="scale(0.015625)"/>
      <path id="DejaVuSans-6e" d="M 3513 2113 
L 3513 0 
L 2938 0 
L 2938 2094 
Q 2938 2591 2744 2837 
Q 2550 3084 2163 3084 
Q 1697 3084 1428 2787 
Q 1159 2491 1159 1978 
L 1159 0 
L 581 0 
L 581 3500 
L 1159 3500 
L 1159 2956 
Q 1366 3272 1645 3428 
Q 1925 3584 2291 3584 
Q 2894 3584 3203 3211 
Q 3513 2838 3513 2113 
z
" transform="scale(0.015625)"/>
      <path id="DejaVuSans-74" d="M 1172 4494 
L 1172 3500 
L 2356 3500 
L 2356 3053 
L 1172 3053 
L 1172 1153 
Q 1172 725 1289 603 
Q 1406 481 1766 481 
L 2356 481 
L 2356 0 
L 1766 0 
Q 1100 0 847 248 
Q 594 497 594 1153 
L 594 3053 
L 172 3053 
L 172 3500 
L 594 3500 
L 594 4494 
L 1172 4494 
z
" transform="scale(0.015625)"/>
      <path id="DejaVuSans-68" d="M 3513 2113 
L 3513 0 
L 2938 0 
L 2938 2094 
Q 2938 2591 2744 2837 
Q 2550 3084 2163 3084 
Q 1697 3084 1428 2787 
Q 1159 2491 1159 1978 
L 1159 0 
L 581 0 
L 581 4863 
L 1159 4863 
L 1159 2956 
Q 1366 3272 1645 3428 
Q 1925 3584 2291 3584 
Q 2894 3584 3203 3211 
Q 3513 2838 3513 2113 
z
" transform="scale(0.015625)"/>
      <path id="DejaVuSans-4f" d="M 2522 4238 
Q 1834 4238 1429 3725 
Q 1025 3213 1025 2328 
Q 1025 1447 1429 934 
Q 1834 422 2522 422 
Q 3209 422 3611 934 
Q 4013 1447 4013 2328 
Q 4013 3213 3611 3725 
Q 3209 4238 2522 4238 
z
M 2522 4750 
Q 3503 4750 4090 4092 
Q 4678 3434 4678 2328 
Q 4678 1225 4090 567 
Q 3503 -91 2522 -91 
Q 1538 -91 948 565 
Q 359 1222 359 2328 
Q 359 3434 948 4092 
Q 1538 4750 2522 4750 
z
" transform="scale(0.015625)"/>
      <path id="DejaVuSans-70" d="M 1159 525 
L 1159 -1331 
L 581 -1331 
L 581 3500 
L 1159 3500 
L 1159 2969 
Q 1341 3281 1617 3432 
Q 1894 3584 2278 3584 
Q 2916 3584 3314 3078 
Q 3713 2572 3713 1747 
Q 3713 922 3314 415 
Q 2916 -91 2278 -91 
Q 1894 -91 1617 61 
Q 1341 213 1159 525 
z
M 3116 1747 
Q 3116 2381 2855 2742 
Q 2594 3103 2138 3103 
Q 1681 3103 1420 2742 
Q 1159 2381 1159 1747 
Q 1159 1113 1420 752 
Q 1681 391 2138 391 
Q 2594 391 2855 752 
Q 3116 1113 3116 1747 
z
" transform="scale(0.015625)"/>
      <path id="DejaVuSans-53" d="M 3425 4513 
L 3425 3897 
Q 3066 4069 2747 4153 
Q 2428 4238 2131 4238 
Q 1616 4238 1336 4038 
Q 1056 3838 1056 3469 
Q 1056 3159 1242 3001 
Q 1428 2844 1947 2747 
L 2328 2669 
Q 3034 2534 3370 2195 
Q 3706 1856 3706 1288 
Q 3706 609 3251 259 
Q 2797 -91 1919 -91 
Q 1588 -91 1214 -16 
Q 841 59 441 206 
L 441 856 
Q 825 641 1194 531 
Q 1563 422 1919 422 
Q 2459 422 2753 634 
Q 3047 847 3047 1241 
Q 3047 1584 2836 1778 
Q 2625 1972 2144 2069 
L 1759 2144 
Q 1053 2284 737 2584 
Q 422 2884 422 3419 
Q 422 4038 858 4394 
Q 1294 4750 2059 4750 
Q 2388 4750 2728 4690 
Q 3069 4631 3425 4513 
z
" transform="scale(0.015625)"/>
      <path id="DejaVuSans-4d" d="M 628 4666 
L 1569 4666 
L 2759 1491 
L 3956 4666 
L 4897 4666 
L 4897 0 
L 4281 0 
L 4281 4097 
L 3078 897 
L 2444 897 
L 1241 4097 
L 1241 0 
L 628 0 
L 628 4666 
z
" transform="scale(0.015625)"/>
      <path id="DejaVuSans-61" d="M 2194 1759 
Q 1497 1759 1228 1600 
Q 959 1441 959 1056 
Q 959 750 1161 570 
Q 1363 391 1709 391 
Q 2188 391 2477 730 
Q 2766 1069 2766 1631 
L 2766 1759 
L 2194 1759 
z
M 3341 1997 
L 3341 0 
L 2766 0 
L 2766 531 
Q 2569 213 2275 61 
Q 1981 -91 1556 -91 
Q 1019 -91 701 211 
Q 384 513 384 1019 
Q 384 1609 779 1909 
Q 1175 2209 1959 2209 
L 2766 2209 
L 2766 2266 
Q 2766 2663 2505 2880 
Q 2244 3097 1772 3097 
Q 1472 3097 1187 3025 
Q 903 2953 641 2809 
L 641 3341 
Q 956 3463 1253 3523 
Q 1550 3584 1831 3584 
Q 2591 3584 2966 3190 
Q 3341 2797 3341 1997 
z
" transform="scale(0.015625)"/>
      <path id="DejaVuSans-64" d="M 2906 2969 
L 2906 4863 
L 3481 4863 
L 3481 0 
L 2906 0 
L 2906 525 
Q 2725 213 2448 61 
Q 2172 -91 1784 -91 
Q 1150 -91 751 415 
Q 353 922 353 1747 
Q 353 2572 751 3078 
Q 1150 3584 1784 3584 
Q 2172 3584 2448 3432 
Q 2725 3281 2906 2969 
z
M 947 1747 
Q 947 1113 1208 752 
Q 1469 391 1925 391 
Q 2381 391 2643 752 
Q 2906 1113 2906 1747 
Q 2906 2381 2643 2742 
Q 2381 3103 1925 3103 
Q 1469 3103 1208 2742 
Q 947 2381 947 1747 
z
" transform="scale(0.015625)"/>
      <path id="DejaVuSans-50" d="M 1259 4147 
L 1259 2394 
L 2053 2394 
Q 2494 2394 2734 2622 
Q 2975 2850 2975 3272 
Q 2975 3691 2734 3919 
Q 2494 4147 2053 4147 
L 1259 4147 
z
M 628 4666 
L 2053 4666 
Q 2838 4666 3239 4311 
Q 3641 3956 3641 3272 
Q 3641 2581 3239 2228 
Q 2838 1875 2053 1875 
L 1259 1875 
L 1259 0 
L 628 0 
L 628 4666 
z
" transform="scale(0.015625)"/>
      <path id="DejaVuSans-6c" d="M 603 4863 
L 1178 4863 
L 1178 0 
L 603 0 
L 603 4863 
z
" transform="scale(0.015625)"/>
      <path id="DejaVuSans-2c" d="M 750 794 
L 1409 794 
L 1409 256 
L 897 -744 
L 494 -744 
L 750 256 
L 750 794 
z
" transform="scale(0.015625)"/>
      <path id="DejaVuSans-79" d="M 2059 -325 
Q 1816 -950 1584 -1140 
Q 1353 -1331 966 -1331 
L 506 -1331 
L 506 -850 
L 844 -850 
Q 1081 -850 1212 -737 
Q 1344 -625 1503 -206 
L 1606 56 
L 191 3500 
L 800 3500 
L 1894 763 
L 2988 3500 
L 3597 3500 
L 2059 -325 
z
" transform="scale(0.015625)"/>
      <path id="DejaVuSans-2e" d="M 684 794 
L 1344 794 
L 1344 0 
L 684 0 
L 684 794 
z
" transform="scale(0.015625)"/>
      <path id="DejaVuSans-3a" d="M 750 794 
L 1409 794 
L 1409 0 
L 750 0 
L 750 794 
z
M 750 3309 
L 1409 3309 
L 1409 2516 
L 750 2516 
L 750 3309 
z
" transform="scale(0.015625)"/>
      <path id="DejaVuSans-37" d="M 525 4666 
L 3525 4666 
L 3525 4397 
L 1831 0 
L 1172 0 
L 2766 4134 
L 525 4134 
L 525 4666 
z
" transform="scale(0.015625)"/>
     </defs>
     <use xlink:href="#DejaVuSans-4e"/>
     <use xlink:href="#DejaVuSans-75" x="74.804688"/>
     <use xlink:href="#DejaVuSans-6d" x="138.183594"/>
     <use xlink:href="#DejaVuSans-62" x="235.595703"/>
     <use xlink:href="#DejaVuSans-65" x="299.072266"/>
     <use xlink:href="#DejaVuSans-72" x="360.595703"/>
     <use xlink:href="#DejaVuSans-20" x="401.708984"/>
     <use xlink:href="#DejaVuSans-6f" x="433.496094"/>
     <use xlink:href="#DejaVuSans-66" x="494.677734"/>
     <use xlink:href="#DejaVuSans-20" x="529.882812"/>
     <use xlink:href="#DejaVuSans-41" x="561.669922"/>
     <use xlink:href="#DejaVuSans-45" x="630.078125"/>
     <use xlink:href="#DejaVuSans-44" x="693.261719"/>
     <use xlink:href="#DejaVuSans-73" x="770.263672"/>
     <use xlink:href="#DejaVuSans-20" x="822.363281"/>
     <use xlink:href="#DejaVuSans-69" x="854.150391"/>
     <use xlink:href="#DejaVuSans-6e" x="881.933594"/>
     <use xlink:href="#DejaVuSans-20" x="945.3125"/>
     <use xlink:href="#DejaVuSans-74" x="977.099609"/>
     <use xlink:href="#DejaVuSans-68" x="1016.308594"/>
     <use xlink:href="#DejaVuSans-65" x="1079.6875"/>
     <use xlink:href="#DejaVuSans-20" x="1141.210938"/>
     <use xlink:href="#DejaVuSans-4f" x="1172.998047"/>
     <use xlink:href="#DejaVuSans-70" x="1251.708984"/>
     <use xlink:href="#DejaVuSans-65" x="1315.185547"/>
     <use xlink:href="#DejaVuSans-6e" x="1376.708984"/>
     <use xlink:href="#DejaVuSans-53" x="1440.087891"/>
     <use xlink:href="#DejaVuSans-74" x="1503.564453"/>
     <use xlink:href="#DejaVuSans-72" x="1542.773438"/>
     <use xlink:href="#DejaVuSans-65" x="1581.636719"/>
     <use xlink:href="#DejaVuSans-65" x="1643.160156"/>
     <use xlink:href="#DejaVuSans-74" x="1704.683594"/>
     <use xlink:href="#DejaVuSans-4d" x="1743.892578"/>
     <use xlink:href="#DejaVuSans-61" x="1830.171875"/>
     <use xlink:href="#DejaVuSans-70" x="1891.451172"/>
     <use xlink:href="#DejaVuSans-20" x="1954.927734"/>
     <use xlink:href="#DejaVuSans-64" x="1986.714844"/>
     <use xlink:href="#DejaVuSans-61" x="2050.191406"/>
     <use xlink:href="#DejaVuSans-74" x="2111.470703"/>
     <use xlink:href="#DejaVuSans-61" x="2150.679688"/>
     <use xlink:href="#DejaVuSans-62" x="2211.958984"/>
     <use xlink:href="#DejaVuSans-61" x="2275.435547"/>
     <use xlink:href="#DejaVuSans-73" x="2336.714844"/>
     <use xlink:href="#DejaVuSans-65" x="2388.814453"/>
     <use xlink:href="#DejaVuSans-20" x="2450.337891"/>
     <use xlink:href="#DejaVuSans-69" x="2482.125"/>
     <use xlink:href="#DejaVuSans-6e" x="2509.908203"/>
     <use xlink:href="#DejaVuSans-20" x="2573.287109"/>
     <use xlink:href="#DejaVuSans-50" x="2605.074219"/>
     <use xlink:href="#DejaVuSans-6f" x="2661.751953"/>
     <use xlink:href="#DejaVuSans-6c" x="2722.933594"/>
     <use xlink:href="#DejaVuSans-61" x="2750.716797"/>
     <use xlink:href="#DejaVuSans-6e" x="2811.996094"/>
     <use xlink:href="#DejaVuSans-64" x="2875.375"/>
     <use xlink:href="#DejaVuSans-20" x="2938.851562"/>
     <use xlink:href="#DejaVuSans-66" x="2970.638672"/>
     <use xlink:href="#DejaVuSans-72" x="3005.84375"/>
     <use xlink:href="#DejaVuSans-6f" x="3044.707031"/>
     <use xlink:href="#DejaVuSans-6d" x="3105.888672"/>
     <use xlink:href="#DejaVuSans-20" x="3203.300781"/>
     <use xlink:href="#DejaVuSans-32" x="3235.087891"/>
     <use xlink:href="#DejaVuSans-30" x="3298.710938"/>
     <use xlink:href="#DejaVuSans-32" x="3362.333984"/>
     <use xlink:href="#DejaVuSans-34" x="3425.957031"/>
     <use xlink:href="#DejaVuSans-2d" x="3489.580078"/>
     <use xlink:href="#DejaVuSans-30" x="3525.664062"/>
     <use xlink:href="#DejaVuSans-31" x="3589.287109"/>
     <use xlink:href="#DejaVuSans-2d" x="3652.910156"/>
     <use xlink:href="#DejaVuSans-30" x="3688.994141"/>
     <use xlink:href="#DejaVuSans-31" x="3752.617188"/>
     <use xlink:href="#DejaVuSans-2c" x="3816.240234"/>
     <use xlink:href="#DejaVuSans-20" x="3848.027344"/>
     <use xlink:href="#DejaVuSans-64" x="3879.814453"/>
     <use xlink:href="#DejaVuSans-61" x="3943.291016"/>
     <use xlink:href="#DejaVuSans-79" x="4004.570312"/>
     <use xlink:href="#DejaVuSans-20" x="4063.75"/>
     <use xlink:href="#DejaVuSans-62" x="4095.537109"/>
     <use xlink:href="#DejaVuSans-79" x="4159.013672"/>
     <use xlink:href="#DejaVuSans-20" x="4218.193359"/>
     <use xlink:href="#DejaVuSans-64" x="4249.980469"/>
     <use xlink:href="#DejaVuSans-61" x="4313.457031"/>
     <use xlink:href="#DejaVuSans-79" x="4374.736328"/>
     <use xlink:href="#DejaVuSans-2e" x="4419.666016"/>
     <use xlink:href="#DejaVuSans-20" x="4451.453125"/>
     <use xlink:href="#DejaVuSans-41" x="4483.240234"/>
     <use xlink:href="#DejaVuSans-73" x="4551.648438"/>
     <use xlink:href="#DejaVuSans-20" x="4603.748047"/>
     <use xlink:href="#DejaVuSans-61" x="4635.535156"/>
     <use xlink:href="#DejaVuSans-74" x="4696.814453"/>
     <use xlink:href="#DejaVuSans-3a" x="4736.023438"/>
     <use xlink:href="#DejaVuSans-20" x="4769.714844"/>
     <use xlink:href="#DejaVuSans-32" x="4801.501953"/>
     <use xlink:href="#DejaVuSans-30" x="4865.125"/>
     <use xlink:href="#DejaVuSans-32" x="4928.748047"/>
     <use xlink:href="#DejaVuSans-34" x="4992.371094"/>
     <use xlink:href="#DejaVuSans-2d" x="5055.994141"/>
     <use xlink:href="#DejaVuSans-30" x="5092.078125"/>
     <use xlink:href="#DejaVuSans-32" x="5155.701172"/>
     <use xlink:href="#DejaVuSans-2d" x="5219.324219"/>
     <use xlink:href="#DejaVuSans-31" x="5255.408203"/>
     <use xlink:href="#DejaVuSans-37" x="5319.03125"/>
    </g>
   </g>
  </g>
 </g>
 <defs>
  <clipPath id="p0f8084a622">
   <rect x="144" y="69.12" width="892.8" height="443.52"/>
  </clipPath>
 </defs>
</svg>
