<?xml version="1.0" encoding="utf-8" standalone="no"?>
<!DOCTYPE svg PUBLIC "-//W3C//DTD SVG 1.1//EN"
  "http://www.w3.org/Graphics/SVG/1.1/DTD/svg11.dtd">
<svg xmlns:xlink="http://www.w3.org/1999/xlink" width="1152pt" height="576pt" viewBox="0 0 1152 576" xmlns="http://www.w3.org/2000/svg" version="1.1">
 <metadata>
  <rdf:RDF xmlns:dc="http://purl.org/dc/elements/1.1/" xmlns:cc="http://creativecommons.org/ns#" xmlns:rdf="http://www.w3.org/1999/02/22-rdf-syntax-ns#">
   <cc:Work>
    <dc:type rdf:resource="http://purl.org/dc/dcmitype/StillImage"/>
    <dc:date>1980-01-01T00:00:00+00:00</dc:date>
    <dc:format>image/svg+xml</dc:format>
    <dc:creator>
     <cc:Agent>
      <dc:title>Matplotlib v3.9.1, https://matplotlib.org/</dc:title>
     </cc:Agent>
    </dc:creator>
   </cc:Work>
  </rdf:RDF>
 </metadata>
 <defs>
  <style type="text/css">*{stroke-linejoin: round; stroke-linecap: butt}</style>
 </defs>
 <g id="figure_1">
  <g id="patch_1">
   <path d="M 0 576 
L 1152 576 
L 1152 0 
L 0 0 
z
" style="fill: #ffffff"/>
  </g>
  <g id="axes_1">
   <g id="patch_2">
    <path d="M 144 512.64 
L 1036.8 512.64 
L 1036.8 69.12 
L 144 69.12 
z
" style="fill: #ffffff"/>
   </g>
   <g id="PathCollection_1">
    <path d="M 184.581818 494.716068 
C 185.17483 494.716068 185.743634 494.480462 186.162957 494.061139 
C 186.58228 493.641816 186.817886 493.073012 186.817886 492.48 
C 186.817886 491.886988 186.58228 491.318184 186.162957 490.898861 
C 185.743634 490.479538 185.17483 490.243932 184.581818 490.243932 
C 183.988806 490.243932 183.420002 490.479538 183.000679 490.898861 
C 182.581356 491.318184 182.34575 491.886988 182.34575 492.48 
C 182.34575 493.073012 182.581356 493.641816 183.000679 494.061139 
C 183.420002 494.480462 183.988806 494.716068 184.581818 494.716068 
z
" clip-path="url(#p63658c196d)" style="fill: #1f77b4; fill-opacity: 0.3; stroke: #1f77b4; stroke-opacity: 0.3"/>
    <path d="M 207.127273 492.592783 
C 208.064907 492.592783 208.964265 492.220257 209.627273 491.55725 
C 210.29028 490.894242 210.662807 489.994884 210.662807 489.05725 
C 210.662807 488.119615 210.29028 487.220257 209.627273 486.55725 
C 208.964265 485.894242 208.064907 485.521716 207.127273 485.521716 
C 206.189638 485.521716 205.29028 485.894242 204.627273 486.55725 
C 203.964265 487.220257 203.591739 488.119615 203.591739 489.05725 
C 203.591739 489.994884 203.964265 490.894242 204.627273 491.55725 
C 205.29028 492.220257 206.189638 492.592783 207.127273 492.592783 
z
" clip-path="url(#p63658c196d)" style="fill: #1f77b4; fill-opacity: 0.3; stroke: #1f77b4; stroke-opacity: 0.3"/>
    <path d="M 229.672727 484.912723 
C 231.296758 484.912723 232.854491 484.267488 234.002854 483.119125 
C 235.151217 481.970762 235.796452 480.413029 235.796452 478.788998 
C 235.796452 477.164968 235.151217 475.607234 234.002854 474.458871 
C 232.854491 473.310508 231.296758 472.665274 229.672727 472.665274 
C 228.048697 472.665274 226.490963 473.310508 225.3426 474.458871 
C 224.194237 475.607234 223.549003 477.164968 223.549003 478.788998 
C 223.549003 480.413029 224.194237 481.970762 225.3426 483.119125 
C 226.490963 484.267488 228.048697 484.912723 229.672727 484.912723 
z
" clip-path="url(#p63658c196d)" style="fill: #1f77b4; fill-opacity: 0.3; stroke: #1f77b4; stroke-opacity: 0.3"/>
    <path d="M 252.218182 479.473961 
C 252.94447 479.473961 253.64111 479.185403 254.154673 478.67184 
C 254.668237 478.158276 254.956795 477.461637 254.956795 476.735348 
C 254.956795 476.009059 254.668237 475.31242 254.154673 474.798856 
C 253.64111 474.285293 252.94447 473.996735 252.218182 473.996735 
C 251.491893 473.996735 250.795254 474.285293 250.28169 474.798856 
C 249.768127 475.31242 249.479569 476.009059 249.479569 476.735348 
C 249.479569 477.461637 249.768127 478.158276 250.28169 478.67184 
C 250.795254 479.185403 251.491893 479.473961 252.218182 479.473961 
z
" clip-path="url(#p63658c196d)" style="fill: #1f77b4; fill-opacity: 0.3; stroke: #1f77b4; stroke-opacity: 0.3"/>
    <path d="M 274.763636 475.731083 
C 275.949661 475.731083 277.087268 475.259871 277.925914 474.421225 
C 278.76456 473.582579 279.235772 472.444972 279.235772 471.258947 
C 279.235772 470.072923 278.76456 468.935316 277.925914 468.09667 
C 277.087268 467.258024 275.949661 466.786811 274.763636 466.786811 
C 273.577612 466.786811 272.440005 467.258024 271.601359 468.09667 
C 270.762713 468.935316 270.2915 470.072923 270.2915 471.258947 
C 270.2915 472.444972 270.762713 473.582579 271.601359 474.421225 
C 272.440005 475.259871 273.577612 475.731083 274.763636 475.731083 
z
" clip-path="url(#p63658c196d)" style="fill: #1f77b4; fill-opacity: 0.3; stroke: #1f77b4; stroke-opacity: 0.3"/>
    <path d="M 297.309091 469.413447 
C 298.635106 469.413447 299.90699 468.886615 300.844625 467.94898 
C 301.782259 467.011346 302.309091 465.739462 302.309091 464.413447 
C 302.309091 463.087431 301.782259 461.815547 300.844625 460.877913 
C 299.90699 459.940278 298.635106 459.413447 297.309091 459.413447 
C 295.983075 459.413447 294.711192 459.940278 293.773557 460.877913 
C 292.835922 461.815547 292.309091 463.087431 292.309091 464.413447 
C 292.309091 465.739462 292.835922 467.011346 293.773557 467.94898 
C 294.711192 468.886615 295.983075 469.413447 297.309091 469.413447 
z
" clip-path="url(#p63658c196d)" style="fill: #1f77b4; fill-opacity: 0.3; stroke: #1f77b4; stroke-opacity: 0.3"/>
    <path d="M 319.854545 465.280414 
C 320.447558 465.280414 321.016361 465.044808 321.435684 464.625485 
C 321.855007 464.206162 322.090613 463.637359 322.090613 463.044346 
C 322.090613 462.451334 321.855007 461.88253 321.435684 461.463208 
C 321.016361 461.043885 320.447558 460.808278 319.854545 460.808278 
C 319.261533 460.808278 318.69273 461.043885 318.273407 461.463208 
C 317.854084 461.88253 317.618477 462.451334 317.618477 463.044346 
C 317.618477 463.637359 317.854084 464.206162 318.273407 464.625485 
C 318.69273 465.044808 319.261533 465.280414 319.854545 465.280414 
z
" clip-path="url(#p63658c196d)" style="fill: #1f77b4; fill-opacity: 0.3; stroke: #1f77b4; stroke-opacity: 0.3"/>
    <path d="M 342.4 462.040082 
C 343.586024 462.040082 344.723632 461.568869 345.562278 460.730223 
C 346.400923 459.891577 346.872136 458.75397 346.872136 457.567946 
C 346.872136 456.381921 346.400923 455.244314 345.562278 454.405668 
C 344.723632 453.567022 343.586024 453.09581 342.4 453.09581 
C 341.213976 453.09581 340.076368 453.567022 339.237722 454.405668 
C 338.399077 455.244314 337.927864 456.381921 337.927864 457.567946 
C 337.927864 458.75397 338.399077 459.891577 339.237722 460.730223 
C 340.076368 461.568869 341.213976 462.040082 342.4 462.040082 
z
" clip-path="url(#p63658c196d)" style="fill: #1f77b4; fill-opacity: 0.3; stroke: #1f77b4; stroke-opacity: 0.3"/>
    <path d="M 364.945455 458.252908 
C 365.671743 458.252908 366.368383 457.964351 366.881946 457.450787 
C 367.39551 456.937223 367.684067 456.240584 367.684067 455.514295 
C 367.684067 454.788007 367.39551 454.091367 366.881946 453.577804 
C 366.368383 453.06424 365.671743 452.775683 364.945455 452.775683 
C 364.219166 452.775683 363.522526 453.06424 363.008963 453.577804 
C 362.495399 454.091367 362.206842 454.788007 362.206842 455.514295 
C 362.206842 456.240584 362.495399 456.937223 363.008963 457.450787 
C 363.522526 457.964351 364.219166 458.252908 364.945455 458.252908 
z
" clip-path="url(#p63658c196d)" style="fill: #1f77b4; fill-opacity: 0.3; stroke: #1f77b4; stroke-opacity: 0.3"/>
    <path d="M 387.490909 455.938373 
C 388.329555 455.938373 389.133965 455.605175 389.726977 455.012163 
C 390.319989 454.419151 390.653187 453.614741 390.653187 452.776095 
C 390.653187 451.937449 390.319989 451.133039 389.726977 450.540027 
C 389.133965 449.947015 388.329555 449.613817 387.490909 449.613817 
C 386.652263 449.613817 385.847853 449.947015 385.254841 450.540027 
C 384.661829 451.133039 384.328631 451.937449 384.328631 452.776095 
C 384.328631 453.614741 384.661829 454.419151 385.254841 455.012163 
C 385.847853 455.605175 386.652263 455.938373 387.490909 455.938373 
z
" clip-path="url(#p63658c196d)" style="fill: #1f77b4; fill-opacity: 0.3; stroke: #1f77b4; stroke-opacity: 0.3"/>
    <path d="M 410.036364 453.643063 
C 410.629376 453.643063 411.19818 453.407457 411.617502 452.988134 
C 412.036825 452.568811 412.272432 452.000007 412.272432 451.406995 
C 412.272432 450.813983 412.036825 450.245179 411.617502 449.825856 
C 411.19818 449.406533 410.629376 449.170927 410.036364 449.170927 
C 409.443351 449.170927 408.874548 449.406533 408.455225 449.825856 
C 408.035902 450.245179 407.800296 450.813983 407.800296 451.406995 
C 407.800296 452.000007 408.035902 452.568811 408.455225 452.988134 
C 408.874548 453.407457 409.443351 453.643063 410.036364 453.643063 
z
" clip-path="url(#p63658c196d)" style="fill: #1f77b4; fill-opacity: 0.3; stroke: #1f77b4; stroke-opacity: 0.3"/>
    <path d="M 432.581818 451.519778 
C 433.519453 451.519778 434.41881 451.147252 435.081818 450.484244 
C 435.744826 449.821237 436.117352 448.921879 436.117352 447.984244 
C 436.117352 447.04661 435.744826 446.147252 435.081818 445.484244 
C 434.41881 444.821237 433.519453 444.448711 432.581818 444.448711 
C 431.644184 444.448711 430.744826 444.821237 430.081818 445.484244 
C 429.41881 446.147252 429.046284 447.04661 429.046284 447.984244 
C 429.046284 448.921879 429.41881 449.821237 430.081818 450.484244 
C 430.744826 451.147252 431.644184 451.519778 432.581818 451.519778 
z
" clip-path="url(#p63658c196d)" style="fill: #1f77b4; fill-opacity: 0.3; stroke: #1f77b4; stroke-opacity: 0.3"/>
    <path d="M 455.127273 448.408322 
C 455.965919 448.408322 456.770329 448.075124 457.363341 447.482112 
C 457.956353 446.8891 458.28955 446.08469 458.28955 445.246044 
C 458.28955 444.407398 457.956353 443.602988 457.363341 443.009976 
C 456.770329 442.416964 455.965919 442.083766 455.127273 442.083766 
C 454.288627 442.083766 453.484217 442.416964 452.891205 443.009976 
C 452.298193 443.602988 451.964995 444.407398 451.964995 445.246044 
C 451.964995 446.08469 452.298193 446.8891 452.891205 447.482112 
C 453.484217 448.075124 454.288627 448.408322 455.127273 448.408322 
z
" clip-path="url(#p63658c196d)" style="fill: #1f77b4; fill-opacity: 0.3; stroke: #1f77b4; stroke-opacity: 0.3"/>
    <path d="M 477.672727 445.358828 
C 478.610362 445.358828 479.50972 444.986301 480.172727 444.323294 
C 480.835735 443.660286 481.208261 442.760928 481.208261 441.823294 
C 481.208261 440.885659 480.835735 439.986301 480.172727 439.323294 
C 479.50972 438.660286 478.610362 438.28776 477.672727 438.28776 
C 476.735093 438.28776 475.835735 438.660286 475.172727 439.323294 
C 474.50972 439.986301 474.137193 440.885659 474.137193 441.823294 
C 474.137193 442.760928 474.50972 443.660286 475.172727 444.323294 
C 475.835735 444.986301 476.735093 445.358828 477.672727 445.358828 
z
" clip-path="url(#p63658c196d)" style="fill: #1f77b4; fill-opacity: 0.3; stroke: #1f77b4; stroke-opacity: 0.3"/>
    <path d="M 500.218182 441.936077 
C 501.155816 441.936077 502.055174 441.563551 502.718182 440.900543 
C 503.38119 440.237536 503.753716 439.338178 503.753716 438.400543 
C 503.753716 437.462909 503.38119 436.563551 502.718182 435.900543 
C 502.055174 435.237536 501.155816 434.865009 500.218182 434.865009 
C 499.280547 434.865009 498.38119 435.237536 497.718182 435.900543 
C 497.055174 436.563551 496.682648 437.462909 496.682648 438.400543 
C 496.682648 439.338178 497.055174 440.237536 497.718182 440.900543 
C 498.38119 441.563551 499.280547 441.936077 500.218182 441.936077 
z
" clip-path="url(#p63658c196d)" style="fill: #1f77b4; fill-opacity: 0.3; stroke: #1f77b4; stroke-opacity: 0.3"/>
    <path d="M 522.763636 438.166226 
C 523.790764 438.166226 524.775961 437.758144 525.502249 437.031856 
C 526.228538 436.305567 526.63662 435.32037 526.63662 434.293243 
C 526.63662 433.266116 526.228538 432.280919 525.502249 431.55463 
C 524.775961 430.828341 523.790764 430.420259 522.763636 430.420259 
C 521.736509 430.420259 520.751312 430.828341 520.025024 431.55463 
C 519.298735 432.280919 518.890653 433.266116 518.890653 434.293243 
C 518.890653 435.32037 519.298735 436.305567 520.025024 437.031856 
C 520.751312 437.758144 521.736509 438.166226 522.763636 438.166226 
z
" clip-path="url(#p63658c196d)" style="fill: #1f77b4; fill-opacity: 0.3; stroke: #1f77b4; stroke-opacity: 0.3"/>
    <path d="M 545.309091 434.406026 
C 546.246725 434.406026 547.146083 434.0335 547.809091 433.370492 
C 548.472099 432.707485 548.844625 431.808127 548.844625 430.870492 
C 548.844625 429.932858 548.472099 429.0335 547.809091 428.370492 
C 547.146083 427.707485 546.246725 427.334958 545.309091 427.334958 
C 544.371456 427.334958 543.472099 427.707485 542.809091 428.370492 
C 542.146083 429.0335 541.773557 429.932858 541.773557 430.870492 
C 541.773557 431.808127 542.146083 432.707485 542.809091 433.370492 
C 543.472099 434.0335 544.371456 434.406026 545.309091 434.406026 
z
" clip-path="url(#p63658c196d)" style="fill: #1f77b4; fill-opacity: 0.3; stroke: #1f77b4; stroke-opacity: 0.3"/>
    <path d="M 567.854545 430.636175 
C 568.881673 430.636175 569.86687 430.228093 570.593158 429.501805 
C 571.319447 428.775516 571.727529 427.790319 571.727529 426.763192 
C 571.727529 425.736065 571.319447 424.750868 570.593158 424.024579 
C 569.86687 423.29829 568.881673 422.890209 567.854545 422.890209 
C 566.827418 422.890209 565.842221 423.29829 565.115933 424.024579 
C 564.389644 424.750868 563.981562 425.736065 563.981562 426.763192 
C 563.981562 427.790319 564.389644 428.775516 565.115933 429.501805 
C 565.842221 430.228093 566.827418 430.636175 567.854545 430.636175 
z
" clip-path="url(#p63658c196d)" style="fill: #1f77b4; fill-opacity: 0.3; stroke: #1f77b4; stroke-opacity: 0.3"/>
    <path d="M 590.4 426.154641 
C 591.509424 426.154641 592.573559 425.713862 593.35804 424.929381 
C 594.142521 424.1449 594.5833 423.080765 594.5833 421.971341 
C 594.5833 420.861917 594.142521 419.797783 593.35804 419.013301 
C 592.573559 418.22882 591.509424 417.788041 590.4 417.788041 
C 589.290576 417.788041 588.226441 418.22882 587.44196 419.013301 
C 586.657479 419.797783 586.2167 420.861917 586.2167 421.971341 
C 586.2167 423.080765 586.657479 424.1449 587.44196 424.929381 
C 588.226441 425.713862 589.290576 426.154641 590.4 426.154641 
z
" clip-path="url(#p63658c196d)" style="fill: #1f77b4; fill-opacity: 0.3; stroke: #1f77b4; stroke-opacity: 0.3"/>
    <path d="M 612.945455 418.30372 
C 614.514417 418.30372 616.019331 417.680364 617.128755 416.57094 
C 618.238179 415.461516 618.861534 413.956603 618.861534 412.38764 
C 618.861534 410.818677 618.238179 409.313764 617.128755 408.20434 
C 616.019331 407.094916 614.514417 406.47156 612.945455 406.47156 
C 611.376492 406.47156 609.871579 407.094916 608.762154 408.20434 
C 607.65273 409.313764 607.029375 410.818677 607.029375 412.38764 
C 607.029375 413.956603 607.65273 415.461516 608.762154 416.57094 
C 609.871579 417.680364 611.376492 418.30372 612.945455 418.30372 
z
" clip-path="url(#p63658c196d)" style="fill: #1f77b4; fill-opacity: 0.3; stroke: #1f77b4; stroke-opacity: 0.3"/>
    <path d="M 635.490909 412.153323 
C 636.518036 412.153323 637.503233 411.745241 638.229522 411.018952 
C 638.95581 410.292664 639.363892 409.307467 639.363892 408.28034 
C 639.363892 407.253212 638.95581 406.268015 638.229522 405.541727 
C 637.503233 404.815438 636.518036 404.407356 635.490909 404.407356 
C 634.463782 404.407356 633.478585 404.815438 632.752296 405.541727 
C 632.026008 406.268015 631.617926 407.253212 631.617926 408.28034 
C 631.617926 409.307467 632.026008 410.292664 632.752296 411.018952 
C 633.478585 411.745241 634.463782 412.153323 635.490909 412.153323 
z
" clip-path="url(#p63658c196d)" style="fill: #1f77b4; fill-opacity: 0.3; stroke: #1f77b4; stroke-opacity: 0.3"/>
    <path d="M 658.036364 405.994333 
C 659.4271 405.994333 660.761063 405.441787 661.744463 404.458388 
C 662.727862 403.474988 663.280408 402.141025 663.280408 400.750289 
C 663.280408 399.359552 662.727862 398.025589 661.744463 397.042189 
C 660.761063 396.05879 659.4271 395.506244 658.036364 395.506244 
C 656.645627 395.506244 655.311664 396.05879 654.328264 397.042189 
C 653.344865 398.025589 652.792319 399.359552 652.792319 400.750289 
C 652.792319 402.141025 653.344865 403.474988 654.328264 404.458388 
C 655.311664 405.441787 656.645627 405.994333 658.036364 405.994333 
z
" clip-path="url(#p63658c196d)" style="fill: #1f77b4; fill-opacity: 0.3; stroke: #1f77b4; stroke-opacity: 0.3"/>
    <path d="M 680.581818 396.122043 
C 682.25911 396.122043 683.86793 395.455648 685.053954 394.269623 
C 686.239978 393.083599 686.906374 391.474779 686.906374 389.797487 
C 686.906374 388.120196 686.239978 386.511376 685.053954 385.325351 
C 683.86793 384.139327 682.25911 383.472932 680.581818 383.472932 
C 678.904527 383.472932 677.295707 384.139327 676.109682 385.325351 
C 674.923658 386.511376 674.257263 388.120196 674.257263 389.797487 
C 674.257263 391.474779 674.923658 393.083599 676.109682 394.269623 
C 677.295707 395.455648 678.904527 396.122043 680.581818 396.122043 
z
" clip-path="url(#p63658c196d)" style="fill: #1f77b4; fill-opacity: 0.3; stroke: #1f77b4; stroke-opacity: 0.3"/>
    <path d="M 703.127273 381.114252 
C 705.181527 381.114252 707.151921 380.298088 708.604498 378.845511 
C 710.057076 377.392934 710.873239 375.42254 710.873239 373.368285 
C 710.873239 371.314031 710.057076 369.343637 708.604498 367.89106 
C 707.151921 366.438482 705.181527 365.622319 703.127273 365.622319 
C 701.073018 365.622319 699.102624 366.438482 697.650047 367.89106 
C 696.19747 369.343637 695.381306 371.314031 695.381306 373.368285 
C 695.381306 375.42254 696.19747 377.392934 697.650047 378.845511 
C 699.102624 380.298088 701.073018 381.114252 703.127273 381.114252 
z
" clip-path="url(#p63658c196d)" style="fill: #1f77b4; fill-opacity: 0.3; stroke: #1f77b4; stroke-opacity: 0.3"/>
    <path d="M 725.672727 372.364021 
C 726.858752 372.364021 727.996359 371.892808 728.835005 371.054162 
C 729.673651 370.215516 730.144863 369.077909 730.144863 367.891885 
C 730.144863 366.70586 729.673651 365.568253 728.835005 364.729607 
C 727.996359 363.890961 726.858752 363.419749 725.672727 363.419749 
C 724.486703 363.419749 723.349095 363.890961 722.51045 364.729607 
C 721.671804 365.568253 721.200591 366.70586 721.200591 367.891885 
C 721.200591 369.077909 721.671804 370.215516 722.51045 371.054162 
C 723.349095 371.892808 724.486703 372.364021 725.672727 372.364021 
z
" clip-path="url(#p63658c196d)" style="fill: #1f77b4; fill-opacity: 0.3; stroke: #1f77b4; stroke-opacity: 0.3"/>
    <path d="M 748.218182 364.693611 
C 749.730072 364.693611 751.180243 364.09293 752.249311 363.023862 
C 753.318379 361.954794 753.919059 360.504624 753.919059 358.992733 
C 753.919059 357.480843 753.318379 356.030672 752.249311 354.961605 
C 751.180243 353.892537 749.730072 353.291856 748.218182 353.291856 
C 746.706292 353.291856 745.256121 353.892537 744.187053 354.961605 
C 743.117985 356.030672 742.517305 357.480843 742.517305 358.992733 
C 742.517305 360.504624 743.117985 361.954794 744.187053 363.023862 
C 745.256121 364.09293 746.706292 364.693611 748.218182 364.693611 
z
" clip-path="url(#p63658c196d)" style="fill: #1f77b4; fill-opacity: 0.3; stroke: #1f77b4; stroke-opacity: 0.3"/>
    <path d="M 770.763636 355.325112 
C 772.332599 355.325112 773.837512 354.701757 774.946936 353.592332 
C 776.056361 352.482908 776.679716 350.977995 776.679716 349.409032 
C 776.679716 347.84007 776.056361 346.335156 774.946936 345.225732 
C 773.837512 344.116308 772.332599 343.492952 770.763636 343.492952 
C 769.194674 343.492952 767.68976 344.116308 766.580336 345.225732 
C 765.470912 346.335156 764.847557 347.84007 764.847557 349.409032 
C 764.847557 350.977995 765.470912 352.482908 766.580336 353.592332 
C 767.68976 354.701757 769.194674 355.325112 770.763636 355.325112 
z
" clip-path="url(#p63658c196d)" style="fill: #1f77b4; fill-opacity: 0.3; stroke: #1f77b4; stroke-opacity: 0.3"/>
    <path d="M 793.309091 335.901831 
C 795.717918 335.901831 798.028409 334.944793 799.731707 333.241496 
C 801.435005 331.538198 802.392042 329.227706 802.392042 326.818879 
C 802.392042 324.410053 801.435005 322.099561 799.731707 320.396263 
C 798.028409 318.692965 795.717918 317.735928 793.309091 317.735928 
C 790.900264 317.735928 788.589772 318.692965 786.886475 320.396263 
C 785.183177 322.099561 784.22614 324.410053 784.22614 326.818879 
C 784.22614 329.227706 785.183177 331.538198 786.886475 333.241496 
C 788.589772 334.944793 790.900264 335.901831 793.309091 335.901831 
z
" clip-path="url(#p63658c196d)" style="fill: #1f77b4; fill-opacity: 0.3; stroke: #1f77b4; stroke-opacity: 0.3"/>
    <path d="M 815.854545 313.857549 
C 818.226594 313.857549 820.501809 312.915124 822.179101 311.237832 
C 823.856392 309.56054 824.798817 307.285325 824.798817 304.913277 
C 824.798817 302.541228 823.856392 300.266013 822.179101 298.588721 
C 820.501809 296.91143 818.226594 295.969005 815.854545 295.969005 
C 813.482497 295.969005 811.207282 296.91143 809.52999 298.588721 
C 807.852698 300.266013 806.910274 302.541228 806.910274 304.913277 
C 806.910274 307.285325 807.852698 309.56054 809.52999 311.237832 
C 811.207282 312.915124 813.482497 313.857549 815.854545 313.857549 
z
" clip-path="url(#p63658c196d)" style="fill: #1f77b4; fill-opacity: 0.3; stroke: #1f77b4; stroke-opacity: 0.3"/>
    <path d="M 838.4 291.406075 
C 840.808827 291.406075 843.119319 290.449038 844.822616 288.74574 
C 846.525914 287.042442 847.482951 284.731951 847.482951 282.323124 
C 847.482951 279.914297 846.525914 277.603805 844.822616 275.900508 
C 843.119319 274.19721 840.808827 273.240173 838.4 273.240173 
C 835.991173 273.240173 833.680681 274.19721 831.977384 275.900508 
C 830.274086 277.603805 829.317049 279.914297 829.317049 282.323124 
C 829.317049 284.731951 830.274086 287.042442 831.977384 288.74574 
C 833.680681 290.449038 835.991173 291.406075 838.4 291.406075 
z
" clip-path="url(#p63658c196d)" style="fill: #1f77b4; fill-opacity: 0.3; stroke: #1f77b4; stroke-opacity: 0.3"/>
    <path d="M 860.945455 267.166154 
C 863.461392 267.166154 865.874622 266.166561 867.653658 264.387525 
C 869.432695 262.608488 870.432288 260.195258 870.432288 257.679321 
C 870.432288 255.163383 869.432695 252.750153 867.653658 250.971117 
C 865.874622 249.19208 863.461392 248.192488 860.945455 248.192488 
C 858.429517 248.192488 856.016287 249.19208 854.237251 250.971117 
C 852.458214 252.750153 851.458622 255.163383 851.458622 257.679321 
C 851.458622 260.195258 852.458214 262.608488 854.237251 264.387525 
C 856.016287 266.166561 858.429517 267.166154 860.945455 267.166154 
z
" clip-path="url(#p63658c196d)" style="fill: #1f77b4; fill-opacity: 0.3; stroke: #1f77b4; stroke-opacity: 0.3"/>
    <path d="M 883.490909 251.564894 
C 885.318695 251.564894 887.071866 250.838706 888.364306 249.546266 
C 889.656746 248.253826 890.382933 246.500655 890.382933 244.672869 
C 890.382933 242.845083 889.656746 241.091912 888.364306 239.799472 
C 887.071866 238.507032 885.318695 237.780845 883.490909 237.780845 
C 881.663123 237.780845 879.909952 238.507032 878.617512 239.799472 
C 877.325072 241.091912 876.598885 242.845083 876.598885 244.672869 
C 876.598885 246.500655 877.325072 248.253826 878.617512 249.546266 
C 879.909952 250.838706 881.663123 251.564894 883.490909 251.564894 
z
" clip-path="url(#p63658c196d)" style="fill: #1f77b4; fill-opacity: 0.3; stroke: #1f77b4; stroke-opacity: 0.3"/>
    <path d="M 906.036364 243.255335 
C 907.294332 243.255335 908.500947 242.755539 909.390466 241.86602 
C 910.279984 240.976502 910.77978 239.769887 910.77978 238.511919 
C 910.77978 237.25395 910.279984 236.047335 909.390466 235.157817 
C 908.500947 234.268298 907.294332 233.768502 906.036364 233.768502 
C 904.778395 233.768502 903.57178 234.268298 902.682262 235.157817 
C 901.792743 236.047335 901.292947 237.25395 901.292947 238.511919 
C 901.292947 239.769887 901.792743 240.976502 902.682262 241.86602 
C 903.57178 242.755539 904.778395 243.255335 906.036364 243.255335 
z
" clip-path="url(#p63658c196d)" style="fill: #1f77b4; fill-opacity: 0.3; stroke: #1f77b4; stroke-opacity: 0.3"/>
    <path d="M 928.581818 234.367392 
C 930.205849 234.367392 931.763582 233.722157 932.911945 232.573794 
C 934.060308 231.425431 934.705543 229.867698 934.705543 228.243667 
C 934.705543 226.619637 934.060308 225.061903 932.911945 223.91354 
C 931.763582 222.765177 930.205849 222.119943 928.581818 222.119943 
C 926.957787 222.119943 925.400054 222.765177 924.251691 223.91354 
C 923.103328 225.061903 922.458094 226.619637 922.458094 228.243667 
C 922.458094 229.867698 923.103328 231.425431 924.251691 232.573794 
C 925.400054 233.722157 926.957787 234.367392 928.581818 234.367392 
z
" clip-path="url(#p63658c196d)" style="fill: #1f77b4; fill-opacity: 0.3; stroke: #1f77b4; stroke-opacity: 0.3"/>
    <path d="M 951.127273 201.161649 
C 954.293091 201.161649 957.329672 199.903856 959.568244 197.665284 
C 961.806816 195.426712 963.064609 192.390131 963.064609 189.224312 
C 963.064609 186.058494 961.806816 183.021913 959.568244 180.783341 
C 957.329672 178.544769 954.293091 177.286976 951.127273 177.286976 
C 947.961454 177.286976 944.924873 178.544769 942.686301 180.783341 
C 940.447729 183.021913 939.189936 186.058494 939.189936 189.224312 
C 939.189936 192.390131 940.447729 195.426712 942.686301 197.665284 
C 944.924873 199.903856 947.961454 201.161649 951.127273 201.161649 
z
" clip-path="url(#p63658c196d)" style="fill: #1f77b4; fill-opacity: 0.3; stroke: #1f77b4; stroke-opacity: 0.3"/>
    <path d="M 973.672727 131.115927 
C 978.050587 131.115927 982.24973 129.376585 985.345345 126.280971 
C 988.440959 123.185356 990.180301 118.986213 990.180301 114.608353 
C 990.180301 110.230493 988.440959 106.03135 985.345345 102.935736 
C 982.24973 99.840121 978.050587 98.100779 973.672727 98.100779 
C 969.294867 98.100779 965.095724 99.840121 962.00011 102.935736 
C 958.904495 106.03135 957.165153 110.230493 957.165153 114.608353 
C 957.165153 118.986213 958.904495 123.185356 962.00011 126.280971 
C 965.095724 129.376585 969.294867 131.115927 973.672727 131.115927 
z
" clip-path="url(#p63658c196d)" style="fill: #1f77b4; fill-opacity: 0.3; stroke: #1f77b4; stroke-opacity: 0.3"/>
    <path d="M 996.218182 98.897692 
C 998.768824 98.897692 1001.215341 97.884311 1003.018917 96.080735 
C 1004.822493 94.277159 1005.835874 91.830642 1005.835874 89.28 
C 1005.835874 86.729358 1004.822493 84.282841 1003.018917 82.479265 
C 1001.215341 80.675689 998.768824 79.662308 996.218182 79.662308 
C 993.66754 79.662308 991.221023 80.675689 989.417447 82.479265 
C 987.61387 84.282841 986.60049 86.729358 986.60049 89.28 
C 986.60049 91.830642 987.61387 94.277159 989.417447 96.080735 
C 991.221023 97.884311 993.66754 98.897692 996.218182 98.897692 
z
" clip-path="url(#p63658c196d)" style="fill: #1f77b4; fill-opacity: 0.3; stroke: #1f77b4; stroke-opacity: 0.3"/>
   </g>
   <g id="matplotlib.axis_1">
    <g id="xtick_1">
     <g id="line2d_1">
      <defs>
       <path id="m2a051be990" d="M 0 0 
L 0 3.5 
" style="stroke: #000000; stroke-width: 0.8"/>
      </defs>
      <g>
       <use xlink:href="#m2a051be990" x="184.581818" y="512.64" style="stroke: #000000; stroke-width: 0.8"/>
      </g>
     </g>
     <g id="text_1">
      <!-- 2025-01-01 -->
      <g transform="translate(155.524006 527.238438) scale(0.1 -0.1)">
       <defs>
        <path id="DejaVuSans-32" d="M 1228 531 
L 3431 531 
L 3431 0 
L 469 0 
L 469 531 
Q 828 903 1448 1529 
Q 2069 2156 2228 2338 
Q 2531 2678 2651 2914 
Q 2772 3150 2772 3378 
Q 2772 3750 2511 3984 
Q 2250 4219 1831 4219 
Q 1534 4219 1204 4116 
Q 875 4013 500 3803 
L 500 4441 
Q 881 4594 1212 4672 
Q 1544 4750 1819 4750 
Q 2544 4750 2975 4387 
Q 3406 4025 3406 3419 
Q 3406 3131 3298 2873 
Q 3191 2616 2906 2266 
Q 2828 2175 2409 1742 
Q 1991 1309 1228 531 
z
" transform="scale(0.015625)"/>
        <path id="DejaVuSans-30" d="M 2034 4250 
Q 1547 4250 1301 3770 
Q 1056 3291 1056 2328 
Q 1056 1369 1301 889 
Q 1547 409 2034 409 
Q 2525 409 2770 889 
Q 3016 1369 3016 2328 
Q 3016 3291 2770 3770 
Q 2525 4250 2034 4250 
z
M 2034 4750 
Q 2819 4750 3233 4129 
Q 3647 3509 3647 2328 
Q 3647 1150 3233 529 
Q 2819 -91 2034 -91 
Q 1250 -91 836 529 
Q 422 1150 422 2328 
Q 422 3509 836 4129 
Q 1250 4750 2034 4750 
z
" transform="scale(0.015625)"/>
        <path id="DejaVuSans-35" d="M 691 4666 
L 3169 4666 
L 3169 4134 
L 1269 4134 
L 1269 2991 
Q 1406 3038 1543 3061 
Q 1681 3084 1819 3084 
Q 2600 3084 3056 2656 
Q 3513 2228 3513 1497 
Q 3513 744 3044 326 
Q 2575 -91 1722 -91 
Q 1428 -91 1123 -41 
Q 819 9 494 109 
L 494 744 
Q 775 591 1075 516 
Q 1375 441 1709 441 
Q 2250 441 2565 725 
Q 2881 1009 2881 1497 
Q 2881 1984 2565 2268 
Q 2250 2553 1709 2553 
Q 1456 2553 1204 2497 
Q 953 2441 691 2322 
L 691 4666 
z
" transform="scale(0.015625)"/>
        <path id="DejaVuSans-2d" d="M 313 2009 
L 1997 2009 
L 1997 1497 
L 313 1497 
L 313 2009 
z
" transform="scale(0.015625)"/>
        <path id="DejaVuSans-31" d="M 794 531 
L 1825 531 
L 1825 4091 
L 703 3866 
L 703 4441 
L 1819 4666 
L 2450 4666 
L 2450 531 
L 3481 531 
L 3481 0 
L 794 0 
L 794 531 
z
" transform="scale(0.015625)"/>
       </defs>
       <use xlink:href="#DejaVuSans-32"/>
       <use xlink:href="#DejaVuSans-30" x="63.623047"/>
       <use xlink:href="#DejaVuSans-32" x="127.246094"/>
       <use xlink:href="#DejaVuSans-35" x="190.869141"/>
       <use xlink:href="#DejaVuSans-2d" x="254.492188"/>
       <use xlink:href="#DejaVuSans-30" x="290.576172"/>
       <use xlink:href="#DejaVuSans-31" x="354.199219"/>
       <use xlink:href="#DejaVuSans-2d" x="417.822266"/>
       <use xlink:href="#DejaVuSans-30" x="453.90625"/>
       <use xlink:href="#DejaVuSans-31" x="517.529297"/>
      </g>
     </g>
    </g>
    <g id="xtick_2">
     <g id="line2d_2">
      <g>
       <use xlink:href="#m2a051be990" x="274.763636" y="512.64" style="stroke: #000000; stroke-width: 0.8"/>
      </g>
     </g>
     <g id="text_2">
      <!-- 2025-01-05 -->
      <g transform="translate(245.705824 527.238438) scale(0.1 -0.1)">
       <use xlink:href="#DejaVuSans-32"/>
       <use xlink:href="#DejaVuSans-30" x="63.623047"/>
       <use xlink:href="#DejaVuSans-32" x="127.246094"/>
       <use xlink:href="#DejaVuSans-35" x="190.869141"/>
       <use xlink:href="#DejaVuSans-2d" x="254.492188"/>
       <use xlink:href="#DejaVuSans-30" x="290.576172"/>
       <use xlink:href="#DejaVuSans-31" x="354.199219"/>
       <use xlink:href="#DejaVuSans-2d" x="417.822266"/>
       <use xlink:href="#DejaVuSans-30" x="453.90625"/>
       <use xlink:href="#DejaVuSans-35" x="517.529297"/>
      </g>
     </g>
    </g>
    <g id="xtick_3">
     <g id="line2d_3">
      <g>
       <use xlink:href="#m2a051be990" x="364.945455" y="512.64" style="stroke: #000000; stroke-width: 0.8"/>
      </g>
     </g>
     <g id="text_3">
      <!-- 2025-01-09 -->
      <g transform="translate(335.887642 527.238438) scale(0.1 -0.1)">
       <defs>
        <path id="DejaVuSans-39" d="M 703 97 
L 703 672 
Q 941 559 1184 500 
Q 1428 441 1663 441 
Q 2288 441 2617 861 
Q 2947 1281 2994 2138 
Q 2813 1869 2534 1725 
Q 2256 1581 1919 1581 
Q 1219 1581 811 2004 
Q 403 2428 403 3163 
Q 403 3881 828 4315 
Q 1253 4750 1959 4750 
Q 2769 4750 3195 4129 
Q 3622 3509 3622 2328 
Q 3622 1225 3098 567 
Q 2575 -91 1691 -91 
Q 1453 -91 1209 -44 
Q 966 3 703 97 
z
M 1959 2075 
Q 2384 2075 2632 2365 
Q 2881 2656 2881 3163 
Q 2881 3666 2632 3958 
Q 2384 4250 1959 4250 
Q 1534 4250 1286 3958 
Q 1038 3666 1038 3163 
Q 1038 2656 1286 2365 
Q 1534 2075 1959 2075 
z
" transform="scale(0.015625)"/>
       </defs>
       <use xlink:href="#DejaVuSans-32"/>
       <use xlink:href="#DejaVuSans-30" x="63.623047"/>
       <use xlink:href="#DejaVuSans-32" x="127.246094"/>
       <use xlink:href="#DejaVuSans-35" x="190.869141"/>
       <use xlink:href="#DejaVuSans-2d" x="254.492188"/>
       <use xlink:href="#DejaVuSans-30" x="290.576172"/>
       <use xlink:href="#DejaVuSans-31" x="354.199219"/>
       <use xlink:href="#DejaVuSans-2d" x="417.822266"/>
       <use xlink:href="#DejaVuSans-30" x="453.90625"/>
       <use xlink:href="#DejaVuSans-39" x="517.529297"/>
      </g>
     </g>
    </g>
    <g id="xtick_4">
     <g id="line2d_4">
      <g>
       <use xlink:href="#m2a051be990" x="455.127273" y="512.64" style="stroke: #000000; stroke-width: 0.8"/>
      </g>
     </g>
     <g id="text_4">
      <!-- 2025-01-13 -->
      <g transform="translate(426.06946 527.238438) scale(0.1 -0.1)">
       <defs>
        <path id="DejaVuSans-33" d="M 2597 2516 
Q 3050 2419 3304 2112 
Q 3559 1806 3559 1356 
Q 3559 666 3084 287 
Q 2609 -91 1734 -91 
Q 1441 -91 1130 -33 
Q 819 25 488 141 
L 488 750 
Q 750 597 1062 519 
Q 1375 441 1716 441 
Q 2309 441 2620 675 
Q 2931 909 2931 1356 
Q 2931 1769 2642 2001 
Q 2353 2234 1838 2234 
L 1294 2234 
L 1294 2753 
L 1863 2753 
Q 2328 2753 2575 2939 
Q 2822 3125 2822 3475 
Q 2822 3834 2567 4026 
Q 2313 4219 1838 4219 
Q 1578 4219 1281 4162 
Q 984 4106 628 3988 
L 628 4550 
Q 988 4650 1302 4700 
Q 1616 4750 1894 4750 
Q 2613 4750 3031 4423 
Q 3450 4097 3450 3541 
Q 3450 3153 3228 2886 
Q 3006 2619 2597 2516 
z
" transform="scale(0.015625)"/>
       </defs>
       <use xlink:href="#DejaVuSans-32"/>
       <use xlink:href="#DejaVuSans-30" x="63.623047"/>
       <use xlink:href="#DejaVuSans-32" x="127.246094"/>
       <use xlink:href="#DejaVuSans-35" x="190.869141"/>
       <use xlink:href="#DejaVuSans-2d" x="254.492188"/>
       <use xlink:href="#DejaVuSans-30" x="290.576172"/>
       <use xlink:href="#DejaVuSans-31" x="354.199219"/>
       <use xlink:href="#DejaVuSans-2d" x="417.822266"/>
       <use xlink:href="#DejaVuSans-31" x="453.90625"/>
       <use xlink:href="#DejaVuSans-33" x="517.529297"/>
      </g>
     </g>
    </g>
    <g id="xtick_5">
     <g id="line2d_5">
      <g>
       <use xlink:href="#m2a051be990" x="545.309091" y="512.64" style="stroke: #000000; stroke-width: 0.8"/>
      </g>
     </g>
     <g id="text_5">
      <!-- 2025-01-17 -->
      <g transform="translate(516.251278 527.238438) scale(0.1 -0.1)">
       <defs>
        <path id="DejaVuSans-37" d="M 525 4666 
L 3525 4666 
L 3525 4397 
L 1831 0 
L 1172 0 
L 2766 4134 
L 525 4134 
L 525 4666 
z
" transform="scale(0.015625)"/>
       </defs>
       <use xlink:href="#DejaVuSans-32"/>
       <use xlink:href="#DejaVuSans-30" x="63.623047"/>
       <use xlink:href="#DejaVuSans-32" x="127.246094"/>
       <use xlink:href="#DejaVuSans-35" x="190.869141"/>
       <use xlink:href="#DejaVuSans-2d" x="254.492188"/>
       <use xlink:href="#DejaVuSans-30" x="290.576172"/>
       <use xlink:href="#DejaVuSans-31" x="354.199219"/>
       <use xlink:href="#DejaVuSans-2d" x="417.822266"/>
       <use xlink:href="#DejaVuSans-31" x="453.90625"/>
       <use xlink:href="#DejaVuSans-37" x="517.529297"/>
      </g>
     </g>
    </g>
    <g id="xtick_6">
     <g id="line2d_6">
      <g>
       <use xlink:href="#m2a051be990" x="635.490909" y="512.64" style="stroke: #000000; stroke-width: 0.8"/>
      </g>
     </g>
     <g id="text_6">
      <!-- 2025-01-21 -->
      <g transform="translate(606.433097 527.238438) scale(0.1 -0.1)">
       <use xlink:href="#DejaVuSans-32"/>
       <use xlink:href="#DejaVuSans-30" x="63.623047"/>
       <use xlink:href="#DejaVuSans-32" x="127.246094"/>
       <use xlink:href="#DejaVuSans-35" x="190.869141"/>
       <use xlink:href="#DejaVuSans-2d" x="254.492188"/>
       <use xlink:href="#DejaVuSans-30" x="290.576172"/>
       <use xlink:href="#DejaVuSans-31" x="354.199219"/>
       <use xlink:href="#DejaVuSans-2d" x="417.822266"/>
       <use xlink:href="#DejaVuSans-32" x="453.90625"/>
       <use xlink:href="#DejaVuSans-31" x="517.529297"/>
      </g>
     </g>
    </g>
    <g id="xtick_7">
     <g id="line2d_7">
      <g>
       <use xlink:href="#m2a051be990" x="725.672727" y="512.64" style="stroke: #000000; stroke-width: 0.8"/>
      </g>
     </g>
     <g id="text_7">
      <!-- 2025-01-25 -->
      <g transform="translate(696.614915 527.238438) scale(0.1 -0.1)">
       <use xlink:href="#DejaVuSans-32"/>
       <use xlink:href="#DejaVuSans-30" x="63.623047"/>
       <use xlink:href="#DejaVuSans-32" x="127.246094"/>
       <use xlink:href="#DejaVuSans-35" x="190.869141"/>
       <use xlink:href="#DejaVuSans-2d" x="254.492188"/>
       <use xlink:href="#DejaVuSans-30" x="290.576172"/>
       <use xlink:href="#DejaVuSans-31" x="354.199219"/>
       <use xlink:href="#DejaVuSans-2d" x="417.822266"/>
       <use xlink:href="#DejaVuSans-32" x="453.90625"/>
       <use xlink:href="#DejaVuSans-35" x="517.529297"/>
      </g>
     </g>
    </g>
    <g id="xtick_8">
     <g id="line2d_8">
      <g>
       <use xlink:href="#m2a051be990" x="815.854545" y="512.64" style="stroke: #000000; stroke-width: 0.8"/>
      </g>
     </g>
     <g id="text_8">
      <!-- 2025-01-29 -->
      <g transform="translate(786.796733 527.238438) scale(0.1 -0.1)">
       <use xlink:href="#DejaVuSans-32"/>
       <use xlink:href="#DejaVuSans-30" x="63.623047"/>
       <use xlink:href="#DejaVuSans-32" x="127.246094"/>
       <use xlink:href="#DejaVuSans-35" x="190.869141"/>
       <use xlink:href="#DejaVuSans-2d" x="254.492188"/>
       <use xlink:href="#DejaVuSans-30" x="290.576172"/>
       <use xlink:href="#DejaVuSans-31" x="354.199219"/>
       <use xlink:href="#DejaVuSans-2d" x="417.822266"/>
       <use xlink:href="#DejaVuSans-32" x="453.90625"/>
       <use xlink:href="#DejaVuSans-39" x="517.529297"/>
      </g>
     </g>
    </g>
    <g id="xtick_9">
     <g id="line2d_9">
      <g>
       <use xlink:href="#m2a051be990" x="883.490909" y="512.64" style="stroke: #000000; stroke-width: 0.8"/>
      </g>
     </g>
     <g id="text_9">
      <!-- 2025-02-01 -->
      <g transform="translate(854.433097 527.238438) scale(0.1 -0.1)">
       <use xlink:href="#DejaVuSans-32"/>
       <use xlink:href="#DejaVuSans-30" x="63.623047"/>
       <use xlink:href="#DejaVuSans-32" x="127.246094"/>
       <use xlink:href="#DejaVuSans-35" x="190.869141"/>
       <use xlink:href="#DejaVuSans-2d" x="254.492188"/>
       <use xlink:href="#DejaVuSans-30" x="290.576172"/>
       <use xlink:href="#DejaVuSans-32" x="354.199219"/>
       <use xlink:href="#DejaVuSans-2d" x="417.822266"/>
       <use xlink:href="#DejaVuSans-30" x="453.90625"/>
       <use xlink:href="#DejaVuSans-31" x="517.529297"/>
      </g>
     </g>
    </g>
    <g id="xtick_10">
     <g id="line2d_10">
      <g>
       <use xlink:href="#m2a051be990" x="973.672727" y="512.64" style="stroke: #000000; stroke-width: 0.8"/>
      </g>
     </g>
     <g id="text_10">
      <!-- 2025-02-05 -->
      <g transform="translate(944.614915 527.238438) scale(0.1 -0.1)">
       <use xlink:href="#DejaVuSans-32"/>
       <use xlink:href="#DejaVuSans-30" x="63.623047"/>
       <use xlink:href="#DejaVuSans-32" x="127.246094"/>
       <use xlink:href="#DejaVuSans-35" x="190.869141"/>
       <use xlink:href="#DejaVuSans-2d" x="254.492188"/>
       <use xlink:href="#DejaVuSans-30" x="290.576172"/>
       <use xlink:href="#DejaVuSans-32" x="354.199219"/>
       <use xlink:href="#DejaVuSans-2d" x="417.822266"/>
       <use xlink:href="#DejaVuSans-30" x="453.90625"/>
       <use xlink:href="#DejaVuSans-35" x="517.529297"/>
      </g>
     </g>
    </g>
   </g>
   <g id="matplotlib.axis_2">
    <g id="ytick_1">
     <g id="line2d_11">
      <defs>
       <path id="m7599359588" d="M 0 0 
L -3.5 0 
" style="stroke: #000000; stroke-width: 0.8"/>
      </defs>
      <g>
       <use xlink:href="#m7599359588" x="144" y="478.104448" style="stroke: #000000; stroke-width: 0.8"/>
      </g>
     </g>
     <g id="text_11">
      <!-- 8400 -->
      <g transform="translate(111.55 481.903667) scale(0.1 -0.1)">
       <defs>
        <path id="DejaVuSans-38" d="M 2034 2216 
Q 1584 2216 1326 1975 
Q 1069 1734 1069 1313 
Q 1069 891 1326 650 
Q 1584 409 2034 409 
Q 2484 409 2743 651 
Q 3003 894 3003 1313 
Q 3003 1734 2745 1975 
Q 2488 2216 2034 2216 
z
M 1403 2484 
Q 997 2584 770 2862 
Q 544 3141 544 3541 
Q 544 4100 942 4425 
Q 1341 4750 2034 4750 
Q 2731 4750 3128 4425 
Q 3525 4100 3525 3541 
Q 3525 3141 3298 2862 
Q 3072 2584 2669 2484 
Q 3125 2378 3379 2068 
Q 3634 1759 3634 1313 
Q 3634 634 3220 271 
Q 2806 -91 2034 -91 
Q 1263 -91 848 271 
Q 434 634 434 1313 
Q 434 1759 690 2068 
Q 947 2378 1403 2484 
z
M 1172 3481 
Q 1172 3119 1398 2916 
Q 1625 2713 2034 2713 
Q 2441 2713 2670 2916 
Q 2900 3119 2900 3481 
Q 2900 3844 2670 4047 
Q 2441 4250 2034 4250 
Q 1625 4250 1398 4047 
Q 1172 3844 1172 3481 
z
" transform="scale(0.015625)"/>
        <path id="DejaVuSans-34" d="M 2419 4116 
L 825 1625 
L 2419 1625 
L 2419 4116 
z
M 2253 4666 
L 3047 4666 
L 3047 1625 
L 3713 1625 
L 3713 1100 
L 3047 1100 
L 3047 0 
L 2419 0 
L 2419 1100 
L 313 1100 
L 313 1709 
L 2253 4666 
z
" transform="scale(0.015625)"/>
       </defs>
       <use xlink:href="#DejaVuSans-38"/>
       <use xlink:href="#DejaVuSans-34" x="63.623047"/>
       <use xlink:href="#DejaVuSans-30" x="127.246094"/>
       <use xlink:href="#DejaVuSans-30" x="190.869141"/>
      </g>
     </g>
    </g>
    <g id="ytick_2">
     <g id="line2d_12">
      <g>
       <use xlink:href="#m7599359588" x="144" y="409.64944" style="stroke: #000000; stroke-width: 0.8"/>
      </g>
     </g>
     <g id="text_12">
      <!-- 8500 -->
      <g transform="translate(111.55 413.448658) scale(0.1 -0.1)">
       <use xlink:href="#DejaVuSans-38"/>
       <use xlink:href="#DejaVuSans-35" x="63.623047"/>
       <use xlink:href="#DejaVuSans-30" x="127.246094"/>
       <use xlink:href="#DejaVuSans-30" x="190.869141"/>
      </g>
     </g>
    </g>
    <g id="ytick_3">
     <g id="line2d_13">
      <g>
       <use xlink:href="#m7599359588" x="144" y="341.194431" style="stroke: #000000; stroke-width: 0.8"/>
      </g>
     </g>
     <g id="text_13">
      <!-- 8600 -->
      <g transform="translate(111.55 344.99365) scale(0.1 -0.1)">
       <defs>
        <path id="DejaVuSans-36" d="M 2113 2584 
Q 1688 2584 1439 2293 
Q 1191 2003 1191 1497 
Q 1191 994 1439 701 
Q 1688 409 2113 409 
Q 2538 409 2786 701 
Q 3034 994 3034 1497 
Q 3034 2003 2786 2293 
Q 2538 2584 2113 2584 
z
M 3366 4563 
L 3366 3988 
Q 3128 4100 2886 4159 
Q 2644 4219 2406 4219 
Q 1781 4219 1451 3797 
Q 1122 3375 1075 2522 
Q 1259 2794 1537 2939 
Q 1816 3084 2150 3084 
Q 2853 3084 3261 2657 
Q 3669 2231 3669 1497 
Q 3669 778 3244 343 
Q 2819 -91 2113 -91 
Q 1303 -91 875 529 
Q 447 1150 447 2328 
Q 447 3434 972 4092 
Q 1497 4750 2381 4750 
Q 2619 4750 2861 4703 
Q 3103 4656 3366 4563 
z
" transform="scale(0.015625)"/>
       </defs>
       <use xlink:href="#DejaVuSans-38"/>
       <use xlink:href="#DejaVuSans-36" x="63.623047"/>
       <use xlink:href="#DejaVuSans-30" x="127.246094"/>
       <use xlink:href="#DejaVuSans-30" x="190.869141"/>
      </g>
     </g>
    </g>
    <g id="ytick_4">
     <g id="line2d_14">
      <g>
       <use xlink:href="#m7599359588" x="144" y="272.739423" style="stroke: #000000; stroke-width: 0.8"/>
      </g>
     </g>
     <g id="text_14">
      <!-- 8700 -->
      <g transform="translate(111.55 276.538642) scale(0.1 -0.1)">
       <use xlink:href="#DejaVuSans-38"/>
       <use xlink:href="#DejaVuSans-37" x="63.623047"/>
       <use xlink:href="#DejaVuSans-30" x="127.246094"/>
       <use xlink:href="#DejaVuSans-30" x="190.869141"/>
      </g>
     </g>
    </g>
    <g id="ytick_5">
     <g id="line2d_15">
      <g>
       <use xlink:href="#m7599359588" x="144" y="204.284414" style="stroke: #000000; stroke-width: 0.8"/>
      </g>
     </g>
     <g id="text_15">
      <!-- 8800 -->
      <g transform="translate(111.55 208.083633) scale(0.1 -0.1)">
       <use xlink:href="#DejaVuSans-38"/>
       <use xlink:href="#DejaVuSans-38" x="63.623047"/>
       <use xlink:href="#DejaVuSans-30" x="127.246094"/>
       <use xlink:href="#DejaVuSans-30" x="190.869141"/>
      </g>
     </g>
    </g>
    <g id="ytick_6">
     <g id="line2d_16">
      <g>
       <use xlink:href="#m7599359588" x="144" y="135.829406" style="stroke: #000000; stroke-width: 0.8"/>
      </g>
     </g>
     <g id="text_16">
      <!-- 8900 -->
      <g transform="translate(111.55 139.628625) scale(0.1 -0.1)">
       <use xlink:href="#DejaVuSans-38"/>
       <use xlink:href="#DejaVuSans-39" x="63.623047"/>
       <use xlink:href="#DejaVuSans-30" x="127.246094"/>
       <use xlink:href="#DejaVuSans-30" x="190.869141"/>
      </g>
     </g>
    </g>
   </g>
   <g id="line2d_17">
    <path d="M 184.581818 492.48 
L 207.127273 489.05725 
L 229.672727 478.788998 
L 252.218182 476.735348 
L 274.763636 471.258947 
L 297.309091 464.413447 
L 319.854545 463.044346 
L 342.4 457.567946 
L 364.945455 455.514295 
L 387.490909 452.776095 
L 410.036364 451.406995 
L 432.581818 447.984244 
L 455.127273 445.246044 
L 477.672727 441.823294 
L 500.218182 438.400543 
L 522.763636 434.293243 
L 545.309091 430.870492 
L 567.854545 426.763192 
L 590.4 421.971341 
L 612.945455 412.38764 
L 635.490909 408.28034 
L 658.036364 400.750289 
L 680.581818 389.797487 
L 703.127273 373.368285 
L 725.672727 367.891885 
L 748.218182 358.992733 
L 770.763636 349.409032 
L 793.309091 326.818879 
L 815.854545 304.913277 
L 838.4 282.323124 
L 860.945455 257.679321 
L 883.490909 244.672869 
L 906.036364 238.511919 
L 928.581818 228.243667 
L 951.127273 189.224312 
L 973.672727 114.608353 
L 996.218182 89.28 
" clip-path="url(#p63658c196d)" style="fill: none; stroke: #1f77b4; stroke-width: 1.5; stroke-linecap: square"/>
   </g>
   <g id="patch_3">
    <path d="M 144 512.64 
L 144 69.12 
" style="fill: none; stroke: #000000; stroke-width: 0.8; stroke-linejoin: miter; stroke-linecap: square"/>
   </g>
   <g id="patch_4">
    <path d="M 1036.8 512.64 
L 1036.8 69.12 
" style="fill: none; stroke: #000000; stroke-width: 0.8; stroke-linejoin: miter; stroke-linecap: square"/>
   </g>
   <g id="patch_5">
    <path d="M 144 512.64 
L 1036.8 512.64 
" style="fill: none; stroke: #000000; stroke-width: 0.8; stroke-linejoin: miter; stroke-linecap: square"/>
   </g>
   <g id="patch_6">
    <path d="M 144 69.12 
L 1036.8 69.12 
" style="fill: none; stroke: #000000; stroke-width: 0.8; stroke-linejoin: miter; stroke-linecap: square"/>
   </g>
   <g id="text_17">
    <!-- Number of AEDs in the OpenStreetMap database in Poland from 2025-01-01, day by day. As at: 2025-02-06 -->
    <g transform="translate(144 63.12) scale(0.14 -0.14)">
     <defs>
      <path id="DejaVuSans-4e" d="M 628 4666 
L 1478 4666 
L 3547 763 
L 3547 4666 
L 4159 4666 
L 4159 0 
L 3309 0 
L 1241 3903 
L 1241 0 
L 628 0 
L 628 4666 
z
" transform="scale(0.015625)"/>
      <path id="DejaVuSans-75" d="M 544 1381 
L 544 3500 
L 1119 3500 
L 1119 1403 
Q 1119 906 1312 657 
Q 1506 409 1894 409 
Q 2359 409 2629 706 
Q 2900 1003 2900 1516 
L 2900 3500 
L 3475 3500 
L 3475 0 
L 2900 0 
L 2900 538 
Q 2691 219 2414 64 
Q 2138 -91 1772 -91 
Q 1169 -91 856 284 
Q 544 659 544 1381 
z
M 1991 3584 
L 1991 3584 
z
" transform="scale(0.015625)"/>
      <path id="DejaVuSans-6d" d="M 3328 2828 
Q 3544 3216 3844 3400 
Q 4144 3584 4550 3584 
Q 5097 3584 5394 3201 
Q 5691 2819 5691 2113 
L 5691 0 
L 5113 0 
L 5113 2094 
Q 5113 2597 4934 2840 
Q 4756 3084 4391 3084 
Q 3944 3084 3684 2787 
Q 3425 2491 3425 1978 
L 3425 0 
L 2847 0 
L 2847 2094 
Q 2847 2600 2669 2842 
Q 2491 3084 2119 3084 
Q 1678 3084 1418 2786 
Q 1159 2488 1159 1978 
L 1159 0 
L 581 0 
L 581 3500 
L 1159 3500 
L 1159 2956 
Q 1356 3278 1631 3431 
Q 1906 3584 2284 3584 
Q 2666 3584 2933 3390 
Q 3200 3197 3328 2828 
z
" transform="scale(0.015625)"/>
      <path id="DejaVuSans-62" d="M 3116 1747 
Q 3116 2381 2855 2742 
Q 2594 3103 2138 3103 
Q 1681 3103 1420 2742 
Q 1159 2381 1159 1747 
Q 1159 1113 1420 752 
Q 1681 391 2138 391 
Q 2594 391 2855 752 
Q 3116 1113 3116 1747 
z
M 1159 2969 
Q 1341 3281 1617 3432 
Q 1894 3584 2278 3584 
Q 2916 3584 3314 3078 
Q 3713 2572 3713 1747 
Q 3713 922 3314 415 
Q 2916 -91 2278 -91 
Q 1894 -91 1617 61 
Q 1341 213 1159 525 
L 1159 0 
L 581 0 
L 581 4863 
L 1159 4863 
L 1159 2969 
z
" transform="scale(0.015625)"/>
      <path id="DejaVuSans-65" d="M 3597 1894 
L 3597 1613 
L 953 1613 
Q 991 1019 1311 708 
Q 1631 397 2203 397 
Q 2534 397 2845 478 
Q 3156 559 3463 722 
L 3463 178 
Q 3153 47 2828 -22 
Q 2503 -91 2169 -91 
Q 1331 -91 842 396 
Q 353 884 353 1716 
Q 353 2575 817 3079 
Q 1281 3584 2069 3584 
Q 2775 3584 3186 3129 
Q 3597 2675 3597 1894 
z
M 3022 2063 
Q 3016 2534 2758 2815 
Q 2500 3097 2075 3097 
Q 1594 3097 1305 2825 
Q 1016 2553 972 2059 
L 3022 2063 
z
" transform="scale(0.015625)"/>
      <path id="DejaVuSans-72" d="M 2631 2963 
Q 2534 3019 2420 3045 
Q 2306 3072 2169 3072 
Q 1681 3072 1420 2755 
Q 1159 2438 1159 1844 
L 1159 0 
L 581 0 
L 581 3500 
L 1159 3500 
L 1159 2956 
Q 1341 3275 1631 3429 
Q 1922 3584 2338 3584 
Q 2397 3584 2469 3576 
Q 2541 3569 2628 3553 
L 2631 2963 
z
" transform="scale(0.015625)"/>
      <path id="DejaVuSans-20" transform="scale(0.015625)"/>
      <path id="DejaVuSans-6f" d="M 1959 3097 
Q 1497 3097 1228 2736 
Q 959 2375 959 1747 
Q 959 1119 1226 758 
Q 1494 397 1959 397 
Q 2419 397 2687 759 
Q 2956 1122 2956 1747 
Q 2956 2369 2687 2733 
Q 2419 3097 1959 3097 
z
M 1959 3584 
Q 2709 3584 3137 3096 
Q 3566 2609 3566 1747 
Q 3566 888 3137 398 
Q 2709 -91 1959 -91 
Q 1206 -91 779 398 
Q 353 888 353 1747 
Q 353 2609 779 3096 
Q 1206 3584 1959 3584 
z
" transform="scale(0.015625)"/>
      <path id="DejaVuSans-66" d="M 2375 4863 
L 2375 4384 
L 1825 4384 
Q 1516 4384 1395 4259 
Q 1275 4134 1275 3809 
L 1275 3500 
L 2222 3500 
L 2222 3053 
L 1275 3053 
L 1275 0 
L 697 0 
L 697 3053 
L 147 3053 
L 147 3500 
L 697 3500 
L 697 3744 
Q 697 4328 969 4595 
Q 1241 4863 1831 4863 
L 2375 4863 
z
" transform="scale(0.015625)"/>
      <path id="DejaVuSans-41" d="M 2188 4044 
L 1331 1722 
L 3047 1722 
L 2188 4044 
z
M 1831 4666 
L 2547 4666 
L 4325 0 
L 3669 0 
L 3244 1197 
L 1141 1197 
L 716 0 
L 50 0 
L 1831 4666 
z
" transform="scale(0.015625)"/>
      <path id="DejaVuSans-45" d="M 628 4666 
L 3578 4666 
L 3578 4134 
L 1259 4134 
L 1259 2753 
L 3481 2753 
L 3481 2222 
L 1259 2222 
L 1259 531 
L 3634 531 
L 3634 0 
L 628 0 
L 628 4666 
z
" transform="scale(0.015625)"/>
      <path id="DejaVuSans-44" d="M 1259 4147 
L 1259 519 
L 2022 519 
Q 2988 519 3436 956 
Q 3884 1394 3884 2338 
Q 3884 3275 3436 3711 
Q 2988 4147 2022 4147 
L 1259 4147 
z
M 628 4666 
L 1925 4666 
Q 3281 4666 3915 4102 
Q 4550 3538 4550 2338 
Q 4550 1131 3912 565 
Q 3275 0 1925 0 
L 628 0 
L 628 4666 
z
" transform="scale(0.015625)"/>
      <path id="DejaVuSans-73" d="M 2834 3397 
L 2834 2853 
Q 2591 2978 2328 3040 
Q 2066 3103 1784 3103 
Q 1356 3103 1142 2972 
Q 928 2841 928 2578 
Q 928 2378 1081 2264 
Q 1234 2150 1697 2047 
L 1894 2003 
Q 2506 1872 2764 1633 
Q 3022 1394 3022 966 
Q 3022 478 2636 193 
Q 2250 -91 1575 -91 
Q 1294 -91 989 -36 
Q 684 19 347 128 
L 347 722 
Q 666 556 975 473 
Q 1284 391 1588 391 
Q 1994 391 2212 530 
Q 2431 669 2431 922 
Q 2431 1156 2273 1281 
Q 2116 1406 1581 1522 
L 1381 1569 
Q 847 1681 609 1914 
Q 372 2147 372 2553 
Q 372 3047 722 3315 
Q 1072 3584 1716 3584 
Q 2034 3584 2315 3537 
Q 2597 3491 2834 3397 
z
" transform="scale(0.015625)"/>
      <path id="DejaVuSans-69" d="M 603 3500 
L 1178 3500 
L 1178 0 
L 603 0 
L 603 3500 
z
M 603 4863 
L 1178 4863 
L 1178 4134 
L 603 4134 
L 603 4863 
z
" transform="scale(0.015625)"/>
      <path id="DejaVuSans-6e" d="M 3513 2113 
L 3513 0 
L 2938 0 
L 2938 2094 
Q 2938 2591 2744 2837 
Q 2550 3084 2163 3084 
Q 1697 3084 1428 2787 
Q 1159 2491 1159 1978 
L 1159 0 
L 581 0 
L 581 3500 
L 1159 3500 
L 1159 2956 
Q 1366 3272 1645 3428 
Q 1925 3584 2291 3584 
Q 2894 3584 3203 3211 
Q 3513 2838 3513 2113 
z
" transform="scale(0.015625)"/>
      <path id="DejaVuSans-74" d="M 1172 4494 
L 1172 3500 
L 2356 3500 
L 2356 3053 
L 1172 3053 
L 1172 1153 
Q 1172 725 1289 603 
Q 1406 481 1766 481 
L 2356 481 
L 2356 0 
L 1766 0 
Q 1100 0 847 248 
Q 594 497 594 1153 
L 594 3053 
L 172 3053 
L 172 3500 
L 594 3500 
L 594 4494 
L 1172 4494 
z
" transform="scale(0.015625)"/>
      <path id="DejaVuSans-68" d="M 3513 2113 
L 3513 0 
L 2938 0 
L 2938 2094 
Q 2938 2591 2744 2837 
Q 2550 3084 2163 3084 
Q 1697 3084 1428 2787 
Q 1159 2491 1159 1978 
L 1159 0 
L 581 0 
L 581 4863 
L 1159 4863 
L 1159 2956 
Q 1366 3272 1645 3428 
Q 1925 3584 2291 3584 
Q 2894 3584 3203 3211 
Q 3513 2838 3513 2113 
z
" transform="scale(0.015625)"/>
      <path id="DejaVuSans-4f" d="M 2522 4238 
Q 1834 4238 1429 3725 
Q 1025 3213 1025 2328 
Q 1025 1447 1429 934 
Q 1834 422 2522 422 
Q 3209 422 3611 934 
Q 4013 1447 4013 2328 
Q 4013 3213 3611 3725 
Q 3209 4238 2522 4238 
z
M 2522 4750 
Q 3503 4750 4090 4092 
Q 4678 3434 4678 2328 
Q 4678 1225 4090 567 
Q 3503 -91 2522 -91 
Q 1538 -91 948 565 
Q 359 1222 359 2328 
Q 359 3434 948 4092 
Q 1538 4750 2522 4750 
z
" transform="scale(0.015625)"/>
      <path id="DejaVuSans-70" d="M 1159 525 
L 1159 -1331 
L 581 -1331 
L 581 3500 
L 1159 3500 
L 1159 2969 
Q 1341 3281 1617 3432 
Q 1894 3584 2278 3584 
Q 2916 3584 3314 3078 
Q 3713 2572 3713 1747 
Q 3713 922 3314 415 
Q 2916 -91 2278 -91 
Q 1894 -91 1617 61 
Q 1341 213 1159 525 
z
M 3116 1747 
Q 3116 2381 2855 2742 
Q 2594 3103 2138 3103 
Q 1681 3103 1420 2742 
Q 1159 2381 1159 1747 
Q 1159 1113 1420 752 
Q 1681 391 2138 391 
Q 2594 391 2855 752 
Q 3116 1113 3116 1747 
z
" transform="scale(0.015625)"/>
      <path id="DejaVuSans-53" d="M 3425 4513 
L 3425 3897 
Q 3066 4069 2747 4153 
Q 2428 4238 2131 4238 
Q 1616 4238 1336 4038 
Q 1056 3838 1056 3469 
Q 1056 3159 1242 3001 
Q 1428 2844 1947 2747 
L 2328 2669 
Q 3034 2534 3370 2195 
Q 3706 1856 3706 1288 
Q 3706 609 3251 259 
Q 2797 -91 1919 -91 
Q 1588 -91 1214 -16 
Q 841 59 441 206 
L 441 856 
Q 825 641 1194 531 
Q 1563 422 1919 422 
Q 2459 422 2753 634 
Q 3047 847 3047 1241 
Q 3047 1584 2836 1778 
Q 2625 1972 2144 2069 
L 1759 2144 
Q 1053 2284 737 2584 
Q 422 2884 422 3419 
Q 422 4038 858 4394 
Q 1294 4750 2059 4750 
Q 2388 4750 2728 4690 
Q 3069 4631 3425 4513 
z
" transform="scale(0.015625)"/>
      <path id="DejaVuSans-4d" d="M 628 4666 
L 1569 4666 
L 2759 1491 
L 3956 4666 
L 4897 4666 
L 4897 0 
L 4281 0 
L 4281 4097 
L 3078 897 
L 2444 897 
L 1241 4097 
L 1241 0 
L 628 0 
L 628 4666 
z
" transform="scale(0.015625)"/>
      <path id="DejaVuSans-61" d="M 2194 1759 
Q 1497 1759 1228 1600 
Q 959 1441 959 1056 
Q 959 750 1161 570 
Q 1363 391 1709 391 
Q 2188 391 2477 730 
Q 2766 1069 2766 1631 
L 2766 1759 
L 2194 1759 
z
M 3341 1997 
L 3341 0 
L 2766 0 
L 2766 531 
Q 2569 213 2275 61 
Q 1981 -91 1556 -91 
Q 1019 -91 701 211 
Q 384 513 384 1019 
Q 384 1609 779 1909 
Q 1175 2209 1959 2209 
L 2766 2209 
L 2766 2266 
Q 2766 2663 2505 2880 
Q 2244 3097 1772 3097 
Q 1472 3097 1187 3025 
Q 903 2953 641 2809 
L 641 3341 
Q 956 3463 1253 3523 
Q 1550 3584 1831 3584 
Q 2591 3584 2966 3190 
Q 3341 2797 3341 1997 
z
" transform="scale(0.015625)"/>
      <path id="DejaVuSans-64" d="M 2906 2969 
L 2906 4863 
L 3481 4863 
L 3481 0 
L 2906 0 
L 2906 525 
Q 2725 213 2448 61 
Q 2172 -91 1784 -91 
Q 1150 -91 751 415 
Q 353 922 353 1747 
Q 353 2572 751 3078 
Q 1150 3584 1784 3584 
Q 2172 3584 2448 3432 
Q 2725 3281 2906 2969 
z
M 947 1747 
Q 947 1113 1208 752 
Q 1469 391 1925 391 
Q 2381 391 2643 752 
Q 2906 1113 2906 1747 
Q 2906 2381 2643 2742 
Q 2381 3103 1925 3103 
Q 1469 3103 1208 2742 
Q 947 2381 947 1747 
z
" transform="scale(0.015625)"/>
      <path id="DejaVuSans-50" d="M 1259 4147 
L 1259 2394 
L 2053 2394 
Q 2494 2394 2734 2622 
Q 2975 2850 2975 3272 
Q 2975 3691 2734 3919 
Q 2494 4147 2053 4147 
L 1259 4147 
z
M 628 4666 
L 2053 4666 
Q 2838 4666 3239 4311 
Q 3641 3956 3641 3272 
Q 3641 2581 3239 2228 
Q 2838 1875 2053 1875 
L 1259 1875 
L 1259 0 
L 628 0 
L 628 4666 
z
" transform="scale(0.015625)"/>
      <path id="DejaVuSans-6c" d="M 603 4863 
L 1178 4863 
L 1178 0 
L 603 0 
L 603 4863 
z
" transform="scale(0.015625)"/>
      <path id="DejaVuSans-2c" d="M 750 794 
L 1409 794 
L 1409 256 
L 897 -744 
L 494 -744 
L 750 256 
L 750 794 
z
" transform="scale(0.015625)"/>
      <path id="DejaVuSans-79" d="M 2059 -325 
Q 1816 -950 1584 -1140 
Q 1353 -1331 966 -1331 
L 506 -1331 
L 506 -850 
L 844 -850 
Q 1081 -850 1212 -737 
Q 1344 -625 1503 -206 
L 1606 56 
L 191 3500 
L 800 3500 
L 1894 763 
L 2988 3500 
L 3597 3500 
L 2059 -325 
z
" transform="scale(0.015625)"/>
      <path id="DejaVuSans-2e" d="M 684 794 
L 1344 794 
L 1344 0 
L 684 0 
L 684 794 
z
" transform="scale(0.015625)"/>
      <path id="DejaVuSans-3a" d="M 750 794 
L 1409 794 
L 1409 0 
L 750 0 
L 750 794 
z
M 750 3309 
L 1409 3309 
L 1409 2516 
L 750 2516 
L 750 3309 
z
" transform="scale(0.015625)"/>
     </defs>
     <use xlink:href="#DejaVuSans-4e"/>
     <use xlink:href="#DejaVuSans-75" x="74.804688"/>
     <use xlink:href="#DejaVuSans-6d" x="138.183594"/>
     <use xlink:href="#DejaVuSans-62" x="235.595703"/>
     <use xlink:href="#DejaVuSans-65" x="299.072266"/>
     <use xlink:href="#DejaVuSans-72" x="360.595703"/>
     <use xlink:href="#DejaVuSans-20" x="401.708984"/>
     <use xlink:href="#DejaVuSans-6f" x="433.496094"/>
     <use xlink:href="#DejaVuSans-66" x="494.677734"/>
     <use xlink:href="#DejaVuSans-20" x="529.882812"/>
     <use xlink:href="#DejaVuSans-41" x="561.669922"/>
     <use xlink:href="#DejaVuSans-45" x="630.078125"/>
     <use xlink:href="#DejaVuSans-44" x="693.261719"/>
     <use xlink:href="#DejaVuSans-73" x="770.263672"/>
     <use xlink:href="#DejaVuSans-20" x="822.363281"/>
     <use xlink:href="#DejaVuSans-69" x="854.150391"/>
     <use xlink:href="#DejaVuSans-6e" x="881.933594"/>
     <use xlink:href="#DejaVuSans-20" x="945.3125"/>
     <use xlink:href="#DejaVuSans-74" x="977.099609"/>
     <use xlink:href="#DejaVuSans-68" x="1016.308594"/>
     <use xlink:href="#DejaVuSans-65" x="1079.6875"/>
     <use xlink:href="#DejaVuSans-20" x="1141.210938"/>
     <use xlink:href="#DejaVuSans-4f" x="1172.998047"/>
     <use xlink:href="#DejaVuSans-70" x="1251.708984"/>
     <use xlink:href="#DejaVuSans-65" x="1315.185547"/>
     <use xlink:href="#DejaVuSans-6e" x="1376.708984"/>
     <use xlink:href="#DejaVuSans-53" x="1440.087891"/>
     <use xlink:href="#DejaVuSans-74" x="1503.564453"/>
     <use xlink:href="#DejaVuSans-72" x="1542.773438"/>
     <use xlink:href="#DejaVuSans-65" x="1581.636719"/>
     <use xlink:href="#DejaVuSans-65" x="1643.160156"/>
     <use xlink:href="#DejaVuSans-74" x="1704.683594"/>
     <use xlink:href="#DejaVuSans-4d" x="1743.892578"/>
     <use xlink:href="#DejaVuSans-61" x="1830.171875"/>
     <use xlink:href="#DejaVuSans-70" x="1891.451172"/>
     <use xlink:href="#DejaVuSans-20" x="1954.927734"/>
     <use xlink:href="#DejaVuSans-64" x="1986.714844"/>
     <use xlink:href="#DejaVuSans-61" x="2050.191406"/>
     <use xlink:href="#DejaVuSans-74" x="2111.470703"/>
     <use xlink:href="#DejaVuSans-61" x="2150.679688"/>
     <use xlink:href="#DejaVuSans-62" x="2211.958984"/>
     <use xlink:href="#DejaVuSans-61" x="2275.435547"/>
     <use xlink:href="#DejaVuSans-73" x="2336.714844"/>
     <use xlink:href="#DejaVuSans-65" x="2388.814453"/>
     <use xlink:href="#DejaVuSans-20" x="2450.337891"/>
     <use xlink:href="#DejaVuSans-69" x="2482.125"/>
     <use xlink:href="#DejaVuSans-6e" x="2509.908203"/>
     <use xlink:href="#DejaVuSans-20" x="2573.287109"/>
     <use xlink:href="#DejaVuSans-50" x="2605.074219"/>
     <use xlink:href="#DejaVuSans-6f" x="2661.751953"/>
     <use xlink:href="#DejaVuSans-6c" x="2722.933594"/>
     <use xlink:href="#DejaVuSans-61" x="2750.716797"/>
     <use xlink:href="#DejaVuSans-6e" x="2811.996094"/>
     <use xlink:href="#DejaVuSans-64" x="2875.375"/>
     <use xlink:href="#DejaVuSans-20" x="2938.851562"/>
     <use xlink:href="#DejaVuSans-66" x="2970.638672"/>
     <use xlink:href="#DejaVuSans-72" x="3005.84375"/>
     <use xlink:href="#DejaVuSans-6f" x="3044.707031"/>
     <use xlink:href="#DejaVuSans-6d" x="3105.888672"/>
     <use xlink:href="#DejaVuSans-20" x="3203.300781"/>
     <use xlink:href="#DejaVuSans-32" x="3235.087891"/>
     <use xlink:href="#DejaVuSans-30" x="3298.710938"/>
     <use xlink:href="#DejaVuSans-32" x="3362.333984"/>
     <use xlink:href="#DejaVuSans-35" x="3425.957031"/>
     <use xlink:href="#DejaVuSans-2d" x="3489.580078"/>
     <use xlink:href="#DejaVuSans-30" x="3525.664062"/>
     <use xlink:href="#DejaVuSans-31" x="3589.287109"/>
     <use xlink:href="#DejaVuSans-2d" x="3652.910156"/>
     <use xlink:href="#DejaVuSans-30" x="3688.994141"/>
     <use xlink:href="#DejaVuSans-31" x="3752.617188"/>
     <use xlink:href="#DejaVuSans-2c" x="3816.240234"/>
     <use xlink:href="#DejaVuSans-20" x="3848.027344"/>
     <use xlink:href="#DejaVuSans-64" x="3879.814453"/>
     <use xlink:href="#DejaVuSans-61" x="3943.291016"/>
     <use xlink:href="#DejaVuSans-79" x="4004.570312"/>
     <use xlink:href="#DejaVuSans-20" x="4063.75"/>
     <use xlink:href="#DejaVuSans-62" x="4095.537109"/>
     <use xlink:href="#DejaVuSans-79" x="4159.013672"/>
     <use xlink:href="#DejaVuSans-20" x="4218.193359"/>
     <use xlink:href="#DejaVuSans-64" x="4249.980469"/>
     <use xlink:href="#DejaVuSans-61" x="4313.457031"/>
     <use xlink:href="#DejaVuSans-79" x="4374.736328"/>
     <use xlink:href="#DejaVuSans-2e" x="4419.666016"/>
     <use xlink:href="#DejaVuSans-20" x="4451.453125"/>
     <use xlink:href="#DejaVuSans-41" x="4483.240234"/>
     <use xlink:href="#DejaVuSans-73" x="4551.648438"/>
     <use xlink:href="#DejaVuSans-20" x="4603.748047"/>
     <use xlink:href="#DejaVuSans-61" x="4635.535156"/>
     <use xlink:href="#DejaVuSans-74" x="4696.814453"/>
     <use xlink:href="#DejaVuSans-3a" x="4736.023438"/>
     <use xlink:href="#DejaVuSans-20" x="4769.714844"/>
     <use xlink:href="#DejaVuSans-32" x="4801.501953"/>
     <use xlink:href="#DejaVuSans-30" x="4865.125"/>
     <use xlink:href="#DejaVuSans-32" x="4928.748047"/>
     <use xlink:href="#DejaVuSans-35" x="4992.371094"/>
     <use xlink:href="#DejaVuSans-2d" x="5055.994141"/>
     <use xlink:href="#DejaVuSans-30" x="5092.078125"/>
     <use xlink:href="#DejaVuSans-32" x="5155.701172"/>
     <use xlink:href="#DejaVuSans-2d" x="5219.324219"/>
     <use xlink:href="#DejaVuSans-30" x="5255.408203"/>
     <use xlink:href="#DejaVuSans-36" x="5319.03125"/>
    </g>
   </g>
  </g>
 </g>
 <defs>
  <clipPath id="p63658c196d">
   <rect x="144" y="69.12" width="892.8" height="443.52"/>
  </clipPath>
 </defs>
</svg>
