<?xml version="1.0" encoding="utf-8" standalone="no"?>
<!DOCTYPE svg PUBLIC "-//W3C//DTD SVG 1.1//EN"
  "http://www.w3.org/Graphics/SVG/1.1/DTD/svg11.dtd">
<svg xmlns:xlink="http://www.w3.org/1999/xlink" width="1152pt" height="576pt" viewBox="0 0 1152 576" xmlns="http://www.w3.org/2000/svg" version="1.1">
 <metadata>
  <rdf:RDF xmlns:dc="http://purl.org/dc/elements/1.1/" xmlns:cc="http://creativecommons.org/ns#" xmlns:rdf="http://www.w3.org/1999/02/22-rdf-syntax-ns#">
   <cc:Work>
    <dc:type rdf:resource="http://purl.org/dc/dcmitype/StillImage"/>
    <dc:date>1980-01-01T00:00:00+00:00</dc:date>
    <dc:format>image/svg+xml</dc:format>
    <dc:creator>
     <cc:Agent>
      <dc:title>Matplotlib v3.9.1, https://matplotlib.org/</dc:title>
     </cc:Agent>
    </dc:creator>
   </cc:Work>
  </rdf:RDF>
 </metadata>
 <defs>
  <style type="text/css">*{stroke-linejoin: round; stroke-linecap: butt}</style>
 </defs>
 <g id="figure_1">
  <g id="patch_1">
   <path d="M 0 576 
L 1152 576 
L 1152 0 
L 0 0 
z
" style="fill: #ffffff"/>
  </g>
  <g id="axes_1">
   <g id="patch_2">
    <path d="M 144 512.64 
L 1036.8 512.64 
L 1036.8 69.12 
L 144 69.12 
z
" style="fill: #ffffff"/>
   </g>
   <g id="PathCollection_1">
    <path d="M 184.581818 496.352983 
C 185.608945 496.352983 186.594142 495.944901 187.320431 495.218613 
C 188.04672 494.492324 188.454802 493.507127 188.454802 492.48 
C 188.454802 491.452873 188.04672 490.467676 187.320431 489.741387 
C 186.594142 489.015099 185.608945 488.607017 184.581818 488.607017 
C 183.554691 488.607017 182.569494 489.015099 181.843205 489.741387 
C 181.116917 490.467676 180.708835 491.452873 180.708835 492.48 
C 180.708835 493.507127 181.116917 494.492324 181.843205 495.218613 
C 182.569494 495.944901 183.554691 496.352983 184.581818 496.352983 
z
" clip-path="url(#pbdad184b12)" style="fill: #1f77b4; fill-opacity: 0.3; stroke: #1f77b4; stroke-opacity: 0.3"/>
    <path d="M 198.109091 493.92938 
C 199.838004 493.92938 201.496337 493.242476 202.718863 492.01995 
C 203.941389 490.797424 204.628293 489.13909 204.628293 487.410178 
C 204.628293 485.681265 203.941389 484.022931 202.718863 482.800405 
C 201.496337 481.577879 199.838004 480.890975 198.109091 480.890975 
C 196.380178 480.890975 194.721845 481.577879 193.499319 482.800405 
C 192.276793 484.022931 191.589889 485.681265 191.589889 487.410178 
C 191.589889 489.13909 192.276793 490.797424 193.499319 492.01995 
C 194.721845 493.242476 196.380178 493.92938 198.109091 493.92938 
z
" clip-path="url(#pbdad184b12)" style="fill: #1f77b4; fill-opacity: 0.3; stroke: #1f77b4; stroke-opacity: 0.3"/>
    <path d="M 211.636364 487.426482 
C 213.855212 487.426482 215.983481 486.544924 217.552443 484.975961 
C 219.121406 483.406999 220.002964 481.27873 220.002964 479.059882 
C 220.002964 476.841033 219.121406 474.712765 217.552443 473.143802 
C 215.983481 471.574839 213.855212 470.693281 211.636364 470.693281 
C 209.417515 470.693281 207.289247 471.574839 205.720284 473.143802 
C 204.151321 474.712765 203.269763 476.841033 203.269763 479.059882 
C 203.269763 481.27873 204.151321 483.406999 205.720284 484.975961 
C 207.289247 486.544924 209.417515 487.426482 211.636364 487.426482 
z
" clip-path="url(#pbdad184b12)" style="fill: #1f77b4; fill-opacity: 0.3; stroke: #1f77b4; stroke-opacity: 0.3"/>
    <path d="M 225.163636 481.023453 
C 226.554373 481.023453 227.888336 480.470907 228.871736 479.487508 
C 229.855135 478.504108 230.407681 477.170145 230.407681 475.779408 
C 230.407681 474.388671 229.855135 473.054708 228.871736 472.071309 
C 227.888336 471.08791 226.554373 470.535364 225.163636 470.535364 
C 223.7729 470.535364 222.438937 471.08791 221.455537 472.071309 
C 220.472138 473.054708 219.919592 474.388671 219.919592 475.779408 
C 219.919592 477.170145 220.472138 478.504108 221.455537 479.487508 
C 222.438937 480.470907 223.7729 481.023453 225.163636 481.023453 
z
" clip-path="url(#pbdad184b12)" style="fill: #1f77b4; fill-opacity: 0.3; stroke: #1f77b4; stroke-opacity: 0.3"/>
    <path d="M 238.690909 477.823818 
C 239.628544 477.823818 240.527901 477.451292 241.190909 476.788284 
C 241.853917 476.125276 242.226443 475.225919 242.226443 474.288284 
C 242.226443 473.350649 241.853917 472.451292 241.190909 471.788284 
C 240.527901 471.125276 239.628544 470.75275 238.690909 470.75275 
C 237.753275 470.75275 236.853917 471.125276 236.190909 471.788284 
C 235.527901 472.451292 235.155375 473.350649 235.155375 474.288284 
C 235.155375 475.225919 235.527901 476.125276 236.190909 476.788284 
C 236.853917 477.451292 237.753275 477.823818 238.690909 477.823818 
z
" clip-path="url(#pbdad184b12)" style="fill: #1f77b4; fill-opacity: 0.3; stroke: #1f77b4; stroke-opacity: 0.3"/>
    <path d="M 252.218182 475.737664 
C 253.947095 475.737664 255.605428 475.05076 256.827954 473.828234 
C 258.05048 472.605708 258.737384 470.947374 258.737384 469.218462 
C 258.737384 467.489549 258.05048 465.831215 256.827954 464.608689 
C 255.605428 463.386163 253.947095 462.699259 252.218182 462.699259 
C 250.489269 462.699259 248.830935 463.386163 247.60841 464.608689 
C 246.385884 465.831215 245.698979 467.489549 245.698979 469.218462 
C 245.698979 470.947374 246.385884 472.605708 247.60841 473.828234 
C 248.830935 475.05076 250.489269 475.737664 252.218182 475.737664 
z
" clip-path="url(#pbdad184b12)" style="fill: #1f77b4; fill-opacity: 0.3; stroke: #1f77b4; stroke-opacity: 0.3"/>
    <path d="M 265.745455 470.771419 
C 267.422746 470.771419 269.031566 470.105024 270.217591 468.919 
C 271.403615 467.732976 272.07001 466.124156 272.07001 464.446864 
C 272.07001 462.769572 271.403615 461.160752 270.217591 459.974728 
C 269.031566 458.788704 267.422746 458.122309 265.745455 458.122309 
C 264.068163 458.122309 262.459343 458.788704 261.273319 459.974728 
C 260.087294 461.160752 259.420899 462.769572 259.420899 464.446864 
C 259.420899 466.124156 260.087294 467.732976 261.273319 468.919 
C 262.459343 470.105024 264.068163 470.771419 265.745455 470.771419 
z
" clip-path="url(#pbdad184b12)" style="fill: #1f77b4; fill-opacity: 0.3; stroke: #1f77b4; stroke-opacity: 0.3"/>
    <path d="M 279.272727 462.690304 
C 281.891398 462.690304 284.403167 461.649895 286.254847 459.798215 
C 288.106527 457.946535 289.146936 455.434765 289.146936 452.816095 
C 289.146936 450.197424 288.106527 447.685655 286.254847 445.833975 
C 284.403167 443.982295 281.891398 442.941886 279.272727 442.941886 
C 276.654056 442.941886 274.142287 443.982295 272.290607 445.833975 
C 270.438927 447.685655 269.398518 450.197424 269.398518 452.816095 
C 269.398518 455.434765 270.438927 457.946535 272.290607 459.798215 
C 274.142287 461.649895 276.654056 462.690304 279.272727 462.690304 
z
" clip-path="url(#pbdad184b12)" style="fill: #1f77b4; fill-opacity: 0.3; stroke: #1f77b4; stroke-opacity: 0.3"/>
    <path d="M 292.8 453.922665 
C 294.675269 453.922665 296.473985 453.177613 297.8 451.851598 
C 299.126016 450.525582 299.871068 448.726867 299.871068 446.851598 
C 299.871068 444.976329 299.126016 443.177613 297.8 441.851598 
C 296.473985 440.525582 294.675269 439.78053 292.8 439.78053 
C 290.924731 439.78053 289.126016 440.525582 287.8 441.851598 
C 286.473985 443.177613 285.728932 444.976329 285.728932 446.851598 
C 285.728932 448.726867 286.473985 450.525582 287.8 451.851598 
C 289.126016 453.177613 290.924731 453.922665 292.8 453.922665 
z
" clip-path="url(#pbdad184b12)" style="fill: #1f77b4; fill-opacity: 0.3; stroke: #1f77b4; stroke-opacity: 0.3"/>
    <path d="M 306.327273 448.869349 
C 307.653288 448.869349 308.925172 448.342518 309.862807 447.404883 
C 310.800441 446.467248 311.327273 445.195365 311.327273 443.869349 
C 311.327273 442.543334 310.800441 441.27145 309.862807 440.333815 
C 308.925172 439.396181 307.653288 438.869349 306.327273 438.869349 
C 305.001257 438.869349 303.729373 439.396181 302.791739 440.333815 
C 301.854104 441.27145 301.327273 442.543334 301.327273 443.869349 
C 301.327273 445.195365 301.854104 446.467248 302.791739 447.404883 
C 303.729373 448.342518 305.001257 448.869349 306.327273 448.869349 
z
" clip-path="url(#pbdad184b12)" style="fill: #1f77b4; fill-opacity: 0.3; stroke: #1f77b4; stroke-opacity: 0.3"/>
    <path d="M 319.854545 445.508967 
C 320.447558 445.508967 321.016361 445.273361 321.435684 444.854038 
C 321.855007 444.434715 322.090613 443.865912 322.090613 443.272899 
C 322.090613 442.679887 321.855007 442.111083 321.435684 441.691761 
C 321.016361 441.272438 320.447558 441.036831 319.854545 441.036831 
C 319.261533 441.036831 318.69273 441.272438 318.273407 441.691761 
C 317.854084 442.111083 317.618477 442.679887 317.618477 443.272899 
C 317.618477 443.865912 317.854084 444.434715 318.273407 444.854038 
C 318.69273 445.273361 319.261533 445.508967 319.854545 445.508967 
z
" clip-path="url(#pbdad184b12)" style="fill: #1f77b4; fill-opacity: 0.3; stroke: #1f77b4; stroke-opacity: 0.3"/>
    <path d="M 333.381818 441.343905 
C 336.033849 441.343905 338.577617 440.290242 340.452886 438.414973 
C 342.328155 436.539704 343.381818 433.995936 343.381818 431.343905 
C 343.381818 428.691874 342.328155 426.148107 340.452886 424.272838 
C 338.577617 422.397568 336.033849 421.343905 333.381818 421.343905 
C 330.729787 421.343905 328.186019 422.397568 326.31075 424.272838 
C 324.435481 426.148107 323.381818 428.691874 323.381818 431.343905 
C 323.381818 433.995936 324.435481 436.539704 326.31075 438.414973 
C 328.186019 440.290242 330.729787 441.343905 333.381818 441.343905 
z
" clip-path="url(#pbdad184b12)" style="fill: #1f77b4; fill-opacity: 0.3; stroke: #1f77b4; stroke-opacity: 0.3"/>
    <path d="M 346.909091 431.793978 
C 349.005706 431.793978 351.01673 430.960984 352.499261 429.478454 
C 353.981791 427.995924 354.814785 425.984899 354.814785 423.888284 
C 354.814785 421.791669 353.981791 419.780644 352.499261 418.298114 
C 351.01673 416.815584 349.005706 415.98259 346.909091 415.98259 
C 344.812476 415.98259 342.801451 416.815584 341.318921 418.298114 
C 339.836391 419.780644 339.003397 421.791669 339.003397 423.888284 
C 339.003397 425.984899 339.836391 427.995924 341.318921 429.478454 
C 342.801451 430.960984 344.812476 431.793978 346.909091 431.793978 
z
" clip-path="url(#pbdad184b12)" style="fill: #1f77b4; fill-opacity: 0.3; stroke: #1f77b4; stroke-opacity: 0.3"/>
    <path d="M 360.436364 425.712238 
C 361.948254 425.712238 363.398425 425.111558 364.467493 424.04249 
C 365.53656 422.973422 366.137241 421.523251 366.137241 420.011361 
C 366.137241 418.499471 365.53656 417.0493 364.467493 415.980232 
C 363.398425 414.911164 361.948254 414.310484 360.436364 414.310484 
C 358.924473 414.310484 357.474303 414.911164 356.405235 415.980232 
C 355.336167 417.0493 354.735487 418.499471 354.735487 420.011361 
C 354.735487 421.523251 355.336167 422.973422 356.405235 424.04249 
C 357.474303 425.111558 358.924473 425.712238 360.436364 425.712238 
z
" clip-path="url(#pbdad184b12)" style="fill: #1f77b4; fill-opacity: 0.3; stroke: #1f77b4; stroke-opacity: 0.3"/>
    <path d="M 373.963636 419.412438 
C 376.335685 419.412438 378.6109 418.470013 380.288192 416.792721 
C 381.965483 415.115429 382.907908 412.840214 382.907908 410.468166 
C 382.907908 408.096117 381.965483 405.820902 380.288192 404.14361 
C 378.6109 402.466319 376.335685 401.523894 373.963636 401.523894 
C 371.591588 401.523894 369.316373 402.466319 367.639081 404.14361 
C 365.961789 405.820902 365.019364 408.096117 365.019364 410.468166 
C 365.019364 412.840214 365.961789 415.115429 367.639081 416.792721 
C 369.316373 418.470013 371.591588 419.412438 373.963636 419.412438 
z
" clip-path="url(#pbdad184b12)" style="fill: #1f77b4; fill-opacity: 0.3; stroke: #1f77b4; stroke-opacity: 0.3"/>
    <path d="M 387.490909 408.012718 
C 390.240593 408.012718 392.878028 406.920257 394.822348 404.975936 
C 396.766669 403.031616 397.85913 400.394181 397.85913 397.644497 
C 397.85913 394.894813 396.766669 392.257378 394.822348 390.313058 
C 392.878028 388.368738 390.240593 387.276276 387.490909 387.276276 
C 384.741225 387.276276 382.10379 388.368738 380.15947 390.313058 
C 378.21515 392.257378 377.122688 394.894813 377.122688 397.644497 
C 377.122688 400.394181 378.21515 403.031616 380.15947 404.975936 
C 382.10379 406.920257 384.741225 408.012718 387.490909 408.012718 
z
" clip-path="url(#pbdad184b12)" style="fill: #1f77b4; fill-opacity: 0.3; stroke: #1f77b4; stroke-opacity: 0.3"/>
    <path d="M 401.018182 399.613875 
C 401.856828 399.613875 402.661238 399.280678 403.25425 398.687666 
C 403.847262 398.094653 404.180459 397.290243 404.180459 396.451598 
C 404.180459 395.612952 403.847262 394.808542 403.25425 394.21553 
C 402.661238 393.622517 401.856828 393.28932 401.018182 393.28932 
C 400.179536 393.28932 399.375126 393.622517 398.782114 394.21553 
C 398.189102 394.808542 397.855904 395.612952 397.855904 396.451598 
C 397.855904 397.290243 398.189102 398.094653 398.782114 398.687666 
C 399.375126 399.280678 400.179536 399.613875 401.018182 399.613875 
z
" clip-path="url(#pbdad184b12)" style="fill: #1f77b4; fill-opacity: 0.3; stroke: #1f77b4; stroke-opacity: 0.3"/>
    <path d="M 414.545455 398.415169 
C 415.936191 398.415169 417.270154 397.862623 418.253554 396.879224 
C 419.236953 395.895824 419.789499 394.561861 419.789499 393.171124 
C 419.789499 391.780387 419.236953 390.446424 418.253554 389.463025 
C 417.270154 388.479626 415.936191 387.92708 414.545455 387.92708 
C 413.154718 387.92708 411.820755 388.479626 410.837355 389.463025 
C 409.853956 390.446424 409.30141 391.780387 409.30141 393.171124 
C 409.30141 394.561861 409.853956 395.895824 410.837355 396.879224 
C 411.820755 397.862623 413.154718 398.415169 414.545455 398.415169 
z
" clip-path="url(#pbdad184b12)" style="fill: #1f77b4; fill-opacity: 0.3; stroke: #1f77b4; stroke-opacity: 0.3"/>
    <path d="M 428.072727 393.334892 
C 430.251593 393.334892 432.341512 392.469219 433.882202 390.928528 
C 435.422893 389.387837 436.288566 387.297919 436.288566 385.119053 
C 436.288566 382.940187 435.422893 380.850269 433.882202 379.309578 
C 432.341512 377.768887 430.251593 376.903215 428.072727 376.903215 
C 425.893861 376.903215 423.803943 377.768887 422.263252 379.309578 
C 420.722561 380.850269 419.856889 382.940187 419.856889 385.119053 
C 419.856889 387.297919 420.722561 389.387837 422.263252 390.928528 
C 423.803943 392.469219 425.893861 393.334892 428.072727 393.334892 
z
" clip-path="url(#pbdad184b12)" style="fill: #1f77b4; fill-opacity: 0.3; stroke: #1f77b4; stroke-opacity: 0.3"/>
    <path d="M 441.6 387.017581 
C 443.052577 387.017581 444.445856 386.440466 445.472983 385.413338 
C 446.500111 384.386211 447.077226 382.992932 447.077226 381.540355 
C 447.077226 380.087778 446.500111 378.694499 445.472983 377.667372 
C 444.445856 376.640244 443.052577 376.063129 441.6 376.063129 
C 440.147423 376.063129 438.754144 376.640244 437.727017 377.667372 
C 436.699889 378.694499 436.122774 380.087778 436.122774 381.540355 
C 436.122774 382.992932 436.699889 384.386211 437.727017 385.413338 
C 438.754144 386.440466 440.147423 387.017581 441.6 387.017581 
z
" clip-path="url(#pbdad184b12)" style="fill: #1f77b4; fill-opacity: 0.3; stroke: #1f77b4; stroke-opacity: 0.3"/>
    <path d="M 455.127273 377.809452 
C 458.092334 377.809452 460.936352 376.631421 463.032967 374.534807 
C 465.129581 372.438192 466.307613 369.594173 466.307613 366.629112 
C 466.307613 363.664052 465.129581 360.820033 463.032967 358.723418 
C 460.936352 356.626804 458.092334 355.448773 455.127273 355.448773 
C 452.162212 355.448773 449.318193 356.626804 447.221579 358.723418 
C 445.124964 360.820033 443.946933 363.664052 443.946933 366.629112 
C 443.946933 369.594173 445.124964 372.438192 447.221579 374.534807 
C 449.318193 376.631421 452.162212 377.809452 455.127273 377.809452 
z
" clip-path="url(#pbdad184b12)" style="fill: #1f77b4; fill-opacity: 0.3; stroke: #1f77b4; stroke-opacity: 0.3"/>
    <path d="M 468.654545 366.79288 
C 470.833411 366.79288 472.92333 365.927207 474.46402 364.386516 
C 476.004711 362.845826 476.870384 360.755907 476.870384 358.577041 
C 476.870384 356.398176 476.004711 354.308257 474.46402 352.767566 
C 472.92333 351.226876 470.833411 350.361203 468.654545 350.361203 
C 466.47568 350.361203 464.385761 351.226876 462.84507 352.767566 
C 461.30438 354.308257 460.438707 356.398176 460.438707 358.577041 
C 460.438707 360.755907 461.30438 362.845826 462.84507 364.386516 
C 464.385761 365.927207 466.47568 366.79288 468.654545 366.79288 
z
" clip-path="url(#pbdad184b12)" style="fill: #1f77b4; fill-opacity: 0.3; stroke: #1f77b4; stroke-opacity: 0.3"/>
    <path d="M 482.181818 359.165612 
C 484.236073 359.165612 486.206467 358.349448 487.659044 356.896871 
C 489.111621 355.444293 489.927785 353.473899 489.927785 351.419645 
C 489.927785 349.365391 489.111621 347.394997 487.659044 345.942419 
C 486.206467 344.489842 484.236073 343.673678 482.181818 343.673678 
C 480.127564 343.673678 478.15717 344.489842 476.704593 345.942419 
C 475.252015 347.394997 474.435851 349.365391 474.435851 351.419645 
C 474.435851 353.473899 475.252015 355.444293 476.704593 356.896871 
C 478.15717 358.349448 480.127564 359.165612 482.181818 359.165612 
z
" clip-path="url(#pbdad184b12)" style="fill: #1f77b4; fill-opacity: 0.3; stroke: #1f77b4; stroke-opacity: 0.3"/>
    <path d="M 495.709091 351.285817 
C 497.967214 351.285817 500.133154 350.388656 501.729888 348.791922 
C 503.326622 347.195187 504.223784 345.029247 504.223784 342.771124 
C 504.223784 340.513001 503.326622 338.347061 501.729888 336.750327 
C 500.133154 335.153593 497.967214 334.256431 495.709091 334.256431 
C 493.450968 334.256431 491.285028 335.153593 489.688294 336.750327 
C 488.09156 338.347061 487.194398 340.513001 487.194398 342.771124 
C 487.194398 345.029247 488.09156 347.195187 489.688294 348.791922 
C 491.285028 350.388656 493.450968 351.285817 495.709091 351.285817 
z
" clip-path="url(#pbdad184b12)" style="fill: #1f77b4; fill-opacity: 0.3; stroke: #1f77b4; stroke-opacity: 0.3"/>
    <path d="M 509.236364 344.740503 
C 510.075009 344.740503 510.879419 344.407305 511.472432 343.814293 
C 512.065444 343.221281 512.398641 342.416871 512.398641 341.578225 
C 512.398641 340.739579 512.065444 339.935169 511.472432 339.342157 
C 510.879419 338.749145 510.075009 338.415947 509.236364 338.415947 
C 508.397718 338.415947 507.593308 338.749145 507.000296 339.342157 
C 506.407283 339.935169 506.074086 340.739579 506.074086 341.578225 
C 506.074086 342.416871 506.407283 343.221281 507.000296 343.814293 
C 507.593308 344.407305 508.397718 344.740503 509.236364 344.740503 
z
" clip-path="url(#pbdad184b12)" style="fill: #1f77b4; fill-opacity: 0.3; stroke: #1f77b4; stroke-opacity: 0.3"/>
    <path d="M 522.763636 343.547603 
C 523.602282 343.547603 524.406692 343.214406 524.999704 342.621393 
C 525.592717 342.028381 525.925914 341.223971 525.925914 340.385325 
C 525.925914 339.54668 525.592717 338.74227 524.999704 338.149257 
C 524.406692 337.556245 523.602282 337.223048 522.763636 337.223048 
C 521.924991 337.223048 521.120581 337.556245 520.527568 338.149257 
C 519.934556 338.74227 519.601359 339.54668 519.601359 340.385325 
C 519.601359 341.223971 519.934556 342.028381 520.527568 342.621393 
C 521.120581 343.214406 521.924991 343.547603 522.763636 343.547603 
z
" clip-path="url(#pbdad184b12)" style="fill: #1f77b4; fill-opacity: 0.3; stroke: #1f77b4; stroke-opacity: 0.3"/>
    <path d="M 536.290909 338.968698 
C 538.841551 338.968698 541.288068 337.955317 543.091644 336.151741 
C 544.89522 334.348165 545.908601 331.901648 545.908601 329.351006 
C 545.908601 326.800364 544.89522 324.353847 543.091644 322.550271 
C 541.288068 320.746695 538.841551 319.733314 536.290909 319.733314 
C 533.740267 319.733314 531.29375 320.746695 529.490174 322.550271 
C 527.686598 324.353847 526.673217 326.800364 526.673217 329.351006 
C 526.673217 331.901648 527.686598 334.348165 529.490174 336.151741 
C 531.29375 337.955317 533.740267 338.968698 536.290909 338.968698 
z
" clip-path="url(#pbdad184b12)" style="fill: #1f77b4; fill-opacity: 0.3; stroke: #1f77b4; stroke-opacity: 0.3"/>
    <path d="M 549.818182 325.433128 
C 552.812746 325.433128 555.685065 324.243375 557.802542 322.125898 
C 559.920018 320.008421 561.109772 317.136103 561.109772 314.141538 
C 561.109772 311.146974 559.920018 308.274656 557.802542 306.157179 
C 555.685065 304.039702 552.812746 302.849949 549.818182 302.849949 
C 546.823617 302.849949 543.951299 304.039702 541.833822 306.157179 
C 539.716345 308.274656 538.526592 311.146974 538.526592 314.141538 
C 538.526592 317.136103 539.716345 320.008421 541.833822 322.125898 
C 543.951299 324.243375 546.823617 325.433128 549.818182 325.433128 
z
" clip-path="url(#pbdad184b12)" style="fill: #1f77b4; fill-opacity: 0.3; stroke: #1f77b4; stroke-opacity: 0.3"/>
    <path d="M 563.345455 313.383069 
C 565.754281 313.383069 568.064773 312.426032 569.768071 310.722735 
C 571.471369 309.019437 572.428406 306.708945 572.428406 304.300118 
C 572.428406 301.891292 571.471369 299.5808 569.768071 297.877502 
C 568.064773 296.174204 565.754281 295.217167 563.345455 295.217167 
C 560.936628 295.217167 558.626136 296.174204 556.922838 297.877502 
C 555.219541 299.5808 554.262503 301.891292 554.262503 304.300118 
C 554.262503 306.708945 555.219541 309.019437 556.922838 310.722735 
C 558.626136 312.426032 560.936628 313.383069 563.345455 313.383069 
z
" clip-path="url(#pbdad184b12)" style="fill: #1f77b4; fill-opacity: 0.3; stroke: #1f77b4; stroke-opacity: 0.3"/>
    <path d="M 576.872727 304.463886 
C 579.051593 304.463886 581.141512 303.598213 582.682202 302.057522 
C 584.222893 300.516832 585.088566 298.426913 585.088566 296.248047 
C 585.088566 294.069182 584.222893 291.979263 582.682202 290.438572 
C 581.141512 288.897882 579.051593 288.032209 576.872727 288.032209 
C 574.693861 288.032209 572.603943 288.897882 571.063252 290.438572 
C 569.522561 291.979263 568.656889 294.069182 568.656889 296.248047 
C 568.656889 298.426913 569.522561 300.516832 571.063252 302.057522 
C 572.603943 303.598213 574.693861 304.463886 576.872727 304.463886 
z
" clip-path="url(#pbdad184b12)" style="fill: #1f77b4; fill-opacity: 0.3; stroke: #1f77b4; stroke-opacity: 0.3"/>
    <path d="M 590.4 298.217426 
C 591.238646 298.217426 592.043056 297.884228 592.636068 297.291216 
C 593.22908 296.698204 593.562278 295.893794 593.562278 295.055148 
C 593.562278 294.216502 593.22908 293.412092 592.636068 292.81908 
C 592.043056 292.226068 591.238646 291.89287 590.4 291.89287 
C 589.561354 291.89287 588.756944 292.226068 588.163932 292.81908 
C 587.57092 293.412092 587.237722 294.216502 587.237722 295.055148 
C 587.237722 295.893794 587.57092 296.698204 588.163932 297.291216 
C 588.756944 297.884228 589.561354 298.217426 590.4 298.217426 
z
" clip-path="url(#pbdad184b12)" style="fill: #1f77b4; fill-opacity: 0.3; stroke: #1f77b4; stroke-opacity: 0.3"/>
    <path d="M 603.927273 297.018719 
C 605.31801 297.018719 606.651973 296.466173 607.635372 295.482774 
C 608.618771 294.499374 609.171317 293.165411 609.171317 291.774675 
C 609.171317 290.383938 608.618771 289.049975 607.635372 288.066575 
C 606.651973 287.083176 605.31801 286.53063 603.927273 286.53063 
C 602.536536 286.53063 601.202573 287.083176 600.219173 288.066575 
C 599.235774 289.049975 598.683228 290.383938 598.683228 291.774675 
C 598.683228 293.165411 599.235774 294.499374 600.219173 295.482774 
C 601.202573 296.466173 602.536536 297.018719 603.927273 297.018719 
z
" clip-path="url(#pbdad184b12)" style="fill: #1f77b4; fill-opacity: 0.3; stroke: #1f77b4; stroke-opacity: 0.3"/>
    <path d="M 617.454545 292.881245 
C 619.329815 292.881245 621.12853 292.136193 622.454545 290.810178 
C 623.780561 289.484162 624.525613 287.685447 624.525613 285.810178 
C 624.525613 283.934908 623.780561 282.136193 622.454545 280.810178 
C 621.12853 279.484162 619.329815 278.73911 617.454545 278.73911 
C 615.579276 278.73911 613.780561 279.484162 612.454545 280.810178 
C 611.12853 282.136193 610.383478 283.934908 610.383478 285.810178 
C 610.383478 287.685447 611.12853 289.484162 612.454545 290.810178 
C 613.780561 292.136193 615.579276 292.881245 617.454545 292.881245 
z
" clip-path="url(#pbdad184b12)" style="fill: #1f77b4; fill-opacity: 0.3; stroke: #1f77b4; stroke-opacity: 0.3"/>
    <path d="M 630.981818 286.26025 
C 633.078433 286.26025 635.089458 285.427257 636.571988 283.944726 
C 638.054519 282.462196 638.887512 280.451171 638.887512 278.354556 
C 638.887512 276.257942 638.054519 274.246917 636.571988 272.764386 
C 635.089458 271.281856 633.078433 270.448862 630.981818 270.448862 
C 628.885204 270.448862 626.874179 271.281856 625.391648 272.764386 
C 623.909118 274.246917 623.076124 276.257942 623.076124 278.354556 
C 623.076124 280.451171 623.909118 282.462196 625.391648 283.944726 
C 626.874179 285.427257 628.885204 286.26025 630.981818 286.26025 
z
" clip-path="url(#pbdad184b12)" style="fill: #1f77b4; fill-opacity: 0.3; stroke: #1f77b4; stroke-opacity: 0.3"/>
    <path d="M 644.509091 280.440893 
C 645.695115 280.440893 646.832723 279.969681 647.671369 279.131035 
C 648.510014 278.292389 648.981227 277.154782 648.981227 275.968757 
C 648.981227 274.782733 648.510014 273.645126 647.671369 272.80648 
C 646.832723 271.967834 645.695115 271.496621 644.509091 271.496621 
C 643.323067 271.496621 642.185459 271.967834 641.346813 272.80648 
C 640.508167 273.645126 640.036955 274.782733 640.036955 275.968757 
C 640.036955 277.154782 640.508167 278.292389 641.346813 279.131035 
C 642.185459 279.969681 643.323067 280.440893 644.509091 280.440893 
z
" clip-path="url(#pbdad184b12)" style="fill: #1f77b4; fill-opacity: 0.3; stroke: #1f77b4; stroke-opacity: 0.3"/>
    <path d="M 658.036364 275.985062 
C 660.255212 275.985062 662.383481 275.103504 663.952443 273.534541 
C 665.521406 271.965579 666.402964 269.83731 666.402964 267.618462 
C 666.402964 265.399613 665.521406 263.271344 663.952443 261.702382 
C 662.383481 260.133419 660.255212 259.251861 658.036364 259.251861 
C 655.817515 259.251861 653.689247 260.133419 652.120284 261.702382 
C 650.551321 263.271344 649.669763 265.399613 649.669763 267.618462 
C 649.669763 269.83731 650.551321 271.965579 652.120284 273.534541 
C 653.689247 275.103504 655.817515 275.985062 658.036364 275.985062 
z
" clip-path="url(#pbdad184b12)" style="fill: #1f77b4; fill-opacity: 0.3; stroke: #1f77b4; stroke-opacity: 0.3"/>
    <path d="M 671.563636 269.067841 
C 673.292549 269.067841 674.950883 268.380937 676.173409 267.158411 
C 677.395934 265.935885 678.082839 264.277552 678.082839 262.548639 
C 678.082839 260.819726 677.395934 259.161393 676.173409 257.938867 
C 674.950883 256.716341 673.292549 256.029437 671.563636 256.029437 
C 669.834724 256.029437 668.17639 256.716341 666.953864 257.938867 
C 665.731338 259.161393 665.044434 260.819726 665.044434 262.548639 
C 665.044434 264.277552 665.731338 265.935885 666.953864 267.158411 
C 668.17639 268.380937 669.834724 269.067841 671.563636 269.067841 
z
" clip-path="url(#pbdad184b12)" style="fill: #1f77b4; fill-opacity: 0.3; stroke: #1f77b4; stroke-opacity: 0.3"/>
    <path d="M 685.090909 264.51221 
C 686.481646 264.51221 687.815609 263.959664 688.799008 262.976265 
C 689.782408 261.992866 690.334953 260.658902 690.334953 259.268166 
C 690.334953 257.877429 689.782408 256.543466 688.799008 255.560066 
C 687.815609 254.576667 686.481646 254.024121 685.090909 254.024121 
C 683.700172 254.024121 682.366209 254.576667 681.38281 255.560066 
C 680.39941 256.543466 679.846865 257.877429 679.846865 259.268166 
C 679.846865 260.658902 680.39941 261.992866 681.38281 262.976265 
C 682.366209 263.959664 683.700172 264.51221 685.090909 264.51221 
z
" clip-path="url(#pbdad184b12)" style="fill: #1f77b4; fill-opacity: 0.3; stroke: #1f77b4; stroke-opacity: 0.3"/>
    <path d="M 698.618182 257.511605 
C 701.236853 257.511605 703.748622 256.471196 705.600302 254.619516 
C 707.451982 252.767837 708.492391 250.256067 708.492391 247.637396 
C 708.492391 245.018726 707.451982 242.506956 705.600302 240.655276 
C 703.748622 238.803597 701.236853 237.763188 698.618182 237.763188 
C 695.999511 237.763188 693.487742 238.803597 691.636062 240.655276 
C 689.784382 242.506956 688.743973 245.018726 688.743973 247.637396 
C 688.743973 250.256067 689.784382 252.767837 691.636062 254.619516 
C 693.487742 256.471196 695.999511 257.511605 698.618182 257.511605 
z
" clip-path="url(#pbdad184b12)" style="fill: #1f77b4; fill-opacity: 0.3; stroke: #1f77b4; stroke-opacity: 0.3"/>
    <path d="M 712.145455 249.535924 
C 713.598032 249.535924 714.991311 248.958809 716.018438 247.931682 
C 717.045565 246.904554 717.62268 245.511275 717.62268 244.058698 
C 717.62268 242.606121 717.045565 241.212842 716.018438 240.185715 
C 714.991311 239.158588 713.598032 238.581473 712.145455 238.581473 
C 710.692877 238.581473 709.299598 239.158588 708.272471 240.185715 
C 707.245344 241.212842 706.668229 242.606121 706.668229 244.058698 
C 706.668229 245.511275 707.245344 246.904554 708.272471 247.931682 
C 709.299598 248.958809 710.692877 249.535924 712.145455 249.535924 
z
" clip-path="url(#pbdad184b12)" style="fill: #1f77b4; fill-opacity: 0.3; stroke: #1f77b4; stroke-opacity: 0.3"/>
    <path d="M 725.672727 243.138598 
C 728.117779 243.138598 730.463017 242.167168 732.19193 240.438256 
C 733.920842 238.709343 734.892272 236.364105 734.892272 233.919053 
C 734.892272 231.474001 733.920842 229.128764 732.19193 227.399851 
C 730.463017 225.670938 728.117779 224.699509 725.672727 224.699509 
C 723.227676 224.699509 720.882438 225.670938 719.153525 227.399851 
C 717.424612 229.128764 716.453183 231.474001 716.453183 233.919053 
C 716.453183 236.364105 717.424612 238.709343 719.153525 240.438256 
C 720.882438 242.167168 723.227676 243.138598 725.672727 243.138598 
z
" clip-path="url(#pbdad184b12)" style="fill: #1f77b4; fill-opacity: 0.3; stroke: #1f77b4; stroke-opacity: 0.3"/>
    <path d="M 739.2 234.90202 
C 741.121579 234.90202 742.964714 234.138568 744.323475 232.779807 
C 745.682237 231.421045 746.445688 229.57791 746.445688 227.656331 
C 746.445688 225.734752 745.682237 223.891618 744.323475 222.532856 
C 742.964714 221.174094 741.121579 220.410643 739.2 220.410643 
C 737.278421 220.410643 735.435286 221.174094 734.076525 222.532856 
C 732.717763 223.891618 731.954312 225.734752 731.954312 227.656331 
C 731.954312 229.57791 732.717763 231.421045 734.076525 232.779807 
C 735.435286 234.138568 737.278421 234.90202 739.2 234.90202 
z
" clip-path="url(#pbdad184b12)" style="fill: #1f77b4; fill-opacity: 0.3; stroke: #1f77b4; stroke-opacity: 0.3"/>
    <path d="M 752.727273 229.554859 
C 754.17985 229.554859 755.573129 228.977744 756.600256 227.950616 
C 757.627383 226.923489 758.204498 225.53021 758.204498 224.077633 
C 758.204498 222.625056 757.627383 221.231777 756.600256 220.20465 
C 755.573129 219.177523 754.17985 218.600408 752.727273 218.600408 
C 751.274696 218.600408 749.881417 219.177523 748.854289 220.20465 
C 747.827162 221.231777 747.250047 222.625056 747.250047 224.077633 
C 747.250047 225.53021 747.827162 226.923489 748.854289 227.950616 
C 749.881417 228.977744 751.274696 229.554859 752.727273 229.554859 
z
" clip-path="url(#pbdad184b12)" style="fill: #1f77b4; fill-opacity: 0.3; stroke: #1f77b4; stroke-opacity: 0.3"/>
    <path d="M 766.254545 225.0606 
C 768.176124 225.0606 770.019259 224.297148 771.378021 222.938387 
C 772.736782 221.579625 773.500234 219.73649 773.500234 217.814911 
C 773.500234 215.893332 772.736782 214.050197 771.378021 212.691436 
C 770.019259 211.332674 768.176124 210.569223 766.254545 210.569223 
C 764.332966 210.569223 762.489832 211.332674 761.13107 212.691436 
C 759.772309 214.050197 759.008857 215.893332 759.008857 217.814911 
C 759.008857 219.73649 759.772309 221.579625 761.13107 222.938387 
C 762.489832 224.297148 764.332966 225.0606 766.254545 225.0606 
z
" clip-path="url(#pbdad184b12)" style="fill: #1f77b4; fill-opacity: 0.3; stroke: #1f77b4; stroke-opacity: 0.3"/>
    <path d="M 779.781818 219.874304 
C 781.039787 219.874304 782.246402 219.374508 783.13592 218.48499 
C 784.025438 217.595471 784.525235 216.388856 784.525235 215.130888 
C 784.525235 213.872919 784.025438 212.666304 783.13592 211.776786 
C 782.246402 210.887267 781.039787 210.387471 779.781818 210.387471 
C 778.523849 210.387471 777.317234 210.887267 776.427716 211.776786 
C 775.538198 212.666304 775.038402 213.872919 775.038402 215.130888 
C 775.038402 216.388856 775.538198 217.595471 776.427716 218.48499 
C 777.317234 219.374508 778.523849 219.874304 779.781818 219.874304 
z
" clip-path="url(#pbdad184b12)" style="fill: #1f77b4; fill-opacity: 0.3; stroke: #1f77b4; stroke-opacity: 0.3"/>
    <path d="M 793.309091 213.71426 
C 795.859733 213.71426 798.30625 212.700879 800.109826 210.897303 
C 801.913402 209.093727 802.926783 206.64721 802.926783 204.096568 
C 802.926783 201.545926 801.913402 199.099409 800.109826 197.295833 
C 798.30625 195.492257 795.859733 194.478876 793.309091 194.478876 
C 790.758449 194.478876 788.311932 195.492257 786.508356 197.295833 
C 784.70478 199.099409 783.691399 201.545926 783.691399 204.096568 
C 783.691399 206.64721 784.70478 209.093727 786.508356 210.897303 
C 788.311932 212.700879 790.758449 213.71426 793.309091 213.71426 
z
" clip-path="url(#pbdad184b12)" style="fill: #1f77b4; fill-opacity: 0.3; stroke: #1f77b4; stroke-opacity: 0.3"/>
    <path d="M 806.836364 200.551522 
C 809.771624 200.551522 812.587059 199.385331 814.662602 197.309788 
C 816.738144 195.234246 817.904335 192.418811 817.904335 189.48355 
C 817.904335 186.54829 816.738144 183.732855 814.662602 181.657312 
C 812.587059 179.58177 809.771624 178.415578 806.836364 178.415578 
C 803.901103 178.415578 801.085668 179.58177 799.010126 181.657312 
C 796.934583 183.732855 795.768392 186.54829 795.768392 189.48355 
C 795.768392 192.418811 796.934583 195.234246 799.010126 197.309788 
C 801.085668 199.385331 803.901103 200.551522 806.836364 200.551522 
z
" clip-path="url(#pbdad184b12)" style="fill: #1f77b4; fill-opacity: 0.3; stroke: #1f77b4; stroke-opacity: 0.3"/>
    <path d="M 820.363636 191.542943 
C 821.621605 191.542943 822.82822 191.043147 823.717738 190.153629 
C 824.607257 189.26411 825.107053 188.057495 825.107053 186.799527 
C 825.107053 185.541558 824.607257 184.334943 823.717738 183.445425 
C 822.82822 182.555906 821.621605 182.05611 820.363636 182.05611 
C 819.105668 182.05611 817.899053 182.555906 817.009534 183.445425 
C 816.120016 184.334943 815.62022 185.541558 815.62022 186.799527 
C 815.62022 188.057495 816.120016 189.26411 817.009534 190.153629 
C 817.899053 191.043147 819.105668 191.542943 820.363636 191.542943 
z
" clip-path="url(#pbdad184b12)" style="fill: #1f77b4; fill-opacity: 0.3; stroke: #1f77b4; stroke-opacity: 0.3"/>
    <path d="M 833.890909 187.906097 
C 835.766178 187.906097 837.564894 187.161045 838.890909 185.83503 
C 840.216925 184.509014 840.961977 182.710299 840.961977 180.83503 
C 840.961977 178.95976 840.216925 177.161045 838.890909 175.83503 
C 837.564894 174.509014 835.766178 173.763962 833.890909 173.763962 
C 832.01564 173.763962 830.216925 174.509014 828.890909 175.83503 
C 827.564894 177.161045 826.819841 178.95976 826.819841 180.83503 
C 826.819841 182.710299 827.564894 184.509014 828.890909 185.83503 
C 830.216925 187.161045 832.01564 187.906097 833.890909 187.906097 
z
" clip-path="url(#pbdad184b12)" style="fill: #1f77b4; fill-opacity: 0.3; stroke: #1f77b4; stroke-opacity: 0.3"/>
    <path d="M 847.418182 181.9416 
C 849.293451 181.9416 851.092166 181.196548 852.418182 179.870533 
C 853.744197 178.544517 854.48925 176.745802 854.48925 174.870533 
C 854.48925 172.995263 853.744197 171.196548 852.418182 169.870533 
C 851.092166 168.544517 849.293451 167.799465 847.418182 167.799465 
C 845.542913 167.799465 843.744197 168.544517 842.418182 169.870533 
C 841.092166 171.196548 840.347114 172.995263 840.347114 174.870533 
C 840.347114 176.745802 841.092166 178.544517 842.418182 179.870533 
C 843.744197 181.196548 845.542913 181.9416 847.418182 181.9416 
z
" clip-path="url(#pbdad184b12)" style="fill: #1f77b4; fill-opacity: 0.3; stroke: #1f77b4; stroke-opacity: 0.3"/>
    <path d="M 860.945455 176.210689 
C 862.724491 176.210689 864.430902 175.50387 865.688871 174.245902 
C 866.94684 172.987933 867.653658 171.281522 867.653658 169.502485 
C 867.653658 167.723449 866.94684 166.017037 865.688871 164.759069 
C 864.430902 163.5011 862.724491 162.794281 860.945455 162.794281 
C 859.166418 162.794281 857.460007 163.5011 856.202038 164.759069 
C 854.944069 166.017037 854.237251 167.723449 854.237251 169.502485 
C 854.237251 171.281522 854.944069 172.987933 856.202038 174.245902 
C 857.460007 175.50387 859.166418 176.210689 860.945455 176.210689 
z
" clip-path="url(#pbdad184b12)" style="fill: #1f77b4; fill-opacity: 0.3; stroke: #1f77b4; stroke-opacity: 0.3"/>
    <path d="M 874.472727 170.485452 
C 876.394306 170.485452 878.237441 169.722 879.596203 168.363239 
C 880.954964 167.004477 881.718416 165.161342 881.718416 163.239763 
C 881.718416 161.318184 880.954964 159.475049 879.596203 158.116288 
C 878.237441 156.757526 876.394306 155.994075 874.472727 155.994075 
C 872.551148 155.994075 870.708013 156.757526 869.349252 158.116288 
C 867.99049 159.475049 867.227039 161.318184 867.227039 163.239763 
C 867.227039 165.161342 867.99049 167.004477 869.349252 168.363239 
C 870.708013 169.722 872.551148 170.485452 874.472727 170.485452 
z
" clip-path="url(#pbdad184b12)" style="fill: #1f77b4; fill-opacity: 0.3; stroke: #1f77b4; stroke-opacity: 0.3"/>
    <path d="M 888 162.953272 
C 890.296726 162.953272 892.499694 162.040773 894.123724 160.416742 
C 895.747755 158.792711 896.660254 156.589744 896.660254 154.293018 
C 896.660254 151.996292 895.747755 149.793324 894.123724 148.169293 
C 892.499694 146.545263 890.296726 145.632764 888 145.632764 
C 885.703274 145.632764 883.500306 146.545263 881.876276 148.169293 
C 880.252245 149.793324 879.339746 151.996292 879.339746 154.293018 
C 879.339746 156.589744 880.252245 158.792711 881.876276 160.416742 
C 883.500306 162.040773 885.703274 162.953272 888 162.953272 
z
" clip-path="url(#pbdad184b12)" style="fill: #1f77b4; fill-opacity: 0.3; stroke: #1f77b4; stroke-opacity: 0.3"/>
    <path d="M 901.527273 153.851456 
C 903.861964 153.851456 906.101347 152.923873 907.752223 151.272997 
C 909.403099 149.622121 910.330681 147.382739 910.330681 145.048047 
C 910.330681 142.713356 909.403099 140.473974 907.752223 138.823098 
C 906.101347 137.172222 903.861964 136.244639 901.527273 136.244639 
C 899.192582 136.244639 896.953199 137.172222 895.302323 138.823098 
C 893.651447 140.473974 892.723864 142.713356 892.723864 145.048047 
C 892.723864 147.382739 893.651447 149.622121 895.302323 151.272997 
C 896.953199 152.923873 899.192582 153.851456 901.527273 153.851456 
z
" clip-path="url(#pbdad184b12)" style="fill: #1f77b4; fill-opacity: 0.3; stroke: #1f77b4; stroke-opacity: 0.3"/>
    <path d="M 915.054545 142.592599 
C 917.80423 142.592599 920.441664 141.500138 922.385985 139.555818 
C 924.330305 137.611497 925.422766 134.974063 925.422766 132.224379 
C 925.422766 129.474694 924.330305 126.83726 922.385985 124.89294 
C 920.441664 122.948619 917.80423 121.856158 915.054545 121.856158 
C 912.304861 121.856158 909.667427 122.948619 907.723106 124.89294 
C 905.778786 126.83726 904.686325 129.474694 904.686325 132.224379 
C 904.686325 134.974063 905.778786 137.611497 907.723106 139.555818 
C 909.667427 141.500138 912.304861 142.592599 915.054545 142.592599 
z
" clip-path="url(#pbdad184b12)" style="fill: #1f77b4; fill-opacity: 0.3; stroke: #1f77b4; stroke-opacity: 0.3"/>
    <path d="M 928.581818 133.07963 
C 930.548617 133.07963 932.435126 132.298213 933.825862 130.907476 
C 935.216599 129.516739 935.998017 127.630231 935.998017 125.663432 
C 935.998017 123.696633 935.216599 121.810125 933.825862 120.419388 
C 932.435126 119.028651 930.548617 118.247233 928.581818 118.247233 
C 926.615019 118.247233 924.728511 119.028651 923.337774 120.419388 
C 921.947037 121.810125 921.16562 123.696633 921.16562 125.663432 
C 921.16562 127.630231 921.947037 129.516739 923.337774 130.907476 
C 924.728511 132.298213 926.615019 133.07963 928.581818 133.07963 
z
" clip-path="url(#pbdad184b12)" style="fill: #1f77b4; fill-opacity: 0.3; stroke: #1f77b4; stroke-opacity: 0.3"/>
    <path d="M 942.109091 120.01739 
C 945.357152 120.01739 948.472619 118.726921 950.769345 116.430195 
C 953.066071 114.133469 954.35654 111.018002 954.35654 107.769941 
C 954.35654 104.521879 953.066071 101.406413 950.769345 99.109687 
C 948.472619 96.812961 945.357152 95.522492 942.109091 95.522492 
C 938.86103 95.522492 935.745563 96.812961 933.448837 99.109687 
C 931.152111 101.406413 929.861642 104.521879 929.861642 107.769941 
C 929.861642 111.018002 931.152111 114.133469 933.448837 116.430195 
C 935.745563 118.726921 938.86103 120.01739 942.109091 120.01739 
z
" clip-path="url(#pbdad184b12)" style="fill: #1f77b4; fill-opacity: 0.3; stroke: #1f77b4; stroke-opacity: 0.3"/>
    <path d="M 955.636364 108.358511 
C 957.690618 108.358511 959.661012 107.542347 961.113589 106.08977 
C 962.566166 104.637193 963.38233 102.666799 963.38233 100.612544 
C 963.38233 98.55829 962.566166 96.587896 961.113589 95.135319 
C 959.661012 93.682742 957.690618 92.866578 955.636364 92.866578 
C 953.582109 92.866578 951.611715 93.682742 950.159138 95.135319 
C 948.706561 96.587896 947.890397 98.55829 947.890397 100.612544 
C 947.890397 102.666799 948.706561 104.637193 950.159138 106.08977 
C 951.611715 107.542347 953.582109 108.358511 955.636364 108.358511 
z
" clip-path="url(#pbdad184b12)" style="fill: #1f77b4; fill-opacity: 0.3; stroke: #1f77b4; stroke-opacity: 0.3"/>
    <path d="M 969.163636 102.436498 
C 970.675527 102.436498 972.125697 101.835818 973.194765 100.76675 
C 974.263833 99.697682 974.864513 98.247512 974.864513 96.735621 
C 974.864513 95.223731 974.263833 93.77356 973.194765 92.704492 
C 972.125697 91.635425 970.675527 91.034744 969.163636 91.034744 
C 967.651746 91.034744 966.201575 91.635425 965.132507 92.704492 
C 964.06344 93.77356 963.462759 95.223731 963.462759 96.735621 
C 963.462759 98.247512 964.06344 99.697682 965.132507 100.76675 
C 966.201575 101.835818 967.651746 102.436498 969.163636 102.436498 
z
" clip-path="url(#pbdad184b12)" style="fill: #1f77b4; fill-opacity: 0.3; stroke: #1f77b4; stroke-opacity: 0.3"/>
    <path d="M 982.690909 97.718588 
C 984.612488 97.718588 986.455623 96.955136 987.814384 95.596375 
C 989.173146 94.237613 989.936597 92.394478 989.936597 90.472899 
C 989.936597 88.55132 989.173146 86.708186 987.814384 85.349424 
C 986.455623 83.990662 984.612488 83.227211 982.690909 83.227211 
C 980.76933 83.227211 978.926195 83.990662 977.567434 85.349424 
C 976.208672 86.708186 975.445221 88.55132 975.445221 90.472899 
C 975.445221 92.394478 976.208672 94.237613 977.567434 95.596375 
C 978.926195 96.955136 980.76933 97.718588 982.690909 97.718588 
z
" clip-path="url(#pbdad184b12)" style="fill: #1f77b4; fill-opacity: 0.3; stroke: #1f77b4; stroke-opacity: 0.3"/>
    <path d="M 996.218182 92.442278 
C 997.056828 92.442278 997.861238 92.10908 998.45425 91.516068 
C 999.047262 90.923056 999.380459 90.118646 999.380459 89.28 
C 999.380459 88.441354 999.047262 87.636944 998.45425 87.043932 
C 997.861238 86.45092 997.056828 86.117722 996.218182 86.117722 
C 995.379536 86.117722 994.575126 86.45092 993.982114 87.043932 
C 993.389102 87.636944 993.055904 88.441354 993.055904 89.28 
C 993.055904 90.118646 993.389102 90.923056 993.982114 91.516068 
C 994.575126 92.10908 995.379536 92.442278 996.218182 92.442278 
z
" clip-path="url(#pbdad184b12)" style="fill: #1f77b4; fill-opacity: 0.3; stroke: #1f77b4; stroke-opacity: 0.3"/>
   </g>
   <g id="matplotlib.axis_1">
    <g id="xtick_1">
     <g id="line2d_1">
      <defs>
       <path id="m3e1846feaf" d="M 0 0 
L 0 3.5 
" style="stroke: #000000; stroke-width: 0.8"/>
      </defs>
      <g>
       <use xlink:href="#m3e1846feaf" x="184.581818" y="512.64" style="stroke: #000000; stroke-width: 0.8"/>
      </g>
     </g>
     <g id="text_1">
      <!-- 2026-01-01 -->
      <g transform="translate(155.524006 527.238438) scale(0.1 -0.1)">
       <defs>
        <path id="DejaVuSans-32" d="M 1228 531 
L 3431 531 
L 3431 0 
L 469 0 
L 469 531 
Q 828 903 1448 1529 
Q 2069 2156 2228 2338 
Q 2531 2678 2651 2914 
Q 2772 3150 2772 3378 
Q 2772 3750 2511 3984 
Q 2250 4219 1831 4219 
Q 1534 4219 1204 4116 
Q 875 4013 500 3803 
L 500 4441 
Q 881 4594 1212 4672 
Q 1544 4750 1819 4750 
Q 2544 4750 2975 4387 
Q 3406 4025 3406 3419 
Q 3406 3131 3298 2873 
Q 3191 2616 2906 2266 
Q 2828 2175 2409 1742 
Q 1991 1309 1228 531 
z
" transform="scale(0.015625)"/>
        <path id="DejaVuSans-30" d="M 2034 4250 
Q 1547 4250 1301 3770 
Q 1056 3291 1056 2328 
Q 1056 1369 1301 889 
Q 1547 409 2034 409 
Q 2525 409 2770 889 
Q 3016 1369 3016 2328 
Q 3016 3291 2770 3770 
Q 2525 4250 2034 4250 
z
M 2034 4750 
Q 2819 4750 3233 4129 
Q 3647 3509 3647 2328 
Q 3647 1150 3233 529 
Q 2819 -91 2034 -91 
Q 1250 -91 836 529 
Q 422 1150 422 2328 
Q 422 3509 836 4129 
Q 1250 4750 2034 4750 
z
" transform="scale(0.015625)"/>
        <path id="DejaVuSans-36" d="M 2113 2584 
Q 1688 2584 1439 2293 
Q 1191 2003 1191 1497 
Q 1191 994 1439 701 
Q 1688 409 2113 409 
Q 2538 409 2786 701 
Q 3034 994 3034 1497 
Q 3034 2003 2786 2293 
Q 2538 2584 2113 2584 
z
M 3366 4563 
L 3366 3988 
Q 3128 4100 2886 4159 
Q 2644 4219 2406 4219 
Q 1781 4219 1451 3797 
Q 1122 3375 1075 2522 
Q 1259 2794 1537 2939 
Q 1816 3084 2150 3084 
Q 2853 3084 3261 2657 
Q 3669 2231 3669 1497 
Q 3669 778 3244 343 
Q 2819 -91 2113 -91 
Q 1303 -91 875 529 
Q 447 1150 447 2328 
Q 447 3434 972 4092 
Q 1497 4750 2381 4750 
Q 2619 4750 2861 4703 
Q 3103 4656 3366 4563 
z
" transform="scale(0.015625)"/>
        <path id="DejaVuSans-2d" d="M 313 2009 
L 1997 2009 
L 1997 1497 
L 313 1497 
L 313 2009 
z
" transform="scale(0.015625)"/>
        <path id="DejaVuSans-31" d="M 794 531 
L 1825 531 
L 1825 4091 
L 703 3866 
L 703 4441 
L 1819 4666 
L 2450 4666 
L 2450 531 
L 3481 531 
L 3481 0 
L 794 0 
L 794 531 
z
" transform="scale(0.015625)"/>
       </defs>
       <use xlink:href="#DejaVuSans-32"/>
       <use xlink:href="#DejaVuSans-30" x="63.623047"/>
       <use xlink:href="#DejaVuSans-32" x="127.246094"/>
       <use xlink:href="#DejaVuSans-36" x="190.869141"/>
       <use xlink:href="#DejaVuSans-2d" x="254.492188"/>
       <use xlink:href="#DejaVuSans-30" x="290.576172"/>
       <use xlink:href="#DejaVuSans-31" x="354.199219"/>
       <use xlink:href="#DejaVuSans-2d" x="417.822266"/>
       <use xlink:href="#DejaVuSans-30" x="453.90625"/>
       <use xlink:href="#DejaVuSans-31" x="517.529297"/>
      </g>
     </g>
    </g>
    <g id="xtick_2">
     <g id="line2d_2">
      <g>
       <use xlink:href="#m3e1846feaf" x="279.272727" y="512.64" style="stroke: #000000; stroke-width: 0.8"/>
      </g>
     </g>
     <g id="text_2">
      <!-- 2026-01-08 -->
      <g transform="translate(250.214915 527.238438) scale(0.1 -0.1)">
       <defs>
        <path id="DejaVuSans-38" d="M 2034 2216 
Q 1584 2216 1326 1975 
Q 1069 1734 1069 1313 
Q 1069 891 1326 650 
Q 1584 409 2034 409 
Q 2484 409 2743 651 
Q 3003 894 3003 1313 
Q 3003 1734 2745 1975 
Q 2488 2216 2034 2216 
z
M 1403 2484 
Q 997 2584 770 2862 
Q 544 3141 544 3541 
Q 544 4100 942 4425 
Q 1341 4750 2034 4750 
Q 2731 4750 3128 4425 
Q 3525 4100 3525 3541 
Q 3525 3141 3298 2862 
Q 3072 2584 2669 2484 
Q 3125 2378 3379 2068 
Q 3634 1759 3634 1313 
Q 3634 634 3220 271 
Q 2806 -91 2034 -91 
Q 1263 -91 848 271 
Q 434 634 434 1313 
Q 434 1759 690 2068 
Q 947 2378 1403 2484 
z
M 1172 3481 
Q 1172 3119 1398 2916 
Q 1625 2713 2034 2713 
Q 2441 2713 2670 2916 
Q 2900 3119 2900 3481 
Q 2900 3844 2670 4047 
Q 2441 4250 2034 4250 
Q 1625 4250 1398 4047 
Q 1172 3844 1172 3481 
z
" transform="scale(0.015625)"/>
       </defs>
       <use xlink:href="#DejaVuSans-32"/>
       <use xlink:href="#DejaVuSans-30" x="63.623047"/>
       <use xlink:href="#DejaVuSans-32" x="127.246094"/>
       <use xlink:href="#DejaVuSans-36" x="190.869141"/>
       <use xlink:href="#DejaVuSans-2d" x="254.492188"/>
       <use xlink:href="#DejaVuSans-30" x="290.576172"/>
       <use xlink:href="#DejaVuSans-31" x="354.199219"/>
       <use xlink:href="#DejaVuSans-2d" x="417.822266"/>
       <use xlink:href="#DejaVuSans-30" x="453.90625"/>
       <use xlink:href="#DejaVuSans-38" x="517.529297"/>
      </g>
     </g>
    </g>
    <g id="xtick_3">
     <g id="line2d_3">
      <g>
       <use xlink:href="#m3e1846feaf" x="373.963636" y="512.64" style="stroke: #000000; stroke-width: 0.8"/>
      </g>
     </g>
     <g id="text_3">
      <!-- 2026-01-15 -->
      <g transform="translate(344.905824 527.238438) scale(0.1 -0.1)">
       <defs>
        <path id="DejaVuSans-35" d="M 691 4666 
L 3169 4666 
L 3169 4134 
L 1269 4134 
L 1269 2991 
Q 1406 3038 1543 3061 
Q 1681 3084 1819 3084 
Q 2600 3084 3056 2656 
Q 3513 2228 3513 1497 
Q 3513 744 3044 326 
Q 2575 -91 1722 -91 
Q 1428 -91 1123 -41 
Q 819 9 494 109 
L 494 744 
Q 775 591 1075 516 
Q 1375 441 1709 441 
Q 2250 441 2565 725 
Q 2881 1009 2881 1497 
Q 2881 1984 2565 2268 
Q 2250 2553 1709 2553 
Q 1456 2553 1204 2497 
Q 953 2441 691 2322 
L 691 4666 
z
" transform="scale(0.015625)"/>
       </defs>
       <use xlink:href="#DejaVuSans-32"/>
       <use xlink:href="#DejaVuSans-30" x="63.623047"/>
       <use xlink:href="#DejaVuSans-32" x="127.246094"/>
       <use xlink:href="#DejaVuSans-36" x="190.869141"/>
       <use xlink:href="#DejaVuSans-2d" x="254.492188"/>
       <use xlink:href="#DejaVuSans-30" x="290.576172"/>
       <use xlink:href="#DejaVuSans-31" x="354.199219"/>
       <use xlink:href="#DejaVuSans-2d" x="417.822266"/>
       <use xlink:href="#DejaVuSans-31" x="453.90625"/>
       <use xlink:href="#DejaVuSans-35" x="517.529297"/>
      </g>
     </g>
    </g>
    <g id="xtick_4">
     <g id="line2d_4">
      <g>
       <use xlink:href="#m3e1846feaf" x="468.654545" y="512.64" style="stroke: #000000; stroke-width: 0.8"/>
      </g>
     </g>
     <g id="text_4">
      <!-- 2026-01-22 -->
      <g transform="translate(439.596733 527.238438) scale(0.1 -0.1)">
       <use xlink:href="#DejaVuSans-32"/>
       <use xlink:href="#DejaVuSans-30" x="63.623047"/>
       <use xlink:href="#DejaVuSans-32" x="127.246094"/>
       <use xlink:href="#DejaVuSans-36" x="190.869141"/>
       <use xlink:href="#DejaVuSans-2d" x="254.492188"/>
       <use xlink:href="#DejaVuSans-30" x="290.576172"/>
       <use xlink:href="#DejaVuSans-31" x="354.199219"/>
       <use xlink:href="#DejaVuSans-2d" x="417.822266"/>
       <use xlink:href="#DejaVuSans-32" x="453.90625"/>
       <use xlink:href="#DejaVuSans-32" x="517.529297"/>
      </g>
     </g>
    </g>
    <g id="xtick_5">
     <g id="line2d_5">
      <g>
       <use xlink:href="#m3e1846feaf" x="603.927273" y="512.64" style="stroke: #000000; stroke-width: 0.8"/>
      </g>
     </g>
     <g id="text_5">
      <!-- 2026-02-01 -->
      <g transform="translate(574.86946 527.238438) scale(0.1 -0.1)">
       <use xlink:href="#DejaVuSans-32"/>
       <use xlink:href="#DejaVuSans-30" x="63.623047"/>
       <use xlink:href="#DejaVuSans-32" x="127.246094"/>
       <use xlink:href="#DejaVuSans-36" x="190.869141"/>
       <use xlink:href="#DejaVuSans-2d" x="254.492188"/>
       <use xlink:href="#DejaVuSans-30" x="290.576172"/>
       <use xlink:href="#DejaVuSans-32" x="354.199219"/>
       <use xlink:href="#DejaVuSans-2d" x="417.822266"/>
       <use xlink:href="#DejaVuSans-30" x="453.90625"/>
       <use xlink:href="#DejaVuSans-31" x="517.529297"/>
      </g>
     </g>
    </g>
    <g id="xtick_6">
     <g id="line2d_6">
      <g>
       <use xlink:href="#m3e1846feaf" x="698.618182" y="512.64" style="stroke: #000000; stroke-width: 0.8"/>
      </g>
     </g>
     <g id="text_6">
      <!-- 2026-02-08 -->
      <g transform="translate(669.560369 527.238438) scale(0.1 -0.1)">
       <use xlink:href="#DejaVuSans-32"/>
       <use xlink:href="#DejaVuSans-30" x="63.623047"/>
       <use xlink:href="#DejaVuSans-32" x="127.246094"/>
       <use xlink:href="#DejaVuSans-36" x="190.869141"/>
       <use xlink:href="#DejaVuSans-2d" x="254.492188"/>
       <use xlink:href="#DejaVuSans-30" x="290.576172"/>
       <use xlink:href="#DejaVuSans-32" x="354.199219"/>
       <use xlink:href="#DejaVuSans-2d" x="417.822266"/>
       <use xlink:href="#DejaVuSans-30" x="453.90625"/>
       <use xlink:href="#DejaVuSans-38" x="517.529297"/>
      </g>
     </g>
    </g>
    <g id="xtick_7">
     <g id="line2d_7">
      <g>
       <use xlink:href="#m3e1846feaf" x="793.309091" y="512.64" style="stroke: #000000; stroke-width: 0.8"/>
      </g>
     </g>
     <g id="text_7">
      <!-- 2026-02-15 -->
      <g transform="translate(764.251278 527.238438) scale(0.1 -0.1)">
       <use xlink:href="#DejaVuSans-32"/>
       <use xlink:href="#DejaVuSans-30" x="63.623047"/>
       <use xlink:href="#DejaVuSans-32" x="127.246094"/>
       <use xlink:href="#DejaVuSans-36" x="190.869141"/>
       <use xlink:href="#DejaVuSans-2d" x="254.492188"/>
       <use xlink:href="#DejaVuSans-30" x="290.576172"/>
       <use xlink:href="#DejaVuSans-32" x="354.199219"/>
       <use xlink:href="#DejaVuSans-2d" x="417.822266"/>
       <use xlink:href="#DejaVuSans-31" x="453.90625"/>
       <use xlink:href="#DejaVuSans-35" x="517.529297"/>
      </g>
     </g>
    </g>
    <g id="xtick_8">
     <g id="line2d_8">
      <g>
       <use xlink:href="#m3e1846feaf" x="888" y="512.64" style="stroke: #000000; stroke-width: 0.8"/>
      </g>
     </g>
     <g id="text_8">
      <!-- 2026-02-22 -->
      <g transform="translate(858.942188 527.238438) scale(0.1 -0.1)">
       <use xlink:href="#DejaVuSans-32"/>
       <use xlink:href="#DejaVuSans-30" x="63.623047"/>
       <use xlink:href="#DejaVuSans-32" x="127.246094"/>
       <use xlink:href="#DejaVuSans-36" x="190.869141"/>
       <use xlink:href="#DejaVuSans-2d" x="254.492188"/>
       <use xlink:href="#DejaVuSans-30" x="290.576172"/>
       <use xlink:href="#DejaVuSans-32" x="354.199219"/>
       <use xlink:href="#DejaVuSans-2d" x="417.822266"/>
       <use xlink:href="#DejaVuSans-32" x="453.90625"/>
       <use xlink:href="#DejaVuSans-32" x="517.529297"/>
      </g>
     </g>
    </g>
    <g id="xtick_9">
     <g id="line2d_9">
      <g>
       <use xlink:href="#m3e1846feaf" x="982.690909" y="512.64" style="stroke: #000000; stroke-width: 0.8"/>
      </g>
     </g>
     <g id="text_9">
      <!-- 2026-03-01 -->
      <g transform="translate(953.633097 527.238438) scale(0.1 -0.1)">
       <defs>
        <path id="DejaVuSans-33" d="M 2597 2516 
Q 3050 2419 3304 2112 
Q 3559 1806 3559 1356 
Q 3559 666 3084 287 
Q 2609 -91 1734 -91 
Q 1441 -91 1130 -33 
Q 819 25 488 141 
L 488 750 
Q 750 597 1062 519 
Q 1375 441 1716 441 
Q 2309 441 2620 675 
Q 2931 909 2931 1356 
Q 2931 1769 2642 2001 
Q 2353 2234 1838 2234 
L 1294 2234 
L 1294 2753 
L 1863 2753 
Q 2328 2753 2575 2939 
Q 2822 3125 2822 3475 
Q 2822 3834 2567 4026 
Q 2313 4219 1838 4219 
Q 1578 4219 1281 4162 
Q 984 4106 628 3988 
L 628 4550 
Q 988 4650 1302 4700 
Q 1616 4750 1894 4750 
Q 2613 4750 3031 4423 
Q 3450 4097 3450 3541 
Q 3450 3153 3228 2886 
Q 3006 2619 2597 2516 
z
" transform="scale(0.015625)"/>
       </defs>
       <use xlink:href="#DejaVuSans-32"/>
       <use xlink:href="#DejaVuSans-30" x="63.623047"/>
       <use xlink:href="#DejaVuSans-32" x="127.246094"/>
       <use xlink:href="#DejaVuSans-36" x="190.869141"/>
       <use xlink:href="#DejaVuSans-2d" x="254.492188"/>
       <use xlink:href="#DejaVuSans-30" x="290.576172"/>
       <use xlink:href="#DejaVuSans-33" x="354.199219"/>
       <use xlink:href="#DejaVuSans-2d" x="417.822266"/>
       <use xlink:href="#DejaVuSans-30" x="453.90625"/>
       <use xlink:href="#DejaVuSans-31" x="517.529297"/>
      </g>
     </g>
    </g>
   </g>
   <g id="matplotlib.axis_2">
    <g id="ytick_1">
     <g id="line2d_10">
      <defs>
       <path id="m15144d1b23" d="M 0 0 
L -3.5 0 
" style="stroke: #000000; stroke-width: 0.8"/>
      </defs>
      <g>
       <use xlink:href="#m15144d1b23" x="144" y="463.850414" style="stroke: #000000; stroke-width: 0.8"/>
      </g>
     </g>
     <g id="text_10">
      <!-- 13200 -->
      <g transform="translate(105.1875 467.649633) scale(0.1 -0.1)">
       <use xlink:href="#DejaVuSans-31"/>
       <use xlink:href="#DejaVuSans-33" x="63.623047"/>
       <use xlink:href="#DejaVuSans-32" x="127.246094"/>
       <use xlink:href="#DejaVuSans-30" x="190.869141"/>
       <use xlink:href="#DejaVuSans-30" x="254.492188"/>
      </g>
     </g>
    </g>
    <g id="ytick_2">
     <g id="line2d_11">
      <g>
       <use xlink:href="#m15144d1b23" x="144" y="404.205444" style="stroke: #000000; stroke-width: 0.8"/>
      </g>
     </g>
     <g id="text_11">
      <!-- 13400 -->
      <g transform="translate(105.1875 408.004663) scale(0.1 -0.1)">
       <defs>
        <path id="DejaVuSans-34" d="M 2419 4116 
L 825 1625 
L 2419 1625 
L 2419 4116 
z
M 2253 4666 
L 3047 4666 
L 3047 1625 
L 3713 1625 
L 3713 1100 
L 3047 1100 
L 3047 0 
L 2419 0 
L 2419 1100 
L 313 1100 
L 313 1709 
L 2253 4666 
z
" transform="scale(0.015625)"/>
       </defs>
       <use xlink:href="#DejaVuSans-31"/>
       <use xlink:href="#DejaVuSans-33" x="63.623047"/>
       <use xlink:href="#DejaVuSans-34" x="127.246094"/>
       <use xlink:href="#DejaVuSans-30" x="190.869141"/>
       <use xlink:href="#DejaVuSans-30" x="254.492188"/>
      </g>
     </g>
    </g>
    <g id="ytick_3">
     <g id="line2d_12">
      <g>
       <use xlink:href="#m15144d1b23" x="144" y="344.560473" style="stroke: #000000; stroke-width: 0.8"/>
      </g>
     </g>
     <g id="text_12">
      <!-- 13600 -->
      <g transform="translate(105.1875 348.359692) scale(0.1 -0.1)">
       <use xlink:href="#DejaVuSans-31"/>
       <use xlink:href="#DejaVuSans-33" x="63.623047"/>
       <use xlink:href="#DejaVuSans-36" x="127.246094"/>
       <use xlink:href="#DejaVuSans-30" x="190.869141"/>
       <use xlink:href="#DejaVuSans-30" x="254.492188"/>
      </g>
     </g>
    </g>
    <g id="ytick_4">
     <g id="line2d_13">
      <g>
       <use xlink:href="#m15144d1b23" x="144" y="284.915503" style="stroke: #000000; stroke-width: 0.8"/>
      </g>
     </g>
     <g id="text_13">
      <!-- 13800 -->
      <g transform="translate(105.1875 288.714722) scale(0.1 -0.1)">
       <use xlink:href="#DejaVuSans-31"/>
       <use xlink:href="#DejaVuSans-33" x="63.623047"/>
       <use xlink:href="#DejaVuSans-38" x="127.246094"/>
       <use xlink:href="#DejaVuSans-30" x="190.869141"/>
       <use xlink:href="#DejaVuSans-30" x="254.492188"/>
      </g>
     </g>
    </g>
    <g id="ytick_5">
     <g id="line2d_14">
      <g>
       <use xlink:href="#m15144d1b23" x="144" y="225.270533" style="stroke: #000000; stroke-width: 0.8"/>
      </g>
     </g>
     <g id="text_14">
      <!-- 14000 -->
      <g transform="translate(105.1875 229.069751) scale(0.1 -0.1)">
       <use xlink:href="#DejaVuSans-31"/>
       <use xlink:href="#DejaVuSans-34" x="63.623047"/>
       <use xlink:href="#DejaVuSans-30" x="127.246094"/>
       <use xlink:href="#DejaVuSans-30" x="190.869141"/>
       <use xlink:href="#DejaVuSans-30" x="254.492188"/>
      </g>
     </g>
    </g>
    <g id="ytick_6">
     <g id="line2d_15">
      <g>
       <use xlink:href="#m15144d1b23" x="144" y="165.625562" style="stroke: #000000; stroke-width: 0.8"/>
      </g>
     </g>
     <g id="text_15">
      <!-- 14200 -->
      <g transform="translate(105.1875 169.424781) scale(0.1 -0.1)">
       <use xlink:href="#DejaVuSans-31"/>
       <use xlink:href="#DejaVuSans-34" x="63.623047"/>
       <use xlink:href="#DejaVuSans-32" x="127.246094"/>
       <use xlink:href="#DejaVuSans-30" x="190.869141"/>
       <use xlink:href="#DejaVuSans-30" x="254.492188"/>
      </g>
     </g>
    </g>
    <g id="ytick_7">
     <g id="line2d_16">
      <g>
       <use xlink:href="#m15144d1b23" x="144" y="105.980592" style="stroke: #000000; stroke-width: 0.8"/>
      </g>
     </g>
     <g id="text_16">
      <!-- 14400 -->
      <g transform="translate(105.1875 109.77981) scale(0.1 -0.1)">
       <use xlink:href="#DejaVuSans-31"/>
       <use xlink:href="#DejaVuSans-34" x="63.623047"/>
       <use xlink:href="#DejaVuSans-34" x="127.246094"/>
       <use xlink:href="#DejaVuSans-30" x="190.869141"/>
       <use xlink:href="#DejaVuSans-30" x="254.492188"/>
      </g>
     </g>
    </g>
   </g>
   <g id="line2d_17">
    <path d="M 184.581818 492.48 
L 198.109091 487.410178 
L 211.636364 479.059882 
L 225.163636 475.779408 
L 238.690909 474.288284 
L 252.218182 469.218462 
L 265.745455 464.446864 
L 279.272727 452.816095 
L 292.8 446.851598 
L 306.327273 443.869349 
L 319.854545 443.272899 
L 333.381818 431.343905 
L 346.909091 423.888284 
L 360.436364 420.011361 
L 373.963636 410.468166 
L 387.490909 397.644497 
L 401.018182 396.451598 
L 414.545455 393.171124 
L 428.072727 385.119053 
L 441.6 381.540355 
L 455.127273 366.629112 
L 468.654545 358.577041 
L 482.181818 351.419645 
L 495.709091 342.771124 
L 509.236364 341.578225 
L 522.763636 340.385325 
L 536.290909 329.351006 
L 549.818182 314.141538 
L 563.345455 304.300118 
L 576.872727 296.248047 
L 590.4 295.055148 
L 603.927273 291.774675 
L 617.454545 285.810178 
L 630.981818 278.354556 
L 644.509091 275.968757 
L 658.036364 267.618462 
L 671.563636 262.548639 
L 685.090909 259.268166 
L 698.618182 247.637396 
L 712.145455 244.058698 
L 725.672727 233.919053 
L 739.2 227.656331 
L 752.727273 224.077633 
L 766.254545 217.814911 
L 779.781818 215.130888 
L 793.309091 204.096568 
L 806.836364 189.48355 
L 820.363636 186.799527 
L 833.890909 180.83503 
L 847.418182 174.870533 
L 860.945455 169.502485 
L 874.472727 163.239763 
L 888 154.293018 
L 901.527273 145.048047 
L 915.054545 132.224379 
L 928.581818 125.663432 
L 942.109091 107.769941 
L 955.636364 100.612544 
L 969.163636 96.735621 
L 982.690909 90.472899 
L 996.218182 89.28 
" clip-path="url(#pbdad184b12)" style="fill: none; stroke: #1f77b4; stroke-width: 1.5; stroke-linecap: square"/>
   </g>
   <g id="patch_3">
    <path d="M 144 512.64 
L 144 69.12 
" style="fill: none; stroke: #000000; stroke-width: 0.8; stroke-linejoin: miter; stroke-linecap: square"/>
   </g>
   <g id="patch_4">
    <path d="M 1036.8 512.64 
L 1036.8 69.12 
" style="fill: none; stroke: #000000; stroke-width: 0.8; stroke-linejoin: miter; stroke-linecap: square"/>
   </g>
   <g id="patch_5">
    <path d="M 144 512.64 
L 1036.8 512.64 
" style="fill: none; stroke: #000000; stroke-width: 0.8; stroke-linejoin: miter; stroke-linecap: square"/>
   </g>
   <g id="patch_6">
    <path d="M 144 69.12 
L 1036.8 69.12 
" style="fill: none; stroke: #000000; stroke-width: 0.8; stroke-linejoin: miter; stroke-linecap: square"/>
   </g>
   <g id="text_17">
    <!-- Number of AEDs in the OpenStreetMap database in Poland from 2026-01-01, day by day. As at: 2026-03-02 -->
    <g transform="translate(144 63.12) scale(0.14 -0.14)">
     <defs>
      <path id="DejaVuSans-4e" d="M 628 4666 
L 1478 4666 
L 3547 763 
L 3547 4666 
L 4159 4666 
L 4159 0 
L 3309 0 
L 1241 3903 
L 1241 0 
L 628 0 
L 628 4666 
z
" transform="scale(0.015625)"/>
      <path id="DejaVuSans-75" d="M 544 1381 
L 544 3500 
L 1119 3500 
L 1119 1403 
Q 1119 906 1312 657 
Q 1506 409 1894 409 
Q 2359 409 2629 706 
Q 2900 1003 2900 1516 
L 2900 3500 
L 3475 3500 
L 3475 0 
L 2900 0 
L 2900 538 
Q 2691 219 2414 64 
Q 2138 -91 1772 -91 
Q 1169 -91 856 284 
Q 544 659 544 1381 
z
M 1991 3584 
L 1991 3584 
z
" transform="scale(0.015625)"/>
      <path id="DejaVuSans-6d" d="M 3328 2828 
Q 3544 3216 3844 3400 
Q 4144 3584 4550 3584 
Q 5097 3584 5394 3201 
Q 5691 2819 5691 2113 
L 5691 0 
L 5113 0 
L 5113 2094 
Q 5113 2597 4934 2840 
Q 4756 3084 4391 3084 
Q 3944 3084 3684 2787 
Q 3425 2491 3425 1978 
L 3425 0 
L 2847 0 
L 2847 2094 
Q 2847 2600 2669 2842 
Q 2491 3084 2119 3084 
Q 1678 3084 1418 2786 
Q 1159 2488 1159 1978 
L 1159 0 
L 581 0 
L 581 3500 
L 1159 3500 
L 1159 2956 
Q 1356 3278 1631 3431 
Q 1906 3584 2284 3584 
Q 2666 3584 2933 3390 
Q 3200 3197 3328 2828 
z
" transform="scale(0.015625)"/>
      <path id="DejaVuSans-62" d="M 3116 1747 
Q 3116 2381 2855 2742 
Q 2594 3103 2138 3103 
Q 1681 3103 1420 2742 
Q 1159 2381 1159 1747 
Q 1159 1113 1420 752 
Q 1681 391 2138 391 
Q 2594 391 2855 752 
Q 3116 1113 3116 1747 
z
M 1159 2969 
Q 1341 3281 1617 3432 
Q 1894 3584 2278 3584 
Q 2916 3584 3314 3078 
Q 3713 2572 3713 1747 
Q 3713 922 3314 415 
Q 2916 -91 2278 -91 
Q 1894 -91 1617 61 
Q 1341 213 1159 525 
L 1159 0 
L 581 0 
L 581 4863 
L 1159 4863 
L 1159 2969 
z
" transform="scale(0.015625)"/>
      <path id="DejaVuSans-65" d="M 3597 1894 
L 3597 1613 
L 953 1613 
Q 991 1019 1311 708 
Q 1631 397 2203 397 
Q 2534 397 2845 478 
Q 3156 559 3463 722 
L 3463 178 
Q 3153 47 2828 -22 
Q 2503 -91 2169 -91 
Q 1331 -91 842 396 
Q 353 884 353 1716 
Q 353 2575 817 3079 
Q 1281 3584 2069 3584 
Q 2775 3584 3186 3129 
Q 3597 2675 3597 1894 
z
M 3022 2063 
Q 3016 2534 2758 2815 
Q 2500 3097 2075 3097 
Q 1594 3097 1305 2825 
Q 1016 2553 972 2059 
L 3022 2063 
z
" transform="scale(0.015625)"/>
      <path id="DejaVuSans-72" d="M 2631 2963 
Q 2534 3019 2420 3045 
Q 2306 3072 2169 3072 
Q 1681 3072 1420 2755 
Q 1159 2438 1159 1844 
L 1159 0 
L 581 0 
L 581 3500 
L 1159 3500 
L 1159 2956 
Q 1341 3275 1631 3429 
Q 1922 3584 2338 3584 
Q 2397 3584 2469 3576 
Q 2541 3569 2628 3553 
L 2631 2963 
z
" transform="scale(0.015625)"/>
      <path id="DejaVuSans-20" transform="scale(0.015625)"/>
      <path id="DejaVuSans-6f" d="M 1959 3097 
Q 1497 3097 1228 2736 
Q 959 2375 959 1747 
Q 959 1119 1226 758 
Q 1494 397 1959 397 
Q 2419 397 2687 759 
Q 2956 1122 2956 1747 
Q 2956 2369 2687 2733 
Q 2419 3097 1959 3097 
z
M 1959 3584 
Q 2709 3584 3137 3096 
Q 3566 2609 3566 1747 
Q 3566 888 3137 398 
Q 2709 -91 1959 -91 
Q 1206 -91 779 398 
Q 353 888 353 1747 
Q 353 2609 779 3096 
Q 1206 3584 1959 3584 
z
" transform="scale(0.015625)"/>
      <path id="DejaVuSans-66" d="M 2375 4863 
L 2375 4384 
L 1825 4384 
Q 1516 4384 1395 4259 
Q 1275 4134 1275 3809 
L 1275 3500 
L 2222 3500 
L 2222 3053 
L 1275 3053 
L 1275 0 
L 697 0 
L 697 3053 
L 147 3053 
L 147 3500 
L 697 3500 
L 697 3744 
Q 697 4328 969 4595 
Q 1241 4863 1831 4863 
L 2375 4863 
z
" transform="scale(0.015625)"/>
      <path id="DejaVuSans-41" d="M 2188 4044 
L 1331 1722 
L 3047 1722 
L 2188 4044 
z
M 1831 4666 
L 2547 4666 
L 4325 0 
L 3669 0 
L 3244 1197 
L 1141 1197 
L 716 0 
L 50 0 
L 1831 4666 
z
" transform="scale(0.015625)"/>
      <path id="DejaVuSans-45" d="M 628 4666 
L 3578 4666 
L 3578 4134 
L 1259 4134 
L 1259 2753 
L 3481 2753 
L 3481 2222 
L 1259 2222 
L 1259 531 
L 3634 531 
L 3634 0 
L 628 0 
L 628 4666 
z
" transform="scale(0.015625)"/>
      <path id="DejaVuSans-44" d="M 1259 4147 
L 1259 519 
L 2022 519 
Q 2988 519 3436 956 
Q 3884 1394 3884 2338 
Q 3884 3275 3436 3711 
Q 2988 4147 2022 4147 
L 1259 4147 
z
M 628 4666 
L 1925 4666 
Q 3281 4666 3915 4102 
Q 4550 3538 4550 2338 
Q 4550 1131 3912 565 
Q 3275 0 1925 0 
L 628 0 
L 628 4666 
z
" transform="scale(0.015625)"/>
      <path id="DejaVuSans-73" d="M 2834 3397 
L 2834 2853 
Q 2591 2978 2328 3040 
Q 2066 3103 1784 3103 
Q 1356 3103 1142 2972 
Q 928 2841 928 2578 
Q 928 2378 1081 2264 
Q 1234 2150 1697 2047 
L 1894 2003 
Q 2506 1872 2764 1633 
Q 3022 1394 3022 966 
Q 3022 478 2636 193 
Q 2250 -91 1575 -91 
Q 1294 -91 989 -36 
Q 684 19 347 128 
L 347 722 
Q 666 556 975 473 
Q 1284 391 1588 391 
Q 1994 391 2212 530 
Q 2431 669 2431 922 
Q 2431 1156 2273 1281 
Q 2116 1406 1581 1522 
L 1381 1569 
Q 847 1681 609 1914 
Q 372 2147 372 2553 
Q 372 3047 722 3315 
Q 1072 3584 1716 3584 
Q 2034 3584 2315 3537 
Q 2597 3491 2834 3397 
z
" transform="scale(0.015625)"/>
      <path id="DejaVuSans-69" d="M 603 3500 
L 1178 3500 
L 1178 0 
L 603 0 
L 603 3500 
z
M 603 4863 
L 1178 4863 
L 1178 4134 
L 603 4134 
L 603 4863 
z
" transform="scale(0.015625)"/>
      <path id="DejaVuSans-6e" d="M 3513 2113 
L 3513 0 
L 2938 0 
L 2938 2094 
Q 2938 2591 2744 2837 
Q 2550 3084 2163 3084 
Q 1697 3084 1428 2787 
Q 1159 2491 1159 1978 
L 1159 0 
L 581 0 
L 581 3500 
L 1159 3500 
L 1159 2956 
Q 1366 3272 1645 3428 
Q 1925 3584 2291 3584 
Q 2894 3584 3203 3211 
Q 3513 2838 3513 2113 
z
" transform="scale(0.015625)"/>
      <path id="DejaVuSans-74" d="M 1172 4494 
L 1172 3500 
L 2356 3500 
L 2356 3053 
L 1172 3053 
L 1172 1153 
Q 1172 725 1289 603 
Q 1406 481 1766 481 
L 2356 481 
L 2356 0 
L 1766 0 
Q 1100 0 847 248 
Q 594 497 594 1153 
L 594 3053 
L 172 3053 
L 172 3500 
L 594 3500 
L 594 4494 
L 1172 4494 
z
" transform="scale(0.015625)"/>
      <path id="DejaVuSans-68" d="M 3513 2113 
L 3513 0 
L 2938 0 
L 2938 2094 
Q 2938 2591 2744 2837 
Q 2550 3084 2163 3084 
Q 1697 3084 1428 2787 
Q 1159 2491 1159 1978 
L 1159 0 
L 581 0 
L 581 4863 
L 1159 4863 
L 1159 2956 
Q 1366 3272 1645 3428 
Q 1925 3584 2291 3584 
Q 2894 3584 3203 3211 
Q 3513 2838 3513 2113 
z
" transform="scale(0.015625)"/>
      <path id="DejaVuSans-4f" d="M 2522 4238 
Q 1834 4238 1429 3725 
Q 1025 3213 1025 2328 
Q 1025 1447 1429 934 
Q 1834 422 2522 422 
Q 3209 422 3611 934 
Q 4013 1447 4013 2328 
Q 4013 3213 3611 3725 
Q 3209 4238 2522 4238 
z
M 2522 4750 
Q 3503 4750 4090 4092 
Q 4678 3434 4678 2328 
Q 4678 1225 4090 567 
Q 3503 -91 2522 -91 
Q 1538 -91 948 565 
Q 359 1222 359 2328 
Q 359 3434 948 4092 
Q 1538 4750 2522 4750 
z
" transform="scale(0.015625)"/>
      <path id="DejaVuSans-70" d="M 1159 525 
L 1159 -1331 
L 581 -1331 
L 581 3500 
L 1159 3500 
L 1159 2969 
Q 1341 3281 1617 3432 
Q 1894 3584 2278 3584 
Q 2916 3584 3314 3078 
Q 3713 2572 3713 1747 
Q 3713 922 3314 415 
Q 2916 -91 2278 -91 
Q 1894 -91 1617 61 
Q 1341 213 1159 525 
z
M 3116 1747 
Q 3116 2381 2855 2742 
Q 2594 3103 2138 3103 
Q 1681 3103 1420 2742 
Q 1159 2381 1159 1747 
Q 1159 1113 1420 752 
Q 1681 391 2138 391 
Q 2594 391 2855 752 
Q 3116 1113 3116 1747 
z
" transform="scale(0.015625)"/>
      <path id="DejaVuSans-53" d="M 3425 4513 
L 3425 3897 
Q 3066 4069 2747 4153 
Q 2428 4238 2131 4238 
Q 1616 4238 1336 4038 
Q 1056 3838 1056 3469 
Q 1056 3159 1242 3001 
Q 1428 2844 1947 2747 
L 2328 2669 
Q 3034 2534 3370 2195 
Q 3706 1856 3706 1288 
Q 3706 609 3251 259 
Q 2797 -91 1919 -91 
Q 1588 -91 1214 -16 
Q 841 59 441 206 
L 441 856 
Q 825 641 1194 531 
Q 1563 422 1919 422 
Q 2459 422 2753 634 
Q 3047 847 3047 1241 
Q 3047 1584 2836 1778 
Q 2625 1972 2144 2069 
L 1759 2144 
Q 1053 2284 737 2584 
Q 422 2884 422 3419 
Q 422 4038 858 4394 
Q 1294 4750 2059 4750 
Q 2388 4750 2728 4690 
Q 3069 4631 3425 4513 
z
" transform="scale(0.015625)"/>
      <path id="DejaVuSans-4d" d="M 628 4666 
L 1569 4666 
L 2759 1491 
L 3956 4666 
L 4897 4666 
L 4897 0 
L 4281 0 
L 4281 4097 
L 3078 897 
L 2444 897 
L 1241 4097 
L 1241 0 
L 628 0 
L 628 4666 
z
" transform="scale(0.015625)"/>
      <path id="DejaVuSans-61" d="M 2194 1759 
Q 1497 1759 1228 1600 
Q 959 1441 959 1056 
Q 959 750 1161 570 
Q 1363 391 1709 391 
Q 2188 391 2477 730 
Q 2766 1069 2766 1631 
L 2766 1759 
L 2194 1759 
z
M 3341 1997 
L 3341 0 
L 2766 0 
L 2766 531 
Q 2569 213 2275 61 
Q 1981 -91 1556 -91 
Q 1019 -91 701 211 
Q 384 513 384 1019 
Q 384 1609 779 1909 
Q 1175 2209 1959 2209 
L 2766 2209 
L 2766 2266 
Q 2766 2663 2505 2880 
Q 2244 3097 1772 3097 
Q 1472 3097 1187 3025 
Q 903 2953 641 2809 
L 641 3341 
Q 956 3463 1253 3523 
Q 1550 3584 1831 3584 
Q 2591 3584 2966 3190 
Q 3341 2797 3341 1997 
z
" transform="scale(0.015625)"/>
      <path id="DejaVuSans-64" d="M 2906 2969 
L 2906 4863 
L 3481 4863 
L 3481 0 
L 2906 0 
L 2906 525 
Q 2725 213 2448 61 
Q 2172 -91 1784 -91 
Q 1150 -91 751 415 
Q 353 922 353 1747 
Q 353 2572 751 3078 
Q 1150 3584 1784 3584 
Q 2172 3584 2448 3432 
Q 2725 3281 2906 2969 
z
M 947 1747 
Q 947 1113 1208 752 
Q 1469 391 1925 391 
Q 2381 391 2643 752 
Q 2906 1113 2906 1747 
Q 2906 2381 2643 2742 
Q 2381 3103 1925 3103 
Q 1469 3103 1208 2742 
Q 947 2381 947 1747 
z
" transform="scale(0.015625)"/>
      <path id="DejaVuSans-50" d="M 1259 4147 
L 1259 2394 
L 2053 2394 
Q 2494 2394 2734 2622 
Q 2975 2850 2975 3272 
Q 2975 3691 2734 3919 
Q 2494 4147 2053 4147 
L 1259 4147 
z
M 628 4666 
L 2053 4666 
Q 2838 4666 3239 4311 
Q 3641 3956 3641 3272 
Q 3641 2581 3239 2228 
Q 2838 1875 2053 1875 
L 1259 1875 
L 1259 0 
L 628 0 
L 628 4666 
z
" transform="scale(0.015625)"/>
      <path id="DejaVuSans-6c" d="M 603 4863 
L 1178 4863 
L 1178 0 
L 603 0 
L 603 4863 
z
" transform="scale(0.015625)"/>
      <path id="DejaVuSans-2c" d="M 750 794 
L 1409 794 
L 1409 256 
L 897 -744 
L 494 -744 
L 750 256 
L 750 794 
z
" transform="scale(0.015625)"/>
      <path id="DejaVuSans-79" d="M 2059 -325 
Q 1816 -950 1584 -1140 
Q 1353 -1331 966 -1331 
L 506 -1331 
L 506 -850 
L 844 -850 
Q 1081 -850 1212 -737 
Q 1344 -625 1503 -206 
L 1606 56 
L 191 3500 
L 800 3500 
L 1894 763 
L 2988 3500 
L 3597 3500 
L 2059 -325 
z
" transform="scale(0.015625)"/>
      <path id="DejaVuSans-2e" d="M 684 794 
L 1344 794 
L 1344 0 
L 684 0 
L 684 794 
z
" transform="scale(0.015625)"/>
      <path id="DejaVuSans-3a" d="M 750 794 
L 1409 794 
L 1409 0 
L 750 0 
L 750 794 
z
M 750 3309 
L 1409 3309 
L 1409 2516 
L 750 2516 
L 750 3309 
z
" transform="scale(0.015625)"/>
     </defs>
     <use xlink:href="#DejaVuSans-4e"/>
     <use xlink:href="#DejaVuSans-75" x="74.804688"/>
     <use xlink:href="#DejaVuSans-6d" x="138.183594"/>
     <use xlink:href="#DejaVuSans-62" x="235.595703"/>
     <use xlink:href="#DejaVuSans-65" x="299.072266"/>
     <use xlink:href="#DejaVuSans-72" x="360.595703"/>
     <use xlink:href="#DejaVuSans-20" x="401.708984"/>
     <use xlink:href="#DejaVuSans-6f" x="433.496094"/>
     <use xlink:href="#DejaVuSans-66" x="494.677734"/>
     <use xlink:href="#DejaVuSans-20" x="529.882812"/>
     <use xlink:href="#DejaVuSans-41" x="561.669922"/>
     <use xlink:href="#DejaVuSans-45" x="630.078125"/>
     <use xlink:href="#DejaVuSans-44" x="693.261719"/>
     <use xlink:href="#DejaVuSans-73" x="770.263672"/>
     <use xlink:href="#DejaVuSans-20" x="822.363281"/>
     <use xlink:href="#DejaVuSans-69" x="854.150391"/>
     <use xlink:href="#DejaVuSans-6e" x="881.933594"/>
     <use xlink:href="#DejaVuSans-20" x="945.3125"/>
     <use xlink:href="#DejaVuSans-74" x="977.099609"/>
     <use xlink:href="#DejaVuSans-68" x="1016.308594"/>
     <use xlink:href="#DejaVuSans-65" x="1079.6875"/>
     <use xlink:href="#DejaVuSans-20" x="1141.210938"/>
     <use xlink:href="#DejaVuSans-4f" x="1172.998047"/>
     <use xlink:href="#DejaVuSans-70" x="1251.708984"/>
     <use xlink:href="#DejaVuSans-65" x="1315.185547"/>
     <use xlink:href="#DejaVuSans-6e" x="1376.708984"/>
     <use xlink:href="#DejaVuSans-53" x="1440.087891"/>
     <use xlink:href="#DejaVuSans-74" x="1503.564453"/>
     <use xlink:href="#DejaVuSans-72" x="1542.773438"/>
     <use xlink:href="#DejaVuSans-65" x="1581.636719"/>
     <use xlink:href="#DejaVuSans-65" x="1643.160156"/>
     <use xlink:href="#DejaVuSans-74" x="1704.683594"/>
     <use xlink:href="#DejaVuSans-4d" x="1743.892578"/>
     <use xlink:href="#DejaVuSans-61" x="1830.171875"/>
     <use xlink:href="#DejaVuSans-70" x="1891.451172"/>
     <use xlink:href="#DejaVuSans-20" x="1954.927734"/>
     <use xlink:href="#DejaVuSans-64" x="1986.714844"/>
     <use xlink:href="#DejaVuSans-61" x="2050.191406"/>
     <use xlink:href="#DejaVuSans-74" x="2111.470703"/>
     <use xlink:href="#DejaVuSans-61" x="2150.679688"/>
     <use xlink:href="#DejaVuSans-62" x="2211.958984"/>
     <use xlink:href="#DejaVuSans-61" x="2275.435547"/>
     <use xlink:href="#DejaVuSans-73" x="2336.714844"/>
     <use xlink:href="#DejaVuSans-65" x="2388.814453"/>
     <use xlink:href="#DejaVuSans-20" x="2450.337891"/>
     <use xlink:href="#DejaVuSans-69" x="2482.125"/>
     <use xlink:href="#DejaVuSans-6e" x="2509.908203"/>
     <use xlink:href="#DejaVuSans-20" x="2573.287109"/>
     <use xlink:href="#DejaVuSans-50" x="2605.074219"/>
     <use xlink:href="#DejaVuSans-6f" x="2661.751953"/>
     <use xlink:href="#DejaVuSans-6c" x="2722.933594"/>
     <use xlink:href="#DejaVuSans-61" x="2750.716797"/>
     <use xlink:href="#DejaVuSans-6e" x="2811.996094"/>
     <use xlink:href="#DejaVuSans-64" x="2875.375"/>
     <use xlink:href="#DejaVuSans-20" x="2938.851562"/>
     <use xlink:href="#DejaVuSans-66" x="2970.638672"/>
     <use xlink:href="#DejaVuSans-72" x="3005.84375"/>
     <use xlink:href="#DejaVuSans-6f" x="3044.707031"/>
     <use xlink:href="#DejaVuSans-6d" x="3105.888672"/>
     <use xlink:href="#DejaVuSans-20" x="3203.300781"/>
     <use xlink:href="#DejaVuSans-32" x="3235.087891"/>
     <use xlink:href="#DejaVuSans-30" x="3298.710938"/>
     <use xlink:href="#DejaVuSans-32" x="3362.333984"/>
     <use xlink:href="#DejaVuSans-36" x="3425.957031"/>
     <use xlink:href="#DejaVuSans-2d" x="3489.580078"/>
     <use xlink:href="#DejaVuSans-30" x="3525.664062"/>
     <use xlink:href="#DejaVuSans-31" x="3589.287109"/>
     <use xlink:href="#DejaVuSans-2d" x="3652.910156"/>
     <use xlink:href="#DejaVuSans-30" x="3688.994141"/>
     <use xlink:href="#DejaVuSans-31" x="3752.617188"/>
     <use xlink:href="#DejaVuSans-2c" x="3816.240234"/>
     <use xlink:href="#DejaVuSans-20" x="3848.027344"/>
     <use xlink:href="#DejaVuSans-64" x="3879.814453"/>
     <use xlink:href="#DejaVuSans-61" x="3943.291016"/>
     <use xlink:href="#DejaVuSans-79" x="4004.570312"/>
     <use xlink:href="#DejaVuSans-20" x="4063.75"/>
     <use xlink:href="#DejaVuSans-62" x="4095.537109"/>
     <use xlink:href="#DejaVuSans-79" x="4159.013672"/>
     <use xlink:href="#DejaVuSans-20" x="4218.193359"/>
     <use xlink:href="#DejaVuSans-64" x="4249.980469"/>
     <use xlink:href="#DejaVuSans-61" x="4313.457031"/>
     <use xlink:href="#DejaVuSans-79" x="4374.736328"/>
     <use xlink:href="#DejaVuSans-2e" x="4419.666016"/>
     <use xlink:href="#DejaVuSans-20" x="4451.453125"/>
     <use xlink:href="#DejaVuSans-41" x="4483.240234"/>
     <use xlink:href="#DejaVuSans-73" x="4551.648438"/>
     <use xlink:href="#DejaVuSans-20" x="4603.748047"/>
     <use xlink:href="#DejaVuSans-61" x="4635.535156"/>
     <use xlink:href="#DejaVuSans-74" x="4696.814453"/>
     <use xlink:href="#DejaVuSans-3a" x="4736.023438"/>
     <use xlink:href="#DejaVuSans-20" x="4769.714844"/>
     <use xlink:href="#DejaVuSans-32" x="4801.501953"/>
     <use xlink:href="#DejaVuSans-30" x="4865.125"/>
     <use xlink:href="#DejaVuSans-32" x="4928.748047"/>
     <use xlink:href="#DejaVuSans-36" x="4992.371094"/>
     <use xlink:href="#DejaVuSans-2d" x="5055.994141"/>
     <use xlink:href="#DejaVuSans-30" x="5092.078125"/>
     <use xlink:href="#DejaVuSans-33" x="5155.701172"/>
     <use xlink:href="#DejaVuSans-2d" x="5219.324219"/>
     <use xlink:href="#DejaVuSans-30" x="5255.408203"/>
     <use xlink:href="#DejaVuSans-32" x="5319.03125"/>
    </g>
   </g>
  </g>
 </g>
 <defs>
  <clipPath id="pbdad184b12">
   <rect x="144" y="69.12" width="892.8" height="443.52"/>
  </clipPath>
 </defs>
</svg>
