<?xml version="1.0" encoding="utf-8" standalone="no"?>
<!DOCTYPE svg PUBLIC "-//W3C//DTD SVG 1.1//EN"
  "http://www.w3.org/Graphics/SVG/1.1/DTD/svg11.dtd">
<svg xmlns:xlink="http://www.w3.org/1999/xlink" width="1152pt" height="576pt" viewBox="0 0 1152 576" xmlns="http://www.w3.org/2000/svg" version="1.1">
 <metadata>
  <rdf:RDF xmlns:dc="http://purl.org/dc/elements/1.1/" xmlns:cc="http://creativecommons.org/ns#" xmlns:rdf="http://www.w3.org/1999/02/22-rdf-syntax-ns#">
   <cc:Work>
    <dc:type rdf:resource="http://purl.org/dc/dcmitype/StillImage"/>
    <dc:date>2022-04-04T20:33:59.682112</dc:date>
    <dc:format>image/svg+xml</dc:format>
    <dc:creator>
     <cc:Agent>
      <dc:title>Matplotlib v3.5.1, https://matplotlib.org/</dc:title>
     </cc:Agent>
    </dc:creator>
   </cc:Work>
  </rdf:RDF>
 </metadata>
 <defs>
  <style type="text/css">*{stroke-linejoin: round; stroke-linecap: butt}</style>
 </defs>
 <g id="figure_1">
  <g id="patch_1">
   <path d="M 0 576 
L 1152 576 
L 1152 0 
L 0 0 
z
" style="fill: #ffffff"/>
  </g>
  <g id="axes_1">
   <g id="patch_2">
    <path d="M 144 512.64 
L 1036.8 512.64 
L 1036.8 69.12 
L 144 69.12 
z
" style="fill: #ffffff"/>
   </g>
   <g id="PathCollection_1">
    <path d="M 184.581818 502.48 
C 187.233849 502.48 189.777617 501.426337 191.652886 499.551068 
C 193.528155 497.675799 194.581818 495.132031 194.581818 492.48 
C 194.581818 489.827969 193.528155 487.284201 191.652886 485.408932 
C 189.777617 483.533663 187.233849 482.48 184.581818 482.48 
C 181.929787 482.48 179.386019 483.533663 177.51075 485.408932 
C 175.635481 487.284201 174.581818 489.827969 174.581818 492.48 
C 174.581818 495.132031 175.635481 497.675799 177.51075 499.551068 
C 179.386019 501.426337 181.929787 502.48 184.581818 502.48 
z
" clip-path="url(#pa2e6c37241)" style="fill: #1f77b4; fill-opacity: 0.3; stroke: #1f77b4; stroke-opacity: 0.3"/>
    <path d="M 193.309091 494.768947 
C 194.03538 494.768947 194.732019 494.48039 195.245583 493.966826 
C 195.759146 493.453263 196.047704 492.756623 196.047704 492.030335 
C 196.047704 491.304046 195.759146 490.607406 195.245583 490.093843 
C 194.732019 489.580279 194.03538 489.291722 193.309091 489.291722 
C 192.582802 489.291722 191.886163 489.580279 191.372599 490.093843 
C 190.859036 490.607406 190.570478 491.304046 190.570478 492.030335 
C 190.570478 492.756623 190.859036 493.453263 191.372599 493.966826 
C 191.886163 494.48039 192.582802 494.768947 193.309091 494.768947 
z
" clip-path="url(#pa2e6c37241)" style="fill: #1f77b4; fill-opacity: 0.3; stroke: #1f77b4; stroke-opacity: 0.3"/>
    <path d="M 202.036364 495.003987 
C 203.063491 495.003987 204.048688 494.595905 204.774976 493.869617 
C 205.501265 493.143328 205.909347 492.158131 205.909347 491.131004 
C 205.909347 490.103877 205.501265 489.11868 204.774976 488.392391 
C 204.048688 487.666102 203.063491 487.25802 202.036364 487.25802 
C 201.009236 487.25802 200.024039 487.666102 199.297751 488.392391 
C 198.571462 489.11868 198.16338 490.103877 198.16338 491.131004 
C 198.16338 492.158131 198.571462 493.143328 199.297751 493.869617 
C 200.024039 494.595905 201.009236 495.003987 202.036364 495.003987 
z
" clip-path="url(#pa2e6c37241)" style="fill: #1f77b4; fill-opacity: 0.3; stroke: #1f77b4; stroke-opacity: 0.3"/>
    <path d="M 210.763636 494.265085 
C 211.873061 494.265085 212.937195 493.824306 213.721676 493.039824 
C 214.506158 492.255343 214.946936 491.191209 214.946936 490.081784 
C 214.946936 488.97236 214.506158 487.908226 213.721676 487.123744 
C 212.937195 486.339263 211.873061 485.898484 210.763636 485.898484 
C 209.654212 485.898484 208.590078 486.339263 207.805596 487.123744 
C 207.021115 487.908226 206.580336 488.97236 206.580336 490.081784 
C 206.580336 491.191209 207.021115 492.255343 207.805596 493.039824 
C 208.590078 493.824306 209.654212 494.265085 210.763636 494.265085 
z
" clip-path="url(#pa2e6c37241)" style="fill: #1f77b4; fill-opacity: 0.3; stroke: #1f77b4; stroke-opacity: 0.3"/>
    <path d="M 219.490909 492.370732 
C 220.217198 492.370732 220.913837 492.082174 221.427401 491.568611 
C 221.940964 491.055047 222.229522 490.358408 222.229522 489.632119 
C 222.229522 488.90583 221.940964 488.209191 221.427401 487.695627 
C 220.913837 487.182064 220.217198 486.893506 219.490909 486.893506 
C 218.76462 486.893506 218.067981 487.182064 217.554417 487.695627 
C 217.040854 488.209191 216.752296 488.90583 216.752296 489.632119 
C 216.752296 490.358408 217.040854 491.055047 217.554417 491.568611 
C 218.067981 492.082174 218.76462 492.370732 219.490909 492.370732 
z
" clip-path="url(#pa2e6c37241)" style="fill: #1f77b4; fill-opacity: 0.3; stroke: #1f77b4; stroke-opacity: 0.3"/>
    <path d="M 228.218182 491.56841 
C 228.811194 491.56841 229.379998 491.332804 229.799321 490.913481 
C 230.218644 490.494158 230.45425 489.925354 230.45425 489.332342 
C 230.45425 488.73933 230.218644 488.170526 229.799321 487.751203 
C 229.379998 487.33188 228.811194 487.096274 228.218182 487.096274 
C 227.62517 487.096274 227.056366 487.33188 226.637043 487.751203 
C 226.21772 488.170526 225.982114 488.73933 225.982114 489.332342 
C 225.982114 489.925354 226.21772 490.494158 226.637043 490.913481 
C 227.056366 491.332804 227.62517 491.56841 228.218182 491.56841 
z
" clip-path="url(#pa2e6c37241)" style="fill: #1f77b4; fill-opacity: 0.3; stroke: #1f77b4; stroke-opacity: 0.3"/>
    <path d="M 236.945455 491.895066 
C 237.7841 491.895066 238.58851 491.561868 239.181523 490.968856 
C 239.774535 490.375844 240.107732 489.571434 240.107732 488.732788 
C 240.107732 487.894142 239.774535 487.089732 239.181523 486.49672 
C 238.58851 485.903708 237.7841 485.57051 236.945455 485.57051 
C 236.106809 485.57051 235.302399 485.903708 234.709387 486.49672 
C 234.116374 487.089732 233.783177 487.894142 233.783177 488.732788 
C 233.783177 489.571434 234.116374 490.375844 234.709387 490.968856 
C 235.302399 491.561868 236.106809 491.895066 236.945455 491.895066 
z
" clip-path="url(#pa2e6c37241)" style="fill: #1f77b4; fill-opacity: 0.3; stroke: #1f77b4; stroke-opacity: 0.3"/>
    <path d="M 245.672727 492.485115 
C 247.184618 492.485115 248.634788 491.884435 249.703856 490.815367 
C 250.772924 489.746299 251.373604 488.296128 251.373604 486.784238 
C 251.373604 485.272348 250.772924 483.822177 249.703856 482.753109 
C 248.634788 481.684041 247.184618 481.083361 245.672727 481.083361 
C 244.160837 481.083361 242.710666 481.684041 241.641598 482.753109 
C 240.572531 483.822177 239.97185 485.272348 239.97185 486.784238 
C 239.97185 488.296128 240.572531 489.746299 241.641598 490.815367 
C 242.710666 491.884435 244.160837 492.485115 245.672727 492.485115 
z
" clip-path="url(#pa2e6c37241)" style="fill: #1f77b4; fill-opacity: 0.3; stroke: #1f77b4; stroke-opacity: 0.3"/>
    <path d="M 254.4 490.178658 
C 255.657969 490.178658 256.864584 489.678862 257.754102 488.789344 
C 258.64362 487.899825 259.143416 486.69321 259.143416 485.435242 
C 259.143416 484.177273 258.64362 482.970658 257.754102 482.08114 
C 256.864584 481.191621 255.657969 480.691825 254.4 480.691825 
C 253.142031 480.691825 251.935416 481.191621 251.045898 482.08114 
C 250.15638 482.970658 249.656584 484.177273 249.656584 485.435242 
C 249.656584 486.69321 250.15638 487.899825 251.045898 488.789344 
C 251.935416 489.678862 253.142031 490.178658 254.4 490.178658 
z
" clip-path="url(#pa2e6c37241)" style="fill: #1f77b4; fill-opacity: 0.3; stroke: #1f77b4; stroke-opacity: 0.3"/>
    <path d="M 263.127273 488.408894 
C 264.1544 488.408894 265.139597 488.000812 265.865886 487.274524 
C 266.592174 486.548235 267.000256 485.563038 267.000256 484.535911 
C 267.000256 483.508784 266.592174 482.523587 265.865886 481.797298 
C 265.139597 481.071009 264.1544 480.662927 263.127273 480.662927 
C 262.100146 480.662927 261.114949 481.071009 260.38866 481.797298 
C 259.662371 482.523587 259.254289 483.508784 259.254289 484.535911 
C 259.254289 485.563038 259.662371 486.548235 260.38866 487.274524 
C 261.114949 488.000812 262.100146 488.408894 263.127273 488.408894 
z
" clip-path="url(#pa2e6c37241)" style="fill: #1f77b4; fill-opacity: 0.3; stroke: #1f77b4; stroke-opacity: 0.3"/>
    <path d="M 271.854545 487.322002 
C 272.79218 487.322002 273.691538 486.949476 274.354545 486.286468 
C 275.017553 485.623461 275.390079 484.724103 275.390079 483.786468 
C 275.390079 482.848834 275.017553 481.949476 274.354545 481.286468 
C 273.691538 480.623461 272.79218 480.250934 271.854545 480.250934 
C 270.916911 480.250934 270.017553 480.623461 269.354545 481.286468 
C 268.691538 481.949476 268.319012 482.848834 268.319012 483.786468 
C 268.319012 484.724103 268.691538 485.623461 269.354545 486.286468 
C 270.017553 486.949476 270.916911 487.322002 271.854545 487.322002 
z
" clip-path="url(#pa2e6c37241)" style="fill: #1f77b4; fill-opacity: 0.3; stroke: #1f77b4; stroke-opacity: 0.3"/>
    <path d="M 280.581818 487.877316 
C 283.097756 487.877316 285.510986 486.877724 287.290022 485.098687 
C 289.069059 483.319651 290.068651 480.906421 290.068651 478.390483 
C 290.068651 475.874546 289.069059 473.461316 287.290022 471.682279 
C 285.510986 469.903243 283.097756 468.90365 280.581818 468.90365 
C 278.065881 468.90365 275.652651 469.903243 273.873614 471.682279 
C 272.094578 473.461316 271.094985 475.874546 271.094985 478.390483 
C 271.094985 480.906421 272.094578 483.319651 273.873614 485.098687 
C 275.652651 486.877724 278.065881 487.877316 280.581818 487.877316 
z
" clip-path="url(#pa2e6c37241)" style="fill: #1f77b4; fill-opacity: 0.3; stroke: #1f77b4; stroke-opacity: 0.3"/>
    <path d="M 289.309091 481.957258 
C 292.361808 481.957258 295.289904 480.744401 297.448501 478.585804 
C 299.607098 476.427208 300.819955 473.499111 300.819955 470.446394 
C 300.819955 467.393677 299.607098 464.465581 297.448501 462.306984 
C 295.289904 460.148387 292.361808 458.93553 289.309091 458.93553 
C 286.256374 458.93553 283.328277 460.148387 281.169681 462.306984 
C 279.011084 464.465581 277.798226 467.393677 277.798226 470.446394 
C 277.798226 473.499111 279.011084 476.427208 281.169681 478.585804 
C 283.328277 480.744401 286.256374 481.957258 289.309091 481.957258 
z
" clip-path="url(#pa2e6c37241)" style="fill: #1f77b4; fill-opacity: 0.3; stroke: #1f77b4; stroke-opacity: 0.3"/>
    <path d="M 298.036364 474.198721 
C 299.548254 474.198721 300.998425 473.598041 302.067493 472.528973 
C 303.13656 471.459905 303.737241 470.009734 303.737241 468.497844 
C 303.737241 466.985954 303.13656 465.535783 302.067493 464.466715 
C 300.998425 463.397647 299.548254 462.796967 298.036364 462.796967 
C 296.524473 462.796967 295.074303 463.397647 294.005235 464.466715 
C 292.936167 465.535783 292.335487 466.985954 292.335487 468.497844 
C 292.335487 470.009734 292.936167 471.459905 294.005235 472.528973 
C 295.074303 473.598041 296.524473 474.198721 298.036364 474.198721 
z
" clip-path="url(#pa2e6c37241)" style="fill: #1f77b4; fill-opacity: 0.3; stroke: #1f77b4; stroke-opacity: 0.3"/>
    <path d="M 306.763636 472.666693 
C 308.942502 472.666693 311.032421 471.801021 312.573111 470.26033 
C 314.113802 468.719639 314.979475 466.629721 314.979475 464.450855 
C 314.979475 462.271989 314.113802 460.182071 312.573111 458.64138 
C 311.032421 457.100689 308.942502 456.235017 306.763636 456.235017 
C 304.584771 456.235017 302.494852 457.100689 300.954161 458.64138 
C 299.413471 460.182071 298.547798 462.271989 298.547798 464.450855 
C 298.547798 466.629721 299.413471 468.719639 300.954161 470.26033 
C 302.494852 471.801021 304.584771 472.666693 306.763636 472.666693 
z
" clip-path="url(#pa2e6c37241)" style="fill: #1f77b4; fill-opacity: 0.3; stroke: #1f77b4; stroke-opacity: 0.3"/>
    <path d="M 315.490909 468.136771 
C 318.45597 468.136771 321.299989 466.95874 323.396603 464.862125 
C 325.493218 462.765511 326.671249 459.921492 326.671249 456.956431 
C 326.671249 453.99137 325.493218 451.147352 323.396603 449.050737 
C 321.299989 446.954122 318.45597 445.776091 315.490909 445.776091 
C 312.525848 445.776091 309.68183 446.954122 307.585215 449.050737 
C 305.4886 451.147352 304.310569 453.99137 304.310569 456.956431 
C 304.310569 459.921492 305.4886 462.765511 307.585215 464.862125 
C 309.68183 466.95874 312.525848 468.136771 315.490909 468.136771 
z
" clip-path="url(#pa2e6c37241)" style="fill: #1f77b4; fill-opacity: 0.3; stroke: #1f77b4; stroke-opacity: 0.3"/>
    <path d="M 324.218182 459.22937 
C 327.921542 459.22937 331.47372 457.75801 334.092391 455.139339 
C 336.711061 452.520668 338.182422 448.96849 338.182422 445.26513 
C 338.182422 441.56177 336.711061 438.009592 334.092391 435.390921 
C 331.47372 432.77225 327.921542 431.30089 324.218182 431.30089 
C 320.514822 431.30089 316.962644 432.77225 314.343973 435.390921 
C 311.725302 438.009592 310.253942 441.56177 310.253942 445.26513 
C 310.253942 448.96849 311.725302 452.520668 314.343973 455.139339 
C 316.962644 457.75801 320.514822 459.22937 324.218182 459.22937 
z
" clip-path="url(#pa2e6c37241)" style="fill: #1f77b4; fill-opacity: 0.3; stroke: #1f77b4; stroke-opacity: 0.3"/>
    <path d="M 332.945455 449.412971 
C 335.317503 449.412971 337.592718 448.470546 339.27001 446.793254 
C 340.947302 445.115963 341.889726 442.840748 341.889726 440.468699 
C 341.889726 438.09665 340.947302 435.821435 339.27001 434.144144 
C 337.592718 432.466852 335.317503 431.524427 332.945455 431.524427 
C 330.573406 431.524427 328.298191 432.466852 326.620899 434.144144 
C 324.943608 435.821435 324.001183 438.09665 324.001183 440.468699 
C 324.001183 442.840748 324.943608 445.115963 326.620899 446.793254 
C 328.298191 448.470546 330.573406 449.412971 332.945455 449.412971 
z
" clip-path="url(#pa2e6c37241)" style="fill: #1f77b4; fill-opacity: 0.3; stroke: #1f77b4; stroke-opacity: 0.3"/>
    <path d="M 341.672727 444.617342 
C 343.726982 444.617342 345.697376 443.801178 347.149953 442.348601 
C 348.60253 440.896024 349.418694 438.92563 349.418694 436.871375 
C 349.418694 434.817121 348.60253 432.846727 347.149953 431.39415 
C 345.697376 429.941573 343.726982 429.125409 341.672727 429.125409 
C 339.618473 429.125409 337.648079 429.941573 336.195502 431.39415 
C 334.742924 432.846727 333.926761 434.817121 333.926761 436.871375 
C 333.926761 438.92563 334.742924 440.896024 336.195502 442.348601 
C 337.648079 443.801178 339.618473 444.617342 341.672727 444.617342 
z
" clip-path="url(#pa2e6c37241)" style="fill: #1f77b4; fill-opacity: 0.3; stroke: #1f77b4; stroke-opacity: 0.3"/>
    <path d="M 350.4 440.549939 
C 351.852577 440.549939 353.245856 439.972824 354.272983 438.945697 
C 355.300111 437.91857 355.877226 436.525291 355.877226 435.072714 
C 355.877226 433.620137 355.300111 432.226858 354.272983 431.19973 
C 353.245856 430.172603 351.852577 429.595488 350.4 429.595488 
C 348.947423 429.595488 347.554144 430.172603 346.527017 431.19973 
C 345.499889 432.226858 344.922774 433.620137 344.922774 435.072714 
C 344.922774 436.525291 345.499889 437.91857 346.527017 438.945697 
C 347.554144 439.972824 348.947423 440.549939 350.4 440.549939 
z
" clip-path="url(#pa2e6c37241)" style="fill: #1f77b4; fill-opacity: 0.3; stroke: #1f77b4; stroke-opacity: 0.3"/>
    <path d="M 359.127273 432.713422 
C 364.106457 432.713422 368.882376 430.735171 372.403191 427.214357 
C 375.924005 423.693542 377.902256 418.917622 377.902256 413.938439 
C 377.902256 408.959255 375.924005 404.183335 372.403191 400.662521 
C 368.882376 397.141706 364.106457 395.163455 359.127273 395.163455 
C 354.148089 395.163455 349.372169 397.141706 345.851355 400.662521 
C 342.33054 404.183335 340.352289 408.959255 340.352289 413.938439 
C 340.352289 418.917622 342.33054 423.693542 345.851355 427.214357 
C 349.372169 430.735171 354.148089 432.713422 359.127273 432.713422 
z
" clip-path="url(#pa2e6c37241)" style="fill: #1f77b4; fill-opacity: 0.3; stroke: #1f77b4; stroke-opacity: 0.3"/>
    <path d="M 367.854545 416.784427 
C 371.312371 416.784427 374.629038 415.410619 377.07409 412.965567 
C 379.519142 410.520515 380.89295 407.203848 380.89295 403.746022 
C 380.89295 400.288197 379.519142 396.97153 377.07409 394.526478 
C 374.629038 392.081426 371.312371 390.707617 367.854545 390.707617 
C 364.39672 390.707617 361.080053 392.081426 358.635001 394.526478 
C 356.189949 396.97153 354.816141 400.288197 354.816141 403.746022 
C 354.816141 407.203848 356.189949 410.520515 358.635001 412.965567 
C 361.080053 415.410619 364.39672 416.784427 367.854545 416.784427 
z
" clip-path="url(#pa2e6c37241)" style="fill: #1f77b4; fill-opacity: 0.3; stroke: #1f77b4; stroke-opacity: 0.3"/>
    <path d="M 376.581818 407.904505 
C 378.678433 407.904505 380.689458 407.071511 382.171988 405.58898 
C 383.654519 404.10645 384.487512 402.095425 384.487512 399.99881 
C 384.487512 397.902196 383.654519 395.891171 382.171988 394.40864 
C 380.689458 392.92611 378.678433 392.093116 376.581818 392.093116 
C 374.485204 392.093116 372.474179 392.92611 370.991648 394.40864 
C 369.509118 395.891171 368.676124 397.902196 368.676124 399.99881 
C 368.676124 402.095425 369.509118 404.10645 370.991648 405.58898 
C 372.474179 407.071511 374.485204 407.904505 376.581818 407.904505 
z
" clip-path="url(#pa2e6c37241)" style="fill: #1f77b4; fill-opacity: 0.3; stroke: #1f77b4; stroke-opacity: 0.3"/>
    <path d="M 385.309091 400.019521 
C 389.726932 400.019521 393.964425 398.264294 397.08831 395.140409 
C 400.212195 392.016523 401.967422 387.779031 401.967422 383.36119 
C 401.967422 378.943349 400.212195 374.705856 397.08831 371.581971 
C 393.964425 368.458085 389.726932 366.702858 385.309091 366.702858 
C 380.89125 366.702858 376.653757 368.458085 373.529872 371.581971 
C 370.405987 374.705856 368.65076 378.943349 368.65076 383.36119 
C 368.65076 387.779031 370.405987 392.016523 373.529872 395.140409 
C 376.653757 398.264294 380.89125 400.019521 385.309091 400.019521 
z
" clip-path="url(#pa2e6c37241)" style="fill: #1f77b4; fill-opacity: 0.3; stroke: #1f77b4; stroke-opacity: 0.3"/>
    <path d="M 394.036364 387.312824 
C 396.753887 387.312824 399.360473 386.233141 401.282052 384.311562 
C 403.203631 382.389983 404.283314 379.783397 404.283314 377.065874 
C 404.283314 374.34835 403.203631 371.741764 401.282052 369.820185 
C 399.360473 367.898606 396.753887 366.818923 394.036364 366.818923 
C 391.318841 366.818923 388.712254 367.898606 386.790675 369.820185 
C 384.869096 371.741764 383.789413 374.34835 383.789413 377.065874 
C 383.789413 379.783397 384.869096 382.389983 386.790675 384.311562 
C 388.712254 386.233141 391.318841 387.312824 394.036364 387.312824 
z
" clip-path="url(#pa2e6c37241)" style="fill: #1f77b4; fill-opacity: 0.3; stroke: #1f77b4; stroke-opacity: 0.3"/>
    <path d="M 402.763636 381.156721 
C 405.279574 381.156721 407.692804 380.157129 409.47184 378.378092 
C 411.250877 376.599056 412.250469 374.185826 412.250469 371.669888 
C 412.250469 369.153951 411.250877 366.740721 409.47184 364.961685 
C 407.692804 363.182648 405.279574 362.183055 402.763636 362.183055 
C 400.247699 362.183055 397.834469 363.182648 396.055432 364.961685 
C 394.276396 366.740721 393.276803 369.153951 393.276803 371.669888 
C 393.276803 374.185826 394.276396 376.599056 396.055432 378.378092 
C 397.834469 380.157129 400.247699 381.156721 402.763636 381.156721 
z
" clip-path="url(#pa2e6c37241)" style="fill: #1f77b4; fill-opacity: 0.3; stroke: #1f77b4; stroke-opacity: 0.3"/>
    <path d="M 411.490909 375.152062 
C 414.600691 375.152062 417.583523 373.916532 419.782471 371.717584 
C 421.981419 369.518636 423.216948 366.535804 423.216948 363.426022 
C 423.216948 360.31624 421.981419 357.333408 419.782471 355.13446 
C 417.583523 352.935512 414.600691 351.699983 411.490909 351.699983 
C 408.381127 351.699983 405.398295 352.935512 403.199347 355.13446 
C 401.000399 357.333408 399.76487 360.31624 399.76487 363.426022 
C 399.76487 366.535804 401.000399 369.518636 403.199347 371.717584 
C 405.398295 373.916532 408.381127 375.152062 411.490909 375.152062 
z
" clip-path="url(#pa2e6c37241)" style="fill: #1f77b4; fill-opacity: 0.3; stroke: #1f77b4; stroke-opacity: 0.3"/>
    <path d="M 420.218182 366.212114 
C 421.155816 366.212114 422.055174 365.839588 422.718182 365.17658 
C 423.38119 364.513572 423.753716 363.614214 423.753716 362.67658 
C 423.753716 361.738945 423.38119 360.839588 422.718182 360.17658 
C 422.055174 359.513572 421.155816 359.141046 420.218182 359.141046 
C 419.280547 359.141046 418.38119 359.513572 417.718182 360.17658 
C 417.055174 360.839588 416.682648 361.738945 416.682648 362.67658 
C 416.682648 363.614214 417.055174 364.513572 417.718182 365.17658 
C 418.38119 365.839588 419.280547 366.212114 420.218182 366.212114 
z
" clip-path="url(#pa2e6c37241)" style="fill: #1f77b4; fill-opacity: 0.3; stroke: #1f77b4; stroke-opacity: 0.3"/>
    <path d="M 428.945455 366.628215 
C 431.662978 366.628215 434.269564 365.548531 436.191143 363.626952 
C 438.112722 361.705373 439.192405 359.098787 439.192405 356.381264 
C 439.192405 353.663741 438.112722 351.057155 436.191143 349.135576 
C 434.269564 347.213997 431.662978 346.134313 428.945455 346.134313 
C 426.227931 346.134313 423.621345 347.213997 421.699766 349.135576 
C 419.778187 351.057155 418.698504 353.663741 418.698504 356.381264 
C 418.698504 359.098787 419.778187 361.705373 421.699766 363.626952 
C 423.621345 365.548531 426.227931 366.628215 428.945455 366.628215 
z
" clip-path="url(#pa2e6c37241)" style="fill: #1f77b4; fill-opacity: 0.3; stroke: #1f77b4; stroke-opacity: 0.3"/>
    <path d="M 437.672727 360.529105 
C 440.044776 360.529105 442.319991 359.58668 443.997283 357.909388 
C 445.674574 356.232096 446.616999 353.956881 446.616999 351.584833 
C 446.616999 349.212784 445.674574 346.937569 443.997283 345.260277 
C 442.319991 343.582986 440.044776 342.640561 437.672727 342.640561 
C 435.300679 342.640561 433.025464 343.582986 431.348172 345.260277 
C 429.67088 346.937569 428.728455 349.212784 428.728455 351.584833 
C 428.728455 353.956881 429.67088 356.232096 431.348172 357.909388 
C 433.025464 359.58668 435.300679 360.529105 437.672727 360.529105 
z
" clip-path="url(#pa2e6c37241)" style="fill: #1f77b4; fill-opacity: 0.3; stroke: #1f77b4; stroke-opacity: 0.3"/>
    <path d="M 446.4 355.733476 
C 448.454254 355.733476 450.424648 354.917312 451.877226 353.464735 
C 453.329803 352.012158 454.145967 350.041764 454.145967 347.987509 
C 454.145967 345.933255 453.329803 343.962861 451.877226 342.510284 
C 450.424648 341.057707 448.454254 340.241543 446.4 340.241543 
C 444.345746 340.241543 442.375352 341.057707 440.922774 342.510284 
C 439.470197 343.962861 438.654033 345.933255 438.654033 347.987509 
C 438.654033 350.041764 439.470197 352.012158 440.922774 353.464735 
C 442.375352 354.917312 444.345746 355.733476 446.4 355.733476 
z
" clip-path="url(#pa2e6c37241)" style="fill: #1f77b4; fill-opacity: 0.3; stroke: #1f77b4; stroke-opacity: 0.3"/>
    <path d="M 455.127273 343.300147 
C 460.562319 343.300147 465.775491 341.14078 469.618649 337.297622 
C 473.461808 333.454464 475.621174 328.241292 475.621174 322.806245 
C 475.621174 317.371199 473.461808 312.158027 469.618649 308.314869 
C 465.775491 304.471711 460.562319 302.312344 455.127273 302.312344 
C 449.692227 302.312344 444.479054 304.471711 440.635896 308.314869 
C 436.792738 312.158027 434.633371 317.371199 434.633371 322.806245 
C 434.633371 328.241292 436.792738 333.454464 440.635896 337.297622 
C 444.479054 341.14078 449.692227 343.300147 455.127273 343.300147 
z
" clip-path="url(#pa2e6c37241)" style="fill: #1f77b4; fill-opacity: 0.3; stroke: #1f77b4; stroke-opacity: 0.3"/>
    <path d="M 463.854545 326.732585 
C 465.531837 326.732585 467.140657 326.06619 468.326681 324.880166 
C 469.512706 323.694141 470.179101 322.085321 470.179101 320.40803 
C 470.179101 318.730738 469.512706 317.121918 468.326681 315.935894 
C 467.140657 314.749869 465.531837 314.083474 463.854545 314.083474 
C 462.177254 314.083474 460.568434 314.749869 459.382409 315.935894 
C 458.196385 317.121918 457.52999 318.730738 457.52999 320.40803 
C 457.52999 322.085321 458.196385 323.694141 459.382409 324.880166 
C 460.568434 326.06619 462.177254 326.732585 463.854545 326.732585 
z
" clip-path="url(#pa2e6c37241)" style="fill: #1f77b4; fill-opacity: 0.3; stroke: #1f77b4; stroke-opacity: 0.3"/>
    <path d="M 472.581818 324.479848 
C 475.13246 324.479848 477.578977 323.466467 479.382553 321.662891 
C 481.18613 319.859315 482.19951 317.412798 482.19951 314.862156 
C 482.19951 312.311514 481.18613 309.864997 479.382553 308.061421 
C 477.578977 306.257845 475.13246 305.244464 472.581818 305.244464 
C 470.031176 305.244464 467.584659 306.257845 465.781083 308.061421 
C 463.977507 309.864997 462.964126 312.311514 462.964126 314.862156 
C 462.964126 317.412798 463.977507 319.859315 465.781083 321.662891 
C 467.584659 323.466467 470.031176 324.479848 472.581818 324.479848 
z
" clip-path="url(#pa2e6c37241)" style="fill: #1f77b4; fill-opacity: 0.3; stroke: #1f77b4; stroke-opacity: 0.3"/>
    <path d="M 481.309091 319.027314 
C 483.447227 319.027314 485.498078 318.177823 487.009968 316.665933 
C 488.521858 315.154043 489.371349 313.103192 489.371349 310.965056 
C 489.371349 308.82692 488.521858 306.776069 487.009968 305.264179 
C 485.498078 303.752288 483.447227 302.902798 481.309091 302.902798 
C 479.170955 302.902798 477.120104 303.752288 475.608214 305.264179 
C 474.096323 306.776069 473.246833 308.82692 473.246833 310.965056 
C 473.246833 313.103192 474.096323 315.154043 475.608214 316.665933 
C 477.120104 318.177823 479.170955 319.027314 481.309091 319.027314 
z
" clip-path="url(#pa2e6c37241)" style="fill: #1f77b4; fill-opacity: 0.3; stroke: #1f77b4; stroke-opacity: 0.3"/>
    <path d="M 490.036364 313.938708 
C 491.063491 313.938708 492.048688 313.530626 492.774976 312.804338 
C 493.501265 312.078049 493.909347 311.092852 493.909347 310.065725 
C 493.909347 309.038598 493.501265 308.053401 492.774976 307.327112 
C 492.048688 306.600824 491.063491 306.192742 490.036364 306.192742 
C 489.009236 306.192742 488.024039 306.600824 487.297751 307.327112 
C 486.571462 308.053401 486.16338 309.038598 486.16338 310.065725 
C 486.16338 311.092852 486.571462 312.078049 487.297751 312.804338 
C 488.024039 313.530626 489.009236 313.938708 490.036364 313.938708 
z
" clip-path="url(#pa2e6c37241)" style="fill: #1f77b4; fill-opacity: 0.3; stroke: #1f77b4; stroke-opacity: 0.3"/>
    <path d="M 498.763636 314.189061 
C 501.208688 314.189061 503.553926 313.217632 505.282839 311.488719 
C 507.011751 309.759806 507.983181 307.414568 507.983181 304.969517 
C 507.983181 302.524465 507.011751 300.179227 505.282839 298.450314 
C 503.553926 296.721402 501.208688 295.749972 498.763636 295.749972 
C 496.318585 295.749972 493.973347 296.721402 492.244434 298.450314 
C 490.515521 300.179227 489.544092 302.524465 489.544092 304.969517 
C 489.544092 307.414568 490.515521 309.759806 492.244434 311.488719 
C 493.973347 313.217632 496.318585 314.189061 498.763636 314.189061 
z
" clip-path="url(#pa2e6c37241)" style="fill: #1f77b4; fill-opacity: 0.3; stroke: #1f77b4; stroke-opacity: 0.3"/>
    <path d="M 507.490909 304.688167 
C 511.987646 304.688167 516.300814 302.901594 519.480488 299.721921 
C 522.660161 296.542247 524.446734 292.229079 524.446734 287.732342 
C 524.446734 283.235605 522.660161 278.922437 519.480488 275.742763 
C 516.300814 272.56309 511.987646 270.776517 507.490909 270.776517 
C 502.994172 270.776517 498.681004 272.56309 495.50133 275.742763 
C 492.321657 278.922437 490.535084 283.235605 490.535084 287.732342 
C 490.535084 292.229079 492.321657 296.542247 495.50133 299.721921 
C 498.681004 302.901594 502.994172 304.688167 507.490909 304.688167 
z
" clip-path="url(#pa2e6c37241)" style="fill: #1f77b4; fill-opacity: 0.3; stroke: #1f77b4; stroke-opacity: 0.3"/>
    <path d="M 516.218182 291.889208 
C 518.552873 291.889208 520.792256 290.961625 522.443132 289.310749 
C 524.094008 287.659873 525.02159 285.42049 525.02159 283.085799 
C 525.02159 280.751108 524.094008 278.511725 522.443132 276.860849 
C 520.792256 275.209973 518.552873 274.282391 516.218182 274.282391 
C 513.883491 274.282391 511.644108 275.209973 509.993232 276.860849 
C 508.342356 278.511725 507.414773 280.751108 507.414773 283.085799 
C 507.414773 285.42049 508.342356 287.659873 509.993232 289.310749 
C 511.644108 290.961625 513.883491 291.889208 516.218182 291.889208 
z
" clip-path="url(#pa2e6c37241)" style="fill: #1f77b4; fill-opacity: 0.3; stroke: #1f77b4; stroke-opacity: 0.3"/>
    <path d="M 524.945455 285.871891 
C 525.883089 285.871891 526.782447 285.499365 527.445455 284.836357 
C 528.108462 284.173349 528.480988 283.273991 528.480988 282.336357 
C 528.480988 281.398722 528.108462 280.499365 527.445455 279.836357 
C 526.782447 279.173349 525.883089 278.800823 524.945455 278.800823 
C 524.00782 278.800823 523.108462 279.173349 522.445455 279.836357 
C 521.782447 280.499365 521.409921 281.398722 521.409921 282.336357 
C 521.409921 283.273991 521.782447 284.173349 522.445455 284.836357 
C 523.108462 285.499365 524.00782 285.871891 524.945455 285.871891 
z
" clip-path="url(#pa2e6c37241)" style="fill: #1f77b4; fill-opacity: 0.3; stroke: #1f77b4; stroke-opacity: 0.3"/>
    <path d="M 533.672727 284.173216 
C 537.538694 284.173216 541.24684 282.637251 543.980491 279.9036 
C 546.714142 277.16995 548.250107 273.461803 548.250107 269.595836 
C 548.250107 265.72987 546.714142 262.021723 543.980491 259.288072 
C 541.24684 256.554421 537.538694 255.018457 533.672727 255.018457 
C 529.806761 255.018457 526.098614 256.554421 523.364963 259.288072 
C 520.631312 262.021723 519.095348 265.72987 519.095348 269.595836 
C 519.095348 273.461803 520.631312 277.16995 523.364963 279.9036 
C 526.098614 282.637251 529.806761 284.173216 533.672727 284.173216 
z
" clip-path="url(#pa2e6c37241)" style="fill: #1f77b4; fill-opacity: 0.3; stroke: #1f77b4; stroke-opacity: 0.3"/>
    <path d="M 542.4 273.752702 
C 544.734691 273.752702 546.974074 272.825119 548.62495 271.174243 
C 550.275826 269.523367 551.203408 267.283985 551.203408 264.949294 
C 551.203408 262.614602 550.275826 260.37522 548.62495 258.724344 
C 546.974074 257.073468 544.734691 256.145885 542.4 256.145885 
C 540.065309 256.145885 537.825926 257.073468 536.17505 258.724344 
C 534.524174 260.37522 533.596592 262.614602 533.596592 264.949294 
C 533.596592 267.283985 534.524174 269.523367 536.17505 271.174243 
C 537.825926 272.825119 540.065309 273.752702 542.4 273.752702 
z
" clip-path="url(#pa2e6c37241)" style="fill: #1f77b4; fill-opacity: 0.3; stroke: #1f77b4; stroke-opacity: 0.3"/>
    <path d="M 551.127273 266.380544 
C 551.546596 266.380544 551.948801 266.213945 552.245307 265.917439 
C 552.541813 265.620933 552.708412 265.218728 552.708412 264.799405 
C 552.708412 264.380082 552.541813 263.977877 552.245307 263.681371 
C 551.948801 263.384865 551.546596 263.218266 551.127273 263.218266 
C 550.70795 263.218266 550.305745 263.384865 550.009239 263.681371 
C 549.712733 263.977877 549.546134 264.380082 549.546134 264.799405 
C 549.546134 265.218728 549.712733 265.620933 550.009239 265.917439 
C 550.305745 266.213945 550.70795 266.380544 551.127273 266.380544 
z
" clip-path="url(#pa2e6c37241)" style="fill: #1f77b4; fill-opacity: 0.3; stroke: #1f77b4; stroke-opacity: 0.3"/>
    <path d="M 559.854545 267.773058 
C 560.881673 267.773058 561.86687 267.364976 562.593158 266.638687 
C 563.319447 265.912399 563.727529 264.927202 563.727529 263.900074 
C 563.727529 262.872947 563.319447 261.88775 562.593158 261.161462 
C 561.86687 260.435173 560.881673 260.027091 559.854545 260.027091 
C 558.827418 260.027091 557.842221 260.435173 557.115933 261.161462 
C 556.389644 261.88775 555.981562 262.872947 555.981562 263.900074 
C 555.981562 264.927202 556.389644 265.912399 557.115933 266.638687 
C 557.842221 267.364976 558.827418 267.773058 559.854545 267.773058 
z
" clip-path="url(#pa2e6c37241)" style="fill: #1f77b4; fill-opacity: 0.3; stroke: #1f77b4; stroke-opacity: 0.3"/>
    <path d="M 568.581818 268.065232 
C 570.719954 268.065232 572.770805 267.215741 574.282695 265.703851 
C 575.794586 264.191961 576.644076 262.14111 576.644076 260.002974 
C 576.644076 257.864838 575.794586 255.813987 574.282695 254.302097 
C 572.770805 252.790207 570.719954 251.940716 568.581818 251.940716 
C 566.443682 251.940716 564.392831 252.790207 562.880941 254.302097 
C 561.369051 255.813987 560.51956 257.864838 560.51956 260.002974 
C 560.51956 262.14111 561.369051 264.191961 562.880941 265.703851 
C 564.392831 267.215741 566.443682 268.065232 568.581818 268.065232 
z
" clip-path="url(#pa2e6c37241)" style="fill: #1f77b4; fill-opacity: 0.3; stroke: #1f77b4; stroke-opacity: 0.3"/>
    <path d="M 577.309091 264.172697 
C 579.527939 264.172697 581.656208 263.291139 583.225171 261.722176 
C 584.794133 260.153214 585.675691 258.024945 585.675691 255.806097 
C 585.675691 253.587248 584.794133 251.45898 583.225171 249.890017 
C 581.656208 248.321054 579.527939 247.439496 577.309091 247.439496 
C 575.090243 247.439496 572.961974 248.321054 571.393011 249.890017 
C 569.824048 251.45898 568.942491 253.587248 568.942491 255.806097 
C 568.942491 258.024945 569.824048 260.153214 571.393011 261.722176 
C 572.961974 263.291139 575.090243 264.172697 577.309091 264.172697 
z
" clip-path="url(#pa2e6c37241)" style="fill: #1f77b4; fill-opacity: 0.3; stroke: #1f77b4; stroke-opacity: 0.3"/>
    <path d="M 586.036364 259.974946 
C 588.215229 259.974946 590.305148 259.109274 591.845839 257.568583 
C 593.386529 256.027892 594.252202 253.937974 594.252202 251.759108 
C 594.252202 249.580242 593.386529 247.490324 591.845839 245.949633 
C 590.305148 244.408942 588.215229 243.543269 586.036364 243.543269 
C 583.857498 243.543269 581.767579 244.408942 580.226889 245.949633 
C 578.686198 247.490324 577.820525 249.580242 577.820525 251.759108 
C 577.820525 253.937974 578.686198 256.027892 580.226889 257.568583 
C 581.767579 259.109274 583.857498 259.974946 586.036364 259.974946 
z
" clip-path="url(#pa2e6c37241)" style="fill: #1f77b4; fill-opacity: 0.3; stroke: #1f77b4; stroke-opacity: 0.3"/>
    <path d="M 594.763636 255.634505 
C 596.387667 255.634505 597.9454 254.989271 599.093763 253.840908 
C 600.242126 252.692545 600.887361 251.134811 600.887361 249.510781 
C 600.887361 247.88675 600.242126 246.329017 599.093763 245.180654 
C 597.9454 244.032291 596.387667 243.387056 594.763636 243.387056 
C 593.139606 243.387056 591.581872 244.032291 590.433509 245.180654 
C 589.285146 246.329017 588.639912 247.88675 588.639912 249.510781 
C 588.639912 251.134811 589.285146 252.692545 590.433509 253.840908 
C 591.581872 254.989271 593.139606 255.634505 594.763636 255.634505 
z
" clip-path="url(#pa2e6c37241)" style="fill: #1f77b4; fill-opacity: 0.3; stroke: #1f77b4; stroke-opacity: 0.3"/>
    <path d="M 603.490909 253.106052 
C 604.881646 253.106052 606.215609 252.553506 607.199008 251.570107 
C 608.182408 250.586707 608.734953 249.252744 608.734953 247.862007 
C 608.734953 246.471271 608.182408 245.137308 607.199008 244.153908 
C 606.215609 243.170509 604.881646 242.617963 603.490909 242.617963 
C 602.100172 242.617963 600.766209 243.170509 599.78281 244.153908 
C 598.79941 245.137308 598.246865 246.471271 598.246865 247.862007 
C 598.246865 249.252744 598.79941 250.586707 599.78281 251.570107 
C 600.766209 252.553506 602.100172 253.106052 603.490909 253.106052 
z
" clip-path="url(#pa2e6c37241)" style="fill: #1f77b4; fill-opacity: 0.3; stroke: #1f77b4; stroke-opacity: 0.3"/>
    <path d="M 612.218182 251.906151 
C 614.045968 251.906151 615.799139 251.179964 617.091579 249.887524 
C 618.384019 248.595084 619.110206 246.841913 619.110206 245.014126 
C 619.110206 243.18634 618.384019 241.433169 617.091579 240.140729 
C 615.799139 238.848289 614.045968 238.122102 612.218182 238.122102 
C 610.390396 238.122102 608.637225 238.848289 607.344785 240.140729 
C 606.052345 241.433169 605.326157 243.18634 605.326157 245.014126 
C 605.326157 246.841913 606.052345 248.595084 607.344785 249.887524 
C 608.637225 251.179964 610.390396 251.906151 612.218182 251.906151 
z
" clip-path="url(#pa2e6c37241)" style="fill: #1f77b4; fill-opacity: 0.3; stroke: #1f77b4; stroke-opacity: 0.3"/>
    <path d="M 620.945455 248.220018 
C 624.220471 248.220018 627.361793 246.91884 629.677579 244.603054 
C 631.993366 242.287267 633.294544 239.145946 633.294544 235.870929 
C 633.294544 232.595913 631.993366 229.454591 629.677579 227.138805 
C 627.361793 224.823018 624.220471 223.52184 620.945455 223.52184 
C 617.670438 223.52184 614.529116 224.823018 612.21333 227.138805 
C 609.897543 229.454591 608.596366 232.595913 608.596366 235.870929 
C 608.596366 239.145946 609.897543 242.287267 612.21333 244.603054 
C 614.529116 246.91884 617.670438 248.220018 620.945455 248.220018 
z
" clip-path="url(#pa2e6c37241)" style="fill: #1f77b4; fill-opacity: 0.3; stroke: #1f77b4; stroke-opacity: 0.3"/>
    <path d="M 629.672727 239.822564 
C 632.39025 239.822564 634.996837 238.742881 636.918416 236.821302 
C 638.839995 234.899723 639.919678 232.293136 639.919678 229.575613 
C 639.919678 226.85809 638.839995 224.251504 636.918416 222.329925 
C 634.996837 220.408346 632.39025 219.328663 629.672727 219.328663 
C 626.955204 219.328663 624.348618 220.408346 622.427039 222.329925 
C 620.50546 224.251504 619.425777 226.85809 619.425777 229.575613 
C 619.425777 232.293136 620.50546 234.899723 622.427039 236.821302 
C 624.348618 238.742881 626.955204 239.822564 629.672727 239.822564 
z
" clip-path="url(#pa2e6c37241)" style="fill: #1f77b4; fill-opacity: 0.3; stroke: #1f77b4; stroke-opacity: 0.3"/>
    <path d="M 638.4 233.68366 
C 640.880748 233.68366 643.260225 232.698049 645.014378 230.943895 
C 646.768532 229.189741 647.754143 226.810265 647.754143 224.329517 
C 647.754143 221.848769 646.768532 219.469292 645.014378 217.715138 
C 643.260225 215.960985 640.880748 214.975373 638.4 214.975373 
C 635.919252 214.975373 633.539775 215.960985 631.785622 217.715138 
C 630.031468 219.469292 629.045857 221.848769 629.045857 224.329517 
C 629.045857 226.810265 630.031468 229.189741 631.785622 230.943895 
C 633.539775 232.698049 635.919252 233.68366 638.4 233.68366 
z
" clip-path="url(#pa2e6c37241)" style="fill: #1f77b4; fill-opacity: 0.3; stroke: #1f77b4; stroke-opacity: 0.3"/>
    <path d="M 647.127273 221.719242 
C 652.159148 221.719242 656.985608 219.720057 660.543681 216.161984 
C 664.101754 212.603911 666.100939 207.777451 666.100939 202.745576 
C 666.100939 197.713701 664.101754 192.887241 660.543681 189.329168 
C 656.985608 185.771095 652.159148 183.77191 647.127273 183.77191 
C 642.095398 183.77191 637.268938 185.771095 633.710865 189.329168 
C 630.152792 192.887241 628.153607 197.713701 628.153607 202.745576 
C 628.153607 207.777451 630.152792 212.603911 633.710865 216.161984 
C 637.268938 219.720057 642.095398 221.719242 647.127273 221.719242 
z
" clip-path="url(#pa2e6c37241)" style="fill: #1f77b4; fill-opacity: 0.3; stroke: #1f77b4; stroke-opacity: 0.3"/>
    <path d="M 655.854545 205.801824 
C 659.209129 205.801824 662.426769 204.469034 664.798817 202.096986 
C 667.170866 199.724937 668.503656 196.507297 668.503656 193.152714 
C 668.503656 189.79813 667.170866 186.58049 664.798817 184.208442 
C 662.426769 181.836393 659.209129 180.503603 655.854545 180.503603 
C 652.499962 180.503603 649.282322 181.836393 646.910274 184.208442 
C 644.538225 186.58049 643.205435 189.79813 643.205435 193.152714 
C 643.205435 196.507297 644.538225 199.724937 646.910274 202.096986 
C 649.282322 204.469034 652.499962 205.801824 655.854545 205.801824 
z
" clip-path="url(#pa2e6c37241)" style="fill: #1f77b4; fill-opacity: 0.3; stroke: #1f77b4; stroke-opacity: 0.3"/>
    <path d="M 664.581818 197.014334 
C 667.394722 197.014334 670.092795 195.896756 672.081818 193.907732 
C 674.070841 191.918709 675.18842 189.220636 675.18842 186.407732 
C 675.18842 183.594829 674.070841 180.896756 672.081818 178.907732 
C 670.092795 176.918709 667.394722 175.801131 664.581818 175.801131 
C 661.768915 175.801131 659.070841 176.918709 657.081818 178.907732 
C 655.092795 180.896756 653.975216 183.594829 653.975216 186.407732 
C 653.975216 189.220636 655.092795 191.918709 657.081818 193.907732 
C 659.070841 195.896756 661.768915 197.014334 664.581818 197.014334 
z
" clip-path="url(#pa2e6c37241)" style="fill: #1f77b4; fill-opacity: 0.3; stroke: #1f77b4; stroke-opacity: 0.3"/>
    <path d="M 673.309091 189.846137 
C 676.447016 189.846137 679.456843 188.599426 681.675691 186.380578 
C 683.89454 184.16173 685.14125 181.151903 685.14125 178.013978 
C 685.14125 174.876052 683.89454 171.866226 681.675691 169.647377 
C 679.456843 167.428529 676.447016 166.181818 673.309091 166.181818 
C 670.171166 166.181818 667.161339 167.428529 664.942491 169.647377 
C 662.723642 171.866226 661.476931 174.876052 661.476931 178.013978 
C 661.476931 181.151903 662.723642 184.16173 664.942491 186.380578 
C 667.161339 188.599426 670.171166 189.846137 673.309091 189.846137 
z
" clip-path="url(#pa2e6c37241)" style="fill: #1f77b4; fill-opacity: 0.3; stroke: #1f77b4; stroke-opacity: 0.3"/>
    <path d="M 682.036364 180.800069 
C 682.973998 180.800069 683.873356 180.427543 684.536364 179.764535 
C 685.199371 179.101528 685.571898 178.20217 685.571898 177.264535 
C 685.571898 176.326901 685.199371 175.427543 684.536364 174.764535 
C 683.873356 174.101528 682.973998 173.729001 682.036364 173.729001 
C 681.098729 173.729001 680.199371 174.101528 679.536364 174.764535 
C 678.873356 175.427543 678.50083 176.326901 678.50083 177.264535 
C 678.50083 178.20217 678.873356 179.101528 679.536364 179.764535 
C 680.199371 180.427543 681.098729 180.800069 682.036364 180.800069 
z
" clip-path="url(#pa2e6c37241)" style="fill: #1f77b4; fill-opacity: 0.3; stroke: #1f77b4; stroke-opacity: 0.3"/>
    <path d="M 699.490909 180.537563 
C 700.676933 180.537563 701.814541 180.066351 702.653187 179.227705 
C 703.491833 178.389059 703.963045 177.251452 703.963045 176.065428 
C 703.963045 174.879403 703.491833 173.741796 702.653187 172.90315 
C 701.814541 172.064504 700.676933 171.593292 699.490909 171.593292 
C 698.304885 171.593292 697.167277 172.064504 696.328631 172.90315 
C 695.489986 173.741796 695.018773 174.879403 695.018773 176.065428 
C 695.018773 177.251452 695.489986 178.389059 696.328631 179.227705 
C 697.167277 180.066351 698.304885 180.537563 699.490909 180.537563 
z
" clip-path="url(#pa2e6c37241)" style="fill: #1f77b4; fill-opacity: 0.3; stroke: #1f77b4; stroke-opacity: 0.3"/>
    <path d="M 716.945455 179.459848 
C 718.203423 179.459848 719.410038 178.960051 720.299557 178.070533 
C 721.189075 177.181015 721.688871 175.9744 721.688871 174.716431 
C 721.688871 173.458462 721.189075 172.251847 720.299557 171.362329 
C 719.410038 170.472811 718.203423 169.973015 716.945455 169.973015 
C 715.687486 169.973015 714.480871 170.472811 713.591353 171.362329 
C 712.701834 172.251847 712.202038 173.458462 712.202038 174.716431 
C 712.202038 175.9744 712.701834 177.181015 713.591353 178.070533 
C 714.480871 178.960051 715.687486 179.459848 716.945455 179.459848 
z
" clip-path="url(#pa2e6c37241)" style="fill: #1f77b4; fill-opacity: 0.3; stroke: #1f77b4; stroke-opacity: 0.3"/>
    <path d="M 725.672727 178.591828 
C 727.296758 178.591828 728.854491 177.946594 730.002854 176.798231 
C 731.151217 175.649868 731.796452 174.092135 731.796452 172.468104 
C 731.796452 170.844073 731.151217 169.28634 730.002854 168.137977 
C 728.854491 166.989614 727.296758 166.34438 725.672727 166.34438 
C 724.048697 166.34438 722.490963 166.989614 721.3426 168.137977 
C 720.194237 169.28634 719.549003 170.844073 719.549003 172.468104 
C 719.549003 174.092135 720.194237 175.649868 721.3426 176.798231 
C 722.490963 177.946594 724.048697 178.591828 725.672727 178.591828 
z
" clip-path="url(#pa2e6c37241)" style="fill: #1f77b4; fill-opacity: 0.3; stroke: #1f77b4; stroke-opacity: 0.3"/>
    <path d="M 734.4 176.220431 
C 735.91189 176.220431 737.362061 175.619751 738.431129 174.550683 
C 739.500197 173.481615 740.100877 172.031444 740.100877 170.519554 
C 740.100877 169.007664 739.500197 167.557493 738.431129 166.488425 
C 737.362061 165.419357 735.91189 164.818677 734.4 164.818677 
C 732.88811 164.818677 731.437939 165.419357 730.368871 166.488425 
C 729.299803 167.557493 728.699123 169.007664 728.699123 170.519554 
C 728.699123 172.031444 729.299803 173.481615 730.368871 174.550683 
C 731.437939 175.619751 732.88811 176.220431 734.4 176.220431 
z
" clip-path="url(#pa2e6c37241)" style="fill: #1f77b4; fill-opacity: 0.3; stroke: #1f77b4; stroke-opacity: 0.3"/>
    <path d="M 743.127273 174.394951 
C 744.751303 174.394951 746.309037 173.749717 747.4574 172.601354 
C 748.605763 171.452991 749.250997 169.895257 749.250997 168.271227 
C 749.250997 166.647196 748.605763 165.089463 747.4574 163.9411 
C 746.309037 162.792737 744.751303 162.147502 743.127273 162.147502 
C 741.503242 162.147502 739.945509 162.792737 738.797146 163.9411 
C 737.648783 165.089463 737.003548 166.647196 737.003548 168.271227 
C 737.003548 169.895257 737.648783 171.452991 738.797146 172.601354 
C 739.945509 173.749717 741.503242 174.394951 743.127273 174.394951 
z
" clip-path="url(#pa2e6c37241)" style="fill: #1f77b4; fill-opacity: 0.3; stroke: #1f77b4; stroke-opacity: 0.3"/>
    <path d="M 751.854545 172.023554 
C 753.366436 172.023554 754.816606 171.422873 755.885674 170.353805 
C 756.954742 169.284738 757.555423 167.834567 757.555423 166.322677 
C 757.555423 164.810786 756.954742 163.360616 755.885674 162.291548 
C 754.816606 161.22248 753.366436 160.621799 751.854545 160.621799 
C 750.342655 160.621799 748.892484 161.22248 747.823417 162.291548 
C 746.754349 163.360616 746.153668 164.810786 746.153668 166.322677 
C 746.153668 167.834567 746.754349 169.284738 747.823417 170.353805 
C 748.892484 171.422873 750.342655 172.023554 751.854545 172.023554 
z
" clip-path="url(#pa2e6c37241)" style="fill: #1f77b4; fill-opacity: 0.3; stroke: #1f77b4; stroke-opacity: 0.3"/>
    <path d="M 760.581818 168.258968 
C 761.17483 168.258968 761.743634 168.023361 762.162957 167.604038 
C 762.58228 167.184716 762.817886 166.615912 762.817886 166.0229 
C 762.817886 165.429887 762.58228 164.861084 762.162957 164.441761 
C 761.743634 164.022438 761.17483 163.786832 760.581818 163.786832 
C 759.988806 163.786832 759.420002 164.022438 759.000679 164.441761 
C 758.581356 164.861084 758.34575 165.429887 758.34575 166.0229 
C 758.34575 166.615912 758.581356 167.184716 759.000679 167.604038 
C 759.420002 168.023361 759.988806 168.258968 760.581818 168.258968 
z
" clip-path="url(#pa2e6c37241)" style="fill: #1f77b4; fill-opacity: 0.3; stroke: #1f77b4; stroke-opacity: 0.3"/>
    <path d="M 769.309091 168.311847 
C 770.03538 168.311847 770.732019 168.023289 771.245583 167.509726 
C 771.759146 166.996162 772.047704 166.299523 772.047704 165.573234 
C 772.047704 164.846946 771.759146 164.150306 771.245583 163.636743 
C 770.732019 163.123179 770.03538 162.834621 769.309091 162.834621 
C 768.582802 162.834621 767.886163 163.123179 767.372599 163.636743 
C 766.859036 164.150306 766.570478 164.846946 766.570478 165.573234 
C 766.570478 166.299523 766.859036 166.996162 767.372599 167.509726 
C 767.886163 168.023289 768.582802 168.311847 769.309091 168.311847 
z
" clip-path="url(#pa2e6c37241)" style="fill: #1f77b4; fill-opacity: 0.3; stroke: #1f77b4; stroke-opacity: 0.3"/>
    <path d="M 778.036364 167.724292 
C 781.786902 167.724292 785.384333 166.234187 788.036364 163.582156 
C 790.688395 160.930125 792.178499 157.332694 792.178499 153.582156 
C 792.178499 149.831618 790.688395 146.234187 788.036364 143.582156 
C 785.384333 140.930125 781.786902 139.440021 778.036364 139.440021 
C 774.285825 139.440021 770.688395 140.930125 768.036364 143.582156 
C 765.384333 146.234187 763.894228 149.831618 763.894228 153.582156 
C 763.894228 157.332694 765.384333 160.930125 768.036364 163.582156 
C 770.688395 166.234187 774.285825 167.724292 778.036364 167.724292 
z
" clip-path="url(#pa2e6c37241)" style="fill: #1f77b4; fill-opacity: 0.3; stroke: #1f77b4; stroke-opacity: 0.3"/>
    <path d="M 786.763636 155.354626 
C 790.652277 155.354626 794.382173 153.809652 797.131857 151.059968 
C 799.881541 148.310284 801.426515 144.580388 801.426515 140.691747 
C 801.426515 136.803106 799.881541 133.073211 797.131857 130.323527 
C 794.382173 127.573842 790.652277 126.028869 786.763636 126.028869 
C 782.874996 126.028869 779.1451 127.573842 776.395416 130.323527 
C 773.645731 133.073211 772.100758 136.803106 772.100758 140.691747 
C 772.100758 144.580388 773.645731 148.310284 776.395416 151.059968 
C 779.1451 153.809652 782.874996 155.354626 786.763636 155.354626 
z
" clip-path="url(#pa2e6c37241)" style="fill: #1f77b4; fill-opacity: 0.3; stroke: #1f77b4; stroke-opacity: 0.3"/>
    <path d="M 795.490909 142.122998 
C 795.910232 142.122998 796.312437 141.956399 796.608943 141.659893 
C 796.905449 141.363387 797.072048 140.961182 797.072048 140.541859 
C 797.072048 140.122536 796.905449 139.720331 796.608943 139.423825 
C 796.312437 139.127319 795.910232 138.96072 795.490909 138.96072 
C 795.071586 138.96072 794.669381 139.127319 794.372875 139.423825 
C 794.076369 139.720331 793.90977 140.122536 793.90977 140.541859 
C 793.90977 140.961182 794.076369 141.363387 794.372875 141.659893 
C 794.669381 141.956399 795.071586 142.122998 795.490909 142.122998 
z
" clip-path="url(#pa2e6c37241)" style="fill: #1f77b4; fill-opacity: 0.3; stroke: #1f77b4; stroke-opacity: 0.3"/>
    <path d="M 804.218182 143.936279 
C 805.476151 143.936279 806.682766 143.436483 807.572284 142.546964 
C 808.461802 141.657446 808.961598 140.450831 808.961598 139.192862 
C 808.961598 137.934894 808.461802 136.728279 807.572284 135.83876 
C 806.682766 134.949242 805.476151 134.449446 804.218182 134.449446 
C 802.960213 134.449446 801.753598 134.949242 800.86408 135.83876 
C 799.974562 136.728279 799.474765 137.934894 799.474765 139.192862 
C 799.474765 140.450831 799.974562 141.657446 800.86408 142.546964 
C 801.753598 143.436483 802.960213 143.936279 804.218182 143.936279 
z
" clip-path="url(#pa2e6c37241)" style="fill: #1f77b4; fill-opacity: 0.3; stroke: #1f77b4; stroke-opacity: 0.3"/>
    <path d="M 812.945455 142.587283 
C 814.203423 142.587283 815.410038 142.087486 816.299557 141.197968 
C 817.189075 140.30845 817.688871 139.101835 817.688871 137.843866 
C 817.688871 136.585897 817.189075 135.379282 816.299557 134.489764 
C 815.410038 133.600246 814.203423 133.10045 812.945455 133.10045 
C 811.687486 133.10045 810.480871 133.600246 809.591353 134.489764 
C 808.701834 135.379282 808.202038 136.585897 808.202038 137.843866 
C 808.202038 139.101835 808.701834 140.30845 809.591353 141.197968 
C 810.480871 142.087486 811.687486 142.587283 812.945455 142.587283 
z
" clip-path="url(#pa2e6c37241)" style="fill: #1f77b4; fill-opacity: 0.3; stroke: #1f77b4; stroke-opacity: 0.3"/>
    <path d="M 821.672727 141.145404 
C 824.893608 141.145404 827.983003 139.865735 830.260509 137.588228 
C 832.538016 135.310722 833.817685 132.221327 833.817685 129.000446 
C 833.817685 125.779566 832.538016 122.69017 830.260509 120.412664 
C 827.983003 118.135158 824.893608 116.855488 821.672727 116.855488 
C 818.451847 116.855488 815.362452 118.135158 813.084945 120.412664 
C 810.807439 122.69017 809.527769 125.779566 809.527769 129.000446 
C 809.527769 132.221327 810.807439 135.310722 813.084945 137.588228 
C 815.362452 139.865735 818.451847 141.145404 821.672727 141.145404 
z
" clip-path="url(#pa2e6c37241)" style="fill: #1f77b4; fill-opacity: 0.3; stroke: #1f77b4; stroke-opacity: 0.3"/>
    <path d="M 830.4 132.926786 
C 832.077292 132.926786 833.686112 132.260391 834.872136 131.074366 
C 836.05816 129.888342 836.724555 128.279522 836.724555 126.60223 
C 836.724555 124.924939 836.05816 123.316119 834.872136 122.130095 
C 833.686112 120.94407 832.077292 120.277675 830.4 120.277675 
C 828.722708 120.277675 827.113888 120.94407 825.927864 122.130095 
C 824.74184 123.316119 824.075445 124.924939 824.075445 126.60223 
C 824.075445 128.279522 824.74184 129.888342 825.927864 131.074366 
C 827.113888 132.260391 828.722708 132.926786 830.4 132.926786 
z
" clip-path="url(#pa2e6c37241)" style="fill: #1f77b4; fill-opacity: 0.3; stroke: #1f77b4; stroke-opacity: 0.3"/>
    <path d="M 839.127273 129.736311 
C 840.236697 129.736311 841.300831 129.295532 842.085313 128.511051 
C 842.869794 127.72657 843.310573 126.662435 843.310573 125.553011 
C 843.310573 124.443587 842.869794 123.379453 842.085313 122.594971 
C 841.300831 121.81049 840.236697 121.369711 839.127273 121.369711 
C 838.017849 121.369711 836.953714 121.81049 836.169233 122.594971 
C 835.384751 123.379453 834.943973 124.443587 834.943973 125.553011 
C 834.943973 126.662435 835.384751 127.72657 836.169233 128.511051 
C 836.953714 129.295532 838.017849 129.736311 839.127273 129.736311 
z
" clip-path="url(#pa2e6c37241)" style="fill: #1f77b4; fill-opacity: 0.3; stroke: #1f77b4; stroke-opacity: 0.3"/>
    <path d="M 847.854545 129.479351 
C 849.531837 129.479351 851.140657 128.812956 852.326681 127.626931 
C 853.512706 126.440907 854.179101 124.832087 854.179101 123.154796 
C 854.179101 121.477504 853.512706 119.868684 852.326681 118.68266 
C 851.140657 117.496635 849.531837 116.83024 847.854545 116.83024 
C 846.177254 116.83024 844.568434 117.496635 843.382409 118.68266 
C 842.196385 119.868684 841.52999 121.477504 841.52999 123.154796 
C 841.52999 124.832087 842.196385 126.440907 843.382409 127.626931 
C 844.568434 128.812956 846.177254 129.479351 847.854545 129.479351 
z
" clip-path="url(#pa2e6c37241)" style="fill: #1f77b4; fill-opacity: 0.3; stroke: #1f77b4; stroke-opacity: 0.3"/>
    <path d="M 856.581818 127.273448 
C 858.548617 127.273448 860.435126 126.49203 861.825862 125.101293 
C 863.216599 123.710557 863.998017 121.824048 863.998017 119.857249 
C 863.998017 117.89045 863.216599 116.003942 861.825862 114.613205 
C 860.435126 113.222468 858.548617 112.441051 856.581818 112.441051 
C 854.615019 112.441051 852.728511 113.222468 851.337774 114.613205 
C 849.947037 116.003942 849.16562 117.89045 849.16562 119.857249 
C 849.16562 121.824048 849.947037 123.710557 851.337774 125.101293 
C 852.728511 126.49203 854.615019 127.273448 856.581818 127.273448 
z
" clip-path="url(#pa2e6c37241)" style="fill: #1f77b4; fill-opacity: 0.3; stroke: #1f77b4; stroke-opacity: 0.3"/>
    <path d="M 865.309091 121.288499 
C 865.728414 121.288499 866.130619 121.121901 866.427125 120.825395 
C 866.723631 120.528889 866.89023 120.126684 866.89023 119.707361 
C 866.89023 119.288038 866.723631 118.885833 866.427125 118.589327 
C 866.130619 118.292821 865.728414 118.126222 865.309091 118.126222 
C 864.889768 118.126222 864.487563 118.292821 864.191057 118.589327 
C 863.894551 118.885833 863.727952 119.288038 863.727952 119.707361 
C 863.727952 120.126684 863.894551 120.528889 864.191057 120.825395 
C 864.487563 121.121901 864.889768 121.288499 865.309091 121.288499 
z
" clip-path="url(#pa2e6c37241)" style="fill: #1f77b4; fill-opacity: 0.3; stroke: #1f77b4; stroke-opacity: 0.3"/>
    <path d="M 874.036364 122.493452 
C 874.973998 122.493452 875.873356 122.120926 876.536364 121.457918 
C 877.199371 120.79491 877.571898 119.895553 877.571898 118.957918 
C 877.571898 118.020284 877.199371 117.120926 876.536364 116.457918 
C 875.873356 115.79491 874.973998 115.422384 874.036364 115.422384 
C 873.098729 115.422384 872.199371 115.79491 871.536364 116.457918 
C 870.873356 117.120926 870.50083 118.020284 870.50083 118.957918 
C 870.50083 119.895553 870.873356 120.79491 871.536364 121.457918 
C 872.199371 122.120926 873.098729 122.493452 874.036364 122.493452 
z
" clip-path="url(#pa2e6c37241)" style="fill: #1f77b4; fill-opacity: 0.3; stroke: #1f77b4; stroke-opacity: 0.3"/>
    <path d="M 882.763636 121.931571 
C 883.790764 121.931571 884.775961 121.523489 885.502249 120.7972 
C 886.228538 120.070912 886.63662 119.085715 886.63662 118.058587 
C 886.63662 117.03146 886.228538 116.046263 885.502249 115.319975 
C 884.775961 114.593686 883.790764 114.185604 882.763636 114.185604 
C 881.736509 114.185604 880.751312 114.593686 880.025024 115.319975 
C 879.298735 116.046263 878.890653 117.03146 878.890653 118.058587 
C 878.890653 119.085715 879.298735 120.070912 880.025024 120.7972 
C 880.751312 121.523489 881.736509 121.931571 882.763636 121.931571 
z
" clip-path="url(#pa2e6c37241)" style="fill: #1f77b4; fill-opacity: 0.3; stroke: #1f77b4; stroke-opacity: 0.3"/>
    <path d="M 891.490909 121.653858 
C 892.881646 121.653858 894.215609 121.101313 895.199008 120.117913 
C 896.182408 119.134514 896.734953 117.800551 896.734953 116.409814 
C 896.734953 115.019077 896.182408 113.685114 895.199008 112.701715 
C 894.215609 111.718315 892.881646 111.16577 891.490909 111.16577 
C 890.100172 111.16577 888.766209 111.718315 887.78281 112.701715 
C 886.79941 113.685114 886.246865 115.019077 886.246865 116.409814 
C 886.246865 117.800551 886.79941 119.134514 887.78281 120.117913 
C 888.766209 121.101313 890.100172 121.653858 891.490909 121.653858 
z
" clip-path="url(#pa2e6c37241)" style="fill: #1f77b4; fill-opacity: 0.3; stroke: #1f77b4; stroke-opacity: 0.3"/>
    <path d="M 900.218182 120.546445 
C 902.627009 120.546445 904.9375 119.589408 906.640798 117.886111 
C 908.344096 116.182813 909.301133 113.872321 909.301133 111.463494 
C 909.301133 109.054668 908.344096 106.744176 906.640798 105.040878 
C 904.9375 103.33758 902.627009 102.380543 900.218182 102.380543 
C 897.809355 102.380543 895.498863 103.33758 893.795566 105.040878 
C 892.092268 106.744176 891.135231 109.054668 891.135231 111.463494 
C 891.135231 113.872321 892.092268 116.182813 893.795566 117.886111 
C 895.498863 119.589408 897.809355 120.546445 900.218182 120.546445 
z
" clip-path="url(#pa2e6c37241)" style="fill: #1f77b4; fill-opacity: 0.3; stroke: #1f77b4; stroke-opacity: 0.3"/>
    <path d="M 908.945455 112.894745 
C 909.364777 112.894745 909.766982 112.728146 910.063489 112.43164 
C 910.359995 112.135134 910.526593 111.732929 910.526593 111.313606 
C 910.526593 110.894283 910.359995 110.492078 910.063489 110.195572 
C 909.766982 109.899066 909.364777 109.732467 908.945455 109.732467 
C 908.526132 109.732467 908.123927 109.899066 907.827421 110.195572 
C 907.530914 110.492078 907.364316 110.894283 907.364316 111.313606 
C 907.364316 111.732929 907.530914 112.135134 907.827421 112.43164 
C 908.123927 112.728146 908.526132 112.894745 908.945455 112.894745 
z
" clip-path="url(#pa2e6c37241)" style="fill: #1f77b4; fill-opacity: 0.3; stroke: #1f77b4; stroke-opacity: 0.3"/>
    <path d="M 917.672727 115.108589 
C 920.54746 115.108589 923.304839 113.966446 925.337582 111.933702 
C 927.370325 109.900959 928.512469 107.143581 928.512469 104.268848 
C 928.512469 101.394114 927.370325 98.636736 925.337582 96.603993 
C 923.304839 94.571249 920.54746 93.429106 917.672727 93.429106 
C 914.797994 93.429106 912.040616 94.571249 910.007872 96.603993 
C 907.975129 98.636736 906.832986 101.394114 906.832986 104.268848 
C 906.832986 107.143581 907.975129 109.900959 910.007872 111.933702 
C 912.040616 113.966446 914.797994 115.108589 917.672727 115.108589 
z
" clip-path="url(#pa2e6c37241)" style="fill: #1f77b4; fill-opacity: 0.3; stroke: #1f77b4; stroke-opacity: 0.3"/>
    <path d="M 926.4 107.2425 
C 927.427127 107.2425 928.412324 106.834418 929.138613 106.10813 
C 929.864901 105.381841 930.272983 104.396644 930.272983 103.369517 
C 930.272983 102.34239 929.864901 101.357193 929.138613 100.630904 
C 928.412324 99.904615 927.427127 99.496533 926.4 99.496533 
C 925.372873 99.496533 924.387676 99.904615 923.661387 100.630904 
C 922.935099 101.357193 922.527017 102.34239 922.527017 103.369517 
C 922.527017 104.396644 922.935099 105.381841 923.661387 106.10813 
C 924.387676 106.834418 925.372873 107.2425 926.4 107.2425 
z
" clip-path="url(#pa2e6c37241)" style="fill: #1f77b4; fill-opacity: 0.3; stroke: #1f77b4; stroke-opacity: 0.3"/>
    <path d="M 935.127273 106.964788 
C 936.51801 106.964788 937.851973 106.412242 938.835372 105.428843 
C 939.818771 104.445443 940.371317 103.11148 940.371317 101.720743 
C 940.371317 100.330007 939.818771 98.996044 938.835372 98.012644 
C 937.851973 97.029245 936.51801 96.476699 935.127273 96.476699 
C 933.736536 96.476699 932.402573 97.029245 931.419173 98.012644 
C 930.435774 98.996044 929.883228 100.330007 929.883228 101.720743 
C 929.883228 103.11148 930.435774 104.445443 931.419173 105.428843 
C 932.402573 106.412242 933.736536 106.964788 935.127273 106.964788 
z
" clip-path="url(#pa2e6c37241)" style="fill: #1f77b4; fill-opacity: 0.3; stroke: #1f77b4; stroke-opacity: 0.3"/>
    <path d="M 943.854545 105.115164 
C 945.112514 105.115164 946.319129 104.615367 947.208647 103.725849 
C 948.098166 102.836331 948.597962 101.629716 948.597962 100.371747 
C 948.597962 99.113778 948.098166 97.907163 947.208647 97.017645 
C 946.319129 96.128127 945.112514 95.628331 943.854545 95.628331 
C 942.596577 95.628331 941.389962 96.128127 940.500443 97.017645 
C 939.610925 97.907163 939.111129 99.113778 939.111129 100.371747 
C 939.111129 101.629716 939.610925 102.836331 940.500443 103.725849 
C 941.389962 104.615367 942.596577 105.115164 943.854545 105.115164 
z
" clip-path="url(#pa2e6c37241)" style="fill: #1f77b4; fill-opacity: 0.3; stroke: #1f77b4; stroke-opacity: 0.3"/>
    <path d="M 952.581818 102.934471 
C 953.420464 102.934471 954.224874 102.601273 954.817886 102.008261 
C 955.410898 101.415249 955.744096 100.610839 955.744096 99.772193 
C 955.744096 98.933547 955.410898 98.129137 954.817886 97.536125 
C 954.224874 96.943113 953.420464 96.609916 952.581818 96.609916 
C 951.743172 96.609916 950.938762 96.943113 950.34575 97.536125 
C 949.752738 98.129137 949.419541 98.933547 949.419541 99.772193 
C 949.419541 100.610839 949.752738 101.415249 950.34575 102.008261 
C 950.938762 102.601273 951.743172 102.934471 952.581818 102.934471 
z
" clip-path="url(#pa2e6c37241)" style="fill: #1f77b4; fill-opacity: 0.3; stroke: #1f77b4; stroke-opacity: 0.3"/>
    <path d="M 961.309091 102.061141 
C 962.03538 102.061141 962.732019 101.772583 963.245583 101.25902 
C 963.759146 100.745456 964.047704 100.048816 964.047704 99.322528 
C 964.047704 98.596239 963.759146 97.8996 963.245583 97.386036 
C 962.732019 96.872473 962.03538 96.583915 961.309091 96.583915 
C 960.582802 96.583915 959.886163 96.872473 959.372599 97.386036 
C 958.859036 97.8996 958.570478 98.596239 958.570478 99.322528 
C 958.570478 100.048816 958.859036 100.745456 959.372599 101.25902 
C 959.886163 101.772583 960.582802 102.061141 961.309091 102.061141 
z
" clip-path="url(#pa2e6c37241)" style="fill: #1f77b4; fill-opacity: 0.3; stroke: #1f77b4; stroke-opacity: 0.3"/>
    <path d="M 970.036364 101.885252 
C 970.875009 101.885252 971.679419 101.552054 972.272432 100.959042 
C 972.865444 100.36603 973.198641 99.56162 973.198641 98.722974 
C 973.198641 97.884328 972.865444 97.079918 972.272432 96.486906 
C 971.679419 95.893894 970.875009 95.560696 970.036364 95.560696 
C 969.197718 95.560696 968.393308 95.893894 967.800296 96.486906 
C 967.207283 97.079918 966.874086 97.884328 966.874086 98.722974 
C 966.874086 99.56162 967.207283 100.36603 967.800296 100.959042 
C 968.393308 101.552054 969.197718 101.885252 970.036364 101.885252 
z
" clip-path="url(#pa2e6c37241)" style="fill: #1f77b4; fill-opacity: 0.3; stroke: #1f77b4; stroke-opacity: 0.3"/>
    <path d="M 978.763636 101.011921 
C 979.489925 101.011921 980.186564 100.723364 980.700128 100.2098 
C 981.213692 99.696237 981.502249 98.999597 981.502249 98.273309 
C 981.502249 97.54702 981.213692 96.85038 980.700128 96.336817 
C 980.186564 95.823253 979.489925 95.534696 978.763636 95.534696 
C 978.037348 95.534696 977.340708 95.823253 976.827145 96.336817 
C 976.313581 96.85038 976.025024 97.54702 976.025024 98.273309 
C 976.025024 98.999597 976.313581 99.696237 976.827145 100.2098 
C 977.340708 100.723364 978.037348 101.011921 978.763636 101.011921 
z
" clip-path="url(#pa2e6c37241)" style="fill: #1f77b4; fill-opacity: 0.3; stroke: #1f77b4; stroke-opacity: 0.3"/>
    <path d="M 987.490909 101.667002 
C 990.656728 101.667002 993.693309 100.409209 995.931881 98.170637 
C 998.170452 95.932065 999.428245 92.895484 999.428245 89.729665 
C 999.428245 86.563847 998.170452 83.527266 995.931881 81.288694 
C 993.693309 79.050122 990.656728 77.792329 987.490909 77.792329 
C 984.32509 77.792329 981.288509 79.050122 979.049938 81.288694 
C 976.811366 83.527266 975.553573 86.563847 975.553573 89.729665 
C 975.553573 92.895484 976.811366 95.932065 979.049938 98.170637 
C 981.288509 100.409209 984.32509 101.667002 987.490909 101.667002 
z
" clip-path="url(#pa2e6c37241)" style="fill: #1f77b4; fill-opacity: 0.3; stroke: #1f77b4; stroke-opacity: 0.3"/>
    <path d="M 996.218182 92.018613 
C 996.94447 92.018613 997.64111 91.730055 998.154673 91.216492 
C 998.668237 90.702928 998.956795 90.006289 998.956795 89.28 
C 998.956795 88.553711 998.668237 87.857072 998.154673 87.343508 
C 997.64111 86.829945 996.94447 86.541387 996.218182 86.541387 
C 995.491893 86.541387 994.795254 86.829945 994.28169 87.343508 
C 993.768127 87.857072 993.479569 88.553711 993.479569 89.28 
C 993.479569 90.006289 993.768127 90.702928 994.28169 91.216492 
C 994.795254 91.730055 995.491893 92.018613 996.218182 92.018613 
z
" clip-path="url(#pa2e6c37241)" style="fill: #1f77b4; fill-opacity: 0.3; stroke: #1f77b4; stroke-opacity: 0.3"/>
   </g>
   <g id="matplotlib.axis_1">
    <g id="xtick_1">
     <g id="line2d_1">
      <defs>
       <path id="m729c2a4066" d="M 0 0 
L 0 3.5 
" style="stroke: #000000; stroke-width: 0.8"/>
      </defs>
      <g>
       <use xlink:href="#m729c2a4066" x="184.581818" y="512.64" style="stroke: #000000; stroke-width: 0.8"/>
      </g>
     </g>
     <g id="text_1">
      <!-- 2022-01-01 -->
      <g transform="translate(155.524006 527.238438)scale(0.1 -0.1)">
       <defs>
        <path id="DejaVuSans-32" d="M 1228 531 
L 3431 531 
L 3431 0 
L 469 0 
L 469 531 
Q 828 903 1448 1529 
Q 2069 2156 2228 2338 
Q 2531 2678 2651 2914 
Q 2772 3150 2772 3378 
Q 2772 3750 2511 3984 
Q 2250 4219 1831 4219 
Q 1534 4219 1204 4116 
Q 875 4013 500 3803 
L 500 4441 
Q 881 4594 1212 4672 
Q 1544 4750 1819 4750 
Q 2544 4750 2975 4387 
Q 3406 4025 3406 3419 
Q 3406 3131 3298 2873 
Q 3191 2616 2906 2266 
Q 2828 2175 2409 1742 
Q 1991 1309 1228 531 
z
" transform="scale(0.015625)"/>
        <path id="DejaVuSans-30" d="M 2034 4250 
Q 1547 4250 1301 3770 
Q 1056 3291 1056 2328 
Q 1056 1369 1301 889 
Q 1547 409 2034 409 
Q 2525 409 2770 889 
Q 3016 1369 3016 2328 
Q 3016 3291 2770 3770 
Q 2525 4250 2034 4250 
z
M 2034 4750 
Q 2819 4750 3233 4129 
Q 3647 3509 3647 2328 
Q 3647 1150 3233 529 
Q 2819 -91 2034 -91 
Q 1250 -91 836 529 
Q 422 1150 422 2328 
Q 422 3509 836 4129 
Q 1250 4750 2034 4750 
z
" transform="scale(0.015625)"/>
        <path id="DejaVuSans-2d" d="M 313 2009 
L 1997 2009 
L 1997 1497 
L 313 1497 
L 313 2009 
z
" transform="scale(0.015625)"/>
        <path id="DejaVuSans-31" d="M 794 531 
L 1825 531 
L 1825 4091 
L 703 3866 
L 703 4441 
L 1819 4666 
L 2450 4666 
L 2450 531 
L 3481 531 
L 3481 0 
L 794 0 
L 794 531 
z
" transform="scale(0.015625)"/>
       </defs>
       <use xlink:href="#DejaVuSans-32"/>
       <use xlink:href="#DejaVuSans-30" x="63.623047"/>
       <use xlink:href="#DejaVuSans-32" x="127.246094"/>
       <use xlink:href="#DejaVuSans-32" x="190.869141"/>
       <use xlink:href="#DejaVuSans-2d" x="254.492188"/>
       <use xlink:href="#DejaVuSans-30" x="290.576172"/>
       <use xlink:href="#DejaVuSans-31" x="354.199219"/>
       <use xlink:href="#DejaVuSans-2d" x="417.822266"/>
       <use xlink:href="#DejaVuSans-30" x="453.90625"/>
       <use xlink:href="#DejaVuSans-31" x="517.529297"/>
      </g>
     </g>
    </g>
    <g id="xtick_2">
     <g id="line2d_2">
      <g>
       <use xlink:href="#m729c2a4066" x="306.763636" y="512.64" style="stroke: #000000; stroke-width: 0.8"/>
      </g>
     </g>
     <g id="text_2">
      <!-- 2022-01-15 -->
      <g transform="translate(277.705824 527.238438)scale(0.1 -0.1)">
       <defs>
        <path id="DejaVuSans-35" d="M 691 4666 
L 3169 4666 
L 3169 4134 
L 1269 4134 
L 1269 2991 
Q 1406 3038 1543 3061 
Q 1681 3084 1819 3084 
Q 2600 3084 3056 2656 
Q 3513 2228 3513 1497 
Q 3513 744 3044 326 
Q 2575 -91 1722 -91 
Q 1428 -91 1123 -41 
Q 819 9 494 109 
L 494 744 
Q 775 591 1075 516 
Q 1375 441 1709 441 
Q 2250 441 2565 725 
Q 2881 1009 2881 1497 
Q 2881 1984 2565 2268 
Q 2250 2553 1709 2553 
Q 1456 2553 1204 2497 
Q 953 2441 691 2322 
L 691 4666 
z
" transform="scale(0.015625)"/>
       </defs>
       <use xlink:href="#DejaVuSans-32"/>
       <use xlink:href="#DejaVuSans-30" x="63.623047"/>
       <use xlink:href="#DejaVuSans-32" x="127.246094"/>
       <use xlink:href="#DejaVuSans-32" x="190.869141"/>
       <use xlink:href="#DejaVuSans-2d" x="254.492188"/>
       <use xlink:href="#DejaVuSans-30" x="290.576172"/>
       <use xlink:href="#DejaVuSans-31" x="354.199219"/>
       <use xlink:href="#DejaVuSans-2d" x="417.822266"/>
       <use xlink:href="#DejaVuSans-31" x="453.90625"/>
       <use xlink:href="#DejaVuSans-35" x="517.529297"/>
      </g>
     </g>
    </g>
    <g id="xtick_3">
     <g id="line2d_3">
      <g>
       <use xlink:href="#m729c2a4066" x="455.127273" y="512.64" style="stroke: #000000; stroke-width: 0.8"/>
      </g>
     </g>
     <g id="text_3">
      <!-- 2022-02-01 -->
      <g transform="translate(426.06946 527.238438)scale(0.1 -0.1)">
       <use xlink:href="#DejaVuSans-32"/>
       <use xlink:href="#DejaVuSans-30" x="63.623047"/>
       <use xlink:href="#DejaVuSans-32" x="127.246094"/>
       <use xlink:href="#DejaVuSans-32" x="190.869141"/>
       <use xlink:href="#DejaVuSans-2d" x="254.492188"/>
       <use xlink:href="#DejaVuSans-30" x="290.576172"/>
       <use xlink:href="#DejaVuSans-32" x="354.199219"/>
       <use xlink:href="#DejaVuSans-2d" x="417.822266"/>
       <use xlink:href="#DejaVuSans-30" x="453.90625"/>
       <use xlink:href="#DejaVuSans-31" x="517.529297"/>
      </g>
     </g>
    </g>
    <g id="xtick_4">
     <g id="line2d_4">
      <g>
       <use xlink:href="#m729c2a4066" x="577.309091" y="512.64" style="stroke: #000000; stroke-width: 0.8"/>
      </g>
     </g>
     <g id="text_4">
      <!-- 2022-02-15 -->
      <g transform="translate(548.251278 527.238438)scale(0.1 -0.1)">
       <use xlink:href="#DejaVuSans-32"/>
       <use xlink:href="#DejaVuSans-30" x="63.623047"/>
       <use xlink:href="#DejaVuSans-32" x="127.246094"/>
       <use xlink:href="#DejaVuSans-32" x="190.869141"/>
       <use xlink:href="#DejaVuSans-2d" x="254.492188"/>
       <use xlink:href="#DejaVuSans-30" x="290.576172"/>
       <use xlink:href="#DejaVuSans-32" x="354.199219"/>
       <use xlink:href="#DejaVuSans-2d" x="417.822266"/>
       <use xlink:href="#DejaVuSans-31" x="453.90625"/>
       <use xlink:href="#DejaVuSans-35" x="517.529297"/>
      </g>
     </g>
    </g>
    <g id="xtick_5">
     <g id="line2d_5">
      <g>
       <use xlink:href="#m729c2a4066" x="699.490909" y="512.64" style="stroke: #000000; stroke-width: 0.8"/>
      </g>
     </g>
     <g id="text_5">
      <!-- 2022-03-01 -->
      <g transform="translate(670.433097 527.238438)scale(0.1 -0.1)">
       <defs>
        <path id="DejaVuSans-33" d="M 2597 2516 
Q 3050 2419 3304 2112 
Q 3559 1806 3559 1356 
Q 3559 666 3084 287 
Q 2609 -91 1734 -91 
Q 1441 -91 1130 -33 
Q 819 25 488 141 
L 488 750 
Q 750 597 1062 519 
Q 1375 441 1716 441 
Q 2309 441 2620 675 
Q 2931 909 2931 1356 
Q 2931 1769 2642 2001 
Q 2353 2234 1838 2234 
L 1294 2234 
L 1294 2753 
L 1863 2753 
Q 2328 2753 2575 2939 
Q 2822 3125 2822 3475 
Q 2822 3834 2567 4026 
Q 2313 4219 1838 4219 
Q 1578 4219 1281 4162 
Q 984 4106 628 3988 
L 628 4550 
Q 988 4650 1302 4700 
Q 1616 4750 1894 4750 
Q 2613 4750 3031 4423 
Q 3450 4097 3450 3541 
Q 3450 3153 3228 2886 
Q 3006 2619 2597 2516 
z
" transform="scale(0.015625)"/>
       </defs>
       <use xlink:href="#DejaVuSans-32"/>
       <use xlink:href="#DejaVuSans-30" x="63.623047"/>
       <use xlink:href="#DejaVuSans-32" x="127.246094"/>
       <use xlink:href="#DejaVuSans-32" x="190.869141"/>
       <use xlink:href="#DejaVuSans-2d" x="254.492188"/>
       <use xlink:href="#DejaVuSans-30" x="290.576172"/>
       <use xlink:href="#DejaVuSans-33" x="354.199219"/>
       <use xlink:href="#DejaVuSans-2d" x="417.822266"/>
       <use xlink:href="#DejaVuSans-30" x="453.90625"/>
       <use xlink:href="#DejaVuSans-31" x="517.529297"/>
      </g>
     </g>
    </g>
    <g id="xtick_6">
     <g id="line2d_6">
      <g>
       <use xlink:href="#m729c2a4066" x="821.672727" y="512.64" style="stroke: #000000; stroke-width: 0.8"/>
      </g>
     </g>
     <g id="text_6">
      <!-- 2022-03-15 -->
      <g transform="translate(792.614915 527.238438)scale(0.1 -0.1)">
       <use xlink:href="#DejaVuSans-32"/>
       <use xlink:href="#DejaVuSans-30" x="63.623047"/>
       <use xlink:href="#DejaVuSans-32" x="127.246094"/>
       <use xlink:href="#DejaVuSans-32" x="190.869141"/>
       <use xlink:href="#DejaVuSans-2d" x="254.492188"/>
       <use xlink:href="#DejaVuSans-30" x="290.576172"/>
       <use xlink:href="#DejaVuSans-33" x="354.199219"/>
       <use xlink:href="#DejaVuSans-2d" x="417.822266"/>
       <use xlink:href="#DejaVuSans-31" x="453.90625"/>
       <use xlink:href="#DejaVuSans-35" x="517.529297"/>
      </g>
     </g>
    </g>
    <g id="xtick_7">
     <g id="line2d_7">
      <g>
       <use xlink:href="#m729c2a4066" x="970.036364" y="512.64" style="stroke: #000000; stroke-width: 0.8"/>
      </g>
     </g>
     <g id="text_7">
      <!-- 2022-04-01 -->
      <g transform="translate(940.978551 527.238438)scale(0.1 -0.1)">
       <defs>
        <path id="DejaVuSans-34" d="M 2419 4116 
L 825 1625 
L 2419 1625 
L 2419 4116 
z
M 2253 4666 
L 3047 4666 
L 3047 1625 
L 3713 1625 
L 3713 1100 
L 3047 1100 
L 3047 0 
L 2419 0 
L 2419 1100 
L 313 1100 
L 313 1709 
L 2253 4666 
z
" transform="scale(0.015625)"/>
       </defs>
       <use xlink:href="#DejaVuSans-32"/>
       <use xlink:href="#DejaVuSans-30" x="63.623047"/>
       <use xlink:href="#DejaVuSans-32" x="127.246094"/>
       <use xlink:href="#DejaVuSans-32" x="190.869141"/>
       <use xlink:href="#DejaVuSans-2d" x="254.492188"/>
       <use xlink:href="#DejaVuSans-30" x="290.576172"/>
       <use xlink:href="#DejaVuSans-34" x="354.199219"/>
       <use xlink:href="#DejaVuSans-2d" x="417.822266"/>
       <use xlink:href="#DejaVuSans-30" x="453.90625"/>
       <use xlink:href="#DejaVuSans-31" x="517.529297"/>
      </g>
     </g>
    </g>
   </g>
   <g id="matplotlib.axis_2">
    <g id="ytick_1">
     <g id="line2d_8">
      <defs>
       <path id="me5009ba5a9" d="M 0 0 
L -3.5 0 
" style="stroke: #000000; stroke-width: 0.8"/>
      </defs>
      <g>
       <use xlink:href="#me5009ba5a9" x="144" y="477.041487" style="stroke: #000000; stroke-width: 0.8"/>
      </g>
     </g>
     <g id="text_8">
      <!-- 500 -->
      <g transform="translate(117.9125 480.840706)scale(0.1 -0.1)">
       <use xlink:href="#DejaVuSans-35"/>
       <use xlink:href="#DejaVuSans-30" x="63.623047"/>
       <use xlink:href="#DejaVuSans-30" x="127.246094"/>
      </g>
     </g>
    </g>
    <g id="ytick_2">
     <g id="line2d_9">
      <g>
       <use xlink:href="#me5009ba5a9" x="144" y="402.097249" style="stroke: #000000; stroke-width: 0.8"/>
      </g>
     </g>
     <g id="text_9">
      <!-- 1000 -->
      <g transform="translate(111.55 405.896468)scale(0.1 -0.1)">
       <use xlink:href="#DejaVuSans-31"/>
       <use xlink:href="#DejaVuSans-30" x="63.623047"/>
       <use xlink:href="#DejaVuSans-30" x="127.246094"/>
       <use xlink:href="#DejaVuSans-30" x="190.869141"/>
      </g>
     </g>
    </g>
    <g id="ytick_3">
     <g id="line2d_10">
      <g>
       <use xlink:href="#me5009ba5a9" x="144" y="327.153011" style="stroke: #000000; stroke-width: 0.8"/>
      </g>
     </g>
     <g id="text_10">
      <!-- 1500 -->
      <g transform="translate(111.55 330.95223)scale(0.1 -0.1)">
       <use xlink:href="#DejaVuSans-31"/>
       <use xlink:href="#DejaVuSans-35" x="63.623047"/>
       <use xlink:href="#DejaVuSans-30" x="127.246094"/>
       <use xlink:href="#DejaVuSans-30" x="190.869141"/>
      </g>
     </g>
    </g>
    <g id="ytick_4">
     <g id="line2d_11">
      <g>
       <use xlink:href="#me5009ba5a9" x="144" y="252.208773" style="stroke: #000000; stroke-width: 0.8"/>
      </g>
     </g>
     <g id="text_11">
      <!-- 2000 -->
      <g transform="translate(111.55 256.007992)scale(0.1 -0.1)">
       <use xlink:href="#DejaVuSans-32"/>
       <use xlink:href="#DejaVuSans-30" x="63.623047"/>
       <use xlink:href="#DejaVuSans-30" x="127.246094"/>
       <use xlink:href="#DejaVuSans-30" x="190.869141"/>
      </g>
     </g>
    </g>
    <g id="ytick_5">
     <g id="line2d_12">
      <g>
       <use xlink:href="#me5009ba5a9" x="144" y="177.264535" style="stroke: #000000; stroke-width: 0.8"/>
      </g>
     </g>
     <g id="text_12">
      <!-- 2500 -->
      <g transform="translate(111.55 181.063754)scale(0.1 -0.1)">
       <use xlink:href="#DejaVuSans-32"/>
       <use xlink:href="#DejaVuSans-35" x="63.623047"/>
       <use xlink:href="#DejaVuSans-30" x="127.246094"/>
       <use xlink:href="#DejaVuSans-30" x="190.869141"/>
      </g>
     </g>
    </g>
    <g id="ytick_6">
     <g id="line2d_13">
      <g>
       <use xlink:href="#me5009ba5a9" x="144" y="102.320297" style="stroke: #000000; stroke-width: 0.8"/>
      </g>
     </g>
     <g id="text_13">
      <!-- 3000 -->
      <g transform="translate(111.55 106.119516)scale(0.1 -0.1)">
       <use xlink:href="#DejaVuSans-33"/>
       <use xlink:href="#DejaVuSans-30" x="63.623047"/>
       <use xlink:href="#DejaVuSans-30" x="127.246094"/>
       <use xlink:href="#DejaVuSans-30" x="190.869141"/>
      </g>
     </g>
    </g>
   </g>
   <g id="line2d_14">
    <path d="M 184.581818 492.48 
L 193.309091 492.030335 
L 202.036364 491.131004 
L 210.763636 490.081784 
L 219.490909 489.632119 
L 228.218182 489.332342 
L 236.945455 488.732788 
L 245.672727 486.784238 
L 254.4 485.435242 
L 263.127273 484.535911 
L 271.854545 483.786468 
L 280.581818 478.390483 
L 289.309091 470.446394 
L 298.036364 468.497844 
L 306.763636 464.450855 
L 315.490909 456.956431 
L 324.218182 445.26513 
L 332.945455 440.468699 
L 341.672727 436.871375 
L 350.4 435.072714 
L 359.127273 413.938439 
L 367.854545 403.746022 
L 376.581818 399.99881 
L 385.309091 383.36119 
L 394.036364 377.065874 
L 402.763636 371.669888 
L 411.490909 363.426022 
L 420.218182 362.67658 
L 428.945455 356.381264 
L 437.672727 351.584833 
L 446.4 347.987509 
L 455.127273 322.806245 
L 463.854545 320.40803 
L 472.581818 314.862156 
L 481.309091 310.965056 
L 490.036364 310.065725 
L 498.763636 304.969517 
L 507.490909 287.732342 
L 516.218182 283.085799 
L 524.945455 282.336357 
L 533.672727 269.595836 
L 542.4 264.949294 
L 551.127273 264.799405 
L 559.854545 263.900074 
L 568.581818 260.002974 
L 577.309091 255.806097 
L 586.036364 251.759108 
L 594.763636 249.510781 
L 603.490909 247.862007 
L 612.218182 245.014126 
L 620.945455 235.870929 
L 629.672727 229.575613 
L 638.4 224.329517 
L 647.127273 202.745576 
L 655.854545 193.152714 
L 664.581818 186.407732 
L 673.309091 178.013978 
L 682.036364 177.264535 
L 699.490909 176.065428 
L 716.945455 174.716431 
L 725.672727 172.468104 
L 734.4 170.519554 
L 743.127273 168.271227 
L 751.854545 166.322677 
L 760.581818 166.0229 
L 769.309091 165.573234 
L 778.036364 153.582156 
L 786.763636 140.691747 
L 795.490909 140.541859 
L 804.218182 139.192862 
L 812.945455 137.843866 
L 821.672727 129.000446 
L 830.4 126.60223 
L 839.127273 125.553011 
L 847.854545 123.154796 
L 856.581818 119.857249 
L 865.309091 119.707361 
L 874.036364 118.957918 
L 882.763636 118.058587 
L 891.490909 116.409814 
L 900.218182 111.463494 
L 908.945455 111.313606 
L 917.672727 104.268848 
L 926.4 103.369517 
L 935.127273 101.720743 
L 943.854545 100.371747 
L 952.581818 99.772193 
L 961.309091 99.322528 
L 970.036364 98.722974 
L 978.763636 98.273309 
L 987.490909 89.729665 
L 996.218182 89.28 
" clip-path="url(#pa2e6c37241)" style="fill: none; stroke: #1f77b4; stroke-width: 1.5; stroke-linecap: square"/>
   </g>
   <g id="patch_3">
    <path d="M 144 512.64 
L 144 69.12 
" style="fill: none; stroke: #000000; stroke-width: 0.8; stroke-linejoin: miter; stroke-linecap: square"/>
   </g>
   <g id="patch_4">
    <path d="M 1036.8 512.64 
L 1036.8 69.12 
" style="fill: none; stroke: #000000; stroke-width: 0.8; stroke-linejoin: miter; stroke-linecap: square"/>
   </g>
   <g id="patch_5">
    <path d="M 144 512.64 
L 1036.8 512.64 
" style="fill: none; stroke: #000000; stroke-width: 0.8; stroke-linejoin: miter; stroke-linecap: square"/>
   </g>
   <g id="patch_6">
    <path d="M 144 69.12 
L 1036.8 69.12 
" style="fill: none; stroke: #000000; stroke-width: 0.8; stroke-linejoin: miter; stroke-linecap: square"/>
   </g>
   <g id="text_14">
    <!-- Number of AEDs in the OpenStreetMap database in Poland from 2022-01-01, day by day. As at: 2022-04-04 -->
    <g transform="translate(144 63.12)scale(0.14 -0.14)">
     <defs>
      <path id="DejaVuSans-4e" d="M 628 4666 
L 1478 4666 
L 3547 763 
L 3547 4666 
L 4159 4666 
L 4159 0 
L 3309 0 
L 1241 3903 
L 1241 0 
L 628 0 
L 628 4666 
z
" transform="scale(0.015625)"/>
      <path id="DejaVuSans-75" d="M 544 1381 
L 544 3500 
L 1119 3500 
L 1119 1403 
Q 1119 906 1312 657 
Q 1506 409 1894 409 
Q 2359 409 2629 706 
Q 2900 1003 2900 1516 
L 2900 3500 
L 3475 3500 
L 3475 0 
L 2900 0 
L 2900 538 
Q 2691 219 2414 64 
Q 2138 -91 1772 -91 
Q 1169 -91 856 284 
Q 544 659 544 1381 
z
M 1991 3584 
L 1991 3584 
z
" transform="scale(0.015625)"/>
      <path id="DejaVuSans-6d" d="M 3328 2828 
Q 3544 3216 3844 3400 
Q 4144 3584 4550 3584 
Q 5097 3584 5394 3201 
Q 5691 2819 5691 2113 
L 5691 0 
L 5113 0 
L 5113 2094 
Q 5113 2597 4934 2840 
Q 4756 3084 4391 3084 
Q 3944 3084 3684 2787 
Q 3425 2491 3425 1978 
L 3425 0 
L 2847 0 
L 2847 2094 
Q 2847 2600 2669 2842 
Q 2491 3084 2119 3084 
Q 1678 3084 1418 2786 
Q 1159 2488 1159 1978 
L 1159 0 
L 581 0 
L 581 3500 
L 1159 3500 
L 1159 2956 
Q 1356 3278 1631 3431 
Q 1906 3584 2284 3584 
Q 2666 3584 2933 3390 
Q 3200 3197 3328 2828 
z
" transform="scale(0.015625)"/>
      <path id="DejaVuSans-62" d="M 3116 1747 
Q 3116 2381 2855 2742 
Q 2594 3103 2138 3103 
Q 1681 3103 1420 2742 
Q 1159 2381 1159 1747 
Q 1159 1113 1420 752 
Q 1681 391 2138 391 
Q 2594 391 2855 752 
Q 3116 1113 3116 1747 
z
M 1159 2969 
Q 1341 3281 1617 3432 
Q 1894 3584 2278 3584 
Q 2916 3584 3314 3078 
Q 3713 2572 3713 1747 
Q 3713 922 3314 415 
Q 2916 -91 2278 -91 
Q 1894 -91 1617 61 
Q 1341 213 1159 525 
L 1159 0 
L 581 0 
L 581 4863 
L 1159 4863 
L 1159 2969 
z
" transform="scale(0.015625)"/>
      <path id="DejaVuSans-65" d="M 3597 1894 
L 3597 1613 
L 953 1613 
Q 991 1019 1311 708 
Q 1631 397 2203 397 
Q 2534 397 2845 478 
Q 3156 559 3463 722 
L 3463 178 
Q 3153 47 2828 -22 
Q 2503 -91 2169 -91 
Q 1331 -91 842 396 
Q 353 884 353 1716 
Q 353 2575 817 3079 
Q 1281 3584 2069 3584 
Q 2775 3584 3186 3129 
Q 3597 2675 3597 1894 
z
M 3022 2063 
Q 3016 2534 2758 2815 
Q 2500 3097 2075 3097 
Q 1594 3097 1305 2825 
Q 1016 2553 972 2059 
L 3022 2063 
z
" transform="scale(0.015625)"/>
      <path id="DejaVuSans-72" d="M 2631 2963 
Q 2534 3019 2420 3045 
Q 2306 3072 2169 3072 
Q 1681 3072 1420 2755 
Q 1159 2438 1159 1844 
L 1159 0 
L 581 0 
L 581 3500 
L 1159 3500 
L 1159 2956 
Q 1341 3275 1631 3429 
Q 1922 3584 2338 3584 
Q 2397 3584 2469 3576 
Q 2541 3569 2628 3553 
L 2631 2963 
z
" transform="scale(0.015625)"/>
      <path id="DejaVuSans-20" transform="scale(0.015625)"/>
      <path id="DejaVuSans-6f" d="M 1959 3097 
Q 1497 3097 1228 2736 
Q 959 2375 959 1747 
Q 959 1119 1226 758 
Q 1494 397 1959 397 
Q 2419 397 2687 759 
Q 2956 1122 2956 1747 
Q 2956 2369 2687 2733 
Q 2419 3097 1959 3097 
z
M 1959 3584 
Q 2709 3584 3137 3096 
Q 3566 2609 3566 1747 
Q 3566 888 3137 398 
Q 2709 -91 1959 -91 
Q 1206 -91 779 398 
Q 353 888 353 1747 
Q 353 2609 779 3096 
Q 1206 3584 1959 3584 
z
" transform="scale(0.015625)"/>
      <path id="DejaVuSans-66" d="M 2375 4863 
L 2375 4384 
L 1825 4384 
Q 1516 4384 1395 4259 
Q 1275 4134 1275 3809 
L 1275 3500 
L 2222 3500 
L 2222 3053 
L 1275 3053 
L 1275 0 
L 697 0 
L 697 3053 
L 147 3053 
L 147 3500 
L 697 3500 
L 697 3744 
Q 697 4328 969 4595 
Q 1241 4863 1831 4863 
L 2375 4863 
z
" transform="scale(0.015625)"/>
      <path id="DejaVuSans-41" d="M 2188 4044 
L 1331 1722 
L 3047 1722 
L 2188 4044 
z
M 1831 4666 
L 2547 4666 
L 4325 0 
L 3669 0 
L 3244 1197 
L 1141 1197 
L 716 0 
L 50 0 
L 1831 4666 
z
" transform="scale(0.015625)"/>
      <path id="DejaVuSans-45" d="M 628 4666 
L 3578 4666 
L 3578 4134 
L 1259 4134 
L 1259 2753 
L 3481 2753 
L 3481 2222 
L 1259 2222 
L 1259 531 
L 3634 531 
L 3634 0 
L 628 0 
L 628 4666 
z
" transform="scale(0.015625)"/>
      <path id="DejaVuSans-44" d="M 1259 4147 
L 1259 519 
L 2022 519 
Q 2988 519 3436 956 
Q 3884 1394 3884 2338 
Q 3884 3275 3436 3711 
Q 2988 4147 2022 4147 
L 1259 4147 
z
M 628 4666 
L 1925 4666 
Q 3281 4666 3915 4102 
Q 4550 3538 4550 2338 
Q 4550 1131 3912 565 
Q 3275 0 1925 0 
L 628 0 
L 628 4666 
z
" transform="scale(0.015625)"/>
      <path id="DejaVuSans-73" d="M 2834 3397 
L 2834 2853 
Q 2591 2978 2328 3040 
Q 2066 3103 1784 3103 
Q 1356 3103 1142 2972 
Q 928 2841 928 2578 
Q 928 2378 1081 2264 
Q 1234 2150 1697 2047 
L 1894 2003 
Q 2506 1872 2764 1633 
Q 3022 1394 3022 966 
Q 3022 478 2636 193 
Q 2250 -91 1575 -91 
Q 1294 -91 989 -36 
Q 684 19 347 128 
L 347 722 
Q 666 556 975 473 
Q 1284 391 1588 391 
Q 1994 391 2212 530 
Q 2431 669 2431 922 
Q 2431 1156 2273 1281 
Q 2116 1406 1581 1522 
L 1381 1569 
Q 847 1681 609 1914 
Q 372 2147 372 2553 
Q 372 3047 722 3315 
Q 1072 3584 1716 3584 
Q 2034 3584 2315 3537 
Q 2597 3491 2834 3397 
z
" transform="scale(0.015625)"/>
      <path id="DejaVuSans-69" d="M 603 3500 
L 1178 3500 
L 1178 0 
L 603 0 
L 603 3500 
z
M 603 4863 
L 1178 4863 
L 1178 4134 
L 603 4134 
L 603 4863 
z
" transform="scale(0.015625)"/>
      <path id="DejaVuSans-6e" d="M 3513 2113 
L 3513 0 
L 2938 0 
L 2938 2094 
Q 2938 2591 2744 2837 
Q 2550 3084 2163 3084 
Q 1697 3084 1428 2787 
Q 1159 2491 1159 1978 
L 1159 0 
L 581 0 
L 581 3500 
L 1159 3500 
L 1159 2956 
Q 1366 3272 1645 3428 
Q 1925 3584 2291 3584 
Q 2894 3584 3203 3211 
Q 3513 2838 3513 2113 
z
" transform="scale(0.015625)"/>
      <path id="DejaVuSans-74" d="M 1172 4494 
L 1172 3500 
L 2356 3500 
L 2356 3053 
L 1172 3053 
L 1172 1153 
Q 1172 725 1289 603 
Q 1406 481 1766 481 
L 2356 481 
L 2356 0 
L 1766 0 
Q 1100 0 847 248 
Q 594 497 594 1153 
L 594 3053 
L 172 3053 
L 172 3500 
L 594 3500 
L 594 4494 
L 1172 4494 
z
" transform="scale(0.015625)"/>
      <path id="DejaVuSans-68" d="M 3513 2113 
L 3513 0 
L 2938 0 
L 2938 2094 
Q 2938 2591 2744 2837 
Q 2550 3084 2163 3084 
Q 1697 3084 1428 2787 
Q 1159 2491 1159 1978 
L 1159 0 
L 581 0 
L 581 4863 
L 1159 4863 
L 1159 2956 
Q 1366 3272 1645 3428 
Q 1925 3584 2291 3584 
Q 2894 3584 3203 3211 
Q 3513 2838 3513 2113 
z
" transform="scale(0.015625)"/>
      <path id="DejaVuSans-4f" d="M 2522 4238 
Q 1834 4238 1429 3725 
Q 1025 3213 1025 2328 
Q 1025 1447 1429 934 
Q 1834 422 2522 422 
Q 3209 422 3611 934 
Q 4013 1447 4013 2328 
Q 4013 3213 3611 3725 
Q 3209 4238 2522 4238 
z
M 2522 4750 
Q 3503 4750 4090 4092 
Q 4678 3434 4678 2328 
Q 4678 1225 4090 567 
Q 3503 -91 2522 -91 
Q 1538 -91 948 565 
Q 359 1222 359 2328 
Q 359 3434 948 4092 
Q 1538 4750 2522 4750 
z
" transform="scale(0.015625)"/>
      <path id="DejaVuSans-70" d="M 1159 525 
L 1159 -1331 
L 581 -1331 
L 581 3500 
L 1159 3500 
L 1159 2969 
Q 1341 3281 1617 3432 
Q 1894 3584 2278 3584 
Q 2916 3584 3314 3078 
Q 3713 2572 3713 1747 
Q 3713 922 3314 415 
Q 2916 -91 2278 -91 
Q 1894 -91 1617 61 
Q 1341 213 1159 525 
z
M 3116 1747 
Q 3116 2381 2855 2742 
Q 2594 3103 2138 3103 
Q 1681 3103 1420 2742 
Q 1159 2381 1159 1747 
Q 1159 1113 1420 752 
Q 1681 391 2138 391 
Q 2594 391 2855 752 
Q 3116 1113 3116 1747 
z
" transform="scale(0.015625)"/>
      <path id="DejaVuSans-53" d="M 3425 4513 
L 3425 3897 
Q 3066 4069 2747 4153 
Q 2428 4238 2131 4238 
Q 1616 4238 1336 4038 
Q 1056 3838 1056 3469 
Q 1056 3159 1242 3001 
Q 1428 2844 1947 2747 
L 2328 2669 
Q 3034 2534 3370 2195 
Q 3706 1856 3706 1288 
Q 3706 609 3251 259 
Q 2797 -91 1919 -91 
Q 1588 -91 1214 -16 
Q 841 59 441 206 
L 441 856 
Q 825 641 1194 531 
Q 1563 422 1919 422 
Q 2459 422 2753 634 
Q 3047 847 3047 1241 
Q 3047 1584 2836 1778 
Q 2625 1972 2144 2069 
L 1759 2144 
Q 1053 2284 737 2584 
Q 422 2884 422 3419 
Q 422 4038 858 4394 
Q 1294 4750 2059 4750 
Q 2388 4750 2728 4690 
Q 3069 4631 3425 4513 
z
" transform="scale(0.015625)"/>
      <path id="DejaVuSans-4d" d="M 628 4666 
L 1569 4666 
L 2759 1491 
L 3956 4666 
L 4897 4666 
L 4897 0 
L 4281 0 
L 4281 4097 
L 3078 897 
L 2444 897 
L 1241 4097 
L 1241 0 
L 628 0 
L 628 4666 
z
" transform="scale(0.015625)"/>
      <path id="DejaVuSans-61" d="M 2194 1759 
Q 1497 1759 1228 1600 
Q 959 1441 959 1056 
Q 959 750 1161 570 
Q 1363 391 1709 391 
Q 2188 391 2477 730 
Q 2766 1069 2766 1631 
L 2766 1759 
L 2194 1759 
z
M 3341 1997 
L 3341 0 
L 2766 0 
L 2766 531 
Q 2569 213 2275 61 
Q 1981 -91 1556 -91 
Q 1019 -91 701 211 
Q 384 513 384 1019 
Q 384 1609 779 1909 
Q 1175 2209 1959 2209 
L 2766 2209 
L 2766 2266 
Q 2766 2663 2505 2880 
Q 2244 3097 1772 3097 
Q 1472 3097 1187 3025 
Q 903 2953 641 2809 
L 641 3341 
Q 956 3463 1253 3523 
Q 1550 3584 1831 3584 
Q 2591 3584 2966 3190 
Q 3341 2797 3341 1997 
z
" transform="scale(0.015625)"/>
      <path id="DejaVuSans-64" d="M 2906 2969 
L 2906 4863 
L 3481 4863 
L 3481 0 
L 2906 0 
L 2906 525 
Q 2725 213 2448 61 
Q 2172 -91 1784 -91 
Q 1150 -91 751 415 
Q 353 922 353 1747 
Q 353 2572 751 3078 
Q 1150 3584 1784 3584 
Q 2172 3584 2448 3432 
Q 2725 3281 2906 2969 
z
M 947 1747 
Q 947 1113 1208 752 
Q 1469 391 1925 391 
Q 2381 391 2643 752 
Q 2906 1113 2906 1747 
Q 2906 2381 2643 2742 
Q 2381 3103 1925 3103 
Q 1469 3103 1208 2742 
Q 947 2381 947 1747 
z
" transform="scale(0.015625)"/>
      <path id="DejaVuSans-50" d="M 1259 4147 
L 1259 2394 
L 2053 2394 
Q 2494 2394 2734 2622 
Q 2975 2850 2975 3272 
Q 2975 3691 2734 3919 
Q 2494 4147 2053 4147 
L 1259 4147 
z
M 628 4666 
L 2053 4666 
Q 2838 4666 3239 4311 
Q 3641 3956 3641 3272 
Q 3641 2581 3239 2228 
Q 2838 1875 2053 1875 
L 1259 1875 
L 1259 0 
L 628 0 
L 628 4666 
z
" transform="scale(0.015625)"/>
      <path id="DejaVuSans-6c" d="M 603 4863 
L 1178 4863 
L 1178 0 
L 603 0 
L 603 4863 
z
" transform="scale(0.015625)"/>
      <path id="DejaVuSans-2c" d="M 750 794 
L 1409 794 
L 1409 256 
L 897 -744 
L 494 -744 
L 750 256 
L 750 794 
z
" transform="scale(0.015625)"/>
      <path id="DejaVuSans-79" d="M 2059 -325 
Q 1816 -950 1584 -1140 
Q 1353 -1331 966 -1331 
L 506 -1331 
L 506 -850 
L 844 -850 
Q 1081 -850 1212 -737 
Q 1344 -625 1503 -206 
L 1606 56 
L 191 3500 
L 800 3500 
L 1894 763 
L 2988 3500 
L 3597 3500 
L 2059 -325 
z
" transform="scale(0.015625)"/>
      <path id="DejaVuSans-2e" d="M 684 794 
L 1344 794 
L 1344 0 
L 684 0 
L 684 794 
z
" transform="scale(0.015625)"/>
      <path id="DejaVuSans-3a" d="M 750 794 
L 1409 794 
L 1409 0 
L 750 0 
L 750 794 
z
M 750 3309 
L 1409 3309 
L 1409 2516 
L 750 2516 
L 750 3309 
z
" transform="scale(0.015625)"/>
     </defs>
     <use xlink:href="#DejaVuSans-4e"/>
     <use xlink:href="#DejaVuSans-75" x="74.804688"/>
     <use xlink:href="#DejaVuSans-6d" x="138.183594"/>
     <use xlink:href="#DejaVuSans-62" x="235.595703"/>
     <use xlink:href="#DejaVuSans-65" x="299.072266"/>
     <use xlink:href="#DejaVuSans-72" x="360.595703"/>
     <use xlink:href="#DejaVuSans-20" x="401.708984"/>
     <use xlink:href="#DejaVuSans-6f" x="433.496094"/>
     <use xlink:href="#DejaVuSans-66" x="494.677734"/>
     <use xlink:href="#DejaVuSans-20" x="529.882812"/>
     <use xlink:href="#DejaVuSans-41" x="561.669922"/>
     <use xlink:href="#DejaVuSans-45" x="630.078125"/>
     <use xlink:href="#DejaVuSans-44" x="693.261719"/>
     <use xlink:href="#DejaVuSans-73" x="770.263672"/>
     <use xlink:href="#DejaVuSans-20" x="822.363281"/>
     <use xlink:href="#DejaVuSans-69" x="854.150391"/>
     <use xlink:href="#DejaVuSans-6e" x="881.933594"/>
     <use xlink:href="#DejaVuSans-20" x="945.3125"/>
     <use xlink:href="#DejaVuSans-74" x="977.099609"/>
     <use xlink:href="#DejaVuSans-68" x="1016.308594"/>
     <use xlink:href="#DejaVuSans-65" x="1079.6875"/>
     <use xlink:href="#DejaVuSans-20" x="1141.210938"/>
     <use xlink:href="#DejaVuSans-4f" x="1172.998047"/>
     <use xlink:href="#DejaVuSans-70" x="1251.708984"/>
     <use xlink:href="#DejaVuSans-65" x="1315.185547"/>
     <use xlink:href="#DejaVuSans-6e" x="1376.708984"/>
     <use xlink:href="#DejaVuSans-53" x="1440.087891"/>
     <use xlink:href="#DejaVuSans-74" x="1503.564453"/>
     <use xlink:href="#DejaVuSans-72" x="1542.773438"/>
     <use xlink:href="#DejaVuSans-65" x="1581.636719"/>
     <use xlink:href="#DejaVuSans-65" x="1643.160156"/>
     <use xlink:href="#DejaVuSans-74" x="1704.683594"/>
     <use xlink:href="#DejaVuSans-4d" x="1743.892578"/>
     <use xlink:href="#DejaVuSans-61" x="1830.171875"/>
     <use xlink:href="#DejaVuSans-70" x="1891.451172"/>
     <use xlink:href="#DejaVuSans-20" x="1954.927734"/>
     <use xlink:href="#DejaVuSans-64" x="1986.714844"/>
     <use xlink:href="#DejaVuSans-61" x="2050.191406"/>
     <use xlink:href="#DejaVuSans-74" x="2111.470703"/>
     <use xlink:href="#DejaVuSans-61" x="2150.679688"/>
     <use xlink:href="#DejaVuSans-62" x="2211.958984"/>
     <use xlink:href="#DejaVuSans-61" x="2275.435547"/>
     <use xlink:href="#DejaVuSans-73" x="2336.714844"/>
     <use xlink:href="#DejaVuSans-65" x="2388.814453"/>
     <use xlink:href="#DejaVuSans-20" x="2450.337891"/>
     <use xlink:href="#DejaVuSans-69" x="2482.125"/>
     <use xlink:href="#DejaVuSans-6e" x="2509.908203"/>
     <use xlink:href="#DejaVuSans-20" x="2573.287109"/>
     <use xlink:href="#DejaVuSans-50" x="2605.074219"/>
     <use xlink:href="#DejaVuSans-6f" x="2661.751953"/>
     <use xlink:href="#DejaVuSans-6c" x="2722.933594"/>
     <use xlink:href="#DejaVuSans-61" x="2750.716797"/>
     <use xlink:href="#DejaVuSans-6e" x="2811.996094"/>
     <use xlink:href="#DejaVuSans-64" x="2875.375"/>
     <use xlink:href="#DejaVuSans-20" x="2938.851562"/>
     <use xlink:href="#DejaVuSans-66" x="2970.638672"/>
     <use xlink:href="#DejaVuSans-72" x="3005.84375"/>
     <use xlink:href="#DejaVuSans-6f" x="3044.707031"/>
     <use xlink:href="#DejaVuSans-6d" x="3105.888672"/>
     <use xlink:href="#DejaVuSans-20" x="3203.300781"/>
     <use xlink:href="#DejaVuSans-32" x="3235.087891"/>
     <use xlink:href="#DejaVuSans-30" x="3298.710938"/>
     <use xlink:href="#DejaVuSans-32" x="3362.333984"/>
     <use xlink:href="#DejaVuSans-32" x="3425.957031"/>
     <use xlink:href="#DejaVuSans-2d" x="3489.580078"/>
     <use xlink:href="#DejaVuSans-30" x="3525.664062"/>
     <use xlink:href="#DejaVuSans-31" x="3589.287109"/>
     <use xlink:href="#DejaVuSans-2d" x="3652.910156"/>
     <use xlink:href="#DejaVuSans-30" x="3688.994141"/>
     <use xlink:href="#DejaVuSans-31" x="3752.617188"/>
     <use xlink:href="#DejaVuSans-2c" x="3816.240234"/>
     <use xlink:href="#DejaVuSans-20" x="3848.027344"/>
     <use xlink:href="#DejaVuSans-64" x="3879.814453"/>
     <use xlink:href="#DejaVuSans-61" x="3943.291016"/>
     <use xlink:href="#DejaVuSans-79" x="4004.570312"/>
     <use xlink:href="#DejaVuSans-20" x="4063.75"/>
     <use xlink:href="#DejaVuSans-62" x="4095.537109"/>
     <use xlink:href="#DejaVuSans-79" x="4159.013672"/>
     <use xlink:href="#DejaVuSans-20" x="4218.193359"/>
     <use xlink:href="#DejaVuSans-64" x="4249.980469"/>
     <use xlink:href="#DejaVuSans-61" x="4313.457031"/>
     <use xlink:href="#DejaVuSans-79" x="4374.736328"/>
     <use xlink:href="#DejaVuSans-2e" x="4419.666016"/>
     <use xlink:href="#DejaVuSans-20" x="4451.453125"/>
     <use xlink:href="#DejaVuSans-41" x="4483.240234"/>
     <use xlink:href="#DejaVuSans-73" x="4551.648438"/>
     <use xlink:href="#DejaVuSans-20" x="4603.748047"/>
     <use xlink:href="#DejaVuSans-61" x="4635.535156"/>
     <use xlink:href="#DejaVuSans-74" x="4696.814453"/>
     <use xlink:href="#DejaVuSans-3a" x="4736.023438"/>
     <use xlink:href="#DejaVuSans-20" x="4769.714844"/>
     <use xlink:href="#DejaVuSans-32" x="4801.501953"/>
     <use xlink:href="#DejaVuSans-30" x="4865.125"/>
     <use xlink:href="#DejaVuSans-32" x="4928.748047"/>
     <use xlink:href="#DejaVuSans-32" x="4992.371094"/>
     <use xlink:href="#DejaVuSans-2d" x="5055.994141"/>
     <use xlink:href="#DejaVuSans-30" x="5092.078125"/>
     <use xlink:href="#DejaVuSans-34" x="5155.701172"/>
     <use xlink:href="#DejaVuSans-2d" x="5219.324219"/>
     <use xlink:href="#DejaVuSans-30" x="5255.408203"/>
     <use xlink:href="#DejaVuSans-34" x="5319.03125"/>
    </g>
   </g>
  </g>
 </g>
 <defs>
  <clipPath id="pa2e6c37241">
   <rect x="144" y="69.12" width="892.8" height="443.52"/>
  </clipPath>
 </defs>
</svg>
