<?xml version="1.0" encoding="utf-8" standalone="no"?>
<!DOCTYPE svg PUBLIC "-//W3C//DTD SVG 1.1//EN"
  "http://www.w3.org/Graphics/SVG/1.1/DTD/svg11.dtd">
<svg xmlns:xlink="http://www.w3.org/1999/xlink" width="1152pt" height="576pt" viewBox="0 0 1152 576" xmlns="http://www.w3.org/2000/svg" version="1.1">
 <metadata>
  <rdf:RDF xmlns:dc="http://purl.org/dc/elements/1.1/" xmlns:cc="http://creativecommons.org/ns#" xmlns:rdf="http://www.w3.org/1999/02/22-rdf-syntax-ns#">
   <cc:Work>
    <dc:type rdf:resource="http://purl.org/dc/dcmitype/StillImage"/>
    <dc:date>2024-03-04T10:33:20.175159</dc:date>
    <dc:format>image/svg+xml</dc:format>
    <dc:creator>
     <cc:Agent>
      <dc:title>Matplotlib v3.8.3, https://matplotlib.org/</dc:title>
     </cc:Agent>
    </dc:creator>
   </cc:Work>
  </rdf:RDF>
 </metadata>
 <defs>
  <style type="text/css">*{stroke-linejoin: round; stroke-linecap: butt}</style>
 </defs>
 <g id="figure_1">
  <g id="patch_1">
   <path d="M 0 576 
L 1152 576 
L 1152 0 
L 0 0 
z
" style="fill: #ffffff"/>
  </g>
  <g id="axes_1">
   <g id="patch_2">
    <path d="M 144 512.64 
L 1036.8 512.64 
L 1036.8 69.12 
L 144 69.12 
z
" style="fill: #ffffff"/>
   </g>
   <g id="PathCollection_1">
    <path d="M 184.581818 496.015534 
C 185.519453 496.015534 186.41881 495.643008 187.081818 494.98 
C 187.744826 494.316992 188.117352 493.417635 188.117352 492.48 
C 188.117352 491.542365 187.744826 490.643008 187.081818 489.98 
C 186.41881 489.316992 185.519453 488.944466 184.581818 488.944466 
C 183.644184 488.944466 182.744826 489.316992 182.081818 489.98 
C 181.41881 490.643008 181.046284 491.542365 181.046284 492.48 
C 181.046284 493.417635 181.41881 494.316992 182.081818 494.98 
C 182.744826 495.643008 183.644184 496.015534 184.581818 496.015534 
z
" clip-path="url(#p0d4f9d7544)" style="fill: #1f77b4; fill-opacity: 0.3; stroke: #1f77b4; stroke-opacity: 0.3"/>
    <path d="M 197.464935 481.182047 
C 199.340204 481.182047 201.13892 480.436995 202.464935 479.110979 
C 203.790951 477.784964 204.536003 475.986249 204.536003 474.110979 
C 204.536003 472.23571 203.790951 470.436995 202.464935 469.110979 
C 201.13892 467.784964 199.340204 467.039912 197.464935 467.039912 
C 195.589666 467.039912 193.790951 467.784964 192.464935 469.110979 
C 191.13892 470.436995 190.393867 472.23571 190.393867 474.110979 
C 190.393867 475.986249 191.13892 477.784964 192.464935 479.110979 
C 193.790951 480.436995 195.589666 481.182047 197.464935 481.182047 
z
" clip-path="url(#p0d4f9d7544)" style="fill: #1f77b4; fill-opacity: 0.3; stroke: #1f77b4; stroke-opacity: 0.3"/>
    <path d="M 210.348052 458.293511 
C 212.486188 458.293511 214.537039 457.44402 216.048929 455.93213 
C 217.560819 454.42024 218.41031 452.369389 218.41031 450.231253 
C 218.41031 448.093117 217.560819 446.042266 216.048929 444.530376 
C 214.537039 443.018485 212.486188 442.168995 210.348052 442.168995 
C 208.209916 442.168995 206.159065 443.018485 204.647175 444.530376 
C 203.135285 446.042266 202.285794 448.093117 202.285794 450.231253 
C 202.285794 452.369389 203.135285 454.42024 204.647175 455.93213 
C 206.159065 457.44402 208.209916 458.293511 210.348052 458.293511 
z
" clip-path="url(#p0d4f9d7544)" style="fill: #1f77b4; fill-opacity: 0.3; stroke: #1f77b4; stroke-opacity: 0.3"/>
    <path d="M 223.231169 450.893941 
C 223.650492 450.893941 224.052697 450.727342 224.349203 450.430836 
C 224.645709 450.13433 224.812308 449.732125 224.812308 449.312802 
C 224.812308 448.893479 224.645709 448.491274 224.349203 448.194768 
C 224.052697 447.898262 223.650492 447.731663 223.231169 447.731663 
C 222.811846 447.731663 222.409641 447.898262 222.113135 448.194768 
C 221.816629 448.491274 221.65003 448.893479 221.65003 449.312802 
C 221.65003 449.732125 221.816629 450.13433 222.113135 450.430836 
C 222.409641 450.727342 222.811846 450.893941 223.231169 450.893941 
z
" clip-path="url(#p0d4f9d7544)" style="fill: #1f77b4; fill-opacity: 0.3; stroke: #1f77b4; stroke-opacity: 0.3"/>
    <path d="M 236.114286 445.128292 
C 237.440301 445.128292 238.712185 444.60146 239.64982 443.663825 
C 240.587454 442.726191 241.114286 441.454307 241.114286 440.128292 
C 241.114286 438.802276 240.587454 437.530392 239.64982 436.592758 
C 238.712185 435.655123 237.440301 435.128292 236.114286 435.128292 
C 234.78827 435.128292 233.516386 435.655123 232.578752 436.592758 
C 231.641117 437.530392 231.114286 438.802276 231.114286 440.128292 
C 231.114286 441.454307 231.641117 442.726191 232.578752 443.663825 
C 233.516386 444.60146 234.78827 445.128292 236.114286 445.128292 
z
" clip-path="url(#p0d4f9d7544)" style="fill: #1f77b4; fill-opacity: 0.3; stroke: #1f77b4; stroke-opacity: 0.3"/>
    <path d="M 261.880519 439.07157 
C 262.818154 439.07157 263.717512 438.699044 264.380519 438.036036 
C 265.043527 437.373029 265.416053 436.473671 265.416053 435.536036 
C 265.416053 434.598402 265.043527 433.699044 264.380519 433.036036 
C 263.717512 432.373029 262.818154 432.000503 261.880519 432.000503 
C 260.942885 432.000503 260.043527 432.373029 259.380519 433.036036 
C 258.717512 433.699044 258.344986 434.598402 258.344986 435.536036 
C 258.344986 436.473671 258.717512 437.373029 259.380519 438.036036 
C 260.043527 438.699044 260.942885 439.07157 261.880519 439.07157 
z
" clip-path="url(#p0d4f9d7544)" style="fill: #1f77b4; fill-opacity: 0.3; stroke: #1f77b4; stroke-opacity: 0.3"/>
    <path d="M 274.763636 435.02451 
C 275.602282 435.02451 276.406692 434.691312 276.999704 434.0983 
C 277.592717 433.505288 277.925914 432.700878 277.925914 431.862232 
C 277.925914 431.023587 277.592717 430.219177 276.999704 429.626164 
C 276.406692 429.033152 275.602282 428.699955 274.763636 428.699955 
C 273.924991 428.699955 273.120581 429.033152 272.527568 429.626164 
C 271.934556 430.219177 271.601359 431.023587 271.601359 431.862232 
C 271.601359 432.700878 271.934556 433.505288 272.527568 434.0983 
C 273.120581 434.691312 273.924991 435.02451 274.763636 435.02451 
z
" clip-path="url(#p0d4f9d7544)" style="fill: #1f77b4; fill-opacity: 0.3; stroke: #1f77b4; stroke-opacity: 0.3"/>
    <path d="M 287.646753 431.845492 
C 288.373042 431.845492 289.069681 431.556935 289.583245 431.043371 
C 290.096809 430.529807 290.385366 429.833168 290.385366 429.106879 
C 290.385366 428.380591 290.096809 427.683951 289.583245 427.170388 
C 289.069681 426.656824 288.373042 426.368266 287.646753 426.368266 
C 286.920465 426.368266 286.223825 426.656824 285.710262 427.170388 
C 285.196698 427.683951 284.90814 428.380591 284.90814 429.106879 
C 284.90814 429.833168 285.196698 430.529807 285.710262 431.043371 
C 286.223825 431.556935 286.920465 431.845492 287.646753 431.845492 
z
" clip-path="url(#p0d4f9d7544)" style="fill: #1f77b4; fill-opacity: 0.3; stroke: #1f77b4; stroke-opacity: 0.3"/>
    <path d="M 300.52987 428.595353 
C 301.368516 428.595353 302.172926 428.262155 302.765938 427.669143 
C 303.35895 427.076131 303.692148 426.271721 303.692148 425.433075 
C 303.692148 424.594429 303.35895 423.790019 302.765938 423.197007 
C 302.172926 422.603995 301.368516 422.270798 300.52987 422.270798 
C 299.691224 422.270798 298.886814 422.603995 298.293802 423.197007 
C 297.70079 423.790019 297.367592 424.594429 297.367592 425.433075 
C 297.367592 426.271721 297.70079 427.076131 298.293802 427.669143 
C 298.886814 428.262155 299.691224 428.595353 300.52987 428.595353 
z
" clip-path="url(#p0d4f9d7544)" style="fill: #1f77b4; fill-opacity: 0.3; stroke: #1f77b4; stroke-opacity: 0.3"/>
    <path d="M 313.412987 423.795352 
C 314.440114 423.795352 315.425311 423.38727 316.1516 422.660982 
C 316.877888 421.934693 317.28597 420.949496 317.28597 419.922369 
C 317.28597 418.895242 316.877888 417.910045 316.1516 417.183756 
C 315.425311 416.457468 314.440114 416.049386 313.412987 416.049386 
C 312.38586 416.049386 311.400663 416.457468 310.674374 417.183756 
C 309.948086 417.910045 309.540004 418.895242 309.540004 419.922369 
C 309.540004 420.949496 309.948086 421.934693 310.674374 422.660982 
C 311.400663 423.38727 312.38586 423.795352 313.412987 423.795352 
z
" clip-path="url(#p0d4f9d7544)" style="fill: #1f77b4; fill-opacity: 0.3; stroke: #1f77b4; stroke-opacity: 0.3"/>
    <path d="M 326.296104 411.551708 
C 327.973396 411.551708 329.582216 410.885313 330.76824 409.699289 
C 331.954264 408.513264 332.620659 406.904444 332.620659 405.227153 
C 332.620659 403.549861 331.954264 401.941041 330.76824 400.755017 
C 329.582216 399.568992 327.973396 398.902597 326.296104 398.902597 
C 324.618812 398.902597 323.009992 399.568992 321.823968 400.755017 
C 320.637944 401.941041 319.971549 403.549861 319.971549 405.227153 
C 319.971549 406.904444 320.637944 408.513264 321.823968 409.699289 
C 323.009992 410.885313 324.618812 411.551708 326.296104 411.551708 
z
" clip-path="url(#p0d4f9d7544)" style="fill: #1f77b4; fill-opacity: 0.3; stroke: #1f77b4; stroke-opacity: 0.3"/>
    <path d="M 339.179221 405.210412 
C 339.905509 405.210412 340.602149 404.921855 341.115712 404.408291 
C 341.629276 403.894728 341.917834 403.198088 341.917834 402.4718 
C 341.917834 401.745511 341.629276 401.048871 341.115712 400.535308 
C 340.602149 400.021744 339.905509 399.733187 339.179221 399.733187 
C 338.452932 399.733187 337.756293 400.021744 337.242729 400.535308 
C 336.729166 401.048871 336.440608 401.745511 336.440608 402.4718 
C 336.440608 403.198088 336.729166 403.894728 337.242729 404.408291 
C 337.756293 404.921855 338.452932 405.210412 339.179221 405.210412 
z
" clip-path="url(#p0d4f9d7544)" style="fill: #1f77b4; fill-opacity: 0.3; stroke: #1f77b4; stroke-opacity: 0.3"/>
    <path d="M 352.062338 402.455059 
C 352.788626 402.455059 353.485266 402.166502 353.998829 401.652938 
C 354.512393 401.139375 354.80095 400.442735 354.80095 399.716446 
C 354.80095 398.990158 354.512393 398.293518 353.998829 397.779955 
C 353.485266 397.266391 352.788626 396.977834 352.062338 396.977834 
C 351.336049 396.977834 350.63941 397.266391 350.125846 397.779955 
C 349.612282 398.293518 349.323725 398.990158 349.323725 399.716446 
C 349.323725 400.442735 349.612282 401.139375 350.125846 401.652938 
C 350.63941 402.166502 351.336049 402.455059 352.062338 402.455059 
z
" clip-path="url(#p0d4f9d7544)" style="fill: #1f77b4; fill-opacity: 0.3; stroke: #1f77b4; stroke-opacity: 0.3"/>
    <path d="M 364.945455 392.063405 
C 366.569485 392.063405 368.127218 391.418171 369.275582 390.269808 
C 370.423945 389.121445 371.069179 387.563712 371.069179 385.939681 
C 371.069179 384.31565 370.423945 382.757917 369.275582 381.609554 
C 368.127218 380.461191 366.569485 379.815957 364.945455 379.815957 
C 363.321424 379.815957 361.763691 380.461191 360.615328 381.609554 
C 359.466964 382.757917 358.82173 384.31565 358.82173 385.939681 
C 358.82173 387.563712 359.466964 389.121445 360.615328 390.269808 
C 361.763691 391.418171 363.321424 392.063405 364.945455 392.063405 
z
" clip-path="url(#p0d4f9d7544)" style="fill: #1f77b4; fill-opacity: 0.3; stroke: #1f77b4; stroke-opacity: 0.3"/>
    <path d="M 377.828571 385.428155 
C 378.667217 385.428155 379.471627 385.094957 380.064639 384.501945 
C 380.657652 383.908933 380.990849 383.104523 380.990849 382.265877 
C 380.990849 381.427231 380.657652 380.622821 380.064639 380.029809 
C 379.471627 379.436797 378.667217 379.103599 377.828571 379.103599 
C 376.989926 379.103599 376.185516 379.436797 375.592503 380.029809 
C 374.999491 380.622821 374.666294 381.427231 374.666294 382.265877 
C 374.666294 383.104523 374.999491 383.908933 375.592503 384.501945 
C 376.185516 385.094957 376.989926 385.428155 377.828571 385.428155 
z
" clip-path="url(#p0d4f9d7544)" style="fill: #1f77b4; fill-opacity: 0.3; stroke: #1f77b4; stroke-opacity: 0.3"/>
    <path d="M 390.711688 376.72169 
C 392.164266 376.72169 393.557544 376.144575 394.584672 375.117448 
C 395.611799 374.090321 396.188914 372.697042 396.188914 371.244465 
C 396.188914 369.791887 395.611799 368.398609 394.584672 367.371481 
C 393.557544 366.344354 392.164266 365.767239 390.711688 365.767239 
C 389.259111 365.767239 387.865832 366.344354 386.838705 367.371481 
C 385.811578 368.398609 385.234463 369.791887 385.234463 371.244465 
C 385.234463 372.697042 385.811578 374.090321 386.838705 375.117448 
C 387.865832 376.144575 389.259111 376.72169 390.711688 376.72169 
z
" clip-path="url(#p0d4f9d7544)" style="fill: #1f77b4; fill-opacity: 0.3; stroke: #1f77b4; stroke-opacity: 0.3"/>
    <path d="M 403.594805 370.187743 
C 404.53244 370.187743 405.431797 369.815217 406.094805 369.15221 
C 406.757813 368.489202 407.130339 367.589844 407.130339 366.65221 
C 407.130339 365.714575 406.757813 364.815217 406.094805 364.15221 
C 405.431797 363.489202 404.53244 363.116676 403.594805 363.116676 
C 402.657171 363.116676 401.757813 363.489202 401.094805 364.15221 
C 400.431797 364.815217 400.059271 365.714575 400.059271 366.65221 
C 400.059271 367.589844 400.431797 368.489202 401.094805 369.15221 
C 401.757813 369.815217 402.657171 370.187743 403.594805 370.187743 
z
" clip-path="url(#p0d4f9d7544)" style="fill: #1f77b4; fill-opacity: 0.3; stroke: #1f77b4; stroke-opacity: 0.3"/>
    <path d="M 416.477922 365.014487 
C 417.505049 365.014487 418.490246 364.606405 419.216535 363.880116 
C 419.942823 363.153828 420.350905 362.168631 420.350905 361.141503 
C 420.350905 360.114376 419.942823 359.129179 419.216535 358.402891 
C 418.490246 357.676602 417.505049 357.26852 416.477922 357.26852 
C 415.450795 357.26852 414.465598 357.676602 413.739309 358.402891 
C 413.013021 359.129179 412.604939 360.114376 412.604939 361.141503 
C 412.604939 362.168631 413.013021 363.153828 413.739309 363.880116 
C 414.465598 364.606405 415.450795 365.014487 416.477922 365.014487 
z
" clip-path="url(#p0d4f9d7544)" style="fill: #1f77b4; fill-opacity: 0.3; stroke: #1f77b4; stroke-opacity: 0.3"/>
    <path d="M 429.361039 361.124763 
C 430.087328 361.124763 430.783967 360.836206 431.297531 360.322642 
C 431.811094 359.809078 432.099652 359.112439 432.099652 358.38615 
C 432.099652 357.659862 431.811094 356.963222 431.297531 356.449659 
C 430.783967 355.936095 430.087328 355.647538 429.361039 355.647538 
C 428.63475 355.647538 427.938111 355.936095 427.424547 356.449659 
C 426.910984 356.963222 426.622426 357.659862 426.622426 358.38615 
C 426.622426 359.112439 426.910984 359.809078 427.424547 360.322642 
C 427.938111 360.836206 428.63475 361.124763 429.361039 361.124763 
z
" clip-path="url(#p0d4f9d7544)" style="fill: #1f77b4; fill-opacity: 0.3; stroke: #1f77b4; stroke-opacity: 0.3"/>
    <path d="M 442.244156 358.36941 
C 442.970444 358.36941 443.667084 358.080853 444.180648 357.567289 
C 444.694211 357.053725 444.982769 356.357086 444.982769 355.630797 
C 444.982769 354.904509 444.694211 354.207869 444.180648 353.694306 
C 443.667084 353.180742 442.970444 352.892184 442.244156 352.892184 
C 441.517867 352.892184 440.821228 353.180742 440.307664 353.694306 
C 439.794101 354.207869 439.505543 354.904509 439.505543 355.630797 
C 439.505543 356.357086 439.794101 357.053725 440.307664 357.567289 
C 440.821228 358.080853 441.517867 358.36941 442.244156 358.36941 
z
" clip-path="url(#p0d4f9d7544)" style="fill: #1f77b4; fill-opacity: 0.3; stroke: #1f77b4; stroke-opacity: 0.3"/>
    <path d="M 455.127273 354.574076 
C 456.064907 354.574076 456.964265 354.20155 457.627273 353.538542 
C 458.29028 352.875534 458.662807 351.976177 458.662807 351.038542 
C 458.662807 350.100908 458.29028 349.20155 457.627273 348.538542 
C 456.964265 347.875534 456.064907 347.503008 455.127273 347.503008 
C 454.189638 347.503008 453.29028 347.875534 452.627273 348.538542 
C 451.964265 349.20155 451.591739 350.100908 451.591739 351.038542 
C 451.591739 351.976177 451.964265 352.875534 452.627273 353.538542 
C 453.29028 354.20155 454.189638 354.574076 455.127273 354.574076 
z
" clip-path="url(#p0d4f9d7544)" style="fill: #1f77b4; fill-opacity: 0.3; stroke: #1f77b4; stroke-opacity: 0.3"/>
    <path d="M 468.01039 349.981821 
C 468.948024 349.981821 469.847382 349.609295 470.51039 348.946287 
C 471.173397 348.283279 471.545924 347.383922 471.545924 346.446287 
C 471.545924 345.508652 471.173397 344.609295 470.51039 343.946287 
C 469.847382 343.283279 468.948024 342.910753 468.01039 342.910753 
C 467.072755 342.910753 466.173397 343.283279 465.51039 343.946287 
C 464.847382 344.609295 464.474856 345.508652 464.474856 346.446287 
C 464.474856 347.383922 464.847382 348.283279 465.51039 348.946287 
C 466.173397 349.609295 467.072755 349.981821 468.01039 349.981821 
z
" clip-path="url(#p0d4f9d7544)" style="fill: #1f77b4; fill-opacity: 0.3; stroke: #1f77b4; stroke-opacity: 0.3"/>
    <path d="M 480.893506 345.934761 
C 481.732152 345.934761 482.536562 345.601563 483.129574 345.008551 
C 483.722587 344.415539 484.055784 343.611129 484.055784 342.772483 
C 484.055784 341.933837 483.722587 341.129427 483.129574 340.536415 
C 482.536562 339.943403 481.732152 339.610205 480.893506 339.610205 
C 480.054861 339.610205 479.250451 339.943403 478.657439 340.536415 
C 478.064426 341.129427 477.731229 341.933837 477.731229 342.772483 
C 477.731229 343.611129 478.064426 344.415539 478.657439 345.008551 
C 479.250451 345.601563 480.054861 345.934761 480.893506 345.934761 
z
" clip-path="url(#p0d4f9d7544)" style="fill: #1f77b4; fill-opacity: 0.3; stroke: #1f77b4; stroke-opacity: 0.3"/>
    <path d="M 493.776623 343.171649 
C 494.369636 343.171649 494.938439 342.936043 495.357762 342.51672 
C 495.777085 342.097397 496.012691 341.528593 496.012691 340.935581 
C 496.012691 340.342569 495.777085 339.773765 495.357762 339.354442 
C 494.938439 338.935119 494.369636 338.699513 493.776623 338.699513 
C 493.183611 338.699513 492.614807 338.935119 492.195485 339.354442 
C 491.776162 339.773765 491.540555 340.342569 491.540555 340.935581 
C 491.540555 341.528593 491.776162 342.097397 492.195485 342.51672 
C 492.614807 342.936043 493.183611 343.171649 493.776623 343.171649 
z
" clip-path="url(#p0d4f9d7544)" style="fill: #1f77b4; fill-opacity: 0.3; stroke: #1f77b4; stroke-opacity: 0.3"/>
    <path d="M 506.65974 338.689724 
C 507.769164 338.689724 508.833299 338.248945 509.61778 337.464464 
C 510.402262 336.679982 510.84304 335.615848 510.84304 334.506424 
C 510.84304 333.397 510.402262 332.332865 509.61778 331.548384 
C 508.833299 330.763902 507.769164 330.323124 506.65974 330.323124 
C 505.550316 330.323124 504.486182 330.763902 503.7017 331.548384 
C 502.917219 332.332865 502.47644 333.397 502.47644 334.506424 
C 502.47644 335.615848 502.917219 336.679982 503.7017 337.464464 
C 504.486182 338.248945 505.550316 338.689724 506.65974 338.689724 
z
" clip-path="url(#p0d4f9d7544)" style="fill: #1f77b4; fill-opacity: 0.3; stroke: #1f77b4; stroke-opacity: 0.3"/>
    <path d="M 519.542857 334.90559 
C 520.135869 334.90559 520.704673 334.669983 521.123996 334.25066 
C 521.543319 333.831338 521.778925 333.262534 521.778925 332.669522 
C 521.778925 332.076509 521.543319 331.507706 521.123996 331.088383 
C 520.704673 330.66906 520.135869 330.433454 519.542857 330.433454 
C 518.949845 330.433454 518.381041 330.66906 517.961718 331.088383 
C 517.542395 331.507706 517.306789 332.076509 517.306789 332.669522 
C 517.306789 333.262534 517.542395 333.831338 517.961718 334.25066 
C 518.381041 334.669983 518.949845 334.90559 519.542857 334.90559 
z
" clip-path="url(#p0d4f9d7544)" style="fill: #1f77b4; fill-opacity: 0.3; stroke: #1f77b4; stroke-opacity: 0.3"/>
    <path d="M 545.309091 328.485011 
C 546.635106 328.485011 547.90699 327.95818 548.844625 327.020545 
C 549.782259 326.082911 550.309091 324.811027 550.309091 323.485011 
C 550.309091 322.158996 549.782259 320.887112 548.844625 319.949477 
C 547.90699 319.011843 546.635106 318.485011 545.309091 318.485011 
C 543.983075 318.485011 542.711192 319.011843 541.773557 319.949477 
C 540.835922 320.887112 540.309091 322.158996 540.309091 323.485011 
C 540.309091 324.811027 540.835922 326.082911 541.773557 327.020545 
C 542.711192 327.95818 543.983075 328.485011 545.309091 328.485011 
z
" clip-path="url(#p0d4f9d7544)" style="fill: #1f77b4; fill-opacity: 0.3; stroke: #1f77b4; stroke-opacity: 0.3"/>
    <path d="M 558.192208 324.147699 
C 558.611531 324.147699 559.013736 323.9811 559.310242 323.684594 
C 559.606748 323.388088 559.773347 322.985883 559.773347 322.56656 
C 559.773347 322.147237 559.606748 321.745032 559.310242 321.448526 
C 559.013736 321.15202 558.611531 320.985422 558.192208 320.985422 
C 557.772885 320.985422 557.37068 321.15202 557.074174 321.448526 
C 556.777668 321.745032 556.611069 322.147237 556.611069 322.56656 
C 556.611069 322.985883 556.777668 323.388088 557.074174 323.684594 
C 557.37068 323.9811 557.772885 324.147699 558.192208 324.147699 
z
" clip-path="url(#p0d4f9d7544)" style="fill: #1f77b4; fill-opacity: 0.3; stroke: #1f77b4; stroke-opacity: 0.3"/>
    <path d="M 571.075325 320.928838 
C 572.102452 320.928838 573.087649 320.520756 573.813937 319.794467 
C 574.540226 319.068178 574.948308 318.082981 574.948308 317.055854 
C 574.948308 316.028727 574.540226 315.04353 573.813937 314.317241 
C 573.087649 313.590953 572.102452 313.182871 571.075325 313.182871 
C 570.048197 313.182871 569.063 313.590953 568.336712 314.317241 
C 567.610423 315.04353 567.202341 316.028727 567.202341 317.055854 
C 567.202341 318.082981 567.610423 319.068178 568.336712 319.794467 
C 569.063 320.520756 570.048197 320.928838 571.075325 320.928838 
z
" clip-path="url(#p0d4f9d7544)" style="fill: #1f77b4; fill-opacity: 0.3; stroke: #1f77b4; stroke-opacity: 0.3"/>
    <path d="M 583.958442 309.402813 
C 585.582472 309.402813 587.140205 308.757579 588.288569 307.609216 
C 589.436932 306.460853 590.082166 304.90312 590.082166 303.279089 
C 590.082166 301.655058 589.436932 300.097325 588.288569 298.948962 
C 587.140205 297.800599 585.582472 297.155364 583.958442 297.155364 
C 582.334411 297.155364 580.776678 297.800599 579.628315 298.948962 
C 578.479951 300.097325 577.834717 301.655058 577.834717 303.279089 
C 577.834717 304.90312 578.479951 306.460853 579.628315 307.609216 
C 580.776678 308.757579 582.334411 309.402813 583.958442 309.402813 
z
" clip-path="url(#p0d4f9d7544)" style="fill: #1f77b4; fill-opacity: 0.3; stroke: #1f77b4; stroke-opacity: 0.3"/>
    <path d="M 596.841558 295.626048 
C 598.465589 295.626048 600.023322 294.980814 601.171685 293.83245 
C 602.320049 292.684087 602.965283 291.126354 602.965283 289.502323 
C 602.965283 287.878293 602.320049 286.32056 601.171685 285.172196 
C 600.023322 284.023833 598.465589 283.378599 596.841558 283.378599 
C 595.217528 283.378599 593.659795 284.023833 592.511431 285.172196 
C 591.363068 286.32056 590.717834 287.878293 590.717834 289.502323 
C 590.717834 291.126354 591.363068 292.684087 592.511431 293.83245 
C 593.659795 294.980814 595.217528 295.626048 596.841558 295.626048 
z
" clip-path="url(#p0d4f9d7544)" style="fill: #1f77b4; fill-opacity: 0.3; stroke: #1f77b4; stroke-opacity: 0.3"/>
    <path d="M 609.724675 289.485583 
C 610.450964 289.485583 611.147603 289.197026 611.661167 288.683462 
C 612.174731 288.169898 612.463288 287.473259 612.463288 286.74697 
C 612.463288 286.020682 612.174731 285.324042 611.661167 284.810479 
C 611.147603 284.296915 610.450964 284.008358 609.724675 284.008358 
C 608.998387 284.008358 608.301747 284.296915 607.788184 284.810479 
C 607.27462 285.324042 606.986063 286.020682 606.986063 286.74697 
C 606.986063 287.473259 607.27462 288.169898 607.788184 288.683462 
C 608.301747 289.197026 608.998387 289.485583 609.724675 289.485583 
z
" clip-path="url(#p0d4f9d7544)" style="fill: #1f77b4; fill-opacity: 0.3; stroke: #1f77b4; stroke-opacity: 0.3"/>
    <path d="M 635.490909 286.235444 
C 636.329555 286.235444 637.133965 285.902246 637.726977 285.309234 
C 638.319989 284.716222 638.653187 283.911812 638.653187 283.073166 
C 638.653187 282.23452 638.319989 281.43011 637.726977 280.837098 
C 637.133965 280.244086 636.329555 279.910889 635.490909 279.910889 
C 634.652263 279.910889 633.847853 280.244086 633.254841 280.837098 
C 632.661829 281.43011 632.328631 282.23452 632.328631 283.073166 
C 632.328631 283.911812 632.661829 284.716222 633.254841 285.309234 
C 633.847853 285.902246 634.652263 286.235444 635.490909 286.235444 
z
" clip-path="url(#p0d4f9d7544)" style="fill: #1f77b4; fill-opacity: 0.3; stroke: #1f77b4; stroke-opacity: 0.3"/>
    <path d="M 648.374026 273.978701 
C 650.102939 273.978701 651.761272 273.291797 652.983798 272.069271 
C 654.206324 270.846745 654.893228 269.188412 654.893228 267.459499 
C 654.893228 265.730586 654.206324 264.072253 652.983798 262.849727 
C 651.761272 261.627201 650.102939 260.940296 648.374026 260.940296 
C 646.645113 260.940296 644.98678 261.627201 643.764254 262.849727 
C 642.541728 264.072253 641.854824 265.730586 641.854824 267.459499 
C 641.854824 269.188412 642.541728 270.846745 643.764254 272.069271 
C 644.98678 273.291797 646.645113 273.978701 648.374026 273.978701 
z
" clip-path="url(#p0d4f9d7544)" style="fill: #1f77b4; fill-opacity: 0.3; stroke: #1f77b4; stroke-opacity: 0.3"/>
    <path d="M 661.257143 268.122187 
C 661.676466 268.122187 662.078671 267.955588 662.375177 267.659082 
C 662.671683 267.362576 662.838282 266.960371 662.838282 266.541048 
C 662.838282 266.121725 662.671683 265.71952 662.375177 265.423014 
C 662.078671 265.126508 661.676466 264.959909 661.257143 264.959909 
C 660.83782 264.959909 660.435615 265.126508 660.139109 265.423014 
C 659.842603 265.71952 659.676004 266.121725 659.676004 266.541048 
C 659.676004 266.960371 659.842603 267.362576 660.139109 267.659082 
C 660.435615 267.955588 660.83782 268.122187 661.257143 268.122187 
z
" clip-path="url(#p0d4f9d7544)" style="fill: #1f77b4; fill-opacity: 0.3; stroke: #1f77b4; stroke-opacity: 0.3"/>
    <path d="M 674.14026 266.029521 
C 674.978906 266.029521 675.783316 265.696324 676.376328 265.103312 
C 676.96934 264.5103 677.302537 263.70589 677.302537 262.867244 
C 677.302537 262.028598 676.96934 261.224188 676.376328 260.631176 
C 675.783316 260.038164 674.978906 259.704966 674.14026 259.704966 
C 673.301614 259.704966 672.497204 260.038164 671.904192 260.631176 
C 671.31118 261.224188 670.977982 262.028598 670.977982 262.867244 
C 670.977982 263.70589 671.31118 264.5103 671.904192 265.103312 
C 672.497204 265.696324 673.301614 266.029521 674.14026 266.029521 
z
" clip-path="url(#p0d4f9d7544)" style="fill: #1f77b4; fill-opacity: 0.3; stroke: #1f77b4; stroke-opacity: 0.3"/>
    <path d="M 687.023377 262.850503 
C 687.749665 262.850503 688.446305 262.561946 688.959868 262.048382 
C 689.473432 261.534819 689.761989 260.838179 689.761989 260.111891 
C 689.761989 259.385602 689.473432 258.688963 688.959868 258.175399 
C 688.446305 257.661835 687.749665 257.373278 687.023377 257.373278 
C 686.297088 257.373278 685.600449 257.661835 685.086885 258.175399 
C 684.573321 258.688963 684.284764 259.385602 684.284764 260.111891 
C 684.284764 260.838179 684.573321 261.534819 685.086885 262.048382 
C 685.600449 262.561946 686.297088 262.850503 687.023377 262.850503 
z
" clip-path="url(#p0d4f9d7544)" style="fill: #1f77b4; fill-opacity: 0.3; stroke: #1f77b4; stroke-opacity: 0.3"/>
    <path d="M 699.906494 260.09515 
C 700.632782 260.09515 701.329422 259.806593 701.842985 259.293029 
C 702.356549 258.779466 702.645106 258.082826 702.645106 257.356538 
C 702.645106 256.630249 702.356549 255.93361 701.842985 255.420046 
C 701.329422 254.906482 700.632782 254.617925 699.906494 254.617925 
C 699.180205 254.617925 698.483565 254.906482 697.970002 255.420046 
C 697.456438 255.93361 697.167881 256.630249 697.167881 257.356538 
C 697.167881 258.082826 697.456438 258.779466 697.970002 259.293029 
C 698.483565 259.806593 699.180205 260.09515 699.906494 260.09515 
z
" clip-path="url(#p0d4f9d7544)" style="fill: #1f77b4; fill-opacity: 0.3; stroke: #1f77b4; stroke-opacity: 0.3"/>
    <path d="M 712.78961 247.532623 
C 714.568647 247.532623 716.275058 246.825804 717.533027 245.567836 
C 718.790996 244.309867 719.497814 242.603456 719.497814 240.824419 
C 719.497814 239.045383 718.790996 237.338971 717.533027 236.081003 
C 716.275058 234.823034 714.568647 234.116215 712.78961 234.116215 
C 711.010574 234.116215 709.304163 234.823034 708.046194 236.081003 
C 706.788225 237.338971 706.081406 239.045383 706.081406 240.824419 
C 706.081406 242.603456 706.788225 244.309867 708.046194 245.567836 
C 709.304163 246.825804 711.010574 247.532623 712.78961 247.532623 
z
" clip-path="url(#p0d4f9d7544)" style="fill: #1f77b4; fill-opacity: 0.3; stroke: #1f77b4; stroke-opacity: 0.3"/>
    <path d="M 725.672727 240.807679 
C 726.399016 240.807679 727.095655 240.519121 727.609219 240.005558 
C 728.122783 239.491994 728.41134 238.795355 728.41134 238.069066 
C 728.41134 237.342777 728.122783 236.646138 727.609219 236.132574 
C 727.095655 235.619011 726.399016 235.330453 725.672727 235.330453 
C 724.946439 235.330453 724.249799 235.619011 723.736236 236.132574 
C 723.222672 236.646138 722.934114 237.342777 722.934114 238.069066 
C 722.934114 238.795355 723.222672 239.491994 723.736236 240.005558 
C 724.249799 240.519121 724.946439 240.807679 725.672727 240.807679 
z
" clip-path="url(#p0d4f9d7544)" style="fill: #1f77b4; fill-opacity: 0.3; stroke: #1f77b4; stroke-opacity: 0.3"/>
    <path d="M 738.555844 237.55754 
C 739.39449 237.55754 740.1989 237.224342 740.791912 236.63133 
C 741.384924 236.038318 741.718122 235.233908 741.718122 234.395262 
C 741.718122 233.556616 741.384924 232.752206 740.791912 232.159194 
C 740.1989 231.566182 739.39449 231.232984 738.555844 231.232984 
C 737.717198 231.232984 736.912788 231.566182 736.319776 232.159194 
C 735.726764 232.752206 735.393566 233.556616 735.393566 234.395262 
C 735.393566 235.233908 735.726764 236.038318 736.319776 236.63133 
C 736.912788 237.224342 737.717198 237.55754 738.555844 237.55754 
z
" clip-path="url(#p0d4f9d7544)" style="fill: #1f77b4; fill-opacity: 0.3; stroke: #1f77b4; stroke-opacity: 0.3"/>
    <path d="M 751.438961 233.883736 
C 752.277607 233.883736 753.082017 233.550538 753.675029 232.957526 
C 754.268041 232.364514 754.601239 231.560104 754.601239 230.721458 
C 754.601239 229.882812 754.268041 229.078402 753.675029 228.48539 
C 753.082017 227.892378 752.277607 227.55918 751.438961 227.55918 
C 750.600315 227.55918 749.795905 227.892378 749.202893 228.48539 
C 748.609881 229.078402 748.276683 229.882812 748.276683 230.721458 
C 748.276683 231.560104 748.609881 232.364514 749.202893 232.957526 
C 749.795905 233.550538 750.600315 233.883736 751.438961 233.883736 
z
" clip-path="url(#p0d4f9d7544)" style="fill: #1f77b4; fill-opacity: 0.3; stroke: #1f77b4; stroke-opacity: 0.3"/>
    <path d="M 764.322078 229.083735 
C 765.349205 229.083735 766.334402 228.675653 767.060691 227.949364 
C 767.786979 227.223076 768.195061 226.237879 768.195061 225.210752 
C 768.195061 224.183625 767.786979 223.198428 767.060691 222.472139 
C 766.334402 221.74585 765.349205 221.337768 764.322078 221.337768 
C 763.294951 221.337768 762.309754 221.74585 761.583465 222.472139 
C 760.857177 223.198428 760.449095 224.183625 760.449095 225.210752 
C 760.449095 226.237879 760.857177 227.223076 761.583465 227.949364 
C 762.309754 228.675653 763.294951 229.083735 764.322078 229.083735 
z
" clip-path="url(#p0d4f9d7544)" style="fill: #1f77b4; fill-opacity: 0.3; stroke: #1f77b4; stroke-opacity: 0.3"/>
    <path d="M 777.205195 213.912799 
C 779.080464 213.912799 780.879179 213.167747 782.205195 211.841731 
C 783.53121 210.515716 784.276263 208.717 784.276263 206.841731 
C 784.276263 204.966462 783.53121 203.167747 782.205195 201.841731 
C 780.879179 200.515716 779.080464 199.770663 777.205195 199.770663 
C 775.329926 199.770663 773.53121 200.515716 772.205195 201.841731 
C 770.879179 203.167747 770.134127 204.966462 770.134127 206.841731 
C 770.134127 208.717 770.879179 210.515716 772.205195 211.841731 
C 773.53121 213.167747 775.329926 213.912799 777.205195 213.912799 
z
" clip-path="url(#p0d4f9d7544)" style="fill: #1f77b4; fill-opacity: 0.3; stroke: #1f77b4; stroke-opacity: 0.3"/>
    <path d="M 790.088312 205.78501 
C 791.025946 205.78501 791.925304 205.412484 792.588312 204.749476 
C 793.251319 204.086468 793.623846 203.187111 793.623846 202.249476 
C 793.623846 201.311842 793.251319 200.412484 792.588312 199.749476 
C 791.925304 199.086468 791.025946 198.713942 790.088312 198.713942 
C 789.150677 198.713942 788.251319 199.086468 787.588312 199.749476 
C 786.925304 200.412484 786.552778 201.311842 786.552778 202.249476 
C 786.552778 203.187111 786.925304 204.086468 787.588312 204.749476 
C 788.251319 205.412484 789.150677 205.78501 790.088312 205.78501 
z
" clip-path="url(#p0d4f9d7544)" style="fill: #1f77b4; fill-opacity: 0.3; stroke: #1f77b4; stroke-opacity: 0.3"/>
    <path d="M 802.971429 202.232736 
C 803.697717 202.232736 804.394357 201.944178 804.90792 201.430615 
C 805.421484 200.917051 805.710041 200.220412 805.710041 199.494123 
C 805.710041 198.767834 805.421484 198.071195 804.90792 197.557631 
C 804.394357 197.044068 803.697717 196.75551 802.971429 196.75551 
C 802.24514 196.75551 801.5485 197.044068 801.034937 197.557631 
C 800.521373 198.071195 800.232816 198.767834 800.232816 199.494123 
C 800.232816 200.220412 800.521373 200.917051 801.034937 201.430615 
C 801.5485 201.944178 802.24514 202.232736 802.971429 202.232736 
z
" clip-path="url(#p0d4f9d7544)" style="fill: #1f77b4; fill-opacity: 0.3; stroke: #1f77b4; stroke-opacity: 0.3"/>
    <path d="M 815.854545 195.309613 
C 817.180561 195.309613 818.452445 194.782781 819.390079 193.845147 
C 820.327714 192.907512 820.854545 191.635628 820.854545 190.309613 
C 820.854545 188.983597 820.327714 187.711713 819.390079 186.774079 
C 818.452445 185.836444 817.180561 185.309613 815.854545 185.309613 
C 814.52853 185.309613 813.256646 185.836444 812.319012 186.774079 
C 811.381377 187.711713 810.854545 188.983597 810.854545 190.309613 
C 810.854545 191.635628 811.381377 192.907512 812.319012 193.845147 
C 813.256646 194.782781 814.52853 195.309613 815.854545 195.309613 
z
" clip-path="url(#p0d4f9d7544)" style="fill: #1f77b4; fill-opacity: 0.3; stroke: #1f77b4; stroke-opacity: 0.3"/>
    <path d="M 828.737662 189.798086 
C 829.576308 189.798086 830.380718 189.464889 830.97373 188.871877 
C 831.566742 188.278864 831.89994 187.474454 831.89994 186.635809 
C 831.89994 185.797163 831.566742 184.992753 830.97373 184.399741 
C 830.380718 183.806729 829.576308 183.473531 828.737662 183.473531 
C 827.899016 183.473531 827.094607 183.806729 826.501594 184.399741 
C 825.908582 184.992753 825.575385 185.797163 825.575385 186.635809 
C 825.575385 187.474454 825.908582 188.278864 826.501594 188.871877 
C 827.094607 189.464889 827.899016 189.798086 828.737662 189.798086 
z
" clip-path="url(#p0d4f9d7544)" style="fill: #1f77b4; fill-opacity: 0.3; stroke: #1f77b4; stroke-opacity: 0.3"/>
    <path d="M 841.620779 187.298496 
C 842.040102 187.298496 842.442307 187.131898 842.738813 186.835392 
C 843.035319 186.538886 843.201918 186.136681 843.201918 185.717358 
C 843.201918 185.298035 843.035319 184.89583 842.738813 184.599324 
C 842.442307 184.302818 842.040102 184.136219 841.620779 184.136219 
C 841.201456 184.136219 840.799251 184.302818 840.502745 184.599324 
C 840.206239 184.89583 840.03964 185.298035 840.03964 185.717358 
C 840.03964 186.136681 840.206239 186.538886 840.502745 186.835392 
C 840.799251 187.131898 841.201456 187.298496 841.620779 187.298496 
z
" clip-path="url(#p0d4f9d7544)" style="fill: #1f77b4; fill-opacity: 0.3; stroke: #1f77b4; stroke-opacity: 0.3"/>
    <path d="M 854.503896 169.899889 
C 856.642032 169.899889 858.692883 169.050398 860.204773 167.538508 
C 861.716664 166.026618 862.566154 163.975767 862.566154 161.837631 
C 862.566154 159.699495 861.716664 157.648644 860.204773 156.136754 
C 858.692883 154.624864 856.642032 153.775373 854.503896 153.775373 
C 852.36576 153.775373 850.314909 154.624864 848.803019 156.136754 
C 847.291129 157.648644 846.441638 159.699495 846.441638 161.837631 
C 846.441638 163.975767 847.291129 166.026618 848.803019 167.538508 
C 850.314909 169.050398 852.36576 169.899889 854.503896 169.899889 
z
" clip-path="url(#p0d4f9d7544)" style="fill: #1f77b4; fill-opacity: 0.3; stroke: #1f77b4; stroke-opacity: 0.3"/>
    <path d="M 867.387013 160.78091 
C 868.324648 160.78091 869.224005 160.408384 869.887013 159.745376 
C 870.550021 159.082368 870.922547 158.18301 870.922547 157.245376 
C 870.922547 156.307741 870.550021 155.408384 869.887013 154.745376 
C 869.224005 154.082368 868.324648 153.709842 867.387013 153.709842 
C 866.449378 153.709842 865.550021 154.082368 864.887013 154.745376 
C 864.224005 155.408384 863.851479 156.307741 863.851479 157.245376 
C 863.851479 158.18301 864.224005 159.082368 864.887013 159.745376 
C 865.550021 160.408384 866.449378 160.78091 867.387013 160.78091 
z
" clip-path="url(#p0d4f9d7544)" style="fill: #1f77b4; fill-opacity: 0.3; stroke: #1f77b4; stroke-opacity: 0.3"/>
    <path d="M 880.27013 153.722733 
C 881.528099 153.722733 882.734714 153.222937 883.624232 152.333419 
C 884.51375 151.4439 885.013546 150.237285 885.013546 148.979317 
C 885.013546 147.721348 884.51375 146.514733 883.624232 145.625215 
C 882.734714 144.735696 881.528099 144.2359 880.27013 144.2359 
C 879.012161 144.2359 877.805546 144.735696 876.916028 145.625215 
C 876.02651 146.514733 875.526713 147.721348 875.526713 148.979317 
C 875.526713 150.237285 876.02651 151.4439 876.916028 152.333419 
C 877.805546 153.222937 879.012161 153.722733 880.27013 153.722733 
z
" clip-path="url(#p0d4f9d7544)" style="fill: #1f77b4; fill-opacity: 0.3; stroke: #1f77b4; stroke-opacity: 0.3"/>
    <path d="M 893.153247 149.378483 
C 893.746259 149.378483 894.315063 149.142876 894.734386 148.723553 
C 895.153709 148.30423 895.389315 147.735427 895.389315 147.142415 
C 895.389315 146.549402 895.153709 145.980599 894.734386 145.561276 
C 894.315063 145.141953 893.746259 144.906347 893.153247 144.906347 
C 892.560235 144.906347 891.991431 145.141953 891.572108 145.561276 
C 891.152785 145.980599 890.917179 146.549402 890.917179 147.142415 
C 890.917179 147.735427 891.152785 148.30423 891.572108 148.723553 
C 891.991431 149.142876 892.560235 149.378483 893.153247 149.378483 
z
" clip-path="url(#p0d4f9d7544)" style="fill: #1f77b4; fill-opacity: 0.3; stroke: #1f77b4; stroke-opacity: 0.3"/>
    <path d="M 906.036364 147.125674 
C 906.762652 147.125674 907.459292 146.837117 907.972855 146.323553 
C 908.486419 145.80999 908.774976 145.11335 908.774976 144.387062 
C 908.774976 143.660773 908.486419 142.964133 907.972855 142.45057 
C 907.459292 141.937006 906.762652 141.648449 906.036364 141.648449 
C 905.310075 141.648449 904.613436 141.937006 904.099872 142.45057 
C 903.586308 142.964133 903.297751 143.660773 903.297751 144.387062 
C 903.297751 145.11335 903.586308 145.80999 904.099872 146.323553 
C 904.613436 146.837117 905.310075 147.125674 906.036364 147.125674 
z
" clip-path="url(#p0d4f9d7544)" style="fill: #1f77b4; fill-opacity: 0.3; stroke: #1f77b4; stroke-opacity: 0.3"/>
    <path d="M 918.919481 136.73402 
C 920.543511 136.73402 922.101244 136.088786 923.249608 134.940423 
C 924.397971 133.79206 925.043205 132.234327 925.043205 130.610296 
C 925.043205 128.986265 924.397971 127.428532 923.249608 126.280169 
C 922.101244 125.131806 920.543511 124.486572 918.919481 124.486572 
C 917.29545 124.486572 915.737717 125.131806 914.589354 126.280169 
C 913.44099 127.428532 912.795756 128.986265 912.795756 130.610296 
C 912.795756 132.234327 913.44099 133.79206 914.589354 134.940423 
C 915.737717 136.088786 917.29545 136.73402 918.919481 136.73402 
z
" clip-path="url(#p0d4f9d7544)" style="fill: #1f77b4; fill-opacity: 0.3; stroke: #1f77b4; stroke-opacity: 0.3"/>
    <path d="M 931.802597 131.009462 
C 932.39561 131.009462 932.964413 130.773856 933.383736 130.354533 
C 933.803059 129.93521 934.038665 129.366406 934.038665 128.773394 
C 934.038665 128.180382 933.803059 127.611578 933.383736 127.192255 
C 932.964413 126.772932 932.39561 126.537326 931.802597 126.537326 
C 931.209585 126.537326 930.640781 126.772932 930.221459 127.192255 
C 929.802136 127.611578 929.566529 128.180382 929.566529 128.773394 
C 929.566529 129.366406 929.802136 129.93521 930.221459 130.354533 
C 930.640781 130.773856 931.209585 131.009462 931.802597 131.009462 
z
" clip-path="url(#p0d4f9d7544)" style="fill: #1f77b4; fill-opacity: 0.3; stroke: #1f77b4; stroke-opacity: 0.3"/>
    <path d="M 944.685714 128.261868 
C 945.52436 128.261868 946.32877 127.92867 946.921782 127.335658 
C 947.514794 126.742646 947.847992 125.938236 947.847992 125.09959 
C 947.847992 124.260944 947.514794 123.456534 946.921782 122.863522 
C 946.32877 122.27051 945.52436 121.937312 944.685714 121.937312 
C 943.847068 121.937312 943.042658 122.27051 942.449646 122.863522 
C 941.856634 123.456534 941.523437 124.260944 941.523437 125.09959 
C 941.523437 125.938236 941.856634 126.742646 942.449646 127.335658 
C 943.042658 127.92867 943.847068 128.261868 944.685714 128.261868 
z
" clip-path="url(#p0d4f9d7544)" style="fill: #1f77b4; fill-opacity: 0.3; stroke: #1f77b4; stroke-opacity: 0.3"/>
    <path d="M 957.568831 106.206313 
C 959.865557 106.206313 962.068525 105.293814 963.692556 103.669784 
C 965.316586 102.045753 966.229085 99.842785 966.229085 97.546059 
C 966.229085 95.249333 965.316586 93.046366 963.692556 91.422335 
C 962.068525 89.798304 959.865557 88.885805 957.568831 88.885805 
C 955.272105 88.885805 953.069137 89.798304 951.445107 91.422335 
C 949.821076 93.046366 948.908577 95.249333 948.908577 97.546059 
C 948.908577 99.842785 949.821076 102.045753 951.445107 103.669784 
C 953.069137 105.293814 955.272105 106.206313 957.568831 106.206313 
z
" clip-path="url(#p0d4f9d7544)" style="fill: #1f77b4; fill-opacity: 0.3; stroke: #1f77b4; stroke-opacity: 0.3"/>
    <path d="M 970.451948 97.529319 
C 971.178237 97.529319 971.874876 97.240761 972.38844 96.727198 
C 972.902003 96.213634 973.190561 95.516995 973.190561 94.790706 
C 973.190561 94.064418 972.902003 93.367778 972.38844 92.854214 
C 971.874876 92.340651 971.178237 92.052093 970.451948 92.052093 
C 969.725659 92.052093 969.02902 92.340651 968.515456 92.854214 
C 968.001893 93.367778 967.713335 94.064418 967.713335 94.790706 
C 967.713335 95.516995 968.001893 96.213634 968.515456 96.727198 
C 969.02902 97.240761 969.725659 97.529319 970.451948 97.529319 
z
" clip-path="url(#p0d4f9d7544)" style="fill: #1f77b4; fill-opacity: 0.3; stroke: #1f77b4; stroke-opacity: 0.3"/>
    <path d="M 983.335065 95.189872 
C 983.928077 95.189872 984.496881 94.954266 984.916204 94.534943 
C 985.335527 94.11562 985.571133 93.546816 985.571133 92.953804 
C 985.571133 92.360792 985.335527 91.791988 984.916204 91.372665 
C 984.496881 90.953342 983.928077 90.717736 983.335065 90.717736 
C 982.742053 90.717736 982.173249 90.953342 981.753926 91.372665 
C 981.334603 91.791988 981.098997 92.360792 981.098997 92.953804 
C 981.098997 93.546816 981.334603 94.11562 981.753926 94.534943 
C 982.173249 94.954266 982.742053 95.189872 983.335065 95.189872 
z
" clip-path="url(#p0d4f9d7544)" style="fill: #1f77b4; fill-opacity: 0.3; stroke: #1f77b4; stroke-opacity: 0.3"/>
    <path d="M 996.218182 92.442278 
C 997.056828 92.442278 997.861238 92.10908 998.45425 91.516068 
C 999.047262 90.923056 999.380459 90.118646 999.380459 89.28 
C 999.380459 88.441354 999.047262 87.636944 998.45425 87.043932 
C 997.861238 86.45092 997.056828 86.117722 996.218182 86.117722 
C 995.379536 86.117722 994.575126 86.45092 993.982114 87.043932 
C 993.389102 87.636944 993.055904 88.441354 993.055904 89.28 
C 993.055904 90.118646 993.389102 90.923056 993.982114 91.516068 
C 994.575126 92.10908 995.379536 92.442278 996.218182 92.442278 
z
" clip-path="url(#p0d4f9d7544)" style="fill: #1f77b4; fill-opacity: 0.3; stroke: #1f77b4; stroke-opacity: 0.3"/>
   </g>
   <g id="matplotlib.axis_1">
    <g id="xtick_1">
     <g id="line2d_1">
      <defs>
       <path id="mefea1ef4fa" d="M 0 0 
L 0 3.5 
" style="stroke: #000000; stroke-width: 0.8"/>
      </defs>
      <g>
       <use xlink:href="#mefea1ef4fa" x="184.581818" y="512.64" style="stroke: #000000; stroke-width: 0.8"/>
      </g>
     </g>
     <g id="text_1">
      <!-- 2024-01-01 -->
      <g transform="translate(155.524006 527.238438) scale(0.1 -0.1)">
       <defs>
        <path id="DejaVuSans-32" d="M 1228 531 
L 3431 531 
L 3431 0 
L 469 0 
L 469 531 
Q 828 903 1448 1529 
Q 2069 2156 2228 2338 
Q 2531 2678 2651 2914 
Q 2772 3150 2772 3378 
Q 2772 3750 2511 3984 
Q 2250 4219 1831 4219 
Q 1534 4219 1204 4116 
Q 875 4013 500 3803 
L 500 4441 
Q 881 4594 1212 4672 
Q 1544 4750 1819 4750 
Q 2544 4750 2975 4387 
Q 3406 4025 3406 3419 
Q 3406 3131 3298 2873 
Q 3191 2616 2906 2266 
Q 2828 2175 2409 1742 
Q 1991 1309 1228 531 
z
" transform="scale(0.015625)"/>
        <path id="DejaVuSans-30" d="M 2034 4250 
Q 1547 4250 1301 3770 
Q 1056 3291 1056 2328 
Q 1056 1369 1301 889 
Q 1547 409 2034 409 
Q 2525 409 2770 889 
Q 3016 1369 3016 2328 
Q 3016 3291 2770 3770 
Q 2525 4250 2034 4250 
z
M 2034 4750 
Q 2819 4750 3233 4129 
Q 3647 3509 3647 2328 
Q 3647 1150 3233 529 
Q 2819 -91 2034 -91 
Q 1250 -91 836 529 
Q 422 1150 422 2328 
Q 422 3509 836 4129 
Q 1250 4750 2034 4750 
z
" transform="scale(0.015625)"/>
        <path id="DejaVuSans-34" d="M 2419 4116 
L 825 1625 
L 2419 1625 
L 2419 4116 
z
M 2253 4666 
L 3047 4666 
L 3047 1625 
L 3713 1625 
L 3713 1100 
L 3047 1100 
L 3047 0 
L 2419 0 
L 2419 1100 
L 313 1100 
L 313 1709 
L 2253 4666 
z
" transform="scale(0.015625)"/>
        <path id="DejaVuSans-2d" d="M 313 2009 
L 1997 2009 
L 1997 1497 
L 313 1497 
L 313 2009 
z
" transform="scale(0.015625)"/>
        <path id="DejaVuSans-31" d="M 794 531 
L 1825 531 
L 1825 4091 
L 703 3866 
L 703 4441 
L 1819 4666 
L 2450 4666 
L 2450 531 
L 3481 531 
L 3481 0 
L 794 0 
L 794 531 
z
" transform="scale(0.015625)"/>
       </defs>
       <use xlink:href="#DejaVuSans-32"/>
       <use xlink:href="#DejaVuSans-30" x="63.623047"/>
       <use xlink:href="#DejaVuSans-32" x="127.246094"/>
       <use xlink:href="#DejaVuSans-34" x="190.869141"/>
       <use xlink:href="#DejaVuSans-2d" x="254.492188"/>
       <use xlink:href="#DejaVuSans-30" x="290.576172"/>
       <use xlink:href="#DejaVuSans-31" x="354.199219"/>
       <use xlink:href="#DejaVuSans-2d" x="417.822266"/>
       <use xlink:href="#DejaVuSans-30" x="453.90625"/>
       <use xlink:href="#DejaVuSans-31" x="517.529297"/>
      </g>
     </g>
    </g>
    <g id="xtick_2">
     <g id="line2d_2">
      <g>
       <use xlink:href="#mefea1ef4fa" x="274.763636" y="512.64" style="stroke: #000000; stroke-width: 0.8"/>
      </g>
     </g>
     <g id="text_2">
      <!-- 2024-01-08 -->
      <g transform="translate(245.705824 527.238438) scale(0.1 -0.1)">
       <defs>
        <path id="DejaVuSans-38" d="M 2034 2216 
Q 1584 2216 1326 1975 
Q 1069 1734 1069 1313 
Q 1069 891 1326 650 
Q 1584 409 2034 409 
Q 2484 409 2743 651 
Q 3003 894 3003 1313 
Q 3003 1734 2745 1975 
Q 2488 2216 2034 2216 
z
M 1403 2484 
Q 997 2584 770 2862 
Q 544 3141 544 3541 
Q 544 4100 942 4425 
Q 1341 4750 2034 4750 
Q 2731 4750 3128 4425 
Q 3525 4100 3525 3541 
Q 3525 3141 3298 2862 
Q 3072 2584 2669 2484 
Q 3125 2378 3379 2068 
Q 3634 1759 3634 1313 
Q 3634 634 3220 271 
Q 2806 -91 2034 -91 
Q 1263 -91 848 271 
Q 434 634 434 1313 
Q 434 1759 690 2068 
Q 947 2378 1403 2484 
z
M 1172 3481 
Q 1172 3119 1398 2916 
Q 1625 2713 2034 2713 
Q 2441 2713 2670 2916 
Q 2900 3119 2900 3481 
Q 2900 3844 2670 4047 
Q 2441 4250 2034 4250 
Q 1625 4250 1398 4047 
Q 1172 3844 1172 3481 
z
" transform="scale(0.015625)"/>
       </defs>
       <use xlink:href="#DejaVuSans-32"/>
       <use xlink:href="#DejaVuSans-30" x="63.623047"/>
       <use xlink:href="#DejaVuSans-32" x="127.246094"/>
       <use xlink:href="#DejaVuSans-34" x="190.869141"/>
       <use xlink:href="#DejaVuSans-2d" x="254.492188"/>
       <use xlink:href="#DejaVuSans-30" x="290.576172"/>
       <use xlink:href="#DejaVuSans-31" x="354.199219"/>
       <use xlink:href="#DejaVuSans-2d" x="417.822266"/>
       <use xlink:href="#DejaVuSans-30" x="453.90625"/>
       <use xlink:href="#DejaVuSans-38" x="517.529297"/>
      </g>
     </g>
    </g>
    <g id="xtick_3">
     <g id="line2d_3">
      <g>
       <use xlink:href="#mefea1ef4fa" x="364.945455" y="512.64" style="stroke: #000000; stroke-width: 0.8"/>
      </g>
     </g>
     <g id="text_3">
      <!-- 2024-01-15 -->
      <g transform="translate(335.887642 527.238438) scale(0.1 -0.1)">
       <defs>
        <path id="DejaVuSans-35" d="M 691 4666 
L 3169 4666 
L 3169 4134 
L 1269 4134 
L 1269 2991 
Q 1406 3038 1543 3061 
Q 1681 3084 1819 3084 
Q 2600 3084 3056 2656 
Q 3513 2228 3513 1497 
Q 3513 744 3044 326 
Q 2575 -91 1722 -91 
Q 1428 -91 1123 -41 
Q 819 9 494 109 
L 494 744 
Q 775 591 1075 516 
Q 1375 441 1709 441 
Q 2250 441 2565 725 
Q 2881 1009 2881 1497 
Q 2881 1984 2565 2268 
Q 2250 2553 1709 2553 
Q 1456 2553 1204 2497 
Q 953 2441 691 2322 
L 691 4666 
z
" transform="scale(0.015625)"/>
       </defs>
       <use xlink:href="#DejaVuSans-32"/>
       <use xlink:href="#DejaVuSans-30" x="63.623047"/>
       <use xlink:href="#DejaVuSans-32" x="127.246094"/>
       <use xlink:href="#DejaVuSans-34" x="190.869141"/>
       <use xlink:href="#DejaVuSans-2d" x="254.492188"/>
       <use xlink:href="#DejaVuSans-30" x="290.576172"/>
       <use xlink:href="#DejaVuSans-31" x="354.199219"/>
       <use xlink:href="#DejaVuSans-2d" x="417.822266"/>
       <use xlink:href="#DejaVuSans-31" x="453.90625"/>
       <use xlink:href="#DejaVuSans-35" x="517.529297"/>
      </g>
     </g>
    </g>
    <g id="xtick_4">
     <g id="line2d_4">
      <g>
       <use xlink:href="#mefea1ef4fa" x="455.127273" y="512.64" style="stroke: #000000; stroke-width: 0.8"/>
      </g>
     </g>
     <g id="text_4">
      <!-- 2024-01-22 -->
      <g transform="translate(426.06946 527.238438) scale(0.1 -0.1)">
       <use xlink:href="#DejaVuSans-32"/>
       <use xlink:href="#DejaVuSans-30" x="63.623047"/>
       <use xlink:href="#DejaVuSans-32" x="127.246094"/>
       <use xlink:href="#DejaVuSans-34" x="190.869141"/>
       <use xlink:href="#DejaVuSans-2d" x="254.492188"/>
       <use xlink:href="#DejaVuSans-30" x="290.576172"/>
       <use xlink:href="#DejaVuSans-31" x="354.199219"/>
       <use xlink:href="#DejaVuSans-2d" x="417.822266"/>
       <use xlink:href="#DejaVuSans-32" x="453.90625"/>
       <use xlink:href="#DejaVuSans-32" x="517.529297"/>
      </g>
     </g>
    </g>
    <g id="xtick_5">
     <g id="line2d_5">
      <g>
       <use xlink:href="#mefea1ef4fa" x="583.958442" y="512.64" style="stroke: #000000; stroke-width: 0.8"/>
      </g>
     </g>
     <g id="text_5">
      <!-- 2024-02-01 -->
      <g transform="translate(554.900629 527.238438) scale(0.1 -0.1)">
       <use xlink:href="#DejaVuSans-32"/>
       <use xlink:href="#DejaVuSans-30" x="63.623047"/>
       <use xlink:href="#DejaVuSans-32" x="127.246094"/>
       <use xlink:href="#DejaVuSans-34" x="190.869141"/>
       <use xlink:href="#DejaVuSans-2d" x="254.492188"/>
       <use xlink:href="#DejaVuSans-30" x="290.576172"/>
       <use xlink:href="#DejaVuSans-32" x="354.199219"/>
       <use xlink:href="#DejaVuSans-2d" x="417.822266"/>
       <use xlink:href="#DejaVuSans-30" x="453.90625"/>
       <use xlink:href="#DejaVuSans-31" x="517.529297"/>
      </g>
     </g>
    </g>
    <g id="xtick_6">
     <g id="line2d_6">
      <g>
       <use xlink:href="#mefea1ef4fa" x="674.14026" y="512.64" style="stroke: #000000; stroke-width: 0.8"/>
      </g>
     </g>
     <g id="text_6">
      <!-- 2024-02-08 -->
      <g transform="translate(645.082447 527.238438) scale(0.1 -0.1)">
       <use xlink:href="#DejaVuSans-32"/>
       <use xlink:href="#DejaVuSans-30" x="63.623047"/>
       <use xlink:href="#DejaVuSans-32" x="127.246094"/>
       <use xlink:href="#DejaVuSans-34" x="190.869141"/>
       <use xlink:href="#DejaVuSans-2d" x="254.492188"/>
       <use xlink:href="#DejaVuSans-30" x="290.576172"/>
       <use xlink:href="#DejaVuSans-32" x="354.199219"/>
       <use xlink:href="#DejaVuSans-2d" x="417.822266"/>
       <use xlink:href="#DejaVuSans-30" x="453.90625"/>
       <use xlink:href="#DejaVuSans-38" x="517.529297"/>
      </g>
     </g>
    </g>
    <g id="xtick_7">
     <g id="line2d_7">
      <g>
       <use xlink:href="#mefea1ef4fa" x="764.322078" y="512.64" style="stroke: #000000; stroke-width: 0.8"/>
      </g>
     </g>
     <g id="text_7">
      <!-- 2024-02-15 -->
      <g transform="translate(735.264265 527.238438) scale(0.1 -0.1)">
       <use xlink:href="#DejaVuSans-32"/>
       <use xlink:href="#DejaVuSans-30" x="63.623047"/>
       <use xlink:href="#DejaVuSans-32" x="127.246094"/>
       <use xlink:href="#DejaVuSans-34" x="190.869141"/>
       <use xlink:href="#DejaVuSans-2d" x="254.492188"/>
       <use xlink:href="#DejaVuSans-30" x="290.576172"/>
       <use xlink:href="#DejaVuSans-32" x="354.199219"/>
       <use xlink:href="#DejaVuSans-2d" x="417.822266"/>
       <use xlink:href="#DejaVuSans-31" x="453.90625"/>
       <use xlink:href="#DejaVuSans-35" x="517.529297"/>
      </g>
     </g>
    </g>
    <g id="xtick_8">
     <g id="line2d_8">
      <g>
       <use xlink:href="#mefea1ef4fa" x="854.503896" y="512.64" style="stroke: #000000; stroke-width: 0.8"/>
      </g>
     </g>
     <g id="text_8">
      <!-- 2024-02-22 -->
      <g transform="translate(825.446084 527.238438) scale(0.1 -0.1)">
       <use xlink:href="#DejaVuSans-32"/>
       <use xlink:href="#DejaVuSans-30" x="63.623047"/>
       <use xlink:href="#DejaVuSans-32" x="127.246094"/>
       <use xlink:href="#DejaVuSans-34" x="190.869141"/>
       <use xlink:href="#DejaVuSans-2d" x="254.492188"/>
       <use xlink:href="#DejaVuSans-30" x="290.576172"/>
       <use xlink:href="#DejaVuSans-32" x="354.199219"/>
       <use xlink:href="#DejaVuSans-2d" x="417.822266"/>
       <use xlink:href="#DejaVuSans-32" x="453.90625"/>
       <use xlink:href="#DejaVuSans-32" x="517.529297"/>
      </g>
     </g>
    </g>
    <g id="xtick_9">
     <g id="line2d_9">
      <g>
       <use xlink:href="#mefea1ef4fa" x="957.568831" y="512.64" style="stroke: #000000; stroke-width: 0.8"/>
      </g>
     </g>
     <g id="text_9">
      <!-- 2024-03-01 -->
      <g transform="translate(928.511019 527.238438) scale(0.1 -0.1)">
       <defs>
        <path id="DejaVuSans-33" d="M 2597 2516 
Q 3050 2419 3304 2112 
Q 3559 1806 3559 1356 
Q 3559 666 3084 287 
Q 2609 -91 1734 -91 
Q 1441 -91 1130 -33 
Q 819 25 488 141 
L 488 750 
Q 750 597 1062 519 
Q 1375 441 1716 441 
Q 2309 441 2620 675 
Q 2931 909 2931 1356 
Q 2931 1769 2642 2001 
Q 2353 2234 1838 2234 
L 1294 2234 
L 1294 2753 
L 1863 2753 
Q 2328 2753 2575 2939 
Q 2822 3125 2822 3475 
Q 2822 3834 2567 4026 
Q 2313 4219 1838 4219 
Q 1578 4219 1281 4162 
Q 984 4106 628 3988 
L 628 4550 
Q 988 4650 1302 4700 
Q 1616 4750 1894 4750 
Q 2613 4750 3031 4423 
Q 3450 4097 3450 3541 
Q 3450 3153 3228 2886 
Q 3006 2619 2597 2516 
z
" transform="scale(0.015625)"/>
       </defs>
       <use xlink:href="#DejaVuSans-32"/>
       <use xlink:href="#DejaVuSans-30" x="63.623047"/>
       <use xlink:href="#DejaVuSans-32" x="127.246094"/>
       <use xlink:href="#DejaVuSans-34" x="190.869141"/>
       <use xlink:href="#DejaVuSans-2d" x="254.492188"/>
       <use xlink:href="#DejaVuSans-30" x="290.576172"/>
       <use xlink:href="#DejaVuSans-33" x="354.199219"/>
       <use xlink:href="#DejaVuSans-2d" x="417.822266"/>
       <use xlink:href="#DejaVuSans-30" x="453.90625"/>
       <use xlink:href="#DejaVuSans-31" x="517.529297"/>
      </g>
     </g>
    </g>
   </g>
   <g id="matplotlib.axis_2">
    <g id="ytick_1">
     <g id="line2d_10">
      <defs>
       <path id="m4234bf9849" d="M 0 0 
L -3.5 0 
" style="stroke: #000000; stroke-width: 0.8"/>
      </defs>
      <g>
       <use xlink:href="#m4234bf9849" x="144" y="494.316902" style="stroke: #000000; stroke-width: 0.8"/>
      </g>
     </g>
     <g id="text_10">
      <!-- 6300 -->
      <g transform="translate(111.55 498.116121) scale(0.1 -0.1)">
       <defs>
        <path id="DejaVuSans-36" d="M 2113 2584 
Q 1688 2584 1439 2293 
Q 1191 2003 1191 1497 
Q 1191 994 1439 701 
Q 1688 409 2113 409 
Q 2538 409 2786 701 
Q 3034 994 3034 1497 
Q 3034 2003 2786 2293 
Q 2538 2584 2113 2584 
z
M 3366 4563 
L 3366 3988 
Q 3128 4100 2886 4159 
Q 2644 4219 2406 4219 
Q 1781 4219 1451 3797 
Q 1122 3375 1075 2522 
Q 1259 2794 1537 2939 
Q 1816 3084 2150 3084 
Q 2853 3084 3261 2657 
Q 3669 2231 3669 1497 
Q 3669 778 3244 343 
Q 2819 -91 2113 -91 
Q 1303 -91 875 529 
Q 447 1150 447 2328 
Q 447 3434 972 4092 
Q 1497 4750 2381 4750 
Q 2619 4750 2861 4703 
Q 3103 4656 3366 4563 
z
" transform="scale(0.015625)"/>
       </defs>
       <use xlink:href="#DejaVuSans-36"/>
       <use xlink:href="#DejaVuSans-33" x="63.623047"/>
       <use xlink:href="#DejaVuSans-30" x="127.246094"/>
       <use xlink:href="#DejaVuSans-30" x="190.869141"/>
      </g>
     </g>
    </g>
    <g id="ytick_2">
     <g id="line2d_11">
      <g>
       <use xlink:href="#m4234bf9849" x="144" y="402.4718" style="stroke: #000000; stroke-width: 0.8"/>
      </g>
     </g>
     <g id="text_11">
      <!-- 6400 -->
      <g transform="translate(111.55 406.271018) scale(0.1 -0.1)">
       <use xlink:href="#DejaVuSans-36"/>
       <use xlink:href="#DejaVuSans-34" x="63.623047"/>
       <use xlink:href="#DejaVuSans-30" x="127.246094"/>
       <use xlink:href="#DejaVuSans-30" x="190.869141"/>
      </g>
     </g>
    </g>
    <g id="ytick_3">
     <g id="line2d_12">
      <g>
       <use xlink:href="#m4234bf9849" x="144" y="310.626697" style="stroke: #000000; stroke-width: 0.8"/>
      </g>
     </g>
     <g id="text_12">
      <!-- 6500 -->
      <g transform="translate(111.55 314.425916) scale(0.1 -0.1)">
       <use xlink:href="#DejaVuSans-36"/>
       <use xlink:href="#DejaVuSans-35" x="63.623047"/>
       <use xlink:href="#DejaVuSans-30" x="127.246094"/>
       <use xlink:href="#DejaVuSans-30" x="190.869141"/>
      </g>
     </g>
    </g>
    <g id="ytick_4">
     <g id="line2d_13">
      <g>
       <use xlink:href="#m4234bf9849" x="144" y="218.781595" style="stroke: #000000; stroke-width: 0.8"/>
      </g>
     </g>
     <g id="text_13">
      <!-- 6600 -->
      <g transform="translate(111.55 222.580813) scale(0.1 -0.1)">
       <use xlink:href="#DejaVuSans-36"/>
       <use xlink:href="#DejaVuSans-36" x="63.623047"/>
       <use xlink:href="#DejaVuSans-30" x="127.246094"/>
       <use xlink:href="#DejaVuSans-30" x="190.869141"/>
      </g>
     </g>
    </g>
    <g id="ytick_5">
     <g id="line2d_14">
      <g>
       <use xlink:href="#m4234bf9849" x="144" y="126.936492" style="stroke: #000000; stroke-width: 0.8"/>
      </g>
     </g>
     <g id="text_14">
      <!-- 6700 -->
      <g transform="translate(111.55 130.735711) scale(0.1 -0.1)">
       <defs>
        <path id="DejaVuSans-37" d="M 525 4666 
L 3525 4666 
L 3525 4397 
L 1831 0 
L 1172 0 
L 2766 4134 
L 525 4134 
L 525 4666 
z
" transform="scale(0.015625)"/>
       </defs>
       <use xlink:href="#DejaVuSans-36"/>
       <use xlink:href="#DejaVuSans-37" x="63.623047"/>
       <use xlink:href="#DejaVuSans-30" x="127.246094"/>
       <use xlink:href="#DejaVuSans-30" x="190.869141"/>
      </g>
     </g>
    </g>
   </g>
   <g id="line2d_15">
    <path d="M 184.581818 492.48 
L 197.464935 474.110979 
L 210.348052 450.231253 
L 223.231169 449.312802 
L 236.114286 440.128292 
L 261.880519 435.536036 
L 274.763636 431.862232 
L 287.646753 429.106879 
L 300.52987 425.433075 
L 313.412987 419.922369 
L 326.296104 405.227153 
L 339.179221 402.4718 
L 352.062338 399.716446 
L 364.945455 385.939681 
L 377.828571 382.265877 
L 390.711688 371.244465 
L 403.594805 366.65221 
L 416.477922 361.141503 
L 429.361039 358.38615 
L 442.244156 355.630797 
L 455.127273 351.038542 
L 468.01039 346.446287 
L 480.893506 342.772483 
L 493.776623 340.935581 
L 506.65974 334.506424 
L 519.542857 332.669522 
L 545.309091 323.485011 
L 558.192208 322.56656 
L 571.075325 317.055854 
L 583.958442 303.279089 
L 596.841558 289.502323 
L 609.724675 286.74697 
L 635.490909 283.073166 
L 648.374026 267.459499 
L 661.257143 266.541048 
L 674.14026 262.867244 
L 687.023377 260.111891 
L 699.906494 257.356538 
L 712.78961 240.824419 
L 725.672727 238.069066 
L 738.555844 234.395262 
L 751.438961 230.721458 
L 764.322078 225.210752 
L 777.205195 206.841731 
L 790.088312 202.249476 
L 802.971429 199.494123 
L 815.854545 190.309613 
L 828.737662 186.635809 
L 841.620779 185.717358 
L 854.503896 161.837631 
L 867.387013 157.245376 
L 880.27013 148.979317 
L 893.153247 147.142415 
L 906.036364 144.387062 
L 918.919481 130.610296 
L 931.802597 128.773394 
L 944.685714 125.09959 
L 957.568831 97.546059 
L 970.451948 94.790706 
L 983.335065 92.953804 
L 996.218182 89.28 
" clip-path="url(#p0d4f9d7544)" style="fill: none; stroke: #1f77b4; stroke-width: 1.5; stroke-linecap: square"/>
   </g>
   <g id="patch_3">
    <path d="M 144 512.64 
L 144 69.12 
" style="fill: none; stroke: #000000; stroke-width: 0.8; stroke-linejoin: miter; stroke-linecap: square"/>
   </g>
   <g id="patch_4">
    <path d="M 1036.8 512.64 
L 1036.8 69.12 
" style="fill: none; stroke: #000000; stroke-width: 0.8; stroke-linejoin: miter; stroke-linecap: square"/>
   </g>
   <g id="patch_5">
    <path d="M 144 512.64 
L 1036.8 512.64 
" style="fill: none; stroke: #000000; stroke-width: 0.8; stroke-linejoin: miter; stroke-linecap: square"/>
   </g>
   <g id="patch_6">
    <path d="M 144 69.12 
L 1036.8 69.12 
" style="fill: none; stroke: #000000; stroke-width: 0.8; stroke-linejoin: miter; stroke-linecap: square"/>
   </g>
   <g id="text_15">
    <!-- Number of AEDs in the OpenStreetMap database in Poland from 2024-01-01, day by day. As at: 2024-03-04 -->
    <g transform="translate(144 63.12) scale(0.14 -0.14)">
     <defs>
      <path id="DejaVuSans-4e" d="M 628 4666 
L 1478 4666 
L 3547 763 
L 3547 4666 
L 4159 4666 
L 4159 0 
L 3309 0 
L 1241 3903 
L 1241 0 
L 628 0 
L 628 4666 
z
" transform="scale(0.015625)"/>
      <path id="DejaVuSans-75" d="M 544 1381 
L 544 3500 
L 1119 3500 
L 1119 1403 
Q 1119 906 1312 657 
Q 1506 409 1894 409 
Q 2359 409 2629 706 
Q 2900 1003 2900 1516 
L 2900 3500 
L 3475 3500 
L 3475 0 
L 2900 0 
L 2900 538 
Q 2691 219 2414 64 
Q 2138 -91 1772 -91 
Q 1169 -91 856 284 
Q 544 659 544 1381 
z
M 1991 3584 
L 1991 3584 
z
" transform="scale(0.015625)"/>
      <path id="DejaVuSans-6d" d="M 3328 2828 
Q 3544 3216 3844 3400 
Q 4144 3584 4550 3584 
Q 5097 3584 5394 3201 
Q 5691 2819 5691 2113 
L 5691 0 
L 5113 0 
L 5113 2094 
Q 5113 2597 4934 2840 
Q 4756 3084 4391 3084 
Q 3944 3084 3684 2787 
Q 3425 2491 3425 1978 
L 3425 0 
L 2847 0 
L 2847 2094 
Q 2847 2600 2669 2842 
Q 2491 3084 2119 3084 
Q 1678 3084 1418 2786 
Q 1159 2488 1159 1978 
L 1159 0 
L 581 0 
L 581 3500 
L 1159 3500 
L 1159 2956 
Q 1356 3278 1631 3431 
Q 1906 3584 2284 3584 
Q 2666 3584 2933 3390 
Q 3200 3197 3328 2828 
z
" transform="scale(0.015625)"/>
      <path id="DejaVuSans-62" d="M 3116 1747 
Q 3116 2381 2855 2742 
Q 2594 3103 2138 3103 
Q 1681 3103 1420 2742 
Q 1159 2381 1159 1747 
Q 1159 1113 1420 752 
Q 1681 391 2138 391 
Q 2594 391 2855 752 
Q 3116 1113 3116 1747 
z
M 1159 2969 
Q 1341 3281 1617 3432 
Q 1894 3584 2278 3584 
Q 2916 3584 3314 3078 
Q 3713 2572 3713 1747 
Q 3713 922 3314 415 
Q 2916 -91 2278 -91 
Q 1894 -91 1617 61 
Q 1341 213 1159 525 
L 1159 0 
L 581 0 
L 581 4863 
L 1159 4863 
L 1159 2969 
z
" transform="scale(0.015625)"/>
      <path id="DejaVuSans-65" d="M 3597 1894 
L 3597 1613 
L 953 1613 
Q 991 1019 1311 708 
Q 1631 397 2203 397 
Q 2534 397 2845 478 
Q 3156 559 3463 722 
L 3463 178 
Q 3153 47 2828 -22 
Q 2503 -91 2169 -91 
Q 1331 -91 842 396 
Q 353 884 353 1716 
Q 353 2575 817 3079 
Q 1281 3584 2069 3584 
Q 2775 3584 3186 3129 
Q 3597 2675 3597 1894 
z
M 3022 2063 
Q 3016 2534 2758 2815 
Q 2500 3097 2075 3097 
Q 1594 3097 1305 2825 
Q 1016 2553 972 2059 
L 3022 2063 
z
" transform="scale(0.015625)"/>
      <path id="DejaVuSans-72" d="M 2631 2963 
Q 2534 3019 2420 3045 
Q 2306 3072 2169 3072 
Q 1681 3072 1420 2755 
Q 1159 2438 1159 1844 
L 1159 0 
L 581 0 
L 581 3500 
L 1159 3500 
L 1159 2956 
Q 1341 3275 1631 3429 
Q 1922 3584 2338 3584 
Q 2397 3584 2469 3576 
Q 2541 3569 2628 3553 
L 2631 2963 
z
" transform="scale(0.015625)"/>
      <path id="DejaVuSans-20" transform="scale(0.015625)"/>
      <path id="DejaVuSans-6f" d="M 1959 3097 
Q 1497 3097 1228 2736 
Q 959 2375 959 1747 
Q 959 1119 1226 758 
Q 1494 397 1959 397 
Q 2419 397 2687 759 
Q 2956 1122 2956 1747 
Q 2956 2369 2687 2733 
Q 2419 3097 1959 3097 
z
M 1959 3584 
Q 2709 3584 3137 3096 
Q 3566 2609 3566 1747 
Q 3566 888 3137 398 
Q 2709 -91 1959 -91 
Q 1206 -91 779 398 
Q 353 888 353 1747 
Q 353 2609 779 3096 
Q 1206 3584 1959 3584 
z
" transform="scale(0.015625)"/>
      <path id="DejaVuSans-66" d="M 2375 4863 
L 2375 4384 
L 1825 4384 
Q 1516 4384 1395 4259 
Q 1275 4134 1275 3809 
L 1275 3500 
L 2222 3500 
L 2222 3053 
L 1275 3053 
L 1275 0 
L 697 0 
L 697 3053 
L 147 3053 
L 147 3500 
L 697 3500 
L 697 3744 
Q 697 4328 969 4595 
Q 1241 4863 1831 4863 
L 2375 4863 
z
" transform="scale(0.015625)"/>
      <path id="DejaVuSans-41" d="M 2188 4044 
L 1331 1722 
L 3047 1722 
L 2188 4044 
z
M 1831 4666 
L 2547 4666 
L 4325 0 
L 3669 0 
L 3244 1197 
L 1141 1197 
L 716 0 
L 50 0 
L 1831 4666 
z
" transform="scale(0.015625)"/>
      <path id="DejaVuSans-45" d="M 628 4666 
L 3578 4666 
L 3578 4134 
L 1259 4134 
L 1259 2753 
L 3481 2753 
L 3481 2222 
L 1259 2222 
L 1259 531 
L 3634 531 
L 3634 0 
L 628 0 
L 628 4666 
z
" transform="scale(0.015625)"/>
      <path id="DejaVuSans-44" d="M 1259 4147 
L 1259 519 
L 2022 519 
Q 2988 519 3436 956 
Q 3884 1394 3884 2338 
Q 3884 3275 3436 3711 
Q 2988 4147 2022 4147 
L 1259 4147 
z
M 628 4666 
L 1925 4666 
Q 3281 4666 3915 4102 
Q 4550 3538 4550 2338 
Q 4550 1131 3912 565 
Q 3275 0 1925 0 
L 628 0 
L 628 4666 
z
" transform="scale(0.015625)"/>
      <path id="DejaVuSans-73" d="M 2834 3397 
L 2834 2853 
Q 2591 2978 2328 3040 
Q 2066 3103 1784 3103 
Q 1356 3103 1142 2972 
Q 928 2841 928 2578 
Q 928 2378 1081 2264 
Q 1234 2150 1697 2047 
L 1894 2003 
Q 2506 1872 2764 1633 
Q 3022 1394 3022 966 
Q 3022 478 2636 193 
Q 2250 -91 1575 -91 
Q 1294 -91 989 -36 
Q 684 19 347 128 
L 347 722 
Q 666 556 975 473 
Q 1284 391 1588 391 
Q 1994 391 2212 530 
Q 2431 669 2431 922 
Q 2431 1156 2273 1281 
Q 2116 1406 1581 1522 
L 1381 1569 
Q 847 1681 609 1914 
Q 372 2147 372 2553 
Q 372 3047 722 3315 
Q 1072 3584 1716 3584 
Q 2034 3584 2315 3537 
Q 2597 3491 2834 3397 
z
" transform="scale(0.015625)"/>
      <path id="DejaVuSans-69" d="M 603 3500 
L 1178 3500 
L 1178 0 
L 603 0 
L 603 3500 
z
M 603 4863 
L 1178 4863 
L 1178 4134 
L 603 4134 
L 603 4863 
z
" transform="scale(0.015625)"/>
      <path id="DejaVuSans-6e" d="M 3513 2113 
L 3513 0 
L 2938 0 
L 2938 2094 
Q 2938 2591 2744 2837 
Q 2550 3084 2163 3084 
Q 1697 3084 1428 2787 
Q 1159 2491 1159 1978 
L 1159 0 
L 581 0 
L 581 3500 
L 1159 3500 
L 1159 2956 
Q 1366 3272 1645 3428 
Q 1925 3584 2291 3584 
Q 2894 3584 3203 3211 
Q 3513 2838 3513 2113 
z
" transform="scale(0.015625)"/>
      <path id="DejaVuSans-74" d="M 1172 4494 
L 1172 3500 
L 2356 3500 
L 2356 3053 
L 1172 3053 
L 1172 1153 
Q 1172 725 1289 603 
Q 1406 481 1766 481 
L 2356 481 
L 2356 0 
L 1766 0 
Q 1100 0 847 248 
Q 594 497 594 1153 
L 594 3053 
L 172 3053 
L 172 3500 
L 594 3500 
L 594 4494 
L 1172 4494 
z
" transform="scale(0.015625)"/>
      <path id="DejaVuSans-68" d="M 3513 2113 
L 3513 0 
L 2938 0 
L 2938 2094 
Q 2938 2591 2744 2837 
Q 2550 3084 2163 3084 
Q 1697 3084 1428 2787 
Q 1159 2491 1159 1978 
L 1159 0 
L 581 0 
L 581 4863 
L 1159 4863 
L 1159 2956 
Q 1366 3272 1645 3428 
Q 1925 3584 2291 3584 
Q 2894 3584 3203 3211 
Q 3513 2838 3513 2113 
z
" transform="scale(0.015625)"/>
      <path id="DejaVuSans-4f" d="M 2522 4238 
Q 1834 4238 1429 3725 
Q 1025 3213 1025 2328 
Q 1025 1447 1429 934 
Q 1834 422 2522 422 
Q 3209 422 3611 934 
Q 4013 1447 4013 2328 
Q 4013 3213 3611 3725 
Q 3209 4238 2522 4238 
z
M 2522 4750 
Q 3503 4750 4090 4092 
Q 4678 3434 4678 2328 
Q 4678 1225 4090 567 
Q 3503 -91 2522 -91 
Q 1538 -91 948 565 
Q 359 1222 359 2328 
Q 359 3434 948 4092 
Q 1538 4750 2522 4750 
z
" transform="scale(0.015625)"/>
      <path id="DejaVuSans-70" d="M 1159 525 
L 1159 -1331 
L 581 -1331 
L 581 3500 
L 1159 3500 
L 1159 2969 
Q 1341 3281 1617 3432 
Q 1894 3584 2278 3584 
Q 2916 3584 3314 3078 
Q 3713 2572 3713 1747 
Q 3713 922 3314 415 
Q 2916 -91 2278 -91 
Q 1894 -91 1617 61 
Q 1341 213 1159 525 
z
M 3116 1747 
Q 3116 2381 2855 2742 
Q 2594 3103 2138 3103 
Q 1681 3103 1420 2742 
Q 1159 2381 1159 1747 
Q 1159 1113 1420 752 
Q 1681 391 2138 391 
Q 2594 391 2855 752 
Q 3116 1113 3116 1747 
z
" transform="scale(0.015625)"/>
      <path id="DejaVuSans-53" d="M 3425 4513 
L 3425 3897 
Q 3066 4069 2747 4153 
Q 2428 4238 2131 4238 
Q 1616 4238 1336 4038 
Q 1056 3838 1056 3469 
Q 1056 3159 1242 3001 
Q 1428 2844 1947 2747 
L 2328 2669 
Q 3034 2534 3370 2195 
Q 3706 1856 3706 1288 
Q 3706 609 3251 259 
Q 2797 -91 1919 -91 
Q 1588 -91 1214 -16 
Q 841 59 441 206 
L 441 856 
Q 825 641 1194 531 
Q 1563 422 1919 422 
Q 2459 422 2753 634 
Q 3047 847 3047 1241 
Q 3047 1584 2836 1778 
Q 2625 1972 2144 2069 
L 1759 2144 
Q 1053 2284 737 2584 
Q 422 2884 422 3419 
Q 422 4038 858 4394 
Q 1294 4750 2059 4750 
Q 2388 4750 2728 4690 
Q 3069 4631 3425 4513 
z
" transform="scale(0.015625)"/>
      <path id="DejaVuSans-4d" d="M 628 4666 
L 1569 4666 
L 2759 1491 
L 3956 4666 
L 4897 4666 
L 4897 0 
L 4281 0 
L 4281 4097 
L 3078 897 
L 2444 897 
L 1241 4097 
L 1241 0 
L 628 0 
L 628 4666 
z
" transform="scale(0.015625)"/>
      <path id="DejaVuSans-61" d="M 2194 1759 
Q 1497 1759 1228 1600 
Q 959 1441 959 1056 
Q 959 750 1161 570 
Q 1363 391 1709 391 
Q 2188 391 2477 730 
Q 2766 1069 2766 1631 
L 2766 1759 
L 2194 1759 
z
M 3341 1997 
L 3341 0 
L 2766 0 
L 2766 531 
Q 2569 213 2275 61 
Q 1981 -91 1556 -91 
Q 1019 -91 701 211 
Q 384 513 384 1019 
Q 384 1609 779 1909 
Q 1175 2209 1959 2209 
L 2766 2209 
L 2766 2266 
Q 2766 2663 2505 2880 
Q 2244 3097 1772 3097 
Q 1472 3097 1187 3025 
Q 903 2953 641 2809 
L 641 3341 
Q 956 3463 1253 3523 
Q 1550 3584 1831 3584 
Q 2591 3584 2966 3190 
Q 3341 2797 3341 1997 
z
" transform="scale(0.015625)"/>
      <path id="DejaVuSans-64" d="M 2906 2969 
L 2906 4863 
L 3481 4863 
L 3481 0 
L 2906 0 
L 2906 525 
Q 2725 213 2448 61 
Q 2172 -91 1784 -91 
Q 1150 -91 751 415 
Q 353 922 353 1747 
Q 353 2572 751 3078 
Q 1150 3584 1784 3584 
Q 2172 3584 2448 3432 
Q 2725 3281 2906 2969 
z
M 947 1747 
Q 947 1113 1208 752 
Q 1469 391 1925 391 
Q 2381 391 2643 752 
Q 2906 1113 2906 1747 
Q 2906 2381 2643 2742 
Q 2381 3103 1925 3103 
Q 1469 3103 1208 2742 
Q 947 2381 947 1747 
z
" transform="scale(0.015625)"/>
      <path id="DejaVuSans-50" d="M 1259 4147 
L 1259 2394 
L 2053 2394 
Q 2494 2394 2734 2622 
Q 2975 2850 2975 3272 
Q 2975 3691 2734 3919 
Q 2494 4147 2053 4147 
L 1259 4147 
z
M 628 4666 
L 2053 4666 
Q 2838 4666 3239 4311 
Q 3641 3956 3641 3272 
Q 3641 2581 3239 2228 
Q 2838 1875 2053 1875 
L 1259 1875 
L 1259 0 
L 628 0 
L 628 4666 
z
" transform="scale(0.015625)"/>
      <path id="DejaVuSans-6c" d="M 603 4863 
L 1178 4863 
L 1178 0 
L 603 0 
L 603 4863 
z
" transform="scale(0.015625)"/>
      <path id="DejaVuSans-2c" d="M 750 794 
L 1409 794 
L 1409 256 
L 897 -744 
L 494 -744 
L 750 256 
L 750 794 
z
" transform="scale(0.015625)"/>
      <path id="DejaVuSans-79" d="M 2059 -325 
Q 1816 -950 1584 -1140 
Q 1353 -1331 966 -1331 
L 506 -1331 
L 506 -850 
L 844 -850 
Q 1081 -850 1212 -737 
Q 1344 -625 1503 -206 
L 1606 56 
L 191 3500 
L 800 3500 
L 1894 763 
L 2988 3500 
L 3597 3500 
L 2059 -325 
z
" transform="scale(0.015625)"/>
      <path id="DejaVuSans-2e" d="M 684 794 
L 1344 794 
L 1344 0 
L 684 0 
L 684 794 
z
" transform="scale(0.015625)"/>
      <path id="DejaVuSans-3a" d="M 750 794 
L 1409 794 
L 1409 0 
L 750 0 
L 750 794 
z
M 750 3309 
L 1409 3309 
L 1409 2516 
L 750 2516 
L 750 3309 
z
" transform="scale(0.015625)"/>
     </defs>
     <use xlink:href="#DejaVuSans-4e"/>
     <use xlink:href="#DejaVuSans-75" x="74.804688"/>
     <use xlink:href="#DejaVuSans-6d" x="138.183594"/>
     <use xlink:href="#DejaVuSans-62" x="235.595703"/>
     <use xlink:href="#DejaVuSans-65" x="299.072266"/>
     <use xlink:href="#DejaVuSans-72" x="360.595703"/>
     <use xlink:href="#DejaVuSans-20" x="401.708984"/>
     <use xlink:href="#DejaVuSans-6f" x="433.496094"/>
     <use xlink:href="#DejaVuSans-66" x="494.677734"/>
     <use xlink:href="#DejaVuSans-20" x="529.882812"/>
     <use xlink:href="#DejaVuSans-41" x="561.669922"/>
     <use xlink:href="#DejaVuSans-45" x="630.078125"/>
     <use xlink:href="#DejaVuSans-44" x="693.261719"/>
     <use xlink:href="#DejaVuSans-73" x="770.263672"/>
     <use xlink:href="#DejaVuSans-20" x="822.363281"/>
     <use xlink:href="#DejaVuSans-69" x="854.150391"/>
     <use xlink:href="#DejaVuSans-6e" x="881.933594"/>
     <use xlink:href="#DejaVuSans-20" x="945.3125"/>
     <use xlink:href="#DejaVuSans-74" x="977.099609"/>
     <use xlink:href="#DejaVuSans-68" x="1016.308594"/>
     <use xlink:href="#DejaVuSans-65" x="1079.6875"/>
     <use xlink:href="#DejaVuSans-20" x="1141.210938"/>
     <use xlink:href="#DejaVuSans-4f" x="1172.998047"/>
     <use xlink:href="#DejaVuSans-70" x="1251.708984"/>
     <use xlink:href="#DejaVuSans-65" x="1315.185547"/>
     <use xlink:href="#DejaVuSans-6e" x="1376.708984"/>
     <use xlink:href="#DejaVuSans-53" x="1440.087891"/>
     <use xlink:href="#DejaVuSans-74" x="1503.564453"/>
     <use xlink:href="#DejaVuSans-72" x="1542.773438"/>
     <use xlink:href="#DejaVuSans-65" x="1581.636719"/>
     <use xlink:href="#DejaVuSans-65" x="1643.160156"/>
     <use xlink:href="#DejaVuSans-74" x="1704.683594"/>
     <use xlink:href="#DejaVuSans-4d" x="1743.892578"/>
     <use xlink:href="#DejaVuSans-61" x="1830.171875"/>
     <use xlink:href="#DejaVuSans-70" x="1891.451172"/>
     <use xlink:href="#DejaVuSans-20" x="1954.927734"/>
     <use xlink:href="#DejaVuSans-64" x="1986.714844"/>
     <use xlink:href="#DejaVuSans-61" x="2050.191406"/>
     <use xlink:href="#DejaVuSans-74" x="2111.470703"/>
     <use xlink:href="#DejaVuSans-61" x="2150.679688"/>
     <use xlink:href="#DejaVuSans-62" x="2211.958984"/>
     <use xlink:href="#DejaVuSans-61" x="2275.435547"/>
     <use xlink:href="#DejaVuSans-73" x="2336.714844"/>
     <use xlink:href="#DejaVuSans-65" x="2388.814453"/>
     <use xlink:href="#DejaVuSans-20" x="2450.337891"/>
     <use xlink:href="#DejaVuSans-69" x="2482.125"/>
     <use xlink:href="#DejaVuSans-6e" x="2509.908203"/>
     <use xlink:href="#DejaVuSans-20" x="2573.287109"/>
     <use xlink:href="#DejaVuSans-50" x="2605.074219"/>
     <use xlink:href="#DejaVuSans-6f" x="2661.751953"/>
     <use xlink:href="#DejaVuSans-6c" x="2722.933594"/>
     <use xlink:href="#DejaVuSans-61" x="2750.716797"/>
     <use xlink:href="#DejaVuSans-6e" x="2811.996094"/>
     <use xlink:href="#DejaVuSans-64" x="2875.375"/>
     <use xlink:href="#DejaVuSans-20" x="2938.851562"/>
     <use xlink:href="#DejaVuSans-66" x="2970.638672"/>
     <use xlink:href="#DejaVuSans-72" x="3005.84375"/>
     <use xlink:href="#DejaVuSans-6f" x="3044.707031"/>
     <use xlink:href="#DejaVuSans-6d" x="3105.888672"/>
     <use xlink:href="#DejaVuSans-20" x="3203.300781"/>
     <use xlink:href="#DejaVuSans-32" x="3235.087891"/>
     <use xlink:href="#DejaVuSans-30" x="3298.710938"/>
     <use xlink:href="#DejaVuSans-32" x="3362.333984"/>
     <use xlink:href="#DejaVuSans-34" x="3425.957031"/>
     <use xlink:href="#DejaVuSans-2d" x="3489.580078"/>
     <use xlink:href="#DejaVuSans-30" x="3525.664062"/>
     <use xlink:href="#DejaVuSans-31" x="3589.287109"/>
     <use xlink:href="#DejaVuSans-2d" x="3652.910156"/>
     <use xlink:href="#DejaVuSans-30" x="3688.994141"/>
     <use xlink:href="#DejaVuSans-31" x="3752.617188"/>
     <use xlink:href="#DejaVuSans-2c" x="3816.240234"/>
     <use xlink:href="#DejaVuSans-20" x="3848.027344"/>
     <use xlink:href="#DejaVuSans-64" x="3879.814453"/>
     <use xlink:href="#DejaVuSans-61" x="3943.291016"/>
     <use xlink:href="#DejaVuSans-79" x="4004.570312"/>
     <use xlink:href="#DejaVuSans-20" x="4063.75"/>
     <use xlink:href="#DejaVuSans-62" x="4095.537109"/>
     <use xlink:href="#DejaVuSans-79" x="4159.013672"/>
     <use xlink:href="#DejaVuSans-20" x="4218.193359"/>
     <use xlink:href="#DejaVuSans-64" x="4249.980469"/>
     <use xlink:href="#DejaVuSans-61" x="4313.457031"/>
     <use xlink:href="#DejaVuSans-79" x="4374.736328"/>
     <use xlink:href="#DejaVuSans-2e" x="4419.666016"/>
     <use xlink:href="#DejaVuSans-20" x="4451.453125"/>
     <use xlink:href="#DejaVuSans-41" x="4483.240234"/>
     <use xlink:href="#DejaVuSans-73" x="4551.648438"/>
     <use xlink:href="#DejaVuSans-20" x="4603.748047"/>
     <use xlink:href="#DejaVuSans-61" x="4635.535156"/>
     <use xlink:href="#DejaVuSans-74" x="4696.814453"/>
     <use xlink:href="#DejaVuSans-3a" x="4736.023438"/>
     <use xlink:href="#DejaVuSans-20" x="4769.714844"/>
     <use xlink:href="#DejaVuSans-32" x="4801.501953"/>
     <use xlink:href="#DejaVuSans-30" x="4865.125"/>
     <use xlink:href="#DejaVuSans-32" x="4928.748047"/>
     <use xlink:href="#DejaVuSans-34" x="4992.371094"/>
     <use xlink:href="#DejaVuSans-2d" x="5055.994141"/>
     <use xlink:href="#DejaVuSans-30" x="5092.078125"/>
     <use xlink:href="#DejaVuSans-33" x="5155.701172"/>
     <use xlink:href="#DejaVuSans-2d" x="5219.324219"/>
     <use xlink:href="#DejaVuSans-30" x="5255.408203"/>
     <use xlink:href="#DejaVuSans-34" x="5319.03125"/>
    </g>
   </g>
  </g>
 </g>
 <defs>
  <clipPath id="p0d4f9d7544">
   <rect x="144" y="69.12" width="892.8" height="443.52"/>
  </clipPath>
 </defs>
</svg>
