<?xml version="1.0" encoding="utf-8" standalone="no"?>
<!DOCTYPE svg PUBLIC "-//W3C//DTD SVG 1.1//EN"
  "http://www.w3.org/Graphics/SVG/1.1/DTD/svg11.dtd">
<svg xmlns:xlink="http://www.w3.org/1999/xlink" width="1152pt" height="576pt" viewBox="0 0 1152 576" xmlns="http://www.w3.org/2000/svg" version="1.1">
 <metadata>
  <rdf:RDF xmlns:dc="http://purl.org/dc/elements/1.1/" xmlns:cc="http://creativecommons.org/ns#" xmlns:rdf="http://www.w3.org/1999/02/22-rdf-syntax-ns#">
   <cc:Work>
    <dc:type rdf:resource="http://purl.org/dc/dcmitype/StillImage"/>
    <dc:date>2023-04-01T10:33:17.888996</dc:date>
    <dc:format>image/svg+xml</dc:format>
    <dc:creator>
     <cc:Agent>
      <dc:title>Matplotlib v3.5.1, https://matplotlib.org/</dc:title>
     </cc:Agent>
    </dc:creator>
   </cc:Work>
  </rdf:RDF>
 </metadata>
 <defs>
  <style type="text/css">*{stroke-linejoin: round; stroke-linecap: butt}</style>
 </defs>
 <g id="figure_1">
  <g id="patch_1">
   <path d="M 0 576 
L 1152 576 
L 1152 0 
L 0 0 
z
" style="fill: #ffffff"/>
  </g>
  <g id="axes_1">
   <g id="patch_2">
    <path d="M 144 512.64 
L 1036.8 512.64 
L 1036.8 69.12 
L 144 69.12 
z
" style="fill: #ffffff"/>
   </g>
   <g id="PathCollection_1">
    <path d="M 184.581818 505.422179 
C 188.014124 505.422179 191.306314 504.058509 193.733321 501.631503 
C 196.160328 499.204496 197.523997 495.912306 197.523997 492.48 
C 197.523997 489.047694 196.160328 485.755504 193.733321 483.328497 
C 191.306314 480.901491 188.014124 479.537821 184.581818 479.537821 
C 181.149512 479.537821 177.857322 480.901491 175.430316 483.328497 
C 173.003309 485.755504 171.639639 489.047694 171.639639 492.48 
C 171.639639 495.912306 173.003309 499.204496 175.430316 501.631503 
C 177.857322 504.058509 181.149512 505.422179 184.581818 505.422179 
z
" clip-path="url(#pfb5baec334)" style="fill: #1f77b4; fill-opacity: 0.3; stroke: #1f77b4; stroke-opacity: 0.3"/>
    <path d="M 193.701328 493.823523 
C 194.887352 493.823523 196.02496 493.352311 196.863606 492.513665 
C 197.702251 491.675019 198.173464 490.537411 198.173464 489.351387 
C 198.173464 488.165363 197.702251 487.027755 196.863606 486.189109 
C 196.02496 485.350464 194.887352 484.879251 193.701328 484.879251 
C 192.515304 484.879251 191.377696 485.350464 190.53905 486.189109 
C 189.700404 487.027755 189.229192 488.165363 189.229192 489.351387 
C 189.229192 490.537411 189.700404 491.675019 190.53905 492.513665 
C 191.377696 493.352311 192.515304 493.823523 193.701328 493.823523 
z
" clip-path="url(#pfb5baec334)" style="fill: #1f77b4; fill-opacity: 0.3; stroke: #1f77b4; stroke-opacity: 0.3"/>
    <path d="M 202.820838 487.711515 
C 204.875092 487.711515 206.845486 486.895351 208.298063 485.442774 
C 209.75064 483.990196 210.566804 482.019802 210.566804 479.965548 
C 210.566804 477.911294 209.75064 475.9409 208.298063 474.488322 
C 206.845486 473.035745 204.875092 472.219581 202.820838 472.219581 
C 200.766583 472.219581 198.796189 473.035745 197.343612 474.488322 
C 195.891035 475.9409 195.074871 477.911294 195.074871 479.965548 
C 195.074871 482.019802 195.891035 483.990196 197.343612 485.442774 
C 198.796189 486.895351 200.766583 487.711515 202.820838 487.711515 
z
" clip-path="url(#pfb5baec334)" style="fill: #1f77b4; fill-opacity: 0.3; stroke: #1f77b4; stroke-opacity: 0.3"/>
    <path d="M 211.940347 477.382003 
C 214.159196 477.382003 216.287464 476.500445 217.856427 474.931482 
C 219.42539 473.36252 220.306948 471.234251 220.306948 469.015403 
C 220.306948 466.796554 219.42539 464.668285 217.856427 463.099323 
C 216.287464 461.53036 214.159196 460.648802 211.940347 460.648802 
C 209.721499 460.648802 207.59323 461.53036 206.024268 463.099323 
C 204.455305 464.668285 203.573747 466.796554 203.573747 469.015403 
C 203.573747 471.234251 204.455305 473.36252 206.024268 474.931482 
C 207.59323 476.500445 209.721499 477.382003 211.940347 477.382003 
z
" clip-path="url(#pfb5baec334)" style="fill: #1f77b4; fill-opacity: 0.3; stroke: #1f77b4; stroke-opacity: 0.3"/>
    <path d="M 221.059857 467.603516 
C 223.070859 467.603516 224.999766 466.804536 226.42176 465.382543 
C 227.843753 463.96055 228.642732 462.031642 228.642732 460.02064 
C 228.642732 458.009638 227.843753 456.080731 226.42176 454.658738 
C 224.999766 453.236744 223.070859 452.437765 221.059857 452.437765 
C 219.048855 452.437765 217.119948 453.236744 215.697954 454.658738 
C 214.275961 456.080731 213.476982 458.009638 213.476982 460.02064 
C 213.476982 462.031642 214.275961 463.96055 215.697954 465.382543 
C 217.119948 466.804536 219.048855 467.603516 221.059857 467.603516 
z
" clip-path="url(#pfb5baec334)" style="fill: #1f77b4; fill-opacity: 0.3; stroke: #1f77b4; stroke-opacity: 0.3"/>
    <path d="M 230.179367 460.087969 
C 231.856658 460.087969 233.465478 459.421574 234.651503 458.23555 
C 235.837527 457.049526 236.503922 455.440706 236.503922 453.763414 
C 236.503922 452.086122 235.837527 450.477303 234.651503 449.291278 
C 233.465478 448.105254 231.856658 447.438859 230.179367 447.438859 
C 228.502075 447.438859 226.893255 448.105254 225.707231 449.291278 
C 224.521206 450.477303 223.854811 452.086122 223.854811 453.763414 
C 223.854811 455.440706 224.521206 457.049526 225.707231 458.23555 
C 226.893255 459.421574 228.502075 460.087969 230.179367 460.087969 
z
" clip-path="url(#pfb5baec334)" style="fill: #1f77b4; fill-opacity: 0.3; stroke: #1f77b4; stroke-opacity: 0.3"/>
    <path d="M 239.298876 454.204421 
C 240.867839 454.204421 242.372752 453.581066 243.482177 452.471642 
C 244.591601 451.362217 245.214956 449.857304 245.214956 448.288341 
C 245.214956 446.719379 244.591601 445.214465 243.482177 444.105041 
C 242.372752 442.995617 240.867839 442.372262 239.298876 442.372262 
C 237.729914 442.372262 236.225 442.995617 235.115576 444.105041 
C 234.006152 445.214465 233.382797 446.719379 233.382797 448.288341 
C 233.382797 449.857304 234.006152 451.362217 235.115576 452.471642 
C 236.225 453.581066 237.729914 454.204421 239.298876 454.204421 
z
" clip-path="url(#pfb5baec334)" style="fill: #1f77b4; fill-opacity: 0.3; stroke: #1f77b4; stroke-opacity: 0.3"/>
    <path d="M 248.418386 448.355671 
C 250.095678 448.355671 251.704498 447.689276 252.890522 446.503251 
C 254.076546 445.317227 254.742941 443.708407 254.742941 442.031115 
C 254.742941 440.353824 254.076546 438.745004 252.890522 437.558979 
C 251.704498 436.372955 250.095678 435.70656 248.418386 435.70656 
C 246.741094 435.70656 245.132274 436.372955 243.94625 437.558979 
C 242.760226 438.745004 242.093831 440.353824 242.093831 442.031115 
C 242.093831 443.708407 242.760226 445.317227 243.94625 446.503251 
C 245.132274 447.689276 246.741094 448.355671 248.418386 448.355671 
z
" clip-path="url(#pfb5baec334)" style="fill: #1f77b4; fill-opacity: 0.3; stroke: #1f77b4; stroke-opacity: 0.3"/>
    <path d="M 257.537896 443.557639 
C 258.565023 443.557639 259.55022 443.149557 260.276509 442.423268 
C 261.002797 441.69698 261.410879 440.711783 261.410879 439.684656 
C 261.410879 438.657528 261.002797 437.672331 260.276509 436.946043 
C 259.55022 436.219754 258.565023 435.811672 257.537896 435.811672 
C 256.510769 435.811672 255.525572 436.219754 254.799283 436.946043 
C 254.072994 437.672331 253.664912 438.657528 253.664912 439.684656 
C 253.664912 440.711783 254.072994 441.69698 254.799283 442.423268 
C 255.525572 443.149557 256.510769 443.557639 257.537896 443.557639 
z
" clip-path="url(#pfb5baec334)" style="fill: #1f77b4; fill-opacity: 0.3; stroke: #1f77b4; stroke-opacity: 0.3"/>
    <path d="M 266.657406 440.908383 
C 267.915374 440.908383 269.121989 440.408586 270.011507 439.519068 
C 270.901026 438.62955 271.400822 437.422935 271.400822 436.164966 
C 271.400822 434.906997 270.901026 433.700382 270.011507 432.810864 
C 269.121989 431.921346 267.915374 431.42155 266.657406 431.42155 
C 265.399437 431.42155 264.192822 431.921346 263.303304 432.810864 
C 262.413785 433.700382 261.913989 434.906997 261.913989 436.164966 
C 261.913989 437.422935 262.413785 438.62955 263.303304 439.519068 
C 264.192822 440.408586 265.399437 440.908383 266.657406 440.908383 
z
" clip-path="url(#pfb5baec334)" style="fill: #1f77b4; fill-opacity: 0.3; stroke: #1f77b4; stroke-opacity: 0.3"/>
    <path d="M 275.776915 436.232295 
C 277.454207 436.232295 279.063027 435.5659 280.249051 434.379876 
C 281.435075 433.193852 282.101471 431.585032 282.101471 429.90774 
C 282.101471 428.230448 281.435075 426.621628 280.249051 425.435604 
C 279.063027 424.24958 277.454207 423.583185 275.776915 423.583185 
C 274.099624 423.583185 272.490804 424.24958 271.304779 425.435604 
C 270.118755 426.621628 269.45236 428.230448 269.45236 429.90774 
C 269.45236 431.585032 270.118755 433.193852 271.304779 434.379876 
C 272.490804 435.5659 274.099624 436.232295 275.776915 436.232295 
z
" clip-path="url(#pfb5baec334)" style="fill: #1f77b4; fill-opacity: 0.3; stroke: #1f77b4; stroke-opacity: 0.3"/>
    <path d="M 284.896425 421.812957 
C 287.831685 421.812957 290.64712 420.646766 292.722663 418.571223 
C 294.798205 416.495681 295.964397 413.680246 295.964397 410.744985 
C 295.964397 407.809725 294.798205 404.99429 292.722663 402.918748 
C 290.64712 400.843205 287.831685 399.677014 284.896425 399.677014 
C 281.961164 399.677014 279.14573 400.843205 277.070187 402.918748 
C 274.994644 404.99429 273.828453 407.809725 273.828453 410.744985 
C 273.828453 413.680246 274.994644 416.495681 277.070187 418.571223 
C 279.14573 420.646766 281.961164 421.812957 284.896425 421.812957 
z
" clip-path="url(#pfb5baec334)" style="fill: #1f77b4; fill-opacity: 0.3; stroke: #1f77b4; stroke-opacity: 0.3"/>
    <path d="M 294.015935 411.529292 
C 295.468512 411.529292 296.861791 410.952176 297.888918 409.925049 
C 298.916045 408.897922 299.49316 407.504643 299.49316 406.052066 
C 299.49316 404.599489 298.916045 403.20621 297.888918 402.179083 
C 296.861791 401.151955 295.468512 400.57484 294.015935 400.57484 
C 292.563357 400.57484 291.170078 401.151955 290.142951 402.179083 
C 289.115824 403.20621 288.538709 404.599489 288.538709 406.052066 
C 288.538709 407.504643 289.115824 408.897922 290.142951 409.925049 
C 291.170078 410.952176 292.563357 411.529292 294.015935 411.529292 
z
" clip-path="url(#pfb5baec334)" style="fill: #1f77b4; fill-opacity: 0.3; stroke: #1f77b4; stroke-opacity: 0.3"/>
    <path d="M 303.135444 407.242128 
C 303.554767 407.242128 303.956972 407.075529 304.253478 406.779023 
C 304.549984 406.482517 304.716583 406.080312 304.716583 405.660989 
C 304.716583 405.241666 304.549984 404.839461 304.253478 404.542955 
C 303.956972 404.246449 303.554767 404.079851 303.135444 404.079851 
C 302.716121 404.079851 302.313916 404.246449 302.01741 404.542955 
C 301.720904 404.839461 301.554306 405.241666 301.554306 405.660989 
C 301.554306 406.080312 301.720904 406.482517 302.01741 406.779023 
C 302.313916 407.075529 302.716121 407.242128 303.135444 407.242128 
z
" clip-path="url(#pfb5baec334)" style="fill: #1f77b4; fill-opacity: 0.3; stroke: #1f77b4; stroke-opacity: 0.3"/>
    <path d="M 312.254954 406.445295 
C 313.707531 406.445295 315.10081 405.86818 316.127937 404.841053 
C 317.155065 403.813926 317.73218 402.420647 317.73218 400.96807 
C 317.73218 399.515493 317.155065 398.122214 316.127937 397.095086 
C 315.10081 396.067959 313.707531 395.490844 312.254954 395.490844 
C 310.802377 395.490844 309.409098 396.067959 308.381971 397.095086 
C 307.354843 398.122214 306.777728 399.515493 306.777728 400.96807 
C 306.777728 402.420647 307.354843 403.813926 308.381971 404.841053 
C 309.409098 405.86818 310.802377 406.445295 312.254954 406.445295 
z
" clip-path="url(#pfb5baec334)" style="fill: #1f77b4; fill-opacity: 0.3; stroke: #1f77b4; stroke-opacity: 0.3"/>
    <path d="M 321.374464 401.225645 
C 322.998494 401.225645 324.556228 400.580411 325.704591 399.432047 
C 326.852954 398.283684 327.498188 396.725951 327.498188 395.10192 
C 327.498188 393.47789 326.852954 391.920157 325.704591 390.771793 
C 324.556228 389.62343 322.998494 388.978196 321.374464 388.978196 
C 319.750433 388.978196 318.1927 389.62343 317.044337 390.771793 
C 315.895974 391.920157 315.250739 393.47789 315.250739 395.10192 
C 315.250739 396.725951 315.895974 398.283684 317.044337 399.432047 
C 318.1927 400.580411 319.750433 401.225645 321.374464 401.225645 
z
" clip-path="url(#pfb5baec334)" style="fill: #1f77b4; fill-opacity: 0.3; stroke: #1f77b4; stroke-opacity: 0.3"/>
    <path d="M 330.493973 395.886227 
C 331.946551 395.886227 333.33983 395.309112 334.366957 394.281984 
C 335.394084 393.254857 335.971199 391.861578 335.971199 390.409001 
C 335.971199 388.956424 335.394084 387.563145 334.366957 386.536018 
C 333.33983 385.50889 331.946551 384.931775 330.493973 384.931775 
C 329.041396 384.931775 327.648117 385.50889 326.62099 386.536018 
C 325.593863 387.563145 325.016748 388.956424 325.016748 390.409001 
C 325.016748 391.861578 325.593863 393.254857 326.62099 394.281984 
C 327.648117 395.309112 329.041396 395.886227 330.493973 395.886227 
z
" clip-path="url(#pfb5baec334)" style="fill: #1f77b4; fill-opacity: 0.3; stroke: #1f77b4; stroke-opacity: 0.3"/>
    <path d="M 339.613483 391.935525 
C 340.64061 391.935525 341.625807 391.527443 342.352096 390.801154 
C 343.078385 390.074865 343.486466 389.089668 343.486466 388.062541 
C 343.486466 387.035414 343.078385 386.050217 342.352096 385.323928 
C 341.625807 384.59764 340.64061 384.189558 339.613483 384.189558 
C 338.586356 384.189558 337.601159 384.59764 336.87487 385.323928 
C 336.148582 386.050217 335.7405 387.035414 335.7405 388.062541 
C 335.7405 389.089668 336.148582 390.074865 336.87487 390.801154 
C 337.601159 391.527443 338.586356 391.935525 339.613483 391.935525 
z
" clip-path="url(#pfb5baec334)" style="fill: #1f77b4; fill-opacity: 0.3; stroke: #1f77b4; stroke-opacity: 0.3"/>
    <path d="M 348.732993 387.312077 
C 350.608262 387.312077 352.406977 386.567024 353.732993 385.241009 
C 355.059008 383.914993 355.804061 382.116278 355.804061 380.241009 
C 355.804061 378.36574 355.059008 376.567024 353.732993 375.241009 
C 352.406977 373.914993 350.608262 373.169941 348.732993 373.169941 
C 346.857724 373.169941 345.059008 373.914993 343.732993 375.241009 
C 342.406977 376.567024 341.661925 378.36574 341.661925 380.241009 
C 341.661925 382.116278 342.406977 383.914993 343.732993 385.241009 
C 345.059008 386.567024 346.857724 387.312077 348.732993 387.312077 
z
" clip-path="url(#pfb5baec334)" style="fill: #1f77b4; fill-opacity: 0.3; stroke: #1f77b4; stroke-opacity: 0.3"/>
    <path d="M 357.852503 381.767532 
C 358.87963 381.767532 359.864827 381.35945 360.591115 380.633162 
C 361.317404 379.906873 361.725486 378.921676 361.725486 377.894549 
C 361.725486 376.867422 361.317404 375.882225 360.591115 375.155936 
C 359.864827 374.429648 358.87963 374.021566 357.852503 374.021566 
C 356.825375 374.021566 355.840178 374.429648 355.11389 375.155936 
C 354.387601 375.882225 353.979519 376.867422 353.979519 377.894549 
C 353.979519 378.921676 354.387601 379.906873 355.11389 380.633162 
C 355.840178 381.35945 356.825375 381.767532 357.852503 381.767532 
z
" clip-path="url(#pfb5baec334)" style="fill: #1f77b4; fill-opacity: 0.3; stroke: #1f77b4; stroke-opacity: 0.3"/>
    <path d="M 366.972012 378.678855 
C 368.424589 378.678855 369.817868 378.10174 370.844996 377.074613 
C 371.872123 376.047486 372.449238 374.654207 372.449238 373.201629 
C 372.449238 371.749052 371.872123 370.355773 370.844996 369.328646 
C 369.817868 368.301519 368.424589 367.724404 366.972012 367.724404 
C 365.519435 367.724404 364.126156 368.301519 363.099029 369.328646 
C 362.071902 370.355773 361.494787 371.749052 361.494787 373.201629 
C 361.494787 374.654207 362.071902 376.047486 363.099029 377.074613 
C 364.126156 378.10174 365.519435 378.678855 366.972012 378.678855 
z
" clip-path="url(#pfb5baec334)" style="fill: #1f77b4; fill-opacity: 0.3; stroke: #1f77b4; stroke-opacity: 0.3"/>
    <path d="M 376.091522 374.78178 
C 377.029157 374.78178 377.928514 374.409254 378.591522 373.746246 
C 379.25453 373.083239 379.627056 372.183881 379.627056 371.246246 
C 379.627056 370.308612 379.25453 369.409254 378.591522 368.746246 
C 377.928514 368.083239 377.029157 367.710712 376.091522 367.710712 
C 375.153887 367.710712 374.25453 368.083239 373.591522 368.746246 
C 372.928514 369.409254 372.555988 370.308612 372.555988 371.246246 
C 372.555988 372.183881 372.928514 373.083239 373.591522 373.746246 
C 374.25453 374.409254 375.153887 374.78178 376.091522 374.78178 
z
" clip-path="url(#pfb5baec334)" style="fill: #1f77b4; fill-opacity: 0.3; stroke: #1f77b4; stroke-opacity: 0.3"/>
    <path d="M 385.211032 368.174202 
C 387.507758 368.174202 389.710725 367.261703 391.334756 365.637672 
C 392.958787 364.013641 393.871286 361.810674 393.871286 359.513948 
C 393.871286 357.217221 392.958787 355.014254 391.334756 353.390223 
C 389.710725 351.766193 387.507758 350.853694 385.211032 350.853694 
C 382.914305 350.853694 380.711338 351.766193 379.087307 353.390223 
C 377.463277 355.014254 376.550778 357.217221 376.550778 359.513948 
C 376.550778 361.810674 377.463277 364.013641 379.087307 365.637672 
C 380.711338 367.261703 382.914305 368.174202 385.211032 368.174202 
z
" clip-path="url(#pfb5baec334)" style="fill: #1f77b4; fill-opacity: 0.3; stroke: #1f77b4; stroke-opacity: 0.3"/>
    <path d="M 394.330541 359.581277 
C 396.007833 359.581277 397.616653 358.914882 398.802677 357.728858 
C 399.988702 356.542833 400.655097 354.934013 400.655097 353.256722 
C 400.655097 351.57943 399.988702 349.97061 398.802677 348.784586 
C 397.616653 347.598561 396.007833 346.932166 394.330541 346.932166 
C 392.65325 346.932166 391.04443 347.598561 389.858405 348.784586 
C 388.672381 349.97061 388.005986 351.57943 388.005986 353.256722 
C 388.005986 354.934013 388.672381 356.542833 389.858405 357.728858 
C 391.04443 358.914882 392.65325 359.581277 394.330541 359.581277 
z
" clip-path="url(#pfb5baec334)" style="fill: #1f77b4; fill-opacity: 0.3; stroke: #1f77b4; stroke-opacity: 0.3"/>
    <path d="M 403.450051 353.127621 
C 405.178964 353.127621 406.837297 352.440717 408.059823 351.218191 
C 409.282349 349.995665 409.969253 348.337332 409.969253 346.608419 
C 409.969253 344.879506 409.282349 343.221173 408.059823 341.998647 
C 406.837297 340.776121 405.178964 340.089217 403.450051 340.089217 
C 401.721138 340.089217 400.062805 340.776121 398.840279 341.998647 
C 397.617753 343.221173 396.930849 344.879506 396.930849 346.608419 
C 396.930849 348.337332 397.617753 349.995665 398.840279 351.218191 
C 400.062805 352.440717 401.721138 353.127621 403.450051 353.127621 
z
" clip-path="url(#pfb5baec334)" style="fill: #1f77b4; fill-opacity: 0.3; stroke: #1f77b4; stroke-opacity: 0.3"/>
    <path d="M 412.569561 347.392725 
C 414.022138 347.392725 415.415417 346.81561 416.442544 345.788483 
C 417.469671 344.761356 418.046786 343.368077 418.046786 341.9155 
C 418.046786 340.462922 417.469671 339.069643 416.442544 338.042516 
C 415.415417 337.015389 414.022138 336.438274 412.569561 336.438274 
C 411.116984 336.438274 409.723705 337.015389 408.696577 338.042516 
C 407.66945 339.069643 407.092335 340.462922 407.092335 341.9155 
C 407.092335 343.368077 407.66945 344.761356 408.696577 345.788483 
C 409.723705 346.81561 411.116984 347.392725 412.569561 347.392725 
z
" clip-path="url(#pfb5baec334)" style="fill: #1f77b4; fill-opacity: 0.3; stroke: #1f77b4; stroke-opacity: 0.3"/>
    <path d="M 421.68907 342.699806 
C 423.141648 342.699806 424.534927 342.122691 425.562054 341.095563 
C 426.589181 340.068436 427.166296 338.675157 427.166296 337.22258 
C 427.166296 335.770003 426.589181 334.376724 425.562054 333.349597 
C 424.534927 332.322469 423.141648 331.745354 421.68907 331.745354 
C 420.236493 331.745354 418.843214 332.322469 417.816087 333.349597 
C 416.78896 334.376724 416.211845 335.770003 416.211845 337.22258 
C 416.211845 338.675157 416.78896 340.068436 417.816087 341.095563 
C 418.843214 342.122691 420.236493 342.699806 421.68907 342.699806 
z
" clip-path="url(#pfb5baec334)" style="fill: #1f77b4; fill-opacity: 0.3; stroke: #1f77b4; stroke-opacity: 0.3"/>
    <path d="M 430.80858 338.802731 
C 431.746215 338.802731 432.645572 338.430205 433.30858 337.767197 
C 433.971588 337.104189 434.344114 336.204831 434.344114 335.267197 
C 434.344114 334.329562 433.971588 333.430205 433.30858 332.767197 
C 432.645572 332.104189 431.746215 331.731663 430.80858 331.731663 
C 429.870946 331.731663 428.971588 332.104189 428.30858 332.767197 
C 427.645572 333.430205 427.273046 334.329562 427.273046 335.267197 
C 427.273046 336.204831 427.645572 337.104189 428.30858 337.767197 
C 428.971588 338.430205 429.870946 338.802731 430.80858 338.802731 
z
" clip-path="url(#pfb5baec334)" style="fill: #1f77b4; fill-opacity: 0.3; stroke: #1f77b4; stroke-opacity: 0.3"/>
    <path d="M 439.92809 336.712961 
C 441.037514 336.712961 442.101648 336.272182 442.88613 335.4877 
C 443.670611 334.703219 444.11139 333.639085 444.11139 332.529661 
C 444.11139 331.420236 443.670611 330.356102 442.88613 329.571621 
C 442.101648 328.787139 441.037514 328.34636 439.92809 328.34636 
C 438.818666 328.34636 437.754531 328.787139 436.97005 329.571621 
C 436.185569 330.356102 435.74479 331.420236 435.74479 332.529661 
C 435.74479 333.639085 436.185569 334.703219 436.97005 335.4877 
C 437.754531 336.272182 438.818666 336.712961 439.92809 336.712961 
z
" clip-path="url(#pfb5baec334)" style="fill: #1f77b4; fill-opacity: 0.3; stroke: #1f77b4; stroke-opacity: 0.3"/>
    <path d="M 449.0476 334.109811 
C 449.985234 334.109811 450.884592 333.737285 451.5476 333.074277 
C 452.210607 332.41127 452.583133 331.511912 452.583133 330.574277 
C 452.583133 329.636643 452.210607 328.737285 451.5476 328.074277 
C 450.884592 327.41127 449.985234 327.038743 449.0476 327.038743 
C 448.109965 327.038743 447.210607 327.41127 446.5476 328.074277 
C 445.884592 328.737285 445.512066 329.636643 445.512066 330.574277 
C 445.512066 331.511912 445.884592 332.41127 446.5476 333.074277 
C 447.210607 333.737285 448.109965 334.109811 449.0476 334.109811 
z
" clip-path="url(#pfb5baec334)" style="fill: #1f77b4; fill-opacity: 0.3; stroke: #1f77b4; stroke-opacity: 0.3"/>
    <path d="M 458.167109 332.100801 
C 459.194236 332.100801 460.179433 331.692719 460.905722 330.96643 
C 461.632011 330.240142 462.040093 329.254945 462.040093 328.227818 
C 462.040093 327.20069 461.632011 326.215493 460.905722 325.489205 
C 460.179433 324.762916 459.194236 324.354834 458.167109 324.354834 
C 457.139982 324.354834 456.154785 324.762916 455.428497 325.489205 
C 454.702208 326.215493 454.294126 327.20069 454.294126 328.227818 
C 454.294126 329.254945 454.702208 330.240142 455.428497 330.96643 
C 456.154785 331.692719 457.139982 332.100801 458.167109 332.100801 
z
" clip-path="url(#pfb5baec334)" style="fill: #1f77b4; fill-opacity: 0.3; stroke: #1f77b4; stroke-opacity: 0.3"/>
    <path d="M 467.286619 329.825789 
C 468.125265 329.825789 468.929675 329.492591 469.522687 328.899579 
C 470.115699 328.306567 470.448897 327.502157 470.448897 326.663511 
C 470.448897 325.824865 470.115699 325.020455 469.522687 324.427443 
C 468.929675 323.834431 468.125265 323.501233 467.286619 323.501233 
C 466.447973 323.501233 465.643563 323.834431 465.050551 324.427443 
C 464.457539 325.020455 464.124341 325.824865 464.124341 326.663511 
C 464.124341 327.502157 464.457539 328.306567 465.050551 328.899579 
C 465.643563 329.492591 466.447973 329.825789 467.286619 329.825789 
z
" clip-path="url(#pfb5baec334)" style="fill: #1f77b4; fill-opacity: 0.3; stroke: #1f77b4; stroke-opacity: 0.3"/>
    <path d="M 476.406129 328.109275 
C 477.515553 328.109275 478.579687 327.668496 479.364169 326.884015 
C 480.14865 326.099533 480.589429 325.035399 480.589429 323.925975 
C 480.589429 322.816551 480.14865 321.752416 479.364169 320.967935 
C 478.579687 320.183454 477.515553 319.742675 476.406129 319.742675 
C 475.296705 319.742675 474.23257 320.183454 473.448089 320.967935 
C 472.663607 321.752416 472.222829 322.816551 472.222829 323.925975 
C 472.222829 325.035399 472.663607 326.099533 473.448089 326.884015 
C 474.23257 327.668496 475.296705 328.109275 476.406129 328.109275 
z
" clip-path="url(#pfb5baec334)" style="fill: #1f77b4; fill-opacity: 0.3; stroke: #1f77b4; stroke-opacity: 0.3"/>
    <path d="M 485.525638 318.811857 
C 488.110518 318.811857 490.589877 317.784874 492.417663 315.957087 
C 494.245449 314.129301 495.272433 311.649943 495.272433 309.065063 
C 495.272433 306.480183 494.245449 304.000825 492.417663 302.173039 
C 490.589877 300.345252 488.110518 299.318269 485.525638 299.318269 
C 482.940758 299.318269 480.4614 300.345252 478.633614 302.173039 
C 476.805828 304.000825 475.778844 306.480183 475.778844 309.065063 
C 475.778844 311.649943 476.805828 314.129301 478.633614 315.957087 
C 480.4614 317.784874 482.940758 318.811857 485.525638 318.811857 
z
" clip-path="url(#pfb5baec334)" style="fill: #1f77b4; fill-opacity: 0.3; stroke: #1f77b4; stroke-opacity: 0.3"/>
    <path d="M 494.645148 310.518978 
C 495.23816 310.518978 495.806964 310.283372 496.226287 309.864049 
C 496.64561 309.444726 496.881216 308.875922 496.881216 308.28291 
C 496.881216 307.689898 496.64561 307.121094 496.226287 306.701771 
C 495.806964 306.282448 495.23816 306.046842 494.645148 306.046842 
C 494.052136 306.046842 493.483332 306.282448 493.064009 306.701771 
C 492.644686 307.121094 492.40908 307.689898 492.40908 308.28291 
C 492.40908 308.875922 492.644686 309.444726 493.064009 309.864049 
C 493.483332 310.283372 494.052136 310.518978 494.645148 310.518978 
z
" clip-path="url(#pfb5baec334)" style="fill: #1f77b4; fill-opacity: 0.3; stroke: #1f77b4; stroke-opacity: 0.3"/>
    <path d="M 503.764658 309.863061 
C 504.702292 309.863061 505.60165 309.490534 506.264658 308.827527 
C 506.927666 308.164519 507.300192 307.265161 507.300192 306.327527 
C 507.300192 305.389892 506.927666 304.490534 506.264658 303.827527 
C 505.60165 303.164519 504.702292 302.791993 503.764658 302.791993 
C 502.827023 302.791993 501.927666 303.164519 501.264658 303.827527 
C 500.60165 304.490534 500.229124 305.389892 500.229124 306.327527 
C 500.229124 307.265161 500.60165 308.164519 501.264658 308.827527 
C 501.927666 309.490534 502.827023 309.863061 503.764658 309.863061 
z
" clip-path="url(#pfb5baec334)" style="fill: #1f77b4; fill-opacity: 0.3; stroke: #1f77b4; stroke-opacity: 0.3"/>
    <path d="M 512.884168 307.907677 
C 513.821802 307.907677 514.72116 307.535151 515.384168 306.872144 
C 516.047175 306.209136 516.419701 305.309778 516.419701 304.372144 
C 516.419701 303.434509 516.047175 302.535151 515.384168 301.872144 
C 514.72116 301.209136 513.821802 300.83661 512.884168 300.83661 
C 511.946533 300.83661 511.047175 301.209136 510.384168 301.872144 
C 509.72116 302.535151 509.348634 303.434509 509.348634 304.372144 
C 509.348634 305.309778 509.72116 306.209136 510.384168 306.872144 
C 511.047175 307.535151 511.946533 307.907677 512.884168 307.907677 
z
" clip-path="url(#pfb5baec334)" style="fill: #1f77b4; fill-opacity: 0.3; stroke: #1f77b4; stroke-opacity: 0.3"/>
    <path d="M 522.003677 305.817907 
C 523.113101 305.817907 524.177236 305.377128 524.961717 304.592647 
C 525.746198 303.808166 526.186977 302.744031 526.186977 301.634607 
C 526.186977 300.525183 525.746198 299.461049 524.961717 298.676567 
C 524.177236 297.892086 523.113101 297.451307 522.003677 297.451307 
C 520.894253 297.451307 519.830119 297.892086 519.045637 298.676567 
C 518.261156 299.461049 517.820377 300.525183 517.820377 301.634607 
C 517.820377 302.744031 518.261156 303.808166 519.045637 304.592647 
C 519.830119 305.377128 520.894253 305.817907 522.003677 305.817907 
z
" clip-path="url(#pfb5baec334)" style="fill: #1f77b4; fill-opacity: 0.3; stroke: #1f77b4; stroke-opacity: 0.3"/>
    <path d="M 531.123187 302.576809 
C 532.513924 302.576809 533.847887 302.024263 534.831286 301.040864 
C 535.814686 300.057464 536.367231 298.723501 536.367231 297.332764 
C 536.367231 295.942028 535.814686 294.608064 534.831286 293.624665 
C 533.847887 292.641266 532.513924 292.08872 531.123187 292.08872 
C 529.73245 292.08872 528.398487 292.641266 527.415088 293.624665 
C 526.431688 294.608064 525.879143 295.942028 525.879143 297.332764 
C 525.879143 298.723501 526.431688 300.057464 527.415088 301.040864 
C 528.398487 302.024263 529.73245 302.576809 531.123187 302.576809 
z
" clip-path="url(#pfb5baec334)" style="fill: #1f77b4; fill-opacity: 0.3; stroke: #1f77b4; stroke-opacity: 0.3"/>
    <path d="M 540.242697 298.859288 
C 541.269824 298.859288 542.255021 298.451206 542.981309 297.724917 
C 543.707598 296.998629 544.11568 296.013432 544.11568 294.986305 
C 544.11568 293.959177 543.707598 292.97398 542.981309 292.247692 
C 542.255021 291.521403 541.269824 291.113321 540.242697 291.113321 
C 539.215569 291.113321 538.230372 291.521403 537.504084 292.247692 
C 536.777795 292.97398 536.369713 293.959177 536.369713 294.986305 
C 536.369713 296.013432 536.777795 296.998629 537.504084 297.724917 
C 538.230372 298.451206 539.215569 298.859288 540.242697 298.859288 
z
" clip-path="url(#pfb5baec334)" style="fill: #1f77b4; fill-opacity: 0.3; stroke: #1f77b4; stroke-opacity: 0.3"/>
    <path d="M 549.362206 296.075538 
C 550.688222 296.075538 551.960106 295.548707 552.89774 294.611072 
C 553.835375 293.673438 554.362206 292.401554 554.362206 291.075538 
C 554.362206 289.749523 553.835375 288.477639 552.89774 287.540004 
C 551.960106 286.60237 550.688222 286.075538 549.362206 286.075538 
C 548.036191 286.075538 546.764307 286.60237 545.826672 287.540004 
C 544.889038 288.477639 544.362206 289.749523 544.362206 291.075538 
C 544.362206 292.401554 544.889038 293.673438 545.826672 294.611072 
C 546.764307 295.548707 548.036191 296.075538 549.362206 296.075538 
z
" clip-path="url(#pfb5baec334)" style="fill: #1f77b4; fill-opacity: 0.3; stroke: #1f77b4; stroke-opacity: 0.3"/>
    <path d="M 558.481716 289.204317 
C 560.578331 289.204317 562.589356 288.371323 564.071886 286.888793 
C 565.554416 285.406262 566.38741 283.395237 566.38741 281.298623 
C 566.38741 279.202008 565.554416 277.190983 564.071886 275.708453 
C 562.589356 274.225922 560.578331 273.392929 558.481716 273.392929 
C 556.385101 273.392929 554.374076 274.225922 552.891546 275.708453 
C 551.409016 277.190983 550.576022 279.202008 550.576022 281.298623 
C 550.576022 283.395237 551.409016 285.406262 552.891546 286.888793 
C 554.374076 288.371323 556.385101 289.204317 558.481716 289.204317 
z
" clip-path="url(#pfb5baec334)" style="fill: #1f77b4; fill-opacity: 0.3; stroke: #1f77b4; stroke-opacity: 0.3"/>
    <path d="M 567.601226 282.488685 
C 568.020549 282.488685 568.422754 282.322086 568.71926 282.02558 
C 569.015766 281.729074 569.182365 281.326869 569.182365 280.907546 
C 569.182365 280.488223 569.015766 280.086018 568.71926 279.789512 
C 568.422754 279.493006 568.020549 279.326407 567.601226 279.326407 
C 567.181903 279.326407 566.779698 279.493006 566.483192 279.789512 
C 566.186686 280.086018 566.020087 280.488223 566.020087 280.907546 
C 566.020087 281.326869 566.186686 281.729074 566.483192 282.02558 
C 566.779698 282.322086 567.181903 282.488685 567.601226 282.488685 
z
" clip-path="url(#pfb5baec334)" style="fill: #1f77b4; fill-opacity: 0.3; stroke: #1f77b4; stroke-opacity: 0.3"/>
    <path d="M 576.720735 282.43407 
C 577.747863 282.43407 578.73306 282.025988 579.459348 281.299699 
C 580.185637 280.573411 580.593719 279.588214 580.593719 278.561086 
C 580.593719 277.533959 580.185637 276.548762 579.459348 275.822474 
C 578.73306 275.096185 577.747863 274.688103 576.720735 274.688103 
C 575.693608 274.688103 574.708411 275.096185 573.982123 275.822474 
C 573.255834 276.548762 572.847752 277.533959 572.847752 278.561086 
C 572.847752 279.588214 573.255834 280.573411 573.982123 281.299699 
C 574.708411 282.025988 575.693608 282.43407 576.720735 282.43407 
z
" clip-path="url(#pfb5baec334)" style="fill: #1f77b4; fill-opacity: 0.3; stroke: #1f77b4; stroke-opacity: 0.3"/>
    <path d="M 585.840245 279.784813 
C 587.098214 279.784813 588.304829 279.285017 589.194347 278.395499 
C 590.083865 277.50598 590.583662 276.299365 590.583662 275.041397 
C 590.583662 273.783428 590.083865 272.576813 589.194347 271.687295 
C 588.304829 270.797776 587.098214 270.29798 585.840245 270.29798 
C 584.582276 270.29798 583.375661 270.797776 582.486143 271.687295 
C 581.596625 272.576813 581.096829 273.783428 581.096829 275.041397 
C 581.096829 276.299365 581.596625 277.50598 582.486143 278.395499 
C 583.375661 279.285017 584.582276 279.784813 585.840245 279.784813 
z
" clip-path="url(#pfb5baec334)" style="fill: #1f77b4; fill-opacity: 0.3; stroke: #1f77b4; stroke-opacity: 0.3"/>
    <path d="M 594.959755 276.621547 
C 595.897389 276.621547 596.796747 276.249021 597.459755 275.586014 
C 598.122763 274.923006 598.495289 274.023648 598.495289 273.086014 
C 598.495289 272.148379 598.122763 271.249021 597.459755 270.586014 
C 596.796747 269.923006 595.897389 269.55048 594.959755 269.55048 
C 594.02212 269.55048 593.122763 269.923006 592.459755 270.586014 
C 591.796747 271.249021 591.424221 272.148379 591.424221 273.086014 
C 591.424221 274.023648 591.796747 274.923006 592.459755 275.586014 
C 593.122763 276.249021 594.02212 276.621547 594.959755 276.621547 
z
" clip-path="url(#pfb5baec334)" style="fill: #1f77b4; fill-opacity: 0.3; stroke: #1f77b4; stroke-opacity: 0.3"/>
    <path d="M 604.079265 274.276076 
C 604.498587 274.276076 604.900792 274.109477 605.197299 273.812971 
C 605.493805 273.516465 605.660403 273.11426 605.660403 272.694937 
C 605.660403 272.275614 605.493805 271.873409 605.197299 271.576903 
C 604.900792 271.280397 604.498587 271.113798 604.079265 271.113798 
C 603.659942 271.113798 603.257737 271.280397 602.961231 271.576903 
C 602.664724 271.873409 602.498126 272.275614 602.498126 272.694937 
C 602.498126 273.11426 602.664724 273.516465 602.961231 273.812971 
C 603.257737 274.109477 603.659942 274.276076 604.079265 274.276076 
z
" clip-path="url(#pfb5baec334)" style="fill: #1f77b4; fill-opacity: 0.3; stroke: #1f77b4; stroke-opacity: 0.3"/>
    <path d="M 613.198774 274.275088 
C 614.136409 274.275088 615.035767 273.902562 615.698774 273.239554 
C 616.361782 272.576546 616.734308 271.677188 616.734308 270.739554 
C 616.734308 269.801919 616.361782 268.902562 615.698774 268.239554 
C 615.035767 267.576546 614.136409 267.20402 613.198774 267.20402 
C 612.26114 267.20402 611.361782 267.576546 610.698774 268.239554 
C 610.035767 268.902562 609.66324 269.801919 609.66324 270.739554 
C 609.66324 271.677188 610.035767 272.576546 610.698774 273.239554 
C 611.361782 273.902562 612.26114 274.275088 613.198774 274.275088 
z
" clip-path="url(#pfb5baec334)" style="fill: #1f77b4; fill-opacity: 0.3; stroke: #1f77b4; stroke-opacity: 0.3"/>
    <path d="M 622.318284 271.52386 
C 623.770861 271.52386 625.16414 270.946745 626.191267 269.919618 
C 627.218394 268.89249 627.79551 267.499212 627.79551 266.046634 
C 627.79551 264.594057 627.218394 263.200778 626.191267 262.173651 
C 625.16414 261.146524 623.770861 260.569409 622.318284 260.569409 
C 620.865707 260.569409 619.472428 261.146524 618.445301 262.173651 
C 617.418173 263.200778 616.841058 264.594057 616.841058 266.046634 
C 616.841058 267.499212 617.418173 268.89249 618.445301 269.919618 
C 619.472428 270.946745 620.865707 271.52386 622.318284 271.52386 
z
" clip-path="url(#pfb5baec334)" style="fill: #1f77b4; fill-opacity: 0.3; stroke: #1f77b4; stroke-opacity: 0.3"/>
    <path d="M 631.437794 267.612017 
C 632.164082 267.612017 632.860722 267.32346 633.374285 266.809896 
C 633.887849 266.296333 634.176406 265.599693 634.176406 264.873404 
C 634.176406 264.147116 633.887849 263.450476 633.374285 262.936913 
C 632.860722 262.423349 632.164082 262.134792 631.437794 262.134792 
C 630.711505 262.134792 630.014866 262.423349 629.501302 262.936913 
C 628.987738 263.450476 628.699181 264.147116 628.699181 264.873404 
C 628.699181 265.599693 628.987738 266.296333 629.501302 266.809896 
C 630.014866 267.32346 630.711505 267.612017 631.437794 267.612017 
z
" clip-path="url(#pfb5baec334)" style="fill: #1f77b4; fill-opacity: 0.3; stroke: #1f77b4; stroke-opacity: 0.3"/>
    <path d="M 640.557303 266.319168 
C 641.666728 266.319168 642.730862 265.878389 643.515343 265.093908 
C 644.299825 264.309427 644.740604 263.245292 644.740604 262.135868 
C 644.740604 261.026444 644.299825 259.96231 643.515343 259.177828 
C 642.730862 258.393347 641.666728 257.952568 640.557303 257.952568 
C 639.447879 257.952568 638.383745 258.393347 637.599263 259.177828 
C 636.814782 259.96231 636.374003 261.026444 636.374003 262.135868 
C 636.374003 263.245292 636.814782 264.309427 637.599263 265.093908 
C 638.383745 265.878389 639.447879 266.319168 640.557303 266.319168 
z
" clip-path="url(#pfb5baec334)" style="fill: #1f77b4; fill-opacity: 0.3; stroke: #1f77b4; stroke-opacity: 0.3"/>
    <path d="M 649.676813 262.752749 
C 651.188703 262.752749 652.638874 262.152069 653.707942 261.083001 
C 654.77701 260.013933 655.37769 258.563762 655.37769 257.051872 
C 655.37769 255.539982 654.77701 254.089811 653.707942 253.020743 
C 652.638874 251.951675 651.188703 251.350995 649.676813 251.350995 
C 648.164923 251.350995 646.714752 251.951675 645.645684 253.020743 
C 644.576616 254.089811 643.975936 255.539982 643.975936 257.051872 
C 643.975936 258.563762 644.576616 260.013933 645.645684 261.083001 
C 646.714752 262.152069 648.164923 262.752749 649.676813 262.752749 
z
" clip-path="url(#pfb5baec334)" style="fill: #1f77b4; fill-opacity: 0.3; stroke: #1f77b4; stroke-opacity: 0.3"/>
    <path d="M 658.796323 256.084951 
C 660.717902 256.084951 662.561037 255.3215 663.919798 253.962738 
C 665.27856 252.603977 666.042011 250.760842 666.042011 248.839263 
C 666.042011 246.917684 665.27856 245.074549 663.919798 243.715787 
C 662.561037 242.357026 660.717902 241.593574 658.796323 241.593574 
C 656.874744 241.593574 655.031609 242.357026 653.672847 243.715787 
C 652.314086 245.074549 651.550634 246.917684 651.550634 248.839263 
C 651.550634 250.760842 652.314086 252.603977 653.672847 253.962738 
C 655.031609 255.3215 656.874744 256.084951 658.796323 256.084951 
z
" clip-path="url(#pfb5baec334)" style="fill: #1f77b4; fill-opacity: 0.3; stroke: #1f77b4; stroke-opacity: 0.3"/>
    <path d="M 667.915832 246.496032 
C 670.094698 246.496032 672.184617 245.63036 673.725308 244.089669 
C 675.265998 242.548978 676.131671 240.45906 676.131671 238.280194 
C 676.131671 236.101328 675.265998 234.01141 673.725308 232.470719 
C 672.184617 230.930028 670.094698 230.064356 667.915832 230.064356 
C 665.736967 230.064356 663.647048 230.930028 662.106357 232.470719 
C 660.565667 234.01141 659.699994 236.101328 659.699994 238.280194 
C 659.699994 240.45906 660.565667 242.548978 662.106357 244.089669 
C 663.647048 245.63036 665.736967 246.496032 667.915832 246.496032 
z
" clip-path="url(#pfb5baec334)" style="fill: #1f77b4; fill-opacity: 0.3; stroke: #1f77b4; stroke-opacity: 0.3"/>
    <path d="M 677.035342 237.313273 
C 678.956921 237.313273 680.800056 236.549822 682.158818 235.19106 
C 683.517579 233.832299 684.281031 231.989164 684.281031 230.067585 
C 684.281031 228.146006 683.517579 226.302871 682.158818 224.944109 
C 680.800056 223.585348 678.956921 222.821896 677.035342 222.821896 
C 675.113763 222.821896 673.270628 223.585348 671.911867 224.944109 
C 670.553105 226.302871 669.789654 228.146006 669.789654 230.067585 
C 669.789654 231.989164 670.553105 233.832299 671.911867 235.19106 
C 673.270628 236.549822 675.113763 237.313273 677.035342 237.313273 
z
" clip-path="url(#pfb5baec334)" style="fill: #1f77b4; fill-opacity: 0.3; stroke: #1f77b4; stroke-opacity: 0.3"/>
    <path d="M 686.154852 227.48404 
C 688.3737 227.48404 690.501969 226.602482 692.070932 225.033519 
C 693.639894 223.464556 694.521452 221.336288 694.521452 219.117439 
C 694.521452 216.898591 693.639894 214.770322 692.070932 213.20136 
C 690.501969 211.632397 688.3737 210.750839 686.154852 210.750839 
C 683.936004 210.750839 681.807735 211.632397 680.238772 213.20136 
C 678.669809 214.770322 677.788252 216.898591 677.788252 219.117439 
C 677.788252 221.336288 678.669809 223.464556 680.238772 225.033519 
C 681.807735 226.602482 683.936004 227.48404 686.154852 227.48404 
z
" clip-path="url(#pfb5baec334)" style="fill: #1f77b4; fill-opacity: 0.3; stroke: #1f77b4; stroke-opacity: 0.3"/>
    <path d="M 695.274362 211.57658 
C 698.149095 211.57658 700.906473 210.434436 702.939216 208.401693 
C 704.97196 206.36895 706.114103 203.611571 706.114103 200.736838 
C 706.114103 197.862105 704.97196 195.104726 702.939216 193.071983 
C 700.906473 191.03924 698.149095 189.897096 695.274362 189.897096 
C 692.399628 189.897096 689.64225 191.03924 687.609507 193.071983 
C 685.576763 195.104726 684.43462 197.862105 684.43462 200.736838 
C 684.43462 203.611571 685.576763 206.36895 687.609507 208.401693 
C 689.64225 210.434436 692.399628 211.57658 695.274362 211.57658 
z
" clip-path="url(#pfb5baec334)" style="fill: #1f77b4; fill-opacity: 0.3; stroke: #1f77b4; stroke-opacity: 0.3"/>
    <path d="M 704.393871 200.994413 
C 706.017902 200.994413 707.575635 200.349179 708.723998 199.200816 
C 709.872361 198.052453 710.517596 196.494719 710.517596 194.870689 
C 710.517596 193.246658 709.872361 191.688925 708.723998 190.540562 
C 707.575635 189.392199 706.017902 188.746964 704.393871 188.746964 
C 702.769841 188.746964 701.212107 189.392199 700.063744 190.540562 
C 698.915381 191.688925 698.270147 193.246658 698.270147 194.870689 
C 698.270147 196.494719 698.915381 198.052453 700.063744 199.200816 
C 701.212107 200.349179 702.769841 200.994413 704.393871 200.994413 
z
" clip-path="url(#pfb5baec334)" style="fill: #1f77b4; fill-opacity: 0.3; stroke: #1f77b4; stroke-opacity: 0.3"/>
    <path d="M 713.513381 196.316452 
C 714.622805 196.316452 715.68694 195.875674 716.471421 195.091192 
C 717.255902 194.306711 717.696681 193.242576 717.696681 192.133152 
C 717.696681 191.023728 717.255902 189.959594 716.471421 189.175112 
C 715.68694 188.390631 714.622805 187.949852 713.513381 187.949852 
C 712.403957 187.949852 711.339822 188.390631 710.555341 189.175112 
C 709.77086 189.959594 709.330081 191.023728 709.330081 192.133152 
C 709.330081 193.242576 709.77086 194.306711 710.555341 195.091192 
C 711.339822 195.875674 712.403957 196.316452 713.513381 196.316452 
z
" clip-path="url(#pfb5baec334)" style="fill: #1f77b4; fill-opacity: 0.3; stroke: #1f77b4; stroke-opacity: 0.3"/>
    <path d="M 722.632891 193.713303 
C 723.570525 193.713303 724.469883 193.340777 725.132891 192.677769 
C 725.795898 192.014761 726.168425 191.115404 726.168425 190.177769 
C 726.168425 189.240135 725.795898 188.340777 725.132891 187.677769 
C 724.469883 187.014761 723.570525 186.642235 722.632891 186.642235 
C 721.695256 186.642235 720.795898 187.014761 720.132891 187.677769 
C 719.469883 188.340777 719.097357 189.240135 719.097357 190.177769 
C 719.097357 191.115404 719.469883 192.014761 720.132891 192.677769 
C 720.795898 193.340777 721.695256 193.713303 722.632891 193.713303 
z
" clip-path="url(#pfb5baec334)" style="fill: #1f77b4; fill-opacity: 0.3; stroke: #1f77b4; stroke-opacity: 0.3"/>
    <path d="M 731.7524 191.267003 
C 733.078416 191.267003 734.3503 190.740171 735.287934 189.802537 
C 736.225569 188.864902 736.7524 187.593018 736.7524 186.267003 
C 736.7524 184.940987 736.225569 183.669104 735.287934 182.731469 
C 734.3503 181.793834 733.078416 181.267003 731.7524 181.267003 
C 730.426385 181.267003 729.154501 181.793834 728.216867 182.731469 
C 727.279232 183.669104 726.7524 184.940987 726.7524 186.267003 
C 726.7524 187.593018 727.279232 188.864902 728.216867 189.802537 
C 729.154501 190.740171 730.426385 191.267003 731.7524 191.267003 
z
" clip-path="url(#pfb5baec334)" style="fill: #1f77b4; fill-opacity: 0.3; stroke: #1f77b4; stroke-opacity: 0.3"/>
    <path d="M 749.99142 187.49073 
C 751.249389 187.49073 752.456004 186.990933 753.345522 186.101415 
C 754.23504 185.211897 754.734836 184.005282 754.734836 182.747313 
C 754.734836 181.489345 754.23504 180.28273 753.345522 179.393211 
C 752.456004 178.503693 751.249389 178.003897 749.99142 178.003897 
C 748.733451 178.003897 747.526836 178.503693 746.637318 179.393211 
C 745.7478 180.28273 745.248003 181.489345 745.248003 182.747313 
C 745.248003 184.005282 745.7478 185.211897 746.637318 186.101415 
C 747.526836 186.990933 748.733451 187.49073 749.99142 187.49073 
z
" clip-path="url(#pfb5baec334)" style="fill: #1f77b4; fill-opacity: 0.3; stroke: #1f77b4; stroke-opacity: 0.3"/>
    <path d="M 759.11093 184.201228 
C 759.703942 184.201228 760.272745 183.965622 760.692068 183.546299 
C 761.111391 183.126976 761.346997 182.558172 761.346997 181.96516 
C 761.346997 181.372148 761.111391 180.803344 760.692068 180.384021 
C 760.272745 179.964698 759.703942 179.729092 759.11093 179.729092 
C 758.517917 179.729092 757.949114 179.964698 757.529791 180.384021 
C 757.110468 180.803344 756.874862 181.372148 756.874862 181.96516 
C 756.874862 182.558172 757.110468 183.126976 757.529791 183.546299 
C 757.949114 183.965622 758.517917 184.201228 759.11093 184.201228 
z
" clip-path="url(#pfb5baec334)" style="fill: #1f77b4; fill-opacity: 0.3; stroke: #1f77b4; stroke-opacity: 0.3"/>
    <path d="M 768.230439 182.749466 
C 769.683016 182.749466 771.076295 182.172351 772.103423 181.145224 
C 773.13055 180.118097 773.707665 178.724818 773.707665 177.272241 
C 773.707665 175.819663 773.13055 174.426384 772.103423 173.399257 
C 771.076295 172.37213 769.683016 171.795015 768.230439 171.795015 
C 766.777862 171.795015 765.384583 172.37213 764.357456 173.399257 
C 763.330329 174.426384 762.753214 175.819663 762.753214 177.272241 
C 762.753214 178.724818 763.330329 180.118097 764.357456 181.145224 
C 765.384583 182.172351 766.777862 182.749466 768.230439 182.749466 
z
" clip-path="url(#pfb5baec334)" style="fill: #1f77b4; fill-opacity: 0.3; stroke: #1f77b4; stroke-opacity: 0.3"/>
    <path d="M 777.349949 174.92901 
C 779.528815 174.92901 781.618733 174.063337 783.159424 172.522647 
C 784.700115 170.981956 785.565787 168.892037 785.565787 166.713172 
C 785.565787 164.534306 784.700115 162.444387 783.159424 160.903697 
C 781.618733 159.363006 779.528815 158.497333 777.349949 158.497333 
C 775.171083 158.497333 773.081165 159.363006 771.540474 160.903697 
C 769.999783 162.444387 769.134111 164.534306 769.134111 166.713172 
C 769.134111 168.892037 769.999783 170.981956 771.540474 172.522647 
C 773.081165 174.063337 775.171083 174.92901 777.349949 174.92901 
z
" clip-path="url(#pfb5baec334)" style="fill: #1f77b4; fill-opacity: 0.3; stroke: #1f77b4; stroke-opacity: 0.3"/>
    <path d="M 786.469459 166.780501 
C 788.14675 166.780501 789.75557 166.114106 790.941595 164.928082 
C 792.127619 163.742057 792.794014 162.133237 792.794014 160.455946 
C 792.794014 158.778654 792.127619 157.169834 790.941595 155.98381 
C 789.75557 154.797785 788.14675 154.13139 786.469459 154.13139 
C 784.792167 154.13139 783.183347 154.797785 781.997323 155.98381 
C 780.811298 157.169834 780.144903 158.778654 780.144903 160.455946 
C 780.144903 162.133237 780.811298 163.742057 781.997323 164.928082 
C 783.183347 166.114106 784.792167 166.780501 786.469459 166.780501 
z
" clip-path="url(#pfb5baec334)" style="fill: #1f77b4; fill-opacity: 0.3; stroke: #1f77b4; stroke-opacity: 0.3"/>
    <path d="M 795.588968 162.021329 
C 796.315257 162.021329 797.011896 161.732771 797.52546 161.219207 
C 798.039024 160.705644 798.327581 160.009004 798.327581 159.282716 
C 798.327581 158.556427 798.039024 157.859788 797.52546 157.346224 
C 797.011896 156.832661 796.315257 156.544103 795.588968 156.544103 
C 794.86268 156.544103 794.16604 156.832661 793.652477 157.346224 
C 793.138913 157.859788 792.850356 158.556427 792.850356 159.282716 
C 792.850356 160.009004 793.138913 160.705644 793.652477 161.219207 
C 794.16604 161.732771 794.86268 162.021329 795.588968 162.021329 
z
" clip-path="url(#pfb5baec334)" style="fill: #1f77b4; fill-opacity: 0.3; stroke: #1f77b4; stroke-opacity: 0.3"/>
    <path d="M 804.708478 160.472778 
C 805.127801 160.472778 805.530006 160.306179 805.826512 160.009673 
C 806.123018 159.713167 806.289617 159.310962 806.289617 158.891639 
C 806.289617 158.472316 806.123018 158.070111 805.826512 157.773605 
C 805.530006 157.477099 805.127801 157.3105 804.708478 157.3105 
C 804.289155 157.3105 803.88695 157.477099 803.590444 157.773605 
C 803.293938 158.070111 803.127339 158.472316 803.127339 158.891639 
C 803.127339 159.310962 803.293938 159.713167 803.590444 160.009673 
C 803.88695 160.306179 804.289155 160.472778 804.708478 160.472778 
z
" clip-path="url(#pfb5baec334)" style="fill: #1f77b4; fill-opacity: 0.3; stroke: #1f77b4; stroke-opacity: 0.3"/>
    <path d="M 813.827988 160.48961 
C 814.666634 160.48961 815.471044 160.156413 816.064056 159.563401 
C 816.657068 158.970389 816.990265 158.165979 816.990265 157.327333 
C 816.990265 156.488687 816.657068 155.684277 816.064056 155.091265 
C 815.471044 154.498253 814.666634 154.165055 813.827988 154.165055 
C 812.989342 154.165055 812.184932 154.498253 811.59192 155.091265 
C 810.998908 155.684277 810.66571 156.488687 810.66571 157.327333 
C 810.66571 158.165979 810.998908 158.970389 811.59192 159.563401 
C 812.184932 160.156413 812.989342 160.48961 813.827988 160.48961 
z
" clip-path="url(#pfb5baec334)" style="fill: #1f77b4; fill-opacity: 0.3; stroke: #1f77b4; stroke-opacity: 0.3"/>
    <path d="M 822.947497 158.853856 
C 823.974625 158.853856 824.959822 158.445774 825.68611 157.719486 
C 826.412399 156.993197 826.820481 156.008 826.820481 154.980873 
C 826.820481 153.953746 826.412399 152.968549 825.68611 152.24226 
C 824.959822 151.515972 823.974625 151.10789 822.947497 151.10789 
C 821.92037 151.10789 820.935173 151.515972 820.208885 152.24226 
C 819.482596 152.968549 819.074514 153.953746 819.074514 154.980873 
C 819.074514 156.008 819.482596 156.993197 820.208885 157.719486 
C 820.935173 158.445774 821.92037 158.853856 822.947497 158.853856 
z
" clip-path="url(#pfb5baec334)" style="fill: #1f77b4; fill-opacity: 0.3; stroke: #1f77b4; stroke-opacity: 0.3"/>
    <path d="M 832.067007 156.561024 
C 833.004642 156.561024 833.903999 156.188498 834.567007 155.52549 
C 835.230015 154.862482 835.602541 153.963124 835.602541 153.02549 
C 835.602541 152.087855 835.230015 151.188498 834.567007 150.52549 
C 833.903999 149.862482 833.004642 149.489956 832.067007 149.489956 
C 831.129373 149.489956 830.230015 149.862482 829.567007 150.52549 
C 828.903999 151.188498 828.531473 152.087855 828.531473 153.02549 
C 828.531473 153.963124 828.903999 154.862482 829.567007 155.52549 
C 830.230015 156.188498 831.129373 156.561024 832.067007 156.561024 
z
" clip-path="url(#pfb5baec334)" style="fill: #1f77b4; fill-opacity: 0.3; stroke: #1f77b4; stroke-opacity: 0.3"/>
    <path d="M 841.186517 154.623461 
C 842.025163 154.623461 842.829573 154.290263 843.422585 153.697251 
C 844.015597 153.104239 844.348795 152.299829 844.348795 151.461183 
C 844.348795 150.622537 844.015597 149.818127 843.422585 149.225115 
C 842.829573 148.632103 842.025163 148.298906 841.186517 148.298906 
C 840.347871 148.298906 839.543461 148.632103 838.950449 149.225115 
C 838.357437 149.818127 838.024239 150.622537 838.024239 151.461183 
C 838.024239 152.299829 838.357437 153.104239 838.950449 153.697251 
C 839.543461 154.290263 840.347871 154.623461 841.186517 154.623461 
z
" clip-path="url(#pfb5baec334)" style="fill: #1f77b4; fill-opacity: 0.3; stroke: #1f77b4; stroke-opacity: 0.3"/>
    <path d="M 850.306027 150.710719 
C 852.181296 150.710719 853.980011 149.965666 855.306027 148.639651 
C 856.632042 147.313635 857.377094 145.51492 857.377094 143.639651 
C 857.377094 141.764382 856.632042 139.965666 855.306027 138.639651 
C 853.980011 137.313635 852.181296 136.568583 850.306027 136.568583 
C 848.430757 136.568583 846.632042 137.313635 845.306027 138.639651 
C 843.980011 139.965666 843.234959 141.764382 843.234959 143.639651 
C 843.234959 145.51492 843.980011 147.313635 845.306027 148.639651 
C 846.632042 149.965666 848.430757 150.710719 850.306027 150.710719 
z
" clip-path="url(#pfb5baec334)" style="fill: #1f77b4; fill-opacity: 0.3; stroke: #1f77b4; stroke-opacity: 0.3"/>
    <path d="M 859.425536 144.581852 
C 860.816273 144.581852 862.150236 144.029307 863.133636 143.045907 
C 864.117035 142.062508 864.669581 140.728545 864.669581 139.337808 
C 864.669581 137.947071 864.117035 136.613108 863.133636 135.629709 
C 862.150236 134.646309 860.816273 134.093764 859.425536 134.093764 
C 858.034799 134.093764 856.700836 134.646309 855.717437 135.629709 
C 854.734038 136.613108 854.181492 137.947071 854.181492 139.337808 
C 854.181492 140.728545 854.734038 142.062508 855.717437 143.045907 
C 856.700836 144.029307 858.034799 144.581852 859.425536 144.581852 
z
" clip-path="url(#pfb5baec334)" style="fill: #1f77b4; fill-opacity: 0.3; stroke: #1f77b4; stroke-opacity: 0.3"/>
    <path d="M 868.545046 140.864332 
C 869.572173 140.864332 870.55737 140.45625 871.283659 139.729961 
C 872.009947 139.003672 872.418029 138.018475 872.418029 136.991348 
C 872.418029 135.964221 872.009947 134.979024 871.283659 134.252735 
C 870.55737 133.526447 869.572173 133.118365 868.545046 133.118365 
C 867.517919 133.118365 866.532722 133.526447 865.806433 134.252735 
C 865.080145 134.979024 864.672063 135.964221 864.672063 136.991348 
C 864.672063 138.018475 865.080145 139.003672 865.806433 139.729961 
C 866.532722 140.45625 867.517919 140.864332 868.545046 140.864332 
z
" clip-path="url(#pfb5baec334)" style="fill: #1f77b4; fill-opacity: 0.3; stroke: #1f77b4; stroke-opacity: 0.3"/>
    <path d="M 877.664556 137.93355 
C 879.055292 137.93355 880.389255 137.381004 881.372655 136.397605 
C 882.356054 135.414205 882.9086 134.080242 882.9086 132.689505 
C 882.9086 131.298769 882.356054 129.964806 881.372655 128.981406 
C 880.389255 127.998007 879.055292 127.445461 877.664556 127.445461 
C 876.273819 127.445461 874.939856 127.998007 873.956456 128.981406 
C 872.973057 129.964806 872.420511 131.298769 872.420511 132.689505 
C 872.420511 134.080242 872.973057 135.414205 873.956456 136.397605 
C 874.939856 137.381004 876.273819 137.93355 877.664556 137.93355 
z
" clip-path="url(#pfb5baec334)" style="fill: #1f77b4; fill-opacity: 0.3; stroke: #1f77b4; stroke-opacity: 0.3"/>
    <path d="M 886.784065 132.151074 
C 888.611852 132.151074 890.365023 131.424887 891.657463 130.132447 
C 892.949903 128.840007 893.67609 127.086836 893.67609 125.259049 
C 893.67609 123.431263 892.949903 121.678092 891.657463 120.385652 
C 890.365023 119.093212 888.611852 118.367025 886.784065 118.367025 
C 884.956279 118.367025 883.203108 119.093212 881.910668 120.385652 
C 880.618228 121.678092 879.892041 123.431263 879.892041 125.259049 
C 879.892041 127.086836 880.618228 128.840007 881.910668 130.132447 
C 883.203108 131.424887 884.956279 132.151074 886.784065 132.151074 
z
" clip-path="url(#pfb5baec334)" style="fill: #1f77b4; fill-opacity: 0.3; stroke: #1f77b4; stroke-opacity: 0.3"/>
    <path d="M 895.903575 126.043356 
C 897.356152 126.043356 898.749431 125.466241 899.776558 124.439113 
C 900.803686 123.411986 901.380801 122.018707 901.380801 120.56613 
C 901.380801 119.113553 900.803686 117.720274 899.776558 116.693147 
C 898.749431 115.666019 897.356152 115.088904 895.903575 115.088904 
C 894.450998 115.088904 893.057719 115.666019 892.030592 116.693147 
C 891.003465 117.720274 890.42635 119.113553 890.42635 120.56613 
C 890.42635 122.018707 891.003465 123.411986 892.030592 124.439113 
C 893.057719 125.466241 894.450998 126.043356 895.903575 126.043356 
z
" clip-path="url(#pfb5baec334)" style="fill: #1f77b4; fill-opacity: 0.3; stroke: #1f77b4; stroke-opacity: 0.3"/>
    <path d="M 905.023085 121.508331 
C 906.413822 121.508331 907.747785 120.955786 908.731184 119.972386 
C 909.714583 118.988987 910.267129 117.655024 910.267129 116.264287 
C 910.267129 114.87355 909.714583 113.539587 908.731184 112.556188 
C 907.747785 111.572788 906.413822 111.020243 905.023085 111.020243 
C 903.632348 111.020243 902.298385 111.572788 901.314986 112.556188 
C 900.331586 113.539587 899.779041 114.87355 899.779041 116.264287 
C 899.779041 117.655024 900.331586 118.988987 901.314986 119.972386 
C 902.298385 120.955786 903.632348 121.508331 905.023085 121.508331 
z
" clip-path="url(#pfb5baec334)" style="fill: #1f77b4; fill-opacity: 0.3; stroke: #1f77b4; stroke-opacity: 0.3"/>
    <path d="M 914.142594 117.790811 
C 915.169722 117.790811 916.154919 117.382729 916.881207 116.65644 
C 917.607496 115.930152 918.015578 114.944955 918.015578 113.917827 
C 918.015578 112.8907 917.607496 111.905503 916.881207 111.179215 
C 916.154919 110.452926 915.169722 110.044844 914.142594 110.044844 
C 913.115467 110.044844 912.13027 110.452926 911.403982 111.179215 
C 910.677693 111.905503 910.269611 112.8907 910.269611 113.917827 
C 910.269611 114.944955 910.677693 115.930152 911.403982 116.65644 
C 912.13027 117.382729 913.115467 117.790811 914.142594 117.790811 
z
" clip-path="url(#pfb5baec334)" style="fill: #1f77b4; fill-opacity: 0.3; stroke: #1f77b4; stroke-opacity: 0.3"/>
    <path d="M 923.262104 115.497978 
C 924.199739 115.497978 925.099096 115.125452 925.762104 114.462444 
C 926.425112 113.799436 926.797638 112.900079 926.797638 111.962444 
C 926.797638 111.02481 926.425112 110.125452 925.762104 109.462444 
C 925.099096 108.799436 924.199739 108.42691 923.262104 108.42691 
C 922.32447 108.42691 921.425112 108.799436 920.762104 109.462444 
C 920.099096 110.125452 919.72657 111.02481 919.72657 111.962444 
C 919.72657 112.900079 920.099096 113.799436 920.762104 114.462444 
C 921.425112 115.125452 922.32447 115.497978 923.262104 115.497978 
z
" clip-path="url(#pfb5baec334)" style="fill: #1f77b4; fill-opacity: 0.3; stroke: #1f77b4; stroke-opacity: 0.3"/>
    <path d="M 932.381614 113.416359 
C 932.974626 113.416359 933.54343 113.180753 933.962753 112.76143 
C 934.382076 112.342107 934.617682 111.773303 934.617682 111.180291 
C 934.617682 110.587279 934.382076 110.018475 933.962753 109.599152 
C 933.54343 109.179829 932.974626 108.944223 932.381614 108.944223 
C 931.788602 108.944223 931.219798 109.179829 930.800475 109.599152 
C 930.381152 110.018475 930.145546 110.587279 930.145546 111.180291 
C 930.145546 111.773303 930.381152 112.342107 930.800475 112.76143 
C 931.219798 113.180753 931.788602 113.416359 932.381614 113.416359 
z
" clip-path="url(#pfb5baec334)" style="fill: #1f77b4; fill-opacity: 0.3; stroke: #1f77b4; stroke-opacity: 0.3"/>
    <path d="M 941.501124 112.370353 
C 941.920447 112.370353 942.322652 112.203754 942.619158 111.907248 
C 942.915664 111.610742 943.082262 111.208537 943.082262 110.789214 
C 943.082262 110.369891 942.915664 109.967686 942.619158 109.67118 
C 942.322652 109.374674 941.920447 109.208076 941.501124 109.208076 
C 941.081801 109.208076 940.679596 109.374674 940.38309 109.67118 
C 940.086584 109.967686 939.919985 110.369891 939.919985 110.789214 
C 939.919985 111.208537 940.086584 111.610742 940.38309 111.907248 
C 940.679596 112.203754 941.081801 112.370353 941.501124 112.370353 
z
" clip-path="url(#pfb5baec334)" style="fill: #1f77b4; fill-opacity: 0.3; stroke: #1f77b4; stroke-opacity: 0.3"/>
    <path d="M 950.620633 111.979277 
C 951.039956 111.979277 951.442161 111.812678 951.738667 111.516172 
C 952.035173 111.219666 952.201772 110.817461 952.201772 110.398138 
C 952.201772 109.978815 952.035173 109.57661 951.738667 109.280104 
C 951.442161 108.983598 951.039956 108.816999 950.620633 108.816999 
C 950.20131 108.816999 949.799105 108.983598 949.502599 109.280104 
C 949.206093 109.57661 949.039494 109.978815 949.039494 110.398138 
C 949.039494 110.817461 949.206093 111.219666 949.502599 111.516172 
C 949.799105 111.812678 950.20131 111.979277 950.620633 111.979277 
z
" clip-path="url(#pfb5baec334)" style="fill: #1f77b4; fill-opacity: 0.3; stroke: #1f77b4; stroke-opacity: 0.3"/>
    <path d="M 959.740143 111.487371 
C 961.066159 111.487371 962.338042 110.96054 963.275677 110.022905 
C 964.213311 109.085271 964.740143 107.813387 964.740143 106.487371 
C 964.740143 105.161356 964.213311 103.889472 963.275677 102.951838 
C 962.338042 102.014203 961.066159 101.487371 959.740143 101.487371 
C 958.414128 101.487371 957.142244 102.014203 956.204609 102.951838 
C 955.266975 103.889472 954.740143 105.161356 954.740143 106.487371 
C 954.740143 107.813387 955.266975 109.085271 956.204609 110.022905 
C 957.142244 110.96054 958.414128 111.487371 959.740143 111.487371 
z
" clip-path="url(#pfb5baec334)" style="fill: #1f77b4; fill-opacity: 0.3; stroke: #1f77b4; stroke-opacity: 0.3"/>
    <path d="M 968.859653 107.677434 
C 969.278976 107.677434 969.681181 107.510835 969.977687 107.214329 
C 970.274193 106.917823 970.440792 106.515618 970.440792 106.096295 
C 970.440792 105.676972 970.274193 105.274767 969.977687 104.978261 
C 969.681181 104.681755 969.278976 104.515156 968.859653 104.515156 
C 968.44033 104.515156 968.038125 104.681755 967.741619 104.978261 
C 967.445113 105.274767 967.278514 105.676972 967.278514 106.096295 
C 967.278514 106.515618 967.445113 106.917823 967.741619 107.214329 
C 968.038125 107.510835 968.44033 107.677434 968.859653 107.677434 
z
" clip-path="url(#pfb5baec334)" style="fill: #1f77b4; fill-opacity: 0.3; stroke: #1f77b4; stroke-opacity: 0.3"/>
    <path d="M 977.979162 107.55021 
C 978.572175 107.55021 979.140978 107.314603 979.560301 106.89528 
C 979.979624 106.475958 980.21523 105.907154 980.21523 105.314142 
C 980.21523 104.721129 979.979624 104.152326 979.560301 103.733003 
C 979.140978 103.31368 978.572175 103.078074 977.979162 103.078074 
C 977.38615 103.078074 976.817346 103.31368 976.398024 103.733003 
C 975.978701 104.152326 975.743094 104.721129 975.743094 105.314142 
C 975.743094 105.907154 975.978701 106.475958 976.398024 106.89528 
C 976.817346 107.314603 977.38615 107.55021 977.979162 107.55021 
z
" clip-path="url(#pfb5baec334)" style="fill: #1f77b4; fill-opacity: 0.3; stroke: #1f77b4; stroke-opacity: 0.3"/>
    <path d="M 987.098672 101.237081 
C 989.543724 101.237081 991.888962 100.265651 993.617875 98.536739 
C 995.346787 96.807826 996.318217 94.462588 996.318217 92.017536 
C 996.318217 89.572485 995.346787 87.227247 993.617875 85.498334 
C 991.888962 83.769421 989.543724 82.797992 987.098672 82.797992 
C 984.65362 82.797992 982.308382 83.769421 980.57947 85.498334 
C 978.850557 87.227247 977.879128 89.572485 977.879128 92.017536 
C 977.879128 94.462588 978.850557 96.807826 980.57947 98.536739 
C 982.308382 100.265651 984.65362 101.237081 987.098672 101.237081 
z
" clip-path="url(#pfb5baec334)" style="fill: #1f77b4; fill-opacity: 0.3; stroke: #1f77b4; stroke-opacity: 0.3"/>
    <path d="M 996.218182 93.4633 
C 997.327606 93.4633 998.39174 93.022521 999.176222 92.23804 
C 999.960703 91.453559 1000.401482 90.389424 1000.401482 89.28 
C 1000.401482 88.170576 999.960703 87.106441 999.176222 86.32196 
C 998.39174 85.537479 997.327606 85.0967 996.218182 85.0967 
C 995.108758 85.0967 994.044623 85.537479 993.260142 86.32196 
C 992.475661 87.106441 992.034882 88.170576 992.034882 89.28 
C 992.034882 90.389424 992.475661 91.453559 993.260142 92.23804 
C 994.044623 93.022521 995.108758 93.4633 996.218182 93.4633 
z
" clip-path="url(#pfb5baec334)" style="fill: #1f77b4; fill-opacity: 0.3; stroke: #1f77b4; stroke-opacity: 0.3"/>
   </g>
   <g id="matplotlib.axis_1">
    <g id="xtick_1">
     <g id="line2d_1">
      <defs>
       <path id="mdf82a0319b" d="M 0 0 
L 0 3.5 
" style="stroke: #000000; stroke-width: 0.8"/>
      </defs>
      <g>
       <use xlink:href="#mdf82a0319b" x="184.581818" y="512.64" style="stroke: #000000; stroke-width: 0.8"/>
      </g>
     </g>
     <g id="text_1">
      <!-- 2023-01-01 -->
      <g transform="translate(155.524006 527.238438)scale(0.1 -0.1)">
       <defs>
        <path id="DejaVuSans-32" d="M 1228 531 
L 3431 531 
L 3431 0 
L 469 0 
L 469 531 
Q 828 903 1448 1529 
Q 2069 2156 2228 2338 
Q 2531 2678 2651 2914 
Q 2772 3150 2772 3378 
Q 2772 3750 2511 3984 
Q 2250 4219 1831 4219 
Q 1534 4219 1204 4116 
Q 875 4013 500 3803 
L 500 4441 
Q 881 4594 1212 4672 
Q 1544 4750 1819 4750 
Q 2544 4750 2975 4387 
Q 3406 4025 3406 3419 
Q 3406 3131 3298 2873 
Q 3191 2616 2906 2266 
Q 2828 2175 2409 1742 
Q 1991 1309 1228 531 
z
" transform="scale(0.015625)"/>
        <path id="DejaVuSans-30" d="M 2034 4250 
Q 1547 4250 1301 3770 
Q 1056 3291 1056 2328 
Q 1056 1369 1301 889 
Q 1547 409 2034 409 
Q 2525 409 2770 889 
Q 3016 1369 3016 2328 
Q 3016 3291 2770 3770 
Q 2525 4250 2034 4250 
z
M 2034 4750 
Q 2819 4750 3233 4129 
Q 3647 3509 3647 2328 
Q 3647 1150 3233 529 
Q 2819 -91 2034 -91 
Q 1250 -91 836 529 
Q 422 1150 422 2328 
Q 422 3509 836 4129 
Q 1250 4750 2034 4750 
z
" transform="scale(0.015625)"/>
        <path id="DejaVuSans-33" d="M 2597 2516 
Q 3050 2419 3304 2112 
Q 3559 1806 3559 1356 
Q 3559 666 3084 287 
Q 2609 -91 1734 -91 
Q 1441 -91 1130 -33 
Q 819 25 488 141 
L 488 750 
Q 750 597 1062 519 
Q 1375 441 1716 441 
Q 2309 441 2620 675 
Q 2931 909 2931 1356 
Q 2931 1769 2642 2001 
Q 2353 2234 1838 2234 
L 1294 2234 
L 1294 2753 
L 1863 2753 
Q 2328 2753 2575 2939 
Q 2822 3125 2822 3475 
Q 2822 3834 2567 4026 
Q 2313 4219 1838 4219 
Q 1578 4219 1281 4162 
Q 984 4106 628 3988 
L 628 4550 
Q 988 4650 1302 4700 
Q 1616 4750 1894 4750 
Q 2613 4750 3031 4423 
Q 3450 4097 3450 3541 
Q 3450 3153 3228 2886 
Q 3006 2619 2597 2516 
z
" transform="scale(0.015625)"/>
        <path id="DejaVuSans-2d" d="M 313 2009 
L 1997 2009 
L 1997 1497 
L 313 1497 
L 313 2009 
z
" transform="scale(0.015625)"/>
        <path id="DejaVuSans-31" d="M 794 531 
L 1825 531 
L 1825 4091 
L 703 3866 
L 703 4441 
L 1819 4666 
L 2450 4666 
L 2450 531 
L 3481 531 
L 3481 0 
L 794 0 
L 794 531 
z
" transform="scale(0.015625)"/>
       </defs>
       <use xlink:href="#DejaVuSans-32"/>
       <use xlink:href="#DejaVuSans-30" x="63.623047"/>
       <use xlink:href="#DejaVuSans-32" x="127.246094"/>
       <use xlink:href="#DejaVuSans-33" x="190.869141"/>
       <use xlink:href="#DejaVuSans-2d" x="254.492188"/>
       <use xlink:href="#DejaVuSans-30" x="290.576172"/>
       <use xlink:href="#DejaVuSans-31" x="354.199219"/>
       <use xlink:href="#DejaVuSans-2d" x="417.822266"/>
       <use xlink:href="#DejaVuSans-30" x="453.90625"/>
       <use xlink:href="#DejaVuSans-31" x="517.529297"/>
      </g>
     </g>
    </g>
    <g id="xtick_2">
     <g id="line2d_2">
      <g>
       <use xlink:href="#mdf82a0319b" x="312.254954" y="512.64" style="stroke: #000000; stroke-width: 0.8"/>
      </g>
     </g>
     <g id="text_2">
      <!-- 2023-01-15 -->
      <g transform="translate(283.197142 527.238438)scale(0.1 -0.1)">
       <defs>
        <path id="DejaVuSans-35" d="M 691 4666 
L 3169 4666 
L 3169 4134 
L 1269 4134 
L 1269 2991 
Q 1406 3038 1543 3061 
Q 1681 3084 1819 3084 
Q 2600 3084 3056 2656 
Q 3513 2228 3513 1497 
Q 3513 744 3044 326 
Q 2575 -91 1722 -91 
Q 1428 -91 1123 -41 
Q 819 9 494 109 
L 494 744 
Q 775 591 1075 516 
Q 1375 441 1709 441 
Q 2250 441 2565 725 
Q 2881 1009 2881 1497 
Q 2881 1984 2565 2268 
Q 2250 2553 1709 2553 
Q 1456 2553 1204 2497 
Q 953 2441 691 2322 
L 691 4666 
z
" transform="scale(0.015625)"/>
       </defs>
       <use xlink:href="#DejaVuSans-32"/>
       <use xlink:href="#DejaVuSans-30" x="63.623047"/>
       <use xlink:href="#DejaVuSans-32" x="127.246094"/>
       <use xlink:href="#DejaVuSans-33" x="190.869141"/>
       <use xlink:href="#DejaVuSans-2d" x="254.492188"/>
       <use xlink:href="#DejaVuSans-30" x="290.576172"/>
       <use xlink:href="#DejaVuSans-31" x="354.199219"/>
       <use xlink:href="#DejaVuSans-2d" x="417.822266"/>
       <use xlink:href="#DejaVuSans-31" x="453.90625"/>
       <use xlink:href="#DejaVuSans-35" x="517.529297"/>
      </g>
     </g>
    </g>
    <g id="xtick_3">
     <g id="line2d_3">
      <g>
       <use xlink:href="#mdf82a0319b" x="467.286619" y="512.64" style="stroke: #000000; stroke-width: 0.8"/>
      </g>
     </g>
     <g id="text_3">
      <!-- 2023-02-01 -->
      <g transform="translate(438.228806 527.238438)scale(0.1 -0.1)">
       <use xlink:href="#DejaVuSans-32"/>
       <use xlink:href="#DejaVuSans-30" x="63.623047"/>
       <use xlink:href="#DejaVuSans-32" x="127.246094"/>
       <use xlink:href="#DejaVuSans-33" x="190.869141"/>
       <use xlink:href="#DejaVuSans-2d" x="254.492188"/>
       <use xlink:href="#DejaVuSans-30" x="290.576172"/>
       <use xlink:href="#DejaVuSans-32" x="354.199219"/>
       <use xlink:href="#DejaVuSans-2d" x="417.822266"/>
       <use xlink:href="#DejaVuSans-30" x="453.90625"/>
       <use xlink:href="#DejaVuSans-31" x="517.529297"/>
      </g>
     </g>
    </g>
    <g id="xtick_4">
     <g id="line2d_4">
      <g>
       <use xlink:href="#mdf82a0319b" x="594.959755" y="512.64" style="stroke: #000000; stroke-width: 0.8"/>
      </g>
     </g>
     <g id="text_4">
      <!-- 2023-02-15 -->
      <g transform="translate(565.901942 527.238438)scale(0.1 -0.1)">
       <use xlink:href="#DejaVuSans-32"/>
       <use xlink:href="#DejaVuSans-30" x="63.623047"/>
       <use xlink:href="#DejaVuSans-32" x="127.246094"/>
       <use xlink:href="#DejaVuSans-33" x="190.869141"/>
       <use xlink:href="#DejaVuSans-2d" x="254.492188"/>
       <use xlink:href="#DejaVuSans-30" x="290.576172"/>
       <use xlink:href="#DejaVuSans-32" x="354.199219"/>
       <use xlink:href="#DejaVuSans-2d" x="417.822266"/>
       <use xlink:href="#DejaVuSans-31" x="453.90625"/>
       <use xlink:href="#DejaVuSans-35" x="517.529297"/>
      </g>
     </g>
    </g>
    <g id="xtick_5">
     <g id="line2d_5">
      <g>
       <use xlink:href="#mdf82a0319b" x="722.632891" y="512.64" style="stroke: #000000; stroke-width: 0.8"/>
      </g>
     </g>
     <g id="text_5">
      <!-- 2023-03-01 -->
      <g transform="translate(693.575078 527.238438)scale(0.1 -0.1)">
       <use xlink:href="#DejaVuSans-32"/>
       <use xlink:href="#DejaVuSans-30" x="63.623047"/>
       <use xlink:href="#DejaVuSans-32" x="127.246094"/>
       <use xlink:href="#DejaVuSans-33" x="190.869141"/>
       <use xlink:href="#DejaVuSans-2d" x="254.492188"/>
       <use xlink:href="#DejaVuSans-30" x="290.576172"/>
       <use xlink:href="#DejaVuSans-33" x="354.199219"/>
       <use xlink:href="#DejaVuSans-2d" x="417.822266"/>
       <use xlink:href="#DejaVuSans-30" x="453.90625"/>
       <use xlink:href="#DejaVuSans-31" x="517.529297"/>
      </g>
     </g>
    </g>
    <g id="xtick_6">
     <g id="line2d_6">
      <g>
       <use xlink:href="#mdf82a0319b" x="850.306027" y="512.64" style="stroke: #000000; stroke-width: 0.8"/>
      </g>
     </g>
     <g id="text_6">
      <!-- 2023-03-15 -->
      <g transform="translate(821.248214 527.238438)scale(0.1 -0.1)">
       <use xlink:href="#DejaVuSans-32"/>
       <use xlink:href="#DejaVuSans-30" x="63.623047"/>
       <use xlink:href="#DejaVuSans-32" x="127.246094"/>
       <use xlink:href="#DejaVuSans-33" x="190.869141"/>
       <use xlink:href="#DejaVuSans-2d" x="254.492188"/>
       <use xlink:href="#DejaVuSans-30" x="290.576172"/>
       <use xlink:href="#DejaVuSans-33" x="354.199219"/>
       <use xlink:href="#DejaVuSans-2d" x="417.822266"/>
       <use xlink:href="#DejaVuSans-31" x="453.90625"/>
       <use xlink:href="#DejaVuSans-35" x="517.529297"/>
      </g>
     </g>
    </g>
    <g id="xtick_7">
     <g id="line2d_7">
      <g>
       <use xlink:href="#mdf82a0319b" x="1005.337692" y="512.64" style="stroke: #000000; stroke-width: 0.8"/>
      </g>
     </g>
     <g id="text_7">
      <!-- 2023-04-01 -->
      <g transform="translate(976.279879 527.238438)scale(0.1 -0.1)">
       <defs>
        <path id="DejaVuSans-34" d="M 2419 4116 
L 825 1625 
L 2419 1625 
L 2419 4116 
z
M 2253 4666 
L 3047 4666 
L 3047 1625 
L 3713 1625 
L 3713 1100 
L 3047 1100 
L 3047 0 
L 2419 0 
L 2419 1100 
L 313 1100 
L 313 1709 
L 2253 4666 
z
" transform="scale(0.015625)"/>
       </defs>
       <use xlink:href="#DejaVuSans-32"/>
       <use xlink:href="#DejaVuSans-30" x="63.623047"/>
       <use xlink:href="#DejaVuSans-32" x="127.246094"/>
       <use xlink:href="#DejaVuSans-33" x="190.869141"/>
       <use xlink:href="#DejaVuSans-2d" x="254.492188"/>
       <use xlink:href="#DejaVuSans-30" x="290.576172"/>
       <use xlink:href="#DejaVuSans-34" x="354.199219"/>
       <use xlink:href="#DejaVuSans-2d" x="417.822266"/>
       <use xlink:href="#DejaVuSans-30" x="453.90625"/>
       <use xlink:href="#DejaVuSans-31" x="517.529297"/>
      </g>
     </g>
    </g>
   </g>
   <g id="matplotlib.axis_2">
    <g id="ytick_1">
     <g id="line2d_8">
      <defs>
       <path id="m1d701f57f3" d="M 0 0 
L -3.5 0 
" style="stroke: #000000; stroke-width: 0.8"/>
      </defs>
      <g>
       <use xlink:href="#m1d701f57f3" x="144" y="434.60066" style="stroke: #000000; stroke-width: 0.8"/>
      </g>
     </g>
     <g id="text_8">
      <!-- 4400 -->
      <g transform="translate(111.55 438.399878)scale(0.1 -0.1)">
       <use xlink:href="#DejaVuSans-34"/>
       <use xlink:href="#DejaVuSans-34" x="63.623047"/>
       <use xlink:href="#DejaVuSans-30" x="127.246094"/>
       <use xlink:href="#DejaVuSans-30" x="190.869141"/>
      </g>
     </g>
    </g>
    <g id="ytick_2">
     <g id="line2d_9">
      <g>
       <use xlink:href="#m1d701f57f3" x="144" y="356.385335" style="stroke: #000000; stroke-width: 0.8"/>
      </g>
     </g>
     <g id="text_9">
      <!-- 4600 -->
      <g transform="translate(111.55 360.184553)scale(0.1 -0.1)">
       <defs>
        <path id="DejaVuSans-36" d="M 2113 2584 
Q 1688 2584 1439 2293 
Q 1191 2003 1191 1497 
Q 1191 994 1439 701 
Q 1688 409 2113 409 
Q 2538 409 2786 701 
Q 3034 994 3034 1497 
Q 3034 2003 2786 2293 
Q 2538 2584 2113 2584 
z
M 3366 4563 
L 3366 3988 
Q 3128 4100 2886 4159 
Q 2644 4219 2406 4219 
Q 1781 4219 1451 3797 
Q 1122 3375 1075 2522 
Q 1259 2794 1537 2939 
Q 1816 3084 2150 3084 
Q 2853 3084 3261 2657 
Q 3669 2231 3669 1497 
Q 3669 778 3244 343 
Q 2819 -91 2113 -91 
Q 1303 -91 875 529 
Q 447 1150 447 2328 
Q 447 3434 972 4092 
Q 1497 4750 2381 4750 
Q 2619 4750 2861 4703 
Q 3103 4656 3366 4563 
z
" transform="scale(0.015625)"/>
       </defs>
       <use xlink:href="#DejaVuSans-34"/>
       <use xlink:href="#DejaVuSans-36" x="63.623047"/>
       <use xlink:href="#DejaVuSans-30" x="127.246094"/>
       <use xlink:href="#DejaVuSans-30" x="190.869141"/>
      </g>
     </g>
    </g>
    <g id="ytick_3">
     <g id="line2d_10">
      <g>
       <use xlink:href="#m1d701f57f3" x="144" y="278.17001" style="stroke: #000000; stroke-width: 0.8"/>
      </g>
     </g>
     <g id="text_10">
      <!-- 4800 -->
      <g transform="translate(111.55 281.969228)scale(0.1 -0.1)">
       <defs>
        <path id="DejaVuSans-38" d="M 2034 2216 
Q 1584 2216 1326 1975 
Q 1069 1734 1069 1313 
Q 1069 891 1326 650 
Q 1584 409 2034 409 
Q 2484 409 2743 651 
Q 3003 894 3003 1313 
Q 3003 1734 2745 1975 
Q 2488 2216 2034 2216 
z
M 1403 2484 
Q 997 2584 770 2862 
Q 544 3141 544 3541 
Q 544 4100 942 4425 
Q 1341 4750 2034 4750 
Q 2731 4750 3128 4425 
Q 3525 4100 3525 3541 
Q 3525 3141 3298 2862 
Q 3072 2584 2669 2484 
Q 3125 2378 3379 2068 
Q 3634 1759 3634 1313 
Q 3634 634 3220 271 
Q 2806 -91 2034 -91 
Q 1263 -91 848 271 
Q 434 634 434 1313 
Q 434 1759 690 2068 
Q 947 2378 1403 2484 
z
M 1172 3481 
Q 1172 3119 1398 2916 
Q 1625 2713 2034 2713 
Q 2441 2713 2670 2916 
Q 2900 3119 2900 3481 
Q 2900 3844 2670 4047 
Q 2441 4250 2034 4250 
Q 1625 4250 1398 4047 
Q 1172 3844 1172 3481 
z
" transform="scale(0.015625)"/>
       </defs>
       <use xlink:href="#DejaVuSans-34"/>
       <use xlink:href="#DejaVuSans-38" x="63.623047"/>
       <use xlink:href="#DejaVuSans-30" x="127.246094"/>
       <use xlink:href="#DejaVuSans-30" x="190.869141"/>
      </g>
     </g>
    </g>
    <g id="ytick_4">
     <g id="line2d_11">
      <g>
       <use xlink:href="#m1d701f57f3" x="144" y="199.954685" style="stroke: #000000; stroke-width: 0.8"/>
      </g>
     </g>
     <g id="text_11">
      <!-- 5000 -->
      <g transform="translate(111.55 203.753904)scale(0.1 -0.1)">
       <use xlink:href="#DejaVuSans-35"/>
       <use xlink:href="#DejaVuSans-30" x="63.623047"/>
       <use xlink:href="#DejaVuSans-30" x="127.246094"/>
       <use xlink:href="#DejaVuSans-30" x="190.869141"/>
      </g>
     </g>
    </g>
    <g id="ytick_5">
     <g id="line2d_12">
      <g>
       <use xlink:href="#m1d701f57f3" x="144" y="121.73936" style="stroke: #000000; stroke-width: 0.8"/>
      </g>
     </g>
     <g id="text_12">
      <!-- 5200 -->
      <g transform="translate(111.55 125.538579)scale(0.1 -0.1)">
       <use xlink:href="#DejaVuSans-35"/>
       <use xlink:href="#DejaVuSans-32" x="63.623047"/>
       <use xlink:href="#DejaVuSans-30" x="127.246094"/>
       <use xlink:href="#DejaVuSans-30" x="190.869141"/>
      </g>
     </g>
    </g>
   </g>
   <g id="line2d_13">
    <path d="M 184.581818 492.48 
L 193.701328 489.351387 
L 202.820838 479.965548 
L 211.940347 469.015403 
L 221.059857 460.02064 
L 230.179367 453.763414 
L 239.298876 448.288341 
L 248.418386 442.031115 
L 257.537896 439.684656 
L 266.657406 436.164966 
L 275.776915 429.90774 
L 284.896425 410.744985 
L 294.015935 406.052066 
L 303.135444 405.660989 
L 312.254954 400.96807 
L 321.374464 395.10192 
L 330.493973 390.409001 
L 339.613483 388.062541 
L 348.732993 380.241009 
L 357.852503 377.894549 
L 366.972012 373.201629 
L 376.091522 371.246246 
L 385.211032 359.513948 
L 394.330541 353.256722 
L 403.450051 346.608419 
L 412.569561 341.9155 
L 421.68907 337.22258 
L 430.80858 335.267197 
L 439.92809 332.529661 
L 449.0476 330.574277 
L 458.167109 328.227818 
L 467.286619 326.663511 
L 476.406129 323.925975 
L 485.525638 309.065063 
L 494.645148 308.28291 
L 503.764658 306.327527 
L 512.884168 304.372144 
L 522.003677 301.634607 
L 531.123187 297.332764 
L 540.242697 294.986305 
L 549.362206 291.075538 
L 558.481716 281.298623 
L 567.601226 280.907546 
L 576.720735 278.561086 
L 585.840245 275.041397 
L 594.959755 273.086014 
L 604.079265 272.694937 
L 613.198774 270.739554 
L 622.318284 266.046634 
L 631.437794 264.873404 
L 640.557303 262.135868 
L 649.676813 257.051872 
L 658.796323 248.839263 
L 667.915832 238.280194 
L 677.035342 230.067585 
L 686.154852 219.117439 
L 695.274362 200.736838 
L 704.393871 194.870689 
L 713.513381 192.133152 
L 722.632891 190.177769 
L 731.7524 186.267003 
L 749.99142 182.747313 
L 759.11093 181.96516 
L 768.230439 177.272241 
L 777.349949 166.713172 
L 786.469459 160.455946 
L 795.588968 159.282716 
L 804.708478 158.891639 
L 813.827988 157.327333 
L 822.947497 154.980873 
L 832.067007 153.02549 
L 841.186517 151.461183 
L 850.306027 143.639651 
L 859.425536 139.337808 
L 868.545046 136.991348 
L 877.664556 132.689505 
L 886.784065 125.259049 
L 895.903575 120.56613 
L 905.023085 116.264287 
L 914.142594 113.917827 
L 923.262104 111.962444 
L 932.381614 111.180291 
L 941.501124 110.789214 
L 950.620633 110.398138 
L 959.740143 106.487371 
L 968.859653 106.096295 
L 977.979162 105.314142 
L 987.098672 92.017536 
L 996.218182 89.28 
" clip-path="url(#pfb5baec334)" style="fill: none; stroke: #1f77b4; stroke-width: 1.5; stroke-linecap: square"/>
   </g>
   <g id="patch_3">
    <path d="M 144 512.64 
L 144 69.12 
" style="fill: none; stroke: #000000; stroke-width: 0.8; stroke-linejoin: miter; stroke-linecap: square"/>
   </g>
   <g id="patch_4">
    <path d="M 1036.8 512.64 
L 1036.8 69.12 
" style="fill: none; stroke: #000000; stroke-width: 0.8; stroke-linejoin: miter; stroke-linecap: square"/>
   </g>
   <g id="patch_5">
    <path d="M 144 512.64 
L 1036.8 512.64 
" style="fill: none; stroke: #000000; stroke-width: 0.8; stroke-linejoin: miter; stroke-linecap: square"/>
   </g>
   <g id="patch_6">
    <path d="M 144 69.12 
L 1036.8 69.12 
" style="fill: none; stroke: #000000; stroke-width: 0.8; stroke-linejoin: miter; stroke-linecap: square"/>
   </g>
   <g id="text_13">
    <!-- Number of AEDs in the OpenStreetMap database in Poland from 2023-01-01, day by day. As at: 2023-04-01 -->
    <g transform="translate(144 63.12)scale(0.14 -0.14)">
     <defs>
      <path id="DejaVuSans-4e" d="M 628 4666 
L 1478 4666 
L 3547 763 
L 3547 4666 
L 4159 4666 
L 4159 0 
L 3309 0 
L 1241 3903 
L 1241 0 
L 628 0 
L 628 4666 
z
" transform="scale(0.015625)"/>
      <path id="DejaVuSans-75" d="M 544 1381 
L 544 3500 
L 1119 3500 
L 1119 1403 
Q 1119 906 1312 657 
Q 1506 409 1894 409 
Q 2359 409 2629 706 
Q 2900 1003 2900 1516 
L 2900 3500 
L 3475 3500 
L 3475 0 
L 2900 0 
L 2900 538 
Q 2691 219 2414 64 
Q 2138 -91 1772 -91 
Q 1169 -91 856 284 
Q 544 659 544 1381 
z
M 1991 3584 
L 1991 3584 
z
" transform="scale(0.015625)"/>
      <path id="DejaVuSans-6d" d="M 3328 2828 
Q 3544 3216 3844 3400 
Q 4144 3584 4550 3584 
Q 5097 3584 5394 3201 
Q 5691 2819 5691 2113 
L 5691 0 
L 5113 0 
L 5113 2094 
Q 5113 2597 4934 2840 
Q 4756 3084 4391 3084 
Q 3944 3084 3684 2787 
Q 3425 2491 3425 1978 
L 3425 0 
L 2847 0 
L 2847 2094 
Q 2847 2600 2669 2842 
Q 2491 3084 2119 3084 
Q 1678 3084 1418 2786 
Q 1159 2488 1159 1978 
L 1159 0 
L 581 0 
L 581 3500 
L 1159 3500 
L 1159 2956 
Q 1356 3278 1631 3431 
Q 1906 3584 2284 3584 
Q 2666 3584 2933 3390 
Q 3200 3197 3328 2828 
z
" transform="scale(0.015625)"/>
      <path id="DejaVuSans-62" d="M 3116 1747 
Q 3116 2381 2855 2742 
Q 2594 3103 2138 3103 
Q 1681 3103 1420 2742 
Q 1159 2381 1159 1747 
Q 1159 1113 1420 752 
Q 1681 391 2138 391 
Q 2594 391 2855 752 
Q 3116 1113 3116 1747 
z
M 1159 2969 
Q 1341 3281 1617 3432 
Q 1894 3584 2278 3584 
Q 2916 3584 3314 3078 
Q 3713 2572 3713 1747 
Q 3713 922 3314 415 
Q 2916 -91 2278 -91 
Q 1894 -91 1617 61 
Q 1341 213 1159 525 
L 1159 0 
L 581 0 
L 581 4863 
L 1159 4863 
L 1159 2969 
z
" transform="scale(0.015625)"/>
      <path id="DejaVuSans-65" d="M 3597 1894 
L 3597 1613 
L 953 1613 
Q 991 1019 1311 708 
Q 1631 397 2203 397 
Q 2534 397 2845 478 
Q 3156 559 3463 722 
L 3463 178 
Q 3153 47 2828 -22 
Q 2503 -91 2169 -91 
Q 1331 -91 842 396 
Q 353 884 353 1716 
Q 353 2575 817 3079 
Q 1281 3584 2069 3584 
Q 2775 3584 3186 3129 
Q 3597 2675 3597 1894 
z
M 3022 2063 
Q 3016 2534 2758 2815 
Q 2500 3097 2075 3097 
Q 1594 3097 1305 2825 
Q 1016 2553 972 2059 
L 3022 2063 
z
" transform="scale(0.015625)"/>
      <path id="DejaVuSans-72" d="M 2631 2963 
Q 2534 3019 2420 3045 
Q 2306 3072 2169 3072 
Q 1681 3072 1420 2755 
Q 1159 2438 1159 1844 
L 1159 0 
L 581 0 
L 581 3500 
L 1159 3500 
L 1159 2956 
Q 1341 3275 1631 3429 
Q 1922 3584 2338 3584 
Q 2397 3584 2469 3576 
Q 2541 3569 2628 3553 
L 2631 2963 
z
" transform="scale(0.015625)"/>
      <path id="DejaVuSans-20" transform="scale(0.015625)"/>
      <path id="DejaVuSans-6f" d="M 1959 3097 
Q 1497 3097 1228 2736 
Q 959 2375 959 1747 
Q 959 1119 1226 758 
Q 1494 397 1959 397 
Q 2419 397 2687 759 
Q 2956 1122 2956 1747 
Q 2956 2369 2687 2733 
Q 2419 3097 1959 3097 
z
M 1959 3584 
Q 2709 3584 3137 3096 
Q 3566 2609 3566 1747 
Q 3566 888 3137 398 
Q 2709 -91 1959 -91 
Q 1206 -91 779 398 
Q 353 888 353 1747 
Q 353 2609 779 3096 
Q 1206 3584 1959 3584 
z
" transform="scale(0.015625)"/>
      <path id="DejaVuSans-66" d="M 2375 4863 
L 2375 4384 
L 1825 4384 
Q 1516 4384 1395 4259 
Q 1275 4134 1275 3809 
L 1275 3500 
L 2222 3500 
L 2222 3053 
L 1275 3053 
L 1275 0 
L 697 0 
L 697 3053 
L 147 3053 
L 147 3500 
L 697 3500 
L 697 3744 
Q 697 4328 969 4595 
Q 1241 4863 1831 4863 
L 2375 4863 
z
" transform="scale(0.015625)"/>
      <path id="DejaVuSans-41" d="M 2188 4044 
L 1331 1722 
L 3047 1722 
L 2188 4044 
z
M 1831 4666 
L 2547 4666 
L 4325 0 
L 3669 0 
L 3244 1197 
L 1141 1197 
L 716 0 
L 50 0 
L 1831 4666 
z
" transform="scale(0.015625)"/>
      <path id="DejaVuSans-45" d="M 628 4666 
L 3578 4666 
L 3578 4134 
L 1259 4134 
L 1259 2753 
L 3481 2753 
L 3481 2222 
L 1259 2222 
L 1259 531 
L 3634 531 
L 3634 0 
L 628 0 
L 628 4666 
z
" transform="scale(0.015625)"/>
      <path id="DejaVuSans-44" d="M 1259 4147 
L 1259 519 
L 2022 519 
Q 2988 519 3436 956 
Q 3884 1394 3884 2338 
Q 3884 3275 3436 3711 
Q 2988 4147 2022 4147 
L 1259 4147 
z
M 628 4666 
L 1925 4666 
Q 3281 4666 3915 4102 
Q 4550 3538 4550 2338 
Q 4550 1131 3912 565 
Q 3275 0 1925 0 
L 628 0 
L 628 4666 
z
" transform="scale(0.015625)"/>
      <path id="DejaVuSans-73" d="M 2834 3397 
L 2834 2853 
Q 2591 2978 2328 3040 
Q 2066 3103 1784 3103 
Q 1356 3103 1142 2972 
Q 928 2841 928 2578 
Q 928 2378 1081 2264 
Q 1234 2150 1697 2047 
L 1894 2003 
Q 2506 1872 2764 1633 
Q 3022 1394 3022 966 
Q 3022 478 2636 193 
Q 2250 -91 1575 -91 
Q 1294 -91 989 -36 
Q 684 19 347 128 
L 347 722 
Q 666 556 975 473 
Q 1284 391 1588 391 
Q 1994 391 2212 530 
Q 2431 669 2431 922 
Q 2431 1156 2273 1281 
Q 2116 1406 1581 1522 
L 1381 1569 
Q 847 1681 609 1914 
Q 372 2147 372 2553 
Q 372 3047 722 3315 
Q 1072 3584 1716 3584 
Q 2034 3584 2315 3537 
Q 2597 3491 2834 3397 
z
" transform="scale(0.015625)"/>
      <path id="DejaVuSans-69" d="M 603 3500 
L 1178 3500 
L 1178 0 
L 603 0 
L 603 3500 
z
M 603 4863 
L 1178 4863 
L 1178 4134 
L 603 4134 
L 603 4863 
z
" transform="scale(0.015625)"/>
      <path id="DejaVuSans-6e" d="M 3513 2113 
L 3513 0 
L 2938 0 
L 2938 2094 
Q 2938 2591 2744 2837 
Q 2550 3084 2163 3084 
Q 1697 3084 1428 2787 
Q 1159 2491 1159 1978 
L 1159 0 
L 581 0 
L 581 3500 
L 1159 3500 
L 1159 2956 
Q 1366 3272 1645 3428 
Q 1925 3584 2291 3584 
Q 2894 3584 3203 3211 
Q 3513 2838 3513 2113 
z
" transform="scale(0.015625)"/>
      <path id="DejaVuSans-74" d="M 1172 4494 
L 1172 3500 
L 2356 3500 
L 2356 3053 
L 1172 3053 
L 1172 1153 
Q 1172 725 1289 603 
Q 1406 481 1766 481 
L 2356 481 
L 2356 0 
L 1766 0 
Q 1100 0 847 248 
Q 594 497 594 1153 
L 594 3053 
L 172 3053 
L 172 3500 
L 594 3500 
L 594 4494 
L 1172 4494 
z
" transform="scale(0.015625)"/>
      <path id="DejaVuSans-68" d="M 3513 2113 
L 3513 0 
L 2938 0 
L 2938 2094 
Q 2938 2591 2744 2837 
Q 2550 3084 2163 3084 
Q 1697 3084 1428 2787 
Q 1159 2491 1159 1978 
L 1159 0 
L 581 0 
L 581 4863 
L 1159 4863 
L 1159 2956 
Q 1366 3272 1645 3428 
Q 1925 3584 2291 3584 
Q 2894 3584 3203 3211 
Q 3513 2838 3513 2113 
z
" transform="scale(0.015625)"/>
      <path id="DejaVuSans-4f" d="M 2522 4238 
Q 1834 4238 1429 3725 
Q 1025 3213 1025 2328 
Q 1025 1447 1429 934 
Q 1834 422 2522 422 
Q 3209 422 3611 934 
Q 4013 1447 4013 2328 
Q 4013 3213 3611 3725 
Q 3209 4238 2522 4238 
z
M 2522 4750 
Q 3503 4750 4090 4092 
Q 4678 3434 4678 2328 
Q 4678 1225 4090 567 
Q 3503 -91 2522 -91 
Q 1538 -91 948 565 
Q 359 1222 359 2328 
Q 359 3434 948 4092 
Q 1538 4750 2522 4750 
z
" transform="scale(0.015625)"/>
      <path id="DejaVuSans-70" d="M 1159 525 
L 1159 -1331 
L 581 -1331 
L 581 3500 
L 1159 3500 
L 1159 2969 
Q 1341 3281 1617 3432 
Q 1894 3584 2278 3584 
Q 2916 3584 3314 3078 
Q 3713 2572 3713 1747 
Q 3713 922 3314 415 
Q 2916 -91 2278 -91 
Q 1894 -91 1617 61 
Q 1341 213 1159 525 
z
M 3116 1747 
Q 3116 2381 2855 2742 
Q 2594 3103 2138 3103 
Q 1681 3103 1420 2742 
Q 1159 2381 1159 1747 
Q 1159 1113 1420 752 
Q 1681 391 2138 391 
Q 2594 391 2855 752 
Q 3116 1113 3116 1747 
z
" transform="scale(0.015625)"/>
      <path id="DejaVuSans-53" d="M 3425 4513 
L 3425 3897 
Q 3066 4069 2747 4153 
Q 2428 4238 2131 4238 
Q 1616 4238 1336 4038 
Q 1056 3838 1056 3469 
Q 1056 3159 1242 3001 
Q 1428 2844 1947 2747 
L 2328 2669 
Q 3034 2534 3370 2195 
Q 3706 1856 3706 1288 
Q 3706 609 3251 259 
Q 2797 -91 1919 -91 
Q 1588 -91 1214 -16 
Q 841 59 441 206 
L 441 856 
Q 825 641 1194 531 
Q 1563 422 1919 422 
Q 2459 422 2753 634 
Q 3047 847 3047 1241 
Q 3047 1584 2836 1778 
Q 2625 1972 2144 2069 
L 1759 2144 
Q 1053 2284 737 2584 
Q 422 2884 422 3419 
Q 422 4038 858 4394 
Q 1294 4750 2059 4750 
Q 2388 4750 2728 4690 
Q 3069 4631 3425 4513 
z
" transform="scale(0.015625)"/>
      <path id="DejaVuSans-4d" d="M 628 4666 
L 1569 4666 
L 2759 1491 
L 3956 4666 
L 4897 4666 
L 4897 0 
L 4281 0 
L 4281 4097 
L 3078 897 
L 2444 897 
L 1241 4097 
L 1241 0 
L 628 0 
L 628 4666 
z
" transform="scale(0.015625)"/>
      <path id="DejaVuSans-61" d="M 2194 1759 
Q 1497 1759 1228 1600 
Q 959 1441 959 1056 
Q 959 750 1161 570 
Q 1363 391 1709 391 
Q 2188 391 2477 730 
Q 2766 1069 2766 1631 
L 2766 1759 
L 2194 1759 
z
M 3341 1997 
L 3341 0 
L 2766 0 
L 2766 531 
Q 2569 213 2275 61 
Q 1981 -91 1556 -91 
Q 1019 -91 701 211 
Q 384 513 384 1019 
Q 384 1609 779 1909 
Q 1175 2209 1959 2209 
L 2766 2209 
L 2766 2266 
Q 2766 2663 2505 2880 
Q 2244 3097 1772 3097 
Q 1472 3097 1187 3025 
Q 903 2953 641 2809 
L 641 3341 
Q 956 3463 1253 3523 
Q 1550 3584 1831 3584 
Q 2591 3584 2966 3190 
Q 3341 2797 3341 1997 
z
" transform="scale(0.015625)"/>
      <path id="DejaVuSans-64" d="M 2906 2969 
L 2906 4863 
L 3481 4863 
L 3481 0 
L 2906 0 
L 2906 525 
Q 2725 213 2448 61 
Q 2172 -91 1784 -91 
Q 1150 -91 751 415 
Q 353 922 353 1747 
Q 353 2572 751 3078 
Q 1150 3584 1784 3584 
Q 2172 3584 2448 3432 
Q 2725 3281 2906 2969 
z
M 947 1747 
Q 947 1113 1208 752 
Q 1469 391 1925 391 
Q 2381 391 2643 752 
Q 2906 1113 2906 1747 
Q 2906 2381 2643 2742 
Q 2381 3103 1925 3103 
Q 1469 3103 1208 2742 
Q 947 2381 947 1747 
z
" transform="scale(0.015625)"/>
      <path id="DejaVuSans-50" d="M 1259 4147 
L 1259 2394 
L 2053 2394 
Q 2494 2394 2734 2622 
Q 2975 2850 2975 3272 
Q 2975 3691 2734 3919 
Q 2494 4147 2053 4147 
L 1259 4147 
z
M 628 4666 
L 2053 4666 
Q 2838 4666 3239 4311 
Q 3641 3956 3641 3272 
Q 3641 2581 3239 2228 
Q 2838 1875 2053 1875 
L 1259 1875 
L 1259 0 
L 628 0 
L 628 4666 
z
" transform="scale(0.015625)"/>
      <path id="DejaVuSans-6c" d="M 603 4863 
L 1178 4863 
L 1178 0 
L 603 0 
L 603 4863 
z
" transform="scale(0.015625)"/>
      <path id="DejaVuSans-2c" d="M 750 794 
L 1409 794 
L 1409 256 
L 897 -744 
L 494 -744 
L 750 256 
L 750 794 
z
" transform="scale(0.015625)"/>
      <path id="DejaVuSans-79" d="M 2059 -325 
Q 1816 -950 1584 -1140 
Q 1353 -1331 966 -1331 
L 506 -1331 
L 506 -850 
L 844 -850 
Q 1081 -850 1212 -737 
Q 1344 -625 1503 -206 
L 1606 56 
L 191 3500 
L 800 3500 
L 1894 763 
L 2988 3500 
L 3597 3500 
L 2059 -325 
z
" transform="scale(0.015625)"/>
      <path id="DejaVuSans-2e" d="M 684 794 
L 1344 794 
L 1344 0 
L 684 0 
L 684 794 
z
" transform="scale(0.015625)"/>
      <path id="DejaVuSans-3a" d="M 750 794 
L 1409 794 
L 1409 0 
L 750 0 
L 750 794 
z
M 750 3309 
L 1409 3309 
L 1409 2516 
L 750 2516 
L 750 3309 
z
" transform="scale(0.015625)"/>
     </defs>
     <use xlink:href="#DejaVuSans-4e"/>
     <use xlink:href="#DejaVuSans-75" x="74.804688"/>
     <use xlink:href="#DejaVuSans-6d" x="138.183594"/>
     <use xlink:href="#DejaVuSans-62" x="235.595703"/>
     <use xlink:href="#DejaVuSans-65" x="299.072266"/>
     <use xlink:href="#DejaVuSans-72" x="360.595703"/>
     <use xlink:href="#DejaVuSans-20" x="401.708984"/>
     <use xlink:href="#DejaVuSans-6f" x="433.496094"/>
     <use xlink:href="#DejaVuSans-66" x="494.677734"/>
     <use xlink:href="#DejaVuSans-20" x="529.882812"/>
     <use xlink:href="#DejaVuSans-41" x="561.669922"/>
     <use xlink:href="#DejaVuSans-45" x="630.078125"/>
     <use xlink:href="#DejaVuSans-44" x="693.261719"/>
     <use xlink:href="#DejaVuSans-73" x="770.263672"/>
     <use xlink:href="#DejaVuSans-20" x="822.363281"/>
     <use xlink:href="#DejaVuSans-69" x="854.150391"/>
     <use xlink:href="#DejaVuSans-6e" x="881.933594"/>
     <use xlink:href="#DejaVuSans-20" x="945.3125"/>
     <use xlink:href="#DejaVuSans-74" x="977.099609"/>
     <use xlink:href="#DejaVuSans-68" x="1016.308594"/>
     <use xlink:href="#DejaVuSans-65" x="1079.6875"/>
     <use xlink:href="#DejaVuSans-20" x="1141.210938"/>
     <use xlink:href="#DejaVuSans-4f" x="1172.998047"/>
     <use xlink:href="#DejaVuSans-70" x="1251.708984"/>
     <use xlink:href="#DejaVuSans-65" x="1315.185547"/>
     <use xlink:href="#DejaVuSans-6e" x="1376.708984"/>
     <use xlink:href="#DejaVuSans-53" x="1440.087891"/>
     <use xlink:href="#DejaVuSans-74" x="1503.564453"/>
     <use xlink:href="#DejaVuSans-72" x="1542.773438"/>
     <use xlink:href="#DejaVuSans-65" x="1581.636719"/>
     <use xlink:href="#DejaVuSans-65" x="1643.160156"/>
     <use xlink:href="#DejaVuSans-74" x="1704.683594"/>
     <use xlink:href="#DejaVuSans-4d" x="1743.892578"/>
     <use xlink:href="#DejaVuSans-61" x="1830.171875"/>
     <use xlink:href="#DejaVuSans-70" x="1891.451172"/>
     <use xlink:href="#DejaVuSans-20" x="1954.927734"/>
     <use xlink:href="#DejaVuSans-64" x="1986.714844"/>
     <use xlink:href="#DejaVuSans-61" x="2050.191406"/>
     <use xlink:href="#DejaVuSans-74" x="2111.470703"/>
     <use xlink:href="#DejaVuSans-61" x="2150.679688"/>
     <use xlink:href="#DejaVuSans-62" x="2211.958984"/>
     <use xlink:href="#DejaVuSans-61" x="2275.435547"/>
     <use xlink:href="#DejaVuSans-73" x="2336.714844"/>
     <use xlink:href="#DejaVuSans-65" x="2388.814453"/>
     <use xlink:href="#DejaVuSans-20" x="2450.337891"/>
     <use xlink:href="#DejaVuSans-69" x="2482.125"/>
     <use xlink:href="#DejaVuSans-6e" x="2509.908203"/>
     <use xlink:href="#DejaVuSans-20" x="2573.287109"/>
     <use xlink:href="#DejaVuSans-50" x="2605.074219"/>
     <use xlink:href="#DejaVuSans-6f" x="2661.751953"/>
     <use xlink:href="#DejaVuSans-6c" x="2722.933594"/>
     <use xlink:href="#DejaVuSans-61" x="2750.716797"/>
     <use xlink:href="#DejaVuSans-6e" x="2811.996094"/>
     <use xlink:href="#DejaVuSans-64" x="2875.375"/>
     <use xlink:href="#DejaVuSans-20" x="2938.851562"/>
     <use xlink:href="#DejaVuSans-66" x="2970.638672"/>
     <use xlink:href="#DejaVuSans-72" x="3005.84375"/>
     <use xlink:href="#DejaVuSans-6f" x="3044.707031"/>
     <use xlink:href="#DejaVuSans-6d" x="3105.888672"/>
     <use xlink:href="#DejaVuSans-20" x="3203.300781"/>
     <use xlink:href="#DejaVuSans-32" x="3235.087891"/>
     <use xlink:href="#DejaVuSans-30" x="3298.710938"/>
     <use xlink:href="#DejaVuSans-32" x="3362.333984"/>
     <use xlink:href="#DejaVuSans-33" x="3425.957031"/>
     <use xlink:href="#DejaVuSans-2d" x="3489.580078"/>
     <use xlink:href="#DejaVuSans-30" x="3525.664062"/>
     <use xlink:href="#DejaVuSans-31" x="3589.287109"/>
     <use xlink:href="#DejaVuSans-2d" x="3652.910156"/>
     <use xlink:href="#DejaVuSans-30" x="3688.994141"/>
     <use xlink:href="#DejaVuSans-31" x="3752.617188"/>
     <use xlink:href="#DejaVuSans-2c" x="3816.240234"/>
     <use xlink:href="#DejaVuSans-20" x="3848.027344"/>
     <use xlink:href="#DejaVuSans-64" x="3879.814453"/>
     <use xlink:href="#DejaVuSans-61" x="3943.291016"/>
     <use xlink:href="#DejaVuSans-79" x="4004.570312"/>
     <use xlink:href="#DejaVuSans-20" x="4063.75"/>
     <use xlink:href="#DejaVuSans-62" x="4095.537109"/>
     <use xlink:href="#DejaVuSans-79" x="4159.013672"/>
     <use xlink:href="#DejaVuSans-20" x="4218.193359"/>
     <use xlink:href="#DejaVuSans-64" x="4249.980469"/>
     <use xlink:href="#DejaVuSans-61" x="4313.457031"/>
     <use xlink:href="#DejaVuSans-79" x="4374.736328"/>
     <use xlink:href="#DejaVuSans-2e" x="4419.666016"/>
     <use xlink:href="#DejaVuSans-20" x="4451.453125"/>
     <use xlink:href="#DejaVuSans-41" x="4483.240234"/>
     <use xlink:href="#DejaVuSans-73" x="4551.648438"/>
     <use xlink:href="#DejaVuSans-20" x="4603.748047"/>
     <use xlink:href="#DejaVuSans-61" x="4635.535156"/>
     <use xlink:href="#DejaVuSans-74" x="4696.814453"/>
     <use xlink:href="#DejaVuSans-3a" x="4736.023438"/>
     <use xlink:href="#DejaVuSans-20" x="4769.714844"/>
     <use xlink:href="#DejaVuSans-32" x="4801.501953"/>
     <use xlink:href="#DejaVuSans-30" x="4865.125"/>
     <use xlink:href="#DejaVuSans-32" x="4928.748047"/>
     <use xlink:href="#DejaVuSans-33" x="4992.371094"/>
     <use xlink:href="#DejaVuSans-2d" x="5055.994141"/>
     <use xlink:href="#DejaVuSans-30" x="5092.078125"/>
     <use xlink:href="#DejaVuSans-34" x="5155.701172"/>
     <use xlink:href="#DejaVuSans-2d" x="5219.324219"/>
     <use xlink:href="#DejaVuSans-30" x="5255.408203"/>
     <use xlink:href="#DejaVuSans-31" x="5319.03125"/>
    </g>
   </g>
  </g>
 </g>
 <defs>
  <clipPath id="pfb5baec334">
   <rect x="144" y="69.12" width="892.8" height="443.52"/>
  </clipPath>
 </defs>
</svg>
