<?xml version="1.0" encoding="utf-8" standalone="no"?>
<!DOCTYPE svg PUBLIC "-//W3C//DTD SVG 1.1//EN"
  "http://www.w3.org/Graphics/SVG/1.1/DTD/svg11.dtd">
<svg xmlns:xlink="http://www.w3.org/1999/xlink" width="1152pt" height="576pt" viewBox="0 0 1152 576" xmlns="http://www.w3.org/2000/svg" version="1.1">
 <metadata>
  <rdf:RDF xmlns:dc="http://purl.org/dc/elements/1.1/" xmlns:cc="http://creativecommons.org/ns#" xmlns:rdf="http://www.w3.org/1999/02/22-rdf-syntax-ns#">
   <cc:Work>
    <dc:type rdf:resource="http://purl.org/dc/dcmitype/StillImage"/>
    <dc:date>1980-01-01T00:00:00+00:00</dc:date>
    <dc:format>image/svg+xml</dc:format>
    <dc:creator>
     <cc:Agent>
      <dc:title>Matplotlib v3.9.1, https://matplotlib.org/</dc:title>
     </cc:Agent>
    </dc:creator>
   </cc:Work>
  </rdf:RDF>
 </metadata>
 <defs>
  <style type="text/css">*{stroke-linejoin: round; stroke-linecap: butt}</style>
 </defs>
 <g id="figure_1">
  <g id="patch_1">
   <path d="M 0 576 
L 1152 576 
L 1152 0 
L 0 0 
z
" style="fill: #ffffff"/>
  </g>
  <g id="axes_1">
   <g id="patch_2">
    <path d="M 144 512.64 
L 1036.8 512.64 
L 1036.8 69.12 
L 144 69.12 
z
" style="fill: #ffffff"/>
   </g>
   <g id="PathCollection_1">
    <path d="M 184.581818 496.352983 
C 185.608945 496.352983 186.594142 495.944901 187.320431 495.218613 
C 188.04672 494.492324 188.454802 493.507127 188.454802 492.48 
C 188.454802 491.452873 188.04672 490.467676 187.320431 489.741387 
C 186.594142 489.015099 185.608945 488.607017 184.581818 488.607017 
C 183.554691 488.607017 182.569494 489.015099 181.843205 489.741387 
C 181.116917 490.467676 180.708835 491.452873 180.708835 492.48 
C 180.708835 493.507127 181.116917 494.492324 181.843205 495.218613 
C 182.569494 495.944901 183.554691 496.352983 184.581818 496.352983 
z
" clip-path="url(#pea172bbb34)" style="fill: #1f77b4; fill-opacity: 0.3; stroke: #1f77b4; stroke-opacity: 0.3"/>
    <path d="M 196.344664 494.677387 
C 198.073577 494.677387 199.73191 493.990482 200.954436 492.767956 
C 202.176962 491.54543 202.863866 489.887097 202.863866 488.158184 
C 202.863866 486.429271 202.176962 484.770938 200.954436 483.548412 
C 199.73191 482.325886 198.073577 481.638982 196.344664 481.638982 
C 194.615751 481.638982 192.957418 482.325886 191.734892 483.548412 
C 190.512366 484.770938 189.825462 486.429271 189.825462 488.158184 
C 189.825462 489.887097 190.512366 491.54543 191.734892 492.767956 
C 192.957418 493.990482 194.615751 494.677387 196.344664 494.677387 
z
" clip-path="url(#pea172bbb34)" style="fill: #1f77b4; fill-opacity: 0.3; stroke: #1f77b4; stroke-opacity: 0.3"/>
    <path d="M 208.10751 489.406499 
C 210.326358 489.406499 212.454627 488.524942 214.02359 486.955979 
C 215.592552 485.387016 216.47411 483.258747 216.47411 481.039899 
C 216.47411 478.821051 215.592552 476.692782 214.02359 475.123819 
C 212.454627 473.554857 210.326358 472.673299 208.10751 472.673299 
C 205.888662 472.673299 203.760393 473.554857 202.19143 475.123819 
C 200.622467 476.692782 199.74091 478.821051 199.74091 481.039899 
C 199.74091 483.258747 200.622467 485.387016 202.19143 486.955979 
C 203.760393 488.524942 205.888662 489.406499 208.10751 489.406499 
z
" clip-path="url(#pea172bbb34)" style="fill: #1f77b4; fill-opacity: 0.3; stroke: #1f77b4; stroke-opacity: 0.3"/>
    <path d="M 219.870356 483.487474 
C 221.261093 483.487474 222.595056 482.934929 223.578455 481.951529 
C 224.561854 480.96813 225.1144 479.634167 225.1144 478.24343 
C 225.1144 476.852693 224.561854 475.51873 223.578455 474.535331 
C 222.595056 473.551931 221.261093 472.999386 219.870356 472.999386 
C 218.479619 472.999386 217.145656 473.551931 216.162256 474.535331 
C 215.178857 475.51873 214.626311 476.852693 214.626311 478.24343 
C 214.626311 479.634167 215.178857 480.96813 216.162256 481.951529 
C 217.145656 482.934929 218.479619 483.487474 219.870356 483.487474 
z
" clip-path="url(#pea172bbb34)" style="fill: #1f77b4; fill-opacity: 0.3; stroke: #1f77b4; stroke-opacity: 0.3"/>
    <path d="M 231.633202 480.507842 
C 232.570836 480.507842 233.470194 480.135315 234.133202 479.472308 
C 234.796209 478.8093 235.168735 477.909942 235.168735 476.972308 
C 235.168735 476.034673 234.796209 475.135315 234.133202 474.472308 
C 233.470194 473.8093 232.570836 473.436774 231.633202 473.436774 
C 230.695567 473.436774 229.796209 473.8093 229.133202 474.472308 
C 228.470194 475.135315 228.097668 476.034673 228.097668 476.972308 
C 228.097668 477.909942 228.470194 478.8093 229.133202 479.472308 
C 229.796209 480.135315 230.695567 480.507842 231.633202 480.507842 
z
" clip-path="url(#pea172bbb34)" style="fill: #1f77b4; fill-opacity: 0.3; stroke: #1f77b4; stroke-opacity: 0.3"/>
    <path d="M 243.396047 479.169694 
C 245.12496 479.169694 246.783294 478.48279 248.00582 477.260264 
C 249.228346 476.037738 249.91525 474.379404 249.91525 472.650492 
C 249.91525 470.921579 249.228346 469.263245 248.00582 468.04072 
C 246.783294 466.818194 245.12496 466.131289 243.396047 466.131289 
C 241.667135 466.131289 240.008801 466.818194 238.786275 468.04072 
C 237.563749 469.263245 236.876845 470.921579 236.876845 472.650492 
C 236.876845 474.379404 237.563749 476.037738 238.786275 477.260264 
C 240.008801 478.48279 241.667135 479.169694 243.396047 479.169694 
z
" clip-path="url(#pea172bbb34)" style="fill: #1f77b4; fill-opacity: 0.3; stroke: #1f77b4; stroke-opacity: 0.3"/>
    <path d="M 255.158893 474.960849 
C 256.782924 474.960849 258.340657 474.315615 259.48902 473.167252 
C 260.637383 472.018889 261.282618 470.461156 261.282618 468.837125 
C 261.282618 467.213094 260.637383 465.655361 259.48902 464.506998 
C 258.340657 463.358635 256.782924 462.7134 255.158893 462.7134 
C 253.534863 462.7134 251.977129 463.358635 250.828766 464.506998 
C 249.680403 465.655361 249.035169 467.213094 249.035169 468.837125 
C 249.035169 470.461156 249.680403 472.018889 250.828766 473.167252 
C 251.977129 474.315615 253.534863 474.960849 255.158893 474.960849 
z
" clip-path="url(#pea172bbb34)" style="fill: #1f77b4; fill-opacity: 0.3; stroke: #1f77b4; stroke-opacity: 0.3"/>
    <path d="M 266.921739 468.79658 
C 269.54041 468.79658 272.052179 467.756171 273.903859 465.904491 
C 275.755539 464.052811 276.795948 461.541042 276.795948 458.922371 
C 276.795948 456.3037 275.755539 453.791931 273.903859 451.940251 
C 272.052179 450.088571 269.54041 449.048162 266.921739 449.048162 
C 264.303068 449.048162 261.791299 450.088571 259.939619 451.940251 
C 258.087939 453.791931 257.04753 456.3037 257.04753 458.922371 
C 257.04753 461.541042 258.087939 464.052811 259.939619 465.904491 
C 261.791299 467.756171 264.303068 468.79658 266.921739 468.79658 
z
" clip-path="url(#pea172bbb34)" style="fill: #1f77b4; fill-opacity: 0.3; stroke: #1f77b4; stroke-opacity: 0.3"/>
    <path d="M 278.684585 460.908949 
C 280.559854 460.908949 282.358569 460.163897 283.684585 458.837881 
C 285.0106 457.511866 285.755653 455.713151 285.755653 453.837881 
C 285.755653 451.962612 285.0106 450.163897 283.684585 448.837881 
C 282.358569 447.511866 280.559854 446.766814 278.684585 446.766814 
C 276.809316 446.766814 275.0106 447.511866 273.684585 448.837881 
C 272.358569 450.163897 271.613517 451.962612 271.613517 453.837881 
C 271.613517 455.713151 272.358569 457.511866 273.684585 458.837881 
C 275.0106 460.163897 276.809316 460.908949 278.684585 460.908949 
z
" clip-path="url(#pea172bbb34)" style="fill: #1f77b4; fill-opacity: 0.3; stroke: #1f77b4; stroke-opacity: 0.3"/>
    <path d="M 290.447431 456.293278 
C 291.7054 456.293278 292.912015 455.793481 293.801533 454.903963 
C 294.691051 454.014445 295.190847 452.80783 295.190847 451.549861 
C 295.190847 450.291893 294.691051 449.085278 293.801533 448.195759 
C 292.912015 447.306241 291.7054 446.806445 290.447431 446.806445 
C 289.189462 446.806445 287.982847 447.306241 287.093329 448.195759 
C 286.203811 449.085278 285.704014 450.291893 285.704014 451.549861 
C 285.704014 452.80783 286.203811 454.014445 287.093329 454.903963 
C 287.982847 455.793481 289.189462 456.293278 290.447431 456.293278 
z
" clip-path="url(#pea172bbb34)" style="fill: #1f77b4; fill-opacity: 0.3; stroke: #1f77b4; stroke-opacity: 0.3"/>
    <path d="M 302.210277 453.27748 
C 302.803289 453.27748 303.372093 453.041874 303.791416 452.622551 
C 304.210738 452.203228 304.446345 451.634425 304.446345 451.041412 
C 304.446345 450.4484 304.210738 449.879596 303.791416 449.460274 
C 303.372093 449.040951 302.803289 448.805344 302.210277 448.805344 
C 301.617265 448.805344 301.048461 449.040951 300.629138 449.460274 
C 300.209815 449.879596 299.974209 450.4484 299.974209 451.041412 
C 299.974209 451.634425 300.209815 452.203228 300.629138 452.622551 
C 301.048461 453.041874 301.617265 453.27748 302.210277 453.27748 
z
" clip-path="url(#pea172bbb34)" style="fill: #1f77b4; fill-opacity: 0.3; stroke: #1f77b4; stroke-opacity: 0.3"/>
    <path d="M 313.973123 451.000867 
C 316.591793 451.000867 319.103563 449.960458 320.955243 448.108778 
C 322.806922 446.257098 323.847331 443.745329 323.847331 441.126658 
C 323.847331 438.507987 322.806922 435.996218 320.955243 434.144538 
C 319.103563 432.292858 316.591793 431.252449 313.973123 431.252449 
C 311.354452 431.252449 308.842682 432.292858 306.991003 434.144538 
C 305.139323 435.996218 304.098914 438.507987 304.098914 441.126658 
C 304.098914 443.745329 305.139323 446.257098 306.991003 448.108778 
C 308.842682 449.960458 311.354452 451.000867 313.973123 451.000867 
z
" clip-path="url(#pea172bbb34)" style="fill: #1f77b4; fill-opacity: 0.3; stroke: #1f77b4; stroke-opacity: 0.3"/>
    <path d="M 325.735968 442.676741 
C 327.832583 442.676741 329.843608 441.843747 331.326138 440.361217 
C 332.808669 438.878686 333.641663 436.867661 333.641663 434.771047 
C 333.641663 432.674432 332.808669 430.663407 331.326138 429.180877 
C 329.843608 427.698346 327.832583 426.865353 325.735968 426.865353 
C 323.639354 426.865353 321.628329 427.698346 320.145798 429.180877 
C 318.663268 430.663407 317.830274 432.674432 317.830274 434.771047 
C 317.830274 436.867661 318.663268 438.878686 320.145798 440.361217 
C 321.628329 441.843747 323.639354 442.676741 325.735968 442.676741 
z
" clip-path="url(#pea172bbb34)" style="fill: #1f77b4; fill-opacity: 0.3; stroke: #1f77b4; stroke-opacity: 0.3"/>
    <path d="M 337.498814 437.167006 
C 339.010705 437.167006 340.460875 436.566325 341.529943 435.497257 
C 342.599011 434.42819 343.199691 432.978019 343.199691 431.466129 
C 343.199691 429.954238 342.599011 428.504068 341.529943 427.435 
C 340.460875 426.365932 339.010705 425.765251 337.498814 425.765251 
C 335.986924 425.765251 334.536753 426.365932 333.467685 427.435 
C 332.398617 428.504068 331.797937 429.954238 331.797937 431.466129 
C 331.797937 432.978019 332.398617 434.42819 333.467685 435.497257 
C 334.536753 436.566325 335.986924 437.167006 337.498814 437.167006 
z
" clip-path="url(#pea172bbb34)" style="fill: #1f77b4; fill-opacity: 0.3; stroke: #1f77b4; stroke-opacity: 0.3"/>
    <path d="M 349.26166 432.275218 
C 351.633709 432.275218 353.908924 431.332793 355.586215 429.655501 
C 357.263507 427.978209 358.205932 425.702994 358.205932 423.330946 
C 358.205932 420.958897 357.263507 418.683682 355.586215 417.00639 
C 353.908924 415.329099 351.633709 414.386674 349.26166 414.386674 
C 346.889611 414.386674 344.614396 415.329099 342.937105 417.00639 
C 341.259813 418.683682 340.317388 420.958897 340.317388 423.330946 
C 340.317388 425.702994 341.259813 427.978209 342.937105 429.655501 
C 344.614396 431.332793 346.889611 432.275218 349.26166 432.275218 
z
" clip-path="url(#pea172bbb34)" style="fill: #1f77b4; fill-opacity: 0.3; stroke: #1f77b4; stroke-opacity: 0.3"/>
    <path d="M 361.024506 422.767514 
C 363.77419 422.767514 366.411625 421.675053 368.355945 419.730733 
C 370.300265 417.786413 371.392727 415.148978 371.392727 412.399294 
C 371.392727 409.64961 370.300265 407.012175 368.355945 405.067855 
C 366.411625 403.123534 363.77419 402.031073 361.024506 402.031073 
C 358.274822 402.031073 355.637387 403.123534 353.693067 405.067855 
C 351.748746 407.012175 350.656285 409.64961 350.656285 412.399294 
C 350.656285 415.148978 351.748746 417.786413 353.693067 419.730733 
C 355.637387 421.675053 358.274822 422.767514 361.024506 422.767514 
z
" clip-path="url(#pea172bbb34)" style="fill: #1f77b4; fill-opacity: 0.3; stroke: #1f77b4; stroke-opacity: 0.3"/>
    <path d="M 372.787352 414.544674 
C 373.625998 414.544674 374.430408 414.211476 375.02342 413.618464 
C 375.616432 413.025452 375.949629 412.221042 375.949629 411.382396 
C 375.949629 410.54375 375.616432 409.73934 375.02342 409.146328 
C 374.430408 408.553316 373.625998 408.220118 372.787352 408.220118 
C 371.948706 408.220118 371.144296 408.553316 370.551284 409.146328 
C 369.958272 409.73934 369.625074 410.54375 369.625074 411.382396 
C 369.625074 412.221042 369.958272 413.025452 370.551284 413.618464 
C 371.144296 414.211476 371.948706 414.544674 372.787352 414.544674 
z
" clip-path="url(#pea172bbb34)" style="fill: #1f77b4; fill-opacity: 0.3; stroke: #1f77b4; stroke-opacity: 0.3"/>
    <path d="M 384.550198 413.829971 
C 385.940934 413.829971 387.274897 413.277426 388.258297 412.294026 
C 389.241696 411.310627 389.794242 409.976664 389.794242 408.585927 
C 389.794242 407.19519 389.241696 405.861227 388.258297 404.877828 
C 387.274897 403.894428 385.940934 403.341883 384.550198 403.341883 
C 383.159461 403.341883 381.825498 403.894428 380.842098 404.877828 
C 379.858699 405.861227 379.306153 407.19519 379.306153 408.585927 
C 379.306153 409.976664 379.858699 411.310627 380.842098 412.294026 
C 381.825498 413.277426 383.159461 413.829971 384.550198 413.829971 
z
" clip-path="url(#pea172bbb34)" style="fill: #1f77b4; fill-opacity: 0.3; stroke: #1f77b4; stroke-opacity: 0.3"/>
    <path d="M 396.313043 409.937705 
C 398.491909 409.937705 400.581828 409.072032 402.122518 407.531341 
C 403.663209 405.990651 404.528882 403.900732 404.528882 401.721866 
C 404.528882 399.543001 403.663209 397.453082 402.122518 395.912391 
C 400.581828 394.371701 398.491909 393.506028 396.313043 393.506028 
C 394.134178 393.506028 392.044259 394.371701 390.503568 395.912391 
C 388.962878 397.453082 388.097205 399.543001 388.097205 401.721866 
C 388.097205 403.900732 388.962878 405.990651 390.503568 407.531341 
C 392.044259 409.072032 394.134178 409.937705 396.313043 409.937705 
z
" clip-path="url(#pea172bbb34)" style="fill: #1f77b4; fill-opacity: 0.3; stroke: #1f77b4; stroke-opacity: 0.3"/>
    <path d="M 408.075889 404.148398 
C 409.528467 404.148398 410.921745 403.571283 411.948873 402.544156 
C 412.976 401.517029 413.553115 400.12375 413.553115 398.671173 
C 413.553115 397.218596 412.976 395.825317 411.948873 394.798189 
C 410.921745 393.771062 409.528467 393.193947 408.075889 393.193947 
C 406.623312 393.193947 405.230033 393.771062 404.202906 394.798189 
C 403.175779 395.825317 402.598664 397.218596 402.598664 398.671173 
C 402.598664 400.12375 403.175779 401.517029 404.202906 402.544156 
C 405.230033 403.571283 406.623312 404.148398 408.075889 404.148398 
z
" clip-path="url(#pea172bbb34)" style="fill: #1f77b4; fill-opacity: 0.3; stroke: #1f77b4; stroke-opacity: 0.3"/>
    <path d="M 419.838735 397.140289 
C 422.803796 397.140289 425.647815 395.962258 427.744429 393.865644 
C 429.841044 391.769029 431.019075 388.92501 431.019075 385.95995 
C 431.019075 382.994889 429.841044 380.15087 427.744429 378.054255 
C 425.647815 375.957641 422.803796 374.77961 419.838735 374.77961 
C 416.873674 374.77961 414.029656 375.957641 411.933041 378.054255 
C 409.836426 380.15087 408.658395 382.994889 408.658395 385.95995 
C 408.658395 388.92501 409.836426 391.769029 411.933041 393.865644 
C 414.029656 395.962258 416.873674 397.140289 419.838735 397.140289 
z
" clip-path="url(#pea172bbb34)" style="fill: #1f77b4; fill-opacity: 0.3; stroke: #1f77b4; stroke-opacity: 0.3"/>
    <path d="M 431.601581 387.311727 
C 433.780447 387.311727 435.870365 386.446055 437.411056 384.905364 
C 438.951747 383.364673 439.817419 381.274755 439.817419 379.095889 
C 439.817419 376.917023 438.951747 374.827105 437.411056 373.286414 
C 435.870365 371.745723 433.780447 370.880051 431.601581 370.880051 
C 429.422715 370.880051 427.332797 371.745723 425.792106 373.286414 
C 424.251415 374.827105 423.385743 376.917023 423.385743 379.095889 
C 423.385743 381.274755 424.251415 383.364673 425.792106 384.905364 
C 427.332797 386.446055 429.422715 387.311727 431.601581 387.311727 
z
" clip-path="url(#pea172bbb34)" style="fill: #1f77b4; fill-opacity: 0.3; stroke: #1f77b4; stroke-opacity: 0.3"/>
    <path d="M 443.364427 380.740469 
C 445.418681 380.740469 447.389075 379.924305 448.841652 378.471727 
C 450.29423 377.01915 451.110394 375.048756 451.110394 372.994502 
C 451.110394 370.940248 450.29423 368.969854 448.841652 367.517276 
C 447.389075 366.064699 445.418681 365.248535 443.364427 365.248535 
C 441.310172 365.248535 439.339779 366.064699 437.887201 367.517276 
C 436.434624 368.969854 435.61846 370.940248 435.61846 372.994502 
C 435.61846 375.048756 436.434624 377.01915 437.887201 378.471727 
C 439.339779 379.924305 441.310172 380.740469 443.364427 380.740469 
z
" clip-path="url(#pea172bbb34)" style="fill: #1f77b4; fill-opacity: 0.3; stroke: #1f77b4; stroke-opacity: 0.3"/>
    <path d="M 455.127273 374.136686 
C 457.385396 374.136686 459.551336 373.239524 461.14807 371.64279 
C 462.744804 370.046056 463.641966 367.880115 463.641966 365.621992 
C 463.641966 363.363869 462.744804 361.197929 461.14807 359.601195 
C 459.551336 358.004461 457.385396 357.107299 455.127273 357.107299 
C 452.86915 357.107299 450.70321 358.004461 449.106475 359.601195 
C 447.509741 361.197929 446.61258 363.363869 446.61258 365.621992 
C 446.61258 367.880115 447.509741 370.046056 449.106475 371.64279 
C 450.70321 373.239524 452.86915 374.136686 455.127273 374.136686 
z
" clip-path="url(#pea172bbb34)" style="fill: #1f77b4; fill-opacity: 0.3; stroke: #1f77b4; stroke-opacity: 0.3"/>
    <path d="M 466.890119 367.767372 
C 467.728764 367.767372 468.533174 367.434175 469.126187 366.841163 
C 469.719199 366.24815 470.052396 365.44374 470.052396 364.605095 
C 470.052396 363.766449 469.719199 362.962039 469.126187 362.369027 
C 468.533174 361.776014 467.728764 361.442817 466.890119 361.442817 
C 466.051473 361.442817 465.247063 361.776014 464.654051 362.369027 
C 464.061038 362.962039 463.727841 363.766449 463.727841 364.605095 
C 463.727841 365.44374 464.061038 366.24815 464.654051 366.841163 
C 465.247063 367.434175 466.051473 367.767372 466.890119 367.767372 
z
" clip-path="url(#pea172bbb34)" style="fill: #1f77b4; fill-opacity: 0.3; stroke: #1f77b4; stroke-opacity: 0.3"/>
    <path d="M 478.652964 366.750474 
C 479.49161 366.750474 480.29602 366.417277 480.889032 365.824265 
C 481.482045 365.231253 481.815242 364.426843 481.815242 363.588197 
C 481.815242 362.749551 481.482045 361.945141 480.889032 361.352129 
C 480.29602 360.759117 479.49161 360.425919 478.652964 360.425919 
C 477.814319 360.425919 477.009909 360.759117 476.416896 361.352129 
C 475.823884 361.945141 475.490687 362.749551 475.490687 363.588197 
C 475.490687 364.426843 475.823884 365.231253 476.416896 365.824265 
C 477.009909 366.417277 477.814319 366.750474 478.652964 366.750474 
z
" clip-path="url(#pea172bbb34)" style="fill: #1f77b4; fill-opacity: 0.3; stroke: #1f77b4; stroke-opacity: 0.3"/>
    <path d="M 490.41581 363.922949 
C 492.931748 363.922949 495.344978 362.923356 497.124014 361.14432 
C 498.903051 359.365283 499.902643 356.952054 499.902643 354.436116 
C 499.902643 351.920178 498.903051 349.506949 497.124014 347.727912 
C 495.344978 345.948876 492.931748 344.949283 490.41581 344.949283 
C 487.899873 344.949283 485.486643 345.948876 483.707606 347.727912 
C 481.92857 349.506949 480.928977 351.920178 480.928977 354.436116 
C 480.928977 356.952054 481.92857 359.365283 483.707606 361.14432 
C 485.486643 362.923356 487.899873 363.922949 490.41581 363.922949 
z
" clip-path="url(#pea172bbb34)" style="fill: #1f77b4; fill-opacity: 0.3; stroke: #1f77b4; stroke-opacity: 0.3"/>
    <path d="M 502.178656 352.905233 
C 505.143717 352.905233 507.987736 351.727202 510.08435 349.630587 
C 512.180965 347.533972 513.358996 344.689954 513.358996 341.724893 
C 513.358996 338.759832 512.180965 335.915813 510.08435 333.819199 
C 507.987736 331.722584 505.143717 330.544553 502.178656 330.544553 
C 499.213595 330.544553 496.369577 331.722584 494.272962 333.819199 
C 492.176347 335.915813 490.998316 338.759832 490.998316 341.724893 
C 490.998316 344.689954 492.176347 347.533972 494.272962 349.630587 
C 496.369577 351.727202 499.213595 352.905233 502.178656 352.905233 
z
" clip-path="url(#pea172bbb34)" style="fill: #1f77b4; fill-opacity: 0.3; stroke: #1f77b4; stroke-opacity: 0.3"/>
    <path d="M 513.941502 342.533982 
C 516.313551 342.533982 518.588766 341.591557 520.266057 339.914265 
C 521.943349 338.236974 522.885774 335.961759 522.885774 333.58971 
C 522.885774 331.217661 521.943349 328.942446 520.266057 327.265155 
C 518.588766 325.587863 516.313551 324.645438 513.941502 324.645438 
C 511.569453 324.645438 509.294238 325.587863 507.616947 327.265155 
C 505.939655 328.942446 504.99723 331.217661 504.99723 333.58971 
C 504.99723 335.961759 505.939655 338.236974 507.616947 339.914265 
C 509.294238 341.591557 511.569453 342.533982 513.941502 342.533982 
z
" clip-path="url(#pea172bbb34)" style="fill: #1f77b4; fill-opacity: 0.3; stroke: #1f77b4; stroke-opacity: 0.3"/>
    <path d="M 525.704348 334.941488 
C 527.883214 334.941488 529.973132 334.075815 531.513823 332.535124 
C 533.054514 330.994434 533.920186 328.904515 533.920186 326.725649 
C 533.920186 324.546784 533.054514 322.456865 531.513823 320.916174 
C 529.973132 319.375484 527.883214 318.509811 525.704348 318.509811 
C 523.525482 318.509811 521.435564 319.375484 519.894873 320.916174 
C 518.354182 322.456865 517.488509 324.546784 517.488509 326.725649 
C 517.488509 328.904515 518.354182 330.994434 519.894873 332.535124 
C 521.435564 334.075815 523.525482 334.941488 525.704348 334.941488 
z
" clip-path="url(#pea172bbb34)" style="fill: #1f77b4; fill-opacity: 0.3; stroke: #1f77b4; stroke-opacity: 0.3"/>
    <path d="M 537.467194 328.871029 
C 538.30584 328.871029 539.110249 328.537832 539.703262 327.94482 
C 540.296274 327.351807 540.629471 326.547397 540.629471 325.708752 
C 540.629471 324.870106 540.296274 324.065696 539.703262 323.472684 
C 539.110249 322.879671 538.30584 322.546474 537.467194 322.546474 
C 536.628548 322.546474 535.824138 322.879671 535.231126 323.472684 
C 534.638114 324.065696 534.304916 324.870106 534.304916 325.708752 
C 534.304916 326.547397 534.638114 327.351807 535.231126 327.94482 
C 535.824138 328.537832 536.628548 328.871029 537.467194 328.871029 
z
" clip-path="url(#pea172bbb34)" style="fill: #1f77b4; fill-opacity: 0.3; stroke: #1f77b4; stroke-opacity: 0.3"/>
    <path d="M 549.23004 328.156327 
C 550.620776 328.156327 551.954739 327.603781 552.938139 326.620382 
C 553.921538 325.636982 554.474084 324.303019 554.474084 322.912282 
C 554.474084 321.521546 553.921538 320.187583 552.938139 319.204183 
C 551.954739 318.220784 550.620776 317.668238 549.23004 317.668238 
C 547.839303 317.668238 546.50534 318.220784 545.52194 319.204183 
C 544.538541 320.187583 543.985995 321.521546 543.985995 322.912282 
C 543.985995 324.303019 544.538541 325.636982 545.52194 326.620382 
C 546.50534 327.603781 547.839303 328.156327 549.23004 328.156327 
z
" clip-path="url(#pea172bbb34)" style="fill: #1f77b4; fill-opacity: 0.3; stroke: #1f77b4; stroke-opacity: 0.3"/>
    <path d="M 560.992885 324.898861 
C 562.868154 324.898861 564.66687 324.153809 565.992885 322.827793 
C 567.318901 321.501778 568.063953 319.703062 568.063953 317.827793 
C 568.063953 315.952524 567.318901 314.153809 565.992885 312.827793 
C 564.66687 311.501778 562.868154 310.756725 560.992885 310.756725 
C 559.117616 310.756725 557.318901 311.501778 555.992885 312.827793 
C 554.66687 314.153809 553.921818 315.952524 553.921818 317.827793 
C 553.921818 319.703062 554.66687 321.501778 555.992885 322.827793 
C 557.318901 324.153809 559.117616 324.898861 560.992885 324.898861 
z
" clip-path="url(#pea172bbb34)" style="fill: #1f77b4; fill-opacity: 0.3; stroke: #1f77b4; stroke-opacity: 0.3"/>
    <path d="M 572.755731 319.472373 
C 574.809986 319.472373 576.78038 318.656209 578.232957 317.203632 
C 579.685534 315.751054 580.501698 313.78066 580.501698 311.726406 
C 580.501698 309.672152 579.685534 307.701758 578.232957 306.24918 
C 576.78038 304.796603 574.809986 303.980439 572.755731 303.980439 
C 570.701477 303.980439 568.731083 304.796603 567.278506 306.24918 
C 565.825928 307.701758 565.009765 309.672152 565.009765 311.726406 
C 565.009765 313.78066 565.825928 315.751054 567.278506 317.203632 
C 568.731083 318.656209 570.701477 319.472373 572.755731 319.472373 
z
" clip-path="url(#pea172bbb34)" style="fill: #1f77b4; fill-opacity: 0.3; stroke: #1f77b4; stroke-opacity: 0.3"/>
    <path d="M 584.518577 314.164746 
C 585.704601 314.164746 586.842209 313.693534 587.680855 312.854888 
C 588.519501 312.016242 588.990713 310.878635 588.990713 309.69261 
C 588.990713 308.506586 588.519501 307.368979 587.680855 306.530333 
C 586.842209 305.691687 585.704601 305.220474 584.518577 305.220474 
C 583.332553 305.220474 582.194945 305.691687 581.356299 306.530333 
C 580.517654 307.368979 580.046441 308.506586 580.046441 309.69261 
C 580.046441 310.878635 580.517654 312.016242 581.356299 312.854888 
C 582.194945 313.693534 583.332553 314.164746 584.518577 314.164746 
z
" clip-path="url(#pea172bbb34)" style="fill: #1f77b4; fill-opacity: 0.3; stroke: #1f77b4; stroke-opacity: 0.3"/>
    <path d="M 596.281423 310.940926 
C 598.500271 310.940926 600.62854 310.059368 602.197503 308.490405 
C 603.766465 306.921442 604.648023 304.793174 604.648023 302.574325 
C 604.648023 300.355477 603.766465 298.227208 602.197503 296.658246 
C 600.62854 295.089283 598.500271 294.207725 596.281423 294.207725 
C 594.062575 294.207725 591.934306 295.089283 590.365343 296.658246 
C 588.79638 298.227208 587.914823 300.355477 587.914823 302.574325 
C 587.914823 304.793174 588.79638 306.921442 590.365343 308.490405 
C 591.934306 310.059368 594.062575 310.940926 596.281423 310.940926 
z
" clip-path="url(#pea172bbb34)" style="fill: #1f77b4; fill-opacity: 0.3; stroke: #1f77b4; stroke-opacity: 0.3"/>
    <path d="M 608.044269 304.771712 
C 609.773181 304.771712 611.431515 304.084808 612.654041 302.862282 
C 613.876567 301.639756 614.563471 299.981422 614.563471 298.252509 
C 614.563471 296.523597 613.876567 294.865263 612.654041 293.642737 
C 611.431515 292.420211 609.773181 291.733307 608.044269 291.733307 
C 606.315356 291.733307 604.657022 292.420211 603.434497 293.642737 
C 602.211971 294.865263 601.525066 296.523597 601.525066 298.252509 
C 601.525066 299.981422 602.211971 301.639756 603.434497 302.862282 
C 604.657022 304.084808 606.315356 304.771712 608.044269 304.771712 
z
" clip-path="url(#pea172bbb34)" style="fill: #1f77b4; fill-opacity: 0.3; stroke: #1f77b4; stroke-opacity: 0.3"/>
    <path d="M 619.807115 300.700085 
C 621.197851 300.700085 622.531814 300.147539 623.515214 299.16414 
C 624.498613 298.18074 625.051159 296.846777 625.051159 295.45604 
C 625.051159 294.065304 624.498613 292.731341 623.515214 291.747941 
C 622.531814 290.764542 621.197851 290.211996 619.807115 290.211996 
C 618.416378 290.211996 617.082415 290.764542 616.099015 291.747941 
C 615.115616 292.731341 614.56307 294.065304 614.56307 295.45604 
C 614.56307 296.846777 615.115616 298.18074 616.099015 299.16414 
C 617.082415 300.147539 618.416378 300.700085 619.807115 300.700085 
z
" clip-path="url(#pea172bbb34)" style="fill: #1f77b4; fill-opacity: 0.3; stroke: #1f77b4; stroke-opacity: 0.3"/>
    <path d="M 631.56996 295.415495 
C 634.188631 295.415495 636.700401 294.375086 638.55208 292.523406 
C 640.40376 290.671726 641.444169 288.159957 641.444169 285.541286 
C 641.444169 282.922615 640.40376 280.410846 638.55208 278.559166 
C 636.700401 276.707486 634.188631 275.667077 631.56996 275.667077 
C 628.95129 275.667077 626.43952 276.707486 624.58784 278.559166 
C 622.736161 280.410846 621.695752 282.922615 621.695752 285.541286 
C 621.695752 288.159957 622.736161 290.671726 624.58784 292.523406 
C 626.43952 294.375086 628.95129 295.415495 631.56996 295.415495 
z
" clip-path="url(#pea172bbb34)" style="fill: #1f77b4; fill-opacity: 0.3; stroke: #1f77b4; stroke-opacity: 0.3"/>
    <path d="M 643.332806 287.967818 
C 644.785384 287.967818 646.178662 287.390703 647.20579 286.363576 
C 648.232917 285.336449 648.810032 283.94317 648.810032 282.490593 
C 648.810032 281.038015 648.232917 279.644737 647.20579 278.617609 
C 646.178662 277.590482 644.785384 277.013367 643.332806 277.013367 
C 641.880229 277.013367 640.48695 277.590482 639.459823 278.617609 
C 638.432696 279.644737 637.855581 281.038015 637.855581 282.490593 
C 637.855581 283.94317 638.432696 285.336449 639.459823 286.363576 
C 640.48695 287.390703 641.880229 287.967818 643.332806 287.967818 
z
" clip-path="url(#pea172bbb34)" style="fill: #1f77b4; fill-opacity: 0.3; stroke: #1f77b4; stroke-opacity: 0.3"/>
    <path d="M 655.095652 283.066505 
C 657.540704 283.066505 659.885942 282.095076 661.614855 280.366163 
C 663.343767 278.637251 664.315197 276.292013 664.315197 273.846961 
C 664.315197 271.401909 663.343767 269.056671 661.614855 267.327759 
C 659.885942 265.598846 657.540704 264.627416 655.095652 264.627416 
C 652.6506 264.627416 650.305362 265.598846 648.57645 267.327759 
C 646.847537 269.056671 645.876108 271.401909 645.876108 273.846961 
C 645.876108 276.292013 646.847537 278.637251 648.57645 280.366163 
C 650.305362 282.095076 652.6506 283.066505 655.095652 283.066505 
z
" clip-path="url(#pea172bbb34)" style="fill: #1f77b4; fill-opacity: 0.3; stroke: #1f77b4; stroke-opacity: 0.3"/>
    <path d="M 666.858498 275.833539 
C 668.733767 275.833539 670.532483 275.088487 671.858498 273.762472 
C 673.184514 272.436456 673.929566 270.637741 673.929566 268.762472 
C 673.929566 266.887203 673.184514 265.088487 671.858498 263.762472 
C 670.532483 262.436456 668.733767 261.691404 666.858498 261.691404 
C 664.983229 261.691404 663.184514 262.436456 661.858498 263.762472 
C 660.532483 265.088487 659.78743 266.887203 659.78743 268.762472 
C 659.78743 270.637741 660.532483 272.436456 661.858498 273.762472 
C 663.184514 275.088487 664.983229 275.833539 666.858498 275.833539 
z
" clip-path="url(#pea172bbb34)" style="fill: #1f77b4; fill-opacity: 0.3; stroke: #1f77b4; stroke-opacity: 0.3"/>
    <path d="M 678.621344 271.189004 
C 680.073921 271.189004 681.4672 270.611889 682.494327 269.584761 
C 683.521454 268.557634 684.098569 267.164355 684.098569 265.711778 
C 684.098569 264.259201 683.521454 262.865922 682.494327 261.838795 
C 681.4672 260.811668 680.073921 260.234552 678.621344 260.234552 
C 677.168767 260.234552 675.775488 260.811668 674.748361 261.838795 
C 673.721233 262.865922 673.144118 264.259201 673.144118 265.711778 
C 673.144118 267.164355 673.721233 268.557634 674.748361 269.584761 
C 675.775488 270.611889 677.168767 271.189004 678.621344 271.189004 
z
" clip-path="url(#pea172bbb34)" style="fill: #1f77b4; fill-opacity: 0.3; stroke: #1f77b4; stroke-opacity: 0.3"/>
    <path d="M 690.38419 267.698357 
C 692.259459 267.698357 694.058174 266.953304 695.38419 265.627289 
C 696.710205 264.301273 697.455258 262.502558 697.455258 260.627289 
C 697.455258 258.75202 696.710205 256.953304 695.38419 255.627289 
C 694.058174 254.301273 692.259459 253.556221 690.38419 253.556221 
C 688.508921 253.556221 686.710205 254.301273 685.38419 255.627289 
C 684.058174 256.953304 683.313122 258.75202 683.313122 260.627289 
C 683.313122 262.502558 684.058174 264.301273 685.38419 265.627289 
C 686.710205 266.953304 688.508921 267.698357 690.38419 267.698357 
z
" clip-path="url(#pea172bbb34)" style="fill: #1f77b4; fill-opacity: 0.3; stroke: #1f77b4; stroke-opacity: 0.3"/>
    <path d="M 702.147036 263.082685 
C 703.405004 263.082685 704.611619 262.582889 705.501138 261.693371 
C 706.390656 260.803852 706.890452 259.597237 706.890452 258.339269 
C 706.890452 257.0813 706.390656 255.874685 705.501138 254.985167 
C 704.611619 254.095648 703.405004 253.595852 702.147036 253.595852 
C 700.889067 253.595852 699.682452 254.095648 698.792934 254.985167 
C 697.903415 255.874685 697.403619 257.0813 697.403619 258.339269 
C 697.403619 259.597237 697.903415 260.803852 698.792934 261.693371 
C 699.682452 262.582889 700.889067 263.082685 702.147036 263.082685 
z
" clip-path="url(#pea172bbb34)" style="fill: #1f77b4; fill-opacity: 0.3; stroke: #1f77b4; stroke-opacity: 0.3"/>
    <path d="M 713.909881 258.550655 
C 716.460523 258.550655 718.907041 257.537275 720.710617 255.733699 
C 722.514193 253.930123 723.527573 251.483605 723.527573 248.932963 
C 723.527573 246.382322 722.514193 243.935804 720.710617 242.132228 
C 718.907041 240.328652 716.460523 239.315271 713.909881 239.315271 
C 711.35924 239.315271 708.912722 240.328652 707.109146 242.132228 
C 705.30557 243.935804 704.292189 246.382322 704.292189 248.932963 
C 704.292189 251.483605 705.30557 253.930123 707.109146 255.733699 
C 708.912722 257.537275 711.35924 258.550655 713.909881 258.550655 
z
" clip-path="url(#pea172bbb34)" style="fill: #1f77b4; fill-opacity: 0.3; stroke: #1f77b4; stroke-opacity: 0.3"/>
    <path d="M 725.672727 247.68464 
C 728.577882 247.68464 731.36444 246.53041 733.418694 244.476156 
C 735.472948 242.421901 736.627178 239.635344 736.627178 236.730189 
C 736.627178 233.825035 735.472948 231.038477 733.418694 228.984222 
C 731.36444 226.929968 728.577882 225.775738 725.672727 225.775738 
C 722.767573 225.775738 719.981015 226.929968 717.926761 228.984222 
C 715.872506 231.038477 714.718276 233.825035 714.718276 236.730189 
C 714.718276 239.635344 715.872506 242.421901 717.926761 244.476156 
C 719.981015 246.53041 722.767573 247.68464 725.672727 247.68464 
z
" clip-path="url(#pea172bbb34)" style="fill: #1f77b4; fill-opacity: 0.3; stroke: #1f77b4; stroke-opacity: 0.3"/>
    <path d="M 737.435573 239.185585 
C 738.693542 239.185585 739.900157 238.685789 740.789675 237.796271 
C 741.679193 236.906753 742.17899 235.700138 742.17899 234.442169 
C 742.17899 233.1842 741.679193 231.977585 740.789675 231.088067 
C 739.900157 230.198549 738.693542 229.698752 737.435573 229.698752 
C 736.177604 229.698752 734.970989 230.198549 734.081471 231.088067 
C 733.191953 231.977585 732.692157 233.1842 732.692157 234.442169 
C 732.692157 235.700138 733.191953 236.906753 734.081471 237.796271 
C 734.970989 238.685789 736.177604 239.185585 737.435573 239.185585 
z
" clip-path="url(#pea172bbb34)" style="fill: #1f77b4; fill-opacity: 0.3; stroke: #1f77b4; stroke-opacity: 0.3"/>
    <path d="M 749.198419 236.428748 
C 751.073688 236.428748 752.872403 235.683695 754.198419 234.35768 
C 755.524434 233.031664 756.269487 231.232949 756.269487 229.35768 
C 756.269487 227.482411 755.524434 225.683695 754.198419 224.35768 
C 752.872403 223.031664 751.073688 222.286612 749.198419 222.286612 
C 747.32315 222.286612 745.524434 223.031664 744.198419 224.35768 
C 742.872403 225.683695 742.127351 227.482411 742.127351 229.35768 
C 742.127351 231.232949 742.872403 233.031664 744.198419 234.35768 
C 745.524434 235.683695 747.32315 236.428748 749.198419 236.428748 
z
" clip-path="url(#pea172bbb34)" style="fill: #1f77b4; fill-opacity: 0.3; stroke: #1f77b4; stroke-opacity: 0.3"/>
    <path d="M 760.961265 231.344258 
C 762.836534 231.344258 764.635249 230.599206 765.961265 229.27319 
C 767.28728 227.947175 768.032333 226.14846 768.032333 224.27319 
C 768.032333 222.397921 767.28728 220.599206 765.961265 219.27319 
C 764.635249 217.947175 762.836534 217.202123 760.961265 217.202123 
C 759.085996 217.202123 757.28728 217.947175 755.961265 219.27319 
C 754.635249 220.599206 753.890197 222.397921 753.890197 224.27319 
C 753.890197 226.14846 754.635249 227.947175 755.961265 229.27319 
C 757.28728 230.599206 759.085996 231.344258 760.961265 231.344258 
z
" clip-path="url(#pea172bbb34)" style="fill: #1f77b4; fill-opacity: 0.3; stroke: #1f77b4; stroke-opacity: 0.3"/>
    <path d="M 772.724111 226.405354 
C 774.503147 226.405354 776.209558 225.698535 777.467527 224.440567 
C 778.725496 223.182598 779.432315 221.476187 779.432315 219.69715 
C 779.432315 217.918114 778.725496 216.211702 777.467527 214.953734 
C 776.209558 213.695765 774.503147 212.988946 772.724111 212.988946 
C 770.945074 212.988946 769.238663 213.695765 767.980694 214.953734 
C 766.722725 216.211702 766.015907 217.918114 766.015907 219.69715 
C 766.015907 221.476187 766.722725 223.182598 767.980694 224.440567 
C 769.238663 225.698535 770.945074 226.405354 772.724111 226.405354 
z
" clip-path="url(#pea172bbb34)" style="fill: #1f77b4; fill-opacity: 0.3; stroke: #1f77b4; stroke-opacity: 0.3"/>
    <path d="M 784.486957 221.75891 
C 786.314743 221.75891 788.067914 221.032722 789.360354 219.740282 
C 790.652794 218.447842 791.378981 216.694671 791.378981 214.866885 
C 791.378981 213.039099 790.652794 211.285928 789.360354 209.993488 
C 788.067914 208.701048 786.314743 207.974861 784.486957 207.974861 
C 782.65917 207.974861 780.905999 208.701048 779.613559 209.993488 
C 778.321119 211.285928 777.594932 213.039099 777.594932 214.866885 
C 777.594932 216.694671 778.321119 218.447842 779.613559 219.740282 
C 780.905999 221.032722 782.65917 221.75891 784.486957 221.75891 
z
" clip-path="url(#pea172bbb34)" style="fill: #1f77b4; fill-opacity: 0.3; stroke: #1f77b4; stroke-opacity: 0.3"/>
    <path d="M 796.249802 215.900405 
C 798.546529 215.900405 800.749496 214.987906 802.373527 213.363876 
C 803.997557 211.739845 804.910056 209.536878 804.910056 207.240151 
C 804.910056 204.943425 803.997557 202.740458 802.373527 201.116427 
C 800.749496 199.492396 798.546529 198.579897 796.249802 198.579897 
C 793.953076 198.579897 791.750109 199.492396 790.126078 201.116427 
C 788.502047 202.740458 787.589548 204.943425 787.589548 207.240151 
C 787.589548 209.536878 788.502047 211.739845 790.126078 213.363876 
C 791.750109 214.987906 793.953076 215.900405 796.249802 215.900405 
z
" clip-path="url(#pea172bbb34)" style="fill: #1f77b4; fill-opacity: 0.3; stroke: #1f77b4; stroke-opacity: 0.3"/>
    <path d="M 808.012648 208.273671 
C 810.309374 208.273671 812.512342 207.361172 814.136373 205.737142 
C 815.760403 204.113111 816.672902 201.910144 816.672902 199.613417 
C 816.672902 197.316691 815.760403 195.113724 814.136373 193.489693 
C 812.512342 191.865662 810.309374 190.953163 808.012648 190.953163 
C 805.715922 190.953163 803.512955 191.865662 801.888924 193.489693 
C 800.264893 195.113724 799.352394 197.316691 799.352394 199.613417 
C 799.352394 201.910144 800.264893 204.113111 801.888924 205.737142 
C 803.512955 207.361172 805.715922 208.273671 808.012648 208.273671 
z
" clip-path="url(#pea172bbb34)" style="fill: #1f77b4; fill-opacity: 0.3; stroke: #1f77b4; stroke-opacity: 0.3"/>
    <path d="M 819.775494 199.049986 
C 822.525178 199.049986 825.162613 197.957525 827.106933 196.013205 
C 829.051254 194.068884 830.143715 191.43145 830.143715 188.681765 
C 830.143715 185.932081 829.051254 183.294647 827.106933 181.350326 
C 825.162613 179.406006 822.525178 178.313545 819.775494 178.313545 
C 817.02581 178.313545 814.388375 179.406006 812.444055 181.350326 
C 810.499735 183.294647 809.407273 185.932081 809.407273 188.681765 
C 809.407273 191.43145 810.499735 194.068884 812.444055 196.013205 
C 814.388375 197.957525 817.02581 199.049986 819.775494 199.049986 
z
" clip-path="url(#pea172bbb34)" style="fill: #1f77b4; fill-opacity: 0.3; stroke: #1f77b4; stroke-opacity: 0.3"/>
    <path d="M 831.53834 190.58874 
C 833.459919 190.58874 835.303054 189.825289 836.661815 188.466527 
C 838.020577 187.107766 838.784028 185.264631 838.784028 183.343052 
C 838.784028 181.421473 838.020577 179.578338 836.661815 178.219576 
C 835.303054 176.860815 833.459919 176.097363 831.53834 176.097363 
C 829.616761 176.097363 827.773626 176.860815 826.414865 178.219576 
C 825.056103 179.578338 824.292652 181.421473 824.292652 183.343052 
C 824.292652 185.264631 825.056103 187.107766 826.414865 188.466527 
C 827.773626 189.825289 829.616761 190.58874 831.53834 190.58874 
z
" clip-path="url(#pea172bbb34)" style="fill: #1f77b4; fill-opacity: 0.3; stroke: #1f77b4; stroke-opacity: 0.3"/>
    <path d="M 843.301186 180.639627 
C 846.494654 180.639627 849.557756 179.370849 851.815879 177.112726 
C 854.074002 174.854603 855.34278 171.791501 855.34278 168.598033 
C 855.34278 165.404565 854.074002 162.341463 851.815879 160.08334 
C 849.557756 157.825217 846.494654 156.556438 843.301186 156.556438 
C 840.107718 156.556438 837.044616 157.825217 834.786493 160.08334 
C 832.52837 162.341463 831.259591 165.404565 831.259591 168.598033 
C 831.259591 171.791501 832.52837 174.854603 834.786493 177.112726 
C 837.044616 179.370849 840.107718 180.639627 843.301186 180.639627 
z
" clip-path="url(#pea172bbb34)" style="fill: #1f77b4; fill-opacity: 0.3; stroke: #1f77b4; stroke-opacity: 0.3"/>
    <path d="M 855.064032 170.333746 
C 857.075034 170.333746 859.003941 169.534766 860.425934 168.112773 
C 861.847927 166.69078 862.646907 164.761872 862.646907 162.75087 
C 862.646907 160.739868 861.847927 158.810961 860.425934 157.388967 
C 859.003941 155.966974 857.075034 155.167995 855.064032 155.167995 
C 853.05303 155.167995 851.124122 155.966974 849.702129 157.388967 
C 848.280136 158.810961 847.481156 160.739868 847.481156 162.75087 
C 847.481156 164.761872 848.280136 166.69078 849.702129 168.112773 
C 851.124122 169.534766 853.05303 170.333746 855.064032 170.333746 
z
" clip-path="url(#pea172bbb34)" style="fill: #1f77b4; fill-opacity: 0.3; stroke: #1f77b4; stroke-opacity: 0.3"/>
    <path d="M 866.826877 165.177402 
C 868.279455 165.177402 869.672734 164.600287 870.699861 163.57316 
C 871.726988 162.546033 872.304103 161.152754 872.304103 159.700177 
C 872.304103 158.247599 871.726988 156.85432 870.699861 155.827193 
C 869.672734 154.800066 868.279455 154.222951 866.826877 154.222951 
C 865.3743 154.222951 863.981021 154.800066 862.953894 155.827193 
C 861.926767 156.85432 861.349652 158.247599 861.349652 159.700177 
C 861.349652 161.152754 861.926767 162.546033 862.953894 163.57316 
C 863.981021 164.600287 865.3743 165.177402 866.826877 165.177402 
z
" clip-path="url(#pea172bbb34)" style="fill: #1f77b4; fill-opacity: 0.3; stroke: #1f77b4; stroke-opacity: 0.3"/>
    <path d="M 878.589723 161.607151 
C 880.511302 161.607151 882.354437 160.8437 883.713199 159.484938 
C 885.07196 158.126177 885.835412 156.283042 885.835412 154.361463 
C 885.835412 152.439884 885.07196 150.596749 883.713199 149.237987 
C 882.354437 147.879226 880.511302 147.115774 878.589723 147.115774 
C 876.668144 147.115774 874.825009 147.879226 873.466248 149.237987 
C 872.107486 150.596749 871.344035 152.439884 871.344035 154.361463 
C 871.344035 156.283042 872.107486 158.126177 873.466248 159.484938 
C 874.825009 160.8437 876.668144 161.607151 878.589723 161.607151 
z
" clip-path="url(#pea172bbb34)" style="fill: #1f77b4; fill-opacity: 0.3; stroke: #1f77b4; stroke-opacity: 0.3"/>
    <path d="M 890.352569 155.713241 
C 892.531435 155.713241 894.621353 154.847568 896.162044 153.306877 
C 897.702735 151.766187 898.568408 149.676268 898.568408 147.497402 
C 898.568408 145.318536 897.702735 143.228618 896.162044 141.687927 
C 894.621353 140.147236 892.531435 139.281564 890.352569 139.281564 
C 888.173703 139.281564 886.083785 140.147236 884.543094 141.687927 
C 883.002403 143.228618 882.136731 145.318536 882.136731 147.497402 
C 882.136731 149.676268 883.002403 151.766187 884.543094 153.306877 
C 886.083785 154.847568 888.173703 155.713241 890.352569 155.713241 
z
" clip-path="url(#pea172bbb34)" style="fill: #1f77b4; fill-opacity: 0.3; stroke: #1f77b4; stroke-opacity: 0.3"/>
    <path d="M 902.115415 149.483981 
C 903.990684 149.483981 905.7894 148.738928 907.115415 147.412913 
C 908.441431 146.086897 909.186483 144.288182 909.186483 142.412913 
C 909.186483 140.537644 908.441431 138.738928 907.115415 137.412913 
C 905.7894 136.086897 903.990684 135.341845 902.115415 135.341845 
C 900.240146 135.341845 898.441431 136.086897 897.115415 137.412913 
C 895.7894 138.738928 895.044347 140.537644 895.044347 142.412913 
C 895.044347 144.288182 895.7894 146.086897 897.115415 147.412913 
C 898.441431 148.738928 900.240146 149.483981 902.115415 149.483981 
z
" clip-path="url(#pea172bbb34)" style="fill: #1f77b4; fill-opacity: 0.3; stroke: #1f77b4; stroke-opacity: 0.3"/>
    <path d="M 913.878261 143.446433 
C 916.174987 143.446433 918.377955 142.533934 920.001985 140.909903 
C 921.626016 139.285873 922.538515 137.082905 922.538515 134.786179 
C 922.538515 132.489453 921.626016 130.286485 920.001985 128.662455 
C 918.377955 127.038424 916.174987 126.125925 913.878261 126.125925 
C 911.581535 126.125925 909.378567 127.038424 907.754537 128.662455 
C 906.130506 130.286485 905.218007 132.489453 905.218007 134.786179 
C 905.218007 137.082905 906.130506 139.285873 907.754537 140.909903 
C 909.378567 142.533934 911.581535 143.446433 913.878261 143.446433 
z
" clip-path="url(#pea172bbb34)" style="fill: #1f77b4; fill-opacity: 0.3; stroke: #1f77b4; stroke-opacity: 0.3"/>
    <path d="M 925.641107 136.983566 
C 927.370019 136.983566 929.028353 136.296661 930.250879 135.074135 
C 931.473405 133.85161 932.160309 132.193276 932.160309 130.464363 
C 932.160309 128.73545 931.473405 127.077117 930.250879 125.854591 
C 929.028353 124.632065 927.370019 123.945161 925.641107 123.945161 
C 923.912194 123.945161 922.25386 124.632065 921.031334 125.854591 
C 919.808809 127.077117 919.121904 128.73545 919.121904 130.464363 
C 919.121904 132.193276 919.808809 133.85161 921.031334 135.074135 
C 922.25386 136.296661 923.912194 136.983566 925.641107 136.983566 
z
" clip-path="url(#pea172bbb34)" style="fill: #1f77b4; fill-opacity: 0.3; stroke: #1f77b4; stroke-opacity: 0.3"/>
    <path d="M 937.403953 132.108943 
C 939.458207 132.108943 941.428601 131.292779 942.881178 129.840202 
C 944.333755 128.387624 945.149919 126.41723 945.149919 124.362976 
C 945.149919 122.308722 944.333755 120.338328 942.881178 118.88575 
C 941.428601 117.433173 939.458207 116.617009 937.403953 116.617009 
C 935.349698 116.617009 933.379304 117.433173 931.926727 118.88575 
C 930.47415 120.338328 929.657986 122.308722 929.657986 124.362976 
C 929.657986 126.41723 930.47415 128.387624 931.926727 129.840202 
C 933.379304 131.292779 935.349698 132.108943 937.403953 132.108943 
z
" clip-path="url(#pea172bbb34)" style="fill: #1f77b4; fill-opacity: 0.3; stroke: #1f77b4; stroke-opacity: 0.3"/>
    <path d="M 949.166798 126.49514 
C 950.945835 126.49514 952.652246 125.788321 953.910215 124.530352 
C 955.168184 123.272383 955.875002 121.565972 955.875002 119.786936 
C 955.875002 118.007899 955.168184 116.301488 953.910215 115.043519 
C 952.652246 113.78555 950.945835 113.078732 949.166798 113.078732 
C 947.387762 113.078732 945.681351 113.78555 944.423382 115.043519 
C 943.165413 116.301488 942.458594 118.007899 942.458594 119.786936 
C 942.458594 121.565972 943.165413 123.272383 944.423382 124.530352 
C 945.681351 125.788321 947.387762 126.49514 949.166798 126.49514 
z
" clip-path="url(#pea172bbb34)" style="fill: #1f77b4; fill-opacity: 0.3; stroke: #1f77b4; stroke-opacity: 0.3"/>
    <path d="M 960.929644 122.182895 
C 962.441535 122.182895 963.891705 121.582214 964.960773 120.513147 
C 966.029841 119.444079 966.630521 117.993908 966.630521 116.482018 
C 966.630521 114.970127 966.029841 113.519957 964.960773 112.450889 
C 963.891705 111.381821 962.441535 110.781141 960.929644 110.781141 
C 959.417754 110.781141 957.967583 111.381821 956.898515 112.450889 
C 955.829448 113.519957 955.228767 114.970127 955.228767 116.482018 
C 955.228767 117.993908 955.829448 119.444079 956.898515 120.513147 
C 957.967583 121.582214 959.417754 122.182895 960.929644 122.182895 
z
" clip-path="url(#pea172bbb34)" style="fill: #1f77b4; fill-opacity: 0.3; stroke: #1f77b4; stroke-opacity: 0.3"/>
    <path d="M 972.69249 112.233159 
C 976.150315 112.233159 979.466983 110.85935 981.912035 108.414299 
C 984.357086 105.969247 985.730895 102.652579 985.730895 99.194754 
C 985.730895 95.736929 984.357086 92.420261 981.912035 89.97521 
C 979.466983 87.530158 976.150315 86.156349 972.69249 86.156349 
C 969.234665 86.156349 965.917997 87.530158 963.472946 89.97521 
C 961.027894 92.420261 959.654085 95.736929 959.654085 99.194754 
C 959.654085 102.652579 961.027894 105.969247 963.472946 108.414299 
C 965.917997 110.85935 969.234665 112.233159 972.69249 112.233159 
z
" clip-path="url(#pea172bbb34)" style="fill: #1f77b4; fill-opacity: 0.3; stroke: #1f77b4; stroke-opacity: 0.3"/>
    <path d="M 984.455336 101.256514 
C 986.283122 101.256514 988.036293 100.530326 989.328733 99.237886 
C 990.621173 97.945446 991.34736 96.192276 991.34736 94.364489 
C 991.34736 92.536703 990.621173 90.783532 989.328733 89.491092 
C 988.036293 88.198652 986.283122 87.472465 984.455336 87.472465 
C 982.62755 87.472465 980.874379 88.198652 979.581939 89.491092 
C 978.289499 90.783532 977.563312 92.536703 977.563312 94.364489 
C 977.563312 96.192276 978.289499 97.945446 979.581939 99.237886 
C 980.874379 100.530326 982.62755 101.256514 984.455336 101.256514 
z
" clip-path="url(#pea172bbb34)" style="fill: #1f77b4; fill-opacity: 0.3; stroke: #1f77b4; stroke-opacity: 0.3"/>
    <path d="M 996.218182 96.351068 
C 998.093451 96.351068 999.892166 95.606015 1001.218182 94.28 
C 1002.544197 92.953984 1003.28925 91.155269 1003.28925 89.28 
C 1003.28925 87.404731 1002.544197 85.606015 1001.218182 84.28 
C 999.892166 82.953984 998.093451 82.208932 996.218182 82.208932 
C 994.342913 82.208932 992.544197 82.953984 991.218182 84.28 
C 989.892166 85.606015 989.147114 87.404731 989.147114 89.28 
C 989.147114 91.155269 989.892166 92.953984 991.218182 94.28 
C 992.544197 95.606015 994.342913 96.351068 996.218182 96.351068 
z
" clip-path="url(#pea172bbb34)" style="fill: #1f77b4; fill-opacity: 0.3; stroke: #1f77b4; stroke-opacity: 0.3"/>
   </g>
   <g id="matplotlib.axis_1">
    <g id="xtick_1">
     <g id="line2d_1">
      <defs>
       <path id="m23cefd4375" d="M 0 0 
L 0 3.5 
" style="stroke: #000000; stroke-width: 0.8"/>
      </defs>
      <g>
       <use xlink:href="#m23cefd4375" x="184.581818" y="512.64" style="stroke: #000000; stroke-width: 0.8"/>
      </g>
     </g>
     <g id="text_1">
      <!-- 2026-01-01 -->
      <g transform="translate(155.524006 527.238438) scale(0.1 -0.1)">
       <defs>
        <path id="DejaVuSans-32" d="M 1228 531 
L 3431 531 
L 3431 0 
L 469 0 
L 469 531 
Q 828 903 1448 1529 
Q 2069 2156 2228 2338 
Q 2531 2678 2651 2914 
Q 2772 3150 2772 3378 
Q 2772 3750 2511 3984 
Q 2250 4219 1831 4219 
Q 1534 4219 1204 4116 
Q 875 4013 500 3803 
L 500 4441 
Q 881 4594 1212 4672 
Q 1544 4750 1819 4750 
Q 2544 4750 2975 4387 
Q 3406 4025 3406 3419 
Q 3406 3131 3298 2873 
Q 3191 2616 2906 2266 
Q 2828 2175 2409 1742 
Q 1991 1309 1228 531 
z
" transform="scale(0.015625)"/>
        <path id="DejaVuSans-30" d="M 2034 4250 
Q 1547 4250 1301 3770 
Q 1056 3291 1056 2328 
Q 1056 1369 1301 889 
Q 1547 409 2034 409 
Q 2525 409 2770 889 
Q 3016 1369 3016 2328 
Q 3016 3291 2770 3770 
Q 2525 4250 2034 4250 
z
M 2034 4750 
Q 2819 4750 3233 4129 
Q 3647 3509 3647 2328 
Q 3647 1150 3233 529 
Q 2819 -91 2034 -91 
Q 1250 -91 836 529 
Q 422 1150 422 2328 
Q 422 3509 836 4129 
Q 1250 4750 2034 4750 
z
" transform="scale(0.015625)"/>
        <path id="DejaVuSans-36" d="M 2113 2584 
Q 1688 2584 1439 2293 
Q 1191 2003 1191 1497 
Q 1191 994 1439 701 
Q 1688 409 2113 409 
Q 2538 409 2786 701 
Q 3034 994 3034 1497 
Q 3034 2003 2786 2293 
Q 2538 2584 2113 2584 
z
M 3366 4563 
L 3366 3988 
Q 3128 4100 2886 4159 
Q 2644 4219 2406 4219 
Q 1781 4219 1451 3797 
Q 1122 3375 1075 2522 
Q 1259 2794 1537 2939 
Q 1816 3084 2150 3084 
Q 2853 3084 3261 2657 
Q 3669 2231 3669 1497 
Q 3669 778 3244 343 
Q 2819 -91 2113 -91 
Q 1303 -91 875 529 
Q 447 1150 447 2328 
Q 447 3434 972 4092 
Q 1497 4750 2381 4750 
Q 2619 4750 2861 4703 
Q 3103 4656 3366 4563 
z
" transform="scale(0.015625)"/>
        <path id="DejaVuSans-2d" d="M 313 2009 
L 1997 2009 
L 1997 1497 
L 313 1497 
L 313 2009 
z
" transform="scale(0.015625)"/>
        <path id="DejaVuSans-31" d="M 794 531 
L 1825 531 
L 1825 4091 
L 703 3866 
L 703 4441 
L 1819 4666 
L 2450 4666 
L 2450 531 
L 3481 531 
L 3481 0 
L 794 0 
L 794 531 
z
" transform="scale(0.015625)"/>
       </defs>
       <use xlink:href="#DejaVuSans-32"/>
       <use xlink:href="#DejaVuSans-30" x="63.623047"/>
       <use xlink:href="#DejaVuSans-32" x="127.246094"/>
       <use xlink:href="#DejaVuSans-36" x="190.869141"/>
       <use xlink:href="#DejaVuSans-2d" x="254.492188"/>
       <use xlink:href="#DejaVuSans-30" x="290.576172"/>
       <use xlink:href="#DejaVuSans-31" x="354.199219"/>
       <use xlink:href="#DejaVuSans-2d" x="417.822266"/>
       <use xlink:href="#DejaVuSans-30" x="453.90625"/>
       <use xlink:href="#DejaVuSans-31" x="517.529297"/>
      </g>
     </g>
    </g>
    <g id="xtick_2">
     <g id="line2d_2">
      <g>
       <use xlink:href="#m23cefd4375" x="349.26166" y="512.64" style="stroke: #000000; stroke-width: 0.8"/>
      </g>
     </g>
     <g id="text_2">
      <!-- 2026-01-15 -->
      <g transform="translate(320.203848 527.238438) scale(0.1 -0.1)">
       <defs>
        <path id="DejaVuSans-35" d="M 691 4666 
L 3169 4666 
L 3169 4134 
L 1269 4134 
L 1269 2991 
Q 1406 3038 1543 3061 
Q 1681 3084 1819 3084 
Q 2600 3084 3056 2656 
Q 3513 2228 3513 1497 
Q 3513 744 3044 326 
Q 2575 -91 1722 -91 
Q 1428 -91 1123 -41 
Q 819 9 494 109 
L 494 744 
Q 775 591 1075 516 
Q 1375 441 1709 441 
Q 2250 441 2565 725 
Q 2881 1009 2881 1497 
Q 2881 1984 2565 2268 
Q 2250 2553 1709 2553 
Q 1456 2553 1204 2497 
Q 953 2441 691 2322 
L 691 4666 
z
" transform="scale(0.015625)"/>
       </defs>
       <use xlink:href="#DejaVuSans-32"/>
       <use xlink:href="#DejaVuSans-30" x="63.623047"/>
       <use xlink:href="#DejaVuSans-32" x="127.246094"/>
       <use xlink:href="#DejaVuSans-36" x="190.869141"/>
       <use xlink:href="#DejaVuSans-2d" x="254.492188"/>
       <use xlink:href="#DejaVuSans-30" x="290.576172"/>
       <use xlink:href="#DejaVuSans-31" x="354.199219"/>
       <use xlink:href="#DejaVuSans-2d" x="417.822266"/>
       <use xlink:href="#DejaVuSans-31" x="453.90625"/>
       <use xlink:href="#DejaVuSans-35" x="517.529297"/>
      </g>
     </g>
    </g>
    <g id="xtick_3">
     <g id="line2d_3">
      <g>
       <use xlink:href="#m23cefd4375" x="549.23004" y="512.64" style="stroke: #000000; stroke-width: 0.8"/>
      </g>
     </g>
     <g id="text_3">
      <!-- 2026-02-01 -->
      <g transform="translate(520.172227 527.238438) scale(0.1 -0.1)">
       <use xlink:href="#DejaVuSans-32"/>
       <use xlink:href="#DejaVuSans-30" x="63.623047"/>
       <use xlink:href="#DejaVuSans-32" x="127.246094"/>
       <use xlink:href="#DejaVuSans-36" x="190.869141"/>
       <use xlink:href="#DejaVuSans-2d" x="254.492188"/>
       <use xlink:href="#DejaVuSans-30" x="290.576172"/>
       <use xlink:href="#DejaVuSans-32" x="354.199219"/>
       <use xlink:href="#DejaVuSans-2d" x="417.822266"/>
       <use xlink:href="#DejaVuSans-30" x="453.90625"/>
       <use xlink:href="#DejaVuSans-31" x="517.529297"/>
      </g>
     </g>
    </g>
    <g id="xtick_4">
     <g id="line2d_4">
      <g>
       <use xlink:href="#m23cefd4375" x="713.909881" y="512.64" style="stroke: #000000; stroke-width: 0.8"/>
      </g>
     </g>
     <g id="text_4">
      <!-- 2026-02-15 -->
      <g transform="translate(684.852069 527.238438) scale(0.1 -0.1)">
       <use xlink:href="#DejaVuSans-32"/>
       <use xlink:href="#DejaVuSans-30" x="63.623047"/>
       <use xlink:href="#DejaVuSans-32" x="127.246094"/>
       <use xlink:href="#DejaVuSans-36" x="190.869141"/>
       <use xlink:href="#DejaVuSans-2d" x="254.492188"/>
       <use xlink:href="#DejaVuSans-30" x="290.576172"/>
       <use xlink:href="#DejaVuSans-32" x="354.199219"/>
       <use xlink:href="#DejaVuSans-2d" x="417.822266"/>
       <use xlink:href="#DejaVuSans-31" x="453.90625"/>
       <use xlink:href="#DejaVuSans-35" x="517.529297"/>
      </g>
     </g>
    </g>
    <g id="xtick_5">
     <g id="line2d_5">
      <g>
       <use xlink:href="#m23cefd4375" x="878.589723" y="512.64" style="stroke: #000000; stroke-width: 0.8"/>
      </g>
     </g>
     <g id="text_5">
      <!-- 2026-03-01 -->
      <g transform="translate(849.531911 527.238438) scale(0.1 -0.1)">
       <defs>
        <path id="DejaVuSans-33" d="M 2597 2516 
Q 3050 2419 3304 2112 
Q 3559 1806 3559 1356 
Q 3559 666 3084 287 
Q 2609 -91 1734 -91 
Q 1441 -91 1130 -33 
Q 819 25 488 141 
L 488 750 
Q 750 597 1062 519 
Q 1375 441 1716 441 
Q 2309 441 2620 675 
Q 2931 909 2931 1356 
Q 2931 1769 2642 2001 
Q 2353 2234 1838 2234 
L 1294 2234 
L 1294 2753 
L 1863 2753 
Q 2328 2753 2575 2939 
Q 2822 3125 2822 3475 
Q 2822 3834 2567 4026 
Q 2313 4219 1838 4219 
Q 1578 4219 1281 4162 
Q 984 4106 628 3988 
L 628 4550 
Q 988 4650 1302 4700 
Q 1616 4750 1894 4750 
Q 2613 4750 3031 4423 
Q 3450 4097 3450 3541 
Q 3450 3153 3228 2886 
Q 3006 2619 2597 2516 
z
" transform="scale(0.015625)"/>
       </defs>
       <use xlink:href="#DejaVuSans-32"/>
       <use xlink:href="#DejaVuSans-30" x="63.623047"/>
       <use xlink:href="#DejaVuSans-32" x="127.246094"/>
       <use xlink:href="#DejaVuSans-36" x="190.869141"/>
       <use xlink:href="#DejaVuSans-2d" x="254.492188"/>
       <use xlink:href="#DejaVuSans-30" x="290.576172"/>
       <use xlink:href="#DejaVuSans-33" x="354.199219"/>
       <use xlink:href="#DejaVuSans-2d" x="417.822266"/>
       <use xlink:href="#DejaVuSans-30" x="453.90625"/>
       <use xlink:href="#DejaVuSans-31" x="517.529297"/>
      </g>
     </g>
    </g>
   </g>
   <g id="matplotlib.axis_2">
    <g id="ytick_1">
     <g id="line2d_6">
      <defs>
       <path id="mbcd21a9473" d="M 0 0 
L -3.5 0 
" style="stroke: #000000; stroke-width: 0.8"/>
      </defs>
      <g>
       <use xlink:href="#mbcd21a9473" x="144" y="507.225019" style="stroke: #000000; stroke-width: 0.8"/>
      </g>
     </g>
     <g id="text_6">
      <!-- 13000 -->
      <g transform="translate(105.1875 511.024238) scale(0.1 -0.1)">
       <use xlink:href="#DejaVuSans-31"/>
       <use xlink:href="#DejaVuSans-33" x="63.623047"/>
       <use xlink:href="#DejaVuSans-30" x="127.246094"/>
       <use xlink:href="#DejaVuSans-30" x="190.869141"/>
       <use xlink:href="#DejaVuSans-30" x="254.492188"/>
      </g>
     </g>
    </g>
    <g id="ytick_2">
     <g id="line2d_7">
      <g>
       <use xlink:href="#mbcd21a9473" x="144" y="456.380126" style="stroke: #000000; stroke-width: 0.8"/>
      </g>
     </g>
     <g id="text_7">
      <!-- 13200 -->
      <g transform="translate(105.1875 460.179345) scale(0.1 -0.1)">
       <use xlink:href="#DejaVuSans-31"/>
       <use xlink:href="#DejaVuSans-33" x="63.623047"/>
       <use xlink:href="#DejaVuSans-32" x="127.246094"/>
       <use xlink:href="#DejaVuSans-30" x="190.869141"/>
       <use xlink:href="#DejaVuSans-30" x="254.492188"/>
      </g>
     </g>
    </g>
    <g id="ytick_3">
     <g id="line2d_8">
      <g>
       <use xlink:href="#mbcd21a9473" x="144" y="405.535233" style="stroke: #000000; stroke-width: 0.8"/>
      </g>
     </g>
     <g id="text_8">
      <!-- 13400 -->
      <g transform="translate(105.1875 409.334452) scale(0.1 -0.1)">
       <defs>
        <path id="DejaVuSans-34" d="M 2419 4116 
L 825 1625 
L 2419 1625 
L 2419 4116 
z
M 2253 4666 
L 3047 4666 
L 3047 1625 
L 3713 1625 
L 3713 1100 
L 3047 1100 
L 3047 0 
L 2419 0 
L 2419 1100 
L 313 1100 
L 313 1709 
L 2253 4666 
z
" transform="scale(0.015625)"/>
       </defs>
       <use xlink:href="#DejaVuSans-31"/>
       <use xlink:href="#DejaVuSans-33" x="63.623047"/>
       <use xlink:href="#DejaVuSans-34" x="127.246094"/>
       <use xlink:href="#DejaVuSans-30" x="190.869141"/>
       <use xlink:href="#DejaVuSans-30" x="254.492188"/>
      </g>
     </g>
    </g>
    <g id="ytick_4">
     <g id="line2d_9">
      <g>
       <use xlink:href="#mbcd21a9473" x="144" y="354.69034" style="stroke: #000000; stroke-width: 0.8"/>
      </g>
     </g>
     <g id="text_9">
      <!-- 13600 -->
      <g transform="translate(105.1875 358.489559) scale(0.1 -0.1)">
       <use xlink:href="#DejaVuSans-31"/>
       <use xlink:href="#DejaVuSans-33" x="63.623047"/>
       <use xlink:href="#DejaVuSans-36" x="127.246094"/>
       <use xlink:href="#DejaVuSans-30" x="190.869141"/>
       <use xlink:href="#DejaVuSans-30" x="254.492188"/>
      </g>
     </g>
    </g>
    <g id="ytick_5">
     <g id="line2d_10">
      <g>
       <use xlink:href="#mbcd21a9473" x="144" y="303.845448" style="stroke: #000000; stroke-width: 0.8"/>
      </g>
     </g>
     <g id="text_10">
      <!-- 13800 -->
      <g transform="translate(105.1875 307.644666) scale(0.1 -0.1)">
       <defs>
        <path id="DejaVuSans-38" d="M 2034 2216 
Q 1584 2216 1326 1975 
Q 1069 1734 1069 1313 
Q 1069 891 1326 650 
Q 1584 409 2034 409 
Q 2484 409 2743 651 
Q 3003 894 3003 1313 
Q 3003 1734 2745 1975 
Q 2488 2216 2034 2216 
z
M 1403 2484 
Q 997 2584 770 2862 
Q 544 3141 544 3541 
Q 544 4100 942 4425 
Q 1341 4750 2034 4750 
Q 2731 4750 3128 4425 
Q 3525 4100 3525 3541 
Q 3525 3141 3298 2862 
Q 3072 2584 2669 2484 
Q 3125 2378 3379 2068 
Q 3634 1759 3634 1313 
Q 3634 634 3220 271 
Q 2806 -91 2034 -91 
Q 1263 -91 848 271 
Q 434 634 434 1313 
Q 434 1759 690 2068 
Q 947 2378 1403 2484 
z
M 1172 3481 
Q 1172 3119 1398 2916 
Q 1625 2713 2034 2713 
Q 2441 2713 2670 2916 
Q 2900 3119 2900 3481 
Q 2900 3844 2670 4047 
Q 2441 4250 2034 4250 
Q 1625 4250 1398 4047 
Q 1172 3844 1172 3481 
z
" transform="scale(0.015625)"/>
       </defs>
       <use xlink:href="#DejaVuSans-31"/>
       <use xlink:href="#DejaVuSans-33" x="63.623047"/>
       <use xlink:href="#DejaVuSans-38" x="127.246094"/>
       <use xlink:href="#DejaVuSans-30" x="190.869141"/>
       <use xlink:href="#DejaVuSans-30" x="254.492188"/>
      </g>
     </g>
    </g>
    <g id="ytick_6">
     <g id="line2d_11">
      <g>
       <use xlink:href="#mbcd21a9473" x="144" y="253.000555" style="stroke: #000000; stroke-width: 0.8"/>
      </g>
     </g>
     <g id="text_11">
      <!-- 14000 -->
      <g transform="translate(105.1875 256.799774) scale(0.1 -0.1)">
       <use xlink:href="#DejaVuSans-31"/>
       <use xlink:href="#DejaVuSans-34" x="63.623047"/>
       <use xlink:href="#DejaVuSans-30" x="127.246094"/>
       <use xlink:href="#DejaVuSans-30" x="190.869141"/>
       <use xlink:href="#DejaVuSans-30" x="254.492188"/>
      </g>
     </g>
    </g>
    <g id="ytick_7">
     <g id="line2d_12">
      <g>
       <use xlink:href="#mbcd21a9473" x="144" y="202.155662" style="stroke: #000000; stroke-width: 0.8"/>
      </g>
     </g>
     <g id="text_12">
      <!-- 14200 -->
      <g transform="translate(105.1875 205.954881) scale(0.1 -0.1)">
       <use xlink:href="#DejaVuSans-31"/>
       <use xlink:href="#DejaVuSans-34" x="63.623047"/>
       <use xlink:href="#DejaVuSans-32" x="127.246094"/>
       <use xlink:href="#DejaVuSans-30" x="190.869141"/>
       <use xlink:href="#DejaVuSans-30" x="254.492188"/>
      </g>
     </g>
    </g>
    <g id="ytick_8">
     <g id="line2d_13">
      <g>
       <use xlink:href="#mbcd21a9473" x="144" y="151.310769" style="stroke: #000000; stroke-width: 0.8"/>
      </g>
     </g>
     <g id="text_13">
      <!-- 14400 -->
      <g transform="translate(105.1875 155.109988) scale(0.1 -0.1)">
       <use xlink:href="#DejaVuSans-31"/>
       <use xlink:href="#DejaVuSans-34" x="63.623047"/>
       <use xlink:href="#DejaVuSans-34" x="127.246094"/>
       <use xlink:href="#DejaVuSans-30" x="190.869141"/>
       <use xlink:href="#DejaVuSans-30" x="254.492188"/>
      </g>
     </g>
    </g>
    <g id="ytick_9">
     <g id="line2d_14">
      <g>
       <use xlink:href="#mbcd21a9473" x="144" y="100.465876" style="stroke: #000000; stroke-width: 0.8"/>
      </g>
     </g>
     <g id="text_14">
      <!-- 14600 -->
      <g transform="translate(105.1875 104.265095) scale(0.1 -0.1)">
       <use xlink:href="#DejaVuSans-31"/>
       <use xlink:href="#DejaVuSans-34" x="63.623047"/>
       <use xlink:href="#DejaVuSans-36" x="127.246094"/>
       <use xlink:href="#DejaVuSans-30" x="190.869141"/>
       <use xlink:href="#DejaVuSans-30" x="254.492188"/>
      </g>
     </g>
    </g>
   </g>
   <g id="line2d_15">
    <path d="M 184.581818 492.48 
L 196.344664 488.158184 
L 208.10751 481.039899 
L 219.870356 478.24343 
L 231.633202 476.972308 
L 243.396047 472.650492 
L 255.158893 468.837125 
L 266.921739 458.922371 
L 278.684585 453.837881 
L 290.447431 451.549861 
L 302.210277 451.041412 
L 313.973123 441.126658 
L 325.735968 434.771047 
L 337.498814 431.466129 
L 349.26166 423.330946 
L 361.024506 412.399294 
L 372.787352 411.382396 
L 384.550198 408.585927 
L 396.313043 401.721866 
L 408.075889 398.671173 
L 419.838735 385.95995 
L 431.601581 379.095889 
L 443.364427 372.994502 
L 455.127273 365.621992 
L 466.890119 364.605095 
L 478.652964 363.588197 
L 490.41581 354.436116 
L 502.178656 341.724893 
L 513.941502 333.58971 
L 525.704348 326.725649 
L 537.467194 325.708752 
L 549.23004 322.912282 
L 560.992885 317.827793 
L 572.755731 311.726406 
L 584.518577 309.69261 
L 596.281423 302.574325 
L 608.044269 298.252509 
L 619.807115 295.45604 
L 631.56996 285.541286 
L 643.332806 282.490593 
L 655.095652 273.846961 
L 666.858498 268.762472 
L 678.621344 265.711778 
L 690.38419 260.627289 
L 702.147036 258.339269 
L 713.909881 248.932963 
L 725.672727 236.730189 
L 737.435573 234.442169 
L 749.198419 229.35768 
L 760.961265 224.27319 
L 772.724111 219.69715 
L 784.486957 214.866885 
L 796.249802 207.240151 
L 808.012648 199.613417 
L 819.775494 188.681765 
L 831.53834 183.343052 
L 843.301186 168.598033 
L 855.064032 162.75087 
L 866.826877 159.700177 
L 878.589723 154.361463 
L 890.352569 147.497402 
L 902.115415 142.412913 
L 913.878261 134.786179 
L 925.641107 130.464363 
L 937.403953 124.362976 
L 949.166798 119.786936 
L 960.929644 116.482018 
L 972.69249 99.194754 
L 984.455336 94.364489 
L 996.218182 89.28 
" clip-path="url(#pea172bbb34)" style="fill: none; stroke: #1f77b4; stroke-width: 1.5; stroke-linecap: square"/>
   </g>
   <g id="patch_3">
    <path d="M 144 512.64 
L 144 69.12 
" style="fill: none; stroke: #000000; stroke-width: 0.8; stroke-linejoin: miter; stroke-linecap: square"/>
   </g>
   <g id="patch_4">
    <path d="M 1036.8 512.64 
L 1036.8 69.12 
" style="fill: none; stroke: #000000; stroke-width: 0.8; stroke-linejoin: miter; stroke-linecap: square"/>
   </g>
   <g id="patch_5">
    <path d="M 144 512.64 
L 1036.8 512.64 
" style="fill: none; stroke: #000000; stroke-width: 0.8; stroke-linejoin: miter; stroke-linecap: square"/>
   </g>
   <g id="patch_6">
    <path d="M 144 69.12 
L 1036.8 69.12 
" style="fill: none; stroke: #000000; stroke-width: 0.8; stroke-linejoin: miter; stroke-linecap: square"/>
   </g>
   <g id="text_15">
    <!-- Number of AEDs in the OpenStreetMap database in Poland from 2026-01-01, day by day. As at: 2026-03-11 -->
    <g transform="translate(144 63.12) scale(0.14 -0.14)">
     <defs>
      <path id="DejaVuSans-4e" d="M 628 4666 
L 1478 4666 
L 3547 763 
L 3547 4666 
L 4159 4666 
L 4159 0 
L 3309 0 
L 1241 3903 
L 1241 0 
L 628 0 
L 628 4666 
z
" transform="scale(0.015625)"/>
      <path id="DejaVuSans-75" d="M 544 1381 
L 544 3500 
L 1119 3500 
L 1119 1403 
Q 1119 906 1312 657 
Q 1506 409 1894 409 
Q 2359 409 2629 706 
Q 2900 1003 2900 1516 
L 2900 3500 
L 3475 3500 
L 3475 0 
L 2900 0 
L 2900 538 
Q 2691 219 2414 64 
Q 2138 -91 1772 -91 
Q 1169 -91 856 284 
Q 544 659 544 1381 
z
M 1991 3584 
L 1991 3584 
z
" transform="scale(0.015625)"/>
      <path id="DejaVuSans-6d" d="M 3328 2828 
Q 3544 3216 3844 3400 
Q 4144 3584 4550 3584 
Q 5097 3584 5394 3201 
Q 5691 2819 5691 2113 
L 5691 0 
L 5113 0 
L 5113 2094 
Q 5113 2597 4934 2840 
Q 4756 3084 4391 3084 
Q 3944 3084 3684 2787 
Q 3425 2491 3425 1978 
L 3425 0 
L 2847 0 
L 2847 2094 
Q 2847 2600 2669 2842 
Q 2491 3084 2119 3084 
Q 1678 3084 1418 2786 
Q 1159 2488 1159 1978 
L 1159 0 
L 581 0 
L 581 3500 
L 1159 3500 
L 1159 2956 
Q 1356 3278 1631 3431 
Q 1906 3584 2284 3584 
Q 2666 3584 2933 3390 
Q 3200 3197 3328 2828 
z
" transform="scale(0.015625)"/>
      <path id="DejaVuSans-62" d="M 3116 1747 
Q 3116 2381 2855 2742 
Q 2594 3103 2138 3103 
Q 1681 3103 1420 2742 
Q 1159 2381 1159 1747 
Q 1159 1113 1420 752 
Q 1681 391 2138 391 
Q 2594 391 2855 752 
Q 3116 1113 3116 1747 
z
M 1159 2969 
Q 1341 3281 1617 3432 
Q 1894 3584 2278 3584 
Q 2916 3584 3314 3078 
Q 3713 2572 3713 1747 
Q 3713 922 3314 415 
Q 2916 -91 2278 -91 
Q 1894 -91 1617 61 
Q 1341 213 1159 525 
L 1159 0 
L 581 0 
L 581 4863 
L 1159 4863 
L 1159 2969 
z
" transform="scale(0.015625)"/>
      <path id="DejaVuSans-65" d="M 3597 1894 
L 3597 1613 
L 953 1613 
Q 991 1019 1311 708 
Q 1631 397 2203 397 
Q 2534 397 2845 478 
Q 3156 559 3463 722 
L 3463 178 
Q 3153 47 2828 -22 
Q 2503 -91 2169 -91 
Q 1331 -91 842 396 
Q 353 884 353 1716 
Q 353 2575 817 3079 
Q 1281 3584 2069 3584 
Q 2775 3584 3186 3129 
Q 3597 2675 3597 1894 
z
M 3022 2063 
Q 3016 2534 2758 2815 
Q 2500 3097 2075 3097 
Q 1594 3097 1305 2825 
Q 1016 2553 972 2059 
L 3022 2063 
z
" transform="scale(0.015625)"/>
      <path id="DejaVuSans-72" d="M 2631 2963 
Q 2534 3019 2420 3045 
Q 2306 3072 2169 3072 
Q 1681 3072 1420 2755 
Q 1159 2438 1159 1844 
L 1159 0 
L 581 0 
L 581 3500 
L 1159 3500 
L 1159 2956 
Q 1341 3275 1631 3429 
Q 1922 3584 2338 3584 
Q 2397 3584 2469 3576 
Q 2541 3569 2628 3553 
L 2631 2963 
z
" transform="scale(0.015625)"/>
      <path id="DejaVuSans-20" transform="scale(0.015625)"/>
      <path id="DejaVuSans-6f" d="M 1959 3097 
Q 1497 3097 1228 2736 
Q 959 2375 959 1747 
Q 959 1119 1226 758 
Q 1494 397 1959 397 
Q 2419 397 2687 759 
Q 2956 1122 2956 1747 
Q 2956 2369 2687 2733 
Q 2419 3097 1959 3097 
z
M 1959 3584 
Q 2709 3584 3137 3096 
Q 3566 2609 3566 1747 
Q 3566 888 3137 398 
Q 2709 -91 1959 -91 
Q 1206 -91 779 398 
Q 353 888 353 1747 
Q 353 2609 779 3096 
Q 1206 3584 1959 3584 
z
" transform="scale(0.015625)"/>
      <path id="DejaVuSans-66" d="M 2375 4863 
L 2375 4384 
L 1825 4384 
Q 1516 4384 1395 4259 
Q 1275 4134 1275 3809 
L 1275 3500 
L 2222 3500 
L 2222 3053 
L 1275 3053 
L 1275 0 
L 697 0 
L 697 3053 
L 147 3053 
L 147 3500 
L 697 3500 
L 697 3744 
Q 697 4328 969 4595 
Q 1241 4863 1831 4863 
L 2375 4863 
z
" transform="scale(0.015625)"/>
      <path id="DejaVuSans-41" d="M 2188 4044 
L 1331 1722 
L 3047 1722 
L 2188 4044 
z
M 1831 4666 
L 2547 4666 
L 4325 0 
L 3669 0 
L 3244 1197 
L 1141 1197 
L 716 0 
L 50 0 
L 1831 4666 
z
" transform="scale(0.015625)"/>
      <path id="DejaVuSans-45" d="M 628 4666 
L 3578 4666 
L 3578 4134 
L 1259 4134 
L 1259 2753 
L 3481 2753 
L 3481 2222 
L 1259 2222 
L 1259 531 
L 3634 531 
L 3634 0 
L 628 0 
L 628 4666 
z
" transform="scale(0.015625)"/>
      <path id="DejaVuSans-44" d="M 1259 4147 
L 1259 519 
L 2022 519 
Q 2988 519 3436 956 
Q 3884 1394 3884 2338 
Q 3884 3275 3436 3711 
Q 2988 4147 2022 4147 
L 1259 4147 
z
M 628 4666 
L 1925 4666 
Q 3281 4666 3915 4102 
Q 4550 3538 4550 2338 
Q 4550 1131 3912 565 
Q 3275 0 1925 0 
L 628 0 
L 628 4666 
z
" transform="scale(0.015625)"/>
      <path id="DejaVuSans-73" d="M 2834 3397 
L 2834 2853 
Q 2591 2978 2328 3040 
Q 2066 3103 1784 3103 
Q 1356 3103 1142 2972 
Q 928 2841 928 2578 
Q 928 2378 1081 2264 
Q 1234 2150 1697 2047 
L 1894 2003 
Q 2506 1872 2764 1633 
Q 3022 1394 3022 966 
Q 3022 478 2636 193 
Q 2250 -91 1575 -91 
Q 1294 -91 989 -36 
Q 684 19 347 128 
L 347 722 
Q 666 556 975 473 
Q 1284 391 1588 391 
Q 1994 391 2212 530 
Q 2431 669 2431 922 
Q 2431 1156 2273 1281 
Q 2116 1406 1581 1522 
L 1381 1569 
Q 847 1681 609 1914 
Q 372 2147 372 2553 
Q 372 3047 722 3315 
Q 1072 3584 1716 3584 
Q 2034 3584 2315 3537 
Q 2597 3491 2834 3397 
z
" transform="scale(0.015625)"/>
      <path id="DejaVuSans-69" d="M 603 3500 
L 1178 3500 
L 1178 0 
L 603 0 
L 603 3500 
z
M 603 4863 
L 1178 4863 
L 1178 4134 
L 603 4134 
L 603 4863 
z
" transform="scale(0.015625)"/>
      <path id="DejaVuSans-6e" d="M 3513 2113 
L 3513 0 
L 2938 0 
L 2938 2094 
Q 2938 2591 2744 2837 
Q 2550 3084 2163 3084 
Q 1697 3084 1428 2787 
Q 1159 2491 1159 1978 
L 1159 0 
L 581 0 
L 581 3500 
L 1159 3500 
L 1159 2956 
Q 1366 3272 1645 3428 
Q 1925 3584 2291 3584 
Q 2894 3584 3203 3211 
Q 3513 2838 3513 2113 
z
" transform="scale(0.015625)"/>
      <path id="DejaVuSans-74" d="M 1172 4494 
L 1172 3500 
L 2356 3500 
L 2356 3053 
L 1172 3053 
L 1172 1153 
Q 1172 725 1289 603 
Q 1406 481 1766 481 
L 2356 481 
L 2356 0 
L 1766 0 
Q 1100 0 847 248 
Q 594 497 594 1153 
L 594 3053 
L 172 3053 
L 172 3500 
L 594 3500 
L 594 4494 
L 1172 4494 
z
" transform="scale(0.015625)"/>
      <path id="DejaVuSans-68" d="M 3513 2113 
L 3513 0 
L 2938 0 
L 2938 2094 
Q 2938 2591 2744 2837 
Q 2550 3084 2163 3084 
Q 1697 3084 1428 2787 
Q 1159 2491 1159 1978 
L 1159 0 
L 581 0 
L 581 4863 
L 1159 4863 
L 1159 2956 
Q 1366 3272 1645 3428 
Q 1925 3584 2291 3584 
Q 2894 3584 3203 3211 
Q 3513 2838 3513 2113 
z
" transform="scale(0.015625)"/>
      <path id="DejaVuSans-4f" d="M 2522 4238 
Q 1834 4238 1429 3725 
Q 1025 3213 1025 2328 
Q 1025 1447 1429 934 
Q 1834 422 2522 422 
Q 3209 422 3611 934 
Q 4013 1447 4013 2328 
Q 4013 3213 3611 3725 
Q 3209 4238 2522 4238 
z
M 2522 4750 
Q 3503 4750 4090 4092 
Q 4678 3434 4678 2328 
Q 4678 1225 4090 567 
Q 3503 -91 2522 -91 
Q 1538 -91 948 565 
Q 359 1222 359 2328 
Q 359 3434 948 4092 
Q 1538 4750 2522 4750 
z
" transform="scale(0.015625)"/>
      <path id="DejaVuSans-70" d="M 1159 525 
L 1159 -1331 
L 581 -1331 
L 581 3500 
L 1159 3500 
L 1159 2969 
Q 1341 3281 1617 3432 
Q 1894 3584 2278 3584 
Q 2916 3584 3314 3078 
Q 3713 2572 3713 1747 
Q 3713 922 3314 415 
Q 2916 -91 2278 -91 
Q 1894 -91 1617 61 
Q 1341 213 1159 525 
z
M 3116 1747 
Q 3116 2381 2855 2742 
Q 2594 3103 2138 3103 
Q 1681 3103 1420 2742 
Q 1159 2381 1159 1747 
Q 1159 1113 1420 752 
Q 1681 391 2138 391 
Q 2594 391 2855 752 
Q 3116 1113 3116 1747 
z
" transform="scale(0.015625)"/>
      <path id="DejaVuSans-53" d="M 3425 4513 
L 3425 3897 
Q 3066 4069 2747 4153 
Q 2428 4238 2131 4238 
Q 1616 4238 1336 4038 
Q 1056 3838 1056 3469 
Q 1056 3159 1242 3001 
Q 1428 2844 1947 2747 
L 2328 2669 
Q 3034 2534 3370 2195 
Q 3706 1856 3706 1288 
Q 3706 609 3251 259 
Q 2797 -91 1919 -91 
Q 1588 -91 1214 -16 
Q 841 59 441 206 
L 441 856 
Q 825 641 1194 531 
Q 1563 422 1919 422 
Q 2459 422 2753 634 
Q 3047 847 3047 1241 
Q 3047 1584 2836 1778 
Q 2625 1972 2144 2069 
L 1759 2144 
Q 1053 2284 737 2584 
Q 422 2884 422 3419 
Q 422 4038 858 4394 
Q 1294 4750 2059 4750 
Q 2388 4750 2728 4690 
Q 3069 4631 3425 4513 
z
" transform="scale(0.015625)"/>
      <path id="DejaVuSans-4d" d="M 628 4666 
L 1569 4666 
L 2759 1491 
L 3956 4666 
L 4897 4666 
L 4897 0 
L 4281 0 
L 4281 4097 
L 3078 897 
L 2444 897 
L 1241 4097 
L 1241 0 
L 628 0 
L 628 4666 
z
" transform="scale(0.015625)"/>
      <path id="DejaVuSans-61" d="M 2194 1759 
Q 1497 1759 1228 1600 
Q 959 1441 959 1056 
Q 959 750 1161 570 
Q 1363 391 1709 391 
Q 2188 391 2477 730 
Q 2766 1069 2766 1631 
L 2766 1759 
L 2194 1759 
z
M 3341 1997 
L 3341 0 
L 2766 0 
L 2766 531 
Q 2569 213 2275 61 
Q 1981 -91 1556 -91 
Q 1019 -91 701 211 
Q 384 513 384 1019 
Q 384 1609 779 1909 
Q 1175 2209 1959 2209 
L 2766 2209 
L 2766 2266 
Q 2766 2663 2505 2880 
Q 2244 3097 1772 3097 
Q 1472 3097 1187 3025 
Q 903 2953 641 2809 
L 641 3341 
Q 956 3463 1253 3523 
Q 1550 3584 1831 3584 
Q 2591 3584 2966 3190 
Q 3341 2797 3341 1997 
z
" transform="scale(0.015625)"/>
      <path id="DejaVuSans-64" d="M 2906 2969 
L 2906 4863 
L 3481 4863 
L 3481 0 
L 2906 0 
L 2906 525 
Q 2725 213 2448 61 
Q 2172 -91 1784 -91 
Q 1150 -91 751 415 
Q 353 922 353 1747 
Q 353 2572 751 3078 
Q 1150 3584 1784 3584 
Q 2172 3584 2448 3432 
Q 2725 3281 2906 2969 
z
M 947 1747 
Q 947 1113 1208 752 
Q 1469 391 1925 391 
Q 2381 391 2643 752 
Q 2906 1113 2906 1747 
Q 2906 2381 2643 2742 
Q 2381 3103 1925 3103 
Q 1469 3103 1208 2742 
Q 947 2381 947 1747 
z
" transform="scale(0.015625)"/>
      <path id="DejaVuSans-50" d="M 1259 4147 
L 1259 2394 
L 2053 2394 
Q 2494 2394 2734 2622 
Q 2975 2850 2975 3272 
Q 2975 3691 2734 3919 
Q 2494 4147 2053 4147 
L 1259 4147 
z
M 628 4666 
L 2053 4666 
Q 2838 4666 3239 4311 
Q 3641 3956 3641 3272 
Q 3641 2581 3239 2228 
Q 2838 1875 2053 1875 
L 1259 1875 
L 1259 0 
L 628 0 
L 628 4666 
z
" transform="scale(0.015625)"/>
      <path id="DejaVuSans-6c" d="M 603 4863 
L 1178 4863 
L 1178 0 
L 603 0 
L 603 4863 
z
" transform="scale(0.015625)"/>
      <path id="DejaVuSans-2c" d="M 750 794 
L 1409 794 
L 1409 256 
L 897 -744 
L 494 -744 
L 750 256 
L 750 794 
z
" transform="scale(0.015625)"/>
      <path id="DejaVuSans-79" d="M 2059 -325 
Q 1816 -950 1584 -1140 
Q 1353 -1331 966 -1331 
L 506 -1331 
L 506 -850 
L 844 -850 
Q 1081 -850 1212 -737 
Q 1344 -625 1503 -206 
L 1606 56 
L 191 3500 
L 800 3500 
L 1894 763 
L 2988 3500 
L 3597 3500 
L 2059 -325 
z
" transform="scale(0.015625)"/>
      <path id="DejaVuSans-2e" d="M 684 794 
L 1344 794 
L 1344 0 
L 684 0 
L 684 794 
z
" transform="scale(0.015625)"/>
      <path id="DejaVuSans-3a" d="M 750 794 
L 1409 794 
L 1409 0 
L 750 0 
L 750 794 
z
M 750 3309 
L 1409 3309 
L 1409 2516 
L 750 2516 
L 750 3309 
z
" transform="scale(0.015625)"/>
     </defs>
     <use xlink:href="#DejaVuSans-4e"/>
     <use xlink:href="#DejaVuSans-75" x="74.804688"/>
     <use xlink:href="#DejaVuSans-6d" x="138.183594"/>
     <use xlink:href="#DejaVuSans-62" x="235.595703"/>
     <use xlink:href="#DejaVuSans-65" x="299.072266"/>
     <use xlink:href="#DejaVuSans-72" x="360.595703"/>
     <use xlink:href="#DejaVuSans-20" x="401.708984"/>
     <use xlink:href="#DejaVuSans-6f" x="433.496094"/>
     <use xlink:href="#DejaVuSans-66" x="494.677734"/>
     <use xlink:href="#DejaVuSans-20" x="529.882812"/>
     <use xlink:href="#DejaVuSans-41" x="561.669922"/>
     <use xlink:href="#DejaVuSans-45" x="630.078125"/>
     <use xlink:href="#DejaVuSans-44" x="693.261719"/>
     <use xlink:href="#DejaVuSans-73" x="770.263672"/>
     <use xlink:href="#DejaVuSans-20" x="822.363281"/>
     <use xlink:href="#DejaVuSans-69" x="854.150391"/>
     <use xlink:href="#DejaVuSans-6e" x="881.933594"/>
     <use xlink:href="#DejaVuSans-20" x="945.3125"/>
     <use xlink:href="#DejaVuSans-74" x="977.099609"/>
     <use xlink:href="#DejaVuSans-68" x="1016.308594"/>
     <use xlink:href="#DejaVuSans-65" x="1079.6875"/>
     <use xlink:href="#DejaVuSans-20" x="1141.210938"/>
     <use xlink:href="#DejaVuSans-4f" x="1172.998047"/>
     <use xlink:href="#DejaVuSans-70" x="1251.708984"/>
     <use xlink:href="#DejaVuSans-65" x="1315.185547"/>
     <use xlink:href="#DejaVuSans-6e" x="1376.708984"/>
     <use xlink:href="#DejaVuSans-53" x="1440.087891"/>
     <use xlink:href="#DejaVuSans-74" x="1503.564453"/>
     <use xlink:href="#DejaVuSans-72" x="1542.773438"/>
     <use xlink:href="#DejaVuSans-65" x="1581.636719"/>
     <use xlink:href="#DejaVuSans-65" x="1643.160156"/>
     <use xlink:href="#DejaVuSans-74" x="1704.683594"/>
     <use xlink:href="#DejaVuSans-4d" x="1743.892578"/>
     <use xlink:href="#DejaVuSans-61" x="1830.171875"/>
     <use xlink:href="#DejaVuSans-70" x="1891.451172"/>
     <use xlink:href="#DejaVuSans-20" x="1954.927734"/>
     <use xlink:href="#DejaVuSans-64" x="1986.714844"/>
     <use xlink:href="#DejaVuSans-61" x="2050.191406"/>
     <use xlink:href="#DejaVuSans-74" x="2111.470703"/>
     <use xlink:href="#DejaVuSans-61" x="2150.679688"/>
     <use xlink:href="#DejaVuSans-62" x="2211.958984"/>
     <use xlink:href="#DejaVuSans-61" x="2275.435547"/>
     <use xlink:href="#DejaVuSans-73" x="2336.714844"/>
     <use xlink:href="#DejaVuSans-65" x="2388.814453"/>
     <use xlink:href="#DejaVuSans-20" x="2450.337891"/>
     <use xlink:href="#DejaVuSans-69" x="2482.125"/>
     <use xlink:href="#DejaVuSans-6e" x="2509.908203"/>
     <use xlink:href="#DejaVuSans-20" x="2573.287109"/>
     <use xlink:href="#DejaVuSans-50" x="2605.074219"/>
     <use xlink:href="#DejaVuSans-6f" x="2661.751953"/>
     <use xlink:href="#DejaVuSans-6c" x="2722.933594"/>
     <use xlink:href="#DejaVuSans-61" x="2750.716797"/>
     <use xlink:href="#DejaVuSans-6e" x="2811.996094"/>
     <use xlink:href="#DejaVuSans-64" x="2875.375"/>
     <use xlink:href="#DejaVuSans-20" x="2938.851562"/>
     <use xlink:href="#DejaVuSans-66" x="2970.638672"/>
     <use xlink:href="#DejaVuSans-72" x="3005.84375"/>
     <use xlink:href="#DejaVuSans-6f" x="3044.707031"/>
     <use xlink:href="#DejaVuSans-6d" x="3105.888672"/>
     <use xlink:href="#DejaVuSans-20" x="3203.300781"/>
     <use xlink:href="#DejaVuSans-32" x="3235.087891"/>
     <use xlink:href="#DejaVuSans-30" x="3298.710938"/>
     <use xlink:href="#DejaVuSans-32" x="3362.333984"/>
     <use xlink:href="#DejaVuSans-36" x="3425.957031"/>
     <use xlink:href="#DejaVuSans-2d" x="3489.580078"/>
     <use xlink:href="#DejaVuSans-30" x="3525.664062"/>
     <use xlink:href="#DejaVuSans-31" x="3589.287109"/>
     <use xlink:href="#DejaVuSans-2d" x="3652.910156"/>
     <use xlink:href="#DejaVuSans-30" x="3688.994141"/>
     <use xlink:href="#DejaVuSans-31" x="3752.617188"/>
     <use xlink:href="#DejaVuSans-2c" x="3816.240234"/>
     <use xlink:href="#DejaVuSans-20" x="3848.027344"/>
     <use xlink:href="#DejaVuSans-64" x="3879.814453"/>
     <use xlink:href="#DejaVuSans-61" x="3943.291016"/>
     <use xlink:href="#DejaVuSans-79" x="4004.570312"/>
     <use xlink:href="#DejaVuSans-20" x="4063.75"/>
     <use xlink:href="#DejaVuSans-62" x="4095.537109"/>
     <use xlink:href="#DejaVuSans-79" x="4159.013672"/>
     <use xlink:href="#DejaVuSans-20" x="4218.193359"/>
     <use xlink:href="#DejaVuSans-64" x="4249.980469"/>
     <use xlink:href="#DejaVuSans-61" x="4313.457031"/>
     <use xlink:href="#DejaVuSans-79" x="4374.736328"/>
     <use xlink:href="#DejaVuSans-2e" x="4419.666016"/>
     <use xlink:href="#DejaVuSans-20" x="4451.453125"/>
     <use xlink:href="#DejaVuSans-41" x="4483.240234"/>
     <use xlink:href="#DejaVuSans-73" x="4551.648438"/>
     <use xlink:href="#DejaVuSans-20" x="4603.748047"/>
     <use xlink:href="#DejaVuSans-61" x="4635.535156"/>
     <use xlink:href="#DejaVuSans-74" x="4696.814453"/>
     <use xlink:href="#DejaVuSans-3a" x="4736.023438"/>
     <use xlink:href="#DejaVuSans-20" x="4769.714844"/>
     <use xlink:href="#DejaVuSans-32" x="4801.501953"/>
     <use xlink:href="#DejaVuSans-30" x="4865.125"/>
     <use xlink:href="#DejaVuSans-32" x="4928.748047"/>
     <use xlink:href="#DejaVuSans-36" x="4992.371094"/>
     <use xlink:href="#DejaVuSans-2d" x="5055.994141"/>
     <use xlink:href="#DejaVuSans-30" x="5092.078125"/>
     <use xlink:href="#DejaVuSans-33" x="5155.701172"/>
     <use xlink:href="#DejaVuSans-2d" x="5219.324219"/>
     <use xlink:href="#DejaVuSans-31" x="5255.408203"/>
     <use xlink:href="#DejaVuSans-31" x="5319.03125"/>
    </g>
   </g>
  </g>
 </g>
 <defs>
  <clipPath id="pea172bbb34">
   <rect x="144" y="69.12" width="892.8" height="443.52"/>
  </clipPath>
 </defs>
</svg>
