<?xml version="1.0" encoding="utf-8" standalone="no"?>
<!DOCTYPE svg PUBLIC "-//W3C//DTD SVG 1.1//EN"
  "http://www.w3.org/Graphics/SVG/1.1/DTD/svg11.dtd">
<svg xmlns:xlink="http://www.w3.org/1999/xlink" width="1152pt" height="576pt" viewBox="0 0 1152 576" xmlns="http://www.w3.org/2000/svg" version="1.1">
 <metadata>
  <rdf:RDF xmlns:dc="http://purl.org/dc/elements/1.1/" xmlns:cc="http://creativecommons.org/ns#" xmlns:rdf="http://www.w3.org/1999/02/22-rdf-syntax-ns#">
   <cc:Work>
    <dc:type rdf:resource="http://purl.org/dc/dcmitype/StillImage"/>
    <dc:date>1980-01-01T00:00:00+00:00</dc:date>
    <dc:format>image/svg+xml</dc:format>
    <dc:creator>
     <cc:Agent>
      <dc:title>Matplotlib v3.9.1, https://matplotlib.org/</dc:title>
     </cc:Agent>
    </dc:creator>
   </cc:Work>
  </rdf:RDF>
 </metadata>
 <defs>
  <style type="text/css">*{stroke-linejoin: round; stroke-linecap: butt}</style>
 </defs>
 <g id="figure_1">
  <g id="patch_1">
   <path d="M 0 576 
L 1152 576 
L 1152 0 
L 0 0 
z
" style="fill: #ffffff"/>
  </g>
  <g id="axes_1">
   <g id="patch_2">
    <path d="M 144 512.64 
L 1036.8 512.64 
L 1036.8 69.12 
L 144 69.12 
z
" style="fill: #ffffff"/>
   </g>
   <g id="PathCollection_1">
    <path d="M 184.581818 494.716068 
C 185.17483 494.716068 185.743634 494.480462 186.162957 494.061139 
C 186.58228 493.641816 186.817886 493.073012 186.817886 492.48 
C 186.817886 491.886988 186.58228 491.318184 186.162957 490.898861 
C 185.743634 490.479538 185.17483 490.243932 184.581818 490.243932 
C 183.988806 490.243932 183.420002 490.479538 183.000679 490.898861 
C 182.581356 491.318184 182.34575 491.886988 182.34575 492.48 
C 182.34575 493.073012 182.581356 493.641816 183.000679 494.061139 
C 183.420002 494.480462 183.988806 494.716068 184.581818 494.716068 
z
" clip-path="url(#p25c4cb116d)" style="fill: #1f77b4; fill-opacity: 0.3; stroke: #1f77b4; stroke-opacity: 0.3"/>
    <path d="M 203.028099 494.021469 
C 203.965734 494.021469 204.865091 493.648942 205.528099 492.985935 
C 206.191107 492.322927 206.563633 491.423569 206.563633 490.485935 
C 206.563633 489.5483 206.191107 488.648942 205.528099 487.985935 
C 204.865091 487.322927 203.965734 486.950401 203.028099 486.950401 
C 202.090465 486.950401 201.191107 487.322927 200.528099 487.985935 
C 199.865091 488.648942 199.492565 489.5483 199.492565 490.485935 
C 199.492565 491.423569 199.865091 492.322927 200.528099 492.985935 
C 201.191107 493.648942 202.090465 494.021469 203.028099 494.021469 
z
" clip-path="url(#p25c4cb116d)" style="fill: #1f77b4; fill-opacity: 0.3; stroke: #1f77b4; stroke-opacity: 0.3"/>
    <path d="M 221.47438 490.627463 
C 223.098411 490.627463 224.656144 489.982229 225.804507 488.833866 
C 226.95287 487.685503 227.598105 486.12777 227.598105 484.503739 
C 227.598105 482.879708 226.95287 481.321975 225.804507 480.173612 
C 224.656144 479.025249 223.098411 478.380015 221.47438 478.380015 
C 219.850349 478.380015 218.292616 479.025249 217.144253 480.173612 
C 215.99589 481.321975 215.350656 482.879708 215.350656 484.503739 
C 215.350656 486.12777 215.99589 487.685503 217.144253 488.833866 
C 218.292616 489.982229 219.850349 490.627463 221.47438 490.627463 
z
" clip-path="url(#p25c4cb116d)" style="fill: #1f77b4; fill-opacity: 0.3; stroke: #1f77b4; stroke-opacity: 0.3"/>
    <path d="M 239.920661 486.045912 
C 240.64695 486.045912 241.343589 485.757355 241.857153 485.243791 
C 242.370716 484.730228 242.659274 484.033588 242.659274 483.3073 
C 242.659274 482.581011 242.370716 481.884372 241.857153 481.370808 
C 241.343589 480.857244 240.64695 480.568687 239.920661 480.568687 
C 239.194373 480.568687 238.497733 480.857244 237.984169 481.370808 
C 237.470606 481.884372 237.182048 482.581011 237.182048 483.3073 
C 237.182048 484.033588 237.470606 484.730228 237.984169 485.243791 
C 238.497733 485.757355 239.194373 486.045912 239.920661 486.045912 
z
" clip-path="url(#p25c4cb116d)" style="fill: #1f77b4; fill-opacity: 0.3; stroke: #1f77b4; stroke-opacity: 0.3"/>
    <path d="M 258.366942 484.588931 
C 259.552966 484.588931 260.690574 484.117719 261.52922 483.279073 
C 262.367866 482.440427 262.839078 481.30282 262.839078 480.116795 
C 262.839078 478.930771 262.367866 477.793163 261.52922 476.954518 
C 260.690574 476.115872 259.552966 475.644659 258.366942 475.644659 
C 257.180918 475.644659 256.04331 476.115872 255.204664 476.954518 
C 254.366019 477.793163 253.894806 478.930771 253.894806 480.116795 
C 253.894806 481.30282 254.366019 482.440427 255.204664 483.279073 
C 256.04331 484.117719 257.180918 484.588931 258.366942 484.588931 
z
" clip-path="url(#p25c4cb116d)" style="fill: #1f77b4; fill-opacity: 0.3; stroke: #1f77b4; stroke-opacity: 0.3"/>
    <path d="M 276.813223 481.128665 
C 278.139239 481.128665 279.411122 480.601833 280.348757 479.664199 
C 281.286392 478.726564 281.813223 477.45468 281.813223 476.128665 
C 281.813223 474.802649 281.286392 473.530765 280.348757 472.593131 
C 279.411122 471.655496 278.139239 471.128665 276.813223 471.128665 
C 275.487208 471.128665 274.215324 471.655496 273.277689 472.593131 
C 272.340055 473.530765 271.813223 474.802649 271.813223 476.128665 
C 271.813223 477.45468 272.340055 478.726564 273.277689 479.664199 
C 274.215324 480.601833 275.487208 481.128665 276.813223 481.128665 
z
" clip-path="url(#p25c4cb116d)" style="fill: #1f77b4; fill-opacity: 0.3; stroke: #1f77b4; stroke-opacity: 0.3"/>
    <path d="M 295.259504 477.567107 
C 295.852516 477.567107 296.42132 477.3315 296.840643 476.912177 
C 297.259966 476.492854 297.495572 475.924051 297.495572 475.331039 
C 297.495572 474.738026 297.259966 474.169223 296.840643 473.7499 
C 296.42132 473.330577 295.852516 473.094971 295.259504 473.094971 
C 294.666492 473.094971 294.097688 473.330577 293.678365 473.7499 
C 293.259042 474.169223 293.023436 474.738026 293.023436 475.331039 
C 293.023436 475.924051 293.259042 476.492854 293.678365 476.912177 
C 294.097688 477.3315 294.666492 477.567107 295.259504 477.567107 
z
" clip-path="url(#p25c4cb116d)" style="fill: #1f77b4; fill-opacity: 0.3; stroke: #1f77b4; stroke-opacity: 0.3"/>
    <path d="M 313.705785 476.61267 
C 314.891809 476.61267 316.029417 476.141458 316.868063 475.302812 
C 317.706709 474.464166 318.177921 473.326558 318.177921 472.140534 
C 318.177921 470.95451 317.706709 469.816902 316.868063 468.978256 
C 316.029417 468.139611 314.891809 467.668398 313.705785 467.668398 
C 312.519761 467.668398 311.382153 468.139611 310.543507 468.978256 
C 309.704862 469.816902 309.233649 470.95451 309.233649 472.140534 
C 309.233649 473.326558 309.704862 474.464166 310.543507 475.302812 
C 311.382153 476.141458 312.519761 476.61267 313.705785 476.61267 
z
" clip-path="url(#p25c4cb116d)" style="fill: #1f77b4; fill-opacity: 0.3; stroke: #1f77b4; stroke-opacity: 0.3"/>
    <path d="M 332.152066 473.682708 
C 332.878355 473.682708 333.574994 473.39415 334.088558 472.880587 
C 334.602121 472.367023 334.890679 471.670384 334.890679 470.944095 
C 334.890679 470.217806 334.602121 469.521167 334.088558 469.007603 
C 333.574994 468.49404 332.878355 468.205482 332.152066 468.205482 
C 331.425778 468.205482 330.729138 468.49404 330.215574 469.007603 
C 329.702011 469.521167 329.413453 470.217806 329.413453 470.944095 
C 329.413453 471.670384 329.702011 472.367023 330.215574 472.880587 
C 330.729138 473.39415 331.425778 473.682708 332.152066 473.682708 
z
" clip-path="url(#p25c4cb116d)" style="fill: #1f77b4; fill-opacity: 0.3; stroke: #1f77b4; stroke-opacity: 0.3"/>
    <path d="M 350.598347 472.51112 
C 351.436993 472.51112 352.241403 472.177923 352.834415 471.584911 
C 353.427427 470.991899 353.760625 470.187489 353.760625 469.348843 
C 353.760625 468.510197 353.427427 467.705787 352.834415 467.112775 
C 352.241403 466.519763 351.436993 466.186565 350.598347 466.186565 
C 349.759701 466.186565 348.955291 466.519763 348.362279 467.112775 
C 347.769267 467.705787 347.436069 468.510197 347.436069 469.348843 
C 347.436069 470.187489 347.769267 470.991899 348.362279 471.584911 
C 348.955291 472.177923 349.759701 472.51112 350.598347 472.51112 
z
" clip-path="url(#p25c4cb116d)" style="fill: #1f77b4; fill-opacity: 0.3; stroke: #1f77b4; stroke-opacity: 0.3"/>
    <path d="M 369.044628 470.787285 
C 369.63764 470.787285 370.206444 470.551678 370.625767 470.132355 
C 371.04509 469.713033 371.280696 469.144229 371.280696 468.551217 
C 371.280696 467.958204 371.04509 467.389401 370.625767 466.970078 
C 370.206444 466.550755 369.63764 466.315149 369.044628 466.315149 
C 368.451616 466.315149 367.882812 466.550755 367.463489 466.970078 
C 367.044166 467.389401 366.80856 467.958204 366.80856 468.551217 
C 366.80856 469.144229 367.044166 469.713033 367.463489 470.132355 
C 367.882812 470.551678 368.451616 470.787285 369.044628 470.787285 
z
" clip-path="url(#p25c4cb116d)" style="fill: #1f77b4; fill-opacity: 0.3; stroke: #1f77b4; stroke-opacity: 0.3"/>
    <path d="M 387.490909 470.092685 
C 388.428544 470.092685 389.327901 469.720159 389.990909 469.057151 
C 390.653917 468.394144 391.026443 467.494786 391.026443 466.557151 
C 391.026443 465.619517 390.653917 464.720159 389.990909 464.057151 
C 389.327901 463.394144 388.428544 463.021617 387.490909 463.021617 
C 386.553275 463.021617 385.653917 463.394144 384.990909 464.057151 
C 384.327901 464.720159 383.955375 465.619517 383.955375 466.557151 
C 383.955375 467.494786 384.327901 468.394144 384.990909 469.057151 
C 385.653917 469.720159 386.553275 470.092685 387.490909 470.092685 
z
" clip-path="url(#p25c4cb116d)" style="fill: #1f77b4; fill-opacity: 0.3; stroke: #1f77b4; stroke-opacity: 0.3"/>
    <path d="M 405.93719 468.124177 
C 406.775836 468.124177 407.580246 467.790979 408.173258 467.197967 
C 408.76627 466.604955 409.099468 465.800545 409.099468 464.961899 
C 409.099468 464.123253 408.76627 463.318843 408.173258 462.725831 
C 407.580246 462.132819 406.775836 461.799621 405.93719 461.799621 
C 405.098544 461.799621 404.294134 462.132819 403.701122 462.725831 
C 403.10811 463.318843 402.774912 464.123253 402.774912 464.961899 
C 402.774912 465.800545 403.10811 466.604955 403.701122 467.197967 
C 404.294134 467.790979 405.098544 468.124177 405.93719 468.124177 
z
" clip-path="url(#p25c4cb116d)" style="fill: #1f77b4; fill-opacity: 0.3; stroke: #1f77b4; stroke-opacity: 0.3"/>
    <path d="M 424.383471 466.503368 
C 425.321106 466.503368 426.220463 466.130842 426.883471 465.467834 
C 427.546479 464.804826 427.919005 463.905468 427.919005 462.967834 
C 427.919005 462.030199 427.546479 461.130842 426.883471 460.467834 
C 426.220463 459.804826 425.321106 459.4323 424.383471 459.4323 
C 423.445837 459.4323 422.546479 459.804826 421.883471 460.467834 
C 421.220463 461.130842 420.847937 462.030199 420.847937 462.967834 
C 420.847937 463.905468 421.220463 464.804826 421.883471 465.467834 
C 422.546479 466.130842 423.445837 466.503368 424.383471 466.503368 
z
" clip-path="url(#p25c4cb116d)" style="fill: #1f77b4; fill-opacity: 0.3; stroke: #1f77b4; stroke-opacity: 0.3"/>
    <path d="M 442.829752 464.509302 
C 443.767387 464.509302 444.666744 464.136776 445.329752 463.473769 
C 445.99276 462.810761 446.365286 461.911403 446.365286 460.973769 
C 446.365286 460.036134 445.99276 459.136776 445.329752 458.473769 
C 444.666744 457.810761 443.767387 457.438235 442.829752 457.438235 
C 441.892118 457.438235 440.99276 457.810761 440.329752 458.473769 
C 439.666744 459.136776 439.294218 460.036134 439.294218 460.973769 
C 439.294218 461.911403 439.666744 462.810761 440.329752 463.473769 
C 440.99276 464.136776 441.892118 464.509302 442.829752 464.509302 
z
" clip-path="url(#p25c4cb116d)" style="fill: #1f77b4; fill-opacity: 0.3; stroke: #1f77b4; stroke-opacity: 0.3"/>
    <path d="M 461.276033 462.453874 
C 462.30316 462.453874 463.288357 462.045792 464.014646 461.319503 
C 464.740934 460.593214 465.149016 459.608017 465.149016 458.58089 
C 465.149016 457.553763 464.740934 456.568566 464.014646 455.842277 
C 463.288357 455.115989 462.30316 454.707907 461.276033 454.707907 
C 460.248906 454.707907 459.263709 455.115989 458.53742 455.842277 
C 457.811132 456.568566 457.40305 457.553763 457.40305 458.58089 
C 457.40305 459.608017 457.811132 460.593214 458.53742 461.319503 
C 459.263709 462.045792 460.248906 462.453874 461.276033 462.453874 
z
" clip-path="url(#p25c4cb116d)" style="fill: #1f77b4; fill-opacity: 0.3; stroke: #1f77b4; stroke-opacity: 0.3"/>
    <path d="M 479.722314 460.122359 
C 480.659949 460.122359 481.559306 459.749833 482.222314 459.086825 
C 482.885322 458.423817 483.257848 457.524459 483.257848 456.586825 
C 483.257848 455.64919 482.885322 454.749833 482.222314 454.086825 
C 481.559306 453.423817 480.659949 453.051291 479.722314 453.051291 
C 478.784679 453.051291 477.885322 453.423817 477.222314 454.086825 
C 476.559306 454.749833 476.18678 455.64919 476.18678 456.586825 
C 476.18678 457.524459 476.559306 458.423817 477.222314 459.086825 
C 477.885322 459.749833 478.784679 460.122359 479.722314 460.122359 
z
" clip-path="url(#p25c4cb116d)" style="fill: #1f77b4; fill-opacity: 0.3; stroke: #1f77b4; stroke-opacity: 0.3"/>
    <path d="M 498.168595 458.06693 
C 499.195722 458.06693 500.180919 457.658848 500.907208 456.932559 
C 501.633496 456.206271 502.041578 455.221074 502.041578 454.193947 
C 502.041578 453.166819 501.633496 452.181622 500.907208 451.455334 
C 500.180919 450.729045 499.195722 450.320963 498.168595 450.320963 
C 497.141468 450.320963 496.156271 450.729045 495.429982 451.455334 
C 494.703694 452.181622 494.295612 453.166819 494.295612 454.193947 
C 494.295612 455.221074 494.703694 456.206271 495.429982 456.932559 
C 496.156271 457.658848 497.141468 458.06693 498.168595 458.06693 
z
" clip-path="url(#p25c4cb116d)" style="fill: #1f77b4; fill-opacity: 0.3; stroke: #1f77b4; stroke-opacity: 0.3"/>
    <path d="M 516.614876 455.585555 
C 517.7243 455.585555 518.788435 455.144776 519.572916 454.360295 
C 520.357397 453.575814 520.798176 452.511679 520.798176 451.402255 
C 520.798176 450.292831 520.357397 449.228697 519.572916 448.444215 
C 518.788435 447.659734 517.7243 447.218955 516.614876 447.218955 
C 515.505452 447.218955 514.441317 447.659734 513.656836 448.444215 
C 512.872355 449.228697 512.431576 450.292831 512.431576 451.402255 
C 512.431576 452.511679 512.872355 453.575814 513.656836 454.360295 
C 514.441317 455.144776 515.505452 455.585555 516.614876 455.585555 
z
" clip-path="url(#p25c4cb116d)" style="fill: #1f77b4; fill-opacity: 0.3; stroke: #1f77b4; stroke-opacity: 0.3"/>
    <path d="M 535.061157 452.683887 
C 536.247181 452.683887 537.384789 452.212674 538.223435 451.374028 
C 539.062081 450.535383 539.533293 449.397775 539.533293 448.211751 
C 539.533293 447.025726 539.062081 445.888119 538.223435 445.049473 
C 537.384789 444.210827 536.247181 443.739615 535.061157 443.739615 
C 533.875133 443.739615 532.737525 444.210827 531.898879 445.049473 
C 531.060234 445.888119 530.589021 447.025726 530.589021 448.211751 
C 530.589021 449.397775 531.060234 450.535383 531.898879 451.374028 
C 532.737525 452.212674 533.875133 452.683887 535.061157 452.683887 
z
" clip-path="url(#p25c4cb116d)" style="fill: #1f77b4; fill-opacity: 0.3; stroke: #1f77b4; stroke-opacity: 0.3"/>
    <path d="M 553.507438 449.691856 
C 554.534565 449.691856 555.519762 449.283774 556.246051 448.557485 
C 556.972339 447.831197 557.380421 446.846 557.380421 445.818872 
C 557.380421 444.791745 556.972339 443.806548 556.246051 443.08026 
C 555.519762 442.353971 554.534565 441.945889 553.507438 441.945889 
C 552.480311 441.945889 551.495114 442.353971 550.768825 443.08026 
C 550.042537 443.806548 549.634455 444.791745 549.634455 445.818872 
C 549.634455 446.846 550.042537 447.831197 550.768825 448.557485 
C 551.495114 449.283774 552.480311 449.691856 553.507438 449.691856 
z
" clip-path="url(#p25c4cb116d)" style="fill: #1f77b4; fill-opacity: 0.3; stroke: #1f77b4; stroke-opacity: 0.3"/>
    <path d="M 571.953719 446.675973 
C 573.344456 446.675973 574.678419 446.123427 575.661818 445.140028 
C 576.645218 444.156629 577.197763 442.822666 577.197763 441.431929 
C 577.197763 440.041192 576.645218 438.707229 575.661818 437.72383 
C 574.678419 436.74043 573.344456 436.187885 571.953719 436.187885 
C 570.562982 436.187885 569.229019 436.74043 568.24562 437.72383 
C 567.26222 438.707229 566.709675 440.041192 566.709675 441.431929 
C 566.709675 442.822666 567.26222 444.156629 568.24562 445.140028 
C 569.229019 446.123427 570.562982 446.675973 571.953719 446.675973 
z
" clip-path="url(#p25c4cb116d)" style="fill: #1f77b4; fill-opacity: 0.3; stroke: #1f77b4; stroke-opacity: 0.3"/>
    <path d="M 590.4 441.375475 
C 592.077292 441.375475 593.686112 440.70908 594.872136 439.523056 
C 596.05816 438.337032 596.724555 436.728212 596.724555 435.05092 
C 596.724555 433.373628 596.05816 431.764808 594.872136 430.578784 
C 593.686112 429.39276 592.077292 428.726365 590.4 428.726365 
C 588.722708 428.726365 587.113888 429.39276 585.927864 430.578784 
C 584.74184 431.764808 584.075445 433.373628 584.075445 435.05092 
C 584.075445 436.728212 584.74184 438.337032 585.927864 439.523056 
C 587.113888 440.70908 588.722708 441.375475 590.4 441.375475 
z
" clip-path="url(#p25c4cb116d)" style="fill: #1f77b4; fill-opacity: 0.3; stroke: #1f77b4; stroke-opacity: 0.3"/>
    <path d="M 608.846281 433.225373 
C 610.900535 433.225373 612.870929 432.409209 614.323507 430.956632 
C 615.776084 429.504055 616.592248 427.533661 616.592248 425.479407 
C 616.592248 423.425152 615.776084 421.454758 614.323507 420.002181 
C 612.870929 418.549604 610.900535 417.73344 608.846281 417.73344 
C 606.792027 417.73344 604.821633 418.549604 603.369055 420.002181 
C 601.916478 421.454758 601.100314 423.425152 601.100314 425.479407 
C 601.100314 427.533661 601.916478 429.504055 603.369055 430.956632 
C 604.821633 432.409209 606.792027 433.225373 608.846281 433.225373 
z
" clip-path="url(#p25c4cb116d)" style="fill: #1f77b4; fill-opacity: 0.3; stroke: #1f77b4; stroke-opacity: 0.3"/>
    <path d="M 627.292562 426.871015 
C 628.401986 426.871015 629.466121 426.430236 630.250602 425.645755 
C 631.035083 424.861274 631.475862 423.797139 631.475862 422.687715 
C 631.475862 421.578291 631.035083 420.514157 630.250602 419.729675 
C 629.466121 418.945194 628.401986 418.504415 627.292562 418.504415 
C 626.183138 418.504415 625.119003 418.945194 624.334522 419.729675 
C 623.550041 420.514157 623.109262 421.578291 623.109262 422.687715 
C 623.109262 423.797139 623.550041 424.861274 624.334522 425.645755 
C 625.119003 426.430236 626.183138 426.871015 627.292562 426.871015 
z
" clip-path="url(#p25c4cb116d)" style="fill: #1f77b4; fill-opacity: 0.3; stroke: #1f77b4; stroke-opacity: 0.3"/>
    <path d="M 645.738843 423.204023 
C 647.250733 423.204023 648.700904 422.603342 649.769972 421.534274 
C 650.83904 420.465206 651.43972 419.015036 651.43972 417.503145 
C 651.43972 415.991255 650.83904 414.541084 649.769972 413.472017 
C 648.700904 412.402949 647.250733 411.802268 645.738843 411.802268 
C 644.226953 411.802268 642.776782 412.402949 641.707714 413.472017 
C 640.638646 414.541084 640.037966 415.991255 640.037966 417.503145 
C 640.037966 419.015036 640.638646 420.465206 641.707714 421.534274 
C 642.776782 422.603342 644.226953 423.204023 645.738843 423.204023 
z
" clip-path="url(#p25c4cb116d)" style="fill: #1f77b4; fill-opacity: 0.3; stroke: #1f77b4; stroke-opacity: 0.3"/>
    <path d="M 664.185124 417.835842 
C 665.754087 417.835842 667.259 417.212487 668.368424 416.103063 
C 669.477848 414.993639 670.101204 413.488725 670.101204 411.919763 
C 670.101204 410.3508 669.477848 408.845887 668.368424 407.736462 
C 667.259 406.627038 665.754087 406.003683 664.185124 406.003683 
C 662.616161 406.003683 661.111248 406.627038 660.001824 407.736462 
C 658.8924 408.845887 658.269044 410.3508 658.269044 411.919763 
C 658.269044 413.488725 658.8924 414.993639 660.001824 416.103063 
C 661.111248 417.212487 662.616161 417.835842 664.185124 417.835842 
z
" clip-path="url(#p25c4cb116d)" style="fill: #1f77b4; fill-opacity: 0.3; stroke: #1f77b4; stroke-opacity: 0.3"/>
    <path d="M 682.631405 407.841883 
C 685.040232 407.841883 687.350723 406.884846 689.054021 405.181548 
C 690.757319 403.47825 691.714356 401.167759 691.714356 398.758932 
C 691.714356 396.350105 690.757319 394.039613 689.054021 392.336315 
C 687.350723 390.633018 685.040232 389.675981 682.631405 389.675981 
C 680.222578 389.675981 677.912086 390.633018 676.208789 392.336315 
C 674.505491 394.039613 673.548454 396.350105 673.548454 398.758932 
C 673.548454 401.167759 674.505491 403.47825 676.208789 405.181548 
C 677.912086 406.884846 680.222578 407.841883 682.631405 407.841883 
z
" clip-path="url(#p25c4cb116d)" style="fill: #1f77b4; fill-opacity: 0.3; stroke: #1f77b4; stroke-opacity: 0.3"/>
    <path d="M 701.077686 395.199135 
C 703.412377 395.199135 705.65176 394.271553 707.302636 392.620677 
C 708.953512 390.969801 709.881094 388.730418 709.881094 386.395727 
C 709.881094 384.061036 708.953512 381.821653 707.302636 380.170777 
C 705.65176 378.519901 703.412377 377.592319 701.077686 377.592319 
C 698.742995 377.592319 696.503612 378.519901 694.852736 380.170777 
C 693.20186 381.821653 692.274278 384.061036 692.274278 386.395727 
C 692.274278 388.730418 693.20186 390.969801 694.852736 392.620677 
C 696.503612 394.271553 698.742995 395.199135 701.077686 395.199135 
z
" clip-path="url(#p25c4cb116d)" style="fill: #1f77b4; fill-opacity: 0.3; stroke: #1f77b4; stroke-opacity: 0.3"/>
    <path d="M 719.523967 382.317847 
C 721.932794 382.317847 724.243285 381.36081 725.946583 379.657512 
C 727.649881 377.954215 728.606918 375.643723 728.606918 373.234896 
C 728.606918 370.826069 727.649881 368.515578 725.946583 366.81228 
C 724.243285 365.108982 721.932794 364.151945 719.523967 364.151945 
C 717.11514 364.151945 714.804648 365.108982 713.101351 366.81228 
C 711.398053 368.515578 710.441016 370.826069 710.441016 373.234896 
C 710.441016 375.643723 711.398053 377.954215 713.101351 379.657512 
C 714.804648 381.36081 717.11514 382.317847 719.523967 382.317847 
z
" clip-path="url(#p25c4cb116d)" style="fill: #1f77b4; fill-opacity: 0.3; stroke: #1f77b4; stroke-opacity: 0.3"/>
    <path d="M 737.970248 368.630583 
C 740.450996 368.630583 742.830473 367.644971 744.584626 365.890817 
C 746.33878 364.136664 747.324391 361.757187 747.324391 359.276439 
C 747.324391 356.795691 746.33878 354.416215 744.584626 352.662061 
C 742.830473 350.907907 740.450996 349.922296 737.970248 349.922296 
C 735.4895 349.922296 733.110023 350.907907 731.35587 352.662061 
C 729.601716 354.416215 728.616104 356.795691 728.616104 359.276439 
C 728.616104 361.757187 729.601716 364.136664 731.35587 365.890817 
C 733.110023 367.644971 735.4895 368.630583 737.970248 368.630583 
z
" clip-path="url(#p25c4cb116d)" style="fill: #1f77b4; fill-opacity: 0.3; stroke: #1f77b4; stroke-opacity: 0.3"/>
    <path d="M 756.416529 358.591015 
C 758.244315 358.591015 759.997486 357.864828 761.289926 356.572388 
C 762.582366 355.279948 763.308553 353.526777 763.308553 351.698991 
C 763.308553 349.871205 762.582366 348.118034 761.289926 346.825594 
C 759.997486 345.533154 758.244315 344.806967 756.416529 344.806967 
C 754.588743 344.806967 752.835572 345.533154 751.543132 346.825594 
C 750.250692 348.118034 749.524505 349.871205 749.524505 351.698991 
C 749.524505 353.526777 750.250692 355.279948 751.543132 356.572388 
C 752.835572 357.864828 754.588743 358.591015 756.416529 358.591015 
z
" clip-path="url(#p25c4cb116d)" style="fill: #1f77b4; fill-opacity: 0.3; stroke: #1f77b4; stroke-opacity: 0.3"/>
    <path d="M 774.86281 352.980623 
C 776.048834 352.980623 777.186442 352.50941 778.025088 351.670764 
C 778.863733 350.832118 779.334946 349.694511 779.334946 348.508487 
C 779.334946 347.322462 778.863733 346.184855 778.025088 345.346209 
C 777.186442 344.507563 776.048834 344.036351 774.86281 344.036351 
C 773.676786 344.036351 772.539178 344.507563 771.700532 345.346209 
C 770.861886 346.184855 770.390674 347.322462 770.390674 348.508487 
C 770.390674 349.694511 770.861886 350.832118 771.700532 351.670764 
C 772.539178 352.50941 773.676786 352.980623 774.86281 352.980623 
z
" clip-path="url(#p25c4cb116d)" style="fill: #1f77b4; fill-opacity: 0.3; stroke: #1f77b4; stroke-opacity: 0.3"/>
    <path d="M 793.309091 348.650015 
C 794.933122 348.650015 796.490855 348.004781 797.639218 346.856418 
C 798.787581 345.708055 799.432815 344.150321 799.432815 342.526291 
C 799.432815 340.90226 798.787581 339.344527 797.639218 338.196164 
C 796.490855 337.047801 794.933122 336.402566 793.309091 336.402566 
C 791.68506 336.402566 790.127327 337.047801 788.978964 338.196164 
C 787.830601 339.344527 787.185367 340.90226 787.185367 342.526291 
C 787.185367 344.150321 787.830601 345.708055 788.978964 346.856418 
C 790.127327 348.004781 791.68506 348.650015 793.309091 348.650015 
z
" clip-path="url(#p25c4cb116d)" style="fill: #1f77b4; fill-opacity: 0.3; stroke: #1f77b4; stroke-opacity: 0.3"/>
    <path d="M 811.755372 331.731283 
C 814.921191 331.731283 817.957772 330.47349 820.196343 328.234918 
C 822.434915 325.996346 823.692708 322.959765 823.692708 319.793947 
C 823.692708 316.628128 822.434915 313.591547 820.196343 311.352975 
C 817.957772 309.114403 814.921191 307.85661 811.755372 307.85661 
C 808.589553 307.85661 805.552972 309.114403 803.3144 311.352975 
C 801.075829 313.591547 799.818036 316.628128 799.818036 319.793947 
C 799.818036 322.959765 801.075829 325.996346 803.3144 328.234918 
C 805.552972 330.47349 808.589553 331.731283 811.755372 331.731283 
z
" clip-path="url(#p25c4cb116d)" style="fill: #1f77b4; fill-opacity: 0.3; stroke: #1f77b4; stroke-opacity: 0.3"/>
    <path d="M 830.201653 292.830897 
C 834.579513 292.830897 838.778656 291.091555 841.87427 287.995941 
C 844.969885 284.900327 846.709227 280.701183 846.709227 276.323323 
C 846.709227 271.945464 844.969885 267.74632 841.87427 264.650706 
C 838.778656 261.555092 834.579513 259.815749 830.201653 259.815749 
C 825.823793 259.815749 821.62465 261.555092 818.529035 264.650706 
C 815.433421 267.74632 813.694079 271.945464 813.694079 276.323323 
C 813.694079 280.701183 815.433421 284.900327 818.529035 287.995941 
C 821.62465 291.091555 825.823793 292.830897 830.201653 292.830897 
z
" clip-path="url(#p25c4cb116d)" style="fill: #1f77b4; fill-opacity: 0.3; stroke: #1f77b4; stroke-opacity: 0.3"/>
    <path d="M 848.647934 268.418851 
C 851.522667 268.418851 854.280045 267.276708 856.312789 265.243965 
C 858.345532 263.211221 859.487676 260.453843 859.487676 257.57911 
C 859.487676 254.704377 858.345532 251.946998 856.312789 249.914255 
C 854.280045 247.881512 851.522667 246.739368 848.647934 246.739368 
C 845.773201 246.739368 843.015822 247.881512 840.983079 249.914255 
C 838.950336 251.946998 837.808192 254.704377 837.808192 257.57911 
C 837.808192 260.453843 838.950336 263.211221 840.983079 265.243965 
C 843.015822 267.276708 845.773201 268.418851 848.647934 268.418851 
z
" clip-path="url(#p25c4cb116d)" style="fill: #1f77b4; fill-opacity: 0.3; stroke: #1f77b4; stroke-opacity: 0.3"/>
    <path d="M 867.094215 243.498227 
C 870.55204 243.498227 873.868708 242.124418 876.313759 239.679366 
C 878.758811 237.234315 880.13262 233.917647 880.13262 230.459822 
C 880.13262 227.001997 878.758811 223.685329 876.313759 221.240278 
C 873.868708 218.795226 870.55204 217.421417 867.094215 217.421417 
C 863.63639 217.421417 860.319722 218.795226 857.87467 221.240278 
C 855.429619 223.685329 854.05581 227.001997 854.05581 230.459822 
C 854.05581 233.917647 855.429619 237.234315 857.87467 239.679366 
C 860.319722 242.124418 863.63639 243.498227 867.094215 243.498227 
z
" clip-path="url(#p25c4cb116d)" style="fill: #1f77b4; fill-opacity: 0.3; stroke: #1f77b4; stroke-opacity: 0.3"/>
    <path d="M 885.540496 229.989391 
C 887.319532 229.989391 889.025944 229.282572 890.283912 228.024603 
C 891.541881 226.766635 892.2487 225.060223 892.2487 223.281187 
C 892.2487 221.50215 891.541881 219.795739 890.283912 218.53777 
C 889.025944 217.279802 887.319532 216.572983 885.540496 216.572983 
C 883.761459 216.572983 882.055048 217.279802 880.797079 218.53777 
C 879.539111 219.795739 878.832292 221.50215 878.832292 223.281187 
C 878.832292 225.060223 879.539111 226.766635 880.797079 228.024603 
C 882.055048 229.282572 883.761459 229.989391 885.540496 229.989391 
z
" clip-path="url(#p25c4cb116d)" style="fill: #1f77b4; fill-opacity: 0.3; stroke: #1f77b4; stroke-opacity: 0.3"/>
    <path d="M 903.986777 219.463441 
C 906.358825 219.463441 908.634041 218.521016 910.311332 216.843724 
C 911.988624 215.166433 912.931049 212.891218 912.931049 210.519169 
C 912.931049 208.147121 911.988624 205.871905 910.311332 204.194614 
C 908.634041 202.517322 906.358825 201.574897 903.986777 201.574897 
C 901.614728 201.574897 899.339513 202.517322 897.662222 204.194614 
C 895.98493 205.871905 895.042505 208.147121 895.042505 210.519169 
C 895.042505 212.891218 895.98493 215.166433 897.662222 216.843724 
C 899.339513 218.521016 901.614728 219.463441 903.986777 219.463441 
z
" clip-path="url(#p25c4cb116d)" style="fill: #1f77b4; fill-opacity: 0.3; stroke: #1f77b4; stroke-opacity: 0.3"/>
    <path d="M 922.433058 202.897574 
C 925.277044 202.897574 928.004931 201.767646 930.015933 199.756644 
C 932.026935 197.745642 933.156863 195.017755 933.156863 192.173769 
C 933.156863 189.329782 932.026935 186.601895 930.015933 184.590893 
C 928.004931 182.579891 925.277044 181.449963 922.433058 181.449963 
C 919.589071 181.449963 916.861184 182.579891 914.850182 184.590893 
C 912.83918 186.601895 911.709253 189.329782 911.709253 192.173769 
C 911.709253 195.017755 912.83918 197.745642 914.850182 199.756644 
C 916.861184 201.767646 919.589071 202.897574 922.433058 202.897574 
z
" clip-path="url(#p25c4cb116d)" style="fill: #1f77b4; fill-opacity: 0.3; stroke: #1f77b4; stroke-opacity: 0.3"/>
    <path d="M 940.879339 184.833783 
C 943.692242 184.833783 946.390316 183.716204 948.379339 181.727181 
C 950.368362 179.738158 951.485941 177.040085 951.485941 174.227181 
C 951.485941 171.414277 950.368362 168.716204 948.379339 166.727181 
C 946.390316 164.738158 943.692242 163.620579 940.879339 163.620579 
C 938.066435 163.620579 935.368362 164.738158 933.379339 166.727181 
C 931.390316 168.716204 930.272737 171.414277 930.272737 174.227181 
C 930.272737 177.040085 931.390316 179.738158 933.379339 181.727181 
C 935.368362 183.716204 938.066435 184.833783 940.879339 184.833783 
z
" clip-path="url(#p25c4cb116d)" style="fill: #1f77b4; fill-opacity: 0.3; stroke: #1f77b4; stroke-opacity: 0.3"/>
    <path d="M 959.32562 163.137618 
C 962.519088 163.137618 965.58219 161.86884 967.840313 159.610717 
C 970.098436 157.352594 971.367214 154.289492 971.367214 151.096024 
C 971.367214 147.902556 970.098436 144.839454 967.840313 142.581331 
C 965.58219 140.323208 962.519088 139.054429 959.32562 139.054429 
C 956.132152 139.054429 953.06905 140.323208 950.810927 142.581331 
C 948.552804 144.839454 947.284025 147.902556 947.284025 151.096024 
C 947.284025 154.289492 948.552804 157.352594 950.810927 159.610717 
C 953.06905 161.86884 956.132152 163.137618 959.32562 163.137618 
z
" clip-path="url(#p25c4cb116d)" style="fill: #1f77b4; fill-opacity: 0.3; stroke: #1f77b4; stroke-opacity: 0.3"/>
    <path d="M 977.771901 129.25436 
C 981.815705 129.25436 985.694429 127.64774 988.55383 124.788339 
C 991.413231 121.928938 993.019852 118.050213 993.019852 114.006409 
C 993.019852 109.962606 991.413231 106.083881 988.55383 103.22448 
C 985.694429 100.365079 981.815705 98.758459 977.771901 98.758459 
C 973.728097 98.758459 969.849373 100.365079 966.989972 103.22448 
C 964.13057 106.083881 962.52395 109.962606 962.52395 114.006409 
C 962.52395 118.050213 964.13057 121.928938 966.989972 124.788339 
C 969.849373 127.64774 973.728097 129.25436 977.771901 129.25436 
z
" clip-path="url(#p25c4cb116d)" style="fill: #1f77b4; fill-opacity: 0.3; stroke: #1f77b4; stroke-opacity: 0.3"/>
    <path d="M 996.218182 101.7299 
C 999.519934 101.7299 1002.686899 100.4181 1005.02159 98.083408 
C 1007.356281 95.748717 1008.668081 92.581752 1008.668081 89.28 
C 1008.668081 85.978248 1007.356281 82.811283 1005.02159 80.476592 
C 1002.686899 78.1419 999.519934 76.8301 996.218182 76.8301 
C 992.91643 76.8301 989.749465 78.1419 987.414773 80.476592 
C 985.080082 82.811283 983.768282 85.978248 983.768282 89.28 
C 983.768282 92.581752 985.080082 95.748717 987.414773 98.083408 
C 989.749465 100.4181 992.91643 101.7299 996.218182 101.7299 
z
" clip-path="url(#p25c4cb116d)" style="fill: #1f77b4; fill-opacity: 0.3; stroke: #1f77b4; stroke-opacity: 0.3"/>
   </g>
   <g id="matplotlib.axis_1">
    <g id="xtick_1">
     <g id="line2d_1">
      <defs>
       <path id="m9d62ab69c6" d="M 0 0 
L 0 3.5 
" style="stroke: #000000; stroke-width: 0.8"/>
      </defs>
      <g>
       <use xlink:href="#m9d62ab69c6" x="184.581818" y="512.64" style="stroke: #000000; stroke-width: 0.8"/>
      </g>
     </g>
     <g id="text_1">
      <!-- 2025-01-01 -->
      <g transform="translate(155.524006 527.238438) scale(0.1 -0.1)">
       <defs>
        <path id="DejaVuSans-32" d="M 1228 531 
L 3431 531 
L 3431 0 
L 469 0 
L 469 531 
Q 828 903 1448 1529 
Q 2069 2156 2228 2338 
Q 2531 2678 2651 2914 
Q 2772 3150 2772 3378 
Q 2772 3750 2511 3984 
Q 2250 4219 1831 4219 
Q 1534 4219 1204 4116 
Q 875 4013 500 3803 
L 500 4441 
Q 881 4594 1212 4672 
Q 1544 4750 1819 4750 
Q 2544 4750 2975 4387 
Q 3406 4025 3406 3419 
Q 3406 3131 3298 2873 
Q 3191 2616 2906 2266 
Q 2828 2175 2409 1742 
Q 1991 1309 1228 531 
z
" transform="scale(0.015625)"/>
        <path id="DejaVuSans-30" d="M 2034 4250 
Q 1547 4250 1301 3770 
Q 1056 3291 1056 2328 
Q 1056 1369 1301 889 
Q 1547 409 2034 409 
Q 2525 409 2770 889 
Q 3016 1369 3016 2328 
Q 3016 3291 2770 3770 
Q 2525 4250 2034 4250 
z
M 2034 4750 
Q 2819 4750 3233 4129 
Q 3647 3509 3647 2328 
Q 3647 1150 3233 529 
Q 2819 -91 2034 -91 
Q 1250 -91 836 529 
Q 422 1150 422 2328 
Q 422 3509 836 4129 
Q 1250 4750 2034 4750 
z
" transform="scale(0.015625)"/>
        <path id="DejaVuSans-35" d="M 691 4666 
L 3169 4666 
L 3169 4134 
L 1269 4134 
L 1269 2991 
Q 1406 3038 1543 3061 
Q 1681 3084 1819 3084 
Q 2600 3084 3056 2656 
Q 3513 2228 3513 1497 
Q 3513 744 3044 326 
Q 2575 -91 1722 -91 
Q 1428 -91 1123 -41 
Q 819 9 494 109 
L 494 744 
Q 775 591 1075 516 
Q 1375 441 1709 441 
Q 2250 441 2565 725 
Q 2881 1009 2881 1497 
Q 2881 1984 2565 2268 
Q 2250 2553 1709 2553 
Q 1456 2553 1204 2497 
Q 953 2441 691 2322 
L 691 4666 
z
" transform="scale(0.015625)"/>
        <path id="DejaVuSans-2d" d="M 313 2009 
L 1997 2009 
L 1997 1497 
L 313 1497 
L 313 2009 
z
" transform="scale(0.015625)"/>
        <path id="DejaVuSans-31" d="M 794 531 
L 1825 531 
L 1825 4091 
L 703 3866 
L 703 4441 
L 1819 4666 
L 2450 4666 
L 2450 531 
L 3481 531 
L 3481 0 
L 794 0 
L 794 531 
z
" transform="scale(0.015625)"/>
       </defs>
       <use xlink:href="#DejaVuSans-32"/>
       <use xlink:href="#DejaVuSans-30" x="63.623047"/>
       <use xlink:href="#DejaVuSans-32" x="127.246094"/>
       <use xlink:href="#DejaVuSans-35" x="190.869141"/>
       <use xlink:href="#DejaVuSans-2d" x="254.492188"/>
       <use xlink:href="#DejaVuSans-30" x="290.576172"/>
       <use xlink:href="#DejaVuSans-31" x="354.199219"/>
       <use xlink:href="#DejaVuSans-2d" x="417.822266"/>
       <use xlink:href="#DejaVuSans-30" x="453.90625"/>
       <use xlink:href="#DejaVuSans-31" x="517.529297"/>
      </g>
     </g>
    </g>
    <g id="xtick_2">
     <g id="line2d_2">
      <g>
       <use xlink:href="#m9d62ab69c6" x="313.705785" y="512.64" style="stroke: #000000; stroke-width: 0.8"/>
      </g>
     </g>
     <g id="text_2">
      <!-- 2025-01-08 -->
      <g transform="translate(284.647973 527.238438) scale(0.1 -0.1)">
       <defs>
        <path id="DejaVuSans-38" d="M 2034 2216 
Q 1584 2216 1326 1975 
Q 1069 1734 1069 1313 
Q 1069 891 1326 650 
Q 1584 409 2034 409 
Q 2484 409 2743 651 
Q 3003 894 3003 1313 
Q 3003 1734 2745 1975 
Q 2488 2216 2034 2216 
z
M 1403 2484 
Q 997 2584 770 2862 
Q 544 3141 544 3541 
Q 544 4100 942 4425 
Q 1341 4750 2034 4750 
Q 2731 4750 3128 4425 
Q 3525 4100 3525 3541 
Q 3525 3141 3298 2862 
Q 3072 2584 2669 2484 
Q 3125 2378 3379 2068 
Q 3634 1759 3634 1313 
Q 3634 634 3220 271 
Q 2806 -91 2034 -91 
Q 1263 -91 848 271 
Q 434 634 434 1313 
Q 434 1759 690 2068 
Q 947 2378 1403 2484 
z
M 1172 3481 
Q 1172 3119 1398 2916 
Q 1625 2713 2034 2713 
Q 2441 2713 2670 2916 
Q 2900 3119 2900 3481 
Q 2900 3844 2670 4047 
Q 2441 4250 2034 4250 
Q 1625 4250 1398 4047 
Q 1172 3844 1172 3481 
z
" transform="scale(0.015625)"/>
       </defs>
       <use xlink:href="#DejaVuSans-32"/>
       <use xlink:href="#DejaVuSans-30" x="63.623047"/>
       <use xlink:href="#DejaVuSans-32" x="127.246094"/>
       <use xlink:href="#DejaVuSans-35" x="190.869141"/>
       <use xlink:href="#DejaVuSans-2d" x="254.492188"/>
       <use xlink:href="#DejaVuSans-30" x="290.576172"/>
       <use xlink:href="#DejaVuSans-31" x="354.199219"/>
       <use xlink:href="#DejaVuSans-2d" x="417.822266"/>
       <use xlink:href="#DejaVuSans-30" x="453.90625"/>
       <use xlink:href="#DejaVuSans-38" x="517.529297"/>
      </g>
     </g>
    </g>
    <g id="xtick_3">
     <g id="line2d_3">
      <g>
       <use xlink:href="#m9d62ab69c6" x="442.829752" y="512.64" style="stroke: #000000; stroke-width: 0.8"/>
      </g>
     </g>
     <g id="text_3">
      <!-- 2025-01-15 -->
      <g transform="translate(413.77194 527.238438) scale(0.1 -0.1)">
       <use xlink:href="#DejaVuSans-32"/>
       <use xlink:href="#DejaVuSans-30" x="63.623047"/>
       <use xlink:href="#DejaVuSans-32" x="127.246094"/>
       <use xlink:href="#DejaVuSans-35" x="190.869141"/>
       <use xlink:href="#DejaVuSans-2d" x="254.492188"/>
       <use xlink:href="#DejaVuSans-30" x="290.576172"/>
       <use xlink:href="#DejaVuSans-31" x="354.199219"/>
       <use xlink:href="#DejaVuSans-2d" x="417.822266"/>
       <use xlink:href="#DejaVuSans-31" x="453.90625"/>
       <use xlink:href="#DejaVuSans-35" x="517.529297"/>
      </g>
     </g>
    </g>
    <g id="xtick_4">
     <g id="line2d_4">
      <g>
       <use xlink:href="#m9d62ab69c6" x="571.953719" y="512.64" style="stroke: #000000; stroke-width: 0.8"/>
      </g>
     </g>
     <g id="text_4">
      <!-- 2025-01-22 -->
      <g transform="translate(542.895907 527.238438) scale(0.1 -0.1)">
       <use xlink:href="#DejaVuSans-32"/>
       <use xlink:href="#DejaVuSans-30" x="63.623047"/>
       <use xlink:href="#DejaVuSans-32" x="127.246094"/>
       <use xlink:href="#DejaVuSans-35" x="190.869141"/>
       <use xlink:href="#DejaVuSans-2d" x="254.492188"/>
       <use xlink:href="#DejaVuSans-30" x="290.576172"/>
       <use xlink:href="#DejaVuSans-31" x="354.199219"/>
       <use xlink:href="#DejaVuSans-2d" x="417.822266"/>
       <use xlink:href="#DejaVuSans-32" x="453.90625"/>
       <use xlink:href="#DejaVuSans-32" x="517.529297"/>
      </g>
     </g>
    </g>
    <g id="xtick_5">
     <g id="line2d_5">
      <g>
       <use xlink:href="#m9d62ab69c6" x="756.416529" y="512.64" style="stroke: #000000; stroke-width: 0.8"/>
      </g>
     </g>
     <g id="text_5">
      <!-- 2025-02-01 -->
      <g transform="translate(727.358716 527.238438) scale(0.1 -0.1)">
       <use xlink:href="#DejaVuSans-32"/>
       <use xlink:href="#DejaVuSans-30" x="63.623047"/>
       <use xlink:href="#DejaVuSans-32" x="127.246094"/>
       <use xlink:href="#DejaVuSans-35" x="190.869141"/>
       <use xlink:href="#DejaVuSans-2d" x="254.492188"/>
       <use xlink:href="#DejaVuSans-30" x="290.576172"/>
       <use xlink:href="#DejaVuSans-32" x="354.199219"/>
       <use xlink:href="#DejaVuSans-2d" x="417.822266"/>
       <use xlink:href="#DejaVuSans-30" x="453.90625"/>
       <use xlink:href="#DejaVuSans-31" x="517.529297"/>
      </g>
     </g>
    </g>
    <g id="xtick_6">
     <g id="line2d_6">
      <g>
       <use xlink:href="#m9d62ab69c6" x="885.540496" y="512.64" style="stroke: #000000; stroke-width: 0.8"/>
      </g>
     </g>
     <g id="text_6">
      <!-- 2025-02-08 -->
      <g transform="translate(856.482683 527.238438) scale(0.1 -0.1)">
       <use xlink:href="#DejaVuSans-32"/>
       <use xlink:href="#DejaVuSans-30" x="63.623047"/>
       <use xlink:href="#DejaVuSans-32" x="127.246094"/>
       <use xlink:href="#DejaVuSans-35" x="190.869141"/>
       <use xlink:href="#DejaVuSans-2d" x="254.492188"/>
       <use xlink:href="#DejaVuSans-30" x="290.576172"/>
       <use xlink:href="#DejaVuSans-32" x="354.199219"/>
       <use xlink:href="#DejaVuSans-2d" x="417.822266"/>
       <use xlink:href="#DejaVuSans-30" x="453.90625"/>
       <use xlink:href="#DejaVuSans-38" x="517.529297"/>
      </g>
     </g>
    </g>
    <g id="xtick_7">
     <g id="line2d_7">
      <g>
       <use xlink:href="#m9d62ab69c6" x="1014.664463" y="512.64" style="stroke: #000000; stroke-width: 0.8"/>
      </g>
     </g>
     <g id="text_7">
      <!-- 2025-02-15 -->
      <g transform="translate(985.60665 527.238438) scale(0.1 -0.1)">
       <use xlink:href="#DejaVuSans-32"/>
       <use xlink:href="#DejaVuSans-30" x="63.623047"/>
       <use xlink:href="#DejaVuSans-32" x="127.246094"/>
       <use xlink:href="#DejaVuSans-35" x="190.869141"/>
       <use xlink:href="#DejaVuSans-2d" x="254.492188"/>
       <use xlink:href="#DejaVuSans-30" x="290.576172"/>
       <use xlink:href="#DejaVuSans-32" x="354.199219"/>
       <use xlink:href="#DejaVuSans-2d" x="417.822266"/>
       <use xlink:href="#DejaVuSans-31" x="453.90625"/>
       <use xlink:href="#DejaVuSans-35" x="517.529297"/>
      </g>
     </g>
    </g>
   </g>
   <g id="matplotlib.axis_2">
    <g id="ytick_1">
     <g id="line2d_8">
      <defs>
       <path id="mcf90ae868a" d="M 0 0 
L -3.5 0 
" style="stroke: #000000; stroke-width: 0.8"/>
      </defs>
      <g>
       <use xlink:href="#mcf90ae868a" x="144" y="471.342908" style="stroke: #000000; stroke-width: 0.8"/>
      </g>
     </g>
     <g id="text_8">
      <!-- 8400 -->
      <g transform="translate(111.55 475.142127) scale(0.1 -0.1)">
       <defs>
        <path id="DejaVuSans-34" d="M 2419 4116 
L 825 1625 
L 2419 1625 
L 2419 4116 
z
M 2253 4666 
L 3047 4666 
L 3047 1625 
L 3713 1625 
L 3713 1100 
L 3047 1100 
L 3047 0 
L 2419 0 
L 2419 1100 
L 313 1100 
L 313 1709 
L 2253 4666 
z
" transform="scale(0.015625)"/>
       </defs>
       <use xlink:href="#DejaVuSans-38"/>
       <use xlink:href="#DejaVuSans-34" x="63.623047"/>
       <use xlink:href="#DejaVuSans-30" x="127.246094"/>
       <use xlink:href="#DejaVuSans-30" x="190.869141"/>
      </g>
     </g>
    </g>
    <g id="ytick_2">
     <g id="line2d_9">
      <g>
       <use xlink:href="#mcf90ae868a" x="144" y="391.580297" style="stroke: #000000; stroke-width: 0.8"/>
      </g>
     </g>
     <g id="text_9">
      <!-- 8600 -->
      <g transform="translate(111.55 395.379515) scale(0.1 -0.1)">
       <defs>
        <path id="DejaVuSans-36" d="M 2113 2584 
Q 1688 2584 1439 2293 
Q 1191 2003 1191 1497 
Q 1191 994 1439 701 
Q 1688 409 2113 409 
Q 2538 409 2786 701 
Q 3034 994 3034 1497 
Q 3034 2003 2786 2293 
Q 2538 2584 2113 2584 
z
M 3366 4563 
L 3366 3988 
Q 3128 4100 2886 4159 
Q 2644 4219 2406 4219 
Q 1781 4219 1451 3797 
Q 1122 3375 1075 2522 
Q 1259 2794 1537 2939 
Q 1816 3084 2150 3084 
Q 2853 3084 3261 2657 
Q 3669 2231 3669 1497 
Q 3669 778 3244 343 
Q 2819 -91 2113 -91 
Q 1303 -91 875 529 
Q 447 1150 447 2328 
Q 447 3434 972 4092 
Q 1497 4750 2381 4750 
Q 2619 4750 2861 4703 
Q 3103 4656 3366 4563 
z
" transform="scale(0.015625)"/>
       </defs>
       <use xlink:href="#DejaVuSans-38"/>
       <use xlink:href="#DejaVuSans-36" x="63.623047"/>
       <use xlink:href="#DejaVuSans-30" x="127.246094"/>
       <use xlink:href="#DejaVuSans-30" x="190.869141"/>
      </g>
     </g>
    </g>
    <g id="ytick_3">
     <g id="line2d_10">
      <g>
       <use xlink:href="#mcf90ae868a" x="144" y="311.817685" style="stroke: #000000; stroke-width: 0.8"/>
      </g>
     </g>
     <g id="text_10">
      <!-- 8800 -->
      <g transform="translate(111.55 315.616904) scale(0.1 -0.1)">
       <use xlink:href="#DejaVuSans-38"/>
       <use xlink:href="#DejaVuSans-38" x="63.623047"/>
       <use xlink:href="#DejaVuSans-30" x="127.246094"/>
       <use xlink:href="#DejaVuSans-30" x="190.869141"/>
      </g>
     </g>
    </g>
    <g id="ytick_4">
     <g id="line2d_11">
      <g>
       <use xlink:href="#mcf90ae868a" x="144" y="232.055074" style="stroke: #000000; stroke-width: 0.8"/>
      </g>
     </g>
     <g id="text_11">
      <!-- 9000 -->
      <g transform="translate(111.55 235.854293) scale(0.1 -0.1)">
       <defs>
        <path id="DejaVuSans-39" d="M 703 97 
L 703 672 
Q 941 559 1184 500 
Q 1428 441 1663 441 
Q 2288 441 2617 861 
Q 2947 1281 2994 2138 
Q 2813 1869 2534 1725 
Q 2256 1581 1919 1581 
Q 1219 1581 811 2004 
Q 403 2428 403 3163 
Q 403 3881 828 4315 
Q 1253 4750 1959 4750 
Q 2769 4750 3195 4129 
Q 3622 3509 3622 2328 
Q 3622 1225 3098 567 
Q 2575 -91 1691 -91 
Q 1453 -91 1209 -44 
Q 966 3 703 97 
z
M 1959 2075 
Q 2384 2075 2632 2365 
Q 2881 2656 2881 3163 
Q 2881 3666 2632 3958 
Q 2384 4250 1959 4250 
Q 1534 4250 1286 3958 
Q 1038 3666 1038 3163 
Q 1038 2656 1286 2365 
Q 1534 2075 1959 2075 
z
" transform="scale(0.015625)"/>
       </defs>
       <use xlink:href="#DejaVuSans-39"/>
       <use xlink:href="#DejaVuSans-30" x="63.623047"/>
       <use xlink:href="#DejaVuSans-30" x="127.246094"/>
       <use xlink:href="#DejaVuSans-30" x="190.869141"/>
      </g>
     </g>
    </g>
    <g id="ytick_5">
     <g id="line2d_12">
      <g>
       <use xlink:href="#mcf90ae868a" x="144" y="152.292463" style="stroke: #000000; stroke-width: 0.8"/>
      </g>
     </g>
     <g id="text_12">
      <!-- 9200 -->
      <g transform="translate(111.55 156.091682) scale(0.1 -0.1)">
       <use xlink:href="#DejaVuSans-39"/>
       <use xlink:href="#DejaVuSans-32" x="63.623047"/>
       <use xlink:href="#DejaVuSans-30" x="127.246094"/>
       <use xlink:href="#DejaVuSans-30" x="190.869141"/>
      </g>
     </g>
    </g>
    <g id="ytick_6">
     <g id="line2d_13">
      <g>
       <use xlink:href="#mcf90ae868a" x="144" y="72.529852" style="stroke: #000000; stroke-width: 0.8"/>
      </g>
     </g>
     <g id="text_13">
      <!-- 9400 -->
      <g transform="translate(111.55 76.32907) scale(0.1 -0.1)">
       <use xlink:href="#DejaVuSans-39"/>
       <use xlink:href="#DejaVuSans-34" x="63.623047"/>
       <use xlink:href="#DejaVuSans-30" x="127.246094"/>
       <use xlink:href="#DejaVuSans-30" x="190.869141"/>
      </g>
     </g>
    </g>
   </g>
   <g id="line2d_14">
    <path d="M 184.581818 492.48 
L 203.028099 490.485935 
L 221.47438 484.503739 
L 239.920661 483.3073 
L 258.366942 480.116795 
L 276.813223 476.128665 
L 295.259504 475.331039 
L 313.705785 472.140534 
L 332.152066 470.944095 
L 350.598347 469.348843 
L 369.044628 468.551217 
L 387.490909 466.557151 
L 405.93719 464.961899 
L 424.383471 462.967834 
L 442.829752 460.973769 
L 461.276033 458.58089 
L 479.722314 456.586825 
L 498.168595 454.193947 
L 516.614876 451.402255 
L 535.061157 448.211751 
L 553.507438 445.818872 
L 571.953719 441.431929 
L 590.4 435.05092 
L 608.846281 425.479407 
L 627.292562 422.687715 
L 645.738843 417.503145 
L 664.185124 411.919763 
L 682.631405 398.758932 
L 701.077686 386.395727 
L 719.523967 373.234896 
L 737.970248 359.276439 
L 756.416529 351.698991 
L 774.86281 348.508487 
L 793.309091 342.526291 
L 811.755372 319.793947 
L 830.201653 276.323323 
L 848.647934 257.57911 
L 867.094215 230.459822 
L 885.540496 223.281187 
L 903.986777 210.519169 
L 922.433058 192.173769 
L 940.879339 174.227181 
L 959.32562 151.096024 
L 977.771901 114.006409 
L 996.218182 89.28 
" clip-path="url(#p25c4cb116d)" style="fill: none; stroke: #1f77b4; stroke-width: 1.5; stroke-linecap: square"/>
   </g>
   <g id="patch_3">
    <path d="M 144 512.64 
L 144 69.12 
" style="fill: none; stroke: #000000; stroke-width: 0.8; stroke-linejoin: miter; stroke-linecap: square"/>
   </g>
   <g id="patch_4">
    <path d="M 1036.8 512.64 
L 1036.8 69.12 
" style="fill: none; stroke: #000000; stroke-width: 0.8; stroke-linejoin: miter; stroke-linecap: square"/>
   </g>
   <g id="patch_5">
    <path d="M 144 512.64 
L 1036.8 512.64 
" style="fill: none; stroke: #000000; stroke-width: 0.8; stroke-linejoin: miter; stroke-linecap: square"/>
   </g>
   <g id="patch_6">
    <path d="M 144 69.12 
L 1036.8 69.12 
" style="fill: none; stroke: #000000; stroke-width: 0.8; stroke-linejoin: miter; stroke-linecap: square"/>
   </g>
   <g id="text_14">
    <!-- Number of AEDs in the OpenStreetMap database in Poland from 2025-01-01, day by day. As at: 2025-02-14 -->
    <g transform="translate(144 63.12) scale(0.14 -0.14)">
     <defs>
      <path id="DejaVuSans-4e" d="M 628 4666 
L 1478 4666 
L 3547 763 
L 3547 4666 
L 4159 4666 
L 4159 0 
L 3309 0 
L 1241 3903 
L 1241 0 
L 628 0 
L 628 4666 
z
" transform="scale(0.015625)"/>
      <path id="DejaVuSans-75" d="M 544 1381 
L 544 3500 
L 1119 3500 
L 1119 1403 
Q 1119 906 1312 657 
Q 1506 409 1894 409 
Q 2359 409 2629 706 
Q 2900 1003 2900 1516 
L 2900 3500 
L 3475 3500 
L 3475 0 
L 2900 0 
L 2900 538 
Q 2691 219 2414 64 
Q 2138 -91 1772 -91 
Q 1169 -91 856 284 
Q 544 659 544 1381 
z
M 1991 3584 
L 1991 3584 
z
" transform="scale(0.015625)"/>
      <path id="DejaVuSans-6d" d="M 3328 2828 
Q 3544 3216 3844 3400 
Q 4144 3584 4550 3584 
Q 5097 3584 5394 3201 
Q 5691 2819 5691 2113 
L 5691 0 
L 5113 0 
L 5113 2094 
Q 5113 2597 4934 2840 
Q 4756 3084 4391 3084 
Q 3944 3084 3684 2787 
Q 3425 2491 3425 1978 
L 3425 0 
L 2847 0 
L 2847 2094 
Q 2847 2600 2669 2842 
Q 2491 3084 2119 3084 
Q 1678 3084 1418 2786 
Q 1159 2488 1159 1978 
L 1159 0 
L 581 0 
L 581 3500 
L 1159 3500 
L 1159 2956 
Q 1356 3278 1631 3431 
Q 1906 3584 2284 3584 
Q 2666 3584 2933 3390 
Q 3200 3197 3328 2828 
z
" transform="scale(0.015625)"/>
      <path id="DejaVuSans-62" d="M 3116 1747 
Q 3116 2381 2855 2742 
Q 2594 3103 2138 3103 
Q 1681 3103 1420 2742 
Q 1159 2381 1159 1747 
Q 1159 1113 1420 752 
Q 1681 391 2138 391 
Q 2594 391 2855 752 
Q 3116 1113 3116 1747 
z
M 1159 2969 
Q 1341 3281 1617 3432 
Q 1894 3584 2278 3584 
Q 2916 3584 3314 3078 
Q 3713 2572 3713 1747 
Q 3713 922 3314 415 
Q 2916 -91 2278 -91 
Q 1894 -91 1617 61 
Q 1341 213 1159 525 
L 1159 0 
L 581 0 
L 581 4863 
L 1159 4863 
L 1159 2969 
z
" transform="scale(0.015625)"/>
      <path id="DejaVuSans-65" d="M 3597 1894 
L 3597 1613 
L 953 1613 
Q 991 1019 1311 708 
Q 1631 397 2203 397 
Q 2534 397 2845 478 
Q 3156 559 3463 722 
L 3463 178 
Q 3153 47 2828 -22 
Q 2503 -91 2169 -91 
Q 1331 -91 842 396 
Q 353 884 353 1716 
Q 353 2575 817 3079 
Q 1281 3584 2069 3584 
Q 2775 3584 3186 3129 
Q 3597 2675 3597 1894 
z
M 3022 2063 
Q 3016 2534 2758 2815 
Q 2500 3097 2075 3097 
Q 1594 3097 1305 2825 
Q 1016 2553 972 2059 
L 3022 2063 
z
" transform="scale(0.015625)"/>
      <path id="DejaVuSans-72" d="M 2631 2963 
Q 2534 3019 2420 3045 
Q 2306 3072 2169 3072 
Q 1681 3072 1420 2755 
Q 1159 2438 1159 1844 
L 1159 0 
L 581 0 
L 581 3500 
L 1159 3500 
L 1159 2956 
Q 1341 3275 1631 3429 
Q 1922 3584 2338 3584 
Q 2397 3584 2469 3576 
Q 2541 3569 2628 3553 
L 2631 2963 
z
" transform="scale(0.015625)"/>
      <path id="DejaVuSans-20" transform="scale(0.015625)"/>
      <path id="DejaVuSans-6f" d="M 1959 3097 
Q 1497 3097 1228 2736 
Q 959 2375 959 1747 
Q 959 1119 1226 758 
Q 1494 397 1959 397 
Q 2419 397 2687 759 
Q 2956 1122 2956 1747 
Q 2956 2369 2687 2733 
Q 2419 3097 1959 3097 
z
M 1959 3584 
Q 2709 3584 3137 3096 
Q 3566 2609 3566 1747 
Q 3566 888 3137 398 
Q 2709 -91 1959 -91 
Q 1206 -91 779 398 
Q 353 888 353 1747 
Q 353 2609 779 3096 
Q 1206 3584 1959 3584 
z
" transform="scale(0.015625)"/>
      <path id="DejaVuSans-66" d="M 2375 4863 
L 2375 4384 
L 1825 4384 
Q 1516 4384 1395 4259 
Q 1275 4134 1275 3809 
L 1275 3500 
L 2222 3500 
L 2222 3053 
L 1275 3053 
L 1275 0 
L 697 0 
L 697 3053 
L 147 3053 
L 147 3500 
L 697 3500 
L 697 3744 
Q 697 4328 969 4595 
Q 1241 4863 1831 4863 
L 2375 4863 
z
" transform="scale(0.015625)"/>
      <path id="DejaVuSans-41" d="M 2188 4044 
L 1331 1722 
L 3047 1722 
L 2188 4044 
z
M 1831 4666 
L 2547 4666 
L 4325 0 
L 3669 0 
L 3244 1197 
L 1141 1197 
L 716 0 
L 50 0 
L 1831 4666 
z
" transform="scale(0.015625)"/>
      <path id="DejaVuSans-45" d="M 628 4666 
L 3578 4666 
L 3578 4134 
L 1259 4134 
L 1259 2753 
L 3481 2753 
L 3481 2222 
L 1259 2222 
L 1259 531 
L 3634 531 
L 3634 0 
L 628 0 
L 628 4666 
z
" transform="scale(0.015625)"/>
      <path id="DejaVuSans-44" d="M 1259 4147 
L 1259 519 
L 2022 519 
Q 2988 519 3436 956 
Q 3884 1394 3884 2338 
Q 3884 3275 3436 3711 
Q 2988 4147 2022 4147 
L 1259 4147 
z
M 628 4666 
L 1925 4666 
Q 3281 4666 3915 4102 
Q 4550 3538 4550 2338 
Q 4550 1131 3912 565 
Q 3275 0 1925 0 
L 628 0 
L 628 4666 
z
" transform="scale(0.015625)"/>
      <path id="DejaVuSans-73" d="M 2834 3397 
L 2834 2853 
Q 2591 2978 2328 3040 
Q 2066 3103 1784 3103 
Q 1356 3103 1142 2972 
Q 928 2841 928 2578 
Q 928 2378 1081 2264 
Q 1234 2150 1697 2047 
L 1894 2003 
Q 2506 1872 2764 1633 
Q 3022 1394 3022 966 
Q 3022 478 2636 193 
Q 2250 -91 1575 -91 
Q 1294 -91 989 -36 
Q 684 19 347 128 
L 347 722 
Q 666 556 975 473 
Q 1284 391 1588 391 
Q 1994 391 2212 530 
Q 2431 669 2431 922 
Q 2431 1156 2273 1281 
Q 2116 1406 1581 1522 
L 1381 1569 
Q 847 1681 609 1914 
Q 372 2147 372 2553 
Q 372 3047 722 3315 
Q 1072 3584 1716 3584 
Q 2034 3584 2315 3537 
Q 2597 3491 2834 3397 
z
" transform="scale(0.015625)"/>
      <path id="DejaVuSans-69" d="M 603 3500 
L 1178 3500 
L 1178 0 
L 603 0 
L 603 3500 
z
M 603 4863 
L 1178 4863 
L 1178 4134 
L 603 4134 
L 603 4863 
z
" transform="scale(0.015625)"/>
      <path id="DejaVuSans-6e" d="M 3513 2113 
L 3513 0 
L 2938 0 
L 2938 2094 
Q 2938 2591 2744 2837 
Q 2550 3084 2163 3084 
Q 1697 3084 1428 2787 
Q 1159 2491 1159 1978 
L 1159 0 
L 581 0 
L 581 3500 
L 1159 3500 
L 1159 2956 
Q 1366 3272 1645 3428 
Q 1925 3584 2291 3584 
Q 2894 3584 3203 3211 
Q 3513 2838 3513 2113 
z
" transform="scale(0.015625)"/>
      <path id="DejaVuSans-74" d="M 1172 4494 
L 1172 3500 
L 2356 3500 
L 2356 3053 
L 1172 3053 
L 1172 1153 
Q 1172 725 1289 603 
Q 1406 481 1766 481 
L 2356 481 
L 2356 0 
L 1766 0 
Q 1100 0 847 248 
Q 594 497 594 1153 
L 594 3053 
L 172 3053 
L 172 3500 
L 594 3500 
L 594 4494 
L 1172 4494 
z
" transform="scale(0.015625)"/>
      <path id="DejaVuSans-68" d="M 3513 2113 
L 3513 0 
L 2938 0 
L 2938 2094 
Q 2938 2591 2744 2837 
Q 2550 3084 2163 3084 
Q 1697 3084 1428 2787 
Q 1159 2491 1159 1978 
L 1159 0 
L 581 0 
L 581 4863 
L 1159 4863 
L 1159 2956 
Q 1366 3272 1645 3428 
Q 1925 3584 2291 3584 
Q 2894 3584 3203 3211 
Q 3513 2838 3513 2113 
z
" transform="scale(0.015625)"/>
      <path id="DejaVuSans-4f" d="M 2522 4238 
Q 1834 4238 1429 3725 
Q 1025 3213 1025 2328 
Q 1025 1447 1429 934 
Q 1834 422 2522 422 
Q 3209 422 3611 934 
Q 4013 1447 4013 2328 
Q 4013 3213 3611 3725 
Q 3209 4238 2522 4238 
z
M 2522 4750 
Q 3503 4750 4090 4092 
Q 4678 3434 4678 2328 
Q 4678 1225 4090 567 
Q 3503 -91 2522 -91 
Q 1538 -91 948 565 
Q 359 1222 359 2328 
Q 359 3434 948 4092 
Q 1538 4750 2522 4750 
z
" transform="scale(0.015625)"/>
      <path id="DejaVuSans-70" d="M 1159 525 
L 1159 -1331 
L 581 -1331 
L 581 3500 
L 1159 3500 
L 1159 2969 
Q 1341 3281 1617 3432 
Q 1894 3584 2278 3584 
Q 2916 3584 3314 3078 
Q 3713 2572 3713 1747 
Q 3713 922 3314 415 
Q 2916 -91 2278 -91 
Q 1894 -91 1617 61 
Q 1341 213 1159 525 
z
M 3116 1747 
Q 3116 2381 2855 2742 
Q 2594 3103 2138 3103 
Q 1681 3103 1420 2742 
Q 1159 2381 1159 1747 
Q 1159 1113 1420 752 
Q 1681 391 2138 391 
Q 2594 391 2855 752 
Q 3116 1113 3116 1747 
z
" transform="scale(0.015625)"/>
      <path id="DejaVuSans-53" d="M 3425 4513 
L 3425 3897 
Q 3066 4069 2747 4153 
Q 2428 4238 2131 4238 
Q 1616 4238 1336 4038 
Q 1056 3838 1056 3469 
Q 1056 3159 1242 3001 
Q 1428 2844 1947 2747 
L 2328 2669 
Q 3034 2534 3370 2195 
Q 3706 1856 3706 1288 
Q 3706 609 3251 259 
Q 2797 -91 1919 -91 
Q 1588 -91 1214 -16 
Q 841 59 441 206 
L 441 856 
Q 825 641 1194 531 
Q 1563 422 1919 422 
Q 2459 422 2753 634 
Q 3047 847 3047 1241 
Q 3047 1584 2836 1778 
Q 2625 1972 2144 2069 
L 1759 2144 
Q 1053 2284 737 2584 
Q 422 2884 422 3419 
Q 422 4038 858 4394 
Q 1294 4750 2059 4750 
Q 2388 4750 2728 4690 
Q 3069 4631 3425 4513 
z
" transform="scale(0.015625)"/>
      <path id="DejaVuSans-4d" d="M 628 4666 
L 1569 4666 
L 2759 1491 
L 3956 4666 
L 4897 4666 
L 4897 0 
L 4281 0 
L 4281 4097 
L 3078 897 
L 2444 897 
L 1241 4097 
L 1241 0 
L 628 0 
L 628 4666 
z
" transform="scale(0.015625)"/>
      <path id="DejaVuSans-61" d="M 2194 1759 
Q 1497 1759 1228 1600 
Q 959 1441 959 1056 
Q 959 750 1161 570 
Q 1363 391 1709 391 
Q 2188 391 2477 730 
Q 2766 1069 2766 1631 
L 2766 1759 
L 2194 1759 
z
M 3341 1997 
L 3341 0 
L 2766 0 
L 2766 531 
Q 2569 213 2275 61 
Q 1981 -91 1556 -91 
Q 1019 -91 701 211 
Q 384 513 384 1019 
Q 384 1609 779 1909 
Q 1175 2209 1959 2209 
L 2766 2209 
L 2766 2266 
Q 2766 2663 2505 2880 
Q 2244 3097 1772 3097 
Q 1472 3097 1187 3025 
Q 903 2953 641 2809 
L 641 3341 
Q 956 3463 1253 3523 
Q 1550 3584 1831 3584 
Q 2591 3584 2966 3190 
Q 3341 2797 3341 1997 
z
" transform="scale(0.015625)"/>
      <path id="DejaVuSans-64" d="M 2906 2969 
L 2906 4863 
L 3481 4863 
L 3481 0 
L 2906 0 
L 2906 525 
Q 2725 213 2448 61 
Q 2172 -91 1784 -91 
Q 1150 -91 751 415 
Q 353 922 353 1747 
Q 353 2572 751 3078 
Q 1150 3584 1784 3584 
Q 2172 3584 2448 3432 
Q 2725 3281 2906 2969 
z
M 947 1747 
Q 947 1113 1208 752 
Q 1469 391 1925 391 
Q 2381 391 2643 752 
Q 2906 1113 2906 1747 
Q 2906 2381 2643 2742 
Q 2381 3103 1925 3103 
Q 1469 3103 1208 2742 
Q 947 2381 947 1747 
z
" transform="scale(0.015625)"/>
      <path id="DejaVuSans-50" d="M 1259 4147 
L 1259 2394 
L 2053 2394 
Q 2494 2394 2734 2622 
Q 2975 2850 2975 3272 
Q 2975 3691 2734 3919 
Q 2494 4147 2053 4147 
L 1259 4147 
z
M 628 4666 
L 2053 4666 
Q 2838 4666 3239 4311 
Q 3641 3956 3641 3272 
Q 3641 2581 3239 2228 
Q 2838 1875 2053 1875 
L 1259 1875 
L 1259 0 
L 628 0 
L 628 4666 
z
" transform="scale(0.015625)"/>
      <path id="DejaVuSans-6c" d="M 603 4863 
L 1178 4863 
L 1178 0 
L 603 0 
L 603 4863 
z
" transform="scale(0.015625)"/>
      <path id="DejaVuSans-2c" d="M 750 794 
L 1409 794 
L 1409 256 
L 897 -744 
L 494 -744 
L 750 256 
L 750 794 
z
" transform="scale(0.015625)"/>
      <path id="DejaVuSans-79" d="M 2059 -325 
Q 1816 -950 1584 -1140 
Q 1353 -1331 966 -1331 
L 506 -1331 
L 506 -850 
L 844 -850 
Q 1081 -850 1212 -737 
Q 1344 -625 1503 -206 
L 1606 56 
L 191 3500 
L 800 3500 
L 1894 763 
L 2988 3500 
L 3597 3500 
L 2059 -325 
z
" transform="scale(0.015625)"/>
      <path id="DejaVuSans-2e" d="M 684 794 
L 1344 794 
L 1344 0 
L 684 0 
L 684 794 
z
" transform="scale(0.015625)"/>
      <path id="DejaVuSans-3a" d="M 750 794 
L 1409 794 
L 1409 0 
L 750 0 
L 750 794 
z
M 750 3309 
L 1409 3309 
L 1409 2516 
L 750 2516 
L 750 3309 
z
" transform="scale(0.015625)"/>
     </defs>
     <use xlink:href="#DejaVuSans-4e"/>
     <use xlink:href="#DejaVuSans-75" x="74.804688"/>
     <use xlink:href="#DejaVuSans-6d" x="138.183594"/>
     <use xlink:href="#DejaVuSans-62" x="235.595703"/>
     <use xlink:href="#DejaVuSans-65" x="299.072266"/>
     <use xlink:href="#DejaVuSans-72" x="360.595703"/>
     <use xlink:href="#DejaVuSans-20" x="401.708984"/>
     <use xlink:href="#DejaVuSans-6f" x="433.496094"/>
     <use xlink:href="#DejaVuSans-66" x="494.677734"/>
     <use xlink:href="#DejaVuSans-20" x="529.882812"/>
     <use xlink:href="#DejaVuSans-41" x="561.669922"/>
     <use xlink:href="#DejaVuSans-45" x="630.078125"/>
     <use xlink:href="#DejaVuSans-44" x="693.261719"/>
     <use xlink:href="#DejaVuSans-73" x="770.263672"/>
     <use xlink:href="#DejaVuSans-20" x="822.363281"/>
     <use xlink:href="#DejaVuSans-69" x="854.150391"/>
     <use xlink:href="#DejaVuSans-6e" x="881.933594"/>
     <use xlink:href="#DejaVuSans-20" x="945.3125"/>
     <use xlink:href="#DejaVuSans-74" x="977.099609"/>
     <use xlink:href="#DejaVuSans-68" x="1016.308594"/>
     <use xlink:href="#DejaVuSans-65" x="1079.6875"/>
     <use xlink:href="#DejaVuSans-20" x="1141.210938"/>
     <use xlink:href="#DejaVuSans-4f" x="1172.998047"/>
     <use xlink:href="#DejaVuSans-70" x="1251.708984"/>
     <use xlink:href="#DejaVuSans-65" x="1315.185547"/>
     <use xlink:href="#DejaVuSans-6e" x="1376.708984"/>
     <use xlink:href="#DejaVuSans-53" x="1440.087891"/>
     <use xlink:href="#DejaVuSans-74" x="1503.564453"/>
     <use xlink:href="#DejaVuSans-72" x="1542.773438"/>
     <use xlink:href="#DejaVuSans-65" x="1581.636719"/>
     <use xlink:href="#DejaVuSans-65" x="1643.160156"/>
     <use xlink:href="#DejaVuSans-74" x="1704.683594"/>
     <use xlink:href="#DejaVuSans-4d" x="1743.892578"/>
     <use xlink:href="#DejaVuSans-61" x="1830.171875"/>
     <use xlink:href="#DejaVuSans-70" x="1891.451172"/>
     <use xlink:href="#DejaVuSans-20" x="1954.927734"/>
     <use xlink:href="#DejaVuSans-64" x="1986.714844"/>
     <use xlink:href="#DejaVuSans-61" x="2050.191406"/>
     <use xlink:href="#DejaVuSans-74" x="2111.470703"/>
     <use xlink:href="#DejaVuSans-61" x="2150.679688"/>
     <use xlink:href="#DejaVuSans-62" x="2211.958984"/>
     <use xlink:href="#DejaVuSans-61" x="2275.435547"/>
     <use xlink:href="#DejaVuSans-73" x="2336.714844"/>
     <use xlink:href="#DejaVuSans-65" x="2388.814453"/>
     <use xlink:href="#DejaVuSans-20" x="2450.337891"/>
     <use xlink:href="#DejaVuSans-69" x="2482.125"/>
     <use xlink:href="#DejaVuSans-6e" x="2509.908203"/>
     <use xlink:href="#DejaVuSans-20" x="2573.287109"/>
     <use xlink:href="#DejaVuSans-50" x="2605.074219"/>
     <use xlink:href="#DejaVuSans-6f" x="2661.751953"/>
     <use xlink:href="#DejaVuSans-6c" x="2722.933594"/>
     <use xlink:href="#DejaVuSans-61" x="2750.716797"/>
     <use xlink:href="#DejaVuSans-6e" x="2811.996094"/>
     <use xlink:href="#DejaVuSans-64" x="2875.375"/>
     <use xlink:href="#DejaVuSans-20" x="2938.851562"/>
     <use xlink:href="#DejaVuSans-66" x="2970.638672"/>
     <use xlink:href="#DejaVuSans-72" x="3005.84375"/>
     <use xlink:href="#DejaVuSans-6f" x="3044.707031"/>
     <use xlink:href="#DejaVuSans-6d" x="3105.888672"/>
     <use xlink:href="#DejaVuSans-20" x="3203.300781"/>
     <use xlink:href="#DejaVuSans-32" x="3235.087891"/>
     <use xlink:href="#DejaVuSans-30" x="3298.710938"/>
     <use xlink:href="#DejaVuSans-32" x="3362.333984"/>
     <use xlink:href="#DejaVuSans-35" x="3425.957031"/>
     <use xlink:href="#DejaVuSans-2d" x="3489.580078"/>
     <use xlink:href="#DejaVuSans-30" x="3525.664062"/>
     <use xlink:href="#DejaVuSans-31" x="3589.287109"/>
     <use xlink:href="#DejaVuSans-2d" x="3652.910156"/>
     <use xlink:href="#DejaVuSans-30" x="3688.994141"/>
     <use xlink:href="#DejaVuSans-31" x="3752.617188"/>
     <use xlink:href="#DejaVuSans-2c" x="3816.240234"/>
     <use xlink:href="#DejaVuSans-20" x="3848.027344"/>
     <use xlink:href="#DejaVuSans-64" x="3879.814453"/>
     <use xlink:href="#DejaVuSans-61" x="3943.291016"/>
     <use xlink:href="#DejaVuSans-79" x="4004.570312"/>
     <use xlink:href="#DejaVuSans-20" x="4063.75"/>
     <use xlink:href="#DejaVuSans-62" x="4095.537109"/>
     <use xlink:href="#DejaVuSans-79" x="4159.013672"/>
     <use xlink:href="#DejaVuSans-20" x="4218.193359"/>
     <use xlink:href="#DejaVuSans-64" x="4249.980469"/>
     <use xlink:href="#DejaVuSans-61" x="4313.457031"/>
     <use xlink:href="#DejaVuSans-79" x="4374.736328"/>
     <use xlink:href="#DejaVuSans-2e" x="4419.666016"/>
     <use xlink:href="#DejaVuSans-20" x="4451.453125"/>
     <use xlink:href="#DejaVuSans-41" x="4483.240234"/>
     <use xlink:href="#DejaVuSans-73" x="4551.648438"/>
     <use xlink:href="#DejaVuSans-20" x="4603.748047"/>
     <use xlink:href="#DejaVuSans-61" x="4635.535156"/>
     <use xlink:href="#DejaVuSans-74" x="4696.814453"/>
     <use xlink:href="#DejaVuSans-3a" x="4736.023438"/>
     <use xlink:href="#DejaVuSans-20" x="4769.714844"/>
     <use xlink:href="#DejaVuSans-32" x="4801.501953"/>
     <use xlink:href="#DejaVuSans-30" x="4865.125"/>
     <use xlink:href="#DejaVuSans-32" x="4928.748047"/>
     <use xlink:href="#DejaVuSans-35" x="4992.371094"/>
     <use xlink:href="#DejaVuSans-2d" x="5055.994141"/>
     <use xlink:href="#DejaVuSans-30" x="5092.078125"/>
     <use xlink:href="#DejaVuSans-32" x="5155.701172"/>
     <use xlink:href="#DejaVuSans-2d" x="5219.324219"/>
     <use xlink:href="#DejaVuSans-31" x="5255.408203"/>
     <use xlink:href="#DejaVuSans-34" x="5319.03125"/>
    </g>
   </g>
  </g>
 </g>
 <defs>
  <clipPath id="p25c4cb116d">
   <rect x="144" y="69.12" width="892.8" height="443.52"/>
  </clipPath>
 </defs>
</svg>
