<?xml version="1.0" encoding="utf-8" standalone="no"?>
<!DOCTYPE svg PUBLIC "-//W3C//DTD SVG 1.1//EN"
  "http://www.w3.org/Graphics/SVG/1.1/DTD/svg11.dtd">
<svg xmlns:xlink="http://www.w3.org/1999/xlink" width="1152pt" height="576pt" viewBox="0 0 1152 576" xmlns="http://www.w3.org/2000/svg" version="1.1">
 <metadata>
  <rdf:RDF xmlns:dc="http://purl.org/dc/elements/1.1/" xmlns:cc="http://creativecommons.org/ns#" xmlns:rdf="http://www.w3.org/1999/02/22-rdf-syntax-ns#">
   <cc:Work>
    <dc:type rdf:resource="http://purl.org/dc/dcmitype/StillImage"/>
    <dc:date>2024-03-06T17:33:21.851989</dc:date>
    <dc:format>image/svg+xml</dc:format>
    <dc:creator>
     <cc:Agent>
      <dc:title>Matplotlib v3.8.3, https://matplotlib.org/</dc:title>
     </cc:Agent>
    </dc:creator>
   </cc:Work>
  </rdf:RDF>
 </metadata>
 <defs>
  <style type="text/css">*{stroke-linejoin: round; stroke-linecap: butt}</style>
 </defs>
 <g id="figure_1">
  <g id="patch_1">
   <path d="M 0 576 
L 1152 576 
L 1152 0 
L 0 0 
z
" style="fill: #ffffff"/>
  </g>
  <g id="axes_1">
   <g id="patch_2">
    <path d="M 144 512.64 
L 1036.8 512.64 
L 1036.8 69.12 
L 144 69.12 
z
" style="fill: #ffffff"/>
   </g>
   <g id="PathCollection_1">
    <path d="M 184.581818 496.015534 
C 185.519453 496.015534 186.41881 495.643008 187.081818 494.98 
C 187.744826 494.316992 188.117352 493.417635 188.117352 492.48 
C 188.117352 491.542365 187.744826 490.643008 187.081818 489.98 
C 186.41881 489.316992 185.519453 488.944466 184.581818 488.944466 
C 183.644184 488.944466 182.744826 489.316992 182.081818 489.98 
C 181.41881 490.643008 181.046284 491.542365 181.046284 492.48 
C 181.046284 493.417635 181.41881 494.316992 182.081818 494.98 
C 182.744826 495.643008 183.644184 496.015534 184.581818 496.015534 
z
" clip-path="url(#pdfffaf1094)" style="fill: #1f77b4; fill-opacity: 0.3; stroke: #1f77b4; stroke-opacity: 0.3"/>
    <path d="M 197.068531 481.749743 
C 198.943801 481.749743 200.742516 481.004691 202.068531 479.678675 
C 203.394547 478.35266 204.139599 476.553945 204.139599 474.678675 
C 204.139599 472.803406 203.394547 471.004691 202.068531 469.678675 
C 200.742516 468.35266 198.943801 467.607608 197.068531 467.607608 
C 195.193262 467.607608 193.394547 468.35266 192.068531 469.678675 
C 190.742516 471.004691 189.997464 472.803406 189.997464 474.678675 
C 189.997464 476.553945 190.742516 478.35266 192.068531 479.678675 
C 193.394547 481.004691 195.193262 481.749743 197.068531 481.749743 
z
" clip-path="url(#pdfffaf1094)" style="fill: #1f77b4; fill-opacity: 0.3; stroke: #1f77b4; stroke-opacity: 0.3"/>
    <path d="M 209.555245 459.599211 
C 211.693381 459.599211 213.744232 458.749721 215.256122 457.237831 
C 216.768012 455.72594 217.617503 453.675089 217.617503 451.536954 
C 217.617503 449.398818 216.768012 447.347967 215.256122 445.836077 
C 213.744232 444.324186 211.693381 443.474696 209.555245 443.474696 
C 207.417109 443.474696 205.366258 444.324186 203.854368 445.836077 
C 202.342477 447.347967 201.492987 449.398818 201.492987 451.536954 
C 201.492987 453.675089 202.342477 455.72594 203.854368 457.237831 
C 205.366258 458.749721 207.417109 459.599211 209.555245 459.599211 
z
" clip-path="url(#pdfffaf1094)" style="fill: #1f77b4; fill-opacity: 0.3; stroke: #1f77b4; stroke-opacity: 0.3"/>
    <path d="M 222.041958 452.228026 
C 222.461281 452.228026 222.863486 452.061427 223.159992 451.764921 
C 223.456498 451.468415 223.623097 451.06621 223.623097 450.646887 
C 223.623097 450.227564 223.456498 449.82536 223.159992 449.528853 
C 222.863486 449.232347 222.461281 449.065749 222.041958 449.065749 
C 221.622635 449.065749 221.22043 449.232347 220.923924 449.528853 
C 220.627418 449.82536 220.460819 450.227564 220.460819 450.646887 
C 220.460819 451.06621 220.627418 451.468415 220.923924 451.764921 
C 221.22043 452.061427 221.622635 452.228026 222.041958 452.228026 
z
" clip-path="url(#pdfffaf1094)" style="fill: #1f77b4; fill-opacity: 0.3; stroke: #1f77b4; stroke-opacity: 0.3"/>
    <path d="M 234.528671 446.746225 
C 235.854687 446.746225 237.126571 446.219394 238.064205 445.281759 
C 239.00184 444.344125 239.528671 443.072241 239.528671 441.746225 
C 239.528671 440.42021 239.00184 439.148326 238.064205 438.210691 
C 237.126571 437.273057 235.854687 436.746225 234.528671 436.746225 
C 233.202656 436.746225 231.930772 437.273057 230.993137 438.210691 
C 230.055503 439.148326 229.528671 440.42021 229.528671 441.746225 
C 229.528671 443.072241 230.055503 444.344125 230.993137 445.281759 
C 231.930772 446.219394 233.202656 446.746225 234.528671 446.746225 
z
" clip-path="url(#pdfffaf1094)" style="fill: #1f77b4; fill-opacity: 0.3; stroke: #1f77b4; stroke-opacity: 0.3"/>
    <path d="M 259.502098 440.831428 
C 260.439732 440.831428 261.33909 440.458902 262.002098 439.795894 
C 262.665106 439.132886 263.037632 438.233529 263.037632 437.295894 
C 263.037632 436.358259 262.665106 435.458902 262.002098 434.795894 
C 261.33909 434.132886 260.439732 433.76036 259.502098 433.76036 
C 258.564463 433.76036 257.665106 434.132886 257.002098 434.795894 
C 256.33909 435.458902 255.966564 436.358259 255.966564 437.295894 
C 255.966564 438.233529 256.33909 439.132886 257.002098 439.795894 
C 257.665106 440.458902 258.564463 440.831428 259.502098 440.831428 
z
" clip-path="url(#pdfffaf1094)" style="fill: #1f77b4; fill-opacity: 0.3; stroke: #1f77b4; stroke-opacity: 0.3"/>
    <path d="M 271.988811 436.897907 
C 272.827457 436.897907 273.631867 436.564709 274.224879 435.971697 
C 274.817891 435.378685 275.151089 434.574275 275.151089 433.735629 
C 275.151089 432.896983 274.817891 432.092573 274.224879 431.499561 
C 273.631867 430.906549 272.827457 430.573351 271.988811 430.573351 
C 271.150165 430.573351 270.345755 430.906549 269.752743 431.499561 
C 269.159731 432.092573 268.826534 432.896983 268.826534 433.735629 
C 268.826534 434.574275 269.159731 435.378685 269.752743 435.971697 
C 270.345755 436.564709 271.150165 436.897907 271.988811 436.897907 
z
" clip-path="url(#pdfffaf1094)" style="fill: #1f77b4; fill-opacity: 0.3; stroke: #1f77b4; stroke-opacity: 0.3"/>
    <path d="M 284.475524 433.804043 
C 285.201813 433.804043 285.898453 433.515486 286.412016 433.001922 
C 286.92558 432.488359 287.214137 431.791719 287.214137 431.06543 
C 287.214137 430.339142 286.92558 429.642502 286.412016 429.128939 
C 285.898453 428.615375 285.201813 428.326818 284.475524 428.326818 
C 283.749236 428.326818 283.052596 428.615375 282.539033 429.128939 
C 282.025469 429.642502 281.736912 430.339142 281.736912 431.06543 
C 281.736912 431.791719 282.025469 432.488359 282.539033 433.001922 
C 283.052596 433.515486 283.749236 433.804043 284.475524 433.804043 
z
" clip-path="url(#pdfffaf1094)" style="fill: #1f77b4; fill-opacity: 0.3; stroke: #1f77b4; stroke-opacity: 0.3"/>
    <path d="M 296.962238 430.667443 
C 297.800884 430.667443 298.605294 430.334246 299.198306 429.741234 
C 299.791318 429.148221 300.124515 428.343811 300.124515 427.505166 
C 300.124515 426.66652 299.791318 425.86211 299.198306 425.269098 
C 298.605294 424.676085 297.800884 424.342888 296.962238 424.342888 
C 296.123592 424.342888 295.319182 424.676085 294.72617 425.269098 
C 294.133158 425.86211 293.79996 426.66652 293.79996 427.505166 
C 293.79996 428.343811 294.133158 429.148221 294.72617 429.741234 
C 295.319182 430.334246 296.123592 430.667443 296.962238 430.667443 
z
" clip-path="url(#pdfffaf1094)" style="fill: #1f77b4; fill-opacity: 0.3; stroke: #1f77b4; stroke-opacity: 0.3"/>
    <path d="M 309.448951 426.037752 
C 310.476078 426.037752 311.461275 425.62967 312.187564 424.903381 
C 312.913852 424.177092 313.321934 423.191895 313.321934 422.164768 
C 313.321934 421.137641 312.913852 420.152444 312.187564 419.426155 
C 311.461275 418.699867 310.476078 418.291785 309.448951 418.291785 
C 308.421824 418.291785 307.436627 418.699867 306.710338 419.426155 
C 305.98405 420.152444 305.575968 421.137641 305.575968 422.164768 
C 305.575968 423.191895 305.98405 424.177092 306.710338 424.903381 
C 307.436627 425.62967 308.421824 426.037752 309.448951 426.037752 
z
" clip-path="url(#pdfffaf1094)" style="fill: #1f77b4; fill-opacity: 0.3; stroke: #1f77b4; stroke-opacity: 0.3"/>
    <path d="M 321.935664 414.248264 
C 323.612956 414.248264 325.221776 413.581869 326.4078 412.395845 
C 327.593825 411.20982 328.26022 409.601 328.26022 407.923709 
C 328.26022 406.246417 327.593825 404.637597 326.4078 403.451573 
C 325.221776 402.265548 323.612956 401.599153 321.935664 401.599153 
C 320.258373 401.599153 318.649553 402.265548 317.463528 403.451573 
C 316.277504 404.637597 315.611109 406.246417 315.611109 407.923709 
C 315.611109 409.601 316.277504 411.20982 317.463528 412.395845 
C 318.649553 413.581869 320.258373 414.248264 321.935664 414.248264 
z
" clip-path="url(#pdfffaf1094)" style="fill: #1f77b4; fill-opacity: 0.3; stroke: #1f77b4; stroke-opacity: 0.3"/>
    <path d="M 334.422378 407.992123 
C 335.148666 407.992123 335.845306 407.703565 336.358869 407.190002 
C 336.872433 406.676438 337.16099 405.979799 337.16099 405.25351 
C 337.16099 404.527221 336.872433 403.830582 336.358869 403.317018 
C 335.845306 402.803455 335.148666 402.514897 334.422378 402.514897 
C 333.696089 402.514897 332.99945 402.803455 332.485886 403.317018 
C 331.972322 403.830582 331.683765 404.527221 331.683765 405.25351 
C 331.683765 405.979799 331.972322 406.676438 332.485886 407.190002 
C 332.99945 407.703565 333.696089 407.992123 334.422378 407.992123 
z
" clip-path="url(#pdfffaf1094)" style="fill: #1f77b4; fill-opacity: 0.3; stroke: #1f77b4; stroke-opacity: 0.3"/>
    <path d="M 346.909091 405.321924 
C 347.63538 405.321924 348.332019 405.033367 348.845583 404.519803 
C 349.359146 404.006239 349.647704 403.3096 349.647704 402.583311 
C 349.647704 401.857023 349.359146 401.160383 348.845583 400.64682 
C 348.332019 400.133256 347.63538 399.844698 346.909091 399.844698 
C 346.182802 399.844698 345.486163 400.133256 344.972599 400.64682 
C 344.459036 401.160383 344.170478 401.857023 344.170478 402.583311 
C 344.170478 403.3096 344.459036 404.006239 344.972599 404.519803 
C 345.486163 405.033367 346.182802 405.321924 346.909091 405.321924 
z
" clip-path="url(#pdfffaf1094)" style="fill: #1f77b4; fill-opacity: 0.3; stroke: #1f77b4; stroke-opacity: 0.3"/>
    <path d="M 359.395804 395.356042 
C 361.019835 395.356042 362.577568 394.710808 363.725931 393.562445 
C 364.874294 392.414082 365.519529 390.856349 365.519529 389.232318 
C 365.519529 387.608287 364.874294 386.050554 363.725931 384.902191 
C 362.577568 383.753828 361.019835 383.108594 359.395804 383.108594 
C 357.771774 383.108594 356.21404 383.753828 355.065677 384.902191 
C 353.917314 386.050554 353.27208 387.608287 353.27208 389.232318 
C 353.27208 390.856349 353.917314 392.414082 355.065677 393.562445 
C 356.21404 394.710808 357.771774 395.356042 359.395804 395.356042 
z
" clip-path="url(#pdfffaf1094)" style="fill: #1f77b4; fill-opacity: 0.3; stroke: #1f77b4; stroke-opacity: 0.3"/>
    <path d="M 371.882517 389.300732 
C 372.608806 389.300732 373.305446 389.012174 373.819009 388.498611 
C 374.332573 387.985047 374.62113 387.288408 374.62113 386.562119 
C 374.62113 385.835831 374.332573 385.139191 373.819009 384.625628 
C 373.305446 384.112064 372.608806 383.823506 371.882517 383.823506 
C 371.156229 383.823506 370.459589 384.112064 369.946026 384.625628 
C 369.432462 385.139191 369.143905 385.835831 369.143905 386.562119 
C 369.143905 387.288408 369.432462 387.985047 369.946026 388.498611 
C 370.459589 389.012174 371.156229 389.300732 371.882517 389.300732 
z
" clip-path="url(#pdfffaf1094)" style="fill: #1f77b4; fill-opacity: 0.3; stroke: #1f77b4; stroke-opacity: 0.3"/>
    <path d="M 384.369231 381.35855 
C 385.821808 381.35855 387.215087 380.781435 388.242214 379.754308 
C 389.269341 378.727181 389.846456 377.333902 389.846456 375.881325 
C 389.846456 374.428747 389.269341 373.035468 388.242214 372.008341 
C 387.215087 370.981214 385.821808 370.404099 384.369231 370.404099 
C 382.916654 370.404099 381.523375 370.981214 380.496247 372.008341 
C 379.46912 373.035468 378.892005 374.428747 378.892005 375.881325 
C 378.892005 377.333902 379.46912 378.727181 380.496247 379.754308 
C 381.523375 380.781435 382.916654 381.35855 384.369231 381.35855 
z
" clip-path="url(#pdfffaf1094)" style="fill: #1f77b4; fill-opacity: 0.3; stroke: #1f77b4; stroke-opacity: 0.3"/>
    <path d="M 396.855944 374.966527 
C 397.793579 374.966527 398.692936 374.594001 399.355944 373.930993 
C 400.018952 373.267986 400.391478 372.368628 400.391478 371.430993 
C 400.391478 370.493359 400.018952 369.594001 399.355944 368.930993 
C 398.692936 368.267986 397.793579 367.895459 396.855944 367.895459 
C 395.91831 367.895459 395.018952 368.267986 394.355944 368.930993 
C 393.692936 369.594001 393.32041 370.493359 393.32041 371.430993 
C 393.32041 372.368628 393.692936 373.267986 394.355944 373.930993 
C 395.018952 374.594001 395.91831 374.966527 396.855944 374.966527 
z
" clip-path="url(#pdfffaf1094)" style="fill: #1f77b4; fill-opacity: 0.3; stroke: #1f77b4; stroke-opacity: 0.3"/>
    <path d="M 409.342657 369.963579 
C 410.369785 369.963579 411.354982 369.555497 412.08127 368.829209 
C 412.807559 368.10292 413.215641 367.117723 413.215641 366.090596 
C 413.215641 365.063469 412.807559 364.078272 412.08127 363.351983 
C 411.354982 362.625695 410.369785 362.217613 409.342657 362.217613 
C 408.31553 362.217613 407.330333 362.625695 406.604045 363.351983 
C 405.877756 364.078272 405.469674 365.063469 405.469674 366.090596 
C 405.469674 367.117723 405.877756 368.10292 406.604045 368.829209 
C 407.330333 369.555497 408.31553 369.963579 409.342657 369.963579 
z
" clip-path="url(#pdfffaf1094)" style="fill: #1f77b4; fill-opacity: 0.3; stroke: #1f77b4; stroke-opacity: 0.3"/>
    <path d="M 421.829371 366.15901 
C 422.555659 366.15901 423.252299 365.870453 423.765862 365.356889 
C 424.279426 364.843325 424.567983 364.146686 424.567983 363.420397 
C 424.567983 362.694109 424.279426 361.997469 423.765862 361.483906 
C 423.252299 360.970342 422.555659 360.681785 421.829371 360.681785 
C 421.103082 360.681785 420.406443 360.970342 419.892879 361.483906 
C 419.379315 361.997469 419.090758 362.694109 419.090758 363.420397 
C 419.090758 364.146686 419.379315 364.843325 419.892879 365.356889 
C 420.406443 365.870453 421.103082 366.15901 421.829371 366.15901 
z
" clip-path="url(#pdfffaf1094)" style="fill: #1f77b4; fill-opacity: 0.3; stroke: #1f77b4; stroke-opacity: 0.3"/>
    <path d="M 434.316084 363.488811 
C 435.042373 363.488811 435.739012 363.200254 436.252576 362.68669 
C 436.766139 362.173127 437.054697 361.476487 437.054697 360.750199 
C 437.054697 360.02391 436.766139 359.327271 436.252576 358.813707 
C 435.739012 358.300143 435.042373 358.011586 434.316084 358.011586 
C 433.589795 358.011586 432.893156 358.300143 432.379592 358.813707 
C 431.866029 359.327271 431.577471 360.02391 431.577471 360.750199 
C 431.577471 361.476487 431.866029 362.173127 432.379592 362.68669 
C 432.893156 363.200254 433.589795 363.488811 434.316084 363.488811 
z
" clip-path="url(#pdfffaf1094)" style="fill: #1f77b4; fill-opacity: 0.3; stroke: #1f77b4; stroke-opacity: 0.3"/>
    <path d="M 446.802797 359.835401 
C 447.740432 359.835401 448.639789 359.462875 449.302797 358.799868 
C 449.965805 358.13686 450.338331 357.237502 450.338331 356.299868 
C 450.338331 355.362233 449.965805 354.462875 449.302797 353.799868 
C 448.639789 353.13686 447.740432 352.764334 446.802797 352.764334 
C 445.865163 352.764334 444.965805 353.13686 444.302797 353.799868 
C 443.639789 354.462875 443.267263 355.362233 443.267263 356.299868 
C 443.267263 357.237502 443.639789 358.13686 444.302797 358.799868 
C 444.965805 359.462875 445.865163 359.835401 446.802797 359.835401 
z
" clip-path="url(#pdfffaf1094)" style="fill: #1f77b4; fill-opacity: 0.3; stroke: #1f77b4; stroke-opacity: 0.3"/>
    <path d="M 459.28951 355.38507 
C 460.227145 355.38507 461.126503 355.012544 461.78951 354.349536 
C 462.452518 353.686529 462.825044 352.787171 462.825044 351.849536 
C 462.825044 350.911902 462.452518 350.012544 461.78951 349.349536 
C 461.126503 348.686529 460.227145 348.314003 459.28951 348.314003 
C 458.351876 348.314003 457.452518 348.686529 456.78951 349.349536 
C 456.126503 350.012544 455.753977 350.911902 455.753977 351.849536 
C 455.753977 352.787171 456.126503 353.686529 456.78951 354.349536 
C 457.452518 355.012544 458.351876 355.38507 459.28951 355.38507 
z
" clip-path="url(#pdfffaf1094)" style="fill: #1f77b4; fill-opacity: 0.3; stroke: #1f77b4; stroke-opacity: 0.3"/>
    <path d="M 471.776224 351.451549 
C 472.61487 351.451549 473.41928 351.118352 474.012292 350.52534 
C 474.605304 349.932327 474.938501 349.127917 474.938501 348.289272 
C 474.938501 347.450626 474.605304 346.646216 474.012292 346.053204 
C 473.41928 345.460191 472.61487 345.126994 471.776224 345.126994 
C 470.937578 345.126994 470.133168 345.460191 469.540156 346.053204 
C 468.947144 346.646216 468.613946 347.450626 468.613946 348.289272 
C 468.613946 349.127917 468.947144 349.932327 469.540156 350.52534 
C 470.133168 351.118352 470.937578 351.451549 471.776224 351.451549 
z
" clip-path="url(#pdfffaf1094)" style="fill: #1f77b4; fill-opacity: 0.3; stroke: #1f77b4; stroke-opacity: 0.3"/>
    <path d="M 484.262937 348.745207 
C 484.855949 348.745207 485.424753 348.509601 485.844076 348.090278 
C 486.263399 347.670955 486.499005 347.102151 486.499005 346.509139 
C 486.499005 345.916127 486.263399 345.347323 485.844076 344.928 
C 485.424753 344.508677 484.855949 344.273071 484.262937 344.273071 
C 483.669925 344.273071 483.101121 344.508677 482.681798 344.928 
C 482.262475 345.347323 482.026869 345.916127 482.026869 346.509139 
C 482.026869 347.102151 482.262475 347.670955 482.681798 348.090278 
C 483.101121 348.509601 483.669925 348.745207 484.262937 348.745207 
z
" clip-path="url(#pdfffaf1094)" style="fill: #1f77b4; fill-opacity: 0.3; stroke: #1f77b4; stroke-opacity: 0.3"/>
    <path d="M 496.74965 344.461976 
C 497.859075 344.461976 498.923209 344.021197 499.70769 343.236715 
C 500.492172 342.452234 500.93295 341.3881 500.93295 340.278675 
C 500.93295 339.169251 500.492172 338.105117 499.70769 337.320636 
C 498.923209 336.536154 497.859075 336.095375 496.74965 336.095375 
C 495.640226 336.095375 494.576092 336.536154 493.79161 337.320636 
C 493.007129 338.105117 492.56635 339.169251 492.56635 340.278675 
C 492.56635 341.3881 493.007129 342.452234 493.79161 343.236715 
C 494.576092 344.021197 495.640226 344.461976 496.74965 344.461976 
z
" clip-path="url(#pdfffaf1094)" style="fill: #1f77b4; fill-opacity: 0.3; stroke: #1f77b4; stroke-opacity: 0.3"/>
    <path d="M 509.236364 340.734611 
C 509.829376 340.734611 510.39818 340.499005 510.817502 340.079682 
C 511.236825 339.660359 511.472432 339.091555 511.472432 338.498543 
C 511.472432 337.905531 511.236825 337.336727 510.817502 336.917404 
C 510.39818 336.498081 509.829376 336.262475 509.236364 336.262475 
C 508.643351 336.262475 508.074548 336.498081 507.655225 336.917404 
C 507.235902 337.336727 507.000296 337.905531 507.000296 338.498543 
C 507.000296 339.091555 507.235902 339.660359 507.655225 340.079682 
C 508.074548 340.499005 508.643351 340.734611 509.236364 340.734611 
z
" clip-path="url(#pdfffaf1094)" style="fill: #1f77b4; fill-opacity: 0.3; stroke: #1f77b4; stroke-opacity: 0.3"/>
    <path d="M 534.20979 334.597881 
C 535.535806 334.597881 536.80769 334.071049 537.745324 333.133415 
C 538.682959 332.19578 539.20979 330.923896 539.20979 329.597881 
C 539.20979 328.271865 538.682959 326.999981 537.745324 326.062347 
C 536.80769 325.124712 535.535806 324.597881 534.20979 324.597881 
C 532.883775 324.597881 531.611891 325.124712 530.674256 326.062347 
C 529.736622 326.999981 529.20979 328.271865 529.20979 329.597881 
C 529.20979 330.923896 529.736622 332.19578 530.674256 333.133415 
C 531.611891 334.071049 532.883775 334.597881 534.20979 334.597881 
z
" clip-path="url(#pdfffaf1094)" style="fill: #1f77b4; fill-opacity: 0.3; stroke: #1f77b4; stroke-opacity: 0.3"/>
    <path d="M 546.696503 330.288953 
C 547.115826 330.288953 547.518031 330.122355 547.814537 329.825849 
C 548.111044 329.529342 548.277642 329.127137 548.277642 328.707815 
C 548.277642 328.288492 548.111044 327.886287 547.814537 327.589781 
C 547.518031 327.293275 547.115826 327.126676 546.696503 327.126676 
C 546.277181 327.126676 545.874976 327.293275 545.57847 327.589781 
C 545.281963 327.886287 545.115365 328.288492 545.115365 328.707815 
C 545.115365 329.127137 545.281963 329.529342 545.57847 329.825849 
C 545.874976 330.122355 546.277181 330.288953 546.696503 330.288953 
z
" clip-path="url(#pdfffaf1094)" style="fill: #1f77b4; fill-opacity: 0.3; stroke: #1f77b4; stroke-opacity: 0.3"/>
    <path d="M 559.183217 327.240401 
C 560.210344 327.240401 561.195541 326.832319 561.92183 326.10603 
C 562.648118 325.379741 563.0562 324.394544 563.0562 323.367417 
C 563.0562 322.34029 562.648118 321.355093 561.92183 320.628804 
C 561.195541 319.902516 560.210344 319.494434 559.183217 319.494434 
C 558.15609 319.494434 557.170893 319.902516 556.444604 320.628804 
C 555.718315 321.355093 555.310233 322.34029 555.310233 323.367417 
C 555.310233 324.394544 555.718315 325.379741 556.444604 326.10603 
C 557.170893 326.832319 558.15609 327.240401 559.183217 327.240401 
z
" clip-path="url(#pdfffaf1094)" style="fill: #1f77b4; fill-opacity: 0.3; stroke: #1f77b4; stroke-opacity: 0.3"/>
    <path d="M 571.66993 316.140148 
C 573.293961 316.140148 574.851694 315.494914 576.000057 314.346551 
C 577.14842 313.198188 577.793654 311.640455 577.793654 310.016424 
C 577.793654 308.392393 577.14842 306.83466 576.000057 305.686297 
C 574.851694 304.537934 573.293961 303.892699 571.66993 303.892699 
C 570.045899 303.892699 568.488166 304.537934 567.339803 305.686297 
C 566.19144 306.83466 565.546206 308.392393 565.546206 310.016424 
C 565.546206 311.640455 566.19144 313.198188 567.339803 314.346551 
C 568.488166 315.494914 570.045899 316.140148 571.66993 316.140148 
z
" clip-path="url(#pdfffaf1094)" style="fill: #1f77b4; fill-opacity: 0.3; stroke: #1f77b4; stroke-opacity: 0.3"/>
    <path d="M 584.156643 302.789155 
C 585.780674 302.789155 587.338407 302.143921 588.48677 300.995557 
C 589.635133 299.847194 590.280368 298.289461 590.280368 296.66543 
C 590.280368 295.0414 589.635133 293.483667 588.48677 292.335303 
C 587.338407 291.18694 585.780674 290.541706 584.156643 290.541706 
C 582.532613 290.541706 580.974879 291.18694 579.826516 292.335303 
C 578.678153 293.483667 578.032919 295.0414 578.032919 296.66543 
C 578.032919 298.289461 578.678153 299.847194 579.826516 300.995557 
C 580.974879 302.143921 582.532613 302.789155 584.156643 302.789155 
z
" clip-path="url(#pdfffaf1094)" style="fill: #1f77b4; fill-opacity: 0.3; stroke: #1f77b4; stroke-opacity: 0.3"/>
    <path d="M 596.643357 296.733845 
C 597.369645 296.733845 598.066285 296.445287 598.579848 295.931723 
C 599.093412 295.41816 599.381969 294.72152 599.381969 293.995232 
C 599.381969 293.268943 599.093412 292.572304 598.579848 292.05874 
C 598.066285 291.545177 597.369645 291.256619 596.643357 291.256619 
C 595.917068 291.256619 595.220429 291.545177 594.706865 292.05874 
C 594.193301 292.572304 593.904744 293.268943 593.904744 293.995232 
C 593.904744 294.72152 594.193301 295.41816 594.706865 295.931723 
C 595.220429 296.445287 595.917068 296.733845 596.643357 296.733845 
z
" clip-path="url(#pdfffaf1094)" style="fill: #1f77b4; fill-opacity: 0.3; stroke: #1f77b4; stroke-opacity: 0.3"/>
    <path d="M 621.616783 293.597245 
C 622.455429 293.597245 623.259839 293.264047 623.852851 292.671035 
C 624.445863 292.078023 624.779061 291.273613 624.779061 290.434967 
C 624.779061 289.596321 624.445863 288.791911 623.852851 288.198899 
C 623.259839 287.605887 622.455429 287.272689 621.616783 287.272689 
C 620.778137 287.272689 619.973727 287.605887 619.380715 288.198899 
C 618.787703 288.791911 618.454506 289.596321 618.454506 290.434967 
C 618.454506 291.273613 618.787703 292.078023 619.380715 292.671035 
C 619.973727 293.264047 620.778137 293.597245 621.616783 293.597245 
z
" clip-path="url(#pdfffaf1094)" style="fill: #1f77b4; fill-opacity: 0.3; stroke: #1f77b4; stroke-opacity: 0.3"/>
    <path d="M 634.103497 281.823043 
C 635.832409 281.823043 637.490743 281.136139 638.713269 279.913613 
C 639.935795 278.691087 640.622699 277.032754 640.622699 275.303841 
C 640.622699 273.574928 639.935795 271.916595 638.713269 270.694069 
C 637.490743 269.471543 635.832409 268.784639 634.103497 268.784639 
C 632.374584 268.784639 630.71625 269.471543 629.493724 270.694069 
C 628.271198 271.916595 627.584294 273.574928 627.584294 275.303841 
C 627.584294 277.032754 628.271198 278.691087 629.493724 279.913613 
C 630.71625 281.136139 632.374584 281.823043 634.103497 281.823043 
z
" clip-path="url(#pdfffaf1094)" style="fill: #1f77b4; fill-opacity: 0.3; stroke: #1f77b4; stroke-opacity: 0.3"/>
    <path d="M 646.59021 275.994914 
C 647.009533 275.994914 647.411738 275.828315 647.708244 275.531809 
C 648.00475 275.235303 648.171349 274.833098 648.171349 274.413775 
C 648.171349 273.994452 648.00475 273.592247 647.708244 273.295741 
C 647.411738 272.999235 647.009533 272.832636 646.59021 272.832636 
C 646.170887 272.832636 645.768682 272.999235 645.472176 273.295741 
C 645.17567 273.592247 645.009071 273.994452 645.009071 274.413775 
C 645.009071 274.833098 645.17567 275.235303 645.472176 275.531809 
C 645.768682 275.828315 646.170887 275.994914 646.59021 275.994914 
z
" clip-path="url(#pdfffaf1094)" style="fill: #1f77b4; fill-opacity: 0.3; stroke: #1f77b4; stroke-opacity: 0.3"/>
    <path d="M 659.076923 274.015788 
C 659.915569 274.015788 660.719979 273.68259 661.312991 273.089578 
C 661.906003 272.496566 662.239201 271.692156 662.239201 270.85351 
C 662.239201 270.014864 661.906003 269.210454 661.312991 268.617442 
C 660.719979 268.02443 659.915569 267.691232 659.076923 267.691232 
C 658.238277 267.691232 657.433867 268.02443 656.840855 268.617442 
C 656.247843 269.210454 655.914645 270.014864 655.914645 270.85351 
C 655.914645 271.692156 656.247843 272.496566 656.840855 273.089578 
C 657.433867 273.68259 658.238277 274.015788 659.076923 274.015788 
z
" clip-path="url(#pdfffaf1094)" style="fill: #1f77b4; fill-opacity: 0.3; stroke: #1f77b4; stroke-opacity: 0.3"/>
    <path d="M 671.563636 270.921924 
C 672.289925 270.921924 672.986564 270.633367 673.500128 270.119803 
C 674.013692 269.606239 674.302249 268.9096 674.302249 268.183311 
C 674.302249 267.457023 674.013692 266.760383 673.500128 266.24682 
C 672.986564 265.733256 672.289925 265.444698 671.563636 265.444698 
C 670.837348 265.444698 670.140708 265.733256 669.627145 266.24682 
C 669.113581 266.760383 668.825024 267.457023 668.825024 268.183311 
C 668.825024 268.9096 669.113581 269.606239 669.627145 270.119803 
C 670.140708 270.633367 670.837348 270.921924 671.563636 270.921924 
z
" clip-path="url(#pdfffaf1094)" style="fill: #1f77b4; fill-opacity: 0.3; stroke: #1f77b4; stroke-opacity: 0.3"/>
    <path d="M 684.05035 268.251725 
C 684.776638 268.251725 685.473278 267.963168 685.986841 267.449604 
C 686.500405 266.936041 686.788962 266.239401 686.788962 265.513113 
C 686.788962 264.786824 686.500405 264.090185 685.986841 263.576621 
C 685.473278 263.063057 684.776638 262.7745 684.05035 262.7745 
C 683.324061 262.7745 682.627422 263.063057 682.113858 263.576621 
C 681.600294 264.090185 681.311737 264.786824 681.311737 265.513113 
C 681.311737 266.239401 681.600294 266.936041 682.113858 267.449604 
C 682.627422 267.963168 683.324061 268.251725 684.05035 268.251725 
z
" clip-path="url(#pdfffaf1094)" style="fill: #1f77b4; fill-opacity: 0.3; stroke: #1f77b4; stroke-opacity: 0.3"/>
    <path d="M 696.537063 256.200124 
C 698.316099 256.200124 700.022511 255.493306 701.280479 254.235337 
C 702.538448 252.977368 703.245267 251.270957 703.245267 249.491921 
C 703.245267 247.712884 702.538448 246.006473 701.280479 244.748504 
C 700.022511 243.490535 698.316099 242.783717 696.537063 242.783717 
C 694.758026 242.783717 693.051615 243.490535 691.793646 244.748504 
C 690.535678 246.006473 689.828859 247.712884 689.828859 249.491921 
C 689.828859 251.270957 690.535678 252.977368 691.793646 254.235337 
C 693.051615 255.493306 694.758026 256.200124 696.537063 256.200124 
z
" clip-path="url(#pdfffaf1094)" style="fill: #1f77b4; fill-opacity: 0.3; stroke: #1f77b4; stroke-opacity: 0.3"/>
    <path d="M 709.023776 249.560335 
C 709.750065 249.560335 710.446704 249.271777 710.960268 248.758214 
C 711.473831 248.24465 711.762389 247.54801 711.762389 246.821722 
C 711.762389 246.095433 711.473831 245.398794 710.960268 244.88523 
C 710.446704 244.371667 709.750065 244.083109 709.023776 244.083109 
C 708.297488 244.083109 707.600848 244.371667 707.087285 244.88523 
C 706.573721 245.398794 706.285163 246.095433 706.285163 246.821722 
C 706.285163 247.54801 706.573721 248.24465 707.087285 248.758214 
C 707.600848 249.271777 708.297488 249.560335 709.023776 249.560335 
z
" clip-path="url(#pdfffaf1094)" style="fill: #1f77b4; fill-opacity: 0.3; stroke: #1f77b4; stroke-opacity: 0.3"/>
    <path d="M 721.51049 246.423735 
C 722.349135 246.423735 723.153545 246.090537 723.746557 245.497525 
C 724.33957 244.904513 724.672767 244.100103 724.672767 243.261457 
C 724.672767 242.422811 724.33957 241.618401 723.746557 241.025389 
C 723.153545 240.432377 722.349135 240.099179 721.51049 240.099179 
C 720.671844 240.099179 719.867434 240.432377 719.274422 241.025389 
C 718.681409 241.618401 718.348212 242.422811 718.348212 243.261457 
C 718.348212 244.100103 718.681409 244.904513 719.274422 245.497525 
C 719.867434 246.090537 720.671844 246.423735 721.51049 246.423735 
z
" clip-path="url(#pdfffaf1094)" style="fill: #1f77b4; fill-opacity: 0.3; stroke: #1f77b4; stroke-opacity: 0.3"/>
    <path d="M 733.997203 242.86347 
C 734.835849 242.86347 735.640259 242.530272 736.233271 241.93726 
C 736.826283 241.344248 737.15948 240.539838 737.15948 239.701192 
C 737.15948 238.862546 736.826283 238.058136 736.233271 237.465124 
C 735.640259 236.872112 734.835849 236.538914 733.997203 236.538914 
C 733.158557 236.538914 732.354147 236.872112 731.761135 237.465124 
C 731.168123 238.058136 730.834925 238.862546 730.834925 239.701192 
C 730.834925 240.539838 731.168123 241.344248 731.761135 241.93726 
C 732.354147 242.530272 733.158557 242.86347 733.997203 242.86347 
z
" clip-path="url(#pdfffaf1094)" style="fill: #1f77b4; fill-opacity: 0.3; stroke: #1f77b4; stroke-opacity: 0.3"/>
    <path d="M 746.483916 238.233778 
C 747.511043 238.233778 748.49624 237.825696 749.222529 237.099407 
C 749.948817 236.373119 750.356899 235.387922 750.356899 234.360795 
C 750.356899 233.333668 749.948817 232.348471 749.222529 231.622182 
C 748.49624 230.895893 747.511043 230.487811 746.483916 230.487811 
C 745.456789 230.487811 744.471592 230.895893 743.745303 231.622182 
C 743.019015 232.348471 742.610933 233.333668 742.610933 234.360795 
C 742.610933 235.387922 743.019015 236.373119 743.745303 237.099407 
C 744.471592 237.825696 745.456789 238.233778 746.483916 238.233778 
z
" clip-path="url(#pdfffaf1094)" style="fill: #1f77b4; fill-opacity: 0.3; stroke: #1f77b4; stroke-opacity: 0.3"/>
    <path d="M 758.970629 223.630538 
C 760.845898 223.630538 762.644614 222.885486 763.970629 221.55947 
C 765.296645 220.233455 766.041697 218.434739 766.041697 216.55947 
C 766.041697 214.684201 765.296645 212.885486 763.970629 211.55947 
C 762.644614 210.233455 760.845898 209.488402 758.970629 209.488402 
C 757.09536 209.488402 755.296645 210.233455 753.970629 211.55947 
C 752.644614 212.885486 751.899562 214.684201 751.899562 216.55947 
C 751.899562 218.434739 752.644614 220.233455 753.970629 221.55947 
C 755.296645 222.885486 757.09536 223.630538 758.970629 223.630538 
z
" clip-path="url(#pdfffaf1094)" style="fill: #1f77b4; fill-opacity: 0.3; stroke: #1f77b4; stroke-opacity: 0.3"/>
    <path d="M 771.457343 215.644673 
C 772.394977 215.644673 773.294335 215.272147 773.957343 214.609139 
C 774.62035 213.946131 774.992877 213.046774 774.992877 212.109139 
C 774.992877 211.171505 774.62035 210.272147 773.957343 209.609139 
C 773.294335 208.946131 772.394977 208.573605 771.457343 208.573605 
C 770.519708 208.573605 769.62035 208.946131 768.957343 209.609139 
C 768.294335 210.272147 767.921809 211.171505 767.921809 212.109139 
C 767.921809 213.046774 768.294335 213.946131 768.957343 214.609139 
C 769.62035 215.272147 770.519708 215.644673 771.457343 215.644673 
z
" clip-path="url(#pdfffaf1094)" style="fill: #1f77b4; fill-opacity: 0.3; stroke: #1f77b4; stroke-opacity: 0.3"/>
    <path d="M 783.944056 212.177553 
C 784.670345 212.177553 785.366984 211.888996 785.880548 211.375432 
C 786.394111 210.861868 786.682669 210.165229 786.682669 209.43894 
C 786.682669 208.712652 786.394111 208.016012 785.880548 207.502449 
C 785.366984 206.988885 784.670345 206.700328 783.944056 206.700328 
C 783.217767 206.700328 782.521128 206.988885 782.007564 207.502449 
C 781.494001 208.016012 781.205443 208.712652 781.205443 209.43894 
C 781.205443 210.165229 781.494001 210.861868 782.007564 211.375432 
C 782.521128 211.888996 783.217767 212.177553 783.944056 212.177553 
z
" clip-path="url(#pdfffaf1094)" style="fill: #1f77b4; fill-opacity: 0.3; stroke: #1f77b4; stroke-opacity: 0.3"/>
    <path d="M 796.430769 205.538278 
C 797.756785 205.538278 799.028669 205.011447 799.966303 204.073812 
C 800.903938 203.136177 801.430769 201.864294 801.430769 200.538278 
C 801.430769 199.212263 800.903938 197.940379 799.966303 197.002744 
C 799.028669 196.06511 797.756785 195.538278 796.430769 195.538278 
C 795.104754 195.538278 793.83287 196.06511 792.895235 197.002744 
C 791.957601 197.940379 791.430769 199.212263 791.430769 200.538278 
C 791.430769 201.864294 791.957601 203.136177 792.895235 204.073812 
C 793.83287 205.011447 795.104754 205.538278 796.430769 205.538278 
z
" clip-path="url(#pdfffaf1094)" style="fill: #1f77b4; fill-opacity: 0.3; stroke: #1f77b4; stroke-opacity: 0.3"/>
    <path d="M 808.917483 200.140291 
C 809.756128 200.140291 810.560538 199.807093 811.15355 199.214081 
C 811.746563 198.621069 812.07976 197.816659 812.07976 196.978013 
C 812.07976 196.139367 811.746563 195.334957 811.15355 194.741945 
C 810.560538 194.148933 809.756128 193.815736 808.917483 193.815736 
C 808.078837 193.815736 807.274427 194.148933 806.681415 194.741945 
C 806.088402 195.334957 805.755205 196.139367 805.755205 196.978013 
C 805.755205 197.816659 806.088402 198.621069 806.681415 199.214081 
C 807.274427 199.807093 808.078837 200.140291 808.917483 200.140291 
z
" clip-path="url(#pdfffaf1094)" style="fill: #1f77b4; fill-opacity: 0.3; stroke: #1f77b4; stroke-opacity: 0.3"/>
    <path d="M 821.404196 197.669086 
C 821.823519 197.669086 822.225724 197.502487 822.52223 197.205981 
C 822.818736 196.909475 822.985335 196.50727 822.985335 196.087947 
C 822.985335 195.668624 822.818736 195.266419 822.52223 194.969913 
C 822.225724 194.673407 821.823519 194.506808 821.404196 194.506808 
C 820.984873 194.506808 820.582668 194.673407 820.286162 194.969913 
C 819.989656 195.266419 819.823057 195.668624 819.823057 196.087947 
C 819.823057 196.50727 819.989656 196.909475 820.286162 197.205981 
C 820.582668 197.502487 820.984873 197.669086 821.404196 197.669086 
z
" clip-path="url(#pdfffaf1094)" style="fill: #1f77b4; fill-opacity: 0.3; stroke: #1f77b4; stroke-opacity: 0.3"/>
    <path d="M 833.890909 181.008483 
C 836.029045 181.008483 838.079896 180.158993 839.591786 178.647102 
C 841.103677 177.135212 841.953167 175.084361 841.953167 172.946225 
C 841.953167 170.808089 841.103677 168.757238 839.591786 167.245348 
C 838.079896 165.733458 836.029045 164.883967 833.890909 164.883967 
C 831.752773 164.883967 829.701922 165.733458 828.190032 167.245348 
C 826.678142 168.757238 825.828651 170.808089 825.828651 172.946225 
C 825.828651 175.084361 826.678142 177.135212 828.190032 178.647102 
C 829.701922 180.158993 831.752773 181.008483 833.890909 181.008483 
z
" clip-path="url(#pdfffaf1094)" style="fill: #1f77b4; fill-opacity: 0.3; stroke: #1f77b4; stroke-opacity: 0.3"/>
    <path d="M 846.377622 172.031428 
C 847.315257 172.031428 848.214615 171.658902 848.877622 170.995894 
C 849.54063 170.332886 849.913156 169.433529 849.913156 168.495894 
C 849.913156 167.558259 849.54063 166.658902 848.877622 165.995894 
C 848.214615 165.332886 847.315257 164.96036 846.377622 164.96036 
C 845.439988 164.96036 844.54063 165.332886 843.877622 165.995894 
C 843.214615 166.658902 842.842088 167.558259 842.842088 168.495894 
C 842.842088 169.433529 843.214615 170.332886 843.877622 170.995894 
C 844.54063 171.658902 845.439988 172.031428 846.377622 172.031428 
z
" clip-path="url(#pdfffaf1094)" style="fill: #1f77b4; fill-opacity: 0.3; stroke: #1f77b4; stroke-opacity: 0.3"/>
    <path d="M 858.864336 165.228715 
C 860.122304 165.228715 861.328919 164.728918 862.218438 163.8394 
C 863.107956 162.949882 863.607752 161.743267 863.607752 160.485298 
C 863.607752 159.227329 863.107956 158.020714 862.218438 157.131196 
C 861.328919 156.241678 860.122304 155.741882 858.864336 155.741882 
C 857.606367 155.741882 856.399752 156.241678 855.510234 157.131196 
C 854.620715 158.020714 854.120919 159.227329 854.120919 160.485298 
C 854.120919 161.743267 854.620715 162.949882 855.510234 163.8394 
C 856.399752 164.728918 857.606367 165.228715 858.864336 165.228715 
z
" clip-path="url(#pdfffaf1094)" style="fill: #1f77b4; fill-opacity: 0.3; stroke: #1f77b4; stroke-opacity: 0.3"/>
    <path d="M 871.351049 160.941234 
C 871.944061 160.941234 872.512865 160.705627 872.932188 160.286304 
C 873.351511 159.866981 873.587117 159.298178 873.587117 158.705166 
C 873.587117 158.112153 873.351511 157.54335 872.932188 157.124027 
C 872.512865 156.704704 871.944061 156.469098 871.351049 156.469098 
C 870.758037 156.469098 870.189233 156.704704 869.76991 157.124027 
C 869.350587 157.54335 869.114981 158.112153 869.114981 158.705166 
C 869.114981 159.298178 869.350587 159.866981 869.76991 160.286304 
C 870.189233 160.705627 870.758037 160.941234 871.351049 160.941234 
z
" clip-path="url(#pdfffaf1094)" style="fill: #1f77b4; fill-opacity: 0.3; stroke: #1f77b4; stroke-opacity: 0.3"/>
    <path d="M 883.837762 158.77358 
C 884.564051 158.77358 885.26069 158.485022 885.774254 157.971459 
C 886.287818 157.457895 886.576375 156.761255 886.576375 156.034967 
C 886.576375 155.308678 886.287818 154.612039 885.774254 154.098475 
C 885.26069 153.584912 884.564051 153.296354 883.837762 153.296354 
C 883.111474 153.296354 882.414834 153.584912 881.901271 154.098475 
C 881.387707 154.612039 881.099149 155.308678 881.099149 156.034967 
C 881.099149 156.761255 881.387707 157.457895 881.901271 157.971459 
C 882.414834 158.485022 883.111474 158.77358 883.837762 158.77358 
z
" clip-path="url(#pdfffaf1094)" style="fill: #1f77b4; fill-opacity: 0.3; stroke: #1f77b4; stroke-opacity: 0.3"/>
    <path d="M 896.324476 148.807698 
C 897.948506 148.807698 899.506239 148.162464 900.654603 147.014101 
C 901.802966 145.865737 902.4482 144.308004 902.4482 142.683974 
C 902.4482 141.059943 901.802966 139.50221 900.654603 138.353846 
C 899.506239 137.205483 897.948506 136.560249 896.324476 136.560249 
C 894.700445 136.560249 893.142712 137.205483 891.994349 138.353846 
C 890.845985 139.50221 890.200751 141.059943 890.200751 142.683974 
C 890.200751 144.308004 890.845985 145.865737 891.994349 147.014101 
C 893.142712 148.162464 894.700445 148.807698 896.324476 148.807698 
z
" clip-path="url(#pdfffaf1094)" style="fill: #1f77b4; fill-opacity: 0.3; stroke: #1f77b4; stroke-opacity: 0.3"/>
    <path d="M 908.811189 143.139909 
C 909.404201 143.139909 909.973005 142.904303 910.392328 142.48498 
C 910.811651 142.065657 911.047257 141.496853 911.047257 140.903841 
C 911.047257 140.310829 910.811651 139.742025 910.392328 139.322702 
C 909.973005 138.903379 909.404201 138.667773 908.811189 138.667773 
C 908.218177 138.667773 907.649373 138.903379 907.23005 139.322702 
C 906.810727 139.742025 906.575121 140.310829 906.575121 140.903841 
C 906.575121 141.496853 906.810727 142.065657 907.23005 142.48498 
C 907.649373 142.904303 908.218177 143.139909 908.811189 143.139909 
z
" clip-path="url(#pdfffaf1094)" style="fill: #1f77b4; fill-opacity: 0.3; stroke: #1f77b4; stroke-opacity: 0.3"/>
    <path d="M 921.297902 140.505854 
C 922.136548 140.505854 922.940958 140.172656 923.53397 139.579644 
C 924.126982 138.986632 924.46018 138.182222 924.46018 137.343576 
C 924.46018 136.50493 924.126982 135.70052 923.53397 135.107508 
C 922.940958 134.514496 922.136548 134.181298 921.297902 134.181298 
C 920.459256 134.181298 919.654846 134.514496 919.061834 135.107508 
C 918.468822 135.70052 918.135624 136.50493 918.135624 137.343576 
C 918.135624 138.182222 918.468822 138.986632 919.061834 139.579644 
C 919.654846 140.172656 920.459256 140.505854 921.297902 140.505854 
z
" clip-path="url(#pdfffaf1094)" style="fill: #1f77b4; fill-opacity: 0.3; stroke: #1f77b4; stroke-opacity: 0.3"/>
    <path d="M 933.784615 119.301843 
C 936.081342 119.301843 938.284309 118.389344 939.90834 116.765314 
C 941.53237 115.141283 942.444869 112.938316 942.444869 110.641589 
C 942.444869 108.344863 941.53237 106.141896 939.90834 104.517865 
C 938.284309 102.893834 936.081342 101.981335 933.784615 101.981335 
C 931.487889 101.981335 929.284922 102.893834 927.660891 104.517865 
C 926.03686 106.141896 925.124361 108.344863 925.124361 110.641589 
C 925.124361 112.938316 926.03686 115.141283 927.660891 116.765314 
C 929.284922 118.389344 931.487889 119.301843 933.784615 119.301843 
z
" clip-path="url(#pdfffaf1094)" style="fill: #1f77b4; fill-opacity: 0.3; stroke: #1f77b4; stroke-opacity: 0.3"/>
    <path d="M 946.271329 111.097525 
C 946.864341 111.097525 947.433145 110.861919 947.852468 110.442596 
C 948.27179 110.023273 948.507397 109.454469 948.507397 108.861457 
C 948.507397 108.268445 948.27179 107.699641 947.852468 107.280318 
C 947.433145 106.860995 946.864341 106.625389 946.271329 106.625389 
C 945.678317 106.625389 945.109513 106.860995 944.69019 107.280318 
C 944.270867 107.699641 944.035261 108.268445 944.035261 108.861457 
C 944.035261 109.454469 944.270867 110.023273 944.69019 110.442596 
C 945.109513 110.861919 945.678317 111.097525 946.271329 111.097525 
z
" clip-path="url(#pdfffaf1094)" style="fill: #1f77b4; fill-opacity: 0.3; stroke: #1f77b4; stroke-opacity: 0.3"/>
    <path d="M 958.758042 109.317392 
C 959.351054 109.317392 959.919858 109.081786 960.339181 108.662463 
C 960.758504 108.24314 960.99411 107.674337 960.99411 107.081325 
C 960.99411 106.488312 960.758504 105.919509 960.339181 105.500186 
C 959.919858 105.080863 959.351054 104.845257 958.758042 104.845257 
C 958.16503 104.845257 957.596226 105.080863 957.176903 105.500186 
C 956.75758 105.919509 956.521974 106.488312 956.521974 107.081325 
C 956.521974 107.674337 956.75758 108.24314 957.176903 108.662463 
C 957.596226 109.081786 958.16503 109.317392 958.758042 109.317392 
z
" clip-path="url(#pdfffaf1094)" style="fill: #1f77b4; fill-opacity: 0.3; stroke: #1f77b4; stroke-opacity: 0.3"/>
    <path d="M 971.244755 103.180662 
C 972.570771 103.180662 973.842655 102.653831 974.780289 101.716196 
C 975.717924 100.778562 976.244755 99.506678 976.244755 98.180662 
C 976.244755 96.854647 975.717924 95.582763 974.780289 94.645128 
C 973.842655 93.707494 972.570771 93.180662 971.244755 93.180662 
C 969.91874 93.180662 968.646856 93.707494 967.709221 94.645128 
C 966.771587 95.582763 966.244755 96.854647 966.244755 98.180662 
C 966.244755 99.506678 966.771587 100.778562 967.709221 101.716196 
C 968.646856 102.653831 969.91874 103.180662 971.244755 103.180662 
z
" clip-path="url(#pdfffaf1094)" style="fill: #1f77b4; fill-opacity: 0.3; stroke: #1f77b4; stroke-opacity: 0.3"/>
    <path d="M 983.731469 98.249076 
C 984.457757 98.249076 985.154397 97.960519 985.66796 97.446955 
C 986.181524 96.933392 986.470081 96.236752 986.470081 95.510464 
C 986.470081 94.784175 986.181524 94.087535 985.66796 93.573972 
C 985.154397 93.060408 984.457757 92.771851 983.731469 92.771851 
C 983.00518 92.771851 982.30854 93.060408 981.794977 93.573972 
C 981.281413 94.087535 980.992856 94.784175 980.992856 95.510464 
C 980.992856 96.236752 981.281413 96.933392 981.794977 97.446955 
C 982.30854 97.960519 983.00518 98.249076 983.731469 98.249076 
z
" clip-path="url(#pdfffaf1094)" style="fill: #1f77b4; fill-opacity: 0.3; stroke: #1f77b4; stroke-opacity: 0.3"/>
    <path d="M 996.218182 93.4633 
C 997.327606 93.4633 998.39174 93.022521 999.176222 92.23804 
C 999.960703 91.453559 1000.401482 90.389424 1000.401482 89.28 
C 1000.401482 88.170576 999.960703 87.106441 999.176222 86.32196 
C 998.39174 85.537479 997.327606 85.0967 996.218182 85.0967 
C 995.108758 85.0967 994.044623 85.537479 993.260142 86.32196 
C 992.475661 87.106441 992.034882 88.170576 992.034882 89.28 
C 992.034882 90.389424 992.475661 91.453559 993.260142 92.23804 
C 994.044623 93.022521 995.108758 93.4633 996.218182 93.4633 
z
" clip-path="url(#pdfffaf1094)" style="fill: #1f77b4; fill-opacity: 0.3; stroke: #1f77b4; stroke-opacity: 0.3"/>
   </g>
   <g id="matplotlib.axis_1">
    <g id="xtick_1">
     <g id="line2d_1">
      <defs>
       <path id="m0fed48d83b" d="M 0 0 
L 0 3.5 
" style="stroke: #000000; stroke-width: 0.8"/>
      </defs>
      <g>
       <use xlink:href="#m0fed48d83b" x="184.581818" y="512.64" style="stroke: #000000; stroke-width: 0.8"/>
      </g>
     </g>
     <g id="text_1">
      <!-- 2024-01-01 -->
      <g transform="translate(155.524006 527.238438) scale(0.1 -0.1)">
       <defs>
        <path id="DejaVuSans-32" d="M 1228 531 
L 3431 531 
L 3431 0 
L 469 0 
L 469 531 
Q 828 903 1448 1529 
Q 2069 2156 2228 2338 
Q 2531 2678 2651 2914 
Q 2772 3150 2772 3378 
Q 2772 3750 2511 3984 
Q 2250 4219 1831 4219 
Q 1534 4219 1204 4116 
Q 875 4013 500 3803 
L 500 4441 
Q 881 4594 1212 4672 
Q 1544 4750 1819 4750 
Q 2544 4750 2975 4387 
Q 3406 4025 3406 3419 
Q 3406 3131 3298 2873 
Q 3191 2616 2906 2266 
Q 2828 2175 2409 1742 
Q 1991 1309 1228 531 
z
" transform="scale(0.015625)"/>
        <path id="DejaVuSans-30" d="M 2034 4250 
Q 1547 4250 1301 3770 
Q 1056 3291 1056 2328 
Q 1056 1369 1301 889 
Q 1547 409 2034 409 
Q 2525 409 2770 889 
Q 3016 1369 3016 2328 
Q 3016 3291 2770 3770 
Q 2525 4250 2034 4250 
z
M 2034 4750 
Q 2819 4750 3233 4129 
Q 3647 3509 3647 2328 
Q 3647 1150 3233 529 
Q 2819 -91 2034 -91 
Q 1250 -91 836 529 
Q 422 1150 422 2328 
Q 422 3509 836 4129 
Q 1250 4750 2034 4750 
z
" transform="scale(0.015625)"/>
        <path id="DejaVuSans-34" d="M 2419 4116 
L 825 1625 
L 2419 1625 
L 2419 4116 
z
M 2253 4666 
L 3047 4666 
L 3047 1625 
L 3713 1625 
L 3713 1100 
L 3047 1100 
L 3047 0 
L 2419 0 
L 2419 1100 
L 313 1100 
L 313 1709 
L 2253 4666 
z
" transform="scale(0.015625)"/>
        <path id="DejaVuSans-2d" d="M 313 2009 
L 1997 2009 
L 1997 1497 
L 313 1497 
L 313 2009 
z
" transform="scale(0.015625)"/>
        <path id="DejaVuSans-31" d="M 794 531 
L 1825 531 
L 1825 4091 
L 703 3866 
L 703 4441 
L 1819 4666 
L 2450 4666 
L 2450 531 
L 3481 531 
L 3481 0 
L 794 0 
L 794 531 
z
" transform="scale(0.015625)"/>
       </defs>
       <use xlink:href="#DejaVuSans-32"/>
       <use xlink:href="#DejaVuSans-30" x="63.623047"/>
       <use xlink:href="#DejaVuSans-32" x="127.246094"/>
       <use xlink:href="#DejaVuSans-34" x="190.869141"/>
       <use xlink:href="#DejaVuSans-2d" x="254.492188"/>
       <use xlink:href="#DejaVuSans-30" x="290.576172"/>
       <use xlink:href="#DejaVuSans-31" x="354.199219"/>
       <use xlink:href="#DejaVuSans-2d" x="417.822266"/>
       <use xlink:href="#DejaVuSans-30" x="453.90625"/>
       <use xlink:href="#DejaVuSans-31" x="517.529297"/>
      </g>
     </g>
    </g>
    <g id="xtick_2">
     <g id="line2d_2">
      <g>
       <use xlink:href="#m0fed48d83b" x="359.395804" y="512.64" style="stroke: #000000; stroke-width: 0.8"/>
      </g>
     </g>
     <g id="text_2">
      <!-- 2024-01-15 -->
      <g transform="translate(330.337992 527.238438) scale(0.1 -0.1)">
       <defs>
        <path id="DejaVuSans-35" d="M 691 4666 
L 3169 4666 
L 3169 4134 
L 1269 4134 
L 1269 2991 
Q 1406 3038 1543 3061 
Q 1681 3084 1819 3084 
Q 2600 3084 3056 2656 
Q 3513 2228 3513 1497 
Q 3513 744 3044 326 
Q 2575 -91 1722 -91 
Q 1428 -91 1123 -41 
Q 819 9 494 109 
L 494 744 
Q 775 591 1075 516 
Q 1375 441 1709 441 
Q 2250 441 2565 725 
Q 2881 1009 2881 1497 
Q 2881 1984 2565 2268 
Q 2250 2553 1709 2553 
Q 1456 2553 1204 2497 
Q 953 2441 691 2322 
L 691 4666 
z
" transform="scale(0.015625)"/>
       </defs>
       <use xlink:href="#DejaVuSans-32"/>
       <use xlink:href="#DejaVuSans-30" x="63.623047"/>
       <use xlink:href="#DejaVuSans-32" x="127.246094"/>
       <use xlink:href="#DejaVuSans-34" x="190.869141"/>
       <use xlink:href="#DejaVuSans-2d" x="254.492188"/>
       <use xlink:href="#DejaVuSans-30" x="290.576172"/>
       <use xlink:href="#DejaVuSans-31" x="354.199219"/>
       <use xlink:href="#DejaVuSans-2d" x="417.822266"/>
       <use xlink:href="#DejaVuSans-31" x="453.90625"/>
       <use xlink:href="#DejaVuSans-35" x="517.529297"/>
      </g>
     </g>
    </g>
    <g id="xtick_3">
     <g id="line2d_3">
      <g>
       <use xlink:href="#m0fed48d83b" x="571.66993" y="512.64" style="stroke: #000000; stroke-width: 0.8"/>
      </g>
     </g>
     <g id="text_3">
      <!-- 2024-02-01 -->
      <g transform="translate(542.612118 527.238438) scale(0.1 -0.1)">
       <use xlink:href="#DejaVuSans-32"/>
       <use xlink:href="#DejaVuSans-30" x="63.623047"/>
       <use xlink:href="#DejaVuSans-32" x="127.246094"/>
       <use xlink:href="#DejaVuSans-34" x="190.869141"/>
       <use xlink:href="#DejaVuSans-2d" x="254.492188"/>
       <use xlink:href="#DejaVuSans-30" x="290.576172"/>
       <use xlink:href="#DejaVuSans-32" x="354.199219"/>
       <use xlink:href="#DejaVuSans-2d" x="417.822266"/>
       <use xlink:href="#DejaVuSans-30" x="453.90625"/>
       <use xlink:href="#DejaVuSans-31" x="517.529297"/>
      </g>
     </g>
    </g>
    <g id="xtick_4">
     <g id="line2d_4">
      <g>
       <use xlink:href="#m0fed48d83b" x="746.483916" y="512.64" style="stroke: #000000; stroke-width: 0.8"/>
      </g>
     </g>
     <g id="text_4">
      <!-- 2024-02-15 -->
      <g transform="translate(717.426104 527.238438) scale(0.1 -0.1)">
       <use xlink:href="#DejaVuSans-32"/>
       <use xlink:href="#DejaVuSans-30" x="63.623047"/>
       <use xlink:href="#DejaVuSans-32" x="127.246094"/>
       <use xlink:href="#DejaVuSans-34" x="190.869141"/>
       <use xlink:href="#DejaVuSans-2d" x="254.492188"/>
       <use xlink:href="#DejaVuSans-30" x="290.576172"/>
       <use xlink:href="#DejaVuSans-32" x="354.199219"/>
       <use xlink:href="#DejaVuSans-2d" x="417.822266"/>
       <use xlink:href="#DejaVuSans-31" x="453.90625"/>
       <use xlink:href="#DejaVuSans-35" x="517.529297"/>
      </g>
     </g>
    </g>
    <g id="xtick_5">
     <g id="line2d_5">
      <g>
       <use xlink:href="#m0fed48d83b" x="933.784615" y="512.64" style="stroke: #000000; stroke-width: 0.8"/>
      </g>
     </g>
     <g id="text_5">
      <!-- 2024-03-01 -->
      <g transform="translate(904.726803 527.238438) scale(0.1 -0.1)">
       <defs>
        <path id="DejaVuSans-33" d="M 2597 2516 
Q 3050 2419 3304 2112 
Q 3559 1806 3559 1356 
Q 3559 666 3084 287 
Q 2609 -91 1734 -91 
Q 1441 -91 1130 -33 
Q 819 25 488 141 
L 488 750 
Q 750 597 1062 519 
Q 1375 441 1716 441 
Q 2309 441 2620 675 
Q 2931 909 2931 1356 
Q 2931 1769 2642 2001 
Q 2353 2234 1838 2234 
L 1294 2234 
L 1294 2753 
L 1863 2753 
Q 2328 2753 2575 2939 
Q 2822 3125 2822 3475 
Q 2822 3834 2567 4026 
Q 2313 4219 1838 4219 
Q 1578 4219 1281 4162 
Q 984 4106 628 3988 
L 628 4550 
Q 988 4650 1302 4700 
Q 1616 4750 1894 4750 
Q 2613 4750 3031 4423 
Q 3450 4097 3450 3541 
Q 3450 3153 3228 2886 
Q 3006 2619 2597 2516 
z
" transform="scale(0.015625)"/>
       </defs>
       <use xlink:href="#DejaVuSans-32"/>
       <use xlink:href="#DejaVuSans-30" x="63.623047"/>
       <use xlink:href="#DejaVuSans-32" x="127.246094"/>
       <use xlink:href="#DejaVuSans-34" x="190.869141"/>
       <use xlink:href="#DejaVuSans-2d" x="254.492188"/>
       <use xlink:href="#DejaVuSans-30" x="290.576172"/>
       <use xlink:href="#DejaVuSans-33" x="354.199219"/>
       <use xlink:href="#DejaVuSans-2d" x="417.822266"/>
       <use xlink:href="#DejaVuSans-30" x="453.90625"/>
       <use xlink:href="#DejaVuSans-31" x="517.529297"/>
      </g>
     </g>
    </g>
   </g>
   <g id="matplotlib.axis_2">
    <g id="ytick_1">
     <g id="line2d_6">
      <defs>
       <path id="mcaf0f7e4a2" d="M 0 0 
L -3.5 0 
" style="stroke: #000000; stroke-width: 0.8"/>
      </defs>
      <g>
       <use xlink:href="#mcaf0f7e4a2" x="144" y="488.919735" style="stroke: #000000; stroke-width: 0.8"/>
      </g>
     </g>
     <g id="text_6">
      <!-- 6300 -->
      <g transform="translate(111.55 492.718954) scale(0.1 -0.1)">
       <defs>
        <path id="DejaVuSans-36" d="M 2113 2584 
Q 1688 2584 1439 2293 
Q 1191 2003 1191 1497 
Q 1191 994 1439 701 
Q 1688 409 2113 409 
Q 2538 409 2786 701 
Q 3034 994 3034 1497 
Q 3034 2003 2786 2293 
Q 2538 2584 2113 2584 
z
M 3366 4563 
L 3366 3988 
Q 3128 4100 2886 4159 
Q 2644 4219 2406 4219 
Q 1781 4219 1451 3797 
Q 1122 3375 1075 2522 
Q 1259 2794 1537 2939 
Q 1816 3084 2150 3084 
Q 2853 3084 3261 2657 
Q 3669 2231 3669 1497 
Q 3669 778 3244 343 
Q 2819 -91 2113 -91 
Q 1303 -91 875 529 
Q 447 1150 447 2328 
Q 447 3434 972 4092 
Q 1497 4750 2381 4750 
Q 2619 4750 2861 4703 
Q 3103 4656 3366 4563 
z
" transform="scale(0.015625)"/>
       </defs>
       <use xlink:href="#DejaVuSans-36"/>
       <use xlink:href="#DejaVuSans-33" x="63.623047"/>
       <use xlink:href="#DejaVuSans-30" x="127.246094"/>
       <use xlink:href="#DejaVuSans-30" x="190.869141"/>
      </g>
     </g>
    </g>
    <g id="ytick_2">
     <g id="line2d_7">
      <g>
       <use xlink:href="#mcaf0f7e4a2" x="144" y="399.913113" style="stroke: #000000; stroke-width: 0.8"/>
      </g>
     </g>
     <g id="text_7">
      <!-- 6400 -->
      <g transform="translate(111.55 403.712331) scale(0.1 -0.1)">
       <use xlink:href="#DejaVuSans-36"/>
       <use xlink:href="#DejaVuSans-34" x="63.623047"/>
       <use xlink:href="#DejaVuSans-30" x="127.246094"/>
       <use xlink:href="#DejaVuSans-30" x="190.869141"/>
      </g>
     </g>
    </g>
    <g id="ytick_3">
     <g id="line2d_8">
      <g>
       <use xlink:href="#mcaf0f7e4a2" x="144" y="310.90649" style="stroke: #000000; stroke-width: 0.8"/>
      </g>
     </g>
     <g id="text_8">
      <!-- 6500 -->
      <g transform="translate(111.55 314.705709) scale(0.1 -0.1)">
       <use xlink:href="#DejaVuSans-36"/>
       <use xlink:href="#DejaVuSans-35" x="63.623047"/>
       <use xlink:href="#DejaVuSans-30" x="127.246094"/>
       <use xlink:href="#DejaVuSans-30" x="190.869141"/>
      </g>
     </g>
    </g>
    <g id="ytick_4">
     <g id="line2d_9">
      <g>
       <use xlink:href="#mcaf0f7e4a2" x="144" y="221.899868" style="stroke: #000000; stroke-width: 0.8"/>
      </g>
     </g>
     <g id="text_9">
      <!-- 6600 -->
      <g transform="translate(111.55 225.699086) scale(0.1 -0.1)">
       <use xlink:href="#DejaVuSans-36"/>
       <use xlink:href="#DejaVuSans-36" x="63.623047"/>
       <use xlink:href="#DejaVuSans-30" x="127.246094"/>
       <use xlink:href="#DejaVuSans-30" x="190.869141"/>
      </g>
     </g>
    </g>
    <g id="ytick_5">
     <g id="line2d_10">
      <g>
       <use xlink:href="#mcaf0f7e4a2" x="144" y="132.893245" style="stroke: #000000; stroke-width: 0.8"/>
      </g>
     </g>
     <g id="text_10">
      <!-- 6700 -->
      <g transform="translate(111.55 136.692464) scale(0.1 -0.1)">
       <defs>
        <path id="DejaVuSans-37" d="M 525 4666 
L 3525 4666 
L 3525 4397 
L 1831 0 
L 1172 0 
L 2766 4134 
L 525 4134 
L 525 4666 
z
" transform="scale(0.015625)"/>
       </defs>
       <use xlink:href="#DejaVuSans-36"/>
       <use xlink:href="#DejaVuSans-37" x="63.623047"/>
       <use xlink:href="#DejaVuSans-30" x="127.246094"/>
       <use xlink:href="#DejaVuSans-30" x="190.869141"/>
      </g>
     </g>
    </g>
   </g>
   <g id="line2d_11">
    <path d="M 184.581818 492.48 
L 197.068531 474.678675 
L 209.555245 451.536954 
L 222.041958 450.646887 
L 234.528671 441.746225 
L 259.502098 437.295894 
L 271.988811 433.735629 
L 284.475524 431.06543 
L 296.962238 427.505166 
L 309.448951 422.164768 
L 321.935664 407.923709 
L 334.422378 405.25351 
L 346.909091 402.583311 
L 359.395804 389.232318 
L 371.882517 386.562119 
L 384.369231 375.881325 
L 396.855944 371.430993 
L 409.342657 366.090596 
L 421.829371 363.420397 
L 434.316084 360.750199 
L 446.802797 356.299868 
L 459.28951 351.849536 
L 471.776224 348.289272 
L 484.262937 346.509139 
L 496.74965 340.278675 
L 509.236364 338.498543 
L 534.20979 329.597881 
L 546.696503 328.707815 
L 559.183217 323.367417 
L 571.66993 310.016424 
L 584.156643 296.66543 
L 596.643357 293.995232 
L 621.616783 290.434967 
L 634.103497 275.303841 
L 646.59021 274.413775 
L 659.076923 270.85351 
L 671.563636 268.183311 
L 684.05035 265.513113 
L 696.537063 249.491921 
L 709.023776 246.821722 
L 721.51049 243.261457 
L 733.997203 239.701192 
L 746.483916 234.360795 
L 758.970629 216.55947 
L 771.457343 212.109139 
L 783.944056 209.43894 
L 796.430769 200.538278 
L 808.917483 196.978013 
L 821.404196 196.087947 
L 833.890909 172.946225 
L 846.377622 168.495894 
L 858.864336 160.485298 
L 871.351049 158.705166 
L 883.837762 156.034967 
L 896.324476 142.683974 
L 908.811189 140.903841 
L 921.297902 137.343576 
L 933.784615 110.641589 
L 946.271329 108.861457 
L 958.758042 107.081325 
L 971.244755 98.180662 
L 983.731469 95.510464 
L 996.218182 89.28 
" clip-path="url(#pdfffaf1094)" style="fill: none; stroke: #1f77b4; stroke-width: 1.5; stroke-linecap: square"/>
   </g>
   <g id="patch_3">
    <path d="M 144 512.64 
L 144 69.12 
" style="fill: none; stroke: #000000; stroke-width: 0.8; stroke-linejoin: miter; stroke-linecap: square"/>
   </g>
   <g id="patch_4">
    <path d="M 1036.8 512.64 
L 1036.8 69.12 
" style="fill: none; stroke: #000000; stroke-width: 0.8; stroke-linejoin: miter; stroke-linecap: square"/>
   </g>
   <g id="patch_5">
    <path d="M 144 512.64 
L 1036.8 512.64 
" style="fill: none; stroke: #000000; stroke-width: 0.8; stroke-linejoin: miter; stroke-linecap: square"/>
   </g>
   <g id="patch_6">
    <path d="M 144 69.12 
L 1036.8 69.12 
" style="fill: none; stroke: #000000; stroke-width: 0.8; stroke-linejoin: miter; stroke-linecap: square"/>
   </g>
   <g id="text_11">
    <!-- Number of AEDs in the OpenStreetMap database in Poland from 2024-01-01, day by day. As at: 2024-03-06 -->
    <g transform="translate(144 63.12) scale(0.14 -0.14)">
     <defs>
      <path id="DejaVuSans-4e" d="M 628 4666 
L 1478 4666 
L 3547 763 
L 3547 4666 
L 4159 4666 
L 4159 0 
L 3309 0 
L 1241 3903 
L 1241 0 
L 628 0 
L 628 4666 
z
" transform="scale(0.015625)"/>
      <path id="DejaVuSans-75" d="M 544 1381 
L 544 3500 
L 1119 3500 
L 1119 1403 
Q 1119 906 1312 657 
Q 1506 409 1894 409 
Q 2359 409 2629 706 
Q 2900 1003 2900 1516 
L 2900 3500 
L 3475 3500 
L 3475 0 
L 2900 0 
L 2900 538 
Q 2691 219 2414 64 
Q 2138 -91 1772 -91 
Q 1169 -91 856 284 
Q 544 659 544 1381 
z
M 1991 3584 
L 1991 3584 
z
" transform="scale(0.015625)"/>
      <path id="DejaVuSans-6d" d="M 3328 2828 
Q 3544 3216 3844 3400 
Q 4144 3584 4550 3584 
Q 5097 3584 5394 3201 
Q 5691 2819 5691 2113 
L 5691 0 
L 5113 0 
L 5113 2094 
Q 5113 2597 4934 2840 
Q 4756 3084 4391 3084 
Q 3944 3084 3684 2787 
Q 3425 2491 3425 1978 
L 3425 0 
L 2847 0 
L 2847 2094 
Q 2847 2600 2669 2842 
Q 2491 3084 2119 3084 
Q 1678 3084 1418 2786 
Q 1159 2488 1159 1978 
L 1159 0 
L 581 0 
L 581 3500 
L 1159 3500 
L 1159 2956 
Q 1356 3278 1631 3431 
Q 1906 3584 2284 3584 
Q 2666 3584 2933 3390 
Q 3200 3197 3328 2828 
z
" transform="scale(0.015625)"/>
      <path id="DejaVuSans-62" d="M 3116 1747 
Q 3116 2381 2855 2742 
Q 2594 3103 2138 3103 
Q 1681 3103 1420 2742 
Q 1159 2381 1159 1747 
Q 1159 1113 1420 752 
Q 1681 391 2138 391 
Q 2594 391 2855 752 
Q 3116 1113 3116 1747 
z
M 1159 2969 
Q 1341 3281 1617 3432 
Q 1894 3584 2278 3584 
Q 2916 3584 3314 3078 
Q 3713 2572 3713 1747 
Q 3713 922 3314 415 
Q 2916 -91 2278 -91 
Q 1894 -91 1617 61 
Q 1341 213 1159 525 
L 1159 0 
L 581 0 
L 581 4863 
L 1159 4863 
L 1159 2969 
z
" transform="scale(0.015625)"/>
      <path id="DejaVuSans-65" d="M 3597 1894 
L 3597 1613 
L 953 1613 
Q 991 1019 1311 708 
Q 1631 397 2203 397 
Q 2534 397 2845 478 
Q 3156 559 3463 722 
L 3463 178 
Q 3153 47 2828 -22 
Q 2503 -91 2169 -91 
Q 1331 -91 842 396 
Q 353 884 353 1716 
Q 353 2575 817 3079 
Q 1281 3584 2069 3584 
Q 2775 3584 3186 3129 
Q 3597 2675 3597 1894 
z
M 3022 2063 
Q 3016 2534 2758 2815 
Q 2500 3097 2075 3097 
Q 1594 3097 1305 2825 
Q 1016 2553 972 2059 
L 3022 2063 
z
" transform="scale(0.015625)"/>
      <path id="DejaVuSans-72" d="M 2631 2963 
Q 2534 3019 2420 3045 
Q 2306 3072 2169 3072 
Q 1681 3072 1420 2755 
Q 1159 2438 1159 1844 
L 1159 0 
L 581 0 
L 581 3500 
L 1159 3500 
L 1159 2956 
Q 1341 3275 1631 3429 
Q 1922 3584 2338 3584 
Q 2397 3584 2469 3576 
Q 2541 3569 2628 3553 
L 2631 2963 
z
" transform="scale(0.015625)"/>
      <path id="DejaVuSans-20" transform="scale(0.015625)"/>
      <path id="DejaVuSans-6f" d="M 1959 3097 
Q 1497 3097 1228 2736 
Q 959 2375 959 1747 
Q 959 1119 1226 758 
Q 1494 397 1959 397 
Q 2419 397 2687 759 
Q 2956 1122 2956 1747 
Q 2956 2369 2687 2733 
Q 2419 3097 1959 3097 
z
M 1959 3584 
Q 2709 3584 3137 3096 
Q 3566 2609 3566 1747 
Q 3566 888 3137 398 
Q 2709 -91 1959 -91 
Q 1206 -91 779 398 
Q 353 888 353 1747 
Q 353 2609 779 3096 
Q 1206 3584 1959 3584 
z
" transform="scale(0.015625)"/>
      <path id="DejaVuSans-66" d="M 2375 4863 
L 2375 4384 
L 1825 4384 
Q 1516 4384 1395 4259 
Q 1275 4134 1275 3809 
L 1275 3500 
L 2222 3500 
L 2222 3053 
L 1275 3053 
L 1275 0 
L 697 0 
L 697 3053 
L 147 3053 
L 147 3500 
L 697 3500 
L 697 3744 
Q 697 4328 969 4595 
Q 1241 4863 1831 4863 
L 2375 4863 
z
" transform="scale(0.015625)"/>
      <path id="DejaVuSans-41" d="M 2188 4044 
L 1331 1722 
L 3047 1722 
L 2188 4044 
z
M 1831 4666 
L 2547 4666 
L 4325 0 
L 3669 0 
L 3244 1197 
L 1141 1197 
L 716 0 
L 50 0 
L 1831 4666 
z
" transform="scale(0.015625)"/>
      <path id="DejaVuSans-45" d="M 628 4666 
L 3578 4666 
L 3578 4134 
L 1259 4134 
L 1259 2753 
L 3481 2753 
L 3481 2222 
L 1259 2222 
L 1259 531 
L 3634 531 
L 3634 0 
L 628 0 
L 628 4666 
z
" transform="scale(0.015625)"/>
      <path id="DejaVuSans-44" d="M 1259 4147 
L 1259 519 
L 2022 519 
Q 2988 519 3436 956 
Q 3884 1394 3884 2338 
Q 3884 3275 3436 3711 
Q 2988 4147 2022 4147 
L 1259 4147 
z
M 628 4666 
L 1925 4666 
Q 3281 4666 3915 4102 
Q 4550 3538 4550 2338 
Q 4550 1131 3912 565 
Q 3275 0 1925 0 
L 628 0 
L 628 4666 
z
" transform="scale(0.015625)"/>
      <path id="DejaVuSans-73" d="M 2834 3397 
L 2834 2853 
Q 2591 2978 2328 3040 
Q 2066 3103 1784 3103 
Q 1356 3103 1142 2972 
Q 928 2841 928 2578 
Q 928 2378 1081 2264 
Q 1234 2150 1697 2047 
L 1894 2003 
Q 2506 1872 2764 1633 
Q 3022 1394 3022 966 
Q 3022 478 2636 193 
Q 2250 -91 1575 -91 
Q 1294 -91 989 -36 
Q 684 19 347 128 
L 347 722 
Q 666 556 975 473 
Q 1284 391 1588 391 
Q 1994 391 2212 530 
Q 2431 669 2431 922 
Q 2431 1156 2273 1281 
Q 2116 1406 1581 1522 
L 1381 1569 
Q 847 1681 609 1914 
Q 372 2147 372 2553 
Q 372 3047 722 3315 
Q 1072 3584 1716 3584 
Q 2034 3584 2315 3537 
Q 2597 3491 2834 3397 
z
" transform="scale(0.015625)"/>
      <path id="DejaVuSans-69" d="M 603 3500 
L 1178 3500 
L 1178 0 
L 603 0 
L 603 3500 
z
M 603 4863 
L 1178 4863 
L 1178 4134 
L 603 4134 
L 603 4863 
z
" transform="scale(0.015625)"/>
      <path id="DejaVuSans-6e" d="M 3513 2113 
L 3513 0 
L 2938 0 
L 2938 2094 
Q 2938 2591 2744 2837 
Q 2550 3084 2163 3084 
Q 1697 3084 1428 2787 
Q 1159 2491 1159 1978 
L 1159 0 
L 581 0 
L 581 3500 
L 1159 3500 
L 1159 2956 
Q 1366 3272 1645 3428 
Q 1925 3584 2291 3584 
Q 2894 3584 3203 3211 
Q 3513 2838 3513 2113 
z
" transform="scale(0.015625)"/>
      <path id="DejaVuSans-74" d="M 1172 4494 
L 1172 3500 
L 2356 3500 
L 2356 3053 
L 1172 3053 
L 1172 1153 
Q 1172 725 1289 603 
Q 1406 481 1766 481 
L 2356 481 
L 2356 0 
L 1766 0 
Q 1100 0 847 248 
Q 594 497 594 1153 
L 594 3053 
L 172 3053 
L 172 3500 
L 594 3500 
L 594 4494 
L 1172 4494 
z
" transform="scale(0.015625)"/>
      <path id="DejaVuSans-68" d="M 3513 2113 
L 3513 0 
L 2938 0 
L 2938 2094 
Q 2938 2591 2744 2837 
Q 2550 3084 2163 3084 
Q 1697 3084 1428 2787 
Q 1159 2491 1159 1978 
L 1159 0 
L 581 0 
L 581 4863 
L 1159 4863 
L 1159 2956 
Q 1366 3272 1645 3428 
Q 1925 3584 2291 3584 
Q 2894 3584 3203 3211 
Q 3513 2838 3513 2113 
z
" transform="scale(0.015625)"/>
      <path id="DejaVuSans-4f" d="M 2522 4238 
Q 1834 4238 1429 3725 
Q 1025 3213 1025 2328 
Q 1025 1447 1429 934 
Q 1834 422 2522 422 
Q 3209 422 3611 934 
Q 4013 1447 4013 2328 
Q 4013 3213 3611 3725 
Q 3209 4238 2522 4238 
z
M 2522 4750 
Q 3503 4750 4090 4092 
Q 4678 3434 4678 2328 
Q 4678 1225 4090 567 
Q 3503 -91 2522 -91 
Q 1538 -91 948 565 
Q 359 1222 359 2328 
Q 359 3434 948 4092 
Q 1538 4750 2522 4750 
z
" transform="scale(0.015625)"/>
      <path id="DejaVuSans-70" d="M 1159 525 
L 1159 -1331 
L 581 -1331 
L 581 3500 
L 1159 3500 
L 1159 2969 
Q 1341 3281 1617 3432 
Q 1894 3584 2278 3584 
Q 2916 3584 3314 3078 
Q 3713 2572 3713 1747 
Q 3713 922 3314 415 
Q 2916 -91 2278 -91 
Q 1894 -91 1617 61 
Q 1341 213 1159 525 
z
M 3116 1747 
Q 3116 2381 2855 2742 
Q 2594 3103 2138 3103 
Q 1681 3103 1420 2742 
Q 1159 2381 1159 1747 
Q 1159 1113 1420 752 
Q 1681 391 2138 391 
Q 2594 391 2855 752 
Q 3116 1113 3116 1747 
z
" transform="scale(0.015625)"/>
      <path id="DejaVuSans-53" d="M 3425 4513 
L 3425 3897 
Q 3066 4069 2747 4153 
Q 2428 4238 2131 4238 
Q 1616 4238 1336 4038 
Q 1056 3838 1056 3469 
Q 1056 3159 1242 3001 
Q 1428 2844 1947 2747 
L 2328 2669 
Q 3034 2534 3370 2195 
Q 3706 1856 3706 1288 
Q 3706 609 3251 259 
Q 2797 -91 1919 -91 
Q 1588 -91 1214 -16 
Q 841 59 441 206 
L 441 856 
Q 825 641 1194 531 
Q 1563 422 1919 422 
Q 2459 422 2753 634 
Q 3047 847 3047 1241 
Q 3047 1584 2836 1778 
Q 2625 1972 2144 2069 
L 1759 2144 
Q 1053 2284 737 2584 
Q 422 2884 422 3419 
Q 422 4038 858 4394 
Q 1294 4750 2059 4750 
Q 2388 4750 2728 4690 
Q 3069 4631 3425 4513 
z
" transform="scale(0.015625)"/>
      <path id="DejaVuSans-4d" d="M 628 4666 
L 1569 4666 
L 2759 1491 
L 3956 4666 
L 4897 4666 
L 4897 0 
L 4281 0 
L 4281 4097 
L 3078 897 
L 2444 897 
L 1241 4097 
L 1241 0 
L 628 0 
L 628 4666 
z
" transform="scale(0.015625)"/>
      <path id="DejaVuSans-61" d="M 2194 1759 
Q 1497 1759 1228 1600 
Q 959 1441 959 1056 
Q 959 750 1161 570 
Q 1363 391 1709 391 
Q 2188 391 2477 730 
Q 2766 1069 2766 1631 
L 2766 1759 
L 2194 1759 
z
M 3341 1997 
L 3341 0 
L 2766 0 
L 2766 531 
Q 2569 213 2275 61 
Q 1981 -91 1556 -91 
Q 1019 -91 701 211 
Q 384 513 384 1019 
Q 384 1609 779 1909 
Q 1175 2209 1959 2209 
L 2766 2209 
L 2766 2266 
Q 2766 2663 2505 2880 
Q 2244 3097 1772 3097 
Q 1472 3097 1187 3025 
Q 903 2953 641 2809 
L 641 3341 
Q 956 3463 1253 3523 
Q 1550 3584 1831 3584 
Q 2591 3584 2966 3190 
Q 3341 2797 3341 1997 
z
" transform="scale(0.015625)"/>
      <path id="DejaVuSans-64" d="M 2906 2969 
L 2906 4863 
L 3481 4863 
L 3481 0 
L 2906 0 
L 2906 525 
Q 2725 213 2448 61 
Q 2172 -91 1784 -91 
Q 1150 -91 751 415 
Q 353 922 353 1747 
Q 353 2572 751 3078 
Q 1150 3584 1784 3584 
Q 2172 3584 2448 3432 
Q 2725 3281 2906 2969 
z
M 947 1747 
Q 947 1113 1208 752 
Q 1469 391 1925 391 
Q 2381 391 2643 752 
Q 2906 1113 2906 1747 
Q 2906 2381 2643 2742 
Q 2381 3103 1925 3103 
Q 1469 3103 1208 2742 
Q 947 2381 947 1747 
z
" transform="scale(0.015625)"/>
      <path id="DejaVuSans-50" d="M 1259 4147 
L 1259 2394 
L 2053 2394 
Q 2494 2394 2734 2622 
Q 2975 2850 2975 3272 
Q 2975 3691 2734 3919 
Q 2494 4147 2053 4147 
L 1259 4147 
z
M 628 4666 
L 2053 4666 
Q 2838 4666 3239 4311 
Q 3641 3956 3641 3272 
Q 3641 2581 3239 2228 
Q 2838 1875 2053 1875 
L 1259 1875 
L 1259 0 
L 628 0 
L 628 4666 
z
" transform="scale(0.015625)"/>
      <path id="DejaVuSans-6c" d="M 603 4863 
L 1178 4863 
L 1178 0 
L 603 0 
L 603 4863 
z
" transform="scale(0.015625)"/>
      <path id="DejaVuSans-2c" d="M 750 794 
L 1409 794 
L 1409 256 
L 897 -744 
L 494 -744 
L 750 256 
L 750 794 
z
" transform="scale(0.015625)"/>
      <path id="DejaVuSans-79" d="M 2059 -325 
Q 1816 -950 1584 -1140 
Q 1353 -1331 966 -1331 
L 506 -1331 
L 506 -850 
L 844 -850 
Q 1081 -850 1212 -737 
Q 1344 -625 1503 -206 
L 1606 56 
L 191 3500 
L 800 3500 
L 1894 763 
L 2988 3500 
L 3597 3500 
L 2059 -325 
z
" transform="scale(0.015625)"/>
      <path id="DejaVuSans-2e" d="M 684 794 
L 1344 794 
L 1344 0 
L 684 0 
L 684 794 
z
" transform="scale(0.015625)"/>
      <path id="DejaVuSans-3a" d="M 750 794 
L 1409 794 
L 1409 0 
L 750 0 
L 750 794 
z
M 750 3309 
L 1409 3309 
L 1409 2516 
L 750 2516 
L 750 3309 
z
" transform="scale(0.015625)"/>
     </defs>
     <use xlink:href="#DejaVuSans-4e"/>
     <use xlink:href="#DejaVuSans-75" x="74.804688"/>
     <use xlink:href="#DejaVuSans-6d" x="138.183594"/>
     <use xlink:href="#DejaVuSans-62" x="235.595703"/>
     <use xlink:href="#DejaVuSans-65" x="299.072266"/>
     <use xlink:href="#DejaVuSans-72" x="360.595703"/>
     <use xlink:href="#DejaVuSans-20" x="401.708984"/>
     <use xlink:href="#DejaVuSans-6f" x="433.496094"/>
     <use xlink:href="#DejaVuSans-66" x="494.677734"/>
     <use xlink:href="#DejaVuSans-20" x="529.882812"/>
     <use xlink:href="#DejaVuSans-41" x="561.669922"/>
     <use xlink:href="#DejaVuSans-45" x="630.078125"/>
     <use xlink:href="#DejaVuSans-44" x="693.261719"/>
     <use xlink:href="#DejaVuSans-73" x="770.263672"/>
     <use xlink:href="#DejaVuSans-20" x="822.363281"/>
     <use xlink:href="#DejaVuSans-69" x="854.150391"/>
     <use xlink:href="#DejaVuSans-6e" x="881.933594"/>
     <use xlink:href="#DejaVuSans-20" x="945.3125"/>
     <use xlink:href="#DejaVuSans-74" x="977.099609"/>
     <use xlink:href="#DejaVuSans-68" x="1016.308594"/>
     <use xlink:href="#DejaVuSans-65" x="1079.6875"/>
     <use xlink:href="#DejaVuSans-20" x="1141.210938"/>
     <use xlink:href="#DejaVuSans-4f" x="1172.998047"/>
     <use xlink:href="#DejaVuSans-70" x="1251.708984"/>
     <use xlink:href="#DejaVuSans-65" x="1315.185547"/>
     <use xlink:href="#DejaVuSans-6e" x="1376.708984"/>
     <use xlink:href="#DejaVuSans-53" x="1440.087891"/>
     <use xlink:href="#DejaVuSans-74" x="1503.564453"/>
     <use xlink:href="#DejaVuSans-72" x="1542.773438"/>
     <use xlink:href="#DejaVuSans-65" x="1581.636719"/>
     <use xlink:href="#DejaVuSans-65" x="1643.160156"/>
     <use xlink:href="#DejaVuSans-74" x="1704.683594"/>
     <use xlink:href="#DejaVuSans-4d" x="1743.892578"/>
     <use xlink:href="#DejaVuSans-61" x="1830.171875"/>
     <use xlink:href="#DejaVuSans-70" x="1891.451172"/>
     <use xlink:href="#DejaVuSans-20" x="1954.927734"/>
     <use xlink:href="#DejaVuSans-64" x="1986.714844"/>
     <use xlink:href="#DejaVuSans-61" x="2050.191406"/>
     <use xlink:href="#DejaVuSans-74" x="2111.470703"/>
     <use xlink:href="#DejaVuSans-61" x="2150.679688"/>
     <use xlink:href="#DejaVuSans-62" x="2211.958984"/>
     <use xlink:href="#DejaVuSans-61" x="2275.435547"/>
     <use xlink:href="#DejaVuSans-73" x="2336.714844"/>
     <use xlink:href="#DejaVuSans-65" x="2388.814453"/>
     <use xlink:href="#DejaVuSans-20" x="2450.337891"/>
     <use xlink:href="#DejaVuSans-69" x="2482.125"/>
     <use xlink:href="#DejaVuSans-6e" x="2509.908203"/>
     <use xlink:href="#DejaVuSans-20" x="2573.287109"/>
     <use xlink:href="#DejaVuSans-50" x="2605.074219"/>
     <use xlink:href="#DejaVuSans-6f" x="2661.751953"/>
     <use xlink:href="#DejaVuSans-6c" x="2722.933594"/>
     <use xlink:href="#DejaVuSans-61" x="2750.716797"/>
     <use xlink:href="#DejaVuSans-6e" x="2811.996094"/>
     <use xlink:href="#DejaVuSans-64" x="2875.375"/>
     <use xlink:href="#DejaVuSans-20" x="2938.851562"/>
     <use xlink:href="#DejaVuSans-66" x="2970.638672"/>
     <use xlink:href="#DejaVuSans-72" x="3005.84375"/>
     <use xlink:href="#DejaVuSans-6f" x="3044.707031"/>
     <use xlink:href="#DejaVuSans-6d" x="3105.888672"/>
     <use xlink:href="#DejaVuSans-20" x="3203.300781"/>
     <use xlink:href="#DejaVuSans-32" x="3235.087891"/>
     <use xlink:href="#DejaVuSans-30" x="3298.710938"/>
     <use xlink:href="#DejaVuSans-32" x="3362.333984"/>
     <use xlink:href="#DejaVuSans-34" x="3425.957031"/>
     <use xlink:href="#DejaVuSans-2d" x="3489.580078"/>
     <use xlink:href="#DejaVuSans-30" x="3525.664062"/>
     <use xlink:href="#DejaVuSans-31" x="3589.287109"/>
     <use xlink:href="#DejaVuSans-2d" x="3652.910156"/>
     <use xlink:href="#DejaVuSans-30" x="3688.994141"/>
     <use xlink:href="#DejaVuSans-31" x="3752.617188"/>
     <use xlink:href="#DejaVuSans-2c" x="3816.240234"/>
     <use xlink:href="#DejaVuSans-20" x="3848.027344"/>
     <use xlink:href="#DejaVuSans-64" x="3879.814453"/>
     <use xlink:href="#DejaVuSans-61" x="3943.291016"/>
     <use xlink:href="#DejaVuSans-79" x="4004.570312"/>
     <use xlink:href="#DejaVuSans-20" x="4063.75"/>
     <use xlink:href="#DejaVuSans-62" x="4095.537109"/>
     <use xlink:href="#DejaVuSans-79" x="4159.013672"/>
     <use xlink:href="#DejaVuSans-20" x="4218.193359"/>
     <use xlink:href="#DejaVuSans-64" x="4249.980469"/>
     <use xlink:href="#DejaVuSans-61" x="4313.457031"/>
     <use xlink:href="#DejaVuSans-79" x="4374.736328"/>
     <use xlink:href="#DejaVuSans-2e" x="4419.666016"/>
     <use xlink:href="#DejaVuSans-20" x="4451.453125"/>
     <use xlink:href="#DejaVuSans-41" x="4483.240234"/>
     <use xlink:href="#DejaVuSans-73" x="4551.648438"/>
     <use xlink:href="#DejaVuSans-20" x="4603.748047"/>
     <use xlink:href="#DejaVuSans-61" x="4635.535156"/>
     <use xlink:href="#DejaVuSans-74" x="4696.814453"/>
     <use xlink:href="#DejaVuSans-3a" x="4736.023438"/>
     <use xlink:href="#DejaVuSans-20" x="4769.714844"/>
     <use xlink:href="#DejaVuSans-32" x="4801.501953"/>
     <use xlink:href="#DejaVuSans-30" x="4865.125"/>
     <use xlink:href="#DejaVuSans-32" x="4928.748047"/>
     <use xlink:href="#DejaVuSans-34" x="4992.371094"/>
     <use xlink:href="#DejaVuSans-2d" x="5055.994141"/>
     <use xlink:href="#DejaVuSans-30" x="5092.078125"/>
     <use xlink:href="#DejaVuSans-33" x="5155.701172"/>
     <use xlink:href="#DejaVuSans-2d" x="5219.324219"/>
     <use xlink:href="#DejaVuSans-30" x="5255.408203"/>
     <use xlink:href="#DejaVuSans-36" x="5319.03125"/>
    </g>
   </g>
  </g>
 </g>
 <defs>
  <clipPath id="pdfffaf1094">
   <rect x="144" y="69.12" width="892.8" height="443.52"/>
  </clipPath>
 </defs>
</svg>
