<?xml version="1.0" encoding="utf-8" standalone="no"?>
<!DOCTYPE svg PUBLIC "-//W3C//DTD SVG 1.1//EN"
  "http://www.w3.org/Graphics/SVG/1.1/DTD/svg11.dtd">
<svg xmlns:xlink="http://www.w3.org/1999/xlink" width="1152pt" height="576pt" viewBox="0 0 1152 576" xmlns="http://www.w3.org/2000/svg" version="1.1">
 <metadata>
  <rdf:RDF xmlns:dc="http://purl.org/dc/elements/1.1/" xmlns:cc="http://creativecommons.org/ns#" xmlns:rdf="http://www.w3.org/1999/02/22-rdf-syntax-ns#">
   <cc:Work>
    <dc:type rdf:resource="http://purl.org/dc/dcmitype/StillImage"/>
    <dc:date>1980-01-01T00:00:00+00:00</dc:date>
    <dc:format>image/svg+xml</dc:format>
    <dc:creator>
     <cc:Agent>
      <dc:title>Matplotlib v3.9.1, https://matplotlib.org/</dc:title>
     </cc:Agent>
    </dc:creator>
   </cc:Work>
  </rdf:RDF>
 </metadata>
 <defs>
  <style type="text/css">*{stroke-linejoin: round; stroke-linecap: butt}</style>
 </defs>
 <g id="figure_1">
  <g id="patch_1">
   <path d="M 0 576 
L 1152 576 
L 1152 0 
L 0 0 
z
" style="fill: #ffffff"/>
  </g>
  <g id="axes_1">
   <g id="patch_2">
    <path d="M 144 512.64 
L 1036.8 512.64 
L 1036.8 69.12 
L 144 69.12 
z
" style="fill: #ffffff"/>
   </g>
   <g id="PathCollection_1">
    <path d="M 184.581818 496.352983 
C 185.608945 496.352983 186.594142 495.944901 187.320431 495.218613 
C 188.04672 494.492324 188.454802 493.507127 188.454802 492.48 
C 188.454802 491.452873 188.04672 490.467676 187.320431 489.741387 
C 186.594142 489.015099 185.608945 488.607017 184.581818 488.607017 
C 183.554691 488.607017 182.569494 489.015099 181.843205 489.741387 
C 181.116917 490.467676 180.708835 491.452873 180.708835 492.48 
C 180.708835 493.507127 181.116917 494.492324 181.843205 495.218613 
C 182.569494 495.944901 183.554691 496.352983 184.581818 496.352983 
z
" clip-path="url(#p517fb3281b)" style="fill: #1f77b4; fill-opacity: 0.3; stroke: #1f77b4; stroke-opacity: 0.3"/>
    <path d="M 201.145826 492.560259 
C 202.924862 492.560259 204.631273 491.85344 205.889242 490.595471 
C 207.147211 489.337503 207.85403 487.631091 207.85403 485.852055 
C 207.85403 484.073018 207.147211 482.366607 205.889242 481.108638 
C 204.631273 479.85067 202.924862 479.143851 201.145826 479.143851 
C 199.366789 479.143851 197.660378 479.85067 196.402409 481.108638 
C 195.14444 482.366607 194.437622 484.073018 194.437622 485.852055 
C 194.437622 487.631091 195.14444 489.337503 196.402409 490.595471 
C 197.660378 491.85344 199.366789 492.560259 201.145826 492.560259 
z
" clip-path="url(#p517fb3281b)" style="fill: #1f77b4; fill-opacity: 0.3; stroke: #1f77b4; stroke-opacity: 0.3"/>
    <path d="M 217.709833 483.908518 
C 219.928681 483.908518 222.05695 483.02696 223.625913 481.457998 
C 225.194876 479.889035 226.076433 477.760766 226.076433 475.541918 
C 226.076433 473.323069 225.194876 471.194801 223.625913 469.625838 
C 222.05695 468.056875 219.928681 467.175318 217.709833 467.175318 
C 215.490985 467.175318 213.362716 468.056875 211.793753 469.625838 
C 210.224791 471.194801 209.343233 473.323069 209.343233 475.541918 
C 209.343233 477.760766 210.224791 479.889035 211.793753 481.457998 
C 213.362716 483.02696 215.490985 483.908518 217.709833 483.908518 
z
" clip-path="url(#p517fb3281b)" style="fill: #1f77b4; fill-opacity: 0.3; stroke: #1f77b4; stroke-opacity: 0.3"/>
    <path d="M 234.27384 476.735551 
C 235.664577 476.735551 236.99854 476.183006 237.98194 475.199606 
C 238.965339 474.216207 239.517885 472.882244 239.517885 471.491507 
C 239.517885 470.10077 238.965339 468.766807 237.98194 467.783408 
C 236.99854 466.800008 235.664577 466.247463 234.27384 466.247463 
C 232.883104 466.247463 231.549141 466.800008 230.565741 467.783408 
C 229.582342 468.766807 229.029796 470.10077 229.029796 471.491507 
C 229.029796 472.882244 229.582342 474.216207 230.565741 475.199606 
C 231.549141 476.183006 232.883104 476.735551 234.27384 476.735551 
z
" clip-path="url(#p517fb3281b)" style="fill: #1f77b4; fill-opacity: 0.3; stroke: #1f77b4; stroke-opacity: 0.3"/>
    <path d="M 250.837848 473.185945 
C 251.775482 473.185945 252.67484 472.813419 253.337848 472.150411 
C 254.000856 471.487403 254.373382 470.588046 254.373382 469.650411 
C 254.373382 468.712776 254.000856 467.813419 253.337848 467.150411 
C 252.67484 466.487403 251.775482 466.114877 250.837848 466.114877 
C 249.900213 466.114877 249.000856 466.487403 248.337848 467.150411 
C 247.67484 467.813419 247.302314 468.712776 247.302314 469.650411 
C 247.302314 470.588046 247.67484 471.487403 248.337848 472.150411 
C 249.000856 472.813419 249.900213 473.185945 250.837848 473.185945 
z
" clip-path="url(#p517fb3281b)" style="fill: #1f77b4; fill-opacity: 0.3; stroke: #1f77b4; stroke-opacity: 0.3"/>
    <path d="M 267.401855 469.909887 
C 269.130768 469.909887 270.789102 469.222983 272.011628 468.000457 
C 273.234153 466.777931 273.921058 465.119598 273.921058 463.390685 
C 273.921058 461.661772 273.234153 460.003439 272.011628 458.780913 
C 270.789102 457.558387 269.130768 456.871483 267.401855 456.871483 
C 265.672943 456.871483 264.014609 457.558387 262.792083 458.780913 
C 261.569557 460.003439 260.882653 461.661772 260.882653 463.390685 
C 260.882653 465.119598 261.569557 466.777931 262.792083 468.000457 
C 264.014609 469.222983 265.672943 469.909887 267.401855 469.909887 
z
" clip-path="url(#p517fb3281b)" style="fill: #1f77b4; fill-opacity: 0.3; stroke: #1f77b4; stroke-opacity: 0.3"/>
    <path d="M 283.965863 463.823733 
C 285.643154 463.823733 287.251974 463.157338 288.437999 461.971314 
C 289.624023 460.78529 290.290418 459.17647 290.290418 457.499178 
C 290.290418 455.821886 289.624023 454.213066 288.437999 453.027042 
C 287.251974 451.841018 285.643154 451.174623 283.965863 451.174623 
C 282.288571 451.174623 280.679751 451.841018 279.493727 453.027042 
C 278.307702 454.213066 277.641307 455.821886 277.641307 457.499178 
C 277.641307 459.17647 278.307702 460.78529 279.493727 461.971314 
C 280.679751 463.157338 282.288571 463.823733 283.965863 463.823733 
z
" clip-path="url(#p517fb3281b)" style="fill: #1f77b4; fill-opacity: 0.3; stroke: #1f77b4; stroke-opacity: 0.3"/>
    <path d="M 300.52987 452.770411 
C 303.181901 452.770411 305.725669 451.716748 307.600938 449.841479 
C 309.476207 447.96621 310.52987 445.422442 310.52987 442.770411 
C 310.52987 440.11838 309.476207 437.574612 307.600938 435.699343 
C 305.725669 433.824074 303.181901 432.770411 300.52987 432.770411 
C 297.877839 432.770411 295.334071 433.824074 293.458802 435.699343 
C 291.583533 437.574612 290.52987 440.11838 290.52987 442.770411 
C 290.52987 445.422442 291.583533 447.96621 293.458802 449.841479 
C 295.334071 451.716748 297.877839 452.770411 300.52987 452.770411 
z
" clip-path="url(#p517fb3281b)" style="fill: #1f77b4; fill-opacity: 0.3; stroke: #1f77b4; stroke-opacity: 0.3"/>
    <path d="M 317.093878 442.477095 
C 318.969147 442.477095 320.767862 441.732043 322.093878 440.406027 
C 323.419893 439.080012 324.164945 437.281297 324.164945 435.406027 
C 324.164945 433.530758 323.419893 431.732043 322.093878 430.406027 
C 320.767862 429.080012 318.969147 428.33496 317.093878 428.33496 
C 315.218608 428.33496 313.419893 429.080012 312.093878 430.406027 
C 310.767862 431.732043 310.02281 433.530758 310.02281 435.406027 
C 310.02281 437.281297 310.767862 439.080012 312.093878 440.406027 
C 313.419893 441.732043 315.218608 442.477095 317.093878 442.477095 
z
" clip-path="url(#p517fb3281b)" style="fill: #1f77b4; fill-opacity: 0.3; stroke: #1f77b4; stroke-opacity: 0.3"/>
    <path d="M 333.657885 436.723836 
C 334.9839 436.723836 336.255784 436.197004 337.193419 435.25937 
C 338.131053 434.321735 338.657885 433.049851 338.657885 431.723836 
C 338.657885 430.39782 338.131053 429.125936 337.193419 428.188302 
C 336.255784 427.250667 334.9839 426.723836 333.657885 426.723836 
C 332.331869 426.723836 331.059986 427.250667 330.122351 428.188302 
C 329.184717 429.125936 328.657885 430.39782 328.657885 431.723836 
C 328.657885 433.049851 329.184717 434.321735 330.122351 435.25937 
C 331.059986 436.197004 332.331869 436.723836 333.657885 436.723836 
z
" clip-path="url(#p517fb3281b)" style="fill: #1f77b4; fill-opacity: 0.3; stroke: #1f77b4; stroke-opacity: 0.3"/>
    <path d="M 350.221892 433.223465 
C 350.814905 433.223465 351.383708 432.987859 351.803031 432.568536 
C 352.222354 432.149213 352.45796 431.580409 352.45796 430.987397 
C 352.45796 430.394385 352.222354 429.825581 351.803031 429.406258 
C 351.383708 428.986936 350.814905 428.751329 350.221892 428.751329 
C 349.62888 428.751329 349.060076 428.986936 348.640754 429.406258 
C 348.221431 429.825581 347.985824 430.394385 347.985824 430.987397 
C 347.985824 431.580409 348.221431 432.149213 348.640754 432.568536 
C 349.060076 432.987859 349.62888 433.223465 350.221892 433.223465 
z
" clip-path="url(#p517fb3281b)" style="fill: #1f77b4; fill-opacity: 0.3; stroke: #1f77b4; stroke-opacity: 0.3"/>
    <path d="M 366.7859 426.25863 
C 369.437931 426.25863 371.981699 425.204967 373.856968 423.329698 
C 375.732237 421.454429 376.7859 418.910661 376.7859 416.25863 
C 376.7859 413.606599 375.732237 411.062831 373.856968 409.187562 
C 371.981699 407.312293 369.437931 406.25863 366.7859 406.25863 
C 364.133869 406.25863 361.590101 407.312293 359.714832 409.187562 
C 357.839563 411.062831 356.7859 413.606599 356.7859 416.25863 
C 356.7859 418.910661 357.839563 421.454429 359.714832 423.329698 
C 361.590101 425.204967 364.133869 426.25863 366.7859 426.25863 
z
" clip-path="url(#p517fb3281b)" style="fill: #1f77b4; fill-opacity: 0.3; stroke: #1f77b4; stroke-opacity: 0.3"/>
    <path d="M 383.349907 414.958845 
C 385.446522 414.958845 387.457547 414.125851 388.940077 412.643321 
C 390.422608 411.16079 391.255601 409.149765 391.255601 407.053151 
C 391.255601 404.956536 390.422608 402.945511 388.940077 401.462981 
C 387.457547 399.98045 385.446522 399.147457 383.349907 399.147457 
C 381.253293 399.147457 379.242268 399.98045 377.759737 401.462981 
C 376.277207 402.945511 375.444213 404.956536 375.444213 407.053151 
C 375.444213 409.149765 376.277207 411.16079 377.759737 412.643321 
C 379.242268 414.125851 381.253293 414.958845 383.349907 414.958845 
z
" clip-path="url(#p517fb3281b)" style="fill: #1f77b4; fill-opacity: 0.3; stroke: #1f77b4; stroke-opacity: 0.3"/>
    <path d="M 399.913915 407.967178 
C 401.425805 407.967178 402.875976 407.366498 403.945044 406.29743 
C 405.014111 405.228362 405.614792 403.778192 405.614792 402.266301 
C 405.614792 400.754411 405.014111 399.30424 403.945044 398.235172 
C 402.875976 397.166105 401.425805 396.565424 399.913915 396.565424 
C 398.402024 396.565424 396.951854 397.166105 395.882786 398.235172 
C 394.813718 399.30424 394.213038 400.754411 394.213038 402.266301 
C 394.213038 403.778192 394.813718 405.228362 395.882786 406.29743 
C 396.951854 407.366498 398.402024 407.967178 399.913915 407.967178 
z
" clip-path="url(#p517fb3281b)" style="fill: #1f77b4; fill-opacity: 0.3; stroke: #1f77b4; stroke-opacity: 0.3"/>
    <path d="M 416.477922 399.42756 
C 418.849971 399.42756 421.125186 398.485135 422.802477 396.807843 
C 424.479769 395.130551 425.422194 392.855336 425.422194 390.483288 
C 425.422194 388.111239 424.479769 385.836024 422.802477 384.158732 
C 421.125186 382.481441 418.849971 381.539016 416.477922 381.539016 
C 414.105873 381.539016 411.830658 382.481441 410.153367 384.158732 
C 408.476075 385.836024 407.53365 388.111239 407.53365 390.483288 
C 407.53365 392.855336 408.476075 395.130551 410.153367 396.807843 
C 411.830658 398.485135 414.105873 399.42756 416.477922 399.42756 
z
" clip-path="url(#p517fb3281b)" style="fill: #1f77b4; fill-opacity: 0.3; stroke: #1f77b4; stroke-opacity: 0.3"/>
    <path d="M 433.041929 385.018084 
C 435.791614 385.018084 438.429048 383.925623 440.373369 381.981302 
C 442.317689 380.036982 443.41015 377.399547 443.41015 374.649863 
C 443.41015 371.900179 442.317689 369.262744 440.373369 367.318424 
C 438.429048 365.374103 435.791614 364.281642 433.041929 364.281642 
C 430.292245 364.281642 427.654811 365.374103 425.71049 367.318424 
C 423.76617 369.262744 422.673709 371.900179 422.673709 374.649863 
C 422.673709 377.399547 423.76617 380.036982 425.71049 381.981302 
C 427.654811 383.925623 430.292245 385.018084 433.041929 385.018084 
z
" clip-path="url(#p517fb3281b)" style="fill: #1f77b4; fill-opacity: 0.3; stroke: #1f77b4; stroke-opacity: 0.3"/>
    <path d="M 449.605937 376.339264 
C 450.444583 376.339264 451.248993 376.006066 451.842005 375.413054 
C 452.435017 374.820042 452.768215 374.015632 452.768215 373.176986 
C 452.768215 372.33834 452.435017 371.53393 451.842005 370.940918 
C 451.248993 370.347906 450.444583 370.014709 449.605937 370.014709 
C 448.767291 370.014709 447.962881 370.347906 447.369869 370.940918 
C 446.776857 371.53393 446.443659 372.33834 446.443659 373.176986 
C 446.443659 374.015632 446.776857 374.820042 447.369869 375.413054 
C 447.962881 376.006066 448.767291 376.339264 449.605937 376.339264 
z
" clip-path="url(#p517fb3281b)" style="fill: #1f77b4; fill-opacity: 0.3; stroke: #1f77b4; stroke-opacity: 0.3"/>
    <path d="M 466.169944 374.37062 
C 467.560681 374.37062 468.894644 373.818074 469.878044 372.834675 
C 470.861443 371.851275 471.413989 370.517312 471.413989 369.126575 
C 471.413989 367.735839 470.861443 366.401876 469.878044 365.418476 
C 468.894644 364.435077 467.560681 363.882531 466.169944 363.882531 
C 464.779208 363.882531 463.445245 364.435077 462.461845 365.418476 
C 461.478446 366.401876 460.9259 367.735839 460.9259 369.126575 
C 460.9259 370.517312 461.478446 371.851275 462.461845 372.834675 
C 463.445245 373.818074 464.779208 374.37062 466.169944 374.37062 
z
" clip-path="url(#p517fb3281b)" style="fill: #1f77b4; fill-opacity: 0.3; stroke: #1f77b4; stroke-opacity: 0.3"/>
    <path d="M 482.733952 367.400496 
C 484.912818 367.400496 487.002736 366.534823 488.543427 364.994133 
C 490.084118 363.453442 490.94979 361.363523 490.94979 359.184658 
C 490.94979 357.005792 490.084118 354.915873 488.543427 353.375183 
C 487.002736 351.834492 484.912818 350.968819 482.733952 350.968819 
C 480.555086 350.968819 478.465168 351.834492 476.924477 353.375183 
C 475.383786 354.915873 474.518113 357.005792 474.518113 359.184658 
C 474.518113 361.363523 475.383786 363.453442 476.924477 364.994133 
C 478.465168 366.534823 480.555086 367.400496 482.733952 367.400496 
z
" clip-path="url(#p517fb3281b)" style="fill: #1f77b4; fill-opacity: 0.3; stroke: #1f77b4; stroke-opacity: 0.3"/>
    <path d="M 499.297959 359.945669 
C 500.866922 359.945669 502.371835 359.322313 503.481259 358.212889 
C 504.590683 357.103465 505.214039 355.598552 505.214039 354.029589 
C 505.214039 352.460626 504.590683 350.955713 503.481259 349.846289 
C 502.371835 348.736865 500.866922 348.113509 499.297959 348.113509 
C 497.728996 348.113509 496.224083 348.736865 495.114659 349.846289 
C 494.005235 350.955713 493.381879 352.460626 493.381879 354.029589 
C 493.381879 355.598552 494.005235 357.103465 495.114659 358.212889 
C 496.224083 359.322313 497.728996 359.945669 499.297959 359.945669 
z
" clip-path="url(#p517fb3281b)" style="fill: #1f77b4; fill-opacity: 0.3; stroke: #1f77b4; stroke-opacity: 0.3"/>
    <path d="M 515.861967 346.79897 
C 518.827027 346.79897 521.671046 345.620939 523.767661 343.524324 
C 525.864275 341.42771 527.042306 338.583691 527.042306 335.61863 
C 527.042306 332.653569 525.864275 329.809551 523.767661 327.712936 
C 521.671046 325.616321 518.827027 324.43829 515.861967 324.43829 
C 512.896906 324.43829 510.052887 325.616321 507.956272 327.712936 
C 505.859658 329.809551 504.681627 332.653569 504.681627 335.61863 
C 504.681627 338.583691 505.859658 341.42771 507.956272 343.524324 
C 510.052887 345.620939 512.896906 346.79897 515.861967 346.79897 
z
" clip-path="url(#p517fb3281b)" style="fill: #1f77b4; fill-opacity: 0.3; stroke: #1f77b4; stroke-opacity: 0.3"/>
    <path d="M 532.425974 333.892551 
C 534.60484 333.892551 536.694758 333.026878 538.235449 331.486187 
C 539.77614 329.945497 540.641812 327.855578 540.641812 325.676712 
C 540.641812 323.497847 539.77614 321.407928 538.235449 319.867237 
C 536.694758 318.326547 534.60484 317.460874 532.425974 317.460874 
C 530.247108 317.460874 528.15719 318.326547 526.616499 319.867237 
C 525.075808 321.407928 524.210136 323.497847 524.210136 325.676712 
C 524.210136 327.855578 525.075808 329.945497 526.616499 331.486187 
C 528.15719 333.026878 530.247108 333.892551 532.425974 333.892551 
z
" clip-path="url(#p517fb3281b)" style="fill: #1f77b4; fill-opacity: 0.3; stroke: #1f77b4; stroke-opacity: 0.3"/>
    <path d="M 548.989981 323.950633 
C 551.168847 323.950633 553.258766 323.08496 554.799456 321.54427 
C 556.340147 320.003579 557.20582 317.91366 557.20582 315.734795 
C 557.20582 313.555929 556.340147 311.46601 554.799456 309.92532 
C 553.258766 308.384629 551.168847 307.518956 548.989981 307.518956 
C 546.811116 307.518956 544.721197 308.384629 543.180506 309.92532 
C 541.639816 311.46601 540.774143 313.555929 540.774143 315.734795 
C 540.774143 317.91366 541.639816 320.003579 543.180506 321.54427 
C 544.721197 323.08496 546.811116 323.950633 548.989981 323.950633 
z
" clip-path="url(#p517fb3281b)" style="fill: #1f77b4; fill-opacity: 0.3; stroke: #1f77b4; stroke-opacity: 0.3"/>
    <path d="M 565.553989 313.571132 
C 567.812112 313.571132 569.978052 312.67397 571.574786 311.077236 
C 573.17152 309.480502 574.068682 307.314561 574.068682 305.056438 
C 574.068682 302.798315 573.17152 300.632375 571.574786 299.035641 
C 569.978052 297.438907 567.812112 296.541745 565.553989 296.541745 
C 563.295866 296.541745 561.129926 297.438907 559.533192 299.035641 
C 557.936457 300.632375 557.039296 302.798315 557.039296 305.056438 
C 557.039296 307.314561 557.936457 309.480502 559.533192 311.077236 
C 561.129926 312.67397 563.295866 313.571132 565.553989 313.571132 
z
" clip-path="url(#p517fb3281b)" style="fill: #1f77b4; fill-opacity: 0.3; stroke: #1f77b4; stroke-opacity: 0.3"/>
    <path d="M 582.117996 306.745839 
C 582.956642 306.745839 583.761052 306.412642 584.354064 305.81963 
C 584.947076 305.226617 585.280274 304.422207 585.280274 303.583562 
C 585.280274 302.744916 584.947076 301.940506 584.354064 301.347494 
C 583.761052 300.754482 582.956642 300.421284 582.117996 300.421284 
C 581.27935 300.421284 580.47494 300.754482 579.881928 301.347494 
C 579.288916 301.940506 578.955719 302.744916 578.955719 303.583562 
C 578.955719 304.422207 579.288916 305.226617 579.881928 305.81963 
C 580.47494 306.412642 581.27935 306.745839 582.117996 306.745839 
z
" clip-path="url(#p517fb3281b)" style="fill: #1f77b4; fill-opacity: 0.3; stroke: #1f77b4; stroke-opacity: 0.3"/>
    <path d="M 598.682004 305.278 
C 599.619638 305.278 600.518996 304.905474 601.182004 304.242466 
C 601.845011 303.579458 602.217538 302.6801 602.217538 301.742466 
C 602.217538 300.804831 601.845011 299.905474 601.182004 299.242466 
C 600.518996 298.579458 599.619638 298.206932 598.682004 298.206932 
C 597.744369 298.206932 596.845011 298.579458 596.182004 299.242466 
C 595.518996 299.905474 595.14647 300.804831 595.14647 301.742466 
C 595.14647 302.6801 595.518996 303.579458 596.182004 304.242466 
C 596.845011 304.905474 597.744369 305.278 598.682004 305.278 
z
" clip-path="url(#p517fb3281b)" style="fill: #1f77b4; fill-opacity: 0.3; stroke: #1f77b4; stroke-opacity: 0.3"/>
    <path d="M 615.246011 297.736048 
C 617.796653 297.736048 620.24317 296.722667 622.046746 294.919091 
C 623.850322 293.115515 624.863703 290.668998 624.863703 288.118356 
C 624.863703 285.567714 623.850322 283.121197 622.046746 281.317621 
C 620.24317 279.514045 617.796653 278.500664 615.246011 278.500664 
C 612.695369 278.500664 610.248852 279.514045 608.445276 281.317621 
C 606.6417 283.121197 605.628319 285.567714 605.628319 288.118356 
C 605.628319 290.668998 606.6417 293.115515 608.445276 294.919091 
C 610.248852 296.722667 612.695369 297.736048 615.246011 297.736048 
z
" clip-path="url(#p517fb3281b)" style="fill: #1f77b4; fill-opacity: 0.3; stroke: #1f77b4; stroke-opacity: 0.3"/>
    <path d="M 631.810019 280.630768 
C 634.804583 280.630768 637.676901 279.441015 639.794378 277.323538 
C 641.911855 275.206061 643.101608 272.333743 643.101608 269.339178 
C 643.101608 266.344613 641.911855 263.472295 639.794378 261.354818 
C 637.676901 259.237341 634.804583 258.047588 631.810019 258.047588 
C 628.815454 258.047588 625.943136 259.237341 623.825659 261.354818 
C 621.708182 263.472295 620.518429 266.344613 620.518429 269.339178 
C 620.518429 272.333743 621.708182 275.206061 623.825659 277.323538 
C 625.943136 279.441015 628.815454 280.630768 631.810019 280.630768 
z
" clip-path="url(#p517fb3281b)" style="fill: #1f77b4; fill-opacity: 0.3; stroke: #1f77b4; stroke-opacity: 0.3"/>
    <path d="M 648.374026 266.270896 
C 650.782853 266.270896 653.093345 265.313859 654.796642 263.610561 
C 656.49994 261.907264 657.456977 259.596772 657.456977 257.187945 
C 657.456977 254.779118 656.49994 252.468627 654.796642 250.765329 
C 653.093345 249.062031 650.782853 248.104994 648.374026 248.104994 
C 645.965199 248.104994 643.654707 249.062031 641.95141 250.765329 
C 640.248112 252.468627 639.291075 254.779118 639.291075 257.187945 
C 639.291075 259.596772 640.248112 261.907264 641.95141 263.610561 
C 643.654707 265.313859 645.965199 266.270896 648.374026 266.270896 
z
" clip-path="url(#p517fb3281b)" style="fill: #1f77b4; fill-opacity: 0.3; stroke: #1f77b4; stroke-opacity: 0.3"/>
    <path d="M 664.938033 255.461866 
C 667.116899 255.461866 669.206818 254.596193 670.747508 253.055502 
C 672.288199 251.514812 673.153872 249.424893 673.153872 247.246027 
C 673.153872 245.067162 672.288199 242.977243 670.747508 241.436552 
C 669.206818 239.895862 667.116899 239.030189 664.938033 239.030189 
C 662.759168 239.030189 660.669249 239.895862 659.128558 241.436552 
C 657.587868 242.977243 656.722195 245.067162 656.722195 247.246027 
C 656.722195 249.424893 657.587868 251.514812 659.128558 253.055502 
C 660.669249 254.596193 662.759168 255.461866 664.938033 255.461866 
z
" clip-path="url(#p517fb3281b)" style="fill: #1f77b4; fill-opacity: 0.3; stroke: #1f77b4; stroke-opacity: 0.3"/>
    <path d="M 681.502041 248.935428 
C 682.340687 248.935428 683.145097 248.602231 683.738109 248.009219 
C 684.331121 247.416207 684.664318 246.611797 684.664318 245.773151 
C 684.664318 244.934505 684.331121 244.130095 683.738109 243.537083 
C 683.145097 242.944071 682.340687 242.610873 681.502041 242.610873 
C 680.663395 242.610873 679.858985 242.944071 679.265973 243.537083 
C 678.672961 244.130095 678.339763 244.934505 678.339763 245.773151 
C 678.339763 246.611797 678.672961 247.416207 679.265973 248.009219 
C 679.858985 248.602231 680.663395 248.935428 681.502041 248.935428 
z
" clip-path="url(#p517fb3281b)" style="fill: #1f77b4; fill-opacity: 0.3; stroke: #1f77b4; stroke-opacity: 0.3"/>
    <path d="M 698.066048 246.966784 
C 699.456785 246.966784 700.790748 246.414238 701.774147 245.430839 
C 702.757547 244.44744 703.310092 243.113477 703.310092 241.72274 
C 703.310092 240.332003 702.757547 238.99804 701.774147 238.01464 
C 700.790748 237.031241 699.456785 236.478695 698.066048 236.478695 
C 696.675311 236.478695 695.341348 237.031241 694.357949 238.01464 
C 693.37455 238.99804 692.822004 240.332003 692.822004 241.72274 
C 692.822004 243.113477 693.37455 244.44744 694.357949 245.430839 
C 695.341348 246.414238 696.675311 246.966784 698.066048 246.966784 
z
" clip-path="url(#p517fb3281b)" style="fill: #1f77b4; fill-opacity: 0.3; stroke: #1f77b4; stroke-opacity: 0.3"/>
    <path d="M 714.630056 241.038116 
C 716.596854 241.038116 718.483363 240.256699 719.8741 238.865962 
C 721.264837 237.475225 722.046254 235.588717 722.046254 233.621918 
C 722.046254 231.655119 721.264837 229.76861 719.8741 228.377874 
C 718.483363 226.987137 716.596854 226.205719 714.630056 226.205719 
C 712.663257 226.205719 710.776748 226.987137 709.386011 228.377874 
C 707.995275 229.76861 707.213857 231.655119 707.213857 233.621918 
C 707.213857 235.588717 707.995275 237.475225 709.386011 238.865962 
C 710.776748 240.256699 712.663257 241.038116 714.630056 241.038116 
z
" clip-path="url(#p517fb3281b)" style="fill: #1f77b4; fill-opacity: 0.3; stroke: #1f77b4; stroke-opacity: 0.3"/>
    <path d="M 731.194063 232.110477 
C 733.332199 232.110477 735.38305 231.260987 736.89494 229.749096 
C 738.40683 228.237206 739.256321 226.186355 739.256321 224.048219 
C 739.256321 221.910083 738.40683 219.859232 736.89494 218.347342 
C 735.38305 216.835452 733.332199 215.985961 731.194063 215.985961 
C 729.055927 215.985961 727.005076 216.835452 725.493186 218.347342 
C 723.981296 219.859232 723.131805 221.910083 723.131805 224.048219 
C 723.131805 226.186355 723.981296 228.237206 725.493186 229.749096 
C 727.005076 231.260987 729.055927 232.110477 731.194063 232.110477 
z
" clip-path="url(#p517fb3281b)" style="fill: #1f77b4; fill-opacity: 0.3; stroke: #1f77b4; stroke-opacity: 0.3"/>
    <path d="M 747.758071 225.574602 
C 748.944095 225.574602 750.081702 225.103389 750.920348 224.264743 
C 751.758994 223.426098 752.230206 222.28849 752.230206 221.102466 
C 752.230206 219.916441 751.758994 218.778834 750.920348 217.940188 
C 750.081702 217.101542 748.944095 216.63033 747.758071 216.63033 
C 746.572046 216.63033 745.434439 217.101542 744.595793 217.940188 
C 743.757147 218.778834 743.285935 219.916441 743.285935 221.102466 
C 743.285935 222.28849 743.757147 223.426098 744.595793 224.264743 
C 745.434439 225.103389 746.572046 225.574602 747.758071 225.574602 
z
" clip-path="url(#p517fb3281b)" style="fill: #1f77b4; fill-opacity: 0.3; stroke: #1f77b4; stroke-opacity: 0.3"/>
    <path d="M 764.322078 218.716144 
C 766.618804 218.716144 768.821772 217.803645 770.445802 216.179615 
C 772.069833 214.555584 772.982332 212.352617 772.982332 210.05589 
C 772.982332 207.759164 772.069833 205.556197 770.445802 203.932166 
C 768.821772 202.308135 766.618804 201.395636 764.322078 201.395636 
C 762.025352 201.395636 759.822384 202.308135 758.198354 203.932166 
C 756.574323 205.556197 755.661824 207.759164 755.661824 210.05589 
C 755.661824 212.352617 756.574323 214.555584 758.198354 216.179615 
C 759.822384 217.803645 762.025352 218.716144 764.322078 218.716144 
z
" clip-path="url(#p517fb3281b)" style="fill: #1f77b4; fill-opacity: 0.3; stroke: #1f77b4; stroke-opacity: 0.3"/>
    <path d="M 780.886085 210.315367 
C 782.614998 210.315367 784.273332 209.628462 785.495858 208.405937 
C 786.718383 207.183411 787.405288 205.525077 787.405288 203.796164 
C 787.405288 202.067252 786.718383 200.408918 785.495858 199.186392 
C 784.273332 197.963866 782.614998 197.276962 780.886085 197.276962 
C 779.157173 197.276962 777.498839 197.963866 776.276313 199.186392 
C 775.053787 200.408918 774.366883 202.067252 774.366883 203.796164 
C 774.366883 205.525077 775.053787 207.183411 776.276313 208.405937 
C 777.498839 209.628462 779.157173 210.315367 780.886085 210.315367 
z
" clip-path="url(#p517fb3281b)" style="fill: #1f77b4; fill-opacity: 0.3; stroke: #1f77b4; stroke-opacity: 0.3"/>
    <path d="M 797.450093 204.85476 
C 798.90267 204.85476 800.295949 204.277645 801.323076 203.250518 
C 802.350203 202.22339 802.927318 200.830111 802.927318 199.377534 
C 802.927318 197.924957 802.350203 196.531678 801.323076 195.504551 
C 800.295949 194.477424 798.90267 193.900309 797.450093 193.900309 
C 795.997516 193.900309 794.604237 194.477424 793.577109 195.504551 
C 792.549982 196.531678 791.972867 197.924957 791.972867 199.377534 
C 791.972867 200.830111 792.549982 202.22339 793.577109 203.250518 
C 794.604237 204.277645 795.997516 204.85476 797.450093 204.85476 
z
" clip-path="url(#p517fb3281b)" style="fill: #1f77b4; fill-opacity: 0.3; stroke: #1f77b4; stroke-opacity: 0.3"/>
    <path d="M 814.0141 194.648767 
C 816.666131 194.648767 819.209899 193.595104 821.085168 191.719835 
C 822.960437 189.844566 824.0141 187.300798 824.0141 184.648767 
C 824.0141 181.996736 822.960437 179.452968 821.085168 177.577699 
C 819.209899 175.70243 816.666131 174.648767 814.0141 174.648767 
C 811.362069 174.648767 808.818301 175.70243 806.943032 177.577699 
C 805.067763 179.452968 804.0141 181.996736 804.0141 184.648767 
C 804.0141 187.300798 805.067763 189.844566 806.943032 191.719835 
C 808.818301 193.595104 811.362069 194.648767 814.0141 194.648767 
z
" clip-path="url(#p517fb3281b)" style="fill: #1f77b4; fill-opacity: 0.3; stroke: #1f77b4; stroke-opacity: 0.3"/>
    <path d="M 830.578108 185.409778 
C 832.14707 185.409778 833.651984 184.786423 834.761408 183.676999 
C 835.870832 182.567575 836.494187 181.062661 836.494187 179.493699 
C 836.494187 177.924736 835.870832 176.419823 834.761408 175.310398 
C 833.651984 174.200974 832.14707 173.577619 830.578108 173.577619 
C 829.009145 173.577619 827.504232 174.200974 826.394807 175.310398 
C 825.285383 176.419823 824.662028 177.924736 824.662028 179.493699 
C 824.662028 181.062661 825.285383 182.567575 826.394807 183.676999 
C 827.504232 184.786423 829.009145 185.409778 830.578108 185.409778 
z
" clip-path="url(#p517fb3281b)" style="fill: #1f77b4; fill-opacity: 0.3; stroke: #1f77b4; stroke-opacity: 0.3"/>
    <path d="M 847.142115 175.724641 
C 849.658053 175.724641 852.071282 174.725049 853.850319 172.946012 
C 855.629355 171.166976 856.628948 168.753746 856.628948 166.237808 
C 856.628948 163.721871 855.629355 161.308641 853.850319 159.529604 
C 852.071282 157.750568 849.658053 156.750975 847.142115 156.750975 
C 844.626178 156.750975 842.212948 157.750568 840.433911 159.529604 
C 838.654875 161.308641 837.655282 163.721871 837.655282 166.237808 
C 837.655282 168.753746 838.654875 171.166976 840.433911 172.946012 
C 842.212948 174.725049 844.626178 175.724641 847.142115 175.724641 
z
" clip-path="url(#p517fb3281b)" style="fill: #1f77b4; fill-opacity: 0.3; stroke: #1f77b4; stroke-opacity: 0.3"/>
    <path d="M 863.706122 164.938023 
C 865.802737 164.938023 867.813762 164.105029 869.296292 162.622499 
C 870.778823 161.139968 871.611817 159.128943 871.611817 157.032329 
C 871.611817 154.935714 870.778823 152.924689 869.296292 151.442159 
C 867.813762 149.959628 865.802737 149.126635 863.706122 149.126635 
C 861.609508 149.126635 859.598483 149.959628 858.115953 151.442159 
C 856.633422 152.924689 855.800428 154.935714 855.800428 157.032329 
C 855.800428 159.128943 856.633422 161.139968 858.115953 162.622499 
C 859.598483 164.105029 861.609508 164.938023 863.706122 164.938023 
z
" clip-path="url(#p517fb3281b)" style="fill: #1f77b4; fill-opacity: 0.3; stroke: #1f77b4; stroke-opacity: 0.3"/>
    <path d="M 880.27013 158.090924 
C 881.722707 158.090924 883.115986 157.513809 884.143113 156.486682 
C 885.17024 155.459555 885.747355 154.066276 885.747355 152.613699 
C 885.747355 151.161121 885.17024 149.767842 884.143113 148.740715 
C 883.115986 147.713588 881.722707 147.136473 880.27013 147.136473 
C 878.817553 147.136473 877.424274 147.713588 876.397147 148.740715 
C 875.370019 149.767842 874.792904 151.161121 874.792904 152.613699 
C 874.792904 154.066276 875.370019 155.459555 876.397147 156.486682 
C 877.424274 157.513809 878.817553 158.090924 880.27013 158.090924 
z
" clip-path="url(#p517fb3281b)" style="fill: #1f77b4; fill-opacity: 0.3; stroke: #1f77b4; stroke-opacity: 0.3"/>
    <path d="M 896.834137 152.126784 
C 898.755716 152.126784 900.598851 151.363333 901.957613 150.004571 
C 903.316374 148.64581 904.079826 146.802675 904.079826 144.881096 
C 904.079826 142.959517 903.316374 141.116382 901.957613 139.757621 
C 900.598851 138.398859 898.755716 137.635408 896.834137 137.635408 
C 894.912558 137.635408 893.069423 138.398859 891.710662 139.757621 
C 890.3519 141.116382 889.588449 142.959517 889.588449 144.881096 
C 889.588449 146.802675 890.3519 148.64581 891.710662 150.004571 
C 893.069423 151.363333 894.912558 152.126784 896.834137 152.126784 
z
" clip-path="url(#p517fb3281b)" style="fill: #1f77b4; fill-opacity: 0.3; stroke: #1f77b4; stroke-opacity: 0.3"/>
    <path d="M 913.398145 146.198904 
C 914.72416 146.198904 915.996044 145.672073 916.933679 144.734438 
C 917.871313 143.796803 918.398145 142.52492 918.398145 141.198904 
C 918.398145 139.872889 917.871313 138.601005 916.933679 137.66337 
C 915.996044 136.725736 914.72416 136.198904 913.398145 136.198904 
C 912.072129 136.198904 910.800245 136.725736 909.862611 137.66337 
C 908.924976 138.601005 908.398145 139.872889 908.398145 141.198904 
C 908.398145 142.52492 908.924976 143.796803 909.862611 144.734438 
C 910.800245 145.672073 912.072129 146.198904 913.398145 146.198904 
z
" clip-path="url(#p517fb3281b)" style="fill: #1f77b4; fill-opacity: 0.3; stroke: #1f77b4; stroke-opacity: 0.3"/>
    <path d="M 929.962152 137.192487 
C 932.512794 137.192487 934.959311 136.179106 936.762887 134.37553 
C 938.566463 132.571954 939.579844 130.125436 939.579844 127.574795 
C 939.579844 125.024153 938.566463 122.577635 936.762887 120.774059 
C 934.959311 118.970483 932.512794 117.957102 929.962152 117.957102 
C 927.41151 117.957102 924.964993 118.970483 923.161417 120.774059 
C 921.357841 122.577635 920.34446 125.024153 920.34446 127.574795 
C 920.34446 130.125436 921.357841 132.571954 923.161417 134.37553 
C 924.964993 136.179106 927.41151 137.192487 929.962152 137.192487 
z
" clip-path="url(#p517fb3281b)" style="fill: #1f77b4; fill-opacity: 0.3; stroke: #1f77b4; stroke-opacity: 0.3"/>
    <path d="M 946.52616 120.344176 
C 949.49122 120.344176 952.335239 119.166144 954.431854 117.06953 
C 956.528468 114.972915 957.706499 112.128896 957.706499 109.163836 
C 957.706499 106.198775 956.528468 103.354756 954.431854 101.258141 
C 952.335239 99.161527 949.49122 97.983496 946.52616 97.983496 
C 943.561099 97.983496 940.71708 99.161527 938.620465 101.258141 
C 936.523851 103.354756 935.34582 106.198775 935.34582 109.163836 
C 935.34582 112.128896 936.523851 114.972915 938.620465 117.06953 
C 940.71708 119.166144 943.561099 120.344176 946.52616 120.344176 
z
" clip-path="url(#p517fb3281b)" style="fill: #1f77b4; fill-opacity: 0.3; stroke: #1f77b4; stroke-opacity: 0.3"/>
    <path d="M 963.090167 110.59328 
C 964.348136 110.59328 965.554751 110.093483 966.444269 109.203965 
C 967.333787 108.314447 967.833583 107.107832 967.833583 105.849863 
C 967.833583 104.591894 967.333787 103.385279 966.444269 102.495761 
C 965.554751 101.606243 964.348136 101.106447 963.090167 101.106447 
C 961.832198 101.106447 960.625583 101.606243 959.736065 102.495761 
C 958.846547 103.385279 958.34675 104.591894 958.34675 105.849863 
C 958.34675 107.107832 958.846547 108.314447 959.736065 109.203965 
C 960.625583 110.093483 961.832198 110.59328 963.090167 110.59328 
z
" clip-path="url(#p517fb3281b)" style="fill: #1f77b4; fill-opacity: 0.3; stroke: #1f77b4; stroke-opacity: 0.3"/>
    <path d="M 979.654174 105.16524 
C 981.620973 105.16524 983.507482 104.383822 984.898219 102.993085 
C 986.288955 101.602349 987.070373 99.71584 987.070373 97.749041 
C 987.070373 95.782242 986.288955 93.895734 984.898219 92.504997 
C 983.507482 91.11426 981.620973 90.332843 979.654174 90.332843 
C 977.687376 90.332843 975.800867 91.11426 974.41013 92.504997 
C 973.019393 93.895734 972.237976 95.782242 972.237976 97.749041 
C 972.237976 99.71584 973.019393 101.602349 974.41013 102.993085 
C 975.800867 104.383822 977.687376 105.16524 979.654174 105.16524 
z
" clip-path="url(#p517fb3281b)" style="fill: #1f77b4; fill-opacity: 0.3; stroke: #1f77b4; stroke-opacity: 0.3"/>
    <path d="M 996.218182 96.862875 
C 998.229184 96.862875 1000.158091 96.063896 1001.580084 94.641903 
C 1003.002078 93.219909 1003.801057 91.291002 1003.801057 89.28 
C 1003.801057 87.268998 1003.002078 85.340091 1001.580084 83.918097 
C 1000.158091 82.496104 998.229184 81.697125 996.218182 81.697125 
C 994.20718 81.697125 992.278272 82.496104 990.856279 83.918097 
C 989.434286 85.340091 988.635306 87.268998 988.635306 89.28 
C 988.635306 91.291002 989.434286 93.219909 990.856279 94.641903 
C 992.278272 96.063896 994.20718 96.862875 996.218182 96.862875 
z
" clip-path="url(#p517fb3281b)" style="fill: #1f77b4; fill-opacity: 0.3; stroke: #1f77b4; stroke-opacity: 0.3"/>
   </g>
   <g id="matplotlib.axis_1">
    <g id="xtick_1">
     <g id="line2d_1">
      <defs>
       <path id="ma0dab4e9ca" d="M 0 0 
L 0 3.5 
" style="stroke: #000000; stroke-width: 0.8"/>
      </defs>
      <g>
       <use xlink:href="#ma0dab4e9ca" x="184.581818" y="512.64" style="stroke: #000000; stroke-width: 0.8"/>
      </g>
     </g>
     <g id="text_1">
      <!-- 2026-01-01 -->
      <g transform="translate(155.524006 527.238438) scale(0.1 -0.1)">
       <defs>
        <path id="DejaVuSans-32" d="M 1228 531 
L 3431 531 
L 3431 0 
L 469 0 
L 469 531 
Q 828 903 1448 1529 
Q 2069 2156 2228 2338 
Q 2531 2678 2651 2914 
Q 2772 3150 2772 3378 
Q 2772 3750 2511 3984 
Q 2250 4219 1831 4219 
Q 1534 4219 1204 4116 
Q 875 4013 500 3803 
L 500 4441 
Q 881 4594 1212 4672 
Q 1544 4750 1819 4750 
Q 2544 4750 2975 4387 
Q 3406 4025 3406 3419 
Q 3406 3131 3298 2873 
Q 3191 2616 2906 2266 
Q 2828 2175 2409 1742 
Q 1991 1309 1228 531 
z
" transform="scale(0.015625)"/>
        <path id="DejaVuSans-30" d="M 2034 4250 
Q 1547 4250 1301 3770 
Q 1056 3291 1056 2328 
Q 1056 1369 1301 889 
Q 1547 409 2034 409 
Q 2525 409 2770 889 
Q 3016 1369 3016 2328 
Q 3016 3291 2770 3770 
Q 2525 4250 2034 4250 
z
M 2034 4750 
Q 2819 4750 3233 4129 
Q 3647 3509 3647 2328 
Q 3647 1150 3233 529 
Q 2819 -91 2034 -91 
Q 1250 -91 836 529 
Q 422 1150 422 2328 
Q 422 3509 836 4129 
Q 1250 4750 2034 4750 
z
" transform="scale(0.015625)"/>
        <path id="DejaVuSans-36" d="M 2113 2584 
Q 1688 2584 1439 2293 
Q 1191 2003 1191 1497 
Q 1191 994 1439 701 
Q 1688 409 2113 409 
Q 2538 409 2786 701 
Q 3034 994 3034 1497 
Q 3034 2003 2786 2293 
Q 2538 2584 2113 2584 
z
M 3366 4563 
L 3366 3988 
Q 3128 4100 2886 4159 
Q 2644 4219 2406 4219 
Q 1781 4219 1451 3797 
Q 1122 3375 1075 2522 
Q 1259 2794 1537 2939 
Q 1816 3084 2150 3084 
Q 2853 3084 3261 2657 
Q 3669 2231 3669 1497 
Q 3669 778 3244 343 
Q 2819 -91 2113 -91 
Q 1303 -91 875 529 
Q 447 1150 447 2328 
Q 447 3434 972 4092 
Q 1497 4750 2381 4750 
Q 2619 4750 2861 4703 
Q 3103 4656 3366 4563 
z
" transform="scale(0.015625)"/>
        <path id="DejaVuSans-2d" d="M 313 2009 
L 1997 2009 
L 1997 1497 
L 313 1497 
L 313 2009 
z
" transform="scale(0.015625)"/>
        <path id="DejaVuSans-31" d="M 794 531 
L 1825 531 
L 1825 4091 
L 703 3866 
L 703 4441 
L 1819 4666 
L 2450 4666 
L 2450 531 
L 3481 531 
L 3481 0 
L 794 0 
L 794 531 
z
" transform="scale(0.015625)"/>
       </defs>
       <use xlink:href="#DejaVuSans-32"/>
       <use xlink:href="#DejaVuSans-30" x="63.623047"/>
       <use xlink:href="#DejaVuSans-32" x="127.246094"/>
       <use xlink:href="#DejaVuSans-36" x="190.869141"/>
       <use xlink:href="#DejaVuSans-2d" x="254.492188"/>
       <use xlink:href="#DejaVuSans-30" x="290.576172"/>
       <use xlink:href="#DejaVuSans-31" x="354.199219"/>
       <use xlink:href="#DejaVuSans-2d" x="417.822266"/>
       <use xlink:href="#DejaVuSans-30" x="453.90625"/>
       <use xlink:href="#DejaVuSans-31" x="517.529297"/>
      </g>
     </g>
    </g>
    <g id="xtick_2">
     <g id="line2d_2">
      <g>
       <use xlink:href="#ma0dab4e9ca" x="300.52987" y="512.64" style="stroke: #000000; stroke-width: 0.8"/>
      </g>
     </g>
     <g id="text_2">
      <!-- 2026-01-08 -->
      <g transform="translate(271.472058 527.238438) scale(0.1 -0.1)">
       <defs>
        <path id="DejaVuSans-38" d="M 2034 2216 
Q 1584 2216 1326 1975 
Q 1069 1734 1069 1313 
Q 1069 891 1326 650 
Q 1584 409 2034 409 
Q 2484 409 2743 651 
Q 3003 894 3003 1313 
Q 3003 1734 2745 1975 
Q 2488 2216 2034 2216 
z
M 1403 2484 
Q 997 2584 770 2862 
Q 544 3141 544 3541 
Q 544 4100 942 4425 
Q 1341 4750 2034 4750 
Q 2731 4750 3128 4425 
Q 3525 4100 3525 3541 
Q 3525 3141 3298 2862 
Q 3072 2584 2669 2484 
Q 3125 2378 3379 2068 
Q 3634 1759 3634 1313 
Q 3634 634 3220 271 
Q 2806 -91 2034 -91 
Q 1263 -91 848 271 
Q 434 634 434 1313 
Q 434 1759 690 2068 
Q 947 2378 1403 2484 
z
M 1172 3481 
Q 1172 3119 1398 2916 
Q 1625 2713 2034 2713 
Q 2441 2713 2670 2916 
Q 2900 3119 2900 3481 
Q 2900 3844 2670 4047 
Q 2441 4250 2034 4250 
Q 1625 4250 1398 4047 
Q 1172 3844 1172 3481 
z
" transform="scale(0.015625)"/>
       </defs>
       <use xlink:href="#DejaVuSans-32"/>
       <use xlink:href="#DejaVuSans-30" x="63.623047"/>
       <use xlink:href="#DejaVuSans-32" x="127.246094"/>
       <use xlink:href="#DejaVuSans-36" x="190.869141"/>
       <use xlink:href="#DejaVuSans-2d" x="254.492188"/>
       <use xlink:href="#DejaVuSans-30" x="290.576172"/>
       <use xlink:href="#DejaVuSans-31" x="354.199219"/>
       <use xlink:href="#DejaVuSans-2d" x="417.822266"/>
       <use xlink:href="#DejaVuSans-30" x="453.90625"/>
       <use xlink:href="#DejaVuSans-38" x="517.529297"/>
      </g>
     </g>
    </g>
    <g id="xtick_3">
     <g id="line2d_3">
      <g>
       <use xlink:href="#ma0dab4e9ca" x="416.477922" y="512.64" style="stroke: #000000; stroke-width: 0.8"/>
      </g>
     </g>
     <g id="text_3">
      <!-- 2026-01-15 -->
      <g transform="translate(387.42011 527.238438) scale(0.1 -0.1)">
       <defs>
        <path id="DejaVuSans-35" d="M 691 4666 
L 3169 4666 
L 3169 4134 
L 1269 4134 
L 1269 2991 
Q 1406 3038 1543 3061 
Q 1681 3084 1819 3084 
Q 2600 3084 3056 2656 
Q 3513 2228 3513 1497 
Q 3513 744 3044 326 
Q 2575 -91 1722 -91 
Q 1428 -91 1123 -41 
Q 819 9 494 109 
L 494 744 
Q 775 591 1075 516 
Q 1375 441 1709 441 
Q 2250 441 2565 725 
Q 2881 1009 2881 1497 
Q 2881 1984 2565 2268 
Q 2250 2553 1709 2553 
Q 1456 2553 1204 2497 
Q 953 2441 691 2322 
L 691 4666 
z
" transform="scale(0.015625)"/>
       </defs>
       <use xlink:href="#DejaVuSans-32"/>
       <use xlink:href="#DejaVuSans-30" x="63.623047"/>
       <use xlink:href="#DejaVuSans-32" x="127.246094"/>
       <use xlink:href="#DejaVuSans-36" x="190.869141"/>
       <use xlink:href="#DejaVuSans-2d" x="254.492188"/>
       <use xlink:href="#DejaVuSans-30" x="290.576172"/>
       <use xlink:href="#DejaVuSans-31" x="354.199219"/>
       <use xlink:href="#DejaVuSans-2d" x="417.822266"/>
       <use xlink:href="#DejaVuSans-31" x="453.90625"/>
       <use xlink:href="#DejaVuSans-35" x="517.529297"/>
      </g>
     </g>
    </g>
    <g id="xtick_4">
     <g id="line2d_4">
      <g>
       <use xlink:href="#ma0dab4e9ca" x="532.425974" y="512.64" style="stroke: #000000; stroke-width: 0.8"/>
      </g>
     </g>
     <g id="text_4">
      <!-- 2026-01-22 -->
      <g transform="translate(503.368162 527.238438) scale(0.1 -0.1)">
       <use xlink:href="#DejaVuSans-32"/>
       <use xlink:href="#DejaVuSans-30" x="63.623047"/>
       <use xlink:href="#DejaVuSans-32" x="127.246094"/>
       <use xlink:href="#DejaVuSans-36" x="190.869141"/>
       <use xlink:href="#DejaVuSans-2d" x="254.492188"/>
       <use xlink:href="#DejaVuSans-30" x="290.576172"/>
       <use xlink:href="#DejaVuSans-31" x="354.199219"/>
       <use xlink:href="#DejaVuSans-2d" x="417.822266"/>
       <use xlink:href="#DejaVuSans-32" x="453.90625"/>
       <use xlink:href="#DejaVuSans-32" x="517.529297"/>
      </g>
     </g>
    </g>
    <g id="xtick_5">
     <g id="line2d_5">
      <g>
       <use xlink:href="#ma0dab4e9ca" x="698.066048" y="512.64" style="stroke: #000000; stroke-width: 0.8"/>
      </g>
     </g>
     <g id="text_5">
      <!-- 2026-02-01 -->
      <g transform="translate(669.008236 527.238438) scale(0.1 -0.1)">
       <use xlink:href="#DejaVuSans-32"/>
       <use xlink:href="#DejaVuSans-30" x="63.623047"/>
       <use xlink:href="#DejaVuSans-32" x="127.246094"/>
       <use xlink:href="#DejaVuSans-36" x="190.869141"/>
       <use xlink:href="#DejaVuSans-2d" x="254.492188"/>
       <use xlink:href="#DejaVuSans-30" x="290.576172"/>
       <use xlink:href="#DejaVuSans-32" x="354.199219"/>
       <use xlink:href="#DejaVuSans-2d" x="417.822266"/>
       <use xlink:href="#DejaVuSans-30" x="453.90625"/>
       <use xlink:href="#DejaVuSans-31" x="517.529297"/>
      </g>
     </g>
    </g>
    <g id="xtick_6">
     <g id="line2d_6">
      <g>
       <use xlink:href="#ma0dab4e9ca" x="814.0141" y="512.64" style="stroke: #000000; stroke-width: 0.8"/>
      </g>
     </g>
     <g id="text_6">
      <!-- 2026-02-08 -->
      <g transform="translate(784.956288 527.238438) scale(0.1 -0.1)">
       <use xlink:href="#DejaVuSans-32"/>
       <use xlink:href="#DejaVuSans-30" x="63.623047"/>
       <use xlink:href="#DejaVuSans-32" x="127.246094"/>
       <use xlink:href="#DejaVuSans-36" x="190.869141"/>
       <use xlink:href="#DejaVuSans-2d" x="254.492188"/>
       <use xlink:href="#DejaVuSans-30" x="290.576172"/>
       <use xlink:href="#DejaVuSans-32" x="354.199219"/>
       <use xlink:href="#DejaVuSans-2d" x="417.822266"/>
       <use xlink:href="#DejaVuSans-30" x="453.90625"/>
       <use xlink:href="#DejaVuSans-38" x="517.529297"/>
      </g>
     </g>
    </g>
    <g id="xtick_7">
     <g id="line2d_7">
      <g>
       <use xlink:href="#ma0dab4e9ca" x="929.962152" y="512.64" style="stroke: #000000; stroke-width: 0.8"/>
      </g>
     </g>
     <g id="text_7">
      <!-- 2026-02-15 -->
      <g transform="translate(900.90434 527.238438) scale(0.1 -0.1)">
       <use xlink:href="#DejaVuSans-32"/>
       <use xlink:href="#DejaVuSans-30" x="63.623047"/>
       <use xlink:href="#DejaVuSans-32" x="127.246094"/>
       <use xlink:href="#DejaVuSans-36" x="190.869141"/>
       <use xlink:href="#DejaVuSans-2d" x="254.492188"/>
       <use xlink:href="#DejaVuSans-30" x="290.576172"/>
       <use xlink:href="#DejaVuSans-32" x="354.199219"/>
       <use xlink:href="#DejaVuSans-2d" x="417.822266"/>
       <use xlink:href="#DejaVuSans-31" x="453.90625"/>
       <use xlink:href="#DejaVuSans-35" x="517.529297"/>
      </g>
     </g>
    </g>
   </g>
   <g id="matplotlib.axis_2">
    <g id="ytick_1">
     <g id="line2d_8">
      <defs>
       <path id="m23237e184a" d="M 0 0 
L -3.5 0 
" style="stroke: #000000; stroke-width: 0.8"/>
      </defs>
      <g>
       <use xlink:href="#m23237e184a" x="144" y="476.646575" style="stroke: #000000; stroke-width: 0.8"/>
      </g>
     </g>
     <g id="text_8">
      <!-- 13200 -->
      <g transform="translate(105.1875 480.445794) scale(0.1 -0.1)">
       <defs>
        <path id="DejaVuSans-33" d="M 2597 2516 
Q 3050 2419 3304 2112 
Q 3559 1806 3559 1356 
Q 3559 666 3084 287 
Q 2609 -91 1734 -91 
Q 1441 -91 1130 -33 
Q 819 25 488 141 
L 488 750 
Q 750 597 1062 519 
Q 1375 441 1716 441 
Q 2309 441 2620 675 
Q 2931 909 2931 1356 
Q 2931 1769 2642 2001 
Q 2353 2234 1838 2234 
L 1294 2234 
L 1294 2753 
L 1863 2753 
Q 2328 2753 2575 2939 
Q 2822 3125 2822 3475 
Q 2822 3834 2567 4026 
Q 2313 4219 1838 4219 
Q 1578 4219 1281 4162 
Q 984 4106 628 3988 
L 628 4550 
Q 988 4650 1302 4700 
Q 1616 4750 1894 4750 
Q 2613 4750 3031 4423 
Q 3450 4097 3450 3541 
Q 3450 3153 3228 2886 
Q 3006 2619 2597 2516 
z
" transform="scale(0.015625)"/>
       </defs>
       <use xlink:href="#DejaVuSans-31"/>
       <use xlink:href="#DejaVuSans-33" x="63.623047"/>
       <use xlink:href="#DejaVuSans-32" x="127.246094"/>
       <use xlink:href="#DejaVuSans-30" x="190.869141"/>
       <use xlink:href="#DejaVuSans-30" x="254.492188"/>
      </g>
     </g>
    </g>
    <g id="ytick_2">
     <g id="line2d_9">
      <g>
       <use xlink:href="#m23237e184a" x="144" y="403.00274" style="stroke: #000000; stroke-width: 0.8"/>
      </g>
     </g>
     <g id="text_9">
      <!-- 13400 -->
      <g transform="translate(105.1875 406.801958) scale(0.1 -0.1)">
       <defs>
        <path id="DejaVuSans-34" d="M 2419 4116 
L 825 1625 
L 2419 1625 
L 2419 4116 
z
M 2253 4666 
L 3047 4666 
L 3047 1625 
L 3713 1625 
L 3713 1100 
L 3047 1100 
L 3047 0 
L 2419 0 
L 2419 1100 
L 313 1100 
L 313 1709 
L 2253 4666 
z
" transform="scale(0.015625)"/>
       </defs>
       <use xlink:href="#DejaVuSans-31"/>
       <use xlink:href="#DejaVuSans-33" x="63.623047"/>
       <use xlink:href="#DejaVuSans-34" x="127.246094"/>
       <use xlink:href="#DejaVuSans-30" x="190.869141"/>
       <use xlink:href="#DejaVuSans-30" x="254.492188"/>
      </g>
     </g>
    </g>
    <g id="ytick_3">
     <g id="line2d_10">
      <g>
       <use xlink:href="#m23237e184a" x="144" y="329.358904" style="stroke: #000000; stroke-width: 0.8"/>
      </g>
     </g>
     <g id="text_10">
      <!-- 13600 -->
      <g transform="translate(105.1875 333.158123) scale(0.1 -0.1)">
       <use xlink:href="#DejaVuSans-31"/>
       <use xlink:href="#DejaVuSans-33" x="63.623047"/>
       <use xlink:href="#DejaVuSans-36" x="127.246094"/>
       <use xlink:href="#DejaVuSans-30" x="190.869141"/>
       <use xlink:href="#DejaVuSans-30" x="254.492188"/>
      </g>
     </g>
    </g>
    <g id="ytick_4">
     <g id="line2d_11">
      <g>
       <use xlink:href="#m23237e184a" x="144" y="255.715068" style="stroke: #000000; stroke-width: 0.8"/>
      </g>
     </g>
     <g id="text_11">
      <!-- 13800 -->
      <g transform="translate(105.1875 259.514287) scale(0.1 -0.1)">
       <use xlink:href="#DejaVuSans-31"/>
       <use xlink:href="#DejaVuSans-33" x="63.623047"/>
       <use xlink:href="#DejaVuSans-38" x="127.246094"/>
       <use xlink:href="#DejaVuSans-30" x="190.869141"/>
       <use xlink:href="#DejaVuSans-30" x="254.492188"/>
      </g>
     </g>
    </g>
    <g id="ytick_5">
     <g id="line2d_12">
      <g>
       <use xlink:href="#m23237e184a" x="144" y="182.071233" style="stroke: #000000; stroke-width: 0.8"/>
      </g>
     </g>
     <g id="text_12">
      <!-- 14000 -->
      <g transform="translate(105.1875 185.870452) scale(0.1 -0.1)">
       <use xlink:href="#DejaVuSans-31"/>
       <use xlink:href="#DejaVuSans-34" x="63.623047"/>
       <use xlink:href="#DejaVuSans-30" x="127.246094"/>
       <use xlink:href="#DejaVuSans-30" x="190.869141"/>
       <use xlink:href="#DejaVuSans-30" x="254.492188"/>
      </g>
     </g>
    </g>
    <g id="ytick_6">
     <g id="line2d_13">
      <g>
       <use xlink:href="#m23237e184a" x="144" y="108.427397" style="stroke: #000000; stroke-width: 0.8"/>
      </g>
     </g>
     <g id="text_13">
      <!-- 14200 -->
      <g transform="translate(105.1875 112.226616) scale(0.1 -0.1)">
       <use xlink:href="#DejaVuSans-31"/>
       <use xlink:href="#DejaVuSans-34" x="63.623047"/>
       <use xlink:href="#DejaVuSans-32" x="127.246094"/>
       <use xlink:href="#DejaVuSans-30" x="190.869141"/>
       <use xlink:href="#DejaVuSans-30" x="254.492188"/>
      </g>
     </g>
    </g>
   </g>
   <g id="line2d_14">
    <path d="M 184.581818 492.48 
L 201.145826 485.852055 
L 217.709833 475.541918 
L 234.27384 471.491507 
L 250.837848 469.650411 
L 267.401855 463.390685 
L 283.965863 457.499178 
L 300.52987 442.770411 
L 317.093878 435.406027 
L 333.657885 431.723836 
L 350.221892 430.987397 
L 366.7859 416.25863 
L 383.349907 407.053151 
L 399.913915 402.266301 
L 416.477922 390.483288 
L 433.041929 374.649863 
L 449.605937 373.176986 
L 466.169944 369.126575 
L 482.733952 359.184658 
L 499.297959 354.029589 
L 515.861967 335.61863 
L 532.425974 325.676712 
L 548.989981 315.734795 
L 565.553989 305.056438 
L 582.117996 303.583562 
L 598.682004 301.742466 
L 615.246011 288.118356 
L 631.810019 269.339178 
L 648.374026 257.187945 
L 664.938033 247.246027 
L 681.502041 245.773151 
L 698.066048 241.72274 
L 714.630056 233.621918 
L 731.194063 224.048219 
L 747.758071 221.102466 
L 764.322078 210.05589 
L 780.886085 203.796164 
L 797.450093 199.377534 
L 814.0141 184.648767 
L 830.578108 179.493699 
L 847.142115 166.237808 
L 863.706122 157.032329 
L 880.27013 152.613699 
L 896.834137 144.881096 
L 913.398145 141.198904 
L 929.962152 127.574795 
L 946.52616 109.163836 
L 963.090167 105.849863 
L 979.654174 97.749041 
L 996.218182 89.28 
" clip-path="url(#p517fb3281b)" style="fill: none; stroke: #1f77b4; stroke-width: 1.5; stroke-linecap: square"/>
   </g>
   <g id="patch_3">
    <path d="M 144 512.64 
L 144 69.12 
" style="fill: none; stroke: #000000; stroke-width: 0.8; stroke-linejoin: miter; stroke-linecap: square"/>
   </g>
   <g id="patch_4">
    <path d="M 1036.8 512.64 
L 1036.8 69.12 
" style="fill: none; stroke: #000000; stroke-width: 0.8; stroke-linejoin: miter; stroke-linecap: square"/>
   </g>
   <g id="patch_5">
    <path d="M 144 512.64 
L 1036.8 512.64 
" style="fill: none; stroke: #000000; stroke-width: 0.8; stroke-linejoin: miter; stroke-linecap: square"/>
   </g>
   <g id="patch_6">
    <path d="M 144 69.12 
L 1036.8 69.12 
" style="fill: none; stroke: #000000; stroke-width: 0.8; stroke-linejoin: miter; stroke-linecap: square"/>
   </g>
   <g id="text_14">
    <!-- Number of AEDs in the OpenStreetMap database in Poland from 2026-01-01, day by day. As at: 2026-02-19 -->
    <g transform="translate(144 63.12) scale(0.14 -0.14)">
     <defs>
      <path id="DejaVuSans-4e" d="M 628 4666 
L 1478 4666 
L 3547 763 
L 3547 4666 
L 4159 4666 
L 4159 0 
L 3309 0 
L 1241 3903 
L 1241 0 
L 628 0 
L 628 4666 
z
" transform="scale(0.015625)"/>
      <path id="DejaVuSans-75" d="M 544 1381 
L 544 3500 
L 1119 3500 
L 1119 1403 
Q 1119 906 1312 657 
Q 1506 409 1894 409 
Q 2359 409 2629 706 
Q 2900 1003 2900 1516 
L 2900 3500 
L 3475 3500 
L 3475 0 
L 2900 0 
L 2900 538 
Q 2691 219 2414 64 
Q 2138 -91 1772 -91 
Q 1169 -91 856 284 
Q 544 659 544 1381 
z
M 1991 3584 
L 1991 3584 
z
" transform="scale(0.015625)"/>
      <path id="DejaVuSans-6d" d="M 3328 2828 
Q 3544 3216 3844 3400 
Q 4144 3584 4550 3584 
Q 5097 3584 5394 3201 
Q 5691 2819 5691 2113 
L 5691 0 
L 5113 0 
L 5113 2094 
Q 5113 2597 4934 2840 
Q 4756 3084 4391 3084 
Q 3944 3084 3684 2787 
Q 3425 2491 3425 1978 
L 3425 0 
L 2847 0 
L 2847 2094 
Q 2847 2600 2669 2842 
Q 2491 3084 2119 3084 
Q 1678 3084 1418 2786 
Q 1159 2488 1159 1978 
L 1159 0 
L 581 0 
L 581 3500 
L 1159 3500 
L 1159 2956 
Q 1356 3278 1631 3431 
Q 1906 3584 2284 3584 
Q 2666 3584 2933 3390 
Q 3200 3197 3328 2828 
z
" transform="scale(0.015625)"/>
      <path id="DejaVuSans-62" d="M 3116 1747 
Q 3116 2381 2855 2742 
Q 2594 3103 2138 3103 
Q 1681 3103 1420 2742 
Q 1159 2381 1159 1747 
Q 1159 1113 1420 752 
Q 1681 391 2138 391 
Q 2594 391 2855 752 
Q 3116 1113 3116 1747 
z
M 1159 2969 
Q 1341 3281 1617 3432 
Q 1894 3584 2278 3584 
Q 2916 3584 3314 3078 
Q 3713 2572 3713 1747 
Q 3713 922 3314 415 
Q 2916 -91 2278 -91 
Q 1894 -91 1617 61 
Q 1341 213 1159 525 
L 1159 0 
L 581 0 
L 581 4863 
L 1159 4863 
L 1159 2969 
z
" transform="scale(0.015625)"/>
      <path id="DejaVuSans-65" d="M 3597 1894 
L 3597 1613 
L 953 1613 
Q 991 1019 1311 708 
Q 1631 397 2203 397 
Q 2534 397 2845 478 
Q 3156 559 3463 722 
L 3463 178 
Q 3153 47 2828 -22 
Q 2503 -91 2169 -91 
Q 1331 -91 842 396 
Q 353 884 353 1716 
Q 353 2575 817 3079 
Q 1281 3584 2069 3584 
Q 2775 3584 3186 3129 
Q 3597 2675 3597 1894 
z
M 3022 2063 
Q 3016 2534 2758 2815 
Q 2500 3097 2075 3097 
Q 1594 3097 1305 2825 
Q 1016 2553 972 2059 
L 3022 2063 
z
" transform="scale(0.015625)"/>
      <path id="DejaVuSans-72" d="M 2631 2963 
Q 2534 3019 2420 3045 
Q 2306 3072 2169 3072 
Q 1681 3072 1420 2755 
Q 1159 2438 1159 1844 
L 1159 0 
L 581 0 
L 581 3500 
L 1159 3500 
L 1159 2956 
Q 1341 3275 1631 3429 
Q 1922 3584 2338 3584 
Q 2397 3584 2469 3576 
Q 2541 3569 2628 3553 
L 2631 2963 
z
" transform="scale(0.015625)"/>
      <path id="DejaVuSans-20" transform="scale(0.015625)"/>
      <path id="DejaVuSans-6f" d="M 1959 3097 
Q 1497 3097 1228 2736 
Q 959 2375 959 1747 
Q 959 1119 1226 758 
Q 1494 397 1959 397 
Q 2419 397 2687 759 
Q 2956 1122 2956 1747 
Q 2956 2369 2687 2733 
Q 2419 3097 1959 3097 
z
M 1959 3584 
Q 2709 3584 3137 3096 
Q 3566 2609 3566 1747 
Q 3566 888 3137 398 
Q 2709 -91 1959 -91 
Q 1206 -91 779 398 
Q 353 888 353 1747 
Q 353 2609 779 3096 
Q 1206 3584 1959 3584 
z
" transform="scale(0.015625)"/>
      <path id="DejaVuSans-66" d="M 2375 4863 
L 2375 4384 
L 1825 4384 
Q 1516 4384 1395 4259 
Q 1275 4134 1275 3809 
L 1275 3500 
L 2222 3500 
L 2222 3053 
L 1275 3053 
L 1275 0 
L 697 0 
L 697 3053 
L 147 3053 
L 147 3500 
L 697 3500 
L 697 3744 
Q 697 4328 969 4595 
Q 1241 4863 1831 4863 
L 2375 4863 
z
" transform="scale(0.015625)"/>
      <path id="DejaVuSans-41" d="M 2188 4044 
L 1331 1722 
L 3047 1722 
L 2188 4044 
z
M 1831 4666 
L 2547 4666 
L 4325 0 
L 3669 0 
L 3244 1197 
L 1141 1197 
L 716 0 
L 50 0 
L 1831 4666 
z
" transform="scale(0.015625)"/>
      <path id="DejaVuSans-45" d="M 628 4666 
L 3578 4666 
L 3578 4134 
L 1259 4134 
L 1259 2753 
L 3481 2753 
L 3481 2222 
L 1259 2222 
L 1259 531 
L 3634 531 
L 3634 0 
L 628 0 
L 628 4666 
z
" transform="scale(0.015625)"/>
      <path id="DejaVuSans-44" d="M 1259 4147 
L 1259 519 
L 2022 519 
Q 2988 519 3436 956 
Q 3884 1394 3884 2338 
Q 3884 3275 3436 3711 
Q 2988 4147 2022 4147 
L 1259 4147 
z
M 628 4666 
L 1925 4666 
Q 3281 4666 3915 4102 
Q 4550 3538 4550 2338 
Q 4550 1131 3912 565 
Q 3275 0 1925 0 
L 628 0 
L 628 4666 
z
" transform="scale(0.015625)"/>
      <path id="DejaVuSans-73" d="M 2834 3397 
L 2834 2853 
Q 2591 2978 2328 3040 
Q 2066 3103 1784 3103 
Q 1356 3103 1142 2972 
Q 928 2841 928 2578 
Q 928 2378 1081 2264 
Q 1234 2150 1697 2047 
L 1894 2003 
Q 2506 1872 2764 1633 
Q 3022 1394 3022 966 
Q 3022 478 2636 193 
Q 2250 -91 1575 -91 
Q 1294 -91 989 -36 
Q 684 19 347 128 
L 347 722 
Q 666 556 975 473 
Q 1284 391 1588 391 
Q 1994 391 2212 530 
Q 2431 669 2431 922 
Q 2431 1156 2273 1281 
Q 2116 1406 1581 1522 
L 1381 1569 
Q 847 1681 609 1914 
Q 372 2147 372 2553 
Q 372 3047 722 3315 
Q 1072 3584 1716 3584 
Q 2034 3584 2315 3537 
Q 2597 3491 2834 3397 
z
" transform="scale(0.015625)"/>
      <path id="DejaVuSans-69" d="M 603 3500 
L 1178 3500 
L 1178 0 
L 603 0 
L 603 3500 
z
M 603 4863 
L 1178 4863 
L 1178 4134 
L 603 4134 
L 603 4863 
z
" transform="scale(0.015625)"/>
      <path id="DejaVuSans-6e" d="M 3513 2113 
L 3513 0 
L 2938 0 
L 2938 2094 
Q 2938 2591 2744 2837 
Q 2550 3084 2163 3084 
Q 1697 3084 1428 2787 
Q 1159 2491 1159 1978 
L 1159 0 
L 581 0 
L 581 3500 
L 1159 3500 
L 1159 2956 
Q 1366 3272 1645 3428 
Q 1925 3584 2291 3584 
Q 2894 3584 3203 3211 
Q 3513 2838 3513 2113 
z
" transform="scale(0.015625)"/>
      <path id="DejaVuSans-74" d="M 1172 4494 
L 1172 3500 
L 2356 3500 
L 2356 3053 
L 1172 3053 
L 1172 1153 
Q 1172 725 1289 603 
Q 1406 481 1766 481 
L 2356 481 
L 2356 0 
L 1766 0 
Q 1100 0 847 248 
Q 594 497 594 1153 
L 594 3053 
L 172 3053 
L 172 3500 
L 594 3500 
L 594 4494 
L 1172 4494 
z
" transform="scale(0.015625)"/>
      <path id="DejaVuSans-68" d="M 3513 2113 
L 3513 0 
L 2938 0 
L 2938 2094 
Q 2938 2591 2744 2837 
Q 2550 3084 2163 3084 
Q 1697 3084 1428 2787 
Q 1159 2491 1159 1978 
L 1159 0 
L 581 0 
L 581 4863 
L 1159 4863 
L 1159 2956 
Q 1366 3272 1645 3428 
Q 1925 3584 2291 3584 
Q 2894 3584 3203 3211 
Q 3513 2838 3513 2113 
z
" transform="scale(0.015625)"/>
      <path id="DejaVuSans-4f" d="M 2522 4238 
Q 1834 4238 1429 3725 
Q 1025 3213 1025 2328 
Q 1025 1447 1429 934 
Q 1834 422 2522 422 
Q 3209 422 3611 934 
Q 4013 1447 4013 2328 
Q 4013 3213 3611 3725 
Q 3209 4238 2522 4238 
z
M 2522 4750 
Q 3503 4750 4090 4092 
Q 4678 3434 4678 2328 
Q 4678 1225 4090 567 
Q 3503 -91 2522 -91 
Q 1538 -91 948 565 
Q 359 1222 359 2328 
Q 359 3434 948 4092 
Q 1538 4750 2522 4750 
z
" transform="scale(0.015625)"/>
      <path id="DejaVuSans-70" d="M 1159 525 
L 1159 -1331 
L 581 -1331 
L 581 3500 
L 1159 3500 
L 1159 2969 
Q 1341 3281 1617 3432 
Q 1894 3584 2278 3584 
Q 2916 3584 3314 3078 
Q 3713 2572 3713 1747 
Q 3713 922 3314 415 
Q 2916 -91 2278 -91 
Q 1894 -91 1617 61 
Q 1341 213 1159 525 
z
M 3116 1747 
Q 3116 2381 2855 2742 
Q 2594 3103 2138 3103 
Q 1681 3103 1420 2742 
Q 1159 2381 1159 1747 
Q 1159 1113 1420 752 
Q 1681 391 2138 391 
Q 2594 391 2855 752 
Q 3116 1113 3116 1747 
z
" transform="scale(0.015625)"/>
      <path id="DejaVuSans-53" d="M 3425 4513 
L 3425 3897 
Q 3066 4069 2747 4153 
Q 2428 4238 2131 4238 
Q 1616 4238 1336 4038 
Q 1056 3838 1056 3469 
Q 1056 3159 1242 3001 
Q 1428 2844 1947 2747 
L 2328 2669 
Q 3034 2534 3370 2195 
Q 3706 1856 3706 1288 
Q 3706 609 3251 259 
Q 2797 -91 1919 -91 
Q 1588 -91 1214 -16 
Q 841 59 441 206 
L 441 856 
Q 825 641 1194 531 
Q 1563 422 1919 422 
Q 2459 422 2753 634 
Q 3047 847 3047 1241 
Q 3047 1584 2836 1778 
Q 2625 1972 2144 2069 
L 1759 2144 
Q 1053 2284 737 2584 
Q 422 2884 422 3419 
Q 422 4038 858 4394 
Q 1294 4750 2059 4750 
Q 2388 4750 2728 4690 
Q 3069 4631 3425 4513 
z
" transform="scale(0.015625)"/>
      <path id="DejaVuSans-4d" d="M 628 4666 
L 1569 4666 
L 2759 1491 
L 3956 4666 
L 4897 4666 
L 4897 0 
L 4281 0 
L 4281 4097 
L 3078 897 
L 2444 897 
L 1241 4097 
L 1241 0 
L 628 0 
L 628 4666 
z
" transform="scale(0.015625)"/>
      <path id="DejaVuSans-61" d="M 2194 1759 
Q 1497 1759 1228 1600 
Q 959 1441 959 1056 
Q 959 750 1161 570 
Q 1363 391 1709 391 
Q 2188 391 2477 730 
Q 2766 1069 2766 1631 
L 2766 1759 
L 2194 1759 
z
M 3341 1997 
L 3341 0 
L 2766 0 
L 2766 531 
Q 2569 213 2275 61 
Q 1981 -91 1556 -91 
Q 1019 -91 701 211 
Q 384 513 384 1019 
Q 384 1609 779 1909 
Q 1175 2209 1959 2209 
L 2766 2209 
L 2766 2266 
Q 2766 2663 2505 2880 
Q 2244 3097 1772 3097 
Q 1472 3097 1187 3025 
Q 903 2953 641 2809 
L 641 3341 
Q 956 3463 1253 3523 
Q 1550 3584 1831 3584 
Q 2591 3584 2966 3190 
Q 3341 2797 3341 1997 
z
" transform="scale(0.015625)"/>
      <path id="DejaVuSans-64" d="M 2906 2969 
L 2906 4863 
L 3481 4863 
L 3481 0 
L 2906 0 
L 2906 525 
Q 2725 213 2448 61 
Q 2172 -91 1784 -91 
Q 1150 -91 751 415 
Q 353 922 353 1747 
Q 353 2572 751 3078 
Q 1150 3584 1784 3584 
Q 2172 3584 2448 3432 
Q 2725 3281 2906 2969 
z
M 947 1747 
Q 947 1113 1208 752 
Q 1469 391 1925 391 
Q 2381 391 2643 752 
Q 2906 1113 2906 1747 
Q 2906 2381 2643 2742 
Q 2381 3103 1925 3103 
Q 1469 3103 1208 2742 
Q 947 2381 947 1747 
z
" transform="scale(0.015625)"/>
      <path id="DejaVuSans-50" d="M 1259 4147 
L 1259 2394 
L 2053 2394 
Q 2494 2394 2734 2622 
Q 2975 2850 2975 3272 
Q 2975 3691 2734 3919 
Q 2494 4147 2053 4147 
L 1259 4147 
z
M 628 4666 
L 2053 4666 
Q 2838 4666 3239 4311 
Q 3641 3956 3641 3272 
Q 3641 2581 3239 2228 
Q 2838 1875 2053 1875 
L 1259 1875 
L 1259 0 
L 628 0 
L 628 4666 
z
" transform="scale(0.015625)"/>
      <path id="DejaVuSans-6c" d="M 603 4863 
L 1178 4863 
L 1178 0 
L 603 0 
L 603 4863 
z
" transform="scale(0.015625)"/>
      <path id="DejaVuSans-2c" d="M 750 794 
L 1409 794 
L 1409 256 
L 897 -744 
L 494 -744 
L 750 256 
L 750 794 
z
" transform="scale(0.015625)"/>
      <path id="DejaVuSans-79" d="M 2059 -325 
Q 1816 -950 1584 -1140 
Q 1353 -1331 966 -1331 
L 506 -1331 
L 506 -850 
L 844 -850 
Q 1081 -850 1212 -737 
Q 1344 -625 1503 -206 
L 1606 56 
L 191 3500 
L 800 3500 
L 1894 763 
L 2988 3500 
L 3597 3500 
L 2059 -325 
z
" transform="scale(0.015625)"/>
      <path id="DejaVuSans-2e" d="M 684 794 
L 1344 794 
L 1344 0 
L 684 0 
L 684 794 
z
" transform="scale(0.015625)"/>
      <path id="DejaVuSans-3a" d="M 750 794 
L 1409 794 
L 1409 0 
L 750 0 
L 750 794 
z
M 750 3309 
L 1409 3309 
L 1409 2516 
L 750 2516 
L 750 3309 
z
" transform="scale(0.015625)"/>
      <path id="DejaVuSans-39" d="M 703 97 
L 703 672 
Q 941 559 1184 500 
Q 1428 441 1663 441 
Q 2288 441 2617 861 
Q 2947 1281 2994 2138 
Q 2813 1869 2534 1725 
Q 2256 1581 1919 1581 
Q 1219 1581 811 2004 
Q 403 2428 403 3163 
Q 403 3881 828 4315 
Q 1253 4750 1959 4750 
Q 2769 4750 3195 4129 
Q 3622 3509 3622 2328 
Q 3622 1225 3098 567 
Q 2575 -91 1691 -91 
Q 1453 -91 1209 -44 
Q 966 3 703 97 
z
M 1959 2075 
Q 2384 2075 2632 2365 
Q 2881 2656 2881 3163 
Q 2881 3666 2632 3958 
Q 2384 4250 1959 4250 
Q 1534 4250 1286 3958 
Q 1038 3666 1038 3163 
Q 1038 2656 1286 2365 
Q 1534 2075 1959 2075 
z
" transform="scale(0.015625)"/>
     </defs>
     <use xlink:href="#DejaVuSans-4e"/>
     <use xlink:href="#DejaVuSans-75" x="74.804688"/>
     <use xlink:href="#DejaVuSans-6d" x="138.183594"/>
     <use xlink:href="#DejaVuSans-62" x="235.595703"/>
     <use xlink:href="#DejaVuSans-65" x="299.072266"/>
     <use xlink:href="#DejaVuSans-72" x="360.595703"/>
     <use xlink:href="#DejaVuSans-20" x="401.708984"/>
     <use xlink:href="#DejaVuSans-6f" x="433.496094"/>
     <use xlink:href="#DejaVuSans-66" x="494.677734"/>
     <use xlink:href="#DejaVuSans-20" x="529.882812"/>
     <use xlink:href="#DejaVuSans-41" x="561.669922"/>
     <use xlink:href="#DejaVuSans-45" x="630.078125"/>
     <use xlink:href="#DejaVuSans-44" x="693.261719"/>
     <use xlink:href="#DejaVuSans-73" x="770.263672"/>
     <use xlink:href="#DejaVuSans-20" x="822.363281"/>
     <use xlink:href="#DejaVuSans-69" x="854.150391"/>
     <use xlink:href="#DejaVuSans-6e" x="881.933594"/>
     <use xlink:href="#DejaVuSans-20" x="945.3125"/>
     <use xlink:href="#DejaVuSans-74" x="977.099609"/>
     <use xlink:href="#DejaVuSans-68" x="1016.308594"/>
     <use xlink:href="#DejaVuSans-65" x="1079.6875"/>
     <use xlink:href="#DejaVuSans-20" x="1141.210938"/>
     <use xlink:href="#DejaVuSans-4f" x="1172.998047"/>
     <use xlink:href="#DejaVuSans-70" x="1251.708984"/>
     <use xlink:href="#DejaVuSans-65" x="1315.185547"/>
     <use xlink:href="#DejaVuSans-6e" x="1376.708984"/>
     <use xlink:href="#DejaVuSans-53" x="1440.087891"/>
     <use xlink:href="#DejaVuSans-74" x="1503.564453"/>
     <use xlink:href="#DejaVuSans-72" x="1542.773438"/>
     <use xlink:href="#DejaVuSans-65" x="1581.636719"/>
     <use xlink:href="#DejaVuSans-65" x="1643.160156"/>
     <use xlink:href="#DejaVuSans-74" x="1704.683594"/>
     <use xlink:href="#DejaVuSans-4d" x="1743.892578"/>
     <use xlink:href="#DejaVuSans-61" x="1830.171875"/>
     <use xlink:href="#DejaVuSans-70" x="1891.451172"/>
     <use xlink:href="#DejaVuSans-20" x="1954.927734"/>
     <use xlink:href="#DejaVuSans-64" x="1986.714844"/>
     <use xlink:href="#DejaVuSans-61" x="2050.191406"/>
     <use xlink:href="#DejaVuSans-74" x="2111.470703"/>
     <use xlink:href="#DejaVuSans-61" x="2150.679688"/>
     <use xlink:href="#DejaVuSans-62" x="2211.958984"/>
     <use xlink:href="#DejaVuSans-61" x="2275.435547"/>
     <use xlink:href="#DejaVuSans-73" x="2336.714844"/>
     <use xlink:href="#DejaVuSans-65" x="2388.814453"/>
     <use xlink:href="#DejaVuSans-20" x="2450.337891"/>
     <use xlink:href="#DejaVuSans-69" x="2482.125"/>
     <use xlink:href="#DejaVuSans-6e" x="2509.908203"/>
     <use xlink:href="#DejaVuSans-20" x="2573.287109"/>
     <use xlink:href="#DejaVuSans-50" x="2605.074219"/>
     <use xlink:href="#DejaVuSans-6f" x="2661.751953"/>
     <use xlink:href="#DejaVuSans-6c" x="2722.933594"/>
     <use xlink:href="#DejaVuSans-61" x="2750.716797"/>
     <use xlink:href="#DejaVuSans-6e" x="2811.996094"/>
     <use xlink:href="#DejaVuSans-64" x="2875.375"/>
     <use xlink:href="#DejaVuSans-20" x="2938.851562"/>
     <use xlink:href="#DejaVuSans-66" x="2970.638672"/>
     <use xlink:href="#DejaVuSans-72" x="3005.84375"/>
     <use xlink:href="#DejaVuSans-6f" x="3044.707031"/>
     <use xlink:href="#DejaVuSans-6d" x="3105.888672"/>
     <use xlink:href="#DejaVuSans-20" x="3203.300781"/>
     <use xlink:href="#DejaVuSans-32" x="3235.087891"/>
     <use xlink:href="#DejaVuSans-30" x="3298.710938"/>
     <use xlink:href="#DejaVuSans-32" x="3362.333984"/>
     <use xlink:href="#DejaVuSans-36" x="3425.957031"/>
     <use xlink:href="#DejaVuSans-2d" x="3489.580078"/>
     <use xlink:href="#DejaVuSans-30" x="3525.664062"/>
     <use xlink:href="#DejaVuSans-31" x="3589.287109"/>
     <use xlink:href="#DejaVuSans-2d" x="3652.910156"/>
     <use xlink:href="#DejaVuSans-30" x="3688.994141"/>
     <use xlink:href="#DejaVuSans-31" x="3752.617188"/>
     <use xlink:href="#DejaVuSans-2c" x="3816.240234"/>
     <use xlink:href="#DejaVuSans-20" x="3848.027344"/>
     <use xlink:href="#DejaVuSans-64" x="3879.814453"/>
     <use xlink:href="#DejaVuSans-61" x="3943.291016"/>
     <use xlink:href="#DejaVuSans-79" x="4004.570312"/>
     <use xlink:href="#DejaVuSans-20" x="4063.75"/>
     <use xlink:href="#DejaVuSans-62" x="4095.537109"/>
     <use xlink:href="#DejaVuSans-79" x="4159.013672"/>
     <use xlink:href="#DejaVuSans-20" x="4218.193359"/>
     <use xlink:href="#DejaVuSans-64" x="4249.980469"/>
     <use xlink:href="#DejaVuSans-61" x="4313.457031"/>
     <use xlink:href="#DejaVuSans-79" x="4374.736328"/>
     <use xlink:href="#DejaVuSans-2e" x="4419.666016"/>
     <use xlink:href="#DejaVuSans-20" x="4451.453125"/>
     <use xlink:href="#DejaVuSans-41" x="4483.240234"/>
     <use xlink:href="#DejaVuSans-73" x="4551.648438"/>
     <use xlink:href="#DejaVuSans-20" x="4603.748047"/>
     <use xlink:href="#DejaVuSans-61" x="4635.535156"/>
     <use xlink:href="#DejaVuSans-74" x="4696.814453"/>
     <use xlink:href="#DejaVuSans-3a" x="4736.023438"/>
     <use xlink:href="#DejaVuSans-20" x="4769.714844"/>
     <use xlink:href="#DejaVuSans-32" x="4801.501953"/>
     <use xlink:href="#DejaVuSans-30" x="4865.125"/>
     <use xlink:href="#DejaVuSans-32" x="4928.748047"/>
     <use xlink:href="#DejaVuSans-36" x="4992.371094"/>
     <use xlink:href="#DejaVuSans-2d" x="5055.994141"/>
     <use xlink:href="#DejaVuSans-30" x="5092.078125"/>
     <use xlink:href="#DejaVuSans-32" x="5155.701172"/>
     <use xlink:href="#DejaVuSans-2d" x="5219.324219"/>
     <use xlink:href="#DejaVuSans-31" x="5255.408203"/>
     <use xlink:href="#DejaVuSans-39" x="5319.03125"/>
    </g>
   </g>
  </g>
 </g>
 <defs>
  <clipPath id="p517fb3281b">
   <rect x="144" y="69.12" width="892.8" height="443.52"/>
  </clipPath>
 </defs>
</svg>
