<?xml version="1.0" encoding="utf-8" standalone="no"?>
<!DOCTYPE svg PUBLIC "-//W3C//DTD SVG 1.1//EN"
  "http://www.w3.org/Graphics/SVG/1.1/DTD/svg11.dtd">
<svg xmlns:xlink="http://www.w3.org/1999/xlink" width="1152pt" height="576pt" viewBox="0 0 1152 576" xmlns="http://www.w3.org/2000/svg" version="1.1">
 <metadata>
  <rdf:RDF xmlns:dc="http://purl.org/dc/elements/1.1/" xmlns:cc="http://creativecommons.org/ns#" xmlns:rdf="http://www.w3.org/1999/02/22-rdf-syntax-ns#">
   <cc:Work>
    <dc:type rdf:resource="http://purl.org/dc/dcmitype/StillImage"/>
    <dc:date>2022-04-04T06:39:25.138689</dc:date>
    <dc:format>image/svg+xml</dc:format>
    <dc:creator>
     <cc:Agent>
      <dc:title>Matplotlib v3.5.1, https://matplotlib.org/</dc:title>
     </cc:Agent>
    </dc:creator>
   </cc:Work>
  </rdf:RDF>
 </metadata>
 <defs>
  <style type="text/css">*{stroke-linejoin: round; stroke-linecap: butt}</style>
 </defs>
 <g id="figure_1">
  <g id="patch_1">
   <path d="M 0 576 
L 1152 576 
L 1152 0 
L 0 0 
z
" style="fill: #ffffff"/>
  </g>
  <g id="axes_1">
   <g id="patch_2">
    <path d="M 144 512.64 
L 1036.8 512.64 
L 1036.8 69.12 
L 144 69.12 
z
" style="fill: #ffffff"/>
   </g>
   <g id="PathCollection_1">
    <path d="M 184.581818 502.48 
C 187.233849 502.48 189.777617 501.426337 191.652886 499.551068 
C 193.528155 497.675799 194.581818 495.132031 194.581818 492.48 
C 194.581818 489.827969 193.528155 487.284201 191.652886 485.408932 
C 189.777617 483.533663 187.233849 482.48 184.581818 482.48 
C 181.929787 482.48 179.386019 483.533663 177.51075 485.408932 
C 175.635481 487.284201 174.581818 489.827969 174.581818 492.48 
C 174.581818 495.132031 175.635481 497.675799 177.51075 499.551068 
C 179.386019 501.426337 181.929787 502.48 184.581818 502.48 
z
" clip-path="url(#pffa4467f90)" style="fill: #1f77b4; fill-opacity: 0.3; stroke: #1f77b4; stroke-opacity: 0.3"/>
    <path d="M 193.309091 494.76878 
C 194.03538 494.76878 194.732019 494.480223 195.245583 493.966659 
C 195.759146 493.453095 196.047704 492.756456 196.047704 492.030167 
C 196.047704 491.303879 195.759146 490.607239 195.245583 490.093676 
C 194.732019 489.580112 194.03538 489.291555 193.309091 489.291555 
C 192.582802 489.291555 191.886163 489.580112 191.372599 490.093676 
C 190.859036 490.607239 190.570478 491.303879 190.570478 492.030167 
C 190.570478 492.756456 190.859036 493.453095 191.372599 493.966659 
C 191.886163 494.480223 192.582802 494.76878 193.309091 494.76878 
z
" clip-path="url(#pffa4467f90)" style="fill: #1f77b4; fill-opacity: 0.3; stroke: #1f77b4; stroke-opacity: 0.3"/>
    <path d="M 202.036364 495.003485 
C 203.063491 495.003485 204.048688 494.595403 204.774976 493.869115 
C 205.501265 493.142826 205.909347 492.157629 205.909347 491.130502 
C 205.909347 490.103375 205.501265 489.118178 204.774976 488.391889 
C 204.048688 487.665601 203.063491 487.257519 202.036364 487.257519 
C 201.009236 487.257519 200.024039 487.665601 199.297751 488.391889 
C 198.571462 489.118178 198.16338 490.103375 198.16338 491.130502 
C 198.16338 492.157629 198.571462 493.142826 199.297751 493.869115 
C 200.024039 494.595403 201.009236 495.003485 202.036364 495.003485 
z
" clip-path="url(#pffa4467f90)" style="fill: #1f77b4; fill-opacity: 0.3; stroke: #1f77b4; stroke-opacity: 0.3"/>
    <path d="M 210.763636 494.264193 
C 211.873061 494.264193 212.937195 493.823414 213.721676 493.038932 
C 214.506158 492.254451 214.946936 491.190317 214.946936 490.080893 
C 214.946936 488.971468 214.506158 487.907334 213.721676 487.122853 
C 212.937195 486.338371 211.873061 485.897592 210.763636 485.897592 
C 209.654212 485.897592 208.590078 486.338371 207.805596 487.122853 
C 207.021115 487.907334 206.580336 488.971468 206.580336 490.080893 
C 206.580336 491.190317 207.021115 492.254451 207.805596 493.038932 
C 208.590078 493.823414 209.654212 494.264193 210.763636 494.264193 
z
" clip-path="url(#pffa4467f90)" style="fill: #1f77b4; fill-opacity: 0.3; stroke: #1f77b4; stroke-opacity: 0.3"/>
    <path d="M 219.490909 492.369673 
C 220.217198 492.369673 220.913837 492.081115 221.427401 491.567552 
C 221.940964 491.053988 222.229522 490.357348 222.229522 489.63106 
C 222.229522 488.904771 221.940964 488.208132 221.427401 487.694568 
C 220.913837 487.181005 220.217198 486.892447 219.490909 486.892447 
C 218.76462 486.892447 218.067981 487.181005 217.554417 487.694568 
C 217.040854 488.208132 216.752296 488.904771 216.752296 489.63106 
C 216.752296 490.357348 217.040854 491.053988 217.554417 491.567552 
C 218.067981 492.081115 218.76462 492.369673 219.490909 492.369673 
z
" clip-path="url(#pffa4467f90)" style="fill: #1f77b4; fill-opacity: 0.3; stroke: #1f77b4; stroke-opacity: 0.3"/>
    <path d="M 228.218182 491.567239 
C 228.811194 491.567239 229.379998 491.331633 229.799321 490.91231 
C 230.218644 490.492987 230.45425 489.924184 230.45425 489.331171 
C 230.45425 488.738159 230.218644 488.169356 229.799321 487.750033 
C 229.379998 487.33071 228.811194 487.095103 228.218182 487.095103 
C 227.62517 487.095103 227.056366 487.33071 226.637043 487.750033 
C 226.21772 488.169356 225.982114 488.738159 225.982114 489.331171 
C 225.982114 489.924184 226.21772 490.492987 226.637043 490.91231 
C 227.056366 491.331633 227.62517 491.567239 228.218182 491.567239 
z
" clip-path="url(#pffa4467f90)" style="fill: #1f77b4; fill-opacity: 0.3; stroke: #1f77b4; stroke-opacity: 0.3"/>
    <path d="M 236.945455 491.893672 
C 237.7841 491.893672 238.58851 491.560475 239.181523 490.967463 
C 239.774535 490.37445 240.107732 489.57004 240.107732 488.731395 
C 240.107732 487.892749 239.774535 487.088339 239.181523 486.495327 
C 238.58851 485.902314 237.7841 485.569117 236.945455 485.569117 
C 236.106809 485.569117 235.302399 485.902314 234.709387 486.495327 
C 234.116374 487.088339 233.783177 487.892749 233.783177 488.731395 
C 233.783177 489.57004 234.116374 490.37445 234.709387 490.967463 
C 235.302399 491.560475 236.106809 491.893672 236.945455 491.893672 
z
" clip-path="url(#pffa4467f90)" style="fill: #1f77b4; fill-opacity: 0.3; stroke: #1f77b4; stroke-opacity: 0.3"/>
    <path d="M 245.672727 492.482997 
C 247.184618 492.482997 248.634788 491.882316 249.703856 490.813249 
C 250.772924 489.744181 251.373604 488.29401 251.373604 486.78212 
C 251.373604 485.270229 250.772924 483.820059 249.703856 482.750991 
C 248.634788 481.681923 247.184618 481.081243 245.672727 481.081243 
C 244.160837 481.081243 242.710666 481.681923 241.641598 482.750991 
C 240.572531 483.820059 239.97185 485.270229 239.97185 486.78212 
C 239.97185 488.29401 240.572531 489.744181 241.641598 490.813249 
C 242.710666 491.882316 244.160837 492.482997 245.672727 492.482997 
z
" clip-path="url(#pffa4467f90)" style="fill: #1f77b4; fill-opacity: 0.3; stroke: #1f77b4; stroke-opacity: 0.3"/>
    <path d="M 254.4 490.176038 
C 255.657969 490.176038 256.864584 489.676242 257.754102 488.786724 
C 258.64362 487.897206 259.143416 486.690591 259.143416 485.432622 
C 259.143416 484.174653 258.64362 482.968038 257.754102 482.07852 
C 256.864584 481.189002 255.657969 480.689205 254.4 480.689205 
C 253.142031 480.689205 251.935416 481.189002 251.045898 482.07852 
C 250.15638 482.968038 249.656584 484.174653 249.656584 485.432622 
C 249.656584 486.690591 250.15638 487.897206 251.045898 488.786724 
C 251.935416 489.676242 253.142031 490.176038 254.4 490.176038 
z
" clip-path="url(#pffa4467f90)" style="fill: #1f77b4; fill-opacity: 0.3; stroke: #1f77b4; stroke-opacity: 0.3"/>
    <path d="M 263.127273 488.40594 
C 264.1544 488.40594 265.139597 487.997858 265.865886 487.271569 
C 266.592174 486.545281 267.000256 485.560084 267.000256 484.532956 
C 267.000256 483.505829 266.592174 482.520632 265.865886 481.794344 
C 265.139597 481.068055 264.1544 480.659973 263.127273 480.659973 
C 262.100146 480.659973 261.114949 481.068055 260.38866 481.794344 
C 259.662371 482.520632 259.254289 483.505829 259.254289 484.532956 
C 259.254289 485.560084 259.662371 486.545281 260.38866 487.271569 
C 261.114949 487.997858 262.100146 488.40594 263.127273 488.40594 
z
" clip-path="url(#pffa4467f90)" style="fill: #1f77b4; fill-opacity: 0.3; stroke: #1f77b4; stroke-opacity: 0.3"/>
    <path d="M 271.854545 487.318769 
C 272.79218 487.318769 273.691538 486.946243 274.354545 486.283235 
C 275.017553 485.620228 275.390079 484.72087 275.390079 483.783235 
C 275.390079 482.845601 275.017553 481.946243 274.354545 481.283235 
C 273.691538 480.620228 272.79218 480.247701 271.854545 480.247701 
C 270.916911 480.247701 270.017553 480.620228 269.354545 481.283235 
C 268.691538 481.946243 268.319012 482.845601 268.319012 483.783235 
C 268.319012 484.72087 268.691538 485.620228 269.354545 486.283235 
C 270.017553 486.946243 270.916911 487.318769 271.854545 487.318769 
z
" clip-path="url(#pffa4467f90)" style="fill: #1f77b4; fill-opacity: 0.3; stroke: #1f77b4; stroke-opacity: 0.3"/>
    <path d="M 280.581818 487.872077 
C 283.097756 487.872077 285.510986 486.872484 287.290022 485.093448 
C 289.069059 483.314411 290.068651 480.901181 290.068651 478.385244 
C 290.068651 475.869306 289.069059 473.456076 287.290022 471.67704 
C 285.510986 469.898003 283.097756 468.898411 280.581818 468.898411 
C 278.065881 468.898411 275.652651 469.898003 273.873614 471.67704 
C 272.094578 473.456076 271.094985 475.869306 271.094985 478.385244 
C 271.094985 480.901181 272.094578 483.314411 273.873614 485.093448 
C 275.652651 486.872484 278.065881 487.872077 280.581818 487.872077 
z
" clip-path="url(#pffa4467f90)" style="fill: #1f77b4; fill-opacity: 0.3; stroke: #1f77b4; stroke-opacity: 0.3"/>
    <path d="M 289.309091 481.949065 
C 292.361808 481.949065 295.289904 480.736207 297.448501 478.57761 
C 299.607098 476.419014 300.819955 473.490917 300.819955 470.4382 
C 300.819955 467.385483 299.607098 464.457387 297.448501 462.29879 
C 295.289904 460.140193 292.361808 458.927336 289.309091 458.927336 
C 286.256374 458.927336 283.328277 460.140193 281.169681 462.29879 
C 279.011084 464.457387 277.798226 467.385483 277.798226 470.4382 
C 277.798226 473.490917 279.011084 476.419014 281.169681 478.57761 
C 283.328277 480.736207 286.256374 481.949065 289.309091 481.949065 
z
" clip-path="url(#pffa4467f90)" style="fill: #1f77b4; fill-opacity: 0.3; stroke: #1f77b4; stroke-opacity: 0.3"/>
    <path d="M 298.036364 474.189802 
C 299.548254 474.189802 300.998425 473.589122 302.067493 472.520054 
C 303.13656 471.450986 303.737241 470.000816 303.737241 468.488925 
C 303.737241 466.977035 303.13656 465.526864 302.067493 464.457796 
C 300.998425 463.388729 299.548254 462.788048 298.036364 462.788048 
C 296.524473 462.788048 295.074303 463.388729 294.005235 464.457796 
C 292.936167 465.526864 292.335487 466.977035 292.335487 468.488925 
C 292.335487 470.000816 292.936167 471.450986 294.005235 472.520054 
C 295.074303 473.589122 296.524473 474.189802 298.036364 474.189802 
z
" clip-path="url(#pffa4467f90)" style="fill: #1f77b4; fill-opacity: 0.3; stroke: #1f77b4; stroke-opacity: 0.3"/>
    <path d="M 306.763636 472.65627 
C 308.942502 472.65627 311.032421 471.790597 312.573111 470.249906 
C 314.113802 468.709216 314.979475 466.619297 314.979475 464.440431 
C 314.979475 462.261566 314.113802 460.171647 312.573111 458.630956 
C 311.032421 457.090266 308.942502 456.224593 306.763636 456.224593 
C 304.584771 456.224593 302.494852 457.090266 300.954161 458.630956 
C 299.413471 460.171647 298.547798 462.261566 298.547798 464.440431 
C 298.547798 466.619297 299.413471 468.709216 300.954161 470.249906 
C 302.494852 471.790597 304.584771 472.65627 306.763636 472.65627 
z
" clip-path="url(#pffa4467f90)" style="fill: #1f77b4; fill-opacity: 0.3; stroke: #1f77b4; stroke-opacity: 0.3"/>
    <path d="M 315.490909 468.12356 
C 318.45597 468.12356 321.299989 466.945529 323.396603 464.848915 
C 325.493218 462.7523 326.671249 459.908281 326.671249 456.943221 
C 326.671249 453.97816 325.493218 451.134141 323.396603 449.037526 
C 321.299989 446.940912 318.45597 445.762881 315.490909 445.762881 
C 312.525848 445.762881 309.68183 446.940912 307.585215 449.037526 
C 305.4886 451.134141 304.310569 453.97816 304.310569 456.943221 
C 304.310569 459.908281 305.4886 462.7523 307.585215 464.848915 
C 309.68183 466.945529 312.525848 468.12356 315.490909 468.12356 
z
" clip-path="url(#pffa4467f90)" style="fill: #1f77b4; fill-opacity: 0.3; stroke: #1f77b4; stroke-opacity: 0.3"/>
    <path d="M 324.218182 459.211812 
C 327.921542 459.211812 331.47372 457.740451 334.092391 455.12178 
C 336.711061 452.50311 338.182422 448.950931 338.182422 445.247572 
C 338.182422 441.544212 336.711061 437.992034 334.092391 435.373363 
C 331.47372 432.754692 327.921542 431.283332 324.218182 431.283332 
C 320.514822 431.283332 316.962644 432.754692 314.343973 435.373363 
C 311.725302 437.992034 310.253942 441.544212 310.253942 445.247572 
C 310.253942 448.950931 311.725302 452.50311 314.343973 455.12178 
C 316.962644 457.740451 320.514822 459.211812 324.218182 459.211812 
z
" clip-path="url(#pffa4467f90)" style="fill: #1f77b4; fill-opacity: 0.3; stroke: #1f77b4; stroke-opacity: 0.3"/>
    <path d="M 332.945455 449.393629 
C 335.317503 449.393629 337.592718 448.451204 339.27001 446.773912 
C 340.947302 445.09662 341.889726 442.821405 341.889726 440.449357 
C 341.889726 438.077308 340.947302 435.802093 339.27001 434.124801 
C 337.592718 432.44751 335.317503 431.505085 332.945455 431.505085 
C 330.573406 431.505085 328.298191 432.44751 326.620899 434.124801 
C 324.943608 435.802093 324.001183 438.077308 324.001183 440.449357 
C 324.001183 442.821405 324.943608 445.09662 326.620899 446.773912 
C 328.298191 448.451204 330.573406 449.393629 332.945455 449.393629 
z
" clip-path="url(#pffa4467f90)" style="fill: #1f77b4; fill-opacity: 0.3; stroke: #1f77b4; stroke-opacity: 0.3"/>
    <path d="M 341.672727 444.596662 
C 343.726982 444.596662 345.697376 443.780498 347.149953 442.327921 
C 348.60253 440.875344 349.418694 438.90495 349.418694 436.850695 
C 349.418694 434.796441 348.60253 432.826047 347.149953 431.37347 
C 345.697376 429.920893 343.726982 429.104729 341.672727 429.104729 
C 339.618473 429.104729 337.648079 429.920893 336.195502 431.37347 
C 334.742924 432.826047 333.926761 434.796441 333.926761 436.850695 
C 333.926761 438.90495 334.742924 440.875344 336.195502 442.327921 
C 337.648079 443.780498 339.618473 444.596662 341.672727 444.596662 
z
" clip-path="url(#pffa4467f90)" style="fill: #1f77b4; fill-opacity: 0.3; stroke: #1f77b4; stroke-opacity: 0.3"/>
    <path d="M 350.4 440.52859 
C 351.852577 440.52859 353.245856 439.951475 354.272983 438.924348 
C 355.300111 437.897221 355.877226 436.503942 355.877226 435.051365 
C 355.877226 433.598788 355.300111 432.205509 354.272983 431.178381 
C 353.245856 430.151254 351.852577 429.574139 350.4 429.574139 
C 348.947423 429.574139 347.554144 430.151254 346.527017 431.178381 
C 345.499889 432.205509 344.922774 433.598788 344.922774 435.051365 
C 344.922774 436.503942 345.499889 437.897221 346.527017 438.924348 
C 347.554144 439.951475 348.947423 440.52859 350.4 440.52859 
z
" clip-path="url(#pffa4467f90)" style="fill: #1f77b4; fill-opacity: 0.3; stroke: #1f77b4; stroke-opacity: 0.3"/>
    <path d="M 359.127273 432.684214 
C 364.106457 432.684214 368.882376 430.705963 372.403191 427.185148 
C 375.924005 423.664334 377.902256 418.888414 377.902256 413.90923 
C 377.902256 408.930046 375.924005 404.154127 372.403191 400.633312 
C 368.882376 397.112498 364.106457 395.134247 359.127273 395.134247 
C 354.148089 395.134247 349.372169 397.112498 345.851355 400.633312 
C 342.33054 404.154127 340.352289 408.930046 340.352289 413.90923 
C 340.352289 418.888414 342.33054 423.664334 345.851355 427.185148 
C 349.372169 430.705963 354.148089 432.684214 359.127273 432.684214 
z
" clip-path="url(#pffa4467f90)" style="fill: #1f77b4; fill-opacity: 0.3; stroke: #1f77b4; stroke-opacity: 0.3"/>
    <path d="M 367.854545 416.751428 
C 371.312371 416.751428 374.629038 415.37762 377.07409 412.932568 
C 379.519142 410.487516 380.89295 407.170849 380.89295 403.713023 
C 380.89295 400.255198 379.519142 396.938531 377.07409 394.493479 
C 374.629038 392.048427 371.312371 390.674619 367.854545 390.674619 
C 364.39672 390.674619 361.080053 392.048427 358.635001 394.493479 
C 356.189949 396.938531 354.816141 400.255198 354.816141 403.713023 
C 354.816141 407.170849 356.189949 410.487516 358.635001 412.932568 
C 361.080053 415.37762 364.39672 416.751428 367.854545 416.751428 
z
" clip-path="url(#pffa4467f90)" style="fill: #1f77b4; fill-opacity: 0.3; stroke: #1f77b4; stroke-opacity: 0.3"/>
    <path d="M 376.581818 407.870112 
C 378.678433 407.870112 380.689458 407.037118 382.171988 405.554588 
C 383.654519 404.072058 384.487512 402.061033 384.487512 399.964418 
C 384.487512 397.867803 383.654519 395.856778 382.171988 394.374248 
C 380.689458 392.891718 378.678433 392.058724 376.581818 392.058724 
C 374.485204 392.058724 372.474179 392.891718 370.991648 394.374248 
C 369.509118 395.856778 368.676124 397.867803 368.676124 399.964418 
C 368.676124 402.061033 369.509118 404.072058 370.991648 405.554588 
C 372.474179 407.037118 374.485204 407.870112 376.581818 407.870112 
z
" clip-path="url(#pffa4467f90)" style="fill: #1f77b4; fill-opacity: 0.3; stroke: #1f77b4; stroke-opacity: 0.3"/>
    <path d="M 385.309091 399.978941 
C 389.726932 399.978941 393.964425 398.223714 397.08831 395.099829 
C 400.212195 391.975943 401.967422 387.738451 401.967422 383.32061 
C 401.967422 378.902769 400.212195 374.665276 397.08831 371.541391 
C 393.964425 368.417506 389.726932 366.662279 385.309091 366.662279 
C 380.89125 366.662279 376.653757 368.417506 373.529872 371.541391 
C 370.405987 374.665276 368.65076 378.902769 368.65076 383.32061 
C 368.65076 387.738451 370.405987 391.975943 373.529872 395.099829 
C 376.653757 398.223714 380.89125 399.978941 385.309091 399.978941 
z
" clip-path="url(#pffa4467f90)" style="fill: #1f77b4; fill-opacity: 0.3; stroke: #1f77b4; stroke-opacity: 0.3"/>
    <path d="M 394.036364 387.269904 
C 396.753887 387.269904 399.360473 386.19022 401.282052 384.268641 
C 403.203631 382.347062 404.283314 379.740476 404.283314 377.022953 
C 404.283314 374.30543 403.203631 371.698843 401.282052 369.777264 
C 399.360473 367.855685 396.753887 366.776002 394.036364 366.776002 
C 391.318841 366.776002 388.712254 367.855685 386.790675 369.777264 
C 384.869096 371.698843 383.789413 374.30543 383.789413 377.022953 
C 383.789413 379.740476 384.869096 382.347062 386.790675 384.268641 
C 388.712254 386.19022 391.318841 387.269904 394.036364 387.269904 
z
" clip-path="url(#pffa4467f90)" style="fill: #1f77b4; fill-opacity: 0.3; stroke: #1f77b4; stroke-opacity: 0.3"/>
    <path d="M 402.763636 381.111794 
C 405.279574 381.111794 407.692804 380.112201 409.47184 378.333165 
C 411.250877 376.554128 412.250469 374.140898 412.250469 371.624961 
C 412.250469 369.109023 411.250877 366.695793 409.47184 364.916757 
C 407.692804 363.137721 405.279574 362.138128 402.763636 362.138128 
C 400.247699 362.138128 397.834469 363.137721 396.055432 364.916757 
C 394.276396 366.695793 393.276803 369.109023 393.276803 371.624961 
C 393.276803 374.140898 394.276396 376.554128 396.055432 378.333165 
C 397.834469 380.112201 400.247699 381.111794 402.763636 381.111794 
z
" clip-path="url(#pffa4467f90)" style="fill: #1f77b4; fill-opacity: 0.3; stroke: #1f77b4; stroke-opacity: 0.3"/>
    <path d="M 411.490909 375.104068 
C 414.600691 375.104068 417.583523 373.868539 419.782471 371.669591 
C 421.981419 369.470643 423.216948 366.487811 423.216948 363.378029 
C 423.216948 360.268247 421.981419 357.285415 419.782471 355.086467 
C 417.583523 352.887519 414.600691 351.65199 411.490909 351.65199 
C 408.381127 351.65199 405.398295 352.887519 403.199347 355.086467 
C 401.000399 357.285415 399.76487 360.268247 399.76487 363.378029 
C 399.76487 366.487811 401.000399 369.470643 403.199347 371.669591 
C 405.398295 373.868539 408.381127 375.104068 411.490909 375.104068 
z
" clip-path="url(#pffa4467f90)" style="fill: #1f77b4; fill-opacity: 0.3; stroke: #1f77b4; stroke-opacity: 0.3"/>
    <path d="M 420.218182 366.163842 
C 421.155816 366.163842 422.055174 365.791316 422.718182 365.128308 
C 423.38119 364.4653 423.753716 363.565942 423.753716 362.628308 
C 423.753716 361.690673 423.38119 360.791316 422.718182 360.128308 
C 422.055174 359.4653 421.155816 359.092774 420.218182 359.092774 
C 419.280547 359.092774 418.38119 359.4653 417.718182 360.128308 
C 417.055174 360.791316 416.682648 361.690673 416.682648 362.628308 
C 416.682648 363.565942 417.055174 364.4653 417.718182 365.128308 
C 418.38119 365.791316 419.280547 366.163842 420.218182 366.163842 
z
" clip-path="url(#pffa4467f90)" style="fill: #1f77b4; fill-opacity: 0.3; stroke: #1f77b4; stroke-opacity: 0.3"/>
    <path d="M 428.945455 366.577602 
C 431.662978 366.577602 434.269564 365.497918 436.191143 363.576339 
C 438.112722 361.65476 439.192405 359.048174 439.192405 356.330651 
C 439.192405 353.613128 438.112722 351.006541 436.191143 349.084962 
C 434.269564 347.163383 431.662978 346.0837 428.945455 346.0837 
C 426.227931 346.0837 423.621345 347.163383 421.699766 349.084962 
C 419.778187 351.006541 418.698504 353.613128 418.698504 356.330651 
C 418.698504 359.048174 419.778187 361.65476 421.699766 363.576339 
C 423.621345 365.497918 426.227931 366.577602 428.945455 366.577602 
z
" clip-path="url(#pffa4467f90)" style="fill: #1f77b4; fill-opacity: 0.3; stroke: #1f77b4; stroke-opacity: 0.3"/>
    <path d="M 437.672727 360.476708 
C 440.044776 360.476708 442.319991 359.534283 443.997283 357.856991 
C 445.674574 356.179699 446.616999 353.904484 446.616999 351.532436 
C 446.616999 349.160387 445.674574 346.885172 443.997283 345.207881 
C 442.319991 343.530589 440.044776 342.588164 437.672727 342.588164 
C 435.300679 342.588164 433.025464 343.530589 431.348172 345.207881 
C 429.67088 346.885172 428.728455 349.160387 428.728455 351.532436 
C 428.728455 353.904484 429.67088 356.179699 431.348172 357.856991 
C 433.025464 359.534283 435.300679 360.476708 437.672727 360.476708 
z
" clip-path="url(#pffa4467f90)" style="fill: #1f77b4; fill-opacity: 0.3; stroke: #1f77b4; stroke-opacity: 0.3"/>
    <path d="M 446.4 355.679741 
C 448.454254 355.679741 450.424648 354.863577 451.877226 353.411 
C 453.329803 351.958423 454.145967 349.988029 454.145967 347.933775 
C 454.145967 345.87952 453.329803 343.909126 451.877226 342.456549 
C 450.424648 341.003972 448.454254 340.187808 446.4 340.187808 
C 444.345746 340.187808 442.375352 341.003972 440.922774 342.456549 
C 439.470197 343.909126 438.654033 345.87952 438.654033 347.933775 
C 438.654033 349.988029 439.470197 351.958423 440.922774 353.411 
C 442.375352 354.863577 444.345746 355.679741 446.4 355.679741 
z
" clip-path="url(#pffa4467f90)" style="fill: #1f77b4; fill-opacity: 0.3; stroke: #1f77b4; stroke-opacity: 0.3"/>
    <path d="M 455.127273 343.237048 
C 460.562319 343.237048 465.775491 341.077681 469.618649 337.234523 
C 473.461808 333.391365 475.621174 328.178192 475.621174 322.743146 
C 475.621174 317.3081 473.461808 312.094927 469.618649 308.251769 
C 465.775491 304.408611 460.562319 302.249245 455.127273 302.249245 
C 449.692227 302.249245 444.479054 304.408611 440.635896 308.251769 
C 436.792738 312.094927 434.633371 317.3081 434.633371 322.743146 
C 434.633371 328.178192 436.792738 333.391365 440.635896 337.234523 
C 444.479054 341.077681 449.692227 343.237048 455.127273 343.237048 
z
" clip-path="url(#pffa4467f90)" style="fill: #1f77b4; fill-opacity: 0.3; stroke: #1f77b4; stroke-opacity: 0.3"/>
    <path d="M 463.854545 326.668594 
C 465.531837 326.668594 467.140657 326.002199 468.326681 324.816175 
C 469.512706 323.63015 470.179101 322.02133 470.179101 320.344039 
C 470.179101 318.666747 469.512706 317.057927 468.326681 315.871903 
C 467.140657 314.685878 465.531837 314.019483 463.854545 314.019483 
C 462.177254 314.019483 460.568434 314.685878 459.382409 315.871903 
C 458.196385 317.057927 457.52999 318.666747 457.52999 320.344039 
C 457.52999 322.02133 458.196385 323.63015 459.382409 324.816175 
C 460.568434 326.002199 462.177254 326.668594 463.854545 326.668594 
z
" clip-path="url(#pffa4467f90)" style="fill: #1f77b4; fill-opacity: 0.3; stroke: #1f77b4; stroke-opacity: 0.3"/>
    <path d="M 472.581818 324.413795 
C 475.13246 324.413795 477.578977 323.400414 479.382553 321.596838 
C 481.18613 319.793262 482.19951 317.346744 482.19951 314.796103 
C 482.19951 312.245461 481.18613 309.798943 479.382553 307.995367 
C 477.578977 306.191791 475.13246 305.178411 472.581818 305.178411 
C 470.031176 305.178411 467.584659 306.191791 465.781083 307.995367 
C 463.977507 309.798943 462.964126 312.245461 462.964126 314.796103 
C 462.964126 317.346744 463.977507 319.793262 465.781083 321.596838 
C 467.584659 323.400414 470.031176 324.413795 472.581818 324.413795 
z
" clip-path="url(#pffa4467f90)" style="fill: #1f77b4; fill-opacity: 0.3; stroke: #1f77b4; stroke-opacity: 0.3"/>
    <path d="M 481.309091 318.959811 
C 483.447227 318.959811 485.498078 318.11032 487.009968 316.59843 
C 488.521858 315.08654 489.371349 313.035689 489.371349 310.897553 
C 489.371349 308.759417 488.521858 306.708566 487.009968 305.196676 
C 485.498078 303.684786 483.447227 302.835295 481.309091 302.835295 
C 479.170955 302.835295 477.120104 303.684786 475.608214 305.196676 
C 474.096323 306.708566 473.246833 308.759417 473.246833 310.897553 
C 473.246833 313.035689 474.096323 315.08654 475.608214 316.59843 
C 477.120104 318.11032 479.170955 318.959811 481.309091 318.959811 
z
" clip-path="url(#pffa4467f90)" style="fill: #1f77b4; fill-opacity: 0.3; stroke: #1f77b4; stroke-opacity: 0.3"/>
    <path d="M 490.036364 313.870871 
C 491.063491 313.870871 492.048688 313.462789 492.774976 312.7365 
C 493.501265 312.010212 493.909347 311.025015 493.909347 309.997888 
C 493.909347 308.970761 493.501265 307.985564 492.774976 307.259275 
C 492.048688 306.532986 491.063491 306.124904 490.036364 306.124904 
C 489.009236 306.124904 488.024039 306.532986 487.297751 307.259275 
C 486.571462 307.985564 486.16338 308.970761 486.16338 309.997888 
C 486.16338 311.025015 486.571462 312.010212 487.297751 312.7365 
C 488.024039 313.462789 489.009236 313.870871 490.036364 313.870871 
z
" clip-path="url(#pffa4467f90)" style="fill: #1f77b4; fill-opacity: 0.3; stroke: #1f77b4; stroke-opacity: 0.3"/>
    <path d="M 498.763636 314.119329 
C 501.208688 314.119329 503.553926 313.147899 505.282839 311.418987 
C 507.011751 309.690074 507.983181 307.344836 507.983181 304.899784 
C 507.983181 302.454733 507.011751 300.109495 505.282839 298.380582 
C 503.553926 296.651669 501.208688 295.68024 498.763636 295.68024 
C 496.318585 295.68024 493.973347 296.651669 492.244434 298.380582 
C 490.515521 300.109495 489.544092 302.454733 489.544092 304.899784 
C 489.544092 307.344836 490.515521 309.690074 492.244434 311.418987 
C 493.973347 313.147899 496.318585 314.119329 498.763636 314.119329 
z
" clip-path="url(#pffa4467f90)" style="fill: #1f77b4; fill-opacity: 0.3; stroke: #1f77b4; stroke-opacity: 0.3"/>
    <path d="M 507.490909 304.612024 
C 511.987646 304.612024 516.300814 302.825452 519.480488 299.645778 
C 522.660161 296.466105 524.446734 292.152937 524.446734 287.656199 
C 524.446734 283.159462 522.660161 278.846294 519.480488 275.666621 
C 516.300814 272.486947 511.987646 270.700374 507.490909 270.700374 
C 502.994172 270.700374 498.681004 272.486947 495.50133 275.666621 
C 492.321657 278.846294 490.535084 283.159462 490.535084 287.656199 
C 490.535084 292.152937 492.321657 296.466105 495.50133 299.645778 
C 498.681004 302.825452 502.994172 304.612024 507.490909 304.612024 
z
" clip-path="url(#pffa4467f90)" style="fill: #1f77b4; fill-opacity: 0.3; stroke: #1f77b4; stroke-opacity: 0.3"/>
    <path d="M 516.218182 291.811337 
C 518.552873 291.811337 520.792256 290.883754 522.443132 289.232878 
C 524.094008 287.582002 525.02159 285.34262 525.02159 283.007929 
C 525.02159 280.673237 524.094008 278.433855 522.443132 276.782979 
C 520.792256 275.132103 518.552873 274.20452 516.218182 274.20452 
C 513.883491 274.20452 511.644108 275.132103 509.993232 276.782979 
C 508.342356 278.433855 507.414773 280.673237 507.414773 283.007929 
C 507.414773 285.34262 508.342356 287.582002 509.993232 289.232878 
C 511.644108 290.883754 513.883491 291.811337 516.218182 291.811337 
z
" clip-path="url(#pffa4467f90)" style="fill: #1f77b4; fill-opacity: 0.3; stroke: #1f77b4; stroke-opacity: 0.3"/>
    <path d="M 524.945455 285.793741 
C 525.883089 285.793741 526.782447 285.421215 527.445455 284.758208 
C 528.108462 284.0952 528.480988 283.195842 528.480988 282.258208 
C 528.480988 281.320573 528.108462 280.421215 527.445455 279.758208 
C 526.782447 279.0952 525.883089 278.722674 524.945455 278.722674 
C 524.00782 278.722674 523.108462 279.0952 522.445455 279.758208 
C 521.782447 280.421215 521.409921 281.320573 521.409921 282.258208 
C 521.409921 283.195842 521.782447 284.0952 522.445455 284.758208 
C 523.108462 285.421215 524.00782 285.793741 524.945455 285.793741 
z
" clip-path="url(#pffa4467f90)" style="fill: #1f77b4; fill-opacity: 0.3; stroke: #1f77b4; stroke-opacity: 0.3"/>
    <path d="M 533.672727 284.090329 
C 537.538694 284.090329 541.24684 282.554364 543.980491 279.820713 
C 546.714142 277.087062 548.250107 273.378915 548.250107 269.512949 
C 548.250107 265.646983 546.714142 261.938836 543.980491 259.205185 
C 541.24684 256.471534 537.538694 254.935569 533.672727 254.935569 
C 529.806761 254.935569 526.098614 256.471534 523.364963 259.205185 
C 520.631312 261.938836 519.095348 265.646983 519.095348 269.512949 
C 519.095348 273.378915 520.631312 277.087062 523.364963 279.820713 
C 526.098614 282.554364 529.806761 284.090329 533.672727 284.090329 
z
" clip-path="url(#pffa4467f90)" style="fill: #1f77b4; fill-opacity: 0.3; stroke: #1f77b4; stroke-opacity: 0.3"/>
    <path d="M 542.4 273.668087 
C 544.734691 273.668087 546.974074 272.740504 548.62495 271.089628 
C 550.275826 269.438752 551.203408 267.19937 551.203408 264.864678 
C 551.203408 262.529987 550.275826 260.290605 548.62495 258.639729 
C 546.974074 256.988853 544.734691 256.06127 542.4 256.06127 
C 540.065309 256.06127 537.825926 256.988853 536.17505 258.639729 
C 534.524174 260.290605 533.596592 262.529987 533.596592 264.864678 
C 533.596592 267.19937 534.524174 269.438752 536.17505 271.089628 
C 537.825926 272.740504 540.065309 273.668087 542.4 273.668087 
z
" clip-path="url(#pffa4467f90)" style="fill: #1f77b4; fill-opacity: 0.3; stroke: #1f77b4; stroke-opacity: 0.3"/>
    <path d="M 551.127273 266.295873 
C 551.546596 266.295873 551.948801 266.129274 552.245307 265.832768 
C 552.541813 265.536262 552.708412 265.134057 552.708412 264.714734 
C 552.708412 264.295411 552.541813 263.893206 552.245307 263.5967 
C 551.948801 263.300194 551.546596 263.133595 551.127273 263.133595 
C 550.70795 263.133595 550.305745 263.300194 550.009239 263.5967 
C 549.712733 263.893206 549.546134 264.295411 549.546134 264.714734 
C 549.546134 265.134057 549.712733 265.536262 550.009239 265.832768 
C 550.305745 266.129274 550.70795 266.295873 551.127273 266.295873 
z
" clip-path="url(#pffa4467f90)" style="fill: #1f77b4; fill-opacity: 0.3; stroke: #1f77b4; stroke-opacity: 0.3"/>
    <path d="M 559.854545 267.688052 
C 560.881673 267.688052 561.86687 267.27997 562.593158 266.553682 
C 563.319447 265.827393 563.727529 264.842196 563.727529 263.815069 
C 563.727529 262.787942 563.319447 261.802745 562.593158 261.076456 
C 561.86687 260.350167 560.881673 259.942085 559.854545 259.942085 
C 558.827418 259.942085 557.842221 260.350167 557.115933 261.076456 
C 556.389644 261.802745 555.981562 262.787942 555.981562 263.815069 
C 555.981562 264.842196 556.389644 265.827393 557.115933 266.553682 
C 557.842221 267.27997 558.827418 267.688052 559.854545 267.688052 
z
" clip-path="url(#pffa4467f90)" style="fill: #1f77b4; fill-opacity: 0.3; stroke: #1f77b4; stroke-opacity: 0.3"/>
    <path d="M 568.581818 267.978777 
C 570.719954 267.978777 572.770805 267.129287 574.282695 265.617396 
C 575.794586 264.105506 576.644076 262.054655 576.644076 259.916519 
C 576.644076 257.778383 575.794586 255.727532 574.282695 254.215642 
C 572.770805 252.703752 570.719954 251.854261 568.581818 251.854261 
C 566.443682 251.854261 564.392831 252.703752 562.880941 254.215642 
C 561.369051 255.727532 560.51956 257.778383 560.51956 259.916519 
C 560.51956 262.054655 561.369051 264.105506 562.880941 265.617396 
C 564.392831 267.129287 566.443682 267.978777 568.581818 267.978777 
z
" clip-path="url(#pffa4467f90)" style="fill: #1f77b4; fill-opacity: 0.3; stroke: #1f77b4; stroke-opacity: 0.3"/>
    <path d="M 577.309091 264.084681 
C 579.527939 264.084681 581.656208 263.203124 583.225171 261.634161 
C 584.794133 260.065198 585.675691 257.936929 585.675691 255.718081 
C 585.675691 253.499233 584.794133 251.370964 583.225171 249.802001 
C 581.656208 248.233039 579.527939 247.351481 577.309091 247.351481 
C 575.090243 247.351481 572.961974 248.233039 571.393011 249.802001 
C 569.824048 251.370964 568.942491 253.499233 568.942491 255.718081 
C 568.942491 257.936929 569.824048 260.065198 571.393011 261.634161 
C 572.961974 263.203124 575.090243 264.084681 577.309091 264.084681 
z
" clip-path="url(#pffa4467f90)" style="fill: #1f77b4; fill-opacity: 0.3; stroke: #1f77b4; stroke-opacity: 0.3"/>
    <path d="M 586.036364 259.885426 
C 588.215229 259.885426 590.305148 259.019753 591.845839 257.479062 
C 593.386529 255.938371 594.252202 253.848453 594.252202 251.669587 
C 594.252202 249.490721 593.386529 247.400803 591.845839 245.860112 
C 590.305148 244.319421 588.215229 243.453749 586.036364 243.453749 
C 583.857498 243.453749 581.767579 244.319421 580.226889 245.860112 
C 578.686198 247.400803 577.820525 249.490721 577.820525 251.669587 
C 577.820525 253.848453 578.686198 255.938371 580.226889 257.479062 
C 581.767579 259.019753 583.857498 259.885426 586.036364 259.885426 
z
" clip-path="url(#pffa4467f90)" style="fill: #1f77b4; fill-opacity: 0.3; stroke: #1f77b4; stroke-opacity: 0.3"/>
    <path d="M 594.763636 255.544148 
C 596.387667 255.544148 597.9454 254.898914 599.093763 253.750551 
C 600.242126 252.602188 600.887361 251.044455 600.887361 249.420424 
C 600.887361 247.796393 600.242126 246.23866 599.093763 245.090297 
C 597.9454 243.941934 596.387667 243.2967 594.763636 243.2967 
C 593.139606 243.2967 591.581872 243.941934 590.433509 245.090297 
C 589.285146 246.23866 588.639912 247.796393 588.639912 249.420424 
C 588.639912 251.044455 589.285146 252.602188 590.433509 253.750551 
C 591.581872 254.898914 593.139606 255.544148 594.763636 255.544148 
z
" clip-path="url(#pffa4467f90)" style="fill: #1f77b4; fill-opacity: 0.3; stroke: #1f77b4; stroke-opacity: 0.3"/>
    <path d="M 603.490909 253.015082 
C 604.881646 253.015082 606.215609 252.462536 607.199008 251.479137 
C 608.182408 250.495737 608.734953 249.161774 608.734953 247.771038 
C 608.734953 246.380301 608.182408 245.046338 607.199008 244.062938 
C 606.215609 243.079539 604.881646 242.526993 603.490909 242.526993 
C 602.100172 242.526993 600.766209 243.079539 599.78281 244.062938 
C 598.79941 245.046338 598.246865 246.380301 598.246865 247.771038 
C 598.246865 249.161774 598.79941 250.495737 599.78281 251.479137 
C 600.766209 252.462536 602.100172 253.015082 603.490909 253.015082 
z
" clip-path="url(#pffa4467f90)" style="fill: #1f77b4; fill-opacity: 0.3; stroke: #1f77b4; stroke-opacity: 0.3"/>
    <path d="M 612.218182 251.814122 
C 614.045968 251.814122 615.799139 251.087935 617.091579 249.795495 
C 618.384019 248.503055 619.110206 246.749884 619.110206 244.922097 
C 619.110206 243.094311 618.384019 241.34114 617.091579 240.0487 
C 615.799139 238.75626 614.045968 238.030073 612.218182 238.030073 
C 610.390396 238.030073 608.637225 238.75626 607.344785 240.0487 
C 606.052345 241.34114 605.326157 243.094311 605.326157 244.922097 
C 605.326157 246.749884 606.052345 248.503055 607.344785 249.795495 
C 608.637225 251.087935 610.390396 251.814122 612.218182 251.814122 
z
" clip-path="url(#pffa4467f90)" style="fill: #1f77b4; fill-opacity: 0.3; stroke: #1f77b4; stroke-opacity: 0.3"/>
    <path d="M 620.945455 248.124589 
C 624.220471 248.124589 627.361793 246.823411 629.677579 244.507625 
C 631.993366 242.191838 633.294544 239.050517 633.294544 235.7755 
C 633.294544 232.500483 631.993366 229.359162 629.677579 227.043376 
C 627.361793 224.727589 624.220471 223.426411 620.945455 223.426411 
C 617.670438 223.426411 614.529116 224.727589 612.21333 227.043376 
C 609.897543 229.359162 608.596366 232.500483 608.596366 235.7755 
C 608.596366 239.050517 609.897543 242.191838 612.21333 244.507625 
C 614.529116 246.823411 617.670438 248.124589 620.945455 248.124589 
z
" clip-path="url(#pffa4467f90)" style="fill: #1f77b4; fill-opacity: 0.3; stroke: #1f77b4; stroke-opacity: 0.3"/>
    <path d="M 629.672727 239.724794 
C 632.39025 239.724794 634.996837 238.64511 636.918416 236.723531 
C 638.839995 234.801952 639.919678 232.195366 639.919678 229.477843 
C 639.919678 226.76032 638.839995 224.153734 636.918416 222.232155 
C 634.996837 220.310576 632.39025 219.230892 629.672727 219.230892 
C 626.955204 219.230892 624.348618 220.310576 622.427039 222.232155 
C 620.50546 224.153734 619.425777 226.76032 619.425777 229.477843 
C 619.425777 232.195366 620.50546 234.801952 622.427039 236.723531 
C 624.348618 238.64511 626.955204 239.724794 629.672727 239.724794 
z
" clip-path="url(#pffa4467f90)" style="fill: #1f77b4; fill-opacity: 0.3; stroke: #1f77b4; stroke-opacity: 0.3"/>
    <path d="M 638.4 233.583939 
C 640.880748 233.583939 643.260225 232.598327 645.014378 230.844174 
C 646.768532 229.09002 647.754143 226.710543 647.754143 224.229795 
C 647.754143 221.749048 646.768532 219.369571 645.014378 217.615417 
C 643.260225 215.861264 640.880748 214.875652 638.4 214.875652 
C 635.919252 214.875652 633.539775 215.861264 631.785622 217.615417 
C 630.031468 219.369571 629.045857 221.749048 629.045857 224.229795 
C 629.045857 226.710543 630.031468 229.09002 631.785622 230.844174 
C 633.539775 232.598327 635.919252 233.583939 638.4 233.583939 
z
" clip-path="url(#pffa4467f90)" style="fill: #1f77b4; fill-opacity: 0.3; stroke: #1f77b4; stroke-opacity: 0.3"/>
    <path d="M 647.127273 221.611494 
C 652.159148 221.611494 656.985608 219.612309 660.543681 216.054236 
C 664.101754 212.496163 666.100939 207.669703 666.100939 202.637828 
C 666.100939 197.605953 664.101754 192.779493 660.543681 189.22142 
C 656.985608 185.663347 652.159148 183.664162 647.127273 183.664162 
C 642.095398 183.664162 637.268938 185.663347 633.710865 189.22142 
C 630.152792 192.779493 628.153607 197.605953 628.153607 202.637828 
C 628.153607 207.669703 630.152792 212.496163 633.710865 216.054236 
C 637.268938 219.612309 642.095398 221.611494 647.127273 221.611494 
z
" clip-path="url(#pffa4467f90)" style="fill: #1f77b4; fill-opacity: 0.3; stroke: #1f77b4; stroke-opacity: 0.3"/>
    <path d="M 655.854545 205.690509 
C 659.209129 205.690509 662.426769 204.357719 664.798817 201.98567 
C 667.170866 199.613622 668.503656 196.395982 668.503656 193.041398 
C 668.503656 189.686815 667.170866 186.469175 664.798817 184.097126 
C 662.426769 181.725078 659.209129 180.392288 655.854545 180.392288 
C 652.499962 180.392288 649.282322 181.725078 646.910274 184.097126 
C 644.538225 186.469175 643.205435 189.686815 643.205435 193.041398 
C 643.205435 196.395982 644.538225 199.613622 646.910274 201.98567 
C 649.282322 204.357719 652.499962 205.690509 655.854545 205.690509 
z
" clip-path="url(#pffa4467f90)" style="fill: #1f77b4; fill-opacity: 0.3; stroke: #1f77b4; stroke-opacity: 0.3"/>
    <path d="M 664.581818 196.90051 
C 667.394722 196.90051 670.092795 195.782932 672.081818 193.793909 
C 674.070841 191.804885 675.18842 189.106812 675.18842 186.293909 
C 675.18842 183.481005 674.070841 180.782932 672.081818 178.793909 
C 670.092795 176.804885 667.394722 175.687307 664.581818 175.687307 
C 661.768915 175.687307 659.070841 176.804885 657.081818 178.793909 
C 655.092795 180.782932 653.975216 183.481005 653.975216 186.293909 
C 653.975216 189.106812 655.092795 191.804885 657.081818 193.793909 
C 659.070841 195.782932 661.768915 196.90051 664.581818 196.90051 
z
" clip-path="url(#pffa4467f90)" style="fill: #1f77b4; fill-opacity: 0.3; stroke: #1f77b4; stroke-opacity: 0.3"/>
    <path d="M 673.309091 189.729192 
C 676.447016 189.729192 679.456843 188.482481 681.675691 186.263633 
C 683.89454 184.044784 685.14125 181.034958 685.14125 177.897032 
C 685.14125 174.759107 683.89454 171.74928 681.675691 169.530432 
C 679.456843 167.311584 676.447016 166.064873 673.309091 166.064873 
C 670.171166 166.064873 667.161339 167.311584 664.942491 169.530432 
C 662.723642 171.74928 661.476931 174.759107 661.476931 177.897032 
C 661.476931 181.034958 662.723642 184.044784 664.942491 186.263633 
C 667.161339 188.482481 670.171166 189.729192 673.309091 189.729192 
z
" clip-path="url(#pffa4467f90)" style="fill: #1f77b4; fill-opacity: 0.3; stroke: #1f77b4; stroke-opacity: 0.3"/>
    <path d="M 682.036364 180.682845 
C 682.973998 180.682845 683.873356 180.310319 684.536364 179.647311 
C 685.199371 178.984304 685.571898 178.084946 685.571898 177.147311 
C 685.571898 176.209677 685.199371 175.310319 684.536364 174.647311 
C 683.873356 173.984304 682.973998 173.611777 682.036364 173.611777 
C 681.098729 173.611777 680.199371 173.984304 679.536364 174.647311 
C 678.873356 175.310319 678.50083 176.209677 678.50083 177.147311 
C 678.50083 178.084946 678.873356 178.984304 679.536364 179.647311 
C 680.199371 180.310319 681.098729 180.682845 682.036364 180.682845 
z
" clip-path="url(#pffa4467f90)" style="fill: #1f77b4; fill-opacity: 0.3; stroke: #1f77b4; stroke-opacity: 0.3"/>
    <path d="M 699.490909 180.419893 
C 700.676933 180.419893 701.814541 179.948681 702.653187 179.110035 
C 703.491833 178.271389 703.963045 177.133782 703.963045 175.947758 
C 703.963045 174.761733 703.491833 173.624126 702.653187 172.78548 
C 701.814541 171.946834 700.676933 171.475622 699.490909 171.475622 
C 698.304885 171.475622 697.167277 171.946834 696.328631 172.78548 
C 695.489986 173.624126 695.018773 174.761733 695.018773 175.947758 
C 695.018773 177.133782 695.489986 178.271389 696.328631 179.110035 
C 697.167277 179.948681 698.304885 180.419893 699.490909 180.419893 
z
" clip-path="url(#pffa4467f90)" style="fill: #1f77b4; fill-opacity: 0.3; stroke: #1f77b4; stroke-opacity: 0.3"/>
    <path d="M 716.945455 179.341676 
C 718.203423 179.341676 719.410038 178.84188 720.299557 177.952362 
C 721.189075 177.062843 721.688871 175.856228 721.688871 174.59826 
C 721.688871 173.340291 721.189075 172.133676 720.299557 171.244158 
C 719.410038 170.354639 718.203423 169.854843 716.945455 169.854843 
C 715.687486 169.854843 714.480871 170.354639 713.591353 171.244158 
C 712.701834 172.133676 712.202038 173.340291 712.202038 174.59826 
C 712.202038 175.856228 712.701834 177.062843 713.591353 177.952362 
C 714.480871 178.84188 715.687486 179.341676 716.945455 179.341676 
z
" clip-path="url(#pffa4467f90)" style="fill: #1f77b4; fill-opacity: 0.3; stroke: #1f77b4; stroke-opacity: 0.3"/>
    <path d="M 725.672727 178.472821 
C 727.296758 178.472821 728.854491 177.827586 730.002854 176.679223 
C 731.151217 175.53086 731.796452 173.973127 731.796452 172.349096 
C 731.796452 170.725066 731.151217 169.167332 730.002854 168.018969 
C 728.854491 166.870606 727.296758 166.225372 725.672727 166.225372 
C 724.048697 166.225372 722.490963 166.870606 721.3426 168.018969 
C 720.194237 169.167332 719.549003 170.725066 719.549003 172.349096 
C 719.549003 173.973127 720.194237 175.53086 721.3426 176.679223 
C 722.490963 177.827586 724.048697 178.472821 725.672727 178.472821 
z
" clip-path="url(#pffa4467f90)" style="fill: #1f77b4; fill-opacity: 0.3; stroke: #1f77b4; stroke-opacity: 0.3"/>
    <path d="M 734.4 176.100699 
C 735.91189 176.100699 737.362061 175.500018 738.431129 174.43095 
C 739.500197 173.361882 740.100877 171.911712 740.100877 170.399821 
C 740.100877 168.887931 739.500197 167.43776 738.431129 166.368693 
C 737.362061 165.299625 735.91189 164.698944 734.4 164.698944 
C 732.88811 164.698944 731.437939 165.299625 730.368871 166.368693 
C 729.299803 167.43776 728.699123 168.887931 728.699123 170.399821 
C 728.699123 171.911712 729.299803 173.361882 730.368871 174.43095 
C 731.437939 175.500018 732.88811 176.100699 734.4 176.100699 
z
" clip-path="url(#pffa4467f90)" style="fill: #1f77b4; fill-opacity: 0.3; stroke: #1f77b4; stroke-opacity: 0.3"/>
    <path d="M 743.127273 174.274383 
C 744.751303 174.274383 746.309037 173.629148 747.4574 172.480785 
C 748.605763 171.332422 749.250997 169.774689 749.250997 168.150658 
C 749.250997 166.526628 748.605763 164.968894 747.4574 163.820531 
C 746.309037 162.672168 744.751303 162.026934 743.127273 162.026934 
C 741.503242 162.026934 739.945509 162.672168 738.797146 163.820531 
C 737.648783 164.968894 737.003548 166.526628 737.003548 168.150658 
C 737.003548 169.774689 737.648783 171.332422 738.797146 172.480785 
C 739.945509 173.629148 741.503242 174.274383 743.127273 174.274383 
z
" clip-path="url(#pffa4467f90)" style="fill: #1f77b4; fill-opacity: 0.3; stroke: #1f77b4; stroke-opacity: 0.3"/>
    <path d="M 751.854545 171.902261 
C 753.366436 171.902261 754.816606 171.30158 755.885674 170.232512 
C 756.954742 169.163444 757.555423 167.713274 757.555423 166.201383 
C 757.555423 164.689493 756.954742 163.239322 755.885674 162.170255 
C 754.816606 161.101187 753.366436 160.500506 751.854545 160.500506 
C 750.342655 160.500506 748.892484 161.101187 747.823417 162.170255 
C 746.754349 163.239322 746.153668 164.689493 746.153668 166.201383 
C 746.153668 167.713274 746.754349 169.163444 747.823417 170.232512 
C 748.892484 171.30158 750.342655 171.902261 751.854545 171.902261 
z
" clip-path="url(#pffa4467f90)" style="fill: #1f77b4; fill-opacity: 0.3; stroke: #1f77b4; stroke-opacity: 0.3"/>
    <path d="M 760.581818 168.137563 
C 761.17483 168.137563 761.743634 167.901957 762.162957 167.482634 
C 762.58228 167.063311 762.817886 166.494507 762.817886 165.901495 
C 762.817886 165.308483 762.58228 164.739679 762.162957 164.320356 
C 761.743634 163.901033 761.17483 163.665427 760.581818 163.665427 
C 759.988806 163.665427 759.420002 163.901033 759.000679 164.320356 
C 758.581356 164.739679 758.34575 165.308483 758.34575 165.901495 
C 758.34575 166.494507 758.581356 167.063311 759.000679 167.482634 
C 759.420002 167.901957 759.988806 168.137563 760.581818 168.137563 
z
" clip-path="url(#pffa4467f90)" style="fill: #1f77b4; fill-opacity: 0.3; stroke: #1f77b4; stroke-opacity: 0.3"/>
    <path d="M 769.309091 168.190275 
C 770.03538 168.190275 770.732019 167.901718 771.245583 167.388154 
C 771.759146 166.87459 772.047704 166.177951 772.047704 165.451662 
C 772.047704 164.725374 771.759146 164.028734 771.245583 163.515171 
C 770.732019 163.001607 770.03538 162.71305 769.309091 162.71305 
C 768.582802 162.71305 767.886163 163.001607 767.372599 163.515171 
C 766.859036 164.028734 766.570478 164.725374 766.570478 165.451662 
C 766.570478 166.177951 766.859036 166.87459 767.372599 167.388154 
C 767.886163 167.901718 768.582802 168.190275 769.309091 168.190275 
z
" clip-path="url(#pffa4467f90)" style="fill: #1f77b4; fill-opacity: 0.3; stroke: #1f77b4; stroke-opacity: 0.3"/>
    <path d="M 778.036364 167.598261 
C 781.786902 167.598261 785.384333 166.108156 788.036364 163.456125 
C 790.688395 160.804094 792.178499 157.206663 792.178499 153.456125 
C 792.178499 149.705587 790.688395 146.108156 788.036364 143.456125 
C 785.384333 140.804094 781.786902 139.313989 778.036364 139.313989 
C 774.285825 139.313989 770.688395 140.804094 768.036364 143.456125 
C 765.384333 146.108156 763.894228 149.705587 763.894228 153.456125 
C 763.894228 157.206663 765.384333 160.804094 768.036364 163.456125 
C 770.688395 166.108156 774.285825 167.598261 778.036364 167.598261 
z
" clip-path="url(#pffa4467f90)" style="fill: #1f77b4; fill-opacity: 0.3; stroke: #1f77b4; stroke-opacity: 0.3"/>
    <path d="M 786.763636 155.223801 
C 790.652277 155.223801 794.382173 153.678827 797.131857 150.929143 
C 799.881541 148.179459 801.426515 144.449563 801.426515 140.560922 
C 801.426515 136.672281 799.881541 132.942386 797.131857 130.192702 
C 794.382173 127.443017 790.652277 125.898044 786.763636 125.898044 
C 782.874996 125.898044 779.1451 127.443017 776.395416 130.192702 
C 773.645731 132.942386 772.100758 136.672281 772.100758 140.560922 
C 772.100758 144.449563 773.645731 148.179459 776.395416 150.929143 
C 779.1451 153.678827 782.874996 155.223801 786.763636 155.223801 
z
" clip-path="url(#pffa4467f90)" style="fill: #1f77b4; fill-opacity: 0.3; stroke: #1f77b4; stroke-opacity: 0.3"/>
    <path d="M 795.490909 141.992117 
C 795.910232 141.992117 796.312437 141.825518 796.608943 141.529012 
C 796.905449 141.232506 797.072048 140.830301 797.072048 140.410978 
C 797.072048 139.991655 796.905449 139.58945 796.608943 139.292944 
C 796.312437 138.996438 795.910232 138.829839 795.490909 138.829839 
C 795.071586 138.829839 794.669381 138.996438 794.372875 139.292944 
C 794.076369 139.58945 793.90977 139.991655 793.90977 140.410978 
C 793.90977 140.830301 794.076369 141.232506 794.372875 141.529012 
C 794.669381 141.825518 795.071586 141.992117 795.490909 141.992117 
z
" clip-path="url(#pffa4467f90)" style="fill: #1f77b4; fill-opacity: 0.3; stroke: #1f77b4; stroke-opacity: 0.3"/>
    <path d="M 804.218182 143.804897 
C 805.476151 143.804897 806.682766 143.3051 807.572284 142.415582 
C 808.461802 141.526064 808.961598 140.319449 808.961598 139.06148 
C 808.961598 137.803511 808.461802 136.596896 807.572284 135.707378 
C 806.682766 134.81786 805.476151 134.318064 804.218182 134.318064 
C 802.960213 134.318064 801.753598 134.81786 800.86408 135.707378 
C 799.974562 136.596896 799.474765 137.803511 799.474765 139.06148 
C 799.474765 140.319449 799.974562 141.526064 800.86408 142.415582 
C 801.753598 143.3051 802.960213 143.804897 804.218182 143.804897 
z
" clip-path="url(#pffa4467f90)" style="fill: #1f77b4; fill-opacity: 0.3; stroke: #1f77b4; stroke-opacity: 0.3"/>
    <path d="M 812.945455 142.455399 
C 814.203423 142.455399 815.410038 141.955602 816.299557 141.066084 
C 817.189075 140.176566 817.688871 138.969951 817.688871 137.711982 
C 817.688871 136.454013 817.189075 135.247398 816.299557 134.35788 
C 815.410038 133.468362 814.203423 132.968566 812.945455 132.968566 
C 811.687486 132.968566 810.480871 133.468362 809.591353 134.35788 
C 808.701834 135.247398 808.202038 136.454013 808.202038 137.711982 
C 808.202038 138.969951 808.701834 140.176566 809.591353 141.066084 
C 810.480871 141.955602 811.687486 142.455399 812.945455 142.455399 
z
" clip-path="url(#pffa4467f90)" style="fill: #1f77b4; fill-opacity: 0.3; stroke: #1f77b4; stroke-opacity: 0.3"/>
    <path d="M 821.672727 141.010231 
C 824.893608 141.010231 827.983003 139.730562 830.260509 137.453055 
C 832.538016 135.175549 833.817685 132.086154 833.817685 128.865273 
C 833.817685 125.644393 832.538016 122.554998 830.260509 120.277491 
C 827.983003 117.999985 824.893608 116.720316 821.672727 116.720316 
C 818.451847 116.720316 815.362452 117.999985 813.084945 120.277491 
C 810.807439 122.554998 809.527769 125.644393 809.527769 128.865273 
C 809.527769 132.086154 810.807439 135.175549 813.084945 137.453055 
C 815.362452 139.730562 818.451847 141.010231 821.672727 141.010231 
z
" clip-path="url(#pffa4467f90)" style="fill: #1f77b4; fill-opacity: 0.3; stroke: #1f77b4; stroke-opacity: 0.3"/>
    <path d="M 830.4 132.790721 
C 832.077292 132.790721 833.686112 132.124326 834.872136 130.938302 
C 836.05816 129.752277 836.724555 128.143458 836.724555 126.466166 
C 836.724555 124.788874 836.05816 123.180054 834.872136 121.99403 
C 833.686112 120.808006 832.077292 120.141611 830.4 120.141611 
C 828.722708 120.141611 827.113888 120.808006 825.927864 121.99403 
C 824.74184 123.180054 824.075445 124.788874 824.075445 126.466166 
C 824.075445 128.143458 824.74184 129.752277 825.927864 130.938302 
C 827.113888 132.124326 828.722708 132.790721 830.4 132.790721 
z
" clip-path="url(#pffa4467f90)" style="fill: #1f77b4; fill-opacity: 0.3; stroke: #1f77b4; stroke-opacity: 0.3"/>
    <path d="M 839.127273 129.599856 
C 840.236697 129.599856 841.300831 129.159078 842.085313 128.374596 
C 842.869794 127.590115 843.310573 126.525981 843.310573 125.416556 
C 843.310573 124.307132 842.869794 123.242998 842.085313 122.458516 
C 841.300831 121.674035 840.236697 121.233256 839.127273 121.233256 
C 838.017849 121.233256 836.953714 121.674035 836.169233 122.458516 
C 835.384751 123.242998 834.943973 124.307132 834.943973 125.416556 
C 834.943973 126.525981 835.384751 127.590115 836.169233 128.374596 
C 836.953714 129.159078 838.017849 129.599856 839.127273 129.599856 
z
" clip-path="url(#pffa4467f90)" style="fill: #1f77b4; fill-opacity: 0.3; stroke: #1f77b4; stroke-opacity: 0.3"/>
    <path d="M 847.854545 129.342004 
C 849.531837 129.342004 851.140657 128.675609 852.326681 127.489585 
C 853.512706 126.303561 854.179101 124.694741 854.179101 123.017449 
C 854.179101 121.340157 853.512706 119.731337 852.326681 118.545313 
C 851.140657 117.359289 849.531837 116.692894 847.854545 116.692894 
C 846.177254 116.692894 844.568434 117.359289 843.382409 118.545313 
C 842.196385 119.731337 841.52999 121.340157 841.52999 123.017449 
C 841.52999 124.694741 842.196385 126.303561 843.382409 127.489585 
C 844.568434 128.675609 846.177254 129.342004 847.854545 129.342004 
z
" clip-path="url(#pffa4467f90)" style="fill: #1f77b4; fill-opacity: 0.3; stroke: #1f77b4; stroke-opacity: 0.3"/>
    <path d="M 856.581818 127.134875 
C 858.548617 127.134875 860.435126 126.353457 861.825862 124.96272 
C 863.216599 123.571984 863.998017 121.685475 863.998017 119.718676 
C 863.998017 117.751877 863.216599 115.865369 861.825862 114.474632 
C 860.435126 113.083895 858.548617 112.302478 856.581818 112.302478 
C 854.615019 112.302478 852.728511 113.083895 851.337774 114.474632 
C 849.947037 115.865369 849.16562 117.751877 849.16562 119.718676 
C 849.16562 121.685475 849.947037 123.571984 851.337774 124.96272 
C 852.728511 126.353457 854.615019 127.134875 856.581818 127.134875 
z
" clip-path="url(#pffa4467f90)" style="fill: #1f77b4; fill-opacity: 0.3; stroke: #1f77b4; stroke-opacity: 0.3"/>
    <path d="M 865.309091 121.149871 
C 865.728414 121.149871 866.130619 120.983272 866.427125 120.686766 
C 866.723631 120.39026 866.89023 119.988055 866.89023 119.568732 
C 866.89023 119.149409 866.723631 118.747204 866.427125 118.450698 
C 866.130619 118.154192 865.728414 117.987593 865.309091 117.987593 
C 864.889768 117.987593 864.487563 118.154192 864.191057 118.450698 
C 863.894551 118.747204 863.727952 119.149409 863.727952 119.568732 
C 863.727952 119.988055 863.894551 120.39026 864.191057 120.686766 
C 864.487563 120.983272 864.889768 121.149871 865.309091 121.149871 
z
" clip-path="url(#pffa4467f90)" style="fill: #1f77b4; fill-opacity: 0.3; stroke: #1f77b4; stroke-opacity: 0.3"/>
    <path d="M 874.036364 122.354545 
C 874.973998 122.354545 875.873356 121.982019 876.536364 121.319011 
C 877.199371 120.656003 877.571898 119.756645 877.571898 118.819011 
C 877.571898 117.881376 877.199371 116.982019 876.536364 116.319011 
C 875.873356 115.656003 874.973998 115.283477 874.036364 115.283477 
C 873.098729 115.283477 872.199371 115.656003 871.536364 116.319011 
C 870.873356 116.982019 870.50083 117.881376 870.50083 118.819011 
C 870.50083 119.756645 870.873356 120.656003 871.536364 121.319011 
C 872.199371 121.982019 873.098729 122.354545 874.036364 122.354545 
z
" clip-path="url(#pffa4467f90)" style="fill: #1f77b4; fill-opacity: 0.3; stroke: #1f77b4; stroke-opacity: 0.3"/>
    <path d="M 882.763636 121.792329 
C 883.790764 121.792329 884.775961 121.384247 885.502249 120.657958 
C 886.228538 119.93167 886.63662 118.946473 886.63662 117.919345 
C 886.63662 116.892218 886.228538 115.907021 885.502249 115.180733 
C 884.775961 114.454444 883.790764 114.046362 882.763636 114.046362 
C 881.736509 114.046362 880.751312 114.454444 880.025024 115.180733 
C 879.298735 115.907021 878.890653 116.892218 878.890653 117.919345 
C 878.890653 118.946473 879.298735 119.93167 880.025024 120.657958 
C 880.751312 121.384247 881.736509 121.792329 882.763636 121.792329 
z
" clip-path="url(#pffa4467f90)" style="fill: #1f77b4; fill-opacity: 0.3; stroke: #1f77b4; stroke-opacity: 0.3"/>
    <path d="M 891.490909 121.514003 
C 892.881646 121.514003 894.215609 120.961458 895.199008 119.978058 
C 896.182408 118.994659 896.734953 117.660696 896.734953 116.269959 
C 896.734953 114.879222 896.182408 113.545259 895.199008 112.56186 
C 894.215609 111.57846 892.881646 111.025915 891.490909 111.025915 
C 890.100172 111.025915 888.766209 111.57846 887.78281 112.56186 
C 886.79941 113.545259 886.246865 114.879222 886.246865 116.269959 
C 886.246865 117.660696 886.79941 118.994659 887.78281 119.978058 
C 888.766209 120.961458 890.100172 121.514003 891.490909 121.514003 
z
" clip-path="url(#pffa4467f90)" style="fill: #1f77b4; fill-opacity: 0.3; stroke: #1f77b4; stroke-opacity: 0.3"/>
    <path d="M 900.218182 120.404751 
C 902.627009 120.404751 904.9375 119.447714 906.640798 117.744416 
C 908.344096 116.041118 909.301133 113.730627 909.301133 111.3218 
C 909.301133 108.912973 908.344096 106.602481 906.640798 104.899184 
C 904.9375 103.195886 902.627009 102.238849 900.218182 102.238849 
C 897.809355 102.238849 895.498863 103.195886 893.795566 104.899184 
C 892.092268 106.602481 891.135231 108.912973 891.135231 111.3218 
C 891.135231 113.730627 892.092268 116.041118 893.795566 117.744416 
C 895.498863 119.447714 897.809355 120.404751 900.218182 120.404751 
z
" clip-path="url(#pffa4467f90)" style="fill: #1f77b4; fill-opacity: 0.3; stroke: #1f77b4; stroke-opacity: 0.3"/>
    <path d="M 908.945455 112.752995 
C 909.364777 112.752995 909.766982 112.586396 910.063489 112.28989 
C 910.359995 111.993384 910.526593 111.591179 910.526593 111.171856 
C 910.526593 110.752533 910.359995 110.350328 910.063489 110.053822 
C 909.766982 109.757316 909.364777 109.590717 908.945455 109.590717 
C 908.526132 109.590717 908.123927 109.757316 907.827421 110.053822 
C 907.530914 110.350328 907.364316 110.752533 907.364316 111.171856 
C 907.364316 111.591179 907.530914 111.993384 907.827421 112.28989 
C 908.123927 112.586396 908.526132 112.752995 908.945455 112.752995 
z
" clip-path="url(#pffa4467f90)" style="fill: #1f77b4; fill-opacity: 0.3; stroke: #1f77b4; stroke-opacity: 0.3"/>
    <path d="M 917.672727 114.964219 
C 920.54746 114.964219 923.304839 113.822076 925.337582 111.789332 
C 927.370325 109.756589 928.512469 106.999211 928.512469 104.124478 
C 928.512469 101.249744 927.370325 98.492366 925.337582 96.459623 
C 923.304839 94.426879 920.54746 93.284736 917.672727 93.284736 
C 914.797994 93.284736 912.040616 94.426879 910.007872 96.459623 
C 907.975129 98.492366 906.832986 101.249744 906.832986 104.124478 
C 906.832986 106.999211 907.975129 109.756589 910.007872 111.789332 
C 912.040616 113.822076 914.797994 114.964219 917.672727 114.964219 
z
" clip-path="url(#pffa4467f90)" style="fill: #1f77b4; fill-opacity: 0.3; stroke: #1f77b4; stroke-opacity: 0.3"/>
    <path d="M 926.4 107.097796 
C 927.427127 107.097796 928.412324 106.689714 929.138613 105.963425 
C 929.864901 105.237136 930.272983 104.251939 930.272983 103.224812 
C 930.272983 102.197685 929.864901 101.212488 929.138613 100.486199 
C 928.412324 99.759911 927.427127 99.351829 926.4 99.351829 
C 925.372873 99.351829 924.387676 99.759911 923.661387 100.486199 
C 922.935099 101.212488 922.527017 102.197685 922.527017 103.224812 
C 922.527017 104.251939 922.935099 105.237136 923.661387 105.963425 
C 924.387676 106.689714 925.372873 107.097796 926.4 107.097796 
z
" clip-path="url(#pffa4467f90)" style="fill: #1f77b4; fill-opacity: 0.3; stroke: #1f77b4; stroke-opacity: 0.3"/>
    <path d="M 935.127273 106.81947 
C 936.51801 106.81947 937.851973 106.266924 938.835372 105.283525 
C 939.818771 104.300126 940.371317 102.966163 940.371317 101.575426 
C 940.371317 100.184689 939.818771 98.850726 938.835372 97.867327 
C 937.851973 96.883927 936.51801 96.331382 935.127273 96.331382 
C 933.736536 96.331382 932.402573 96.883927 931.419173 97.867327 
C 930.435774 98.850726 929.883228 100.184689 929.883228 101.575426 
C 929.883228 102.966163 930.435774 104.300126 931.419173 105.283525 
C 932.402573 106.266924 933.736536 106.81947 935.127273 106.81947 
z
" clip-path="url(#pffa4467f90)" style="fill: #1f77b4; fill-opacity: 0.3; stroke: #1f77b4; stroke-opacity: 0.3"/>
    <path d="M 943.854545 104.969344 
C 945.112514 104.969344 946.319129 104.469548 947.208647 103.58003 
C 948.098166 102.690512 948.597962 101.483897 948.597962 100.225928 
C 948.597962 98.967959 948.098166 97.761344 947.208647 96.871826 
C 946.319129 95.982308 945.112514 95.482511 943.854545 95.482511 
C 942.596577 95.482511 941.389962 95.982308 940.500443 96.871826 
C 939.610925 97.761344 939.111129 98.967959 939.111129 100.225928 
C 939.111129 101.483897 939.610925 102.690512 940.500443 103.58003 
C 941.389962 104.469548 942.596577 104.969344 943.854545 104.969344 
z
" clip-path="url(#pffa4467f90)" style="fill: #1f77b4; fill-opacity: 0.3; stroke: #1f77b4; stroke-opacity: 0.3"/>
    <path d="M 952.581818 102.788429 
C 953.420464 102.788429 954.224874 102.455231 954.817886 101.862219 
C 955.410898 101.269207 955.744096 100.464797 955.744096 99.626151 
C 955.744096 98.787505 955.410898 97.983095 954.817886 97.390083 
C 954.224874 96.797071 953.420464 96.463873 952.581818 96.463873 
C 951.743172 96.463873 950.938762 96.797071 950.34575 97.390083 
C 949.752738 97.983095 949.419541 98.787505 949.419541 99.626151 
C 949.419541 100.464797 949.752738 101.269207 950.34575 101.862219 
C 950.938762 102.455231 951.743172 102.788429 952.581818 102.788429 
z
" clip-path="url(#pffa4467f90)" style="fill: #1f77b4; fill-opacity: 0.3; stroke: #1f77b4; stroke-opacity: 0.3"/>
    <path d="M 961.309091 101.914931 
C 962.03538 101.914931 962.732019 101.626374 963.245583 101.11281 
C 963.759146 100.599246 964.047704 99.902607 964.047704 99.176318 
C 964.047704 98.45003 963.759146 97.75339 963.245583 97.239827 
C 962.732019 96.726263 962.03538 96.437706 961.309091 96.437706 
C 960.582802 96.437706 959.886163 96.726263 959.372599 97.239827 
C 958.859036 97.75339 958.570478 98.45003 958.570478 99.176318 
C 958.570478 99.902607 958.859036 100.599246 959.372599 101.11281 
C 959.886163 101.626374 960.582802 101.914931 961.309091 101.914931 
z
" clip-path="url(#pffa4467f90)" style="fill: #1f77b4; fill-opacity: 0.3; stroke: #1f77b4; stroke-opacity: 0.3"/>
    <path d="M 970.036364 101.738819 
C 970.875009 101.738819 971.679419 101.405622 972.272432 100.812609 
C 972.865444 100.219597 973.198641 99.415187 973.198641 98.576541 
C 973.198641 97.737896 972.865444 96.933486 972.272432 96.340473 
C 971.679419 95.747461 970.875009 95.414264 970.036364 95.414264 
C 969.197718 95.414264 968.393308 95.747461 967.800296 96.340473 
C 967.207283 96.933486 966.874086 97.737896 966.874086 98.576541 
C 966.874086 99.415187 967.207283 100.219597 967.800296 100.812609 
C 968.393308 101.405622 969.197718 101.738819 970.036364 101.738819 
z
" clip-path="url(#pffa4467f90)" style="fill: #1f77b4; fill-opacity: 0.3; stroke: #1f77b4; stroke-opacity: 0.3"/>
    <path d="M 978.763636 100.865322 
C 979.489925 100.865322 980.186564 100.576764 980.700128 100.0632 
C 981.213692 99.549637 981.502249 98.852997 981.502249 98.126709 
C 981.502249 97.40042 981.213692 96.703781 980.700128 96.190217 
C 980.186564 95.676654 979.489925 95.388096 978.763636 95.388096 
C 978.037348 95.388096 977.340708 95.676654 976.827145 96.190217 
C 976.313581 96.703781 976.025024 97.40042 976.025024 98.126709 
C 976.025024 98.852997 976.313581 99.549637 976.827145 100.0632 
C 977.340708 100.576764 978.037348 100.865322 978.763636 100.865322 
z
" clip-path="url(#pffa4467f90)" style="fill: #1f77b4; fill-opacity: 0.3; stroke: #1f77b4; stroke-opacity: 0.3"/>
    <path d="M 987.490909 101.471539 
C 990.684377 101.471539 993.747479 100.20276 996.005602 97.944637 
C 998.263725 95.686514 999.532504 92.623412 999.532504 89.429944 
C 999.532504 86.236476 998.263725 83.173374 996.005602 80.915251 
C 993.747479 78.657128 990.684377 77.38835 987.490909 77.38835 
C 984.297441 77.38835 981.234339 78.657128 978.976216 80.915251 
C 976.718093 83.173374 975.449315 86.236476 975.449315 89.429944 
C 975.449315 92.623412 976.718093 95.686514 978.976216 97.944637 
C 981.234339 100.20276 984.297441 101.471539 987.490909 101.471539 
z
" clip-path="url(#pffa4467f90)" style="fill: #1f77b4; fill-opacity: 0.3; stroke: #1f77b4; stroke-opacity: 0.3"/>
    <path d="M 996.218182 90.861139 
C 996.637505 90.861139 997.03971 90.69454 997.336216 90.398034 
C 997.632722 90.101528 997.799321 89.699323 997.799321 89.28 
C 997.799321 88.860677 997.632722 88.458472 997.336216 88.161966 
C 997.03971 87.86546 996.637505 87.698861 996.218182 87.698861 
C 995.798859 87.698861 995.396654 87.86546 995.100148 88.161966 
C 994.803642 88.458472 994.637043 88.860677 994.637043 89.28 
C 994.637043 89.699323 994.803642 90.101528 995.100148 90.398034 
C 995.396654 90.69454 995.798859 90.861139 996.218182 90.861139 
z
" clip-path="url(#pffa4467f90)" style="fill: #1f77b4; fill-opacity: 0.3; stroke: #1f77b4; stroke-opacity: 0.3"/>
   </g>
   <g id="matplotlib.axis_1">
    <g id="xtick_1">
     <g id="line2d_1">
      <defs>
       <path id="m224c303e23" d="M 0 0 
L 0 3.5 
" style="stroke: #000000; stroke-width: 0.8"/>
      </defs>
      <g>
       <use xlink:href="#m224c303e23" x="184.581818" y="512.64" style="stroke: #000000; stroke-width: 0.8"/>
      </g>
     </g>
     <g id="text_1">
      <!-- 2022-01-01 -->
      <g transform="translate(155.524006 527.238438)scale(0.1 -0.1)">
       <defs>
        <path id="DejaVuSans-32" d="M 1228 531 
L 3431 531 
L 3431 0 
L 469 0 
L 469 531 
Q 828 903 1448 1529 
Q 2069 2156 2228 2338 
Q 2531 2678 2651 2914 
Q 2772 3150 2772 3378 
Q 2772 3750 2511 3984 
Q 2250 4219 1831 4219 
Q 1534 4219 1204 4116 
Q 875 4013 500 3803 
L 500 4441 
Q 881 4594 1212 4672 
Q 1544 4750 1819 4750 
Q 2544 4750 2975 4387 
Q 3406 4025 3406 3419 
Q 3406 3131 3298 2873 
Q 3191 2616 2906 2266 
Q 2828 2175 2409 1742 
Q 1991 1309 1228 531 
z
" transform="scale(0.015625)"/>
        <path id="DejaVuSans-30" d="M 2034 4250 
Q 1547 4250 1301 3770 
Q 1056 3291 1056 2328 
Q 1056 1369 1301 889 
Q 1547 409 2034 409 
Q 2525 409 2770 889 
Q 3016 1369 3016 2328 
Q 3016 3291 2770 3770 
Q 2525 4250 2034 4250 
z
M 2034 4750 
Q 2819 4750 3233 4129 
Q 3647 3509 3647 2328 
Q 3647 1150 3233 529 
Q 2819 -91 2034 -91 
Q 1250 -91 836 529 
Q 422 1150 422 2328 
Q 422 3509 836 4129 
Q 1250 4750 2034 4750 
z
" transform="scale(0.015625)"/>
        <path id="DejaVuSans-2d" d="M 313 2009 
L 1997 2009 
L 1997 1497 
L 313 1497 
L 313 2009 
z
" transform="scale(0.015625)"/>
        <path id="DejaVuSans-31" d="M 794 531 
L 1825 531 
L 1825 4091 
L 703 3866 
L 703 4441 
L 1819 4666 
L 2450 4666 
L 2450 531 
L 3481 531 
L 3481 0 
L 794 0 
L 794 531 
z
" transform="scale(0.015625)"/>
       </defs>
       <use xlink:href="#DejaVuSans-32"/>
       <use xlink:href="#DejaVuSans-30" x="63.623047"/>
       <use xlink:href="#DejaVuSans-32" x="127.246094"/>
       <use xlink:href="#DejaVuSans-32" x="190.869141"/>
       <use xlink:href="#DejaVuSans-2d" x="254.492188"/>
       <use xlink:href="#DejaVuSans-30" x="290.576172"/>
       <use xlink:href="#DejaVuSans-31" x="354.199219"/>
       <use xlink:href="#DejaVuSans-2d" x="417.822266"/>
       <use xlink:href="#DejaVuSans-30" x="453.90625"/>
       <use xlink:href="#DejaVuSans-31" x="517.529297"/>
      </g>
     </g>
    </g>
    <g id="xtick_2">
     <g id="line2d_2">
      <g>
       <use xlink:href="#m224c303e23" x="306.763636" y="512.64" style="stroke: #000000; stroke-width: 0.8"/>
      </g>
     </g>
     <g id="text_2">
      <!-- 2022-01-15 -->
      <g transform="translate(277.705824 527.238438)scale(0.1 -0.1)">
       <defs>
        <path id="DejaVuSans-35" d="M 691 4666 
L 3169 4666 
L 3169 4134 
L 1269 4134 
L 1269 2991 
Q 1406 3038 1543 3061 
Q 1681 3084 1819 3084 
Q 2600 3084 3056 2656 
Q 3513 2228 3513 1497 
Q 3513 744 3044 326 
Q 2575 -91 1722 -91 
Q 1428 -91 1123 -41 
Q 819 9 494 109 
L 494 744 
Q 775 591 1075 516 
Q 1375 441 1709 441 
Q 2250 441 2565 725 
Q 2881 1009 2881 1497 
Q 2881 1984 2565 2268 
Q 2250 2553 1709 2553 
Q 1456 2553 1204 2497 
Q 953 2441 691 2322 
L 691 4666 
z
" transform="scale(0.015625)"/>
       </defs>
       <use xlink:href="#DejaVuSans-32"/>
       <use xlink:href="#DejaVuSans-30" x="63.623047"/>
       <use xlink:href="#DejaVuSans-32" x="127.246094"/>
       <use xlink:href="#DejaVuSans-32" x="190.869141"/>
       <use xlink:href="#DejaVuSans-2d" x="254.492188"/>
       <use xlink:href="#DejaVuSans-30" x="290.576172"/>
       <use xlink:href="#DejaVuSans-31" x="354.199219"/>
       <use xlink:href="#DejaVuSans-2d" x="417.822266"/>
       <use xlink:href="#DejaVuSans-31" x="453.90625"/>
       <use xlink:href="#DejaVuSans-35" x="517.529297"/>
      </g>
     </g>
    </g>
    <g id="xtick_3">
     <g id="line2d_3">
      <g>
       <use xlink:href="#m224c303e23" x="455.127273" y="512.64" style="stroke: #000000; stroke-width: 0.8"/>
      </g>
     </g>
     <g id="text_3">
      <!-- 2022-02-01 -->
      <g transform="translate(426.06946 527.238438)scale(0.1 -0.1)">
       <use xlink:href="#DejaVuSans-32"/>
       <use xlink:href="#DejaVuSans-30" x="63.623047"/>
       <use xlink:href="#DejaVuSans-32" x="127.246094"/>
       <use xlink:href="#DejaVuSans-32" x="190.869141"/>
       <use xlink:href="#DejaVuSans-2d" x="254.492188"/>
       <use xlink:href="#DejaVuSans-30" x="290.576172"/>
       <use xlink:href="#DejaVuSans-32" x="354.199219"/>
       <use xlink:href="#DejaVuSans-2d" x="417.822266"/>
       <use xlink:href="#DejaVuSans-30" x="453.90625"/>
       <use xlink:href="#DejaVuSans-31" x="517.529297"/>
      </g>
     </g>
    </g>
    <g id="xtick_4">
     <g id="line2d_4">
      <g>
       <use xlink:href="#m224c303e23" x="577.309091" y="512.64" style="stroke: #000000; stroke-width: 0.8"/>
      </g>
     </g>
     <g id="text_4">
      <!-- 2022-02-15 -->
      <g transform="translate(548.251278 527.238438)scale(0.1 -0.1)">
       <use xlink:href="#DejaVuSans-32"/>
       <use xlink:href="#DejaVuSans-30" x="63.623047"/>
       <use xlink:href="#DejaVuSans-32" x="127.246094"/>
       <use xlink:href="#DejaVuSans-32" x="190.869141"/>
       <use xlink:href="#DejaVuSans-2d" x="254.492188"/>
       <use xlink:href="#DejaVuSans-30" x="290.576172"/>
       <use xlink:href="#DejaVuSans-32" x="354.199219"/>
       <use xlink:href="#DejaVuSans-2d" x="417.822266"/>
       <use xlink:href="#DejaVuSans-31" x="453.90625"/>
       <use xlink:href="#DejaVuSans-35" x="517.529297"/>
      </g>
     </g>
    </g>
    <g id="xtick_5">
     <g id="line2d_5">
      <g>
       <use xlink:href="#m224c303e23" x="699.490909" y="512.64" style="stroke: #000000; stroke-width: 0.8"/>
      </g>
     </g>
     <g id="text_5">
      <!-- 2022-03-01 -->
      <g transform="translate(670.433097 527.238438)scale(0.1 -0.1)">
       <defs>
        <path id="DejaVuSans-33" d="M 2597 2516 
Q 3050 2419 3304 2112 
Q 3559 1806 3559 1356 
Q 3559 666 3084 287 
Q 2609 -91 1734 -91 
Q 1441 -91 1130 -33 
Q 819 25 488 141 
L 488 750 
Q 750 597 1062 519 
Q 1375 441 1716 441 
Q 2309 441 2620 675 
Q 2931 909 2931 1356 
Q 2931 1769 2642 2001 
Q 2353 2234 1838 2234 
L 1294 2234 
L 1294 2753 
L 1863 2753 
Q 2328 2753 2575 2939 
Q 2822 3125 2822 3475 
Q 2822 3834 2567 4026 
Q 2313 4219 1838 4219 
Q 1578 4219 1281 4162 
Q 984 4106 628 3988 
L 628 4550 
Q 988 4650 1302 4700 
Q 1616 4750 1894 4750 
Q 2613 4750 3031 4423 
Q 3450 4097 3450 3541 
Q 3450 3153 3228 2886 
Q 3006 2619 2597 2516 
z
" transform="scale(0.015625)"/>
       </defs>
       <use xlink:href="#DejaVuSans-32"/>
       <use xlink:href="#DejaVuSans-30" x="63.623047"/>
       <use xlink:href="#DejaVuSans-32" x="127.246094"/>
       <use xlink:href="#DejaVuSans-32" x="190.869141"/>
       <use xlink:href="#DejaVuSans-2d" x="254.492188"/>
       <use xlink:href="#DejaVuSans-30" x="290.576172"/>
       <use xlink:href="#DejaVuSans-33" x="354.199219"/>
       <use xlink:href="#DejaVuSans-2d" x="417.822266"/>
       <use xlink:href="#DejaVuSans-30" x="453.90625"/>
       <use xlink:href="#DejaVuSans-31" x="517.529297"/>
      </g>
     </g>
    </g>
    <g id="xtick_6">
     <g id="line2d_6">
      <g>
       <use xlink:href="#m224c303e23" x="821.672727" y="512.64" style="stroke: #000000; stroke-width: 0.8"/>
      </g>
     </g>
     <g id="text_6">
      <!-- 2022-03-15 -->
      <g transform="translate(792.614915 527.238438)scale(0.1 -0.1)">
       <use xlink:href="#DejaVuSans-32"/>
       <use xlink:href="#DejaVuSans-30" x="63.623047"/>
       <use xlink:href="#DejaVuSans-32" x="127.246094"/>
       <use xlink:href="#DejaVuSans-32" x="190.869141"/>
       <use xlink:href="#DejaVuSans-2d" x="254.492188"/>
       <use xlink:href="#DejaVuSans-30" x="290.576172"/>
       <use xlink:href="#DejaVuSans-33" x="354.199219"/>
       <use xlink:href="#DejaVuSans-2d" x="417.822266"/>
       <use xlink:href="#DejaVuSans-31" x="453.90625"/>
       <use xlink:href="#DejaVuSans-35" x="517.529297"/>
      </g>
     </g>
    </g>
    <g id="xtick_7">
     <g id="line2d_7">
      <g>
       <use xlink:href="#m224c303e23" x="970.036364" y="512.64" style="stroke: #000000; stroke-width: 0.8"/>
      </g>
     </g>
     <g id="text_7">
      <!-- 2022-04-01 -->
      <g transform="translate(940.978551 527.238438)scale(0.1 -0.1)">
       <defs>
        <path id="DejaVuSans-34" d="M 2419 4116 
L 825 1625 
L 2419 1625 
L 2419 4116 
z
M 2253 4666 
L 3047 4666 
L 3047 1625 
L 3713 1625 
L 3713 1100 
L 3047 1100 
L 3047 0 
L 2419 0 
L 2419 1100 
L 313 1100 
L 313 1709 
L 2253 4666 
z
" transform="scale(0.015625)"/>
       </defs>
       <use xlink:href="#DejaVuSans-32"/>
       <use xlink:href="#DejaVuSans-30" x="63.623047"/>
       <use xlink:href="#DejaVuSans-32" x="127.246094"/>
       <use xlink:href="#DejaVuSans-32" x="190.869141"/>
       <use xlink:href="#DejaVuSans-2d" x="254.492188"/>
       <use xlink:href="#DejaVuSans-30" x="290.576172"/>
       <use xlink:href="#DejaVuSans-34" x="354.199219"/>
       <use xlink:href="#DejaVuSans-2d" x="417.822266"/>
       <use xlink:href="#DejaVuSans-30" x="453.90625"/>
       <use xlink:href="#DejaVuSans-31" x="517.529297"/>
      </g>
     </g>
    </g>
   </g>
   <g id="matplotlib.axis_2">
    <g id="ytick_1">
     <g id="line2d_8">
      <defs>
       <path id="m390358eef2" d="M 0 0 
L -3.5 0 
" style="stroke: #000000; stroke-width: 0.8"/>
      </defs>
      <g>
       <use xlink:href="#m390358eef2" x="144" y="477.035746" style="stroke: #000000; stroke-width: 0.8"/>
      </g>
     </g>
     <g id="text_8">
      <!-- 500 -->
      <g transform="translate(117.9125 480.834964)scale(0.1 -0.1)">
       <use xlink:href="#DejaVuSans-35"/>
       <use xlink:href="#DejaVuSans-30" x="63.623047"/>
       <use xlink:href="#DejaVuSans-30" x="127.246094"/>
      </g>
     </g>
    </g>
    <g id="ytick_2">
     <g id="line2d_9">
      <g>
       <use xlink:href="#m390358eef2" x="144" y="402.063637" style="stroke: #000000; stroke-width: 0.8"/>
      </g>
     </g>
     <g id="text_9">
      <!-- 1000 -->
      <g transform="translate(111.55 405.862856)scale(0.1 -0.1)">
       <use xlink:href="#DejaVuSans-31"/>
       <use xlink:href="#DejaVuSans-30" x="63.623047"/>
       <use xlink:href="#DejaVuSans-30" x="127.246094"/>
       <use xlink:href="#DejaVuSans-30" x="190.869141"/>
      </g>
     </g>
    </g>
    <g id="ytick_3">
     <g id="line2d_10">
      <g>
       <use xlink:href="#m390358eef2" x="144" y="327.091528" style="stroke: #000000; stroke-width: 0.8"/>
      </g>
     </g>
     <g id="text_10">
      <!-- 1500 -->
      <g transform="translate(111.55 330.890747)scale(0.1 -0.1)">
       <use xlink:href="#DejaVuSans-31"/>
       <use xlink:href="#DejaVuSans-35" x="63.623047"/>
       <use xlink:href="#DejaVuSans-30" x="127.246094"/>
       <use xlink:href="#DejaVuSans-30" x="190.869141"/>
      </g>
     </g>
    </g>
    <g id="ytick_4">
     <g id="line2d_11">
      <g>
       <use xlink:href="#m390358eef2" x="144" y="252.11942" style="stroke: #000000; stroke-width: 0.8"/>
      </g>
     </g>
     <g id="text_11">
      <!-- 2000 -->
      <g transform="translate(111.55 255.918639)scale(0.1 -0.1)">
       <use xlink:href="#DejaVuSans-32"/>
       <use xlink:href="#DejaVuSans-30" x="63.623047"/>
       <use xlink:href="#DejaVuSans-30" x="127.246094"/>
       <use xlink:href="#DejaVuSans-30" x="190.869141"/>
      </g>
     </g>
    </g>
    <g id="ytick_5">
     <g id="line2d_12">
      <g>
       <use xlink:href="#m390358eef2" x="144" y="177.147311" style="stroke: #000000; stroke-width: 0.8"/>
      </g>
     </g>
     <g id="text_12">
      <!-- 2500 -->
      <g transform="translate(111.55 180.94653)scale(0.1 -0.1)">
       <use xlink:href="#DejaVuSans-32"/>
       <use xlink:href="#DejaVuSans-35" x="63.623047"/>
       <use xlink:href="#DejaVuSans-30" x="127.246094"/>
       <use xlink:href="#DejaVuSans-30" x="190.869141"/>
      </g>
     </g>
    </g>
    <g id="ytick_6">
     <g id="line2d_13">
      <g>
       <use xlink:href="#m390358eef2" x="144" y="102.175203" style="stroke: #000000; stroke-width: 0.8"/>
      </g>
     </g>
     <g id="text_13">
      <!-- 3000 -->
      <g transform="translate(111.55 105.974421)scale(0.1 -0.1)">
       <use xlink:href="#DejaVuSans-33"/>
       <use xlink:href="#DejaVuSans-30" x="63.623047"/>
       <use xlink:href="#DejaVuSans-30" x="127.246094"/>
       <use xlink:href="#DejaVuSans-30" x="190.869141"/>
      </g>
     </g>
    </g>
   </g>
   <g id="line2d_14">
    <path d="M 184.581818 492.48 
L 193.309091 492.030167 
L 202.036364 491.130502 
L 210.763636 490.080893 
L 219.490909 489.63106 
L 228.218182 489.331171 
L 236.945455 488.731395 
L 245.672727 486.78212 
L 254.4 485.432622 
L 263.127273 484.532956 
L 271.854545 483.783235 
L 280.581818 478.385244 
L 289.309091 470.4382 
L 298.036364 468.488925 
L 306.763636 464.440431 
L 315.490909 456.943221 
L 324.218182 445.247572 
L 332.945455 440.449357 
L 341.672727 436.850695 
L 350.4 435.051365 
L 359.127273 413.90923 
L 367.854545 403.713023 
L 376.581818 399.964418 
L 385.309091 383.32061 
L 394.036364 377.022953 
L 402.763636 371.624961 
L 411.490909 363.378029 
L 420.218182 362.628308 
L 428.945455 356.330651 
L 437.672727 351.532436 
L 446.4 347.933775 
L 455.127273 322.743146 
L 463.854545 320.344039 
L 472.581818 314.796103 
L 481.309091 310.897553 
L 490.036364 309.997888 
L 498.763636 304.899784 
L 507.490909 287.656199 
L 516.218182 283.007929 
L 524.945455 282.258208 
L 533.672727 269.512949 
L 542.4 264.864678 
L 551.127273 264.714734 
L 559.854545 263.815069 
L 568.581818 259.916519 
L 577.309091 255.718081 
L 586.036364 251.669587 
L 594.763636 249.420424 
L 603.490909 247.771038 
L 612.218182 244.922097 
L 620.945455 235.7755 
L 629.672727 229.477843 
L 638.4 224.229795 
L 647.127273 202.637828 
L 655.854545 193.041398 
L 664.581818 186.293909 
L 673.309091 177.897032 
L 682.036364 177.147311 
L 699.490909 175.947758 
L 716.945455 174.59826 
L 725.672727 172.349096 
L 734.4 170.399821 
L 743.127273 168.150658 
L 751.854545 166.201383 
L 760.581818 165.901495 
L 769.309091 165.451662 
L 778.036364 153.456125 
L 786.763636 140.560922 
L 795.490909 140.410978 
L 804.218182 139.06148 
L 812.945455 137.711982 
L 821.672727 128.865273 
L 830.4 126.466166 
L 839.127273 125.416556 
L 847.854545 123.017449 
L 856.581818 119.718676 
L 865.309091 119.568732 
L 874.036364 118.819011 
L 882.763636 117.919345 
L 891.490909 116.269959 
L 900.218182 111.3218 
L 908.945455 111.171856 
L 917.672727 104.124478 
L 926.4 103.224812 
L 935.127273 101.575426 
L 943.854545 100.225928 
L 952.581818 99.626151 
L 961.309091 99.176318 
L 970.036364 98.576541 
L 978.763636 98.126709 
L 987.490909 89.429944 
L 996.218182 89.28 
" clip-path="url(#pffa4467f90)" style="fill: none; stroke: #1f77b4; stroke-width: 1.5; stroke-linecap: square"/>
   </g>
   <g id="patch_3">
    <path d="M 144 512.64 
L 144 69.12 
" style="fill: none; stroke: #000000; stroke-width: 0.8; stroke-linejoin: miter; stroke-linecap: square"/>
   </g>
   <g id="patch_4">
    <path d="M 1036.8 512.64 
L 1036.8 69.12 
" style="fill: none; stroke: #000000; stroke-width: 0.8; stroke-linejoin: miter; stroke-linecap: square"/>
   </g>
   <g id="patch_5">
    <path d="M 144 512.64 
L 1036.8 512.64 
" style="fill: none; stroke: #000000; stroke-width: 0.8; stroke-linejoin: miter; stroke-linecap: square"/>
   </g>
   <g id="patch_6">
    <path d="M 144 69.12 
L 1036.8 69.12 
" style="fill: none; stroke: #000000; stroke-width: 0.8; stroke-linejoin: miter; stroke-linecap: square"/>
   </g>
   <g id="text_14">
    <!-- Number of AEDs in the OpenStreetMap database in Poland from 2022-01-01, day by day. As at: 2022-04-04 -->
    <g transform="translate(144 63.12)scale(0.14 -0.14)">
     <defs>
      <path id="DejaVuSans-4e" d="M 628 4666 
L 1478 4666 
L 3547 763 
L 3547 4666 
L 4159 4666 
L 4159 0 
L 3309 0 
L 1241 3903 
L 1241 0 
L 628 0 
L 628 4666 
z
" transform="scale(0.015625)"/>
      <path id="DejaVuSans-75" d="M 544 1381 
L 544 3500 
L 1119 3500 
L 1119 1403 
Q 1119 906 1312 657 
Q 1506 409 1894 409 
Q 2359 409 2629 706 
Q 2900 1003 2900 1516 
L 2900 3500 
L 3475 3500 
L 3475 0 
L 2900 0 
L 2900 538 
Q 2691 219 2414 64 
Q 2138 -91 1772 -91 
Q 1169 -91 856 284 
Q 544 659 544 1381 
z
M 1991 3584 
L 1991 3584 
z
" transform="scale(0.015625)"/>
      <path id="DejaVuSans-6d" d="M 3328 2828 
Q 3544 3216 3844 3400 
Q 4144 3584 4550 3584 
Q 5097 3584 5394 3201 
Q 5691 2819 5691 2113 
L 5691 0 
L 5113 0 
L 5113 2094 
Q 5113 2597 4934 2840 
Q 4756 3084 4391 3084 
Q 3944 3084 3684 2787 
Q 3425 2491 3425 1978 
L 3425 0 
L 2847 0 
L 2847 2094 
Q 2847 2600 2669 2842 
Q 2491 3084 2119 3084 
Q 1678 3084 1418 2786 
Q 1159 2488 1159 1978 
L 1159 0 
L 581 0 
L 581 3500 
L 1159 3500 
L 1159 2956 
Q 1356 3278 1631 3431 
Q 1906 3584 2284 3584 
Q 2666 3584 2933 3390 
Q 3200 3197 3328 2828 
z
" transform="scale(0.015625)"/>
      <path id="DejaVuSans-62" d="M 3116 1747 
Q 3116 2381 2855 2742 
Q 2594 3103 2138 3103 
Q 1681 3103 1420 2742 
Q 1159 2381 1159 1747 
Q 1159 1113 1420 752 
Q 1681 391 2138 391 
Q 2594 391 2855 752 
Q 3116 1113 3116 1747 
z
M 1159 2969 
Q 1341 3281 1617 3432 
Q 1894 3584 2278 3584 
Q 2916 3584 3314 3078 
Q 3713 2572 3713 1747 
Q 3713 922 3314 415 
Q 2916 -91 2278 -91 
Q 1894 -91 1617 61 
Q 1341 213 1159 525 
L 1159 0 
L 581 0 
L 581 4863 
L 1159 4863 
L 1159 2969 
z
" transform="scale(0.015625)"/>
      <path id="DejaVuSans-65" d="M 3597 1894 
L 3597 1613 
L 953 1613 
Q 991 1019 1311 708 
Q 1631 397 2203 397 
Q 2534 397 2845 478 
Q 3156 559 3463 722 
L 3463 178 
Q 3153 47 2828 -22 
Q 2503 -91 2169 -91 
Q 1331 -91 842 396 
Q 353 884 353 1716 
Q 353 2575 817 3079 
Q 1281 3584 2069 3584 
Q 2775 3584 3186 3129 
Q 3597 2675 3597 1894 
z
M 3022 2063 
Q 3016 2534 2758 2815 
Q 2500 3097 2075 3097 
Q 1594 3097 1305 2825 
Q 1016 2553 972 2059 
L 3022 2063 
z
" transform="scale(0.015625)"/>
      <path id="DejaVuSans-72" d="M 2631 2963 
Q 2534 3019 2420 3045 
Q 2306 3072 2169 3072 
Q 1681 3072 1420 2755 
Q 1159 2438 1159 1844 
L 1159 0 
L 581 0 
L 581 3500 
L 1159 3500 
L 1159 2956 
Q 1341 3275 1631 3429 
Q 1922 3584 2338 3584 
Q 2397 3584 2469 3576 
Q 2541 3569 2628 3553 
L 2631 2963 
z
" transform="scale(0.015625)"/>
      <path id="DejaVuSans-20" transform="scale(0.015625)"/>
      <path id="DejaVuSans-6f" d="M 1959 3097 
Q 1497 3097 1228 2736 
Q 959 2375 959 1747 
Q 959 1119 1226 758 
Q 1494 397 1959 397 
Q 2419 397 2687 759 
Q 2956 1122 2956 1747 
Q 2956 2369 2687 2733 
Q 2419 3097 1959 3097 
z
M 1959 3584 
Q 2709 3584 3137 3096 
Q 3566 2609 3566 1747 
Q 3566 888 3137 398 
Q 2709 -91 1959 -91 
Q 1206 -91 779 398 
Q 353 888 353 1747 
Q 353 2609 779 3096 
Q 1206 3584 1959 3584 
z
" transform="scale(0.015625)"/>
      <path id="DejaVuSans-66" d="M 2375 4863 
L 2375 4384 
L 1825 4384 
Q 1516 4384 1395 4259 
Q 1275 4134 1275 3809 
L 1275 3500 
L 2222 3500 
L 2222 3053 
L 1275 3053 
L 1275 0 
L 697 0 
L 697 3053 
L 147 3053 
L 147 3500 
L 697 3500 
L 697 3744 
Q 697 4328 969 4595 
Q 1241 4863 1831 4863 
L 2375 4863 
z
" transform="scale(0.015625)"/>
      <path id="DejaVuSans-41" d="M 2188 4044 
L 1331 1722 
L 3047 1722 
L 2188 4044 
z
M 1831 4666 
L 2547 4666 
L 4325 0 
L 3669 0 
L 3244 1197 
L 1141 1197 
L 716 0 
L 50 0 
L 1831 4666 
z
" transform="scale(0.015625)"/>
      <path id="DejaVuSans-45" d="M 628 4666 
L 3578 4666 
L 3578 4134 
L 1259 4134 
L 1259 2753 
L 3481 2753 
L 3481 2222 
L 1259 2222 
L 1259 531 
L 3634 531 
L 3634 0 
L 628 0 
L 628 4666 
z
" transform="scale(0.015625)"/>
      <path id="DejaVuSans-44" d="M 1259 4147 
L 1259 519 
L 2022 519 
Q 2988 519 3436 956 
Q 3884 1394 3884 2338 
Q 3884 3275 3436 3711 
Q 2988 4147 2022 4147 
L 1259 4147 
z
M 628 4666 
L 1925 4666 
Q 3281 4666 3915 4102 
Q 4550 3538 4550 2338 
Q 4550 1131 3912 565 
Q 3275 0 1925 0 
L 628 0 
L 628 4666 
z
" transform="scale(0.015625)"/>
      <path id="DejaVuSans-73" d="M 2834 3397 
L 2834 2853 
Q 2591 2978 2328 3040 
Q 2066 3103 1784 3103 
Q 1356 3103 1142 2972 
Q 928 2841 928 2578 
Q 928 2378 1081 2264 
Q 1234 2150 1697 2047 
L 1894 2003 
Q 2506 1872 2764 1633 
Q 3022 1394 3022 966 
Q 3022 478 2636 193 
Q 2250 -91 1575 -91 
Q 1294 -91 989 -36 
Q 684 19 347 128 
L 347 722 
Q 666 556 975 473 
Q 1284 391 1588 391 
Q 1994 391 2212 530 
Q 2431 669 2431 922 
Q 2431 1156 2273 1281 
Q 2116 1406 1581 1522 
L 1381 1569 
Q 847 1681 609 1914 
Q 372 2147 372 2553 
Q 372 3047 722 3315 
Q 1072 3584 1716 3584 
Q 2034 3584 2315 3537 
Q 2597 3491 2834 3397 
z
" transform="scale(0.015625)"/>
      <path id="DejaVuSans-69" d="M 603 3500 
L 1178 3500 
L 1178 0 
L 603 0 
L 603 3500 
z
M 603 4863 
L 1178 4863 
L 1178 4134 
L 603 4134 
L 603 4863 
z
" transform="scale(0.015625)"/>
      <path id="DejaVuSans-6e" d="M 3513 2113 
L 3513 0 
L 2938 0 
L 2938 2094 
Q 2938 2591 2744 2837 
Q 2550 3084 2163 3084 
Q 1697 3084 1428 2787 
Q 1159 2491 1159 1978 
L 1159 0 
L 581 0 
L 581 3500 
L 1159 3500 
L 1159 2956 
Q 1366 3272 1645 3428 
Q 1925 3584 2291 3584 
Q 2894 3584 3203 3211 
Q 3513 2838 3513 2113 
z
" transform="scale(0.015625)"/>
      <path id="DejaVuSans-74" d="M 1172 4494 
L 1172 3500 
L 2356 3500 
L 2356 3053 
L 1172 3053 
L 1172 1153 
Q 1172 725 1289 603 
Q 1406 481 1766 481 
L 2356 481 
L 2356 0 
L 1766 0 
Q 1100 0 847 248 
Q 594 497 594 1153 
L 594 3053 
L 172 3053 
L 172 3500 
L 594 3500 
L 594 4494 
L 1172 4494 
z
" transform="scale(0.015625)"/>
      <path id="DejaVuSans-68" d="M 3513 2113 
L 3513 0 
L 2938 0 
L 2938 2094 
Q 2938 2591 2744 2837 
Q 2550 3084 2163 3084 
Q 1697 3084 1428 2787 
Q 1159 2491 1159 1978 
L 1159 0 
L 581 0 
L 581 4863 
L 1159 4863 
L 1159 2956 
Q 1366 3272 1645 3428 
Q 1925 3584 2291 3584 
Q 2894 3584 3203 3211 
Q 3513 2838 3513 2113 
z
" transform="scale(0.015625)"/>
      <path id="DejaVuSans-4f" d="M 2522 4238 
Q 1834 4238 1429 3725 
Q 1025 3213 1025 2328 
Q 1025 1447 1429 934 
Q 1834 422 2522 422 
Q 3209 422 3611 934 
Q 4013 1447 4013 2328 
Q 4013 3213 3611 3725 
Q 3209 4238 2522 4238 
z
M 2522 4750 
Q 3503 4750 4090 4092 
Q 4678 3434 4678 2328 
Q 4678 1225 4090 567 
Q 3503 -91 2522 -91 
Q 1538 -91 948 565 
Q 359 1222 359 2328 
Q 359 3434 948 4092 
Q 1538 4750 2522 4750 
z
" transform="scale(0.015625)"/>
      <path id="DejaVuSans-70" d="M 1159 525 
L 1159 -1331 
L 581 -1331 
L 581 3500 
L 1159 3500 
L 1159 2969 
Q 1341 3281 1617 3432 
Q 1894 3584 2278 3584 
Q 2916 3584 3314 3078 
Q 3713 2572 3713 1747 
Q 3713 922 3314 415 
Q 2916 -91 2278 -91 
Q 1894 -91 1617 61 
Q 1341 213 1159 525 
z
M 3116 1747 
Q 3116 2381 2855 2742 
Q 2594 3103 2138 3103 
Q 1681 3103 1420 2742 
Q 1159 2381 1159 1747 
Q 1159 1113 1420 752 
Q 1681 391 2138 391 
Q 2594 391 2855 752 
Q 3116 1113 3116 1747 
z
" transform="scale(0.015625)"/>
      <path id="DejaVuSans-53" d="M 3425 4513 
L 3425 3897 
Q 3066 4069 2747 4153 
Q 2428 4238 2131 4238 
Q 1616 4238 1336 4038 
Q 1056 3838 1056 3469 
Q 1056 3159 1242 3001 
Q 1428 2844 1947 2747 
L 2328 2669 
Q 3034 2534 3370 2195 
Q 3706 1856 3706 1288 
Q 3706 609 3251 259 
Q 2797 -91 1919 -91 
Q 1588 -91 1214 -16 
Q 841 59 441 206 
L 441 856 
Q 825 641 1194 531 
Q 1563 422 1919 422 
Q 2459 422 2753 634 
Q 3047 847 3047 1241 
Q 3047 1584 2836 1778 
Q 2625 1972 2144 2069 
L 1759 2144 
Q 1053 2284 737 2584 
Q 422 2884 422 3419 
Q 422 4038 858 4394 
Q 1294 4750 2059 4750 
Q 2388 4750 2728 4690 
Q 3069 4631 3425 4513 
z
" transform="scale(0.015625)"/>
      <path id="DejaVuSans-4d" d="M 628 4666 
L 1569 4666 
L 2759 1491 
L 3956 4666 
L 4897 4666 
L 4897 0 
L 4281 0 
L 4281 4097 
L 3078 897 
L 2444 897 
L 1241 4097 
L 1241 0 
L 628 0 
L 628 4666 
z
" transform="scale(0.015625)"/>
      <path id="DejaVuSans-61" d="M 2194 1759 
Q 1497 1759 1228 1600 
Q 959 1441 959 1056 
Q 959 750 1161 570 
Q 1363 391 1709 391 
Q 2188 391 2477 730 
Q 2766 1069 2766 1631 
L 2766 1759 
L 2194 1759 
z
M 3341 1997 
L 3341 0 
L 2766 0 
L 2766 531 
Q 2569 213 2275 61 
Q 1981 -91 1556 -91 
Q 1019 -91 701 211 
Q 384 513 384 1019 
Q 384 1609 779 1909 
Q 1175 2209 1959 2209 
L 2766 2209 
L 2766 2266 
Q 2766 2663 2505 2880 
Q 2244 3097 1772 3097 
Q 1472 3097 1187 3025 
Q 903 2953 641 2809 
L 641 3341 
Q 956 3463 1253 3523 
Q 1550 3584 1831 3584 
Q 2591 3584 2966 3190 
Q 3341 2797 3341 1997 
z
" transform="scale(0.015625)"/>
      <path id="DejaVuSans-64" d="M 2906 2969 
L 2906 4863 
L 3481 4863 
L 3481 0 
L 2906 0 
L 2906 525 
Q 2725 213 2448 61 
Q 2172 -91 1784 -91 
Q 1150 -91 751 415 
Q 353 922 353 1747 
Q 353 2572 751 3078 
Q 1150 3584 1784 3584 
Q 2172 3584 2448 3432 
Q 2725 3281 2906 2969 
z
M 947 1747 
Q 947 1113 1208 752 
Q 1469 391 1925 391 
Q 2381 391 2643 752 
Q 2906 1113 2906 1747 
Q 2906 2381 2643 2742 
Q 2381 3103 1925 3103 
Q 1469 3103 1208 2742 
Q 947 2381 947 1747 
z
" transform="scale(0.015625)"/>
      <path id="DejaVuSans-50" d="M 1259 4147 
L 1259 2394 
L 2053 2394 
Q 2494 2394 2734 2622 
Q 2975 2850 2975 3272 
Q 2975 3691 2734 3919 
Q 2494 4147 2053 4147 
L 1259 4147 
z
M 628 4666 
L 2053 4666 
Q 2838 4666 3239 4311 
Q 3641 3956 3641 3272 
Q 3641 2581 3239 2228 
Q 2838 1875 2053 1875 
L 1259 1875 
L 1259 0 
L 628 0 
L 628 4666 
z
" transform="scale(0.015625)"/>
      <path id="DejaVuSans-6c" d="M 603 4863 
L 1178 4863 
L 1178 0 
L 603 0 
L 603 4863 
z
" transform="scale(0.015625)"/>
      <path id="DejaVuSans-2c" d="M 750 794 
L 1409 794 
L 1409 256 
L 897 -744 
L 494 -744 
L 750 256 
L 750 794 
z
" transform="scale(0.015625)"/>
      <path id="DejaVuSans-79" d="M 2059 -325 
Q 1816 -950 1584 -1140 
Q 1353 -1331 966 -1331 
L 506 -1331 
L 506 -850 
L 844 -850 
Q 1081 -850 1212 -737 
Q 1344 -625 1503 -206 
L 1606 56 
L 191 3500 
L 800 3500 
L 1894 763 
L 2988 3500 
L 3597 3500 
L 2059 -325 
z
" transform="scale(0.015625)"/>
      <path id="DejaVuSans-2e" d="M 684 794 
L 1344 794 
L 1344 0 
L 684 0 
L 684 794 
z
" transform="scale(0.015625)"/>
      <path id="DejaVuSans-3a" d="M 750 794 
L 1409 794 
L 1409 0 
L 750 0 
L 750 794 
z
M 750 3309 
L 1409 3309 
L 1409 2516 
L 750 2516 
L 750 3309 
z
" transform="scale(0.015625)"/>
     </defs>
     <use xlink:href="#DejaVuSans-4e"/>
     <use xlink:href="#DejaVuSans-75" x="74.804688"/>
     <use xlink:href="#DejaVuSans-6d" x="138.183594"/>
     <use xlink:href="#DejaVuSans-62" x="235.595703"/>
     <use xlink:href="#DejaVuSans-65" x="299.072266"/>
     <use xlink:href="#DejaVuSans-72" x="360.595703"/>
     <use xlink:href="#DejaVuSans-20" x="401.708984"/>
     <use xlink:href="#DejaVuSans-6f" x="433.496094"/>
     <use xlink:href="#DejaVuSans-66" x="494.677734"/>
     <use xlink:href="#DejaVuSans-20" x="529.882812"/>
     <use xlink:href="#DejaVuSans-41" x="561.669922"/>
     <use xlink:href="#DejaVuSans-45" x="630.078125"/>
     <use xlink:href="#DejaVuSans-44" x="693.261719"/>
     <use xlink:href="#DejaVuSans-73" x="770.263672"/>
     <use xlink:href="#DejaVuSans-20" x="822.363281"/>
     <use xlink:href="#DejaVuSans-69" x="854.150391"/>
     <use xlink:href="#DejaVuSans-6e" x="881.933594"/>
     <use xlink:href="#DejaVuSans-20" x="945.3125"/>
     <use xlink:href="#DejaVuSans-74" x="977.099609"/>
     <use xlink:href="#DejaVuSans-68" x="1016.308594"/>
     <use xlink:href="#DejaVuSans-65" x="1079.6875"/>
     <use xlink:href="#DejaVuSans-20" x="1141.210938"/>
     <use xlink:href="#DejaVuSans-4f" x="1172.998047"/>
     <use xlink:href="#DejaVuSans-70" x="1251.708984"/>
     <use xlink:href="#DejaVuSans-65" x="1315.185547"/>
     <use xlink:href="#DejaVuSans-6e" x="1376.708984"/>
     <use xlink:href="#DejaVuSans-53" x="1440.087891"/>
     <use xlink:href="#DejaVuSans-74" x="1503.564453"/>
     <use xlink:href="#DejaVuSans-72" x="1542.773438"/>
     <use xlink:href="#DejaVuSans-65" x="1581.636719"/>
     <use xlink:href="#DejaVuSans-65" x="1643.160156"/>
     <use xlink:href="#DejaVuSans-74" x="1704.683594"/>
     <use xlink:href="#DejaVuSans-4d" x="1743.892578"/>
     <use xlink:href="#DejaVuSans-61" x="1830.171875"/>
     <use xlink:href="#DejaVuSans-70" x="1891.451172"/>
     <use xlink:href="#DejaVuSans-20" x="1954.927734"/>
     <use xlink:href="#DejaVuSans-64" x="1986.714844"/>
     <use xlink:href="#DejaVuSans-61" x="2050.191406"/>
     <use xlink:href="#DejaVuSans-74" x="2111.470703"/>
     <use xlink:href="#DejaVuSans-61" x="2150.679688"/>
     <use xlink:href="#DejaVuSans-62" x="2211.958984"/>
     <use xlink:href="#DejaVuSans-61" x="2275.435547"/>
     <use xlink:href="#DejaVuSans-73" x="2336.714844"/>
     <use xlink:href="#DejaVuSans-65" x="2388.814453"/>
     <use xlink:href="#DejaVuSans-20" x="2450.337891"/>
     <use xlink:href="#DejaVuSans-69" x="2482.125"/>
     <use xlink:href="#DejaVuSans-6e" x="2509.908203"/>
     <use xlink:href="#DejaVuSans-20" x="2573.287109"/>
     <use xlink:href="#DejaVuSans-50" x="2605.074219"/>
     <use xlink:href="#DejaVuSans-6f" x="2661.751953"/>
     <use xlink:href="#DejaVuSans-6c" x="2722.933594"/>
     <use xlink:href="#DejaVuSans-61" x="2750.716797"/>
     <use xlink:href="#DejaVuSans-6e" x="2811.996094"/>
     <use xlink:href="#DejaVuSans-64" x="2875.375"/>
     <use xlink:href="#DejaVuSans-20" x="2938.851562"/>
     <use xlink:href="#DejaVuSans-66" x="2970.638672"/>
     <use xlink:href="#DejaVuSans-72" x="3005.84375"/>
     <use xlink:href="#DejaVuSans-6f" x="3044.707031"/>
     <use xlink:href="#DejaVuSans-6d" x="3105.888672"/>
     <use xlink:href="#DejaVuSans-20" x="3203.300781"/>
     <use xlink:href="#DejaVuSans-32" x="3235.087891"/>
     <use xlink:href="#DejaVuSans-30" x="3298.710938"/>
     <use xlink:href="#DejaVuSans-32" x="3362.333984"/>
     <use xlink:href="#DejaVuSans-32" x="3425.957031"/>
     <use xlink:href="#DejaVuSans-2d" x="3489.580078"/>
     <use xlink:href="#DejaVuSans-30" x="3525.664062"/>
     <use xlink:href="#DejaVuSans-31" x="3589.287109"/>
     <use xlink:href="#DejaVuSans-2d" x="3652.910156"/>
     <use xlink:href="#DejaVuSans-30" x="3688.994141"/>
     <use xlink:href="#DejaVuSans-31" x="3752.617188"/>
     <use xlink:href="#DejaVuSans-2c" x="3816.240234"/>
     <use xlink:href="#DejaVuSans-20" x="3848.027344"/>
     <use xlink:href="#DejaVuSans-64" x="3879.814453"/>
     <use xlink:href="#DejaVuSans-61" x="3943.291016"/>
     <use xlink:href="#DejaVuSans-79" x="4004.570312"/>
     <use xlink:href="#DejaVuSans-20" x="4063.75"/>
     <use xlink:href="#DejaVuSans-62" x="4095.537109"/>
     <use xlink:href="#DejaVuSans-79" x="4159.013672"/>
     <use xlink:href="#DejaVuSans-20" x="4218.193359"/>
     <use xlink:href="#DejaVuSans-64" x="4249.980469"/>
     <use xlink:href="#DejaVuSans-61" x="4313.457031"/>
     <use xlink:href="#DejaVuSans-79" x="4374.736328"/>
     <use xlink:href="#DejaVuSans-2e" x="4419.666016"/>
     <use xlink:href="#DejaVuSans-20" x="4451.453125"/>
     <use xlink:href="#DejaVuSans-41" x="4483.240234"/>
     <use xlink:href="#DejaVuSans-73" x="4551.648438"/>
     <use xlink:href="#DejaVuSans-20" x="4603.748047"/>
     <use xlink:href="#DejaVuSans-61" x="4635.535156"/>
     <use xlink:href="#DejaVuSans-74" x="4696.814453"/>
     <use xlink:href="#DejaVuSans-3a" x="4736.023438"/>
     <use xlink:href="#DejaVuSans-20" x="4769.714844"/>
     <use xlink:href="#DejaVuSans-32" x="4801.501953"/>
     <use xlink:href="#DejaVuSans-30" x="4865.125"/>
     <use xlink:href="#DejaVuSans-32" x="4928.748047"/>
     <use xlink:href="#DejaVuSans-32" x="4992.371094"/>
     <use xlink:href="#DejaVuSans-2d" x="5055.994141"/>
     <use xlink:href="#DejaVuSans-30" x="5092.078125"/>
     <use xlink:href="#DejaVuSans-34" x="5155.701172"/>
     <use xlink:href="#DejaVuSans-2d" x="5219.324219"/>
     <use xlink:href="#DejaVuSans-30" x="5255.408203"/>
     <use xlink:href="#DejaVuSans-34" x="5319.03125"/>
    </g>
   </g>
  </g>
 </g>
 <defs>
  <clipPath id="pffa4467f90">
   <rect x="144" y="69.12" width="892.8" height="443.52"/>
  </clipPath>
 </defs>
</svg>
