<?xml version="1.0" encoding="utf-8" standalone="no"?>
<!DOCTYPE svg PUBLIC "-//W3C//DTD SVG 1.1//EN"
  "http://www.w3.org/Graphics/SVG/1.1/DTD/svg11.dtd">
<svg xmlns:xlink="http://www.w3.org/1999/xlink" width="1152pt" height="576pt" viewBox="0 0 1152 576" xmlns="http://www.w3.org/2000/svg" version="1.1">
 <metadata>
  <rdf:RDF xmlns:dc="http://purl.org/dc/elements/1.1/" xmlns:cc="http://creativecommons.org/ns#" xmlns:rdf="http://www.w3.org/1999/02/22-rdf-syntax-ns#">
   <cc:Work>
    <dc:type rdf:resource="http://purl.org/dc/dcmitype/StillImage"/>
    <dc:date>2024-02-19T15:33:26.160816</dc:date>
    <dc:format>image/svg+xml</dc:format>
    <dc:creator>
     <cc:Agent>
      <dc:title>Matplotlib v3.8.3, https://matplotlib.org/</dc:title>
     </cc:Agent>
    </dc:creator>
   </cc:Work>
  </rdf:RDF>
 </metadata>
 <defs>
  <style type="text/css">*{stroke-linejoin: round; stroke-linecap: butt}</style>
 </defs>
 <g id="figure_1">
  <g id="patch_1">
   <path d="M 0 576 
L 1152 576 
L 1152 0 
L 0 0 
z
" style="fill: #ffffff"/>
  </g>
  <g id="axes_1">
   <g id="patch_2">
    <path d="M 144 512.64 
L 1036.8 512.64 
L 1036.8 69.12 
L 144 69.12 
z
" style="fill: #ffffff"/>
   </g>
   <g id="PathCollection_1">
    <path d="M 184.581818 496.015534 
C 185.519453 496.015534 186.41881 495.643008 187.081818 494.98 
C 187.744826 494.316992 188.117352 493.417635 188.117352 492.48 
C 188.117352 491.542365 187.744826 490.643008 187.081818 489.98 
C 186.41881 489.316992 185.519453 488.944466 184.581818 488.944466 
C 183.644184 488.944466 182.744826 489.316992 182.081818 489.98 
C 181.41881 490.643008 181.046284 491.542365 181.046284 492.48 
C 181.046284 493.417635 181.41881 494.316992 182.081818 494.98 
C 182.744826 495.643008 183.644184 496.015534 184.581818 496.015534 
z
" clip-path="url(#p17f0443c09)" style="fill: #1f77b4; fill-opacity: 0.3; stroke: #1f77b4; stroke-opacity: 0.3"/>
    <path d="M 201.145826 474.89519 
C 203.067405 474.89519 204.910539 474.131738 206.269301 472.772977 
C 207.628063 471.414215 208.391514 469.57108 208.391514 467.649501 
C 208.391514 465.727922 207.628063 463.884788 206.269301 462.526026 
C 204.910539 461.167265 203.067405 460.403813 201.145826 460.403813 
C 199.224247 460.403813 197.381112 461.167265 196.02235 462.526026 
C 194.663589 463.884788 193.900137 465.727922 193.900137 467.649501 
C 193.900137 469.57108 194.663589 471.414215 196.02235 472.772977 
C 197.381112 474.131738 199.224247 474.89519 201.145826 474.89519 
z
" clip-path="url(#p17f0443c09)" style="fill: #1f77b4; fill-opacity: 0.3; stroke: #1f77b4; stroke-opacity: 0.3"/>
    <path d="M 217.709833 444.969237 
C 219.847969 444.969237 221.89882 444.119747 223.41071 442.607857 
C 224.9226 441.095966 225.772091 439.045115 225.772091 436.906979 
C 225.772091 434.768844 224.9226 432.717993 223.41071 431.206102 
C 221.89882 429.694212 219.847969 428.844722 217.709833 428.844722 
C 215.571697 428.844722 213.520846 429.694212 212.008956 431.206102 
C 210.497066 432.717993 209.647575 434.768844 209.647575 436.906979 
C 209.647575 439.045115 210.497066 441.095966 212.008956 442.607857 
C 213.520846 444.119747 215.571697 444.969237 217.709833 444.969237 
z
" clip-path="url(#p17f0443c09)" style="fill: #1f77b4; fill-opacity: 0.3; stroke: #1f77b4; stroke-opacity: 0.3"/>
    <path d="M 234.27384 437.305714 
C 234.693163 437.305714 235.095368 437.139115 235.391874 436.842609 
C 235.688381 436.546103 235.854979 436.143898 235.854979 435.724575 
C 235.854979 435.305252 235.688381 434.903047 235.391874 434.606541 
C 235.095368 434.310035 234.693163 434.143436 234.27384 434.143436 
C 233.854518 434.143436 233.452313 434.310035 233.155806 434.606541 
C 232.8593 434.903047 232.692702 435.305252 232.692702 435.724575 
C 232.692702 436.143898 232.8593 436.546103 233.155806 436.842609 
C 233.452313 437.139115 233.854518 437.305714 234.27384 437.305714 
z
" clip-path="url(#p17f0443c09)" style="fill: #1f77b4; fill-opacity: 0.3; stroke: #1f77b4; stroke-opacity: 0.3"/>
    <path d="M 250.837848 428.900528 
C 252.163863 428.900528 253.435747 428.373696 254.373382 427.436062 
C 255.311016 426.498427 255.837848 425.226543 255.837848 423.900528 
C 255.837848 422.574512 255.311016 421.302629 254.373382 420.364994 
C 253.435747 419.427359 252.163863 418.900528 250.837848 418.900528 
C 249.511832 418.900528 248.239949 419.427359 247.302314 420.364994 
C 246.364679 421.302629 245.837848 422.574512 245.837848 423.900528 
C 245.837848 425.226543 246.364679 426.498427 247.302314 427.436062 
C 248.239949 428.373696 249.511832 428.900528 250.837848 428.900528 
z
" clip-path="url(#p17f0443c09)" style="fill: #1f77b4; fill-opacity: 0.3; stroke: #1f77b4; stroke-opacity: 0.3"/>
    <path d="M 283.965863 421.524038 
C 284.903497 421.524038 285.802855 421.151512 286.465863 420.488504 
C 287.12887 419.825497 287.501397 418.926139 287.501397 417.988504 
C 287.501397 417.05087 287.12887 416.151512 286.465863 415.488504 
C 285.802855 414.825497 284.903497 414.45297 283.965863 414.45297 
C 283.028228 414.45297 282.12887 414.825497 281.465863 415.488504 
C 280.802855 416.151512 280.430329 417.05087 280.430329 417.988504 
C 280.430329 418.926139 280.802855 419.825497 281.465863 420.488504 
C 282.12887 421.151512 283.028228 421.524038 283.965863 421.524038 
z
" clip-path="url(#p17f0443c09)" style="fill: #1f77b4; fill-opacity: 0.3; stroke: #1f77b4; stroke-opacity: 0.3"/>
    <path d="M 300.52987 416.421163 
C 301.368516 416.421163 302.172926 416.087966 302.765938 415.494954 
C 303.35895 414.901941 303.692148 414.097531 303.692148 413.258886 
C 303.692148 412.42024 303.35895 411.61583 302.765938 411.022818 
C 302.172926 410.429805 301.368516 410.096608 300.52987 410.096608 
C 299.691224 410.096608 298.886814 410.429805 298.293802 411.022818 
C 297.70079 411.61583 297.367592 412.42024 297.367592 413.258886 
C 297.367592 414.097531 297.70079 414.901941 298.293802 415.494954 
C 298.886814 416.087966 299.691224 416.421163 300.52987 416.421163 
z
" clip-path="url(#p17f0443c09)" style="fill: #1f77b4; fill-opacity: 0.3; stroke: #1f77b4; stroke-opacity: 0.3"/>
    <path d="M 317.093878 412.450284 
C 317.820166 412.450284 318.516806 412.161727 319.030369 411.648163 
C 319.543933 411.1346 319.83249 410.43796 319.83249 409.711672 
C 319.83249 408.985383 319.543933 408.288743 319.030369 407.77518 
C 318.516806 407.261616 317.820166 406.973059 317.093878 406.973059 
C 316.367589 406.973059 315.670949 407.261616 315.157386 407.77518 
C 314.643822 408.288743 314.355265 408.985383 314.355265 409.711672 
C 314.355265 410.43796 314.643822 411.1346 315.157386 411.648163 
C 315.670949 412.161727 316.367589 412.450284 317.093878 412.450284 
z
" clip-path="url(#p17f0443c09)" style="fill: #1f77b4; fill-opacity: 0.3; stroke: #1f77b4; stroke-opacity: 0.3"/>
    <path d="M 333.657885 408.14433 
C 334.496531 408.14433 335.300941 407.811133 335.893953 407.218121 
C 336.486965 406.625109 336.820163 405.820699 336.820163 404.982053 
C 336.820163 404.143407 336.486965 403.338997 335.893953 402.745985 
C 335.300941 402.152973 334.496531 401.819775 333.657885 401.819775 
C 332.819239 401.819775 332.014829 402.152973 331.421817 402.745985 
C 330.828805 403.338997 330.495607 404.143407 330.495607 404.982053 
C 330.495607 405.820699 330.828805 406.625109 331.421817 407.218121 
C 332.014829 407.811133 332.819239 408.14433 333.657885 408.14433 
z
" clip-path="url(#p17f0443c09)" style="fill: #1f77b4; fill-opacity: 0.3; stroke: #1f77b4; stroke-opacity: 0.3"/>
    <path d="M 350.221892 401.760608 
C 351.24902 401.760608 352.234217 401.352526 352.960505 400.626237 
C 353.686794 399.899949 354.094876 398.914752 354.094876 397.887625 
C 354.094876 396.860497 353.686794 395.8753 352.960505 395.149012 
C 352.234217 394.422723 351.24902 394.014641 350.221892 394.014641 
C 349.194765 394.014641 348.209568 394.422723 347.48328 395.149012 
C 346.756991 395.8753 346.348909 396.860497 346.348909 397.887625 
C 346.348909 398.914752 346.756991 399.899949 347.48328 400.626237 
C 348.209568 401.352526 349.194765 401.760608 350.221892 401.760608 
z
" clip-path="url(#p17f0443c09)" style="fill: #1f77b4; fill-opacity: 0.3; stroke: #1f77b4; stroke-opacity: 0.3"/>
    <path d="M 366.7859 385.293705 
C 368.463191 385.293705 370.072011 384.62731 371.258036 383.441286 
C 372.44406 382.255261 373.110455 380.646441 373.110455 378.96915 
C 373.110455 377.291858 372.44406 375.683038 371.258036 374.497014 
C 370.072011 373.310989 368.463191 372.644594 366.7859 372.644594 
C 365.108608 372.644594 363.499788 373.310989 362.313764 374.497014 
C 361.12774 375.683038 360.461344 377.291858 360.461344 378.96915 
C 360.461344 380.646441 361.12774 382.255261 362.313764 383.441286 
C 363.499788 384.62731 365.108608 385.293705 366.7859 385.293705 
z
" clip-path="url(#p17f0443c09)" style="fill: #1f77b4; fill-opacity: 0.3; stroke: #1f77b4; stroke-opacity: 0.3"/>
    <path d="M 383.349907 378.160548 
C 384.076196 378.160548 384.772835 377.871991 385.286399 377.358427 
C 385.799963 376.844864 386.08852 376.148224 386.08852 375.421935 
C 386.08852 374.695647 385.799963 373.999007 385.286399 373.485444 
C 384.772835 372.97188 384.076196 372.683323 383.349907 372.683323 
C 382.623619 372.683323 381.926979 372.97188 381.413416 373.485444 
C 380.899852 373.999007 380.611294 374.695647 380.611294 375.421935 
C 380.611294 376.148224 380.899852 376.844864 381.413416 377.358427 
C 381.926979 377.871991 382.623619 378.160548 383.349907 378.160548 
z
" clip-path="url(#p17f0443c09)" style="fill: #1f77b4; fill-opacity: 0.3; stroke: #1f77b4; stroke-opacity: 0.3"/>
    <path d="M 399.913915 374.613334 
C 400.640203 374.613334 401.336843 374.324777 401.850406 373.811213 
C 402.36397 373.297649 402.652527 372.60101 402.652527 371.874721 
C 402.652527 371.148433 402.36397 370.451793 401.850406 369.93823 
C 401.336843 369.424666 400.640203 369.136109 399.913915 369.136109 
C 399.187626 369.136109 398.490987 369.424666 397.977423 369.93823 
C 397.463859 370.451793 397.175302 371.148433 397.175302 371.874721 
C 397.175302 372.60101 397.463859 373.297649 397.977423 373.811213 
C 398.490987 374.324777 399.187626 374.613334 399.913915 374.613334 
z
" clip-path="url(#p17f0443c09)" style="fill: #1f77b4; fill-opacity: 0.3; stroke: #1f77b4; stroke-opacity: 0.3"/>
    <path d="M 416.477922 360.262375 
C 418.101953 360.262375 419.659686 359.617141 420.808049 358.468778 
C 421.956412 357.320415 422.601646 355.762682 422.601646 354.138651 
C 422.601646 352.51462 421.956412 350.956887 420.808049 349.808524 
C 419.659686 348.660161 418.101953 348.014927 416.477922 348.014927 
C 414.853891 348.014927 413.296158 348.660161 412.147795 349.808524 
C 410.999432 350.956887 410.354198 352.51462 410.354198 354.138651 
C 410.354198 355.762682 410.999432 357.320415 412.147795 358.468778 
C 413.296158 359.617141 414.853891 360.262375 416.477922 360.262375 
z
" clip-path="url(#p17f0443c09)" style="fill: #1f77b4; fill-opacity: 0.3; stroke: #1f77b4; stroke-opacity: 0.3"/>
    <path d="M 433.041929 352.57131 
C 433.880575 352.57131 434.684985 352.238112 435.277997 351.6451 
C 435.87101 351.052088 436.204207 350.247678 436.204207 349.409032 
C 436.204207 348.570386 435.87101 347.765976 435.277997 347.172964 
C 434.684985 346.579952 433.880575 346.246755 433.041929 346.246755 
C 432.203284 346.246755 431.398874 346.579952 430.805862 347.172964 
C 430.212849 347.765976 429.879652 348.570386 429.879652 349.409032 
C 429.879652 350.247678 430.212849 351.052088 430.805862 351.6451 
C 431.398874 352.238112 432.203284 352.57131 433.041929 352.57131 
z
" clip-path="url(#p17f0443c09)" style="fill: #1f77b4; fill-opacity: 0.3; stroke: #1f77b4; stroke-opacity: 0.3"/>
    <path d="M 449.605937 340.697402 
C 451.058514 340.697402 452.451793 340.120286 453.47892 339.093159 
C 454.506047 338.066032 455.083162 336.672753 455.083162 335.220176 
C 455.083162 333.767599 454.506047 332.37432 453.47892 331.347193 
C 452.451793 330.320065 451.058514 329.74295 449.605937 329.74295 
C 448.15336 329.74295 446.760081 330.320065 445.732954 331.347193 
C 444.705826 332.37432 444.128711 333.767599 444.128711 335.220176 
C 444.128711 336.672753 444.705826 338.066032 445.732954 339.093159 
C 446.760081 340.120286 448.15336 340.697402 449.605937 340.697402 
z
" clip-path="url(#p17f0443c09)" style="fill: #1f77b4; fill-opacity: 0.3; stroke: #1f77b4; stroke-opacity: 0.3"/>
    <path d="M 466.169944 332.843686 
C 467.107579 332.843686 468.006937 332.47116 468.669944 331.808152 
C 469.332952 331.145145 469.705478 330.245787 469.705478 329.308152 
C 469.705478 328.370518 469.332952 327.47116 468.669944 326.808152 
C 468.006937 326.145145 467.107579 325.772619 466.169944 325.772619 
C 465.23231 325.772619 464.332952 326.145145 463.669944 326.808152 
C 463.006937 327.47116 462.63441 328.370518 462.63441 329.308152 
C 462.63441 330.245787 463.006937 331.145145 463.669944 331.808152 
C 464.332952 332.47116 465.23231 332.843686 466.169944 332.843686 
z
" clip-path="url(#p17f0443c09)" style="fill: #1f77b4; fill-opacity: 0.3; stroke: #1f77b4; stroke-opacity: 0.3"/>
    <path d="M 482.733952 326.086708 
C 483.761079 326.086708 484.746276 325.678626 485.472565 324.952337 
C 486.198853 324.226049 486.606935 323.240852 486.606935 322.213724 
C 486.606935 321.186597 486.198853 320.2014 485.472565 319.475112 
C 484.746276 318.748823 483.761079 318.340741 482.733952 318.340741 
C 481.706825 318.340741 480.721628 318.748823 479.995339 319.475112 
C 479.26905 320.2014 478.860968 321.186597 478.860968 322.213724 
C 478.860968 323.240852 479.26905 324.226049 479.995339 324.952337 
C 480.721628 325.678626 481.706825 326.086708 482.733952 326.086708 
z
" clip-path="url(#p17f0443c09)" style="fill: #1f77b4; fill-opacity: 0.3; stroke: #1f77b4; stroke-opacity: 0.3"/>
    <path d="M 499.297959 321.405123 
C 500.024248 321.405123 500.720887 321.116566 501.234451 320.603002 
C 501.748014 320.089438 502.036572 319.392799 502.036572 318.66651 
C 502.036572 317.940222 501.748014 317.243582 501.234451 316.730019 
C 500.720887 316.216455 500.024248 315.927897 499.297959 315.927897 
C 498.571671 315.927897 497.875031 316.216455 497.361468 316.730019 
C 496.847904 317.243582 496.559346 317.940222 496.559346 318.66651 
C 496.559346 319.392799 496.847904 320.089438 497.361468 320.603002 
C 497.875031 321.116566 498.571671 321.405123 499.297959 321.405123 
z
" clip-path="url(#p17f0443c09)" style="fill: #1f77b4; fill-opacity: 0.3; stroke: #1f77b4; stroke-opacity: 0.3"/>
    <path d="M 515.861967 317.857909 
C 516.588255 317.857909 517.284895 317.569351 517.798458 317.055788 
C 518.312022 316.542224 518.600579 315.845585 518.600579 315.119296 
C 518.600579 314.393008 518.312022 313.696368 517.798458 313.182805 
C 517.284895 312.669241 516.588255 312.380683 515.861967 312.380683 
C 515.135678 312.380683 514.439039 312.669241 513.925475 313.182805 
C 513.411911 313.696368 513.123354 314.393008 513.123354 315.119296 
C 513.123354 315.845585 513.411911 316.542224 513.925475 317.055788 
C 514.439039 317.569351 515.135678 317.857909 515.861967 317.857909 
z
" clip-path="url(#p17f0443c09)" style="fill: #1f77b4; fill-opacity: 0.3; stroke: #1f77b4; stroke-opacity: 0.3"/>
    <path d="M 532.425974 312.742807 
C 533.363609 312.742807 534.262966 312.37028 534.925974 311.707273 
C 535.588982 311.044265 535.961508 310.144907 535.961508 309.207273 
C 535.961508 308.269638 535.588982 307.37028 534.925974 306.707273 
C 534.262966 306.044265 533.363609 305.671739 532.425974 305.671739 
C 531.488339 305.671739 530.588982 306.044265 529.925974 306.707273 
C 529.262966 307.37028 528.89044 308.269638 528.89044 309.207273 
C 528.89044 310.144907 529.262966 311.044265 529.925974 311.707273 
C 530.588982 312.37028 531.488339 312.742807 532.425974 312.742807 
z
" clip-path="url(#p17f0443c09)" style="fill: #1f77b4; fill-opacity: 0.3; stroke: #1f77b4; stroke-opacity: 0.3"/>
    <path d="M 548.989981 306.830783 
C 549.927616 306.830783 550.826974 306.458257 551.489981 305.795249 
C 552.152989 305.132242 552.525515 304.232884 552.525515 303.295249 
C 552.525515 302.357615 552.152989 301.458257 551.489981 300.795249 
C 550.826974 300.132242 549.927616 299.759715 548.989981 299.759715 
C 548.052347 299.759715 547.152989 300.132242 546.489981 300.795249 
C 545.826974 301.458257 545.454448 302.357615 545.454448 303.295249 
C 545.454448 304.232884 545.826974 305.132242 546.489981 305.795249 
C 547.152989 306.458257 548.052347 306.830783 548.989981 306.830783 
z
" clip-path="url(#p17f0443c09)" style="fill: #1f77b4; fill-opacity: 0.3; stroke: #1f77b4; stroke-opacity: 0.3"/>
    <path d="M 565.553989 301.727908 
C 566.392635 301.727908 567.197045 301.394711 567.790057 300.801698 
C 568.383069 300.208686 568.716267 299.404276 568.716267 298.56563 
C 568.716267 297.726985 568.383069 296.922575 567.790057 296.329563 
C 567.197045 295.73655 566.392635 295.403353 565.553989 295.403353 
C 564.715343 295.403353 563.910933 295.73655 563.317921 296.329563 
C 562.724909 296.922575 562.391711 297.726985 562.391711 298.56563 
C 562.391711 299.404276 562.724909 300.208686 563.317921 300.801698 
C 563.910933 301.394711 564.715343 301.727908 565.553989 301.727908 
z
" clip-path="url(#p17f0443c09)" style="fill: #1f77b4; fill-opacity: 0.3; stroke: #1f77b4; stroke-opacity: 0.3"/>
    <path d="M 582.117996 298.436889 
C 582.711008 298.436889 583.279812 298.201283 583.699135 297.78196 
C 584.118458 297.362637 584.354064 296.793833 584.354064 296.200821 
C 584.354064 295.607809 584.118458 295.039005 583.699135 294.619682 
C 583.279812 294.200359 582.711008 293.964753 582.117996 293.964753 
C 581.524984 293.964753 580.95618 294.200359 580.536857 294.619682 
C 580.117535 295.039005 579.881928 295.607809 579.881928 296.200821 
C 579.881928 296.793833 580.117535 297.362637 580.536857 297.78196 
C 580.95618 298.201283 581.524984 298.436889 582.117996 298.436889 
z
" clip-path="url(#p17f0443c09)" style="fill: #1f77b4; fill-opacity: 0.3; stroke: #1f77b4; stroke-opacity: 0.3"/>
    <path d="M 598.682004 292.107288 
C 599.791428 292.107288 600.855562 291.66651 601.640044 290.882028 
C 602.424525 290.097547 602.865304 289.033412 602.865304 287.923988 
C 602.865304 286.814564 602.424525 285.75043 601.640044 284.965948 
C 600.855562 284.181467 599.791428 283.740688 598.682004 283.740688 
C 597.57258 283.740688 596.508445 284.181467 595.723964 284.965948 
C 594.939482 285.75043 594.498704 286.814564 594.498704 287.923988 
C 594.498704 289.033412 594.939482 290.097547 595.723964 290.882028 
C 596.508445 291.66651 597.57258 292.107288 598.682004 292.107288 
z
" clip-path="url(#p17f0443c09)" style="fill: #1f77b4; fill-opacity: 0.3; stroke: #1f77b4; stroke-opacity: 0.3"/>
    <path d="M 615.246011 287.795247 
C 615.839023 287.795247 616.407827 287.559641 616.82715 287.140318 
C 617.246473 286.720995 617.482079 286.152191 617.482079 285.559179 
C 617.482079 284.966167 617.246473 284.397363 616.82715 283.97804 
C 616.407827 283.558717 615.839023 283.323111 615.246011 283.323111 
C 614.652999 283.323111 614.084195 283.558717 613.664872 283.97804 
C 613.245549 284.397363 613.009943 284.966167 613.009943 285.559179 
C 613.009943 286.152191 613.245549 286.720995 613.664872 287.140318 
C 614.084195 287.559641 614.652999 287.795247 615.246011 287.795247 
z
" clip-path="url(#p17f0443c09)" style="fill: #1f77b4; fill-opacity: 0.3; stroke: #1f77b4; stroke-opacity: 0.3"/>
    <path d="M 648.374026 278.735132 
C 649.700041 278.735132 650.971925 278.2083 651.90956 277.270666 
C 652.847194 276.333031 653.374026 275.061147 653.374026 273.735132 
C 653.374026 272.409116 652.847194 271.137233 651.90956 270.199598 
C 650.971925 269.261964 649.700041 268.735132 648.374026 268.735132 
C 647.04801 268.735132 645.776127 269.261964 644.838492 270.199598 
C 643.900858 271.137233 643.374026 272.409116 643.374026 273.735132 
C 643.374026 275.061147 643.900858 276.333031 644.838492 277.270666 
C 645.776127 278.2083 647.04801 278.735132 648.374026 278.735132 
z
" clip-path="url(#p17f0443c09)" style="fill: #1f77b4; fill-opacity: 0.3; stroke: #1f77b4; stroke-opacity: 0.3"/>
    <path d="M 664.938033 274.133866 
C 665.357356 274.133866 665.759561 273.967267 666.056067 273.670761 
C 666.352573 273.374255 666.519172 272.97205 666.519172 272.552727 
C 666.519172 272.133404 666.352573 271.731199 666.056067 271.434693 
C 665.759561 271.138187 665.357356 270.971588 664.938033 270.971588 
C 664.51871 270.971588 664.116505 271.138187 663.819999 271.434693 
C 663.523493 271.731199 663.356895 272.133404 663.356895 272.552727 
C 663.356895 272.97205 663.523493 273.374255 663.819999 273.670761 
C 664.116505 273.967267 664.51871 274.133866 664.938033 274.133866 
z
" clip-path="url(#p17f0443c09)" style="fill: #1f77b4; fill-opacity: 0.3; stroke: #1f77b4; stroke-opacity: 0.3"/>
    <path d="M 681.502041 269.331282 
C 682.529168 269.331282 683.514365 268.923201 684.240654 268.196912 
C 684.966942 267.470623 685.375024 266.485426 685.375024 265.458299 
C 685.375024 264.431172 684.966942 263.445975 684.240654 262.719686 
C 683.514365 261.993398 682.529168 261.585316 681.502041 261.585316 
C 680.474914 261.585316 679.489717 261.993398 678.763428 262.719686 
C 678.037139 263.445975 677.629057 264.431172 677.629057 265.458299 
C 677.629057 266.485426 678.037139 267.470623 678.763428 268.196912 
C 679.489717 268.923201 680.474914 269.331282 681.502041 269.331282 
z
" clip-path="url(#p17f0443c09)" style="fill: #1f77b4; fill-opacity: 0.3; stroke: #1f77b4; stroke-opacity: 0.3"/>
    <path d="M 698.066048 253.845953 
C 699.690079 253.845953 701.247812 253.200719 702.396175 252.052356 
C 703.544538 250.903993 704.189773 249.346259 704.189773 247.722229 
C 704.189773 246.098198 703.544538 244.540465 702.396175 243.392102 
C 701.247812 242.243739 699.690079 241.598504 698.066048 241.598504 
C 696.442018 241.598504 694.884284 242.243739 693.735921 243.392102 
C 692.587558 244.540465 691.942324 246.098198 691.942324 247.722229 
C 691.942324 249.346259 692.587558 250.903993 693.735921 252.052356 
C 694.884284 253.200719 696.442018 253.845953 698.066048 253.845953 
z
" clip-path="url(#p17f0443c09)" style="fill: #1f77b4; fill-opacity: 0.3; stroke: #1f77b4; stroke-opacity: 0.3"/>
    <path d="M 714.630056 236.109883 
C 716.254086 236.109883 717.81182 235.464648 718.960183 234.316285 
C 720.108546 233.167922 720.75378 231.610189 720.75378 229.986158 
C 720.75378 228.362128 720.108546 226.804394 718.960183 225.656031 
C 717.81182 224.507668 716.254086 223.862434 714.630056 223.862434 
C 713.006025 223.862434 711.448292 224.507668 710.299929 225.656031 
C 709.151566 226.804394 708.506331 228.362128 708.506331 229.986158 
C 708.506331 231.610189 709.151566 233.167922 710.299929 234.316285 
C 711.448292 235.464648 713.006025 236.109883 714.630056 236.109883 
z
" clip-path="url(#p17f0443c09)" style="fill: #1f77b4; fill-opacity: 0.3; stroke: #1f77b4; stroke-opacity: 0.3"/>
    <path d="M 731.194063 229.177557 
C 731.920352 229.177557 732.616991 228.889 733.130555 228.375436 
C 733.644118 227.861872 733.932676 227.165233 733.932676 226.438944 
C 733.932676 225.712656 733.644118 225.016016 733.130555 224.502453 
C 732.616991 223.988889 731.920352 223.700331 731.194063 223.700331 
C 730.467774 223.700331 729.771135 223.988889 729.257571 224.502453 
C 728.744008 225.016016 728.45545 225.712656 728.45545 226.438944 
C 728.45545 227.165233 728.744008 227.861872 729.257571 228.375436 
C 729.771135 228.889 730.467774 229.177557 731.194063 229.177557 
z
" clip-path="url(#p17f0443c09)" style="fill: #1f77b4; fill-opacity: 0.3; stroke: #1f77b4; stroke-opacity: 0.3"/>
    <path d="M 764.322078 224.871603 
C 765.160724 224.871603 765.965134 224.538406 766.558146 223.945393 
C 767.151158 223.352381 767.484356 222.547971 767.484356 221.709326 
C 767.484356 220.87068 767.151158 220.06627 766.558146 219.473258 
C 765.965134 218.880245 765.160724 218.547048 764.322078 218.547048 
C 763.483432 218.547048 762.679022 218.880245 762.08601 219.473258 
C 761.492998 220.06627 761.1598 220.87068 761.1598 221.709326 
C 761.1598 222.547971 761.492998 223.352381 762.08601 223.945393 
C 762.679022 224.538406 763.483432 224.871603 764.322078 224.871603 
z
" clip-path="url(#p17f0443c09)" style="fill: #1f77b4; fill-opacity: 0.3; stroke: #1f77b4; stroke-opacity: 0.3"/>
    <path d="M 780.886085 208.127648 
C 782.614998 208.127648 784.273332 207.440744 785.495858 206.218218 
C 786.718383 204.995692 787.405288 203.337358 787.405288 201.608446 
C 787.405288 199.879533 786.718383 198.221199 785.495858 196.998674 
C 784.273332 195.776148 782.614998 195.089243 780.886085 195.089243 
C 779.157173 195.089243 777.498839 195.776148 776.276313 196.998674 
C 775.053787 198.221199 774.366883 199.879533 774.366883 201.608446 
C 774.366883 203.337358 775.053787 204.995692 776.276313 206.218218 
C 777.498839 207.440744 779.157173 208.127648 780.886085 208.127648 
z
" clip-path="url(#p17f0443c09)" style="fill: #1f77b4; fill-opacity: 0.3; stroke: #1f77b4; stroke-opacity: 0.3"/>
    <path d="M 797.450093 202.00718 
C 797.869416 202.00718 798.271621 201.840581 798.568127 201.544075 
C 798.864633 201.247569 799.031232 200.845364 799.031232 200.426041 
C 799.031232 200.006718 798.864633 199.604513 798.568127 199.308007 
C 798.271621 199.011501 797.869416 198.844902 797.450093 198.844902 
C 797.03077 198.844902 796.628565 199.011501 796.332059 199.308007 
C 796.035553 199.604513 795.868954 200.006718 795.868954 200.426041 
C 795.868954 200.845364 796.035553 201.247569 796.332059 201.544075 
C 796.628565 201.840581 797.03077 202.00718 797.450093 202.00718 
z
" clip-path="url(#p17f0443c09)" style="fill: #1f77b4; fill-opacity: 0.3; stroke: #1f77b4; stroke-opacity: 0.3"/>
    <path d="M 814.0141 198.8587 
C 814.852746 198.8587 815.657156 198.525502 816.250168 197.93249 
C 816.84318 197.339478 817.176378 196.535068 817.176378 195.696422 
C 817.176378 194.857776 816.84318 194.053366 816.250168 193.460354 
C 815.657156 192.867342 814.852746 192.534145 814.0141 192.534145 
C 813.175454 192.534145 812.371044 192.867342 811.778032 193.460354 
C 811.18502 194.053366 810.851823 194.857776 810.851823 195.696422 
C 810.851823 196.535068 811.18502 197.339478 811.778032 197.93249 
C 812.371044 198.525502 813.175454 198.8587 814.0141 198.8587 
z
" clip-path="url(#p17f0443c09)" style="fill: #1f77b4; fill-opacity: 0.3; stroke: #1f77b4; stroke-opacity: 0.3"/>
    <path d="M 830.578108 194.887821 
C 831.304396 194.887821 832.001036 194.599263 832.514599 194.0857 
C 833.028163 193.572136 833.31672 192.875497 833.31672 192.149208 
C 833.31672 191.42292 833.028163 190.72628 832.514599 190.212717 
C 832.001036 189.699153 831.304396 189.410595 830.578108 189.410595 
C 829.851819 189.410595 829.15518 189.699153 828.641616 190.212717 
C 828.128052 190.72628 827.839495 191.42292 827.839495 192.149208 
C 827.839495 192.875497 828.128052 193.572136 828.641616 194.0857 
C 829.15518 194.599263 829.851819 194.887821 830.578108 194.887821 
z
" clip-path="url(#p17f0443c09)" style="fill: #1f77b4; fill-opacity: 0.3; stroke: #1f77b4; stroke-opacity: 0.3"/>
    <path d="M 847.142115 191.340607 
C 847.868404 191.340607 848.565043 191.052049 849.078607 190.538486 
C 849.59217 190.024922 849.880728 189.328283 849.880728 188.601994 
C 849.880728 187.875706 849.59217 187.179066 849.078607 186.665502 
C 848.565043 186.151939 847.868404 185.863381 847.142115 185.863381 
C 846.415826 185.863381 845.719187 186.151939 845.205623 186.665502 
C 844.69206 187.179066 844.403502 187.875706 844.403502 188.601994 
C 844.403502 189.328283 844.69206 190.024922 845.205623 190.538486 
C 845.719187 191.052049 846.415826 191.340607 847.142115 191.340607 
z
" clip-path="url(#p17f0443c09)" style="fill: #1f77b4; fill-opacity: 0.3; stroke: #1f77b4; stroke-opacity: 0.3"/>
    <path d="M 863.706122 174.026914 
C 865.485159 174.026914 867.19157 173.320095 868.449539 172.062126 
C 869.707508 170.804157 870.414326 169.097746 870.414326 167.31871 
C 870.414326 165.539673 869.707508 163.833262 868.449539 162.575293 
C 867.19157 161.317324 865.485159 160.610506 863.706122 160.610506 
C 861.927086 160.610506 860.220675 161.317324 858.962706 162.575293 
C 857.704737 163.833262 856.997919 165.539673 856.997919 167.31871 
C 856.997919 169.097746 857.704737 170.804157 858.962706 172.062126 
C 860.220675 173.320095 861.927086 174.026914 863.706122 174.026914 
z
" clip-path="url(#p17f0443c09)" style="fill: #1f77b4; fill-opacity: 0.3; stroke: #1f77b4; stroke-opacity: 0.3"/>
    <path d="M 880.27013 166.510108 
C 880.996418 166.510108 881.693058 166.221551 882.206622 165.707987 
C 882.720185 165.194424 883.008743 164.497784 883.008743 163.771496 
C 883.008743 163.045207 882.720185 162.348568 882.206622 161.835004 
C 881.693058 161.32144 880.996418 161.032883 880.27013 161.032883 
C 879.543841 161.032883 878.847202 161.32144 878.333638 161.835004 
C 877.820075 162.348568 877.531517 163.045207 877.531517 163.771496 
C 877.531517 164.497784 877.820075 165.194424 878.333638 165.707987 
C 878.847202 166.221551 879.543841 166.510108 880.27013 166.510108 
z
" clip-path="url(#p17f0443c09)" style="fill: #1f77b4; fill-opacity: 0.3; stroke: #1f77b4; stroke-opacity: 0.3"/>
    <path d="M 896.834137 159.677963 
C 897.943561 159.677963 899.007696 159.237184 899.792177 158.452703 
C 900.576659 157.668221 901.017437 156.604087 901.017437 155.494663 
C 901.017437 154.385239 900.576659 153.321104 899.792177 152.536623 
C 899.007696 151.752142 897.943561 151.311363 896.834137 151.311363 
C 895.724713 151.311363 894.660579 151.752142 893.876097 152.536623 
C 893.091616 153.321104 892.650837 154.385239 892.650837 155.494663 
C 892.650837 156.604087 893.091616 157.668221 893.876097 158.452703 
C 894.660579 159.237184 895.724713 159.677963 896.834137 159.677963 
z
" clip-path="url(#p17f0443c09)" style="fill: #1f77b4; fill-opacity: 0.3; stroke: #1f77b4; stroke-opacity: 0.3"/>
    <path d="M 913.398145 153.927322 
C 914.236791 153.927322 915.041201 153.594124 915.634213 153.001112 
C 916.227225 152.4081 916.560422 151.60369 916.560422 150.765044 
C 916.560422 149.926398 916.227225 149.121988 915.634213 148.528976 
C 915.041201 147.935964 914.236791 147.602766 913.398145 147.602766 
C 912.559499 147.602766 911.755089 147.935964 911.162077 148.528976 
C 910.569065 149.121988 910.235867 149.926398 910.235867 150.765044 
C 910.235867 151.60369 910.569065 152.4081 911.162077 153.001112 
C 911.755089 153.594124 912.559499 153.927322 913.398145 153.927322 
z
" clip-path="url(#p17f0443c09)" style="fill: #1f77b4; fill-opacity: 0.3; stroke: #1f77b4; stroke-opacity: 0.3"/>
    <path d="M 929.962152 140.127458 
C 931.531115 140.127458 933.036028 139.504103 934.145452 138.394678 
C 935.254876 137.285254 935.878232 135.780341 935.878232 134.211378 
C 935.878232 132.642416 935.254876 131.137502 934.145452 130.028078 
C 933.036028 128.918654 931.531115 128.295299 929.962152 128.295299 
C 928.393189 128.295299 926.888276 128.918654 925.778852 130.028078 
C 924.669428 131.137502 924.046072 132.642416 924.046072 134.211378 
C 924.046072 135.780341 924.669428 137.285254 925.778852 138.394678 
C 926.888276 139.504103 928.393189 140.127458 929.962152 140.127458 
z
" clip-path="url(#p17f0443c09)" style="fill: #1f77b4; fill-opacity: 0.3; stroke: #1f77b4; stroke-opacity: 0.3"/>
    <path d="M 946.52616 117.634352 
C 948.401429 117.634352 950.200144 116.8893 951.52616 115.563284 
C 952.852175 114.237269 953.597227 112.438554 953.597227 110.563284 
C 953.597227 108.688015 952.852175 106.8893 951.52616 105.563284 
C 950.200144 104.237269 948.401429 103.492217 946.52616 103.492217 
C 944.65089 103.492217 942.852175 104.237269 941.52616 105.563284 
C 940.200144 106.8893 939.455092 108.688015 939.455092 110.563284 
C 939.455092 112.438554 940.200144 114.237269 941.52616 115.563284 
C 942.852175 116.8893 944.65089 117.634352 946.52616 117.634352 
z
" clip-path="url(#p17f0443c09)" style="fill: #1f77b4; fill-opacity: 0.3; stroke: #1f77b4; stroke-opacity: 0.3"/>
    <path d="M 963.090167 108.186795 
C 964.027802 108.186795 964.927159 107.814269 965.590167 107.151261 
C 966.253175 106.488253 966.625701 105.588896 966.625701 104.651261 
C 966.625701 103.713626 966.253175 102.814269 965.590167 102.151261 
C 964.927159 101.488253 964.027802 101.115727 963.090167 101.115727 
C 962.152532 101.115727 961.253175 101.488253 960.590167 102.151261 
C 959.927159 102.814269 959.554633 103.713626 959.554633 104.651261 
C 959.554633 105.588896 959.927159 106.488253 960.590167 107.151261 
C 961.253175 107.814269 962.152532 108.186795 963.090167 108.186795 
z
" clip-path="url(#p17f0443c09)" style="fill: #1f77b4; fill-opacity: 0.3; stroke: #1f77b4; stroke-opacity: 0.3"/>
    <path d="M 979.654174 103.84266 
C 980.380463 103.84266 981.077102 103.554102 981.590666 103.040539 
C 982.10423 102.526975 982.392787 101.830336 982.392787 101.104047 
C 982.392787 100.377758 982.10423 99.681119 981.590666 99.167555 
C 981.077102 98.653992 980.380463 98.365434 979.654174 98.365434 
C 978.927886 98.365434 978.231246 98.653992 977.717683 99.167555 
C 977.204119 99.681119 976.915562 100.377758 976.915562 101.104047 
C 976.915562 101.830336 977.204119 102.526975 977.717683 103.040539 
C 978.231246 103.554102 978.927886 103.84266 979.654174 103.84266 
z
" clip-path="url(#p17f0443c09)" style="fill: #1f77b4; fill-opacity: 0.3; stroke: #1f77b4; stroke-opacity: 0.3"/>
    <path d="M 996.218182 94.28 
C 997.544197 94.28 998.816081 93.753168 999.753716 92.815534 
C 1000.69135 91.877899 1001.218182 90.606016 1001.218182 89.28 
C 1001.218182 87.953985 1000.69135 86.682101 999.753716 85.744466 
C 998.816081 84.806832 997.544197 84.28 996.218182 84.28 
C 994.892166 84.28 993.620282 84.806832 992.682648 85.744466 
C 991.745013 86.682101 991.218182 87.953985 991.218182 89.28 
C 991.218182 90.606016 991.745013 91.877899 992.682648 92.815534 
C 993.620282 93.753168 994.892166 94.28 996.218182 94.28 
z
" clip-path="url(#p17f0443c09)" style="fill: #1f77b4; fill-opacity: 0.3; stroke: #1f77b4; stroke-opacity: 0.3"/>
   </g>
   <g id="matplotlib.axis_1">
    <g id="xtick_1">
     <g id="line2d_1">
      <defs>
       <path id="mf8a5981490" d="M 0 0 
L 0 3.5 
" style="stroke: #000000; stroke-width: 0.8"/>
      </defs>
      <g>
       <use xlink:href="#mf8a5981490" x="184.581818" y="512.64" style="stroke: #000000; stroke-width: 0.8"/>
      </g>
     </g>
     <g id="text_1">
      <!-- 2024-01-01 -->
      <g transform="translate(155.524006 527.238438) scale(0.1 -0.1)">
       <defs>
        <path id="DejaVuSans-32" d="M 1228 531 
L 3431 531 
L 3431 0 
L 469 0 
L 469 531 
Q 828 903 1448 1529 
Q 2069 2156 2228 2338 
Q 2531 2678 2651 2914 
Q 2772 3150 2772 3378 
Q 2772 3750 2511 3984 
Q 2250 4219 1831 4219 
Q 1534 4219 1204 4116 
Q 875 4013 500 3803 
L 500 4441 
Q 881 4594 1212 4672 
Q 1544 4750 1819 4750 
Q 2544 4750 2975 4387 
Q 3406 4025 3406 3419 
Q 3406 3131 3298 2873 
Q 3191 2616 2906 2266 
Q 2828 2175 2409 1742 
Q 1991 1309 1228 531 
z
" transform="scale(0.015625)"/>
        <path id="DejaVuSans-30" d="M 2034 4250 
Q 1547 4250 1301 3770 
Q 1056 3291 1056 2328 
Q 1056 1369 1301 889 
Q 1547 409 2034 409 
Q 2525 409 2770 889 
Q 3016 1369 3016 2328 
Q 3016 3291 2770 3770 
Q 2525 4250 2034 4250 
z
M 2034 4750 
Q 2819 4750 3233 4129 
Q 3647 3509 3647 2328 
Q 3647 1150 3233 529 
Q 2819 -91 2034 -91 
Q 1250 -91 836 529 
Q 422 1150 422 2328 
Q 422 3509 836 4129 
Q 1250 4750 2034 4750 
z
" transform="scale(0.015625)"/>
        <path id="DejaVuSans-34" d="M 2419 4116 
L 825 1625 
L 2419 1625 
L 2419 4116 
z
M 2253 4666 
L 3047 4666 
L 3047 1625 
L 3713 1625 
L 3713 1100 
L 3047 1100 
L 3047 0 
L 2419 0 
L 2419 1100 
L 313 1100 
L 313 1709 
L 2253 4666 
z
" transform="scale(0.015625)"/>
        <path id="DejaVuSans-2d" d="M 313 2009 
L 1997 2009 
L 1997 1497 
L 313 1497 
L 313 2009 
z
" transform="scale(0.015625)"/>
        <path id="DejaVuSans-31" d="M 794 531 
L 1825 531 
L 1825 4091 
L 703 3866 
L 703 4441 
L 1819 4666 
L 2450 4666 
L 2450 531 
L 3481 531 
L 3481 0 
L 794 0 
L 794 531 
z
" transform="scale(0.015625)"/>
       </defs>
       <use xlink:href="#DejaVuSans-32"/>
       <use xlink:href="#DejaVuSans-30" x="63.623047"/>
       <use xlink:href="#DejaVuSans-32" x="127.246094"/>
       <use xlink:href="#DejaVuSans-34" x="190.869141"/>
       <use xlink:href="#DejaVuSans-2d" x="254.492188"/>
       <use xlink:href="#DejaVuSans-30" x="290.576172"/>
       <use xlink:href="#DejaVuSans-31" x="354.199219"/>
       <use xlink:href="#DejaVuSans-2d" x="417.822266"/>
       <use xlink:href="#DejaVuSans-30" x="453.90625"/>
       <use xlink:href="#DejaVuSans-31" x="517.529297"/>
      </g>
     </g>
    </g>
    <g id="xtick_2">
     <g id="line2d_2">
      <g>
       <use xlink:href="#mf8a5981490" x="300.52987" y="512.64" style="stroke: #000000; stroke-width: 0.8"/>
      </g>
     </g>
     <g id="text_2">
      <!-- 2024-01-08 -->
      <g transform="translate(271.472058 527.238438) scale(0.1 -0.1)">
       <defs>
        <path id="DejaVuSans-38" d="M 2034 2216 
Q 1584 2216 1326 1975 
Q 1069 1734 1069 1313 
Q 1069 891 1326 650 
Q 1584 409 2034 409 
Q 2484 409 2743 651 
Q 3003 894 3003 1313 
Q 3003 1734 2745 1975 
Q 2488 2216 2034 2216 
z
M 1403 2484 
Q 997 2584 770 2862 
Q 544 3141 544 3541 
Q 544 4100 942 4425 
Q 1341 4750 2034 4750 
Q 2731 4750 3128 4425 
Q 3525 4100 3525 3541 
Q 3525 3141 3298 2862 
Q 3072 2584 2669 2484 
Q 3125 2378 3379 2068 
Q 3634 1759 3634 1313 
Q 3634 634 3220 271 
Q 2806 -91 2034 -91 
Q 1263 -91 848 271 
Q 434 634 434 1313 
Q 434 1759 690 2068 
Q 947 2378 1403 2484 
z
M 1172 3481 
Q 1172 3119 1398 2916 
Q 1625 2713 2034 2713 
Q 2441 2713 2670 2916 
Q 2900 3119 2900 3481 
Q 2900 3844 2670 4047 
Q 2441 4250 2034 4250 
Q 1625 4250 1398 4047 
Q 1172 3844 1172 3481 
z
" transform="scale(0.015625)"/>
       </defs>
       <use xlink:href="#DejaVuSans-32"/>
       <use xlink:href="#DejaVuSans-30" x="63.623047"/>
       <use xlink:href="#DejaVuSans-32" x="127.246094"/>
       <use xlink:href="#DejaVuSans-34" x="190.869141"/>
       <use xlink:href="#DejaVuSans-2d" x="254.492188"/>
       <use xlink:href="#DejaVuSans-30" x="290.576172"/>
       <use xlink:href="#DejaVuSans-31" x="354.199219"/>
       <use xlink:href="#DejaVuSans-2d" x="417.822266"/>
       <use xlink:href="#DejaVuSans-30" x="453.90625"/>
       <use xlink:href="#DejaVuSans-38" x="517.529297"/>
      </g>
     </g>
    </g>
    <g id="xtick_3">
     <g id="line2d_3">
      <g>
       <use xlink:href="#mf8a5981490" x="416.477922" y="512.64" style="stroke: #000000; stroke-width: 0.8"/>
      </g>
     </g>
     <g id="text_3">
      <!-- 2024-01-15 -->
      <g transform="translate(387.42011 527.238438) scale(0.1 -0.1)">
       <defs>
        <path id="DejaVuSans-35" d="M 691 4666 
L 3169 4666 
L 3169 4134 
L 1269 4134 
L 1269 2991 
Q 1406 3038 1543 3061 
Q 1681 3084 1819 3084 
Q 2600 3084 3056 2656 
Q 3513 2228 3513 1497 
Q 3513 744 3044 326 
Q 2575 -91 1722 -91 
Q 1428 -91 1123 -41 
Q 819 9 494 109 
L 494 744 
Q 775 591 1075 516 
Q 1375 441 1709 441 
Q 2250 441 2565 725 
Q 2881 1009 2881 1497 
Q 2881 1984 2565 2268 
Q 2250 2553 1709 2553 
Q 1456 2553 1204 2497 
Q 953 2441 691 2322 
L 691 4666 
z
" transform="scale(0.015625)"/>
       </defs>
       <use xlink:href="#DejaVuSans-32"/>
       <use xlink:href="#DejaVuSans-30" x="63.623047"/>
       <use xlink:href="#DejaVuSans-32" x="127.246094"/>
       <use xlink:href="#DejaVuSans-34" x="190.869141"/>
       <use xlink:href="#DejaVuSans-2d" x="254.492188"/>
       <use xlink:href="#DejaVuSans-30" x="290.576172"/>
       <use xlink:href="#DejaVuSans-31" x="354.199219"/>
       <use xlink:href="#DejaVuSans-2d" x="417.822266"/>
       <use xlink:href="#DejaVuSans-31" x="453.90625"/>
       <use xlink:href="#DejaVuSans-35" x="517.529297"/>
      </g>
     </g>
    </g>
    <g id="xtick_4">
     <g id="line2d_4">
      <g>
       <use xlink:href="#mf8a5981490" x="532.425974" y="512.64" style="stroke: #000000; stroke-width: 0.8"/>
      </g>
     </g>
     <g id="text_4">
      <!-- 2024-01-22 -->
      <g transform="translate(503.368162 527.238438) scale(0.1 -0.1)">
       <use xlink:href="#DejaVuSans-32"/>
       <use xlink:href="#DejaVuSans-30" x="63.623047"/>
       <use xlink:href="#DejaVuSans-32" x="127.246094"/>
       <use xlink:href="#DejaVuSans-34" x="190.869141"/>
       <use xlink:href="#DejaVuSans-2d" x="254.492188"/>
       <use xlink:href="#DejaVuSans-30" x="290.576172"/>
       <use xlink:href="#DejaVuSans-31" x="354.199219"/>
       <use xlink:href="#DejaVuSans-2d" x="417.822266"/>
       <use xlink:href="#DejaVuSans-32" x="453.90625"/>
       <use xlink:href="#DejaVuSans-32" x="517.529297"/>
      </g>
     </g>
    </g>
    <g id="xtick_5">
     <g id="line2d_5">
      <g>
       <use xlink:href="#mf8a5981490" x="698.066048" y="512.64" style="stroke: #000000; stroke-width: 0.8"/>
      </g>
     </g>
     <g id="text_5">
      <!-- 2024-02-01 -->
      <g transform="translate(669.008236 527.238438) scale(0.1 -0.1)">
       <use xlink:href="#DejaVuSans-32"/>
       <use xlink:href="#DejaVuSans-30" x="63.623047"/>
       <use xlink:href="#DejaVuSans-32" x="127.246094"/>
       <use xlink:href="#DejaVuSans-34" x="190.869141"/>
       <use xlink:href="#DejaVuSans-2d" x="254.492188"/>
       <use xlink:href="#DejaVuSans-30" x="290.576172"/>
       <use xlink:href="#DejaVuSans-32" x="354.199219"/>
       <use xlink:href="#DejaVuSans-2d" x="417.822266"/>
       <use xlink:href="#DejaVuSans-30" x="453.90625"/>
       <use xlink:href="#DejaVuSans-31" x="517.529297"/>
      </g>
     </g>
    </g>
    <g id="xtick_6">
     <g id="line2d_6">
      <g>
       <use xlink:href="#mf8a5981490" x="814.0141" y="512.64" style="stroke: #000000; stroke-width: 0.8"/>
      </g>
     </g>
     <g id="text_6">
      <!-- 2024-02-08 -->
      <g transform="translate(784.956288 527.238438) scale(0.1 -0.1)">
       <use xlink:href="#DejaVuSans-32"/>
       <use xlink:href="#DejaVuSans-30" x="63.623047"/>
       <use xlink:href="#DejaVuSans-32" x="127.246094"/>
       <use xlink:href="#DejaVuSans-34" x="190.869141"/>
       <use xlink:href="#DejaVuSans-2d" x="254.492188"/>
       <use xlink:href="#DejaVuSans-30" x="290.576172"/>
       <use xlink:href="#DejaVuSans-32" x="354.199219"/>
       <use xlink:href="#DejaVuSans-2d" x="417.822266"/>
       <use xlink:href="#DejaVuSans-30" x="453.90625"/>
       <use xlink:href="#DejaVuSans-38" x="517.529297"/>
      </g>
     </g>
    </g>
    <g id="xtick_7">
     <g id="line2d_7">
      <g>
       <use xlink:href="#mf8a5981490" x="929.962152" y="512.64" style="stroke: #000000; stroke-width: 0.8"/>
      </g>
     </g>
     <g id="text_7">
      <!-- 2024-02-15 -->
      <g transform="translate(900.90434 527.238438) scale(0.1 -0.1)">
       <use xlink:href="#DejaVuSans-32"/>
       <use xlink:href="#DejaVuSans-30" x="63.623047"/>
       <use xlink:href="#DejaVuSans-32" x="127.246094"/>
       <use xlink:href="#DejaVuSans-34" x="190.869141"/>
       <use xlink:href="#DejaVuSans-2d" x="254.492188"/>
       <use xlink:href="#DejaVuSans-30" x="290.576172"/>
       <use xlink:href="#DejaVuSans-32" x="354.199219"/>
       <use xlink:href="#DejaVuSans-2d" x="417.822266"/>
       <use xlink:href="#DejaVuSans-31" x="453.90625"/>
       <use xlink:href="#DejaVuSans-35" x="517.529297"/>
      </g>
     </g>
    </g>
   </g>
   <g id="matplotlib.axis_2">
    <g id="ytick_1">
     <g id="line2d_8">
      <defs>
       <path id="m5de6bb395f" d="M 0 0 
L -3.5 0 
" style="stroke: #000000; stroke-width: 0.8"/>
      </defs>
      <g>
       <use xlink:href="#m5de6bb395f" x="144" y="454.64305" style="stroke: #000000; stroke-width: 0.8"/>
      </g>
     </g>
     <g id="text_8">
      <!-- 6350 -->
      <g transform="translate(111.55 458.442269) scale(0.1 -0.1)">
       <defs>
        <path id="DejaVuSans-36" d="M 2113 2584 
Q 1688 2584 1439 2293 
Q 1191 2003 1191 1497 
Q 1191 994 1439 701 
Q 1688 409 2113 409 
Q 2538 409 2786 701 
Q 3034 994 3034 1497 
Q 3034 2003 2786 2293 
Q 2538 2584 2113 2584 
z
M 3366 4563 
L 3366 3988 
Q 3128 4100 2886 4159 
Q 2644 4219 2406 4219 
Q 1781 4219 1451 3797 
Q 1122 3375 1075 2522 
Q 1259 2794 1537 2939 
Q 1816 3084 2150 3084 
Q 2853 3084 3261 2657 
Q 3669 2231 3669 1497 
Q 3669 778 3244 343 
Q 2819 -91 2113 -91 
Q 1303 -91 875 529 
Q 447 1150 447 2328 
Q 447 3434 972 4092 
Q 1497 4750 2381 4750 
Q 2619 4750 2861 4703 
Q 3103 4656 3366 4563 
z
" transform="scale(0.015625)"/>
        <path id="DejaVuSans-33" d="M 2597 2516 
Q 3050 2419 3304 2112 
Q 3559 1806 3559 1356 
Q 3559 666 3084 287 
Q 2609 -91 1734 -91 
Q 1441 -91 1130 -33 
Q 819 25 488 141 
L 488 750 
Q 750 597 1062 519 
Q 1375 441 1716 441 
Q 2309 441 2620 675 
Q 2931 909 2931 1356 
Q 2931 1769 2642 2001 
Q 2353 2234 1838 2234 
L 1294 2234 
L 1294 2753 
L 1863 2753 
Q 2328 2753 2575 2939 
Q 2822 3125 2822 3475 
Q 2822 3834 2567 4026 
Q 2313 4219 1838 4219 
Q 1578 4219 1281 4162 
Q 984 4106 628 3988 
L 628 4550 
Q 988 4650 1302 4700 
Q 1616 4750 1894 4750 
Q 2613 4750 3031 4423 
Q 3450 4097 3450 3541 
Q 3450 3153 3228 2886 
Q 3006 2619 2597 2516 
z
" transform="scale(0.015625)"/>
       </defs>
       <use xlink:href="#DejaVuSans-36"/>
       <use xlink:href="#DejaVuSans-33" x="63.623047"/>
       <use xlink:href="#DejaVuSans-35" x="127.246094"/>
       <use xlink:href="#DejaVuSans-30" x="190.869141"/>
      </g>
     </g>
    </g>
    <g id="ytick_2">
     <g id="line2d_9">
      <g>
       <use xlink:href="#m5de6bb395f" x="144" y="395.522815" style="stroke: #000000; stroke-width: 0.8"/>
      </g>
     </g>
     <g id="text_9">
      <!-- 6400 -->
      <g transform="translate(111.55 399.322034) scale(0.1 -0.1)">
       <use xlink:href="#DejaVuSans-36"/>
       <use xlink:href="#DejaVuSans-34" x="63.623047"/>
       <use xlink:href="#DejaVuSans-30" x="127.246094"/>
       <use xlink:href="#DejaVuSans-30" x="190.869141"/>
      </g>
     </g>
    </g>
    <g id="ytick_3">
     <g id="line2d_10">
      <g>
       <use xlink:href="#m5de6bb395f" x="144" y="336.402581" style="stroke: #000000; stroke-width: 0.8"/>
      </g>
     </g>
     <g id="text_10">
      <!-- 6450 -->
      <g transform="translate(111.55 340.201799) scale(0.1 -0.1)">
       <use xlink:href="#DejaVuSans-36"/>
       <use xlink:href="#DejaVuSans-34" x="63.623047"/>
       <use xlink:href="#DejaVuSans-35" x="127.246094"/>
       <use xlink:href="#DejaVuSans-30" x="190.869141"/>
      </g>
     </g>
    </g>
    <g id="ytick_4">
     <g id="line2d_11">
      <g>
       <use xlink:href="#m5de6bb395f" x="144" y="277.282346" style="stroke: #000000; stroke-width: 0.8"/>
      </g>
     </g>
     <g id="text_11">
      <!-- 6500 -->
      <g transform="translate(111.55 281.081565) scale(0.1 -0.1)">
       <use xlink:href="#DejaVuSans-36"/>
       <use xlink:href="#DejaVuSans-35" x="63.623047"/>
       <use xlink:href="#DejaVuSans-30" x="127.246094"/>
       <use xlink:href="#DejaVuSans-30" x="190.869141"/>
      </g>
     </g>
    </g>
    <g id="ytick_5">
     <g id="line2d_12">
      <g>
       <use xlink:href="#m5de6bb395f" x="144" y="218.162111" style="stroke: #000000; stroke-width: 0.8"/>
      </g>
     </g>
     <g id="text_12">
      <!-- 6550 -->
      <g transform="translate(111.55 221.96133) scale(0.1 -0.1)">
       <use xlink:href="#DejaVuSans-36"/>
       <use xlink:href="#DejaVuSans-35" x="63.623047"/>
       <use xlink:href="#DejaVuSans-35" x="127.246094"/>
       <use xlink:href="#DejaVuSans-30" x="190.869141"/>
      </g>
     </g>
    </g>
    <g id="ytick_6">
     <g id="line2d_13">
      <g>
       <use xlink:href="#m5de6bb395f" x="144" y="159.041877" style="stroke: #000000; stroke-width: 0.8"/>
      </g>
     </g>
     <g id="text_13">
      <!-- 6600 -->
      <g transform="translate(111.55 162.841096) scale(0.1 -0.1)">
       <use xlink:href="#DejaVuSans-36"/>
       <use xlink:href="#DejaVuSans-36" x="63.623047"/>
       <use xlink:href="#DejaVuSans-30" x="127.246094"/>
       <use xlink:href="#DejaVuSans-30" x="190.869141"/>
      </g>
     </g>
    </g>
    <g id="ytick_7">
     <g id="line2d_14">
      <g>
       <use xlink:href="#m5de6bb395f" x="144" y="99.921642" style="stroke: #000000; stroke-width: 0.8"/>
      </g>
     </g>
     <g id="text_14">
      <!-- 6650 -->
      <g transform="translate(111.55 103.720861) scale(0.1 -0.1)">
       <use xlink:href="#DejaVuSans-36"/>
       <use xlink:href="#DejaVuSans-36" x="63.623047"/>
       <use xlink:href="#DejaVuSans-35" x="127.246094"/>
       <use xlink:href="#DejaVuSans-30" x="190.869141"/>
      </g>
     </g>
    </g>
   </g>
   <g id="line2d_15">
    <path d="M 184.581818 492.48 
L 201.145826 467.649501 
L 217.709833 436.906979 
L 234.27384 435.724575 
L 250.837848 423.900528 
L 283.965863 417.988504 
L 300.52987 413.258886 
L 317.093878 409.711672 
L 333.657885 404.982053 
L 350.221892 397.887625 
L 366.7859 378.96915 
L 383.349907 375.421935 
L 399.913915 371.874721 
L 416.477922 354.138651 
L 433.041929 349.409032 
L 449.605937 335.220176 
L 466.169944 329.308152 
L 482.733952 322.213724 
L 499.297959 318.66651 
L 515.861967 315.119296 
L 532.425974 309.207273 
L 548.989981 303.295249 
L 565.553989 298.56563 
L 582.117996 296.200821 
L 598.682004 287.923988 
L 615.246011 285.559179 
L 648.374026 273.735132 
L 664.938033 272.552727 
L 681.502041 265.458299 
L 698.066048 247.722229 
L 714.630056 229.986158 
L 731.194063 226.438944 
L 764.322078 221.709326 
L 780.886085 201.608446 
L 797.450093 200.426041 
L 814.0141 195.696422 
L 830.578108 192.149208 
L 847.142115 188.601994 
L 863.706122 167.31871 
L 880.27013 163.771496 
L 896.834137 155.494663 
L 913.398145 150.765044 
L 929.962152 134.211378 
L 946.52616 110.563284 
L 963.090167 104.651261 
L 979.654174 101.104047 
L 996.218182 89.28 
" clip-path="url(#p17f0443c09)" style="fill: none; stroke: #1f77b4; stroke-width: 1.5; stroke-linecap: square"/>
   </g>
   <g id="patch_3">
    <path d="M 144 512.64 
L 144 69.12 
" style="fill: none; stroke: #000000; stroke-width: 0.8; stroke-linejoin: miter; stroke-linecap: square"/>
   </g>
   <g id="patch_4">
    <path d="M 1036.8 512.64 
L 1036.8 69.12 
" style="fill: none; stroke: #000000; stroke-width: 0.8; stroke-linejoin: miter; stroke-linecap: square"/>
   </g>
   <g id="patch_5">
    <path d="M 144 512.64 
L 1036.8 512.64 
" style="fill: none; stroke: #000000; stroke-width: 0.8; stroke-linejoin: miter; stroke-linecap: square"/>
   </g>
   <g id="patch_6">
    <path d="M 144 69.12 
L 1036.8 69.12 
" style="fill: none; stroke: #000000; stroke-width: 0.8; stroke-linejoin: miter; stroke-linecap: square"/>
   </g>
   <g id="text_15">
    <!-- Number of AEDs in the OpenStreetMap database in Poland from 2024-01-01, day by day. As at: 2024-02-19 -->
    <g transform="translate(144 63.12) scale(0.14 -0.14)">
     <defs>
      <path id="DejaVuSans-4e" d="M 628 4666 
L 1478 4666 
L 3547 763 
L 3547 4666 
L 4159 4666 
L 4159 0 
L 3309 0 
L 1241 3903 
L 1241 0 
L 628 0 
L 628 4666 
z
" transform="scale(0.015625)"/>
      <path id="DejaVuSans-75" d="M 544 1381 
L 544 3500 
L 1119 3500 
L 1119 1403 
Q 1119 906 1312 657 
Q 1506 409 1894 409 
Q 2359 409 2629 706 
Q 2900 1003 2900 1516 
L 2900 3500 
L 3475 3500 
L 3475 0 
L 2900 0 
L 2900 538 
Q 2691 219 2414 64 
Q 2138 -91 1772 -91 
Q 1169 -91 856 284 
Q 544 659 544 1381 
z
M 1991 3584 
L 1991 3584 
z
" transform="scale(0.015625)"/>
      <path id="DejaVuSans-6d" d="M 3328 2828 
Q 3544 3216 3844 3400 
Q 4144 3584 4550 3584 
Q 5097 3584 5394 3201 
Q 5691 2819 5691 2113 
L 5691 0 
L 5113 0 
L 5113 2094 
Q 5113 2597 4934 2840 
Q 4756 3084 4391 3084 
Q 3944 3084 3684 2787 
Q 3425 2491 3425 1978 
L 3425 0 
L 2847 0 
L 2847 2094 
Q 2847 2600 2669 2842 
Q 2491 3084 2119 3084 
Q 1678 3084 1418 2786 
Q 1159 2488 1159 1978 
L 1159 0 
L 581 0 
L 581 3500 
L 1159 3500 
L 1159 2956 
Q 1356 3278 1631 3431 
Q 1906 3584 2284 3584 
Q 2666 3584 2933 3390 
Q 3200 3197 3328 2828 
z
" transform="scale(0.015625)"/>
      <path id="DejaVuSans-62" d="M 3116 1747 
Q 3116 2381 2855 2742 
Q 2594 3103 2138 3103 
Q 1681 3103 1420 2742 
Q 1159 2381 1159 1747 
Q 1159 1113 1420 752 
Q 1681 391 2138 391 
Q 2594 391 2855 752 
Q 3116 1113 3116 1747 
z
M 1159 2969 
Q 1341 3281 1617 3432 
Q 1894 3584 2278 3584 
Q 2916 3584 3314 3078 
Q 3713 2572 3713 1747 
Q 3713 922 3314 415 
Q 2916 -91 2278 -91 
Q 1894 -91 1617 61 
Q 1341 213 1159 525 
L 1159 0 
L 581 0 
L 581 4863 
L 1159 4863 
L 1159 2969 
z
" transform="scale(0.015625)"/>
      <path id="DejaVuSans-65" d="M 3597 1894 
L 3597 1613 
L 953 1613 
Q 991 1019 1311 708 
Q 1631 397 2203 397 
Q 2534 397 2845 478 
Q 3156 559 3463 722 
L 3463 178 
Q 3153 47 2828 -22 
Q 2503 -91 2169 -91 
Q 1331 -91 842 396 
Q 353 884 353 1716 
Q 353 2575 817 3079 
Q 1281 3584 2069 3584 
Q 2775 3584 3186 3129 
Q 3597 2675 3597 1894 
z
M 3022 2063 
Q 3016 2534 2758 2815 
Q 2500 3097 2075 3097 
Q 1594 3097 1305 2825 
Q 1016 2553 972 2059 
L 3022 2063 
z
" transform="scale(0.015625)"/>
      <path id="DejaVuSans-72" d="M 2631 2963 
Q 2534 3019 2420 3045 
Q 2306 3072 2169 3072 
Q 1681 3072 1420 2755 
Q 1159 2438 1159 1844 
L 1159 0 
L 581 0 
L 581 3500 
L 1159 3500 
L 1159 2956 
Q 1341 3275 1631 3429 
Q 1922 3584 2338 3584 
Q 2397 3584 2469 3576 
Q 2541 3569 2628 3553 
L 2631 2963 
z
" transform="scale(0.015625)"/>
      <path id="DejaVuSans-20" transform="scale(0.015625)"/>
      <path id="DejaVuSans-6f" d="M 1959 3097 
Q 1497 3097 1228 2736 
Q 959 2375 959 1747 
Q 959 1119 1226 758 
Q 1494 397 1959 397 
Q 2419 397 2687 759 
Q 2956 1122 2956 1747 
Q 2956 2369 2687 2733 
Q 2419 3097 1959 3097 
z
M 1959 3584 
Q 2709 3584 3137 3096 
Q 3566 2609 3566 1747 
Q 3566 888 3137 398 
Q 2709 -91 1959 -91 
Q 1206 -91 779 398 
Q 353 888 353 1747 
Q 353 2609 779 3096 
Q 1206 3584 1959 3584 
z
" transform="scale(0.015625)"/>
      <path id="DejaVuSans-66" d="M 2375 4863 
L 2375 4384 
L 1825 4384 
Q 1516 4384 1395 4259 
Q 1275 4134 1275 3809 
L 1275 3500 
L 2222 3500 
L 2222 3053 
L 1275 3053 
L 1275 0 
L 697 0 
L 697 3053 
L 147 3053 
L 147 3500 
L 697 3500 
L 697 3744 
Q 697 4328 969 4595 
Q 1241 4863 1831 4863 
L 2375 4863 
z
" transform="scale(0.015625)"/>
      <path id="DejaVuSans-41" d="M 2188 4044 
L 1331 1722 
L 3047 1722 
L 2188 4044 
z
M 1831 4666 
L 2547 4666 
L 4325 0 
L 3669 0 
L 3244 1197 
L 1141 1197 
L 716 0 
L 50 0 
L 1831 4666 
z
" transform="scale(0.015625)"/>
      <path id="DejaVuSans-45" d="M 628 4666 
L 3578 4666 
L 3578 4134 
L 1259 4134 
L 1259 2753 
L 3481 2753 
L 3481 2222 
L 1259 2222 
L 1259 531 
L 3634 531 
L 3634 0 
L 628 0 
L 628 4666 
z
" transform="scale(0.015625)"/>
      <path id="DejaVuSans-44" d="M 1259 4147 
L 1259 519 
L 2022 519 
Q 2988 519 3436 956 
Q 3884 1394 3884 2338 
Q 3884 3275 3436 3711 
Q 2988 4147 2022 4147 
L 1259 4147 
z
M 628 4666 
L 1925 4666 
Q 3281 4666 3915 4102 
Q 4550 3538 4550 2338 
Q 4550 1131 3912 565 
Q 3275 0 1925 0 
L 628 0 
L 628 4666 
z
" transform="scale(0.015625)"/>
      <path id="DejaVuSans-73" d="M 2834 3397 
L 2834 2853 
Q 2591 2978 2328 3040 
Q 2066 3103 1784 3103 
Q 1356 3103 1142 2972 
Q 928 2841 928 2578 
Q 928 2378 1081 2264 
Q 1234 2150 1697 2047 
L 1894 2003 
Q 2506 1872 2764 1633 
Q 3022 1394 3022 966 
Q 3022 478 2636 193 
Q 2250 -91 1575 -91 
Q 1294 -91 989 -36 
Q 684 19 347 128 
L 347 722 
Q 666 556 975 473 
Q 1284 391 1588 391 
Q 1994 391 2212 530 
Q 2431 669 2431 922 
Q 2431 1156 2273 1281 
Q 2116 1406 1581 1522 
L 1381 1569 
Q 847 1681 609 1914 
Q 372 2147 372 2553 
Q 372 3047 722 3315 
Q 1072 3584 1716 3584 
Q 2034 3584 2315 3537 
Q 2597 3491 2834 3397 
z
" transform="scale(0.015625)"/>
      <path id="DejaVuSans-69" d="M 603 3500 
L 1178 3500 
L 1178 0 
L 603 0 
L 603 3500 
z
M 603 4863 
L 1178 4863 
L 1178 4134 
L 603 4134 
L 603 4863 
z
" transform="scale(0.015625)"/>
      <path id="DejaVuSans-6e" d="M 3513 2113 
L 3513 0 
L 2938 0 
L 2938 2094 
Q 2938 2591 2744 2837 
Q 2550 3084 2163 3084 
Q 1697 3084 1428 2787 
Q 1159 2491 1159 1978 
L 1159 0 
L 581 0 
L 581 3500 
L 1159 3500 
L 1159 2956 
Q 1366 3272 1645 3428 
Q 1925 3584 2291 3584 
Q 2894 3584 3203 3211 
Q 3513 2838 3513 2113 
z
" transform="scale(0.015625)"/>
      <path id="DejaVuSans-74" d="M 1172 4494 
L 1172 3500 
L 2356 3500 
L 2356 3053 
L 1172 3053 
L 1172 1153 
Q 1172 725 1289 603 
Q 1406 481 1766 481 
L 2356 481 
L 2356 0 
L 1766 0 
Q 1100 0 847 248 
Q 594 497 594 1153 
L 594 3053 
L 172 3053 
L 172 3500 
L 594 3500 
L 594 4494 
L 1172 4494 
z
" transform="scale(0.015625)"/>
      <path id="DejaVuSans-68" d="M 3513 2113 
L 3513 0 
L 2938 0 
L 2938 2094 
Q 2938 2591 2744 2837 
Q 2550 3084 2163 3084 
Q 1697 3084 1428 2787 
Q 1159 2491 1159 1978 
L 1159 0 
L 581 0 
L 581 4863 
L 1159 4863 
L 1159 2956 
Q 1366 3272 1645 3428 
Q 1925 3584 2291 3584 
Q 2894 3584 3203 3211 
Q 3513 2838 3513 2113 
z
" transform="scale(0.015625)"/>
      <path id="DejaVuSans-4f" d="M 2522 4238 
Q 1834 4238 1429 3725 
Q 1025 3213 1025 2328 
Q 1025 1447 1429 934 
Q 1834 422 2522 422 
Q 3209 422 3611 934 
Q 4013 1447 4013 2328 
Q 4013 3213 3611 3725 
Q 3209 4238 2522 4238 
z
M 2522 4750 
Q 3503 4750 4090 4092 
Q 4678 3434 4678 2328 
Q 4678 1225 4090 567 
Q 3503 -91 2522 -91 
Q 1538 -91 948 565 
Q 359 1222 359 2328 
Q 359 3434 948 4092 
Q 1538 4750 2522 4750 
z
" transform="scale(0.015625)"/>
      <path id="DejaVuSans-70" d="M 1159 525 
L 1159 -1331 
L 581 -1331 
L 581 3500 
L 1159 3500 
L 1159 2969 
Q 1341 3281 1617 3432 
Q 1894 3584 2278 3584 
Q 2916 3584 3314 3078 
Q 3713 2572 3713 1747 
Q 3713 922 3314 415 
Q 2916 -91 2278 -91 
Q 1894 -91 1617 61 
Q 1341 213 1159 525 
z
M 3116 1747 
Q 3116 2381 2855 2742 
Q 2594 3103 2138 3103 
Q 1681 3103 1420 2742 
Q 1159 2381 1159 1747 
Q 1159 1113 1420 752 
Q 1681 391 2138 391 
Q 2594 391 2855 752 
Q 3116 1113 3116 1747 
z
" transform="scale(0.015625)"/>
      <path id="DejaVuSans-53" d="M 3425 4513 
L 3425 3897 
Q 3066 4069 2747 4153 
Q 2428 4238 2131 4238 
Q 1616 4238 1336 4038 
Q 1056 3838 1056 3469 
Q 1056 3159 1242 3001 
Q 1428 2844 1947 2747 
L 2328 2669 
Q 3034 2534 3370 2195 
Q 3706 1856 3706 1288 
Q 3706 609 3251 259 
Q 2797 -91 1919 -91 
Q 1588 -91 1214 -16 
Q 841 59 441 206 
L 441 856 
Q 825 641 1194 531 
Q 1563 422 1919 422 
Q 2459 422 2753 634 
Q 3047 847 3047 1241 
Q 3047 1584 2836 1778 
Q 2625 1972 2144 2069 
L 1759 2144 
Q 1053 2284 737 2584 
Q 422 2884 422 3419 
Q 422 4038 858 4394 
Q 1294 4750 2059 4750 
Q 2388 4750 2728 4690 
Q 3069 4631 3425 4513 
z
" transform="scale(0.015625)"/>
      <path id="DejaVuSans-4d" d="M 628 4666 
L 1569 4666 
L 2759 1491 
L 3956 4666 
L 4897 4666 
L 4897 0 
L 4281 0 
L 4281 4097 
L 3078 897 
L 2444 897 
L 1241 4097 
L 1241 0 
L 628 0 
L 628 4666 
z
" transform="scale(0.015625)"/>
      <path id="DejaVuSans-61" d="M 2194 1759 
Q 1497 1759 1228 1600 
Q 959 1441 959 1056 
Q 959 750 1161 570 
Q 1363 391 1709 391 
Q 2188 391 2477 730 
Q 2766 1069 2766 1631 
L 2766 1759 
L 2194 1759 
z
M 3341 1997 
L 3341 0 
L 2766 0 
L 2766 531 
Q 2569 213 2275 61 
Q 1981 -91 1556 -91 
Q 1019 -91 701 211 
Q 384 513 384 1019 
Q 384 1609 779 1909 
Q 1175 2209 1959 2209 
L 2766 2209 
L 2766 2266 
Q 2766 2663 2505 2880 
Q 2244 3097 1772 3097 
Q 1472 3097 1187 3025 
Q 903 2953 641 2809 
L 641 3341 
Q 956 3463 1253 3523 
Q 1550 3584 1831 3584 
Q 2591 3584 2966 3190 
Q 3341 2797 3341 1997 
z
" transform="scale(0.015625)"/>
      <path id="DejaVuSans-64" d="M 2906 2969 
L 2906 4863 
L 3481 4863 
L 3481 0 
L 2906 0 
L 2906 525 
Q 2725 213 2448 61 
Q 2172 -91 1784 -91 
Q 1150 -91 751 415 
Q 353 922 353 1747 
Q 353 2572 751 3078 
Q 1150 3584 1784 3584 
Q 2172 3584 2448 3432 
Q 2725 3281 2906 2969 
z
M 947 1747 
Q 947 1113 1208 752 
Q 1469 391 1925 391 
Q 2381 391 2643 752 
Q 2906 1113 2906 1747 
Q 2906 2381 2643 2742 
Q 2381 3103 1925 3103 
Q 1469 3103 1208 2742 
Q 947 2381 947 1747 
z
" transform="scale(0.015625)"/>
      <path id="DejaVuSans-50" d="M 1259 4147 
L 1259 2394 
L 2053 2394 
Q 2494 2394 2734 2622 
Q 2975 2850 2975 3272 
Q 2975 3691 2734 3919 
Q 2494 4147 2053 4147 
L 1259 4147 
z
M 628 4666 
L 2053 4666 
Q 2838 4666 3239 4311 
Q 3641 3956 3641 3272 
Q 3641 2581 3239 2228 
Q 2838 1875 2053 1875 
L 1259 1875 
L 1259 0 
L 628 0 
L 628 4666 
z
" transform="scale(0.015625)"/>
      <path id="DejaVuSans-6c" d="M 603 4863 
L 1178 4863 
L 1178 0 
L 603 0 
L 603 4863 
z
" transform="scale(0.015625)"/>
      <path id="DejaVuSans-2c" d="M 750 794 
L 1409 794 
L 1409 256 
L 897 -744 
L 494 -744 
L 750 256 
L 750 794 
z
" transform="scale(0.015625)"/>
      <path id="DejaVuSans-79" d="M 2059 -325 
Q 1816 -950 1584 -1140 
Q 1353 -1331 966 -1331 
L 506 -1331 
L 506 -850 
L 844 -850 
Q 1081 -850 1212 -737 
Q 1344 -625 1503 -206 
L 1606 56 
L 191 3500 
L 800 3500 
L 1894 763 
L 2988 3500 
L 3597 3500 
L 2059 -325 
z
" transform="scale(0.015625)"/>
      <path id="DejaVuSans-2e" d="M 684 794 
L 1344 794 
L 1344 0 
L 684 0 
L 684 794 
z
" transform="scale(0.015625)"/>
      <path id="DejaVuSans-3a" d="M 750 794 
L 1409 794 
L 1409 0 
L 750 0 
L 750 794 
z
M 750 3309 
L 1409 3309 
L 1409 2516 
L 750 2516 
L 750 3309 
z
" transform="scale(0.015625)"/>
      <path id="DejaVuSans-39" d="M 703 97 
L 703 672 
Q 941 559 1184 500 
Q 1428 441 1663 441 
Q 2288 441 2617 861 
Q 2947 1281 2994 2138 
Q 2813 1869 2534 1725 
Q 2256 1581 1919 1581 
Q 1219 1581 811 2004 
Q 403 2428 403 3163 
Q 403 3881 828 4315 
Q 1253 4750 1959 4750 
Q 2769 4750 3195 4129 
Q 3622 3509 3622 2328 
Q 3622 1225 3098 567 
Q 2575 -91 1691 -91 
Q 1453 -91 1209 -44 
Q 966 3 703 97 
z
M 1959 2075 
Q 2384 2075 2632 2365 
Q 2881 2656 2881 3163 
Q 2881 3666 2632 3958 
Q 2384 4250 1959 4250 
Q 1534 4250 1286 3958 
Q 1038 3666 1038 3163 
Q 1038 2656 1286 2365 
Q 1534 2075 1959 2075 
z
" transform="scale(0.015625)"/>
     </defs>
     <use xlink:href="#DejaVuSans-4e"/>
     <use xlink:href="#DejaVuSans-75" x="74.804688"/>
     <use xlink:href="#DejaVuSans-6d" x="138.183594"/>
     <use xlink:href="#DejaVuSans-62" x="235.595703"/>
     <use xlink:href="#DejaVuSans-65" x="299.072266"/>
     <use xlink:href="#DejaVuSans-72" x="360.595703"/>
     <use xlink:href="#DejaVuSans-20" x="401.708984"/>
     <use xlink:href="#DejaVuSans-6f" x="433.496094"/>
     <use xlink:href="#DejaVuSans-66" x="494.677734"/>
     <use xlink:href="#DejaVuSans-20" x="529.882812"/>
     <use xlink:href="#DejaVuSans-41" x="561.669922"/>
     <use xlink:href="#DejaVuSans-45" x="630.078125"/>
     <use xlink:href="#DejaVuSans-44" x="693.261719"/>
     <use xlink:href="#DejaVuSans-73" x="770.263672"/>
     <use xlink:href="#DejaVuSans-20" x="822.363281"/>
     <use xlink:href="#DejaVuSans-69" x="854.150391"/>
     <use xlink:href="#DejaVuSans-6e" x="881.933594"/>
     <use xlink:href="#DejaVuSans-20" x="945.3125"/>
     <use xlink:href="#DejaVuSans-74" x="977.099609"/>
     <use xlink:href="#DejaVuSans-68" x="1016.308594"/>
     <use xlink:href="#DejaVuSans-65" x="1079.6875"/>
     <use xlink:href="#DejaVuSans-20" x="1141.210938"/>
     <use xlink:href="#DejaVuSans-4f" x="1172.998047"/>
     <use xlink:href="#DejaVuSans-70" x="1251.708984"/>
     <use xlink:href="#DejaVuSans-65" x="1315.185547"/>
     <use xlink:href="#DejaVuSans-6e" x="1376.708984"/>
     <use xlink:href="#DejaVuSans-53" x="1440.087891"/>
     <use xlink:href="#DejaVuSans-74" x="1503.564453"/>
     <use xlink:href="#DejaVuSans-72" x="1542.773438"/>
     <use xlink:href="#DejaVuSans-65" x="1581.636719"/>
     <use xlink:href="#DejaVuSans-65" x="1643.160156"/>
     <use xlink:href="#DejaVuSans-74" x="1704.683594"/>
     <use xlink:href="#DejaVuSans-4d" x="1743.892578"/>
     <use xlink:href="#DejaVuSans-61" x="1830.171875"/>
     <use xlink:href="#DejaVuSans-70" x="1891.451172"/>
     <use xlink:href="#DejaVuSans-20" x="1954.927734"/>
     <use xlink:href="#DejaVuSans-64" x="1986.714844"/>
     <use xlink:href="#DejaVuSans-61" x="2050.191406"/>
     <use xlink:href="#DejaVuSans-74" x="2111.470703"/>
     <use xlink:href="#DejaVuSans-61" x="2150.679688"/>
     <use xlink:href="#DejaVuSans-62" x="2211.958984"/>
     <use xlink:href="#DejaVuSans-61" x="2275.435547"/>
     <use xlink:href="#DejaVuSans-73" x="2336.714844"/>
     <use xlink:href="#DejaVuSans-65" x="2388.814453"/>
     <use xlink:href="#DejaVuSans-20" x="2450.337891"/>
     <use xlink:href="#DejaVuSans-69" x="2482.125"/>
     <use xlink:href="#DejaVuSans-6e" x="2509.908203"/>
     <use xlink:href="#DejaVuSans-20" x="2573.287109"/>
     <use xlink:href="#DejaVuSans-50" x="2605.074219"/>
     <use xlink:href="#DejaVuSans-6f" x="2661.751953"/>
     <use xlink:href="#DejaVuSans-6c" x="2722.933594"/>
     <use xlink:href="#DejaVuSans-61" x="2750.716797"/>
     <use xlink:href="#DejaVuSans-6e" x="2811.996094"/>
     <use xlink:href="#DejaVuSans-64" x="2875.375"/>
     <use xlink:href="#DejaVuSans-20" x="2938.851562"/>
     <use xlink:href="#DejaVuSans-66" x="2970.638672"/>
     <use xlink:href="#DejaVuSans-72" x="3005.84375"/>
     <use xlink:href="#DejaVuSans-6f" x="3044.707031"/>
     <use xlink:href="#DejaVuSans-6d" x="3105.888672"/>
     <use xlink:href="#DejaVuSans-20" x="3203.300781"/>
     <use xlink:href="#DejaVuSans-32" x="3235.087891"/>
     <use xlink:href="#DejaVuSans-30" x="3298.710938"/>
     <use xlink:href="#DejaVuSans-32" x="3362.333984"/>
     <use xlink:href="#DejaVuSans-34" x="3425.957031"/>
     <use xlink:href="#DejaVuSans-2d" x="3489.580078"/>
     <use xlink:href="#DejaVuSans-30" x="3525.664062"/>
     <use xlink:href="#DejaVuSans-31" x="3589.287109"/>
     <use xlink:href="#DejaVuSans-2d" x="3652.910156"/>
     <use xlink:href="#DejaVuSans-30" x="3688.994141"/>
     <use xlink:href="#DejaVuSans-31" x="3752.617188"/>
     <use xlink:href="#DejaVuSans-2c" x="3816.240234"/>
     <use xlink:href="#DejaVuSans-20" x="3848.027344"/>
     <use xlink:href="#DejaVuSans-64" x="3879.814453"/>
     <use xlink:href="#DejaVuSans-61" x="3943.291016"/>
     <use xlink:href="#DejaVuSans-79" x="4004.570312"/>
     <use xlink:href="#DejaVuSans-20" x="4063.75"/>
     <use xlink:href="#DejaVuSans-62" x="4095.537109"/>
     <use xlink:href="#DejaVuSans-79" x="4159.013672"/>
     <use xlink:href="#DejaVuSans-20" x="4218.193359"/>
     <use xlink:href="#DejaVuSans-64" x="4249.980469"/>
     <use xlink:href="#DejaVuSans-61" x="4313.457031"/>
     <use xlink:href="#DejaVuSans-79" x="4374.736328"/>
     <use xlink:href="#DejaVuSans-2e" x="4419.666016"/>
     <use xlink:href="#DejaVuSans-20" x="4451.453125"/>
     <use xlink:href="#DejaVuSans-41" x="4483.240234"/>
     <use xlink:href="#DejaVuSans-73" x="4551.648438"/>
     <use xlink:href="#DejaVuSans-20" x="4603.748047"/>
     <use xlink:href="#DejaVuSans-61" x="4635.535156"/>
     <use xlink:href="#DejaVuSans-74" x="4696.814453"/>
     <use xlink:href="#DejaVuSans-3a" x="4736.023438"/>
     <use xlink:href="#DejaVuSans-20" x="4769.714844"/>
     <use xlink:href="#DejaVuSans-32" x="4801.501953"/>
     <use xlink:href="#DejaVuSans-30" x="4865.125"/>
     <use xlink:href="#DejaVuSans-32" x="4928.748047"/>
     <use xlink:href="#DejaVuSans-34" x="4992.371094"/>
     <use xlink:href="#DejaVuSans-2d" x="5055.994141"/>
     <use xlink:href="#DejaVuSans-30" x="5092.078125"/>
     <use xlink:href="#DejaVuSans-32" x="5155.701172"/>
     <use xlink:href="#DejaVuSans-2d" x="5219.324219"/>
     <use xlink:href="#DejaVuSans-31" x="5255.408203"/>
     <use xlink:href="#DejaVuSans-39" x="5319.03125"/>
    </g>
   </g>
  </g>
 </g>
 <defs>
  <clipPath id="p17f0443c09">
   <rect x="144" y="69.12" width="892.8" height="443.52"/>
  </clipPath>
 </defs>
</svg>
