<?xml version="1.0" encoding="utf-8" standalone="no"?>
<!DOCTYPE svg PUBLIC "-//W3C//DTD SVG 1.1//EN"
  "http://www.w3.org/Graphics/SVG/1.1/DTD/svg11.dtd">
<svg xmlns:xlink="http://www.w3.org/1999/xlink" width="1152pt" height="576pt" viewBox="0 0 1152 576" xmlns="http://www.w3.org/2000/svg" version="1.1">
 <metadata>
  <rdf:RDF xmlns:dc="http://purl.org/dc/elements/1.1/" xmlns:cc="http://creativecommons.org/ns#" xmlns:rdf="http://www.w3.org/1999/02/22-rdf-syntax-ns#">
   <cc:Work>
    <dc:type rdf:resource="http://purl.org/dc/dcmitype/StillImage"/>
    <dc:date>1980-01-01T00:00:00+00:00</dc:date>
    <dc:format>image/svg+xml</dc:format>
    <dc:creator>
     <cc:Agent>
      <dc:title>Matplotlib v3.9.1, https://matplotlib.org/</dc:title>
     </cc:Agent>
    </dc:creator>
   </cc:Work>
  </rdf:RDF>
 </metadata>
 <defs>
  <style type="text/css">*{stroke-linejoin: round; stroke-linecap: butt}</style>
 </defs>
 <g id="figure_1">
  <g id="patch_1">
   <path d="M 0 576 
L 1152 576 
L 1152 0 
L 0 0 
z
" style="fill: #ffffff"/>
  </g>
  <g id="axes_1">
   <g id="patch_2">
    <path d="M 144 512.64 
L 1036.8 512.64 
L 1036.8 69.12 
L 144 69.12 
z
" style="fill: #ffffff"/>
   </g>
   <g id="PathCollection_1">
    <path d="M 184.581818 494.716068 
C 185.17483 494.716068 185.743634 494.480462 186.162957 494.061139 
C 186.58228 493.641816 186.817886 493.073012 186.817886 492.48 
C 186.817886 491.886988 186.58228 491.318184 186.162957 490.898861 
C 185.743634 490.479538 185.17483 490.243932 184.581818 490.243932 
C 183.988806 490.243932 183.420002 490.479538 183.000679 490.898861 
C 182.581356 491.318184 182.34575 491.886988 182.34575 492.48 
C 182.34575 493.073012 182.581356 493.641816 183.000679 494.061139 
C 183.420002 494.480462 183.988806 494.716068 184.581818 494.716068 
z
" clip-path="url(#p6fe3527cd9)" style="fill: #1f77b4; fill-opacity: 0.3; stroke: #1f77b4; stroke-opacity: 0.3"/>
    <path d="M 194.01945 495.052157 
C 194.858096 495.052157 195.662506 494.718959 196.255518 494.125947 
C 196.84853 493.532935 197.181728 492.728525 197.181728 491.889879 
C 197.181728 491.051233 196.84853 490.246823 196.255518 489.653811 
C 195.662506 489.060799 194.858096 488.727602 194.01945 488.727602 
C 193.180804 488.727602 192.376394 489.060799 191.783382 489.653811 
C 191.19037 490.246823 190.857173 491.051233 190.857173 491.889879 
C 190.857173 492.728525 191.19037 493.532935 191.783382 494.125947 
C 192.376394 494.718959 193.180804 495.052157 194.01945 495.052157 
z
" clip-path="url(#p6fe3527cd9)" style="fill: #1f77b4; fill-opacity: 0.3; stroke: #1f77b4; stroke-opacity: 0.3"/>
    <path d="M 203.457082 495.800651 
C 205.081113 495.800651 206.638846 495.155417 207.787209 494.007053 
C 208.935573 492.85869 209.580807 491.300957 209.580807 489.676926 
C 209.580807 488.052896 208.935573 486.495163 207.787209 485.346799 
C 206.638846 484.198436 205.081113 483.553202 203.457082 483.553202 
C 201.833052 483.553202 200.275319 484.198436 199.126955 485.346799 
C 197.978592 486.495163 197.333358 488.052896 197.333358 489.676926 
C 197.333358 491.300957 197.978592 492.85869 199.126955 494.007053 
C 200.275319 495.155417 201.833052 495.800651 203.457082 495.800651 
z
" clip-path="url(#p6fe3527cd9)" style="fill: #1f77b4; fill-opacity: 0.3; stroke: #1f77b4; stroke-opacity: 0.3"/>
    <path d="M 212.894715 491.972949 
C 213.621003 491.972949 214.317643 491.684391 214.831206 491.170828 
C 215.34477 490.657264 215.633327 489.960624 215.633327 489.234336 
C 215.633327 488.508047 215.34477 487.811408 214.831206 487.297844 
C 214.317643 486.784281 213.621003 486.495723 212.894715 486.495723 
C 212.168426 486.495723 211.471787 486.784281 210.958223 487.297844 
C 210.444659 487.811408 210.156102 488.508047 210.156102 489.234336 
C 210.156102 489.960624 210.444659 490.657264 210.958223 491.170828 
C 211.471787 491.684391 212.168426 491.972949 212.894715 491.972949 
z
" clip-path="url(#p6fe3527cd9)" style="fill: #1f77b4; fill-opacity: 0.3; stroke: #1f77b4; stroke-opacity: 0.3"/>
    <path d="M 222.332347 492.52623 
C 223.518371 492.52623 224.655979 492.055018 225.494624 491.216372 
C 226.33327 490.377726 226.804483 489.240119 226.804483 488.054094 
C 226.804483 486.86807 226.33327 485.730463 225.494624 484.891817 
C 224.655979 484.053171 223.518371 483.581958 222.332347 483.581958 
C 221.146322 483.581958 220.008715 484.053171 219.170069 484.891817 
C 218.331423 485.730463 217.860211 486.86807 217.860211 488.054094 
C 217.860211 489.240119 218.331423 490.377726 219.170069 491.216372 
C 220.008715 492.055018 221.146322 492.52623 222.332347 492.52623 
z
" clip-path="url(#p6fe3527cd9)" style="fill: #1f77b4; fill-opacity: 0.3; stroke: #1f77b4; stroke-opacity: 0.3"/>
    <path d="M 231.769979 491.578793 
C 233.095994 491.578793 234.367878 491.051961 235.305513 490.114326 
C 236.243147 489.176692 236.769979 487.904808 236.769979 486.578793 
C 236.769979 485.252777 236.243147 483.980893 235.305513 483.043259 
C 234.367878 482.105624 233.095994 481.578793 231.769979 481.578793 
C 230.443963 481.578793 229.17208 482.105624 228.234445 483.043259 
C 227.29681 483.980893 226.769979 485.252777 226.769979 486.578793 
C 226.769979 487.904808 227.29681 489.176692 228.234445 490.114326 
C 229.17208 491.051961 230.443963 491.578793 231.769979 491.578793 
z
" clip-path="url(#p6fe3527cd9)" style="fill: #1f77b4; fill-opacity: 0.3; stroke: #1f77b4; stroke-opacity: 0.3"/>
    <path d="M 241.207611 488.5198 
C 241.800623 488.5198 242.369427 488.284194 242.78875 487.864871 
C 243.208073 487.445548 243.443679 486.876744 243.443679 486.283732 
C 243.443679 485.69072 243.208073 485.121916 242.78875 484.702593 
C 242.369427 484.28327 241.800623 484.047664 241.207611 484.047664 
C 240.614599 484.047664 240.045795 484.28327 239.626472 484.702593 
C 239.207149 485.121916 238.971543 485.69072 238.971543 486.283732 
C 238.971543 486.876744 239.207149 487.445548 239.626472 487.864871 
C 240.045795 488.284194 240.614599 488.5198 241.207611 488.5198 
z
" clip-path="url(#p6fe3527cd9)" style="fill: #1f77b4; fill-opacity: 0.3; stroke: #1f77b4; stroke-opacity: 0.3"/>
    <path d="M 250.645243 489.575627 
C 251.831267 489.575627 252.968875 489.104414 253.807521 488.265768 
C 254.646167 487.427122 255.117379 486.289515 255.117379 485.103491 
C 255.117379 483.917466 254.646167 482.779859 253.807521 481.941213 
C 252.968875 481.102567 251.831267 480.631355 250.645243 480.631355 
C 249.459219 480.631355 248.321611 481.102567 247.482965 481.941213 
C 246.64432 482.779859 246.173107 483.917466 246.173107 485.103491 
C 246.173107 486.289515 246.64432 487.427122 247.482965 488.265768 
C 248.321611 489.104414 249.459219 489.575627 250.645243 489.575627 
z
" clip-path="url(#p6fe3527cd9)" style="fill: #1f77b4; fill-opacity: 0.3; stroke: #1f77b4; stroke-opacity: 0.3"/>
    <path d="M 260.082875 487.399513 
C 260.809164 487.399513 261.505803 487.110955 262.019367 486.597392 
C 262.532931 486.083828 262.821488 485.387189 262.821488 484.6609 
C 262.821488 483.934612 262.532931 483.237972 262.019367 482.724408 
C 261.505803 482.210845 260.809164 481.922287 260.082875 481.922287 
C 259.356587 481.922287 258.659947 482.210845 258.146384 482.724408 
C 257.63282 483.237972 257.344262 483.934612 257.344262 484.6609 
C 257.344262 485.387189 257.63282 486.083828 258.146384 486.597392 
C 258.659947 487.110955 259.356587 487.399513 260.082875 487.399513 
z
" clip-path="url(#p6fe3527cd9)" style="fill: #1f77b4; fill-opacity: 0.3; stroke: #1f77b4; stroke-opacity: 0.3"/>
    <path d="M 269.520507 487.233057 
C 270.359153 487.233057 271.163563 486.89986 271.756575 486.306847 
C 272.349588 485.713835 272.682785 484.909425 272.682785 484.070779 
C 272.682785 483.232134 272.349588 482.427724 271.756575 481.834711 
C 271.163563 481.241699 270.359153 480.908502 269.520507 480.908502 
C 268.681862 480.908502 267.877452 481.241699 267.284439 481.834711 
C 266.691427 482.427724 266.35823 483.232134 266.35823 484.070779 
C 266.35823 484.909425 266.691427 485.713835 267.284439 486.306847 
C 267.877452 486.89986 268.681862 487.233057 269.520507 487.233057 
z
" clip-path="url(#p6fe3527cd9)" style="fill: #1f77b4; fill-opacity: 0.3; stroke: #1f77b4; stroke-opacity: 0.3"/>
    <path d="M 278.95814 486.011787 
C 279.551152 486.011787 280.119955 485.776181 280.539278 485.356858 
C 280.958601 484.937535 281.194208 484.368731 281.194208 483.775719 
C 281.194208 483.182707 280.958601 482.613903 280.539278 482.19458 
C 280.119955 481.775257 279.551152 481.539651 278.95814 481.539651 
C 278.365127 481.539651 277.796324 481.775257 277.377001 482.19458 
C 276.957678 482.613903 276.722072 483.182707 276.722072 483.775719 
C 276.722072 484.368731 276.957678 484.937535 277.377001 485.356858 
C 277.796324 485.776181 278.365127 486.011787 278.95814 486.011787 
z
" clip-path="url(#p6fe3527cd9)" style="fill: #1f77b4; fill-opacity: 0.3; stroke: #1f77b4; stroke-opacity: 0.3"/>
    <path d="M 288.395772 486.573602 
C 289.333406 486.573602 290.232764 486.201076 290.895772 485.538068 
C 291.558779 484.87506 291.931306 483.975703 291.931306 483.038068 
C 291.931306 482.100434 291.558779 481.201076 290.895772 480.538068 
C 290.232764 479.87506 289.333406 479.502534 288.395772 479.502534 
C 287.458137 479.502534 286.558779 479.87506 285.895772 480.538068 
C 285.232764 481.201076 284.860238 482.100434 284.860238 483.038068 
C 284.860238 483.975703 285.232764 484.87506 285.895772 485.538068 
C 286.558779 486.201076 287.458137 486.573602 288.395772 486.573602 
z
" clip-path="url(#p6fe3527cd9)" style="fill: #1f77b4; fill-opacity: 0.3; stroke: #1f77b4; stroke-opacity: 0.3"/>
    <path d="M 297.833404 485.610225 
C 298.67205 485.610225 299.47646 485.277027 300.069472 484.684015 
C 300.662484 484.091003 300.995681 483.286593 300.995681 482.447947 
C 300.995681 481.609301 300.662484 480.804891 300.069472 480.211879 
C 299.47646 479.618867 298.67205 479.28567 297.833404 479.28567 
C 296.994758 479.28567 296.190348 479.618867 295.597336 480.211879 
C 295.004324 480.804891 294.671126 481.609301 294.671126 482.447947 
C 294.671126 483.286593 295.004324 484.091003 295.597336 484.684015 
C 296.190348 485.277027 296.994758 485.610225 297.833404 485.610225 
z
" clip-path="url(#p6fe3527cd9)" style="fill: #1f77b4; fill-opacity: 0.3; stroke: #1f77b4; stroke-opacity: 0.3"/>
    <path d="M 307.271036 485.24583 
C 308.20867 485.24583 309.108028 484.873304 309.771036 484.210296 
C 310.434044 483.547289 310.80657 482.647931 310.80657 481.710296 
C 310.80657 480.772662 310.434044 479.873304 309.771036 479.210296 
C 309.108028 478.547289 308.20867 478.174762 307.271036 478.174762 
C 306.333401 478.174762 305.434044 478.547289 304.771036 479.210296 
C 304.108028 479.873304 303.735502 480.772662 303.735502 481.710296 
C 303.735502 482.647931 304.108028 483.547289 304.771036 484.210296 
C 305.434044 484.873304 306.333401 485.24583 307.271036 485.24583 
z
" clip-path="url(#p6fe3527cd9)" style="fill: #1f77b4; fill-opacity: 0.3; stroke: #1f77b4; stroke-opacity: 0.3"/>
    <path d="M 316.708668 484.508179 
C 317.646303 484.508179 318.54566 484.135653 319.208668 483.472645 
C 319.871676 482.809638 320.244202 481.91028 320.244202 480.972645 
C 320.244202 480.035011 319.871676 479.135653 319.208668 478.472645 
C 318.54566 477.809638 317.646303 477.437112 316.708668 477.437112 
C 315.771034 477.437112 314.871676 477.809638 314.208668 478.472645 
C 313.54566 479.135653 313.173134 480.035011 313.173134 480.972645 
C 313.173134 481.91028 313.54566 482.809638 314.208668 483.472645 
C 314.871676 484.135653 315.771034 484.508179 316.708668 484.508179 
z
" clip-path="url(#p6fe3527cd9)" style="fill: #1f77b4; fill-opacity: 0.3; stroke: #1f77b4; stroke-opacity: 0.3"/>
    <path d="M 326.1463 483.960448 
C 327.173427 483.960448 328.158624 483.552366 328.884913 482.826077 
C 329.611202 482.099789 330.019284 481.114592 330.019284 480.087464 
C 330.019284 479.060337 329.611202 478.07514 328.884913 477.348852 
C 328.158624 476.622563 327.173427 476.214481 326.1463 476.214481 
C 325.119173 476.214481 324.133976 476.622563 323.407687 477.348852 
C 322.681399 478.07514 322.273317 479.060337 322.273317 480.087464 
C 322.273317 481.114592 322.681399 482.099789 323.407687 482.826077 
C 324.133976 483.552366 325.119173 483.960448 326.1463 483.960448 
z
" clip-path="url(#p6fe3527cd9)" style="fill: #1f77b4; fill-opacity: 0.3; stroke: #1f77b4; stroke-opacity: 0.3"/>
    <path d="M 335.583932 482.885347 
C 336.521567 482.885347 337.420925 482.512821 338.083932 481.849813 
C 338.74694 481.186806 339.119466 480.287448 339.119466 479.349813 
C 339.119466 478.412179 338.74694 477.512821 338.083932 476.849813 
C 337.420925 476.186806 336.521567 475.814279 335.583932 475.814279 
C 334.646298 475.814279 333.74694 476.186806 333.083932 476.849813 
C 332.420925 477.512821 332.048398 478.412179 332.048398 479.349813 
C 332.048398 480.287448 332.420925 481.186806 333.083932 481.849813 
C 333.74694 482.512821 334.646298 482.885347 335.583932 482.885347 
z
" clip-path="url(#p6fe3527cd9)" style="fill: #1f77b4; fill-opacity: 0.3; stroke: #1f77b4; stroke-opacity: 0.3"/>
    <path d="M 345.021564 482.337616 
C 346.048692 482.337616 347.033889 481.929534 347.760177 481.203245 
C 348.486466 480.476956 348.894548 479.491759 348.894548 478.464632 
C 348.894548 477.437505 348.486466 476.452308 347.760177 475.726019 
C 347.033889 474.999731 346.048692 474.591649 345.021564 474.591649 
C 343.994437 474.591649 343.00924 474.999731 342.282952 475.726019 
C 341.556663 476.452308 341.148581 477.437505 341.148581 478.464632 
C 341.148581 479.491759 341.556663 480.476956 342.282952 481.203245 
C 343.00924 481.929534 343.994437 482.337616 345.021564 482.337616 
z
" clip-path="url(#p6fe3527cd9)" style="fill: #1f77b4; fill-opacity: 0.3; stroke: #1f77b4; stroke-opacity: 0.3"/>
    <path d="M 354.459197 481.615221 
C 355.568621 481.615221 356.632755 481.174442 357.417237 480.389961 
C 358.201718 479.60548 358.642497 478.541345 358.642497 477.431921 
C 358.642497 476.322497 358.201718 475.258362 357.417237 474.473881 
C 356.632755 473.6894 355.568621 473.248621 354.459197 473.248621 
C 353.349772 473.248621 352.285638 473.6894 351.501157 474.473881 
C 350.716675 475.258362 350.275896 476.322497 350.275896 477.431921 
C 350.275896 478.541345 350.716675 479.60548 351.501157 480.389961 
C 352.285638 481.174442 353.349772 481.615221 354.459197 481.615221 
z
" clip-path="url(#p6fe3527cd9)" style="fill: #1f77b4; fill-opacity: 0.3; stroke: #1f77b4; stroke-opacity: 0.3"/>
    <path d="M 363.896829 480.58251 
C 365.006253 480.58251 366.070387 480.141731 366.854869 479.35725 
C 367.63935 478.572768 368.080129 477.508634 368.080129 476.39921 
C 368.080129 475.289785 367.63935 474.225651 366.854869 473.44117 
C 366.070387 472.656688 365.006253 472.21591 363.896829 472.21591 
C 362.787405 472.21591 361.72327 472.656688 360.938789 473.44117 
C 360.154308 474.225651 359.713529 475.289785 359.713529 476.39921 
C 359.713529 477.508634 360.154308 478.572768 360.938789 479.35725 
C 361.72327 480.141731 362.787405 480.58251 363.896829 480.58251 
z
" clip-path="url(#p6fe3527cd9)" style="fill: #1f77b4; fill-opacity: 0.3; stroke: #1f77b4; stroke-opacity: 0.3"/>
    <path d="M 373.334461 479.387012 
C 374.361588 479.387012 375.346785 478.97893 376.073074 478.252641 
C 376.799362 477.526353 377.207444 476.541156 377.207444 475.514029 
C 377.207444 474.486901 376.799362 473.501704 376.073074 472.775416 
C 375.346785 472.049127 374.361588 471.641045 373.334461 471.641045 
C 372.307334 471.641045 371.322137 472.049127 370.595848 472.775416 
C 369.869559 473.501704 369.461478 474.486901 369.461478 475.514029 
C 369.461478 476.541156 369.869559 477.526353 370.595848 478.252641 
C 371.322137 478.97893 372.307334 479.387012 373.334461 479.387012 
z
" clip-path="url(#p6fe3527cd9)" style="fill: #1f77b4; fill-opacity: 0.3; stroke: #1f77b4; stroke-opacity: 0.3"/>
    <path d="M 382.772093 479.135241 
C 384.16283 479.135241 385.496793 478.582695 386.480192 477.599296 
C 387.463592 476.615896 388.016137 475.281933 388.016137 473.891196 
C 388.016137 472.50046 387.463592 471.166497 386.480192 470.183097 
C 385.496793 469.199698 384.16283 468.647152 382.772093 468.647152 
C 381.381356 468.647152 380.047393 469.199698 379.063994 470.183097 
C 378.080594 471.166497 377.528049 472.50046 377.528049 473.891196 
C 377.528049 475.281933 378.080594 476.615896 379.063994 477.599296 
C 380.047393 478.582695 381.381356 479.135241 382.772093 479.135241 
z
" clip-path="url(#p6fe3527cd9)" style="fill: #1f77b4; fill-opacity: 0.3; stroke: #1f77b4; stroke-opacity: 0.3"/>
    <path d="M 392.209725 477.855269 
C 393.887017 477.855269 395.495837 477.188874 396.681861 476.002849 
C 397.867885 474.816825 398.53428 473.208005 398.53428 471.530714 
C 398.53428 469.853422 397.867885 468.244602 396.681861 467.058578 
C 395.495837 465.872553 393.887017 465.206158 392.209725 465.206158 
C 390.532433 465.206158 388.923614 465.872553 387.737589 467.058578 
C 386.551565 468.244602 385.88517 469.853422 385.88517 471.530714 
C 385.88517 473.208005 386.551565 474.816825 387.737589 476.002849 
C 388.923614 477.188874 390.532433 477.855269 392.209725 477.855269 
z
" clip-path="url(#p6fe3527cd9)" style="fill: #1f77b4; fill-opacity: 0.3; stroke: #1f77b4; stroke-opacity: 0.3"/>
    <path d="M 401.647357 475.735956 
C 403.701612 475.735956 405.672006 474.919792 407.124583 473.467215 
C 408.57716 472.014637 409.393324 470.044243 409.393324 467.989989 
C 409.393324 465.935735 408.57716 463.965341 407.124583 462.512763 
C 405.672006 461.060186 403.701612 460.244022 401.647357 460.244022 
C 399.593103 460.244022 397.622709 461.060186 396.170132 462.512763 
C 394.717555 463.965341 393.901391 465.935735 393.901391 467.989989 
C 393.901391 470.044243 394.717555 472.014637 396.170132 473.467215 
C 397.622709 474.919792 399.593103 475.735956 401.647357 475.735956 
z
" clip-path="url(#p6fe3527cd9)" style="fill: #1f77b4; fill-opacity: 0.3; stroke: #1f77b4; stroke-opacity: 0.3"/>
    <path d="M 411.084989 471.140578 
C 412.194414 471.140578 413.258548 470.699799 414.043029 469.915318 
C 414.827511 469.130836 415.26829 468.066702 415.26829 466.957278 
C 415.26829 465.847854 414.827511 464.783719 414.043029 463.999238 
C 413.258548 463.214756 412.194414 462.773978 411.084989 462.773978 
C 409.975565 462.773978 408.911431 463.214756 408.12695 463.999238 
C 407.342468 464.783719 406.901689 465.847854 406.901689 466.957278 
C 406.901689 468.066702 407.342468 469.130836 408.12695 469.915318 
C 408.911431 470.699799 409.975565 471.140578 411.084989 471.140578 
z
" clip-path="url(#p6fe3527cd9)" style="fill: #1f77b4; fill-opacity: 0.3; stroke: #1f77b4; stroke-opacity: 0.3"/>
    <path d="M 420.522622 470.740262 
C 422.034512 470.740262 423.484683 470.139582 424.55375 469.070514 
C 425.622818 468.001446 426.223499 466.551276 426.223499 465.039385 
C 426.223499 463.527495 425.622818 462.077324 424.55375 461.008256 
C 423.484683 459.939189 422.034512 459.338508 420.522622 459.338508 
C 419.010731 459.338508 417.560561 459.939189 416.491493 461.008256 
C 415.422425 462.077324 414.821744 463.527495 414.821744 465.039385 
C 414.821744 466.551276 415.422425 468.001446 416.491493 469.070514 
C 417.560561 470.139582 419.010731 470.740262 420.522622 470.740262 
z
" clip-path="url(#p6fe3527cd9)" style="fill: #1f77b4; fill-opacity: 0.3; stroke: #1f77b4; stroke-opacity: 0.3"/>
    <path d="M 429.960254 468.82237 
C 431.472144 468.82237 432.922315 468.22169 433.991383 467.152622 
C 435.06045 466.083554 435.661131 464.633383 435.661131 463.121493 
C 435.661131 461.609603 435.06045 460.159432 433.991383 459.090364 
C 432.922315 458.021296 431.472144 457.420616 429.960254 457.420616 
C 428.448363 457.420616 426.998193 458.021296 425.929125 459.090364 
C 424.860057 460.159432 424.259377 461.609603 424.259377 463.121493 
C 424.259377 464.633383 424.860057 466.083554 425.929125 467.152622 
C 426.998193 468.22169 428.448363 468.82237 429.960254 468.82237 
z
" clip-path="url(#p6fe3527cd9)" style="fill: #1f77b4; fill-opacity: 0.3; stroke: #1f77b4; stroke-opacity: 0.3"/>
    <path d="M 439.397886 467.335948 
C 441.806713 467.335948 444.117204 466.378911 445.820502 464.675613 
C 447.5238 462.972315 448.480837 460.661823 448.480837 458.252997 
C 448.480837 455.84417 447.5238 453.533678 445.820502 451.83038 
C 444.117204 450.127083 441.806713 449.170046 439.397886 449.170046 
C 436.989059 449.170046 434.678567 450.127083 432.97527 451.83038 
C 431.271972 453.533678 430.314935 455.84417 430.314935 458.252997 
C 430.314935 460.661823 431.271972 462.972315 432.97527 464.675613 
C 434.678567 466.378911 436.989059 467.335948 439.397886 467.335948 
z
" clip-path="url(#p6fe3527cd9)" style="fill: #1f77b4; fill-opacity: 0.3; stroke: #1f77b4; stroke-opacity: 0.3"/>
    <path d="M 448.835518 462.482969 
C 451.170209 462.482969 453.409592 461.555387 455.060468 459.904511 
C 456.711344 458.253635 457.638926 456.014252 457.638926 453.679561 
C 457.638926 451.34487 456.711344 449.105487 455.060468 447.454611 
C 453.409592 445.803735 451.170209 444.876152 448.835518 444.876152 
C 446.500827 444.876152 444.261444 445.803735 442.610568 447.454611 
C 440.959692 449.105487 440.03211 451.34487 440.03211 453.679561 
C 440.03211 456.014252 440.959692 458.253635 442.610568 459.904511 
C 444.261444 461.555387 446.500827 462.482969 448.835518 462.482969 
z
" clip-path="url(#p6fe3527cd9)" style="fill: #1f77b4; fill-opacity: 0.3; stroke: #1f77b4; stroke-opacity: 0.3"/>
    <path d="M 458.27315 457.894016 
C 460.681977 457.894016 462.992469 456.936979 464.695766 455.233681 
C 466.399064 453.530383 467.356101 451.219892 467.356101 448.811065 
C 467.356101 446.402238 466.399064 444.091746 464.695766 442.388448 
C 462.992469 440.685151 460.681977 439.728114 458.27315 439.728114 
C 455.864323 439.728114 453.553832 440.685151 451.850534 442.388448 
C 450.147236 444.091746 449.190199 446.402238 449.190199 448.811065 
C 449.190199 451.219892 450.147236 453.530383 451.850534 455.233681 
C 453.553832 456.936979 455.864323 457.894016 458.27315 457.894016 
z
" clip-path="url(#p6fe3527cd9)" style="fill: #1f77b4; fill-opacity: 0.3; stroke: #1f77b4; stroke-opacity: 0.3"/>
    <path d="M 467.710782 453.001652 
C 470.19153 453.001652 472.571007 452.01604 474.325161 450.261887 
C 476.079314 448.507733 477.064926 446.128256 477.064926 443.647508 
C 477.064926 441.16676 476.079314 438.787284 474.325161 437.03313 
C 472.571007 435.278976 470.19153 434.293365 467.710782 434.293365 
C 465.230034 434.293365 462.850558 435.278976 461.096404 437.03313 
C 459.34225 438.787284 458.356639 441.16676 458.356639 443.647508 
C 458.356639 446.128256 459.34225 448.507733 461.096404 450.261887 
C 462.850558 452.01604 465.230034 453.001652 467.710782 453.001652 
z
" clip-path="url(#p6fe3527cd9)" style="fill: #1f77b4; fill-opacity: 0.3; stroke: #1f77b4; stroke-opacity: 0.3"/>
    <path d="M 477.148414 447.736459 
C 478.976201 447.736459 480.729372 447.010272 482.021812 445.717832 
C 483.314252 444.425392 484.040439 442.672221 484.040439 440.844435 
C 484.040439 439.016648 483.314252 437.263478 482.021812 435.971038 
C 480.729372 434.678597 478.976201 433.95241 477.148414 433.95241 
C 475.320628 433.95241 473.567457 434.678597 472.275017 435.971038 
C 470.982577 437.263478 470.25639 439.016648 470.25639 440.844435 
C 470.25639 442.672221 470.982577 444.425392 472.275017 445.717832 
C 473.567457 447.010272 475.320628 447.736459 477.148414 447.736459 
z
" clip-path="url(#p6fe3527cd9)" style="fill: #1f77b4; fill-opacity: 0.3; stroke: #1f77b4; stroke-opacity: 0.3"/>
    <path d="M 486.586047 444.136329 
C 487.772071 444.136329 488.909678 443.665117 489.748324 442.826471 
C 490.58697 441.987825 491.058182 440.850218 491.058182 439.664193 
C 491.058182 438.478169 490.58697 437.340561 489.748324 436.501916 
C 488.909678 435.66327 487.772071 435.192057 486.586047 435.192057 
C 485.400022 435.192057 484.262415 435.66327 483.423769 436.501916 
C 482.585123 437.340561 482.113911 438.478169 482.113911 439.664193 
C 482.113911 440.850218 482.585123 441.987825 483.423769 442.826471 
C 484.262415 443.665117 485.400022 444.136329 486.586047 444.136329 
z
" clip-path="url(#p6fe3527cd9)" style="fill: #1f77b4; fill-opacity: 0.3; stroke: #1f77b4; stroke-opacity: 0.3"/>
    <path d="M 496.023679 443.574965 
C 497.647709 443.574965 499.205443 442.929731 500.353806 441.781367 
C 501.502169 440.633004 502.147403 439.075271 502.147403 437.45124 
C 502.147403 435.82721 501.502169 434.269476 500.353806 433.121113 
C 499.205443 431.97275 497.647709 431.327516 496.023679 431.327516 
C 494.399648 431.327516 492.841915 431.97275 491.693552 433.121113 
C 490.545189 434.269476 489.899954 435.82721 489.899954 437.45124 
C 489.899954 439.075271 490.545189 440.633004 491.693552 441.781367 
C 492.841915 442.929731 494.399648 443.574965 496.023679 443.574965 
z
" clip-path="url(#p6fe3527cd9)" style="fill: #1f77b4; fill-opacity: 0.3; stroke: #1f77b4; stroke-opacity: 0.3"/>
    <path d="M 505.461311 441.02171 
C 508.599236 441.02171 511.609063 439.774999 513.827911 437.55615 
C 516.046759 435.337302 517.29347 432.327475 517.29347 429.18955 
C 517.29347 426.051625 516.046759 423.041798 513.827911 420.82295 
C 511.609063 418.604101 508.599236 417.35739 505.461311 417.35739 
C 502.323385 417.35739 499.313559 418.604101 497.094711 420.82295 
C 494.875862 423.041798 493.629151 426.051625 493.629151 429.18955 
C 493.629151 432.327475 494.875862 435.337302 497.094711 437.55615 
C 499.313559 439.774999 502.323385 441.02171 505.461311 441.02171 
z
" clip-path="url(#p6fe3527cd9)" style="fill: #1f77b4; fill-opacity: 0.3; stroke: #1f77b4; stroke-opacity: 0.3"/>
    <path d="M 514.898943 429.687967 
C 519.256675 429.687967 523.436511 427.956621 526.517893 424.87524 
C 529.599275 421.793858 531.33062 417.614021 531.33062 413.25629 
C 531.33062 408.898558 529.599275 404.718721 526.517893 401.63734 
C 523.436511 398.555958 519.256675 396.824613 514.898943 396.824613 
C 510.541211 396.824613 506.361374 398.555958 503.279993 401.63734 
C 500.198611 404.718721 498.467266 408.898558 498.467266 413.25629 
C 498.467266 417.614021 500.198611 421.793858 503.279993 424.87524 
C 506.361374 427.956621 510.541211 429.687967 514.898943 429.687967 
z
" clip-path="url(#p6fe3527cd9)" style="fill: #1f77b4; fill-opacity: 0.3; stroke: #1f77b4; stroke-opacity: 0.3"/>
    <path d="M 524.336575 417.162113 
C 527.211308 417.162113 529.968687 416.019969 532.00143 413.987226 
C 534.034173 411.954483 535.176317 409.197104 535.176317 406.322371 
C 535.176317 403.447638 534.034173 400.690259 532.00143 398.657516 
C 529.968687 396.624773 527.211308 395.482629 524.336575 395.482629 
C 521.461842 395.482629 518.704463 396.624773 516.67172 398.657516 
C 514.638977 400.690259 513.496833 403.447638 513.496833 406.322371 
C 513.496833 409.197104 514.638977 411.954483 516.67172 413.987226 
C 518.704463 416.019969 521.461842 417.162113 524.336575 417.162113 
z
" clip-path="url(#p6fe3527cd9)" style="fill: #1f77b4; fill-opacity: 0.3; stroke: #1f77b4; stroke-opacity: 0.3"/>
    <path d="M 533.774207 409.430611 
C 537.180803 409.430611 540.448331 408.077157 542.857158 405.66833 
C 545.265985 403.259503 546.61944 399.991974 546.61944 396.585379 
C 546.61944 393.178783 545.265985 389.911254 542.857158 387.502428 
C 540.448331 385.093601 537.180803 383.740146 533.774207 383.740146 
C 530.367612 383.740146 527.100083 385.093601 524.691256 387.502428 
C 522.282429 389.911254 520.928975 393.178783 520.928975 396.585379 
C 520.928975 399.991974 522.282429 403.259503 524.691256 405.66833 
C 527.100083 408.077157 530.367612 409.430611 533.774207 409.430611 
z
" clip-path="url(#p6fe3527cd9)" style="fill: #1f77b4; fill-opacity: 0.3; stroke: #1f77b4; stroke-opacity: 0.3"/>
    <path d="M 543.211839 400.638039 
C 544.990876 400.638039 546.697287 399.931221 547.955256 398.673252 
C 549.213225 397.415283 549.920043 395.708872 549.920043 393.929835 
C 549.920043 392.150799 549.213225 390.444388 547.955256 389.186419 
C 546.697287 387.92845 544.990876 387.221631 543.211839 387.221631 
C 541.432803 387.221631 539.726392 387.92845 538.468423 389.186419 
C 537.210454 390.444388 536.503635 392.150799 536.503635 393.929835 
C 536.503635 395.708872 537.210454 397.415283 538.468423 398.673252 
C 539.726392 399.931221 541.432803 400.638039 543.211839 400.638039 
z
" clip-path="url(#p6fe3527cd9)" style="fill: #1f77b4; fill-opacity: 0.3; stroke: #1f77b4; stroke-opacity: 0.3"/>
    <path d="M 552.649471 398.159808 
C 554.984163 398.159808 557.223545 397.232225 558.874421 395.581349 
C 560.525297 393.930473 561.45288 391.691091 561.45288 389.3564 
C 561.45288 387.021708 560.525297 384.782326 558.874421 383.13145 
C 557.223545 381.480574 554.984163 380.552991 552.649471 380.552991 
C 550.31478 380.552991 548.075398 381.480574 546.424522 383.13145 
C 544.773646 384.782326 543.846063 387.021708 543.846063 389.3564 
C 543.846063 391.691091 544.773646 393.930473 546.424522 395.581349 
C 548.075398 397.232225 550.31478 398.159808 552.649471 398.159808 
z
" clip-path="url(#p6fe3527cd9)" style="fill: #1f77b4; fill-opacity: 0.3; stroke: #1f77b4; stroke-opacity: 0.3"/>
    <path d="M 562.087104 393.324143 
C 564.900007 393.324143 567.59808 392.206564 569.587104 390.217541 
C 571.576127 388.228518 572.693705 385.530445 572.693705 382.717541 
C 572.693705 379.904638 571.576127 377.206564 569.587104 375.217541 
C 567.59808 373.228518 564.900007 372.110939 562.087104 372.110939 
C 559.2742 372.110939 556.576127 373.228518 554.587104 375.217541 
C 552.59808 377.206564 551.480502 379.904638 551.480502 382.717541 
C 551.480502 385.530445 552.59808 388.228518 554.587104 390.217541 
C 556.576127 392.206564 559.2742 393.324143 562.087104 393.324143 
z
" clip-path="url(#p6fe3527cd9)" style="fill: #1f77b4; fill-opacity: 0.3; stroke: #1f77b4; stroke-opacity: 0.3"/>
    <path d="M 571.524736 386.685284 
C 574.337639 386.685284 577.035712 385.567706 579.024736 383.578683 
C 581.013759 381.58966 582.131337 378.891586 582.131337 376.078683 
C 582.131337 373.265779 581.013759 370.567706 579.024736 368.578683 
C 577.035712 366.58966 574.337639 365.472081 571.524736 365.472081 
C 568.711832 365.472081 566.013759 366.58966 564.024736 368.578683 
C 562.035712 370.567706 560.918134 373.265779 560.918134 376.078683 
C 560.918134 378.891586 562.035712 381.58966 564.024736 383.578683 
C 566.013759 385.567706 568.711832 386.685284 571.524736 386.685284 
z
" clip-path="url(#p6fe3527cd9)" style="fill: #1f77b4; fill-opacity: 0.3; stroke: #1f77b4; stroke-opacity: 0.3"/>
    <path d="M 580.962368 379.606799 
C 584.128186 379.606799 587.164768 378.349005 589.403339 376.110434 
C 591.641911 373.871862 592.899704 370.835281 592.899704 367.669462 
C 592.899704 364.503644 591.641911 361.467062 589.403339 359.228491 
C 587.164768 356.989919 584.128186 355.732126 580.962368 355.732126 
C 577.796549 355.732126 574.759968 356.989919 572.521396 359.228491 
C 570.282825 361.467062 569.025031 364.503644 569.025031 367.669462 
C 569.025031 370.835281 570.282825 373.871862 572.521396 376.110434 
C 574.759968 378.349005 577.796549 379.606799 580.962368 379.606799 
z
" clip-path="url(#p6fe3527cd9)" style="fill: #1f77b4; fill-opacity: 0.3; stroke: #1f77b4; stroke-opacity: 0.3"/>
    <path d="M 590.4 370.126348 
C 594.10336 370.126348 597.655538 368.654987 600.274209 366.036316 
C 602.89288 363.417646 604.36424 359.865467 604.36424 356.162108 
C 604.36424 352.458748 602.89288 348.90657 600.274209 346.287899 
C 597.655538 343.669228 594.10336 342.197868 590.4 342.197868 
C 586.69664 342.197868 583.144462 343.669228 580.525791 346.287899 
C 577.90712 348.90657 576.43576 352.458748 576.43576 356.162108 
C 576.43576 359.865467 577.90712 363.417646 580.525791 366.036316 
C 583.144462 368.654987 586.69664 370.126348 590.4 370.126348 
z
" clip-path="url(#p6fe3527cd9)" style="fill: #1f77b4; fill-opacity: 0.3; stroke: #1f77b4; stroke-opacity: 0.3"/>
    <path d="M 599.837632 359.465136 
C 603.139384 359.465136 606.306349 358.153336 608.641041 355.818644 
C 610.975732 353.483953 612.287532 350.316988 612.287532 347.015236 
C 612.287532 343.713484 610.975732 340.546519 608.641041 338.211828 
C 606.306349 335.877136 603.139384 334.565336 599.837632 334.565336 
C 596.53588 334.565336 593.368915 335.877136 591.034224 338.211828 
C 588.699532 340.546519 587.387733 343.713484 587.387733 347.015236 
C 587.387733 350.316988 588.699532 353.483953 591.034224 355.818644 
C 593.368915 358.153336 596.53588 359.465136 599.837632 359.465136 
z
" clip-path="url(#p6fe3527cd9)" style="fill: #1f77b4; fill-opacity: 0.3; stroke: #1f77b4; stroke-opacity: 0.3"/>
    <path d="M 609.275264 350.430881 
C 610.533233 350.430881 611.739848 349.931085 612.629366 349.041566 
C 613.518884 348.152048 614.018681 346.945433 614.018681 345.687464 
C 614.018681 344.429496 613.518884 343.222881 612.629366 342.333362 
C 611.739848 341.443844 610.533233 340.944048 609.275264 340.944048 
C 608.017296 340.944048 606.810681 341.443844 605.921162 342.333362 
C 605.031644 343.222881 604.531848 344.429496 604.531848 345.687464 
C 604.531848 346.945433 605.031644 348.152048 605.921162 349.041566 
C 606.810681 349.931085 608.017296 350.430881 609.275264 350.430881 
z
" clip-path="url(#p6fe3527cd9)" style="fill: #1f77b4; fill-opacity: 0.3; stroke: #1f77b4; stroke-opacity: 0.3"/>
    <path d="M 618.712896 349.394328 
C 620.165474 349.394328 621.558753 348.817213 622.58588 347.790085 
C 623.613007 346.762958 624.190122 345.369679 624.190122 343.917102 
C 624.190122 342.464525 623.613007 341.071246 622.58588 340.044119 
C 621.558753 339.016992 620.165474 338.439877 618.712896 338.439877 
C 617.260319 338.439877 615.86704 339.016992 614.839913 340.044119 
C 613.812786 341.071246 613.235671 342.464525 613.235671 343.917102 
C 613.235671 345.369679 613.812786 346.762958 614.839913 347.790085 
C 615.86704 348.817213 617.260319 349.394328 618.712896 349.394328 
z
" clip-path="url(#p6fe3527cd9)" style="fill: #1f77b4; fill-opacity: 0.3; stroke: #1f77b4; stroke-opacity: 0.3"/>
    <path d="M 628.150529 344.837742 
C 632.385482 344.837742 636.447554 343.155177 639.442118 340.160613 
C 642.436683 337.166048 644.119248 333.103977 644.119248 328.869023 
C 644.119248 324.634069 642.436683 320.571998 639.442118 317.577433 
C 636.447554 314.582869 632.385482 312.900304 628.150529 312.900304 
C 623.915575 312.900304 619.853503 314.582869 616.858939 317.577433 
C 613.864374 320.571998 612.181809 324.634069 612.181809 328.869023 
C 612.181809 333.103977 613.864374 337.166048 616.858939 340.160613 
C 619.853503 343.155177 623.915575 344.837742 628.150529 344.837742 
z
" clip-path="url(#p6fe3527cd9)" style="fill: #1f77b4; fill-opacity: 0.3; stroke: #1f77b4; stroke-opacity: 0.3"/>
    <path d="M 637.588161 331.149327 
C 641.362067 331.149327 644.981912 329.649939 647.650467 326.981384 
C 650.319021 324.312829 651.81841 320.692984 651.81841 316.919078 
C 651.81841 313.145172 650.319021 309.525327 647.650467 306.856772 
C 644.981912 304.188217 641.362067 302.688828 637.588161 302.688828 
C 633.814254 302.688828 630.194409 304.188217 627.525855 306.856772 
C 624.8573 309.525327 623.357911 313.145172 623.357911 316.919078 
C 623.357911 320.692984 624.8573 324.312829 627.525855 326.981384 
C 630.194409 329.649939 633.814254 331.149327 637.588161 331.149327 
z
" clip-path="url(#p6fe3527cd9)" style="fill: #1f77b4; fill-opacity: 0.3; stroke: #1f77b4; stroke-opacity: 0.3"/>
    <path d="M 647.025793 320.824901 
C 649.900526 320.824901 652.657904 319.682757 654.690648 317.650014 
C 656.723391 315.617271 657.865535 312.859892 657.865535 309.985159 
C 657.865535 307.110426 656.723391 304.353048 654.690648 302.320304 
C 652.657904 300.287561 649.900526 299.145417 647.025793 299.145417 
C 644.15106 299.145417 641.393681 300.287561 639.360938 302.320304 
C 637.328195 304.353048 636.186051 307.110426 636.186051 309.985159 
C 636.186051 312.859892 637.328195 315.617271 639.360938 317.650014 
C 641.393681 319.682757 644.15106 320.824901 647.025793 320.824901 
z
" clip-path="url(#p6fe3527cd9)" style="fill: #1f77b4; fill-opacity: 0.3; stroke: #1f77b4; stroke-opacity: 0.3"/>
    <path d="M 656.463425 311.111803 
C 660.635635 311.111803 664.637524 309.454167 667.587723 306.503968 
C 670.537921 303.55377 672.195558 299.551881 672.195558 295.379671 
C 672.195558 291.20746 670.537921 287.205571 667.587723 284.255373 
C 664.637524 281.305175 660.635635 279.647538 656.463425 279.647538 
C 652.291215 279.647538 648.289325 281.305175 645.339127 284.255373 
C 642.388929 287.205571 640.731292 291.20746 640.731292 295.379671 
C 640.731292 299.551881 642.388929 303.55377 645.339127 306.503968 
C 648.289325 309.454167 652.291215 311.111803 656.463425 311.111803 
z
" clip-path="url(#p6fe3527cd9)" style="fill: #1f77b4; fill-opacity: 0.3; stroke: #1f77b4; stroke-opacity: 0.3"/>
    <path d="M 665.901057 296.020292 
C 670.218251 296.020292 674.359205 294.305052 677.411922 291.252335 
C 680.464638 288.199618 682.179878 284.058665 682.179878 279.741471 
C 682.179878 275.424277 680.464638 271.283323 677.411922 268.230606 
C 674.359205 265.17789 670.218251 263.46265 665.901057 263.46265 
C 661.583863 263.46265 657.44291 265.17789 654.390193 268.230606 
C 651.337476 271.283323 649.622236 275.424277 649.622236 279.741471 
C 649.622236 284.058665 651.337476 288.199618 654.390193 291.252335 
C 657.44291 294.305052 661.583863 296.020292 665.901057 296.020292 
z
" clip-path="url(#p6fe3527cd9)" style="fill: #1f77b4; fill-opacity: 0.3; stroke: #1f77b4; stroke-opacity: 0.3"/>
    <path d="M 675.338689 283.977226 
C 677.557538 283.977226 679.685806 283.095668 681.254769 281.526705 
C 682.823732 279.957743 683.705289 277.829474 683.705289 275.610626 
C 683.705289 273.391777 682.823732 271.263509 681.254769 269.694546 
C 679.685806 268.125583 677.557538 267.244025 675.338689 267.244025 
C 673.119841 267.244025 670.991572 268.125583 669.422609 269.694546 
C 667.853647 271.263509 666.972089 273.391777 666.972089 275.610626 
C 666.972089 277.829474 667.853647 279.957743 669.422609 281.526705 
C 670.991572 283.095668 673.119841 283.977226 675.338689 283.977226 
z
" clip-path="url(#p6fe3527cd9)" style="fill: #1f77b4; fill-opacity: 0.3; stroke: #1f77b4; stroke-opacity: 0.3"/>
    <path d="M 684.776321 279.317489 
C 686.228899 279.317489 687.622178 278.740374 688.649305 277.713247 
C 689.676432 276.68612 690.253547 275.292841 690.253547 273.840263 
C 690.253547 272.387686 689.676432 270.994407 688.649305 269.96728 
C 687.622178 268.940153 686.228899 268.363038 684.776321 268.363038 
C 683.323744 268.363038 681.930465 268.940153 680.903338 269.96728 
C 679.876211 270.994407 679.299096 272.387686 679.299096 273.840263 
C 679.299096 275.292841 679.876211 276.68612 680.903338 277.713247 
C 681.930465 278.740374 683.323744 279.317489 684.776321 279.317489 
z
" clip-path="url(#p6fe3527cd9)" style="fill: #1f77b4; fill-opacity: 0.3; stroke: #1f77b4; stroke-opacity: 0.3"/>
    <path d="M 694.213953 274.760904 
C 698.448907 274.760904 702.510979 273.078339 705.505543 270.083774 
C 708.500108 267.08921 710.182673 263.027138 710.182673 258.792184 
C 710.182673 254.557231 708.500108 250.495159 705.505543 247.500595 
C 702.510979 244.50603 698.448907 242.823465 694.213953 242.823465 
C 689.979 242.823465 685.916928 244.50603 682.922364 247.500595 
C 679.927799 250.495159 678.245234 254.557231 678.245234 258.792184 
C 678.245234 263.027138 679.927799 267.08921 682.922364 270.083774 
C 685.916928 273.078339 689.979 274.760904 694.213953 274.760904 
z
" clip-path="url(#p6fe3527cd9)" style="fill: #1f77b4; fill-opacity: 0.3; stroke: #1f77b4; stroke-opacity: 0.3"/>
    <path d="M 703.651586 262.997427 
C 705.70584 262.997427 707.676234 262.181263 709.128811 260.728686 
C 710.581388 259.276108 711.397552 257.305714 711.397552 255.25146 
C 711.397552 253.197206 710.581388 251.226812 709.128811 249.774234 
C 707.676234 248.321657 705.70584 247.505493 703.651586 247.505493 
C 701.597331 247.505493 699.626937 248.321657 698.17436 249.774234 
C 696.721783 251.226812 695.905619 253.197206 695.905619 255.25146 
C 695.905619 257.305714 696.721783 259.276108 698.17436 260.728686 
C 699.626937 262.181263 701.597331 262.997427 703.651586 262.997427 
z
" clip-path="url(#p6fe3527cd9)" style="fill: #1f77b4; fill-opacity: 0.3; stroke: #1f77b4; stroke-opacity: 0.3"/>
    <path d="M 713.089218 258.779576 
C 716.255036 258.779576 719.291617 257.521783 721.530189 255.283211 
C 723.768761 253.044639 725.026554 250.008058 725.026554 246.842239 
C 725.026554 243.676421 723.768761 240.63984 721.530189 238.401268 
C 719.291617 236.162696 716.255036 234.904903 713.089218 234.904903 
C 709.923399 234.904903 706.886818 236.162696 704.648246 238.401268 
C 702.409674 240.63984 701.151881 243.676421 701.151881 246.842239 
C 701.151881 250.008058 702.409674 253.044639 704.648246 255.283211 
C 706.886818 257.521783 709.923399 258.779576 713.089218 258.779576 
z
" clip-path="url(#p6fe3527cd9)" style="fill: #1f77b4; fill-opacity: 0.3; stroke: #1f77b4; stroke-opacity: 0.3"/>
    <path d="M 722.52685 250.370355 
C 725.692669 250.370355 728.72925 249.112562 730.967821 246.87399 
C 733.206393 244.635418 734.464186 241.598837 734.464186 238.433019 
C 734.464186 235.2672 733.206393 232.230619 730.967821 229.992047 
C 728.72925 227.753475 725.692669 226.495682 722.52685 226.495682 
C 719.361031 226.495682 716.32445 227.753475 714.085878 229.992047 
C 711.847307 232.230619 710.589514 235.2672 710.589514 238.433019 
C 710.589514 241.598837 711.847307 244.635418 714.085878 246.87399 
C 716.32445 249.112562 719.361031 250.370355 722.52685 250.370355 
z
" clip-path="url(#p6fe3527cd9)" style="fill: #1f77b4; fill-opacity: 0.3; stroke: #1f77b4; stroke-opacity: 0.3"/>
    <path d="M 731.964482 233.179311 
C 737.57464 233.179311 742.955776 230.950372 746.922757 226.983391 
C 750.889738 223.01641 753.118678 217.635274 753.118678 212.025115 
C 753.118678 206.414957 750.889738 201.033821 746.922757 197.06684 
C 742.955776 193.099859 737.57464 190.870919 731.964482 190.870919 
C 726.354324 190.870919 720.973188 193.099859 717.006207 197.06684 
C 713.039226 201.033821 710.810286 206.414957 710.810286 212.025115 
C 710.810286 217.635274 713.039226 223.01641 717.006207 226.983391 
C 720.973188 230.950372 726.354324 233.179311 731.964482 233.179311 
z
" clip-path="url(#p6fe3527cd9)" style="fill: #1f77b4; fill-opacity: 0.3; stroke: #1f77b4; stroke-opacity: 0.3"/>
    <path d="M 741.402114 211.029795 
C 746.146211 211.029795 750.696641 209.144945 754.051225 205.790362 
C 757.405808 202.435779 759.290658 197.885349 759.290658 193.141251 
C 759.290658 188.397154 757.405808 183.846724 754.051225 180.492141 
C 750.696641 177.137557 746.146211 175.252708 741.402114 175.252708 
C 736.658017 175.252708 732.107587 177.137557 728.753004 180.492141 
C 725.39842 183.846724 723.51357 188.397154 723.51357 193.141251 
C 723.51357 197.885349 725.39842 202.435779 728.753004 205.790362 
C 732.107587 209.144945 736.658017 211.029795 741.402114 211.029795 
z
" clip-path="url(#p6fe3527cd9)" style="fill: #1f77b4; fill-opacity: 0.3; stroke: #1f77b4; stroke-opacity: 0.3"/>
    <path d="M 750.839746 197.230202 
C 752.667533 197.230202 754.420703 196.504015 755.713143 195.211575 
C 757.005584 193.919135 757.731771 192.165964 757.731771 190.338178 
C 757.731771 188.510392 757.005584 186.757221 755.713143 185.464781 
C 754.420703 184.172341 752.667533 183.446153 750.839746 183.446153 
C 749.01196 183.446153 747.258789 184.172341 745.966349 185.464781 
C 744.673909 186.757221 743.947722 188.510392 743.947722 190.338178 
C 743.947722 192.165964 744.673909 193.919135 745.966349 195.211575 
C 747.258789 196.504015 749.01196 197.230202 750.839746 197.230202 
z
" clip-path="url(#p6fe3527cd9)" style="fill: #1f77b4; fill-opacity: 0.3; stroke: #1f77b4; stroke-opacity: 0.3"/>
    <path d="M 760.277378 194.573933 
C 762.496227 194.573933 764.624496 193.692375 766.193458 192.123412 
C 767.762421 190.55445 768.643979 188.426181 768.643979 186.207333 
C 768.643979 183.988484 767.762421 181.860216 766.193458 180.291253 
C 764.624496 178.72229 762.496227 177.840732 760.277378 177.840732 
C 758.05853 177.840732 755.930261 178.72229 754.361299 180.291253 
C 752.792336 181.860216 751.910778 183.988484 751.910778 186.207333 
C 751.910778 188.426181 752.792336 190.55445 754.361299 192.123412 
C 755.930261 193.692375 758.05853 194.573933 760.277378 194.573933 
z
" clip-path="url(#p6fe3527cd9)" style="fill: #1f77b4; fill-opacity: 0.3; stroke: #1f77b4; stroke-opacity: 0.3"/>
    <path d="M 769.715011 187.669205 
C 773.780497 187.669205 777.680019 186.05397 780.554752 183.179237 
C 783.429485 180.304504 785.04472 176.404982 785.04472 172.339495 
C 785.04472 168.274009 783.429485 164.374486 780.554752 161.499753 
C 777.680019 158.62502 773.780497 157.009785 769.715011 157.009785 
C 765.649524 157.009785 761.750002 158.62502 758.875269 161.499753 
C 756.000536 164.374486 754.385301 168.274009 754.385301 172.339495 
C 754.385301 176.404982 756.000536 180.304504 758.875269 183.179237 
C 761.750002 186.05397 765.649524 187.669205 769.715011 187.669205 
z
" clip-path="url(#p6fe3527cd9)" style="fill: #1f77b4; fill-opacity: 0.3; stroke: #1f77b4; stroke-opacity: 0.3"/>
    <path d="M 779.152643 175.864193 
C 780.478658 175.864193 781.750542 175.337362 782.688177 174.399727 
C 783.625811 173.462093 784.152643 172.190209 784.152643 170.864193 
C 784.152643 169.538178 783.625811 168.266294 782.688177 167.328659 
C 781.750542 166.391025 780.478658 165.864193 779.152643 165.864193 
C 777.826627 165.864193 776.554743 166.391025 775.617109 167.328659 
C 774.679474 168.266294 774.152643 169.538178 774.152643 170.864193 
C 774.152643 172.190209 774.679474 173.462093 775.617109 174.399727 
C 776.554743 175.337362 777.826627 175.864193 779.152643 175.864193 
z
" clip-path="url(#p6fe3527cd9)" style="fill: #1f77b4; fill-opacity: 0.3; stroke: #1f77b4; stroke-opacity: 0.3"/>
    <path d="M 788.590275 171.922563 
C 792.783504 171.922563 796.805554 170.256575 799.770615 167.291514 
C 802.735676 164.326454 804.401663 160.304404 804.401663 156.111175 
C 804.401663 151.917945 802.735676 147.895895 799.770615 144.930835 
C 796.805554 141.965774 792.783504 140.299786 788.590275 140.299786 
C 784.397046 140.299786 780.374996 141.965774 777.409935 144.930835 
C 774.444874 147.895895 772.778887 151.917945 772.778887 156.111175 
C 772.778887 160.304404 774.444874 164.326454 777.409935 167.291514 
C 780.374996 170.256575 784.397046 171.922563 788.590275 171.922563 
z
" clip-path="url(#p6fe3527cd9)" style="fill: #1f77b4; fill-opacity: 0.3; stroke: #1f77b4; stroke-opacity: 0.3"/>
    <path d="M 798.027907 159.763494 
C 801.109289 159.763494 804.06488 158.539249 806.243745 156.360383 
C 808.422611 154.181517 809.646857 151.225926 809.646857 148.144544 
C 809.646857 145.063163 808.422611 142.107572 806.243745 139.928706 
C 804.06488 137.74984 801.109289 136.525594 798.027907 136.525594 
C 794.946525 136.525594 791.990934 137.74984 789.812069 139.928706 
C 787.633203 142.107572 786.408957 145.063163 786.408957 148.144544 
C 786.408957 151.225926 787.633203 154.181517 789.812069 156.360383 
C 791.990934 158.539249 794.946525 159.763494 798.027907 159.763494 
z
" clip-path="url(#p6fe3527cd9)" style="fill: #1f77b4; fill-opacity: 0.3; stroke: #1f77b4; stroke-opacity: 0.3"/>
    <path d="M 807.465539 150.440567 
C 808.191828 150.440567 808.888467 150.152009 809.402031 149.638446 
C 809.915594 149.124882 810.204152 148.428242 810.204152 147.701954 
C 810.204152 146.975665 809.915594 146.279026 809.402031 145.765462 
C 808.888467 145.251899 808.191828 144.963341 807.465539 144.963341 
C 806.739251 144.963341 806.042611 145.251899 805.529047 145.765462 
C 805.015484 146.279026 804.726926 146.975665 804.726926 147.701954 
C 804.726926 148.428242 805.015484 149.124882 805.529047 149.638446 
C 806.042611 150.152009 806.739251 150.440567 807.465539 150.440567 
z
" clip-path="url(#p6fe3527cd9)" style="fill: #1f77b4; fill-opacity: 0.3; stroke: #1f77b4; stroke-opacity: 0.3"/>
    <path d="M 816.903171 151.323166 
C 818.293908 151.323166 819.627871 150.770621 820.61127 149.787221 
C 821.59467 148.803822 822.147215 147.469859 822.147215 146.079122 
C 822.147215 144.688385 821.59467 143.354422 820.61127 142.371023 
C 819.627871 141.387623 818.293908 140.835078 816.903171 140.835078 
C 815.512434 140.835078 814.178471 141.387623 813.195072 142.371023 
C 812.211673 143.354422 811.659127 144.688385 811.659127 146.079122 
C 811.659127 147.469859 812.211673 148.803822 813.195072 149.787221 
C 814.178471 150.770621 815.512434 151.323166 816.903171 151.323166 
z
" clip-path="url(#p6fe3527cd9)" style="fill: #1f77b4; fill-opacity: 0.3; stroke: #1f77b4; stroke-opacity: 0.3"/>
    <path d="M 826.340803 150.199586 
C 828.216072 150.199586 830.014788 149.454534 831.340803 148.128518 
C 832.666819 146.802503 833.411871 145.003787 833.411871 143.128518 
C 833.411871 141.253249 832.666819 139.454534 831.340803 138.128518 
C 830.014788 136.802503 828.216072 136.05745 826.340803 136.05745 
C 824.465534 136.05745 822.666819 136.802503 821.340803 138.128518 
C 820.014788 139.454534 819.269736 141.253249 819.269736 143.128518 
C 819.269736 145.003787 820.014788 146.802503 821.340803 148.128518 
C 822.666819 149.454534 824.465534 150.199586 826.340803 150.199586 
z
" clip-path="url(#p6fe3527cd9)" style="fill: #1f77b4; fill-opacity: 0.3; stroke: #1f77b4; stroke-opacity: 0.3"/>
    <path d="M 835.778436 147.139707 
C 837.507348 147.139707 839.165682 146.452803 840.388208 145.230277 
C 841.610734 144.007751 842.297638 142.349418 842.297638 140.620505 
C 842.297638 138.891592 841.610734 137.233259 840.388208 136.010733 
C 839.165682 134.788207 837.507348 134.101303 835.778436 134.101303 
C 834.049523 134.101303 832.391189 134.788207 831.168663 136.010733 
C 829.946137 137.233259 829.259233 138.891592 829.259233 140.620505 
C 829.259233 142.349418 829.946137 144.007751 831.168663 145.230277 
C 832.391189 146.452803 834.049523 147.139707 835.778436 147.139707 
z
" clip-path="url(#p6fe3527cd9)" style="fill: #1f77b4; fill-opacity: 0.3; stroke: #1f77b4; stroke-opacity: 0.3"/>
    <path d="M 845.216068 144.03615 
C 846.474036 144.03615 847.680651 143.536353 848.57017 142.646835 
C 849.459688 141.757317 849.959484 140.550702 849.959484 139.292733 
C 849.959484 138.034765 849.459688 136.82815 848.57017 135.938631 
C 847.680651 135.049113 846.474036 134.549317 845.216068 134.549317 
C 843.958099 134.549317 842.751484 135.049113 841.861966 135.938631 
C 840.972447 136.82815 840.472651 138.034765 840.472651 139.292733 
C 840.472651 140.550702 840.972447 141.757317 841.861966 142.646835 
C 842.751484 143.536353 843.958099 144.03615 845.216068 144.03615 
z
" clip-path="url(#p6fe3527cd9)" style="fill: #1f77b4; fill-opacity: 0.3; stroke: #1f77b4; stroke-opacity: 0.3"/>
    <path d="M 854.6537 143.303922 
C 856.382612 143.303922 858.040946 142.617018 859.263472 141.394492 
C 860.485998 140.171966 861.172902 138.513633 861.172902 136.78472 
C 861.172902 135.055807 860.485998 133.397474 859.263472 132.174948 
C 858.040946 130.952422 856.382612 130.265518 854.6537 130.265518 
C 852.924787 130.265518 851.266453 130.952422 850.043928 132.174948 
C 848.821402 133.397474 848.134497 135.055807 848.134497 136.78472 
C 848.134497 138.513633 848.821402 140.171966 850.043928 141.394492 
C 851.266453 142.617018 852.924787 143.303922 854.6537 143.303922 
z
" clip-path="url(#p6fe3527cd9)" style="fill: #1f77b4; fill-opacity: 0.3; stroke: #1f77b4; stroke-opacity: 0.3"/>
    <path d="M 864.091332 141.008026 
C 866.463381 141.008026 868.738596 140.065601 870.415887 138.388309 
C 872.093179 136.711018 873.035604 134.435803 873.035604 132.063754 
C 873.035604 129.691705 872.093179 127.41649 870.415887 125.739199 
C 868.738596 124.061907 866.463381 123.119482 864.091332 123.119482 
C 861.719283 123.119482 859.444068 124.061907 857.766777 125.739199 
C 856.089485 127.41649 855.14706 129.691705 855.14706 132.063754 
C 855.14706 134.435803 856.089485 136.711018 857.766777 138.388309 
C 859.444068 140.065601 861.719283 141.008026 864.091332 141.008026 
z
" clip-path="url(#p6fe3527cd9)" style="fill: #1f77b4; fill-opacity: 0.3; stroke: #1f77b4; stroke-opacity: 0.3"/>
    <path d="M 873.528964 134.861637 
C 874.466599 134.861637 875.365956 134.489111 876.028964 133.826103 
C 876.691972 133.163095 877.064498 132.263738 877.064498 131.326103 
C 877.064498 130.388469 876.691972 129.489111 876.028964 128.826103 
C 875.365956 128.163095 874.466599 127.790569 873.528964 127.790569 
C 872.59133 127.790569 871.691972 128.163095 871.028964 128.826103 
C 870.365956 129.489111 869.99343 130.388469 869.99343 131.326103 
C 869.99343 132.263738 870.365956 133.163095 871.028964 133.826103 
C 871.691972 134.489111 872.59133 134.861637 873.528964 134.861637 
z
" clip-path="url(#p6fe3527cd9)" style="fill: #1f77b4; fill-opacity: 0.3; stroke: #1f77b4; stroke-opacity: 0.3"/>
    <path d="M 882.966596 132.759712 
C 883.385919 132.759712 883.788124 132.593113 884.08463 132.296607 
C 884.381136 132.000101 884.547735 131.597896 884.547735 131.178573 
C 884.547735 130.75925 884.381136 130.357045 884.08463 130.060539 
C 883.788124 129.764033 883.385919 129.597434 882.966596 129.597434 
C 882.547273 129.597434 882.145068 129.764033 881.848562 130.060539 
C 881.552056 130.357045 881.385457 130.75925 881.385457 131.178573 
C 881.385457 131.597896 881.552056 132.000101 881.848562 132.296607 
C 882.145068 132.593113 882.547273 132.759712 882.966596 132.759712 
z
" clip-path="url(#p6fe3527cd9)" style="fill: #1f77b4; fill-opacity: 0.3; stroke: #1f77b4; stroke-opacity: 0.3"/>
    <path d="M 892.404228 135.189762 
C 894.133141 135.189762 895.791475 134.502858 897.014001 133.280332 
C 898.236526 132.057806 898.923431 130.399473 898.923431 128.67056 
C 898.923431 126.941647 898.236526 125.283313 897.014001 124.060788 
C 895.791475 122.838262 894.133141 122.151357 892.404228 122.151357 
C 890.675316 122.151357 889.016982 122.838262 887.794456 124.060788 
C 886.57193 125.283313 885.885026 126.941647 885.885026 128.67056 
C 885.885026 130.399473 886.57193 132.057806 887.794456 133.280332 
C 889.016982 134.502858 890.675316 135.189762 892.404228 135.189762 
z
" clip-path="url(#p6fe3527cd9)" style="fill: #1f77b4; fill-opacity: 0.3; stroke: #1f77b4; stroke-opacity: 0.3"/>
    <path d="M 901.84186 132.906315 
C 904.060709 132.906315 906.188978 132.024757 907.75794 130.455794 
C 909.326903 128.886832 910.208461 126.758563 910.208461 124.539715 
C 910.208461 122.320866 909.326903 120.192598 907.75794 118.623635 
C 906.188978 117.054672 904.060709 116.173114 901.84186 116.173114 
C 899.623012 116.173114 897.494743 117.054672 895.925781 118.623635 
C 894.356818 120.192598 893.47526 122.320866 893.47526 124.539715 
C 893.47526 126.758563 894.356818 128.886832 895.925781 130.455794 
C 897.494743 132.024757 899.623012 132.906315 901.84186 132.906315 
z
" clip-path="url(#p6fe3527cd9)" style="fill: #1f77b4; fill-opacity: 0.3; stroke: #1f77b4; stroke-opacity: 0.3"/>
    <path d="M 911.279493 128.757154 
C 913.376107 128.757154 915.387132 127.92416 916.869663 126.44163 
C 918.352193 124.959099 919.185187 122.948075 919.185187 120.85146 
C 919.185187 118.754845 918.352193 116.74382 916.869663 115.26129 
C 915.387132 113.77876 913.376107 112.945766 911.279493 112.945766 
C 909.182878 112.945766 907.171853 113.77876 905.689323 115.26129 
C 904.206792 116.74382 903.373798 118.754845 903.373798 120.85146 
C 903.373798 122.948075 904.206792 124.959099 905.689323 126.44163 
C 907.171853 127.92416 909.182878 128.757154 911.279493 128.757154 
z
" clip-path="url(#p6fe3527cd9)" style="fill: #1f77b4; fill-opacity: 0.3; stroke: #1f77b4; stroke-opacity: 0.3"/>
    <path d="M 920.717125 124.379576 
C 923.882943 124.379576 926.919524 123.121783 929.158096 120.883211 
C 931.396668 118.644639 932.654461 115.608058 932.654461 112.442239 
C 932.654461 109.276421 931.396668 106.23984 929.158096 104.001268 
C 926.919524 101.762696 923.882943 100.504903 920.717125 100.504903 
C 917.551306 100.504903 914.514725 101.762696 912.276153 104.001268 
C 910.037581 106.23984 908.779788 109.276421 908.779788 112.442239 
C 908.779788 115.608058 910.037581 118.644639 912.276153 120.883211 
C 914.514725 123.121783 917.551306 124.379576 920.717125 124.379576 
z
" clip-path="url(#p6fe3527cd9)" style="fill: #1f77b4; fill-opacity: 0.3; stroke: #1f77b4; stroke-opacity: 0.3"/>
    <path d="M 930.154757 116.315241 
C 933.059911 116.315241 935.846469 115.161011 937.900724 113.106757 
C 939.954978 111.052503 941.109208 108.265945 941.109208 105.36079 
C 941.109208 102.455636 939.954978 99.669078 937.900724 97.614824 
C 935.846469 95.560569 933.059911 94.406339 930.154757 94.406339 
C 927.249602 94.406339 924.463045 95.560569 922.40879 97.614824 
C 920.354536 99.669078 919.200306 102.455636 919.200306 105.36079 
C 919.200306 108.265945 920.354536 111.052503 922.40879 113.106757 
C 924.463045 115.161011 927.249602 116.315241 930.154757 116.315241 
z
" clip-path="url(#p6fe3527cd9)" style="fill: #1f77b4; fill-opacity: 0.3; stroke: #1f77b4; stroke-opacity: 0.3"/>
    <path d="M 939.592389 109.531325 
C 941.559188 109.531325 943.445696 108.749907 944.836433 107.35917 
C 946.22717 105.968434 947.008587 104.081925 947.008587 102.115126 
C 947.008587 100.148327 946.22717 98.261819 944.836433 96.871082 
C 943.445696 95.480345 941.559188 94.698928 939.592389 94.698928 
C 937.62559 94.698928 935.739082 95.480345 934.348345 96.871082 
C 932.957608 98.261819 932.176191 100.148327 932.176191 102.115126 
C 932.176191 104.081925 932.957608 105.968434 934.348345 107.35917 
C 935.739082 108.749907 937.62559 109.531325 939.592389 109.531325 
z
" clip-path="url(#p6fe3527cd9)" style="fill: #1f77b4; fill-opacity: 0.3; stroke: #1f77b4; stroke-opacity: 0.3"/>
    <path d="M 949.030021 104.056134 
C 949.623033 104.056134 950.191837 103.820528 950.61116 103.401205 
C 951.030483 102.981882 951.266089 102.413078 951.266089 101.820066 
C 951.266089 101.227054 951.030483 100.65825 950.61116 100.238927 
C 950.191837 99.819604 949.623033 99.583998 949.030021 99.583998 
C 948.437009 99.583998 947.868205 99.819604 947.448882 100.238927 
C 947.029559 100.65825 946.793953 101.227054 946.793953 101.820066 
C 946.793953 102.413078 947.029559 102.981882 947.448882 103.401205 
C 947.868205 103.820528 948.437009 104.056134 949.030021 104.056134 
z
" clip-path="url(#p6fe3527cd9)" style="fill: #1f77b4; fill-opacity: 0.3; stroke: #1f77b4; stroke-opacity: 0.3"/>
    <path d="M 958.467653 105.441278 
C 959.85839 105.441278 961.192353 104.888732 962.175753 103.905333 
C 963.159152 102.921934 963.711698 101.587971 963.711698 100.197234 
C 963.711698 98.806497 963.159152 97.472534 962.175753 96.489135 
C 961.192353 95.505735 959.85839 94.95319 958.467653 94.95319 
C 957.076916 94.95319 955.742953 95.505735 954.759554 96.489135 
C 953.776155 97.472534 953.223609 98.806497 953.223609 100.197234 
C 953.223609 101.587971 953.776155 102.921934 954.759554 103.905333 
C 955.742953 104.888732 957.076916 105.441278 958.467653 105.441278 
z
" clip-path="url(#p6fe3527cd9)" style="fill: #1f77b4; fill-opacity: 0.3; stroke: #1f77b4; stroke-opacity: 0.3"/>
    <path d="M 967.905285 104.286185 
C 969.733072 104.286185 971.486243 103.559997 972.778683 102.267557 
C 974.071123 100.975117 974.79731 99.221946 974.79731 97.39416 
C 974.79731 95.566374 974.071123 93.813203 972.778683 92.520763 
C 971.486243 91.228323 969.733072 90.502136 967.905285 90.502136 
C 966.077499 90.502136 964.324328 91.228323 963.031888 92.520763 
C 961.739448 93.813203 961.013261 95.566374 961.013261 97.39416 
C 961.013261 99.221946 961.739448 100.975117 963.031888 102.267557 
C 964.324328 103.559997 966.077499 104.286185 967.905285 104.286185 
z
" clip-path="url(#p6fe3527cd9)" style="fill: #1f77b4; fill-opacity: 0.3; stroke: #1f77b4; stroke-opacity: 0.3"/>
    <path d="M 977.342918 100.809805 
C 978.600886 100.809805 979.807501 100.310009 980.69702 99.420491 
C 981.586538 98.530972 982.086334 97.324357 982.086334 96.066389 
C 982.086334 94.80842 981.586538 93.601805 980.69702 92.712287 
C 979.807501 91.822768 978.600886 91.322972 977.342918 91.322972 
C 976.084949 91.322972 974.878334 91.822768 973.988816 92.712287 
C 973.099297 93.601805 972.599501 94.80842 972.599501 96.066389 
C 972.599501 97.324357 973.099297 98.530972 973.988816 99.420491 
C 974.878334 100.310009 976.084949 100.809805 977.342918 100.809805 
z
" clip-path="url(#p6fe3527cd9)" style="fill: #1f77b4; fill-opacity: 0.3; stroke: #1f77b4; stroke-opacity: 0.3"/>
    <path d="M 986.78055 100.18692 
C 989.39922 100.18692 991.91099 99.146511 993.76267 97.294831 
C 995.61435 95.443151 996.654759 92.931382 996.654759 90.312711 
C 996.654759 87.694041 995.61435 85.182271 993.76267 83.330591 
C 991.91099 81.478911 989.39922 80.438502 986.78055 80.438502 
C 984.161879 80.438502 981.65011 81.478911 979.79843 83.330591 
C 977.94675 85.182271 976.906341 87.694041 976.906341 90.312711 
C 976.906341 92.931382 977.94675 95.443151 979.79843 97.294831 
C 981.65011 99.146511 984.161879 100.18692 986.78055 100.18692 
z
" clip-path="url(#p6fe3527cd9)" style="fill: #1f77b4; fill-opacity: 0.3; stroke: #1f77b4; stroke-opacity: 0.3"/>
    <path d="M 996.218182 93.4633 
C 997.327606 93.4633 998.39174 93.022521 999.176222 92.23804 
C 999.960703 91.453559 1000.401482 90.389424 1000.401482 89.28 
C 1000.401482 88.170576 999.960703 87.106441 999.176222 86.32196 
C 998.39174 85.537479 997.327606 85.0967 996.218182 85.0967 
C 995.108758 85.0967 994.044623 85.537479 993.260142 86.32196 
C 992.475661 87.106441 992.034882 88.170576 992.034882 89.28 
C 992.034882 90.389424 992.475661 91.453559 993.260142 92.23804 
C 994.044623 93.022521 995.108758 93.4633 996.218182 93.4633 
z
" clip-path="url(#p6fe3527cd9)" style="fill: #1f77b4; fill-opacity: 0.3; stroke: #1f77b4; stroke-opacity: 0.3"/>
   </g>
   <g id="matplotlib.axis_1">
    <g id="xtick_1">
     <g id="line2d_1">
      <defs>
       <path id="m8e2e3f3311" d="M 0 0 
L 0 3.5 
" style="stroke: #000000; stroke-width: 0.8"/>
      </defs>
      <g>
       <use xlink:href="#m8e2e3f3311" x="184.581818" y="512.64" style="stroke: #000000; stroke-width: 0.8"/>
      </g>
     </g>
     <g id="text_1">
      <!-- 2025-01-01 -->
      <g transform="translate(155.524006 527.238438) scale(0.1 -0.1)">
       <defs>
        <path id="DejaVuSans-32" d="M 1228 531 
L 3431 531 
L 3431 0 
L 469 0 
L 469 531 
Q 828 903 1448 1529 
Q 2069 2156 2228 2338 
Q 2531 2678 2651 2914 
Q 2772 3150 2772 3378 
Q 2772 3750 2511 3984 
Q 2250 4219 1831 4219 
Q 1534 4219 1204 4116 
Q 875 4013 500 3803 
L 500 4441 
Q 881 4594 1212 4672 
Q 1544 4750 1819 4750 
Q 2544 4750 2975 4387 
Q 3406 4025 3406 3419 
Q 3406 3131 3298 2873 
Q 3191 2616 2906 2266 
Q 2828 2175 2409 1742 
Q 1991 1309 1228 531 
z
" transform="scale(0.015625)"/>
        <path id="DejaVuSans-30" d="M 2034 4250 
Q 1547 4250 1301 3770 
Q 1056 3291 1056 2328 
Q 1056 1369 1301 889 
Q 1547 409 2034 409 
Q 2525 409 2770 889 
Q 3016 1369 3016 2328 
Q 3016 3291 2770 3770 
Q 2525 4250 2034 4250 
z
M 2034 4750 
Q 2819 4750 3233 4129 
Q 3647 3509 3647 2328 
Q 3647 1150 3233 529 
Q 2819 -91 2034 -91 
Q 1250 -91 836 529 
Q 422 1150 422 2328 
Q 422 3509 836 4129 
Q 1250 4750 2034 4750 
z
" transform="scale(0.015625)"/>
        <path id="DejaVuSans-35" d="M 691 4666 
L 3169 4666 
L 3169 4134 
L 1269 4134 
L 1269 2991 
Q 1406 3038 1543 3061 
Q 1681 3084 1819 3084 
Q 2600 3084 3056 2656 
Q 3513 2228 3513 1497 
Q 3513 744 3044 326 
Q 2575 -91 1722 -91 
Q 1428 -91 1123 -41 
Q 819 9 494 109 
L 494 744 
Q 775 591 1075 516 
Q 1375 441 1709 441 
Q 2250 441 2565 725 
Q 2881 1009 2881 1497 
Q 2881 1984 2565 2268 
Q 2250 2553 1709 2553 
Q 1456 2553 1204 2497 
Q 953 2441 691 2322 
L 691 4666 
z
" transform="scale(0.015625)"/>
        <path id="DejaVuSans-2d" d="M 313 2009 
L 1997 2009 
L 1997 1497 
L 313 1497 
L 313 2009 
z
" transform="scale(0.015625)"/>
        <path id="DejaVuSans-31" d="M 794 531 
L 1825 531 
L 1825 4091 
L 703 3866 
L 703 4441 
L 1819 4666 
L 2450 4666 
L 2450 531 
L 3481 531 
L 3481 0 
L 794 0 
L 794 531 
z
" transform="scale(0.015625)"/>
       </defs>
       <use xlink:href="#DejaVuSans-32"/>
       <use xlink:href="#DejaVuSans-30" x="63.623047"/>
       <use xlink:href="#DejaVuSans-32" x="127.246094"/>
       <use xlink:href="#DejaVuSans-35" x="190.869141"/>
       <use xlink:href="#DejaVuSans-2d" x="254.492188"/>
       <use xlink:href="#DejaVuSans-30" x="290.576172"/>
       <use xlink:href="#DejaVuSans-31" x="354.199219"/>
       <use xlink:href="#DejaVuSans-2d" x="417.822266"/>
       <use xlink:href="#DejaVuSans-30" x="453.90625"/>
       <use xlink:href="#DejaVuSans-31" x="517.529297"/>
      </g>
     </g>
    </g>
    <g id="xtick_2">
     <g id="line2d_2">
      <g>
       <use xlink:href="#m8e2e3f3311" x="316.708668" y="512.64" style="stroke: #000000; stroke-width: 0.8"/>
      </g>
     </g>
     <g id="text_2">
      <!-- 2025-01-15 -->
      <g transform="translate(287.650856 527.238438) scale(0.1 -0.1)">
       <use xlink:href="#DejaVuSans-32"/>
       <use xlink:href="#DejaVuSans-30" x="63.623047"/>
       <use xlink:href="#DejaVuSans-32" x="127.246094"/>
       <use xlink:href="#DejaVuSans-35" x="190.869141"/>
       <use xlink:href="#DejaVuSans-2d" x="254.492188"/>
       <use xlink:href="#DejaVuSans-30" x="290.576172"/>
       <use xlink:href="#DejaVuSans-31" x="354.199219"/>
       <use xlink:href="#DejaVuSans-2d" x="417.822266"/>
       <use xlink:href="#DejaVuSans-31" x="453.90625"/>
       <use xlink:href="#DejaVuSans-35" x="517.529297"/>
      </g>
     </g>
    </g>
    <g id="xtick_3">
     <g id="line2d_3">
      <g>
       <use xlink:href="#m8e2e3f3311" x="477.148414" y="512.64" style="stroke: #000000; stroke-width: 0.8"/>
      </g>
     </g>
     <g id="text_3">
      <!-- 2025-02-01 -->
      <g transform="translate(448.090602 527.238438) scale(0.1 -0.1)">
       <use xlink:href="#DejaVuSans-32"/>
       <use xlink:href="#DejaVuSans-30" x="63.623047"/>
       <use xlink:href="#DejaVuSans-32" x="127.246094"/>
       <use xlink:href="#DejaVuSans-35" x="190.869141"/>
       <use xlink:href="#DejaVuSans-2d" x="254.492188"/>
       <use xlink:href="#DejaVuSans-30" x="290.576172"/>
       <use xlink:href="#DejaVuSans-32" x="354.199219"/>
       <use xlink:href="#DejaVuSans-2d" x="417.822266"/>
       <use xlink:href="#DejaVuSans-30" x="453.90625"/>
       <use xlink:href="#DejaVuSans-31" x="517.529297"/>
      </g>
     </g>
    </g>
    <g id="xtick_4">
     <g id="line2d_4">
      <g>
       <use xlink:href="#m8e2e3f3311" x="609.275264" y="512.64" style="stroke: #000000; stroke-width: 0.8"/>
      </g>
     </g>
     <g id="text_4">
      <!-- 2025-02-15 -->
      <g transform="translate(580.217452 527.238438) scale(0.1 -0.1)">
       <use xlink:href="#DejaVuSans-32"/>
       <use xlink:href="#DejaVuSans-30" x="63.623047"/>
       <use xlink:href="#DejaVuSans-32" x="127.246094"/>
       <use xlink:href="#DejaVuSans-35" x="190.869141"/>
       <use xlink:href="#DejaVuSans-2d" x="254.492188"/>
       <use xlink:href="#DejaVuSans-30" x="290.576172"/>
       <use xlink:href="#DejaVuSans-32" x="354.199219"/>
       <use xlink:href="#DejaVuSans-2d" x="417.822266"/>
       <use xlink:href="#DejaVuSans-31" x="453.90625"/>
       <use xlink:href="#DejaVuSans-35" x="517.529297"/>
      </g>
     </g>
    </g>
    <g id="xtick_5">
     <g id="line2d_5">
      <g>
       <use xlink:href="#m8e2e3f3311" x="741.402114" y="512.64" style="stroke: #000000; stroke-width: 0.8"/>
      </g>
     </g>
     <g id="text_5">
      <!-- 2025-03-01 -->
      <g transform="translate(712.344302 527.238438) scale(0.1 -0.1)">
       <defs>
        <path id="DejaVuSans-33" d="M 2597 2516 
Q 3050 2419 3304 2112 
Q 3559 1806 3559 1356 
Q 3559 666 3084 287 
Q 2609 -91 1734 -91 
Q 1441 -91 1130 -33 
Q 819 25 488 141 
L 488 750 
Q 750 597 1062 519 
Q 1375 441 1716 441 
Q 2309 441 2620 675 
Q 2931 909 2931 1356 
Q 2931 1769 2642 2001 
Q 2353 2234 1838 2234 
L 1294 2234 
L 1294 2753 
L 1863 2753 
Q 2328 2753 2575 2939 
Q 2822 3125 2822 3475 
Q 2822 3834 2567 4026 
Q 2313 4219 1838 4219 
Q 1578 4219 1281 4162 
Q 984 4106 628 3988 
L 628 4550 
Q 988 4650 1302 4700 
Q 1616 4750 1894 4750 
Q 2613 4750 3031 4423 
Q 3450 4097 3450 3541 
Q 3450 3153 3228 2886 
Q 3006 2619 2597 2516 
z
" transform="scale(0.015625)"/>
       </defs>
       <use xlink:href="#DejaVuSans-32"/>
       <use xlink:href="#DejaVuSans-30" x="63.623047"/>
       <use xlink:href="#DejaVuSans-32" x="127.246094"/>
       <use xlink:href="#DejaVuSans-35" x="190.869141"/>
       <use xlink:href="#DejaVuSans-2d" x="254.492188"/>
       <use xlink:href="#DejaVuSans-30" x="290.576172"/>
       <use xlink:href="#DejaVuSans-33" x="354.199219"/>
       <use xlink:href="#DejaVuSans-2d" x="417.822266"/>
       <use xlink:href="#DejaVuSans-30" x="453.90625"/>
       <use xlink:href="#DejaVuSans-31" x="517.529297"/>
      </g>
     </g>
    </g>
    <g id="xtick_6">
     <g id="line2d_6">
      <g>
       <use xlink:href="#m8e2e3f3311" x="873.528964" y="512.64" style="stroke: #000000; stroke-width: 0.8"/>
      </g>
     </g>
     <g id="text_6">
      <!-- 2025-03-15 -->
      <g transform="translate(844.471152 527.238438) scale(0.1 -0.1)">
       <use xlink:href="#DejaVuSans-32"/>
       <use xlink:href="#DejaVuSans-30" x="63.623047"/>
       <use xlink:href="#DejaVuSans-32" x="127.246094"/>
       <use xlink:href="#DejaVuSans-35" x="190.869141"/>
       <use xlink:href="#DejaVuSans-2d" x="254.492188"/>
       <use xlink:href="#DejaVuSans-30" x="290.576172"/>
       <use xlink:href="#DejaVuSans-33" x="354.199219"/>
       <use xlink:href="#DejaVuSans-2d" x="417.822266"/>
       <use xlink:href="#DejaVuSans-31" x="453.90625"/>
       <use xlink:href="#DejaVuSans-35" x="517.529297"/>
      </g>
     </g>
    </g>
    <g id="xtick_7">
     <g id="line2d_7">
      <g>
       <use xlink:href="#m8e2e3f3311" x="1033.96871" y="512.64" style="stroke: #000000; stroke-width: 0.8"/>
      </g>
     </g>
     <g id="text_7">
      <!-- 2025-04-01 -->
      <g transform="translate(1004.910898 527.238438) scale(0.1 -0.1)">
       <defs>
        <path id="DejaVuSans-34" d="M 2419 4116 
L 825 1625 
L 2419 1625 
L 2419 4116 
z
M 2253 4666 
L 3047 4666 
L 3047 1625 
L 3713 1625 
L 3713 1100 
L 3047 1100 
L 3047 0 
L 2419 0 
L 2419 1100 
L 313 1100 
L 313 1709 
L 2253 4666 
z
" transform="scale(0.015625)"/>
       </defs>
       <use xlink:href="#DejaVuSans-32"/>
       <use xlink:href="#DejaVuSans-30" x="63.623047"/>
       <use xlink:href="#DejaVuSans-32" x="127.246094"/>
       <use xlink:href="#DejaVuSans-35" x="190.869141"/>
       <use xlink:href="#DejaVuSans-2d" x="254.492188"/>
       <use xlink:href="#DejaVuSans-30" x="290.576172"/>
       <use xlink:href="#DejaVuSans-34" x="354.199219"/>
       <use xlink:href="#DejaVuSans-2d" x="417.822266"/>
       <use xlink:href="#DejaVuSans-30" x="453.90625"/>
       <use xlink:href="#DejaVuSans-31" x="517.529297"/>
      </g>
     </g>
    </g>
   </g>
   <g id="matplotlib.axis_2">
    <g id="ytick_1">
     <g id="line2d_8">
      <defs>
       <path id="mf594c329c7" d="M 0 0 
L -3.5 0 
" style="stroke: #000000; stroke-width: 0.8"/>
      </defs>
      <g>
       <use xlink:href="#mf594c329c7" x="144" y="447.335763" style="stroke: #000000; stroke-width: 0.8"/>
      </g>
     </g>
     <g id="text_8">
      <!-- 8500 -->
      <g transform="translate(111.55 451.134982) scale(0.1 -0.1)">
       <defs>
        <path id="DejaVuSans-38" d="M 2034 2216 
Q 1584 2216 1326 1975 
Q 1069 1734 1069 1313 
Q 1069 891 1326 650 
Q 1584 409 2034 409 
Q 2484 409 2743 651 
Q 3003 894 3003 1313 
Q 3003 1734 2745 1975 
Q 2488 2216 2034 2216 
z
M 1403 2484 
Q 997 2584 770 2862 
Q 544 3141 544 3541 
Q 544 4100 942 4425 
Q 1341 4750 2034 4750 
Q 2731 4750 3128 4425 
Q 3525 4100 3525 3541 
Q 3525 3141 3298 2862 
Q 3072 2584 2669 2484 
Q 3125 2378 3379 2068 
Q 3634 1759 3634 1313 
Q 3634 634 3220 271 
Q 2806 -91 2034 -91 
Q 1263 -91 848 271 
Q 434 634 434 1313 
Q 434 1759 690 2068 
Q 947 2378 1403 2484 
z
M 1172 3481 
Q 1172 3119 1398 2916 
Q 1625 2713 2034 2713 
Q 2441 2713 2670 2916 
Q 2900 3119 2900 3481 
Q 2900 3844 2670 4047 
Q 2441 4250 2034 4250 
Q 1625 4250 1398 4047 
Q 1172 3844 1172 3481 
z
" transform="scale(0.015625)"/>
       </defs>
       <use xlink:href="#DejaVuSans-38"/>
       <use xlink:href="#DejaVuSans-35" x="63.623047"/>
       <use xlink:href="#DejaVuSans-30" x="127.246094"/>
       <use xlink:href="#DejaVuSans-30" x="190.869141"/>
      </g>
     </g>
    </g>
    <g id="ytick_2">
     <g id="line2d_9">
      <g>
       <use xlink:href="#mf594c329c7" x="144" y="373.57067" style="stroke: #000000; stroke-width: 0.8"/>
      </g>
     </g>
     <g id="text_9">
      <!-- 9000 -->
      <g transform="translate(111.55 377.369888) scale(0.1 -0.1)">
       <defs>
        <path id="DejaVuSans-39" d="M 703 97 
L 703 672 
Q 941 559 1184 500 
Q 1428 441 1663 441 
Q 2288 441 2617 861 
Q 2947 1281 2994 2138 
Q 2813 1869 2534 1725 
Q 2256 1581 1919 1581 
Q 1219 1581 811 2004 
Q 403 2428 403 3163 
Q 403 3881 828 4315 
Q 1253 4750 1959 4750 
Q 2769 4750 3195 4129 
Q 3622 3509 3622 2328 
Q 3622 1225 3098 567 
Q 2575 -91 1691 -91 
Q 1453 -91 1209 -44 
Q 966 3 703 97 
z
M 1959 2075 
Q 2384 2075 2632 2365 
Q 2881 2656 2881 3163 
Q 2881 3666 2632 3958 
Q 2384 4250 1959 4250 
Q 1534 4250 1286 3958 
Q 1038 3666 1038 3163 
Q 1038 2656 1286 2365 
Q 1534 2075 1959 2075 
z
" transform="scale(0.015625)"/>
       </defs>
       <use xlink:href="#DejaVuSans-39"/>
       <use xlink:href="#DejaVuSans-30" x="63.623047"/>
       <use xlink:href="#DejaVuSans-30" x="127.246094"/>
       <use xlink:href="#DejaVuSans-30" x="190.869141"/>
      </g>
     </g>
    </g>
    <g id="ytick_3">
     <g id="line2d_10">
      <g>
       <use xlink:href="#mf594c329c7" x="144" y="299.805576" style="stroke: #000000; stroke-width: 0.8"/>
      </g>
     </g>
     <g id="text_10">
      <!-- 9500 -->
      <g transform="translate(111.55 303.604795) scale(0.1 -0.1)">
       <use xlink:href="#DejaVuSans-39"/>
       <use xlink:href="#DejaVuSans-35" x="63.623047"/>
       <use xlink:href="#DejaVuSans-30" x="127.246094"/>
       <use xlink:href="#DejaVuSans-30" x="190.869141"/>
      </g>
     </g>
    </g>
    <g id="ytick_4">
     <g id="line2d_11">
      <g>
       <use xlink:href="#mf594c329c7" x="144" y="226.040483" style="stroke: #000000; stroke-width: 0.8"/>
      </g>
     </g>
     <g id="text_11">
      <!-- 10000 -->
      <g transform="translate(105.1875 229.839702) scale(0.1 -0.1)">
       <use xlink:href="#DejaVuSans-31"/>
       <use xlink:href="#DejaVuSans-30" x="63.623047"/>
       <use xlink:href="#DejaVuSans-30" x="127.246094"/>
       <use xlink:href="#DejaVuSans-30" x="190.869141"/>
       <use xlink:href="#DejaVuSans-30" x="254.492188"/>
      </g>
     </g>
    </g>
    <g id="ytick_5">
     <g id="line2d_12">
      <g>
       <use xlink:href="#mf594c329c7" x="144" y="152.27539" style="stroke: #000000; stroke-width: 0.8"/>
      </g>
     </g>
     <g id="text_12">
      <!-- 10500 -->
      <g transform="translate(105.1875 156.074608) scale(0.1 -0.1)">
       <use xlink:href="#DejaVuSans-31"/>
       <use xlink:href="#DejaVuSans-30" x="63.623047"/>
       <use xlink:href="#DejaVuSans-35" x="127.246094"/>
       <use xlink:href="#DejaVuSans-30" x="190.869141"/>
       <use xlink:href="#DejaVuSans-30" x="254.492188"/>
      </g>
     </g>
    </g>
    <g id="ytick_6">
     <g id="line2d_13">
      <g>
       <use xlink:href="#mf594c329c7" x="144" y="78.510296" style="stroke: #000000; stroke-width: 0.8"/>
      </g>
     </g>
     <g id="text_13">
      <!-- 11000 -->
      <g transform="translate(105.1875 82.309515) scale(0.1 -0.1)">
       <use xlink:href="#DejaVuSans-31"/>
       <use xlink:href="#DejaVuSans-31" x="63.623047"/>
       <use xlink:href="#DejaVuSans-30" x="127.246094"/>
       <use xlink:href="#DejaVuSans-30" x="190.869141"/>
       <use xlink:href="#DejaVuSans-30" x="254.492188"/>
      </g>
     </g>
    </g>
   </g>
   <g id="line2d_14">
    <path d="M 184.581818 492.48 
L 194.01945 491.889879 
L 203.457082 489.676926 
L 212.894715 489.234336 
L 222.332347 488.054094 
L 231.769979 486.578793 
L 241.207611 486.283732 
L 250.645243 485.103491 
L 260.082875 484.6609 
L 269.520507 484.070779 
L 278.95814 483.775719 
L 288.395772 483.038068 
L 297.833404 482.447947 
L 307.271036 481.710296 
L 316.708668 480.972645 
L 326.1463 480.087464 
L 335.583932 479.349813 
L 345.021564 478.464632 
L 354.459197 477.431921 
L 363.896829 476.39921 
L 373.334461 475.514029 
L 382.772093 473.891196 
L 392.209725 471.530714 
L 401.647357 467.989989 
L 411.084989 466.957278 
L 420.522622 465.039385 
L 429.960254 463.121493 
L 439.397886 458.252997 
L 448.835518 453.679561 
L 458.27315 448.811065 
L 467.710782 443.647508 
L 477.148414 440.844435 
L 486.586047 439.664193 
L 496.023679 437.45124 
L 505.461311 429.18955 
L 514.898943 413.25629 
L 524.336575 406.322371 
L 533.774207 396.585379 
L 543.211839 393.929835 
L 552.649471 389.3564 
L 562.087104 382.717541 
L 571.524736 376.078683 
L 580.962368 367.669462 
L 590.4 356.162108 
L 599.837632 347.015236 
L 609.275264 345.687464 
L 618.712896 343.917102 
L 628.150529 328.869023 
L 637.588161 316.919078 
L 647.025793 309.985159 
L 656.463425 295.379671 
L 665.901057 279.741471 
L 675.338689 275.610626 
L 684.776321 273.840263 
L 694.213953 258.792184 
L 703.651586 255.25146 
L 713.089218 246.842239 
L 722.52685 238.433019 
L 731.964482 212.025115 
L 741.402114 193.141251 
L 750.839746 190.338178 
L 760.277378 186.207333 
L 769.715011 172.339495 
L 779.152643 170.864193 
L 788.590275 156.111175 
L 798.027907 148.144544 
L 807.465539 147.701954 
L 816.903171 146.079122 
L 826.340803 143.128518 
L 835.778436 140.620505 
L 845.216068 139.292733 
L 854.6537 136.78472 
L 864.091332 132.063754 
L 873.528964 131.326103 
L 882.966596 131.178573 
L 892.404228 128.67056 
L 901.84186 124.539715 
L 911.279493 120.85146 
L 920.717125 112.442239 
L 930.154757 105.36079 
L 939.592389 102.115126 
L 949.030021 101.820066 
L 958.467653 100.197234 
L 967.905285 97.39416 
L 977.342918 96.066389 
L 986.78055 90.312711 
L 996.218182 89.28 
" clip-path="url(#p6fe3527cd9)" style="fill: none; stroke: #1f77b4; stroke-width: 1.5; stroke-linecap: square"/>
   </g>
   <g id="patch_3">
    <path d="M 144 512.64 
L 144 69.12 
" style="fill: none; stroke: #000000; stroke-width: 0.8; stroke-linejoin: miter; stroke-linecap: square"/>
   </g>
   <g id="patch_4">
    <path d="M 1036.8 512.64 
L 1036.8 69.12 
" style="fill: none; stroke: #000000; stroke-width: 0.8; stroke-linejoin: miter; stroke-linecap: square"/>
   </g>
   <g id="patch_5">
    <path d="M 144 512.64 
L 1036.8 512.64 
" style="fill: none; stroke: #000000; stroke-width: 0.8; stroke-linejoin: miter; stroke-linecap: square"/>
   </g>
   <g id="patch_6">
    <path d="M 144 69.12 
L 1036.8 69.12 
" style="fill: none; stroke: #000000; stroke-width: 0.8; stroke-linejoin: miter; stroke-linecap: square"/>
   </g>
   <g id="text_14">
    <!-- Number of AEDs in the OpenStreetMap database in Poland from 2025-01-01, day by day. As at: 2025-03-28 -->
    <g transform="translate(144 63.12) scale(0.14 -0.14)">
     <defs>
      <path id="DejaVuSans-4e" d="M 628 4666 
L 1478 4666 
L 3547 763 
L 3547 4666 
L 4159 4666 
L 4159 0 
L 3309 0 
L 1241 3903 
L 1241 0 
L 628 0 
L 628 4666 
z
" transform="scale(0.015625)"/>
      <path id="DejaVuSans-75" d="M 544 1381 
L 544 3500 
L 1119 3500 
L 1119 1403 
Q 1119 906 1312 657 
Q 1506 409 1894 409 
Q 2359 409 2629 706 
Q 2900 1003 2900 1516 
L 2900 3500 
L 3475 3500 
L 3475 0 
L 2900 0 
L 2900 538 
Q 2691 219 2414 64 
Q 2138 -91 1772 -91 
Q 1169 -91 856 284 
Q 544 659 544 1381 
z
M 1991 3584 
L 1991 3584 
z
" transform="scale(0.015625)"/>
      <path id="DejaVuSans-6d" d="M 3328 2828 
Q 3544 3216 3844 3400 
Q 4144 3584 4550 3584 
Q 5097 3584 5394 3201 
Q 5691 2819 5691 2113 
L 5691 0 
L 5113 0 
L 5113 2094 
Q 5113 2597 4934 2840 
Q 4756 3084 4391 3084 
Q 3944 3084 3684 2787 
Q 3425 2491 3425 1978 
L 3425 0 
L 2847 0 
L 2847 2094 
Q 2847 2600 2669 2842 
Q 2491 3084 2119 3084 
Q 1678 3084 1418 2786 
Q 1159 2488 1159 1978 
L 1159 0 
L 581 0 
L 581 3500 
L 1159 3500 
L 1159 2956 
Q 1356 3278 1631 3431 
Q 1906 3584 2284 3584 
Q 2666 3584 2933 3390 
Q 3200 3197 3328 2828 
z
" transform="scale(0.015625)"/>
      <path id="DejaVuSans-62" d="M 3116 1747 
Q 3116 2381 2855 2742 
Q 2594 3103 2138 3103 
Q 1681 3103 1420 2742 
Q 1159 2381 1159 1747 
Q 1159 1113 1420 752 
Q 1681 391 2138 391 
Q 2594 391 2855 752 
Q 3116 1113 3116 1747 
z
M 1159 2969 
Q 1341 3281 1617 3432 
Q 1894 3584 2278 3584 
Q 2916 3584 3314 3078 
Q 3713 2572 3713 1747 
Q 3713 922 3314 415 
Q 2916 -91 2278 -91 
Q 1894 -91 1617 61 
Q 1341 213 1159 525 
L 1159 0 
L 581 0 
L 581 4863 
L 1159 4863 
L 1159 2969 
z
" transform="scale(0.015625)"/>
      <path id="DejaVuSans-65" d="M 3597 1894 
L 3597 1613 
L 953 1613 
Q 991 1019 1311 708 
Q 1631 397 2203 397 
Q 2534 397 2845 478 
Q 3156 559 3463 722 
L 3463 178 
Q 3153 47 2828 -22 
Q 2503 -91 2169 -91 
Q 1331 -91 842 396 
Q 353 884 353 1716 
Q 353 2575 817 3079 
Q 1281 3584 2069 3584 
Q 2775 3584 3186 3129 
Q 3597 2675 3597 1894 
z
M 3022 2063 
Q 3016 2534 2758 2815 
Q 2500 3097 2075 3097 
Q 1594 3097 1305 2825 
Q 1016 2553 972 2059 
L 3022 2063 
z
" transform="scale(0.015625)"/>
      <path id="DejaVuSans-72" d="M 2631 2963 
Q 2534 3019 2420 3045 
Q 2306 3072 2169 3072 
Q 1681 3072 1420 2755 
Q 1159 2438 1159 1844 
L 1159 0 
L 581 0 
L 581 3500 
L 1159 3500 
L 1159 2956 
Q 1341 3275 1631 3429 
Q 1922 3584 2338 3584 
Q 2397 3584 2469 3576 
Q 2541 3569 2628 3553 
L 2631 2963 
z
" transform="scale(0.015625)"/>
      <path id="DejaVuSans-20" transform="scale(0.015625)"/>
      <path id="DejaVuSans-6f" d="M 1959 3097 
Q 1497 3097 1228 2736 
Q 959 2375 959 1747 
Q 959 1119 1226 758 
Q 1494 397 1959 397 
Q 2419 397 2687 759 
Q 2956 1122 2956 1747 
Q 2956 2369 2687 2733 
Q 2419 3097 1959 3097 
z
M 1959 3584 
Q 2709 3584 3137 3096 
Q 3566 2609 3566 1747 
Q 3566 888 3137 398 
Q 2709 -91 1959 -91 
Q 1206 -91 779 398 
Q 353 888 353 1747 
Q 353 2609 779 3096 
Q 1206 3584 1959 3584 
z
" transform="scale(0.015625)"/>
      <path id="DejaVuSans-66" d="M 2375 4863 
L 2375 4384 
L 1825 4384 
Q 1516 4384 1395 4259 
Q 1275 4134 1275 3809 
L 1275 3500 
L 2222 3500 
L 2222 3053 
L 1275 3053 
L 1275 0 
L 697 0 
L 697 3053 
L 147 3053 
L 147 3500 
L 697 3500 
L 697 3744 
Q 697 4328 969 4595 
Q 1241 4863 1831 4863 
L 2375 4863 
z
" transform="scale(0.015625)"/>
      <path id="DejaVuSans-41" d="M 2188 4044 
L 1331 1722 
L 3047 1722 
L 2188 4044 
z
M 1831 4666 
L 2547 4666 
L 4325 0 
L 3669 0 
L 3244 1197 
L 1141 1197 
L 716 0 
L 50 0 
L 1831 4666 
z
" transform="scale(0.015625)"/>
      <path id="DejaVuSans-45" d="M 628 4666 
L 3578 4666 
L 3578 4134 
L 1259 4134 
L 1259 2753 
L 3481 2753 
L 3481 2222 
L 1259 2222 
L 1259 531 
L 3634 531 
L 3634 0 
L 628 0 
L 628 4666 
z
" transform="scale(0.015625)"/>
      <path id="DejaVuSans-44" d="M 1259 4147 
L 1259 519 
L 2022 519 
Q 2988 519 3436 956 
Q 3884 1394 3884 2338 
Q 3884 3275 3436 3711 
Q 2988 4147 2022 4147 
L 1259 4147 
z
M 628 4666 
L 1925 4666 
Q 3281 4666 3915 4102 
Q 4550 3538 4550 2338 
Q 4550 1131 3912 565 
Q 3275 0 1925 0 
L 628 0 
L 628 4666 
z
" transform="scale(0.015625)"/>
      <path id="DejaVuSans-73" d="M 2834 3397 
L 2834 2853 
Q 2591 2978 2328 3040 
Q 2066 3103 1784 3103 
Q 1356 3103 1142 2972 
Q 928 2841 928 2578 
Q 928 2378 1081 2264 
Q 1234 2150 1697 2047 
L 1894 2003 
Q 2506 1872 2764 1633 
Q 3022 1394 3022 966 
Q 3022 478 2636 193 
Q 2250 -91 1575 -91 
Q 1294 -91 989 -36 
Q 684 19 347 128 
L 347 722 
Q 666 556 975 473 
Q 1284 391 1588 391 
Q 1994 391 2212 530 
Q 2431 669 2431 922 
Q 2431 1156 2273 1281 
Q 2116 1406 1581 1522 
L 1381 1569 
Q 847 1681 609 1914 
Q 372 2147 372 2553 
Q 372 3047 722 3315 
Q 1072 3584 1716 3584 
Q 2034 3584 2315 3537 
Q 2597 3491 2834 3397 
z
" transform="scale(0.015625)"/>
      <path id="DejaVuSans-69" d="M 603 3500 
L 1178 3500 
L 1178 0 
L 603 0 
L 603 3500 
z
M 603 4863 
L 1178 4863 
L 1178 4134 
L 603 4134 
L 603 4863 
z
" transform="scale(0.015625)"/>
      <path id="DejaVuSans-6e" d="M 3513 2113 
L 3513 0 
L 2938 0 
L 2938 2094 
Q 2938 2591 2744 2837 
Q 2550 3084 2163 3084 
Q 1697 3084 1428 2787 
Q 1159 2491 1159 1978 
L 1159 0 
L 581 0 
L 581 3500 
L 1159 3500 
L 1159 2956 
Q 1366 3272 1645 3428 
Q 1925 3584 2291 3584 
Q 2894 3584 3203 3211 
Q 3513 2838 3513 2113 
z
" transform="scale(0.015625)"/>
      <path id="DejaVuSans-74" d="M 1172 4494 
L 1172 3500 
L 2356 3500 
L 2356 3053 
L 1172 3053 
L 1172 1153 
Q 1172 725 1289 603 
Q 1406 481 1766 481 
L 2356 481 
L 2356 0 
L 1766 0 
Q 1100 0 847 248 
Q 594 497 594 1153 
L 594 3053 
L 172 3053 
L 172 3500 
L 594 3500 
L 594 4494 
L 1172 4494 
z
" transform="scale(0.015625)"/>
      <path id="DejaVuSans-68" d="M 3513 2113 
L 3513 0 
L 2938 0 
L 2938 2094 
Q 2938 2591 2744 2837 
Q 2550 3084 2163 3084 
Q 1697 3084 1428 2787 
Q 1159 2491 1159 1978 
L 1159 0 
L 581 0 
L 581 4863 
L 1159 4863 
L 1159 2956 
Q 1366 3272 1645 3428 
Q 1925 3584 2291 3584 
Q 2894 3584 3203 3211 
Q 3513 2838 3513 2113 
z
" transform="scale(0.015625)"/>
      <path id="DejaVuSans-4f" d="M 2522 4238 
Q 1834 4238 1429 3725 
Q 1025 3213 1025 2328 
Q 1025 1447 1429 934 
Q 1834 422 2522 422 
Q 3209 422 3611 934 
Q 4013 1447 4013 2328 
Q 4013 3213 3611 3725 
Q 3209 4238 2522 4238 
z
M 2522 4750 
Q 3503 4750 4090 4092 
Q 4678 3434 4678 2328 
Q 4678 1225 4090 567 
Q 3503 -91 2522 -91 
Q 1538 -91 948 565 
Q 359 1222 359 2328 
Q 359 3434 948 4092 
Q 1538 4750 2522 4750 
z
" transform="scale(0.015625)"/>
      <path id="DejaVuSans-70" d="M 1159 525 
L 1159 -1331 
L 581 -1331 
L 581 3500 
L 1159 3500 
L 1159 2969 
Q 1341 3281 1617 3432 
Q 1894 3584 2278 3584 
Q 2916 3584 3314 3078 
Q 3713 2572 3713 1747 
Q 3713 922 3314 415 
Q 2916 -91 2278 -91 
Q 1894 -91 1617 61 
Q 1341 213 1159 525 
z
M 3116 1747 
Q 3116 2381 2855 2742 
Q 2594 3103 2138 3103 
Q 1681 3103 1420 2742 
Q 1159 2381 1159 1747 
Q 1159 1113 1420 752 
Q 1681 391 2138 391 
Q 2594 391 2855 752 
Q 3116 1113 3116 1747 
z
" transform="scale(0.015625)"/>
      <path id="DejaVuSans-53" d="M 3425 4513 
L 3425 3897 
Q 3066 4069 2747 4153 
Q 2428 4238 2131 4238 
Q 1616 4238 1336 4038 
Q 1056 3838 1056 3469 
Q 1056 3159 1242 3001 
Q 1428 2844 1947 2747 
L 2328 2669 
Q 3034 2534 3370 2195 
Q 3706 1856 3706 1288 
Q 3706 609 3251 259 
Q 2797 -91 1919 -91 
Q 1588 -91 1214 -16 
Q 841 59 441 206 
L 441 856 
Q 825 641 1194 531 
Q 1563 422 1919 422 
Q 2459 422 2753 634 
Q 3047 847 3047 1241 
Q 3047 1584 2836 1778 
Q 2625 1972 2144 2069 
L 1759 2144 
Q 1053 2284 737 2584 
Q 422 2884 422 3419 
Q 422 4038 858 4394 
Q 1294 4750 2059 4750 
Q 2388 4750 2728 4690 
Q 3069 4631 3425 4513 
z
" transform="scale(0.015625)"/>
      <path id="DejaVuSans-4d" d="M 628 4666 
L 1569 4666 
L 2759 1491 
L 3956 4666 
L 4897 4666 
L 4897 0 
L 4281 0 
L 4281 4097 
L 3078 897 
L 2444 897 
L 1241 4097 
L 1241 0 
L 628 0 
L 628 4666 
z
" transform="scale(0.015625)"/>
      <path id="DejaVuSans-61" d="M 2194 1759 
Q 1497 1759 1228 1600 
Q 959 1441 959 1056 
Q 959 750 1161 570 
Q 1363 391 1709 391 
Q 2188 391 2477 730 
Q 2766 1069 2766 1631 
L 2766 1759 
L 2194 1759 
z
M 3341 1997 
L 3341 0 
L 2766 0 
L 2766 531 
Q 2569 213 2275 61 
Q 1981 -91 1556 -91 
Q 1019 -91 701 211 
Q 384 513 384 1019 
Q 384 1609 779 1909 
Q 1175 2209 1959 2209 
L 2766 2209 
L 2766 2266 
Q 2766 2663 2505 2880 
Q 2244 3097 1772 3097 
Q 1472 3097 1187 3025 
Q 903 2953 641 2809 
L 641 3341 
Q 956 3463 1253 3523 
Q 1550 3584 1831 3584 
Q 2591 3584 2966 3190 
Q 3341 2797 3341 1997 
z
" transform="scale(0.015625)"/>
      <path id="DejaVuSans-64" d="M 2906 2969 
L 2906 4863 
L 3481 4863 
L 3481 0 
L 2906 0 
L 2906 525 
Q 2725 213 2448 61 
Q 2172 -91 1784 -91 
Q 1150 -91 751 415 
Q 353 922 353 1747 
Q 353 2572 751 3078 
Q 1150 3584 1784 3584 
Q 2172 3584 2448 3432 
Q 2725 3281 2906 2969 
z
M 947 1747 
Q 947 1113 1208 752 
Q 1469 391 1925 391 
Q 2381 391 2643 752 
Q 2906 1113 2906 1747 
Q 2906 2381 2643 2742 
Q 2381 3103 1925 3103 
Q 1469 3103 1208 2742 
Q 947 2381 947 1747 
z
" transform="scale(0.015625)"/>
      <path id="DejaVuSans-50" d="M 1259 4147 
L 1259 2394 
L 2053 2394 
Q 2494 2394 2734 2622 
Q 2975 2850 2975 3272 
Q 2975 3691 2734 3919 
Q 2494 4147 2053 4147 
L 1259 4147 
z
M 628 4666 
L 2053 4666 
Q 2838 4666 3239 4311 
Q 3641 3956 3641 3272 
Q 3641 2581 3239 2228 
Q 2838 1875 2053 1875 
L 1259 1875 
L 1259 0 
L 628 0 
L 628 4666 
z
" transform="scale(0.015625)"/>
      <path id="DejaVuSans-6c" d="M 603 4863 
L 1178 4863 
L 1178 0 
L 603 0 
L 603 4863 
z
" transform="scale(0.015625)"/>
      <path id="DejaVuSans-2c" d="M 750 794 
L 1409 794 
L 1409 256 
L 897 -744 
L 494 -744 
L 750 256 
L 750 794 
z
" transform="scale(0.015625)"/>
      <path id="DejaVuSans-79" d="M 2059 -325 
Q 1816 -950 1584 -1140 
Q 1353 -1331 966 -1331 
L 506 -1331 
L 506 -850 
L 844 -850 
Q 1081 -850 1212 -737 
Q 1344 -625 1503 -206 
L 1606 56 
L 191 3500 
L 800 3500 
L 1894 763 
L 2988 3500 
L 3597 3500 
L 2059 -325 
z
" transform="scale(0.015625)"/>
      <path id="DejaVuSans-2e" d="M 684 794 
L 1344 794 
L 1344 0 
L 684 0 
L 684 794 
z
" transform="scale(0.015625)"/>
      <path id="DejaVuSans-3a" d="M 750 794 
L 1409 794 
L 1409 0 
L 750 0 
L 750 794 
z
M 750 3309 
L 1409 3309 
L 1409 2516 
L 750 2516 
L 750 3309 
z
" transform="scale(0.015625)"/>
     </defs>
     <use xlink:href="#DejaVuSans-4e"/>
     <use xlink:href="#DejaVuSans-75" x="74.804688"/>
     <use xlink:href="#DejaVuSans-6d" x="138.183594"/>
     <use xlink:href="#DejaVuSans-62" x="235.595703"/>
     <use xlink:href="#DejaVuSans-65" x="299.072266"/>
     <use xlink:href="#DejaVuSans-72" x="360.595703"/>
     <use xlink:href="#DejaVuSans-20" x="401.708984"/>
     <use xlink:href="#DejaVuSans-6f" x="433.496094"/>
     <use xlink:href="#DejaVuSans-66" x="494.677734"/>
     <use xlink:href="#DejaVuSans-20" x="529.882812"/>
     <use xlink:href="#DejaVuSans-41" x="561.669922"/>
     <use xlink:href="#DejaVuSans-45" x="630.078125"/>
     <use xlink:href="#DejaVuSans-44" x="693.261719"/>
     <use xlink:href="#DejaVuSans-73" x="770.263672"/>
     <use xlink:href="#DejaVuSans-20" x="822.363281"/>
     <use xlink:href="#DejaVuSans-69" x="854.150391"/>
     <use xlink:href="#DejaVuSans-6e" x="881.933594"/>
     <use xlink:href="#DejaVuSans-20" x="945.3125"/>
     <use xlink:href="#DejaVuSans-74" x="977.099609"/>
     <use xlink:href="#DejaVuSans-68" x="1016.308594"/>
     <use xlink:href="#DejaVuSans-65" x="1079.6875"/>
     <use xlink:href="#DejaVuSans-20" x="1141.210938"/>
     <use xlink:href="#DejaVuSans-4f" x="1172.998047"/>
     <use xlink:href="#DejaVuSans-70" x="1251.708984"/>
     <use xlink:href="#DejaVuSans-65" x="1315.185547"/>
     <use xlink:href="#DejaVuSans-6e" x="1376.708984"/>
     <use xlink:href="#DejaVuSans-53" x="1440.087891"/>
     <use xlink:href="#DejaVuSans-74" x="1503.564453"/>
     <use xlink:href="#DejaVuSans-72" x="1542.773438"/>
     <use xlink:href="#DejaVuSans-65" x="1581.636719"/>
     <use xlink:href="#DejaVuSans-65" x="1643.160156"/>
     <use xlink:href="#DejaVuSans-74" x="1704.683594"/>
     <use xlink:href="#DejaVuSans-4d" x="1743.892578"/>
     <use xlink:href="#DejaVuSans-61" x="1830.171875"/>
     <use xlink:href="#DejaVuSans-70" x="1891.451172"/>
     <use xlink:href="#DejaVuSans-20" x="1954.927734"/>
     <use xlink:href="#DejaVuSans-64" x="1986.714844"/>
     <use xlink:href="#DejaVuSans-61" x="2050.191406"/>
     <use xlink:href="#DejaVuSans-74" x="2111.470703"/>
     <use xlink:href="#DejaVuSans-61" x="2150.679688"/>
     <use xlink:href="#DejaVuSans-62" x="2211.958984"/>
     <use xlink:href="#DejaVuSans-61" x="2275.435547"/>
     <use xlink:href="#DejaVuSans-73" x="2336.714844"/>
     <use xlink:href="#DejaVuSans-65" x="2388.814453"/>
     <use xlink:href="#DejaVuSans-20" x="2450.337891"/>
     <use xlink:href="#DejaVuSans-69" x="2482.125"/>
     <use xlink:href="#DejaVuSans-6e" x="2509.908203"/>
     <use xlink:href="#DejaVuSans-20" x="2573.287109"/>
     <use xlink:href="#DejaVuSans-50" x="2605.074219"/>
     <use xlink:href="#DejaVuSans-6f" x="2661.751953"/>
     <use xlink:href="#DejaVuSans-6c" x="2722.933594"/>
     <use xlink:href="#DejaVuSans-61" x="2750.716797"/>
     <use xlink:href="#DejaVuSans-6e" x="2811.996094"/>
     <use xlink:href="#DejaVuSans-64" x="2875.375"/>
     <use xlink:href="#DejaVuSans-20" x="2938.851562"/>
     <use xlink:href="#DejaVuSans-66" x="2970.638672"/>
     <use xlink:href="#DejaVuSans-72" x="3005.84375"/>
     <use xlink:href="#DejaVuSans-6f" x="3044.707031"/>
     <use xlink:href="#DejaVuSans-6d" x="3105.888672"/>
     <use xlink:href="#DejaVuSans-20" x="3203.300781"/>
     <use xlink:href="#DejaVuSans-32" x="3235.087891"/>
     <use xlink:href="#DejaVuSans-30" x="3298.710938"/>
     <use xlink:href="#DejaVuSans-32" x="3362.333984"/>
     <use xlink:href="#DejaVuSans-35" x="3425.957031"/>
     <use xlink:href="#DejaVuSans-2d" x="3489.580078"/>
     <use xlink:href="#DejaVuSans-30" x="3525.664062"/>
     <use xlink:href="#DejaVuSans-31" x="3589.287109"/>
     <use xlink:href="#DejaVuSans-2d" x="3652.910156"/>
     <use xlink:href="#DejaVuSans-30" x="3688.994141"/>
     <use xlink:href="#DejaVuSans-31" x="3752.617188"/>
     <use xlink:href="#DejaVuSans-2c" x="3816.240234"/>
     <use xlink:href="#DejaVuSans-20" x="3848.027344"/>
     <use xlink:href="#DejaVuSans-64" x="3879.814453"/>
     <use xlink:href="#DejaVuSans-61" x="3943.291016"/>
     <use xlink:href="#DejaVuSans-79" x="4004.570312"/>
     <use xlink:href="#DejaVuSans-20" x="4063.75"/>
     <use xlink:href="#DejaVuSans-62" x="4095.537109"/>
     <use xlink:href="#DejaVuSans-79" x="4159.013672"/>
     <use xlink:href="#DejaVuSans-20" x="4218.193359"/>
     <use xlink:href="#DejaVuSans-64" x="4249.980469"/>
     <use xlink:href="#DejaVuSans-61" x="4313.457031"/>
     <use xlink:href="#DejaVuSans-79" x="4374.736328"/>
     <use xlink:href="#DejaVuSans-2e" x="4419.666016"/>
     <use xlink:href="#DejaVuSans-20" x="4451.453125"/>
     <use xlink:href="#DejaVuSans-41" x="4483.240234"/>
     <use xlink:href="#DejaVuSans-73" x="4551.648438"/>
     <use xlink:href="#DejaVuSans-20" x="4603.748047"/>
     <use xlink:href="#DejaVuSans-61" x="4635.535156"/>
     <use xlink:href="#DejaVuSans-74" x="4696.814453"/>
     <use xlink:href="#DejaVuSans-3a" x="4736.023438"/>
     <use xlink:href="#DejaVuSans-20" x="4769.714844"/>
     <use xlink:href="#DejaVuSans-32" x="4801.501953"/>
     <use xlink:href="#DejaVuSans-30" x="4865.125"/>
     <use xlink:href="#DejaVuSans-32" x="4928.748047"/>
     <use xlink:href="#DejaVuSans-35" x="4992.371094"/>
     <use xlink:href="#DejaVuSans-2d" x="5055.994141"/>
     <use xlink:href="#DejaVuSans-30" x="5092.078125"/>
     <use xlink:href="#DejaVuSans-33" x="5155.701172"/>
     <use xlink:href="#DejaVuSans-2d" x="5219.324219"/>
     <use xlink:href="#DejaVuSans-32" x="5255.408203"/>
     <use xlink:href="#DejaVuSans-38" x="5319.03125"/>
    </g>
   </g>
  </g>
 </g>
 <defs>
  <clipPath id="p6fe3527cd9">
   <rect x="144" y="69.12" width="892.8" height="443.52"/>
  </clipPath>
 </defs>
</svg>
