<?xml version="1.0" encoding="utf-8" standalone="no"?>
<!DOCTYPE svg PUBLIC "-//W3C//DTD SVG 1.1//EN"
  "http://www.w3.org/Graphics/SVG/1.1/DTD/svg11.dtd">
<svg xmlns:xlink="http://www.w3.org/1999/xlink" width="1152pt" height="576pt" viewBox="0 0 1152 576" xmlns="http://www.w3.org/2000/svg" version="1.1">
 <metadata>
  <rdf:RDF xmlns:dc="http://purl.org/dc/elements/1.1/" xmlns:cc="http://creativecommons.org/ns#" xmlns:rdf="http://www.w3.org/1999/02/22-rdf-syntax-ns#">
   <cc:Work>
    <dc:type rdf:resource="http://purl.org/dc/dcmitype/StillImage"/>
    <dc:date>1980-01-01T00:00:00+00:00</dc:date>
    <dc:format>image/svg+xml</dc:format>
    <dc:creator>
     <cc:Agent>
      <dc:title>Matplotlib v3.9.1, https://matplotlib.org/</dc:title>
     </cc:Agent>
    </dc:creator>
   </cc:Work>
  </rdf:RDF>
 </metadata>
 <defs>
  <style type="text/css">*{stroke-linejoin: round; stroke-linecap: butt}</style>
 </defs>
 <g id="figure_1">
  <g id="patch_1">
   <path d="M 0 576 
L 1152 576 
L 1152 0 
L 0 0 
z
" style="fill: #ffffff"/>
  </g>
  <g id="axes_1">
   <g id="patch_2">
    <path d="M 144 512.64 
L 1036.8 512.64 
L 1036.8 69.12 
L 144 69.12 
z
" style="fill: #ffffff"/>
   </g>
   <g id="PathCollection_1">
    <path d="M 184.581818 494.716068 
C 185.17483 494.716068 185.743634 494.480462 186.162957 494.061139 
C 186.58228 493.641816 186.817886 493.073012 186.817886 492.48 
C 186.817886 491.886988 186.58228 491.318184 186.162957 490.898861 
C 185.743634 490.479538 185.17483 490.243932 184.581818 490.243932 
C 183.988806 490.243932 183.420002 490.479538 183.000679 490.898861 
C 182.581356 491.318184 182.34575 491.886988 182.34575 492.48 
C 182.34575 493.073012 182.581356 493.641816 183.000679 494.061139 
C 183.420002 494.480462 183.988806 494.716068 184.581818 494.716068 
z
" clip-path="url(#pbee2a72364)" style="fill: #1f77b4; fill-opacity: 0.3; stroke: #1f77b4; stroke-opacity: 0.3"/>
    <path d="M 194.36057 495.038911 
C 195.199215 495.038911 196.003625 494.705713 196.596638 494.112701 
C 197.18965 493.519689 197.522847 492.715279 197.522847 491.876633 
C 197.522847 491.037987 197.18965 490.233577 196.596638 489.640565 
C 196.003625 489.047553 195.199215 488.714355 194.36057 488.714355 
C 193.521924 488.714355 192.717514 489.047553 192.124502 489.640565 
C 191.531489 490.233577 191.198292 491.037987 191.198292 491.876633 
C 191.198292 492.715279 191.531489 493.519689 192.124502 494.112701 
C 192.717514 494.705713 193.521924 495.038911 194.36057 495.038911 
z
" clip-path="url(#pbee2a72364)" style="fill: #1f77b4; fill-opacity: 0.3; stroke: #1f77b4; stroke-opacity: 0.3"/>
    <path d="M 204.139321 495.737731 
C 205.763352 495.737731 207.321085 495.092497 208.469448 493.944134 
C 209.617811 492.795771 210.263045 491.238037 210.263045 489.614007 
C 210.263045 487.989976 209.617811 486.432243 208.469448 485.28388 
C 207.321085 484.135517 205.763352 483.490282 204.139321 483.490282 
C 202.51529 483.490282 200.957557 484.135517 199.809194 485.28388 
C 198.660831 486.432243 198.015597 487.989976 198.015597 489.614007 
C 198.015597 491.238037 198.660831 492.795771 199.809194 493.944134 
C 200.957557 495.092497 202.51529 495.737731 204.139321 495.737731 
z
" clip-path="url(#pbee2a72364)" style="fill: #1f77b4; fill-opacity: 0.3; stroke: #1f77b4; stroke-opacity: 0.3"/>
    <path d="M 213.918072 491.900094 
C 214.644361 491.900094 215.341 491.611537 215.854564 491.097973 
C 216.368128 490.58441 216.656685 489.88777 216.656685 489.161481 
C 216.656685 488.435193 216.368128 487.738553 215.854564 487.22499 
C 215.341 486.711426 214.644361 486.422869 213.918072 486.422869 
C 213.191784 486.422869 212.495144 486.711426 211.981581 487.22499 
C 211.468017 487.738553 211.17946 488.435193 211.17946 489.161481 
C 211.17946 489.88777 211.468017 490.58441 211.981581 491.097973 
C 212.495144 491.611537 213.191784 491.900094 213.918072 491.900094 
z
" clip-path="url(#pbee2a72364)" style="fill: #1f77b4; fill-opacity: 0.3; stroke: #1f77b4; stroke-opacity: 0.3"/>
    <path d="M 223.696824 492.426883 
C 224.882848 492.426883 226.020455 491.955671 226.859101 491.117025 
C 227.697747 490.278379 228.16896 489.140772 228.16896 487.954747 
C 228.16896 486.768723 227.697747 485.631116 226.859101 484.79247 
C 226.020455 483.953824 224.882848 483.482612 223.696824 483.482612 
C 222.510799 483.482612 221.373192 483.953824 220.534546 484.79247 
C 219.6959 485.631116 219.224688 486.768723 219.224688 487.954747 
C 219.224688 489.140772 219.6959 490.278379 220.534546 491.117025 
C 221.373192 491.955671 222.510799 492.426883 223.696824 492.426883 
z
" clip-path="url(#pbee2a72364)" style="fill: #1f77b4; fill-opacity: 0.3; stroke: #1f77b4; stroke-opacity: 0.3"/>
    <path d="M 233.475575 491.44633 
C 234.801591 491.44633 236.073474 490.919498 237.011109 489.981864 
C 237.948743 489.044229 238.475575 487.772345 238.475575 486.44633 
C 238.475575 485.120314 237.948743 483.848431 237.011109 482.910796 
C 236.073474 481.973162 234.801591 481.44633 233.475575 481.44633 
C 232.14956 481.44633 230.877676 481.973162 229.940041 482.910796 
C 229.002407 483.848431 228.475575 485.120314 228.475575 486.44633 
C 228.475575 487.772345 229.002407 489.044229 229.940041 489.981864 
C 230.877676 490.919498 232.14956 491.44633 233.475575 491.44633 
z
" clip-path="url(#pbee2a72364)" style="fill: #1f77b4; fill-opacity: 0.3; stroke: #1f77b4; stroke-opacity: 0.3"/>
    <path d="M 243.254326 488.380714 
C 243.847339 488.380714 244.416142 488.145108 244.835465 487.725785 
C 245.254788 487.306462 245.490394 486.737659 245.490394 486.144646 
C 245.490394 485.551634 245.254788 484.982831 244.835465 484.563508 
C 244.416142 484.144185 243.847339 483.908578 243.254326 483.908578 
C 242.661314 483.908578 242.09251 484.144185 241.673188 484.563508 
C 241.253865 484.982831 241.018258 485.551634 241.018258 486.144646 
C 241.018258 486.737659 241.253865 487.306462 241.673188 487.725785 
C 242.09251 488.145108 242.661314 488.380714 243.254326 488.380714 
z
" clip-path="url(#pbee2a72364)" style="fill: #1f77b4; fill-opacity: 0.3; stroke: #1f77b4; stroke-opacity: 0.3"/>
    <path d="M 253.033078 489.410048 
C 254.219102 489.410048 255.35671 488.938836 256.195355 488.10019 
C 257.034001 487.261544 257.505214 486.123937 257.505214 484.937912 
C 257.505214 483.751888 257.034001 482.614281 256.195355 481.775635 
C 255.35671 480.936989 254.219102 480.465777 253.033078 480.465777 
C 251.847053 480.465777 250.709446 480.936989 249.8708 481.775635 
C 249.032154 482.614281 248.560942 483.751888 248.560942 484.937912 
C 248.560942 486.123937 249.032154 487.261544 249.8708 488.10019 
C 250.709446 488.938836 251.847053 489.410048 253.033078 489.410048 
z
" clip-path="url(#pbee2a72364)" style="fill: #1f77b4; fill-opacity: 0.3; stroke: #1f77b4; stroke-opacity: 0.3"/>
    <path d="M 262.811829 487.224 
C 263.538118 487.224 264.234757 486.935442 264.748321 486.421879 
C 265.261884 485.908315 265.550442 485.211676 265.550442 484.485387 
C 265.550442 483.759099 265.261884 483.062459 264.748321 482.548896 
C 264.234757 482.035332 263.538118 481.746774 262.811829 481.746774 
C 262.085541 481.746774 261.388901 482.035332 260.875337 482.548896 
C 260.361774 483.062459 260.073216 483.759099 260.073216 484.485387 
C 260.073216 485.211676 260.361774 485.908315 260.875337 486.421879 
C 261.388901 486.935442 262.085541 487.224 262.811829 487.224 
z
" clip-path="url(#pbee2a72364)" style="fill: #1f77b4; fill-opacity: 0.3; stroke: #1f77b4; stroke-opacity: 0.3"/>
    <path d="M 272.590581 487.044298 
C 273.429226 487.044298 274.233636 486.7111 274.826648 486.118088 
C 275.419661 485.525076 275.752858 484.720666 275.752858 483.88202 
C 275.752858 483.043374 275.419661 482.238964 274.826648 481.645952 
C 274.233636 481.05294 273.429226 480.719743 272.590581 480.719743 
C 271.751935 480.719743 270.947525 481.05294 270.354513 481.645952 
C 269.7615 482.238964 269.428303 483.043374 269.428303 483.88202 
C 269.428303 484.720666 269.7615 485.525076 270.354513 486.118088 
C 270.947525 486.7111 271.751935 487.044298 272.590581 487.044298 
z
" clip-path="url(#pbee2a72364)" style="fill: #1f77b4; fill-opacity: 0.3; stroke: #1f77b4; stroke-opacity: 0.3"/>
    <path d="M 282.369332 485.816405 
C 282.962344 485.816405 283.531148 485.580798 283.950471 485.161476 
C 284.369794 484.742153 284.6054 484.173349 284.6054 483.580337 
C 284.6054 482.987325 284.369794 482.418521 283.950471 481.999198 
C 283.531148 481.579875 282.962344 481.344269 282.369332 481.344269 
C 281.77632 481.344269 281.207516 481.579875 280.788193 481.999198 
C 280.36887 482.418521 280.133264 482.987325 280.133264 483.580337 
C 280.133264 484.173349 280.36887 484.742153 280.788193 485.161476 
C 281.207516 485.580798 281.77632 485.816405 282.369332 485.816405 
z
" clip-path="url(#pbee2a72364)" style="fill: #1f77b4; fill-opacity: 0.3; stroke: #1f77b4; stroke-opacity: 0.3"/>
    <path d="M 292.148083 486.361662 
C 293.085718 486.361662 293.985075 485.989136 294.648083 485.326128 
C 295.311091 484.66312 295.683617 483.763762 295.683617 482.826128 
C 295.683617 481.888493 295.311091 480.989136 294.648083 480.326128 
C 293.985075 479.66312 293.085718 479.290594 292.148083 479.290594 
C 291.210449 479.290594 290.311091 479.66312 289.648083 480.326128 
C 288.985075 480.989136 288.612549 481.888493 288.612549 482.826128 
C 288.612549 483.763762 288.985075 484.66312 289.648083 485.326128 
C 290.311091 485.989136 291.210449 486.361662 292.148083 486.361662 
z
" clip-path="url(#pbee2a72364)" style="fill: #1f77b4; fill-opacity: 0.3; stroke: #1f77b4; stroke-opacity: 0.3"/>
    <path d="M 301.926835 485.385039 
C 302.76548 485.385039 303.56989 485.051841 304.162903 484.458829 
C 304.755915 483.865817 305.089112 483.061407 305.089112 482.222761 
C 305.089112 481.384115 304.755915 480.579705 304.162903 479.986693 
C 303.56989 479.393681 302.76548 479.060483 301.926835 479.060483 
C 301.088189 479.060483 300.283779 479.393681 299.690767 479.986693 
C 299.097754 480.579705 298.764557 481.384115 298.764557 482.222761 
C 298.764557 483.061407 299.097754 483.865817 299.690767 484.458829 
C 300.283779 485.051841 301.088189 485.385039 301.926835 485.385039 
z
" clip-path="url(#pbee2a72364)" style="fill: #1f77b4; fill-opacity: 0.3; stroke: #1f77b4; stroke-opacity: 0.3"/>
    <path d="M 311.705586 485.004086 
C 312.643221 485.004086 313.542578 484.63156 314.205586 483.968552 
C 314.868594 483.305544 315.24112 482.406187 315.24112 481.468552 
C 315.24112 480.530918 314.868594 479.63156 314.205586 478.968552 
C 313.542578 478.305544 312.643221 477.933018 311.705586 477.933018 
C 310.767951 477.933018 309.868594 478.305544 309.205586 478.968552 
C 308.542578 479.63156 308.170052 480.530918 308.170052 481.468552 
C 308.170052 482.406187 308.542578 483.305544 309.205586 483.968552 
C 309.868594 484.63156 310.767951 485.004086 311.705586 485.004086 
z
" clip-path="url(#pbee2a72364)" style="fill: #1f77b4; fill-opacity: 0.3; stroke: #1f77b4; stroke-opacity: 0.3"/>
    <path d="M 321.484337 484.249877 
C 322.421972 484.249877 323.32133 483.877351 323.984337 483.214343 
C 324.647345 482.551336 325.019871 481.651978 325.019871 480.714343 
C 325.019871 479.776709 324.647345 478.877351 323.984337 478.214343 
C 323.32133 477.551336 322.421972 477.17881 321.484337 477.17881 
C 320.546703 477.17881 319.647345 477.551336 318.984337 478.214343 
C 318.32133 478.877351 317.948803 479.776709 317.948803 480.714343 
C 317.948803 481.651978 318.32133 482.551336 318.984337 483.214343 
C 319.647345 483.877351 320.546703 484.249877 321.484337 484.249877 
z
" clip-path="url(#pbee2a72364)" style="fill: #1f77b4; fill-opacity: 0.3; stroke: #1f77b4; stroke-opacity: 0.3"/>
    <path d="M 331.263089 483.682276 
C 332.290216 483.682276 333.275413 483.274194 334.001702 482.547906 
C 334.72799 481.821617 335.136072 480.83642 335.136072 479.809293 
C 335.136072 478.782166 334.72799 477.796969 334.001702 477.07068 
C 333.275413 476.344392 332.290216 475.93631 331.263089 475.93631 
C 330.235962 475.93631 329.250765 476.344392 328.524476 477.07068 
C 327.798187 477.796969 327.390105 478.782166 327.390105 479.809293 
C 327.390105 480.83642 327.798187 481.821617 328.524476 482.547906 
C 329.250765 483.274194 330.235962 483.682276 331.263089 483.682276 
z
" clip-path="url(#pbee2a72364)" style="fill: #1f77b4; fill-opacity: 0.3; stroke: #1f77b4; stroke-opacity: 0.3"/>
    <path d="M 341.04184 482.590618 
C 341.979475 482.590618 342.878832 482.218092 343.54184 481.555084 
C 344.204848 480.892076 344.577374 479.992719 344.577374 479.055084 
C 344.577374 478.11745 344.204848 477.218092 343.54184 476.555084 
C 342.878832 475.892076 341.979475 475.51955 341.04184 475.51955 
C 340.104206 475.51955 339.204848 475.892076 338.54184 476.555084 
C 337.878832 477.218092 337.506306 478.11745 337.506306 479.055084 
C 337.506306 479.992719 337.878832 480.892076 338.54184 481.555084 
C 339.204848 482.218092 340.104206 482.590618 341.04184 482.590618 
z
" clip-path="url(#pbee2a72364)" style="fill: #1f77b4; fill-opacity: 0.3; stroke: #1f77b4; stroke-opacity: 0.3"/>
    <path d="M 350.820591 482.023017 
C 351.847719 482.023017 352.832916 481.614935 353.559204 480.888646 
C 354.285493 480.162358 354.693575 479.177161 354.693575 478.150034 
C 354.693575 477.122906 354.285493 476.137709 353.559204 475.411421 
C 352.832916 474.685132 351.847719 474.27705 350.820591 474.27705 
C 349.793464 474.27705 348.808267 474.685132 348.081979 475.411421 
C 347.35569 476.137709 346.947608 477.122906 346.947608 478.150034 
C 346.947608 479.177161 347.35569 480.162358 348.081979 480.888646 
C 348.808267 481.614935 349.793464 482.023017 350.820591 482.023017 
z
" clip-path="url(#pbee2a72364)" style="fill: #1f77b4; fill-opacity: 0.3; stroke: #1f77b4; stroke-opacity: 0.3"/>
    <path d="M 360.599343 481.277442 
C 361.708767 481.277442 362.772901 480.836663 363.557383 480.052181 
C 364.341864 479.2677 364.782643 478.203566 364.782643 477.094141 
C 364.782643 475.984717 364.341864 474.920583 363.557383 474.136102 
C 362.772901 473.35162 361.708767 472.910841 360.599343 472.910841 
C 359.489919 472.910841 358.425784 473.35162 357.641303 474.136102 
C 356.856822 474.920583 356.416043 475.984717 356.416043 477.094141 
C 356.416043 478.203566 356.856822 479.2677 357.641303 480.052181 
C 358.425784 480.836663 359.489919 481.277442 360.599343 481.277442 
z
" clip-path="url(#pbee2a72364)" style="fill: #1f77b4; fill-opacity: 0.3; stroke: #1f77b4; stroke-opacity: 0.3"/>
    <path d="M 370.378094 480.221549 
C 371.487518 480.221549 372.551653 479.78077 373.336134 478.996289 
C 374.120615 478.211808 374.561394 477.147673 374.561394 476.038249 
C 374.561394 474.928825 374.120615 473.864691 373.336134 473.080209 
C 372.551653 472.295728 371.487518 471.854949 370.378094 471.854949 
C 369.26867 471.854949 368.204536 472.295728 367.420054 473.080209 
C 366.635573 473.864691 366.194794 474.928825 366.194794 476.038249 
C 366.194794 477.147673 366.635573 478.211808 367.420054 478.996289 
C 368.204536 479.78077 369.26867 480.221549 370.378094 480.221549 
z
" clip-path="url(#pbee2a72364)" style="fill: #1f77b4; fill-opacity: 0.3; stroke: #1f77b4; stroke-opacity: 0.3"/>
    <path d="M 380.156846 479.006182 
C 381.183973 479.006182 382.16917 478.5981 382.895458 477.871811 
C 383.621747 477.145523 384.029829 476.160326 384.029829 475.133199 
C 384.029829 474.106071 383.621747 473.120874 382.895458 472.394586 
C 382.16917 471.668297 381.183973 471.260215 380.156846 471.260215 
C 379.129718 471.260215 378.144521 471.668297 377.418233 472.394586 
C 376.691944 473.120874 376.283862 474.106071 376.283862 475.133199 
C 376.283862 476.160326 376.691944 477.145523 377.418233 477.871811 
C 378.144521 478.5981 379.129718 479.006182 380.156846 479.006182 
z
" clip-path="url(#pbee2a72364)" style="fill: #1f77b4; fill-opacity: 0.3; stroke: #1f77b4; stroke-opacity: 0.3"/>
    <path d="M 389.935597 478.717984 
C 391.326334 478.717984 392.660297 478.165438 393.643696 477.182039 
C 394.627096 476.198639 395.179641 474.864676 395.179641 473.473939 
C 395.179641 472.083203 394.627096 470.74924 393.643696 469.76584 
C 392.660297 468.782441 391.326334 468.229895 389.935597 468.229895 
C 388.54486 468.229895 387.210897 468.782441 386.227498 469.76584 
C 385.244098 470.74924 384.691553 472.083203 384.691553 473.473939 
C 384.691553 474.864676 385.244098 476.198639 386.227498 477.182039 
C 387.210897 478.165438 388.54486 478.717984 389.935597 478.717984 
z
" clip-path="url(#pbee2a72364)" style="fill: #1f77b4; fill-opacity: 0.3; stroke: #1f77b4; stroke-opacity: 0.3"/>
    <path d="M 399.714348 477.385027 
C 401.39164 477.385027 403.00046 476.718632 404.186484 475.532607 
C 405.372509 474.346583 406.038904 472.737763 406.038904 471.060471 
C 406.038904 469.38318 405.372509 467.77436 404.186484 466.588335 
C 403.00046 465.402311 401.39164 464.735916 399.714348 464.735916 
C 398.037057 464.735916 396.428237 465.402311 395.242212 466.588335 
C 394.056188 467.77436 393.389793 469.38318 393.389793 471.060471 
C 393.389793 472.737763 394.056188 474.346583 395.242212 475.532607 
C 396.428237 476.718632 398.037057 477.385027 399.714348 477.385027 
z
" clip-path="url(#pbee2a72364)" style="fill: #1f77b4; fill-opacity: 0.3; stroke: #1f77b4; stroke-opacity: 0.3"/>
    <path d="M 409.4931 475.186236 
C 411.547354 475.186236 413.517748 474.370072 414.970325 472.917495 
C 416.422902 471.464918 417.239066 469.494524 417.239066 467.440269 
C 417.239066 465.386015 416.422902 463.415621 414.970325 461.963044 
C 413.517748 460.510467 411.547354 459.694303 409.4931 459.694303 
C 407.438845 459.694303 405.468451 460.510467 404.015874 461.963044 
C 402.563297 463.415621 401.747133 465.386015 401.747133 467.440269 
C 401.747133 469.494524 402.563297 471.464918 404.015874 472.917495 
C 405.468451 474.370072 407.438845 475.186236 409.4931 475.186236 
z
" clip-path="url(#pbee2a72364)" style="fill: #1f77b4; fill-opacity: 0.3; stroke: #1f77b4; stroke-opacity: 0.3"/>
    <path d="M 419.271851 470.567677 
C 420.381275 470.567677 421.44541 470.126898 422.229891 469.342417 
C 423.014372 468.557936 423.455151 467.493801 423.455151 466.384377 
C 423.455151 465.274953 423.014372 464.210819 422.229891 463.426337 
C 421.44541 462.641856 420.381275 462.201077 419.271851 462.201077 
C 418.162427 462.201077 417.098292 462.641856 416.313811 463.426337 
C 415.52933 464.210819 415.088551 465.274953 415.088551 466.384377 
C 415.088551 467.493801 415.52933 468.557936 416.313811 469.342417 
C 417.098292 470.126898 418.162427 470.567677 419.271851 470.567677 
z
" clip-path="url(#pbee2a72364)" style="fill: #1f77b4; fill-opacity: 0.3; stroke: #1f77b4; stroke-opacity: 0.3"/>
    <path d="M 429.050602 470.124311 
C 430.562493 470.124311 432.012663 469.523631 433.081731 468.454563 
C 434.150799 467.385495 434.75148 465.935325 434.75148 464.423434 
C 434.75148 462.911544 434.150799 461.461373 433.081731 460.392305 
C 432.012663 459.323238 430.562493 458.722557 429.050602 458.722557 
C 427.538712 458.722557 426.088541 459.323238 425.019474 460.392305 
C 423.950406 461.461373 423.349725 462.911544 423.349725 464.423434 
C 423.349725 465.935325 423.950406 467.385495 425.019474 468.454563 
C 426.088541 469.523631 427.538712 470.124311 429.050602 470.124311 
z
" clip-path="url(#pbee2a72364)" style="fill: #1f77b4; fill-opacity: 0.3; stroke: #1f77b4; stroke-opacity: 0.3"/>
    <path d="M 438.829354 468.163369 
C 440.341244 468.163369 441.791415 467.562688 442.860483 466.49362 
C 443.929551 465.424553 444.530231 463.974382 444.530231 462.462492 
C 444.530231 460.950601 443.929551 459.500431 442.860483 458.431363 
C 441.791415 457.362295 440.341244 456.761614 438.829354 456.761614 
C 437.317463 456.761614 435.867293 457.362295 434.798225 458.431363 
C 433.729157 459.500431 433.128477 460.950601 433.128477 462.462492 
C 433.128477 463.974382 433.729157 465.424553 434.798225 466.49362 
C 435.867293 467.562688 437.317463 468.163369 438.829354 468.163369 
z
" clip-path="url(#pbee2a72364)" style="fill: #1f77b4; fill-opacity: 0.3; stroke: #1f77b4; stroke-opacity: 0.3"/>
    <path d="M 448.608105 466.567665 
C 451.016932 466.567665 453.327424 465.610628 455.030721 463.90733 
C 456.734019 462.204032 457.691056 459.893541 457.691056 457.484714 
C 457.691056 455.075887 456.734019 452.765395 455.030721 451.062098 
C 453.327424 449.3588 451.016932 448.401763 448.608105 448.401763 
C 446.199278 448.401763 443.888787 449.3588 442.185489 451.062098 
C 440.482191 452.765395 439.525154 455.075887 439.525154 457.484714 
C 439.525154 459.893541 440.482191 462.204032 442.185489 463.90733 
C 443.888787 465.610628 446.199278 466.567665 448.608105 466.567665 
z
" clip-path="url(#pbee2a72364)" style="fill: #1f77b4; fill-opacity: 0.3; stroke: #1f77b4; stroke-opacity: 0.3"/>
    <path d="M 458.386857 461.612028 
C 460.721548 461.612028 462.96093 460.684445 464.611806 459.033569 
C 466.262682 457.382693 467.190265 455.143311 467.190265 452.80862 
C 467.190265 450.473928 466.262682 448.234546 464.611806 446.58367 
C 462.96093 444.932794 460.721548 444.005211 458.386857 444.005211 
C 456.052165 444.005211 453.812783 444.932794 452.161907 446.58367 
C 450.511031 448.234546 449.583448 450.473928 449.583448 452.80862 
C 449.583448 455.143311 450.511031 457.382693 452.161907 459.033569 
C 453.812783 460.684445 456.052165 461.612028 458.386857 461.612028 
z
" clip-path="url(#pbee2a72364)" style="fill: #1f77b4; fill-opacity: 0.3; stroke: #1f77b4; stroke-opacity: 0.3"/>
    <path d="M 468.165608 456.913793 
C 470.574435 456.913793 472.884926 455.956756 474.588224 454.253458 
C 476.291522 452.55016 477.248559 450.239669 477.248559 447.830842 
C 477.248559 445.422015 476.291522 443.111523 474.588224 441.408225 
C 472.884926 439.704928 470.574435 438.747891 468.165608 438.747891 
C 465.756781 438.747891 463.446289 439.704928 461.742992 441.408225 
C 460.039694 443.111523 459.082657 445.422015 459.082657 447.830842 
C 459.082657 450.239669 460.039694 452.55016 461.742992 454.253458 
C 463.446289 455.956756 465.756781 456.913793 468.165608 456.913793 
z
" clip-path="url(#pbee2a72364)" style="fill: #1f77b4; fill-opacity: 0.3; stroke: #1f77b4; stroke-opacity: 0.3"/>
    <path d="M 477.944359 451.905524 
C 480.425107 451.905524 482.804584 450.919912 484.558738 449.165759 
C 486.312891 447.411605 487.298503 445.032128 487.298503 442.55138 
C 487.298503 440.070633 486.312891 437.691156 484.558738 435.937002 
C 482.804584 434.182849 480.425107 433.197237 477.944359 433.197237 
C 475.463611 433.197237 473.084135 434.182849 471.329981 435.937002 
C 469.575827 437.691156 468.590216 440.070633 468.590216 442.55138 
C 468.590216 445.032128 469.575827 447.411605 471.329981 449.165759 
C 473.084135 450.919912 475.463611 451.905524 477.944359 451.905524 
z
" clip-path="url(#pbee2a72364)" style="fill: #1f77b4; fill-opacity: 0.3; stroke: #1f77b4; stroke-opacity: 0.3"/>
    <path d="M 487.723111 446.577412 
C 489.550897 446.577412 491.304068 445.851224 492.596508 444.558784 
C 493.888948 443.266344 494.615135 441.513173 494.615135 439.685387 
C 494.615135 437.857601 493.888948 436.10443 492.596508 434.81199 
C 491.304068 433.51955 489.550897 432.793363 487.723111 432.793363 
C 485.895324 432.793363 484.142153 433.51955 482.849713 434.81199 
C 481.557273 436.10443 480.831086 437.857601 480.831086 439.685387 
C 480.831086 441.513173 481.557273 443.266344 482.849713 444.558784 
C 484.142153 445.851224 485.895324 446.577412 487.723111 446.577412 
z
" clip-path="url(#pbee2a72364)" style="fill: #1f77b4; fill-opacity: 0.3; stroke: #1f77b4; stroke-opacity: 0.3"/>
    <path d="M 497.501862 442.950789 
C 498.687886 442.950789 499.825494 442.479577 500.66414 441.640931 
C 501.502785 440.802285 501.973998 439.664678 501.973998 438.478653 
C 501.973998 437.292629 501.502785 436.155021 500.66414 435.316376 
C 499.825494 434.47773 498.687886 434.006517 497.501862 434.006517 
C 496.315838 434.006517 495.17823 434.47773 494.339584 435.316376 
C 493.500938 436.155021 493.029726 437.292629 493.029726 438.478653 
C 493.029726 439.664678 493.500938 440.802285 494.339584 441.640931 
C 495.17823 442.479577 496.315838 442.950789 497.501862 442.950789 
z
" clip-path="url(#pbee2a72364)" style="fill: #1f77b4; fill-opacity: 0.3; stroke: #1f77b4; stroke-opacity: 0.3"/>
    <path d="M 507.280613 442.339751 
C 508.904644 442.339751 510.462377 441.694517 511.61074 440.546154 
C 512.759103 439.397791 513.404338 437.840058 513.404338 436.216027 
C 513.404338 434.591996 512.759103 433.034263 511.61074 431.8859 
C 510.462377 430.737537 508.904644 430.092303 507.280613 430.092303 
C 505.656583 430.092303 504.098849 430.737537 502.950486 431.8859 
C 501.802123 433.034263 501.156889 434.591996 501.156889 436.216027 
C 501.156889 437.840058 501.802123 439.397791 502.950486 440.546154 
C 504.098849 441.694517 505.656583 442.339751 507.280613 442.339751 
z
" clip-path="url(#pbee2a72364)" style="fill: #1f77b4; fill-opacity: 0.3; stroke: #1f77b4; stroke-opacity: 0.3"/>
    <path d="M 517.059365 439.601048 
C 520.19729 439.601048 523.207117 438.354337 525.425965 436.135489 
C 527.644813 433.916641 528.891524 430.906814 528.891524 427.768889 
C 528.891524 424.630963 527.644813 421.621137 525.425965 419.402289 
C 523.207117 417.18344 520.19729 415.936729 517.059365 415.936729 
C 513.921439 415.936729 510.911613 417.18344 508.692764 419.402289 
C 506.473916 421.621137 505.227205 424.630963 505.227205 427.768889 
C 505.227205 430.906814 506.473916 433.916641 508.692764 436.135489 
C 510.911613 438.354337 513.921439 439.601048 517.059365 439.601048 
z
" clip-path="url(#pbee2a72364)" style="fill: #1f77b4; fill-opacity: 0.3; stroke: #1f77b4; stroke-opacity: 0.3"/>
    <path d="M 526.838116 427.909657 
C 531.195848 427.909657 535.375685 426.178311 538.457066 423.09693 
C 541.538448 420.015548 543.269793 415.835711 543.269793 411.47798 
C 543.269793 407.120248 541.538448 402.940411 538.457066 399.85903 
C 535.375685 396.777648 531.195848 395.046303 526.838116 395.046303 
C 522.480384 395.046303 518.300548 396.777648 515.219166 399.85903 
C 512.137784 402.940411 510.406439 407.120248 510.406439 411.47798 
C 510.406439 415.835711 512.137784 420.015548 515.219166 423.09693 
C 518.300548 426.178311 522.480384 427.909657 526.838116 427.909657 
z
" clip-path="url(#pbee2a72364)" style="fill: #1f77b4; fill-opacity: 0.3; stroke: #1f77b4; stroke-opacity: 0.3"/>
    <path d="M 536.616867 415.228159 
C 539.491601 415.228159 542.248979 414.086016 544.281722 412.053272 
C 546.314466 410.020529 547.456609 407.263151 547.456609 404.388418 
C 547.456609 401.513684 546.314466 398.756306 544.281722 396.723563 
C 542.248979 394.690819 539.491601 393.548676 536.616867 393.548676 
C 533.742134 393.548676 530.984756 394.690819 528.952013 396.723563 
C 526.919269 398.756306 525.777126 401.513684 525.777126 404.388418 
C 525.777126 407.263151 526.919269 410.020529 528.952013 412.053272 
C 530.984756 414.086016 533.742134 415.228159 536.616867 415.228159 
z
" clip-path="url(#pbee2a72364)" style="fill: #1f77b4; fill-opacity: 0.3; stroke: #1f77b4; stroke-opacity: 0.3"/>
    <path d="M 546.395619 407.278095 
C 549.802214 407.278095 553.069743 405.92464 555.47857 403.515813 
C 557.887397 401.106986 559.240851 397.839457 559.240851 394.432862 
C 559.240851 391.026266 557.887397 387.758738 555.47857 385.349911 
C 553.069743 382.941084 549.802214 381.587629 546.395619 381.587629 
C 542.989023 381.587629 539.721495 382.941084 537.312668 385.349911 
C 534.903841 387.758738 533.550386 391.026266 533.550386 394.432862 
C 533.550386 397.839457 534.903841 401.106986 537.312668 403.515813 
C 539.721495 405.92464 542.989023 407.278095 546.395619 407.278095 
z
" clip-path="url(#pbee2a72364)" style="fill: #1f77b4; fill-opacity: 0.3; stroke: #1f77b4; stroke-opacity: 0.3"/>
    <path d="M 556.17437 398.425914 
C 557.953407 398.425914 559.659818 397.719096 560.917787 396.461127 
C 562.175755 395.203158 562.882574 393.496747 562.882574 391.71771 
C 562.882574 389.938674 562.175755 388.232263 560.917787 386.974294 
C 559.659818 385.716325 557.953407 385.009507 556.17437 385.009507 
C 554.395334 385.009507 552.688922 385.716325 551.430954 386.974294 
C 550.172985 388.232263 549.466166 389.938674 549.466166 391.71771 
C 549.466166 393.496747 550.172985 395.203158 551.430954 396.461127 
C 552.688922 397.719096 554.395334 398.425914 556.17437 398.425914 
z
" clip-path="url(#pbee2a72364)" style="fill: #1f77b4; fill-opacity: 0.3; stroke: #1f77b4; stroke-opacity: 0.3"/>
    <path d="M 565.953122 395.845025 
C 568.287813 395.845025 570.527195 394.917442 572.178071 393.266566 
C 573.828947 391.61569 574.75653 389.376307 574.75653 387.041616 
C 574.75653 384.706925 573.828947 382.467542 572.178071 380.816666 
C 570.527195 379.16579 568.287813 378.238208 565.953122 378.238208 
C 563.61843 378.238208 561.379048 379.16579 559.728172 380.816666 
C 558.077296 382.467542 557.149713 384.706925 557.149713 387.041616 
C 557.149713 389.376307 558.077296 391.61569 559.728172 393.266566 
C 561.379048 394.917442 563.61843 395.845025 565.953122 395.845025 
z
" clip-path="url(#pbee2a72364)" style="fill: #1f77b4; fill-opacity: 0.3; stroke: #1f77b4; stroke-opacity: 0.3"/>
    <path d="M 575.731873 390.860339 
C 578.544777 390.860339 581.24285 389.742761 583.231873 387.753737 
C 585.220896 385.764714 586.338475 383.066641 586.338475 380.253737 
C 586.338475 377.440834 585.220896 374.742761 583.231873 372.753737 
C 581.24285 370.764714 578.544777 369.647136 575.731873 369.647136 
C 572.918969 369.647136 570.220896 370.764714 568.231873 372.753737 
C 566.24285 374.742761 565.125271 377.440834 565.125271 380.253737 
C 565.125271 383.066641 566.24285 385.764714 568.231873 387.753737 
C 570.220896 389.742761 572.918969 390.860339 575.731873 390.860339 
z
" clip-path="url(#pbee2a72364)" style="fill: #1f77b4; fill-opacity: 0.3; stroke: #1f77b4; stroke-opacity: 0.3"/>
    <path d="M 585.510624 384.07246 
C 588.323528 384.07246 591.021601 382.954882 593.010624 380.965859 
C 594.999648 378.976835 596.117226 376.278762 596.117226 373.465859 
C 596.117226 370.652955 594.999648 367.954882 593.010624 365.965859 
C 591.021601 363.976835 588.323528 362.859257 585.510624 362.859257 
C 582.697721 362.859257 579.999648 363.976835 578.010624 365.965859 
C 576.021601 367.954882 574.904023 370.652955 574.904023 373.465859 
C 574.904023 376.278762 576.021601 378.976835 578.010624 380.965859 
C 579.999648 382.954882 582.697721 384.07246 585.510624 384.07246 
z
" clip-path="url(#pbee2a72364)" style="fill: #1f77b4; fill-opacity: 0.3; stroke: #1f77b4; stroke-opacity: 0.3"/>
    <path d="M 595.289376 376.805215 
C 598.455194 376.805215 601.491775 375.547422 603.730347 373.30885 
C 605.968919 371.070278 607.226712 368.033697 607.226712 364.867879 
C 607.226712 361.70206 605.968919 358.665479 603.730347 356.426907 
C 601.491775 354.188335 598.455194 352.930542 595.289376 352.930542 
C 592.123557 352.930542 589.086976 354.188335 586.848404 356.426907 
C 584.609832 358.665479 583.352039 361.70206 583.352039 364.867879 
C 583.352039 368.033697 584.609832 371.070278 586.848404 373.30885 
C 589.086976 375.547422 592.123557 376.805215 595.289376 376.805215 
z
" clip-path="url(#pbee2a72364)" style="fill: #1f77b4; fill-opacity: 0.3; stroke: #1f77b4; stroke-opacity: 0.3"/>
    <path d="M 605.068127 367.066462 
C 608.771487 367.066462 612.323665 365.595102 614.942336 362.976431 
C 617.561007 360.35776 619.032367 356.805582 619.032367 353.102222 
C 619.032367 349.398862 617.561007 345.846684 614.942336 343.228013 
C 612.323665 340.609343 608.771487 339.137982 605.068127 339.137982 
C 601.364767 339.137982 597.812589 340.609343 595.193918 343.228013 
C 592.575247 345.846684 591.103887 349.398862 591.103887 353.102222 
C 591.103887 356.805582 592.575247 360.35776 595.193918 362.976431 
C 597.812589 365.595102 601.364767 367.066462 605.068127 367.066462 
z
" clip-path="url(#pbee2a72364)" style="fill: #1f77b4; fill-opacity: 0.3; stroke: #1f77b4; stroke-opacity: 0.3"/>
    <path d="M 614.846878 356.199933 
C 618.14863 356.199933 621.315596 354.888133 623.650287 352.553442 
C 625.984978 350.218751 627.296778 347.051786 627.296778 343.750034 
C 627.296778 340.448282 625.984978 337.281316 623.650287 334.946625 
C 621.315596 332.611934 618.14863 331.300134 614.846878 331.300134 
C 611.545126 331.300134 608.378161 332.611934 606.04347 334.946625 
C 603.708779 337.281316 602.396979 340.448282 602.396979 343.750034 
C 602.396979 347.051786 603.708779 350.218751 606.04347 352.553442 
C 608.378161 354.888133 611.545126 356.199933 614.846878 356.199933 
z
" clip-path="url(#pbee2a72364)" style="fill: #1f77b4; fill-opacity: 0.3; stroke: #1f77b4; stroke-opacity: 0.3"/>
    <path d="M 624.62563 347.135874 
C 625.883599 347.135874 627.090214 346.636078 627.979732 345.74656 
C 628.86925 344.857042 629.369046 343.650427 629.369046 342.392458 
C 629.369046 341.134489 628.86925 339.927874 627.979732 339.038356 
C 627.090214 338.148838 625.883599 337.649041 624.62563 337.649041 
C 623.367661 337.649041 622.161046 338.148838 621.271528 339.038356 
C 620.38201 339.927874 619.882213 341.134489 619.882213 342.392458 
C 619.882213 343.650427 620.38201 344.857042 621.271528 345.74656 
C 622.161046 346.636078 623.367661 347.135874 624.62563 347.135874 
z
" clip-path="url(#pbee2a72364)" style="fill: #1f77b4; fill-opacity: 0.3; stroke: #1f77b4; stroke-opacity: 0.3"/>
    <path d="M 634.404381 346.059582 
C 635.856958 346.059582 637.250237 345.482467 638.277365 344.45534 
C 639.304492 343.428213 639.881607 342.034934 639.881607 340.582357 
C 639.881607 339.12978 639.304492 337.736501 638.277365 336.709374 
C 637.250237 335.682246 635.856958 335.105131 634.404381 335.105131 
C 632.951804 335.105131 631.558525 335.682246 630.531398 336.709374 
C 629.504271 337.736501 628.927156 339.12978 628.927156 340.582357 
C 628.927156 342.034934 629.504271 343.428213 630.531398 344.45534 
C 631.558525 345.482467 632.951804 346.059582 634.404381 346.059582 
z
" clip-path="url(#pbee2a72364)" style="fill: #1f77b4; fill-opacity: 0.3; stroke: #1f77b4; stroke-opacity: 0.3"/>
    <path d="M 644.183133 341.165218 
C 648.418086 341.165218 652.480158 339.482653 655.474722 336.488088 
C 658.469287 333.493523 660.151852 329.431452 660.151852 325.196498 
C 660.151852 320.961544 658.469287 316.899473 655.474722 313.904909 
C 652.480158 310.910344 648.418086 309.227779 644.183133 309.227779 
C 639.948179 309.227779 635.886107 310.910344 632.891543 313.904909 
C 629.896978 316.899473 628.214413 320.961544 628.214413 325.196498 
C 628.214413 329.431452 629.896978 333.493523 632.891543 336.488088 
C 635.886107 339.482653 639.948179 341.165218 644.183133 341.165218 
z
" clip-path="url(#pbee2a72364)" style="fill: #1f77b4; fill-opacity: 0.3; stroke: #1f77b4; stroke-opacity: 0.3"/>
    <path d="M 653.961884 327.208566 
C 657.73579 327.208566 661.355635 325.709177 664.02419 323.040622 
C 666.692745 320.372068 668.192133 316.752223 668.192133 312.978316 
C 668.192133 309.20441 666.692745 305.584565 664.02419 302.916011 
C 661.355635 300.247456 657.73579 298.748067 653.961884 298.748067 
C 650.187978 298.748067 646.568133 300.247456 643.899578 302.916011 
C 641.231023 305.584565 639.731634 309.20441 639.731634 312.978316 
C 639.731634 316.752223 641.231023 320.372068 643.899578 323.040622 
C 646.568133 325.709177 650.187978 327.208566 653.961884 327.208566 
z
" clip-path="url(#pbee2a72364)" style="fill: #1f77b4; fill-opacity: 0.3; stroke: #1f77b4; stroke-opacity: 0.3"/>
    <path d="M 663.740635 316.728496 
C 666.615368 316.728496 669.372747 315.586352 671.40549 313.553609 
C 673.438233 311.520866 674.580377 308.763487 674.580377 305.888754 
C 674.580377 303.014021 673.438233 300.256643 671.40549 298.223899 
C 669.372747 296.191156 666.615368 295.049013 663.740635 295.049013 
C 660.865902 295.049013 658.108524 296.191156 656.07578 298.223899 
C 654.043037 300.256643 652.900894 303.014021 652.900894 305.888754 
C 652.900894 308.763487 654.043037 311.520866 656.07578 313.553609 
C 658.108524 315.586352 660.865902 316.728496 663.740635 316.728496 
z
" clip-path="url(#pbee2a72364)" style="fill: #1f77b4; fill-opacity: 0.3; stroke: #1f77b4; stroke-opacity: 0.3"/>
    <path d="M 673.519387 306.687554 
C 677.691597 306.687554 681.693486 305.029917 684.643684 302.079719 
C 687.593883 299.12952 689.251519 295.127631 689.251519 290.955421 
C 689.251519 286.783211 687.593883 282.781321 684.643684 279.831123 
C 681.693486 276.880925 677.691597 275.223288 673.519387 275.223288 
C 669.347176 275.223288 665.345287 276.880925 662.395089 279.831123 
C 659.444891 282.781321 657.787254 286.783211 657.787254 290.955421 
C 657.787254 295.127631 659.444891 299.12952 662.395089 302.079719 
C 665.345287 305.029917 669.347176 306.687554 673.519387 306.687554 
z
" clip-path="url(#pbee2a72364)" style="fill: #1f77b4; fill-opacity: 0.3; stroke: #1f77b4; stroke-opacity: 0.3"/>
    <path d="M 683.298138 291.170781 
C 687.635648 291.170781 691.796089 289.44747 694.863172 286.380387 
C 697.930254 283.313304 699.653565 279.152864 699.653565 274.815354 
C 699.653565 270.477844 697.930254 266.317403 694.863172 263.25032 
C 691.796089 260.183237 687.635648 258.459926 683.298138 258.459926 
C 678.960628 258.459926 674.800187 260.183237 671.733105 263.25032 
C 668.666022 266.317403 666.942711 270.477844 666.942711 274.815354 
C 666.942711 279.152864 668.666022 283.313304 671.733105 286.380387 
C 674.800187 289.44747 678.960628 291.170781 683.298138 291.170781 
z
" clip-path="url(#pbee2a72364)" style="fill: #1f77b4; fill-opacity: 0.3; stroke: #1f77b4; stroke-opacity: 0.3"/>
    <path d="M 693.076889 278.958385 
C 695.295738 278.958385 697.424006 278.076827 698.992969 276.507864 
C 700.561932 274.938902 701.44349 272.810633 701.44349 270.591785 
C 701.44349 268.372936 700.561932 266.244667 698.992969 264.675705 
C 697.424006 263.106742 695.295738 262.225184 693.076889 262.225184 
C 690.858041 262.225184 688.729772 263.106742 687.16081 264.675705 
C 685.591847 266.244667 684.710289 268.372936 684.710289 270.591785 
C 684.710289 272.810633 685.591847 274.938902 687.16081 276.507864 
C 688.729772 278.076827 690.858041 278.958385 693.076889 278.958385 
z
" clip-path="url(#pbee2a72364)" style="fill: #1f77b4; fill-opacity: 0.3; stroke: #1f77b4; stroke-opacity: 0.3"/>
    <path d="M 702.855641 274.258909 
C 704.308218 274.258909 705.701497 273.681794 706.728624 272.654667 
C 707.755751 271.62754 708.332866 270.234261 708.332866 268.781684 
C 708.332866 267.329106 707.755751 265.935827 706.728624 264.9087 
C 705.701497 263.881573 704.308218 263.304458 702.855641 263.304458 
C 701.403064 263.304458 700.009785 263.881573 698.982657 264.9087 
C 697.95553 265.935827 697.378415 267.329106 697.378415 268.781684 
C 697.378415 270.234261 697.95553 271.62754 698.982657 272.654667 
C 700.009785 273.681794 701.403064 274.258909 702.855641 274.258909 
z
" clip-path="url(#pbee2a72364)" style="fill: #1f77b4; fill-opacity: 0.3; stroke: #1f77b4; stroke-opacity: 0.3"/>
    <path d="M 712.634392 269.364544 
C 716.869346 269.364544 720.931417 267.681979 723.925982 264.687415 
C 726.920547 261.69285 728.603112 257.630779 728.603112 253.395825 
C 728.603112 249.160871 726.920547 245.0988 723.925982 242.104235 
C 720.931417 239.109671 716.869346 237.427105 712.634392 237.427105 
C 708.399438 237.427105 704.337367 239.109671 701.342802 242.104235 
C 698.348238 245.0988 696.665673 249.160871 696.665673 253.395825 
C 696.665673 257.630779 698.348238 261.69285 701.342802 264.687415 
C 704.337367 267.681979 708.399438 269.364544 712.634392 269.364544 
z
" clip-path="url(#pbee2a72364)" style="fill: #1f77b4; fill-opacity: 0.3; stroke: #1f77b4; stroke-opacity: 0.3"/>
    <path d="M 722.413143 257.52159 
C 724.467398 257.52159 726.437792 256.705426 727.890369 255.252848 
C 729.342946 253.800271 730.15911 251.829877 730.15911 249.775623 
C 730.15911 247.721369 729.342946 245.750975 727.890369 244.298397 
C 726.437792 242.84582 724.467398 242.029656 722.413143 242.029656 
C 720.358889 242.029656 718.388495 242.84582 716.935918 244.298397 
C 715.483341 245.750975 714.667177 247.721369 714.667177 249.775623 
C 714.667177 251.829877 715.483341 253.800271 716.935918 255.252848 
C 718.388495 256.705426 720.358889 257.52159 722.413143 257.52159 
z
" clip-path="url(#pbee2a72364)" style="fill: #1f77b4; fill-opacity: 0.3; stroke: #1f77b4; stroke-opacity: 0.3"/>
    <path d="M 732.191895 253.068396 
C 735.385363 253.068396 738.448465 251.799618 740.706588 249.541495 
C 742.964711 247.283372 744.233489 244.22027 744.233489 241.026801 
C 744.233489 237.833333 742.964711 234.770231 740.706588 232.512108 
C 738.448465 230.253985 735.385363 228.985207 732.191895 228.985207 
C 728.998427 228.985207 725.935325 230.253985 723.677202 232.512108 
C 721.419079 234.770231 720.1503 237.833333 720.1503 241.026801 
C 720.1503 244.22027 721.419079 247.283372 723.677202 249.541495 
C 725.935325 251.799618 728.998427 253.068396 732.191895 253.068396 
z
" clip-path="url(#pbee2a72364)" style="fill: #1f77b4; fill-opacity: 0.3; stroke: #1f77b4; stroke-opacity: 0.3"/>
    <path d="M 741.970646 244.366158 
C 745.136465 244.366158 748.173046 243.108365 750.411618 240.869793 
C 752.65019 238.631221 753.907983 235.59464 753.907983 232.428822 
C 753.907983 229.263003 752.65019 226.226422 750.411618 223.98785 
C 748.173046 221.749278 745.136465 220.491485 741.970646 220.491485 
C 738.804828 220.491485 735.768247 221.749278 733.529675 223.98785 
C 731.291103 226.226422 730.03331 229.263003 730.03331 232.428822 
C 730.03331 235.59464 731.291103 238.631221 733.529675 240.869793 
C 735.768247 243.108365 738.804828 244.366158 741.970646 244.366158 
z
" clip-path="url(#pbee2a72364)" style="fill: #1f77b4; fill-opacity: 0.3; stroke: #1f77b4; stroke-opacity: 0.3"/>
    <path d="M 751.749398 226.582344 
C 757.359556 226.582344 762.740692 224.353404 766.707673 220.386423 
C 770.674654 216.419442 772.903593 211.038306 772.903593 205.428148 
C 772.903593 199.81799 770.674654 194.436854 766.707673 190.469873 
C 762.740692 186.502892 757.359556 184.273952 751.749398 184.273952 
C 746.139239 184.273952 740.758103 186.502892 736.791122 190.469873 
C 732.824141 194.436854 730.595202 199.81799 730.595202 205.428148 
C 730.595202 211.038306 732.824141 216.419442 736.791122 220.386423 
C 740.758103 224.353404 746.139239 226.582344 751.749398 226.582344 
z
" clip-path="url(#pbee2a72364)" style="fill: #1f77b4; fill-opacity: 0.3; stroke: #1f77b4; stroke-opacity: 0.3"/>
    <path d="M 761.528149 204.008948 
C 766.272246 204.008948 770.822676 202.124098 774.17726 198.769515 
C 777.531843 195.414931 779.416693 190.864501 779.416693 186.120404 
C 779.416693 181.376307 777.531843 176.825877 774.17726 173.471293 
C 770.822676 170.11671 766.272246 168.23186 761.528149 168.23186 
C 756.784052 168.23186 752.233622 170.11671 748.879038 173.471293 
C 745.524455 176.825877 743.639605 181.376307 743.639605 186.120404 
C 743.639605 190.864501 745.524455 195.414931 748.879038 198.769515 
C 752.233622 202.124098 756.784052 204.008948 761.528149 204.008948 
z
" clip-path="url(#pbee2a72364)" style="fill: #1f77b4; fill-opacity: 0.3; stroke: #1f77b4; stroke-opacity: 0.3"/>
    <path d="M 771.3069 190.146435 
C 773.134687 190.146435 774.887857 189.420248 776.180298 188.127808 
C 777.472738 186.835368 778.198925 185.082197 778.198925 183.254411 
C 778.198925 181.426625 777.472738 179.673454 776.180298 178.381014 
C 774.887857 177.088574 773.134687 176.362386 771.3069 176.362386 
C 769.479114 176.362386 767.725943 177.088574 766.433503 178.381014 
C 765.141063 179.673454 764.414876 181.426625 764.414876 183.254411 
C 764.414876 185.082197 765.141063 186.835368 766.433503 188.127808 
C 767.725943 189.420248 769.479114 190.146435 771.3069 190.146435 
z
" clip-path="url(#pbee2a72364)" style="fill: #1f77b4; fill-opacity: 0.3; stroke: #1f77b4; stroke-opacity: 0.3"/>
    <path d="M 781.085652 187.397442 
C 783.3045 187.397442 785.432769 186.515884 787.001731 184.946922 
C 788.570694 183.377959 789.452252 181.24969 789.452252 179.030842 
C 789.452252 176.811993 788.570694 174.683725 787.001731 173.114762 
C 785.432769 171.545799 783.3045 170.664241 781.085652 170.664241 
C 778.866803 170.664241 776.738535 171.545799 775.169572 173.114762 
C 773.600609 174.683725 772.719051 176.811993 772.719051 179.030842 
C 772.719051 181.24969 773.600609 183.377959 775.169572 184.946922 
C 776.738535 186.515884 778.866803 187.397442 781.085652 187.397442 
z
" clip-path="url(#pbee2a72364)" style="fill: #1f77b4; fill-opacity: 0.3; stroke: #1f77b4; stroke-opacity: 0.3"/>
    <path d="M 790.864403 180.041967 
C 794.972912 180.041967 798.9137 178.409639 801.818854 175.504485 
C 804.724009 172.59933 806.356336 168.658542 806.356336 164.550034 
C 806.356336 160.441525 804.724009 156.500737 801.818854 153.595583 
C 798.9137 150.690428 794.972912 149.0581 790.864403 149.0581 
C 786.755894 149.0581 782.815106 150.690428 779.909952 153.595583 
C 777.004798 156.500737 775.37247 160.441525 775.37247 164.550034 
C 775.37247 168.658542 777.004798 172.59933 779.909952 175.504485 
C 782.815106 178.409639 786.755894 180.041967 790.864403 180.041967 
z
" clip-path="url(#pbee2a72364)" style="fill: #1f77b4; fill-opacity: 0.3; stroke: #1f77b4; stroke-opacity: 0.3"/>
    <path d="M 800.643154 168.041616 
C 801.96917 168.041616 803.241054 167.514785 804.178688 166.57715 
C 805.116323 165.639516 805.643154 164.367632 805.643154 163.041616 
C 805.643154 161.715601 805.116323 160.443717 804.178688 159.506082 
C 803.241054 158.568448 801.96917 158.041616 800.643154 158.041616 
C 799.317139 158.041616 798.045255 158.568448 797.107621 159.506082 
C 796.169986 160.443717 795.643154 161.715601 795.643154 163.041616 
C 795.643154 164.367632 796.169986 165.639516 797.107621 166.57715 
C 798.045255 167.514785 799.317139 168.041616 800.643154 168.041616 
z
" clip-path="url(#pbee2a72364)" style="fill: #1f77b4; fill-opacity: 0.3; stroke: #1f77b4; stroke-opacity: 0.3"/>
    <path d="M 810.421906 163.768829 
C 814.615135 163.768829 818.637185 162.102842 821.602246 159.137781 
C 824.567306 156.17272 826.233294 152.15067 826.233294 147.957441 
C 826.233294 143.764212 824.567306 139.742162 821.602246 136.777101 
C 818.637185 133.81204 814.615135 132.146053 810.421906 132.146053 
C 806.228677 132.146053 802.206627 133.81204 799.241566 136.777101 
C 796.276505 139.742162 794.610518 143.764212 794.610518 147.957441 
C 794.610518 152.15067 796.276505 156.17272 799.241566 159.137781 
C 802.206627 162.102842 806.228677 163.768829 810.421906 163.768829 
z
" clip-path="url(#pbee2a72364)" style="fill: #1f77b4; fill-opacity: 0.3; stroke: #1f77b4; stroke-opacity: 0.3"/>
    <path d="M 820.200657 151.430937 
C 823.282039 151.430937 826.23763 150.206691 828.416496 148.027825 
C 830.595361 145.848959 831.819607 142.893368 831.819607 139.811987 
C 831.819607 136.730605 830.595361 133.775014 828.416496 131.596148 
C 826.23763 129.417282 823.282039 128.193036 820.200657 128.193036 
C 817.119276 128.193036 814.163685 129.417282 811.984819 131.596148 
C 809.805953 133.775014 808.581707 136.730605 808.581707 139.811987 
C 808.581707 142.893368 809.805953 145.848959 811.984819 148.027825 
C 814.163685 150.206691 817.119276 151.430937 820.200657 151.430937 
z
" clip-path="url(#pbee2a72364)" style="fill: #1f77b4; fill-opacity: 0.3; stroke: #1f77b4; stroke-opacity: 0.3"/>
    <path d="M 829.979409 142.098074 
C 830.705697 142.098074 831.402337 141.809517 831.9159 141.295953 
C 832.429464 140.782389 832.718021 140.08575 832.718021 139.359461 
C 832.718021 138.633173 832.429464 137.936533 831.9159 137.42297 
C 831.402337 136.909406 830.705697 136.620848 829.979409 136.620848 
C 829.25312 136.620848 828.55648 136.909406 828.042917 137.42297 
C 827.529353 137.936533 827.240796 138.633173 827.240796 139.359461 
C 827.240796 140.08575 827.529353 140.782389 828.042917 141.295953 
C 828.55648 141.809517 829.25312 142.098074 829.979409 142.098074 
z
" clip-path="url(#pbee2a72364)" style="fill: #1f77b4; fill-opacity: 0.3; stroke: #1f77b4; stroke-opacity: 0.3"/>
    <path d="M 839.75816 142.944246 
C 841.148897 142.944246 842.48286 142.391701 843.466259 141.408301 
C 844.449659 140.424902 845.002204 139.090939 845.002204 137.700202 
C 845.002204 136.309465 844.449659 134.975502 843.466259 133.992103 
C 842.48286 133.008703 841.148897 132.456158 839.75816 132.456158 
C 838.367423 132.456158 837.03346 133.008703 836.050061 133.992103 
C 835.066661 134.975502 834.514116 136.309465 834.514116 137.700202 
C 834.514116 139.090939 835.066661 140.424902 836.050061 141.408301 
C 837.03346 142.391701 838.367423 142.944246 839.75816 142.944246 
z
" clip-path="url(#pbee2a72364)" style="fill: #1f77b4; fill-opacity: 0.3; stroke: #1f77b4; stroke-opacity: 0.3"/>
    <path d="M 849.536911 141.754435 
C 851.41218 141.754435 853.210896 141.009383 854.536911 139.683367 
C 855.862927 138.357352 856.607979 136.558636 856.607979 134.683367 
C 856.607979 132.808098 855.862927 131.009383 854.536911 129.683367 
C 853.210896 128.357352 851.41218 127.612299 849.536911 127.612299 
C 847.661642 127.612299 845.862927 128.357352 844.536911 129.683367 
C 843.210896 131.009383 842.465843 132.808098 842.465843 134.683367 
C 842.465843 136.558636 843.210896 138.357352 844.536911 139.683367 
C 845.862927 141.009383 847.661642 141.754435 849.536911 141.754435 
z
" clip-path="url(#pbee2a72364)" style="fill: #1f77b4; fill-opacity: 0.3; stroke: #1f77b4; stroke-opacity: 0.3"/>
    <path d="M 859.315663 138.63826 
C 861.044575 138.63826 862.702909 137.951355 863.925435 136.728829 
C 865.147961 135.506304 865.834865 133.84797 865.834865 132.119057 
C 865.834865 130.390145 865.147961 128.731811 863.925435 127.509285 
C 862.702909 126.286759 861.044575 125.599855 859.315663 125.599855 
C 857.58675 125.599855 855.928416 126.286759 854.70589 127.509285 
C 853.483365 128.731811 852.79646 130.390145 852.79646 132.119057 
C 852.79646 133.84797 853.483365 135.506304 854.70589 136.728829 
C 855.928416 137.951355 857.58675 138.63826 859.315663 138.63826 
z
" clip-path="url(#pbee2a72364)" style="fill: #1f77b4; fill-opacity: 0.3; stroke: #1f77b4; stroke-opacity: 0.3"/>
    <path d="M 869.094414 135.504898 
C 870.352383 135.504898 871.558998 135.005102 872.448516 134.115583 
C 873.338034 133.226065 873.837831 132.01945 873.837831 130.761481 
C 873.837831 129.503513 873.338034 128.296898 872.448516 127.40738 
C 871.558998 126.517861 870.352383 126.018065 869.094414 126.018065 
C 867.836445 126.018065 866.62983 126.517861 865.740312 127.40738 
C 864.850794 128.296898 864.350998 129.503513 864.350998 130.761481 
C 864.350998 132.01945 864.850794 133.226065 865.740312 134.115583 
C 866.62983 135.005102 867.836445 135.504898 869.094414 135.504898 
z
" clip-path="url(#pbee2a72364)" style="fill: #1f77b4; fill-opacity: 0.3; stroke: #1f77b4; stroke-opacity: 0.3"/>
    <path d="M 878.873165 134.716374 
C 880.602078 134.716374 882.260412 134.02947 883.482938 132.806944 
C 884.705464 131.584418 885.392368 129.926084 885.392368 128.197172 
C 885.392368 126.468259 884.705464 124.809925 883.482938 123.587399 
C 882.260412 122.364874 880.602078 121.677969 878.873165 121.677969 
C 877.144253 121.677969 875.485919 122.364874 874.263393 123.587399 
C 873.040867 124.809925 872.353963 126.468259 872.353963 128.197172 
C 872.353963 129.926084 873.040867 131.584418 874.263393 132.806944 
C 875.485919 134.02947 877.144253 134.716374 878.873165 134.716374 
z
" clip-path="url(#pbee2a72364)" style="fill: #1f77b4; fill-opacity: 0.3; stroke: #1f77b4; stroke-opacity: 0.3"/>
    <path d="M 888.651917 132.314508 
C 891.023965 132.314508 893.29918 131.372083 894.976472 129.694791 
C 896.653764 128.017499 897.596189 125.742284 897.596189 123.370236 
C 897.596189 120.998187 896.653764 118.722972 894.976472 117.04568 
C 893.29918 115.368389 891.023965 114.425964 888.651917 114.425964 
C 886.279868 114.425964 884.004653 115.368389 882.327361 117.04568 
C 880.65007 118.722972 879.707645 120.998187 879.707645 123.370236 
C 879.707645 125.742284 880.65007 128.017499 882.327361 129.694791 
C 884.004653 131.372083 886.279868 132.314508 888.651917 132.314508 
z
" clip-path="url(#pbee2a72364)" style="fill: #1f77b4; fill-opacity: 0.3; stroke: #1f77b4; stroke-opacity: 0.3"/>
    <path d="M 898.430668 126.151561 
C 899.368303 126.151561 900.26766 125.779035 900.930668 125.116027 
C 901.593676 124.453019 901.966202 123.553661 901.966202 122.616027 
C 901.966202 121.678392 901.593676 120.779035 900.930668 120.116027 
C 900.26766 119.453019 899.368303 119.080493 898.430668 119.080493 
C 897.493034 119.080493 896.593676 119.453019 895.930668 120.116027 
C 895.26766 120.779035 894.895134 121.678392 894.895134 122.616027 
C 894.895134 123.553661 895.26766 124.453019 895.930668 125.116027 
C 896.593676 125.779035 897.493034 126.151561 898.430668 126.151561 
z
" clip-path="url(#pbee2a72364)" style="fill: #1f77b4; fill-opacity: 0.3; stroke: #1f77b4; stroke-opacity: 0.3"/>
    <path d="M 908.209419 124.046324 
C 908.628742 124.046324 909.030947 123.879725 909.327453 123.583219 
C 909.62396 123.286713 909.790558 122.884508 909.790558 122.465185 
C 909.790558 122.045862 909.62396 121.643657 909.327453 121.347151 
C 909.030947 121.050645 908.628742 120.884046 908.209419 120.884046 
C 907.790097 120.884046 907.387892 121.050645 907.091386 121.347151 
C 906.794879 121.643657 906.628281 122.045862 906.628281 122.465185 
C 906.628281 122.884508 906.794879 123.286713 907.091386 123.583219 
C 907.387892 123.879725 907.790097 124.046324 908.209419 124.046324 
z
" clip-path="url(#pbee2a72364)" style="fill: #1f77b4; fill-opacity: 0.3; stroke: #1f77b4; stroke-opacity: 0.3"/>
    <path d="M 917.988171 126.420078 
C 919.717084 126.420078 921.375417 125.733174 922.597943 124.510648 
C 923.820469 123.288122 924.507373 121.629788 924.507373 119.900875 
C 924.507373 118.171963 923.820469 116.513629 922.597943 115.291103 
C 921.375417 114.068577 919.717084 113.381673 917.988171 113.381673 
C 916.259258 113.381673 914.600925 114.068577 913.378399 115.291103 
C 912.155873 116.513629 911.468968 118.171963 911.468968 119.900875 
C 911.468968 121.629788 912.155873 123.288122 913.378399 124.510648 
C 914.600925 125.733174 916.259258 126.420078 917.988171 126.420078 
z
" clip-path="url(#pbee2a72364)" style="fill: #1f77b4; fill-opacity: 0.3; stroke: #1f77b4; stroke-opacity: 0.3"/>
    <path d="M 927.766922 124.041158 
C 930.025045 124.041158 932.190985 123.143996 933.78772 121.547262 
C 935.384454 119.950528 936.281615 117.784588 936.281615 115.526465 
C 936.281615 113.268342 935.384454 111.102401 933.78772 109.505667 
C 932.190985 107.908933 930.025045 107.011771 927.766922 107.011771 
C 925.508799 107.011771 923.342859 107.908933 921.746125 109.505667 
C 920.149391 111.102401 919.252229 113.268342 919.252229 115.526465 
C 919.252229 117.784588 920.149391 119.950528 921.746125 121.547262 
C 923.342859 123.143996 925.508799 124.041158 927.766922 124.041158 
z
" clip-path="url(#pbee2a72364)" style="fill: #1f77b4; fill-opacity: 0.3; stroke: #1f77b4; stroke-opacity: 0.3"/>
    <path d="M 937.545674 119.661115 
C 939.642288 119.661115 941.653313 118.828121 943.135844 117.345591 
C 944.618374 115.86306 945.451368 113.852035 945.451368 111.755421 
C 945.451368 109.658806 944.618374 107.647781 943.135844 106.165251 
C 941.653313 104.682721 939.642288 103.849727 937.545674 103.849727 
C 935.449059 103.849727 933.438034 104.682721 931.955504 106.165251 
C 930.472973 107.647781 929.639979 109.658806 929.639979 111.755421 
C 929.639979 113.852035 930.472973 115.86306 931.955504 117.345591 
C 933.438034 118.828121 935.449059 119.661115 937.545674 119.661115 
z
" clip-path="url(#pbee2a72364)" style="fill: #1f77b4; fill-opacity: 0.3; stroke: #1f77b4; stroke-opacity: 0.3"/>
    <path d="M 947.324425 115.000715 
C 950.545305 115.000715 953.634701 113.721046 955.912207 111.44354 
C 958.189713 109.166033 959.469383 106.076638 959.469383 102.855758 
C 959.469383 99.634877 958.189713 96.545482 955.912207 94.267976 
C 953.634701 91.990469 950.545305 90.7108 947.324425 90.7108 
C 944.103545 90.7108 941.014149 91.990469 938.736643 94.267976 
C 936.459137 96.545482 935.179467 99.634877 935.179467 102.855758 
C 935.179467 106.076638 936.459137 109.166033 938.736643 111.44354 
C 941.014149 113.721046 944.103545 115.000715 947.324425 115.000715 
z
" clip-path="url(#pbee2a72364)" style="fill: #1f77b4; fill-opacity: 0.3; stroke: #1f77b4; stroke-opacity: 0.3"/>
    <path d="M 957.103176 106.49401 
C 960.068237 106.49401 962.912256 105.315979 965.00887 103.219364 
C 967.105485 101.12275 968.283516 98.278731 968.283516 95.31367 
C 968.283516 92.348609 967.105485 89.50459 965.00887 87.407976 
C 962.912256 85.311361 960.068237 84.13333 957.103176 84.13333 
C 954.138116 84.13333 951.294097 85.311361 949.197482 87.407976 
C 947.100868 89.50459 945.922836 92.348609 945.922836 95.31367 
C 945.922836 98.278731 947.100868 101.12275 949.197482 103.219364 
C 951.294097 105.315979 954.138116 106.49401 957.103176 106.49401 
z
" clip-path="url(#pbee2a72364)" style="fill: #1f77b4; fill-opacity: 0.3; stroke: #1f77b4; stroke-opacity: 0.3"/>
    <path d="M 966.881928 99.41135 
C 968.848727 99.41135 970.735235 98.629933 972.125972 97.239196 
C 973.516709 95.848459 974.298126 93.96195 974.298126 91.995152 
C 974.298126 90.028353 973.516709 88.141844 972.125972 86.751107 
C 970.735235 85.36037 968.848727 84.578953 966.881928 84.578953 
C 964.915129 84.578953 963.02862 85.36037 961.637883 86.751107 
C 960.247147 88.141844 959.465729 90.028353 959.465729 91.995152 
C 959.465729 93.96195 960.247147 95.848459 961.637883 97.239196 
C 963.02862 98.629933 964.915129 99.41135 966.881928 99.41135 
z
" clip-path="url(#pbee2a72364)" style="fill: #1f77b4; fill-opacity: 0.3; stroke: #1f77b4; stroke-opacity: 0.3"/>
    <path d="M 976.660679 93.929536 
C 977.253691 93.929536 977.822495 93.69393 978.241818 93.274607 
C 978.661141 92.855284 978.896747 92.28648 978.896747 91.693468 
C 978.896747 91.100456 978.661141 90.531652 978.241818 90.112329 
C 977.822495 89.693006 977.253691 89.4574 976.660679 89.4574 
C 976.067667 89.4574 975.498863 89.693006 975.07954 90.112329 
C 974.660217 90.531652 974.424611 91.100456 974.424611 91.693468 
C 974.424611 92.28648 974.660217 92.855284 975.07954 93.274607 
C 975.498863 93.69393 976.067667 93.929536 976.660679 93.929536 
z
" clip-path="url(#pbee2a72364)" style="fill: #1f77b4; fill-opacity: 0.3; stroke: #1f77b4; stroke-opacity: 0.3"/>
    <path d="M 986.43943 95.278253 
C 987.830167 95.278253 989.16413 94.725707 990.14753 93.742308 
C 991.130929 92.758909 991.683475 91.424946 991.683475 90.034209 
C 991.683475 88.643472 991.130929 87.309509 990.14753 86.32611 
C 989.16413 85.34271 987.830167 84.790165 986.43943 84.790165 
C 985.048694 84.790165 983.714731 85.34271 982.731331 86.32611 
C 981.747932 87.309509 981.195386 88.643472 981.195386 90.034209 
C 981.195386 91.424946 981.747932 92.758909 982.731331 93.742308 
C 983.714731 94.725707 985.048694 95.278253 986.43943 95.278253 
z
" clip-path="url(#pbee2a72364)" style="fill: #1f77b4; fill-opacity: 0.3; stroke: #1f77b4; stroke-opacity: 0.3"/>
    <path d="M 996.218182 92.815534 
C 997.155816 92.815534 998.055174 92.443008 998.718182 91.78 
C 999.38119 91.116992 999.753716 90.217635 999.753716 89.28 
C 999.753716 88.342365 999.38119 87.443008 998.718182 86.78 
C 998.055174 86.116992 997.155816 85.744466 996.218182 85.744466 
C 995.280547 85.744466 994.38119 86.116992 993.718182 86.78 
C 993.055174 87.443008 992.682648 88.342365 992.682648 89.28 
C 992.682648 90.217635 993.055174 91.116992 993.718182 91.78 
C 994.38119 92.443008 995.280547 92.815534 996.218182 92.815534 
z
" clip-path="url(#pbee2a72364)" style="fill: #1f77b4; fill-opacity: 0.3; stroke: #1f77b4; stroke-opacity: 0.3"/>
   </g>
   <g id="matplotlib.axis_1">
    <g id="xtick_1">
     <g id="line2d_1">
      <defs>
       <path id="mfa2af41bee" d="M 0 0 
L 0 3.5 
" style="stroke: #000000; stroke-width: 0.8"/>
      </defs>
      <g>
       <use xlink:href="#mfa2af41bee" x="184.581818" y="512.64" style="stroke: #000000; stroke-width: 0.8"/>
      </g>
     </g>
     <g id="text_1">
      <!-- 2025-01-01 -->
      <g transform="translate(155.524006 527.238438) scale(0.1 -0.1)">
       <defs>
        <path id="DejaVuSans-32" d="M 1228 531 
L 3431 531 
L 3431 0 
L 469 0 
L 469 531 
Q 828 903 1448 1529 
Q 2069 2156 2228 2338 
Q 2531 2678 2651 2914 
Q 2772 3150 2772 3378 
Q 2772 3750 2511 3984 
Q 2250 4219 1831 4219 
Q 1534 4219 1204 4116 
Q 875 4013 500 3803 
L 500 4441 
Q 881 4594 1212 4672 
Q 1544 4750 1819 4750 
Q 2544 4750 2975 4387 
Q 3406 4025 3406 3419 
Q 3406 3131 3298 2873 
Q 3191 2616 2906 2266 
Q 2828 2175 2409 1742 
Q 1991 1309 1228 531 
z
" transform="scale(0.015625)"/>
        <path id="DejaVuSans-30" d="M 2034 4250 
Q 1547 4250 1301 3770 
Q 1056 3291 1056 2328 
Q 1056 1369 1301 889 
Q 1547 409 2034 409 
Q 2525 409 2770 889 
Q 3016 1369 3016 2328 
Q 3016 3291 2770 3770 
Q 2525 4250 2034 4250 
z
M 2034 4750 
Q 2819 4750 3233 4129 
Q 3647 3509 3647 2328 
Q 3647 1150 3233 529 
Q 2819 -91 2034 -91 
Q 1250 -91 836 529 
Q 422 1150 422 2328 
Q 422 3509 836 4129 
Q 1250 4750 2034 4750 
z
" transform="scale(0.015625)"/>
        <path id="DejaVuSans-35" d="M 691 4666 
L 3169 4666 
L 3169 4134 
L 1269 4134 
L 1269 2991 
Q 1406 3038 1543 3061 
Q 1681 3084 1819 3084 
Q 2600 3084 3056 2656 
Q 3513 2228 3513 1497 
Q 3513 744 3044 326 
Q 2575 -91 1722 -91 
Q 1428 -91 1123 -41 
Q 819 9 494 109 
L 494 744 
Q 775 591 1075 516 
Q 1375 441 1709 441 
Q 2250 441 2565 725 
Q 2881 1009 2881 1497 
Q 2881 1984 2565 2268 
Q 2250 2553 1709 2553 
Q 1456 2553 1204 2497 
Q 953 2441 691 2322 
L 691 4666 
z
" transform="scale(0.015625)"/>
        <path id="DejaVuSans-2d" d="M 313 2009 
L 1997 2009 
L 1997 1497 
L 313 1497 
L 313 2009 
z
" transform="scale(0.015625)"/>
        <path id="DejaVuSans-31" d="M 794 531 
L 1825 531 
L 1825 4091 
L 703 3866 
L 703 4441 
L 1819 4666 
L 2450 4666 
L 2450 531 
L 3481 531 
L 3481 0 
L 794 0 
L 794 531 
z
" transform="scale(0.015625)"/>
       </defs>
       <use xlink:href="#DejaVuSans-32"/>
       <use xlink:href="#DejaVuSans-30" x="63.623047"/>
       <use xlink:href="#DejaVuSans-32" x="127.246094"/>
       <use xlink:href="#DejaVuSans-35" x="190.869141"/>
       <use xlink:href="#DejaVuSans-2d" x="254.492188"/>
       <use xlink:href="#DejaVuSans-30" x="290.576172"/>
       <use xlink:href="#DejaVuSans-31" x="354.199219"/>
       <use xlink:href="#DejaVuSans-2d" x="417.822266"/>
       <use xlink:href="#DejaVuSans-30" x="453.90625"/>
       <use xlink:href="#DejaVuSans-31" x="517.529297"/>
      </g>
     </g>
    </g>
    <g id="xtick_2">
     <g id="line2d_2">
      <g>
       <use xlink:href="#mfa2af41bee" x="321.484337" y="512.64" style="stroke: #000000; stroke-width: 0.8"/>
      </g>
     </g>
     <g id="text_2">
      <!-- 2025-01-15 -->
      <g transform="translate(292.426525 527.238438) scale(0.1 -0.1)">
       <use xlink:href="#DejaVuSans-32"/>
       <use xlink:href="#DejaVuSans-30" x="63.623047"/>
       <use xlink:href="#DejaVuSans-32" x="127.246094"/>
       <use xlink:href="#DejaVuSans-35" x="190.869141"/>
       <use xlink:href="#DejaVuSans-2d" x="254.492188"/>
       <use xlink:href="#DejaVuSans-30" x="290.576172"/>
       <use xlink:href="#DejaVuSans-31" x="354.199219"/>
       <use xlink:href="#DejaVuSans-2d" x="417.822266"/>
       <use xlink:href="#DejaVuSans-31" x="453.90625"/>
       <use xlink:href="#DejaVuSans-35" x="517.529297"/>
      </g>
     </g>
    </g>
    <g id="xtick_3">
     <g id="line2d_3">
      <g>
       <use xlink:href="#mfa2af41bee" x="487.723111" y="512.64" style="stroke: #000000; stroke-width: 0.8"/>
      </g>
     </g>
     <g id="text_3">
      <!-- 2025-02-01 -->
      <g transform="translate(458.665298 527.238438) scale(0.1 -0.1)">
       <use xlink:href="#DejaVuSans-32"/>
       <use xlink:href="#DejaVuSans-30" x="63.623047"/>
       <use xlink:href="#DejaVuSans-32" x="127.246094"/>
       <use xlink:href="#DejaVuSans-35" x="190.869141"/>
       <use xlink:href="#DejaVuSans-2d" x="254.492188"/>
       <use xlink:href="#DejaVuSans-30" x="290.576172"/>
       <use xlink:href="#DejaVuSans-32" x="354.199219"/>
       <use xlink:href="#DejaVuSans-2d" x="417.822266"/>
       <use xlink:href="#DejaVuSans-30" x="453.90625"/>
       <use xlink:href="#DejaVuSans-31" x="517.529297"/>
      </g>
     </g>
    </g>
    <g id="xtick_4">
     <g id="line2d_4">
      <g>
       <use xlink:href="#mfa2af41bee" x="624.62563" y="512.64" style="stroke: #000000; stroke-width: 0.8"/>
      </g>
     </g>
     <g id="text_4">
      <!-- 2025-02-15 -->
      <g transform="translate(595.567817 527.238438) scale(0.1 -0.1)">
       <use xlink:href="#DejaVuSans-32"/>
       <use xlink:href="#DejaVuSans-30" x="63.623047"/>
       <use xlink:href="#DejaVuSans-32" x="127.246094"/>
       <use xlink:href="#DejaVuSans-35" x="190.869141"/>
       <use xlink:href="#DejaVuSans-2d" x="254.492188"/>
       <use xlink:href="#DejaVuSans-30" x="290.576172"/>
       <use xlink:href="#DejaVuSans-32" x="354.199219"/>
       <use xlink:href="#DejaVuSans-2d" x="417.822266"/>
       <use xlink:href="#DejaVuSans-31" x="453.90625"/>
       <use xlink:href="#DejaVuSans-35" x="517.529297"/>
      </g>
     </g>
    </g>
    <g id="xtick_5">
     <g id="line2d_5">
      <g>
       <use xlink:href="#mfa2af41bee" x="761.528149" y="512.64" style="stroke: #000000; stroke-width: 0.8"/>
      </g>
     </g>
     <g id="text_5">
      <!-- 2025-03-01 -->
      <g transform="translate(732.470336 527.238438) scale(0.1 -0.1)">
       <defs>
        <path id="DejaVuSans-33" d="M 2597 2516 
Q 3050 2419 3304 2112 
Q 3559 1806 3559 1356 
Q 3559 666 3084 287 
Q 2609 -91 1734 -91 
Q 1441 -91 1130 -33 
Q 819 25 488 141 
L 488 750 
Q 750 597 1062 519 
Q 1375 441 1716 441 
Q 2309 441 2620 675 
Q 2931 909 2931 1356 
Q 2931 1769 2642 2001 
Q 2353 2234 1838 2234 
L 1294 2234 
L 1294 2753 
L 1863 2753 
Q 2328 2753 2575 2939 
Q 2822 3125 2822 3475 
Q 2822 3834 2567 4026 
Q 2313 4219 1838 4219 
Q 1578 4219 1281 4162 
Q 984 4106 628 3988 
L 628 4550 
Q 988 4650 1302 4700 
Q 1616 4750 1894 4750 
Q 2613 4750 3031 4423 
Q 3450 4097 3450 3541 
Q 3450 3153 3228 2886 
Q 3006 2619 2597 2516 
z
" transform="scale(0.015625)"/>
       </defs>
       <use xlink:href="#DejaVuSans-32"/>
       <use xlink:href="#DejaVuSans-30" x="63.623047"/>
       <use xlink:href="#DejaVuSans-32" x="127.246094"/>
       <use xlink:href="#DejaVuSans-35" x="190.869141"/>
       <use xlink:href="#DejaVuSans-2d" x="254.492188"/>
       <use xlink:href="#DejaVuSans-30" x="290.576172"/>
       <use xlink:href="#DejaVuSans-33" x="354.199219"/>
       <use xlink:href="#DejaVuSans-2d" x="417.822266"/>
       <use xlink:href="#DejaVuSans-30" x="453.90625"/>
       <use xlink:href="#DejaVuSans-31" x="517.529297"/>
      </g>
     </g>
    </g>
    <g id="xtick_6">
     <g id="line2d_6">
      <g>
       <use xlink:href="#mfa2af41bee" x="898.430668" y="512.64" style="stroke: #000000; stroke-width: 0.8"/>
      </g>
     </g>
     <g id="text_6">
      <!-- 2025-03-15 -->
      <g transform="translate(869.372856 527.238438) scale(0.1 -0.1)">
       <use xlink:href="#DejaVuSans-32"/>
       <use xlink:href="#DejaVuSans-30" x="63.623047"/>
       <use xlink:href="#DejaVuSans-32" x="127.246094"/>
       <use xlink:href="#DejaVuSans-35" x="190.869141"/>
       <use xlink:href="#DejaVuSans-2d" x="254.492188"/>
       <use xlink:href="#DejaVuSans-30" x="290.576172"/>
       <use xlink:href="#DejaVuSans-33" x="354.199219"/>
       <use xlink:href="#DejaVuSans-2d" x="417.822266"/>
       <use xlink:href="#DejaVuSans-31" x="453.90625"/>
       <use xlink:href="#DejaVuSans-35" x="517.529297"/>
      </g>
     </g>
    </g>
   </g>
   <g id="matplotlib.axis_2">
    <g id="ytick_1">
     <g id="line2d_7">
      <defs>
       <path id="md5e919df63" d="M 0 0 
L -3.5 0 
" style="stroke: #000000; stroke-width: 0.8"/>
      </defs>
      <g>
       <use xlink:href="#md5e919df63" x="144" y="446.774949" style="stroke: #000000; stroke-width: 0.8"/>
      </g>
     </g>
     <g id="text_7">
      <!-- 8500 -->
      <g transform="translate(111.55 450.574168) scale(0.1 -0.1)">
       <defs>
        <path id="DejaVuSans-38" d="M 2034 2216 
Q 1584 2216 1326 1975 
Q 1069 1734 1069 1313 
Q 1069 891 1326 650 
Q 1584 409 2034 409 
Q 2484 409 2743 651 
Q 3003 894 3003 1313 
Q 3003 1734 2745 1975 
Q 2488 2216 2034 2216 
z
M 1403 2484 
Q 997 2584 770 2862 
Q 544 3141 544 3541 
Q 544 4100 942 4425 
Q 1341 4750 2034 4750 
Q 2731 4750 3128 4425 
Q 3525 4100 3525 3541 
Q 3525 3141 3298 2862 
Q 3072 2584 2669 2484 
Q 3125 2378 3379 2068 
Q 3634 1759 3634 1313 
Q 3634 634 3220 271 
Q 2806 -91 2034 -91 
Q 1263 -91 848 271 
Q 434 634 434 1313 
Q 434 1759 690 2068 
Q 947 2378 1403 2484 
z
M 1172 3481 
Q 1172 3119 1398 2916 
Q 1625 2713 2034 2713 
Q 2441 2713 2670 2916 
Q 2900 3119 2900 3481 
Q 2900 3844 2670 4047 
Q 2441 4250 2034 4250 
Q 1625 4250 1398 4047 
Q 1172 3844 1172 3481 
z
" transform="scale(0.015625)"/>
       </defs>
       <use xlink:href="#DejaVuSans-38"/>
       <use xlink:href="#DejaVuSans-35" x="63.623047"/>
       <use xlink:href="#DejaVuSans-30" x="127.246094"/>
       <use xlink:href="#DejaVuSans-30" x="190.869141"/>
      </g>
     </g>
    </g>
    <g id="ytick_2">
     <g id="line2d_8">
      <g>
       <use xlink:href="#md5e919df63" x="144" y="371.354074" style="stroke: #000000; stroke-width: 0.8"/>
      </g>
     </g>
     <g id="text_8">
      <!-- 9000 -->
      <g transform="translate(111.55 375.153293) scale(0.1 -0.1)">
       <defs>
        <path id="DejaVuSans-39" d="M 703 97 
L 703 672 
Q 941 559 1184 500 
Q 1428 441 1663 441 
Q 2288 441 2617 861 
Q 2947 1281 2994 2138 
Q 2813 1869 2534 1725 
Q 2256 1581 1919 1581 
Q 1219 1581 811 2004 
Q 403 2428 403 3163 
Q 403 3881 828 4315 
Q 1253 4750 1959 4750 
Q 2769 4750 3195 4129 
Q 3622 3509 3622 2328 
Q 3622 1225 3098 567 
Q 2575 -91 1691 -91 
Q 1453 -91 1209 -44 
Q 966 3 703 97 
z
M 1959 2075 
Q 2384 2075 2632 2365 
Q 2881 2656 2881 3163 
Q 2881 3666 2632 3958 
Q 2384 4250 1959 4250 
Q 1534 4250 1286 3958 
Q 1038 3666 1038 3163 
Q 1038 2656 1286 2365 
Q 1534 2075 1959 2075 
z
" transform="scale(0.015625)"/>
       </defs>
       <use xlink:href="#DejaVuSans-39"/>
       <use xlink:href="#DejaVuSans-30" x="63.623047"/>
       <use xlink:href="#DejaVuSans-30" x="127.246094"/>
       <use xlink:href="#DejaVuSans-30" x="190.869141"/>
      </g>
     </g>
    </g>
    <g id="ytick_3">
     <g id="line2d_9">
      <g>
       <use xlink:href="#md5e919df63" x="144" y="295.933199" style="stroke: #000000; stroke-width: 0.8"/>
      </g>
     </g>
     <g id="text_9">
      <!-- 9500 -->
      <g transform="translate(111.55 299.732417) scale(0.1 -0.1)">
       <use xlink:href="#DejaVuSans-39"/>
       <use xlink:href="#DejaVuSans-35" x="63.623047"/>
       <use xlink:href="#DejaVuSans-30" x="127.246094"/>
       <use xlink:href="#DejaVuSans-30" x="190.869141"/>
      </g>
     </g>
    </g>
    <g id="ytick_4">
     <g id="line2d_10">
      <g>
       <use xlink:href="#md5e919df63" x="144" y="220.512323" style="stroke: #000000; stroke-width: 0.8"/>
      </g>
     </g>
     <g id="text_10">
      <!-- 10000 -->
      <g transform="translate(105.1875 224.311542) scale(0.1 -0.1)">
       <use xlink:href="#DejaVuSans-31"/>
       <use xlink:href="#DejaVuSans-30" x="63.623047"/>
       <use xlink:href="#DejaVuSans-30" x="127.246094"/>
       <use xlink:href="#DejaVuSans-30" x="190.869141"/>
       <use xlink:href="#DejaVuSans-30" x="254.492188"/>
      </g>
     </g>
    </g>
    <g id="ytick_5">
     <g id="line2d_11">
      <g>
       <use xlink:href="#md5e919df63" x="144" y="145.091448" style="stroke: #000000; stroke-width: 0.8"/>
      </g>
     </g>
     <g id="text_11">
      <!-- 10500 -->
      <g transform="translate(105.1875 148.890667) scale(0.1 -0.1)">
       <use xlink:href="#DejaVuSans-31"/>
       <use xlink:href="#DejaVuSans-30" x="63.623047"/>
       <use xlink:href="#DejaVuSans-35" x="127.246094"/>
       <use xlink:href="#DejaVuSans-30" x="190.869141"/>
       <use xlink:href="#DejaVuSans-30" x="254.492188"/>
      </g>
     </g>
    </g>
    <g id="ytick_6">
     <g id="line2d_12">
      <g>
       <use xlink:href="#md5e919df63" x="144" y="69.670572" style="stroke: #000000; stroke-width: 0.8"/>
      </g>
     </g>
     <g id="text_12">
      <!-- 11000 -->
      <g transform="translate(105.1875 73.469791) scale(0.1 -0.1)">
       <use xlink:href="#DejaVuSans-31"/>
       <use xlink:href="#DejaVuSans-31" x="63.623047"/>
       <use xlink:href="#DejaVuSans-30" x="127.246094"/>
       <use xlink:href="#DejaVuSans-30" x="190.869141"/>
       <use xlink:href="#DejaVuSans-30" x="254.492188"/>
      </g>
     </g>
    </g>
   </g>
   <g id="line2d_13">
    <path d="M 184.581818 492.48 
L 194.36057 491.876633 
L 204.139321 489.614007 
L 213.918072 489.161481 
L 223.696824 487.954747 
L 233.475575 486.44633 
L 243.254326 486.144646 
L 253.033078 484.937912 
L 262.811829 484.485387 
L 272.590581 483.88202 
L 282.369332 483.580337 
L 292.148083 482.826128 
L 301.926835 482.222761 
L 311.705586 481.468552 
L 321.484337 480.714343 
L 331.263089 479.809293 
L 341.04184 479.055084 
L 350.820591 478.150034 
L 360.599343 477.094141 
L 370.378094 476.038249 
L 380.156846 475.133199 
L 389.935597 473.473939 
L 399.714348 471.060471 
L 409.4931 467.440269 
L 419.271851 466.384377 
L 429.050602 464.423434 
L 438.829354 462.462492 
L 448.608105 457.484714 
L 458.386857 452.80862 
L 468.165608 447.830842 
L 477.944359 442.55138 
L 487.723111 439.685387 
L 497.501862 438.478653 
L 507.280613 436.216027 
L 517.059365 427.768889 
L 526.838116 411.47798 
L 536.616867 404.388418 
L 546.395619 394.432862 
L 556.17437 391.71771 
L 565.953122 387.041616 
L 575.731873 380.253737 
L 585.510624 373.465859 
L 595.289376 364.867879 
L 605.068127 353.102222 
L 614.846878 343.750034 
L 624.62563 342.392458 
L 634.404381 340.582357 
L 644.183133 325.196498 
L 653.961884 312.978316 
L 663.740635 305.888754 
L 673.519387 290.955421 
L 683.298138 274.815354 
L 693.076889 270.591785 
L 702.855641 268.781684 
L 712.634392 253.395825 
L 722.413143 249.775623 
L 732.191895 241.026801 
L 741.970646 232.428822 
L 751.749398 205.428148 
L 761.528149 186.120404 
L 771.3069 183.254411 
L 781.085652 179.030842 
L 790.864403 164.550034 
L 800.643154 163.041616 
L 810.421906 147.957441 
L 820.200657 139.811987 
L 829.979409 139.359461 
L 839.75816 137.700202 
L 849.536911 134.683367 
L 859.315663 132.119057 
L 869.094414 130.761481 
L 878.873165 128.197172 
L 888.651917 123.370236 
L 898.430668 122.616027 
L 908.209419 122.465185 
L 917.988171 119.900875 
L 927.766922 115.526465 
L 937.545674 111.755421 
L 947.324425 102.855758 
L 957.103176 95.31367 
L 966.881928 91.995152 
L 976.660679 91.693468 
L 986.43943 90.034209 
L 996.218182 89.28 
" clip-path="url(#pbee2a72364)" style="fill: none; stroke: #1f77b4; stroke-width: 1.5; stroke-linecap: square"/>
   </g>
   <g id="patch_3">
    <path d="M 144 512.64 
L 144 69.12 
" style="fill: none; stroke: #000000; stroke-width: 0.8; stroke-linejoin: miter; stroke-linecap: square"/>
   </g>
   <g id="patch_4">
    <path d="M 1036.8 512.64 
L 1036.8 69.12 
" style="fill: none; stroke: #000000; stroke-width: 0.8; stroke-linejoin: miter; stroke-linecap: square"/>
   </g>
   <g id="patch_5">
    <path d="M 144 512.64 
L 1036.8 512.64 
" style="fill: none; stroke: #000000; stroke-width: 0.8; stroke-linejoin: miter; stroke-linecap: square"/>
   </g>
   <g id="patch_6">
    <path d="M 144 69.12 
L 1036.8 69.12 
" style="fill: none; stroke: #000000; stroke-width: 0.8; stroke-linejoin: miter; stroke-linecap: square"/>
   </g>
   <g id="text_13">
    <!-- Number of AEDs in the OpenStreetMap database in Poland from 2025-01-01, day by day. As at: 2025-03-25 -->
    <g transform="translate(144 63.12) scale(0.14 -0.14)">
     <defs>
      <path id="DejaVuSans-4e" d="M 628 4666 
L 1478 4666 
L 3547 763 
L 3547 4666 
L 4159 4666 
L 4159 0 
L 3309 0 
L 1241 3903 
L 1241 0 
L 628 0 
L 628 4666 
z
" transform="scale(0.015625)"/>
      <path id="DejaVuSans-75" d="M 544 1381 
L 544 3500 
L 1119 3500 
L 1119 1403 
Q 1119 906 1312 657 
Q 1506 409 1894 409 
Q 2359 409 2629 706 
Q 2900 1003 2900 1516 
L 2900 3500 
L 3475 3500 
L 3475 0 
L 2900 0 
L 2900 538 
Q 2691 219 2414 64 
Q 2138 -91 1772 -91 
Q 1169 -91 856 284 
Q 544 659 544 1381 
z
M 1991 3584 
L 1991 3584 
z
" transform="scale(0.015625)"/>
      <path id="DejaVuSans-6d" d="M 3328 2828 
Q 3544 3216 3844 3400 
Q 4144 3584 4550 3584 
Q 5097 3584 5394 3201 
Q 5691 2819 5691 2113 
L 5691 0 
L 5113 0 
L 5113 2094 
Q 5113 2597 4934 2840 
Q 4756 3084 4391 3084 
Q 3944 3084 3684 2787 
Q 3425 2491 3425 1978 
L 3425 0 
L 2847 0 
L 2847 2094 
Q 2847 2600 2669 2842 
Q 2491 3084 2119 3084 
Q 1678 3084 1418 2786 
Q 1159 2488 1159 1978 
L 1159 0 
L 581 0 
L 581 3500 
L 1159 3500 
L 1159 2956 
Q 1356 3278 1631 3431 
Q 1906 3584 2284 3584 
Q 2666 3584 2933 3390 
Q 3200 3197 3328 2828 
z
" transform="scale(0.015625)"/>
      <path id="DejaVuSans-62" d="M 3116 1747 
Q 3116 2381 2855 2742 
Q 2594 3103 2138 3103 
Q 1681 3103 1420 2742 
Q 1159 2381 1159 1747 
Q 1159 1113 1420 752 
Q 1681 391 2138 391 
Q 2594 391 2855 752 
Q 3116 1113 3116 1747 
z
M 1159 2969 
Q 1341 3281 1617 3432 
Q 1894 3584 2278 3584 
Q 2916 3584 3314 3078 
Q 3713 2572 3713 1747 
Q 3713 922 3314 415 
Q 2916 -91 2278 -91 
Q 1894 -91 1617 61 
Q 1341 213 1159 525 
L 1159 0 
L 581 0 
L 581 4863 
L 1159 4863 
L 1159 2969 
z
" transform="scale(0.015625)"/>
      <path id="DejaVuSans-65" d="M 3597 1894 
L 3597 1613 
L 953 1613 
Q 991 1019 1311 708 
Q 1631 397 2203 397 
Q 2534 397 2845 478 
Q 3156 559 3463 722 
L 3463 178 
Q 3153 47 2828 -22 
Q 2503 -91 2169 -91 
Q 1331 -91 842 396 
Q 353 884 353 1716 
Q 353 2575 817 3079 
Q 1281 3584 2069 3584 
Q 2775 3584 3186 3129 
Q 3597 2675 3597 1894 
z
M 3022 2063 
Q 3016 2534 2758 2815 
Q 2500 3097 2075 3097 
Q 1594 3097 1305 2825 
Q 1016 2553 972 2059 
L 3022 2063 
z
" transform="scale(0.015625)"/>
      <path id="DejaVuSans-72" d="M 2631 2963 
Q 2534 3019 2420 3045 
Q 2306 3072 2169 3072 
Q 1681 3072 1420 2755 
Q 1159 2438 1159 1844 
L 1159 0 
L 581 0 
L 581 3500 
L 1159 3500 
L 1159 2956 
Q 1341 3275 1631 3429 
Q 1922 3584 2338 3584 
Q 2397 3584 2469 3576 
Q 2541 3569 2628 3553 
L 2631 2963 
z
" transform="scale(0.015625)"/>
      <path id="DejaVuSans-20" transform="scale(0.015625)"/>
      <path id="DejaVuSans-6f" d="M 1959 3097 
Q 1497 3097 1228 2736 
Q 959 2375 959 1747 
Q 959 1119 1226 758 
Q 1494 397 1959 397 
Q 2419 397 2687 759 
Q 2956 1122 2956 1747 
Q 2956 2369 2687 2733 
Q 2419 3097 1959 3097 
z
M 1959 3584 
Q 2709 3584 3137 3096 
Q 3566 2609 3566 1747 
Q 3566 888 3137 398 
Q 2709 -91 1959 -91 
Q 1206 -91 779 398 
Q 353 888 353 1747 
Q 353 2609 779 3096 
Q 1206 3584 1959 3584 
z
" transform="scale(0.015625)"/>
      <path id="DejaVuSans-66" d="M 2375 4863 
L 2375 4384 
L 1825 4384 
Q 1516 4384 1395 4259 
Q 1275 4134 1275 3809 
L 1275 3500 
L 2222 3500 
L 2222 3053 
L 1275 3053 
L 1275 0 
L 697 0 
L 697 3053 
L 147 3053 
L 147 3500 
L 697 3500 
L 697 3744 
Q 697 4328 969 4595 
Q 1241 4863 1831 4863 
L 2375 4863 
z
" transform="scale(0.015625)"/>
      <path id="DejaVuSans-41" d="M 2188 4044 
L 1331 1722 
L 3047 1722 
L 2188 4044 
z
M 1831 4666 
L 2547 4666 
L 4325 0 
L 3669 0 
L 3244 1197 
L 1141 1197 
L 716 0 
L 50 0 
L 1831 4666 
z
" transform="scale(0.015625)"/>
      <path id="DejaVuSans-45" d="M 628 4666 
L 3578 4666 
L 3578 4134 
L 1259 4134 
L 1259 2753 
L 3481 2753 
L 3481 2222 
L 1259 2222 
L 1259 531 
L 3634 531 
L 3634 0 
L 628 0 
L 628 4666 
z
" transform="scale(0.015625)"/>
      <path id="DejaVuSans-44" d="M 1259 4147 
L 1259 519 
L 2022 519 
Q 2988 519 3436 956 
Q 3884 1394 3884 2338 
Q 3884 3275 3436 3711 
Q 2988 4147 2022 4147 
L 1259 4147 
z
M 628 4666 
L 1925 4666 
Q 3281 4666 3915 4102 
Q 4550 3538 4550 2338 
Q 4550 1131 3912 565 
Q 3275 0 1925 0 
L 628 0 
L 628 4666 
z
" transform="scale(0.015625)"/>
      <path id="DejaVuSans-73" d="M 2834 3397 
L 2834 2853 
Q 2591 2978 2328 3040 
Q 2066 3103 1784 3103 
Q 1356 3103 1142 2972 
Q 928 2841 928 2578 
Q 928 2378 1081 2264 
Q 1234 2150 1697 2047 
L 1894 2003 
Q 2506 1872 2764 1633 
Q 3022 1394 3022 966 
Q 3022 478 2636 193 
Q 2250 -91 1575 -91 
Q 1294 -91 989 -36 
Q 684 19 347 128 
L 347 722 
Q 666 556 975 473 
Q 1284 391 1588 391 
Q 1994 391 2212 530 
Q 2431 669 2431 922 
Q 2431 1156 2273 1281 
Q 2116 1406 1581 1522 
L 1381 1569 
Q 847 1681 609 1914 
Q 372 2147 372 2553 
Q 372 3047 722 3315 
Q 1072 3584 1716 3584 
Q 2034 3584 2315 3537 
Q 2597 3491 2834 3397 
z
" transform="scale(0.015625)"/>
      <path id="DejaVuSans-69" d="M 603 3500 
L 1178 3500 
L 1178 0 
L 603 0 
L 603 3500 
z
M 603 4863 
L 1178 4863 
L 1178 4134 
L 603 4134 
L 603 4863 
z
" transform="scale(0.015625)"/>
      <path id="DejaVuSans-6e" d="M 3513 2113 
L 3513 0 
L 2938 0 
L 2938 2094 
Q 2938 2591 2744 2837 
Q 2550 3084 2163 3084 
Q 1697 3084 1428 2787 
Q 1159 2491 1159 1978 
L 1159 0 
L 581 0 
L 581 3500 
L 1159 3500 
L 1159 2956 
Q 1366 3272 1645 3428 
Q 1925 3584 2291 3584 
Q 2894 3584 3203 3211 
Q 3513 2838 3513 2113 
z
" transform="scale(0.015625)"/>
      <path id="DejaVuSans-74" d="M 1172 4494 
L 1172 3500 
L 2356 3500 
L 2356 3053 
L 1172 3053 
L 1172 1153 
Q 1172 725 1289 603 
Q 1406 481 1766 481 
L 2356 481 
L 2356 0 
L 1766 0 
Q 1100 0 847 248 
Q 594 497 594 1153 
L 594 3053 
L 172 3053 
L 172 3500 
L 594 3500 
L 594 4494 
L 1172 4494 
z
" transform="scale(0.015625)"/>
      <path id="DejaVuSans-68" d="M 3513 2113 
L 3513 0 
L 2938 0 
L 2938 2094 
Q 2938 2591 2744 2837 
Q 2550 3084 2163 3084 
Q 1697 3084 1428 2787 
Q 1159 2491 1159 1978 
L 1159 0 
L 581 0 
L 581 4863 
L 1159 4863 
L 1159 2956 
Q 1366 3272 1645 3428 
Q 1925 3584 2291 3584 
Q 2894 3584 3203 3211 
Q 3513 2838 3513 2113 
z
" transform="scale(0.015625)"/>
      <path id="DejaVuSans-4f" d="M 2522 4238 
Q 1834 4238 1429 3725 
Q 1025 3213 1025 2328 
Q 1025 1447 1429 934 
Q 1834 422 2522 422 
Q 3209 422 3611 934 
Q 4013 1447 4013 2328 
Q 4013 3213 3611 3725 
Q 3209 4238 2522 4238 
z
M 2522 4750 
Q 3503 4750 4090 4092 
Q 4678 3434 4678 2328 
Q 4678 1225 4090 567 
Q 3503 -91 2522 -91 
Q 1538 -91 948 565 
Q 359 1222 359 2328 
Q 359 3434 948 4092 
Q 1538 4750 2522 4750 
z
" transform="scale(0.015625)"/>
      <path id="DejaVuSans-70" d="M 1159 525 
L 1159 -1331 
L 581 -1331 
L 581 3500 
L 1159 3500 
L 1159 2969 
Q 1341 3281 1617 3432 
Q 1894 3584 2278 3584 
Q 2916 3584 3314 3078 
Q 3713 2572 3713 1747 
Q 3713 922 3314 415 
Q 2916 -91 2278 -91 
Q 1894 -91 1617 61 
Q 1341 213 1159 525 
z
M 3116 1747 
Q 3116 2381 2855 2742 
Q 2594 3103 2138 3103 
Q 1681 3103 1420 2742 
Q 1159 2381 1159 1747 
Q 1159 1113 1420 752 
Q 1681 391 2138 391 
Q 2594 391 2855 752 
Q 3116 1113 3116 1747 
z
" transform="scale(0.015625)"/>
      <path id="DejaVuSans-53" d="M 3425 4513 
L 3425 3897 
Q 3066 4069 2747 4153 
Q 2428 4238 2131 4238 
Q 1616 4238 1336 4038 
Q 1056 3838 1056 3469 
Q 1056 3159 1242 3001 
Q 1428 2844 1947 2747 
L 2328 2669 
Q 3034 2534 3370 2195 
Q 3706 1856 3706 1288 
Q 3706 609 3251 259 
Q 2797 -91 1919 -91 
Q 1588 -91 1214 -16 
Q 841 59 441 206 
L 441 856 
Q 825 641 1194 531 
Q 1563 422 1919 422 
Q 2459 422 2753 634 
Q 3047 847 3047 1241 
Q 3047 1584 2836 1778 
Q 2625 1972 2144 2069 
L 1759 2144 
Q 1053 2284 737 2584 
Q 422 2884 422 3419 
Q 422 4038 858 4394 
Q 1294 4750 2059 4750 
Q 2388 4750 2728 4690 
Q 3069 4631 3425 4513 
z
" transform="scale(0.015625)"/>
      <path id="DejaVuSans-4d" d="M 628 4666 
L 1569 4666 
L 2759 1491 
L 3956 4666 
L 4897 4666 
L 4897 0 
L 4281 0 
L 4281 4097 
L 3078 897 
L 2444 897 
L 1241 4097 
L 1241 0 
L 628 0 
L 628 4666 
z
" transform="scale(0.015625)"/>
      <path id="DejaVuSans-61" d="M 2194 1759 
Q 1497 1759 1228 1600 
Q 959 1441 959 1056 
Q 959 750 1161 570 
Q 1363 391 1709 391 
Q 2188 391 2477 730 
Q 2766 1069 2766 1631 
L 2766 1759 
L 2194 1759 
z
M 3341 1997 
L 3341 0 
L 2766 0 
L 2766 531 
Q 2569 213 2275 61 
Q 1981 -91 1556 -91 
Q 1019 -91 701 211 
Q 384 513 384 1019 
Q 384 1609 779 1909 
Q 1175 2209 1959 2209 
L 2766 2209 
L 2766 2266 
Q 2766 2663 2505 2880 
Q 2244 3097 1772 3097 
Q 1472 3097 1187 3025 
Q 903 2953 641 2809 
L 641 3341 
Q 956 3463 1253 3523 
Q 1550 3584 1831 3584 
Q 2591 3584 2966 3190 
Q 3341 2797 3341 1997 
z
" transform="scale(0.015625)"/>
      <path id="DejaVuSans-64" d="M 2906 2969 
L 2906 4863 
L 3481 4863 
L 3481 0 
L 2906 0 
L 2906 525 
Q 2725 213 2448 61 
Q 2172 -91 1784 -91 
Q 1150 -91 751 415 
Q 353 922 353 1747 
Q 353 2572 751 3078 
Q 1150 3584 1784 3584 
Q 2172 3584 2448 3432 
Q 2725 3281 2906 2969 
z
M 947 1747 
Q 947 1113 1208 752 
Q 1469 391 1925 391 
Q 2381 391 2643 752 
Q 2906 1113 2906 1747 
Q 2906 2381 2643 2742 
Q 2381 3103 1925 3103 
Q 1469 3103 1208 2742 
Q 947 2381 947 1747 
z
" transform="scale(0.015625)"/>
      <path id="DejaVuSans-50" d="M 1259 4147 
L 1259 2394 
L 2053 2394 
Q 2494 2394 2734 2622 
Q 2975 2850 2975 3272 
Q 2975 3691 2734 3919 
Q 2494 4147 2053 4147 
L 1259 4147 
z
M 628 4666 
L 2053 4666 
Q 2838 4666 3239 4311 
Q 3641 3956 3641 3272 
Q 3641 2581 3239 2228 
Q 2838 1875 2053 1875 
L 1259 1875 
L 1259 0 
L 628 0 
L 628 4666 
z
" transform="scale(0.015625)"/>
      <path id="DejaVuSans-6c" d="M 603 4863 
L 1178 4863 
L 1178 0 
L 603 0 
L 603 4863 
z
" transform="scale(0.015625)"/>
      <path id="DejaVuSans-2c" d="M 750 794 
L 1409 794 
L 1409 256 
L 897 -744 
L 494 -744 
L 750 256 
L 750 794 
z
" transform="scale(0.015625)"/>
      <path id="DejaVuSans-79" d="M 2059 -325 
Q 1816 -950 1584 -1140 
Q 1353 -1331 966 -1331 
L 506 -1331 
L 506 -850 
L 844 -850 
Q 1081 -850 1212 -737 
Q 1344 -625 1503 -206 
L 1606 56 
L 191 3500 
L 800 3500 
L 1894 763 
L 2988 3500 
L 3597 3500 
L 2059 -325 
z
" transform="scale(0.015625)"/>
      <path id="DejaVuSans-2e" d="M 684 794 
L 1344 794 
L 1344 0 
L 684 0 
L 684 794 
z
" transform="scale(0.015625)"/>
      <path id="DejaVuSans-3a" d="M 750 794 
L 1409 794 
L 1409 0 
L 750 0 
L 750 794 
z
M 750 3309 
L 1409 3309 
L 1409 2516 
L 750 2516 
L 750 3309 
z
" transform="scale(0.015625)"/>
     </defs>
     <use xlink:href="#DejaVuSans-4e"/>
     <use xlink:href="#DejaVuSans-75" x="74.804688"/>
     <use xlink:href="#DejaVuSans-6d" x="138.183594"/>
     <use xlink:href="#DejaVuSans-62" x="235.595703"/>
     <use xlink:href="#DejaVuSans-65" x="299.072266"/>
     <use xlink:href="#DejaVuSans-72" x="360.595703"/>
     <use xlink:href="#DejaVuSans-20" x="401.708984"/>
     <use xlink:href="#DejaVuSans-6f" x="433.496094"/>
     <use xlink:href="#DejaVuSans-66" x="494.677734"/>
     <use xlink:href="#DejaVuSans-20" x="529.882812"/>
     <use xlink:href="#DejaVuSans-41" x="561.669922"/>
     <use xlink:href="#DejaVuSans-45" x="630.078125"/>
     <use xlink:href="#DejaVuSans-44" x="693.261719"/>
     <use xlink:href="#DejaVuSans-73" x="770.263672"/>
     <use xlink:href="#DejaVuSans-20" x="822.363281"/>
     <use xlink:href="#DejaVuSans-69" x="854.150391"/>
     <use xlink:href="#DejaVuSans-6e" x="881.933594"/>
     <use xlink:href="#DejaVuSans-20" x="945.3125"/>
     <use xlink:href="#DejaVuSans-74" x="977.099609"/>
     <use xlink:href="#DejaVuSans-68" x="1016.308594"/>
     <use xlink:href="#DejaVuSans-65" x="1079.6875"/>
     <use xlink:href="#DejaVuSans-20" x="1141.210938"/>
     <use xlink:href="#DejaVuSans-4f" x="1172.998047"/>
     <use xlink:href="#DejaVuSans-70" x="1251.708984"/>
     <use xlink:href="#DejaVuSans-65" x="1315.185547"/>
     <use xlink:href="#DejaVuSans-6e" x="1376.708984"/>
     <use xlink:href="#DejaVuSans-53" x="1440.087891"/>
     <use xlink:href="#DejaVuSans-74" x="1503.564453"/>
     <use xlink:href="#DejaVuSans-72" x="1542.773438"/>
     <use xlink:href="#DejaVuSans-65" x="1581.636719"/>
     <use xlink:href="#DejaVuSans-65" x="1643.160156"/>
     <use xlink:href="#DejaVuSans-74" x="1704.683594"/>
     <use xlink:href="#DejaVuSans-4d" x="1743.892578"/>
     <use xlink:href="#DejaVuSans-61" x="1830.171875"/>
     <use xlink:href="#DejaVuSans-70" x="1891.451172"/>
     <use xlink:href="#DejaVuSans-20" x="1954.927734"/>
     <use xlink:href="#DejaVuSans-64" x="1986.714844"/>
     <use xlink:href="#DejaVuSans-61" x="2050.191406"/>
     <use xlink:href="#DejaVuSans-74" x="2111.470703"/>
     <use xlink:href="#DejaVuSans-61" x="2150.679688"/>
     <use xlink:href="#DejaVuSans-62" x="2211.958984"/>
     <use xlink:href="#DejaVuSans-61" x="2275.435547"/>
     <use xlink:href="#DejaVuSans-73" x="2336.714844"/>
     <use xlink:href="#DejaVuSans-65" x="2388.814453"/>
     <use xlink:href="#DejaVuSans-20" x="2450.337891"/>
     <use xlink:href="#DejaVuSans-69" x="2482.125"/>
     <use xlink:href="#DejaVuSans-6e" x="2509.908203"/>
     <use xlink:href="#DejaVuSans-20" x="2573.287109"/>
     <use xlink:href="#DejaVuSans-50" x="2605.074219"/>
     <use xlink:href="#DejaVuSans-6f" x="2661.751953"/>
     <use xlink:href="#DejaVuSans-6c" x="2722.933594"/>
     <use xlink:href="#DejaVuSans-61" x="2750.716797"/>
     <use xlink:href="#DejaVuSans-6e" x="2811.996094"/>
     <use xlink:href="#DejaVuSans-64" x="2875.375"/>
     <use xlink:href="#DejaVuSans-20" x="2938.851562"/>
     <use xlink:href="#DejaVuSans-66" x="2970.638672"/>
     <use xlink:href="#DejaVuSans-72" x="3005.84375"/>
     <use xlink:href="#DejaVuSans-6f" x="3044.707031"/>
     <use xlink:href="#DejaVuSans-6d" x="3105.888672"/>
     <use xlink:href="#DejaVuSans-20" x="3203.300781"/>
     <use xlink:href="#DejaVuSans-32" x="3235.087891"/>
     <use xlink:href="#DejaVuSans-30" x="3298.710938"/>
     <use xlink:href="#DejaVuSans-32" x="3362.333984"/>
     <use xlink:href="#DejaVuSans-35" x="3425.957031"/>
     <use xlink:href="#DejaVuSans-2d" x="3489.580078"/>
     <use xlink:href="#DejaVuSans-30" x="3525.664062"/>
     <use xlink:href="#DejaVuSans-31" x="3589.287109"/>
     <use xlink:href="#DejaVuSans-2d" x="3652.910156"/>
     <use xlink:href="#DejaVuSans-30" x="3688.994141"/>
     <use xlink:href="#DejaVuSans-31" x="3752.617188"/>
     <use xlink:href="#DejaVuSans-2c" x="3816.240234"/>
     <use xlink:href="#DejaVuSans-20" x="3848.027344"/>
     <use xlink:href="#DejaVuSans-64" x="3879.814453"/>
     <use xlink:href="#DejaVuSans-61" x="3943.291016"/>
     <use xlink:href="#DejaVuSans-79" x="4004.570312"/>
     <use xlink:href="#DejaVuSans-20" x="4063.75"/>
     <use xlink:href="#DejaVuSans-62" x="4095.537109"/>
     <use xlink:href="#DejaVuSans-79" x="4159.013672"/>
     <use xlink:href="#DejaVuSans-20" x="4218.193359"/>
     <use xlink:href="#DejaVuSans-64" x="4249.980469"/>
     <use xlink:href="#DejaVuSans-61" x="4313.457031"/>
     <use xlink:href="#DejaVuSans-79" x="4374.736328"/>
     <use xlink:href="#DejaVuSans-2e" x="4419.666016"/>
     <use xlink:href="#DejaVuSans-20" x="4451.453125"/>
     <use xlink:href="#DejaVuSans-41" x="4483.240234"/>
     <use xlink:href="#DejaVuSans-73" x="4551.648438"/>
     <use xlink:href="#DejaVuSans-20" x="4603.748047"/>
     <use xlink:href="#DejaVuSans-61" x="4635.535156"/>
     <use xlink:href="#DejaVuSans-74" x="4696.814453"/>
     <use xlink:href="#DejaVuSans-3a" x="4736.023438"/>
     <use xlink:href="#DejaVuSans-20" x="4769.714844"/>
     <use xlink:href="#DejaVuSans-32" x="4801.501953"/>
     <use xlink:href="#DejaVuSans-30" x="4865.125"/>
     <use xlink:href="#DejaVuSans-32" x="4928.748047"/>
     <use xlink:href="#DejaVuSans-35" x="4992.371094"/>
     <use xlink:href="#DejaVuSans-2d" x="5055.994141"/>
     <use xlink:href="#DejaVuSans-30" x="5092.078125"/>
     <use xlink:href="#DejaVuSans-33" x="5155.701172"/>
     <use xlink:href="#DejaVuSans-2d" x="5219.324219"/>
     <use xlink:href="#DejaVuSans-32" x="5255.408203"/>
     <use xlink:href="#DejaVuSans-35" x="5319.03125"/>
    </g>
   </g>
  </g>
 </g>
 <defs>
  <clipPath id="pbee2a72364">
   <rect x="144" y="69.12" width="892.8" height="443.52"/>
  </clipPath>
 </defs>
</svg>
