<?xml version="1.0" encoding="utf-8" standalone="no"?>
<!DOCTYPE svg PUBLIC "-//W3C//DTD SVG 1.1//EN"
  "http://www.w3.org/Graphics/SVG/1.1/DTD/svg11.dtd">
<svg xmlns:xlink="http://www.w3.org/1999/xlink" width="1152pt" height="576pt" viewBox="0 0 1152 576" xmlns="http://www.w3.org/2000/svg" version="1.1">
 <metadata>
  <rdf:RDF xmlns:dc="http://purl.org/dc/elements/1.1/" xmlns:cc="http://creativecommons.org/ns#" xmlns:rdf="http://www.w3.org/1999/02/22-rdf-syntax-ns#">
   <cc:Work>
    <dc:type rdf:resource="http://purl.org/dc/dcmitype/StillImage"/>
    <dc:date>1980-01-01T00:00:00+00:00</dc:date>
    <dc:format>image/svg+xml</dc:format>
    <dc:creator>
     <cc:Agent>
      <dc:title>Matplotlib v3.9.1, https://matplotlib.org/</dc:title>
     </cc:Agent>
    </dc:creator>
   </cc:Work>
  </rdf:RDF>
 </metadata>
 <defs>
  <style type="text/css">*{stroke-linejoin: round; stroke-linecap: butt}</style>
 </defs>
 <g id="figure_1">
  <g id="patch_1">
   <path d="M 0 576 
L 1152 576 
L 1152 0 
L 0 0 
z
" style="fill: #ffffff"/>
  </g>
  <g id="axes_1">
   <g id="patch_2">
    <path d="M 144 512.64 
L 1036.8 512.64 
L 1036.8 69.12 
L 144 69.12 
z
" style="fill: #ffffff"/>
   </g>
   <g id="PathCollection_1">
    <path d="M 184.581818 496.352983 
C 185.608945 496.352983 186.594142 495.944901 187.320431 495.218613 
C 188.04672 494.492324 188.454802 493.507127 188.454802 492.48 
C 188.454802 491.452873 188.04672 490.467676 187.320431 489.741387 
C 186.594142 489.015099 185.608945 488.607017 184.581818 488.607017 
C 183.554691 488.607017 182.569494 489.015099 181.843205 489.741387 
C 181.116917 490.467676 180.708835 491.452873 180.708835 492.48 
C 180.708835 493.507127 181.116917 494.492324 181.843205 495.218613 
C 182.569494 495.944901 183.554691 496.352983 184.581818 496.352983 
z
" clip-path="url(#p9f5545218d)" style="fill: #1f77b4; fill-opacity: 0.3; stroke: #1f77b4; stroke-opacity: 0.3"/>
    <path d="M 196.695794 494.568433 
C 198.424706 494.568433 200.08304 493.881529 201.305566 492.659003 
C 202.528092 491.436477 203.214996 489.778143 203.214996 488.049231 
C 203.214996 486.320318 202.528092 484.661984 201.305566 483.439459 
C 200.08304 482.216933 198.424706 481.530028 196.695794 481.530028 
C 194.966881 481.530028 193.308547 482.216933 192.086022 483.439459 
C 190.863496 484.661984 190.176591 486.320318 190.176591 488.049231 
C 190.176591 489.778143 190.863496 491.436477 192.086022 492.659003 
C 193.308547 493.881529 194.966881 494.568433 196.695794 494.568433 
z
" clip-path="url(#p9f5545218d)" style="fill: #1f77b4; fill-opacity: 0.3; stroke: #1f77b4; stroke-opacity: 0.3"/>
    <path d="M 208.809769 489.118093 
C 211.028618 489.118093 213.156886 488.236536 214.725849 486.667573 
C 216.294812 485.09861 217.17637 482.970342 217.17637 480.751493 
C 217.17637 478.532645 216.294812 476.404376 214.725849 474.835413 
C 213.156886 473.266451 211.028618 472.384893 208.809769 472.384893 
C 206.590921 472.384893 204.462652 473.266451 202.89369 474.835413 
C 201.324727 476.404376 200.443169 478.532645 200.443169 480.751493 
C 200.443169 482.970342 201.324727 485.09861 202.89369 486.667573 
C 204.462652 488.236536 206.590921 489.118093 208.809769 489.118093 
z
" clip-path="url(#p9f5545218d)" style="fill: #1f77b4; fill-opacity: 0.3; stroke: #1f77b4; stroke-opacity: 0.3"/>
    <path d="M 220.923745 483.128569 
C 222.314482 483.128569 223.648445 482.576024 224.631844 481.592624 
C 225.615244 480.609225 226.167789 479.275262 226.167789 477.884525 
C 226.167789 476.493788 225.615244 475.159825 224.631844 474.176426 
C 223.648445 473.193026 222.314482 472.640481 220.923745 472.640481 
C 219.533008 472.640481 218.199045 473.193026 217.215646 474.176426 
C 216.232246 475.159825 215.679701 476.493788 215.679701 477.884525 
C 215.679701 479.275262 216.232246 480.609225 217.215646 481.592624 
C 218.199045 482.576024 219.533008 483.128569 220.923745 483.128569 
z
" clip-path="url(#p9f5545218d)" style="fill: #1f77b4; fill-opacity: 0.3; stroke: #1f77b4; stroke-opacity: 0.3"/>
    <path d="M 233.03772 480.116891 
C 233.975355 480.116891 234.874713 479.744365 235.53772 479.081357 
C 236.200728 478.41835 236.573254 477.518992 236.573254 476.581357 
C 236.573254 475.643723 236.200728 474.744365 235.53772 474.081357 
C 234.874713 473.41835 233.975355 473.045824 233.03772 473.045824 
C 232.100086 473.045824 231.200728 473.41835 230.53772 474.081357 
C 229.874713 474.744365 229.502187 475.643723 229.502187 476.581357 
C 229.502187 477.518992 229.874713 478.41835 230.53772 479.081357 
C 231.200728 479.744365 232.100086 480.116891 233.03772 480.116891 
z
" clip-path="url(#p9f5545218d)" style="fill: #1f77b4; fill-opacity: 0.3; stroke: #1f77b4; stroke-opacity: 0.3"/>
    <path d="M 245.151696 478.669791 
C 246.880609 478.669791 248.538942 477.982886 249.761468 476.76036 
C 250.983994 475.537835 251.670898 473.879501 251.670898 472.150588 
C 251.670898 470.421676 250.983994 468.763342 249.761468 467.540816 
C 248.538942 466.31829 246.880609 465.631386 245.151696 465.631386 
C 243.422783 465.631386 241.76445 466.31829 240.541924 467.540816 
C 239.319398 468.763342 238.632494 470.421676 238.632494 472.150588 
C 238.632494 473.879501 239.319398 475.537835 240.541924 476.76036 
C 241.76445 477.982886 243.422783 478.669791 245.151696 478.669791 
z
" clip-path="url(#p9f5545218d)" style="fill: #1f77b4; fill-opacity: 0.3; stroke: #1f77b4; stroke-opacity: 0.3"/>
    <path d="M 257.265672 474.36481 
C 258.889702 474.36481 260.447436 473.719576 261.595799 472.571213 
C 262.744162 471.42285 263.389396 469.865117 263.389396 468.241086 
C 263.389396 466.617055 262.744162 465.059322 261.595799 463.910959 
C 260.447436 462.762596 258.889702 462.117362 257.265672 462.117362 
C 255.641641 462.117362 254.083908 462.762596 252.935545 463.910959 
C 251.787182 465.059322 251.141947 466.617055 251.141947 468.241086 
C 251.141947 469.865117 251.787182 471.42285 252.935545 472.571213 
C 254.083908 473.719576 255.641641 474.36481 257.265672 474.36481 
z
" clip-path="url(#p9f5545218d)" style="fill: #1f77b4; fill-opacity: 0.3; stroke: #1f77b4; stroke-opacity: 0.3"/>
    <path d="M 269.379647 467.950589 
C 271.998318 467.950589 274.510087 466.91018 276.361767 465.0585 
C 278.213447 463.20682 279.253856 460.695051 279.253856 458.07638 
C 279.253856 455.457709 278.213447 452.94594 276.361767 451.09426 
C 274.510087 449.24258 271.998318 448.202171 269.379647 448.202171 
C 266.760976 448.202171 264.249207 449.24258 262.397527 451.09426 
C 260.545847 452.94594 259.505438 455.457709 259.505438 458.07638 
C 259.505438 460.695051 260.545847 463.20682 262.397527 465.0585 
C 264.249207 466.91018 266.760976 467.950589 269.379647 467.950589 
z
" clip-path="url(#p9f5545218d)" style="fill: #1f77b4; fill-opacity: 0.3; stroke: #1f77b4; stroke-opacity: 0.3"/>
    <path d="M 281.493623 459.934778 
C 283.368892 459.934778 285.167607 459.189726 286.493623 457.86371 
C 287.819638 456.537695 288.564691 454.73898 288.564691 452.86371 
C 288.564691 450.988441 287.819638 449.189726 286.493623 447.86371 
C 285.167607 446.537695 283.368892 445.792643 281.493623 445.792643 
C 279.618354 445.792643 277.819638 446.537695 276.493623 447.86371 
C 275.167607 449.189726 274.422555 450.988441 274.422555 452.86371 
C 274.422555 454.73898 275.167607 456.537695 276.493623 457.86371 
C 277.819638 459.189726 279.618354 459.934778 281.493623 459.934778 
z
" clip-path="url(#p9f5545218d)" style="fill: #1f77b4; fill-opacity: 0.3; stroke: #1f77b4; stroke-opacity: 0.3"/>
    <path d="M 293.607598 455.261426 
C 294.865567 455.261426 296.072182 454.761629 296.9617 453.872111 
C 297.851219 452.982593 298.351015 451.775978 298.351015 450.518009 
C 298.351015 449.26004 297.851219 448.053425 296.9617 447.163907 
C 296.072182 446.274389 294.865567 445.774593 293.607598 445.774593 
C 292.34963 445.774593 291.143015 446.274389 290.253496 447.163907 
C 289.363978 448.053425 288.864182 449.26004 288.864182 450.518009 
C 288.864182 451.775978 289.363978 452.982593 290.253496 453.872111 
C 291.143015 454.761629 292.34963 455.261426 293.607598 455.261426 
z
" clip-path="url(#p9f5545218d)" style="fill: #1f77b4; fill-opacity: 0.3; stroke: #1f77b4; stroke-opacity: 0.3"/>
    <path d="M 305.721574 452.23281 
C 306.314586 452.23281 306.88339 451.997204 307.302713 451.577881 
C 307.722036 451.158558 307.957642 450.589754 307.957642 449.996742 
C 307.957642 449.40373 307.722036 448.834926 307.302713 448.415603 
C 306.88339 447.99628 306.314586 447.760674 305.721574 447.760674 
C 305.128562 447.760674 304.559758 447.99628 304.140435 448.415603 
C 303.721112 448.834926 303.485506 449.40373 303.485506 449.996742 
C 303.485506 450.589754 303.721112 451.158558 304.140435 451.577881 
C 304.559758 451.997204 305.128562 452.23281 305.721574 452.23281 
z
" clip-path="url(#p9f5545218d)" style="fill: #1f77b4; fill-opacity: 0.3; stroke: #1f77b4; stroke-opacity: 0.3"/>
    <path d="M 317.83555 449.571403 
C 320.487581 449.571403 323.031348 448.51774 324.906617 446.642471 
C 326.781886 444.767201 327.83555 442.223434 327.83555 439.571403 
C 327.83555 436.919372 326.781886 434.375604 324.906617 432.500335 
C 323.031348 430.625066 320.487581 429.571403 317.83555 429.571403 
C 315.183519 429.571403 312.639751 430.625066 310.764482 432.500335 
C 308.889213 434.375604 307.83555 436.919372 307.83555 439.571403 
C 307.83555 442.223434 308.889213 444.767201 310.764482 446.642471 
C 312.639751 448.51774 315.183519 449.571403 317.83555 449.571403 
z
" clip-path="url(#p9f5545218d)" style="fill: #1f77b4; fill-opacity: 0.3; stroke: #1f77b4; stroke-opacity: 0.3"/>
    <path d="M 329.949525 440.96126 
C 332.04614 440.96126 334.057165 440.128266 335.539695 438.645736 
C 337.022225 437.163205 337.855219 435.15218 337.855219 433.055566 
C 337.855219 430.958951 337.022225 428.947926 335.539695 427.465396 
C 334.057165 425.982865 332.04614 425.149871 329.949525 425.149871 
C 327.852911 425.149871 325.841886 425.982865 324.359355 427.465396 
C 322.876825 428.947926 322.043831 430.958951 322.043831 433.055566 
C 322.043831 435.15218 322.876825 437.163205 324.359355 438.645736 
C 325.841886 440.128266 327.852911 440.96126 329.949525 440.96126 
z
" clip-path="url(#p9f5545218d)" style="fill: #1f77b4; fill-opacity: 0.3; stroke: #1f77b4; stroke-opacity: 0.3"/>
    <path d="M 342.063501 435.368207 
C 343.575391 435.368207 345.025562 434.767527 346.09463 433.698459 
C 347.163697 432.629391 347.764378 431.179221 347.764378 429.66733 
C 347.764378 428.15544 347.163697 426.705269 346.09463 425.636201 
C 345.025562 424.567134 343.575391 423.966453 342.063501 423.966453 
C 340.55161 423.966453 339.10144 424.567134 338.032372 425.636201 
C 336.963304 426.705269 336.362624 428.15544 336.362624 429.66733 
C 336.362624 431.179221 336.963304 432.629391 338.032372 433.698459 
C 339.10144 434.767527 340.55161 435.368207 342.063501 435.368207 
z
" clip-path="url(#p9f5545218d)" style="fill: #1f77b4; fill-opacity: 0.3; stroke: #1f77b4; stroke-opacity: 0.3"/>
    <path d="M 354.177476 430.271331 
C 356.549525 430.271331 358.82474 429.328906 360.502032 427.651614 
C 362.179323 425.974322 363.121748 423.699107 363.121748 421.327059 
C 363.121748 418.95501 362.179323 416.679795 360.502032 415.002504 
C 358.82474 413.325212 356.549525 412.382787 354.177476 412.382787 
C 351.805428 412.382787 349.530213 413.325212 347.852921 415.002504 
C 346.175629 416.679795 345.233204 418.95501 345.233204 421.327059 
C 345.233204 423.699107 346.175629 425.974322 347.852921 427.651614 
C 349.530213 429.328906 351.805428 430.271331 354.177476 430.271331 
z
" clip-path="url(#p9f5545218d)" style="fill: #1f77b4; fill-opacity: 0.3; stroke: #1f77b4; stroke-opacity: 0.3"/>
    <path d="M 366.291452 420.48804 
C 369.041136 420.48804 371.678571 419.395579 373.622891 417.451258 
C 375.567211 415.506938 376.659673 412.869503 376.659673 410.119819 
C 376.659673 407.370135 375.567211 404.7327 373.622891 402.78838 
C 371.678571 400.844059 369.041136 399.751598 366.291452 399.751598 
C 363.541768 399.751598 360.904333 400.844059 358.960013 402.78838 
C 357.015692 404.7327 355.923231 407.370135 355.923231 410.119819 
C 355.923231 412.869503 357.015692 415.506938 358.960013 417.451258 
C 360.904333 419.395579 363.541768 420.48804 366.291452 420.48804 
z
" clip-path="url(#p9f5545218d)" style="fill: #1f77b4; fill-opacity: 0.3; stroke: #1f77b4; stroke-opacity: 0.3"/>
    <path d="M 378.405427 412.239563 
C 379.244073 412.239563 380.048483 411.906365 380.641495 411.313353 
C 381.234508 410.720341 381.567705 409.915931 381.567705 409.077285 
C 381.567705 408.238639 381.234508 407.434229 380.641495 406.841217 
C 380.048483 406.248205 379.244073 405.915007 378.405427 405.915007 
C 377.566782 405.915007 376.762372 406.248205 376.169359 406.841217 
C 375.576347 407.434229 375.24315 408.238639 375.24315 409.077285 
C 375.24315 409.915931 375.576347 410.720341 376.169359 411.313353 
C 376.762372 411.906365 377.566782 412.239563 378.405427 412.239563 
z
" clip-path="url(#p9f5545218d)" style="fill: #1f77b4; fill-opacity: 0.3; stroke: #1f77b4; stroke-opacity: 0.3"/>
    <path d="M 390.519403 411.454361 
C 391.91014 411.454361 393.244103 410.901815 394.227502 409.918416 
C 395.210902 408.935017 395.763447 407.601054 395.763447 406.210317 
C 395.763447 404.81958 395.210902 403.485617 394.227502 402.502217 
C 393.244103 401.518818 391.91014 400.966273 390.519403 400.966273 
C 389.128666 400.966273 387.794703 401.518818 386.811304 402.502217 
C 385.827904 403.485617 385.275359 404.81958 385.275359 406.210317 
C 385.275359 407.601054 385.827904 408.935017 386.811304 409.918416 
C 387.794703 410.901815 389.128666 411.454361 390.519403 411.454361 
z
" clip-path="url(#p9f5545218d)" style="fill: #1f77b4; fill-opacity: 0.3; stroke: #1f77b4; stroke-opacity: 0.3"/>
    <path d="M 402.633379 407.389051 
C 404.812244 407.389051 406.902163 406.523378 408.442854 404.982688 
C 409.983544 403.441997 410.849217 401.352078 410.849217 399.173213 
C 410.849217 396.994347 409.983544 394.904428 408.442854 393.363738 
C 406.902163 391.823047 404.812244 390.957374 402.633379 390.957374 
C 400.454513 390.957374 398.364594 391.823047 396.823904 393.363738 
C 395.283213 394.904428 394.41754 396.994347 394.41754 399.173213 
C 394.41754 401.352078 395.283213 403.441997 396.823904 404.982688 
C 398.364594 406.523378 400.454513 407.389051 402.633379 407.389051 
z
" clip-path="url(#p9f5545218d)" style="fill: #1f77b4; fill-opacity: 0.3; stroke: #1f77b4; stroke-opacity: 0.3"/>
    <path d="M 414.747354 401.522836 
C 416.199931 401.522836 417.59321 400.945721 418.620337 399.918594 
C 419.647465 398.891467 420.22458 397.498188 420.22458 396.045611 
C 420.22458 394.593034 419.647465 393.199755 418.620337 392.172628 
C 417.59321 391.1455 416.199931 390.568385 414.747354 390.568385 
C 413.294777 390.568385 411.901498 391.1455 410.874371 392.172628 
C 409.847244 393.199755 409.270129 394.593034 409.270129 396.045611 
C 409.270129 397.498188 409.847244 398.891467 410.874371 399.918594 
C 411.901498 400.945721 413.294777 401.522836 414.747354 401.522836 
z
" clip-path="url(#p9f5545218d)" style="fill: #1f77b4; fill-opacity: 0.3; stroke: #1f77b4; stroke-opacity: 0.3"/>
    <path d="M 426.86133 394.194277 
C 429.826391 394.194277 432.670409 393.016245 434.767024 390.919631 
C 436.863638 388.823016 438.04167 385.978997 438.04167 383.013937 
C 438.04167 380.048876 436.863638 377.204857 434.767024 375.108243 
C 432.670409 373.011628 429.826391 371.833597 426.86133 371.833597 
C 423.896269 371.833597 421.05225 373.011628 418.955636 375.108243 
C 416.859021 377.204857 415.68099 380.048876 415.68099 383.013937 
C 415.68099 385.978997 416.859021 388.823016 418.955636 390.919631 
C 421.05225 393.016245 423.896269 394.194277 426.86133 394.194277 
z
" clip-path="url(#p9f5545218d)" style="fill: #1f77b4; fill-opacity: 0.3; stroke: #1f77b4; stroke-opacity: 0.3"/>
    <path d="M 438.975305 384.192671 
C 441.154171 384.192671 443.24409 383.326998 444.78478 381.786308 
C 446.325471 380.245617 447.191144 378.155698 447.191144 375.976833 
C 447.191144 373.797967 446.325471 371.708048 444.78478 370.167358 
C 443.24409 368.626667 441.154171 367.760994 438.975305 367.760994 
C 436.796439 367.760994 434.706521 368.626667 433.16583 370.167358 
C 431.625139 371.708048 430.759467 373.797967 430.759467 375.976833 
C 430.759467 378.155698 431.625139 380.245617 433.16583 381.786308 
C 434.706521 383.326998 436.796439 384.192671 438.975305 384.192671 
z
" clip-path="url(#p9f5545218d)" style="fill: #1f77b4; fill-opacity: 0.3; stroke: #1f77b4; stroke-opacity: 0.3"/>
    <path d="M 451.089281 377.467596 
C 453.143535 377.467596 455.113929 376.651432 456.566506 375.198855 
C 458.019084 373.746277 458.835248 371.775883 458.835248 369.721629 
C 458.835248 367.667375 458.019084 365.696981 456.566506 364.244403 
C 455.113929 362.791826 453.143535 361.975662 451.089281 361.975662 
C 449.035026 361.975662 447.064632 362.791826 445.612055 364.244403 
C 444.159478 365.696981 443.343314 367.667375 443.343314 369.721629 
C 443.343314 371.775883 444.159478 373.746277 445.612055 375.198855 
C 447.064632 376.651432 449.035026 377.467596 451.089281 377.467596 
z
" clip-path="url(#p9f5545218d)" style="fill: #1f77b4; fill-opacity: 0.3; stroke: #1f77b4; stroke-opacity: 0.3"/>
    <path d="M 463.203256 370.677951 
C 465.461379 370.677951 467.62732 369.780789 469.224054 368.184055 
C 470.820788 366.587321 471.71795 364.421381 471.71795 362.163258 
C 471.71795 359.905135 470.820788 357.739195 469.224054 356.142461 
C 467.62732 354.545727 465.461379 353.648565 463.203256 353.648565 
C 460.945133 353.648565 458.779193 354.545727 457.182459 356.142461 
C 455.585725 357.739195 454.688563 359.905135 454.688563 362.163258 
C 454.688563 364.421381 455.585725 366.587321 457.182459 368.184055 
C 458.779193 369.780789 460.945133 370.677951 463.203256 370.677951 
z
" clip-path="url(#p9f5545218d)" style="fill: #1f77b4; fill-opacity: 0.3; stroke: #1f77b4; stroke-opacity: 0.3"/>
    <path d="M 475.317232 364.283002 
C 476.155878 364.283002 476.960288 363.949804 477.5533 363.356792 
C 478.146312 362.76378 478.47951 361.95937 478.47951 361.120724 
C 478.47951 360.282078 478.146312 359.477668 477.5533 358.884656 
C 476.960288 358.291644 476.155878 357.958446 475.317232 357.958446 
C 474.478586 357.958446 473.674176 358.291644 473.081164 358.884656 
C 472.488152 359.477668 472.154954 360.282078 472.154954 361.120724 
C 472.154954 361.95937 472.488152 362.76378 473.081164 363.356792 
C 473.674176 363.949804 474.478586 364.283002 475.317232 364.283002 
z
" clip-path="url(#p9f5545218d)" style="fill: #1f77b4; fill-opacity: 0.3; stroke: #1f77b4; stroke-opacity: 0.3"/>
    <path d="M 487.431208 363.240468 
C 488.269853 363.240468 489.074263 362.90727 489.667276 362.314258 
C 490.260288 361.721246 490.593485 360.916836 490.593485 360.07819 
C 490.593485 359.239544 490.260288 358.435134 489.667276 357.842122 
C 489.074263 357.24911 488.269853 356.915912 487.431208 356.915912 
C 486.592562 356.915912 485.788152 357.24911 485.19514 357.842122 
C 484.602127 358.435134 484.26893 359.239544 484.26893 360.07819 
C 484.26893 360.916836 484.602127 361.721246 485.19514 362.314258 
C 485.788152 362.90727 486.592562 363.240468 487.431208 363.240468 
z
" clip-path="url(#p9f5545218d)" style="fill: #1f77b4; fill-opacity: 0.3; stroke: #1f77b4; stroke-opacity: 0.3"/>
    <path d="M 499.545183 360.052443 
C 502.095825 360.052443 504.542342 359.039062 506.345918 357.235486 
C 508.149495 355.43191 509.162875 352.985393 509.162875 350.434751 
C 509.162875 347.884109 508.149495 345.437592 506.345918 343.634016 
C 504.542342 341.83044 502.095825 340.817059 499.545183 340.817059 
C 496.994541 340.817059 494.548024 341.83044 492.744448 343.634016 
C 490.940872 345.437592 489.927491 347.884109 489.927491 350.434751 
C 489.927491 352.985393 490.940872 355.43191 492.744448 357.235486 
C 494.548024 359.039062 496.994541 360.052443 499.545183 360.052443 
z
" clip-path="url(#p9f5545218d)" style="fill: #1f77b4; fill-opacity: 0.3; stroke: #1f77b4; stroke-opacity: 0.3"/>
    <path d="M 511.659159 348.583417 
C 514.62422 348.583417 517.468238 347.405386 519.564853 345.308771 
C 521.661467 343.212156 522.839499 340.368138 522.839499 337.403077 
C 522.839499 334.438016 521.661467 331.593997 519.564853 329.497383 
C 517.468238 327.400768 514.62422 326.222737 511.659159 326.222737 
C 508.694098 326.222737 505.850079 327.400768 503.753465 329.497383 
C 501.65685 331.593997 500.478819 334.438016 500.478819 337.403077 
C 500.478819 340.368138 501.65685 343.212156 503.753465 345.308771 
C 505.850079 347.405386 508.694098 348.583417 511.659159 348.583417 
z
" clip-path="url(#p9f5545218d)" style="fill: #1f77b4; fill-opacity: 0.3; stroke: #1f77b4; stroke-opacity: 0.3"/>
    <path d="M 523.773134 338.007077 
C 526.145183 338.007077 528.420398 337.064652 530.09769 335.387361 
C 531.774981 333.710069 532.717406 331.434854 532.717406 329.062805 
C 532.717406 326.690757 531.774981 324.415542 530.09769 322.73825 
C 528.420398 321.060958 526.145183 320.118534 523.773134 320.118534 
C 521.401086 320.118534 519.125871 321.060958 517.448579 322.73825 
C 515.771287 324.415542 514.828862 326.690757 514.828862 329.062805 
C 514.828862 331.434854 515.771287 333.710069 517.448579 335.387361 
C 519.125871 337.064652 521.401086 338.007077 523.773134 338.007077 
z
" clip-path="url(#p9f5545218d)" style="fill: #1f77b4; fill-opacity: 0.3; stroke: #1f77b4; stroke-opacity: 0.3"/>
    <path d="M 535.88711 330.24154 
C 538.065976 330.24154 540.155894 329.375867 541.696585 327.835176 
C 543.237276 326.294486 544.102948 324.204567 544.102948 322.025701 
C 544.102948 319.846836 543.237276 317.756917 541.696585 316.216226 
C 540.155894 314.675536 538.065976 313.809863 535.88711 313.809863 
C 533.708244 313.809863 531.618326 314.675536 530.077635 316.216226 
C 528.536944 317.756917 527.671272 319.846836 527.671272 322.025701 
C 527.671272 324.204567 528.536944 326.294486 530.077635 327.835176 
C 531.618326 329.375867 533.708244 330.24154 535.88711 330.24154 
z
" clip-path="url(#p9f5545218d)" style="fill: #1f77b4; fill-opacity: 0.3; stroke: #1f77b4; stroke-opacity: 0.3"/>
    <path d="M 548.001085 324.145445 
C 548.839731 324.145445 549.644141 323.812248 550.237153 323.219235 
C 550.830166 322.626223 551.163363 321.821813 551.163363 320.983167 
C 551.163363 320.144522 550.830166 319.340112 550.237153 318.747099 
C 549.644141 318.154087 548.839731 317.82089 548.001085 317.82089 
C 547.16244 317.82089 546.35803 318.154087 545.765018 318.747099 
C 545.172005 319.340112 544.838808 320.144522 544.838808 320.983167 
C 544.838808 321.821813 545.172005 322.626223 545.765018 323.219235 
C 546.35803 323.812248 547.16244 324.145445 548.001085 324.145445 
z
" clip-path="url(#p9f5545218d)" style="fill: #1f77b4; fill-opacity: 0.3; stroke: #1f77b4; stroke-opacity: 0.3"/>
    <path d="M 560.115061 323.360243 
C 561.505798 323.360243 562.839761 322.807698 563.82316 321.824298 
C 564.80656 320.840899 565.359105 319.506936 565.359105 318.116199 
C 565.359105 316.725462 564.80656 315.391499 563.82316 314.4081 
C 562.839761 313.4247 561.505798 312.872155 560.115061 312.872155 
C 558.724324 312.872155 557.390361 313.4247 556.406962 314.4081 
C 555.423562 315.391499 554.871017 316.725462 554.871017 318.116199 
C 554.871017 319.506936 555.423562 320.840899 556.406962 321.824298 
C 557.390361 322.807698 558.724324 323.360243 560.115061 323.360243 
z
" clip-path="url(#p9f5545218d)" style="fill: #1f77b4; fill-opacity: 0.3; stroke: #1f77b4; stroke-opacity: 0.3"/>
    <path d="M 572.229037 319.974597 
C 574.104306 319.974597 575.903021 319.229545 577.229037 317.903529 
C 578.555052 316.577514 579.300104 314.778799 579.300104 312.903529 
C 579.300104 311.02826 578.555052 309.229545 577.229037 307.903529 
C 575.903021 306.577514 574.104306 305.832462 572.229037 305.832462 
C 570.353768 305.832462 568.555052 306.577514 567.229037 307.903529 
C 565.903021 309.229545 565.157969 311.02826 565.157969 312.903529 
C 565.157969 314.778799 565.903021 316.577514 567.229037 317.903529 
C 568.555052 319.229545 570.353768 319.974597 572.229037 319.974597 
z
" clip-path="url(#p9f5545218d)" style="fill: #1f77b4; fill-opacity: 0.3; stroke: #1f77b4; stroke-opacity: 0.3"/>
    <path d="M 584.343012 314.394292 
C 586.397267 314.394292 588.367661 313.578129 589.820238 312.125551 
C 591.272815 310.672974 592.088979 308.70258 592.088979 306.648326 
C 592.088979 304.594071 591.272815 302.623677 589.820238 301.1711 
C 588.367661 299.718523 586.397267 298.902359 584.343012 298.902359 
C 582.288758 298.902359 580.318364 299.718523 578.865787 301.1711 
C 577.413209 302.623677 576.597046 304.594071 576.597046 306.648326 
C 576.597046 308.70258 577.413209 310.672974 578.865787 312.125551 
C 580.318364 313.578129 582.288758 314.394292 584.343012 314.394292 
z
" clip-path="url(#p9f5545218d)" style="fill: #1f77b4; fill-opacity: 0.3; stroke: #1f77b4; stroke-opacity: 0.3"/>
    <path d="M 596.456988 309.035394 
C 597.643012 309.035394 598.78062 308.564181 599.619265 307.725536 
C 600.457911 306.88689 600.929124 305.749282 600.929124 304.563258 
C 600.929124 303.377234 600.457911 302.239626 599.619265 301.40098 
C 598.78062 300.562334 597.643012 300.091122 596.456988 300.091122 
C 595.270963 300.091122 594.133356 300.562334 593.29471 301.40098 
C 592.456064 302.239626 591.984852 303.377234 591.984852 304.563258 
C 591.984852 305.749282 592.456064 306.88689 593.29471 307.725536 
C 594.133356 308.564181 595.270963 309.035394 596.456988 309.035394 
z
" clip-path="url(#p9f5545218d)" style="fill: #1f77b4; fill-opacity: 0.3; stroke: #1f77b4; stroke-opacity: 0.3"/>
    <path d="M 608.570963 305.632121 
C 610.789812 305.632121 612.91808 304.750563 614.487043 303.1816 
C 616.056006 301.612637 616.937564 299.484369 616.937564 297.26552 
C 616.937564 295.046672 616.056006 292.918403 614.487043 291.349441 
C 612.91808 289.780478 610.789812 288.89892 608.570963 288.89892 
C 606.352115 288.89892 604.223846 289.780478 602.654884 291.349441 
C 601.085921 292.918403 600.204363 295.046672 600.204363 297.26552 
C 600.204363 299.484369 601.085921 301.612637 602.654884 303.1816 
C 604.223846 304.750563 606.352115 305.632121 608.570963 305.632121 
z
" clip-path="url(#p9f5545218d)" style="fill: #1f77b4; fill-opacity: 0.3; stroke: #1f77b4; stroke-opacity: 0.3"/>
    <path d="M 620.684939 299.353954 
C 622.413852 299.353954 624.072185 298.667049 625.294711 297.444523 
C 626.517237 296.221997 627.204141 294.563664 627.204141 292.834751 
C 627.204141 291.105838 626.517237 289.447505 625.294711 288.224979 
C 624.072185 287.002453 622.413852 286.315549 620.684939 286.315549 
C 618.956026 286.315549 617.297693 287.002453 616.075167 288.224979 
C 614.852641 289.447505 614.165737 291.105838 614.165737 292.834751 
C 614.165737 294.563664 614.852641 296.221997 616.075167 297.444523 
C 617.297693 298.667049 618.956026 299.353954 620.684939 299.353954 
z
" clip-path="url(#p9f5545218d)" style="fill: #1f77b4; fill-opacity: 0.3; stroke: #1f77b4; stroke-opacity: 0.3"/>
    <path d="M 632.798915 295.211827 
C 634.189651 295.211827 635.523614 294.659281 636.507014 293.675882 
C 637.490413 292.692483 638.042959 291.35852 638.042959 289.967783 
C 638.042959 288.577046 637.490413 287.243083 636.507014 286.259684 
C 635.523614 285.276284 634.189651 284.723739 632.798915 284.723739 
C 631.408178 284.723739 630.074215 285.276284 629.090815 286.259684 
C 628.107416 287.243083 627.55487 288.577046 627.55487 289.967783 
C 627.55487 291.35852 628.107416 292.692483 629.090815 293.675882 
C 630.074215 294.659281 631.408178 295.211827 632.798915 295.211827 
z
" clip-path="url(#p9f5545218d)" style="fill: #1f77b4; fill-opacity: 0.3; stroke: #1f77b4; stroke-opacity: 0.3"/>
    <path d="M 644.91289 289.677286 
C 647.531561 289.677286 650.04333 288.636877 651.89501 286.785197 
C 653.74669 284.933517 654.787099 282.421748 654.787099 279.803077 
C 654.787099 277.184406 653.74669 274.672637 651.89501 272.820957 
C 650.04333 270.969277 647.531561 269.928868 644.91289 269.928868 
C 642.294219 269.928868 639.78245 270.969277 637.93077 272.820957 
C 636.07909 274.672637 635.038681 277.184406 635.038681 279.803077 
C 635.038681 282.421748 636.07909 284.933517 637.93077 286.785197 
C 639.78245 288.636877 642.294219 289.677286 644.91289 289.677286 
z
" clip-path="url(#p9f5545218d)" style="fill: #1f77b4; fill-opacity: 0.3; stroke: #1f77b4; stroke-opacity: 0.3"/>
    <path d="M 657.026866 282.152701 
C 658.479443 282.152701 659.872722 281.575586 660.899849 280.548458 
C 661.926976 279.521331 662.504091 278.128052 662.504091 276.675475 
C 662.504091 275.222898 661.926976 273.829619 660.899849 272.802492 
C 659.872722 271.775365 658.479443 271.19825 657.026866 271.19825 
C 655.574288 271.19825 654.18101 271.775365 653.153882 272.802492 
C 652.126755 273.829619 651.54964 275.222898 651.54964 276.675475 
C 651.54964 278.128052 652.126755 279.521331 653.153882 280.548458 
C 654.18101 281.575586 655.574288 282.152701 657.026866 282.152701 
z
" clip-path="url(#p9f5545218d)" style="fill: #1f77b4; fill-opacity: 0.3; stroke: #1f77b4; stroke-opacity: 0.3"/>
    <path d="M 669.140841 277.033481 
C 671.585893 277.033481 673.931131 276.062052 675.660044 274.333139 
C 677.388956 272.604226 678.360386 270.258988 678.360386 267.813937 
C 678.360386 265.368885 677.388956 263.023647 675.660044 261.294734 
C 673.931131 259.565822 671.585893 258.594392 669.140841 258.594392 
C 666.695789 258.594392 664.350552 259.565822 662.621639 261.294734 
C 660.892726 263.023647 659.921297 265.368885 659.921297 267.813937 
C 659.921297 270.258988 660.892726 272.604226 662.621639 274.333139 
C 664.350552 276.062052 666.695789 277.033481 669.140841 277.033481 
z
" clip-path="url(#p9f5545218d)" style="fill: #1f77b4; fill-opacity: 0.3; stroke: #1f77b4; stroke-opacity: 0.3"/>
    <path d="M 681.254817 269.672335 
C 683.130086 269.672335 684.928801 268.927282 686.254817 267.601267 
C 687.580832 266.275251 688.325885 264.476536 688.325885 262.601267 
C 688.325885 260.725998 687.580832 258.927282 686.254817 257.601267 
C 684.928801 256.275251 683.130086 255.530199 681.254817 255.530199 
C 679.379548 255.530199 677.580832 256.275251 676.254817 257.601267 
C 674.928801 258.927282 674.183749 260.725998 674.183749 262.601267 
C 674.183749 264.476536 674.928801 266.275251 676.254817 267.601267 
C 677.580832 268.927282 679.379548 269.672335 681.254817 269.672335 
z
" clip-path="url(#p9f5545218d)" style="fill: #1f77b4; fill-opacity: 0.3; stroke: #1f77b4; stroke-opacity: 0.3"/>
    <path d="M 693.368792 264.950891 
C 694.82137 264.950891 696.214649 264.373776 697.241776 263.346649 
C 698.268903 262.319521 698.846018 260.926242 698.846018 259.473665 
C 698.846018 258.021088 698.268903 256.627809 697.241776 255.600682 
C 696.214649 254.573555 694.82137 253.99644 693.368792 253.99644 
C 691.916215 253.99644 690.522936 254.573555 689.495809 255.600682 
C 688.468682 256.627809 687.891567 258.021088 687.891567 259.473665 
C 687.891567 260.926242 688.468682 262.319521 689.495809 263.346649 
C 690.522936 264.373776 691.916215 264.950891 693.368792 264.950891 
z
" clip-path="url(#p9f5545218d)" style="fill: #1f77b4; fill-opacity: 0.3; stroke: #1f77b4; stroke-opacity: 0.3"/>
    <path d="M 705.482768 261.332063 
C 707.358037 261.332063 709.156752 260.587011 710.482768 259.260995 
C 711.808783 257.93498 712.553836 256.136265 712.553836 254.260995 
C 712.553836 252.385726 711.808783 250.587011 710.482768 249.260995 
C 709.156752 247.93498 707.358037 247.189928 705.482768 247.189928 
C 703.607499 247.189928 701.808783 247.93498 700.482768 249.260995 
C 699.156752 250.587011 698.4117 252.385726 698.4117 254.260995 
C 698.4117 256.136265 699.156752 257.93498 700.482768 259.260995 
C 701.808783 260.587011 703.607499 261.332063 705.482768 261.332063 
z
" clip-path="url(#p9f5545218d)" style="fill: #1f77b4; fill-opacity: 0.3; stroke: #1f77b4; stroke-opacity: 0.3"/>
    <path d="M 717.596744 256.658711 
C 718.854712 256.658711 720.061327 256.158914 720.950846 255.269396 
C 721.840364 254.379878 722.34016 253.173263 722.34016 251.915294 
C 722.34016 250.657325 721.840364 249.45071 720.950846 248.561192 
C 720.061327 247.671674 718.854712 247.171878 717.596744 247.171878 
C 716.338775 247.171878 715.13216 247.671674 714.242642 248.561192 
C 713.353123 249.45071 712.853327 250.657325 712.853327 251.915294 
C 712.853327 253.173263 713.353123 254.379878 714.242642 255.269396 
C 715.13216 256.158914 716.338775 256.658711 717.596744 256.658711 
z
" clip-path="url(#p9f5545218d)" style="fill: #1f77b4; fill-opacity: 0.3; stroke: #1f77b4; stroke-opacity: 0.3"/>
    <path d="M 729.710719 251.889547 
C 732.261361 251.889547 734.707878 250.876167 736.511454 249.07259 
C 738.31503 247.269014 739.328411 244.822497 739.328411 242.271855 
C 739.328411 239.721213 738.31503 237.274696 736.511454 235.47112 
C 734.707878 233.667544 732.261361 232.654163 729.710719 232.654163 
C 727.160077 232.654163 724.71356 233.667544 722.909984 235.47112 
C 721.106408 237.274696 720.093027 239.721213 720.093027 242.271855 
C 720.093027 244.822497 721.106408 247.269014 722.909984 249.07259 
C 724.71356 250.876167 727.160077 251.889547 729.710719 251.889547 
z
" clip-path="url(#p9f5545218d)" style="fill: #1f77b4; fill-opacity: 0.3; stroke: #1f77b4; stroke-opacity: 0.3"/>
    <path d="M 741.824695 240.715899 
C 744.729849 240.715899 747.516407 239.561669 749.570661 237.507415 
C 751.624916 235.45316 752.779146 232.666602 752.779146 229.761448 
C 752.779146 226.856294 751.624916 224.069736 749.570661 222.015481 
C 747.516407 219.961227 744.729849 218.806997 741.824695 218.806997 
C 738.91954 218.806997 736.132982 219.961227 734.078728 222.015481 
C 732.024474 224.069736 730.870244 226.856294 730.870244 229.761448 
C 730.870244 232.666602 732.024474 235.45316 734.078728 237.507415 
C 736.132982 239.561669 738.91954 240.715899 741.824695 240.715899 
z
" clip-path="url(#p9f5545218d)" style="fill: #1f77b4; fill-opacity: 0.3; stroke: #1f77b4; stroke-opacity: 0.3"/>
    <path d="M 753.93867 232.159163 
C 755.196639 232.159163 756.403254 231.659367 757.292772 230.769849 
C 758.18229 229.88033 758.682087 228.673715 758.682087 227.415747 
C 758.682087 226.157778 758.18229 224.951163 757.292772 224.061645 
C 756.403254 223.172126 755.196639 222.67233 753.93867 222.67233 
C 752.680702 222.67233 751.474087 223.172126 750.584568 224.061645 
C 749.69505 224.951163 749.195254 226.157778 749.195254 227.415747 
C 749.195254 228.673715 749.69505 229.88033 750.584568 230.769849 
C 751.474087 231.659367 752.680702 232.159163 753.93867 232.159163 
z
" clip-path="url(#p9f5545218d)" style="fill: #1f77b4; fill-opacity: 0.3; stroke: #1f77b4; stroke-opacity: 0.3"/>
    <path d="M 766.052646 229.274145 
C 767.927915 229.274145 769.72663 228.529092 771.052646 227.203077 
C 772.378661 225.877061 773.123714 224.078346 773.123714 222.203077 
C 773.123714 220.327808 772.378661 218.529092 771.052646 217.203077 
C 769.72663 215.877061 767.927915 215.132009 766.052646 215.132009 
C 764.177377 215.132009 762.378661 215.877061 761.052646 217.203077 
C 759.72663 218.529092 758.981578 220.327808 758.981578 222.203077 
C 758.981578 224.078346 759.72663 225.877061 761.052646 227.203077 
C 762.378661 228.529092 764.177377 229.274145 766.052646 229.274145 
z
" clip-path="url(#p9f5545218d)" style="fill: #1f77b4; fill-opacity: 0.3; stroke: #1f77b4; stroke-opacity: 0.3"/>
    <path d="M 778.166621 224.061475 
C 780.041891 224.061475 781.840606 223.316423 783.166621 221.990407 
C 784.492637 220.664392 785.237689 218.865676 785.237689 216.990407 
C 785.237689 215.115138 784.492637 213.316423 783.166621 211.990407 
C 781.840606 210.664392 780.041891 209.919339 778.166621 209.919339 
C 776.291352 209.919339 774.492637 210.664392 773.166621 211.990407 
C 771.840606 213.316423 771.095554 215.115138 771.095554 216.990407 
C 771.095554 218.865676 771.840606 220.664392 773.166621 221.990407 
C 774.492637 223.316423 776.291352 224.061475 778.166621 224.061475 
z
" clip-path="url(#p9f5545218d)" style="fill: #1f77b4; fill-opacity: 0.3; stroke: #1f77b4; stroke-opacity: 0.3"/>
    <path d="M 790.280597 219.007208 
C 792.059633 219.007208 793.766045 218.30039 795.024014 217.042421 
C 796.281982 215.784452 796.988801 214.078041 796.988801 212.299005 
C 796.988801 210.519968 796.281982 208.813557 795.024014 207.555588 
C 793.766045 206.297619 792.059633 205.590801 790.280597 205.590801 
C 788.501561 205.590801 786.795149 206.297619 785.537181 207.555588 
C 784.279212 208.813557 783.572393 210.519968 783.572393 212.299005 
C 783.572393 214.078041 784.279212 215.784452 785.537181 217.042421 
C 786.795149 218.30039 788.501561 219.007208 790.280597 219.007208 
z
" clip-path="url(#p9f5545218d)" style="fill: #1f77b4; fill-opacity: 0.3; stroke: #1f77b4; stroke-opacity: 0.3"/>
    <path d="M 802.394573 214.238993 
C 804.222359 214.238993 805.97553 213.512806 807.26797 212.220365 
C 808.56041 210.927925 809.286597 209.174755 809.286597 207.346968 
C 809.286597 205.519182 808.56041 203.766011 807.26797 202.473571 
C 805.97553 201.181131 804.222359 200.454944 802.394573 200.454944 
C 800.566786 200.454944 798.813615 201.181131 797.521175 202.473571 
C 796.228735 203.766011 795.502548 205.519182 795.502548 207.346968 
C 795.502548 209.174755 796.228735 210.927925 797.521175 212.220365 
C 798.813615 213.512806 800.566786 214.238993 802.394573 214.238993 
z
" clip-path="url(#p9f5545218d)" style="fill: #1f77b4; fill-opacity: 0.3; stroke: #1f77b4; stroke-opacity: 0.3"/>
    <path d="M 814.508548 208.188218 
C 816.805274 208.188218 819.008242 207.275719 820.632273 205.651688 
C 822.256303 204.027657 823.168802 201.82469 823.168802 199.527964 
C 823.168802 197.231238 822.256303 195.02827 820.632273 193.404239 
C 819.008242 191.780209 816.805274 190.86771 814.508548 190.86771 
C 812.211822 190.86771 810.008854 191.780209 808.384824 193.404239 
C 806.760793 195.02827 805.848294 197.231238 805.848294 199.527964 
C 805.848294 201.82469 806.760793 204.027657 808.384824 205.651688 
C 810.008854 207.275719 812.211822 208.188218 814.508548 208.188218 
z
" clip-path="url(#p9f5545218d)" style="fill: #1f77b4; fill-opacity: 0.3; stroke: #1f77b4; stroke-opacity: 0.3"/>
    <path d="M 826.622524 200.251734 
C 828.957215 200.251734 831.196598 199.324152 832.847474 197.673276 
C 834.49835 196.0224 835.425932 193.783017 835.425932 191.448326 
C 835.425932 189.113635 834.49835 186.874252 832.847474 185.223376 
C 831.196598 183.5725 828.957215 182.644917 826.622524 182.644917 
C 824.287833 182.644917 822.04845 183.5725 820.397574 185.223376 
C 818.746698 186.874252 817.819115 189.113635 817.819115 191.448326 
C 817.819115 193.783017 818.746698 196.0224 820.397574 197.673276 
C 822.04845 199.324152 824.287833 200.251734 826.622524 200.251734 
z
" clip-path="url(#p9f5545218d)" style="fill: #1f77b4; fill-opacity: 0.3; stroke: #1f77b4; stroke-opacity: 0.3"/>
    <path d="M 838.736499 190.609307 
C 841.486184 190.609307 844.123618 189.516846 846.067938 187.572525 
C 848.012259 185.628205 849.10472 182.99077 849.10472 180.241086 
C 849.10472 177.491402 848.012259 174.853967 846.067938 172.909647 
C 844.123618 170.965326 841.486184 169.872865 838.736499 169.872865 
C 835.986815 169.872865 833.349381 170.965326 831.40506 172.909647 
C 829.46074 174.853967 828.368279 177.491402 828.368279 180.241086 
C 828.368279 182.99077 829.46074 185.628205 831.40506 187.572525 
C 833.349381 189.516846 835.986815 190.609307 838.736499 190.609307 
z
" clip-path="url(#p9f5545218d)" style="fill: #1f77b4; fill-opacity: 0.3; stroke: #1f77b4; stroke-opacity: 0.3"/>
    <path d="M 850.850475 182.013471 
C 852.772054 182.013471 854.615189 181.25002 855.97395 179.891258 
C 857.332712 178.532497 858.096163 176.689362 858.096163 174.767783 
C 858.096163 172.846204 857.332712 171.003069 855.97395 169.644307 
C 854.615189 168.285546 852.772054 167.522094 850.850475 167.522094 
C 848.928896 167.522094 847.085761 168.285546 845.727 169.644307 
C 844.368238 171.003069 843.604787 172.846204 843.604787 174.767783 
C 843.604787 176.689362 844.368238 178.532497 845.727 179.891258 
C 847.085761 181.25002 848.928896 182.013471 850.850475 182.013471 
z
" clip-path="url(#p9f5545218d)" style="fill: #1f77b4; fill-opacity: 0.3; stroke: #1f77b4; stroke-opacity: 0.3"/>
    <path d="M 862.96445 171.535365 
C 866.185331 171.535365 869.274726 170.255696 871.552232 167.978189 
C 873.829739 165.700683 875.109408 162.611288 875.109408 159.390407 
C 875.109408 156.169527 873.829739 153.080132 871.552232 150.802625 
C 869.274726 148.525119 866.185331 147.245449 862.96445 147.245449 
C 859.74357 147.245449 856.654175 148.525119 854.376668 150.802625 
C 852.099162 153.080132 850.819493 156.169527 850.819493 159.390407 
C 850.819493 162.611288 852.099162 165.700683 854.376668 167.978189 
C 856.654175 170.255696 859.74357 171.535365 862.96445 171.535365 
z
" clip-path="url(#p9f5545218d)" style="fill: #1f77b4; fill-opacity: 0.3; stroke: #1f77b4; stroke-opacity: 0.3"/>
    <path d="M 875.078426 160.978713 
C 877.089428 160.978713 879.018335 160.179733 880.440329 158.75774 
C 881.862322 157.335747 882.661301 155.406839 882.661301 153.395837 
C 882.661301 151.384835 881.862322 149.455928 880.440329 148.033934 
C 879.018335 146.611941 877.089428 145.812962 875.078426 145.812962 
C 873.067424 145.812962 871.138517 146.611941 869.716523 148.033934 
C 868.29453 149.455928 867.495551 151.384835 867.495551 153.395837 
C 867.495551 155.406839 868.29453 157.335747 869.716523 158.75774 
C 871.138517 160.179733 873.067424 160.978713 875.078426 160.978713 
z
" clip-path="url(#p9f5545218d)" style="fill: #1f77b4; fill-opacity: 0.3; stroke: #1f77b4; stroke-opacity: 0.3"/>
    <path d="M 887.192402 155.745461 
C 888.644979 155.745461 890.038258 155.168346 891.065385 154.141219 
C 892.092512 153.114091 892.669627 151.720812 892.669627 150.268235 
C 892.669627 148.815658 892.092512 147.422379 891.065385 146.395252 
C 890.038258 145.368125 888.644979 144.79101 887.192402 144.79101 
C 885.739824 144.79101 884.346545 145.368125 883.319418 146.395252 
C 882.292291 147.422379 881.715176 148.815658 881.715176 150.268235 
C 881.715176 151.720812 882.292291 153.114091 883.319418 154.141219 
C 884.346545 155.168346 885.739824 155.745461 887.192402 155.745461 
z
" clip-path="url(#p9f5545218d)" style="fill: #1f77b4; fill-opacity: 0.3; stroke: #1f77b4; stroke-opacity: 0.3"/>
    <path d="M 899.306377 152.04062 
C 901.227956 152.04062 903.071091 151.277169 904.429853 149.918408 
C 905.788614 148.559646 906.552066 146.716511 906.552066 144.794932 
C 906.552066 142.873353 905.788614 141.030218 904.429853 139.671457 
C 903.071091 138.312695 901.227956 137.549244 899.306377 137.549244 
C 897.384798 137.549244 895.541663 138.312695 894.182902 139.671457 
C 892.82414 141.030218 892.060689 142.873353 892.060689 144.794932 
C 892.060689 146.716511 892.82414 148.559646 894.182902 149.918408 
C 895.541663 151.277169 897.384798 152.04062 899.306377 152.04062 
z
" clip-path="url(#p9f5545218d)" style="fill: #1f77b4; fill-opacity: 0.3; stroke: #1f77b4; stroke-opacity: 0.3"/>
    <path d="M 911.420353 145.973666 
C 913.599219 145.973666 915.689137 145.107994 917.229828 143.567303 
C 918.770519 142.026612 919.636191 139.936694 919.636191 137.757828 
C 919.636191 135.578962 918.770519 133.489044 917.229828 131.948353 
C 915.689137 130.407662 913.599219 129.54199 911.420353 129.54199 
C 909.241487 129.54199 907.151569 130.407662 905.610878 131.948353 
C 904.070187 133.489044 903.204514 135.578962 903.204514 137.757828 
C 903.204514 139.936694 904.070187 142.026612 905.610878 143.567303 
C 907.151569 145.107994 909.241487 145.973666 911.420353 145.973666 
z
" clip-path="url(#p9f5545218d)" style="fill: #1f77b4; fill-opacity: 0.3; stroke: #1f77b4; stroke-opacity: 0.3"/>
    <path d="M 923.534328 139.616226 
C 925.409597 139.616226 927.208313 138.871174 928.534328 137.545158 
C 929.860344 136.219143 930.605396 134.420427 930.605396 132.545158 
C 930.605396 130.669889 929.860344 128.871174 928.534328 127.545158 
C 927.208313 126.219143 925.409597 125.474091 923.534328 125.474091 
C 921.659059 125.474091 919.860344 126.219143 918.534328 127.545158 
C 917.208313 128.871174 916.463261 130.669889 916.463261 132.545158 
C 916.463261 134.420427 917.208313 136.219143 918.534328 137.545158 
C 919.860344 138.871174 921.659059 139.616226 923.534328 139.616226 
z
" clip-path="url(#p9f5545218d)" style="fill: #1f77b4; fill-opacity: 0.3; stroke: #1f77b4; stroke-opacity: 0.3"/>
    <path d="M 935.648304 133.386408 
C 937.94503 133.386408 940.147998 132.473909 941.772028 130.849878 
C 943.396059 129.225848 944.308558 127.02288 944.308558 124.726154 
C 944.308558 122.429428 943.396059 120.22646 941.772028 118.602429 
C 940.147998 116.978399 937.94503 116.0659 935.648304 116.0659 
C 933.351578 116.0659 931.14861 116.978399 929.52458 118.602429 
C 927.900549 120.22646 926.98805 122.429428 926.98805 124.726154 
C 926.98805 127.02288 927.900549 129.225848 929.52458 130.849878 
C 931.14861 132.473909 933.351578 133.386408 935.648304 133.386408 
z
" clip-path="url(#p9f5545218d)" style="fill: #1f77b4; fill-opacity: 0.3; stroke: #1f77b4; stroke-opacity: 0.3"/>
    <path d="M 947.76228 126.814587 
C 949.491192 126.814587 951.149526 126.127683 952.372052 124.905157 
C 953.594578 123.682631 954.281482 122.024297 954.281482 120.295385 
C 954.281482 118.566472 953.594578 116.908138 952.372052 115.685612 
C 951.149526 114.463087 949.491192 113.776182 947.76228 113.776182 
C 946.033367 113.776182 944.375033 114.463087 943.152507 115.685612 
C 941.929981 116.908138 941.243077 118.566472 941.243077 120.295385 
C 941.243077 122.024297 941.929981 123.682631 943.152507 124.905157 
C 944.375033 126.127683 946.033367 126.814587 947.76228 126.814587 
z
" clip-path="url(#p9f5545218d)" style="fill: #1f77b4; fill-opacity: 0.3; stroke: #1f77b4; stroke-opacity: 0.3"/>
    <path d="M 959.876255 121.786148 
C 961.930509 121.786148 963.900903 120.969984 965.353481 119.517407 
C 966.806058 118.064829 967.622222 116.094435 967.622222 114.040181 
C 967.622222 111.985927 966.806058 110.015533 965.353481 108.562955 
C 963.900903 107.110378 961.930509 106.294214 959.876255 106.294214 
C 957.822001 106.294214 955.851607 107.110378 954.39903 108.562955 
C 952.946452 110.015533 952.130288 111.985927 952.130288 114.040181 
C 952.130288 116.094435 952.946452 118.064829 954.39903 119.517407 
C 955.851607 120.969984 957.822001 121.786148 959.876255 121.786148 
z
" clip-path="url(#p9f5545218d)" style="fill: #1f77b4; fill-opacity: 0.3; stroke: #1f77b4; stroke-opacity: 0.3"/>
    <path d="M 971.990231 116.056982 
C 973.769267 116.056982 975.475678 115.350164 976.733647 114.092195 
C 977.991616 112.834226 978.698435 111.127815 978.698435 109.348778 
C 978.698435 107.569742 977.991616 105.863331 976.733647 104.605362 
C 975.475678 103.347393 973.769267 102.640574 971.990231 102.640574 
C 970.211194 102.640574 968.504783 103.347393 967.246814 104.605362 
C 965.988845 105.863331 965.282027 107.569742 965.282027 109.348778 
C 965.282027 111.127815 965.988845 112.834226 967.246814 114.092195 
C 968.504783 115.350164 970.211194 116.056982 971.990231 116.056982 
z
" clip-path="url(#p9f5545218d)" style="fill: #1f77b4; fill-opacity: 0.3; stroke: #1f77b4; stroke-opacity: 0.3"/>
    <path d="M 984.104206 111.66142 
C 985.616097 111.66142 987.066267 111.06074 988.135335 109.991672 
C 989.204403 108.922604 989.805083 107.472433 989.805083 105.960543 
C 989.805083 104.448653 989.204403 102.998482 988.135335 101.929414 
C 987.066267 100.860346 985.616097 100.259666 984.104206 100.259666 
C 982.592316 100.259666 981.142145 100.860346 980.073077 101.929414 
C 979.004009 102.998482 978.403329 104.448653 978.403329 105.960543 
C 978.403329 107.472433 979.004009 108.922604 980.073077 109.991672 
C 981.142145 111.06074 982.592316 111.66142 984.104206 111.66142 
z
" clip-path="url(#p9f5545218d)" style="fill: #1f77b4; fill-opacity: 0.3; stroke: #1f77b4; stroke-opacity: 0.3"/>
    <path d="M 996.218182 101.929111 
C 999.572765 101.929111 1002.790405 100.596321 1005.162454 98.224272 
C 1007.534502 95.852223 1008.867292 92.634583 1008.867292 89.28 
C 1008.867292 85.925417 1007.534502 82.707777 1005.162454 80.335728 
C 1002.790405 77.963679 999.572765 76.630889 996.218182 76.630889 
C 992.863598 76.630889 989.645959 77.963679 987.27391 80.335728 
C 984.901861 82.707777 983.569071 85.925417 983.569071 89.28 
C 983.569071 92.634583 984.901861 95.852223 987.27391 98.224272 
C 989.645959 100.596321 992.863598 101.929111 996.218182 101.929111 
z
" clip-path="url(#p9f5545218d)" style="fill: #1f77b4; fill-opacity: 0.3; stroke: #1f77b4; stroke-opacity: 0.3"/>
   </g>
   <g id="matplotlib.axis_1">
    <g id="xtick_1">
     <g id="line2d_1">
      <defs>
       <path id="me562d1b6a4" d="M 0 0 
L 0 3.5 
" style="stroke: #000000; stroke-width: 0.8"/>
      </defs>
      <g>
       <use xlink:href="#me562d1b6a4" x="184.581818" y="512.64" style="stroke: #000000; stroke-width: 0.8"/>
      </g>
     </g>
     <g id="text_1">
      <!-- 2026-01-01 -->
      <g transform="translate(155.524006 527.238438) scale(0.1 -0.1)">
       <defs>
        <path id="DejaVuSans-32" d="M 1228 531 
L 3431 531 
L 3431 0 
L 469 0 
L 469 531 
Q 828 903 1448 1529 
Q 2069 2156 2228 2338 
Q 2531 2678 2651 2914 
Q 2772 3150 2772 3378 
Q 2772 3750 2511 3984 
Q 2250 4219 1831 4219 
Q 1534 4219 1204 4116 
Q 875 4013 500 3803 
L 500 4441 
Q 881 4594 1212 4672 
Q 1544 4750 1819 4750 
Q 2544 4750 2975 4387 
Q 3406 4025 3406 3419 
Q 3406 3131 3298 2873 
Q 3191 2616 2906 2266 
Q 2828 2175 2409 1742 
Q 1991 1309 1228 531 
z
" transform="scale(0.015625)"/>
        <path id="DejaVuSans-30" d="M 2034 4250 
Q 1547 4250 1301 3770 
Q 1056 3291 1056 2328 
Q 1056 1369 1301 889 
Q 1547 409 2034 409 
Q 2525 409 2770 889 
Q 3016 1369 3016 2328 
Q 3016 3291 2770 3770 
Q 2525 4250 2034 4250 
z
M 2034 4750 
Q 2819 4750 3233 4129 
Q 3647 3509 3647 2328 
Q 3647 1150 3233 529 
Q 2819 -91 2034 -91 
Q 1250 -91 836 529 
Q 422 1150 422 2328 
Q 422 3509 836 4129 
Q 1250 4750 2034 4750 
z
" transform="scale(0.015625)"/>
        <path id="DejaVuSans-36" d="M 2113 2584 
Q 1688 2584 1439 2293 
Q 1191 2003 1191 1497 
Q 1191 994 1439 701 
Q 1688 409 2113 409 
Q 2538 409 2786 701 
Q 3034 994 3034 1497 
Q 3034 2003 2786 2293 
Q 2538 2584 2113 2584 
z
M 3366 4563 
L 3366 3988 
Q 3128 4100 2886 4159 
Q 2644 4219 2406 4219 
Q 1781 4219 1451 3797 
Q 1122 3375 1075 2522 
Q 1259 2794 1537 2939 
Q 1816 3084 2150 3084 
Q 2853 3084 3261 2657 
Q 3669 2231 3669 1497 
Q 3669 778 3244 343 
Q 2819 -91 2113 -91 
Q 1303 -91 875 529 
Q 447 1150 447 2328 
Q 447 3434 972 4092 
Q 1497 4750 2381 4750 
Q 2619 4750 2861 4703 
Q 3103 4656 3366 4563 
z
" transform="scale(0.015625)"/>
        <path id="DejaVuSans-2d" d="M 313 2009 
L 1997 2009 
L 1997 1497 
L 313 1497 
L 313 2009 
z
" transform="scale(0.015625)"/>
        <path id="DejaVuSans-31" d="M 794 531 
L 1825 531 
L 1825 4091 
L 703 3866 
L 703 4441 
L 1819 4666 
L 2450 4666 
L 2450 531 
L 3481 531 
L 3481 0 
L 794 0 
L 794 531 
z
" transform="scale(0.015625)"/>
       </defs>
       <use xlink:href="#DejaVuSans-32"/>
       <use xlink:href="#DejaVuSans-30" x="63.623047"/>
       <use xlink:href="#DejaVuSans-32" x="127.246094"/>
       <use xlink:href="#DejaVuSans-36" x="190.869141"/>
       <use xlink:href="#DejaVuSans-2d" x="254.492188"/>
       <use xlink:href="#DejaVuSans-30" x="290.576172"/>
       <use xlink:href="#DejaVuSans-31" x="354.199219"/>
       <use xlink:href="#DejaVuSans-2d" x="417.822266"/>
       <use xlink:href="#DejaVuSans-30" x="453.90625"/>
       <use xlink:href="#DejaVuSans-31" x="517.529297"/>
      </g>
     </g>
    </g>
    <g id="xtick_2">
     <g id="line2d_2">
      <g>
       <use xlink:href="#me562d1b6a4" x="354.177476" y="512.64" style="stroke: #000000; stroke-width: 0.8"/>
      </g>
     </g>
     <g id="text_2">
      <!-- 2026-01-15 -->
      <g transform="translate(325.119664 527.238438) scale(0.1 -0.1)">
       <defs>
        <path id="DejaVuSans-35" d="M 691 4666 
L 3169 4666 
L 3169 4134 
L 1269 4134 
L 1269 2991 
Q 1406 3038 1543 3061 
Q 1681 3084 1819 3084 
Q 2600 3084 3056 2656 
Q 3513 2228 3513 1497 
Q 3513 744 3044 326 
Q 2575 -91 1722 -91 
Q 1428 -91 1123 -41 
Q 819 9 494 109 
L 494 744 
Q 775 591 1075 516 
Q 1375 441 1709 441 
Q 2250 441 2565 725 
Q 2881 1009 2881 1497 
Q 2881 1984 2565 2268 
Q 2250 2553 1709 2553 
Q 1456 2553 1204 2497 
Q 953 2441 691 2322 
L 691 4666 
z
" transform="scale(0.015625)"/>
       </defs>
       <use xlink:href="#DejaVuSans-32"/>
       <use xlink:href="#DejaVuSans-30" x="63.623047"/>
       <use xlink:href="#DejaVuSans-32" x="127.246094"/>
       <use xlink:href="#DejaVuSans-36" x="190.869141"/>
       <use xlink:href="#DejaVuSans-2d" x="254.492188"/>
       <use xlink:href="#DejaVuSans-30" x="290.576172"/>
       <use xlink:href="#DejaVuSans-31" x="354.199219"/>
       <use xlink:href="#DejaVuSans-2d" x="417.822266"/>
       <use xlink:href="#DejaVuSans-31" x="453.90625"/>
       <use xlink:href="#DejaVuSans-35" x="517.529297"/>
      </g>
     </g>
    </g>
    <g id="xtick_3">
     <g id="line2d_3">
      <g>
       <use xlink:href="#me562d1b6a4" x="560.115061" y="512.64" style="stroke: #000000; stroke-width: 0.8"/>
      </g>
     </g>
     <g id="text_3">
      <!-- 2026-02-01 -->
      <g transform="translate(531.057249 527.238438) scale(0.1 -0.1)">
       <use xlink:href="#DejaVuSans-32"/>
       <use xlink:href="#DejaVuSans-30" x="63.623047"/>
       <use xlink:href="#DejaVuSans-32" x="127.246094"/>
       <use xlink:href="#DejaVuSans-36" x="190.869141"/>
       <use xlink:href="#DejaVuSans-2d" x="254.492188"/>
       <use xlink:href="#DejaVuSans-30" x="290.576172"/>
       <use xlink:href="#DejaVuSans-32" x="354.199219"/>
       <use xlink:href="#DejaVuSans-2d" x="417.822266"/>
       <use xlink:href="#DejaVuSans-30" x="453.90625"/>
       <use xlink:href="#DejaVuSans-31" x="517.529297"/>
      </g>
     </g>
    </g>
    <g id="xtick_4">
     <g id="line2d_4">
      <g>
       <use xlink:href="#me562d1b6a4" x="729.710719" y="512.64" style="stroke: #000000; stroke-width: 0.8"/>
      </g>
     </g>
     <g id="text_4">
      <!-- 2026-02-15 -->
      <g transform="translate(700.652907 527.238438) scale(0.1 -0.1)">
       <use xlink:href="#DejaVuSans-32"/>
       <use xlink:href="#DejaVuSans-30" x="63.623047"/>
       <use xlink:href="#DejaVuSans-32" x="127.246094"/>
       <use xlink:href="#DejaVuSans-36" x="190.869141"/>
       <use xlink:href="#DejaVuSans-2d" x="254.492188"/>
       <use xlink:href="#DejaVuSans-30" x="290.576172"/>
       <use xlink:href="#DejaVuSans-32" x="354.199219"/>
       <use xlink:href="#DejaVuSans-2d" x="417.822266"/>
       <use xlink:href="#DejaVuSans-31" x="453.90625"/>
       <use xlink:href="#DejaVuSans-35" x="517.529297"/>
      </g>
     </g>
    </g>
    <g id="xtick_5">
     <g id="line2d_5">
      <g>
       <use xlink:href="#me562d1b6a4" x="899.306377" y="512.64" style="stroke: #000000; stroke-width: 0.8"/>
      </g>
     </g>
     <g id="text_5">
      <!-- 2026-03-01 -->
      <g transform="translate(870.248565 527.238438) scale(0.1 -0.1)">
       <defs>
        <path id="DejaVuSans-33" d="M 2597 2516 
Q 3050 2419 3304 2112 
Q 3559 1806 3559 1356 
Q 3559 666 3084 287 
Q 2609 -91 1734 -91 
Q 1441 -91 1130 -33 
Q 819 25 488 141 
L 488 750 
Q 750 597 1062 519 
Q 1375 441 1716 441 
Q 2309 441 2620 675 
Q 2931 909 2931 1356 
Q 2931 1769 2642 2001 
Q 2353 2234 1838 2234 
L 1294 2234 
L 1294 2753 
L 1863 2753 
Q 2328 2753 2575 2939 
Q 2822 3125 2822 3475 
Q 2822 3834 2567 4026 
Q 2313 4219 1838 4219 
Q 1578 4219 1281 4162 
Q 984 4106 628 3988 
L 628 4550 
Q 988 4650 1302 4700 
Q 1616 4750 1894 4750 
Q 2613 4750 3031 4423 
Q 3450 4097 3450 3541 
Q 3450 3153 3228 2886 
Q 3006 2619 2597 2516 
z
" transform="scale(0.015625)"/>
       </defs>
       <use xlink:href="#DejaVuSans-32"/>
       <use xlink:href="#DejaVuSans-30" x="63.623047"/>
       <use xlink:href="#DejaVuSans-32" x="127.246094"/>
       <use xlink:href="#DejaVuSans-36" x="190.869141"/>
       <use xlink:href="#DejaVuSans-2d" x="254.492188"/>
       <use xlink:href="#DejaVuSans-30" x="290.576172"/>
       <use xlink:href="#DejaVuSans-33" x="354.199219"/>
       <use xlink:href="#DejaVuSans-2d" x="417.822266"/>
       <use xlink:href="#DejaVuSans-30" x="453.90625"/>
       <use xlink:href="#DejaVuSans-31" x="517.529297"/>
      </g>
     </g>
    </g>
   </g>
   <g id="matplotlib.axis_2">
    <g id="ytick_1">
     <g id="line2d_6">
      <defs>
       <path id="mac1a7331ad" d="M 0 0 
L -3.5 0 
" style="stroke: #000000; stroke-width: 0.8"/>
      </defs>
      <g>
       <use xlink:href="#mac1a7331ad" x="144" y="509.68181" style="stroke: #000000; stroke-width: 0.8"/>
      </g>
     </g>
     <g id="text_6">
      <!-- 13000 -->
      <g transform="translate(105.1875 513.481029) scale(0.1 -0.1)">
       <use xlink:href="#DejaVuSans-31"/>
       <use xlink:href="#DejaVuSans-33" x="63.623047"/>
       <use xlink:href="#DejaVuSans-30" x="127.246094"/>
       <use xlink:href="#DejaVuSans-30" x="190.869141"/>
       <use xlink:href="#DejaVuSans-30" x="254.492188"/>
      </g>
     </g>
    </g>
    <g id="ytick_2">
     <g id="line2d_7">
      <g>
       <use xlink:href="#mac1a7331ad" x="144" y="457.555113" style="stroke: #000000; stroke-width: 0.8"/>
      </g>
     </g>
     <g id="text_7">
      <!-- 13200 -->
      <g transform="translate(105.1875 461.354332) scale(0.1 -0.1)">
       <use xlink:href="#DejaVuSans-31"/>
       <use xlink:href="#DejaVuSans-33" x="63.623047"/>
       <use xlink:href="#DejaVuSans-32" x="127.246094"/>
       <use xlink:href="#DejaVuSans-30" x="190.869141"/>
       <use xlink:href="#DejaVuSans-30" x="254.492188"/>
      </g>
     </g>
    </g>
    <g id="ytick_3">
     <g id="line2d_8">
      <g>
       <use xlink:href="#mac1a7331ad" x="144" y="405.428416" style="stroke: #000000; stroke-width: 0.8"/>
      </g>
     </g>
     <g id="text_8">
      <!-- 13400 -->
      <g transform="translate(105.1875 409.227635) scale(0.1 -0.1)">
       <defs>
        <path id="DejaVuSans-34" d="M 2419 4116 
L 825 1625 
L 2419 1625 
L 2419 4116 
z
M 2253 4666 
L 3047 4666 
L 3047 1625 
L 3713 1625 
L 3713 1100 
L 3047 1100 
L 3047 0 
L 2419 0 
L 2419 1100 
L 313 1100 
L 313 1709 
L 2253 4666 
z
" transform="scale(0.015625)"/>
       </defs>
       <use xlink:href="#DejaVuSans-31"/>
       <use xlink:href="#DejaVuSans-33" x="63.623047"/>
       <use xlink:href="#DejaVuSans-34" x="127.246094"/>
       <use xlink:href="#DejaVuSans-30" x="190.869141"/>
       <use xlink:href="#DejaVuSans-30" x="254.492188"/>
      </g>
     </g>
    </g>
    <g id="ytick_4">
     <g id="line2d_9">
      <g>
       <use xlink:href="#mac1a7331ad" x="144" y="353.301719" style="stroke: #000000; stroke-width: 0.8"/>
      </g>
     </g>
     <g id="text_9">
      <!-- 13600 -->
      <g transform="translate(105.1875 357.100938) scale(0.1 -0.1)">
       <use xlink:href="#DejaVuSans-31"/>
       <use xlink:href="#DejaVuSans-33" x="63.623047"/>
       <use xlink:href="#DejaVuSans-36" x="127.246094"/>
       <use xlink:href="#DejaVuSans-30" x="190.869141"/>
       <use xlink:href="#DejaVuSans-30" x="254.492188"/>
      </g>
     </g>
    </g>
    <g id="ytick_5">
     <g id="line2d_10">
      <g>
       <use xlink:href="#mac1a7331ad" x="144" y="301.175023" style="stroke: #000000; stroke-width: 0.8"/>
      </g>
     </g>
     <g id="text_10">
      <!-- 13800 -->
      <g transform="translate(105.1875 304.974241) scale(0.1 -0.1)">
       <defs>
        <path id="DejaVuSans-38" d="M 2034 2216 
Q 1584 2216 1326 1975 
Q 1069 1734 1069 1313 
Q 1069 891 1326 650 
Q 1584 409 2034 409 
Q 2484 409 2743 651 
Q 3003 894 3003 1313 
Q 3003 1734 2745 1975 
Q 2488 2216 2034 2216 
z
M 1403 2484 
Q 997 2584 770 2862 
Q 544 3141 544 3541 
Q 544 4100 942 4425 
Q 1341 4750 2034 4750 
Q 2731 4750 3128 4425 
Q 3525 4100 3525 3541 
Q 3525 3141 3298 2862 
Q 3072 2584 2669 2484 
Q 3125 2378 3379 2068 
Q 3634 1759 3634 1313 
Q 3634 634 3220 271 
Q 2806 -91 2034 -91 
Q 1263 -91 848 271 
Q 434 634 434 1313 
Q 434 1759 690 2068 
Q 947 2378 1403 2484 
z
M 1172 3481 
Q 1172 3119 1398 2916 
Q 1625 2713 2034 2713 
Q 2441 2713 2670 2916 
Q 2900 3119 2900 3481 
Q 2900 3844 2670 4047 
Q 2441 4250 2034 4250 
Q 1625 4250 1398 4047 
Q 1172 3844 1172 3481 
z
" transform="scale(0.015625)"/>
       </defs>
       <use xlink:href="#DejaVuSans-31"/>
       <use xlink:href="#DejaVuSans-33" x="63.623047"/>
       <use xlink:href="#DejaVuSans-38" x="127.246094"/>
       <use xlink:href="#DejaVuSans-30" x="190.869141"/>
       <use xlink:href="#DejaVuSans-30" x="254.492188"/>
      </g>
     </g>
    </g>
    <g id="ytick_6">
     <g id="line2d_11">
      <g>
       <use xlink:href="#mac1a7331ad" x="144" y="249.048326" style="stroke: #000000; stroke-width: 0.8"/>
      </g>
     </g>
     <g id="text_11">
      <!-- 14000 -->
      <g transform="translate(105.1875 252.847545) scale(0.1 -0.1)">
       <use xlink:href="#DejaVuSans-31"/>
       <use xlink:href="#DejaVuSans-34" x="63.623047"/>
       <use xlink:href="#DejaVuSans-30" x="127.246094"/>
       <use xlink:href="#DejaVuSans-30" x="190.869141"/>
       <use xlink:href="#DejaVuSans-30" x="254.492188"/>
      </g>
     </g>
    </g>
    <g id="ytick_7">
     <g id="line2d_12">
      <g>
       <use xlink:href="#mac1a7331ad" x="144" y="196.921629" style="stroke: #000000; stroke-width: 0.8"/>
      </g>
     </g>
     <g id="text_12">
      <!-- 14200 -->
      <g transform="translate(105.1875 200.720848) scale(0.1 -0.1)">
       <use xlink:href="#DejaVuSans-31"/>
       <use xlink:href="#DejaVuSans-34" x="63.623047"/>
       <use xlink:href="#DejaVuSans-32" x="127.246094"/>
       <use xlink:href="#DejaVuSans-30" x="190.869141"/>
       <use xlink:href="#DejaVuSans-30" x="254.492188"/>
      </g>
     </g>
    </g>
    <g id="ytick_8">
     <g id="line2d_13">
      <g>
       <use xlink:href="#mac1a7331ad" x="144" y="144.794932" style="stroke: #000000; stroke-width: 0.8"/>
      </g>
     </g>
     <g id="text_13">
      <!-- 14400 -->
      <g transform="translate(105.1875 148.594151) scale(0.1 -0.1)">
       <use xlink:href="#DejaVuSans-31"/>
       <use xlink:href="#DejaVuSans-34" x="63.623047"/>
       <use xlink:href="#DejaVuSans-34" x="127.246094"/>
       <use xlink:href="#DejaVuSans-30" x="190.869141"/>
       <use xlink:href="#DejaVuSans-30" x="254.492188"/>
      </g>
     </g>
    </g>
    <g id="ytick_9">
     <g id="line2d_14">
      <g>
       <use xlink:href="#mac1a7331ad" x="144" y="92.668235" style="stroke: #000000; stroke-width: 0.8"/>
      </g>
     </g>
     <g id="text_14">
      <!-- 14600 -->
      <g transform="translate(105.1875 96.467454) scale(0.1 -0.1)">
       <use xlink:href="#DejaVuSans-31"/>
       <use xlink:href="#DejaVuSans-34" x="63.623047"/>
       <use xlink:href="#DejaVuSans-36" x="127.246094"/>
       <use xlink:href="#DejaVuSans-30" x="190.869141"/>
       <use xlink:href="#DejaVuSans-30" x="254.492188"/>
      </g>
     </g>
    </g>
   </g>
   <g id="line2d_15">
    <path d="M 184.581818 492.48 
L 196.695794 488.049231 
L 208.809769 480.751493 
L 220.923745 477.884525 
L 233.03772 476.581357 
L 245.151696 472.150588 
L 257.265672 468.241086 
L 269.379647 458.07638 
L 281.493623 452.86371 
L 293.607598 450.518009 
L 305.721574 449.996742 
L 317.83555 439.571403 
L 329.949525 433.055566 
L 342.063501 429.66733 
L 354.177476 421.327059 
L 366.291452 410.119819 
L 378.405427 409.077285 
L 390.519403 406.210317 
L 402.633379 399.173213 
L 414.747354 396.045611 
L 426.86133 383.013937 
L 438.975305 375.976833 
L 451.089281 369.721629 
L 463.203256 362.163258 
L 475.317232 361.120724 
L 487.431208 360.07819 
L 499.545183 350.434751 
L 511.659159 337.403077 
L 523.773134 329.062805 
L 535.88711 322.025701 
L 548.001085 320.983167 
L 560.115061 318.116199 
L 572.229037 312.903529 
L 584.343012 306.648326 
L 596.456988 304.563258 
L 608.570963 297.26552 
L 620.684939 292.834751 
L 632.798915 289.967783 
L 644.91289 279.803077 
L 657.026866 276.675475 
L 669.140841 267.813937 
L 681.254817 262.601267 
L 693.368792 259.473665 
L 705.482768 254.260995 
L 717.596744 251.915294 
L 729.710719 242.271855 
L 741.824695 229.761448 
L 753.93867 227.415747 
L 766.052646 222.203077 
L 778.166621 216.990407 
L 790.280597 212.299005 
L 802.394573 207.346968 
L 814.508548 199.527964 
L 826.622524 191.448326 
L 838.736499 180.241086 
L 850.850475 174.767783 
L 862.96445 159.390407 
L 875.078426 153.395837 
L 887.192402 150.268235 
L 899.306377 144.794932 
L 911.420353 137.757828 
L 923.534328 132.545158 
L 935.648304 124.726154 
L 947.76228 120.295385 
L 959.876255 114.040181 
L 971.990231 109.348778 
L 984.104206 105.960543 
L 996.218182 89.28 
" clip-path="url(#p9f5545218d)" style="fill: none; stroke: #1f77b4; stroke-width: 1.5; stroke-linecap: square"/>
   </g>
   <g id="patch_3">
    <path d="M 144 512.64 
L 144 69.12 
" style="fill: none; stroke: #000000; stroke-width: 0.8; stroke-linejoin: miter; stroke-linecap: square"/>
   </g>
   <g id="patch_4">
    <path d="M 1036.8 512.64 
L 1036.8 69.12 
" style="fill: none; stroke: #000000; stroke-width: 0.8; stroke-linejoin: miter; stroke-linecap: square"/>
   </g>
   <g id="patch_5">
    <path d="M 144 512.64 
L 1036.8 512.64 
" style="fill: none; stroke: #000000; stroke-width: 0.8; stroke-linejoin: miter; stroke-linecap: square"/>
   </g>
   <g id="patch_6">
    <path d="M 144 69.12 
L 1036.8 69.12 
" style="fill: none; stroke: #000000; stroke-width: 0.8; stroke-linejoin: miter; stroke-linecap: square"/>
   </g>
   <g id="text_15">
    <!-- Number of AEDs in the OpenStreetMap database in Poland from 2026-01-01, day by day. As at: 2026-03-09 -->
    <g transform="translate(144 63.12) scale(0.14 -0.14)">
     <defs>
      <path id="DejaVuSans-4e" d="M 628 4666 
L 1478 4666 
L 3547 763 
L 3547 4666 
L 4159 4666 
L 4159 0 
L 3309 0 
L 1241 3903 
L 1241 0 
L 628 0 
L 628 4666 
z
" transform="scale(0.015625)"/>
      <path id="DejaVuSans-75" d="M 544 1381 
L 544 3500 
L 1119 3500 
L 1119 1403 
Q 1119 906 1312 657 
Q 1506 409 1894 409 
Q 2359 409 2629 706 
Q 2900 1003 2900 1516 
L 2900 3500 
L 3475 3500 
L 3475 0 
L 2900 0 
L 2900 538 
Q 2691 219 2414 64 
Q 2138 -91 1772 -91 
Q 1169 -91 856 284 
Q 544 659 544 1381 
z
M 1991 3584 
L 1991 3584 
z
" transform="scale(0.015625)"/>
      <path id="DejaVuSans-6d" d="M 3328 2828 
Q 3544 3216 3844 3400 
Q 4144 3584 4550 3584 
Q 5097 3584 5394 3201 
Q 5691 2819 5691 2113 
L 5691 0 
L 5113 0 
L 5113 2094 
Q 5113 2597 4934 2840 
Q 4756 3084 4391 3084 
Q 3944 3084 3684 2787 
Q 3425 2491 3425 1978 
L 3425 0 
L 2847 0 
L 2847 2094 
Q 2847 2600 2669 2842 
Q 2491 3084 2119 3084 
Q 1678 3084 1418 2786 
Q 1159 2488 1159 1978 
L 1159 0 
L 581 0 
L 581 3500 
L 1159 3500 
L 1159 2956 
Q 1356 3278 1631 3431 
Q 1906 3584 2284 3584 
Q 2666 3584 2933 3390 
Q 3200 3197 3328 2828 
z
" transform="scale(0.015625)"/>
      <path id="DejaVuSans-62" d="M 3116 1747 
Q 3116 2381 2855 2742 
Q 2594 3103 2138 3103 
Q 1681 3103 1420 2742 
Q 1159 2381 1159 1747 
Q 1159 1113 1420 752 
Q 1681 391 2138 391 
Q 2594 391 2855 752 
Q 3116 1113 3116 1747 
z
M 1159 2969 
Q 1341 3281 1617 3432 
Q 1894 3584 2278 3584 
Q 2916 3584 3314 3078 
Q 3713 2572 3713 1747 
Q 3713 922 3314 415 
Q 2916 -91 2278 -91 
Q 1894 -91 1617 61 
Q 1341 213 1159 525 
L 1159 0 
L 581 0 
L 581 4863 
L 1159 4863 
L 1159 2969 
z
" transform="scale(0.015625)"/>
      <path id="DejaVuSans-65" d="M 3597 1894 
L 3597 1613 
L 953 1613 
Q 991 1019 1311 708 
Q 1631 397 2203 397 
Q 2534 397 2845 478 
Q 3156 559 3463 722 
L 3463 178 
Q 3153 47 2828 -22 
Q 2503 -91 2169 -91 
Q 1331 -91 842 396 
Q 353 884 353 1716 
Q 353 2575 817 3079 
Q 1281 3584 2069 3584 
Q 2775 3584 3186 3129 
Q 3597 2675 3597 1894 
z
M 3022 2063 
Q 3016 2534 2758 2815 
Q 2500 3097 2075 3097 
Q 1594 3097 1305 2825 
Q 1016 2553 972 2059 
L 3022 2063 
z
" transform="scale(0.015625)"/>
      <path id="DejaVuSans-72" d="M 2631 2963 
Q 2534 3019 2420 3045 
Q 2306 3072 2169 3072 
Q 1681 3072 1420 2755 
Q 1159 2438 1159 1844 
L 1159 0 
L 581 0 
L 581 3500 
L 1159 3500 
L 1159 2956 
Q 1341 3275 1631 3429 
Q 1922 3584 2338 3584 
Q 2397 3584 2469 3576 
Q 2541 3569 2628 3553 
L 2631 2963 
z
" transform="scale(0.015625)"/>
      <path id="DejaVuSans-20" transform="scale(0.015625)"/>
      <path id="DejaVuSans-6f" d="M 1959 3097 
Q 1497 3097 1228 2736 
Q 959 2375 959 1747 
Q 959 1119 1226 758 
Q 1494 397 1959 397 
Q 2419 397 2687 759 
Q 2956 1122 2956 1747 
Q 2956 2369 2687 2733 
Q 2419 3097 1959 3097 
z
M 1959 3584 
Q 2709 3584 3137 3096 
Q 3566 2609 3566 1747 
Q 3566 888 3137 398 
Q 2709 -91 1959 -91 
Q 1206 -91 779 398 
Q 353 888 353 1747 
Q 353 2609 779 3096 
Q 1206 3584 1959 3584 
z
" transform="scale(0.015625)"/>
      <path id="DejaVuSans-66" d="M 2375 4863 
L 2375 4384 
L 1825 4384 
Q 1516 4384 1395 4259 
Q 1275 4134 1275 3809 
L 1275 3500 
L 2222 3500 
L 2222 3053 
L 1275 3053 
L 1275 0 
L 697 0 
L 697 3053 
L 147 3053 
L 147 3500 
L 697 3500 
L 697 3744 
Q 697 4328 969 4595 
Q 1241 4863 1831 4863 
L 2375 4863 
z
" transform="scale(0.015625)"/>
      <path id="DejaVuSans-41" d="M 2188 4044 
L 1331 1722 
L 3047 1722 
L 2188 4044 
z
M 1831 4666 
L 2547 4666 
L 4325 0 
L 3669 0 
L 3244 1197 
L 1141 1197 
L 716 0 
L 50 0 
L 1831 4666 
z
" transform="scale(0.015625)"/>
      <path id="DejaVuSans-45" d="M 628 4666 
L 3578 4666 
L 3578 4134 
L 1259 4134 
L 1259 2753 
L 3481 2753 
L 3481 2222 
L 1259 2222 
L 1259 531 
L 3634 531 
L 3634 0 
L 628 0 
L 628 4666 
z
" transform="scale(0.015625)"/>
      <path id="DejaVuSans-44" d="M 1259 4147 
L 1259 519 
L 2022 519 
Q 2988 519 3436 956 
Q 3884 1394 3884 2338 
Q 3884 3275 3436 3711 
Q 2988 4147 2022 4147 
L 1259 4147 
z
M 628 4666 
L 1925 4666 
Q 3281 4666 3915 4102 
Q 4550 3538 4550 2338 
Q 4550 1131 3912 565 
Q 3275 0 1925 0 
L 628 0 
L 628 4666 
z
" transform="scale(0.015625)"/>
      <path id="DejaVuSans-73" d="M 2834 3397 
L 2834 2853 
Q 2591 2978 2328 3040 
Q 2066 3103 1784 3103 
Q 1356 3103 1142 2972 
Q 928 2841 928 2578 
Q 928 2378 1081 2264 
Q 1234 2150 1697 2047 
L 1894 2003 
Q 2506 1872 2764 1633 
Q 3022 1394 3022 966 
Q 3022 478 2636 193 
Q 2250 -91 1575 -91 
Q 1294 -91 989 -36 
Q 684 19 347 128 
L 347 722 
Q 666 556 975 473 
Q 1284 391 1588 391 
Q 1994 391 2212 530 
Q 2431 669 2431 922 
Q 2431 1156 2273 1281 
Q 2116 1406 1581 1522 
L 1381 1569 
Q 847 1681 609 1914 
Q 372 2147 372 2553 
Q 372 3047 722 3315 
Q 1072 3584 1716 3584 
Q 2034 3584 2315 3537 
Q 2597 3491 2834 3397 
z
" transform="scale(0.015625)"/>
      <path id="DejaVuSans-69" d="M 603 3500 
L 1178 3500 
L 1178 0 
L 603 0 
L 603 3500 
z
M 603 4863 
L 1178 4863 
L 1178 4134 
L 603 4134 
L 603 4863 
z
" transform="scale(0.015625)"/>
      <path id="DejaVuSans-6e" d="M 3513 2113 
L 3513 0 
L 2938 0 
L 2938 2094 
Q 2938 2591 2744 2837 
Q 2550 3084 2163 3084 
Q 1697 3084 1428 2787 
Q 1159 2491 1159 1978 
L 1159 0 
L 581 0 
L 581 3500 
L 1159 3500 
L 1159 2956 
Q 1366 3272 1645 3428 
Q 1925 3584 2291 3584 
Q 2894 3584 3203 3211 
Q 3513 2838 3513 2113 
z
" transform="scale(0.015625)"/>
      <path id="DejaVuSans-74" d="M 1172 4494 
L 1172 3500 
L 2356 3500 
L 2356 3053 
L 1172 3053 
L 1172 1153 
Q 1172 725 1289 603 
Q 1406 481 1766 481 
L 2356 481 
L 2356 0 
L 1766 0 
Q 1100 0 847 248 
Q 594 497 594 1153 
L 594 3053 
L 172 3053 
L 172 3500 
L 594 3500 
L 594 4494 
L 1172 4494 
z
" transform="scale(0.015625)"/>
      <path id="DejaVuSans-68" d="M 3513 2113 
L 3513 0 
L 2938 0 
L 2938 2094 
Q 2938 2591 2744 2837 
Q 2550 3084 2163 3084 
Q 1697 3084 1428 2787 
Q 1159 2491 1159 1978 
L 1159 0 
L 581 0 
L 581 4863 
L 1159 4863 
L 1159 2956 
Q 1366 3272 1645 3428 
Q 1925 3584 2291 3584 
Q 2894 3584 3203 3211 
Q 3513 2838 3513 2113 
z
" transform="scale(0.015625)"/>
      <path id="DejaVuSans-4f" d="M 2522 4238 
Q 1834 4238 1429 3725 
Q 1025 3213 1025 2328 
Q 1025 1447 1429 934 
Q 1834 422 2522 422 
Q 3209 422 3611 934 
Q 4013 1447 4013 2328 
Q 4013 3213 3611 3725 
Q 3209 4238 2522 4238 
z
M 2522 4750 
Q 3503 4750 4090 4092 
Q 4678 3434 4678 2328 
Q 4678 1225 4090 567 
Q 3503 -91 2522 -91 
Q 1538 -91 948 565 
Q 359 1222 359 2328 
Q 359 3434 948 4092 
Q 1538 4750 2522 4750 
z
" transform="scale(0.015625)"/>
      <path id="DejaVuSans-70" d="M 1159 525 
L 1159 -1331 
L 581 -1331 
L 581 3500 
L 1159 3500 
L 1159 2969 
Q 1341 3281 1617 3432 
Q 1894 3584 2278 3584 
Q 2916 3584 3314 3078 
Q 3713 2572 3713 1747 
Q 3713 922 3314 415 
Q 2916 -91 2278 -91 
Q 1894 -91 1617 61 
Q 1341 213 1159 525 
z
M 3116 1747 
Q 3116 2381 2855 2742 
Q 2594 3103 2138 3103 
Q 1681 3103 1420 2742 
Q 1159 2381 1159 1747 
Q 1159 1113 1420 752 
Q 1681 391 2138 391 
Q 2594 391 2855 752 
Q 3116 1113 3116 1747 
z
" transform="scale(0.015625)"/>
      <path id="DejaVuSans-53" d="M 3425 4513 
L 3425 3897 
Q 3066 4069 2747 4153 
Q 2428 4238 2131 4238 
Q 1616 4238 1336 4038 
Q 1056 3838 1056 3469 
Q 1056 3159 1242 3001 
Q 1428 2844 1947 2747 
L 2328 2669 
Q 3034 2534 3370 2195 
Q 3706 1856 3706 1288 
Q 3706 609 3251 259 
Q 2797 -91 1919 -91 
Q 1588 -91 1214 -16 
Q 841 59 441 206 
L 441 856 
Q 825 641 1194 531 
Q 1563 422 1919 422 
Q 2459 422 2753 634 
Q 3047 847 3047 1241 
Q 3047 1584 2836 1778 
Q 2625 1972 2144 2069 
L 1759 2144 
Q 1053 2284 737 2584 
Q 422 2884 422 3419 
Q 422 4038 858 4394 
Q 1294 4750 2059 4750 
Q 2388 4750 2728 4690 
Q 3069 4631 3425 4513 
z
" transform="scale(0.015625)"/>
      <path id="DejaVuSans-4d" d="M 628 4666 
L 1569 4666 
L 2759 1491 
L 3956 4666 
L 4897 4666 
L 4897 0 
L 4281 0 
L 4281 4097 
L 3078 897 
L 2444 897 
L 1241 4097 
L 1241 0 
L 628 0 
L 628 4666 
z
" transform="scale(0.015625)"/>
      <path id="DejaVuSans-61" d="M 2194 1759 
Q 1497 1759 1228 1600 
Q 959 1441 959 1056 
Q 959 750 1161 570 
Q 1363 391 1709 391 
Q 2188 391 2477 730 
Q 2766 1069 2766 1631 
L 2766 1759 
L 2194 1759 
z
M 3341 1997 
L 3341 0 
L 2766 0 
L 2766 531 
Q 2569 213 2275 61 
Q 1981 -91 1556 -91 
Q 1019 -91 701 211 
Q 384 513 384 1019 
Q 384 1609 779 1909 
Q 1175 2209 1959 2209 
L 2766 2209 
L 2766 2266 
Q 2766 2663 2505 2880 
Q 2244 3097 1772 3097 
Q 1472 3097 1187 3025 
Q 903 2953 641 2809 
L 641 3341 
Q 956 3463 1253 3523 
Q 1550 3584 1831 3584 
Q 2591 3584 2966 3190 
Q 3341 2797 3341 1997 
z
" transform="scale(0.015625)"/>
      <path id="DejaVuSans-64" d="M 2906 2969 
L 2906 4863 
L 3481 4863 
L 3481 0 
L 2906 0 
L 2906 525 
Q 2725 213 2448 61 
Q 2172 -91 1784 -91 
Q 1150 -91 751 415 
Q 353 922 353 1747 
Q 353 2572 751 3078 
Q 1150 3584 1784 3584 
Q 2172 3584 2448 3432 
Q 2725 3281 2906 2969 
z
M 947 1747 
Q 947 1113 1208 752 
Q 1469 391 1925 391 
Q 2381 391 2643 752 
Q 2906 1113 2906 1747 
Q 2906 2381 2643 2742 
Q 2381 3103 1925 3103 
Q 1469 3103 1208 2742 
Q 947 2381 947 1747 
z
" transform="scale(0.015625)"/>
      <path id="DejaVuSans-50" d="M 1259 4147 
L 1259 2394 
L 2053 2394 
Q 2494 2394 2734 2622 
Q 2975 2850 2975 3272 
Q 2975 3691 2734 3919 
Q 2494 4147 2053 4147 
L 1259 4147 
z
M 628 4666 
L 2053 4666 
Q 2838 4666 3239 4311 
Q 3641 3956 3641 3272 
Q 3641 2581 3239 2228 
Q 2838 1875 2053 1875 
L 1259 1875 
L 1259 0 
L 628 0 
L 628 4666 
z
" transform="scale(0.015625)"/>
      <path id="DejaVuSans-6c" d="M 603 4863 
L 1178 4863 
L 1178 0 
L 603 0 
L 603 4863 
z
" transform="scale(0.015625)"/>
      <path id="DejaVuSans-2c" d="M 750 794 
L 1409 794 
L 1409 256 
L 897 -744 
L 494 -744 
L 750 256 
L 750 794 
z
" transform="scale(0.015625)"/>
      <path id="DejaVuSans-79" d="M 2059 -325 
Q 1816 -950 1584 -1140 
Q 1353 -1331 966 -1331 
L 506 -1331 
L 506 -850 
L 844 -850 
Q 1081 -850 1212 -737 
Q 1344 -625 1503 -206 
L 1606 56 
L 191 3500 
L 800 3500 
L 1894 763 
L 2988 3500 
L 3597 3500 
L 2059 -325 
z
" transform="scale(0.015625)"/>
      <path id="DejaVuSans-2e" d="M 684 794 
L 1344 794 
L 1344 0 
L 684 0 
L 684 794 
z
" transform="scale(0.015625)"/>
      <path id="DejaVuSans-3a" d="M 750 794 
L 1409 794 
L 1409 0 
L 750 0 
L 750 794 
z
M 750 3309 
L 1409 3309 
L 1409 2516 
L 750 2516 
L 750 3309 
z
" transform="scale(0.015625)"/>
      <path id="DejaVuSans-39" d="M 703 97 
L 703 672 
Q 941 559 1184 500 
Q 1428 441 1663 441 
Q 2288 441 2617 861 
Q 2947 1281 2994 2138 
Q 2813 1869 2534 1725 
Q 2256 1581 1919 1581 
Q 1219 1581 811 2004 
Q 403 2428 403 3163 
Q 403 3881 828 4315 
Q 1253 4750 1959 4750 
Q 2769 4750 3195 4129 
Q 3622 3509 3622 2328 
Q 3622 1225 3098 567 
Q 2575 -91 1691 -91 
Q 1453 -91 1209 -44 
Q 966 3 703 97 
z
M 1959 2075 
Q 2384 2075 2632 2365 
Q 2881 2656 2881 3163 
Q 2881 3666 2632 3958 
Q 2384 4250 1959 4250 
Q 1534 4250 1286 3958 
Q 1038 3666 1038 3163 
Q 1038 2656 1286 2365 
Q 1534 2075 1959 2075 
z
" transform="scale(0.015625)"/>
     </defs>
     <use xlink:href="#DejaVuSans-4e"/>
     <use xlink:href="#DejaVuSans-75" x="74.804688"/>
     <use xlink:href="#DejaVuSans-6d" x="138.183594"/>
     <use xlink:href="#DejaVuSans-62" x="235.595703"/>
     <use xlink:href="#DejaVuSans-65" x="299.072266"/>
     <use xlink:href="#DejaVuSans-72" x="360.595703"/>
     <use xlink:href="#DejaVuSans-20" x="401.708984"/>
     <use xlink:href="#DejaVuSans-6f" x="433.496094"/>
     <use xlink:href="#DejaVuSans-66" x="494.677734"/>
     <use xlink:href="#DejaVuSans-20" x="529.882812"/>
     <use xlink:href="#DejaVuSans-41" x="561.669922"/>
     <use xlink:href="#DejaVuSans-45" x="630.078125"/>
     <use xlink:href="#DejaVuSans-44" x="693.261719"/>
     <use xlink:href="#DejaVuSans-73" x="770.263672"/>
     <use xlink:href="#DejaVuSans-20" x="822.363281"/>
     <use xlink:href="#DejaVuSans-69" x="854.150391"/>
     <use xlink:href="#DejaVuSans-6e" x="881.933594"/>
     <use xlink:href="#DejaVuSans-20" x="945.3125"/>
     <use xlink:href="#DejaVuSans-74" x="977.099609"/>
     <use xlink:href="#DejaVuSans-68" x="1016.308594"/>
     <use xlink:href="#DejaVuSans-65" x="1079.6875"/>
     <use xlink:href="#DejaVuSans-20" x="1141.210938"/>
     <use xlink:href="#DejaVuSans-4f" x="1172.998047"/>
     <use xlink:href="#DejaVuSans-70" x="1251.708984"/>
     <use xlink:href="#DejaVuSans-65" x="1315.185547"/>
     <use xlink:href="#DejaVuSans-6e" x="1376.708984"/>
     <use xlink:href="#DejaVuSans-53" x="1440.087891"/>
     <use xlink:href="#DejaVuSans-74" x="1503.564453"/>
     <use xlink:href="#DejaVuSans-72" x="1542.773438"/>
     <use xlink:href="#DejaVuSans-65" x="1581.636719"/>
     <use xlink:href="#DejaVuSans-65" x="1643.160156"/>
     <use xlink:href="#DejaVuSans-74" x="1704.683594"/>
     <use xlink:href="#DejaVuSans-4d" x="1743.892578"/>
     <use xlink:href="#DejaVuSans-61" x="1830.171875"/>
     <use xlink:href="#DejaVuSans-70" x="1891.451172"/>
     <use xlink:href="#DejaVuSans-20" x="1954.927734"/>
     <use xlink:href="#DejaVuSans-64" x="1986.714844"/>
     <use xlink:href="#DejaVuSans-61" x="2050.191406"/>
     <use xlink:href="#DejaVuSans-74" x="2111.470703"/>
     <use xlink:href="#DejaVuSans-61" x="2150.679688"/>
     <use xlink:href="#DejaVuSans-62" x="2211.958984"/>
     <use xlink:href="#DejaVuSans-61" x="2275.435547"/>
     <use xlink:href="#DejaVuSans-73" x="2336.714844"/>
     <use xlink:href="#DejaVuSans-65" x="2388.814453"/>
     <use xlink:href="#DejaVuSans-20" x="2450.337891"/>
     <use xlink:href="#DejaVuSans-69" x="2482.125"/>
     <use xlink:href="#DejaVuSans-6e" x="2509.908203"/>
     <use xlink:href="#DejaVuSans-20" x="2573.287109"/>
     <use xlink:href="#DejaVuSans-50" x="2605.074219"/>
     <use xlink:href="#DejaVuSans-6f" x="2661.751953"/>
     <use xlink:href="#DejaVuSans-6c" x="2722.933594"/>
     <use xlink:href="#DejaVuSans-61" x="2750.716797"/>
     <use xlink:href="#DejaVuSans-6e" x="2811.996094"/>
     <use xlink:href="#DejaVuSans-64" x="2875.375"/>
     <use xlink:href="#DejaVuSans-20" x="2938.851562"/>
     <use xlink:href="#DejaVuSans-66" x="2970.638672"/>
     <use xlink:href="#DejaVuSans-72" x="3005.84375"/>
     <use xlink:href="#DejaVuSans-6f" x="3044.707031"/>
     <use xlink:href="#DejaVuSans-6d" x="3105.888672"/>
     <use xlink:href="#DejaVuSans-20" x="3203.300781"/>
     <use xlink:href="#DejaVuSans-32" x="3235.087891"/>
     <use xlink:href="#DejaVuSans-30" x="3298.710938"/>
     <use xlink:href="#DejaVuSans-32" x="3362.333984"/>
     <use xlink:href="#DejaVuSans-36" x="3425.957031"/>
     <use xlink:href="#DejaVuSans-2d" x="3489.580078"/>
     <use xlink:href="#DejaVuSans-30" x="3525.664062"/>
     <use xlink:href="#DejaVuSans-31" x="3589.287109"/>
     <use xlink:href="#DejaVuSans-2d" x="3652.910156"/>
     <use xlink:href="#DejaVuSans-30" x="3688.994141"/>
     <use xlink:href="#DejaVuSans-31" x="3752.617188"/>
     <use xlink:href="#DejaVuSans-2c" x="3816.240234"/>
     <use xlink:href="#DejaVuSans-20" x="3848.027344"/>
     <use xlink:href="#DejaVuSans-64" x="3879.814453"/>
     <use xlink:href="#DejaVuSans-61" x="3943.291016"/>
     <use xlink:href="#DejaVuSans-79" x="4004.570312"/>
     <use xlink:href="#DejaVuSans-20" x="4063.75"/>
     <use xlink:href="#DejaVuSans-62" x="4095.537109"/>
     <use xlink:href="#DejaVuSans-79" x="4159.013672"/>
     <use xlink:href="#DejaVuSans-20" x="4218.193359"/>
     <use xlink:href="#DejaVuSans-64" x="4249.980469"/>
     <use xlink:href="#DejaVuSans-61" x="4313.457031"/>
     <use xlink:href="#DejaVuSans-79" x="4374.736328"/>
     <use xlink:href="#DejaVuSans-2e" x="4419.666016"/>
     <use xlink:href="#DejaVuSans-20" x="4451.453125"/>
     <use xlink:href="#DejaVuSans-41" x="4483.240234"/>
     <use xlink:href="#DejaVuSans-73" x="4551.648438"/>
     <use xlink:href="#DejaVuSans-20" x="4603.748047"/>
     <use xlink:href="#DejaVuSans-61" x="4635.535156"/>
     <use xlink:href="#DejaVuSans-74" x="4696.814453"/>
     <use xlink:href="#DejaVuSans-3a" x="4736.023438"/>
     <use xlink:href="#DejaVuSans-20" x="4769.714844"/>
     <use xlink:href="#DejaVuSans-32" x="4801.501953"/>
     <use xlink:href="#DejaVuSans-30" x="4865.125"/>
     <use xlink:href="#DejaVuSans-32" x="4928.748047"/>
     <use xlink:href="#DejaVuSans-36" x="4992.371094"/>
     <use xlink:href="#DejaVuSans-2d" x="5055.994141"/>
     <use xlink:href="#DejaVuSans-30" x="5092.078125"/>
     <use xlink:href="#DejaVuSans-33" x="5155.701172"/>
     <use xlink:href="#DejaVuSans-2d" x="5219.324219"/>
     <use xlink:href="#DejaVuSans-30" x="5255.408203"/>
     <use xlink:href="#DejaVuSans-39" x="5319.03125"/>
    </g>
   </g>
  </g>
 </g>
 <defs>
  <clipPath id="p9f5545218d">
   <rect x="144" y="69.12" width="892.8" height="443.52"/>
  </clipPath>
 </defs>
</svg>
