<?xml version="1.0" encoding="utf-8" standalone="no"?>
<!DOCTYPE svg PUBLIC "-//W3C//DTD SVG 1.1//EN"
  "http://www.w3.org/Graphics/SVG/1.1/DTD/svg11.dtd">
<svg xmlns:xlink="http://www.w3.org/1999/xlink" width="1152pt" height="576pt" viewBox="0 0 1152 576" xmlns="http://www.w3.org/2000/svg" version="1.1">
 <metadata>
  <rdf:RDF xmlns:dc="http://purl.org/dc/elements/1.1/" xmlns:cc="http://creativecommons.org/ns#" xmlns:rdf="http://www.w3.org/1999/02/22-rdf-syntax-ns#">
   <cc:Work>
    <dc:type rdf:resource="http://purl.org/dc/dcmitype/StillImage"/>
    <dc:date>1980-01-01T00:00:00+00:00</dc:date>
    <dc:format>image/svg+xml</dc:format>
    <dc:creator>
     <cc:Agent>
      <dc:title>Matplotlib v3.9.1, https://matplotlib.org/</dc:title>
     </cc:Agent>
    </dc:creator>
   </cc:Work>
  </rdf:RDF>
 </metadata>
 <defs>
  <style type="text/css">*{stroke-linejoin: round; stroke-linecap: butt}</style>
 </defs>
 <g id="figure_1">
  <g id="patch_1">
   <path d="M 0 576 
L 1152 576 
L 1152 0 
L 0 0 
z
" style="fill: #ffffff"/>
  </g>
  <g id="axes_1">
   <g id="patch_2">
    <path d="M 144 512.64 
L 1036.8 512.64 
L 1036.8 69.12 
L 144 69.12 
z
" style="fill: #ffffff"/>
   </g>
   <g id="PathCollection_1">
    <path d="M 184.581818 494.716068 
C 185.17483 494.716068 185.743634 494.480462 186.162957 494.061139 
C 186.58228 493.641816 186.817886 493.073012 186.817886 492.48 
C 186.817886 491.886988 186.58228 491.318184 186.162957 490.898861 
C 185.743634 490.479538 185.17483 490.243932 184.581818 490.243932 
C 183.988806 490.243932 183.420002 490.479538 183.000679 490.898861 
C 182.581356 491.318184 182.34575 491.886988 182.34575 492.48 
C 182.34575 493.073012 182.581356 493.641816 183.000679 494.061139 
C 183.420002 494.480462 183.988806 494.716068 184.581818 494.716068 
z
" clip-path="url(#pf1bd39812a)" style="fill: #1f77b4; fill-opacity: 0.3; stroke: #1f77b4; stroke-opacity: 0.3"/>
    <path d="M 210.763636 490.596179 
C 211.701271 490.596179 212.600629 490.223653 213.263636 489.560645 
C 213.926644 488.897637 214.29917 487.99828 214.29917 487.060645 
C 214.29917 486.123011 213.926644 485.223653 213.263636 484.560645 
C 212.600629 483.897637 211.701271 483.525111 210.763636 483.525111 
C 209.826002 483.525111 208.926644 483.897637 208.263636 484.560645 
C 207.600629 485.223653 207.228102 486.123011 207.228102 487.060645 
C 207.228102 487.99828 207.600629 488.897637 208.263636 489.560645 
C 208.926644 490.223653 209.826002 490.596179 210.763636 490.596179 
z
" clip-path="url(#pf1bd39812a)" style="fill: #1f77b4; fill-opacity: 0.3; stroke: #1f77b4; stroke-opacity: 0.3"/>
    <path d="M 236.945455 476.926305 
C 238.569485 476.926305 240.127218 476.281071 241.275582 475.132708 
C 242.423945 473.984345 243.069179 472.426611 243.069179 470.802581 
C 243.069179 469.17855 242.423945 467.620817 241.275582 466.472454 
C 240.127218 465.324091 238.569485 464.678856 236.945455 464.678856 
C 235.321424 464.678856 233.763691 465.324091 232.615328 466.472454 
C 231.466964 467.620817 230.82173 469.17855 230.82173 470.802581 
C 230.82173 472.426611 231.466964 473.984345 232.615328 475.132708 
C 233.763691 476.281071 235.321424 476.926305 236.945455 476.926305 
z
" clip-path="url(#pf1bd39812a)" style="fill: #1f77b4; fill-opacity: 0.3; stroke: #1f77b4; stroke-opacity: 0.3"/>
    <path d="M 263.127273 470.289581 
C 263.853561 470.289581 264.550201 470.001023 265.063764 469.487459 
C 265.577328 468.973896 265.865886 468.277256 265.865886 467.550968 
C 265.865886 466.824679 265.577328 466.12804 265.063764 465.614476 
C 264.550201 465.100912 263.853561 464.812355 263.127273 464.812355 
C 262.400984 464.812355 261.704345 465.100912 261.190781 465.614476 
C 260.677217 466.12804 260.38866 466.824679 260.38866 467.550968 
C 260.38866 468.277256 260.677217 468.973896 261.190781 469.487459 
C 261.704345 470.001023 262.400984 470.289581 263.127273 470.289581 
z
" clip-path="url(#pf1bd39812a)" style="fill: #1f77b4; fill-opacity: 0.3; stroke: #1f77b4; stroke-opacity: 0.3"/>
    <path d="M 289.309091 463.352136 
C 290.495115 463.352136 291.632723 462.880923 292.471369 462.042278 
C 293.310014 461.203632 293.781227 460.066024 293.781227 458.88 
C 293.781227 457.693976 293.310014 456.556368 292.471369 455.717722 
C 291.632723 454.879077 290.495115 454.407864 289.309091 454.407864 
C 288.123067 454.407864 286.985459 454.879077 286.146813 455.717722 
C 285.308167 456.556368 284.836955 457.693976 284.836955 458.88 
C 284.836955 460.066024 285.308167 461.203632 286.146813 462.042278 
C 286.985459 462.880923 288.123067 463.352136 289.309091 463.352136 
z
" clip-path="url(#pf1bd39812a)" style="fill: #1f77b4; fill-opacity: 0.3; stroke: #1f77b4; stroke-opacity: 0.3"/>
    <path d="M 315.490909 453.04129 
C 316.816925 453.04129 318.088808 452.514459 319.026443 451.576824 
C 319.964078 450.63919 320.490909 449.367306 320.490909 448.04129 
C 320.490909 446.715275 319.964078 445.443391 319.026443 444.505756 
C 318.088808 443.568122 316.816925 443.04129 315.490909 443.04129 
C 314.164894 443.04129 312.89301 443.568122 311.955375 444.505756 
C 311.017741 445.443391 310.490909 446.715275 310.490909 448.04129 
C 310.490909 449.367306 311.017741 450.63919 311.955375 451.576824 
C 312.89301 452.514459 314.164894 453.04129 315.490909 453.04129 
z
" clip-path="url(#pf1bd39812a)" style="fill: #1f77b4; fill-opacity: 0.3; stroke: #1f77b4; stroke-opacity: 0.3"/>
    <path d="M 341.672727 448.109616 
C 342.265739 448.109616 342.834543 447.87401 343.253866 447.454687 
C 343.673189 447.035364 343.908795 446.466561 343.908795 445.873548 
C 343.908795 445.280536 343.673189 444.711732 343.253866 444.29241 
C 342.834543 443.873087 342.265739 443.63748 341.672727 443.63748 
C 341.079715 443.63748 340.510911 443.873087 340.091588 444.29241 
C 339.672266 444.711732 339.436659 445.280536 339.436659 445.873548 
C 339.436659 446.466561 339.672266 447.035364 340.091588 447.454687 
C 340.510911 447.87401 341.079715 448.109616 341.672727 448.109616 
z
" clip-path="url(#pf1bd39812a)" style="fill: #1f77b4; fill-opacity: 0.3; stroke: #1f77b4; stroke-opacity: 0.3"/>
    <path d="M 367.854545 441.674717 
C 369.04057 441.674717 370.178177 441.203504 371.016823 440.364858 
C 371.855469 439.526212 372.326681 438.388605 372.326681 437.202581 
C 372.326681 436.016556 371.855469 434.878949 371.016823 434.040303 
C 370.178177 433.201657 369.04057 432.730445 367.854545 432.730445 
C 366.668521 432.730445 365.530914 433.201657 364.692268 434.040303 
C 363.853622 434.878949 363.382409 436.016556 363.382409 437.202581 
C 363.382409 438.388605 363.853622 439.526212 364.692268 440.364858 
C 365.530914 441.203504 366.668521 441.674717 367.854545 441.674717 
z
" clip-path="url(#pf1bd39812a)" style="fill: #1f77b4; fill-opacity: 0.3; stroke: #1f77b4; stroke-opacity: 0.3"/>
    <path d="M 394.036364 436.689581 
C 394.762652 436.689581 395.459292 436.401023 395.972855 435.887459 
C 396.486419 435.373896 396.774976 434.677256 396.774976 433.950968 
C 396.774976 433.224679 396.486419 432.52804 395.972855 432.014476 
C 395.459292 431.500912 394.762652 431.212355 394.036364 431.212355 
C 393.310075 431.212355 392.613436 431.500912 392.099872 432.014476 
C 391.586308 432.52804 391.297751 433.224679 391.297751 433.950968 
C 391.297751 434.677256 391.586308 435.373896 392.099872 435.887459 
C 392.613436 436.401023 393.310075 436.689581 394.036364 436.689581 
z
" clip-path="url(#pf1bd39812a)" style="fill: #1f77b4; fill-opacity: 0.3; stroke: #1f77b4; stroke-opacity: 0.3"/>
    <path d="M 420.218182 432.777762 
C 421.056828 432.777762 421.861238 432.444564 422.45425 431.851552 
C 423.047262 431.25854 423.380459 430.45413 423.380459 429.615484 
C 423.380459 428.776838 423.047262 427.972428 422.45425 427.379416 
C 421.861238 426.786404 421.056828 426.453206 420.218182 426.453206 
C 419.379536 426.453206 418.575126 426.786404 417.982114 427.379416 
C 417.389102 427.972428 417.055904 428.776838 417.055904 429.615484 
C 417.055904 430.45413 417.389102 431.25854 417.982114 431.851552 
C 418.575126 432.444564 419.379536 432.777762 420.218182 432.777762 
z
" clip-path="url(#pf1bd39812a)" style="fill: #1f77b4; fill-opacity: 0.3; stroke: #1f77b4; stroke-opacity: 0.3"/>
    <path d="M 446.4 429.68381 
C 446.993012 429.68381 447.561816 429.448204 447.981139 429.028881 
C 448.400462 428.609558 448.636068 428.040754 448.636068 427.447742 
C 448.636068 426.85473 448.400462 426.285926 447.981139 425.866603 
C 447.561816 425.44728 446.993012 425.211674 446.4 425.211674 
C 445.806988 425.211674 445.238184 425.44728 444.818861 425.866603 
C 444.399538 426.285926 444.163932 426.85473 444.163932 427.447742 
C 444.163932 428.040754 444.399538 428.609558 444.818861 429.028881 
C 445.238184 429.448204 445.806988 429.68381 446.4 429.68381 
z
" clip-path="url(#pf1bd39812a)" style="fill: #1f77b4; fill-opacity: 0.3; stroke: #1f77b4; stroke-opacity: 0.3"/>
    <path d="M 472.581818 425.563921 
C 473.519453 425.563921 474.41881 425.191395 475.081818 424.528387 
C 475.744826 423.865379 476.117352 422.966022 476.117352 422.028387 
C 476.117352 421.090753 475.744826 420.191395 475.081818 419.528387 
C 474.41881 418.865379 473.519453 418.492853 472.581818 418.492853 
C 471.644184 418.492853 470.744826 418.865379 470.081818 419.528387 
C 469.41881 420.191395 469.046284 421.090753 469.046284 422.028387 
C 469.046284 422.966022 469.41881 423.865379 470.081818 424.528387 
C 470.744826 425.191395 471.644184 425.563921 472.581818 425.563921 
z
" clip-path="url(#pf1bd39812a)" style="fill: #1f77b4; fill-opacity: 0.3; stroke: #1f77b4; stroke-opacity: 0.3"/>
    <path d="M 498.763636 420.855181 
C 499.602282 420.855181 500.406692 420.521983 500.999704 419.928971 
C 501.592717 419.335959 501.925914 418.531549 501.925914 417.692903 
C 501.925914 416.854257 501.592717 416.049847 500.999704 415.456835 
C 500.406692 414.863823 499.602282 414.530626 498.763636 414.530626 
C 497.924991 414.530626 497.120581 414.863823 496.527568 415.456835 
C 495.934556 416.049847 495.601359 416.854257 495.601359 417.692903 
C 495.601359 418.531549 495.934556 419.335959 496.527568 419.928971 
C 497.120581 420.521983 497.924991 420.855181 498.763636 420.855181 
z
" clip-path="url(#pf1bd39812a)" style="fill: #1f77b4; fill-opacity: 0.3; stroke: #1f77b4; stroke-opacity: 0.3"/>
    <path d="M 524.945455 415.809082 
C 525.883089 415.809082 526.782447 415.436556 527.445455 414.773548 
C 528.108462 414.110541 528.480988 413.211183 528.480988 412.273548 
C 528.480988 411.335914 528.108462 410.436556 527.445455 409.773548 
C 526.782447 409.110541 525.883089 408.738014 524.945455 408.738014 
C 524.00782 408.738014 523.108462 409.110541 522.445455 409.773548 
C 521.782447 410.436556 521.409921 411.335914 521.409921 412.273548 
C 521.409921 413.211183 521.782447 414.110541 522.445455 414.773548 
C 523.108462 415.436556 524.00782 415.809082 524.945455 415.809082 
z
" clip-path="url(#pf1bd39812a)" style="fill: #1f77b4; fill-opacity: 0.3; stroke: #1f77b4; stroke-opacity: 0.3"/>
    <path d="M 551.127273 410.389727 
C 552.064907 410.389727 552.964265 410.017201 553.627273 409.354194 
C 554.29028 408.691186 554.662807 407.791828 554.662807 406.854194 
C 554.662807 405.916559 554.29028 405.017201 553.627273 404.354194 
C 552.964265 403.691186 552.064907 403.31866 551.127273 403.31866 
C 550.189638 403.31866 549.29028 403.691186 548.627273 404.354194 
C 547.964265 405.017201 547.591739 405.916559 547.591739 406.854194 
C 547.591739 407.791828 547.964265 408.691186 548.627273 409.354194 
C 549.29028 410.017201 550.189638 410.389727 551.127273 410.389727 
z
" clip-path="url(#pf1bd39812a)" style="fill: #1f77b4; fill-opacity: 0.3; stroke: #1f77b4; stroke-opacity: 0.3"/>
    <path d="M 577.309091 404.223951 
C 578.336218 404.223951 579.321415 403.815869 580.047704 403.089581 
C 580.773992 402.363292 581.182074 401.378095 581.182074 400.350968 
C 581.182074 399.323841 580.773992 398.338644 580.047704 397.612355 
C 579.321415 396.886066 578.336218 396.477984 577.309091 396.477984 
C 576.281964 396.477984 575.296767 396.886066 574.570478 397.612355 
C 573.84419 398.338644 573.436108 399.323841 573.436108 400.350968 
C 573.436108 401.378095 573.84419 402.363292 574.570478 403.089581 
C 575.296767 403.815869 576.281964 404.223951 577.309091 404.223951 
z
" clip-path="url(#pf1bd39812a)" style="fill: #1f77b4; fill-opacity: 0.3; stroke: #1f77b4; stroke-opacity: 0.3"/>
    <path d="M 603.490909 398.467147 
C 604.428544 398.467147 605.327901 398.094621 605.990909 397.431613 
C 606.653917 396.768605 607.026443 395.869247 607.026443 394.931613 
C 607.026443 393.993978 606.653917 393.094621 605.990909 392.431613 
C 605.327901 391.768605 604.428544 391.396079 603.490909 391.396079 
C 602.553275 391.396079 601.653917 391.768605 600.990909 392.431613 
C 600.327901 393.094621 599.955375 393.993978 599.955375 394.931613 
C 599.955375 395.869247 600.327901 396.768605 600.990909 397.431613 
C 601.653917 398.094621 602.553275 398.467147 603.490909 398.467147 
z
" clip-path="url(#pf1bd39812a)" style="fill: #1f77b4; fill-opacity: 0.3; stroke: #1f77b4; stroke-opacity: 0.3"/>
    <path d="M 629.672727 392.30137 
C 630.699854 392.30137 631.685051 391.893288 632.41134 391.167 
C 633.137629 390.440711 633.545711 389.455514 633.545711 388.428387 
C 633.545711 387.40126 633.137629 386.416063 632.41134 385.689774 
C 631.685051 384.963486 630.699854 384.555404 629.672727 384.555404 
C 628.6456 384.555404 627.660403 384.963486 626.934114 385.689774 
C 626.207826 386.416063 625.799744 387.40126 625.799744 388.428387 
C 625.799744 389.455514 626.207826 390.440711 626.934114 391.167 
C 627.660403 391.893288 628.6456 392.30137 629.672727 392.30137 
z
" clip-path="url(#pf1bd39812a)" style="fill: #1f77b4; fill-opacity: 0.3; stroke: #1f77b4; stroke-opacity: 0.3"/>
    <path d="M 655.854545 385.02459 
C 656.96397 385.02459 658.028104 384.583812 658.812585 383.79933 
C 659.597067 383.014849 660.037846 381.950714 660.037846 380.84129 
C 660.037846 379.731866 659.597067 378.667732 658.812585 377.88325 
C 658.028104 377.098769 656.96397 376.65799 655.854545 376.65799 
C 654.745121 376.65799 653.680987 377.098769 652.896506 377.88325 
C 652.112024 378.667732 651.671245 379.731866 651.671245 380.84129 
C 651.671245 381.950714 652.112024 383.014849 652.896506 383.79933 
C 653.680987 384.583812 654.745121 385.02459 655.854545 385.02459 
z
" clip-path="url(#pf1bd39812a)" style="fill: #1f77b4; fill-opacity: 0.3; stroke: #1f77b4; stroke-opacity: 0.3"/>
    <path d="M 682.036364 371.583177 
C 683.605326 371.583177 685.11024 370.959821 686.219664 369.850397 
C 687.329088 368.740973 687.952443 367.236059 687.952443 365.667097 
C 687.952443 364.098134 687.329088 362.593221 686.219664 361.483797 
C 685.11024 360.374372 683.605326 359.751017 682.036364 359.751017 
C 680.467401 359.751017 678.962488 360.374372 677.853064 361.483797 
C 676.743639 362.593221 676.120284 364.098134 676.120284 365.667097 
C 676.120284 367.236059 676.743639 368.740973 677.853064 369.850397 
C 678.962488 370.959821 680.467401 371.583177 682.036364 371.583177 
z
" clip-path="url(#pf1bd39812a)" style="fill: #1f77b4; fill-opacity: 0.3; stroke: #1f77b4; stroke-opacity: 0.3"/>
    <path d="M 708.218182 363.036854 
C 709.245309 363.036854 710.230506 362.628772 710.956795 361.902484 
C 711.683083 361.176195 712.091165 360.190998 712.091165 359.163871 
C 712.091165 358.136744 711.683083 357.151547 710.956795 356.425258 
C 710.230506 355.69897 709.245309 355.290888 708.218182 355.290888 
C 707.191055 355.290888 706.205858 355.69897 705.479569 356.425258 
C 704.75328 357.151547 704.345198 358.136744 704.345198 359.163871 
C 704.345198 360.190998 704.75328 361.176195 705.479569 361.902484 
C 706.205858 362.628772 707.191055 363.036854 708.218182 363.036854 
z
" clip-path="url(#pf1bd39812a)" style="fill: #1f77b4; fill-opacity: 0.3; stroke: #1f77b4; stroke-opacity: 0.3"/>
    <path d="M 734.4 351.634645 
C 735.852577 351.634645 737.245856 351.05753 738.272983 350.030403 
C 739.300111 349.003276 739.877226 347.609997 739.877226 346.157419 
C 739.877226 344.704842 739.300111 343.311563 738.272983 342.284436 
C 737.245856 341.257309 735.852577 340.680194 734.4 340.680194 
C 732.947423 340.680194 731.554144 341.257309 730.527017 342.284436 
C 729.499889 343.311563 728.922774 344.704842 728.922774 346.157419 
C 728.922774 347.609997 729.499889 349.003276 730.527017 350.030403 
C 731.554144 351.05753 732.947423 351.634645 734.4 351.634645 
z
" clip-path="url(#pf1bd39812a)" style="fill: #1f77b4; fill-opacity: 0.3; stroke: #1f77b4; stroke-opacity: 0.3"/>
    <path d="M 760.581818 335.140039 
C 762.25911 335.140039 763.86793 334.473644 765.053954 333.28762 
C 766.239978 332.101596 766.906374 330.492776 766.906374 328.815484 
C 766.906374 327.138192 766.239978 325.529372 765.053954 324.343348 
C 763.86793 323.157324 762.25911 322.490929 760.581818 322.490929 
C 758.904527 322.490929 757.295707 323.157324 756.109682 324.343348 
C 754.923658 325.529372 754.257263 327.138192 754.257263 328.815484 
C 754.257263 330.492776 754.923658 332.101596 756.109682 333.28762 
C 757.295707 334.473644 758.904527 335.140039 760.581818 335.140039 
z
" clip-path="url(#pf1bd39812a)" style="fill: #1f77b4; fill-opacity: 0.3; stroke: #1f77b4; stroke-opacity: 0.3"/>
    <path d="M 786.763636 307.766806 
C 788.942502 307.766806 791.032421 306.901134 792.573111 305.360443 
C 794.113802 303.819752 794.979475 301.729834 794.979475 299.550968 
C 794.979475 297.372102 794.113802 295.282184 792.573111 293.741493 
C 791.032421 292.200802 788.942502 291.335129 786.763636 291.335129 
C 784.584771 291.335129 782.494852 292.200802 780.954161 293.741493 
C 779.413471 295.282184 778.547798 297.372102 778.547798 299.550968 
C 778.547798 301.729834 779.413471 303.819752 780.954161 305.360443 
C 782.494852 306.901134 784.584771 307.766806 786.763636 307.766806 
z
" clip-path="url(#pf1bd39812a)" style="fill: #1f77b4; fill-opacity: 0.3; stroke: #1f77b4; stroke-opacity: 0.3"/>
    <path d="M 812.945455 295.352136 
C 814.131479 295.352136 815.269086 294.880923 816.107732 294.042278 
C 816.946378 293.203632 817.417591 292.066024 817.417591 290.88 
C 817.417591 289.693976 816.946378 288.556368 816.107732 287.717722 
C 815.269086 286.879077 814.131479 286.407864 812.945455 286.407864 
C 811.75943 286.407864 810.621823 286.879077 809.783177 287.717722 
C 808.944531 288.556368 808.473319 289.693976 808.473319 290.88 
C 808.473319 292.066024 808.944531 293.203632 809.783177 294.042278 
C 810.621823 294.880923 811.75943 295.352136 812.945455 295.352136 
z
" clip-path="url(#pf1bd39812a)" style="fill: #1f77b4; fill-opacity: 0.3; stroke: #1f77b4; stroke-opacity: 0.3"/>
    <path d="M 839.127273 282.490555 
C 840.639163 282.490555 842.089334 281.889874 843.158402 280.820806 
C 844.227469 279.751738 844.82815 278.301568 844.82815 276.789677 
C 844.82815 275.277787 844.227469 273.827616 843.158402 272.758549 
C 842.089334 271.689481 840.639163 271.0888 839.127273 271.0888 
C 837.615382 271.0888 836.165212 271.689481 835.096144 272.758549 
C 834.027076 273.827616 833.426396 275.277787 833.426396 276.789677 
C 833.426396 278.301568 834.027076 279.751738 835.096144 280.820806 
C 836.165212 281.889874 837.615382 282.490555 839.127273 282.490555 
z
" clip-path="url(#pf1bd39812a)" style="fill: #1f77b4; fill-opacity: 0.3; stroke: #1f77b4; stroke-opacity: 0.3"/>
    <path d="M 865.309091 265.772297 
C 866.986383 265.772297 868.595203 265.105902 869.781227 263.919878 
C 870.967251 262.733854 871.633646 261.125034 871.633646 259.447742 
C 871.633646 257.77045 870.967251 256.16163 869.781227 254.975606 
C 868.595203 253.789582 866.986383 253.123187 865.309091 253.123187 
C 863.631799 253.123187 862.022979 253.789582 860.836955 254.975606 
C 859.650931 256.16163 858.984536 257.77045 858.984536 259.447742 
C 858.984536 261.125034 859.650931 262.733854 860.836955 263.919878 
C 862.022979 265.105902 863.631799 265.772297 865.309091 265.772297 
z
" clip-path="url(#pf1bd39812a)" style="fill: #1f77b4; fill-opacity: 0.3; stroke: #1f77b4; stroke-opacity: 0.3"/>
    <path d="M 891.490909 232.762951 
C 893.899736 232.762951 896.210228 231.805914 897.913525 230.102616 
C 899.616823 228.399319 900.57386 226.088827 900.57386 223.68 
C 900.57386 221.271173 899.616823 218.960681 897.913525 217.257384 
C 896.210228 215.554086 893.899736 214.597049 891.490909 214.597049 
C 889.082082 214.597049 886.771591 215.554086 885.068293 217.257384 
C 883.364995 218.960681 882.407958 221.271173 882.407958 223.68 
C 882.407958 226.088827 883.364995 228.399319 885.068293 230.102616 
C 886.771591 231.805914 889.082082 232.762951 891.490909 232.762951 
z
" clip-path="url(#pf1bd39812a)" style="fill: #1f77b4; fill-opacity: 0.3; stroke: #1f77b4; stroke-opacity: 0.3"/>
    <path d="M 917.672727 196.047932 
C 920.117779 196.047932 922.463017 195.076502 924.19193 193.34759 
C 925.920842 191.618677 926.892272 189.273439 926.892272 186.828387 
C 926.892272 184.383335 925.920842 182.038097 924.19193 180.309185 
C 922.463017 178.580272 920.117779 177.608843 917.672727 177.608843 
C 915.227676 177.608843 912.882438 178.580272 911.153525 180.309185 
C 909.424612 182.038097 908.453183 184.383335 908.453183 186.828387 
C 908.453183 189.273439 909.424612 191.618677 911.153525 193.34759 
C 912.882438 195.076502 915.227676 196.047932 917.672727 196.047932 
z
" clip-path="url(#pf1bd39812a)" style="fill: #1f77b4; fill-opacity: 0.3; stroke: #1f77b4; stroke-opacity: 0.3"/>
    <path d="M 943.854545 160.143596 
C 946.263372 160.143596 948.573864 159.186559 950.277162 157.483261 
C 951.980459 155.779964 952.937497 153.469472 952.937497 151.060645 
C 952.937497 148.651818 951.980459 146.341327 950.277162 144.638029 
C 948.573864 142.934731 946.263372 141.977694 943.854545 141.977694 
C 941.445719 141.977694 939.135227 142.934731 937.431929 144.638029 
C 935.728631 146.341327 934.771594 148.651818 934.771594 151.060645 
C 934.771594 153.469472 935.728631 155.779964 937.431929 157.483261 
C 939.135227 159.186559 941.445719 160.143596 943.854545 160.143596 
z
" clip-path="url(#pf1bd39812a)" style="fill: #1f77b4; fill-opacity: 0.3; stroke: #1f77b4; stroke-opacity: 0.3"/>
    <path d="M 970.036364 120.575111 
C 972.587005 120.575111 975.033523 119.561731 976.837099 117.758155 
C 978.640675 115.954579 979.654056 113.508061 979.654056 110.957419 
C 979.654056 108.406778 978.640675 105.96026 976.837099 104.156684 
C 975.033523 102.353108 972.587005 101.339727 970.036364 101.339727 
C 967.485722 101.339727 965.039204 102.353108 963.235628 104.156684 
C 961.432052 105.96026 960.418672 108.406778 960.418672 110.957419 
C 960.418672 113.508061 961.432052 115.954579 963.235628 117.758155 
C 965.039204 119.561731 967.485722 120.575111 970.036364 120.575111 
z
" clip-path="url(#pf1bd39812a)" style="fill: #1f77b4; fill-opacity: 0.3; stroke: #1f77b4; stroke-opacity: 0.3"/>
    <path d="M 996.218182 96.351068 
C 998.093451 96.351068 999.892166 95.606016 1001.218182 94.28 
C 1002.544197 92.953985 1003.28925 91.155269 1003.28925 89.28 
C 1003.28925 87.404731 1002.544197 85.606016 1001.218182 84.28 
C 999.892166 82.953985 998.093451 82.208932 996.218182 82.208932 
C 994.342913 82.208932 992.544197 82.953985 991.218182 84.28 
C 989.892166 85.606016 989.147114 87.404731 989.147114 89.28 
C 989.147114 91.155269 989.892166 92.953985 991.218182 94.28 
C 992.544197 95.606016 994.342913 96.351068 996.218182 96.351068 
z
" clip-path="url(#pf1bd39812a)" style="fill: #1f77b4; fill-opacity: 0.3; stroke: #1f77b4; stroke-opacity: 0.3"/>
   </g>
   <g id="matplotlib.axis_1">
    <g id="xtick_1">
     <g id="line2d_1">
      <defs>
       <path id="m77f8b8fff4" d="M 0 0 
L 0 3.5 
" style="stroke: #000000; stroke-width: 0.8"/>
      </defs>
      <g>
       <use xlink:href="#m77f8b8fff4" x="184.581818" y="512.64" style="stroke: #000000; stroke-width: 0.8"/>
      </g>
     </g>
     <g id="text_1">
      <!-- 2025-01-01 -->
      <g transform="translate(155.524006 527.238438) scale(0.1 -0.1)">
       <defs>
        <path id="DejaVuSans-32" d="M 1228 531 
L 3431 531 
L 3431 0 
L 469 0 
L 469 531 
Q 828 903 1448 1529 
Q 2069 2156 2228 2338 
Q 2531 2678 2651 2914 
Q 2772 3150 2772 3378 
Q 2772 3750 2511 3984 
Q 2250 4219 1831 4219 
Q 1534 4219 1204 4116 
Q 875 4013 500 3803 
L 500 4441 
Q 881 4594 1212 4672 
Q 1544 4750 1819 4750 
Q 2544 4750 2975 4387 
Q 3406 4025 3406 3419 
Q 3406 3131 3298 2873 
Q 3191 2616 2906 2266 
Q 2828 2175 2409 1742 
Q 1991 1309 1228 531 
z
" transform="scale(0.015625)"/>
        <path id="DejaVuSans-30" d="M 2034 4250 
Q 1547 4250 1301 3770 
Q 1056 3291 1056 2328 
Q 1056 1369 1301 889 
Q 1547 409 2034 409 
Q 2525 409 2770 889 
Q 3016 1369 3016 2328 
Q 3016 3291 2770 3770 
Q 2525 4250 2034 4250 
z
M 2034 4750 
Q 2819 4750 3233 4129 
Q 3647 3509 3647 2328 
Q 3647 1150 3233 529 
Q 2819 -91 2034 -91 
Q 1250 -91 836 529 
Q 422 1150 422 2328 
Q 422 3509 836 4129 
Q 1250 4750 2034 4750 
z
" transform="scale(0.015625)"/>
        <path id="DejaVuSans-35" d="M 691 4666 
L 3169 4666 
L 3169 4134 
L 1269 4134 
L 1269 2991 
Q 1406 3038 1543 3061 
Q 1681 3084 1819 3084 
Q 2600 3084 3056 2656 
Q 3513 2228 3513 1497 
Q 3513 744 3044 326 
Q 2575 -91 1722 -91 
Q 1428 -91 1123 -41 
Q 819 9 494 109 
L 494 744 
Q 775 591 1075 516 
Q 1375 441 1709 441 
Q 2250 441 2565 725 
Q 2881 1009 2881 1497 
Q 2881 1984 2565 2268 
Q 2250 2553 1709 2553 
Q 1456 2553 1204 2497 
Q 953 2441 691 2322 
L 691 4666 
z
" transform="scale(0.015625)"/>
        <path id="DejaVuSans-2d" d="M 313 2009 
L 1997 2009 
L 1997 1497 
L 313 1497 
L 313 2009 
z
" transform="scale(0.015625)"/>
        <path id="DejaVuSans-31" d="M 794 531 
L 1825 531 
L 1825 4091 
L 703 3866 
L 703 4441 
L 1819 4666 
L 2450 4666 
L 2450 531 
L 3481 531 
L 3481 0 
L 794 0 
L 794 531 
z
" transform="scale(0.015625)"/>
       </defs>
       <use xlink:href="#DejaVuSans-32"/>
       <use xlink:href="#DejaVuSans-30" x="63.623047"/>
       <use xlink:href="#DejaVuSans-32" x="127.246094"/>
       <use xlink:href="#DejaVuSans-35" x="190.869141"/>
       <use xlink:href="#DejaVuSans-2d" x="254.492188"/>
       <use xlink:href="#DejaVuSans-30" x="290.576172"/>
       <use xlink:href="#DejaVuSans-31" x="354.199219"/>
       <use xlink:href="#DejaVuSans-2d" x="417.822266"/>
       <use xlink:href="#DejaVuSans-30" x="453.90625"/>
       <use xlink:href="#DejaVuSans-31" x="517.529297"/>
      </g>
     </g>
    </g>
    <g id="xtick_2">
     <g id="line2d_2">
      <g>
       <use xlink:href="#m77f8b8fff4" x="289.309091" y="512.64" style="stroke: #000000; stroke-width: 0.8"/>
      </g>
     </g>
     <g id="text_2">
      <!-- 2025-01-05 -->
      <g transform="translate(260.251278 527.238438) scale(0.1 -0.1)">
       <use xlink:href="#DejaVuSans-32"/>
       <use xlink:href="#DejaVuSans-30" x="63.623047"/>
       <use xlink:href="#DejaVuSans-32" x="127.246094"/>
       <use xlink:href="#DejaVuSans-35" x="190.869141"/>
       <use xlink:href="#DejaVuSans-2d" x="254.492188"/>
       <use xlink:href="#DejaVuSans-30" x="290.576172"/>
       <use xlink:href="#DejaVuSans-31" x="354.199219"/>
       <use xlink:href="#DejaVuSans-2d" x="417.822266"/>
       <use xlink:href="#DejaVuSans-30" x="453.90625"/>
       <use xlink:href="#DejaVuSans-35" x="517.529297"/>
      </g>
     </g>
    </g>
    <g id="xtick_3">
     <g id="line2d_3">
      <g>
       <use xlink:href="#m77f8b8fff4" x="394.036364" y="512.64" style="stroke: #000000; stroke-width: 0.8"/>
      </g>
     </g>
     <g id="text_3">
      <!-- 2025-01-09 -->
      <g transform="translate(364.978551 527.238438) scale(0.1 -0.1)">
       <defs>
        <path id="DejaVuSans-39" d="M 703 97 
L 703 672 
Q 941 559 1184 500 
Q 1428 441 1663 441 
Q 2288 441 2617 861 
Q 2947 1281 2994 2138 
Q 2813 1869 2534 1725 
Q 2256 1581 1919 1581 
Q 1219 1581 811 2004 
Q 403 2428 403 3163 
Q 403 3881 828 4315 
Q 1253 4750 1959 4750 
Q 2769 4750 3195 4129 
Q 3622 3509 3622 2328 
Q 3622 1225 3098 567 
Q 2575 -91 1691 -91 
Q 1453 -91 1209 -44 
Q 966 3 703 97 
z
M 1959 2075 
Q 2384 2075 2632 2365 
Q 2881 2656 2881 3163 
Q 2881 3666 2632 3958 
Q 2384 4250 1959 4250 
Q 1534 4250 1286 3958 
Q 1038 3666 1038 3163 
Q 1038 2656 1286 2365 
Q 1534 2075 1959 2075 
z
" transform="scale(0.015625)"/>
       </defs>
       <use xlink:href="#DejaVuSans-32"/>
       <use xlink:href="#DejaVuSans-30" x="63.623047"/>
       <use xlink:href="#DejaVuSans-32" x="127.246094"/>
       <use xlink:href="#DejaVuSans-35" x="190.869141"/>
       <use xlink:href="#DejaVuSans-2d" x="254.492188"/>
       <use xlink:href="#DejaVuSans-30" x="290.576172"/>
       <use xlink:href="#DejaVuSans-31" x="354.199219"/>
       <use xlink:href="#DejaVuSans-2d" x="417.822266"/>
       <use xlink:href="#DejaVuSans-30" x="453.90625"/>
       <use xlink:href="#DejaVuSans-39" x="517.529297"/>
      </g>
     </g>
    </g>
    <g id="xtick_4">
     <g id="line2d_4">
      <g>
       <use xlink:href="#m77f8b8fff4" x="498.763636" y="512.64" style="stroke: #000000; stroke-width: 0.8"/>
      </g>
     </g>
     <g id="text_4">
      <!-- 2025-01-13 -->
      <g transform="translate(469.705824 527.238438) scale(0.1 -0.1)">
       <defs>
        <path id="DejaVuSans-33" d="M 2597 2516 
Q 3050 2419 3304 2112 
Q 3559 1806 3559 1356 
Q 3559 666 3084 287 
Q 2609 -91 1734 -91 
Q 1441 -91 1130 -33 
Q 819 25 488 141 
L 488 750 
Q 750 597 1062 519 
Q 1375 441 1716 441 
Q 2309 441 2620 675 
Q 2931 909 2931 1356 
Q 2931 1769 2642 2001 
Q 2353 2234 1838 2234 
L 1294 2234 
L 1294 2753 
L 1863 2753 
Q 2328 2753 2575 2939 
Q 2822 3125 2822 3475 
Q 2822 3834 2567 4026 
Q 2313 4219 1838 4219 
Q 1578 4219 1281 4162 
Q 984 4106 628 3988 
L 628 4550 
Q 988 4650 1302 4700 
Q 1616 4750 1894 4750 
Q 2613 4750 3031 4423 
Q 3450 4097 3450 3541 
Q 3450 3153 3228 2886 
Q 3006 2619 2597 2516 
z
" transform="scale(0.015625)"/>
       </defs>
       <use xlink:href="#DejaVuSans-32"/>
       <use xlink:href="#DejaVuSans-30" x="63.623047"/>
       <use xlink:href="#DejaVuSans-32" x="127.246094"/>
       <use xlink:href="#DejaVuSans-35" x="190.869141"/>
       <use xlink:href="#DejaVuSans-2d" x="254.492188"/>
       <use xlink:href="#DejaVuSans-30" x="290.576172"/>
       <use xlink:href="#DejaVuSans-31" x="354.199219"/>
       <use xlink:href="#DejaVuSans-2d" x="417.822266"/>
       <use xlink:href="#DejaVuSans-31" x="453.90625"/>
       <use xlink:href="#DejaVuSans-33" x="517.529297"/>
      </g>
     </g>
    </g>
    <g id="xtick_5">
     <g id="line2d_5">
      <g>
       <use xlink:href="#m77f8b8fff4" x="603.490909" y="512.64" style="stroke: #000000; stroke-width: 0.8"/>
      </g>
     </g>
     <g id="text_5">
      <!-- 2025-01-17 -->
      <g transform="translate(574.433097 527.238438) scale(0.1 -0.1)">
       <defs>
        <path id="DejaVuSans-37" d="M 525 4666 
L 3525 4666 
L 3525 4397 
L 1831 0 
L 1172 0 
L 2766 4134 
L 525 4134 
L 525 4666 
z
" transform="scale(0.015625)"/>
       </defs>
       <use xlink:href="#DejaVuSans-32"/>
       <use xlink:href="#DejaVuSans-30" x="63.623047"/>
       <use xlink:href="#DejaVuSans-32" x="127.246094"/>
       <use xlink:href="#DejaVuSans-35" x="190.869141"/>
       <use xlink:href="#DejaVuSans-2d" x="254.492188"/>
       <use xlink:href="#DejaVuSans-30" x="290.576172"/>
       <use xlink:href="#DejaVuSans-31" x="354.199219"/>
       <use xlink:href="#DejaVuSans-2d" x="417.822266"/>
       <use xlink:href="#DejaVuSans-31" x="453.90625"/>
       <use xlink:href="#DejaVuSans-37" x="517.529297"/>
      </g>
     </g>
    </g>
    <g id="xtick_6">
     <g id="line2d_6">
      <g>
       <use xlink:href="#m77f8b8fff4" x="708.218182" y="512.64" style="stroke: #000000; stroke-width: 0.8"/>
      </g>
     </g>
     <g id="text_6">
      <!-- 2025-01-21 -->
      <g transform="translate(679.160369 527.238438) scale(0.1 -0.1)">
       <use xlink:href="#DejaVuSans-32"/>
       <use xlink:href="#DejaVuSans-30" x="63.623047"/>
       <use xlink:href="#DejaVuSans-32" x="127.246094"/>
       <use xlink:href="#DejaVuSans-35" x="190.869141"/>
       <use xlink:href="#DejaVuSans-2d" x="254.492188"/>
       <use xlink:href="#DejaVuSans-30" x="290.576172"/>
       <use xlink:href="#DejaVuSans-31" x="354.199219"/>
       <use xlink:href="#DejaVuSans-2d" x="417.822266"/>
       <use xlink:href="#DejaVuSans-32" x="453.90625"/>
       <use xlink:href="#DejaVuSans-31" x="517.529297"/>
      </g>
     </g>
    </g>
    <g id="xtick_7">
     <g id="line2d_7">
      <g>
       <use xlink:href="#m77f8b8fff4" x="812.945455" y="512.64" style="stroke: #000000; stroke-width: 0.8"/>
      </g>
     </g>
     <g id="text_7">
      <!-- 2025-01-25 -->
      <g transform="translate(783.887642 527.238438) scale(0.1 -0.1)">
       <use xlink:href="#DejaVuSans-32"/>
       <use xlink:href="#DejaVuSans-30" x="63.623047"/>
       <use xlink:href="#DejaVuSans-32" x="127.246094"/>
       <use xlink:href="#DejaVuSans-35" x="190.869141"/>
       <use xlink:href="#DejaVuSans-2d" x="254.492188"/>
       <use xlink:href="#DejaVuSans-30" x="290.576172"/>
       <use xlink:href="#DejaVuSans-31" x="354.199219"/>
       <use xlink:href="#DejaVuSans-2d" x="417.822266"/>
       <use xlink:href="#DejaVuSans-32" x="453.90625"/>
       <use xlink:href="#DejaVuSans-35" x="517.529297"/>
      </g>
     </g>
    </g>
    <g id="xtick_8">
     <g id="line2d_8">
      <g>
       <use xlink:href="#m77f8b8fff4" x="917.672727" y="512.64" style="stroke: #000000; stroke-width: 0.8"/>
      </g>
     </g>
     <g id="text_8">
      <!-- 2025-01-29 -->
      <g transform="translate(888.614915 527.238438) scale(0.1 -0.1)">
       <use xlink:href="#DejaVuSans-32"/>
       <use xlink:href="#DejaVuSans-30" x="63.623047"/>
       <use xlink:href="#DejaVuSans-32" x="127.246094"/>
       <use xlink:href="#DejaVuSans-35" x="190.869141"/>
       <use xlink:href="#DejaVuSans-2d" x="254.492188"/>
       <use xlink:href="#DejaVuSans-30" x="290.576172"/>
       <use xlink:href="#DejaVuSans-31" x="354.199219"/>
       <use xlink:href="#DejaVuSans-2d" x="417.822266"/>
       <use xlink:href="#DejaVuSans-32" x="453.90625"/>
       <use xlink:href="#DejaVuSans-39" x="517.529297"/>
      </g>
     </g>
    </g>
    <g id="xtick_9">
     <g id="line2d_9">
      <g>
       <use xlink:href="#m77f8b8fff4" x="996.218182" y="512.64" style="stroke: #000000; stroke-width: 0.8"/>
      </g>
     </g>
     <g id="text_9">
      <!-- 2025-02-01 -->
      <g transform="translate(967.160369 527.238438) scale(0.1 -0.1)">
       <use xlink:href="#DejaVuSans-32"/>
       <use xlink:href="#DejaVuSans-30" x="63.623047"/>
       <use xlink:href="#DejaVuSans-32" x="127.246094"/>
       <use xlink:href="#DejaVuSans-35" x="190.869141"/>
       <use xlink:href="#DejaVuSans-2d" x="254.492188"/>
       <use xlink:href="#DejaVuSans-30" x="290.576172"/>
       <use xlink:href="#DejaVuSans-32" x="354.199219"/>
       <use xlink:href="#DejaVuSans-2d" x="417.822266"/>
       <use xlink:href="#DejaVuSans-30" x="453.90625"/>
       <use xlink:href="#DejaVuSans-31" x="517.529297"/>
      </g>
     </g>
    </g>
   </g>
   <g id="matplotlib.axis_2">
    <g id="ytick_1">
     <g id="line2d_10">
      <defs>
       <path id="m3f99c96859" d="M 0 0 
L -3.5 0 
" style="stroke: #000000; stroke-width: 0.8"/>
      </defs>
      <g>
       <use xlink:href="#m3f99c96859" x="144" y="479.473548" style="stroke: #000000; stroke-width: 0.8"/>
      </g>
     </g>
     <g id="text_10">
      <!-- 8400 -->
      <g transform="translate(111.55 483.272767) scale(0.1 -0.1)">
       <defs>
        <path id="DejaVuSans-38" d="M 2034 2216 
Q 1584 2216 1326 1975 
Q 1069 1734 1069 1313 
Q 1069 891 1326 650 
Q 1584 409 2034 409 
Q 2484 409 2743 651 
Q 3003 894 3003 1313 
Q 3003 1734 2745 1975 
Q 2488 2216 2034 2216 
z
M 1403 2484 
Q 997 2584 770 2862 
Q 544 3141 544 3541 
Q 544 4100 942 4425 
Q 1341 4750 2034 4750 
Q 2731 4750 3128 4425 
Q 3525 4100 3525 3541 
Q 3525 3141 3298 2862 
Q 3072 2584 2669 2484 
Q 3125 2378 3379 2068 
Q 3634 1759 3634 1313 
Q 3634 634 3220 271 
Q 2806 -91 2034 -91 
Q 1263 -91 848 271 
Q 434 634 434 1313 
Q 434 1759 690 2068 
Q 947 2378 1403 2484 
z
M 1172 3481 
Q 1172 3119 1398 2916 
Q 1625 2713 2034 2713 
Q 2441 2713 2670 2916 
Q 2900 3119 2900 3481 
Q 2900 3844 2670 4047 
Q 2441 4250 2034 4250 
Q 1625 4250 1398 4047 
Q 1172 3844 1172 3481 
z
" transform="scale(0.015625)"/>
        <path id="DejaVuSans-34" d="M 2419 4116 
L 825 1625 
L 2419 1625 
L 2419 4116 
z
M 2253 4666 
L 3047 4666 
L 3047 1625 
L 3713 1625 
L 3713 1100 
L 3047 1100 
L 3047 0 
L 2419 0 
L 2419 1100 
L 313 1100 
L 313 1709 
L 2253 4666 
z
" transform="scale(0.015625)"/>
       </defs>
       <use xlink:href="#DejaVuSans-38"/>
       <use xlink:href="#DejaVuSans-34" x="63.623047"/>
       <use xlink:href="#DejaVuSans-30" x="127.246094"/>
       <use xlink:href="#DejaVuSans-30" x="190.869141"/>
      </g>
     </g>
    </g>
    <g id="ytick_2">
     <g id="line2d_11">
      <g>
       <use xlink:href="#m3f99c96859" x="144" y="425.28" style="stroke: #000000; stroke-width: 0.8"/>
      </g>
     </g>
     <g id="text_11">
      <!-- 8450 -->
      <g transform="translate(111.55 429.079219) scale(0.1 -0.1)">
       <use xlink:href="#DejaVuSans-38"/>
       <use xlink:href="#DejaVuSans-34" x="63.623047"/>
       <use xlink:href="#DejaVuSans-35" x="127.246094"/>
       <use xlink:href="#DejaVuSans-30" x="190.869141"/>
      </g>
     </g>
    </g>
    <g id="ytick_3">
     <g id="line2d_12">
      <g>
       <use xlink:href="#m3f99c96859" x="144" y="371.086452" style="stroke: #000000; stroke-width: 0.8"/>
      </g>
     </g>
     <g id="text_12">
      <!-- 8500 -->
      <g transform="translate(111.55 374.88567) scale(0.1 -0.1)">
       <use xlink:href="#DejaVuSans-38"/>
       <use xlink:href="#DejaVuSans-35" x="63.623047"/>
       <use xlink:href="#DejaVuSans-30" x="127.246094"/>
       <use xlink:href="#DejaVuSans-30" x="190.869141"/>
      </g>
     </g>
    </g>
    <g id="ytick_4">
     <g id="line2d_13">
      <g>
       <use xlink:href="#m3f99c96859" x="144" y="316.892903" style="stroke: #000000; stroke-width: 0.8"/>
      </g>
     </g>
     <g id="text_13">
      <!-- 8550 -->
      <g transform="translate(111.55 320.692122) scale(0.1 -0.1)">
       <use xlink:href="#DejaVuSans-38"/>
       <use xlink:href="#DejaVuSans-35" x="63.623047"/>
       <use xlink:href="#DejaVuSans-35" x="127.246094"/>
       <use xlink:href="#DejaVuSans-30" x="190.869141"/>
      </g>
     </g>
    </g>
    <g id="ytick_5">
     <g id="line2d_14">
      <g>
       <use xlink:href="#m3f99c96859" x="144" y="262.699355" style="stroke: #000000; stroke-width: 0.8"/>
      </g>
     </g>
     <g id="text_14">
      <!-- 8600 -->
      <g transform="translate(111.55 266.498574) scale(0.1 -0.1)">
       <defs>
        <path id="DejaVuSans-36" d="M 2113 2584 
Q 1688 2584 1439 2293 
Q 1191 2003 1191 1497 
Q 1191 994 1439 701 
Q 1688 409 2113 409 
Q 2538 409 2786 701 
Q 3034 994 3034 1497 
Q 3034 2003 2786 2293 
Q 2538 2584 2113 2584 
z
M 3366 4563 
L 3366 3988 
Q 3128 4100 2886 4159 
Q 2644 4219 2406 4219 
Q 1781 4219 1451 3797 
Q 1122 3375 1075 2522 
Q 1259 2794 1537 2939 
Q 1816 3084 2150 3084 
Q 2853 3084 3261 2657 
Q 3669 2231 3669 1497 
Q 3669 778 3244 343 
Q 2819 -91 2113 -91 
Q 1303 -91 875 529 
Q 447 1150 447 2328 
Q 447 3434 972 4092 
Q 1497 4750 2381 4750 
Q 2619 4750 2861 4703 
Q 3103 4656 3366 4563 
z
" transform="scale(0.015625)"/>
       </defs>
       <use xlink:href="#DejaVuSans-38"/>
       <use xlink:href="#DejaVuSans-36" x="63.623047"/>
       <use xlink:href="#DejaVuSans-30" x="127.246094"/>
       <use xlink:href="#DejaVuSans-30" x="190.869141"/>
      </g>
     </g>
    </g>
    <g id="ytick_6">
     <g id="line2d_15">
      <g>
       <use xlink:href="#m3f99c96859" x="144" y="208.505806" style="stroke: #000000; stroke-width: 0.8"/>
      </g>
     </g>
     <g id="text_15">
      <!-- 8650 -->
      <g transform="translate(111.55 212.305025) scale(0.1 -0.1)">
       <use xlink:href="#DejaVuSans-38"/>
       <use xlink:href="#DejaVuSans-36" x="63.623047"/>
       <use xlink:href="#DejaVuSans-35" x="127.246094"/>
       <use xlink:href="#DejaVuSans-30" x="190.869141"/>
      </g>
     </g>
    </g>
    <g id="ytick_7">
     <g id="line2d_16">
      <g>
       <use xlink:href="#m3f99c96859" x="144" y="154.312258" style="stroke: #000000; stroke-width: 0.8"/>
      </g>
     </g>
     <g id="text_16">
      <!-- 8700 -->
      <g transform="translate(111.55 158.111477) scale(0.1 -0.1)">
       <use xlink:href="#DejaVuSans-38"/>
       <use xlink:href="#DejaVuSans-37" x="63.623047"/>
       <use xlink:href="#DejaVuSans-30" x="127.246094"/>
       <use xlink:href="#DejaVuSans-30" x="190.869141"/>
      </g>
     </g>
    </g>
    <g id="ytick_8">
     <g id="line2d_17">
      <g>
       <use xlink:href="#m3f99c96859" x="144" y="100.11871" style="stroke: #000000; stroke-width: 0.8"/>
      </g>
     </g>
     <g id="text_17">
      <!-- 8750 -->
      <g transform="translate(111.55 103.917928) scale(0.1 -0.1)">
       <use xlink:href="#DejaVuSans-38"/>
       <use xlink:href="#DejaVuSans-37" x="63.623047"/>
       <use xlink:href="#DejaVuSans-35" x="127.246094"/>
       <use xlink:href="#DejaVuSans-30" x="190.869141"/>
      </g>
     </g>
    </g>
   </g>
   <g id="line2d_18">
    <path d="M 184.581818 492.48 
L 210.763636 487.060645 
L 236.945455 470.802581 
L 263.127273 467.550968 
L 289.309091 458.88 
L 315.490909 448.04129 
L 341.672727 445.873548 
L 367.854545 437.202581 
L 394.036364 433.950968 
L 420.218182 429.615484 
L 446.4 427.447742 
L 472.581818 422.028387 
L 498.763636 417.692903 
L 524.945455 412.273548 
L 551.127273 406.854194 
L 577.309091 400.350968 
L 603.490909 394.931613 
L 629.672727 388.428387 
L 655.854545 380.84129 
L 682.036364 365.667097 
L 708.218182 359.163871 
L 734.4 346.157419 
L 760.581818 328.815484 
L 786.763636 299.550968 
L 812.945455 290.88 
L 839.127273 276.789677 
L 865.309091 259.447742 
L 891.490909 223.68 
L 917.672727 186.828387 
L 943.854545 151.060645 
L 970.036364 110.957419 
L 996.218182 89.28 
" clip-path="url(#pf1bd39812a)" style="fill: none; stroke: #1f77b4; stroke-width: 1.5; stroke-linecap: square"/>
   </g>
   <g id="patch_3">
    <path d="M 144 512.64 
L 144 69.12 
" style="fill: none; stroke: #000000; stroke-width: 0.8; stroke-linejoin: miter; stroke-linecap: square"/>
   </g>
   <g id="patch_4">
    <path d="M 1036.8 512.64 
L 1036.8 69.12 
" style="fill: none; stroke: #000000; stroke-width: 0.8; stroke-linejoin: miter; stroke-linecap: square"/>
   </g>
   <g id="patch_5">
    <path d="M 144 512.64 
L 1036.8 512.64 
" style="fill: none; stroke: #000000; stroke-width: 0.8; stroke-linejoin: miter; stroke-linecap: square"/>
   </g>
   <g id="patch_6">
    <path d="M 144 69.12 
L 1036.8 69.12 
" style="fill: none; stroke: #000000; stroke-width: 0.8; stroke-linejoin: miter; stroke-linecap: square"/>
   </g>
   <g id="text_18">
    <!-- Number of AEDs in the OpenStreetMap database in Poland from 2025-01-01, day by day. As at: 2025-02-01 -->
    <g transform="translate(144 63.12) scale(0.14 -0.14)">
     <defs>
      <path id="DejaVuSans-4e" d="M 628 4666 
L 1478 4666 
L 3547 763 
L 3547 4666 
L 4159 4666 
L 4159 0 
L 3309 0 
L 1241 3903 
L 1241 0 
L 628 0 
L 628 4666 
z
" transform="scale(0.015625)"/>
      <path id="DejaVuSans-75" d="M 544 1381 
L 544 3500 
L 1119 3500 
L 1119 1403 
Q 1119 906 1312 657 
Q 1506 409 1894 409 
Q 2359 409 2629 706 
Q 2900 1003 2900 1516 
L 2900 3500 
L 3475 3500 
L 3475 0 
L 2900 0 
L 2900 538 
Q 2691 219 2414 64 
Q 2138 -91 1772 -91 
Q 1169 -91 856 284 
Q 544 659 544 1381 
z
M 1991 3584 
L 1991 3584 
z
" transform="scale(0.015625)"/>
      <path id="DejaVuSans-6d" d="M 3328 2828 
Q 3544 3216 3844 3400 
Q 4144 3584 4550 3584 
Q 5097 3584 5394 3201 
Q 5691 2819 5691 2113 
L 5691 0 
L 5113 0 
L 5113 2094 
Q 5113 2597 4934 2840 
Q 4756 3084 4391 3084 
Q 3944 3084 3684 2787 
Q 3425 2491 3425 1978 
L 3425 0 
L 2847 0 
L 2847 2094 
Q 2847 2600 2669 2842 
Q 2491 3084 2119 3084 
Q 1678 3084 1418 2786 
Q 1159 2488 1159 1978 
L 1159 0 
L 581 0 
L 581 3500 
L 1159 3500 
L 1159 2956 
Q 1356 3278 1631 3431 
Q 1906 3584 2284 3584 
Q 2666 3584 2933 3390 
Q 3200 3197 3328 2828 
z
" transform="scale(0.015625)"/>
      <path id="DejaVuSans-62" d="M 3116 1747 
Q 3116 2381 2855 2742 
Q 2594 3103 2138 3103 
Q 1681 3103 1420 2742 
Q 1159 2381 1159 1747 
Q 1159 1113 1420 752 
Q 1681 391 2138 391 
Q 2594 391 2855 752 
Q 3116 1113 3116 1747 
z
M 1159 2969 
Q 1341 3281 1617 3432 
Q 1894 3584 2278 3584 
Q 2916 3584 3314 3078 
Q 3713 2572 3713 1747 
Q 3713 922 3314 415 
Q 2916 -91 2278 -91 
Q 1894 -91 1617 61 
Q 1341 213 1159 525 
L 1159 0 
L 581 0 
L 581 4863 
L 1159 4863 
L 1159 2969 
z
" transform="scale(0.015625)"/>
      <path id="DejaVuSans-65" d="M 3597 1894 
L 3597 1613 
L 953 1613 
Q 991 1019 1311 708 
Q 1631 397 2203 397 
Q 2534 397 2845 478 
Q 3156 559 3463 722 
L 3463 178 
Q 3153 47 2828 -22 
Q 2503 -91 2169 -91 
Q 1331 -91 842 396 
Q 353 884 353 1716 
Q 353 2575 817 3079 
Q 1281 3584 2069 3584 
Q 2775 3584 3186 3129 
Q 3597 2675 3597 1894 
z
M 3022 2063 
Q 3016 2534 2758 2815 
Q 2500 3097 2075 3097 
Q 1594 3097 1305 2825 
Q 1016 2553 972 2059 
L 3022 2063 
z
" transform="scale(0.015625)"/>
      <path id="DejaVuSans-72" d="M 2631 2963 
Q 2534 3019 2420 3045 
Q 2306 3072 2169 3072 
Q 1681 3072 1420 2755 
Q 1159 2438 1159 1844 
L 1159 0 
L 581 0 
L 581 3500 
L 1159 3500 
L 1159 2956 
Q 1341 3275 1631 3429 
Q 1922 3584 2338 3584 
Q 2397 3584 2469 3576 
Q 2541 3569 2628 3553 
L 2631 2963 
z
" transform="scale(0.015625)"/>
      <path id="DejaVuSans-20" transform="scale(0.015625)"/>
      <path id="DejaVuSans-6f" d="M 1959 3097 
Q 1497 3097 1228 2736 
Q 959 2375 959 1747 
Q 959 1119 1226 758 
Q 1494 397 1959 397 
Q 2419 397 2687 759 
Q 2956 1122 2956 1747 
Q 2956 2369 2687 2733 
Q 2419 3097 1959 3097 
z
M 1959 3584 
Q 2709 3584 3137 3096 
Q 3566 2609 3566 1747 
Q 3566 888 3137 398 
Q 2709 -91 1959 -91 
Q 1206 -91 779 398 
Q 353 888 353 1747 
Q 353 2609 779 3096 
Q 1206 3584 1959 3584 
z
" transform="scale(0.015625)"/>
      <path id="DejaVuSans-66" d="M 2375 4863 
L 2375 4384 
L 1825 4384 
Q 1516 4384 1395 4259 
Q 1275 4134 1275 3809 
L 1275 3500 
L 2222 3500 
L 2222 3053 
L 1275 3053 
L 1275 0 
L 697 0 
L 697 3053 
L 147 3053 
L 147 3500 
L 697 3500 
L 697 3744 
Q 697 4328 969 4595 
Q 1241 4863 1831 4863 
L 2375 4863 
z
" transform="scale(0.015625)"/>
      <path id="DejaVuSans-41" d="M 2188 4044 
L 1331 1722 
L 3047 1722 
L 2188 4044 
z
M 1831 4666 
L 2547 4666 
L 4325 0 
L 3669 0 
L 3244 1197 
L 1141 1197 
L 716 0 
L 50 0 
L 1831 4666 
z
" transform="scale(0.015625)"/>
      <path id="DejaVuSans-45" d="M 628 4666 
L 3578 4666 
L 3578 4134 
L 1259 4134 
L 1259 2753 
L 3481 2753 
L 3481 2222 
L 1259 2222 
L 1259 531 
L 3634 531 
L 3634 0 
L 628 0 
L 628 4666 
z
" transform="scale(0.015625)"/>
      <path id="DejaVuSans-44" d="M 1259 4147 
L 1259 519 
L 2022 519 
Q 2988 519 3436 956 
Q 3884 1394 3884 2338 
Q 3884 3275 3436 3711 
Q 2988 4147 2022 4147 
L 1259 4147 
z
M 628 4666 
L 1925 4666 
Q 3281 4666 3915 4102 
Q 4550 3538 4550 2338 
Q 4550 1131 3912 565 
Q 3275 0 1925 0 
L 628 0 
L 628 4666 
z
" transform="scale(0.015625)"/>
      <path id="DejaVuSans-73" d="M 2834 3397 
L 2834 2853 
Q 2591 2978 2328 3040 
Q 2066 3103 1784 3103 
Q 1356 3103 1142 2972 
Q 928 2841 928 2578 
Q 928 2378 1081 2264 
Q 1234 2150 1697 2047 
L 1894 2003 
Q 2506 1872 2764 1633 
Q 3022 1394 3022 966 
Q 3022 478 2636 193 
Q 2250 -91 1575 -91 
Q 1294 -91 989 -36 
Q 684 19 347 128 
L 347 722 
Q 666 556 975 473 
Q 1284 391 1588 391 
Q 1994 391 2212 530 
Q 2431 669 2431 922 
Q 2431 1156 2273 1281 
Q 2116 1406 1581 1522 
L 1381 1569 
Q 847 1681 609 1914 
Q 372 2147 372 2553 
Q 372 3047 722 3315 
Q 1072 3584 1716 3584 
Q 2034 3584 2315 3537 
Q 2597 3491 2834 3397 
z
" transform="scale(0.015625)"/>
      <path id="DejaVuSans-69" d="M 603 3500 
L 1178 3500 
L 1178 0 
L 603 0 
L 603 3500 
z
M 603 4863 
L 1178 4863 
L 1178 4134 
L 603 4134 
L 603 4863 
z
" transform="scale(0.015625)"/>
      <path id="DejaVuSans-6e" d="M 3513 2113 
L 3513 0 
L 2938 0 
L 2938 2094 
Q 2938 2591 2744 2837 
Q 2550 3084 2163 3084 
Q 1697 3084 1428 2787 
Q 1159 2491 1159 1978 
L 1159 0 
L 581 0 
L 581 3500 
L 1159 3500 
L 1159 2956 
Q 1366 3272 1645 3428 
Q 1925 3584 2291 3584 
Q 2894 3584 3203 3211 
Q 3513 2838 3513 2113 
z
" transform="scale(0.015625)"/>
      <path id="DejaVuSans-74" d="M 1172 4494 
L 1172 3500 
L 2356 3500 
L 2356 3053 
L 1172 3053 
L 1172 1153 
Q 1172 725 1289 603 
Q 1406 481 1766 481 
L 2356 481 
L 2356 0 
L 1766 0 
Q 1100 0 847 248 
Q 594 497 594 1153 
L 594 3053 
L 172 3053 
L 172 3500 
L 594 3500 
L 594 4494 
L 1172 4494 
z
" transform="scale(0.015625)"/>
      <path id="DejaVuSans-68" d="M 3513 2113 
L 3513 0 
L 2938 0 
L 2938 2094 
Q 2938 2591 2744 2837 
Q 2550 3084 2163 3084 
Q 1697 3084 1428 2787 
Q 1159 2491 1159 1978 
L 1159 0 
L 581 0 
L 581 4863 
L 1159 4863 
L 1159 2956 
Q 1366 3272 1645 3428 
Q 1925 3584 2291 3584 
Q 2894 3584 3203 3211 
Q 3513 2838 3513 2113 
z
" transform="scale(0.015625)"/>
      <path id="DejaVuSans-4f" d="M 2522 4238 
Q 1834 4238 1429 3725 
Q 1025 3213 1025 2328 
Q 1025 1447 1429 934 
Q 1834 422 2522 422 
Q 3209 422 3611 934 
Q 4013 1447 4013 2328 
Q 4013 3213 3611 3725 
Q 3209 4238 2522 4238 
z
M 2522 4750 
Q 3503 4750 4090 4092 
Q 4678 3434 4678 2328 
Q 4678 1225 4090 567 
Q 3503 -91 2522 -91 
Q 1538 -91 948 565 
Q 359 1222 359 2328 
Q 359 3434 948 4092 
Q 1538 4750 2522 4750 
z
" transform="scale(0.015625)"/>
      <path id="DejaVuSans-70" d="M 1159 525 
L 1159 -1331 
L 581 -1331 
L 581 3500 
L 1159 3500 
L 1159 2969 
Q 1341 3281 1617 3432 
Q 1894 3584 2278 3584 
Q 2916 3584 3314 3078 
Q 3713 2572 3713 1747 
Q 3713 922 3314 415 
Q 2916 -91 2278 -91 
Q 1894 -91 1617 61 
Q 1341 213 1159 525 
z
M 3116 1747 
Q 3116 2381 2855 2742 
Q 2594 3103 2138 3103 
Q 1681 3103 1420 2742 
Q 1159 2381 1159 1747 
Q 1159 1113 1420 752 
Q 1681 391 2138 391 
Q 2594 391 2855 752 
Q 3116 1113 3116 1747 
z
" transform="scale(0.015625)"/>
      <path id="DejaVuSans-53" d="M 3425 4513 
L 3425 3897 
Q 3066 4069 2747 4153 
Q 2428 4238 2131 4238 
Q 1616 4238 1336 4038 
Q 1056 3838 1056 3469 
Q 1056 3159 1242 3001 
Q 1428 2844 1947 2747 
L 2328 2669 
Q 3034 2534 3370 2195 
Q 3706 1856 3706 1288 
Q 3706 609 3251 259 
Q 2797 -91 1919 -91 
Q 1588 -91 1214 -16 
Q 841 59 441 206 
L 441 856 
Q 825 641 1194 531 
Q 1563 422 1919 422 
Q 2459 422 2753 634 
Q 3047 847 3047 1241 
Q 3047 1584 2836 1778 
Q 2625 1972 2144 2069 
L 1759 2144 
Q 1053 2284 737 2584 
Q 422 2884 422 3419 
Q 422 4038 858 4394 
Q 1294 4750 2059 4750 
Q 2388 4750 2728 4690 
Q 3069 4631 3425 4513 
z
" transform="scale(0.015625)"/>
      <path id="DejaVuSans-4d" d="M 628 4666 
L 1569 4666 
L 2759 1491 
L 3956 4666 
L 4897 4666 
L 4897 0 
L 4281 0 
L 4281 4097 
L 3078 897 
L 2444 897 
L 1241 4097 
L 1241 0 
L 628 0 
L 628 4666 
z
" transform="scale(0.015625)"/>
      <path id="DejaVuSans-61" d="M 2194 1759 
Q 1497 1759 1228 1600 
Q 959 1441 959 1056 
Q 959 750 1161 570 
Q 1363 391 1709 391 
Q 2188 391 2477 730 
Q 2766 1069 2766 1631 
L 2766 1759 
L 2194 1759 
z
M 3341 1997 
L 3341 0 
L 2766 0 
L 2766 531 
Q 2569 213 2275 61 
Q 1981 -91 1556 -91 
Q 1019 -91 701 211 
Q 384 513 384 1019 
Q 384 1609 779 1909 
Q 1175 2209 1959 2209 
L 2766 2209 
L 2766 2266 
Q 2766 2663 2505 2880 
Q 2244 3097 1772 3097 
Q 1472 3097 1187 3025 
Q 903 2953 641 2809 
L 641 3341 
Q 956 3463 1253 3523 
Q 1550 3584 1831 3584 
Q 2591 3584 2966 3190 
Q 3341 2797 3341 1997 
z
" transform="scale(0.015625)"/>
      <path id="DejaVuSans-64" d="M 2906 2969 
L 2906 4863 
L 3481 4863 
L 3481 0 
L 2906 0 
L 2906 525 
Q 2725 213 2448 61 
Q 2172 -91 1784 -91 
Q 1150 -91 751 415 
Q 353 922 353 1747 
Q 353 2572 751 3078 
Q 1150 3584 1784 3584 
Q 2172 3584 2448 3432 
Q 2725 3281 2906 2969 
z
M 947 1747 
Q 947 1113 1208 752 
Q 1469 391 1925 391 
Q 2381 391 2643 752 
Q 2906 1113 2906 1747 
Q 2906 2381 2643 2742 
Q 2381 3103 1925 3103 
Q 1469 3103 1208 2742 
Q 947 2381 947 1747 
z
" transform="scale(0.015625)"/>
      <path id="DejaVuSans-50" d="M 1259 4147 
L 1259 2394 
L 2053 2394 
Q 2494 2394 2734 2622 
Q 2975 2850 2975 3272 
Q 2975 3691 2734 3919 
Q 2494 4147 2053 4147 
L 1259 4147 
z
M 628 4666 
L 2053 4666 
Q 2838 4666 3239 4311 
Q 3641 3956 3641 3272 
Q 3641 2581 3239 2228 
Q 2838 1875 2053 1875 
L 1259 1875 
L 1259 0 
L 628 0 
L 628 4666 
z
" transform="scale(0.015625)"/>
      <path id="DejaVuSans-6c" d="M 603 4863 
L 1178 4863 
L 1178 0 
L 603 0 
L 603 4863 
z
" transform="scale(0.015625)"/>
      <path id="DejaVuSans-2c" d="M 750 794 
L 1409 794 
L 1409 256 
L 897 -744 
L 494 -744 
L 750 256 
L 750 794 
z
" transform="scale(0.015625)"/>
      <path id="DejaVuSans-79" d="M 2059 -325 
Q 1816 -950 1584 -1140 
Q 1353 -1331 966 -1331 
L 506 -1331 
L 506 -850 
L 844 -850 
Q 1081 -850 1212 -737 
Q 1344 -625 1503 -206 
L 1606 56 
L 191 3500 
L 800 3500 
L 1894 763 
L 2988 3500 
L 3597 3500 
L 2059 -325 
z
" transform="scale(0.015625)"/>
      <path id="DejaVuSans-2e" d="M 684 794 
L 1344 794 
L 1344 0 
L 684 0 
L 684 794 
z
" transform="scale(0.015625)"/>
      <path id="DejaVuSans-3a" d="M 750 794 
L 1409 794 
L 1409 0 
L 750 0 
L 750 794 
z
M 750 3309 
L 1409 3309 
L 1409 2516 
L 750 2516 
L 750 3309 
z
" transform="scale(0.015625)"/>
     </defs>
     <use xlink:href="#DejaVuSans-4e"/>
     <use xlink:href="#DejaVuSans-75" x="74.804688"/>
     <use xlink:href="#DejaVuSans-6d" x="138.183594"/>
     <use xlink:href="#DejaVuSans-62" x="235.595703"/>
     <use xlink:href="#DejaVuSans-65" x="299.072266"/>
     <use xlink:href="#DejaVuSans-72" x="360.595703"/>
     <use xlink:href="#DejaVuSans-20" x="401.708984"/>
     <use xlink:href="#DejaVuSans-6f" x="433.496094"/>
     <use xlink:href="#DejaVuSans-66" x="494.677734"/>
     <use xlink:href="#DejaVuSans-20" x="529.882812"/>
     <use xlink:href="#DejaVuSans-41" x="561.669922"/>
     <use xlink:href="#DejaVuSans-45" x="630.078125"/>
     <use xlink:href="#DejaVuSans-44" x="693.261719"/>
     <use xlink:href="#DejaVuSans-73" x="770.263672"/>
     <use xlink:href="#DejaVuSans-20" x="822.363281"/>
     <use xlink:href="#DejaVuSans-69" x="854.150391"/>
     <use xlink:href="#DejaVuSans-6e" x="881.933594"/>
     <use xlink:href="#DejaVuSans-20" x="945.3125"/>
     <use xlink:href="#DejaVuSans-74" x="977.099609"/>
     <use xlink:href="#DejaVuSans-68" x="1016.308594"/>
     <use xlink:href="#DejaVuSans-65" x="1079.6875"/>
     <use xlink:href="#DejaVuSans-20" x="1141.210938"/>
     <use xlink:href="#DejaVuSans-4f" x="1172.998047"/>
     <use xlink:href="#DejaVuSans-70" x="1251.708984"/>
     <use xlink:href="#DejaVuSans-65" x="1315.185547"/>
     <use xlink:href="#DejaVuSans-6e" x="1376.708984"/>
     <use xlink:href="#DejaVuSans-53" x="1440.087891"/>
     <use xlink:href="#DejaVuSans-74" x="1503.564453"/>
     <use xlink:href="#DejaVuSans-72" x="1542.773438"/>
     <use xlink:href="#DejaVuSans-65" x="1581.636719"/>
     <use xlink:href="#DejaVuSans-65" x="1643.160156"/>
     <use xlink:href="#DejaVuSans-74" x="1704.683594"/>
     <use xlink:href="#DejaVuSans-4d" x="1743.892578"/>
     <use xlink:href="#DejaVuSans-61" x="1830.171875"/>
     <use xlink:href="#DejaVuSans-70" x="1891.451172"/>
     <use xlink:href="#DejaVuSans-20" x="1954.927734"/>
     <use xlink:href="#DejaVuSans-64" x="1986.714844"/>
     <use xlink:href="#DejaVuSans-61" x="2050.191406"/>
     <use xlink:href="#DejaVuSans-74" x="2111.470703"/>
     <use xlink:href="#DejaVuSans-61" x="2150.679688"/>
     <use xlink:href="#DejaVuSans-62" x="2211.958984"/>
     <use xlink:href="#DejaVuSans-61" x="2275.435547"/>
     <use xlink:href="#DejaVuSans-73" x="2336.714844"/>
     <use xlink:href="#DejaVuSans-65" x="2388.814453"/>
     <use xlink:href="#DejaVuSans-20" x="2450.337891"/>
     <use xlink:href="#DejaVuSans-69" x="2482.125"/>
     <use xlink:href="#DejaVuSans-6e" x="2509.908203"/>
     <use xlink:href="#DejaVuSans-20" x="2573.287109"/>
     <use xlink:href="#DejaVuSans-50" x="2605.074219"/>
     <use xlink:href="#DejaVuSans-6f" x="2661.751953"/>
     <use xlink:href="#DejaVuSans-6c" x="2722.933594"/>
     <use xlink:href="#DejaVuSans-61" x="2750.716797"/>
     <use xlink:href="#DejaVuSans-6e" x="2811.996094"/>
     <use xlink:href="#DejaVuSans-64" x="2875.375"/>
     <use xlink:href="#DejaVuSans-20" x="2938.851562"/>
     <use xlink:href="#DejaVuSans-66" x="2970.638672"/>
     <use xlink:href="#DejaVuSans-72" x="3005.84375"/>
     <use xlink:href="#DejaVuSans-6f" x="3044.707031"/>
     <use xlink:href="#DejaVuSans-6d" x="3105.888672"/>
     <use xlink:href="#DejaVuSans-20" x="3203.300781"/>
     <use xlink:href="#DejaVuSans-32" x="3235.087891"/>
     <use xlink:href="#DejaVuSans-30" x="3298.710938"/>
     <use xlink:href="#DejaVuSans-32" x="3362.333984"/>
     <use xlink:href="#DejaVuSans-35" x="3425.957031"/>
     <use xlink:href="#DejaVuSans-2d" x="3489.580078"/>
     <use xlink:href="#DejaVuSans-30" x="3525.664062"/>
     <use xlink:href="#DejaVuSans-31" x="3589.287109"/>
     <use xlink:href="#DejaVuSans-2d" x="3652.910156"/>
     <use xlink:href="#DejaVuSans-30" x="3688.994141"/>
     <use xlink:href="#DejaVuSans-31" x="3752.617188"/>
     <use xlink:href="#DejaVuSans-2c" x="3816.240234"/>
     <use xlink:href="#DejaVuSans-20" x="3848.027344"/>
     <use xlink:href="#DejaVuSans-64" x="3879.814453"/>
     <use xlink:href="#DejaVuSans-61" x="3943.291016"/>
     <use xlink:href="#DejaVuSans-79" x="4004.570312"/>
     <use xlink:href="#DejaVuSans-20" x="4063.75"/>
     <use xlink:href="#DejaVuSans-62" x="4095.537109"/>
     <use xlink:href="#DejaVuSans-79" x="4159.013672"/>
     <use xlink:href="#DejaVuSans-20" x="4218.193359"/>
     <use xlink:href="#DejaVuSans-64" x="4249.980469"/>
     <use xlink:href="#DejaVuSans-61" x="4313.457031"/>
     <use xlink:href="#DejaVuSans-79" x="4374.736328"/>
     <use xlink:href="#DejaVuSans-2e" x="4419.666016"/>
     <use xlink:href="#DejaVuSans-20" x="4451.453125"/>
     <use xlink:href="#DejaVuSans-41" x="4483.240234"/>
     <use xlink:href="#DejaVuSans-73" x="4551.648438"/>
     <use xlink:href="#DejaVuSans-20" x="4603.748047"/>
     <use xlink:href="#DejaVuSans-61" x="4635.535156"/>
     <use xlink:href="#DejaVuSans-74" x="4696.814453"/>
     <use xlink:href="#DejaVuSans-3a" x="4736.023438"/>
     <use xlink:href="#DejaVuSans-20" x="4769.714844"/>
     <use xlink:href="#DejaVuSans-32" x="4801.501953"/>
     <use xlink:href="#DejaVuSans-30" x="4865.125"/>
     <use xlink:href="#DejaVuSans-32" x="4928.748047"/>
     <use xlink:href="#DejaVuSans-35" x="4992.371094"/>
     <use xlink:href="#DejaVuSans-2d" x="5055.994141"/>
     <use xlink:href="#DejaVuSans-30" x="5092.078125"/>
     <use xlink:href="#DejaVuSans-32" x="5155.701172"/>
     <use xlink:href="#DejaVuSans-2d" x="5219.324219"/>
     <use xlink:href="#DejaVuSans-30" x="5255.408203"/>
     <use xlink:href="#DejaVuSans-31" x="5319.03125"/>
    </g>
   </g>
  </g>
 </g>
 <defs>
  <clipPath id="pf1bd39812a">
   <rect x="144" y="69.12" width="892.8" height="443.52"/>
  </clipPath>
 </defs>
</svg>
