<?xml version="1.0" encoding="utf-8" standalone="no"?>
<!DOCTYPE svg PUBLIC "-//W3C//DTD SVG 1.1//EN"
  "http://www.w3.org/Graphics/SVG/1.1/DTD/svg11.dtd">
<svg xmlns:xlink="http://www.w3.org/1999/xlink" width="1152pt" height="576pt" viewBox="0 0 1152 576" xmlns="http://www.w3.org/2000/svg" version="1.1">
 <metadata>
  <rdf:RDF xmlns:dc="http://purl.org/dc/elements/1.1/" xmlns:cc="http://creativecommons.org/ns#" xmlns:rdf="http://www.w3.org/1999/02/22-rdf-syntax-ns#">
   <cc:Work>
    <dc:type rdf:resource="http://purl.org/dc/dcmitype/StillImage"/>
    <dc:date>1980-01-01T00:00:00+00:00</dc:date>
    <dc:format>image/svg+xml</dc:format>
    <dc:creator>
     <cc:Agent>
      <dc:title>Matplotlib v3.9.1, https://matplotlib.org/</dc:title>
     </cc:Agent>
    </dc:creator>
   </cc:Work>
  </rdf:RDF>
 </metadata>
 <defs>
  <style type="text/css">*{stroke-linejoin: round; stroke-linecap: butt}</style>
 </defs>
 <g id="figure_1">
  <g id="patch_1">
   <path d="M 0 576 
L 1152 576 
L 1152 0 
L 0 0 
z
" style="fill: #ffffff"/>
  </g>
  <g id="axes_1">
   <g id="patch_2">
    <path d="M 144 512.64 
L 1036.8 512.64 
L 1036.8 69.12 
L 144 69.12 
z
" style="fill: #ffffff"/>
   </g>
   <g id="PathCollection_1">
    <path d="M 184.581818 494.716068 
C 185.17483 494.716068 185.743634 494.480462 186.162957 494.061139 
C 186.58228 493.641816 186.817886 493.073012 186.817886 492.48 
C 186.817886 491.886988 186.58228 491.318184 186.162957 490.898861 
C 185.743634 490.479538 185.17483 490.243932 184.581818 490.243932 
C 183.988806 490.243932 183.420002 490.479538 183.000679 490.898861 
C 182.581356 491.318184 182.34575 491.886988 182.34575 492.48 
C 182.34575 493.073012 182.581356 493.641816 183.000679 494.061139 
C 183.420002 494.480462 183.988806 494.716068 184.581818 494.716068 
z
" clip-path="url(#pe37030c1a6)" style="fill: #1f77b4; fill-opacity: 0.3; stroke: #1f77b4; stroke-opacity: 0.3"/>
    <path d="M 206.517936 492.810446 
C 207.455571 492.810446 208.354928 492.43792 209.017936 491.774913 
C 209.680944 491.111905 210.05347 490.212547 210.05347 489.274913 
C 210.05347 488.337278 209.680944 487.43792 209.017936 486.774913 
C 208.354928 486.111905 207.455571 485.739379 206.517936 485.739379 
C 205.580302 485.739379 204.680944 486.111905 204.017936 486.774913 
C 203.354928 487.43792 202.982402 488.337278 202.982402 489.274913 
C 202.982402 490.212547 203.354928 491.111905 204.017936 491.774913 
C 204.680944 492.43792 205.580302 492.810446 206.517936 492.810446 
z
" clip-path="url(#pe37030c1a6)" style="fill: #1f77b4; fill-opacity: 0.3; stroke: #1f77b4; stroke-opacity: 0.3"/>
    <path d="M 228.454054 485.783375 
C 230.078085 485.783375 231.635818 485.13814 232.784181 483.989777 
C 233.932544 482.841414 234.577778 481.283681 234.577778 479.65965 
C 234.577778 478.03562 233.932544 476.477886 232.784181 475.329523 
C 231.635818 474.18116 230.078085 473.535926 228.454054 473.535926 
C 226.830023 473.535926 225.27229 474.18116 224.123927 475.329523 
C 222.975564 476.477886 222.33033 478.03562 222.33033 479.65965 
C 222.33033 481.283681 222.975564 482.841414 224.123927 483.989777 
C 225.27229 485.13814 226.830023 485.783375 228.454054 485.783375 
z
" clip-path="url(#pe37030c1a6)" style="fill: #1f77b4; fill-opacity: 0.3; stroke: #1f77b4; stroke-opacity: 0.3"/>
    <path d="M 250.390172 480.475211 
C 251.116461 480.475211 251.8131 480.186653 252.326664 479.673089 
C 252.840227 479.159526 253.128785 478.462886 253.128785 477.736598 
C 253.128785 477.010309 252.840227 476.31367 252.326664 475.800106 
C 251.8131 475.286543 251.116461 474.997985 250.390172 474.997985 
C 249.663883 474.997985 248.967244 475.286543 248.45368 475.800106 
C 247.940117 476.31367 247.651559 477.010309 247.651559 477.736598 
C 247.651559 478.462886 247.940117 479.159526 248.45368 479.673089 
C 248.967244 480.186653 249.663883 480.475211 250.390172 480.475211 
z
" clip-path="url(#pe37030c1a6)" style="fill: #1f77b4; fill-opacity: 0.3; stroke: #1f77b4; stroke-opacity: 0.3"/>
    <path d="M 272.32629 477.080594 
C 273.512314 477.080594 274.649922 476.609381 275.488568 475.770736 
C 276.327213 474.93209 276.798426 473.794482 276.798426 472.608458 
C 276.798426 471.422434 276.327213 470.284826 275.488568 469.44618 
C 274.649922 468.607534 273.512314 468.136322 272.32629 468.136322 
C 271.140266 468.136322 270.002658 468.607534 269.164012 469.44618 
C 268.325366 470.284826 267.854154 471.422434 267.854154 472.608458 
C 267.854154 473.794482 268.325366 474.93209 269.164012 475.770736 
C 270.002658 476.609381 271.140266 477.080594 272.32629 477.080594 
z
" clip-path="url(#pe37030c1a6)" style="fill: #1f77b4; fill-opacity: 0.3; stroke: #1f77b4; stroke-opacity: 0.3"/>
    <path d="M 294.262408 471.198283 
C 295.588423 471.198283 296.860307 470.671451 297.797942 469.733817 
C 298.735576 468.796182 299.262408 467.524298 299.262408 466.198283 
C 299.262408 464.872267 298.735576 463.600384 297.797942 462.662749 
C 296.860307 461.725115 295.588423 461.198283 294.262408 461.198283 
C 292.936392 461.198283 291.664509 461.725115 290.726874 462.662749 
C 289.789239 463.600384 289.262408 464.872267 289.262408 466.198283 
C 289.262408 467.524298 289.789239 468.796182 290.726874 469.733817 
C 291.664509 470.671451 292.936392 471.198283 294.262408 471.198283 
z
" clip-path="url(#pe37030c1a6)" style="fill: #1f77b4; fill-opacity: 0.3; stroke: #1f77b4; stroke-opacity: 0.3"/>
    <path d="M 316.198526 467.152316 
C 316.791538 467.152316 317.360342 466.91671 317.779665 466.497387 
C 318.198988 466.078064 318.434594 465.50926 318.434594 464.916248 
C 318.434594 464.323236 318.198988 463.754432 317.779665 463.335109 
C 317.360342 462.915786 316.791538 462.68018 316.198526 462.68018 
C 315.605514 462.68018 315.03671 462.915786 314.617387 463.335109 
C 314.198064 463.754432 313.962458 464.323236 313.962458 464.916248 
C 313.962458 465.50926 314.198064 466.078064 314.617387 466.497387 
C 315.03671 466.91671 315.605514 467.152316 316.198526 467.152316 
z
" clip-path="url(#pe37030c1a6)" style="fill: #1f77b4; fill-opacity: 0.3; stroke: #1f77b4; stroke-opacity: 0.3"/>
    <path d="M 338.134644 464.260244 
C 339.320668 464.260244 340.458276 463.789032 341.296921 462.950386 
C 342.135567 462.11174 342.60678 460.974132 342.60678 459.788108 
C 342.60678 458.602084 342.135567 457.464476 341.296921 456.62583 
C 340.458276 455.787185 339.320668 455.315972 338.134644 455.315972 
C 336.948619 455.315972 335.811012 455.787185 334.972366 456.62583 
C 334.13372 457.464476 333.662508 458.602084 333.662508 459.788108 
C 333.662508 460.974132 334.13372 462.11174 334.972366 462.950386 
C 335.811012 463.789032 336.948619 464.260244 338.134644 464.260244 
z
" clip-path="url(#pe37030c1a6)" style="fill: #1f77b4; fill-opacity: 0.3; stroke: #1f77b4; stroke-opacity: 0.3"/>
    <path d="M 360.070762 460.603668 
C 360.79705 460.603668 361.49369 460.315111 362.007253 459.801547 
C 362.520817 459.287984 362.809374 458.591344 362.809374 457.865056 
C 362.809374 457.138767 362.520817 456.442128 362.007253 455.928564 
C 361.49369 455.415 360.79705 455.126443 360.070762 455.126443 
C 359.344473 455.126443 358.647834 455.415 358.13427 455.928564 
C 357.620706 456.442128 357.332149 457.138767 357.332149 457.865056 
C 357.332149 458.591344 357.620706 459.287984 358.13427 459.801547 
C 358.647834 460.315111 359.344473 460.603668 360.070762 460.603668 
z
" clip-path="url(#pe37030c1a6)" style="fill: #1f77b4; fill-opacity: 0.3; stroke: #1f77b4; stroke-opacity: 0.3"/>
    <path d="M 382.00688 458.463263 
C 382.845525 458.463263 383.649935 458.130066 384.242948 457.537054 
C 384.83596 456.944042 385.169157 456.139632 385.169157 455.300986 
C 385.169157 454.46234 384.83596 453.65793 384.242948 453.064918 
C 383.649935 452.471906 382.845525 452.138708 382.00688 452.138708 
C 381.168234 452.138708 380.363824 452.471906 379.770812 453.064918 
C 379.177799 453.65793 378.844602 454.46234 378.844602 455.300986 
C 378.844602 456.139632 379.177799 456.944042 379.770812 457.537054 
C 380.363824 458.130066 381.168234 458.463263 382.00688 458.463263 
z
" clip-path="url(#pe37030c1a6)" style="fill: #1f77b4; fill-opacity: 0.3; stroke: #1f77b4; stroke-opacity: 0.3"/>
    <path d="M 403.942998 456.255019 
C 404.53601 456.255019 405.104813 456.019412 405.524136 455.60009 
C 405.943459 455.180767 406.179066 454.611963 406.179066 454.018951 
C 406.179066 453.425939 405.943459 452.857135 405.524136 452.437812 
C 405.104813 452.018489 404.53601 451.782883 403.942998 451.782883 
C 403.349985 451.782883 402.781182 452.018489 402.361859 452.437812 
C 401.942536 452.857135 401.70693 453.425939 401.70693 454.018951 
C 401.70693 454.611963 401.942536 455.180767 402.361859 455.60009 
C 402.781182 456.019412 403.349985 456.255019 403.942998 456.255019 
z
" clip-path="url(#pe37030c1a6)" style="fill: #1f77b4; fill-opacity: 0.3; stroke: #1f77b4; stroke-opacity: 0.3"/>
    <path d="M 425.879115 454.349397 
C 426.81675 454.349397 427.716108 453.976871 428.379115 453.313863 
C 429.042123 452.650856 429.414649 451.751498 429.414649 450.813863 
C 429.414649 449.876229 429.042123 448.976871 428.379115 448.313863 
C 427.716108 447.650856 426.81675 447.278329 425.879115 447.278329 
C 424.941481 447.278329 424.042123 447.650856 423.379115 448.313863 
C 422.716108 448.976871 422.343582 449.876229 422.343582 450.813863 
C 422.343582 451.751498 422.716108 452.650856 423.379115 453.313863 
C 424.042123 453.976871 424.941481 454.349397 425.879115 454.349397 
z
" clip-path="url(#pe37030c1a6)" style="fill: #1f77b4; fill-opacity: 0.3; stroke: #1f77b4; stroke-opacity: 0.3"/>
    <path d="M 447.815233 451.412071 
C 448.653879 451.412071 449.458289 451.078873 450.051301 450.485861 
C 450.644314 449.892849 450.977511 449.088439 450.977511 448.249793 
C 450.977511 447.411147 450.644314 446.606738 450.051301 446.013725 
C 449.458289 445.420713 448.653879 445.087516 447.815233 445.087516 
C 446.976588 445.087516 446.172178 445.420713 445.579165 446.013725 
C 444.986153 446.606738 444.652956 447.411147 444.652956 448.249793 
C 444.652956 449.088439 444.986153 449.892849 445.579165 450.485861 
C 446.172178 451.078873 446.976588 451.412071 447.815233 451.412071 
z
" clip-path="url(#pe37030c1a6)" style="fill: #1f77b4; fill-opacity: 0.3; stroke: #1f77b4; stroke-opacity: 0.3"/>
    <path d="M 469.751351 448.58024 
C 470.688986 448.58024 471.588344 448.207714 472.251351 447.544706 
C 472.914359 446.881698 473.286885 445.98234 473.286885 445.044706 
C 473.286885 444.107071 472.914359 443.207714 472.251351 442.544706 
C 471.588344 441.881698 470.688986 441.509172 469.751351 441.509172 
C 468.813717 441.509172 467.914359 441.881698 467.251351 442.544706 
C 466.588344 443.207714 466.215817 444.107071 466.215817 445.044706 
C 466.215817 445.98234 466.588344 446.881698 467.251351 447.544706 
C 467.914359 448.207714 468.813717 448.58024 469.751351 448.58024 
z
" clip-path="url(#pe37030c1a6)" style="fill: #1f77b4; fill-opacity: 0.3; stroke: #1f77b4; stroke-opacity: 0.3"/>
    <path d="M 491.687469 445.375152 
C 492.625104 445.375152 493.524462 445.002626 494.187469 444.339618 
C 494.850477 443.676611 495.223003 442.777253 495.223003 441.839618 
C 495.223003 440.901984 494.850477 440.002626 494.187469 439.339618 
C 493.524462 438.676611 492.625104 438.304085 491.687469 438.304085 
C 490.749835 438.304085 489.850477 438.676611 489.187469 439.339618 
C 488.524462 440.002626 488.151935 440.901984 488.151935 441.839618 
C 488.151935 442.777253 488.524462 443.676611 489.187469 444.339618 
C 489.850477 445.002626 490.749835 445.375152 491.687469 445.375152 
z
" clip-path="url(#pe37030c1a6)" style="fill: #1f77b4; fill-opacity: 0.3; stroke: #1f77b4; stroke-opacity: 0.3"/>
    <path d="M 513.623587 441.866497 
C 514.650714 441.866497 515.635911 441.458415 516.3622 440.732126 
C 517.088489 440.005838 517.496571 439.020641 517.496571 437.993514 
C 517.496571 436.966386 517.088489 435.981189 516.3622 435.254901 
C 515.635911 434.528612 514.650714 434.12053 513.623587 434.12053 
C 512.59646 434.12053 511.611263 434.528612 510.884974 435.254901 
C 510.158686 435.981189 509.750604 436.966386 509.750604 437.993514 
C 509.750604 439.020641 510.158686 440.005838 510.884974 440.732126 
C 511.611263 441.458415 512.59646 441.866497 513.623587 441.866497 
z
" clip-path="url(#pe37030c1a6)" style="fill: #1f77b4; fill-opacity: 0.3; stroke: #1f77b4; stroke-opacity: 0.3"/>
    <path d="M 535.559705 438.32396 
C 536.49734 438.32396 537.396697 437.951434 538.059705 437.288426 
C 538.722713 436.625418 539.095239 435.726061 539.095239 434.788426 
C 539.095239 433.850792 538.722713 432.951434 538.059705 432.288426 
C 537.396697 431.625418 536.49734 431.252892 535.559705 431.252892 
C 534.622071 431.252892 533.722713 431.625418 533.059705 432.288426 
C 532.396697 432.951434 532.024171 433.850792 532.024171 434.788426 
C 532.024171 435.726061 532.396697 436.625418 533.059705 437.288426 
C 533.722713 437.951434 534.622071 438.32396 535.559705 438.32396 
z
" clip-path="url(#pe37030c1a6)" style="fill: #1f77b4; fill-opacity: 0.3; stroke: #1f77b4; stroke-opacity: 0.3"/>
    <path d="M 557.495823 434.815304 
C 558.52295 434.815304 559.508147 434.407223 560.234436 433.680934 
C 560.960724 432.954645 561.368806 431.969448 561.368806 430.942321 
C 561.368806 429.915194 560.960724 428.929997 560.234436 428.203708 
C 559.508147 427.47742 558.52295 427.069338 557.495823 427.069338 
C 556.468696 427.069338 555.483499 427.47742 554.75721 428.203708 
C 554.030922 428.929997 553.62284 429.915194 553.62284 430.942321 
C 553.62284 431.969448 554.030922 432.954645 554.75721 433.680934 
C 555.483499 434.407223 556.468696 434.815304 557.495823 434.815304 
z
" clip-path="url(#pe37030c1a6)" style="fill: #1f77b4; fill-opacity: 0.3; stroke: #1f77b4; stroke-opacity: 0.3"/>
    <path d="M 579.431941 430.638499 
C 580.541365 430.638499 581.6055 430.19772 582.389981 429.413239 
C 583.174462 428.628757 583.615241 427.564623 583.615241 426.455199 
C 583.615241 425.345775 583.174462 424.28164 582.389981 423.497159 
C 581.6055 422.712677 580.541365 422.271899 579.431941 422.271899 
C 578.322517 422.271899 577.258382 422.712677 576.473901 423.497159 
C 575.68942 424.28164 575.248641 425.345775 575.248641 426.455199 
C 575.248641 427.564623 575.68942 428.628757 576.473901 429.413239 
C 577.258382 430.19772 578.322517 430.638499 579.431941 430.638499 
z
" clip-path="url(#pe37030c1a6)" style="fill: #1f77b4; fill-opacity: 0.3; stroke: #1f77b4; stroke-opacity: 0.3"/>
    <path d="M 601.368059 423.397034 
C 602.937022 423.397034 604.441935 422.773678 605.551359 421.664254 
C 606.660783 420.55483 607.284139 419.049917 607.284139 417.480954 
C 607.284139 415.911991 606.660783 414.407078 605.551359 413.297654 
C 604.441935 412.18823 602.937022 411.564874 601.368059 411.564874 
C 599.799096 411.564874 598.294183 412.18823 597.184759 413.297654 
C 596.075335 414.407078 595.451979 415.911991 595.451979 417.480954 
C 595.451979 419.049917 596.075335 420.55483 597.184759 421.664254 
C 598.294183 422.773678 599.799096 423.397034 601.368059 423.397034 
z
" clip-path="url(#pe37030c1a6)" style="fill: #1f77b4; fill-opacity: 0.3; stroke: #1f77b4; stroke-opacity: 0.3"/>
    <path d="M 623.304177 417.507832 
C 624.331304 417.507832 625.316501 417.09975 626.04279 416.373462 
C 626.769078 415.647173 627.17716 414.661976 627.17716 413.634849 
C 627.17716 412.607722 626.769078 411.622525 626.04279 410.896236 
C 625.316501 410.169948 624.331304 409.761866 623.304177 409.761866 
C 622.27705 409.761866 621.291853 410.169948 620.565564 410.896236 
C 619.839276 411.622525 619.431194 412.607722 619.431194 413.634849 
C 619.431194 414.661976 619.839276 415.647173 620.565564 416.373462 
C 621.291853 417.09975 622.27705 417.507832 623.304177 417.507832 
z
" clip-path="url(#pe37030c1a6)" style="fill: #1f77b4; fill-opacity: 0.3; stroke: #1f77b4; stroke-opacity: 0.3"/>
    <path d="M 645.240295 411.827701 
C 646.631032 411.827701 647.964995 411.275155 648.948394 410.291756 
C 649.931793 409.308356 650.484339 407.974393 650.484339 406.583657 
C 650.484339 405.19292 649.931793 403.858957 648.948394 402.875557 
C 647.964995 401.892158 646.631032 401.339612 645.240295 401.339612 
C 643.849558 401.339612 642.515595 401.892158 641.532196 402.875557 
C 640.548796 403.858957 639.996251 405.19292 639.996251 406.583657 
C 639.996251 407.974393 640.548796 409.308356 641.532196 410.291756 
C 642.515595 411.275155 643.849558 411.827701 645.240295 411.827701 
z
" clip-path="url(#pe37030c1a6)" style="fill: #1f77b4; fill-opacity: 0.3; stroke: #1f77b4; stroke-opacity: 0.3"/>
    <path d="M 667.176413 402.651932 
C 668.853704 402.651932 670.462524 401.985537 671.648549 400.799513 
C 672.834573 399.613488 673.500968 398.004668 673.500968 396.327377 
C 673.500968 394.650085 672.834573 393.041265 671.648549 391.855241 
C 670.462524 390.669217 668.853704 390.002821 667.176413 390.002821 
C 665.499121 390.002821 663.890301 390.669217 662.704277 391.855241 
C 661.518253 393.041265 660.851857 394.650085 660.851857 396.327377 
C 660.851857 398.004668 661.518253 399.613488 662.704277 400.799513 
C 663.890301 401.985537 665.499121 402.651932 667.176413 402.651932 
z
" clip-path="url(#pe37030c1a6)" style="fill: #1f77b4; fill-opacity: 0.3; stroke: #1f77b4; stroke-opacity: 0.3"/>
    <path d="M 689.112531 388.688924 
C 691.166785 388.688924 693.137179 387.87276 694.589756 386.420183 
C 696.042333 384.967605 696.858497 382.997211 696.858497 380.942957 
C 696.858497 378.888703 696.042333 376.918309 694.589756 375.465731 
C 693.137179 374.013154 691.166785 373.19699 689.112531 373.19699 
C 687.058276 373.19699 685.087882 374.013154 683.635305 375.465731 
C 682.182728 376.918309 681.366564 378.888703 681.366564 380.942957 
C 681.366564 382.997211 682.182728 384.967605 683.635305 386.420183 
C 685.087882 387.87276 687.058276 388.688924 689.112531 388.688924 
z
" clip-path="url(#pe37030c1a6)" style="fill: #1f77b4; fill-opacity: 0.3; stroke: #1f77b4; stroke-opacity: 0.3"/>
    <path d="M 711.048649 380.286953 
C 712.234673 380.286953 713.37228 379.815741 714.210926 378.977095 
C 715.049572 378.138449 715.520785 377.000841 715.520785 375.814817 
C 715.520785 374.628793 715.049572 373.491185 714.210926 372.65254 
C 713.37228 371.813894 712.234673 371.342681 711.048649 371.342681 
C 709.862624 371.342681 708.725017 371.813894 707.886371 372.65254 
C 707.047725 373.491185 706.576513 374.628793 706.576513 375.814817 
C 706.576513 377.000841 707.047725 378.138449 707.886371 378.977095 
C 708.725017 379.815741 709.862624 380.286953 711.048649 380.286953 
z
" clip-path="url(#pe37030c1a6)" style="fill: #1f77b4; fill-opacity: 0.3; stroke: #1f77b4; stroke-opacity: 0.3"/>
    <path d="M 732.984767 373.182467 
C 734.496657 373.182467 735.946828 372.581787 737.015895 371.512719 
C 738.084963 370.443651 738.685644 368.99348 738.685644 367.48159 
C 738.685644 365.9697 738.084963 364.519529 737.015895 363.450461 
C 735.946828 362.381393 734.496657 361.780713 732.984767 361.780713 
C 731.472876 361.780713 730.022706 362.381393 728.953638 363.450461 
C 727.88457 364.519529 727.283889 365.9697 727.283889 367.48159 
C 727.283889 368.99348 727.88457 370.443651 728.953638 371.512719 
C 730.022706 372.581787 731.472876 373.182467 732.984767 373.182467 
z
" clip-path="url(#pe37030c1a6)" style="fill: #1f77b4; fill-opacity: 0.3; stroke: #1f77b4; stroke-opacity: 0.3"/>
    <path d="M 754.920885 364.423425 
C 756.489847 364.423425 757.99476 363.800069 759.104185 362.690645 
C 760.213609 361.581221 760.836964 360.076308 760.836964 358.507345 
C 760.836964 356.938382 760.213609 355.433469 759.104185 354.324045 
C 757.99476 353.214621 756.489847 352.591265 754.920885 352.591265 
C 753.351922 352.591265 751.847009 353.214621 750.737584 354.324045 
C 749.62816 355.433469 749.004805 356.938382 749.004805 358.507345 
C 749.004805 360.076308 749.62816 361.581221 750.737584 362.690645 
C 751.847009 363.800069 753.351922 364.423425 754.920885 364.423425 
z
" clip-path="url(#pe37030c1a6)" style="fill: #1f77b4; fill-opacity: 0.3; stroke: #1f77b4; stroke-opacity: 0.3"/>
    <path d="M 776.857002 346.436719 
C 779.265829 346.436719 781.576321 345.479682 783.279619 343.776384 
C 784.982916 342.073086 785.939954 339.762595 785.939954 337.353768 
C 785.939954 334.944941 784.982916 332.634449 783.279619 330.931152 
C 781.576321 329.227854 779.265829 328.270817 776.857002 328.270817 
C 774.448176 328.270817 772.137684 329.227854 770.434386 330.931152 
C 768.731088 332.634449 767.774051 334.944941 767.774051 337.353768 
C 767.774051 339.762595 768.731088 342.073086 770.434386 343.776384 
C 772.137684 345.479682 774.448176 346.436719 776.857002 346.436719 
z
" clip-path="url(#pe37030c1a6)" style="fill: #1f77b4; fill-opacity: 0.3; stroke: #1f77b4; stroke-opacity: 0.3"/>
    <path d="M 798.79312 325.78548 
C 801.165169 325.78548 803.440384 324.843055 805.117676 323.165764 
C 806.794967 321.488472 807.737392 319.213257 807.737392 316.841208 
C 807.737392 314.46916 806.794967 312.193945 805.117676 310.516653 
C 803.440384 308.839361 801.165169 307.896936 798.79312 307.896936 
C 796.421072 307.896936 794.145857 308.839361 792.468565 310.516653 
C 790.791273 312.193945 789.848848 314.46916 789.848848 316.841208 
C 789.848848 319.213257 790.791273 321.488472 792.468565 323.165764 
C 794.145857 324.843055 796.421072 325.78548 798.79312 325.78548 
z
" clip-path="url(#pe37030c1a6)" style="fill: #1f77b4; fill-opacity: 0.3; stroke: #1f77b4; stroke-opacity: 0.3"/>
    <path d="M 820.729238 304.770582 
C 823.138065 304.770582 825.448557 303.813545 827.151855 302.110247 
C 828.855152 300.40695 829.812189 298.096458 829.812189 295.687631 
C 829.812189 293.278804 828.855152 290.968313 827.151855 289.265015 
C 825.448557 287.561717 823.138065 286.60468 820.729238 286.60468 
C 818.320412 286.60468 816.00992 287.561717 814.306622 289.265015 
C 812.603324 290.968313 811.646287 293.278804 811.646287 295.687631 
C 811.646287 298.096458 812.603324 300.40695 814.306622 302.110247 
C 816.00992 303.813545 818.320412 304.770582 820.729238 304.770582 
z
" clip-path="url(#pe37030c1a6)" style="fill: #1f77b4; fill-opacity: 0.3; stroke: #1f77b4; stroke-opacity: 0.3"/>
    <path d="M 842.665356 282.097835 
C 845.181294 282.097835 847.594524 281.098242 849.37356 279.319206 
C 851.152597 277.540169 852.152189 275.126939 852.152189 272.611002 
C 852.152189 270.095064 851.152597 267.681834 849.37356 265.902798 
C 847.594524 264.123761 845.181294 263.124169 842.665356 263.124169 
C 840.149419 263.124169 837.736189 264.123761 835.957152 265.902798 
C 834.178116 267.681834 833.178523 270.095064 833.178523 272.611002 
C 833.178523 275.126939 834.178116 277.540169 835.957152 279.319206 
C 837.736189 281.098242 840.149419 282.097835 842.665356 282.097835 
z
" clip-path="url(#pe37030c1a6)" style="fill: #1f77b4; fill-opacity: 0.3; stroke: #1f77b4; stroke-opacity: 0.3"/>
    <path d="M 864.601474 267.323694 
C 866.42926 267.323694 868.182431 266.597507 869.474871 265.305066 
C 870.767311 264.012626 871.493499 262.259456 871.493499 260.431669 
C 871.493499 258.603883 870.767311 256.850712 869.474871 255.558272 
C 868.182431 254.265832 866.42926 253.539645 864.601474 253.539645 
C 862.773688 253.539645 861.020517 254.265832 859.728077 255.558272 
C 858.435637 256.850712 857.70945 258.603883 857.70945 260.431669 
C 857.70945 262.259456 858.435637 264.012626 859.728077 265.305066 
C 861.020517 266.597507 862.773688 267.323694 864.601474 267.323694 
z
" clip-path="url(#pe37030c1a6)" style="fill: #1f77b4; fill-opacity: 0.3; stroke: #1f77b4; stroke-opacity: 0.3"/>
    <path d="M 886.537592 259.405928 
C 887.795561 259.405928 889.002176 258.906132 889.891694 258.016614 
C 890.781212 257.127096 891.281009 255.920481 891.281009 254.662512 
C 891.281009 253.404543 890.781212 252.197928 889.891694 251.30841 
C 889.002176 250.418892 887.795561 249.919095 886.537592 249.919095 
C 885.279623 249.919095 884.073008 250.418892 883.18349 251.30841 
C 882.293972 252.197928 881.794176 253.404543 881.794176 254.662512 
C 881.794176 255.920481 882.293972 257.127096 883.18349 258.016614 
C 884.073008 258.906132 885.279623 259.405928 886.537592 259.405928 
z
" clip-path="url(#pe37030c1a6)" style="fill: #1f77b4; fill-opacity: 0.3; stroke: #1f77b4; stroke-opacity: 0.3"/>
    <path d="M 908.47371 251.170974 
C 910.097741 251.170974 911.655474 250.52574 912.803837 249.377377 
C 913.9522 248.229014 914.597434 246.67128 914.597434 245.04725 
C 914.597434 243.423219 913.9522 241.865486 912.803837 240.717123 
C 911.655474 239.568759 910.097741 238.923525 908.47371 238.923525 
C 906.849679 238.923525 905.291946 239.568759 904.143583 240.717123 
C 902.99522 241.865486 902.349986 243.423219 902.349986 245.04725 
C 902.349986 246.67128 902.99522 248.229014 904.143583 249.377377 
C 905.291946 250.52574 906.849679 251.170974 908.47371 251.170974 
z
" clip-path="url(#pe37030c1a6)" style="fill: #1f77b4; fill-opacity: 0.3; stroke: #1f77b4; stroke-opacity: 0.3"/>
    <path d="M 930.409828 220.446589 
C 933.575647 220.446589 936.612228 219.188796 938.8508 216.950224 
C 941.089371 214.711652 942.347164 211.675071 942.347164 208.509253 
C 942.347164 205.343434 941.089371 202.306853 938.8508 200.068281 
C 936.612228 197.829709 933.575647 196.571916 930.409828 196.571916 
C 927.244009 196.571916 924.207428 197.829709 921.968857 200.068281 
C 919.730285 202.306853 918.472492 205.343434 918.472492 208.509253 
C 918.472492 211.675071 919.730285 214.711652 921.968857 216.950224 
C 924.207428 219.188796 927.244009 220.446589 930.409828 220.446589 
z
" clip-path="url(#pe37030c1a6)" style="fill: #1f77b4; fill-opacity: 0.3; stroke: #1f77b4; stroke-opacity: 0.3"/>
    <path d="M 952.345946 155.145921 
C 956.723806 155.145921 960.922949 153.406578 964.018563 150.310964 
C 967.114178 147.21535 968.85352 143.016206 968.85352 138.638347 
C 968.85352 134.260487 967.114178 130.061343 964.018563 126.965729 
C 960.922949 123.870115 956.723806 122.130773 952.345946 122.130773 
C 947.968086 122.130773 943.768943 123.870115 940.673328 126.965729 
C 937.577714 130.061343 935.838372 134.260487 935.838372 138.638347 
C 935.838372 143.016206 937.577714 147.21535 940.673328 150.310964 
C 943.768943 153.406578 947.968086 155.145921 952.345946 155.145921 
z
" clip-path="url(#pe37030c1a6)" style="fill: #1f77b4; fill-opacity: 0.3; stroke: #1f77b4; stroke-opacity: 0.3"/>
    <path d="M 974.282064 119.350266 
C 977.156797 119.350266 979.914175 118.208123 981.946919 116.17538 
C 983.979662 114.142636 985.121806 111.385258 985.121806 108.510525 
C 985.121806 105.635792 983.979662 102.878413 981.946919 100.84567 
C 979.914175 98.812927 977.156797 97.670783 974.282064 97.670783 
C 971.407331 97.670783 968.649952 98.812927 966.617209 100.84567 
C 964.584466 102.878413 963.442322 105.635792 963.442322 108.510525 
C 963.442322 111.385258 964.584466 114.142636 966.617209 116.17538 
C 968.649952 118.208123 971.407331 119.350266 974.282064 119.350266 
z
" clip-path="url(#pe37030c1a6)" style="fill: #1f77b4; fill-opacity: 0.3; stroke: #1f77b4; stroke-opacity: 0.3"/>
    <path d="M 996.218182 97.940254 
C 998.514908 97.940254 1000.717875 97.027755 1002.341906 95.403724 
C 1003.965937 93.779694 1004.878436 91.576726 1004.878436 89.28 
C 1004.878436 86.983274 1003.965937 84.780306 1002.341906 83.156276 
C 1000.717875 81.532245 998.514908 80.619746 996.218182 80.619746 
C 993.921456 80.619746 991.718488 81.532245 990.094457 83.156276 
C 988.470427 84.780306 987.557928 86.983274 987.557928 89.28 
C 987.557928 91.576726 988.470427 93.779694 990.094457 95.403724 
C 991.718488 97.027755 993.921456 97.940254 996.218182 97.940254 
z
" clip-path="url(#pe37030c1a6)" style="fill: #1f77b4; fill-opacity: 0.3; stroke: #1f77b4; stroke-opacity: 0.3"/>
   </g>
   <g id="matplotlib.axis_1">
    <g id="xtick_1">
     <g id="line2d_1">
      <defs>
       <path id="m7707e4492b" d="M 0 0 
L 0 3.5 
" style="stroke: #000000; stroke-width: 0.8"/>
      </defs>
      <g>
       <use xlink:href="#m7707e4492b" x="184.581818" y="512.64" style="stroke: #000000; stroke-width: 0.8"/>
      </g>
     </g>
     <g id="text_1">
      <!-- 2025-01-01 -->
      <g transform="translate(155.524006 527.238438) scale(0.1 -0.1)">
       <defs>
        <path id="DejaVuSans-32" d="M 1228 531 
L 3431 531 
L 3431 0 
L 469 0 
L 469 531 
Q 828 903 1448 1529 
Q 2069 2156 2228 2338 
Q 2531 2678 2651 2914 
Q 2772 3150 2772 3378 
Q 2772 3750 2511 3984 
Q 2250 4219 1831 4219 
Q 1534 4219 1204 4116 
Q 875 4013 500 3803 
L 500 4441 
Q 881 4594 1212 4672 
Q 1544 4750 1819 4750 
Q 2544 4750 2975 4387 
Q 3406 4025 3406 3419 
Q 3406 3131 3298 2873 
Q 3191 2616 2906 2266 
Q 2828 2175 2409 1742 
Q 1991 1309 1228 531 
z
" transform="scale(0.015625)"/>
        <path id="DejaVuSans-30" d="M 2034 4250 
Q 1547 4250 1301 3770 
Q 1056 3291 1056 2328 
Q 1056 1369 1301 889 
Q 1547 409 2034 409 
Q 2525 409 2770 889 
Q 3016 1369 3016 2328 
Q 3016 3291 2770 3770 
Q 2525 4250 2034 4250 
z
M 2034 4750 
Q 2819 4750 3233 4129 
Q 3647 3509 3647 2328 
Q 3647 1150 3233 529 
Q 2819 -91 2034 -91 
Q 1250 -91 836 529 
Q 422 1150 422 2328 
Q 422 3509 836 4129 
Q 1250 4750 2034 4750 
z
" transform="scale(0.015625)"/>
        <path id="DejaVuSans-35" d="M 691 4666 
L 3169 4666 
L 3169 4134 
L 1269 4134 
L 1269 2991 
Q 1406 3038 1543 3061 
Q 1681 3084 1819 3084 
Q 2600 3084 3056 2656 
Q 3513 2228 3513 1497 
Q 3513 744 3044 326 
Q 2575 -91 1722 -91 
Q 1428 -91 1123 -41 
Q 819 9 494 109 
L 494 744 
Q 775 591 1075 516 
Q 1375 441 1709 441 
Q 2250 441 2565 725 
Q 2881 1009 2881 1497 
Q 2881 1984 2565 2268 
Q 2250 2553 1709 2553 
Q 1456 2553 1204 2497 
Q 953 2441 691 2322 
L 691 4666 
z
" transform="scale(0.015625)"/>
        <path id="DejaVuSans-2d" d="M 313 2009 
L 1997 2009 
L 1997 1497 
L 313 1497 
L 313 2009 
z
" transform="scale(0.015625)"/>
        <path id="DejaVuSans-31" d="M 794 531 
L 1825 531 
L 1825 4091 
L 703 3866 
L 703 4441 
L 1819 4666 
L 2450 4666 
L 2450 531 
L 3481 531 
L 3481 0 
L 794 0 
L 794 531 
z
" transform="scale(0.015625)"/>
       </defs>
       <use xlink:href="#DejaVuSans-32"/>
       <use xlink:href="#DejaVuSans-30" x="63.623047"/>
       <use xlink:href="#DejaVuSans-32" x="127.246094"/>
       <use xlink:href="#DejaVuSans-35" x="190.869141"/>
       <use xlink:href="#DejaVuSans-2d" x="254.492188"/>
       <use xlink:href="#DejaVuSans-30" x="290.576172"/>
       <use xlink:href="#DejaVuSans-31" x="354.199219"/>
       <use xlink:href="#DejaVuSans-2d" x="417.822266"/>
       <use xlink:href="#DejaVuSans-30" x="453.90625"/>
       <use xlink:href="#DejaVuSans-31" x="517.529297"/>
      </g>
     </g>
    </g>
    <g id="xtick_2">
     <g id="line2d_2">
      <g>
       <use xlink:href="#m7707e4492b" x="272.32629" y="512.64" style="stroke: #000000; stroke-width: 0.8"/>
      </g>
     </g>
     <g id="text_2">
      <!-- 2025-01-05 -->
      <g transform="translate(243.268477 527.238438) scale(0.1 -0.1)">
       <use xlink:href="#DejaVuSans-32"/>
       <use xlink:href="#DejaVuSans-30" x="63.623047"/>
       <use xlink:href="#DejaVuSans-32" x="127.246094"/>
       <use xlink:href="#DejaVuSans-35" x="190.869141"/>
       <use xlink:href="#DejaVuSans-2d" x="254.492188"/>
       <use xlink:href="#DejaVuSans-30" x="290.576172"/>
       <use xlink:href="#DejaVuSans-31" x="354.199219"/>
       <use xlink:href="#DejaVuSans-2d" x="417.822266"/>
       <use xlink:href="#DejaVuSans-30" x="453.90625"/>
       <use xlink:href="#DejaVuSans-35" x="517.529297"/>
      </g>
     </g>
    </g>
    <g id="xtick_3">
     <g id="line2d_3">
      <g>
       <use xlink:href="#m7707e4492b" x="360.070762" y="512.64" style="stroke: #000000; stroke-width: 0.8"/>
      </g>
     </g>
     <g id="text_3">
      <!-- 2025-01-09 -->
      <g transform="translate(331.012949 527.238438) scale(0.1 -0.1)">
       <defs>
        <path id="DejaVuSans-39" d="M 703 97 
L 703 672 
Q 941 559 1184 500 
Q 1428 441 1663 441 
Q 2288 441 2617 861 
Q 2947 1281 2994 2138 
Q 2813 1869 2534 1725 
Q 2256 1581 1919 1581 
Q 1219 1581 811 2004 
Q 403 2428 403 3163 
Q 403 3881 828 4315 
Q 1253 4750 1959 4750 
Q 2769 4750 3195 4129 
Q 3622 3509 3622 2328 
Q 3622 1225 3098 567 
Q 2575 -91 1691 -91 
Q 1453 -91 1209 -44 
Q 966 3 703 97 
z
M 1959 2075 
Q 2384 2075 2632 2365 
Q 2881 2656 2881 3163 
Q 2881 3666 2632 3958 
Q 2384 4250 1959 4250 
Q 1534 4250 1286 3958 
Q 1038 3666 1038 3163 
Q 1038 2656 1286 2365 
Q 1534 2075 1959 2075 
z
" transform="scale(0.015625)"/>
       </defs>
       <use xlink:href="#DejaVuSans-32"/>
       <use xlink:href="#DejaVuSans-30" x="63.623047"/>
       <use xlink:href="#DejaVuSans-32" x="127.246094"/>
       <use xlink:href="#DejaVuSans-35" x="190.869141"/>
       <use xlink:href="#DejaVuSans-2d" x="254.492188"/>
       <use xlink:href="#DejaVuSans-30" x="290.576172"/>
       <use xlink:href="#DejaVuSans-31" x="354.199219"/>
       <use xlink:href="#DejaVuSans-2d" x="417.822266"/>
       <use xlink:href="#DejaVuSans-30" x="453.90625"/>
       <use xlink:href="#DejaVuSans-39" x="517.529297"/>
      </g>
     </g>
    </g>
    <g id="xtick_4">
     <g id="line2d_4">
      <g>
       <use xlink:href="#m7707e4492b" x="447.815233" y="512.64" style="stroke: #000000; stroke-width: 0.8"/>
      </g>
     </g>
     <g id="text_4">
      <!-- 2025-01-13 -->
      <g transform="translate(418.757421 527.238438) scale(0.1 -0.1)">
       <defs>
        <path id="DejaVuSans-33" d="M 2597 2516 
Q 3050 2419 3304 2112 
Q 3559 1806 3559 1356 
Q 3559 666 3084 287 
Q 2609 -91 1734 -91 
Q 1441 -91 1130 -33 
Q 819 25 488 141 
L 488 750 
Q 750 597 1062 519 
Q 1375 441 1716 441 
Q 2309 441 2620 675 
Q 2931 909 2931 1356 
Q 2931 1769 2642 2001 
Q 2353 2234 1838 2234 
L 1294 2234 
L 1294 2753 
L 1863 2753 
Q 2328 2753 2575 2939 
Q 2822 3125 2822 3475 
Q 2822 3834 2567 4026 
Q 2313 4219 1838 4219 
Q 1578 4219 1281 4162 
Q 984 4106 628 3988 
L 628 4550 
Q 988 4650 1302 4700 
Q 1616 4750 1894 4750 
Q 2613 4750 3031 4423 
Q 3450 4097 3450 3541 
Q 3450 3153 3228 2886 
Q 3006 2619 2597 2516 
z
" transform="scale(0.015625)"/>
       </defs>
       <use xlink:href="#DejaVuSans-32"/>
       <use xlink:href="#DejaVuSans-30" x="63.623047"/>
       <use xlink:href="#DejaVuSans-32" x="127.246094"/>
       <use xlink:href="#DejaVuSans-35" x="190.869141"/>
       <use xlink:href="#DejaVuSans-2d" x="254.492188"/>
       <use xlink:href="#DejaVuSans-30" x="290.576172"/>
       <use xlink:href="#DejaVuSans-31" x="354.199219"/>
       <use xlink:href="#DejaVuSans-2d" x="417.822266"/>
       <use xlink:href="#DejaVuSans-31" x="453.90625"/>
       <use xlink:href="#DejaVuSans-33" x="517.529297"/>
      </g>
     </g>
    </g>
    <g id="xtick_5">
     <g id="line2d_5">
      <g>
       <use xlink:href="#m7707e4492b" x="535.559705" y="512.64" style="stroke: #000000; stroke-width: 0.8"/>
      </g>
     </g>
     <g id="text_5">
      <!-- 2025-01-17 -->
      <g transform="translate(506.501893 527.238438) scale(0.1 -0.1)">
       <defs>
        <path id="DejaVuSans-37" d="M 525 4666 
L 3525 4666 
L 3525 4397 
L 1831 0 
L 1172 0 
L 2766 4134 
L 525 4134 
L 525 4666 
z
" transform="scale(0.015625)"/>
       </defs>
       <use xlink:href="#DejaVuSans-32"/>
       <use xlink:href="#DejaVuSans-30" x="63.623047"/>
       <use xlink:href="#DejaVuSans-32" x="127.246094"/>
       <use xlink:href="#DejaVuSans-35" x="190.869141"/>
       <use xlink:href="#DejaVuSans-2d" x="254.492188"/>
       <use xlink:href="#DejaVuSans-30" x="290.576172"/>
       <use xlink:href="#DejaVuSans-31" x="354.199219"/>
       <use xlink:href="#DejaVuSans-2d" x="417.822266"/>
       <use xlink:href="#DejaVuSans-31" x="453.90625"/>
       <use xlink:href="#DejaVuSans-37" x="517.529297"/>
      </g>
     </g>
    </g>
    <g id="xtick_6">
     <g id="line2d_6">
      <g>
       <use xlink:href="#m7707e4492b" x="623.304177" y="512.64" style="stroke: #000000; stroke-width: 0.8"/>
      </g>
     </g>
     <g id="text_6">
      <!-- 2025-01-21 -->
      <g transform="translate(594.246364 527.238438) scale(0.1 -0.1)">
       <use xlink:href="#DejaVuSans-32"/>
       <use xlink:href="#DejaVuSans-30" x="63.623047"/>
       <use xlink:href="#DejaVuSans-32" x="127.246094"/>
       <use xlink:href="#DejaVuSans-35" x="190.869141"/>
       <use xlink:href="#DejaVuSans-2d" x="254.492188"/>
       <use xlink:href="#DejaVuSans-30" x="290.576172"/>
       <use xlink:href="#DejaVuSans-31" x="354.199219"/>
       <use xlink:href="#DejaVuSans-2d" x="417.822266"/>
       <use xlink:href="#DejaVuSans-32" x="453.90625"/>
       <use xlink:href="#DejaVuSans-31" x="517.529297"/>
      </g>
     </g>
    </g>
    <g id="xtick_7">
     <g id="line2d_7">
      <g>
       <use xlink:href="#m7707e4492b" x="711.048649" y="512.64" style="stroke: #000000; stroke-width: 0.8"/>
      </g>
     </g>
     <g id="text_7">
      <!-- 2025-01-25 -->
      <g transform="translate(681.990836 527.238438) scale(0.1 -0.1)">
       <use xlink:href="#DejaVuSans-32"/>
       <use xlink:href="#DejaVuSans-30" x="63.623047"/>
       <use xlink:href="#DejaVuSans-32" x="127.246094"/>
       <use xlink:href="#DejaVuSans-35" x="190.869141"/>
       <use xlink:href="#DejaVuSans-2d" x="254.492188"/>
       <use xlink:href="#DejaVuSans-30" x="290.576172"/>
       <use xlink:href="#DejaVuSans-31" x="354.199219"/>
       <use xlink:href="#DejaVuSans-2d" x="417.822266"/>
       <use xlink:href="#DejaVuSans-32" x="453.90625"/>
       <use xlink:href="#DejaVuSans-35" x="517.529297"/>
      </g>
     </g>
    </g>
    <g id="xtick_8">
     <g id="line2d_8">
      <g>
       <use xlink:href="#m7707e4492b" x="798.79312" y="512.64" style="stroke: #000000; stroke-width: 0.8"/>
      </g>
     </g>
     <g id="text_8">
      <!-- 2025-01-29 -->
      <g transform="translate(769.735308 527.238438) scale(0.1 -0.1)">
       <use xlink:href="#DejaVuSans-32"/>
       <use xlink:href="#DejaVuSans-30" x="63.623047"/>
       <use xlink:href="#DejaVuSans-32" x="127.246094"/>
       <use xlink:href="#DejaVuSans-35" x="190.869141"/>
       <use xlink:href="#DejaVuSans-2d" x="254.492188"/>
       <use xlink:href="#DejaVuSans-30" x="290.576172"/>
       <use xlink:href="#DejaVuSans-31" x="354.199219"/>
       <use xlink:href="#DejaVuSans-2d" x="417.822266"/>
       <use xlink:href="#DejaVuSans-32" x="453.90625"/>
       <use xlink:href="#DejaVuSans-39" x="517.529297"/>
      </g>
     </g>
    </g>
    <g id="xtick_9">
     <g id="line2d_9">
      <g>
       <use xlink:href="#m7707e4492b" x="864.601474" y="512.64" style="stroke: #000000; stroke-width: 0.8"/>
      </g>
     </g>
     <g id="text_9">
      <!-- 2025-02-01 -->
      <g transform="translate(835.543662 527.238438) scale(0.1 -0.1)">
       <use xlink:href="#DejaVuSans-32"/>
       <use xlink:href="#DejaVuSans-30" x="63.623047"/>
       <use xlink:href="#DejaVuSans-32" x="127.246094"/>
       <use xlink:href="#DejaVuSans-35" x="190.869141"/>
       <use xlink:href="#DejaVuSans-2d" x="254.492188"/>
       <use xlink:href="#DejaVuSans-30" x="290.576172"/>
       <use xlink:href="#DejaVuSans-32" x="354.199219"/>
       <use xlink:href="#DejaVuSans-2d" x="417.822266"/>
       <use xlink:href="#DejaVuSans-30" x="453.90625"/>
       <use xlink:href="#DejaVuSans-31" x="517.529297"/>
      </g>
     </g>
    </g>
    <g id="xtick_10">
     <g id="line2d_10">
      <g>
       <use xlink:href="#m7707e4492b" x="952.345946" y="512.64" style="stroke: #000000; stroke-width: 0.8"/>
      </g>
     </g>
     <g id="text_10">
      <!-- 2025-02-05 -->
      <g transform="translate(923.288133 527.238438) scale(0.1 -0.1)">
       <use xlink:href="#DejaVuSans-32"/>
       <use xlink:href="#DejaVuSans-30" x="63.623047"/>
       <use xlink:href="#DejaVuSans-32" x="127.246094"/>
       <use xlink:href="#DejaVuSans-35" x="190.869141"/>
       <use xlink:href="#DejaVuSans-2d" x="254.492188"/>
       <use xlink:href="#DejaVuSans-30" x="290.576172"/>
       <use xlink:href="#DejaVuSans-32" x="354.199219"/>
       <use xlink:href="#DejaVuSans-2d" x="417.822266"/>
       <use xlink:href="#DejaVuSans-30" x="453.90625"/>
       <use xlink:href="#DejaVuSans-35" x="517.529297"/>
      </g>
     </g>
    </g>
   </g>
   <g id="matplotlib.axis_2">
    <g id="ytick_1">
     <g id="line2d_11">
      <defs>
       <path id="mf0493358cb" d="M 0 0 
L -3.5 0 
" style="stroke: #000000; stroke-width: 0.8"/>
      </defs>
      <g>
       <use xlink:href="#mf0493358cb" x="144" y="478.377615" style="stroke: #000000; stroke-width: 0.8"/>
      </g>
     </g>
     <g id="text_11">
      <!-- 8400 -->
      <g transform="translate(111.55 482.176834) scale(0.1 -0.1)">
       <defs>
        <path id="DejaVuSans-38" d="M 2034 2216 
Q 1584 2216 1326 1975 
Q 1069 1734 1069 1313 
Q 1069 891 1326 650 
Q 1584 409 2034 409 
Q 2484 409 2743 651 
Q 3003 894 3003 1313 
Q 3003 1734 2745 1975 
Q 2488 2216 2034 2216 
z
M 1403 2484 
Q 997 2584 770 2862 
Q 544 3141 544 3541 
Q 544 4100 942 4425 
Q 1341 4750 2034 4750 
Q 2731 4750 3128 4425 
Q 3525 4100 3525 3541 
Q 3525 3141 3298 2862 
Q 3072 2584 2669 2484 
Q 3125 2378 3379 2068 
Q 3634 1759 3634 1313 
Q 3634 634 3220 271 
Q 2806 -91 2034 -91 
Q 1263 -91 848 271 
Q 434 634 434 1313 
Q 434 1759 690 2068 
Q 947 2378 1403 2484 
z
M 1172 3481 
Q 1172 3119 1398 2916 
Q 1625 2713 2034 2713 
Q 2441 2713 2670 2916 
Q 2900 3119 2900 3481 
Q 2900 3844 2670 4047 
Q 2441 4250 2034 4250 
Q 1625 4250 1398 4047 
Q 1172 3844 1172 3481 
z
" transform="scale(0.015625)"/>
        <path id="DejaVuSans-34" d="M 2419 4116 
L 825 1625 
L 2419 1625 
L 2419 4116 
z
M 2253 4666 
L 3047 4666 
L 3047 1625 
L 3713 1625 
L 3713 1100 
L 3047 1100 
L 3047 0 
L 2419 0 
L 2419 1100 
L 313 1100 
L 313 1709 
L 2253 4666 
z
" transform="scale(0.015625)"/>
       </defs>
       <use xlink:href="#DejaVuSans-38"/>
       <use xlink:href="#DejaVuSans-34" x="63.623047"/>
       <use xlink:href="#DejaVuSans-30" x="127.246094"/>
       <use xlink:href="#DejaVuSans-30" x="190.869141"/>
      </g>
     </g>
    </g>
    <g id="ytick_2">
     <g id="line2d_12">
      <g>
       <use xlink:href="#mf0493358cb" x="144" y="414.275866" style="stroke: #000000; stroke-width: 0.8"/>
      </g>
     </g>
     <g id="text_12">
      <!-- 8500 -->
      <g transform="translate(111.55 418.075085) scale(0.1 -0.1)">
       <use xlink:href="#DejaVuSans-38"/>
       <use xlink:href="#DejaVuSans-35" x="63.623047"/>
       <use xlink:href="#DejaVuSans-30" x="127.246094"/>
       <use xlink:href="#DejaVuSans-30" x="190.869141"/>
      </g>
     </g>
    </g>
    <g id="ytick_3">
     <g id="line2d_13">
      <g>
       <use xlink:href="#mf0493358cb" x="144" y="350.174118" style="stroke: #000000; stroke-width: 0.8"/>
      </g>
     </g>
     <g id="text_13">
      <!-- 8600 -->
      <g transform="translate(111.55 353.973336) scale(0.1 -0.1)">
       <defs>
        <path id="DejaVuSans-36" d="M 2113 2584 
Q 1688 2584 1439 2293 
Q 1191 2003 1191 1497 
Q 1191 994 1439 701 
Q 1688 409 2113 409 
Q 2538 409 2786 701 
Q 3034 994 3034 1497 
Q 3034 2003 2786 2293 
Q 2538 2584 2113 2584 
z
M 3366 4563 
L 3366 3988 
Q 3128 4100 2886 4159 
Q 2644 4219 2406 4219 
Q 1781 4219 1451 3797 
Q 1122 3375 1075 2522 
Q 1259 2794 1537 2939 
Q 1816 3084 2150 3084 
Q 2853 3084 3261 2657 
Q 3669 2231 3669 1497 
Q 3669 778 3244 343 
Q 2819 -91 2113 -91 
Q 1303 -91 875 529 
Q 447 1150 447 2328 
Q 447 3434 972 4092 
Q 1497 4750 2381 4750 
Q 2619 4750 2861 4703 
Q 3103 4656 3366 4563 
z
" transform="scale(0.015625)"/>
       </defs>
       <use xlink:href="#DejaVuSans-38"/>
       <use xlink:href="#DejaVuSans-36" x="63.623047"/>
       <use xlink:href="#DejaVuSans-30" x="127.246094"/>
       <use xlink:href="#DejaVuSans-30" x="190.869141"/>
      </g>
     </g>
    </g>
    <g id="ytick_4">
     <g id="line2d_14">
      <g>
       <use xlink:href="#mf0493358cb" x="144" y="286.072369" style="stroke: #000000; stroke-width: 0.8"/>
      </g>
     </g>
     <g id="text_14">
      <!-- 8700 -->
      <g transform="translate(111.55 289.871588) scale(0.1 -0.1)">
       <use xlink:href="#DejaVuSans-38"/>
       <use xlink:href="#DejaVuSans-37" x="63.623047"/>
       <use xlink:href="#DejaVuSans-30" x="127.246094"/>
       <use xlink:href="#DejaVuSans-30" x="190.869141"/>
      </g>
     </g>
    </g>
    <g id="ytick_5">
     <g id="line2d_15">
      <g>
       <use xlink:href="#mf0493358cb" x="144" y="221.97062" style="stroke: #000000; stroke-width: 0.8"/>
      </g>
     </g>
     <g id="text_15">
      <!-- 8800 -->
      <g transform="translate(111.55 225.769839) scale(0.1 -0.1)">
       <use xlink:href="#DejaVuSans-38"/>
       <use xlink:href="#DejaVuSans-38" x="63.623047"/>
       <use xlink:href="#DejaVuSans-30" x="127.246094"/>
       <use xlink:href="#DejaVuSans-30" x="190.869141"/>
      </g>
     </g>
    </g>
    <g id="ytick_6">
     <g id="line2d_16">
      <g>
       <use xlink:href="#mf0493358cb" x="144" y="157.868871" style="stroke: #000000; stroke-width: 0.8"/>
      </g>
     </g>
     <g id="text_16">
      <!-- 8900 -->
      <g transform="translate(111.55 161.66809) scale(0.1 -0.1)">
       <use xlink:href="#DejaVuSans-38"/>
       <use xlink:href="#DejaVuSans-39" x="63.623047"/>
       <use xlink:href="#DejaVuSans-30" x="127.246094"/>
       <use xlink:href="#DejaVuSans-30" x="190.869141"/>
      </g>
     </g>
    </g>
    <g id="ytick_7">
     <g id="line2d_17">
      <g>
       <use xlink:href="#mf0493358cb" x="144" y="93.767122" style="stroke: #000000; stroke-width: 0.8"/>
      </g>
     </g>
     <g id="text_17">
      <!-- 9000 -->
      <g transform="translate(111.55 97.566341) scale(0.1 -0.1)">
       <use xlink:href="#DejaVuSans-39"/>
       <use xlink:href="#DejaVuSans-30" x="63.623047"/>
       <use xlink:href="#DejaVuSans-30" x="127.246094"/>
       <use xlink:href="#DejaVuSans-30" x="190.869141"/>
      </g>
     </g>
    </g>
   </g>
   <g id="line2d_18">
    <path d="M 184.581818 492.48 
L 206.517936 489.274913 
L 228.454054 479.65965 
L 250.390172 477.736598 
L 272.32629 472.608458 
L 294.262408 466.198283 
L 316.198526 464.916248 
L 338.134644 459.788108 
L 360.070762 457.865056 
L 382.00688 455.300986 
L 403.942998 454.018951 
L 425.879115 450.813863 
L 447.815233 448.249793 
L 469.751351 445.044706 
L 491.687469 441.839618 
L 513.623587 437.993514 
L 535.559705 434.788426 
L 557.495823 430.942321 
L 579.431941 426.455199 
L 601.368059 417.480954 
L 623.304177 413.634849 
L 645.240295 406.583657 
L 667.176413 396.327377 
L 689.112531 380.942957 
L 711.048649 375.814817 
L 732.984767 367.48159 
L 754.920885 358.507345 
L 776.857002 337.353768 
L 798.79312 316.841208 
L 820.729238 295.687631 
L 842.665356 272.611002 
L 864.601474 260.431669 
L 886.537592 254.662512 
L 908.47371 245.04725 
L 930.409828 208.509253 
L 952.345946 138.638347 
L 974.282064 108.510525 
L 996.218182 89.28 
" clip-path="url(#pe37030c1a6)" style="fill: none; stroke: #1f77b4; stroke-width: 1.5; stroke-linecap: square"/>
   </g>
   <g id="patch_3">
    <path d="M 144 512.64 
L 144 69.12 
" style="fill: none; stroke: #000000; stroke-width: 0.8; stroke-linejoin: miter; stroke-linecap: square"/>
   </g>
   <g id="patch_4">
    <path d="M 1036.8 512.64 
L 1036.8 69.12 
" style="fill: none; stroke: #000000; stroke-width: 0.8; stroke-linejoin: miter; stroke-linecap: square"/>
   </g>
   <g id="patch_5">
    <path d="M 144 512.64 
L 1036.8 512.64 
" style="fill: none; stroke: #000000; stroke-width: 0.8; stroke-linejoin: miter; stroke-linecap: square"/>
   </g>
   <g id="patch_6">
    <path d="M 144 69.12 
L 1036.8 69.12 
" style="fill: none; stroke: #000000; stroke-width: 0.8; stroke-linejoin: miter; stroke-linecap: square"/>
   </g>
   <g id="text_18">
    <!-- Number of AEDs in the OpenStreetMap database in Poland from 2025-01-01, day by day. As at: 2025-02-07 -->
    <g transform="translate(144 63.12) scale(0.14 -0.14)">
     <defs>
      <path id="DejaVuSans-4e" d="M 628 4666 
L 1478 4666 
L 3547 763 
L 3547 4666 
L 4159 4666 
L 4159 0 
L 3309 0 
L 1241 3903 
L 1241 0 
L 628 0 
L 628 4666 
z
" transform="scale(0.015625)"/>
      <path id="DejaVuSans-75" d="M 544 1381 
L 544 3500 
L 1119 3500 
L 1119 1403 
Q 1119 906 1312 657 
Q 1506 409 1894 409 
Q 2359 409 2629 706 
Q 2900 1003 2900 1516 
L 2900 3500 
L 3475 3500 
L 3475 0 
L 2900 0 
L 2900 538 
Q 2691 219 2414 64 
Q 2138 -91 1772 -91 
Q 1169 -91 856 284 
Q 544 659 544 1381 
z
M 1991 3584 
L 1991 3584 
z
" transform="scale(0.015625)"/>
      <path id="DejaVuSans-6d" d="M 3328 2828 
Q 3544 3216 3844 3400 
Q 4144 3584 4550 3584 
Q 5097 3584 5394 3201 
Q 5691 2819 5691 2113 
L 5691 0 
L 5113 0 
L 5113 2094 
Q 5113 2597 4934 2840 
Q 4756 3084 4391 3084 
Q 3944 3084 3684 2787 
Q 3425 2491 3425 1978 
L 3425 0 
L 2847 0 
L 2847 2094 
Q 2847 2600 2669 2842 
Q 2491 3084 2119 3084 
Q 1678 3084 1418 2786 
Q 1159 2488 1159 1978 
L 1159 0 
L 581 0 
L 581 3500 
L 1159 3500 
L 1159 2956 
Q 1356 3278 1631 3431 
Q 1906 3584 2284 3584 
Q 2666 3584 2933 3390 
Q 3200 3197 3328 2828 
z
" transform="scale(0.015625)"/>
      <path id="DejaVuSans-62" d="M 3116 1747 
Q 3116 2381 2855 2742 
Q 2594 3103 2138 3103 
Q 1681 3103 1420 2742 
Q 1159 2381 1159 1747 
Q 1159 1113 1420 752 
Q 1681 391 2138 391 
Q 2594 391 2855 752 
Q 3116 1113 3116 1747 
z
M 1159 2969 
Q 1341 3281 1617 3432 
Q 1894 3584 2278 3584 
Q 2916 3584 3314 3078 
Q 3713 2572 3713 1747 
Q 3713 922 3314 415 
Q 2916 -91 2278 -91 
Q 1894 -91 1617 61 
Q 1341 213 1159 525 
L 1159 0 
L 581 0 
L 581 4863 
L 1159 4863 
L 1159 2969 
z
" transform="scale(0.015625)"/>
      <path id="DejaVuSans-65" d="M 3597 1894 
L 3597 1613 
L 953 1613 
Q 991 1019 1311 708 
Q 1631 397 2203 397 
Q 2534 397 2845 478 
Q 3156 559 3463 722 
L 3463 178 
Q 3153 47 2828 -22 
Q 2503 -91 2169 -91 
Q 1331 -91 842 396 
Q 353 884 353 1716 
Q 353 2575 817 3079 
Q 1281 3584 2069 3584 
Q 2775 3584 3186 3129 
Q 3597 2675 3597 1894 
z
M 3022 2063 
Q 3016 2534 2758 2815 
Q 2500 3097 2075 3097 
Q 1594 3097 1305 2825 
Q 1016 2553 972 2059 
L 3022 2063 
z
" transform="scale(0.015625)"/>
      <path id="DejaVuSans-72" d="M 2631 2963 
Q 2534 3019 2420 3045 
Q 2306 3072 2169 3072 
Q 1681 3072 1420 2755 
Q 1159 2438 1159 1844 
L 1159 0 
L 581 0 
L 581 3500 
L 1159 3500 
L 1159 2956 
Q 1341 3275 1631 3429 
Q 1922 3584 2338 3584 
Q 2397 3584 2469 3576 
Q 2541 3569 2628 3553 
L 2631 2963 
z
" transform="scale(0.015625)"/>
      <path id="DejaVuSans-20" transform="scale(0.015625)"/>
      <path id="DejaVuSans-6f" d="M 1959 3097 
Q 1497 3097 1228 2736 
Q 959 2375 959 1747 
Q 959 1119 1226 758 
Q 1494 397 1959 397 
Q 2419 397 2687 759 
Q 2956 1122 2956 1747 
Q 2956 2369 2687 2733 
Q 2419 3097 1959 3097 
z
M 1959 3584 
Q 2709 3584 3137 3096 
Q 3566 2609 3566 1747 
Q 3566 888 3137 398 
Q 2709 -91 1959 -91 
Q 1206 -91 779 398 
Q 353 888 353 1747 
Q 353 2609 779 3096 
Q 1206 3584 1959 3584 
z
" transform="scale(0.015625)"/>
      <path id="DejaVuSans-66" d="M 2375 4863 
L 2375 4384 
L 1825 4384 
Q 1516 4384 1395 4259 
Q 1275 4134 1275 3809 
L 1275 3500 
L 2222 3500 
L 2222 3053 
L 1275 3053 
L 1275 0 
L 697 0 
L 697 3053 
L 147 3053 
L 147 3500 
L 697 3500 
L 697 3744 
Q 697 4328 969 4595 
Q 1241 4863 1831 4863 
L 2375 4863 
z
" transform="scale(0.015625)"/>
      <path id="DejaVuSans-41" d="M 2188 4044 
L 1331 1722 
L 3047 1722 
L 2188 4044 
z
M 1831 4666 
L 2547 4666 
L 4325 0 
L 3669 0 
L 3244 1197 
L 1141 1197 
L 716 0 
L 50 0 
L 1831 4666 
z
" transform="scale(0.015625)"/>
      <path id="DejaVuSans-45" d="M 628 4666 
L 3578 4666 
L 3578 4134 
L 1259 4134 
L 1259 2753 
L 3481 2753 
L 3481 2222 
L 1259 2222 
L 1259 531 
L 3634 531 
L 3634 0 
L 628 0 
L 628 4666 
z
" transform="scale(0.015625)"/>
      <path id="DejaVuSans-44" d="M 1259 4147 
L 1259 519 
L 2022 519 
Q 2988 519 3436 956 
Q 3884 1394 3884 2338 
Q 3884 3275 3436 3711 
Q 2988 4147 2022 4147 
L 1259 4147 
z
M 628 4666 
L 1925 4666 
Q 3281 4666 3915 4102 
Q 4550 3538 4550 2338 
Q 4550 1131 3912 565 
Q 3275 0 1925 0 
L 628 0 
L 628 4666 
z
" transform="scale(0.015625)"/>
      <path id="DejaVuSans-73" d="M 2834 3397 
L 2834 2853 
Q 2591 2978 2328 3040 
Q 2066 3103 1784 3103 
Q 1356 3103 1142 2972 
Q 928 2841 928 2578 
Q 928 2378 1081 2264 
Q 1234 2150 1697 2047 
L 1894 2003 
Q 2506 1872 2764 1633 
Q 3022 1394 3022 966 
Q 3022 478 2636 193 
Q 2250 -91 1575 -91 
Q 1294 -91 989 -36 
Q 684 19 347 128 
L 347 722 
Q 666 556 975 473 
Q 1284 391 1588 391 
Q 1994 391 2212 530 
Q 2431 669 2431 922 
Q 2431 1156 2273 1281 
Q 2116 1406 1581 1522 
L 1381 1569 
Q 847 1681 609 1914 
Q 372 2147 372 2553 
Q 372 3047 722 3315 
Q 1072 3584 1716 3584 
Q 2034 3584 2315 3537 
Q 2597 3491 2834 3397 
z
" transform="scale(0.015625)"/>
      <path id="DejaVuSans-69" d="M 603 3500 
L 1178 3500 
L 1178 0 
L 603 0 
L 603 3500 
z
M 603 4863 
L 1178 4863 
L 1178 4134 
L 603 4134 
L 603 4863 
z
" transform="scale(0.015625)"/>
      <path id="DejaVuSans-6e" d="M 3513 2113 
L 3513 0 
L 2938 0 
L 2938 2094 
Q 2938 2591 2744 2837 
Q 2550 3084 2163 3084 
Q 1697 3084 1428 2787 
Q 1159 2491 1159 1978 
L 1159 0 
L 581 0 
L 581 3500 
L 1159 3500 
L 1159 2956 
Q 1366 3272 1645 3428 
Q 1925 3584 2291 3584 
Q 2894 3584 3203 3211 
Q 3513 2838 3513 2113 
z
" transform="scale(0.015625)"/>
      <path id="DejaVuSans-74" d="M 1172 4494 
L 1172 3500 
L 2356 3500 
L 2356 3053 
L 1172 3053 
L 1172 1153 
Q 1172 725 1289 603 
Q 1406 481 1766 481 
L 2356 481 
L 2356 0 
L 1766 0 
Q 1100 0 847 248 
Q 594 497 594 1153 
L 594 3053 
L 172 3053 
L 172 3500 
L 594 3500 
L 594 4494 
L 1172 4494 
z
" transform="scale(0.015625)"/>
      <path id="DejaVuSans-68" d="M 3513 2113 
L 3513 0 
L 2938 0 
L 2938 2094 
Q 2938 2591 2744 2837 
Q 2550 3084 2163 3084 
Q 1697 3084 1428 2787 
Q 1159 2491 1159 1978 
L 1159 0 
L 581 0 
L 581 4863 
L 1159 4863 
L 1159 2956 
Q 1366 3272 1645 3428 
Q 1925 3584 2291 3584 
Q 2894 3584 3203 3211 
Q 3513 2838 3513 2113 
z
" transform="scale(0.015625)"/>
      <path id="DejaVuSans-4f" d="M 2522 4238 
Q 1834 4238 1429 3725 
Q 1025 3213 1025 2328 
Q 1025 1447 1429 934 
Q 1834 422 2522 422 
Q 3209 422 3611 934 
Q 4013 1447 4013 2328 
Q 4013 3213 3611 3725 
Q 3209 4238 2522 4238 
z
M 2522 4750 
Q 3503 4750 4090 4092 
Q 4678 3434 4678 2328 
Q 4678 1225 4090 567 
Q 3503 -91 2522 -91 
Q 1538 -91 948 565 
Q 359 1222 359 2328 
Q 359 3434 948 4092 
Q 1538 4750 2522 4750 
z
" transform="scale(0.015625)"/>
      <path id="DejaVuSans-70" d="M 1159 525 
L 1159 -1331 
L 581 -1331 
L 581 3500 
L 1159 3500 
L 1159 2969 
Q 1341 3281 1617 3432 
Q 1894 3584 2278 3584 
Q 2916 3584 3314 3078 
Q 3713 2572 3713 1747 
Q 3713 922 3314 415 
Q 2916 -91 2278 -91 
Q 1894 -91 1617 61 
Q 1341 213 1159 525 
z
M 3116 1747 
Q 3116 2381 2855 2742 
Q 2594 3103 2138 3103 
Q 1681 3103 1420 2742 
Q 1159 2381 1159 1747 
Q 1159 1113 1420 752 
Q 1681 391 2138 391 
Q 2594 391 2855 752 
Q 3116 1113 3116 1747 
z
" transform="scale(0.015625)"/>
      <path id="DejaVuSans-53" d="M 3425 4513 
L 3425 3897 
Q 3066 4069 2747 4153 
Q 2428 4238 2131 4238 
Q 1616 4238 1336 4038 
Q 1056 3838 1056 3469 
Q 1056 3159 1242 3001 
Q 1428 2844 1947 2747 
L 2328 2669 
Q 3034 2534 3370 2195 
Q 3706 1856 3706 1288 
Q 3706 609 3251 259 
Q 2797 -91 1919 -91 
Q 1588 -91 1214 -16 
Q 841 59 441 206 
L 441 856 
Q 825 641 1194 531 
Q 1563 422 1919 422 
Q 2459 422 2753 634 
Q 3047 847 3047 1241 
Q 3047 1584 2836 1778 
Q 2625 1972 2144 2069 
L 1759 2144 
Q 1053 2284 737 2584 
Q 422 2884 422 3419 
Q 422 4038 858 4394 
Q 1294 4750 2059 4750 
Q 2388 4750 2728 4690 
Q 3069 4631 3425 4513 
z
" transform="scale(0.015625)"/>
      <path id="DejaVuSans-4d" d="M 628 4666 
L 1569 4666 
L 2759 1491 
L 3956 4666 
L 4897 4666 
L 4897 0 
L 4281 0 
L 4281 4097 
L 3078 897 
L 2444 897 
L 1241 4097 
L 1241 0 
L 628 0 
L 628 4666 
z
" transform="scale(0.015625)"/>
      <path id="DejaVuSans-61" d="M 2194 1759 
Q 1497 1759 1228 1600 
Q 959 1441 959 1056 
Q 959 750 1161 570 
Q 1363 391 1709 391 
Q 2188 391 2477 730 
Q 2766 1069 2766 1631 
L 2766 1759 
L 2194 1759 
z
M 3341 1997 
L 3341 0 
L 2766 0 
L 2766 531 
Q 2569 213 2275 61 
Q 1981 -91 1556 -91 
Q 1019 -91 701 211 
Q 384 513 384 1019 
Q 384 1609 779 1909 
Q 1175 2209 1959 2209 
L 2766 2209 
L 2766 2266 
Q 2766 2663 2505 2880 
Q 2244 3097 1772 3097 
Q 1472 3097 1187 3025 
Q 903 2953 641 2809 
L 641 3341 
Q 956 3463 1253 3523 
Q 1550 3584 1831 3584 
Q 2591 3584 2966 3190 
Q 3341 2797 3341 1997 
z
" transform="scale(0.015625)"/>
      <path id="DejaVuSans-64" d="M 2906 2969 
L 2906 4863 
L 3481 4863 
L 3481 0 
L 2906 0 
L 2906 525 
Q 2725 213 2448 61 
Q 2172 -91 1784 -91 
Q 1150 -91 751 415 
Q 353 922 353 1747 
Q 353 2572 751 3078 
Q 1150 3584 1784 3584 
Q 2172 3584 2448 3432 
Q 2725 3281 2906 2969 
z
M 947 1747 
Q 947 1113 1208 752 
Q 1469 391 1925 391 
Q 2381 391 2643 752 
Q 2906 1113 2906 1747 
Q 2906 2381 2643 2742 
Q 2381 3103 1925 3103 
Q 1469 3103 1208 2742 
Q 947 2381 947 1747 
z
" transform="scale(0.015625)"/>
      <path id="DejaVuSans-50" d="M 1259 4147 
L 1259 2394 
L 2053 2394 
Q 2494 2394 2734 2622 
Q 2975 2850 2975 3272 
Q 2975 3691 2734 3919 
Q 2494 4147 2053 4147 
L 1259 4147 
z
M 628 4666 
L 2053 4666 
Q 2838 4666 3239 4311 
Q 3641 3956 3641 3272 
Q 3641 2581 3239 2228 
Q 2838 1875 2053 1875 
L 1259 1875 
L 1259 0 
L 628 0 
L 628 4666 
z
" transform="scale(0.015625)"/>
      <path id="DejaVuSans-6c" d="M 603 4863 
L 1178 4863 
L 1178 0 
L 603 0 
L 603 4863 
z
" transform="scale(0.015625)"/>
      <path id="DejaVuSans-2c" d="M 750 794 
L 1409 794 
L 1409 256 
L 897 -744 
L 494 -744 
L 750 256 
L 750 794 
z
" transform="scale(0.015625)"/>
      <path id="DejaVuSans-79" d="M 2059 -325 
Q 1816 -950 1584 -1140 
Q 1353 -1331 966 -1331 
L 506 -1331 
L 506 -850 
L 844 -850 
Q 1081 -850 1212 -737 
Q 1344 -625 1503 -206 
L 1606 56 
L 191 3500 
L 800 3500 
L 1894 763 
L 2988 3500 
L 3597 3500 
L 2059 -325 
z
" transform="scale(0.015625)"/>
      <path id="DejaVuSans-2e" d="M 684 794 
L 1344 794 
L 1344 0 
L 684 0 
L 684 794 
z
" transform="scale(0.015625)"/>
      <path id="DejaVuSans-3a" d="M 750 794 
L 1409 794 
L 1409 0 
L 750 0 
L 750 794 
z
M 750 3309 
L 1409 3309 
L 1409 2516 
L 750 2516 
L 750 3309 
z
" transform="scale(0.015625)"/>
     </defs>
     <use xlink:href="#DejaVuSans-4e"/>
     <use xlink:href="#DejaVuSans-75" x="74.804688"/>
     <use xlink:href="#DejaVuSans-6d" x="138.183594"/>
     <use xlink:href="#DejaVuSans-62" x="235.595703"/>
     <use xlink:href="#DejaVuSans-65" x="299.072266"/>
     <use xlink:href="#DejaVuSans-72" x="360.595703"/>
     <use xlink:href="#DejaVuSans-20" x="401.708984"/>
     <use xlink:href="#DejaVuSans-6f" x="433.496094"/>
     <use xlink:href="#DejaVuSans-66" x="494.677734"/>
     <use xlink:href="#DejaVuSans-20" x="529.882812"/>
     <use xlink:href="#DejaVuSans-41" x="561.669922"/>
     <use xlink:href="#DejaVuSans-45" x="630.078125"/>
     <use xlink:href="#DejaVuSans-44" x="693.261719"/>
     <use xlink:href="#DejaVuSans-73" x="770.263672"/>
     <use xlink:href="#DejaVuSans-20" x="822.363281"/>
     <use xlink:href="#DejaVuSans-69" x="854.150391"/>
     <use xlink:href="#DejaVuSans-6e" x="881.933594"/>
     <use xlink:href="#DejaVuSans-20" x="945.3125"/>
     <use xlink:href="#DejaVuSans-74" x="977.099609"/>
     <use xlink:href="#DejaVuSans-68" x="1016.308594"/>
     <use xlink:href="#DejaVuSans-65" x="1079.6875"/>
     <use xlink:href="#DejaVuSans-20" x="1141.210938"/>
     <use xlink:href="#DejaVuSans-4f" x="1172.998047"/>
     <use xlink:href="#DejaVuSans-70" x="1251.708984"/>
     <use xlink:href="#DejaVuSans-65" x="1315.185547"/>
     <use xlink:href="#DejaVuSans-6e" x="1376.708984"/>
     <use xlink:href="#DejaVuSans-53" x="1440.087891"/>
     <use xlink:href="#DejaVuSans-74" x="1503.564453"/>
     <use xlink:href="#DejaVuSans-72" x="1542.773438"/>
     <use xlink:href="#DejaVuSans-65" x="1581.636719"/>
     <use xlink:href="#DejaVuSans-65" x="1643.160156"/>
     <use xlink:href="#DejaVuSans-74" x="1704.683594"/>
     <use xlink:href="#DejaVuSans-4d" x="1743.892578"/>
     <use xlink:href="#DejaVuSans-61" x="1830.171875"/>
     <use xlink:href="#DejaVuSans-70" x="1891.451172"/>
     <use xlink:href="#DejaVuSans-20" x="1954.927734"/>
     <use xlink:href="#DejaVuSans-64" x="1986.714844"/>
     <use xlink:href="#DejaVuSans-61" x="2050.191406"/>
     <use xlink:href="#DejaVuSans-74" x="2111.470703"/>
     <use xlink:href="#DejaVuSans-61" x="2150.679688"/>
     <use xlink:href="#DejaVuSans-62" x="2211.958984"/>
     <use xlink:href="#DejaVuSans-61" x="2275.435547"/>
     <use xlink:href="#DejaVuSans-73" x="2336.714844"/>
     <use xlink:href="#DejaVuSans-65" x="2388.814453"/>
     <use xlink:href="#DejaVuSans-20" x="2450.337891"/>
     <use xlink:href="#DejaVuSans-69" x="2482.125"/>
     <use xlink:href="#DejaVuSans-6e" x="2509.908203"/>
     <use xlink:href="#DejaVuSans-20" x="2573.287109"/>
     <use xlink:href="#DejaVuSans-50" x="2605.074219"/>
     <use xlink:href="#DejaVuSans-6f" x="2661.751953"/>
     <use xlink:href="#DejaVuSans-6c" x="2722.933594"/>
     <use xlink:href="#DejaVuSans-61" x="2750.716797"/>
     <use xlink:href="#DejaVuSans-6e" x="2811.996094"/>
     <use xlink:href="#DejaVuSans-64" x="2875.375"/>
     <use xlink:href="#DejaVuSans-20" x="2938.851562"/>
     <use xlink:href="#DejaVuSans-66" x="2970.638672"/>
     <use xlink:href="#DejaVuSans-72" x="3005.84375"/>
     <use xlink:href="#DejaVuSans-6f" x="3044.707031"/>
     <use xlink:href="#DejaVuSans-6d" x="3105.888672"/>
     <use xlink:href="#DejaVuSans-20" x="3203.300781"/>
     <use xlink:href="#DejaVuSans-32" x="3235.087891"/>
     <use xlink:href="#DejaVuSans-30" x="3298.710938"/>
     <use xlink:href="#DejaVuSans-32" x="3362.333984"/>
     <use xlink:href="#DejaVuSans-35" x="3425.957031"/>
     <use xlink:href="#DejaVuSans-2d" x="3489.580078"/>
     <use xlink:href="#DejaVuSans-30" x="3525.664062"/>
     <use xlink:href="#DejaVuSans-31" x="3589.287109"/>
     <use xlink:href="#DejaVuSans-2d" x="3652.910156"/>
     <use xlink:href="#DejaVuSans-30" x="3688.994141"/>
     <use xlink:href="#DejaVuSans-31" x="3752.617188"/>
     <use xlink:href="#DejaVuSans-2c" x="3816.240234"/>
     <use xlink:href="#DejaVuSans-20" x="3848.027344"/>
     <use xlink:href="#DejaVuSans-64" x="3879.814453"/>
     <use xlink:href="#DejaVuSans-61" x="3943.291016"/>
     <use xlink:href="#DejaVuSans-79" x="4004.570312"/>
     <use xlink:href="#DejaVuSans-20" x="4063.75"/>
     <use xlink:href="#DejaVuSans-62" x="4095.537109"/>
     <use xlink:href="#DejaVuSans-79" x="4159.013672"/>
     <use xlink:href="#DejaVuSans-20" x="4218.193359"/>
     <use xlink:href="#DejaVuSans-64" x="4249.980469"/>
     <use xlink:href="#DejaVuSans-61" x="4313.457031"/>
     <use xlink:href="#DejaVuSans-79" x="4374.736328"/>
     <use xlink:href="#DejaVuSans-2e" x="4419.666016"/>
     <use xlink:href="#DejaVuSans-20" x="4451.453125"/>
     <use xlink:href="#DejaVuSans-41" x="4483.240234"/>
     <use xlink:href="#DejaVuSans-73" x="4551.648438"/>
     <use xlink:href="#DejaVuSans-20" x="4603.748047"/>
     <use xlink:href="#DejaVuSans-61" x="4635.535156"/>
     <use xlink:href="#DejaVuSans-74" x="4696.814453"/>
     <use xlink:href="#DejaVuSans-3a" x="4736.023438"/>
     <use xlink:href="#DejaVuSans-20" x="4769.714844"/>
     <use xlink:href="#DejaVuSans-32" x="4801.501953"/>
     <use xlink:href="#DejaVuSans-30" x="4865.125"/>
     <use xlink:href="#DejaVuSans-32" x="4928.748047"/>
     <use xlink:href="#DejaVuSans-35" x="4992.371094"/>
     <use xlink:href="#DejaVuSans-2d" x="5055.994141"/>
     <use xlink:href="#DejaVuSans-30" x="5092.078125"/>
     <use xlink:href="#DejaVuSans-32" x="5155.701172"/>
     <use xlink:href="#DejaVuSans-2d" x="5219.324219"/>
     <use xlink:href="#DejaVuSans-30" x="5255.408203"/>
     <use xlink:href="#DejaVuSans-37" x="5319.03125"/>
    </g>
   </g>
  </g>
 </g>
 <defs>
  <clipPath id="pe37030c1a6">
   <rect x="144" y="69.12" width="892.8" height="443.52"/>
  </clipPath>
 </defs>
</svg>
