<?xml version="1.0" encoding="utf-8" standalone="no"?>
<!DOCTYPE svg PUBLIC "-//W3C//DTD SVG 1.1//EN"
  "http://www.w3.org/Graphics/SVG/1.1/DTD/svg11.dtd">
<svg xmlns:xlink="http://www.w3.org/1999/xlink" width="1152pt" height="576pt" viewBox="0 0 1152 576" xmlns="http://www.w3.org/2000/svg" version="1.1">
 <metadata>
  <rdf:RDF xmlns:dc="http://purl.org/dc/elements/1.1/" xmlns:cc="http://creativecommons.org/ns#" xmlns:rdf="http://www.w3.org/1999/02/22-rdf-syntax-ns#">
   <cc:Work>
    <dc:type rdf:resource="http://purl.org/dc/dcmitype/StillImage"/>
    <dc:date>1980-01-01T00:00:00+00:00</dc:date>
    <dc:format>image/svg+xml</dc:format>
    <dc:creator>
     <cc:Agent>
      <dc:title>Matplotlib v3.9.1, https://matplotlib.org/</dc:title>
     </cc:Agent>
    </dc:creator>
   </cc:Work>
  </rdf:RDF>
 </metadata>
 <defs>
  <style type="text/css">*{stroke-linejoin: round; stroke-linecap: butt}</style>
 </defs>
 <g id="figure_1">
  <g id="patch_1">
   <path d="M 0 576 
L 1152 576 
L 1152 0 
L 0 0 
z
" style="fill: #ffffff"/>
  </g>
  <g id="axes_1">
   <g id="patch_2">
    <path d="M 144 512.64 
L 1036.8 512.64 
L 1036.8 69.12 
L 144 69.12 
z
" style="fill: #ffffff"/>
   </g>
   <g id="PathCollection_1">
    <path d="M 184.581818 496.352983 
C 185.608945 496.352983 186.594142 495.944901 187.320431 495.218613 
C 188.04672 494.492324 188.454802 493.507127 188.454802 492.48 
C 188.454802 491.452873 188.04672 490.467676 187.320431 489.741387 
C 186.594142 489.015099 185.608945 488.607017 184.581818 488.607017 
C 183.554691 488.607017 182.569494 489.015099 181.843205 489.741387 
C 181.116917 490.467676 180.708835 491.452873 180.708835 492.48 
C 180.708835 493.507127 181.116917 494.492324 181.843205 495.218613 
C 182.569494 495.944901 183.554691 496.352983 184.581818 496.352983 
z
" clip-path="url(#pa06d665487)" style="fill: #1f77b4; fill-opacity: 0.3; stroke: #1f77b4; stroke-opacity: 0.3"/>
    <path d="M 202.226087 492.216446 
C 204.005123 492.216446 205.711535 491.509627 206.969503 490.251659 
C 208.227472 488.99369 208.934291 487.287279 208.934291 485.508242 
C 208.934291 483.729206 208.227472 482.022794 206.969503 480.764826 
C 205.711535 479.506857 204.005123 478.800038 202.226087 478.800038 
C 200.44705 478.800038 198.740639 479.506857 197.48267 480.764826 
C 196.224702 482.022794 195.517883 483.729206 195.517883 485.508242 
C 195.517883 487.287279 196.224702 488.99369 197.48267 490.251659 
C 198.740639 491.509627 200.44705 492.216446 202.226087 492.216446 
z
" clip-path="url(#pa06d665487)" style="fill: #1f77b4; fill-opacity: 0.3; stroke: #1f77b4; stroke-opacity: 0.3"/>
    <path d="M 219.870356 483.029886 
C 222.089204 483.029886 224.217473 482.148328 225.786436 480.579365 
C 227.355398 479.010402 228.236956 476.882134 228.236956 474.663285 
C 228.236956 472.444437 227.355398 470.316168 225.786436 468.747206 
C 224.217473 467.178243 222.089204 466.296685 219.870356 466.296685 
C 217.651507 466.296685 215.523239 467.178243 213.954276 468.747206 
C 212.385313 470.316168 211.503755 472.444437 211.503755 474.663285 
C 211.503755 476.882134 212.385313 479.010402 213.954276 480.579365 
C 215.523239 482.148328 217.651507 483.029886 219.870356 483.029886 
z
" clip-path="url(#pa06d665487)" style="fill: #1f77b4; fill-opacity: 0.3; stroke: #1f77b4; stroke-opacity: 0.3"/>
    <path d="M 237.514625 475.646811 
C 238.905361 475.646811 240.239324 475.094265 241.222724 474.110866 
C 242.206123 473.127466 242.758669 471.793503 242.758669 470.402767 
C 242.758669 469.01203 242.206123 467.678067 241.222724 466.694667 
C 240.239324 465.711268 238.905361 465.158722 237.514625 465.158722 
C 236.123888 465.158722 234.789925 465.711268 233.806525 466.694667 
C 232.823126 467.678067 232.27058 469.01203 232.27058 470.402767 
C 232.27058 471.793503 232.823126 473.127466 233.806525 474.110866 
C 234.789925 475.094265 236.123888 475.646811 237.514625 475.646811 
z
" clip-path="url(#pa06d665487)" style="fill: #1f77b4; fill-opacity: 0.3; stroke: #1f77b4; stroke-opacity: 0.3"/>
    <path d="M 255.158893 472.001701 
C 256.096528 472.001701 256.995886 471.629175 257.658893 470.966167 
C 258.321901 470.303159 258.694427 469.403802 258.694427 468.466167 
C 258.694427 467.528533 258.321901 466.629175 257.658893 465.966167 
C 256.995886 465.303159 256.096528 464.930633 255.158893 464.930633 
C 254.221259 464.930633 253.321901 465.303159 252.658893 465.966167 
C 251.995886 466.629175 251.623359 467.528533 251.623359 468.466167 
C 251.623359 469.403802 251.995886 470.303159 252.658893 470.966167 
C 253.321901 471.629175 254.221259 472.001701 255.158893 472.001701 
z
" clip-path="url(#pa06d665487)" style="fill: #1f77b4; fill-opacity: 0.3; stroke: #1f77b4; stroke-opacity: 0.3"/>
    <path d="M 272.803162 468.400932 
C 274.532075 468.400932 276.190408 467.714027 277.412934 466.491501 
C 278.63546 465.268975 279.322364 463.610642 279.322364 461.881729 
C 279.322364 460.152816 278.63546 458.494483 277.412934 457.271957 
C 276.190408 456.049431 274.532075 455.362527 272.803162 455.362527 
C 271.074249 455.362527 269.415916 456.049431 268.19339 457.271957 
C 266.970864 458.494483 266.28396 460.152816 266.28396 461.881729 
C 266.28396 463.610642 266.970864 465.268975 268.19339 466.491501 
C 269.415916 467.714027 271.074249 468.400932 272.803162 468.400932 
z
" clip-path="url(#pa06d665487)" style="fill: #1f77b4; fill-opacity: 0.3; stroke: #1f77b4; stroke-opacity: 0.3"/>
    <path d="M 290.447431 462.009166 
C 292.124723 462.009166 293.733542 461.342771 294.919567 460.156747 
C 296.105591 458.970723 296.771986 457.361903 296.771986 455.684611 
C 296.771986 454.007319 296.105591 452.398499 294.919567 451.212475 
C 293.733542 450.026451 292.124723 449.360056 290.447431 449.360056 
C 288.770139 449.360056 287.161319 450.026451 285.975295 451.212475 
C 284.789271 452.398499 284.122876 454.007319 284.122876 455.684611 
C 284.122876 457.361903 284.789271 458.970723 285.975295 460.156747 
C 287.161319 461.342771 288.770139 462.009166 290.447431 462.009166 
z
" clip-path="url(#pa06d665487)" style="fill: #1f77b4; fill-opacity: 0.3; stroke: #1f77b4; stroke-opacity: 0.3"/>
    <path d="M 308.0917 450.191816 
C 310.743731 450.191816 313.287498 449.138152 315.162767 447.262883 
C 317.038037 445.387614 318.0917 442.843847 318.0917 440.191816 
C 318.0917 437.539785 317.038037 434.996017 315.162767 433.120748 
C 313.287498 431.245479 310.743731 430.191816 308.0917 430.191816 
C 305.439669 430.191816 302.895901 431.245479 301.020632 433.120748 
C 299.145363 434.996017 298.0917 437.539785 298.0917 440.191816 
C 298.0917 442.843847 299.145363 445.387614 301.020632 447.262883 
C 302.895901 449.138152 305.439669 450.191816 308.0917 450.191816 
z
" clip-path="url(#pa06d665487)" style="fill: #1f77b4; fill-opacity: 0.3; stroke: #1f77b4; stroke-opacity: 0.3"/>
    <path d="M 325.735968 439.516486 
C 327.611237 439.516486 329.409953 438.771433 330.735968 437.445418 
C 332.061984 436.119402 332.807036 434.320687 332.807036 432.445418 
C 332.807036 430.570149 332.061984 428.771433 330.735968 427.445418 
C 329.409953 426.119402 327.611237 425.37435 325.735968 425.37435 
C 323.860699 425.37435 322.061984 426.119402 320.735968 427.445418 
C 319.409953 428.771433 318.664901 430.570149 318.664901 432.445418 
C 318.664901 434.320687 319.409953 436.119402 320.735968 437.445418 
C 322.061984 438.771433 323.860699 439.516486 325.735968 439.516486 
z
" clip-path="url(#pa06d665487)" style="fill: #1f77b4; fill-opacity: 0.3; stroke: #1f77b4; stroke-opacity: 0.3"/>
    <path d="M 343.380237 433.572219 
C 344.706253 433.572219 345.978137 433.045387 346.915771 432.107753 
C 347.853406 431.170118 348.380237 429.898235 348.380237 428.572219 
C 348.380237 427.246204 347.853406 425.97432 346.915771 425.036685 
C 345.978137 424.099051 344.706253 423.572219 343.380237 423.572219 
C 342.054222 423.572219 340.782338 424.099051 339.844703 425.036685 
C 338.907069 425.97432 338.380237 427.246204 338.380237 428.572219 
C 338.380237 429.898235 338.907069 431.170118 339.844703 432.107753 
C 340.782338 433.045387 342.054222 433.572219 343.380237 433.572219 
z
" clip-path="url(#pa06d665487)" style="fill: #1f77b4; fill-opacity: 0.3; stroke: #1f77b4; stroke-opacity: 0.3"/>
    <path d="M 361.024506 430.033647 
C 361.617518 430.033647 362.186322 429.798041 362.605645 429.378718 
C 363.024968 428.959395 363.260574 428.390591 363.260574 427.797579 
C 363.260574 427.204567 363.024968 426.635763 362.605645 426.21644 
C 362.186322 425.797118 361.617518 425.561511 361.024506 425.561511 
C 360.431494 425.561511 359.86269 425.797118 359.443367 426.21644 
C 359.024044 426.635763 358.788438 427.204567 358.788438 427.797579 
C 358.788438 428.390591 359.024044 428.959395 359.443367 429.378718 
C 359.86269 429.798041 360.431494 430.033647 361.024506 430.033647 
z
" clip-path="url(#pa06d665487)" style="fill: #1f77b4; fill-opacity: 0.3; stroke: #1f77b4; stroke-opacity: 0.3"/>
    <path d="M 378.668775 421.243593 
C 381.450248 421.243593 384.118174 420.138502 386.084973 418.171703 
C 388.051772 416.204904 389.156863 413.536978 389.156863 410.755504 
C 389.156863 407.974031 388.051772 405.306105 386.084973 403.339306 
C 384.118174 401.372507 381.450248 400.267416 378.668775 400.267416 
C 375.887301 400.267416 373.219375 401.372507 371.252576 403.339306 
C 369.285777 405.306105 368.180686 407.974031 368.180686 410.755504 
C 368.180686 413.536978 369.285777 416.204904 371.252576 418.171703 
C 373.219375 420.138502 375.887301 421.243593 378.668775 421.243593 
z
" clip-path="url(#pa06d665487)" style="fill: #1f77b4; fill-opacity: 0.3; stroke: #1f77b4; stroke-opacity: 0.3"/>
    <path d="M 396.313043 408.978201 
C 398.409658 408.978201 400.420683 408.145208 401.903213 406.662677 
C 403.385744 405.180147 404.218738 403.169122 404.218738 401.072507 
C 404.218738 398.975893 403.385744 396.964868 401.903213 395.482337 
C 400.420683 393.999807 398.409658 393.166813 396.313043 393.166813 
C 394.216429 393.166813 392.205404 393.999807 390.722874 395.482337 
C 389.240343 396.964868 388.407349 398.975893 388.407349 401.072507 
C 388.407349 403.169122 389.240343 405.180147 390.722874 406.662677 
C 392.205404 408.145208 394.216429 408.978201 396.313043 408.978201 
z
" clip-path="url(#pa06d665487)" style="fill: #1f77b4; fill-opacity: 0.3; stroke: #1f77b4; stroke-opacity: 0.3"/>
    <path d="M 413.957312 401.738226 
C 415.469203 401.738226 416.919373 401.137545 417.988441 400.068478 
C 419.057509 398.99941 419.658189 397.549239 419.658189 396.037349 
C 419.658189 394.525458 419.057509 393.075288 417.988441 392.00622 
C 416.919373 390.937152 415.469203 390.336472 413.957312 390.336472 
C 412.445422 390.336472 410.995251 390.937152 409.926183 392.00622 
C 408.857116 393.075288 408.256435 394.525458 408.256435 396.037349 
C 408.256435 397.549239 408.857116 398.99941 409.926183 400.068478 
C 410.995251 401.137545 412.445422 401.738226 413.957312 401.738226 
z
" clip-path="url(#pa06d665487)" style="fill: #1f77b4; fill-opacity: 0.3; stroke: #1f77b4; stroke-opacity: 0.3"/>
    <path d="M 431.601581 392.587384 
C 433.97363 392.587384 436.248845 391.644959 437.926136 389.967668 
C 439.603428 388.290376 440.545853 386.015161 440.545853 383.643112 
C 440.545853 381.271064 439.603428 378.995849 437.926136 377.318557 
C 436.248845 375.641265 433.97363 374.69884 431.601581 374.69884 
C 429.229532 374.69884 426.954317 375.641265 425.277026 377.318557 
C 423.599734 378.995849 422.657309 381.271064 422.657309 383.643112 
C 422.657309 386.015161 423.599734 388.290376 425.277026 389.967668 
C 426.954317 391.644959 429.229532 392.587384 431.601581 392.587384 
z
" clip-path="url(#pa06d665487)" style="fill: #1f77b4; fill-opacity: 0.3; stroke: #1f77b4; stroke-opacity: 0.3"/>
    <path d="M 449.24585 377.356578 
C 451.995534 377.356578 454.632969 376.264117 456.577289 374.319796 
C 458.521609 372.375476 459.61407 369.738042 459.61407 366.988357 
C 459.61407 364.238673 458.521609 361.601239 456.577289 359.656918 
C 454.632969 357.712598 451.995534 356.620137 449.24585 356.620137 
C 446.496166 356.620137 443.858731 357.712598 441.914411 359.656918 
C 439.97009 361.601239 438.877629 364.238673 438.877629 366.988357 
C 438.877629 369.738042 439.97009 372.375476 441.914411 374.319796 
C 443.858731 376.264117 446.496166 377.356578 449.24585 377.356578 
z
" clip-path="url(#pa06d665487)" style="fill: #1f77b4; fill-opacity: 0.3; stroke: #1f77b4; stroke-opacity: 0.3"/>
    <path d="M 466.890119 368.601355 
C 467.728764 368.601355 468.533174 368.268158 469.126187 367.675146 
C 469.719199 367.082134 470.052396 366.277724 470.052396 365.439078 
C 470.052396 364.600432 469.719199 363.796022 469.126187 363.20301 
C 468.533174 362.609998 467.728764 362.2768 466.890119 362.2768 
C 466.051473 362.2768 465.247063 362.609998 464.654051 363.20301 
C 464.061038 363.796022 463.727841 364.600432 463.727841 365.439078 
C 463.727841 366.277724 464.061038 367.082134 464.654051 367.675146 
C 465.247063 368.268158 466.051473 368.601355 466.890119 368.601355 
z
" clip-path="url(#pa06d665487)" style="fill: #1f77b4; fill-opacity: 0.3; stroke: #1f77b4; stroke-opacity: 0.3"/>
    <path d="M 484.534387 366.422603 
C 485.925124 366.422603 487.259087 365.870058 488.242487 364.886658 
C 489.225886 363.903259 489.778432 362.569296 489.778432 361.178559 
C 489.778432 359.787822 489.225886 358.453859 488.242487 357.47046 
C 487.259087 356.48706 485.925124 355.934515 484.534387 355.934515 
C 483.143651 355.934515 481.809688 356.48706 480.826288 357.47046 
C 479.842889 358.453859 479.290343 359.787822 479.290343 361.178559 
C 479.290343 362.569296 479.842889 363.903259 480.826288 364.886658 
C 481.809688 365.870058 483.143651 366.422603 484.534387 366.422603 
z
" clip-path="url(#pa06d665487)" style="fill: #1f77b4; fill-opacity: 0.3; stroke: #1f77b4; stroke-opacity: 0.3"/>
    <path d="M 502.178656 358.936761 
C 504.357522 358.936761 506.44744 358.071088 507.988131 356.530397 
C 509.528822 354.989706 510.394494 352.899788 510.394494 350.720922 
C 510.394494 348.542056 509.528822 346.452138 507.988131 344.911447 
C 506.44744 343.370756 504.357522 342.505084 502.178656 342.505084 
C 499.99979 342.505084 497.909872 343.370756 496.369181 344.911447 
C 494.82849 346.452138 493.962818 348.542056 493.962818 350.720922 
C 493.962818 352.899788 494.82849 354.989706 496.369181 356.530397 
C 497.909872 358.071088 499.99979 358.936761 502.178656 358.936761 
z
" clip-path="url(#pa06d665487)" style="fill: #1f77b4; fill-opacity: 0.3; stroke: #1f77b4; stroke-opacity: 0.3"/>
    <path d="M 519.822925 351.214524 
C 521.391888 351.214524 522.896801 350.591168 524.006225 349.481744 
C 525.115649 348.37232 525.739005 346.867407 525.739005 345.298444 
C 525.739005 343.729481 525.115649 342.224568 524.006225 341.115144 
C 522.896801 340.00572 521.391888 339.382364 519.822925 339.382364 
C 518.253962 339.382364 516.749049 340.00572 515.639625 341.115144 
C 514.530201 342.224568 513.906845 343.729481 513.906845 345.298444 
C 513.906845 346.867407 514.530201 348.37232 515.639625 349.481744 
C 516.749049 350.591168 518.253962 351.214524 519.822925 351.214524 
z
" clip-path="url(#pa06d665487)" style="fill: #1f77b4; fill-opacity: 0.3; stroke: #1f77b4; stroke-opacity: 0.3"/>
    <path d="M 537.467194 337.112789 
C 540.432254 337.112789 543.276273 335.934758 545.372888 333.838144 
C 547.469502 331.741529 548.647534 328.89751 548.647534 325.93245 
C 548.647534 322.967389 547.469502 320.12337 545.372888 318.026755 
C 543.276273 315.930141 540.432254 314.75211 537.467194 314.75211 
C 534.502133 314.75211 531.658114 315.930141 529.5615 318.026755 
C 527.464885 320.12337 526.286854 322.967389 526.286854 325.93245 
C 526.286854 328.89751 527.464885 331.741529 529.5615 333.838144 
C 531.658114 335.934758 534.502133 337.112789 537.467194 337.112789 
z
" clip-path="url(#pa06d665487)" style="fill: #1f77b4; fill-opacity: 0.3; stroke: #1f77b4; stroke-opacity: 0.3"/>
    <path d="M 555.111462 323.690651 
C 557.290328 323.690651 559.380247 322.824978 560.920937 321.284288 
C 562.461628 319.743597 563.327301 317.653678 563.327301 315.474813 
C 563.327301 313.295947 562.461628 311.206028 560.920937 309.665338 
C 559.380247 308.124647 557.290328 307.258974 555.111462 307.258974 
C 552.932597 307.258974 550.842678 308.124647 549.301987 309.665338 
C 547.761297 311.206028 546.895624 313.295947 546.895624 315.474813 
C 546.895624 317.653678 547.761297 319.743597 549.301987 321.284288 
C 550.842678 322.824978 552.932597 323.690651 555.111462 323.690651 
z
" clip-path="url(#pa06d665487)" style="fill: #1f77b4; fill-opacity: 0.3; stroke: #1f77b4; stroke-opacity: 0.3"/>
    <path d="M 572.755731 313.233014 
C 574.934597 313.233014 577.024515 312.367342 578.565206 310.826651 
C 580.105897 309.28596 580.97157 307.196042 580.97157 305.017176 
C 580.97157 302.83831 580.105897 300.748392 578.565206 299.207701 
C 577.024515 297.66701 574.934597 296.801337 572.755731 296.801337 
C 570.576865 296.801337 568.486947 297.66701 566.946256 299.207701 
C 565.405565 300.748392 564.539893 302.83831 564.539893 305.017176 
C 564.539893 307.196042 565.405565 309.28596 566.946256 310.826651 
C 568.486947 312.367342 570.576865 313.233014 572.755731 313.233014 
z
" clip-path="url(#pa06d665487)" style="fill: #1f77b4; fill-opacity: 0.3; stroke: #1f77b4; stroke-opacity: 0.3"/>
    <path d="M 590.4 302.299592 
C 592.658123 302.299592 594.824063 301.402431 596.420797 299.805696 
C 598.017531 298.208962 598.914693 296.043022 598.914693 293.784899 
C 598.914693 291.526776 598.017531 289.360836 596.420797 287.764102 
C 594.824063 286.167368 592.658123 285.270206 590.4 285.270206 
C 588.141877 285.270206 585.975937 286.167368 584.379203 287.764102 
C 582.782469 289.360836 581.885307 291.526776 581.885307 293.784899 
C 581.885307 296.043022 582.782469 298.208962 584.379203 299.805696 
C 585.975937 301.402431 588.141877 302.299592 590.4 302.299592 
z
" clip-path="url(#pa06d665487)" style="fill: #1f77b4; fill-opacity: 0.3; stroke: #1f77b4; stroke-opacity: 0.3"/>
    <path d="M 608.044269 295.397897 
C 608.882915 295.397897 609.687325 295.0647 610.280337 294.471688 
C 610.873349 293.878675 611.206546 293.074265 611.206546 292.23562 
C 611.206546 291.396974 610.873349 290.592564 610.280337 289.999552 
C 609.687325 289.406539 608.882915 289.073342 608.044269 289.073342 
C 607.205623 289.073342 606.401213 289.406539 605.808201 289.999552 
C 605.215189 290.592564 604.881991 291.396974 604.881991 292.23562 
C 604.881991 293.074265 605.215189 293.878675 605.808201 294.471688 
C 606.401213 295.0647 607.205623 295.397897 608.044269 295.397897 
z
" clip-path="url(#pa06d665487)" style="fill: #1f77b4; fill-opacity: 0.3; stroke: #1f77b4; stroke-opacity: 0.3"/>
    <path d="M 625.688538 293.834554 
C 626.626172 293.834554 627.52553 293.462028 628.188538 292.79902 
C 628.851545 292.136012 629.224071 291.236655 629.224071 290.29902 
C 629.224071 289.361386 628.851545 288.462028 628.188538 287.79902 
C 627.52553 287.136012 626.626172 286.763486 625.688538 286.763486 
C 624.750903 286.763486 623.851545 287.136012 623.188538 287.79902 
C 622.52553 288.462028 622.153004 289.361386 622.153004 290.29902 
C 622.153004 291.236655 622.52553 292.136012 623.188538 292.79902 
C 623.851545 293.462028 624.750903 293.834554 625.688538 293.834554 
z
" clip-path="url(#pa06d665487)" style="fill: #1f77b4; fill-opacity: 0.3; stroke: #1f77b4; stroke-opacity: 0.3"/>
    <path d="M 643.332806 285.585876 
C 645.883448 285.585876 648.329966 284.572496 650.133542 282.76892 
C 651.937118 280.965344 652.950498 278.518826 652.950498 275.968184 
C 652.950498 273.417543 651.937118 270.971025 650.133542 269.167449 
C 648.329966 267.363873 645.883448 266.350492 643.332806 266.350492 
C 640.782165 266.350492 638.335647 267.363873 636.532071 269.167449 
C 634.728495 270.971025 633.715114 273.417543 633.715114 275.968184 
C 633.715114 278.518826 634.728495 280.965344 636.532071 282.76892 
C 638.335647 284.572496 640.782165 285.585876 643.332806 285.585876 
z
" clip-path="url(#pa06d665487)" style="fill: #1f77b4; fill-opacity: 0.3; stroke: #1f77b4; stroke-opacity: 0.3"/>
    <path d="M 660.977075 267.50646 
C 663.97164 267.50646 666.843958 266.316707 668.961435 264.19923 
C 671.078912 262.081753 672.268665 259.209435 672.268665 256.21487 
C 672.268665 253.220306 671.078912 250.347988 668.961435 248.230511 
C 666.843958 246.113034 663.97164 244.923281 660.977075 244.923281 
C 657.98251 244.923281 655.110192 246.113034 652.992715 248.230511 
C 650.875238 250.347988 649.685485 253.220306 649.685485 256.21487 
C 649.685485 259.209435 650.875238 262.081753 652.992715 264.19923 
C 655.110192 266.316707 657.98251 267.50646 660.977075 267.50646 
z
" clip-path="url(#pa06d665487)" style="fill: #1f77b4; fill-opacity: 0.3; stroke: #1f77b4; stroke-opacity: 0.3"/>
    <path d="M 678.621344 252.516265 
C 681.030171 252.516265 683.340662 251.559228 685.04396 249.85593 
C 686.747258 248.152633 687.704295 245.842141 687.704295 243.433314 
C 687.704295 241.024487 686.747258 238.713996 685.04396 237.010698 
C 683.340662 235.3074 681.030171 234.350363 678.621344 234.350363 
C 676.212517 234.350363 673.902025 235.3074 672.198728 237.010698 
C 670.49543 238.713996 669.538393 241.024487 669.538393 243.433314 
C 669.538393 245.842141 670.49543 248.152633 672.198728 249.85593 
C 673.902025 251.559228 676.212517 252.516265 678.621344 252.516265 
z
" clip-path="url(#pa06d665487)" style="fill: #1f77b4; fill-opacity: 0.3; stroke: #1f77b4; stroke-opacity: 0.3"/>
    <path d="M 696.265613 241.191516 
C 698.444478 241.191516 700.534397 240.325843 702.075088 238.785152 
C 703.615778 237.244461 704.481451 235.154543 704.481451 232.975677 
C 704.481451 230.796811 703.615778 228.706893 702.075088 227.166202 
C 700.534397 225.625511 698.444478 224.759839 696.265613 224.759839 
C 694.086747 224.759839 691.996828 225.625511 690.456138 227.166202 
C 688.915447 228.706893 688.049774 230.796811 688.049774 232.975677 
C 688.049774 235.154543 688.915447 237.244461 690.456138 238.785152 
C 691.996828 240.325843 694.086747 241.191516 696.265613 241.191516 
z
" clip-path="url(#pa06d665487)" style="fill: #1f77b4; fill-opacity: 0.3; stroke: #1f77b4; stroke-opacity: 0.3"/>
    <path d="M 713.909881 234.588675 
C 714.748527 234.588675 715.552937 234.255478 716.145949 233.662466 
C 716.738962 233.069454 717.072159 232.265044 717.072159 231.426398 
C 717.072159 230.587752 716.738962 229.783342 716.145949 229.19033 
C 715.552937 228.597318 714.748527 228.26412 713.909881 228.26412 
C 713.071236 228.26412 712.266826 228.597318 711.673813 229.19033 
C 711.080801 229.783342 710.747604 230.587752 710.747604 231.426398 
C 710.747604 232.265044 711.080801 233.069454 711.673813 233.662466 
C 712.266826 234.255478 713.071236 234.588675 713.909881 234.588675 
z
" clip-path="url(#pa06d665487)" style="fill: #1f77b4; fill-opacity: 0.3; stroke: #1f77b4; stroke-opacity: 0.3"/>
    <path d="M 731.55415 232.409923 
C 732.944887 232.409923 734.27885 231.857378 735.262249 230.873978 
C 736.245649 229.890579 736.798194 228.556616 736.798194 227.165879 
C 736.798194 225.775142 736.245649 224.441179 735.262249 223.45778 
C 734.27885 222.47438 732.944887 221.921835 731.55415 221.921835 
C 730.163413 221.921835 728.82945 222.47438 727.846051 223.45778 
C 726.862652 224.441179 726.310106 225.775142 726.310106 227.165879 
C 726.310106 228.556616 726.862652 229.890579 727.846051 230.873978 
C 728.82945 231.857378 730.163413 232.409923 731.55415 232.409923 
z
" clip-path="url(#pa06d665487)" style="fill: #1f77b4; fill-opacity: 0.3; stroke: #1f77b4; stroke-opacity: 0.3"/>
    <path d="M 749.198419 225.616168 
C 751.252673 225.616168 753.223067 224.800005 754.675645 223.347427 
C 756.128222 221.89485 756.944386 219.924456 756.944386 217.870202 
C 756.944386 215.815947 756.128222 213.845553 754.675645 212.392976 
C 753.223067 210.940399 751.252673 210.124235 749.198419 210.124235 
C 747.144165 210.124235 745.173771 210.940399 743.721193 212.392976 
C 742.268616 213.845553 741.452452 215.815947 741.452452 217.870202 
C 741.452452 219.924456 742.268616 221.89485 743.721193 223.347427 
C 745.173771 224.800005 747.144165 225.616168 749.198419 225.616168 
z
" clip-path="url(#pa06d665487)" style="fill: #1f77b4; fill-opacity: 0.3; stroke: #1f77b4; stroke-opacity: 0.3"/>
    <path d="M 766.842688 215.862142 
C 768.980823 215.862142 771.031675 215.012652 772.543565 213.500762 
C 774.055455 211.988872 774.904945 209.93802 774.904945 207.799885 
C 774.904945 205.661749 774.055455 203.610898 772.543565 202.099008 
C 771.031675 200.587117 768.980823 199.737627 766.842688 199.737627 
C 764.704552 199.737627 762.653701 200.587117 761.141811 202.099008 
C 759.62992 203.610898 758.78043 205.661749 758.78043 207.799885 
C 758.78043 209.93802 759.62992 211.988872 761.141811 213.500762 
C 762.653701 215.012652 764.704552 215.862142 766.842688 215.862142 
z
" clip-path="url(#pa06d665487)" style="fill: #1f77b4; fill-opacity: 0.3; stroke: #1f77b4; stroke-opacity: 0.3"/>
    <path d="M 784.486957 209.173462 
C 785.672981 209.173462 786.810588 208.702249 787.649234 207.863603 
C 788.48788 207.024957 788.959092 205.88735 788.959092 204.701326 
C 788.959092 203.515301 788.48788 202.377694 787.649234 201.539048 
C 786.810588 200.700402 785.672981 200.22919 784.486957 200.22919 
C 783.300932 200.22919 782.163325 200.700402 781.324679 201.539048 
C 780.486033 202.377694 780.014821 203.515301 780.014821 204.701326 
C 780.014821 205.88735 780.486033 207.024957 781.324679 207.863603 
C 782.163325 208.702249 783.300932 209.173462 784.486957 209.173462 
z
" clip-path="url(#pa06d665487)" style="fill: #1f77b4; fill-opacity: 0.3; stroke: #1f77b4; stroke-opacity: 0.3"/>
    <path d="M 802.131225 201.741983 
C 804.427952 201.741983 806.630919 200.829484 808.25495 199.205453 
C 809.87898 197.581423 810.791479 195.378455 810.791479 193.081729 
C 810.791479 190.785003 809.87898 188.582035 808.25495 186.958005 
C 806.630919 185.333974 804.427952 184.421475 802.131225 184.421475 
C 799.834499 184.421475 797.631532 185.333974 796.007501 186.958005 
C 794.38347 188.582035 793.470971 190.785003 793.470971 193.081729 
C 793.470971 195.378455 794.38347 197.581423 796.007501 199.205453 
C 797.631532 200.829484 799.834499 201.741983 802.131225 201.741983 
z
" clip-path="url(#pa06d665487)" style="fill: #1f77b4; fill-opacity: 0.3; stroke: #1f77b4; stroke-opacity: 0.3"/>
    <path d="M 819.775494 192.818175 
C 821.554531 192.818175 823.260942 192.111356 824.518911 190.853388 
C 825.776879 189.595419 826.483698 187.889008 826.483698 186.109971 
C 826.483698 184.330935 825.776879 182.624523 824.518911 181.366555 
C 823.260942 180.108586 821.554531 179.401767 819.775494 179.401767 
C 817.996458 179.401767 816.290046 180.108586 815.032078 181.366555 
C 813.774109 182.624523 813.06729 184.330935 813.06729 186.109971 
C 813.06729 187.889008 813.774109 189.595419 815.032078 190.853388 
C 816.290046 192.111356 817.996458 192.818175 819.775494 192.818175 
z
" clip-path="url(#pa06d665487)" style="fill: #1f77b4; fill-opacity: 0.3; stroke: #1f77b4; stroke-opacity: 0.3"/>
    <path d="M 837.419763 186.939358 
C 838.87234 186.939358 840.265619 186.362243 841.292746 185.335116 
C 842.319873 184.307989 842.896988 182.91471 842.896988 181.462133 
C 842.896988 180.009555 842.319873 178.616276 841.292746 177.589149 
C 840.265619 176.562022 838.87234 175.984907 837.419763 175.984907 
C 835.967186 175.984907 834.573907 176.562022 833.546779 177.589149 
C 832.519652 178.616276 831.942537 180.009555 831.942537 181.462133 
C 831.942537 182.91471 832.519652 184.307989 833.546779 185.335116 
C 834.573907 186.362243 835.967186 186.939358 837.419763 186.939358 
z
" clip-path="url(#pa06d665487)" style="fill: #1f77b4; fill-opacity: 0.3; stroke: #1f77b4; stroke-opacity: 0.3"/>
    <path d="M 855.064032 175.706246 
C 857.749008 175.706246 860.324377 174.639493 862.222942 172.740928 
C 864.121507 170.842363 865.18826 168.266994 865.18826 165.582017 
C 865.18826 162.897041 864.121507 160.321672 862.222942 158.423107 
C 860.324377 156.524541 857.749008 155.457789 855.064032 155.457789 
C 852.379055 155.457789 849.803686 156.524541 847.905121 158.423107 
C 846.006556 160.321672 844.939803 162.897041 844.939803 165.582017 
C 844.939803 168.266994 846.006556 170.842363 847.905121 172.740928 
C 849.803686 174.639493 852.379055 175.706246 855.064032 175.706246 
z
" clip-path="url(#pa06d665487)" style="fill: #1f77b4; fill-opacity: 0.3; stroke: #1f77b4; stroke-opacity: 0.3"/>
    <path d="M 872.7083 166.075619 
C 874.277263 166.075619 875.782176 165.452263 876.891601 164.342839 
C 878.001025 163.233415 878.62438 161.728502 878.62438 160.159539 
C 878.62438 158.590576 878.001025 157.085663 876.891601 155.976239 
C 875.782176 154.866815 874.277263 154.243459 872.7083 154.243459 
C 871.139338 154.243459 869.634424 154.866815 868.525 155.976239 
C 867.415576 157.085663 866.792221 158.590576 866.792221 160.159539 
C 866.792221 161.728502 867.415576 163.233415 868.525 164.342839 
C 869.634424 165.452263 871.139338 166.075619 872.7083 166.075619 
z
" clip-path="url(#pa06d665487)" style="fill: #1f77b4; fill-opacity: 0.3; stroke: #1f77b4; stroke-opacity: 0.3"/>
    <path d="M 890.352569 155.702856 
C 892.868507 155.702856 895.281737 154.703263 897.060773 152.924227 
C 898.83981 151.145191 899.839402 148.731961 899.839402 146.216023 
C 899.839402 143.700086 898.83981 141.286856 897.060773 139.507819 
C 895.281737 137.728783 892.868507 136.72919 890.352569 136.72919 
C 887.836632 136.72919 885.423402 137.728783 883.644365 139.507819 
C 881.865329 141.286856 880.865736 143.700086 880.865736 146.216023 
C 880.865736 148.731961 881.865329 151.145191 883.644365 152.924227 
C 885.423402 154.703263 887.836632 155.702856 890.352569 155.702856 
z
" clip-path="url(#pa06d665487)" style="fill: #1f77b4; fill-opacity: 0.3; stroke: #1f77b4; stroke-opacity: 0.3"/>
    <path d="M 907.996838 143.974225 
C 910.175704 143.974225 912.265622 143.108552 913.806313 141.567861 
C 915.347004 140.02717 916.212676 137.937252 916.212676 135.758386 
C 916.212676 133.57952 915.347004 131.489602 913.806313 129.948911 
C 912.265622 128.40822 910.175704 127.542548 907.996838 127.542548 
C 905.817972 127.542548 903.728054 128.40822 902.187363 129.948911 
C 900.646672 131.489602 899.781 133.57952 899.781 135.758386 
C 899.781 137.937252 900.646672 140.02717 902.187363 141.567861 
C 903.728054 143.108552 905.817972 143.974225 907.996838 143.974225 
z
" clip-path="url(#pa06d665487)" style="fill: #1f77b4; fill-opacity: 0.3; stroke: #1f77b4; stroke-opacity: 0.3"/>
    <path d="M 925.641107 136.424105 
C 927.152997 136.424105 928.603168 135.823424 929.672236 134.754357 
C 930.741303 133.685289 931.341984 132.235118 931.341984 130.723228 
C 931.341984 129.211337 930.741303 127.761167 929.672236 126.692099 
C 928.603168 125.623031 927.152997 125.022351 925.641107 125.022351 
C 924.129216 125.022351 922.679046 125.623031 921.609978 126.692099 
C 920.54091 127.761167 919.94023 129.211337 919.94023 130.723228 
C 919.94023 132.235118 920.54091 133.685289 921.609978 134.754357 
C 922.679046 135.823424 924.129216 136.424105 925.641107 136.424105 
z
" clip-path="url(#pa06d665487)" style="fill: #1f77b4; fill-opacity: 0.3; stroke: #1f77b4; stroke-opacity: 0.3"/>
    <path d="M 943.285375 129.618389 
C 945.252174 129.618389 947.138683 128.836971 948.52942 127.446234 
C 949.920157 126.055498 950.701574 124.168989 950.701574 122.20219 
C 950.701574 120.235391 949.920157 118.348883 948.52942 116.958146 
C 947.138683 115.567409 945.252174 114.785992 943.285375 114.785992 
C 941.318577 114.785992 939.432068 115.567409 938.041331 116.958146 
C 936.650594 118.348883 935.869177 120.235391 935.869177 122.20219 
C 935.869177 124.168989 936.650594 126.055498 938.041331 127.446234 
C 939.432068 128.836971 941.318577 129.618389 943.285375 129.618389 
z
" clip-path="url(#pa06d665487)" style="fill: #1f77b4; fill-opacity: 0.3; stroke: #1f77b4; stroke-opacity: 0.3"/>
    <path d="M 960.929644 123.328991 
C 962.25566 123.328991 963.527544 122.80216 964.465178 121.864525 
C 965.402813 120.926891 965.929644 119.655007 965.929644 118.328991 
C 965.929644 117.002976 965.402813 115.731092 964.465178 114.793457 
C 963.527544 113.855823 962.25566 113.328991 960.929644 113.328991 
C 959.603629 113.328991 958.331745 113.855823 957.39411 114.793457 
C 956.456476 115.731092 955.929644 117.002976 955.929644 118.328991 
C 955.929644 119.655007 956.456476 120.926891 957.39411 121.864525 
C 958.331745 122.80216 959.603629 123.328991 960.929644 123.328991 
z
" clip-path="url(#pa06d665487)" style="fill: #1f77b4; fill-opacity: 0.3; stroke: #1f77b4; stroke-opacity: 0.3"/>
    <path d="M 978.573913 113.35763 
C 981.158793 113.35763 983.638151 112.330646 985.465937 110.50286 
C 987.293724 108.675074 988.320707 106.195716 988.320707 103.610836 
C 988.320707 101.025956 987.293724 98.546598 985.465937 96.718811 
C 983.638151 94.891025 981.158793 93.864041 978.573913 93.864041 
C 975.989033 93.864041 973.509675 94.891025 971.681889 96.718811 
C 969.854102 98.546598 968.827119 101.025956 968.827119 103.610836 
C 968.827119 106.195716 969.854102 108.675074 971.681889 110.50286 
C 973.509675 112.330646 975.989033 113.35763 978.573913 113.35763 
z
" clip-path="url(#pa06d665487)" style="fill: #1f77b4; fill-opacity: 0.3; stroke: #1f77b4; stroke-opacity: 0.3"/>
    <path d="M 996.218182 98.897692 
C 998.768824 98.897692 1001.215341 97.884311 1003.018917 96.080735 
C 1004.822493 94.277159 1005.835874 91.830642 1005.835874 89.28 
C 1005.835874 86.729358 1004.822493 84.282841 1003.018917 82.479265 
C 1001.215341 80.675689 998.768824 79.662308 996.218182 79.662308 
C 993.66754 79.662308 991.221023 80.675689 989.417447 82.479265 
C 987.61387 84.282841 986.60049 86.729358 986.60049 89.28 
C 986.60049 91.830642 987.61387 94.277159 989.417447 96.080735 
C 991.221023 97.884311 993.66754 98.897692 996.218182 98.897692 
z
" clip-path="url(#pa06d665487)" style="fill: #1f77b4; fill-opacity: 0.3; stroke: #1f77b4; stroke-opacity: 0.3"/>
   </g>
   <g id="matplotlib.axis_1">
    <g id="xtick_1">
     <g id="line2d_1">
      <defs>
       <path id="mb8ef4008f3" d="M 0 0 
L 0 3.5 
" style="stroke: #000000; stroke-width: 0.8"/>
      </defs>
      <g>
       <use xlink:href="#mb8ef4008f3" x="184.581818" y="512.64" style="stroke: #000000; stroke-width: 0.8"/>
      </g>
     </g>
     <g id="text_1">
      <!-- 2026-01-01 -->
      <g transform="translate(155.524006 527.238438) scale(0.1 -0.1)">
       <defs>
        <path id="DejaVuSans-32" d="M 1228 531 
L 3431 531 
L 3431 0 
L 469 0 
L 469 531 
Q 828 903 1448 1529 
Q 2069 2156 2228 2338 
Q 2531 2678 2651 2914 
Q 2772 3150 2772 3378 
Q 2772 3750 2511 3984 
Q 2250 4219 1831 4219 
Q 1534 4219 1204 4116 
Q 875 4013 500 3803 
L 500 4441 
Q 881 4594 1212 4672 
Q 1544 4750 1819 4750 
Q 2544 4750 2975 4387 
Q 3406 4025 3406 3419 
Q 3406 3131 3298 2873 
Q 3191 2616 2906 2266 
Q 2828 2175 2409 1742 
Q 1991 1309 1228 531 
z
" transform="scale(0.015625)"/>
        <path id="DejaVuSans-30" d="M 2034 4250 
Q 1547 4250 1301 3770 
Q 1056 3291 1056 2328 
Q 1056 1369 1301 889 
Q 1547 409 2034 409 
Q 2525 409 2770 889 
Q 3016 1369 3016 2328 
Q 3016 3291 2770 3770 
Q 2525 4250 2034 4250 
z
M 2034 4750 
Q 2819 4750 3233 4129 
Q 3647 3509 3647 2328 
Q 3647 1150 3233 529 
Q 2819 -91 2034 -91 
Q 1250 -91 836 529 
Q 422 1150 422 2328 
Q 422 3509 836 4129 
Q 1250 4750 2034 4750 
z
" transform="scale(0.015625)"/>
        <path id="DejaVuSans-36" d="M 2113 2584 
Q 1688 2584 1439 2293 
Q 1191 2003 1191 1497 
Q 1191 994 1439 701 
Q 1688 409 2113 409 
Q 2538 409 2786 701 
Q 3034 994 3034 1497 
Q 3034 2003 2786 2293 
Q 2538 2584 2113 2584 
z
M 3366 4563 
L 3366 3988 
Q 3128 4100 2886 4159 
Q 2644 4219 2406 4219 
Q 1781 4219 1451 3797 
Q 1122 3375 1075 2522 
Q 1259 2794 1537 2939 
Q 1816 3084 2150 3084 
Q 2853 3084 3261 2657 
Q 3669 2231 3669 1497 
Q 3669 778 3244 343 
Q 2819 -91 2113 -91 
Q 1303 -91 875 529 
Q 447 1150 447 2328 
Q 447 3434 972 4092 
Q 1497 4750 2381 4750 
Q 2619 4750 2861 4703 
Q 3103 4656 3366 4563 
z
" transform="scale(0.015625)"/>
        <path id="DejaVuSans-2d" d="M 313 2009 
L 1997 2009 
L 1997 1497 
L 313 1497 
L 313 2009 
z
" transform="scale(0.015625)"/>
        <path id="DejaVuSans-31" d="M 794 531 
L 1825 531 
L 1825 4091 
L 703 3866 
L 703 4441 
L 1819 4666 
L 2450 4666 
L 2450 531 
L 3481 531 
L 3481 0 
L 794 0 
L 794 531 
z
" transform="scale(0.015625)"/>
       </defs>
       <use xlink:href="#DejaVuSans-32"/>
       <use xlink:href="#DejaVuSans-30" x="63.623047"/>
       <use xlink:href="#DejaVuSans-32" x="127.246094"/>
       <use xlink:href="#DejaVuSans-36" x="190.869141"/>
       <use xlink:href="#DejaVuSans-2d" x="254.492188"/>
       <use xlink:href="#DejaVuSans-30" x="290.576172"/>
       <use xlink:href="#DejaVuSans-31" x="354.199219"/>
       <use xlink:href="#DejaVuSans-2d" x="417.822266"/>
       <use xlink:href="#DejaVuSans-30" x="453.90625"/>
       <use xlink:href="#DejaVuSans-31" x="517.529297"/>
      </g>
     </g>
    </g>
    <g id="xtick_2">
     <g id="line2d_2">
      <g>
       <use xlink:href="#mb8ef4008f3" x="308.0917" y="512.64" style="stroke: #000000; stroke-width: 0.8"/>
      </g>
     </g>
     <g id="text_2">
      <!-- 2026-01-08 -->
      <g transform="translate(279.033887 527.238438) scale(0.1 -0.1)">
       <defs>
        <path id="DejaVuSans-38" d="M 2034 2216 
Q 1584 2216 1326 1975 
Q 1069 1734 1069 1313 
Q 1069 891 1326 650 
Q 1584 409 2034 409 
Q 2484 409 2743 651 
Q 3003 894 3003 1313 
Q 3003 1734 2745 1975 
Q 2488 2216 2034 2216 
z
M 1403 2484 
Q 997 2584 770 2862 
Q 544 3141 544 3541 
Q 544 4100 942 4425 
Q 1341 4750 2034 4750 
Q 2731 4750 3128 4425 
Q 3525 4100 3525 3541 
Q 3525 3141 3298 2862 
Q 3072 2584 2669 2484 
Q 3125 2378 3379 2068 
Q 3634 1759 3634 1313 
Q 3634 634 3220 271 
Q 2806 -91 2034 -91 
Q 1263 -91 848 271 
Q 434 634 434 1313 
Q 434 1759 690 2068 
Q 947 2378 1403 2484 
z
M 1172 3481 
Q 1172 3119 1398 2916 
Q 1625 2713 2034 2713 
Q 2441 2713 2670 2916 
Q 2900 3119 2900 3481 
Q 2900 3844 2670 4047 
Q 2441 4250 2034 4250 
Q 1625 4250 1398 4047 
Q 1172 3844 1172 3481 
z
" transform="scale(0.015625)"/>
       </defs>
       <use xlink:href="#DejaVuSans-32"/>
       <use xlink:href="#DejaVuSans-30" x="63.623047"/>
       <use xlink:href="#DejaVuSans-32" x="127.246094"/>
       <use xlink:href="#DejaVuSans-36" x="190.869141"/>
       <use xlink:href="#DejaVuSans-2d" x="254.492188"/>
       <use xlink:href="#DejaVuSans-30" x="290.576172"/>
       <use xlink:href="#DejaVuSans-31" x="354.199219"/>
       <use xlink:href="#DejaVuSans-2d" x="417.822266"/>
       <use xlink:href="#DejaVuSans-30" x="453.90625"/>
       <use xlink:href="#DejaVuSans-38" x="517.529297"/>
      </g>
     </g>
    </g>
    <g id="xtick_3">
     <g id="line2d_3">
      <g>
       <use xlink:href="#mb8ef4008f3" x="431.601581" y="512.64" style="stroke: #000000; stroke-width: 0.8"/>
      </g>
     </g>
     <g id="text_3">
      <!-- 2026-01-15 -->
      <g transform="translate(402.543769 527.238438) scale(0.1 -0.1)">
       <defs>
        <path id="DejaVuSans-35" d="M 691 4666 
L 3169 4666 
L 3169 4134 
L 1269 4134 
L 1269 2991 
Q 1406 3038 1543 3061 
Q 1681 3084 1819 3084 
Q 2600 3084 3056 2656 
Q 3513 2228 3513 1497 
Q 3513 744 3044 326 
Q 2575 -91 1722 -91 
Q 1428 -91 1123 -41 
Q 819 9 494 109 
L 494 744 
Q 775 591 1075 516 
Q 1375 441 1709 441 
Q 2250 441 2565 725 
Q 2881 1009 2881 1497 
Q 2881 1984 2565 2268 
Q 2250 2553 1709 2553 
Q 1456 2553 1204 2497 
Q 953 2441 691 2322 
L 691 4666 
z
" transform="scale(0.015625)"/>
       </defs>
       <use xlink:href="#DejaVuSans-32"/>
       <use xlink:href="#DejaVuSans-30" x="63.623047"/>
       <use xlink:href="#DejaVuSans-32" x="127.246094"/>
       <use xlink:href="#DejaVuSans-36" x="190.869141"/>
       <use xlink:href="#DejaVuSans-2d" x="254.492188"/>
       <use xlink:href="#DejaVuSans-30" x="290.576172"/>
       <use xlink:href="#DejaVuSans-31" x="354.199219"/>
       <use xlink:href="#DejaVuSans-2d" x="417.822266"/>
       <use xlink:href="#DejaVuSans-31" x="453.90625"/>
       <use xlink:href="#DejaVuSans-35" x="517.529297"/>
      </g>
     </g>
    </g>
    <g id="xtick_4">
     <g id="line2d_4">
      <g>
       <use xlink:href="#mb8ef4008f3" x="555.111462" y="512.64" style="stroke: #000000; stroke-width: 0.8"/>
      </g>
     </g>
     <g id="text_4">
      <!-- 2026-01-22 -->
      <g transform="translate(526.05365 527.238438) scale(0.1 -0.1)">
       <use xlink:href="#DejaVuSans-32"/>
       <use xlink:href="#DejaVuSans-30" x="63.623047"/>
       <use xlink:href="#DejaVuSans-32" x="127.246094"/>
       <use xlink:href="#DejaVuSans-36" x="190.869141"/>
       <use xlink:href="#DejaVuSans-2d" x="254.492188"/>
       <use xlink:href="#DejaVuSans-30" x="290.576172"/>
       <use xlink:href="#DejaVuSans-31" x="354.199219"/>
       <use xlink:href="#DejaVuSans-2d" x="417.822266"/>
       <use xlink:href="#DejaVuSans-32" x="453.90625"/>
       <use xlink:href="#DejaVuSans-32" x="517.529297"/>
      </g>
     </g>
    </g>
    <g id="xtick_5">
     <g id="line2d_5">
      <g>
       <use xlink:href="#mb8ef4008f3" x="731.55415" y="512.64" style="stroke: #000000; stroke-width: 0.8"/>
      </g>
     </g>
     <g id="text_5">
      <!-- 2026-02-01 -->
      <g transform="translate(702.496338 527.238438) scale(0.1 -0.1)">
       <use xlink:href="#DejaVuSans-32"/>
       <use xlink:href="#DejaVuSans-30" x="63.623047"/>
       <use xlink:href="#DejaVuSans-32" x="127.246094"/>
       <use xlink:href="#DejaVuSans-36" x="190.869141"/>
       <use xlink:href="#DejaVuSans-2d" x="254.492188"/>
       <use xlink:href="#DejaVuSans-30" x="290.576172"/>
       <use xlink:href="#DejaVuSans-32" x="354.199219"/>
       <use xlink:href="#DejaVuSans-2d" x="417.822266"/>
       <use xlink:href="#DejaVuSans-30" x="453.90625"/>
       <use xlink:href="#DejaVuSans-31" x="517.529297"/>
      </g>
     </g>
    </g>
    <g id="xtick_6">
     <g id="line2d_6">
      <g>
       <use xlink:href="#mb8ef4008f3" x="855.064032" y="512.64" style="stroke: #000000; stroke-width: 0.8"/>
      </g>
     </g>
     <g id="text_6">
      <!-- 2026-02-08 -->
      <g transform="translate(826.006219 527.238438) scale(0.1 -0.1)">
       <use xlink:href="#DejaVuSans-32"/>
       <use xlink:href="#DejaVuSans-30" x="63.623047"/>
       <use xlink:href="#DejaVuSans-32" x="127.246094"/>
       <use xlink:href="#DejaVuSans-36" x="190.869141"/>
       <use xlink:href="#DejaVuSans-2d" x="254.492188"/>
       <use xlink:href="#DejaVuSans-30" x="290.576172"/>
       <use xlink:href="#DejaVuSans-32" x="354.199219"/>
       <use xlink:href="#DejaVuSans-2d" x="417.822266"/>
       <use xlink:href="#DejaVuSans-30" x="453.90625"/>
       <use xlink:href="#DejaVuSans-38" x="517.529297"/>
      </g>
     </g>
    </g>
    <g id="xtick_7">
     <g id="line2d_7">
      <g>
       <use xlink:href="#mb8ef4008f3" x="978.573913" y="512.64" style="stroke: #000000; stroke-width: 0.8"/>
      </g>
     </g>
     <g id="text_7">
      <!-- 2026-02-15 -->
      <g transform="translate(949.516101 527.238438) scale(0.1 -0.1)">
       <use xlink:href="#DejaVuSans-32"/>
       <use xlink:href="#DejaVuSans-30" x="63.623047"/>
       <use xlink:href="#DejaVuSans-32" x="127.246094"/>
       <use xlink:href="#DejaVuSans-36" x="190.869141"/>
       <use xlink:href="#DejaVuSans-2d" x="254.492188"/>
       <use xlink:href="#DejaVuSans-30" x="290.576172"/>
       <use xlink:href="#DejaVuSans-32" x="354.199219"/>
       <use xlink:href="#DejaVuSans-2d" x="417.822266"/>
       <use xlink:href="#DejaVuSans-31" x="453.90625"/>
       <use xlink:href="#DejaVuSans-35" x="517.529297"/>
      </g>
     </g>
    </g>
   </g>
   <g id="matplotlib.axis_2">
    <g id="ytick_1">
     <g id="line2d_8">
      <defs>
       <path id="m68840d0a2a" d="M 0 0 
L -3.5 0 
" style="stroke: #000000; stroke-width: 0.8"/>
      </defs>
      <g>
       <use xlink:href="#m68840d0a2a" x="144" y="480.085764" style="stroke: #000000; stroke-width: 0.8"/>
      </g>
     </g>
     <g id="text_8">
      <!-- 13200 -->
      <g transform="translate(105.1875 483.884982) scale(0.1 -0.1)">
       <defs>
        <path id="DejaVuSans-33" d="M 2597 2516 
Q 3050 2419 3304 2112 
Q 3559 1806 3559 1356 
Q 3559 666 3084 287 
Q 2609 -91 1734 -91 
Q 1441 -91 1130 -33 
Q 819 25 488 141 
L 488 750 
Q 750 597 1062 519 
Q 1375 441 1716 441 
Q 2309 441 2620 675 
Q 2931 909 2931 1356 
Q 2931 1769 2642 2001 
Q 2353 2234 1838 2234 
L 1294 2234 
L 1294 2753 
L 1863 2753 
Q 2328 2753 2575 2939 
Q 2822 3125 2822 3475 
Q 2822 3834 2567 4026 
Q 2313 4219 1838 4219 
Q 1578 4219 1281 4162 
Q 984 4106 628 3988 
L 628 4550 
Q 988 4650 1302 4700 
Q 1616 4750 1894 4750 
Q 2613 4750 3031 4423 
Q 3450 4097 3450 3541 
Q 3450 3153 3228 2886 
Q 3006 2619 2597 2516 
z
" transform="scale(0.015625)"/>
       </defs>
       <use xlink:href="#DejaVuSans-31"/>
       <use xlink:href="#DejaVuSans-33" x="63.623047"/>
       <use xlink:href="#DejaVuSans-32" x="127.246094"/>
       <use xlink:href="#DejaVuSans-30" x="190.869141"/>
       <use xlink:href="#DejaVuSans-30" x="254.492188"/>
      </g>
     </g>
    </g>
    <g id="ytick_2">
     <g id="line2d_9">
      <g>
       <use xlink:href="#m68840d0a2a" x="144" y="402.621787" style="stroke: #000000; stroke-width: 0.8"/>
      </g>
     </g>
     <g id="text_9">
      <!-- 13400 -->
      <g transform="translate(105.1875 406.421005) scale(0.1 -0.1)">
       <defs>
        <path id="DejaVuSans-34" d="M 2419 4116 
L 825 1625 
L 2419 1625 
L 2419 4116 
z
M 2253 4666 
L 3047 4666 
L 3047 1625 
L 3713 1625 
L 3713 1100 
L 3047 1100 
L 3047 0 
L 2419 0 
L 2419 1100 
L 313 1100 
L 313 1709 
L 2253 4666 
z
" transform="scale(0.015625)"/>
       </defs>
       <use xlink:href="#DejaVuSans-31"/>
       <use xlink:href="#DejaVuSans-33" x="63.623047"/>
       <use xlink:href="#DejaVuSans-34" x="127.246094"/>
       <use xlink:href="#DejaVuSans-30" x="190.869141"/>
       <use xlink:href="#DejaVuSans-30" x="254.492188"/>
      </g>
     </g>
    </g>
    <g id="ytick_3">
     <g id="line2d_10">
      <g>
       <use xlink:href="#m68840d0a2a" x="144" y="325.15781" style="stroke: #000000; stroke-width: 0.8"/>
      </g>
     </g>
     <g id="text_10">
      <!-- 13600 -->
      <g transform="translate(105.1875 328.957029) scale(0.1 -0.1)">
       <use xlink:href="#DejaVuSans-31"/>
       <use xlink:href="#DejaVuSans-33" x="63.623047"/>
       <use xlink:href="#DejaVuSans-36" x="127.246094"/>
       <use xlink:href="#DejaVuSans-30" x="190.869141"/>
       <use xlink:href="#DejaVuSans-30" x="254.492188"/>
      </g>
     </g>
    </g>
    <g id="ytick_4">
     <g id="line2d_11">
      <g>
       <use xlink:href="#m68840d0a2a" x="144" y="247.693833" style="stroke: #000000; stroke-width: 0.8"/>
      </g>
     </g>
     <g id="text_11">
      <!-- 13800 -->
      <g transform="translate(105.1875 251.493052) scale(0.1 -0.1)">
       <use xlink:href="#DejaVuSans-31"/>
       <use xlink:href="#DejaVuSans-33" x="63.623047"/>
       <use xlink:href="#DejaVuSans-38" x="127.246094"/>
       <use xlink:href="#DejaVuSans-30" x="190.869141"/>
       <use xlink:href="#DejaVuSans-30" x="254.492188"/>
      </g>
     </g>
    </g>
    <g id="ytick_5">
     <g id="line2d_12">
      <g>
       <use xlink:href="#m68840d0a2a" x="144" y="170.229856" style="stroke: #000000; stroke-width: 0.8"/>
      </g>
     </g>
     <g id="text_12">
      <!-- 14000 -->
      <g transform="translate(105.1875 174.029075) scale(0.1 -0.1)">
       <use xlink:href="#DejaVuSans-31"/>
       <use xlink:href="#DejaVuSans-34" x="63.623047"/>
       <use xlink:href="#DejaVuSans-30" x="127.246094"/>
       <use xlink:href="#DejaVuSans-30" x="190.869141"/>
       <use xlink:href="#DejaVuSans-30" x="254.492188"/>
      </g>
     </g>
    </g>
    <g id="ytick_6">
     <g id="line2d_13">
      <g>
       <use xlink:href="#m68840d0a2a" x="144" y="92.765879" style="stroke: #000000; stroke-width: 0.8"/>
      </g>
     </g>
     <g id="text_13">
      <!-- 14200 -->
      <g transform="translate(105.1875 96.565098) scale(0.1 -0.1)">
       <use xlink:href="#DejaVuSans-31"/>
       <use xlink:href="#DejaVuSans-34" x="63.623047"/>
       <use xlink:href="#DejaVuSans-32" x="127.246094"/>
       <use xlink:href="#DejaVuSans-30" x="190.869141"/>
       <use xlink:href="#DejaVuSans-30" x="254.492188"/>
      </g>
     </g>
    </g>
   </g>
   <g id="line2d_14">
    <path d="M 184.581818 492.48 
L 202.226087 485.508242 
L 219.870356 474.663285 
L 237.514625 470.402767 
L 255.158893 468.466167 
L 272.803162 461.881729 
L 290.447431 455.684611 
L 308.0917 440.191816 
L 325.735968 432.445418 
L 343.380237 428.572219 
L 361.024506 427.797579 
L 378.668775 410.755504 
L 396.313043 401.072507 
L 413.957312 396.037349 
L 431.601581 383.643112 
L 449.24585 366.988357 
L 466.890119 365.439078 
L 484.534387 361.178559 
L 502.178656 350.720922 
L 519.822925 345.298444 
L 537.467194 325.93245 
L 555.111462 315.474813 
L 572.755731 305.017176 
L 590.4 293.784899 
L 608.044269 292.23562 
L 625.688538 290.29902 
L 643.332806 275.968184 
L 660.977075 256.21487 
L 678.621344 243.433314 
L 696.265613 232.975677 
L 713.909881 231.426398 
L 731.55415 227.165879 
L 749.198419 217.870202 
L 766.842688 207.799885 
L 784.486957 204.701326 
L 802.131225 193.081729 
L 819.775494 186.109971 
L 837.419763 181.462133 
L 855.064032 165.582017 
L 872.7083 160.159539 
L 890.352569 146.216023 
L 907.996838 135.758386 
L 925.641107 130.723228 
L 943.285375 122.20219 
L 960.929644 118.328991 
L 978.573913 103.610836 
L 996.218182 89.28 
" clip-path="url(#pa06d665487)" style="fill: none; stroke: #1f77b4; stroke-width: 1.5; stroke-linecap: square"/>
   </g>
   <g id="patch_3">
    <path d="M 144 512.64 
L 144 69.12 
" style="fill: none; stroke: #000000; stroke-width: 0.8; stroke-linejoin: miter; stroke-linecap: square"/>
   </g>
   <g id="patch_4">
    <path d="M 1036.8 512.64 
L 1036.8 69.12 
" style="fill: none; stroke: #000000; stroke-width: 0.8; stroke-linejoin: miter; stroke-linecap: square"/>
   </g>
   <g id="patch_5">
    <path d="M 144 512.64 
L 1036.8 512.64 
" style="fill: none; stroke: #000000; stroke-width: 0.8; stroke-linejoin: miter; stroke-linecap: square"/>
   </g>
   <g id="patch_6">
    <path d="M 144 69.12 
L 1036.8 69.12 
" style="fill: none; stroke: #000000; stroke-width: 0.8; stroke-linejoin: miter; stroke-linecap: square"/>
   </g>
   <g id="text_14">
    <!-- Number of AEDs in the OpenStreetMap database in Poland from 2026-01-01, day by day. As at: 2026-02-16 -->
    <g transform="translate(144 63.12) scale(0.14 -0.14)">
     <defs>
      <path id="DejaVuSans-4e" d="M 628 4666 
L 1478 4666 
L 3547 763 
L 3547 4666 
L 4159 4666 
L 4159 0 
L 3309 0 
L 1241 3903 
L 1241 0 
L 628 0 
L 628 4666 
z
" transform="scale(0.015625)"/>
      <path id="DejaVuSans-75" d="M 544 1381 
L 544 3500 
L 1119 3500 
L 1119 1403 
Q 1119 906 1312 657 
Q 1506 409 1894 409 
Q 2359 409 2629 706 
Q 2900 1003 2900 1516 
L 2900 3500 
L 3475 3500 
L 3475 0 
L 2900 0 
L 2900 538 
Q 2691 219 2414 64 
Q 2138 -91 1772 -91 
Q 1169 -91 856 284 
Q 544 659 544 1381 
z
M 1991 3584 
L 1991 3584 
z
" transform="scale(0.015625)"/>
      <path id="DejaVuSans-6d" d="M 3328 2828 
Q 3544 3216 3844 3400 
Q 4144 3584 4550 3584 
Q 5097 3584 5394 3201 
Q 5691 2819 5691 2113 
L 5691 0 
L 5113 0 
L 5113 2094 
Q 5113 2597 4934 2840 
Q 4756 3084 4391 3084 
Q 3944 3084 3684 2787 
Q 3425 2491 3425 1978 
L 3425 0 
L 2847 0 
L 2847 2094 
Q 2847 2600 2669 2842 
Q 2491 3084 2119 3084 
Q 1678 3084 1418 2786 
Q 1159 2488 1159 1978 
L 1159 0 
L 581 0 
L 581 3500 
L 1159 3500 
L 1159 2956 
Q 1356 3278 1631 3431 
Q 1906 3584 2284 3584 
Q 2666 3584 2933 3390 
Q 3200 3197 3328 2828 
z
" transform="scale(0.015625)"/>
      <path id="DejaVuSans-62" d="M 3116 1747 
Q 3116 2381 2855 2742 
Q 2594 3103 2138 3103 
Q 1681 3103 1420 2742 
Q 1159 2381 1159 1747 
Q 1159 1113 1420 752 
Q 1681 391 2138 391 
Q 2594 391 2855 752 
Q 3116 1113 3116 1747 
z
M 1159 2969 
Q 1341 3281 1617 3432 
Q 1894 3584 2278 3584 
Q 2916 3584 3314 3078 
Q 3713 2572 3713 1747 
Q 3713 922 3314 415 
Q 2916 -91 2278 -91 
Q 1894 -91 1617 61 
Q 1341 213 1159 525 
L 1159 0 
L 581 0 
L 581 4863 
L 1159 4863 
L 1159 2969 
z
" transform="scale(0.015625)"/>
      <path id="DejaVuSans-65" d="M 3597 1894 
L 3597 1613 
L 953 1613 
Q 991 1019 1311 708 
Q 1631 397 2203 397 
Q 2534 397 2845 478 
Q 3156 559 3463 722 
L 3463 178 
Q 3153 47 2828 -22 
Q 2503 -91 2169 -91 
Q 1331 -91 842 396 
Q 353 884 353 1716 
Q 353 2575 817 3079 
Q 1281 3584 2069 3584 
Q 2775 3584 3186 3129 
Q 3597 2675 3597 1894 
z
M 3022 2063 
Q 3016 2534 2758 2815 
Q 2500 3097 2075 3097 
Q 1594 3097 1305 2825 
Q 1016 2553 972 2059 
L 3022 2063 
z
" transform="scale(0.015625)"/>
      <path id="DejaVuSans-72" d="M 2631 2963 
Q 2534 3019 2420 3045 
Q 2306 3072 2169 3072 
Q 1681 3072 1420 2755 
Q 1159 2438 1159 1844 
L 1159 0 
L 581 0 
L 581 3500 
L 1159 3500 
L 1159 2956 
Q 1341 3275 1631 3429 
Q 1922 3584 2338 3584 
Q 2397 3584 2469 3576 
Q 2541 3569 2628 3553 
L 2631 2963 
z
" transform="scale(0.015625)"/>
      <path id="DejaVuSans-20" transform="scale(0.015625)"/>
      <path id="DejaVuSans-6f" d="M 1959 3097 
Q 1497 3097 1228 2736 
Q 959 2375 959 1747 
Q 959 1119 1226 758 
Q 1494 397 1959 397 
Q 2419 397 2687 759 
Q 2956 1122 2956 1747 
Q 2956 2369 2687 2733 
Q 2419 3097 1959 3097 
z
M 1959 3584 
Q 2709 3584 3137 3096 
Q 3566 2609 3566 1747 
Q 3566 888 3137 398 
Q 2709 -91 1959 -91 
Q 1206 -91 779 398 
Q 353 888 353 1747 
Q 353 2609 779 3096 
Q 1206 3584 1959 3584 
z
" transform="scale(0.015625)"/>
      <path id="DejaVuSans-66" d="M 2375 4863 
L 2375 4384 
L 1825 4384 
Q 1516 4384 1395 4259 
Q 1275 4134 1275 3809 
L 1275 3500 
L 2222 3500 
L 2222 3053 
L 1275 3053 
L 1275 0 
L 697 0 
L 697 3053 
L 147 3053 
L 147 3500 
L 697 3500 
L 697 3744 
Q 697 4328 969 4595 
Q 1241 4863 1831 4863 
L 2375 4863 
z
" transform="scale(0.015625)"/>
      <path id="DejaVuSans-41" d="M 2188 4044 
L 1331 1722 
L 3047 1722 
L 2188 4044 
z
M 1831 4666 
L 2547 4666 
L 4325 0 
L 3669 0 
L 3244 1197 
L 1141 1197 
L 716 0 
L 50 0 
L 1831 4666 
z
" transform="scale(0.015625)"/>
      <path id="DejaVuSans-45" d="M 628 4666 
L 3578 4666 
L 3578 4134 
L 1259 4134 
L 1259 2753 
L 3481 2753 
L 3481 2222 
L 1259 2222 
L 1259 531 
L 3634 531 
L 3634 0 
L 628 0 
L 628 4666 
z
" transform="scale(0.015625)"/>
      <path id="DejaVuSans-44" d="M 1259 4147 
L 1259 519 
L 2022 519 
Q 2988 519 3436 956 
Q 3884 1394 3884 2338 
Q 3884 3275 3436 3711 
Q 2988 4147 2022 4147 
L 1259 4147 
z
M 628 4666 
L 1925 4666 
Q 3281 4666 3915 4102 
Q 4550 3538 4550 2338 
Q 4550 1131 3912 565 
Q 3275 0 1925 0 
L 628 0 
L 628 4666 
z
" transform="scale(0.015625)"/>
      <path id="DejaVuSans-73" d="M 2834 3397 
L 2834 2853 
Q 2591 2978 2328 3040 
Q 2066 3103 1784 3103 
Q 1356 3103 1142 2972 
Q 928 2841 928 2578 
Q 928 2378 1081 2264 
Q 1234 2150 1697 2047 
L 1894 2003 
Q 2506 1872 2764 1633 
Q 3022 1394 3022 966 
Q 3022 478 2636 193 
Q 2250 -91 1575 -91 
Q 1294 -91 989 -36 
Q 684 19 347 128 
L 347 722 
Q 666 556 975 473 
Q 1284 391 1588 391 
Q 1994 391 2212 530 
Q 2431 669 2431 922 
Q 2431 1156 2273 1281 
Q 2116 1406 1581 1522 
L 1381 1569 
Q 847 1681 609 1914 
Q 372 2147 372 2553 
Q 372 3047 722 3315 
Q 1072 3584 1716 3584 
Q 2034 3584 2315 3537 
Q 2597 3491 2834 3397 
z
" transform="scale(0.015625)"/>
      <path id="DejaVuSans-69" d="M 603 3500 
L 1178 3500 
L 1178 0 
L 603 0 
L 603 3500 
z
M 603 4863 
L 1178 4863 
L 1178 4134 
L 603 4134 
L 603 4863 
z
" transform="scale(0.015625)"/>
      <path id="DejaVuSans-6e" d="M 3513 2113 
L 3513 0 
L 2938 0 
L 2938 2094 
Q 2938 2591 2744 2837 
Q 2550 3084 2163 3084 
Q 1697 3084 1428 2787 
Q 1159 2491 1159 1978 
L 1159 0 
L 581 0 
L 581 3500 
L 1159 3500 
L 1159 2956 
Q 1366 3272 1645 3428 
Q 1925 3584 2291 3584 
Q 2894 3584 3203 3211 
Q 3513 2838 3513 2113 
z
" transform="scale(0.015625)"/>
      <path id="DejaVuSans-74" d="M 1172 4494 
L 1172 3500 
L 2356 3500 
L 2356 3053 
L 1172 3053 
L 1172 1153 
Q 1172 725 1289 603 
Q 1406 481 1766 481 
L 2356 481 
L 2356 0 
L 1766 0 
Q 1100 0 847 248 
Q 594 497 594 1153 
L 594 3053 
L 172 3053 
L 172 3500 
L 594 3500 
L 594 4494 
L 1172 4494 
z
" transform="scale(0.015625)"/>
      <path id="DejaVuSans-68" d="M 3513 2113 
L 3513 0 
L 2938 0 
L 2938 2094 
Q 2938 2591 2744 2837 
Q 2550 3084 2163 3084 
Q 1697 3084 1428 2787 
Q 1159 2491 1159 1978 
L 1159 0 
L 581 0 
L 581 4863 
L 1159 4863 
L 1159 2956 
Q 1366 3272 1645 3428 
Q 1925 3584 2291 3584 
Q 2894 3584 3203 3211 
Q 3513 2838 3513 2113 
z
" transform="scale(0.015625)"/>
      <path id="DejaVuSans-4f" d="M 2522 4238 
Q 1834 4238 1429 3725 
Q 1025 3213 1025 2328 
Q 1025 1447 1429 934 
Q 1834 422 2522 422 
Q 3209 422 3611 934 
Q 4013 1447 4013 2328 
Q 4013 3213 3611 3725 
Q 3209 4238 2522 4238 
z
M 2522 4750 
Q 3503 4750 4090 4092 
Q 4678 3434 4678 2328 
Q 4678 1225 4090 567 
Q 3503 -91 2522 -91 
Q 1538 -91 948 565 
Q 359 1222 359 2328 
Q 359 3434 948 4092 
Q 1538 4750 2522 4750 
z
" transform="scale(0.015625)"/>
      <path id="DejaVuSans-70" d="M 1159 525 
L 1159 -1331 
L 581 -1331 
L 581 3500 
L 1159 3500 
L 1159 2969 
Q 1341 3281 1617 3432 
Q 1894 3584 2278 3584 
Q 2916 3584 3314 3078 
Q 3713 2572 3713 1747 
Q 3713 922 3314 415 
Q 2916 -91 2278 -91 
Q 1894 -91 1617 61 
Q 1341 213 1159 525 
z
M 3116 1747 
Q 3116 2381 2855 2742 
Q 2594 3103 2138 3103 
Q 1681 3103 1420 2742 
Q 1159 2381 1159 1747 
Q 1159 1113 1420 752 
Q 1681 391 2138 391 
Q 2594 391 2855 752 
Q 3116 1113 3116 1747 
z
" transform="scale(0.015625)"/>
      <path id="DejaVuSans-53" d="M 3425 4513 
L 3425 3897 
Q 3066 4069 2747 4153 
Q 2428 4238 2131 4238 
Q 1616 4238 1336 4038 
Q 1056 3838 1056 3469 
Q 1056 3159 1242 3001 
Q 1428 2844 1947 2747 
L 2328 2669 
Q 3034 2534 3370 2195 
Q 3706 1856 3706 1288 
Q 3706 609 3251 259 
Q 2797 -91 1919 -91 
Q 1588 -91 1214 -16 
Q 841 59 441 206 
L 441 856 
Q 825 641 1194 531 
Q 1563 422 1919 422 
Q 2459 422 2753 634 
Q 3047 847 3047 1241 
Q 3047 1584 2836 1778 
Q 2625 1972 2144 2069 
L 1759 2144 
Q 1053 2284 737 2584 
Q 422 2884 422 3419 
Q 422 4038 858 4394 
Q 1294 4750 2059 4750 
Q 2388 4750 2728 4690 
Q 3069 4631 3425 4513 
z
" transform="scale(0.015625)"/>
      <path id="DejaVuSans-4d" d="M 628 4666 
L 1569 4666 
L 2759 1491 
L 3956 4666 
L 4897 4666 
L 4897 0 
L 4281 0 
L 4281 4097 
L 3078 897 
L 2444 897 
L 1241 4097 
L 1241 0 
L 628 0 
L 628 4666 
z
" transform="scale(0.015625)"/>
      <path id="DejaVuSans-61" d="M 2194 1759 
Q 1497 1759 1228 1600 
Q 959 1441 959 1056 
Q 959 750 1161 570 
Q 1363 391 1709 391 
Q 2188 391 2477 730 
Q 2766 1069 2766 1631 
L 2766 1759 
L 2194 1759 
z
M 3341 1997 
L 3341 0 
L 2766 0 
L 2766 531 
Q 2569 213 2275 61 
Q 1981 -91 1556 -91 
Q 1019 -91 701 211 
Q 384 513 384 1019 
Q 384 1609 779 1909 
Q 1175 2209 1959 2209 
L 2766 2209 
L 2766 2266 
Q 2766 2663 2505 2880 
Q 2244 3097 1772 3097 
Q 1472 3097 1187 3025 
Q 903 2953 641 2809 
L 641 3341 
Q 956 3463 1253 3523 
Q 1550 3584 1831 3584 
Q 2591 3584 2966 3190 
Q 3341 2797 3341 1997 
z
" transform="scale(0.015625)"/>
      <path id="DejaVuSans-64" d="M 2906 2969 
L 2906 4863 
L 3481 4863 
L 3481 0 
L 2906 0 
L 2906 525 
Q 2725 213 2448 61 
Q 2172 -91 1784 -91 
Q 1150 -91 751 415 
Q 353 922 353 1747 
Q 353 2572 751 3078 
Q 1150 3584 1784 3584 
Q 2172 3584 2448 3432 
Q 2725 3281 2906 2969 
z
M 947 1747 
Q 947 1113 1208 752 
Q 1469 391 1925 391 
Q 2381 391 2643 752 
Q 2906 1113 2906 1747 
Q 2906 2381 2643 2742 
Q 2381 3103 1925 3103 
Q 1469 3103 1208 2742 
Q 947 2381 947 1747 
z
" transform="scale(0.015625)"/>
      <path id="DejaVuSans-50" d="M 1259 4147 
L 1259 2394 
L 2053 2394 
Q 2494 2394 2734 2622 
Q 2975 2850 2975 3272 
Q 2975 3691 2734 3919 
Q 2494 4147 2053 4147 
L 1259 4147 
z
M 628 4666 
L 2053 4666 
Q 2838 4666 3239 4311 
Q 3641 3956 3641 3272 
Q 3641 2581 3239 2228 
Q 2838 1875 2053 1875 
L 1259 1875 
L 1259 0 
L 628 0 
L 628 4666 
z
" transform="scale(0.015625)"/>
      <path id="DejaVuSans-6c" d="M 603 4863 
L 1178 4863 
L 1178 0 
L 603 0 
L 603 4863 
z
" transform="scale(0.015625)"/>
      <path id="DejaVuSans-2c" d="M 750 794 
L 1409 794 
L 1409 256 
L 897 -744 
L 494 -744 
L 750 256 
L 750 794 
z
" transform="scale(0.015625)"/>
      <path id="DejaVuSans-79" d="M 2059 -325 
Q 1816 -950 1584 -1140 
Q 1353 -1331 966 -1331 
L 506 -1331 
L 506 -850 
L 844 -850 
Q 1081 -850 1212 -737 
Q 1344 -625 1503 -206 
L 1606 56 
L 191 3500 
L 800 3500 
L 1894 763 
L 2988 3500 
L 3597 3500 
L 2059 -325 
z
" transform="scale(0.015625)"/>
      <path id="DejaVuSans-2e" d="M 684 794 
L 1344 794 
L 1344 0 
L 684 0 
L 684 794 
z
" transform="scale(0.015625)"/>
      <path id="DejaVuSans-3a" d="M 750 794 
L 1409 794 
L 1409 0 
L 750 0 
L 750 794 
z
M 750 3309 
L 1409 3309 
L 1409 2516 
L 750 2516 
L 750 3309 
z
" transform="scale(0.015625)"/>
     </defs>
     <use xlink:href="#DejaVuSans-4e"/>
     <use xlink:href="#DejaVuSans-75" x="74.804688"/>
     <use xlink:href="#DejaVuSans-6d" x="138.183594"/>
     <use xlink:href="#DejaVuSans-62" x="235.595703"/>
     <use xlink:href="#DejaVuSans-65" x="299.072266"/>
     <use xlink:href="#DejaVuSans-72" x="360.595703"/>
     <use xlink:href="#DejaVuSans-20" x="401.708984"/>
     <use xlink:href="#DejaVuSans-6f" x="433.496094"/>
     <use xlink:href="#DejaVuSans-66" x="494.677734"/>
     <use xlink:href="#DejaVuSans-20" x="529.882812"/>
     <use xlink:href="#DejaVuSans-41" x="561.669922"/>
     <use xlink:href="#DejaVuSans-45" x="630.078125"/>
     <use xlink:href="#DejaVuSans-44" x="693.261719"/>
     <use xlink:href="#DejaVuSans-73" x="770.263672"/>
     <use xlink:href="#DejaVuSans-20" x="822.363281"/>
     <use xlink:href="#DejaVuSans-69" x="854.150391"/>
     <use xlink:href="#DejaVuSans-6e" x="881.933594"/>
     <use xlink:href="#DejaVuSans-20" x="945.3125"/>
     <use xlink:href="#DejaVuSans-74" x="977.099609"/>
     <use xlink:href="#DejaVuSans-68" x="1016.308594"/>
     <use xlink:href="#DejaVuSans-65" x="1079.6875"/>
     <use xlink:href="#DejaVuSans-20" x="1141.210938"/>
     <use xlink:href="#DejaVuSans-4f" x="1172.998047"/>
     <use xlink:href="#DejaVuSans-70" x="1251.708984"/>
     <use xlink:href="#DejaVuSans-65" x="1315.185547"/>
     <use xlink:href="#DejaVuSans-6e" x="1376.708984"/>
     <use xlink:href="#DejaVuSans-53" x="1440.087891"/>
     <use xlink:href="#DejaVuSans-74" x="1503.564453"/>
     <use xlink:href="#DejaVuSans-72" x="1542.773438"/>
     <use xlink:href="#DejaVuSans-65" x="1581.636719"/>
     <use xlink:href="#DejaVuSans-65" x="1643.160156"/>
     <use xlink:href="#DejaVuSans-74" x="1704.683594"/>
     <use xlink:href="#DejaVuSans-4d" x="1743.892578"/>
     <use xlink:href="#DejaVuSans-61" x="1830.171875"/>
     <use xlink:href="#DejaVuSans-70" x="1891.451172"/>
     <use xlink:href="#DejaVuSans-20" x="1954.927734"/>
     <use xlink:href="#DejaVuSans-64" x="1986.714844"/>
     <use xlink:href="#DejaVuSans-61" x="2050.191406"/>
     <use xlink:href="#DejaVuSans-74" x="2111.470703"/>
     <use xlink:href="#DejaVuSans-61" x="2150.679688"/>
     <use xlink:href="#DejaVuSans-62" x="2211.958984"/>
     <use xlink:href="#DejaVuSans-61" x="2275.435547"/>
     <use xlink:href="#DejaVuSans-73" x="2336.714844"/>
     <use xlink:href="#DejaVuSans-65" x="2388.814453"/>
     <use xlink:href="#DejaVuSans-20" x="2450.337891"/>
     <use xlink:href="#DejaVuSans-69" x="2482.125"/>
     <use xlink:href="#DejaVuSans-6e" x="2509.908203"/>
     <use xlink:href="#DejaVuSans-20" x="2573.287109"/>
     <use xlink:href="#DejaVuSans-50" x="2605.074219"/>
     <use xlink:href="#DejaVuSans-6f" x="2661.751953"/>
     <use xlink:href="#DejaVuSans-6c" x="2722.933594"/>
     <use xlink:href="#DejaVuSans-61" x="2750.716797"/>
     <use xlink:href="#DejaVuSans-6e" x="2811.996094"/>
     <use xlink:href="#DejaVuSans-64" x="2875.375"/>
     <use xlink:href="#DejaVuSans-20" x="2938.851562"/>
     <use xlink:href="#DejaVuSans-66" x="2970.638672"/>
     <use xlink:href="#DejaVuSans-72" x="3005.84375"/>
     <use xlink:href="#DejaVuSans-6f" x="3044.707031"/>
     <use xlink:href="#DejaVuSans-6d" x="3105.888672"/>
     <use xlink:href="#DejaVuSans-20" x="3203.300781"/>
     <use xlink:href="#DejaVuSans-32" x="3235.087891"/>
     <use xlink:href="#DejaVuSans-30" x="3298.710938"/>
     <use xlink:href="#DejaVuSans-32" x="3362.333984"/>
     <use xlink:href="#DejaVuSans-36" x="3425.957031"/>
     <use xlink:href="#DejaVuSans-2d" x="3489.580078"/>
     <use xlink:href="#DejaVuSans-30" x="3525.664062"/>
     <use xlink:href="#DejaVuSans-31" x="3589.287109"/>
     <use xlink:href="#DejaVuSans-2d" x="3652.910156"/>
     <use xlink:href="#DejaVuSans-30" x="3688.994141"/>
     <use xlink:href="#DejaVuSans-31" x="3752.617188"/>
     <use xlink:href="#DejaVuSans-2c" x="3816.240234"/>
     <use xlink:href="#DejaVuSans-20" x="3848.027344"/>
     <use xlink:href="#DejaVuSans-64" x="3879.814453"/>
     <use xlink:href="#DejaVuSans-61" x="3943.291016"/>
     <use xlink:href="#DejaVuSans-79" x="4004.570312"/>
     <use xlink:href="#DejaVuSans-20" x="4063.75"/>
     <use xlink:href="#DejaVuSans-62" x="4095.537109"/>
     <use xlink:href="#DejaVuSans-79" x="4159.013672"/>
     <use xlink:href="#DejaVuSans-20" x="4218.193359"/>
     <use xlink:href="#DejaVuSans-64" x="4249.980469"/>
     <use xlink:href="#DejaVuSans-61" x="4313.457031"/>
     <use xlink:href="#DejaVuSans-79" x="4374.736328"/>
     <use xlink:href="#DejaVuSans-2e" x="4419.666016"/>
     <use xlink:href="#DejaVuSans-20" x="4451.453125"/>
     <use xlink:href="#DejaVuSans-41" x="4483.240234"/>
     <use xlink:href="#DejaVuSans-73" x="4551.648438"/>
     <use xlink:href="#DejaVuSans-20" x="4603.748047"/>
     <use xlink:href="#DejaVuSans-61" x="4635.535156"/>
     <use xlink:href="#DejaVuSans-74" x="4696.814453"/>
     <use xlink:href="#DejaVuSans-3a" x="4736.023438"/>
     <use xlink:href="#DejaVuSans-20" x="4769.714844"/>
     <use xlink:href="#DejaVuSans-32" x="4801.501953"/>
     <use xlink:href="#DejaVuSans-30" x="4865.125"/>
     <use xlink:href="#DejaVuSans-32" x="4928.748047"/>
     <use xlink:href="#DejaVuSans-36" x="4992.371094"/>
     <use xlink:href="#DejaVuSans-2d" x="5055.994141"/>
     <use xlink:href="#DejaVuSans-30" x="5092.078125"/>
     <use xlink:href="#DejaVuSans-32" x="5155.701172"/>
     <use xlink:href="#DejaVuSans-2d" x="5219.324219"/>
     <use xlink:href="#DejaVuSans-31" x="5255.408203"/>
     <use xlink:href="#DejaVuSans-36" x="5319.03125"/>
    </g>
   </g>
  </g>
 </g>
 <defs>
  <clipPath id="pa06d665487">
   <rect x="144" y="69.12" width="892.8" height="443.52"/>
  </clipPath>
 </defs>
</svg>
