<?xml version="1.0" encoding="utf-8" standalone="no"?>
<!DOCTYPE svg PUBLIC "-//W3C//DTD SVG 1.1//EN"
  "http://www.w3.org/Graphics/SVG/1.1/DTD/svg11.dtd">
<svg xmlns:xlink="http://www.w3.org/1999/xlink" width="1152pt" height="576pt" viewBox="0 0 1152 576" xmlns="http://www.w3.org/2000/svg" version="1.1">
 <metadata>
  <rdf:RDF xmlns:dc="http://purl.org/dc/elements/1.1/" xmlns:cc="http://creativecommons.org/ns#" xmlns:rdf="http://www.w3.org/1999/02/22-rdf-syntax-ns#">
   <cc:Work>
    <dc:type rdf:resource="http://purl.org/dc/dcmitype/StillImage"/>
    <dc:date>2024-03-01T12:33:18.525267</dc:date>
    <dc:format>image/svg+xml</dc:format>
    <dc:creator>
     <cc:Agent>
      <dc:title>Matplotlib v3.8.3, https://matplotlib.org/</dc:title>
     </cc:Agent>
    </dc:creator>
   </cc:Work>
  </rdf:RDF>
 </metadata>
 <defs>
  <style type="text/css">*{stroke-linejoin: round; stroke-linecap: butt}</style>
 </defs>
 <g id="figure_1">
  <g id="patch_1">
   <path d="M 0 576 
L 1152 576 
L 1152 0 
L 0 0 
z
" style="fill: #ffffff"/>
  </g>
  <g id="axes_1">
   <g id="patch_2">
    <path d="M 144 512.64 
L 1036.8 512.64 
L 1036.8 69.12 
L 144 69.12 
z
" style="fill: #ffffff"/>
   </g>
   <g id="PathCollection_1">
    <path d="M 184.581818 496.015534 
C 185.519453 496.015534 186.41881 495.643008 187.081818 494.98 
C 187.744826 494.316992 188.117352 493.417635 188.117352 492.48 
C 188.117352 491.542365 187.744826 490.643008 187.081818 489.98 
C 186.41881 489.316992 185.519453 488.944466 184.581818 488.944466 
C 183.644184 488.944466 182.744826 489.316992 182.081818 489.98 
C 181.41881 490.643008 181.046284 491.542365 181.046284 492.48 
C 181.046284 493.417635 181.41881 494.316992 182.081818 494.98 
C 182.744826 495.643008 183.644184 496.015534 184.581818 496.015534 
z
" clip-path="url(#p280fedc18b)" style="fill: #1f77b4; fill-opacity: 0.3; stroke: #1f77b4; stroke-opacity: 0.3"/>
    <path d="M 198.109091 480.797579 
C 199.98436 480.797579 201.783075 480.052527 203.109091 478.726512 
C 204.435106 477.400496 205.180159 475.601781 205.180159 473.726512 
C 205.180159 471.851243 204.435106 470.052527 203.109091 468.726512 
C 201.783075 467.400496 199.98436 466.655444 198.109091 466.655444 
C 196.233822 466.655444 194.435106 467.400496 193.109091 468.726512 
C 191.783075 470.052527 191.038023 471.851243 191.038023 473.726512 
C 191.038023 475.601781 191.783075 477.400496 193.109091 478.726512 
C 194.435106 480.052527 196.233822 480.797579 198.109091 480.797579 
z
" clip-path="url(#p280fedc18b)" style="fill: #1f77b4; fill-opacity: 0.3; stroke: #1f77b4; stroke-opacity: 0.3"/>
    <path d="M 211.636364 457.409234 
C 213.774499 457.409234 215.82535 456.559744 217.337241 455.047854 
C 218.849131 453.535964 219.698621 451.485112 219.698621 449.346977 
C 219.698621 447.208841 218.849131 445.15799 217.337241 443.6461 
C 215.82535 442.134209 213.774499 441.284719 211.636364 441.284719 
C 209.498228 441.284719 207.447377 442.134209 205.935487 443.6461 
C 204.423596 445.15799 203.574106 447.208841 203.574106 449.346977 
C 203.574106 451.485112 204.423596 453.535964 205.935487 455.047854 
C 207.447377 456.559744 209.498228 457.409234 211.636364 457.409234 
z
" clip-path="url(#p280fedc18b)" style="fill: #1f77b4; fill-opacity: 0.3; stroke: #1f77b4; stroke-opacity: 0.3"/>
    <path d="M 225.163636 449.990441 
C 225.582959 449.990441 225.985164 449.823842 226.28167 449.527336 
C 226.578176 449.23083 226.744775 448.828625 226.744775 448.409302 
C 226.744775 447.989979 226.578176 447.587774 226.28167 447.291268 
C 225.985164 446.994762 225.582959 446.828163 225.163636 446.828163 
C 224.744313 446.828163 224.342108 446.994762 224.045602 447.291268 
C 223.749096 447.587774 223.582498 447.989979 223.582498 448.409302 
C 223.582498 448.828625 223.749096 449.23083 224.045602 449.527336 
C 224.342108 449.823842 224.744313 449.990441 225.163636 449.990441 
z
" clip-path="url(#p280fedc18b)" style="fill: #1f77b4; fill-opacity: 0.3; stroke: #1f77b4; stroke-opacity: 0.3"/>
    <path d="M 238.690909 444.032558 
C 240.016925 444.032558 241.288808 443.505727 242.226443 442.568092 
C 243.164078 441.630457 243.690909 440.358574 243.690909 439.032558 
C 243.690909 437.706543 243.164078 436.434659 242.226443 435.497024 
C 241.288808 434.55939 240.016925 434.032558 238.690909 434.032558 
C 237.364894 434.032558 236.09301 434.55939 235.155375 435.497024 
C 234.217741 436.434659 233.690909 437.706543 233.690909 439.032558 
C 233.690909 440.358574 234.217741 441.630457 235.155375 442.568092 
C 236.09301 443.505727 237.364894 444.032558 238.690909 444.032558 
z
" clip-path="url(#p280fedc18b)" style="fill: #1f77b4; fill-opacity: 0.3; stroke: #1f77b4; stroke-opacity: 0.3"/>
    <path d="M 265.745455 437.87972 
C 266.683089 437.87972 267.582447 437.507194 268.245455 436.844186 
C 268.908462 436.181178 269.280988 435.281821 269.280988 434.344186 
C 269.280988 433.406551 268.908462 432.507194 268.245455 431.844186 
C 267.582447 431.181178 266.683089 430.808652 265.745455 430.808652 
C 264.80782 430.808652 263.908462 431.181178 263.245455 431.844186 
C 262.582447 432.507194 262.209921 433.406551 262.209921 434.344186 
C 262.209921 435.281821 262.582447 436.181178 263.245455 436.844186 
C 263.908462 437.507194 264.80782 437.87972 265.745455 437.87972 
z
" clip-path="url(#p280fedc18b)" style="fill: #1f77b4; fill-opacity: 0.3; stroke: #1f77b4; stroke-opacity: 0.3"/>
    <path d="M 279.272727 433.755766 
C 280.111373 433.755766 280.915783 433.422569 281.508795 432.829556 
C 282.101807 432.236544 282.435005 431.432134 282.435005 430.593488 
C 282.435005 429.754843 282.101807 428.950433 281.508795 428.35742 
C 280.915783 427.764408 280.111373 427.431211 279.272727 427.431211 
C 278.434081 427.431211 277.629671 427.764408 277.036659 428.35742 
C 276.443647 428.950433 276.11045 429.754843 276.11045 430.593488 
C 276.11045 431.432134 276.443647 432.236544 277.036659 432.829556 
C 277.629671 433.422569 278.434081 433.755766 279.272727 433.755766 
z
" clip-path="url(#p280fedc18b)" style="fill: #1f77b4; fill-opacity: 0.3; stroke: #1f77b4; stroke-opacity: 0.3"/>
    <path d="M 292.8 430.519078 
C 293.526289 430.519078 294.222928 430.23052 294.736492 429.716957 
C 295.250055 429.203393 295.538613 428.506754 295.538613 427.780465 
C 295.538613 427.054177 295.250055 426.357537 294.736492 425.843973 
C 294.222928 425.33041 293.526289 425.041852 292.8 425.041852 
C 292.073711 425.041852 291.377072 425.33041 290.863508 425.843973 
C 290.349945 426.357537 290.061387 427.054177 290.061387 427.780465 
C 290.061387 428.506754 290.349945 429.203393 290.863508 429.716957 
C 291.377072 430.23052 292.073711 430.519078 292.8 430.519078 
z
" clip-path="url(#p280fedc18b)" style="fill: #1f77b4; fill-opacity: 0.3; stroke: #1f77b4; stroke-opacity: 0.3"/>
    <path d="M 306.327273 427.192045 
C 307.165919 427.192045 307.970329 426.858848 308.563341 426.265835 
C 309.156353 425.672823 309.48955 424.868413 309.48955 424.029767 
C 309.48955 423.191122 309.156353 422.386712 308.563341 421.793699 
C 307.970329 421.200687 307.165919 420.86749 306.327273 420.86749 
C 305.488627 420.86749 304.684217 421.200687 304.091205 421.793699 
C 303.498193 422.386712 303.164995 423.191122 303.164995 424.029767 
C 303.164995 424.868413 303.498193 425.672823 304.091205 426.265835 
C 304.684217 426.858848 305.488627 427.192045 306.327273 427.192045 
z
" clip-path="url(#p280fedc18b)" style="fill: #1f77b4; fill-opacity: 0.3; stroke: #1f77b4; stroke-opacity: 0.3"/>
    <path d="M 319.854545 422.276704 
C 320.881673 422.276704 321.86687 421.868622 322.593158 421.142334 
C 323.319447 420.416045 323.727529 419.430848 323.727529 418.403721 
C 323.727529 417.376594 323.319447 416.391397 322.593158 415.665108 
C 321.86687 414.93882 320.881673 414.530738 319.854545 414.530738 
C 318.827418 414.530738 317.842221 414.93882 317.115933 415.665108 
C 316.389644 416.391397 315.981562 417.376594 315.981562 418.403721 
C 315.981562 419.430848 316.389644 420.416045 317.115933 421.142334 
C 317.842221 421.868622 318.827418 422.276704 319.854545 422.276704 
z
" clip-path="url(#p280fedc18b)" style="fill: #1f77b4; fill-opacity: 0.3; stroke: #1f77b4; stroke-opacity: 0.3"/>
    <path d="M 333.381818 409.725486 
C 335.05911 409.725486 336.66793 409.059091 337.853954 407.873066 
C 339.039978 406.687042 339.706374 405.078222 339.706374 403.40093 
C 339.706374 401.723639 339.039978 400.114819 337.853954 398.928794 
C 336.66793 397.74277 335.05911 397.076375 333.381818 397.076375 
C 331.704527 397.076375 330.095707 397.74277 328.909682 398.928794 
C 327.723658 400.114819 327.057263 401.723639 327.057263 403.40093 
C 327.057263 405.078222 327.723658 406.687042 328.909682 407.873066 
C 330.095707 409.059091 331.704527 409.725486 333.381818 409.725486 
z
" clip-path="url(#p280fedc18b)" style="fill: #1f77b4; fill-opacity: 0.3; stroke: #1f77b4; stroke-opacity: 0.3"/>
    <path d="M 346.909091 403.32652 
C 347.63538 403.32652 348.332019 403.037962 348.845583 402.524399 
C 349.359146 402.010835 349.647704 401.314196 349.647704 400.587907 
C 349.647704 399.861618 349.359146 399.164979 348.845583 398.651415 
C 348.332019 398.137852 347.63538 397.849294 346.909091 397.849294 
C 346.182802 397.849294 345.486163 398.137852 344.972599 398.651415 
C 344.459036 399.164979 344.170478 399.861618 344.170478 400.587907 
C 344.170478 401.314196 344.459036 402.010835 344.972599 402.524399 
C 345.486163 403.037962 346.182802 403.32652 346.909091 403.32652 
z
" clip-path="url(#p280fedc18b)" style="fill: #1f77b4; fill-opacity: 0.3; stroke: #1f77b4; stroke-opacity: 0.3"/>
    <path d="M 360.436364 400.513497 
C 361.162652 400.513497 361.859292 400.224939 362.372855 399.711375 
C 362.886419 399.197812 363.174976 398.501172 363.174976 397.774884 
C 363.174976 397.048595 362.886419 396.351956 362.372855 395.838392 
C 361.859292 395.324828 361.162652 395.036271 360.436364 395.036271 
C 359.710075 395.036271 359.013436 395.324828 358.499872 395.838392 
C 357.986308 396.351956 357.697751 397.048595 357.697751 397.774884 
C 357.697751 398.501172 357.986308 399.197812 358.499872 399.711375 
C 359.013436 400.224939 359.710075 400.513497 360.436364 400.513497 
z
" clip-path="url(#p280fedc18b)" style="fill: #1f77b4; fill-opacity: 0.3; stroke: #1f77b4; stroke-opacity: 0.3"/>
    <path d="M 373.963636 389.833492 
C 375.587667 389.833492 377.1454 389.188258 378.293763 388.039894 
C 379.442126 386.891531 380.087361 385.333798 380.087361 383.709767 
C 380.087361 382.085737 379.442126 380.528004 378.293763 379.37964 
C 377.1454 378.231277 375.587667 377.586043 373.963636 377.586043 
C 372.339606 377.586043 370.781872 378.231277 369.633509 379.37964 
C 368.485146 380.528004 367.839912 382.085737 367.839912 383.709767 
C 367.839912 385.333798 368.485146 386.891531 369.633509 388.039894 
C 370.781872 389.188258 372.339606 389.833492 373.963636 389.833492 
z
" clip-path="url(#p280fedc18b)" style="fill: #1f77b4; fill-opacity: 0.3; stroke: #1f77b4; stroke-opacity: 0.3"/>
    <path d="M 387.490909 383.121347 
C 388.329555 383.121347 389.133965 382.78815 389.726977 382.195138 
C 390.319989 381.602126 390.653187 380.797716 390.653187 379.95907 
C 390.653187 379.120424 390.319989 378.316014 389.726977 377.723002 
C 389.133965 377.12999 388.329555 376.796792 387.490909 376.796792 
C 386.652263 376.796792 385.847853 377.12999 385.254841 377.723002 
C 384.661829 378.316014 384.328631 379.120424 384.328631 379.95907 
C 384.328631 380.797716 384.661829 381.602126 385.254841 382.195138 
C 385.847853 382.78815 386.652263 383.121347 387.490909 383.121347 
z
" clip-path="url(#p280fedc18b)" style="fill: #1f77b4; fill-opacity: 0.3; stroke: #1f77b4; stroke-opacity: 0.3"/>
    <path d="M 401.018182 374.184202 
C 402.470759 374.184202 403.864038 373.607087 404.891165 372.57996 
C 405.918292 371.552833 406.495407 370.159554 406.495407 368.706977 
C 406.495407 367.2544 405.918292 365.861121 404.891165 364.833993 
C 403.864038 363.806866 402.470759 363.229751 401.018182 363.229751 
C 399.565605 363.229751 398.172326 363.806866 397.145198 364.833993 
C 396.118071 365.861121 395.540956 367.2544 395.540956 368.706977 
C 395.540956 370.159554 396.118071 371.552833 397.145198 372.57996 
C 398.172326 373.607087 399.565605 374.184202 401.018182 374.184202 
z
" clip-path="url(#p280fedc18b)" style="fill: #1f77b4; fill-opacity: 0.3; stroke: #1f77b4; stroke-opacity: 0.3"/>
    <path d="M 414.545455 367.554139 
C 415.483089 367.554139 416.382447 367.181612 417.045455 366.518605 
C 417.708462 365.855597 418.080988 364.956239 418.080988 364.018605 
C 418.080988 363.08097 417.708462 362.181612 417.045455 361.518605 
C 416.382447 360.855597 415.483089 360.483071 414.545455 360.483071 
C 413.60782 360.483071 412.708462 360.855597 412.045455 361.518605 
C 411.382447 362.181612 411.009921 363.08097 411.009921 364.018605 
C 411.009921 364.956239 411.382447 365.855597 412.045455 366.518605 
C 412.708462 367.181612 413.60782 367.554139 414.545455 367.554139 
z
" clip-path="url(#p280fedc18b)" style="fill: #1f77b4; fill-opacity: 0.3; stroke: #1f77b4; stroke-opacity: 0.3"/>
    <path d="M 428.072727 362.265541 
C 429.099854 362.265541 430.085051 361.85746 430.81134 361.131171 
C 431.537629 360.404882 431.945711 359.419685 431.945711 358.392558 
C 431.945711 357.365431 431.537629 356.380234 430.81134 355.653945 
C 430.085051 354.927657 429.099854 354.519575 428.072727 354.519575 
C 427.0456 354.519575 426.060403 354.927657 425.334114 355.653945 
C 424.607826 356.380234 424.199744 357.365431 424.199744 358.392558 
C 424.199744 359.419685 424.607826 360.404882 425.334114 361.131171 
C 426.060403 361.85746 427.0456 362.265541 428.072727 362.265541 
z
" clip-path="url(#p280fedc18b)" style="fill: #1f77b4; fill-opacity: 0.3; stroke: #1f77b4; stroke-opacity: 0.3"/>
    <path d="M 441.6 358.318148 
C 442.326289 358.318148 443.022928 358.02959 443.536492 357.516027 
C 444.050055 357.002463 444.338613 356.305823 444.338613 355.579535 
C 444.338613 354.853246 444.050055 354.156607 443.536492 353.643043 
C 443.022928 353.12948 442.326289 352.840922 441.6 352.840922 
C 440.873711 352.840922 440.177072 353.12948 439.663508 353.643043 
C 439.149945 354.156607 438.861387 354.853246 438.861387 355.579535 
C 438.861387 356.305823 439.149945 357.002463 439.663508 357.516027 
C 440.177072 358.02959 440.873711 358.318148 441.6 358.318148 
z
" clip-path="url(#p280fedc18b)" style="fill: #1f77b4; fill-opacity: 0.3; stroke: #1f77b4; stroke-opacity: 0.3"/>
    <path d="M 455.127273 355.505124 
C 455.853561 355.505124 456.550201 355.216567 457.063764 354.703003 
C 457.577328 354.18944 457.865886 353.4928 457.865886 352.766512 
C 457.865886 352.040223 457.577328 351.343584 457.063764 350.83002 
C 456.550201 350.316456 455.853561 350.027899 455.127273 350.027899 
C 454.400984 350.027899 453.704345 350.316456 453.190781 350.83002 
C 452.677217 351.343584 452.38866 352.040223 452.38866 352.766512 
C 452.38866 353.4928 452.677217 354.18944 453.190781 354.703003 
C 453.704345 355.216567 454.400984 355.505124 455.127273 355.505124 
z
" clip-path="url(#p280fedc18b)" style="fill: #1f77b4; fill-opacity: 0.3; stroke: #1f77b4; stroke-opacity: 0.3"/>
    <path d="M 468.654545 351.613673 
C 469.59218 351.613673 470.491538 351.241147 471.154545 350.57814 
C 471.817553 349.915132 472.190079 349.015774 472.190079 348.07814 
C 472.190079 347.140505 471.817553 346.241147 471.154545 345.57814 
C 470.491538 344.915132 469.59218 344.542606 468.654545 344.542606 
C 467.716911 344.542606 466.817553 344.915132 466.154545 345.57814 
C 465.491538 346.241147 465.119012 347.140505 465.119012 348.07814 
C 465.119012 349.015774 465.491538 349.915132 466.154545 350.57814 
C 466.817553 351.241147 467.716911 351.613673 468.654545 351.613673 
z
" clip-path="url(#p280fedc18b)" style="fill: #1f77b4; fill-opacity: 0.3; stroke: #1f77b4; stroke-opacity: 0.3"/>
    <path d="M 482.181818 346.925301 
C 483.119453 346.925301 484.01881 346.552775 484.681818 345.889767 
C 485.344826 345.22676 485.717352 344.327402 485.717352 343.389767 
C 485.717352 342.452133 485.344826 341.552775 484.681818 340.889767 
C 484.01881 340.22676 483.119453 339.854234 482.181818 339.854234 
C 481.244184 339.854234 480.344826 340.22676 479.681818 340.889767 
C 479.01881 341.552775 478.646284 342.452133 478.646284 343.389767 
C 478.646284 344.327402 479.01881 345.22676 479.681818 345.889767 
C 480.344826 346.552775 481.244184 346.925301 482.181818 346.925301 
z
" clip-path="url(#p280fedc18b)" style="fill: #1f77b4; fill-opacity: 0.3; stroke: #1f77b4; stroke-opacity: 0.3"/>
    <path d="M 495.709091 342.801347 
C 496.547737 342.801347 497.352147 342.46815 497.945159 341.875138 
C 498.538171 341.282126 498.871369 340.477716 498.871369 339.63907 
C 498.871369 338.800424 498.538171 337.996014 497.945159 337.403002 
C 497.352147 336.80999 496.547737 336.476792 495.709091 336.476792 
C 494.870445 336.476792 494.066035 336.80999 493.473023 337.403002 
C 492.880011 337.996014 492.546813 338.800424 492.546813 339.63907 
C 492.546813 340.477716 492.880011 341.282126 493.473023 341.875138 
C 494.066035 342.46815 494.870445 342.801347 495.709091 342.801347 
z
" clip-path="url(#p280fedc18b)" style="fill: #1f77b4; fill-opacity: 0.3; stroke: #1f77b4; stroke-opacity: 0.3"/>
    <path d="M 509.236364 339.999789 
C 509.829376 339.999789 510.39818 339.764183 510.817502 339.34486 
C 511.236825 338.925537 511.472432 338.356733 511.472432 337.763721 
C 511.472432 337.170709 511.236825 336.601905 510.817502 336.182582 
C 510.39818 335.763259 509.829376 335.527653 509.236364 335.527653 
C 508.643351 335.527653 508.074548 335.763259 507.655225 336.182582 
C 507.235902 336.601905 507.000296 337.170709 507.000296 337.763721 
C 507.000296 338.356733 507.235902 338.925537 507.655225 339.34486 
C 508.074548 339.764183 508.643351 339.999789 509.236364 339.999789 
z
" clip-path="url(#p280fedc18b)" style="fill: #1f77b4; fill-opacity: 0.3; stroke: #1f77b4; stroke-opacity: 0.3"/>
    <path d="M 522.763636 335.3833 
C 523.873061 335.3833 524.937195 334.942521 525.721676 334.15804 
C 526.506158 333.373559 526.946936 332.309424 526.946936 331.2 
C 526.946936 330.090576 526.506158 329.026441 525.721676 328.24196 
C 524.937195 327.457479 523.873061 327.0167 522.763636 327.0167 
C 521.654212 327.0167 520.590078 327.457479 519.805596 328.24196 
C 519.021115 329.026441 518.580336 330.090576 518.580336 331.2 
C 518.580336 332.309424 519.021115 333.373559 519.805596 334.15804 
C 520.590078 334.942521 521.654212 335.3833 522.763636 335.3833 
z
" clip-path="url(#p280fedc18b)" style="fill: #1f77b4; fill-opacity: 0.3; stroke: #1f77b4; stroke-opacity: 0.3"/>
    <path d="M 536.290909 331.560719 
C 536.883921 331.560719 537.452725 331.325113 537.872048 330.90579 
C 538.291371 330.486467 538.526977 329.917663 538.526977 329.324651 
C 538.526977 328.731639 538.291371 328.162835 537.872048 327.743512 
C 537.452725 327.324189 536.883921 327.088583 536.290909 327.088583 
C 535.697897 327.088583 535.129093 327.324189 534.70977 327.743512 
C 534.290447 328.162835 534.054841 328.731639 534.054841 329.324651 
C 534.054841 329.917663 534.290447 330.486467 534.70977 330.90579 
C 535.129093 331.325113 535.697897 331.560719 536.290909 331.560719 
z
" clip-path="url(#p280fedc18b)" style="fill: #1f77b4; fill-opacity: 0.3; stroke: #1f77b4; stroke-opacity: 0.3"/>
    <path d="M 563.345455 324.947907 
C 564.67147 324.947907 565.943354 324.421075 566.880988 323.483441 
C 567.818623 322.545806 568.345455 321.273922 568.345455 319.947907 
C 568.345455 318.621891 567.818623 317.350008 566.880988 316.412373 
C 565.943354 315.474739 564.67147 314.947907 563.345455 314.947907 
C 562.019439 314.947907 560.747555 315.474739 559.809921 316.412373 
C 558.872286 317.350008 558.345455 318.621891 558.345455 319.947907 
C 558.345455 321.273922 558.872286 322.545806 559.809921 323.483441 
C 560.747555 324.421075 562.019439 324.947907 563.345455 324.947907 
z
" clip-path="url(#p280fedc18b)" style="fill: #1f77b4; fill-opacity: 0.3; stroke: #1f77b4; stroke-opacity: 0.3"/>
    <path d="M 576.872727 320.591371 
C 577.29205 320.591371 577.694255 320.424773 577.990761 320.128267 
C 578.287267 319.83176 578.453866 319.429555 578.453866 319.010233 
C 578.453866 318.59091 578.287267 318.188705 577.990761 317.892199 
C 577.694255 317.595692 577.29205 317.429094 576.872727 317.429094 
C 576.453404 317.429094 576.051199 317.595692 575.754693 317.892199 
C 575.458187 318.188705 575.291588 318.59091 575.291588 319.010233 
C 575.291588 319.429555 575.458187 319.83176 575.754693 320.128267 
C 576.051199 320.424773 576.453404 320.591371 576.872727 320.591371 
z
" clip-path="url(#p280fedc18b)" style="fill: #1f77b4; fill-opacity: 0.3; stroke: #1f77b4; stroke-opacity: 0.3"/>
    <path d="M 590.4 317.257169 
C 591.427127 317.257169 592.412324 316.849087 593.138613 316.122799 
C 593.864901 315.39651 594.272983 314.411313 594.272983 313.384186 
C 594.272983 312.357059 593.864901 311.371862 593.138613 310.645573 
C 592.412324 309.919285 591.427127 309.511203 590.4 309.511203 
C 589.372873 309.511203 588.387676 309.919285 587.661387 310.645573 
C 586.935099 311.371862 586.527017 312.357059 586.527017 313.384186 
C 586.527017 314.411313 586.935099 315.39651 587.661387 316.122799 
C 588.387676 316.849087 589.372873 317.257169 590.4 317.257169 
z
" clip-path="url(#p280fedc18b)" style="fill: #1f77b4; fill-opacity: 0.3; stroke: #1f77b4; stroke-opacity: 0.3"/>
    <path d="M 603.927273 305.442794 
C 605.551303 305.442794 607.109037 304.79756 608.2574 303.649197 
C 609.405763 302.500834 610.050997 300.9431 610.050997 299.31907 
C 610.050997 297.695039 609.405763 296.137306 608.2574 294.988943 
C 607.109037 293.84058 605.551303 293.195345 603.927273 293.195345 
C 602.303242 293.195345 600.745509 293.84058 599.597146 294.988943 
C 598.448783 296.137306 597.803548 297.695039 597.803548 299.31907 
C 597.803548 300.9431 598.448783 302.500834 599.597146 303.649197 
C 600.745509 304.79756 602.303242 305.442794 603.927273 305.442794 
z
" clip-path="url(#p280fedc18b)" style="fill: #1f77b4; fill-opacity: 0.3; stroke: #1f77b4; stroke-opacity: 0.3"/>
    <path d="M 617.454545 291.377678 
C 619.078576 291.377678 620.636309 290.732444 621.784672 289.584081 
C 622.933036 288.435717 623.57827 286.877984 623.57827 285.253953 
C 623.57827 283.629923 622.933036 282.07219 621.784672 280.923826 
C 620.636309 279.775463 619.078576 279.130229 617.454545 279.130229 
C 615.830515 279.130229 614.272782 279.775463 613.124418 280.923826 
C 611.976055 282.07219 611.330821 283.629923 611.330821 285.253953 
C 611.330821 286.877984 611.976055 288.435717 613.124418 289.584081 
C 614.272782 290.732444 615.830515 291.377678 617.454545 291.377678 
z
" clip-path="url(#p280fedc18b)" style="fill: #1f77b4; fill-opacity: 0.3; stroke: #1f77b4; stroke-opacity: 0.3"/>
    <path d="M 630.981818 285.179543 
C 631.708107 285.179543 632.404746 284.890986 632.91831 284.377422 
C 633.431873 283.863858 633.720431 283.167219 633.720431 282.44093 
C 633.720431 281.714642 633.431873 281.018002 632.91831 280.504439 
C 632.404746 279.990875 631.708107 279.702317 630.981818 279.702317 
C 630.25553 279.702317 629.55889 279.990875 629.045327 280.504439 
C 628.531763 281.018002 628.243205 281.714642 628.243205 282.44093 
C 628.243205 283.167219 628.531763 283.863858 629.045327 284.377422 
C 629.55889 284.890986 630.25553 285.179543 630.981818 285.179543 
z
" clip-path="url(#p280fedc18b)" style="fill: #1f77b4; fill-opacity: 0.3; stroke: #1f77b4; stroke-opacity: 0.3"/>
    <path d="M 658.036364 281.85251 
C 658.875009 281.85251 659.679419 281.519313 660.272432 280.926301 
C 660.865444 280.333288 661.198641 279.528878 661.198641 278.690233 
C 661.198641 277.851587 660.865444 277.047177 660.272432 276.454165 
C 659.679419 275.861152 658.875009 275.527955 658.036364 275.527955 
C 657.197718 275.527955 656.393308 275.861152 655.800296 276.454165 
C 655.207283 277.047177 654.874086 277.851587 654.874086 278.690233 
C 654.874086 279.528878 655.207283 280.333288 655.800296 280.926301 
C 656.393308 281.519313 657.197718 281.85251 658.036364 281.85251 
z
" clip-path="url(#p280fedc18b)" style="fill: #1f77b4; fill-opacity: 0.3; stroke: #1f77b4; stroke-opacity: 0.3"/>
    <path d="M 671.563636 269.26897 
C 673.292549 269.26897 674.950883 268.582066 676.173409 267.35954 
C 677.395934 266.137014 678.082839 264.47868 678.082839 262.749767 
C 678.082839 261.020855 677.395934 259.362521 676.173409 258.139995 
C 674.950883 256.917469 673.292549 256.230565 671.563636 256.230565 
C 669.834724 256.230565 668.17639 256.917469 666.953864 258.139995 
C 665.731338 259.362521 665.044434 261.020855 665.044434 262.749767 
C 665.044434 264.47868 665.731338 266.137014 666.953864 267.35954 
C 668.17639 268.582066 669.834724 269.26897 671.563636 269.26897 
z
" clip-path="url(#p280fedc18b)" style="fill: #1f77b4; fill-opacity: 0.3; stroke: #1f77b4; stroke-opacity: 0.3"/>
    <path d="M 685.090909 263.393232 
C 685.510232 263.393232 685.912437 263.226633 686.208943 262.930127 
C 686.505449 262.633621 686.672048 262.231416 686.672048 261.812093 
C 686.672048 261.39277 686.505449 260.990565 686.208943 260.694059 
C 685.912437 260.397553 685.510232 260.230954 685.090909 260.230954 
C 684.671586 260.230954 684.269381 260.397553 683.972875 260.694059 
C 683.676369 260.990565 683.50977 261.39277 683.50977 261.812093 
C 683.50977 262.231416 683.676369 262.633621 683.972875 262.930127 
C 684.269381 263.226633 684.671586 263.393232 685.090909 263.393232 
z
" clip-path="url(#p280fedc18b)" style="fill: #1f77b4; fill-opacity: 0.3; stroke: #1f77b4; stroke-opacity: 0.3"/>
    <path d="M 698.618182 261.223673 
C 699.456828 261.223673 700.261238 260.890475 700.85425 260.297463 
C 701.447262 259.704451 701.780459 258.900041 701.780459 258.061395 
C 701.780459 257.22275 701.447262 256.41834 700.85425 255.825327 
C 700.261238 255.232315 699.456828 254.899118 698.618182 254.899118 
C 697.779536 254.899118 696.975126 255.232315 696.382114 255.825327 
C 695.789102 256.41834 695.455904 257.22275 695.455904 258.061395 
C 695.455904 258.900041 695.789102 259.704451 696.382114 260.297463 
C 696.975126 260.890475 697.779536 261.223673 698.618182 261.223673 
z
" clip-path="url(#p280fedc18b)" style="fill: #1f77b4; fill-opacity: 0.3; stroke: #1f77b4; stroke-opacity: 0.3"/>
    <path d="M 712.145455 257.986985 
C 712.871743 257.986985 713.568383 257.698427 714.081946 257.184864 
C 714.59551 256.6713 714.884067 255.974661 714.884067 255.248372 
C 714.884067 254.522083 714.59551 253.825444 714.081946 253.31188 
C 713.568383 252.798317 712.871743 252.509759 712.145455 252.509759 
C 711.419166 252.509759 710.722526 252.798317 710.208963 253.31188 
C 709.695399 253.825444 709.406842 254.522083 709.406842 255.248372 
C 709.406842 255.974661 709.695399 256.6713 710.208963 257.184864 
C 710.722526 257.698427 711.419166 257.986985 712.145455 257.986985 
z
" clip-path="url(#p280fedc18b)" style="fill: #1f77b4; fill-opacity: 0.3; stroke: #1f77b4; stroke-opacity: 0.3"/>
    <path d="M 725.672727 255.173962 
C 726.399016 255.173962 727.095655 254.885404 727.609219 254.371841 
C 728.122783 253.858277 728.41134 253.161637 728.41134 252.435349 
C 728.41134 251.70906 728.122783 251.012421 727.609219 250.498857 
C 727.095655 249.985294 726.399016 249.696736 725.672727 249.696736 
C 724.946439 249.696736 724.249799 249.985294 723.736236 250.498857 
C 723.222672 251.012421 722.934114 251.70906 722.934114 252.435349 
C 722.934114 253.161637 723.222672 253.858277 723.736236 254.371841 
C 724.249799 254.885404 724.946439 255.173962 725.672727 255.173962 
z
" clip-path="url(#p280fedc18b)" style="fill: #1f77b4; fill-opacity: 0.3; stroke: #1f77b4; stroke-opacity: 0.3"/>
    <path d="M 739.2 242.265413 
C 740.979036 242.265413 742.685448 241.558595 743.943416 240.300626 
C 745.201385 239.042657 745.908204 237.336246 745.908204 235.557209 
C 745.908204 233.778173 745.201385 232.071762 743.943416 230.813793 
C 742.685448 229.555824 740.979036 228.849005 739.2 228.849005 
C 737.420964 228.849005 735.714552 229.555824 734.456584 230.813793 
C 733.198615 232.071762 732.491796 233.778173 732.491796 235.557209 
C 732.491796 237.336246 733.198615 239.042657 734.456584 240.300626 
C 735.714552 241.558595 737.420964 242.265413 739.2 242.265413 
z
" clip-path="url(#p280fedc18b)" style="fill: #1f77b4; fill-opacity: 0.3; stroke: #1f77b4; stroke-opacity: 0.3"/>
    <path d="M 752.727273 235.482799 
C 753.453561 235.482799 754.150201 235.194241 754.663764 234.680678 
C 755.177328 234.167114 755.465886 233.470475 755.465886 232.744186 
C 755.465886 232.017897 755.177328 231.321258 754.663764 230.807694 
C 754.150201 230.294131 753.453561 230.005573 752.727273 230.005573 
C 752.000984 230.005573 751.304345 230.294131 750.790781 230.807694 
C 750.277217 231.321258 749.98866 232.017897 749.98866 232.744186 
C 749.98866 233.470475 750.277217 234.167114 750.790781 234.680678 
C 751.304345 235.194241 752.000984 235.482799 752.727273 235.482799 
z
" clip-path="url(#p280fedc18b)" style="fill: #1f77b4; fill-opacity: 0.3; stroke: #1f77b4; stroke-opacity: 0.3"/>
    <path d="M 766.254545 232.155766 
C 767.093191 232.155766 767.897601 231.822569 768.490613 231.229556 
C 769.083626 230.636544 769.416823 229.832134 769.416823 228.993488 
C 769.416823 228.154843 769.083626 227.350433 768.490613 226.75742 
C 767.897601 226.164408 767.093191 225.831211 766.254545 225.831211 
C 765.4159 225.831211 764.61149 226.164408 764.018477 226.75742 
C 763.425465 227.350433 763.092268 228.154843 763.092268 228.993488 
C 763.092268 229.832134 763.425465 230.636544 764.018477 231.229556 
C 764.61149 231.822569 765.4159 232.155766 766.254545 232.155766 
z
" clip-path="url(#p280fedc18b)" style="fill: #1f77b4; fill-opacity: 0.3; stroke: #1f77b4; stroke-opacity: 0.3"/>
    <path d="M 779.781818 228.405068 
C 780.620464 228.405068 781.424874 228.071871 782.017886 227.478859 
C 782.610898 226.885847 782.944096 226.081437 782.944096 225.242791 
C 782.944096 224.404145 782.610898 223.599735 782.017886 223.006723 
C 781.424874 222.413711 780.620464 222.080513 779.781818 222.080513 
C 778.943172 222.080513 778.138762 222.413711 777.54575 223.006723 
C 776.952738 223.599735 776.619541 224.404145 776.619541 225.242791 
C 776.619541 226.081437 776.952738 226.885847 777.54575 227.478859 
C 778.138762 228.071871 778.943172 228.405068 779.781818 228.405068 
z
" clip-path="url(#p280fedc18b)" style="fill: #1f77b4; fill-opacity: 0.3; stroke: #1f77b4; stroke-opacity: 0.3"/>
    <path d="M 793.309091 223.489728 
C 794.336218 223.489728 795.321415 223.081646 796.047704 222.355357 
C 796.773992 221.629068 797.182074 220.643871 797.182074 219.616744 
C 797.182074 218.589617 796.773992 217.60442 796.047704 216.878131 
C 795.321415 216.151843 794.336218 215.743761 793.309091 215.743761 
C 792.281964 215.743761 791.296767 216.151843 790.570478 216.878131 
C 789.84419 217.60442 789.436108 218.589617 789.436108 219.616744 
C 789.436108 220.643871 789.84419 221.629068 790.570478 222.355357 
C 791.296767 223.081646 792.281964 223.489728 793.309091 223.489728 
z
" clip-path="url(#p280fedc18b)" style="fill: #1f77b4; fill-opacity: 0.3; stroke: #1f77b4; stroke-opacity: 0.3"/>
    <path d="M 806.836364 207.934324 
C 808.711633 207.934324 810.510348 207.189271 811.836364 205.863256 
C 813.162379 204.53724 813.907431 202.738525 813.907431 200.863256 
C 813.907431 198.987987 813.162379 197.189271 811.836364 195.863256 
C 810.510348 194.53724 808.711633 193.792188 806.836364 193.792188 
C 804.961095 193.792188 803.162379 194.53724 801.836364 195.863256 
C 800.510348 197.189271 799.765296 198.987987 799.765296 200.863256 
C 799.765296 202.738525 800.510348 204.53724 801.836364 205.863256 
C 803.162379 207.189271 804.961095 207.934324 806.836364 207.934324 
z
" clip-path="url(#p280fedc18b)" style="fill: #1f77b4; fill-opacity: 0.3; stroke: #1f77b4; stroke-opacity: 0.3"/>
    <path d="M 820.363636 199.710418 
C 821.301271 199.710418 822.200629 199.337891 822.863636 198.674884 
C 823.526644 198.011876 823.89917 197.112518 823.89917 196.174884 
C 823.89917 195.237249 823.526644 194.337891 822.863636 193.674884 
C 822.200629 193.011876 821.301271 192.63935 820.363636 192.63935 
C 819.426002 192.63935 818.526644 193.011876 817.863636 193.674884 
C 817.200629 194.337891 816.828102 195.237249 816.828102 196.174884 
C 816.828102 197.112518 817.200629 198.011876 817.863636 198.674884 
C 818.526644 199.337891 819.426002 199.710418 820.363636 199.710418 
z
" clip-path="url(#p280fedc18b)" style="fill: #1f77b4; fill-opacity: 0.3; stroke: #1f77b4; stroke-opacity: 0.3"/>
    <path d="M 833.890909 196.100473 
C 834.617198 196.100473 835.313837 195.811916 835.827401 195.298352 
C 836.340964 194.784789 836.629522 194.088149 836.629522 193.36186 
C 836.629522 192.635572 836.340964 191.938932 835.827401 191.425369 
C 835.313837 190.911805 834.617198 190.623248 833.890909 190.623248 
C 833.16462 190.623248 832.467981 190.911805 831.954417 191.425369 
C 831.440854 191.938932 831.152296 192.635572 831.152296 193.36186 
C 831.152296 194.088149 831.440854 194.784789 831.954417 195.298352 
C 832.467981 195.811916 833.16462 196.100473 833.890909 196.100473 
z
" clip-path="url(#p280fedc18b)" style="fill: #1f77b4; fill-opacity: 0.3; stroke: #1f77b4; stroke-opacity: 0.3"/>
    <path d="M 847.418182 188.985116 
C 848.744197 188.985116 850.016081 188.458285 850.953716 187.52065 
C 851.89135 186.583016 852.418182 185.311132 852.418182 183.985116 
C 852.418182 182.659101 851.89135 181.387217 850.953716 180.449582 
C 850.016081 179.511948 848.744197 178.985116 847.418182 178.985116 
C 846.092166 178.985116 844.820282 179.511948 843.882648 180.449582 
C 842.945013 181.387217 842.418182 182.659101 842.418182 183.985116 
C 842.418182 185.311132 842.945013 186.583016 843.882648 187.52065 
C 844.820282 188.458285 846.092166 188.985116 847.418182 188.985116 
z
" clip-path="url(#p280fedc18b)" style="fill: #1f77b4; fill-opacity: 0.3; stroke: #1f77b4; stroke-opacity: 0.3"/>
    <path d="M 860.945455 183.396696 
C 861.7841 183.396696 862.58851 183.063499 863.181523 182.470487 
C 863.774535 181.877474 864.107732 181.073064 864.107732 180.234419 
C 864.107732 179.395773 863.774535 178.591363 863.181523 177.998351 
C 862.58851 177.405338 861.7841 177.072141 860.945455 177.072141 
C 860.106809 177.072141 859.302399 177.405338 858.709387 177.998351 
C 858.116374 178.591363 857.783177 179.395773 857.783177 180.234419 
C 857.783177 181.073064 858.116374 181.877474 858.709387 182.470487 
C 859.302399 183.063499 860.106809 183.396696 860.945455 183.396696 
z
" clip-path="url(#p280fedc18b)" style="fill: #1f77b4; fill-opacity: 0.3; stroke: #1f77b4; stroke-opacity: 0.3"/>
    <path d="M 874.472727 180.877883 
C 874.89205 180.877883 875.294255 180.711284 875.590761 180.414778 
C 875.887267 180.118272 876.053866 179.716067 876.053866 179.296744 
C 876.053866 178.877421 875.887267 178.475216 875.590761 178.17871 
C 875.294255 177.882204 874.89205 177.715605 874.472727 177.715605 
C 874.053404 177.715605 873.651199 177.882204 873.354693 178.17871 
C 873.058187 178.475216 872.891588 178.877421 872.891588 179.296744 
C 872.891588 179.716067 873.058187 180.118272 873.354693 180.414778 
C 873.651199 180.711284 874.053404 180.877883 874.472727 180.877883 
z
" clip-path="url(#p280fedc18b)" style="fill: #1f77b4; fill-opacity: 0.3; stroke: #1f77b4; stroke-opacity: 0.3"/>
    <path d="M 888 162.979467 
C 890.138136 162.979467 892.188987 162.129977 893.700877 160.618086 
C 895.212767 159.106196 896.062258 157.055345 896.062258 154.917209 
C 896.062258 152.779074 895.212767 150.728222 893.700877 149.216332 
C 892.188987 147.704442 890.138136 146.854952 888 146.854952 
C 885.861864 146.854952 883.811013 147.704442 882.299123 149.216332 
C 880.787233 150.728222 879.937742 152.779074 879.937742 154.917209 
C 879.937742 157.055345 880.787233 159.106196 882.299123 160.618086 
C 883.811013 162.129977 885.861864 162.979467 888 162.979467 
z
" clip-path="url(#p280fedc18b)" style="fill: #1f77b4; fill-opacity: 0.3; stroke: #1f77b4; stroke-opacity: 0.3"/>
    <path d="M 901.527273 153.764371 
C 902.464907 153.764371 903.364265 153.391845 904.027273 152.728837 
C 904.69028 152.065829 905.062807 151.166472 905.062807 150.228837 
C 905.062807 149.291203 904.69028 148.391845 904.027273 147.728837 
C 903.364265 147.065829 902.464907 146.693303 901.527273 146.693303 
C 900.589638 146.693303 899.69028 147.065829 899.027273 147.728837 
C 898.364265 148.391845 897.991739 149.291203 897.991739 150.228837 
C 897.991739 151.166472 898.364265 152.065829 899.027273 152.728837 
C 899.69028 153.391845 900.589638 153.764371 901.527273 153.764371 
z
" clip-path="url(#p280fedc18b)" style="fill: #1f77b4; fill-opacity: 0.3; stroke: #1f77b4; stroke-opacity: 0.3"/>
    <path d="M 915.054545 146.533184 
C 916.312514 146.533184 917.519129 146.033388 918.408647 145.143869 
C 919.298166 144.254351 919.797962 143.047736 919.797962 141.789767 
C 919.797962 140.531799 919.298166 139.325184 918.408647 138.435665 
C 917.519129 137.546147 916.312514 137.046351 915.054545 137.046351 
C 913.796577 137.046351 912.589962 137.546147 911.700443 138.435665 
C 910.810925 139.325184 910.311129 140.531799 910.311129 141.789767 
C 910.311129 143.047736 910.810925 144.254351 911.700443 145.143869 
C 912.589962 146.033388 913.796577 146.533184 915.054545 146.533184 
z
" clip-path="url(#p280fedc18b)" style="fill: #1f77b4; fill-opacity: 0.3; stroke: #1f77b4; stroke-opacity: 0.3"/>
    <path d="M 928.581818 142.150487 
C 929.17483 142.150487 929.743634 141.91488 930.162957 141.495557 
C 930.58228 141.076235 930.817886 140.507431 930.817886 139.914419 
C 930.817886 139.321406 930.58228 138.752603 930.162957 138.33328 
C 929.743634 137.913957 929.17483 137.678351 928.581818 137.678351 
C 927.988806 137.678351 927.420002 137.913957 927.000679 138.33328 
C 926.581356 138.752603 926.34575 139.321406 926.34575 139.914419 
C 926.34575 140.507431 926.581356 141.076235 927.000679 141.495557 
C 927.420002 141.91488 927.988806 142.150487 928.581818 142.150487 
z
" clip-path="url(#p280fedc18b)" style="fill: #1f77b4; fill-opacity: 0.3; stroke: #1f77b4; stroke-opacity: 0.3"/>
    <path d="M 942.109091 139.840008 
C 942.83538 139.840008 943.532019 139.551451 944.045583 139.037887 
C 944.559146 138.524323 944.847704 137.827684 944.847704 137.101395 
C 944.847704 136.375107 944.559146 135.678467 944.045583 135.164904 
C 943.532019 134.65134 942.83538 134.362783 942.109091 134.362783 
C 941.382802 134.362783 940.686163 134.65134 940.172599 135.164904 
C 939.659036 135.678467 939.370478 136.375107 939.370478 137.101395 
C 939.370478 137.827684 939.659036 138.524323 940.172599 139.037887 
C 940.686163 139.551451 941.382802 139.840008 942.109091 139.840008 
z
" clip-path="url(#p280fedc18b)" style="fill: #1f77b4; fill-opacity: 0.3; stroke: #1f77b4; stroke-opacity: 0.3"/>
    <path d="M 955.636364 129.160003 
C 957.260394 129.160003 958.818128 128.514769 959.966491 127.366406 
C 961.114854 126.218043 961.760088 124.66031 961.760088 123.036279 
C 961.760088 121.412248 961.114854 119.854515 959.966491 118.706152 
C 958.818128 117.557789 957.260394 116.912555 955.636364 116.912555 
C 954.012333 116.912555 952.4546 117.557789 951.306237 118.706152 
C 950.157874 119.854515 949.512639 121.412248 949.512639 123.036279 
C 949.512639 124.66031 950.157874 126.218043 951.306237 127.366406 
C 952.4546 128.514769 954.012333 129.160003 955.636364 129.160003 
z
" clip-path="url(#p280fedc18b)" style="fill: #1f77b4; fill-opacity: 0.3; stroke: #1f77b4; stroke-opacity: 0.3"/>
    <path d="M 969.163636 123.396998 
C 969.756649 123.396998 970.325452 123.161392 970.744775 122.742069 
C 971.164098 122.322746 971.399704 121.753942 971.399704 121.16093 
C 971.399704 120.567918 971.164098 119.999114 970.744775 119.579791 
C 970.325452 119.160468 969.756649 118.924862 969.163636 118.924862 
C 968.570624 118.924862 968.00182 119.160468 967.582498 119.579791 
C 967.163175 119.999114 966.927568 120.567918 966.927568 121.16093 
C 966.927568 121.753942 967.163175 122.322746 967.582498 122.742069 
C 968.00182 123.161392 968.570624 123.396998 969.163636 123.396998 
z
" clip-path="url(#p280fedc18b)" style="fill: #1f77b4; fill-opacity: 0.3; stroke: #1f77b4; stroke-opacity: 0.3"/>
    <path d="M 982.690909 120.57251 
C 983.529555 120.57251 984.333965 120.239313 984.926977 119.646301 
C 985.519989 119.053288 985.853187 118.248878 985.853187 117.410233 
C 985.853187 116.571587 985.519989 115.767177 984.926977 115.174165 
C 984.333965 114.581152 983.529555 114.247955 982.690909 114.247955 
C 981.852263 114.247955 981.047853 114.581152 980.454841 115.174165 
C 979.861829 115.767177 979.528631 116.571587 979.528631 117.410233 
C 979.528631 118.248878 979.861829 119.053288 980.454841 119.646301 
C 981.047853 120.239313 981.852263 120.57251 982.690909 120.57251 
z
" clip-path="url(#p280fedc18b)" style="fill: #1f77b4; fill-opacity: 0.3; stroke: #1f77b4; stroke-opacity: 0.3"/>
    <path d="M 996.218182 97.940254 
C 998.514908 97.940254 1000.717875 97.027755 1002.341906 95.403724 
C 1003.965937 93.779694 1004.878436 91.576726 1004.878436 89.28 
C 1004.878436 86.983274 1003.965937 84.780306 1002.341906 83.156276 
C 1000.717875 81.532245 998.514908 80.619746 996.218182 80.619746 
C 993.921456 80.619746 991.718488 81.532245 990.094457 83.156276 
C 988.470427 84.780306 987.557928 86.983274 987.557928 89.28 
C 987.557928 91.576726 988.470427 93.779694 990.094457 95.403724 
C 991.718488 97.027755 993.921456 97.940254 996.218182 97.940254 
z
" clip-path="url(#p280fedc18b)" style="fill: #1f77b4; fill-opacity: 0.3; stroke: #1f77b4; stroke-opacity: 0.3"/>
   </g>
   <g id="matplotlib.axis_1">
    <g id="xtick_1">
     <g id="line2d_1">
      <defs>
       <path id="me360f9dddd" d="M 0 0 
L 0 3.5 
" style="stroke: #000000; stroke-width: 0.8"/>
      </defs>
      <g>
       <use xlink:href="#me360f9dddd" x="184.581818" y="512.64" style="stroke: #000000; stroke-width: 0.8"/>
      </g>
     </g>
     <g id="text_1">
      <!-- 2024-01-01 -->
      <g transform="translate(155.524006 527.238438) scale(0.1 -0.1)">
       <defs>
        <path id="DejaVuSans-32" d="M 1228 531 
L 3431 531 
L 3431 0 
L 469 0 
L 469 531 
Q 828 903 1448 1529 
Q 2069 2156 2228 2338 
Q 2531 2678 2651 2914 
Q 2772 3150 2772 3378 
Q 2772 3750 2511 3984 
Q 2250 4219 1831 4219 
Q 1534 4219 1204 4116 
Q 875 4013 500 3803 
L 500 4441 
Q 881 4594 1212 4672 
Q 1544 4750 1819 4750 
Q 2544 4750 2975 4387 
Q 3406 4025 3406 3419 
Q 3406 3131 3298 2873 
Q 3191 2616 2906 2266 
Q 2828 2175 2409 1742 
Q 1991 1309 1228 531 
z
" transform="scale(0.015625)"/>
        <path id="DejaVuSans-30" d="M 2034 4250 
Q 1547 4250 1301 3770 
Q 1056 3291 1056 2328 
Q 1056 1369 1301 889 
Q 1547 409 2034 409 
Q 2525 409 2770 889 
Q 3016 1369 3016 2328 
Q 3016 3291 2770 3770 
Q 2525 4250 2034 4250 
z
M 2034 4750 
Q 2819 4750 3233 4129 
Q 3647 3509 3647 2328 
Q 3647 1150 3233 529 
Q 2819 -91 2034 -91 
Q 1250 -91 836 529 
Q 422 1150 422 2328 
Q 422 3509 836 4129 
Q 1250 4750 2034 4750 
z
" transform="scale(0.015625)"/>
        <path id="DejaVuSans-34" d="M 2419 4116 
L 825 1625 
L 2419 1625 
L 2419 4116 
z
M 2253 4666 
L 3047 4666 
L 3047 1625 
L 3713 1625 
L 3713 1100 
L 3047 1100 
L 3047 0 
L 2419 0 
L 2419 1100 
L 313 1100 
L 313 1709 
L 2253 4666 
z
" transform="scale(0.015625)"/>
        <path id="DejaVuSans-2d" d="M 313 2009 
L 1997 2009 
L 1997 1497 
L 313 1497 
L 313 2009 
z
" transform="scale(0.015625)"/>
        <path id="DejaVuSans-31" d="M 794 531 
L 1825 531 
L 1825 4091 
L 703 3866 
L 703 4441 
L 1819 4666 
L 2450 4666 
L 2450 531 
L 3481 531 
L 3481 0 
L 794 0 
L 794 531 
z
" transform="scale(0.015625)"/>
       </defs>
       <use xlink:href="#DejaVuSans-32"/>
       <use xlink:href="#DejaVuSans-30" x="63.623047"/>
       <use xlink:href="#DejaVuSans-32" x="127.246094"/>
       <use xlink:href="#DejaVuSans-34" x="190.869141"/>
       <use xlink:href="#DejaVuSans-2d" x="254.492188"/>
       <use xlink:href="#DejaVuSans-30" x="290.576172"/>
       <use xlink:href="#DejaVuSans-31" x="354.199219"/>
       <use xlink:href="#DejaVuSans-2d" x="417.822266"/>
       <use xlink:href="#DejaVuSans-30" x="453.90625"/>
       <use xlink:href="#DejaVuSans-31" x="517.529297"/>
      </g>
     </g>
    </g>
    <g id="xtick_2">
     <g id="line2d_2">
      <g>
       <use xlink:href="#me360f9dddd" x="279.272727" y="512.64" style="stroke: #000000; stroke-width: 0.8"/>
      </g>
     </g>
     <g id="text_2">
      <!-- 2024-01-08 -->
      <g transform="translate(250.214915 527.238438) scale(0.1 -0.1)">
       <defs>
        <path id="DejaVuSans-38" d="M 2034 2216 
Q 1584 2216 1326 1975 
Q 1069 1734 1069 1313 
Q 1069 891 1326 650 
Q 1584 409 2034 409 
Q 2484 409 2743 651 
Q 3003 894 3003 1313 
Q 3003 1734 2745 1975 
Q 2488 2216 2034 2216 
z
M 1403 2484 
Q 997 2584 770 2862 
Q 544 3141 544 3541 
Q 544 4100 942 4425 
Q 1341 4750 2034 4750 
Q 2731 4750 3128 4425 
Q 3525 4100 3525 3541 
Q 3525 3141 3298 2862 
Q 3072 2584 2669 2484 
Q 3125 2378 3379 2068 
Q 3634 1759 3634 1313 
Q 3634 634 3220 271 
Q 2806 -91 2034 -91 
Q 1263 -91 848 271 
Q 434 634 434 1313 
Q 434 1759 690 2068 
Q 947 2378 1403 2484 
z
M 1172 3481 
Q 1172 3119 1398 2916 
Q 1625 2713 2034 2713 
Q 2441 2713 2670 2916 
Q 2900 3119 2900 3481 
Q 2900 3844 2670 4047 
Q 2441 4250 2034 4250 
Q 1625 4250 1398 4047 
Q 1172 3844 1172 3481 
z
" transform="scale(0.015625)"/>
       </defs>
       <use xlink:href="#DejaVuSans-32"/>
       <use xlink:href="#DejaVuSans-30" x="63.623047"/>
       <use xlink:href="#DejaVuSans-32" x="127.246094"/>
       <use xlink:href="#DejaVuSans-34" x="190.869141"/>
       <use xlink:href="#DejaVuSans-2d" x="254.492188"/>
       <use xlink:href="#DejaVuSans-30" x="290.576172"/>
       <use xlink:href="#DejaVuSans-31" x="354.199219"/>
       <use xlink:href="#DejaVuSans-2d" x="417.822266"/>
       <use xlink:href="#DejaVuSans-30" x="453.90625"/>
       <use xlink:href="#DejaVuSans-38" x="517.529297"/>
      </g>
     </g>
    </g>
    <g id="xtick_3">
     <g id="line2d_3">
      <g>
       <use xlink:href="#me360f9dddd" x="373.963636" y="512.64" style="stroke: #000000; stroke-width: 0.8"/>
      </g>
     </g>
     <g id="text_3">
      <!-- 2024-01-15 -->
      <g transform="translate(344.905824 527.238438) scale(0.1 -0.1)">
       <defs>
        <path id="DejaVuSans-35" d="M 691 4666 
L 3169 4666 
L 3169 4134 
L 1269 4134 
L 1269 2991 
Q 1406 3038 1543 3061 
Q 1681 3084 1819 3084 
Q 2600 3084 3056 2656 
Q 3513 2228 3513 1497 
Q 3513 744 3044 326 
Q 2575 -91 1722 -91 
Q 1428 -91 1123 -41 
Q 819 9 494 109 
L 494 744 
Q 775 591 1075 516 
Q 1375 441 1709 441 
Q 2250 441 2565 725 
Q 2881 1009 2881 1497 
Q 2881 1984 2565 2268 
Q 2250 2553 1709 2553 
Q 1456 2553 1204 2497 
Q 953 2441 691 2322 
L 691 4666 
z
" transform="scale(0.015625)"/>
       </defs>
       <use xlink:href="#DejaVuSans-32"/>
       <use xlink:href="#DejaVuSans-30" x="63.623047"/>
       <use xlink:href="#DejaVuSans-32" x="127.246094"/>
       <use xlink:href="#DejaVuSans-34" x="190.869141"/>
       <use xlink:href="#DejaVuSans-2d" x="254.492188"/>
       <use xlink:href="#DejaVuSans-30" x="290.576172"/>
       <use xlink:href="#DejaVuSans-31" x="354.199219"/>
       <use xlink:href="#DejaVuSans-2d" x="417.822266"/>
       <use xlink:href="#DejaVuSans-31" x="453.90625"/>
       <use xlink:href="#DejaVuSans-35" x="517.529297"/>
      </g>
     </g>
    </g>
    <g id="xtick_4">
     <g id="line2d_4">
      <g>
       <use xlink:href="#me360f9dddd" x="468.654545" y="512.64" style="stroke: #000000; stroke-width: 0.8"/>
      </g>
     </g>
     <g id="text_4">
      <!-- 2024-01-22 -->
      <g transform="translate(439.596733 527.238438) scale(0.1 -0.1)">
       <use xlink:href="#DejaVuSans-32"/>
       <use xlink:href="#DejaVuSans-30" x="63.623047"/>
       <use xlink:href="#DejaVuSans-32" x="127.246094"/>
       <use xlink:href="#DejaVuSans-34" x="190.869141"/>
       <use xlink:href="#DejaVuSans-2d" x="254.492188"/>
       <use xlink:href="#DejaVuSans-30" x="290.576172"/>
       <use xlink:href="#DejaVuSans-31" x="354.199219"/>
       <use xlink:href="#DejaVuSans-2d" x="417.822266"/>
       <use xlink:href="#DejaVuSans-32" x="453.90625"/>
       <use xlink:href="#DejaVuSans-32" x="517.529297"/>
      </g>
     </g>
    </g>
    <g id="xtick_5">
     <g id="line2d_5">
      <g>
       <use xlink:href="#me360f9dddd" x="603.927273" y="512.64" style="stroke: #000000; stroke-width: 0.8"/>
      </g>
     </g>
     <g id="text_5">
      <!-- 2024-02-01 -->
      <g transform="translate(574.86946 527.238438) scale(0.1 -0.1)">
       <use xlink:href="#DejaVuSans-32"/>
       <use xlink:href="#DejaVuSans-30" x="63.623047"/>
       <use xlink:href="#DejaVuSans-32" x="127.246094"/>
       <use xlink:href="#DejaVuSans-34" x="190.869141"/>
       <use xlink:href="#DejaVuSans-2d" x="254.492188"/>
       <use xlink:href="#DejaVuSans-30" x="290.576172"/>
       <use xlink:href="#DejaVuSans-32" x="354.199219"/>
       <use xlink:href="#DejaVuSans-2d" x="417.822266"/>
       <use xlink:href="#DejaVuSans-30" x="453.90625"/>
       <use xlink:href="#DejaVuSans-31" x="517.529297"/>
      </g>
     </g>
    </g>
    <g id="xtick_6">
     <g id="line2d_6">
      <g>
       <use xlink:href="#me360f9dddd" x="698.618182" y="512.64" style="stroke: #000000; stroke-width: 0.8"/>
      </g>
     </g>
     <g id="text_6">
      <!-- 2024-02-08 -->
      <g transform="translate(669.560369 527.238438) scale(0.1 -0.1)">
       <use xlink:href="#DejaVuSans-32"/>
       <use xlink:href="#DejaVuSans-30" x="63.623047"/>
       <use xlink:href="#DejaVuSans-32" x="127.246094"/>
       <use xlink:href="#DejaVuSans-34" x="190.869141"/>
       <use xlink:href="#DejaVuSans-2d" x="254.492188"/>
       <use xlink:href="#DejaVuSans-30" x="290.576172"/>
       <use xlink:href="#DejaVuSans-32" x="354.199219"/>
       <use xlink:href="#DejaVuSans-2d" x="417.822266"/>
       <use xlink:href="#DejaVuSans-30" x="453.90625"/>
       <use xlink:href="#DejaVuSans-38" x="517.529297"/>
      </g>
     </g>
    </g>
    <g id="xtick_7">
     <g id="line2d_7">
      <g>
       <use xlink:href="#me360f9dddd" x="793.309091" y="512.64" style="stroke: #000000; stroke-width: 0.8"/>
      </g>
     </g>
     <g id="text_7">
      <!-- 2024-02-15 -->
      <g transform="translate(764.251278 527.238438) scale(0.1 -0.1)">
       <use xlink:href="#DejaVuSans-32"/>
       <use xlink:href="#DejaVuSans-30" x="63.623047"/>
       <use xlink:href="#DejaVuSans-32" x="127.246094"/>
       <use xlink:href="#DejaVuSans-34" x="190.869141"/>
       <use xlink:href="#DejaVuSans-2d" x="254.492188"/>
       <use xlink:href="#DejaVuSans-30" x="290.576172"/>
       <use xlink:href="#DejaVuSans-32" x="354.199219"/>
       <use xlink:href="#DejaVuSans-2d" x="417.822266"/>
       <use xlink:href="#DejaVuSans-31" x="453.90625"/>
       <use xlink:href="#DejaVuSans-35" x="517.529297"/>
      </g>
     </g>
    </g>
    <g id="xtick_8">
     <g id="line2d_8">
      <g>
       <use xlink:href="#me360f9dddd" x="888" y="512.64" style="stroke: #000000; stroke-width: 0.8"/>
      </g>
     </g>
     <g id="text_8">
      <!-- 2024-02-22 -->
      <g transform="translate(858.942188 527.238438) scale(0.1 -0.1)">
       <use xlink:href="#DejaVuSans-32"/>
       <use xlink:href="#DejaVuSans-30" x="63.623047"/>
       <use xlink:href="#DejaVuSans-32" x="127.246094"/>
       <use xlink:href="#DejaVuSans-34" x="190.869141"/>
       <use xlink:href="#DejaVuSans-2d" x="254.492188"/>
       <use xlink:href="#DejaVuSans-30" x="290.576172"/>
       <use xlink:href="#DejaVuSans-32" x="354.199219"/>
       <use xlink:href="#DejaVuSans-2d" x="417.822266"/>
       <use xlink:href="#DejaVuSans-32" x="453.90625"/>
       <use xlink:href="#DejaVuSans-32" x="517.529297"/>
      </g>
     </g>
    </g>
    <g id="xtick_9">
     <g id="line2d_9">
      <g>
       <use xlink:href="#me360f9dddd" x="996.218182" y="512.64" style="stroke: #000000; stroke-width: 0.8"/>
      </g>
     </g>
     <g id="text_9">
      <!-- 2024-03-01 -->
      <g transform="translate(967.160369 527.238438) scale(0.1 -0.1)">
       <defs>
        <path id="DejaVuSans-33" d="M 2597 2516 
Q 3050 2419 3304 2112 
Q 3559 1806 3559 1356 
Q 3559 666 3084 287 
Q 2609 -91 1734 -91 
Q 1441 -91 1130 -33 
Q 819 25 488 141 
L 488 750 
Q 750 597 1062 519 
Q 1375 441 1716 441 
Q 2309 441 2620 675 
Q 2931 909 2931 1356 
Q 2931 1769 2642 2001 
Q 2353 2234 1838 2234 
L 1294 2234 
L 1294 2753 
L 1863 2753 
Q 2328 2753 2575 2939 
Q 2822 3125 2822 3475 
Q 2822 3834 2567 4026 
Q 2313 4219 1838 4219 
Q 1578 4219 1281 4162 
Q 984 4106 628 3988 
L 628 4550 
Q 988 4650 1302 4700 
Q 1616 4750 1894 4750 
Q 2613 4750 3031 4423 
Q 3450 4097 3450 3541 
Q 3450 3153 3228 2886 
Q 3006 2619 2597 2516 
z
" transform="scale(0.015625)"/>
       </defs>
       <use xlink:href="#DejaVuSans-32"/>
       <use xlink:href="#DejaVuSans-30" x="63.623047"/>
       <use xlink:href="#DejaVuSans-32" x="127.246094"/>
       <use xlink:href="#DejaVuSans-34" x="190.869141"/>
       <use xlink:href="#DejaVuSans-2d" x="254.492188"/>
       <use xlink:href="#DejaVuSans-30" x="290.576172"/>
       <use xlink:href="#DejaVuSans-33" x="354.199219"/>
       <use xlink:href="#DejaVuSans-2d" x="417.822266"/>
       <use xlink:href="#DejaVuSans-30" x="453.90625"/>
       <use xlink:href="#DejaVuSans-31" x="517.529297"/>
      </g>
     </g>
    </g>
   </g>
   <g id="matplotlib.axis_2">
    <g id="ytick_1">
     <g id="line2d_10">
      <defs>
       <path id="m2b815e652c" d="M 0 0 
L -3.5 0 
" style="stroke: #000000; stroke-width: 0.8"/>
      </defs>
      <g>
       <use xlink:href="#m2b815e652c" x="144" y="495.293023" style="stroke: #000000; stroke-width: 0.8"/>
      </g>
     </g>
     <g id="text_10">
      <!-- 6300 -->
      <g transform="translate(111.55 499.092242) scale(0.1 -0.1)">
       <defs>
        <path id="DejaVuSans-36" d="M 2113 2584 
Q 1688 2584 1439 2293 
Q 1191 2003 1191 1497 
Q 1191 994 1439 701 
Q 1688 409 2113 409 
Q 2538 409 2786 701 
Q 3034 994 3034 1497 
Q 3034 2003 2786 2293 
Q 2538 2584 2113 2584 
z
M 3366 4563 
L 3366 3988 
Q 3128 4100 2886 4159 
Q 2644 4219 2406 4219 
Q 1781 4219 1451 3797 
Q 1122 3375 1075 2522 
Q 1259 2794 1537 2939 
Q 1816 3084 2150 3084 
Q 2853 3084 3261 2657 
Q 3669 2231 3669 1497 
Q 3669 778 3244 343 
Q 2819 -91 2113 -91 
Q 1303 -91 875 529 
Q 447 1150 447 2328 
Q 447 3434 972 4092 
Q 1497 4750 2381 4750 
Q 2619 4750 2861 4703 
Q 3103 4656 3366 4563 
z
" transform="scale(0.015625)"/>
       </defs>
       <use xlink:href="#DejaVuSans-36"/>
       <use xlink:href="#DejaVuSans-33" x="63.623047"/>
       <use xlink:href="#DejaVuSans-30" x="127.246094"/>
       <use xlink:href="#DejaVuSans-30" x="190.869141"/>
      </g>
     </g>
    </g>
    <g id="ytick_2">
     <g id="line2d_11">
      <g>
       <use xlink:href="#m2b815e652c" x="144" y="401.525581" style="stroke: #000000; stroke-width: 0.8"/>
      </g>
     </g>
     <g id="text_11">
      <!-- 6400 -->
      <g transform="translate(111.55 405.3248) scale(0.1 -0.1)">
       <use xlink:href="#DejaVuSans-36"/>
       <use xlink:href="#DejaVuSans-34" x="63.623047"/>
       <use xlink:href="#DejaVuSans-30" x="127.246094"/>
       <use xlink:href="#DejaVuSans-30" x="190.869141"/>
      </g>
     </g>
    </g>
    <g id="ytick_3">
     <g id="line2d_12">
      <g>
       <use xlink:href="#m2b815e652c" x="144" y="307.75814" style="stroke: #000000; stroke-width: 0.8"/>
      </g>
     </g>
     <g id="text_12">
      <!-- 6500 -->
      <g transform="translate(111.55 311.557358) scale(0.1 -0.1)">
       <use xlink:href="#DejaVuSans-36"/>
       <use xlink:href="#DejaVuSans-35" x="63.623047"/>
       <use xlink:href="#DejaVuSans-30" x="127.246094"/>
       <use xlink:href="#DejaVuSans-30" x="190.869141"/>
      </g>
     </g>
    </g>
    <g id="ytick_4">
     <g id="line2d_13">
      <g>
       <use xlink:href="#m2b815e652c" x="144" y="213.990698" style="stroke: #000000; stroke-width: 0.8"/>
      </g>
     </g>
     <g id="text_13">
      <!-- 6600 -->
      <g transform="translate(111.55 217.789916) scale(0.1 -0.1)">
       <use xlink:href="#DejaVuSans-36"/>
       <use xlink:href="#DejaVuSans-36" x="63.623047"/>
       <use xlink:href="#DejaVuSans-30" x="127.246094"/>
       <use xlink:href="#DejaVuSans-30" x="190.869141"/>
      </g>
     </g>
    </g>
    <g id="ytick_5">
     <g id="line2d_14">
      <g>
       <use xlink:href="#m2b815e652c" x="144" y="120.223256" style="stroke: #000000; stroke-width: 0.8"/>
      </g>
     </g>
     <g id="text_14">
      <!-- 6700 -->
      <g transform="translate(111.55 124.022475) scale(0.1 -0.1)">
       <defs>
        <path id="DejaVuSans-37" d="M 525 4666 
L 3525 4666 
L 3525 4397 
L 1831 0 
L 1172 0 
L 2766 4134 
L 525 4134 
L 525 4666 
z
" transform="scale(0.015625)"/>
       </defs>
       <use xlink:href="#DejaVuSans-36"/>
       <use xlink:href="#DejaVuSans-37" x="63.623047"/>
       <use xlink:href="#DejaVuSans-30" x="127.246094"/>
       <use xlink:href="#DejaVuSans-30" x="190.869141"/>
      </g>
     </g>
    </g>
   </g>
   <g id="line2d_15">
    <path d="M 184.581818 492.48 
L 198.109091 473.726512 
L 211.636364 449.346977 
L 225.163636 448.409302 
L 238.690909 439.032558 
L 265.745455 434.344186 
L 279.272727 430.593488 
L 292.8 427.780465 
L 306.327273 424.029767 
L 319.854545 418.403721 
L 333.381818 403.40093 
L 346.909091 400.587907 
L 360.436364 397.774884 
L 373.963636 383.709767 
L 387.490909 379.95907 
L 401.018182 368.706977 
L 414.545455 364.018605 
L 428.072727 358.392558 
L 441.6 355.579535 
L 455.127273 352.766512 
L 468.654545 348.07814 
L 482.181818 343.389767 
L 495.709091 339.63907 
L 509.236364 337.763721 
L 522.763636 331.2 
L 536.290909 329.324651 
L 563.345455 319.947907 
L 576.872727 319.010233 
L 590.4 313.384186 
L 603.927273 299.31907 
L 617.454545 285.253953 
L 630.981818 282.44093 
L 658.036364 278.690233 
L 671.563636 262.749767 
L 685.090909 261.812093 
L 698.618182 258.061395 
L 712.145455 255.248372 
L 725.672727 252.435349 
L 739.2 235.557209 
L 752.727273 232.744186 
L 766.254545 228.993488 
L 779.781818 225.242791 
L 793.309091 219.616744 
L 806.836364 200.863256 
L 820.363636 196.174884 
L 833.890909 193.36186 
L 847.418182 183.985116 
L 860.945455 180.234419 
L 874.472727 179.296744 
L 888 154.917209 
L 901.527273 150.228837 
L 915.054545 141.789767 
L 928.581818 139.914419 
L 942.109091 137.101395 
L 955.636364 123.036279 
L 969.163636 121.16093 
L 982.690909 117.410233 
L 996.218182 89.28 
" clip-path="url(#p280fedc18b)" style="fill: none; stroke: #1f77b4; stroke-width: 1.5; stroke-linecap: square"/>
   </g>
   <g id="patch_3">
    <path d="M 144 512.64 
L 144 69.12 
" style="fill: none; stroke: #000000; stroke-width: 0.8; stroke-linejoin: miter; stroke-linecap: square"/>
   </g>
   <g id="patch_4">
    <path d="M 1036.8 512.64 
L 1036.8 69.12 
" style="fill: none; stroke: #000000; stroke-width: 0.8; stroke-linejoin: miter; stroke-linecap: square"/>
   </g>
   <g id="patch_5">
    <path d="M 144 512.64 
L 1036.8 512.64 
" style="fill: none; stroke: #000000; stroke-width: 0.8; stroke-linejoin: miter; stroke-linecap: square"/>
   </g>
   <g id="patch_6">
    <path d="M 144 69.12 
L 1036.8 69.12 
" style="fill: none; stroke: #000000; stroke-width: 0.8; stroke-linejoin: miter; stroke-linecap: square"/>
   </g>
   <g id="text_15">
    <!-- Number of AEDs in the OpenStreetMap database in Poland from 2024-01-01, day by day. As at: 2024-03-01 -->
    <g transform="translate(144 63.12) scale(0.14 -0.14)">
     <defs>
      <path id="DejaVuSans-4e" d="M 628 4666 
L 1478 4666 
L 3547 763 
L 3547 4666 
L 4159 4666 
L 4159 0 
L 3309 0 
L 1241 3903 
L 1241 0 
L 628 0 
L 628 4666 
z
" transform="scale(0.015625)"/>
      <path id="DejaVuSans-75" d="M 544 1381 
L 544 3500 
L 1119 3500 
L 1119 1403 
Q 1119 906 1312 657 
Q 1506 409 1894 409 
Q 2359 409 2629 706 
Q 2900 1003 2900 1516 
L 2900 3500 
L 3475 3500 
L 3475 0 
L 2900 0 
L 2900 538 
Q 2691 219 2414 64 
Q 2138 -91 1772 -91 
Q 1169 -91 856 284 
Q 544 659 544 1381 
z
M 1991 3584 
L 1991 3584 
z
" transform="scale(0.015625)"/>
      <path id="DejaVuSans-6d" d="M 3328 2828 
Q 3544 3216 3844 3400 
Q 4144 3584 4550 3584 
Q 5097 3584 5394 3201 
Q 5691 2819 5691 2113 
L 5691 0 
L 5113 0 
L 5113 2094 
Q 5113 2597 4934 2840 
Q 4756 3084 4391 3084 
Q 3944 3084 3684 2787 
Q 3425 2491 3425 1978 
L 3425 0 
L 2847 0 
L 2847 2094 
Q 2847 2600 2669 2842 
Q 2491 3084 2119 3084 
Q 1678 3084 1418 2786 
Q 1159 2488 1159 1978 
L 1159 0 
L 581 0 
L 581 3500 
L 1159 3500 
L 1159 2956 
Q 1356 3278 1631 3431 
Q 1906 3584 2284 3584 
Q 2666 3584 2933 3390 
Q 3200 3197 3328 2828 
z
" transform="scale(0.015625)"/>
      <path id="DejaVuSans-62" d="M 3116 1747 
Q 3116 2381 2855 2742 
Q 2594 3103 2138 3103 
Q 1681 3103 1420 2742 
Q 1159 2381 1159 1747 
Q 1159 1113 1420 752 
Q 1681 391 2138 391 
Q 2594 391 2855 752 
Q 3116 1113 3116 1747 
z
M 1159 2969 
Q 1341 3281 1617 3432 
Q 1894 3584 2278 3584 
Q 2916 3584 3314 3078 
Q 3713 2572 3713 1747 
Q 3713 922 3314 415 
Q 2916 -91 2278 -91 
Q 1894 -91 1617 61 
Q 1341 213 1159 525 
L 1159 0 
L 581 0 
L 581 4863 
L 1159 4863 
L 1159 2969 
z
" transform="scale(0.015625)"/>
      <path id="DejaVuSans-65" d="M 3597 1894 
L 3597 1613 
L 953 1613 
Q 991 1019 1311 708 
Q 1631 397 2203 397 
Q 2534 397 2845 478 
Q 3156 559 3463 722 
L 3463 178 
Q 3153 47 2828 -22 
Q 2503 -91 2169 -91 
Q 1331 -91 842 396 
Q 353 884 353 1716 
Q 353 2575 817 3079 
Q 1281 3584 2069 3584 
Q 2775 3584 3186 3129 
Q 3597 2675 3597 1894 
z
M 3022 2063 
Q 3016 2534 2758 2815 
Q 2500 3097 2075 3097 
Q 1594 3097 1305 2825 
Q 1016 2553 972 2059 
L 3022 2063 
z
" transform="scale(0.015625)"/>
      <path id="DejaVuSans-72" d="M 2631 2963 
Q 2534 3019 2420 3045 
Q 2306 3072 2169 3072 
Q 1681 3072 1420 2755 
Q 1159 2438 1159 1844 
L 1159 0 
L 581 0 
L 581 3500 
L 1159 3500 
L 1159 2956 
Q 1341 3275 1631 3429 
Q 1922 3584 2338 3584 
Q 2397 3584 2469 3576 
Q 2541 3569 2628 3553 
L 2631 2963 
z
" transform="scale(0.015625)"/>
      <path id="DejaVuSans-20" transform="scale(0.015625)"/>
      <path id="DejaVuSans-6f" d="M 1959 3097 
Q 1497 3097 1228 2736 
Q 959 2375 959 1747 
Q 959 1119 1226 758 
Q 1494 397 1959 397 
Q 2419 397 2687 759 
Q 2956 1122 2956 1747 
Q 2956 2369 2687 2733 
Q 2419 3097 1959 3097 
z
M 1959 3584 
Q 2709 3584 3137 3096 
Q 3566 2609 3566 1747 
Q 3566 888 3137 398 
Q 2709 -91 1959 -91 
Q 1206 -91 779 398 
Q 353 888 353 1747 
Q 353 2609 779 3096 
Q 1206 3584 1959 3584 
z
" transform="scale(0.015625)"/>
      <path id="DejaVuSans-66" d="M 2375 4863 
L 2375 4384 
L 1825 4384 
Q 1516 4384 1395 4259 
Q 1275 4134 1275 3809 
L 1275 3500 
L 2222 3500 
L 2222 3053 
L 1275 3053 
L 1275 0 
L 697 0 
L 697 3053 
L 147 3053 
L 147 3500 
L 697 3500 
L 697 3744 
Q 697 4328 969 4595 
Q 1241 4863 1831 4863 
L 2375 4863 
z
" transform="scale(0.015625)"/>
      <path id="DejaVuSans-41" d="M 2188 4044 
L 1331 1722 
L 3047 1722 
L 2188 4044 
z
M 1831 4666 
L 2547 4666 
L 4325 0 
L 3669 0 
L 3244 1197 
L 1141 1197 
L 716 0 
L 50 0 
L 1831 4666 
z
" transform="scale(0.015625)"/>
      <path id="DejaVuSans-45" d="M 628 4666 
L 3578 4666 
L 3578 4134 
L 1259 4134 
L 1259 2753 
L 3481 2753 
L 3481 2222 
L 1259 2222 
L 1259 531 
L 3634 531 
L 3634 0 
L 628 0 
L 628 4666 
z
" transform="scale(0.015625)"/>
      <path id="DejaVuSans-44" d="M 1259 4147 
L 1259 519 
L 2022 519 
Q 2988 519 3436 956 
Q 3884 1394 3884 2338 
Q 3884 3275 3436 3711 
Q 2988 4147 2022 4147 
L 1259 4147 
z
M 628 4666 
L 1925 4666 
Q 3281 4666 3915 4102 
Q 4550 3538 4550 2338 
Q 4550 1131 3912 565 
Q 3275 0 1925 0 
L 628 0 
L 628 4666 
z
" transform="scale(0.015625)"/>
      <path id="DejaVuSans-73" d="M 2834 3397 
L 2834 2853 
Q 2591 2978 2328 3040 
Q 2066 3103 1784 3103 
Q 1356 3103 1142 2972 
Q 928 2841 928 2578 
Q 928 2378 1081 2264 
Q 1234 2150 1697 2047 
L 1894 2003 
Q 2506 1872 2764 1633 
Q 3022 1394 3022 966 
Q 3022 478 2636 193 
Q 2250 -91 1575 -91 
Q 1294 -91 989 -36 
Q 684 19 347 128 
L 347 722 
Q 666 556 975 473 
Q 1284 391 1588 391 
Q 1994 391 2212 530 
Q 2431 669 2431 922 
Q 2431 1156 2273 1281 
Q 2116 1406 1581 1522 
L 1381 1569 
Q 847 1681 609 1914 
Q 372 2147 372 2553 
Q 372 3047 722 3315 
Q 1072 3584 1716 3584 
Q 2034 3584 2315 3537 
Q 2597 3491 2834 3397 
z
" transform="scale(0.015625)"/>
      <path id="DejaVuSans-69" d="M 603 3500 
L 1178 3500 
L 1178 0 
L 603 0 
L 603 3500 
z
M 603 4863 
L 1178 4863 
L 1178 4134 
L 603 4134 
L 603 4863 
z
" transform="scale(0.015625)"/>
      <path id="DejaVuSans-6e" d="M 3513 2113 
L 3513 0 
L 2938 0 
L 2938 2094 
Q 2938 2591 2744 2837 
Q 2550 3084 2163 3084 
Q 1697 3084 1428 2787 
Q 1159 2491 1159 1978 
L 1159 0 
L 581 0 
L 581 3500 
L 1159 3500 
L 1159 2956 
Q 1366 3272 1645 3428 
Q 1925 3584 2291 3584 
Q 2894 3584 3203 3211 
Q 3513 2838 3513 2113 
z
" transform="scale(0.015625)"/>
      <path id="DejaVuSans-74" d="M 1172 4494 
L 1172 3500 
L 2356 3500 
L 2356 3053 
L 1172 3053 
L 1172 1153 
Q 1172 725 1289 603 
Q 1406 481 1766 481 
L 2356 481 
L 2356 0 
L 1766 0 
Q 1100 0 847 248 
Q 594 497 594 1153 
L 594 3053 
L 172 3053 
L 172 3500 
L 594 3500 
L 594 4494 
L 1172 4494 
z
" transform="scale(0.015625)"/>
      <path id="DejaVuSans-68" d="M 3513 2113 
L 3513 0 
L 2938 0 
L 2938 2094 
Q 2938 2591 2744 2837 
Q 2550 3084 2163 3084 
Q 1697 3084 1428 2787 
Q 1159 2491 1159 1978 
L 1159 0 
L 581 0 
L 581 4863 
L 1159 4863 
L 1159 2956 
Q 1366 3272 1645 3428 
Q 1925 3584 2291 3584 
Q 2894 3584 3203 3211 
Q 3513 2838 3513 2113 
z
" transform="scale(0.015625)"/>
      <path id="DejaVuSans-4f" d="M 2522 4238 
Q 1834 4238 1429 3725 
Q 1025 3213 1025 2328 
Q 1025 1447 1429 934 
Q 1834 422 2522 422 
Q 3209 422 3611 934 
Q 4013 1447 4013 2328 
Q 4013 3213 3611 3725 
Q 3209 4238 2522 4238 
z
M 2522 4750 
Q 3503 4750 4090 4092 
Q 4678 3434 4678 2328 
Q 4678 1225 4090 567 
Q 3503 -91 2522 -91 
Q 1538 -91 948 565 
Q 359 1222 359 2328 
Q 359 3434 948 4092 
Q 1538 4750 2522 4750 
z
" transform="scale(0.015625)"/>
      <path id="DejaVuSans-70" d="M 1159 525 
L 1159 -1331 
L 581 -1331 
L 581 3500 
L 1159 3500 
L 1159 2969 
Q 1341 3281 1617 3432 
Q 1894 3584 2278 3584 
Q 2916 3584 3314 3078 
Q 3713 2572 3713 1747 
Q 3713 922 3314 415 
Q 2916 -91 2278 -91 
Q 1894 -91 1617 61 
Q 1341 213 1159 525 
z
M 3116 1747 
Q 3116 2381 2855 2742 
Q 2594 3103 2138 3103 
Q 1681 3103 1420 2742 
Q 1159 2381 1159 1747 
Q 1159 1113 1420 752 
Q 1681 391 2138 391 
Q 2594 391 2855 752 
Q 3116 1113 3116 1747 
z
" transform="scale(0.015625)"/>
      <path id="DejaVuSans-53" d="M 3425 4513 
L 3425 3897 
Q 3066 4069 2747 4153 
Q 2428 4238 2131 4238 
Q 1616 4238 1336 4038 
Q 1056 3838 1056 3469 
Q 1056 3159 1242 3001 
Q 1428 2844 1947 2747 
L 2328 2669 
Q 3034 2534 3370 2195 
Q 3706 1856 3706 1288 
Q 3706 609 3251 259 
Q 2797 -91 1919 -91 
Q 1588 -91 1214 -16 
Q 841 59 441 206 
L 441 856 
Q 825 641 1194 531 
Q 1563 422 1919 422 
Q 2459 422 2753 634 
Q 3047 847 3047 1241 
Q 3047 1584 2836 1778 
Q 2625 1972 2144 2069 
L 1759 2144 
Q 1053 2284 737 2584 
Q 422 2884 422 3419 
Q 422 4038 858 4394 
Q 1294 4750 2059 4750 
Q 2388 4750 2728 4690 
Q 3069 4631 3425 4513 
z
" transform="scale(0.015625)"/>
      <path id="DejaVuSans-4d" d="M 628 4666 
L 1569 4666 
L 2759 1491 
L 3956 4666 
L 4897 4666 
L 4897 0 
L 4281 0 
L 4281 4097 
L 3078 897 
L 2444 897 
L 1241 4097 
L 1241 0 
L 628 0 
L 628 4666 
z
" transform="scale(0.015625)"/>
      <path id="DejaVuSans-61" d="M 2194 1759 
Q 1497 1759 1228 1600 
Q 959 1441 959 1056 
Q 959 750 1161 570 
Q 1363 391 1709 391 
Q 2188 391 2477 730 
Q 2766 1069 2766 1631 
L 2766 1759 
L 2194 1759 
z
M 3341 1997 
L 3341 0 
L 2766 0 
L 2766 531 
Q 2569 213 2275 61 
Q 1981 -91 1556 -91 
Q 1019 -91 701 211 
Q 384 513 384 1019 
Q 384 1609 779 1909 
Q 1175 2209 1959 2209 
L 2766 2209 
L 2766 2266 
Q 2766 2663 2505 2880 
Q 2244 3097 1772 3097 
Q 1472 3097 1187 3025 
Q 903 2953 641 2809 
L 641 3341 
Q 956 3463 1253 3523 
Q 1550 3584 1831 3584 
Q 2591 3584 2966 3190 
Q 3341 2797 3341 1997 
z
" transform="scale(0.015625)"/>
      <path id="DejaVuSans-64" d="M 2906 2969 
L 2906 4863 
L 3481 4863 
L 3481 0 
L 2906 0 
L 2906 525 
Q 2725 213 2448 61 
Q 2172 -91 1784 -91 
Q 1150 -91 751 415 
Q 353 922 353 1747 
Q 353 2572 751 3078 
Q 1150 3584 1784 3584 
Q 2172 3584 2448 3432 
Q 2725 3281 2906 2969 
z
M 947 1747 
Q 947 1113 1208 752 
Q 1469 391 1925 391 
Q 2381 391 2643 752 
Q 2906 1113 2906 1747 
Q 2906 2381 2643 2742 
Q 2381 3103 1925 3103 
Q 1469 3103 1208 2742 
Q 947 2381 947 1747 
z
" transform="scale(0.015625)"/>
      <path id="DejaVuSans-50" d="M 1259 4147 
L 1259 2394 
L 2053 2394 
Q 2494 2394 2734 2622 
Q 2975 2850 2975 3272 
Q 2975 3691 2734 3919 
Q 2494 4147 2053 4147 
L 1259 4147 
z
M 628 4666 
L 2053 4666 
Q 2838 4666 3239 4311 
Q 3641 3956 3641 3272 
Q 3641 2581 3239 2228 
Q 2838 1875 2053 1875 
L 1259 1875 
L 1259 0 
L 628 0 
L 628 4666 
z
" transform="scale(0.015625)"/>
      <path id="DejaVuSans-6c" d="M 603 4863 
L 1178 4863 
L 1178 0 
L 603 0 
L 603 4863 
z
" transform="scale(0.015625)"/>
      <path id="DejaVuSans-2c" d="M 750 794 
L 1409 794 
L 1409 256 
L 897 -744 
L 494 -744 
L 750 256 
L 750 794 
z
" transform="scale(0.015625)"/>
      <path id="DejaVuSans-79" d="M 2059 -325 
Q 1816 -950 1584 -1140 
Q 1353 -1331 966 -1331 
L 506 -1331 
L 506 -850 
L 844 -850 
Q 1081 -850 1212 -737 
Q 1344 -625 1503 -206 
L 1606 56 
L 191 3500 
L 800 3500 
L 1894 763 
L 2988 3500 
L 3597 3500 
L 2059 -325 
z
" transform="scale(0.015625)"/>
      <path id="DejaVuSans-2e" d="M 684 794 
L 1344 794 
L 1344 0 
L 684 0 
L 684 794 
z
" transform="scale(0.015625)"/>
      <path id="DejaVuSans-3a" d="M 750 794 
L 1409 794 
L 1409 0 
L 750 0 
L 750 794 
z
M 750 3309 
L 1409 3309 
L 1409 2516 
L 750 2516 
L 750 3309 
z
" transform="scale(0.015625)"/>
     </defs>
     <use xlink:href="#DejaVuSans-4e"/>
     <use xlink:href="#DejaVuSans-75" x="74.804688"/>
     <use xlink:href="#DejaVuSans-6d" x="138.183594"/>
     <use xlink:href="#DejaVuSans-62" x="235.595703"/>
     <use xlink:href="#DejaVuSans-65" x="299.072266"/>
     <use xlink:href="#DejaVuSans-72" x="360.595703"/>
     <use xlink:href="#DejaVuSans-20" x="401.708984"/>
     <use xlink:href="#DejaVuSans-6f" x="433.496094"/>
     <use xlink:href="#DejaVuSans-66" x="494.677734"/>
     <use xlink:href="#DejaVuSans-20" x="529.882812"/>
     <use xlink:href="#DejaVuSans-41" x="561.669922"/>
     <use xlink:href="#DejaVuSans-45" x="630.078125"/>
     <use xlink:href="#DejaVuSans-44" x="693.261719"/>
     <use xlink:href="#DejaVuSans-73" x="770.263672"/>
     <use xlink:href="#DejaVuSans-20" x="822.363281"/>
     <use xlink:href="#DejaVuSans-69" x="854.150391"/>
     <use xlink:href="#DejaVuSans-6e" x="881.933594"/>
     <use xlink:href="#DejaVuSans-20" x="945.3125"/>
     <use xlink:href="#DejaVuSans-74" x="977.099609"/>
     <use xlink:href="#DejaVuSans-68" x="1016.308594"/>
     <use xlink:href="#DejaVuSans-65" x="1079.6875"/>
     <use xlink:href="#DejaVuSans-20" x="1141.210938"/>
     <use xlink:href="#DejaVuSans-4f" x="1172.998047"/>
     <use xlink:href="#DejaVuSans-70" x="1251.708984"/>
     <use xlink:href="#DejaVuSans-65" x="1315.185547"/>
     <use xlink:href="#DejaVuSans-6e" x="1376.708984"/>
     <use xlink:href="#DejaVuSans-53" x="1440.087891"/>
     <use xlink:href="#DejaVuSans-74" x="1503.564453"/>
     <use xlink:href="#DejaVuSans-72" x="1542.773438"/>
     <use xlink:href="#DejaVuSans-65" x="1581.636719"/>
     <use xlink:href="#DejaVuSans-65" x="1643.160156"/>
     <use xlink:href="#DejaVuSans-74" x="1704.683594"/>
     <use xlink:href="#DejaVuSans-4d" x="1743.892578"/>
     <use xlink:href="#DejaVuSans-61" x="1830.171875"/>
     <use xlink:href="#DejaVuSans-70" x="1891.451172"/>
     <use xlink:href="#DejaVuSans-20" x="1954.927734"/>
     <use xlink:href="#DejaVuSans-64" x="1986.714844"/>
     <use xlink:href="#DejaVuSans-61" x="2050.191406"/>
     <use xlink:href="#DejaVuSans-74" x="2111.470703"/>
     <use xlink:href="#DejaVuSans-61" x="2150.679688"/>
     <use xlink:href="#DejaVuSans-62" x="2211.958984"/>
     <use xlink:href="#DejaVuSans-61" x="2275.435547"/>
     <use xlink:href="#DejaVuSans-73" x="2336.714844"/>
     <use xlink:href="#DejaVuSans-65" x="2388.814453"/>
     <use xlink:href="#DejaVuSans-20" x="2450.337891"/>
     <use xlink:href="#DejaVuSans-69" x="2482.125"/>
     <use xlink:href="#DejaVuSans-6e" x="2509.908203"/>
     <use xlink:href="#DejaVuSans-20" x="2573.287109"/>
     <use xlink:href="#DejaVuSans-50" x="2605.074219"/>
     <use xlink:href="#DejaVuSans-6f" x="2661.751953"/>
     <use xlink:href="#DejaVuSans-6c" x="2722.933594"/>
     <use xlink:href="#DejaVuSans-61" x="2750.716797"/>
     <use xlink:href="#DejaVuSans-6e" x="2811.996094"/>
     <use xlink:href="#DejaVuSans-64" x="2875.375"/>
     <use xlink:href="#DejaVuSans-20" x="2938.851562"/>
     <use xlink:href="#DejaVuSans-66" x="2970.638672"/>
     <use xlink:href="#DejaVuSans-72" x="3005.84375"/>
     <use xlink:href="#DejaVuSans-6f" x="3044.707031"/>
     <use xlink:href="#DejaVuSans-6d" x="3105.888672"/>
     <use xlink:href="#DejaVuSans-20" x="3203.300781"/>
     <use xlink:href="#DejaVuSans-32" x="3235.087891"/>
     <use xlink:href="#DejaVuSans-30" x="3298.710938"/>
     <use xlink:href="#DejaVuSans-32" x="3362.333984"/>
     <use xlink:href="#DejaVuSans-34" x="3425.957031"/>
     <use xlink:href="#DejaVuSans-2d" x="3489.580078"/>
     <use xlink:href="#DejaVuSans-30" x="3525.664062"/>
     <use xlink:href="#DejaVuSans-31" x="3589.287109"/>
     <use xlink:href="#DejaVuSans-2d" x="3652.910156"/>
     <use xlink:href="#DejaVuSans-30" x="3688.994141"/>
     <use xlink:href="#DejaVuSans-31" x="3752.617188"/>
     <use xlink:href="#DejaVuSans-2c" x="3816.240234"/>
     <use xlink:href="#DejaVuSans-20" x="3848.027344"/>
     <use xlink:href="#DejaVuSans-64" x="3879.814453"/>
     <use xlink:href="#DejaVuSans-61" x="3943.291016"/>
     <use xlink:href="#DejaVuSans-79" x="4004.570312"/>
     <use xlink:href="#DejaVuSans-20" x="4063.75"/>
     <use xlink:href="#DejaVuSans-62" x="4095.537109"/>
     <use xlink:href="#DejaVuSans-79" x="4159.013672"/>
     <use xlink:href="#DejaVuSans-20" x="4218.193359"/>
     <use xlink:href="#DejaVuSans-64" x="4249.980469"/>
     <use xlink:href="#DejaVuSans-61" x="4313.457031"/>
     <use xlink:href="#DejaVuSans-79" x="4374.736328"/>
     <use xlink:href="#DejaVuSans-2e" x="4419.666016"/>
     <use xlink:href="#DejaVuSans-20" x="4451.453125"/>
     <use xlink:href="#DejaVuSans-41" x="4483.240234"/>
     <use xlink:href="#DejaVuSans-73" x="4551.648438"/>
     <use xlink:href="#DejaVuSans-20" x="4603.748047"/>
     <use xlink:href="#DejaVuSans-61" x="4635.535156"/>
     <use xlink:href="#DejaVuSans-74" x="4696.814453"/>
     <use xlink:href="#DejaVuSans-3a" x="4736.023438"/>
     <use xlink:href="#DejaVuSans-20" x="4769.714844"/>
     <use xlink:href="#DejaVuSans-32" x="4801.501953"/>
     <use xlink:href="#DejaVuSans-30" x="4865.125"/>
     <use xlink:href="#DejaVuSans-32" x="4928.748047"/>
     <use xlink:href="#DejaVuSans-34" x="4992.371094"/>
     <use xlink:href="#DejaVuSans-2d" x="5055.994141"/>
     <use xlink:href="#DejaVuSans-30" x="5092.078125"/>
     <use xlink:href="#DejaVuSans-33" x="5155.701172"/>
     <use xlink:href="#DejaVuSans-2d" x="5219.324219"/>
     <use xlink:href="#DejaVuSans-30" x="5255.408203"/>
     <use xlink:href="#DejaVuSans-31" x="5319.03125"/>
    </g>
   </g>
  </g>
 </g>
 <defs>
  <clipPath id="p280fedc18b">
   <rect x="144" y="69.12" width="892.8" height="443.52"/>
  </clipPath>
 </defs>
</svg>
