<?xml version="1.0" encoding="utf-8" standalone="no"?>
<!DOCTYPE svg PUBLIC "-//W3C//DTD SVG 1.1//EN"
  "http://www.w3.org/Graphics/SVG/1.1/DTD/svg11.dtd">
<svg xmlns:xlink="http://www.w3.org/1999/xlink" width="1152pt" height="576pt" viewBox="0 0 1152 576" xmlns="http://www.w3.org/2000/svg" version="1.1">
 <metadata>
  <rdf:RDF xmlns:dc="http://purl.org/dc/elements/1.1/" xmlns:cc="http://creativecommons.org/ns#" xmlns:rdf="http://www.w3.org/1999/02/22-rdf-syntax-ns#">
   <cc:Work>
    <dc:type rdf:resource="http://purl.org/dc/dcmitype/StillImage"/>
    <dc:date>1980-01-01T00:00:00+00:00</dc:date>
    <dc:format>image/svg+xml</dc:format>
    <dc:creator>
     <cc:Agent>
      <dc:title>Matplotlib v3.9.1, https://matplotlib.org/</dc:title>
     </cc:Agent>
    </dc:creator>
   </cc:Work>
  </rdf:RDF>
 </metadata>
 <defs>
  <style type="text/css">*{stroke-linejoin: round; stroke-linecap: butt}</style>
 </defs>
 <g id="figure_1">
  <g id="patch_1">
   <path d="M 0 576 
L 1152 576 
L 1152 0 
L 0 0 
z
" style="fill: #ffffff"/>
  </g>
  <g id="axes_1">
   <g id="patch_2">
    <path d="M 144 512.64 
L 1036.8 512.64 
L 1036.8 69.12 
L 144 69.12 
z
" style="fill: #ffffff"/>
   </g>
   <g id="PathCollection_1">
    <path d="M 184.581818 494.716068 
C 185.17483 494.716068 185.743634 494.480462 186.162957 494.061139 
C 186.58228 493.641816 186.817886 493.073012 186.817886 492.48 
C 186.817886 491.886988 186.58228 491.318184 186.162957 490.898861 
C 185.743634 490.479538 185.17483 490.243932 184.581818 490.243932 
C 183.988806 490.243932 183.420002 490.479538 183.000679 490.898861 
C 182.581356 491.318184 182.34575 491.886988 182.34575 492.48 
C 182.34575 493.073012 182.581356 493.641816 183.000679 494.061139 
C 183.420002 494.480462 183.988806 494.716068 184.581818 494.716068 
z
" clip-path="url(#pee27dc6dde)" style="fill: #1f77b4; fill-opacity: 0.3; stroke: #1f77b4; stroke-opacity: 0.3"/>
    <path d="M 200.496257 494.617476 
C 201.433891 494.617476 202.333249 494.244949 202.996257 493.581942 
C 203.659264 492.918934 204.031791 492.019576 204.031791 491.081942 
C 204.031791 490.144307 203.659264 489.244949 202.996257 488.581942 
C 202.333249 487.918934 201.433891 487.546408 200.496257 487.546408 
C 199.558622 487.546408 198.659264 487.918934 197.996257 488.581942 
C 197.333249 489.244949 196.960723 490.144307 196.960723 491.081942 
C 196.960723 492.019576 197.333249 492.918934 197.996257 493.581942 
C 198.659264 494.244949 199.558622 494.617476 200.496257 494.617476 
z
" clip-path="url(#pee27dc6dde)" style="fill: #1f77b4; fill-opacity: 0.3; stroke: #1f77b4; stroke-opacity: 0.3"/>
    <path d="M 216.410695 493.011491 
C 218.034726 493.011491 219.592459 492.366257 220.740822 491.217894 
C 221.889185 490.069531 222.53442 488.511798 222.53442 486.887767 
C 222.53442 485.263736 221.889185 483.706003 220.740822 482.55764 
C 219.592459 481.409277 218.034726 480.764043 216.410695 480.764043 
C 214.786665 480.764043 213.228931 481.409277 212.080568 482.55764 
C 210.932205 483.706003 210.286971 485.263736 210.286971 486.887767 
C 210.286971 488.511798 210.932205 490.069531 212.080568 491.217894 
C 213.228931 492.366257 214.786665 493.011491 216.410695 493.011491 
z
" clip-path="url(#pee27dc6dde)" style="fill: #1f77b4; fill-opacity: 0.3; stroke: #1f77b4; stroke-opacity: 0.3"/>
    <path d="M 232.325134 488.787545 
C 233.051422 488.787545 233.748062 488.498987 234.261625 487.985424 
C 234.775189 487.47186 235.063746 486.775221 235.063746 486.048932 
C 235.063746 485.322643 234.775189 484.626004 234.261625 484.11244 
C 233.748062 483.598877 233.051422 483.310319 232.325134 483.310319 
C 231.598845 483.310319 230.902206 483.598877 230.388642 484.11244 
C 229.875078 484.626004 229.586521 485.322643 229.586521 486.048932 
C 229.586521 486.775221 229.875078 487.47186 230.388642 487.985424 
C 230.902206 488.498987 231.598845 488.787545 232.325134 488.787545 
z
" clip-path="url(#pee27dc6dde)" style="fill: #1f77b4; fill-opacity: 0.3; stroke: #1f77b4; stroke-opacity: 0.3"/>
    <path d="M 248.239572 488.284175 
C 249.425597 488.284175 250.563204 487.812962 251.40185 486.974316 
C 252.240496 486.135671 252.711708 484.998063 252.711708 483.812039 
C 252.711708 482.626015 252.240496 481.488407 251.40185 480.649761 
C 250.563204 479.811115 249.425597 479.339903 248.239572 479.339903 
C 247.053548 479.339903 245.91594 479.811115 245.077295 480.649761 
C 244.238649 481.488407 243.767436 482.626015 243.767436 483.812039 
C 243.767436 484.998063 244.238649 486.135671 245.077295 486.974316 
C 245.91594 487.812962 247.053548 488.284175 248.239572 488.284175 
z
" clip-path="url(#pee27dc6dde)" style="fill: #1f77b4; fill-opacity: 0.3; stroke: #1f77b4; stroke-opacity: 0.3"/>
    <path d="M 264.154011 486.015922 
C 265.480026 486.015922 266.75191 485.489091 267.689545 484.551456 
C 268.627179 483.613822 269.154011 482.341938 269.154011 481.015922 
C 269.154011 479.689907 268.627179 478.418023 267.689545 477.480388 
C 266.75191 476.542754 265.480026 476.015922 264.154011 476.015922 
C 262.827995 476.015922 261.556111 476.542754 260.618477 477.480388 
C 259.680842 478.418023 259.154011 479.689907 259.154011 481.015922 
C 259.154011 482.341938 259.680842 483.613822 260.618477 484.551456 
C 261.556111 485.489091 262.827995 486.015922 264.154011 486.015922 
z
" clip-path="url(#pee27dc6dde)" style="fill: #1f77b4; fill-opacity: 0.3; stroke: #1f77b4; stroke-opacity: 0.3"/>
    <path d="M 280.068449 482.692767 
C 280.661461 482.692767 281.230265 482.457161 281.649588 482.037838 
C 282.068911 481.618515 282.304517 481.049711 282.304517 480.456699 
C 282.304517 479.863687 282.068911 479.294883 281.649588 478.87556 
C 281.230265 478.456237 280.661461 478.220631 280.068449 478.220631 
C 279.475437 478.220631 278.906633 478.456237 278.48731 478.87556 
C 278.067987 479.294883 277.832381 479.863687 277.832381 480.456699 
C 277.832381 481.049711 278.067987 481.618515 278.48731 482.037838 
C 278.906633 482.457161 279.475437 482.692767 280.068449 482.692767 
z
" clip-path="url(#pee27dc6dde)" style="fill: #1f77b4; fill-opacity: 0.3; stroke: #1f77b4; stroke-opacity: 0.3"/>
    <path d="M 295.982888 482.691942 
C 297.168912 482.691942 298.30652 482.220729 299.145165 481.382083 
C 299.983811 480.543438 300.455024 479.40583 300.455024 478.219806 
C 300.455024 477.033782 299.983811 475.896174 299.145165 475.057528 
C 298.30652 474.218882 297.168912 473.74767 295.982888 473.74767 
C 294.796863 473.74767 293.659256 474.218882 292.82061 475.057528 
C 291.981964 475.896174 291.510752 477.033782 291.510752 478.219806 
C 291.510752 479.40583 291.981964 480.543438 292.82061 481.382083 
C 293.659256 482.220729 294.796863 482.691942 295.982888 482.691942 
z
" clip-path="url(#pee27dc6dde)" style="fill: #1f77b4; fill-opacity: 0.3; stroke: #1f77b4; stroke-opacity: 0.3"/>
    <path d="M 311.897326 480.119584 
C 312.623615 480.119584 313.320254 479.831026 313.833818 479.317463 
C 314.347381 478.803899 314.635939 478.107259 314.635939 477.380971 
C 314.635939 476.654682 314.347381 475.958043 313.833818 475.444479 
C 313.320254 474.930916 312.623615 474.642358 311.897326 474.642358 
C 311.171038 474.642358 310.474398 474.930916 309.960835 475.444479 
C 309.447271 475.958043 309.158713 476.654682 309.158713 477.380971 
C 309.158713 478.107259 309.447271 478.803899 309.960835 479.317463 
C 310.474398 479.831026 311.171038 480.119584 311.897326 480.119584 
z
" clip-path="url(#pee27dc6dde)" style="fill: #1f77b4; fill-opacity: 0.3; stroke: #1f77b4; stroke-opacity: 0.3"/>
    <path d="M 327.811765 479.424802 
C 328.650411 479.424802 329.454821 479.091604 330.047833 478.498592 
C 330.640845 477.90558 330.974042 477.10117 330.974042 476.262524 
C 330.974042 475.423878 330.640845 474.619468 330.047833 474.026456 
C 329.454821 473.433444 328.650411 473.100247 327.811765 473.100247 
C 326.973119 473.100247 326.168709 473.433444 325.575697 474.026456 
C 324.982685 474.619468 324.649487 475.423878 324.649487 476.262524 
C 324.649487 477.10117 324.982685 477.90558 325.575697 478.498592 
C 326.168709 479.091604 326.973119 479.424802 327.811765 479.424802 
z
" clip-path="url(#pee27dc6dde)" style="fill: #1f77b4; fill-opacity: 0.3; stroke: #1f77b4; stroke-opacity: 0.3"/>
    <path d="M 343.726203 477.939369 
C 344.319215 477.939369 344.888019 477.703763 345.307342 477.28444 
C 345.726665 476.865117 345.962271 476.296313 345.962271 475.703301 
C 345.962271 475.110289 345.726665 474.541485 345.307342 474.122162 
C 344.888019 473.702839 344.319215 473.467233 343.726203 473.467233 
C 343.133191 473.467233 342.564387 473.702839 342.145064 474.122162 
C 341.725741 474.541485 341.490135 475.110289 341.490135 475.703301 
C 341.490135 476.296313 341.725741 476.865117 342.145064 477.28444 
C 342.564387 477.703763 343.133191 477.939369 343.726203 477.939369 
z
" clip-path="url(#pee27dc6dde)" style="fill: #1f77b4; fill-opacity: 0.3; stroke: #1f77b4; stroke-opacity: 0.3"/>
    <path d="M 359.640642 477.840777 
C 360.578276 477.840777 361.477634 477.46825 362.140642 476.805243 
C 362.803649 476.142235 363.176176 475.242877 363.176176 474.305243 
C 363.176176 473.367608 362.803649 472.46825 362.140642 471.805243 
C 361.477634 471.142235 360.578276 470.769709 359.640642 470.769709 
C 358.703007 470.769709 357.803649 471.142235 357.140642 471.805243 
C 356.477634 472.46825 356.105108 473.367608 356.105108 474.305243 
C 356.105108 475.242877 356.477634 476.142235 357.140642 476.805243 
C 357.803649 477.46825 358.703007 477.840777 359.640642 477.840777 
z
" clip-path="url(#pee27dc6dde)" style="fill: #1f77b4; fill-opacity: 0.3; stroke: #1f77b4; stroke-opacity: 0.3"/>
    <path d="M 375.55508 476.349074 
C 376.393726 476.349074 377.198136 476.015876 377.791148 475.422864 
C 378.38416 474.829852 378.717358 474.025442 378.717358 473.186796 
C 378.717358 472.34815 378.38416 471.54374 377.791148 470.950728 
C 377.198136 470.357716 376.393726 470.024518 375.55508 470.024518 
C 374.716434 470.024518 373.912024 470.357716 373.319012 470.950728 
C 372.726 471.54374 372.392803 472.34815 372.392803 473.186796 
C 372.392803 474.025442 372.726 474.829852 373.319012 475.422864 
C 373.912024 476.015876 374.716434 476.349074 375.55508 476.349074 
z
" clip-path="url(#pee27dc6dde)" style="fill: #1f77b4; fill-opacity: 0.3; stroke: #1f77b4; stroke-opacity: 0.3"/>
    <path d="M 391.469519 475.324272 
C 392.407153 475.324272 393.306511 474.951746 393.969519 474.288738 
C 394.632526 473.62573 395.005053 472.726372 395.005053 471.788738 
C 395.005053 470.851103 394.632526 469.951746 393.969519 469.288738 
C 393.306511 468.62573 392.407153 468.253204 391.469519 468.253204 
C 390.531884 468.253204 389.632526 468.62573 388.969519 469.288738 
C 388.306511 469.951746 387.933985 470.851103 387.933985 471.788738 
C 387.933985 472.726372 388.306511 473.62573 388.969519 474.288738 
C 389.632526 474.951746 390.531884 475.324272 391.469519 475.324272 
z
" clip-path="url(#pee27dc6dde)" style="fill: #1f77b4; fill-opacity: 0.3; stroke: #1f77b4; stroke-opacity: 0.3"/>
    <path d="M 407.383957 473.926214 
C 408.321592 473.926214 409.220949 473.553687 409.883957 472.89068 
C 410.546965 472.227672 410.919491 471.328314 410.919491 470.39068 
C 410.919491 469.453045 410.546965 468.553687 409.883957 467.89068 
C 409.220949 467.227672 408.321592 466.855146 407.383957 466.855146 
C 406.446323 466.855146 405.546965 467.227672 404.883957 467.89068 
C 404.220949 468.553687 403.848423 469.453045 403.848423 470.39068 
C 403.848423 471.328314 404.220949 472.227672 404.883957 472.89068 
C 405.546965 473.553687 406.446323 473.926214 407.383957 473.926214 
z
" clip-path="url(#pee27dc6dde)" style="fill: #1f77b4; fill-opacity: 0.3; stroke: #1f77b4; stroke-opacity: 0.3"/>
    <path d="M 423.298396 472.585993 
C 424.325523 472.585993 425.31072 472.177911 426.037009 471.451622 
C 426.763297 470.725334 427.171379 469.740137 427.171379 468.71301 
C 427.171379 467.685883 426.763297 466.700686 426.037009 465.974397 
C 425.31072 465.248108 424.325523 464.840026 423.298396 464.840026 
C 422.271269 464.840026 421.286072 465.248108 420.559783 465.974397 
C 419.833494 466.700686 419.425412 467.685883 419.425412 468.71301 
C 419.425412 469.740137 419.833494 470.725334 420.559783 471.451622 
C 421.286072 472.177911 422.271269 472.585993 423.298396 472.585993 
z
" clip-path="url(#pee27dc6dde)" style="fill: #1f77b4; fill-opacity: 0.3; stroke: #1f77b4; stroke-opacity: 0.3"/>
    <path d="M 439.212834 470.850485 
C 440.150469 470.850485 441.049826 470.477959 441.712834 469.814951 
C 442.375842 469.151944 442.748368 468.252586 442.748368 467.314951 
C 442.748368 466.377317 442.375842 465.477959 441.712834 464.814951 
C 441.049826 464.151944 440.150469 463.779418 439.212834 463.779418 
C 438.2752 463.779418 437.375842 464.151944 436.712834 464.814951 
C 436.049826 465.477959 435.6773 466.377317 435.6773 467.314951 
C 435.6773 468.252586 436.049826 469.151944 436.712834 469.814951 
C 437.375842 470.477959 438.2752 470.850485 439.212834 470.850485 
z
" clip-path="url(#pee27dc6dde)" style="fill: #1f77b4; fill-opacity: 0.3; stroke: #1f77b4; stroke-opacity: 0.3"/>
    <path d="M 455.127273 469.510265 
C 456.1544 469.510265 457.139597 469.102183 457.865886 468.375894 
C 458.592174 467.649606 459.000256 466.664409 459.000256 465.637282 
C 459.000256 464.610154 458.592174 463.624957 457.865886 462.898669 
C 457.139597 462.17238 456.1544 461.764298 455.127273 461.764298 
C 454.100146 461.764298 453.114949 462.17238 452.38866 462.898669 
C 451.662371 463.624957 451.254289 464.610154 451.254289 465.637282 
C 451.254289 466.664409 451.662371 467.649606 452.38866 468.375894 
C 453.114949 469.102183 454.100146 469.510265 455.127273 469.510265 
z
" clip-path="url(#pee27dc6dde)" style="fill: #1f77b4; fill-opacity: 0.3; stroke: #1f77b4; stroke-opacity: 0.3"/>
    <path d="M 471.041711 467.8633 
C 472.151135 467.8633 473.21527 467.422521 473.999751 466.63804 
C 474.784232 465.853559 475.225011 464.789424 475.225011 463.68 
C 475.225011 462.570576 474.784232 461.506441 473.999751 460.72196 
C 473.21527 459.937479 472.151135 459.4967 471.041711 459.4967 
C 469.932287 459.4967 468.868153 459.937479 468.083671 460.72196 
C 467.29919 461.506441 466.858411 462.570576 466.858411 463.68 
C 466.858411 464.789424 467.29919 465.853559 468.083671 466.63804 
C 468.868153 467.422521 469.932287 467.8633 471.041711 467.8633 
z
" clip-path="url(#pee27dc6dde)" style="fill: #1f77b4; fill-opacity: 0.3; stroke: #1f77b4; stroke-opacity: 0.3"/>
    <path d="M 486.95615 465.915243 
C 488.142174 465.915243 489.279782 465.44403 490.118427 464.605384 
C 490.957073 463.766739 491.428286 462.629131 491.428286 461.443107 
C 491.428286 460.257082 490.957073 459.119475 490.118427 458.280829 
C 489.279782 457.442183 488.142174 456.970971 486.95615 456.970971 
C 485.770125 456.970971 484.632518 457.442183 483.793872 458.280829 
C 482.955226 459.119475 482.484014 460.257082 482.484014 461.443107 
C 482.484014 462.629131 482.955226 463.766739 483.793872 464.605384 
C 484.632518 465.44403 485.770125 465.915243 486.95615 465.915243 
z
" clip-path="url(#pee27dc6dde)" style="fill: #1f77b4; fill-opacity: 0.3; stroke: #1f77b4; stroke-opacity: 0.3"/>
    <path d="M 502.870588 463.63842 
C 503.897715 463.63842 504.882912 463.230338 505.609201 462.50405 
C 506.33549 461.777761 506.743572 460.792564 506.743572 459.765437 
C 506.743572 458.73831 506.33549 457.753113 505.609201 457.026824 
C 504.882912 456.300536 503.897715 455.892454 502.870588 455.892454 
C 501.843461 455.892454 500.858264 456.300536 500.131975 457.026824 
C 499.405687 457.753113 498.997605 458.73831 498.997605 459.765437 
C 498.997605 460.792564 499.405687 461.777761 500.131975 462.50405 
C 500.858264 463.230338 501.843461 463.63842 502.870588 463.63842 
z
" clip-path="url(#pee27dc6dde)" style="fill: #1f77b4; fill-opacity: 0.3; stroke: #1f77b4; stroke-opacity: 0.3"/>
    <path d="M 518.785027 461.933753 
C 520.175764 461.933753 521.509727 461.381207 522.493126 460.397808 
C 523.476525 459.414409 524.029071 458.080446 524.029071 456.689709 
C 524.029071 455.298972 523.476525 453.965009 522.493126 452.981609 
C 521.509727 451.99821 520.175764 451.445664 518.785027 451.445664 
C 517.39429 451.445664 516.060327 451.99821 515.076927 452.981609 
C 514.093528 453.965009 513.540982 455.298972 513.540982 456.689709 
C 513.540982 458.080446 514.093528 459.414409 515.076927 460.397808 
C 516.060327 461.381207 517.39429 461.933753 518.785027 461.933753 
z
" clip-path="url(#pee27dc6dde)" style="fill: #1f77b4; fill-opacity: 0.3; stroke: #1f77b4; stroke-opacity: 0.3"/>
    <path d="M 534.699465 458.540478 
C 536.376757 458.540478 537.985577 457.874083 539.171601 456.688058 
C 540.357626 455.502034 541.024021 453.893214 541.024021 452.215922 
C 541.024021 450.538631 540.357626 448.929811 539.171601 447.743786 
C 537.985577 446.557762 536.376757 445.891367 534.699465 445.891367 
C 533.022174 445.891367 531.413354 446.557762 530.227329 447.743786 
C 529.041305 448.929811 528.37491 450.538631 528.37491 452.215922 
C 528.37491 453.893214 529.041305 455.502034 530.227329 456.688058 
C 531.413354 457.874083 533.022174 458.540478 534.699465 458.540478 
z
" clip-path="url(#pee27dc6dde)" style="fill: #1f77b4; fill-opacity: 0.3; stroke: #1f77b4; stroke-opacity: 0.3"/>
    <path d="M 550.613904 453.251209 
C 552.668158 453.251209 554.638552 452.435045 556.091129 450.982468 
C 557.543707 449.529891 558.35987 447.559497 558.35987 445.505243 
C 558.35987 443.450988 557.543707 441.480594 556.091129 440.028017 
C 554.638552 438.57544 552.668158 437.759276 550.613904 437.759276 
C 548.559649 437.759276 546.589255 438.57544 545.136678 440.028017 
C 543.684101 441.480594 542.867937 443.450988 542.867937 445.505243 
C 542.867937 447.559497 543.684101 449.529891 545.136678 450.982468 
C 546.589255 452.435045 548.559649 453.251209 550.613904 453.251209 
z
" clip-path="url(#pee27dc6dde)" style="fill: #1f77b4; fill-opacity: 0.3; stroke: #1f77b4; stroke-opacity: 0.3"/>
    <path d="M 566.528342 447.731261 
C 567.637766 447.731261 568.701901 447.290482 569.486382 446.506001 
C 570.270863 445.72152 570.711642 444.657385 570.711642 443.547961 
C 570.711642 442.438537 570.270863 441.374403 569.486382 440.589921 
C 568.701901 439.80544 567.637766 439.364661 566.528342 439.364661 
C 565.418918 439.364661 564.354784 439.80544 563.570302 440.589921 
C 562.785821 441.374403 562.345042 442.438537 562.345042 443.547961 
C 562.345042 444.657385 562.785821 445.72152 563.570302 446.506001 
C 564.354784 447.290482 565.418918 447.731261 566.528342 447.731261 
z
" clip-path="url(#pee27dc6dde)" style="fill: #1f77b4; fill-opacity: 0.3; stroke: #1f77b4; stroke-opacity: 0.3"/>
    <path d="M 582.442781 445.613887 
C 583.954671 445.613887 585.404842 445.013206 586.47391 443.944139 
C 587.542977 442.875071 588.143658 441.4249 588.143658 439.91301 
C 588.143658 438.401119 587.542977 436.950949 586.47391 435.881881 
C 585.404842 434.812813 583.954671 434.212133 582.442781 434.212133 
C 580.93089 434.212133 579.48072 434.812813 578.411652 435.881881 
C 577.342584 436.950949 576.741904 438.401119 576.741904 439.91301 
C 576.741904 441.4249 577.342584 442.875071 578.411652 443.944139 
C 579.48072 445.013206 580.93089 445.613887 582.442781 445.613887 
z
" clip-path="url(#pee27dc6dde)" style="fill: #1f77b4; fill-opacity: 0.3; stroke: #1f77b4; stroke-opacity: 0.3"/>
    <path d="M 598.357219 441.914526 
C 599.926182 441.914526 601.431095 441.291171 602.540519 440.181747 
C 603.649944 439.072323 604.273299 437.567409 604.273299 435.998447 
C 604.273299 434.429484 603.649944 432.924571 602.540519 431.815146 
C 601.431095 430.705722 599.926182 430.082367 598.357219 430.082367 
C 596.788257 430.082367 595.283343 430.705722 594.173919 431.815146 
C 593.064495 432.924571 592.441139 434.429484 592.441139 435.998447 
C 592.441139 437.567409 593.064495 439.072323 594.173919 440.181747 
C 595.283343 441.291171 596.788257 441.914526 598.357219 441.914526 
z
" clip-path="url(#pee27dc6dde)" style="fill: #1f77b4; fill-opacity: 0.3; stroke: #1f77b4; stroke-opacity: 0.3"/>
    <path d="M 614.271658 435.854213 
C 616.680485 435.854213 618.990976 434.897176 620.694274 433.193878 
C 622.397572 431.490581 623.354609 429.180089 623.354609 426.771262 
C 623.354609 424.362435 622.397572 422.051944 620.694274 420.348646 
C 618.990976 418.645348 616.680485 417.688311 614.271658 417.688311 
C 611.862831 417.688311 609.552339 418.645348 607.849041 420.348646 
C 606.145744 422.051944 605.188707 424.362435 605.188707 426.771262 
C 605.188707 429.180089 606.145744 431.490581 607.849041 433.193878 
C 609.552339 434.897176 611.862831 435.854213 614.271658 435.854213 
z
" clip-path="url(#pee27dc6dde)" style="fill: #1f77b4; fill-opacity: 0.3; stroke: #1f77b4; stroke-opacity: 0.3"/>
    <path d="M 630.186096 426.906709 
C 632.520787 426.906709 634.76017 425.979127 636.411046 424.328251 
C 638.061922 422.677375 638.989505 420.437992 638.989505 418.103301 
C 638.989505 415.76861 638.061922 413.529227 636.411046 411.878351 
C 634.76017 410.227475 632.520787 409.299893 630.186096 409.299893 
C 627.851405 409.299893 625.612022 410.227475 623.961146 411.878351 
C 622.31027 413.529227 621.382688 415.76861 621.382688 418.103301 
C 621.382688 420.437992 622.31027 422.677375 623.961146 424.328251 
C 625.612022 425.979127 627.851405 426.906709 630.186096 426.906709 
z
" clip-path="url(#pee27dc6dde)" style="fill: #1f77b4; fill-opacity: 0.3; stroke: #1f77b4; stroke-opacity: 0.3"/>
    <path d="M 646.100535 417.959068 
C 648.509362 417.959068 650.819853 417.002031 652.523151 415.298733 
C 654.226449 413.595435 655.183486 411.284943 655.183486 408.876117 
C 655.183486 406.46729 654.226449 404.156798 652.523151 402.4535 
C 650.819853 400.750202 648.509362 399.793165 646.100535 399.793165 
C 643.691708 399.793165 641.381216 400.750202 639.677918 402.4535 
C 637.974621 404.156798 637.017584 406.46729 637.017584 408.876117 
C 637.017584 411.284943 637.974621 413.595435 639.677918 415.298733 
C 641.381216 417.002031 643.691708 417.959068 646.100535 417.959068 
z
" clip-path="url(#pee27dc6dde)" style="fill: #1f77b4; fill-opacity: 0.3; stroke: #1f77b4; stroke-opacity: 0.3"/>
    <path d="M 662.014973 408.443852 
C 664.495721 408.443852 666.875198 407.458241 668.629352 405.704087 
C 670.383505 403.949933 671.369117 401.570457 671.369117 399.089709 
C 671.369117 396.608961 670.383505 394.229484 668.629352 392.47533 
C 666.875198 390.721177 664.495721 389.735565 662.014973 389.735565 
C 659.534225 389.735565 657.154749 390.721177 655.400595 392.47533 
C 653.646441 394.229484 652.66083 396.608961 652.66083 399.089709 
C 652.66083 401.570457 653.646441 403.949933 655.400595 405.704087 
C 657.154749 407.458241 659.534225 408.443852 662.014973 408.443852 
z
" clip-path="url(#pee27dc6dde)" style="fill: #1f77b4; fill-opacity: 0.3; stroke: #1f77b4; stroke-opacity: 0.3"/>
    <path d="M 677.929412 400.669112 
C 679.757198 400.669112 681.510369 399.942925 682.802809 398.650485 
C 684.095249 397.358045 684.821436 395.604874 684.821436 393.777087 
C 684.821436 391.949301 684.095249 390.19613 682.802809 388.90369 
C 681.510369 387.61125 679.757198 386.885063 677.929412 386.885063 
C 676.101626 386.885063 674.348455 387.61125 673.056015 388.90369 
C 671.763575 390.19613 671.037387 391.949301 671.037387 393.777087 
C 671.037387 395.604874 671.763575 397.358045 673.056015 398.650485 
C 674.348455 399.942925 676.101626 400.669112 677.929412 400.669112 
z
" clip-path="url(#pee27dc6dde)" style="fill: #1f77b4; fill-opacity: 0.3; stroke: #1f77b4; stroke-opacity: 0.3"/>
    <path d="M 693.84385 396.01233 
C 695.029875 396.01233 696.167482 395.541118 697.006128 394.702472 
C 697.844774 393.863826 698.315986 392.726218 698.315986 391.540194 
C 698.315986 390.35417 697.844774 389.216562 697.006128 388.377917 
C 696.167482 387.539271 695.029875 387.068058 693.84385 387.068058 
C 692.657826 387.068058 691.520218 387.539271 690.681573 388.377917 
C 689.842927 389.216562 689.371714 390.35417 689.371714 391.540194 
C 689.371714 392.726218 689.842927 393.863826 690.681573 394.702472 
C 691.520218 395.541118 692.657826 396.01233 693.84385 396.01233 
z
" clip-path="url(#pee27dc6dde)" style="fill: #1f77b4; fill-opacity: 0.3; stroke: #1f77b4; stroke-opacity: 0.3"/>
    <path d="M 709.758289 393.469744 
C 711.382319 393.469744 712.940053 392.82451 714.088416 391.676146 
C 715.236779 390.527783 715.882013 388.97005 715.882013 387.346019 
C 715.882013 385.721989 715.236779 384.164256 714.088416 383.015892 
C 712.940053 381.867529 711.382319 381.222295 709.758289 381.222295 
C 708.134258 381.222295 706.576525 381.867529 705.428162 383.015892 
C 704.279799 384.164256 703.634564 385.721989 703.634564 387.346019 
C 703.634564 388.97005 704.279799 390.527783 705.428162 391.676146 
C 706.576525 392.82451 708.134258 393.469744 709.758289 393.469744 
z
" clip-path="url(#pee27dc6dde)" style="fill: #1f77b4; fill-opacity: 0.3; stroke: #1f77b4; stroke-opacity: 0.3"/>
    <path d="M 725.672727 383.345492 
C 728.838546 383.345492 731.875127 382.087699 734.113699 379.849127 
C 736.352271 377.610555 737.610064 374.573974 737.610064 371.408155 
C 737.610064 368.242337 736.352271 365.205756 734.113699 362.967184 
C 731.875127 360.728612 728.838546 359.470819 725.672727 359.470819 
C 722.506909 359.470819 719.470328 360.728612 717.231756 362.967184 
C 714.993184 365.205756 713.735391 368.242337 713.735391 371.408155 
C 713.735391 374.573974 714.993184 377.610555 717.231756 379.849127 
C 719.470328 382.087699 722.506909 383.345492 725.672727 383.345492 
z
" clip-path="url(#pee27dc6dde)" style="fill: #1f77b4; fill-opacity: 0.3; stroke: #1f77b4; stroke-opacity: 0.3"/>
    <path d="M 741.587166 357.438059 
C 745.965026 357.438059 750.164169 355.698717 753.259783 352.603103 
C 756.355398 349.507489 758.09474 345.308345 758.09474 340.930485 
C 758.09474 336.552626 756.355398 332.353482 753.259783 329.257868 
C 750.164169 326.162254 745.965026 324.422911 741.587166 324.422911 
C 737.209306 324.422911 733.010163 326.162254 729.914548 329.257868 
C 726.818934 332.353482 725.079592 336.552626 725.079592 340.930485 
C 725.079592 345.308345 726.818934 349.507489 729.914548 352.603103 
C 733.010163 355.698717 737.209306 357.438059 741.587166 357.438059 
z
" clip-path="url(#pee27dc6dde)" style="fill: #1f77b4; fill-opacity: 0.3; stroke: #1f77b4; stroke-opacity: 0.3"/>
    <path d="M 757.501604 338.62848 
C 760.376337 338.62848 763.133716 337.486336 765.166459 335.453593 
C 767.199202 333.420849 768.341346 330.663471 768.341346 327.788738 
C 768.341346 324.914005 767.199202 322.156626 765.166459 320.123883 
C 763.133716 318.09114 760.376337 316.948996 757.501604 316.948996 
C 754.626871 316.948996 751.869493 318.09114 749.836749 320.123883 
C 747.804006 322.156626 746.661863 324.914005 746.661863 327.788738 
C 746.661863 330.663471 747.804006 333.420849 749.836749 335.453593 
C 751.869493 337.486336 754.626871 338.62848 757.501604 338.62848 
z
" clip-path="url(#pee27dc6dde)" style="fill: #1f77b4; fill-opacity: 0.3; stroke: #1f77b4; stroke-opacity: 0.3"/>
    <path d="M 773.416043 321.996936 
C 776.848349 321.996936 780.140539 320.633267 782.567545 318.20626 
C 784.994552 315.779253 786.358222 312.487063 786.358222 309.054757 
C 786.358222 305.622451 784.994552 302.330262 782.567545 299.903255 
C 780.140539 297.476248 776.848349 296.112578 773.416043 296.112578 
C 769.983737 296.112578 766.691547 297.476248 764.26454 299.903255 
C 761.837533 302.330262 760.473864 305.622451 760.473864 309.054757 
C 760.473864 312.487063 761.837533 315.779253 764.26454 318.20626 
C 766.691547 320.633267 769.983737 321.996936 773.416043 321.996936 
z
" clip-path="url(#pee27dc6dde)" style="fill: #1f77b4; fill-opacity: 0.3; stroke: #1f77b4; stroke-opacity: 0.3"/>
    <path d="M 789.330481 310.729952 
C 791.109518 310.729952 792.815929 310.023133 794.073898 308.765164 
C 795.331867 307.507195 796.038685 305.800784 796.038685 304.021748 
C 796.038685 302.242711 795.331867 300.5363 794.073898 299.278331 
C 792.815929 298.020362 791.109518 297.313544 789.330481 297.313544 
C 787.551445 297.313544 785.845034 298.020362 784.587065 299.278331 
C 783.329096 300.5363 782.622277 302.242711 782.622277 304.021748 
C 782.622277 305.800784 783.329096 307.507195 784.587065 308.765164 
C 785.845034 310.023133 787.551445 310.729952 789.330481 310.729952 
z
" clip-path="url(#pee27dc6dde)" style="fill: #1f77b4; fill-opacity: 0.3; stroke: #1f77b4; stroke-opacity: 0.3"/>
    <path d="M 805.24492 304.018447 
C 807.616968 304.018447 809.892183 303.076022 811.569475 301.39873 
C 813.246767 299.721438 814.189192 297.446223 814.189192 295.074175 
C 814.189192 292.702126 813.246767 290.426911 811.569475 288.749619 
C 809.892183 287.072328 807.616968 286.129903 805.24492 286.129903 
C 802.872871 286.129903 800.597656 287.072328 798.920364 288.749619 
C 797.243073 290.426911 796.300648 292.702126 796.300648 295.074175 
C 796.300648 297.446223 797.243073 299.721438 798.920364 301.39873 
C 800.597656 303.076022 802.872871 304.018447 805.24492 304.018447 
z
" clip-path="url(#pee27dc6dde)" style="fill: #1f77b4; fill-opacity: 0.3; stroke: #1f77b4; stroke-opacity: 0.3"/>
    <path d="M 821.159358 293.098252 
C 823.972262 293.098252 826.670335 291.980674 828.659358 289.99165 
C 830.648382 288.002627 831.76596 285.304554 831.76596 282.49165 
C 831.76596 279.678747 830.648382 276.980674 828.659358 274.99165 
C 826.670335 273.002627 823.972262 271.885049 821.159358 271.885049 
C 818.346455 271.885049 815.648382 273.002627 813.659358 274.99165 
C 811.670335 276.980674 810.552757 279.678747 810.552757 282.49165 
C 810.552757 285.304554 811.670335 288.002627 813.659358 289.99165 
C 815.648382 291.980674 818.346455 293.098252 821.159358 293.098252 
z
" clip-path="url(#pee27dc6dde)" style="fill: #1f77b4; fill-opacity: 0.3; stroke: #1f77b4; stroke-opacity: 0.3"/>
    <path d="M 837.073797 280.515728 
C 839.8867 280.515728 842.584774 279.398149 844.573797 277.409126 
C 846.56282 275.420103 847.680399 272.72203 847.680399 269.909126 
C 847.680399 267.096223 846.56282 264.398149 844.573797 262.409126 
C 842.584774 260.420103 839.8867 259.302524 837.073797 259.302524 
C 834.260893 259.302524 831.56282 260.420103 829.573797 262.409126 
C 827.584774 264.398149 826.467195 267.096223 826.467195 269.909126 
C 826.467195 272.72203 827.584774 275.420103 829.573797 277.409126 
C 831.56282 279.398149 834.260893 280.515728 837.073797 280.515728 
z
" clip-path="url(#pee27dc6dde)" style="fill: #1f77b4; fill-opacity: 0.3; stroke: #1f77b4; stroke-opacity: 0.3"/>
    <path d="M 852.988235 265.733245 
C 856.181704 265.733245 859.244805 264.464467 861.502928 262.206344 
C 863.761052 259.948221 865.02983 256.885119 865.02983 253.69165 
C 865.02983 250.498182 863.761052 247.43508 861.502928 245.176957 
C 859.244805 242.918834 856.181704 241.650056 852.988235 241.650056 
C 849.794767 241.650056 846.731665 242.918834 844.473542 245.176957 
C 842.215419 247.43508 840.946641 250.498182 840.946641 253.69165 
C 840.946641 256.885119 842.215419 259.948221 844.473542 262.206344 
C 846.731665 264.464467 849.794767 265.733245 852.988235 265.733245 
z
" clip-path="url(#pee27dc6dde)" style="fill: #1f77b4; fill-opacity: 0.3; stroke: #1f77b4; stroke-opacity: 0.3"/>
    <path d="M 868.902674 244.113318 
C 872.813858 244.113318 876.565376 242.559388 879.331001 239.793764 
C 882.096625 237.028139 883.650555 233.276621 883.650555 229.365437 
C 883.650555 225.454253 882.096625 221.702735 879.331001 218.93711 
C 876.565376 216.171485 872.813858 214.617556 868.902674 214.617556 
C 864.99149 214.617556 861.239972 216.171485 858.474347 218.93711 
C 855.708722 221.702735 854.154793 225.454253 854.154793 229.365437 
C 854.154793 233.276621 855.708722 237.028139 858.474347 239.793764 
C 861.239972 242.559388 864.99149 244.113318 868.902674 244.113318 
z
" clip-path="url(#pee27dc6dde)" style="fill: #1f77b4; fill-opacity: 0.3; stroke: #1f77b4; stroke-opacity: 0.3"/>
    <path d="M 884.817112 224.299803 
C 888.145385 224.299803 891.337788 222.977467 893.691232 220.624023 
C 896.044676 218.270579 897.367013 215.078175 897.367013 211.749903 
C 897.367013 208.42163 896.044676 205.229227 893.691232 202.875783 
C 891.337788 200.522339 888.145385 199.200003 884.817112 199.200003 
C 881.48884 199.200003 878.296437 200.522339 875.942993 202.875783 
C 873.589549 205.229227 872.267212 208.42163 872.267212 211.749903 
C 872.267212 215.078175 873.589549 218.270579 875.942993 220.624023 
C 878.296437 222.977467 881.48884 224.299803 884.817112 224.299803 
z
" clip-path="url(#pee27dc6dde)" style="fill: #1f77b4; fill-opacity: 0.3; stroke: #1f77b4; stroke-opacity: 0.3"/>
    <path d="M 900.731551 213.918219 
C 902.122288 213.918219 903.456251 213.365673 904.43965 212.382274 
C 905.423049 211.398875 905.975595 210.064912 905.975595 208.674175 
C 905.975595 207.283438 905.423049 205.949475 904.43965 204.966076 
C 903.456251 203.982676 902.122288 203.430131 900.731551 203.430131 
C 899.340814 203.430131 898.006851 203.982676 897.023452 204.966076 
C 896.040052 205.949475 895.487507 207.283438 895.487507 208.674175 
C 895.487507 210.064912 896.040052 211.398875 897.023452 212.382274 
C 898.006851 213.365673 899.340814 213.918219 900.731551 213.918219 
z
" clip-path="url(#pee27dc6dde)" style="fill: #1f77b4; fill-opacity: 0.3; stroke: #1f77b4; stroke-opacity: 0.3"/>
    <path d="M 916.645989 210.796061 
C 918.098567 210.796061 919.491845 210.218945 920.518973 209.191818 
C 921.5461 208.164691 922.123215 206.771412 922.123215 205.318835 
C 922.123215 203.866258 921.5461 202.472979 920.518973 201.445852 
C 919.491845 200.418724 918.098567 199.841609 916.645989 199.841609 
C 915.193412 199.841609 913.800133 200.418724 912.773006 201.445852 
C 911.745879 202.472979 911.168764 203.866258 911.168764 205.318835 
C 911.168764 206.771412 911.745879 208.164691 912.773006 209.191818 
C 913.800133 210.218945 915.193412 210.796061 916.645989 210.796061 
z
" clip-path="url(#pee27dc6dde)" style="fill: #1f77b4; fill-opacity: 0.3; stroke: #1f77b4; stroke-opacity: 0.3"/>
    <path d="M 932.560428 189.706903 
C 937.096099 189.706903 941.446611 187.904862 944.653814 184.697658 
C 947.861018 181.490455 949.663059 177.139943 949.663059 172.604272 
C 949.663059 168.068601 947.861018 163.718089 944.653814 160.510885 
C 941.446611 157.303682 937.096099 155.50164 932.560428 155.50164 
C 928.024757 155.50164 923.674245 157.303682 920.467041 160.510885 
C 917.259838 163.718089 915.457796 168.068601 915.457796 172.604272 
C 915.457796 177.139943 917.259838 181.490455 920.467041 184.697658 
C 923.674245 187.904862 928.024757 189.706903 932.560428 189.706903 
z
" clip-path="url(#pee27dc6dde)" style="fill: #1f77b4; fill-opacity: 0.3; stroke: #1f77b4; stroke-opacity: 0.3"/>
    <path d="M 948.474866 163.60827 
C 952.318024 163.60827 956.004294 162.081367 958.721817 159.363844 
C 961.43934 156.646321 962.966243 152.960051 962.966243 149.116893 
C 962.966243 145.273735 961.43934 141.587466 958.721817 138.869942 
C 956.004294 136.152419 952.318024 134.625516 948.474866 134.625516 
C 944.631708 134.625516 940.945439 136.152419 938.227916 138.869942 
C 935.510392 141.587466 933.98349 145.273735 933.98349 149.116893 
C 933.98349 152.960051 935.510392 156.646321 938.227916 159.363844 
C 940.945439 162.081367 944.631708 163.60827 948.474866 163.60827 
z
" clip-path="url(#pee27dc6dde)" style="fill: #1f77b4; fill-opacity: 0.3; stroke: #1f77b4; stroke-opacity: 0.3"/>
    <path d="M 964.389305 146.649985 
C 967.294459 146.649985 970.081017 145.495755 972.135272 143.441501 
C 974.189526 141.387246 975.343756 138.600688 975.343756 135.695534 
C 975.343756 132.79038 974.189526 130.003822 972.135272 127.949567 
C 970.081017 125.895313 967.294459 124.741083 964.389305 124.741083 
C 961.48415 124.741083 958.697592 125.895313 956.643338 127.949567 
C 954.589084 130.003822 953.434854 132.79038 953.434854 135.695534 
C 953.434854 138.600688 954.589084 141.387246 956.643338 143.441501 
C 958.697592 145.495755 961.48415 146.649985 964.389305 146.649985 
z
" clip-path="url(#pee27dc6dde)" style="fill: #1f77b4; fill-opacity: 0.3; stroke: #1f77b4; stroke-opacity: 0.3"/>
    <path d="M 980.303743 123.143865 
C 984.538697 123.143865 988.600768 121.4613 991.595333 118.466735 
C 994.589898 115.472171 996.272463 111.4101 996.272463 107.175146 
C 996.272463 102.940192 994.589898 98.87812 991.595333 95.883556 
C 988.600768 92.888991 984.538697 91.206426 980.303743 91.206426 
C 976.068789 91.206426 972.006718 92.888991 969.012154 95.883556 
C 966.017589 98.87812 964.335024 102.940192 964.335024 107.175146 
C 964.335024 111.4101 966.017589 115.472171 969.012154 118.466735 
C 972.006718 121.4613 976.068789 123.143865 980.303743 123.143865 
z
" clip-path="url(#pee27dc6dde)" style="fill: #1f77b4; fill-opacity: 0.3; stroke: #1f77b4; stroke-opacity: 0.3"/>
    <path d="M 996.218182 101.929111 
C 999.572765 101.929111 1002.790405 100.596321 1005.162454 98.224272 
C 1007.534502 95.852223 1008.867292 92.634583 1008.867292 89.28 
C 1008.867292 85.925417 1007.534502 82.707777 1005.162454 80.335728 
C 1002.790405 77.963679 999.572765 76.630889 996.218182 76.630889 
C 992.863598 76.630889 989.645959 77.963679 987.27391 80.335728 
C 984.901861 82.707777 983.569071 85.925417 983.569071 89.28 
C 983.569071 92.634583 984.901861 95.852223 987.27391 98.224272 
C 989.645959 100.596321 992.863598 101.929111 996.218182 101.929111 
z
" clip-path="url(#pee27dc6dde)" style="fill: #1f77b4; fill-opacity: 0.3; stroke: #1f77b4; stroke-opacity: 0.3"/>
   </g>
   <g id="matplotlib.axis_1">
    <g id="xtick_1">
     <g id="line2d_1">
      <defs>
       <path id="m371565acc7" d="M 0 0 
L 0 3.5 
" style="stroke: #000000; stroke-width: 0.8"/>
      </defs>
      <g>
       <use xlink:href="#m371565acc7" x="184.581818" y="512.64" style="stroke: #000000; stroke-width: 0.8"/>
      </g>
     </g>
     <g id="text_1">
      <!-- 2025-01-01 -->
      <g transform="translate(155.524006 527.238438) scale(0.1 -0.1)">
       <defs>
        <path id="DejaVuSans-32" d="M 1228 531 
L 3431 531 
L 3431 0 
L 469 0 
L 469 531 
Q 828 903 1448 1529 
Q 2069 2156 2228 2338 
Q 2531 2678 2651 2914 
Q 2772 3150 2772 3378 
Q 2772 3750 2511 3984 
Q 2250 4219 1831 4219 
Q 1534 4219 1204 4116 
Q 875 4013 500 3803 
L 500 4441 
Q 881 4594 1212 4672 
Q 1544 4750 1819 4750 
Q 2544 4750 2975 4387 
Q 3406 4025 3406 3419 
Q 3406 3131 3298 2873 
Q 3191 2616 2906 2266 
Q 2828 2175 2409 1742 
Q 1991 1309 1228 531 
z
" transform="scale(0.015625)"/>
        <path id="DejaVuSans-30" d="M 2034 4250 
Q 1547 4250 1301 3770 
Q 1056 3291 1056 2328 
Q 1056 1369 1301 889 
Q 1547 409 2034 409 
Q 2525 409 2770 889 
Q 3016 1369 3016 2328 
Q 3016 3291 2770 3770 
Q 2525 4250 2034 4250 
z
M 2034 4750 
Q 2819 4750 3233 4129 
Q 3647 3509 3647 2328 
Q 3647 1150 3233 529 
Q 2819 -91 2034 -91 
Q 1250 -91 836 529 
Q 422 1150 422 2328 
Q 422 3509 836 4129 
Q 1250 4750 2034 4750 
z
" transform="scale(0.015625)"/>
        <path id="DejaVuSans-35" d="M 691 4666 
L 3169 4666 
L 3169 4134 
L 1269 4134 
L 1269 2991 
Q 1406 3038 1543 3061 
Q 1681 3084 1819 3084 
Q 2600 3084 3056 2656 
Q 3513 2228 3513 1497 
Q 3513 744 3044 326 
Q 2575 -91 1722 -91 
Q 1428 -91 1123 -41 
Q 819 9 494 109 
L 494 744 
Q 775 591 1075 516 
Q 1375 441 1709 441 
Q 2250 441 2565 725 
Q 2881 1009 2881 1497 
Q 2881 1984 2565 2268 
Q 2250 2553 1709 2553 
Q 1456 2553 1204 2497 
Q 953 2441 691 2322 
L 691 4666 
z
" transform="scale(0.015625)"/>
        <path id="DejaVuSans-2d" d="M 313 2009 
L 1997 2009 
L 1997 1497 
L 313 1497 
L 313 2009 
z
" transform="scale(0.015625)"/>
        <path id="DejaVuSans-31" d="M 794 531 
L 1825 531 
L 1825 4091 
L 703 3866 
L 703 4441 
L 1819 4666 
L 2450 4666 
L 2450 531 
L 3481 531 
L 3481 0 
L 794 0 
L 794 531 
z
" transform="scale(0.015625)"/>
       </defs>
       <use xlink:href="#DejaVuSans-32"/>
       <use xlink:href="#DejaVuSans-30" x="63.623047"/>
       <use xlink:href="#DejaVuSans-32" x="127.246094"/>
       <use xlink:href="#DejaVuSans-35" x="190.869141"/>
       <use xlink:href="#DejaVuSans-2d" x="254.492188"/>
       <use xlink:href="#DejaVuSans-30" x="290.576172"/>
       <use xlink:href="#DejaVuSans-31" x="354.199219"/>
       <use xlink:href="#DejaVuSans-2d" x="417.822266"/>
       <use xlink:href="#DejaVuSans-30" x="453.90625"/>
       <use xlink:href="#DejaVuSans-31" x="517.529297"/>
      </g>
     </g>
    </g>
    <g id="xtick_2">
     <g id="line2d_2">
      <g>
       <use xlink:href="#m371565acc7" x="295.982888" y="512.64" style="stroke: #000000; stroke-width: 0.8"/>
      </g>
     </g>
     <g id="text_2">
      <!-- 2025-01-08 -->
      <g transform="translate(266.925075 527.238438) scale(0.1 -0.1)">
       <defs>
        <path id="DejaVuSans-38" d="M 2034 2216 
Q 1584 2216 1326 1975 
Q 1069 1734 1069 1313 
Q 1069 891 1326 650 
Q 1584 409 2034 409 
Q 2484 409 2743 651 
Q 3003 894 3003 1313 
Q 3003 1734 2745 1975 
Q 2488 2216 2034 2216 
z
M 1403 2484 
Q 997 2584 770 2862 
Q 544 3141 544 3541 
Q 544 4100 942 4425 
Q 1341 4750 2034 4750 
Q 2731 4750 3128 4425 
Q 3525 4100 3525 3541 
Q 3525 3141 3298 2862 
Q 3072 2584 2669 2484 
Q 3125 2378 3379 2068 
Q 3634 1759 3634 1313 
Q 3634 634 3220 271 
Q 2806 -91 2034 -91 
Q 1263 -91 848 271 
Q 434 634 434 1313 
Q 434 1759 690 2068 
Q 947 2378 1403 2484 
z
M 1172 3481 
Q 1172 3119 1398 2916 
Q 1625 2713 2034 2713 
Q 2441 2713 2670 2916 
Q 2900 3119 2900 3481 
Q 2900 3844 2670 4047 
Q 2441 4250 2034 4250 
Q 1625 4250 1398 4047 
Q 1172 3844 1172 3481 
z
" transform="scale(0.015625)"/>
       </defs>
       <use xlink:href="#DejaVuSans-32"/>
       <use xlink:href="#DejaVuSans-30" x="63.623047"/>
       <use xlink:href="#DejaVuSans-32" x="127.246094"/>
       <use xlink:href="#DejaVuSans-35" x="190.869141"/>
       <use xlink:href="#DejaVuSans-2d" x="254.492188"/>
       <use xlink:href="#DejaVuSans-30" x="290.576172"/>
       <use xlink:href="#DejaVuSans-31" x="354.199219"/>
       <use xlink:href="#DejaVuSans-2d" x="417.822266"/>
       <use xlink:href="#DejaVuSans-30" x="453.90625"/>
       <use xlink:href="#DejaVuSans-38" x="517.529297"/>
      </g>
     </g>
    </g>
    <g id="xtick_3">
     <g id="line2d_3">
      <g>
       <use xlink:href="#m371565acc7" x="407.383957" y="512.64" style="stroke: #000000; stroke-width: 0.8"/>
      </g>
     </g>
     <g id="text_3">
      <!-- 2025-01-15 -->
      <g transform="translate(378.326145 527.238438) scale(0.1 -0.1)">
       <use xlink:href="#DejaVuSans-32"/>
       <use xlink:href="#DejaVuSans-30" x="63.623047"/>
       <use xlink:href="#DejaVuSans-32" x="127.246094"/>
       <use xlink:href="#DejaVuSans-35" x="190.869141"/>
       <use xlink:href="#DejaVuSans-2d" x="254.492188"/>
       <use xlink:href="#DejaVuSans-30" x="290.576172"/>
       <use xlink:href="#DejaVuSans-31" x="354.199219"/>
       <use xlink:href="#DejaVuSans-2d" x="417.822266"/>
       <use xlink:href="#DejaVuSans-31" x="453.90625"/>
       <use xlink:href="#DejaVuSans-35" x="517.529297"/>
      </g>
     </g>
    </g>
    <g id="xtick_4">
     <g id="line2d_4">
      <g>
       <use xlink:href="#m371565acc7" x="518.785027" y="512.64" style="stroke: #000000; stroke-width: 0.8"/>
      </g>
     </g>
     <g id="text_4">
      <!-- 2025-01-22 -->
      <g transform="translate(489.727214 527.238438) scale(0.1 -0.1)">
       <use xlink:href="#DejaVuSans-32"/>
       <use xlink:href="#DejaVuSans-30" x="63.623047"/>
       <use xlink:href="#DejaVuSans-32" x="127.246094"/>
       <use xlink:href="#DejaVuSans-35" x="190.869141"/>
       <use xlink:href="#DejaVuSans-2d" x="254.492188"/>
       <use xlink:href="#DejaVuSans-30" x="290.576172"/>
       <use xlink:href="#DejaVuSans-31" x="354.199219"/>
       <use xlink:href="#DejaVuSans-2d" x="417.822266"/>
       <use xlink:href="#DejaVuSans-32" x="453.90625"/>
       <use xlink:href="#DejaVuSans-32" x="517.529297"/>
      </g>
     </g>
    </g>
    <g id="xtick_5">
     <g id="line2d_5">
      <g>
       <use xlink:href="#m371565acc7" x="677.929412" y="512.64" style="stroke: #000000; stroke-width: 0.8"/>
      </g>
     </g>
     <g id="text_5">
      <!-- 2025-02-01 -->
      <g transform="translate(648.871599 527.238438) scale(0.1 -0.1)">
       <use xlink:href="#DejaVuSans-32"/>
       <use xlink:href="#DejaVuSans-30" x="63.623047"/>
       <use xlink:href="#DejaVuSans-32" x="127.246094"/>
       <use xlink:href="#DejaVuSans-35" x="190.869141"/>
       <use xlink:href="#DejaVuSans-2d" x="254.492188"/>
       <use xlink:href="#DejaVuSans-30" x="290.576172"/>
       <use xlink:href="#DejaVuSans-32" x="354.199219"/>
       <use xlink:href="#DejaVuSans-2d" x="417.822266"/>
       <use xlink:href="#DejaVuSans-30" x="453.90625"/>
       <use xlink:href="#DejaVuSans-31" x="517.529297"/>
      </g>
     </g>
    </g>
    <g id="xtick_6">
     <g id="line2d_6">
      <g>
       <use xlink:href="#m371565acc7" x="789.330481" y="512.64" style="stroke: #000000; stroke-width: 0.8"/>
      </g>
     </g>
     <g id="text_6">
      <!-- 2025-02-08 -->
      <g transform="translate(760.272669 527.238438) scale(0.1 -0.1)">
       <use xlink:href="#DejaVuSans-32"/>
       <use xlink:href="#DejaVuSans-30" x="63.623047"/>
       <use xlink:href="#DejaVuSans-32" x="127.246094"/>
       <use xlink:href="#DejaVuSans-35" x="190.869141"/>
       <use xlink:href="#DejaVuSans-2d" x="254.492188"/>
       <use xlink:href="#DejaVuSans-30" x="290.576172"/>
       <use xlink:href="#DejaVuSans-32" x="354.199219"/>
       <use xlink:href="#DejaVuSans-2d" x="417.822266"/>
       <use xlink:href="#DejaVuSans-30" x="453.90625"/>
       <use xlink:href="#DejaVuSans-38" x="517.529297"/>
      </g>
     </g>
    </g>
    <g id="xtick_7">
     <g id="line2d_7">
      <g>
       <use xlink:href="#m371565acc7" x="900.731551" y="512.64" style="stroke: #000000; stroke-width: 0.8"/>
      </g>
     </g>
     <g id="text_7">
      <!-- 2025-02-15 -->
      <g transform="translate(871.673738 527.238438) scale(0.1 -0.1)">
       <use xlink:href="#DejaVuSans-32"/>
       <use xlink:href="#DejaVuSans-30" x="63.623047"/>
       <use xlink:href="#DejaVuSans-32" x="127.246094"/>
       <use xlink:href="#DejaVuSans-35" x="190.869141"/>
       <use xlink:href="#DejaVuSans-2d" x="254.492188"/>
       <use xlink:href="#DejaVuSans-30" x="290.576172"/>
       <use xlink:href="#DejaVuSans-32" x="354.199219"/>
       <use xlink:href="#DejaVuSans-2d" x="417.822266"/>
       <use xlink:href="#DejaVuSans-31" x="453.90625"/>
       <use xlink:href="#DejaVuSans-35" x="517.529297"/>
      </g>
     </g>
    </g>
    <g id="xtick_8">
     <g id="line2d_8">
      <g>
       <use xlink:href="#m371565acc7" x="1012.13262" y="512.64" style="stroke: #000000; stroke-width: 0.8"/>
      </g>
     </g>
     <g id="text_8">
      <!-- 2025-02-22 -->
      <g transform="translate(983.074808 527.238438) scale(0.1 -0.1)">
       <use xlink:href="#DejaVuSans-32"/>
       <use xlink:href="#DejaVuSans-30" x="63.623047"/>
       <use xlink:href="#DejaVuSans-32" x="127.246094"/>
       <use xlink:href="#DejaVuSans-35" x="190.869141"/>
       <use xlink:href="#DejaVuSans-2d" x="254.492188"/>
       <use xlink:href="#DejaVuSans-30" x="290.576172"/>
       <use xlink:href="#DejaVuSans-32" x="354.199219"/>
       <use xlink:href="#DejaVuSans-2d" x="417.822266"/>
       <use xlink:href="#DejaVuSans-32" x="453.90625"/>
       <use xlink:href="#DejaVuSans-32" x="517.529297"/>
      </g>
     </g>
    </g>
   </g>
   <g id="matplotlib.axis_2">
    <g id="ytick_1">
     <g id="line2d_9">
      <defs>
       <path id="ma5fe037da6" d="M 0 0 
L -3.5 0 
" style="stroke: #000000; stroke-width: 0.8"/>
      </defs>
      <g>
       <use xlink:href="#ma5fe037da6" x="144" y="463.400388" style="stroke: #000000; stroke-width: 0.8"/>
      </g>
     </g>
     <g id="text_9">
      <!-- 8400 -->
      <g transform="translate(111.55 467.199607) scale(0.1 -0.1)">
       <defs>
        <path id="DejaVuSans-34" d="M 2419 4116 
L 825 1625 
L 2419 1625 
L 2419 4116 
z
M 2253 4666 
L 3047 4666 
L 3047 1625 
L 3713 1625 
L 3713 1100 
L 3047 1100 
L 3047 0 
L 2419 0 
L 2419 1100 
L 313 1100 
L 313 1709 
L 2253 4666 
z
" transform="scale(0.015625)"/>
       </defs>
       <use xlink:href="#DejaVuSans-38"/>
       <use xlink:href="#DejaVuSans-34" x="63.623047"/>
       <use xlink:href="#DejaVuSans-30" x="127.246094"/>
       <use xlink:href="#DejaVuSans-30" x="190.869141"/>
      </g>
     </g>
    </g>
    <g id="ytick_2">
     <g id="line2d_10">
      <g>
       <use xlink:href="#ma5fe037da6" x="144" y="407.478058" style="stroke: #000000; stroke-width: 0.8"/>
      </g>
     </g>
     <g id="text_10">
      <!-- 8600 -->
      <g transform="translate(111.55 411.277277) scale(0.1 -0.1)">
       <defs>
        <path id="DejaVuSans-36" d="M 2113 2584 
Q 1688 2584 1439 2293 
Q 1191 2003 1191 1497 
Q 1191 994 1439 701 
Q 1688 409 2113 409 
Q 2538 409 2786 701 
Q 3034 994 3034 1497 
Q 3034 2003 2786 2293 
Q 2538 2584 2113 2584 
z
M 3366 4563 
L 3366 3988 
Q 3128 4100 2886 4159 
Q 2644 4219 2406 4219 
Q 1781 4219 1451 3797 
Q 1122 3375 1075 2522 
Q 1259 2794 1537 2939 
Q 1816 3084 2150 3084 
Q 2853 3084 3261 2657 
Q 3669 2231 3669 1497 
Q 3669 778 3244 343 
Q 2819 -91 2113 -91 
Q 1303 -91 875 529 
Q 447 1150 447 2328 
Q 447 3434 972 4092 
Q 1497 4750 2381 4750 
Q 2619 4750 2861 4703 
Q 3103 4656 3366 4563 
z
" transform="scale(0.015625)"/>
       </defs>
       <use xlink:href="#DejaVuSans-38"/>
       <use xlink:href="#DejaVuSans-36" x="63.623047"/>
       <use xlink:href="#DejaVuSans-30" x="127.246094"/>
       <use xlink:href="#DejaVuSans-30" x="190.869141"/>
      </g>
     </g>
    </g>
    <g id="ytick_3">
     <g id="line2d_11">
      <g>
       <use xlink:href="#ma5fe037da6" x="144" y="351.555728" style="stroke: #000000; stroke-width: 0.8"/>
      </g>
     </g>
     <g id="text_11">
      <!-- 8800 -->
      <g transform="translate(111.55 355.354947) scale(0.1 -0.1)">
       <use xlink:href="#DejaVuSans-38"/>
       <use xlink:href="#DejaVuSans-38" x="63.623047"/>
       <use xlink:href="#DejaVuSans-30" x="127.246094"/>
       <use xlink:href="#DejaVuSans-30" x="190.869141"/>
      </g>
     </g>
    </g>
    <g id="ytick_4">
     <g id="line2d_12">
      <g>
       <use xlink:href="#ma5fe037da6" x="144" y="295.633398" style="stroke: #000000; stroke-width: 0.8"/>
      </g>
     </g>
     <g id="text_12">
      <!-- 9000 -->
      <g transform="translate(111.55 299.432617) scale(0.1 -0.1)">
       <defs>
        <path id="DejaVuSans-39" d="M 703 97 
L 703 672 
Q 941 559 1184 500 
Q 1428 441 1663 441 
Q 2288 441 2617 861 
Q 2947 1281 2994 2138 
Q 2813 1869 2534 1725 
Q 2256 1581 1919 1581 
Q 1219 1581 811 2004 
Q 403 2428 403 3163 
Q 403 3881 828 4315 
Q 1253 4750 1959 4750 
Q 2769 4750 3195 4129 
Q 3622 3509 3622 2328 
Q 3622 1225 3098 567 
Q 2575 -91 1691 -91 
Q 1453 -91 1209 -44 
Q 966 3 703 97 
z
M 1959 2075 
Q 2384 2075 2632 2365 
Q 2881 2656 2881 3163 
Q 2881 3666 2632 3958 
Q 2384 4250 1959 4250 
Q 1534 4250 1286 3958 
Q 1038 3666 1038 3163 
Q 1038 2656 1286 2365 
Q 1534 2075 1959 2075 
z
" transform="scale(0.015625)"/>
       </defs>
       <use xlink:href="#DejaVuSans-39"/>
       <use xlink:href="#DejaVuSans-30" x="63.623047"/>
       <use xlink:href="#DejaVuSans-30" x="127.246094"/>
       <use xlink:href="#DejaVuSans-30" x="190.869141"/>
      </g>
     </g>
    </g>
    <g id="ytick_5">
     <g id="line2d_13">
      <g>
       <use xlink:href="#ma5fe037da6" x="144" y="239.711068" style="stroke: #000000; stroke-width: 0.8"/>
      </g>
     </g>
     <g id="text_13">
      <!-- 9200 -->
      <g transform="translate(111.55 243.510287) scale(0.1 -0.1)">
       <use xlink:href="#DejaVuSans-39"/>
       <use xlink:href="#DejaVuSans-32" x="63.623047"/>
       <use xlink:href="#DejaVuSans-30" x="127.246094"/>
       <use xlink:href="#DejaVuSans-30" x="190.869141"/>
      </g>
     </g>
    </g>
    <g id="ytick_6">
     <g id="line2d_14">
      <g>
       <use xlink:href="#ma5fe037da6" x="144" y="183.788738" style="stroke: #000000; stroke-width: 0.8"/>
      </g>
     </g>
     <g id="text_14">
      <!-- 9400 -->
      <g transform="translate(111.55 187.587957) scale(0.1 -0.1)">
       <use xlink:href="#DejaVuSans-39"/>
       <use xlink:href="#DejaVuSans-34" x="63.623047"/>
       <use xlink:href="#DejaVuSans-30" x="127.246094"/>
       <use xlink:href="#DejaVuSans-30" x="190.869141"/>
      </g>
     </g>
    </g>
    <g id="ytick_7">
     <g id="line2d_15">
      <g>
       <use xlink:href="#ma5fe037da6" x="144" y="127.866408" style="stroke: #000000; stroke-width: 0.8"/>
      </g>
     </g>
     <g id="text_15">
      <!-- 9600 -->
      <g transform="translate(111.55 131.665627) scale(0.1 -0.1)">
       <use xlink:href="#DejaVuSans-39"/>
       <use xlink:href="#DejaVuSans-36" x="63.623047"/>
       <use xlink:href="#DejaVuSans-30" x="127.246094"/>
       <use xlink:href="#DejaVuSans-30" x="190.869141"/>
      </g>
     </g>
    </g>
    <g id="ytick_8">
     <g id="line2d_16">
      <g>
       <use xlink:href="#ma5fe037da6" x="144" y="71.944078" style="stroke: #000000; stroke-width: 0.8"/>
      </g>
     </g>
     <g id="text_16">
      <!-- 9800 -->
      <g transform="translate(111.55 75.743296) scale(0.1 -0.1)">
       <use xlink:href="#DejaVuSans-39"/>
       <use xlink:href="#DejaVuSans-38" x="63.623047"/>
       <use xlink:href="#DejaVuSans-30" x="127.246094"/>
       <use xlink:href="#DejaVuSans-30" x="190.869141"/>
      </g>
     </g>
    </g>
   </g>
   <g id="line2d_17">
    <path d="M 184.581818 492.48 
L 200.496257 491.081942 
L 216.410695 486.887767 
L 232.325134 486.048932 
L 248.239572 483.812039 
L 264.154011 481.015922 
L 280.068449 480.456699 
L 295.982888 478.219806 
L 311.897326 477.380971 
L 327.811765 476.262524 
L 343.726203 475.703301 
L 359.640642 474.305243 
L 375.55508 473.186796 
L 391.469519 471.788738 
L 407.383957 470.39068 
L 423.298396 468.71301 
L 439.212834 467.314951 
L 455.127273 465.637282 
L 471.041711 463.68 
L 486.95615 461.443107 
L 502.870588 459.765437 
L 518.785027 456.689709 
L 534.699465 452.215922 
L 550.613904 445.505243 
L 566.528342 443.547961 
L 582.442781 439.91301 
L 598.357219 435.998447 
L 614.271658 426.771262 
L 630.186096 418.103301 
L 646.100535 408.876117 
L 662.014973 399.089709 
L 677.929412 393.777087 
L 693.84385 391.540194 
L 709.758289 387.346019 
L 725.672727 371.408155 
L 741.587166 340.930485 
L 757.501604 327.788738 
L 773.416043 309.054757 
L 789.330481 304.021748 
L 805.24492 295.074175 
L 821.159358 282.49165 
L 837.073797 269.909126 
L 852.988235 253.69165 
L 868.902674 229.365437 
L 884.817112 211.749903 
L 900.731551 208.674175 
L 916.645989 205.318835 
L 932.560428 172.604272 
L 948.474866 149.116893 
L 964.389305 135.695534 
L 980.303743 107.175146 
L 996.218182 89.28 
" clip-path="url(#pee27dc6dde)" style="fill: none; stroke: #1f77b4; stroke-width: 1.5; stroke-linecap: square"/>
   </g>
   <g id="patch_3">
    <path d="M 144 512.64 
L 144 69.12 
" style="fill: none; stroke: #000000; stroke-width: 0.8; stroke-linejoin: miter; stroke-linecap: square"/>
   </g>
   <g id="patch_4">
    <path d="M 1036.8 512.64 
L 1036.8 69.12 
" style="fill: none; stroke: #000000; stroke-width: 0.8; stroke-linejoin: miter; stroke-linecap: square"/>
   </g>
   <g id="patch_5">
    <path d="M 144 512.64 
L 1036.8 512.64 
" style="fill: none; stroke: #000000; stroke-width: 0.8; stroke-linejoin: miter; stroke-linecap: square"/>
   </g>
   <g id="patch_6">
    <path d="M 144 69.12 
L 1036.8 69.12 
" style="fill: none; stroke: #000000; stroke-width: 0.8; stroke-linejoin: miter; stroke-linecap: square"/>
   </g>
   <g id="text_17">
    <!-- Number of AEDs in the OpenStreetMap database in Poland from 2025-01-01, day by day. As at: 2025-02-21 -->
    <g transform="translate(144 63.12) scale(0.14 -0.14)">
     <defs>
      <path id="DejaVuSans-4e" d="M 628 4666 
L 1478 4666 
L 3547 763 
L 3547 4666 
L 4159 4666 
L 4159 0 
L 3309 0 
L 1241 3903 
L 1241 0 
L 628 0 
L 628 4666 
z
" transform="scale(0.015625)"/>
      <path id="DejaVuSans-75" d="M 544 1381 
L 544 3500 
L 1119 3500 
L 1119 1403 
Q 1119 906 1312 657 
Q 1506 409 1894 409 
Q 2359 409 2629 706 
Q 2900 1003 2900 1516 
L 2900 3500 
L 3475 3500 
L 3475 0 
L 2900 0 
L 2900 538 
Q 2691 219 2414 64 
Q 2138 -91 1772 -91 
Q 1169 -91 856 284 
Q 544 659 544 1381 
z
M 1991 3584 
L 1991 3584 
z
" transform="scale(0.015625)"/>
      <path id="DejaVuSans-6d" d="M 3328 2828 
Q 3544 3216 3844 3400 
Q 4144 3584 4550 3584 
Q 5097 3584 5394 3201 
Q 5691 2819 5691 2113 
L 5691 0 
L 5113 0 
L 5113 2094 
Q 5113 2597 4934 2840 
Q 4756 3084 4391 3084 
Q 3944 3084 3684 2787 
Q 3425 2491 3425 1978 
L 3425 0 
L 2847 0 
L 2847 2094 
Q 2847 2600 2669 2842 
Q 2491 3084 2119 3084 
Q 1678 3084 1418 2786 
Q 1159 2488 1159 1978 
L 1159 0 
L 581 0 
L 581 3500 
L 1159 3500 
L 1159 2956 
Q 1356 3278 1631 3431 
Q 1906 3584 2284 3584 
Q 2666 3584 2933 3390 
Q 3200 3197 3328 2828 
z
" transform="scale(0.015625)"/>
      <path id="DejaVuSans-62" d="M 3116 1747 
Q 3116 2381 2855 2742 
Q 2594 3103 2138 3103 
Q 1681 3103 1420 2742 
Q 1159 2381 1159 1747 
Q 1159 1113 1420 752 
Q 1681 391 2138 391 
Q 2594 391 2855 752 
Q 3116 1113 3116 1747 
z
M 1159 2969 
Q 1341 3281 1617 3432 
Q 1894 3584 2278 3584 
Q 2916 3584 3314 3078 
Q 3713 2572 3713 1747 
Q 3713 922 3314 415 
Q 2916 -91 2278 -91 
Q 1894 -91 1617 61 
Q 1341 213 1159 525 
L 1159 0 
L 581 0 
L 581 4863 
L 1159 4863 
L 1159 2969 
z
" transform="scale(0.015625)"/>
      <path id="DejaVuSans-65" d="M 3597 1894 
L 3597 1613 
L 953 1613 
Q 991 1019 1311 708 
Q 1631 397 2203 397 
Q 2534 397 2845 478 
Q 3156 559 3463 722 
L 3463 178 
Q 3153 47 2828 -22 
Q 2503 -91 2169 -91 
Q 1331 -91 842 396 
Q 353 884 353 1716 
Q 353 2575 817 3079 
Q 1281 3584 2069 3584 
Q 2775 3584 3186 3129 
Q 3597 2675 3597 1894 
z
M 3022 2063 
Q 3016 2534 2758 2815 
Q 2500 3097 2075 3097 
Q 1594 3097 1305 2825 
Q 1016 2553 972 2059 
L 3022 2063 
z
" transform="scale(0.015625)"/>
      <path id="DejaVuSans-72" d="M 2631 2963 
Q 2534 3019 2420 3045 
Q 2306 3072 2169 3072 
Q 1681 3072 1420 2755 
Q 1159 2438 1159 1844 
L 1159 0 
L 581 0 
L 581 3500 
L 1159 3500 
L 1159 2956 
Q 1341 3275 1631 3429 
Q 1922 3584 2338 3584 
Q 2397 3584 2469 3576 
Q 2541 3569 2628 3553 
L 2631 2963 
z
" transform="scale(0.015625)"/>
      <path id="DejaVuSans-20" transform="scale(0.015625)"/>
      <path id="DejaVuSans-6f" d="M 1959 3097 
Q 1497 3097 1228 2736 
Q 959 2375 959 1747 
Q 959 1119 1226 758 
Q 1494 397 1959 397 
Q 2419 397 2687 759 
Q 2956 1122 2956 1747 
Q 2956 2369 2687 2733 
Q 2419 3097 1959 3097 
z
M 1959 3584 
Q 2709 3584 3137 3096 
Q 3566 2609 3566 1747 
Q 3566 888 3137 398 
Q 2709 -91 1959 -91 
Q 1206 -91 779 398 
Q 353 888 353 1747 
Q 353 2609 779 3096 
Q 1206 3584 1959 3584 
z
" transform="scale(0.015625)"/>
      <path id="DejaVuSans-66" d="M 2375 4863 
L 2375 4384 
L 1825 4384 
Q 1516 4384 1395 4259 
Q 1275 4134 1275 3809 
L 1275 3500 
L 2222 3500 
L 2222 3053 
L 1275 3053 
L 1275 0 
L 697 0 
L 697 3053 
L 147 3053 
L 147 3500 
L 697 3500 
L 697 3744 
Q 697 4328 969 4595 
Q 1241 4863 1831 4863 
L 2375 4863 
z
" transform="scale(0.015625)"/>
      <path id="DejaVuSans-41" d="M 2188 4044 
L 1331 1722 
L 3047 1722 
L 2188 4044 
z
M 1831 4666 
L 2547 4666 
L 4325 0 
L 3669 0 
L 3244 1197 
L 1141 1197 
L 716 0 
L 50 0 
L 1831 4666 
z
" transform="scale(0.015625)"/>
      <path id="DejaVuSans-45" d="M 628 4666 
L 3578 4666 
L 3578 4134 
L 1259 4134 
L 1259 2753 
L 3481 2753 
L 3481 2222 
L 1259 2222 
L 1259 531 
L 3634 531 
L 3634 0 
L 628 0 
L 628 4666 
z
" transform="scale(0.015625)"/>
      <path id="DejaVuSans-44" d="M 1259 4147 
L 1259 519 
L 2022 519 
Q 2988 519 3436 956 
Q 3884 1394 3884 2338 
Q 3884 3275 3436 3711 
Q 2988 4147 2022 4147 
L 1259 4147 
z
M 628 4666 
L 1925 4666 
Q 3281 4666 3915 4102 
Q 4550 3538 4550 2338 
Q 4550 1131 3912 565 
Q 3275 0 1925 0 
L 628 0 
L 628 4666 
z
" transform="scale(0.015625)"/>
      <path id="DejaVuSans-73" d="M 2834 3397 
L 2834 2853 
Q 2591 2978 2328 3040 
Q 2066 3103 1784 3103 
Q 1356 3103 1142 2972 
Q 928 2841 928 2578 
Q 928 2378 1081 2264 
Q 1234 2150 1697 2047 
L 1894 2003 
Q 2506 1872 2764 1633 
Q 3022 1394 3022 966 
Q 3022 478 2636 193 
Q 2250 -91 1575 -91 
Q 1294 -91 989 -36 
Q 684 19 347 128 
L 347 722 
Q 666 556 975 473 
Q 1284 391 1588 391 
Q 1994 391 2212 530 
Q 2431 669 2431 922 
Q 2431 1156 2273 1281 
Q 2116 1406 1581 1522 
L 1381 1569 
Q 847 1681 609 1914 
Q 372 2147 372 2553 
Q 372 3047 722 3315 
Q 1072 3584 1716 3584 
Q 2034 3584 2315 3537 
Q 2597 3491 2834 3397 
z
" transform="scale(0.015625)"/>
      <path id="DejaVuSans-69" d="M 603 3500 
L 1178 3500 
L 1178 0 
L 603 0 
L 603 3500 
z
M 603 4863 
L 1178 4863 
L 1178 4134 
L 603 4134 
L 603 4863 
z
" transform="scale(0.015625)"/>
      <path id="DejaVuSans-6e" d="M 3513 2113 
L 3513 0 
L 2938 0 
L 2938 2094 
Q 2938 2591 2744 2837 
Q 2550 3084 2163 3084 
Q 1697 3084 1428 2787 
Q 1159 2491 1159 1978 
L 1159 0 
L 581 0 
L 581 3500 
L 1159 3500 
L 1159 2956 
Q 1366 3272 1645 3428 
Q 1925 3584 2291 3584 
Q 2894 3584 3203 3211 
Q 3513 2838 3513 2113 
z
" transform="scale(0.015625)"/>
      <path id="DejaVuSans-74" d="M 1172 4494 
L 1172 3500 
L 2356 3500 
L 2356 3053 
L 1172 3053 
L 1172 1153 
Q 1172 725 1289 603 
Q 1406 481 1766 481 
L 2356 481 
L 2356 0 
L 1766 0 
Q 1100 0 847 248 
Q 594 497 594 1153 
L 594 3053 
L 172 3053 
L 172 3500 
L 594 3500 
L 594 4494 
L 1172 4494 
z
" transform="scale(0.015625)"/>
      <path id="DejaVuSans-68" d="M 3513 2113 
L 3513 0 
L 2938 0 
L 2938 2094 
Q 2938 2591 2744 2837 
Q 2550 3084 2163 3084 
Q 1697 3084 1428 2787 
Q 1159 2491 1159 1978 
L 1159 0 
L 581 0 
L 581 4863 
L 1159 4863 
L 1159 2956 
Q 1366 3272 1645 3428 
Q 1925 3584 2291 3584 
Q 2894 3584 3203 3211 
Q 3513 2838 3513 2113 
z
" transform="scale(0.015625)"/>
      <path id="DejaVuSans-4f" d="M 2522 4238 
Q 1834 4238 1429 3725 
Q 1025 3213 1025 2328 
Q 1025 1447 1429 934 
Q 1834 422 2522 422 
Q 3209 422 3611 934 
Q 4013 1447 4013 2328 
Q 4013 3213 3611 3725 
Q 3209 4238 2522 4238 
z
M 2522 4750 
Q 3503 4750 4090 4092 
Q 4678 3434 4678 2328 
Q 4678 1225 4090 567 
Q 3503 -91 2522 -91 
Q 1538 -91 948 565 
Q 359 1222 359 2328 
Q 359 3434 948 4092 
Q 1538 4750 2522 4750 
z
" transform="scale(0.015625)"/>
      <path id="DejaVuSans-70" d="M 1159 525 
L 1159 -1331 
L 581 -1331 
L 581 3500 
L 1159 3500 
L 1159 2969 
Q 1341 3281 1617 3432 
Q 1894 3584 2278 3584 
Q 2916 3584 3314 3078 
Q 3713 2572 3713 1747 
Q 3713 922 3314 415 
Q 2916 -91 2278 -91 
Q 1894 -91 1617 61 
Q 1341 213 1159 525 
z
M 3116 1747 
Q 3116 2381 2855 2742 
Q 2594 3103 2138 3103 
Q 1681 3103 1420 2742 
Q 1159 2381 1159 1747 
Q 1159 1113 1420 752 
Q 1681 391 2138 391 
Q 2594 391 2855 752 
Q 3116 1113 3116 1747 
z
" transform="scale(0.015625)"/>
      <path id="DejaVuSans-53" d="M 3425 4513 
L 3425 3897 
Q 3066 4069 2747 4153 
Q 2428 4238 2131 4238 
Q 1616 4238 1336 4038 
Q 1056 3838 1056 3469 
Q 1056 3159 1242 3001 
Q 1428 2844 1947 2747 
L 2328 2669 
Q 3034 2534 3370 2195 
Q 3706 1856 3706 1288 
Q 3706 609 3251 259 
Q 2797 -91 1919 -91 
Q 1588 -91 1214 -16 
Q 841 59 441 206 
L 441 856 
Q 825 641 1194 531 
Q 1563 422 1919 422 
Q 2459 422 2753 634 
Q 3047 847 3047 1241 
Q 3047 1584 2836 1778 
Q 2625 1972 2144 2069 
L 1759 2144 
Q 1053 2284 737 2584 
Q 422 2884 422 3419 
Q 422 4038 858 4394 
Q 1294 4750 2059 4750 
Q 2388 4750 2728 4690 
Q 3069 4631 3425 4513 
z
" transform="scale(0.015625)"/>
      <path id="DejaVuSans-4d" d="M 628 4666 
L 1569 4666 
L 2759 1491 
L 3956 4666 
L 4897 4666 
L 4897 0 
L 4281 0 
L 4281 4097 
L 3078 897 
L 2444 897 
L 1241 4097 
L 1241 0 
L 628 0 
L 628 4666 
z
" transform="scale(0.015625)"/>
      <path id="DejaVuSans-61" d="M 2194 1759 
Q 1497 1759 1228 1600 
Q 959 1441 959 1056 
Q 959 750 1161 570 
Q 1363 391 1709 391 
Q 2188 391 2477 730 
Q 2766 1069 2766 1631 
L 2766 1759 
L 2194 1759 
z
M 3341 1997 
L 3341 0 
L 2766 0 
L 2766 531 
Q 2569 213 2275 61 
Q 1981 -91 1556 -91 
Q 1019 -91 701 211 
Q 384 513 384 1019 
Q 384 1609 779 1909 
Q 1175 2209 1959 2209 
L 2766 2209 
L 2766 2266 
Q 2766 2663 2505 2880 
Q 2244 3097 1772 3097 
Q 1472 3097 1187 3025 
Q 903 2953 641 2809 
L 641 3341 
Q 956 3463 1253 3523 
Q 1550 3584 1831 3584 
Q 2591 3584 2966 3190 
Q 3341 2797 3341 1997 
z
" transform="scale(0.015625)"/>
      <path id="DejaVuSans-64" d="M 2906 2969 
L 2906 4863 
L 3481 4863 
L 3481 0 
L 2906 0 
L 2906 525 
Q 2725 213 2448 61 
Q 2172 -91 1784 -91 
Q 1150 -91 751 415 
Q 353 922 353 1747 
Q 353 2572 751 3078 
Q 1150 3584 1784 3584 
Q 2172 3584 2448 3432 
Q 2725 3281 2906 2969 
z
M 947 1747 
Q 947 1113 1208 752 
Q 1469 391 1925 391 
Q 2381 391 2643 752 
Q 2906 1113 2906 1747 
Q 2906 2381 2643 2742 
Q 2381 3103 1925 3103 
Q 1469 3103 1208 2742 
Q 947 2381 947 1747 
z
" transform="scale(0.015625)"/>
      <path id="DejaVuSans-50" d="M 1259 4147 
L 1259 2394 
L 2053 2394 
Q 2494 2394 2734 2622 
Q 2975 2850 2975 3272 
Q 2975 3691 2734 3919 
Q 2494 4147 2053 4147 
L 1259 4147 
z
M 628 4666 
L 2053 4666 
Q 2838 4666 3239 4311 
Q 3641 3956 3641 3272 
Q 3641 2581 3239 2228 
Q 2838 1875 2053 1875 
L 1259 1875 
L 1259 0 
L 628 0 
L 628 4666 
z
" transform="scale(0.015625)"/>
      <path id="DejaVuSans-6c" d="M 603 4863 
L 1178 4863 
L 1178 0 
L 603 0 
L 603 4863 
z
" transform="scale(0.015625)"/>
      <path id="DejaVuSans-2c" d="M 750 794 
L 1409 794 
L 1409 256 
L 897 -744 
L 494 -744 
L 750 256 
L 750 794 
z
" transform="scale(0.015625)"/>
      <path id="DejaVuSans-79" d="M 2059 -325 
Q 1816 -950 1584 -1140 
Q 1353 -1331 966 -1331 
L 506 -1331 
L 506 -850 
L 844 -850 
Q 1081 -850 1212 -737 
Q 1344 -625 1503 -206 
L 1606 56 
L 191 3500 
L 800 3500 
L 1894 763 
L 2988 3500 
L 3597 3500 
L 2059 -325 
z
" transform="scale(0.015625)"/>
      <path id="DejaVuSans-2e" d="M 684 794 
L 1344 794 
L 1344 0 
L 684 0 
L 684 794 
z
" transform="scale(0.015625)"/>
      <path id="DejaVuSans-3a" d="M 750 794 
L 1409 794 
L 1409 0 
L 750 0 
L 750 794 
z
M 750 3309 
L 1409 3309 
L 1409 2516 
L 750 2516 
L 750 3309 
z
" transform="scale(0.015625)"/>
     </defs>
     <use xlink:href="#DejaVuSans-4e"/>
     <use xlink:href="#DejaVuSans-75" x="74.804688"/>
     <use xlink:href="#DejaVuSans-6d" x="138.183594"/>
     <use xlink:href="#DejaVuSans-62" x="235.595703"/>
     <use xlink:href="#DejaVuSans-65" x="299.072266"/>
     <use xlink:href="#DejaVuSans-72" x="360.595703"/>
     <use xlink:href="#DejaVuSans-20" x="401.708984"/>
     <use xlink:href="#DejaVuSans-6f" x="433.496094"/>
     <use xlink:href="#DejaVuSans-66" x="494.677734"/>
     <use xlink:href="#DejaVuSans-20" x="529.882812"/>
     <use xlink:href="#DejaVuSans-41" x="561.669922"/>
     <use xlink:href="#DejaVuSans-45" x="630.078125"/>
     <use xlink:href="#DejaVuSans-44" x="693.261719"/>
     <use xlink:href="#DejaVuSans-73" x="770.263672"/>
     <use xlink:href="#DejaVuSans-20" x="822.363281"/>
     <use xlink:href="#DejaVuSans-69" x="854.150391"/>
     <use xlink:href="#DejaVuSans-6e" x="881.933594"/>
     <use xlink:href="#DejaVuSans-20" x="945.3125"/>
     <use xlink:href="#DejaVuSans-74" x="977.099609"/>
     <use xlink:href="#DejaVuSans-68" x="1016.308594"/>
     <use xlink:href="#DejaVuSans-65" x="1079.6875"/>
     <use xlink:href="#DejaVuSans-20" x="1141.210938"/>
     <use xlink:href="#DejaVuSans-4f" x="1172.998047"/>
     <use xlink:href="#DejaVuSans-70" x="1251.708984"/>
     <use xlink:href="#DejaVuSans-65" x="1315.185547"/>
     <use xlink:href="#DejaVuSans-6e" x="1376.708984"/>
     <use xlink:href="#DejaVuSans-53" x="1440.087891"/>
     <use xlink:href="#DejaVuSans-74" x="1503.564453"/>
     <use xlink:href="#DejaVuSans-72" x="1542.773438"/>
     <use xlink:href="#DejaVuSans-65" x="1581.636719"/>
     <use xlink:href="#DejaVuSans-65" x="1643.160156"/>
     <use xlink:href="#DejaVuSans-74" x="1704.683594"/>
     <use xlink:href="#DejaVuSans-4d" x="1743.892578"/>
     <use xlink:href="#DejaVuSans-61" x="1830.171875"/>
     <use xlink:href="#DejaVuSans-70" x="1891.451172"/>
     <use xlink:href="#DejaVuSans-20" x="1954.927734"/>
     <use xlink:href="#DejaVuSans-64" x="1986.714844"/>
     <use xlink:href="#DejaVuSans-61" x="2050.191406"/>
     <use xlink:href="#DejaVuSans-74" x="2111.470703"/>
     <use xlink:href="#DejaVuSans-61" x="2150.679688"/>
     <use xlink:href="#DejaVuSans-62" x="2211.958984"/>
     <use xlink:href="#DejaVuSans-61" x="2275.435547"/>
     <use xlink:href="#DejaVuSans-73" x="2336.714844"/>
     <use xlink:href="#DejaVuSans-65" x="2388.814453"/>
     <use xlink:href="#DejaVuSans-20" x="2450.337891"/>
     <use xlink:href="#DejaVuSans-69" x="2482.125"/>
     <use xlink:href="#DejaVuSans-6e" x="2509.908203"/>
     <use xlink:href="#DejaVuSans-20" x="2573.287109"/>
     <use xlink:href="#DejaVuSans-50" x="2605.074219"/>
     <use xlink:href="#DejaVuSans-6f" x="2661.751953"/>
     <use xlink:href="#DejaVuSans-6c" x="2722.933594"/>
     <use xlink:href="#DejaVuSans-61" x="2750.716797"/>
     <use xlink:href="#DejaVuSans-6e" x="2811.996094"/>
     <use xlink:href="#DejaVuSans-64" x="2875.375"/>
     <use xlink:href="#DejaVuSans-20" x="2938.851562"/>
     <use xlink:href="#DejaVuSans-66" x="2970.638672"/>
     <use xlink:href="#DejaVuSans-72" x="3005.84375"/>
     <use xlink:href="#DejaVuSans-6f" x="3044.707031"/>
     <use xlink:href="#DejaVuSans-6d" x="3105.888672"/>
     <use xlink:href="#DejaVuSans-20" x="3203.300781"/>
     <use xlink:href="#DejaVuSans-32" x="3235.087891"/>
     <use xlink:href="#DejaVuSans-30" x="3298.710938"/>
     <use xlink:href="#DejaVuSans-32" x="3362.333984"/>
     <use xlink:href="#DejaVuSans-35" x="3425.957031"/>
     <use xlink:href="#DejaVuSans-2d" x="3489.580078"/>
     <use xlink:href="#DejaVuSans-30" x="3525.664062"/>
     <use xlink:href="#DejaVuSans-31" x="3589.287109"/>
     <use xlink:href="#DejaVuSans-2d" x="3652.910156"/>
     <use xlink:href="#DejaVuSans-30" x="3688.994141"/>
     <use xlink:href="#DejaVuSans-31" x="3752.617188"/>
     <use xlink:href="#DejaVuSans-2c" x="3816.240234"/>
     <use xlink:href="#DejaVuSans-20" x="3848.027344"/>
     <use xlink:href="#DejaVuSans-64" x="3879.814453"/>
     <use xlink:href="#DejaVuSans-61" x="3943.291016"/>
     <use xlink:href="#DejaVuSans-79" x="4004.570312"/>
     <use xlink:href="#DejaVuSans-20" x="4063.75"/>
     <use xlink:href="#DejaVuSans-62" x="4095.537109"/>
     <use xlink:href="#DejaVuSans-79" x="4159.013672"/>
     <use xlink:href="#DejaVuSans-20" x="4218.193359"/>
     <use xlink:href="#DejaVuSans-64" x="4249.980469"/>
     <use xlink:href="#DejaVuSans-61" x="4313.457031"/>
     <use xlink:href="#DejaVuSans-79" x="4374.736328"/>
     <use xlink:href="#DejaVuSans-2e" x="4419.666016"/>
     <use xlink:href="#DejaVuSans-20" x="4451.453125"/>
     <use xlink:href="#DejaVuSans-41" x="4483.240234"/>
     <use xlink:href="#DejaVuSans-73" x="4551.648438"/>
     <use xlink:href="#DejaVuSans-20" x="4603.748047"/>
     <use xlink:href="#DejaVuSans-61" x="4635.535156"/>
     <use xlink:href="#DejaVuSans-74" x="4696.814453"/>
     <use xlink:href="#DejaVuSans-3a" x="4736.023438"/>
     <use xlink:href="#DejaVuSans-20" x="4769.714844"/>
     <use xlink:href="#DejaVuSans-32" x="4801.501953"/>
     <use xlink:href="#DejaVuSans-30" x="4865.125"/>
     <use xlink:href="#DejaVuSans-32" x="4928.748047"/>
     <use xlink:href="#DejaVuSans-35" x="4992.371094"/>
     <use xlink:href="#DejaVuSans-2d" x="5055.994141"/>
     <use xlink:href="#DejaVuSans-30" x="5092.078125"/>
     <use xlink:href="#DejaVuSans-32" x="5155.701172"/>
     <use xlink:href="#DejaVuSans-2d" x="5219.324219"/>
     <use xlink:href="#DejaVuSans-32" x="5255.408203"/>
     <use xlink:href="#DejaVuSans-31" x="5319.03125"/>
    </g>
   </g>
  </g>
 </g>
 <defs>
  <clipPath id="pee27dc6dde">
   <rect x="144" y="69.12" width="892.8" height="443.52"/>
  </clipPath>
 </defs>
</svg>
