<?xml version="1.0" encoding="utf-8" standalone="no"?>
<!DOCTYPE svg PUBLIC "-//W3C//DTD SVG 1.1//EN"
  "http://www.w3.org/Graphics/SVG/1.1/DTD/svg11.dtd">
<svg xmlns:xlink="http://www.w3.org/1999/xlink" width="1152pt" height="576pt" viewBox="0 0 1152 576" xmlns="http://www.w3.org/2000/svg" version="1.1">
 <metadata>
  <rdf:RDF xmlns:dc="http://purl.org/dc/elements/1.1/" xmlns:cc="http://creativecommons.org/ns#" xmlns:rdf="http://www.w3.org/1999/02/22-rdf-syntax-ns#">
   <cc:Work>
    <dc:type rdf:resource="http://purl.org/dc/dcmitype/StillImage"/>
    <dc:date>2022-04-01T09:34:24.911421</dc:date>
    <dc:format>image/svg+xml</dc:format>
    <dc:creator>
     <cc:Agent>
      <dc:title>Matplotlib v3.5.1, https://matplotlib.org/</dc:title>
     </cc:Agent>
    </dc:creator>
   </cc:Work>
  </rdf:RDF>
 </metadata>
 <defs>
  <style type="text/css">*{stroke-linejoin: round; stroke-linecap: butt}</style>
 </defs>
 <g id="figure_1">
  <g id="patch_1">
   <path d="M 0 576 
L 1152 576 
L 1152 0 
L 0 0 
z
" style="fill: #ffffff"/>
  </g>
  <g id="axes_1">
   <g id="patch_2">
    <path d="M 144 512.64 
L 1036.8 512.64 
L 1036.8 69.12 
L 144 69.12 
z
" style="fill: #ffffff"/>
   </g>
   <g id="PathCollection_1">
    <path d="M 184.581818 502.48 
C 187.233849 502.48 189.777617 501.426337 191.652886 499.551068 
C 193.528155 497.675799 194.581818 495.132031 194.581818 492.48 
C 194.581818 489.827969 193.528155 487.284201 191.652886 485.408932 
C 189.777617 483.533663 187.233849 482.48 184.581818 482.48 
C 181.929787 482.48 179.386019 483.533663 177.51075 485.408932 
C 175.635481 487.284201 174.581818 489.827969 174.581818 492.48 
C 174.581818 495.132031 175.635481 497.675799 177.51075 499.551068 
C 179.386019 501.426337 181.929787 502.48 184.581818 502.48 
z
" clip-path="url(#p033fd6a11c)" style="fill: #1f77b4; fill-opacity: 0.3; stroke: #1f77b4; stroke-opacity: 0.3"/>
    <path d="M 193.6 494.759387 
C 194.326289 494.759387 195.022928 494.47083 195.536492 493.957266 
C 196.050055 493.443703 196.338613 492.747063 196.338613 492.020774 
C 196.338613 491.294486 196.050055 490.597846 195.536492 490.084283 
C 195.022928 489.570719 194.326289 489.282162 193.6 489.282162 
C 192.873711 489.282162 192.177072 489.570719 191.663508 490.084283 
C 191.149945 490.597846 190.861387 491.294486 190.861387 492.020774 
C 190.861387 492.747063 191.149945 493.443703 191.663508 493.957266 
C 192.177072 494.47083 192.873711 494.759387 193.6 494.759387 
z
" clip-path="url(#p033fd6a11c)" style="fill: #1f77b4; fill-opacity: 0.3; stroke: #1f77b4; stroke-opacity: 0.3"/>
    <path d="M 202.618182 494.975307 
C 203.645309 494.975307 204.630506 494.567225 205.356795 493.840936 
C 206.083083 493.114648 206.491165 492.129451 206.491165 491.102323 
C 206.491165 490.075196 206.083083 489.089999 205.356795 488.363711 
C 204.630506 487.637422 203.645309 487.22934 202.618182 487.22934 
C 201.591055 487.22934 200.605858 487.637422 199.879569 488.363711 
C 199.15328 489.089999 198.745198 490.075196 198.745198 491.102323 
C 198.745198 492.129451 199.15328 493.114648 199.879569 493.840936 
C 200.605858 494.567225 201.591055 494.975307 202.618182 494.975307 
z
" clip-path="url(#p033fd6a11c)" style="fill: #1f77b4; fill-opacity: 0.3; stroke: #1f77b4; stroke-opacity: 0.3"/>
    <path d="M 211.636364 494.214097 
C 212.745788 494.214097 213.809922 493.773319 214.594404 492.988837 
C 215.378885 492.204356 215.819664 491.140221 215.819664 490.030797 
C 215.819664 488.921373 215.378885 487.857239 214.594404 487.072757 
C 213.809922 486.288276 212.745788 485.847497 211.636364 485.847497 
C 210.526939 485.847497 209.462805 486.288276 208.678324 487.072757 
C 207.893842 487.857239 207.453064 488.921373 207.453064 490.030797 
C 207.453064 491.140221 207.893842 492.204356 208.678324 492.988837 
C 209.462805 493.773319 210.526939 494.214097 211.636364 494.214097 
z
" clip-path="url(#p033fd6a11c)" style="fill: #1f77b4; fill-opacity: 0.3; stroke: #1f77b4; stroke-opacity: 0.3"/>
    <path d="M 220.654545 492.800955 
C 221.59218 492.800955 222.491538 492.428429 223.154545 491.765421 
C 223.817553 491.102414 224.190079 490.203056 224.190079 489.265421 
C 224.190079 488.327787 223.817553 487.428429 223.154545 486.765421 
C 222.491538 486.102414 221.59218 485.729888 220.654545 485.729888 
C 219.716911 485.729888 218.817553 486.102414 218.154545 486.765421 
C 217.491538 487.428429 217.119012 488.327787 217.119012 489.265421 
C 217.119012 490.203056 217.491538 491.102414 218.154545 491.765421 
C 218.817553 492.428429 219.716911 492.800955 220.654545 492.800955 
z
" clip-path="url(#p033fd6a11c)" style="fill: #1f77b4; fill-opacity: 0.3; stroke: #1f77b4; stroke-opacity: 0.3"/>
    <path d="M 229.672727 491.195339 
C 230.265739 491.195339 230.834543 490.959733 231.253866 490.54041 
C 231.673189 490.121087 231.908795 489.552283 231.908795 488.959271 
C 231.908795 488.366259 231.673189 487.797455 231.253866 487.378132 
C 230.834543 486.958809 230.265739 486.723203 229.672727 486.723203 
C 229.079715 486.723203 228.510911 486.958809 228.091588 487.378132 
C 227.672266 487.797455 227.436659 488.366259 227.436659 488.959271 
C 227.436659 489.552283 227.672266 490.121087 228.091588 490.54041 
C 228.510911 490.959733 229.079715 491.195339 229.672727 491.195339 
z
" clip-path="url(#p033fd6a11c)" style="fill: #1f77b4; fill-opacity: 0.3; stroke: #1f77b4; stroke-opacity: 0.3"/>
    <path d="M 238.690909 491.509248 
C 239.529555 491.509248 240.333965 491.176051 240.926977 490.583038 
C 241.519989 489.990026 241.853187 489.185616 241.853187 488.34697 
C 241.853187 487.508325 241.519989 486.703915 240.926977 486.110902 
C 240.333965 485.51789 239.529555 485.184693 238.690909 485.184693 
C 237.852263 485.184693 237.047853 485.51789 236.454841 486.110902 
C 235.861829 486.703915 235.528631 487.508325 235.528631 488.34697 
C 235.528631 489.185616 235.861829 489.990026 236.454841 490.583038 
C 237.047853 491.176051 237.852263 491.509248 238.690909 491.509248 
z
" clip-path="url(#p033fd6a11c)" style="fill: #1f77b4; fill-opacity: 0.3; stroke: #1f77b4; stroke-opacity: 0.3"/>
    <path d="M 247.709091 492.05787 
C 249.220981 492.05787 250.671152 491.45719 251.74022 490.388122 
C 252.809288 489.319054 253.409968 487.868883 253.409968 486.356993 
C 253.409968 484.845103 252.809288 483.394932 251.74022 482.325864 
C 250.671152 481.256796 249.220981 480.656116 247.709091 480.656116 
C 246.197201 480.656116 244.74703 481.256796 243.677962 482.325864 
C 242.608894 483.394932 242.008214 484.845103 242.008214 486.356993 
C 242.008214 487.868883 242.608894 489.319054 243.677962 490.388122 
C 244.74703 491.45719 246.197201 492.05787 247.709091 492.05787 
z
" clip-path="url(#p033fd6a11c)" style="fill: #1f77b4; fill-opacity: 0.3; stroke: #1f77b4; stroke-opacity: 0.3"/>
    <path d="M 256.727273 489.826241 
C 258.053288 489.826241 259.325172 489.29941 260.262807 488.361775 
C 261.200441 487.424141 261.727273 486.152257 261.727273 484.826241 
C 261.727273 483.500226 261.200441 482.228342 260.262807 481.290708 
C 259.325172 480.353073 258.053288 479.826241 256.727273 479.826241 
C 255.401257 479.826241 254.129373 480.353073 253.191739 481.290708 
C 252.254104 482.228342 251.727273 483.500226 251.727273 484.826241 
C 251.727273 486.152257 252.254104 487.424141 253.191739 488.361775 
C 254.129373 489.29941 255.401257 489.826241 256.727273 489.826241 
z
" clip-path="url(#p033fd6a11c)" style="fill: #1f77b4; fill-opacity: 0.3; stroke: #1f77b4; stroke-opacity: 0.3"/>
    <path d="M 265.745455 487.780774 
C 266.772582 487.780774 267.757779 487.372692 268.484067 486.646403 
C 269.210356 485.920115 269.618438 484.934918 269.618438 483.90779 
C 269.618438 482.880663 269.210356 481.895466 268.484067 481.169178 
C 267.757779 480.442889 266.772582 480.034807 265.745455 480.034807 
C 264.718327 480.034807 263.73313 480.442889 263.006842 481.169178 
C 262.280553 481.895466 261.872471 482.880663 261.872471 483.90779 
C 261.872471 484.934918 262.280553 485.920115 263.006842 486.646403 
C 263.73313 487.372692 264.718327 487.780774 265.745455 487.780774 
z
" clip-path="url(#p033fd6a11c)" style="fill: #1f77b4; fill-opacity: 0.3; stroke: #1f77b4; stroke-opacity: 0.3"/>
    <path d="M 274.763636 486.677948 
C 275.701271 486.677948 276.600629 486.305422 277.263636 485.642415 
C 277.926644 484.979407 278.29917 484.080049 278.29917 483.142415 
C 278.29917 482.20478 277.926644 481.305422 277.263636 480.642415 
C 276.600629 479.979407 275.701271 479.606881 274.763636 479.606881 
C 273.826002 479.606881 272.926644 479.979407 272.263636 480.642415 
C 271.600629 481.305422 271.228102 482.20478 271.228102 483.142415 
C 271.228102 484.080049 271.600629 484.979407 272.263636 485.642415 
C 272.926644 486.305422 273.826002 486.677948 274.763636 486.677948 
z
" clip-path="url(#p033fd6a11c)" style="fill: #1f77b4; fill-opacity: 0.3; stroke: #1f77b4; stroke-opacity: 0.3"/>
    <path d="M 283.781818 487.118541 
C 286.297756 487.118541 288.710986 486.118949 290.490022 484.339912 
C 292.269059 482.560876 293.268651 480.147646 293.268651 477.631708 
C 293.268651 475.115771 292.269059 472.702541 290.490022 470.923504 
C 288.710986 469.144468 286.297756 468.144875 283.781818 468.144875 
C 281.265881 468.144875 278.852651 469.144468 277.073614 470.923504 
C 275.294578 472.702541 274.294985 475.115771 274.294985 477.631708 
C 274.294985 480.147646 275.294578 482.560876 277.073614 484.339912 
C 278.852651 486.118949 281.265881 487.118541 283.781818 487.118541 
z
" clip-path="url(#p033fd6a11c)" style="fill: #1f77b4; fill-opacity: 0.3; stroke: #1f77b4; stroke-opacity: 0.3"/>
    <path d="M 292.8 480.984599 
C 295.881382 480.984599 298.836973 479.760353 301.015838 477.581488 
C 303.194704 475.402622 304.41895 472.447031 304.41895 469.365649 
C 304.41895 466.284268 303.194704 463.328677 301.015838 461.149811 
C 298.836973 458.970945 295.881382 457.746699 292.8 457.746699 
C 289.718618 457.746699 286.763027 458.970945 284.584162 461.149811 
C 282.405296 463.328677 281.18105 466.284268 281.18105 469.365649 
C 281.18105 472.447031 282.405296 475.402622 284.584162 477.581488 
C 286.763027 479.760353 289.718618 480.984599 292.8 480.984599 
z
" clip-path="url(#p033fd6a11c)" style="fill: #1f77b4; fill-opacity: 0.3; stroke: #1f77b4; stroke-opacity: 0.3"/>
    <path d="M 301.818182 473.076549 
C 303.330072 473.076549 304.780243 472.475869 305.849311 471.406801 
C 306.918379 470.337733 307.519059 468.887562 307.519059 467.375672 
C 307.519059 465.863782 306.918379 464.413611 305.849311 463.344543 
C 304.780243 462.275475 303.330072 461.674795 301.818182 461.674795 
C 300.306292 461.674795 298.856121 462.275475 297.787053 463.344543 
C 296.717985 464.413611 296.117305 465.863782 296.117305 467.375672 
C 296.117305 468.887562 296.717985 470.337733 297.787053 471.406801 
C 298.856121 472.475869 300.306292 473.076549 301.818182 473.076549 
z
" clip-path="url(#p033fd6a11c)" style="fill: #1f77b4; fill-opacity: 0.3; stroke: #1f77b4; stroke-opacity: 0.3"/>
    <path d="M 310.836364 471.458481 
C 313.015229 471.458481 315.105148 470.592808 316.645839 469.052117 
C 318.186529 467.511427 319.052202 465.421508 319.052202 463.242642 
C 319.052202 461.063777 318.186529 458.973858 316.645839 457.433167 
C 315.105148 455.892477 313.015229 455.026804 310.836364 455.026804 
C 308.657498 455.026804 306.567579 455.892477 305.026889 457.433167 
C 303.486198 458.973858 302.620525 461.063777 302.620525 463.242642 
C 302.620525 465.421508 303.486198 467.511427 305.026889 469.052117 
C 306.567579 470.592808 308.657498 471.458481 310.836364 471.458481 
z
" clip-path="url(#p033fd6a11c)" style="fill: #1f77b4; fill-opacity: 0.3; stroke: #1f77b4; stroke-opacity: 0.3"/>
    <path d="M 319.854545 466.769224 
C 322.819606 466.769224 325.663625 465.591193 327.76024 463.494578 
C 329.856854 461.397963 331.034885 458.553945 331.034885 455.588884 
C 331.034885 452.623823 329.856854 449.779804 327.76024 447.68319 
C 325.663625 445.586575 322.819606 444.408544 319.854545 444.408544 
C 316.889485 444.408544 314.045466 445.586575 311.948851 447.68319 
C 309.852237 449.779804 308.674206 452.623823 308.674206 455.588884 
C 308.674206 458.553945 309.852237 461.397963 311.948851 463.494578 
C 314.045466 465.591193 316.889485 466.769224 319.854545 466.769224 
z
" clip-path="url(#p033fd6a11c)" style="fill: #1f77b4; fill-opacity: 0.3; stroke: #1f77b4; stroke-opacity: 0.3"/>
    <path d="M 328.872727 457.549415 
C 332.599751 457.549415 336.174627 456.068652 338.810031 453.433249 
C 341.445434 450.797845 342.926197 447.222969 342.926197 443.495945 
C 342.926197 439.768922 341.445434 436.194046 338.810031 433.558642 
C 336.174627 430.923238 332.599751 429.442476 328.872727 429.442476 
C 325.145704 429.442476 321.570827 430.923238 318.935424 433.558642 
C 316.30002 436.194046 314.819258 439.768922 314.819258 443.495945 
C 314.819258 447.222969 316.30002 450.797845 318.935424 453.433249 
C 321.570827 456.068652 325.145704 457.549415 328.872727 457.549415 
z
" clip-path="url(#p033fd6a11c)" style="fill: #1f77b4; fill-opacity: 0.3; stroke: #1f77b4; stroke-opacity: 0.3"/>
    <path d="M 337.890909 447.541812 
C 340.262958 447.541812 342.538173 446.599387 344.215464 444.922095 
C 345.892756 443.244804 346.835181 440.969589 346.835181 438.59754 
C 346.835181 436.225491 345.892756 433.950276 344.215464 432.272985 
C 342.538173 430.595693 340.262958 429.653268 337.890909 429.653268 
C 335.51886 429.653268 333.243645 430.595693 331.566354 432.272985 
C 329.889062 433.950276 328.946637 436.225491 328.946637 438.59754 
C 328.946637 440.969589 329.889062 443.244804 331.566354 444.922095 
C 333.243645 446.599387 335.51886 447.541812 337.890909 447.541812 
z
" clip-path="url(#p033fd6a11c)" style="fill: #1f77b4; fill-opacity: 0.3; stroke: #1f77b4; stroke-opacity: 0.3"/>
    <path d="M 346.909091 442.669702 
C 348.963345 442.669702 350.933739 441.853539 352.386316 440.400961 
C 353.838894 438.948384 354.655058 436.97799 354.655058 434.923736 
C 354.655058 432.869481 353.838894 430.899087 352.386316 429.44651 
C 350.933739 427.993933 348.963345 427.177769 346.909091 427.177769 
C 344.854837 427.177769 342.884443 427.993933 341.431865 429.44651 
C 339.979288 430.899087 339.163124 432.869481 339.163124 434.923736 
C 339.163124 436.97799 339.979288 438.948384 341.431865 440.400961 
C 342.884443 441.853539 344.854837 442.669702 346.909091 442.669702 
z
" clip-path="url(#p033fd6a11c)" style="fill: #1f77b4; fill-opacity: 0.3; stroke: #1f77b4; stroke-opacity: 0.3"/>
    <path d="M 355.927273 438.564059 
C 357.37985 438.564059 358.773129 437.986944 359.800256 436.959817 
C 360.827383 435.93269 361.404498 434.539411 361.404498 433.086834 
C 361.404498 431.634257 360.827383 430.240978 359.800256 429.21385 
C 358.773129 428.186723 357.37985 427.609608 355.927273 427.609608 
C 354.474696 427.609608 353.081417 428.186723 352.054289 429.21385 
C 351.027162 430.240978 350.450047 431.634257 350.450047 433.086834 
C 350.450047 434.539411 351.027162 435.93269 352.054289 436.959817 
C 353.081417 437.986944 354.474696 438.564059 355.927273 438.564059 
z
" clip-path="url(#p033fd6a11c)" style="fill: #1f77b4; fill-opacity: 0.3; stroke: #1f77b4; stroke-opacity: 0.3"/>
    <path d="M 364.945455 430.278218 
C 369.924638 430.278218 374.700558 428.299967 378.221373 424.779153 
C 381.742187 421.258338 383.720438 416.482418 383.720438 411.503235 
C 383.720438 406.524051 381.742187 401.748131 378.221373 398.227317 
C 374.700558 394.706502 369.924638 392.728251 364.945455 392.728251 
C 359.966271 392.728251 355.190351 394.706502 351.669536 398.227317 
C 348.148722 401.748131 346.170471 406.524051 346.170471 411.503235 
C 346.170471 416.482418 348.148722 421.258338 351.669536 424.779153 
C 355.190351 428.299967 359.966271 430.278218 364.945455 430.278218 
z
" clip-path="url(#p033fd6a11c)" style="fill: #1f77b4; fill-opacity: 0.3; stroke: #1f77b4; stroke-opacity: 0.3"/>
    <path d="M 373.963636 414.132528 
C 377.421462 414.132528 380.738129 412.758719 383.183181 410.313667 
C 385.628233 407.868616 387.002041 404.551948 387.002041 401.094123 
C 387.002041 397.636298 385.628233 394.31963 383.183181 391.874579 
C 380.738129 389.429527 377.421462 388.055718 373.963636 388.055718 
C 370.505811 388.055718 367.189144 389.429527 364.744092 391.874579 
C 362.29904 394.31963 360.925232 397.636298 360.925232 401.094123 
C 360.925232 404.551948 362.29904 407.868616 364.744092 410.313667 
C 367.189144 412.758719 370.505811 414.132528 373.963636 414.132528 
z
" clip-path="url(#p033fd6a11c)" style="fill: #1f77b4; fill-opacity: 0.3; stroke: #1f77b4; stroke-opacity: 0.3"/>
    <path d="M 382.981818 405.172938 
C 385.078433 405.172938 387.089458 404.339944 388.571988 402.857414 
C 390.054519 401.374883 390.887512 399.363858 390.887512 397.267244 
C 390.887512 395.170629 390.054519 393.159604 388.571988 391.677074 
C 387.089458 390.194543 385.078433 389.36155 382.981818 389.36155 
C 380.885204 389.36155 378.874179 390.194543 377.391648 391.677074 
C 375.909118 393.159604 375.076124 395.170629 375.076124 397.267244 
C 375.076124 399.363858 375.909118 401.374883 377.391648 402.857414 
C 378.874179 404.339944 380.885204 405.172938 382.981818 405.172938 
z
" clip-path="url(#p033fd6a11c)" style="fill: #1f77b4; fill-opacity: 0.3; stroke: #1f77b4; stroke-opacity: 0.3"/>
    <path d="M 392 396.934231 
C 396.417841 396.934231 400.655334 395.179004 403.779219 392.055119 
C 406.903104 388.931233 408.658331 384.693741 408.658331 380.2759 
C 408.658331 375.858059 406.903104 371.620566 403.779219 368.496681 
C 400.655334 365.372795 396.417841 363.617569 392 363.617569 
C 387.582159 363.617569 383.344666 365.372795 380.220781 368.496681 
C 377.096896 371.620566 375.341669 375.858059 375.341669 380.2759 
C 375.341669 384.693741 377.096896 388.931233 380.220781 392.055119 
C 383.344666 395.179004 387.582159 396.934231 392 396.934231 
z
" clip-path="url(#p033fd6a11c)" style="fill: #1f77b4; fill-opacity: 0.3; stroke: #1f77b4; stroke-opacity: 0.3"/>
    <path d="M 401.018182 384.093693 
C 403.735705 384.093693 406.342291 383.01401 408.26387 381.092431 
C 410.185449 379.170852 411.265133 376.564266 411.265133 373.846743 
C 411.265133 371.129219 410.185449 368.522633 408.26387 366.601054 
C 406.342291 364.679475 403.735705 363.599792 401.018182 363.599792 
C 398.300659 363.599792 395.694072 364.679475 393.772493 366.601054 
C 391.850914 368.522633 390.771231 371.129219 390.771231 373.846743 
C 390.771231 376.564266 391.850914 379.170852 393.772493 381.092431 
C 395.694072 383.01401 398.300659 384.093693 401.018182 384.093693 
z
" clip-path="url(#p033fd6a11c)" style="fill: #1f77b4; fill-opacity: 0.3; stroke: #1f77b4; stroke-opacity: 0.3"/>
    <path d="M 410.036364 377.822869 
C 412.552301 377.822869 414.965531 376.823277 416.744568 375.04424 
C 418.523604 373.265204 419.523197 370.851974 419.523197 368.336036 
C 419.523197 365.820099 418.523604 363.406869 416.744568 361.627833 
C 414.965531 359.848796 412.552301 358.849203 410.036364 358.849203 
C 407.520426 358.849203 405.107196 359.848796 403.32816 361.627833 
C 401.549123 363.406869 400.549531 365.820099 400.549531 368.336036 
C 400.549531 370.851974 401.549123 373.265204 403.32816 375.04424 
C 405.107196 376.823277 407.520426 377.822869 410.036364 377.822869 
z
" clip-path="url(#p033fd6a11c)" style="fill: #1f77b4; fill-opacity: 0.3; stroke: #1f77b4; stroke-opacity: 0.3"/>
    <path d="M 419.054545 371.642941 
C 422.164327 371.642941 425.147159 370.407412 427.346107 368.208464 
C 429.545055 366.009516 430.780585 363.026684 430.780585 359.916902 
C 430.780585 356.80712 429.545055 353.824288 427.346107 351.62534 
C 425.147159 349.426392 422.164327 348.190863 419.054545 348.190863 
C 415.944763 348.190863 412.961931 349.426392 410.762983 351.62534 
C 408.564036 353.824288 407.328506 356.80712 407.328506 359.916902 
C 407.328506 363.026684 408.564036 366.009516 410.762983 368.208464 
C 412.961931 370.407412 415.944763 371.642941 419.054545 371.642941 
z
" clip-path="url(#p033fd6a11c)" style="fill: #1f77b4; fill-opacity: 0.3; stroke: #1f77b4; stroke-opacity: 0.3"/>
    <path d="M 428.072727 362.68706 
C 429.010362 362.68706 429.90972 362.314534 430.572727 361.651526 
C 431.235735 360.988518 431.608261 360.089161 431.608261 359.151526 
C 431.608261 358.213892 431.235735 357.314534 430.572727 356.651526 
C 429.90972 355.988518 429.010362 355.615992 428.072727 355.615992 
C 427.135093 355.615992 426.235735 355.988518 425.572727 356.651526 
C 424.90972 357.314534 424.537193 358.213892 424.537193 359.151526 
C 424.537193 360.089161 424.90972 360.988518 425.572727 361.651526 
C 426.235735 362.314534 427.135093 362.68706 428.072727 362.68706 
z
" clip-path="url(#p033fd6a11c)" style="fill: #1f77b4; fill-opacity: 0.3; stroke: #1f77b4; stroke-opacity: 0.3"/>
    <path d="M 437.090909 362.96932 
C 439.808432 362.96932 442.415018 361.889636 444.336597 359.968057 
C 446.258176 358.046478 447.33786 355.439892 447.33786 352.722369 
C 447.33786 350.004846 446.258176 347.39826 444.336597 345.476681 
C 442.415018 343.555102 439.808432 342.475418 437.090909 342.475418 
C 434.373386 342.475418 431.7668 343.555102 429.845221 345.476681 
C 427.923642 347.39826 426.843958 350.004846 426.843958 352.722369 
C 426.843958 355.439892 427.923642 358.046478 429.845221 359.968057 
C 431.7668 361.889636 434.373386 362.96932 437.090909 362.96932 
z
" clip-path="url(#p033fd6a11c)" style="fill: #1f77b4; fill-opacity: 0.3; stroke: #1f77b4; stroke-opacity: 0.3"/>
    <path d="M 446.109091 356.768235 
C 448.48114 356.768235 450.756355 355.825811 452.433646 354.148519 
C 454.110938 352.471227 455.053363 350.196012 455.053363 347.823964 
C 455.053363 345.451915 454.110938 343.1767 452.433646 341.499408 
C 450.756355 339.822117 448.48114 338.879692 446.109091 338.879692 
C 443.737042 338.879692 441.461827 339.822117 439.784536 341.499408 
C 438.107244 343.1767 437.164819 345.451915 437.164819 347.823964 
C 437.164819 350.196012 438.107244 352.471227 439.784536 354.148519 
C 441.461827 355.825811 443.737042 356.768235 446.109091 356.768235 
z
" clip-path="url(#p033fd6a11c)" style="fill: #1f77b4; fill-opacity: 0.3; stroke: #1f77b4; stroke-opacity: 0.3"/>
    <path d="M 455.127273 351.896126 
C 457.181527 351.896126 459.151921 351.079962 460.604498 349.627385 
C 462.057076 348.174808 462.873239 346.204414 462.873239 344.150159 
C 462.873239 342.095905 462.057076 340.125511 460.604498 338.672934 
C 459.151921 337.220357 457.181527 336.404193 455.127273 336.404193 
C 453.073018 336.404193 451.102624 337.220357 449.650047 338.672934 
C 448.19747 340.125511 447.381306 342.095905 447.381306 344.150159 
C 447.381306 346.204414 448.19747 348.174808 449.650047 349.627385 
C 451.102624 351.079962 453.073018 351.896126 455.127273 351.896126 
z
" clip-path="url(#p033fd6a11c)" style="fill: #1f77b4; fill-opacity: 0.3; stroke: #1f77b4; stroke-opacity: 0.3"/>
    <path d="M 464.145455 338.927432 
C 469.580501 338.927432 474.793673 336.768066 478.636831 332.924907 
C 482.479989 329.081749 484.639356 323.868577 484.639356 318.433531 
C 484.639356 312.998485 482.479989 307.785312 478.636831 303.942154 
C 474.793673 300.098996 469.580501 297.939629 464.145455 297.939629 
C 458.710408 297.939629 453.497236 300.098996 449.654078 303.942154 
C 445.81092 307.785312 443.651553 312.998485 443.651553 318.433531 
C 443.651553 323.868577 445.81092 329.081749 449.654078 332.924907 
C 453.497236 336.768066 458.710408 338.927432 464.145455 338.927432 
z
" clip-path="url(#p033fd6a11c)" style="fill: #1f77b4; fill-opacity: 0.3; stroke: #1f77b4; stroke-opacity: 0.3"/>
    <path d="M 473.163636 322.308883 
C 474.840928 322.308883 476.449748 321.642488 477.635772 320.456464 
C 478.821797 319.27044 479.488192 317.66162 479.488192 315.984328 
C 479.488192 314.307036 478.821797 312.698216 477.635772 311.512192 
C 476.449748 310.326168 474.840928 309.659773 473.163636 309.659773 
C 471.486345 309.659773 469.877525 310.326168 468.6915 311.512192 
C 467.505476 312.698216 466.839081 314.307036 466.839081 315.984328 
C 466.839081 317.66162 467.505476 319.27044 468.6915 320.456464 
C 469.877525 321.642488 471.486345 322.308883 473.163636 322.308883 
z
" clip-path="url(#p033fd6a11c)" style="fill: #1f77b4; fill-opacity: 0.3; stroke: #1f77b4; stroke-opacity: 0.3"/>
    <path d="M 482.181818 319.938239 
C 484.73246 319.938239 487.178977 318.924858 488.982553 317.121282 
C 490.78613 315.317706 491.79951 312.871188 491.79951 310.320547 
C 491.79951 307.769905 490.78613 305.323388 488.982553 303.519811 
C 487.178977 301.716235 484.73246 300.702855 482.181818 300.702855 
C 479.631176 300.702855 477.184659 301.716235 475.381083 303.519811 
C 473.577507 305.323388 472.564126 307.769905 472.564126 310.320547 
C 472.564126 312.871188 473.577507 315.317706 475.381083 317.121282 
C 477.184659 318.924858 479.631176 319.938239 482.181818 319.938239 
z
" clip-path="url(#p033fd6a11c)" style="fill: #1f77b4; fill-opacity: 0.3; stroke: #1f77b4; stroke-opacity: 0.3"/>
    <path d="M 491.2 314.40285 
C 493.338136 314.40285 495.388987 313.55336 496.900877 312.041469 
C 498.412767 310.529579 499.262258 308.478728 499.262258 306.340592 
C 499.262258 304.202457 498.412767 302.151605 496.900877 300.639715 
C 495.388987 299.127825 493.338136 298.278335 491.2 298.278335 
C 489.061864 298.278335 487.011013 299.127825 485.499123 300.639715 
C 483.987233 302.151605 483.137742 304.202457 483.137742 306.340592 
C 483.137742 308.478728 483.987233 310.529579 485.499123 312.041469 
C 487.011013 313.55336 489.061864 314.40285 491.2 314.40285 
z
" clip-path="url(#p033fd6a11c)" style="fill: #1f77b4; fill-opacity: 0.3; stroke: #1f77b4; stroke-opacity: 0.3"/>
    <path d="M 500.218182 309.295125 
C 501.245309 309.295125 502.230506 308.887043 502.956795 308.160754 
C 503.683083 307.434465 504.091165 306.449268 504.091165 305.422141 
C 504.091165 304.395014 503.683083 303.409817 502.956795 302.683528 
C 502.230506 301.95724 501.245309 301.549158 500.218182 301.549158 
C 499.191055 301.549158 498.205858 301.95724 497.479569 302.683528 
C 496.75328 303.409817 496.345198 304.395014 496.345198 305.422141 
C 496.345198 306.449268 496.75328 307.434465 497.479569 308.160754 
C 498.205858 308.887043 499.191055 309.295125 500.218182 309.295125 
z
" clip-path="url(#p033fd6a11c)" style="fill: #1f77b4; fill-opacity: 0.3; stroke: #1f77b4; stroke-opacity: 0.3"/>
    <path d="M 509.236364 309.43713 
C 511.681415 309.43713 514.026653 308.465701 515.755566 306.736788 
C 517.484479 305.007875 518.455908 302.662637 518.455908 300.217585 
C 518.455908 297.772534 517.484479 295.427296 515.755566 293.698383 
C 514.026653 291.96947 511.681415 290.998041 509.236364 290.998041 
C 506.791312 290.998041 504.446074 291.96947 502.717161 293.698383 
C 500.988249 295.427296 500.016819 297.772534 500.016819 300.217585 
C 500.016819 302.662637 500.988249 305.007875 502.717161 306.736788 
C 504.446074 308.465701 506.791312 309.43713 509.236364 309.43713 
z
" clip-path="url(#p033fd6a11c)" style="fill: #1f77b4; fill-opacity: 0.3; stroke: #1f77b4; stroke-opacity: 0.3"/>
    <path d="M 518.254545 299.569766 
C 522.751283 299.569766 527.064451 297.783193 530.244124 294.60352 
C 533.423798 291.423846 535.21037 287.110678 535.21037 282.613941 
C 535.21037 278.117203 533.423798 273.804035 530.244124 270.624362 
C 527.064451 267.444688 522.751283 265.658116 518.254545 265.658116 
C 513.757808 265.658116 509.44464 267.444688 506.264967 270.624362 
C 503.085293 273.804035 501.29872 278.117203 501.29872 282.613941 
C 501.29872 287.110678 503.085293 291.423846 506.264967 294.60352 
C 509.44464 297.783193 513.757808 299.569766 518.254545 299.569766 
z
" clip-path="url(#p033fd6a11c)" style="fill: #1f77b4; fill-opacity: 0.3; stroke: #1f77b4; stroke-opacity: 0.3"/>
    <path d="M 527.272727 286.659807 
C 529.644776 286.659807 531.919991 285.717382 533.597283 284.040091 
C 535.274574 282.362799 536.216999 280.087584 536.216999 277.715535 
C 536.216999 275.343487 535.274574 273.068272 533.597283 271.39098 
C 531.919991 269.713688 529.644776 268.771263 527.272727 268.771263 
C 524.900679 268.771263 522.625464 269.713688 520.948172 271.39098 
C 519.27088 273.068272 518.328455 275.343487 518.328455 277.715535 
C 518.328455 280.087584 519.27088 282.362799 520.948172 284.040091 
C 522.625464 285.717382 524.900679 286.659807 527.272727 286.659807 
z
" clip-path="url(#p033fd6a11c)" style="fill: #1f77b4; fill-opacity: 0.3; stroke: #1f77b4; stroke-opacity: 0.3"/>
    <path d="M 536.290909 280.485693 
C 537.228544 280.485693 538.127901 280.113167 538.790909 279.450159 
C 539.453917 278.787152 539.826443 277.887794 539.826443 276.950159 
C 539.826443 276.012525 539.453917 275.113167 538.790909 274.450159 
C 538.127901 273.787152 537.228544 273.414626 536.290909 273.414626 
C 535.353275 273.414626 534.453917 273.787152 533.790909 274.450159 
C 533.127901 275.113167 532.755375 276.012525 532.755375 276.950159 
C 532.755375 277.887794 533.127901 278.787152 533.790909 279.450159 
C 534.453917 280.113167 535.353275 280.485693 536.290909 280.485693 
z
" clip-path="url(#p033fd6a11c)" style="fill: #1f77b4; fill-opacity: 0.3; stroke: #1f77b4; stroke-opacity: 0.3"/>
    <path d="M 545.309091 278.51615 
C 549.175057 278.51615 552.883204 276.980185 555.616855 274.246534 
C 558.350506 271.512883 559.886471 267.804736 559.886471 263.93877 
C 559.886471 260.072804 558.350506 256.364657 555.616855 253.631006 
C 552.883204 250.897355 549.175057 249.36139 545.309091 249.36139 
C 541.443125 249.36139 537.734978 250.897355 535.001327 253.631006 
C 532.267676 256.364657 530.731711 260.072804 530.731711 263.93877 
C 530.731711 267.804736 532.267676 271.512883 535.001327 274.246534 
C 537.734978 276.980185 541.443125 278.51615 545.309091 278.51615 
z
" clip-path="url(#p033fd6a11c)" style="fill: #1f77b4; fill-opacity: 0.3; stroke: #1f77b4; stroke-opacity: 0.3"/>
    <path d="M 554.327273 267.996848 
C 556.661964 267.996848 558.901347 267.069265 560.552223 265.418389 
C 562.203099 263.767513 563.130681 261.528131 563.130681 259.19344 
C 563.130681 256.858748 562.203099 254.619366 560.552223 252.96849 
C 558.901347 251.317614 556.661964 250.390031 554.327273 250.390031 
C 551.992582 250.390031 549.753199 251.317614 548.102323 252.96849 
C 546.451447 254.619366 545.523864 256.858748 545.523864 259.19344 
C 545.523864 261.528131 546.451447 263.767513 548.102323 265.418389 
C 549.753199 267.069265 551.992582 267.996848 554.327273 267.996848 
z
" clip-path="url(#p033fd6a11c)" style="fill: #1f77b4; fill-opacity: 0.3; stroke: #1f77b4; stroke-opacity: 0.3"/>
    <path d="M 563.345455 260.621503 
C 563.764777 260.621503 564.166982 260.454905 564.463489 260.158398 
C 564.759995 259.861892 564.926593 259.459687 564.926593 259.040364 
C 564.926593 258.621042 564.759995 258.218837 564.463489 257.92233 
C 564.166982 257.625824 563.764777 257.459226 563.345455 257.459226 
C 562.926132 257.459226 562.523927 257.625824 562.227421 257.92233 
C 561.930914 258.218837 561.764316 258.621042 561.764316 259.040364 
C 561.764316 259.459687 561.930914 259.861892 562.227421 260.158398 
C 562.523927 260.454905 562.926132 260.621503 563.345455 260.621503 
z
" clip-path="url(#p033fd6a11c)" style="fill: #1f77b4; fill-opacity: 0.3; stroke: #1f77b4; stroke-opacity: 0.3"/>
    <path d="M 572.363636 261.994897 
C 573.390764 261.994897 574.375961 261.586815 575.102249 260.860526 
C 575.828538 260.134238 576.23662 259.149041 576.23662 258.121913 
C 576.23662 257.094786 575.828538 256.109589 575.102249 255.383301 
C 574.375961 254.657012 573.390764 254.24893 572.363636 254.24893 
C 571.336509 254.24893 570.351312 254.657012 569.625024 255.383301 
C 568.898735 256.109589 568.490653 257.094786 568.490653 258.121913 
C 568.490653 259.149041 568.898735 260.134238 569.625024 260.860526 
C 570.351312 261.586815 571.336509 261.994897 572.363636 261.994897 
z
" clip-path="url(#p033fd6a11c)" style="fill: #1f77b4; fill-opacity: 0.3; stroke: #1f77b4; stroke-opacity: 0.3"/>
    <path d="M 581.381818 262.204217 
C 583.519954 262.204217 585.570805 261.354726 587.082695 259.842836 
C 588.594586 258.330946 589.444076 256.280095 589.444076 254.141959 
C 589.444076 252.003823 588.594586 249.952972 587.082695 248.441082 
C 585.570805 246.929192 583.519954 246.079701 581.381818 246.079701 
C 579.243682 246.079701 577.192831 246.929192 575.680941 248.441082 
C 574.169051 249.952972 573.31956 252.003823 573.31956 254.141959 
C 573.31956 256.280095 574.169051 258.330946 575.680941 259.842836 
C 577.192831 261.354726 579.243682 262.204217 581.381818 262.204217 
z
" clip-path="url(#p033fd6a11c)" style="fill: #1f77b4; fill-opacity: 0.3; stroke: #1f77b4; stroke-opacity: 0.3"/>
    <path d="M 590.4 258.222454 
C 592.618848 258.222454 594.747117 257.340897 596.31608 255.771934 
C 597.885042 254.202971 598.7666 252.074703 598.7666 249.855854 
C 598.7666 247.637006 597.885042 245.508737 596.31608 243.939774 
C 594.747117 242.370812 592.618848 241.489254 590.4 241.489254 
C 588.181152 241.489254 586.052883 242.370812 584.48392 243.939774 
C 582.914958 245.508737 582.0334 247.637006 582.0334 249.855854 
C 582.0334 252.074703 582.914958 254.202971 584.48392 255.771934 
C 586.052883 257.340897 588.181152 258.222454 590.4 258.222454 
z
" clip-path="url(#p033fd6a11c)" style="fill: #1f77b4; fill-opacity: 0.3; stroke: #1f77b4; stroke-opacity: 0.3"/>
    <path d="M 599.418182 253.938663 
C 601.597048 253.938663 603.686966 253.07299 605.227657 251.5323 
C 606.768348 249.991609 607.63402 247.90169 607.63402 245.722825 
C 607.63402 243.543959 606.768348 241.45404 605.227657 239.91335 
C 603.686966 238.372659 601.597048 237.506986 599.418182 237.506986 
C 597.239316 237.506986 595.149398 238.372659 593.608707 239.91335 
C 592.068016 241.45404 591.202343 243.543959 591.202343 245.722825 
C 591.202343 247.90169 592.068016 249.991609 593.608707 251.5323 
C 595.149398 253.07299 597.239316 253.938663 599.418182 253.938663 
z
" clip-path="url(#p033fd6a11c)" style="fill: #1f77b4; fill-opacity: 0.3; stroke: #1f77b4; stroke-opacity: 0.3"/>
    <path d="M 608.436364 249.550421 
C 610.060394 249.550421 611.618128 248.905187 612.766491 247.756824 
C 613.914854 246.608461 614.560088 245.050728 614.560088 243.426697 
C 614.560088 241.802666 613.914854 240.244933 612.766491 239.09657 
C 611.618128 237.948207 610.060394 237.302973 608.436364 237.302973 
C 606.812333 237.302973 605.2546 237.948207 604.106237 239.09657 
C 602.957874 240.244933 602.312639 241.802666 602.312639 243.426697 
C 602.312639 245.050728 602.957874 246.608461 604.106237 247.756824 
C 605.2546 248.905187 606.812333 249.550421 608.436364 249.550421 
z
" clip-path="url(#p033fd6a11c)" style="fill: #1f77b4; fill-opacity: 0.3; stroke: #1f77b4; stroke-opacity: 0.3"/>
    <path d="M 617.454545 246.986914 
C 618.845282 246.986914 620.179245 246.434369 621.162645 245.450969 
C 622.146044 244.46757 622.69859 243.133607 622.69859 241.74287 
C 622.69859 240.352133 622.146044 239.01817 621.162645 238.034771 
C 620.179245 237.051372 618.845282 236.498826 617.454545 236.498826 
C 616.063809 236.498826 614.729846 237.051372 613.746446 238.034771 
C 612.763047 239.01817 612.210501 240.352133 612.210501 241.74287 
C 612.210501 243.133607 612.763047 244.46757 613.746446 245.450969 
C 614.729846 246.434369 616.063809 246.986914 617.454545 246.986914 
z
" clip-path="url(#p033fd6a11c)" style="fill: #1f77b4; fill-opacity: 0.3; stroke: #1f77b4; stroke-opacity: 0.3"/>
    <path d="M 626.472727 245.726466 
C 628.300514 245.726466 630.053684 245.000279 631.346124 243.707839 
C 632.638564 242.415399 633.364752 240.662228 633.364752 238.834442 
C 633.364752 237.006656 632.638564 235.253485 631.346124 233.961045 
C 630.053684 232.668605 628.300514 231.942418 626.472727 231.942418 
C 624.644941 231.942418 622.89177 232.668605 621.59933 233.961045 
C 620.30689 235.253485 619.580703 237.006656 619.580703 238.834442 
C 619.580703 240.662228 620.30689 242.415399 621.59933 243.707839 
C 622.89177 245.000279 624.644941 245.726466 626.472727 245.726466 
z
" clip-path="url(#p033fd6a11c)" style="fill: #1f77b4; fill-opacity: 0.3; stroke: #1f77b4; stroke-opacity: 0.3"/>
    <path d="M 635.490909 241.845946 
C 638.765926 241.845946 641.907247 240.544768 644.223034 238.228981 
C 646.53882 235.913195 647.839998 232.771873 647.839998 229.496856 
C 647.839998 226.22184 646.53882 223.080518 644.223034 220.764732 
C 641.907247 218.448945 638.765926 217.147767 635.490909 217.147767 
C 632.215892 217.147767 629.074571 218.448945 626.758784 220.764732 
C 624.442998 223.080518 623.14182 226.22184 623.14182 229.496856 
C 623.14182 232.771873 624.442998 235.913195 626.758784 238.228981 
C 629.074571 240.544768 632.215892 241.845946 635.490909 241.845946 
z
" clip-path="url(#p033fd6a11c)" style="fill: #1f77b4; fill-opacity: 0.3; stroke: #1f77b4; stroke-opacity: 0.3"/>
    <path d="M 644.509091 233.31465 
C 647.226614 233.31465 649.8332 232.234967 651.754779 230.313388 
C 653.676358 228.391809 654.756042 225.785222 654.756042 223.067699 
C 654.756042 220.350176 653.676358 217.74359 651.754779 215.822011 
C 649.8332 213.900432 647.226614 212.820749 644.509091 212.820749 
C 641.791568 212.820749 639.184982 213.900432 637.263403 215.822011 
C 635.341824 217.74359 634.26214 220.350176 634.26214 223.067699 
C 634.26214 225.785222 635.341824 228.391809 637.263403 230.313388 
C 639.184982 232.234967 641.791568 233.31465 644.509091 233.31465 
z
" clip-path="url(#p033fd6a11c)" style="fill: #1f77b4; fill-opacity: 0.3; stroke: #1f77b4; stroke-opacity: 0.3"/>
    <path d="M 653.527273 227.064212 
C 656.008021 227.064212 658.387497 226.0786 660.141651 224.324447 
C 661.895805 222.570293 662.881416 220.190816 662.881416 217.710068 
C 662.881416 215.22932 661.895805 212.849844 660.141651 211.09569 
C 658.387497 209.341536 656.008021 208.355925 653.527273 208.355925 
C 651.046525 208.355925 648.667048 209.341536 646.912894 211.09569 
C 645.158741 212.849844 644.173129 215.22932 644.173129 217.710068 
C 644.173129 220.190816 645.158741 222.570293 646.912894 224.324447 
C 648.667048 226.0786 651.046525 227.064212 653.527273 227.064212 
z
" clip-path="url(#p033fd6a11c)" style="fill: #1f77b4; fill-opacity: 0.3; stroke: #1f77b4; stroke-opacity: 0.3"/>
    <path d="M 662.545455 214.64091 
C 667.57733 214.64091 672.403789 212.641725 675.961862 209.083652 
C 679.519935 205.525579 681.519121 200.699119 681.519121 195.667244 
C 681.519121 190.635369 679.519935 185.808909 675.961862 182.250836 
C 672.403789 178.692763 667.57733 176.693578 662.545455 176.693578 
C 657.51358 176.693578 652.68712 178.692763 649.129047 182.250836 
C 645.570974 185.808909 643.571789 190.635369 643.571789 195.667244 
C 643.571789 200.699119 645.570974 205.525579 649.129047 209.083652 
C 652.68712 212.641725 657.51358 214.64091 662.545455 214.64091 
z
" clip-path="url(#p033fd6a11c)" style="fill: #1f77b4; fill-opacity: 0.3; stroke: #1f77b4; stroke-opacity: 0.3"/>
    <path d="M 671.563636 198.519543 
C 674.91822 198.519543 678.13586 197.186753 680.507908 194.814705 
C 682.879957 192.442656 684.212747 189.225016 684.212747 185.870433 
C 684.212747 182.515849 682.879957 179.29821 680.507908 176.926161 
C 678.13586 174.554112 674.91822 173.221322 671.563636 173.221322 
C 668.209053 173.221322 664.991413 174.554112 662.619364 176.926161 
C 660.247316 179.29821 658.914526 182.515849 658.914526 185.870433 
C 658.914526 189.225016 660.247316 192.442656 662.619364 194.814705 
C 664.991413 197.186753 668.209053 198.519543 671.563636 198.519543 
z
" clip-path="url(#p033fd6a11c)" style="fill: #1f77b4; fill-opacity: 0.3; stroke: #1f77b4; stroke-opacity: 0.3"/>
    <path d="M 680.581818 189.55278 
C 683.425805 189.55278 686.153692 188.422852 688.164694 186.41185 
C 690.175696 184.400848 691.305623 181.672961 691.305623 178.828975 
C 691.305623 175.984989 690.175696 173.257102 688.164694 171.246099 
C 686.153692 169.235097 683.425805 168.10517 680.581818 168.10517 
C 677.737832 168.10517 675.009945 169.235097 672.998943 171.246099 
C 670.987941 173.257102 669.858013 175.984989 669.858013 178.828975 
C 669.858013 181.672961 670.987941 184.400848 672.998943 186.41185 
C 675.009945 188.422852 677.737832 189.55278 680.581818 189.55278 
z
" clip-path="url(#p033fd6a11c)" style="fill: #1f77b4; fill-opacity: 0.3; stroke: #1f77b4; stroke-opacity: 0.3"/>
    <path d="M 689.6 182.088925 
C 692.737925 182.088925 695.747752 180.842214 697.9666 178.623366 
C 700.185449 176.404517 701.43216 173.394691 701.43216 170.256765 
C 701.43216 167.11884 700.185449 164.109013 697.9666 161.890165 
C 695.747752 159.671317 692.737925 158.424606 689.6 158.424606 
C 686.462075 158.424606 683.452248 159.671317 681.2334 161.890165 
C 679.014551 164.109013 677.76784 167.11884 677.76784 170.256765 
C 677.76784 173.394691 679.014551 176.404517 681.2334 178.623366 
C 683.452248 180.842214 686.462075 182.088925 689.6 182.088925 
z
" clip-path="url(#p033fd6a11c)" style="fill: #1f77b4; fill-opacity: 0.3; stroke: #1f77b4; stroke-opacity: 0.3"/>
    <path d="M 698.618182 173.026923 
C 699.555816 173.026923 700.455174 172.654397 701.118182 171.99139 
C 701.78119 171.328382 702.153716 170.429024 702.153716 169.49139 
C 702.153716 168.553755 701.78119 167.654397 701.118182 166.99139 
C 700.455174 166.328382 699.555816 165.955856 698.618182 165.955856 
C 697.680547 165.955856 696.78119 166.328382 696.118182 166.99139 
C 695.455174 167.654397 695.082648 168.553755 695.082648 169.49139 
C 695.082648 170.429024 695.455174 171.328382 696.118182 171.99139 
C 696.78119 172.654397 697.680547 173.026923 698.618182 173.026923 
z
" clip-path="url(#p033fd6a11c)" style="fill: #1f77b4; fill-opacity: 0.3; stroke: #1f77b4; stroke-opacity: 0.3"/>
    <path d="M 716.654545 172.738924 
C 717.84057 172.738924 718.978177 172.267712 719.816823 171.429066 
C 720.655469 170.59042 721.126681 169.452812 721.126681 168.266788 
C 721.126681 167.080764 720.655469 165.943156 719.816823 165.10451 
C 718.978177 164.265865 717.84057 163.794652 716.654545 163.794652 
C 715.468521 163.794652 714.330914 164.265865 713.492268 165.10451 
C 712.653622 165.943156 712.182409 167.080764 712.182409 168.266788 
C 712.182409 169.452812 712.653622 170.59042 713.492268 171.429066 
C 714.330914 172.267712 715.468521 172.738924 716.654545 172.738924 
z
" clip-path="url(#p033fd6a11c)" style="fill: #1f77b4; fill-opacity: 0.3; stroke: #1f77b4; stroke-opacity: 0.3"/>
    <path d="M 734.690909 171.632528 
C 735.948878 171.632528 737.155493 171.132732 738.045011 170.243214 
C 738.934529 169.353695 739.434326 168.14708 739.434326 166.889112 
C 739.434326 165.631143 738.934529 164.424528 738.045011 163.53501 
C 737.155493 162.645491 735.948878 162.145695 734.690909 162.145695 
C 733.43294 162.145695 732.226325 162.645491 731.336807 163.53501 
C 730.447289 164.424528 729.947493 165.631143 729.947493 166.889112 
C 729.947493 168.14708 730.447289 169.353695 731.336807 170.243214 
C 732.226325 171.132732 733.43294 171.632528 734.690909 171.632528 
z
" clip-path="url(#p033fd6a11c)" style="fill: #1f77b4; fill-opacity: 0.3; stroke: #1f77b4; stroke-opacity: 0.3"/>
    <path d="M 743.709091 170.716708 
C 745.333122 170.716708 746.890855 170.071474 748.039218 168.923111 
C 749.187581 167.774748 749.832815 166.217015 749.832815 164.592984 
C 749.832815 162.968953 749.187581 161.41122 748.039218 160.262857 
C 746.890855 159.114494 745.333122 158.46926 743.709091 158.46926 
C 742.08506 158.46926 740.527327 159.114494 739.378964 160.262857 
C 738.230601 161.41122 737.585367 162.968953 737.585367 164.592984 
C 737.585367 166.217015 738.230601 167.774748 739.378964 168.923111 
C 740.527327 170.071474 742.08506 170.716708 743.709091 170.716708 
z
" clip-path="url(#p033fd6a11c)" style="fill: #1f77b4; fill-opacity: 0.3; stroke: #1f77b4; stroke-opacity: 0.3"/>
    <path d="M 752.727273 168.303884 
C 754.239163 168.303884 755.689334 167.703204 756.758402 166.634136 
C 757.827469 165.565068 758.42815 164.114897 758.42815 162.603007 
C 758.42815 161.091117 757.827469 159.640946 756.758402 158.571878 
C 755.689334 157.50281 754.239163 156.90213 752.727273 156.90213 
C 751.215382 156.90213 749.765212 157.50281 748.696144 158.571878 
C 747.627076 159.640946 747.026396 161.091117 747.026396 162.603007 
C 747.026396 164.114897 747.627076 165.565068 748.696144 166.634136 
C 749.765212 167.703204 751.215382 168.303884 752.727273 168.303884 
z
" clip-path="url(#p033fd6a11c)" style="fill: #1f77b4; fill-opacity: 0.3; stroke: #1f77b4; stroke-opacity: 0.3"/>
    <path d="M 761.745455 166.430604 
C 763.369485 166.430604 764.927218 165.785369 766.075582 164.637006 
C 767.223945 163.488643 767.869179 161.93091 767.869179 160.306879 
C 767.869179 158.682849 767.223945 157.125115 766.075582 155.976752 
C 764.927218 154.828389 763.369485 154.183155 761.745455 154.183155 
C 760.121424 154.183155 758.563691 154.828389 757.415328 155.976752 
C 756.266964 157.125115 755.62173 158.682849 755.62173 160.306879 
C 755.62173 161.93091 756.266964 163.488643 757.415328 164.637006 
C 758.563691 165.785369 760.121424 166.430604 761.745455 166.430604 
z
" clip-path="url(#p033fd6a11c)" style="fill: #1f77b4; fill-opacity: 0.3; stroke: #1f77b4; stroke-opacity: 0.3"/>
    <path d="M 770.763636 164.017779 
C 772.275527 164.017779 773.725697 163.417099 774.794765 162.348031 
C 775.863833 161.278963 776.464513 159.828792 776.464513 158.316902 
C 776.464513 156.805012 775.863833 155.354841 774.794765 154.285773 
C 773.725697 153.216705 772.275527 152.616025 770.763636 152.616025 
C 769.251746 152.616025 767.801575 153.216705 766.732507 154.285773 
C 765.66344 155.354841 765.062759 156.805012 765.062759 158.316902 
C 765.062759 159.828792 765.66344 161.278963 766.732507 162.348031 
C 767.801575 163.417099 769.251746 164.017779 770.763636 164.017779 
z
" clip-path="url(#p033fd6a11c)" style="fill: #1f77b4; fill-opacity: 0.3; stroke: #1f77b4; stroke-opacity: 0.3"/>
    <path d="M 779.781818 160.24682 
C 780.37483 160.24682 780.943634 160.011213 781.362957 159.591891 
C 781.78228 159.172568 782.017886 158.603764 782.017886 158.010752 
C 782.017886 157.41774 781.78228 156.848936 781.362957 156.429613 
C 780.943634 156.01029 780.37483 155.774684 779.781818 155.774684 
C 779.188806 155.774684 778.620002 156.01029 778.200679 156.429613 
C 777.781356 156.848936 777.54575 157.41774 777.54575 158.010752 
C 777.54575 158.603764 777.781356 159.172568 778.200679 159.591891 
C 778.620002 160.011213 779.188806 160.24682 779.781818 160.24682 
z
" clip-path="url(#p033fd6a11c)" style="fill: #1f77b4; fill-opacity: 0.3; stroke: #1f77b4; stroke-opacity: 0.3"/>
    <path d="M 788.8 160.290139 
C 789.526289 160.290139 790.222928 160.001581 790.736492 159.488018 
C 791.250055 158.974454 791.538613 158.277815 791.538613 157.551526 
C 791.538613 156.825238 791.250055 156.128598 790.736492 155.615035 
C 790.222928 155.101471 789.526289 154.812913 788.8 154.812913 
C 788.073711 154.812913 787.377072 155.101471 786.863508 155.615035 
C 786.349945 156.128598 786.061387 156.825238 786.061387 157.551526 
C 786.061387 158.277815 786.349945 158.974454 786.863508 159.488018 
C 787.377072 160.001581 788.073711 160.290139 788.8 160.290139 
z
" clip-path="url(#p033fd6a11c)" style="fill: #1f77b4; fill-opacity: 0.3; stroke: #1f77b4; stroke-opacity: 0.3"/>
    <path d="M 797.818182 159.447648 
C 801.56872 159.447648 805.166151 157.957544 807.818182 155.305513 
C 810.470213 152.653482 811.960317 149.056051 811.960317 145.305513 
C 811.960317 141.554974 810.470213 137.957544 807.818182 135.305513 
C 805.166151 132.653482 801.56872 131.163377 797.818182 131.163377 
C 794.067644 131.163377 790.470213 132.653482 787.818182 135.305513 
C 785.166151 137.957544 783.676046 141.554974 783.676046 145.305513 
C 783.676046 149.056051 785.166151 152.653482 787.818182 155.305513 
C 790.470213 157.957544 794.067644 159.447648 797.818182 159.447648 
z
" clip-path="url(#p033fd6a11c)" style="fill: #1f77b4; fill-opacity: 0.3; stroke: #1f77b4; stroke-opacity: 0.3"/>
    <path d="M 806.836364 146.735854 
C 810.747547 146.735854 814.499066 145.181924 817.26469 142.416299 
C 820.030315 139.650675 821.584245 135.899156 821.584245 131.987973 
C 821.584245 128.076789 820.030315 124.32527 817.26469 121.559646 
C 814.499066 118.794021 810.747547 117.240091 806.836364 117.240091 
C 802.92518 117.240091 799.173661 118.794021 796.408037 121.559646 
C 793.642412 124.32527 792.088482 128.076789 792.088482 131.987973 
C 792.088482 135.899156 793.642412 139.650675 796.408037 142.416299 
C 799.173661 145.181924 802.92518 146.735854 806.836364 146.735854 
z
" clip-path="url(#p033fd6a11c)" style="fill: #1f77b4; fill-opacity: 0.3; stroke: #1f77b4; stroke-opacity: 0.3"/>
    <path d="M 815.854545 133.416036 
C 816.273868 133.416036 816.676073 133.249438 816.972579 132.952931 
C 817.269086 132.656425 817.435684 132.25422 817.435684 131.834897 
C 817.435684 131.415575 817.269086 131.01337 816.972579 130.716864 
C 816.676073 130.420357 816.273868 130.253759 815.854545 130.253759 
C 815.435223 130.253759 815.033018 130.420357 814.736511 130.716864 
C 814.440005 131.01337 814.273407 131.415575 814.273407 131.834897 
C 814.273407 132.25422 814.440005 132.656425 814.736511 132.952931 
C 815.033018 133.249438 815.435223 133.416036 815.854545 133.416036 
z
" clip-path="url(#p033fd6a11c)" style="fill: #1f77b4; fill-opacity: 0.3; stroke: #1f77b4; stroke-opacity: 0.3"/>
    <path d="M 824.872727 135.200637 
C 826.130696 135.200637 827.337311 134.700841 828.226829 133.811323 
C 829.116347 132.921805 829.616144 131.71519 829.616144 130.457221 
C 829.616144 129.199252 829.116347 127.992637 828.226829 127.103119 
C 827.337311 126.213601 826.130696 125.713804 824.872727 125.713804 
C 823.614759 125.713804 822.408144 126.213601 821.518625 127.103119 
C 820.629107 127.992637 820.129311 129.199252 820.129311 130.457221 
C 820.129311 131.71519 820.629107 132.921805 821.518625 133.811323 
C 822.408144 134.700841 823.614759 135.200637 824.872727 135.200637 
z
" clip-path="url(#p033fd6a11c)" style="fill: #1f77b4; fill-opacity: 0.3; stroke: #1f77b4; stroke-opacity: 0.3"/>
    <path d="M 833.890909 133.822961 
C 835.148878 133.822961 836.355493 133.323165 837.245011 132.433646 
C 838.134529 131.544128 838.634326 130.337513 838.634326 129.079544 
C 838.634326 127.821576 838.134529 126.614961 837.245011 125.725442 
C 836.355493 124.835924 835.148878 124.336128 833.890909 124.336128 
C 832.63294 124.336128 831.426325 124.835924 830.536807 125.725442 
C 829.647289 126.614961 829.147493 127.821576 829.147493 129.079544 
C 829.147493 130.337513 829.647289 131.544128 830.536807 132.433646 
C 831.426325 133.323165 832.63294 133.822961 833.890909 133.822961 
z
" clip-path="url(#p033fd6a11c)" style="fill: #1f77b4; fill-opacity: 0.3; stroke: #1f77b4; stroke-opacity: 0.3"/>
    <path d="M 842.909091 132.193067 
C 846.129971 132.193067 849.219367 130.913398 851.496873 128.635891 
C 853.774379 126.358385 855.054049 123.26899 855.054049 120.048109 
C 855.054049 116.827229 853.774379 113.737834 851.496873 111.460327 
C 849.219367 109.182821 846.129971 107.903152 842.909091 107.903152 
C 839.68821 107.903152 836.598815 109.182821 834.321309 111.460327 
C 832.043802 113.737834 830.764133 116.827229 830.764133 120.048109 
C 830.764133 123.26899 832.043802 126.358385 834.321309 128.635891 
C 836.598815 130.913398 839.68821 132.193067 842.909091 132.193067 
z
" clip-path="url(#p033fd6a11c)" style="fill: #1f77b4; fill-opacity: 0.3; stroke: #1f77b4; stroke-opacity: 0.3"/>
    <path d="M 851.927273 123.923462 
C 853.604564 123.923462 855.213384 123.257067 856.399409 122.071043 
C 857.585433 120.885018 858.251828 119.276198 858.251828 117.598907 
C 858.251828 115.921615 857.585433 114.312795 856.399409 113.126771 
C 855.213384 111.940746 853.604564 111.274351 851.927273 111.274351 
C 850.249981 111.274351 848.641161 111.940746 847.455137 113.126771 
C 846.269112 114.312795 845.602717 115.921615 845.602717 117.598907 
C 845.602717 119.276198 846.269112 120.885018 847.455137 122.071043 
C 848.641161 123.257067 850.249981 123.923462 851.927273 123.923462 
z
" clip-path="url(#p033fd6a11c)" style="fill: #1f77b4; fill-opacity: 0.3; stroke: #1f77b4; stroke-opacity: 0.3"/>
    <path d="M 860.945455 120.710681 
C 862.054879 120.710681 863.119013 120.269902 863.903494 119.48542 
C 864.687976 118.700939 865.128755 117.636805 865.128755 116.52738 
C 865.128755 115.417956 864.687976 114.353822 863.903494 113.569341 
C 863.119013 112.784859 862.054879 112.34408 860.945455 112.34408 
C 859.83603 112.34408 858.771896 112.784859 857.987415 113.569341 
C 857.202933 114.353822 856.762154 115.417956 856.762154 116.52738 
C 856.762154 117.636805 857.202933 118.700939 857.987415 119.48542 
C 858.771896 120.269902 859.83603 120.710681 860.945455 120.710681 
z
" clip-path="url(#p033fd6a11c)" style="fill: #1f77b4; fill-opacity: 0.3; stroke: #1f77b4; stroke-opacity: 0.3"/>
    <path d="M 869.963636 120.402733 
C 871.640928 120.402733 873.249748 119.736338 874.435772 118.550314 
C 875.621797 117.364289 876.288192 115.755469 876.288192 114.078178 
C 876.288192 112.400886 875.621797 110.792066 874.435772 109.606042 
C 873.249748 108.420017 871.640928 107.753622 869.963636 107.753622 
C 868.286345 107.753622 866.677525 108.420017 865.4915 109.606042 
C 864.305476 110.792066 863.639081 112.400886 863.639081 114.078178 
C 863.639081 115.755469 864.305476 117.364289 865.4915 118.550314 
C 866.677525 119.736338 868.286345 120.402733 869.963636 120.402733 
z
" clip-path="url(#p033fd6a11c)" style="fill: #1f77b4; fill-opacity: 0.3; stroke: #1f77b4; stroke-opacity: 0.3"/>
    <path d="M 878.981818 118.126722 
C 880.948617 118.126722 882.835126 117.345305 884.225862 115.954568 
C 885.616599 114.563831 886.398017 112.677323 886.398017 110.710524 
C 886.398017 108.743725 885.616599 106.857216 884.225862 105.46648 
C 882.835126 104.075743 880.948617 103.294325 878.981818 103.294325 
C 877.015019 103.294325 875.128511 104.075743 873.737774 105.46648 
C 872.347037 106.857216 871.56562 108.743725 871.56562 110.710524 
C 871.56562 112.677323 872.347037 114.563831 873.737774 115.954568 
C 875.128511 117.345305 877.015019 118.126722 878.981818 118.126722 
z
" clip-path="url(#p033fd6a11c)" style="fill: #1f77b4; fill-opacity: 0.3; stroke: #1f77b4; stroke-opacity: 0.3"/>
    <path d="M 888 112.138588 
C 888.419323 112.138588 888.821528 111.971989 889.118034 111.675483 
C 889.41454 111.378977 889.581139 110.976772 889.581139 110.557449 
C 889.581139 110.138126 889.41454 109.735921 889.118034 109.439415 
C 888.821528 109.142909 888.419323 108.97631 888 108.97631 
C 887.580677 108.97631 887.178472 109.142909 886.881966 109.439415 
C 886.58546 109.735921 886.418861 110.138126 886.418861 110.557449 
C 886.418861 110.976772 886.58546 111.378977 886.881966 111.675483 
C 887.178472 111.971989 887.580677 112.138588 888 112.138588 
z
" clip-path="url(#p033fd6a11c)" style="fill: #1f77b4; fill-opacity: 0.3; stroke: #1f77b4; stroke-opacity: 0.3"/>
    <path d="M 897.018182 113.327607 
C 897.955816 113.327607 898.855174 112.955081 899.518182 112.292073 
C 900.18119 111.629065 900.553716 110.729707 900.553716 109.792073 
C 900.553716 108.854438 900.18119 107.955081 899.518182 107.292073 
C 898.855174 106.629065 897.955816 106.256539 897.018182 106.256539 
C 896.080547 106.256539 895.18119 106.629065 894.518182 107.292073 
C 893.855174 107.955081 893.482648 108.854438 893.482648 109.792073 
C 893.482648 110.729707 893.855174 111.629065 894.518182 112.292073 
C 895.18119 112.955081 896.080547 113.327607 897.018182 113.327607 
z
" clip-path="url(#p033fd6a11c)" style="fill: #1f77b4; fill-opacity: 0.3; stroke: #1f77b4; stroke-opacity: 0.3"/>
    <path d="M 906.036364 112.746605 
C 907.063491 112.746605 908.048688 112.338523 908.774976 111.612235 
C 909.501265 110.885946 909.909347 109.900749 909.909347 108.873622 
C 909.909347 107.846495 909.501265 106.861298 908.774976 106.135009 
C 908.048688 105.40872 907.063491 105.000639 906.036364 105.000639 
C 905.009236 105.000639 904.024039 105.40872 903.297751 106.135009 
C 902.571462 106.861298 902.16338 107.846495 902.16338 108.873622 
C 902.16338 109.900749 902.571462 110.885946 903.297751 111.612235 
C 904.024039 112.338523 905.009236 112.746605 906.036364 112.746605 
z
" clip-path="url(#p033fd6a11c)" style="fill: #1f77b4; fill-opacity: 0.3; stroke: #1f77b4; stroke-opacity: 0.3"/>
    <path d="M 915.054545 112.433839 
C 916.445282 112.433839 917.779245 111.881294 918.762645 110.897894 
C 919.746044 109.914495 920.29859 108.580532 920.29859 107.189795 
C 920.29859 105.799058 919.746044 104.465095 918.762645 103.481696 
C 917.779245 102.498296 916.445282 101.945751 915.054545 101.945751 
C 913.663809 101.945751 912.329846 102.498296 911.346446 103.481696 
C 910.363047 104.465095 909.810501 105.799058 909.810501 107.189795 
C 909.810501 108.580532 910.363047 109.914495 911.346446 110.897894 
C 912.329846 111.881294 913.663809 112.433839 915.054545 112.433839 
z
" clip-path="url(#p033fd6a11c)" style="fill: #1f77b4; fill-opacity: 0.3; stroke: #1f77b4; stroke-opacity: 0.3"/>
    <path d="M 924.072727 111.204784 
C 926.517779 111.204784 928.863017 110.233354 930.59193 108.504442 
C 932.320842 106.775529 933.292272 104.430291 933.292272 101.985239 
C 933.292272 99.540187 932.320842 97.194949 930.59193 95.466037 
C 928.863017 93.737124 926.517779 92.765695 924.072727 92.765695 
C 921.627676 92.765695 919.282438 93.737124 917.553525 95.466037 
C 915.824612 97.194949 914.853183 99.540187 914.853183 101.985239 
C 914.853183 104.430291 915.824612 106.775529 917.553525 108.504442 
C 919.282438 110.233354 921.627676 111.204784 924.072727 111.204784 
z
" clip-path="url(#p033fd6a11c)" style="fill: #1f77b4; fill-opacity: 0.3; stroke: #1f77b4; stroke-opacity: 0.3"/>
    <path d="M 933.090909 103.413303 
C 933.510232 103.413303 933.912437 103.246704 934.208943 102.950198 
C 934.505449 102.653692 934.672048 102.251487 934.672048 101.832164 
C 934.672048 101.412841 934.505449 101.010636 934.208943 100.71413 
C 933.912437 100.417624 933.510232 100.251025 933.090909 100.251025 
C 932.671586 100.251025 932.269381 100.417624 931.972875 100.71413 
C 931.676369 101.010636 931.50977 101.412841 931.50977 101.832164 
C 931.50977 102.251487 931.676369 102.653692 931.972875 102.950198 
C 932.269381 103.246704 932.671586 103.413303 933.090909 103.413303 
z
" clip-path="url(#p033fd6a11c)" style="fill: #1f77b4; fill-opacity: 0.3; stroke: #1f77b4; stroke-opacity: 0.3"/>
    <path d="M 942.109091 105.477373 
C 944.983824 105.477373 947.741202 104.335229 949.773946 102.302486 
C 951.806689 100.269743 952.948833 97.512364 952.948833 94.637631 
C 952.948833 91.762898 951.806689 89.005519 949.773946 86.972776 
C 947.741202 84.940033 944.983824 83.797889 942.109091 83.797889 
C 939.234358 83.797889 936.476979 84.940033 934.444236 86.972776 
C 932.411493 89.005519 931.269349 91.762898 931.269349 94.637631 
C 931.269349 97.512364 932.411493 100.269743 934.444236 102.302486 
C 936.476979 104.335229 939.234358 105.477373 942.109091 105.477373 
z
" clip-path="url(#p033fd6a11c)" style="fill: #1f77b4; fill-opacity: 0.3; stroke: #1f77b4; stroke-opacity: 0.3"/>
    <path d="M 951.127273 97.592163 
C 952.1544 97.592163 953.139597 97.184081 953.865886 96.457793 
C 954.592174 95.731504 955.000256 94.746307 955.000256 93.71918 
C 955.000256 92.692053 954.592174 91.706856 953.865886 90.980567 
C 953.139597 90.254279 952.1544 89.846197 951.127273 89.846197 
C 950.100146 89.846197 949.114949 90.254279 948.38866 90.980567 
C 947.662371 91.706856 947.254289 92.692053 947.254289 93.71918 
C 947.254289 94.746307 947.662371 95.731504 948.38866 96.457793 
C 949.114949 97.184081 950.100146 97.592163 951.127273 97.592163 
z
" clip-path="url(#p033fd6a11c)" style="fill: #1f77b4; fill-opacity: 0.3; stroke: #1f77b4; stroke-opacity: 0.3"/>
    <path d="M 960.145455 97.279397 
C 961.536191 97.279397 962.870154 96.726852 963.853554 95.743452 
C 964.836953 94.760053 965.389499 93.42609 965.389499 92.035353 
C 965.389499 90.644616 964.836953 89.310653 963.853554 88.327254 
C 962.870154 87.343854 961.536191 86.791309 960.145455 86.791309 
C 958.754718 86.791309 957.420755 87.343854 956.437355 88.327254 
C 955.453956 89.310653 954.90141 90.644616 954.90141 92.035353 
C 954.90141 93.42609 955.453956 94.760053 956.437355 95.743452 
C 957.420755 96.726852 958.754718 97.279397 960.145455 97.279397 
z
" clip-path="url(#p033fd6a11c)" style="fill: #1f77b4; fill-opacity: 0.3; stroke: #1f77b4; stroke-opacity: 0.3"/>
    <path d="M 969.163636 95.401093 
C 970.421605 95.401093 971.62822 94.901297 972.517738 94.011779 
C 973.407257 93.12226 973.907053 91.915645 973.907053 90.657677 
C 973.907053 89.399708 973.407257 88.193093 972.517738 87.303575 
C 971.62822 86.414056 970.421605 85.91426 969.163636 85.91426 
C 967.905668 85.91426 966.699053 86.414056 965.809534 87.303575 
C 964.920016 88.193093 964.42022 89.399708 964.42022 90.657677 
C 964.42022 91.915645 964.920016 93.12226 965.809534 94.011779 
C 966.699053 94.901297 967.905668 95.401093 969.163636 95.401093 
z
" clip-path="url(#p033fd6a11c)" style="fill: #1f77b4; fill-opacity: 0.3; stroke: #1f77b4; stroke-opacity: 0.3"/>
    <path d="M 978.181818 93.427835 
C 979.119453 93.427835 980.01881 93.055308 980.681818 92.392301 
C 981.344826 91.729293 981.717352 90.829935 981.717352 89.892301 
C 981.717352 88.954666 981.344826 88.055308 980.681818 87.392301 
C 980.01881 86.729293 979.119453 86.356767 978.181818 86.356767 
C 977.244184 86.356767 976.344826 86.729293 975.681818 87.392301 
C 975.01881 88.055308 974.646284 88.954666 974.646284 89.892301 
C 974.646284 90.829935 975.01881 91.729293 975.681818 92.392301 
C 976.344826 93.055308 977.244184 93.427835 978.181818 93.427835 
z
" clip-path="url(#p033fd6a11c)" style="fill: #1f77b4; fill-opacity: 0.3; stroke: #1f77b4; stroke-opacity: 0.3"/>
    <path d="M 987.2 92.171688 
C 987.926289 92.171688 988.622928 91.88313 989.136492 91.369567 
C 989.650055 90.856003 989.938613 90.159364 989.938613 89.433075 
C 989.938613 88.706787 989.650055 88.010147 989.136492 87.496583 
C 988.622928 86.98302 987.926289 86.694462 987.2 86.694462 
C 986.473711 86.694462 985.777072 86.98302 985.263508 87.496583 
C 984.749945 88.010147 984.461387 88.706787 984.461387 89.433075 
C 984.461387 90.159364 984.749945 90.856003 985.263508 91.369567 
C 985.777072 91.88313 986.473711 92.171688 987.2 92.171688 
z
" clip-path="url(#p033fd6a11c)" style="fill: #1f77b4; fill-opacity: 0.3; stroke: #1f77b4; stroke-opacity: 0.3"/>
    <path d="M 996.218182 90.861139 
C 996.637505 90.861139 997.03971 90.69454 997.336216 90.398034 
C 997.632722 90.101528 997.799321 89.699323 997.799321 89.28 
C 997.799321 88.860677 997.632722 88.458472 997.336216 88.161966 
C 997.03971 87.86546 996.637505 87.698861 996.218182 87.698861 
C 995.798859 87.698861 995.396654 87.86546 995.100148 88.161966 
C 994.803642 88.458472 994.637043 88.860677 994.637043 89.28 
C 994.637043 89.699323 994.803642 90.101528 995.100148 90.398034 
C 995.396654 90.69454 995.798859 90.861139 996.218182 90.861139 
z
" clip-path="url(#p033fd6a11c)" style="fill: #1f77b4; fill-opacity: 0.3; stroke: #1f77b4; stroke-opacity: 0.3"/>
   </g>
   <g id="matplotlib.axis_1">
    <g id="xtick_1">
     <g id="line2d_1">
      <defs>
       <path id="meda2144d7b" d="M 0 0 
L 0 3.5 
" style="stroke: #000000; stroke-width: 0.8"/>
      </defs>
      <g>
       <use xlink:href="#meda2144d7b" x="184.581818" y="512.64" style="stroke: #000000; stroke-width: 0.8"/>
      </g>
     </g>
     <g id="text_1">
      <!-- 2022-01-01 -->
      <g transform="translate(155.524006 527.238438)scale(0.1 -0.1)">
       <defs>
        <path id="DejaVuSans-32" d="M 1228 531 
L 3431 531 
L 3431 0 
L 469 0 
L 469 531 
Q 828 903 1448 1529 
Q 2069 2156 2228 2338 
Q 2531 2678 2651 2914 
Q 2772 3150 2772 3378 
Q 2772 3750 2511 3984 
Q 2250 4219 1831 4219 
Q 1534 4219 1204 4116 
Q 875 4013 500 3803 
L 500 4441 
Q 881 4594 1212 4672 
Q 1544 4750 1819 4750 
Q 2544 4750 2975 4387 
Q 3406 4025 3406 3419 
Q 3406 3131 3298 2873 
Q 3191 2616 2906 2266 
Q 2828 2175 2409 1742 
Q 1991 1309 1228 531 
z
" transform="scale(0.015625)"/>
        <path id="DejaVuSans-30" d="M 2034 4250 
Q 1547 4250 1301 3770 
Q 1056 3291 1056 2328 
Q 1056 1369 1301 889 
Q 1547 409 2034 409 
Q 2525 409 2770 889 
Q 3016 1369 3016 2328 
Q 3016 3291 2770 3770 
Q 2525 4250 2034 4250 
z
M 2034 4750 
Q 2819 4750 3233 4129 
Q 3647 3509 3647 2328 
Q 3647 1150 3233 529 
Q 2819 -91 2034 -91 
Q 1250 -91 836 529 
Q 422 1150 422 2328 
Q 422 3509 836 4129 
Q 1250 4750 2034 4750 
z
" transform="scale(0.015625)"/>
        <path id="DejaVuSans-2d" d="M 313 2009 
L 1997 2009 
L 1997 1497 
L 313 1497 
L 313 2009 
z
" transform="scale(0.015625)"/>
        <path id="DejaVuSans-31" d="M 794 531 
L 1825 531 
L 1825 4091 
L 703 3866 
L 703 4441 
L 1819 4666 
L 2450 4666 
L 2450 531 
L 3481 531 
L 3481 0 
L 794 0 
L 794 531 
z
" transform="scale(0.015625)"/>
       </defs>
       <use xlink:href="#DejaVuSans-32"/>
       <use xlink:href="#DejaVuSans-30" x="63.623047"/>
       <use xlink:href="#DejaVuSans-32" x="127.246094"/>
       <use xlink:href="#DejaVuSans-32" x="190.869141"/>
       <use xlink:href="#DejaVuSans-2d" x="254.492188"/>
       <use xlink:href="#DejaVuSans-30" x="290.576172"/>
       <use xlink:href="#DejaVuSans-31" x="354.199219"/>
       <use xlink:href="#DejaVuSans-2d" x="417.822266"/>
       <use xlink:href="#DejaVuSans-30" x="453.90625"/>
       <use xlink:href="#DejaVuSans-31" x="517.529297"/>
      </g>
     </g>
    </g>
    <g id="xtick_2">
     <g id="line2d_2">
      <g>
       <use xlink:href="#meda2144d7b" x="310.836364" y="512.64" style="stroke: #000000; stroke-width: 0.8"/>
      </g>
     </g>
     <g id="text_2">
      <!-- 2022-01-15 -->
      <g transform="translate(281.778551 527.238438)scale(0.1 -0.1)">
       <defs>
        <path id="DejaVuSans-35" d="M 691 4666 
L 3169 4666 
L 3169 4134 
L 1269 4134 
L 1269 2991 
Q 1406 3038 1543 3061 
Q 1681 3084 1819 3084 
Q 2600 3084 3056 2656 
Q 3513 2228 3513 1497 
Q 3513 744 3044 326 
Q 2575 -91 1722 -91 
Q 1428 -91 1123 -41 
Q 819 9 494 109 
L 494 744 
Q 775 591 1075 516 
Q 1375 441 1709 441 
Q 2250 441 2565 725 
Q 2881 1009 2881 1497 
Q 2881 1984 2565 2268 
Q 2250 2553 1709 2553 
Q 1456 2553 1204 2497 
Q 953 2441 691 2322 
L 691 4666 
z
" transform="scale(0.015625)"/>
       </defs>
       <use xlink:href="#DejaVuSans-32"/>
       <use xlink:href="#DejaVuSans-30" x="63.623047"/>
       <use xlink:href="#DejaVuSans-32" x="127.246094"/>
       <use xlink:href="#DejaVuSans-32" x="190.869141"/>
       <use xlink:href="#DejaVuSans-2d" x="254.492188"/>
       <use xlink:href="#DejaVuSans-30" x="290.576172"/>
       <use xlink:href="#DejaVuSans-31" x="354.199219"/>
       <use xlink:href="#DejaVuSans-2d" x="417.822266"/>
       <use xlink:href="#DejaVuSans-31" x="453.90625"/>
       <use xlink:href="#DejaVuSans-35" x="517.529297"/>
      </g>
     </g>
    </g>
    <g id="xtick_3">
     <g id="line2d_3">
      <g>
       <use xlink:href="#meda2144d7b" x="464.145455" y="512.64" style="stroke: #000000; stroke-width: 0.8"/>
      </g>
     </g>
     <g id="text_3">
      <!-- 2022-02-01 -->
      <g transform="translate(435.087642 527.238438)scale(0.1 -0.1)">
       <use xlink:href="#DejaVuSans-32"/>
       <use xlink:href="#DejaVuSans-30" x="63.623047"/>
       <use xlink:href="#DejaVuSans-32" x="127.246094"/>
       <use xlink:href="#DejaVuSans-32" x="190.869141"/>
       <use xlink:href="#DejaVuSans-2d" x="254.492188"/>
       <use xlink:href="#DejaVuSans-30" x="290.576172"/>
       <use xlink:href="#DejaVuSans-32" x="354.199219"/>
       <use xlink:href="#DejaVuSans-2d" x="417.822266"/>
       <use xlink:href="#DejaVuSans-30" x="453.90625"/>
       <use xlink:href="#DejaVuSans-31" x="517.529297"/>
      </g>
     </g>
    </g>
    <g id="xtick_4">
     <g id="line2d_4">
      <g>
       <use xlink:href="#meda2144d7b" x="590.4" y="512.64" style="stroke: #000000; stroke-width: 0.8"/>
      </g>
     </g>
     <g id="text_4">
      <!-- 2022-02-15 -->
      <g transform="translate(561.342187 527.238438)scale(0.1 -0.1)">
       <use xlink:href="#DejaVuSans-32"/>
       <use xlink:href="#DejaVuSans-30" x="63.623047"/>
       <use xlink:href="#DejaVuSans-32" x="127.246094"/>
       <use xlink:href="#DejaVuSans-32" x="190.869141"/>
       <use xlink:href="#DejaVuSans-2d" x="254.492188"/>
       <use xlink:href="#DejaVuSans-30" x="290.576172"/>
       <use xlink:href="#DejaVuSans-32" x="354.199219"/>
       <use xlink:href="#DejaVuSans-2d" x="417.822266"/>
       <use xlink:href="#DejaVuSans-31" x="453.90625"/>
       <use xlink:href="#DejaVuSans-35" x="517.529297"/>
      </g>
     </g>
    </g>
    <g id="xtick_5">
     <g id="line2d_5">
      <g>
       <use xlink:href="#meda2144d7b" x="716.654545" y="512.64" style="stroke: #000000; stroke-width: 0.8"/>
      </g>
     </g>
     <g id="text_5">
      <!-- 2022-03-01 -->
      <g transform="translate(687.596733 527.238438)scale(0.1 -0.1)">
       <defs>
        <path id="DejaVuSans-33" d="M 2597 2516 
Q 3050 2419 3304 2112 
Q 3559 1806 3559 1356 
Q 3559 666 3084 287 
Q 2609 -91 1734 -91 
Q 1441 -91 1130 -33 
Q 819 25 488 141 
L 488 750 
Q 750 597 1062 519 
Q 1375 441 1716 441 
Q 2309 441 2620 675 
Q 2931 909 2931 1356 
Q 2931 1769 2642 2001 
Q 2353 2234 1838 2234 
L 1294 2234 
L 1294 2753 
L 1863 2753 
Q 2328 2753 2575 2939 
Q 2822 3125 2822 3475 
Q 2822 3834 2567 4026 
Q 2313 4219 1838 4219 
Q 1578 4219 1281 4162 
Q 984 4106 628 3988 
L 628 4550 
Q 988 4650 1302 4700 
Q 1616 4750 1894 4750 
Q 2613 4750 3031 4423 
Q 3450 4097 3450 3541 
Q 3450 3153 3228 2886 
Q 3006 2619 2597 2516 
z
" transform="scale(0.015625)"/>
       </defs>
       <use xlink:href="#DejaVuSans-32"/>
       <use xlink:href="#DejaVuSans-30" x="63.623047"/>
       <use xlink:href="#DejaVuSans-32" x="127.246094"/>
       <use xlink:href="#DejaVuSans-32" x="190.869141"/>
       <use xlink:href="#DejaVuSans-2d" x="254.492188"/>
       <use xlink:href="#DejaVuSans-30" x="290.576172"/>
       <use xlink:href="#DejaVuSans-33" x="354.199219"/>
       <use xlink:href="#DejaVuSans-2d" x="417.822266"/>
       <use xlink:href="#DejaVuSans-30" x="453.90625"/>
       <use xlink:href="#DejaVuSans-31" x="517.529297"/>
      </g>
     </g>
    </g>
    <g id="xtick_6">
     <g id="line2d_6">
      <g>
       <use xlink:href="#meda2144d7b" x="842.909091" y="512.64" style="stroke: #000000; stroke-width: 0.8"/>
      </g>
     </g>
     <g id="text_6">
      <!-- 2022-03-15 -->
      <g transform="translate(813.851278 527.238438)scale(0.1 -0.1)">
       <use xlink:href="#DejaVuSans-32"/>
       <use xlink:href="#DejaVuSans-30" x="63.623047"/>
       <use xlink:href="#DejaVuSans-32" x="127.246094"/>
       <use xlink:href="#DejaVuSans-32" x="190.869141"/>
       <use xlink:href="#DejaVuSans-2d" x="254.492188"/>
       <use xlink:href="#DejaVuSans-30" x="290.576172"/>
       <use xlink:href="#DejaVuSans-33" x="354.199219"/>
       <use xlink:href="#DejaVuSans-2d" x="417.822266"/>
       <use xlink:href="#DejaVuSans-31" x="453.90625"/>
       <use xlink:href="#DejaVuSans-35" x="517.529297"/>
      </g>
     </g>
    </g>
    <g id="xtick_7">
     <g id="line2d_7">
      <g>
       <use xlink:href="#meda2144d7b" x="996.218182" y="512.64" style="stroke: #000000; stroke-width: 0.8"/>
      </g>
     </g>
     <g id="text_7">
      <!-- 2022-04-01 -->
      <g transform="translate(967.160369 527.238438)scale(0.1 -0.1)">
       <defs>
        <path id="DejaVuSans-34" d="M 2419 4116 
L 825 1625 
L 2419 1625 
L 2419 4116 
z
M 2253 4666 
L 3047 4666 
L 3047 1625 
L 3713 1625 
L 3713 1100 
L 3047 1100 
L 3047 0 
L 2419 0 
L 2419 1100 
L 313 1100 
L 313 1709 
L 2253 4666 
z
" transform="scale(0.015625)"/>
       </defs>
       <use xlink:href="#DejaVuSans-32"/>
       <use xlink:href="#DejaVuSans-30" x="63.623047"/>
       <use xlink:href="#DejaVuSans-32" x="127.246094"/>
       <use xlink:href="#DejaVuSans-32" x="190.869141"/>
       <use xlink:href="#DejaVuSans-2d" x="254.492188"/>
       <use xlink:href="#DejaVuSans-30" x="290.576172"/>
       <use xlink:href="#DejaVuSans-34" x="354.199219"/>
       <use xlink:href="#DejaVuSans-2d" x="417.822266"/>
       <use xlink:href="#DejaVuSans-30" x="453.90625"/>
       <use xlink:href="#DejaVuSans-31" x="517.529297"/>
      </g>
     </g>
    </g>
   </g>
   <g id="matplotlib.axis_2">
    <g id="ytick_1">
     <g id="line2d_8">
      <defs>
       <path id="m05bafb43fb" d="M 0 0 
L -3.5 0 
" style="stroke: #000000; stroke-width: 0.8"/>
      </defs>
      <g>
       <use xlink:href="#m05bafb43fb" x="144" y="476.713257" style="stroke: #000000; stroke-width: 0.8"/>
      </g>
     </g>
     <g id="text_8">
      <!-- 500 -->
      <g transform="translate(117.9125 480.512476)scale(0.1 -0.1)">
       <use xlink:href="#DejaVuSans-35"/>
       <use xlink:href="#DejaVuSans-30" x="63.623047"/>
       <use xlink:href="#DejaVuSans-30" x="127.246094"/>
      </g>
     </g>
    </g>
    <g id="ytick_2">
     <g id="line2d_9">
      <g>
       <use xlink:href="#m05bafb43fb" x="144" y="400.175672" style="stroke: #000000; stroke-width: 0.8"/>
      </g>
     </g>
     <g id="text_9">
      <!-- 1000 -->
      <g transform="translate(111.55 403.974891)scale(0.1 -0.1)">
       <use xlink:href="#DejaVuSans-31"/>
       <use xlink:href="#DejaVuSans-30" x="63.623047"/>
       <use xlink:href="#DejaVuSans-30" x="127.246094"/>
       <use xlink:href="#DejaVuSans-30" x="190.869141"/>
      </g>
     </g>
    </g>
    <g id="ytick_3">
     <g id="line2d_10">
      <g>
       <use xlink:href="#m05bafb43fb" x="144" y="323.638087" style="stroke: #000000; stroke-width: 0.8"/>
      </g>
     </g>
     <g id="text_10">
      <!-- 1500 -->
      <g transform="translate(111.55 327.437305)scale(0.1 -0.1)">
       <use xlink:href="#DejaVuSans-31"/>
       <use xlink:href="#DejaVuSans-35" x="63.623047"/>
       <use xlink:href="#DejaVuSans-30" x="127.246094"/>
       <use xlink:href="#DejaVuSans-30" x="190.869141"/>
      </g>
     </g>
    </g>
    <g id="ytick_4">
     <g id="line2d_11">
      <g>
       <use xlink:href="#m05bafb43fb" x="144" y="247.100501" style="stroke: #000000; stroke-width: 0.8"/>
      </g>
     </g>
     <g id="text_11">
      <!-- 2000 -->
      <g transform="translate(111.55 250.89972)scale(0.1 -0.1)">
       <use xlink:href="#DejaVuSans-32"/>
       <use xlink:href="#DejaVuSans-30" x="63.623047"/>
       <use xlink:href="#DejaVuSans-30" x="127.246094"/>
       <use xlink:href="#DejaVuSans-30" x="190.869141"/>
      </g>
     </g>
    </g>
    <g id="ytick_5">
     <g id="line2d_12">
      <g>
       <use xlink:href="#m05bafb43fb" x="144" y="170.562916" style="stroke: #000000; stroke-width: 0.8"/>
      </g>
     </g>
     <g id="text_12">
      <!-- 2500 -->
      <g transform="translate(111.55 174.362134)scale(0.1 -0.1)">
       <use xlink:href="#DejaVuSans-32"/>
       <use xlink:href="#DejaVuSans-35" x="63.623047"/>
       <use xlink:href="#DejaVuSans-30" x="127.246094"/>
       <use xlink:href="#DejaVuSans-30" x="190.869141"/>
      </g>
     </g>
    </g>
    <g id="ytick_6">
     <g id="line2d_13">
      <g>
       <use xlink:href="#m05bafb43fb" x="144" y="94.02533" style="stroke: #000000; stroke-width: 0.8"/>
      </g>
     </g>
     <g id="text_13">
      <!-- 3000 -->
      <g transform="translate(111.55 97.824549)scale(0.1 -0.1)">
       <use xlink:href="#DejaVuSans-33"/>
       <use xlink:href="#DejaVuSans-30" x="63.623047"/>
       <use xlink:href="#DejaVuSans-30" x="127.246094"/>
       <use xlink:href="#DejaVuSans-30" x="190.869141"/>
      </g>
     </g>
    </g>
   </g>
   <g id="line2d_14">
    <path d="M 184.581818 492.48 
L 193.6 492.020774 
L 202.618182 491.102323 
L 211.636364 490.030797 
L 220.654545 489.265421 
L 229.672727 488.959271 
L 238.690909 488.34697 
L 247.709091 486.356993 
L 256.727273 484.826241 
L 265.745455 483.90779 
L 274.763636 483.142415 
L 283.781818 477.631708 
L 292.8 469.365649 
L 301.818182 467.375672 
L 310.836364 463.242642 
L 319.854545 455.588884 
L 328.872727 443.495945 
L 337.890909 438.59754 
L 346.909091 434.923736 
L 355.927273 433.086834 
L 364.945455 411.503235 
L 373.963636 401.094123 
L 382.981818 397.267244 
L 392 380.2759 
L 401.018182 373.846743 
L 410.036364 368.336036 
L 419.054545 359.916902 
L 428.072727 359.151526 
L 437.090909 352.722369 
L 446.109091 347.823964 
L 455.127273 344.150159 
L 464.145455 318.433531 
L 473.163636 315.984328 
L 482.181818 310.320547 
L 491.2 306.340592 
L 500.218182 305.422141 
L 509.236364 300.217585 
L 518.254545 282.613941 
L 527.272727 277.715535 
L 536.290909 276.950159 
L 545.309091 263.93877 
L 554.327273 259.19344 
L 563.345455 259.040364 
L 572.363636 258.121913 
L 581.381818 254.141959 
L 590.4 249.855854 
L 599.418182 245.722825 
L 608.436364 243.426697 
L 617.454545 241.74287 
L 626.472727 238.834442 
L 635.490909 229.496856 
L 644.509091 223.067699 
L 653.527273 217.710068 
L 662.545455 195.667244 
L 671.563636 185.870433 
L 680.581818 178.828975 
L 689.6 170.256765 
L 698.618182 169.49139 
L 716.654545 168.266788 
L 734.690909 166.889112 
L 743.709091 164.592984 
L 752.727273 162.603007 
L 761.745455 160.306879 
L 770.763636 158.316902 
L 779.781818 158.010752 
L 788.8 157.551526 
L 797.818182 145.305513 
L 806.836364 131.987973 
L 815.854545 131.834897 
L 824.872727 130.457221 
L 833.890909 129.079544 
L 842.909091 120.048109 
L 851.927273 117.598907 
L 860.945455 116.52738 
L 869.963636 114.078178 
L 878.981818 110.710524 
L 888 110.557449 
L 897.018182 109.792073 
L 906.036364 108.873622 
L 915.054545 107.189795 
L 924.072727 101.985239 
L 933.090909 101.832164 
L 942.109091 94.637631 
L 951.127273 93.71918 
L 960.145455 92.035353 
L 969.163636 90.657677 
L 978.181818 89.892301 
L 987.2 89.433075 
L 996.218182 89.28 
" clip-path="url(#p033fd6a11c)" style="fill: none; stroke: #1f77b4; stroke-width: 1.5; stroke-linecap: square"/>
   </g>
   <g id="patch_3">
    <path d="M 144 512.64 
L 144 69.12 
" style="fill: none; stroke: #000000; stroke-width: 0.8; stroke-linejoin: miter; stroke-linecap: square"/>
   </g>
   <g id="patch_4">
    <path d="M 1036.8 512.64 
L 1036.8 69.12 
" style="fill: none; stroke: #000000; stroke-width: 0.8; stroke-linejoin: miter; stroke-linecap: square"/>
   </g>
   <g id="patch_5">
    <path d="M 144 512.64 
L 1036.8 512.64 
" style="fill: none; stroke: #000000; stroke-width: 0.8; stroke-linejoin: miter; stroke-linecap: square"/>
   </g>
   <g id="patch_6">
    <path d="M 144 69.12 
L 1036.8 69.12 
" style="fill: none; stroke: #000000; stroke-width: 0.8; stroke-linejoin: miter; stroke-linecap: square"/>
   </g>
   <g id="text_14">
    <!-- Number of AEDs in the OpenStreetMap database in Poland from 2022-01-01, day by day. As at: 2022-04-01 -->
    <g transform="translate(144 63.12)scale(0.14 -0.14)">
     <defs>
      <path id="DejaVuSans-4e" d="M 628 4666 
L 1478 4666 
L 3547 763 
L 3547 4666 
L 4159 4666 
L 4159 0 
L 3309 0 
L 1241 3903 
L 1241 0 
L 628 0 
L 628 4666 
z
" transform="scale(0.015625)"/>
      <path id="DejaVuSans-75" d="M 544 1381 
L 544 3500 
L 1119 3500 
L 1119 1403 
Q 1119 906 1312 657 
Q 1506 409 1894 409 
Q 2359 409 2629 706 
Q 2900 1003 2900 1516 
L 2900 3500 
L 3475 3500 
L 3475 0 
L 2900 0 
L 2900 538 
Q 2691 219 2414 64 
Q 2138 -91 1772 -91 
Q 1169 -91 856 284 
Q 544 659 544 1381 
z
M 1991 3584 
L 1991 3584 
z
" transform="scale(0.015625)"/>
      <path id="DejaVuSans-6d" d="M 3328 2828 
Q 3544 3216 3844 3400 
Q 4144 3584 4550 3584 
Q 5097 3584 5394 3201 
Q 5691 2819 5691 2113 
L 5691 0 
L 5113 0 
L 5113 2094 
Q 5113 2597 4934 2840 
Q 4756 3084 4391 3084 
Q 3944 3084 3684 2787 
Q 3425 2491 3425 1978 
L 3425 0 
L 2847 0 
L 2847 2094 
Q 2847 2600 2669 2842 
Q 2491 3084 2119 3084 
Q 1678 3084 1418 2786 
Q 1159 2488 1159 1978 
L 1159 0 
L 581 0 
L 581 3500 
L 1159 3500 
L 1159 2956 
Q 1356 3278 1631 3431 
Q 1906 3584 2284 3584 
Q 2666 3584 2933 3390 
Q 3200 3197 3328 2828 
z
" transform="scale(0.015625)"/>
      <path id="DejaVuSans-62" d="M 3116 1747 
Q 3116 2381 2855 2742 
Q 2594 3103 2138 3103 
Q 1681 3103 1420 2742 
Q 1159 2381 1159 1747 
Q 1159 1113 1420 752 
Q 1681 391 2138 391 
Q 2594 391 2855 752 
Q 3116 1113 3116 1747 
z
M 1159 2969 
Q 1341 3281 1617 3432 
Q 1894 3584 2278 3584 
Q 2916 3584 3314 3078 
Q 3713 2572 3713 1747 
Q 3713 922 3314 415 
Q 2916 -91 2278 -91 
Q 1894 -91 1617 61 
Q 1341 213 1159 525 
L 1159 0 
L 581 0 
L 581 4863 
L 1159 4863 
L 1159 2969 
z
" transform="scale(0.015625)"/>
      <path id="DejaVuSans-65" d="M 3597 1894 
L 3597 1613 
L 953 1613 
Q 991 1019 1311 708 
Q 1631 397 2203 397 
Q 2534 397 2845 478 
Q 3156 559 3463 722 
L 3463 178 
Q 3153 47 2828 -22 
Q 2503 -91 2169 -91 
Q 1331 -91 842 396 
Q 353 884 353 1716 
Q 353 2575 817 3079 
Q 1281 3584 2069 3584 
Q 2775 3584 3186 3129 
Q 3597 2675 3597 1894 
z
M 3022 2063 
Q 3016 2534 2758 2815 
Q 2500 3097 2075 3097 
Q 1594 3097 1305 2825 
Q 1016 2553 972 2059 
L 3022 2063 
z
" transform="scale(0.015625)"/>
      <path id="DejaVuSans-72" d="M 2631 2963 
Q 2534 3019 2420 3045 
Q 2306 3072 2169 3072 
Q 1681 3072 1420 2755 
Q 1159 2438 1159 1844 
L 1159 0 
L 581 0 
L 581 3500 
L 1159 3500 
L 1159 2956 
Q 1341 3275 1631 3429 
Q 1922 3584 2338 3584 
Q 2397 3584 2469 3576 
Q 2541 3569 2628 3553 
L 2631 2963 
z
" transform="scale(0.015625)"/>
      <path id="DejaVuSans-20" transform="scale(0.015625)"/>
      <path id="DejaVuSans-6f" d="M 1959 3097 
Q 1497 3097 1228 2736 
Q 959 2375 959 1747 
Q 959 1119 1226 758 
Q 1494 397 1959 397 
Q 2419 397 2687 759 
Q 2956 1122 2956 1747 
Q 2956 2369 2687 2733 
Q 2419 3097 1959 3097 
z
M 1959 3584 
Q 2709 3584 3137 3096 
Q 3566 2609 3566 1747 
Q 3566 888 3137 398 
Q 2709 -91 1959 -91 
Q 1206 -91 779 398 
Q 353 888 353 1747 
Q 353 2609 779 3096 
Q 1206 3584 1959 3584 
z
" transform="scale(0.015625)"/>
      <path id="DejaVuSans-66" d="M 2375 4863 
L 2375 4384 
L 1825 4384 
Q 1516 4384 1395 4259 
Q 1275 4134 1275 3809 
L 1275 3500 
L 2222 3500 
L 2222 3053 
L 1275 3053 
L 1275 0 
L 697 0 
L 697 3053 
L 147 3053 
L 147 3500 
L 697 3500 
L 697 3744 
Q 697 4328 969 4595 
Q 1241 4863 1831 4863 
L 2375 4863 
z
" transform="scale(0.015625)"/>
      <path id="DejaVuSans-41" d="M 2188 4044 
L 1331 1722 
L 3047 1722 
L 2188 4044 
z
M 1831 4666 
L 2547 4666 
L 4325 0 
L 3669 0 
L 3244 1197 
L 1141 1197 
L 716 0 
L 50 0 
L 1831 4666 
z
" transform="scale(0.015625)"/>
      <path id="DejaVuSans-45" d="M 628 4666 
L 3578 4666 
L 3578 4134 
L 1259 4134 
L 1259 2753 
L 3481 2753 
L 3481 2222 
L 1259 2222 
L 1259 531 
L 3634 531 
L 3634 0 
L 628 0 
L 628 4666 
z
" transform="scale(0.015625)"/>
      <path id="DejaVuSans-44" d="M 1259 4147 
L 1259 519 
L 2022 519 
Q 2988 519 3436 956 
Q 3884 1394 3884 2338 
Q 3884 3275 3436 3711 
Q 2988 4147 2022 4147 
L 1259 4147 
z
M 628 4666 
L 1925 4666 
Q 3281 4666 3915 4102 
Q 4550 3538 4550 2338 
Q 4550 1131 3912 565 
Q 3275 0 1925 0 
L 628 0 
L 628 4666 
z
" transform="scale(0.015625)"/>
      <path id="DejaVuSans-73" d="M 2834 3397 
L 2834 2853 
Q 2591 2978 2328 3040 
Q 2066 3103 1784 3103 
Q 1356 3103 1142 2972 
Q 928 2841 928 2578 
Q 928 2378 1081 2264 
Q 1234 2150 1697 2047 
L 1894 2003 
Q 2506 1872 2764 1633 
Q 3022 1394 3022 966 
Q 3022 478 2636 193 
Q 2250 -91 1575 -91 
Q 1294 -91 989 -36 
Q 684 19 347 128 
L 347 722 
Q 666 556 975 473 
Q 1284 391 1588 391 
Q 1994 391 2212 530 
Q 2431 669 2431 922 
Q 2431 1156 2273 1281 
Q 2116 1406 1581 1522 
L 1381 1569 
Q 847 1681 609 1914 
Q 372 2147 372 2553 
Q 372 3047 722 3315 
Q 1072 3584 1716 3584 
Q 2034 3584 2315 3537 
Q 2597 3491 2834 3397 
z
" transform="scale(0.015625)"/>
      <path id="DejaVuSans-69" d="M 603 3500 
L 1178 3500 
L 1178 0 
L 603 0 
L 603 3500 
z
M 603 4863 
L 1178 4863 
L 1178 4134 
L 603 4134 
L 603 4863 
z
" transform="scale(0.015625)"/>
      <path id="DejaVuSans-6e" d="M 3513 2113 
L 3513 0 
L 2938 0 
L 2938 2094 
Q 2938 2591 2744 2837 
Q 2550 3084 2163 3084 
Q 1697 3084 1428 2787 
Q 1159 2491 1159 1978 
L 1159 0 
L 581 0 
L 581 3500 
L 1159 3500 
L 1159 2956 
Q 1366 3272 1645 3428 
Q 1925 3584 2291 3584 
Q 2894 3584 3203 3211 
Q 3513 2838 3513 2113 
z
" transform="scale(0.015625)"/>
      <path id="DejaVuSans-74" d="M 1172 4494 
L 1172 3500 
L 2356 3500 
L 2356 3053 
L 1172 3053 
L 1172 1153 
Q 1172 725 1289 603 
Q 1406 481 1766 481 
L 2356 481 
L 2356 0 
L 1766 0 
Q 1100 0 847 248 
Q 594 497 594 1153 
L 594 3053 
L 172 3053 
L 172 3500 
L 594 3500 
L 594 4494 
L 1172 4494 
z
" transform="scale(0.015625)"/>
      <path id="DejaVuSans-68" d="M 3513 2113 
L 3513 0 
L 2938 0 
L 2938 2094 
Q 2938 2591 2744 2837 
Q 2550 3084 2163 3084 
Q 1697 3084 1428 2787 
Q 1159 2491 1159 1978 
L 1159 0 
L 581 0 
L 581 4863 
L 1159 4863 
L 1159 2956 
Q 1366 3272 1645 3428 
Q 1925 3584 2291 3584 
Q 2894 3584 3203 3211 
Q 3513 2838 3513 2113 
z
" transform="scale(0.015625)"/>
      <path id="DejaVuSans-4f" d="M 2522 4238 
Q 1834 4238 1429 3725 
Q 1025 3213 1025 2328 
Q 1025 1447 1429 934 
Q 1834 422 2522 422 
Q 3209 422 3611 934 
Q 4013 1447 4013 2328 
Q 4013 3213 3611 3725 
Q 3209 4238 2522 4238 
z
M 2522 4750 
Q 3503 4750 4090 4092 
Q 4678 3434 4678 2328 
Q 4678 1225 4090 567 
Q 3503 -91 2522 -91 
Q 1538 -91 948 565 
Q 359 1222 359 2328 
Q 359 3434 948 4092 
Q 1538 4750 2522 4750 
z
" transform="scale(0.015625)"/>
      <path id="DejaVuSans-70" d="M 1159 525 
L 1159 -1331 
L 581 -1331 
L 581 3500 
L 1159 3500 
L 1159 2969 
Q 1341 3281 1617 3432 
Q 1894 3584 2278 3584 
Q 2916 3584 3314 3078 
Q 3713 2572 3713 1747 
Q 3713 922 3314 415 
Q 2916 -91 2278 -91 
Q 1894 -91 1617 61 
Q 1341 213 1159 525 
z
M 3116 1747 
Q 3116 2381 2855 2742 
Q 2594 3103 2138 3103 
Q 1681 3103 1420 2742 
Q 1159 2381 1159 1747 
Q 1159 1113 1420 752 
Q 1681 391 2138 391 
Q 2594 391 2855 752 
Q 3116 1113 3116 1747 
z
" transform="scale(0.015625)"/>
      <path id="DejaVuSans-53" d="M 3425 4513 
L 3425 3897 
Q 3066 4069 2747 4153 
Q 2428 4238 2131 4238 
Q 1616 4238 1336 4038 
Q 1056 3838 1056 3469 
Q 1056 3159 1242 3001 
Q 1428 2844 1947 2747 
L 2328 2669 
Q 3034 2534 3370 2195 
Q 3706 1856 3706 1288 
Q 3706 609 3251 259 
Q 2797 -91 1919 -91 
Q 1588 -91 1214 -16 
Q 841 59 441 206 
L 441 856 
Q 825 641 1194 531 
Q 1563 422 1919 422 
Q 2459 422 2753 634 
Q 3047 847 3047 1241 
Q 3047 1584 2836 1778 
Q 2625 1972 2144 2069 
L 1759 2144 
Q 1053 2284 737 2584 
Q 422 2884 422 3419 
Q 422 4038 858 4394 
Q 1294 4750 2059 4750 
Q 2388 4750 2728 4690 
Q 3069 4631 3425 4513 
z
" transform="scale(0.015625)"/>
      <path id="DejaVuSans-4d" d="M 628 4666 
L 1569 4666 
L 2759 1491 
L 3956 4666 
L 4897 4666 
L 4897 0 
L 4281 0 
L 4281 4097 
L 3078 897 
L 2444 897 
L 1241 4097 
L 1241 0 
L 628 0 
L 628 4666 
z
" transform="scale(0.015625)"/>
      <path id="DejaVuSans-61" d="M 2194 1759 
Q 1497 1759 1228 1600 
Q 959 1441 959 1056 
Q 959 750 1161 570 
Q 1363 391 1709 391 
Q 2188 391 2477 730 
Q 2766 1069 2766 1631 
L 2766 1759 
L 2194 1759 
z
M 3341 1997 
L 3341 0 
L 2766 0 
L 2766 531 
Q 2569 213 2275 61 
Q 1981 -91 1556 -91 
Q 1019 -91 701 211 
Q 384 513 384 1019 
Q 384 1609 779 1909 
Q 1175 2209 1959 2209 
L 2766 2209 
L 2766 2266 
Q 2766 2663 2505 2880 
Q 2244 3097 1772 3097 
Q 1472 3097 1187 3025 
Q 903 2953 641 2809 
L 641 3341 
Q 956 3463 1253 3523 
Q 1550 3584 1831 3584 
Q 2591 3584 2966 3190 
Q 3341 2797 3341 1997 
z
" transform="scale(0.015625)"/>
      <path id="DejaVuSans-64" d="M 2906 2969 
L 2906 4863 
L 3481 4863 
L 3481 0 
L 2906 0 
L 2906 525 
Q 2725 213 2448 61 
Q 2172 -91 1784 -91 
Q 1150 -91 751 415 
Q 353 922 353 1747 
Q 353 2572 751 3078 
Q 1150 3584 1784 3584 
Q 2172 3584 2448 3432 
Q 2725 3281 2906 2969 
z
M 947 1747 
Q 947 1113 1208 752 
Q 1469 391 1925 391 
Q 2381 391 2643 752 
Q 2906 1113 2906 1747 
Q 2906 2381 2643 2742 
Q 2381 3103 1925 3103 
Q 1469 3103 1208 2742 
Q 947 2381 947 1747 
z
" transform="scale(0.015625)"/>
      <path id="DejaVuSans-50" d="M 1259 4147 
L 1259 2394 
L 2053 2394 
Q 2494 2394 2734 2622 
Q 2975 2850 2975 3272 
Q 2975 3691 2734 3919 
Q 2494 4147 2053 4147 
L 1259 4147 
z
M 628 4666 
L 2053 4666 
Q 2838 4666 3239 4311 
Q 3641 3956 3641 3272 
Q 3641 2581 3239 2228 
Q 2838 1875 2053 1875 
L 1259 1875 
L 1259 0 
L 628 0 
L 628 4666 
z
" transform="scale(0.015625)"/>
      <path id="DejaVuSans-6c" d="M 603 4863 
L 1178 4863 
L 1178 0 
L 603 0 
L 603 4863 
z
" transform="scale(0.015625)"/>
      <path id="DejaVuSans-2c" d="M 750 794 
L 1409 794 
L 1409 256 
L 897 -744 
L 494 -744 
L 750 256 
L 750 794 
z
" transform="scale(0.015625)"/>
      <path id="DejaVuSans-79" d="M 2059 -325 
Q 1816 -950 1584 -1140 
Q 1353 -1331 966 -1331 
L 506 -1331 
L 506 -850 
L 844 -850 
Q 1081 -850 1212 -737 
Q 1344 -625 1503 -206 
L 1606 56 
L 191 3500 
L 800 3500 
L 1894 763 
L 2988 3500 
L 3597 3500 
L 2059 -325 
z
" transform="scale(0.015625)"/>
      <path id="DejaVuSans-2e" d="M 684 794 
L 1344 794 
L 1344 0 
L 684 0 
L 684 794 
z
" transform="scale(0.015625)"/>
      <path id="DejaVuSans-3a" d="M 750 794 
L 1409 794 
L 1409 0 
L 750 0 
L 750 794 
z
M 750 3309 
L 1409 3309 
L 1409 2516 
L 750 2516 
L 750 3309 
z
" transform="scale(0.015625)"/>
     </defs>
     <use xlink:href="#DejaVuSans-4e"/>
     <use xlink:href="#DejaVuSans-75" x="74.804688"/>
     <use xlink:href="#DejaVuSans-6d" x="138.183594"/>
     <use xlink:href="#DejaVuSans-62" x="235.595703"/>
     <use xlink:href="#DejaVuSans-65" x="299.072266"/>
     <use xlink:href="#DejaVuSans-72" x="360.595703"/>
     <use xlink:href="#DejaVuSans-20" x="401.708984"/>
     <use xlink:href="#DejaVuSans-6f" x="433.496094"/>
     <use xlink:href="#DejaVuSans-66" x="494.677734"/>
     <use xlink:href="#DejaVuSans-20" x="529.882812"/>
     <use xlink:href="#DejaVuSans-41" x="561.669922"/>
     <use xlink:href="#DejaVuSans-45" x="630.078125"/>
     <use xlink:href="#DejaVuSans-44" x="693.261719"/>
     <use xlink:href="#DejaVuSans-73" x="770.263672"/>
     <use xlink:href="#DejaVuSans-20" x="822.363281"/>
     <use xlink:href="#DejaVuSans-69" x="854.150391"/>
     <use xlink:href="#DejaVuSans-6e" x="881.933594"/>
     <use xlink:href="#DejaVuSans-20" x="945.3125"/>
     <use xlink:href="#DejaVuSans-74" x="977.099609"/>
     <use xlink:href="#DejaVuSans-68" x="1016.308594"/>
     <use xlink:href="#DejaVuSans-65" x="1079.6875"/>
     <use xlink:href="#DejaVuSans-20" x="1141.210938"/>
     <use xlink:href="#DejaVuSans-4f" x="1172.998047"/>
     <use xlink:href="#DejaVuSans-70" x="1251.708984"/>
     <use xlink:href="#DejaVuSans-65" x="1315.185547"/>
     <use xlink:href="#DejaVuSans-6e" x="1376.708984"/>
     <use xlink:href="#DejaVuSans-53" x="1440.087891"/>
     <use xlink:href="#DejaVuSans-74" x="1503.564453"/>
     <use xlink:href="#DejaVuSans-72" x="1542.773438"/>
     <use xlink:href="#DejaVuSans-65" x="1581.636719"/>
     <use xlink:href="#DejaVuSans-65" x="1643.160156"/>
     <use xlink:href="#DejaVuSans-74" x="1704.683594"/>
     <use xlink:href="#DejaVuSans-4d" x="1743.892578"/>
     <use xlink:href="#DejaVuSans-61" x="1830.171875"/>
     <use xlink:href="#DejaVuSans-70" x="1891.451172"/>
     <use xlink:href="#DejaVuSans-20" x="1954.927734"/>
     <use xlink:href="#DejaVuSans-64" x="1986.714844"/>
     <use xlink:href="#DejaVuSans-61" x="2050.191406"/>
     <use xlink:href="#DejaVuSans-74" x="2111.470703"/>
     <use xlink:href="#DejaVuSans-61" x="2150.679688"/>
     <use xlink:href="#DejaVuSans-62" x="2211.958984"/>
     <use xlink:href="#DejaVuSans-61" x="2275.435547"/>
     <use xlink:href="#DejaVuSans-73" x="2336.714844"/>
     <use xlink:href="#DejaVuSans-65" x="2388.814453"/>
     <use xlink:href="#DejaVuSans-20" x="2450.337891"/>
     <use xlink:href="#DejaVuSans-69" x="2482.125"/>
     <use xlink:href="#DejaVuSans-6e" x="2509.908203"/>
     <use xlink:href="#DejaVuSans-20" x="2573.287109"/>
     <use xlink:href="#DejaVuSans-50" x="2605.074219"/>
     <use xlink:href="#DejaVuSans-6f" x="2661.751953"/>
     <use xlink:href="#DejaVuSans-6c" x="2722.933594"/>
     <use xlink:href="#DejaVuSans-61" x="2750.716797"/>
     <use xlink:href="#DejaVuSans-6e" x="2811.996094"/>
     <use xlink:href="#DejaVuSans-64" x="2875.375"/>
     <use xlink:href="#DejaVuSans-20" x="2938.851562"/>
     <use xlink:href="#DejaVuSans-66" x="2970.638672"/>
     <use xlink:href="#DejaVuSans-72" x="3005.84375"/>
     <use xlink:href="#DejaVuSans-6f" x="3044.707031"/>
     <use xlink:href="#DejaVuSans-6d" x="3105.888672"/>
     <use xlink:href="#DejaVuSans-20" x="3203.300781"/>
     <use xlink:href="#DejaVuSans-32" x="3235.087891"/>
     <use xlink:href="#DejaVuSans-30" x="3298.710938"/>
     <use xlink:href="#DejaVuSans-32" x="3362.333984"/>
     <use xlink:href="#DejaVuSans-32" x="3425.957031"/>
     <use xlink:href="#DejaVuSans-2d" x="3489.580078"/>
     <use xlink:href="#DejaVuSans-30" x="3525.664062"/>
     <use xlink:href="#DejaVuSans-31" x="3589.287109"/>
     <use xlink:href="#DejaVuSans-2d" x="3652.910156"/>
     <use xlink:href="#DejaVuSans-30" x="3688.994141"/>
     <use xlink:href="#DejaVuSans-31" x="3752.617188"/>
     <use xlink:href="#DejaVuSans-2c" x="3816.240234"/>
     <use xlink:href="#DejaVuSans-20" x="3848.027344"/>
     <use xlink:href="#DejaVuSans-64" x="3879.814453"/>
     <use xlink:href="#DejaVuSans-61" x="3943.291016"/>
     <use xlink:href="#DejaVuSans-79" x="4004.570312"/>
     <use xlink:href="#DejaVuSans-20" x="4063.75"/>
     <use xlink:href="#DejaVuSans-62" x="4095.537109"/>
     <use xlink:href="#DejaVuSans-79" x="4159.013672"/>
     <use xlink:href="#DejaVuSans-20" x="4218.193359"/>
     <use xlink:href="#DejaVuSans-64" x="4249.980469"/>
     <use xlink:href="#DejaVuSans-61" x="4313.457031"/>
     <use xlink:href="#DejaVuSans-79" x="4374.736328"/>
     <use xlink:href="#DejaVuSans-2e" x="4419.666016"/>
     <use xlink:href="#DejaVuSans-20" x="4451.453125"/>
     <use xlink:href="#DejaVuSans-41" x="4483.240234"/>
     <use xlink:href="#DejaVuSans-73" x="4551.648438"/>
     <use xlink:href="#DejaVuSans-20" x="4603.748047"/>
     <use xlink:href="#DejaVuSans-61" x="4635.535156"/>
     <use xlink:href="#DejaVuSans-74" x="4696.814453"/>
     <use xlink:href="#DejaVuSans-3a" x="4736.023438"/>
     <use xlink:href="#DejaVuSans-20" x="4769.714844"/>
     <use xlink:href="#DejaVuSans-32" x="4801.501953"/>
     <use xlink:href="#DejaVuSans-30" x="4865.125"/>
     <use xlink:href="#DejaVuSans-32" x="4928.748047"/>
     <use xlink:href="#DejaVuSans-32" x="4992.371094"/>
     <use xlink:href="#DejaVuSans-2d" x="5055.994141"/>
     <use xlink:href="#DejaVuSans-30" x="5092.078125"/>
     <use xlink:href="#DejaVuSans-34" x="5155.701172"/>
     <use xlink:href="#DejaVuSans-2d" x="5219.324219"/>
     <use xlink:href="#DejaVuSans-30" x="5255.408203"/>
     <use xlink:href="#DejaVuSans-31" x="5319.03125"/>
    </g>
   </g>
  </g>
 </g>
 <defs>
  <clipPath id="p033fd6a11c">
   <rect x="144" y="69.12" width="892.8" height="443.52"/>
  </clipPath>
 </defs>
</svg>
