<?xml version="1.0" encoding="utf-8" standalone="no"?>
<!DOCTYPE svg PUBLIC "-//W3C//DTD SVG 1.1//EN"
  "http://www.w3.org/Graphics/SVG/1.1/DTD/svg11.dtd">
<svg xmlns:xlink="http://www.w3.org/1999/xlink" width="1152pt" height="576pt" viewBox="0 0 1152 576" xmlns="http://www.w3.org/2000/svg" version="1.1">
 <metadata>
  <rdf:RDF xmlns:dc="http://purl.org/dc/elements/1.1/" xmlns:cc="http://creativecommons.org/ns#" xmlns:rdf="http://www.w3.org/1999/02/22-rdf-syntax-ns#">
   <cc:Work>
    <dc:type rdf:resource="http://purl.org/dc/dcmitype/StillImage"/>
    <dc:date>1980-01-01T00:00:00+00:00</dc:date>
    <dc:format>image/svg+xml</dc:format>
    <dc:creator>
     <cc:Agent>
      <dc:title>Matplotlib v3.9.1, https://matplotlib.org/</dc:title>
     </cc:Agent>
    </dc:creator>
   </cc:Work>
  </rdf:RDF>
 </metadata>
 <defs>
  <style type="text/css">*{stroke-linejoin: round; stroke-linecap: butt}</style>
 </defs>
 <g id="figure_1">
  <g id="patch_1">
   <path d="M 0 576 
L 1152 576 
L 1152 0 
L 0 0 
z
" style="fill: #ffffff"/>
  </g>
  <g id="axes_1">
   <g id="patch_2">
    <path d="M 144 512.64 
L 1036.8 512.64 
L 1036.8 69.12 
L 144 69.12 
z
" style="fill: #ffffff"/>
   </g>
   <g id="PathCollection_1">
    <path d="M 184.581818 496.352983 
C 185.608945 496.352983 186.594142 495.944901 187.320431 495.218613 
C 188.04672 494.492324 188.454802 493.507127 188.454802 492.48 
C 188.454802 491.452873 188.04672 490.467676 187.320431 489.741387 
C 186.594142 489.015099 185.608945 488.607017 184.581818 488.607017 
C 183.554691 488.607017 182.569494 489.015099 181.843205 489.741387 
C 181.116917 490.467676 180.708835 491.452873 180.708835 492.48 
C 180.708835 493.507127 181.116917 494.492324 181.843205 495.218613 
C 182.569494 495.944901 183.554691 496.352983 184.581818 496.352983 
z
" clip-path="url(#pfa36a33de7)" style="fill: #1f77b4; fill-opacity: 0.3; stroke: #1f77b4; stroke-opacity: 0.3"/>
    <path d="M 193.6 495.773602 
C 195.328913 495.773602 196.987246 495.086698 198.209772 493.864172 
C 199.432298 492.641646 200.119202 490.983313 200.119202 489.2544 
C 200.119202 487.525487 199.432298 485.867154 198.209772 484.644628 
C 196.987246 483.422102 195.328913 482.735198 193.6 482.735198 
C 191.871087 482.735198 190.212754 483.422102 188.990228 484.644628 
C 187.767702 485.867154 187.080798 487.525487 187.080798 489.2544 
C 187.080798 490.983313 187.767702 492.641646 188.990228 493.864172 
C 190.212754 495.086698 191.871087 495.773602 193.6 495.773602 
z
" clip-path="url(#pfa36a33de7)" style="fill: #1f77b4; fill-opacity: 0.3; stroke: #1f77b4; stroke-opacity: 0.3"/>
    <path d="M 202.618182 492.308247 
C 204.83703 492.308247 206.965299 491.42669 208.534262 489.857727 
C 210.103224 488.288764 210.984782 486.160495 210.984782 483.941647 
C 210.984782 481.722799 210.103224 479.59453 208.534262 478.025567 
C 206.965299 476.456605 204.83703 475.575047 202.618182 475.575047 
C 200.399333 475.575047 198.271065 476.456605 196.702102 478.025567 
C 195.133139 479.59453 194.251582 481.722799 194.251582 483.941647 
C 194.251582 486.160495 195.133139 488.288764 196.702102 489.857727 
C 198.271065 491.42669 200.399333 492.308247 202.618182 492.308247 
z
" clip-path="url(#pfa36a33de7)" style="fill: #1f77b4; fill-opacity: 0.3; stroke: #1f77b4; stroke-opacity: 0.3"/>
    <path d="M 211.636364 487.098538 
C 213.0271 487.098538 214.361063 486.545993 215.344463 485.562593 
C 216.327862 484.579194 216.880408 483.245231 216.880408 481.854494 
C 216.880408 480.463757 216.327862 479.129794 215.344463 478.146395 
C 214.361063 477.162995 213.0271 476.61045 211.636364 476.61045 
C 210.245627 476.61045 208.911664 477.162995 207.928264 478.146395 
C 206.944865 479.129794 206.392319 480.463757 206.392319 481.854494 
C 206.392319 483.245231 206.944865 484.579194 207.928264 485.562593 
C 208.911664 486.545993 210.245627 487.098538 211.636364 487.098538 
z
" clip-path="url(#pfa36a33de7)" style="fill: #1f77b4; fill-opacity: 0.3; stroke: #1f77b4; stroke-opacity: 0.3"/>
    <path d="M 220.654545 484.441322 
C 221.59218 484.441322 222.491538 484.068796 223.154545 483.405788 
C 223.817553 482.74278 224.190079 481.843423 224.190079 480.905788 
C 224.190079 479.968154 223.817553 479.068796 223.154545 478.405788 
C 222.491538 477.74278 221.59218 477.370254 220.654545 477.370254 
C 219.716911 477.370254 218.817553 477.74278 218.154545 478.405788 
C 217.491538 479.068796 217.119012 479.968154 217.119012 480.905788 
C 217.119012 481.843423 217.491538 482.74278 218.154545 483.405788 
C 218.817553 484.068796 219.716911 484.441322 220.654545 484.441322 
z
" clip-path="url(#pfa36a33de7)" style="fill: #1f77b4; fill-opacity: 0.3; stroke: #1f77b4; stroke-opacity: 0.3"/>
    <path d="M 229.672727 484.199391 
C 231.40164 484.199391 233.059974 483.512486 234.2825 482.28996 
C 235.505025 481.067435 236.19193 479.409101 236.19193 477.680188 
C 236.19193 475.951276 235.505025 474.292942 234.2825 473.070416 
C 233.059974 471.84789 231.40164 471.160986 229.672727 471.160986 
C 227.943815 471.160986 226.285481 471.84789 225.062955 473.070416 
C 223.840429 474.292942 223.153525 475.951276 223.153525 477.680188 
C 223.153525 479.409101 223.840429 481.067435 225.062955 482.28996 
C 226.285481 483.512486 227.943815 484.199391 229.672727 484.199391 
z
" clip-path="url(#pfa36a33de7)" style="fill: #1f77b4; fill-opacity: 0.3; stroke: #1f77b4; stroke-opacity: 0.3"/>
    <path d="M 238.690909 480.957795 
C 240.31494 480.957795 241.872673 480.312561 243.021036 479.164198 
C 244.169399 478.015834 244.814633 476.458101 244.814633 474.834071 
C 244.814633 473.21004 244.169399 471.652307 243.021036 470.503944 
C 241.872673 469.35558 240.31494 468.710346 238.690909 468.710346 
C 237.066878 468.710346 235.509145 469.35558 234.360782 470.503944 
C 233.212419 471.652307 232.567185 473.21004 232.567185 474.834071 
C 232.567185 476.458101 233.212419 478.015834 234.360782 479.164198 
C 235.509145 480.312561 237.066878 480.957795 238.690909 480.957795 
z
" clip-path="url(#pfa36a33de7)" style="fill: #1f77b4; fill-opacity: 0.3; stroke: #1f77b4; stroke-opacity: 0.3"/>
    <path d="M 247.709091 477.308374 
C 250.327762 477.308374 252.839531 476.267965 254.691211 474.416285 
C 256.542891 472.564605 257.5833 470.052835 257.5833 467.434165 
C 257.5833 464.815494 256.542891 462.303725 254.691211 460.452045 
C 252.839531 458.600365 250.327762 457.559956 247.709091 457.559956 
C 245.09042 457.559956 242.578651 458.600365 240.726971 460.452045 
C 238.875291 462.303725 237.834882 464.815494 237.834882 467.434165 
C 237.834882 470.052835 238.875291 472.564605 240.726971 474.416285 
C 242.578651 476.267965 245.09042 477.308374 247.709091 477.308374 
z
" clip-path="url(#pfa36a33de7)" style="fill: #1f77b4; fill-opacity: 0.3; stroke: #1f77b4; stroke-opacity: 0.3"/>
    <path d="M 256.727273 470.721107 
C 258.555059 470.721107 260.30823 469.99492 261.60067 468.70248 
C 262.89311 467.410039 263.619297 465.656869 263.619297 463.829082 
C 263.619297 462.001296 262.89311 460.248125 261.60067 458.955685 
C 260.30823 457.663245 258.555059 456.937058 256.727273 456.937058 
C 254.899486 456.937058 253.146316 457.663245 251.853876 458.955685 
C 250.561436 460.248125 249.835248 462.001296 249.835248 463.829082 
C 249.835248 465.656869 250.561436 467.410039 251.853876 468.70248 
C 253.146316 469.99492 254.899486 470.721107 256.727273 470.721107 
z
" clip-path="url(#pfa36a33de7)" style="fill: #1f77b4; fill-opacity: 0.3; stroke: #1f77b4; stroke-opacity: 0.3"/>
    <path d="M 265.745455 466.864828 
C 267.003423 466.864828 268.210038 466.365032 269.099557 465.475514 
C 269.989075 464.585995 270.488871 463.379381 270.488871 462.121412 
C 270.488871 460.863443 269.989075 459.656828 269.099557 458.76731 
C 268.210038 457.877792 267.003423 457.377995 265.745455 457.377995 
C 264.487486 457.377995 263.280871 457.877792 262.391353 458.76731 
C 261.501834 459.656828 261.002038 460.863443 261.002038 462.121412 
C 261.002038 463.379381 261.501834 464.585995 262.391353 465.475514 
C 263.280871 466.365032 264.487486 466.864828 265.745455 466.864828 
z
" clip-path="url(#pfa36a33de7)" style="fill: #1f77b4; fill-opacity: 0.3; stroke: #1f77b4; stroke-opacity: 0.3"/>
    <path d="M 274.763636 463.977997 
C 275.356649 463.977997 275.925452 463.742391 276.344775 463.323068 
C 276.764098 462.903745 276.999704 462.334942 276.999704 461.741929 
C 276.999704 461.148917 276.764098 460.580114 276.344775 460.160791 
C 275.925452 459.741468 275.356649 459.505861 274.763636 459.505861 
C 274.170624 459.505861 273.60182 459.741468 273.182498 460.160791 
C 272.763175 460.580114 272.527568 461.148917 272.527568 461.741929 
C 272.527568 462.334942 272.763175 462.903745 273.182498 463.323068 
C 273.60182 463.742391 274.170624 463.977997 274.763636 463.977997 
z
" clip-path="url(#pfa36a33de7)" style="fill: #1f77b4; fill-opacity: 0.3; stroke: #1f77b4; stroke-opacity: 0.3"/>
    <path d="M 283.781818 464.278559 
C 286.366698 464.278559 288.846056 463.251575 290.673843 461.423789 
C 292.501629 459.596003 293.528613 457.116645 293.528613 454.531765 
C 293.528613 451.946885 292.501629 449.467527 290.673843 447.63974 
C 288.846056 445.811954 286.366698 444.78497 283.781818 444.78497 
C 281.196938 444.78497 278.71758 445.811954 276.889794 447.63974 
C 275.062008 449.467527 274.035024 451.946885 274.035024 454.531765 
C 274.035024 457.116645 275.062008 459.596003 276.889794 461.423789 
C 278.71758 463.251575 281.196938 464.278559 283.781818 464.278559 
z
" clip-path="url(#pfa36a33de7)" style="fill: #1f77b4; fill-opacity: 0.3; stroke: #1f77b4; stroke-opacity: 0.3"/>
    <path d="M 292.8 457.693929 
C 294.896615 457.693929 296.90764 456.860936 298.39017 455.378405 
C 299.8727 453.895875 300.705694 451.88485 300.705694 449.788235 
C 300.705694 447.691621 299.8727 445.680596 298.39017 444.198065 
C 296.90764 442.715535 294.896615 441.882541 292.8 441.882541 
C 290.703385 441.882541 288.69236 442.715535 287.20983 444.198065 
C 285.7273 445.680596 284.894306 447.691621 284.894306 449.788235 
C 284.894306 451.88485 285.7273 453.895875 287.20983 455.378405 
C 288.69236 456.860936 290.703385 457.693929 292.8 457.693929 
z
" clip-path="url(#pfa36a33de7)" style="fill: #1f77b4; fill-opacity: 0.3; stroke: #1f77b4; stroke-opacity: 0.3"/>
    <path d="M 301.818182 453.022477 
C 303.330072 453.022477 304.780243 452.421797 305.849311 451.352729 
C 306.918379 450.283661 307.519059 448.83349 307.519059 447.3216 
C 307.519059 445.80971 306.918379 444.359539 305.849311 443.290471 
C 304.780243 442.221403 303.330072 441.620723 301.818182 441.620723 
C 300.306292 441.620723 298.856121 442.221403 297.787053 443.290471 
C 296.717985 444.359539 296.117305 445.80971 296.117305 447.3216 
C 296.117305 448.83349 296.717985 450.283661 297.787053 451.352729 
C 298.856121 452.421797 300.306292 453.022477 301.818182 453.022477 
z
" clip-path="url(#pfa36a33de7)" style="fill: #1f77b4; fill-opacity: 0.3; stroke: #1f77b4; stroke-opacity: 0.3"/>
    <path d="M 310.836364 450.194154 
C 313.208412 450.194154 315.483627 449.251729 317.160919 447.574438 
C 318.838211 445.897146 319.780636 443.621931 319.780636 441.249882 
C 319.780636 438.877834 318.838211 436.602619 317.160919 434.925327 
C 315.483627 433.248035 313.208412 432.30561 310.836364 432.30561 
C 308.464315 432.30561 306.1891 433.248035 304.511808 434.925327 
C 302.834517 436.602619 301.892092 438.877834 301.892092 441.249882 
C 301.892092 443.621931 302.834517 445.897146 304.511808 447.574438 
C 306.1891 449.251729 308.464315 450.194154 310.836364 450.194154 
z
" clip-path="url(#pfa36a33de7)" style="fill: #1f77b4; fill-opacity: 0.3; stroke: #1f77b4; stroke-opacity: 0.3"/>
    <path d="M 319.854545 443.459232 
C 322.60423 443.459232 325.241664 442.366771 327.185985 440.422451 
C 329.130305 438.478131 330.222766 435.840696 330.222766 433.091012 
C 330.222766 430.341327 329.130305 427.703893 327.185985 425.759573 
C 325.241664 423.815252 322.60423 422.722791 319.854545 422.722791 
C 317.104861 422.722791 314.467427 423.815252 312.523106 425.759573 
C 310.578786 427.703893 309.486325 430.341327 309.486325 433.091012 
C 309.486325 435.840696 310.578786 438.478131 312.523106 440.422451 
C 314.467427 442.366771 317.104861 443.459232 319.854545 443.459232 
z
" clip-path="url(#pfa36a33de7)" style="fill: #1f77b4; fill-opacity: 0.3; stroke: #1f77b4; stroke-opacity: 0.3"/>
    <path d="M 328.872727 435.494325 
C 329.711373 435.494325 330.515783 435.161127 331.108795 434.568115 
C 331.701807 433.975103 332.035005 433.170693 332.035005 432.332047 
C 332.035005 431.493401 331.701807 430.688991 331.108795 430.095979 
C 330.515783 429.502967 329.711373 429.169769 328.872727 429.169769 
C 328.034081 429.169769 327.229671 429.502967 326.636659 430.095979 
C 326.043647 430.688991 325.71045 431.493401 325.71045 432.332047 
C 325.71045 433.170693 326.043647 433.975103 326.636659 434.568115 
C 327.229671 435.161127 328.034081 435.494325 328.872727 435.494325 
z
" clip-path="url(#pfa36a33de7)" style="fill: #1f77b4; fill-opacity: 0.3; stroke: #1f77b4; stroke-opacity: 0.3"/>
    <path d="M 337.890909 435.488938 
C 339.281646 435.488938 340.615609 434.936393 341.599008 433.952993 
C 342.582408 432.969594 343.134953 431.635631 343.134953 430.244894 
C 343.134953 428.854157 342.582408 427.520194 341.599008 426.536795 
C 340.615609 425.553395 339.281646 425.00085 337.890909 425.00085 
C 336.500172 425.00085 335.166209 425.553395 334.18281 426.536795 
C 333.19941 427.520194 332.646865 428.854157 332.646865 430.244894 
C 332.646865 431.635631 333.19941 432.969594 334.18281 433.952993 
C 335.166209 434.936393 336.500172 435.488938 337.890909 435.488938 
z
" clip-path="url(#pfa36a33de7)" style="fill: #1f77b4; fill-opacity: 0.3; stroke: #1f77b4; stroke-opacity: 0.3"/>
    <path d="M 346.909091 433.337721 
C 349.087957 433.337721 351.177875 432.472048 352.718566 430.931357 
C 354.259257 429.390667 355.124929 427.300748 355.124929 425.121882 
C 355.124929 422.943017 354.259257 420.853098 352.718566 419.312407 
C 351.177875 417.771717 349.087957 416.906044 346.909091 416.906044 
C 344.730225 416.906044 342.640307 417.771717 341.099616 419.312407 
C 339.558925 420.853098 338.693253 422.943017 338.693253 425.121882 
C 338.693253 427.300748 339.558925 429.390667 341.099616 430.931357 
C 342.640307 432.472048 344.730225 433.337721 346.909091 433.337721 
z
" clip-path="url(#pfa36a33de7)" style="fill: #1f77b4; fill-opacity: 0.3; stroke: #1f77b4; stroke-opacity: 0.3"/>
    <path d="M 355.927273 428.322214 
C 357.37985 428.322214 358.773129 427.745099 359.800256 426.717972 
C 360.827383 425.690844 361.404498 424.297565 361.404498 422.844988 
C 361.404498 421.392411 360.827383 419.999132 359.800256 418.972005 
C 358.773129 417.944878 357.37985 417.367763 355.927273 417.367763 
C 354.474696 417.367763 353.081417 417.944878 352.054289 418.972005 
C 351.027162 419.999132 350.450047 421.392411 350.450047 422.844988 
C 350.450047 424.297565 351.027162 425.690844 352.054289 426.717972 
C 353.081417 427.745099 354.474696 428.322214 355.927273 428.322214 
z
" clip-path="url(#pfa36a33de7)" style="fill: #1f77b4; fill-opacity: 0.3; stroke: #1f77b4; stroke-opacity: 0.3"/>
    <path d="M 364.945455 424.538269 
C 367.910515 424.538269 370.754534 423.360238 372.851149 421.263624 
C 374.947763 419.167009 376.125794 416.32299 376.125794 413.357929 
C 376.125794 410.392869 374.947763 407.54885 372.851149 405.452235 
C 370.754534 403.355621 367.910515 402.17759 364.945455 402.17759 
C 361.980394 402.17759 359.136375 403.355621 357.03976 405.452235 
C 354.943146 407.54885 353.765115 410.392869 353.765115 413.357929 
C 353.765115 416.32299 354.943146 419.167009 357.03976 421.263624 
C 359.136375 423.360238 361.980394 424.538269 364.945455 424.538269 
z
" clip-path="url(#pfa36a33de7)" style="fill: #1f77b4; fill-opacity: 0.3; stroke: #1f77b4; stroke-opacity: 0.3"/>
    <path d="M 373.963636 416.450756 
C 376.142502 416.450756 378.232421 415.585083 379.773111 414.044393 
C 381.313802 412.503702 382.179475 410.413783 382.179475 408.234918 
C 382.179475 406.056052 381.313802 403.966133 379.773111 402.425443 
C 378.232421 400.884752 376.142502 400.019079 373.963636 400.019079 
C 371.784771 400.019079 369.694852 400.884752 368.154161 402.425443 
C 366.613471 403.966133 365.747798 406.056052 365.747798 408.234918 
C 365.747798 410.413783 366.613471 412.503702 368.154161 414.044393 
C 369.694852 415.585083 371.784771 416.450756 373.963636 416.450756 
z
" clip-path="url(#pfa36a33de7)" style="fill: #1f77b4; fill-opacity: 0.3; stroke: #1f77b4; stroke-opacity: 0.3"/>
    <path d="M 382.981818 411.427096 
C 385.036073 411.427096 387.006467 410.610932 388.459044 409.158355 
C 389.911621 407.705778 390.727785 405.735384 390.727785 403.681129 
C 390.727785 401.626875 389.911621 399.656481 388.459044 398.203904 
C 387.006467 396.751327 385.036073 395.935163 382.981818 395.935163 
C 380.927564 395.935163 378.95717 396.751327 377.504593 398.203904 
C 376.052015 399.656481 375.235851 401.626875 375.235851 403.681129 
C 375.235851 405.735384 376.052015 407.705778 377.504593 409.158355 
C 378.95717 410.610932 380.927564 411.427096 382.981818 411.427096 
z
" clip-path="url(#pfa36a33de7)" style="fill: #1f77b4; fill-opacity: 0.3; stroke: #1f77b4; stroke-opacity: 0.3"/>
    <path d="M 392 406.693328 
C 394.258123 406.693328 396.424063 405.796167 398.020797 404.199433 
C 399.617531 402.602698 400.514693 400.436758 400.514693 398.178635 
C 400.514693 395.920512 399.617531 393.754572 398.020797 392.157838 
C 396.424063 390.561104 394.258123 389.663942 392 389.663942 
C 389.741877 389.663942 387.575937 390.561104 385.979203 392.157838 
C 384.382469 393.754572 383.485307 395.920512 383.485307 398.178635 
C 383.485307 400.436758 384.382469 402.602698 385.979203 404.199433 
C 387.575937 405.796167 389.741877 406.693328 392 406.693328 
z
" clip-path="url(#pfa36a33de7)" style="fill: #1f77b4; fill-opacity: 0.3; stroke: #1f77b4; stroke-opacity: 0.3"/>
    <path d="M 401.018182 400.581948 
C 401.856828 400.581948 402.661238 400.248751 403.25425 399.655739 
C 403.847262 399.062726 404.180459 398.258316 404.180459 397.419671 
C 404.180459 396.581025 403.847262 395.776615 403.25425 395.183603 
C 402.661238 394.59059 401.856828 394.257393 401.018182 394.257393 
C 400.179536 394.257393 399.375126 394.59059 398.782114 395.183603 
C 398.189102 395.776615 397.855904 396.581025 397.855904 397.419671 
C 397.855904 398.258316 398.189102 399.062726 398.782114 399.655739 
C 399.375126 400.248751 400.179536 400.581948 401.018182 400.581948 
z
" clip-path="url(#pfa36a33de7)" style="fill: #1f77b4; fill-opacity: 0.3; stroke: #1f77b4; stroke-opacity: 0.3"/>
    <path d="M 410.036364 399.822984 
C 410.875009 399.822984 411.679419 399.489786 412.272432 398.896774 
C 412.865444 398.303762 413.198641 397.499352 413.198641 396.660706 
C 413.198641 395.82206 412.865444 395.01765 412.272432 394.424638 
C 411.679419 393.831626 410.875009 393.498428 410.036364 393.498428 
C 409.197718 393.498428 408.393308 393.831626 407.800296 394.424638 
C 407.207283 395.01765 406.874086 395.82206 406.874086 396.660706 
C 406.874086 397.499352 407.207283 398.303762 407.800296 398.896774 
C 408.393308 399.489786 409.197718 399.822984 410.036364 399.822984 
z
" clip-path="url(#pfa36a33de7)" style="fill: #1f77b4; fill-opacity: 0.3; stroke: #1f77b4; stroke-opacity: 0.3"/>
    <path d="M 419.054545 399.316857 
C 421.570483 399.316857 423.983713 398.317264 425.762749 396.538227 
C 427.541786 394.759191 428.541378 392.345961 428.541378 389.830024 
C 428.541378 387.314086 427.541786 384.900856 425.762749 383.12182 
C 423.983713 381.342783 421.570483 380.343191 419.054545 380.343191 
C 416.538608 380.343191 414.125378 381.342783 412.346342 383.12182 
C 410.567305 384.900856 409.567712 387.314086 409.567712 389.830024 
C 409.567712 392.345961 410.567305 394.759191 412.346342 396.538227 
C 414.125378 398.317264 416.538608 399.316857 419.054545 399.316857 
z
" clip-path="url(#pfa36a33de7)" style="fill: #1f77b4; fill-opacity: 0.3; stroke: #1f77b4; stroke-opacity: 0.3"/>
    <path d="M 428.072727 391.523305 
C 431.037788 391.523305 433.881807 390.345273 435.978421 388.248659 
C 438.075036 386.152044 439.253067 383.308026 439.253067 380.342965 
C 439.253067 377.377904 438.075036 374.533885 435.978421 372.437271 
C 433.881807 370.340656 431.037788 369.162625 428.072727 369.162625 
C 425.107666 369.162625 422.263648 370.340656 420.167033 372.437271 
C 418.070419 374.533885 416.892387 377.377904 416.892387 380.342965 
C 416.892387 383.308026 418.070419 386.152044 420.167033 388.248659 
C 422.263648 390.345273 425.107666 391.523305 428.072727 391.523305 
z
" clip-path="url(#pfa36a33de7)" style="fill: #1f77b4; fill-opacity: 0.3; stroke: #1f77b4; stroke-opacity: 0.3"/>
    <path d="M 437.090909 383.215519 
C 439.462958 383.215519 441.738173 382.273094 443.415464 380.595802 
C 445.092756 378.918511 446.035181 376.643296 446.035181 374.271247 
C 446.035181 371.899198 445.092756 369.623983 443.415464 367.946692 
C 441.738173 366.2694 439.462958 365.326975 437.090909 365.326975 
C 434.71886 365.326975 432.443645 366.2694 430.766354 367.946692 
C 429.089062 369.623983 428.146637 371.899198 428.146637 374.271247 
C 428.146637 376.643296 429.089062 378.918511 430.766354 380.595802 
C 432.443645 382.273094 434.71886 383.215519 437.090909 383.215519 
z
" clip-path="url(#pfa36a33de7)" style="fill: #1f77b4; fill-opacity: 0.3; stroke: #1f77b4; stroke-opacity: 0.3"/>
    <path d="M 446.109091 377.364074 
C 448.287957 377.364074 450.377875 376.498401 451.918566 374.95771 
C 453.459257 373.41702 454.324929 371.327101 454.324929 369.148235 
C 454.324929 366.969369 453.459257 364.879451 451.918566 363.33876 
C 450.377875 361.798069 448.287957 360.932397 446.109091 360.932397 
C 443.930225 360.932397 441.840307 361.798069 440.299616 363.33876 
C 438.758925 364.879451 437.893253 366.969369 437.893253 369.148235 
C 437.893253 371.327101 438.758925 373.41702 440.299616 374.95771 
C 441.840307 376.498401 443.930225 377.364074 446.109091 377.364074 
z
" clip-path="url(#pfa36a33de7)" style="fill: #1f77b4; fill-opacity: 0.3; stroke: #1f77b4; stroke-opacity: 0.3"/>
    <path d="M 455.127273 371.551548 
C 455.965919 371.551548 456.770329 371.218351 457.363341 370.625339 
C 457.956353 370.032326 458.28955 369.227916 458.28955 368.389271 
C 458.28955 367.550625 457.956353 366.746215 457.363341 366.153203 
C 456.770329 365.56019 455.965919 365.226993 455.127273 365.226993 
C 454.288627 365.226993 453.484217 365.56019 452.891205 366.153203 
C 452.298193 366.746215 451.964995 367.550625 451.964995 368.389271 
C 451.964995 369.227916 452.298193 370.032326 452.891205 370.625339 
C 453.484217 371.218351 454.288627 371.551548 455.127273 371.551548 
z
" clip-path="url(#pfa36a33de7)" style="fill: #1f77b4; fill-opacity: 0.3; stroke: #1f77b4; stroke-opacity: 0.3"/>
    <path d="M 464.145455 371.546162 
C 465.536191 371.546162 466.870154 370.993616 467.853554 370.010217 
C 468.836953 369.026817 469.389499 367.692854 469.389499 366.302118 
C 469.389499 364.911381 468.836953 363.577418 467.853554 362.594018 
C 466.870154 361.610619 465.536191 361.058073 464.145455 361.058073 
C 462.754718 361.058073 461.420755 361.610619 460.437355 362.594018 
C 459.453956 363.577418 458.90141 364.911381 458.90141 366.302118 
C 458.90141 367.692854 459.453956 369.026817 460.437355 370.010217 
C 461.420755 370.993616 462.754718 371.546162 464.145455 371.546162 
z
" clip-path="url(#pfa36a33de7)" style="fill: #1f77b4; fill-opacity: 0.3; stroke: #1f77b4; stroke-opacity: 0.3"/>
    <path d="M 473.163636 369.578362 
C 475.038905 369.578362 476.837621 368.83331 478.163636 367.507294 
C 479.489652 366.181279 480.234704 364.382563 480.234704 362.507294 
C 480.234704 360.632025 479.489652 358.83331 478.163636 357.507294 
C 476.837621 356.181279 475.038905 355.436226 473.163636 355.436226 
C 471.288367 355.436226 469.489652 356.181279 468.163636 357.507294 
C 466.837621 358.83331 466.092569 360.632025 466.092569 362.507294 
C 466.092569 364.382563 466.837621 366.181279 468.163636 367.507294 
C 469.489652 368.83331 471.288367 369.578362 473.163636 369.578362 
z
" clip-path="url(#pfa36a33de7)" style="fill: #1f77b4; fill-opacity: 0.3; stroke: #1f77b4; stroke-opacity: 0.3"/>
    <path d="M 482.181818 365.699473 
C 484.236073 365.699473 486.206467 364.883309 487.659044 363.430731 
C 489.111621 361.978154 489.927785 360.00776 489.927785 357.953506 
C 489.927785 355.899252 489.111621 353.928858 487.659044 352.47628 
C 486.206467 351.023703 484.236073 350.207539 482.181818 350.207539 
C 480.127564 350.207539 478.15717 351.023703 476.704593 352.47628 
C 475.252015 353.928858 474.435851 355.899252 474.435851 357.953506 
C 474.435851 360.00776 475.252015 361.978154 476.704593 363.430731 
C 478.15717 364.883309 480.127564 365.699473 482.181818 365.699473 
z
" clip-path="url(#pfa36a33de7)" style="fill: #1f77b4; fill-opacity: 0.3; stroke: #1f77b4; stroke-opacity: 0.3"/>
    <path d="M 491.2 360.907712 
C 492.386024 360.907712 493.523632 360.4365 494.362278 359.597854 
C 495.200923 358.759208 495.672136 357.621601 495.672136 356.435576 
C 495.672136 355.249552 495.200923 354.111945 494.362278 353.273299 
C 493.523632 352.434653 492.386024 351.963441 491.2 351.963441 
C 490.013976 351.963441 488.876368 352.434653 488.037722 353.273299 
C 487.199077 354.111945 486.727864 355.249552 486.727864 356.435576 
C 486.727864 357.621601 487.199077 358.759208 488.037722 359.597854 
C 488.876368 360.4365 490.013976 360.907712 491.2 360.907712 
z
" clip-path="url(#pfa36a33de7)" style="fill: #1f77b4; fill-opacity: 0.3; stroke: #1f77b4; stroke-opacity: 0.3"/>
    <path d="M 500.218182 359.489424 
C 502.43703 359.489424 504.565299 358.607866 506.134262 357.038903 
C 507.703224 355.469941 508.584782 353.341672 508.584782 351.122824 
C 508.584782 348.903975 507.703224 346.775706 506.134262 345.206744 
C 504.565299 343.637781 502.43703 342.756223 500.218182 342.756223 
C 497.999333 342.756223 495.871065 343.637781 494.302102 345.206744 
C 492.733139 346.775706 491.851582 348.903975 491.851582 351.122824 
C 491.851582 353.341672 492.733139 355.469941 494.302102 357.038903 
C 495.871065 358.607866 497.999333 359.489424 500.218182 359.489424 
z
" clip-path="url(#pfa36a33de7)" style="fill: #1f77b4; fill-opacity: 0.3; stroke: #1f77b4; stroke-opacity: 0.3"/>
    <path d="M 509.236364 354.416426 
C 510.965276 354.416426 512.62361 353.729522 513.846136 352.506996 
C 515.068662 351.28447 515.755566 349.626136 515.755566 347.897224 
C 515.755566 346.168311 515.068662 344.509977 513.846136 343.287451 
C 512.62361 342.064925 510.965276 341.378021 509.236364 341.378021 
C 507.507451 341.378021 505.849117 342.064925 504.626591 343.287451 
C 503.404066 344.509977 502.717161 346.168311 502.717161 347.897224 
C 502.717161 349.626136 503.404066 351.28447 504.626591 352.506996 
C 505.849117 353.729522 507.507451 354.416426 509.236364 354.416426 
z
" clip-path="url(#pfa36a33de7)" style="fill: #1f77b4; fill-opacity: 0.3; stroke: #1f77b4; stroke-opacity: 0.3"/>
    <path d="M 518.254545 351.054115 
C 519.645282 351.054115 520.979245 350.501569 521.962645 349.51817 
C 522.946044 348.53477 523.49859 347.200807 523.49859 345.810071 
C 523.49859 344.419334 522.946044 343.085371 521.962645 342.101971 
C 520.979245 341.118572 519.645282 340.566026 518.254545 340.566026 
C 516.863809 340.566026 515.529846 341.118572 514.546446 342.101971 
C 513.563047 343.085371 513.010501 344.419334 513.010501 345.810071 
C 513.010501 347.200807 513.563047 348.53477 514.546446 349.51817 
C 515.529846 350.501569 516.863809 351.054115 518.254545 351.054115 
z
" clip-path="url(#pfa36a33de7)" style="fill: #1f77b4; fill-opacity: 0.3; stroke: #1f77b4; stroke-opacity: 0.3"/>
    <path d="M 527.272727 348.3467 
C 529.857607 348.3467 532.336965 347.319716 534.164752 345.49193 
C 535.992538 343.664144 537.019522 341.184786 537.019522 338.599906 
C 537.019522 336.015026 535.992538 333.535668 534.164752 331.707882 
C 532.336965 329.880095 529.857607 328.853112 527.272727 328.853112 
C 524.687847 328.853112 522.208489 329.880095 520.380703 331.707882 
C 518.552917 333.535668 517.525933 336.015026 517.525933 338.599906 
C 517.525933 341.184786 518.552917 343.664144 520.380703 345.49193 
C 522.208489 347.319716 524.687847 348.3467 527.272727 348.3467 
z
" clip-path="url(#pfa36a33de7)" style="fill: #1f77b4; fill-opacity: 0.3; stroke: #1f77b4; stroke-opacity: 0.3"/>
    <path d="M 536.290909 341.800237 
C 537.743486 341.800237 539.136765 341.223122 540.163892 340.195995 
C 541.19102 339.168868 541.768135 337.775589 541.768135 336.323012 
C 541.768135 334.870435 541.19102 333.477156 540.163892 332.450028 
C 539.136765 331.422901 537.743486 330.845786 536.290909 330.845786 
C 534.838332 330.845786 533.445053 331.422901 532.417926 332.450028 
C 531.390799 333.477156 530.813684 334.870435 530.813684 336.323012 
C 530.813684 337.775589 531.390799 339.168868 532.417926 340.195995 
C 533.445053 341.223122 534.838332 341.800237 536.290909 341.800237 
z
" clip-path="url(#pfa36a33de7)" style="fill: #1f77b4; fill-opacity: 0.3; stroke: #1f77b4; stroke-opacity: 0.3"/>
    <path d="M 545.309091 339.091356 
C 547.754143 339.091356 550.099381 338.119927 551.828293 336.391014 
C 553.557206 334.662101 554.528635 332.316864 554.528635 329.871812 
C 554.528635 327.42676 553.557206 325.081522 551.828293 323.352609 
C 550.099381 321.623697 547.754143 320.652267 545.309091 320.652267 
C 542.864039 320.652267 540.518801 321.623697 538.789889 323.352609 
C 537.060976 325.081522 536.089546 327.42676 536.089546 329.871812 
C 536.089546 332.316864 537.060976 334.662101 538.789889 336.391014 
C 540.518801 338.119927 542.864039 339.091356 545.309091 339.091356 
z
" clip-path="url(#pfa36a33de7)" style="fill: #1f77b4; fill-opacity: 0.3; stroke: #1f77b4; stroke-opacity: 0.3"/>
    <path d="M 554.327273 333.148056 
C 556.202542 333.148056 558.001257 332.403004 559.327273 331.076988 
C 560.653288 329.750973 561.398341 327.952257 561.398341 326.076988 
C 561.398341 324.201719 560.653288 322.403004 559.327273 321.076988 
C 558.001257 319.750973 556.202542 319.00592 554.327273 319.00592 
C 552.452004 319.00592 550.653288 319.750973 549.327273 321.076988 
C 548.001257 322.403004 547.256205 324.201719 547.256205 326.076988 
C 547.256205 327.952257 548.001257 329.750973 549.327273 331.076988 
C 550.653288 332.403004 552.452004 333.148056 554.327273 333.148056 
z
" clip-path="url(#pfa36a33de7)" style="fill: #1f77b4; fill-opacity: 0.3; stroke: #1f77b4; stroke-opacity: 0.3"/>
    <path d="M 563.345455 329.27732 
C 564.798032 329.27732 566.191311 328.700205 567.218438 327.673077 
C 568.245565 326.64595 568.82268 325.252671 568.82268 323.800094 
C 568.82268 322.347517 568.245565 320.954238 567.218438 319.927111 
C 566.191311 318.899984 564.798032 318.322869 563.345455 318.322869 
C 561.892877 318.322869 560.499598 318.899984 559.472471 319.927111 
C 558.445344 320.954238 557.868229 322.347517 557.868229 323.800094 
C 557.868229 325.252671 558.445344 326.64595 559.472471 327.673077 
C 560.499598 328.700205 561.892877 329.27732 563.345455 329.27732 
z
" clip-path="url(#pfa36a33de7)" style="fill: #1f77b4; fill-opacity: 0.3; stroke: #1f77b4; stroke-opacity: 0.3"/>
    <path d="M 572.363636 327.076338 
C 574.238905 327.076338 576.037621 326.331286 577.363636 325.005271 
C 578.689652 323.679255 579.434704 321.88054 579.434704 320.005271 
C 579.434704 318.130001 578.689652 316.331286 577.363636 315.005271 
C 576.037621 313.679255 574.238905 312.934203 572.363636 312.934203 
C 570.488367 312.934203 568.689652 313.679255 567.363636 315.005271 
C 566.037621 316.331286 565.292569 318.130001 565.292569 320.005271 
C 565.292569 321.88054 566.037621 323.679255 567.363636 325.005271 
C 568.689652 326.331286 570.488367 327.076338 572.363636 327.076338 
z
" clip-path="url(#pfa36a33de7)" style="fill: #1f77b4; fill-opacity: 0.3; stroke: #1f77b4; stroke-opacity: 0.3"/>
    <path d="M 581.381818 323.041016 
C 582.639787 323.041016 583.846402 322.54122 584.73592 321.651702 
C 585.625438 320.762184 586.125235 319.555569 586.125235 318.2976 
C 586.125235 317.039631 585.625438 315.833016 584.73592 314.943498 
C 583.846402 314.05398 582.639787 313.554184 581.381818 313.554184 
C 580.123849 313.554184 578.917234 314.05398 578.027716 314.943498 
C 577.138198 315.833016 576.638402 317.039631 576.638402 318.2976 
C 576.638402 319.555569 577.138198 320.762184 578.027716 321.651702 
C 578.917234 322.54122 580.123849 323.041016 581.381818 323.041016 
z
" clip-path="url(#pfa36a33de7)" style="fill: #1f77b4; fill-opacity: 0.3; stroke: #1f77b4; stroke-opacity: 0.3"/>
    <path d="M 590.4 320.894869 
C 592.950642 320.894869 595.397159 319.881488 597.200735 318.077912 
C 599.004311 316.274336 600.017692 313.827818 600.017692 311.277176 
C 600.017692 308.726535 599.004311 306.280017 597.200735 304.476441 
C 595.397159 302.672865 592.950642 301.659484 590.4 301.659484 
C 587.849358 301.659484 585.402841 302.672865 583.599265 304.476441 
C 581.795689 306.280017 580.782308 308.726535 580.782308 311.277176 
C 580.782308 313.827818 581.795689 316.274336 583.599265 318.077912 
C 585.402841 319.881488 587.849358 320.894869 590.4 320.894869 
z
" clip-path="url(#pfa36a33de7)" style="fill: #1f77b4; fill-opacity: 0.3; stroke: #1f77b4; stroke-opacity: 0.3"/>
    <path d="M 599.418182 313.124051 
C 602.323336 313.124051 605.109894 311.969821 607.164149 309.915567 
C 609.218403 307.861312 610.372633 305.074754 610.372633 302.1696 
C 610.372633 299.264446 609.218403 296.477888 607.164149 294.423633 
C 605.109894 292.369379 602.323336 291.215149 599.418182 291.215149 
C 596.513027 291.215149 593.72647 292.369379 591.672215 294.423633 
C 589.617961 296.477888 588.463731 299.264446 588.463731 302.1696 
C 588.463731 305.074754 589.617961 307.861312 591.672215 309.915567 
C 593.72647 311.969821 596.513027 313.124051 599.418182 313.124051 
z
" clip-path="url(#pfa36a33de7)" style="fill: #1f77b4; fill-opacity: 0.3; stroke: #1f77b4; stroke-opacity: 0.3"/>
    <path d="M 608.436364 305.205346 
C 609.694332 305.205346 610.900947 304.70555 611.790466 303.816031 
C 612.679984 302.926513 613.17978 301.719898 613.17978 300.461929 
C 613.17978 299.203961 612.679984 297.997346 611.790466 297.107827 
C 610.900947 296.218309 609.694332 295.718513 608.436364 295.718513 
C 607.178395 295.718513 605.97178 296.218309 605.082262 297.107827 
C 604.192743 297.997346 603.692947 299.203961 603.692947 300.461929 
C 603.692947 301.719898 604.192743 302.926513 605.082262 303.816031 
C 605.97178 304.70555 607.178395 305.205346 608.436364 305.205346 
z
" clip-path="url(#pfa36a33de7)" style="fill: #1f77b4; fill-opacity: 0.3; stroke: #1f77b4; stroke-opacity: 0.3"/>
    <path d="M 617.454545 303.738174 
C 619.329815 303.738174 621.12853 302.993121 622.454545 301.667106 
C 623.780561 300.34109 624.525613 298.542375 624.525613 296.667106 
C 624.525613 294.791837 623.780561 292.993121 622.454545 291.667106 
C 621.12853 290.34109 619.329815 289.596038 617.454545 289.596038 
C 615.579276 289.596038 613.780561 290.34109 612.454545 291.667106 
C 611.12853 292.993121 610.383478 294.791837 610.383478 296.667106 
C 610.383478 298.542375 611.12853 300.34109 612.454545 301.667106 
C 613.780561 302.993121 615.579276 303.738174 617.454545 303.738174 
z
" clip-path="url(#pfa36a33de7)" style="fill: #1f77b4; fill-opacity: 0.3; stroke: #1f77b4; stroke-opacity: 0.3"/>
    <path d="M 626.472727 299.94335 
C 628.347996 299.94335 630.146712 299.198298 631.472727 297.872282 
C 632.798743 296.546267 633.543795 294.747551 633.543795 292.872282 
C 633.543795 290.997013 632.798743 289.198298 631.472727 287.872282 
C 630.146712 286.546267 628.347996 285.801215 626.472727 285.801215 
C 624.597458 285.801215 622.798743 286.546267 621.472727 287.872282 
C 620.146712 289.198298 619.401659 290.997013 619.401659 292.872282 
C 619.401659 294.747551 620.146712 296.546267 621.472727 297.872282 
C 622.798743 299.198298 624.597458 299.94335 626.472727 299.94335 
z
" clip-path="url(#pfa36a33de7)" style="fill: #1f77b4; fill-opacity: 0.3; stroke: #1f77b4; stroke-opacity: 0.3"/>
    <path d="M 635.490909 296.165145 
C 637.269946 296.165145 638.976357 295.458326 640.234326 294.200358 
C 641.492294 292.942389 642.199113 291.235978 642.199113 289.456941 
C 642.199113 287.677905 641.492294 285.971493 640.234326 284.713525 
C 638.976357 283.455556 637.269946 282.748737 635.490909 282.748737 
C 633.711873 282.748737 632.005461 283.455556 630.747493 284.713525 
C 629.489524 285.971493 628.782705 287.677905 628.782705 289.456941 
C 628.782705 291.235978 629.489524 292.942389 630.747493 294.200358 
C 632.005461 295.458326 633.711873 296.165145 635.490909 296.165145 
z
" clip-path="url(#pfa36a33de7)" style="fill: #1f77b4; fill-opacity: 0.3; stroke: #1f77b4; stroke-opacity: 0.3"/>
    <path d="M 644.509091 292.743883 
C 646.336877 292.743883 648.090048 292.017696 649.382488 290.725256 
C 650.674928 289.432816 651.401115 287.679645 651.401115 285.851859 
C 651.401115 284.024073 650.674928 282.270902 649.382488 280.978462 
C 648.090048 279.686022 646.336877 278.959834 644.509091 278.959834 
C 642.681305 278.959834 640.928134 279.686022 639.635694 280.978462 
C 638.343254 282.270902 637.617067 284.024073 637.617067 285.851859 
C 637.617067 287.679645 638.343254 289.432816 639.635694 290.725256 
C 640.928134 292.017696 642.681305 292.743883 644.509091 292.743883 
z
" clip-path="url(#pfa36a33de7)" style="fill: #1f77b4; fill-opacity: 0.3; stroke: #1f77b4; stroke-opacity: 0.3"/>
    <path d="M 653.527273 288.864058 
C 655.785396 288.864058 657.951336 287.966896 659.54807 286.370162 
C 661.144804 284.773428 662.041966 282.607488 662.041966 280.349365 
C 662.041966 278.091242 661.144804 275.925302 659.54807 274.328567 
C 657.951336 272.731833 655.785396 271.834672 653.527273 271.834672 
C 651.26915 271.834672 649.10321 272.731833 647.506475 274.328567 
C 645.909741 275.925302 645.01258 278.091242 645.01258 280.349365 
C 645.01258 282.607488 645.909741 284.773428 647.506475 286.370162 
C 649.10321 287.966896 651.26915 288.864058 653.527273 288.864058 
z
" clip-path="url(#pfa36a33de7)" style="fill: #1f77b4; fill-opacity: 0.3; stroke: #1f77b4; stroke-opacity: 0.3"/>
    <path d="M 662.545455 283.361564 
C 664.803578 283.361564 666.969518 282.464402 668.566252 280.867668 
C 670.162986 279.270934 671.060148 277.104994 671.060148 274.846871 
C 671.060148 272.588748 670.162986 270.422807 668.566252 268.826073 
C 666.969518 267.229339 664.803578 266.332177 662.545455 266.332177 
C 660.287332 266.332177 658.121391 267.229339 656.524657 268.826073 
C 654.927923 270.422807 654.030761 272.588748 654.030761 274.846871 
C 654.030761 277.104994 654.927923 279.270934 656.524657 280.867668 
C 658.121391 282.464402 660.287332 283.361564 662.545455 283.361564 
z
" clip-path="url(#pfa36a33de7)" style="fill: #1f77b4; fill-opacity: 0.3; stroke: #1f77b4; stroke-opacity: 0.3"/>
    <path d="M 671.563636 277.056221 
C 674.313321 277.056221 676.950755 275.96376 678.895076 274.019439 
C 680.839396 272.075119 681.931857 269.437684 681.931857 266.688 
C 681.931857 263.938316 680.839396 261.300881 678.895076 259.356561 
C 676.950755 257.41224 674.313321 256.319779 671.563636 256.319779 
C 668.813952 256.319779 666.176518 257.41224 664.232197 259.356561 
C 662.287877 261.300881 661.195416 263.938316 661.195416 266.688 
C 661.195416 269.437684 662.287877 272.075119 664.232197 274.019439 
C 666.176518 275.96376 668.813952 277.056221 671.563636 277.056221 
z
" clip-path="url(#pfa36a33de7)" style="fill: #1f77b4; fill-opacity: 0.3; stroke: #1f77b4; stroke-opacity: 0.3"/>
    <path d="M 680.581818 269.964244 
C 682.457087 269.964244 684.255803 269.219192 685.581818 267.893176 
C 686.907834 266.567161 687.652886 264.768446 687.652886 262.893176 
C 687.652886 261.017907 686.907834 259.219192 685.581818 257.893176 
C 684.255803 256.567161 682.457087 255.822109 680.581818 255.822109 
C 678.706549 255.822109 676.907834 256.567161 675.581818 257.893176 
C 674.255803 259.219192 673.51075 261.017907 673.51075 262.893176 
C 673.51075 264.768446 674.255803 266.567161 675.581818 267.893176 
C 676.907834 269.219192 678.706549 269.964244 680.581818 269.964244 
z
" clip-path="url(#pfa36a33de7)" style="fill: #1f77b4; fill-opacity: 0.3; stroke: #1f77b4; stroke-opacity: 0.3"/>
    <path d="M 689.6 263.929783 
C 692.793468 263.929783 695.85657 262.661004 698.114693 260.402881 
C 700.372816 258.144758 701.641595 255.081656 701.641595 251.888188 
C 701.641595 248.69472 700.372816 245.631618 698.114693 243.373495 
C 695.85657 241.115372 692.793468 239.846594 689.6 239.846594 
C 686.406532 239.846594 683.34343 241.115372 681.085307 243.373495 
C 678.827184 245.631618 677.558405 248.69472 677.558405 251.888188 
C 677.558405 255.081656 678.827184 258.144758 681.085307 260.402881 
C 683.34343 262.661004 686.406532 263.929783 689.6 263.929783 
z
" clip-path="url(#pfa36a33de7)" style="fill: #1f77b4; fill-opacity: 0.3; stroke: #1f77b4; stroke-opacity: 0.3"/>
    <path d="M 698.618182 255.107017 
C 700.629184 255.107017 702.558091 254.308037 703.980084 252.886044 
C 705.402078 251.464051 706.201057 249.535143 706.201057 247.524141 
C 706.201057 245.513139 705.402078 243.584232 703.980084 242.162239 
C 702.558091 240.740245 700.629184 239.941266 698.618182 239.941266 
C 696.60718 239.941266 694.678272 240.740245 693.256279 242.162239 
C 691.834286 243.584232 691.035306 245.513139 691.035306 247.524141 
C 691.035306 249.535143 691.834286 251.464051 693.256279 252.886044 
C 694.678272 254.308037 696.60718 255.107017 698.618182 255.107017 
z
" clip-path="url(#pfa36a33de7)" style="fill: #1f77b4; fill-opacity: 0.3; stroke: #1f77b4; stroke-opacity: 0.3"/>
    <path d="M 707.636364 250.724473 
C 709.088941 250.724473 710.48222 250.147358 711.509347 249.12023 
C 712.536474 248.093103 713.113589 246.699824 713.113589 245.247247 
C 713.113589 243.79467 712.536474 242.401391 711.509347 241.374264 
C 710.48222 240.347137 709.088941 239.770021 707.636364 239.770021 
C 706.183786 239.770021 704.790507 240.347137 703.76338 241.374264 
C 702.736253 242.401391 702.159138 243.79467 702.159138 245.247247 
C 702.159138 246.699824 702.736253 248.093103 703.76338 249.12023 
C 704.790507 250.147358 706.183786 250.724473 707.636364 250.724473 
z
" clip-path="url(#pfa36a33de7)" style="fill: #1f77b4; fill-opacity: 0.3; stroke: #1f77b4; stroke-opacity: 0.3"/>
    <path d="M 716.654545 248.523491 
C 718.529815 248.523491 720.32853 247.778439 721.654545 246.452424 
C 722.980561 245.126408 723.725613 243.327693 723.725613 241.452424 
C 723.725613 239.577154 722.980561 237.778439 721.654545 236.452424 
C 720.32853 235.126408 718.529815 234.381356 716.654545 234.381356 
C 714.779276 234.381356 712.980561 235.126408 711.654545 236.452424 
C 710.32853 237.778439 709.583478 239.577154 709.583478 241.452424 
C 709.583478 243.327693 710.32853 245.126408 711.654545 246.452424 
C 712.980561 247.778439 714.779276 248.523491 716.654545 248.523491 
z
" clip-path="url(#pfa36a33de7)" style="fill: #1f77b4; fill-opacity: 0.3; stroke: #1f77b4; stroke-opacity: 0.3"/>
    <path d="M 725.672727 244.54525 
C 727.851593 244.54525 729.941512 243.679578 731.482202 242.138887 
C 733.022893 240.598196 733.888566 238.508278 733.888566 236.329412 
C 733.888566 234.150546 733.022893 232.060628 731.482202 230.519937 
C 729.941512 228.979246 727.851593 228.113573 725.672727 228.113573 
C 723.493861 228.113573 721.403943 228.979246 719.863252 230.519937 
C 718.322561 232.060628 717.456889 234.150546 717.456889 236.329412 
C 717.456889 238.508278 718.322561 240.598196 719.863252 242.138887 
C 721.403943 243.679578 723.493861 244.54525 725.672727 244.54525 
z
" clip-path="url(#pfa36a33de7)" style="fill: #1f77b4; fill-opacity: 0.3; stroke: #1f77b4; stroke-opacity: 0.3"/>
    <path d="M 734.690909 239.605656 
C 736.566178 239.605656 738.364894 238.860604 739.690909 237.534588 
C 741.016925 236.208573 741.761977 234.409857 741.761977 232.534588 
C 741.761977 230.659319 741.016925 228.860604 739.690909 227.534588 
C 738.364894 226.208573 736.566178 225.46352 734.690909 225.46352 
C 732.81564 225.46352 731.016925 226.208573 729.690909 227.534588 
C 728.364894 228.860604 727.619841 230.659319 727.619841 232.534588 
C 727.619841 234.409857 728.364894 236.208573 729.690909 237.534588 
C 731.016925 238.860604 732.81564 239.605656 734.690909 239.605656 
z
" clip-path="url(#pfa36a33de7)" style="fill: #1f77b4; fill-opacity: 0.3; stroke: #1f77b4; stroke-opacity: 0.3"/>
    <path d="M 743.709091 235.546787 
C 745.967214 235.546787 748.133154 234.649626 749.729888 233.052891 
C 751.326622 231.456157 752.223784 229.290217 752.223784 227.032094 
C 752.223784 224.773971 751.326622 222.608031 749.729888 221.011297 
C 748.133154 219.414563 745.967214 218.517401 743.709091 218.517401 
C 741.450968 218.517401 739.285028 219.414563 737.688294 221.011297 
C 736.09156 222.608031 735.194398 224.773971 735.194398 227.032094 
C 735.194398 229.290217 736.09156 231.456157 737.688294 233.052891 
C 739.285028 234.649626 741.450968 235.546787 743.709091 235.546787 
z
" clip-path="url(#pfa36a33de7)" style="fill: #1f77b4; fill-opacity: 0.3; stroke: #1f77b4; stroke-opacity: 0.3"/>
    <path d="M 752.727273 230.320791 
C 754.404564 230.320791 756.013384 229.654396 757.199409 228.468371 
C 758.385433 227.282347 759.051828 225.673527 759.051828 223.996235 
C 759.051828 222.318944 758.385433 220.710124 757.199409 219.524099 
C 756.013384 218.338075 754.404564 217.67168 752.727273 217.67168 
C 751.049981 217.67168 749.441161 218.338075 748.255137 219.524099 
C 747.069112 220.710124 746.402717 222.318944 746.402717 223.996235 
C 746.402717 225.673527 747.069112 227.282347 748.255137 228.468371 
C 749.441161 229.654396 751.049981 230.320791 752.727273 230.320791 
z
" clip-path="url(#pfa36a33de7)" style="fill: #1f77b4; fill-opacity: 0.3; stroke: #1f77b4; stroke-opacity: 0.3"/>
    <path d="M 761.745455 227.257359 
C 763.667034 227.257359 765.510168 226.493908 766.86893 225.135146 
C 768.227691 223.776384 768.991143 221.93325 768.991143 220.011671 
C 768.991143 218.090092 768.227691 216.246957 766.86893 214.888195 
C 765.510168 213.529434 763.667034 212.765982 761.745455 212.765982 
C 759.823876 212.765982 757.980741 213.529434 756.621979 214.888195 
C 755.263218 216.246957 754.499766 218.090092 754.499766 220.011671 
C 754.499766 221.93325 755.263218 223.776384 756.621979 225.135146 
C 757.980741 226.493908 759.823876 227.257359 761.745455 227.257359 
z
" clip-path="url(#pfa36a33de7)" style="fill: #1f77b4; fill-opacity: 0.3; stroke: #1f77b4; stroke-opacity: 0.3"/>
    <path d="M 770.763636 223.304533 
C 772.542673 223.304533 774.249084 222.597715 775.507053 221.339746 
C 776.765022 220.081777 777.47184 218.375366 777.47184 216.596329 
C 777.47184 214.817293 776.765022 213.110882 775.507053 211.852913 
C 774.249084 210.594944 772.542673 209.888125 770.763636 209.888125 
C 768.9846 209.888125 767.278189 210.594944 766.02022 211.852913 
C 764.762251 213.110882 764.055432 214.817293 764.055432 216.596329 
C 764.055432 218.375366 764.762251 220.081777 766.02022 221.339746 
C 767.278189 222.597715 768.9846 223.304533 770.763636 223.304533 
z
" clip-path="url(#pfa36a33de7)" style="fill: #1f77b4; fill-opacity: 0.3; stroke: #1f77b4; stroke-opacity: 0.3"/>
    <path d="M 779.781818 219.830571 
C 781.293708 219.830571 782.743879 219.229891 783.812947 218.160823 
C 784.882015 217.091755 785.482695 215.641584 785.482695 214.129694 
C 785.482695 212.617804 784.882015 211.167633 783.812947 210.098565 
C 782.743879 209.029497 781.293708 208.428817 779.781818 208.428817 
C 778.269928 208.428817 776.819757 209.029497 775.750689 210.098565 
C 774.681621 211.167633 774.080941 212.617804 774.080941 214.129694 
C 774.080941 215.641584 774.681621 217.091755 775.750689 218.160823 
C 776.819757 219.229891 778.269928 219.830571 779.781818 219.830571 
z
" clip-path="url(#pfa36a33de7)" style="fill: #1f77b4; fill-opacity: 0.3; stroke: #1f77b4; stroke-opacity: 0.3"/>
    <path d="M 788.8 214.815641 
C 792.101752 214.815641 795.268717 213.503841 797.603408 211.16915 
C 799.9381 208.834458 801.2499 205.667493 801.2499 202.365741 
C 801.2499 199.063989 799.9381 195.897024 797.603408 193.562333 
C 795.268717 191.227642 792.101752 189.915842 788.8 189.915842 
C 785.498248 189.915842 782.331283 191.227642 779.996592 193.562333 
C 777.6619 195.897024 776.3501 199.063989 776.3501 202.365741 
C 776.3501 205.667493 777.6619 208.834458 779.996592 211.16915 
C 782.331283 213.503841 785.498248 214.815641 788.8 214.815641 
z
" clip-path="url(#pfa36a33de7)" style="fill: #1f77b4; fill-opacity: 0.3; stroke: #1f77b4; stroke-opacity: 0.3"/>
    <path d="M 797.818182 205.652683 
C 799.645968 205.652683 801.399139 204.926496 802.691579 203.634056 
C 803.984019 202.341616 804.710206 200.588445 804.710206 198.760659 
C 804.710206 196.932873 803.984019 195.179702 802.691579 193.887262 
C 801.399139 192.594822 799.645968 191.868634 797.818182 191.868634 
C 795.990396 191.868634 794.237225 192.594822 792.944785 193.887262 
C 791.652345 195.179702 790.926157 196.932873 790.926157 198.760659 
C 790.926157 200.588445 791.652345 202.341616 792.944785 203.634056 
C 794.237225 204.926496 795.990396 205.652683 797.818182 205.652683 
z
" clip-path="url(#pfa36a33de7)" style="fill: #1f77b4; fill-opacity: 0.3; stroke: #1f77b4; stroke-opacity: 0.3"/>
    <path d="M 806.836364 200.970009 
C 809.586048 200.970009 812.223482 199.877548 814.167803 197.933227 
C 816.112123 195.988907 817.204584 193.351473 817.204584 190.601788 
C 817.204584 187.852104 816.112123 185.214669 814.167803 183.270349 
C 812.223482 181.326029 809.586048 180.233568 806.836364 180.233568 
C 804.086679 180.233568 801.449245 181.326029 799.504924 183.270349 
C 797.560604 185.214669 796.468143 187.852104 796.468143 190.601788 
C 796.468143 193.351473 797.560604 195.988907 799.504924 197.933227 
C 801.449245 199.877548 804.086679 200.970009 806.836364 200.970009 
z
" clip-path="url(#pfa36a33de7)" style="fill: #1f77b4; fill-opacity: 0.3; stroke: #1f77b4; stroke-opacity: 0.3"/>
    <path d="M 815.854545 193.569807 
C 818.151272 193.569807 820.354239 192.657308 821.97827 191.033277 
C 823.6023 189.409247 824.514799 187.206279 824.514799 184.909553 
C 824.514799 182.612827 823.6023 180.409859 821.97827 178.785829 
C 820.354239 177.161798 818.151272 176.249299 815.854545 176.249299 
C 813.557819 176.249299 811.354852 177.161798 809.730821 178.785829 
C 808.10679 180.409859 807.194291 182.612827 807.194291 184.909553 
C 807.194291 187.206279 808.10679 189.409247 809.730821 191.033277 
C 811.354852 192.657308 813.557819 193.569807 815.854545 193.569807 
z
" clip-path="url(#pfa36a33de7)" style="fill: #1f77b4; fill-opacity: 0.3; stroke: #1f77b4; stroke-opacity: 0.3"/>
    <path d="M 824.872727 188.196495 
C 826.700514 188.196495 828.453684 187.470308 829.746124 186.177868 
C 831.038564 184.885428 831.764752 183.132257 831.764752 181.304471 
C 831.764752 179.476684 831.038564 177.723513 829.746124 176.431073 
C 828.453684 175.138633 826.700514 174.412446 824.872727 174.412446 
C 823.044941 174.412446 821.29177 175.138633 819.99933 176.431073 
C 818.70689 177.723513 817.980703 179.476684 817.980703 181.304471 
C 817.980703 183.132257 818.70689 184.885428 819.99933 186.177868 
C 821.29177 187.470308 823.044941 188.196495 824.872727 188.196495 
z
" clip-path="url(#pfa36a33de7)" style="fill: #1f77b4; fill-opacity: 0.3; stroke: #1f77b4; stroke-opacity: 0.3"/>
    <path d="M 833.890909 184.593167 
C 835.568201 184.593167 837.177021 183.926772 838.363045 182.740748 
C 839.549069 181.554723 840.215464 179.945903 840.215464 178.268612 
C 840.215464 176.59132 839.549069 174.9825 838.363045 173.796476 
C 837.177021 172.610451 835.568201 171.944056 833.890909 171.944056 
C 832.213617 171.944056 830.604797 172.610451 829.418773 173.796476 
C 828.232749 174.9825 827.566354 176.59132 827.566354 178.268612 
C 827.566354 179.945903 828.232749 181.554723 829.418773 182.740748 
C 830.604797 183.926772 832.213617 184.593167 833.890909 184.593167 
z
" clip-path="url(#pfa36a33de7)" style="fill: #1f77b4; fill-opacity: 0.3; stroke: #1f77b4; stroke-opacity: 0.3"/>
    <path d="M 842.909091 181.3712 
C 844.235106 181.3712 845.50699 180.844368 846.444625 179.906734 
C 847.382259 178.969099 847.909091 177.697215 847.909091 176.3712 
C 847.909091 175.045184 847.382259 173.773301 846.444625 172.835666 
C 845.50699 171.898032 844.235106 171.3712 842.909091 171.3712 
C 841.583075 171.3712 840.311192 171.898032 839.373557 172.835666 
C 838.435922 173.773301 837.909091 175.045184 837.909091 176.3712 
C 837.909091 177.697215 838.435922 178.969099 839.373557 179.906734 
C 840.311192 180.844368 841.583075 181.3712 842.909091 181.3712 
z
" clip-path="url(#pfa36a33de7)" style="fill: #1f77b4; fill-opacity: 0.3; stroke: #1f77b4; stroke-opacity: 0.3"/>
    <path d="M 851.927273 179.632324 
C 853.848852 179.632324 855.691987 178.868872 857.050748 177.510111 
C 858.40951 176.151349 859.172961 174.308214 859.172961 172.386635 
C 859.172961 170.465056 858.40951 168.621921 857.050748 167.26316 
C 855.691987 165.904398 853.848852 165.140947 851.927273 165.140947 
C 850.005694 165.140947 848.162559 165.904398 846.803797 167.26316 
C 845.445036 168.621921 844.681584 170.465056 844.681584 172.386635 
C 844.681584 174.308214 845.445036 176.151349 846.803797 177.510111 
C 848.162559 178.868872 850.005694 179.632324 851.927273 179.632324 
z
" clip-path="url(#pfa36a33de7)" style="fill: #1f77b4; fill-opacity: 0.3; stroke: #1f77b4; stroke-opacity: 0.3"/>
    <path d="M 860.945455 175.398834 
C 863.203578 175.398834 865.369518 174.501673 866.966252 172.904938 
C 868.562986 171.308204 869.460148 169.142264 869.460148 166.884141 
C 869.460148 164.626018 868.562986 162.460078 866.966252 160.863344 
C 865.369518 159.26661 863.203578 158.369448 860.945455 158.369448 
C 858.687332 158.369448 856.521391 159.26661 854.924657 160.863344 
C 853.327923 162.460078 852.430761 164.626018 852.430761 166.884141 
C 852.430761 169.142264 853.327923 171.308204 854.924657 172.904938 
C 856.521391 174.501673 858.687332 175.398834 860.945455 175.398834 
z
" clip-path="url(#pfa36a33de7)" style="fill: #1f77b4; fill-opacity: 0.3; stroke: #1f77b4; stroke-opacity: 0.3"/>
    <path d="M 869.963636 170.126034 
C 871.930435 170.126034 873.816944 169.344616 875.207681 167.95388 
C 876.598417 166.563143 877.379835 164.676634 877.379835 162.709835 
C 877.379835 160.743036 876.598417 158.856528 875.207681 157.465791 
C 873.816944 156.075054 871.930435 155.293637 869.963636 155.293637 
C 867.996838 155.293637 866.110329 156.075054 864.719592 157.465791 
C 863.328855 158.856528 862.547438 160.743036 862.547438 162.709835 
C 862.547438 164.676634 863.328855 166.563143 864.719592 167.95388 
C 866.110329 169.344616 867.996838 170.126034 869.963636 170.126034 
z
" clip-path="url(#pfa36a33de7)" style="fill: #1f77b4; fill-opacity: 0.3; stroke: #1f77b4; stroke-opacity: 0.3"/>
    <path d="M 878.981818 165.184138 
C 881.600489 165.184138 884.112258 164.143729 885.963938 162.292049 
C 887.815618 160.44037 888.856027 157.9286 888.856027 155.309929 
C 888.856027 152.691259 887.815618 150.179489 885.963938 148.327809 
C 884.112258 146.47613 881.600489 145.435721 878.981818 145.435721 
C 876.363147 145.435721 873.851378 146.47613 871.999698 148.327809 
C 870.148018 150.179489 869.107609 152.691259 869.107609 155.309929 
C 869.107609 157.9286 870.148018 160.44037 871.999698 162.292049 
C 873.851378 164.143729 876.363147 165.184138 878.981818 165.184138 
z
" clip-path="url(#pfa36a33de7)" style="fill: #1f77b4; fill-opacity: 0.3; stroke: #1f77b4; stroke-opacity: 0.3"/>
    <path d="M 888 158.363777 
C 890.218848 158.363777 892.347117 157.482219 893.91608 155.913256 
C 895.485042 154.344294 896.3666 152.216025 896.3666 149.997176 
C 896.3666 147.778328 895.485042 145.650059 893.91608 144.081097 
C 892.347117 142.512134 890.218848 141.630576 888 141.630576 
C 885.781152 141.630576 883.652883 142.512134 882.08392 144.081097 
C 880.514958 145.650059 879.6334 147.778328 879.6334 149.997176 
C 879.6334 152.216025 880.514958 154.344294 882.08392 155.913256 
C 883.652883 157.482219 885.781152 158.363777 888 158.363777 
z
" clip-path="url(#pfa36a33de7)" style="fill: #1f77b4; fill-opacity: 0.3; stroke: #1f77b4; stroke-opacity: 0.3"/>
    <path d="M 897.018182 153.009376 
C 899.276305 153.009376 901.442245 152.112214 903.038979 150.51548 
C 904.635713 148.918746 905.532875 146.752805 905.532875 144.494682 
C 905.532875 142.236559 904.635713 140.070619 903.038979 138.473885 
C 901.442245 136.877151 899.276305 135.979989 897.018182 135.979989 
C 894.760059 135.979989 892.594119 136.877151 890.997385 138.473885 
C 889.40065 140.070619 888.503489 142.236559 888.503489 144.494682 
C 888.503489 146.752805 889.40065 148.918746 890.997385 150.51548 
C 892.594119 152.112214 894.760059 153.009376 897.018182 153.009376 
z
" clip-path="url(#pfa36a33de7)" style="fill: #1f77b4; fill-opacity: 0.3; stroke: #1f77b4; stroke-opacity: 0.3"/>
    <path d="M 906.036364 147.783379 
C 907.713655 147.783379 909.322475 147.116984 910.5085 145.930959 
C 911.694524 144.744935 912.360919 143.136115 912.360919 141.458824 
C 912.360919 139.781532 911.694524 138.172712 910.5085 136.986688 
C 909.322475 135.800663 907.713655 135.134268 906.036364 135.134268 
C 904.359072 135.134268 902.750252 135.800663 901.564228 136.986688 
C 900.378203 138.172712 899.711808 139.781532 899.711808 141.458824 
C 899.711808 143.136115 900.378203 144.744935 901.564228 145.930959 
C 902.750252 147.116984 904.359072 147.783379 906.036364 147.783379 
z
" clip-path="url(#pfa36a33de7)" style="fill: #1f77b4; fill-opacity: 0.3; stroke: #1f77b4; stroke-opacity: 0.3"/>
    <path d="M 915.054545 143.454535 
C 917.898532 143.454535 920.626419 142.324607 922.637421 140.313605 
C 924.648423 138.302603 925.778351 135.574716 925.778351 132.730729 
C 925.778351 129.886743 924.648423 127.158856 922.637421 125.147854 
C 920.626419 123.136852 917.898532 122.006924 915.054545 122.006924 
C 912.210559 122.006924 909.482672 123.136852 907.47167 125.147854 
C 905.460668 127.158856 904.33074 129.886743 904.33074 132.730729 
C 904.33074 135.574716 905.460668 138.302603 907.47167 140.313605 
C 909.482672 142.324607 912.210559 143.454535 915.054545 143.454535 
z
" clip-path="url(#pfa36a33de7)" style="fill: #1f77b4; fill-opacity: 0.3; stroke: #1f77b4; stroke-opacity: 0.3"/>
    <path d="M 924.072727 133.145102 
C 927.453417 133.145102 930.696097 131.80194 933.086605 129.411431 
C 935.477114 127.020923 936.820276 123.778242 936.820276 120.397553 
C 936.820276 117.016863 935.477114 113.774183 933.086605 111.383675 
C 930.696097 108.993166 927.453417 107.650004 924.072727 107.650004 
C 920.692038 107.650004 917.449358 108.993166 915.058849 111.383675 
C 912.668341 113.774183 911.325178 117.016863 911.325178 120.397553 
C 911.325178 123.778242 912.668341 127.020923 915.058849 129.411431 
C 917.449358 131.80194 920.692038 133.145102 924.072727 133.145102 
z
" clip-path="url(#pfa36a33de7)" style="fill: #1f77b4; fill-opacity: 0.3; stroke: #1f77b4; stroke-opacity: 0.3"/>
    <path d="M 933.090909 123.616381 
C 935.101911 123.616381 937.030819 122.817402 938.452812 121.395409 
C 939.874805 119.973415 940.673785 118.044508 940.673785 116.033506 
C 940.673785 114.022504 939.874805 112.093596 938.452812 110.671603 
C 937.030819 109.24961 935.101911 108.45063 933.090909 108.45063 
C 931.079907 108.45063 929.151 109.24961 927.729006 110.671603 
C 926.307013 112.093596 925.508034 114.022504 925.508034 116.033506 
C 925.508034 118.044508 926.307013 119.973415 927.729006 121.395409 
C 929.151 122.817402 931.079907 123.616381 933.090909 123.616381 
z
" clip-path="url(#pfa36a33de7)" style="fill: #1f77b4; fill-opacity: 0.3; stroke: #1f77b4; stroke-opacity: 0.3"/>
    <path d="M 942.109091 118.507809 
C 944.727762 118.507809 947.239531 117.4674 949.091211 115.61572 
C 950.942891 113.76404 951.9833 111.252271 951.9833 108.6336 
C 951.9833 106.014929 950.942891 103.50316 949.091211 101.65148 
C 947.239531 99.7998 944.727762 98.759391 942.109091 98.759391 
C 939.49042 98.759391 936.978651 99.7998 935.126971 101.65148 
C 933.275291 103.50316 932.234882 106.014929 932.234882 108.6336 
C 932.234882 111.252271 933.275291 113.76404 935.126971 115.61572 
C 936.978651 117.4674 939.49042 118.507809 942.109091 118.507809 
z
" clip-path="url(#pfa36a33de7)" style="fill: #1f77b4; fill-opacity: 0.3; stroke: #1f77b4; stroke-opacity: 0.3"/>
    <path d="M 951.127273 111.687447 
C 953.346121 111.687447 955.47439 110.80589 957.043353 109.236927 
C 958.612315 107.667964 959.493873 105.539695 959.493873 103.320847 
C 959.493873 101.101999 958.612315 98.97373 957.043353 97.404767 
C 955.47439 95.835805 953.346121 94.954247 951.127273 94.954247 
C 948.908424 94.954247 946.780156 95.835805 945.211193 97.404767 
C 943.64223 98.97373 942.760672 101.101999 942.760672 103.320847 
C 942.760672 105.539695 943.64223 107.667964 945.211193 109.236927 
C 946.780156 110.80589 948.908424 111.687447 951.127273 111.687447 
z
" clip-path="url(#pfa36a33de7)" style="fill: #1f77b4; fill-opacity: 0.3; stroke: #1f77b4; stroke-opacity: 0.3"/>
    <path d="M 960.145455 106.175959 
C 961.254879 106.175959 962.319013 105.73518 963.103494 104.950699 
C 963.887976 104.166217 964.328755 103.102083 964.328755 101.992659 
C 964.328755 100.883235 963.887976 99.8191 963.103494 99.034619 
C 962.319013 98.250138 961.254879 97.809359 960.145455 97.809359 
C 959.03603 97.809359 957.971896 98.250138 957.187415 99.034619 
C 956.402933 99.8191 955.962154 100.883235 955.962154 101.992659 
C 955.962154 103.102083 956.402933 104.166217 957.187415 104.950699 
C 957.971896 105.73518 959.03603 106.175959 960.145455 106.175959 
z
" clip-path="url(#pfa36a33de7)" style="fill: #1f77b4; fill-opacity: 0.3; stroke: #1f77b4; stroke-opacity: 0.3"/>
    <path d="M 969.163636 104.579487 
C 970.101271 104.579487 971.000629 104.206961 971.663636 103.543953 
C 972.326644 102.880945 972.69917 101.981587 972.69917 101.043953 
C 972.69917 100.106318 972.326644 99.206961 971.663636 98.543953 
C 971.000629 97.880945 970.101271 97.508419 969.163636 97.508419 
C 968.226002 97.508419 967.326644 97.880945 966.663636 98.543953 
C 966.000629 99.206961 965.628102 100.106318 965.628102 101.043953 
C 965.628102 101.981587 966.000629 102.880945 966.663636 103.543953 
C 967.326644 104.206961 968.226002 104.579487 969.163636 104.579487 
z
" clip-path="url(#pfa36a33de7)" style="fill: #1f77b4; fill-opacity: 0.3; stroke: #1f77b4; stroke-opacity: 0.3"/>
    <path d="M 978.181818 104.146541 
C 979.507834 104.146541 980.779718 103.61971 981.717352 102.682075 
C 982.654987 101.744441 983.181818 100.472557 983.181818 99.146541 
C 983.181818 97.820526 982.654987 96.548642 981.717352 95.611007 
C 980.779718 94.673373 979.507834 94.146541 978.181818 94.146541 
C 976.855803 94.146541 975.583919 94.673373 974.646284 95.611007 
C 973.70865 96.548642 973.181818 97.820526 973.181818 99.146541 
C 973.181818 100.472557 973.70865 101.744441 974.646284 102.682075 
C 975.583919 103.61971 976.855803 104.146541 978.181818 104.146541 
z
" clip-path="url(#pfa36a33de7)" style="fill: #1f77b4; fill-opacity: 0.3; stroke: #1f77b4; stroke-opacity: 0.3"/>
    <path d="M 987.2 101.142252 
C 990.043986 101.142252 992.771873 100.012325 994.782875 98.001323 
C 996.793878 95.99032 997.923805 93.262433 997.923805 90.418447 
C 997.923805 87.574461 996.793878 84.846574 994.782875 82.835572 
C 992.771873 80.82457 990.043986 79.694642 987.2 79.694642 
C 984.356014 79.694642 981.628127 80.82457 979.617125 82.835572 
C 977.606122 84.846574 976.476195 87.574461 976.476195 90.418447 
C 976.476195 93.262433 977.606122 95.99032 979.617125 98.001323 
C 981.628127 100.012325 984.356014 101.142252 987.2 101.142252 
z
" clip-path="url(#pfa36a33de7)" style="fill: #1f77b4; fill-opacity: 0.3; stroke: #1f77b4; stroke-opacity: 0.3"/>
    <path d="M 996.218182 93.152983 
C 997.245309 93.152983 998.230506 92.744901 998.956795 92.018613 
C 999.683083 91.292324 1000.091165 90.307127 1000.091165 89.28 
C 1000.091165 88.252873 999.683083 87.267676 998.956795 86.541387 
C 998.230506 85.815099 997.245309 85.407017 996.218182 85.407017 
C 995.191055 85.407017 994.205858 85.815099 993.479569 86.541387 
C 992.75328 87.267676 992.345198 88.252873 992.345198 89.28 
C 992.345198 90.307127 992.75328 91.292324 993.479569 92.018613 
C 994.205858 92.744901 995.191055 93.152983 996.218182 93.152983 
z
" clip-path="url(#pfa36a33de7)" style="fill: #1f77b4; fill-opacity: 0.3; stroke: #1f77b4; stroke-opacity: 0.3"/>
   </g>
   <g id="matplotlib.axis_1">
    <g id="xtick_1">
     <g id="line2d_1">
      <defs>
       <path id="mce6aa483ff" d="M 0 0 
L 0 3.5 
" style="stroke: #000000; stroke-width: 0.8"/>
      </defs>
      <g>
       <use xlink:href="#mce6aa483ff" x="184.581818" y="512.64" style="stroke: #000000; stroke-width: 0.8"/>
      </g>
     </g>
     <g id="text_1">
      <!-- 2026-01-01 -->
      <g transform="translate(155.524006 527.238438) scale(0.1 -0.1)">
       <defs>
        <path id="DejaVuSans-32" d="M 1228 531 
L 3431 531 
L 3431 0 
L 469 0 
L 469 531 
Q 828 903 1448 1529 
Q 2069 2156 2228 2338 
Q 2531 2678 2651 2914 
Q 2772 3150 2772 3378 
Q 2772 3750 2511 3984 
Q 2250 4219 1831 4219 
Q 1534 4219 1204 4116 
Q 875 4013 500 3803 
L 500 4441 
Q 881 4594 1212 4672 
Q 1544 4750 1819 4750 
Q 2544 4750 2975 4387 
Q 3406 4025 3406 3419 
Q 3406 3131 3298 2873 
Q 3191 2616 2906 2266 
Q 2828 2175 2409 1742 
Q 1991 1309 1228 531 
z
" transform="scale(0.015625)"/>
        <path id="DejaVuSans-30" d="M 2034 4250 
Q 1547 4250 1301 3770 
Q 1056 3291 1056 2328 
Q 1056 1369 1301 889 
Q 1547 409 2034 409 
Q 2525 409 2770 889 
Q 3016 1369 3016 2328 
Q 3016 3291 2770 3770 
Q 2525 4250 2034 4250 
z
M 2034 4750 
Q 2819 4750 3233 4129 
Q 3647 3509 3647 2328 
Q 3647 1150 3233 529 
Q 2819 -91 2034 -91 
Q 1250 -91 836 529 
Q 422 1150 422 2328 
Q 422 3509 836 4129 
Q 1250 4750 2034 4750 
z
" transform="scale(0.015625)"/>
        <path id="DejaVuSans-36" d="M 2113 2584 
Q 1688 2584 1439 2293 
Q 1191 2003 1191 1497 
Q 1191 994 1439 701 
Q 1688 409 2113 409 
Q 2538 409 2786 701 
Q 3034 994 3034 1497 
Q 3034 2003 2786 2293 
Q 2538 2584 2113 2584 
z
M 3366 4563 
L 3366 3988 
Q 3128 4100 2886 4159 
Q 2644 4219 2406 4219 
Q 1781 4219 1451 3797 
Q 1122 3375 1075 2522 
Q 1259 2794 1537 2939 
Q 1816 3084 2150 3084 
Q 2853 3084 3261 2657 
Q 3669 2231 3669 1497 
Q 3669 778 3244 343 
Q 2819 -91 2113 -91 
Q 1303 -91 875 529 
Q 447 1150 447 2328 
Q 447 3434 972 4092 
Q 1497 4750 2381 4750 
Q 2619 4750 2861 4703 
Q 3103 4656 3366 4563 
z
" transform="scale(0.015625)"/>
        <path id="DejaVuSans-2d" d="M 313 2009 
L 1997 2009 
L 1997 1497 
L 313 1497 
L 313 2009 
z
" transform="scale(0.015625)"/>
        <path id="DejaVuSans-31" d="M 794 531 
L 1825 531 
L 1825 4091 
L 703 3866 
L 703 4441 
L 1819 4666 
L 2450 4666 
L 2450 531 
L 3481 531 
L 3481 0 
L 794 0 
L 794 531 
z
" transform="scale(0.015625)"/>
       </defs>
       <use xlink:href="#DejaVuSans-32"/>
       <use xlink:href="#DejaVuSans-30" x="63.623047"/>
       <use xlink:href="#DejaVuSans-32" x="127.246094"/>
       <use xlink:href="#DejaVuSans-36" x="190.869141"/>
       <use xlink:href="#DejaVuSans-2d" x="254.492188"/>
       <use xlink:href="#DejaVuSans-30" x="290.576172"/>
       <use xlink:href="#DejaVuSans-31" x="354.199219"/>
       <use xlink:href="#DejaVuSans-2d" x="417.822266"/>
       <use xlink:href="#DejaVuSans-30" x="453.90625"/>
       <use xlink:href="#DejaVuSans-31" x="517.529297"/>
      </g>
     </g>
    </g>
    <g id="xtick_2">
     <g id="line2d_2">
      <g>
       <use xlink:href="#mce6aa483ff" x="310.836364" y="512.64" style="stroke: #000000; stroke-width: 0.8"/>
      </g>
     </g>
     <g id="text_2">
      <!-- 2026-01-15 -->
      <g transform="translate(281.778551 527.238438) scale(0.1 -0.1)">
       <defs>
        <path id="DejaVuSans-35" d="M 691 4666 
L 3169 4666 
L 3169 4134 
L 1269 4134 
L 1269 2991 
Q 1406 3038 1543 3061 
Q 1681 3084 1819 3084 
Q 2600 3084 3056 2656 
Q 3513 2228 3513 1497 
Q 3513 744 3044 326 
Q 2575 -91 1722 -91 
Q 1428 -91 1123 -41 
Q 819 9 494 109 
L 494 744 
Q 775 591 1075 516 
Q 1375 441 1709 441 
Q 2250 441 2565 725 
Q 2881 1009 2881 1497 
Q 2881 1984 2565 2268 
Q 2250 2553 1709 2553 
Q 1456 2553 1204 2497 
Q 953 2441 691 2322 
L 691 4666 
z
" transform="scale(0.015625)"/>
       </defs>
       <use xlink:href="#DejaVuSans-32"/>
       <use xlink:href="#DejaVuSans-30" x="63.623047"/>
       <use xlink:href="#DejaVuSans-32" x="127.246094"/>
       <use xlink:href="#DejaVuSans-36" x="190.869141"/>
       <use xlink:href="#DejaVuSans-2d" x="254.492188"/>
       <use xlink:href="#DejaVuSans-30" x="290.576172"/>
       <use xlink:href="#DejaVuSans-31" x="354.199219"/>
       <use xlink:href="#DejaVuSans-2d" x="417.822266"/>
       <use xlink:href="#DejaVuSans-31" x="453.90625"/>
       <use xlink:href="#DejaVuSans-35" x="517.529297"/>
      </g>
     </g>
    </g>
    <g id="xtick_3">
     <g id="line2d_3">
      <g>
       <use xlink:href="#mce6aa483ff" x="464.145455" y="512.64" style="stroke: #000000; stroke-width: 0.8"/>
      </g>
     </g>
     <g id="text_3">
      <!-- 2026-02-01 -->
      <g transform="translate(435.087642 527.238438) scale(0.1 -0.1)">
       <use xlink:href="#DejaVuSans-32"/>
       <use xlink:href="#DejaVuSans-30" x="63.623047"/>
       <use xlink:href="#DejaVuSans-32" x="127.246094"/>
       <use xlink:href="#DejaVuSans-36" x="190.869141"/>
       <use xlink:href="#DejaVuSans-2d" x="254.492188"/>
       <use xlink:href="#DejaVuSans-30" x="290.576172"/>
       <use xlink:href="#DejaVuSans-32" x="354.199219"/>
       <use xlink:href="#DejaVuSans-2d" x="417.822266"/>
       <use xlink:href="#DejaVuSans-30" x="453.90625"/>
       <use xlink:href="#DejaVuSans-31" x="517.529297"/>
      </g>
     </g>
    </g>
    <g id="xtick_4">
     <g id="line2d_4">
      <g>
       <use xlink:href="#mce6aa483ff" x="590.4" y="512.64" style="stroke: #000000; stroke-width: 0.8"/>
      </g>
     </g>
     <g id="text_4">
      <!-- 2026-02-15 -->
      <g transform="translate(561.342187 527.238438) scale(0.1 -0.1)">
       <use xlink:href="#DejaVuSans-32"/>
       <use xlink:href="#DejaVuSans-30" x="63.623047"/>
       <use xlink:href="#DejaVuSans-32" x="127.246094"/>
       <use xlink:href="#DejaVuSans-36" x="190.869141"/>
       <use xlink:href="#DejaVuSans-2d" x="254.492188"/>
       <use xlink:href="#DejaVuSans-30" x="290.576172"/>
       <use xlink:href="#DejaVuSans-32" x="354.199219"/>
       <use xlink:href="#DejaVuSans-2d" x="417.822266"/>
       <use xlink:href="#DejaVuSans-31" x="453.90625"/>
       <use xlink:href="#DejaVuSans-35" x="517.529297"/>
      </g>
     </g>
    </g>
    <g id="xtick_5">
     <g id="line2d_5">
      <g>
       <use xlink:href="#mce6aa483ff" x="716.654545" y="512.64" style="stroke: #000000; stroke-width: 0.8"/>
      </g>
     </g>
     <g id="text_5">
      <!-- 2026-03-01 -->
      <g transform="translate(687.596733 527.238438) scale(0.1 -0.1)">
       <defs>
        <path id="DejaVuSans-33" d="M 2597 2516 
Q 3050 2419 3304 2112 
Q 3559 1806 3559 1356 
Q 3559 666 3084 287 
Q 2609 -91 1734 -91 
Q 1441 -91 1130 -33 
Q 819 25 488 141 
L 488 750 
Q 750 597 1062 519 
Q 1375 441 1716 441 
Q 2309 441 2620 675 
Q 2931 909 2931 1356 
Q 2931 1769 2642 2001 
Q 2353 2234 1838 2234 
L 1294 2234 
L 1294 2753 
L 1863 2753 
Q 2328 2753 2575 2939 
Q 2822 3125 2822 3475 
Q 2822 3834 2567 4026 
Q 2313 4219 1838 4219 
Q 1578 4219 1281 4162 
Q 984 4106 628 3988 
L 628 4550 
Q 988 4650 1302 4700 
Q 1616 4750 1894 4750 
Q 2613 4750 3031 4423 
Q 3450 4097 3450 3541 
Q 3450 3153 3228 2886 
Q 3006 2619 2597 2516 
z
" transform="scale(0.015625)"/>
       </defs>
       <use xlink:href="#DejaVuSans-32"/>
       <use xlink:href="#DejaVuSans-30" x="63.623047"/>
       <use xlink:href="#DejaVuSans-32" x="127.246094"/>
       <use xlink:href="#DejaVuSans-36" x="190.869141"/>
       <use xlink:href="#DejaVuSans-2d" x="254.492188"/>
       <use xlink:href="#DejaVuSans-30" x="290.576172"/>
       <use xlink:href="#DejaVuSans-33" x="354.199219"/>
       <use xlink:href="#DejaVuSans-2d" x="417.822266"/>
       <use xlink:href="#DejaVuSans-30" x="453.90625"/>
       <use xlink:href="#DejaVuSans-31" x="517.529297"/>
      </g>
     </g>
    </g>
    <g id="xtick_6">
     <g id="line2d_6">
      <g>
       <use xlink:href="#mce6aa483ff" x="842.909091" y="512.64" style="stroke: #000000; stroke-width: 0.8"/>
      </g>
     </g>
     <g id="text_6">
      <!-- 2026-03-15 -->
      <g transform="translate(813.851278 527.238438) scale(0.1 -0.1)">
       <use xlink:href="#DejaVuSans-32"/>
       <use xlink:href="#DejaVuSans-30" x="63.623047"/>
       <use xlink:href="#DejaVuSans-32" x="127.246094"/>
       <use xlink:href="#DejaVuSans-36" x="190.869141"/>
       <use xlink:href="#DejaVuSans-2d" x="254.492188"/>
       <use xlink:href="#DejaVuSans-30" x="290.576172"/>
       <use xlink:href="#DejaVuSans-33" x="354.199219"/>
       <use xlink:href="#DejaVuSans-2d" x="417.822266"/>
       <use xlink:href="#DejaVuSans-31" x="453.90625"/>
       <use xlink:href="#DejaVuSans-35" x="517.529297"/>
      </g>
     </g>
    </g>
    <g id="xtick_7">
     <g id="line2d_7">
      <g>
       <use xlink:href="#mce6aa483ff" x="996.218182" y="512.64" style="stroke: #000000; stroke-width: 0.8"/>
      </g>
     </g>
     <g id="text_7">
      <!-- 2026-04-01 -->
      <g transform="translate(967.160369 527.238438) scale(0.1 -0.1)">
       <defs>
        <path id="DejaVuSans-34" d="M 2419 4116 
L 825 1625 
L 2419 1625 
L 2419 4116 
z
M 2253 4666 
L 3047 4666 
L 3047 1625 
L 3713 1625 
L 3713 1100 
L 3047 1100 
L 3047 0 
L 2419 0 
L 2419 1100 
L 313 1100 
L 313 1709 
L 2253 4666 
z
" transform="scale(0.015625)"/>
       </defs>
       <use xlink:href="#DejaVuSans-32"/>
       <use xlink:href="#DejaVuSans-30" x="63.623047"/>
       <use xlink:href="#DejaVuSans-32" x="127.246094"/>
       <use xlink:href="#DejaVuSans-36" x="190.869141"/>
       <use xlink:href="#DejaVuSans-2d" x="254.492188"/>
       <use xlink:href="#DejaVuSans-30" x="290.576172"/>
       <use xlink:href="#DejaVuSans-34" x="354.199219"/>
       <use xlink:href="#DejaVuSans-2d" x="417.822266"/>
       <use xlink:href="#DejaVuSans-30" x="453.90625"/>
       <use xlink:href="#DejaVuSans-31" x="517.529297"/>
      </g>
     </g>
    </g>
   </g>
   <g id="matplotlib.axis_2">
    <g id="ytick_1">
     <g id="line2d_8">
      <defs>
       <path id="m0d1e53a851" d="M 0 0 
L -3.5 0 
" style="stroke: #000000; stroke-width: 0.8"/>
      </defs>
      <g>
       <use xlink:href="#m0d1e53a851" x="144" y="488.115953" style="stroke: #000000; stroke-width: 0.8"/>
      </g>
     </g>
     <g id="text_8">
      <!-- 13000 -->
      <g transform="translate(105.1875 491.915172) scale(0.1 -0.1)">
       <use xlink:href="#DejaVuSans-31"/>
       <use xlink:href="#DejaVuSans-33" x="63.623047"/>
       <use xlink:href="#DejaVuSans-30" x="127.246094"/>
       <use xlink:href="#DejaVuSans-30" x="190.869141"/>
       <use xlink:href="#DejaVuSans-30" x="254.492188"/>
      </g>
     </g>
    </g>
    <g id="ytick_2">
     <g id="line2d_9">
      <g>
       <use xlink:href="#m0d1e53a851" x="144" y="393.245365" style="stroke: #000000; stroke-width: 0.8"/>
      </g>
     </g>
     <g id="text_9">
      <!-- 13500 -->
      <g transform="translate(105.1875 397.044583) scale(0.1 -0.1)">
       <use xlink:href="#DejaVuSans-31"/>
       <use xlink:href="#DejaVuSans-33" x="63.623047"/>
       <use xlink:href="#DejaVuSans-35" x="127.246094"/>
       <use xlink:href="#DejaVuSans-30" x="190.869141"/>
       <use xlink:href="#DejaVuSans-30" x="254.492188"/>
      </g>
     </g>
    </g>
    <g id="ytick_3">
     <g id="line2d_10">
      <g>
       <use xlink:href="#m0d1e53a851" x="144" y="298.374776" style="stroke: #000000; stroke-width: 0.8"/>
      </g>
     </g>
     <g id="text_10">
      <!-- 14000 -->
      <g transform="translate(105.1875 302.173995) scale(0.1 -0.1)">
       <use xlink:href="#DejaVuSans-31"/>
       <use xlink:href="#DejaVuSans-34" x="63.623047"/>
       <use xlink:href="#DejaVuSans-30" x="127.246094"/>
       <use xlink:href="#DejaVuSans-30" x="190.869141"/>
       <use xlink:href="#DejaVuSans-30" x="254.492188"/>
      </g>
     </g>
    </g>
    <g id="ytick_4">
     <g id="line2d_11">
      <g>
       <use xlink:href="#m0d1e53a851" x="144" y="203.504188" style="stroke: #000000; stroke-width: 0.8"/>
      </g>
     </g>
     <g id="text_11">
      <!-- 14500 -->
      <g transform="translate(105.1875 207.303407) scale(0.1 -0.1)">
       <use xlink:href="#DejaVuSans-31"/>
       <use xlink:href="#DejaVuSans-34" x="63.623047"/>
       <use xlink:href="#DejaVuSans-35" x="127.246094"/>
       <use xlink:href="#DejaVuSans-30" x="190.869141"/>
       <use xlink:href="#DejaVuSans-30" x="254.492188"/>
      </g>
     </g>
    </g>
    <g id="ytick_5">
     <g id="line2d_12">
      <g>
       <use xlink:href="#m0d1e53a851" x="144" y="108.6336" style="stroke: #000000; stroke-width: 0.8"/>
      </g>
     </g>
     <g id="text_12">
      <!-- 15000 -->
      <g transform="translate(105.1875 112.432819) scale(0.1 -0.1)">
       <use xlink:href="#DejaVuSans-31"/>
       <use xlink:href="#DejaVuSans-35" x="63.623047"/>
       <use xlink:href="#DejaVuSans-30" x="127.246094"/>
       <use xlink:href="#DejaVuSans-30" x="190.869141"/>
       <use xlink:href="#DejaVuSans-30" x="254.492188"/>
      </g>
     </g>
    </g>
   </g>
   <g id="line2d_13">
    <path d="M 184.581818 492.48 
L 193.6 489.2544 
L 202.618182 483.941647 
L 211.636364 481.854494 
L 220.654545 480.905788 
L 229.672727 477.680188 
L 238.690909 474.834071 
L 247.709091 467.434165 
L 256.727273 463.829082 
L 265.745455 462.121412 
L 274.763636 461.741929 
L 283.781818 454.531765 
L 292.8 449.788235 
L 301.818182 447.3216 
L 310.836364 441.249882 
L 319.854545 433.091012 
L 328.872727 432.332047 
L 337.890909 430.244894 
L 346.909091 425.121882 
L 355.927273 422.844988 
L 364.945455 413.357929 
L 373.963636 408.234918 
L 382.981818 403.681129 
L 392 398.178635 
L 401.018182 397.419671 
L 410.036364 396.660706 
L 419.054545 389.830024 
L 428.072727 380.342965 
L 437.090909 374.271247 
L 446.109091 369.148235 
L 455.127273 368.389271 
L 464.145455 366.302118 
L 473.163636 362.507294 
L 482.181818 357.953506 
L 491.2 356.435576 
L 500.218182 351.122824 
L 509.236364 347.897224 
L 518.254545 345.810071 
L 527.272727 338.599906 
L 536.290909 336.323012 
L 545.309091 329.871812 
L 554.327273 326.076988 
L 563.345455 323.800094 
L 572.363636 320.005271 
L 581.381818 318.2976 
L 590.4 311.277176 
L 599.418182 302.1696 
L 608.436364 300.461929 
L 617.454545 296.667106 
L 626.472727 292.872282 
L 635.490909 289.456941 
L 644.509091 285.851859 
L 653.527273 280.349365 
L 662.545455 274.846871 
L 671.563636 266.688 
L 680.581818 262.893176 
L 689.6 251.888188 
L 698.618182 247.524141 
L 707.636364 245.247247 
L 716.654545 241.452424 
L 725.672727 236.329412 
L 734.690909 232.534588 
L 743.709091 227.032094 
L 752.727273 223.996235 
L 761.745455 220.011671 
L 770.763636 216.596329 
L 779.781818 214.129694 
L 788.8 202.365741 
L 797.818182 198.760659 
L 806.836364 190.601788 
L 815.854545 184.909553 
L 824.872727 181.304471 
L 833.890909 178.268612 
L 842.909091 176.3712 
L 851.927273 172.386635 
L 860.945455 166.884141 
L 869.963636 162.709835 
L 878.981818 155.309929 
L 888 149.997176 
L 897.018182 144.494682 
L 906.036364 141.458824 
L 915.054545 132.730729 
L 924.072727 120.397553 
L 933.090909 116.033506 
L 942.109091 108.6336 
L 951.127273 103.320847 
L 960.145455 101.992659 
L 969.163636 101.043953 
L 978.181818 99.146541 
L 987.2 90.418447 
L 996.218182 89.28 
" clip-path="url(#pfa36a33de7)" style="fill: none; stroke: #1f77b4; stroke-width: 1.5; stroke-linecap: square"/>
   </g>
   <g id="patch_3">
    <path d="M 144 512.64 
L 144 69.12 
" style="fill: none; stroke: #000000; stroke-width: 0.8; stroke-linejoin: miter; stroke-linecap: square"/>
   </g>
   <g id="patch_4">
    <path d="M 1036.8 512.64 
L 1036.8 69.12 
" style="fill: none; stroke: #000000; stroke-width: 0.8; stroke-linejoin: miter; stroke-linecap: square"/>
   </g>
   <g id="patch_5">
    <path d="M 144 512.64 
L 1036.8 512.64 
" style="fill: none; stroke: #000000; stroke-width: 0.8; stroke-linejoin: miter; stroke-linecap: square"/>
   </g>
   <g id="patch_6">
    <path d="M 144 69.12 
L 1036.8 69.12 
" style="fill: none; stroke: #000000; stroke-width: 0.8; stroke-linejoin: miter; stroke-linecap: square"/>
   </g>
   <g id="text_13">
    <!-- Number of AEDs in the OpenStreetMap database in Poland from 2026-01-01, day by day. As at: 2026-04-01 -->
    <g transform="translate(144 63.12) scale(0.14 -0.14)">
     <defs>
      <path id="DejaVuSans-4e" d="M 628 4666 
L 1478 4666 
L 3547 763 
L 3547 4666 
L 4159 4666 
L 4159 0 
L 3309 0 
L 1241 3903 
L 1241 0 
L 628 0 
L 628 4666 
z
" transform="scale(0.015625)"/>
      <path id="DejaVuSans-75" d="M 544 1381 
L 544 3500 
L 1119 3500 
L 1119 1403 
Q 1119 906 1312 657 
Q 1506 409 1894 409 
Q 2359 409 2629 706 
Q 2900 1003 2900 1516 
L 2900 3500 
L 3475 3500 
L 3475 0 
L 2900 0 
L 2900 538 
Q 2691 219 2414 64 
Q 2138 -91 1772 -91 
Q 1169 -91 856 284 
Q 544 659 544 1381 
z
M 1991 3584 
L 1991 3584 
z
" transform="scale(0.015625)"/>
      <path id="DejaVuSans-6d" d="M 3328 2828 
Q 3544 3216 3844 3400 
Q 4144 3584 4550 3584 
Q 5097 3584 5394 3201 
Q 5691 2819 5691 2113 
L 5691 0 
L 5113 0 
L 5113 2094 
Q 5113 2597 4934 2840 
Q 4756 3084 4391 3084 
Q 3944 3084 3684 2787 
Q 3425 2491 3425 1978 
L 3425 0 
L 2847 0 
L 2847 2094 
Q 2847 2600 2669 2842 
Q 2491 3084 2119 3084 
Q 1678 3084 1418 2786 
Q 1159 2488 1159 1978 
L 1159 0 
L 581 0 
L 581 3500 
L 1159 3500 
L 1159 2956 
Q 1356 3278 1631 3431 
Q 1906 3584 2284 3584 
Q 2666 3584 2933 3390 
Q 3200 3197 3328 2828 
z
" transform="scale(0.015625)"/>
      <path id="DejaVuSans-62" d="M 3116 1747 
Q 3116 2381 2855 2742 
Q 2594 3103 2138 3103 
Q 1681 3103 1420 2742 
Q 1159 2381 1159 1747 
Q 1159 1113 1420 752 
Q 1681 391 2138 391 
Q 2594 391 2855 752 
Q 3116 1113 3116 1747 
z
M 1159 2969 
Q 1341 3281 1617 3432 
Q 1894 3584 2278 3584 
Q 2916 3584 3314 3078 
Q 3713 2572 3713 1747 
Q 3713 922 3314 415 
Q 2916 -91 2278 -91 
Q 1894 -91 1617 61 
Q 1341 213 1159 525 
L 1159 0 
L 581 0 
L 581 4863 
L 1159 4863 
L 1159 2969 
z
" transform="scale(0.015625)"/>
      <path id="DejaVuSans-65" d="M 3597 1894 
L 3597 1613 
L 953 1613 
Q 991 1019 1311 708 
Q 1631 397 2203 397 
Q 2534 397 2845 478 
Q 3156 559 3463 722 
L 3463 178 
Q 3153 47 2828 -22 
Q 2503 -91 2169 -91 
Q 1331 -91 842 396 
Q 353 884 353 1716 
Q 353 2575 817 3079 
Q 1281 3584 2069 3584 
Q 2775 3584 3186 3129 
Q 3597 2675 3597 1894 
z
M 3022 2063 
Q 3016 2534 2758 2815 
Q 2500 3097 2075 3097 
Q 1594 3097 1305 2825 
Q 1016 2553 972 2059 
L 3022 2063 
z
" transform="scale(0.015625)"/>
      <path id="DejaVuSans-72" d="M 2631 2963 
Q 2534 3019 2420 3045 
Q 2306 3072 2169 3072 
Q 1681 3072 1420 2755 
Q 1159 2438 1159 1844 
L 1159 0 
L 581 0 
L 581 3500 
L 1159 3500 
L 1159 2956 
Q 1341 3275 1631 3429 
Q 1922 3584 2338 3584 
Q 2397 3584 2469 3576 
Q 2541 3569 2628 3553 
L 2631 2963 
z
" transform="scale(0.015625)"/>
      <path id="DejaVuSans-20" transform="scale(0.015625)"/>
      <path id="DejaVuSans-6f" d="M 1959 3097 
Q 1497 3097 1228 2736 
Q 959 2375 959 1747 
Q 959 1119 1226 758 
Q 1494 397 1959 397 
Q 2419 397 2687 759 
Q 2956 1122 2956 1747 
Q 2956 2369 2687 2733 
Q 2419 3097 1959 3097 
z
M 1959 3584 
Q 2709 3584 3137 3096 
Q 3566 2609 3566 1747 
Q 3566 888 3137 398 
Q 2709 -91 1959 -91 
Q 1206 -91 779 398 
Q 353 888 353 1747 
Q 353 2609 779 3096 
Q 1206 3584 1959 3584 
z
" transform="scale(0.015625)"/>
      <path id="DejaVuSans-66" d="M 2375 4863 
L 2375 4384 
L 1825 4384 
Q 1516 4384 1395 4259 
Q 1275 4134 1275 3809 
L 1275 3500 
L 2222 3500 
L 2222 3053 
L 1275 3053 
L 1275 0 
L 697 0 
L 697 3053 
L 147 3053 
L 147 3500 
L 697 3500 
L 697 3744 
Q 697 4328 969 4595 
Q 1241 4863 1831 4863 
L 2375 4863 
z
" transform="scale(0.015625)"/>
      <path id="DejaVuSans-41" d="M 2188 4044 
L 1331 1722 
L 3047 1722 
L 2188 4044 
z
M 1831 4666 
L 2547 4666 
L 4325 0 
L 3669 0 
L 3244 1197 
L 1141 1197 
L 716 0 
L 50 0 
L 1831 4666 
z
" transform="scale(0.015625)"/>
      <path id="DejaVuSans-45" d="M 628 4666 
L 3578 4666 
L 3578 4134 
L 1259 4134 
L 1259 2753 
L 3481 2753 
L 3481 2222 
L 1259 2222 
L 1259 531 
L 3634 531 
L 3634 0 
L 628 0 
L 628 4666 
z
" transform="scale(0.015625)"/>
      <path id="DejaVuSans-44" d="M 1259 4147 
L 1259 519 
L 2022 519 
Q 2988 519 3436 956 
Q 3884 1394 3884 2338 
Q 3884 3275 3436 3711 
Q 2988 4147 2022 4147 
L 1259 4147 
z
M 628 4666 
L 1925 4666 
Q 3281 4666 3915 4102 
Q 4550 3538 4550 2338 
Q 4550 1131 3912 565 
Q 3275 0 1925 0 
L 628 0 
L 628 4666 
z
" transform="scale(0.015625)"/>
      <path id="DejaVuSans-73" d="M 2834 3397 
L 2834 2853 
Q 2591 2978 2328 3040 
Q 2066 3103 1784 3103 
Q 1356 3103 1142 2972 
Q 928 2841 928 2578 
Q 928 2378 1081 2264 
Q 1234 2150 1697 2047 
L 1894 2003 
Q 2506 1872 2764 1633 
Q 3022 1394 3022 966 
Q 3022 478 2636 193 
Q 2250 -91 1575 -91 
Q 1294 -91 989 -36 
Q 684 19 347 128 
L 347 722 
Q 666 556 975 473 
Q 1284 391 1588 391 
Q 1994 391 2212 530 
Q 2431 669 2431 922 
Q 2431 1156 2273 1281 
Q 2116 1406 1581 1522 
L 1381 1569 
Q 847 1681 609 1914 
Q 372 2147 372 2553 
Q 372 3047 722 3315 
Q 1072 3584 1716 3584 
Q 2034 3584 2315 3537 
Q 2597 3491 2834 3397 
z
" transform="scale(0.015625)"/>
      <path id="DejaVuSans-69" d="M 603 3500 
L 1178 3500 
L 1178 0 
L 603 0 
L 603 3500 
z
M 603 4863 
L 1178 4863 
L 1178 4134 
L 603 4134 
L 603 4863 
z
" transform="scale(0.015625)"/>
      <path id="DejaVuSans-6e" d="M 3513 2113 
L 3513 0 
L 2938 0 
L 2938 2094 
Q 2938 2591 2744 2837 
Q 2550 3084 2163 3084 
Q 1697 3084 1428 2787 
Q 1159 2491 1159 1978 
L 1159 0 
L 581 0 
L 581 3500 
L 1159 3500 
L 1159 2956 
Q 1366 3272 1645 3428 
Q 1925 3584 2291 3584 
Q 2894 3584 3203 3211 
Q 3513 2838 3513 2113 
z
" transform="scale(0.015625)"/>
      <path id="DejaVuSans-74" d="M 1172 4494 
L 1172 3500 
L 2356 3500 
L 2356 3053 
L 1172 3053 
L 1172 1153 
Q 1172 725 1289 603 
Q 1406 481 1766 481 
L 2356 481 
L 2356 0 
L 1766 0 
Q 1100 0 847 248 
Q 594 497 594 1153 
L 594 3053 
L 172 3053 
L 172 3500 
L 594 3500 
L 594 4494 
L 1172 4494 
z
" transform="scale(0.015625)"/>
      <path id="DejaVuSans-68" d="M 3513 2113 
L 3513 0 
L 2938 0 
L 2938 2094 
Q 2938 2591 2744 2837 
Q 2550 3084 2163 3084 
Q 1697 3084 1428 2787 
Q 1159 2491 1159 1978 
L 1159 0 
L 581 0 
L 581 4863 
L 1159 4863 
L 1159 2956 
Q 1366 3272 1645 3428 
Q 1925 3584 2291 3584 
Q 2894 3584 3203 3211 
Q 3513 2838 3513 2113 
z
" transform="scale(0.015625)"/>
      <path id="DejaVuSans-4f" d="M 2522 4238 
Q 1834 4238 1429 3725 
Q 1025 3213 1025 2328 
Q 1025 1447 1429 934 
Q 1834 422 2522 422 
Q 3209 422 3611 934 
Q 4013 1447 4013 2328 
Q 4013 3213 3611 3725 
Q 3209 4238 2522 4238 
z
M 2522 4750 
Q 3503 4750 4090 4092 
Q 4678 3434 4678 2328 
Q 4678 1225 4090 567 
Q 3503 -91 2522 -91 
Q 1538 -91 948 565 
Q 359 1222 359 2328 
Q 359 3434 948 4092 
Q 1538 4750 2522 4750 
z
" transform="scale(0.015625)"/>
      <path id="DejaVuSans-70" d="M 1159 525 
L 1159 -1331 
L 581 -1331 
L 581 3500 
L 1159 3500 
L 1159 2969 
Q 1341 3281 1617 3432 
Q 1894 3584 2278 3584 
Q 2916 3584 3314 3078 
Q 3713 2572 3713 1747 
Q 3713 922 3314 415 
Q 2916 -91 2278 -91 
Q 1894 -91 1617 61 
Q 1341 213 1159 525 
z
M 3116 1747 
Q 3116 2381 2855 2742 
Q 2594 3103 2138 3103 
Q 1681 3103 1420 2742 
Q 1159 2381 1159 1747 
Q 1159 1113 1420 752 
Q 1681 391 2138 391 
Q 2594 391 2855 752 
Q 3116 1113 3116 1747 
z
" transform="scale(0.015625)"/>
      <path id="DejaVuSans-53" d="M 3425 4513 
L 3425 3897 
Q 3066 4069 2747 4153 
Q 2428 4238 2131 4238 
Q 1616 4238 1336 4038 
Q 1056 3838 1056 3469 
Q 1056 3159 1242 3001 
Q 1428 2844 1947 2747 
L 2328 2669 
Q 3034 2534 3370 2195 
Q 3706 1856 3706 1288 
Q 3706 609 3251 259 
Q 2797 -91 1919 -91 
Q 1588 -91 1214 -16 
Q 841 59 441 206 
L 441 856 
Q 825 641 1194 531 
Q 1563 422 1919 422 
Q 2459 422 2753 634 
Q 3047 847 3047 1241 
Q 3047 1584 2836 1778 
Q 2625 1972 2144 2069 
L 1759 2144 
Q 1053 2284 737 2584 
Q 422 2884 422 3419 
Q 422 4038 858 4394 
Q 1294 4750 2059 4750 
Q 2388 4750 2728 4690 
Q 3069 4631 3425 4513 
z
" transform="scale(0.015625)"/>
      <path id="DejaVuSans-4d" d="M 628 4666 
L 1569 4666 
L 2759 1491 
L 3956 4666 
L 4897 4666 
L 4897 0 
L 4281 0 
L 4281 4097 
L 3078 897 
L 2444 897 
L 1241 4097 
L 1241 0 
L 628 0 
L 628 4666 
z
" transform="scale(0.015625)"/>
      <path id="DejaVuSans-61" d="M 2194 1759 
Q 1497 1759 1228 1600 
Q 959 1441 959 1056 
Q 959 750 1161 570 
Q 1363 391 1709 391 
Q 2188 391 2477 730 
Q 2766 1069 2766 1631 
L 2766 1759 
L 2194 1759 
z
M 3341 1997 
L 3341 0 
L 2766 0 
L 2766 531 
Q 2569 213 2275 61 
Q 1981 -91 1556 -91 
Q 1019 -91 701 211 
Q 384 513 384 1019 
Q 384 1609 779 1909 
Q 1175 2209 1959 2209 
L 2766 2209 
L 2766 2266 
Q 2766 2663 2505 2880 
Q 2244 3097 1772 3097 
Q 1472 3097 1187 3025 
Q 903 2953 641 2809 
L 641 3341 
Q 956 3463 1253 3523 
Q 1550 3584 1831 3584 
Q 2591 3584 2966 3190 
Q 3341 2797 3341 1997 
z
" transform="scale(0.015625)"/>
      <path id="DejaVuSans-64" d="M 2906 2969 
L 2906 4863 
L 3481 4863 
L 3481 0 
L 2906 0 
L 2906 525 
Q 2725 213 2448 61 
Q 2172 -91 1784 -91 
Q 1150 -91 751 415 
Q 353 922 353 1747 
Q 353 2572 751 3078 
Q 1150 3584 1784 3584 
Q 2172 3584 2448 3432 
Q 2725 3281 2906 2969 
z
M 947 1747 
Q 947 1113 1208 752 
Q 1469 391 1925 391 
Q 2381 391 2643 752 
Q 2906 1113 2906 1747 
Q 2906 2381 2643 2742 
Q 2381 3103 1925 3103 
Q 1469 3103 1208 2742 
Q 947 2381 947 1747 
z
" transform="scale(0.015625)"/>
      <path id="DejaVuSans-50" d="M 1259 4147 
L 1259 2394 
L 2053 2394 
Q 2494 2394 2734 2622 
Q 2975 2850 2975 3272 
Q 2975 3691 2734 3919 
Q 2494 4147 2053 4147 
L 1259 4147 
z
M 628 4666 
L 2053 4666 
Q 2838 4666 3239 4311 
Q 3641 3956 3641 3272 
Q 3641 2581 3239 2228 
Q 2838 1875 2053 1875 
L 1259 1875 
L 1259 0 
L 628 0 
L 628 4666 
z
" transform="scale(0.015625)"/>
      <path id="DejaVuSans-6c" d="M 603 4863 
L 1178 4863 
L 1178 0 
L 603 0 
L 603 4863 
z
" transform="scale(0.015625)"/>
      <path id="DejaVuSans-2c" d="M 750 794 
L 1409 794 
L 1409 256 
L 897 -744 
L 494 -744 
L 750 256 
L 750 794 
z
" transform="scale(0.015625)"/>
      <path id="DejaVuSans-79" d="M 2059 -325 
Q 1816 -950 1584 -1140 
Q 1353 -1331 966 -1331 
L 506 -1331 
L 506 -850 
L 844 -850 
Q 1081 -850 1212 -737 
Q 1344 -625 1503 -206 
L 1606 56 
L 191 3500 
L 800 3500 
L 1894 763 
L 2988 3500 
L 3597 3500 
L 2059 -325 
z
" transform="scale(0.015625)"/>
      <path id="DejaVuSans-2e" d="M 684 794 
L 1344 794 
L 1344 0 
L 684 0 
L 684 794 
z
" transform="scale(0.015625)"/>
      <path id="DejaVuSans-3a" d="M 750 794 
L 1409 794 
L 1409 0 
L 750 0 
L 750 794 
z
M 750 3309 
L 1409 3309 
L 1409 2516 
L 750 2516 
L 750 3309 
z
" transform="scale(0.015625)"/>
     </defs>
     <use xlink:href="#DejaVuSans-4e"/>
     <use xlink:href="#DejaVuSans-75" x="74.804688"/>
     <use xlink:href="#DejaVuSans-6d" x="138.183594"/>
     <use xlink:href="#DejaVuSans-62" x="235.595703"/>
     <use xlink:href="#DejaVuSans-65" x="299.072266"/>
     <use xlink:href="#DejaVuSans-72" x="360.595703"/>
     <use xlink:href="#DejaVuSans-20" x="401.708984"/>
     <use xlink:href="#DejaVuSans-6f" x="433.496094"/>
     <use xlink:href="#DejaVuSans-66" x="494.677734"/>
     <use xlink:href="#DejaVuSans-20" x="529.882812"/>
     <use xlink:href="#DejaVuSans-41" x="561.669922"/>
     <use xlink:href="#DejaVuSans-45" x="630.078125"/>
     <use xlink:href="#DejaVuSans-44" x="693.261719"/>
     <use xlink:href="#DejaVuSans-73" x="770.263672"/>
     <use xlink:href="#DejaVuSans-20" x="822.363281"/>
     <use xlink:href="#DejaVuSans-69" x="854.150391"/>
     <use xlink:href="#DejaVuSans-6e" x="881.933594"/>
     <use xlink:href="#DejaVuSans-20" x="945.3125"/>
     <use xlink:href="#DejaVuSans-74" x="977.099609"/>
     <use xlink:href="#DejaVuSans-68" x="1016.308594"/>
     <use xlink:href="#DejaVuSans-65" x="1079.6875"/>
     <use xlink:href="#DejaVuSans-20" x="1141.210938"/>
     <use xlink:href="#DejaVuSans-4f" x="1172.998047"/>
     <use xlink:href="#DejaVuSans-70" x="1251.708984"/>
     <use xlink:href="#DejaVuSans-65" x="1315.185547"/>
     <use xlink:href="#DejaVuSans-6e" x="1376.708984"/>
     <use xlink:href="#DejaVuSans-53" x="1440.087891"/>
     <use xlink:href="#DejaVuSans-74" x="1503.564453"/>
     <use xlink:href="#DejaVuSans-72" x="1542.773438"/>
     <use xlink:href="#DejaVuSans-65" x="1581.636719"/>
     <use xlink:href="#DejaVuSans-65" x="1643.160156"/>
     <use xlink:href="#DejaVuSans-74" x="1704.683594"/>
     <use xlink:href="#DejaVuSans-4d" x="1743.892578"/>
     <use xlink:href="#DejaVuSans-61" x="1830.171875"/>
     <use xlink:href="#DejaVuSans-70" x="1891.451172"/>
     <use xlink:href="#DejaVuSans-20" x="1954.927734"/>
     <use xlink:href="#DejaVuSans-64" x="1986.714844"/>
     <use xlink:href="#DejaVuSans-61" x="2050.191406"/>
     <use xlink:href="#DejaVuSans-74" x="2111.470703"/>
     <use xlink:href="#DejaVuSans-61" x="2150.679688"/>
     <use xlink:href="#DejaVuSans-62" x="2211.958984"/>
     <use xlink:href="#DejaVuSans-61" x="2275.435547"/>
     <use xlink:href="#DejaVuSans-73" x="2336.714844"/>
     <use xlink:href="#DejaVuSans-65" x="2388.814453"/>
     <use xlink:href="#DejaVuSans-20" x="2450.337891"/>
     <use xlink:href="#DejaVuSans-69" x="2482.125"/>
     <use xlink:href="#DejaVuSans-6e" x="2509.908203"/>
     <use xlink:href="#DejaVuSans-20" x="2573.287109"/>
     <use xlink:href="#DejaVuSans-50" x="2605.074219"/>
     <use xlink:href="#DejaVuSans-6f" x="2661.751953"/>
     <use xlink:href="#DejaVuSans-6c" x="2722.933594"/>
     <use xlink:href="#DejaVuSans-61" x="2750.716797"/>
     <use xlink:href="#DejaVuSans-6e" x="2811.996094"/>
     <use xlink:href="#DejaVuSans-64" x="2875.375"/>
     <use xlink:href="#DejaVuSans-20" x="2938.851562"/>
     <use xlink:href="#DejaVuSans-66" x="2970.638672"/>
     <use xlink:href="#DejaVuSans-72" x="3005.84375"/>
     <use xlink:href="#DejaVuSans-6f" x="3044.707031"/>
     <use xlink:href="#DejaVuSans-6d" x="3105.888672"/>
     <use xlink:href="#DejaVuSans-20" x="3203.300781"/>
     <use xlink:href="#DejaVuSans-32" x="3235.087891"/>
     <use xlink:href="#DejaVuSans-30" x="3298.710938"/>
     <use xlink:href="#DejaVuSans-32" x="3362.333984"/>
     <use xlink:href="#DejaVuSans-36" x="3425.957031"/>
     <use xlink:href="#DejaVuSans-2d" x="3489.580078"/>
     <use xlink:href="#DejaVuSans-30" x="3525.664062"/>
     <use xlink:href="#DejaVuSans-31" x="3589.287109"/>
     <use xlink:href="#DejaVuSans-2d" x="3652.910156"/>
     <use xlink:href="#DejaVuSans-30" x="3688.994141"/>
     <use xlink:href="#DejaVuSans-31" x="3752.617188"/>
     <use xlink:href="#DejaVuSans-2c" x="3816.240234"/>
     <use xlink:href="#DejaVuSans-20" x="3848.027344"/>
     <use xlink:href="#DejaVuSans-64" x="3879.814453"/>
     <use xlink:href="#DejaVuSans-61" x="3943.291016"/>
     <use xlink:href="#DejaVuSans-79" x="4004.570312"/>
     <use xlink:href="#DejaVuSans-20" x="4063.75"/>
     <use xlink:href="#DejaVuSans-62" x="4095.537109"/>
     <use xlink:href="#DejaVuSans-79" x="4159.013672"/>
     <use xlink:href="#DejaVuSans-20" x="4218.193359"/>
     <use xlink:href="#DejaVuSans-64" x="4249.980469"/>
     <use xlink:href="#DejaVuSans-61" x="4313.457031"/>
     <use xlink:href="#DejaVuSans-79" x="4374.736328"/>
     <use xlink:href="#DejaVuSans-2e" x="4419.666016"/>
     <use xlink:href="#DejaVuSans-20" x="4451.453125"/>
     <use xlink:href="#DejaVuSans-41" x="4483.240234"/>
     <use xlink:href="#DejaVuSans-73" x="4551.648438"/>
     <use xlink:href="#DejaVuSans-20" x="4603.748047"/>
     <use xlink:href="#DejaVuSans-61" x="4635.535156"/>
     <use xlink:href="#DejaVuSans-74" x="4696.814453"/>
     <use xlink:href="#DejaVuSans-3a" x="4736.023438"/>
     <use xlink:href="#DejaVuSans-20" x="4769.714844"/>
     <use xlink:href="#DejaVuSans-32" x="4801.501953"/>
     <use xlink:href="#DejaVuSans-30" x="4865.125"/>
     <use xlink:href="#DejaVuSans-32" x="4928.748047"/>
     <use xlink:href="#DejaVuSans-36" x="4992.371094"/>
     <use xlink:href="#DejaVuSans-2d" x="5055.994141"/>
     <use xlink:href="#DejaVuSans-30" x="5092.078125"/>
     <use xlink:href="#DejaVuSans-34" x="5155.701172"/>
     <use xlink:href="#DejaVuSans-2d" x="5219.324219"/>
     <use xlink:href="#DejaVuSans-30" x="5255.408203"/>
     <use xlink:href="#DejaVuSans-31" x="5319.03125"/>
    </g>
   </g>
  </g>
 </g>
 <defs>
  <clipPath id="pfa36a33de7">
   <rect x="144" y="69.12" width="892.8" height="443.52"/>
  </clipPath>
 </defs>
</svg>
