<?xml version="1.0" encoding="utf-8" standalone="no"?>
<!DOCTYPE svg PUBLIC "-//W3C//DTD SVG 1.1//EN"
  "http://www.w3.org/Graphics/SVG/1.1/DTD/svg11.dtd">
<svg xmlns:xlink="http://www.w3.org/1999/xlink" width="1152pt" height="576pt" viewBox="0 0 1152 576" xmlns="http://www.w3.org/2000/svg" version="1.1">
 <metadata>
  <rdf:RDF xmlns:dc="http://purl.org/dc/elements/1.1/" xmlns:cc="http://creativecommons.org/ns#" xmlns:rdf="http://www.w3.org/1999/02/22-rdf-syntax-ns#">
   <cc:Work>
    <dc:type rdf:resource="http://purl.org/dc/dcmitype/StillImage"/>
    <dc:date>1980-01-01T00:00:00+00:00</dc:date>
    <dc:format>image/svg+xml</dc:format>
    <dc:creator>
     <cc:Agent>
      <dc:title>Matplotlib v3.9.1, https://matplotlib.org/</dc:title>
     </cc:Agent>
    </dc:creator>
   </cc:Work>
  </rdf:RDF>
 </metadata>
 <defs>
  <style type="text/css">*{stroke-linejoin: round; stroke-linecap: butt}</style>
 </defs>
 <g id="figure_1">
  <g id="patch_1">
   <path d="M 0 576 
L 1152 576 
L 1152 0 
L 0 0 
z
" style="fill: #ffffff"/>
  </g>
  <g id="axes_1">
   <g id="patch_2">
    <path d="M 144 512.64 
L 1036.8 512.64 
L 1036.8 69.12 
L 144 69.12 
z
" style="fill: #ffffff"/>
   </g>
   <g id="PathCollection_1">
    <path d="M 184.581818 496.352983 
C 185.608945 496.352983 186.594142 495.944901 187.320431 495.218613 
C 188.04672 494.492324 188.454802 493.507127 188.454802 492.48 
C 188.454802 491.452873 188.04672 490.467676 187.320431 489.741387 
C 186.594142 489.015099 185.608945 488.607017 184.581818 488.607017 
C 183.554691 488.607017 182.569494 489.015099 181.843205 489.741387 
C 181.116917 490.467676 180.708835 491.452873 180.708835 492.48 
C 180.708835 493.507127 181.116917 494.492324 181.843205 495.218613 
C 182.569494 495.944901 183.554691 496.352983 184.581818 496.352983 
z
" clip-path="url(#p3b395ef1ab)" style="fill: #1f77b4; fill-opacity: 0.3; stroke: #1f77b4; stroke-opacity: 0.3"/>
    <path d="M 194.987413 495.224753 
C 196.716325 495.224753 198.374659 494.537849 199.597185 493.315323 
C 200.819711 492.092797 201.506615 490.434463 201.506615 488.705551 
C 201.506615 486.976638 200.819711 485.318304 199.597185 484.095778 
C 198.374659 482.873253 196.716325 482.186348 194.987413 482.186348 
C 193.2585 482.186348 191.600166 482.873253 190.37764 484.095778 
C 189.155114 485.318304 188.46821 486.976638 188.46821 488.705551 
C 188.46821 490.434463 189.155114 492.092797 190.37764 493.315323 
C 191.600166 494.537849 193.2585 495.224753 194.987413 495.224753 
z
" clip-path="url(#p3b395ef1ab)" style="fill: #1f77b4; fill-opacity: 0.3; stroke: #1f77b4; stroke-opacity: 0.3"/>
    <path d="M 205.393007 490.855411 
C 207.611855 490.855411 209.740124 489.973853 211.309087 488.40489 
C 212.878049 486.835928 213.759607 484.707659 213.759607 482.488811 
C 213.759607 480.269962 212.878049 478.141693 211.309087 476.572731 
C 209.740124 475.003768 207.611855 474.12221 205.393007 474.12221 
C 203.174159 474.12221 201.04589 475.003768 199.476927 476.572731 
C 197.907965 478.141693 197.026407 480.269962 197.026407 482.488811 
C 197.026407 484.707659 197.907965 486.835928 199.476927 488.40489 
C 201.04589 489.973853 203.174159 490.855411 205.393007 490.855411 
z
" clip-path="url(#p3b395ef1ab)" style="fill: #1f77b4; fill-opacity: 0.3; stroke: #1f77b4; stroke-opacity: 0.3"/>
    <path d="M 215.798601 485.290564 
C 217.189338 485.290564 218.523301 484.738018 219.506701 483.754619 
C 220.4901 482.77122 221.042646 481.437257 221.042646 480.04652 
C 221.042646 478.655783 220.4901 477.32182 219.506701 476.338421 
C 218.523301 475.355021 217.189338 474.802476 215.798601 474.802476 
C 214.407865 474.802476 213.073902 475.355021 212.090502 476.338421 
C 211.107103 477.32182 210.554557 478.655783 210.554557 480.04652 
C 210.554557 481.437257 211.107103 482.77122 212.090502 483.754619 
C 213.073902 484.738018 214.407865 485.290564 215.798601 485.290564 
z
" clip-path="url(#p3b395ef1ab)" style="fill: #1f77b4; fill-opacity: 0.3; stroke: #1f77b4; stroke-opacity: 0.3"/>
    <path d="M 226.204196 482.471922 
C 227.14183 482.471922 228.041188 482.099395 228.704196 481.436388 
C 229.367204 480.77338 229.73973 479.874022 229.73973 478.936388 
C 229.73973 477.998753 229.367204 477.099395 228.704196 476.436388 
C 228.041188 475.77338 227.14183 475.400854 226.204196 475.400854 
C 225.266561 475.400854 224.367204 475.77338 223.704196 476.436388 
C 223.041188 477.099395 222.668662 477.998753 222.668662 478.936388 
C 222.668662 479.874022 223.041188 480.77338 223.704196 481.436388 
C 224.367204 482.099395 225.266561 482.471922 226.204196 482.471922 
z
" clip-path="url(#p3b395ef1ab)" style="fill: #1f77b4; fill-opacity: 0.3; stroke: #1f77b4; stroke-opacity: 0.3"/>
    <path d="M 236.60979 481.681141 
C 238.338703 481.681141 239.997037 480.994236 241.219562 479.771711 
C 242.442088 478.549185 243.128993 476.890851 243.128993 475.161938 
C 243.128993 473.433026 242.442088 471.774692 241.219562 470.552166 
C 239.997037 469.32964 238.338703 468.642736 236.60979 468.642736 
C 234.880878 468.642736 233.222544 469.32964 232.000018 470.552166 
C 230.777492 471.774692 230.090588 473.433026 230.090588 475.161938 
C 230.090588 476.890851 230.777492 478.549185 232.000018 479.771711 
C 233.222544 480.994236 234.880878 481.681141 236.60979 481.681141 
z
" clip-path="url(#p3b395ef1ab)" style="fill: #1f77b4; fill-opacity: 0.3; stroke: #1f77b4; stroke-opacity: 0.3"/>
    <path d="M 247.015385 477.955266 
C 248.639415 477.955266 250.197149 477.310032 251.345512 476.161669 
C 252.493875 475.013306 253.139109 473.455573 253.139109 471.831542 
C 253.139109 470.207511 252.493875 468.649778 251.345512 467.501415 
C 250.197149 466.353052 248.639415 465.707817 247.015385 465.707817 
C 245.391354 465.707817 243.833621 466.353052 242.685258 467.501415 
C 241.536894 468.649778 240.89166 470.207511 240.89166 471.831542 
C 240.89166 473.455573 241.536894 475.013306 242.685258 476.161669 
C 243.833621 477.310032 245.391354 477.955266 247.015385 477.955266 
z
" clip-path="url(#p3b395ef1ab)" style="fill: #1f77b4; fill-opacity: 0.3; stroke: #1f77b4; stroke-opacity: 0.3"/>
    <path d="M 257.420979 473.04672 
C 260.03965 473.04672 262.551419 472.006311 264.403099 470.154631 
C 266.254779 468.302951 267.295188 465.791182 267.295188 463.172511 
C 267.295188 460.55384 266.254779 458.042071 264.403099 456.190391 
C 262.551419 454.338711 260.03965 453.298302 257.420979 453.298302 
C 254.802308 453.298302 252.290539 454.338711 250.438859 456.190391 
C 248.587179 458.042071 247.54677 460.55384 247.54677 463.172511 
C 247.54677 465.791182 248.587179 468.302951 250.438859 470.154631 
C 252.290539 472.006311 254.802308 473.04672 257.420979 473.04672 
z
" clip-path="url(#p3b395ef1ab)" style="fill: #1f77b4; fill-opacity: 0.3; stroke: #1f77b4; stroke-opacity: 0.3"/>
    <path d="M 267.826573 465.80305 
C 269.701843 465.80305 271.500558 465.057998 272.826573 463.731982 
C 274.152589 462.405967 274.897641 460.607251 274.897641 458.731982 
C 274.897641 456.856713 274.152589 455.057998 272.826573 453.731982 
C 271.500558 452.405967 269.701843 451.660915 267.826573 451.660915 
C 265.951304 451.660915 264.152589 452.405967 262.826573 453.731982 
C 261.500558 455.057998 260.755506 456.856713 260.755506 458.731982 
C 260.755506 460.607251 261.500558 462.405967 262.826573 463.731982 
C 264.152589 465.057998 265.951304 465.80305 267.826573 465.80305 
z
" clip-path="url(#p3b395ef1ab)" style="fill: #1f77b4; fill-opacity: 0.3; stroke: #1f77b4; stroke-opacity: 0.3"/>
    <path d="M 278.232168 461.477161 
C 279.490137 461.477161 280.696752 460.977365 281.58627 460.087846 
C 282.475788 459.198328 282.975584 457.991713 282.975584 456.733744 
C 282.975584 455.475776 282.475788 454.269161 281.58627 453.379643 
C 280.696752 452.490124 279.490137 451.990328 278.232168 451.990328 
C 276.974199 451.990328 275.767584 452.490124 274.878066 453.379643 
C 273.988548 454.269161 273.488751 455.475776 273.488751 456.733744 
C 273.488751 457.991713 273.988548 459.198328 274.878066 460.087846 
C 275.767584 460.977365 276.974199 461.477161 278.232168 461.477161 
z
" clip-path="url(#p3b395ef1ab)" style="fill: #1f77b4; fill-opacity: 0.3; stroke: #1f77b4; stroke-opacity: 0.3"/>
    <path d="M 288.637762 458.52576 
C 289.230774 458.52576 289.799578 458.290153 290.218901 457.87083 
C 290.638224 457.451508 290.87383 456.882704 290.87383 456.289692 
C 290.87383 455.696679 290.638224 455.127876 290.218901 454.708553 
C 289.799578 454.28923 289.230774 454.053624 288.637762 454.053624 
C 288.04475 454.053624 287.475946 454.28923 287.056623 454.708553 
C 286.6373 455.127876 286.401694 455.696679 286.401694 456.289692 
C 286.401694 456.882704 286.6373 457.451508 287.056623 457.87083 
C 287.475946 458.290153 288.04475 458.52576 288.637762 458.52576 
z
" clip-path="url(#p3b395ef1ab)" style="fill: #1f77b4; fill-opacity: 0.3; stroke: #1f77b4; stroke-opacity: 0.3"/>
    <path d="M 299.043357 457.599482 
C 301.628237 457.599482 304.107595 456.572498 305.935381 454.744712 
C 307.763167 452.916925 308.790151 450.437567 308.790151 447.852687 
C 308.790151 445.267807 307.763167 442.788449 305.935381 440.960663 
C 304.107595 439.132877 301.628237 438.105893 299.043357 438.105893 
C 296.458477 438.105893 293.979118 439.132877 292.151332 440.960663 
C 290.323546 442.788449 289.296562 445.267807 289.296562 447.852687 
C 289.296562 450.437567 290.323546 452.916925 292.151332 454.744712 
C 293.979118 456.572498 296.458477 457.599482 299.043357 457.599482 
z
" clip-path="url(#p3b395ef1ab)" style="fill: #1f77b4; fill-opacity: 0.3; stroke: #1f77b4; stroke-opacity: 0.3"/>
    <path d="M 309.448951 450.207721 
C 311.545566 450.207721 313.556591 449.374727 315.039121 447.892196 
C 316.521651 446.409666 317.354645 444.398641 317.354645 442.302026 
C 317.354645 440.205412 316.521651 438.194387 315.039121 436.711856 
C 313.556591 435.229326 311.545566 434.396332 309.448951 434.396332 
C 307.352336 434.396332 305.341312 435.229326 303.858781 436.711856 
C 302.376251 438.194387 301.543257 440.205412 301.543257 442.302026 
C 301.543257 444.398641 302.376251 446.409666 303.858781 447.892196 
C 305.341312 449.374727 307.352336 450.207721 309.448951 450.207721 
z
" clip-path="url(#p3b395ef1ab)" style="fill: #1f77b4; fill-opacity: 0.3; stroke: #1f77b4; stroke-opacity: 0.3"/>
    <path d="M 319.854545 445.11656 
C 321.366436 445.11656 322.816606 444.51588 323.885674 443.446812 
C 324.954742 442.377744 325.555423 440.927573 325.555423 439.415683 
C 325.555423 437.903793 324.954742 436.453622 323.885674 435.384554 
C 322.816606 434.315486 321.366436 433.714806 319.854545 433.714806 
C 318.342655 433.714806 316.892484 434.315486 315.823417 435.384554 
C 314.754349 436.453622 314.153668 437.903793 314.153668 439.415683 
C 314.153668 440.927573 314.754349 442.377744 315.823417 443.446812 
C 316.892484 444.51588 318.342655 445.11656 319.854545 445.11656 
z
" clip-path="url(#p3b395ef1ab)" style="fill: #1f77b4; fill-opacity: 0.3; stroke: #1f77b4; stroke-opacity: 0.3"/>
    <path d="M 330.26014 441.255109 
C 332.632188 441.255109 334.907404 440.312684 336.584695 438.635392 
C 338.261987 436.958101 339.204412 434.682886 339.204412 432.310837 
C 339.204412 429.938788 338.261987 427.663573 336.584695 425.986282 
C 334.907404 424.30899 332.632188 423.366565 330.26014 423.366565 
C 327.888091 423.366565 325.612876 424.30899 323.935585 425.986282 
C 322.258293 427.663573 321.315868 429.938788 321.315868 432.310837 
C 321.315868 434.682886 322.258293 436.958101 323.935585 438.635392 
C 325.612876 440.312684 327.888091 441.255109 330.26014 441.255109 
z
" clip-path="url(#p3b395ef1ab)" style="fill: #1f77b4; fill-opacity: 0.3; stroke: #1f77b4; stroke-opacity: 0.3"/>
    <path d="M 340.665734 433.131921 
C 343.415419 433.131921 346.052853 432.03946 347.997173 430.09514 
C 349.941494 428.150819 351.033955 425.513385 351.033955 422.7637 
C 351.033955 420.014016 349.941494 417.376582 347.997173 415.432261 
C 346.052853 413.487941 343.415419 412.39548 340.665734 412.39548 
C 337.91605 412.39548 335.278616 413.487941 333.334295 415.432261 
C 331.389975 417.376582 330.297514 420.014016 330.297514 422.7637 
C 330.297514 425.513385 331.389975 428.150819 333.334295 430.09514 
C 335.278616 432.03946 337.91605 433.131921 340.665734 433.131921 
z
" clip-path="url(#p3b395ef1ab)" style="fill: #1f77b4; fill-opacity: 0.3; stroke: #1f77b4; stroke-opacity: 0.3"/>
    <path d="M 351.071329 425.037872 
C 351.909975 425.037872 352.714384 424.704675 353.307397 424.111663 
C 353.900409 423.518651 354.233606 422.714241 354.233606 421.875595 
C 354.233606 421.036949 353.900409 420.232539 353.307397 419.639527 
C 352.714384 419.046515 351.909975 418.713317 351.071329 418.713317 
C 350.232683 418.713317 349.428273 419.046515 348.835261 419.639527 
C 348.242249 420.232539 347.909051 421.036949 347.909051 421.875595 
C 347.909051 422.714241 348.242249 423.518651 348.835261 424.111663 
C 349.428273 424.704675 350.232683 425.037872 351.071329 425.037872 
z
" clip-path="url(#p3b395ef1ab)" style="fill: #1f77b4; fill-opacity: 0.3; stroke: #1f77b4; stroke-opacity: 0.3"/>
    <path d="M 361.476923 424.677348 
C 362.86766 424.677348 364.201623 424.124803 365.185022 423.141403 
C 366.168422 422.158004 366.720967 420.824041 366.720967 419.433304 
C 366.720967 418.042567 366.168422 416.708604 365.185022 415.725205 
C 364.201623 414.741805 362.86766 414.18926 361.476923 414.18926 
C 360.086186 414.18926 358.752223 414.741805 357.768824 415.725205 
C 356.785424 416.708604 356.232879 418.042567 356.232879 419.433304 
C 356.232879 420.824041 356.785424 422.158004 357.768824 423.141403 
C 358.752223 424.124803 360.086186 424.677348 361.476923 424.677348 
z
" clip-path="url(#p3b395ef1ab)" style="fill: #1f77b4; fill-opacity: 0.3; stroke: #1f77b4; stroke-opacity: 0.3"/>
    <path d="M 371.882517 421.654429 
C 374.061383 421.654429 376.151302 420.788756 377.691993 419.248065 
C 379.232683 417.707375 380.098356 415.617456 380.098356 413.43859 
C 380.098356 411.259725 379.232683 409.169806 377.691993 407.629115 
C 376.151302 406.088425 374.061383 405.222752 371.882517 405.222752 
C 369.703652 405.222752 367.613733 406.088425 366.073042 407.629115 
C 364.532352 409.169806 363.666679 411.259725 363.666679 413.43859 
C 363.666679 415.617456 364.532352 417.707375 366.073042 419.248065 
C 367.613733 420.788756 369.703652 421.654429 371.882517 421.654429 
z
" clip-path="url(#p3b395ef1ab)" style="fill: #1f77b4; fill-opacity: 0.3; stroke: #1f77b4; stroke-opacity: 0.3"/>
    <path d="M 382.288112 416.251499 
C 383.740689 416.251499 385.133968 415.674384 386.161095 414.647256 
C 387.188222 413.620129 387.765337 412.22685 387.765337 410.774273 
C 387.765337 409.321696 387.188222 407.928417 386.161095 406.90129 
C 385.133968 405.874163 383.740689 405.297048 382.288112 405.297048 
C 380.835535 405.297048 379.442256 405.874163 378.415129 406.90129 
C 377.388001 407.928417 376.810886 409.321696 376.810886 410.774273 
C 376.810886 412.22685 377.388001 413.620129 378.415129 414.647256 
C 379.442256 415.674384 380.835535 416.251499 382.288112 416.251499 
z
" clip-path="url(#p3b395ef1ab)" style="fill: #1f77b4; fill-opacity: 0.3; stroke: #1f77b4; stroke-opacity: 0.3"/>
    <path d="M 392.693706 410.853291 
C 395.658767 410.853291 398.502786 409.67526 400.5994 407.578646 
C 402.696015 405.482031 403.874046 402.638012 403.874046 399.672952 
C 403.874046 396.707891 402.696015 393.863872 400.5994 391.767257 
C 398.502786 389.670643 395.658767 388.492612 392.693706 388.492612 
C 389.728645 388.492612 386.884627 389.670643 384.788012 391.767257 
C 382.691398 393.863872 381.513366 396.707891 381.513366 399.672952 
C 381.513366 402.638012 382.691398 405.482031 384.788012 407.578646 
C 386.884627 409.67526 389.728645 410.853291 392.693706 410.853291 
z
" clip-path="url(#p3b395ef1ab)" style="fill: #1f77b4; fill-opacity: 0.3; stroke: #1f77b4; stroke-opacity: 0.3"/>
    <path d="M 403.099301 401.894076 
C 405.278167 401.894076 407.368085 401.028404 408.908776 399.487713 
C 410.449467 397.947022 411.315139 395.857104 411.315139 393.678238 
C 411.315139 391.499372 410.449467 389.409454 408.908776 387.868763 
C 407.368085 386.328072 405.278167 385.4624 403.099301 385.4624 
C 400.920435 385.4624 398.830516 386.328072 397.289826 387.868763 
C 395.749135 389.409454 394.883462 391.499372 394.883462 393.678238 
C 394.883462 395.857104 395.749135 397.947022 397.289826 399.487713 
C 398.830516 401.028404 400.920435 401.894076 403.099301 401.894076 
z
" clip-path="url(#p3b395ef1ab)" style="fill: #1f77b4; fill-opacity: 0.3; stroke: #1f77b4; stroke-opacity: 0.3"/>
    <path d="M 413.504895 396.09557 
C 415.559149 396.09557 417.529543 395.279406 418.982121 393.826829 
C 420.434698 392.374252 421.250862 390.403858 421.250862 388.349604 
C 421.250862 386.295349 420.434698 384.324955 418.982121 382.872378 
C 417.529543 381.419801 415.559149 380.603637 413.504895 380.603637 
C 411.450641 380.603637 409.480247 381.419801 408.02767 382.872378 
C 406.575092 384.324955 405.758928 386.295349 405.758928 388.349604 
C 405.758928 390.403858 406.575092 392.374252 408.02767 393.826829 
C 409.480247 395.279406 411.450641 396.09557 413.504895 396.09557 
z
" clip-path="url(#p3b395ef1ab)" style="fill: #1f77b4; fill-opacity: 0.3; stroke: #1f77b4; stroke-opacity: 0.3"/>
    <path d="M 423.91049 390.42553 
C 426.168613 390.42553 428.334553 389.528368 429.931287 387.931634 
C 431.528021 386.3349 432.425183 384.16896 432.425183 381.910837 
C 432.425183 379.652714 431.528021 377.486774 429.931287 375.89004 
C 428.334553 374.293306 426.168613 373.396144 423.91049 373.396144 
C 421.652366 373.396144 419.486426 374.293306 417.889692 375.89004 
C 416.292958 377.486774 415.395796 379.652714 415.395796 381.910837 
C 415.395796 384.16896 416.292958 386.3349 417.889692 387.931634 
C 419.486426 389.528368 421.652366 390.42553 423.91049 390.42553 
z
" clip-path="url(#p3b395ef1ab)" style="fill: #1f77b4; fill-opacity: 0.3; stroke: #1f77b4; stroke-opacity: 0.3"/>
    <path d="M 434.316084 384.185009 
C 435.15473 384.185009 435.95914 383.851811 436.552152 383.258799 
C 437.145164 382.665787 437.478362 381.861377 437.478362 381.022731 
C 437.478362 380.184085 437.145164 379.379675 436.552152 378.786663 
C 435.95914 378.193651 435.15473 377.860454 434.316084 377.860454 
C 433.477438 377.860454 432.673028 378.193651 432.080016 378.786663 
C 431.487004 379.379675 431.153806 380.184085 431.153806 381.022731 
C 431.153806 381.861377 431.487004 382.665787 432.080016 383.258799 
C 432.673028 383.851811 433.477438 384.185009 434.316084 384.185009 
z
" clip-path="url(#p3b395ef1ab)" style="fill: #1f77b4; fill-opacity: 0.3; stroke: #1f77b4; stroke-opacity: 0.3"/>
    <path d="M 444.721678 383.296903 
C 445.560324 383.296903 446.364734 382.963706 446.957746 382.370694 
C 447.550758 381.777681 447.883956 380.973271 447.883956 380.134626 
C 447.883956 379.29598 447.550758 378.49157 446.957746 377.898558 
C 446.364734 377.305545 445.560324 376.972348 444.721678 376.972348 
C 443.883032 376.972348 443.078623 377.305545 442.48561 377.898558 
C 441.892598 378.49157 441.559401 379.29598 441.559401 380.134626 
C 441.559401 380.973271 441.892598 381.777681 442.48561 382.370694 
C 443.078623 382.963706 443.883032 383.296903 444.721678 383.296903 
z
" clip-path="url(#p3b395ef1ab)" style="fill: #1f77b4; fill-opacity: 0.3; stroke: #1f77b4; stroke-opacity: 0.3"/>
    <path d="M 455.127273 381.628507 
C 457.64321 381.628507 460.05644 380.628914 461.835477 378.849878 
C 463.614513 377.070841 464.614106 374.657612 464.614106 372.141674 
C 464.614106 369.625736 463.614513 367.212507 461.835477 365.43347 
C 460.05644 363.654434 457.64321 362.654841 455.127273 362.654841 
C 452.611335 362.654841 450.198105 363.654434 448.419069 365.43347 
C 446.640032 367.212507 445.64044 369.625736 445.64044 372.141674 
C 445.64044 374.657612 446.640032 377.070841 448.419069 378.849878 
C 450.198105 380.628914 452.611335 381.628507 455.127273 381.628507 
z
" clip-path="url(#p3b395ef1ab)" style="fill: #1f77b4; fill-opacity: 0.3; stroke: #1f77b4; stroke-opacity: 0.3"/>
    <path d="M 465.532867 372.220692 
C 468.497928 372.220692 471.341947 371.042661 473.438561 368.946047 
C 475.535176 366.849432 476.713207 364.005413 476.713207 361.040352 
C 476.713207 358.075292 475.535176 355.231273 473.438561 353.134658 
C 471.341947 351.038044 468.497928 349.860013 465.532867 349.860013 
C 462.567806 349.860013 459.723788 351.038044 457.627173 353.134658 
C 455.530558 355.231273 454.352527 358.075292 454.352527 361.040352 
C 454.352527 364.005413 455.530558 366.849432 457.627173 368.946047 
C 459.723788 371.042661 462.567806 372.220692 465.532867 372.220692 
z
" clip-path="url(#p3b395ef1ab)" style="fill: #1f77b4; fill-opacity: 0.3; stroke: #1f77b4; stroke-opacity: 0.3"/>
    <path d="M 475.938462 362.879779 
C 478.31051 362.879779 480.585725 361.937354 482.263017 360.260062 
C 483.940309 358.58277 484.882733 356.307555 484.882733 353.935507 
C 484.882733 351.563458 483.940309 349.288243 482.263017 347.610951 
C 480.585725 345.93366 478.31051 344.991235 475.938462 344.991235 
C 473.566413 344.991235 471.291198 345.93366 469.613906 347.610951 
C 467.936615 349.288243 466.99419 351.563458 466.99419 353.935507 
C 466.99419 356.307555 467.936615 358.58277 469.613906 360.260062 
C 471.291198 361.937354 473.566413 362.879779 475.938462 362.879779 
z
" clip-path="url(#p3b395ef1ab)" style="fill: #1f77b4; fill-opacity: 0.3; stroke: #1f77b4; stroke-opacity: 0.3"/>
    <path d="M 486.344056 356.156631 
C 488.522922 356.156631 490.61284 355.290959 492.153531 353.750268 
C 493.694222 352.209577 494.559894 350.119659 494.559894 347.940793 
C 494.559894 345.761927 493.694222 343.672009 492.153531 342.131318 
C 490.61284 340.590627 488.522922 339.724955 486.344056 339.724955 
C 484.16519 339.724955 482.075272 340.590627 480.534581 342.131318 
C 478.99389 343.672009 478.128218 345.761927 478.128218 347.940793 
C 478.128218 350.119659 478.99389 352.209577 480.534581 353.750268 
C 482.075272 355.290959 484.16519 356.156631 486.344056 356.156631 
z
" clip-path="url(#p3b395ef1ab)" style="fill: #1f77b4; fill-opacity: 0.3; stroke: #1f77b4; stroke-opacity: 0.3"/>
    <path d="M 496.74965 350.214965 
C 497.588296 350.214965 498.392706 349.881767 498.985718 349.288755 
C 499.57873 348.695743 499.911928 347.891333 499.911928 347.052687 
C 499.911928 346.214041 499.57873 345.409631 498.985718 344.816619 
C 498.392706 344.223607 497.588296 343.89041 496.74965 343.89041 
C 495.911005 343.89041 495.106595 344.223607 494.513582 344.816619 
C 493.92057 345.409631 493.587373 346.214041 493.587373 347.052687 
C 493.587373 347.891333 493.92057 348.695743 494.513582 349.288755 
C 495.106595 349.881767 495.911005 350.214965 496.74965 350.214965 
z
" clip-path="url(#p3b395ef1ab)" style="fill: #1f77b4; fill-opacity: 0.3; stroke: #1f77b4; stroke-opacity: 0.3"/>
    <path d="M 507.155245 349.854441 
C 508.545982 349.854441 509.879945 349.301895 510.863344 348.318496 
C 511.846743 347.335096 512.399289 346.001133 512.399289 344.610396 
C 512.399289 343.21966 511.846743 341.885697 510.863344 340.902297 
C 509.879945 339.918898 508.545982 339.366352 507.155245 339.366352 
C 505.764508 339.366352 504.430545 339.918898 503.447146 340.902297 
C 502.463746 341.885697 501.911201 343.21966 501.911201 344.610396 
C 501.911201 346.001133 502.463746 347.335096 503.447146 348.318496 
C 504.430545 349.301895 505.764508 349.854441 507.155245 349.854441 
z
" clip-path="url(#p3b395ef1ab)" style="fill: #1f77b4; fill-opacity: 0.3; stroke: #1f77b4; stroke-opacity: 0.3"/>
    <path d="M 517.560839 347.240936 
C 519.436108 347.240936 521.234824 346.495883 522.560839 345.169868 
C 523.886855 343.843852 524.631907 342.045137 524.631907 340.169868 
C 524.631907 338.294599 523.886855 336.495883 522.560839 335.169868 
C 521.234824 333.843852 519.436108 333.0988 517.560839 333.0988 
C 515.68557 333.0988 513.886855 333.843852 512.560839 335.169868 
C 511.234824 336.495883 510.489771 338.294599 510.489771 340.169868 
C 510.489771 342.045137 511.234824 343.843852 512.560839 345.169868 
C 513.886855 346.495883 515.68557 347.240936 517.560839 347.240936 
z
" clip-path="url(#p3b395ef1ab)" style="fill: #1f77b4; fill-opacity: 0.3; stroke: #1f77b4; stroke-opacity: 0.3"/>
    <path d="M 527.966434 342.5872 
C 530.020688 342.5872 531.991082 341.771036 533.443659 340.318459 
C 534.896236 338.865882 535.7124 336.895488 535.7124 334.841233 
C 535.7124 332.786979 534.896236 330.816585 533.443659 329.364008 
C 531.991082 327.911431 530.020688 327.095267 527.966434 327.095267 
C 525.912179 327.095267 523.941785 327.911431 522.489208 329.364008 
C 521.036631 330.816585 520.220467 332.786979 520.220467 334.841233 
C 520.220467 336.895488 521.036631 338.865882 522.489208 340.318459 
C 523.941785 341.771036 525.912179 342.5872 527.966434 342.5872 
z
" clip-path="url(#p3b395ef1ab)" style="fill: #1f77b4; fill-opacity: 0.3; stroke: #1f77b4; stroke-opacity: 0.3"/>
    <path d="M 538.372028 337.537158 
C 539.558052 337.537158 540.69566 337.065946 541.534306 336.2273 
C 542.372951 335.388654 542.844164 334.251046 542.844164 333.065022 
C 542.844164 331.878998 542.372951 330.74139 541.534306 329.902744 
C 540.69566 329.064099 539.558052 328.592886 538.372028 328.592886 
C 537.186004 328.592886 536.048396 329.064099 535.20975 329.902744 
C 534.371104 330.74139 533.899892 331.878998 533.899892 333.065022 
C 533.899892 334.251046 534.371104 335.388654 535.20975 336.2273 
C 536.048396 337.065946 537.186004 337.537158 538.372028 337.537158 
z
" clip-path="url(#p3b395ef1ab)" style="fill: #1f77b4; fill-opacity: 0.3; stroke: #1f77b4; stroke-opacity: 0.3"/>
    <path d="M 548.777622 335.214882 
C 550.996471 335.214882 553.124739 334.333324 554.693702 332.764362 
C 556.262665 331.195399 557.144223 329.06713 557.144223 326.848282 
C 557.144223 324.629434 556.262665 322.501165 554.693702 320.932202 
C 553.124739 319.363239 550.996471 318.481682 548.777622 318.481682 
C 546.558774 318.481682 544.430505 319.363239 542.861543 320.932202 
C 541.29258 322.501165 540.411022 324.629434 540.411022 326.848282 
C 540.411022 329.06713 541.29258 331.195399 542.861543 332.764362 
C 544.430505 334.333324 546.558774 335.214882 548.777622 335.214882 
z
" clip-path="url(#p3b395ef1ab)" style="fill: #1f77b4; fill-opacity: 0.3; stroke: #1f77b4; stroke-opacity: 0.3"/>
    <path d="M 559.183217 329.593035 
C 560.912129 329.593035 562.570463 328.906131 563.792989 327.683605 
C 565.015515 326.461079 565.702419 324.802745 565.702419 323.073833 
C 565.702419 321.34492 565.015515 319.686586 563.792989 318.46406 
C 562.570463 317.241534 560.912129 316.55463 559.183217 316.55463 
C 557.454304 316.55463 555.79597 317.241534 554.573445 318.46406 
C 553.350919 319.686586 552.664014 321.34492 552.664014 323.073833 
C 552.664014 324.802745 553.350919 326.461079 554.573445 327.683605 
C 555.79597 328.906131 557.454304 329.593035 559.183217 329.593035 
z
" clip-path="url(#p3b395ef1ab)" style="fill: #1f77b4; fill-opacity: 0.3; stroke: #1f77b4; stroke-opacity: 0.3"/>
    <path d="M 569.588811 325.875586 
C 570.979548 325.875586 572.313511 325.323041 573.29691 324.339641 
C 574.28031 323.356242 574.832855 322.022279 574.832855 320.631542 
C 574.832855 319.240805 574.28031 317.906842 573.29691 316.923443 
C 572.313511 315.940043 570.979548 315.387498 569.588811 315.387498 
C 568.198074 315.387498 566.864111 315.940043 565.880712 316.923443 
C 564.897313 317.906842 564.344767 319.240805 564.344767 320.631542 
C 564.344767 322.022279 564.897313 323.356242 565.880712 324.339641 
C 566.864111 325.323041 568.198074 325.875586 569.588811 325.875586 
z
" clip-path="url(#p3b395ef1ab)" style="fill: #1f77b4; fill-opacity: 0.3; stroke: #1f77b4; stroke-opacity: 0.3"/>
    <path d="M 579.994406 321.84672 
C 582.613076 321.84672 585.124846 320.806311 586.976526 318.954631 
C 588.828205 317.102951 589.868614 314.591182 589.868614 311.972511 
C 589.868614 309.35384 588.828205 306.842071 586.976526 304.990391 
C 585.124846 303.138711 582.613076 302.098302 579.994406 302.098302 
C 577.375735 302.098302 574.863965 303.138711 573.012286 304.990391 
C 571.160606 306.842071 570.120197 309.35384 570.120197 311.972511 
C 570.120197 314.591182 571.160606 317.102951 573.012286 318.954631 
C 574.863965 320.806311 577.375735 321.84672 579.994406 321.84672 
z
" clip-path="url(#p3b395ef1ab)" style="fill: #1f77b4; fill-opacity: 0.3; stroke: #1f77b4; stroke-opacity: 0.3"/>
    <path d="M 590.4 314.785419 
C 591.852577 314.785419 593.245856 314.208304 594.272983 313.181177 
C 595.300111 312.15405 595.877226 310.760771 595.877226 309.308194 
C 595.877226 307.855617 595.300111 306.462338 594.272983 305.43521 
C 593.245856 304.408083 591.852577 303.830968 590.4 303.830968 
C 588.947423 303.830968 587.554144 304.408083 586.527017 305.43521 
C 585.499889 306.462338 584.922774 307.855617 584.922774 309.308194 
C 584.922774 310.760771 585.499889 312.15405 586.527017 313.181177 
C 587.554144 314.208304 588.947423 314.785419 590.4 314.785419 
z
" clip-path="url(#p3b395ef1ab)" style="fill: #1f77b4; fill-opacity: 0.3; stroke: #1f77b4; stroke-opacity: 0.3"/>
    <path d="M 600.805594 310.97884 
C 603.250646 310.97884 605.595884 310.00741 607.324797 308.278498 
C 609.053709 306.549585 610.025139 304.204347 610.025139 301.759295 
C 610.025139 299.314243 609.053709 296.969005 607.324797 295.240093 
C 605.595884 293.51118 603.250646 292.539751 600.805594 292.539751 
C 598.360543 292.539751 596.015305 293.51118 594.286392 295.240093 
C 592.557479 296.969005 591.58605 299.314243 591.58605 301.759295 
C 591.58605 304.204347 592.557479 306.549585 594.286392 308.278498 
C 596.015305 310.00741 598.360543 310.97884 600.805594 310.97884 
z
" clip-path="url(#p3b395ef1ab)" style="fill: #1f77b4; fill-opacity: 0.3; stroke: #1f77b4; stroke-opacity: 0.3"/>
    <path d="M 611.211189 304.389834 
C 613.086458 304.389834 614.885173 303.644782 616.211189 302.318767 
C 617.537204 300.992751 618.282257 299.194036 618.282257 297.318767 
C 618.282257 295.443497 617.537204 293.644782 616.211189 292.318767 
C 614.885173 290.992751 613.086458 290.247699 611.211189 290.247699 
C 609.33592 290.247699 607.537204 290.992751 606.211189 292.318767 
C 604.885173 293.644782 604.140121 295.443497 604.140121 297.318767 
C 604.140121 299.194036 604.885173 300.992751 606.211189 302.318767 
C 607.537204 303.644782 609.33592 304.389834 611.211189 304.389834 
z
" clip-path="url(#p3b395ef1ab)" style="fill: #1f77b4; fill-opacity: 0.3; stroke: #1f77b4; stroke-opacity: 0.3"/>
    <path d="M 621.616783 300.131675 
C 623.06936 300.131675 624.462639 299.55456 625.489767 298.527433 
C 626.516894 297.500305 627.094009 296.107027 627.094009 294.654449 
C 627.094009 293.201872 626.516894 291.808593 625.489767 290.781466 
C 624.462639 289.754339 623.06936 289.177224 621.616783 289.177224 
C 620.164206 289.177224 618.770927 289.754339 617.7438 290.781466 
C 616.716673 291.808593 616.139558 293.201872 616.139558 294.654449 
C 616.139558 296.107027 616.716673 297.500305 617.7438 298.527433 
C 618.770927 299.55456 620.164206 300.131675 621.616783 300.131675 
z
" clip-path="url(#p3b395ef1ab)" style="fill: #1f77b4; fill-opacity: 0.3; stroke: #1f77b4; stroke-opacity: 0.3"/>
    <path d="M 632.022378 297.284989 
C 633.897647 297.284989 635.696362 296.539936 637.022378 295.213921 
C 638.348393 293.887905 639.093445 292.08919 639.093445 290.213921 
C 639.093445 288.338652 638.348393 286.539936 637.022378 285.213921 
C 635.696362 283.887905 633.897647 283.142853 632.022378 283.142853 
C 630.147109 283.142853 628.348393 283.887905 627.022378 285.213921 
C 625.696362 286.539936 624.95131 288.338652 624.95131 290.213921 
C 624.95131 292.08919 625.696362 293.887905 627.022378 295.213921 
C 628.348393 296.539936 630.147109 297.284989 632.022378 297.284989 
z
" clip-path="url(#p3b395ef1ab)" style="fill: #1f77b4; fill-opacity: 0.3; stroke: #1f77b4; stroke-opacity: 0.3"/>
    <path d="M 642.427972 292.959099 
C 643.685941 292.959099 644.892556 292.459303 645.782074 291.569785 
C 646.671592 290.680267 647.171389 289.473652 647.171389 288.215683 
C 647.171389 286.957714 646.671592 285.751099 645.782074 284.861581 
C 644.892556 283.972063 643.685941 283.472266 642.427972 283.472266 
C 641.170003 283.472266 639.963388 283.972063 639.07387 284.861581 
C 638.184352 285.751099 637.684556 286.957714 637.684556 288.215683 
C 637.684556 289.473652 638.184352 290.680267 639.07387 291.569785 
C 639.963388 292.459303 641.170003 292.959099 642.427972 292.959099 
z
" clip-path="url(#p3b395ef1ab)" style="fill: #1f77b4; fill-opacity: 0.3; stroke: #1f77b4; stroke-opacity: 0.3"/>
    <path d="M 652.833566 289.618397 
C 655.384208 289.618397 657.830726 288.605016 659.634302 286.80144 
C 661.437878 284.997864 662.451258 282.551347 662.451258 280.000705 
C 662.451258 277.450063 661.437878 275.003546 659.634302 273.19997 
C 657.830726 271.396394 655.384208 270.383013 652.833566 270.383013 
C 650.282925 270.383013 647.836407 271.396394 646.032831 273.19997 
C 644.229255 275.003546 643.215874 277.450063 643.215874 280.000705 
C 643.215874 282.551347 644.229255 284.997864 646.032831 286.80144 
C 647.836407 288.605016 650.282925 289.618397 652.833566 289.618397 
z
" clip-path="url(#p3b395ef1ab)" style="fill: #1f77b4; fill-opacity: 0.3; stroke: #1f77b4; stroke-opacity: 0.3"/>
    <path d="M 663.239161 280.297887 
C 666.144315 280.297887 668.930873 279.143657 670.985128 277.089403 
C 673.039382 275.035148 674.193612 272.248591 674.193612 269.343436 
C 674.193612 266.438282 673.039382 263.651724 670.985128 261.597469 
C 668.930873 259.543215 666.144315 258.388985 663.239161 258.388985 
C 660.334006 258.388985 657.547449 259.543215 655.493194 261.597469 
C 653.43894 263.651724 652.28471 266.438282 652.28471 269.343436 
C 652.28471 272.248591 653.43894 275.035148 655.493194 277.089403 
C 657.547449 279.143657 660.334006 280.297887 663.239161 280.297887 
z
" clip-path="url(#p3b395ef1ab)" style="fill: #1f77b4; fill-opacity: 0.3; stroke: #1f77b4; stroke-opacity: 0.3"/>
    <path d="M 673.644755 272.088615 
C 674.902724 272.088615 676.109339 271.588818 676.998857 270.6993 
C 677.888375 269.809782 678.388172 268.603167 678.388172 267.345198 
C 678.388172 266.087229 677.888375 264.880615 676.998857 263.991096 
C 676.109339 263.101578 674.902724 262.601782 673.644755 262.601782 
C 672.386786 262.601782 671.180172 263.101578 670.290653 263.991096 
C 669.401135 264.880615 668.901339 266.087229 668.901339 267.345198 
C 668.901339 268.603167 669.401135 269.809782 670.290653 270.6993 
C 671.180172 271.588818 672.386786 272.088615 673.644755 272.088615 
z
" clip-path="url(#p3b395ef1ab)" style="fill: #1f77b4; fill-opacity: 0.3; stroke: #1f77b4; stroke-opacity: 0.3"/>
    <path d="M 684.05035 269.975737 
C 685.925619 269.975737 687.724334 269.230685 689.05035 267.90467 
C 690.376365 266.578654 691.121417 264.779939 691.121417 262.90467 
C 691.121417 261.0294 690.376365 259.230685 689.05035 257.90467 
C 687.724334 256.578654 685.925619 255.833602 684.05035 255.833602 
C 682.175081 255.833602 680.376365 256.578654 679.05035 257.90467 
C 677.724334 259.230685 676.979282 261.0294 676.979282 262.90467 
C 676.979282 264.779939 677.724334 266.578654 679.05035 267.90467 
C 680.376365 269.230685 682.175081 269.975737 684.05035 269.975737 
z
" clip-path="url(#p3b395ef1ab)" style="fill: #1f77b4; fill-opacity: 0.3; stroke: #1f77b4; stroke-opacity: 0.3"/>
    <path d="M 694.455944 265.535209 
C 696.331213 265.535209 698.129929 264.790156 699.455944 263.464141 
C 700.78196 262.138125 701.527012 260.33941 701.527012 258.464141 
C 701.527012 256.588872 700.78196 254.790156 699.455944 253.464141 
C 698.129929 252.138125 696.331213 251.393073 694.455944 251.393073 
C 692.580675 251.393073 690.78196 252.138125 689.455944 253.464141 
C 688.129929 254.790156 687.384876 256.588872 687.384876 258.464141 
C 687.384876 260.33941 688.129929 262.138125 689.455944 263.464141 
C 690.78196 264.790156 692.580675 265.535209 694.455944 265.535209 
z
" clip-path="url(#p3b395ef1ab)" style="fill: #1f77b4; fill-opacity: 0.3; stroke: #1f77b4; stroke-opacity: 0.3"/>
    <path d="M 704.861538 261.175869 
C 706.640575 261.175869 708.346986 260.46905 709.604955 259.211082 
C 710.862924 257.953113 711.569742 256.246702 711.569742 254.467665 
C 711.569742 252.688629 710.862924 250.982217 709.604955 249.724249 
C 708.346986 248.46628 706.640575 247.759461 704.861538 247.759461 
C 703.082502 247.759461 701.376091 248.46628 700.118122 249.724249 
C 698.860153 250.982217 698.153335 252.688629 698.153335 254.467665 
C 698.153335 256.246702 698.860153 257.953113 700.118122 259.211082 
C 701.376091 260.46905 703.082502 261.175869 704.861538 261.175869 
z
" clip-path="url(#p3b395ef1ab)" style="fill: #1f77b4; fill-opacity: 0.3; stroke: #1f77b4; stroke-opacity: 0.3"/>
    <path d="M 715.267133 257.141187 
C 717.094919 257.141187 718.84809 256.415 720.14053 255.12256 
C 721.43297 253.83012 722.159157 252.076949 722.159157 250.249163 
C 722.159157 248.421377 721.43297 246.668206 720.14053 245.375766 
C 718.84809 244.083326 717.094919 243.357139 715.267133 243.357139 
C 713.439347 243.357139 711.686176 244.083326 710.393736 245.375766 
C 709.101296 246.668206 708.375108 248.421377 708.375108 250.249163 
C 708.375108 252.076949 709.101296 253.83012 710.393736 255.12256 
C 711.686176 256.415 713.439347 257.141187 715.267133 257.141187 
z
" clip-path="url(#p3b395ef1ab)" style="fill: #1f77b4; fill-opacity: 0.3; stroke: #1f77b4; stroke-opacity: 0.3"/>
    <path d="M 725.672727 252.248624 
C 727.969453 252.248624 730.172421 251.336125 731.796452 249.712094 
C 733.420482 248.088064 734.332981 245.885096 734.332981 243.58837 
C 734.332981 241.291644 733.420482 239.088676 731.796452 237.464646 
C 730.172421 235.840615 727.969453 234.928116 725.672727 234.928116 
C 723.376001 234.928116 721.173034 235.840615 719.549003 237.464646 
C 717.924972 239.088676 717.012473 241.291644 717.012473 243.58837 
C 717.012473 245.885096 717.924972 248.088064 719.549003 249.712094 
C 721.173034 251.336125 723.376001 252.248624 725.672727 252.248624 
z
" clip-path="url(#p3b395ef1ab)" style="fill: #1f77b4; fill-opacity: 0.3; stroke: #1f77b4; stroke-opacity: 0.3"/>
    <path d="M 736.078322 245.587831 
C 738.375048 245.587831 740.578015 244.675332 742.202046 243.051301 
C 743.826077 241.427271 744.738576 239.224303 744.738576 236.927577 
C 744.738576 234.630851 743.826077 232.427883 742.202046 230.803853 
C 740.578015 229.179822 738.375048 228.267323 736.078322 228.267323 
C 733.781595 228.267323 731.578628 229.179822 729.954597 230.803853 
C 728.330567 232.427883 727.418068 234.630851 727.418068 236.927577 
C 727.418068 239.224303 728.330567 241.427271 729.954597 243.051301 
C 731.578628 244.675332 733.781595 245.587831 736.078322 245.587831 
z
" clip-path="url(#p3b395ef1ab)" style="fill: #1f77b4; fill-opacity: 0.3; stroke: #1f77b4; stroke-opacity: 0.3"/>
    <path d="M 746.483916 237.748661 
C 749.2336 237.748661 751.871035 236.6562 753.815355 234.71188 
C 755.759676 232.767559 756.852137 230.130125 756.852137 227.380441 
C 756.852137 224.630756 755.759676 221.993322 753.815355 220.049001 
C 751.871035 218.104681 749.2336 217.01222 746.483916 217.01222 
C 743.734232 217.01222 741.096797 218.104681 739.152477 220.049001 
C 737.208157 221.993322 736.115695 224.630756 736.115695 227.380441 
C 736.115695 230.130125 737.208157 232.767559 739.152477 234.71188 
C 741.096797 236.6562 743.734232 237.748661 746.483916 237.748661 
z
" clip-path="url(#p3b395ef1ab)" style="fill: #1f77b4; fill-opacity: 0.3; stroke: #1f77b4; stroke-opacity: 0.3"/>
    <path d="M 756.88951 229.963574 
C 758.81109 229.963574 760.654224 229.200122 762.012986 227.841361 
C 763.371747 226.482599 764.135199 224.639464 764.135199 222.717885 
C 764.135199 220.796306 763.371747 218.953172 762.012986 217.59441 
C 760.654224 216.235649 758.81109 215.472197 756.88951 215.472197 
C 754.967931 215.472197 753.124797 216.235649 751.766035 217.59441 
C 750.407274 218.953172 749.643822 220.796306 749.643822 222.717885 
C 749.643822 224.639464 750.407274 226.482599 751.766035 227.841361 
C 753.124797 229.200122 754.967931 229.963574 756.88951 229.963574 
z
" clip-path="url(#p3b395ef1ab)" style="fill: #1f77b4; fill-opacity: 0.3; stroke: #1f77b4; stroke-opacity: 0.3"/>
    <path d="M 767.295105 221.881947 
C 770.488573 221.881947 773.551675 220.613169 775.809798 218.355046 
C 778.067921 216.096923 779.336699 213.033821 779.336699 209.840352 
C 779.336699 206.646884 778.067921 203.583782 775.809798 201.325659 
C 773.551675 199.067536 770.488573 197.798758 767.295105 197.798758 
C 764.101637 197.798758 761.038535 199.067536 758.780412 201.325659 
C 756.522289 203.583782 755.25351 206.646884 755.25351 209.840352 
C 755.25351 213.033821 756.522289 216.096923 758.780412 218.355046 
C 761.038535 220.613169 764.101637 221.881947 767.295105 221.881947 
z
" clip-path="url(#p3b395ef1ab)" style="fill: #1f77b4; fill-opacity: 0.3; stroke: #1f77b4; stroke-opacity: 0.3"/>
    <path d="M 777.700699 212.31662 
C 779.711701 212.31662 781.640609 211.51764 783.062602 210.095647 
C 784.484595 208.673654 785.283575 206.744747 785.283575 204.733744 
C 785.283575 202.722742 784.484595 200.793835 783.062602 199.371842 
C 781.640609 197.949849 779.711701 197.150869 777.700699 197.150869 
C 775.689697 197.150869 773.76079 197.949849 772.338797 199.371842 
C 770.916803 200.793835 770.117824 202.722742 770.117824 204.733744 
C 770.117824 206.744747 770.916803 208.673654 772.338797 210.095647 
C 773.76079 211.51764 775.689697 212.31662 777.700699 212.31662 
z
" clip-path="url(#p3b395ef1ab)" style="fill: #1f77b4; fill-opacity: 0.3; stroke: #1f77b4; stroke-opacity: 0.3"/>
    <path d="M 788.106294 207.546653 
C 789.558871 207.546653 790.95215 206.969538 791.979277 205.942411 
C 793.006404 204.915283 793.583519 203.522005 793.583519 202.069427 
C 793.583519 200.61685 793.006404 199.223571 791.979277 198.196444 
C 790.95215 197.169317 789.558871 196.592202 788.106294 196.592202 
C 786.653717 196.592202 785.260438 197.169317 784.23331 198.196444 
C 783.206183 199.223571 782.629068 200.61685 782.629068 202.069427 
C 782.629068 203.522005 783.206183 204.915283 784.23331 205.942411 
C 785.260438 206.969538 786.653717 207.546653 788.106294 207.546653 
z
" clip-path="url(#p3b395ef1ab)" style="fill: #1f77b4; fill-opacity: 0.3; stroke: #1f77b4; stroke-opacity: 0.3"/>
    <path d="M 798.511888 204.699966 
C 800.387157 204.699966 802.185873 203.954914 803.511888 202.628899 
C 804.837904 201.302883 805.582956 199.504168 805.582956 197.628899 
C 805.582956 195.75363 804.837904 193.954914 803.511888 192.628899 
C 802.185873 191.302883 800.387157 190.557831 798.511888 190.557831 
C 796.636619 190.557831 794.837904 191.302883 793.511888 192.628899 
C 792.185873 193.954914 791.44082 195.75363 791.44082 197.628899 
C 791.44082 199.504168 792.185873 201.302883 793.511888 202.628899 
C 794.837904 203.954914 796.636619 204.699966 798.511888 204.699966 
z
" clip-path="url(#p3b395ef1ab)" style="fill: #1f77b4; fill-opacity: 0.3; stroke: #1f77b4; stroke-opacity: 0.3"/>
    <path d="M 808.917483 199.850023 
C 811.096348 199.850023 813.186267 198.984351 814.726958 197.44366 
C 816.267648 195.902969 817.133321 193.813051 817.133321 191.634185 
C 817.133321 189.455319 816.267648 187.365401 814.726958 185.82471 
C 813.186267 184.284019 811.096348 183.418347 808.917483 183.418347 
C 806.738617 183.418347 804.648698 184.284019 803.108007 185.82471 
C 801.567317 187.365401 800.701644 189.455319 800.701644 191.634185 
C 800.701644 193.813051 801.567317 195.902969 803.108007 197.44366 
C 804.648698 198.984351 806.738617 199.850023 808.917483 199.850023 
z
" clip-path="url(#p3b395ef1ab)" style="fill: #1f77b4; fill-opacity: 0.3; stroke: #1f77b4; stroke-opacity: 0.3"/>
    <path d="M 819.323077 194.264724 
C 821.198346 194.264724 822.997061 193.519672 824.323077 192.193656 
C 825.649092 190.867641 826.394145 189.068925 826.394145 187.193656 
C 826.394145 185.318387 825.649092 183.519672 824.323077 182.193656 
C 822.997061 180.867641 821.198346 180.122589 819.323077 180.122589 
C 817.447808 180.122589 815.649092 180.867641 814.323077 182.193656 
C 812.997061 183.519672 812.252009 185.318387 812.252009 187.193656 
C 812.252009 189.068925 812.997061 190.867641 814.323077 192.193656 
C 815.649092 193.519672 817.447808 194.264724 819.323077 194.264724 
z
" clip-path="url(#p3b395ef1ab)" style="fill: #1f77b4; fill-opacity: 0.3; stroke: #1f77b4; stroke-opacity: 0.3"/>
    <path d="M 829.728671 189.193117 
C 832.025398 189.193117 834.228365 188.280618 835.852396 186.656588 
C 837.476426 185.032557 838.388925 182.82959 838.388925 180.532863 
C 838.388925 178.236137 837.476426 176.03317 835.852396 174.409139 
C 834.228365 172.785108 832.025398 171.872609 829.728671 171.872609 
C 827.431945 171.872609 825.228978 172.785108 823.604947 174.409139 
C 821.980916 176.03317 821.068417 178.236137 821.068417 180.532863 
C 821.068417 182.82959 821.980916 185.032557 823.604947 186.656588 
C 825.228978 188.280618 827.431945 189.193117 829.728671 189.193117 
z
" clip-path="url(#p3b395ef1ab)" style="fill: #1f77b4; fill-opacity: 0.3; stroke: #1f77b4; stroke-opacity: 0.3"/>
    <path d="M 840.134266 183.277617 
C 841.863178 183.277617 843.521512 182.590712 844.744038 181.368186 
C 845.966564 180.14566 846.653468 178.487327 846.653468 176.758414 
C 846.653468 175.029501 845.966564 173.371168 844.744038 172.148642 
C 843.521512 170.926116 841.863178 170.239212 840.134266 170.239212 
C 838.405353 170.239212 836.747019 170.926116 835.524494 172.148642 
C 834.301968 173.371168 833.615063 175.029501 833.615063 176.758414 
C 833.615063 178.487327 834.301968 180.14566 835.524494 181.368186 
C 836.747019 182.590712 838.405353 183.277617 840.134266 183.277617 
z
" clip-path="url(#p3b395ef1ab)" style="fill: #1f77b4; fill-opacity: 0.3; stroke: #1f77b4; stroke-opacity: 0.3"/>
    <path d="M 850.53986 179.341547 
C 852.461439 179.341547 854.304574 178.578096 855.663336 177.219334 
C 857.022097 175.860573 857.785549 174.017438 857.785549 172.095859 
C 857.785549 170.17428 857.022097 168.331145 855.663336 166.972384 
C 854.304574 165.613622 852.461439 164.850171 850.53986 164.850171 
C 848.618281 164.850171 846.775146 165.613622 845.416385 166.972384 
C 844.057623 168.331145 843.294172 170.17428 843.294172 172.095859 
C 843.294172 174.017438 844.057623 175.860573 845.416385 177.219334 
C 846.775146 178.578096 848.618281 179.341547 850.53986 179.341547 
z
" clip-path="url(#p3b395ef1ab)" style="fill: #1f77b4; fill-opacity: 0.3; stroke: #1f77b4; stroke-opacity: 0.3"/>
    <path d="M 860.945455 174.807587 
C 862.724491 174.807587 864.430902 174.100769 865.688871 172.8428 
C 866.94684 171.584831 867.653658 169.87842 867.653658 168.099383 
C 867.653658 166.320347 866.94684 164.613936 865.688871 163.355967 
C 864.430902 162.097998 862.724491 161.391179 860.945455 161.391179 
C 859.166418 161.391179 857.460007 162.097998 856.202038 163.355967 
C 854.944069 164.613936 854.237251 166.320347 854.237251 168.099383 
C 854.237251 169.87842 854.944069 171.584831 856.202038 172.8428 
C 857.460007 174.100769 859.166418 174.807587 860.945455 174.807587 
z
" clip-path="url(#p3b395ef1ab)" style="fill: #1f77b4; fill-opacity: 0.3; stroke: #1f77b4; stroke-opacity: 0.3"/>
    <path d="M 871.351049 170.913917 
C 872.862939 170.913917 874.31311 170.313236 875.382178 169.244169 
C 876.451246 168.175101 877.051926 166.72493 877.051926 165.21304 
C 877.051926 163.701149 876.451246 162.250979 875.382178 161.181911 
C 874.31311 160.112843 872.862939 159.512163 871.351049 159.512163 
C 869.839159 159.512163 868.388988 160.112843 867.31992 161.181911 
C 866.250852 162.250979 865.650172 163.701149 865.650172 165.21304 
C 865.650172 166.72493 866.250852 168.175101 867.31992 169.244169 
C 868.388988 170.313236 869.839159 170.913917 871.351049 170.913917 
z
" clip-path="url(#p3b395ef1ab)" style="fill: #1f77b4; fill-opacity: 0.3; stroke: #1f77b4; stroke-opacity: 0.3"/>
    <path d="M 881.756643 163.279448 
C 885.188949 163.279448 888.481139 161.915778 890.908146 159.488771 
C 893.335153 157.061764 894.698822 153.769575 894.698822 150.337269 
C 894.698822 146.904963 893.335153 143.612773 890.908146 141.185766 
C 888.481139 138.758759 885.188949 137.39509 881.756643 137.39509 
C 878.324337 137.39509 875.032148 138.758759 872.605141 141.185766 
C 870.178134 143.612773 868.814464 146.904963 868.814464 150.337269 
C 868.814464 153.769575 870.178134 157.061764 872.605141 159.488771 
C 875.032148 161.915778 878.324337 163.279448 881.756643 163.279448 
z
" clip-path="url(#p3b395ef1ab)" style="fill: #1f77b4; fill-opacity: 0.3; stroke: #1f77b4; stroke-opacity: 0.3"/>
    <path d="M 892.162238 153.010791 
C 893.990024 153.010791 895.743195 152.284604 897.035635 150.992164 
C 898.328075 149.699724 899.054262 147.946553 899.054262 146.118767 
C 899.054262 144.29098 898.328075 142.537809 897.035635 141.245369 
C 895.743195 139.952929 893.990024 139.226742 892.162238 139.226742 
C 890.334452 139.226742 888.581281 139.952929 887.288841 141.245369 
C 885.996401 142.537809 885.270213 144.29098 885.270213 146.118767 
C 885.270213 147.946553 885.996401 149.699724 887.288841 150.992164 
C 888.581281 152.284604 890.334452 153.010791 892.162238 153.010791 
z
" clip-path="url(#p3b395ef1ab)" style="fill: #1f77b4; fill-opacity: 0.3; stroke: #1f77b4; stroke-opacity: 0.3"/>
    <path d="M 902.567832 146.939851 
C 905.317516 146.939851 907.954951 145.847389 909.899271 143.903069 
C 911.843592 141.958749 912.936053 139.321314 912.936053 136.57163 
C 912.936053 133.821946 911.843592 131.184511 909.899271 129.240191 
C 907.954951 127.29587 905.317516 126.203409 902.567832 126.203409 
C 899.818148 126.203409 897.180713 127.29587 895.236393 129.240191 
C 893.292073 131.184511 892.199611 133.821946 892.199611 136.57163 
C 892.199611 139.321314 893.292073 141.958749 895.236393 143.903069 
C 897.180713 145.847389 899.818148 146.939851 902.567832 146.939851 
z
" clip-path="url(#p3b395ef1ab)" style="fill: #1f77b4; fill-opacity: 0.3; stroke: #1f77b4; stroke-opacity: 0.3"/>
    <path d="M 912.973427 138.571091 
C 915.270153 138.571091 917.47312 137.658592 919.097151 136.034561 
C 920.721182 134.410531 921.633681 132.207563 921.633681 129.910837 
C 921.633681 127.614111 920.721182 125.411143 919.097151 123.787113 
C 917.47312 122.163082 915.270153 121.250583 912.973427 121.250583 
C 910.6767 121.250583 908.473733 122.163082 906.849702 123.787113 
C 905.225672 125.411143 904.313173 127.614111 904.313173 129.910837 
C 904.313173 132.207563 905.225672 134.410531 906.849702 136.034561 
C 908.473733 137.658592 910.6767 138.571091 912.973427 138.571091 
z
" clip-path="url(#p3b395ef1ab)" style="fill: #1f77b4; fill-opacity: 0.3; stroke: #1f77b4; stroke-opacity: 0.3"/>
    <path d="M 923.379021 132.541376 
C 925.25429 132.541376 927.053005 131.796324 928.379021 130.470308 
C 929.705036 129.144293 930.450089 127.345577 930.450089 125.470308 
C 930.450089 123.595039 929.705036 121.796324 928.379021 120.470308 
C 927.053005 119.144293 925.25429 118.399241 923.379021 118.399241 
C 921.503752 118.399241 919.705036 119.144293 918.379021 120.470308 
C 917.053005 121.796324 916.307953 123.595039 916.307953 125.470308 
C 916.307953 127.345577 917.053005 129.144293 918.379021 130.470308 
C 919.705036 131.796324 921.503752 132.541376 923.379021 132.541376 
z
" clip-path="url(#p3b395ef1ab)" style="fill: #1f77b4; fill-opacity: 0.3; stroke: #1f77b4; stroke-opacity: 0.3"/>
    <path d="M 933.784615 128.182037 
C 935.563652 128.182037 937.270063 127.475218 938.528032 126.217249 
C 939.786001 124.95928 940.492819 123.252869 940.492819 121.473833 
C 940.492819 119.694796 939.786001 117.988385 938.528032 116.730416 
C 937.270063 115.472447 935.563652 114.765629 933.784615 114.765629 
C 932.005579 114.765629 930.299168 115.472447 929.041199 116.730416 
C 927.78323 117.988385 927.076411 119.694796 927.076411 121.473833 
C 927.076411 123.252869 927.78323 124.95928 929.041199 126.217249 
C 930.299168 127.475218 932.005579 128.182037 933.784615 128.182037 
z
" clip-path="url(#p3b395ef1ab)" style="fill: #1f77b4; fill-opacity: 0.3; stroke: #1f77b4; stroke-opacity: 0.3"/>
    <path d="M 944.19021 124.253568 
C 945.516225 124.253568 946.788109 123.726737 947.725744 122.789102 
C 948.663378 121.851468 949.19021 120.579584 949.19021 119.253568 
C 949.19021 117.927553 948.663378 116.655669 947.725744 115.718034 
C 946.788109 114.7804 945.516225 114.253568 944.19021 114.253568 
C 942.864194 114.253568 941.59231 114.7804 940.654676 115.718034 
C 939.717041 116.655669 939.19021 117.927553 939.19021 119.253568 
C 939.19021 120.579584 939.717041 121.851468 940.654676 122.789102 
C 941.59231 123.726737 942.864194 124.253568 944.19021 124.253568 
z
" clip-path="url(#p3b395ef1ab)" style="fill: #1f77b4; fill-opacity: 0.3; stroke: #1f77b4; stroke-opacity: 0.3"/>
    <path d="M 954.595804 121.836702 
C 956.517383 121.836702 958.360518 121.07325 959.71928 119.714489 
C 961.078041 118.355727 961.841493 116.512592 961.841493 114.591013 
C 961.841493 112.669434 961.078041 110.826299 959.71928 109.467538 
C 958.360518 108.108776 956.517383 107.345325 954.595804 107.345325 
C 952.674225 107.345325 950.83109 108.108776 949.472329 109.467538 
C 948.113567 110.826299 947.350116 112.669434 947.350116 114.591013 
C 947.350116 116.512592 948.113567 118.355727 949.472329 119.714489 
C 950.83109 121.07325 952.674225 121.836702 954.595804 121.836702 
z
" clip-path="url(#p3b395ef1ab)" style="fill: #1f77b4; fill-opacity: 0.3; stroke: #1f77b4; stroke-opacity: 0.3"/>
    <path d="M 965.001399 116.511602 
C 967.33609 116.511602 969.575472 115.58402 971.226348 113.933144 
C 972.877224 112.282268 973.804807 110.042885 973.804807 107.708194 
C 973.804807 105.373503 972.877224 103.13412 971.226348 101.483244 
C 969.575472 99.832368 967.33609 98.904785 965.001399 98.904785 
C 962.666707 98.904785 960.427325 99.832368 958.776449 101.483244 
C 957.125573 103.13412 956.19799 105.373503 956.19799 107.708194 
C 956.19799 110.042885 957.125573 112.282268 958.776449 113.933144 
C 960.427325 115.58402 962.666707 116.511602 965.001399 116.511602 
z
" clip-path="url(#p3b395ef1ab)" style="fill: #1f77b4; fill-opacity: 0.3; stroke: #1f77b4; stroke-opacity: 0.3"/>
    <path d="M 975.406993 110.239811 
C 977.373792 110.239811 979.2603 109.458393 980.651037 108.067657 
C 982.041774 106.67692 982.823191 104.790411 982.823191 102.823612 
C 982.823191 100.856814 982.041774 98.970305 980.651037 97.579568 
C 979.2603 96.188831 977.373792 95.407414 975.406993 95.407414 
C 973.440194 95.407414 971.553686 96.188831 970.162949 97.579568 
C 968.772212 98.970305 967.990795 100.856814 967.990795 102.823612 
C 967.990795 104.790411 968.772212 106.67692 970.162949 108.067657 
C 971.553686 109.458393 973.440194 110.239811 975.406993 110.239811 
z
" clip-path="url(#p3b395ef1ab)" style="fill: #1f77b4; fill-opacity: 0.3; stroke: #1f77b4; stroke-opacity: 0.3"/>
    <path d="M 985.812587 103.745453 
C 988.530111 103.745453 991.136697 102.66577 993.058276 100.744191 
C 994.979855 98.822612 996.059538 96.216025 996.059538 93.498502 
C 996.059538 90.780979 994.979855 88.174393 993.058276 86.252814 
C 991.136697 84.331235 988.530111 83.251551 985.812587 83.251551 
C 983.095064 83.251551 980.488478 84.331235 978.566899 86.252814 
C 976.64532 88.174393 975.565637 90.780979 975.565637 93.498502 
C 975.565637 96.216025 976.64532 98.822612 978.566899 100.744191 
C 980.488478 102.66577 983.095064 103.745453 985.812587 103.745453 
z
" clip-path="url(#p3b395ef1ab)" style="fill: #1f77b4; fill-opacity: 0.3; stroke: #1f77b4; stroke-opacity: 0.3"/>
    <path d="M 996.218182 96.172024 
C 998.045968 96.172024 999.799139 95.445837 1001.091579 94.153397 
C 1002.384019 92.860957 1003.110206 91.107786 1003.110206 89.28 
C 1003.110206 87.452214 1002.384019 85.699043 1001.091579 84.406603 
C 999.799139 83.114163 998.045968 82.387976 996.218182 82.387976 
C 994.390396 82.387976 992.637225 83.114163 991.344785 84.406603 
C 990.052345 85.699043 989.326157 87.452214 989.326157 89.28 
C 989.326157 91.107786 990.052345 92.860957 991.344785 94.153397 
C 992.637225 95.445837 994.390396 96.172024 996.218182 96.172024 
z
" clip-path="url(#p3b395ef1ab)" style="fill: #1f77b4; fill-opacity: 0.3; stroke: #1f77b4; stroke-opacity: 0.3"/>
   </g>
   <g id="matplotlib.axis_1">
    <g id="xtick_1">
     <g id="line2d_1">
      <defs>
       <path id="m9449561444" d="M 0 0 
L 0 3.5 
" style="stroke: #000000; stroke-width: 0.8"/>
      </defs>
      <g>
       <use xlink:href="#m9449561444" x="184.581818" y="512.64" style="stroke: #000000; stroke-width: 0.8"/>
      </g>
     </g>
     <g id="text_1">
      <!-- 2026-01-01 -->
      <g transform="translate(155.524006 527.238438) scale(0.1 -0.1)">
       <defs>
        <path id="DejaVuSans-32" d="M 1228 531 
L 3431 531 
L 3431 0 
L 469 0 
L 469 531 
Q 828 903 1448 1529 
Q 2069 2156 2228 2338 
Q 2531 2678 2651 2914 
Q 2772 3150 2772 3378 
Q 2772 3750 2511 3984 
Q 2250 4219 1831 4219 
Q 1534 4219 1204 4116 
Q 875 4013 500 3803 
L 500 4441 
Q 881 4594 1212 4672 
Q 1544 4750 1819 4750 
Q 2544 4750 2975 4387 
Q 3406 4025 3406 3419 
Q 3406 3131 3298 2873 
Q 3191 2616 2906 2266 
Q 2828 2175 2409 1742 
Q 1991 1309 1228 531 
z
" transform="scale(0.015625)"/>
        <path id="DejaVuSans-30" d="M 2034 4250 
Q 1547 4250 1301 3770 
Q 1056 3291 1056 2328 
Q 1056 1369 1301 889 
Q 1547 409 2034 409 
Q 2525 409 2770 889 
Q 3016 1369 3016 2328 
Q 3016 3291 2770 3770 
Q 2525 4250 2034 4250 
z
M 2034 4750 
Q 2819 4750 3233 4129 
Q 3647 3509 3647 2328 
Q 3647 1150 3233 529 
Q 2819 -91 2034 -91 
Q 1250 -91 836 529 
Q 422 1150 422 2328 
Q 422 3509 836 4129 
Q 1250 4750 2034 4750 
z
" transform="scale(0.015625)"/>
        <path id="DejaVuSans-36" d="M 2113 2584 
Q 1688 2584 1439 2293 
Q 1191 2003 1191 1497 
Q 1191 994 1439 701 
Q 1688 409 2113 409 
Q 2538 409 2786 701 
Q 3034 994 3034 1497 
Q 3034 2003 2786 2293 
Q 2538 2584 2113 2584 
z
M 3366 4563 
L 3366 3988 
Q 3128 4100 2886 4159 
Q 2644 4219 2406 4219 
Q 1781 4219 1451 3797 
Q 1122 3375 1075 2522 
Q 1259 2794 1537 2939 
Q 1816 3084 2150 3084 
Q 2853 3084 3261 2657 
Q 3669 2231 3669 1497 
Q 3669 778 3244 343 
Q 2819 -91 2113 -91 
Q 1303 -91 875 529 
Q 447 1150 447 2328 
Q 447 3434 972 4092 
Q 1497 4750 2381 4750 
Q 2619 4750 2861 4703 
Q 3103 4656 3366 4563 
z
" transform="scale(0.015625)"/>
        <path id="DejaVuSans-2d" d="M 313 2009 
L 1997 2009 
L 1997 1497 
L 313 1497 
L 313 2009 
z
" transform="scale(0.015625)"/>
        <path id="DejaVuSans-31" d="M 794 531 
L 1825 531 
L 1825 4091 
L 703 3866 
L 703 4441 
L 1819 4666 
L 2450 4666 
L 2450 531 
L 3481 531 
L 3481 0 
L 794 0 
L 794 531 
z
" transform="scale(0.015625)"/>
       </defs>
       <use xlink:href="#DejaVuSans-32"/>
       <use xlink:href="#DejaVuSans-30" x="63.623047"/>
       <use xlink:href="#DejaVuSans-32" x="127.246094"/>
       <use xlink:href="#DejaVuSans-36" x="190.869141"/>
       <use xlink:href="#DejaVuSans-2d" x="254.492188"/>
       <use xlink:href="#DejaVuSans-30" x="290.576172"/>
       <use xlink:href="#DejaVuSans-31" x="354.199219"/>
       <use xlink:href="#DejaVuSans-2d" x="417.822266"/>
       <use xlink:href="#DejaVuSans-30" x="453.90625"/>
       <use xlink:href="#DejaVuSans-31" x="517.529297"/>
      </g>
     </g>
    </g>
    <g id="xtick_2">
     <g id="line2d_2">
      <g>
       <use xlink:href="#m9449561444" x="330.26014" y="512.64" style="stroke: #000000; stroke-width: 0.8"/>
      </g>
     </g>
     <g id="text_2">
      <!-- 2026-01-15 -->
      <g transform="translate(301.202327 527.238438) scale(0.1 -0.1)">
       <defs>
        <path id="DejaVuSans-35" d="M 691 4666 
L 3169 4666 
L 3169 4134 
L 1269 4134 
L 1269 2991 
Q 1406 3038 1543 3061 
Q 1681 3084 1819 3084 
Q 2600 3084 3056 2656 
Q 3513 2228 3513 1497 
Q 3513 744 3044 326 
Q 2575 -91 1722 -91 
Q 1428 -91 1123 -41 
Q 819 9 494 109 
L 494 744 
Q 775 591 1075 516 
Q 1375 441 1709 441 
Q 2250 441 2565 725 
Q 2881 1009 2881 1497 
Q 2881 1984 2565 2268 
Q 2250 2553 1709 2553 
Q 1456 2553 1204 2497 
Q 953 2441 691 2322 
L 691 4666 
z
" transform="scale(0.015625)"/>
       </defs>
       <use xlink:href="#DejaVuSans-32"/>
       <use xlink:href="#DejaVuSans-30" x="63.623047"/>
       <use xlink:href="#DejaVuSans-32" x="127.246094"/>
       <use xlink:href="#DejaVuSans-36" x="190.869141"/>
       <use xlink:href="#DejaVuSans-2d" x="254.492188"/>
       <use xlink:href="#DejaVuSans-30" x="290.576172"/>
       <use xlink:href="#DejaVuSans-31" x="354.199219"/>
       <use xlink:href="#DejaVuSans-2d" x="417.822266"/>
       <use xlink:href="#DejaVuSans-31" x="453.90625"/>
       <use xlink:href="#DejaVuSans-35" x="517.529297"/>
      </g>
     </g>
    </g>
    <g id="xtick_3">
     <g id="line2d_3">
      <g>
       <use xlink:href="#m9449561444" x="507.155245" y="512.64" style="stroke: #000000; stroke-width: 0.8"/>
      </g>
     </g>
     <g id="text_3">
      <!-- 2026-02-01 -->
      <g transform="translate(478.097432 527.238438) scale(0.1 -0.1)">
       <use xlink:href="#DejaVuSans-32"/>
       <use xlink:href="#DejaVuSans-30" x="63.623047"/>
       <use xlink:href="#DejaVuSans-32" x="127.246094"/>
       <use xlink:href="#DejaVuSans-36" x="190.869141"/>
       <use xlink:href="#DejaVuSans-2d" x="254.492188"/>
       <use xlink:href="#DejaVuSans-30" x="290.576172"/>
       <use xlink:href="#DejaVuSans-32" x="354.199219"/>
       <use xlink:href="#DejaVuSans-2d" x="417.822266"/>
       <use xlink:href="#DejaVuSans-30" x="453.90625"/>
       <use xlink:href="#DejaVuSans-31" x="517.529297"/>
      </g>
     </g>
    </g>
    <g id="xtick_4">
     <g id="line2d_4">
      <g>
       <use xlink:href="#m9449561444" x="652.833566" y="512.64" style="stroke: #000000; stroke-width: 0.8"/>
      </g>
     </g>
     <g id="text_4">
      <!-- 2026-02-15 -->
      <g transform="translate(623.775754 527.238438) scale(0.1 -0.1)">
       <use xlink:href="#DejaVuSans-32"/>
       <use xlink:href="#DejaVuSans-30" x="63.623047"/>
       <use xlink:href="#DejaVuSans-32" x="127.246094"/>
       <use xlink:href="#DejaVuSans-36" x="190.869141"/>
       <use xlink:href="#DejaVuSans-2d" x="254.492188"/>
       <use xlink:href="#DejaVuSans-30" x="290.576172"/>
       <use xlink:href="#DejaVuSans-32" x="354.199219"/>
       <use xlink:href="#DejaVuSans-2d" x="417.822266"/>
       <use xlink:href="#DejaVuSans-31" x="453.90625"/>
       <use xlink:href="#DejaVuSans-35" x="517.529297"/>
      </g>
     </g>
    </g>
    <g id="xtick_5">
     <g id="line2d_5">
      <g>
       <use xlink:href="#m9449561444" x="798.511888" y="512.64" style="stroke: #000000; stroke-width: 0.8"/>
      </g>
     </g>
     <g id="text_5">
      <!-- 2026-03-01 -->
      <g transform="translate(769.454076 527.238438) scale(0.1 -0.1)">
       <defs>
        <path id="DejaVuSans-33" d="M 2597 2516 
Q 3050 2419 3304 2112 
Q 3559 1806 3559 1356 
Q 3559 666 3084 287 
Q 2609 -91 1734 -91 
Q 1441 -91 1130 -33 
Q 819 25 488 141 
L 488 750 
Q 750 597 1062 519 
Q 1375 441 1716 441 
Q 2309 441 2620 675 
Q 2931 909 2931 1356 
Q 2931 1769 2642 2001 
Q 2353 2234 1838 2234 
L 1294 2234 
L 1294 2753 
L 1863 2753 
Q 2328 2753 2575 2939 
Q 2822 3125 2822 3475 
Q 2822 3834 2567 4026 
Q 2313 4219 1838 4219 
Q 1578 4219 1281 4162 
Q 984 4106 628 3988 
L 628 4550 
Q 988 4650 1302 4700 
Q 1616 4750 1894 4750 
Q 2613 4750 3031 4423 
Q 3450 4097 3450 3541 
Q 3450 3153 3228 2886 
Q 3006 2619 2597 2516 
z
" transform="scale(0.015625)"/>
       </defs>
       <use xlink:href="#DejaVuSans-32"/>
       <use xlink:href="#DejaVuSans-30" x="63.623047"/>
       <use xlink:href="#DejaVuSans-32" x="127.246094"/>
       <use xlink:href="#DejaVuSans-36" x="190.869141"/>
       <use xlink:href="#DejaVuSans-2d" x="254.492188"/>
       <use xlink:href="#DejaVuSans-30" x="290.576172"/>
       <use xlink:href="#DejaVuSans-33" x="354.199219"/>
       <use xlink:href="#DejaVuSans-2d" x="417.822266"/>
       <use xlink:href="#DejaVuSans-30" x="453.90625"/>
       <use xlink:href="#DejaVuSans-31" x="517.529297"/>
      </g>
     </g>
    </g>
    <g id="xtick_6">
     <g id="line2d_6">
      <g>
       <use xlink:href="#m9449561444" x="944.19021" y="512.64" style="stroke: #000000; stroke-width: 0.8"/>
      </g>
     </g>
     <g id="text_6">
      <!-- 2026-03-15 -->
      <g transform="translate(915.132397 527.238438) scale(0.1 -0.1)">
       <use xlink:href="#DejaVuSans-32"/>
       <use xlink:href="#DejaVuSans-30" x="63.623047"/>
       <use xlink:href="#DejaVuSans-32" x="127.246094"/>
       <use xlink:href="#DejaVuSans-36" x="190.869141"/>
       <use xlink:href="#DejaVuSans-2d" x="254.492188"/>
       <use xlink:href="#DejaVuSans-30" x="290.576172"/>
       <use xlink:href="#DejaVuSans-33" x="354.199219"/>
       <use xlink:href="#DejaVuSans-2d" x="417.822266"/>
       <use xlink:href="#DejaVuSans-31" x="453.90625"/>
       <use xlink:href="#DejaVuSans-35" x="517.529297"/>
      </g>
     </g>
    </g>
   </g>
   <g id="matplotlib.axis_2">
    <g id="ytick_1">
     <g id="line2d_7">
      <defs>
       <path id="m45e804e18e" d="M 0 0 
L -3.5 0 
" style="stroke: #000000; stroke-width: 0.8"/>
      </defs>
      <g>
       <use xlink:href="#m45e804e18e" x="144" y="498.918767" style="stroke: #000000; stroke-width: 0.8"/>
      </g>
     </g>
     <g id="text_7">
      <!-- 13000 -->
      <g transform="translate(105.1875 502.717985) scale(0.1 -0.1)">
       <use xlink:href="#DejaVuSans-31"/>
       <use xlink:href="#DejaVuSans-33" x="63.623047"/>
       <use xlink:href="#DejaVuSans-30" x="127.246094"/>
       <use xlink:href="#DejaVuSans-30" x="190.869141"/>
       <use xlink:href="#DejaVuSans-30" x="254.492188"/>
      </g>
     </g>
    </g>
    <g id="ytick_2">
     <g id="line2d_8">
      <g>
       <use xlink:href="#m45e804e18e" x="144" y="443.412159" style="stroke: #000000; stroke-width: 0.8"/>
      </g>
     </g>
     <g id="text_8">
      <!-- 13250 -->
      <g transform="translate(105.1875 447.211377) scale(0.1 -0.1)">
       <use xlink:href="#DejaVuSans-31"/>
       <use xlink:href="#DejaVuSans-33" x="63.623047"/>
       <use xlink:href="#DejaVuSans-32" x="127.246094"/>
       <use xlink:href="#DejaVuSans-35" x="190.869141"/>
       <use xlink:href="#DejaVuSans-30" x="254.492188"/>
      </g>
     </g>
    </g>
    <g id="ytick_3">
     <g id="line2d_9">
      <g>
       <use xlink:href="#m45e804e18e" x="144" y="387.905551" style="stroke: #000000; stroke-width: 0.8"/>
      </g>
     </g>
     <g id="text_9">
      <!-- 13500 -->
      <g transform="translate(105.1875 391.704769) scale(0.1 -0.1)">
       <use xlink:href="#DejaVuSans-31"/>
       <use xlink:href="#DejaVuSans-33" x="63.623047"/>
       <use xlink:href="#DejaVuSans-35" x="127.246094"/>
       <use xlink:href="#DejaVuSans-30" x="190.869141"/>
       <use xlink:href="#DejaVuSans-30" x="254.492188"/>
      </g>
     </g>
    </g>
    <g id="ytick_4">
     <g id="line2d_10">
      <g>
       <use xlink:href="#m45e804e18e" x="144" y="332.398943" style="stroke: #000000; stroke-width: 0.8"/>
      </g>
     </g>
     <g id="text_10">
      <!-- 13750 -->
      <g transform="translate(105.1875 336.198161) scale(0.1 -0.1)">
       <defs>
        <path id="DejaVuSans-37" d="M 525 4666 
L 3525 4666 
L 3525 4397 
L 1831 0 
L 1172 0 
L 2766 4134 
L 525 4134 
L 525 4666 
z
" transform="scale(0.015625)"/>
       </defs>
       <use xlink:href="#DejaVuSans-31"/>
       <use xlink:href="#DejaVuSans-33" x="63.623047"/>
       <use xlink:href="#DejaVuSans-37" x="127.246094"/>
       <use xlink:href="#DejaVuSans-35" x="190.869141"/>
       <use xlink:href="#DejaVuSans-30" x="254.492188"/>
      </g>
     </g>
    </g>
    <g id="ytick_5">
     <g id="line2d_11">
      <g>
       <use xlink:href="#m45e804e18e" x="144" y="276.892335" style="stroke: #000000; stroke-width: 0.8"/>
      </g>
     </g>
     <g id="text_11">
      <!-- 14000 -->
      <g transform="translate(105.1875 280.691554) scale(0.1 -0.1)">
       <defs>
        <path id="DejaVuSans-34" d="M 2419 4116 
L 825 1625 
L 2419 1625 
L 2419 4116 
z
M 2253 4666 
L 3047 4666 
L 3047 1625 
L 3713 1625 
L 3713 1100 
L 3047 1100 
L 3047 0 
L 2419 0 
L 2419 1100 
L 313 1100 
L 313 1709 
L 2253 4666 
z
" transform="scale(0.015625)"/>
       </defs>
       <use xlink:href="#DejaVuSans-31"/>
       <use xlink:href="#DejaVuSans-34" x="63.623047"/>
       <use xlink:href="#DejaVuSans-30" x="127.246094"/>
       <use xlink:href="#DejaVuSans-30" x="190.869141"/>
       <use xlink:href="#DejaVuSans-30" x="254.492188"/>
      </g>
     </g>
    </g>
    <g id="ytick_6">
     <g id="line2d_12">
      <g>
       <use xlink:href="#m45e804e18e" x="144" y="221.385727" style="stroke: #000000; stroke-width: 0.8"/>
      </g>
     </g>
     <g id="text_12">
      <!-- 14250 -->
      <g transform="translate(105.1875 225.184946) scale(0.1 -0.1)">
       <use xlink:href="#DejaVuSans-31"/>
       <use xlink:href="#DejaVuSans-34" x="63.623047"/>
       <use xlink:href="#DejaVuSans-32" x="127.246094"/>
       <use xlink:href="#DejaVuSans-35" x="190.869141"/>
       <use xlink:href="#DejaVuSans-30" x="254.492188"/>
      </g>
     </g>
    </g>
    <g id="ytick_7">
     <g id="line2d_13">
      <g>
       <use xlink:href="#m45e804e18e" x="144" y="165.879119" style="stroke: #000000; stroke-width: 0.8"/>
      </g>
     </g>
     <g id="text_13">
      <!-- 14500 -->
      <g transform="translate(105.1875 169.678338) scale(0.1 -0.1)">
       <use xlink:href="#DejaVuSans-31"/>
       <use xlink:href="#DejaVuSans-34" x="63.623047"/>
       <use xlink:href="#DejaVuSans-35" x="127.246094"/>
       <use xlink:href="#DejaVuSans-30" x="190.869141"/>
       <use xlink:href="#DejaVuSans-30" x="254.492188"/>
      </g>
     </g>
    </g>
    <g id="ytick_8">
     <g id="line2d_14">
      <g>
       <use xlink:href="#m45e804e18e" x="144" y="110.372511" style="stroke: #000000; stroke-width: 0.8"/>
      </g>
     </g>
     <g id="text_14">
      <!-- 14750 -->
      <g transform="translate(105.1875 114.17173) scale(0.1 -0.1)">
       <use xlink:href="#DejaVuSans-31"/>
       <use xlink:href="#DejaVuSans-34" x="63.623047"/>
       <use xlink:href="#DejaVuSans-37" x="127.246094"/>
       <use xlink:href="#DejaVuSans-35" x="190.869141"/>
       <use xlink:href="#DejaVuSans-30" x="254.492188"/>
      </g>
     </g>
    </g>
   </g>
   <g id="line2d_15">
    <path d="M 184.581818 492.48 
L 194.987413 488.705551 
L 205.393007 482.488811 
L 215.798601 480.04652 
L 226.204196 478.936388 
L 236.60979 475.161938 
L 247.015385 471.831542 
L 257.420979 463.172511 
L 267.826573 458.731982 
L 278.232168 456.733744 
L 288.637762 456.289692 
L 299.043357 447.852687 
L 309.448951 442.302026 
L 319.854545 439.415683 
L 330.26014 432.310837 
L 340.665734 422.7637 
L 351.071329 421.875595 
L 361.476923 419.433304 
L 371.882517 413.43859 
L 382.288112 410.774273 
L 392.693706 399.672952 
L 403.099301 393.678238 
L 413.504895 388.349604 
L 423.91049 381.910837 
L 434.316084 381.022731 
L 444.721678 380.134626 
L 455.127273 372.141674 
L 465.532867 361.040352 
L 475.938462 353.935507 
L 486.344056 347.940793 
L 496.74965 347.052687 
L 507.155245 344.610396 
L 517.560839 340.169868 
L 527.966434 334.841233 
L 538.372028 333.065022 
L 548.777622 326.848282 
L 559.183217 323.073833 
L 569.588811 320.631542 
L 579.994406 311.972511 
L 590.4 309.308194 
L 600.805594 301.759295 
L 611.211189 297.318767 
L 621.616783 294.654449 
L 632.022378 290.213921 
L 642.427972 288.215683 
L 652.833566 280.000705 
L 663.239161 269.343436 
L 673.644755 267.345198 
L 684.05035 262.90467 
L 694.455944 258.464141 
L 704.861538 254.467665 
L 715.267133 250.249163 
L 725.672727 243.58837 
L 736.078322 236.927577 
L 746.483916 227.380441 
L 756.88951 222.717885 
L 767.295105 209.840352 
L 777.700699 204.733744 
L 788.106294 202.069427 
L 798.511888 197.628899 
L 808.917483 191.634185 
L 819.323077 187.193656 
L 829.728671 180.532863 
L 840.134266 176.758414 
L 850.53986 172.095859 
L 860.945455 168.099383 
L 871.351049 165.21304 
L 881.756643 150.337269 
L 892.162238 146.118767 
L 902.567832 136.57163 
L 912.973427 129.910837 
L 923.379021 125.470308 
L 933.784615 121.473833 
L 944.19021 119.253568 
L 954.595804 114.591013 
L 965.001399 107.708194 
L 975.406993 102.823612 
L 985.812587 93.498502 
L 996.218182 89.28 
" clip-path="url(#p3b395ef1ab)" style="fill: none; stroke: #1f77b4; stroke-width: 1.5; stroke-linecap: square"/>
   </g>
   <g id="patch_3">
    <path d="M 144 512.64 
L 144 69.12 
" style="fill: none; stroke: #000000; stroke-width: 0.8; stroke-linejoin: miter; stroke-linecap: square"/>
   </g>
   <g id="patch_4">
    <path d="M 1036.8 512.64 
L 1036.8 69.12 
" style="fill: none; stroke: #000000; stroke-width: 0.8; stroke-linejoin: miter; stroke-linecap: square"/>
   </g>
   <g id="patch_5">
    <path d="M 144 512.64 
L 1036.8 512.64 
" style="fill: none; stroke: #000000; stroke-width: 0.8; stroke-linejoin: miter; stroke-linecap: square"/>
   </g>
   <g id="patch_6">
    <path d="M 144 69.12 
L 1036.8 69.12 
" style="fill: none; stroke: #000000; stroke-width: 0.8; stroke-linejoin: miter; stroke-linecap: square"/>
   </g>
   <g id="text_15">
    <!-- Number of AEDs in the OpenStreetMap database in Poland from 2026-01-01, day by day. As at: 2026-03-20 -->
    <g transform="translate(144 63.12) scale(0.14 -0.14)">
     <defs>
      <path id="DejaVuSans-4e" d="M 628 4666 
L 1478 4666 
L 3547 763 
L 3547 4666 
L 4159 4666 
L 4159 0 
L 3309 0 
L 1241 3903 
L 1241 0 
L 628 0 
L 628 4666 
z
" transform="scale(0.015625)"/>
      <path id="DejaVuSans-75" d="M 544 1381 
L 544 3500 
L 1119 3500 
L 1119 1403 
Q 1119 906 1312 657 
Q 1506 409 1894 409 
Q 2359 409 2629 706 
Q 2900 1003 2900 1516 
L 2900 3500 
L 3475 3500 
L 3475 0 
L 2900 0 
L 2900 538 
Q 2691 219 2414 64 
Q 2138 -91 1772 -91 
Q 1169 -91 856 284 
Q 544 659 544 1381 
z
M 1991 3584 
L 1991 3584 
z
" transform="scale(0.015625)"/>
      <path id="DejaVuSans-6d" d="M 3328 2828 
Q 3544 3216 3844 3400 
Q 4144 3584 4550 3584 
Q 5097 3584 5394 3201 
Q 5691 2819 5691 2113 
L 5691 0 
L 5113 0 
L 5113 2094 
Q 5113 2597 4934 2840 
Q 4756 3084 4391 3084 
Q 3944 3084 3684 2787 
Q 3425 2491 3425 1978 
L 3425 0 
L 2847 0 
L 2847 2094 
Q 2847 2600 2669 2842 
Q 2491 3084 2119 3084 
Q 1678 3084 1418 2786 
Q 1159 2488 1159 1978 
L 1159 0 
L 581 0 
L 581 3500 
L 1159 3500 
L 1159 2956 
Q 1356 3278 1631 3431 
Q 1906 3584 2284 3584 
Q 2666 3584 2933 3390 
Q 3200 3197 3328 2828 
z
" transform="scale(0.015625)"/>
      <path id="DejaVuSans-62" d="M 3116 1747 
Q 3116 2381 2855 2742 
Q 2594 3103 2138 3103 
Q 1681 3103 1420 2742 
Q 1159 2381 1159 1747 
Q 1159 1113 1420 752 
Q 1681 391 2138 391 
Q 2594 391 2855 752 
Q 3116 1113 3116 1747 
z
M 1159 2969 
Q 1341 3281 1617 3432 
Q 1894 3584 2278 3584 
Q 2916 3584 3314 3078 
Q 3713 2572 3713 1747 
Q 3713 922 3314 415 
Q 2916 -91 2278 -91 
Q 1894 -91 1617 61 
Q 1341 213 1159 525 
L 1159 0 
L 581 0 
L 581 4863 
L 1159 4863 
L 1159 2969 
z
" transform="scale(0.015625)"/>
      <path id="DejaVuSans-65" d="M 3597 1894 
L 3597 1613 
L 953 1613 
Q 991 1019 1311 708 
Q 1631 397 2203 397 
Q 2534 397 2845 478 
Q 3156 559 3463 722 
L 3463 178 
Q 3153 47 2828 -22 
Q 2503 -91 2169 -91 
Q 1331 -91 842 396 
Q 353 884 353 1716 
Q 353 2575 817 3079 
Q 1281 3584 2069 3584 
Q 2775 3584 3186 3129 
Q 3597 2675 3597 1894 
z
M 3022 2063 
Q 3016 2534 2758 2815 
Q 2500 3097 2075 3097 
Q 1594 3097 1305 2825 
Q 1016 2553 972 2059 
L 3022 2063 
z
" transform="scale(0.015625)"/>
      <path id="DejaVuSans-72" d="M 2631 2963 
Q 2534 3019 2420 3045 
Q 2306 3072 2169 3072 
Q 1681 3072 1420 2755 
Q 1159 2438 1159 1844 
L 1159 0 
L 581 0 
L 581 3500 
L 1159 3500 
L 1159 2956 
Q 1341 3275 1631 3429 
Q 1922 3584 2338 3584 
Q 2397 3584 2469 3576 
Q 2541 3569 2628 3553 
L 2631 2963 
z
" transform="scale(0.015625)"/>
      <path id="DejaVuSans-20" transform="scale(0.015625)"/>
      <path id="DejaVuSans-6f" d="M 1959 3097 
Q 1497 3097 1228 2736 
Q 959 2375 959 1747 
Q 959 1119 1226 758 
Q 1494 397 1959 397 
Q 2419 397 2687 759 
Q 2956 1122 2956 1747 
Q 2956 2369 2687 2733 
Q 2419 3097 1959 3097 
z
M 1959 3584 
Q 2709 3584 3137 3096 
Q 3566 2609 3566 1747 
Q 3566 888 3137 398 
Q 2709 -91 1959 -91 
Q 1206 -91 779 398 
Q 353 888 353 1747 
Q 353 2609 779 3096 
Q 1206 3584 1959 3584 
z
" transform="scale(0.015625)"/>
      <path id="DejaVuSans-66" d="M 2375 4863 
L 2375 4384 
L 1825 4384 
Q 1516 4384 1395 4259 
Q 1275 4134 1275 3809 
L 1275 3500 
L 2222 3500 
L 2222 3053 
L 1275 3053 
L 1275 0 
L 697 0 
L 697 3053 
L 147 3053 
L 147 3500 
L 697 3500 
L 697 3744 
Q 697 4328 969 4595 
Q 1241 4863 1831 4863 
L 2375 4863 
z
" transform="scale(0.015625)"/>
      <path id="DejaVuSans-41" d="M 2188 4044 
L 1331 1722 
L 3047 1722 
L 2188 4044 
z
M 1831 4666 
L 2547 4666 
L 4325 0 
L 3669 0 
L 3244 1197 
L 1141 1197 
L 716 0 
L 50 0 
L 1831 4666 
z
" transform="scale(0.015625)"/>
      <path id="DejaVuSans-45" d="M 628 4666 
L 3578 4666 
L 3578 4134 
L 1259 4134 
L 1259 2753 
L 3481 2753 
L 3481 2222 
L 1259 2222 
L 1259 531 
L 3634 531 
L 3634 0 
L 628 0 
L 628 4666 
z
" transform="scale(0.015625)"/>
      <path id="DejaVuSans-44" d="M 1259 4147 
L 1259 519 
L 2022 519 
Q 2988 519 3436 956 
Q 3884 1394 3884 2338 
Q 3884 3275 3436 3711 
Q 2988 4147 2022 4147 
L 1259 4147 
z
M 628 4666 
L 1925 4666 
Q 3281 4666 3915 4102 
Q 4550 3538 4550 2338 
Q 4550 1131 3912 565 
Q 3275 0 1925 0 
L 628 0 
L 628 4666 
z
" transform="scale(0.015625)"/>
      <path id="DejaVuSans-73" d="M 2834 3397 
L 2834 2853 
Q 2591 2978 2328 3040 
Q 2066 3103 1784 3103 
Q 1356 3103 1142 2972 
Q 928 2841 928 2578 
Q 928 2378 1081 2264 
Q 1234 2150 1697 2047 
L 1894 2003 
Q 2506 1872 2764 1633 
Q 3022 1394 3022 966 
Q 3022 478 2636 193 
Q 2250 -91 1575 -91 
Q 1294 -91 989 -36 
Q 684 19 347 128 
L 347 722 
Q 666 556 975 473 
Q 1284 391 1588 391 
Q 1994 391 2212 530 
Q 2431 669 2431 922 
Q 2431 1156 2273 1281 
Q 2116 1406 1581 1522 
L 1381 1569 
Q 847 1681 609 1914 
Q 372 2147 372 2553 
Q 372 3047 722 3315 
Q 1072 3584 1716 3584 
Q 2034 3584 2315 3537 
Q 2597 3491 2834 3397 
z
" transform="scale(0.015625)"/>
      <path id="DejaVuSans-69" d="M 603 3500 
L 1178 3500 
L 1178 0 
L 603 0 
L 603 3500 
z
M 603 4863 
L 1178 4863 
L 1178 4134 
L 603 4134 
L 603 4863 
z
" transform="scale(0.015625)"/>
      <path id="DejaVuSans-6e" d="M 3513 2113 
L 3513 0 
L 2938 0 
L 2938 2094 
Q 2938 2591 2744 2837 
Q 2550 3084 2163 3084 
Q 1697 3084 1428 2787 
Q 1159 2491 1159 1978 
L 1159 0 
L 581 0 
L 581 3500 
L 1159 3500 
L 1159 2956 
Q 1366 3272 1645 3428 
Q 1925 3584 2291 3584 
Q 2894 3584 3203 3211 
Q 3513 2838 3513 2113 
z
" transform="scale(0.015625)"/>
      <path id="DejaVuSans-74" d="M 1172 4494 
L 1172 3500 
L 2356 3500 
L 2356 3053 
L 1172 3053 
L 1172 1153 
Q 1172 725 1289 603 
Q 1406 481 1766 481 
L 2356 481 
L 2356 0 
L 1766 0 
Q 1100 0 847 248 
Q 594 497 594 1153 
L 594 3053 
L 172 3053 
L 172 3500 
L 594 3500 
L 594 4494 
L 1172 4494 
z
" transform="scale(0.015625)"/>
      <path id="DejaVuSans-68" d="M 3513 2113 
L 3513 0 
L 2938 0 
L 2938 2094 
Q 2938 2591 2744 2837 
Q 2550 3084 2163 3084 
Q 1697 3084 1428 2787 
Q 1159 2491 1159 1978 
L 1159 0 
L 581 0 
L 581 4863 
L 1159 4863 
L 1159 2956 
Q 1366 3272 1645 3428 
Q 1925 3584 2291 3584 
Q 2894 3584 3203 3211 
Q 3513 2838 3513 2113 
z
" transform="scale(0.015625)"/>
      <path id="DejaVuSans-4f" d="M 2522 4238 
Q 1834 4238 1429 3725 
Q 1025 3213 1025 2328 
Q 1025 1447 1429 934 
Q 1834 422 2522 422 
Q 3209 422 3611 934 
Q 4013 1447 4013 2328 
Q 4013 3213 3611 3725 
Q 3209 4238 2522 4238 
z
M 2522 4750 
Q 3503 4750 4090 4092 
Q 4678 3434 4678 2328 
Q 4678 1225 4090 567 
Q 3503 -91 2522 -91 
Q 1538 -91 948 565 
Q 359 1222 359 2328 
Q 359 3434 948 4092 
Q 1538 4750 2522 4750 
z
" transform="scale(0.015625)"/>
      <path id="DejaVuSans-70" d="M 1159 525 
L 1159 -1331 
L 581 -1331 
L 581 3500 
L 1159 3500 
L 1159 2969 
Q 1341 3281 1617 3432 
Q 1894 3584 2278 3584 
Q 2916 3584 3314 3078 
Q 3713 2572 3713 1747 
Q 3713 922 3314 415 
Q 2916 -91 2278 -91 
Q 1894 -91 1617 61 
Q 1341 213 1159 525 
z
M 3116 1747 
Q 3116 2381 2855 2742 
Q 2594 3103 2138 3103 
Q 1681 3103 1420 2742 
Q 1159 2381 1159 1747 
Q 1159 1113 1420 752 
Q 1681 391 2138 391 
Q 2594 391 2855 752 
Q 3116 1113 3116 1747 
z
" transform="scale(0.015625)"/>
      <path id="DejaVuSans-53" d="M 3425 4513 
L 3425 3897 
Q 3066 4069 2747 4153 
Q 2428 4238 2131 4238 
Q 1616 4238 1336 4038 
Q 1056 3838 1056 3469 
Q 1056 3159 1242 3001 
Q 1428 2844 1947 2747 
L 2328 2669 
Q 3034 2534 3370 2195 
Q 3706 1856 3706 1288 
Q 3706 609 3251 259 
Q 2797 -91 1919 -91 
Q 1588 -91 1214 -16 
Q 841 59 441 206 
L 441 856 
Q 825 641 1194 531 
Q 1563 422 1919 422 
Q 2459 422 2753 634 
Q 3047 847 3047 1241 
Q 3047 1584 2836 1778 
Q 2625 1972 2144 2069 
L 1759 2144 
Q 1053 2284 737 2584 
Q 422 2884 422 3419 
Q 422 4038 858 4394 
Q 1294 4750 2059 4750 
Q 2388 4750 2728 4690 
Q 3069 4631 3425 4513 
z
" transform="scale(0.015625)"/>
      <path id="DejaVuSans-4d" d="M 628 4666 
L 1569 4666 
L 2759 1491 
L 3956 4666 
L 4897 4666 
L 4897 0 
L 4281 0 
L 4281 4097 
L 3078 897 
L 2444 897 
L 1241 4097 
L 1241 0 
L 628 0 
L 628 4666 
z
" transform="scale(0.015625)"/>
      <path id="DejaVuSans-61" d="M 2194 1759 
Q 1497 1759 1228 1600 
Q 959 1441 959 1056 
Q 959 750 1161 570 
Q 1363 391 1709 391 
Q 2188 391 2477 730 
Q 2766 1069 2766 1631 
L 2766 1759 
L 2194 1759 
z
M 3341 1997 
L 3341 0 
L 2766 0 
L 2766 531 
Q 2569 213 2275 61 
Q 1981 -91 1556 -91 
Q 1019 -91 701 211 
Q 384 513 384 1019 
Q 384 1609 779 1909 
Q 1175 2209 1959 2209 
L 2766 2209 
L 2766 2266 
Q 2766 2663 2505 2880 
Q 2244 3097 1772 3097 
Q 1472 3097 1187 3025 
Q 903 2953 641 2809 
L 641 3341 
Q 956 3463 1253 3523 
Q 1550 3584 1831 3584 
Q 2591 3584 2966 3190 
Q 3341 2797 3341 1997 
z
" transform="scale(0.015625)"/>
      <path id="DejaVuSans-64" d="M 2906 2969 
L 2906 4863 
L 3481 4863 
L 3481 0 
L 2906 0 
L 2906 525 
Q 2725 213 2448 61 
Q 2172 -91 1784 -91 
Q 1150 -91 751 415 
Q 353 922 353 1747 
Q 353 2572 751 3078 
Q 1150 3584 1784 3584 
Q 2172 3584 2448 3432 
Q 2725 3281 2906 2969 
z
M 947 1747 
Q 947 1113 1208 752 
Q 1469 391 1925 391 
Q 2381 391 2643 752 
Q 2906 1113 2906 1747 
Q 2906 2381 2643 2742 
Q 2381 3103 1925 3103 
Q 1469 3103 1208 2742 
Q 947 2381 947 1747 
z
" transform="scale(0.015625)"/>
      <path id="DejaVuSans-50" d="M 1259 4147 
L 1259 2394 
L 2053 2394 
Q 2494 2394 2734 2622 
Q 2975 2850 2975 3272 
Q 2975 3691 2734 3919 
Q 2494 4147 2053 4147 
L 1259 4147 
z
M 628 4666 
L 2053 4666 
Q 2838 4666 3239 4311 
Q 3641 3956 3641 3272 
Q 3641 2581 3239 2228 
Q 2838 1875 2053 1875 
L 1259 1875 
L 1259 0 
L 628 0 
L 628 4666 
z
" transform="scale(0.015625)"/>
      <path id="DejaVuSans-6c" d="M 603 4863 
L 1178 4863 
L 1178 0 
L 603 0 
L 603 4863 
z
" transform="scale(0.015625)"/>
      <path id="DejaVuSans-2c" d="M 750 794 
L 1409 794 
L 1409 256 
L 897 -744 
L 494 -744 
L 750 256 
L 750 794 
z
" transform="scale(0.015625)"/>
      <path id="DejaVuSans-79" d="M 2059 -325 
Q 1816 -950 1584 -1140 
Q 1353 -1331 966 -1331 
L 506 -1331 
L 506 -850 
L 844 -850 
Q 1081 -850 1212 -737 
Q 1344 -625 1503 -206 
L 1606 56 
L 191 3500 
L 800 3500 
L 1894 763 
L 2988 3500 
L 3597 3500 
L 2059 -325 
z
" transform="scale(0.015625)"/>
      <path id="DejaVuSans-2e" d="M 684 794 
L 1344 794 
L 1344 0 
L 684 0 
L 684 794 
z
" transform="scale(0.015625)"/>
      <path id="DejaVuSans-3a" d="M 750 794 
L 1409 794 
L 1409 0 
L 750 0 
L 750 794 
z
M 750 3309 
L 1409 3309 
L 1409 2516 
L 750 2516 
L 750 3309 
z
" transform="scale(0.015625)"/>
     </defs>
     <use xlink:href="#DejaVuSans-4e"/>
     <use xlink:href="#DejaVuSans-75" x="74.804688"/>
     <use xlink:href="#DejaVuSans-6d" x="138.183594"/>
     <use xlink:href="#DejaVuSans-62" x="235.595703"/>
     <use xlink:href="#DejaVuSans-65" x="299.072266"/>
     <use xlink:href="#DejaVuSans-72" x="360.595703"/>
     <use xlink:href="#DejaVuSans-20" x="401.708984"/>
     <use xlink:href="#DejaVuSans-6f" x="433.496094"/>
     <use xlink:href="#DejaVuSans-66" x="494.677734"/>
     <use xlink:href="#DejaVuSans-20" x="529.882812"/>
     <use xlink:href="#DejaVuSans-41" x="561.669922"/>
     <use xlink:href="#DejaVuSans-45" x="630.078125"/>
     <use xlink:href="#DejaVuSans-44" x="693.261719"/>
     <use xlink:href="#DejaVuSans-73" x="770.263672"/>
     <use xlink:href="#DejaVuSans-20" x="822.363281"/>
     <use xlink:href="#DejaVuSans-69" x="854.150391"/>
     <use xlink:href="#DejaVuSans-6e" x="881.933594"/>
     <use xlink:href="#DejaVuSans-20" x="945.3125"/>
     <use xlink:href="#DejaVuSans-74" x="977.099609"/>
     <use xlink:href="#DejaVuSans-68" x="1016.308594"/>
     <use xlink:href="#DejaVuSans-65" x="1079.6875"/>
     <use xlink:href="#DejaVuSans-20" x="1141.210938"/>
     <use xlink:href="#DejaVuSans-4f" x="1172.998047"/>
     <use xlink:href="#DejaVuSans-70" x="1251.708984"/>
     <use xlink:href="#DejaVuSans-65" x="1315.185547"/>
     <use xlink:href="#DejaVuSans-6e" x="1376.708984"/>
     <use xlink:href="#DejaVuSans-53" x="1440.087891"/>
     <use xlink:href="#DejaVuSans-74" x="1503.564453"/>
     <use xlink:href="#DejaVuSans-72" x="1542.773438"/>
     <use xlink:href="#DejaVuSans-65" x="1581.636719"/>
     <use xlink:href="#DejaVuSans-65" x="1643.160156"/>
     <use xlink:href="#DejaVuSans-74" x="1704.683594"/>
     <use xlink:href="#DejaVuSans-4d" x="1743.892578"/>
     <use xlink:href="#DejaVuSans-61" x="1830.171875"/>
     <use xlink:href="#DejaVuSans-70" x="1891.451172"/>
     <use xlink:href="#DejaVuSans-20" x="1954.927734"/>
     <use xlink:href="#DejaVuSans-64" x="1986.714844"/>
     <use xlink:href="#DejaVuSans-61" x="2050.191406"/>
     <use xlink:href="#DejaVuSans-74" x="2111.470703"/>
     <use xlink:href="#DejaVuSans-61" x="2150.679688"/>
     <use xlink:href="#DejaVuSans-62" x="2211.958984"/>
     <use xlink:href="#DejaVuSans-61" x="2275.435547"/>
     <use xlink:href="#DejaVuSans-73" x="2336.714844"/>
     <use xlink:href="#DejaVuSans-65" x="2388.814453"/>
     <use xlink:href="#DejaVuSans-20" x="2450.337891"/>
     <use xlink:href="#DejaVuSans-69" x="2482.125"/>
     <use xlink:href="#DejaVuSans-6e" x="2509.908203"/>
     <use xlink:href="#DejaVuSans-20" x="2573.287109"/>
     <use xlink:href="#DejaVuSans-50" x="2605.074219"/>
     <use xlink:href="#DejaVuSans-6f" x="2661.751953"/>
     <use xlink:href="#DejaVuSans-6c" x="2722.933594"/>
     <use xlink:href="#DejaVuSans-61" x="2750.716797"/>
     <use xlink:href="#DejaVuSans-6e" x="2811.996094"/>
     <use xlink:href="#DejaVuSans-64" x="2875.375"/>
     <use xlink:href="#DejaVuSans-20" x="2938.851562"/>
     <use xlink:href="#DejaVuSans-66" x="2970.638672"/>
     <use xlink:href="#DejaVuSans-72" x="3005.84375"/>
     <use xlink:href="#DejaVuSans-6f" x="3044.707031"/>
     <use xlink:href="#DejaVuSans-6d" x="3105.888672"/>
     <use xlink:href="#DejaVuSans-20" x="3203.300781"/>
     <use xlink:href="#DejaVuSans-32" x="3235.087891"/>
     <use xlink:href="#DejaVuSans-30" x="3298.710938"/>
     <use xlink:href="#DejaVuSans-32" x="3362.333984"/>
     <use xlink:href="#DejaVuSans-36" x="3425.957031"/>
     <use xlink:href="#DejaVuSans-2d" x="3489.580078"/>
     <use xlink:href="#DejaVuSans-30" x="3525.664062"/>
     <use xlink:href="#DejaVuSans-31" x="3589.287109"/>
     <use xlink:href="#DejaVuSans-2d" x="3652.910156"/>
     <use xlink:href="#DejaVuSans-30" x="3688.994141"/>
     <use xlink:href="#DejaVuSans-31" x="3752.617188"/>
     <use xlink:href="#DejaVuSans-2c" x="3816.240234"/>
     <use xlink:href="#DejaVuSans-20" x="3848.027344"/>
     <use xlink:href="#DejaVuSans-64" x="3879.814453"/>
     <use xlink:href="#DejaVuSans-61" x="3943.291016"/>
     <use xlink:href="#DejaVuSans-79" x="4004.570312"/>
     <use xlink:href="#DejaVuSans-20" x="4063.75"/>
     <use xlink:href="#DejaVuSans-62" x="4095.537109"/>
     <use xlink:href="#DejaVuSans-79" x="4159.013672"/>
     <use xlink:href="#DejaVuSans-20" x="4218.193359"/>
     <use xlink:href="#DejaVuSans-64" x="4249.980469"/>
     <use xlink:href="#DejaVuSans-61" x="4313.457031"/>
     <use xlink:href="#DejaVuSans-79" x="4374.736328"/>
     <use xlink:href="#DejaVuSans-2e" x="4419.666016"/>
     <use xlink:href="#DejaVuSans-20" x="4451.453125"/>
     <use xlink:href="#DejaVuSans-41" x="4483.240234"/>
     <use xlink:href="#DejaVuSans-73" x="4551.648438"/>
     <use xlink:href="#DejaVuSans-20" x="4603.748047"/>
     <use xlink:href="#DejaVuSans-61" x="4635.535156"/>
     <use xlink:href="#DejaVuSans-74" x="4696.814453"/>
     <use xlink:href="#DejaVuSans-3a" x="4736.023438"/>
     <use xlink:href="#DejaVuSans-20" x="4769.714844"/>
     <use xlink:href="#DejaVuSans-32" x="4801.501953"/>
     <use xlink:href="#DejaVuSans-30" x="4865.125"/>
     <use xlink:href="#DejaVuSans-32" x="4928.748047"/>
     <use xlink:href="#DejaVuSans-36" x="4992.371094"/>
     <use xlink:href="#DejaVuSans-2d" x="5055.994141"/>
     <use xlink:href="#DejaVuSans-30" x="5092.078125"/>
     <use xlink:href="#DejaVuSans-33" x="5155.701172"/>
     <use xlink:href="#DejaVuSans-2d" x="5219.324219"/>
     <use xlink:href="#DejaVuSans-32" x="5255.408203"/>
     <use xlink:href="#DejaVuSans-30" x="5319.03125"/>
    </g>
   </g>
  </g>
 </g>
 <defs>
  <clipPath id="p3b395ef1ab">
   <rect x="144" y="69.12" width="892.8" height="443.52"/>
  </clipPath>
 </defs>
</svg>
