<?xml version="1.0" encoding="utf-8" standalone="no"?>
<!DOCTYPE svg PUBLIC "-//W3C//DTD SVG 1.1//EN"
  "http://www.w3.org/Graphics/SVG/1.1/DTD/svg11.dtd">
<svg xmlns:xlink="http://www.w3.org/1999/xlink" width="1152pt" height="576pt" viewBox="0 0 1152 576" xmlns="http://www.w3.org/2000/svg" version="1.1">
 <metadata>
  <rdf:RDF xmlns:dc="http://purl.org/dc/elements/1.1/" xmlns:cc="http://creativecommons.org/ns#" xmlns:rdf="http://www.w3.org/1999/02/22-rdf-syntax-ns#">
   <cc:Work>
    <dc:type rdf:resource="http://purl.org/dc/dcmitype/StillImage"/>
    <dc:date>1980-01-01T00:00:00+00:00</dc:date>
    <dc:format>image/svg+xml</dc:format>
    <dc:creator>
     <cc:Agent>
      <dc:title>Matplotlib v3.9.1, https://matplotlib.org/</dc:title>
     </cc:Agent>
    </dc:creator>
   </cc:Work>
  </rdf:RDF>
 </metadata>
 <defs>
  <style type="text/css">*{stroke-linejoin: round; stroke-linecap: butt}</style>
 </defs>
 <g id="figure_1">
  <g id="patch_1">
   <path d="M 0 576 
L 1152 576 
L 1152 0 
L 0 0 
z
" style="fill: #ffffff"/>
  </g>
  <g id="axes_1">
   <g id="patch_2">
    <path d="M 144 512.64 
L 1036.8 512.64 
L 1036.8 69.12 
L 144 69.12 
z
" style="fill: #ffffff"/>
   </g>
   <g id="PathCollection_1">
    <path d="M 184.581818 496.352983 
C 185.608945 496.352983 186.594142 495.944901 187.320431 495.218613 
C 188.04672 494.492324 188.454802 493.507127 188.454802 492.48 
C 188.454802 491.452873 188.04672 490.467676 187.320431 489.741387 
C 186.594142 489.015099 185.608945 488.607017 184.581818 488.607017 
C 183.554691 488.607017 182.569494 489.015099 181.843205 489.741387 
C 181.116917 490.467676 180.708835 491.452873 180.708835 492.48 
C 180.708835 493.507127 181.116917 494.492324 181.843205 495.218613 
C 182.569494 495.944901 183.554691 496.352983 184.581818 496.352983 
z
" clip-path="url(#p80a5266313)" style="fill: #1f77b4; fill-opacity: 0.3; stroke: #1f77b4; stroke-opacity: 0.3"/>
    <path d="M 197.263636 494.30119 
C 198.992549 494.30119 200.650883 493.614286 201.873409 492.39176 
C 203.095934 491.169234 203.782839 489.5109 203.782839 487.781988 
C 203.782839 486.053075 203.095934 484.394741 201.873409 483.172215 
C 200.650883 481.94969 198.992549 481.262785 197.263636 481.262785 
C 195.534724 481.262785 193.87639 481.94969 192.653864 483.172215 
C 191.431338 484.394741 190.744434 486.053075 190.744434 487.781988 
C 190.744434 489.5109 191.431338 491.169234 192.653864 492.39176 
C 193.87639 493.614286 195.534724 494.30119 197.263636 494.30119 
z
" clip-path="url(#p80a5266313)" style="fill: #1f77b4; fill-opacity: 0.3; stroke: #1f77b4; stroke-opacity: 0.3"/>
    <path d="M 209.945455 488.410685 
C 212.164303 488.410685 214.292572 487.529127 215.861534 485.960165 
C 217.430497 484.391202 218.312055 482.262933 218.312055 480.044085 
C 218.312055 477.825237 217.430497 475.696968 215.861534 474.128005 
C 214.292572 472.559043 212.164303 471.677485 209.945455 471.677485 
C 207.726606 471.677485 205.598337 472.559043 204.029375 474.128005 
C 202.460412 475.696968 201.578854 477.825237 201.578854 480.044085 
C 201.578854 482.262933 202.460412 484.391202 204.029375 485.960165 
C 205.598337 487.529127 207.726606 488.410685 209.945455 488.410685 
z
" clip-path="url(#p80a5266313)" style="fill: #1f77b4; fill-opacity: 0.3; stroke: #1f77b4; stroke-opacity: 0.3"/>
    <path d="M 222.627273 482.248239 
C 224.01801 482.248239 225.351973 481.695693 226.335372 480.712294 
C 227.318771 479.728894 227.871317 478.394931 227.871317 477.004195 
C 227.871317 475.613458 227.318771 474.279495 226.335372 473.296095 
C 225.351973 472.312696 224.01801 471.76015 222.627273 471.76015 
C 221.236536 471.76015 219.902573 472.312696 218.919173 473.296095 
C 217.935774 474.279495 217.383228 475.613458 217.383228 477.004195 
C 217.383228 478.394931 217.935774 479.728894 218.919173 480.712294 
C 219.902573 481.695693 221.236536 482.248239 222.627273 482.248239 
z
" clip-path="url(#p80a5266313)" style="fill: #1f77b4; fill-opacity: 0.3; stroke: #1f77b4; stroke-opacity: 0.3"/>
    <path d="M 235.309091 479.15796 
C 236.246725 479.15796 237.146083 478.785434 237.809091 478.122426 
C 238.472099 477.459419 238.844625 476.560061 238.844625 475.622426 
C 238.844625 474.684792 238.472099 473.785434 237.809091 473.122426 
C 237.146083 472.459419 236.246725 472.086892 235.309091 472.086892 
C 234.371456 472.086892 233.472099 472.459419 232.809091 473.122426 
C 232.146083 473.785434 231.773557 474.684792 231.773557 475.622426 
C 231.773557 476.560061 232.146083 477.459419 232.809091 478.122426 
C 233.472099 478.785434 234.371456 479.15796 235.309091 479.15796 
z
" clip-path="url(#p80a5266313)" style="fill: #1f77b4; fill-opacity: 0.3; stroke: #1f77b4; stroke-opacity: 0.3"/>
    <path d="M 247.990909 477.443616 
C 249.719822 477.443616 251.378155 476.756712 252.600681 475.534186 
C 253.823207 474.31166 254.510111 472.653327 254.510111 470.924414 
C 254.510111 469.195501 253.823207 467.537168 252.600681 466.314642 
C 251.378155 465.092116 249.719822 464.405212 247.990909 464.405212 
C 246.261996 464.405212 244.603663 465.092116 243.381137 466.314642 
C 242.158611 467.537168 241.471707 469.195501 241.471707 470.924414 
C 241.471707 472.653327 242.158611 474.31166 243.381137 475.534186 
C 244.603663 476.756712 246.261996 477.443616 247.990909 477.443616 
z
" clip-path="url(#p80a5266313)" style="fill: #1f77b4; fill-opacity: 0.3; stroke: #1f77b4; stroke-opacity: 0.3"/>
    <path d="M 260.672727 472.827311 
C 262.350019 472.827311 263.958839 472.160916 265.144863 470.974891 
C 266.330888 469.788867 266.997283 468.180047 266.997283 466.502755 
C 266.997283 464.825464 266.330888 463.216644 265.144863 462.030619 
C 263.958839 460.844595 262.350019 460.1782 260.672727 460.1782 
C 258.995436 460.1782 257.386616 460.844595 256.200591 462.030619 
C 255.014567 463.216644 254.348172 464.825464 254.348172 466.502755 
C 254.348172 468.180047 255.014567 469.788867 256.200591 470.974891 
C 257.386616 472.160916 258.995436 472.827311 260.672727 472.827311 
z
" clip-path="url(#p80a5266313)" style="fill: #1f77b4; fill-opacity: 0.3; stroke: #1f77b4; stroke-opacity: 0.3"/>
    <path d="M 273.354545 465.599171 
C 275.973216 465.599171 278.484986 464.558762 280.336665 462.707082 
C 282.188345 460.855402 283.228754 458.343633 283.228754 455.724962 
C 283.228754 453.106292 282.188345 450.594522 280.336665 448.742842 
C 278.484986 446.891162 275.973216 445.850753 273.354545 445.850753 
C 270.735875 445.850753 268.224105 446.891162 266.372425 448.742842 
C 264.520746 450.594522 263.480337 453.106292 263.480337 455.724962 
C 263.480337 458.343633 264.520746 460.855402 266.372425 462.707082 
C 268.224105 464.558762 270.735875 465.599171 273.354545 465.599171 
z
" clip-path="url(#p80a5266313)" style="fill: #1f77b4; fill-opacity: 0.3; stroke: #1f77b4; stroke-opacity: 0.3"/>
    <path d="M 286.036364 457.268957 
C 287.911633 457.268957 289.710348 456.523904 291.036364 455.197889 
C 292.362379 453.871873 293.107431 452.073158 293.107431 450.197889 
C 293.107431 448.32262 292.362379 446.523904 291.036364 445.197889 
C 289.710348 443.871873 287.911633 443.126821 286.036364 443.126821 
C 284.161095 443.126821 282.362379 443.871873 281.036364 445.197889 
C 279.710348 446.523904 278.965296 448.32262 278.965296 450.197889 
C 278.965296 452.073158 279.710348 453.871873 281.036364 455.197889 
C 282.362379 456.523904 284.161095 457.268957 286.036364 457.268957 
z
" clip-path="url(#p80a5266313)" style="fill: #1f77b4; fill-opacity: 0.3; stroke: #1f77b4; stroke-opacity: 0.3"/>
    <path d="M 298.718182 452.434352 
C 300.044197 452.434352 301.316081 451.907521 302.253716 450.969886 
C 303.19135 450.032252 303.718182 448.760368 303.718182 447.434352 
C 303.718182 446.108337 303.19135 444.836453 302.253716 443.898818 
C 301.316081 442.961184 300.044197 442.434352 298.718182 442.434352 
C 297.392166 442.434352 296.120282 442.961184 295.182648 443.898818 
C 294.245013 444.836453 293.718182 446.108337 293.718182 447.434352 
C 293.718182 448.760368 294.245013 450.032252 295.182648 450.969886 
C 296.120282 451.907521 297.392166 452.434352 298.718182 452.434352 
z
" clip-path="url(#p80a5266313)" style="fill: #1f77b4; fill-opacity: 0.3; stroke: #1f77b4; stroke-opacity: 0.3"/>
    <path d="M 311.4 449.117713 
C 311.993012 449.117713 312.561816 448.882107 312.981139 448.462784 
C 313.400462 448.043461 313.636068 447.474657 313.636068 446.881645 
C 313.636068 446.288633 313.400462 445.719829 312.981139 445.300506 
C 312.561816 444.881183 311.993012 444.645577 311.4 444.645577 
C 310.806988 444.645577 310.238184 444.881183 309.818861 445.300506 
C 309.399538 445.719829 309.163932 446.288633 309.163932 446.881645 
C 309.163932 447.474657 309.399538 448.043461 309.818861 448.462784 
C 310.238184 448.882107 310.806988 449.117713 311.4 449.117713 
z
" clip-path="url(#p80a5266313)" style="fill: #1f77b4; fill-opacity: 0.3; stroke: #1f77b4; stroke-opacity: 0.3"/>
    <path d="M 324.081818 445.827498 
C 326.733849 445.827498 329.277617 444.773835 331.152886 442.898566 
C 333.028155 441.023297 334.081818 438.479529 334.081818 435.827498 
C 334.081818 433.175467 333.028155 430.6317 331.152886 428.75643 
C 329.277617 426.881161 326.733849 425.827498 324.081818 425.827498 
C 321.429787 425.827498 318.886019 426.881161 317.01075 428.75643 
C 315.135481 430.6317 314.081818 433.175467 314.081818 435.827498 
C 314.081818 438.479529 315.135481 441.023297 317.01075 442.898566 
C 318.886019 444.773835 321.429787 445.827498 324.081818 445.827498 
z
" clip-path="url(#p80a5266313)" style="fill: #1f77b4; fill-opacity: 0.3; stroke: #1f77b4; stroke-opacity: 0.3"/>
    <path d="M 336.763636 436.824351 
C 338.860251 436.824351 340.871276 435.991357 342.353806 434.508827 
C 343.836337 433.026296 344.669331 431.015271 344.669331 428.918657 
C 344.669331 426.822042 343.836337 424.811017 342.353806 423.328487 
C 340.871276 421.845956 338.860251 421.012962 336.763636 421.012962 
C 334.667022 421.012962 332.655997 421.845956 331.173466 423.328487 
C 329.690936 424.811017 328.857942 426.822042 328.857942 428.918657 
C 328.857942 431.015271 329.690936 433.026296 331.173466 434.508827 
C 332.655997 435.991357 334.667022 436.824351 336.763636 436.824351 
z
" clip-path="url(#p80a5266313)" style="fill: #1f77b4; fill-opacity: 0.3; stroke: #1f77b4; stroke-opacity: 0.3"/>
    <path d="M 349.445455 431.026936 
C 350.957345 431.026936 352.407516 430.426256 353.476583 429.357188 
C 354.545651 428.28812 355.146332 426.837949 355.146332 425.326059 
C 355.146332 423.814169 354.545651 422.363998 353.476583 421.29493 
C 352.407516 420.225862 350.957345 419.625182 349.445455 419.625182 
C 347.933564 419.625182 346.483394 420.225862 345.414326 421.29493 
C 344.345258 422.363998 343.744577 423.814169 343.744577 425.326059 
C 343.744577 426.837949 344.345258 428.28812 345.414326 429.357188 
C 346.483394 430.426256 347.933564 431.026936 349.445455 431.026936 
z
" clip-path="url(#p80a5266313)" style="fill: #1f77b4; fill-opacity: 0.3; stroke: #1f77b4; stroke-opacity: 0.3"/>
    <path d="M 362.127273 425.427014 
C 364.499321 425.427014 366.774536 424.484589 368.451828 422.807297 
C 370.12912 421.130005 371.071545 418.85479 371.071545 416.482742 
C 371.071545 414.110693 370.12912 411.835478 368.451828 410.158186 
C 366.774536 408.480895 364.499321 407.53847 362.127273 407.53847 
C 359.755224 407.53847 357.480009 408.480895 355.802717 410.158186 
C 354.125426 411.835478 353.183001 414.110693 353.183001 416.482742 
C 353.183001 418.85479 354.125426 421.130005 355.802717 422.807297 
C 357.480009 424.484589 359.755224 425.427014 362.127273 425.427014 
z
" clip-path="url(#p80a5266313)" style="fill: #1f77b4; fill-opacity: 0.3; stroke: #1f77b4; stroke-opacity: 0.3"/>
    <path d="M 374.809091 414.967755 
C 377.558775 414.967755 380.19621 413.875293 382.14053 411.930973 
C 384.08485 409.986653 385.177312 407.349218 385.177312 404.599534 
C 385.177312 401.84985 384.08485 399.212415 382.14053 397.268095 
C 380.19621 395.323774 377.558775 394.231313 374.809091 394.231313 
C 372.059407 394.231313 369.421972 395.323774 367.477652 397.268095 
C 365.533331 399.212415 364.44087 401.84985 364.44087 404.599534 
C 364.44087 407.349218 365.533331 409.986653 367.477652 411.930973 
C 369.421972 413.875293 372.059407 414.967755 374.809091 414.967755 
z
" clip-path="url(#p80a5266313)" style="fill: #1f77b4; fill-opacity: 0.3; stroke: #1f77b4; stroke-opacity: 0.3"/>
    <path d="M 387.490909 406.656397 
C 388.329555 406.656397 389.133965 406.323199 389.726977 405.730187 
C 390.319989 405.137175 390.653187 404.332765 390.653187 403.494119 
C 390.653187 402.655473 390.319989 401.851063 389.726977 401.258051 
C 389.133965 400.665039 388.329555 400.331842 387.490909 400.331842 
C 386.652263 400.331842 385.847853 400.665039 385.254841 401.258051 
C 384.661829 401.851063 384.328631 402.655473 384.328631 403.494119 
C 384.328631 404.332765 384.661829 405.137175 385.254841 405.730187 
C 385.847853 406.323199 386.652263 406.656397 387.490909 406.656397 
z
" clip-path="url(#p80a5266313)" style="fill: #1f77b4; fill-opacity: 0.3; stroke: #1f77b4; stroke-opacity: 0.3"/>
    <path d="M 400.172727 405.698273 
C 401.563464 405.698273 402.897427 405.145728 403.880827 404.162328 
C 404.864226 403.178929 405.416772 401.844966 405.416772 400.454229 
C 405.416772 399.063492 404.864226 397.729529 403.880827 396.74613 
C 402.897427 395.76273 401.563464 395.210185 400.172727 395.210185 
C 398.78199 395.210185 397.448027 395.76273 396.464628 396.74613 
C 395.481229 397.729529 394.928683 399.063492 394.928683 400.454229 
C 394.928683 401.844966 395.481229 403.178929 396.464628 404.162328 
C 397.448027 405.145728 398.78199 405.698273 400.172727 405.698273 
z
" clip-path="url(#p80a5266313)" style="fill: #1f77b4; fill-opacity: 0.3; stroke: #1f77b4; stroke-opacity: 0.3"/>
    <path d="M 412.854545 401.208518 
C 415.033411 401.208518 417.12333 400.342846 418.66402 398.802155 
C 420.204711 397.261464 421.070384 395.171546 421.070384 392.99268 
C 421.070384 390.813814 420.204711 388.723896 418.66402 387.183205 
C 417.12333 385.642514 415.033411 384.776842 412.854545 384.776842 
C 410.67568 384.776842 408.585761 385.642514 407.04507 387.183205 
C 405.50438 388.723896 404.638707 390.813814 404.638707 392.99268 
C 404.638707 395.171546 405.50438 397.261464 407.04507 398.802155 
C 408.585761 400.342846 410.67568 401.208518 412.854545 401.208518 
z
" clip-path="url(#p80a5266313)" style="fill: #1f77b4; fill-opacity: 0.3; stroke: #1f77b4; stroke-opacity: 0.3"/>
    <path d="M 425.536364 395.153661 
C 426.988941 395.153661 428.38222 394.576546 429.409347 393.549419 
C 430.436474 392.522292 431.013589 391.129013 431.013589 389.676436 
C 431.013589 388.223859 430.436474 386.83058 429.409347 385.803453 
C 428.38222 384.776325 426.988941 384.19921 425.536364 384.19921 
C 424.083786 384.19921 422.690507 384.776325 421.66338 385.803453 
C 420.636253 386.83058 420.059138 388.223859 420.059138 389.676436 
C 420.059138 391.129013 420.636253 392.522292 421.66338 393.549419 
C 422.690507 394.576546 424.083786 395.153661 425.536364 395.153661 
z
" clip-path="url(#p80a5266313)" style="fill: #1f77b4; fill-opacity: 0.3; stroke: #1f77b4; stroke-opacity: 0.3"/>
    <path d="M 438.218182 387.039092 
C 441.183243 387.039092 444.027261 385.861061 446.123876 383.764447 
C 448.220491 381.667832 449.398522 378.823813 449.398522 375.858753 
C 449.398522 372.893692 448.220491 370.049673 446.123876 367.953058 
C 444.027261 365.856444 441.183243 364.678413 438.218182 364.678413 
C 435.253121 364.678413 432.409102 365.856444 430.312488 367.953058 
C 428.215873 370.049673 427.037842 372.893692 427.037842 375.858753 
C 427.037842 378.823813 428.215873 381.667832 430.312488 383.764447 
C 432.409102 385.861061 435.253121 387.039092 438.218182 387.039092 
z
" clip-path="url(#p80a5266313)" style="fill: #1f77b4; fill-opacity: 0.3; stroke: #1f77b4; stroke-opacity: 0.3"/>
    <path d="M 450.9 376.613042 
C 453.078866 376.613042 455.168784 375.747369 456.709475 374.206679 
C 458.250166 372.665988 459.115838 370.576069 459.115838 368.397204 
C 459.115838 366.218338 458.250166 364.128419 456.709475 362.587729 
C 455.168784 361.047038 453.078866 360.181365 450.9 360.181365 
C 448.721134 360.181365 446.631216 361.047038 445.090525 362.587729 
C 443.549834 364.128419 442.684162 366.218338 442.684162 368.397204 
C 442.684162 370.576069 443.549834 372.665988 445.090525 374.206679 
C 446.631216 375.747369 448.721134 376.613042 450.9 376.613042 
z
" clip-path="url(#p80a5266313)" style="fill: #1f77b4; fill-opacity: 0.3; stroke: #1f77b4; stroke-opacity: 0.3"/>
    <path d="M 463.581818 369.510682 
C 465.636073 369.510682 467.606467 368.694518 469.059044 367.241941 
C 470.511621 365.789364 471.327785 363.81897 471.327785 361.764716 
C 471.327785 359.710461 470.511621 357.740067 469.059044 356.28749 
C 467.606467 354.834913 465.636073 354.018749 463.581818 354.018749 
C 461.527564 354.018749 459.55717 354.834913 458.104593 356.28749 
C 456.652015 357.740067 455.835851 359.710461 455.835851 361.764716 
C 455.835851 363.81897 456.652015 365.789364 458.104593 367.241941 
C 459.55717 368.694518 461.527564 369.510682 463.581818 369.510682 
z
" clip-path="url(#p80a5266313)" style="fill: #1f77b4; fill-opacity: 0.3; stroke: #1f77b4; stroke-opacity: 0.3"/>
    <path d="M 476.263636 362.265152 
C 478.521759 362.265152 480.6877 361.367991 482.284434 359.771257 
C 483.881168 358.174522 484.77833 356.008582 484.77833 353.750459 
C 484.77833 351.492336 483.881168 349.326396 482.284434 347.729662 
C 480.6877 346.132928 478.521759 345.235766 476.263636 345.235766 
C 474.005513 345.235766 471.839573 346.132928 470.242839 347.729662 
C 468.646105 349.326396 467.748943 351.492336 467.748943 353.750459 
C 467.748943 356.008582 468.646105 358.174522 470.242839 359.771257 
C 471.839573 361.367991 474.005513 362.265152 476.263636 362.265152 
z
" clip-path="url(#p80a5266313)" style="fill: #1f77b4; fill-opacity: 0.3; stroke: #1f77b4; stroke-opacity: 0.3"/>
    <path d="M 488.945455 355.807322 
C 489.7841 355.807322 490.58851 355.474125 491.181523 354.881113 
C 491.774535 354.2881 492.107732 353.48369 492.107732 352.645045 
C 492.107732 351.806399 491.774535 351.001989 491.181523 350.408977 
C 490.58851 349.815964 489.7841 349.482767 488.945455 349.482767 
C 488.106809 349.482767 487.302399 349.815964 486.709387 350.408977 
C 486.116374 351.001989 485.783177 351.806399 485.783177 352.645045 
C 485.783177 353.48369 486.116374 354.2881 486.709387 354.881113 
C 487.302399 355.474125 488.106809 355.807322 488.945455 355.807322 
z
" clip-path="url(#p80a5266313)" style="fill: #1f77b4; fill-opacity: 0.3; stroke: #1f77b4; stroke-opacity: 0.3"/>
    <path d="M 501.627273 354.701908 
C 502.465919 354.701908 503.270329 354.36871 503.863341 353.775698 
C 504.456353 353.182686 504.78955 352.378276 504.78955 351.53963 
C 504.78955 350.700984 504.456353 349.896574 503.863341 349.303562 
C 503.270329 348.71055 502.465919 348.377352 501.627273 348.377352 
C 500.788627 348.377352 499.984217 348.71055 499.391205 349.303562 
C 498.798193 349.896574 498.464995 350.700984 498.464995 351.53963 
C 498.464995 352.378276 498.798193 353.182686 499.391205 353.775698 
C 499.984217 354.36871 500.788627 354.701908 501.627273 354.701908 
z
" clip-path="url(#p80a5266313)" style="fill: #1f77b4; fill-opacity: 0.3; stroke: #1f77b4; stroke-opacity: 0.3"/>
    <path d="M 514.309091 350.932236 
C 516.859733 350.932236 519.30625 349.918856 521.109826 348.115279 
C 522.913402 346.311703 523.926783 343.865186 523.926783 341.314544 
C 523.926783 338.763902 522.913402 336.317385 521.109826 334.513809 
C 519.30625 332.710233 516.859733 331.696852 514.309091 331.696852 
C 511.758449 331.696852 509.311932 332.710233 507.508356 334.513809 
C 505.70478 336.317385 504.691399 338.763902 504.691399 341.314544 
C 504.691399 343.865186 505.70478 346.311703 507.508356 348.115279 
C 509.311932 349.918856 511.758449 350.932236 514.309091 350.932236 
z
" clip-path="url(#p80a5266313)" style="fill: #1f77b4; fill-opacity: 0.3; stroke: #1f77b4; stroke-opacity: 0.3"/>
    <path d="M 526.990909 338.677201 
C 529.95597 338.677201 532.799989 337.49917 534.896603 335.402555 
C 536.993218 333.30594 538.171249 330.461922 538.171249 327.496861 
C 538.171249 324.5318 536.993218 321.687781 534.896603 319.591167 
C 532.799989 317.494552 529.95597 316.316521 526.990909 316.316521 
C 524.025848 316.316521 521.18183 317.494552 519.085215 319.591167 
C 516.9886 321.687781 515.810569 324.5318 515.810569 327.496861 
C 515.810569 330.461922 516.9886 333.30594 519.085215 335.402555 
C 521.18183 337.49917 524.025848 338.677201 526.990909 338.677201 
z
" clip-path="url(#p80a5266313)" style="fill: #1f77b4; fill-opacity: 0.3; stroke: #1f77b4; stroke-opacity: 0.3"/>
    <path d="M 539.672727 327.597815 
C 542.044776 327.597815 544.319991 326.655391 545.997283 324.978099 
C 547.674574 323.300807 548.616999 321.025592 548.616999 318.653544 
C 548.616999 316.281495 547.674574 314.00628 545.997283 312.328988 
C 544.319991 310.651697 542.044776 309.709272 539.672727 309.709272 
C 537.300679 309.709272 535.025464 310.651697 533.348172 312.328988 
C 531.67088 314.00628 530.728455 316.281495 530.728455 318.653544 
C 530.728455 321.025592 531.67088 323.300807 533.348172 324.978099 
C 535.025464 326.655391 537.300679 327.597815 539.672727 327.597815 
z
" clip-path="url(#p80a5266313)" style="fill: #1f77b4; fill-opacity: 0.3; stroke: #1f77b4; stroke-opacity: 0.3"/>
    <path d="M 552.354545 319.407833 
C 554.533411 319.407833 556.62333 318.54216 558.16402 317.00147 
C 559.704711 315.460779 560.570384 313.37086 560.570384 311.191995 
C 560.570384 309.013129 559.704711 306.92321 558.16402 305.382519 
C 556.62333 303.841829 554.533411 302.976156 552.354545 302.976156 
C 550.17568 302.976156 548.085761 303.841829 546.54507 305.382519 
C 545.00438 306.92321 544.138707 309.013129 544.138707 311.191995 
C 544.138707 313.37086 545.00438 315.460779 546.54507 317.00147 
C 548.085761 318.54216 550.17568 319.407833 552.354545 319.407833 
z
" clip-path="url(#p80a5266313)" style="fill: #1f77b4; fill-opacity: 0.3; stroke: #1f77b4; stroke-opacity: 0.3"/>
    <path d="M 565.036364 313.248858 
C 565.875009 313.248858 566.679419 312.91566 567.272432 312.322648 
C 567.865444 311.729636 568.198641 310.925226 568.198641 310.08658 
C 568.198641 309.247934 567.865444 308.443524 567.272432 307.850512 
C 566.679419 307.2575 565.875009 306.924302 565.036364 306.924302 
C 564.197718 306.924302 563.393308 307.2575 562.800296 307.850512 
C 562.207283 308.443524 561.874086 309.247934 561.874086 310.08658 
C 561.874086 310.925226 562.207283 311.729636 562.800296 312.322648 
C 563.393308 312.91566 564.197718 313.248858 565.036364 313.248858 
z
" clip-path="url(#p80a5266313)" style="fill: #1f77b4; fill-opacity: 0.3; stroke: #1f77b4; stroke-opacity: 0.3"/>
    <path d="M 577.718182 312.290734 
C 579.108919 312.290734 580.442882 311.738188 581.426281 310.754789 
C 582.40968 309.771389 582.962226 308.437426 582.962226 307.04669 
C 582.962226 305.655953 582.40968 304.32199 581.426281 303.33859 
C 580.442882 302.355191 579.108919 301.802645 577.718182 301.802645 
C 576.327445 301.802645 574.993482 302.355191 574.010083 303.33859 
C 573.026683 304.32199 572.474138 305.655953 572.474138 307.04669 
C 572.474138 308.437426 573.026683 309.771389 574.010083 310.754789 
C 574.993482 311.738188 576.327445 312.290734 577.718182 312.290734 
z
" clip-path="url(#p80a5266313)" style="fill: #1f77b4; fill-opacity: 0.3; stroke: #1f77b4; stroke-opacity: 0.3"/>
    <path d="M 590.4 308.590684 
C 592.275269 308.590684 594.073984 307.845632 595.4 306.519616 
C 596.726015 305.193601 597.471068 303.394885 597.471068 301.519616 
C 597.471068 299.644347 596.726015 297.845632 595.4 296.519616 
C 594.073984 295.193601 592.275269 294.448548 590.4 294.448548 
C 588.524731 294.448548 586.726015 295.193601 585.4 296.519616 
C 584.073984 297.845632 583.328932 299.644347 583.328932 301.519616 
C 583.328932 303.394885 584.073984 305.193601 585.4 306.519616 
C 586.726015 307.845632 588.524731 308.590684 590.4 308.590684 
z
" clip-path="url(#p80a5266313)" style="fill: #1f77b4; fill-opacity: 0.3; stroke: #1f77b4; stroke-opacity: 0.3"/>
    <path d="M 603.081818 302.633095 
C 605.136073 302.633095 607.106467 301.816931 608.559044 300.364354 
C 610.011621 298.911777 610.827785 296.941383 610.827785 294.887128 
C 610.827785 292.832874 610.011621 290.86248 608.559044 289.409903 
C 607.106467 287.957325 605.136073 287.141161 603.081818 287.141161 
C 601.027564 287.141161 599.05717 287.957325 597.604593 289.409903 
C 596.152015 290.86248 595.335851 292.832874 595.335851 294.887128 
C 595.335851 296.941383 596.152015 298.911777 597.604593 300.364354 
C 599.05717 301.816931 601.027564 302.633095 603.081818 302.633095 
z
" clip-path="url(#p80a5266313)" style="fill: #1f77b4; fill-opacity: 0.3; stroke: #1f77b4; stroke-opacity: 0.3"/>
    <path d="M 615.763636 297.148435 
C 616.949661 297.148435 618.087268 296.677222 618.925914 295.838576 
C 619.76456 294.999931 620.235772 293.862323 620.235772 292.676299 
C 620.235772 291.490275 619.76456 290.352667 618.925914 289.514021 
C 618.087268 288.675375 616.949661 288.204163 615.763636 288.204163 
C 614.577612 288.204163 613.440005 288.675375 612.601359 289.514021 
C 611.762713 290.352667 611.2915 291.490275 611.2915 292.676299 
C 611.2915 293.862323 611.762713 294.999931 612.601359 295.838576 
C 613.440005 296.677222 614.577612 297.148435 615.763636 297.148435 
z
" clip-path="url(#p80a5266313)" style="fill: #1f77b4; fill-opacity: 0.3; stroke: #1f77b4; stroke-opacity: 0.3"/>
    <path d="M 628.445455 293.304996 
C 630.664303 293.304996 632.792572 292.423439 634.361534 290.854476 
C 635.930497 289.285513 636.812055 287.157244 636.812055 284.938396 
C 636.812055 282.719548 635.930497 280.591279 634.361534 279.022316 
C 632.792572 277.453354 630.664303 276.571796 628.445455 276.571796 
C 626.226606 276.571796 624.098337 277.453354 622.529375 279.022316 
C 620.960412 280.591279 620.078854 282.719548 620.078854 284.938396 
C 620.078854 287.157244 620.960412 289.285513 622.529375 290.854476 
C 624.098337 292.423439 626.226606 293.304996 628.445455 293.304996 
z
" clip-path="url(#p80a5266313)" style="fill: #1f77b4; fill-opacity: 0.3; stroke: #1f77b4; stroke-opacity: 0.3"/>
    <path d="M 641.127273 286.759586 
C 642.856185 286.759586 644.514519 286.072682 645.737045 284.850156 
C 646.959571 283.62763 647.646475 281.969297 647.646475 280.240384 
C 647.646475 278.511471 646.959571 276.853137 645.737045 275.630612 
C 644.514519 274.408086 642.856185 273.721181 641.127273 273.721181 
C 639.39836 273.721181 637.740026 274.408086 636.5175 275.630612 
C 635.294975 276.853137 634.60807 278.511471 634.60807 280.240384 
C 634.60807 281.969297 635.294975 283.62763 636.5175 284.850156 
C 637.740026 286.072682 639.39836 286.759586 641.127273 286.759586 
z
" clip-path="url(#p80a5266313)" style="fill: #1f77b4; fill-opacity: 0.3; stroke: #1f77b4; stroke-opacity: 0.3"/>
    <path d="M 653.809091 282.444538 
C 655.199828 282.444538 656.533791 281.891992 657.51719 280.908593 
C 658.50059 279.925193 659.053135 278.59123 659.053135 277.200493 
C 659.053135 275.809757 658.50059 274.475794 657.51719 273.492394 
C 656.533791 272.508995 655.199828 271.956449 653.809091 271.956449 
C 652.418354 271.956449 651.084391 272.508995 650.100992 273.492394 
C 649.117592 274.475794 648.565047 275.809757 648.565047 277.200493 
C 648.565047 278.59123 649.117592 279.925193 650.100992 280.908593 
C 651.084391 281.891992 652.418354 282.444538 653.809091 282.444538 
z
" clip-path="url(#p80a5266313)" style="fill: #1f77b4; fill-opacity: 0.3; stroke: #1f77b4; stroke-opacity: 0.3"/>
    <path d="M 666.490909 276.296909 
C 669.10958 276.296909 671.621349 275.2565 673.473029 273.404821 
C 675.324709 271.553141 676.365118 269.041371 676.365118 266.4227 
C 676.365118 263.80403 675.324709 261.29226 673.473029 259.44058 
C 671.621349 257.588901 669.10958 256.548492 666.490909 256.548492 
C 663.872238 256.548492 661.360469 257.588901 659.508789 259.44058 
C 657.657109 261.29226 656.6167 263.80403 656.6167 266.4227 
C 656.6167 269.041371 657.657109 271.553141 659.508789 273.404821 
C 661.360469 275.2565 663.872238 276.296909 666.490909 276.296909 
z
" clip-path="url(#p80a5266313)" style="fill: #1f77b4; fill-opacity: 0.3; stroke: #1f77b4; stroke-opacity: 0.3"/>
    <path d="M 679.172727 268.583682 
C 680.625304 268.583682 682.018583 268.006567 683.045711 266.97944 
C 684.072838 265.952313 684.649953 264.559034 684.649953 263.106456 
C 684.649953 261.653879 684.072838 260.2606 683.045711 259.233473 
C 682.018583 258.206346 680.625304 257.629231 679.172727 257.629231 
C 677.72015 257.629231 676.326871 258.206346 675.299744 259.233473 
C 674.272617 260.2606 673.695502 261.653879 673.695502 263.106456 
C 673.695502 264.559034 674.272617 265.952313 675.299744 266.97944 
C 676.326871 268.006567 677.72015 268.583682 679.172727 268.583682 
z
" clip-path="url(#p80a5266313)" style="fill: #1f77b4; fill-opacity: 0.3; stroke: #1f77b4; stroke-opacity: 0.3"/>
    <path d="M 691.854545 262.929976 
C 694.299597 262.929976 696.644835 261.958547 698.373748 260.229634 
C 700.102661 258.500722 701.07409 256.155484 701.07409 253.710432 
C 701.07409 251.26538 700.102661 248.920142 698.373748 247.191229 
C 696.644835 245.462317 694.299597 244.490887 691.854545 244.490887 
C 689.409494 244.490887 687.064256 245.462317 685.335343 247.191229 
C 683.60643 248.920142 682.635001 251.26538 682.635001 253.710432 
C 682.635001 256.155484 683.60643 258.500722 685.335343 260.229634 
C 687.064256 261.958547 689.409494 262.929976 691.854545 262.929976 
z
" clip-path="url(#p80a5266313)" style="fill: #1f77b4; fill-opacity: 0.3; stroke: #1f77b4; stroke-opacity: 0.3"/>
    <path d="M 704.536364 255.254426 
C 706.411633 255.254426 708.210348 254.509374 709.536364 253.183358 
C 710.862379 251.857343 711.607431 250.058628 711.607431 248.183358 
C 711.607431 246.308089 710.862379 244.509374 709.536364 243.183358 
C 708.210348 241.857343 706.411633 241.112291 704.536364 241.112291 
C 702.661095 241.112291 700.862379 241.857343 699.536364 243.183358 
C 698.210348 244.509374 697.465296 246.308089 697.465296 248.183358 
C 697.465296 250.058628 698.210348 251.857343 699.536364 253.183358 
C 700.862379 254.509374 702.661095 255.254426 704.536364 255.254426 
z
" clip-path="url(#p80a5266313)" style="fill: #1f77b4; fill-opacity: 0.3; stroke: #1f77b4; stroke-opacity: 0.3"/>
    <path d="M 717.218182 250.34434 
C 718.670759 250.34434 720.064038 249.767225 721.091165 248.740098 
C 722.118292 247.712971 722.695407 246.319692 722.695407 244.867114 
C 722.695407 243.414537 722.118292 242.021258 721.091165 240.994131 
C 720.064038 239.967004 718.670759 239.389889 717.218182 239.389889 
C 715.765605 239.389889 714.372326 239.967004 713.345198 240.994131 
C 712.318071 242.021258 711.740956 243.414537 711.740956 244.867114 
C 711.740956 246.319692 712.318071 247.712971 713.345198 248.740098 
C 714.372326 249.767225 715.765605 250.34434 717.218182 250.34434 
z
" clip-path="url(#p80a5266313)" style="fill: #1f77b4; fill-opacity: 0.3; stroke: #1f77b4; stroke-opacity: 0.3"/>
    <path d="M 729.9 246.411109 
C 731.775269 246.411109 733.573984 245.666057 734.9 244.340041 
C 736.226015 243.014026 736.971068 241.21531 736.971068 239.340041 
C 736.971068 237.464772 736.226015 235.666057 734.9 234.340041 
C 733.573984 233.014026 731.775269 232.268973 729.9 232.268973 
C 728.024731 232.268973 726.226015 233.014026 724.9 234.340041 
C 723.573984 235.666057 722.828932 237.464772 722.828932 239.340041 
C 722.828932 241.21531 723.573984 243.014026 724.9 244.340041 
C 726.226015 245.666057 728.024731 246.411109 729.9 246.411109 
z
" clip-path="url(#p80a5266313)" style="fill: #1f77b4; fill-opacity: 0.3; stroke: #1f77b4; stroke-opacity: 0.3"/>
    <path d="M 742.581818 241.596275 
C 743.839787 241.596275 745.046402 241.096478 745.93592 240.20696 
C 746.825438 239.317442 747.325235 238.110827 747.325235 236.852858 
C 747.325235 235.594889 746.825438 234.388274 745.93592 233.498756 
C 745.046402 232.609238 743.839787 232.109442 742.581818 232.109442 
C 741.323849 232.109442 740.117234 232.609238 739.227716 233.498756 
C 738.338198 234.388274 737.838402 235.594889 737.838402 236.852858 
C 737.838402 238.110827 738.338198 239.317442 739.227716 240.20696 
C 740.117234 241.096478 741.323849 241.596275 742.581818 241.596275 
z
" clip-path="url(#p80a5266313)" style="fill: #1f77b4; fill-opacity: 0.3; stroke: #1f77b4; stroke-opacity: 0.3"/>
    <path d="M 755.263636 236.245464 
C 757.814278 236.245464 760.260796 235.232084 762.064372 233.428508 
C 763.867948 231.624932 764.881328 229.178414 764.881328 226.627772 
C 764.881328 224.077131 763.867948 221.630613 762.064372 219.827037 
C 760.260796 218.023461 757.814278 217.01008 755.263636 217.01008 
C 752.712995 217.01008 750.266477 218.023461 748.462901 219.827037 
C 746.659325 221.630613 745.645944 224.077131 745.645944 226.627772 
C 745.645944 229.178414 746.659325 231.624932 748.462901 233.428508 
C 750.266477 235.232084 752.712995 236.245464 755.263636 236.245464 
z
" clip-path="url(#p80a5266313)" style="fill: #1f77b4; fill-opacity: 0.3; stroke: #1f77b4; stroke-opacity: 0.3"/>
    <path d="M 767.945455 224.154415 
C 770.880715 224.154415 773.69615 222.988223 775.771692 220.912681 
C 777.847235 218.837138 779.013426 216.021703 779.013426 213.086443 
C 779.013426 210.151182 777.847235 207.335747 775.771692 205.260205 
C 773.69615 203.184662 770.880715 202.018471 767.945455 202.018471 
C 765.010194 202.018471 762.194759 203.184662 760.119217 205.260205 
C 758.043674 207.335747 756.877483 210.151182 756.877483 213.086443 
C 756.877483 216.021703 758.043674 218.837138 760.119217 220.912681 
C 762.194759 222.988223 765.010194 224.154415 767.945455 224.154415 
z
" clip-path="url(#p80a5266313)" style="fill: #1f77b4; fill-opacity: 0.3; stroke: #1f77b4; stroke-opacity: 0.3"/>
    <path d="M 780.627273 215.342676 
C 781.885241 215.342676 783.091856 214.84288 783.981375 213.953362 
C 784.870893 213.063843 785.370689 211.857229 785.370689 210.59926 
C 785.370689 209.341291 784.870893 208.134676 783.981375 207.245158 
C 783.091856 206.35564 781.885241 205.855843 780.627273 205.855843 
C 779.369304 205.855843 778.162689 206.35564 777.273171 207.245158 
C 776.383653 208.134676 775.883856 209.341291 775.883856 210.59926 
C 775.883856 211.857229 776.383653 213.063843 777.273171 213.953362 
C 778.162689 214.84288 779.369304 215.342676 780.627273 215.342676 
z
" clip-path="url(#p80a5266313)" style="fill: #1f77b4; fill-opacity: 0.3; stroke: #1f77b4; stroke-opacity: 0.3"/>
    <path d="M 793.309091 212.143254 
C 795.18436 212.143254 796.983075 211.398202 798.309091 210.072186 
C 799.635106 208.746171 800.380159 206.947456 800.380159 205.072186 
C 800.380159 203.196917 799.635106 201.398202 798.309091 200.072186 
C 796.983075 198.746171 795.18436 198.001119 793.309091 198.001119 
C 791.433822 198.001119 789.635106 198.746171 788.309091 200.072186 
C 786.983075 201.398202 786.238023 203.196917 786.238023 205.072186 
C 786.238023 206.947456 786.983075 208.746171 788.309091 210.072186 
C 789.635106 211.398202 791.433822 212.143254 793.309091 212.143254 
z
" clip-path="url(#p80a5266313)" style="fill: #1f77b4; fill-opacity: 0.3; stroke: #1f77b4; stroke-opacity: 0.3"/>
    <path d="M 805.990909 206.616181 
C 807.866178 206.616181 809.664894 205.871129 810.990909 204.545113 
C 812.316925 203.219098 813.061977 201.420382 813.061977 199.545113 
C 813.061977 197.669844 812.316925 195.871129 810.990909 194.545113 
C 809.664894 193.219098 807.866178 192.474045 805.990909 192.474045 
C 804.11564 192.474045 802.316925 193.219098 800.990909 194.545113 
C 799.664894 195.871129 798.919841 197.669844 798.919841 199.545113 
C 798.919841 201.420382 799.664894 203.219098 800.990909 204.545113 
C 802.316925 205.871129 804.11564 206.616181 805.990909 206.616181 
z
" clip-path="url(#p80a5266313)" style="fill: #1f77b4; fill-opacity: 0.3; stroke: #1f77b4; stroke-opacity: 0.3"/>
    <path d="M 818.672727 201.278951 
C 820.451764 201.278951 822.158175 200.572132 823.416144 199.314164 
C 824.674113 198.056195 825.380931 196.349784 825.380931 194.570747 
C 825.380931 192.791711 824.674113 191.085299 823.416144 189.827331 
C 822.158175 188.569362 820.451764 187.862543 818.672727 187.862543 
C 816.893691 187.862543 815.18728 188.569362 813.929311 189.827331 
C 812.671342 191.085299 811.964523 192.791711 811.964523 194.570747 
C 811.964523 196.349784 812.671342 198.056195 813.929311 199.314164 
C 815.18728 200.572132 816.893691 201.278951 818.672727 201.278951 
z
" clip-path="url(#p80a5266313)" style="fill: #1f77b4; fill-opacity: 0.3; stroke: #1f77b4; stroke-opacity: 0.3"/>
    <path d="M 831.354545 196.013008 
C 833.276124 196.013008 835.119259 195.249557 836.478021 193.890795 
C 837.836782 192.532034 838.600234 190.688899 838.600234 188.76732 
C 838.600234 186.845741 837.836782 185.002606 836.478021 183.643845 
C 835.119259 182.285083 833.276124 181.521632 831.354545 181.521632 
C 829.432966 181.521632 827.589832 182.285083 826.23107 183.643845 
C 824.872309 185.002606 824.108857 186.845741 824.108857 188.76732 
C 824.108857 190.688899 824.872309 192.532034 826.23107 193.890795 
C 827.589832 195.249557 829.432966 196.013008 831.354545 196.013008 
z
" clip-path="url(#p80a5266313)" style="fill: #1f77b4; fill-opacity: 0.3; stroke: #1f77b4; stroke-opacity: 0.3"/>
    <path d="M 844.036364 189.136964 
C 846.33309 189.136964 848.536057 188.224465 850.160088 186.600434 
C 851.784119 184.976404 852.696618 182.773436 852.696618 180.47671 
C 852.696618 178.179984 851.784119 175.977016 850.160088 174.352986 
C 848.536057 172.728955 846.33309 171.816456 844.036364 171.816456 
C 841.739637 171.816456 839.53667 172.728955 837.912639 174.352986 
C 836.288609 175.977016 835.37611 178.179984 835.37611 180.47671 
C 835.37611 182.773436 836.288609 184.976404 837.912639 186.600434 
C 839.53667 188.224465 841.739637 189.136964 844.036364 189.136964 
z
" clip-path="url(#p80a5266313)" style="fill: #1f77b4; fill-opacity: 0.3; stroke: #1f77b4; stroke-opacity: 0.3"/>
    <path d="M 856.718182 180.713155 
C 859.052873 180.713155 861.292256 179.785572 862.943132 178.134696 
C 864.594008 176.48382 865.52159 174.244438 865.52159 171.909746 
C 865.52159 169.575055 864.594008 167.335673 862.943132 165.684797 
C 861.292256 164.033921 859.052873 163.106338 856.718182 163.106338 
C 854.383491 163.106338 852.144108 164.033921 850.493232 165.684797 
C 848.842356 167.335673 847.914773 169.575055 847.914773 171.909746 
C 847.914773 174.244438 848.842356 176.48382 850.493232 178.134696 
C 852.144108 179.785572 854.383491 180.713155 856.718182 180.713155 
z
" clip-path="url(#p80a5266313)" style="fill: #1f77b4; fill-opacity: 0.3; stroke: #1f77b4; stroke-opacity: 0.3"/>
    <path d="M 869.4 170.394759 
C 872.149684 170.394759 874.787119 169.302298 876.731439 167.357978 
C 878.67576 165.413657 879.768221 162.776223 879.768221 160.026539 
C 879.768221 157.276854 878.67576 154.63942 876.731439 152.6951 
C 874.787119 150.750779 872.149684 149.658318 869.4 149.658318 
C 866.650316 149.658318 864.012881 150.750779 862.068561 152.6951 
C 860.12424 154.63942 859.031779 157.276854 859.031779 160.026539 
C 859.031779 162.776223 860.12424 165.413657 862.068561 167.357978 
C 864.012881 169.302298 866.650316 170.394759 869.4 170.394759 
z
" clip-path="url(#p80a5266313)" style="fill: #1f77b4; fill-opacity: 0.3; stroke: #1f77b4; stroke-opacity: 0.3"/>
    <path d="M 882.081818 161.4688 
C 884.003397 161.4688 885.846532 160.705349 887.205294 159.346587 
C 888.564055 157.987826 889.327507 156.144691 889.327507 154.223112 
C 889.327507 152.301533 888.564055 150.458398 887.205294 149.099636 
C 885.846532 147.740875 884.003397 146.977423 882.081818 146.977423 
C 880.160239 146.977423 878.317104 147.740875 876.958343 149.099636 
C 875.599581 150.458398 874.83613 152.301533 874.83613 154.223112 
C 874.83613 156.144691 875.599581 157.987826 876.958343 159.346587 
C 878.317104 160.705349 880.160239 161.4688 882.081818 161.4688 
z
" clip-path="url(#p80a5266313)" style="fill: #1f77b4; fill-opacity: 0.3; stroke: #1f77b4; stroke-opacity: 0.3"/>
    <path d="M 894.763636 150.063203 
C 897.984517 150.063203 901.073912 148.783534 903.351418 146.506027 
C 905.628925 144.228521 906.908594 141.139126 906.908594 137.918245 
C 906.908594 134.697365 905.628925 131.60797 903.351418 129.330463 
C 901.073912 127.052957 897.984517 125.773288 894.763636 125.773288 
C 891.542756 125.773288 888.453361 127.052957 886.175854 129.330463 
C 883.898348 131.60797 882.618679 134.697365 882.618679 137.918245 
C 882.618679 141.139126 883.898348 144.228521 886.175854 146.506027 
C 888.453361 148.783534 891.542756 150.063203 894.763636 150.063203 
z
" clip-path="url(#p80a5266313)" style="fill: #1f77b4; fill-opacity: 0.3; stroke: #1f77b4; stroke-opacity: 0.3"/>
    <path d="M 907.445455 139.144986 
C 909.456457 139.144986 911.385364 138.346007 912.807357 136.924014 
C 914.22935 135.50202 915.02833 133.573113 915.02833 131.562111 
C 915.02833 129.551109 914.22935 127.622202 912.807357 126.200208 
C 911.385364 124.778215 909.456457 123.979236 907.445455 123.979236 
C 905.434452 123.979236 903.505545 124.778215 902.083552 126.200208 
C 900.661559 127.622202 899.862579 129.551109 899.862579 131.562111 
C 899.862579 133.573113 900.661559 135.50202 902.083552 136.924014 
C 903.505545 138.346007 905.434452 139.144986 907.445455 139.144986 
z
" clip-path="url(#p80a5266313)" style="fill: #1f77b4; fill-opacity: 0.3; stroke: #1f77b4; stroke-opacity: 0.3"/>
    <path d="M 920.127273 133.723093 
C 921.57985 133.723093 922.973129 133.145978 924.000256 132.11885 
C 925.027383 131.091723 925.604498 129.698444 925.604498 128.245867 
C 925.604498 126.79329 925.027383 125.400011 924.000256 124.372884 
C 922.973129 123.345756 921.57985 122.768641 920.127273 122.768641 
C 918.674696 122.768641 917.281417 123.345756 916.254289 124.372884 
C 915.227162 125.400011 914.650047 126.79329 914.650047 128.245867 
C 914.650047 129.698444 915.227162 131.091723 916.254289 132.11885 
C 917.281417 133.145978 918.674696 133.723093 920.127273 133.723093 
z
" clip-path="url(#p80a5266313)" style="fill: #1f77b4; fill-opacity: 0.3; stroke: #1f77b4; stroke-opacity: 0.3"/>
    <path d="M 932.809091 129.688128 
C 934.73067 129.688128 936.573805 128.924677 937.932566 127.565915 
C 939.291328 126.207154 940.054779 124.364019 940.054779 122.44244 
C 940.054779 120.520861 939.291328 118.677726 937.932566 117.318965 
C 936.573805 115.960203 934.73067 115.196752 932.809091 115.196752 
C 930.887512 115.196752 929.044377 115.960203 927.685616 117.318965 
C 926.326854 118.677726 925.563403 120.520861 925.563403 122.44244 
C 925.563403 124.364019 926.326854 126.207154 927.685616 127.565915 
C 929.044377 128.924677 930.887512 129.688128 932.809091 129.688128 
z
" clip-path="url(#p80a5266313)" style="fill: #1f77b4; fill-opacity: 0.3; stroke: #1f77b4; stroke-opacity: 0.3"/>
    <path d="M 945.490909 123.196729 
C 947.669775 123.196729 949.759693 122.331057 951.300384 120.790366 
C 952.841075 119.249675 953.706747 117.159757 953.706747 114.980891 
C 953.706747 112.802025 952.841075 110.712107 951.300384 109.171416 
C 949.759693 107.630725 947.669775 106.765053 945.490909 106.765053 
C 943.312043 106.765053 941.222125 107.630725 939.681434 109.171416 
C 938.140743 110.712107 937.275071 112.802025 937.275071 114.980891 
C 937.275071 117.159757 938.140743 119.249675 939.681434 120.790366 
C 941.222125 122.331057 943.312043 123.196729 945.490909 123.196729 
z
" clip-path="url(#p80a5266313)" style="fill: #1f77b4; fill-opacity: 0.3; stroke: #1f77b4; stroke-opacity: 0.3"/>
    <path d="M 958.172727 116.423152 
C 960.094306 116.423152 961.937441 115.659701 963.296203 114.300939 
C 964.654964 112.942178 965.418416 111.099043 965.418416 109.177464 
C 965.418416 107.255885 964.654964 105.41275 963.296203 104.053989 
C 961.937441 102.695227 960.094306 101.931776 958.172727 101.931776 
C 956.251148 101.931776 954.408013 102.695227 953.049252 104.053989 
C 951.69049 105.41275 950.927039 107.255885 950.927039 109.177464 
C 950.927039 111.099043 951.69049 112.942178 953.049252 114.300939 
C 954.408013 115.659701 956.251148 116.423152 958.172727 116.423152 
z
" clip-path="url(#p80a5266313)" style="fill: #1f77b4; fill-opacity: 0.3; stroke: #1f77b4; stroke-opacity: 0.3"/>
    <path d="M 970.854545 109.547108 
C 973.151272 109.547108 975.354239 108.634609 976.97827 107.010578 
C 978.6023 105.386548 979.514799 103.18358 979.514799 100.886854 
C 979.514799 98.590128 978.6023 96.38716 976.97827 94.76313 
C 975.354239 93.139099 973.151272 92.2266 970.854545 92.2266 
C 968.557819 92.2266 966.354852 93.139099 964.730821 94.76313 
C 963.10679 96.38716 962.194291 98.590128 962.194291 100.886854 
C 962.194291 103.18358 963.10679 105.386548 964.730821 107.010578 
C 966.354852 108.634609 968.557819 109.547108 970.854545 109.547108 
z
" clip-path="url(#p80a5266313)" style="fill: #1f77b4; fill-opacity: 0.3; stroke: #1f77b4; stroke-opacity: 0.3"/>
    <path d="M 983.536364 102.620692 
C 985.3154 102.620692 987.021811 101.913873 988.27978 100.655904 
C 989.537749 99.397936 990.244568 97.691524 990.244568 95.912488 
C 990.244568 94.133452 989.537749 92.42704 988.27978 91.169072 
C 987.021811 89.911103 985.3154 89.204284 983.536364 89.204284 
C 981.757327 89.204284 980.050916 89.911103 978.792947 91.169072 
C 977.534978 92.42704 976.82816 94.133452 976.82816 95.912488 
C 976.82816 97.691524 977.534978 99.397936 978.792947 100.655904 
C 980.050916 101.913873 981.757327 102.620692 983.536364 102.620692 
z
" clip-path="url(#p80a5266313)" style="fill: #1f77b4; fill-opacity: 0.3; stroke: #1f77b4; stroke-opacity: 0.3"/>
    <path d="M 996.218182 97.025967 
C 998.272436 97.025967 1000.24283 96.209803 1001.695407 94.757226 
C 1003.147985 93.304648 1003.964149 91.334254 1003.964149 89.28 
C 1003.964149 87.225746 1003.147985 85.255352 1001.695407 83.802774 
C 1000.24283 82.350197 998.272436 81.534033 996.218182 81.534033 
C 994.163927 81.534033 992.193533 82.350197 990.740956 83.802774 
C 989.288379 85.255352 988.472215 87.225746 988.472215 89.28 
C 988.472215 91.334254 989.288379 93.304648 990.740956 94.757226 
C 992.193533 96.209803 994.163927 97.025967 996.218182 97.025967 
z
" clip-path="url(#p80a5266313)" style="fill: #1f77b4; fill-opacity: 0.3; stroke: #1f77b4; stroke-opacity: 0.3"/>
   </g>
   <g id="matplotlib.axis_1">
    <g id="xtick_1">
     <g id="line2d_1">
      <defs>
       <path id="m6ec1dbd28a" d="M 0 0 
L 0 3.5 
" style="stroke: #000000; stroke-width: 0.8"/>
      </defs>
      <g>
       <use xlink:href="#m6ec1dbd28a" x="184.581818" y="512.64" style="stroke: #000000; stroke-width: 0.8"/>
      </g>
     </g>
     <g id="text_1">
      <!-- 2026-01-01 -->
      <g transform="translate(155.524006 527.238438) scale(0.1 -0.1)">
       <defs>
        <path id="DejaVuSans-32" d="M 1228 531 
L 3431 531 
L 3431 0 
L 469 0 
L 469 531 
Q 828 903 1448 1529 
Q 2069 2156 2228 2338 
Q 2531 2678 2651 2914 
Q 2772 3150 2772 3378 
Q 2772 3750 2511 3984 
Q 2250 4219 1831 4219 
Q 1534 4219 1204 4116 
Q 875 4013 500 3803 
L 500 4441 
Q 881 4594 1212 4672 
Q 1544 4750 1819 4750 
Q 2544 4750 2975 4387 
Q 3406 4025 3406 3419 
Q 3406 3131 3298 2873 
Q 3191 2616 2906 2266 
Q 2828 2175 2409 1742 
Q 1991 1309 1228 531 
z
" transform="scale(0.015625)"/>
        <path id="DejaVuSans-30" d="M 2034 4250 
Q 1547 4250 1301 3770 
Q 1056 3291 1056 2328 
Q 1056 1369 1301 889 
Q 1547 409 2034 409 
Q 2525 409 2770 889 
Q 3016 1369 3016 2328 
Q 3016 3291 2770 3770 
Q 2525 4250 2034 4250 
z
M 2034 4750 
Q 2819 4750 3233 4129 
Q 3647 3509 3647 2328 
Q 3647 1150 3233 529 
Q 2819 -91 2034 -91 
Q 1250 -91 836 529 
Q 422 1150 422 2328 
Q 422 3509 836 4129 
Q 1250 4750 2034 4750 
z
" transform="scale(0.015625)"/>
        <path id="DejaVuSans-36" d="M 2113 2584 
Q 1688 2584 1439 2293 
Q 1191 2003 1191 1497 
Q 1191 994 1439 701 
Q 1688 409 2113 409 
Q 2538 409 2786 701 
Q 3034 994 3034 1497 
Q 3034 2003 2786 2293 
Q 2538 2584 2113 2584 
z
M 3366 4563 
L 3366 3988 
Q 3128 4100 2886 4159 
Q 2644 4219 2406 4219 
Q 1781 4219 1451 3797 
Q 1122 3375 1075 2522 
Q 1259 2794 1537 2939 
Q 1816 3084 2150 3084 
Q 2853 3084 3261 2657 
Q 3669 2231 3669 1497 
Q 3669 778 3244 343 
Q 2819 -91 2113 -91 
Q 1303 -91 875 529 
Q 447 1150 447 2328 
Q 447 3434 972 4092 
Q 1497 4750 2381 4750 
Q 2619 4750 2861 4703 
Q 3103 4656 3366 4563 
z
" transform="scale(0.015625)"/>
        <path id="DejaVuSans-2d" d="M 313 2009 
L 1997 2009 
L 1997 1497 
L 313 1497 
L 313 2009 
z
" transform="scale(0.015625)"/>
        <path id="DejaVuSans-31" d="M 794 531 
L 1825 531 
L 1825 4091 
L 703 3866 
L 703 4441 
L 1819 4666 
L 2450 4666 
L 2450 531 
L 3481 531 
L 3481 0 
L 794 0 
L 794 531 
z
" transform="scale(0.015625)"/>
       </defs>
       <use xlink:href="#DejaVuSans-32"/>
       <use xlink:href="#DejaVuSans-30" x="63.623047"/>
       <use xlink:href="#DejaVuSans-32" x="127.246094"/>
       <use xlink:href="#DejaVuSans-36" x="190.869141"/>
       <use xlink:href="#DejaVuSans-2d" x="254.492188"/>
       <use xlink:href="#DejaVuSans-30" x="290.576172"/>
       <use xlink:href="#DejaVuSans-31" x="354.199219"/>
       <use xlink:href="#DejaVuSans-2d" x="417.822266"/>
       <use xlink:href="#DejaVuSans-30" x="453.90625"/>
       <use xlink:href="#DejaVuSans-31" x="517.529297"/>
      </g>
     </g>
    </g>
    <g id="xtick_2">
     <g id="line2d_2">
      <g>
       <use xlink:href="#m6ec1dbd28a" x="273.354545" y="512.64" style="stroke: #000000; stroke-width: 0.8"/>
      </g>
     </g>
     <g id="text_2">
      <!-- 2026-01-08 -->
      <g transform="translate(244.296733 527.238438) scale(0.1 -0.1)">
       <defs>
        <path id="DejaVuSans-38" d="M 2034 2216 
Q 1584 2216 1326 1975 
Q 1069 1734 1069 1313 
Q 1069 891 1326 650 
Q 1584 409 2034 409 
Q 2484 409 2743 651 
Q 3003 894 3003 1313 
Q 3003 1734 2745 1975 
Q 2488 2216 2034 2216 
z
M 1403 2484 
Q 997 2584 770 2862 
Q 544 3141 544 3541 
Q 544 4100 942 4425 
Q 1341 4750 2034 4750 
Q 2731 4750 3128 4425 
Q 3525 4100 3525 3541 
Q 3525 3141 3298 2862 
Q 3072 2584 2669 2484 
Q 3125 2378 3379 2068 
Q 3634 1759 3634 1313 
Q 3634 634 3220 271 
Q 2806 -91 2034 -91 
Q 1263 -91 848 271 
Q 434 634 434 1313 
Q 434 1759 690 2068 
Q 947 2378 1403 2484 
z
M 1172 3481 
Q 1172 3119 1398 2916 
Q 1625 2713 2034 2713 
Q 2441 2713 2670 2916 
Q 2900 3119 2900 3481 
Q 2900 3844 2670 4047 
Q 2441 4250 2034 4250 
Q 1625 4250 1398 4047 
Q 1172 3844 1172 3481 
z
" transform="scale(0.015625)"/>
       </defs>
       <use xlink:href="#DejaVuSans-32"/>
       <use xlink:href="#DejaVuSans-30" x="63.623047"/>
       <use xlink:href="#DejaVuSans-32" x="127.246094"/>
       <use xlink:href="#DejaVuSans-36" x="190.869141"/>
       <use xlink:href="#DejaVuSans-2d" x="254.492188"/>
       <use xlink:href="#DejaVuSans-30" x="290.576172"/>
       <use xlink:href="#DejaVuSans-31" x="354.199219"/>
       <use xlink:href="#DejaVuSans-2d" x="417.822266"/>
       <use xlink:href="#DejaVuSans-30" x="453.90625"/>
       <use xlink:href="#DejaVuSans-38" x="517.529297"/>
      </g>
     </g>
    </g>
    <g id="xtick_3">
     <g id="line2d_3">
      <g>
       <use xlink:href="#m6ec1dbd28a" x="362.127273" y="512.64" style="stroke: #000000; stroke-width: 0.8"/>
      </g>
     </g>
     <g id="text_3">
      <!-- 2026-01-15 -->
      <g transform="translate(333.06946 527.238438) scale(0.1 -0.1)">
       <defs>
        <path id="DejaVuSans-35" d="M 691 4666 
L 3169 4666 
L 3169 4134 
L 1269 4134 
L 1269 2991 
Q 1406 3038 1543 3061 
Q 1681 3084 1819 3084 
Q 2600 3084 3056 2656 
Q 3513 2228 3513 1497 
Q 3513 744 3044 326 
Q 2575 -91 1722 -91 
Q 1428 -91 1123 -41 
Q 819 9 494 109 
L 494 744 
Q 775 591 1075 516 
Q 1375 441 1709 441 
Q 2250 441 2565 725 
Q 2881 1009 2881 1497 
Q 2881 1984 2565 2268 
Q 2250 2553 1709 2553 
Q 1456 2553 1204 2497 
Q 953 2441 691 2322 
L 691 4666 
z
" transform="scale(0.015625)"/>
       </defs>
       <use xlink:href="#DejaVuSans-32"/>
       <use xlink:href="#DejaVuSans-30" x="63.623047"/>
       <use xlink:href="#DejaVuSans-32" x="127.246094"/>
       <use xlink:href="#DejaVuSans-36" x="190.869141"/>
       <use xlink:href="#DejaVuSans-2d" x="254.492188"/>
       <use xlink:href="#DejaVuSans-30" x="290.576172"/>
       <use xlink:href="#DejaVuSans-31" x="354.199219"/>
       <use xlink:href="#DejaVuSans-2d" x="417.822266"/>
       <use xlink:href="#DejaVuSans-31" x="453.90625"/>
       <use xlink:href="#DejaVuSans-35" x="517.529297"/>
      </g>
     </g>
    </g>
    <g id="xtick_4">
     <g id="line2d_4">
      <g>
       <use xlink:href="#m6ec1dbd28a" x="450.9" y="512.64" style="stroke: #000000; stroke-width: 0.8"/>
      </g>
     </g>
     <g id="text_4">
      <!-- 2026-01-22 -->
      <g transform="translate(421.842187 527.238438) scale(0.1 -0.1)">
       <use xlink:href="#DejaVuSans-32"/>
       <use xlink:href="#DejaVuSans-30" x="63.623047"/>
       <use xlink:href="#DejaVuSans-32" x="127.246094"/>
       <use xlink:href="#DejaVuSans-36" x="190.869141"/>
       <use xlink:href="#DejaVuSans-2d" x="254.492188"/>
       <use xlink:href="#DejaVuSans-30" x="290.576172"/>
       <use xlink:href="#DejaVuSans-31" x="354.199219"/>
       <use xlink:href="#DejaVuSans-2d" x="417.822266"/>
       <use xlink:href="#DejaVuSans-32" x="453.90625"/>
       <use xlink:href="#DejaVuSans-32" x="517.529297"/>
      </g>
     </g>
    </g>
    <g id="xtick_5">
     <g id="line2d_5">
      <g>
       <use xlink:href="#m6ec1dbd28a" x="577.718182" y="512.64" style="stroke: #000000; stroke-width: 0.8"/>
      </g>
     </g>
     <g id="text_5">
      <!-- 2026-02-01 -->
      <g transform="translate(548.660369 527.238438) scale(0.1 -0.1)">
       <use xlink:href="#DejaVuSans-32"/>
       <use xlink:href="#DejaVuSans-30" x="63.623047"/>
       <use xlink:href="#DejaVuSans-32" x="127.246094"/>
       <use xlink:href="#DejaVuSans-36" x="190.869141"/>
       <use xlink:href="#DejaVuSans-2d" x="254.492188"/>
       <use xlink:href="#DejaVuSans-30" x="290.576172"/>
       <use xlink:href="#DejaVuSans-32" x="354.199219"/>
       <use xlink:href="#DejaVuSans-2d" x="417.822266"/>
       <use xlink:href="#DejaVuSans-30" x="453.90625"/>
       <use xlink:href="#DejaVuSans-31" x="517.529297"/>
      </g>
     </g>
    </g>
    <g id="xtick_6">
     <g id="line2d_6">
      <g>
       <use xlink:href="#m6ec1dbd28a" x="666.490909" y="512.64" style="stroke: #000000; stroke-width: 0.8"/>
      </g>
     </g>
     <g id="text_6">
      <!-- 2026-02-08 -->
      <g transform="translate(637.433097 527.238438) scale(0.1 -0.1)">
       <use xlink:href="#DejaVuSans-32"/>
       <use xlink:href="#DejaVuSans-30" x="63.623047"/>
       <use xlink:href="#DejaVuSans-32" x="127.246094"/>
       <use xlink:href="#DejaVuSans-36" x="190.869141"/>
       <use xlink:href="#DejaVuSans-2d" x="254.492188"/>
       <use xlink:href="#DejaVuSans-30" x="290.576172"/>
       <use xlink:href="#DejaVuSans-32" x="354.199219"/>
       <use xlink:href="#DejaVuSans-2d" x="417.822266"/>
       <use xlink:href="#DejaVuSans-30" x="453.90625"/>
       <use xlink:href="#DejaVuSans-38" x="517.529297"/>
      </g>
     </g>
    </g>
    <g id="xtick_7">
     <g id="line2d_7">
      <g>
       <use xlink:href="#m6ec1dbd28a" x="755.263636" y="512.64" style="stroke: #000000; stroke-width: 0.8"/>
      </g>
     </g>
     <g id="text_7">
      <!-- 2026-02-15 -->
      <g transform="translate(726.205824 527.238438) scale(0.1 -0.1)">
       <use xlink:href="#DejaVuSans-32"/>
       <use xlink:href="#DejaVuSans-30" x="63.623047"/>
       <use xlink:href="#DejaVuSans-32" x="127.246094"/>
       <use xlink:href="#DejaVuSans-36" x="190.869141"/>
       <use xlink:href="#DejaVuSans-2d" x="254.492188"/>
       <use xlink:href="#DejaVuSans-30" x="290.576172"/>
       <use xlink:href="#DejaVuSans-32" x="354.199219"/>
       <use xlink:href="#DejaVuSans-2d" x="417.822266"/>
       <use xlink:href="#DejaVuSans-31" x="453.90625"/>
       <use xlink:href="#DejaVuSans-35" x="517.529297"/>
      </g>
     </g>
    </g>
    <g id="xtick_8">
     <g id="line2d_8">
      <g>
       <use xlink:href="#m6ec1dbd28a" x="844.036364" y="512.64" style="stroke: #000000; stroke-width: 0.8"/>
      </g>
     </g>
     <g id="text_8">
      <!-- 2026-02-22 -->
      <g transform="translate(814.978551 527.238438) scale(0.1 -0.1)">
       <use xlink:href="#DejaVuSans-32"/>
       <use xlink:href="#DejaVuSans-30" x="63.623047"/>
       <use xlink:href="#DejaVuSans-32" x="127.246094"/>
       <use xlink:href="#DejaVuSans-36" x="190.869141"/>
       <use xlink:href="#DejaVuSans-2d" x="254.492188"/>
       <use xlink:href="#DejaVuSans-30" x="290.576172"/>
       <use xlink:href="#DejaVuSans-32" x="354.199219"/>
       <use xlink:href="#DejaVuSans-2d" x="417.822266"/>
       <use xlink:href="#DejaVuSans-32" x="453.90625"/>
       <use xlink:href="#DejaVuSans-32" x="517.529297"/>
      </g>
     </g>
    </g>
    <g id="xtick_9">
     <g id="line2d_9">
      <g>
       <use xlink:href="#m6ec1dbd28a" x="932.809091" y="512.64" style="stroke: #000000; stroke-width: 0.8"/>
      </g>
     </g>
     <g id="text_9">
      <!-- 2026-03-01 -->
      <g transform="translate(903.751278 527.238438) scale(0.1 -0.1)">
       <defs>
        <path id="DejaVuSans-33" d="M 2597 2516 
Q 3050 2419 3304 2112 
Q 3559 1806 3559 1356 
Q 3559 666 3084 287 
Q 2609 -91 1734 -91 
Q 1441 -91 1130 -33 
Q 819 25 488 141 
L 488 750 
Q 750 597 1062 519 
Q 1375 441 1716 441 
Q 2309 441 2620 675 
Q 2931 909 2931 1356 
Q 2931 1769 2642 2001 
Q 2353 2234 1838 2234 
L 1294 2234 
L 1294 2753 
L 1863 2753 
Q 2328 2753 2575 2939 
Q 2822 3125 2822 3475 
Q 2822 3834 2567 4026 
Q 2313 4219 1838 4219 
Q 1578 4219 1281 4162 
Q 984 4106 628 3988 
L 628 4550 
Q 988 4650 1302 4700 
Q 1616 4750 1894 4750 
Q 2613 4750 3031 4423 
Q 3450 4097 3450 3541 
Q 3450 3153 3228 2886 
Q 3006 2619 2597 2516 
z
" transform="scale(0.015625)"/>
       </defs>
       <use xlink:href="#DejaVuSans-32"/>
       <use xlink:href="#DejaVuSans-30" x="63.623047"/>
       <use xlink:href="#DejaVuSans-32" x="127.246094"/>
       <use xlink:href="#DejaVuSans-36" x="190.869141"/>
       <use xlink:href="#DejaVuSans-2d" x="254.492188"/>
       <use xlink:href="#DejaVuSans-30" x="290.576172"/>
       <use xlink:href="#DejaVuSans-33" x="354.199219"/>
       <use xlink:href="#DejaVuSans-2d" x="417.822266"/>
       <use xlink:href="#DejaVuSans-30" x="453.90625"/>
       <use xlink:href="#DejaVuSans-31" x="517.529297"/>
      </g>
     </g>
    </g>
    <g id="xtick_10">
     <g id="line2d_10">
      <g>
       <use xlink:href="#m6ec1dbd28a" x="1021.581818" y="512.64" style="stroke: #000000; stroke-width: 0.8"/>
      </g>
     </g>
     <g id="text_10">
      <!-- 2026-03-08 -->
      <g transform="translate(992.524006 527.238438) scale(0.1 -0.1)">
       <use xlink:href="#DejaVuSans-32"/>
       <use xlink:href="#DejaVuSans-30" x="63.623047"/>
       <use xlink:href="#DejaVuSans-32" x="127.246094"/>
       <use xlink:href="#DejaVuSans-36" x="190.869141"/>
       <use xlink:href="#DejaVuSans-2d" x="254.492188"/>
       <use xlink:href="#DejaVuSans-30" x="290.576172"/>
       <use xlink:href="#DejaVuSans-33" x="354.199219"/>
       <use xlink:href="#DejaVuSans-2d" x="417.822266"/>
       <use xlink:href="#DejaVuSans-30" x="453.90625"/>
       <use xlink:href="#DejaVuSans-38" x="517.529297"/>
      </g>
     </g>
    </g>
   </g>
   <g id="matplotlib.axis_2">
    <g id="ytick_1">
     <g id="line2d_11">
      <defs>
       <path id="m427878af45" d="M 0 0 
L -3.5 0 
" style="stroke: #000000; stroke-width: 0.8"/>
      </defs>
      <g>
       <use xlink:href="#m427878af45" x="144" y="461.804743" style="stroke: #000000; stroke-width: 0.8"/>
      </g>
     </g>
     <g id="text_11">
      <!-- 13200 -->
      <g transform="translate(105.1875 465.603962) scale(0.1 -0.1)">
       <use xlink:href="#DejaVuSans-31"/>
       <use xlink:href="#DejaVuSans-33" x="63.623047"/>
       <use xlink:href="#DejaVuSans-32" x="127.246094"/>
       <use xlink:href="#DejaVuSans-30" x="190.869141"/>
       <use xlink:href="#DejaVuSans-30" x="254.492188"/>
      </g>
     </g>
    </g>
    <g id="ytick_2">
     <g id="line2d_12">
      <g>
       <use xlink:href="#m427878af45" x="144" y="406.53401" style="stroke: #000000; stroke-width: 0.8"/>
      </g>
     </g>
     <g id="text_12">
      <!-- 13400 -->
      <g transform="translate(105.1875 410.333228) scale(0.1 -0.1)">
       <defs>
        <path id="DejaVuSans-34" d="M 2419 4116 
L 825 1625 
L 2419 1625 
L 2419 4116 
z
M 2253 4666 
L 3047 4666 
L 3047 1625 
L 3713 1625 
L 3713 1100 
L 3047 1100 
L 3047 0 
L 2419 0 
L 2419 1100 
L 313 1100 
L 313 1709 
L 2253 4666 
z
" transform="scale(0.015625)"/>
       </defs>
       <use xlink:href="#DejaVuSans-31"/>
       <use xlink:href="#DejaVuSans-33" x="63.623047"/>
       <use xlink:href="#DejaVuSans-34" x="127.246094"/>
       <use xlink:href="#DejaVuSans-30" x="190.869141"/>
       <use xlink:href="#DejaVuSans-30" x="254.492188"/>
      </g>
     </g>
    </g>
    <g id="ytick_3">
     <g id="line2d_13">
      <g>
       <use xlink:href="#m427878af45" x="144" y="351.263276" style="stroke: #000000; stroke-width: 0.8"/>
      </g>
     </g>
     <g id="text_13">
      <!-- 13600 -->
      <g transform="translate(105.1875 355.062495) scale(0.1 -0.1)">
       <use xlink:href="#DejaVuSans-31"/>
       <use xlink:href="#DejaVuSans-33" x="63.623047"/>
       <use xlink:href="#DejaVuSans-36" x="127.246094"/>
       <use xlink:href="#DejaVuSans-30" x="190.869141"/>
       <use xlink:href="#DejaVuSans-30" x="254.492188"/>
      </g>
     </g>
    </g>
    <g id="ytick_4">
     <g id="line2d_14">
      <g>
       <use xlink:href="#m427878af45" x="144" y="295.992543" style="stroke: #000000; stroke-width: 0.8"/>
      </g>
     </g>
     <g id="text_14">
      <!-- 13800 -->
      <g transform="translate(105.1875 299.791762) scale(0.1 -0.1)">
       <use xlink:href="#DejaVuSans-31"/>
       <use xlink:href="#DejaVuSans-33" x="63.623047"/>
       <use xlink:href="#DejaVuSans-38" x="127.246094"/>
       <use xlink:href="#DejaVuSans-30" x="190.869141"/>
       <use xlink:href="#DejaVuSans-30" x="254.492188"/>
      </g>
     </g>
    </g>
    <g id="ytick_5">
     <g id="line2d_15">
      <g>
       <use xlink:href="#m427878af45" x="144" y="240.721809" style="stroke: #000000; stroke-width: 0.8"/>
      </g>
     </g>
     <g id="text_15">
      <!-- 14000 -->
      <g transform="translate(105.1875 244.521028) scale(0.1 -0.1)">
       <use xlink:href="#DejaVuSans-31"/>
       <use xlink:href="#DejaVuSans-34" x="63.623047"/>
       <use xlink:href="#DejaVuSans-30" x="127.246094"/>
       <use xlink:href="#DejaVuSans-30" x="190.869141"/>
       <use xlink:href="#DejaVuSans-30" x="254.492188"/>
      </g>
     </g>
    </g>
    <g id="ytick_6">
     <g id="line2d_16">
      <g>
       <use xlink:href="#m427878af45" x="144" y="185.451076" style="stroke: #000000; stroke-width: 0.8"/>
      </g>
     </g>
     <g id="text_16">
      <!-- 14200 -->
      <g transform="translate(105.1875 189.250295) scale(0.1 -0.1)">
       <use xlink:href="#DejaVuSans-31"/>
       <use xlink:href="#DejaVuSans-34" x="63.623047"/>
       <use xlink:href="#DejaVuSans-32" x="127.246094"/>
       <use xlink:href="#DejaVuSans-30" x="190.869141"/>
       <use xlink:href="#DejaVuSans-30" x="254.492188"/>
      </g>
     </g>
    </g>
    <g id="ytick_7">
     <g id="line2d_17">
      <g>
       <use xlink:href="#m427878af45" x="144" y="130.180343" style="stroke: #000000; stroke-width: 0.8"/>
      </g>
     </g>
     <g id="text_17">
      <!-- 14400 -->
      <g transform="translate(105.1875 133.979561) scale(0.1 -0.1)">
       <use xlink:href="#DejaVuSans-31"/>
       <use xlink:href="#DejaVuSans-34" x="63.623047"/>
       <use xlink:href="#DejaVuSans-34" x="127.246094"/>
       <use xlink:href="#DejaVuSans-30" x="190.869141"/>
       <use xlink:href="#DejaVuSans-30" x="254.492188"/>
      </g>
     </g>
    </g>
    <g id="ytick_8">
     <g id="line2d_18">
      <g>
       <use xlink:href="#m427878af45" x="144" y="74.909609" style="stroke: #000000; stroke-width: 0.8"/>
      </g>
     </g>
     <g id="text_18">
      <!-- 14600 -->
      <g transform="translate(105.1875 78.708828) scale(0.1 -0.1)">
       <use xlink:href="#DejaVuSans-31"/>
       <use xlink:href="#DejaVuSans-34" x="63.623047"/>
       <use xlink:href="#DejaVuSans-36" x="127.246094"/>
       <use xlink:href="#DejaVuSans-30" x="190.869141"/>
       <use xlink:href="#DejaVuSans-30" x="254.492188"/>
      </g>
     </g>
    </g>
   </g>
   <g id="line2d_19">
    <path d="M 184.581818 492.48 
L 197.263636 487.781988 
L 209.945455 480.044085 
L 222.627273 477.004195 
L 235.309091 475.622426 
L 247.990909 470.924414 
L 260.672727 466.502755 
L 273.354545 455.724962 
L 286.036364 450.197889 
L 298.718182 447.434352 
L 311.4 446.881645 
L 324.081818 435.827498 
L 336.763636 428.918657 
L 349.445455 425.326059 
L 362.127273 416.482742 
L 374.809091 404.599534 
L 387.490909 403.494119 
L 400.172727 400.454229 
L 412.854545 392.99268 
L 425.536364 389.676436 
L 438.218182 375.858753 
L 450.9 368.397204 
L 463.581818 361.764716 
L 476.263636 353.750459 
L 488.945455 352.645045 
L 501.627273 351.53963 
L 514.309091 341.314544 
L 526.990909 327.496861 
L 539.672727 318.653544 
L 552.354545 311.191995 
L 565.036364 310.08658 
L 577.718182 307.04669 
L 590.4 301.519616 
L 603.081818 294.887128 
L 615.763636 292.676299 
L 628.445455 284.938396 
L 641.127273 280.240384 
L 653.809091 277.200493 
L 666.490909 266.4227 
L 679.172727 263.106456 
L 691.854545 253.710432 
L 704.536364 248.183358 
L 717.218182 244.867114 
L 729.9 239.340041 
L 742.581818 236.852858 
L 755.263636 226.627772 
L 767.945455 213.086443 
L 780.627273 210.59926 
L 793.309091 205.072186 
L 805.990909 199.545113 
L 818.672727 194.570747 
L 831.354545 188.76732 
L 844.036364 180.47671 
L 856.718182 171.909746 
L 869.4 160.026539 
L 882.081818 154.223112 
L 894.763636 137.918245 
L 907.445455 131.562111 
L 920.127273 128.245867 
L 932.809091 122.44244 
L 945.490909 114.980891 
L 958.172727 109.177464 
L 970.854545 100.886854 
L 983.536364 95.912488 
L 996.218182 89.28 
" clip-path="url(#p80a5266313)" style="fill: none; stroke: #1f77b4; stroke-width: 1.5; stroke-linecap: square"/>
   </g>
   <g id="patch_3">
    <path d="M 144 512.64 
L 144 69.12 
" style="fill: none; stroke: #000000; stroke-width: 0.8; stroke-linejoin: miter; stroke-linecap: square"/>
   </g>
   <g id="patch_4">
    <path d="M 1036.8 512.64 
L 1036.8 69.12 
" style="fill: none; stroke: #000000; stroke-width: 0.8; stroke-linejoin: miter; stroke-linecap: square"/>
   </g>
   <g id="patch_5">
    <path d="M 144 512.64 
L 1036.8 512.64 
" style="fill: none; stroke: #000000; stroke-width: 0.8; stroke-linejoin: miter; stroke-linecap: square"/>
   </g>
   <g id="patch_6">
    <path d="M 144 69.12 
L 1036.8 69.12 
" style="fill: none; stroke: #000000; stroke-width: 0.8; stroke-linejoin: miter; stroke-linecap: square"/>
   </g>
   <g id="text_19">
    <!-- Number of AEDs in the OpenStreetMap database in Poland from 2026-01-01, day by day. As at: 2026-03-06 -->
    <g transform="translate(144 63.12) scale(0.14 -0.14)">
     <defs>
      <path id="DejaVuSans-4e" d="M 628 4666 
L 1478 4666 
L 3547 763 
L 3547 4666 
L 4159 4666 
L 4159 0 
L 3309 0 
L 1241 3903 
L 1241 0 
L 628 0 
L 628 4666 
z
" transform="scale(0.015625)"/>
      <path id="DejaVuSans-75" d="M 544 1381 
L 544 3500 
L 1119 3500 
L 1119 1403 
Q 1119 906 1312 657 
Q 1506 409 1894 409 
Q 2359 409 2629 706 
Q 2900 1003 2900 1516 
L 2900 3500 
L 3475 3500 
L 3475 0 
L 2900 0 
L 2900 538 
Q 2691 219 2414 64 
Q 2138 -91 1772 -91 
Q 1169 -91 856 284 
Q 544 659 544 1381 
z
M 1991 3584 
L 1991 3584 
z
" transform="scale(0.015625)"/>
      <path id="DejaVuSans-6d" d="M 3328 2828 
Q 3544 3216 3844 3400 
Q 4144 3584 4550 3584 
Q 5097 3584 5394 3201 
Q 5691 2819 5691 2113 
L 5691 0 
L 5113 0 
L 5113 2094 
Q 5113 2597 4934 2840 
Q 4756 3084 4391 3084 
Q 3944 3084 3684 2787 
Q 3425 2491 3425 1978 
L 3425 0 
L 2847 0 
L 2847 2094 
Q 2847 2600 2669 2842 
Q 2491 3084 2119 3084 
Q 1678 3084 1418 2786 
Q 1159 2488 1159 1978 
L 1159 0 
L 581 0 
L 581 3500 
L 1159 3500 
L 1159 2956 
Q 1356 3278 1631 3431 
Q 1906 3584 2284 3584 
Q 2666 3584 2933 3390 
Q 3200 3197 3328 2828 
z
" transform="scale(0.015625)"/>
      <path id="DejaVuSans-62" d="M 3116 1747 
Q 3116 2381 2855 2742 
Q 2594 3103 2138 3103 
Q 1681 3103 1420 2742 
Q 1159 2381 1159 1747 
Q 1159 1113 1420 752 
Q 1681 391 2138 391 
Q 2594 391 2855 752 
Q 3116 1113 3116 1747 
z
M 1159 2969 
Q 1341 3281 1617 3432 
Q 1894 3584 2278 3584 
Q 2916 3584 3314 3078 
Q 3713 2572 3713 1747 
Q 3713 922 3314 415 
Q 2916 -91 2278 -91 
Q 1894 -91 1617 61 
Q 1341 213 1159 525 
L 1159 0 
L 581 0 
L 581 4863 
L 1159 4863 
L 1159 2969 
z
" transform="scale(0.015625)"/>
      <path id="DejaVuSans-65" d="M 3597 1894 
L 3597 1613 
L 953 1613 
Q 991 1019 1311 708 
Q 1631 397 2203 397 
Q 2534 397 2845 478 
Q 3156 559 3463 722 
L 3463 178 
Q 3153 47 2828 -22 
Q 2503 -91 2169 -91 
Q 1331 -91 842 396 
Q 353 884 353 1716 
Q 353 2575 817 3079 
Q 1281 3584 2069 3584 
Q 2775 3584 3186 3129 
Q 3597 2675 3597 1894 
z
M 3022 2063 
Q 3016 2534 2758 2815 
Q 2500 3097 2075 3097 
Q 1594 3097 1305 2825 
Q 1016 2553 972 2059 
L 3022 2063 
z
" transform="scale(0.015625)"/>
      <path id="DejaVuSans-72" d="M 2631 2963 
Q 2534 3019 2420 3045 
Q 2306 3072 2169 3072 
Q 1681 3072 1420 2755 
Q 1159 2438 1159 1844 
L 1159 0 
L 581 0 
L 581 3500 
L 1159 3500 
L 1159 2956 
Q 1341 3275 1631 3429 
Q 1922 3584 2338 3584 
Q 2397 3584 2469 3576 
Q 2541 3569 2628 3553 
L 2631 2963 
z
" transform="scale(0.015625)"/>
      <path id="DejaVuSans-20" transform="scale(0.015625)"/>
      <path id="DejaVuSans-6f" d="M 1959 3097 
Q 1497 3097 1228 2736 
Q 959 2375 959 1747 
Q 959 1119 1226 758 
Q 1494 397 1959 397 
Q 2419 397 2687 759 
Q 2956 1122 2956 1747 
Q 2956 2369 2687 2733 
Q 2419 3097 1959 3097 
z
M 1959 3584 
Q 2709 3584 3137 3096 
Q 3566 2609 3566 1747 
Q 3566 888 3137 398 
Q 2709 -91 1959 -91 
Q 1206 -91 779 398 
Q 353 888 353 1747 
Q 353 2609 779 3096 
Q 1206 3584 1959 3584 
z
" transform="scale(0.015625)"/>
      <path id="DejaVuSans-66" d="M 2375 4863 
L 2375 4384 
L 1825 4384 
Q 1516 4384 1395 4259 
Q 1275 4134 1275 3809 
L 1275 3500 
L 2222 3500 
L 2222 3053 
L 1275 3053 
L 1275 0 
L 697 0 
L 697 3053 
L 147 3053 
L 147 3500 
L 697 3500 
L 697 3744 
Q 697 4328 969 4595 
Q 1241 4863 1831 4863 
L 2375 4863 
z
" transform="scale(0.015625)"/>
      <path id="DejaVuSans-41" d="M 2188 4044 
L 1331 1722 
L 3047 1722 
L 2188 4044 
z
M 1831 4666 
L 2547 4666 
L 4325 0 
L 3669 0 
L 3244 1197 
L 1141 1197 
L 716 0 
L 50 0 
L 1831 4666 
z
" transform="scale(0.015625)"/>
      <path id="DejaVuSans-45" d="M 628 4666 
L 3578 4666 
L 3578 4134 
L 1259 4134 
L 1259 2753 
L 3481 2753 
L 3481 2222 
L 1259 2222 
L 1259 531 
L 3634 531 
L 3634 0 
L 628 0 
L 628 4666 
z
" transform="scale(0.015625)"/>
      <path id="DejaVuSans-44" d="M 1259 4147 
L 1259 519 
L 2022 519 
Q 2988 519 3436 956 
Q 3884 1394 3884 2338 
Q 3884 3275 3436 3711 
Q 2988 4147 2022 4147 
L 1259 4147 
z
M 628 4666 
L 1925 4666 
Q 3281 4666 3915 4102 
Q 4550 3538 4550 2338 
Q 4550 1131 3912 565 
Q 3275 0 1925 0 
L 628 0 
L 628 4666 
z
" transform="scale(0.015625)"/>
      <path id="DejaVuSans-73" d="M 2834 3397 
L 2834 2853 
Q 2591 2978 2328 3040 
Q 2066 3103 1784 3103 
Q 1356 3103 1142 2972 
Q 928 2841 928 2578 
Q 928 2378 1081 2264 
Q 1234 2150 1697 2047 
L 1894 2003 
Q 2506 1872 2764 1633 
Q 3022 1394 3022 966 
Q 3022 478 2636 193 
Q 2250 -91 1575 -91 
Q 1294 -91 989 -36 
Q 684 19 347 128 
L 347 722 
Q 666 556 975 473 
Q 1284 391 1588 391 
Q 1994 391 2212 530 
Q 2431 669 2431 922 
Q 2431 1156 2273 1281 
Q 2116 1406 1581 1522 
L 1381 1569 
Q 847 1681 609 1914 
Q 372 2147 372 2553 
Q 372 3047 722 3315 
Q 1072 3584 1716 3584 
Q 2034 3584 2315 3537 
Q 2597 3491 2834 3397 
z
" transform="scale(0.015625)"/>
      <path id="DejaVuSans-69" d="M 603 3500 
L 1178 3500 
L 1178 0 
L 603 0 
L 603 3500 
z
M 603 4863 
L 1178 4863 
L 1178 4134 
L 603 4134 
L 603 4863 
z
" transform="scale(0.015625)"/>
      <path id="DejaVuSans-6e" d="M 3513 2113 
L 3513 0 
L 2938 0 
L 2938 2094 
Q 2938 2591 2744 2837 
Q 2550 3084 2163 3084 
Q 1697 3084 1428 2787 
Q 1159 2491 1159 1978 
L 1159 0 
L 581 0 
L 581 3500 
L 1159 3500 
L 1159 2956 
Q 1366 3272 1645 3428 
Q 1925 3584 2291 3584 
Q 2894 3584 3203 3211 
Q 3513 2838 3513 2113 
z
" transform="scale(0.015625)"/>
      <path id="DejaVuSans-74" d="M 1172 4494 
L 1172 3500 
L 2356 3500 
L 2356 3053 
L 1172 3053 
L 1172 1153 
Q 1172 725 1289 603 
Q 1406 481 1766 481 
L 2356 481 
L 2356 0 
L 1766 0 
Q 1100 0 847 248 
Q 594 497 594 1153 
L 594 3053 
L 172 3053 
L 172 3500 
L 594 3500 
L 594 4494 
L 1172 4494 
z
" transform="scale(0.015625)"/>
      <path id="DejaVuSans-68" d="M 3513 2113 
L 3513 0 
L 2938 0 
L 2938 2094 
Q 2938 2591 2744 2837 
Q 2550 3084 2163 3084 
Q 1697 3084 1428 2787 
Q 1159 2491 1159 1978 
L 1159 0 
L 581 0 
L 581 4863 
L 1159 4863 
L 1159 2956 
Q 1366 3272 1645 3428 
Q 1925 3584 2291 3584 
Q 2894 3584 3203 3211 
Q 3513 2838 3513 2113 
z
" transform="scale(0.015625)"/>
      <path id="DejaVuSans-4f" d="M 2522 4238 
Q 1834 4238 1429 3725 
Q 1025 3213 1025 2328 
Q 1025 1447 1429 934 
Q 1834 422 2522 422 
Q 3209 422 3611 934 
Q 4013 1447 4013 2328 
Q 4013 3213 3611 3725 
Q 3209 4238 2522 4238 
z
M 2522 4750 
Q 3503 4750 4090 4092 
Q 4678 3434 4678 2328 
Q 4678 1225 4090 567 
Q 3503 -91 2522 -91 
Q 1538 -91 948 565 
Q 359 1222 359 2328 
Q 359 3434 948 4092 
Q 1538 4750 2522 4750 
z
" transform="scale(0.015625)"/>
      <path id="DejaVuSans-70" d="M 1159 525 
L 1159 -1331 
L 581 -1331 
L 581 3500 
L 1159 3500 
L 1159 2969 
Q 1341 3281 1617 3432 
Q 1894 3584 2278 3584 
Q 2916 3584 3314 3078 
Q 3713 2572 3713 1747 
Q 3713 922 3314 415 
Q 2916 -91 2278 -91 
Q 1894 -91 1617 61 
Q 1341 213 1159 525 
z
M 3116 1747 
Q 3116 2381 2855 2742 
Q 2594 3103 2138 3103 
Q 1681 3103 1420 2742 
Q 1159 2381 1159 1747 
Q 1159 1113 1420 752 
Q 1681 391 2138 391 
Q 2594 391 2855 752 
Q 3116 1113 3116 1747 
z
" transform="scale(0.015625)"/>
      <path id="DejaVuSans-53" d="M 3425 4513 
L 3425 3897 
Q 3066 4069 2747 4153 
Q 2428 4238 2131 4238 
Q 1616 4238 1336 4038 
Q 1056 3838 1056 3469 
Q 1056 3159 1242 3001 
Q 1428 2844 1947 2747 
L 2328 2669 
Q 3034 2534 3370 2195 
Q 3706 1856 3706 1288 
Q 3706 609 3251 259 
Q 2797 -91 1919 -91 
Q 1588 -91 1214 -16 
Q 841 59 441 206 
L 441 856 
Q 825 641 1194 531 
Q 1563 422 1919 422 
Q 2459 422 2753 634 
Q 3047 847 3047 1241 
Q 3047 1584 2836 1778 
Q 2625 1972 2144 2069 
L 1759 2144 
Q 1053 2284 737 2584 
Q 422 2884 422 3419 
Q 422 4038 858 4394 
Q 1294 4750 2059 4750 
Q 2388 4750 2728 4690 
Q 3069 4631 3425 4513 
z
" transform="scale(0.015625)"/>
      <path id="DejaVuSans-4d" d="M 628 4666 
L 1569 4666 
L 2759 1491 
L 3956 4666 
L 4897 4666 
L 4897 0 
L 4281 0 
L 4281 4097 
L 3078 897 
L 2444 897 
L 1241 4097 
L 1241 0 
L 628 0 
L 628 4666 
z
" transform="scale(0.015625)"/>
      <path id="DejaVuSans-61" d="M 2194 1759 
Q 1497 1759 1228 1600 
Q 959 1441 959 1056 
Q 959 750 1161 570 
Q 1363 391 1709 391 
Q 2188 391 2477 730 
Q 2766 1069 2766 1631 
L 2766 1759 
L 2194 1759 
z
M 3341 1997 
L 3341 0 
L 2766 0 
L 2766 531 
Q 2569 213 2275 61 
Q 1981 -91 1556 -91 
Q 1019 -91 701 211 
Q 384 513 384 1019 
Q 384 1609 779 1909 
Q 1175 2209 1959 2209 
L 2766 2209 
L 2766 2266 
Q 2766 2663 2505 2880 
Q 2244 3097 1772 3097 
Q 1472 3097 1187 3025 
Q 903 2953 641 2809 
L 641 3341 
Q 956 3463 1253 3523 
Q 1550 3584 1831 3584 
Q 2591 3584 2966 3190 
Q 3341 2797 3341 1997 
z
" transform="scale(0.015625)"/>
      <path id="DejaVuSans-64" d="M 2906 2969 
L 2906 4863 
L 3481 4863 
L 3481 0 
L 2906 0 
L 2906 525 
Q 2725 213 2448 61 
Q 2172 -91 1784 -91 
Q 1150 -91 751 415 
Q 353 922 353 1747 
Q 353 2572 751 3078 
Q 1150 3584 1784 3584 
Q 2172 3584 2448 3432 
Q 2725 3281 2906 2969 
z
M 947 1747 
Q 947 1113 1208 752 
Q 1469 391 1925 391 
Q 2381 391 2643 752 
Q 2906 1113 2906 1747 
Q 2906 2381 2643 2742 
Q 2381 3103 1925 3103 
Q 1469 3103 1208 2742 
Q 947 2381 947 1747 
z
" transform="scale(0.015625)"/>
      <path id="DejaVuSans-50" d="M 1259 4147 
L 1259 2394 
L 2053 2394 
Q 2494 2394 2734 2622 
Q 2975 2850 2975 3272 
Q 2975 3691 2734 3919 
Q 2494 4147 2053 4147 
L 1259 4147 
z
M 628 4666 
L 2053 4666 
Q 2838 4666 3239 4311 
Q 3641 3956 3641 3272 
Q 3641 2581 3239 2228 
Q 2838 1875 2053 1875 
L 1259 1875 
L 1259 0 
L 628 0 
L 628 4666 
z
" transform="scale(0.015625)"/>
      <path id="DejaVuSans-6c" d="M 603 4863 
L 1178 4863 
L 1178 0 
L 603 0 
L 603 4863 
z
" transform="scale(0.015625)"/>
      <path id="DejaVuSans-2c" d="M 750 794 
L 1409 794 
L 1409 256 
L 897 -744 
L 494 -744 
L 750 256 
L 750 794 
z
" transform="scale(0.015625)"/>
      <path id="DejaVuSans-79" d="M 2059 -325 
Q 1816 -950 1584 -1140 
Q 1353 -1331 966 -1331 
L 506 -1331 
L 506 -850 
L 844 -850 
Q 1081 -850 1212 -737 
Q 1344 -625 1503 -206 
L 1606 56 
L 191 3500 
L 800 3500 
L 1894 763 
L 2988 3500 
L 3597 3500 
L 2059 -325 
z
" transform="scale(0.015625)"/>
      <path id="DejaVuSans-2e" d="M 684 794 
L 1344 794 
L 1344 0 
L 684 0 
L 684 794 
z
" transform="scale(0.015625)"/>
      <path id="DejaVuSans-3a" d="M 750 794 
L 1409 794 
L 1409 0 
L 750 0 
L 750 794 
z
M 750 3309 
L 1409 3309 
L 1409 2516 
L 750 2516 
L 750 3309 
z
" transform="scale(0.015625)"/>
     </defs>
     <use xlink:href="#DejaVuSans-4e"/>
     <use xlink:href="#DejaVuSans-75" x="74.804688"/>
     <use xlink:href="#DejaVuSans-6d" x="138.183594"/>
     <use xlink:href="#DejaVuSans-62" x="235.595703"/>
     <use xlink:href="#DejaVuSans-65" x="299.072266"/>
     <use xlink:href="#DejaVuSans-72" x="360.595703"/>
     <use xlink:href="#DejaVuSans-20" x="401.708984"/>
     <use xlink:href="#DejaVuSans-6f" x="433.496094"/>
     <use xlink:href="#DejaVuSans-66" x="494.677734"/>
     <use xlink:href="#DejaVuSans-20" x="529.882812"/>
     <use xlink:href="#DejaVuSans-41" x="561.669922"/>
     <use xlink:href="#DejaVuSans-45" x="630.078125"/>
     <use xlink:href="#DejaVuSans-44" x="693.261719"/>
     <use xlink:href="#DejaVuSans-73" x="770.263672"/>
     <use xlink:href="#DejaVuSans-20" x="822.363281"/>
     <use xlink:href="#DejaVuSans-69" x="854.150391"/>
     <use xlink:href="#DejaVuSans-6e" x="881.933594"/>
     <use xlink:href="#DejaVuSans-20" x="945.3125"/>
     <use xlink:href="#DejaVuSans-74" x="977.099609"/>
     <use xlink:href="#DejaVuSans-68" x="1016.308594"/>
     <use xlink:href="#DejaVuSans-65" x="1079.6875"/>
     <use xlink:href="#DejaVuSans-20" x="1141.210938"/>
     <use xlink:href="#DejaVuSans-4f" x="1172.998047"/>
     <use xlink:href="#DejaVuSans-70" x="1251.708984"/>
     <use xlink:href="#DejaVuSans-65" x="1315.185547"/>
     <use xlink:href="#DejaVuSans-6e" x="1376.708984"/>
     <use xlink:href="#DejaVuSans-53" x="1440.087891"/>
     <use xlink:href="#DejaVuSans-74" x="1503.564453"/>
     <use xlink:href="#DejaVuSans-72" x="1542.773438"/>
     <use xlink:href="#DejaVuSans-65" x="1581.636719"/>
     <use xlink:href="#DejaVuSans-65" x="1643.160156"/>
     <use xlink:href="#DejaVuSans-74" x="1704.683594"/>
     <use xlink:href="#DejaVuSans-4d" x="1743.892578"/>
     <use xlink:href="#DejaVuSans-61" x="1830.171875"/>
     <use xlink:href="#DejaVuSans-70" x="1891.451172"/>
     <use xlink:href="#DejaVuSans-20" x="1954.927734"/>
     <use xlink:href="#DejaVuSans-64" x="1986.714844"/>
     <use xlink:href="#DejaVuSans-61" x="2050.191406"/>
     <use xlink:href="#DejaVuSans-74" x="2111.470703"/>
     <use xlink:href="#DejaVuSans-61" x="2150.679688"/>
     <use xlink:href="#DejaVuSans-62" x="2211.958984"/>
     <use xlink:href="#DejaVuSans-61" x="2275.435547"/>
     <use xlink:href="#DejaVuSans-73" x="2336.714844"/>
     <use xlink:href="#DejaVuSans-65" x="2388.814453"/>
     <use xlink:href="#DejaVuSans-20" x="2450.337891"/>
     <use xlink:href="#DejaVuSans-69" x="2482.125"/>
     <use xlink:href="#DejaVuSans-6e" x="2509.908203"/>
     <use xlink:href="#DejaVuSans-20" x="2573.287109"/>
     <use xlink:href="#DejaVuSans-50" x="2605.074219"/>
     <use xlink:href="#DejaVuSans-6f" x="2661.751953"/>
     <use xlink:href="#DejaVuSans-6c" x="2722.933594"/>
     <use xlink:href="#DejaVuSans-61" x="2750.716797"/>
     <use xlink:href="#DejaVuSans-6e" x="2811.996094"/>
     <use xlink:href="#DejaVuSans-64" x="2875.375"/>
     <use xlink:href="#DejaVuSans-20" x="2938.851562"/>
     <use xlink:href="#DejaVuSans-66" x="2970.638672"/>
     <use xlink:href="#DejaVuSans-72" x="3005.84375"/>
     <use xlink:href="#DejaVuSans-6f" x="3044.707031"/>
     <use xlink:href="#DejaVuSans-6d" x="3105.888672"/>
     <use xlink:href="#DejaVuSans-20" x="3203.300781"/>
     <use xlink:href="#DejaVuSans-32" x="3235.087891"/>
     <use xlink:href="#DejaVuSans-30" x="3298.710938"/>
     <use xlink:href="#DejaVuSans-32" x="3362.333984"/>
     <use xlink:href="#DejaVuSans-36" x="3425.957031"/>
     <use xlink:href="#DejaVuSans-2d" x="3489.580078"/>
     <use xlink:href="#DejaVuSans-30" x="3525.664062"/>
     <use xlink:href="#DejaVuSans-31" x="3589.287109"/>
     <use xlink:href="#DejaVuSans-2d" x="3652.910156"/>
     <use xlink:href="#DejaVuSans-30" x="3688.994141"/>
     <use xlink:href="#DejaVuSans-31" x="3752.617188"/>
     <use xlink:href="#DejaVuSans-2c" x="3816.240234"/>
     <use xlink:href="#DejaVuSans-20" x="3848.027344"/>
     <use xlink:href="#DejaVuSans-64" x="3879.814453"/>
     <use xlink:href="#DejaVuSans-61" x="3943.291016"/>
     <use xlink:href="#DejaVuSans-79" x="4004.570312"/>
     <use xlink:href="#DejaVuSans-20" x="4063.75"/>
     <use xlink:href="#DejaVuSans-62" x="4095.537109"/>
     <use xlink:href="#DejaVuSans-79" x="4159.013672"/>
     <use xlink:href="#DejaVuSans-20" x="4218.193359"/>
     <use xlink:href="#DejaVuSans-64" x="4249.980469"/>
     <use xlink:href="#DejaVuSans-61" x="4313.457031"/>
     <use xlink:href="#DejaVuSans-79" x="4374.736328"/>
     <use xlink:href="#DejaVuSans-2e" x="4419.666016"/>
     <use xlink:href="#DejaVuSans-20" x="4451.453125"/>
     <use xlink:href="#DejaVuSans-41" x="4483.240234"/>
     <use xlink:href="#DejaVuSans-73" x="4551.648438"/>
     <use xlink:href="#DejaVuSans-20" x="4603.748047"/>
     <use xlink:href="#DejaVuSans-61" x="4635.535156"/>
     <use xlink:href="#DejaVuSans-74" x="4696.814453"/>
     <use xlink:href="#DejaVuSans-3a" x="4736.023438"/>
     <use xlink:href="#DejaVuSans-20" x="4769.714844"/>
     <use xlink:href="#DejaVuSans-32" x="4801.501953"/>
     <use xlink:href="#DejaVuSans-30" x="4865.125"/>
     <use xlink:href="#DejaVuSans-32" x="4928.748047"/>
     <use xlink:href="#DejaVuSans-36" x="4992.371094"/>
     <use xlink:href="#DejaVuSans-2d" x="5055.994141"/>
     <use xlink:href="#DejaVuSans-30" x="5092.078125"/>
     <use xlink:href="#DejaVuSans-33" x="5155.701172"/>
     <use xlink:href="#DejaVuSans-2d" x="5219.324219"/>
     <use xlink:href="#DejaVuSans-30" x="5255.408203"/>
     <use xlink:href="#DejaVuSans-36" x="5319.03125"/>
    </g>
   </g>
  </g>
 </g>
 <defs>
  <clipPath id="p80a5266313">
   <rect x="144" y="69.12" width="892.8" height="443.52"/>
  </clipPath>
 </defs>
</svg>
