<?xml version="1.0" encoding="utf-8" standalone="no"?>
<!DOCTYPE svg PUBLIC "-//W3C//DTD SVG 1.1//EN"
  "http://www.w3.org/Graphics/SVG/1.1/DTD/svg11.dtd">
<svg xmlns:xlink="http://www.w3.org/1999/xlink" width="1152pt" height="576pt" viewBox="0 0 1152 576" xmlns="http://www.w3.org/2000/svg" version="1.1">
 <metadata>
  <rdf:RDF xmlns:dc="http://purl.org/dc/elements/1.1/" xmlns:cc="http://creativecommons.org/ns#" xmlns:rdf="http://www.w3.org/1999/02/22-rdf-syntax-ns#">
   <cc:Work>
    <dc:type rdf:resource="http://purl.org/dc/dcmitype/StillImage"/>
    <dc:date>1980-01-01T00:00:00+00:00</dc:date>
    <dc:format>image/svg+xml</dc:format>
    <dc:creator>
     <cc:Agent>
      <dc:title>Matplotlib v3.9.1, https://matplotlib.org/</dc:title>
     </cc:Agent>
    </dc:creator>
   </cc:Work>
  </rdf:RDF>
 </metadata>
 <defs>
  <style type="text/css">*{stroke-linejoin: round; stroke-linecap: butt}</style>
 </defs>
 <g id="figure_1">
  <g id="patch_1">
   <path d="M 0 576 
L 1152 576 
L 1152 0 
L 0 0 
z
" style="fill: #ffffff"/>
  </g>
  <g id="axes_1">
   <g id="patch_2">
    <path d="M 144 512.64 
L 1036.8 512.64 
L 1036.8 69.12 
L 144 69.12 
z
" style="fill: #ffffff"/>
   </g>
   <g id="PathCollection_1">
    <path d="M 184.581818 494.716068 
C 185.17483 494.716068 185.743634 494.480462 186.162957 494.061139 
C 186.58228 493.641816 186.817886 493.073012 186.817886 492.48 
C 186.817886 491.886988 186.58228 491.318184 186.162957 490.898861 
C 185.743634 490.479538 185.17483 490.243932 184.581818 490.243932 
C 183.988806 490.243932 183.420002 490.479538 183.000679 490.898861 
C 182.581356 491.318184 182.34575 491.886988 182.34575 492.48 
C 182.34575 493.073012 182.581356 493.641816 183.000679 494.061139 
C 183.420002 494.480462 183.988806 494.716068 184.581818 494.716068 
z
" clip-path="url(#p8a587b9a61)" style="fill: #1f77b4; fill-opacity: 0.3; stroke: #1f77b4; stroke-opacity: 0.3"/>
    <path d="M 201.490909 494.30995 
C 202.428544 494.30995 203.327901 493.937424 203.990909 493.274416 
C 204.653917 492.611408 205.026443 491.712051 205.026443 490.774416 
C 205.026443 489.836782 204.653917 488.937424 203.990909 488.274416 
C 203.327901 487.611408 202.428544 487.238882 201.490909 487.238882 
C 200.553275 487.238882 199.653917 487.611408 198.990909 488.274416 
C 198.327901 488.937424 197.955375 489.836782 197.955375 490.774416 
C 197.955375 491.712051 198.327901 492.611408 198.990909 493.274416 
C 199.653917 493.937424 200.553275 494.30995 201.490909 494.30995 
z
" clip-path="url(#p8a587b9a61)" style="fill: #1f77b4; fill-opacity: 0.3; stroke: #1f77b4; stroke-opacity: 0.3"/>
    <path d="M 218.4 491.781389 
C 220.024031 491.781389 221.581764 491.136155 222.730127 489.987792 
C 223.87849 488.839429 224.523724 487.281696 224.523724 485.657665 
C 224.523724 484.033634 223.87849 482.475901 222.730127 481.327538 
C 221.581764 480.179175 220.024031 479.533941 218.4 479.533941 
C 216.775969 479.533941 215.218236 480.179175 214.069873 481.327538 
C 212.92151 482.475901 212.276276 484.033634 212.276276 485.657665 
C 212.276276 487.281696 212.92151 488.839429 214.069873 489.987792 
C 215.218236 491.136155 216.775969 491.781389 218.4 491.781389 
z
" clip-path="url(#p8a587b9a61)" style="fill: #1f77b4; fill-opacity: 0.3; stroke: #1f77b4; stroke-opacity: 0.3"/>
    <path d="M 235.309091 487.372928 
C 236.03538 487.372928 236.732019 487.08437 237.245583 486.570806 
C 237.759146 486.057243 238.047704 485.360603 238.047704 484.634315 
C 238.047704 483.908026 237.759146 483.211387 237.245583 482.697823 
C 236.732019 482.184259 236.03538 481.895702 235.309091 481.895702 
C 234.582802 481.895702 233.886163 482.184259 233.372599 482.697823 
C 232.859036 483.211387 232.570478 483.908026 232.570478 484.634315 
C 232.570478 485.360603 232.859036 486.057243 233.372599 486.570806 
C 233.886163 487.08437 234.582802 487.372928 235.309091 487.372928 
z
" clip-path="url(#p8a587b9a61)" style="fill: #1f77b4; fill-opacity: 0.3; stroke: #1f77b4; stroke-opacity: 0.3"/>
    <path d="M 252.218182 486.377517 
C 253.404206 486.377517 254.541814 485.906304 255.380459 485.067658 
C 256.219105 484.229013 256.690318 483.091405 256.690318 481.905381 
C 256.690318 480.719356 256.219105 479.581749 255.380459 478.743103 
C 254.541814 477.904457 253.404206 477.433245 252.218182 477.433245 
C 251.032157 477.433245 249.89455 477.904457 249.055904 478.743103 
C 248.217258 479.581749 247.746046 480.719356 247.746046 481.905381 
C 247.746046 483.091405 248.217258 484.229013 249.055904 485.067658 
C 249.89455 485.906304 251.032157 486.377517 252.218182 486.377517 
z
" clip-path="url(#p8a587b9a61)" style="fill: #1f77b4; fill-opacity: 0.3; stroke: #1f77b4; stroke-opacity: 0.3"/>
    <path d="M 269.127273 483.494213 
C 270.453288 483.494213 271.725172 482.967382 272.662807 482.029747 
C 273.600441 481.092113 274.127273 479.820229 274.127273 478.494213 
C 274.127273 477.168198 273.600441 475.896314 272.662807 474.958679 
C 271.725172 474.021045 270.453288 473.494213 269.127273 473.494213 
C 267.801257 473.494213 266.529373 474.021045 265.591739 474.958679 
C 264.654104 475.896314 264.127273 477.168198 264.127273 478.494213 
C 264.127273 479.820229 264.654104 481.092113 265.591739 482.029747 
C 266.529373 482.967382 267.801257 483.494213 269.127273 483.494213 
z
" clip-path="url(#p8a587b9a61)" style="fill: #1f77b4; fill-opacity: 0.3; stroke: #1f77b4; stroke-opacity: 0.3"/>
    <path d="M 286.036364 480.048048 
C 286.629376 480.048048 287.19818 479.812441 287.617502 479.393119 
C 288.036825 478.973796 288.272432 478.404992 288.272432 477.81198 
C 288.272432 477.218968 288.036825 476.650164 287.617502 476.230841 
C 287.19818 475.811518 286.629376 475.575912 286.036364 475.575912 
C 285.443351 475.575912 284.874548 475.811518 284.455225 476.230841 
C 284.035902 476.650164 283.800296 477.218968 283.800296 477.81198 
C 283.800296 478.404992 284.035902 478.973796 284.455225 479.393119 
C 284.874548 479.812441 285.443351 480.048048 286.036364 480.048048 
z
" clip-path="url(#p8a587b9a61)" style="fill: #1f77b4; fill-opacity: 0.3; stroke: #1f77b4; stroke-opacity: 0.3"/>
    <path d="M 302.945455 479.555182 
C 304.131479 479.555182 305.269086 479.083969 306.107732 478.245323 
C 306.946378 477.406678 307.417591 476.26907 307.417591 475.083046 
C 307.417591 473.897021 306.946378 472.759414 306.107732 471.920768 
C 305.269086 471.082122 304.131479 470.61091 302.945455 470.61091 
C 301.75943 470.61091 300.621823 471.082122 299.783177 471.920768 
C 298.944531 472.759414 298.473319 473.897021 298.473319 475.083046 
C 298.473319 476.26907 298.944531 477.406678 299.783177 478.245323 
C 300.621823 479.083969 301.75943 479.555182 302.945455 479.555182 
z
" clip-path="url(#p8a587b9a61)" style="fill: #1f77b4; fill-opacity: 0.3; stroke: #1f77b4; stroke-opacity: 0.3"/>
    <path d="M 319.854545 476.798308 
C 320.580834 476.798308 321.277474 476.509751 321.791037 475.996187 
C 322.304601 475.482624 322.593158 474.785984 322.593158 474.059695 
C 322.593158 473.333407 322.304601 472.636767 321.791037 472.123204 
C 321.277474 471.60964 320.580834 471.321083 319.854545 471.321083 
C 319.128257 471.321083 318.431617 471.60964 317.918054 472.123204 
C 317.40449 472.636767 317.115933 473.333407 317.115933 474.059695 
C 317.115933 474.785984 317.40449 475.482624 317.918054 475.996187 
C 318.431617 476.509751 319.128257 476.798308 319.854545 476.798308 
z
" clip-path="url(#p8a587b9a61)" style="fill: #1f77b4; fill-opacity: 0.3; stroke: #1f77b4; stroke-opacity: 0.3"/>
    <path d="M 336.763636 475.857506 
C 337.602282 475.857506 338.406692 475.524309 338.999704 474.931296 
C 339.592717 474.338284 339.925914 473.533874 339.925914 472.695228 
C 339.925914 471.856583 339.592717 471.052173 338.999704 470.45916 
C 338.406692 469.866148 337.602282 469.532951 336.763636 469.532951 
C 335.924991 469.532951 335.120581 469.866148 334.527568 470.45916 
C 333.934556 471.052173 333.601359 471.856583 333.601359 472.695228 
C 333.601359 473.533874 333.934556 474.338284 334.527568 474.931296 
C 335.120581 475.524309 335.924991 475.857506 336.763636 475.857506 
z
" clip-path="url(#p8a587b9a61)" style="fill: #1f77b4; fill-opacity: 0.3; stroke: #1f77b4; stroke-opacity: 0.3"/>
    <path d="M 353.672727 474.249063 
C 354.265739 474.249063 354.834543 474.013457 355.253866 473.594134 
C 355.673189 473.174811 355.908795 472.606007 355.908795 472.012995 
C 355.908795 471.419983 355.673189 470.851179 355.253866 470.431856 
C 354.834543 470.012533 354.265739 469.776927 353.672727 469.776927 
C 353.079715 469.776927 352.510911 470.012533 352.091588 470.431856 
C 351.672266 470.851179 351.436659 471.419983 351.436659 472.012995 
C 351.436659 472.606007 351.672266 473.174811 352.091588 473.594134 
C 352.510911 474.013457 353.079715 474.249063 353.672727 474.249063 
z
" clip-path="url(#p8a587b9a61)" style="fill: #1f77b4; fill-opacity: 0.3; stroke: #1f77b4; stroke-opacity: 0.3"/>
    <path d="M 370.581818 473.842945 
C 371.519453 473.842945 372.41881 473.470419 373.081818 472.807411 
C 373.744826 472.144403 374.117352 471.245046 374.117352 470.307411 
C 374.117352 469.369777 373.744826 468.470419 373.081818 467.807411 
C 372.41881 467.144403 371.519453 466.771877 370.581818 466.771877 
C 369.644184 466.771877 368.744826 467.144403 368.081818 467.807411 
C 367.41881 468.470419 367.046284 469.369777 367.046284 470.307411 
C 367.046284 471.245046 367.41881 472.144403 368.081818 472.807411 
C 368.744826 473.470419 369.644184 473.842945 370.581818 473.842945 
z
" clip-path="url(#p8a587b9a61)" style="fill: #1f77b4; fill-opacity: 0.3; stroke: #1f77b4; stroke-opacity: 0.3"/>
    <path d="M 387.490909 472.105222 
C 388.329555 472.105222 389.133965 471.772024 389.726977 471.179012 
C 390.319989 470.586 390.653187 469.78159 390.653187 468.942944 
C 390.653187 468.104298 390.319989 467.299888 389.726977 466.706876 
C 389.133965 466.113864 388.329555 465.780667 387.490909 465.780667 
C 386.652263 465.780667 385.847853 466.113864 385.254841 466.706876 
C 384.661829 467.299888 384.328631 468.104298 384.328631 468.942944 
C 384.328631 469.78159 384.661829 470.586 385.254841 471.179012 
C 385.847853 471.772024 386.652263 472.105222 387.490909 472.105222 
z
" clip-path="url(#p8a587b9a61)" style="fill: #1f77b4; fill-opacity: 0.3; stroke: #1f77b4; stroke-opacity: 0.3"/>
    <path d="M 404.4 470.772894 
C 405.337635 470.772894 406.236992 470.400368 406.9 469.73736 
C 407.563008 469.074353 407.935534 468.174995 407.935534 467.23736 
C 407.935534 466.299726 407.563008 465.400368 406.9 464.73736 
C 406.236992 464.074353 405.337635 463.701827 404.4 463.701827 
C 403.462365 463.701827 402.563008 464.074353 401.9 464.73736 
C 401.236992 465.400368 400.864466 466.299726 400.864466 467.23736 
C 400.864466 468.174995 401.236992 469.074353 401.9 469.73736 
C 402.563008 470.400368 403.462365 470.772894 404.4 470.772894 
z
" clip-path="url(#p8a587b9a61)" style="fill: #1f77b4; fill-opacity: 0.3; stroke: #1f77b4; stroke-opacity: 0.3"/>
    <path d="M 421.309091 469.067311 
C 422.246725 469.067311 423.146083 468.694784 423.809091 468.031777 
C 424.472099 467.368769 424.844625 466.469411 424.844625 465.531777 
C 424.844625 464.594142 424.472099 463.694784 423.809091 463.031777 
C 423.146083 462.368769 422.246725 461.996243 421.309091 461.996243 
C 420.371456 461.996243 419.472099 462.368769 418.809091 463.031777 
C 418.146083 463.694784 417.773557 464.594142 417.773557 465.531777 
C 417.773557 466.469411 418.146083 467.368769 418.809091 468.031777 
C 419.472099 468.694784 420.371456 469.067311 421.309091 469.067311 
z
" clip-path="url(#p8a587b9a61)" style="fill: #1f77b4; fill-opacity: 0.3; stroke: #1f77b4; stroke-opacity: 0.3"/>
    <path d="M 438.218182 467.358059 
C 439.245309 467.358059 440.230506 466.949978 440.956795 466.223689 
C 441.683083 465.4974 442.091165 464.512203 442.091165 463.485076 
C 442.091165 462.457949 441.683083 461.472752 440.956795 460.746463 
C 440.230506 460.020175 439.245309 459.612093 438.218182 459.612093 
C 437.191055 459.612093 436.205858 460.020175 435.479569 460.746463 
C 434.75328 461.472752 434.345198 462.457949 434.345198 463.485076 
C 434.345198 464.512203 434.75328 465.4974 435.479569 466.223689 
C 436.205858 466.949978 437.191055 467.358059 438.218182 467.358059 
z
" clip-path="url(#p8a587b9a61)" style="fill: #1f77b4; fill-opacity: 0.3; stroke: #1f77b4; stroke-opacity: 0.3"/>
    <path d="M 455.127273 465.315026 
C 456.064907 465.315026 456.964265 464.9425 457.627273 464.279492 
C 458.29028 463.616485 458.662807 462.717127 458.662807 461.779492 
C 458.662807 460.841858 458.29028 459.9425 457.627273 459.279492 
C 456.964265 458.616485 456.064907 458.243958 455.127273 458.243958 
C 454.189638 458.243958 453.29028 458.616485 452.627273 459.279492 
C 451.964265 459.9425 451.591739 460.841858 451.591739 461.779492 
C 451.591739 462.717127 451.964265 463.616485 452.627273 464.279492 
C 453.29028 464.9425 454.189638 465.315026 455.127273 465.315026 
z
" clip-path="url(#p8a587b9a61)" style="fill: #1f77b4; fill-opacity: 0.3; stroke: #1f77b4; stroke-opacity: 0.3"/>
    <path d="M 472.036364 463.605775 
C 473.063491 463.605775 474.048688 463.197693 474.774976 462.471405 
C 475.501265 461.745116 475.909347 460.759919 475.909347 459.732792 
C 475.909347 458.705665 475.501265 457.720468 474.774976 456.994179 
C 474.048688 456.26789 473.063491 455.859809 472.036364 455.859809 
C 471.009236 455.859809 470.024039 456.26789 469.297751 456.994179 
C 468.571462 457.720468 468.16338 458.705665 468.16338 459.732792 
C 468.16338 460.759919 468.571462 461.745116 469.297751 462.471405 
C 470.024039 463.197693 471.009236 463.605775 472.036364 463.605775 
z
" clip-path="url(#p8a587b9a61)" style="fill: #1f77b4; fill-opacity: 0.3; stroke: #1f77b4; stroke-opacity: 0.3"/>
    <path d="M 488.945455 461.528275 
C 490.054879 461.528275 491.119013 461.087496 491.903494 460.303015 
C 492.687976 459.518533 493.128755 458.454399 493.128755 457.344975 
C 493.128755 456.23555 492.687976 455.171416 491.903494 454.386935 
C 491.119013 453.602453 490.054879 453.161674 488.945455 453.161674 
C 487.83603 453.161674 486.771896 453.602453 485.987415 454.386935 
C 485.202933 455.171416 484.762154 456.23555 484.762154 457.344975 
C 484.762154 458.454399 485.202933 459.518533 485.987415 460.303015 
C 486.771896 461.087496 487.83603 461.528275 488.945455 461.528275 
z
" clip-path="url(#p8a587b9a61)" style="fill: #1f77b4; fill-opacity: 0.3; stroke: #1f77b4; stroke-opacity: 0.3"/>
    <path d="M 505.854545 459.088177 
C 507.04057 459.088177 508.178177 458.616964 509.016823 457.778318 
C 509.855469 456.939672 510.326681 455.802065 510.326681 454.616041 
C 510.326681 453.430016 509.855469 452.292409 509.016823 451.453763 
C 508.178177 450.615117 507.04057 450.143905 505.854545 450.143905 
C 504.668521 450.143905 503.530914 450.615117 502.692268 451.453763 
C 501.853622 452.292409 501.382409 453.430016 501.382409 454.616041 
C 501.382409 455.802065 501.853622 456.939672 502.692268 457.778318 
C 503.530914 458.616964 504.668521 459.088177 505.854545 459.088177 
z
" clip-path="url(#p8a587b9a61)" style="fill: #1f77b4; fill-opacity: 0.3; stroke: #1f77b4; stroke-opacity: 0.3"/>
    <path d="M 522.763636 456.442323 
C 523.790764 456.442323 524.775961 456.034241 525.502249 455.307953 
C 526.228538 454.581664 526.63662 453.596467 526.63662 452.56934 
C 526.63662 451.542213 526.228538 450.557016 525.502249 449.830727 
C 524.775961 449.104439 523.790764 448.696357 522.763636 448.696357 
C 521.736509 448.696357 520.751312 449.104439 520.025024 449.830727 
C 519.298735 450.557016 518.890653 451.542213 518.890653 452.56934 
C 518.890653 453.596467 519.298735 454.581664 520.025024 455.307953 
C 520.751312 456.034241 521.736509 456.442323 522.763636 456.442323 
z
" clip-path="url(#p8a587b9a61)" style="fill: #1f77b4; fill-opacity: 0.3; stroke: #1f77b4; stroke-opacity: 0.3"/>
    <path d="M 539.672727 454.0611 
C 541.063464 454.0611 542.397427 453.508554 543.380827 452.525155 
C 544.364226 451.541756 544.916772 450.207793 544.916772 448.817056 
C 544.916772 447.426319 544.364226 446.092356 543.380827 445.108957 
C 542.397427 444.125557 541.063464 443.573012 539.672727 443.573012 
C 538.28199 443.573012 536.948027 444.125557 535.964628 445.108957 
C 534.981229 446.092356 534.428683 447.426319 534.428683 448.817056 
C 534.428683 450.207793 534.981229 451.541756 535.964628 452.525155 
C 536.948027 453.508554 538.28199 454.0611 539.672727 454.0611 
z
" clip-path="url(#p8a587b9a61)" style="fill: #1f77b4; fill-opacity: 0.3; stroke: #1f77b4; stroke-opacity: 0.3"/>
    <path d="M 556.581818 449.683743 
C 558.25911 449.683743 559.86793 449.017348 561.053954 447.831324 
C 562.239978 446.645299 562.906374 445.036479 562.906374 443.359188 
C 562.906374 441.681896 562.239978 440.073076 561.053954 438.887052 
C 559.86793 437.701028 558.25911 437.034632 556.581818 437.034632 
C 554.904527 437.034632 553.295707 437.701028 552.109682 438.887052 
C 550.923658 440.073076 550.257263 441.681896 550.257263 443.359188 
C 550.257263 445.036479 550.923658 446.645299 552.109682 447.831324 
C 553.295707 449.017348 554.904527 449.683743 556.581818 449.683743 
z
" clip-path="url(#p8a587b9a61)" style="fill: #1f77b4; fill-opacity: 0.3; stroke: #1f77b4; stroke-opacity: 0.3"/>
    <path d="M 573.490909 442.918352 
C 575.545163 442.918352 577.515557 442.102189 578.968135 440.649611 
C 580.420712 439.197034 581.236876 437.22664 581.236876 435.172386 
C 581.236876 433.118131 580.420712 431.147737 578.968135 429.69516 
C 577.515557 428.242583 575.545163 427.426419 573.490909 427.426419 
C 571.436655 427.426419 569.466261 428.242583 568.013684 429.69516 
C 566.561106 431.147737 565.744942 433.118131 565.744942 435.172386 
C 565.744942 437.22664 566.561106 439.197034 568.013684 440.649611 
C 569.466261 442.102189 571.436655 442.918352 573.490909 442.918352 
z
" clip-path="url(#p8a587b9a61)" style="fill: #1f77b4; fill-opacity: 0.3; stroke: #1f77b4; stroke-opacity: 0.3"/>
    <path d="M 590.4 436.967869 
C 591.509424 436.967869 592.573559 436.52709 593.35804 435.742608 
C 594.142521 434.958127 594.5833 433.893993 594.5833 432.784569 
C 594.5833 431.675144 594.142521 430.61101 593.35804 429.826529 
C 592.573559 429.042047 591.509424 428.601268 590.4 428.601268 
C 589.290576 428.601268 588.226441 429.042047 587.44196 429.826529 
C 586.657479 430.61101 586.2167 431.675144 586.2167 432.784569 
C 586.2167 433.893993 586.657479 434.958127 587.44196 435.742608 
C 588.226441 436.52709 589.290576 436.967869 590.4 436.967869 
z
" clip-path="url(#p8a587b9a61)" style="fill: #1f77b4; fill-opacity: 0.3; stroke: #1f77b4; stroke-opacity: 0.3"/>
    <path d="M 607.309091 434.050928 
C 608.820981 434.050928 610.271152 433.450248 611.34022 432.38118 
C 612.409288 431.312112 613.009968 429.861941 613.009968 428.350051 
C 613.009968 426.83816 612.409288 425.38799 611.34022 424.318922 
C 610.271152 423.249854 608.820981 422.649174 607.309091 422.649174 
C 605.797201 422.649174 604.34703 423.249854 603.277962 424.318922 
C 602.208894 425.38799 601.608214 426.83816 601.608214 428.350051 
C 601.608214 429.861941 602.208894 431.312112 603.277962 432.38118 
C 604.34703 433.450248 605.797201 434.050928 607.309091 434.050928 
z
" clip-path="url(#p8a587b9a61)" style="fill: #1f77b4; fill-opacity: 0.3; stroke: #1f77b4; stroke-opacity: 0.3"/>
    <path d="M 624.218182 429.490496 
C 625.787145 429.490496 627.292058 428.867141 628.401482 427.757716 
C 629.510906 426.648292 630.134262 425.143379 630.134262 423.574416 
C 630.134262 422.005454 629.510906 420.50054 628.401482 419.391116 
C 627.292058 418.281692 625.787145 417.658336 624.218182 417.658336 
C 622.649219 417.658336 621.144306 418.281692 620.034882 419.391116 
C 618.925458 420.50054 618.302102 422.005454 618.302102 423.574416 
C 618.302102 425.143379 618.925458 426.648292 620.034882 427.757716 
C 621.144306 428.867141 622.649219 429.490496 624.218182 429.490496 
z
" clip-path="url(#p8a587b9a61)" style="fill: #1f77b4; fill-opacity: 0.3; stroke: #1f77b4; stroke-opacity: 0.3"/>
    <path d="M 641.127273 421.400515 
C 643.5361 421.400515 645.846591 420.443477 647.549889 418.74018 
C 649.253187 417.036882 650.210224 414.72639 650.210224 412.317563 
C 650.210224 409.908737 649.253187 407.598245 647.549889 405.894947 
C 645.846591 404.191649 643.5361 403.234612 641.127273 403.234612 
C 638.718446 403.234612 636.407954 404.191649 634.704656 405.894947 
C 633.001359 407.598245 632.044322 409.908737 632.044322 412.317563 
C 632.044322 414.72639 633.001359 417.036882 634.704656 418.74018 
C 636.407954 420.443477 638.718446 421.400515 641.127273 421.400515 
z
" clip-path="url(#p8a587b9a61)" style="fill: #1f77b4; fill-opacity: 0.3; stroke: #1f77b4; stroke-opacity: 0.3"/>
    <path d="M 658.036364 410.546353 
C 660.371055 410.546353 662.610437 409.61877 664.261313 407.967894 
C 665.912189 406.317018 666.839772 404.077635 666.839772 401.742944 
C 666.839772 399.408253 665.912189 397.16887 664.261313 395.517994 
C 662.610437 393.867118 660.371055 392.939536 658.036364 392.939536 
C 655.701672 392.939536 653.46229 393.867118 651.811414 395.517994 
C 650.160538 397.16887 649.232955 399.408253 649.232955 401.742944 
C 649.232955 404.077635 650.160538 406.317018 651.811414 407.967894 
C 653.46229 409.61877 655.701672 410.546353 658.036364 410.546353 
z
" clip-path="url(#p8a587b9a61)" style="fill: #1f77b4; fill-opacity: 0.3; stroke: #1f77b4; stroke-opacity: 0.3"/>
    <path d="M 674.945455 399.569042 
C 677.354281 399.569042 679.664773 398.612005 681.368071 396.908708 
C 683.071369 395.20541 684.028406 392.894918 684.028406 390.486091 
C 684.028406 388.077265 683.071369 385.766773 681.368071 384.063475 
C 679.664773 382.360177 677.354281 381.40314 674.945455 381.40314 
C 672.536628 381.40314 670.226136 382.360177 668.522838 384.063475 
C 666.819541 385.766773 665.862503 388.077265 665.862503 390.486091 
C 665.862503 392.894918 666.819541 395.20541 668.522838 396.908708 
C 670.226136 398.612005 672.536628 399.569042 674.945455 399.569042 
z
" clip-path="url(#p8a587b9a61)" style="fill: #1f77b4; fill-opacity: 0.3; stroke: #1f77b4; stroke-opacity: 0.3"/>
    <path d="M 691.854545 387.901149 
C 694.335293 387.901149 696.71477 386.915537 698.468924 385.161383 
C 700.223077 383.40723 701.208689 381.027753 701.208689 378.547005 
C 701.208689 376.066257 700.223077 373.68678 698.468924 371.932627 
C 696.71477 370.178473 694.335293 369.192862 691.854545 369.192862 
C 689.373798 369.192862 686.994321 370.178473 685.240167 371.932627 
C 683.486014 373.68678 682.500402 376.066257 682.500402 378.547005 
C 682.500402 381.027753 683.486014 383.40723 685.240167 385.161383 
C 686.994321 386.915537 689.373798 387.901149 691.854545 387.901149 
z
" clip-path="url(#p8a587b9a61)" style="fill: #1f77b4; fill-opacity: 0.3; stroke: #1f77b4; stroke-opacity: 0.3"/>
    <path d="M 708.763636 378.957811 
C 710.591423 378.957811 712.344593 378.231624 713.637034 376.939184 
C 714.929474 375.646744 715.655661 373.893573 715.655661 372.065787 
C 715.655661 370.238001 714.929474 368.48483 713.637034 367.19239 
C 712.344593 365.89995 710.591423 365.173762 708.763636 365.173762 
C 706.93585 365.173762 705.182679 365.89995 703.890239 367.19239 
C 702.597799 368.48483 701.871612 370.238001 701.871612 372.065787 
C 701.871612 373.893573 702.597799 375.646744 703.890239 376.939184 
C 705.182679 378.231624 706.93585 378.957811 708.763636 378.957811 
z
" clip-path="url(#p8a587b9a61)" style="fill: #1f77b4; fill-opacity: 0.3; stroke: #1f77b4; stroke-opacity: 0.3"/>
    <path d="M 725.672727 373.808989 
C 726.858752 373.808989 727.996359 373.337776 728.835005 372.49913 
C 729.673651 371.660485 730.144863 370.522877 730.144863 369.336853 
C 730.144863 368.150828 729.673651 367.013221 728.835005 366.174575 
C 727.996359 365.335929 726.858752 364.864717 725.672727 364.864717 
C 724.486703 364.864717 723.349095 365.335929 722.51045 366.174575 
C 721.671804 367.013221 721.200591 368.150828 721.200591 369.336853 
C 721.200591 370.522877 721.671804 371.660485 722.51045 372.49913 
C 723.349095 373.337776 724.486703 373.808989 725.672727 373.808989 
z
" clip-path="url(#p8a587b9a61)" style="fill: #1f77b4; fill-opacity: 0.3; stroke: #1f77b4; stroke-opacity: 0.3"/>
    <path d="M 742.581818 370.343826 
C 744.205849 370.343826 745.763582 369.698592 746.911945 368.550229 
C 748.060308 367.401865 748.705543 365.844132 748.705543 364.220102 
C 748.705543 362.596071 748.060308 361.038338 746.911945 359.889975 
C 745.763582 358.741611 744.205849 358.096377 742.581818 358.096377 
C 740.957787 358.096377 739.400054 358.741611 738.251691 359.889975 
C 737.103328 361.038338 736.458094 362.596071 736.458094 364.220102 
C 736.458094 365.844132 737.103328 367.401865 738.251691 368.550229 
C 739.400054 369.698592 740.957787 370.343826 742.581818 370.343826 
z
" clip-path="url(#p8a587b9a61)" style="fill: #1f77b4; fill-opacity: 0.3; stroke: #1f77b4; stroke-opacity: 0.3"/>
    <path d="M 759.490909 356.713783 
C 762.656728 356.713783 765.693309 355.45599 767.931881 353.217418 
C 770.170452 350.978846 771.428245 347.942265 771.428245 344.776447 
C 771.428245 341.610628 770.170452 338.574047 767.931881 336.335475 
C 765.693309 334.096903 762.656728 332.83911 759.490909 332.83911 
C 756.32509 332.83911 753.288509 334.096903 751.049938 336.335475 
C 748.811366 338.574047 747.553573 341.610628 747.553573 344.776447 
C 747.553573 347.942265 748.811366 350.978846 751.049938 353.217418 
C 753.288509 355.45599 756.32509 356.713783 759.490909 356.713783 
z
" clip-path="url(#p8a587b9a61)" style="fill: #1f77b4; fill-opacity: 0.3; stroke: #1f77b4; stroke-opacity: 0.3"/>
    <path d="M 776.4 324.102295 
C 780.77786 324.102295 784.977003 322.362953 788.072618 319.267338 
C 791.168232 316.171724 792.907574 311.972581 792.907574 307.594721 
C 792.907574 303.216861 791.168232 299.017718 788.072618 295.922103 
C 784.977003 292.826489 780.77786 291.087147 776.4 291.087147 
C 772.02214 291.087147 767.822997 292.826489 764.727382 295.922103 
C 761.631768 299.017718 759.892426 303.216861 759.892426 307.594721 
C 759.892426 311.972581 761.631768 316.171724 764.727382 319.267338 
C 767.822997 322.362953 772.02214 324.102295 776.4 324.102295 
z
" clip-path="url(#p8a587b9a61)" style="fill: #1f77b4; fill-opacity: 0.3; stroke: #1f77b4; stroke-opacity: 0.3"/>
    <path d="M 793.309091 302.401975 
C 796.183824 302.401975 798.941202 301.259832 800.973946 299.227088 
C 803.006689 297.194345 804.148833 294.436967 804.148833 291.562234 
C 804.148833 288.6875 803.006689 285.930122 800.973946 283.897379 
C 798.941202 281.864635 796.183824 280.722492 793.309091 280.722492 
C 790.434358 280.722492 787.676979 281.864635 785.644236 283.897379 
C 783.611493 285.930122 782.469349 288.6875 782.469349 291.562234 
C 782.469349 294.436967 783.611493 297.194345 785.644236 299.227088 
C 787.676979 301.259832 790.434358 302.401975 793.309091 302.401975 
z
" clip-path="url(#p8a587b9a61)" style="fill: #1f77b4; fill-opacity: 0.3; stroke: #1f77b4; stroke-opacity: 0.3"/>
    <path d="M 810.218182 281.404699 
C 813.676007 281.404699 816.992675 280.030891 819.437726 277.585839 
C 821.882778 275.140787 823.256587 271.82412 823.256587 268.366294 
C 823.256587 264.908469 821.882778 261.591802 819.437726 259.14675 
C 816.992675 256.701698 813.676007 255.32789 810.218182 255.32789 
C 806.760356 255.32789 803.443689 256.701698 800.998637 259.14675 
C 798.553586 261.591802 797.179777 264.908469 797.179777 268.366294 
C 797.179777 271.82412 798.553586 275.140787 800.998637 277.585839 
C 803.443689 280.030891 806.760356 281.404699 810.218182 281.404699 
z
" clip-path="url(#p8a587b9a61)" style="fill: #1f77b4; fill-opacity: 0.3; stroke: #1f77b4; stroke-opacity: 0.3"/>
    <path d="M 827.127273 268.934397 
C 828.906309 268.934397 830.61272 268.227578 831.870689 266.969609 
C 833.128658 265.711641 833.835477 264.005229 833.835477 262.226193 
C 833.835477 260.447156 833.128658 258.740745 831.870689 257.482776 
C 830.61272 256.224808 828.906309 255.517989 827.127273 255.517989 
C 825.348236 255.517989 823.641825 256.224808 822.383856 257.482776 
C 821.125887 258.740745 820.419069 260.447156 820.419069 262.226193 
C 820.419069 264.005229 821.125887 265.711641 822.383856 266.969609 
C 823.641825 268.227578 825.348236 268.934397 827.127273 268.934397 
z
" clip-path="url(#p8a587b9a61)" style="fill: #1f77b4; fill-opacity: 0.3; stroke: #1f77b4; stroke-opacity: 0.3"/>
    <path d="M 844.036364 260.254729 
C 846.408412 260.254729 848.683627 259.312304 850.360919 257.635012 
C 852.038211 255.95772 852.980636 253.682505 852.980636 251.310457 
C 852.980636 248.938408 852.038211 246.663193 850.360919 244.985902 
C 848.683627 243.30861 846.408412 242.366185 844.036364 242.366185 
C 841.664315 242.366185 839.3891 243.30861 837.711808 244.985902 
C 836.034517 246.663193 835.092092 248.938408 835.092092 251.310457 
C 835.092092 253.682505 836.034517 255.95772 837.711808 257.635012 
C 839.3891 259.312304 841.664315 260.254729 844.036364 260.254729 
z
" clip-path="url(#p8a587b9a61)" style="fill: #1f77b4; fill-opacity: 0.3; stroke: #1f77b4; stroke-opacity: 0.3"/>
    <path d="M 860.945455 246.566805 
C 863.758358 246.566805 866.456431 245.449226 868.445455 243.460203 
C 870.434478 241.47118 871.552056 238.773107 871.552056 235.960203 
C 871.552056 233.147299 870.434478 230.449226 868.445455 228.460203 
C 866.456431 226.47118 863.758358 225.353601 860.945455 225.353601 
C 858.132551 225.353601 855.434478 226.47118 853.445455 228.460203 
C 851.456431 230.449226 850.338853 233.147299 850.338853 235.960203 
C 850.338853 238.773107 851.456431 241.47118 853.445455 243.460203 
C 855.434478 245.449226 858.132551 246.566805 860.945455 246.566805 
z
" clip-path="url(#p8a587b9a61)" style="fill: #1f77b4; fill-opacity: 0.3; stroke: #1f77b4; stroke-opacity: 0.3"/>
    <path d="M 877.854545 231.216551 
C 880.667449 231.216551 883.365522 230.098972 885.354545 228.109949 
C 887.343569 226.120926 888.461147 223.422853 888.461147 220.609949 
C 888.461147 217.797046 887.343569 215.098972 885.354545 213.109949 
C 883.365522 211.120926 880.667449 210.003348 877.854545 210.003348 
C 875.041642 210.003348 872.343569 211.120926 870.354545 213.109949 
C 868.365522 215.098972 867.247944 217.797046 867.247944 220.609949 
C 867.247944 223.422853 868.365522 226.120926 870.354545 228.109949 
C 872.343569 230.098972 875.041642 231.216551 877.854545 231.216551 
z
" clip-path="url(#p8a587b9a61)" style="fill: #1f77b4; fill-opacity: 0.3; stroke: #1f77b4; stroke-opacity: 0.3"/>
    <path d="M 894.763636 212.866772 
C 897.957105 212.866772 901.020207 211.597994 903.27833 209.339871 
C 905.536453 207.081748 906.805231 204.018646 906.805231 200.825178 
C 906.805231 197.631709 905.536453 194.568608 903.27833 192.310484 
C 901.020207 190.052361 897.957105 188.783583 894.763636 188.783583 
C 891.570168 188.783583 888.507066 190.052361 886.248943 192.310484 
C 883.99082 194.568608 882.722042 197.631709 882.722042 200.825178 
C 882.722042 204.018646 883.99082 207.081748 886.248943 209.339871 
C 888.507066 211.597994 891.570168 212.866772 894.763636 212.866772 
z
" clip-path="url(#p8a587b9a61)" style="fill: #1f77b4; fill-opacity: 0.3; stroke: #1f77b4; stroke-opacity: 0.3"/>
    <path d="M 911.672727 185.639301 
C 915.606325 185.639301 919.379342 184.076466 922.160816 181.294992 
C 924.942289 178.513518 926.505124 174.740501 926.505124 170.806904 
C 926.505124 166.873306 924.942289 163.100289 922.160816 160.318815 
C 919.379342 157.537341 915.606325 155.974507 911.672727 155.974507 
C 907.73913 155.974507 903.966112 157.537341 901.184639 160.318815 
C 898.403165 163.100289 896.84033 166.873306 896.84033 170.806904 
C 896.84033 174.740501 898.403165 178.513518 901.184639 181.294992 
C 903.966112 184.076466 907.73913 185.639301 911.672727 185.639301 
z
" clip-path="url(#p8a587b9a61)" style="fill: #1f77b4; fill-opacity: 0.3; stroke: #1f77b4; stroke-opacity: 0.3"/>
    <path d="M 928.581818 161.866449 
C 931.910091 161.866449 935.102494 160.544112 937.455938 158.190668 
C 939.809382 155.837224 941.131719 152.644821 941.131719 149.316548 
C 941.131719 145.988276 939.809382 142.795873 937.455938 140.442429 
C 935.102494 138.088985 931.910091 136.766648 928.581818 136.766648 
C 925.253546 136.766648 922.061143 138.088985 919.707699 140.442429 
C 917.354254 142.795873 916.031918 145.988276 916.031918 149.316548 
C 916.031918 152.644821 917.354254 155.837224 919.707699 158.190668 
C 922.061143 160.544112 925.253546 161.866449 928.581818 161.866449 
z
" clip-path="url(#p8a587b9a61)" style="fill: #1f77b4; fill-opacity: 0.3; stroke: #1f77b4; stroke-opacity: 0.3"/>
    <path d="M 945.490909 150.700373 
C 946.943486 150.700373 948.336765 150.123258 949.363892 149.096131 
C 950.39102 148.069003 950.968135 146.675724 950.968135 145.223147 
C 950.968135 143.77057 950.39102 142.377291 949.363892 141.350164 
C 948.336765 140.323037 946.943486 139.745922 945.490909 139.745922 
C 944.038332 139.745922 942.645053 140.323037 941.617926 141.350164 
C 940.590799 142.377291 940.013684 143.77057 940.013684 145.223147 
C 940.013684 146.675724 940.590799 148.069003 941.617926 149.096131 
C 942.645053 150.123258 944.038332 150.700373 945.490909 150.700373 
z
" clip-path="url(#p8a587b9a61)" style="fill: #1f77b4; fill-opacity: 0.3; stroke: #1f77b4; stroke-opacity: 0.3"/>
    <path d="M 962.4 146.489507 
C 963.91189 146.489507 965.362061 145.888826 966.431129 144.819758 
C 967.500197 143.75069 968.100877 142.30052 968.100877 140.788629 
C 968.100877 139.276739 967.500197 137.826568 966.431129 136.757501 
C 965.362061 135.688433 963.91189 135.087752 962.4 135.087752 
C 960.88811 135.087752 959.437939 135.688433 958.368871 136.757501 
C 957.299803 137.826568 956.699123 139.276739 956.699123 140.788629 
C 956.699123 142.30052 957.299803 143.75069 958.368871 144.819758 
C 959.437939 145.888826 960.88811 146.489507 962.4 146.489507 
z
" clip-path="url(#p8a587b9a61)" style="fill: #1f77b4; fill-opacity: 0.3; stroke: #1f77b4; stroke-opacity: 0.3"/>
    <path d="M 979.309091 116.096969 
C 983.978473 116.096969 988.457239 114.241804 991.758991 110.940052 
C 995.060742 107.6383 996.915908 103.159535 996.915908 98.490152 
C 996.915908 93.82077 995.060742 89.342005 991.758991 86.040253 
C 988.457239 82.738501 983.978473 80.883335 979.309091 80.883335 
C 974.639708 80.883335 970.160943 82.738501 966.859191 86.040253 
C 963.557439 89.342005 961.702274 93.82077 961.702274 98.490152 
C 961.702274 103.159535 963.557439 107.6383 966.859191 110.940052 
C 970.160943 114.241804 974.639708 116.096969 979.309091 116.096969 
z
" clip-path="url(#p8a587b9a61)" style="fill: #1f77b4; fill-opacity: 0.3; stroke: #1f77b4; stroke-opacity: 0.3"/>
    <path d="M 996.218182 97.495838 
C 998.397048 97.495838 1000.486966 96.630166 1002.027657 95.089475 
C 1003.568348 93.548784 1004.43402 91.458866 1004.43402 89.28 
C 1004.43402 87.101134 1003.568348 85.011216 1002.027657 83.470525 
C 1000.486966 81.929834 998.397048 81.064162 996.218182 81.064162 
C 994.039316 81.064162 991.949398 81.929834 990.408707 83.470525 
C 988.868016 85.011216 988.002343 87.101134 988.002343 89.28 
C 988.002343 91.458866 988.868016 93.548784 990.408707 95.089475 
C 991.949398 96.630166 994.039316 97.495838 996.218182 97.495838 
z
" clip-path="url(#p8a587b9a61)" style="fill: #1f77b4; fill-opacity: 0.3; stroke: #1f77b4; stroke-opacity: 0.3"/>
   </g>
   <g id="matplotlib.axis_1">
    <g id="xtick_1">
     <g id="line2d_1">
      <defs>
       <path id="mde4d9f92e0" d="M 0 0 
L 0 3.5 
" style="stroke: #000000; stroke-width: 0.8"/>
      </defs>
      <g>
       <use xlink:href="#mde4d9f92e0" x="184.581818" y="512.64" style="stroke: #000000; stroke-width: 0.8"/>
      </g>
     </g>
     <g id="text_1">
      <!-- 2025-01-01 -->
      <g transform="translate(155.524006 527.238438) scale(0.1 -0.1)">
       <defs>
        <path id="DejaVuSans-32" d="M 1228 531 
L 3431 531 
L 3431 0 
L 469 0 
L 469 531 
Q 828 903 1448 1529 
Q 2069 2156 2228 2338 
Q 2531 2678 2651 2914 
Q 2772 3150 2772 3378 
Q 2772 3750 2511 3984 
Q 2250 4219 1831 4219 
Q 1534 4219 1204 4116 
Q 875 4013 500 3803 
L 500 4441 
Q 881 4594 1212 4672 
Q 1544 4750 1819 4750 
Q 2544 4750 2975 4387 
Q 3406 4025 3406 3419 
Q 3406 3131 3298 2873 
Q 3191 2616 2906 2266 
Q 2828 2175 2409 1742 
Q 1991 1309 1228 531 
z
" transform="scale(0.015625)"/>
        <path id="DejaVuSans-30" d="M 2034 4250 
Q 1547 4250 1301 3770 
Q 1056 3291 1056 2328 
Q 1056 1369 1301 889 
Q 1547 409 2034 409 
Q 2525 409 2770 889 
Q 3016 1369 3016 2328 
Q 3016 3291 2770 3770 
Q 2525 4250 2034 4250 
z
M 2034 4750 
Q 2819 4750 3233 4129 
Q 3647 3509 3647 2328 
Q 3647 1150 3233 529 
Q 2819 -91 2034 -91 
Q 1250 -91 836 529 
Q 422 1150 422 2328 
Q 422 3509 836 4129 
Q 1250 4750 2034 4750 
z
" transform="scale(0.015625)"/>
        <path id="DejaVuSans-35" d="M 691 4666 
L 3169 4666 
L 3169 4134 
L 1269 4134 
L 1269 2991 
Q 1406 3038 1543 3061 
Q 1681 3084 1819 3084 
Q 2600 3084 3056 2656 
Q 3513 2228 3513 1497 
Q 3513 744 3044 326 
Q 2575 -91 1722 -91 
Q 1428 -91 1123 -41 
Q 819 9 494 109 
L 494 744 
Q 775 591 1075 516 
Q 1375 441 1709 441 
Q 2250 441 2565 725 
Q 2881 1009 2881 1497 
Q 2881 1984 2565 2268 
Q 2250 2553 1709 2553 
Q 1456 2553 1204 2497 
Q 953 2441 691 2322 
L 691 4666 
z
" transform="scale(0.015625)"/>
        <path id="DejaVuSans-2d" d="M 313 2009 
L 1997 2009 
L 1997 1497 
L 313 1497 
L 313 2009 
z
" transform="scale(0.015625)"/>
        <path id="DejaVuSans-31" d="M 794 531 
L 1825 531 
L 1825 4091 
L 703 3866 
L 703 4441 
L 1819 4666 
L 2450 4666 
L 2450 531 
L 3481 531 
L 3481 0 
L 794 0 
L 794 531 
z
" transform="scale(0.015625)"/>
       </defs>
       <use xlink:href="#DejaVuSans-32"/>
       <use xlink:href="#DejaVuSans-30" x="63.623047"/>
       <use xlink:href="#DejaVuSans-32" x="127.246094"/>
       <use xlink:href="#DejaVuSans-35" x="190.869141"/>
       <use xlink:href="#DejaVuSans-2d" x="254.492188"/>
       <use xlink:href="#DejaVuSans-30" x="290.576172"/>
       <use xlink:href="#DejaVuSans-31" x="354.199219"/>
       <use xlink:href="#DejaVuSans-2d" x="417.822266"/>
       <use xlink:href="#DejaVuSans-30" x="453.90625"/>
       <use xlink:href="#DejaVuSans-31" x="517.529297"/>
      </g>
     </g>
    </g>
    <g id="xtick_2">
     <g id="line2d_2">
      <g>
       <use xlink:href="#mde4d9f92e0" x="302.945455" y="512.64" style="stroke: #000000; stroke-width: 0.8"/>
      </g>
     </g>
     <g id="text_2">
      <!-- 2025-01-08 -->
      <g transform="translate(273.887642 527.238438) scale(0.1 -0.1)">
       <defs>
        <path id="DejaVuSans-38" d="M 2034 2216 
Q 1584 2216 1326 1975 
Q 1069 1734 1069 1313 
Q 1069 891 1326 650 
Q 1584 409 2034 409 
Q 2484 409 2743 651 
Q 3003 894 3003 1313 
Q 3003 1734 2745 1975 
Q 2488 2216 2034 2216 
z
M 1403 2484 
Q 997 2584 770 2862 
Q 544 3141 544 3541 
Q 544 4100 942 4425 
Q 1341 4750 2034 4750 
Q 2731 4750 3128 4425 
Q 3525 4100 3525 3541 
Q 3525 3141 3298 2862 
Q 3072 2584 2669 2484 
Q 3125 2378 3379 2068 
Q 3634 1759 3634 1313 
Q 3634 634 3220 271 
Q 2806 -91 2034 -91 
Q 1263 -91 848 271 
Q 434 634 434 1313 
Q 434 1759 690 2068 
Q 947 2378 1403 2484 
z
M 1172 3481 
Q 1172 3119 1398 2916 
Q 1625 2713 2034 2713 
Q 2441 2713 2670 2916 
Q 2900 3119 2900 3481 
Q 2900 3844 2670 4047 
Q 2441 4250 2034 4250 
Q 1625 4250 1398 4047 
Q 1172 3844 1172 3481 
z
" transform="scale(0.015625)"/>
       </defs>
       <use xlink:href="#DejaVuSans-32"/>
       <use xlink:href="#DejaVuSans-30" x="63.623047"/>
       <use xlink:href="#DejaVuSans-32" x="127.246094"/>
       <use xlink:href="#DejaVuSans-35" x="190.869141"/>
       <use xlink:href="#DejaVuSans-2d" x="254.492188"/>
       <use xlink:href="#DejaVuSans-30" x="290.576172"/>
       <use xlink:href="#DejaVuSans-31" x="354.199219"/>
       <use xlink:href="#DejaVuSans-2d" x="417.822266"/>
       <use xlink:href="#DejaVuSans-30" x="453.90625"/>
       <use xlink:href="#DejaVuSans-38" x="517.529297"/>
      </g>
     </g>
    </g>
    <g id="xtick_3">
     <g id="line2d_3">
      <g>
       <use xlink:href="#mde4d9f92e0" x="421.309091" y="512.64" style="stroke: #000000; stroke-width: 0.8"/>
      </g>
     </g>
     <g id="text_3">
      <!-- 2025-01-15 -->
      <g transform="translate(392.251278 527.238438) scale(0.1 -0.1)">
       <use xlink:href="#DejaVuSans-32"/>
       <use xlink:href="#DejaVuSans-30" x="63.623047"/>
       <use xlink:href="#DejaVuSans-32" x="127.246094"/>
       <use xlink:href="#DejaVuSans-35" x="190.869141"/>
       <use xlink:href="#DejaVuSans-2d" x="254.492188"/>
       <use xlink:href="#DejaVuSans-30" x="290.576172"/>
       <use xlink:href="#DejaVuSans-31" x="354.199219"/>
       <use xlink:href="#DejaVuSans-2d" x="417.822266"/>
       <use xlink:href="#DejaVuSans-31" x="453.90625"/>
       <use xlink:href="#DejaVuSans-35" x="517.529297"/>
      </g>
     </g>
    </g>
    <g id="xtick_4">
     <g id="line2d_4">
      <g>
       <use xlink:href="#mde4d9f92e0" x="539.672727" y="512.64" style="stroke: #000000; stroke-width: 0.8"/>
      </g>
     </g>
     <g id="text_4">
      <!-- 2025-01-22 -->
      <g transform="translate(510.614915 527.238438) scale(0.1 -0.1)">
       <use xlink:href="#DejaVuSans-32"/>
       <use xlink:href="#DejaVuSans-30" x="63.623047"/>
       <use xlink:href="#DejaVuSans-32" x="127.246094"/>
       <use xlink:href="#DejaVuSans-35" x="190.869141"/>
       <use xlink:href="#DejaVuSans-2d" x="254.492188"/>
       <use xlink:href="#DejaVuSans-30" x="290.576172"/>
       <use xlink:href="#DejaVuSans-31" x="354.199219"/>
       <use xlink:href="#DejaVuSans-2d" x="417.822266"/>
       <use xlink:href="#DejaVuSans-32" x="453.90625"/>
       <use xlink:href="#DejaVuSans-32" x="517.529297"/>
      </g>
     </g>
    </g>
    <g id="xtick_5">
     <g id="line2d_5">
      <g>
       <use xlink:href="#mde4d9f92e0" x="708.763636" y="512.64" style="stroke: #000000; stroke-width: 0.8"/>
      </g>
     </g>
     <g id="text_5">
      <!-- 2025-02-01 -->
      <g transform="translate(679.705824 527.238438) scale(0.1 -0.1)">
       <use xlink:href="#DejaVuSans-32"/>
       <use xlink:href="#DejaVuSans-30" x="63.623047"/>
       <use xlink:href="#DejaVuSans-32" x="127.246094"/>
       <use xlink:href="#DejaVuSans-35" x="190.869141"/>
       <use xlink:href="#DejaVuSans-2d" x="254.492188"/>
       <use xlink:href="#DejaVuSans-30" x="290.576172"/>
       <use xlink:href="#DejaVuSans-32" x="354.199219"/>
       <use xlink:href="#DejaVuSans-2d" x="417.822266"/>
       <use xlink:href="#DejaVuSans-30" x="453.90625"/>
       <use xlink:href="#DejaVuSans-31" x="517.529297"/>
      </g>
     </g>
    </g>
    <g id="xtick_6">
     <g id="line2d_6">
      <g>
       <use xlink:href="#mde4d9f92e0" x="827.127273" y="512.64" style="stroke: #000000; stroke-width: 0.8"/>
      </g>
     </g>
     <g id="text_6">
      <!-- 2025-02-08 -->
      <g transform="translate(798.06946 527.238438) scale(0.1 -0.1)">
       <use xlink:href="#DejaVuSans-32"/>
       <use xlink:href="#DejaVuSans-30" x="63.623047"/>
       <use xlink:href="#DejaVuSans-32" x="127.246094"/>
       <use xlink:href="#DejaVuSans-35" x="190.869141"/>
       <use xlink:href="#DejaVuSans-2d" x="254.492188"/>
       <use xlink:href="#DejaVuSans-30" x="290.576172"/>
       <use xlink:href="#DejaVuSans-32" x="354.199219"/>
       <use xlink:href="#DejaVuSans-2d" x="417.822266"/>
       <use xlink:href="#DejaVuSans-30" x="453.90625"/>
       <use xlink:href="#DejaVuSans-38" x="517.529297"/>
      </g>
     </g>
    </g>
    <g id="xtick_7">
     <g id="line2d_7">
      <g>
       <use xlink:href="#mde4d9f92e0" x="945.490909" y="512.64" style="stroke: #000000; stroke-width: 0.8"/>
      </g>
     </g>
     <g id="text_7">
      <!-- 2025-02-15 -->
      <g transform="translate(916.433097 527.238438) scale(0.1 -0.1)">
       <use xlink:href="#DejaVuSans-32"/>
       <use xlink:href="#DejaVuSans-30" x="63.623047"/>
       <use xlink:href="#DejaVuSans-32" x="127.246094"/>
       <use xlink:href="#DejaVuSans-35" x="190.869141"/>
       <use xlink:href="#DejaVuSans-2d" x="254.492188"/>
       <use xlink:href="#DejaVuSans-30" x="290.576172"/>
       <use xlink:href="#DejaVuSans-32" x="354.199219"/>
       <use xlink:href="#DejaVuSans-2d" x="417.822266"/>
       <use xlink:href="#DejaVuSans-31" x="453.90625"/>
       <use xlink:href="#DejaVuSans-35" x="517.529297"/>
      </g>
     </g>
    </g>
   </g>
   <g id="matplotlib.axis_2">
    <g id="ytick_1">
     <g id="line2d_8">
      <defs>
       <path id="m8df219cf2e" d="M 0 0 
L -3.5 0 
" style="stroke: #000000; stroke-width: 0.8"/>
      </defs>
      <g>
       <use xlink:href="#m8df219cf2e" x="144" y="468.942944" style="stroke: #000000; stroke-width: 0.8"/>
      </g>
     </g>
     <g id="text_8">
      <!-- 8400 -->
      <g transform="translate(111.55 472.742163) scale(0.1 -0.1)">
       <defs>
        <path id="DejaVuSans-34" d="M 2419 4116 
L 825 1625 
L 2419 1625 
L 2419 4116 
z
M 2253 4666 
L 3047 4666 
L 3047 1625 
L 3713 1625 
L 3713 1100 
L 3047 1100 
L 3047 0 
L 2419 0 
L 2419 1100 
L 313 1100 
L 313 1709 
L 2253 4666 
z
" transform="scale(0.015625)"/>
       </defs>
       <use xlink:href="#DejaVuSans-38"/>
       <use xlink:href="#DejaVuSans-34" x="63.623047"/>
       <use xlink:href="#DejaVuSans-30" x="127.246094"/>
       <use xlink:href="#DejaVuSans-30" x="190.869141"/>
      </g>
     </g>
    </g>
    <g id="ytick_2">
     <g id="line2d_9">
      <g>
       <use xlink:href="#m8df219cf2e" x="144" y="400.719594" style="stroke: #000000; stroke-width: 0.8"/>
      </g>
     </g>
     <g id="text_9">
      <!-- 8600 -->
      <g transform="translate(111.55 404.518813) scale(0.1 -0.1)">
       <defs>
        <path id="DejaVuSans-36" d="M 2113 2584 
Q 1688 2584 1439 2293 
Q 1191 2003 1191 1497 
Q 1191 994 1439 701 
Q 1688 409 2113 409 
Q 2538 409 2786 701 
Q 3034 994 3034 1497 
Q 3034 2003 2786 2293 
Q 2538 2584 2113 2584 
z
M 3366 4563 
L 3366 3988 
Q 3128 4100 2886 4159 
Q 2644 4219 2406 4219 
Q 1781 4219 1451 3797 
Q 1122 3375 1075 2522 
Q 1259 2794 1537 2939 
Q 1816 3084 2150 3084 
Q 2853 3084 3261 2657 
Q 3669 2231 3669 1497 
Q 3669 778 3244 343 
Q 2819 -91 2113 -91 
Q 1303 -91 875 529 
Q 447 1150 447 2328 
Q 447 3434 972 4092 
Q 1497 4750 2381 4750 
Q 2619 4750 2861 4703 
Q 3103 4656 3366 4563 
z
" transform="scale(0.015625)"/>
       </defs>
       <use xlink:href="#DejaVuSans-38"/>
       <use xlink:href="#DejaVuSans-36" x="63.623047"/>
       <use xlink:href="#DejaVuSans-30" x="127.246094"/>
       <use xlink:href="#DejaVuSans-30" x="190.869141"/>
      </g>
     </g>
    </g>
    <g id="ytick_3">
     <g id="line2d_10">
      <g>
       <use xlink:href="#m8df219cf2e" x="144" y="332.496244" style="stroke: #000000; stroke-width: 0.8"/>
      </g>
     </g>
     <g id="text_10">
      <!-- 8800 -->
      <g transform="translate(111.55 336.295462) scale(0.1 -0.1)">
       <use xlink:href="#DejaVuSans-38"/>
       <use xlink:href="#DejaVuSans-38" x="63.623047"/>
       <use xlink:href="#DejaVuSans-30" x="127.246094"/>
       <use xlink:href="#DejaVuSans-30" x="190.869141"/>
      </g>
     </g>
    </g>
    <g id="ytick_4">
     <g id="line2d_11">
      <g>
       <use xlink:href="#m8df219cf2e" x="144" y="264.272893" style="stroke: #000000; stroke-width: 0.8"/>
      </g>
     </g>
     <g id="text_11">
      <!-- 9000 -->
      <g transform="translate(111.55 268.072112) scale(0.1 -0.1)">
       <defs>
        <path id="DejaVuSans-39" d="M 703 97 
L 703 672 
Q 941 559 1184 500 
Q 1428 441 1663 441 
Q 2288 441 2617 861 
Q 2947 1281 2994 2138 
Q 2813 1869 2534 1725 
Q 2256 1581 1919 1581 
Q 1219 1581 811 2004 
Q 403 2428 403 3163 
Q 403 3881 828 4315 
Q 1253 4750 1959 4750 
Q 2769 4750 3195 4129 
Q 3622 3509 3622 2328 
Q 3622 1225 3098 567 
Q 2575 -91 1691 -91 
Q 1453 -91 1209 -44 
Q 966 3 703 97 
z
M 1959 2075 
Q 2384 2075 2632 2365 
Q 2881 2656 2881 3163 
Q 2881 3666 2632 3958 
Q 2384 4250 1959 4250 
Q 1534 4250 1286 3958 
Q 1038 3666 1038 3163 
Q 1038 2656 1286 2365 
Q 1534 2075 1959 2075 
z
" transform="scale(0.015625)"/>
       </defs>
       <use xlink:href="#DejaVuSans-39"/>
       <use xlink:href="#DejaVuSans-30" x="63.623047"/>
       <use xlink:href="#DejaVuSans-30" x="127.246094"/>
       <use xlink:href="#DejaVuSans-30" x="190.869141"/>
      </g>
     </g>
    </g>
    <g id="ytick_5">
     <g id="line2d_12">
      <g>
       <use xlink:href="#m8df219cf2e" x="144" y="196.049543" style="stroke: #000000; stroke-width: 0.8"/>
      </g>
     </g>
     <g id="text_12">
      <!-- 9200 -->
      <g transform="translate(111.55 199.848762) scale(0.1 -0.1)">
       <use xlink:href="#DejaVuSans-39"/>
       <use xlink:href="#DejaVuSans-32" x="63.623047"/>
       <use xlink:href="#DejaVuSans-30" x="127.246094"/>
       <use xlink:href="#DejaVuSans-30" x="190.869141"/>
      </g>
     </g>
    </g>
    <g id="ytick_6">
     <g id="line2d_13">
      <g>
       <use xlink:href="#m8df219cf2e" x="144" y="127.826193" style="stroke: #000000; stroke-width: 0.8"/>
      </g>
     </g>
     <g id="text_13">
      <!-- 9400 -->
      <g transform="translate(111.55 131.625412) scale(0.1 -0.1)">
       <use xlink:href="#DejaVuSans-39"/>
       <use xlink:href="#DejaVuSans-34" x="63.623047"/>
       <use xlink:href="#DejaVuSans-30" x="127.246094"/>
       <use xlink:href="#DejaVuSans-30" x="190.869141"/>
      </g>
     </g>
    </g>
   </g>
   <g id="line2d_14">
    <path d="M 184.581818 492.48 
L 201.490909 490.774416 
L 218.4 485.657665 
L 235.309091 484.634315 
L 252.218182 481.905381 
L 269.127273 478.494213 
L 286.036364 477.81198 
L 302.945455 475.083046 
L 319.854545 474.059695 
L 336.763636 472.695228 
L 353.672727 472.012995 
L 370.581818 470.307411 
L 387.490909 468.942944 
L 404.4 467.23736 
L 421.309091 465.531777 
L 438.218182 463.485076 
L 455.127273 461.779492 
L 472.036364 459.732792 
L 488.945455 457.344975 
L 505.854545 454.616041 
L 522.763636 452.56934 
L 539.672727 448.817056 
L 556.581818 443.359188 
L 573.490909 435.172386 
L 590.4 432.784569 
L 607.309091 428.350051 
L 624.218182 423.574416 
L 641.127273 412.317563 
L 658.036364 401.742944 
L 674.945455 390.486091 
L 691.854545 378.547005 
L 708.763636 372.065787 
L 725.672727 369.336853 
L 742.581818 364.220102 
L 759.490909 344.776447 
L 776.4 307.594721 
L 793.309091 291.562234 
L 810.218182 268.366294 
L 827.127273 262.226193 
L 844.036364 251.310457 
L 860.945455 235.960203 
L 877.854545 220.609949 
L 894.763636 200.825178 
L 911.672727 170.806904 
L 928.581818 149.316548 
L 945.490909 145.223147 
L 962.4 140.788629 
L 979.309091 98.490152 
L 996.218182 89.28 
" clip-path="url(#p8a587b9a61)" style="fill: none; stroke: #1f77b4; stroke-width: 1.5; stroke-linecap: square"/>
   </g>
   <g id="patch_3">
    <path d="M 144 512.64 
L 144 69.12 
" style="fill: none; stroke: #000000; stroke-width: 0.8; stroke-linejoin: miter; stroke-linecap: square"/>
   </g>
   <g id="patch_4">
    <path d="M 1036.8 512.64 
L 1036.8 69.12 
" style="fill: none; stroke: #000000; stroke-width: 0.8; stroke-linejoin: miter; stroke-linecap: square"/>
   </g>
   <g id="patch_5">
    <path d="M 144 512.64 
L 1036.8 512.64 
" style="fill: none; stroke: #000000; stroke-width: 0.8; stroke-linejoin: miter; stroke-linecap: square"/>
   </g>
   <g id="patch_6">
    <path d="M 144 69.12 
L 1036.8 69.12 
" style="fill: none; stroke: #000000; stroke-width: 0.8; stroke-linejoin: miter; stroke-linecap: square"/>
   </g>
   <g id="text_14">
    <!-- Number of AEDs in the OpenStreetMap database in Poland from 2025-01-01, day by day. As at: 2025-02-18 -->
    <g transform="translate(144 63.12) scale(0.14 -0.14)">
     <defs>
      <path id="DejaVuSans-4e" d="M 628 4666 
L 1478 4666 
L 3547 763 
L 3547 4666 
L 4159 4666 
L 4159 0 
L 3309 0 
L 1241 3903 
L 1241 0 
L 628 0 
L 628 4666 
z
" transform="scale(0.015625)"/>
      <path id="DejaVuSans-75" d="M 544 1381 
L 544 3500 
L 1119 3500 
L 1119 1403 
Q 1119 906 1312 657 
Q 1506 409 1894 409 
Q 2359 409 2629 706 
Q 2900 1003 2900 1516 
L 2900 3500 
L 3475 3500 
L 3475 0 
L 2900 0 
L 2900 538 
Q 2691 219 2414 64 
Q 2138 -91 1772 -91 
Q 1169 -91 856 284 
Q 544 659 544 1381 
z
M 1991 3584 
L 1991 3584 
z
" transform="scale(0.015625)"/>
      <path id="DejaVuSans-6d" d="M 3328 2828 
Q 3544 3216 3844 3400 
Q 4144 3584 4550 3584 
Q 5097 3584 5394 3201 
Q 5691 2819 5691 2113 
L 5691 0 
L 5113 0 
L 5113 2094 
Q 5113 2597 4934 2840 
Q 4756 3084 4391 3084 
Q 3944 3084 3684 2787 
Q 3425 2491 3425 1978 
L 3425 0 
L 2847 0 
L 2847 2094 
Q 2847 2600 2669 2842 
Q 2491 3084 2119 3084 
Q 1678 3084 1418 2786 
Q 1159 2488 1159 1978 
L 1159 0 
L 581 0 
L 581 3500 
L 1159 3500 
L 1159 2956 
Q 1356 3278 1631 3431 
Q 1906 3584 2284 3584 
Q 2666 3584 2933 3390 
Q 3200 3197 3328 2828 
z
" transform="scale(0.015625)"/>
      <path id="DejaVuSans-62" d="M 3116 1747 
Q 3116 2381 2855 2742 
Q 2594 3103 2138 3103 
Q 1681 3103 1420 2742 
Q 1159 2381 1159 1747 
Q 1159 1113 1420 752 
Q 1681 391 2138 391 
Q 2594 391 2855 752 
Q 3116 1113 3116 1747 
z
M 1159 2969 
Q 1341 3281 1617 3432 
Q 1894 3584 2278 3584 
Q 2916 3584 3314 3078 
Q 3713 2572 3713 1747 
Q 3713 922 3314 415 
Q 2916 -91 2278 -91 
Q 1894 -91 1617 61 
Q 1341 213 1159 525 
L 1159 0 
L 581 0 
L 581 4863 
L 1159 4863 
L 1159 2969 
z
" transform="scale(0.015625)"/>
      <path id="DejaVuSans-65" d="M 3597 1894 
L 3597 1613 
L 953 1613 
Q 991 1019 1311 708 
Q 1631 397 2203 397 
Q 2534 397 2845 478 
Q 3156 559 3463 722 
L 3463 178 
Q 3153 47 2828 -22 
Q 2503 -91 2169 -91 
Q 1331 -91 842 396 
Q 353 884 353 1716 
Q 353 2575 817 3079 
Q 1281 3584 2069 3584 
Q 2775 3584 3186 3129 
Q 3597 2675 3597 1894 
z
M 3022 2063 
Q 3016 2534 2758 2815 
Q 2500 3097 2075 3097 
Q 1594 3097 1305 2825 
Q 1016 2553 972 2059 
L 3022 2063 
z
" transform="scale(0.015625)"/>
      <path id="DejaVuSans-72" d="M 2631 2963 
Q 2534 3019 2420 3045 
Q 2306 3072 2169 3072 
Q 1681 3072 1420 2755 
Q 1159 2438 1159 1844 
L 1159 0 
L 581 0 
L 581 3500 
L 1159 3500 
L 1159 2956 
Q 1341 3275 1631 3429 
Q 1922 3584 2338 3584 
Q 2397 3584 2469 3576 
Q 2541 3569 2628 3553 
L 2631 2963 
z
" transform="scale(0.015625)"/>
      <path id="DejaVuSans-20" transform="scale(0.015625)"/>
      <path id="DejaVuSans-6f" d="M 1959 3097 
Q 1497 3097 1228 2736 
Q 959 2375 959 1747 
Q 959 1119 1226 758 
Q 1494 397 1959 397 
Q 2419 397 2687 759 
Q 2956 1122 2956 1747 
Q 2956 2369 2687 2733 
Q 2419 3097 1959 3097 
z
M 1959 3584 
Q 2709 3584 3137 3096 
Q 3566 2609 3566 1747 
Q 3566 888 3137 398 
Q 2709 -91 1959 -91 
Q 1206 -91 779 398 
Q 353 888 353 1747 
Q 353 2609 779 3096 
Q 1206 3584 1959 3584 
z
" transform="scale(0.015625)"/>
      <path id="DejaVuSans-66" d="M 2375 4863 
L 2375 4384 
L 1825 4384 
Q 1516 4384 1395 4259 
Q 1275 4134 1275 3809 
L 1275 3500 
L 2222 3500 
L 2222 3053 
L 1275 3053 
L 1275 0 
L 697 0 
L 697 3053 
L 147 3053 
L 147 3500 
L 697 3500 
L 697 3744 
Q 697 4328 969 4595 
Q 1241 4863 1831 4863 
L 2375 4863 
z
" transform="scale(0.015625)"/>
      <path id="DejaVuSans-41" d="M 2188 4044 
L 1331 1722 
L 3047 1722 
L 2188 4044 
z
M 1831 4666 
L 2547 4666 
L 4325 0 
L 3669 0 
L 3244 1197 
L 1141 1197 
L 716 0 
L 50 0 
L 1831 4666 
z
" transform="scale(0.015625)"/>
      <path id="DejaVuSans-45" d="M 628 4666 
L 3578 4666 
L 3578 4134 
L 1259 4134 
L 1259 2753 
L 3481 2753 
L 3481 2222 
L 1259 2222 
L 1259 531 
L 3634 531 
L 3634 0 
L 628 0 
L 628 4666 
z
" transform="scale(0.015625)"/>
      <path id="DejaVuSans-44" d="M 1259 4147 
L 1259 519 
L 2022 519 
Q 2988 519 3436 956 
Q 3884 1394 3884 2338 
Q 3884 3275 3436 3711 
Q 2988 4147 2022 4147 
L 1259 4147 
z
M 628 4666 
L 1925 4666 
Q 3281 4666 3915 4102 
Q 4550 3538 4550 2338 
Q 4550 1131 3912 565 
Q 3275 0 1925 0 
L 628 0 
L 628 4666 
z
" transform="scale(0.015625)"/>
      <path id="DejaVuSans-73" d="M 2834 3397 
L 2834 2853 
Q 2591 2978 2328 3040 
Q 2066 3103 1784 3103 
Q 1356 3103 1142 2972 
Q 928 2841 928 2578 
Q 928 2378 1081 2264 
Q 1234 2150 1697 2047 
L 1894 2003 
Q 2506 1872 2764 1633 
Q 3022 1394 3022 966 
Q 3022 478 2636 193 
Q 2250 -91 1575 -91 
Q 1294 -91 989 -36 
Q 684 19 347 128 
L 347 722 
Q 666 556 975 473 
Q 1284 391 1588 391 
Q 1994 391 2212 530 
Q 2431 669 2431 922 
Q 2431 1156 2273 1281 
Q 2116 1406 1581 1522 
L 1381 1569 
Q 847 1681 609 1914 
Q 372 2147 372 2553 
Q 372 3047 722 3315 
Q 1072 3584 1716 3584 
Q 2034 3584 2315 3537 
Q 2597 3491 2834 3397 
z
" transform="scale(0.015625)"/>
      <path id="DejaVuSans-69" d="M 603 3500 
L 1178 3500 
L 1178 0 
L 603 0 
L 603 3500 
z
M 603 4863 
L 1178 4863 
L 1178 4134 
L 603 4134 
L 603 4863 
z
" transform="scale(0.015625)"/>
      <path id="DejaVuSans-6e" d="M 3513 2113 
L 3513 0 
L 2938 0 
L 2938 2094 
Q 2938 2591 2744 2837 
Q 2550 3084 2163 3084 
Q 1697 3084 1428 2787 
Q 1159 2491 1159 1978 
L 1159 0 
L 581 0 
L 581 3500 
L 1159 3500 
L 1159 2956 
Q 1366 3272 1645 3428 
Q 1925 3584 2291 3584 
Q 2894 3584 3203 3211 
Q 3513 2838 3513 2113 
z
" transform="scale(0.015625)"/>
      <path id="DejaVuSans-74" d="M 1172 4494 
L 1172 3500 
L 2356 3500 
L 2356 3053 
L 1172 3053 
L 1172 1153 
Q 1172 725 1289 603 
Q 1406 481 1766 481 
L 2356 481 
L 2356 0 
L 1766 0 
Q 1100 0 847 248 
Q 594 497 594 1153 
L 594 3053 
L 172 3053 
L 172 3500 
L 594 3500 
L 594 4494 
L 1172 4494 
z
" transform="scale(0.015625)"/>
      <path id="DejaVuSans-68" d="M 3513 2113 
L 3513 0 
L 2938 0 
L 2938 2094 
Q 2938 2591 2744 2837 
Q 2550 3084 2163 3084 
Q 1697 3084 1428 2787 
Q 1159 2491 1159 1978 
L 1159 0 
L 581 0 
L 581 4863 
L 1159 4863 
L 1159 2956 
Q 1366 3272 1645 3428 
Q 1925 3584 2291 3584 
Q 2894 3584 3203 3211 
Q 3513 2838 3513 2113 
z
" transform="scale(0.015625)"/>
      <path id="DejaVuSans-4f" d="M 2522 4238 
Q 1834 4238 1429 3725 
Q 1025 3213 1025 2328 
Q 1025 1447 1429 934 
Q 1834 422 2522 422 
Q 3209 422 3611 934 
Q 4013 1447 4013 2328 
Q 4013 3213 3611 3725 
Q 3209 4238 2522 4238 
z
M 2522 4750 
Q 3503 4750 4090 4092 
Q 4678 3434 4678 2328 
Q 4678 1225 4090 567 
Q 3503 -91 2522 -91 
Q 1538 -91 948 565 
Q 359 1222 359 2328 
Q 359 3434 948 4092 
Q 1538 4750 2522 4750 
z
" transform="scale(0.015625)"/>
      <path id="DejaVuSans-70" d="M 1159 525 
L 1159 -1331 
L 581 -1331 
L 581 3500 
L 1159 3500 
L 1159 2969 
Q 1341 3281 1617 3432 
Q 1894 3584 2278 3584 
Q 2916 3584 3314 3078 
Q 3713 2572 3713 1747 
Q 3713 922 3314 415 
Q 2916 -91 2278 -91 
Q 1894 -91 1617 61 
Q 1341 213 1159 525 
z
M 3116 1747 
Q 3116 2381 2855 2742 
Q 2594 3103 2138 3103 
Q 1681 3103 1420 2742 
Q 1159 2381 1159 1747 
Q 1159 1113 1420 752 
Q 1681 391 2138 391 
Q 2594 391 2855 752 
Q 3116 1113 3116 1747 
z
" transform="scale(0.015625)"/>
      <path id="DejaVuSans-53" d="M 3425 4513 
L 3425 3897 
Q 3066 4069 2747 4153 
Q 2428 4238 2131 4238 
Q 1616 4238 1336 4038 
Q 1056 3838 1056 3469 
Q 1056 3159 1242 3001 
Q 1428 2844 1947 2747 
L 2328 2669 
Q 3034 2534 3370 2195 
Q 3706 1856 3706 1288 
Q 3706 609 3251 259 
Q 2797 -91 1919 -91 
Q 1588 -91 1214 -16 
Q 841 59 441 206 
L 441 856 
Q 825 641 1194 531 
Q 1563 422 1919 422 
Q 2459 422 2753 634 
Q 3047 847 3047 1241 
Q 3047 1584 2836 1778 
Q 2625 1972 2144 2069 
L 1759 2144 
Q 1053 2284 737 2584 
Q 422 2884 422 3419 
Q 422 4038 858 4394 
Q 1294 4750 2059 4750 
Q 2388 4750 2728 4690 
Q 3069 4631 3425 4513 
z
" transform="scale(0.015625)"/>
      <path id="DejaVuSans-4d" d="M 628 4666 
L 1569 4666 
L 2759 1491 
L 3956 4666 
L 4897 4666 
L 4897 0 
L 4281 0 
L 4281 4097 
L 3078 897 
L 2444 897 
L 1241 4097 
L 1241 0 
L 628 0 
L 628 4666 
z
" transform="scale(0.015625)"/>
      <path id="DejaVuSans-61" d="M 2194 1759 
Q 1497 1759 1228 1600 
Q 959 1441 959 1056 
Q 959 750 1161 570 
Q 1363 391 1709 391 
Q 2188 391 2477 730 
Q 2766 1069 2766 1631 
L 2766 1759 
L 2194 1759 
z
M 3341 1997 
L 3341 0 
L 2766 0 
L 2766 531 
Q 2569 213 2275 61 
Q 1981 -91 1556 -91 
Q 1019 -91 701 211 
Q 384 513 384 1019 
Q 384 1609 779 1909 
Q 1175 2209 1959 2209 
L 2766 2209 
L 2766 2266 
Q 2766 2663 2505 2880 
Q 2244 3097 1772 3097 
Q 1472 3097 1187 3025 
Q 903 2953 641 2809 
L 641 3341 
Q 956 3463 1253 3523 
Q 1550 3584 1831 3584 
Q 2591 3584 2966 3190 
Q 3341 2797 3341 1997 
z
" transform="scale(0.015625)"/>
      <path id="DejaVuSans-64" d="M 2906 2969 
L 2906 4863 
L 3481 4863 
L 3481 0 
L 2906 0 
L 2906 525 
Q 2725 213 2448 61 
Q 2172 -91 1784 -91 
Q 1150 -91 751 415 
Q 353 922 353 1747 
Q 353 2572 751 3078 
Q 1150 3584 1784 3584 
Q 2172 3584 2448 3432 
Q 2725 3281 2906 2969 
z
M 947 1747 
Q 947 1113 1208 752 
Q 1469 391 1925 391 
Q 2381 391 2643 752 
Q 2906 1113 2906 1747 
Q 2906 2381 2643 2742 
Q 2381 3103 1925 3103 
Q 1469 3103 1208 2742 
Q 947 2381 947 1747 
z
" transform="scale(0.015625)"/>
      <path id="DejaVuSans-50" d="M 1259 4147 
L 1259 2394 
L 2053 2394 
Q 2494 2394 2734 2622 
Q 2975 2850 2975 3272 
Q 2975 3691 2734 3919 
Q 2494 4147 2053 4147 
L 1259 4147 
z
M 628 4666 
L 2053 4666 
Q 2838 4666 3239 4311 
Q 3641 3956 3641 3272 
Q 3641 2581 3239 2228 
Q 2838 1875 2053 1875 
L 1259 1875 
L 1259 0 
L 628 0 
L 628 4666 
z
" transform="scale(0.015625)"/>
      <path id="DejaVuSans-6c" d="M 603 4863 
L 1178 4863 
L 1178 0 
L 603 0 
L 603 4863 
z
" transform="scale(0.015625)"/>
      <path id="DejaVuSans-2c" d="M 750 794 
L 1409 794 
L 1409 256 
L 897 -744 
L 494 -744 
L 750 256 
L 750 794 
z
" transform="scale(0.015625)"/>
      <path id="DejaVuSans-79" d="M 2059 -325 
Q 1816 -950 1584 -1140 
Q 1353 -1331 966 -1331 
L 506 -1331 
L 506 -850 
L 844 -850 
Q 1081 -850 1212 -737 
Q 1344 -625 1503 -206 
L 1606 56 
L 191 3500 
L 800 3500 
L 1894 763 
L 2988 3500 
L 3597 3500 
L 2059 -325 
z
" transform="scale(0.015625)"/>
      <path id="DejaVuSans-2e" d="M 684 794 
L 1344 794 
L 1344 0 
L 684 0 
L 684 794 
z
" transform="scale(0.015625)"/>
      <path id="DejaVuSans-3a" d="M 750 794 
L 1409 794 
L 1409 0 
L 750 0 
L 750 794 
z
M 750 3309 
L 1409 3309 
L 1409 2516 
L 750 2516 
L 750 3309 
z
" transform="scale(0.015625)"/>
     </defs>
     <use xlink:href="#DejaVuSans-4e"/>
     <use xlink:href="#DejaVuSans-75" x="74.804688"/>
     <use xlink:href="#DejaVuSans-6d" x="138.183594"/>
     <use xlink:href="#DejaVuSans-62" x="235.595703"/>
     <use xlink:href="#DejaVuSans-65" x="299.072266"/>
     <use xlink:href="#DejaVuSans-72" x="360.595703"/>
     <use xlink:href="#DejaVuSans-20" x="401.708984"/>
     <use xlink:href="#DejaVuSans-6f" x="433.496094"/>
     <use xlink:href="#DejaVuSans-66" x="494.677734"/>
     <use xlink:href="#DejaVuSans-20" x="529.882812"/>
     <use xlink:href="#DejaVuSans-41" x="561.669922"/>
     <use xlink:href="#DejaVuSans-45" x="630.078125"/>
     <use xlink:href="#DejaVuSans-44" x="693.261719"/>
     <use xlink:href="#DejaVuSans-73" x="770.263672"/>
     <use xlink:href="#DejaVuSans-20" x="822.363281"/>
     <use xlink:href="#DejaVuSans-69" x="854.150391"/>
     <use xlink:href="#DejaVuSans-6e" x="881.933594"/>
     <use xlink:href="#DejaVuSans-20" x="945.3125"/>
     <use xlink:href="#DejaVuSans-74" x="977.099609"/>
     <use xlink:href="#DejaVuSans-68" x="1016.308594"/>
     <use xlink:href="#DejaVuSans-65" x="1079.6875"/>
     <use xlink:href="#DejaVuSans-20" x="1141.210938"/>
     <use xlink:href="#DejaVuSans-4f" x="1172.998047"/>
     <use xlink:href="#DejaVuSans-70" x="1251.708984"/>
     <use xlink:href="#DejaVuSans-65" x="1315.185547"/>
     <use xlink:href="#DejaVuSans-6e" x="1376.708984"/>
     <use xlink:href="#DejaVuSans-53" x="1440.087891"/>
     <use xlink:href="#DejaVuSans-74" x="1503.564453"/>
     <use xlink:href="#DejaVuSans-72" x="1542.773438"/>
     <use xlink:href="#DejaVuSans-65" x="1581.636719"/>
     <use xlink:href="#DejaVuSans-65" x="1643.160156"/>
     <use xlink:href="#DejaVuSans-74" x="1704.683594"/>
     <use xlink:href="#DejaVuSans-4d" x="1743.892578"/>
     <use xlink:href="#DejaVuSans-61" x="1830.171875"/>
     <use xlink:href="#DejaVuSans-70" x="1891.451172"/>
     <use xlink:href="#DejaVuSans-20" x="1954.927734"/>
     <use xlink:href="#DejaVuSans-64" x="1986.714844"/>
     <use xlink:href="#DejaVuSans-61" x="2050.191406"/>
     <use xlink:href="#DejaVuSans-74" x="2111.470703"/>
     <use xlink:href="#DejaVuSans-61" x="2150.679688"/>
     <use xlink:href="#DejaVuSans-62" x="2211.958984"/>
     <use xlink:href="#DejaVuSans-61" x="2275.435547"/>
     <use xlink:href="#DejaVuSans-73" x="2336.714844"/>
     <use xlink:href="#DejaVuSans-65" x="2388.814453"/>
     <use xlink:href="#DejaVuSans-20" x="2450.337891"/>
     <use xlink:href="#DejaVuSans-69" x="2482.125"/>
     <use xlink:href="#DejaVuSans-6e" x="2509.908203"/>
     <use xlink:href="#DejaVuSans-20" x="2573.287109"/>
     <use xlink:href="#DejaVuSans-50" x="2605.074219"/>
     <use xlink:href="#DejaVuSans-6f" x="2661.751953"/>
     <use xlink:href="#DejaVuSans-6c" x="2722.933594"/>
     <use xlink:href="#DejaVuSans-61" x="2750.716797"/>
     <use xlink:href="#DejaVuSans-6e" x="2811.996094"/>
     <use xlink:href="#DejaVuSans-64" x="2875.375"/>
     <use xlink:href="#DejaVuSans-20" x="2938.851562"/>
     <use xlink:href="#DejaVuSans-66" x="2970.638672"/>
     <use xlink:href="#DejaVuSans-72" x="3005.84375"/>
     <use xlink:href="#DejaVuSans-6f" x="3044.707031"/>
     <use xlink:href="#DejaVuSans-6d" x="3105.888672"/>
     <use xlink:href="#DejaVuSans-20" x="3203.300781"/>
     <use xlink:href="#DejaVuSans-32" x="3235.087891"/>
     <use xlink:href="#DejaVuSans-30" x="3298.710938"/>
     <use xlink:href="#DejaVuSans-32" x="3362.333984"/>
     <use xlink:href="#DejaVuSans-35" x="3425.957031"/>
     <use xlink:href="#DejaVuSans-2d" x="3489.580078"/>
     <use xlink:href="#DejaVuSans-30" x="3525.664062"/>
     <use xlink:href="#DejaVuSans-31" x="3589.287109"/>
     <use xlink:href="#DejaVuSans-2d" x="3652.910156"/>
     <use xlink:href="#DejaVuSans-30" x="3688.994141"/>
     <use xlink:href="#DejaVuSans-31" x="3752.617188"/>
     <use xlink:href="#DejaVuSans-2c" x="3816.240234"/>
     <use xlink:href="#DejaVuSans-20" x="3848.027344"/>
     <use xlink:href="#DejaVuSans-64" x="3879.814453"/>
     <use xlink:href="#DejaVuSans-61" x="3943.291016"/>
     <use xlink:href="#DejaVuSans-79" x="4004.570312"/>
     <use xlink:href="#DejaVuSans-20" x="4063.75"/>
     <use xlink:href="#DejaVuSans-62" x="4095.537109"/>
     <use xlink:href="#DejaVuSans-79" x="4159.013672"/>
     <use xlink:href="#DejaVuSans-20" x="4218.193359"/>
     <use xlink:href="#DejaVuSans-64" x="4249.980469"/>
     <use xlink:href="#DejaVuSans-61" x="4313.457031"/>
     <use xlink:href="#DejaVuSans-79" x="4374.736328"/>
     <use xlink:href="#DejaVuSans-2e" x="4419.666016"/>
     <use xlink:href="#DejaVuSans-20" x="4451.453125"/>
     <use xlink:href="#DejaVuSans-41" x="4483.240234"/>
     <use xlink:href="#DejaVuSans-73" x="4551.648438"/>
     <use xlink:href="#DejaVuSans-20" x="4603.748047"/>
     <use xlink:href="#DejaVuSans-61" x="4635.535156"/>
     <use xlink:href="#DejaVuSans-74" x="4696.814453"/>
     <use xlink:href="#DejaVuSans-3a" x="4736.023438"/>
     <use xlink:href="#DejaVuSans-20" x="4769.714844"/>
     <use xlink:href="#DejaVuSans-32" x="4801.501953"/>
     <use xlink:href="#DejaVuSans-30" x="4865.125"/>
     <use xlink:href="#DejaVuSans-32" x="4928.748047"/>
     <use xlink:href="#DejaVuSans-35" x="4992.371094"/>
     <use xlink:href="#DejaVuSans-2d" x="5055.994141"/>
     <use xlink:href="#DejaVuSans-30" x="5092.078125"/>
     <use xlink:href="#DejaVuSans-32" x="5155.701172"/>
     <use xlink:href="#DejaVuSans-2d" x="5219.324219"/>
     <use xlink:href="#DejaVuSans-31" x="5255.408203"/>
     <use xlink:href="#DejaVuSans-38" x="5319.03125"/>
    </g>
   </g>
  </g>
 </g>
 <defs>
  <clipPath id="p8a587b9a61">
   <rect x="144" y="69.12" width="892.8" height="443.52"/>
  </clipPath>
 </defs>
</svg>
