<?xml version="1.0" encoding="utf-8" standalone="no"?>
<!DOCTYPE svg PUBLIC "-//W3C//DTD SVG 1.1//EN"
  "http://www.w3.org/Graphics/SVG/1.1/DTD/svg11.dtd">
<svg xmlns:xlink="http://www.w3.org/1999/xlink" width="1152pt" height="576pt" viewBox="0 0 1152 576" xmlns="http://www.w3.org/2000/svg" version="1.1">
 <metadata>
  <rdf:RDF xmlns:dc="http://purl.org/dc/elements/1.1/" xmlns:cc="http://creativecommons.org/ns#" xmlns:rdf="http://www.w3.org/1999/02/22-rdf-syntax-ns#">
   <cc:Work>
    <dc:type rdf:resource="http://purl.org/dc/dcmitype/StillImage"/>
    <dc:date>2022-04-03T19:34:05.284091</dc:date>
    <dc:format>image/svg+xml</dc:format>
    <dc:creator>
     <cc:Agent>
      <dc:title>Matplotlib v3.5.1, https://matplotlib.org/</dc:title>
     </cc:Agent>
    </dc:creator>
   </cc:Work>
  </rdf:RDF>
 </metadata>
 <defs>
  <style type="text/css">*{stroke-linejoin: round; stroke-linecap: butt}</style>
 </defs>
 <g id="figure_1">
  <g id="patch_1">
   <path d="M 0 576 
L 1152 576 
L 1152 0 
L 0 0 
z
" style="fill: #ffffff"/>
  </g>
  <g id="axes_1">
   <g id="patch_2">
    <path d="M 144 512.64 
L 1036.8 512.64 
L 1036.8 69.12 
L 144 69.12 
z
" style="fill: #ffffff"/>
   </g>
   <g id="PathCollection_1">
    <path d="M 184.581818 502.48 
C 187.233849 502.48 189.777617 501.426337 191.652886 499.551068 
C 193.528155 497.675799 194.581818 495.132031 194.581818 492.48 
C 194.581818 489.827969 193.528155 487.284201 191.652886 485.408932 
C 189.777617 483.533663 187.233849 482.48 184.581818 482.48 
C 181.929787 482.48 179.386019 483.533663 177.51075 485.408932 
C 175.635481 487.284201 174.581818 489.827969 174.581818 492.48 
C 174.581818 495.132031 175.635481 497.675799 177.51075 499.551068 
C 179.386019 501.426337 181.929787 502.48 184.581818 502.48 
z
" clip-path="url(#peb30d373e3)" style="fill: #1f77b4; fill-opacity: 0.3; stroke: #1f77b4; stroke-opacity: 0.3"/>
    <path d="M 193.403953 494.768278 
C 194.130241 494.768278 194.826881 494.47972 195.340444 493.966157 
C 195.854008 493.452593 196.142565 492.755954 196.142565 492.029665 
C 196.142565 491.303376 195.854008 490.606737 195.340444 490.093173 
C 194.826881 489.57961 194.130241 489.291052 193.403953 489.291052 
C 192.677664 489.291052 191.981024 489.57961 191.467461 490.093173 
C 190.953897 490.606737 190.66534 491.303376 190.66534 492.029665 
C 190.66534 492.755954 190.953897 493.452593 191.467461 493.966157 
C 191.981024 494.47972 192.677664 494.768278 193.403953 494.768278 
z
" clip-path="url(#peb30d373e3)" style="fill: #1f77b4; fill-opacity: 0.3; stroke: #1f77b4; stroke-opacity: 0.3"/>
    <path d="M 202.226087 495.001978 
C 203.253214 495.001978 204.238411 494.593896 204.9647 493.867608 
C 205.690988 493.141319 206.09907 492.156122 206.09907 491.128995 
C 206.09907 490.101868 205.690988 489.116671 204.9647 488.390382 
C 204.238411 487.664093 203.253214 487.256011 202.226087 487.256011 
C 201.19896 487.256011 200.213763 487.664093 199.487474 488.390382 
C 198.761186 489.116671 198.353104 490.101868 198.353104 491.128995 
C 198.353104 492.156122 198.761186 493.141319 199.487474 493.867608 
C 200.213763 494.593896 201.19896 495.001978 202.226087 495.001978 
z
" clip-path="url(#peb30d373e3)" style="fill: #1f77b4; fill-opacity: 0.3; stroke: #1f77b4; stroke-opacity: 0.3"/>
    <path d="M 211.048221 494.261513 
C 212.157646 494.261513 213.22178 493.820734 214.006261 493.036253 
C 214.790743 492.251771 215.231521 491.187637 215.231521 490.078213 
C 215.231521 488.968789 214.790743 487.904654 214.006261 487.120173 
C 213.22178 486.335692 212.157646 485.894913 211.048221 485.894913 
C 209.938797 485.894913 208.874663 486.335692 208.090181 487.120173 
C 207.3057 487.904654 206.864921 488.968789 206.864921 490.078213 
C 206.864921 491.187637 207.3057 492.251771 208.090181 493.036253 
C 208.874663 493.820734 209.938797 494.261513 211.048221 494.261513 
z
" clip-path="url(#peb30d373e3)" style="fill: #1f77b4; fill-opacity: 0.3; stroke: #1f77b4; stroke-opacity: 0.3"/>
    <path d="M 219.870356 492.366491 
C 220.596644 492.366491 221.293284 492.077933 221.806847 491.56437 
C 222.320411 491.050806 222.608969 490.354166 222.608969 489.627878 
C 222.608969 488.901589 222.320411 488.20495 221.806847 487.691386 
C 221.293284 487.177823 220.596644 486.889265 219.870356 486.889265 
C 219.144067 486.889265 218.447428 487.177823 217.933864 487.691386 
C 217.4203 488.20495 217.131743 488.901589 217.131743 489.627878 
C 217.131743 490.354166 217.4203 491.050806 217.933864 491.56437 
C 218.447428 492.077933 219.144067 492.366491 219.870356 492.366491 
z
" clip-path="url(#peb30d373e3)" style="fill: #1f77b4; fill-opacity: 0.3; stroke: #1f77b4; stroke-opacity: 0.3"/>
    <path d="M 228.69249 491.563722 
C 229.285502 491.563722 229.854306 491.328116 230.273629 490.908793 
C 230.692952 490.48947 230.928558 489.920667 230.928558 489.327655 
C 230.928558 488.734642 230.692952 488.165839 230.273629 487.746516 
C 229.854306 487.327193 229.285502 487.091587 228.69249 487.091587 
C 228.099478 487.091587 227.530674 487.327193 227.111351 487.746516 
C 226.692028 488.165839 226.456422 488.734642 226.456422 489.327655 
C 226.456422 489.920667 226.692028 490.48947 227.111351 490.908793 
C 227.530674 491.328116 228.099478 491.563722 228.69249 491.563722 
z
" clip-path="url(#peb30d373e3)" style="fill: #1f77b4; fill-opacity: 0.3; stroke: #1f77b4; stroke-opacity: 0.3"/>
    <path d="M 237.514625 491.889485 
C 238.35327 491.889485 239.15768 491.556288 239.750692 490.963276 
C 240.343705 490.370264 240.676902 489.565854 240.676902 488.727208 
C 240.676902 487.888562 240.343705 487.084152 239.750692 486.49114 
C 239.15768 485.898128 238.35327 485.56493 237.514625 485.56493 
C 236.675979 485.56493 235.871569 485.898128 235.278557 486.49114 
C 234.685544 487.084152 234.352347 487.888562 234.352347 488.727208 
C 234.352347 489.565854 234.685544 490.370264 235.278557 490.963276 
C 235.871569 491.556288 236.675979 491.889485 237.514625 491.889485 
z
" clip-path="url(#peb30d373e3)" style="fill: #1f77b4; fill-opacity: 0.3; stroke: #1f77b4; stroke-opacity: 0.3"/>
    <path d="M 246.336759 492.476633 
C 247.848649 492.476633 249.29882 491.875953 250.367888 490.806885 
C 251.436956 489.737817 252.037636 488.287646 252.037636 486.775756 
C 252.037636 485.263865 251.436956 483.813695 250.367888 482.744627 
C 249.29882 481.675559 247.848649 481.074879 246.336759 481.074879 
C 244.824869 481.074879 243.374698 481.675559 242.30563 482.744627 
C 241.236562 483.813695 240.635882 485.263865 240.635882 486.775756 
C 240.635882 488.287646 241.236562 489.737817 242.30563 490.806885 
C 243.374698 491.875953 244.824869 492.476633 246.336759 492.476633 
z
" clip-path="url(#peb30d373e3)" style="fill: #1f77b4; fill-opacity: 0.3; stroke: #1f77b4; stroke-opacity: 0.3"/>
    <path d="M 255.158893 490.168167 
C 256.416862 490.168167 257.623477 489.668371 258.512995 488.778853 
C 259.402513 487.889334 259.90231 486.682719 259.90231 485.424751 
C 259.90231 484.166782 259.402513 482.960167 258.512995 482.070649 
C 257.623477 481.18113 256.416862 480.681334 255.158893 480.681334 
C 253.900925 480.681334 252.69431 481.18113 251.804791 482.070649 
C 250.915273 482.960167 250.415477 484.166782 250.415477 485.424751 
C 250.415477 486.682719 250.915273 487.889334 251.804791 488.778853 
C 252.69431 489.668371 253.900925 490.168167 255.158893 490.168167 
z
" clip-path="url(#peb30d373e3)" style="fill: #1f77b4; fill-opacity: 0.3; stroke: #1f77b4; stroke-opacity: 0.3"/>
    <path d="M 263.981028 488.397064 
C 265.008155 488.397064 265.993352 487.988982 266.71964 487.262693 
C 267.445929 486.536405 267.854011 485.551208 267.854011 484.52408 
C 267.854011 483.496953 267.445929 482.511756 266.71964 481.785468 
C 265.993352 481.059179 265.008155 480.651097 263.981028 480.651097 
C 262.9539 480.651097 261.968703 481.059179 261.242415 481.785468 
C 260.516126 482.511756 260.108044 483.496953 260.108044 484.52408 
C 260.108044 485.551208 260.516126 486.536405 261.242415 487.262693 
C 261.968703 487.988982 262.9539 488.397064 263.981028 488.397064 
z
" clip-path="url(#peb30d373e3)" style="fill: #1f77b4; fill-opacity: 0.3; stroke: #1f77b4; stroke-opacity: 0.3"/>
    <path d="M 272.803162 487.309056 
C 273.740797 487.309056 274.640154 486.93653 275.303162 486.273522 
C 275.96617 485.610514 276.338696 484.711157 276.338696 483.773522 
C 276.338696 482.835887 275.96617 481.93653 275.303162 481.273522 
C 274.640154 480.610514 273.740797 480.237988 272.803162 480.237988 
C 271.865528 480.237988 270.96617 480.610514 270.303162 481.273522 
C 269.640154 481.93653 269.267628 482.835887 269.267628 483.773522 
C 269.267628 484.711157 269.640154 485.610514 270.303162 486.273522 
C 270.96617 486.93653 271.865528 487.309056 272.803162 487.309056 
z
" clip-path="url(#peb30d373e3)" style="fill: #1f77b4; fill-opacity: 0.3; stroke: #1f77b4; stroke-opacity: 0.3"/>
    <path d="M 281.625296 487.856334 
C 284.141234 487.856334 286.554464 486.856742 288.3335 485.077705 
C 290.112537 483.298669 291.112129 480.885439 291.112129 478.369501 
C 291.112129 475.853564 290.112537 473.440334 288.3335 471.661297 
C 286.554464 469.882261 284.141234 468.882668 281.625296 468.882668 
C 279.109359 468.882668 276.696129 469.882261 274.917093 471.661297 
C 273.138056 473.440334 272.138463 475.853564 272.138463 478.369501 
C 272.138463 480.885439 273.138056 483.298669 274.917093 485.077705 
C 276.696129 486.856742 279.109359 487.856334 281.625296 487.856334 
z
" clip-path="url(#peb30d373e3)" style="fill: #1f77b4; fill-opacity: 0.3; stroke: #1f77b4; stroke-opacity: 0.3"/>
    <path d="M 290.447431 481.924446 
C 293.500148 481.924446 296.428244 480.711589 298.586841 478.552992 
C 300.745438 476.394395 301.958295 473.466298 301.958295 470.413582 
C 301.958295 467.360865 300.745438 464.432768 298.586841 462.274171 
C 296.428244 460.115574 293.500148 458.902717 290.447431 458.902717 
C 287.394714 458.902717 284.466617 460.115574 282.308021 462.274171 
C 280.149424 464.432768 278.936566 467.360865 278.936566 470.413582 
C 278.936566 473.466298 280.149424 476.394395 282.308021 478.552992 
C 284.466617 480.711589 287.394714 481.924446 290.447431 481.924446 
z
" clip-path="url(#peb30d373e3)" style="fill: #1f77b4; fill-opacity: 0.3; stroke: #1f77b4; stroke-opacity: 0.3"/>
    <path d="M 299.269565 474.163007 
C 300.781456 474.163007 302.231626 473.562326 303.300694 472.493258 
C 304.369762 471.424191 304.970442 469.97402 304.970442 468.46213 
C 304.970442 466.950239 304.369762 465.500069 303.300694 464.431001 
C 302.231626 463.361933 300.781456 462.761252 299.269565 462.761252 
C 297.757675 462.761252 296.307504 463.361933 295.238436 464.431001 
C 294.169368 465.500069 293.568688 466.950239 293.568688 468.46213 
C 293.568688 469.97402 294.169368 471.424191 295.238436 472.493258 
C 296.307504 473.562326 297.757675 474.163007 299.269565 474.163007 
z
" clip-path="url(#peb30d373e3)" style="fill: #1f77b4; fill-opacity: 0.3; stroke: #1f77b4; stroke-opacity: 0.3"/>
    <path d="M 308.0917 472.624952 
C 310.270565 472.624952 312.360484 471.75928 313.901175 470.218589 
C 315.441865 468.677898 316.307538 466.58798 316.307538 464.409114 
C 316.307538 462.230248 315.441865 460.14033 313.901175 458.599639 
C 312.360484 457.058948 310.270565 456.193276 308.0917 456.193276 
C 305.912834 456.193276 303.822915 457.058948 302.282225 458.599639 
C 300.741534 460.14033 299.875861 462.230248 299.875861 464.409114 
C 299.875861 466.58798 300.741534 468.677898 302.282225 470.218589 
C 303.822915 471.75928 305.912834 472.624952 308.0917 472.624952 
z
" clip-path="url(#peb30d373e3)" style="fill: #1f77b4; fill-opacity: 0.3; stroke: #1f77b4; stroke-opacity: 0.3"/>
    <path d="M 316.913834 468.083869 
C 319.878895 468.083869 322.722914 466.905838 324.819528 464.809224 
C 326.916143 462.712609 328.094174 459.86859 328.094174 456.903529 
C 328.094174 453.938469 326.916143 451.09445 324.819528 448.997835 
C 322.722914 446.901221 319.878895 445.72319 316.913834 445.72319 
C 313.948773 445.72319 311.104754 446.901221 309.00814 448.997835 
C 306.911525 451.09445 305.733494 453.938469 305.733494 456.903529 
C 305.733494 459.86859 306.911525 462.712609 309.00814 464.809224 
C 311.104754 466.905838 313.948773 468.083869 316.913834 468.083869 
z
" clip-path="url(#peb30d373e3)" style="fill: #1f77b4; fill-opacity: 0.3; stroke: #1f77b4; stroke-opacity: 0.3"/>
    <path d="M 325.735968 459.159058 
C 329.439328 459.159058 332.991506 457.687697 335.610177 455.069026 
C 338.228848 452.450356 339.700208 448.898177 339.700208 445.194818 
C 339.700208 441.491458 338.228848 437.93928 335.610177 435.320609 
C 332.991506 432.701938 329.439328 431.230578 325.735968 431.230578 
C 322.032609 431.230578 318.48043 432.701938 315.86176 435.320609 
C 313.243089 437.93928 311.771728 441.491458 311.771728 445.194818 
C 311.771728 448.898177 313.243089 452.450356 315.86176 455.069026 
C 318.48043 457.687697 322.032609 459.159058 325.735968 459.159058 
z
" clip-path="url(#peb30d373e3)" style="fill: #1f77b4; fill-opacity: 0.3; stroke: #1f77b4; stroke-opacity: 0.3"/>
    <path d="M 334.558103 449.335515 
C 336.930151 449.335515 339.205366 448.39309 340.882658 446.715799 
C 342.55995 445.038507 343.502375 442.763292 343.502375 440.391243 
C 343.502375 438.019195 342.55995 435.74398 340.882658 434.066688 
C 339.205366 432.389396 336.930151 431.446972 334.558103 431.446972 
C 332.186054 431.446972 329.910839 432.389396 328.233547 434.066688 
C 326.556256 435.74398 325.613831 438.019195 325.613831 440.391243 
C 325.613831 442.763292 326.556256 445.038507 328.233547 446.715799 
C 329.910839 448.39309 332.186054 449.335515 334.558103 449.335515 
z
" clip-path="url(#peb30d373e3)" style="fill: #1f77b4; fill-opacity: 0.3; stroke: #1f77b4; stroke-opacity: 0.3"/>
    <path d="M 343.380237 444.53453 
C 345.434492 444.53453 347.404886 443.718366 348.857463 442.265788 
C 350.31004 440.813211 351.126204 438.842817 351.126204 436.788563 
C 351.126204 434.734309 350.31004 432.763915 348.857463 431.311337 
C 347.404886 429.85876 345.434492 429.042596 343.380237 429.042596 
C 341.325983 429.042596 339.355589 429.85876 337.903012 431.311337 
C 336.450434 432.763915 335.63427 434.734309 335.63427 436.788563 
C 335.63427 438.842817 336.450434 440.813211 337.903012 442.265788 
C 339.355589 443.718366 341.325983 444.53453 343.380237 444.53453 
z
" clip-path="url(#peb30d373e3)" style="fill: #1f77b4; fill-opacity: 0.3; stroke: #1f77b4; stroke-opacity: 0.3"/>
    <path d="M 352.202372 440.464448 
C 353.654949 440.464448 355.048228 439.887333 356.075355 438.860206 
C 357.102482 437.833079 357.679597 436.4398 357.679597 434.987223 
C 357.679597 433.534645 357.102482 432.141366 356.075355 431.114239 
C 355.048228 430.087112 353.654949 429.509997 352.202372 429.509997 
C 350.749794 429.509997 349.356515 430.087112 348.329388 431.114239 
C 347.302261 432.141366 346.725146 433.534645 346.725146 434.987223 
C 346.725146 436.4398 347.302261 437.833079 348.329388 438.860206 
C 349.356515 439.887333 350.749794 440.464448 352.202372 440.464448 
z
" clip-path="url(#peb30d373e3)" style="fill: #1f77b4; fill-opacity: 0.3; stroke: #1f77b4; stroke-opacity: 0.3"/>
    <path d="M 361.024506 432.596458 
C 366.00369 432.596458 370.779609 430.618207 374.300424 427.097392 
C 377.821239 423.576578 379.799489 418.800658 379.799489 413.821474 
C 379.799489 408.842291 377.821239 404.066371 374.300424 400.545556 
C 370.779609 397.024742 366.00369 395.046491 361.024506 395.046491 
C 356.045322 395.046491 351.269403 397.024742 347.748588 400.545556 
C 344.227773 404.066371 342.249523 408.842291 342.249523 413.821474 
C 342.249523 418.800658 344.227773 423.576578 347.748588 427.097392 
C 351.269403 430.618207 356.045322 432.596458 361.024506 432.596458 
z
" clip-path="url(#peb30d373e3)" style="fill: #1f77b4; fill-opacity: 0.3; stroke: #1f77b4; stroke-opacity: 0.3"/>
    <path d="M 369.84664 416.652284 
C 373.304466 416.652284 376.621133 415.278476 379.066185 412.833424 
C 381.511237 410.388372 382.885045 407.071705 382.885045 403.613879 
C 382.885045 400.156054 381.511237 396.839387 379.066185 394.394335 
C 376.621133 391.949283 373.304466 390.575475 369.84664 390.575475 
C 366.388815 390.575475 363.072148 391.949283 360.627096 394.394335 
C 358.182044 396.839387 356.808236 400.156054 356.808236 403.613879 
C 356.808236 407.071705 358.182044 410.388372 360.627096 412.833424 
C 363.072148 415.278476 366.388815 416.652284 369.84664 416.652284 
z
" clip-path="url(#peb30d373e3)" style="fill: #1f77b4; fill-opacity: 0.3; stroke: #1f77b4; stroke-opacity: 0.3"/>
    <path d="M 378.668775 407.766781 
C 380.765389 407.766781 382.776414 406.933787 384.258945 405.451257 
C 385.741475 403.968727 386.574469 401.957702 386.574469 399.861087 
C 386.574469 397.764473 385.741475 395.753448 384.258945 394.270917 
C 382.776414 392.788387 380.765389 391.955393 378.668775 391.955393 
C 376.57216 391.955393 374.561135 392.788387 373.078605 394.270917 
C 371.596074 395.753448 370.763081 397.764473 370.763081 399.861087 
C 370.763081 401.957702 371.596074 403.968727 373.078605 405.451257 
C 374.561135 406.933787 376.57216 407.766781 378.668775 407.766781 
z
" clip-path="url(#peb30d373e3)" style="fill: #1f77b4; fill-opacity: 0.3; stroke: #1f77b4; stroke-opacity: 0.3"/>
    <path d="M 387.490909 399.857021 
C 391.90875 399.857021 396.146243 398.101794 399.270128 394.977908 
C 402.394013 391.854023 404.14924 387.616531 404.14924 383.19869 
C 404.14924 378.780848 402.394013 374.543356 399.270128 371.419471 
C 396.146243 368.295585 391.90875 366.540358 387.490909 366.540358 
C 383.073068 366.540358 378.835575 368.295585 375.71169 371.419471 
C 372.587805 374.543356 370.832578 378.780848 370.832578 383.19869 
C 370.832578 387.616531 372.587805 391.854023 375.71169 394.977908 
C 378.835575 398.101794 383.073068 399.857021 387.490909 399.857021 
z
" clip-path="url(#peb30d373e3)" style="fill: #1f77b4; fill-opacity: 0.3; stroke: #1f77b4; stroke-opacity: 0.3"/>
    <path d="M 396.313043 387.140949 
C 399.030567 387.140949 401.637153 386.061266 403.558732 384.139687 
C 405.480311 382.218108 406.559994 379.611522 406.559994 376.893999 
C 406.559994 374.176475 405.480311 371.569889 403.558732 369.64831 
C 401.637153 367.726731 399.030567 366.647048 396.313043 366.647048 
C 393.59552 366.647048 390.988934 367.726731 389.067355 369.64831 
C 387.145776 371.569889 386.066093 374.176475 386.066093 376.893999 
C 386.066093 379.611522 387.145776 382.218108 389.067355 384.139687 
C 390.988934 386.061266 393.59552 387.140949 396.313043 387.140949 
z
" clip-path="url(#peb30d373e3)" style="fill: #1f77b4; fill-opacity: 0.3; stroke: #1f77b4; stroke-opacity: 0.3"/>
    <path d="M 405.135178 380.976811 
C 407.651115 380.976811 410.064345 379.977218 411.843382 378.198182 
C 413.622418 376.419145 414.622011 374.005915 414.622011 371.489978 
C 414.622011 368.97404 413.622418 366.56081 411.843382 364.781774 
C 410.064345 363.002737 407.651115 362.003145 405.135178 362.003145 
C 402.61924 362.003145 400.20601 363.002737 398.426974 364.781774 
C 396.647937 366.56081 395.648345 368.97404 395.648345 371.489978 
C 395.648345 374.005915 396.647937 376.419145 398.426974 378.198182 
C 400.20601 379.977218 402.61924 380.976811 405.135178 380.976811 
z
" clip-path="url(#peb30d373e3)" style="fill: #1f77b4; fill-opacity: 0.3; stroke: #1f77b4; stroke-opacity: 0.3"/>
    <path d="M 413.957312 374.959874 
C 417.067094 374.959874 420.049926 373.724345 422.248874 371.525397 
C 424.447822 369.326449 425.683352 366.343617 425.683352 363.233835 
C 425.683352 360.124053 424.447822 357.141221 422.248874 354.942273 
C 420.049926 352.743325 417.067094 351.507795 413.957312 351.507795 
C 410.84753 351.507795 407.864698 352.743325 405.66575 354.942273 
C 403.466802 357.141221 402.231273 360.124053 402.231273 363.233835 
C 402.231273 366.343617 403.466802 369.326449 405.66575 371.525397 
C 407.864698 373.724345 410.84753 374.959874 413.957312 374.959874 
z
" clip-path="url(#peb30d373e3)" style="fill: #1f77b4; fill-opacity: 0.3; stroke: #1f77b4; stroke-opacity: 0.3"/>
    <path d="M 422.779447 366.01881 
C 423.717081 366.01881 424.616439 365.646284 425.279447 364.983276 
C 425.942454 364.320268 426.314981 363.420911 426.314981 362.483276 
C 426.314981 361.545642 425.942454 360.646284 425.279447 359.983276 
C 424.616439 359.320268 423.717081 358.947742 422.779447 358.947742 
C 421.841812 358.947742 420.942454 359.320268 420.279447 359.983276 
C 419.616439 360.646284 419.243913 361.545642 419.243913 362.483276 
C 419.243913 363.420911 419.616439 364.320268 420.279447 364.983276 
C 420.942454 365.646284 421.841812 366.01881 422.779447 366.01881 
z
" clip-path="url(#peb30d373e3)" style="fill: #1f77b4; fill-opacity: 0.3; stroke: #1f77b4; stroke-opacity: 0.3"/>
    <path d="M 431.601581 366.425536 
C 434.319104 366.425536 436.92569 365.345853 438.847269 363.424274 
C 440.768848 361.502695 441.848532 358.896108 441.848532 356.178585 
C 441.848532 353.461062 440.768848 350.854476 438.847269 348.932897 
C 436.92569 347.011318 434.319104 345.931634 431.601581 345.931634 
C 428.884058 345.931634 426.277472 347.011318 424.355893 348.932897 
C 422.434314 350.854476 421.35463 353.461062 421.35463 356.178585 
C 421.35463 358.896108 422.434314 361.502695 424.355893 363.424274 
C 426.277472 365.345853 428.884058 366.425536 431.601581 366.425536 
z
" clip-path="url(#peb30d373e3)" style="fill: #1f77b4; fill-opacity: 0.3; stroke: #1f77b4; stroke-opacity: 0.3"/>
    <path d="M 440.423715 360.319283 
C 442.795764 360.319283 445.070979 359.376858 446.748271 357.699566 
C 448.425562 356.022275 449.367987 353.74706 449.367987 351.375011 
C 449.367987 349.002963 448.425562 346.727748 446.748271 345.050456 
C 445.070979 343.373164 442.795764 342.430739 440.423715 342.430739 
C 438.051667 342.430739 435.776452 343.373164 434.09916 345.050456 
C 432.421868 346.727748 431.479444 349.002963 431.479444 351.375011 
C 431.479444 353.74706 432.421868 356.022275 434.09916 357.699566 
C 435.776452 359.376858 438.051667 360.319283 440.423715 360.319283 
z
" clip-path="url(#peb30d373e3)" style="fill: #1f77b4; fill-opacity: 0.3; stroke: #1f77b4; stroke-opacity: 0.3"/>
    <path d="M 449.24585 355.518297 
C 451.300104 355.518297 453.270498 354.702133 454.723075 353.249556 
C 456.175653 351.796979 456.991816 349.826585 456.991816 347.772331 
C 456.991816 345.718076 456.175653 343.747682 454.723075 342.295105 
C 453.270498 340.842528 451.300104 340.026364 449.24585 340.026364 
C 447.191595 340.026364 445.221201 340.842528 443.768624 342.295105 
C 442.316047 343.747682 441.499883 345.718076 441.499883 347.772331 
C 441.499883 349.826585 442.316047 351.796979 443.768624 353.249556 
C 445.221201 354.702133 447.191595 355.518297 449.24585 355.518297 
z
" clip-path="url(#peb30d373e3)" style="fill: #1f77b4; fill-opacity: 0.3; stroke: #1f77b4; stroke-opacity: 0.3"/>
    <path d="M 458.067984 343.047468 
C 463.50303 343.047468 468.716203 340.888101 472.559361 337.044943 
C 476.402519 333.201785 478.561886 327.988613 478.561886 322.553567 
C 478.561886 317.11852 476.402519 311.905348 472.559361 308.06219 
C 468.716203 304.219032 463.50303 302.059665 458.067984 302.059665 
C 452.632938 302.059665 447.419765 304.219032 443.576607 308.06219 
C 439.733449 311.905348 437.574083 317.11852 437.574083 322.553567 
C 437.574083 327.988613 439.733449 333.201785 443.576607 337.044943 
C 447.419765 340.888101 452.632938 343.047468 458.067984 343.047468 
z
" clip-path="url(#peb30d373e3)" style="fill: #1f77b4; fill-opacity: 0.3; stroke: #1f77b4; stroke-opacity: 0.3"/>
    <path d="M 466.890119 326.476335 
C 468.56741 326.476335 470.17623 325.80994 471.362255 324.623916 
C 472.548279 323.437891 473.214674 321.829071 473.214674 320.15178 
C 473.214674 318.474488 472.548279 316.865668 471.362255 315.679644 
C 470.17623 314.493619 468.56741 313.827224 466.890119 313.827224 
C 465.212827 313.827224 463.604007 314.493619 462.417983 315.679644 
C 461.231958 316.865668 460.565563 318.474488 460.565563 320.15178 
C 460.565563 321.829071 461.231958 323.437891 462.417983 324.623916 
C 463.604007 325.80994 465.212827 326.476335 466.890119 326.476335 
z
" clip-path="url(#peb30d373e3)" style="fill: #1f77b4; fill-opacity: 0.3; stroke: #1f77b4; stroke-opacity: 0.3"/>
    <path d="M 475.712253 324.215339 
C 478.262895 324.215339 480.709412 323.201958 482.512988 321.398382 
C 484.316564 319.594806 485.329945 317.148289 485.329945 314.597647 
C 485.329945 312.047005 484.316564 309.600488 482.512988 307.796912 
C 480.709412 305.993336 478.262895 304.979955 475.712253 304.979955 
C 473.161611 304.979955 470.715094 305.993336 468.911518 307.796912 
C 467.107942 309.600488 466.094561 312.047005 466.094561 314.597647 
C 466.094561 317.148289 467.107942 319.594806 468.911518 321.398382 
C 470.715094 323.201958 473.161611 324.215339 475.712253 324.215339 
z
" clip-path="url(#peb30d373e3)" style="fill: #1f77b4; fill-opacity: 0.3; stroke: #1f77b4; stroke-opacity: 0.3"/>
    <path d="M 484.534387 318.757001 
C 486.672523 318.757001 488.723374 317.907511 490.235264 316.39562 
C 491.747155 314.88373 492.596645 312.832879 492.596645 310.694743 
C 492.596645 308.556607 491.747155 306.505756 490.235264 304.993866 
C 488.723374 303.481976 486.672523 302.632485 484.534387 302.632485 
C 482.396252 302.632485 480.345401 303.481976 478.83351 304.993866 
C 477.32162 306.505756 476.47213 308.556607 476.47213 310.694743 
C 476.47213 312.832879 477.32162 314.88373 478.83351 316.39562 
C 480.345401 317.907511 482.396252 318.757001 484.534387 318.757001 
z
" clip-path="url(#peb30d373e3)" style="fill: #1f77b4; fill-opacity: 0.3; stroke: #1f77b4; stroke-opacity: 0.3"/>
    <path d="M 493.356522 313.667056 
C 494.383649 313.667056 495.368846 313.258974 496.095135 312.532686 
C 496.821423 311.806397 497.229505 310.8212 497.229505 309.794073 
C 497.229505 308.766946 496.821423 307.781749 496.095135 307.05546 
C 495.368846 306.329172 494.383649 305.92109 493.356522 305.92109 
C 492.329395 305.92109 491.344198 306.329172 490.617909 307.05546 
C 489.89162 307.781749 489.483538 308.766946 489.483538 309.794073 
C 489.483538 310.8212 489.89162 311.806397 490.617909 312.532686 
C 491.344198 313.258974 492.329395 313.667056 493.356522 313.667056 
z
" clip-path="url(#peb30d373e3)" style="fill: #1f77b4; fill-opacity: 0.3; stroke: #1f77b4; stroke-opacity: 0.3"/>
    <path d="M 502.178656 313.90982 
C 504.623708 313.90982 506.968946 312.938391 508.697859 311.209478 
C 510.426771 309.480565 511.398201 307.135327 511.398201 304.690276 
C 511.398201 302.245224 510.426771 299.899986 508.697859 298.171073 
C 506.968946 296.44216 504.623708 295.470731 502.178656 295.470731 
C 499.733604 295.470731 497.388366 296.44216 495.659454 298.171073 
C 493.930541 299.899986 492.959112 302.245224 492.959112 304.690276 
C 492.959112 307.135327 493.930541 309.480565 495.659454 311.209478 
C 497.388366 312.938391 499.733604 313.90982 502.178656 313.90982 
z
" clip-path="url(#peb30d373e3)" style="fill: #1f77b4; fill-opacity: 0.3; stroke: #1f77b4; stroke-opacity: 0.3"/>
    <path d="M 511.000791 304.383256 
C 515.497528 304.383256 519.810696 302.596683 522.990369 299.41701 
C 526.170043 296.237336 527.956615 291.924168 527.956615 287.427431 
C 527.956615 282.930694 526.170043 278.617526 522.990369 275.437852 
C 519.810696 272.258179 515.497528 270.471606 511.000791 270.471606 
C 506.504053 270.471606 502.190885 272.258179 499.011212 275.437852 
C 495.831538 278.617526 494.044966 282.930694 494.044966 287.427431 
C 494.044966 291.924168 495.831538 296.237336 499.011212 299.41701 
C 502.190885 302.596683 506.504053 304.383256 511.000791 304.383256 
z
" clip-path="url(#peb30d373e3)" style="fill: #1f77b4; fill-opacity: 0.3; stroke: #1f77b4; stroke-opacity: 0.3"/>
    <path d="M 519.822925 291.577377 
C 522.157616 291.577377 524.396999 290.649795 526.047875 288.998919 
C 527.698751 287.348043 528.626333 285.10866 528.626333 282.773969 
C 528.626333 280.439278 527.698751 278.199895 526.047875 276.549019 
C 524.396999 274.898143 522.157616 273.97056 519.822925 273.97056 
C 517.488234 273.97056 515.248851 274.898143 513.597975 276.549019 
C 511.947099 278.199895 511.019516 280.439278 511.019516 282.773969 
C 511.019516 285.10866 511.947099 287.348043 513.597975 288.998919 
C 515.248851 290.649795 517.488234 291.577377 519.822925 291.577377 
z
" clip-path="url(#peb30d373e3)" style="fill: #1f77b4; fill-opacity: 0.3; stroke: #1f77b4; stroke-opacity: 0.3"/>
    <path d="M 528.645059 285.558944 
C 529.582694 285.558944 530.482052 285.186418 531.145059 284.52341 
C 531.808067 283.860403 532.180593 282.961045 532.180593 282.02341 
C 532.180593 281.085776 531.808067 280.186418 531.145059 279.52341 
C 530.482052 278.860403 529.582694 278.487876 528.645059 278.487876 
C 527.707425 278.487876 526.808067 278.860403 526.145059 279.52341 
C 525.482052 280.186418 525.109525 281.085776 525.109525 282.02341 
C 525.109525 282.961045 525.482052 283.860403 526.145059 284.52341 
C 526.808067 285.186418 527.707425 285.558944 528.645059 285.558944 
z
" clip-path="url(#peb30d373e3)" style="fill: #1f77b4; fill-opacity: 0.3; stroke: #1f77b4; stroke-opacity: 0.3"/>
    <path d="M 537.467194 283.841296 
C 541.33316 283.841296 545.041307 282.305332 547.774958 279.571681 
C 550.508609 276.83803 552.044573 273.129883 552.044573 269.263917 
C 552.044573 265.39795 550.508609 261.689804 547.774958 258.956153 
C 545.041307 256.222502 541.33316 254.686537 537.467194 254.686537 
C 533.601227 254.686537 529.893081 256.222502 527.15943 258.956153 
C 524.425779 261.689804 522.889814 265.39795 522.889814 269.263917 
C 522.889814 273.129883 524.425779 276.83803 527.15943 279.571681 
C 529.893081 282.305332 533.601227 283.841296 537.467194 283.841296 
z
" clip-path="url(#peb30d373e3)" style="fill: #1f77b4; fill-opacity: 0.3; stroke: #1f77b4; stroke-opacity: 0.3"/>
    <path d="M 546.289328 273.413863 
C 548.624019 273.413863 550.863402 272.48628 552.514278 270.835404 
C 554.165154 269.184528 555.092736 266.945145 555.092736 264.610454 
C 555.092736 262.275763 554.165154 260.03638 552.514278 258.385504 
C 550.863402 256.734628 548.624019 255.807046 546.289328 255.807046 
C 543.954637 255.807046 541.715254 256.734628 540.064378 258.385504 
C 538.413502 260.03638 537.48592 262.275763 537.48592 264.610454 
C 537.48592 266.945145 538.413502 269.184528 540.064378 270.835404 
C 541.715254 272.48628 543.954637 273.413863 546.289328 273.413863 
z
" clip-path="url(#peb30d373e3)" style="fill: #1f77b4; fill-opacity: 0.3; stroke: #1f77b4; stroke-opacity: 0.3"/>
    <path d="M 555.111462 266.041481 
C 555.530785 266.041481 555.93299 265.874883 556.229496 265.578377 
C 556.526003 265.28187 556.692601 264.879665 556.692601 264.460343 
C 556.692601 264.04102 556.526003 263.638815 556.229496 263.342309 
C 555.93299 263.045802 555.530785 262.879204 555.111462 262.879204 
C 554.69214 262.879204 554.289935 263.045802 553.993428 263.342309 
C 553.696922 263.638815 553.530324 264.04102 553.530324 264.460343 
C 553.530324 264.879665 553.696922 265.28187 553.993428 265.578377 
C 554.289935 265.874883 554.69214 266.041481 555.111462 266.041481 
z
" clip-path="url(#peb30d373e3)" style="fill: #1f77b4; fill-opacity: 0.3; stroke: #1f77b4; stroke-opacity: 0.3"/>
    <path d="M 563.933597 267.432656 
C 564.960724 267.432656 565.945921 267.024574 566.67221 266.298285 
C 567.398498 265.571997 567.80658 264.5868 567.80658 263.559672 
C 567.80658 262.532545 567.398498 261.547348 566.67221 260.82106 
C 565.945921 260.094771 564.960724 259.686689 563.933597 259.686689 
C 562.90647 259.686689 561.921273 260.094771 561.194984 260.82106 
C 560.468695 261.547348 560.060613 262.532545 560.060613 263.559672 
C 560.060613 264.5868 560.468695 265.571997 561.194984 266.298285 
C 561.921273 267.024574 562.90647 267.432656 563.933597 267.432656 
z
" clip-path="url(#peb30d373e3)" style="fill: #1f77b4; fill-opacity: 0.3; stroke: #1f77b4; stroke-opacity: 0.3"/>
    <path d="M 572.755731 267.719026 
C 574.893867 267.719026 576.944718 266.869536 578.456608 265.357646 
C 579.968499 263.845755 580.817989 261.794904 580.817989 259.656768 
C 580.817989 257.518633 579.968499 255.467782 578.456608 253.955891 
C 576.944718 252.444001 574.893867 251.594511 572.755731 251.594511 
C 570.617595 251.594511 568.566744 252.444001 567.054854 253.955891 
C 565.542964 255.467782 564.693473 257.518633 564.693473 259.656768 
C 564.693473 261.794904 565.542964 263.845755 567.054854 265.357646 
C 568.566744 266.869536 570.617595 267.719026 572.755731 267.719026 
z
" clip-path="url(#peb30d373e3)" style="fill: #1f77b4; fill-opacity: 0.3; stroke: #1f77b4; stroke-opacity: 0.3"/>
    <path d="M 581.577866 263.820241 
C 583.796714 263.820241 585.924983 262.938684 587.493945 261.369721 
C 589.062908 259.800758 589.944466 257.672489 589.944466 255.453641 
C 589.944466 253.234793 589.062908 251.106524 587.493945 249.537561 
C 585.924983 247.968599 583.796714 247.087041 581.577866 247.087041 
C 579.359017 247.087041 577.230749 247.968599 575.661786 249.537561 
C 574.092823 251.106524 573.211265 253.234793 573.211265 255.453641 
C 573.211265 257.672489 574.092823 259.800758 575.661786 261.369721 
C 577.230749 262.938684 579.359017 263.820241 581.577866 263.820241 
z
" clip-path="url(#peb30d373e3)" style="fill: #1f77b4; fill-opacity: 0.3; stroke: #1f77b4; stroke-opacity: 0.3"/>
    <path d="M 590.4 259.616464 
C 592.578866 259.616464 594.668784 258.750791 596.209475 257.2101 
C 597.750166 255.66941 598.615838 253.579491 598.615838 251.400625 
C 598.615838 249.22176 597.750166 247.131841 596.209475 245.59115 
C 594.668784 244.05046 592.578866 243.184787 590.4 243.184787 
C 588.221134 243.184787 586.131216 244.05046 584.590525 245.59115 
C 583.049834 247.131841 582.184162 249.22176 582.184162 251.400625 
C 582.184162 253.579491 583.049834 255.66941 584.590525 257.2101 
C 586.131216 258.750791 588.221134 259.616464 590.4 259.616464 
z
" clip-path="url(#peb30d373e3)" style="fill: #1f77b4; fill-opacity: 0.3; stroke: #1f77b4; stroke-opacity: 0.3"/>
    <path d="M 599.222134 255.272674 
C 600.846165 255.272674 602.403898 254.62744 603.552261 253.479077 
C 604.700625 252.330714 605.345859 250.772981 605.345859 249.14895 
C 605.345859 247.524919 604.700625 245.967186 603.552261 244.818823 
C 602.403898 243.67046 600.846165 243.025226 599.222134 243.025226 
C 597.598104 243.025226 596.04037 243.67046 594.892007 244.818823 
C 593.743644 245.967186 593.09841 247.524919 593.09841 249.14895 
C 593.09841 250.772981 593.743644 252.330714 594.892007 253.479077 
C 596.04037 254.62744 597.598104 255.272674 599.222134 255.272674 
z
" clip-path="url(#peb30d373e3)" style="fill: #1f77b4; fill-opacity: 0.3; stroke: #1f77b4; stroke-opacity: 0.3"/>
    <path d="M 608.044269 252.741766 
C 609.435006 252.741766 610.768969 252.18922 611.752368 251.205821 
C 612.735767 250.222421 613.288313 248.888458 613.288313 247.497722 
C 613.288313 246.106985 612.735767 244.773022 611.752368 243.789622 
C 610.768969 242.806223 609.435006 242.253677 608.044269 242.253677 
C 606.653532 242.253677 605.319569 242.806223 604.33617 243.789622 
C 603.35277 244.773022 602.800225 246.106985 602.800225 247.497722 
C 602.800225 248.888458 603.35277 250.222421 604.33617 251.205821 
C 605.319569 252.18922 606.653532 252.741766 608.044269 252.741766 
z
" clip-path="url(#peb30d373e3)" style="fill: #1f77b4; fill-opacity: 0.3; stroke: #1f77b4; stroke-opacity: 0.3"/>
    <path d="M 616.866403 251.537624 
C 618.694189 251.537624 620.44736 250.811437 621.7398 249.518997 
C 623.03224 248.226557 623.758428 246.473386 623.758428 244.645599 
C 623.758428 242.817813 623.03224 241.064642 621.7398 239.772202 
C 620.44736 238.479762 618.694189 237.753575 616.866403 237.753575 
C 615.038617 237.753575 613.285446 238.479762 611.993006 239.772202 
C 610.700566 241.064642 609.974379 242.817813 609.974379 244.645599 
C 609.974379 246.473386 610.700566 248.226557 611.993006 249.518997 
C 613.285446 250.811437 615.038617 251.537624 616.866403 251.537624 
z
" clip-path="url(#peb30d373e3)" style="fill: #1f77b4; fill-opacity: 0.3; stroke: #1f77b4; stroke-opacity: 0.3"/>
    <path d="M 625.688538 247.837875 
C 628.963554 247.837875 632.104876 246.536697 634.420662 244.220911 
C 636.736449 241.905124 638.037627 238.763803 638.037627 235.488786 
C 638.037627 232.21377 636.736449 229.072448 634.420662 226.756662 
C 632.104876 224.440875 628.963554 223.139697 625.688538 223.139697 
C 622.413521 223.139697 619.272199 224.440875 616.956413 226.756662 
C 614.640626 229.072448 613.339449 232.21377 613.339449 235.488786 
C 613.339449 238.763803 614.640626 241.905124 616.956413 244.220911 
C 619.272199 246.536697 622.413521 247.837875 625.688538 247.837875 
z
" clip-path="url(#peb30d373e3)" style="fill: #1f77b4; fill-opacity: 0.3; stroke: #1f77b4; stroke-opacity: 0.3"/>
    <path d="M 634.510672 239.431046 
C 637.228195 239.431046 639.834781 238.351363 641.75636 236.429784 
C 643.677939 234.508205 644.757623 231.901618 644.757623 229.184095 
C 644.757623 226.466572 643.677939 223.859986 641.75636 221.938407 
C 639.834781 220.016828 637.228195 218.937145 634.510672 218.937145 
C 631.793149 218.937145 629.186563 220.016828 627.264984 221.938407 
C 625.343405 223.859986 624.263721 226.466572 624.263721 229.184095 
C 624.263721 231.901618 625.343405 234.508205 627.264984 236.429784 
C 629.186563 238.351363 631.793149 239.431046 634.510672 239.431046 
z
" clip-path="url(#peb30d373e3)" style="fill: #1f77b4; fill-opacity: 0.3; stroke: #1f77b4; stroke-opacity: 0.3"/>
    <path d="M 643.332806 233.28433 
C 645.813554 233.28433 648.193031 232.298718 649.947185 230.544564 
C 651.701338 228.790411 652.68695 226.410934 652.68695 223.930186 
C 652.68695 221.449438 651.701338 219.069961 649.947185 217.315808 
C 648.193031 215.561654 645.813554 214.576043 643.332806 214.576043 
C 640.852058 214.576043 638.472582 215.561654 636.718428 217.315808 
C 634.964274 219.069961 633.978663 221.449438 633.978663 223.930186 
C 633.978663 226.410934 634.964274 228.790411 636.718428 230.544564 
C 638.472582 232.298718 640.852058 233.28433 643.332806 233.28433 
z
" clip-path="url(#peb30d373e3)" style="fill: #1f77b4; fill-opacity: 0.3; stroke: #1f77b4; stroke-opacity: 0.3"/>
    <path d="M 652.154941 221.287769 
C 657.186816 221.287769 662.013276 219.288584 665.571349 215.730511 
C 669.129422 212.172438 671.128607 207.345978 671.128607 202.314103 
C 671.128607 197.282228 669.129422 192.455768 665.571349 188.897695 
C 662.013276 185.339622 657.186816 183.340437 652.154941 183.340437 
C 647.123066 183.340437 642.296606 185.339622 638.738533 188.897695 
C 635.18046 192.455768 633.181275 197.282228 633.181275 202.314103 
C 633.181275 207.345978 635.18046 212.172438 638.738533 215.730511 
C 642.296606 219.288584 647.123066 221.287769 652.154941 221.287769 
z
" clip-path="url(#peb30d373e3)" style="fill: #1f77b4; fill-opacity: 0.3; stroke: #1f77b4; stroke-opacity: 0.3"/>
    <path d="M 660.977075 205.356065 
C 664.331658 205.356065 667.549298 204.023275 669.921347 201.651226 
C 672.293396 199.279178 673.626186 196.061538 673.626186 192.706955 
C 673.626186 189.352371 672.293396 186.134731 669.921347 183.762683 
C 667.549298 181.390634 664.331658 180.057844 660.977075 180.057844 
C 657.622492 180.057844 654.404852 181.390634 652.032803 183.762683 
C 649.660755 186.134731 648.327964 189.352371 648.327964 192.706955 
C 648.327964 196.061538 649.660755 199.279178 652.032803 201.651226 
C 654.404852 204.023275 657.622492 205.356065 660.977075 205.356065 
z
" clip-path="url(#peb30d373e3)" style="fill: #1f77b4; fill-opacity: 0.3; stroke: #1f77b4; stroke-opacity: 0.3"/>
    <path d="M 669.799209 196.55853 
C 672.612113 196.55853 675.310186 195.440952 677.299209 193.451929 
C 679.288233 191.462905 680.405811 188.764832 680.405811 185.951929 
C 680.405811 183.139025 679.288233 180.440952 677.299209 178.451929 
C 675.310186 176.462905 672.612113 175.345327 669.799209 175.345327 
C 666.986306 175.345327 664.288233 176.462905 662.299209 178.451929 
C 660.310186 180.440952 659.192608 183.139025 659.192608 185.951929 
C 659.192608 188.764832 660.310186 191.462905 662.299209 193.451929 
C 664.288233 195.440952 666.986306 196.55853 669.799209 196.55853 
z
" clip-path="url(#peb30d373e3)" style="fill: #1f77b4; fill-opacity: 0.3; stroke: #1f77b4; stroke-opacity: 0.3"/>
    <path d="M 678.621344 189.377833 
C 681.759269 189.377833 684.769096 188.131122 686.987944 185.912274 
C 689.206792 183.693426 690.453503 180.683599 690.453503 177.545674 
C 690.453503 174.407748 689.206792 171.397922 686.987944 169.179074 
C 684.769096 166.960225 681.759269 165.713514 678.621344 165.713514 
C 675.483418 165.713514 672.473592 166.960225 670.254744 169.179074 
C 668.035895 171.397922 666.789184 174.407748 666.789184 177.545674 
C 666.789184 180.683599 668.035895 183.693426 670.254744 185.912274 
C 672.473592 188.131122 675.483418 189.377833 678.621344 189.377833 
z
" clip-path="url(#peb30d373e3)" style="fill: #1f77b4; fill-opacity: 0.3; stroke: #1f77b4; stroke-opacity: 0.3"/>
    <path d="M 687.443478 180.330649 
C 688.381113 180.330649 689.280471 179.958123 689.943478 179.295115 
C 690.606486 178.632108 690.979012 177.73275 690.979012 176.795115 
C 690.979012 175.857481 690.606486 174.958123 689.943478 174.295115 
C 689.280471 173.632108 688.381113 173.259582 687.443478 173.259582 
C 686.505844 173.259582 685.606486 173.632108 684.943478 174.295115 
C 684.280471 174.958123 683.907944 175.857481 683.907944 176.795115 
C 683.907944 177.73275 684.280471 178.632108 684.943478 179.295115 
C 685.606486 179.958123 686.505844 180.330649 687.443478 180.330649 
z
" clip-path="url(#peb30d373e3)" style="fill: #1f77b4; fill-opacity: 0.3; stroke: #1f77b4; stroke-opacity: 0.3"/>
    <path d="M 705.087747 180.066358 
C 706.273771 180.066358 707.411379 179.595145 708.250025 178.7565 
C 709.088671 177.917854 709.559883 176.780246 709.559883 175.594222 
C 709.559883 174.408198 709.088671 173.27059 708.250025 172.431944 
C 707.411379 171.593298 706.273771 171.122086 705.087747 171.122086 
C 703.901723 171.122086 702.764115 171.593298 701.925469 172.431944 
C 701.086824 173.27059 700.615611 174.408198 700.615611 175.594222 
C 700.615611 176.780246 701.086824 177.917854 701.925469 178.7565 
C 702.764115 179.595145 703.901723 180.066358 705.087747 180.066358 
z
" clip-path="url(#peb30d373e3)" style="fill: #1f77b4; fill-opacity: 0.3; stroke: #1f77b4; stroke-opacity: 0.3"/>
    <path d="M 722.732016 178.986633 
C 723.989985 178.986633 725.1966 178.486837 726.086118 177.597319 
C 726.975636 176.7078 727.475432 175.501185 727.475432 174.243217 
C 727.475432 172.985248 726.975636 171.778633 726.086118 170.889115 
C 725.1966 169.999596 723.989985 169.4998 722.732016 169.4998 
C 721.474047 169.4998 720.267432 169.999596 719.377914 170.889115 
C 718.488396 171.778633 717.988599 172.985248 717.988599 174.243217 
C 717.988599 175.501185 718.488396 176.7078 719.377914 177.597319 
C 720.267432 178.486837 721.474047 178.986633 722.732016 178.986633 
z
" clip-path="url(#peb30d373e3)" style="fill: #1f77b4; fill-opacity: 0.3; stroke: #1f77b4; stroke-opacity: 0.3"/>
    <path d="M 731.55415 178.115266 
C 733.178181 178.115266 734.735914 177.470031 735.884277 176.321668 
C 737.03264 175.173305 737.677875 173.615572 737.677875 171.991541 
C 737.677875 170.367511 737.03264 168.809777 735.884277 167.661414 
C 734.735914 166.513051 733.178181 165.867817 731.55415 165.867817 
C 729.93012 165.867817 728.372386 166.513051 727.224023 167.661414 
C 726.07566 168.809777 725.430426 170.367511 725.430426 171.991541 
C 725.430426 173.615572 726.07566 175.173305 727.224023 176.321668 
C 728.372386 177.470031 729.93012 178.115266 731.55415 178.115266 
z
" clip-path="url(#peb30d373e3)" style="fill: #1f77b4; fill-opacity: 0.3; stroke: #1f77b4; stroke-opacity: 0.3"/>
    <path d="M 740.376285 175.740966 
C 741.888175 175.740966 743.338346 175.140286 744.407413 174.071218 
C 745.476481 173.00215 746.077162 171.55198 746.077162 170.040089 
C 746.077162 168.528199 745.476481 167.078028 744.407413 166.00896 
C 743.338346 164.939893 741.888175 164.339212 740.376285 164.339212 
C 738.864394 164.339212 737.414224 164.939893 736.345156 166.00896 
C 735.276088 167.078028 734.675407 168.528199 734.675407 170.040089 
C 734.675407 171.55198 735.276088 173.00215 736.345156 174.071218 
C 737.414224 175.140286 738.864394 175.740966 740.376285 175.740966 
z
" clip-path="url(#peb30d373e3)" style="fill: #1f77b4; fill-opacity: 0.3; stroke: #1f77b4; stroke-opacity: 0.3"/>
    <path d="M 749.198419 173.912138 
C 750.82245 173.912138 752.380183 173.266904 753.528546 172.118541 
C 754.676909 170.970178 755.322143 169.412445 755.322143 167.788414 
C 755.322143 166.164383 754.676909 164.60665 753.528546 163.458287 
C 752.380183 162.309924 750.82245 161.66469 749.198419 161.66469 
C 747.574388 161.66469 746.016655 162.309924 744.868292 163.458287 
C 743.719929 164.60665 743.074695 166.164383 743.074695 167.788414 
C 743.074695 169.412445 743.719929 170.970178 744.868292 172.118541 
C 746.016655 173.266904 747.574388 173.912138 749.198419 173.912138 
z
" clip-path="url(#peb30d373e3)" style="fill: #1f77b4; fill-opacity: 0.3; stroke: #1f77b4; stroke-opacity: 0.3"/>
    <path d="M 758.020553 171.537839 
C 759.532444 171.537839 760.982614 170.937159 762.051682 169.868091 
C 763.12075 168.799023 763.72143 167.348852 763.72143 165.836962 
C 763.72143 164.325072 763.12075 162.874901 762.051682 161.805833 
C 760.982614 160.736765 759.532444 160.136085 758.020553 160.136085 
C 756.508663 160.136085 755.058492 160.736765 753.989424 161.805833 
C 752.920357 162.874901 752.319676 164.325072 752.319676 165.836962 
C 752.319676 167.348852 752.920357 168.799023 753.989424 169.868091 
C 755.058492 170.937159 756.508663 171.537839 758.020553 171.537839 
z
" clip-path="url(#peb30d373e3)" style="fill: #1f77b4; fill-opacity: 0.3; stroke: #1f77b4; stroke-opacity: 0.3"/>
    <path d="M 766.842688 167.772807 
C 767.4357 167.772807 768.004504 167.5372 768.423827 167.117877 
C 768.843149 166.698555 769.078756 166.129751 769.078756 165.536739 
C 769.078756 164.943726 768.843149 164.374923 768.423827 163.9556 
C 768.004504 163.536277 767.4357 163.300671 766.842688 163.300671 
C 766.249676 163.300671 765.680872 163.536277 765.261549 163.9556 
C 764.842226 164.374923 764.60662 164.943726 764.60662 165.536739 
C 764.60662 166.129751 764.842226 166.698555 765.261549 167.117877 
C 765.680872 167.5372 766.249676 167.772807 766.842688 167.772807 
z
" clip-path="url(#peb30d373e3)" style="fill: #1f77b4; fill-opacity: 0.3; stroke: #1f77b4; stroke-opacity: 0.3"/>
    <path d="M 775.664822 167.825016 
C 776.391111 167.825016 777.08775 167.536459 777.601314 167.022895 
C 778.114877 166.509332 778.403435 165.812692 778.403435 165.086404 
C 778.403435 164.360115 778.114877 163.663475 777.601314 163.149912 
C 777.08775 162.636348 776.391111 162.347791 775.664822 162.347791 
C 774.938534 162.347791 774.241894 162.636348 773.72833 163.149912 
C 773.214767 163.663475 772.926209 164.360115 772.926209 165.086404 
C 772.926209 165.812692 773.214767 166.509332 773.72833 167.022895 
C 774.241894 167.536459 774.938534 167.825016 775.664822 167.825016 
z
" clip-path="url(#peb30d373e3)" style="fill: #1f77b4; fill-opacity: 0.3; stroke: #1f77b4; stroke-opacity: 0.3"/>
    <path d="M 784.486957 167.219604 
C 788.237495 167.219604 791.834926 165.729499 794.486957 163.077468 
C 797.138988 160.425437 798.629092 156.828007 798.629092 153.077468 
C 798.629092 149.32693 797.138988 145.729499 794.486957 143.077468 
C 791.834926 140.425437 788.237495 138.935333 784.486957 138.935333 
C 780.736418 138.935333 777.138988 140.425437 774.486957 143.077468 
C 771.834926 145.729499 770.344821 149.32693 770.344821 153.077468 
C 770.344821 156.828007 771.834926 160.425437 774.486957 163.077468 
C 777.138988 165.729499 780.736418 167.219604 784.486957 167.219604 
z
" clip-path="url(#peb30d373e3)" style="fill: #1f77b4; fill-opacity: 0.3; stroke: #1f77b4; stroke-opacity: 0.3"/>
    <path d="M 793.309091 154.830741 
C 797.197732 154.830741 800.927627 153.285768 803.677312 150.536084 
C 806.426996 147.786399 807.971969 144.056504 807.971969 140.167863 
C 807.971969 136.279222 806.426996 132.549327 803.677312 129.799642 
C 800.927627 127.049958 797.197732 125.504985 793.309091 125.504985 
C 789.42045 125.504985 785.690554 127.049958 782.94087 129.799642 
C 780.191186 132.549327 778.646213 136.279222 778.646213 140.167863 
C 778.646213 144.056504 780.191186 147.786399 782.94087 150.536084 
C 785.690554 153.285768 789.42045 154.830741 793.309091 154.830741 
z
" clip-path="url(#peb30d373e3)" style="fill: #1f77b4; fill-opacity: 0.3; stroke: #1f77b4; stroke-opacity: 0.3"/>
    <path d="M 802.131225 141.59889 
C 802.550548 141.59889 802.952753 141.432291 803.249259 141.135785 
C 803.545765 140.839279 803.712364 140.437074 803.712364 140.017751 
C 803.712364 139.598428 803.545765 139.196223 803.249259 138.899717 
C 802.952753 138.603211 802.550548 138.436612 802.131225 138.436612 
C 801.711902 138.436612 801.309697 138.603211 801.013191 138.899717 
C 800.716685 139.196223 800.550086 139.598428 800.550086 140.017751 
C 800.550086 140.437074 800.716685 140.839279 801.013191 141.135785 
C 801.309697 141.432291 801.711902 141.59889 802.131225 141.59889 
z
" clip-path="url(#peb30d373e3)" style="fill: #1f77b4; fill-opacity: 0.3; stroke: #1f77b4; stroke-opacity: 0.3"/>
    <path d="M 810.95336 143.410163 
C 812.211328 143.410163 813.417943 142.910366 814.307462 142.020848 
C 815.19698 141.13133 815.696776 139.924715 815.696776 138.666746 
C 815.696776 137.408777 815.19698 136.202162 814.307462 135.312644 
C 813.417943 134.423126 812.211328 133.92333 810.95336 133.92333 
C 809.695391 133.92333 808.488776 134.423126 807.599258 135.312644 
C 806.709739 136.202162 806.209943 137.408777 806.209943 138.666746 
C 806.209943 139.924715 806.709739 141.13133 807.599258 142.020848 
C 808.488776 142.910366 809.695391 143.410163 810.95336 143.410163 
z
" clip-path="url(#peb30d373e3)" style="fill: #1f77b4; fill-opacity: 0.3; stroke: #1f77b4; stroke-opacity: 0.3"/>
    <path d="M 819.775494 142.059157 
C 821.033463 142.059157 822.240078 141.559361 823.129596 140.669843 
C 824.019114 139.780325 824.518911 138.57371 824.518911 137.315741 
C 824.518911 136.057772 824.019114 134.851157 823.129596 133.961639 
C 822.240078 133.072121 821.033463 132.572324 819.775494 132.572324 
C 818.517525 132.572324 817.31091 133.072121 816.421392 133.961639 
C 815.531874 134.851157 815.032078 136.057772 815.032078 137.315741 
C 815.032078 138.57371 815.531874 139.780325 816.421392 140.669843 
C 817.31091 141.559361 818.517525 142.059157 819.775494 142.059157 
z
" clip-path="url(#peb30d373e3)" style="fill: #1f77b4; fill-opacity: 0.3; stroke: #1f77b4; stroke-opacity: 0.3"/>
    <path d="M 828.597628 140.604109 
C 831.818509 140.604109 834.907904 139.32444 837.18541 137.046933 
C 839.462917 134.769427 840.742586 131.680032 840.742586 128.459151 
C 840.742586 125.238271 839.462917 122.148876 837.18541 119.871369 
C 834.907904 117.593863 831.818509 116.314193 828.597628 116.314193 
C 825.376748 116.314193 822.287353 117.593863 820.009846 119.871369 
C 817.73234 122.148876 816.452671 125.238271 816.452671 128.459151 
C 816.452671 131.680032 817.73234 134.769427 820.009846 137.046933 
C 822.287353 139.32444 825.376748 140.604109 828.597628 140.604109 
z
" clip-path="url(#peb30d373e3)" style="fill: #1f77b4; fill-opacity: 0.3; stroke: #1f77b4; stroke-opacity: 0.3"/>
    <path d="M 837.419763 132.381919 
C 839.097055 132.381919 840.705874 131.715524 841.891899 130.5295 
C 843.077923 129.343476 843.744318 127.734656 843.744318 126.057364 
C 843.744318 124.380072 843.077923 122.771252 841.891899 121.585228 
C 840.705874 120.399204 839.097055 119.732809 837.419763 119.732809 
C 835.742471 119.732809 834.133651 120.399204 832.947627 121.585228 
C 831.761603 122.771252 831.095208 124.380072 831.095208 126.057364 
C 831.095208 127.734656 831.761603 129.343476 832.947627 130.5295 
C 834.133651 131.715524 835.742471 132.381919 837.419763 132.381919 
z
" clip-path="url(#peb30d373e3)" style="fill: #1f77b4; fill-opacity: 0.3; stroke: #1f77b4; stroke-opacity: 0.3"/>
    <path d="M 846.241897 129.189882 
C 847.351321 129.189882 848.415456 128.749104 849.199937 127.964622 
C 849.984418 127.180141 850.425197 126.116006 850.425197 125.006582 
C 850.425197 123.897158 849.984418 122.833024 849.199937 122.048542 
C 848.415456 121.264061 847.351321 120.823282 846.241897 120.823282 
C 845.132473 120.823282 844.068339 121.264061 843.283857 122.048542 
C 842.499376 122.833024 842.058597 123.897158 842.058597 125.006582 
C 842.058597 126.116006 842.499376 127.180141 843.283857 127.964622 
C 844.068339 128.749104 845.132473 129.189882 846.241897 129.189882 
z
" clip-path="url(#peb30d373e3)" style="fill: #1f77b4; fill-opacity: 0.3; stroke: #1f77b4; stroke-opacity: 0.3"/>
    <path d="M 855.064032 128.929351 
C 856.741323 128.929351 858.350143 128.262956 859.536168 127.076931 
C 860.722192 125.890907 861.388587 124.282087 861.388587 122.604795 
C 861.388587 120.927504 860.722192 119.318684 859.536168 118.132659 
C 858.350143 116.946635 856.741323 116.28024 855.064032 116.28024 
C 853.38674 116.28024 851.77792 116.946635 850.591896 118.132659 
C 849.405871 119.318684 848.739476 120.927504 848.739476 122.604795 
C 848.739476 124.282087 849.405871 125.890907 850.591896 127.076931 
C 851.77792 128.262956 853.38674 128.929351 855.064032 128.929351 
z
" clip-path="url(#peb30d373e3)" style="fill: #1f77b4; fill-opacity: 0.3; stroke: #1f77b4; stroke-opacity: 0.3"/>
    <path d="M 863.886166 126.718537 
C 865.852965 126.718537 867.739473 125.937119 869.13021 124.546382 
C 870.520947 123.155646 871.302364 121.269137 871.302364 119.302338 
C 871.302364 117.335539 870.520947 115.449031 869.13021 114.058294 
C 867.739473 112.667557 865.852965 111.88614 863.886166 111.88614 
C 861.919367 111.88614 860.032859 112.667557 858.642122 114.058294 
C 857.251385 115.449031 856.469968 117.335539 856.469968 119.302338 
C 856.469968 121.269137 857.251385 123.155646 858.642122 124.546382 
C 860.032859 125.937119 861.919367 126.718537 863.886166 126.718537 
z
" clip-path="url(#peb30d373e3)" style="fill: #1f77b4; fill-opacity: 0.3; stroke: #1f77b4; stroke-opacity: 0.3"/>
    <path d="M 872.7083 120.733365 
C 873.127623 120.733365 873.529828 120.566766 873.826334 120.27026 
C 874.12284 119.973754 874.289439 119.571549 874.289439 119.152226 
C 874.289439 118.732903 874.12284 118.330698 873.826334 118.034192 
C 873.529828 117.737686 873.127623 117.571088 872.7083 117.571088 
C 872.288977 117.571088 871.886772 117.737686 871.590266 118.034192 
C 871.29376 118.330698 871.127162 118.732903 871.127162 119.152226 
C 871.127162 119.571549 871.29376 119.973754 871.590266 120.27026 
C 871.886772 120.566766 872.288977 120.733365 872.7083 120.733365 
z
" clip-path="url(#peb30d373e3)" style="fill: #1f77b4; fill-opacity: 0.3; stroke: #1f77b4; stroke-opacity: 0.3"/>
    <path d="M 881.530435 121.937202 
C 882.468069 121.937202 883.367427 121.564676 884.030435 120.901668 
C 884.693443 120.23866 885.065969 119.339302 885.065969 118.401668 
C 885.065969 117.464033 884.693443 116.564676 884.030435 115.901668 
C 883.367427 115.23866 882.468069 114.866134 881.530435 114.866134 
C 880.5928 114.866134 879.693443 115.23866 879.030435 115.901668 
C 878.367427 116.564676 877.994901 117.464033 877.994901 118.401668 
C 877.994901 119.339302 878.367427 120.23866 879.030435 120.901668 
C 879.693443 121.564676 880.5928 121.937202 881.530435 121.937202 
z
" clip-path="url(#peb30d373e3)" style="fill: #1f77b4; fill-opacity: 0.3; stroke: #1f77b4; stroke-opacity: 0.3"/>
    <path d="M 890.352569 121.373981 
C 891.379696 121.373981 892.364893 120.965899 893.091182 120.239611 
C 893.817471 119.513322 894.225553 118.528125 894.225553 117.500998 
C 894.225553 116.473871 893.817471 115.488674 893.091182 114.762385 
C 892.364893 114.036096 891.379696 113.628014 890.352569 113.628014 
C 889.325442 113.628014 888.340245 114.036096 887.613956 114.762385 
C 886.887668 115.488674 886.479586 116.473871 886.479586 117.500998 
C 886.479586 118.528125 886.887668 119.513322 887.613956 120.239611 
C 888.340245 120.965899 889.325442 121.373981 890.352569 121.373981 
z
" clip-path="url(#peb30d373e3)" style="fill: #1f77b4; fill-opacity: 0.3; stroke: #1f77b4; stroke-opacity: 0.3"/>
    <path d="M 899.174704 121.093813 
C 900.56544 121.093813 901.899403 120.541268 902.882803 119.557868 
C 903.866202 118.574469 904.418748 117.240506 904.418748 115.849769 
C 904.418748 114.459032 903.866202 113.125069 902.882803 112.14167 
C 901.899403 111.158271 900.56544 110.605725 899.174704 110.605725 
C 897.783967 110.605725 896.450004 111.158271 895.466604 112.14167 
C 894.483205 113.125069 893.930659 114.459032 893.930659 115.849769 
C 893.930659 117.240506 894.483205 118.574469 895.466604 119.557868 
C 896.450004 120.541268 897.783967 121.093813 899.174704 121.093813 
z
" clip-path="url(#peb30d373e3)" style="fill: #1f77b4; fill-opacity: 0.3; stroke: #1f77b4; stroke-opacity: 0.3"/>
    <path d="M 907.996838 119.979034 
C 910.405665 119.979034 912.716156 119.021997 914.419454 117.3187 
C 916.122752 115.615402 917.079789 113.30491 917.079789 110.896083 
C 917.079789 108.487257 916.122752 106.176765 914.419454 104.473467 
C 912.716156 102.770169 910.405665 101.813132 907.996838 101.813132 
C 905.588011 101.813132 903.277519 102.770169 901.574222 104.473467 
C 899.870924 106.176765 898.913887 108.487257 898.913887 110.896083 
C 898.913887 113.30491 899.870924 115.615402 901.574222 117.3187 
C 903.277519 119.021997 905.588011 119.979034 907.996838 119.979034 
z
" clip-path="url(#peb30d373e3)" style="fill: #1f77b4; fill-opacity: 0.3; stroke: #1f77b4; stroke-opacity: 0.3"/>
    <path d="M 916.818972 112.327111 
C 917.238295 112.327111 917.6405 112.160512 917.937006 111.864006 
C 918.233512 111.5675 918.400111 111.165295 918.400111 110.745972 
C 918.400111 110.326649 918.233512 109.924444 917.937006 109.627938 
C 917.6405 109.331432 917.238295 109.164833 916.818972 109.164833 
C 916.399649 109.164833 915.997444 109.331432 915.700938 109.627938 
C 915.404432 109.924444 915.237834 110.326649 915.237834 110.745972 
C 915.237834 111.165295 915.404432 111.5675 915.700938 111.864006 
C 915.997444 112.160512 916.399649 112.327111 916.818972 112.327111 
z
" clip-path="url(#peb30d373e3)" style="fill: #1f77b4; fill-opacity: 0.3; stroke: #1f77b4; stroke-opacity: 0.3"/>
    <path d="M 925.641107 114.530464 
C 928.51584 114.530464 931.273218 113.38832 933.305962 111.355577 
C 935.338705 109.322834 936.480848 106.565455 936.480848 103.690722 
C 936.480848 100.815989 935.338705 98.058611 933.305962 96.025867 
C 931.273218 93.993124 928.51584 92.850981 925.641107 92.850981 
C 922.766374 92.850981 920.008995 93.993124 917.976252 96.025867 
C 915.943509 98.058611 914.801365 100.815989 914.801365 103.690722 
C 914.801365 106.565455 915.943509 109.322834 917.976252 111.355577 
C 920.008995 113.38832 922.766374 114.530464 925.641107 114.530464 
z
" clip-path="url(#peb30d373e3)" style="fill: #1f77b4; fill-opacity: 0.3; stroke: #1f77b4; stroke-opacity: 0.3"/>
    <path d="M 934.463241 106.663035 
C 935.490368 106.663035 936.475565 106.254954 937.201854 105.528665 
C 937.928142 104.802376 938.336224 103.817179 938.336224 102.790052 
C 938.336224 101.762925 937.928142 100.777728 937.201854 100.051439 
C 936.475565 99.325151 935.490368 98.917069 934.463241 98.917069 
C 933.436114 98.917069 932.450917 99.325151 931.724628 100.051439 
C 930.99834 100.777728 930.590258 101.762925 930.590258 102.790052 
C 930.590258 103.817179 930.99834 104.802376 931.724628 105.528665 
C 932.450917 106.254954 933.436114 106.663035 934.463241 106.663035 
z
" clip-path="url(#peb30d373e3)" style="fill: #1f77b4; fill-opacity: 0.3; stroke: #1f77b4; stroke-opacity: 0.3"/>
    <path d="M 943.285375 106.382868 
C 944.676112 106.382868 946.010075 105.830322 946.993475 104.846923 
C 947.976874 103.863523 948.52942 102.52956 948.52942 101.138824 
C 948.52942 99.748087 947.976874 98.414124 946.993475 97.430724 
C 946.010075 96.447325 944.676112 95.894779 943.285375 95.894779 
C 941.894639 95.894779 940.560676 96.447325 939.577276 97.430724 
C 938.593877 98.414124 938.041331 99.748087 938.041331 101.138824 
C 938.041331 102.52956 938.593877 103.863523 939.577276 104.846923 
C 940.560676 105.830322 941.894639 106.382868 943.285375 106.382868 
z
" clip-path="url(#peb30d373e3)" style="fill: #1f77b4; fill-opacity: 0.3; stroke: #1f77b4; stroke-opacity: 0.3"/>
    <path d="M 952.10751 104.531235 
C 953.365479 104.531235 954.572094 104.031439 955.461612 103.14192 
C 956.35113 102.252402 956.850926 101.045787 956.850926 99.787818 
C 956.850926 98.52985 956.35113 97.323235 955.461612 96.433716 
C 954.572094 95.544198 953.365479 95.044402 952.10751 95.044402 
C 950.849541 95.044402 949.642926 95.544198 948.753408 96.433716 
C 947.86389 97.323235 947.364093 98.52985 947.364093 99.787818 
C 947.364093 101.045787 947.86389 102.252402 948.753408 103.14192 
C 949.642926 104.031439 950.849541 104.531235 952.10751 104.531235 
z
" clip-path="url(#peb30d373e3)" style="fill: #1f77b4; fill-opacity: 0.3; stroke: #1f77b4; stroke-opacity: 0.3"/>
    <path d="M 960.929644 102.572794 
C 961.867279 102.572794 962.766637 102.200268 963.429644 101.53726 
C 964.092652 100.874252 964.465178 99.974894 964.465178 99.03726 
C 964.465178 98.099625 964.092652 97.200268 963.429644 96.53726 
C 962.766637 95.874252 961.867279 95.501726 960.929644 95.501726 
C 959.99201 95.501726 959.092652 95.874252 958.429644 96.53726 
C 957.766637 97.200268 957.39411 98.099625 957.39411 99.03726 
C 957.39411 99.974894 957.766637 100.874252 958.429644 101.53726 
C 959.092652 102.200268 959.99201 102.572794 960.929644 102.572794 
z
" clip-path="url(#peb30d373e3)" style="fill: #1f77b4; fill-opacity: 0.3; stroke: #1f77b4; stroke-opacity: 0.3"/>
    <path d="M 969.751779 101.325538 
C 970.478067 101.325538 971.174707 101.03698 971.68827 100.523416 
C 972.201834 100.009853 972.490391 99.313213 972.490391 98.586925 
C 972.490391 97.860636 972.201834 97.163997 971.68827 96.650433 
C 971.174707 96.13687 970.478067 95.848312 969.751779 95.848312 
C 969.02549 95.848312 968.328851 96.13687 967.815287 96.650433 
C 967.301723 97.163997 967.013166 97.860636 967.013166 98.586925 
C 967.013166 99.313213 967.301723 100.009853 967.815287 100.523416 
C 968.328851 101.03698 969.02549 101.325538 969.751779 101.325538 
z
" clip-path="url(#peb30d373e3)" style="fill: #1f77b4; fill-opacity: 0.3; stroke: #1f77b4; stroke-opacity: 0.3"/>
    <path d="M 978.573913 101.148756 
C 979.412559 101.148756 980.216969 100.815558 980.809981 100.222546 
C 981.402993 99.629534 981.736191 98.825124 981.736191 97.986478 
C 981.736191 97.147832 981.402993 96.343422 980.809981 95.75041 
C 980.216969 95.157398 979.412559 94.8242 978.573913 94.8242 
C 977.735267 94.8242 976.930857 95.157398 976.337845 95.75041 
C 975.744833 96.343422 975.411635 97.147832 975.411635 97.986478 
C 975.411635 98.825124 975.744833 99.629534 976.337845 100.222546 
C 976.930857 100.815558 977.735267 101.148756 978.573913 101.148756 
z
" clip-path="url(#peb30d373e3)" style="fill: #1f77b4; fill-opacity: 0.3; stroke: #1f77b4; stroke-opacity: 0.3"/>
    <path d="M 987.396047 100.274756 
C 988.122336 100.274756 988.818976 99.986198 989.332539 99.472635 
C 989.846103 98.959071 990.13466 98.262432 990.13466 97.536143 
C 990.13466 96.809854 989.846103 96.113215 989.332539 95.599651 
C 988.818976 95.086088 988.122336 94.79753 987.396047 94.79753 
C 986.669759 94.79753 985.973119 95.086088 985.459556 95.599651 
C 984.945992 96.113215 984.657435 96.809854 984.657435 97.536143 
C 984.657435 98.262432 984.945992 98.959071 985.459556 99.472635 
C 985.973119 99.986198 986.669759 100.274756 987.396047 100.274756 
z
" clip-path="url(#peb30d373e3)" style="fill: #1f77b4; fill-opacity: 0.3; stroke: #1f77b4; stroke-opacity: 0.3"/>
    <path d="M 996.218182 101.006039 
C 999.327964 101.006039 1002.310796 99.77051 1004.509744 97.571562 
C 1006.708692 95.372614 1007.944221 92.389782 1007.944221 89.28 
C 1007.944221 86.170218 1006.708692 83.187386 1004.509744 80.988438 
C 1002.310796 78.78949 999.327964 77.553961 996.218182 77.553961 
C 993.1084 77.553961 990.125568 78.78949 987.92662 80.988438 
C 985.727672 83.187386 984.492142 86.170218 984.492142 89.28 
C 984.492142 92.389782 985.727672 95.372614 987.92662 97.571562 
C 990.125568 99.77051 993.1084 101.006039 996.218182 101.006039 
z
" clip-path="url(#peb30d373e3)" style="fill: #1f77b4; fill-opacity: 0.3; stroke: #1f77b4; stroke-opacity: 0.3"/>
   </g>
   <g id="matplotlib.axis_1">
    <g id="xtick_1">
     <g id="line2d_1">
      <defs>
       <path id="mdc9a715f38" d="M 0 0 
L 0 3.5 
" style="stroke: #000000; stroke-width: 0.8"/>
      </defs>
      <g>
       <use xlink:href="#mdc9a715f38" x="184.581818" y="512.64" style="stroke: #000000; stroke-width: 0.8"/>
      </g>
     </g>
     <g id="text_1">
      <!-- 2022-01-01 -->
      <g transform="translate(155.524006 527.238438)scale(0.1 -0.1)">
       <defs>
        <path id="DejaVuSans-32" d="M 1228 531 
L 3431 531 
L 3431 0 
L 469 0 
L 469 531 
Q 828 903 1448 1529 
Q 2069 2156 2228 2338 
Q 2531 2678 2651 2914 
Q 2772 3150 2772 3378 
Q 2772 3750 2511 3984 
Q 2250 4219 1831 4219 
Q 1534 4219 1204 4116 
Q 875 4013 500 3803 
L 500 4441 
Q 881 4594 1212 4672 
Q 1544 4750 1819 4750 
Q 2544 4750 2975 4387 
Q 3406 4025 3406 3419 
Q 3406 3131 3298 2873 
Q 3191 2616 2906 2266 
Q 2828 2175 2409 1742 
Q 1991 1309 1228 531 
z
" transform="scale(0.015625)"/>
        <path id="DejaVuSans-30" d="M 2034 4250 
Q 1547 4250 1301 3770 
Q 1056 3291 1056 2328 
Q 1056 1369 1301 889 
Q 1547 409 2034 409 
Q 2525 409 2770 889 
Q 3016 1369 3016 2328 
Q 3016 3291 2770 3770 
Q 2525 4250 2034 4250 
z
M 2034 4750 
Q 2819 4750 3233 4129 
Q 3647 3509 3647 2328 
Q 3647 1150 3233 529 
Q 2819 -91 2034 -91 
Q 1250 -91 836 529 
Q 422 1150 422 2328 
Q 422 3509 836 4129 
Q 1250 4750 2034 4750 
z
" transform="scale(0.015625)"/>
        <path id="DejaVuSans-2d" d="M 313 2009 
L 1997 2009 
L 1997 1497 
L 313 1497 
L 313 2009 
z
" transform="scale(0.015625)"/>
        <path id="DejaVuSans-31" d="M 794 531 
L 1825 531 
L 1825 4091 
L 703 3866 
L 703 4441 
L 1819 4666 
L 2450 4666 
L 2450 531 
L 3481 531 
L 3481 0 
L 794 0 
L 794 531 
z
" transform="scale(0.015625)"/>
       </defs>
       <use xlink:href="#DejaVuSans-32"/>
       <use xlink:href="#DejaVuSans-30" x="63.623047"/>
       <use xlink:href="#DejaVuSans-32" x="127.246094"/>
       <use xlink:href="#DejaVuSans-32" x="190.869141"/>
       <use xlink:href="#DejaVuSans-2d" x="254.492188"/>
       <use xlink:href="#DejaVuSans-30" x="290.576172"/>
       <use xlink:href="#DejaVuSans-31" x="354.199219"/>
       <use xlink:href="#DejaVuSans-2d" x="417.822266"/>
       <use xlink:href="#DejaVuSans-30" x="453.90625"/>
       <use xlink:href="#DejaVuSans-31" x="517.529297"/>
      </g>
     </g>
    </g>
    <g id="xtick_2">
     <g id="line2d_2">
      <g>
       <use xlink:href="#mdc9a715f38" x="308.0917" y="512.64" style="stroke: #000000; stroke-width: 0.8"/>
      </g>
     </g>
     <g id="text_2">
      <!-- 2022-01-15 -->
      <g transform="translate(279.033887 527.238438)scale(0.1 -0.1)">
       <defs>
        <path id="DejaVuSans-35" d="M 691 4666 
L 3169 4666 
L 3169 4134 
L 1269 4134 
L 1269 2991 
Q 1406 3038 1543 3061 
Q 1681 3084 1819 3084 
Q 2600 3084 3056 2656 
Q 3513 2228 3513 1497 
Q 3513 744 3044 326 
Q 2575 -91 1722 -91 
Q 1428 -91 1123 -41 
Q 819 9 494 109 
L 494 744 
Q 775 591 1075 516 
Q 1375 441 1709 441 
Q 2250 441 2565 725 
Q 2881 1009 2881 1497 
Q 2881 1984 2565 2268 
Q 2250 2553 1709 2553 
Q 1456 2553 1204 2497 
Q 953 2441 691 2322 
L 691 4666 
z
" transform="scale(0.015625)"/>
       </defs>
       <use xlink:href="#DejaVuSans-32"/>
       <use xlink:href="#DejaVuSans-30" x="63.623047"/>
       <use xlink:href="#DejaVuSans-32" x="127.246094"/>
       <use xlink:href="#DejaVuSans-32" x="190.869141"/>
       <use xlink:href="#DejaVuSans-2d" x="254.492188"/>
       <use xlink:href="#DejaVuSans-30" x="290.576172"/>
       <use xlink:href="#DejaVuSans-31" x="354.199219"/>
       <use xlink:href="#DejaVuSans-2d" x="417.822266"/>
       <use xlink:href="#DejaVuSans-31" x="453.90625"/>
       <use xlink:href="#DejaVuSans-35" x="517.529297"/>
      </g>
     </g>
    </g>
    <g id="xtick_3">
     <g id="line2d_3">
      <g>
       <use xlink:href="#mdc9a715f38" x="458.067984" y="512.64" style="stroke: #000000; stroke-width: 0.8"/>
      </g>
     </g>
     <g id="text_3">
      <!-- 2022-02-01 -->
      <g transform="translate(429.010172 527.238438)scale(0.1 -0.1)">
       <use xlink:href="#DejaVuSans-32"/>
       <use xlink:href="#DejaVuSans-30" x="63.623047"/>
       <use xlink:href="#DejaVuSans-32" x="127.246094"/>
       <use xlink:href="#DejaVuSans-32" x="190.869141"/>
       <use xlink:href="#DejaVuSans-2d" x="254.492188"/>
       <use xlink:href="#DejaVuSans-30" x="290.576172"/>
       <use xlink:href="#DejaVuSans-32" x="354.199219"/>
       <use xlink:href="#DejaVuSans-2d" x="417.822266"/>
       <use xlink:href="#DejaVuSans-30" x="453.90625"/>
       <use xlink:href="#DejaVuSans-31" x="517.529297"/>
      </g>
     </g>
    </g>
    <g id="xtick_4">
     <g id="line2d_4">
      <g>
       <use xlink:href="#mdc9a715f38" x="581.577866" y="512.64" style="stroke: #000000; stroke-width: 0.8"/>
      </g>
     </g>
     <g id="text_4">
      <!-- 2022-02-15 -->
      <g transform="translate(552.520053 527.238438)scale(0.1 -0.1)">
       <use xlink:href="#DejaVuSans-32"/>
       <use xlink:href="#DejaVuSans-30" x="63.623047"/>
       <use xlink:href="#DejaVuSans-32" x="127.246094"/>
       <use xlink:href="#DejaVuSans-32" x="190.869141"/>
       <use xlink:href="#DejaVuSans-2d" x="254.492188"/>
       <use xlink:href="#DejaVuSans-30" x="290.576172"/>
       <use xlink:href="#DejaVuSans-32" x="354.199219"/>
       <use xlink:href="#DejaVuSans-2d" x="417.822266"/>
       <use xlink:href="#DejaVuSans-31" x="453.90625"/>
       <use xlink:href="#DejaVuSans-35" x="517.529297"/>
      </g>
     </g>
    </g>
    <g id="xtick_5">
     <g id="line2d_5">
      <g>
       <use xlink:href="#mdc9a715f38" x="705.087747" y="512.64" style="stroke: #000000; stroke-width: 0.8"/>
      </g>
     </g>
     <g id="text_5">
      <!-- 2022-03-01 -->
      <g transform="translate(676.029935 527.238438)scale(0.1 -0.1)">
       <defs>
        <path id="DejaVuSans-33" d="M 2597 2516 
Q 3050 2419 3304 2112 
Q 3559 1806 3559 1356 
Q 3559 666 3084 287 
Q 2609 -91 1734 -91 
Q 1441 -91 1130 -33 
Q 819 25 488 141 
L 488 750 
Q 750 597 1062 519 
Q 1375 441 1716 441 
Q 2309 441 2620 675 
Q 2931 909 2931 1356 
Q 2931 1769 2642 2001 
Q 2353 2234 1838 2234 
L 1294 2234 
L 1294 2753 
L 1863 2753 
Q 2328 2753 2575 2939 
Q 2822 3125 2822 3475 
Q 2822 3834 2567 4026 
Q 2313 4219 1838 4219 
Q 1578 4219 1281 4162 
Q 984 4106 628 3988 
L 628 4550 
Q 988 4650 1302 4700 
Q 1616 4750 1894 4750 
Q 2613 4750 3031 4423 
Q 3450 4097 3450 3541 
Q 3450 3153 3228 2886 
Q 3006 2619 2597 2516 
z
" transform="scale(0.015625)"/>
       </defs>
       <use xlink:href="#DejaVuSans-32"/>
       <use xlink:href="#DejaVuSans-30" x="63.623047"/>
       <use xlink:href="#DejaVuSans-32" x="127.246094"/>
       <use xlink:href="#DejaVuSans-32" x="190.869141"/>
       <use xlink:href="#DejaVuSans-2d" x="254.492188"/>
       <use xlink:href="#DejaVuSans-30" x="290.576172"/>
       <use xlink:href="#DejaVuSans-33" x="354.199219"/>
       <use xlink:href="#DejaVuSans-2d" x="417.822266"/>
       <use xlink:href="#DejaVuSans-30" x="453.90625"/>
       <use xlink:href="#DejaVuSans-31" x="517.529297"/>
      </g>
     </g>
    </g>
    <g id="xtick_6">
     <g id="line2d_6">
      <g>
       <use xlink:href="#mdc9a715f38" x="828.597628" y="512.64" style="stroke: #000000; stroke-width: 0.8"/>
      </g>
     </g>
     <g id="text_6">
      <!-- 2022-03-15 -->
      <g transform="translate(799.539816 527.238438)scale(0.1 -0.1)">
       <use xlink:href="#DejaVuSans-32"/>
       <use xlink:href="#DejaVuSans-30" x="63.623047"/>
       <use xlink:href="#DejaVuSans-32" x="127.246094"/>
       <use xlink:href="#DejaVuSans-32" x="190.869141"/>
       <use xlink:href="#DejaVuSans-2d" x="254.492188"/>
       <use xlink:href="#DejaVuSans-30" x="290.576172"/>
       <use xlink:href="#DejaVuSans-33" x="354.199219"/>
       <use xlink:href="#DejaVuSans-2d" x="417.822266"/>
       <use xlink:href="#DejaVuSans-31" x="453.90625"/>
       <use xlink:href="#DejaVuSans-35" x="517.529297"/>
      </g>
     </g>
    </g>
    <g id="xtick_7">
     <g id="line2d_7">
      <g>
       <use xlink:href="#mdc9a715f38" x="978.573913" y="512.64" style="stroke: #000000; stroke-width: 0.8"/>
      </g>
     </g>
     <g id="text_7">
      <!-- 2022-04-01 -->
      <g transform="translate(949.516101 527.238438)scale(0.1 -0.1)">
       <defs>
        <path id="DejaVuSans-34" d="M 2419 4116 
L 825 1625 
L 2419 1625 
L 2419 4116 
z
M 2253 4666 
L 3047 4666 
L 3047 1625 
L 3713 1625 
L 3713 1100 
L 3047 1100 
L 3047 0 
L 2419 0 
L 2419 1100 
L 313 1100 
L 313 1709 
L 2253 4666 
z
" transform="scale(0.015625)"/>
       </defs>
       <use xlink:href="#DejaVuSans-32"/>
       <use xlink:href="#DejaVuSans-30" x="63.623047"/>
       <use xlink:href="#DejaVuSans-32" x="127.246094"/>
       <use xlink:href="#DejaVuSans-32" x="190.869141"/>
       <use xlink:href="#DejaVuSans-2d" x="254.492188"/>
       <use xlink:href="#DejaVuSans-30" x="290.576172"/>
       <use xlink:href="#DejaVuSans-34" x="354.199219"/>
       <use xlink:href="#DejaVuSans-2d" x="417.822266"/>
       <use xlink:href="#DejaVuSans-30" x="453.90625"/>
       <use xlink:href="#DejaVuSans-31" x="517.529297"/>
      </g>
     </g>
    </g>
   </g>
   <g id="matplotlib.axis_2">
    <g id="ytick_1">
     <g id="line2d_8">
      <defs>
       <path id="m618fc587c3" d="M 0 0 
L -3.5 0 
" style="stroke: #000000; stroke-width: 0.8"/>
      </defs>
      <g>
       <use xlink:href="#m618fc587c3" x="144" y="477.018496" style="stroke: #000000; stroke-width: 0.8"/>
      </g>
     </g>
     <g id="text_8">
      <!-- 500 -->
      <g transform="translate(117.9125 480.817715)scale(0.1 -0.1)">
       <use xlink:href="#DejaVuSans-35"/>
       <use xlink:href="#DejaVuSans-30" x="63.623047"/>
       <use xlink:href="#DejaVuSans-30" x="127.246094"/>
      </g>
     </g>
    </g>
    <g id="ytick_2">
     <g id="line2d_9">
      <g>
       <use xlink:href="#m618fc587c3" x="144" y="401.962651" style="stroke: #000000; stroke-width: 0.8"/>
      </g>
     </g>
     <g id="text_9">
      <!-- 1000 -->
      <g transform="translate(111.55 405.76187)scale(0.1 -0.1)">
       <use xlink:href="#DejaVuSans-31"/>
       <use xlink:href="#DejaVuSans-30" x="63.623047"/>
       <use xlink:href="#DejaVuSans-30" x="127.246094"/>
       <use xlink:href="#DejaVuSans-30" x="190.869141"/>
      </g>
     </g>
    </g>
    <g id="ytick_3">
     <g id="line2d_10">
      <g>
       <use xlink:href="#m618fc587c3" x="144" y="326.906806" style="stroke: #000000; stroke-width: 0.8"/>
      </g>
     </g>
     <g id="text_10">
      <!-- 1500 -->
      <g transform="translate(111.55 330.706024)scale(0.1 -0.1)">
       <use xlink:href="#DejaVuSans-31"/>
       <use xlink:href="#DejaVuSans-35" x="63.623047"/>
       <use xlink:href="#DejaVuSans-30" x="127.246094"/>
       <use xlink:href="#DejaVuSans-30" x="190.869141"/>
      </g>
     </g>
    </g>
    <g id="ytick_4">
     <g id="line2d_11">
      <g>
       <use xlink:href="#m618fc587c3" x="144" y="251.850961" style="stroke: #000000; stroke-width: 0.8"/>
      </g>
     </g>
     <g id="text_11">
      <!-- 2000 -->
      <g transform="translate(111.55 255.650179)scale(0.1 -0.1)">
       <use xlink:href="#DejaVuSans-32"/>
       <use xlink:href="#DejaVuSans-30" x="63.623047"/>
       <use xlink:href="#DejaVuSans-30" x="127.246094"/>
       <use xlink:href="#DejaVuSans-30" x="190.869141"/>
      </g>
     </g>
    </g>
    <g id="ytick_5">
     <g id="line2d_12">
      <g>
       <use xlink:href="#m618fc587c3" x="144" y="176.795115" style="stroke: #000000; stroke-width: 0.8"/>
      </g>
     </g>
     <g id="text_12">
      <!-- 2500 -->
      <g transform="translate(111.55 180.594334)scale(0.1 -0.1)">
       <use xlink:href="#DejaVuSans-32"/>
       <use xlink:href="#DejaVuSans-35" x="63.623047"/>
       <use xlink:href="#DejaVuSans-30" x="127.246094"/>
       <use xlink:href="#DejaVuSans-30" x="190.869141"/>
      </g>
     </g>
    </g>
    <g id="ytick_6">
     <g id="line2d_13">
      <g>
       <use xlink:href="#m618fc587c3" x="144" y="101.73927" style="stroke: #000000; stroke-width: 0.8"/>
      </g>
     </g>
     <g id="text_13">
      <!-- 3000 -->
      <g transform="translate(111.55 105.538489)scale(0.1 -0.1)">
       <use xlink:href="#DejaVuSans-33"/>
       <use xlink:href="#DejaVuSans-30" x="63.623047"/>
       <use xlink:href="#DejaVuSans-30" x="127.246094"/>
       <use xlink:href="#DejaVuSans-30" x="190.869141"/>
      </g>
     </g>
    </g>
   </g>
   <g id="line2d_14">
    <path d="M 184.581818 492.48 
L 193.403953 492.029665 
L 202.226087 491.128995 
L 211.048221 490.078213 
L 219.870356 489.627878 
L 228.69249 489.327655 
L 237.514625 488.727208 
L 246.336759 486.775756 
L 255.158893 485.424751 
L 263.981028 484.52408 
L 272.803162 483.773522 
L 281.625296 478.369501 
L 290.447431 470.413582 
L 299.269565 468.46213 
L 308.0917 464.409114 
L 316.913834 456.903529 
L 325.735968 445.194818 
L 334.558103 440.391243 
L 343.380237 436.788563 
L 352.202372 434.987223 
L 361.024506 413.821474 
L 369.84664 403.613879 
L 378.668775 399.861087 
L 387.490909 383.19869 
L 396.313043 376.893999 
L 405.135178 371.489978 
L 413.957312 363.233835 
L 422.779447 362.483276 
L 431.601581 356.178585 
L 440.423715 351.375011 
L 449.24585 347.772331 
L 458.067984 322.553567 
L 466.890119 320.15178 
L 475.712253 314.597647 
L 484.534387 310.694743 
L 493.356522 309.794073 
L 502.178656 304.690276 
L 511.000791 287.427431 
L 519.822925 282.773969 
L 528.645059 282.02341 
L 537.467194 269.263917 
L 546.289328 264.610454 
L 555.111462 264.460343 
L 563.933597 263.559672 
L 572.755731 259.656768 
L 581.577866 255.453641 
L 590.4 251.400625 
L 599.222134 249.14895 
L 608.044269 247.497722 
L 616.866403 244.645599 
L 625.688538 235.488786 
L 634.510672 229.184095 
L 643.332806 223.930186 
L 652.154941 202.314103 
L 660.977075 192.706955 
L 669.799209 185.951929 
L 678.621344 177.545674 
L 687.443478 176.795115 
L 705.087747 175.594222 
L 722.732016 174.243217 
L 731.55415 171.991541 
L 740.376285 170.040089 
L 749.198419 167.788414 
L 758.020553 165.836962 
L 766.842688 165.536739 
L 775.664822 165.086404 
L 784.486957 153.077468 
L 793.309091 140.167863 
L 802.131225 140.017751 
L 810.95336 138.666746 
L 819.775494 137.315741 
L 828.597628 128.459151 
L 837.419763 126.057364 
L 846.241897 125.006582 
L 855.064032 122.604795 
L 863.886166 119.302338 
L 872.7083 119.152226 
L 881.530435 118.401668 
L 890.352569 117.500998 
L 899.174704 115.849769 
L 907.996838 110.896083 
L 916.818972 110.745972 
L 925.641107 103.690722 
L 934.463241 102.790052 
L 943.285375 101.138824 
L 952.10751 99.787818 
L 960.929644 99.03726 
L 969.751779 98.586925 
L 978.573913 97.986478 
L 987.396047 97.536143 
L 996.218182 89.28 
" clip-path="url(#peb30d373e3)" style="fill: none; stroke: #1f77b4; stroke-width: 1.5; stroke-linecap: square"/>
   </g>
   <g id="patch_3">
    <path d="M 144 512.64 
L 144 69.12 
" style="fill: none; stroke: #000000; stroke-width: 0.8; stroke-linejoin: miter; stroke-linecap: square"/>
   </g>
   <g id="patch_4">
    <path d="M 1036.8 512.64 
L 1036.8 69.12 
" style="fill: none; stroke: #000000; stroke-width: 0.8; stroke-linejoin: miter; stroke-linecap: square"/>
   </g>
   <g id="patch_5">
    <path d="M 144 512.64 
L 1036.8 512.64 
" style="fill: none; stroke: #000000; stroke-width: 0.8; stroke-linejoin: miter; stroke-linecap: square"/>
   </g>
   <g id="patch_6">
    <path d="M 144 69.12 
L 1036.8 69.12 
" style="fill: none; stroke: #000000; stroke-width: 0.8; stroke-linejoin: miter; stroke-linecap: square"/>
   </g>
   <g id="text_14">
    <!-- Number of AEDs in the OpenStreetMap database in Poland from 2022-01-01, day by day. As at: 2022-04-03 -->
    <g transform="translate(144 63.12)scale(0.14 -0.14)">
     <defs>
      <path id="DejaVuSans-4e" d="M 628 4666 
L 1478 4666 
L 3547 763 
L 3547 4666 
L 4159 4666 
L 4159 0 
L 3309 0 
L 1241 3903 
L 1241 0 
L 628 0 
L 628 4666 
z
" transform="scale(0.015625)"/>
      <path id="DejaVuSans-75" d="M 544 1381 
L 544 3500 
L 1119 3500 
L 1119 1403 
Q 1119 906 1312 657 
Q 1506 409 1894 409 
Q 2359 409 2629 706 
Q 2900 1003 2900 1516 
L 2900 3500 
L 3475 3500 
L 3475 0 
L 2900 0 
L 2900 538 
Q 2691 219 2414 64 
Q 2138 -91 1772 -91 
Q 1169 -91 856 284 
Q 544 659 544 1381 
z
M 1991 3584 
L 1991 3584 
z
" transform="scale(0.015625)"/>
      <path id="DejaVuSans-6d" d="M 3328 2828 
Q 3544 3216 3844 3400 
Q 4144 3584 4550 3584 
Q 5097 3584 5394 3201 
Q 5691 2819 5691 2113 
L 5691 0 
L 5113 0 
L 5113 2094 
Q 5113 2597 4934 2840 
Q 4756 3084 4391 3084 
Q 3944 3084 3684 2787 
Q 3425 2491 3425 1978 
L 3425 0 
L 2847 0 
L 2847 2094 
Q 2847 2600 2669 2842 
Q 2491 3084 2119 3084 
Q 1678 3084 1418 2786 
Q 1159 2488 1159 1978 
L 1159 0 
L 581 0 
L 581 3500 
L 1159 3500 
L 1159 2956 
Q 1356 3278 1631 3431 
Q 1906 3584 2284 3584 
Q 2666 3584 2933 3390 
Q 3200 3197 3328 2828 
z
" transform="scale(0.015625)"/>
      <path id="DejaVuSans-62" d="M 3116 1747 
Q 3116 2381 2855 2742 
Q 2594 3103 2138 3103 
Q 1681 3103 1420 2742 
Q 1159 2381 1159 1747 
Q 1159 1113 1420 752 
Q 1681 391 2138 391 
Q 2594 391 2855 752 
Q 3116 1113 3116 1747 
z
M 1159 2969 
Q 1341 3281 1617 3432 
Q 1894 3584 2278 3584 
Q 2916 3584 3314 3078 
Q 3713 2572 3713 1747 
Q 3713 922 3314 415 
Q 2916 -91 2278 -91 
Q 1894 -91 1617 61 
Q 1341 213 1159 525 
L 1159 0 
L 581 0 
L 581 4863 
L 1159 4863 
L 1159 2969 
z
" transform="scale(0.015625)"/>
      <path id="DejaVuSans-65" d="M 3597 1894 
L 3597 1613 
L 953 1613 
Q 991 1019 1311 708 
Q 1631 397 2203 397 
Q 2534 397 2845 478 
Q 3156 559 3463 722 
L 3463 178 
Q 3153 47 2828 -22 
Q 2503 -91 2169 -91 
Q 1331 -91 842 396 
Q 353 884 353 1716 
Q 353 2575 817 3079 
Q 1281 3584 2069 3584 
Q 2775 3584 3186 3129 
Q 3597 2675 3597 1894 
z
M 3022 2063 
Q 3016 2534 2758 2815 
Q 2500 3097 2075 3097 
Q 1594 3097 1305 2825 
Q 1016 2553 972 2059 
L 3022 2063 
z
" transform="scale(0.015625)"/>
      <path id="DejaVuSans-72" d="M 2631 2963 
Q 2534 3019 2420 3045 
Q 2306 3072 2169 3072 
Q 1681 3072 1420 2755 
Q 1159 2438 1159 1844 
L 1159 0 
L 581 0 
L 581 3500 
L 1159 3500 
L 1159 2956 
Q 1341 3275 1631 3429 
Q 1922 3584 2338 3584 
Q 2397 3584 2469 3576 
Q 2541 3569 2628 3553 
L 2631 2963 
z
" transform="scale(0.015625)"/>
      <path id="DejaVuSans-20" transform="scale(0.015625)"/>
      <path id="DejaVuSans-6f" d="M 1959 3097 
Q 1497 3097 1228 2736 
Q 959 2375 959 1747 
Q 959 1119 1226 758 
Q 1494 397 1959 397 
Q 2419 397 2687 759 
Q 2956 1122 2956 1747 
Q 2956 2369 2687 2733 
Q 2419 3097 1959 3097 
z
M 1959 3584 
Q 2709 3584 3137 3096 
Q 3566 2609 3566 1747 
Q 3566 888 3137 398 
Q 2709 -91 1959 -91 
Q 1206 -91 779 398 
Q 353 888 353 1747 
Q 353 2609 779 3096 
Q 1206 3584 1959 3584 
z
" transform="scale(0.015625)"/>
      <path id="DejaVuSans-66" d="M 2375 4863 
L 2375 4384 
L 1825 4384 
Q 1516 4384 1395 4259 
Q 1275 4134 1275 3809 
L 1275 3500 
L 2222 3500 
L 2222 3053 
L 1275 3053 
L 1275 0 
L 697 0 
L 697 3053 
L 147 3053 
L 147 3500 
L 697 3500 
L 697 3744 
Q 697 4328 969 4595 
Q 1241 4863 1831 4863 
L 2375 4863 
z
" transform="scale(0.015625)"/>
      <path id="DejaVuSans-41" d="M 2188 4044 
L 1331 1722 
L 3047 1722 
L 2188 4044 
z
M 1831 4666 
L 2547 4666 
L 4325 0 
L 3669 0 
L 3244 1197 
L 1141 1197 
L 716 0 
L 50 0 
L 1831 4666 
z
" transform="scale(0.015625)"/>
      <path id="DejaVuSans-45" d="M 628 4666 
L 3578 4666 
L 3578 4134 
L 1259 4134 
L 1259 2753 
L 3481 2753 
L 3481 2222 
L 1259 2222 
L 1259 531 
L 3634 531 
L 3634 0 
L 628 0 
L 628 4666 
z
" transform="scale(0.015625)"/>
      <path id="DejaVuSans-44" d="M 1259 4147 
L 1259 519 
L 2022 519 
Q 2988 519 3436 956 
Q 3884 1394 3884 2338 
Q 3884 3275 3436 3711 
Q 2988 4147 2022 4147 
L 1259 4147 
z
M 628 4666 
L 1925 4666 
Q 3281 4666 3915 4102 
Q 4550 3538 4550 2338 
Q 4550 1131 3912 565 
Q 3275 0 1925 0 
L 628 0 
L 628 4666 
z
" transform="scale(0.015625)"/>
      <path id="DejaVuSans-73" d="M 2834 3397 
L 2834 2853 
Q 2591 2978 2328 3040 
Q 2066 3103 1784 3103 
Q 1356 3103 1142 2972 
Q 928 2841 928 2578 
Q 928 2378 1081 2264 
Q 1234 2150 1697 2047 
L 1894 2003 
Q 2506 1872 2764 1633 
Q 3022 1394 3022 966 
Q 3022 478 2636 193 
Q 2250 -91 1575 -91 
Q 1294 -91 989 -36 
Q 684 19 347 128 
L 347 722 
Q 666 556 975 473 
Q 1284 391 1588 391 
Q 1994 391 2212 530 
Q 2431 669 2431 922 
Q 2431 1156 2273 1281 
Q 2116 1406 1581 1522 
L 1381 1569 
Q 847 1681 609 1914 
Q 372 2147 372 2553 
Q 372 3047 722 3315 
Q 1072 3584 1716 3584 
Q 2034 3584 2315 3537 
Q 2597 3491 2834 3397 
z
" transform="scale(0.015625)"/>
      <path id="DejaVuSans-69" d="M 603 3500 
L 1178 3500 
L 1178 0 
L 603 0 
L 603 3500 
z
M 603 4863 
L 1178 4863 
L 1178 4134 
L 603 4134 
L 603 4863 
z
" transform="scale(0.015625)"/>
      <path id="DejaVuSans-6e" d="M 3513 2113 
L 3513 0 
L 2938 0 
L 2938 2094 
Q 2938 2591 2744 2837 
Q 2550 3084 2163 3084 
Q 1697 3084 1428 2787 
Q 1159 2491 1159 1978 
L 1159 0 
L 581 0 
L 581 3500 
L 1159 3500 
L 1159 2956 
Q 1366 3272 1645 3428 
Q 1925 3584 2291 3584 
Q 2894 3584 3203 3211 
Q 3513 2838 3513 2113 
z
" transform="scale(0.015625)"/>
      <path id="DejaVuSans-74" d="M 1172 4494 
L 1172 3500 
L 2356 3500 
L 2356 3053 
L 1172 3053 
L 1172 1153 
Q 1172 725 1289 603 
Q 1406 481 1766 481 
L 2356 481 
L 2356 0 
L 1766 0 
Q 1100 0 847 248 
Q 594 497 594 1153 
L 594 3053 
L 172 3053 
L 172 3500 
L 594 3500 
L 594 4494 
L 1172 4494 
z
" transform="scale(0.015625)"/>
      <path id="DejaVuSans-68" d="M 3513 2113 
L 3513 0 
L 2938 0 
L 2938 2094 
Q 2938 2591 2744 2837 
Q 2550 3084 2163 3084 
Q 1697 3084 1428 2787 
Q 1159 2491 1159 1978 
L 1159 0 
L 581 0 
L 581 4863 
L 1159 4863 
L 1159 2956 
Q 1366 3272 1645 3428 
Q 1925 3584 2291 3584 
Q 2894 3584 3203 3211 
Q 3513 2838 3513 2113 
z
" transform="scale(0.015625)"/>
      <path id="DejaVuSans-4f" d="M 2522 4238 
Q 1834 4238 1429 3725 
Q 1025 3213 1025 2328 
Q 1025 1447 1429 934 
Q 1834 422 2522 422 
Q 3209 422 3611 934 
Q 4013 1447 4013 2328 
Q 4013 3213 3611 3725 
Q 3209 4238 2522 4238 
z
M 2522 4750 
Q 3503 4750 4090 4092 
Q 4678 3434 4678 2328 
Q 4678 1225 4090 567 
Q 3503 -91 2522 -91 
Q 1538 -91 948 565 
Q 359 1222 359 2328 
Q 359 3434 948 4092 
Q 1538 4750 2522 4750 
z
" transform="scale(0.015625)"/>
      <path id="DejaVuSans-70" d="M 1159 525 
L 1159 -1331 
L 581 -1331 
L 581 3500 
L 1159 3500 
L 1159 2969 
Q 1341 3281 1617 3432 
Q 1894 3584 2278 3584 
Q 2916 3584 3314 3078 
Q 3713 2572 3713 1747 
Q 3713 922 3314 415 
Q 2916 -91 2278 -91 
Q 1894 -91 1617 61 
Q 1341 213 1159 525 
z
M 3116 1747 
Q 3116 2381 2855 2742 
Q 2594 3103 2138 3103 
Q 1681 3103 1420 2742 
Q 1159 2381 1159 1747 
Q 1159 1113 1420 752 
Q 1681 391 2138 391 
Q 2594 391 2855 752 
Q 3116 1113 3116 1747 
z
" transform="scale(0.015625)"/>
      <path id="DejaVuSans-53" d="M 3425 4513 
L 3425 3897 
Q 3066 4069 2747 4153 
Q 2428 4238 2131 4238 
Q 1616 4238 1336 4038 
Q 1056 3838 1056 3469 
Q 1056 3159 1242 3001 
Q 1428 2844 1947 2747 
L 2328 2669 
Q 3034 2534 3370 2195 
Q 3706 1856 3706 1288 
Q 3706 609 3251 259 
Q 2797 -91 1919 -91 
Q 1588 -91 1214 -16 
Q 841 59 441 206 
L 441 856 
Q 825 641 1194 531 
Q 1563 422 1919 422 
Q 2459 422 2753 634 
Q 3047 847 3047 1241 
Q 3047 1584 2836 1778 
Q 2625 1972 2144 2069 
L 1759 2144 
Q 1053 2284 737 2584 
Q 422 2884 422 3419 
Q 422 4038 858 4394 
Q 1294 4750 2059 4750 
Q 2388 4750 2728 4690 
Q 3069 4631 3425 4513 
z
" transform="scale(0.015625)"/>
      <path id="DejaVuSans-4d" d="M 628 4666 
L 1569 4666 
L 2759 1491 
L 3956 4666 
L 4897 4666 
L 4897 0 
L 4281 0 
L 4281 4097 
L 3078 897 
L 2444 897 
L 1241 4097 
L 1241 0 
L 628 0 
L 628 4666 
z
" transform="scale(0.015625)"/>
      <path id="DejaVuSans-61" d="M 2194 1759 
Q 1497 1759 1228 1600 
Q 959 1441 959 1056 
Q 959 750 1161 570 
Q 1363 391 1709 391 
Q 2188 391 2477 730 
Q 2766 1069 2766 1631 
L 2766 1759 
L 2194 1759 
z
M 3341 1997 
L 3341 0 
L 2766 0 
L 2766 531 
Q 2569 213 2275 61 
Q 1981 -91 1556 -91 
Q 1019 -91 701 211 
Q 384 513 384 1019 
Q 384 1609 779 1909 
Q 1175 2209 1959 2209 
L 2766 2209 
L 2766 2266 
Q 2766 2663 2505 2880 
Q 2244 3097 1772 3097 
Q 1472 3097 1187 3025 
Q 903 2953 641 2809 
L 641 3341 
Q 956 3463 1253 3523 
Q 1550 3584 1831 3584 
Q 2591 3584 2966 3190 
Q 3341 2797 3341 1997 
z
" transform="scale(0.015625)"/>
      <path id="DejaVuSans-64" d="M 2906 2969 
L 2906 4863 
L 3481 4863 
L 3481 0 
L 2906 0 
L 2906 525 
Q 2725 213 2448 61 
Q 2172 -91 1784 -91 
Q 1150 -91 751 415 
Q 353 922 353 1747 
Q 353 2572 751 3078 
Q 1150 3584 1784 3584 
Q 2172 3584 2448 3432 
Q 2725 3281 2906 2969 
z
M 947 1747 
Q 947 1113 1208 752 
Q 1469 391 1925 391 
Q 2381 391 2643 752 
Q 2906 1113 2906 1747 
Q 2906 2381 2643 2742 
Q 2381 3103 1925 3103 
Q 1469 3103 1208 2742 
Q 947 2381 947 1747 
z
" transform="scale(0.015625)"/>
      <path id="DejaVuSans-50" d="M 1259 4147 
L 1259 2394 
L 2053 2394 
Q 2494 2394 2734 2622 
Q 2975 2850 2975 3272 
Q 2975 3691 2734 3919 
Q 2494 4147 2053 4147 
L 1259 4147 
z
M 628 4666 
L 2053 4666 
Q 2838 4666 3239 4311 
Q 3641 3956 3641 3272 
Q 3641 2581 3239 2228 
Q 2838 1875 2053 1875 
L 1259 1875 
L 1259 0 
L 628 0 
L 628 4666 
z
" transform="scale(0.015625)"/>
      <path id="DejaVuSans-6c" d="M 603 4863 
L 1178 4863 
L 1178 0 
L 603 0 
L 603 4863 
z
" transform="scale(0.015625)"/>
      <path id="DejaVuSans-2c" d="M 750 794 
L 1409 794 
L 1409 256 
L 897 -744 
L 494 -744 
L 750 256 
L 750 794 
z
" transform="scale(0.015625)"/>
      <path id="DejaVuSans-79" d="M 2059 -325 
Q 1816 -950 1584 -1140 
Q 1353 -1331 966 -1331 
L 506 -1331 
L 506 -850 
L 844 -850 
Q 1081 -850 1212 -737 
Q 1344 -625 1503 -206 
L 1606 56 
L 191 3500 
L 800 3500 
L 1894 763 
L 2988 3500 
L 3597 3500 
L 2059 -325 
z
" transform="scale(0.015625)"/>
      <path id="DejaVuSans-2e" d="M 684 794 
L 1344 794 
L 1344 0 
L 684 0 
L 684 794 
z
" transform="scale(0.015625)"/>
      <path id="DejaVuSans-3a" d="M 750 794 
L 1409 794 
L 1409 0 
L 750 0 
L 750 794 
z
M 750 3309 
L 1409 3309 
L 1409 2516 
L 750 2516 
L 750 3309 
z
" transform="scale(0.015625)"/>
     </defs>
     <use xlink:href="#DejaVuSans-4e"/>
     <use xlink:href="#DejaVuSans-75" x="74.804688"/>
     <use xlink:href="#DejaVuSans-6d" x="138.183594"/>
     <use xlink:href="#DejaVuSans-62" x="235.595703"/>
     <use xlink:href="#DejaVuSans-65" x="299.072266"/>
     <use xlink:href="#DejaVuSans-72" x="360.595703"/>
     <use xlink:href="#DejaVuSans-20" x="401.708984"/>
     <use xlink:href="#DejaVuSans-6f" x="433.496094"/>
     <use xlink:href="#DejaVuSans-66" x="494.677734"/>
     <use xlink:href="#DejaVuSans-20" x="529.882812"/>
     <use xlink:href="#DejaVuSans-41" x="561.669922"/>
     <use xlink:href="#DejaVuSans-45" x="630.078125"/>
     <use xlink:href="#DejaVuSans-44" x="693.261719"/>
     <use xlink:href="#DejaVuSans-73" x="770.263672"/>
     <use xlink:href="#DejaVuSans-20" x="822.363281"/>
     <use xlink:href="#DejaVuSans-69" x="854.150391"/>
     <use xlink:href="#DejaVuSans-6e" x="881.933594"/>
     <use xlink:href="#DejaVuSans-20" x="945.3125"/>
     <use xlink:href="#DejaVuSans-74" x="977.099609"/>
     <use xlink:href="#DejaVuSans-68" x="1016.308594"/>
     <use xlink:href="#DejaVuSans-65" x="1079.6875"/>
     <use xlink:href="#DejaVuSans-20" x="1141.210938"/>
     <use xlink:href="#DejaVuSans-4f" x="1172.998047"/>
     <use xlink:href="#DejaVuSans-70" x="1251.708984"/>
     <use xlink:href="#DejaVuSans-65" x="1315.185547"/>
     <use xlink:href="#DejaVuSans-6e" x="1376.708984"/>
     <use xlink:href="#DejaVuSans-53" x="1440.087891"/>
     <use xlink:href="#DejaVuSans-74" x="1503.564453"/>
     <use xlink:href="#DejaVuSans-72" x="1542.773438"/>
     <use xlink:href="#DejaVuSans-65" x="1581.636719"/>
     <use xlink:href="#DejaVuSans-65" x="1643.160156"/>
     <use xlink:href="#DejaVuSans-74" x="1704.683594"/>
     <use xlink:href="#DejaVuSans-4d" x="1743.892578"/>
     <use xlink:href="#DejaVuSans-61" x="1830.171875"/>
     <use xlink:href="#DejaVuSans-70" x="1891.451172"/>
     <use xlink:href="#DejaVuSans-20" x="1954.927734"/>
     <use xlink:href="#DejaVuSans-64" x="1986.714844"/>
     <use xlink:href="#DejaVuSans-61" x="2050.191406"/>
     <use xlink:href="#DejaVuSans-74" x="2111.470703"/>
     <use xlink:href="#DejaVuSans-61" x="2150.679688"/>
     <use xlink:href="#DejaVuSans-62" x="2211.958984"/>
     <use xlink:href="#DejaVuSans-61" x="2275.435547"/>
     <use xlink:href="#DejaVuSans-73" x="2336.714844"/>
     <use xlink:href="#DejaVuSans-65" x="2388.814453"/>
     <use xlink:href="#DejaVuSans-20" x="2450.337891"/>
     <use xlink:href="#DejaVuSans-69" x="2482.125"/>
     <use xlink:href="#DejaVuSans-6e" x="2509.908203"/>
     <use xlink:href="#DejaVuSans-20" x="2573.287109"/>
     <use xlink:href="#DejaVuSans-50" x="2605.074219"/>
     <use xlink:href="#DejaVuSans-6f" x="2661.751953"/>
     <use xlink:href="#DejaVuSans-6c" x="2722.933594"/>
     <use xlink:href="#DejaVuSans-61" x="2750.716797"/>
     <use xlink:href="#DejaVuSans-6e" x="2811.996094"/>
     <use xlink:href="#DejaVuSans-64" x="2875.375"/>
     <use xlink:href="#DejaVuSans-20" x="2938.851562"/>
     <use xlink:href="#DejaVuSans-66" x="2970.638672"/>
     <use xlink:href="#DejaVuSans-72" x="3005.84375"/>
     <use xlink:href="#DejaVuSans-6f" x="3044.707031"/>
     <use xlink:href="#DejaVuSans-6d" x="3105.888672"/>
     <use xlink:href="#DejaVuSans-20" x="3203.300781"/>
     <use xlink:href="#DejaVuSans-32" x="3235.087891"/>
     <use xlink:href="#DejaVuSans-30" x="3298.710938"/>
     <use xlink:href="#DejaVuSans-32" x="3362.333984"/>
     <use xlink:href="#DejaVuSans-32" x="3425.957031"/>
     <use xlink:href="#DejaVuSans-2d" x="3489.580078"/>
     <use xlink:href="#DejaVuSans-30" x="3525.664062"/>
     <use xlink:href="#DejaVuSans-31" x="3589.287109"/>
     <use xlink:href="#DejaVuSans-2d" x="3652.910156"/>
     <use xlink:href="#DejaVuSans-30" x="3688.994141"/>
     <use xlink:href="#DejaVuSans-31" x="3752.617188"/>
     <use xlink:href="#DejaVuSans-2c" x="3816.240234"/>
     <use xlink:href="#DejaVuSans-20" x="3848.027344"/>
     <use xlink:href="#DejaVuSans-64" x="3879.814453"/>
     <use xlink:href="#DejaVuSans-61" x="3943.291016"/>
     <use xlink:href="#DejaVuSans-79" x="4004.570312"/>
     <use xlink:href="#DejaVuSans-20" x="4063.75"/>
     <use xlink:href="#DejaVuSans-62" x="4095.537109"/>
     <use xlink:href="#DejaVuSans-79" x="4159.013672"/>
     <use xlink:href="#DejaVuSans-20" x="4218.193359"/>
     <use xlink:href="#DejaVuSans-64" x="4249.980469"/>
     <use xlink:href="#DejaVuSans-61" x="4313.457031"/>
     <use xlink:href="#DejaVuSans-79" x="4374.736328"/>
     <use xlink:href="#DejaVuSans-2e" x="4419.666016"/>
     <use xlink:href="#DejaVuSans-20" x="4451.453125"/>
     <use xlink:href="#DejaVuSans-41" x="4483.240234"/>
     <use xlink:href="#DejaVuSans-73" x="4551.648438"/>
     <use xlink:href="#DejaVuSans-20" x="4603.748047"/>
     <use xlink:href="#DejaVuSans-61" x="4635.535156"/>
     <use xlink:href="#DejaVuSans-74" x="4696.814453"/>
     <use xlink:href="#DejaVuSans-3a" x="4736.023438"/>
     <use xlink:href="#DejaVuSans-20" x="4769.714844"/>
     <use xlink:href="#DejaVuSans-32" x="4801.501953"/>
     <use xlink:href="#DejaVuSans-30" x="4865.125"/>
     <use xlink:href="#DejaVuSans-32" x="4928.748047"/>
     <use xlink:href="#DejaVuSans-32" x="4992.371094"/>
     <use xlink:href="#DejaVuSans-2d" x="5055.994141"/>
     <use xlink:href="#DejaVuSans-30" x="5092.078125"/>
     <use xlink:href="#DejaVuSans-34" x="5155.701172"/>
     <use xlink:href="#DejaVuSans-2d" x="5219.324219"/>
     <use xlink:href="#DejaVuSans-30" x="5255.408203"/>
     <use xlink:href="#DejaVuSans-33" x="5319.03125"/>
    </g>
   </g>
  </g>
 </g>
 <defs>
  <clipPath id="peb30d373e3">
   <rect x="144" y="69.12" width="892.8" height="443.52"/>
  </clipPath>
 </defs>
</svg>
