<?xml version="1.0" encoding="utf-8" standalone="no"?>
<!DOCTYPE svg PUBLIC "-//W3C//DTD SVG 1.1//EN"
  "http://www.w3.org/Graphics/SVG/1.1/DTD/svg11.dtd">
<svg xmlns:xlink="http://www.w3.org/1999/xlink" width="1152pt" height="576pt" viewBox="0 0 1152 576" xmlns="http://www.w3.org/2000/svg" version="1.1">
 <metadata>
  <rdf:RDF xmlns:dc="http://purl.org/dc/elements/1.1/" xmlns:cc="http://creativecommons.org/ns#" xmlns:rdf="http://www.w3.org/1999/02/22-rdf-syntax-ns#">
   <cc:Work>
    <dc:type rdf:resource="http://purl.org/dc/dcmitype/StillImage"/>
    <dc:date>1980-01-01T00:00:00+00:00</dc:date>
    <dc:format>image/svg+xml</dc:format>
    <dc:creator>
     <cc:Agent>
      <dc:title>Matplotlib v3.9.1, https://matplotlib.org/</dc:title>
     </cc:Agent>
    </dc:creator>
   </cc:Work>
  </rdf:RDF>
 </metadata>
 <defs>
  <style type="text/css">*{stroke-linejoin: round; stroke-linecap: butt}</style>
 </defs>
 <g id="figure_1">
  <g id="patch_1">
   <path d="M 0 576 
L 1152 576 
L 1152 0 
L 0 0 
z
" style="fill: #ffffff"/>
  </g>
  <g id="axes_1">
   <g id="patch_2">
    <path d="M 144 512.64 
L 1036.8 512.64 
L 1036.8 69.12 
L 144 69.12 
z
" style="fill: #ffffff"/>
   </g>
   <g id="PathCollection_1">
    <path d="M 184.581818 496.352983 
C 185.608945 496.352983 186.594142 495.944901 187.320431 495.218613 
C 188.04672 494.492324 188.454802 493.507127 188.454802 492.48 
C 188.454802 491.452873 188.04672 490.467676 187.320431 489.741387 
C 186.594142 489.015099 185.608945 488.607017 184.581818 488.607017 
C 183.554691 488.607017 182.569494 489.015099 181.843205 489.741387 
C 181.116917 490.467676 180.708835 491.452873 180.708835 492.48 
C 180.708835 493.507127 181.116917 494.492324 181.843205 495.218613 
C 182.569494 495.944901 183.554691 496.352983 184.581818 496.352983 
z
" clip-path="url(#p5f0e4bd033)" style="fill: #1f77b4; fill-opacity: 0.3; stroke: #1f77b4; stroke-opacity: 0.3"/>
    <path d="M 193.500899 495.828805 
C 195.229812 495.828805 196.888145 495.1419 198.110671 493.919374 
C 199.333197 492.696849 200.020102 491.038515 200.020102 489.309602 
C 200.020102 487.58069 199.333197 485.922356 198.110671 484.69983 
C 196.888145 483.477304 195.229812 482.7904 193.500899 482.7904 
C 191.771986 482.7904 190.113653 483.477304 188.891127 484.69983 
C 187.668601 485.922356 186.981697 487.58069 186.981697 489.309602 
C 186.981697 491.038515 187.668601 492.696849 188.891127 493.919374 
C 190.113653 495.1419 191.771986 495.828805 193.500899 495.828805 
z
" clip-path="url(#p5f0e4bd033)" style="fill: #1f77b4; fill-opacity: 0.3; stroke: #1f77b4; stroke-opacity: 0.3"/>
    <path d="M 202.41998 492.454371 
C 204.638828 492.454371 206.767097 491.572813 208.33606 490.00385 
C 209.905023 488.434888 210.78658 486.306619 210.78658 484.087771 
C 210.78658 481.868922 209.905023 479.740653 208.33606 478.171691 
C 206.767097 476.602728 204.638828 475.72117 202.41998 475.72117 
C 200.201132 475.72117 198.072863 476.602728 196.5039 478.171691 
C 194.934938 479.740653 194.05338 481.868922 194.05338 484.087771 
C 194.05338 486.306619 194.934938 488.434888 196.5039 490.00385 
C 198.072863 491.572813 200.201132 492.454371 202.41998 492.454371 
z
" clip-path="url(#p5f0e4bd033)" style="fill: #1f77b4; fill-opacity: 0.3; stroke: #1f77b4; stroke-opacity: 0.3"/>
    <path d="M 211.339061 487.280381 
C 212.729798 487.280381 214.063761 486.727835 215.04716 485.744436 
C 216.03056 484.761037 216.583105 483.427074 216.583105 482.036337 
C 216.583105 480.6456 216.03056 479.311637 215.04716 478.328237 
C 214.063761 477.344838 212.729798 476.792292 211.339061 476.792292 
C 209.948324 476.792292 208.614361 477.344838 207.630962 478.328237 
C 206.647562 479.311637 206.095017 480.6456 206.095017 482.036337 
C 206.095017 483.427074 206.647562 484.761037 207.630962 485.744436 
C 208.614361 486.727835 209.948324 487.280381 211.339061 487.280381 
z
" clip-path="url(#p5f0e4bd033)" style="fill: #1f77b4; fill-opacity: 0.3; stroke: #1f77b4; stroke-opacity: 0.3"/>
    <path d="M 220.258142 484.639401 
C 221.195776 484.639401 222.095134 484.266875 222.758142 483.603867 
C 223.42115 482.940859 223.793676 482.041501 223.793676 481.103867 
C 223.793676 480.166232 223.42115 479.266875 222.758142 478.603867 
C 222.095134 477.940859 221.195776 477.568333 220.258142 477.568333 
C 219.320507 477.568333 218.42115 477.940859 217.758142 478.603867 
C 217.095134 479.266875 216.722608 480.166232 216.722608 481.103867 
C 216.722608 482.041501 217.095134 482.940859 217.758142 483.603867 
C 218.42115 484.266875 219.320507 484.639401 220.258142 484.639401 
z
" clip-path="url(#p5f0e4bd033)" style="fill: #1f77b4; fill-opacity: 0.3; stroke: #1f77b4; stroke-opacity: 0.3"/>
    <path d="M 229.177223 484.452671 
C 230.906135 484.452671 232.564469 483.765767 233.786995 482.543241 
C 235.009521 481.320715 235.696425 479.662382 235.696425 477.933469 
C 235.696425 476.204556 235.009521 474.546223 233.786995 473.323697 
C 232.564469 472.101171 230.906135 471.414267 229.177223 471.414267 
C 227.44831 471.414267 225.789976 472.101171 224.567451 473.323697 
C 223.344925 474.546223 222.65802 476.204556 222.65802 477.933469 
C 222.65802 479.662382 223.344925 481.320715 224.567451 482.543241 
C 225.789976 483.765767 227.44831 484.452671 229.177223 484.452671 
z
" clip-path="url(#p5f0e4bd033)" style="fill: #1f77b4; fill-opacity: 0.3; stroke: #1f77b4; stroke-opacity: 0.3"/>
    <path d="M 238.096304 481.259784 
C 239.720334 481.259784 241.278068 480.614549 242.426431 479.466186 
C 243.574794 478.317823 244.220028 476.76009 244.220028 475.136059 
C 244.220028 473.512029 243.574794 471.954295 242.426431 470.805932 
C 241.278068 469.657569 239.720334 469.012335 238.096304 469.012335 
C 236.472273 469.012335 234.91454 469.657569 233.766177 470.805932 
C 232.617814 471.954295 231.972579 473.512029 231.972579 475.136059 
C 231.972579 476.76009 232.617814 478.317823 233.766177 479.466186 
C 234.91454 480.614549 236.472273 481.259784 238.096304 481.259784 
z
" clip-path="url(#p5f0e4bd033)" style="fill: #1f77b4; fill-opacity: 0.3; stroke: #1f77b4; stroke-opacity: 0.3"/>
    <path d="M 247.015385 477.737003 
C 249.634055 477.737003 252.145825 476.696594 253.997505 474.844914 
C 255.849185 472.993234 256.889593 470.481465 256.889593 467.862794 
C 256.889593 465.244123 255.849185 462.732354 253.997505 460.880674 
C 252.145825 459.028994 249.634055 457.988585 247.015385 457.988585 
C 244.396714 457.988585 241.884944 459.028994 240.033265 460.880674 
C 238.181585 462.732354 237.141176 465.244123 237.141176 467.862794 
C 237.141176 470.481465 238.181585 472.993234 240.033265 474.844914 
C 241.884944 476.696594 244.396714 477.737003 247.015385 477.737003 
z
" clip-path="url(#p5f0e4bd033)" style="fill: #1f77b4; fill-opacity: 0.3; stroke: #1f77b4; stroke-opacity: 0.3"/>
    <path d="M 255.934466 471.211432 
C 257.762252 471.211432 259.515423 470.485245 260.807863 469.192805 
C 262.100303 467.900365 262.82649 466.147194 262.82649 464.319408 
C 262.82649 462.491622 262.100303 460.738451 260.807863 459.446011 
C 259.515423 458.153571 257.762252 457.427384 255.934466 457.427384 
C 254.106679 457.427384 252.353508 458.153571 251.061068 459.446011 
C 249.768628 460.738451 249.042441 462.491622 249.042441 464.319408 
C 249.042441 466.147194 249.768628 467.900365 251.061068 469.192805 
C 252.353508 470.485245 254.106679 471.211432 255.934466 471.211432 
z
" clip-path="url(#p5f0e4bd033)" style="fill: #1f77b4; fill-opacity: 0.3; stroke: #1f77b4; stroke-opacity: 0.3"/>
    <path d="M 264.853546 467.384379 
C 266.111515 467.384379 267.31813 466.884582 268.207648 465.995064 
C 269.097167 465.105546 269.596963 463.898931 269.596963 462.640962 
C 269.596963 461.382993 269.097167 460.176378 268.207648 459.28686 
C 267.31813 458.397342 266.111515 457.897546 264.853546 457.897546 
C 263.595578 457.897546 262.388963 458.397342 261.499444 459.28686 
C 260.609926 460.176378 260.11013 461.382993 260.11013 462.640962 
C 260.11013 463.898931 260.609926 465.105546 261.499444 465.995064 
C 262.388963 466.884582 263.595578 467.384379 264.853546 467.384379 
z
" clip-path="url(#p5f0e4bd033)" style="fill: #1f77b4; fill-opacity: 0.3; stroke: #1f77b4; stroke-opacity: 0.3"/>
    <path d="M 273.772627 464.504042 
C 274.36564 464.504042 274.934443 464.268436 275.353766 463.849113 
C 275.773089 463.42979 276.008695 462.860986 276.008695 462.267974 
C 276.008695 461.674962 275.773089 461.106158 275.353766 460.686835 
C 274.934443 460.267512 274.36564 460.031906 273.772627 460.031906 
C 273.179615 460.031906 272.610811 460.267512 272.191489 460.686835 
C 271.772166 461.106158 271.536559 461.674962 271.536559 462.267974 
C 271.536559 462.860986 271.772166 463.42979 272.191489 463.849113 
C 272.610811 464.268436 273.179615 464.504042 273.772627 464.504042 
z
" clip-path="url(#p5f0e4bd033)" style="fill: #1f77b4; fill-opacity: 0.3; stroke: #1f77b4; stroke-opacity: 0.3"/>
    <path d="M 282.691708 464.927997 
C 285.276588 464.927997 287.755946 463.901013 289.583733 462.073227 
C 291.411519 460.245441 292.438503 457.766083 292.438503 455.181203 
C 292.438503 452.596323 291.411519 450.116964 289.583733 448.289178 
C 287.755946 446.461392 285.276588 445.434408 282.691708 445.434408 
C 280.106828 445.434408 277.62747 446.461392 275.799684 448.289178 
C 273.971898 450.116964 272.944914 452.596323 272.944914 455.181203 
C 272.944914 457.766083 273.971898 460.245441 275.799684 462.073227 
C 277.62747 463.901013 280.106828 464.927997 282.691708 464.927997 
z
" clip-path="url(#p5f0e4bd033)" style="fill: #1f77b4; fill-opacity: 0.3; stroke: #1f77b4; stroke-opacity: 0.3"/>
    <path d="M 291.610789 458.424547 
C 293.707404 458.424547 295.718429 457.591553 297.200959 456.109023 
C 298.68349 454.626492 299.516483 452.615468 299.516483 450.518853 
C 299.516483 448.422238 298.68349 446.411213 297.200959 444.928683 
C 295.718429 443.446153 293.707404 442.613159 291.610789 442.613159 
C 289.514175 442.613159 287.50315 443.446153 286.020619 444.928683 
C 284.538089 446.411213 283.705095 448.422238 283.705095 450.518853 
C 283.705095 452.615468 284.538089 454.626492 286.020619 456.109023 
C 287.50315 457.591553 289.514175 458.424547 291.610789 458.424547 
z
" clip-path="url(#p5f0e4bd033)" style="fill: #1f77b4; fill-opacity: 0.3; stroke: #1f77b4; stroke-opacity: 0.3"/>
    <path d="M 300.52987 453.795308 
C 302.04176 453.795308 303.491931 453.194628 304.560999 452.12556 
C 305.630067 451.056492 306.230747 449.606321 306.230747 448.094431 
C 306.230747 446.582541 305.630067 445.13237 304.560999 444.063302 
C 303.491931 442.994234 302.04176 442.393554 300.52987 442.393554 
C 299.01798 442.393554 297.567809 442.994234 296.498741 444.063302 
C 295.429673 445.13237 294.828993 446.582541 294.828993 448.094431 
C 294.828993 449.606321 295.429673 451.056492 296.498741 452.12556 
C 297.567809 453.194628 299.01798 453.795308 300.52987 453.795308 
z
" clip-path="url(#p5f0e4bd033)" style="fill: #1f77b4; fill-opacity: 0.3; stroke: #1f77b4; stroke-opacity: 0.3"/>
    <path d="M 309.448951 451.070895 
C 311.821 451.070895 314.096215 450.12847 315.773506 448.451179 
C 317.450798 446.773887 318.393223 444.498672 318.393223 442.126623 
C 318.393223 439.754575 317.450798 437.47936 315.773506 435.802068 
C 314.096215 434.124776 311.821 433.182352 309.448951 433.182352 
C 307.076902 433.182352 304.801687 434.124776 303.124396 435.802068 
C 301.447104 437.47936 300.504679 439.754575 300.504679 442.126623 
C 300.504679 444.498672 301.447104 446.773887 303.124396 448.451179 
C 304.801687 450.12847 307.076902 451.070895 309.448951 451.070895 
z
" clip-path="url(#p5f0e4bd033)" style="fill: #1f77b4; fill-opacity: 0.3; stroke: #1f77b4; stroke-opacity: 0.3"/>
    <path d="M 318.368032 444.475603 
C 321.117716 444.475603 323.755151 443.383142 325.699471 441.438821 
C 327.643792 439.494501 328.736253 436.857066 328.736253 434.107382 
C 328.736253 431.357698 327.643792 428.720263 325.699471 426.775943 
C 323.755151 424.831623 321.117716 423.739161 318.368032 423.739161 
C 315.618348 423.739161 312.980913 424.831623 311.036593 426.775943 
C 309.092272 428.720263 307.999811 431.357698 307.999811 434.107382 
C 307.999811 436.857066 309.092272 439.494501 311.036593 441.438821 
C 312.980913 443.383142 315.618348 444.475603 318.368032 444.475603 
z
" clip-path="url(#p5f0e4bd033)" style="fill: #1f77b4; fill-opacity: 0.3; stroke: #1f77b4; stroke-opacity: 0.3"/>
    <path d="M 327.287113 436.523684 
C 328.125759 436.523684 328.930169 436.190486 329.523181 435.597474 
C 330.116193 435.004462 330.449391 434.200052 330.449391 433.361406 
C 330.449391 432.52276 330.116193 431.71835 329.523181 431.125338 
C 328.930169 430.532326 328.125759 430.199128 327.287113 430.199128 
C 326.448467 430.199128 325.644057 430.532326 325.051045 431.125338 
C 324.458033 431.71835 324.124835 432.52276 324.124835 433.361406 
C 324.124835 434.200052 324.458033 435.004462 325.051045 435.597474 
C 325.644057 436.190486 326.448467 436.523684 327.287113 436.523684 
z
" clip-path="url(#p5f0e4bd033)" style="fill: #1f77b4; fill-opacity: 0.3; stroke: #1f77b4; stroke-opacity: 0.3"/>
    <path d="M 336.206194 436.554016 
C 337.596931 436.554016 338.930894 436.001471 339.914293 435.018071 
C 340.897692 434.034672 341.450238 432.700709 341.450238 431.309972 
C 341.450238 429.919235 340.897692 428.585272 339.914293 427.601873 
C 338.930894 426.618474 337.596931 426.065928 336.206194 426.065928 
C 334.815457 426.065928 333.481494 426.618474 332.498095 427.601873 
C 331.514695 428.585272 330.96215 429.919235 330.96215 431.309972 
C 330.96215 432.700709 331.514695 434.034672 332.498095 435.018071 
C 333.481494 436.001471 334.815457 436.554016 336.206194 436.554016 
z
" clip-path="url(#p5f0e4bd033)" style="fill: #1f77b4; fill-opacity: 0.3; stroke: #1f77b4; stroke-opacity: 0.3"/>
    <path d="M 345.125275 434.490473 
C 347.304141 434.490473 349.394059 433.6248 350.93475 432.08411 
C 352.475441 430.543419 353.341113 428.4535 353.341113 426.274635 
C 353.341113 424.095769 352.475441 422.00585 350.93475 420.46516 
C 349.394059 418.924469 347.304141 418.058796 345.125275 418.058796 
C 342.946409 418.058796 340.85649 418.924469 339.3158 420.46516 
C 337.775109 422.00585 336.909436 424.095769 336.909436 426.274635 
C 336.909436 428.4535 337.775109 430.543419 339.3158 432.08411 
C 340.85649 433.6248 342.946409 434.490473 345.125275 434.490473 
z
" clip-path="url(#p5f0e4bd033)" style="fill: #1f77b4; fill-opacity: 0.3; stroke: #1f77b4; stroke-opacity: 0.3"/>
    <path d="M 354.044356 429.513932 
C 355.496933 429.513932 356.890212 428.936817 357.917339 427.90969 
C 358.944466 426.882563 359.521581 425.489284 359.521581 424.036707 
C 359.521581 422.58413 358.944466 421.190851 357.917339 420.163723 
C 356.890212 419.136596 355.496933 418.559481 354.044356 418.559481 
C 352.591778 418.559481 351.198499 419.136596 350.171372 420.163723 
C 349.144245 421.190851 348.56713 422.58413 348.56713 424.036707 
C 348.56713 425.489284 349.144245 426.882563 350.171372 427.90969 
C 351.198499 428.936817 352.591778 429.513932 354.044356 429.513932 
z
" clip-path="url(#p5f0e4bd033)" style="fill: #1f77b4; fill-opacity: 0.3; stroke: #1f77b4; stroke-opacity: 0.3"/>
    <path d="M 362.963437 425.892347 
C 365.928497 425.892347 368.772516 424.714316 370.869131 422.617702 
C 372.965745 420.521087 374.143776 417.677068 374.143776 414.712007 
C 374.143776 411.746947 372.965745 408.902928 370.869131 406.806313 
C 368.772516 404.709699 365.928497 403.531668 362.963437 403.531668 
C 359.998376 403.531668 357.154357 404.709699 355.057742 406.806313 
C 352.961128 408.902928 351.783097 411.746947 351.783097 414.712007 
C 351.783097 417.677068 352.961128 420.521087 355.057742 422.617702 
C 357.154357 424.714316 359.998376 425.892347 362.963437 425.892347 
z
" clip-path="url(#p5f0e4bd033)" style="fill: #1f77b4; fill-opacity: 0.3; stroke: #1f77b4; stroke-opacity: 0.3"/>
    <path d="M 371.882517 417.892508 
C 374.061383 417.892508 376.151302 417.026836 377.691993 415.486145 
C 379.232683 413.945454 380.098356 411.855536 380.098356 409.67667 
C 380.098356 407.497804 379.232683 405.407886 377.691993 403.867195 
C 376.151302 402.326504 374.061383 401.460831 371.882517 401.460831 
C 369.703652 401.460831 367.613733 402.326504 366.073042 403.867195 
C 364.532352 405.407886 363.666679 407.497804 363.666679 409.67667 
C 363.666679 411.855536 364.532352 413.945454 366.073042 415.486145 
C 367.613733 417.026836 369.703652 417.892508 371.882517 417.892508 
z
" clip-path="url(#p5f0e4bd033)" style="fill: #1f77b4; fill-opacity: 0.3; stroke: #1f77b4; stroke-opacity: 0.3"/>
    <path d="M 380.801598 412.946781 
C 382.855853 412.946781 384.826247 412.130617 386.278824 410.67804 
C 387.731401 409.225462 388.547565 407.255068 388.547565 405.200814 
C 388.547565 403.14656 387.731401 401.176166 386.278824 399.723588 
C 384.826247 398.271011 382.855853 397.454847 380.801598 397.454847 
C 378.747344 397.454847 376.77695 398.271011 375.324373 399.723588 
C 373.871796 401.176166 373.055632 403.14656 373.055632 405.200814 
C 373.055632 407.255068 373.871796 409.225462 375.324373 410.67804 
C 376.77695 412.130617 378.747344 412.946781 380.801598 412.946781 
z
" clip-path="url(#p5f0e4bd033)" style="fill: #1f77b4; fill-opacity: 0.3; stroke: #1f77b4; stroke-opacity: 0.3"/>
    <path d="M 389.720679 408.307182 
C 391.978802 408.307182 394.144743 407.41002 395.741477 405.813286 
C 397.338211 404.216552 398.235373 402.050611 398.235373 399.792488 
C 398.235373 397.534365 397.338211 395.368425 395.741477 393.771691 
C 394.144743 392.174957 391.978802 391.277795 389.720679 391.277795 
C 387.462556 391.277795 385.296616 392.174957 383.699882 393.771691 
C 382.103148 395.368425 381.205986 397.534365 381.205986 399.792488 
C 381.205986 402.050611 382.103148 404.216552 383.699882 405.813286 
C 385.296616 407.41002 387.462556 408.307182 389.720679 408.307182 
z
" clip-path="url(#p5f0e4bd033)" style="fill: #1f77b4; fill-opacity: 0.3; stroke: #1f77b4; stroke-opacity: 0.3"/>
    <path d="M 398.63976 402.20879 
C 399.478406 402.20879 400.282816 401.875593 400.875828 401.28258 
C 401.46884 400.689568 401.802038 399.885158 401.802038 399.046512 
C 401.802038 398.207867 401.46884 397.403457 400.875828 396.810445 
C 400.282816 396.217432 399.478406 395.884235 398.63976 395.884235 
C 397.801114 395.884235 396.996704 396.217432 396.403692 396.810445 
C 395.81068 397.403457 395.477483 398.207867 395.477483 399.046512 
C 395.477483 399.885158 395.81068 400.689568 396.403692 401.28258 
C 396.996704 401.875593 397.801114 402.20879 398.63976 402.20879 
z
" clip-path="url(#p5f0e4bd033)" style="fill: #1f77b4; fill-opacity: 0.3; stroke: #1f77b4; stroke-opacity: 0.3"/>
    <path d="M 407.558841 401.462814 
C 408.397487 401.462814 409.201897 401.129617 409.794909 400.536605 
C 410.387921 399.943592 410.721119 399.139182 410.721119 398.300537 
C 410.721119 397.461891 410.387921 396.657481 409.794909 396.064469 
C 409.201897 395.471456 408.397487 395.138259 407.558841 395.138259 
C 406.720195 395.138259 405.915785 395.471456 405.322773 396.064469 
C 404.729761 396.657481 404.396563 397.461891 404.396563 398.300537 
C 404.396563 399.139182 404.729761 399.943592 405.322773 400.536605 
C 405.915785 401.129617 406.720195 401.462814 407.558841 401.462814 
z
" clip-path="url(#p5f0e4bd033)" style="fill: #1f77b4; fill-opacity: 0.3; stroke: #1f77b4; stroke-opacity: 0.3"/>
    <path d="M 416.477922 401.073586 
C 418.99386 401.073586 421.40709 400.073993 423.186126 398.294957 
C 424.965162 396.51592 425.964755 394.102691 425.964755 391.586753 
C 425.964755 389.070815 424.965162 386.657586 423.186126 384.878549 
C 421.40709 383.099513 418.99386 382.09992 416.477922 382.09992 
C 413.961985 382.09992 411.548755 383.099513 409.769718 384.878549 
C 407.990682 386.657586 406.991089 389.070815 406.991089 391.586753 
C 406.991089 394.102691 407.990682 396.51592 409.769718 398.294957 
C 411.548755 400.073993 413.961985 401.073586 416.477922 401.073586 
z
" clip-path="url(#p5f0e4bd033)" style="fill: #1f77b4; fill-opacity: 0.3; stroke: #1f77b4; stroke-opacity: 0.3"/>
    <path d="M 425.397003 393.442394 
C 428.362064 393.442394 431.206083 392.264362 433.302697 390.167748 
C 435.399312 388.071133 436.577343 385.227114 436.577343 382.262054 
C 436.577343 379.296993 435.399312 376.452974 433.302697 374.35636 
C 431.206083 372.259745 428.362064 371.081714 425.397003 371.081714 
C 422.431942 371.081714 419.587923 372.259745 417.491309 374.35636 
C 415.394694 376.452974 414.216663 379.296993 414.216663 382.262054 
C 414.216663 385.227114 415.394694 388.071133 417.491309 390.167748 
C 419.587923 392.264362 422.431942 393.442394 425.397003 393.442394 
z
" clip-path="url(#p5f0e4bd033)" style="fill: #1f77b4; fill-opacity: 0.3; stroke: #1f77b4; stroke-opacity: 0.3"/>
    <path d="M 434.316084 385.238518 
C 436.688133 385.238518 438.963348 384.296093 440.640639 382.618801 
C 442.317931 380.94151 443.260356 378.666295 443.260356 376.294246 
C 443.260356 373.922197 442.317931 371.646982 440.640639 369.969691 
C 438.963348 368.292399 436.688133 367.349974 434.316084 367.349974 
C 431.944035 367.349974 429.66882 368.292399 427.991529 369.969691 
C 426.314237 371.646982 425.371812 373.922197 425.371812 376.294246 
C 425.371812 378.666295 426.314237 380.94151 427.991529 382.618801 
C 429.66882 384.296093 431.944035 385.238518 434.316084 385.238518 
z
" clip-path="url(#p5f0e4bd033)" style="fill: #1f77b4; fill-opacity: 0.3; stroke: #1f77b4; stroke-opacity: 0.3"/>
    <path d="M 443.235165 379.474747 
C 445.414031 379.474747 447.503949 378.609074 449.04464 377.068383 
C 450.585331 375.527693 451.451003 373.437774 451.451003 371.258908 
C 451.451003 369.080043 450.585331 366.990124 449.04464 365.449433 
C 447.503949 363.908743 445.414031 363.04307 443.235165 363.04307 
C 441.056299 363.04307 438.966381 363.908743 437.42569 365.449433 
C 435.884999 366.990124 435.019326 369.080043 435.019326 371.258908 
C 435.019326 373.437774 435.884999 375.527693 437.42569 377.068383 
C 438.966381 378.609074 441.056299 379.474747 443.235165 379.474747 
z
" clip-path="url(#p5f0e4bd033)" style="fill: #1f77b4; fill-opacity: 0.3; stroke: #1f77b4; stroke-opacity: 0.3"/>
    <path d="M 452.154246 373.67521 
C 452.992892 373.67521 453.797302 373.342013 454.390314 372.749 
C 454.983326 372.155988 455.316523 371.351578 455.316523 370.512932 
C 455.316523 369.674287 454.983326 368.869877 454.390314 368.276864 
C 453.797302 367.683852 452.992892 367.350655 452.154246 367.350655 
C 451.3156 367.350655 450.51119 367.683852 449.918178 368.276864 
C 449.325166 368.869877 448.991968 369.674287 448.991968 370.512932 
C 448.991968 371.351578 449.325166 372.155988 449.918178 372.749 
C 450.51119 373.342013 451.3156 373.67521 452.154246 373.67521 
z
" clip-path="url(#p5f0e4bd033)" style="fill: #1f77b4; fill-opacity: 0.3; stroke: #1f77b4; stroke-opacity: 0.3"/>
    <path d="M 461.073327 373.705543 
C 462.464063 373.705543 463.798027 373.152997 464.781426 372.169598 
C 465.764825 371.186198 466.317371 369.852235 466.317371 368.461499 
C 466.317371 367.070762 465.764825 365.736799 464.781426 364.753399 
C 463.798027 363.77 462.464063 363.217454 461.073327 363.217454 
C 459.68259 363.217454 458.348627 363.77 457.365227 364.753399 
C 456.381828 365.736799 455.829282 367.070762 455.829282 368.461499 
C 455.829282 369.852235 456.381828 371.186198 457.365227 372.169598 
C 458.348627 373.152997 459.68259 373.705543 461.073327 373.705543 
z
" clip-path="url(#p5f0e4bd033)" style="fill: #1f77b4; fill-opacity: 0.3; stroke: #1f77b4; stroke-opacity: 0.3"/>
    <path d="M 469.992408 371.802687 
C 471.867677 371.802687 473.666392 371.057634 474.992408 369.731619 
C 476.318423 368.405603 477.063475 366.606888 477.063475 364.731619 
C 477.063475 362.85635 476.318423 361.057634 474.992408 359.731619 
C 473.666392 358.405603 471.867677 357.660551 469.992408 357.660551 
C 468.117138 357.660551 466.318423 358.405603 464.992408 359.731619 
C 463.666392 361.057634 462.92134 362.85635 462.92134 364.731619 
C 462.92134 366.606888 463.666392 368.405603 464.992408 369.731619 
C 466.318423 371.057634 468.117138 371.802687 469.992408 371.802687 
z
" clip-path="url(#p5f0e4bd033)" style="fill: #1f77b4; fill-opacity: 0.3; stroke: #1f77b4; stroke-opacity: 0.3"/>
    <path d="M 478.911489 368.00173 
C 480.965743 368.00173 482.936137 367.185566 484.388714 365.732989 
C 485.841291 364.280412 486.657455 362.310018 486.657455 360.255763 
C 486.657455 358.201509 485.841291 356.231115 484.388714 354.778538 
C 482.936137 353.32596 480.965743 352.509796 478.911489 352.509796 
C 476.857234 352.509796 474.88684 353.32596 473.434263 354.778538 
C 471.981686 356.231115 471.165522 358.201509 471.165522 360.255763 
C 471.165522 362.310018 471.981686 364.280412 473.434263 365.732989 
C 474.88684 367.185566 476.857234 368.00173 478.911489 368.00173 
z
" clip-path="url(#p5f0e4bd033)" style="fill: #1f77b4; fill-opacity: 0.3; stroke: #1f77b4; stroke-opacity: 0.3"/>
    <path d="M 487.830569 363.235947 
C 489.016594 363.235947 490.154201 362.764735 490.992847 361.926089 
C 491.831493 361.087443 492.302705 359.949836 492.302705 358.763811 
C 492.302705 357.577787 491.831493 356.440179 490.992847 355.601534 
C 490.154201 354.762888 489.016594 354.291675 487.830569 354.291675 
C 486.644545 354.291675 485.506938 354.762888 484.668292 355.601534 
C 483.829646 356.440179 483.358433 357.577787 483.358433 358.763811 
C 483.358433 359.949836 483.829646 361.087443 484.668292 361.926089 
C 485.506938 362.764735 486.644545 363.235947 487.830569 363.235947 
z
" clip-path="url(#p5f0e4bd033)" style="fill: #1f77b4; fill-opacity: 0.3; stroke: #1f77b4; stroke-opacity: 0.3"/>
    <path d="M 496.74965 361.90858 
C 498.968499 361.90858 501.096767 361.027022 502.66573 359.458059 
C 504.234693 357.889097 505.116251 355.760828 505.116251 353.54198 
C 505.116251 351.323131 504.234693 349.194863 502.66573 347.6259 
C 501.096767 346.056937 498.968499 345.175379 496.74965 345.175379 
C 494.530802 345.175379 492.402533 346.056937 490.833571 347.6259 
C 489.264608 349.194863 488.38305 351.323131 488.38305 353.54198 
C 488.38305 355.760828 489.264608 357.889097 490.833571 359.458059 
C 492.402533 361.027022 494.530802 361.90858 496.74965 361.90858 
z
" clip-path="url(#p5f0e4bd033)" style="fill: #1f77b4; fill-opacity: 0.3; stroke: #1f77b4; stroke-opacity: 0.3"/>
    <path d="M 505.668731 356.890784 
C 507.397644 356.890784 509.055978 356.20388 510.278503 354.981354 
C 511.501029 353.758828 512.187934 352.100495 512.187934 350.371582 
C 512.187934 348.642669 511.501029 346.984336 510.278503 345.76181 
C 509.055978 344.539284 507.397644 343.852379 505.668731 343.852379 
C 503.939819 343.852379 502.281485 344.539284 501.058959 345.76181 
C 499.836433 346.984336 499.149529 348.642669 499.149529 350.371582 
C 499.149529 352.100495 499.836433 353.758828 501.058959 354.981354 
C 502.281485 356.20388 503.939819 356.890784 505.668731 356.890784 
z
" clip-path="url(#p5f0e4bd033)" style="fill: #1f77b4; fill-opacity: 0.3; stroke: #1f77b4; stroke-opacity: 0.3"/>
    <path d="M 514.587812 353.564192 
C 515.978549 353.564192 517.312512 353.011647 518.295911 352.028247 
C 519.279311 351.044848 519.831856 349.710885 519.831856 348.320148 
C 519.831856 346.929411 519.279311 345.595448 518.295911 344.612049 
C 517.312512 343.628649 515.978549 343.076104 514.587812 343.076104 
C 513.197075 343.076104 511.863112 343.628649 510.879713 344.612049 
C 509.896314 345.595448 509.343768 346.929411 509.343768 348.320148 
C 509.343768 349.710885 509.896314 351.044848 510.879713 352.028247 
C 511.863112 353.011647 513.197075 353.564192 514.587812 353.564192 
z
" clip-path="url(#p5f0e4bd033)" style="fill: #1f77b4; fill-opacity: 0.3; stroke: #1f77b4; stroke-opacity: 0.3"/>
    <path d="M 523.506893 350.980171 
C 526.091773 350.980171 528.571131 349.953187 530.398917 348.125401 
C 532.226704 346.297615 533.253687 343.818257 533.253687 341.233377 
C 533.253687 338.648496 532.226704 336.169138 530.398917 334.341352 
C 528.571131 332.513566 526.091773 331.486582 523.506893 331.486582 
C 520.922013 331.486582 518.442655 332.513566 516.614869 334.341352 
C 514.787083 336.169138 513.760099 338.648496 513.760099 341.233377 
C 513.760099 343.818257 514.787083 346.297615 516.614869 348.125401 
C 518.442655 349.953187 520.922013 350.980171 523.506893 350.980171 
z
" clip-path="url(#p5f0e4bd033)" style="fill: #1f77b4; fill-opacity: 0.3; stroke: #1f77b4; stroke-opacity: 0.3"/>
    <path d="M 532.425974 344.472674 
C 533.878551 344.472674 535.27183 343.895559 536.298957 342.868432 
C 537.326085 341.841305 537.9032 340.448026 537.9032 338.995449 
C 537.9032 337.542871 537.326085 336.149593 536.298957 335.122465 
C 535.27183 334.095338 533.878551 333.518223 532.425974 333.518223 
C 530.973397 333.518223 529.580118 334.095338 528.552991 335.122465 
C 527.525863 336.149593 526.948748 337.542871 526.948748 338.995449 
C 526.948748 340.448026 527.525863 341.841305 528.552991 342.868432 
C 529.580118 343.895559 530.973397 344.472674 532.425974 344.472674 
z
" clip-path="url(#p5f0e4bd033)" style="fill: #1f77b4; fill-opacity: 0.3; stroke: #1f77b4; stroke-opacity: 0.3"/>
    <path d="M 541.345055 341.874198 
C 543.790107 341.874198 546.135345 340.902768 547.864257 339.173856 
C 549.59317 337.444943 550.564599 335.099705 550.564599 332.654653 
C 550.564599 330.209601 549.59317 327.864363 547.864257 326.135451 
C 546.135345 324.406538 543.790107 323.435109 541.345055 323.435109 
C 538.900003 323.435109 536.554765 324.406538 534.825853 326.135451 
C 533.09694 327.864363 532.12551 330.209601 532.12551 332.654653 
C 532.12551 335.099705 533.09694 337.444943 534.825853 339.173856 
C 536.554765 340.902768 538.900003 341.874198 541.345055 341.874198 
z
" clip-path="url(#p5f0e4bd033)" style="fill: #1f77b4; fill-opacity: 0.3; stroke: #1f77b4; stroke-opacity: 0.3"/>
    <path d="M 550.264136 335.995841 
C 552.139405 335.995841 553.93812 335.250789 555.264136 333.924773 
C 556.590151 332.598758 557.335204 330.800042 557.335204 328.924773 
C 557.335204 327.049504 556.590151 325.250789 555.264136 323.924773 
C 553.93812 322.598758 552.139405 321.853706 550.264136 321.853706 
C 548.388867 321.853706 546.590151 322.598758 545.264136 323.924773 
C 543.93812 325.250789 543.193068 327.049504 543.193068 328.924773 
C 543.193068 330.800042 543.93812 332.598758 545.264136 333.924773 
C 546.590151 335.250789 548.388867 335.995841 550.264136 335.995841 
z
" clip-path="url(#p5f0e4bd033)" style="fill: #1f77b4; fill-opacity: 0.3; stroke: #1f77b4; stroke-opacity: 0.3"/>
    <path d="M 559.183217 332.164071 
C 560.635794 332.164071 562.029073 331.586956 563.0562 330.559829 
C 564.083327 329.532702 564.660442 328.139423 564.660442 326.686846 
C 564.660442 325.234268 564.083327 323.840989 563.0562 322.813862 
C 562.029073 321.786735 560.635794 321.20962 559.183217 321.20962 
C 557.73064 321.20962 556.337361 321.786735 555.310233 322.813862 
C 554.283106 323.840989 553.705991 325.234268 553.705991 326.686846 
C 553.705991 328.139423 554.283106 329.532702 555.310233 330.559829 
C 556.337361 331.586956 557.73064 332.164071 559.183217 332.164071 
z
" clip-path="url(#p5f0e4bd033)" style="fill: #1f77b4; fill-opacity: 0.3; stroke: #1f77b4; stroke-opacity: 0.3"/>
    <path d="M 568.102298 330.028034 
C 569.977567 330.028034 571.776282 329.282981 573.102298 327.956966 
C 574.428313 326.63095 575.173366 324.832235 575.173366 322.956966 
C 575.173366 321.081697 574.428313 319.282981 573.102298 317.956966 
C 571.776282 316.63095 569.977567 315.885898 568.102298 315.885898 
C 566.227029 315.885898 564.428313 316.63095 563.102298 317.956966 
C 561.776282 319.282981 561.03123 321.081697 561.03123 322.956966 
C 561.03123 324.832235 561.776282 326.63095 563.102298 327.956966 
C 564.428313 329.282981 566.227029 330.028034 568.102298 330.028034 
z
" clip-path="url(#p5f0e4bd033)" style="fill: #1f77b4; fill-opacity: 0.3; stroke: #1f77b4; stroke-opacity: 0.3"/>
    <path d="M 577.021379 326.021936 
C 578.279347 326.021936 579.485962 325.52214 580.375481 324.632622 
C 581.264999 323.743104 581.764795 322.536489 581.764795 321.27852 
C 581.764795 320.020551 581.264999 318.813936 580.375481 317.924418 
C 579.485962 317.0349 578.279347 316.535103 577.021379 316.535103 
C 575.76341 316.535103 574.556795 317.0349 573.667277 317.924418 
C 572.777758 318.813936 572.277962 320.020551 572.277962 321.27852 
C 572.277962 322.536489 572.777758 323.743104 573.667277 324.632622 
C 574.556795 325.52214 575.76341 326.021936 577.021379 326.021936 
z
" clip-path="url(#p5f0e4bd033)" style="fill: #1f77b4; fill-opacity: 0.3; stroke: #1f77b4; stroke-opacity: 0.3"/>
    <path d="M 585.94046 323.995934 
C 588.491101 323.995934 590.937619 322.982554 592.741195 321.178978 
C 594.544771 319.375402 595.558152 316.928884 595.558152 314.378242 
C 595.558152 311.827601 594.544771 309.381083 592.741195 307.577507 
C 590.937619 305.773931 588.491101 304.76055 585.94046 304.76055 
C 583.389818 304.76055 580.9433 305.773931 579.139724 307.577507 
C 577.336148 309.381083 576.322768 311.827601 576.322768 314.378242 
C 576.322768 316.928884 577.336148 319.375402 579.139724 321.178978 
C 580.9433 322.982554 583.389818 323.995934 585.94046 323.995934 
z
" clip-path="url(#p5f0e4bd033)" style="fill: #1f77b4; fill-opacity: 0.3; stroke: #1f77b4; stroke-opacity: 0.3"/>
    <path d="M 594.85954 316.380982 
C 597.764695 316.380982 600.551253 315.226752 602.605507 313.172498 
C 604.659762 311.118243 605.813992 308.331685 605.813992 305.426531 
C 605.813992 302.521377 604.659762 299.734819 602.605507 297.680564 
C 600.551253 295.62631 597.764695 294.47208 594.85954 294.47208 
C 591.954386 294.47208 589.167828 295.62631 587.113574 297.680564 
C 585.059319 299.734819 583.905089 302.521377 583.905089 305.426531 
C 583.905089 308.331685 585.059319 311.118243 587.113574 313.172498 
C 589.167828 315.226752 591.954386 316.380982 594.85954 316.380982 
z
" clip-path="url(#p5f0e4bd033)" style="fill: #1f77b4; fill-opacity: 0.3; stroke: #1f77b4; stroke-opacity: 0.3"/>
    <path d="M 603.778621 308.491502 
C 605.03659 308.491502 606.243205 307.991705 607.132723 307.102187 
C 608.022242 306.212669 608.522038 305.006054 608.522038 303.748085 
C 608.522038 302.490116 608.022242 301.283501 607.132723 300.393983 
C 606.243205 299.504465 605.03659 299.004669 603.778621 299.004669 
C 602.520653 299.004669 601.314038 299.504465 600.424519 300.393983 
C 599.535001 301.283501 599.035205 302.490116 599.035205 303.748085 
C 599.035205 305.006054 599.535001 306.212669 600.424519 307.102187 
C 601.314038 307.991705 602.520653 308.491502 603.778621 308.491502 
z
" clip-path="url(#p5f0e4bd033)" style="fill: #1f77b4; fill-opacity: 0.3; stroke: #1f77b4; stroke-opacity: 0.3"/>
    <path d="M 612.697702 307.089273 
C 614.572971 307.089273 616.371687 306.344221 617.697702 305.018205 
C 619.023718 303.69219 619.76877 301.893474 619.76877 300.018205 
C 619.76877 298.142936 619.023718 296.344221 617.697702 295.018205 
C 616.371687 293.69219 614.572971 292.947138 612.697702 292.947138 
C 610.822433 292.947138 609.023718 293.69219 607.697702 295.018205 
C 606.371687 296.344221 605.626634 298.142936 605.626634 300.018205 
C 605.626634 301.893474 606.371687 303.69219 607.697702 305.018205 
C 609.023718 306.344221 610.822433 307.089273 612.697702 307.089273 
z
" clip-path="url(#p5f0e4bd033)" style="fill: #1f77b4; fill-opacity: 0.3; stroke: #1f77b4; stroke-opacity: 0.3"/>
    <path d="M 621.616783 303.359393 
C 623.492052 303.359393 625.290768 302.614341 626.616783 301.288326 
C 627.942799 299.96231 628.687851 298.163595 628.687851 296.288326 
C 628.687851 294.413057 627.942799 292.614341 626.616783 291.288326 
C 625.290768 289.96231 623.492052 289.217258 621.616783 289.217258 
C 619.741514 289.217258 617.942799 289.96231 616.616783 291.288326 
C 615.290768 292.614341 614.545715 294.413057 614.545715 296.288326 
C 614.545715 298.163595 615.290768 299.96231 616.616783 301.288326 
C 617.942799 302.614341 619.741514 303.359393 621.616783 303.359393 
z
" clip-path="url(#p5f0e4bd033)" style="fill: #1f77b4; fill-opacity: 0.3; stroke: #1f77b4; stroke-opacity: 0.3"/>
    <path d="M 630.535864 299.639638 
C 632.314901 299.639638 634.021312 298.932819 635.279281 297.67485 
C 636.537249 296.416882 637.244068 294.71047 637.244068 292.931434 
C 637.244068 291.152397 636.537249 289.445986 635.279281 288.188017 
C 634.021312 286.930049 632.314901 286.22323 630.535864 286.22323 
C 628.756828 286.22323 627.050416 286.930049 625.792448 288.188017 
C 624.534479 289.445986 623.82766 291.152397 623.82766 292.931434 
C 623.82766 294.71047 624.534479 296.416882 625.792448 297.67485 
C 627.050416 298.932819 628.756828 299.639638 630.535864 299.639638 
z
" clip-path="url(#p5f0e4bd033)" style="fill: #1f77b4; fill-opacity: 0.3; stroke: #1f77b4; stroke-opacity: 0.3"/>
    <path d="M 639.454945 296.280072 
C 641.282731 296.280072 643.035902 295.553885 644.328342 294.261445 
C 645.620782 292.969005 646.346969 291.215834 646.346969 289.388048 
C 646.346969 287.560262 645.620782 285.807091 644.328342 284.514651 
C 643.035902 283.222211 641.282731 282.496024 639.454945 282.496024 
C 637.627159 282.496024 635.873988 283.222211 634.581548 284.514651 
C 633.289108 285.807091 632.562921 287.560262 632.562921 289.388048 
C 632.562921 291.215834 633.289108 292.969005 634.581548 294.261445 
C 635.873988 295.553885 637.627159 296.280072 639.454945 296.280072 
z
" clip-path="url(#p5f0e4bd033)" style="fill: #1f77b4; fill-opacity: 0.3; stroke: #1f77b4; stroke-opacity: 0.3"/>
    <path d="M 648.374026 292.494416 
C 650.632149 292.494416 652.798089 291.597254 654.394823 290.00052 
C 655.991557 288.403786 656.888719 286.237846 656.888719 283.979722 
C 656.888719 281.721599 655.991557 279.555659 654.394823 277.958925 
C 652.798089 276.362191 650.632149 275.465029 648.374026 275.465029 
C 646.115903 275.465029 643.949963 276.362191 642.353229 277.958925 
C 640.756495 279.555659 639.859333 281.721599 639.859333 283.979722 
C 639.859333 286.237846 640.756495 288.403786 642.353229 290.00052 
C 643.949963 291.597254 646.115903 292.494416 648.374026 292.494416 
z
" clip-path="url(#p5f0e4bd033)" style="fill: #1f77b4; fill-opacity: 0.3; stroke: #1f77b4; stroke-opacity: 0.3"/>
    <path d="M 657.293107 287.08609 
C 659.55123 287.08609 661.71717 286.188928 663.313904 284.592194 
C 664.910638 282.99546 665.8078 280.82952 665.8078 278.571397 
C 665.8078 276.313274 664.910638 274.147334 663.313904 272.5506 
C 661.71717 270.953865 659.55123 270.056704 657.293107 270.056704 
C 655.034984 270.056704 652.869044 270.953865 651.27231 272.5506 
C 649.675575 274.147334 648.778414 276.313274 648.778414 278.571397 
C 648.778414 280.82952 649.675575 282.99546 651.27231 284.592194 
C 652.869044 286.188928 655.034984 287.08609 657.293107 287.08609 
z
" clip-path="url(#p5f0e4bd033)" style="fill: #1f77b4; fill-opacity: 0.3; stroke: #1f77b4; stroke-opacity: 0.3"/>
    <path d="M 666.212188 280.920376 
C 668.961872 280.920376 671.599307 279.827915 673.543627 277.883595 
C 675.487947 275.939274 676.580408 273.30184 676.580408 270.552155 
C 676.580408 267.802471 675.487947 265.165037 673.543627 263.220716 
C 671.599307 261.276396 668.961872 260.183935 666.212188 260.183935 
C 663.462504 260.183935 660.825069 261.276396 658.880749 263.220716 
C 656.936428 265.165037 655.843967 267.802471 655.843967 270.552155 
C 655.843967 273.30184 656.936428 275.939274 658.880749 277.883595 
C 660.825069 279.827915 663.462504 280.920376 666.212188 280.920376 
z
" clip-path="url(#p5f0e4bd033)" style="fill: #1f77b4; fill-opacity: 0.3; stroke: #1f77b4; stroke-opacity: 0.3"/>
    <path d="M 675.131269 273.893343 
C 677.006538 273.893343 678.805253 273.148291 680.131269 271.822276 
C 681.457284 270.49626 682.202337 268.697545 682.202337 266.822276 
C 682.202337 264.947007 681.457284 263.148291 680.131269 261.822276 
C 678.805253 260.49626 677.006538 259.751208 675.131269 259.751208 
C 673.256 259.751208 671.457284 260.49626 670.131269 261.822276 
C 668.805253 263.148291 668.060201 264.947007 668.060201 266.822276 
C 668.060201 268.697545 668.805253 270.49626 670.131269 271.822276 
C 671.457284 273.148291 673.256 273.893343 675.131269 273.893343 
z
" clip-path="url(#p5f0e4bd033)" style="fill: #1f77b4; fill-opacity: 0.3; stroke: #1f77b4; stroke-opacity: 0.3"/>
    <path d="M 684.05035 268.047219 
C 687.243818 268.047219 690.30692 266.778441 692.565043 264.520318 
C 694.823166 262.262195 696.091944 259.199093 696.091944 256.005624 
C 696.091944 252.812156 694.823166 249.749054 692.565043 247.490931 
C 690.30692 245.232808 687.243818 243.96403 684.05035 243.96403 
C 680.856881 243.96403 677.793779 245.232808 675.535656 247.490931 
C 673.277533 249.749054 672.008755 252.812156 672.008755 256.005624 
C 672.008755 259.199093 673.277533 262.262195 675.535656 264.520318 
C 677.793779 266.778441 680.856881 268.047219 684.05035 268.047219 
z
" clip-path="url(#p5f0e4bd033)" style="fill: #1f77b4; fill-opacity: 0.3; stroke: #1f77b4; stroke-opacity: 0.3"/>
    <path d="M 692.969431 259.299138 
C 694.980433 259.299138 696.90934 258.500159 698.331333 257.078165 
C 699.753326 255.656172 700.552306 253.727265 700.552306 251.716263 
C 700.552306 249.705261 699.753326 247.776353 698.331333 246.35436 
C 696.90934 244.932367 694.980433 244.133387 692.969431 244.133387 
C 690.958428 244.133387 689.029521 244.932367 687.607528 246.35436 
C 686.185535 247.776353 685.386555 249.705261 685.386555 251.716263 
C 685.386555 253.727265 686.185535 255.656172 687.607528 257.078165 
C 689.029521 258.500159 690.958428 259.299138 692.969431 259.299138 
z
" clip-path="url(#p5f0e4bd033)" style="fill: #1f77b4; fill-opacity: 0.3; stroke: #1f77b4; stroke-opacity: 0.3"/>
    <path d="M 701.888511 254.95556 
C 703.341089 254.95556 704.734368 254.378445 705.761495 253.351318 
C 706.788622 252.324191 707.365737 250.930912 707.365737 249.478335 
C 707.365737 248.025758 706.788622 246.632479 705.761495 245.605352 
C 704.734368 244.578224 703.341089 244.001109 701.888511 244.001109 
C 700.435934 244.001109 699.042655 244.578224 698.015528 245.605352 
C 696.988401 246.632479 696.411286 248.025758 696.411286 249.478335 
C 696.411286 250.930912 696.988401 252.324191 698.015528 253.351318 
C 699.042655 254.378445 700.435934 254.95556 701.888511 254.95556 
z
" clip-path="url(#p5f0e4bd033)" style="fill: #1f77b4; fill-opacity: 0.3; stroke: #1f77b4; stroke-opacity: 0.3"/>
    <path d="M 710.807592 252.819523 
C 712.682862 252.819523 714.481577 252.074471 715.807592 250.748455 
C 717.133608 249.42244 717.87866 247.623724 717.87866 245.748455 
C 717.87866 243.873186 717.133608 242.074471 715.807592 240.748455 
C 714.481577 239.42244 712.682862 238.677387 710.807592 238.677387 
C 708.932323 238.677387 707.133608 239.42244 705.807592 240.748455 
C 704.481577 242.074471 703.736525 243.873186 703.736525 245.748455 
C 703.736525 247.623724 704.481577 249.42244 705.807592 250.748455 
C 707.133608 252.074471 708.932323 252.819523 710.807592 252.819523 
z
" clip-path="url(#p5f0e4bd033)" style="fill: #1f77b4; fill-opacity: 0.3; stroke: #1f77b4; stroke-opacity: 0.3"/>
    <path d="M 719.726673 248.928956 
C 721.905539 248.928956 723.995458 248.063283 725.536148 246.522593 
C 727.076839 244.981902 727.942512 242.891983 727.942512 240.713117 
C 727.942512 238.534252 727.076839 236.444333 725.536148 234.903642 
C 723.995458 233.362952 721.905539 232.497279 719.726673 232.497279 
C 717.547808 232.497279 715.457889 233.362952 713.917198 234.903642 
C 712.376508 236.444333 711.510835 238.534252 711.510835 240.713117 
C 711.510835 242.891983 712.376508 244.981902 713.917198 246.522593 
C 715.457889 248.063283 717.547808 248.928956 719.726673 248.928956 
z
" clip-path="url(#p5f0e4bd033)" style="fill: #1f77b4; fill-opacity: 0.3; stroke: #1f77b4; stroke-opacity: 0.3"/>
    <path d="M 728.645754 244.054306 
C 730.521023 244.054306 732.319739 243.309253 733.645754 241.983238 
C 734.97177 240.657222 735.716822 238.858507 735.716822 236.983238 
C 735.716822 235.107969 734.97177 233.309253 733.645754 231.983238 
C 732.319739 230.657222 730.521023 229.91217 728.645754 229.91217 
C 726.770485 229.91217 724.97177 230.657222 723.645754 231.983238 
C 722.319739 233.309253 721.574686 235.107969 721.574686 236.983238 
C 721.574686 238.858507 722.319739 240.657222 723.645754 241.983238 
C 724.97177 243.309253 726.770485 244.054306 728.645754 244.054306 
z
" clip-path="url(#p5f0e4bd033)" style="fill: #1f77b4; fill-opacity: 0.3; stroke: #1f77b4; stroke-opacity: 0.3"/>
    <path d="M 737.564835 240.089605 
C 739.822958 240.089605 741.988898 239.192444 743.585632 237.595709 
C 745.182367 235.998975 746.079528 233.833035 746.079528 231.574912 
C 746.079528 229.316789 745.182367 227.150849 743.585632 225.554115 
C 741.988898 223.957381 739.822958 223.060219 737.564835 223.060219 
C 735.306712 223.060219 733.140772 223.957381 731.544038 225.554115 
C 729.947304 227.150849 729.050142 229.316789 729.050142 231.574912 
C 729.050142 233.833035 729.947304 235.998975 731.544038 237.595709 
C 733.140772 239.192444 735.306712 240.089605 737.564835 240.089605 
z
" clip-path="url(#p5f0e4bd033)" style="fill: #1f77b4; fill-opacity: 0.3; stroke: #1f77b4; stroke-opacity: 0.3"/>
    <path d="M 746.483916 234.915564 
C 748.161208 234.915564 749.770028 234.249169 750.956052 233.063144 
C 752.142076 231.87712 752.808471 230.2683 752.808471 228.591008 
C 752.808471 226.913717 752.142076 225.304897 750.956052 224.118872 
C 749.770028 222.932848 748.161208 222.266453 746.483916 222.266453 
C 744.806624 222.266453 743.197804 222.932848 742.01178 224.118872 
C 740.825756 225.304897 740.159361 226.913717 740.159361 228.591008 
C 740.159361 230.2683 740.825756 231.87712 742.01178 233.063144 
C 743.197804 234.249169 744.806624 234.915564 746.483916 234.915564 
z
" clip-path="url(#p5f0e4bd033)" style="fill: #1f77b4; fill-opacity: 0.3; stroke: #1f77b4; stroke-opacity: 0.3"/>
    <path d="M 755.402997 231.920323 
C 757.324576 231.920323 759.167711 231.156872 760.526472 229.79811 
C 761.885234 228.439348 762.648685 226.596214 762.648685 224.674635 
C 762.648685 222.753056 761.885234 220.909921 760.526472 219.551159 
C 759.167711 218.192398 757.324576 217.428946 755.402997 217.428946 
C 753.481418 217.428946 751.638283 218.192398 750.279522 219.551159 
C 748.92076 220.909921 748.157309 222.753056 748.157309 224.674635 
C 748.157309 226.596214 748.92076 228.439348 750.279522 229.79811 
C 751.638283 231.156872 753.481418 231.920323 755.402997 231.920323 
z
" clip-path="url(#p5f0e4bd033)" style="fill: #1f77b4; fill-opacity: 0.3; stroke: #1f77b4; stroke-opacity: 0.3"/>
    <path d="M 764.322078 228.025947 
C 766.101114 228.025947 767.807526 227.319128 769.065494 226.061159 
C 770.323463 224.803191 771.030282 223.096779 771.030282 221.317743 
C 771.030282 219.538706 770.323463 217.832295 769.065494 216.574326 
C 767.807526 215.316358 766.101114 214.609539 764.322078 214.609539 
C 762.543041 214.609539 760.83663 215.316358 759.578661 216.574326 
C 758.320693 217.832295 757.613874 219.538706 757.613874 221.317743 
C 757.613874 223.096779 758.320693 224.803191 759.578661 226.061159 
C 760.83663 227.319128 762.543041 228.025947 764.322078 228.025947 
z
" clip-path="url(#p5f0e4bd033)" style="fill: #1f77b4; fill-opacity: 0.3; stroke: #1f77b4; stroke-opacity: 0.3"/>
    <path d="M 773.241159 224.594198 
C 774.753049 224.594198 776.20322 223.993518 777.272288 222.92445 
C 778.341356 221.855382 778.942036 220.405211 778.942036 218.893321 
C 778.942036 217.381431 778.341356 215.93126 777.272288 214.862192 
C 776.20322 213.793124 774.753049 213.192444 773.241159 213.192444 
C 771.729269 213.192444 770.279098 213.793124 769.21003 214.862192 
C 768.140962 215.93126 767.540282 217.381431 767.540282 218.893321 
C 767.540282 220.405211 768.140962 221.855382 769.21003 222.92445 
C 770.279098 223.993518 771.729269 224.594198 773.241159 224.594198 
z
" clip-path="url(#p5f0e4bd033)" style="fill: #1f77b4; fill-opacity: 0.3; stroke: #1f77b4; stroke-opacity: 0.3"/>
    <path d="M 782.16024 219.780593 
C 785.461992 219.780593 788.628957 218.468793 790.963648 216.134102 
C 793.298339 213.799411 794.610139 210.632446 794.610139 207.330694 
C 794.610139 204.028942 793.298339 200.861977 790.963648 198.527285 
C 788.628957 196.192594 785.461992 194.880794 782.16024 194.880794 
C 778.858488 194.880794 775.691523 196.192594 773.356831 198.527285 
C 771.02214 200.861977 769.71034 204.028942 769.71034 207.330694 
C 769.71034 210.632446 771.02214 213.799411 773.356831 216.134102 
C 775.691523 218.468793 778.858488 219.780593 782.16024 219.780593 
z
" clip-path="url(#p5f0e4bd033)" style="fill: #1f77b4; fill-opacity: 0.3; stroke: #1f77b4; stroke-opacity: 0.3"/>
    <path d="M 791.079321 210.679332 
C 792.907107 210.679332 794.660278 209.953145 795.952718 208.660705 
C 797.245158 207.368265 797.971345 205.615094 797.971345 203.787308 
C 797.971345 201.959522 797.245158 200.206351 795.952718 198.913911 
C 794.660278 197.621471 792.907107 196.895284 791.079321 196.895284 
C 789.251534 196.895284 787.498364 197.621471 786.205924 198.913911 
C 784.913483 200.206351 784.187296 201.959522 784.187296 203.787308 
C 784.187296 205.615094 784.913483 207.368265 786.205924 208.660705 
C 787.498364 209.953145 789.251534 210.679332 791.079321 210.679332 
z
" clip-path="url(#p5f0e4bd033)" style="fill: #1f77b4; fill-opacity: 0.3; stroke: #1f77b4; stroke-opacity: 0.3"/>
    <path d="M 799.998402 206.136287 
C 802.748086 206.136287 805.38552 205.043826 807.329841 203.099506 
C 809.274161 201.155185 810.366622 198.517751 810.366622 195.768067 
C 810.366622 193.018382 809.274161 190.380948 807.329841 188.436627 
C 805.38552 186.492307 802.748086 185.399846 799.998402 185.399846 
C 797.248717 185.399846 794.611283 186.492307 792.666962 188.436627 
C 790.722642 190.380948 789.630181 193.018382 789.630181 195.768067 
C 789.630181 198.517751 790.722642 201.155185 792.666962 203.099506 
C 794.611283 205.043826 797.248717 206.136287 799.998402 206.136287 
z
" clip-path="url(#p5f0e4bd033)" style="fill: #1f77b4; fill-opacity: 0.3; stroke: #1f77b4; stroke-opacity: 0.3"/>
    <path d="M 808.917483 198.833501 
C 811.214209 198.833501 813.417176 197.921002 815.041207 196.296971 
C 816.665238 194.672941 817.577737 192.469973 817.577737 190.173247 
C 817.577737 187.876521 816.665238 185.673553 815.041207 184.049523 
C 813.417176 182.425492 811.214209 181.512993 808.917483 181.512993 
C 806.620756 181.512993 804.417789 182.425492 802.793758 184.049523 
C 801.169727 185.673553 800.257228 187.876521 800.257228 190.173247 
C 800.257228 192.469973 801.169727 194.672941 802.793758 196.296971 
C 804.417789 197.921002 806.620756 198.833501 808.917483 198.833501 
z
" clip-path="url(#p5f0e4bd033)" style="fill: #1f77b4; fill-opacity: 0.3; stroke: #1f77b4; stroke-opacity: 0.3"/>
    <path d="M 817.836563 193.521886 
C 819.66435 193.521886 821.417521 192.795698 822.709961 191.503258 
C 824.002401 190.210818 824.728588 188.457647 824.728588 186.629861 
C 824.728588 184.802075 824.002401 183.048904 822.709961 181.756464 
C 821.417521 180.464024 819.66435 179.737837 817.836563 179.737837 
C 816.008777 179.737837 814.255606 180.464024 812.963166 181.756464 
C 811.670726 183.048904 810.944539 184.802075 810.944539 186.629861 
C 810.944539 188.457647 811.670726 190.210818 812.963166 191.503258 
C 814.255606 192.795698 816.008777 193.521886 817.836563 193.521886 
z
" clip-path="url(#p5f0e4bd033)" style="fill: #1f77b4; fill-opacity: 0.3; stroke: #1f77b4; stroke-opacity: 0.3"/>
    <path d="M 826.755644 189.970513 
C 828.432936 189.970513 830.041756 189.304118 831.22778 188.118093 
C 832.413805 186.932069 833.0802 185.323249 833.0802 183.645957 
C 833.0802 181.968666 832.413805 180.359846 831.22778 179.173821 
C 830.041756 177.987797 828.432936 177.321402 826.755644 177.321402 
C 825.078353 177.321402 823.469533 177.987797 822.283508 179.173821 
C 821.097484 180.359846 820.431089 181.968666 820.431089 183.645957 
C 820.431089 185.323249 821.097484 186.932069 822.283508 188.118093 
C 823.469533 189.304118 825.078353 189.970513 826.755644 189.970513 
z
" clip-path="url(#p5f0e4bd033)" style="fill: #1f77b4; fill-opacity: 0.3; stroke: #1f77b4; stroke-opacity: 0.3"/>
    <path d="M 835.674725 186.781018 
C 837.000741 186.781018 838.272625 186.254186 839.210259 185.316551 
C 840.147894 184.378917 840.674725 183.107033 840.674725 181.781018 
C 840.674725 180.455002 840.147894 179.183118 839.210259 178.245484 
C 838.272625 177.307849 837.000741 176.781018 835.674725 176.781018 
C 834.34871 176.781018 833.076826 177.307849 832.139191 178.245484 
C 831.201557 179.183118 830.674725 180.455002 830.674725 181.781018 
C 830.674725 183.107033 831.201557 184.378917 832.139191 185.316551 
C 833.076826 186.254186 834.34871 186.781018 835.674725 186.781018 
z
" clip-path="url(#p5f0e4bd033)" style="fill: #1f77b4; fill-opacity: 0.3; stroke: #1f77b4; stroke-opacity: 0.3"/>
    <path d="M 844.593806 185.110332 
C 846.515385 185.110332 848.35852 184.346881 849.717282 182.988119 
C 851.076043 181.629358 851.839495 179.786223 851.839495 177.864644 
C 851.839495 175.943065 851.076043 174.09993 849.717282 172.741168 
C 848.35852 171.382407 846.515385 170.618955 844.593806 170.618955 
C 842.672227 170.618955 840.829092 171.382407 839.470331 172.741168 
C 838.111569 174.09993 837.348118 175.943065 837.348118 177.864644 
C 837.348118 179.786223 838.111569 181.629358 839.470331 182.988119 
C 840.829092 184.346881 842.672227 185.110332 844.593806 185.110332 
z
" clip-path="url(#p5f0e4bd033)" style="fill: #1f77b4; fill-opacity: 0.3; stroke: #1f77b4; stroke-opacity: 0.3"/>
    <path d="M 853.512887 180.971011 
C 855.77101 180.971011 857.93695 180.07385 859.533684 178.477116 
C 861.130419 176.880381 862.02758 174.714441 862.02758 172.456318 
C 862.02758 170.198195 861.130419 168.032255 859.533684 166.435521 
C 857.93695 164.838787 855.77101 163.941625 853.512887 163.941625 
C 851.254764 163.941625 849.088824 164.838787 847.49209 166.435521 
C 845.895356 168.032255 844.998194 170.198195 844.998194 172.456318 
C 844.998194 174.714441 845.895356 176.880381 847.49209 178.477116 
C 849.088824 180.07385 851.254764 180.971011 853.512887 180.971011 
z
" clip-path="url(#p5f0e4bd033)" style="fill: #1f77b4; fill-opacity: 0.3; stroke: #1f77b4; stroke-opacity: 0.3"/>
    <path d="M 862.431968 175.769649 
C 864.398767 175.769649 866.285275 174.988232 867.676012 173.597495 
C 869.066749 172.206758 869.848167 170.320249 869.848167 168.353451 
C 869.848167 166.386652 869.066749 164.500143 867.676012 163.109406 
C 866.285275 161.718669 864.398767 160.937252 862.431968 160.937252 
C 860.465169 160.937252 858.578661 161.718669 857.187924 163.109406 
C 855.797187 164.500143 855.01577 166.386652 855.01577 168.353451 
C 855.01577 170.320249 855.797187 172.206758 857.187924 173.597495 
C 858.578661 174.988232 860.465169 175.769649 862.431968 175.769649 
z
" clip-path="url(#p5f0e4bd033)" style="fill: #1f77b4; fill-opacity: 0.3; stroke: #1f77b4; stroke-opacity: 0.3"/>
    <path d="M 871.351049 171.013473 
C 873.935929 171.013473 876.415287 169.98649 878.243073 168.158703 
C 880.07086 166.330917 881.097843 163.851559 881.097843 161.266679 
C 881.097843 158.681799 880.07086 156.202441 878.243073 154.374655 
C 876.415287 152.546868 873.935929 151.519885 871.351049 151.519885 
C 868.766169 151.519885 866.286811 152.546868 864.459025 154.374655 
C 862.631238 156.202441 861.604255 158.681799 861.604255 161.266679 
C 861.604255 163.851559 862.631238 166.330917 864.459025 168.158703 
C 866.286811 169.98649 868.766169 171.013473 871.351049 171.013473 
z
" clip-path="url(#p5f0e4bd033)" style="fill: #1f77b4; fill-opacity: 0.3; stroke: #1f77b4; stroke-opacity: 0.3"/>
    <path d="M 880.27013 164.44718 
C 882.448996 164.44718 884.538914 163.581507 886.079605 162.040816 
C 887.620296 160.500126 888.485968 158.410207 888.485968 156.231341 
C 888.485968 154.052476 887.620296 151.962557 886.079605 150.421866 
C 884.538914 148.881176 882.448996 148.015503 880.27013 148.015503 
C 878.091264 148.015503 876.001346 148.881176 874.460655 150.421866 
C 872.919964 151.962557 872.054292 154.052476 872.054292 156.231341 
C 872.054292 158.410207 872.919964 160.500126 874.460655 162.040816 
C 876.001346 163.581507 878.091264 164.44718 880.27013 164.44718 
z
" clip-path="url(#p5f0e4bd033)" style="fill: #1f77b4; fill-opacity: 0.3; stroke: #1f77b4; stroke-opacity: 0.3"/>
    <path d="M 889.189211 159.337709 
C 891.447334 159.337709 893.613274 158.440547 895.210008 156.843813 
C 896.806742 155.247079 897.703904 153.081139 897.703904 150.823016 
C 897.703904 148.564893 896.806742 146.398953 895.210008 144.802218 
C 893.613274 143.205484 891.447334 142.308323 889.189211 142.308323 
C 886.931088 142.308323 884.765148 143.205484 883.168413 144.802218 
C 881.571679 146.398953 880.674518 148.564893 880.674518 150.823016 
C 880.674518 153.081139 881.571679 155.247079 883.168413 156.843813 
C 884.765148 158.440547 886.931088 159.337709 889.189211 159.337709 
z
" clip-path="url(#p5f0e4bd033)" style="fill: #1f77b4; fill-opacity: 0.3; stroke: #1f77b4; stroke-opacity: 0.3"/>
    <path d="M 898.108292 154.163667 
C 899.785583 154.163667 901.394403 153.497272 902.580428 152.311248 
C 903.766452 151.125224 904.432847 149.516404 904.432847 147.839112 
C 904.432847 146.16182 903.766452 144.553 902.580428 143.366976 
C 901.394403 142.180952 899.785583 141.514557 898.108292 141.514557 
C 896.431 141.514557 894.82218 142.180952 893.636156 143.366976 
C 892.450131 144.553 891.783736 146.16182 891.783736 147.839112 
C 891.783736 149.516404 892.450131 151.125224 893.636156 152.311248 
C 894.82218 153.497272 896.431 154.163667 898.108292 154.163667 
z
" clip-path="url(#p5f0e4bd033)" style="fill: #1f77b4; fill-opacity: 0.3; stroke: #1f77b4; stroke-opacity: 0.3"/>
    <path d="M 907.027373 149.984194 
C 909.871359 149.984194 912.599246 148.854266 914.610248 146.843264 
C 916.62125 144.832262 917.751178 142.104375 917.751178 139.260389 
C 917.751178 136.416402 916.62125 133.688515 914.610248 131.677513 
C 912.599246 129.666511 909.871359 128.536583 907.027373 128.536583 
C 904.183386 128.536583 901.455499 129.666511 899.444497 131.677513 
C 897.433495 133.688515 896.303567 136.416402 896.303567 139.260389 
C 896.303567 142.104375 897.433495 144.832262 899.444497 146.843264 
C 901.455499 148.854266 904.183386 149.984194 907.027373 149.984194 
z
" clip-path="url(#p5f0e4bd033)" style="fill: #1f77b4; fill-opacity: 0.3; stroke: #1f77b4; stroke-opacity: 0.3"/>
    <path d="M 915.946454 139.885828 
C 919.327143 139.885828 922.569823 138.542666 924.960332 136.152158 
C 927.35084 133.761649 928.694002 130.518969 928.694002 127.138279 
C 928.694002 123.75759 927.35084 120.51491 924.960332 118.124401 
C 922.569823 115.733893 919.327143 114.390731 915.946454 114.390731 
C 912.565764 114.390731 909.323084 115.733893 906.932575 118.124401 
C 904.542067 120.51491 903.198905 123.75759 903.198905 127.138279 
C 903.198905 130.518969 904.542067 133.761649 906.932575 136.152158 
C 909.323084 138.542666 912.565764 139.885828 915.946454 139.885828 
z
" clip-path="url(#p5f0e4bd033)" style="fill: #1f77b4; fill-opacity: 0.3; stroke: #1f77b4; stroke-opacity: 0.3"/>
    <path d="M 924.865534 130.467594 
C 926.787113 130.467594 928.630248 129.704143 929.98901 128.345381 
C 931.347771 126.986619 932.111223 125.143485 932.111223 123.221906 
C 932.111223 121.300327 931.347771 119.457192 929.98901 118.09843 
C 928.630248 116.739669 926.787113 115.976217 924.865534 115.976217 
C 922.943955 115.976217 921.100821 116.739669 919.742059 118.09843 
C 918.383298 119.457192 917.619846 121.300327 917.619846 123.221906 
C 917.619846 125.143485 918.383298 126.986619 919.742059 128.345381 
C 921.100821 129.704143 922.943955 130.467594 924.865534 130.467594 
z
" clip-path="url(#p5f0e4bd033)" style="fill: #1f77b4; fill-opacity: 0.3; stroke: #1f77b4; stroke-opacity: 0.3"/>
    <path d="M 933.784615 125.822849 
C 936.403286 125.822849 938.915056 124.78244 940.766735 122.93076 
C 942.618415 121.07908 943.658824 118.567311 943.658824 115.94864 
C 943.658824 113.329969 942.618415 110.8182 940.766735 108.96652 
C 938.915056 107.11484 936.403286 106.074431 933.784615 106.074431 
C 931.165945 106.074431 928.654175 107.11484 926.802495 108.96652 
C 924.950815 110.8182 923.910407 113.329969 923.910407 115.94864 
C 923.910407 118.567311 924.950815 121.07908 926.802495 122.93076 
C 928.654175 124.78244 931.165945 125.822849 933.784615 125.822849 
z
" clip-path="url(#p5f0e4bd033)" style="fill: #1f77b4; fill-opacity: 0.3; stroke: #1f77b4; stroke-opacity: 0.3"/>
    <path d="M 942.703696 119.162054 
C 944.841832 119.162054 946.892683 118.312564 948.404573 116.800674 
C 949.916464 115.288783 950.765954 113.237932 950.765954 111.099796 
C 950.765954 108.961661 949.916464 106.91081 948.404573 105.398919 
C 946.892683 103.887029 944.841832 103.037539 942.703696 103.037539 
C 940.565561 103.037539 938.514709 103.887029 937.002819 105.398919 
C 935.490929 106.91081 934.641439 108.961661 934.641439 111.099796 
C 934.641439 113.237932 935.490929 115.288783 937.002819 116.800674 
C 938.514709 118.312564 940.565561 119.162054 942.703696 119.162054 
z
" clip-path="url(#p5f0e4bd033)" style="fill: #1f77b4; fill-opacity: 0.3; stroke: #1f77b4; stroke-opacity: 0.3"/>
    <path d="M 951.622777 113.977639 
C 952.732201 113.977639 953.796336 113.53686 954.580817 112.752378 
C 955.365298 111.967897 955.806077 110.903763 955.806077 109.794339 
C 955.806077 108.684914 955.365298 107.62078 954.580817 106.836299 
C 953.796336 106.051817 952.732201 105.611038 951.622777 105.611038 
C 950.513353 105.611038 949.449219 106.051817 948.664737 106.836299 
C 947.880256 107.62078 947.439477 108.684914 947.439477 109.794339 
C 947.439477 110.903763 947.880256 111.967897 948.664737 112.752378 
C 949.449219 113.53686 950.513353 113.977639 951.622777 113.977639 
z
" clip-path="url(#p5f0e4bd033)" style="fill: #1f77b4; fill-opacity: 0.3; stroke: #1f77b4; stroke-opacity: 0.3"/>
    <path d="M 960.541858 112.397403 
C 961.479493 112.397403 962.37885 112.024876 963.041858 111.361869 
C 963.704866 110.698861 964.077392 109.799503 964.077392 108.861869 
C 964.077392 107.924234 963.704866 107.024876 963.041858 106.361869 
C 962.37885 105.698861 961.479493 105.326335 960.541858 105.326335 
C 959.604224 105.326335 958.704866 105.698861 958.041858 106.361869 
C 957.37885 107.024876 957.006324 107.924234 957.006324 108.861869 
C 957.006324 109.799503 957.37885 110.698861 958.041858 111.361869 
C 958.704866 112.024876 959.604224 112.397403 960.541858 112.397403 
z
" clip-path="url(#p5f0e4bd033)" style="fill: #1f77b4; fill-opacity: 0.3; stroke: #1f77b4; stroke-opacity: 0.3"/>
    <path d="M 969.460939 111.926839 
C 970.718908 111.926839 971.925523 111.427043 972.815041 110.537525 
C 973.704559 109.648006 974.204356 108.441392 974.204356 107.183423 
C 974.204356 105.925454 973.704559 104.718839 972.815041 103.829321 
C 971.925523 102.939803 970.718908 102.440006 969.460939 102.440006 
C 968.20297 102.440006 966.996355 102.939803 966.106837 103.829321 
C 965.217319 104.718839 964.717523 105.925454 964.717523 107.183423 
C 964.717523 108.441392 965.217319 109.648006 966.106837 110.537525 
C 966.996355 111.427043 968.20297 111.926839 969.460939 111.926839 
z
" clip-path="url(#p5f0e4bd033)" style="fill: #1f77b4; fill-opacity: 0.3; stroke: #1f77b4; stroke-opacity: 0.3"/>
    <path d="M 978.38002 109.328505 
C 981.224006 109.328505 983.951893 108.198577 985.962895 106.187575 
C 987.973897 104.176573 989.103825 101.448686 989.103825 98.604699 
C 989.103825 95.760713 987.973897 93.032826 985.962895 91.021824 
C 983.951893 89.010822 981.224006 87.880894 978.38002 87.880894 
C 975.536034 87.880894 972.808147 89.010822 970.797145 91.021824 
C 968.786142 93.032826 967.656215 95.760713 967.656215 98.604699 
C 967.656215 101.448686 968.786142 104.176573 970.797145 106.187575 
C 972.808147 108.198577 975.536034 109.328505 978.38002 109.328505 
z
" clip-path="url(#p5f0e4bd033)" style="fill: #1f77b4; fill-opacity: 0.3; stroke: #1f77b4; stroke-opacity: 0.3"/>
    <path d="M 987.299101 101.898213 
C 989.310103 101.898213 991.23901 101.099234 992.661004 99.67724 
C 994.082997 98.255247 994.881976 96.32634 994.881976 94.315338 
C 994.881976 92.304336 994.082997 90.375428 992.661004 88.953435 
C 991.23901 87.531442 989.310103 86.732462 987.299101 86.732462 
C 985.288099 86.732462 983.359191 87.531442 981.937198 88.953435 
C 980.515205 90.375428 979.716225 92.304336 979.716225 94.315338 
C 979.716225 96.32634 980.515205 98.255247 981.937198 99.67724 
C 983.359191 101.099234 985.288099 101.898213 987.299101 101.898213 
z
" clip-path="url(#p5f0e4bd033)" style="fill: #1f77b4; fill-opacity: 0.3; stroke: #1f77b4; stroke-opacity: 0.3"/>
    <path d="M 996.218182 97.495838 
C 998.397048 97.495838 1000.486966 96.630166 1002.027657 95.089475 
C 1003.568348 93.548784 1004.43402 91.458866 1004.43402 89.28 
C 1004.43402 87.101134 1003.568348 85.011216 1002.027657 83.470525 
C 1000.486966 81.929834 998.397048 81.064162 996.218182 81.064162 
C 994.039316 81.064162 991.949398 81.929834 990.408707 83.470525 
C 988.868016 85.011216 988.002343 87.101134 988.002343 89.28 
C 988.002343 91.458866 988.868016 93.548784 990.408707 95.089475 
C 991.949398 96.630166 994.039316 97.495838 996.218182 97.495838 
z
" clip-path="url(#p5f0e4bd033)" style="fill: #1f77b4; fill-opacity: 0.3; stroke: #1f77b4; stroke-opacity: 0.3"/>
   </g>
   <g id="matplotlib.axis_1">
    <g id="xtick_1">
     <g id="line2d_1">
      <defs>
       <path id="mf14ff480d4" d="M 0 0 
L 0 3.5 
" style="stroke: #000000; stroke-width: 0.8"/>
      </defs>
      <g>
       <use xlink:href="#mf14ff480d4" x="184.581818" y="512.64" style="stroke: #000000; stroke-width: 0.8"/>
      </g>
     </g>
     <g id="text_1">
      <!-- 2026-01-01 -->
      <g transform="translate(155.524006 527.238438) scale(0.1 -0.1)">
       <defs>
        <path id="DejaVuSans-32" d="M 1228 531 
L 3431 531 
L 3431 0 
L 469 0 
L 469 531 
Q 828 903 1448 1529 
Q 2069 2156 2228 2338 
Q 2531 2678 2651 2914 
Q 2772 3150 2772 3378 
Q 2772 3750 2511 3984 
Q 2250 4219 1831 4219 
Q 1534 4219 1204 4116 
Q 875 4013 500 3803 
L 500 4441 
Q 881 4594 1212 4672 
Q 1544 4750 1819 4750 
Q 2544 4750 2975 4387 
Q 3406 4025 3406 3419 
Q 3406 3131 3298 2873 
Q 3191 2616 2906 2266 
Q 2828 2175 2409 1742 
Q 1991 1309 1228 531 
z
" transform="scale(0.015625)"/>
        <path id="DejaVuSans-30" d="M 2034 4250 
Q 1547 4250 1301 3770 
Q 1056 3291 1056 2328 
Q 1056 1369 1301 889 
Q 1547 409 2034 409 
Q 2525 409 2770 889 
Q 3016 1369 3016 2328 
Q 3016 3291 2770 3770 
Q 2525 4250 2034 4250 
z
M 2034 4750 
Q 2819 4750 3233 4129 
Q 3647 3509 3647 2328 
Q 3647 1150 3233 529 
Q 2819 -91 2034 -91 
Q 1250 -91 836 529 
Q 422 1150 422 2328 
Q 422 3509 836 4129 
Q 1250 4750 2034 4750 
z
" transform="scale(0.015625)"/>
        <path id="DejaVuSans-36" d="M 2113 2584 
Q 1688 2584 1439 2293 
Q 1191 2003 1191 1497 
Q 1191 994 1439 701 
Q 1688 409 2113 409 
Q 2538 409 2786 701 
Q 3034 994 3034 1497 
Q 3034 2003 2786 2293 
Q 2538 2584 2113 2584 
z
M 3366 4563 
L 3366 3988 
Q 3128 4100 2886 4159 
Q 2644 4219 2406 4219 
Q 1781 4219 1451 3797 
Q 1122 3375 1075 2522 
Q 1259 2794 1537 2939 
Q 1816 3084 2150 3084 
Q 2853 3084 3261 2657 
Q 3669 2231 3669 1497 
Q 3669 778 3244 343 
Q 2819 -91 2113 -91 
Q 1303 -91 875 529 
Q 447 1150 447 2328 
Q 447 3434 972 4092 
Q 1497 4750 2381 4750 
Q 2619 4750 2861 4703 
Q 3103 4656 3366 4563 
z
" transform="scale(0.015625)"/>
        <path id="DejaVuSans-2d" d="M 313 2009 
L 1997 2009 
L 1997 1497 
L 313 1497 
L 313 2009 
z
" transform="scale(0.015625)"/>
        <path id="DejaVuSans-31" d="M 794 531 
L 1825 531 
L 1825 4091 
L 703 3866 
L 703 4441 
L 1819 4666 
L 2450 4666 
L 2450 531 
L 3481 531 
L 3481 0 
L 794 0 
L 794 531 
z
" transform="scale(0.015625)"/>
       </defs>
       <use xlink:href="#DejaVuSans-32"/>
       <use xlink:href="#DejaVuSans-30" x="63.623047"/>
       <use xlink:href="#DejaVuSans-32" x="127.246094"/>
       <use xlink:href="#DejaVuSans-36" x="190.869141"/>
       <use xlink:href="#DejaVuSans-2d" x="254.492188"/>
       <use xlink:href="#DejaVuSans-30" x="290.576172"/>
       <use xlink:href="#DejaVuSans-31" x="354.199219"/>
       <use xlink:href="#DejaVuSans-2d" x="417.822266"/>
       <use xlink:href="#DejaVuSans-30" x="453.90625"/>
       <use xlink:href="#DejaVuSans-31" x="517.529297"/>
      </g>
     </g>
    </g>
    <g id="xtick_2">
     <g id="line2d_2">
      <g>
       <use xlink:href="#mf14ff480d4" x="309.448951" y="512.64" style="stroke: #000000; stroke-width: 0.8"/>
      </g>
     </g>
     <g id="text_2">
      <!-- 2026-01-15 -->
      <g transform="translate(280.391139 527.238438) scale(0.1 -0.1)">
       <defs>
        <path id="DejaVuSans-35" d="M 691 4666 
L 3169 4666 
L 3169 4134 
L 1269 4134 
L 1269 2991 
Q 1406 3038 1543 3061 
Q 1681 3084 1819 3084 
Q 2600 3084 3056 2656 
Q 3513 2228 3513 1497 
Q 3513 744 3044 326 
Q 2575 -91 1722 -91 
Q 1428 -91 1123 -41 
Q 819 9 494 109 
L 494 744 
Q 775 591 1075 516 
Q 1375 441 1709 441 
Q 2250 441 2565 725 
Q 2881 1009 2881 1497 
Q 2881 1984 2565 2268 
Q 2250 2553 1709 2553 
Q 1456 2553 1204 2497 
Q 953 2441 691 2322 
L 691 4666 
z
" transform="scale(0.015625)"/>
       </defs>
       <use xlink:href="#DejaVuSans-32"/>
       <use xlink:href="#DejaVuSans-30" x="63.623047"/>
       <use xlink:href="#DejaVuSans-32" x="127.246094"/>
       <use xlink:href="#DejaVuSans-36" x="190.869141"/>
       <use xlink:href="#DejaVuSans-2d" x="254.492188"/>
       <use xlink:href="#DejaVuSans-30" x="290.576172"/>
       <use xlink:href="#DejaVuSans-31" x="354.199219"/>
       <use xlink:href="#DejaVuSans-2d" x="417.822266"/>
       <use xlink:href="#DejaVuSans-31" x="453.90625"/>
       <use xlink:href="#DejaVuSans-35" x="517.529297"/>
      </g>
     </g>
    </g>
    <g id="xtick_3">
     <g id="line2d_3">
      <g>
       <use xlink:href="#mf14ff480d4" x="461.073327" y="512.64" style="stroke: #000000; stroke-width: 0.8"/>
      </g>
     </g>
     <g id="text_3">
      <!-- 2026-02-01 -->
      <g transform="translate(432.015514 527.238438) scale(0.1 -0.1)">
       <use xlink:href="#DejaVuSans-32"/>
       <use xlink:href="#DejaVuSans-30" x="63.623047"/>
       <use xlink:href="#DejaVuSans-32" x="127.246094"/>
       <use xlink:href="#DejaVuSans-36" x="190.869141"/>
       <use xlink:href="#DejaVuSans-2d" x="254.492188"/>
       <use xlink:href="#DejaVuSans-30" x="290.576172"/>
       <use xlink:href="#DejaVuSans-32" x="354.199219"/>
       <use xlink:href="#DejaVuSans-2d" x="417.822266"/>
       <use xlink:href="#DejaVuSans-30" x="453.90625"/>
       <use xlink:href="#DejaVuSans-31" x="517.529297"/>
      </g>
     </g>
    </g>
    <g id="xtick_4">
     <g id="line2d_4">
      <g>
       <use xlink:href="#mf14ff480d4" x="585.94046" y="512.64" style="stroke: #000000; stroke-width: 0.8"/>
      </g>
     </g>
     <g id="text_4">
      <!-- 2026-02-15 -->
      <g transform="translate(556.882647 527.238438) scale(0.1 -0.1)">
       <use xlink:href="#DejaVuSans-32"/>
       <use xlink:href="#DejaVuSans-30" x="63.623047"/>
       <use xlink:href="#DejaVuSans-32" x="127.246094"/>
       <use xlink:href="#DejaVuSans-36" x="190.869141"/>
       <use xlink:href="#DejaVuSans-2d" x="254.492188"/>
       <use xlink:href="#DejaVuSans-30" x="290.576172"/>
       <use xlink:href="#DejaVuSans-32" x="354.199219"/>
       <use xlink:href="#DejaVuSans-2d" x="417.822266"/>
       <use xlink:href="#DejaVuSans-31" x="453.90625"/>
       <use xlink:href="#DejaVuSans-35" x="517.529297"/>
      </g>
     </g>
    </g>
    <g id="xtick_5">
     <g id="line2d_5">
      <g>
       <use xlink:href="#mf14ff480d4" x="710.807592" y="512.64" style="stroke: #000000; stroke-width: 0.8"/>
      </g>
     </g>
     <g id="text_5">
      <!-- 2026-03-01 -->
      <g transform="translate(681.74978 527.238438) scale(0.1 -0.1)">
       <defs>
        <path id="DejaVuSans-33" d="M 2597 2516 
Q 3050 2419 3304 2112 
Q 3559 1806 3559 1356 
Q 3559 666 3084 287 
Q 2609 -91 1734 -91 
Q 1441 -91 1130 -33 
Q 819 25 488 141 
L 488 750 
Q 750 597 1062 519 
Q 1375 441 1716 441 
Q 2309 441 2620 675 
Q 2931 909 2931 1356 
Q 2931 1769 2642 2001 
Q 2353 2234 1838 2234 
L 1294 2234 
L 1294 2753 
L 1863 2753 
Q 2328 2753 2575 2939 
Q 2822 3125 2822 3475 
Q 2822 3834 2567 4026 
Q 2313 4219 1838 4219 
Q 1578 4219 1281 4162 
Q 984 4106 628 3988 
L 628 4550 
Q 988 4650 1302 4700 
Q 1616 4750 1894 4750 
Q 2613 4750 3031 4423 
Q 3450 4097 3450 3541 
Q 3450 3153 3228 2886 
Q 3006 2619 2597 2516 
z
" transform="scale(0.015625)"/>
       </defs>
       <use xlink:href="#DejaVuSans-32"/>
       <use xlink:href="#DejaVuSans-30" x="63.623047"/>
       <use xlink:href="#DejaVuSans-32" x="127.246094"/>
       <use xlink:href="#DejaVuSans-36" x="190.869141"/>
       <use xlink:href="#DejaVuSans-2d" x="254.492188"/>
       <use xlink:href="#DejaVuSans-30" x="290.576172"/>
       <use xlink:href="#DejaVuSans-33" x="354.199219"/>
       <use xlink:href="#DejaVuSans-2d" x="417.822266"/>
       <use xlink:href="#DejaVuSans-30" x="453.90625"/>
       <use xlink:href="#DejaVuSans-31" x="517.529297"/>
      </g>
     </g>
    </g>
    <g id="xtick_6">
     <g id="line2d_6">
      <g>
       <use xlink:href="#mf14ff480d4" x="835.674725" y="512.64" style="stroke: #000000; stroke-width: 0.8"/>
      </g>
     </g>
     <g id="text_6">
      <!-- 2026-03-15 -->
      <g transform="translate(806.616913 527.238438) scale(0.1 -0.1)">
       <use xlink:href="#DejaVuSans-32"/>
       <use xlink:href="#DejaVuSans-30" x="63.623047"/>
       <use xlink:href="#DejaVuSans-32" x="127.246094"/>
       <use xlink:href="#DejaVuSans-36" x="190.869141"/>
       <use xlink:href="#DejaVuSans-2d" x="254.492188"/>
       <use xlink:href="#DejaVuSans-30" x="290.576172"/>
       <use xlink:href="#DejaVuSans-33" x="354.199219"/>
       <use xlink:href="#DejaVuSans-2d" x="417.822266"/>
       <use xlink:href="#DejaVuSans-31" x="453.90625"/>
       <use xlink:href="#DejaVuSans-35" x="517.529297"/>
      </g>
     </g>
    </g>
    <g id="xtick_7">
     <g id="line2d_7">
      <g>
       <use xlink:href="#mf14ff480d4" x="987.299101" y="512.64" style="stroke: #000000; stroke-width: 0.8"/>
      </g>
     </g>
     <g id="text_7">
      <!-- 2026-04-01 -->
      <g transform="translate(958.241288 527.238438) scale(0.1 -0.1)">
       <defs>
        <path id="DejaVuSans-34" d="M 2419 4116 
L 825 1625 
L 2419 1625 
L 2419 4116 
z
M 2253 4666 
L 3047 4666 
L 3047 1625 
L 3713 1625 
L 3713 1100 
L 3047 1100 
L 3047 0 
L 2419 0 
L 2419 1100 
L 313 1100 
L 313 1709 
L 2253 4666 
z
" transform="scale(0.015625)"/>
       </defs>
       <use xlink:href="#DejaVuSans-32"/>
       <use xlink:href="#DejaVuSans-30" x="63.623047"/>
       <use xlink:href="#DejaVuSans-32" x="127.246094"/>
       <use xlink:href="#DejaVuSans-36" x="190.869141"/>
       <use xlink:href="#DejaVuSans-2d" x="254.492188"/>
       <use xlink:href="#DejaVuSans-30" x="290.576172"/>
       <use xlink:href="#DejaVuSans-34" x="354.199219"/>
       <use xlink:href="#DejaVuSans-2d" x="417.822266"/>
       <use xlink:href="#DejaVuSans-30" x="453.90625"/>
       <use xlink:href="#DejaVuSans-31" x="517.529297"/>
      </g>
     </g>
    </g>
   </g>
   <g id="matplotlib.axis_2">
    <g id="ytick_1">
     <g id="line2d_8">
      <defs>
       <path id="md628e0842e" d="M 0 0 
L -3.5 0 
" style="stroke: #000000; stroke-width: 0.8"/>
      </defs>
      <g>
       <use xlink:href="#md628e0842e" x="144" y="487.444662" style="stroke: #000000; stroke-width: 0.8"/>
      </g>
     </g>
     <g id="text_8">
      <!-- 13000 -->
      <g transform="translate(105.1875 491.243881) scale(0.1 -0.1)">
       <use xlink:href="#DejaVuSans-31"/>
       <use xlink:href="#DejaVuSans-33" x="63.623047"/>
       <use xlink:href="#DejaVuSans-30" x="127.246094"/>
       <use xlink:href="#DejaVuSans-30" x="190.869141"/>
       <use xlink:href="#DejaVuSans-30" x="254.492188"/>
      </g>
     </g>
    </g>
    <g id="ytick_2">
     <g id="line2d_9">
      <g>
       <use xlink:href="#md628e0842e" x="144" y="394.197669" style="stroke: #000000; stroke-width: 0.8"/>
      </g>
     </g>
     <g id="text_9">
      <!-- 13500 -->
      <g transform="translate(105.1875 397.996888) scale(0.1 -0.1)">
       <use xlink:href="#DejaVuSans-31"/>
       <use xlink:href="#DejaVuSans-33" x="63.623047"/>
       <use xlink:href="#DejaVuSans-35" x="127.246094"/>
       <use xlink:href="#DejaVuSans-30" x="190.869141"/>
       <use xlink:href="#DejaVuSans-30" x="254.492188"/>
      </g>
     </g>
    </g>
    <g id="ytick_3">
     <g id="line2d_10">
      <g>
       <use xlink:href="#md628e0842e" x="144" y="300.950675" style="stroke: #000000; stroke-width: 0.8"/>
      </g>
     </g>
     <g id="text_10">
      <!-- 14000 -->
      <g transform="translate(105.1875 304.749894) scale(0.1 -0.1)">
       <use xlink:href="#DejaVuSans-31"/>
       <use xlink:href="#DejaVuSans-34" x="63.623047"/>
       <use xlink:href="#DejaVuSans-30" x="127.246094"/>
       <use xlink:href="#DejaVuSans-30" x="190.869141"/>
       <use xlink:href="#DejaVuSans-30" x="254.492188"/>
      </g>
     </g>
    </g>
    <g id="ytick_4">
     <g id="line2d_11">
      <g>
       <use xlink:href="#md628e0842e" x="144" y="207.703682" style="stroke: #000000; stroke-width: 0.8"/>
      </g>
     </g>
     <g id="text_11">
      <!-- 14500 -->
      <g transform="translate(105.1875 211.502901) scale(0.1 -0.1)">
       <use xlink:href="#DejaVuSans-31"/>
       <use xlink:href="#DejaVuSans-34" x="63.623047"/>
       <use xlink:href="#DejaVuSans-35" x="127.246094"/>
       <use xlink:href="#DejaVuSans-30" x="190.869141"/>
       <use xlink:href="#DejaVuSans-30" x="254.492188"/>
      </g>
     </g>
    </g>
    <g id="ytick_5">
     <g id="line2d_12">
      <g>
       <use xlink:href="#md628e0842e" x="144" y="114.456688" style="stroke: #000000; stroke-width: 0.8"/>
      </g>
     </g>
     <g id="text_12">
      <!-- 15000 -->
      <g transform="translate(105.1875 118.255907) scale(0.1 -0.1)">
       <use xlink:href="#DejaVuSans-31"/>
       <use xlink:href="#DejaVuSans-35" x="63.623047"/>
       <use xlink:href="#DejaVuSans-30" x="127.246094"/>
       <use xlink:href="#DejaVuSans-30" x="190.869141"/>
       <use xlink:href="#DejaVuSans-30" x="254.492188"/>
      </g>
     </g>
    </g>
   </g>
   <g id="line2d_13">
    <path d="M 184.581818 492.48 
L 193.500899 489.309602 
L 202.41998 484.087771 
L 211.339061 482.036337 
L 220.258142 481.103867 
L 229.177223 477.933469 
L 238.096304 475.136059 
L 247.015385 467.862794 
L 255.934466 464.319408 
L 264.853546 462.640962 
L 273.772627 462.267974 
L 282.691708 455.181203 
L 291.610789 450.518853 
L 300.52987 448.094431 
L 309.448951 442.126623 
L 318.368032 434.107382 
L 327.287113 433.361406 
L 336.206194 431.309972 
L 345.125275 426.274635 
L 354.044356 424.036707 
L 362.963437 414.712007 
L 371.882517 409.67667 
L 380.801598 405.200814 
L 389.720679 399.792488 
L 398.63976 399.046512 
L 407.558841 398.300537 
L 416.477922 391.586753 
L 425.397003 382.262054 
L 434.316084 376.294246 
L 443.235165 371.258908 
L 452.154246 370.512932 
L 461.073327 368.461499 
L 469.992408 364.731619 
L 478.911489 360.255763 
L 487.830569 358.763811 
L 496.74965 353.54198 
L 505.668731 350.371582 
L 514.587812 348.320148 
L 523.506893 341.233377 
L 532.425974 338.995449 
L 541.345055 332.654653 
L 550.264136 328.924773 
L 559.183217 326.686846 
L 568.102298 322.956966 
L 577.021379 321.27852 
L 585.94046 314.378242 
L 594.85954 305.426531 
L 603.778621 303.748085 
L 612.697702 300.018205 
L 621.616783 296.288326 
L 630.535864 292.931434 
L 639.454945 289.388048 
L 648.374026 283.979722 
L 657.293107 278.571397 
L 666.212188 270.552155 
L 675.131269 266.822276 
L 684.05035 256.005624 
L 692.969431 251.716263 
L 701.888511 249.478335 
L 710.807592 245.748455 
L 719.726673 240.713117 
L 728.645754 236.983238 
L 737.564835 231.574912 
L 746.483916 228.591008 
L 755.402997 224.674635 
L 764.322078 221.317743 
L 773.241159 218.893321 
L 782.16024 207.330694 
L 791.079321 203.787308 
L 799.998402 195.768067 
L 808.917483 190.173247 
L 817.836563 186.629861 
L 826.755644 183.645957 
L 835.674725 181.781018 
L 844.593806 177.864644 
L 853.512887 172.456318 
L 862.431968 168.353451 
L 871.351049 161.266679 
L 880.27013 156.231341 
L 889.189211 150.823016 
L 898.108292 147.839112 
L 907.027373 139.260389 
L 915.946454 127.138279 
L 924.865534 123.221906 
L 933.784615 115.94864 
L 942.703696 111.099796 
L 951.622777 109.794339 
L 960.541858 108.861869 
L 969.460939 107.183423 
L 978.38002 98.604699 
L 987.299101 94.315338 
L 996.218182 89.28 
" clip-path="url(#p5f0e4bd033)" style="fill: none; stroke: #1f77b4; stroke-width: 1.5; stroke-linecap: square"/>
   </g>
   <g id="patch_3">
    <path d="M 144 512.64 
L 144 69.12 
" style="fill: none; stroke: #000000; stroke-width: 0.8; stroke-linejoin: miter; stroke-linecap: square"/>
   </g>
   <g id="patch_4">
    <path d="M 1036.8 512.64 
L 1036.8 69.12 
" style="fill: none; stroke: #000000; stroke-width: 0.8; stroke-linejoin: miter; stroke-linecap: square"/>
   </g>
   <g id="patch_5">
    <path d="M 144 512.64 
L 1036.8 512.64 
" style="fill: none; stroke: #000000; stroke-width: 0.8; stroke-linejoin: miter; stroke-linecap: square"/>
   </g>
   <g id="patch_6">
    <path d="M 144 69.12 
L 1036.8 69.12 
" style="fill: none; stroke: #000000; stroke-width: 0.8; stroke-linejoin: miter; stroke-linecap: square"/>
   </g>
   <g id="text_13">
    <!-- Number of AEDs in the OpenStreetMap database in Poland from 2026-01-01, day by day. As at: 2026-04-02 -->
    <g transform="translate(144 63.12) scale(0.14 -0.14)">
     <defs>
      <path id="DejaVuSans-4e" d="M 628 4666 
L 1478 4666 
L 3547 763 
L 3547 4666 
L 4159 4666 
L 4159 0 
L 3309 0 
L 1241 3903 
L 1241 0 
L 628 0 
L 628 4666 
z
" transform="scale(0.015625)"/>
      <path id="DejaVuSans-75" d="M 544 1381 
L 544 3500 
L 1119 3500 
L 1119 1403 
Q 1119 906 1312 657 
Q 1506 409 1894 409 
Q 2359 409 2629 706 
Q 2900 1003 2900 1516 
L 2900 3500 
L 3475 3500 
L 3475 0 
L 2900 0 
L 2900 538 
Q 2691 219 2414 64 
Q 2138 -91 1772 -91 
Q 1169 -91 856 284 
Q 544 659 544 1381 
z
M 1991 3584 
L 1991 3584 
z
" transform="scale(0.015625)"/>
      <path id="DejaVuSans-6d" d="M 3328 2828 
Q 3544 3216 3844 3400 
Q 4144 3584 4550 3584 
Q 5097 3584 5394 3201 
Q 5691 2819 5691 2113 
L 5691 0 
L 5113 0 
L 5113 2094 
Q 5113 2597 4934 2840 
Q 4756 3084 4391 3084 
Q 3944 3084 3684 2787 
Q 3425 2491 3425 1978 
L 3425 0 
L 2847 0 
L 2847 2094 
Q 2847 2600 2669 2842 
Q 2491 3084 2119 3084 
Q 1678 3084 1418 2786 
Q 1159 2488 1159 1978 
L 1159 0 
L 581 0 
L 581 3500 
L 1159 3500 
L 1159 2956 
Q 1356 3278 1631 3431 
Q 1906 3584 2284 3584 
Q 2666 3584 2933 3390 
Q 3200 3197 3328 2828 
z
" transform="scale(0.015625)"/>
      <path id="DejaVuSans-62" d="M 3116 1747 
Q 3116 2381 2855 2742 
Q 2594 3103 2138 3103 
Q 1681 3103 1420 2742 
Q 1159 2381 1159 1747 
Q 1159 1113 1420 752 
Q 1681 391 2138 391 
Q 2594 391 2855 752 
Q 3116 1113 3116 1747 
z
M 1159 2969 
Q 1341 3281 1617 3432 
Q 1894 3584 2278 3584 
Q 2916 3584 3314 3078 
Q 3713 2572 3713 1747 
Q 3713 922 3314 415 
Q 2916 -91 2278 -91 
Q 1894 -91 1617 61 
Q 1341 213 1159 525 
L 1159 0 
L 581 0 
L 581 4863 
L 1159 4863 
L 1159 2969 
z
" transform="scale(0.015625)"/>
      <path id="DejaVuSans-65" d="M 3597 1894 
L 3597 1613 
L 953 1613 
Q 991 1019 1311 708 
Q 1631 397 2203 397 
Q 2534 397 2845 478 
Q 3156 559 3463 722 
L 3463 178 
Q 3153 47 2828 -22 
Q 2503 -91 2169 -91 
Q 1331 -91 842 396 
Q 353 884 353 1716 
Q 353 2575 817 3079 
Q 1281 3584 2069 3584 
Q 2775 3584 3186 3129 
Q 3597 2675 3597 1894 
z
M 3022 2063 
Q 3016 2534 2758 2815 
Q 2500 3097 2075 3097 
Q 1594 3097 1305 2825 
Q 1016 2553 972 2059 
L 3022 2063 
z
" transform="scale(0.015625)"/>
      <path id="DejaVuSans-72" d="M 2631 2963 
Q 2534 3019 2420 3045 
Q 2306 3072 2169 3072 
Q 1681 3072 1420 2755 
Q 1159 2438 1159 1844 
L 1159 0 
L 581 0 
L 581 3500 
L 1159 3500 
L 1159 2956 
Q 1341 3275 1631 3429 
Q 1922 3584 2338 3584 
Q 2397 3584 2469 3576 
Q 2541 3569 2628 3553 
L 2631 2963 
z
" transform="scale(0.015625)"/>
      <path id="DejaVuSans-20" transform="scale(0.015625)"/>
      <path id="DejaVuSans-6f" d="M 1959 3097 
Q 1497 3097 1228 2736 
Q 959 2375 959 1747 
Q 959 1119 1226 758 
Q 1494 397 1959 397 
Q 2419 397 2687 759 
Q 2956 1122 2956 1747 
Q 2956 2369 2687 2733 
Q 2419 3097 1959 3097 
z
M 1959 3584 
Q 2709 3584 3137 3096 
Q 3566 2609 3566 1747 
Q 3566 888 3137 398 
Q 2709 -91 1959 -91 
Q 1206 -91 779 398 
Q 353 888 353 1747 
Q 353 2609 779 3096 
Q 1206 3584 1959 3584 
z
" transform="scale(0.015625)"/>
      <path id="DejaVuSans-66" d="M 2375 4863 
L 2375 4384 
L 1825 4384 
Q 1516 4384 1395 4259 
Q 1275 4134 1275 3809 
L 1275 3500 
L 2222 3500 
L 2222 3053 
L 1275 3053 
L 1275 0 
L 697 0 
L 697 3053 
L 147 3053 
L 147 3500 
L 697 3500 
L 697 3744 
Q 697 4328 969 4595 
Q 1241 4863 1831 4863 
L 2375 4863 
z
" transform="scale(0.015625)"/>
      <path id="DejaVuSans-41" d="M 2188 4044 
L 1331 1722 
L 3047 1722 
L 2188 4044 
z
M 1831 4666 
L 2547 4666 
L 4325 0 
L 3669 0 
L 3244 1197 
L 1141 1197 
L 716 0 
L 50 0 
L 1831 4666 
z
" transform="scale(0.015625)"/>
      <path id="DejaVuSans-45" d="M 628 4666 
L 3578 4666 
L 3578 4134 
L 1259 4134 
L 1259 2753 
L 3481 2753 
L 3481 2222 
L 1259 2222 
L 1259 531 
L 3634 531 
L 3634 0 
L 628 0 
L 628 4666 
z
" transform="scale(0.015625)"/>
      <path id="DejaVuSans-44" d="M 1259 4147 
L 1259 519 
L 2022 519 
Q 2988 519 3436 956 
Q 3884 1394 3884 2338 
Q 3884 3275 3436 3711 
Q 2988 4147 2022 4147 
L 1259 4147 
z
M 628 4666 
L 1925 4666 
Q 3281 4666 3915 4102 
Q 4550 3538 4550 2338 
Q 4550 1131 3912 565 
Q 3275 0 1925 0 
L 628 0 
L 628 4666 
z
" transform="scale(0.015625)"/>
      <path id="DejaVuSans-73" d="M 2834 3397 
L 2834 2853 
Q 2591 2978 2328 3040 
Q 2066 3103 1784 3103 
Q 1356 3103 1142 2972 
Q 928 2841 928 2578 
Q 928 2378 1081 2264 
Q 1234 2150 1697 2047 
L 1894 2003 
Q 2506 1872 2764 1633 
Q 3022 1394 3022 966 
Q 3022 478 2636 193 
Q 2250 -91 1575 -91 
Q 1294 -91 989 -36 
Q 684 19 347 128 
L 347 722 
Q 666 556 975 473 
Q 1284 391 1588 391 
Q 1994 391 2212 530 
Q 2431 669 2431 922 
Q 2431 1156 2273 1281 
Q 2116 1406 1581 1522 
L 1381 1569 
Q 847 1681 609 1914 
Q 372 2147 372 2553 
Q 372 3047 722 3315 
Q 1072 3584 1716 3584 
Q 2034 3584 2315 3537 
Q 2597 3491 2834 3397 
z
" transform="scale(0.015625)"/>
      <path id="DejaVuSans-69" d="M 603 3500 
L 1178 3500 
L 1178 0 
L 603 0 
L 603 3500 
z
M 603 4863 
L 1178 4863 
L 1178 4134 
L 603 4134 
L 603 4863 
z
" transform="scale(0.015625)"/>
      <path id="DejaVuSans-6e" d="M 3513 2113 
L 3513 0 
L 2938 0 
L 2938 2094 
Q 2938 2591 2744 2837 
Q 2550 3084 2163 3084 
Q 1697 3084 1428 2787 
Q 1159 2491 1159 1978 
L 1159 0 
L 581 0 
L 581 3500 
L 1159 3500 
L 1159 2956 
Q 1366 3272 1645 3428 
Q 1925 3584 2291 3584 
Q 2894 3584 3203 3211 
Q 3513 2838 3513 2113 
z
" transform="scale(0.015625)"/>
      <path id="DejaVuSans-74" d="M 1172 4494 
L 1172 3500 
L 2356 3500 
L 2356 3053 
L 1172 3053 
L 1172 1153 
Q 1172 725 1289 603 
Q 1406 481 1766 481 
L 2356 481 
L 2356 0 
L 1766 0 
Q 1100 0 847 248 
Q 594 497 594 1153 
L 594 3053 
L 172 3053 
L 172 3500 
L 594 3500 
L 594 4494 
L 1172 4494 
z
" transform="scale(0.015625)"/>
      <path id="DejaVuSans-68" d="M 3513 2113 
L 3513 0 
L 2938 0 
L 2938 2094 
Q 2938 2591 2744 2837 
Q 2550 3084 2163 3084 
Q 1697 3084 1428 2787 
Q 1159 2491 1159 1978 
L 1159 0 
L 581 0 
L 581 4863 
L 1159 4863 
L 1159 2956 
Q 1366 3272 1645 3428 
Q 1925 3584 2291 3584 
Q 2894 3584 3203 3211 
Q 3513 2838 3513 2113 
z
" transform="scale(0.015625)"/>
      <path id="DejaVuSans-4f" d="M 2522 4238 
Q 1834 4238 1429 3725 
Q 1025 3213 1025 2328 
Q 1025 1447 1429 934 
Q 1834 422 2522 422 
Q 3209 422 3611 934 
Q 4013 1447 4013 2328 
Q 4013 3213 3611 3725 
Q 3209 4238 2522 4238 
z
M 2522 4750 
Q 3503 4750 4090 4092 
Q 4678 3434 4678 2328 
Q 4678 1225 4090 567 
Q 3503 -91 2522 -91 
Q 1538 -91 948 565 
Q 359 1222 359 2328 
Q 359 3434 948 4092 
Q 1538 4750 2522 4750 
z
" transform="scale(0.015625)"/>
      <path id="DejaVuSans-70" d="M 1159 525 
L 1159 -1331 
L 581 -1331 
L 581 3500 
L 1159 3500 
L 1159 2969 
Q 1341 3281 1617 3432 
Q 1894 3584 2278 3584 
Q 2916 3584 3314 3078 
Q 3713 2572 3713 1747 
Q 3713 922 3314 415 
Q 2916 -91 2278 -91 
Q 1894 -91 1617 61 
Q 1341 213 1159 525 
z
M 3116 1747 
Q 3116 2381 2855 2742 
Q 2594 3103 2138 3103 
Q 1681 3103 1420 2742 
Q 1159 2381 1159 1747 
Q 1159 1113 1420 752 
Q 1681 391 2138 391 
Q 2594 391 2855 752 
Q 3116 1113 3116 1747 
z
" transform="scale(0.015625)"/>
      <path id="DejaVuSans-53" d="M 3425 4513 
L 3425 3897 
Q 3066 4069 2747 4153 
Q 2428 4238 2131 4238 
Q 1616 4238 1336 4038 
Q 1056 3838 1056 3469 
Q 1056 3159 1242 3001 
Q 1428 2844 1947 2747 
L 2328 2669 
Q 3034 2534 3370 2195 
Q 3706 1856 3706 1288 
Q 3706 609 3251 259 
Q 2797 -91 1919 -91 
Q 1588 -91 1214 -16 
Q 841 59 441 206 
L 441 856 
Q 825 641 1194 531 
Q 1563 422 1919 422 
Q 2459 422 2753 634 
Q 3047 847 3047 1241 
Q 3047 1584 2836 1778 
Q 2625 1972 2144 2069 
L 1759 2144 
Q 1053 2284 737 2584 
Q 422 2884 422 3419 
Q 422 4038 858 4394 
Q 1294 4750 2059 4750 
Q 2388 4750 2728 4690 
Q 3069 4631 3425 4513 
z
" transform="scale(0.015625)"/>
      <path id="DejaVuSans-4d" d="M 628 4666 
L 1569 4666 
L 2759 1491 
L 3956 4666 
L 4897 4666 
L 4897 0 
L 4281 0 
L 4281 4097 
L 3078 897 
L 2444 897 
L 1241 4097 
L 1241 0 
L 628 0 
L 628 4666 
z
" transform="scale(0.015625)"/>
      <path id="DejaVuSans-61" d="M 2194 1759 
Q 1497 1759 1228 1600 
Q 959 1441 959 1056 
Q 959 750 1161 570 
Q 1363 391 1709 391 
Q 2188 391 2477 730 
Q 2766 1069 2766 1631 
L 2766 1759 
L 2194 1759 
z
M 3341 1997 
L 3341 0 
L 2766 0 
L 2766 531 
Q 2569 213 2275 61 
Q 1981 -91 1556 -91 
Q 1019 -91 701 211 
Q 384 513 384 1019 
Q 384 1609 779 1909 
Q 1175 2209 1959 2209 
L 2766 2209 
L 2766 2266 
Q 2766 2663 2505 2880 
Q 2244 3097 1772 3097 
Q 1472 3097 1187 3025 
Q 903 2953 641 2809 
L 641 3341 
Q 956 3463 1253 3523 
Q 1550 3584 1831 3584 
Q 2591 3584 2966 3190 
Q 3341 2797 3341 1997 
z
" transform="scale(0.015625)"/>
      <path id="DejaVuSans-64" d="M 2906 2969 
L 2906 4863 
L 3481 4863 
L 3481 0 
L 2906 0 
L 2906 525 
Q 2725 213 2448 61 
Q 2172 -91 1784 -91 
Q 1150 -91 751 415 
Q 353 922 353 1747 
Q 353 2572 751 3078 
Q 1150 3584 1784 3584 
Q 2172 3584 2448 3432 
Q 2725 3281 2906 2969 
z
M 947 1747 
Q 947 1113 1208 752 
Q 1469 391 1925 391 
Q 2381 391 2643 752 
Q 2906 1113 2906 1747 
Q 2906 2381 2643 2742 
Q 2381 3103 1925 3103 
Q 1469 3103 1208 2742 
Q 947 2381 947 1747 
z
" transform="scale(0.015625)"/>
      <path id="DejaVuSans-50" d="M 1259 4147 
L 1259 2394 
L 2053 2394 
Q 2494 2394 2734 2622 
Q 2975 2850 2975 3272 
Q 2975 3691 2734 3919 
Q 2494 4147 2053 4147 
L 1259 4147 
z
M 628 4666 
L 2053 4666 
Q 2838 4666 3239 4311 
Q 3641 3956 3641 3272 
Q 3641 2581 3239 2228 
Q 2838 1875 2053 1875 
L 1259 1875 
L 1259 0 
L 628 0 
L 628 4666 
z
" transform="scale(0.015625)"/>
      <path id="DejaVuSans-6c" d="M 603 4863 
L 1178 4863 
L 1178 0 
L 603 0 
L 603 4863 
z
" transform="scale(0.015625)"/>
      <path id="DejaVuSans-2c" d="M 750 794 
L 1409 794 
L 1409 256 
L 897 -744 
L 494 -744 
L 750 256 
L 750 794 
z
" transform="scale(0.015625)"/>
      <path id="DejaVuSans-79" d="M 2059 -325 
Q 1816 -950 1584 -1140 
Q 1353 -1331 966 -1331 
L 506 -1331 
L 506 -850 
L 844 -850 
Q 1081 -850 1212 -737 
Q 1344 -625 1503 -206 
L 1606 56 
L 191 3500 
L 800 3500 
L 1894 763 
L 2988 3500 
L 3597 3500 
L 2059 -325 
z
" transform="scale(0.015625)"/>
      <path id="DejaVuSans-2e" d="M 684 794 
L 1344 794 
L 1344 0 
L 684 0 
L 684 794 
z
" transform="scale(0.015625)"/>
      <path id="DejaVuSans-3a" d="M 750 794 
L 1409 794 
L 1409 0 
L 750 0 
L 750 794 
z
M 750 3309 
L 1409 3309 
L 1409 2516 
L 750 2516 
L 750 3309 
z
" transform="scale(0.015625)"/>
     </defs>
     <use xlink:href="#DejaVuSans-4e"/>
     <use xlink:href="#DejaVuSans-75" x="74.804688"/>
     <use xlink:href="#DejaVuSans-6d" x="138.183594"/>
     <use xlink:href="#DejaVuSans-62" x="235.595703"/>
     <use xlink:href="#DejaVuSans-65" x="299.072266"/>
     <use xlink:href="#DejaVuSans-72" x="360.595703"/>
     <use xlink:href="#DejaVuSans-20" x="401.708984"/>
     <use xlink:href="#DejaVuSans-6f" x="433.496094"/>
     <use xlink:href="#DejaVuSans-66" x="494.677734"/>
     <use xlink:href="#DejaVuSans-20" x="529.882812"/>
     <use xlink:href="#DejaVuSans-41" x="561.669922"/>
     <use xlink:href="#DejaVuSans-45" x="630.078125"/>
     <use xlink:href="#DejaVuSans-44" x="693.261719"/>
     <use xlink:href="#DejaVuSans-73" x="770.263672"/>
     <use xlink:href="#DejaVuSans-20" x="822.363281"/>
     <use xlink:href="#DejaVuSans-69" x="854.150391"/>
     <use xlink:href="#DejaVuSans-6e" x="881.933594"/>
     <use xlink:href="#DejaVuSans-20" x="945.3125"/>
     <use xlink:href="#DejaVuSans-74" x="977.099609"/>
     <use xlink:href="#DejaVuSans-68" x="1016.308594"/>
     <use xlink:href="#DejaVuSans-65" x="1079.6875"/>
     <use xlink:href="#DejaVuSans-20" x="1141.210938"/>
     <use xlink:href="#DejaVuSans-4f" x="1172.998047"/>
     <use xlink:href="#DejaVuSans-70" x="1251.708984"/>
     <use xlink:href="#DejaVuSans-65" x="1315.185547"/>
     <use xlink:href="#DejaVuSans-6e" x="1376.708984"/>
     <use xlink:href="#DejaVuSans-53" x="1440.087891"/>
     <use xlink:href="#DejaVuSans-74" x="1503.564453"/>
     <use xlink:href="#DejaVuSans-72" x="1542.773438"/>
     <use xlink:href="#DejaVuSans-65" x="1581.636719"/>
     <use xlink:href="#DejaVuSans-65" x="1643.160156"/>
     <use xlink:href="#DejaVuSans-74" x="1704.683594"/>
     <use xlink:href="#DejaVuSans-4d" x="1743.892578"/>
     <use xlink:href="#DejaVuSans-61" x="1830.171875"/>
     <use xlink:href="#DejaVuSans-70" x="1891.451172"/>
     <use xlink:href="#DejaVuSans-20" x="1954.927734"/>
     <use xlink:href="#DejaVuSans-64" x="1986.714844"/>
     <use xlink:href="#DejaVuSans-61" x="2050.191406"/>
     <use xlink:href="#DejaVuSans-74" x="2111.470703"/>
     <use xlink:href="#DejaVuSans-61" x="2150.679688"/>
     <use xlink:href="#DejaVuSans-62" x="2211.958984"/>
     <use xlink:href="#DejaVuSans-61" x="2275.435547"/>
     <use xlink:href="#DejaVuSans-73" x="2336.714844"/>
     <use xlink:href="#DejaVuSans-65" x="2388.814453"/>
     <use xlink:href="#DejaVuSans-20" x="2450.337891"/>
     <use xlink:href="#DejaVuSans-69" x="2482.125"/>
     <use xlink:href="#DejaVuSans-6e" x="2509.908203"/>
     <use xlink:href="#DejaVuSans-20" x="2573.287109"/>
     <use xlink:href="#DejaVuSans-50" x="2605.074219"/>
     <use xlink:href="#DejaVuSans-6f" x="2661.751953"/>
     <use xlink:href="#DejaVuSans-6c" x="2722.933594"/>
     <use xlink:href="#DejaVuSans-61" x="2750.716797"/>
     <use xlink:href="#DejaVuSans-6e" x="2811.996094"/>
     <use xlink:href="#DejaVuSans-64" x="2875.375"/>
     <use xlink:href="#DejaVuSans-20" x="2938.851562"/>
     <use xlink:href="#DejaVuSans-66" x="2970.638672"/>
     <use xlink:href="#DejaVuSans-72" x="3005.84375"/>
     <use xlink:href="#DejaVuSans-6f" x="3044.707031"/>
     <use xlink:href="#DejaVuSans-6d" x="3105.888672"/>
     <use xlink:href="#DejaVuSans-20" x="3203.300781"/>
     <use xlink:href="#DejaVuSans-32" x="3235.087891"/>
     <use xlink:href="#DejaVuSans-30" x="3298.710938"/>
     <use xlink:href="#DejaVuSans-32" x="3362.333984"/>
     <use xlink:href="#DejaVuSans-36" x="3425.957031"/>
     <use xlink:href="#DejaVuSans-2d" x="3489.580078"/>
     <use xlink:href="#DejaVuSans-30" x="3525.664062"/>
     <use xlink:href="#DejaVuSans-31" x="3589.287109"/>
     <use xlink:href="#DejaVuSans-2d" x="3652.910156"/>
     <use xlink:href="#DejaVuSans-30" x="3688.994141"/>
     <use xlink:href="#DejaVuSans-31" x="3752.617188"/>
     <use xlink:href="#DejaVuSans-2c" x="3816.240234"/>
     <use xlink:href="#DejaVuSans-20" x="3848.027344"/>
     <use xlink:href="#DejaVuSans-64" x="3879.814453"/>
     <use xlink:href="#DejaVuSans-61" x="3943.291016"/>
     <use xlink:href="#DejaVuSans-79" x="4004.570312"/>
     <use xlink:href="#DejaVuSans-20" x="4063.75"/>
     <use xlink:href="#DejaVuSans-62" x="4095.537109"/>
     <use xlink:href="#DejaVuSans-79" x="4159.013672"/>
     <use xlink:href="#DejaVuSans-20" x="4218.193359"/>
     <use xlink:href="#DejaVuSans-64" x="4249.980469"/>
     <use xlink:href="#DejaVuSans-61" x="4313.457031"/>
     <use xlink:href="#DejaVuSans-79" x="4374.736328"/>
     <use xlink:href="#DejaVuSans-2e" x="4419.666016"/>
     <use xlink:href="#DejaVuSans-20" x="4451.453125"/>
     <use xlink:href="#DejaVuSans-41" x="4483.240234"/>
     <use xlink:href="#DejaVuSans-73" x="4551.648438"/>
     <use xlink:href="#DejaVuSans-20" x="4603.748047"/>
     <use xlink:href="#DejaVuSans-61" x="4635.535156"/>
     <use xlink:href="#DejaVuSans-74" x="4696.814453"/>
     <use xlink:href="#DejaVuSans-3a" x="4736.023438"/>
     <use xlink:href="#DejaVuSans-20" x="4769.714844"/>
     <use xlink:href="#DejaVuSans-32" x="4801.501953"/>
     <use xlink:href="#DejaVuSans-30" x="4865.125"/>
     <use xlink:href="#DejaVuSans-32" x="4928.748047"/>
     <use xlink:href="#DejaVuSans-36" x="4992.371094"/>
     <use xlink:href="#DejaVuSans-2d" x="5055.994141"/>
     <use xlink:href="#DejaVuSans-30" x="5092.078125"/>
     <use xlink:href="#DejaVuSans-34" x="5155.701172"/>
     <use xlink:href="#DejaVuSans-2d" x="5219.324219"/>
     <use xlink:href="#DejaVuSans-30" x="5255.408203"/>
     <use xlink:href="#DejaVuSans-32" x="5319.03125"/>
    </g>
   </g>
  </g>
 </g>
 <defs>
  <clipPath id="p5f0e4bd033">
   <rect x="144" y="69.12" width="892.8" height="443.52"/>
  </clipPath>
 </defs>
</svg>
