<?xml version="1.0" encoding="utf-8" standalone="no"?>
<!DOCTYPE svg PUBLIC "-//W3C//DTD SVG 1.1//EN"
  "http://www.w3.org/Graphics/SVG/1.1/DTD/svg11.dtd">
<svg xmlns:xlink="http://www.w3.org/1999/xlink" width="1152pt" height="576pt" viewBox="0 0 1152 576" xmlns="http://www.w3.org/2000/svg" version="1.1">
 <metadata>
  <rdf:RDF xmlns:dc="http://purl.org/dc/elements/1.1/" xmlns:cc="http://creativecommons.org/ns#" xmlns:rdf="http://www.w3.org/1999/02/22-rdf-syntax-ns#">
   <cc:Work>
    <dc:type rdf:resource="http://purl.org/dc/dcmitype/StillImage"/>
    <dc:date>1980-01-01T00:00:00+00:00</dc:date>
    <dc:format>image/svg+xml</dc:format>
    <dc:creator>
     <cc:Agent>
      <dc:title>Matplotlib v3.9.1, https://matplotlib.org/</dc:title>
     </cc:Agent>
    </dc:creator>
   </cc:Work>
  </rdf:RDF>
 </metadata>
 <defs>
  <style type="text/css">*{stroke-linejoin: round; stroke-linecap: butt}</style>
 </defs>
 <g id="figure_1">
  <g id="patch_1">
   <path d="M 0 576 
L 1152 576 
L 1152 0 
L 0 0 
z
" style="fill: #ffffff"/>
  </g>
  <g id="axes_1">
   <g id="patch_2">
    <path d="M 144 512.64 
L 1036.8 512.64 
L 1036.8 69.12 
L 144 69.12 
z
" style="fill: #ffffff"/>
   </g>
   <g id="PathCollection_1">
    <path d="M 184.581818 494.716068 
C 185.17483 494.716068 185.743634 494.480462 186.162957 494.061139 
C 186.58228 493.641816 186.817886 493.073012 186.817886 492.48 
C 186.817886 491.886988 186.58228 491.318184 186.162957 490.898861 
C 185.743634 490.479538 185.17483 490.243932 184.581818 490.243932 
C 183.988806 490.243932 183.420002 490.479538 183.000679 490.898861 
C 182.581356 491.318184 182.34575 491.886988 182.34575 492.48 
C 182.34575 493.073012 182.581356 493.641816 183.000679 494.061139 
C 183.420002 494.480462 183.988806 494.716068 184.581818 494.716068 
z
" clip-path="url(#pe4760c6123)" style="fill: #1f77b4; fill-opacity: 0.3; stroke: #1f77b4; stroke-opacity: 0.3"/>
    <path d="M 197.068531 495.139393 
C 198.006166 495.139393 198.905524 494.766867 199.568531 494.103859 
C 200.231539 493.440851 200.604065 492.541494 200.604065 491.603859 
C 200.604065 490.666225 200.231539 489.766867 199.568531 489.103859 
C 198.905524 488.440851 198.006166 488.068325 197.068531 488.068325 
C 196.130897 488.068325 195.231539 488.440851 194.568531 489.103859 
C 193.905524 489.766867 193.532998 490.666225 193.532998 491.603859 
C 193.532998 492.541494 193.905524 493.440851 194.568531 494.103859 
C 195.231539 494.766867 196.130897 495.139393 197.068531 495.139393 
z
" clip-path="url(#pe4760c6123)" style="fill: #1f77b4; fill-opacity: 0.3; stroke: #1f77b4; stroke-opacity: 0.3"/>
    <path d="M 209.555245 495.099161 
C 211.179275 495.099161 212.737009 494.453927 213.885372 493.305564 
C 215.033735 492.157201 215.678969 490.599467 215.678969 488.975437 
C 215.678969 487.351406 215.033735 485.793673 213.885372 484.64531 
C 212.737009 483.496947 211.179275 482.851712 209.555245 482.851712 
C 207.931214 482.851712 206.373481 483.496947 205.225118 484.64531 
C 204.076755 485.793673 203.43152 487.351406 203.43152 488.975437 
C 203.43152 490.599467 204.076755 492.157201 205.225118 493.305564 
C 206.373481 494.453927 207.931214 495.099161 209.555245 495.099161 
z
" clip-path="url(#pe4760c6123)" style="fill: #1f77b4; fill-opacity: 0.3; stroke: #1f77b4; stroke-opacity: 0.3"/>
    <path d="M 222.041958 491.188365 
C 222.768247 491.188365 223.464886 490.899808 223.97845 490.386244 
C 224.492013 489.87268 224.780571 489.176041 224.780571 488.449752 
C 224.780571 487.723464 224.492013 487.026824 223.97845 486.513261 
C 223.464886 485.999697 222.768247 485.711139 222.041958 485.711139 
C 221.315669 485.711139 220.61903 485.999697 220.105466 486.513261 
C 219.591903 487.026824 219.303345 487.723464 219.303345 488.449752 
C 219.303345 489.176041 219.591903 489.87268 220.105466 490.386244 
C 220.61903 490.899808 221.315669 491.188365 222.041958 491.188365 
z
" clip-path="url(#pe4760c6123)" style="fill: #1f77b4; fill-opacity: 0.3; stroke: #1f77b4; stroke-opacity: 0.3"/>
    <path d="M 234.528671 491.520063 
C 235.714696 491.520063 236.852303 491.04885 237.690949 490.210205 
C 238.529595 489.371559 239.000807 488.233951 239.000807 487.047927 
C 239.000807 485.861903 238.529595 484.724295 237.690949 483.885649 
C 236.852303 483.047003 235.714696 482.575791 234.528671 482.575791 
C 233.342647 482.575791 232.20504 483.047003 231.366394 483.885649 
C 230.527748 484.724295 230.056535 485.861903 230.056535 487.047927 
C 230.056535 488.233951 230.527748 489.371559 231.366394 490.210205 
C 232.20504 491.04885 233.342647 491.520063 234.528671 491.520063 
z
" clip-path="url(#pe4760c6123)" style="fill: #1f77b4; fill-opacity: 0.3; stroke: #1f77b4; stroke-opacity: 0.3"/>
    <path d="M 247.015385 490.295645 
C 248.3414 490.295645 249.613284 489.768814 250.550919 488.831179 
C 251.488553 487.893545 252.015385 486.621661 252.015385 485.295645 
C 252.015385 483.96963 251.488553 482.697746 250.550919 481.760111 
C 249.613284 480.822477 248.3414 480.295645 247.015385 480.295645 
C 245.689369 480.295645 244.417485 480.822477 243.479851 481.760111 
C 242.542216 482.697746 242.015385 483.96963 242.015385 485.295645 
C 242.015385 486.621661 242.542216 487.893545 243.479851 488.831179 
C 244.417485 489.768814 245.689369 490.295645 247.015385 490.295645 
z
" clip-path="url(#pe4760c6123)" style="fill: #1f77b4; fill-opacity: 0.3; stroke: #1f77b4; stroke-opacity: 0.3"/>
    <path d="M 259.502098 487.181257 
C 260.09511 487.181257 260.663914 486.945651 261.083237 486.526328 
C 261.50256 486.107005 261.738166 485.538201 261.738166 484.945189 
C 261.738166 484.352177 261.50256 483.783373 261.083237 483.36405 
C 260.663914 482.944727 260.09511 482.709121 259.502098 482.709121 
C 258.909086 482.709121 258.340282 482.944727 257.920959 483.36405 
C 257.501636 483.783373 257.26603 484.352177 257.26603 484.945189 
C 257.26603 485.538201 257.501636 486.107005 257.920959 486.526328 
C 258.340282 486.945651 258.909086 487.181257 259.502098 487.181257 
z
" clip-path="url(#pe4760c6123)" style="fill: #1f77b4; fill-opacity: 0.3; stroke: #1f77b4; stroke-opacity: 0.3"/>
    <path d="M 271.988811 488.0155 
C 273.174836 488.0155 274.312443 487.544287 275.151089 486.705641 
C 275.989735 485.866996 276.460947 484.729388 276.460947 483.543364 
C 276.460947 482.357339 275.989735 481.219732 275.151089 480.381086 
C 274.312443 479.54244 273.174836 479.071228 271.988811 479.071228 
C 270.802787 479.071228 269.665179 479.54244 268.826534 480.381086 
C 267.987888 481.219732 267.516675 482.357339 267.516675 483.543364 
C 267.516675 484.729388 267.987888 485.866996 268.826534 486.705641 
C 269.665179 487.544287 270.802787 488.0155 271.988811 488.0155 
z
" clip-path="url(#pe4760c6123)" style="fill: #1f77b4; fill-opacity: 0.3; stroke: #1f77b4; stroke-opacity: 0.3"/>
    <path d="M 284.475524 485.756292 
C 285.201813 485.756292 285.898453 485.467735 286.412016 484.954171 
C 286.92558 484.440607 287.214137 483.743968 287.214137 483.017679 
C 287.214137 482.291391 286.92558 481.594751 286.412016 481.081188 
C 285.898453 480.567624 285.201813 480.279066 284.475524 480.279066 
C 283.749236 480.279066 283.052596 480.567624 282.539033 481.081188 
C 282.025469 481.594751 281.736912 482.291391 281.736912 483.017679 
C 281.736912 483.743968 282.025469 484.440607 282.539033 484.954171 
C 283.052596 485.467735 283.749236 485.756292 284.475524 485.756292 
z
" clip-path="url(#pe4760c6123)" style="fill: #1f77b4; fill-opacity: 0.3; stroke: #1f77b4; stroke-opacity: 0.3"/>
    <path d="M 296.962238 485.479044 
C 297.800884 485.479044 298.605294 485.145847 299.198306 484.552835 
C 299.791318 483.959822 300.124515 483.155412 300.124515 482.316767 
C 300.124515 481.478121 299.791318 480.673711 299.198306 480.080699 
C 298.605294 479.487686 297.800884 479.154489 296.962238 479.154489 
C 296.123592 479.154489 295.319182 479.487686 294.72617 480.080699 
C 294.133158 480.673711 293.79996 481.478121 293.79996 482.316767 
C 293.79996 483.155412 294.133158 483.959822 294.72617 484.552835 
C 295.319182 485.145847 296.123592 485.479044 296.962238 485.479044 
z
" clip-path="url(#pe4760c6123)" style="fill: #1f77b4; fill-opacity: 0.3; stroke: #1f77b4; stroke-opacity: 0.3"/>
    <path d="M 309.448951 484.202378 
C 310.041963 484.202378 310.610767 483.966772 311.03009 483.547449 
C 311.449413 483.128126 311.685019 482.559322 311.685019 481.96631 
C 311.685019 481.373298 311.449413 480.804494 311.03009 480.385171 
C 310.610767 479.965849 310.041963 479.730242 309.448951 479.730242 
C 308.855939 479.730242 308.287135 479.965849 307.867812 480.385171 
C 307.448489 480.804494 307.212883 481.373298 307.212883 481.96631 
C 307.212883 482.559322 307.448489 483.128126 307.867812 483.547449 
C 308.287135 483.966772 308.855939 484.202378 309.448951 484.202378 
z
" clip-path="url(#pe4760c6123)" style="fill: #1f77b4; fill-opacity: 0.3; stroke: #1f77b4; stroke-opacity: 0.3"/>
    <path d="M 321.935664 484.625703 
C 322.873299 484.625703 323.772657 484.253177 324.435664 483.590169 
C 325.098672 482.927162 325.471198 482.027804 325.471198 481.090169 
C 325.471198 480.152535 325.098672 479.253177 324.435664 478.590169 
C 323.772657 477.927162 322.873299 477.554636 321.935664 477.554636 
C 320.99803 477.554636 320.098672 477.927162 319.435664 478.590169 
C 318.772657 479.253177 318.40013 480.152535 318.40013 481.090169 
C 318.40013 482.027804 318.772657 482.927162 319.435664 483.590169 
C 320.098672 484.253177 320.99803 484.625703 321.935664 484.625703 
z
" clip-path="url(#pe4760c6123)" style="fill: #1f77b4; fill-opacity: 0.3; stroke: #1f77b4; stroke-opacity: 0.3"/>
    <path d="M 334.422378 483.551535 
C 335.261023 483.551535 336.065433 483.218337 336.658446 482.625325 
C 337.251458 482.032313 337.584655 481.227903 337.584655 480.389257 
C 337.584655 479.550611 337.251458 478.746201 336.658446 478.153189 
C 336.065433 477.560177 335.261023 477.226979 334.422378 477.226979 
C 333.583732 477.226979 332.779322 477.560177 332.18631 478.153189 
C 331.593297 478.746201 331.2601 479.550611 331.2601 480.389257 
C 331.2601 481.227903 331.593297 482.032313 332.18631 482.625325 
C 332.779322 483.218337 333.583732 483.551535 334.422378 483.551535 
z
" clip-path="url(#pe4760c6123)" style="fill: #1f77b4; fill-opacity: 0.3; stroke: #1f77b4; stroke-opacity: 0.3"/>
    <path d="M 346.909091 483.04865 
C 347.846725 483.04865 348.746083 482.676124 349.409091 482.013116 
C 350.072099 481.350108 350.444625 480.450751 350.444625 479.513116 
C 350.444625 478.575481 350.072099 477.676124 349.409091 477.013116 
C 348.746083 476.350108 347.846725 475.977582 346.909091 475.977582 
C 345.971456 475.977582 345.072099 476.350108 344.409091 477.013116 
C 343.746083 477.676124 343.373557 478.575481 343.373557 479.513116 
C 343.373557 480.450751 343.746083 481.350108 344.409091 482.013116 
C 345.072099 482.676124 345.971456 483.04865 346.909091 483.04865 
z
" clip-path="url(#pe4760c6123)" style="fill: #1f77b4; fill-opacity: 0.3; stroke: #1f77b4; stroke-opacity: 0.3"/>
    <path d="M 359.395804 482.172509 
C 360.333439 482.172509 361.232796 481.799983 361.895804 481.136975 
C 362.558812 480.473967 362.931338 479.57461 362.931338 478.636975 
C 362.931338 477.699341 362.558812 476.799983 361.895804 476.136975 
C 361.232796 475.473967 360.333439 475.101441 359.395804 475.101441 
C 358.45817 475.101441 357.558812 475.473967 356.895804 476.136975 
C 356.232796 476.799983 355.86027 477.699341 355.86027 478.636975 
C 355.86027 479.57461 356.232796 480.473967 356.895804 481.136975 
C 357.558812 481.799983 358.45817 482.172509 359.395804 482.172509 
z
" clip-path="url(#pe4760c6123)" style="fill: #1f77b4; fill-opacity: 0.3; stroke: #1f77b4; stroke-opacity: 0.3"/>
    <path d="M 371.882517 481.45859 
C 372.909645 481.45859 373.894842 481.050508 374.62113 480.324219 
C 375.347419 479.59793 375.755501 478.612733 375.755501 477.585606 
C 375.755501 476.558479 375.347419 475.573282 374.62113 474.846993 
C 373.894842 474.120705 372.909645 473.712623 371.882517 473.712623 
C 370.85539 473.712623 369.870193 474.120705 369.143905 474.846993 
C 368.417616 475.573282 368.009534 476.558479 368.009534 477.585606 
C 368.009534 478.612733 368.417616 479.59793 369.143905 480.324219 
C 369.870193 481.050508 370.85539 481.45859 371.882517 481.45859 
z
" clip-path="url(#pe4760c6123)" style="fill: #1f77b4; fill-opacity: 0.3; stroke: #1f77b4; stroke-opacity: 0.3"/>
    <path d="M 384.369231 480.244999 
C 385.306865 480.244999 386.206223 479.872473 386.869231 479.209465 
C 387.532239 478.546458 387.904765 477.6471 387.904765 476.709465 
C 387.904765 475.771831 387.532239 474.872473 386.869231 474.209465 
C 386.206223 473.546458 385.306865 473.173932 384.369231 473.173932 
C 383.431596 473.173932 382.532239 473.546458 381.869231 474.209465 
C 381.206223 474.872473 380.833697 475.771831 380.833697 476.709465 
C 380.833697 477.6471 381.206223 478.546458 381.869231 479.209465 
C 382.532239 479.872473 383.431596 480.244999 384.369231 480.244999 
z
" clip-path="url(#pe4760c6123)" style="fill: #1f77b4; fill-opacity: 0.3; stroke: #1f77b4; stroke-opacity: 0.3"/>
    <path d="M 396.855944 479.53108 
C 397.883071 479.53108 398.868268 479.122998 399.594557 478.396709 
C 400.320845 477.670421 400.728927 476.685224 400.728927 475.658096 
C 400.728927 474.630969 400.320845 473.645772 399.594557 472.919484 
C 398.868268 472.193195 397.883071 471.785113 396.855944 471.785113 
C 395.828817 471.785113 394.84362 472.193195 394.117331 472.919484 
C 393.391043 473.645772 392.982961 474.630969 392.982961 475.658096 
C 392.982961 476.685224 393.391043 477.670421 394.117331 478.396709 
C 394.84362 479.122998 395.828817 479.53108 396.855944 479.53108 
z
" clip-path="url(#pe4760c6123)" style="fill: #1f77b4; fill-opacity: 0.3; stroke: #1f77b4; stroke-opacity: 0.3"/>
    <path d="M 409.342657 478.614799 
C 410.452082 478.614799 411.516216 478.174021 412.300697 477.389539 
C 413.085179 476.605058 413.525957 475.540924 413.525957 474.431499 
C 413.525957 473.322075 413.085179 472.257941 412.300697 471.473459 
C 411.516216 470.688978 410.452082 470.248199 409.342657 470.248199 
C 408.233233 470.248199 407.169099 470.688978 406.384617 471.473459 
C 405.600136 472.257941 405.159357 473.322075 405.159357 474.431499 
C 405.159357 475.540924 405.600136 476.605058 406.384617 477.389539 
C 407.169099 478.174021 408.233233 478.614799 409.342657 478.614799 
z
" clip-path="url(#pe4760c6123)" style="fill: #1f77b4; fill-opacity: 0.3; stroke: #1f77b4; stroke-opacity: 0.3"/>
    <path d="M 421.829371 477.388202 
C 422.938795 477.388202 424.002929 476.947423 424.787411 476.162942 
C 425.571892 475.378461 426.012671 474.314326 426.012671 473.204902 
C 426.012671 472.095478 425.571892 471.031344 424.787411 470.246862 
C 424.002929 469.462381 422.938795 469.021602 421.829371 469.021602 
C 420.719946 469.021602 419.655812 469.462381 418.871331 470.246862 
C 418.086849 471.031344 417.64607 472.095478 417.64607 473.204902 
C 417.64607 474.314326 418.086849 475.378461 418.871331 476.162942 
C 419.655812 476.947423 420.719946 477.388202 421.829371 477.388202 
z
" clip-path="url(#pe4760c6123)" style="fill: #1f77b4; fill-opacity: 0.3; stroke: #1f77b4; stroke-opacity: 0.3"/>
    <path d="M 434.316084 476.026517 
C 435.343211 476.026517 436.328408 475.618435 437.054697 474.892146 
C 437.780985 474.165857 438.189067 473.18066 438.189067 472.153533 
C 438.189067 471.126406 437.780985 470.141209 437.054697 469.41492 
C 436.328408 468.688632 435.343211 468.28055 434.316084 468.28055 
C 433.288957 468.28055 432.30376 468.688632 431.577471 469.41492 
C 430.851183 470.141209 430.443101 471.126406 430.443101 472.153533 
C 430.443101 473.18066 430.851183 474.165857 431.577471 474.892146 
C 432.30376 475.618435 433.288957 476.026517 434.316084 476.026517 
z
" clip-path="url(#pe4760c6123)" style="fill: #1f77b4; fill-opacity: 0.3; stroke: #1f77b4; stroke-opacity: 0.3"/>
    <path d="M 446.802797 475.470068 
C 448.193534 475.470068 449.527497 474.917522 450.510896 473.934123 
C 451.494296 472.950723 452.046841 471.61676 452.046841 470.226023 
C 452.046841 468.835287 451.494296 467.501324 450.510896 466.517924 
C 449.527497 465.534525 448.193534 464.981979 446.802797 464.981979 
C 445.41206 464.981979 444.078097 465.534525 443.094698 466.517924 
C 442.111299 467.501324 441.558753 468.835287 441.558753 470.226023 
C 441.558753 471.61676 442.111299 472.950723 443.094698 473.934123 
C 444.078097 474.917522 445.41206 475.470068 446.802797 475.470068 
z
" clip-path="url(#pe4760c6123)" style="fill: #1f77b4; fill-opacity: 0.3; stroke: #1f77b4; stroke-opacity: 0.3"/>
    <path d="M 459.28951 473.746928 
C 460.966802 473.746928 462.575622 473.080533 463.761646 471.894509 
C 464.947671 470.708485 465.614066 469.099665 465.614066 467.422373 
C 465.614066 465.745081 464.947671 464.136261 463.761646 462.950237 
C 462.575622 461.764213 460.966802 461.097818 459.28951 461.097818 
C 457.612219 461.097818 456.003399 461.764213 454.817375 462.950237 
C 453.63135 464.136261 452.964955 465.745081 452.964955 467.422373 
C 452.964955 469.099665 453.63135 470.708485 454.817375 471.894509 
C 456.003399 473.080533 457.612219 473.746928 459.28951 473.746928 
z
" clip-path="url(#pe4760c6123)" style="fill: #1f77b4; fill-opacity: 0.3; stroke: #1f77b4; stroke-opacity: 0.3"/>
    <path d="M 471.776224 470.962864 
C 473.830478 470.962864 475.800872 470.1467 477.253449 468.694123 
C 478.706027 467.241545 479.52219 465.271151 479.52219 463.216897 
C 479.52219 461.162643 478.706027 459.192249 477.253449 457.739671 
C 475.800872 456.287094 473.830478 455.47093 471.776224 455.47093 
C 469.721969 455.47093 467.751575 456.287094 466.298998 457.739671 
C 464.846421 459.192249 464.030257 461.162643 464.030257 463.216897 
C 464.030257 465.271151 464.846421 467.241545 466.298998 468.694123 
C 467.751575 470.1467 469.721969 470.962864 471.776224 470.962864 
z
" clip-path="url(#pe4760c6123)" style="fill: #1f77b4; fill-opacity: 0.3; stroke: #1f77b4; stroke-opacity: 0.3"/>
    <path d="M 484.262937 466.1736 
C 485.372361 466.1736 486.436496 465.732821 487.220977 464.94834 
C 488.005458 464.163858 488.446237 463.099724 488.446237 461.9903 
C 488.446237 460.880876 488.005458 459.816741 487.220977 459.03226 
C 486.436496 458.247779 485.372361 457.807 484.262937 457.807 
C 483.153513 457.807 482.089379 458.247779 481.304897 459.03226 
C 480.520416 459.816741 480.079637 460.880876 480.079637 461.9903 
C 480.079637 463.099724 480.520416 464.163858 481.304897 464.94834 
C 482.089379 465.732821 483.153513 466.1736 484.262937 466.1736 
z
" clip-path="url(#pe4760c6123)" style="fill: #1f77b4; fill-opacity: 0.3; stroke: #1f77b4; stroke-opacity: 0.3"/>
    <path d="M 496.74965 465.413211 
C 498.261541 465.413211 499.711711 464.812531 500.780779 463.743463 
C 501.849847 462.674395 502.450527 461.224224 502.450527 459.712334 
C 502.450527 458.200443 501.849847 456.750273 500.780779 455.681205 
C 499.711711 454.612137 498.261541 454.011457 496.74965 454.011457 
C 495.23776 454.011457 493.787589 454.612137 492.718521 455.681205 
C 491.649454 456.750273 491.048773 458.200443 491.048773 459.712334 
C 491.048773 461.224224 491.649454 462.674395 492.718521 463.743463 
C 493.787589 464.812531 495.23776 465.413211 496.74965 465.413211 
z
" clip-path="url(#pe4760c6123)" style="fill: #1f77b4; fill-opacity: 0.3; stroke: #1f77b4; stroke-opacity: 0.3"/>
    <path d="M 509.236364 463.135245 
C 510.748254 463.135245 512.198425 462.534564 513.267493 461.465497 
C 514.33656 460.396429 514.937241 458.946258 514.937241 457.434368 
C 514.937241 455.922477 514.33656 454.472307 513.267493 453.403239 
C 512.198425 452.334171 510.748254 451.733491 509.236364 451.733491 
C 507.724473 451.733491 506.274303 452.334171 505.205235 453.403239 
C 504.136167 454.472307 503.535487 455.922477 503.535487 457.434368 
C 503.535487 458.946258 504.136167 460.396429 505.205235 461.465497 
C 506.274303 462.534564 507.724473 463.135245 509.236364 463.135245 
z
" clip-path="url(#pe4760c6123)" style="fill: #1f77b4; fill-opacity: 0.3; stroke: #1f77b4; stroke-opacity: 0.3"/>
    <path d="M 521.723077 460.734789 
C 524.131904 460.734789 526.442395 459.777752 528.145693 458.074455 
C 529.848991 456.371157 530.806028 454.060665 530.806028 451.651838 
C 530.806028 449.243012 529.848991 446.93252 528.145693 445.229222 
C 526.442395 443.525924 524.131904 442.568887 521.723077 442.568887 
C 519.31425 442.568887 517.003758 443.525924 515.300461 445.229222 
C 513.597163 446.93252 512.640126 449.243012 512.640126 451.651838 
C 512.640126 454.060665 513.597163 456.371157 515.300461 458.074455 
C 517.003758 459.777752 519.31425 460.734789 521.723077 460.734789 
z
" clip-path="url(#pe4760c6123)" style="fill: #1f77b4; fill-opacity: 0.3; stroke: #1f77b4; stroke-opacity: 0.3"/>
    <path d="M 534.20979 455.023174 
C 536.544481 455.023174 538.783864 454.095591 540.43474 452.444715 
C 542.085616 450.793839 543.013199 448.554457 543.013199 446.219765 
C 543.013199 443.885074 542.085616 441.645692 540.43474 439.994816 
C 538.783864 438.34394 536.544481 437.416357 534.20979 437.416357 
C 531.875099 437.416357 529.635716 438.34394 527.98484 439.994816 
C 526.333964 441.645692 525.406382 443.885074 525.406382 446.219765 
C 525.406382 448.554457 526.333964 450.793839 527.98484 452.444715 
C 529.635716 454.095591 531.875099 455.023174 534.20979 455.023174 
z
" clip-path="url(#pe4760c6123)" style="fill: #1f77b4; fill-opacity: 0.3; stroke: #1f77b4; stroke-opacity: 0.3"/>
    <path d="M 546.696503 449.520187 
C 549.10533 449.520187 551.415822 448.56315 553.11912 446.859852 
C 554.822418 445.156555 555.779455 442.846063 555.779455 440.437236 
C 555.779455 438.028409 554.822418 435.717917 553.11912 434.01462 
C 551.415822 432.311322 549.10533 431.354285 546.696503 431.354285 
C 544.287677 431.354285 541.977185 432.311322 540.273887 434.01462 
C 538.570589 435.717917 537.613552 438.028409 537.613552 440.437236 
C 537.613552 442.846063 538.570589 445.156555 540.273887 446.859852 
C 541.977185 448.56315 544.287677 449.520187 546.696503 449.520187 
z
" clip-path="url(#pe4760c6123)" style="fill: #1f77b4; fill-opacity: 0.3; stroke: #1f77b4; stroke-opacity: 0.3"/>
    <path d="M 559.183217 443.658394 
C 561.663965 443.658394 564.043441 442.672782 565.797595 440.918629 
C 567.551749 439.164475 568.53736 436.784998 568.53736 434.30425 
C 568.53736 431.823502 567.551749 429.444026 565.797595 427.689872 
C 564.043441 425.935718 561.663965 424.950107 559.183217 424.950107 
C 556.702469 424.950107 554.322992 425.935718 552.568839 427.689872 
C 550.814685 429.444026 549.829073 431.823502 549.829073 434.30425 
C 549.829073 436.784998 550.814685 439.164475 552.568839 440.918629 
C 554.322992 442.672782 556.702469 443.658394 559.183217 443.658394 
z
" clip-path="url(#pe4760c6123)" style="fill: #1f77b4; fill-opacity: 0.3; stroke: #1f77b4; stroke-opacity: 0.3"/>
    <path d="M 571.66993 437.86694 
C 573.497716 437.86694 575.250887 437.140752 576.543327 435.848312 
C 577.835767 434.555872 578.561954 432.802701 578.561954 430.974915 
C 578.561954 429.147129 577.835767 427.393958 576.543327 426.101518 
C 575.250887 424.809078 573.497716 424.082891 571.66993 424.082891 
C 569.842144 424.082891 568.088973 424.809078 566.796533 426.101518 
C 565.504093 427.393958 564.777906 429.147129 564.777906 430.974915 
C 564.777906 432.802701 565.504093 434.555872 566.796533 435.848312 
C 568.088973 437.140752 569.842144 437.86694 571.66993 437.86694 
z
" clip-path="url(#pe4760c6123)" style="fill: #1f77b4; fill-opacity: 0.3; stroke: #1f77b4; stroke-opacity: 0.3"/>
    <path d="M 584.156643 434.045226 
C 585.342668 434.045226 586.480275 433.574013 587.318921 432.735368 
C 588.157567 431.896722 588.628779 430.759114 588.628779 429.57309 
C 588.628779 428.387066 588.157567 427.249458 587.318921 426.410812 
C 586.480275 425.572166 585.342668 425.100954 584.156643 425.100954 
C 582.970619 425.100954 581.833012 425.572166 580.994366 426.410812 
C 580.15572 427.249458 579.684507 428.387066 579.684507 429.57309 
C 579.684507 430.759114 580.15572 431.896722 580.994366 432.735368 
C 581.833012 433.574013 582.970619 434.045226 584.156643 434.045226 
z
" clip-path="url(#pe4760c6123)" style="fill: #1f77b4; fill-opacity: 0.3; stroke: #1f77b4; stroke-opacity: 0.3"/>
    <path d="M 596.643357 433.068392 
C 598.267387 433.068392 599.825121 432.423158 600.973484 431.274795 
C 602.121847 430.126431 602.767081 428.568698 602.767081 426.944668 
C 602.767081 425.320637 602.121847 423.762904 600.973484 422.614541 
C 599.825121 421.466177 598.267387 420.820943 596.643357 420.820943 
C 595.019326 420.820943 593.461593 421.466177 592.31323 422.614541 
C 591.164867 423.762904 590.519632 425.320637 590.519632 426.944668 
C 590.519632 428.568698 591.164867 430.126431 592.31323 431.274795 
C 593.461593 432.423158 595.019326 433.068392 596.643357 433.068392 
z
" clip-path="url(#pe4760c6123)" style="fill: #1f77b4; fill-opacity: 0.3; stroke: #1f77b4; stroke-opacity: 0.3"/>
    <path d="M 609.13007 428.893999 
C 612.295889 428.893999 615.33247 427.636206 617.571041 425.397634 
C 619.809613 423.159062 621.067406 420.122481 621.067406 416.956662 
C 621.067406 413.790844 619.809613 410.754263 617.571041 408.515691 
C 615.33247 406.277119 612.295889 405.019326 609.13007 405.019326 
C 605.964251 405.019326 602.92767 406.277119 600.689098 408.515691 
C 598.450527 410.754263 597.192734 413.790844 597.192734 416.956662 
C 597.192734 420.122481 598.450527 423.159062 600.689098 425.397634 
C 602.92767 427.636206 605.964251 428.893999 609.13007 428.893999 
z
" clip-path="url(#pe4760c6123)" style="fill: #1f77b4; fill-opacity: 0.3; stroke: #1f77b4; stroke-opacity: 0.3"/>
    <path d="M 621.616783 414.364367 
C 625.994643 414.364367 630.193786 412.625025 633.289401 409.52941 
C 636.385015 406.433796 638.124357 402.234653 638.124357 397.856793 
C 638.124357 393.478933 636.385015 389.27979 633.289401 386.184175 
C 630.193786 383.088561 625.994643 381.349219 621.616783 381.349219 
C 617.238923 381.349219 613.03978 383.088561 609.944166 386.184175 
C 606.848551 389.27979 605.109209 393.478933 605.109209 397.856793 
C 605.109209 402.234653 606.848551 406.433796 609.944166 409.52941 
C 613.03978 412.625025 617.238923 414.364367 621.616783 414.364367 
z
" clip-path="url(#pe4760c6123)" style="fill: #1f77b4; fill-opacity: 0.3; stroke: #1f77b4; stroke-opacity: 0.3"/>
    <path d="M 634.103497 400.460811 
C 636.97823 400.460811 639.735608 399.318667 641.768351 397.285924 
C 643.801095 395.253181 644.943238 392.495802 644.943238 389.621069 
C 644.943238 386.746336 643.801095 383.988958 641.768351 381.956214 
C 639.735608 379.923471 636.97823 378.781327 634.103497 378.781327 
C 631.228763 378.781327 628.471385 379.923471 626.438642 381.956214 
C 624.405898 383.988958 623.263755 386.746336 623.263755 389.621069 
C 623.263755 392.495802 624.405898 395.253181 626.438642 397.285924 
C 628.471385 399.318667 631.228763 400.460811 634.103497 400.460811 
z
" clip-path="url(#pe4760c6123)" style="fill: #1f77b4; fill-opacity: 0.3; stroke: #1f77b4; stroke-opacity: 0.3"/>
    <path d="M 646.59021 390.822961 
C 650.022516 390.822961 653.314706 389.459292 655.741712 387.032285 
C 658.168719 384.605278 659.532389 381.313088 659.532389 377.880782 
C 659.532389 374.448476 658.168719 371.156287 655.741712 368.72928 
C 653.314706 366.302273 650.022516 364.938603 646.59021 364.938603 
C 643.157904 364.938603 639.865714 366.302273 637.438707 368.72928 
C 635.0117 371.156287 633.648031 374.448476 633.648031 377.880782 
C 633.648031 381.313088 635.0117 384.605278 637.438707 387.032285 
C 639.865714 389.459292 643.157904 390.822961 646.59021 390.822961 
z
" clip-path="url(#pe4760c6123)" style="fill: #1f77b4; fill-opacity: 0.3; stroke: #1f77b4; stroke-opacity: 0.3"/>
    <path d="M 659.076923 381.434879 
C 660.85596 381.434879 662.562371 380.728061 663.82034 379.470092 
C 665.078308 378.212123 665.785127 376.505712 665.785127 374.726675 
C 665.785127 372.947639 665.078308 371.241228 663.82034 369.983259 
C 662.562371 368.72529 660.85596 368.018471 659.076923 368.018471 
C 657.297887 368.018471 655.591475 368.72529 654.333507 369.983259 
C 653.075538 371.241228 652.368719 372.947639 652.368719 374.726675 
C 652.368719 376.505712 653.075538 378.212123 654.333507 379.470092 
C 655.591475 380.728061 657.297887 381.434879 659.076923 381.434879 
z
" clip-path="url(#pe4760c6123)" style="fill: #1f77b4; fill-opacity: 0.3; stroke: #1f77b4; stroke-opacity: 0.3"/>
    <path d="M 671.563636 378.098011 
C 673.898328 378.098011 676.13771 377.170428 677.788586 375.519552 
C 679.439462 373.868676 680.367045 371.629294 680.367045 369.294602 
C 680.367045 366.959911 679.439462 364.720529 677.788586 363.069653 
C 676.13771 361.418777 673.898328 360.491194 671.563636 360.491194 
C 669.228945 360.491194 666.989563 361.418777 665.338687 363.069653 
C 663.687811 364.720529 662.760228 366.959911 662.760228 369.294602 
C 662.760228 371.629294 663.687811 373.868676 665.338687 375.519552 
C 666.989563 377.170428 669.228945 378.098011 671.563636 378.098011 
z
" clip-path="url(#pe4760c6123)" style="fill: #1f77b4; fill-opacity: 0.3; stroke: #1f77b4; stroke-opacity: 0.3"/>
    <path d="M 684.05035 372.015937 
C 686.863253 372.015937 689.561326 370.898358 691.55035 368.909335 
C 693.539373 366.920312 694.656951 364.222239 694.656951 361.409335 
C 694.656951 358.596431 693.539373 355.898358 691.55035 353.909335 
C 689.561326 351.920312 686.863253 350.802733 684.05035 350.802733 
C 681.237446 350.802733 678.539373 351.920312 676.55035 353.909335 
C 674.561326 355.898358 673.443748 358.596431 673.443748 361.409335 
C 673.443748 364.222239 674.561326 366.920312 676.55035 368.909335 
C 678.539373 370.898358 681.237446 372.015937 684.05035 372.015937 
z
" clip-path="url(#pe4760c6123)" style="fill: #1f77b4; fill-opacity: 0.3; stroke: #1f77b4; stroke-opacity: 0.3"/>
    <path d="M 696.537063 364.13067 
C 699.349967 364.13067 702.04804 363.013091 704.037063 361.024068 
C 706.026086 359.035045 707.143665 356.336971 707.143665 353.524068 
C 707.143665 350.711164 706.026086 348.013091 704.037063 346.024068 
C 702.04804 344.035045 699.349967 342.917466 696.537063 342.917466 
C 693.724159 342.917466 691.026086 344.035045 689.037063 346.024068 
C 687.04804 348.013091 685.930461 350.711164 685.930461 353.524068 
C 685.930461 356.336971 687.04804 359.035045 689.037063 361.024068 
C 691.026086 363.013091 693.724159 364.13067 696.537063 364.13067 
z
" clip-path="url(#pe4760c6123)" style="fill: #1f77b4; fill-opacity: 0.3; stroke: #1f77b4; stroke-opacity: 0.3"/>
    <path d="M 709.023776 355.473399 
C 712.189595 355.473399 715.226176 354.215606 717.464748 351.977034 
C 719.70332 349.738462 720.961113 346.701881 720.961113 343.536063 
C 720.961113 340.370244 719.70332 337.333663 717.464748 335.095091 
C 715.226176 332.856519 712.189595 331.598726 709.023776 331.598726 
C 705.857958 331.598726 702.821377 332.856519 700.582805 335.095091 
C 698.344233 337.333663 697.08644 340.370244 697.08644 343.536063 
C 697.08644 346.701881 698.344233 349.738462 700.582805 351.977034 
C 702.821377 354.215606 705.857958 355.473399 709.023776 355.473399 
z
" clip-path="url(#pe4760c6123)" style="fill: #1f77b4; fill-opacity: 0.3; stroke: #1f77b4; stroke-opacity: 0.3"/>
    <path d="M 721.51049 343.832506 
C 725.213849 343.832506 728.766028 342.361146 731.384698 339.742475 
C 734.003369 337.123804 735.47473 333.571626 735.47473 329.868266 
C 735.47473 326.164906 734.003369 322.612728 731.384698 319.994057 
C 728.766028 317.375386 725.213849 315.904026 721.51049 315.904026 
C 717.80713 315.904026 714.254951 317.375386 711.636281 319.994057 
C 709.01761 322.612728 707.546249 326.164906 707.546249 329.868266 
C 707.546249 333.571626 709.01761 337.123804 711.636281 339.742475 
C 714.254951 342.361146 717.80713 343.832506 721.51049 343.832506 
z
" clip-path="url(#pe4760c6123)" style="fill: #1f77b4; fill-opacity: 0.3; stroke: #1f77b4; stroke-opacity: 0.3"/>
    <path d="M 733.997203 331.45402 
C 737.298955 331.45402 740.46592 330.14222 742.800611 327.807528 
C 745.135302 325.472837 746.447102 322.305872 746.447102 319.00412 
C 746.447102 315.702368 745.135302 312.535403 742.800611 310.200712 
C 740.46592 307.86602 737.298955 306.55422 733.997203 306.55422 
C 730.695451 306.55422 727.528486 307.86602 725.193794 310.200712 
C 722.859103 312.535403 721.547303 315.702368 721.547303 319.00412 
C 721.547303 322.305872 722.859103 325.472837 725.193794 327.807528 
C 727.528486 330.14222 730.695451 331.45402 733.997203 331.45402 
z
" clip-path="url(#pe4760c6123)" style="fill: #1f77b4; fill-opacity: 0.3; stroke: #1f77b4; stroke-opacity: 0.3"/>
    <path d="M 746.483916 322.170483 
C 747.741885 322.170483 748.9485 321.670687 749.838018 320.781168 
C 750.727536 319.89165 751.227333 318.685035 751.227333 317.427066 
C 751.227333 316.169098 750.727536 314.962483 749.838018 314.072965 
C 748.9485 313.183446 747.741885 312.68365 746.483916 312.68365 
C 745.225947 312.68365 744.019332 313.183446 743.129814 314.072965 
C 742.240296 314.962483 741.7405 316.169098 741.7405 317.427066 
C 741.7405 318.685035 742.240296 319.89165 743.129814 320.781168 
C 744.019332 321.670687 745.225947 322.170483 746.483916 322.170483 
z
" clip-path="url(#pe4760c6123)" style="fill: #1f77b4; fill-opacity: 0.3; stroke: #1f77b4; stroke-opacity: 0.3"/>
    <path d="M 758.970629 320.801554 
C 760.423207 320.801554 761.816486 320.224439 762.843613 319.197312 
C 763.87074 318.170185 764.447855 316.776906 764.447855 315.324329 
C 764.447855 313.871751 763.87074 312.478472 762.843613 311.451345 
C 761.816486 310.424218 760.423207 309.847103 758.970629 309.847103 
C 757.518052 309.847103 756.124773 310.424218 755.097646 311.451345 
C 754.070519 312.478472 753.493404 313.871751 753.493404 315.324329 
C 753.493404 316.776906 754.070519 318.170185 755.097646 319.197312 
C 756.124773 320.224439 757.518052 320.801554 758.970629 320.801554 
z
" clip-path="url(#pe4760c6123)" style="fill: #1f77b4; fill-opacity: 0.3; stroke: #1f77b4; stroke-opacity: 0.3"/>
    <path d="M 771.457343 313.419775 
C 775.692297 313.419775 779.754368 311.73721 782.748932 308.742646 
C 785.743497 305.748081 787.426062 301.68601 787.426062 297.451056 
C 787.426062 293.216102 785.743497 289.154031 782.748932 286.159466 
C 779.754368 283.164902 775.692297 281.482337 771.457343 281.482337 
C 767.222389 281.482337 763.160317 283.164902 760.165753 286.159466 
C 757.171188 289.154031 755.488623 293.216102 755.488623 297.451056 
C 755.488623 301.68601 757.171188 305.748081 760.165753 308.742646 
C 763.160317 311.73721 767.222389 313.419775 771.457343 313.419775 
z
" clip-path="url(#pe4760c6123)" style="fill: #1f77b4; fill-opacity: 0.3; stroke: #1f77b4; stroke-opacity: 0.3"/>
    <path d="M 783.944056 297.487824 
C 787.717962 297.487824 791.337807 295.988436 794.006362 293.319881 
C 796.674917 290.651326 798.174305 287.031481 798.174305 283.257575 
C 798.174305 279.483669 796.674917 275.863824 794.006362 273.195269 
C 791.337807 270.526714 787.717962 269.027325 783.944056 269.027325 
C 780.17015 269.027325 776.550305 270.526714 773.88175 273.195269 
C 771.213195 275.863824 769.713806 279.483669 769.713806 283.257575 
C 769.713806 287.031481 771.213195 290.651326 773.88175 293.319881 
C 776.550305 295.988436 780.17015 297.487824 783.944056 297.487824 
z
" clip-path="url(#pe4760c6123)" style="fill: #1f77b4; fill-opacity: 0.3; stroke: #1f77b4; stroke-opacity: 0.3"/>
    <path d="M 796.430769 285.861593 
C 799.305502 285.861593 802.062881 284.719449 804.095624 282.686706 
C 806.128367 280.653963 807.270511 277.896584 807.270511 275.021851 
C 807.270511 272.147118 806.128367 269.38974 804.095624 267.356997 
C 802.062881 265.324253 799.305502 264.18211 796.430769 264.18211 
C 793.556036 264.18211 790.798658 265.324253 788.765914 267.356997 
C 786.733171 269.38974 785.591028 272.147118 785.591028 275.021851 
C 785.591028 277.896584 786.733171 280.653963 788.765914 282.686706 
C 790.798658 284.719449 793.556036 285.861593 796.430769 285.861593 
z
" clip-path="url(#pe4760c6123)" style="fill: #1f77b4; fill-opacity: 0.3; stroke: #1f77b4; stroke-opacity: 0.3"/>
    <path d="M 808.917483 273.214056 
C 813.131626 273.214056 817.173736 271.539759 820.153585 268.55991 
C 823.133434 265.58006 824.807731 261.53795 824.807731 257.323807 
C 824.807731 253.109664 823.133434 249.067554 820.153585 246.087705 
C 817.173736 243.107855 813.131626 241.433558 808.917483 241.433558 
C 804.703339 241.433558 800.661229 243.107855 797.68138 246.087705 
C 794.701531 249.067554 793.027234 253.109664 793.027234 257.323807 
C 793.027234 261.53795 794.701531 265.58006 797.68138 268.55991 
C 800.661229 271.539759 804.703339 273.214056 808.917483 273.214056 
z
" clip-path="url(#pe4760c6123)" style="fill: #1f77b4; fill-opacity: 0.3; stroke: #1f77b4; stroke-opacity: 0.3"/>
    <path d="M 821.404196 254.830842 
C 825.761927 254.830842 829.941764 253.099497 833.023146 250.018116 
C 836.104527 246.936734 837.835873 242.756897 837.835873 238.399166 
C 837.835873 234.041434 836.104527 229.861597 833.023146 226.780216 
C 829.941764 223.698834 825.761927 221.967489 821.404196 221.967489 
C 817.046464 221.967489 812.866627 223.698834 809.785246 226.780216 
C 806.703864 229.861597 804.972519 234.041434 804.972519 238.399166 
C 804.972519 242.756897 806.703864 246.936734 809.785246 250.018116 
C 812.866627 253.099497 817.046464 254.830842 821.404196 254.830842 
z
" clip-path="url(#pe4760c6123)" style="fill: #1f77b4; fill-opacity: 0.3; stroke: #1f77b4; stroke-opacity: 0.3"/>
    <path d="M 833.890909 241.832242 
C 836.149032 241.832242 838.314972 240.93508 839.911706 239.338346 
C 841.50844 237.741612 842.405602 235.575672 842.405602 233.317549 
C 842.405602 231.059426 841.50844 228.893486 839.911706 227.296752 
C 838.314972 225.700017 836.149032 224.802856 833.890909 224.802856 
C 831.632786 224.802856 829.466846 225.700017 827.870112 227.296752 
C 826.273378 228.893486 825.376216 231.059426 825.376216 233.317549 
C 825.376216 235.575672 826.273378 237.741612 827.870112 239.338346 
C 829.466846 240.93508 831.632786 241.832242 833.890909 241.832242 
z
" clip-path="url(#pe4760c6123)" style="fill: #1f77b4; fill-opacity: 0.3; stroke: #1f77b4; stroke-opacity: 0.3"/>
    <path d="M 846.377622 236.692037 
C 847.8302 236.692037 849.223479 236.114921 850.250606 235.087794 
C 851.277733 234.060667 851.854848 232.667388 851.854848 231.214811 
C 851.854848 229.762234 851.277733 228.368955 850.250606 227.341828 
C 849.223479 226.3147 847.8302 225.737585 846.377622 225.737585 
C 844.925045 225.737585 843.531766 226.3147 842.504639 227.341828 
C 841.477512 228.368955 840.900397 229.762234 840.900397 231.214811 
C 840.900397 232.667388 841.477512 234.060667 842.504639 235.087794 
C 843.531766 236.114921 844.925045 236.692037 846.377622 236.692037 
z
" clip-path="url(#pe4760c6123)" style="fill: #1f77b4; fill-opacity: 0.3; stroke: #1f77b4; stroke-opacity: 0.3"/>
    <path d="M 858.864336 229.213117 
C 863.119999 229.213117 867.201933 227.522324 870.211141 224.513116 
C 873.220349 221.503908 874.911142 217.421973 874.911142 213.16631 
C 874.911142 208.910647 873.220349 204.828713 870.211141 201.819505 
C 867.201933 198.810297 863.119999 197.119504 858.864336 197.119504 
C 854.608673 197.119504 850.526738 198.810297 847.51753 201.819505 
C 844.508322 204.828713 842.817529 208.910647 842.817529 213.16631 
C 842.817529 217.421973 844.508322 221.503908 847.51753 224.513116 
C 850.526738 227.522324 854.608673 229.213117 858.864336 229.213117 
z
" clip-path="url(#pe4760c6123)" style="fill: #1f77b4; fill-opacity: 0.3; stroke: #1f77b4; stroke-opacity: 0.3"/>
    <path d="M 871.351049 216.706801 
C 873.405303 216.706801 875.375697 215.890637 876.828275 214.43806 
C 878.280852 212.985483 879.097016 211.015089 879.097016 208.960834 
C 879.097016 206.90658 878.280852 204.936186 876.828275 203.483609 
C 875.375697 202.031032 873.405303 201.214868 871.351049 201.214868 
C 869.296795 201.214868 867.326401 202.031032 865.873823 203.483609 
C 864.421246 204.936186 863.605082 206.90658 863.605082 208.960834 
C 863.605082 211.015089 864.421246 212.985483 865.873823 214.43806 
C 867.326401 215.890637 869.296795 216.706801 871.351049 216.706801 
z
" clip-path="url(#pe4760c6123)" style="fill: #1f77b4; fill-opacity: 0.3; stroke: #1f77b4; stroke-opacity: 0.3"/>
    <path d="M 883.837762 210.839196 
C 887.03123 210.839196 890.094332 209.570417 892.352455 207.312294 
C 894.610578 205.054171 895.879357 201.991069 895.879357 198.797601 
C 895.879357 195.604133 894.610578 192.541031 892.352455 190.282908 
C 890.094332 188.024785 887.03123 186.756006 883.837762 186.756006 
C 880.644294 186.756006 877.581192 188.024785 875.323069 190.282908 
C 873.064946 192.541031 871.796168 195.604133 871.796168 198.797601 
C 871.796168 201.991069 873.064946 205.054171 875.323069 207.312294 
C 877.581192 209.570417 880.644294 210.839196 883.837762 210.839196 
z
" clip-path="url(#pe4760c6123)" style="fill: #1f77b4; fill-opacity: 0.3; stroke: #1f77b4; stroke-opacity: 0.3"/>
    <path d="M 896.324476 200.746932 
C 899.490294 200.746932 902.526875 199.489139 904.765447 197.250567 
C 907.004019 195.011996 908.261812 191.975414 908.261812 188.809596 
C 908.261812 185.643777 907.004019 182.607196 904.765447 180.368624 
C 902.526875 178.130053 899.490294 176.872259 896.324476 176.872259 
C 893.158657 176.872259 890.122076 178.130053 887.883504 180.368624 
C 885.644932 182.607196 884.387139 185.643777 884.387139 188.809596 
C 884.387139 191.975414 885.644932 195.011996 887.883504 197.250567 
C 890.122076 199.489139 893.158657 200.746932 896.324476 200.746932 
z
" clip-path="url(#pe4760c6123)" style="fill: #1f77b4; fill-opacity: 0.3; stroke: #1f77b4; stroke-opacity: 0.3"/>
    <path d="M 908.811189 178.48173 
C 914.436996 178.48173 919.833142 176.246573 923.811189 172.268527 
C 927.789235 168.29048 930.024392 162.894334 930.024392 157.268527 
C 930.024392 151.642719 927.789235 146.246573 923.811189 142.268527 
C 919.833142 138.29048 914.436996 136.055323 908.811189 136.055323 
C 903.185381 136.055323 897.789235 138.29048 893.811189 142.268527 
C 889.833142 146.246573 887.597985 151.642719 887.597985 157.268527 
C 887.597985 162.894334 889.833142 168.29048 893.811189 172.268527 
C 897.789235 176.246573 903.185381 178.48173 908.811189 178.48173 
z
" clip-path="url(#pe4760c6123)" style="fill: #1f77b4; fill-opacity: 0.3; stroke: #1f77b4; stroke-opacity: 0.3"/>
    <path d="M 921.297902 152.727866 
C 926.041999 152.727866 930.592429 150.843016 933.947013 147.488433 
C 937.301596 144.133849 939.186446 139.583419 939.186446 134.839322 
C 939.186446 130.095225 937.301596 125.544795 933.947013 122.190211 
C 930.592429 118.835628 926.041999 116.950778 921.297902 116.950778 
C 916.553805 116.950778 912.003375 118.835628 908.648791 122.190211 
C 905.294208 125.544795 903.409358 130.095225 903.409358 134.839322 
C 903.409358 139.583419 905.294208 144.133849 908.648791 147.488433 
C 912.003375 150.843016 916.553805 152.727866 921.297902 152.727866 
z
" clip-path="url(#pe4760c6123)" style="fill: #1f77b4; fill-opacity: 0.3; stroke: #1f77b4; stroke-opacity: 0.3"/>
    <path d="M 933.784615 138.402011 
C 935.612402 138.402011 937.365573 137.675824 938.658013 136.383384 
C 939.950453 135.090944 940.67664 133.337773 940.67664 131.509987 
C 940.67664 129.682201 939.950453 127.92903 938.658013 126.63659 
C 937.365573 125.34415 935.612402 124.617963 933.784615 124.617963 
C 931.956829 124.617963 930.203658 125.34415 928.911218 126.63659 
C 927.618778 127.92903 926.892591 129.682201 926.892591 131.509987 
C 926.892591 133.337773 927.618778 135.090944 928.911218 136.383384 
C 930.203658 137.675824 931.956829 138.402011 933.784615 138.402011 
z
" clip-path="url(#pe4760c6123)" style="fill: #1f77b4; fill-opacity: 0.3; stroke: #1f77b4; stroke-opacity: 0.3"/>
    <path d="M 946.271329 134.943063 
C 948.529452 134.943063 950.695392 134.045902 952.292126 132.449168 
C 953.88886 130.852433 954.786022 128.686493 954.786022 126.42837 
C 954.786022 124.170247 953.88886 122.004307 952.292126 120.407573 
C 950.695392 118.810839 948.529452 117.913677 946.271329 117.913677 
C 944.013206 117.913677 941.847265 118.810839 940.250531 120.407573 
C 938.653797 122.004307 937.756635 124.170247 937.756635 126.42837 
C 937.756635 128.686493 938.653797 130.852433 940.250531 132.449168 
C 941.847265 134.045902 944.013206 134.943063 946.271329 134.943063 
z
" clip-path="url(#pe4760c6123)" style="fill: #1f77b4; fill-opacity: 0.3; stroke: #1f77b4; stroke-opacity: 0.3"/>
    <path d="M 958.758042 124.908486 
C 962.909127 124.908486 966.890753 123.259243 969.826014 120.323982 
C 972.761274 117.388722 974.410518 113.407096 974.410518 109.25601 
C 974.410518 105.104925 972.761274 101.123299 969.826014 98.188039 
C 966.890753 95.252778 962.909127 93.603535 958.758042 93.603535 
C 954.606957 93.603535 950.625331 95.252778 947.69007 98.188039 
C 944.75481 101.123299 943.105566 105.104925 943.105566 109.25601 
C 943.105566 113.407096 944.75481 117.388722 947.69007 120.323982 
C 950.625331 123.259243 954.606957 124.908486 958.758042 124.908486 
z
" clip-path="url(#pe4760c6123)" style="fill: #1f77b4; fill-opacity: 0.3; stroke: #1f77b4; stroke-opacity: 0.3"/>
    <path d="M 971.244755 112.503729 
C 972.570771 112.503729 973.842655 111.976897 974.780289 111.039263 
C 975.717924 110.101628 976.244755 108.829744 976.244755 107.503729 
C 976.244755 106.177713 975.717924 104.905829 974.780289 103.968195 
C 973.842655 103.03056 972.570771 102.503729 971.244755 102.503729 
C 969.91874 102.503729 968.646856 103.03056 967.709221 103.968195 
C 966.771587 104.905829 966.244755 106.177713 966.244755 107.503729 
C 966.244755 108.829744 966.771587 110.101628 967.709221 111.039263 
C 968.646856 111.976897 969.91874 112.503729 971.244755 112.503729 
z
" clip-path="url(#pe4760c6123)" style="fill: #1f77b4; fill-opacity: 0.3; stroke: #1f77b4; stroke-opacity: 0.3"/>
    <path d="M 983.731469 105.599176 
C 987.966422 105.599176 992.028494 103.916611 995.023058 100.922046 
C 998.017623 97.927481 999.700188 93.86541 999.700188 89.630456 
C 999.700188 85.395502 998.017623 81.333431 995.023058 78.338867 
C 992.028494 75.344302 987.966422 73.661737 983.731469 73.661737 
C 979.496515 73.661737 975.434443 75.344302 972.439879 78.338867 
C 969.445314 81.333431 967.762749 85.395502 967.762749 89.630456 
C 967.762749 93.86541 969.445314 97.927481 972.439879 100.922046 
C 975.434443 103.916611 979.496515 105.599176 983.731469 105.599176 
z
" clip-path="url(#pe4760c6123)" style="fill: #1f77b4; fill-opacity: 0.3; stroke: #1f77b4; stroke-opacity: 0.3"/>
    <path d="M 996.218182 91.516068 
C 996.811194 91.516068 997.379998 91.280462 997.799321 90.861139 
C 998.218644 90.441816 998.45425 89.873012 998.45425 89.28 
C 998.45425 88.686988 998.218644 88.118184 997.799321 87.698861 
C 997.379998 87.279538 996.811194 87.043932 996.218182 87.043932 
C 995.62517 87.043932 995.056366 87.279538 994.637043 87.698861 
C 994.21772 88.118184 993.982114 88.686988 993.982114 89.28 
C 993.982114 89.873012 994.21772 90.441816 994.637043 90.861139 
C 995.056366 91.280462 995.62517 91.516068 996.218182 91.516068 
z
" clip-path="url(#pe4760c6123)" style="fill: #1f77b4; fill-opacity: 0.3; stroke: #1f77b4; stroke-opacity: 0.3"/>
   </g>
   <g id="matplotlib.axis_1">
    <g id="xtick_1">
     <g id="line2d_1">
      <defs>
       <path id="m8fa29c7e0d" d="M 0 0 
L 0 3.5 
" style="stroke: #000000; stroke-width: 0.8"/>
      </defs>
      <g>
       <use xlink:href="#m8fa29c7e0d" x="184.581818" y="512.64" style="stroke: #000000; stroke-width: 0.8"/>
      </g>
     </g>
     <g id="text_1">
      <!-- 2025-01-01 -->
      <g transform="translate(155.524006 527.238438) scale(0.1 -0.1)">
       <defs>
        <path id="DejaVuSans-32" d="M 1228 531 
L 3431 531 
L 3431 0 
L 469 0 
L 469 531 
Q 828 903 1448 1529 
Q 2069 2156 2228 2338 
Q 2531 2678 2651 2914 
Q 2772 3150 2772 3378 
Q 2772 3750 2511 3984 
Q 2250 4219 1831 4219 
Q 1534 4219 1204 4116 
Q 875 4013 500 3803 
L 500 4441 
Q 881 4594 1212 4672 
Q 1544 4750 1819 4750 
Q 2544 4750 2975 4387 
Q 3406 4025 3406 3419 
Q 3406 3131 3298 2873 
Q 3191 2616 2906 2266 
Q 2828 2175 2409 1742 
Q 1991 1309 1228 531 
z
" transform="scale(0.015625)"/>
        <path id="DejaVuSans-30" d="M 2034 4250 
Q 1547 4250 1301 3770 
Q 1056 3291 1056 2328 
Q 1056 1369 1301 889 
Q 1547 409 2034 409 
Q 2525 409 2770 889 
Q 3016 1369 3016 2328 
Q 3016 3291 2770 3770 
Q 2525 4250 2034 4250 
z
M 2034 4750 
Q 2819 4750 3233 4129 
Q 3647 3509 3647 2328 
Q 3647 1150 3233 529 
Q 2819 -91 2034 -91 
Q 1250 -91 836 529 
Q 422 1150 422 2328 
Q 422 3509 836 4129 
Q 1250 4750 2034 4750 
z
" transform="scale(0.015625)"/>
        <path id="DejaVuSans-35" d="M 691 4666 
L 3169 4666 
L 3169 4134 
L 1269 4134 
L 1269 2991 
Q 1406 3038 1543 3061 
Q 1681 3084 1819 3084 
Q 2600 3084 3056 2656 
Q 3513 2228 3513 1497 
Q 3513 744 3044 326 
Q 2575 -91 1722 -91 
Q 1428 -91 1123 -41 
Q 819 9 494 109 
L 494 744 
Q 775 591 1075 516 
Q 1375 441 1709 441 
Q 2250 441 2565 725 
Q 2881 1009 2881 1497 
Q 2881 1984 2565 2268 
Q 2250 2553 1709 2553 
Q 1456 2553 1204 2497 
Q 953 2441 691 2322 
L 691 4666 
z
" transform="scale(0.015625)"/>
        <path id="DejaVuSans-2d" d="M 313 2009 
L 1997 2009 
L 1997 1497 
L 313 1497 
L 313 2009 
z
" transform="scale(0.015625)"/>
        <path id="DejaVuSans-31" d="M 794 531 
L 1825 531 
L 1825 4091 
L 703 3866 
L 703 4441 
L 1819 4666 
L 2450 4666 
L 2450 531 
L 3481 531 
L 3481 0 
L 794 0 
L 794 531 
z
" transform="scale(0.015625)"/>
       </defs>
       <use xlink:href="#DejaVuSans-32"/>
       <use xlink:href="#DejaVuSans-30" x="63.623047"/>
       <use xlink:href="#DejaVuSans-32" x="127.246094"/>
       <use xlink:href="#DejaVuSans-35" x="190.869141"/>
       <use xlink:href="#DejaVuSans-2d" x="254.492188"/>
       <use xlink:href="#DejaVuSans-30" x="290.576172"/>
       <use xlink:href="#DejaVuSans-31" x="354.199219"/>
       <use xlink:href="#DejaVuSans-2d" x="417.822266"/>
       <use xlink:href="#DejaVuSans-30" x="453.90625"/>
       <use xlink:href="#DejaVuSans-31" x="517.529297"/>
      </g>
     </g>
    </g>
    <g id="xtick_2">
     <g id="line2d_2">
      <g>
       <use xlink:href="#m8fa29c7e0d" x="359.395804" y="512.64" style="stroke: #000000; stroke-width: 0.8"/>
      </g>
     </g>
     <g id="text_2">
      <!-- 2025-01-15 -->
      <g transform="translate(330.337992 527.238438) scale(0.1 -0.1)">
       <use xlink:href="#DejaVuSans-32"/>
       <use xlink:href="#DejaVuSans-30" x="63.623047"/>
       <use xlink:href="#DejaVuSans-32" x="127.246094"/>
       <use xlink:href="#DejaVuSans-35" x="190.869141"/>
       <use xlink:href="#DejaVuSans-2d" x="254.492188"/>
       <use xlink:href="#DejaVuSans-30" x="290.576172"/>
       <use xlink:href="#DejaVuSans-31" x="354.199219"/>
       <use xlink:href="#DejaVuSans-2d" x="417.822266"/>
       <use xlink:href="#DejaVuSans-31" x="453.90625"/>
       <use xlink:href="#DejaVuSans-35" x="517.529297"/>
      </g>
     </g>
    </g>
    <g id="xtick_3">
     <g id="line2d_3">
      <g>
       <use xlink:href="#m8fa29c7e0d" x="571.66993" y="512.64" style="stroke: #000000; stroke-width: 0.8"/>
      </g>
     </g>
     <g id="text_3">
      <!-- 2025-02-01 -->
      <g transform="translate(542.612118 527.238438) scale(0.1 -0.1)">
       <use xlink:href="#DejaVuSans-32"/>
       <use xlink:href="#DejaVuSans-30" x="63.623047"/>
       <use xlink:href="#DejaVuSans-32" x="127.246094"/>
       <use xlink:href="#DejaVuSans-35" x="190.869141"/>
       <use xlink:href="#DejaVuSans-2d" x="254.492188"/>
       <use xlink:href="#DejaVuSans-30" x="290.576172"/>
       <use xlink:href="#DejaVuSans-32" x="354.199219"/>
       <use xlink:href="#DejaVuSans-2d" x="417.822266"/>
       <use xlink:href="#DejaVuSans-30" x="453.90625"/>
       <use xlink:href="#DejaVuSans-31" x="517.529297"/>
      </g>
     </g>
    </g>
    <g id="xtick_4">
     <g id="line2d_4">
      <g>
       <use xlink:href="#m8fa29c7e0d" x="746.483916" y="512.64" style="stroke: #000000; stroke-width: 0.8"/>
      </g>
     </g>
     <g id="text_4">
      <!-- 2025-02-15 -->
      <g transform="translate(717.426104 527.238438) scale(0.1 -0.1)">
       <use xlink:href="#DejaVuSans-32"/>
       <use xlink:href="#DejaVuSans-30" x="63.623047"/>
       <use xlink:href="#DejaVuSans-32" x="127.246094"/>
       <use xlink:href="#DejaVuSans-35" x="190.869141"/>
       <use xlink:href="#DejaVuSans-2d" x="254.492188"/>
       <use xlink:href="#DejaVuSans-30" x="290.576172"/>
       <use xlink:href="#DejaVuSans-32" x="354.199219"/>
       <use xlink:href="#DejaVuSans-2d" x="417.822266"/>
       <use xlink:href="#DejaVuSans-31" x="453.90625"/>
       <use xlink:href="#DejaVuSans-35" x="517.529297"/>
      </g>
     </g>
    </g>
    <g id="xtick_5">
     <g id="line2d_5">
      <g>
       <use xlink:href="#m8fa29c7e0d" x="921.297902" y="512.64" style="stroke: #000000; stroke-width: 0.8"/>
      </g>
     </g>
     <g id="text_5">
      <!-- 2025-03-01 -->
      <g transform="translate(892.24009 527.238438) scale(0.1 -0.1)">
       <defs>
        <path id="DejaVuSans-33" d="M 2597 2516 
Q 3050 2419 3304 2112 
Q 3559 1806 3559 1356 
Q 3559 666 3084 287 
Q 2609 -91 1734 -91 
Q 1441 -91 1130 -33 
Q 819 25 488 141 
L 488 750 
Q 750 597 1062 519 
Q 1375 441 1716 441 
Q 2309 441 2620 675 
Q 2931 909 2931 1356 
Q 2931 1769 2642 2001 
Q 2353 2234 1838 2234 
L 1294 2234 
L 1294 2753 
L 1863 2753 
Q 2328 2753 2575 2939 
Q 2822 3125 2822 3475 
Q 2822 3834 2567 4026 
Q 2313 4219 1838 4219 
Q 1578 4219 1281 4162 
Q 984 4106 628 3988 
L 628 4550 
Q 988 4650 1302 4700 
Q 1616 4750 1894 4750 
Q 2613 4750 3031 4423 
Q 3450 4097 3450 3541 
Q 3450 3153 3228 2886 
Q 3006 2619 2597 2516 
z
" transform="scale(0.015625)"/>
       </defs>
       <use xlink:href="#DejaVuSans-32"/>
       <use xlink:href="#DejaVuSans-30" x="63.623047"/>
       <use xlink:href="#DejaVuSans-32" x="127.246094"/>
       <use xlink:href="#DejaVuSans-35" x="190.869141"/>
       <use xlink:href="#DejaVuSans-2d" x="254.492188"/>
       <use xlink:href="#DejaVuSans-30" x="290.576172"/>
       <use xlink:href="#DejaVuSans-33" x="354.199219"/>
       <use xlink:href="#DejaVuSans-2d" x="417.822266"/>
       <use xlink:href="#DejaVuSans-30" x="453.90625"/>
       <use xlink:href="#DejaVuSans-31" x="517.529297"/>
      </g>
     </g>
    </g>
   </g>
   <g id="matplotlib.axis_2">
    <g id="ytick_1">
     <g id="line2d_6">
      <defs>
       <path id="mcc77ae935a" d="M 0 0 
L -3.5 0 
" style="stroke: #000000; stroke-width: 0.8"/>
      </defs>
      <g>
       <use xlink:href="#mcc77ae935a" x="144" y="446.044537" style="stroke: #000000; stroke-width: 0.8"/>
      </g>
     </g>
     <g id="text_6">
      <!-- 8500 -->
      <g transform="translate(111.55 449.843756) scale(0.1 -0.1)">
       <defs>
        <path id="DejaVuSans-38" d="M 2034 2216 
Q 1584 2216 1326 1975 
Q 1069 1734 1069 1313 
Q 1069 891 1326 650 
Q 1584 409 2034 409 
Q 2484 409 2743 651 
Q 3003 894 3003 1313 
Q 3003 1734 2745 1975 
Q 2488 2216 2034 2216 
z
M 1403 2484 
Q 997 2584 770 2862 
Q 544 3141 544 3541 
Q 544 4100 942 4425 
Q 1341 4750 2034 4750 
Q 2731 4750 3128 4425 
Q 3525 4100 3525 3541 
Q 3525 3141 3298 2862 
Q 3072 2584 2669 2484 
Q 3125 2378 3379 2068 
Q 3634 1759 3634 1313 
Q 3634 634 3220 271 
Q 2806 -91 2034 -91 
Q 1263 -91 848 271 
Q 434 634 434 1313 
Q 434 1759 690 2068 
Q 947 2378 1403 2484 
z
M 1172 3481 
Q 1172 3119 1398 2916 
Q 1625 2713 2034 2713 
Q 2441 2713 2670 2916 
Q 2900 3119 2900 3481 
Q 2900 3844 2670 4047 
Q 2441 4250 2034 4250 
Q 1625 4250 1398 4047 
Q 1172 3844 1172 3481 
z
" transform="scale(0.015625)"/>
       </defs>
       <use xlink:href="#DejaVuSans-38"/>
       <use xlink:href="#DejaVuSans-35" x="63.623047"/>
       <use xlink:href="#DejaVuSans-30" x="127.246094"/>
       <use xlink:href="#DejaVuSans-30" x="190.869141"/>
      </g>
     </g>
    </g>
    <g id="ytick_2">
     <g id="line2d_7">
      <g>
       <use xlink:href="#mcc77ae935a" x="144" y="358.430456" style="stroke: #000000; stroke-width: 0.8"/>
      </g>
     </g>
     <g id="text_7">
      <!-- 9000 -->
      <g transform="translate(111.55 362.229675) scale(0.1 -0.1)">
       <defs>
        <path id="DejaVuSans-39" d="M 703 97 
L 703 672 
Q 941 559 1184 500 
Q 1428 441 1663 441 
Q 2288 441 2617 861 
Q 2947 1281 2994 2138 
Q 2813 1869 2534 1725 
Q 2256 1581 1919 1581 
Q 1219 1581 811 2004 
Q 403 2428 403 3163 
Q 403 3881 828 4315 
Q 1253 4750 1959 4750 
Q 2769 4750 3195 4129 
Q 3622 3509 3622 2328 
Q 3622 1225 3098 567 
Q 2575 -91 1691 -91 
Q 1453 -91 1209 -44 
Q 966 3 703 97 
z
M 1959 2075 
Q 2384 2075 2632 2365 
Q 2881 2656 2881 3163 
Q 2881 3666 2632 3958 
Q 2384 4250 1959 4250 
Q 1534 4250 1286 3958 
Q 1038 3666 1038 3163 
Q 1038 2656 1286 2365 
Q 1534 2075 1959 2075 
z
" transform="scale(0.015625)"/>
       </defs>
       <use xlink:href="#DejaVuSans-39"/>
       <use xlink:href="#DejaVuSans-30" x="63.623047"/>
       <use xlink:href="#DejaVuSans-30" x="127.246094"/>
       <use xlink:href="#DejaVuSans-30" x="190.869141"/>
      </g>
     </g>
    </g>
    <g id="ytick_3">
     <g id="line2d_8">
      <g>
       <use xlink:href="#mcc77ae935a" x="144" y="270.816375" style="stroke: #000000; stroke-width: 0.8"/>
      </g>
     </g>
     <g id="text_8">
      <!-- 9500 -->
      <g transform="translate(111.55 274.615594) scale(0.1 -0.1)">
       <use xlink:href="#DejaVuSans-39"/>
       <use xlink:href="#DejaVuSans-35" x="63.623047"/>
       <use xlink:href="#DejaVuSans-30" x="127.246094"/>
       <use xlink:href="#DejaVuSans-30" x="190.869141"/>
      </g>
     </g>
    </g>
    <g id="ytick_4">
     <g id="line2d_9">
      <g>
       <use xlink:href="#mcc77ae935a" x="144" y="183.202295" style="stroke: #000000; stroke-width: 0.8"/>
      </g>
     </g>
     <g id="text_9">
      <!-- 10000 -->
      <g transform="translate(105.1875 187.001513) scale(0.1 -0.1)">
       <use xlink:href="#DejaVuSans-31"/>
       <use xlink:href="#DejaVuSans-30" x="63.623047"/>
       <use xlink:href="#DejaVuSans-30" x="127.246094"/>
       <use xlink:href="#DejaVuSans-30" x="190.869141"/>
       <use xlink:href="#DejaVuSans-30" x="254.492188"/>
      </g>
     </g>
    </g>
    <g id="ytick_5">
     <g id="line2d_10">
      <g>
       <use xlink:href="#mcc77ae935a" x="144" y="95.588214" style="stroke: #000000; stroke-width: 0.8"/>
      </g>
     </g>
     <g id="text_10">
      <!-- 10500 -->
      <g transform="translate(105.1875 99.387433) scale(0.1 -0.1)">
       <use xlink:href="#DejaVuSans-31"/>
       <use xlink:href="#DejaVuSans-30" x="63.623047"/>
       <use xlink:href="#DejaVuSans-35" x="127.246094"/>
       <use xlink:href="#DejaVuSans-30" x="190.869141"/>
       <use xlink:href="#DejaVuSans-30" x="254.492188"/>
      </g>
     </g>
    </g>
   </g>
   <g id="line2d_11">
    <path d="M 184.581818 492.48 
L 197.068531 491.603859 
L 209.555245 488.975437 
L 222.041958 488.449752 
L 234.528671 487.047927 
L 247.015385 485.295645 
L 259.502098 484.945189 
L 271.988811 483.543364 
L 284.475524 483.017679 
L 296.962238 482.316767 
L 309.448951 481.96631 
L 321.935664 481.090169 
L 334.422378 480.389257 
L 346.909091 479.513116 
L 359.395804 478.636975 
L 371.882517 477.585606 
L 384.369231 476.709465 
L 396.855944 475.658096 
L 409.342657 474.431499 
L 421.829371 473.204902 
L 434.316084 472.153533 
L 446.802797 470.226023 
L 459.28951 467.422373 
L 471.776224 463.216897 
L 484.262937 461.9903 
L 496.74965 459.712334 
L 509.236364 457.434368 
L 521.723077 451.651838 
L 534.20979 446.219765 
L 546.696503 440.437236 
L 559.183217 434.30425 
L 571.66993 430.974915 
L 584.156643 429.57309 
L 596.643357 426.944668 
L 609.13007 416.956662 
L 621.616783 397.856793 
L 634.103497 389.621069 
L 646.59021 377.880782 
L 659.076923 374.726675 
L 671.563636 369.294602 
L 684.05035 361.409335 
L 696.537063 353.524068 
L 709.023776 343.536063 
L 721.51049 329.868266 
L 733.997203 319.00412 
L 746.483916 317.427066 
L 758.970629 315.324329 
L 771.457343 297.451056 
L 783.944056 283.257575 
L 796.430769 275.021851 
L 808.917483 257.323807 
L 821.404196 238.399166 
L 833.890909 233.317549 
L 846.377622 231.214811 
L 858.864336 213.16631 
L 871.351049 208.960834 
L 883.837762 198.797601 
L 896.324476 188.809596 
L 908.811189 157.268527 
L 921.297902 134.839322 
L 933.784615 131.509987 
L 946.271329 126.42837 
L 958.758042 109.25601 
L 971.244755 107.503729 
L 983.731469 89.630456 
L 996.218182 89.28 
" clip-path="url(#pe4760c6123)" style="fill: none; stroke: #1f77b4; stroke-width: 1.5; stroke-linecap: square"/>
   </g>
   <g id="patch_3">
    <path d="M 144 512.64 
L 144 69.12 
" style="fill: none; stroke: #000000; stroke-width: 0.8; stroke-linejoin: miter; stroke-linecap: square"/>
   </g>
   <g id="patch_4">
    <path d="M 1036.8 512.64 
L 1036.8 69.12 
" style="fill: none; stroke: #000000; stroke-width: 0.8; stroke-linejoin: miter; stroke-linecap: square"/>
   </g>
   <g id="patch_5">
    <path d="M 144 512.64 
L 1036.8 512.64 
" style="fill: none; stroke: #000000; stroke-width: 0.8; stroke-linejoin: miter; stroke-linecap: square"/>
   </g>
   <g id="patch_6">
    <path d="M 144 69.12 
L 1036.8 69.12 
" style="fill: none; stroke: #000000; stroke-width: 0.8; stroke-linejoin: miter; stroke-linecap: square"/>
   </g>
   <g id="text_11">
    <!-- Number of AEDs in the OpenStreetMap database in Poland from 2025-01-01, day by day. As at: 2025-03-07 -->
    <g transform="translate(144 63.12) scale(0.14 -0.14)">
     <defs>
      <path id="DejaVuSans-4e" d="M 628 4666 
L 1478 4666 
L 3547 763 
L 3547 4666 
L 4159 4666 
L 4159 0 
L 3309 0 
L 1241 3903 
L 1241 0 
L 628 0 
L 628 4666 
z
" transform="scale(0.015625)"/>
      <path id="DejaVuSans-75" d="M 544 1381 
L 544 3500 
L 1119 3500 
L 1119 1403 
Q 1119 906 1312 657 
Q 1506 409 1894 409 
Q 2359 409 2629 706 
Q 2900 1003 2900 1516 
L 2900 3500 
L 3475 3500 
L 3475 0 
L 2900 0 
L 2900 538 
Q 2691 219 2414 64 
Q 2138 -91 1772 -91 
Q 1169 -91 856 284 
Q 544 659 544 1381 
z
M 1991 3584 
L 1991 3584 
z
" transform="scale(0.015625)"/>
      <path id="DejaVuSans-6d" d="M 3328 2828 
Q 3544 3216 3844 3400 
Q 4144 3584 4550 3584 
Q 5097 3584 5394 3201 
Q 5691 2819 5691 2113 
L 5691 0 
L 5113 0 
L 5113 2094 
Q 5113 2597 4934 2840 
Q 4756 3084 4391 3084 
Q 3944 3084 3684 2787 
Q 3425 2491 3425 1978 
L 3425 0 
L 2847 0 
L 2847 2094 
Q 2847 2600 2669 2842 
Q 2491 3084 2119 3084 
Q 1678 3084 1418 2786 
Q 1159 2488 1159 1978 
L 1159 0 
L 581 0 
L 581 3500 
L 1159 3500 
L 1159 2956 
Q 1356 3278 1631 3431 
Q 1906 3584 2284 3584 
Q 2666 3584 2933 3390 
Q 3200 3197 3328 2828 
z
" transform="scale(0.015625)"/>
      <path id="DejaVuSans-62" d="M 3116 1747 
Q 3116 2381 2855 2742 
Q 2594 3103 2138 3103 
Q 1681 3103 1420 2742 
Q 1159 2381 1159 1747 
Q 1159 1113 1420 752 
Q 1681 391 2138 391 
Q 2594 391 2855 752 
Q 3116 1113 3116 1747 
z
M 1159 2969 
Q 1341 3281 1617 3432 
Q 1894 3584 2278 3584 
Q 2916 3584 3314 3078 
Q 3713 2572 3713 1747 
Q 3713 922 3314 415 
Q 2916 -91 2278 -91 
Q 1894 -91 1617 61 
Q 1341 213 1159 525 
L 1159 0 
L 581 0 
L 581 4863 
L 1159 4863 
L 1159 2969 
z
" transform="scale(0.015625)"/>
      <path id="DejaVuSans-65" d="M 3597 1894 
L 3597 1613 
L 953 1613 
Q 991 1019 1311 708 
Q 1631 397 2203 397 
Q 2534 397 2845 478 
Q 3156 559 3463 722 
L 3463 178 
Q 3153 47 2828 -22 
Q 2503 -91 2169 -91 
Q 1331 -91 842 396 
Q 353 884 353 1716 
Q 353 2575 817 3079 
Q 1281 3584 2069 3584 
Q 2775 3584 3186 3129 
Q 3597 2675 3597 1894 
z
M 3022 2063 
Q 3016 2534 2758 2815 
Q 2500 3097 2075 3097 
Q 1594 3097 1305 2825 
Q 1016 2553 972 2059 
L 3022 2063 
z
" transform="scale(0.015625)"/>
      <path id="DejaVuSans-72" d="M 2631 2963 
Q 2534 3019 2420 3045 
Q 2306 3072 2169 3072 
Q 1681 3072 1420 2755 
Q 1159 2438 1159 1844 
L 1159 0 
L 581 0 
L 581 3500 
L 1159 3500 
L 1159 2956 
Q 1341 3275 1631 3429 
Q 1922 3584 2338 3584 
Q 2397 3584 2469 3576 
Q 2541 3569 2628 3553 
L 2631 2963 
z
" transform="scale(0.015625)"/>
      <path id="DejaVuSans-20" transform="scale(0.015625)"/>
      <path id="DejaVuSans-6f" d="M 1959 3097 
Q 1497 3097 1228 2736 
Q 959 2375 959 1747 
Q 959 1119 1226 758 
Q 1494 397 1959 397 
Q 2419 397 2687 759 
Q 2956 1122 2956 1747 
Q 2956 2369 2687 2733 
Q 2419 3097 1959 3097 
z
M 1959 3584 
Q 2709 3584 3137 3096 
Q 3566 2609 3566 1747 
Q 3566 888 3137 398 
Q 2709 -91 1959 -91 
Q 1206 -91 779 398 
Q 353 888 353 1747 
Q 353 2609 779 3096 
Q 1206 3584 1959 3584 
z
" transform="scale(0.015625)"/>
      <path id="DejaVuSans-66" d="M 2375 4863 
L 2375 4384 
L 1825 4384 
Q 1516 4384 1395 4259 
Q 1275 4134 1275 3809 
L 1275 3500 
L 2222 3500 
L 2222 3053 
L 1275 3053 
L 1275 0 
L 697 0 
L 697 3053 
L 147 3053 
L 147 3500 
L 697 3500 
L 697 3744 
Q 697 4328 969 4595 
Q 1241 4863 1831 4863 
L 2375 4863 
z
" transform="scale(0.015625)"/>
      <path id="DejaVuSans-41" d="M 2188 4044 
L 1331 1722 
L 3047 1722 
L 2188 4044 
z
M 1831 4666 
L 2547 4666 
L 4325 0 
L 3669 0 
L 3244 1197 
L 1141 1197 
L 716 0 
L 50 0 
L 1831 4666 
z
" transform="scale(0.015625)"/>
      <path id="DejaVuSans-45" d="M 628 4666 
L 3578 4666 
L 3578 4134 
L 1259 4134 
L 1259 2753 
L 3481 2753 
L 3481 2222 
L 1259 2222 
L 1259 531 
L 3634 531 
L 3634 0 
L 628 0 
L 628 4666 
z
" transform="scale(0.015625)"/>
      <path id="DejaVuSans-44" d="M 1259 4147 
L 1259 519 
L 2022 519 
Q 2988 519 3436 956 
Q 3884 1394 3884 2338 
Q 3884 3275 3436 3711 
Q 2988 4147 2022 4147 
L 1259 4147 
z
M 628 4666 
L 1925 4666 
Q 3281 4666 3915 4102 
Q 4550 3538 4550 2338 
Q 4550 1131 3912 565 
Q 3275 0 1925 0 
L 628 0 
L 628 4666 
z
" transform="scale(0.015625)"/>
      <path id="DejaVuSans-73" d="M 2834 3397 
L 2834 2853 
Q 2591 2978 2328 3040 
Q 2066 3103 1784 3103 
Q 1356 3103 1142 2972 
Q 928 2841 928 2578 
Q 928 2378 1081 2264 
Q 1234 2150 1697 2047 
L 1894 2003 
Q 2506 1872 2764 1633 
Q 3022 1394 3022 966 
Q 3022 478 2636 193 
Q 2250 -91 1575 -91 
Q 1294 -91 989 -36 
Q 684 19 347 128 
L 347 722 
Q 666 556 975 473 
Q 1284 391 1588 391 
Q 1994 391 2212 530 
Q 2431 669 2431 922 
Q 2431 1156 2273 1281 
Q 2116 1406 1581 1522 
L 1381 1569 
Q 847 1681 609 1914 
Q 372 2147 372 2553 
Q 372 3047 722 3315 
Q 1072 3584 1716 3584 
Q 2034 3584 2315 3537 
Q 2597 3491 2834 3397 
z
" transform="scale(0.015625)"/>
      <path id="DejaVuSans-69" d="M 603 3500 
L 1178 3500 
L 1178 0 
L 603 0 
L 603 3500 
z
M 603 4863 
L 1178 4863 
L 1178 4134 
L 603 4134 
L 603 4863 
z
" transform="scale(0.015625)"/>
      <path id="DejaVuSans-6e" d="M 3513 2113 
L 3513 0 
L 2938 0 
L 2938 2094 
Q 2938 2591 2744 2837 
Q 2550 3084 2163 3084 
Q 1697 3084 1428 2787 
Q 1159 2491 1159 1978 
L 1159 0 
L 581 0 
L 581 3500 
L 1159 3500 
L 1159 2956 
Q 1366 3272 1645 3428 
Q 1925 3584 2291 3584 
Q 2894 3584 3203 3211 
Q 3513 2838 3513 2113 
z
" transform="scale(0.015625)"/>
      <path id="DejaVuSans-74" d="M 1172 4494 
L 1172 3500 
L 2356 3500 
L 2356 3053 
L 1172 3053 
L 1172 1153 
Q 1172 725 1289 603 
Q 1406 481 1766 481 
L 2356 481 
L 2356 0 
L 1766 0 
Q 1100 0 847 248 
Q 594 497 594 1153 
L 594 3053 
L 172 3053 
L 172 3500 
L 594 3500 
L 594 4494 
L 1172 4494 
z
" transform="scale(0.015625)"/>
      <path id="DejaVuSans-68" d="M 3513 2113 
L 3513 0 
L 2938 0 
L 2938 2094 
Q 2938 2591 2744 2837 
Q 2550 3084 2163 3084 
Q 1697 3084 1428 2787 
Q 1159 2491 1159 1978 
L 1159 0 
L 581 0 
L 581 4863 
L 1159 4863 
L 1159 2956 
Q 1366 3272 1645 3428 
Q 1925 3584 2291 3584 
Q 2894 3584 3203 3211 
Q 3513 2838 3513 2113 
z
" transform="scale(0.015625)"/>
      <path id="DejaVuSans-4f" d="M 2522 4238 
Q 1834 4238 1429 3725 
Q 1025 3213 1025 2328 
Q 1025 1447 1429 934 
Q 1834 422 2522 422 
Q 3209 422 3611 934 
Q 4013 1447 4013 2328 
Q 4013 3213 3611 3725 
Q 3209 4238 2522 4238 
z
M 2522 4750 
Q 3503 4750 4090 4092 
Q 4678 3434 4678 2328 
Q 4678 1225 4090 567 
Q 3503 -91 2522 -91 
Q 1538 -91 948 565 
Q 359 1222 359 2328 
Q 359 3434 948 4092 
Q 1538 4750 2522 4750 
z
" transform="scale(0.015625)"/>
      <path id="DejaVuSans-70" d="M 1159 525 
L 1159 -1331 
L 581 -1331 
L 581 3500 
L 1159 3500 
L 1159 2969 
Q 1341 3281 1617 3432 
Q 1894 3584 2278 3584 
Q 2916 3584 3314 3078 
Q 3713 2572 3713 1747 
Q 3713 922 3314 415 
Q 2916 -91 2278 -91 
Q 1894 -91 1617 61 
Q 1341 213 1159 525 
z
M 3116 1747 
Q 3116 2381 2855 2742 
Q 2594 3103 2138 3103 
Q 1681 3103 1420 2742 
Q 1159 2381 1159 1747 
Q 1159 1113 1420 752 
Q 1681 391 2138 391 
Q 2594 391 2855 752 
Q 3116 1113 3116 1747 
z
" transform="scale(0.015625)"/>
      <path id="DejaVuSans-53" d="M 3425 4513 
L 3425 3897 
Q 3066 4069 2747 4153 
Q 2428 4238 2131 4238 
Q 1616 4238 1336 4038 
Q 1056 3838 1056 3469 
Q 1056 3159 1242 3001 
Q 1428 2844 1947 2747 
L 2328 2669 
Q 3034 2534 3370 2195 
Q 3706 1856 3706 1288 
Q 3706 609 3251 259 
Q 2797 -91 1919 -91 
Q 1588 -91 1214 -16 
Q 841 59 441 206 
L 441 856 
Q 825 641 1194 531 
Q 1563 422 1919 422 
Q 2459 422 2753 634 
Q 3047 847 3047 1241 
Q 3047 1584 2836 1778 
Q 2625 1972 2144 2069 
L 1759 2144 
Q 1053 2284 737 2584 
Q 422 2884 422 3419 
Q 422 4038 858 4394 
Q 1294 4750 2059 4750 
Q 2388 4750 2728 4690 
Q 3069 4631 3425 4513 
z
" transform="scale(0.015625)"/>
      <path id="DejaVuSans-4d" d="M 628 4666 
L 1569 4666 
L 2759 1491 
L 3956 4666 
L 4897 4666 
L 4897 0 
L 4281 0 
L 4281 4097 
L 3078 897 
L 2444 897 
L 1241 4097 
L 1241 0 
L 628 0 
L 628 4666 
z
" transform="scale(0.015625)"/>
      <path id="DejaVuSans-61" d="M 2194 1759 
Q 1497 1759 1228 1600 
Q 959 1441 959 1056 
Q 959 750 1161 570 
Q 1363 391 1709 391 
Q 2188 391 2477 730 
Q 2766 1069 2766 1631 
L 2766 1759 
L 2194 1759 
z
M 3341 1997 
L 3341 0 
L 2766 0 
L 2766 531 
Q 2569 213 2275 61 
Q 1981 -91 1556 -91 
Q 1019 -91 701 211 
Q 384 513 384 1019 
Q 384 1609 779 1909 
Q 1175 2209 1959 2209 
L 2766 2209 
L 2766 2266 
Q 2766 2663 2505 2880 
Q 2244 3097 1772 3097 
Q 1472 3097 1187 3025 
Q 903 2953 641 2809 
L 641 3341 
Q 956 3463 1253 3523 
Q 1550 3584 1831 3584 
Q 2591 3584 2966 3190 
Q 3341 2797 3341 1997 
z
" transform="scale(0.015625)"/>
      <path id="DejaVuSans-64" d="M 2906 2969 
L 2906 4863 
L 3481 4863 
L 3481 0 
L 2906 0 
L 2906 525 
Q 2725 213 2448 61 
Q 2172 -91 1784 -91 
Q 1150 -91 751 415 
Q 353 922 353 1747 
Q 353 2572 751 3078 
Q 1150 3584 1784 3584 
Q 2172 3584 2448 3432 
Q 2725 3281 2906 2969 
z
M 947 1747 
Q 947 1113 1208 752 
Q 1469 391 1925 391 
Q 2381 391 2643 752 
Q 2906 1113 2906 1747 
Q 2906 2381 2643 2742 
Q 2381 3103 1925 3103 
Q 1469 3103 1208 2742 
Q 947 2381 947 1747 
z
" transform="scale(0.015625)"/>
      <path id="DejaVuSans-50" d="M 1259 4147 
L 1259 2394 
L 2053 2394 
Q 2494 2394 2734 2622 
Q 2975 2850 2975 3272 
Q 2975 3691 2734 3919 
Q 2494 4147 2053 4147 
L 1259 4147 
z
M 628 4666 
L 2053 4666 
Q 2838 4666 3239 4311 
Q 3641 3956 3641 3272 
Q 3641 2581 3239 2228 
Q 2838 1875 2053 1875 
L 1259 1875 
L 1259 0 
L 628 0 
L 628 4666 
z
" transform="scale(0.015625)"/>
      <path id="DejaVuSans-6c" d="M 603 4863 
L 1178 4863 
L 1178 0 
L 603 0 
L 603 4863 
z
" transform="scale(0.015625)"/>
      <path id="DejaVuSans-2c" d="M 750 794 
L 1409 794 
L 1409 256 
L 897 -744 
L 494 -744 
L 750 256 
L 750 794 
z
" transform="scale(0.015625)"/>
      <path id="DejaVuSans-79" d="M 2059 -325 
Q 1816 -950 1584 -1140 
Q 1353 -1331 966 -1331 
L 506 -1331 
L 506 -850 
L 844 -850 
Q 1081 -850 1212 -737 
Q 1344 -625 1503 -206 
L 1606 56 
L 191 3500 
L 800 3500 
L 1894 763 
L 2988 3500 
L 3597 3500 
L 2059 -325 
z
" transform="scale(0.015625)"/>
      <path id="DejaVuSans-2e" d="M 684 794 
L 1344 794 
L 1344 0 
L 684 0 
L 684 794 
z
" transform="scale(0.015625)"/>
      <path id="DejaVuSans-3a" d="M 750 794 
L 1409 794 
L 1409 0 
L 750 0 
L 750 794 
z
M 750 3309 
L 1409 3309 
L 1409 2516 
L 750 2516 
L 750 3309 
z
" transform="scale(0.015625)"/>
      <path id="DejaVuSans-37" d="M 525 4666 
L 3525 4666 
L 3525 4397 
L 1831 0 
L 1172 0 
L 2766 4134 
L 525 4134 
L 525 4666 
z
" transform="scale(0.015625)"/>
     </defs>
     <use xlink:href="#DejaVuSans-4e"/>
     <use xlink:href="#DejaVuSans-75" x="74.804688"/>
     <use xlink:href="#DejaVuSans-6d" x="138.183594"/>
     <use xlink:href="#DejaVuSans-62" x="235.595703"/>
     <use xlink:href="#DejaVuSans-65" x="299.072266"/>
     <use xlink:href="#DejaVuSans-72" x="360.595703"/>
     <use xlink:href="#DejaVuSans-20" x="401.708984"/>
     <use xlink:href="#DejaVuSans-6f" x="433.496094"/>
     <use xlink:href="#DejaVuSans-66" x="494.677734"/>
     <use xlink:href="#DejaVuSans-20" x="529.882812"/>
     <use xlink:href="#DejaVuSans-41" x="561.669922"/>
     <use xlink:href="#DejaVuSans-45" x="630.078125"/>
     <use xlink:href="#DejaVuSans-44" x="693.261719"/>
     <use xlink:href="#DejaVuSans-73" x="770.263672"/>
     <use xlink:href="#DejaVuSans-20" x="822.363281"/>
     <use xlink:href="#DejaVuSans-69" x="854.150391"/>
     <use xlink:href="#DejaVuSans-6e" x="881.933594"/>
     <use xlink:href="#DejaVuSans-20" x="945.3125"/>
     <use xlink:href="#DejaVuSans-74" x="977.099609"/>
     <use xlink:href="#DejaVuSans-68" x="1016.308594"/>
     <use xlink:href="#DejaVuSans-65" x="1079.6875"/>
     <use xlink:href="#DejaVuSans-20" x="1141.210938"/>
     <use xlink:href="#DejaVuSans-4f" x="1172.998047"/>
     <use xlink:href="#DejaVuSans-70" x="1251.708984"/>
     <use xlink:href="#DejaVuSans-65" x="1315.185547"/>
     <use xlink:href="#DejaVuSans-6e" x="1376.708984"/>
     <use xlink:href="#DejaVuSans-53" x="1440.087891"/>
     <use xlink:href="#DejaVuSans-74" x="1503.564453"/>
     <use xlink:href="#DejaVuSans-72" x="1542.773438"/>
     <use xlink:href="#DejaVuSans-65" x="1581.636719"/>
     <use xlink:href="#DejaVuSans-65" x="1643.160156"/>
     <use xlink:href="#DejaVuSans-74" x="1704.683594"/>
     <use xlink:href="#DejaVuSans-4d" x="1743.892578"/>
     <use xlink:href="#DejaVuSans-61" x="1830.171875"/>
     <use xlink:href="#DejaVuSans-70" x="1891.451172"/>
     <use xlink:href="#DejaVuSans-20" x="1954.927734"/>
     <use xlink:href="#DejaVuSans-64" x="1986.714844"/>
     <use xlink:href="#DejaVuSans-61" x="2050.191406"/>
     <use xlink:href="#DejaVuSans-74" x="2111.470703"/>
     <use xlink:href="#DejaVuSans-61" x="2150.679688"/>
     <use xlink:href="#DejaVuSans-62" x="2211.958984"/>
     <use xlink:href="#DejaVuSans-61" x="2275.435547"/>
     <use xlink:href="#DejaVuSans-73" x="2336.714844"/>
     <use xlink:href="#DejaVuSans-65" x="2388.814453"/>
     <use xlink:href="#DejaVuSans-20" x="2450.337891"/>
     <use xlink:href="#DejaVuSans-69" x="2482.125"/>
     <use xlink:href="#DejaVuSans-6e" x="2509.908203"/>
     <use xlink:href="#DejaVuSans-20" x="2573.287109"/>
     <use xlink:href="#DejaVuSans-50" x="2605.074219"/>
     <use xlink:href="#DejaVuSans-6f" x="2661.751953"/>
     <use xlink:href="#DejaVuSans-6c" x="2722.933594"/>
     <use xlink:href="#DejaVuSans-61" x="2750.716797"/>
     <use xlink:href="#DejaVuSans-6e" x="2811.996094"/>
     <use xlink:href="#DejaVuSans-64" x="2875.375"/>
     <use xlink:href="#DejaVuSans-20" x="2938.851562"/>
     <use xlink:href="#DejaVuSans-66" x="2970.638672"/>
     <use xlink:href="#DejaVuSans-72" x="3005.84375"/>
     <use xlink:href="#DejaVuSans-6f" x="3044.707031"/>
     <use xlink:href="#DejaVuSans-6d" x="3105.888672"/>
     <use xlink:href="#DejaVuSans-20" x="3203.300781"/>
     <use xlink:href="#DejaVuSans-32" x="3235.087891"/>
     <use xlink:href="#DejaVuSans-30" x="3298.710938"/>
     <use xlink:href="#DejaVuSans-32" x="3362.333984"/>
     <use xlink:href="#DejaVuSans-35" x="3425.957031"/>
     <use xlink:href="#DejaVuSans-2d" x="3489.580078"/>
     <use xlink:href="#DejaVuSans-30" x="3525.664062"/>
     <use xlink:href="#DejaVuSans-31" x="3589.287109"/>
     <use xlink:href="#DejaVuSans-2d" x="3652.910156"/>
     <use xlink:href="#DejaVuSans-30" x="3688.994141"/>
     <use xlink:href="#DejaVuSans-31" x="3752.617188"/>
     <use xlink:href="#DejaVuSans-2c" x="3816.240234"/>
     <use xlink:href="#DejaVuSans-20" x="3848.027344"/>
     <use xlink:href="#DejaVuSans-64" x="3879.814453"/>
     <use xlink:href="#DejaVuSans-61" x="3943.291016"/>
     <use xlink:href="#DejaVuSans-79" x="4004.570312"/>
     <use xlink:href="#DejaVuSans-20" x="4063.75"/>
     <use xlink:href="#DejaVuSans-62" x="4095.537109"/>
     <use xlink:href="#DejaVuSans-79" x="4159.013672"/>
     <use xlink:href="#DejaVuSans-20" x="4218.193359"/>
     <use xlink:href="#DejaVuSans-64" x="4249.980469"/>
     <use xlink:href="#DejaVuSans-61" x="4313.457031"/>
     <use xlink:href="#DejaVuSans-79" x="4374.736328"/>
     <use xlink:href="#DejaVuSans-2e" x="4419.666016"/>
     <use xlink:href="#DejaVuSans-20" x="4451.453125"/>
     <use xlink:href="#DejaVuSans-41" x="4483.240234"/>
     <use xlink:href="#DejaVuSans-73" x="4551.648438"/>
     <use xlink:href="#DejaVuSans-20" x="4603.748047"/>
     <use xlink:href="#DejaVuSans-61" x="4635.535156"/>
     <use xlink:href="#DejaVuSans-74" x="4696.814453"/>
     <use xlink:href="#DejaVuSans-3a" x="4736.023438"/>
     <use xlink:href="#DejaVuSans-20" x="4769.714844"/>
     <use xlink:href="#DejaVuSans-32" x="4801.501953"/>
     <use xlink:href="#DejaVuSans-30" x="4865.125"/>
     <use xlink:href="#DejaVuSans-32" x="4928.748047"/>
     <use xlink:href="#DejaVuSans-35" x="4992.371094"/>
     <use xlink:href="#DejaVuSans-2d" x="5055.994141"/>
     <use xlink:href="#DejaVuSans-30" x="5092.078125"/>
     <use xlink:href="#DejaVuSans-33" x="5155.701172"/>
     <use xlink:href="#DejaVuSans-2d" x="5219.324219"/>
     <use xlink:href="#DejaVuSans-30" x="5255.408203"/>
     <use xlink:href="#DejaVuSans-37" x="5319.03125"/>
    </g>
   </g>
  </g>
 </g>
 <defs>
  <clipPath id="pe4760c6123">
   <rect x="144" y="69.12" width="892.8" height="443.52"/>
  </clipPath>
 </defs>
</svg>
