<?xml version="1.0" encoding="utf-8" standalone="no"?>
<!DOCTYPE svg PUBLIC "-//W3C//DTD SVG 1.1//EN"
  "http://www.w3.org/Graphics/SVG/1.1/DTD/svg11.dtd">
<svg xmlns:xlink="http://www.w3.org/1999/xlink" width="1152pt" height="576pt" viewBox="0 0 1152 576" xmlns="http://www.w3.org/2000/svg" version="1.1">
 <metadata>
  <rdf:RDF xmlns:dc="http://purl.org/dc/elements/1.1/" xmlns:cc="http://creativecommons.org/ns#" xmlns:rdf="http://www.w3.org/1999/02/22-rdf-syntax-ns#">
   <cc:Work>
    <dc:type rdf:resource="http://purl.org/dc/dcmitype/StillImage"/>
    <dc:date>2024-02-16T20:33:19.066946</dc:date>
    <dc:format>image/svg+xml</dc:format>
    <dc:creator>
     <cc:Agent>
      <dc:title>Matplotlib v3.5.1, https://matplotlib.org/</dc:title>
     </cc:Agent>
    </dc:creator>
   </cc:Work>
  </rdf:RDF>
 </metadata>
 <defs>
  <style type="text/css">*{stroke-linejoin: round; stroke-linecap: butt}</style>
 </defs>
 <g id="figure_1">
  <g id="patch_1">
   <path d="M 0 576 
L 1152 576 
L 1152 0 
L 0 0 
z
" style="fill: #ffffff"/>
  </g>
  <g id="axes_1">
   <g id="patch_2">
    <path d="M 144 512.64 
L 1036.8 512.64 
L 1036.8 69.12 
L 144 69.12 
z
" style="fill: #ffffff"/>
   </g>
   <g id="PathCollection_1">
    <path d="M 184.581818 496.015534 
C 185.519453 496.015534 186.41881 495.643008 187.081818 494.98 
C 187.744826 494.316992 188.117352 493.417635 188.117352 492.48 
C 188.117352 491.542365 187.744826 490.643008 187.081818 489.98 
C 186.41881 489.316992 185.519453 488.944466 184.581818 488.944466 
C 183.644184 488.944466 182.744826 489.316992 182.081818 489.98 
C 181.41881 490.643008 181.046284 491.542365 181.046284 492.48 
C 181.046284 493.417635 181.41881 494.316992 182.081818 494.98 
C 182.744826 495.643008 183.644184 496.015534 184.581818 496.015534 
z
" clip-path="url(#p885c9728a7)" style="fill: #1f77b4; fill-opacity: 0.3; stroke: #1f77b4; stroke-opacity: 0.3"/>
    <path d="M 202.226087 473.015278 
C 204.147666 473.015278 205.990801 472.251827 207.349562 470.893065 
C 208.708324 469.534304 209.471775 467.691169 209.471775 465.76959 
C 209.471775 463.848011 208.708324 462.004876 207.349562 460.646115 
C 205.990801 459.287353 204.147666 458.523902 202.226087 458.523902 
C 200.304508 458.523902 198.461373 459.287353 197.102612 460.646115 
C 195.74385 462.004876 194.980399 463.848011 194.980399 465.76959 
C 194.980399 467.691169 195.74385 469.534304 197.102612 470.893065 
C 198.461373 472.251827 200.304508 473.015278 202.226087 473.015278 
z
" clip-path="url(#p885c9728a7)" style="fill: #1f77b4; fill-opacity: 0.3; stroke: #1f77b4; stroke-opacity: 0.3"/>
    <path d="M 219.870356 440.761816 
C 222.008491 440.761816 224.059343 439.912326 225.571233 438.400435 
C 227.083123 436.888545 227.932613 434.837694 227.932613 432.699558 
C 227.932613 430.561423 227.083123 428.510572 225.571233 426.998681 
C 224.059343 425.486791 222.008491 424.637301 219.870356 424.637301 
C 217.73222 424.637301 215.681369 425.486791 214.169479 426.998681 
C 212.657588 428.510572 211.808098 430.561423 211.808098 432.699558 
C 211.808098 434.837694 212.657588 436.888545 214.169479 438.400435 
C 215.681369 439.912326 217.73222 440.761816 219.870356 440.761816 
z
" clip-path="url(#p885c9728a7)" style="fill: #1f77b4; fill-opacity: 0.3; stroke: #1f77b4; stroke-opacity: 0.3"/>
    <path d="M 237.514625 433.008773 
C 237.933947 433.008773 238.336152 432.842174 238.632658 432.545668 
C 238.929165 432.249162 239.095763 431.846957 239.095763 431.427634 
C 239.095763 431.008311 238.929165 430.606106 238.632658 430.3096 
C 238.336152 430.013094 237.933947 429.846495 237.514625 429.846495 
C 237.095302 429.846495 236.693097 430.013094 236.396591 430.3096 
C 236.100084 430.606106 235.933486 431.008311 235.933486 431.427634 
C 235.933486 431.846957 236.100084 432.249162 236.396591 432.545668 
C 236.693097 432.842174 237.095302 433.008773 237.514625 433.008773 
z
" clip-path="url(#p885c9728a7)" style="fill: #1f77b4; fill-opacity: 0.3; stroke: #1f77b4; stroke-opacity: 0.3"/>
    <path d="M 255.158893 423.708391 
C 256.484909 423.708391 257.756793 423.18156 258.694427 422.243925 
C 259.632062 421.306291 260.158893 420.034407 260.158893 418.708391 
C 260.158893 417.382376 259.632062 416.110492 258.694427 415.172857 
C 257.756793 414.235223 256.484909 413.708391 255.158893 413.708391 
C 253.832878 413.708391 252.560994 414.235223 251.623359 415.172857 
C 250.685725 416.110492 250.158893 417.382376 250.158893 418.708391 
C 250.158893 420.034407 250.685725 421.306291 251.623359 422.243925 
C 252.560994 423.18156 253.832878 423.708391 255.158893 423.708391 
z
" clip-path="url(#p885c9728a7)" style="fill: #1f77b4; fill-opacity: 0.3; stroke: #1f77b4; stroke-opacity: 0.3"/>
    <path d="M 290.447431 415.884304 
C 291.385065 415.884304 292.284423 415.511777 292.947431 414.84877 
C 293.610439 414.185762 293.982965 413.286404 293.982965 412.34877 
C 293.982965 411.411135 293.610439 410.511777 292.947431 409.84877 
C 292.284423 409.185762 291.385065 408.813236 290.447431 408.813236 
C 289.509796 408.813236 288.610439 409.185762 287.947431 409.84877 
C 287.284423 410.511777 286.911897 411.411135 286.911897 412.34877 
C 286.911897 413.286404 287.284423 414.185762 287.947431 414.84877 
C 288.610439 415.511777 289.509796 415.884304 290.447431 415.884304 
z
" clip-path="url(#p885c9728a7)" style="fill: #1f77b4; fill-opacity: 0.3; stroke: #1f77b4; stroke-opacity: 0.3"/>
    <path d="M 308.0917 410.42335 
C 308.930345 410.42335 309.734755 410.090153 310.327768 409.497141 
C 310.92078 408.904128 311.253977 408.099718 311.253977 407.261073 
C 311.253977 406.422427 310.92078 405.618017 310.327768 405.025005 
C 309.734755 404.431992 308.930345 404.098795 308.0917 404.098795 
C 307.253054 404.098795 306.448644 404.431992 305.855632 405.025005 
C 305.262619 405.618017 304.929422 406.422427 304.929422 407.261073 
C 304.929422 408.099718 305.262619 408.904128 305.855632 409.497141 
C 306.448644 410.090153 307.253054 410.42335 308.0917 410.42335 
z
" clip-path="url(#p885c9728a7)" style="fill: #1f77b4; fill-opacity: 0.3; stroke: #1f77b4; stroke-opacity: 0.3"/>
    <path d="M 325.735968 406.183912 
C 326.462257 406.183912 327.158896 405.895355 327.67246 405.381791 
C 328.186024 404.868228 328.474581 404.171588 328.474581 403.4453 
C 328.474581 402.719011 328.186024 402.022372 327.67246 401.508808 
C 327.158896 400.995244 326.462257 400.706687 325.735968 400.706687 
C 325.00968 400.706687 324.31304 400.995244 323.799477 401.508808 
C 323.285913 402.022372 322.997356 402.719011 322.997356 403.4453 
C 322.997356 404.171588 323.285913 404.868228 323.799477 405.381791 
C 324.31304 405.895355 325.00968 406.183912 325.735968 406.183912 
z
" clip-path="url(#p885c9728a7)" style="fill: #1f77b4; fill-opacity: 0.3; stroke: #1f77b4; stroke-opacity: 0.3"/>
    <path d="M 343.380237 401.51988 
C 344.218883 401.51988 345.023293 401.186683 345.616305 400.593671 
C 346.209317 400.000658 346.542515 399.196248 346.542515 398.357603 
C 346.542515 397.518957 346.209317 396.714547 345.616305 396.121535 
C 345.023293 395.528522 344.218883 395.195325 343.380237 395.195325 
C 342.541591 395.195325 341.737181 395.528522 341.144169 396.121535 
C 340.551157 396.714547 340.217959 397.518957 340.217959 398.357603 
C 340.217959 399.196248 340.551157 400.000658 341.144169 400.593671 
C 341.737181 401.186683 342.541591 401.51988 343.380237 401.51988 
z
" clip-path="url(#p885c9728a7)" style="fill: #1f77b4; fill-opacity: 0.3; stroke: #1f77b4; stroke-opacity: 0.3"/>
    <path d="M 361.024506 394.59904 
C 362.051633 394.59904 363.03683 394.190958 363.763119 393.46467 
C 364.489407 392.738381 364.897489 391.753184 364.897489 390.726057 
C 364.897489 389.69893 364.489407 388.713733 363.763119 387.987444 
C 363.03683 387.261155 362.051633 386.853073 361.024506 386.853073 
C 359.997379 386.853073 359.012182 387.261155 358.285893 387.987444 
C 357.559605 388.713733 357.151523 389.69893 357.151523 390.726057 
C 357.151523 391.753184 357.559605 392.738381 358.285893 393.46467 
C 359.012182 394.190958 359.997379 394.59904 361.024506 394.59904 
z
" clip-path="url(#p885c9728a7)" style="fill: #1f77b4; fill-opacity: 0.3; stroke: #1f77b4; stroke-opacity: 0.3"/>
    <path d="M 378.668775 376.699823 
C 380.346066 376.699823 381.954886 376.033428 383.140911 374.847404 
C 384.326935 373.66138 384.99333 372.05256 384.99333 370.375268 
C 384.99333 368.697976 384.326935 367.089157 383.140911 365.903132 
C 381.954886 364.717108 380.346066 364.050713 378.668775 364.050713 
C 376.991483 364.050713 375.382663 364.717108 374.196639 365.903132 
C 373.010614 367.089157 372.344219 368.697976 372.344219 370.375268 
C 372.344219 372.05256 373.010614 373.66138 374.196639 374.847404 
C 375.382663 376.033428 376.991483 376.699823 378.668775 376.699823 
z
" clip-path="url(#p885c9728a7)" style="fill: #1f77b4; fill-opacity: 0.3; stroke: #1f77b4; stroke-opacity: 0.3"/>
    <path d="M 396.313043 369.298108 
C 397.039332 369.298108 397.735972 369.009551 398.249535 368.495987 
C 398.763099 367.982423 399.051656 367.285784 399.051656 366.559495 
C 399.051656 365.833207 398.763099 365.136567 398.249535 364.623004 
C 397.735972 364.10944 397.039332 363.820882 396.313043 363.820882 
C 395.586755 363.820882 394.890115 364.10944 394.376552 364.623004 
C 393.862988 365.136567 393.574431 365.833207 393.574431 366.559495 
C 393.574431 367.285784 393.862988 367.982423 394.376552 368.495987 
C 394.890115 369.009551 395.586755 369.298108 396.313043 369.298108 
z
" clip-path="url(#p885c9728a7)" style="fill: #1f77b4; fill-opacity: 0.3; stroke: #1f77b4; stroke-opacity: 0.3"/>
    <path d="M 413.957312 365.482335 
C 414.683601 365.482335 415.38024 365.193778 415.893804 364.680214 
C 416.407368 364.16665 416.695925 363.470011 416.695925 362.743722 
C 416.695925 362.017434 416.407368 361.320794 415.893804 360.807231 
C 415.38024 360.293667 414.683601 360.00511 413.957312 360.00511 
C 413.231024 360.00511 412.534384 360.293667 412.020821 360.807231 
C 411.507257 361.320794 411.218699 362.017434 411.218699 362.743722 
C 411.218699 363.470011 411.507257 364.16665 412.020821 364.680214 
C 412.534384 365.193778 413.231024 365.482335 413.957312 365.482335 
z
" clip-path="url(#p885c9728a7)" style="fill: #1f77b4; fill-opacity: 0.3; stroke: #1f77b4; stroke-opacity: 0.3"/>
    <path d="M 431.601581 349.788582 
C 433.225612 349.788582 434.783345 349.143348 435.931708 347.994985 
C 437.080071 346.846622 437.725305 345.288889 437.725305 343.664858 
C 437.725305 342.040827 437.080071 340.483094 435.931708 339.334731 
C 434.783345 338.186368 433.225612 337.541134 431.601581 337.541134 
C 429.97755 337.541134 428.419817 338.186368 427.271454 339.334731 
C 426.123091 340.483094 425.477857 342.040827 425.477857 343.664858 
C 425.477857 345.288889 426.123091 346.846622 427.271454 347.994985 
C 428.419817 349.143348 429.97755 349.788582 431.601581 349.788582 
z
" clip-path="url(#p885c9728a7)" style="fill: #1f77b4; fill-opacity: 0.3; stroke: #1f77b4; stroke-opacity: 0.3"/>
    <path d="M 449.24585 341.739439 
C 450.084496 341.739439 450.888906 341.406241 451.481918 340.813229 
C 452.07493 340.220217 452.408127 339.415807 452.408127 338.577161 
C 452.408127 337.738515 452.07493 336.934105 451.481918 336.341093 
C 450.888906 335.748081 450.084496 335.414883 449.24585 335.414883 
C 448.407204 335.414883 447.602794 335.748081 447.009782 336.341093 
C 446.41677 336.934105 446.083572 337.738515 446.083572 338.577161 
C 446.083572 339.415807 446.41677 340.220217 447.009782 340.813229 
C 447.602794 341.406241 448.407204 341.739439 449.24585 341.739439 
z
" clip-path="url(#p885c9728a7)" style="fill: #1f77b4; fill-opacity: 0.3; stroke: #1f77b4; stroke-opacity: 0.3"/>
    <path d="M 466.890119 328.791295 
C 468.342696 328.791295 469.735975 328.21418 470.763102 327.187053 
C 471.790229 326.159926 472.367344 324.766647 472.367344 323.314069 
C 472.367344 321.861492 471.790229 320.468213 470.763102 319.441086 
C 469.735975 318.413959 468.342696 317.836844 466.890119 317.836844 
C 465.437541 317.836844 464.044262 318.413959 463.017135 319.441086 
C 461.990008 320.468213 461.412893 321.861492 461.412893 323.314069 
C 461.412893 324.766647 461.990008 326.159926 463.017135 327.187053 
C 464.044262 328.21418 465.437541 328.791295 466.890119 328.791295 
z
" clip-path="url(#p885c9728a7)" style="fill: #1f77b4; fill-opacity: 0.3; stroke: #1f77b4; stroke-opacity: 0.3"/>
    <path d="M 484.534387 320.489982 
C 485.472022 320.489982 486.37138 320.117456 487.034387 319.454448 
C 487.697395 318.79144 488.069921 317.892083 488.069921 316.954448 
C 488.069921 316.016813 487.697395 315.117456 487.034387 314.454448 
C 486.37138 313.79144 485.472022 313.418914 484.534387 313.418914 
C 483.596753 313.418914 482.697395 313.79144 482.034387 314.454448 
C 481.37138 315.117456 480.998853 316.016813 480.998853 316.954448 
C 480.998853 317.892083 481.37138 318.79144 482.034387 319.454448 
C 482.697395 320.117456 483.596753 320.489982 484.534387 320.489982 
z
" clip-path="url(#p885c9728a7)" style="fill: #1f77b4; fill-opacity: 0.3; stroke: #1f77b4; stroke-opacity: 0.3"/>
    <path d="M 502.178656 313.195886 
C 503.205783 313.195886 504.19098 312.787804 504.917269 312.061515 
C 505.643558 311.335226 506.051639 310.350029 506.051639 309.322902 
C 506.051639 308.295775 505.643558 307.310578 504.917269 306.584289 
C 504.19098 305.858001 503.205783 305.449919 502.178656 305.449919 
C 501.151529 305.449919 500.166332 305.858001 499.440043 306.584289 
C 498.713755 307.310578 498.305673 308.295775 498.305673 309.322902 
C 498.305673 310.350029 498.713755 311.335226 499.440043 312.061515 
C 500.166332 312.787804 501.151529 313.195886 502.178656 313.195886 
z
" clip-path="url(#p885c9728a7)" style="fill: #1f77b4; fill-opacity: 0.3; stroke: #1f77b4; stroke-opacity: 0.3"/>
    <path d="M 519.822925 308.245742 
C 520.549214 308.245742 521.245853 307.957185 521.759417 307.443621 
C 522.27298 306.930057 522.561538 306.233418 522.561538 305.507129 
C 522.561538 304.780841 522.27298 304.084201 521.759417 303.570638 
C 521.245853 303.057074 520.549214 302.768517 519.822925 302.768517 
C 519.096636 302.768517 518.399997 303.057074 517.886433 303.570638 
C 517.37287 304.084201 517.084312 304.780841 517.084312 305.507129 
C 517.084312 306.233418 517.37287 306.930057 517.886433 307.443621 
C 518.399997 307.957185 519.096636 308.245742 519.822925 308.245742 
z
" clip-path="url(#p885c9728a7)" style="fill: #1f77b4; fill-opacity: 0.3; stroke: #1f77b4; stroke-opacity: 0.3"/>
    <path d="M 537.467194 304.429969 
C 538.193482 304.429969 538.890122 304.141412 539.403685 303.627848 
C 539.917249 303.114285 540.205806 302.417645 540.205806 301.691356 
C 540.205806 300.965068 539.917249 300.268428 539.403685 299.754865 
C 538.890122 299.241301 538.193482 298.952744 537.467194 298.952744 
C 536.740905 298.952744 536.044266 299.241301 535.530702 299.754865 
C 535.017138 300.268428 534.728581 300.965068 534.728581 301.691356 
C 534.728581 302.417645 535.017138 303.114285 535.530702 303.627848 
C 536.044266 304.141412 536.740905 304.429969 537.467194 304.429969 
z
" clip-path="url(#p885c9728a7)" style="fill: #1f77b4; fill-opacity: 0.3; stroke: #1f77b4; stroke-opacity: 0.3"/>
    <path d="M 555.111462 298.867269 
C 556.049097 298.867269 556.948455 298.494743 557.611462 297.831735 
C 558.27447 297.168727 558.646996 296.26937 558.646996 295.331735 
C 558.646996 294.3941 558.27447 293.494743 557.611462 292.831735 
C 556.948455 292.168727 556.049097 291.796201 555.111462 291.796201 
C 554.173828 291.796201 553.27447 292.168727 552.611462 292.831735 
C 551.948455 293.494743 551.575929 294.3941 551.575929 295.331735 
C 551.575929 296.26937 551.948455 297.168727 552.611462 297.831735 
C 553.27447 298.494743 554.173828 298.867269 555.111462 298.867269 
z
" clip-path="url(#p885c9728a7)" style="fill: #1f77b4; fill-opacity: 0.3; stroke: #1f77b4; stroke-opacity: 0.3"/>
    <path d="M 572.755731 292.507647 
C 573.693366 292.507647 574.592723 292.135121 575.255731 291.472114 
C 575.918739 290.809106 576.291265 289.909748 576.291265 288.972114 
C 576.291265 288.034479 575.918739 287.135121 575.255731 286.472114 
C 574.592723 285.809106 573.693366 285.43658 572.755731 285.43658 
C 571.818097 285.43658 570.918739 285.809106 570.255731 286.472114 
C 569.592723 287.135121 569.220197 288.034479 569.220197 288.972114 
C 569.220197 289.909748 569.592723 290.809106 570.255731 291.472114 
C 570.918739 292.135121 571.818097 292.507647 572.755731 292.507647 
z
" clip-path="url(#p885c9728a7)" style="fill: #1f77b4; fill-opacity: 0.3; stroke: #1f77b4; stroke-opacity: 0.3"/>
    <path d="M 590.4 287.046694 
C 591.238646 287.046694 592.043056 286.713497 592.636068 286.120484 
C 593.22908 285.527472 593.562278 284.723062 593.562278 283.884416 
C 593.562278 283.045771 593.22908 282.241361 592.636068 281.648348 
C 592.043056 281.055336 591.238646 280.722139 590.4 280.722139 
C 589.561354 280.722139 588.756944 281.055336 588.163932 281.648348 
C 587.57092 282.241361 587.237722 283.045771 587.237722 283.884416 
C 587.237722 284.723062 587.57092 285.527472 588.163932 286.120484 
C 588.756944 286.713497 589.561354 287.046694 590.4 287.046694 
z
" clip-path="url(#p885c9728a7)" style="fill: #1f77b4; fill-opacity: 0.3; stroke: #1f77b4; stroke-opacity: 0.3"/>
    <path d="M 608.044269 283.576636 
C 608.637281 283.576636 609.206085 283.34103 609.625408 282.921707 
C 610.044731 282.502384 610.280337 281.93358 610.280337 281.340568 
C 610.280337 280.747556 610.044731 280.178752 609.625408 279.759429 
C 609.206085 279.340106 608.637281 279.1045 608.044269 279.1045 
C 607.451257 279.1045 606.882453 279.340106 606.46313 279.759429 
C 606.043807 280.178752 605.808201 280.747556 605.808201 281.340568 
C 605.808201 281.93358 606.043807 282.502384 606.46313 282.921707 
C 606.882453 283.34103 607.451257 283.576636 608.044269 283.576636 
z
" clip-path="url(#p885c9728a7)" style="fill: #1f77b4; fill-opacity: 0.3; stroke: #1f77b4; stroke-opacity: 0.3"/>
    <path d="M 625.688538 276.620398 
C 626.797962 276.620398 627.862096 276.179619 628.646577 275.395138 
C 629.431059 274.610656 629.871838 273.546522 629.871838 272.437098 
C 629.871838 271.327674 629.431059 270.263539 628.646577 269.479058 
C 627.862096 268.694577 626.797962 268.253798 625.688538 268.253798 
C 624.579113 268.253798 623.514979 268.694577 622.730498 269.479058 
C 621.946016 270.263539 621.505237 271.327674 621.505237 272.437098 
C 621.505237 273.546522 621.946016 274.610656 622.730498 275.395138 
C 623.514979 276.179619 624.579113 276.620398 625.688538 276.620398 
z
" clip-path="url(#p885c9728a7)" style="fill: #1f77b4; fill-opacity: 0.3; stroke: #1f77b4; stroke-opacity: 0.3"/>
    <path d="M 643.332806 272.129317 
C 643.925818 272.129317 644.494622 271.893711 644.913945 271.474388 
C 645.333268 271.055065 645.568874 270.486261 645.568874 269.893249 
C 645.568874 269.300237 645.333268 268.731433 644.913945 268.31211 
C 644.494622 267.892787 643.925818 267.657181 643.332806 267.657181 
C 642.739794 267.657181 642.17099 267.892787 641.751667 268.31211 
C 641.332345 268.731433 641.096738 269.300237 641.096738 269.893249 
C 641.096738 270.486261 641.332345 271.055065 641.751667 271.474388 
C 642.17099 271.893711 642.739794 272.129317 643.332806 272.129317 
z
" clip-path="url(#p885c9728a7)" style="fill: #1f77b4; fill-opacity: 0.3; stroke: #1f77b4; stroke-opacity: 0.3"/>
    <path d="M 678.621344 262.174006 
C 679.947359 262.174006 681.219243 261.647175 682.156878 260.70954 
C 683.094512 259.771906 683.621344 258.500022 683.621344 257.174006 
C 683.621344 255.847991 683.094512 254.576107 682.156878 253.638472 
C 681.219243 252.700838 679.947359 252.174006 678.621344 252.174006 
C 677.295328 252.174006 676.023445 252.700838 675.08581 253.638472 
C 674.148175 254.576107 673.621344 255.847991 673.621344 257.174006 
C 673.621344 258.500022 674.148175 259.771906 675.08581 260.70954 
C 676.023445 261.647175 677.295328 262.174006 678.621344 262.174006 
z
" clip-path="url(#p885c9728a7)" style="fill: #1f77b4; fill-opacity: 0.3; stroke: #1f77b4; stroke-opacity: 0.3"/>
    <path d="M 696.265613 257.483221 
C 696.684936 257.483221 697.087141 257.316622 697.383647 257.020116 
C 697.680153 256.72361 697.846751 256.321405 697.846751 255.902082 
C 697.846751 255.482759 697.680153 255.080554 697.383647 254.784048 
C 697.087141 254.487542 696.684936 254.320943 696.265613 254.320943 
C 695.84629 254.320943 695.444085 254.487542 695.147579 254.784048 
C 694.851073 255.080554 694.684474 255.482759 694.684474 255.902082 
C 694.684474 256.321405 694.851073 256.72361 695.147579 257.020116 
C 695.444085 257.316622 695.84629 257.483221 696.265613 257.483221 
z
" clip-path="url(#p885c9728a7)" style="fill: #1f77b4; fill-opacity: 0.3; stroke: #1f77b4; stroke-opacity: 0.3"/>
    <path d="M 713.909881 252.14352 
C 714.937009 252.14352 715.922206 251.735438 716.648494 251.009149 
C 717.374783 250.28286 717.782865 249.297663 717.782865 248.270536 
C 717.782865 247.243409 717.374783 246.258212 716.648494 245.531923 
C 715.922206 244.805635 714.937009 244.397553 713.909881 244.397553 
C 712.882754 244.397553 711.897557 244.805635 711.171269 245.531923 
C 710.44498 246.258212 710.036898 247.243409 710.036898 248.270536 
C 710.036898 249.297663 710.44498 250.28286 711.171269 251.009149 
C 711.897557 251.735438 712.882754 252.14352 713.909881 252.14352 
z
" clip-path="url(#p885c9728a7)" style="fill: #1f77b4; fill-opacity: 0.3; stroke: #1f77b4; stroke-opacity: 0.3"/>
    <path d="M 731.55415 235.315396 
C 733.178181 235.315396 734.735914 234.670162 735.884277 233.521799 
C 737.03264 232.373436 737.677875 230.815703 737.677875 229.191672 
C 737.677875 227.567641 737.03264 226.009908 735.884277 224.861545 
C 734.735914 223.713182 733.178181 223.067948 731.55415 223.067948 
C 729.93012 223.067948 728.372386 223.713182 727.224023 224.861545 
C 726.07566 226.009908 725.430426 227.567641 725.430426 229.191672 
C 725.430426 230.815703 726.07566 232.373436 727.224023 233.521799 
C 728.372386 234.670162 729.93012 235.315396 731.55415 235.315396 
z
" clip-path="url(#p885c9728a7)" style="fill: #1f77b4; fill-opacity: 0.3; stroke: #1f77b4; stroke-opacity: 0.3"/>
    <path d="M 749.198419 216.236532 
C 750.82245 216.236532 752.380183 215.591298 753.528546 214.442935 
C 754.676909 213.294571 755.322143 211.736838 755.322143 210.112808 
C 755.322143 208.488777 754.676909 206.931044 753.528546 205.782681 
C 752.380183 204.634317 750.82245 203.989083 749.198419 203.989083 
C 747.574388 203.989083 746.016655 204.634317 744.868292 205.782681 
C 743.719929 206.931044 743.074695 208.488777 743.074695 210.112808 
C 743.074695 211.736838 743.719929 213.294571 744.868292 214.442935 
C 746.016655 215.591298 747.574388 216.236532 749.198419 216.236532 
z
" clip-path="url(#p885c9728a7)" style="fill: #1f77b4; fill-opacity: 0.3; stroke: #1f77b4; stroke-opacity: 0.3"/>
    <path d="M 766.842688 209.035647 
C 767.568976 209.035647 768.265616 208.74709 768.779179 208.233526 
C 769.292743 207.719963 769.581301 207.023323 769.581301 206.297035 
C 769.581301 205.570746 769.292743 204.874107 768.779179 204.360543 
C 768.265616 203.846979 767.568976 203.558422 766.842688 203.558422 
C 766.116399 203.558422 765.41976 203.846979 764.906196 204.360543 
C 764.392632 204.874107 764.104075 205.570746 764.104075 206.297035 
C 764.104075 207.023323 764.392632 207.719963 764.906196 208.233526 
C 765.41976 208.74709 766.116399 209.035647 766.842688 209.035647 
z
" clip-path="url(#p885c9728a7)" style="fill: #1f77b4; fill-opacity: 0.3; stroke: #1f77b4; stroke-opacity: 0.3"/>
    <path d="M 802.131225 204.371615 
C 802.969871 204.371615 803.774281 204.038418 804.367293 203.445406 
C 804.960305 202.852393 805.293503 202.047983 805.293503 201.209338 
C 805.293503 200.370692 804.960305 199.566282 804.367293 198.97327 
C 803.774281 198.380257 802.969871 198.04706 802.131225 198.04706 
C 801.292579 198.04706 800.488169 198.380257 799.895157 198.97327 
C 799.302145 199.566282 798.968948 200.370692 798.968948 201.209338 
C 798.968948 202.047983 799.302145 202.852393 799.895157 203.445406 
C 800.488169 204.038418 801.292579 204.371615 802.131225 204.371615 
z
" clip-path="url(#p885c9728a7)" style="fill: #1f77b4; fill-opacity: 0.3; stroke: #1f77b4; stroke-opacity: 0.3"/>
    <path d="M 819.775494 186.105827 
C 821.504407 186.105827 823.16274 185.418923 824.385266 184.196397 
C 825.607792 182.973871 826.294696 181.315537 826.294696 179.586625 
C 826.294696 177.857712 825.607792 176.199378 824.385266 174.976852 
C 823.16274 173.754326 821.504407 173.067422 819.775494 173.067422 
C 818.046581 173.067422 816.388248 173.754326 815.165722 174.976852 
C 813.943196 176.199378 813.256292 177.857712 813.256292 179.586625 
C 813.256292 181.315537 813.943196 182.973871 815.165722 184.196397 
C 816.388248 185.418923 818.046581 186.105827 819.775494 186.105827 
z
" clip-path="url(#p885c9728a7)" style="fill: #1f77b4; fill-opacity: 0.3; stroke: #1f77b4; stroke-opacity: 0.3"/>
    <path d="M 837.419763 179.895839 
C 837.839086 179.895839 838.241291 179.72924 838.537797 179.432734 
C 838.834303 179.136228 839.000902 178.734023 839.000902 178.3147 
C 839.000902 177.895377 838.834303 177.493172 838.537797 177.196666 
C 838.241291 176.90016 837.839086 176.733561 837.419763 176.733561 
C 837.00044 176.733561 836.598235 176.90016 836.301729 177.196666 
C 836.005223 177.493172 835.838624 177.895377 835.838624 178.3147 
C 835.838624 178.734023 836.005223 179.136228 836.301729 179.432734 
C 836.598235 179.72924 837.00044 179.895839 837.419763 179.895839 
z
" clip-path="url(#p885c9728a7)" style="fill: #1f77b4; fill-opacity: 0.3; stroke: #1f77b4; stroke-opacity: 0.3"/>
    <path d="M 855.064032 176.389281 
C 855.902677 176.389281 856.707087 176.056083 857.3001 175.463071 
C 857.893112 174.870059 858.226309 174.065649 858.226309 173.227003 
C 858.226309 172.388357 857.893112 171.583947 857.3001 170.990935 
C 856.707087 170.397923 855.902677 170.064725 855.064032 170.064725 
C 854.225386 170.064725 853.420976 170.397923 852.827964 170.990935 
C 852.234951 171.583947 851.901754 172.388357 851.901754 173.227003 
C 851.901754 174.065649 852.234951 174.870059 852.827964 175.463071 
C 853.420976 176.056083 854.225386 176.389281 855.064032 176.389281 
z
" clip-path="url(#p885c9728a7)" style="fill: #1f77b4; fill-opacity: 0.3; stroke: #1f77b4; stroke-opacity: 0.3"/>
    <path d="M 872.7083 172.149843 
C 873.434589 172.149843 874.131228 171.861286 874.644792 171.347722 
C 875.158356 170.834158 875.446913 170.137519 875.446913 169.41123 
C 875.446913 168.684942 875.158356 167.988302 874.644792 167.474739 
C 874.131228 166.961175 873.434589 166.672617 872.7083 166.672617 
C 871.982012 166.672617 871.285372 166.961175 870.771809 167.474739 
C 870.258245 167.988302 869.969688 168.684942 869.969688 169.41123 
C 869.969688 170.137519 870.258245 170.834158 870.771809 171.347722 
C 871.285372 171.861286 871.982012 172.149843 872.7083 172.149843 
z
" clip-path="url(#p885c9728a7)" style="fill: #1f77b4; fill-opacity: 0.3; stroke: #1f77b4; stroke-opacity: 0.3"/>
    <path d="M 890.352569 168.33407 
C 891.078858 168.33407 891.775497 168.045513 892.289061 167.531949 
C 892.802624 167.018385 893.091182 166.321746 893.091182 165.595457 
C 893.091182 164.869169 892.802624 164.172529 892.289061 163.658966 
C 891.775497 163.145402 891.078858 162.856845 890.352569 162.856845 
C 889.626281 162.856845 888.929641 163.145402 888.416077 163.658966 
C 887.902514 164.172529 887.613956 164.869169 887.613956 165.595457 
C 887.613956 166.321746 887.902514 167.018385 888.416077 167.531949 
C 888.929641 168.045513 889.626281 168.33407 890.352569 168.33407 
z
" clip-path="url(#p885c9728a7)" style="fill: #1f77b4; fill-opacity: 0.3; stroke: #1f77b4; stroke-opacity: 0.3"/>
    <path d="M 907.996838 149.409024 
C 909.775874 149.409024 911.482286 148.702205 912.740254 147.444237 
C 913.998223 146.186268 914.705042 144.479857 914.705042 142.70082 
C 914.705042 140.921784 913.998223 139.215372 912.740254 137.957404 
C 911.482286 136.699435 909.775874 135.992616 907.996838 135.992616 
C 906.217801 135.992616 904.51139 136.699435 903.253421 137.957404 
C 901.995453 139.215372 901.288634 140.921784 901.288634 142.70082 
C 901.288634 144.479857 901.995453 146.186268 903.253421 147.444237 
C 904.51139 148.702205 906.217801 149.409024 907.996838 149.409024 
z
" clip-path="url(#p885c9728a7)" style="fill: #1f77b4; fill-opacity: 0.3; stroke: #1f77b4; stroke-opacity: 0.3"/>
    <path d="M 925.641107 141.62366 
C 926.367395 141.62366 927.064035 141.335103 927.577598 140.821539 
C 928.091162 140.307975 928.37972 139.611336 928.37972 138.885047 
C 928.37972 138.158759 928.091162 137.462119 927.577598 136.948556 
C 927.064035 136.434992 926.367395 136.146435 925.641107 136.146435 
C 924.914818 136.146435 924.218179 136.434992 923.704615 136.948556 
C 923.191051 137.462119 922.902494 138.158759 922.902494 138.885047 
C 922.902494 139.611336 923.191051 140.307975 923.704615 140.821539 
C 924.218179 141.335103 924.914818 141.62366 925.641107 141.62366 
z
" clip-path="url(#p885c9728a7)" style="fill: #1f77b4; fill-opacity: 0.3; stroke: #1f77b4; stroke-opacity: 0.3"/>
    <path d="M 943.285375 134.164877 
C 944.3948 134.164877 945.458934 133.724099 946.243415 132.939617 
C 947.027897 132.155136 947.468676 131.091001 947.468676 129.981577 
C 947.468676 128.872153 947.027897 127.808019 946.243415 127.023537 
C 945.458934 126.239056 944.3948 125.798277 943.285375 125.798277 
C 942.175951 125.798277 941.111817 126.239056 940.327336 127.023537 
C 939.542854 127.808019 939.102075 128.872153 939.102075 129.981577 
C 939.102075 131.091001 939.542854 132.155136 940.327336 132.939617 
C 941.111817 133.724099 942.175951 134.164877 943.285375 134.164877 
z
" clip-path="url(#p885c9728a7)" style="fill: #1f77b4; fill-opacity: 0.3; stroke: #1f77b4; stroke-opacity: 0.3"/>
    <path d="M 960.929644 128.056158 
C 961.76829 128.056158 962.5727 127.72296 963.165712 127.129948 
C 963.758724 126.536936 964.091922 125.732526 964.091922 124.89388 
C 964.091922 124.055234 963.758724 123.250824 963.165712 122.657812 
C 962.5727 122.0648 961.76829 121.731602 960.929644 121.731602 
C 960.090998 121.731602 959.286588 122.0648 958.693576 122.657812 
C 958.100564 123.250824 957.767367 124.055234 957.767367 124.89388 
C 957.767367 125.732526 958.100564 126.536936 958.693576 127.129948 
C 959.286588 127.72296 960.090998 128.056158 960.929644 128.056158 
z
" clip-path="url(#p885c9728a7)" style="fill: #1f77b4; fill-opacity: 0.3; stroke: #1f77b4; stroke-opacity: 0.3"/>
    <path d="M 978.573913 109.79037 
C 980.302826 109.79037 981.961159 109.103465 983.183685 107.880939 
C 984.406211 106.658414 985.093115 105.00008 985.093115 103.271167 
C 985.093115 101.542255 984.406211 99.883921 983.183685 98.661395 
C 981.961159 97.438869 980.302826 96.751965 978.573913 96.751965 
C 976.845 96.751965 975.186667 97.438869 973.964141 98.661395 
C 972.741615 99.883921 972.054711 101.542255 972.054711 103.271167 
C 972.054711 105.00008 972.741615 106.658414 973.964141 107.880939 
C 975.186667 109.103465 976.845 109.79037 978.573913 109.79037 
z
" clip-path="url(#p885c9728a7)" style="fill: #1f77b4; fill-opacity: 0.3; stroke: #1f77b4; stroke-opacity: 0.3"/>
    <path d="M 996.218182 94.524044 
C 997.608919 94.524044 998.942882 93.971499 999.926281 92.988099 
C 1000.90968 92.0047 1001.462226 90.670737 1001.462226 89.28 
C 1001.462226 87.889263 1000.90968 86.5553 999.926281 85.571901 
C 998.942882 84.588501 997.608919 84.035956 996.218182 84.035956 
C 994.827445 84.035956 993.493482 84.588501 992.510083 85.571901 
C 991.526683 86.5553 990.974138 87.889263 990.974138 89.28 
C 990.974138 90.670737 991.526683 92.0047 992.510083 92.988099 
C 993.493482 93.971499 994.827445 94.524044 996.218182 94.524044 
z
" clip-path="url(#p885c9728a7)" style="fill: #1f77b4; fill-opacity: 0.3; stroke: #1f77b4; stroke-opacity: 0.3"/>
   </g>
   <g id="matplotlib.axis_1">
    <g id="xtick_1">
     <g id="line2d_1">
      <defs>
       <path id="m208bca265a" d="M 0 0 
L 0 3.5 
" style="stroke: #000000; stroke-width: 0.8"/>
      </defs>
      <g>
       <use xlink:href="#m208bca265a" x="184.581818" y="512.64" style="stroke: #000000; stroke-width: 0.8"/>
      </g>
     </g>
     <g id="text_1">
      <!-- 2024-01-01 -->
      <g transform="translate(155.524006 527.238438)scale(0.1 -0.1)">
       <defs>
        <path id="DejaVuSans-32" d="M 1228 531 
L 3431 531 
L 3431 0 
L 469 0 
L 469 531 
Q 828 903 1448 1529 
Q 2069 2156 2228 2338 
Q 2531 2678 2651 2914 
Q 2772 3150 2772 3378 
Q 2772 3750 2511 3984 
Q 2250 4219 1831 4219 
Q 1534 4219 1204 4116 
Q 875 4013 500 3803 
L 500 4441 
Q 881 4594 1212 4672 
Q 1544 4750 1819 4750 
Q 2544 4750 2975 4387 
Q 3406 4025 3406 3419 
Q 3406 3131 3298 2873 
Q 3191 2616 2906 2266 
Q 2828 2175 2409 1742 
Q 1991 1309 1228 531 
z
" transform="scale(0.015625)"/>
        <path id="DejaVuSans-30" d="M 2034 4250 
Q 1547 4250 1301 3770 
Q 1056 3291 1056 2328 
Q 1056 1369 1301 889 
Q 1547 409 2034 409 
Q 2525 409 2770 889 
Q 3016 1369 3016 2328 
Q 3016 3291 2770 3770 
Q 2525 4250 2034 4250 
z
M 2034 4750 
Q 2819 4750 3233 4129 
Q 3647 3509 3647 2328 
Q 3647 1150 3233 529 
Q 2819 -91 2034 -91 
Q 1250 -91 836 529 
Q 422 1150 422 2328 
Q 422 3509 836 4129 
Q 1250 4750 2034 4750 
z
" transform="scale(0.015625)"/>
        <path id="DejaVuSans-34" d="M 2419 4116 
L 825 1625 
L 2419 1625 
L 2419 4116 
z
M 2253 4666 
L 3047 4666 
L 3047 1625 
L 3713 1625 
L 3713 1100 
L 3047 1100 
L 3047 0 
L 2419 0 
L 2419 1100 
L 313 1100 
L 313 1709 
L 2253 4666 
z
" transform="scale(0.015625)"/>
        <path id="DejaVuSans-2d" d="M 313 2009 
L 1997 2009 
L 1997 1497 
L 313 1497 
L 313 2009 
z
" transform="scale(0.015625)"/>
        <path id="DejaVuSans-31" d="M 794 531 
L 1825 531 
L 1825 4091 
L 703 3866 
L 703 4441 
L 1819 4666 
L 2450 4666 
L 2450 531 
L 3481 531 
L 3481 0 
L 794 0 
L 794 531 
z
" transform="scale(0.015625)"/>
       </defs>
       <use xlink:href="#DejaVuSans-32"/>
       <use xlink:href="#DejaVuSans-30" x="63.623047"/>
       <use xlink:href="#DejaVuSans-32" x="127.246094"/>
       <use xlink:href="#DejaVuSans-34" x="190.869141"/>
       <use xlink:href="#DejaVuSans-2d" x="254.492188"/>
       <use xlink:href="#DejaVuSans-30" x="290.576172"/>
       <use xlink:href="#DejaVuSans-31" x="354.199219"/>
       <use xlink:href="#DejaVuSans-2d" x="417.822266"/>
       <use xlink:href="#DejaVuSans-30" x="453.90625"/>
       <use xlink:href="#DejaVuSans-31" x="517.529297"/>
      </g>
     </g>
    </g>
    <g id="xtick_2">
     <g id="line2d_2">
      <g>
       <use xlink:href="#m208bca265a" x="308.0917" y="512.64" style="stroke: #000000; stroke-width: 0.8"/>
      </g>
     </g>
     <g id="text_2">
      <!-- 2024-01-08 -->
      <g transform="translate(279.033887 527.238438)scale(0.1 -0.1)">
       <defs>
        <path id="DejaVuSans-38" d="M 2034 2216 
Q 1584 2216 1326 1975 
Q 1069 1734 1069 1313 
Q 1069 891 1326 650 
Q 1584 409 2034 409 
Q 2484 409 2743 651 
Q 3003 894 3003 1313 
Q 3003 1734 2745 1975 
Q 2488 2216 2034 2216 
z
M 1403 2484 
Q 997 2584 770 2862 
Q 544 3141 544 3541 
Q 544 4100 942 4425 
Q 1341 4750 2034 4750 
Q 2731 4750 3128 4425 
Q 3525 4100 3525 3541 
Q 3525 3141 3298 2862 
Q 3072 2584 2669 2484 
Q 3125 2378 3379 2068 
Q 3634 1759 3634 1313 
Q 3634 634 3220 271 
Q 2806 -91 2034 -91 
Q 1263 -91 848 271 
Q 434 634 434 1313 
Q 434 1759 690 2068 
Q 947 2378 1403 2484 
z
M 1172 3481 
Q 1172 3119 1398 2916 
Q 1625 2713 2034 2713 
Q 2441 2713 2670 2916 
Q 2900 3119 2900 3481 
Q 2900 3844 2670 4047 
Q 2441 4250 2034 4250 
Q 1625 4250 1398 4047 
Q 1172 3844 1172 3481 
z
" transform="scale(0.015625)"/>
       </defs>
       <use xlink:href="#DejaVuSans-32"/>
       <use xlink:href="#DejaVuSans-30" x="63.623047"/>
       <use xlink:href="#DejaVuSans-32" x="127.246094"/>
       <use xlink:href="#DejaVuSans-34" x="190.869141"/>
       <use xlink:href="#DejaVuSans-2d" x="254.492188"/>
       <use xlink:href="#DejaVuSans-30" x="290.576172"/>
       <use xlink:href="#DejaVuSans-31" x="354.199219"/>
       <use xlink:href="#DejaVuSans-2d" x="417.822266"/>
       <use xlink:href="#DejaVuSans-30" x="453.90625"/>
       <use xlink:href="#DejaVuSans-38" x="517.529297"/>
      </g>
     </g>
    </g>
    <g id="xtick_3">
     <g id="line2d_3">
      <g>
       <use xlink:href="#m208bca265a" x="431.601581" y="512.64" style="stroke: #000000; stroke-width: 0.8"/>
      </g>
     </g>
     <g id="text_3">
      <!-- 2024-01-15 -->
      <g transform="translate(402.543769 527.238438)scale(0.1 -0.1)">
       <defs>
        <path id="DejaVuSans-35" d="M 691 4666 
L 3169 4666 
L 3169 4134 
L 1269 4134 
L 1269 2991 
Q 1406 3038 1543 3061 
Q 1681 3084 1819 3084 
Q 2600 3084 3056 2656 
Q 3513 2228 3513 1497 
Q 3513 744 3044 326 
Q 2575 -91 1722 -91 
Q 1428 -91 1123 -41 
Q 819 9 494 109 
L 494 744 
Q 775 591 1075 516 
Q 1375 441 1709 441 
Q 2250 441 2565 725 
Q 2881 1009 2881 1497 
Q 2881 1984 2565 2268 
Q 2250 2553 1709 2553 
Q 1456 2553 1204 2497 
Q 953 2441 691 2322 
L 691 4666 
z
" transform="scale(0.015625)"/>
       </defs>
       <use xlink:href="#DejaVuSans-32"/>
       <use xlink:href="#DejaVuSans-30" x="63.623047"/>
       <use xlink:href="#DejaVuSans-32" x="127.246094"/>
       <use xlink:href="#DejaVuSans-34" x="190.869141"/>
       <use xlink:href="#DejaVuSans-2d" x="254.492188"/>
       <use xlink:href="#DejaVuSans-30" x="290.576172"/>
       <use xlink:href="#DejaVuSans-31" x="354.199219"/>
       <use xlink:href="#DejaVuSans-2d" x="417.822266"/>
       <use xlink:href="#DejaVuSans-31" x="453.90625"/>
       <use xlink:href="#DejaVuSans-35" x="517.529297"/>
      </g>
     </g>
    </g>
    <g id="xtick_4">
     <g id="line2d_4">
      <g>
       <use xlink:href="#m208bca265a" x="555.111462" y="512.64" style="stroke: #000000; stroke-width: 0.8"/>
      </g>
     </g>
     <g id="text_4">
      <!-- 2024-01-22 -->
      <g transform="translate(526.05365 527.238438)scale(0.1 -0.1)">
       <use xlink:href="#DejaVuSans-32"/>
       <use xlink:href="#DejaVuSans-30" x="63.623047"/>
       <use xlink:href="#DejaVuSans-32" x="127.246094"/>
       <use xlink:href="#DejaVuSans-34" x="190.869141"/>
       <use xlink:href="#DejaVuSans-2d" x="254.492188"/>
       <use xlink:href="#DejaVuSans-30" x="290.576172"/>
       <use xlink:href="#DejaVuSans-31" x="354.199219"/>
       <use xlink:href="#DejaVuSans-2d" x="417.822266"/>
       <use xlink:href="#DejaVuSans-32" x="453.90625"/>
       <use xlink:href="#DejaVuSans-32" x="517.529297"/>
      </g>
     </g>
    </g>
    <g id="xtick_5">
     <g id="line2d_5">
      <g>
       <use xlink:href="#m208bca265a" x="731.55415" y="512.64" style="stroke: #000000; stroke-width: 0.8"/>
      </g>
     </g>
     <g id="text_5">
      <!-- 2024-02-01 -->
      <g transform="translate(702.496338 527.238438)scale(0.1 -0.1)">
       <use xlink:href="#DejaVuSans-32"/>
       <use xlink:href="#DejaVuSans-30" x="63.623047"/>
       <use xlink:href="#DejaVuSans-32" x="127.246094"/>
       <use xlink:href="#DejaVuSans-34" x="190.869141"/>
       <use xlink:href="#DejaVuSans-2d" x="254.492188"/>
       <use xlink:href="#DejaVuSans-30" x="290.576172"/>
       <use xlink:href="#DejaVuSans-32" x="354.199219"/>
       <use xlink:href="#DejaVuSans-2d" x="417.822266"/>
       <use xlink:href="#DejaVuSans-30" x="453.90625"/>
       <use xlink:href="#DejaVuSans-31" x="517.529297"/>
      </g>
     </g>
    </g>
    <g id="xtick_6">
     <g id="line2d_6">
      <g>
       <use xlink:href="#m208bca265a" x="855.064032" y="512.64" style="stroke: #000000; stroke-width: 0.8"/>
      </g>
     </g>
     <g id="text_6">
      <!-- 2024-02-08 -->
      <g transform="translate(826.006219 527.238438)scale(0.1 -0.1)">
       <use xlink:href="#DejaVuSans-32"/>
       <use xlink:href="#DejaVuSans-30" x="63.623047"/>
       <use xlink:href="#DejaVuSans-32" x="127.246094"/>
       <use xlink:href="#DejaVuSans-34" x="190.869141"/>
       <use xlink:href="#DejaVuSans-2d" x="254.492188"/>
       <use xlink:href="#DejaVuSans-30" x="290.576172"/>
       <use xlink:href="#DejaVuSans-32" x="354.199219"/>
       <use xlink:href="#DejaVuSans-2d" x="417.822266"/>
       <use xlink:href="#DejaVuSans-30" x="453.90625"/>
       <use xlink:href="#DejaVuSans-38" x="517.529297"/>
      </g>
     </g>
    </g>
    <g id="xtick_7">
     <g id="line2d_7">
      <g>
       <use xlink:href="#m208bca265a" x="978.573913" y="512.64" style="stroke: #000000; stroke-width: 0.8"/>
      </g>
     </g>
     <g id="text_7">
      <!-- 2024-02-15 -->
      <g transform="translate(949.516101 527.238438)scale(0.1 -0.1)">
       <use xlink:href="#DejaVuSans-32"/>
       <use xlink:href="#DejaVuSans-30" x="63.623047"/>
       <use xlink:href="#DejaVuSans-32" x="127.246094"/>
       <use xlink:href="#DejaVuSans-34" x="190.869141"/>
       <use xlink:href="#DejaVuSans-2d" x="254.492188"/>
       <use xlink:href="#DejaVuSans-30" x="290.576172"/>
       <use xlink:href="#DejaVuSans-32" x="354.199219"/>
       <use xlink:href="#DejaVuSans-2d" x="417.822266"/>
       <use xlink:href="#DejaVuSans-31" x="453.90625"/>
       <use xlink:href="#DejaVuSans-35" x="517.529297"/>
      </g>
     </g>
    </g>
   </g>
   <g id="matplotlib.axis_2">
    <g id="ytick_1">
     <g id="line2d_8">
      <defs>
       <path id="m4e83d887ef" d="M 0 0 
L -3.5 0 
" style="stroke: #000000; stroke-width: 0.8"/>
      </defs>
      <g>
       <use xlink:href="#m4e83d887ef" x="144" y="459.409968" style="stroke: #000000; stroke-width: 0.8"/>
      </g>
     </g>
     <g id="text_8">
      <!-- 6350 -->
      <g transform="translate(111.55 463.209187)scale(0.1 -0.1)">
       <defs>
        <path id="DejaVuSans-36" d="M 2113 2584 
Q 1688 2584 1439 2293 
Q 1191 2003 1191 1497 
Q 1191 994 1439 701 
Q 1688 409 2113 409 
Q 2538 409 2786 701 
Q 3034 994 3034 1497 
Q 3034 2003 2786 2293 
Q 2538 2584 2113 2584 
z
M 3366 4563 
L 3366 3988 
Q 3128 4100 2886 4159 
Q 2644 4219 2406 4219 
Q 1781 4219 1451 3797 
Q 1122 3375 1075 2522 
Q 1259 2794 1537 2939 
Q 1816 3084 2150 3084 
Q 2853 3084 3261 2657 
Q 3669 2231 3669 1497 
Q 3669 778 3244 343 
Q 2819 -91 2113 -91 
Q 1303 -91 875 529 
Q 447 1150 447 2328 
Q 447 3434 972 4092 
Q 1497 4750 2381 4750 
Q 2619 4750 2861 4703 
Q 3103 4656 3366 4563 
z
" transform="scale(0.015625)"/>
        <path id="DejaVuSans-33" d="M 2597 2516 
Q 3050 2419 3304 2112 
Q 3559 1806 3559 1356 
Q 3559 666 3084 287 
Q 2609 -91 1734 -91 
Q 1441 -91 1130 -33 
Q 819 25 488 141 
L 488 750 
Q 750 597 1062 519 
Q 1375 441 1716 441 
Q 2309 441 2620 675 
Q 2931 909 2931 1356 
Q 2931 1769 2642 2001 
Q 2353 2234 1838 2234 
L 1294 2234 
L 1294 2753 
L 1863 2753 
Q 2328 2753 2575 2939 
Q 2822 3125 2822 3475 
Q 2822 3834 2567 4026 
Q 2313 4219 1838 4219 
Q 1578 4219 1281 4162 
Q 984 4106 628 3988 
L 628 4550 
Q 988 4650 1302 4700 
Q 1616 4750 1894 4750 
Q 2613 4750 3031 4423 
Q 3450 4097 3450 3541 
Q 3450 3153 3228 2886 
Q 3006 2619 2597 2516 
z
" transform="scale(0.015625)"/>
       </defs>
       <use xlink:href="#DejaVuSans-36"/>
       <use xlink:href="#DejaVuSans-33" x="63.623047"/>
       <use xlink:href="#DejaVuSans-35" x="127.246094"/>
       <use xlink:href="#DejaVuSans-30" x="190.869141"/>
      </g>
     </g>
    </g>
    <g id="ytick_2">
     <g id="line2d_9">
      <g>
       <use xlink:href="#m4e83d887ef" x="144" y="395.813754" style="stroke: #000000; stroke-width: 0.8"/>
      </g>
     </g>
     <g id="text_9">
      <!-- 6400 -->
      <g transform="translate(111.55 399.612973)scale(0.1 -0.1)">
       <use xlink:href="#DejaVuSans-36"/>
       <use xlink:href="#DejaVuSans-34" x="63.623047"/>
       <use xlink:href="#DejaVuSans-30" x="127.246094"/>
       <use xlink:href="#DejaVuSans-30" x="190.869141"/>
      </g>
     </g>
    </g>
    <g id="ytick_3">
     <g id="line2d_10">
      <g>
       <use xlink:href="#m4e83d887ef" x="144" y="332.217539" style="stroke: #000000; stroke-width: 0.8"/>
      </g>
     </g>
     <g id="text_10">
      <!-- 6450 -->
      <g transform="translate(111.55 336.016758)scale(0.1 -0.1)">
       <use xlink:href="#DejaVuSans-36"/>
       <use xlink:href="#DejaVuSans-34" x="63.623047"/>
       <use xlink:href="#DejaVuSans-35" x="127.246094"/>
       <use xlink:href="#DejaVuSans-30" x="190.869141"/>
      </g>
     </g>
    </g>
    <g id="ytick_4">
     <g id="line2d_11">
      <g>
       <use xlink:href="#m4e83d887ef" x="144" y="268.621325" style="stroke: #000000; stroke-width: 0.8"/>
      </g>
     </g>
     <g id="text_11">
      <!-- 6500 -->
      <g transform="translate(111.55 272.420544)scale(0.1 -0.1)">
       <use xlink:href="#DejaVuSans-36"/>
       <use xlink:href="#DejaVuSans-35" x="63.623047"/>
       <use xlink:href="#DejaVuSans-30" x="127.246094"/>
       <use xlink:href="#DejaVuSans-30" x="190.869141"/>
      </g>
     </g>
    </g>
    <g id="ytick_5">
     <g id="line2d_12">
      <g>
       <use xlink:href="#m4e83d887ef" x="144" y="205.02511" style="stroke: #000000; stroke-width: 0.8"/>
      </g>
     </g>
     <g id="text_12">
      <!-- 6550 -->
      <g transform="translate(111.55 208.824329)scale(0.1 -0.1)">
       <use xlink:href="#DejaVuSans-36"/>
       <use xlink:href="#DejaVuSans-35" x="63.623047"/>
       <use xlink:href="#DejaVuSans-35" x="127.246094"/>
       <use xlink:href="#DejaVuSans-30" x="190.869141"/>
      </g>
     </g>
    </g>
    <g id="ytick_6">
     <g id="line2d_13">
      <g>
       <use xlink:href="#m4e83d887ef" x="144" y="141.428896" style="stroke: #000000; stroke-width: 0.8"/>
      </g>
     </g>
     <g id="text_13">
      <!-- 6600 -->
      <g transform="translate(111.55 145.228115)scale(0.1 -0.1)">
       <use xlink:href="#DejaVuSans-36"/>
       <use xlink:href="#DejaVuSans-36" x="63.623047"/>
       <use xlink:href="#DejaVuSans-30" x="127.246094"/>
       <use xlink:href="#DejaVuSans-30" x="190.869141"/>
      </g>
     </g>
    </g>
    <g id="ytick_7">
     <g id="line2d_14">
      <g>
       <use xlink:href="#m4e83d887ef" x="144" y="77.832681" style="stroke: #000000; stroke-width: 0.8"/>
      </g>
     </g>
     <g id="text_14">
      <!-- 6650 -->
      <g transform="translate(111.55 81.6319)scale(0.1 -0.1)">
       <use xlink:href="#DejaVuSans-36"/>
       <use xlink:href="#DejaVuSans-36" x="63.623047"/>
       <use xlink:href="#DejaVuSans-35" x="127.246094"/>
       <use xlink:href="#DejaVuSans-30" x="190.869141"/>
      </g>
     </g>
    </g>
   </g>
   <g id="line2d_15">
    <path d="M 184.581818 492.48 
L 202.226087 465.76959 
L 219.870356 432.699558 
L 237.514625 431.427634 
L 255.158893 418.708391 
L 290.447431 412.34877 
L 308.0917 407.261073 
L 325.735968 403.4453 
L 343.380237 398.357603 
L 361.024506 390.726057 
L 378.668775 370.375268 
L 396.313043 366.559495 
L 413.957312 362.743722 
L 431.601581 343.664858 
L 449.24585 338.577161 
L 466.890119 323.314069 
L 484.534387 316.954448 
L 502.178656 309.322902 
L 519.822925 305.507129 
L 537.467194 301.691356 
L 555.111462 295.331735 
L 572.755731 288.972114 
L 590.4 283.884416 
L 608.044269 281.340568 
L 625.688538 272.437098 
L 643.332806 269.893249 
L 678.621344 257.174006 
L 696.265613 255.902082 
L 713.909881 248.270536 
L 731.55415 229.191672 
L 749.198419 210.112808 
L 766.842688 206.297035 
L 802.131225 201.209338 
L 819.775494 179.586625 
L 837.419763 178.3147 
L 855.064032 173.227003 
L 872.7083 169.41123 
L 890.352569 165.595457 
L 907.996838 142.70082 
L 925.641107 138.885047 
L 943.285375 129.981577 
L 960.929644 124.89388 
L 978.573913 103.271167 
L 996.218182 89.28 
" clip-path="url(#p885c9728a7)" style="fill: none; stroke: #1f77b4; stroke-width: 1.5; stroke-linecap: square"/>
   </g>
   <g id="patch_3">
    <path d="M 144 512.64 
L 144 69.12 
" style="fill: none; stroke: #000000; stroke-width: 0.8; stroke-linejoin: miter; stroke-linecap: square"/>
   </g>
   <g id="patch_4">
    <path d="M 1036.8 512.64 
L 1036.8 69.12 
" style="fill: none; stroke: #000000; stroke-width: 0.8; stroke-linejoin: miter; stroke-linecap: square"/>
   </g>
   <g id="patch_5">
    <path d="M 144 512.64 
L 1036.8 512.64 
" style="fill: none; stroke: #000000; stroke-width: 0.8; stroke-linejoin: miter; stroke-linecap: square"/>
   </g>
   <g id="patch_6">
    <path d="M 144 69.12 
L 1036.8 69.12 
" style="fill: none; stroke: #000000; stroke-width: 0.8; stroke-linejoin: miter; stroke-linecap: square"/>
   </g>
   <g id="text_15">
    <!-- Number of AEDs in the OpenStreetMap database in Poland from 2024-01-01, day by day. As at: 2024-02-16 -->
    <g transform="translate(144 63.12)scale(0.14 -0.14)">
     <defs>
      <path id="DejaVuSans-4e" d="M 628 4666 
L 1478 4666 
L 3547 763 
L 3547 4666 
L 4159 4666 
L 4159 0 
L 3309 0 
L 1241 3903 
L 1241 0 
L 628 0 
L 628 4666 
z
" transform="scale(0.015625)"/>
      <path id="DejaVuSans-75" d="M 544 1381 
L 544 3500 
L 1119 3500 
L 1119 1403 
Q 1119 906 1312 657 
Q 1506 409 1894 409 
Q 2359 409 2629 706 
Q 2900 1003 2900 1516 
L 2900 3500 
L 3475 3500 
L 3475 0 
L 2900 0 
L 2900 538 
Q 2691 219 2414 64 
Q 2138 -91 1772 -91 
Q 1169 -91 856 284 
Q 544 659 544 1381 
z
M 1991 3584 
L 1991 3584 
z
" transform="scale(0.015625)"/>
      <path id="DejaVuSans-6d" d="M 3328 2828 
Q 3544 3216 3844 3400 
Q 4144 3584 4550 3584 
Q 5097 3584 5394 3201 
Q 5691 2819 5691 2113 
L 5691 0 
L 5113 0 
L 5113 2094 
Q 5113 2597 4934 2840 
Q 4756 3084 4391 3084 
Q 3944 3084 3684 2787 
Q 3425 2491 3425 1978 
L 3425 0 
L 2847 0 
L 2847 2094 
Q 2847 2600 2669 2842 
Q 2491 3084 2119 3084 
Q 1678 3084 1418 2786 
Q 1159 2488 1159 1978 
L 1159 0 
L 581 0 
L 581 3500 
L 1159 3500 
L 1159 2956 
Q 1356 3278 1631 3431 
Q 1906 3584 2284 3584 
Q 2666 3584 2933 3390 
Q 3200 3197 3328 2828 
z
" transform="scale(0.015625)"/>
      <path id="DejaVuSans-62" d="M 3116 1747 
Q 3116 2381 2855 2742 
Q 2594 3103 2138 3103 
Q 1681 3103 1420 2742 
Q 1159 2381 1159 1747 
Q 1159 1113 1420 752 
Q 1681 391 2138 391 
Q 2594 391 2855 752 
Q 3116 1113 3116 1747 
z
M 1159 2969 
Q 1341 3281 1617 3432 
Q 1894 3584 2278 3584 
Q 2916 3584 3314 3078 
Q 3713 2572 3713 1747 
Q 3713 922 3314 415 
Q 2916 -91 2278 -91 
Q 1894 -91 1617 61 
Q 1341 213 1159 525 
L 1159 0 
L 581 0 
L 581 4863 
L 1159 4863 
L 1159 2969 
z
" transform="scale(0.015625)"/>
      <path id="DejaVuSans-65" d="M 3597 1894 
L 3597 1613 
L 953 1613 
Q 991 1019 1311 708 
Q 1631 397 2203 397 
Q 2534 397 2845 478 
Q 3156 559 3463 722 
L 3463 178 
Q 3153 47 2828 -22 
Q 2503 -91 2169 -91 
Q 1331 -91 842 396 
Q 353 884 353 1716 
Q 353 2575 817 3079 
Q 1281 3584 2069 3584 
Q 2775 3584 3186 3129 
Q 3597 2675 3597 1894 
z
M 3022 2063 
Q 3016 2534 2758 2815 
Q 2500 3097 2075 3097 
Q 1594 3097 1305 2825 
Q 1016 2553 972 2059 
L 3022 2063 
z
" transform="scale(0.015625)"/>
      <path id="DejaVuSans-72" d="M 2631 2963 
Q 2534 3019 2420 3045 
Q 2306 3072 2169 3072 
Q 1681 3072 1420 2755 
Q 1159 2438 1159 1844 
L 1159 0 
L 581 0 
L 581 3500 
L 1159 3500 
L 1159 2956 
Q 1341 3275 1631 3429 
Q 1922 3584 2338 3584 
Q 2397 3584 2469 3576 
Q 2541 3569 2628 3553 
L 2631 2963 
z
" transform="scale(0.015625)"/>
      <path id="DejaVuSans-20" transform="scale(0.015625)"/>
      <path id="DejaVuSans-6f" d="M 1959 3097 
Q 1497 3097 1228 2736 
Q 959 2375 959 1747 
Q 959 1119 1226 758 
Q 1494 397 1959 397 
Q 2419 397 2687 759 
Q 2956 1122 2956 1747 
Q 2956 2369 2687 2733 
Q 2419 3097 1959 3097 
z
M 1959 3584 
Q 2709 3584 3137 3096 
Q 3566 2609 3566 1747 
Q 3566 888 3137 398 
Q 2709 -91 1959 -91 
Q 1206 -91 779 398 
Q 353 888 353 1747 
Q 353 2609 779 3096 
Q 1206 3584 1959 3584 
z
" transform="scale(0.015625)"/>
      <path id="DejaVuSans-66" d="M 2375 4863 
L 2375 4384 
L 1825 4384 
Q 1516 4384 1395 4259 
Q 1275 4134 1275 3809 
L 1275 3500 
L 2222 3500 
L 2222 3053 
L 1275 3053 
L 1275 0 
L 697 0 
L 697 3053 
L 147 3053 
L 147 3500 
L 697 3500 
L 697 3744 
Q 697 4328 969 4595 
Q 1241 4863 1831 4863 
L 2375 4863 
z
" transform="scale(0.015625)"/>
      <path id="DejaVuSans-41" d="M 2188 4044 
L 1331 1722 
L 3047 1722 
L 2188 4044 
z
M 1831 4666 
L 2547 4666 
L 4325 0 
L 3669 0 
L 3244 1197 
L 1141 1197 
L 716 0 
L 50 0 
L 1831 4666 
z
" transform="scale(0.015625)"/>
      <path id="DejaVuSans-45" d="M 628 4666 
L 3578 4666 
L 3578 4134 
L 1259 4134 
L 1259 2753 
L 3481 2753 
L 3481 2222 
L 1259 2222 
L 1259 531 
L 3634 531 
L 3634 0 
L 628 0 
L 628 4666 
z
" transform="scale(0.015625)"/>
      <path id="DejaVuSans-44" d="M 1259 4147 
L 1259 519 
L 2022 519 
Q 2988 519 3436 956 
Q 3884 1394 3884 2338 
Q 3884 3275 3436 3711 
Q 2988 4147 2022 4147 
L 1259 4147 
z
M 628 4666 
L 1925 4666 
Q 3281 4666 3915 4102 
Q 4550 3538 4550 2338 
Q 4550 1131 3912 565 
Q 3275 0 1925 0 
L 628 0 
L 628 4666 
z
" transform="scale(0.015625)"/>
      <path id="DejaVuSans-73" d="M 2834 3397 
L 2834 2853 
Q 2591 2978 2328 3040 
Q 2066 3103 1784 3103 
Q 1356 3103 1142 2972 
Q 928 2841 928 2578 
Q 928 2378 1081 2264 
Q 1234 2150 1697 2047 
L 1894 2003 
Q 2506 1872 2764 1633 
Q 3022 1394 3022 966 
Q 3022 478 2636 193 
Q 2250 -91 1575 -91 
Q 1294 -91 989 -36 
Q 684 19 347 128 
L 347 722 
Q 666 556 975 473 
Q 1284 391 1588 391 
Q 1994 391 2212 530 
Q 2431 669 2431 922 
Q 2431 1156 2273 1281 
Q 2116 1406 1581 1522 
L 1381 1569 
Q 847 1681 609 1914 
Q 372 2147 372 2553 
Q 372 3047 722 3315 
Q 1072 3584 1716 3584 
Q 2034 3584 2315 3537 
Q 2597 3491 2834 3397 
z
" transform="scale(0.015625)"/>
      <path id="DejaVuSans-69" d="M 603 3500 
L 1178 3500 
L 1178 0 
L 603 0 
L 603 3500 
z
M 603 4863 
L 1178 4863 
L 1178 4134 
L 603 4134 
L 603 4863 
z
" transform="scale(0.015625)"/>
      <path id="DejaVuSans-6e" d="M 3513 2113 
L 3513 0 
L 2938 0 
L 2938 2094 
Q 2938 2591 2744 2837 
Q 2550 3084 2163 3084 
Q 1697 3084 1428 2787 
Q 1159 2491 1159 1978 
L 1159 0 
L 581 0 
L 581 3500 
L 1159 3500 
L 1159 2956 
Q 1366 3272 1645 3428 
Q 1925 3584 2291 3584 
Q 2894 3584 3203 3211 
Q 3513 2838 3513 2113 
z
" transform="scale(0.015625)"/>
      <path id="DejaVuSans-74" d="M 1172 4494 
L 1172 3500 
L 2356 3500 
L 2356 3053 
L 1172 3053 
L 1172 1153 
Q 1172 725 1289 603 
Q 1406 481 1766 481 
L 2356 481 
L 2356 0 
L 1766 0 
Q 1100 0 847 248 
Q 594 497 594 1153 
L 594 3053 
L 172 3053 
L 172 3500 
L 594 3500 
L 594 4494 
L 1172 4494 
z
" transform="scale(0.015625)"/>
      <path id="DejaVuSans-68" d="M 3513 2113 
L 3513 0 
L 2938 0 
L 2938 2094 
Q 2938 2591 2744 2837 
Q 2550 3084 2163 3084 
Q 1697 3084 1428 2787 
Q 1159 2491 1159 1978 
L 1159 0 
L 581 0 
L 581 4863 
L 1159 4863 
L 1159 2956 
Q 1366 3272 1645 3428 
Q 1925 3584 2291 3584 
Q 2894 3584 3203 3211 
Q 3513 2838 3513 2113 
z
" transform="scale(0.015625)"/>
      <path id="DejaVuSans-4f" d="M 2522 4238 
Q 1834 4238 1429 3725 
Q 1025 3213 1025 2328 
Q 1025 1447 1429 934 
Q 1834 422 2522 422 
Q 3209 422 3611 934 
Q 4013 1447 4013 2328 
Q 4013 3213 3611 3725 
Q 3209 4238 2522 4238 
z
M 2522 4750 
Q 3503 4750 4090 4092 
Q 4678 3434 4678 2328 
Q 4678 1225 4090 567 
Q 3503 -91 2522 -91 
Q 1538 -91 948 565 
Q 359 1222 359 2328 
Q 359 3434 948 4092 
Q 1538 4750 2522 4750 
z
" transform="scale(0.015625)"/>
      <path id="DejaVuSans-70" d="M 1159 525 
L 1159 -1331 
L 581 -1331 
L 581 3500 
L 1159 3500 
L 1159 2969 
Q 1341 3281 1617 3432 
Q 1894 3584 2278 3584 
Q 2916 3584 3314 3078 
Q 3713 2572 3713 1747 
Q 3713 922 3314 415 
Q 2916 -91 2278 -91 
Q 1894 -91 1617 61 
Q 1341 213 1159 525 
z
M 3116 1747 
Q 3116 2381 2855 2742 
Q 2594 3103 2138 3103 
Q 1681 3103 1420 2742 
Q 1159 2381 1159 1747 
Q 1159 1113 1420 752 
Q 1681 391 2138 391 
Q 2594 391 2855 752 
Q 3116 1113 3116 1747 
z
" transform="scale(0.015625)"/>
      <path id="DejaVuSans-53" d="M 3425 4513 
L 3425 3897 
Q 3066 4069 2747 4153 
Q 2428 4238 2131 4238 
Q 1616 4238 1336 4038 
Q 1056 3838 1056 3469 
Q 1056 3159 1242 3001 
Q 1428 2844 1947 2747 
L 2328 2669 
Q 3034 2534 3370 2195 
Q 3706 1856 3706 1288 
Q 3706 609 3251 259 
Q 2797 -91 1919 -91 
Q 1588 -91 1214 -16 
Q 841 59 441 206 
L 441 856 
Q 825 641 1194 531 
Q 1563 422 1919 422 
Q 2459 422 2753 634 
Q 3047 847 3047 1241 
Q 3047 1584 2836 1778 
Q 2625 1972 2144 2069 
L 1759 2144 
Q 1053 2284 737 2584 
Q 422 2884 422 3419 
Q 422 4038 858 4394 
Q 1294 4750 2059 4750 
Q 2388 4750 2728 4690 
Q 3069 4631 3425 4513 
z
" transform="scale(0.015625)"/>
      <path id="DejaVuSans-4d" d="M 628 4666 
L 1569 4666 
L 2759 1491 
L 3956 4666 
L 4897 4666 
L 4897 0 
L 4281 0 
L 4281 4097 
L 3078 897 
L 2444 897 
L 1241 4097 
L 1241 0 
L 628 0 
L 628 4666 
z
" transform="scale(0.015625)"/>
      <path id="DejaVuSans-61" d="M 2194 1759 
Q 1497 1759 1228 1600 
Q 959 1441 959 1056 
Q 959 750 1161 570 
Q 1363 391 1709 391 
Q 2188 391 2477 730 
Q 2766 1069 2766 1631 
L 2766 1759 
L 2194 1759 
z
M 3341 1997 
L 3341 0 
L 2766 0 
L 2766 531 
Q 2569 213 2275 61 
Q 1981 -91 1556 -91 
Q 1019 -91 701 211 
Q 384 513 384 1019 
Q 384 1609 779 1909 
Q 1175 2209 1959 2209 
L 2766 2209 
L 2766 2266 
Q 2766 2663 2505 2880 
Q 2244 3097 1772 3097 
Q 1472 3097 1187 3025 
Q 903 2953 641 2809 
L 641 3341 
Q 956 3463 1253 3523 
Q 1550 3584 1831 3584 
Q 2591 3584 2966 3190 
Q 3341 2797 3341 1997 
z
" transform="scale(0.015625)"/>
      <path id="DejaVuSans-64" d="M 2906 2969 
L 2906 4863 
L 3481 4863 
L 3481 0 
L 2906 0 
L 2906 525 
Q 2725 213 2448 61 
Q 2172 -91 1784 -91 
Q 1150 -91 751 415 
Q 353 922 353 1747 
Q 353 2572 751 3078 
Q 1150 3584 1784 3584 
Q 2172 3584 2448 3432 
Q 2725 3281 2906 2969 
z
M 947 1747 
Q 947 1113 1208 752 
Q 1469 391 1925 391 
Q 2381 391 2643 752 
Q 2906 1113 2906 1747 
Q 2906 2381 2643 2742 
Q 2381 3103 1925 3103 
Q 1469 3103 1208 2742 
Q 947 2381 947 1747 
z
" transform="scale(0.015625)"/>
      <path id="DejaVuSans-50" d="M 1259 4147 
L 1259 2394 
L 2053 2394 
Q 2494 2394 2734 2622 
Q 2975 2850 2975 3272 
Q 2975 3691 2734 3919 
Q 2494 4147 2053 4147 
L 1259 4147 
z
M 628 4666 
L 2053 4666 
Q 2838 4666 3239 4311 
Q 3641 3956 3641 3272 
Q 3641 2581 3239 2228 
Q 2838 1875 2053 1875 
L 1259 1875 
L 1259 0 
L 628 0 
L 628 4666 
z
" transform="scale(0.015625)"/>
      <path id="DejaVuSans-6c" d="M 603 4863 
L 1178 4863 
L 1178 0 
L 603 0 
L 603 4863 
z
" transform="scale(0.015625)"/>
      <path id="DejaVuSans-2c" d="M 750 794 
L 1409 794 
L 1409 256 
L 897 -744 
L 494 -744 
L 750 256 
L 750 794 
z
" transform="scale(0.015625)"/>
      <path id="DejaVuSans-79" d="M 2059 -325 
Q 1816 -950 1584 -1140 
Q 1353 -1331 966 -1331 
L 506 -1331 
L 506 -850 
L 844 -850 
Q 1081 -850 1212 -737 
Q 1344 -625 1503 -206 
L 1606 56 
L 191 3500 
L 800 3500 
L 1894 763 
L 2988 3500 
L 3597 3500 
L 2059 -325 
z
" transform="scale(0.015625)"/>
      <path id="DejaVuSans-2e" d="M 684 794 
L 1344 794 
L 1344 0 
L 684 0 
L 684 794 
z
" transform="scale(0.015625)"/>
      <path id="DejaVuSans-3a" d="M 750 794 
L 1409 794 
L 1409 0 
L 750 0 
L 750 794 
z
M 750 3309 
L 1409 3309 
L 1409 2516 
L 750 2516 
L 750 3309 
z
" transform="scale(0.015625)"/>
     </defs>
     <use xlink:href="#DejaVuSans-4e"/>
     <use xlink:href="#DejaVuSans-75" x="74.804688"/>
     <use xlink:href="#DejaVuSans-6d" x="138.183594"/>
     <use xlink:href="#DejaVuSans-62" x="235.595703"/>
     <use xlink:href="#DejaVuSans-65" x="299.072266"/>
     <use xlink:href="#DejaVuSans-72" x="360.595703"/>
     <use xlink:href="#DejaVuSans-20" x="401.708984"/>
     <use xlink:href="#DejaVuSans-6f" x="433.496094"/>
     <use xlink:href="#DejaVuSans-66" x="494.677734"/>
     <use xlink:href="#DejaVuSans-20" x="529.882812"/>
     <use xlink:href="#DejaVuSans-41" x="561.669922"/>
     <use xlink:href="#DejaVuSans-45" x="630.078125"/>
     <use xlink:href="#DejaVuSans-44" x="693.261719"/>
     <use xlink:href="#DejaVuSans-73" x="770.263672"/>
     <use xlink:href="#DejaVuSans-20" x="822.363281"/>
     <use xlink:href="#DejaVuSans-69" x="854.150391"/>
     <use xlink:href="#DejaVuSans-6e" x="881.933594"/>
     <use xlink:href="#DejaVuSans-20" x="945.3125"/>
     <use xlink:href="#DejaVuSans-74" x="977.099609"/>
     <use xlink:href="#DejaVuSans-68" x="1016.308594"/>
     <use xlink:href="#DejaVuSans-65" x="1079.6875"/>
     <use xlink:href="#DejaVuSans-20" x="1141.210938"/>
     <use xlink:href="#DejaVuSans-4f" x="1172.998047"/>
     <use xlink:href="#DejaVuSans-70" x="1251.708984"/>
     <use xlink:href="#DejaVuSans-65" x="1315.185547"/>
     <use xlink:href="#DejaVuSans-6e" x="1376.708984"/>
     <use xlink:href="#DejaVuSans-53" x="1440.087891"/>
     <use xlink:href="#DejaVuSans-74" x="1503.564453"/>
     <use xlink:href="#DejaVuSans-72" x="1542.773438"/>
     <use xlink:href="#DejaVuSans-65" x="1581.636719"/>
     <use xlink:href="#DejaVuSans-65" x="1643.160156"/>
     <use xlink:href="#DejaVuSans-74" x="1704.683594"/>
     <use xlink:href="#DejaVuSans-4d" x="1743.892578"/>
     <use xlink:href="#DejaVuSans-61" x="1830.171875"/>
     <use xlink:href="#DejaVuSans-70" x="1891.451172"/>
     <use xlink:href="#DejaVuSans-20" x="1954.927734"/>
     <use xlink:href="#DejaVuSans-64" x="1986.714844"/>
     <use xlink:href="#DejaVuSans-61" x="2050.191406"/>
     <use xlink:href="#DejaVuSans-74" x="2111.470703"/>
     <use xlink:href="#DejaVuSans-61" x="2150.679688"/>
     <use xlink:href="#DejaVuSans-62" x="2211.958984"/>
     <use xlink:href="#DejaVuSans-61" x="2275.435547"/>
     <use xlink:href="#DejaVuSans-73" x="2336.714844"/>
     <use xlink:href="#DejaVuSans-65" x="2388.814453"/>
     <use xlink:href="#DejaVuSans-20" x="2450.337891"/>
     <use xlink:href="#DejaVuSans-69" x="2482.125"/>
     <use xlink:href="#DejaVuSans-6e" x="2509.908203"/>
     <use xlink:href="#DejaVuSans-20" x="2573.287109"/>
     <use xlink:href="#DejaVuSans-50" x="2605.074219"/>
     <use xlink:href="#DejaVuSans-6f" x="2661.751953"/>
     <use xlink:href="#DejaVuSans-6c" x="2722.933594"/>
     <use xlink:href="#DejaVuSans-61" x="2750.716797"/>
     <use xlink:href="#DejaVuSans-6e" x="2811.996094"/>
     <use xlink:href="#DejaVuSans-64" x="2875.375"/>
     <use xlink:href="#DejaVuSans-20" x="2938.851562"/>
     <use xlink:href="#DejaVuSans-66" x="2970.638672"/>
     <use xlink:href="#DejaVuSans-72" x="3005.84375"/>
     <use xlink:href="#DejaVuSans-6f" x="3044.707031"/>
     <use xlink:href="#DejaVuSans-6d" x="3105.888672"/>
     <use xlink:href="#DejaVuSans-20" x="3203.300781"/>
     <use xlink:href="#DejaVuSans-32" x="3235.087891"/>
     <use xlink:href="#DejaVuSans-30" x="3298.710938"/>
     <use xlink:href="#DejaVuSans-32" x="3362.333984"/>
     <use xlink:href="#DejaVuSans-34" x="3425.957031"/>
     <use xlink:href="#DejaVuSans-2d" x="3489.580078"/>
     <use xlink:href="#DejaVuSans-30" x="3525.664062"/>
     <use xlink:href="#DejaVuSans-31" x="3589.287109"/>
     <use xlink:href="#DejaVuSans-2d" x="3652.910156"/>
     <use xlink:href="#DejaVuSans-30" x="3688.994141"/>
     <use xlink:href="#DejaVuSans-31" x="3752.617188"/>
     <use xlink:href="#DejaVuSans-2c" x="3816.240234"/>
     <use xlink:href="#DejaVuSans-20" x="3848.027344"/>
     <use xlink:href="#DejaVuSans-64" x="3879.814453"/>
     <use xlink:href="#DejaVuSans-61" x="3943.291016"/>
     <use xlink:href="#DejaVuSans-79" x="4004.570312"/>
     <use xlink:href="#DejaVuSans-20" x="4063.75"/>
     <use xlink:href="#DejaVuSans-62" x="4095.537109"/>
     <use xlink:href="#DejaVuSans-79" x="4159.013672"/>
     <use xlink:href="#DejaVuSans-20" x="4218.193359"/>
     <use xlink:href="#DejaVuSans-64" x="4249.980469"/>
     <use xlink:href="#DejaVuSans-61" x="4313.457031"/>
     <use xlink:href="#DejaVuSans-79" x="4374.736328"/>
     <use xlink:href="#DejaVuSans-2e" x="4419.666016"/>
     <use xlink:href="#DejaVuSans-20" x="4451.453125"/>
     <use xlink:href="#DejaVuSans-41" x="4483.240234"/>
     <use xlink:href="#DejaVuSans-73" x="4551.648438"/>
     <use xlink:href="#DejaVuSans-20" x="4603.748047"/>
     <use xlink:href="#DejaVuSans-61" x="4635.535156"/>
     <use xlink:href="#DejaVuSans-74" x="4696.814453"/>
     <use xlink:href="#DejaVuSans-3a" x="4736.023438"/>
     <use xlink:href="#DejaVuSans-20" x="4769.714844"/>
     <use xlink:href="#DejaVuSans-32" x="4801.501953"/>
     <use xlink:href="#DejaVuSans-30" x="4865.125"/>
     <use xlink:href="#DejaVuSans-32" x="4928.748047"/>
     <use xlink:href="#DejaVuSans-34" x="4992.371094"/>
     <use xlink:href="#DejaVuSans-2d" x="5055.994141"/>
     <use xlink:href="#DejaVuSans-30" x="5092.078125"/>
     <use xlink:href="#DejaVuSans-32" x="5155.701172"/>
     <use xlink:href="#DejaVuSans-2d" x="5219.324219"/>
     <use xlink:href="#DejaVuSans-31" x="5255.408203"/>
     <use xlink:href="#DejaVuSans-36" x="5319.03125"/>
    </g>
   </g>
  </g>
 </g>
 <defs>
  <clipPath id="p885c9728a7">
   <rect x="144" y="69.12" width="892.8" height="443.52"/>
  </clipPath>
 </defs>
</svg>
