<?xml version="1.0" encoding="utf-8" standalone="no"?>
<!DOCTYPE svg PUBLIC "-//W3C//DTD SVG 1.1//EN"
  "http://www.w3.org/Graphics/SVG/1.1/DTD/svg11.dtd">
<svg xmlns:xlink="http://www.w3.org/1999/xlink" width="1152pt" height="576pt" viewBox="0 0 1152 576" xmlns="http://www.w3.org/2000/svg" version="1.1">
 <metadata>
  <rdf:RDF xmlns:dc="http://purl.org/dc/elements/1.1/" xmlns:cc="http://creativecommons.org/ns#" xmlns:rdf="http://www.w3.org/1999/02/22-rdf-syntax-ns#">
   <cc:Work>
    <dc:type rdf:resource="http://purl.org/dc/dcmitype/StillImage"/>
    <dc:date>2022-04-03T11:34:10.492086</dc:date>
    <dc:format>image/svg+xml</dc:format>
    <dc:creator>
     <cc:Agent>
      <dc:title>Matplotlib v3.5.1, https://matplotlib.org/</dc:title>
     </cc:Agent>
    </dc:creator>
   </cc:Work>
  </rdf:RDF>
 </metadata>
 <defs>
  <style type="text/css">*{stroke-linejoin: round; stroke-linecap: butt}</style>
 </defs>
 <g id="figure_1">
  <g id="patch_1">
   <path d="M 0 576 
L 1152 576 
L 1152 0 
L 0 0 
z
" style="fill: #ffffff"/>
  </g>
  <g id="axes_1">
   <g id="patch_2">
    <path d="M 144 512.64 
L 1036.8 512.64 
L 1036.8 69.12 
L 144 69.12 
z
" style="fill: #ffffff"/>
   </g>
   <g id="PathCollection_1">
    <path d="M 184.581818 502.48 
C 187.233849 502.48 189.777617 501.426337 191.652886 499.551068 
C 193.528155 497.675799 194.581818 495.132031 194.581818 492.48 
C 194.581818 489.827969 193.528155 487.284201 191.652886 485.408932 
C 189.777617 483.533663 187.233849 482.48 184.581818 482.48 
C 181.929787 482.48 179.386019 483.533663 177.51075 485.408932 
C 175.635481 487.284201 174.581818 489.827969 174.581818 492.48 
C 174.581818 495.132031 175.635481 497.675799 177.51075 499.551068 
C 179.386019 501.426337 181.929787 502.48 184.581818 502.48 
z
" clip-path="url(#p6b21947f9c)" style="fill: #1f77b4; fill-opacity: 0.3; stroke: #1f77b4; stroke-opacity: 0.3"/>
    <path d="M 193.403953 494.760257 
C 194.130241 494.760257 194.826881 494.4717 195.340444 493.958136 
C 195.854008 493.444573 196.142565 492.747933 196.142565 492.021645 
C 196.142565 491.295356 195.854008 490.598716 195.340444 490.085153 
C 194.826881 489.571589 194.130241 489.283032 193.403953 489.283032 
C 192.677664 489.283032 191.981024 489.571589 191.467461 490.085153 
C 190.953897 490.598716 190.66534 491.295356 190.66534 492.021645 
C 190.66534 492.747933 190.953897 493.444573 191.467461 493.958136 
C 191.981024 494.4717 192.677664 494.760257 193.403953 494.760257 
z
" clip-path="url(#p6b21947f9c)" style="fill: #1f77b4; fill-opacity: 0.3; stroke: #1f77b4; stroke-opacity: 0.3"/>
    <path d="M 202.226087 494.977917 
C 203.253214 494.977917 204.238411 494.569835 204.9647 493.843546 
C 205.690988 493.117258 206.09907 492.132061 206.09907 491.104934 
C 206.09907 490.077806 205.690988 489.09261 204.9647 488.366321 
C 204.238411 487.640032 203.253214 487.23195 202.226087 487.23195 
C 201.19896 487.23195 200.213763 487.640032 199.487474 488.366321 
C 198.761186 489.09261 198.353104 490.077806 198.353104 491.104934 
C 198.353104 492.132061 198.761186 493.117258 199.487474 493.843546 
C 200.213763 494.569835 201.19896 494.977917 202.226087 494.977917 
z
" clip-path="url(#p6b21947f9c)" style="fill: #1f77b4; fill-opacity: 0.3; stroke: #1f77b4; stroke-opacity: 0.3"/>
    <path d="M 211.048221 494.218738 
C 212.157646 494.218738 213.22178 493.777959 214.006261 492.993478 
C 214.790743 492.208996 215.231521 491.144862 215.231521 490.035438 
C 215.231521 488.926014 214.790743 487.861879 214.006261 487.077398 
C 213.22178 486.292916 212.157646 485.852138 211.048221 485.852138 
C 209.938797 485.852138 208.874663 486.292916 208.090181 487.077398 
C 207.3057 487.861879 206.864921 488.926014 206.864921 490.035438 
C 206.864921 491.144862 207.3057 492.208996 208.090181 492.993478 
C 208.874663 493.777959 209.938797 494.218738 211.048221 494.218738 
z
" clip-path="url(#p6b21947f9c)" style="fill: #1f77b4; fill-opacity: 0.3; stroke: #1f77b4; stroke-opacity: 0.3"/>
    <path d="M 219.870356 492.586575 
C 220.709002 492.586575 221.513412 492.253377 222.106424 491.660365 
C 222.699436 491.067353 223.032633 490.262943 223.032633 489.424297 
C 223.032633 488.585651 222.699436 487.781241 222.106424 487.188229 
C 221.513412 486.595217 220.709002 486.262019 219.870356 486.262019 
C 219.03171 486.262019 218.2273 486.595217 217.634288 487.188229 
C 217.041276 487.781241 216.708078 488.585651 216.708078 489.424297 
C 216.708078 490.262943 217.041276 491.067353 217.634288 491.660365 
C 218.2273 492.253377 219.03171 492.586575 219.870356 492.586575 
z
" clip-path="url(#p6b21947f9c)" style="fill: #1f77b4; fill-opacity: 0.3; stroke: #1f77b4; stroke-opacity: 0.3"/>
    <path d="M 228.69249 491.354795 
C 229.285502 491.354795 229.854306 491.119189 230.273629 490.699866 
C 230.692952 490.280543 230.928558 489.711739 230.928558 489.118727 
C 230.928558 488.525715 230.692952 487.956911 230.273629 487.537588 
C 229.854306 487.118265 229.285502 486.882659 228.69249 486.882659 
C 228.099478 486.882659 227.530674 487.118265 227.111351 487.537588 
C 226.692028 487.956911 226.456422 488.525715 226.456422 489.118727 
C 226.456422 489.711739 226.692028 490.280543 227.111351 490.699866 
C 227.530674 491.119189 228.099478 491.354795 228.69249 491.354795 
z
" clip-path="url(#p6b21947f9c)" style="fill: #1f77b4; fill-opacity: 0.3; stroke: #1f77b4; stroke-opacity: 0.3"/>
    <path d="M 237.514625 491.669864 
C 238.35327 491.669864 239.15768 491.336666 239.750692 490.743654 
C 240.343705 490.150642 240.676902 489.346232 240.676902 488.507586 
C 240.676902 487.66894 240.343705 486.86453 239.750692 486.271518 
C 239.15768 485.678506 238.35327 485.345309 237.514625 485.345309 
C 236.675979 485.345309 235.871569 485.678506 235.278557 486.271518 
C 234.685544 486.86453 234.352347 487.66894 234.352347 488.507586 
C 234.352347 489.346232 234.685544 490.150642 235.278557 490.743654 
C 235.871569 491.336666 236.675979 491.669864 237.514625 491.669864 
z
" clip-path="url(#p6b21947f9c)" style="fill: #1f77b4; fill-opacity: 0.3; stroke: #1f77b4; stroke-opacity: 0.3"/>
    <path d="M 246.336759 492.222256 
C 247.848649 492.222256 249.29882 491.621576 250.367888 490.552508 
C 251.436956 489.48344 252.037636 488.03327 252.037636 486.521379 
C 252.037636 485.009489 251.436956 483.559318 250.367888 482.49025 
C 249.29882 481.421183 247.848649 480.820502 246.336759 480.820502 
C 244.824869 480.820502 243.374698 481.421183 242.30563 482.49025 
C 241.236562 483.559318 240.635882 485.009489 240.635882 486.521379 
C 240.635882 488.03327 241.236562 489.48344 242.30563 490.552508 
C 243.374698 491.621576 244.824869 492.222256 246.336759 492.222256 
z
" clip-path="url(#p6b21947f9c)" style="fill: #1f77b4; fill-opacity: 0.3; stroke: #1f77b4; stroke-opacity: 0.3"/>
    <path d="M 255.158893 489.993528 
C 256.484909 489.993528 257.756793 489.466696 258.694427 488.529062 
C 259.632062 487.591427 260.158893 486.319543 260.158893 484.993528 
C 260.158893 483.667512 259.632062 482.395628 258.694427 481.457994 
C 257.756793 480.520359 256.484909 479.993528 255.158893 479.993528 
C 253.832878 479.993528 252.560994 480.520359 251.623359 481.457994 
C 250.685725 482.395628 250.158893 483.667512 250.158893 484.993528 
C 250.158893 486.319543 250.685725 487.591427 251.623359 488.529062 
C 252.560994 489.466696 253.832878 489.993528 255.158893 489.993528 
z
" clip-path="url(#p6b21947f9c)" style="fill: #1f77b4; fill-opacity: 0.3; stroke: #1f77b4; stroke-opacity: 0.3"/>
    <path d="M 263.981028 487.9498 
C 265.008155 487.9498 265.993352 487.541718 266.71964 486.81543 
C 267.445929 486.089141 267.854011 485.103944 267.854011 484.076817 
C 267.854011 483.04969 267.445929 482.064493 266.71964 481.338204 
C 265.993352 480.611916 265.008155 480.203834 263.981028 480.203834 
C 262.9539 480.203834 261.968703 480.611916 261.242415 481.338204 
C 260.516126 482.064493 260.108044 483.04969 260.108044 484.076817 
C 260.108044 485.103944 260.516126 486.089141 261.242415 486.81543 
C 261.968703 487.541718 262.9539 487.9498 263.981028 487.9498 
z
" clip-path="url(#p6b21947f9c)" style="fill: #1f77b4; fill-opacity: 0.3; stroke: #1f77b4; stroke-opacity: 0.3"/>
    <path d="M 272.803162 486.848425 
C 273.740797 486.848425 274.640154 486.475899 275.303162 485.812891 
C 275.96617 485.149883 276.338696 484.250526 276.338696 483.312891 
C 276.338696 482.375257 275.96617 481.475899 275.303162 480.812891 
C 274.640154 480.149883 273.740797 479.777357 272.803162 479.777357 
C 271.865528 479.777357 270.96617 480.149883 270.303162 480.812891 
C 269.640154 481.475899 269.267628 482.375257 269.267628 483.312891 
C 269.267628 484.250526 269.640154 485.149883 270.303162 485.812891 
C 270.96617 486.475899 271.865528 486.848425 272.803162 486.848425 
z
" clip-path="url(#p6b21947f9c)" style="fill: #1f77b4; fill-opacity: 0.3; stroke: #1f77b4; stroke-opacity: 0.3"/>
    <path d="M 281.625296 487.299459 
C 284.141234 487.299459 286.554464 486.299866 288.3335 484.52083 
C 290.112537 482.741793 291.112129 480.328564 291.112129 477.812626 
C 291.112129 475.296688 290.112537 472.883459 288.3335 471.104422 
C 286.554464 469.325386 284.141234 468.325793 281.625296 468.325793 
C 279.109359 468.325793 276.696129 469.325386 274.917093 471.104422 
C 273.138056 472.883459 272.138463 475.296688 272.138463 477.812626 
C 272.138463 480.328564 273.138056 482.741793 274.917093 484.52083 
C 276.696129 486.299866 279.109359 487.299459 281.625296 487.299459 
z
" clip-path="url(#p6b21947f9c)" style="fill: #1f77b4; fill-opacity: 0.3; stroke: #1f77b4; stroke-opacity: 0.3"/>
    <path d="M 290.447431 481.181178 
C 293.528812 481.181178 296.484403 479.956932 298.663269 477.778066 
C 300.842135 475.599201 302.066381 472.64361 302.066381 469.562228 
C 302.066381 466.480847 300.842135 463.525256 298.663269 461.34639 
C 296.484403 459.167524 293.528812 457.943278 290.447431 457.943278 
C 287.366049 457.943278 284.410458 459.167524 282.231592 461.34639 
C 280.052727 463.525256 278.828481 466.480847 278.828481 469.562228 
C 278.828481 472.64361 280.052727 475.599201 282.231592 477.778066 
C 284.410458 479.956932 287.366049 481.181178 290.447431 481.181178 
z
" clip-path="url(#p6b21947f9c)" style="fill: #1f77b4; fill-opacity: 0.3; stroke: #1f77b4; stroke-opacity: 0.3"/>
    <path d="M 299.269565 473.276898 
C 300.781456 473.276898 302.231626 472.676218 303.300694 471.60715 
C 304.369762 470.538082 304.970442 469.087912 304.970442 467.576021 
C 304.970442 466.064131 304.369762 464.61396 303.300694 463.544892 
C 302.231626 462.475824 300.781456 461.875144 299.269565 461.875144 
C 297.757675 461.875144 296.307504 462.475824 295.238436 463.544892 
C 294.169368 464.61396 293.568688 466.064131 293.568688 467.576021 
C 293.568688 469.087912 294.169368 470.538082 295.238436 471.60715 
C 296.307504 472.676218 297.757675 473.276898 299.269565 473.276898 
z
" clip-path="url(#p6b21947f9c)" style="fill: #1f77b4; fill-opacity: 0.3; stroke: #1f77b4; stroke-opacity: 0.3"/>
    <path d="M 308.0917 471.666661 
C 310.270565 471.666661 312.360484 470.800988 313.901175 469.260297 
C 315.441865 467.719607 316.307538 465.629688 316.307538 463.450822 
C 316.307538 461.271956 315.441865 459.182038 313.901175 457.641347 
C 312.360484 456.100656 310.270565 455.234984 308.0917 455.234984 
C 305.912834 455.234984 303.822915 456.100656 302.282225 457.641347 
C 300.741534 459.182038 299.875861 461.271956 299.875861 463.450822 
C 299.875861 465.629688 300.741534 467.719607 302.282225 469.260297 
C 303.822915 470.800988 305.912834 471.666661 308.0917 471.666661 
z
" clip-path="url(#p6b21947f9c)" style="fill: #1f77b4; fill-opacity: 0.3; stroke: #1f77b4; stroke-opacity: 0.3"/>
    <path d="M 316.913834 466.991905 
C 319.878895 466.991905 322.722914 465.813874 324.819528 463.717259 
C 326.916143 461.620645 328.094174 458.776626 328.094174 455.811565 
C 328.094174 452.846504 326.916143 450.002485 324.819528 447.905871 
C 322.722914 445.809256 319.878895 444.631225 316.913834 444.631225 
C 313.948773 444.631225 311.104754 445.809256 309.00814 447.905871 
C 306.911525 450.002485 305.733494 452.846504 305.733494 455.811565 
C 305.733494 458.776626 306.911525 461.620645 309.00814 463.717259 
C 311.104754 465.813874 313.948773 466.991905 316.913834 466.991905 
z
" clip-path="url(#p6b21947f9c)" style="fill: #1f77b4; fill-opacity: 0.3; stroke: #1f77b4; stroke-opacity: 0.3"/>
    <path d="M 325.735968 457.795008 
C 329.462992 457.795008 333.037868 456.314246 335.673272 453.678842 
C 338.308676 451.043438 339.789438 447.468562 339.789438 443.741538 
C 339.789438 440.014515 338.308676 436.439639 335.673272 433.804235 
C 333.037868 431.168831 329.462992 429.688069 325.735968 429.688069 
C 322.008945 429.688069 318.434069 431.168831 315.798665 433.804235 
C 313.163261 436.439639 311.682499 440.014515 311.682499 443.741538 
C 311.682499 447.468562 313.163261 451.043438 315.798665 453.678842 
C 318.434069 456.314246 322.008945 457.795008 325.735968 457.795008 
z
" clip-path="url(#p6b21947f9c)" style="fill: #1f77b4; fill-opacity: 0.3; stroke: #1f77b4; stroke-opacity: 0.3"/>
    <path d="M 334.558103 447.796686 
C 336.930151 447.796686 339.205366 446.854261 340.882658 445.176969 
C 342.55995 443.499677 343.502375 441.224462 343.502375 438.852414 
C 343.502375 436.480365 342.55995 434.20515 340.882658 432.527858 
C 339.205366 430.850567 336.930151 429.908142 334.558103 429.908142 
C 332.186054 429.908142 329.910839 430.850567 328.233547 432.527858 
C 326.556256 434.20515 325.613831 436.480365 325.613831 438.852414 
C 325.613831 441.224462 326.556256 443.499677 328.233547 445.176969 
C 329.910839 446.854261 332.186054 447.796686 334.558103 447.796686 
z
" clip-path="url(#p6b21947f9c)" style="fill: #1f77b4; fill-opacity: 0.3; stroke: #1f77b4; stroke-opacity: 0.3"/>
    <path d="M 343.380237 442.931537 
C 345.434492 442.931537 347.404886 442.115373 348.857463 440.662796 
C 350.31004 439.210219 351.126204 437.239825 351.126204 435.18557 
C 351.126204 433.131316 350.31004 431.160922 348.857463 429.708345 
C 347.404886 428.255768 345.434492 427.439604 343.380237 427.439604 
C 341.325983 427.439604 339.355589 428.255768 337.903012 429.708345 
C 336.450434 431.160922 335.63427 433.131316 335.63427 435.18557 
C 335.63427 437.239825 336.450434 439.210219 337.903012 440.662796 
C 339.355589 442.115373 341.325983 442.931537 343.380237 442.931537 
z
" clip-path="url(#p6b21947f9c)" style="fill: #1f77b4; fill-opacity: 0.3; stroke: #1f77b4; stroke-opacity: 0.3"/>
    <path d="M 352.202372 438.829374 
C 353.654949 438.829374 355.048228 438.252259 356.075355 437.225132 
C 357.102482 436.198005 357.679597 434.804726 357.679597 433.352149 
C 357.679597 431.899571 357.102482 430.506292 356.075355 429.479165 
C 355.048228 428.452038 353.654949 427.874923 352.202372 427.874923 
C 350.749794 427.874923 349.356515 428.452038 348.329388 429.479165 
C 347.302261 430.506292 346.725146 431.899571 346.725146 433.352149 
C 346.725146 434.804726 347.302261 436.198005 348.329388 437.225132 
C 349.356515 438.252259 350.749794 438.829374 352.202372 438.829374 
z
" clip-path="url(#p6b21947f9c)" style="fill: #1f77b4; fill-opacity: 0.3; stroke: #1f77b4; stroke-opacity: 0.3"/>
    <path d="M 361.024506 430.584426 
C 366.00369 430.584426 370.779609 428.606176 374.300424 425.085361 
C 377.821239 421.564546 379.799489 416.788627 379.799489 411.809443 
C 379.799489 406.830259 377.821239 402.05434 374.300424 398.533525 
C 370.779609 395.01271 366.00369 393.03446 361.024506 393.03446 
C 356.045322 393.03446 351.269403 395.01271 347.748588 398.533525 
C 344.227773 402.05434 342.249523 406.830259 342.249523 411.809443 
C 342.249523 416.788627 344.227773 421.564546 347.748588 425.085361 
C 351.269403 428.606176 356.045322 430.584426 361.024506 430.584426 
z
" clip-path="url(#p6b21947f9c)" style="fill: #1f77b4; fill-opacity: 0.3; stroke: #1f77b4; stroke-opacity: 0.3"/>
    <path d="M 369.84664 414.458458 
C 373.304466 414.458458 376.621133 413.084649 379.066185 410.639598 
C 381.511237 408.194546 382.885045 404.877878 382.885045 401.420053 
C 382.885045 397.962228 381.511237 394.64556 379.066185 392.200509 
C 376.621133 389.755457 373.304466 388.381648 369.84664 388.381648 
C 366.388815 388.381648 363.072148 389.755457 360.627096 392.200509 
C 358.182044 394.64556 356.808236 397.962228 356.808236 401.420053 
C 356.808236 404.877878 358.182044 408.194546 360.627096 410.639598 
C 363.072148 413.084649 366.388815 414.458458 369.84664 414.458458 
z
" clip-path="url(#p6b21947f9c)" style="fill: #1f77b4; fill-opacity: 0.3; stroke: #1f77b4; stroke-opacity: 0.3"/>
    <path d="M 378.668775 405.506119 
C 380.765389 405.506119 382.776414 404.673125 384.258945 403.190594 
C 385.741475 401.708064 386.574469 399.697039 386.574469 397.600424 
C 386.574469 395.50381 385.741475 393.492785 384.258945 392.010254 
C 382.776414 390.527724 380.765389 389.69473 378.668775 389.69473 
C 376.57216 389.69473 374.561135 390.527724 373.078605 392.010254 
C 371.596074 393.492785 370.763081 395.50381 370.763081 397.600424 
C 370.763081 399.697039 371.596074 401.708064 373.078605 403.190594 
C 374.561135 404.673125 376.57216 405.506119 378.668775 405.506119 
z
" clip-path="url(#p6b21947f9c)" style="fill: #1f77b4; fill-opacity: 0.3; stroke: #1f77b4; stroke-opacity: 0.3"/>
    <path d="M 387.490909 397.299604 
C 391.90875 397.299604 396.146243 395.544378 399.270128 392.420492 
C 402.394013 389.296607 404.14924 385.059114 404.14924 380.641273 
C 404.14924 376.223432 402.394013 371.98594 399.270128 368.862054 
C 396.146243 365.738169 391.90875 363.982942 387.490909 363.982942 
C 383.073068 363.982942 378.835575 365.738169 375.71169 368.862054 
C 372.587805 371.98594 370.832578 376.223432 370.832578 380.641273 
C 370.832578 385.059114 372.587805 389.296607 375.71169 392.420492 
C 378.835575 395.544378 383.073068 397.299604 387.490909 397.299604 
z
" clip-path="url(#p6b21947f9c)" style="fill: #1f77b4; fill-opacity: 0.3; stroke: #1f77b4; stroke-opacity: 0.3"/>
    <path d="M 396.313043 384.471248 
C 399.030567 384.471248 401.637153 383.391564 403.558732 381.469985 
C 405.480311 379.548406 406.559994 376.94182 406.559994 374.224297 
C 406.559994 371.506774 405.480311 368.900188 403.558732 366.978609 
C 401.637153 365.05703 399.030567 363.977346 396.313043 363.977346 
C 393.59552 363.977346 390.988934 365.05703 389.067355 366.978609 
C 387.145776 368.900188 386.066093 371.506774 386.066093 374.224297 
C 386.066093 376.94182 387.145776 379.548406 389.067355 381.469985 
C 390.988934 383.391564 393.59552 384.471248 396.313043 384.471248 
z
" clip-path="url(#p6b21947f9c)" style="fill: #1f77b4; fill-opacity: 0.3; stroke: #1f77b4; stroke-opacity: 0.3"/>
    <path d="M 405.135178 378.210865 
C 407.651115 378.210865 410.064345 377.211272 411.843382 375.432236 
C 413.622418 373.653199 414.622011 371.239969 414.622011 368.724032 
C 414.622011 366.208094 413.622418 363.794864 411.843382 362.015828 
C 410.064345 360.236791 407.651115 359.237199 405.135178 359.237199 
C 402.61924 359.237199 400.20601 360.236791 398.426974 362.015828 
C 396.647937 363.794864 395.648345 366.208094 395.648345 368.724032 
C 395.648345 371.239969 396.647937 373.653199 398.426974 375.432236 
C 400.20601 377.211272 402.61924 378.210865 405.135178 378.210865 
z
" clip-path="url(#p6b21947f9c)" style="fill: #1f77b4; fill-opacity: 0.3; stroke: #1f77b4; stroke-opacity: 0.3"/>
    <path d="M 413.957312 372.046888 
C 417.067094 372.046888 420.049926 370.811359 422.248874 368.612411 
C 424.447822 366.413463 425.683352 363.430631 425.683352 360.320849 
C 425.683352 357.211067 424.447822 354.228235 422.248874 352.029287 
C 420.049926 349.830339 417.067094 348.594809 413.957312 348.594809 
C 410.84753 348.594809 407.864698 349.830339 405.66575 352.029287 
C 403.466802 354.228235 402.231273 357.211067 402.231273 360.320849 
C 402.231273 363.430631 403.466802 366.413463 405.66575 368.612411 
C 407.864698 370.811359 410.84753 372.046888 413.957312 372.046888 
z
" clip-path="url(#p6b21947f9c)" style="fill: #1f77b4; fill-opacity: 0.3; stroke: #1f77b4; stroke-opacity: 0.3"/>
    <path d="M 422.779447 363.092457 
C 423.717081 363.092457 424.616439 362.719931 425.279447 362.056923 
C 425.942454 361.393915 426.314981 360.494558 426.314981 359.556923 
C 426.314981 358.619289 425.942454 357.719931 425.279447 357.056923 
C 424.616439 356.393915 423.717081 356.021389 422.779447 356.021389 
C 421.841812 356.021389 420.942454 356.393915 420.279447 357.056923 
C 419.616439 357.719931 419.243913 358.619289 419.243913 359.556923 
C 419.243913 360.494558 419.616439 361.393915 420.279447 362.056923 
C 420.942454 362.719931 421.841812 363.092457 422.779447 363.092457 
z
" clip-path="url(#p6b21947f9c)" style="fill: #1f77b4; fill-opacity: 0.3; stroke: #1f77b4; stroke-opacity: 0.3"/>
    <path d="M 431.601581 363.386898 
C 434.319104 363.386898 436.92569 362.307214 438.847269 360.385635 
C 440.768848 358.464056 441.848532 355.85747 441.848532 353.139947 
C 441.848532 350.422424 440.768848 347.815838 438.847269 345.894259 
C 436.92569 343.97268 434.319104 342.892996 431.601581 342.892996 
C 428.884058 342.892996 426.277472 343.97268 424.355893 345.894259 
C 422.434314 347.815838 421.35463 350.422424 421.35463 353.139947 
C 421.35463 355.85747 422.434314 358.464056 424.355893 360.385635 
C 426.277472 362.307214 428.884058 363.386898 431.601581 363.386898 
z
" clip-path="url(#p6b21947f9c)" style="fill: #1f77b4; fill-opacity: 0.3; stroke: #1f77b4; stroke-opacity: 0.3"/>
    <path d="M 440.423715 357.195094 
C 442.795764 357.195094 445.070979 356.252669 446.748271 354.575378 
C 448.425562 352.898086 449.367987 350.622871 449.367987 348.250822 
C 449.367987 345.878774 448.425562 343.603559 446.748271 341.926267 
C 445.070979 340.248975 442.795764 339.30655 440.423715 339.30655 
C 438.051667 339.30655 435.776452 340.248975 434.09916 341.926267 
C 432.421868 343.603559 431.479444 345.878774 431.479444 348.250822 
C 431.479444 350.622871 432.421868 352.898086 434.09916 354.575378 
C 435.776452 356.252669 438.051667 357.195094 440.423715 357.195094 
z
" clip-path="url(#p6b21947f9c)" style="fill: #1f77b4; fill-opacity: 0.3; stroke: #1f77b4; stroke-opacity: 0.3"/>
    <path d="M 449.24585 352.329945 
C 451.300104 352.329945 453.270498 351.513782 454.723075 350.061204 
C 456.175653 348.608627 456.991816 346.638233 456.991816 344.583979 
C 456.991816 342.529724 456.175653 340.55933 454.723075 339.106753 
C 453.270498 337.654176 451.300104 336.838012 449.24585 336.838012 
C 447.191595 336.838012 445.221201 337.654176 443.768624 339.106753 
C 442.316047 340.55933 441.499883 342.529724 441.499883 344.583979 
C 441.499883 346.638233 442.316047 348.608627 443.768624 350.061204 
C 445.221201 351.513782 447.191595 352.329945 449.24585 352.329945 
z
" clip-path="url(#p6b21947f9c)" style="fill: #1f77b4; fill-opacity: 0.3; stroke: #1f77b4; stroke-opacity: 0.3"/>
    <path d="M 458.067984 339.409976 
C 463.50303 339.409976 468.716203 337.250609 472.559361 333.407451 
C 476.402519 329.564293 478.561886 324.35112 478.561886 318.916074 
C 478.561886 313.481028 476.402519 308.267856 472.559361 304.424698 
C 468.716203 300.581539 463.50303 298.422173 458.067984 298.422173 
C 452.632938 298.422173 447.419765 300.581539 443.576607 304.424698 
C 439.733449 308.267856 437.574083 313.481028 437.574083 318.916074 
C 437.574083 324.35112 439.733449 329.564293 443.576607 333.407451 
C 447.419765 337.250609 452.632938 339.409976 458.067984 339.409976 
z
" clip-path="url(#p6b21947f9c)" style="fill: #1f77b4; fill-opacity: 0.3; stroke: #1f77b4; stroke-opacity: 0.3"/>
    <path d="M 466.890119 322.796067 
C 468.56741 322.796067 470.17623 322.129672 471.362255 320.943648 
C 472.548279 319.757624 473.214674 318.148804 473.214674 316.471512 
C 473.214674 314.79422 472.548279 313.1854 471.362255 311.999376 
C 470.17623 310.813352 468.56741 310.146957 466.890119 310.146957 
C 465.212827 310.146957 463.604007 310.813352 462.417983 311.999376 
C 461.231958 313.1854 460.565563 314.79422 460.565563 316.471512 
C 460.565563 318.148804 461.231958 319.757624 462.417983 320.943648 
C 463.604007 322.129672 465.212827 322.796067 466.890119 322.796067 
z
" clip-path="url(#p6b21947f9c)" style="fill: #1f77b4; fill-opacity: 0.3; stroke: #1f77b4; stroke-opacity: 0.3"/>
    <path d="M 475.712253 320.436154 
C 478.262895 320.436154 480.709412 319.422773 482.512988 317.619197 
C 484.316564 315.815621 485.329945 313.369103 485.329945 310.818462 
C 485.329945 308.26782 484.316564 305.821302 482.512988 304.017726 
C 480.709412 302.21415 478.262895 301.20077 475.712253 301.20077 
C 473.161611 301.20077 470.715094 302.21415 468.911518 304.017726 
C 467.107942 305.821302 466.094561 308.26782 466.094561 310.818462 
C 466.094561 313.369103 467.107942 315.815621 468.911518 317.619197 
C 470.715094 319.422773 473.161611 320.436154 475.712253 320.436154 
z
" clip-path="url(#p6b21947f9c)" style="fill: #1f77b4; fill-opacity: 0.3; stroke: #1f77b4; stroke-opacity: 0.3"/>
    <path d="M 484.534387 314.908305 
C 486.672523 314.908305 488.723374 314.058815 490.235264 312.546925 
C 491.747155 311.035035 492.596645 308.984183 492.596645 306.846048 
C 492.596645 304.707912 491.747155 302.657061 490.235264 301.145171 
C 488.723374 299.63328 486.672523 298.78379 484.534387 298.78379 
C 482.396252 298.78379 480.345401 299.63328 478.83351 301.145171 
C 477.32162 302.657061 476.47213 304.707912 476.47213 306.846048 
C 476.47213 308.984183 477.32162 311.035035 478.83351 312.546925 
C 480.345401 314.058815 482.396252 314.908305 484.534387 314.908305 
z
" clip-path="url(#p6b21947f9c)" style="fill: #1f77b4; fill-opacity: 0.3; stroke: #1f77b4; stroke-opacity: 0.3"/>
    <path d="M 493.356522 309.80232 
C 494.383649 309.80232 495.368846 309.394238 496.095135 308.66795 
C 496.821423 307.941661 497.229505 306.956464 497.229505 305.929337 
C 497.229505 304.90221 496.821423 303.917013 496.095135 303.190724 
C 495.368846 302.464435 494.383649 302.056354 493.356522 302.056354 
C 492.329395 302.056354 491.344198 302.464435 490.617909 303.190724 
C 489.89162 303.917013 489.483538 304.90221 489.483538 305.929337 
C 489.483538 306.956464 489.89162 307.941661 490.617909 308.66795 
C 491.344198 309.394238 492.329395 309.80232 493.356522 309.80232 
z
" clip-path="url(#p6b21947f9c)" style="fill: #1f77b4; fill-opacity: 0.3; stroke: #1f77b4; stroke-opacity: 0.3"/>
    <path d="M 502.178656 309.954186 
C 504.623708 309.954186 506.968946 308.982757 508.697859 307.253844 
C 510.426771 305.524932 511.398201 303.179694 511.398201 300.734642 
C 511.398201 298.28959 510.426771 295.944352 508.697859 294.21544 
C 506.968946 292.486527 504.623708 291.515097 502.178656 291.515097 
C 499.733604 291.515097 497.388366 292.486527 495.659454 294.21544 
C 493.930541 295.944352 492.959112 298.28959 492.959112 300.734642 
C 492.959112 303.179694 493.930541 305.524932 495.659454 307.253844 
C 497.388366 308.982757 499.733604 309.954186 502.178656 309.954186 
z
" clip-path="url(#p6b21947f9c)" style="fill: #1f77b4; fill-opacity: 0.3; stroke: #1f77b4; stroke-opacity: 0.3"/>
    <path d="M 511.000791 300.120175 
C 515.497528 300.120175 519.810696 298.333602 522.990369 295.153929 
C 526.170043 291.974255 527.956615 287.661087 527.956615 283.16435 
C 527.956615 278.667613 526.170043 274.354445 522.990369 271.174771 
C 519.810696 267.995098 515.497528 266.208525 511.000791 266.208525 
C 506.504053 266.208525 502.190885 267.995098 499.011212 271.174771 
C 495.831538 274.354445 494.044966 278.667613 494.044966 283.16435 
C 494.044966 287.661087 495.831538 291.974255 499.011212 295.153929 
C 502.190885 298.333602 506.504053 300.120175 511.000791 300.120175 
z
" clip-path="url(#p6b21947f9c)" style="fill: #1f77b4; fill-opacity: 0.3; stroke: #1f77b4; stroke-opacity: 0.3"/>
    <path d="M 519.822925 287.219497 
C 522.194974 287.219497 524.470189 286.277072 526.14748 284.599781 
C 527.824772 282.922489 528.767197 280.647274 528.767197 278.275225 
C 528.767197 275.903177 527.824772 273.627962 526.14748 271.95067 
C 524.470189 270.273378 522.194974 269.330954 519.822925 269.330954 
C 517.450876 269.330954 515.175661 270.273378 513.49837 271.95067 
C 511.821078 273.627962 510.878653 275.903177 510.878653 278.275225 
C 510.878653 280.647274 511.821078 282.922489 513.49837 284.599781 
C 515.175661 286.277072 517.450876 287.219497 519.822925 287.219497 
z
" clip-path="url(#p6b21947f9c)" style="fill: #1f77b4; fill-opacity: 0.3; stroke: #1f77b4; stroke-opacity: 0.3"/>
    <path d="M 528.645059 281.046834 
C 529.582694 281.046834 530.482052 280.674307 531.145059 280.0113 
C 531.808067 279.348292 532.180593 278.448934 532.180593 277.5113 
C 532.180593 276.573665 531.808067 275.674307 531.145059 275.0113 
C 530.482052 274.348292 529.582694 273.975766 528.645059 273.975766 
C 527.707425 273.975766 526.808067 274.348292 526.145059 275.0113 
C 525.482052 275.674307 525.109525 276.573665 525.109525 277.5113 
C 525.109525 278.448934 525.482052 279.348292 526.145059 280.0113 
C 526.808067 280.674307 527.707425 281.046834 528.645059 281.046834 
z
" clip-path="url(#p6b21947f9c)" style="fill: #1f77b4; fill-opacity: 0.3; stroke: #1f77b4; stroke-opacity: 0.3"/>
    <path d="M 537.467194 279.101942 
C 541.33316 279.101942 545.041307 277.565977 547.774958 274.832326 
C 550.508609 272.098675 552.044573 268.390529 552.044573 264.524562 
C 552.044573 260.658596 550.508609 256.950449 547.774958 254.216798 
C 545.041307 251.483147 541.33316 249.947183 537.467194 249.947183 
C 533.601227 249.947183 529.893081 251.483147 527.15943 254.216798 
C 524.425779 256.950449 522.889814 260.658596 522.889814 264.524562 
C 522.889814 268.390529 524.425779 272.098675 527.15943 274.832326 
C 529.893081 277.565977 533.601227 279.101942 537.467194 279.101942 
z
" clip-path="url(#p6b21947f9c)" style="fill: #1f77b4; fill-opacity: 0.3; stroke: #1f77b4; stroke-opacity: 0.3"/>
    <path d="M 546.289328 268.591631 
C 548.624019 268.591631 550.863402 267.664049 552.514278 266.013173 
C 554.165154 264.362297 555.092736 262.122914 555.092736 259.788223 
C 555.092736 257.453532 554.165154 255.214149 552.514278 253.563273 
C 550.863402 251.912397 548.624019 250.984814 546.289328 250.984814 
C 543.954637 250.984814 541.715254 251.912397 540.064378 253.563273 
C 538.413502 255.214149 537.48592 257.453532 537.48592 259.788223 
C 537.48592 262.122914 538.413502 264.362297 540.064378 266.013173 
C 541.715254 267.664049 543.954637 268.591631 546.289328 268.591631 
z
" clip-path="url(#p6b21947f9c)" style="fill: #1f77b4; fill-opacity: 0.3; stroke: #1f77b4; stroke-opacity: 0.3"/>
    <path d="M 555.111462 261.216576 
C 555.530785 261.216576 555.93299 261.049978 556.229496 260.753472 
C 556.526003 260.456966 556.692601 260.054761 556.692601 259.635438 
C 556.692601 259.216115 556.526003 258.81391 556.229496 258.517404 
C 555.93299 258.220898 555.530785 258.054299 555.111462 258.054299 
C 554.69214 258.054299 554.289935 258.220898 553.993428 258.517404 
C 553.696922 258.81391 553.530324 259.216115 553.530324 259.635438 
C 553.530324 260.054761 553.696922 260.456966 553.993428 260.753472 
C 554.289935 261.049978 554.69214 261.216576 555.111462 261.216576 
z
" clip-path="url(#p6b21947f9c)" style="fill: #1f77b4; fill-opacity: 0.3; stroke: #1f77b4; stroke-opacity: 0.3"/>
    <path d="M 563.933597 262.59171 
C 564.960724 262.59171 565.945921 262.183628 566.67221 261.45734 
C 567.398498 260.731051 567.80658 259.745854 567.80658 258.718727 
C 567.80658 257.6916 567.398498 256.706403 566.67221 255.980114 
C 565.945921 255.253825 564.960724 254.845743 563.933597 254.845743 
C 562.90647 254.845743 561.921273 255.253825 561.194984 255.980114 
C 560.468695 256.706403 560.060613 257.6916 560.060613 258.718727 
C 560.060613 259.745854 560.468695 260.731051 561.194984 261.45734 
C 561.921273 262.183628 562.90647 262.59171 563.933597 262.59171 
z
" clip-path="url(#p6b21947f9c)" style="fill: #1f77b4; fill-opacity: 0.3; stroke: #1f77b4; stroke-opacity: 0.3"/>
    <path d="M 572.755731 262.808571 
C 574.893867 262.808571 576.944718 261.95908 578.456608 260.44719 
C 579.968499 258.9353 580.817989 256.884449 580.817989 254.746313 
C 580.817989 252.608177 579.968499 250.557326 578.456608 249.045436 
C 576.944718 247.533546 574.893867 246.684055 572.755731 246.684055 
C 570.617595 246.684055 568.566744 247.533546 567.054854 249.045436 
C 565.542964 250.557326 564.693473 252.608177 564.693473 254.746313 
C 564.693473 256.884449 565.542964 258.9353 567.054854 260.44719 
C 568.566744 261.95908 570.617595 262.808571 572.755731 262.808571 
z
" clip-path="url(#p6b21947f9c)" style="fill: #1f77b4; fill-opacity: 0.3; stroke: #1f77b4; stroke-opacity: 0.3"/>
    <path d="M 581.577866 258.834929 
C 583.796714 258.834929 585.924983 257.953371 587.493945 256.384409 
C 589.062908 254.815446 589.944466 252.687177 589.944466 250.468329 
C 589.944466 248.249481 589.062908 246.121212 587.493945 244.552249 
C 585.924983 242.983286 583.796714 242.101729 581.577866 242.101729 
C 579.359017 242.101729 577.230749 242.983286 575.661786 244.552249 
C 574.092823 246.121212 573.211265 248.249481 573.211265 250.468329 
C 573.211265 252.687177 574.092823 254.815446 575.661786 256.384409 
C 577.230749 257.953371 579.359017 258.834929 581.577866 258.834929 
z
" clip-path="url(#p6b21947f9c)" style="fill: #1f77b4; fill-opacity: 0.3; stroke: #1f77b4; stroke-opacity: 0.3"/>
    <path d="M 590.4 254.558968 
C 592.578866 254.558968 594.668784 253.693296 596.209475 252.152605 
C 597.750166 250.611914 598.615838 248.521996 598.615838 246.34313 
C 598.615838 244.164264 597.750166 242.074346 596.209475 240.533655 
C 594.668784 238.992964 592.578866 238.127292 590.4 238.127292 
C 588.221134 238.127292 586.131216 238.992964 584.590525 240.533655 
C 583.049834 242.074346 582.184162 244.164264 582.184162 246.34313 
C 582.184162 248.521996 583.049834 250.611914 584.590525 252.152605 
C 586.131216 253.693296 588.221134 254.558968 590.4 254.558968 
z
" clip-path="url(#p6b21947f9c)" style="fill: #1f77b4; fill-opacity: 0.3; stroke: #1f77b4; stroke-opacity: 0.3"/>
    <path d="M 599.222134 250.175077 
C 600.846165 250.175077 602.403898 249.529843 603.552261 248.38148 
C 604.700625 247.233117 605.345859 245.675383 605.345859 244.051353 
C 605.345859 242.427322 604.700625 240.869589 603.552261 239.721226 
C 602.403898 238.572863 600.846165 237.927628 599.222134 237.927628 
C 597.598104 237.927628 596.04037 238.572863 594.892007 239.721226 
C 593.743644 240.869589 593.09841 242.427322 593.09841 244.051353 
C 593.09841 245.675383 593.743644 247.233117 594.892007 248.38148 
C 596.04037 249.529843 597.598104 250.175077 599.222134 250.175077 
z
" clip-path="url(#p6b21947f9c)" style="fill: #1f77b4; fill-opacity: 0.3; stroke: #1f77b4; stroke-opacity: 0.3"/>
    <path d="M 608.044269 247.61476 
C 609.435006 247.61476 610.768969 247.062215 611.752368 246.078815 
C 612.735767 245.095416 613.288313 243.761453 613.288313 242.370716 
C 613.288313 240.979979 612.735767 239.646016 611.752368 238.662617 
C 610.768969 237.679218 609.435006 237.126672 608.044269 237.126672 
C 606.653532 237.126672 605.319569 237.679218 604.33617 238.662617 
C 603.35277 239.646016 602.800225 240.979979 602.800225 242.370716 
C 602.800225 243.761453 603.35277 245.095416 604.33617 246.078815 
C 605.319569 247.062215 606.653532 247.61476 608.044269 247.61476 
z
" clip-path="url(#p6b21947f9c)" style="fill: #1f77b4; fill-opacity: 0.3; stroke: #1f77b4; stroke-opacity: 0.3"/>
    <path d="M 616.866403 246.359823 
C 618.694189 246.359823 620.44736 245.633636 621.7398 244.341196 
C 623.03224 243.048756 623.758428 241.295585 623.758428 239.467798 
C 623.758428 237.640012 623.03224 235.886841 621.7398 234.594401 
C 620.44736 233.301961 618.694189 232.575774 616.866403 232.575774 
C 615.038617 232.575774 613.285446 233.301961 611.993006 234.594401 
C 610.700566 235.886841 609.974379 237.640012 609.974379 239.467798 
C 609.974379 241.295585 610.700566 243.048756 611.993006 244.341196 
C 613.285446 245.633636 615.038617 246.359823 616.866403 246.359823 
z
" clip-path="url(#p6b21947f9c)" style="fill: #1f77b4; fill-opacity: 0.3; stroke: #1f77b4; stroke-opacity: 0.3"/>
    <path d="M 625.688538 242.496994 
C 628.963554 242.496994 632.104876 241.195816 634.420662 238.880029 
C 636.736449 236.564243 638.037627 233.422921 638.037627 230.147905 
C 638.037627 226.872888 636.736449 223.731566 634.420662 221.41578 
C 632.104876 219.099993 628.963554 217.798815 625.688538 217.798815 
C 622.413521 217.798815 619.272199 219.099993 616.956413 221.41578 
C 614.640626 223.731566 613.339449 226.872888 613.339449 230.147905 
C 613.339449 233.422921 614.640626 236.564243 616.956413 238.880029 
C 619.272199 241.195816 622.413521 242.496994 625.688538 242.496994 
z
" clip-path="url(#p6b21947f9c)" style="fill: #1f77b4; fill-opacity: 0.3; stroke: #1f77b4; stroke-opacity: 0.3"/>
    <path d="M 634.510672 233.977879 
C 637.228195 233.977879 639.834781 232.898196 641.75636 230.976617 
C 643.677939 229.055038 644.757623 226.448451 644.757623 223.730928 
C 644.757623 221.013405 643.677939 218.406819 641.75636 216.48524 
C 639.834781 214.563661 637.228195 213.483978 634.510672 213.483978 
C 631.793149 213.483978 629.186563 214.563661 627.264984 216.48524 
C 625.343405 218.406819 624.263721 221.013405 624.263721 223.730928 
C 624.263721 226.448451 625.343405 229.055038 627.264984 230.976617 
C 629.186563 232.898196 631.793149 233.977879 634.510672 233.977879 
z
" clip-path="url(#p6b21947f9c)" style="fill: #1f77b4; fill-opacity: 0.3; stroke: #1f77b4; stroke-opacity: 0.3"/>
    <path d="M 643.332806 227.737592 
C 645.813554 227.737592 648.193031 226.75198 649.947185 224.997827 
C 651.701338 223.243673 652.68695 220.864196 652.68695 218.383448 
C 652.68695 215.9027 651.701338 213.523224 649.947185 211.76907 
C 648.193031 210.014916 645.813554 209.029305 643.332806 209.029305 
C 640.852058 209.029305 638.472582 210.014916 636.718428 211.76907 
C 634.964274 213.523224 633.978663 215.9027 633.978663 218.383448 
C 633.978663 220.864196 634.964274 223.243673 636.718428 224.997827 
C 638.472582 226.75198 640.852058 227.737592 643.332806 227.737592 
z
" clip-path="url(#p6b21947f9c)" style="fill: #1f77b4; fill-opacity: 0.3; stroke: #1f77b4; stroke-opacity: 0.3"/>
    <path d="M 652.154941 215.356053 
C 657.186816 215.356053 662.013276 213.356868 665.571349 209.798795 
C 669.129422 206.240722 671.128607 201.414262 671.128607 196.382387 
C 671.128607 191.350512 669.129422 186.524052 665.571349 182.965979 
C 662.013276 179.407906 657.186816 177.408721 652.154941 177.408721 
C 647.123066 177.408721 642.296606 179.407906 638.738533 182.965979 
C 635.18046 186.524052 633.181275 191.350512 633.181275 196.382387 
C 633.181275 201.414262 635.18046 206.240722 638.738533 209.798795 
C 642.296606 213.356868 647.123066 215.356053 652.154941 215.356053 
z
" clip-path="url(#p6b21947f9c)" style="fill: #1f77b4; fill-opacity: 0.3; stroke: #1f77b4; stroke-opacity: 0.3"/>
    <path d="M 660.977075 199.253249 
C 664.331658 199.253249 667.549298 197.920458 669.921347 195.54841 
C 672.293396 193.176361 673.626186 189.958721 673.626186 186.604138 
C 673.626186 183.249555 672.293396 180.031915 669.921347 177.659866 
C 667.549298 175.287817 664.331658 173.955027 660.977075 173.955027 
C 657.622492 173.955027 654.404852 175.287817 652.032803 177.659866 
C 649.660755 180.031915 648.327964 183.249555 648.327964 186.604138 
C 648.327964 189.958721 649.660755 193.176361 652.032803 195.54841 
C 654.404852 197.920458 657.622492 199.253249 660.977075 199.253249 
z
" clip-path="url(#p6b21947f9c)" style="fill: #1f77b4; fill-opacity: 0.3; stroke: #1f77b4; stroke-opacity: 0.3"/>
    <path d="M 669.799209 190.335408 
C 672.612113 190.335408 675.310186 189.21783 677.299209 187.228806 
C 679.288233 185.239783 680.405811 182.54171 680.405811 179.728806 
C 680.405811 176.915903 679.288233 174.21783 677.299209 172.228806 
C 675.310186 170.239783 672.612113 169.122205 669.799209 169.122205 
C 666.986306 169.122205 664.288233 170.239783 662.299209 172.228806 
C 660.310186 174.21783 659.192608 176.915903 659.192608 179.728806 
C 659.192608 182.54171 660.310186 185.239783 662.299209 187.228806 
C 664.288233 189.21783 666.986306 190.335408 669.799209 190.335408 
z
" clip-path="url(#p6b21947f9c)" style="fill: #1f77b4; fill-opacity: 0.3; stroke: #1f77b4; stroke-opacity: 0.3"/>
    <path d="M 678.621344 183.004998 
C 681.759269 183.004998 684.769096 181.758287 686.987944 179.539438 
C 689.206792 177.32059 690.453503 174.310764 690.453503 171.172838 
C 690.453503 168.034913 689.206792 165.025086 686.987944 162.806238 
C 684.769096 160.58739 681.759269 159.340679 678.621344 159.340679 
C 675.483418 159.340679 672.473592 160.58739 670.254744 162.806238 
C 668.035895 165.025086 666.789184 168.034913 666.789184 171.172838 
C 666.789184 174.310764 668.035895 177.32059 670.254744 179.539438 
C 672.473592 181.758287 675.483418 183.004998 678.621344 183.004998 
z
" clip-path="url(#p6b21947f9c)" style="fill: #1f77b4; fill-opacity: 0.3; stroke: #1f77b4; stroke-opacity: 0.3"/>
    <path d="M 687.443478 173.944446 
C 688.381113 173.944446 689.280471 173.57192 689.943478 172.908912 
C 690.606486 172.245905 690.979012 171.346547 690.979012 170.408912 
C 690.979012 169.471278 690.606486 168.57192 689.943478 167.908912 
C 689.280471 167.245905 688.381113 166.873379 687.443478 166.873379 
C 686.505844 166.873379 685.606486 167.245905 684.943478 167.908912 
C 684.280471 168.57192 683.907944 169.471278 683.907944 170.408912 
C 683.907944 171.346547 684.280471 172.245905 684.943478 172.908912 
C 685.606486 173.57192 686.505844 173.944446 687.443478 173.944446 
z
" clip-path="url(#p6b21947f9c)" style="fill: #1f77b4; fill-opacity: 0.3; stroke: #1f77b4; stroke-opacity: 0.3"/>
    <path d="M 705.087747 173.658767 
C 706.273771 173.658767 707.411379 173.187555 708.250025 172.348909 
C 709.088671 171.510263 709.559883 170.372656 709.559883 169.186631 
C 709.559883 168.000607 709.088671 166.862999 708.250025 166.024354 
C 707.411379 165.185708 706.273771 164.714495 705.087747 164.714495 
C 703.901723 164.714495 702.764115 165.185708 701.925469 166.024354 
C 701.086824 166.862999 700.615611 168.000607 700.615611 169.186631 
C 700.615611 170.372656 701.086824 171.510263 701.925469 172.348909 
C 702.764115 173.187555 703.901723 173.658767 705.087747 173.658767 
z
" clip-path="url(#p6b21947f9c)" style="fill: #1f77b4; fill-opacity: 0.3; stroke: #1f77b4; stroke-opacity: 0.3"/>
    <path d="M 722.732016 172.554981 
C 723.989985 172.554981 725.1966 172.055185 726.086118 171.165667 
C 726.975636 170.276149 727.475432 169.069534 727.475432 167.811565 
C 727.475432 166.553596 726.975636 165.346981 726.086118 164.457463 
C 725.1966 163.567945 723.989985 163.068148 722.732016 163.068148 
C 721.474047 163.068148 720.267432 163.567945 719.377914 164.457463 
C 718.488396 165.346981 717.988599 166.553596 717.988599 167.811565 
C 717.988599 169.069534 718.488396 170.276149 719.377914 171.165667 
C 720.267432 172.055185 721.474047 172.554981 722.732016 172.554981 
z
" clip-path="url(#p6b21947f9c)" style="fill: #1f77b4; fill-opacity: 0.3; stroke: #1f77b4; stroke-opacity: 0.3"/>
    <path d="M 731.55415 171.643512 
C 733.178181 171.643512 734.735914 170.998278 735.884277 169.849915 
C 737.03264 168.701552 737.677875 167.143818 737.677875 165.519788 
C 737.677875 163.895757 737.03264 162.338024 735.884277 161.189661 
C 734.735914 160.041298 733.178181 159.396063 731.55415 159.396063 
C 729.93012 159.396063 728.372386 160.041298 727.224023 161.189661 
C 726.07566 162.338024 725.430426 163.895757 725.430426 165.519788 
C 725.430426 167.143818 726.07566 168.701552 727.224023 169.849915 
C 728.372386 170.998278 729.93012 171.643512 731.55415 171.643512 
z
" clip-path="url(#p6b21947f9c)" style="fill: #1f77b4; fill-opacity: 0.3; stroke: #1f77b4; stroke-opacity: 0.3"/>
    <path d="M 740.376285 169.234458 
C 741.888175 169.234458 743.338346 168.633778 744.407413 167.56471 
C 745.476481 166.495642 746.077162 165.045471 746.077162 163.533581 
C 746.077162 162.021691 745.476481 160.57152 744.407413 159.502452 
C 743.338346 158.433384 741.888175 157.832704 740.376285 157.832704 
C 738.864394 157.832704 737.414224 158.433384 736.345156 159.502452 
C 735.276088 160.57152 734.675407 162.021691 734.675407 163.533581 
C 734.675407 165.045471 735.276088 166.495642 736.345156 167.56471 
C 737.414224 168.633778 738.864394 169.234458 740.376285 169.234458 
z
" clip-path="url(#p6b21947f9c)" style="fill: #1f77b4; fill-opacity: 0.3; stroke: #1f77b4; stroke-opacity: 0.3"/>
    <path d="M 749.198419 167.365528 
C 750.82245 167.365528 752.380183 166.720294 753.528546 165.571931 
C 754.676909 164.423568 755.322143 162.865834 755.322143 161.241804 
C 755.322143 159.617773 754.676909 158.06004 753.528546 156.911677 
C 752.380183 155.763314 750.82245 155.118079 749.198419 155.118079 
C 747.574388 155.118079 746.016655 155.763314 744.868292 156.911677 
C 743.719929 158.06004 743.074695 159.617773 743.074695 161.241804 
C 743.074695 162.865834 743.719929 164.423568 744.868292 165.571931 
C 746.016655 166.720294 747.574388 167.365528 749.198419 167.365528 
z
" clip-path="url(#p6b21947f9c)" style="fill: #1f77b4; fill-opacity: 0.3; stroke: #1f77b4; stroke-opacity: 0.3"/>
    <path d="M 758.020553 164.956474 
C 759.532444 164.956474 760.982614 164.355794 762.051682 163.286726 
C 763.12075 162.217658 763.72143 160.767487 763.72143 159.255597 
C 763.72143 157.743707 763.12075 156.293536 762.051682 155.224468 
C 760.982614 154.1554 759.532444 153.55472 758.020553 153.55472 
C 756.508663 153.55472 755.058492 154.1554 753.989424 155.224468 
C 752.920357 156.293536 752.319676 157.743707 752.319676 159.255597 
C 752.319676 160.767487 752.920357 162.217658 753.989424 163.286726 
C 755.058492 164.355794 756.508663 164.956474 758.020553 164.956474 
z
" clip-path="url(#p6b21947f9c)" style="fill: #1f77b4; fill-opacity: 0.3; stroke: #1f77b4; stroke-opacity: 0.3"/>
    <path d="M 766.842688 161.186095 
C 767.4357 161.186095 768.004504 160.950488 768.423827 160.531165 
C 768.843149 160.111842 769.078756 159.543039 769.078756 158.950027 
C 769.078756 158.357014 768.843149 157.788211 768.423827 157.368888 
C 768.004504 156.949565 767.4357 156.713959 766.842688 156.713959 
C 766.249676 156.713959 765.680872 156.949565 765.261549 157.368888 
C 764.842226 157.788211 764.60662 158.357014 764.60662 158.950027 
C 764.60662 159.543039 764.842226 160.111842 765.261549 160.531165 
C 765.680872 160.950488 766.249676 161.186095 766.842688 161.186095 
z
" clip-path="url(#p6b21947f9c)" style="fill: #1f77b4; fill-opacity: 0.3; stroke: #1f77b4; stroke-opacity: 0.3"/>
    <path d="M 775.664822 161.230284 
C 776.391111 161.230284 777.08775 160.941726 777.601314 160.428163 
C 778.114877 159.914599 778.403435 159.21796 778.403435 158.491671 
C 778.403435 157.765382 778.114877 157.068743 777.601314 156.555179 
C 777.08775 156.041616 776.391111 155.753058 775.664822 155.753058 
C 774.938534 155.753058 774.241894 156.041616 773.72833 156.555179 
C 773.214767 157.068743 772.926209 157.765382 772.926209 158.491671 
C 772.926209 159.21796 773.214767 159.914599 773.72833 160.428163 
C 774.241894 160.941726 774.938534 161.230284 775.664822 161.230284 
z
" clip-path="url(#p6b21947f9c)" style="fill: #1f77b4; fill-opacity: 0.3; stroke: #1f77b4; stroke-opacity: 0.3"/>
    <path d="M 784.486957 160.410995 
C 788.237495 160.410995 791.834926 158.92089 794.486957 156.268859 
C 797.138988 153.616828 798.629092 150.019398 798.629092 146.268859 
C 798.629092 142.518321 797.138988 138.92089 794.486957 136.268859 
C 791.834926 133.616828 788.237495 132.126724 784.486957 132.126724 
C 780.736418 132.126724 777.138988 133.616828 774.486957 136.268859 
C 771.834926 138.92089 770.344821 142.518321 770.344821 146.268859 
C 770.344821 150.019398 771.834926 153.616828 774.486957 156.268859 
C 777.138988 158.92089 780.736418 160.410995 784.486957 160.410995 
z
" clip-path="url(#p6b21947f9c)" style="fill: #1f77b4; fill-opacity: 0.3; stroke: #1f77b4; stroke-opacity: 0.3"/>
    <path d="M 793.309091 147.724433 
C 797.220275 147.724433 800.971793 146.170503 803.737418 143.404879 
C 806.503042 140.639254 808.056972 136.887736 808.056972 132.976552 
C 808.056972 129.065368 806.503042 125.31385 803.737418 122.548225 
C 800.971793 119.7826 797.220275 118.228671 793.309091 118.228671 
C 789.397907 118.228671 785.646389 119.7826 782.880764 122.548225 
C 780.11514 125.31385 778.56121 129.065368 778.56121 132.976552 
C 778.56121 136.887736 780.11514 140.639254 782.880764 143.404879 
C 785.646389 146.170503 789.397907 147.724433 793.309091 147.724433 
z
" clip-path="url(#p6b21947f9c)" style="fill: #1f77b4; fill-opacity: 0.3; stroke: #1f77b4; stroke-opacity: 0.3"/>
    <path d="M 802.131225 134.404905 
C 802.550548 134.404905 802.952753 134.238307 803.249259 133.941801 
C 803.545765 133.645294 803.712364 133.243089 803.712364 132.823767 
C 803.712364 132.404444 803.545765 132.002239 803.249259 131.705733 
C 802.952753 131.409227 802.550548 131.242628 802.131225 131.242628 
C 801.711902 131.242628 801.309697 131.409227 801.013191 131.705733 
C 800.716685 132.002239 800.550086 132.404444 800.550086 132.823767 
C 800.550086 133.243089 800.716685 133.645294 801.013191 133.941801 
C 801.309697 134.238307 801.711902 134.404905 802.131225 134.404905 
z
" clip-path="url(#p6b21947f9c)" style="fill: #1f77b4; fill-opacity: 0.3; stroke: #1f77b4; stroke-opacity: 0.3"/>
    <path d="M 810.95336 136.192117 
C 812.211328 136.192117 813.417943 135.69232 814.307462 134.802802 
C 815.19698 133.913284 815.696776 132.706669 815.696776 131.4487 
C 815.696776 130.190732 815.19698 128.984117 814.307462 128.094598 
C 813.417943 127.20508 812.211328 126.705284 810.95336 126.705284 
C 809.695391 126.705284 808.488776 127.20508 807.599258 128.094598 
C 806.709739 128.984117 806.209943 130.190732 806.209943 131.4487 
C 806.209943 132.706669 806.709739 133.913284 807.599258 134.802802 
C 808.488776 135.69232 809.695391 136.192117 810.95336 136.192117 
z
" clip-path="url(#p6b21947f9c)" style="fill: #1f77b4; fill-opacity: 0.3; stroke: #1f77b4; stroke-opacity: 0.3"/>
    <path d="M 819.775494 134.81705 
C 821.033463 134.81705 822.240078 134.317254 823.129596 133.427736 
C 824.019114 132.538218 824.518911 131.331603 824.518911 130.073634 
C 824.518911 128.815665 824.019114 127.60905 823.129596 126.719532 
C 822.240078 125.830014 821.033463 125.330217 819.775494 125.330217 
C 818.517525 125.330217 817.31091 125.830014 816.421392 126.719532 
C 815.531874 127.60905 815.032078 128.815665 815.032078 130.073634 
C 815.032078 131.331603 815.531874 132.538218 816.421392 133.427736 
C 817.31091 134.317254 818.517525 134.81705 819.775494 134.81705 
z
" clip-path="url(#p6b21947f9c)" style="fill: #1f77b4; fill-opacity: 0.3; stroke: #1f77b4; stroke-opacity: 0.3"/>
    <path d="M 828.597628 133.204268 
C 831.818509 133.204268 834.907904 131.924599 837.18541 129.647092 
C 839.462917 127.369586 840.742586 124.280191 840.742586 121.05931 
C 840.742586 117.83843 839.462917 114.749035 837.18541 112.471528 
C 834.907904 110.194022 831.818509 108.914353 828.597628 108.914353 
C 825.376748 108.914353 822.287353 110.194022 820.009846 112.471528 
C 817.73234 114.749035 816.452671 117.83843 816.452671 121.05931 
C 816.452671 124.280191 817.73234 127.369586 820.009846 129.647092 
C 822.287353 131.924599 825.376748 133.204268 828.597628 133.204268 
z
" clip-path="url(#p6b21947f9c)" style="fill: #1f77b4; fill-opacity: 0.3; stroke: #1f77b4; stroke-opacity: 0.3"/>
    <path d="M 837.419763 124.939303 
C 839.097055 124.939303 840.705874 124.272908 841.891899 123.086884 
C 843.077923 121.90086 843.744318 120.29204 843.744318 118.614748 
C 843.744318 116.937456 843.077923 115.328636 841.891899 114.142612 
C 840.705874 112.956588 839.097055 112.290193 837.419763 112.290193 
C 835.742471 112.290193 834.133651 112.956588 832.947627 114.142612 
C 831.761603 115.328636 831.095208 116.937456 831.095208 118.614748 
C 831.095208 120.29204 831.761603 121.90086 832.947627 123.086884 
C 834.133651 124.272908 835.742471 124.939303 837.419763 124.939303 
z
" clip-path="url(#p6b21947f9c)" style="fill: #1f77b4; fill-opacity: 0.3; stroke: #1f77b4; stroke-opacity: 0.3"/>
    <path d="M 846.241897 121.728552 
C 847.351321 121.728552 848.415456 121.287773 849.199937 120.503292 
C 849.984418 119.718811 850.425197 118.654676 850.425197 117.545252 
C 850.425197 116.435828 849.984418 115.371693 849.199937 114.587212 
C 848.415456 113.802731 847.351321 113.361952 846.241897 113.361952 
C 845.132473 113.361952 844.068339 113.802731 843.283857 114.587212 
C 842.499376 115.371693 842.058597 116.435828 842.058597 117.545252 
C 842.058597 118.654676 842.499376 119.718811 843.283857 120.503292 
C 844.068339 121.287773 845.132473 121.728552 846.241897 121.728552 
z
" clip-path="url(#p6b21947f9c)" style="fill: #1f77b4; fill-opacity: 0.3; stroke: #1f77b4; stroke-opacity: 0.3"/>
    <path d="M 855.064032 121.425245 
C 856.741323 121.425245 858.350143 120.75885 859.536168 119.572826 
C 860.722192 118.386801 861.388587 116.777981 861.388587 115.10069 
C 861.388587 113.423398 860.722192 111.814578 859.536168 110.628554 
C 858.350143 109.442529 856.741323 108.776134 855.064032 108.776134 
C 853.38674 108.776134 851.77792 109.442529 850.591896 110.628554 
C 849.405871 111.814578 848.739476 113.423398 848.739476 115.10069 
C 848.739476 116.777981 849.405871 118.386801 850.591896 119.572826 
C 851.77792 120.75885 853.38674 121.425245 855.064032 121.425245 
z
" clip-path="url(#p6b21947f9c)" style="fill: #1f77b4; fill-opacity: 0.3; stroke: #1f77b4; stroke-opacity: 0.3"/>
    <path d="M 863.886166 119.155615 
C 865.852965 119.155615 867.739473 118.374197 869.13021 116.983461 
C 870.520947 115.592724 871.302364 113.706215 871.302364 111.739416 
C 871.302364 109.772618 870.520947 107.886109 869.13021 106.495372 
C 867.739473 105.104635 865.852965 104.323218 863.886166 104.323218 
C 861.919367 104.323218 860.032859 105.104635 858.642122 106.495372 
C 857.251385 107.886109 856.469968 109.772618 856.469968 111.739416 
C 856.469968 113.706215 857.251385 115.592724 858.642122 116.983461 
C 860.032859 118.374197 861.919367 119.155615 863.886166 119.155615 
z
" clip-path="url(#p6b21947f9c)" style="fill: #1f77b4; fill-opacity: 0.3; stroke: #1f77b4; stroke-opacity: 0.3"/>
    <path d="M 872.7083 113.16777 
C 873.127623 113.16777 873.529828 113.001171 873.826334 112.704665 
C 874.12284 112.408159 874.289439 112.005954 874.289439 111.586631 
C 874.289439 111.167308 874.12284 110.765103 873.826334 110.468597 
C 873.529828 110.172091 873.127623 110.005492 872.7083 110.005492 
C 872.288977 110.005492 871.886772 110.172091 871.590266 110.468597 
C 871.29376 110.765103 871.127162 111.167308 871.127162 111.586631 
C 871.127162 112.005954 871.29376 112.408159 871.590266 112.704665 
C 871.886772 113.001171 872.288977 113.16777 872.7083 113.16777 
z
" clip-path="url(#p6b21947f9c)" style="fill: #1f77b4; fill-opacity: 0.3; stroke: #1f77b4; stroke-opacity: 0.3"/>
    <path d="M 881.530435 114.358239 
C 882.468069 114.358239 883.367427 113.985713 884.030435 113.322706 
C 884.693443 112.659698 885.065969 111.76034 885.065969 110.822706 
C 885.065969 109.885071 884.693443 108.985713 884.030435 108.322706 
C 883.367427 107.659698 882.468069 107.287172 881.530435 107.287172 
C 880.5928 107.287172 879.693443 107.659698 879.030435 108.322706 
C 878.367427 108.985713 877.994901 109.885071 877.994901 110.822706 
C 877.994901 111.76034 878.367427 112.659698 879.030435 113.322706 
C 879.693443 113.985713 880.5928 114.358239 881.530435 114.358239 
z
" clip-path="url(#p6b21947f9c)" style="fill: #1f77b4; fill-opacity: 0.3; stroke: #1f77b4; stroke-opacity: 0.3"/>
    <path d="M 890.352569 113.778978 
C 891.379696 113.778978 892.364893 113.370896 893.091182 112.644607 
C 893.817471 111.918319 894.225553 110.933122 894.225553 109.905995 
C 894.225553 108.878868 893.817471 107.893671 893.091182 107.167382 
C 892.364893 106.441093 891.379696 106.033011 890.352569 106.033011 
C 889.325442 106.033011 888.340245 106.441093 887.613956 107.167382 
C 886.887668 107.893671 886.479586 108.878868 886.479586 109.905995 
C 886.479586 110.933122 886.887668 111.918319 887.613956 112.644607 
C 888.340245 113.370896 889.325442 113.778978 890.352569 113.778978 
z
" clip-path="url(#p6b21947f9c)" style="fill: #1f77b4; fill-opacity: 0.3; stroke: #1f77b4; stroke-opacity: 0.3"/>
    <path d="M 899.174704 113.469402 
C 900.56544 113.469402 901.899403 112.916857 902.882803 111.933457 
C 903.866202 110.950058 904.418748 109.616095 904.418748 108.225358 
C 904.418748 106.834621 903.866202 105.500658 902.882803 104.517259 
C 901.899403 103.533859 900.56544 102.981314 899.174704 102.981314 
C 897.783967 102.981314 896.450004 103.533859 895.466604 104.517259 
C 894.483205 105.500658 893.930659 106.834621 893.930659 108.225358 
C 893.930659 109.616095 894.483205 110.950058 895.466604 111.933457 
C 896.450004 112.916857 897.783967 113.469402 899.174704 113.469402 
z
" clip-path="url(#p6b21947f9c)" style="fill: #1f77b4; fill-opacity: 0.3; stroke: #1f77b4; stroke-opacity: 0.3"/>
    <path d="M 907.996838 112.266399 
C 910.405665 112.266399 912.716156 111.309362 914.419454 109.606065 
C 916.122752 107.902767 917.079789 105.592275 917.079789 103.183448 
C 917.079789 100.774621 916.122752 98.46413 914.419454 96.760832 
C 912.716156 95.057534 910.405665 94.100497 907.996838 94.100497 
C 905.588011 94.100497 903.277519 95.057534 901.574222 96.760832 
C 899.870924 98.46413 898.913887 100.774621 898.913887 103.183448 
C 898.913887 105.592275 899.870924 107.902767 901.574222 109.606065 
C 903.277519 111.309362 905.588011 112.266399 907.996838 112.266399 
z
" clip-path="url(#p6b21947f9c)" style="fill: #1f77b4; fill-opacity: 0.3; stroke: #1f77b4; stroke-opacity: 0.3"/>
    <path d="M 916.818972 104.611802 
C 917.238295 104.611802 917.6405 104.445203 917.937006 104.148697 
C 918.233512 103.852191 918.400111 103.449986 918.400111 103.030663 
C 918.400111 102.61134 918.233512 102.209135 917.937006 101.912629 
C 917.6405 101.616123 917.238295 101.449524 916.818972 101.449524 
C 916.399649 101.449524 915.997444 101.616123 915.700938 101.912629 
C 915.404432 102.209135 915.237834 102.61134 915.237834 103.030663 
C 915.237834 103.449986 915.404432 103.852191 915.700938 104.148697 
C 915.997444 104.445203 916.399649 104.611802 916.818972 104.611802 
z
" clip-path="url(#p6b21947f9c)" style="fill: #1f77b4; fill-opacity: 0.3; stroke: #1f77b4; stroke-opacity: 0.3"/>
    <path d="M 925.641107 106.689503 
C 928.51584 106.689503 931.273218 105.547359 933.305962 103.514616 
C 935.338705 101.481873 936.480848 98.724494 936.480848 95.849761 
C 936.480848 92.975028 935.338705 90.21765 933.305962 88.184906 
C 931.273218 86.152163 928.51584 85.01002 925.641107 85.01002 
C 922.766374 85.01002 920.008995 86.152163 917.976252 88.184906 
C 915.943509 90.21765 914.801365 92.975028 914.801365 95.849761 
C 914.801365 98.724494 915.943509 101.481873 917.976252 103.514616 
C 920.008995 105.547359 922.766374 106.689503 925.641107 106.689503 
z
" clip-path="url(#p6b21947f9c)" style="fill: #1f77b4; fill-opacity: 0.3; stroke: #1f77b4; stroke-opacity: 0.3"/>
    <path d="M 934.463241 98.806034 
C 935.490368 98.806034 936.475565 98.397952 937.201854 97.671663 
C 937.928142 96.945375 938.336224 95.960178 938.336224 94.93305 
C 938.336224 93.905923 937.928142 92.920726 937.201854 92.194438 
C 936.475565 91.468149 935.490368 91.060067 934.463241 91.060067 
C 933.436114 91.060067 932.450917 91.468149 931.724628 92.194438 
C 930.99834 92.920726 930.590258 93.905923 930.590258 94.93305 
C 930.590258 95.960178 930.99834 96.945375 931.724628 97.671663 
C 932.450917 98.397952 933.436114 98.806034 934.463241 98.806034 
z
" clip-path="url(#p6b21947f9c)" style="fill: #1f77b4; fill-opacity: 0.3; stroke: #1f77b4; stroke-opacity: 0.3"/>
    <path d="M 943.285375 98.496458 
C 944.676112 98.496458 946.010075 97.943912 946.993475 96.960513 
C 947.976874 95.977114 948.52942 94.643151 948.52942 93.252414 
C 948.52942 91.861677 947.976874 90.527714 946.993475 89.544315 
C 946.010075 88.560915 944.676112 88.00837 943.285375 88.00837 
C 941.894639 88.00837 940.560676 88.560915 939.577276 89.544315 
C 938.593877 90.527714 938.041331 91.861677 938.041331 93.252414 
C 938.041331 94.643151 938.593877 95.977114 939.577276 96.960513 
C 940.560676 97.943912 941.894639 98.496458 943.285375 98.496458 
z
" clip-path="url(#p6b21947f9c)" style="fill: #1f77b4; fill-opacity: 0.3; stroke: #1f77b4; stroke-opacity: 0.3"/>
    <path d="M 952.10751 96.620764 
C 953.365479 96.620764 954.572094 96.120968 955.461612 95.231449 
C 956.35113 94.341931 956.850926 93.135316 956.850926 91.877347 
C 956.850926 90.619379 956.35113 89.412764 955.461612 88.523246 
C 954.572094 87.633727 953.365479 87.133931 952.10751 87.133931 
C 950.849541 87.133931 949.642926 87.633727 948.753408 88.523246 
C 947.86389 89.412764 947.364093 90.619379 947.364093 91.877347 
C 947.364093 93.135316 947.86389 94.341931 948.753408 95.231449 
C 949.642926 96.120968 950.849541 96.620764 952.10751 96.620764 
z
" clip-path="url(#p6b21947f9c)" style="fill: #1f77b4; fill-opacity: 0.3; stroke: #1f77b4; stroke-opacity: 0.3"/>
    <path d="M 960.929644 94.648956 
C 961.867279 94.648956 962.766637 94.27643 963.429644 93.613422 
C 964.092652 92.950414 964.465178 92.051056 964.465178 91.113422 
C 964.465178 90.175787 964.092652 89.27643 963.429644 88.613422 
C 962.766637 87.950414 961.867279 87.577888 960.929644 87.577888 
C 959.99201 87.577888 959.092652 87.950414 958.429644 88.613422 
C 957.766637 89.27643 957.39411 90.175787 957.39411 91.113422 
C 957.39411 92.051056 957.766637 92.950414 958.429644 93.613422 
C 959.092652 94.27643 959.99201 94.648956 960.929644 94.648956 
z
" clip-path="url(#p6b21947f9c)" style="fill: #1f77b4; fill-opacity: 0.3; stroke: #1f77b4; stroke-opacity: 0.3"/>
    <path d="M 969.751779 93.393679 
C 970.478067 93.393679 971.174707 93.105122 971.68827 92.591558 
C 972.201834 92.077994 972.490391 91.381355 972.490391 90.655066 
C 972.490391 89.928778 972.201834 89.232138 971.68827 88.718575 
C 971.174707 88.205011 970.478067 87.916454 969.751779 87.916454 
C 969.02549 87.916454 968.328851 88.205011 967.815287 88.718575 
C 967.301723 89.232138 967.013166 89.928778 967.013166 90.655066 
C 967.013166 91.381355 967.301723 92.077994 967.815287 92.591558 
C 968.328851 93.105122 969.02549 93.393679 969.751779 93.393679 
z
" clip-path="url(#p6b21947f9c)" style="fill: #1f77b4; fill-opacity: 0.3; stroke: #1f77b4; stroke-opacity: 0.3"/>
    <path d="M 978.573913 93.206203 
C 979.412559 93.206203 980.216969 92.873006 980.809981 92.279994 
C 981.402993 91.686982 981.736191 90.882572 981.736191 90.043926 
C 981.736191 89.20528 981.402993 88.40087 980.809981 87.807858 
C 980.216969 87.214846 979.412559 86.881648 978.573913 86.881648 
C 977.735267 86.881648 976.930857 87.214846 976.337845 87.807858 
C 975.744833 88.40087 975.411635 89.20528 975.411635 90.043926 
C 975.411635 90.882572 975.744833 91.686982 976.337845 92.279994 
C 976.930857 92.873006 977.735267 93.206203 978.573913 93.206203 
z
" clip-path="url(#p6b21947f9c)" style="fill: #1f77b4; fill-opacity: 0.3; stroke: #1f77b4; stroke-opacity: 0.3"/>
    <path d="M 987.396047 92.324183 
C 988.122336 92.324183 988.818976 92.035626 989.332539 91.522062 
C 989.846103 91.008498 990.13466 90.311859 990.13466 89.58557 
C 990.13466 88.859282 989.846103 88.162642 989.332539 87.649079 
C 988.818976 87.135515 988.122336 86.846958 987.396047 86.846958 
C 986.669759 86.846958 985.973119 87.135515 985.459556 87.649079 
C 984.945992 88.162642 984.657435 88.859282 984.657435 89.58557 
C 984.657435 90.311859 984.945992 91.008498 985.459556 91.522062 
C 985.973119 92.035626 986.669759 92.324183 987.396047 92.324183 
z
" clip-path="url(#p6b21947f9c)" style="fill: #1f77b4; fill-opacity: 0.3; stroke: #1f77b4; stroke-opacity: 0.3"/>
    <path d="M 996.218182 91.516068 
C 996.811194 91.516068 997.379998 91.280462 997.799321 90.861139 
C 998.218644 90.441816 998.45425 89.873012 998.45425 89.28 
C 998.45425 88.686988 998.218644 88.118184 997.799321 87.698861 
C 997.379998 87.279538 996.811194 87.043932 996.218182 87.043932 
C 995.62517 87.043932 995.056366 87.279538 994.637043 87.698861 
C 994.21772 88.118184 993.982114 88.686988 993.982114 89.28 
C 993.982114 89.873012 994.21772 90.441816 994.637043 90.861139 
C 995.056366 91.280462 995.62517 91.516068 996.218182 91.516068 
z
" clip-path="url(#p6b21947f9c)" style="fill: #1f77b4; fill-opacity: 0.3; stroke: #1f77b4; stroke-opacity: 0.3"/>
   </g>
   <g id="matplotlib.axis_1">
    <g id="xtick_1">
     <g id="line2d_1">
      <defs>
       <path id="m8fb8d842b6" d="M 0 0 
L 0 3.5 
" style="stroke: #000000; stroke-width: 0.8"/>
      </defs>
      <g>
       <use xlink:href="#m8fb8d842b6" x="184.581818" y="512.64" style="stroke: #000000; stroke-width: 0.8"/>
      </g>
     </g>
     <g id="text_1">
      <!-- 2022-01-01 -->
      <g transform="translate(155.524006 527.238438)scale(0.1 -0.1)">
       <defs>
        <path id="DejaVuSans-32" d="M 1228 531 
L 3431 531 
L 3431 0 
L 469 0 
L 469 531 
Q 828 903 1448 1529 
Q 2069 2156 2228 2338 
Q 2531 2678 2651 2914 
Q 2772 3150 2772 3378 
Q 2772 3750 2511 3984 
Q 2250 4219 1831 4219 
Q 1534 4219 1204 4116 
Q 875 4013 500 3803 
L 500 4441 
Q 881 4594 1212 4672 
Q 1544 4750 1819 4750 
Q 2544 4750 2975 4387 
Q 3406 4025 3406 3419 
Q 3406 3131 3298 2873 
Q 3191 2616 2906 2266 
Q 2828 2175 2409 1742 
Q 1991 1309 1228 531 
z
" transform="scale(0.015625)"/>
        <path id="DejaVuSans-30" d="M 2034 4250 
Q 1547 4250 1301 3770 
Q 1056 3291 1056 2328 
Q 1056 1369 1301 889 
Q 1547 409 2034 409 
Q 2525 409 2770 889 
Q 3016 1369 3016 2328 
Q 3016 3291 2770 3770 
Q 2525 4250 2034 4250 
z
M 2034 4750 
Q 2819 4750 3233 4129 
Q 3647 3509 3647 2328 
Q 3647 1150 3233 529 
Q 2819 -91 2034 -91 
Q 1250 -91 836 529 
Q 422 1150 422 2328 
Q 422 3509 836 4129 
Q 1250 4750 2034 4750 
z
" transform="scale(0.015625)"/>
        <path id="DejaVuSans-2d" d="M 313 2009 
L 1997 2009 
L 1997 1497 
L 313 1497 
L 313 2009 
z
" transform="scale(0.015625)"/>
        <path id="DejaVuSans-31" d="M 794 531 
L 1825 531 
L 1825 4091 
L 703 3866 
L 703 4441 
L 1819 4666 
L 2450 4666 
L 2450 531 
L 3481 531 
L 3481 0 
L 794 0 
L 794 531 
z
" transform="scale(0.015625)"/>
       </defs>
       <use xlink:href="#DejaVuSans-32"/>
       <use xlink:href="#DejaVuSans-30" x="63.623047"/>
       <use xlink:href="#DejaVuSans-32" x="127.246094"/>
       <use xlink:href="#DejaVuSans-32" x="190.869141"/>
       <use xlink:href="#DejaVuSans-2d" x="254.492188"/>
       <use xlink:href="#DejaVuSans-30" x="290.576172"/>
       <use xlink:href="#DejaVuSans-31" x="354.199219"/>
       <use xlink:href="#DejaVuSans-2d" x="417.822266"/>
       <use xlink:href="#DejaVuSans-30" x="453.90625"/>
       <use xlink:href="#DejaVuSans-31" x="517.529297"/>
      </g>
     </g>
    </g>
    <g id="xtick_2">
     <g id="line2d_2">
      <g>
       <use xlink:href="#m8fb8d842b6" x="308.0917" y="512.64" style="stroke: #000000; stroke-width: 0.8"/>
      </g>
     </g>
     <g id="text_2">
      <!-- 2022-01-15 -->
      <g transform="translate(279.033887 527.238438)scale(0.1 -0.1)">
       <defs>
        <path id="DejaVuSans-35" d="M 691 4666 
L 3169 4666 
L 3169 4134 
L 1269 4134 
L 1269 2991 
Q 1406 3038 1543 3061 
Q 1681 3084 1819 3084 
Q 2600 3084 3056 2656 
Q 3513 2228 3513 1497 
Q 3513 744 3044 326 
Q 2575 -91 1722 -91 
Q 1428 -91 1123 -41 
Q 819 9 494 109 
L 494 744 
Q 775 591 1075 516 
Q 1375 441 1709 441 
Q 2250 441 2565 725 
Q 2881 1009 2881 1497 
Q 2881 1984 2565 2268 
Q 2250 2553 1709 2553 
Q 1456 2553 1204 2497 
Q 953 2441 691 2322 
L 691 4666 
z
" transform="scale(0.015625)"/>
       </defs>
       <use xlink:href="#DejaVuSans-32"/>
       <use xlink:href="#DejaVuSans-30" x="63.623047"/>
       <use xlink:href="#DejaVuSans-32" x="127.246094"/>
       <use xlink:href="#DejaVuSans-32" x="190.869141"/>
       <use xlink:href="#DejaVuSans-2d" x="254.492188"/>
       <use xlink:href="#DejaVuSans-30" x="290.576172"/>
       <use xlink:href="#DejaVuSans-31" x="354.199219"/>
       <use xlink:href="#DejaVuSans-2d" x="417.822266"/>
       <use xlink:href="#DejaVuSans-31" x="453.90625"/>
       <use xlink:href="#DejaVuSans-35" x="517.529297"/>
      </g>
     </g>
    </g>
    <g id="xtick_3">
     <g id="line2d_3">
      <g>
       <use xlink:href="#m8fb8d842b6" x="458.067984" y="512.64" style="stroke: #000000; stroke-width: 0.8"/>
      </g>
     </g>
     <g id="text_3">
      <!-- 2022-02-01 -->
      <g transform="translate(429.010172 527.238438)scale(0.1 -0.1)">
       <use xlink:href="#DejaVuSans-32"/>
       <use xlink:href="#DejaVuSans-30" x="63.623047"/>
       <use xlink:href="#DejaVuSans-32" x="127.246094"/>
       <use xlink:href="#DejaVuSans-32" x="190.869141"/>
       <use xlink:href="#DejaVuSans-2d" x="254.492188"/>
       <use xlink:href="#DejaVuSans-30" x="290.576172"/>
       <use xlink:href="#DejaVuSans-32" x="354.199219"/>
       <use xlink:href="#DejaVuSans-2d" x="417.822266"/>
       <use xlink:href="#DejaVuSans-30" x="453.90625"/>
       <use xlink:href="#DejaVuSans-31" x="517.529297"/>
      </g>
     </g>
    </g>
    <g id="xtick_4">
     <g id="line2d_4">
      <g>
       <use xlink:href="#m8fb8d842b6" x="581.577866" y="512.64" style="stroke: #000000; stroke-width: 0.8"/>
      </g>
     </g>
     <g id="text_4">
      <!-- 2022-02-15 -->
      <g transform="translate(552.520053 527.238438)scale(0.1 -0.1)">
       <use xlink:href="#DejaVuSans-32"/>
       <use xlink:href="#DejaVuSans-30" x="63.623047"/>
       <use xlink:href="#DejaVuSans-32" x="127.246094"/>
       <use xlink:href="#DejaVuSans-32" x="190.869141"/>
       <use xlink:href="#DejaVuSans-2d" x="254.492188"/>
       <use xlink:href="#DejaVuSans-30" x="290.576172"/>
       <use xlink:href="#DejaVuSans-32" x="354.199219"/>
       <use xlink:href="#DejaVuSans-2d" x="417.822266"/>
       <use xlink:href="#DejaVuSans-31" x="453.90625"/>
       <use xlink:href="#DejaVuSans-35" x="517.529297"/>
      </g>
     </g>
    </g>
    <g id="xtick_5">
     <g id="line2d_5">
      <g>
       <use xlink:href="#m8fb8d842b6" x="705.087747" y="512.64" style="stroke: #000000; stroke-width: 0.8"/>
      </g>
     </g>
     <g id="text_5">
      <!-- 2022-03-01 -->
      <g transform="translate(676.029935 527.238438)scale(0.1 -0.1)">
       <defs>
        <path id="DejaVuSans-33" d="M 2597 2516 
Q 3050 2419 3304 2112 
Q 3559 1806 3559 1356 
Q 3559 666 3084 287 
Q 2609 -91 1734 -91 
Q 1441 -91 1130 -33 
Q 819 25 488 141 
L 488 750 
Q 750 597 1062 519 
Q 1375 441 1716 441 
Q 2309 441 2620 675 
Q 2931 909 2931 1356 
Q 2931 1769 2642 2001 
Q 2353 2234 1838 2234 
L 1294 2234 
L 1294 2753 
L 1863 2753 
Q 2328 2753 2575 2939 
Q 2822 3125 2822 3475 
Q 2822 3834 2567 4026 
Q 2313 4219 1838 4219 
Q 1578 4219 1281 4162 
Q 984 4106 628 3988 
L 628 4550 
Q 988 4650 1302 4700 
Q 1616 4750 1894 4750 
Q 2613 4750 3031 4423 
Q 3450 4097 3450 3541 
Q 3450 3153 3228 2886 
Q 3006 2619 2597 2516 
z
" transform="scale(0.015625)"/>
       </defs>
       <use xlink:href="#DejaVuSans-32"/>
       <use xlink:href="#DejaVuSans-30" x="63.623047"/>
       <use xlink:href="#DejaVuSans-32" x="127.246094"/>
       <use xlink:href="#DejaVuSans-32" x="190.869141"/>
       <use xlink:href="#DejaVuSans-2d" x="254.492188"/>
       <use xlink:href="#DejaVuSans-30" x="290.576172"/>
       <use xlink:href="#DejaVuSans-33" x="354.199219"/>
       <use xlink:href="#DejaVuSans-2d" x="417.822266"/>
       <use xlink:href="#DejaVuSans-30" x="453.90625"/>
       <use xlink:href="#DejaVuSans-31" x="517.529297"/>
      </g>
     </g>
    </g>
    <g id="xtick_6">
     <g id="line2d_6">
      <g>
       <use xlink:href="#m8fb8d842b6" x="828.597628" y="512.64" style="stroke: #000000; stroke-width: 0.8"/>
      </g>
     </g>
     <g id="text_6">
      <!-- 2022-03-15 -->
      <g transform="translate(799.539816 527.238438)scale(0.1 -0.1)">
       <use xlink:href="#DejaVuSans-32"/>
       <use xlink:href="#DejaVuSans-30" x="63.623047"/>
       <use xlink:href="#DejaVuSans-32" x="127.246094"/>
       <use xlink:href="#DejaVuSans-32" x="190.869141"/>
       <use xlink:href="#DejaVuSans-2d" x="254.492188"/>
       <use xlink:href="#DejaVuSans-30" x="290.576172"/>
       <use xlink:href="#DejaVuSans-33" x="354.199219"/>
       <use xlink:href="#DejaVuSans-2d" x="417.822266"/>
       <use xlink:href="#DejaVuSans-31" x="453.90625"/>
       <use xlink:href="#DejaVuSans-35" x="517.529297"/>
      </g>
     </g>
    </g>
    <g id="xtick_7">
     <g id="line2d_7">
      <g>
       <use xlink:href="#m8fb8d842b6" x="978.573913" y="512.64" style="stroke: #000000; stroke-width: 0.8"/>
      </g>
     </g>
     <g id="text_7">
      <!-- 2022-04-01 -->
      <g transform="translate(949.516101 527.238438)scale(0.1 -0.1)">
       <defs>
        <path id="DejaVuSans-34" d="M 2419 4116 
L 825 1625 
L 2419 1625 
L 2419 4116 
z
M 2253 4666 
L 3047 4666 
L 3047 1625 
L 3713 1625 
L 3713 1100 
L 3047 1100 
L 3047 0 
L 2419 0 
L 2419 1100 
L 313 1100 
L 313 1709 
L 2253 4666 
z
" transform="scale(0.015625)"/>
       </defs>
       <use xlink:href="#DejaVuSans-32"/>
       <use xlink:href="#DejaVuSans-30" x="63.623047"/>
       <use xlink:href="#DejaVuSans-32" x="127.246094"/>
       <use xlink:href="#DejaVuSans-32" x="190.869141"/>
       <use xlink:href="#DejaVuSans-2d" x="254.492188"/>
       <use xlink:href="#DejaVuSans-30" x="290.576172"/>
       <use xlink:href="#DejaVuSans-34" x="354.199219"/>
       <use xlink:href="#DejaVuSans-2d" x="417.822266"/>
       <use xlink:href="#DejaVuSans-30" x="453.90625"/>
       <use xlink:href="#DejaVuSans-31" x="517.529297"/>
      </g>
     </g>
    </g>
   </g>
   <g id="matplotlib.axis_2">
    <g id="ytick_1">
     <g id="line2d_8">
      <defs>
       <path id="m9b4432d62d" d="M 0 0 
L -3.5 0 
" style="stroke: #000000; stroke-width: 0.8"/>
      </defs>
      <g>
       <use xlink:href="#m9b4432d62d" x="144" y="476.74313" style="stroke: #000000; stroke-width: 0.8"/>
      </g>
     </g>
     <g id="text_8">
      <!-- 500 -->
      <g transform="translate(117.9125 480.542349)scale(0.1 -0.1)">
       <use xlink:href="#DejaVuSans-35"/>
       <use xlink:href="#DejaVuSans-30" x="63.623047"/>
       <use xlink:href="#DejaVuSans-30" x="127.246094"/>
      </g>
     </g>
    </g>
    <g id="ytick_2">
     <g id="line2d_9">
      <g>
       <use xlink:href="#m9b4432d62d" x="144" y="400.350557" style="stroke: #000000; stroke-width: 0.8"/>
      </g>
     </g>
     <g id="text_9">
      <!-- 1000 -->
      <g transform="translate(111.55 404.149776)scale(0.1 -0.1)">
       <use xlink:href="#DejaVuSans-31"/>
       <use xlink:href="#DejaVuSans-30" x="63.623047"/>
       <use xlink:href="#DejaVuSans-30" x="127.246094"/>
       <use xlink:href="#DejaVuSans-30" x="190.869141"/>
      </g>
     </g>
    </g>
    <g id="ytick_3">
     <g id="line2d_10">
      <g>
       <use xlink:href="#m9b4432d62d" x="144" y="323.957984" style="stroke: #000000; stroke-width: 0.8"/>
      </g>
     </g>
     <g id="text_10">
      <!-- 1500 -->
      <g transform="translate(111.55 327.757203)scale(0.1 -0.1)">
       <use xlink:href="#DejaVuSans-31"/>
       <use xlink:href="#DejaVuSans-35" x="63.623047"/>
       <use xlink:href="#DejaVuSans-30" x="127.246094"/>
       <use xlink:href="#DejaVuSans-30" x="190.869141"/>
      </g>
     </g>
    </g>
    <g id="ytick_4">
     <g id="line2d_11">
      <g>
       <use xlink:href="#m9b4432d62d" x="144" y="247.565411" style="stroke: #000000; stroke-width: 0.8"/>
      </g>
     </g>
     <g id="text_11">
      <!-- 2000 -->
      <g transform="translate(111.55 251.36463)scale(0.1 -0.1)">
       <use xlink:href="#DejaVuSans-32"/>
       <use xlink:href="#DejaVuSans-30" x="63.623047"/>
       <use xlink:href="#DejaVuSans-30" x="127.246094"/>
       <use xlink:href="#DejaVuSans-30" x="190.869141"/>
      </g>
     </g>
    </g>
    <g id="ytick_5">
     <g id="line2d_12">
      <g>
       <use xlink:href="#m9b4432d62d" x="144" y="171.172838" style="stroke: #000000; stroke-width: 0.8"/>
      </g>
     </g>
     <g id="text_12">
      <!-- 2500 -->
      <g transform="translate(111.55 174.972057)scale(0.1 -0.1)">
       <use xlink:href="#DejaVuSans-32"/>
       <use xlink:href="#DejaVuSans-35" x="63.623047"/>
       <use xlink:href="#DejaVuSans-30" x="127.246094"/>
       <use xlink:href="#DejaVuSans-30" x="190.869141"/>
      </g>
     </g>
    </g>
    <g id="ytick_6">
     <g id="line2d_13">
      <g>
       <use xlink:href="#m9b4432d62d" x="144" y="94.780265" style="stroke: #000000; stroke-width: 0.8"/>
      </g>
     </g>
     <g id="text_13">
      <!-- 3000 -->
      <g transform="translate(111.55 98.579484)scale(0.1 -0.1)">
       <use xlink:href="#DejaVuSans-33"/>
       <use xlink:href="#DejaVuSans-30" x="63.623047"/>
       <use xlink:href="#DejaVuSans-30" x="127.246094"/>
       <use xlink:href="#DejaVuSans-30" x="190.869141"/>
      </g>
     </g>
    </g>
   </g>
   <g id="line2d_14">
    <path d="M 184.581818 492.48 
L 193.403953 492.021645 
L 202.226087 491.104934 
L 211.048221 490.035438 
L 219.870356 489.424297 
L 228.69249 489.118727 
L 237.514625 488.507586 
L 246.336759 486.521379 
L 255.158893 484.993528 
L 263.981028 484.076817 
L 272.803162 483.312891 
L 281.625296 477.812626 
L 290.447431 469.562228 
L 299.269565 467.576021 
L 308.0917 463.450822 
L 316.913834 455.811565 
L 325.735968 443.741538 
L 334.558103 438.852414 
L 343.380237 435.18557 
L 352.202372 433.352149 
L 361.024506 411.809443 
L 369.84664 401.420053 
L 378.668775 397.600424 
L 387.490909 380.641273 
L 396.313043 374.224297 
L 405.135178 368.724032 
L 413.957312 360.320849 
L 422.779447 359.556923 
L 431.601581 353.139947 
L 440.423715 348.250822 
L 449.24585 344.583979 
L 458.067984 318.916074 
L 466.890119 316.471512 
L 475.712253 310.818462 
L 484.534387 306.846048 
L 493.356522 305.929337 
L 502.178656 300.734642 
L 511.000791 283.16435 
L 519.822925 278.275225 
L 528.645059 277.5113 
L 537.467194 264.524562 
L 546.289328 259.788223 
L 555.111462 259.635438 
L 563.933597 258.718727 
L 572.755731 254.746313 
L 581.577866 250.468329 
L 590.4 246.34313 
L 599.222134 244.051353 
L 608.044269 242.370716 
L 616.866403 239.467798 
L 625.688538 230.147905 
L 634.510672 223.730928 
L 643.332806 218.383448 
L 652.154941 196.382387 
L 660.977075 186.604138 
L 669.799209 179.728806 
L 678.621344 171.172838 
L 687.443478 170.408912 
L 705.087747 169.186631 
L 722.732016 167.811565 
L 731.55415 165.519788 
L 740.376285 163.533581 
L 749.198419 161.241804 
L 758.020553 159.255597 
L 766.842688 158.950027 
L 775.664822 158.491671 
L 784.486957 146.268859 
L 793.309091 132.976552 
L 802.131225 132.823767 
L 810.95336 131.4487 
L 819.775494 130.073634 
L 828.597628 121.05931 
L 837.419763 118.614748 
L 846.241897 117.545252 
L 855.064032 115.10069 
L 863.886166 111.739416 
L 872.7083 111.586631 
L 881.530435 110.822706 
L 890.352569 109.905995 
L 899.174704 108.225358 
L 907.996838 103.183448 
L 916.818972 103.030663 
L 925.641107 95.849761 
L 934.463241 94.93305 
L 943.285375 93.252414 
L 952.10751 91.877347 
L 960.929644 91.113422 
L 969.751779 90.655066 
L 978.573913 90.043926 
L 987.396047 89.58557 
L 996.218182 89.28 
" clip-path="url(#p6b21947f9c)" style="fill: none; stroke: #1f77b4; stroke-width: 1.5; stroke-linecap: square"/>
   </g>
   <g id="patch_3">
    <path d="M 144 512.64 
L 144 69.12 
" style="fill: none; stroke: #000000; stroke-width: 0.8; stroke-linejoin: miter; stroke-linecap: square"/>
   </g>
   <g id="patch_4">
    <path d="M 1036.8 512.64 
L 1036.8 69.12 
" style="fill: none; stroke: #000000; stroke-width: 0.8; stroke-linejoin: miter; stroke-linecap: square"/>
   </g>
   <g id="patch_5">
    <path d="M 144 512.64 
L 1036.8 512.64 
" style="fill: none; stroke: #000000; stroke-width: 0.8; stroke-linejoin: miter; stroke-linecap: square"/>
   </g>
   <g id="patch_6">
    <path d="M 144 69.12 
L 1036.8 69.12 
" style="fill: none; stroke: #000000; stroke-width: 0.8; stroke-linejoin: miter; stroke-linecap: square"/>
   </g>
   <g id="text_14">
    <!-- Number of AEDs in the OpenStreetMap database in Poland from 2022-01-01, day by day. As at: 2022-04-03 -->
    <g transform="translate(144 63.12)scale(0.14 -0.14)">
     <defs>
      <path id="DejaVuSans-4e" d="M 628 4666 
L 1478 4666 
L 3547 763 
L 3547 4666 
L 4159 4666 
L 4159 0 
L 3309 0 
L 1241 3903 
L 1241 0 
L 628 0 
L 628 4666 
z
" transform="scale(0.015625)"/>
      <path id="DejaVuSans-75" d="M 544 1381 
L 544 3500 
L 1119 3500 
L 1119 1403 
Q 1119 906 1312 657 
Q 1506 409 1894 409 
Q 2359 409 2629 706 
Q 2900 1003 2900 1516 
L 2900 3500 
L 3475 3500 
L 3475 0 
L 2900 0 
L 2900 538 
Q 2691 219 2414 64 
Q 2138 -91 1772 -91 
Q 1169 -91 856 284 
Q 544 659 544 1381 
z
M 1991 3584 
L 1991 3584 
z
" transform="scale(0.015625)"/>
      <path id="DejaVuSans-6d" d="M 3328 2828 
Q 3544 3216 3844 3400 
Q 4144 3584 4550 3584 
Q 5097 3584 5394 3201 
Q 5691 2819 5691 2113 
L 5691 0 
L 5113 0 
L 5113 2094 
Q 5113 2597 4934 2840 
Q 4756 3084 4391 3084 
Q 3944 3084 3684 2787 
Q 3425 2491 3425 1978 
L 3425 0 
L 2847 0 
L 2847 2094 
Q 2847 2600 2669 2842 
Q 2491 3084 2119 3084 
Q 1678 3084 1418 2786 
Q 1159 2488 1159 1978 
L 1159 0 
L 581 0 
L 581 3500 
L 1159 3500 
L 1159 2956 
Q 1356 3278 1631 3431 
Q 1906 3584 2284 3584 
Q 2666 3584 2933 3390 
Q 3200 3197 3328 2828 
z
" transform="scale(0.015625)"/>
      <path id="DejaVuSans-62" d="M 3116 1747 
Q 3116 2381 2855 2742 
Q 2594 3103 2138 3103 
Q 1681 3103 1420 2742 
Q 1159 2381 1159 1747 
Q 1159 1113 1420 752 
Q 1681 391 2138 391 
Q 2594 391 2855 752 
Q 3116 1113 3116 1747 
z
M 1159 2969 
Q 1341 3281 1617 3432 
Q 1894 3584 2278 3584 
Q 2916 3584 3314 3078 
Q 3713 2572 3713 1747 
Q 3713 922 3314 415 
Q 2916 -91 2278 -91 
Q 1894 -91 1617 61 
Q 1341 213 1159 525 
L 1159 0 
L 581 0 
L 581 4863 
L 1159 4863 
L 1159 2969 
z
" transform="scale(0.015625)"/>
      <path id="DejaVuSans-65" d="M 3597 1894 
L 3597 1613 
L 953 1613 
Q 991 1019 1311 708 
Q 1631 397 2203 397 
Q 2534 397 2845 478 
Q 3156 559 3463 722 
L 3463 178 
Q 3153 47 2828 -22 
Q 2503 -91 2169 -91 
Q 1331 -91 842 396 
Q 353 884 353 1716 
Q 353 2575 817 3079 
Q 1281 3584 2069 3584 
Q 2775 3584 3186 3129 
Q 3597 2675 3597 1894 
z
M 3022 2063 
Q 3016 2534 2758 2815 
Q 2500 3097 2075 3097 
Q 1594 3097 1305 2825 
Q 1016 2553 972 2059 
L 3022 2063 
z
" transform="scale(0.015625)"/>
      <path id="DejaVuSans-72" d="M 2631 2963 
Q 2534 3019 2420 3045 
Q 2306 3072 2169 3072 
Q 1681 3072 1420 2755 
Q 1159 2438 1159 1844 
L 1159 0 
L 581 0 
L 581 3500 
L 1159 3500 
L 1159 2956 
Q 1341 3275 1631 3429 
Q 1922 3584 2338 3584 
Q 2397 3584 2469 3576 
Q 2541 3569 2628 3553 
L 2631 2963 
z
" transform="scale(0.015625)"/>
      <path id="DejaVuSans-20" transform="scale(0.015625)"/>
      <path id="DejaVuSans-6f" d="M 1959 3097 
Q 1497 3097 1228 2736 
Q 959 2375 959 1747 
Q 959 1119 1226 758 
Q 1494 397 1959 397 
Q 2419 397 2687 759 
Q 2956 1122 2956 1747 
Q 2956 2369 2687 2733 
Q 2419 3097 1959 3097 
z
M 1959 3584 
Q 2709 3584 3137 3096 
Q 3566 2609 3566 1747 
Q 3566 888 3137 398 
Q 2709 -91 1959 -91 
Q 1206 -91 779 398 
Q 353 888 353 1747 
Q 353 2609 779 3096 
Q 1206 3584 1959 3584 
z
" transform="scale(0.015625)"/>
      <path id="DejaVuSans-66" d="M 2375 4863 
L 2375 4384 
L 1825 4384 
Q 1516 4384 1395 4259 
Q 1275 4134 1275 3809 
L 1275 3500 
L 2222 3500 
L 2222 3053 
L 1275 3053 
L 1275 0 
L 697 0 
L 697 3053 
L 147 3053 
L 147 3500 
L 697 3500 
L 697 3744 
Q 697 4328 969 4595 
Q 1241 4863 1831 4863 
L 2375 4863 
z
" transform="scale(0.015625)"/>
      <path id="DejaVuSans-41" d="M 2188 4044 
L 1331 1722 
L 3047 1722 
L 2188 4044 
z
M 1831 4666 
L 2547 4666 
L 4325 0 
L 3669 0 
L 3244 1197 
L 1141 1197 
L 716 0 
L 50 0 
L 1831 4666 
z
" transform="scale(0.015625)"/>
      <path id="DejaVuSans-45" d="M 628 4666 
L 3578 4666 
L 3578 4134 
L 1259 4134 
L 1259 2753 
L 3481 2753 
L 3481 2222 
L 1259 2222 
L 1259 531 
L 3634 531 
L 3634 0 
L 628 0 
L 628 4666 
z
" transform="scale(0.015625)"/>
      <path id="DejaVuSans-44" d="M 1259 4147 
L 1259 519 
L 2022 519 
Q 2988 519 3436 956 
Q 3884 1394 3884 2338 
Q 3884 3275 3436 3711 
Q 2988 4147 2022 4147 
L 1259 4147 
z
M 628 4666 
L 1925 4666 
Q 3281 4666 3915 4102 
Q 4550 3538 4550 2338 
Q 4550 1131 3912 565 
Q 3275 0 1925 0 
L 628 0 
L 628 4666 
z
" transform="scale(0.015625)"/>
      <path id="DejaVuSans-73" d="M 2834 3397 
L 2834 2853 
Q 2591 2978 2328 3040 
Q 2066 3103 1784 3103 
Q 1356 3103 1142 2972 
Q 928 2841 928 2578 
Q 928 2378 1081 2264 
Q 1234 2150 1697 2047 
L 1894 2003 
Q 2506 1872 2764 1633 
Q 3022 1394 3022 966 
Q 3022 478 2636 193 
Q 2250 -91 1575 -91 
Q 1294 -91 989 -36 
Q 684 19 347 128 
L 347 722 
Q 666 556 975 473 
Q 1284 391 1588 391 
Q 1994 391 2212 530 
Q 2431 669 2431 922 
Q 2431 1156 2273 1281 
Q 2116 1406 1581 1522 
L 1381 1569 
Q 847 1681 609 1914 
Q 372 2147 372 2553 
Q 372 3047 722 3315 
Q 1072 3584 1716 3584 
Q 2034 3584 2315 3537 
Q 2597 3491 2834 3397 
z
" transform="scale(0.015625)"/>
      <path id="DejaVuSans-69" d="M 603 3500 
L 1178 3500 
L 1178 0 
L 603 0 
L 603 3500 
z
M 603 4863 
L 1178 4863 
L 1178 4134 
L 603 4134 
L 603 4863 
z
" transform="scale(0.015625)"/>
      <path id="DejaVuSans-6e" d="M 3513 2113 
L 3513 0 
L 2938 0 
L 2938 2094 
Q 2938 2591 2744 2837 
Q 2550 3084 2163 3084 
Q 1697 3084 1428 2787 
Q 1159 2491 1159 1978 
L 1159 0 
L 581 0 
L 581 3500 
L 1159 3500 
L 1159 2956 
Q 1366 3272 1645 3428 
Q 1925 3584 2291 3584 
Q 2894 3584 3203 3211 
Q 3513 2838 3513 2113 
z
" transform="scale(0.015625)"/>
      <path id="DejaVuSans-74" d="M 1172 4494 
L 1172 3500 
L 2356 3500 
L 2356 3053 
L 1172 3053 
L 1172 1153 
Q 1172 725 1289 603 
Q 1406 481 1766 481 
L 2356 481 
L 2356 0 
L 1766 0 
Q 1100 0 847 248 
Q 594 497 594 1153 
L 594 3053 
L 172 3053 
L 172 3500 
L 594 3500 
L 594 4494 
L 1172 4494 
z
" transform="scale(0.015625)"/>
      <path id="DejaVuSans-68" d="M 3513 2113 
L 3513 0 
L 2938 0 
L 2938 2094 
Q 2938 2591 2744 2837 
Q 2550 3084 2163 3084 
Q 1697 3084 1428 2787 
Q 1159 2491 1159 1978 
L 1159 0 
L 581 0 
L 581 4863 
L 1159 4863 
L 1159 2956 
Q 1366 3272 1645 3428 
Q 1925 3584 2291 3584 
Q 2894 3584 3203 3211 
Q 3513 2838 3513 2113 
z
" transform="scale(0.015625)"/>
      <path id="DejaVuSans-4f" d="M 2522 4238 
Q 1834 4238 1429 3725 
Q 1025 3213 1025 2328 
Q 1025 1447 1429 934 
Q 1834 422 2522 422 
Q 3209 422 3611 934 
Q 4013 1447 4013 2328 
Q 4013 3213 3611 3725 
Q 3209 4238 2522 4238 
z
M 2522 4750 
Q 3503 4750 4090 4092 
Q 4678 3434 4678 2328 
Q 4678 1225 4090 567 
Q 3503 -91 2522 -91 
Q 1538 -91 948 565 
Q 359 1222 359 2328 
Q 359 3434 948 4092 
Q 1538 4750 2522 4750 
z
" transform="scale(0.015625)"/>
      <path id="DejaVuSans-70" d="M 1159 525 
L 1159 -1331 
L 581 -1331 
L 581 3500 
L 1159 3500 
L 1159 2969 
Q 1341 3281 1617 3432 
Q 1894 3584 2278 3584 
Q 2916 3584 3314 3078 
Q 3713 2572 3713 1747 
Q 3713 922 3314 415 
Q 2916 -91 2278 -91 
Q 1894 -91 1617 61 
Q 1341 213 1159 525 
z
M 3116 1747 
Q 3116 2381 2855 2742 
Q 2594 3103 2138 3103 
Q 1681 3103 1420 2742 
Q 1159 2381 1159 1747 
Q 1159 1113 1420 752 
Q 1681 391 2138 391 
Q 2594 391 2855 752 
Q 3116 1113 3116 1747 
z
" transform="scale(0.015625)"/>
      <path id="DejaVuSans-53" d="M 3425 4513 
L 3425 3897 
Q 3066 4069 2747 4153 
Q 2428 4238 2131 4238 
Q 1616 4238 1336 4038 
Q 1056 3838 1056 3469 
Q 1056 3159 1242 3001 
Q 1428 2844 1947 2747 
L 2328 2669 
Q 3034 2534 3370 2195 
Q 3706 1856 3706 1288 
Q 3706 609 3251 259 
Q 2797 -91 1919 -91 
Q 1588 -91 1214 -16 
Q 841 59 441 206 
L 441 856 
Q 825 641 1194 531 
Q 1563 422 1919 422 
Q 2459 422 2753 634 
Q 3047 847 3047 1241 
Q 3047 1584 2836 1778 
Q 2625 1972 2144 2069 
L 1759 2144 
Q 1053 2284 737 2584 
Q 422 2884 422 3419 
Q 422 4038 858 4394 
Q 1294 4750 2059 4750 
Q 2388 4750 2728 4690 
Q 3069 4631 3425 4513 
z
" transform="scale(0.015625)"/>
      <path id="DejaVuSans-4d" d="M 628 4666 
L 1569 4666 
L 2759 1491 
L 3956 4666 
L 4897 4666 
L 4897 0 
L 4281 0 
L 4281 4097 
L 3078 897 
L 2444 897 
L 1241 4097 
L 1241 0 
L 628 0 
L 628 4666 
z
" transform="scale(0.015625)"/>
      <path id="DejaVuSans-61" d="M 2194 1759 
Q 1497 1759 1228 1600 
Q 959 1441 959 1056 
Q 959 750 1161 570 
Q 1363 391 1709 391 
Q 2188 391 2477 730 
Q 2766 1069 2766 1631 
L 2766 1759 
L 2194 1759 
z
M 3341 1997 
L 3341 0 
L 2766 0 
L 2766 531 
Q 2569 213 2275 61 
Q 1981 -91 1556 -91 
Q 1019 -91 701 211 
Q 384 513 384 1019 
Q 384 1609 779 1909 
Q 1175 2209 1959 2209 
L 2766 2209 
L 2766 2266 
Q 2766 2663 2505 2880 
Q 2244 3097 1772 3097 
Q 1472 3097 1187 3025 
Q 903 2953 641 2809 
L 641 3341 
Q 956 3463 1253 3523 
Q 1550 3584 1831 3584 
Q 2591 3584 2966 3190 
Q 3341 2797 3341 1997 
z
" transform="scale(0.015625)"/>
      <path id="DejaVuSans-64" d="M 2906 2969 
L 2906 4863 
L 3481 4863 
L 3481 0 
L 2906 0 
L 2906 525 
Q 2725 213 2448 61 
Q 2172 -91 1784 -91 
Q 1150 -91 751 415 
Q 353 922 353 1747 
Q 353 2572 751 3078 
Q 1150 3584 1784 3584 
Q 2172 3584 2448 3432 
Q 2725 3281 2906 2969 
z
M 947 1747 
Q 947 1113 1208 752 
Q 1469 391 1925 391 
Q 2381 391 2643 752 
Q 2906 1113 2906 1747 
Q 2906 2381 2643 2742 
Q 2381 3103 1925 3103 
Q 1469 3103 1208 2742 
Q 947 2381 947 1747 
z
" transform="scale(0.015625)"/>
      <path id="DejaVuSans-50" d="M 1259 4147 
L 1259 2394 
L 2053 2394 
Q 2494 2394 2734 2622 
Q 2975 2850 2975 3272 
Q 2975 3691 2734 3919 
Q 2494 4147 2053 4147 
L 1259 4147 
z
M 628 4666 
L 2053 4666 
Q 2838 4666 3239 4311 
Q 3641 3956 3641 3272 
Q 3641 2581 3239 2228 
Q 2838 1875 2053 1875 
L 1259 1875 
L 1259 0 
L 628 0 
L 628 4666 
z
" transform="scale(0.015625)"/>
      <path id="DejaVuSans-6c" d="M 603 4863 
L 1178 4863 
L 1178 0 
L 603 0 
L 603 4863 
z
" transform="scale(0.015625)"/>
      <path id="DejaVuSans-2c" d="M 750 794 
L 1409 794 
L 1409 256 
L 897 -744 
L 494 -744 
L 750 256 
L 750 794 
z
" transform="scale(0.015625)"/>
      <path id="DejaVuSans-79" d="M 2059 -325 
Q 1816 -950 1584 -1140 
Q 1353 -1331 966 -1331 
L 506 -1331 
L 506 -850 
L 844 -850 
Q 1081 -850 1212 -737 
Q 1344 -625 1503 -206 
L 1606 56 
L 191 3500 
L 800 3500 
L 1894 763 
L 2988 3500 
L 3597 3500 
L 2059 -325 
z
" transform="scale(0.015625)"/>
      <path id="DejaVuSans-2e" d="M 684 794 
L 1344 794 
L 1344 0 
L 684 0 
L 684 794 
z
" transform="scale(0.015625)"/>
      <path id="DejaVuSans-3a" d="M 750 794 
L 1409 794 
L 1409 0 
L 750 0 
L 750 794 
z
M 750 3309 
L 1409 3309 
L 1409 2516 
L 750 2516 
L 750 3309 
z
" transform="scale(0.015625)"/>
     </defs>
     <use xlink:href="#DejaVuSans-4e"/>
     <use xlink:href="#DejaVuSans-75" x="74.804688"/>
     <use xlink:href="#DejaVuSans-6d" x="138.183594"/>
     <use xlink:href="#DejaVuSans-62" x="235.595703"/>
     <use xlink:href="#DejaVuSans-65" x="299.072266"/>
     <use xlink:href="#DejaVuSans-72" x="360.595703"/>
     <use xlink:href="#DejaVuSans-20" x="401.708984"/>
     <use xlink:href="#DejaVuSans-6f" x="433.496094"/>
     <use xlink:href="#DejaVuSans-66" x="494.677734"/>
     <use xlink:href="#DejaVuSans-20" x="529.882812"/>
     <use xlink:href="#DejaVuSans-41" x="561.669922"/>
     <use xlink:href="#DejaVuSans-45" x="630.078125"/>
     <use xlink:href="#DejaVuSans-44" x="693.261719"/>
     <use xlink:href="#DejaVuSans-73" x="770.263672"/>
     <use xlink:href="#DejaVuSans-20" x="822.363281"/>
     <use xlink:href="#DejaVuSans-69" x="854.150391"/>
     <use xlink:href="#DejaVuSans-6e" x="881.933594"/>
     <use xlink:href="#DejaVuSans-20" x="945.3125"/>
     <use xlink:href="#DejaVuSans-74" x="977.099609"/>
     <use xlink:href="#DejaVuSans-68" x="1016.308594"/>
     <use xlink:href="#DejaVuSans-65" x="1079.6875"/>
     <use xlink:href="#DejaVuSans-20" x="1141.210938"/>
     <use xlink:href="#DejaVuSans-4f" x="1172.998047"/>
     <use xlink:href="#DejaVuSans-70" x="1251.708984"/>
     <use xlink:href="#DejaVuSans-65" x="1315.185547"/>
     <use xlink:href="#DejaVuSans-6e" x="1376.708984"/>
     <use xlink:href="#DejaVuSans-53" x="1440.087891"/>
     <use xlink:href="#DejaVuSans-74" x="1503.564453"/>
     <use xlink:href="#DejaVuSans-72" x="1542.773438"/>
     <use xlink:href="#DejaVuSans-65" x="1581.636719"/>
     <use xlink:href="#DejaVuSans-65" x="1643.160156"/>
     <use xlink:href="#DejaVuSans-74" x="1704.683594"/>
     <use xlink:href="#DejaVuSans-4d" x="1743.892578"/>
     <use xlink:href="#DejaVuSans-61" x="1830.171875"/>
     <use xlink:href="#DejaVuSans-70" x="1891.451172"/>
     <use xlink:href="#DejaVuSans-20" x="1954.927734"/>
     <use xlink:href="#DejaVuSans-64" x="1986.714844"/>
     <use xlink:href="#DejaVuSans-61" x="2050.191406"/>
     <use xlink:href="#DejaVuSans-74" x="2111.470703"/>
     <use xlink:href="#DejaVuSans-61" x="2150.679688"/>
     <use xlink:href="#DejaVuSans-62" x="2211.958984"/>
     <use xlink:href="#DejaVuSans-61" x="2275.435547"/>
     <use xlink:href="#DejaVuSans-73" x="2336.714844"/>
     <use xlink:href="#DejaVuSans-65" x="2388.814453"/>
     <use xlink:href="#DejaVuSans-20" x="2450.337891"/>
     <use xlink:href="#DejaVuSans-69" x="2482.125"/>
     <use xlink:href="#DejaVuSans-6e" x="2509.908203"/>
     <use xlink:href="#DejaVuSans-20" x="2573.287109"/>
     <use xlink:href="#DejaVuSans-50" x="2605.074219"/>
     <use xlink:href="#DejaVuSans-6f" x="2661.751953"/>
     <use xlink:href="#DejaVuSans-6c" x="2722.933594"/>
     <use xlink:href="#DejaVuSans-61" x="2750.716797"/>
     <use xlink:href="#DejaVuSans-6e" x="2811.996094"/>
     <use xlink:href="#DejaVuSans-64" x="2875.375"/>
     <use xlink:href="#DejaVuSans-20" x="2938.851562"/>
     <use xlink:href="#DejaVuSans-66" x="2970.638672"/>
     <use xlink:href="#DejaVuSans-72" x="3005.84375"/>
     <use xlink:href="#DejaVuSans-6f" x="3044.707031"/>
     <use xlink:href="#DejaVuSans-6d" x="3105.888672"/>
     <use xlink:href="#DejaVuSans-20" x="3203.300781"/>
     <use xlink:href="#DejaVuSans-32" x="3235.087891"/>
     <use xlink:href="#DejaVuSans-30" x="3298.710938"/>
     <use xlink:href="#DejaVuSans-32" x="3362.333984"/>
     <use xlink:href="#DejaVuSans-32" x="3425.957031"/>
     <use xlink:href="#DejaVuSans-2d" x="3489.580078"/>
     <use xlink:href="#DejaVuSans-30" x="3525.664062"/>
     <use xlink:href="#DejaVuSans-31" x="3589.287109"/>
     <use xlink:href="#DejaVuSans-2d" x="3652.910156"/>
     <use xlink:href="#DejaVuSans-30" x="3688.994141"/>
     <use xlink:href="#DejaVuSans-31" x="3752.617188"/>
     <use xlink:href="#DejaVuSans-2c" x="3816.240234"/>
     <use xlink:href="#DejaVuSans-20" x="3848.027344"/>
     <use xlink:href="#DejaVuSans-64" x="3879.814453"/>
     <use xlink:href="#DejaVuSans-61" x="3943.291016"/>
     <use xlink:href="#DejaVuSans-79" x="4004.570312"/>
     <use xlink:href="#DejaVuSans-20" x="4063.75"/>
     <use xlink:href="#DejaVuSans-62" x="4095.537109"/>
     <use xlink:href="#DejaVuSans-79" x="4159.013672"/>
     <use xlink:href="#DejaVuSans-20" x="4218.193359"/>
     <use xlink:href="#DejaVuSans-64" x="4249.980469"/>
     <use xlink:href="#DejaVuSans-61" x="4313.457031"/>
     <use xlink:href="#DejaVuSans-79" x="4374.736328"/>
     <use xlink:href="#DejaVuSans-2e" x="4419.666016"/>
     <use xlink:href="#DejaVuSans-20" x="4451.453125"/>
     <use xlink:href="#DejaVuSans-41" x="4483.240234"/>
     <use xlink:href="#DejaVuSans-73" x="4551.648438"/>
     <use xlink:href="#DejaVuSans-20" x="4603.748047"/>
     <use xlink:href="#DejaVuSans-61" x="4635.535156"/>
     <use xlink:href="#DejaVuSans-74" x="4696.814453"/>
     <use xlink:href="#DejaVuSans-3a" x="4736.023438"/>
     <use xlink:href="#DejaVuSans-20" x="4769.714844"/>
     <use xlink:href="#DejaVuSans-32" x="4801.501953"/>
     <use xlink:href="#DejaVuSans-30" x="4865.125"/>
     <use xlink:href="#DejaVuSans-32" x="4928.748047"/>
     <use xlink:href="#DejaVuSans-32" x="4992.371094"/>
     <use xlink:href="#DejaVuSans-2d" x="5055.994141"/>
     <use xlink:href="#DejaVuSans-30" x="5092.078125"/>
     <use xlink:href="#DejaVuSans-34" x="5155.701172"/>
     <use xlink:href="#DejaVuSans-2d" x="5219.324219"/>
     <use xlink:href="#DejaVuSans-30" x="5255.408203"/>
     <use xlink:href="#DejaVuSans-33" x="5319.03125"/>
    </g>
   </g>
  </g>
 </g>
 <defs>
  <clipPath id="p6b21947f9c">
   <rect x="144" y="69.12" width="892.8" height="443.52"/>
  </clipPath>
 </defs>
</svg>
