<?xml version="1.0" encoding="utf-8" standalone="no"?>
<!DOCTYPE svg PUBLIC "-//W3C//DTD SVG 1.1//EN"
  "http://www.w3.org/Graphics/SVG/1.1/DTD/svg11.dtd">
<svg xmlns:xlink="http://www.w3.org/1999/xlink" width="1152pt" height="576pt" viewBox="0 0 1152 576" xmlns="http://www.w3.org/2000/svg" version="1.1">
 <metadata>
  <rdf:RDF xmlns:dc="http://purl.org/dc/elements/1.1/" xmlns:cc="http://creativecommons.org/ns#" xmlns:rdf="http://www.w3.org/1999/02/22-rdf-syntax-ns#">
   <cc:Work>
    <dc:type rdf:resource="http://purl.org/dc/dcmitype/StillImage"/>
    <dc:date>1980-01-01T00:00:00+00:00</dc:date>
    <dc:format>image/svg+xml</dc:format>
    <dc:creator>
     <cc:Agent>
      <dc:title>Matplotlib v3.9.1, https://matplotlib.org/</dc:title>
     </cc:Agent>
    </dc:creator>
   </cc:Work>
  </rdf:RDF>
 </metadata>
 <defs>
  <style type="text/css">*{stroke-linejoin: round; stroke-linecap: butt}</style>
 </defs>
 <g id="figure_1">
  <g id="patch_1">
   <path d="M 0 576 
L 1152 576 
L 1152 0 
L 0 0 
z
" style="fill: #ffffff"/>
  </g>
  <g id="axes_1">
   <g id="patch_2">
    <path d="M 144 512.64 
L 1036.8 512.64 
L 1036.8 69.12 
L 144 69.12 
z
" style="fill: #ffffff"/>
   </g>
   <g id="PathCollection_1">
    <path d="M 184.581818 494.716068 
C 185.17483 494.716068 185.743634 494.480462 186.162957 494.061139 
C 186.58228 493.641816 186.817886 493.073012 186.817886 492.48 
C 186.817886 491.886988 186.58228 491.318184 186.162957 490.898861 
C 185.743634 490.479538 185.17483 490.243932 184.581818 490.243932 
C 183.988806 490.243932 183.420002 490.479538 183.000679 490.898861 
C 182.581356 491.318184 182.34575 491.886988 182.34575 492.48 
C 182.34575 493.073012 182.581356 493.641816 183.000679 494.061139 
C 183.420002 494.480462 183.988806 494.716068 184.581818 494.716068 
z
" clip-path="url(#p1056ebec1b)" style="fill: #1f77b4; fill-opacity: 0.3; stroke: #1f77b4; stroke-opacity: 0.3"/>
    <path d="M 196.695794 495.159483 
C 197.633428 495.159483 198.532786 494.786957 199.195794 494.123949 
C 199.858802 493.460941 200.231328 492.561584 200.231328 491.623949 
C 200.231328 490.686314 199.858802 489.786957 199.195794 489.123949 
C 198.532786 488.460941 197.633428 488.088415 196.695794 488.088415 
C 195.758159 488.088415 194.858802 488.460941 194.195794 489.123949 
C 193.532786 489.786957 193.16026 490.686314 193.16026 491.623949 
C 193.16026 492.561584 193.532786 493.460941 194.195794 494.123949 
C 194.858802 494.786957 195.758159 495.159483 196.695794 495.159483 
z
" clip-path="url(#p1056ebec1b)" style="fill: #1f77b4; fill-opacity: 0.3; stroke: #1f77b4; stroke-opacity: 0.3"/>
    <path d="M 208.809769 495.179521 
C 210.4338 495.179521 211.991533 494.534286 213.139896 493.385923 
C 214.288259 492.23756 214.933494 490.679827 214.933494 489.055796 
C 214.933494 487.431765 214.288259 485.874032 213.139896 484.725669 
C 211.991533 483.577306 210.4338 482.932072 208.809769 482.932072 
C 207.185739 482.932072 205.628005 483.577306 204.479642 484.725669 
C 203.331279 485.874032 202.686045 487.431765 202.686045 489.055796 
C 202.686045 490.679827 203.331279 492.23756 204.479642 493.385923 
C 205.628005 494.534286 207.185739 495.179521 208.809769 495.179521 
z
" clip-path="url(#p1056ebec1b)" style="fill: #1f77b4; fill-opacity: 0.3; stroke: #1f77b4; stroke-opacity: 0.3"/>
    <path d="M 220.923745 491.280778 
C 221.650034 491.280778 222.346673 490.992221 222.860237 490.478657 
C 223.3738 489.965094 223.662358 489.268454 223.662358 488.542166 
C 223.662358 487.815877 223.3738 487.119238 222.860237 486.605674 
C 222.346673 486.09211 221.650034 485.803553 220.923745 485.803553 
C 220.197456 485.803553 219.500817 486.09211 218.987253 486.605674 
C 218.47369 487.119238 218.185132 487.815877 218.185132 488.542166 
C 218.185132 489.268454 218.47369 489.965094 218.987253 490.478657 
C 219.500817 490.992221 220.197456 491.280778 220.923745 491.280778 
z
" clip-path="url(#p1056ebec1b)" style="fill: #1f77b4; fill-opacity: 0.3; stroke: #1f77b4; stroke-opacity: 0.3"/>
    <path d="M 233.03772 491.64462 
C 234.223745 491.64462 235.361352 491.173408 236.199998 490.334762 
C 237.038644 489.496116 237.509856 488.358508 237.509856 487.172484 
C 237.509856 485.98646 237.038644 484.848852 236.199998 484.010206 
C 235.361352 483.171561 234.223745 482.700348 233.03772 482.700348 
C 231.851696 482.700348 230.714089 483.171561 229.875443 484.010206 
C 229.036797 484.848852 228.565585 485.98646 228.565585 487.172484 
C 228.565585 488.358508 229.036797 489.496116 229.875443 490.334762 
C 230.714089 491.173408 231.851696 491.64462 233.03772 491.64462 
z
" clip-path="url(#p1056ebec1b)" style="fill: #1f77b4; fill-opacity: 0.3; stroke: #1f77b4; stroke-opacity: 0.3"/>
    <path d="M 245.151696 490.460382 
C 246.477712 490.460382 247.749595 489.933551 248.68723 488.995916 
C 249.624865 488.058282 250.151696 486.786398 250.151696 485.460382 
C 250.151696 484.134367 249.624865 482.862483 248.68723 481.924848 
C 247.749595 480.987214 246.477712 480.460382 245.151696 480.460382 
C 243.825681 480.460382 242.553797 480.987214 241.616162 481.924848 
C 240.678528 482.862483 240.151696 484.134367 240.151696 485.460382 
C 240.151696 486.786398 240.678528 488.058282 241.616162 488.995916 
C 242.553797 489.933551 243.825681 490.460382 245.151696 490.460382 
z
" clip-path="url(#p1056ebec1b)" style="fill: #1f77b4; fill-opacity: 0.3; stroke: #1f77b4; stroke-opacity: 0.3"/>
    <path d="M 257.265672 487.35403 
C 257.858684 487.35403 258.427488 487.118424 258.84681 486.699101 
C 259.266133 486.279778 259.50174 485.710974 259.50174 485.117962 
C 259.50174 484.52495 259.266133 483.956146 258.84681 483.536823 
C 258.427488 483.1175 257.858684 482.881894 257.265672 482.881894 
C 256.672659 482.881894 256.103856 483.1175 255.684533 483.536823 
C 255.26521 483.956146 255.029604 484.52495 255.029604 485.117962 
C 255.029604 485.710974 255.26521 486.279778 255.684533 486.699101 
C 256.103856 487.118424 256.672659 487.35403 257.265672 487.35403 
z
" clip-path="url(#p1056ebec1b)" style="fill: #1f77b4; fill-opacity: 0.3; stroke: #1f77b4; stroke-opacity: 0.3"/>
    <path d="M 269.379647 488.220416 
C 270.565672 488.220416 271.703279 487.749204 272.541925 486.910558 
C 273.380571 486.071912 273.851783 484.934305 273.851783 483.74828 
C 273.851783 482.562256 273.380571 481.424648 272.541925 480.586003 
C 271.703279 479.747357 270.565672 479.276144 269.379647 479.276144 
C 268.193623 479.276144 267.056015 479.747357 266.21737 480.586003 
C 265.378724 481.424648 264.907511 482.562256 264.907511 483.74828 
C 264.907511 484.934305 265.378724 486.071912 266.21737 486.910558 
C 267.056015 487.749204 268.193623 488.220416 269.379647 488.220416 
z
" clip-path="url(#p1056ebec1b)" style="fill: #1f77b4; fill-opacity: 0.3; stroke: #1f77b4; stroke-opacity: 0.3"/>
    <path d="M 281.493623 485.973262 
C 282.219911 485.973262 282.916551 485.684705 283.430114 485.171141 
C 283.943678 484.657578 284.232236 483.960938 284.232236 483.23465 
C 284.232236 482.508361 283.943678 481.811722 283.430114 481.298158 
C 282.916551 480.784594 282.219911 480.496037 281.493623 480.496037 
C 280.767334 480.496037 280.070695 480.784594 279.557131 481.298158 
C 279.043568 481.811722 278.75501 482.508361 278.75501 483.23465 
C 278.75501 483.960938 279.043568 484.657578 279.557131 485.171141 
C 280.070695 485.684705 280.767334 485.973262 281.493623 485.973262 
z
" clip-path="url(#p1056ebec1b)" style="fill: #1f77b4; fill-opacity: 0.3; stroke: #1f77b4; stroke-opacity: 0.3"/>
    <path d="M 293.607598 485.712087 
C 294.446244 485.712087 295.250654 485.378889 295.843666 484.785877 
C 296.436679 484.192865 296.769876 483.388455 296.769876 482.549809 
C 296.769876 481.711163 296.436679 480.906753 295.843666 480.313741 
C 295.250654 479.720729 294.446244 479.387531 293.607598 479.387531 
C 292.768953 479.387531 291.964543 479.720729 291.37153 480.313741 
C 290.778518 480.906753 290.445321 481.711163 290.445321 482.549809 
C 290.445321 483.388455 290.778518 484.192865 291.37153 484.785877 
C 291.964543 485.378889 292.768953 485.712087 293.607598 485.712087 
z
" clip-path="url(#p1056ebec1b)" style="fill: #1f77b4; fill-opacity: 0.3; stroke: #1f77b4; stroke-opacity: 0.3"/>
    <path d="M 305.721574 484.443457 
C 306.314586 484.443457 306.88339 484.20785 307.302713 483.788527 
C 307.722036 483.369204 307.957642 482.800401 307.957642 482.207389 
C 307.957642 481.614376 307.722036 481.045573 307.302713 480.62625 
C 306.88339 480.206927 306.314586 479.971321 305.721574 479.971321 
C 305.128562 479.971321 304.559758 480.206927 304.140435 480.62625 
C 303.721112 481.045573 303.485506 481.614376 303.485506 482.207389 
C 303.485506 482.800401 303.721112 483.369204 304.140435 483.788527 
C 304.559758 484.20785 305.128562 484.443457 305.721574 484.443457 
z
" clip-path="url(#p1056ebec1b)" style="fill: #1f77b4; fill-opacity: 0.3; stroke: #1f77b4; stroke-opacity: 0.3"/>
    <path d="M 317.83555 484.886871 
C 318.773184 484.886871 319.672542 484.514345 320.33555 483.851338 
C 320.998557 483.18833 321.371083 482.288972 321.371083 481.351338 
C 321.371083 480.413703 320.998557 479.514345 320.33555 478.851338 
C 319.672542 478.18833 318.773184 477.815804 317.83555 477.815804 
C 316.897915 477.815804 315.998557 478.18833 315.33555 478.851338 
C 314.672542 479.514345 314.300016 480.413703 314.300016 481.351338 
C 314.300016 482.288972 314.672542 483.18833 315.33555 483.851338 
C 315.998557 484.514345 316.897915 484.886871 317.83555 484.886871 
z
" clip-path="url(#p1056ebec1b)" style="fill: #1f77b4; fill-opacity: 0.3; stroke: #1f77b4; stroke-opacity: 0.3"/>
    <path d="M 329.949525 483.828774 
C 330.788171 483.828774 331.592581 483.495577 332.185593 482.902565 
C 332.778605 482.309553 333.111803 481.505143 333.111803 480.666497 
C 333.111803 479.827851 332.778605 479.023441 332.185593 478.430429 
C 331.592581 477.837417 330.788171 477.504219 329.949525 477.504219 
C 329.110879 477.504219 328.306469 477.837417 327.713457 478.430429 
C 327.120445 479.023441 326.787247 479.827851 326.787247 480.666497 
C 326.787247 481.505143 327.120445 482.309553 327.713457 482.902565 
C 328.306469 483.495577 329.110879 483.828774 329.949525 483.828774 
z
" clip-path="url(#p1056ebec1b)" style="fill: #1f77b4; fill-opacity: 0.3; stroke: #1f77b4; stroke-opacity: 0.3"/>
    <path d="M 342.063501 483.34598 
C 343.001135 483.34598 343.900493 482.973454 344.563501 482.310446 
C 345.226508 481.647438 345.599035 480.74808 345.599035 479.810446 
C 345.599035 478.872811 345.226508 477.973454 344.563501 477.310446 
C 343.900493 476.647438 343.001135 476.274912 342.063501 476.274912 
C 341.125866 476.274912 340.226508 476.647438 339.563501 477.310446 
C 338.900493 477.973454 338.527967 478.872811 338.527967 479.810446 
C 338.527967 480.74808 338.900493 481.647438 339.563501 482.310446 
C 340.226508 482.973454 341.125866 483.34598 342.063501 483.34598 
z
" clip-path="url(#p1056ebec1b)" style="fill: #1f77b4; fill-opacity: 0.3; stroke: #1f77b4; stroke-opacity: 0.3"/>
    <path d="M 354.177476 482.489929 
C 355.115111 482.489929 356.014469 482.117403 356.677476 481.454395 
C 357.340484 480.791387 357.71301 479.892029 357.71301 478.954395 
C 357.71301 478.01676 357.340484 477.117403 356.677476 476.454395 
C 356.014469 475.791387 355.115111 475.418861 354.177476 475.418861 
C 353.239842 475.418861 352.340484 475.791387 351.677476 476.454395 
C 351.014469 477.117403 350.641942 478.01676 350.641942 478.954395 
C 350.641942 479.892029 351.014469 480.791387 351.677476 481.454395 
C 352.340484 482.117403 353.239842 482.489929 354.177476 482.489929 
z
" clip-path="url(#p1056ebec1b)" style="fill: #1f77b4; fill-opacity: 0.3; stroke: #1f77b4; stroke-opacity: 0.3"/>
    <path d="M 366.291452 481.800117 
C 367.318579 481.800117 368.303776 481.392035 369.030065 480.665747 
C 369.756353 479.939458 370.164435 478.954261 370.164435 477.927134 
C 370.164435 476.900007 369.756353 475.91481 369.030065 475.188521 
C 368.303776 474.462232 367.318579 474.05415 366.291452 474.05415 
C 365.264325 474.05415 364.279128 474.462232 363.552839 475.188521 
C 362.82655 475.91481 362.418468 476.900007 362.418468 477.927134 
C 362.418468 478.954261 362.82655 479.939458 363.552839 480.665747 
C 364.279128 481.392035 365.264325 481.800117 366.291452 481.800117 
z
" clip-path="url(#p1056ebec1b)" style="fill: #1f77b4; fill-opacity: 0.3; stroke: #1f77b4; stroke-opacity: 0.3"/>
    <path d="M 378.405427 480.606617 
C 379.343062 480.606617 380.24242 480.234091 380.905427 479.571083 
C 381.568435 478.908075 381.940961 478.008717 381.940961 477.071083 
C 381.940961 476.133448 381.568435 475.234091 380.905427 474.571083 
C 380.24242 473.908075 379.343062 473.535549 378.405427 473.535549 
C 377.467793 473.535549 376.568435 473.908075 375.905427 474.571083 
C 375.24242 475.234091 374.869894 476.133448 374.869894 477.071083 
C 374.869894 478.008717 375.24242 478.908075 375.905427 479.571083 
C 376.568435 480.234091 377.467793 480.606617 378.405427 480.606617 
z
" clip-path="url(#p1056ebec1b)" style="fill: #1f77b4; fill-opacity: 0.3; stroke: #1f77b4; stroke-opacity: 0.3"/>
    <path d="M 390.519403 479.916805 
C 391.54653 479.916805 392.531727 479.508723 393.258016 478.782434 
C 393.984304 478.056146 394.392386 477.070949 394.392386 476.043822 
C 394.392386 475.016694 393.984304 474.031497 393.258016 473.305209 
C 392.531727 472.57892 391.54653 472.170838 390.519403 472.170838 
C 389.492276 472.170838 388.507079 472.57892 387.78079 473.305209 
C 387.054502 474.031497 386.64642 475.016694 386.64642 476.043822 
C 386.64642 477.070949 387.054502 478.056146 387.78079 478.782434 
C 388.507079 479.508723 389.492276 479.916805 390.519403 479.916805 
z
" clip-path="url(#p1056ebec1b)" style="fill: #1f77b4; fill-opacity: 0.3; stroke: #1f77b4; stroke-opacity: 0.3"/>
    <path d="M 402.633379 479.02865 
C 403.742803 479.02865 404.806937 478.587872 405.591418 477.80339 
C 406.3759 477.018909 406.816679 475.954774 406.816679 474.84535 
C 406.816679 473.735926 406.3759 472.671792 405.591418 471.88731 
C 404.806937 471.102829 403.742803 470.66205 402.633379 470.66205 
C 401.523954 470.66205 400.45982 471.102829 399.675339 471.88731 
C 398.890857 472.671792 398.450078 473.735926 398.450078 474.84535 
C 398.450078 475.954774 398.890857 477.018909 399.675339 477.80339 
C 400.45982 478.587872 401.523954 479.02865 402.633379 479.02865 
z
" clip-path="url(#p1056ebec1b)" style="fill: #1f77b4; fill-opacity: 0.3; stroke: #1f77b4; stroke-opacity: 0.3"/>
    <path d="M 414.747354 477.830179 
C 415.856778 477.830179 416.920913 477.3894 417.705394 476.604919 
C 418.489875 475.820438 418.930654 474.756303 418.930654 473.646879 
C 418.930654 472.537455 418.489875 471.47332 417.705394 470.688839 
C 416.920913 469.904358 415.856778 469.463579 414.747354 469.463579 
C 413.63793 469.463579 412.573796 469.904358 411.789314 470.688839 
C 411.004833 471.47332 410.564054 472.537455 410.564054 473.646879 
C 410.564054 474.756303 411.004833 475.820438 411.789314 476.604919 
C 412.573796 477.3894 413.63793 477.830179 414.747354 477.830179 
z
" clip-path="url(#p1056ebec1b)" style="fill: #1f77b4; fill-opacity: 0.3; stroke: #1f77b4; stroke-opacity: 0.3"/>
    <path d="M 426.86133 476.492601 
C 427.888457 476.492601 428.873654 476.084519 429.599943 475.358231 
C 430.326231 474.631942 430.734313 473.646745 430.734313 472.619618 
C 430.734313 471.592491 430.326231 470.607294 429.599943 469.881005 
C 428.873654 469.154716 427.888457 468.746634 426.86133 468.746634 
C 425.834203 468.746634 424.849006 469.154716 424.122717 469.881005 
C 423.396428 470.607294 422.988346 471.592491 422.988346 472.619618 
C 422.988346 473.646745 423.396428 474.631942 424.122717 475.358231 
C 424.849006 476.084519 425.834203 476.492601 426.86133 476.492601 
z
" clip-path="url(#p1056ebec1b)" style="fill: #1f77b4; fill-opacity: 0.3; stroke: #1f77b4; stroke-opacity: 0.3"/>
    <path d="M 438.975305 475.98035 
C 440.366042 475.98035 441.700005 475.427804 442.683405 474.444405 
C 443.666804 473.461006 444.21935 472.127043 444.21935 470.736306 
C 444.21935 469.345569 443.666804 468.011606 442.683405 467.028206 
C 441.700005 466.044807 440.366042 465.492261 438.975305 465.492261 
C 437.584569 465.492261 436.250605 466.044807 435.267206 467.028206 
C 434.283807 468.011606 433.731261 469.345569 433.731261 470.736306 
C 433.731261 472.127043 434.283807 473.461006 435.267206 474.444405 
C 436.250605 475.427804 437.584569 475.98035 438.975305 475.98035 
z
" clip-path="url(#p1056ebec1b)" style="fill: #1f77b4; fill-opacity: 0.3; stroke: #1f77b4; stroke-opacity: 0.3"/>
    <path d="M 451.089281 474.321498 
C 452.766573 474.321498 454.375393 473.655103 455.561417 472.469079 
C 456.747441 471.283054 457.413836 469.674234 457.413836 467.996943 
C 457.413836 466.319651 456.747441 464.710831 455.561417 463.524807 
C 454.375393 462.338782 452.766573 461.672387 451.089281 461.672387 
C 449.411989 461.672387 447.803169 462.338782 446.617145 463.524807 
C 445.431121 464.710831 444.764726 466.319651 444.764726 467.996943 
C 444.764726 469.674234 445.431121 471.283054 446.617145 472.469079 
C 447.803169 473.655103 449.411989 474.321498 451.089281 474.321498 
z
" clip-path="url(#p1056ebec1b)" style="fill: #1f77b4; fill-opacity: 0.3; stroke: #1f77b4; stroke-opacity: 0.3"/>
    <path d="M 463.203256 471.633865 
C 465.257511 471.633865 467.227905 470.817701 468.680482 469.365124 
C 470.133059 467.912546 470.949223 465.942152 470.949223 463.887898 
C 470.949223 461.833644 470.133059 459.86325 468.680482 458.410673 
C 467.227905 456.958095 465.257511 456.141931 463.203256 456.141931 
C 461.149002 456.141931 459.178608 456.958095 457.726031 458.410673 
C 456.273454 459.86325 455.45729 461.833644 455.45729 463.887898 
C 455.45729 465.942152 456.273454 467.912546 457.726031 469.365124 
C 459.178608 470.817701 461.149002 471.633865 463.203256 471.633865 
z
" clip-path="url(#p1056ebec1b)" style="fill: #1f77b4; fill-opacity: 0.3; stroke: #1f77b4; stroke-opacity: 0.3"/>
    <path d="M 475.317232 466.872727 
C 476.426656 466.872727 477.490791 466.431948 478.275272 465.647467 
C 479.059753 464.862985 479.500532 463.798851 479.500532 462.689427 
C 479.500532 461.580003 479.059753 460.515868 478.275272 459.731387 
C 477.490791 458.946906 476.426656 458.506127 475.317232 458.506127 
C 474.207808 458.506127 473.143673 458.946906 472.359192 459.731387 
C 471.574711 460.515868 471.133932 461.580003 471.133932 462.689427 
C 471.133932 463.798851 471.574711 464.862985 472.359192 465.647467 
C 473.143673 466.431948 474.207808 466.872727 475.317232 466.872727 
z
" clip-path="url(#p1056ebec1b)" style="fill: #1f77b4; fill-opacity: 0.3; stroke: #1f77b4; stroke-opacity: 0.3"/>
    <path d="M 487.431208 466.164571 
C 488.943098 466.164571 490.393269 465.563891 491.462336 464.494823 
C 492.531404 463.425755 493.132085 461.975585 493.132085 460.463694 
C 493.132085 458.951804 492.531404 457.501633 491.462336 456.432565 
C 490.393269 455.363498 488.943098 454.762817 487.431208 454.762817 
C 485.919317 454.762817 484.469147 455.363498 483.400079 456.432565 
C 482.331011 457.501633 481.73033 458.951804 481.73033 460.463694 
C 481.73033 461.975585 482.331011 463.425755 483.400079 464.494823 
C 484.469147 465.563891 485.919317 466.164571 487.431208 466.164571 
z
" clip-path="url(#p1056ebec1b)" style="fill: #1f77b4; fill-opacity: 0.3; stroke: #1f77b4; stroke-opacity: 0.3"/>
    <path d="M 499.545183 463.938839 
C 501.057073 463.938839 502.507244 463.338159 503.576312 462.269091 
C 504.64538 461.200023 505.24606 459.749852 505.24606 458.237962 
C 505.24606 456.726071 504.64538 455.275901 503.576312 454.206833 
C 502.507244 453.137765 501.057073 452.537085 499.545183 452.537085 
C 498.033293 452.537085 496.583122 453.137765 495.514054 454.206833 
C 494.444986 455.275901 493.844306 456.726071 493.844306 458.237962 
C 493.844306 459.749852 494.444986 461.200023 495.514054 462.269091 
C 496.583122 463.338159 498.033293 463.938839 499.545183 463.938839 
z
" clip-path="url(#p1056ebec1b)" style="fill: #1f77b4; fill-opacity: 0.3; stroke: #1f77b4; stroke-opacity: 0.3"/>
    <path d="M 511.659159 461.670977 
C 514.067986 461.670977 516.378477 460.71394 518.081775 459.010642 
C 519.785073 457.307344 520.74211 454.996852 520.74211 452.588025 
C 520.74211 450.179199 519.785073 447.868707 518.081775 446.165409 
C 516.378477 444.462111 514.067986 443.505074 511.659159 443.505074 
C 509.250332 443.505074 506.93984 444.462111 505.236542 446.165409 
C 503.533245 447.868707 502.576208 450.179199 502.576208 452.588025 
C 502.576208 454.996852 503.533245 457.307344 505.236542 459.010642 
C 506.93984 460.71394 509.250332 461.670977 511.659159 461.670977 
z
" clip-path="url(#p1056ebec1b)" style="fill: #1f77b4; fill-opacity: 0.3; stroke: #1f77b4; stroke-opacity: 0.3"/>
    <path d="M 523.773134 456.083918 
C 526.107826 456.083918 528.347208 455.156335 529.998084 453.505459 
C 531.64896 451.854583 532.576543 449.615201 532.576543 447.28051 
C 532.576543 444.945818 531.64896 442.706436 529.998084 441.05556 
C 528.347208 439.404684 526.107826 438.477101 523.773134 438.477101 
C 521.438443 438.477101 519.199061 439.404684 517.548185 441.05556 
C 515.897309 442.706436 514.969726 444.945818 514.969726 447.28051 
C 514.969726 449.615201 515.897309 451.854583 517.548185 453.505459 
C 519.199061 455.156335 521.438443 456.083918 523.773134 456.083918 
z
" clip-path="url(#p1056ebec1b)" style="fill: #1f77b4; fill-opacity: 0.3; stroke: #1f77b4; stroke-opacity: 0.3"/>
    <path d="M 535.88711 450.713524 
C 538.295937 450.713524 540.606428 449.756487 542.309726 448.05319 
C 544.013024 446.349892 544.970061 444.0394 544.970061 441.630573 
C 544.970061 439.221746 544.013024 436.911255 542.309726 435.207957 
C 540.606428 433.504659 538.295937 432.547622 535.88711 432.547622 
C 533.478283 432.547622 531.167791 433.504659 529.464494 435.207957 
C 527.761196 436.911255 526.804159 439.221746 526.804159 441.630573 
C 526.804159 444.0394 527.761196 446.349892 529.464494 448.05319 
C 531.167791 449.756487 533.478283 450.713524 535.88711 450.713524 
z
" clip-path="url(#p1056ebec1b)" style="fill: #1f77b4; fill-opacity: 0.3; stroke: #1f77b4; stroke-opacity: 0.3"/>
    <path d="M 548.001085 444.99236 
C 550.481833 444.99236 552.86131 444.006748 554.615464 442.252595 
C 556.369617 440.498441 557.355229 438.118964 557.355229 435.638217 
C 557.355229 433.157469 556.369617 430.777992 554.615464 429.023838 
C 552.86131 427.269685 550.481833 426.284073 548.001085 426.284073 
C 545.520338 426.284073 543.140861 427.269685 541.386707 429.023838 
C 539.632554 430.777992 538.646942 433.157469 538.646942 435.638217 
C 538.646942 438.118964 539.632554 440.498441 541.386707 442.252595 
C 543.140861 444.006748 545.520338 444.99236 548.001085 444.99236 
z
" clip-path="url(#p1056ebec1b)" style="fill: #1f77b4; fill-opacity: 0.3; stroke: #1f77b4; stroke-opacity: 0.3"/>
    <path d="M 560.115061 439.277247 
C 561.942847 439.277247 563.696018 438.55106 564.988458 437.25862 
C 566.280898 435.96618 567.007085 434.213009 567.007085 432.385223 
C 567.007085 430.557437 566.280898 428.804266 564.988458 427.511826 
C 563.696018 426.219386 561.942847 425.493199 560.115061 425.493199 
C 558.287275 425.493199 556.534104 426.219386 555.241664 427.511826 
C 553.949224 428.804266 553.223037 430.557437 553.223037 432.385223 
C 553.223037 434.213009 553.949224 435.96618 555.241664 437.25862 
C 556.534104 438.55106 558.287275 439.277247 560.115061 439.277247 
z
" clip-path="url(#p1056ebec1b)" style="fill: #1f77b4; fill-opacity: 0.3; stroke: #1f77b4; stroke-opacity: 0.3"/>
    <path d="M 572.229037 435.487677 
C 573.415061 435.487677 574.552668 435.016465 575.391314 434.177819 
C 576.22996 433.339173 576.701173 432.201566 576.701173 431.015541 
C 576.701173 429.829517 576.22996 428.69191 575.391314 427.853264 
C 574.552668 427.014618 573.415061 426.543405 572.229037 426.543405 
C 571.043012 426.543405 569.905405 427.014618 569.066759 427.853264 
C 568.228113 428.69191 567.756901 429.829517 567.756901 431.015541 
C 567.756901 432.201566 568.228113 433.339173 569.066759 434.177819 
C 569.905405 435.016465 571.043012 435.487677 572.229037 435.487677 
z
" clip-path="url(#p1056ebec1b)" style="fill: #1f77b4; fill-opacity: 0.3; stroke: #1f77b4; stroke-opacity: 0.3"/>
    <path d="M 584.343012 434.571113 
C 585.967043 434.571113 587.524776 433.925879 588.673139 432.777516 
C 589.821502 431.629152 590.466737 430.071419 590.466737 428.447389 
C 590.466737 426.823358 589.821502 425.265625 588.673139 424.117262 
C 587.524776 422.968898 585.967043 422.323664 584.343012 422.323664 
C 582.718982 422.323664 581.161248 422.968898 580.012885 424.117262 
C 578.864522 425.265625 578.219288 426.823358 578.219288 428.447389 
C 578.219288 430.071419 578.864522 431.629152 580.012885 432.777516 
C 581.161248 433.925879 582.718982 434.571113 584.343012 434.571113 
z
" clip-path="url(#p1056ebec1b)" style="fill: #1f77b4; fill-opacity: 0.3; stroke: #1f77b4; stroke-opacity: 0.3"/>
    <path d="M 596.456988 430.625744 
C 599.622806 430.625744 602.659387 429.367951 604.897959 427.129379 
C 607.136531 424.890807 608.394324 421.854226 608.394324 418.688408 
C 608.394324 415.522589 607.136531 412.486008 604.897959 410.247436 
C 602.659387 408.008864 599.622806 406.751071 596.456988 406.751071 
C 593.291169 406.751071 590.254588 408.008864 588.016016 410.247436 
C 585.777444 412.486008 584.519651 415.522589 584.519651 418.688408 
C 584.519651 421.854226 585.777444 424.890807 588.016016 427.129379 
C 590.254588 429.367951 593.291169 430.625744 596.456988 430.625744 
z
" clip-path="url(#p1056ebec1b)" style="fill: #1f77b4; fill-opacity: 0.3; stroke: #1f77b4; stroke-opacity: 0.3"/>
    <path d="M 608.570963 416.534071 
C 612.948823 416.534071 617.147967 414.794729 620.243581 411.699114 
C 623.339195 408.6035 625.078537 404.404357 625.078537 400.026497 
C 625.078537 395.648637 623.339195 391.449494 620.243581 388.353879 
C 617.147967 385.258265 612.948823 383.518923 608.570963 383.518923 
C 604.193104 383.518923 599.99396 385.258265 596.898346 388.353879 
C 593.802731 391.449494 592.063389 395.648637 592.063389 400.026497 
C 592.063389 404.404357 593.802731 408.6035 596.898346 411.699114 
C 599.99396 414.794729 604.193104 416.534071 608.570963 416.534071 
z
" clip-path="url(#p1056ebec1b)" style="fill: #1f77b4; fill-opacity: 0.3; stroke: #1f77b4; stroke-opacity: 0.3"/>
    <path d="M 620.684939 402.81936 
C 623.559672 402.81936 626.317051 401.677216 628.349794 399.644473 
C 630.382537 397.611729 631.524681 394.854351 631.524681 391.979618 
C 631.524681 389.104885 630.382537 386.347506 628.349794 384.314763 
C 626.317051 382.28202 623.559672 381.139876 620.684939 381.139876 
C 617.810206 381.139876 615.052827 382.28202 613.020084 384.314763 
C 610.987341 386.347506 609.845197 389.104885 609.845197 391.979618 
C 609.845197 394.854351 610.987341 397.611729 613.020084 399.644473 
C 615.052827 401.677216 617.810206 402.81936 620.684939 402.81936 
z
" clip-path="url(#p1056ebec1b)" style="fill: #1f77b4; fill-opacity: 0.3; stroke: #1f77b4; stroke-opacity: 0.3"/>
    <path d="M 632.798915 393.450714 
C 636.231221 393.450714 639.52341 392.087045 641.950417 389.660038 
C 644.377424 387.233031 645.741094 383.940841 645.741094 380.508535 
C 645.741094 377.076229 644.377424 373.784039 641.950417 371.357032 
C 639.52341 368.930026 636.231221 367.566356 632.798915 367.566356 
C 629.366608 367.566356 626.074419 368.930026 623.647412 371.357032 
C 621.220405 373.784039 619.856735 377.076229 619.856735 380.508535 
C 619.856735 383.940841 621.220405 387.233031 623.647412 389.660038 
C 626.074419 392.087045 629.366608 393.450714 632.798915 393.450714 
z
" clip-path="url(#p1056ebec1b)" style="fill: #1f77b4; fill-opacity: 0.3; stroke: #1f77b4; stroke-opacity: 0.3"/>
    <path d="M 644.91289 384.134956 
C 646.691927 384.134956 648.398338 383.428137 649.656307 382.170168 
C 650.914275 380.912199 651.621094 379.205788 651.621094 377.426752 
C 651.621094 375.647715 650.914275 373.941304 649.656307 372.683335 
C 648.398338 371.425366 646.691927 370.718548 644.91289 370.718548 
C 643.133854 370.718548 641.427442 371.425366 640.169474 372.683335 
C 638.911505 373.941304 638.204686 375.647715 638.204686 377.426752 
C 638.204686 379.205788 638.911505 380.912199 640.169474 382.170168 
C 641.427442 383.428137 643.133854 384.134956 644.91289 384.134956 
z
" clip-path="url(#p1056ebec1b)" style="fill: #1f77b4; fill-opacity: 0.3; stroke: #1f77b4; stroke-opacity: 0.3"/>
    <path d="M 657.026866 380.922644 
C 659.361557 380.922644 661.600939 379.995061 663.251815 378.344185 
C 664.902691 376.693309 665.830274 374.453927 665.830274 372.119236 
C 665.830274 369.784544 664.902691 367.545162 663.251815 365.894286 
C 661.600939 364.24341 659.361557 363.315827 657.026866 363.315827 
C 654.692174 363.315827 652.452792 364.24341 650.801916 365.894286 
C 649.15104 367.545162 648.223457 369.784544 648.223457 372.119236 
C 648.223457 374.453927 649.15104 376.693309 650.801916 378.344185 
C 652.452792 379.995061 654.692174 380.922644 657.026866 380.922644 
z
" clip-path="url(#p1056ebec1b)" style="fill: #1f77b4; fill-opacity: 0.3; stroke: #1f77b4; stroke-opacity: 0.3"/>
    <path d="M 669.140841 375.021379 
C 671.953745 375.021379 674.651818 373.9038 676.640841 371.914777 
C 678.629864 369.925754 679.747443 367.227681 679.747443 364.414777 
C 679.747443 361.601873 678.629864 358.9038 676.640841 356.914777 
C 674.651818 354.925754 671.953745 353.808175 669.140841 353.808175 
C 666.327938 353.808175 663.629864 354.925754 661.640841 356.914777 
C 659.651818 358.9038 658.53424 361.601873 658.53424 364.414777 
C 658.53424 367.227681 659.651818 369.925754 661.640841 371.914777 
C 663.629864 373.9038 666.327938 375.021379 669.140841 375.021379 
z
" clip-path="url(#p1056ebec1b)" style="fill: #1f77b4; fill-opacity: 0.3; stroke: #1f77b4; stroke-opacity: 0.3"/>
    <path d="M 681.254817 367.31692 
C 684.06772 367.31692 686.765794 366.199342 688.754817 364.210318 
C 690.74384 362.221295 691.861419 359.523222 691.861419 356.710318 
C 691.861419 353.897415 690.74384 351.199342 688.754817 349.210318 
C 686.765794 347.221295 684.06772 346.103717 681.254817 346.103717 
C 678.441913 346.103717 675.74384 347.221295 673.754817 349.210318 
C 671.765794 351.199342 670.648215 353.897415 670.648215 356.710318 
C 670.648215 359.523222 671.765794 362.221295 673.754817 364.210318 
C 675.74384 366.199342 678.441913 367.31692 681.254817 367.31692 
z
" clip-path="url(#p1056ebec1b)" style="fill: #1f77b4; fill-opacity: 0.3; stroke: #1f77b4; stroke-opacity: 0.3"/>
    <path d="M 693.368792 358.888674 
C 696.534611 358.888674 699.571192 357.630881 701.809764 355.392309 
C 704.048336 353.153737 705.306129 350.117156 705.306129 346.951338 
C 705.306129 343.785519 704.048336 340.748938 701.809764 338.510366 
C 699.571192 336.271794 696.534611 335.014001 693.368792 335.014001 
C 690.202974 335.014001 687.166393 336.271794 684.927821 338.510366 
C 682.689249 340.748938 681.431456 343.785519 681.431456 346.951338 
C 681.431456 350.117156 682.689249 353.153737 684.927821 355.392309 
C 687.166393 357.630881 690.202974 358.888674 693.368792 358.888674 
z
" clip-path="url(#p1056ebec1b)" style="fill: #1f77b4; fill-opacity: 0.3; stroke: #1f77b4; stroke-opacity: 0.3"/>
    <path d="M 705.482768 347.561183 
C 709.186128 347.561183 712.738306 346.089822 715.356977 343.471152 
C 717.975648 340.852481 719.447008 337.300302 719.447008 333.596943 
C 719.447008 329.893583 717.975648 326.341405 715.356977 323.722734 
C 712.738306 321.104063 709.186128 319.632703 705.482768 319.632703 
C 701.779408 319.632703 698.22723 321.104063 695.608559 323.722734 
C 692.989888 326.341405 691.518528 329.893583 691.518528 333.596943 
C 691.518528 337.300302 692.989888 340.852481 695.608559 343.471152 
C 698.22723 346.089822 701.779408 347.561183 705.482768 347.561183 
z
" clip-path="url(#p1056ebec1b)" style="fill: #1f77b4; fill-opacity: 0.3; stroke: #1f77b4; stroke-opacity: 0.3"/>
    <path d="M 717.596744 335.43181 
C 720.898496 335.43181 724.065461 334.12001 726.400152 331.785319 
C 728.734843 329.450628 730.046643 326.283663 730.046643 322.981911 
C 730.046643 319.680159 728.734843 316.513194 726.400152 314.178502 
C 724.065461 311.843811 720.898496 310.532011 717.596744 310.532011 
C 714.294992 310.532011 711.128026 311.843811 708.793335 314.178502 
C 706.458644 316.513194 705.146844 319.680159 705.146844 322.981911 
C 705.146844 326.283663 706.458644 329.450628 708.793335 331.785319 
C 711.128026 334.12001 714.294992 335.43181 717.596744 335.43181 
z
" clip-path="url(#p1056ebec1b)" style="fill: #1f77b4; fill-opacity: 0.3; stroke: #1f77b4; stroke-opacity: 0.3"/>
    <path d="M 729.710719 326.184436 
C 730.968688 326.184436 732.175303 325.684639 733.064821 324.795121 
C 733.954339 323.905603 734.454136 322.698988 734.454136 321.441019 
C 734.454136 320.18305 733.954339 318.976435 733.064821 318.086917 
C 732.175303 317.197399 730.968688 316.697603 729.710719 316.697603 
C 728.45275 316.697603 727.246135 317.197399 726.356617 318.086917 
C 725.467099 318.976435 724.967303 320.18305 724.967303 321.441019 
C 724.967303 322.698988 725.467099 323.905603 726.356617 324.795121 
C 727.246135 325.684639 728.45275 326.184436 729.710719 326.184436 
z
" clip-path="url(#p1056ebec1b)" style="fill: #1f77b4; fill-opacity: 0.3; stroke: #1f77b4; stroke-opacity: 0.3"/>
    <path d="M 741.824695 324.863722 
C 743.277272 324.863722 744.670551 324.286607 745.697678 323.25948 
C 746.724805 322.232353 747.30192 320.839074 747.30192 319.386497 
C 747.30192 317.93392 746.724805 316.540641 745.697678 315.513513 
C 744.670551 314.486386 743.277272 313.909271 741.824695 313.909271 
C 740.372118 313.909271 738.978839 314.486386 737.951711 315.513513 
C 736.924584 316.540641 736.347469 317.93392 736.347469 319.386497 
C 736.347469 320.839074 736.924584 322.232353 737.951711 323.25948 
C 738.978839 324.286607 740.372118 324.863722 741.824695 324.863722 
z
" clip-path="url(#p1056ebec1b)" style="fill: #1f77b4; fill-opacity: 0.3; stroke: #1f77b4; stroke-opacity: 0.3"/>
    <path d="M 753.93867 317.891777 
C 758.173624 317.891777 762.235695 316.209212 765.23026 313.214647 
C 768.224825 310.220082 769.90739 306.158011 769.90739 301.923057 
C 769.90739 297.688103 768.224825 293.626032 765.23026 290.631468 
C 762.235695 287.636903 758.173624 285.954338 753.93867 285.954338 
C 749.703716 285.954338 745.641645 287.636903 742.64708 290.631468 
C 739.652516 293.626032 737.969951 297.688103 737.969951 301.923057 
C 737.969951 306.158011 739.652516 310.220082 742.64708 313.214647 
C 745.641645 316.209212 749.703716 317.891777 753.93867 317.891777 
z
" clip-path="url(#p1056ebec1b)" style="fill: #1f77b4; fill-opacity: 0.3; stroke: #1f77b4; stroke-opacity: 0.3"/>
    <path d="M 766.052646 302.285281 
C 769.826552 302.285281 773.446397 300.785892 776.114952 298.117338 
C 778.783506 295.448783 780.282895 291.828938 780.282895 288.055032 
C 780.282895 284.281126 778.783506 280.661281 776.114952 277.992726 
C 773.446397 275.324171 769.826552 273.824782 766.052646 273.824782 
C 762.27874 273.824782 758.658895 275.324171 755.99034 277.992726 
C 753.321785 280.661281 751.822396 284.281126 751.822396 288.055032 
C 751.822396 291.828938 753.321785 295.448783 755.99034 298.117338 
C 758.658895 300.785892 762.27874 302.285281 766.052646 302.285281 
z
" clip-path="url(#p1056ebec1b)" style="fill: #1f77b4; fill-opacity: 0.3; stroke: #1f77b4; stroke-opacity: 0.3"/>
    <path d="M 778.166621 290.847895 
C 781.041355 290.847895 783.798733 289.705751 785.831476 287.673008 
C 787.86422 285.640264 789.006363 282.882886 789.006363 280.008153 
C 789.006363 277.13342 787.86422 274.376041 785.831476 272.343298 
C 783.798733 270.310555 781.041355 269.168411 778.166621 269.168411 
C 775.291888 269.168411 772.53451 270.310555 770.501767 272.343298 
C 768.469023 274.376041 767.32688 277.13342 767.32688 280.008153 
C 767.32688 282.882886 768.469023 285.640264 770.501767 287.673008 
C 772.53451 289.705751 775.291888 290.847895 778.166621 290.847895 
z
" clip-path="url(#p1056ebec1b)" style="fill: #1f77b4; fill-opacity: 0.3; stroke: #1f77b4; stroke-opacity: 0.3"/>
    <path d="M 790.280597 278.790477 
C 794.452807 278.790477 798.454697 277.13284 801.404895 274.182642 
C 804.355093 271.232443 806.01273 267.230554 806.01273 263.058344 
C 806.01273 258.886134 804.355093 254.884244 801.404895 251.934046 
C 798.454697 248.983848 794.452807 247.326211 790.280597 247.326211 
C 786.108387 247.326211 782.106498 248.983848 779.156299 251.934046 
C 776.206101 254.884244 774.548464 258.886134 774.548464 263.058344 
C 774.548464 267.230554 776.206101 271.232443 779.156299 274.182642 
C 782.106498 277.13284 786.108387 278.790477 790.280597 278.790477 
z
" clip-path="url(#p1056ebec1b)" style="fill: #1f77b4; fill-opacity: 0.3; stroke: #1f77b4; stroke-opacity: 0.3"/>
    <path d="M 802.394573 261.094281 
C 806.732083 261.094281 810.892523 259.37097 813.959606 256.303887 
C 817.026689 253.236804 818.75 249.076364 818.75 244.738854 
C 818.75 240.401343 817.026689 236.240903 813.959606 233.17382 
C 810.892523 230.106737 806.732083 228.383426 802.394573 228.383426 
C 798.057063 228.383426 793.896622 230.106737 790.829539 233.17382 
C 787.762456 236.240903 786.039145 240.401343 786.039145 244.738854 
C 786.039145 249.076364 787.762456 253.236804 790.829539 256.303887 
C 793.896622 259.37097 798.057063 261.094281 802.394573 261.094281 
z
" clip-path="url(#p1056ebec1b)" style="fill: #1f77b4; fill-opacity: 0.3; stroke: #1f77b4; stroke-opacity: 0.3"/>
    <path d="M 814.508548 248.311568 
C 816.727396 248.311568 818.855665 247.430011 820.424628 245.861048 
C 821.993591 244.292085 822.875148 242.163816 822.875148 239.944968 
C 822.875148 237.72612 821.993591 235.597851 820.424628 234.028888 
C 818.855665 232.459926 816.727396 231.578368 814.508548 231.578368 
C 812.2897 231.578368 810.161431 232.459926 808.592468 234.028888 
C 807.023506 235.597851 806.141948 237.72612 806.141948 239.944968 
C 806.141948 242.163816 807.023506 244.292085 808.592468 245.861048 
C 810.161431 247.430011 812.2897 248.311568 814.508548 248.311568 
z
" clip-path="url(#p1056ebec1b)" style="fill: #1f77b4; fill-opacity: 0.3; stroke: #1f77b4; stroke-opacity: 0.3"/>
    <path d="M 826.622524 243.367671 
C 828.075101 243.367671 829.46838 242.790556 830.495507 241.763429 
C 831.522634 240.736302 832.099749 239.343023 832.099749 237.890446 
C 832.099749 236.437869 831.522634 235.04459 830.495507 234.017463 
C 829.46838 232.990335 828.075101 232.41322 826.622524 232.41322 
C 825.169947 232.41322 823.776668 232.990335 822.74954 234.017463 
C 821.722413 235.04459 821.145298 236.437869 821.145298 237.890446 
C 821.145298 239.343023 821.722413 240.736302 822.74954 241.763429 
C 823.776668 242.790556 825.169947 243.367671 826.622524 243.367671 
z
" clip-path="url(#p1056ebec1b)" style="fill: #1f77b4; fill-opacity: 0.3; stroke: #1f77b4; stroke-opacity: 0.3"/>
    <path d="M 838.736499 236.302603 
C 842.992162 236.302603 847.074097 234.61181 850.083305 231.602602 
C 853.092513 228.593394 854.783306 224.511459 854.783306 220.255796 
C 854.783306 216.000133 853.092513 211.918199 850.083305 208.90899 
C 847.074097 205.899782 842.992162 204.20899 838.736499 204.20899 
C 834.480836 204.20899 830.398902 205.899782 827.389694 208.90899 
C 824.380486 211.918199 822.689693 216.000133 822.689693 220.255796 
C 822.689693 224.511459 824.380486 228.593394 827.389694 231.602602 
C 830.398902 234.61181 834.480836 236.302603 838.736499 236.302603 
z
" clip-path="url(#p1056ebec1b)" style="fill: #1f77b4; fill-opacity: 0.3; stroke: #1f77b4; stroke-opacity: 0.3"/>
    <path d="M 850.850475 223.892718 
C 852.904729 223.892718 854.875123 223.076554 856.3277 221.623977 
C 857.780278 220.1714 858.596442 218.201006 858.596442 216.146752 
C 858.596442 214.092497 857.780278 212.122103 856.3277 210.669526 
C 854.875123 209.216949 852.904729 208.400785 850.850475 208.400785 
C 848.796221 208.400785 846.825827 209.216949 845.373249 210.669526 
C 843.920672 212.122103 843.104508 214.092497 843.104508 216.146752 
C 843.104508 218.201006 843.920672 220.1714 845.373249 221.623977 
C 846.825827 223.076554 848.796221 223.892718 850.850475 223.892718 
z
" clip-path="url(#p1056ebec1b)" style="fill: #1f77b4; fill-opacity: 0.3; stroke: #1f77b4; stroke-opacity: 0.3"/>
    <path d="M 862.96445 218.258155 
C 866.157919 218.258155 869.221021 216.989377 871.479144 214.731254 
C 873.737267 212.473131 875.006045 209.410029 875.006045 206.216561 
C 875.006045 203.023092 873.737267 199.95999 871.479144 197.701867 
C 869.221021 195.443744 866.157919 194.174966 862.96445 194.174966 
C 859.770982 194.174966 856.70788 195.443744 854.449757 197.701867 
C 852.191634 199.95999 850.922856 203.023092 850.922856 206.216561 
C 850.922856 209.410029 852.191634 212.473131 854.449757 214.731254 
C 856.70788 216.989377 859.770982 218.258155 862.96445 218.258155 
z
" clip-path="url(#p1056ebec1b)" style="fill: #1f77b4; fill-opacity: 0.3; stroke: #1f77b4; stroke-opacity: 0.3"/>
    <path d="M 875.078426 208.394916 
C 878.244245 208.394916 881.280826 207.137123 883.519398 204.898551 
C 885.757969 202.659979 887.015762 199.623398 887.015762 196.45758 
C 887.015762 193.291761 885.757969 190.25518 883.519398 188.016608 
C 881.280826 185.778036 878.244245 184.520243 875.078426 184.520243 
C 871.912607 184.520243 868.876026 185.778036 866.637455 188.016608 
C 864.398883 190.25518 863.14109 193.291761 863.14109 196.45758 
C 863.14109 199.623398 864.398883 202.659979 866.637455 204.898551 
C 868.876026 207.137123 871.912607 208.394916 875.078426 208.394916 
z
" clip-path="url(#p1056ebec1b)" style="fill: #1f77b4; fill-opacity: 0.3; stroke: #1f77b4; stroke-opacity: 0.3"/>
    <path d="M 887.192402 186.852949 
C 892.818209 186.852949 898.214355 184.617792 902.192402 180.639745 
C 906.170448 176.661699 908.405605 171.265553 908.405605 165.639745 
C 908.405605 160.013938 906.170448 154.617792 902.192402 150.639745 
C 898.214355 146.661699 892.818209 144.426542 887.192402 144.426542 
C 881.566594 144.426542 876.170448 146.661699 872.192402 150.639745 
C 868.214355 154.617792 865.979198 160.013938 865.979198 165.639745 
C 865.979198 171.265553 868.214355 176.661699 872.192402 180.639745 
C 876.170448 184.617792 881.566594 186.852949 887.192402 186.852949 
z
" clip-path="url(#p1056ebec1b)" style="fill: #1f77b4; fill-opacity: 0.3; stroke: #1f77b4; stroke-opacity: 0.3"/>
    <path d="M 899.306377 161.613385 
C 904.050474 161.613385 908.600904 159.728535 911.955488 156.373951 
C 915.310071 153.019368 917.194921 148.468938 917.194921 143.724841 
C 917.194921 138.980743 915.310071 134.430313 911.955488 131.07573 
C 908.600904 127.721147 904.050474 125.836297 899.306377 125.836297 
C 894.56228 125.836297 890.01185 127.721147 886.657267 131.07573 
C 883.302683 134.430313 881.417833 138.980743 881.417833 143.724841 
C 881.417833 148.468938 883.302683 153.019368 886.657267 156.373951 
C 890.01185 159.728535 894.56228 161.613385 899.306377 161.613385 
z
" clip-path="url(#p1056ebec1b)" style="fill: #1f77b4; fill-opacity: 0.3; stroke: #1f77b4; stroke-opacity: 0.3"/>
    <path d="M 911.420353 147.363872 
C 913.248139 147.363872 915.00131 146.637684 916.29375 145.345244 
C 917.58619 144.052804 918.312377 142.299633 918.312377 140.471847 
C 918.312377 138.644061 917.58619 136.89089 916.29375 135.59845 
C 915.00131 134.30601 913.248139 133.579823 911.420353 133.579823 
C 909.592567 133.579823 907.839396 134.30601 906.546956 135.59845 
C 905.254516 136.89089 904.528328 138.644061 904.528328 140.471847 
C 904.528328 142.299633 905.254516 144.052804 906.546956 145.345244 
C 907.839396 146.637684 909.592567 147.363872 911.420353 147.363872 
z
" clip-path="url(#p1056ebec1b)" style="fill: #1f77b4; fill-opacity: 0.3; stroke: #1f77b4; stroke-opacity: 0.3"/>
    <path d="M 923.534328 144.021445 
C 925.792451 144.021445 927.958392 143.124283 929.555126 141.527549 
C 931.15186 139.930815 932.049022 137.764875 932.049022 135.506752 
C 932.049022 133.248629 931.15186 131.082688 929.555126 129.485954 
C 927.958392 127.88922 925.792451 126.992058 923.534328 126.992058 
C 921.276205 126.992058 919.110265 127.88922 917.513531 129.485954 
C 915.916797 131.082688 915.019635 133.248629 915.019635 135.506752 
C 915.019635 137.764875 915.916797 139.930815 917.513531 141.527549 
C 919.110265 143.124283 921.276205 144.021445 923.534328 144.021445 
z
" clip-path="url(#p1056ebec1b)" style="fill: #1f77b4; fill-opacity: 0.3; stroke: #1f77b4; stroke-opacity: 0.3"/>
    <path d="M 935.648304 134.471775 
C 939.778156 134.471775 943.739415 132.830967 946.659662 129.910721 
C 949.579908 126.990475 951.220715 123.029215 951.220715 118.899363 
C 951.220715 114.769511 949.579908 110.808252 946.659662 107.888005 
C 943.739415 104.967759 939.778156 103.326952 935.648304 103.326952 
C 931.518452 103.326952 927.557192 104.967759 924.636946 107.888005 
C 921.7167 110.808252 920.075892 114.769511 920.075892 118.899363 
C 920.075892 123.029215 921.7167 126.990475 924.636946 129.910721 
C 927.557192 132.830967 931.518452 134.471775 935.648304 134.471775 
z
" clip-path="url(#p1056ebec1b)" style="fill: #1f77b4; fill-opacity: 0.3; stroke: #1f77b4; stroke-opacity: 0.3"/>
    <path d="M 947.76228 122.187261 
C 949.088295 122.187261 950.360179 121.66043 951.297813 120.722795 
C 952.235448 119.785161 952.76228 118.513277 952.76228 117.187261 
C 952.76228 115.861246 952.235448 114.589362 951.297813 113.651727 
C 950.360179 112.714093 949.088295 112.187261 947.76228 112.187261 
C 946.436264 112.187261 945.16438 112.714093 944.226746 113.651727 
C 943.289111 114.589362 942.76228 115.861246 942.76228 117.187261 
C 942.76228 118.513277 943.289111 119.785161 944.226746 120.722795 
C 945.16438 121.66043 946.436264 122.187261 947.76228 122.187261 
z
" clip-path="url(#p1056ebec1b)" style="fill: #1f77b4; fill-opacity: 0.3; stroke: #1f77b4; stroke-opacity: 0.3"/>
    <path d="M 959.876255 115.692541 
C 964.111209 115.692541 968.17328 114.009976 971.167845 111.015411 
C 974.162409 108.020847 975.844975 103.958776 975.844975 99.723822 
C 975.844975 95.488868 974.162409 91.426796 971.167845 88.432232 
C 968.17328 85.437667 964.111209 83.755102 959.876255 83.755102 
C 955.641301 83.755102 951.57923 85.437667 948.584665 88.432232 
C 945.590101 91.426796 943.907536 95.488868 943.907536 99.723822 
C 943.907536 103.958776 945.590101 108.020847 948.584665 111.015411 
C 951.57923 114.009976 955.641301 115.692541 959.876255 115.692541 
z
" clip-path="url(#p1056ebec1b)" style="fill: #1f77b4; fill-opacity: 0.3; stroke: #1f77b4; stroke-opacity: 0.3"/>
    <path d="M 971.990231 102.097421 
C 975.071612 102.097421 978.027203 100.873176 980.206069 98.69431 
C 982.384935 96.515444 983.609181 93.559853 983.609181 90.478471 
C 983.609181 87.39709 982.384935 84.441499 980.206069 82.262633 
C 978.027203 80.083767 975.071612 78.859521 971.990231 78.859521 
C 968.908849 78.859521 965.953258 80.083767 963.774392 82.262633 
C 961.595526 84.441499 960.371281 87.39709 960.371281 90.478471 
C 960.371281 93.559853 961.595526 96.515444 963.774392 98.69431 
C 965.953258 100.873176 968.908849 102.097421 971.990231 102.097421 
z
" clip-path="url(#p1056ebec1b)" style="fill: #1f77b4; fill-opacity: 0.3; stroke: #1f77b4; stroke-opacity: 0.3"/>
    <path d="M 984.104206 92.703454 
C 984.830495 92.703454 985.527134 92.414896 986.040698 91.901332 
C 986.554262 91.387769 986.842819 90.691129 986.842819 89.964841 
C 986.842819 89.238552 986.554262 88.541913 986.040698 88.028349 
C 985.527134 87.514785 984.830495 87.226228 984.104206 87.226228 
C 983.377918 87.226228 982.681278 87.514785 982.167715 88.028349 
C 981.654151 88.541913 981.365593 89.238552 981.365593 89.964841 
C 981.365593 90.691129 981.654151 91.387769 982.167715 91.901332 
C 982.681278 92.414896 983.377918 92.703454 984.104206 92.703454 
z
" clip-path="url(#p1056ebec1b)" style="fill: #1f77b4; fill-opacity: 0.3; stroke: #1f77b4; stroke-opacity: 0.3"/>
    <path d="M 996.218182 92.442278 
C 997.056828 92.442278 997.861238 92.10908 998.45425 91.516068 
C 999.047262 90.923056 999.380459 90.118646 999.380459 89.28 
C 999.380459 88.441354 999.047262 87.636944 998.45425 87.043932 
C 997.861238 86.45092 997.056828 86.117722 996.218182 86.117722 
C 995.379536 86.117722 994.575126 86.45092 993.982114 87.043932 
C 993.389102 87.636944 993.055904 88.441354 993.055904 89.28 
C 993.055904 90.118646 993.389102 90.923056 993.982114 91.516068 
C 994.575126 92.10908 995.379536 92.442278 996.218182 92.442278 
z
" clip-path="url(#p1056ebec1b)" style="fill: #1f77b4; fill-opacity: 0.3; stroke: #1f77b4; stroke-opacity: 0.3"/>
   </g>
   <g id="matplotlib.axis_1">
    <g id="xtick_1">
     <g id="line2d_1">
      <defs>
       <path id="m5f964d9b32" d="M 0 0 
L 0 3.5 
" style="stroke: #000000; stroke-width: 0.8"/>
      </defs>
      <g>
       <use xlink:href="#m5f964d9b32" x="184.581818" y="512.64" style="stroke: #000000; stroke-width: 0.8"/>
      </g>
     </g>
     <g id="text_1">
      <!-- 2025-01-01 -->
      <g transform="translate(155.524006 527.238438) scale(0.1 -0.1)">
       <defs>
        <path id="DejaVuSans-32" d="M 1228 531 
L 3431 531 
L 3431 0 
L 469 0 
L 469 531 
Q 828 903 1448 1529 
Q 2069 2156 2228 2338 
Q 2531 2678 2651 2914 
Q 2772 3150 2772 3378 
Q 2772 3750 2511 3984 
Q 2250 4219 1831 4219 
Q 1534 4219 1204 4116 
Q 875 4013 500 3803 
L 500 4441 
Q 881 4594 1212 4672 
Q 1544 4750 1819 4750 
Q 2544 4750 2975 4387 
Q 3406 4025 3406 3419 
Q 3406 3131 3298 2873 
Q 3191 2616 2906 2266 
Q 2828 2175 2409 1742 
Q 1991 1309 1228 531 
z
" transform="scale(0.015625)"/>
        <path id="DejaVuSans-30" d="M 2034 4250 
Q 1547 4250 1301 3770 
Q 1056 3291 1056 2328 
Q 1056 1369 1301 889 
Q 1547 409 2034 409 
Q 2525 409 2770 889 
Q 3016 1369 3016 2328 
Q 3016 3291 2770 3770 
Q 2525 4250 2034 4250 
z
M 2034 4750 
Q 2819 4750 3233 4129 
Q 3647 3509 3647 2328 
Q 3647 1150 3233 529 
Q 2819 -91 2034 -91 
Q 1250 -91 836 529 
Q 422 1150 422 2328 
Q 422 3509 836 4129 
Q 1250 4750 2034 4750 
z
" transform="scale(0.015625)"/>
        <path id="DejaVuSans-35" d="M 691 4666 
L 3169 4666 
L 3169 4134 
L 1269 4134 
L 1269 2991 
Q 1406 3038 1543 3061 
Q 1681 3084 1819 3084 
Q 2600 3084 3056 2656 
Q 3513 2228 3513 1497 
Q 3513 744 3044 326 
Q 2575 -91 1722 -91 
Q 1428 -91 1123 -41 
Q 819 9 494 109 
L 494 744 
Q 775 591 1075 516 
Q 1375 441 1709 441 
Q 2250 441 2565 725 
Q 2881 1009 2881 1497 
Q 2881 1984 2565 2268 
Q 2250 2553 1709 2553 
Q 1456 2553 1204 2497 
Q 953 2441 691 2322 
L 691 4666 
z
" transform="scale(0.015625)"/>
        <path id="DejaVuSans-2d" d="M 313 2009 
L 1997 2009 
L 1997 1497 
L 313 1497 
L 313 2009 
z
" transform="scale(0.015625)"/>
        <path id="DejaVuSans-31" d="M 794 531 
L 1825 531 
L 1825 4091 
L 703 3866 
L 703 4441 
L 1819 4666 
L 2450 4666 
L 2450 531 
L 3481 531 
L 3481 0 
L 794 0 
L 794 531 
z
" transform="scale(0.015625)"/>
       </defs>
       <use xlink:href="#DejaVuSans-32"/>
       <use xlink:href="#DejaVuSans-30" x="63.623047"/>
       <use xlink:href="#DejaVuSans-32" x="127.246094"/>
       <use xlink:href="#DejaVuSans-35" x="190.869141"/>
       <use xlink:href="#DejaVuSans-2d" x="254.492188"/>
       <use xlink:href="#DejaVuSans-30" x="290.576172"/>
       <use xlink:href="#DejaVuSans-31" x="354.199219"/>
       <use xlink:href="#DejaVuSans-2d" x="417.822266"/>
       <use xlink:href="#DejaVuSans-30" x="453.90625"/>
       <use xlink:href="#DejaVuSans-31" x="517.529297"/>
      </g>
     </g>
    </g>
    <g id="xtick_2">
     <g id="line2d_2">
      <g>
       <use xlink:href="#m5f964d9b32" x="354.177476" y="512.64" style="stroke: #000000; stroke-width: 0.8"/>
      </g>
     </g>
     <g id="text_2">
      <!-- 2025-01-15 -->
      <g transform="translate(325.119664 527.238438) scale(0.1 -0.1)">
       <use xlink:href="#DejaVuSans-32"/>
       <use xlink:href="#DejaVuSans-30" x="63.623047"/>
       <use xlink:href="#DejaVuSans-32" x="127.246094"/>
       <use xlink:href="#DejaVuSans-35" x="190.869141"/>
       <use xlink:href="#DejaVuSans-2d" x="254.492188"/>
       <use xlink:href="#DejaVuSans-30" x="290.576172"/>
       <use xlink:href="#DejaVuSans-31" x="354.199219"/>
       <use xlink:href="#DejaVuSans-2d" x="417.822266"/>
       <use xlink:href="#DejaVuSans-31" x="453.90625"/>
       <use xlink:href="#DejaVuSans-35" x="517.529297"/>
      </g>
     </g>
    </g>
    <g id="xtick_3">
     <g id="line2d_3">
      <g>
       <use xlink:href="#m5f964d9b32" x="560.115061" y="512.64" style="stroke: #000000; stroke-width: 0.8"/>
      </g>
     </g>
     <g id="text_3">
      <!-- 2025-02-01 -->
      <g transform="translate(531.057249 527.238438) scale(0.1 -0.1)">
       <use xlink:href="#DejaVuSans-32"/>
       <use xlink:href="#DejaVuSans-30" x="63.623047"/>
       <use xlink:href="#DejaVuSans-32" x="127.246094"/>
       <use xlink:href="#DejaVuSans-35" x="190.869141"/>
       <use xlink:href="#DejaVuSans-2d" x="254.492188"/>
       <use xlink:href="#DejaVuSans-30" x="290.576172"/>
       <use xlink:href="#DejaVuSans-32" x="354.199219"/>
       <use xlink:href="#DejaVuSans-2d" x="417.822266"/>
       <use xlink:href="#DejaVuSans-30" x="453.90625"/>
       <use xlink:href="#DejaVuSans-31" x="517.529297"/>
      </g>
     </g>
    </g>
    <g id="xtick_4">
     <g id="line2d_4">
      <g>
       <use xlink:href="#m5f964d9b32" x="729.710719" y="512.64" style="stroke: #000000; stroke-width: 0.8"/>
      </g>
     </g>
     <g id="text_4">
      <!-- 2025-02-15 -->
      <g transform="translate(700.652907 527.238438) scale(0.1 -0.1)">
       <use xlink:href="#DejaVuSans-32"/>
       <use xlink:href="#DejaVuSans-30" x="63.623047"/>
       <use xlink:href="#DejaVuSans-32" x="127.246094"/>
       <use xlink:href="#DejaVuSans-35" x="190.869141"/>
       <use xlink:href="#DejaVuSans-2d" x="254.492188"/>
       <use xlink:href="#DejaVuSans-30" x="290.576172"/>
       <use xlink:href="#DejaVuSans-32" x="354.199219"/>
       <use xlink:href="#DejaVuSans-2d" x="417.822266"/>
       <use xlink:href="#DejaVuSans-31" x="453.90625"/>
       <use xlink:href="#DejaVuSans-35" x="517.529297"/>
      </g>
     </g>
    </g>
    <g id="xtick_5">
     <g id="line2d_5">
      <g>
       <use xlink:href="#m5f964d9b32" x="899.306377" y="512.64" style="stroke: #000000; stroke-width: 0.8"/>
      </g>
     </g>
     <g id="text_5">
      <!-- 2025-03-01 -->
      <g transform="translate(870.248565 527.238438) scale(0.1 -0.1)">
       <defs>
        <path id="DejaVuSans-33" d="M 2597 2516 
Q 3050 2419 3304 2112 
Q 3559 1806 3559 1356 
Q 3559 666 3084 287 
Q 2609 -91 1734 -91 
Q 1441 -91 1130 -33 
Q 819 25 488 141 
L 488 750 
Q 750 597 1062 519 
Q 1375 441 1716 441 
Q 2309 441 2620 675 
Q 2931 909 2931 1356 
Q 2931 1769 2642 2001 
Q 2353 2234 1838 2234 
L 1294 2234 
L 1294 2753 
L 1863 2753 
Q 2328 2753 2575 2939 
Q 2822 3125 2822 3475 
Q 2822 3834 2567 4026 
Q 2313 4219 1838 4219 
Q 1578 4219 1281 4162 
Q 984 4106 628 3988 
L 628 4550 
Q 988 4650 1302 4700 
Q 1616 4750 1894 4750 
Q 2613 4750 3031 4423 
Q 3450 4097 3450 3541 
Q 3450 3153 3228 2886 
Q 3006 2619 2597 2516 
z
" transform="scale(0.015625)"/>
       </defs>
       <use xlink:href="#DejaVuSans-32"/>
       <use xlink:href="#DejaVuSans-30" x="63.623047"/>
       <use xlink:href="#DejaVuSans-32" x="127.246094"/>
       <use xlink:href="#DejaVuSans-35" x="190.869141"/>
       <use xlink:href="#DejaVuSans-2d" x="254.492188"/>
       <use xlink:href="#DejaVuSans-30" x="290.576172"/>
       <use xlink:href="#DejaVuSans-33" x="354.199219"/>
       <use xlink:href="#DejaVuSans-2d" x="417.822266"/>
       <use xlink:href="#DejaVuSans-30" x="453.90625"/>
       <use xlink:href="#DejaVuSans-31" x="517.529297"/>
      </g>
     </g>
    </g>
   </g>
   <g id="matplotlib.axis_2">
    <g id="ytick_1">
     <g id="line2d_6">
      <defs>
       <path id="m769089aea0" d="M 0 0 
L -3.5 0 
" style="stroke: #000000; stroke-width: 0.8"/>
      </defs>
      <g>
       <use xlink:href="#m769089aea0" x="144" y="444.541146" style="stroke: #000000; stroke-width: 0.8"/>
      </g>
     </g>
     <g id="text_6">
      <!-- 8500 -->
      <g transform="translate(111.55 448.340365) scale(0.1 -0.1)">
       <defs>
        <path id="DejaVuSans-38" d="M 2034 2216 
Q 1584 2216 1326 1975 
Q 1069 1734 1069 1313 
Q 1069 891 1326 650 
Q 1584 409 2034 409 
Q 2484 409 2743 651 
Q 3003 894 3003 1313 
Q 3003 1734 2745 1975 
Q 2488 2216 2034 2216 
z
M 1403 2484 
Q 997 2584 770 2862 
Q 544 3141 544 3541 
Q 544 4100 942 4425 
Q 1341 4750 2034 4750 
Q 2731 4750 3128 4425 
Q 3525 4100 3525 3541 
Q 3525 3141 3298 2862 
Q 3072 2584 2669 2484 
Q 3125 2378 3379 2068 
Q 3634 1759 3634 1313 
Q 3634 634 3220 271 
Q 2806 -91 2034 -91 
Q 1263 -91 848 271 
Q 434 634 434 1313 
Q 434 1759 690 2068 
Q 947 2378 1403 2484 
z
M 1172 3481 
Q 1172 3119 1398 2916 
Q 1625 2713 2034 2713 
Q 2441 2713 2670 2916 
Q 2900 3119 2900 3481 
Q 2900 3844 2670 4047 
Q 2441 4250 2034 4250 
Q 1625 4250 1398 4047 
Q 1172 3844 1172 3481 
z
" transform="scale(0.015625)"/>
       </defs>
       <use xlink:href="#DejaVuSans-38"/>
       <use xlink:href="#DejaVuSans-35" x="63.623047"/>
       <use xlink:href="#DejaVuSans-30" x="127.246094"/>
       <use xlink:href="#DejaVuSans-30" x="190.869141"/>
      </g>
     </g>
    </g>
    <g id="ytick_2">
     <g id="line2d_7">
      <g>
       <use xlink:href="#m769089aea0" x="144" y="358.936051" style="stroke: #000000; stroke-width: 0.8"/>
      </g>
     </g>
     <g id="text_7">
      <!-- 9000 -->
      <g transform="translate(111.55 362.73527) scale(0.1 -0.1)">
       <defs>
        <path id="DejaVuSans-39" d="M 703 97 
L 703 672 
Q 941 559 1184 500 
Q 1428 441 1663 441 
Q 2288 441 2617 861 
Q 2947 1281 2994 2138 
Q 2813 1869 2534 1725 
Q 2256 1581 1919 1581 
Q 1219 1581 811 2004 
Q 403 2428 403 3163 
Q 403 3881 828 4315 
Q 1253 4750 1959 4750 
Q 2769 4750 3195 4129 
Q 3622 3509 3622 2328 
Q 3622 1225 3098 567 
Q 2575 -91 1691 -91 
Q 1453 -91 1209 -44 
Q 966 3 703 97 
z
M 1959 2075 
Q 2384 2075 2632 2365 
Q 2881 2656 2881 3163 
Q 2881 3666 2632 3958 
Q 2384 4250 1959 4250 
Q 1534 4250 1286 3958 
Q 1038 3666 1038 3163 
Q 1038 2656 1286 2365 
Q 1534 2075 1959 2075 
z
" transform="scale(0.015625)"/>
       </defs>
       <use xlink:href="#DejaVuSans-39"/>
       <use xlink:href="#DejaVuSans-30" x="63.623047"/>
       <use xlink:href="#DejaVuSans-30" x="127.246094"/>
       <use xlink:href="#DejaVuSans-30" x="190.869141"/>
      </g>
     </g>
    </g>
    <g id="ytick_3">
     <g id="line2d_8">
      <g>
       <use xlink:href="#m769089aea0" x="144" y="273.330955" style="stroke: #000000; stroke-width: 0.8"/>
      </g>
     </g>
     <g id="text_8">
      <!-- 9500 -->
      <g transform="translate(111.55 277.130174) scale(0.1 -0.1)">
       <use xlink:href="#DejaVuSans-39"/>
       <use xlink:href="#DejaVuSans-35" x="63.623047"/>
       <use xlink:href="#DejaVuSans-30" x="127.246094"/>
       <use xlink:href="#DejaVuSans-30" x="190.869141"/>
      </g>
     </g>
    </g>
    <g id="ytick_4">
     <g id="line2d_9">
      <g>
       <use xlink:href="#m769089aea0" x="144" y="187.72586" style="stroke: #000000; stroke-width: 0.8"/>
      </g>
     </g>
     <g id="text_9">
      <!-- 10000 -->
      <g transform="translate(105.1875 191.525079) scale(0.1 -0.1)">
       <use xlink:href="#DejaVuSans-31"/>
       <use xlink:href="#DejaVuSans-30" x="63.623047"/>
       <use xlink:href="#DejaVuSans-30" x="127.246094"/>
       <use xlink:href="#DejaVuSans-30" x="190.869141"/>
       <use xlink:href="#DejaVuSans-30" x="254.492188"/>
      </g>
     </g>
    </g>
    <g id="ytick_5">
     <g id="line2d_10">
      <g>
       <use xlink:href="#m769089aea0" x="144" y="102.120764" style="stroke: #000000; stroke-width: 0.8"/>
      </g>
     </g>
     <g id="text_10">
      <!-- 10500 -->
      <g transform="translate(105.1875 105.919983) scale(0.1 -0.1)">
       <use xlink:href="#DejaVuSans-31"/>
       <use xlink:href="#DejaVuSans-30" x="63.623047"/>
       <use xlink:href="#DejaVuSans-35" x="127.246094"/>
       <use xlink:href="#DejaVuSans-30" x="190.869141"/>
       <use xlink:href="#DejaVuSans-30" x="254.492188"/>
      </g>
     </g>
    </g>
   </g>
   <g id="line2d_11">
    <path d="M 184.581818 492.48 
L 196.695794 491.623949 
L 208.809769 489.055796 
L 220.923745 488.542166 
L 233.03772 487.172484 
L 245.151696 485.460382 
L 257.265672 485.117962 
L 269.379647 483.74828 
L 281.493623 483.23465 
L 293.607598 482.549809 
L 305.721574 482.207389 
L 317.83555 481.351338 
L 329.949525 480.666497 
L 342.063501 479.810446 
L 354.177476 478.954395 
L 366.291452 477.927134 
L 378.405427 477.071083 
L 390.519403 476.043822 
L 402.633379 474.84535 
L 414.747354 473.646879 
L 426.86133 472.619618 
L 438.975305 470.736306 
L 451.089281 467.996943 
L 463.203256 463.887898 
L 475.317232 462.689427 
L 487.431208 460.463694 
L 499.545183 458.237962 
L 511.659159 452.588025 
L 523.773134 447.28051 
L 535.88711 441.630573 
L 548.001085 435.638217 
L 560.115061 432.385223 
L 572.229037 431.015541 
L 584.343012 428.447389 
L 596.456988 418.688408 
L 608.570963 400.026497 
L 620.684939 391.979618 
L 632.798915 380.508535 
L 644.91289 377.426752 
L 657.026866 372.119236 
L 669.140841 364.414777 
L 681.254817 356.710318 
L 693.368792 346.951338 
L 705.482768 333.596943 
L 717.596744 322.981911 
L 729.710719 321.441019 
L 741.824695 319.386497 
L 753.93867 301.923057 
L 766.052646 288.055032 
L 778.166621 280.008153 
L 790.280597 263.058344 
L 802.394573 244.738854 
L 814.508548 239.944968 
L 826.622524 237.890446 
L 838.736499 220.255796 
L 850.850475 216.146752 
L 862.96445 206.216561 
L 875.078426 196.45758 
L 887.192402 165.639745 
L 899.306377 143.724841 
L 911.420353 140.471847 
L 923.534328 135.506752 
L 935.648304 118.899363 
L 947.76228 117.187261 
L 959.876255 99.723822 
L 971.990231 90.478471 
L 984.104206 89.964841 
L 996.218182 89.28 
" clip-path="url(#p1056ebec1b)" style="fill: none; stroke: #1f77b4; stroke-width: 1.5; stroke-linecap: square"/>
   </g>
   <g id="patch_3">
    <path d="M 144 512.64 
L 144 69.12 
" style="fill: none; stroke: #000000; stroke-width: 0.8; stroke-linejoin: miter; stroke-linecap: square"/>
   </g>
   <g id="patch_4">
    <path d="M 1036.8 512.64 
L 1036.8 69.12 
" style="fill: none; stroke: #000000; stroke-width: 0.8; stroke-linejoin: miter; stroke-linecap: square"/>
   </g>
   <g id="patch_5">
    <path d="M 144 512.64 
L 1036.8 512.64 
" style="fill: none; stroke: #000000; stroke-width: 0.8; stroke-linejoin: miter; stroke-linecap: square"/>
   </g>
   <g id="patch_6">
    <path d="M 144 69.12 
L 1036.8 69.12 
" style="fill: none; stroke: #000000; stroke-width: 0.8; stroke-linejoin: miter; stroke-linecap: square"/>
   </g>
   <g id="text_11">
    <!-- Number of AEDs in the OpenStreetMap database in Poland from 2025-01-01, day by day. As at: 2025-03-09 -->
    <g transform="translate(144 63.12) scale(0.14 -0.14)">
     <defs>
      <path id="DejaVuSans-4e" d="M 628 4666 
L 1478 4666 
L 3547 763 
L 3547 4666 
L 4159 4666 
L 4159 0 
L 3309 0 
L 1241 3903 
L 1241 0 
L 628 0 
L 628 4666 
z
" transform="scale(0.015625)"/>
      <path id="DejaVuSans-75" d="M 544 1381 
L 544 3500 
L 1119 3500 
L 1119 1403 
Q 1119 906 1312 657 
Q 1506 409 1894 409 
Q 2359 409 2629 706 
Q 2900 1003 2900 1516 
L 2900 3500 
L 3475 3500 
L 3475 0 
L 2900 0 
L 2900 538 
Q 2691 219 2414 64 
Q 2138 -91 1772 -91 
Q 1169 -91 856 284 
Q 544 659 544 1381 
z
M 1991 3584 
L 1991 3584 
z
" transform="scale(0.015625)"/>
      <path id="DejaVuSans-6d" d="M 3328 2828 
Q 3544 3216 3844 3400 
Q 4144 3584 4550 3584 
Q 5097 3584 5394 3201 
Q 5691 2819 5691 2113 
L 5691 0 
L 5113 0 
L 5113 2094 
Q 5113 2597 4934 2840 
Q 4756 3084 4391 3084 
Q 3944 3084 3684 2787 
Q 3425 2491 3425 1978 
L 3425 0 
L 2847 0 
L 2847 2094 
Q 2847 2600 2669 2842 
Q 2491 3084 2119 3084 
Q 1678 3084 1418 2786 
Q 1159 2488 1159 1978 
L 1159 0 
L 581 0 
L 581 3500 
L 1159 3500 
L 1159 2956 
Q 1356 3278 1631 3431 
Q 1906 3584 2284 3584 
Q 2666 3584 2933 3390 
Q 3200 3197 3328 2828 
z
" transform="scale(0.015625)"/>
      <path id="DejaVuSans-62" d="M 3116 1747 
Q 3116 2381 2855 2742 
Q 2594 3103 2138 3103 
Q 1681 3103 1420 2742 
Q 1159 2381 1159 1747 
Q 1159 1113 1420 752 
Q 1681 391 2138 391 
Q 2594 391 2855 752 
Q 3116 1113 3116 1747 
z
M 1159 2969 
Q 1341 3281 1617 3432 
Q 1894 3584 2278 3584 
Q 2916 3584 3314 3078 
Q 3713 2572 3713 1747 
Q 3713 922 3314 415 
Q 2916 -91 2278 -91 
Q 1894 -91 1617 61 
Q 1341 213 1159 525 
L 1159 0 
L 581 0 
L 581 4863 
L 1159 4863 
L 1159 2969 
z
" transform="scale(0.015625)"/>
      <path id="DejaVuSans-65" d="M 3597 1894 
L 3597 1613 
L 953 1613 
Q 991 1019 1311 708 
Q 1631 397 2203 397 
Q 2534 397 2845 478 
Q 3156 559 3463 722 
L 3463 178 
Q 3153 47 2828 -22 
Q 2503 -91 2169 -91 
Q 1331 -91 842 396 
Q 353 884 353 1716 
Q 353 2575 817 3079 
Q 1281 3584 2069 3584 
Q 2775 3584 3186 3129 
Q 3597 2675 3597 1894 
z
M 3022 2063 
Q 3016 2534 2758 2815 
Q 2500 3097 2075 3097 
Q 1594 3097 1305 2825 
Q 1016 2553 972 2059 
L 3022 2063 
z
" transform="scale(0.015625)"/>
      <path id="DejaVuSans-72" d="M 2631 2963 
Q 2534 3019 2420 3045 
Q 2306 3072 2169 3072 
Q 1681 3072 1420 2755 
Q 1159 2438 1159 1844 
L 1159 0 
L 581 0 
L 581 3500 
L 1159 3500 
L 1159 2956 
Q 1341 3275 1631 3429 
Q 1922 3584 2338 3584 
Q 2397 3584 2469 3576 
Q 2541 3569 2628 3553 
L 2631 2963 
z
" transform="scale(0.015625)"/>
      <path id="DejaVuSans-20" transform="scale(0.015625)"/>
      <path id="DejaVuSans-6f" d="M 1959 3097 
Q 1497 3097 1228 2736 
Q 959 2375 959 1747 
Q 959 1119 1226 758 
Q 1494 397 1959 397 
Q 2419 397 2687 759 
Q 2956 1122 2956 1747 
Q 2956 2369 2687 2733 
Q 2419 3097 1959 3097 
z
M 1959 3584 
Q 2709 3584 3137 3096 
Q 3566 2609 3566 1747 
Q 3566 888 3137 398 
Q 2709 -91 1959 -91 
Q 1206 -91 779 398 
Q 353 888 353 1747 
Q 353 2609 779 3096 
Q 1206 3584 1959 3584 
z
" transform="scale(0.015625)"/>
      <path id="DejaVuSans-66" d="M 2375 4863 
L 2375 4384 
L 1825 4384 
Q 1516 4384 1395 4259 
Q 1275 4134 1275 3809 
L 1275 3500 
L 2222 3500 
L 2222 3053 
L 1275 3053 
L 1275 0 
L 697 0 
L 697 3053 
L 147 3053 
L 147 3500 
L 697 3500 
L 697 3744 
Q 697 4328 969 4595 
Q 1241 4863 1831 4863 
L 2375 4863 
z
" transform="scale(0.015625)"/>
      <path id="DejaVuSans-41" d="M 2188 4044 
L 1331 1722 
L 3047 1722 
L 2188 4044 
z
M 1831 4666 
L 2547 4666 
L 4325 0 
L 3669 0 
L 3244 1197 
L 1141 1197 
L 716 0 
L 50 0 
L 1831 4666 
z
" transform="scale(0.015625)"/>
      <path id="DejaVuSans-45" d="M 628 4666 
L 3578 4666 
L 3578 4134 
L 1259 4134 
L 1259 2753 
L 3481 2753 
L 3481 2222 
L 1259 2222 
L 1259 531 
L 3634 531 
L 3634 0 
L 628 0 
L 628 4666 
z
" transform="scale(0.015625)"/>
      <path id="DejaVuSans-44" d="M 1259 4147 
L 1259 519 
L 2022 519 
Q 2988 519 3436 956 
Q 3884 1394 3884 2338 
Q 3884 3275 3436 3711 
Q 2988 4147 2022 4147 
L 1259 4147 
z
M 628 4666 
L 1925 4666 
Q 3281 4666 3915 4102 
Q 4550 3538 4550 2338 
Q 4550 1131 3912 565 
Q 3275 0 1925 0 
L 628 0 
L 628 4666 
z
" transform="scale(0.015625)"/>
      <path id="DejaVuSans-73" d="M 2834 3397 
L 2834 2853 
Q 2591 2978 2328 3040 
Q 2066 3103 1784 3103 
Q 1356 3103 1142 2972 
Q 928 2841 928 2578 
Q 928 2378 1081 2264 
Q 1234 2150 1697 2047 
L 1894 2003 
Q 2506 1872 2764 1633 
Q 3022 1394 3022 966 
Q 3022 478 2636 193 
Q 2250 -91 1575 -91 
Q 1294 -91 989 -36 
Q 684 19 347 128 
L 347 722 
Q 666 556 975 473 
Q 1284 391 1588 391 
Q 1994 391 2212 530 
Q 2431 669 2431 922 
Q 2431 1156 2273 1281 
Q 2116 1406 1581 1522 
L 1381 1569 
Q 847 1681 609 1914 
Q 372 2147 372 2553 
Q 372 3047 722 3315 
Q 1072 3584 1716 3584 
Q 2034 3584 2315 3537 
Q 2597 3491 2834 3397 
z
" transform="scale(0.015625)"/>
      <path id="DejaVuSans-69" d="M 603 3500 
L 1178 3500 
L 1178 0 
L 603 0 
L 603 3500 
z
M 603 4863 
L 1178 4863 
L 1178 4134 
L 603 4134 
L 603 4863 
z
" transform="scale(0.015625)"/>
      <path id="DejaVuSans-6e" d="M 3513 2113 
L 3513 0 
L 2938 0 
L 2938 2094 
Q 2938 2591 2744 2837 
Q 2550 3084 2163 3084 
Q 1697 3084 1428 2787 
Q 1159 2491 1159 1978 
L 1159 0 
L 581 0 
L 581 3500 
L 1159 3500 
L 1159 2956 
Q 1366 3272 1645 3428 
Q 1925 3584 2291 3584 
Q 2894 3584 3203 3211 
Q 3513 2838 3513 2113 
z
" transform="scale(0.015625)"/>
      <path id="DejaVuSans-74" d="M 1172 4494 
L 1172 3500 
L 2356 3500 
L 2356 3053 
L 1172 3053 
L 1172 1153 
Q 1172 725 1289 603 
Q 1406 481 1766 481 
L 2356 481 
L 2356 0 
L 1766 0 
Q 1100 0 847 248 
Q 594 497 594 1153 
L 594 3053 
L 172 3053 
L 172 3500 
L 594 3500 
L 594 4494 
L 1172 4494 
z
" transform="scale(0.015625)"/>
      <path id="DejaVuSans-68" d="M 3513 2113 
L 3513 0 
L 2938 0 
L 2938 2094 
Q 2938 2591 2744 2837 
Q 2550 3084 2163 3084 
Q 1697 3084 1428 2787 
Q 1159 2491 1159 1978 
L 1159 0 
L 581 0 
L 581 4863 
L 1159 4863 
L 1159 2956 
Q 1366 3272 1645 3428 
Q 1925 3584 2291 3584 
Q 2894 3584 3203 3211 
Q 3513 2838 3513 2113 
z
" transform="scale(0.015625)"/>
      <path id="DejaVuSans-4f" d="M 2522 4238 
Q 1834 4238 1429 3725 
Q 1025 3213 1025 2328 
Q 1025 1447 1429 934 
Q 1834 422 2522 422 
Q 3209 422 3611 934 
Q 4013 1447 4013 2328 
Q 4013 3213 3611 3725 
Q 3209 4238 2522 4238 
z
M 2522 4750 
Q 3503 4750 4090 4092 
Q 4678 3434 4678 2328 
Q 4678 1225 4090 567 
Q 3503 -91 2522 -91 
Q 1538 -91 948 565 
Q 359 1222 359 2328 
Q 359 3434 948 4092 
Q 1538 4750 2522 4750 
z
" transform="scale(0.015625)"/>
      <path id="DejaVuSans-70" d="M 1159 525 
L 1159 -1331 
L 581 -1331 
L 581 3500 
L 1159 3500 
L 1159 2969 
Q 1341 3281 1617 3432 
Q 1894 3584 2278 3584 
Q 2916 3584 3314 3078 
Q 3713 2572 3713 1747 
Q 3713 922 3314 415 
Q 2916 -91 2278 -91 
Q 1894 -91 1617 61 
Q 1341 213 1159 525 
z
M 3116 1747 
Q 3116 2381 2855 2742 
Q 2594 3103 2138 3103 
Q 1681 3103 1420 2742 
Q 1159 2381 1159 1747 
Q 1159 1113 1420 752 
Q 1681 391 2138 391 
Q 2594 391 2855 752 
Q 3116 1113 3116 1747 
z
" transform="scale(0.015625)"/>
      <path id="DejaVuSans-53" d="M 3425 4513 
L 3425 3897 
Q 3066 4069 2747 4153 
Q 2428 4238 2131 4238 
Q 1616 4238 1336 4038 
Q 1056 3838 1056 3469 
Q 1056 3159 1242 3001 
Q 1428 2844 1947 2747 
L 2328 2669 
Q 3034 2534 3370 2195 
Q 3706 1856 3706 1288 
Q 3706 609 3251 259 
Q 2797 -91 1919 -91 
Q 1588 -91 1214 -16 
Q 841 59 441 206 
L 441 856 
Q 825 641 1194 531 
Q 1563 422 1919 422 
Q 2459 422 2753 634 
Q 3047 847 3047 1241 
Q 3047 1584 2836 1778 
Q 2625 1972 2144 2069 
L 1759 2144 
Q 1053 2284 737 2584 
Q 422 2884 422 3419 
Q 422 4038 858 4394 
Q 1294 4750 2059 4750 
Q 2388 4750 2728 4690 
Q 3069 4631 3425 4513 
z
" transform="scale(0.015625)"/>
      <path id="DejaVuSans-4d" d="M 628 4666 
L 1569 4666 
L 2759 1491 
L 3956 4666 
L 4897 4666 
L 4897 0 
L 4281 0 
L 4281 4097 
L 3078 897 
L 2444 897 
L 1241 4097 
L 1241 0 
L 628 0 
L 628 4666 
z
" transform="scale(0.015625)"/>
      <path id="DejaVuSans-61" d="M 2194 1759 
Q 1497 1759 1228 1600 
Q 959 1441 959 1056 
Q 959 750 1161 570 
Q 1363 391 1709 391 
Q 2188 391 2477 730 
Q 2766 1069 2766 1631 
L 2766 1759 
L 2194 1759 
z
M 3341 1997 
L 3341 0 
L 2766 0 
L 2766 531 
Q 2569 213 2275 61 
Q 1981 -91 1556 -91 
Q 1019 -91 701 211 
Q 384 513 384 1019 
Q 384 1609 779 1909 
Q 1175 2209 1959 2209 
L 2766 2209 
L 2766 2266 
Q 2766 2663 2505 2880 
Q 2244 3097 1772 3097 
Q 1472 3097 1187 3025 
Q 903 2953 641 2809 
L 641 3341 
Q 956 3463 1253 3523 
Q 1550 3584 1831 3584 
Q 2591 3584 2966 3190 
Q 3341 2797 3341 1997 
z
" transform="scale(0.015625)"/>
      <path id="DejaVuSans-64" d="M 2906 2969 
L 2906 4863 
L 3481 4863 
L 3481 0 
L 2906 0 
L 2906 525 
Q 2725 213 2448 61 
Q 2172 -91 1784 -91 
Q 1150 -91 751 415 
Q 353 922 353 1747 
Q 353 2572 751 3078 
Q 1150 3584 1784 3584 
Q 2172 3584 2448 3432 
Q 2725 3281 2906 2969 
z
M 947 1747 
Q 947 1113 1208 752 
Q 1469 391 1925 391 
Q 2381 391 2643 752 
Q 2906 1113 2906 1747 
Q 2906 2381 2643 2742 
Q 2381 3103 1925 3103 
Q 1469 3103 1208 2742 
Q 947 2381 947 1747 
z
" transform="scale(0.015625)"/>
      <path id="DejaVuSans-50" d="M 1259 4147 
L 1259 2394 
L 2053 2394 
Q 2494 2394 2734 2622 
Q 2975 2850 2975 3272 
Q 2975 3691 2734 3919 
Q 2494 4147 2053 4147 
L 1259 4147 
z
M 628 4666 
L 2053 4666 
Q 2838 4666 3239 4311 
Q 3641 3956 3641 3272 
Q 3641 2581 3239 2228 
Q 2838 1875 2053 1875 
L 1259 1875 
L 1259 0 
L 628 0 
L 628 4666 
z
" transform="scale(0.015625)"/>
      <path id="DejaVuSans-6c" d="M 603 4863 
L 1178 4863 
L 1178 0 
L 603 0 
L 603 4863 
z
" transform="scale(0.015625)"/>
      <path id="DejaVuSans-2c" d="M 750 794 
L 1409 794 
L 1409 256 
L 897 -744 
L 494 -744 
L 750 256 
L 750 794 
z
" transform="scale(0.015625)"/>
      <path id="DejaVuSans-79" d="M 2059 -325 
Q 1816 -950 1584 -1140 
Q 1353 -1331 966 -1331 
L 506 -1331 
L 506 -850 
L 844 -850 
Q 1081 -850 1212 -737 
Q 1344 -625 1503 -206 
L 1606 56 
L 191 3500 
L 800 3500 
L 1894 763 
L 2988 3500 
L 3597 3500 
L 2059 -325 
z
" transform="scale(0.015625)"/>
      <path id="DejaVuSans-2e" d="M 684 794 
L 1344 794 
L 1344 0 
L 684 0 
L 684 794 
z
" transform="scale(0.015625)"/>
      <path id="DejaVuSans-3a" d="M 750 794 
L 1409 794 
L 1409 0 
L 750 0 
L 750 794 
z
M 750 3309 
L 1409 3309 
L 1409 2516 
L 750 2516 
L 750 3309 
z
" transform="scale(0.015625)"/>
     </defs>
     <use xlink:href="#DejaVuSans-4e"/>
     <use xlink:href="#DejaVuSans-75" x="74.804688"/>
     <use xlink:href="#DejaVuSans-6d" x="138.183594"/>
     <use xlink:href="#DejaVuSans-62" x="235.595703"/>
     <use xlink:href="#DejaVuSans-65" x="299.072266"/>
     <use xlink:href="#DejaVuSans-72" x="360.595703"/>
     <use xlink:href="#DejaVuSans-20" x="401.708984"/>
     <use xlink:href="#DejaVuSans-6f" x="433.496094"/>
     <use xlink:href="#DejaVuSans-66" x="494.677734"/>
     <use xlink:href="#DejaVuSans-20" x="529.882812"/>
     <use xlink:href="#DejaVuSans-41" x="561.669922"/>
     <use xlink:href="#DejaVuSans-45" x="630.078125"/>
     <use xlink:href="#DejaVuSans-44" x="693.261719"/>
     <use xlink:href="#DejaVuSans-73" x="770.263672"/>
     <use xlink:href="#DejaVuSans-20" x="822.363281"/>
     <use xlink:href="#DejaVuSans-69" x="854.150391"/>
     <use xlink:href="#DejaVuSans-6e" x="881.933594"/>
     <use xlink:href="#DejaVuSans-20" x="945.3125"/>
     <use xlink:href="#DejaVuSans-74" x="977.099609"/>
     <use xlink:href="#DejaVuSans-68" x="1016.308594"/>
     <use xlink:href="#DejaVuSans-65" x="1079.6875"/>
     <use xlink:href="#DejaVuSans-20" x="1141.210938"/>
     <use xlink:href="#DejaVuSans-4f" x="1172.998047"/>
     <use xlink:href="#DejaVuSans-70" x="1251.708984"/>
     <use xlink:href="#DejaVuSans-65" x="1315.185547"/>
     <use xlink:href="#DejaVuSans-6e" x="1376.708984"/>
     <use xlink:href="#DejaVuSans-53" x="1440.087891"/>
     <use xlink:href="#DejaVuSans-74" x="1503.564453"/>
     <use xlink:href="#DejaVuSans-72" x="1542.773438"/>
     <use xlink:href="#DejaVuSans-65" x="1581.636719"/>
     <use xlink:href="#DejaVuSans-65" x="1643.160156"/>
     <use xlink:href="#DejaVuSans-74" x="1704.683594"/>
     <use xlink:href="#DejaVuSans-4d" x="1743.892578"/>
     <use xlink:href="#DejaVuSans-61" x="1830.171875"/>
     <use xlink:href="#DejaVuSans-70" x="1891.451172"/>
     <use xlink:href="#DejaVuSans-20" x="1954.927734"/>
     <use xlink:href="#DejaVuSans-64" x="1986.714844"/>
     <use xlink:href="#DejaVuSans-61" x="2050.191406"/>
     <use xlink:href="#DejaVuSans-74" x="2111.470703"/>
     <use xlink:href="#DejaVuSans-61" x="2150.679688"/>
     <use xlink:href="#DejaVuSans-62" x="2211.958984"/>
     <use xlink:href="#DejaVuSans-61" x="2275.435547"/>
     <use xlink:href="#DejaVuSans-73" x="2336.714844"/>
     <use xlink:href="#DejaVuSans-65" x="2388.814453"/>
     <use xlink:href="#DejaVuSans-20" x="2450.337891"/>
     <use xlink:href="#DejaVuSans-69" x="2482.125"/>
     <use xlink:href="#DejaVuSans-6e" x="2509.908203"/>
     <use xlink:href="#DejaVuSans-20" x="2573.287109"/>
     <use xlink:href="#DejaVuSans-50" x="2605.074219"/>
     <use xlink:href="#DejaVuSans-6f" x="2661.751953"/>
     <use xlink:href="#DejaVuSans-6c" x="2722.933594"/>
     <use xlink:href="#DejaVuSans-61" x="2750.716797"/>
     <use xlink:href="#DejaVuSans-6e" x="2811.996094"/>
     <use xlink:href="#DejaVuSans-64" x="2875.375"/>
     <use xlink:href="#DejaVuSans-20" x="2938.851562"/>
     <use xlink:href="#DejaVuSans-66" x="2970.638672"/>
     <use xlink:href="#DejaVuSans-72" x="3005.84375"/>
     <use xlink:href="#DejaVuSans-6f" x="3044.707031"/>
     <use xlink:href="#DejaVuSans-6d" x="3105.888672"/>
     <use xlink:href="#DejaVuSans-20" x="3203.300781"/>
     <use xlink:href="#DejaVuSans-32" x="3235.087891"/>
     <use xlink:href="#DejaVuSans-30" x="3298.710938"/>
     <use xlink:href="#DejaVuSans-32" x="3362.333984"/>
     <use xlink:href="#DejaVuSans-35" x="3425.957031"/>
     <use xlink:href="#DejaVuSans-2d" x="3489.580078"/>
     <use xlink:href="#DejaVuSans-30" x="3525.664062"/>
     <use xlink:href="#DejaVuSans-31" x="3589.287109"/>
     <use xlink:href="#DejaVuSans-2d" x="3652.910156"/>
     <use xlink:href="#DejaVuSans-30" x="3688.994141"/>
     <use xlink:href="#DejaVuSans-31" x="3752.617188"/>
     <use xlink:href="#DejaVuSans-2c" x="3816.240234"/>
     <use xlink:href="#DejaVuSans-20" x="3848.027344"/>
     <use xlink:href="#DejaVuSans-64" x="3879.814453"/>
     <use xlink:href="#DejaVuSans-61" x="3943.291016"/>
     <use xlink:href="#DejaVuSans-79" x="4004.570312"/>
     <use xlink:href="#DejaVuSans-20" x="4063.75"/>
     <use xlink:href="#DejaVuSans-62" x="4095.537109"/>
     <use xlink:href="#DejaVuSans-79" x="4159.013672"/>
     <use xlink:href="#DejaVuSans-20" x="4218.193359"/>
     <use xlink:href="#DejaVuSans-64" x="4249.980469"/>
     <use xlink:href="#DejaVuSans-61" x="4313.457031"/>
     <use xlink:href="#DejaVuSans-79" x="4374.736328"/>
     <use xlink:href="#DejaVuSans-2e" x="4419.666016"/>
     <use xlink:href="#DejaVuSans-20" x="4451.453125"/>
     <use xlink:href="#DejaVuSans-41" x="4483.240234"/>
     <use xlink:href="#DejaVuSans-73" x="4551.648438"/>
     <use xlink:href="#DejaVuSans-20" x="4603.748047"/>
     <use xlink:href="#DejaVuSans-61" x="4635.535156"/>
     <use xlink:href="#DejaVuSans-74" x="4696.814453"/>
     <use xlink:href="#DejaVuSans-3a" x="4736.023438"/>
     <use xlink:href="#DejaVuSans-20" x="4769.714844"/>
     <use xlink:href="#DejaVuSans-32" x="4801.501953"/>
     <use xlink:href="#DejaVuSans-30" x="4865.125"/>
     <use xlink:href="#DejaVuSans-32" x="4928.748047"/>
     <use xlink:href="#DejaVuSans-35" x="4992.371094"/>
     <use xlink:href="#DejaVuSans-2d" x="5055.994141"/>
     <use xlink:href="#DejaVuSans-30" x="5092.078125"/>
     <use xlink:href="#DejaVuSans-33" x="5155.701172"/>
     <use xlink:href="#DejaVuSans-2d" x="5219.324219"/>
     <use xlink:href="#DejaVuSans-30" x="5255.408203"/>
     <use xlink:href="#DejaVuSans-39" x="5319.03125"/>
    </g>
   </g>
  </g>
 </g>
 <defs>
  <clipPath id="p1056ebec1b">
   <rect x="144" y="69.12" width="892.8" height="443.52"/>
  </clipPath>
 </defs>
</svg>
