<?xml version="1.0" encoding="utf-8" standalone="no"?>
<!DOCTYPE svg PUBLIC "-//W3C//DTD SVG 1.1//EN"
  "http://www.w3.org/Graphics/SVG/1.1/DTD/svg11.dtd">
<svg xmlns:xlink="http://www.w3.org/1999/xlink" width="1152pt" height="576pt" viewBox="0 0 1152 576" xmlns="http://www.w3.org/2000/svg" version="1.1">
 <metadata>
  <rdf:RDF xmlns:dc="http://purl.org/dc/elements/1.1/" xmlns:cc="http://creativecommons.org/ns#" xmlns:rdf="http://www.w3.org/1999/02/22-rdf-syntax-ns#">
   <cc:Work>
    <dc:type rdf:resource="http://purl.org/dc/dcmitype/StillImage"/>
    <dc:date>1980-01-01T00:00:00+00:00</dc:date>
    <dc:format>image/svg+xml</dc:format>
    <dc:creator>
     <cc:Agent>
      <dc:title>Matplotlib v3.9.1, https://matplotlib.org/</dc:title>
     </cc:Agent>
    </dc:creator>
   </cc:Work>
  </rdf:RDF>
 </metadata>
 <defs>
  <style type="text/css">*{stroke-linejoin: round; stroke-linecap: butt}</style>
 </defs>
 <g id="figure_1">
  <g id="patch_1">
   <path d="M 0 576 
L 1152 576 
L 1152 0 
L 0 0 
z
" style="fill: #ffffff"/>
  </g>
  <g id="axes_1">
   <g id="patch_2">
    <path d="M 144 512.64 
L 1036.8 512.64 
L 1036.8 69.12 
L 144 69.12 
z
" style="fill: #ffffff"/>
   </g>
   <g id="PathCollection_1">
    <path d="M 184.581818 496.352983 
C 185.608945 496.352983 186.594142 495.944901 187.320431 495.218613 
C 188.04672 494.492324 188.454802 493.507127 188.454802 492.48 
C 188.454802 491.452873 188.04672 490.467676 187.320431 489.741387 
C 186.594142 489.015099 185.608945 488.607017 184.581818 488.607017 
C 183.554691 488.607017 182.569494 489.015099 181.843205 489.741387 
C 181.116917 490.467676 180.708835 491.452873 180.708835 492.48 
C 180.708835 493.507127 181.116917 494.492324 181.843205 495.218613 
C 182.569494 495.944901 183.554691 496.352983 184.581818 496.352983 
z
" clip-path="url(#pb6920b392e)" style="fill: #1f77b4; fill-opacity: 0.3; stroke: #1f77b4; stroke-opacity: 0.3"/>
    <path d="M 204.377827 491.333658 
C 206.156864 491.333658 207.863275 490.62684 209.121244 489.368871 
C 210.379212 488.110902 211.086031 486.404491 211.086031 484.625455 
C 211.086031 482.846418 210.379212 481.140007 209.121244 479.882038 
C 207.863275 478.624069 206.156864 477.917251 204.377827 477.917251 
C 202.598791 477.917251 200.892379 478.624069 199.634411 479.882038 
C 198.376442 481.140007 197.669623 482.846418 197.669623 484.625455 
C 197.669623 486.404491 198.376442 488.110902 199.634411 489.368871 
C 200.892379 490.62684 202.598791 491.333658 204.377827 491.333658 
z
" clip-path="url(#pb6920b392e)" style="fill: #1f77b4; fill-opacity: 0.3; stroke: #1f77b4; stroke-opacity: 0.3"/>
    <path d="M 224.173836 480.773873 
C 226.392684 480.773873 228.520953 479.892315 230.089916 478.323353 
C 231.658878 476.75439 232.540436 474.626121 232.540436 472.407273 
C 232.540436 470.188424 231.658878 468.060156 230.089916 466.491193 
C 228.520953 464.92223 226.392684 464.040672 224.173836 464.040672 
C 221.954988 464.040672 219.826719 464.92223 218.257756 466.491193 
C 216.688793 468.060156 215.807236 470.188424 215.807236 472.407273 
C 215.807236 474.626121 216.688793 476.75439 218.257756 478.323353 
C 219.826719 479.892315 221.954988 480.773873 224.173836 480.773873 
z
" clip-path="url(#pb6920b392e)" style="fill: #1f77b4; fill-opacity: 0.3; stroke: #1f77b4; stroke-opacity: 0.3"/>
    <path d="M 243.969845 472.851317 
C 245.360582 472.851317 246.694545 472.298771 247.677944 471.315372 
C 248.661343 470.331973 249.213889 468.99801 249.213889 467.607273 
C 249.213889 466.216536 248.661343 464.882573 247.677944 463.899173 
C 246.694545 462.915774 245.360582 462.363228 243.969845 462.363228 
C 242.579108 462.363228 241.245145 462.915774 240.261746 463.899173 
C 239.278346 464.882573 238.725801 466.216536 238.725801 467.607273 
C 238.725801 468.99801 239.278346 470.331973 240.261746 471.315372 
C 241.245145 472.298771 242.579108 472.851317 243.969845 472.851317 
z
" clip-path="url(#pb6920b392e)" style="fill: #1f77b4; fill-opacity: 0.3; stroke: #1f77b4; stroke-opacity: 0.3"/>
    <path d="M 263.765854 468.960988 
C 264.703488 468.960988 265.602846 468.588462 266.265854 467.925455 
C 266.928861 467.262447 267.301388 466.363089 267.301388 465.425455 
C 267.301388 464.48782 266.928861 463.588462 266.265854 462.925455 
C 265.602846 462.262447 264.703488 461.889921 263.765854 461.889921 
C 262.828219 461.889921 261.928861 462.262447 261.265854 462.925455 
C 260.602846 463.588462 260.23032 464.48782 260.23032 465.425455 
C 260.23032 466.363089 260.602846 467.262447 261.265854 467.925455 
C 261.928861 468.588462 262.828219 468.960988 263.765854 468.960988 
z
" clip-path="url(#pb6920b392e)" style="fill: #1f77b4; fill-opacity: 0.3; stroke: #1f77b4; stroke-opacity: 0.3"/>
    <path d="M 283.561863 464.526475 
C 285.290775 464.526475 286.949109 463.839571 288.171635 462.617045 
C 289.394161 461.394519 290.081065 459.736185 290.081065 458.007273 
C 290.081065 456.27836 289.394161 454.620026 288.171635 453.3975 
C 286.949109 452.174975 285.290775 451.48807 283.561863 451.48807 
C 281.83295 451.48807 280.174616 452.174975 278.95209 453.3975 
C 277.729564 454.620026 277.04266 456.27836 277.04266 458.007273 
C 277.04266 459.736185 277.729564 461.394519 278.95209 462.617045 
C 280.174616 463.839571 281.83295 464.526475 283.561863 464.526475 
z
" clip-path="url(#pb6920b392e)" style="fill: #1f77b4; fill-opacity: 0.3; stroke: #1f77b4; stroke-opacity: 0.3"/>
    <path d="M 303.357871 457.35001 
C 305.035163 457.35001 306.643983 456.683615 307.830007 455.497591 
C 309.016032 454.311566 309.682427 452.702746 309.682427 451.025455 
C 309.682427 449.348163 309.016032 447.739343 307.830007 446.553319 
C 306.643983 445.367294 305.035163 444.700899 303.357871 444.700899 
C 301.68058 444.700899 300.07176 445.367294 298.885735 446.553319 
C 297.699711 447.739343 297.033316 449.348163 297.033316 451.025455 
C 297.033316 452.702746 297.699711 454.311566 298.885735 455.497591 
C 300.07176 456.683615 301.68058 457.35001 303.357871 457.35001 
z
" clip-path="url(#pb6920b392e)" style="fill: #1f77b4; fill-opacity: 0.3; stroke: #1f77b4; stroke-opacity: 0.3"/>
    <path d="M 323.15388 443.570909 
C 325.805911 443.570909 328.349679 442.517246 330.224948 440.641977 
C 332.100217 438.766708 333.15388 436.22294 333.15388 433.570909 
C 333.15388 430.918878 332.100217 428.37511 330.224948 426.499841 
C 328.349679 424.624572 325.805911 423.570909 323.15388 423.570909 
C 320.501849 423.570909 317.958082 424.624572 316.082812 426.499841 
C 314.207543 428.37511 313.15388 430.918878 313.15388 433.570909 
C 313.15388 436.22294 314.207543 438.766708 316.082812 440.641977 
C 317.958082 442.517246 320.501849 443.570909 323.15388 443.570909 
z
" clip-path="url(#pb6920b392e)" style="fill: #1f77b4; fill-opacity: 0.3; stroke: #1f77b4; stroke-opacity: 0.3"/>
    <path d="M 342.949889 431.914704 
C 344.825158 431.914704 346.623874 431.169652 347.949889 429.843636 
C 349.275905 428.517621 350.020957 426.718905 350.020957 424.843636 
C 350.020957 422.968367 349.275905 421.169652 347.949889 419.843636 
C 346.623874 418.517621 344.825158 417.772569 342.949889 417.772569 
C 341.07462 417.772569 339.275905 418.517621 337.949889 419.843636 
C 336.623874 421.169652 335.878821 422.968367 335.878821 424.843636 
C 335.878821 426.718905 336.623874 428.517621 337.949889 429.843636 
C 339.275905 431.169652 341.07462 431.914704 342.949889 431.914704 
z
" clip-path="url(#pb6920b392e)" style="fill: #1f77b4; fill-opacity: 0.3; stroke: #1f77b4; stroke-opacity: 0.3"/>
    <path d="M 362.745898 425.48 
C 364.071914 425.48 365.343797 424.953168 366.281432 424.015534 
C 367.219066 423.077899 367.745898 421.806015 367.745898 420.48 
C 367.745898 419.153984 367.219066 417.882101 366.281432 416.944466 
C 365.343797 416.006832 364.071914 415.48 362.745898 415.48 
C 361.419883 415.48 360.147999 416.006832 359.210364 416.944466 
C 358.27273 417.882101 357.745898 419.153984 357.745898 420.48 
C 357.745898 421.806015 358.27273 423.077899 359.210364 424.015534 
C 360.147999 424.953168 361.419883 425.48 362.745898 425.48 
z
" clip-path="url(#pb6920b392e)" style="fill: #1f77b4; fill-opacity: 0.3; stroke: #1f77b4; stroke-opacity: 0.3"/>
    <path d="M 382.541907 421.843341 
C 383.134919 421.843341 383.703723 421.607734 384.123046 421.188412 
C 384.542369 420.769089 384.777975 420.200285 384.777975 419.607273 
C 384.777975 419.014261 384.542369 418.445457 384.123046 418.026134 
C 383.703723 417.606811 383.134919 417.371205 382.541907 417.371205 
C 381.948895 417.371205 381.380091 417.606811 380.960768 418.026134 
C 380.541445 418.445457 380.305839 419.014261 380.305839 419.607273 
C 380.305839 420.200285 380.541445 420.769089 380.960768 421.188412 
C 381.380091 421.607734 381.948895 421.843341 382.541907 421.843341 
z
" clip-path="url(#pb6920b392e)" style="fill: #1f77b4; fill-opacity: 0.3; stroke: #1f77b4; stroke-opacity: 0.3"/>
    <path d="M 402.337916 410.895361 
C 405.119389 410.895361 407.787315 409.79027 409.754114 407.823471 
C 411.720913 405.856672 412.826004 403.188746 412.826004 400.407273 
C 412.826004 397.625799 411.720913 394.957873 409.754114 392.991074 
C 407.787315 391.024275 405.119389 389.919184 402.337916 389.919184 
C 399.556442 389.919184 396.888516 391.024275 394.921717 392.991074 
C 392.954918 394.957873 391.849827 397.625799 391.849827 400.407273 
C 391.849827 403.188746 392.954918 405.856672 394.921717 407.823471 
C 396.888516 409.79027 399.556442 410.895361 402.337916 410.895361 
z
" clip-path="url(#pb6920b392e)" style="fill: #1f77b4; fill-opacity: 0.3; stroke: #1f77b4; stroke-opacity: 0.3"/>
    <path d="M 422.133925 397.403876 
C 424.230539 397.403876 426.241564 396.570882 427.724095 395.088352 
C 429.206625 393.605821 430.039619 391.594796 430.039619 389.498182 
C 430.039619 387.401567 429.206625 385.390542 427.724095 383.908012 
C 426.241564 382.425481 424.230539 381.592488 422.133925 381.592488 
C 420.03731 381.592488 418.026285 382.425481 416.543755 383.908012 
C 415.061224 385.390542 414.22823 387.401567 414.22823 389.498182 
C 414.22823 391.594796 415.061224 393.605821 416.543755 395.088352 
C 418.026285 396.570882 420.03731 397.403876 422.133925 397.403876 
z
" clip-path="url(#pb6920b392e)" style="fill: #1f77b4; fill-opacity: 0.3; stroke: #1f77b4; stroke-opacity: 0.3"/>
    <path d="M 441.929933 389.526332 
C 443.441824 389.526332 444.891994 388.925651 445.961062 387.856583 
C 447.03013 386.787516 447.630811 385.337345 447.630811 383.825455 
C 447.630811 382.313564 447.03013 380.863394 445.961062 379.794326 
C 444.891994 378.725258 443.441824 378.124577 441.929933 378.124577 
C 440.418043 378.124577 438.967872 378.725258 437.898805 379.794326 
C 436.829737 380.863394 436.229056 382.313564 436.229056 383.825455 
C 436.229056 385.337345 436.829737 386.787516 437.898805 387.856583 
C 438.967872 388.925651 440.418043 389.526332 441.929933 389.526332 
z
" clip-path="url(#pb6920b392e)" style="fill: #1f77b4; fill-opacity: 0.3; stroke: #1f77b4; stroke-opacity: 0.3"/>
    <path d="M 461.725942 378.208635 
C 464.170994 378.208635 466.516232 377.237206 468.245145 375.508293 
C 469.974057 373.779381 470.945487 371.434143 470.945487 368.989091 
C 470.945487 366.544039 469.974057 364.198801 468.245145 362.469889 
C 466.516232 360.740976 464.170994 359.769546 461.725942 359.769546 
C 459.280891 359.769546 456.935653 360.740976 455.20674 362.469889 
C 453.477827 364.198801 452.506398 366.544039 452.506398 368.989091 
C 452.506398 371.434143 453.477827 373.779381 455.20674 375.508293 
C 456.935653 377.237206 459.280891 378.208635 461.725942 378.208635 
z
" clip-path="url(#pb6920b392e)" style="fill: #1f77b4; fill-opacity: 0.3; stroke: #1f77b4; stroke-opacity: 0.3"/>
    <path d="M 481.521951 360.593675 
C 484.271635 360.593675 486.90907 359.501214 488.85339 357.556894 
C 490.797711 355.612573 491.890172 352.975139 491.890172 350.225455 
C 491.890172 347.47577 490.797711 344.838336 488.85339 342.894015 
C 486.90907 340.949695 484.271635 339.857234 481.521951 339.857234 
C 478.772267 339.857234 476.134832 340.949695 474.190512 342.894015 
C 472.246192 344.838336 471.153731 347.47577 471.153731 350.225455 
C 471.153731 352.975139 472.246192 355.612573 474.190512 357.556894 
C 476.134832 359.501214 478.772267 360.593675 481.521951 360.593675 
z
" clip-path="url(#pb6920b392e)" style="fill: #1f77b4; fill-opacity: 0.3; stroke: #1f77b4; stroke-opacity: 0.3"/>
    <path d="M 501.31796 351.642278 
C 502.156606 351.642278 502.961016 351.30908 503.554028 350.716068 
C 504.14704 350.123056 504.480238 349.318646 504.480238 348.48 
C 504.480238 347.641354 504.14704 346.836944 503.554028 346.243932 
C 502.961016 345.65092 502.156606 345.317722 501.31796 345.317722 
C 500.479314 345.317722 499.674904 345.65092 499.081892 346.243932 
C 498.48888 346.836944 498.155682 347.641354 498.155682 348.48 
C 498.155682 349.318646 498.48888 350.123056 499.081892 350.716068 
C 499.674904 351.30908 500.479314 351.642278 501.31796 351.642278 
z
" clip-path="url(#pb6920b392e)" style="fill: #1f77b4; fill-opacity: 0.3; stroke: #1f77b4; stroke-opacity: 0.3"/>
    <path d="M 521.113969 348.924044 
C 522.504706 348.924044 523.838669 348.371499 524.822068 347.388099 
C 525.805468 346.4047 526.358013 345.070737 526.358013 343.68 
C 526.358013 342.289263 525.805468 340.9553 524.822068 339.971901 
C 523.838669 338.988501 522.504706 338.435956 521.113969 338.435956 
C 519.723232 338.435956 518.389269 338.988501 517.40587 339.971901 
C 516.42247 340.9553 515.869925 342.289263 515.869925 343.68 
C 515.869925 345.070737 516.42247 346.4047 517.40587 347.388099 
C 518.389269 348.371499 519.723232 348.924044 521.113969 348.924044 
z
" clip-path="url(#pb6920b392e)" style="fill: #1f77b4; fill-opacity: 0.3; stroke: #1f77b4; stroke-opacity: 0.3"/>
    <path d="M 540.909978 340.11402 
C 543.088844 340.11402 545.178762 339.248348 546.719453 337.707657 
C 548.260144 336.166966 549.125816 334.077048 549.125816 331.898182 
C 549.125816 329.719316 548.260144 327.629398 546.719453 326.088707 
C 545.178762 324.548016 543.088844 323.682343 540.909978 323.682343 
C 538.731112 323.682343 536.641194 324.548016 535.100503 326.088707 
C 533.559812 327.629398 532.694139 329.719316 532.694139 331.898182 
C 532.694139 334.077048 533.559812 336.166966 535.100503 337.707657 
C 536.641194 339.248348 538.731112 340.11402 540.909978 340.11402 
z
" clip-path="url(#pb6920b392e)" style="fill: #1f77b4; fill-opacity: 0.3; stroke: #1f77b4; stroke-opacity: 0.3"/>
    <path d="M 560.705987 331.705171 
C 562.274949 331.705171 563.779863 331.081815 564.889287 329.972391 
C 565.998711 328.862967 566.622066 327.358054 566.622066 325.789091 
C 566.622066 324.220128 565.998711 322.715215 564.889287 321.605791 
C 563.779863 320.496367 562.274949 319.873011 560.705987 319.873011 
C 559.137024 319.873011 557.632111 320.496367 556.522687 321.605791 
C 555.413262 322.715215 554.789907 324.220128 554.789907 325.789091 
C 554.789907 327.358054 555.413262 328.862967 556.522687 329.972391 
C 557.632111 331.081815 559.137024 331.705171 560.705987 331.705171 
z
" clip-path="url(#pb6920b392e)" style="fill: #1f77b4; fill-opacity: 0.3; stroke: #1f77b4; stroke-opacity: 0.3"/>
    <path d="M 580.501996 315.151249 
C 583.467056 315.151249 586.311075 313.973218 588.40769 311.876603 
C 590.504304 309.779989 591.682335 306.93597 591.682335 303.970909 
C 591.682335 301.005848 590.504304 298.16183 588.40769 296.065215 
C 586.311075 293.9686 583.467056 292.790569 580.501996 292.790569 
C 577.536935 292.790569 574.692916 293.9686 572.596301 296.065215 
C 570.499687 298.16183 569.321656 301.005848 569.321656 303.970909 
C 569.321656 306.93597 570.499687 309.779989 572.596301 311.876603 
C 574.692916 313.973218 577.536935 315.151249 580.501996 315.151249 
z
" clip-path="url(#pb6920b392e)" style="fill: #1f77b4; fill-opacity: 0.3; stroke: #1f77b4; stroke-opacity: 0.3"/>
    <path d="M 600.298004 300.404929 
C 602.47687 300.404929 604.566789 299.539257 606.107479 297.998566 
C 607.64817 296.457875 608.513843 294.367957 608.513843 292.189091 
C 608.513843 290.010225 607.64817 287.920307 606.107479 286.379616 
C 604.566789 284.838925 602.47687 283.973253 600.298004 283.973253 
C 598.119139 283.973253 596.02922 284.838925 594.488529 286.379616 
C 592.947839 287.920307 592.082166 290.010225 592.082166 292.189091 
C 592.082166 294.367957 592.947839 296.457875 594.488529 297.998566 
C 596.02922 299.539257 598.119139 300.404929 600.298004 300.404929 
z
" clip-path="url(#pb6920b392e)" style="fill: #1f77b4; fill-opacity: 0.3; stroke: #1f77b4; stroke-opacity: 0.3"/>
    <path d="M 620.094013 288.337509 
C 622.312862 288.337509 624.44113 287.455952 626.010093 285.886989 
C 627.579056 284.318026 628.460614 282.189757 628.460614 279.970909 
C 628.460614 277.752061 627.579056 275.623792 626.010093 274.054829 
C 624.44113 272.485867 622.312862 271.604309 620.094013 271.604309 
C 617.875165 271.604309 615.746896 272.485867 614.177934 274.054829 
C 612.608971 275.623792 611.727413 277.752061 611.727413 279.970909 
C 611.727413 282.189757 612.608971 284.318026 614.177934 285.886989 
C 615.746896 287.455952 617.875165 288.337509 620.094013 288.337509 
z
" clip-path="url(#pb6920b392e)" style="fill: #1f77b4; fill-opacity: 0.3; stroke: #1f77b4; stroke-opacity: 0.3"/>
    <path d="M 639.890022 275.540254 
C 642.186748 275.540254 644.389716 274.627755 646.013747 273.003724 
C 647.637777 271.379694 648.550276 269.176726 648.550276 266.88 
C 648.550276 264.583274 647.637777 262.380306 646.013747 260.756276 
C 644.389716 259.132245 642.186748 258.219746 639.890022 258.219746 
C 637.593296 258.219746 635.390328 259.132245 633.766298 260.756276 
C 632.142267 262.380306 631.229768 264.583274 631.229768 266.88 
C 631.229768 269.176726 632.142267 271.379694 633.766298 273.003724 
C 635.390328 274.627755 637.593296 275.540254 639.890022 275.540254 
z
" clip-path="url(#pb6920b392e)" style="fill: #1f77b4; fill-opacity: 0.3; stroke: #1f77b4; stroke-opacity: 0.3"/>
    <path d="M 659.686031 268.296823 
C 660.524677 268.296823 661.329087 267.963626 661.922099 267.370613 
C 662.515111 266.777601 662.848309 265.973191 662.848309 265.134545 
C 662.848309 264.2959 662.515111 263.49149 661.922099 262.898477 
C 661.329087 262.305465 660.524677 261.972268 659.686031 261.972268 
C 658.847385 261.972268 658.042975 262.305465 657.449963 262.898477 
C 656.856951 263.49149 656.523753 264.2959 656.523753 265.134545 
C 656.523753 265.973191 656.856951 266.777601 657.449963 267.370613 
C 658.042975 267.963626 658.847385 268.296823 659.686031 268.296823 
z
" clip-path="url(#pb6920b392e)" style="fill: #1f77b4; fill-opacity: 0.3; stroke: #1f77b4; stroke-opacity: 0.3"/>
    <path d="M 679.48204 266.389347 
C 680.509167 266.389347 681.494364 265.981265 682.220653 265.254976 
C 682.946941 264.528688 683.355023 263.543491 683.355023 262.516364 
C 683.355023 261.489236 682.946941 260.504039 682.220653 259.777751 
C 681.494364 259.051462 680.509167 258.64338 679.48204 258.64338 
C 678.454913 258.64338 677.469716 259.051462 676.743427 259.777751 
C 676.017139 260.504039 675.609057 261.489236 675.609057 262.516364 
C 675.609057 263.543491 676.017139 264.528688 676.743427 265.254976 
C 677.469716 265.981265 678.454913 266.389347 679.48204 266.389347 
z
" clip-path="url(#pb6920b392e)" style="fill: #1f77b4; fill-opacity: 0.3; stroke: #1f77b4; stroke-opacity: 0.3"/>
    <path d="M 699.278049 255.68134 
C 701.862929 255.68134 704.342287 254.654356 706.170073 252.82657 
C 707.997859 250.998784 709.024843 248.519426 709.024843 245.934545 
C 709.024843 243.349665 707.997859 240.870307 706.170073 239.042521 
C 704.342287 237.214735 701.862929 236.187751 699.278049 236.187751 
C 696.693169 236.187751 694.213811 237.214735 692.386024 239.042521 
C 690.558238 240.870307 689.531254 243.349665 689.531254 245.934545 
C 689.531254 248.519426 690.558238 250.998784 692.386024 252.82657 
C 694.213811 254.654356 696.693169 255.68134 699.278049 255.68134 
z
" clip-path="url(#pb6920b392e)" style="fill: #1f77b4; fill-opacity: 0.3; stroke: #1f77b4; stroke-opacity: 0.3"/>
    <path d="M 719.074058 234.645391 
C 722.097838 234.645391 724.99818 233.44403 727.136315 231.305894 
C 729.274451 229.167758 730.475812 226.267417 730.475812 223.243636 
C 730.475812 220.219856 729.274451 217.319514 727.136315 215.181379 
C 724.99818 213.043243 722.097838 211.841882 719.074058 211.841882 
C 716.050277 211.841882 713.149936 213.043243 711.0118 215.181379 
C 708.873664 217.319514 707.672303 220.219856 707.672303 223.243636 
C 707.672303 226.267417 708.873664 229.167758 711.0118 231.305894 
C 713.149936 233.44403 716.050277 234.645391 719.074058 234.645391 
z
" clip-path="url(#pb6920b392e)" style="fill: #1f77b4; fill-opacity: 0.3; stroke: #1f77b4; stroke-opacity: 0.3"/>
    <path d="M 738.870067 217.926587 
C 741.278893 217.926587 743.589385 216.96955 745.292683 215.266253 
C 746.995981 213.562955 747.953018 211.252463 747.953018 208.843636 
C 747.953018 206.43481 746.995981 204.124318 745.292683 202.42102 
C 743.589385 200.717722 741.278893 199.760685 738.870067 199.760685 
C 736.46124 199.760685 734.150748 200.717722 732.44745 202.42102 
C 730.744152 204.124318 729.787115 206.43481 729.787115 208.843636 
C 729.787115 211.252463 730.744152 213.562955 732.44745 215.266253 
C 734.150748 216.96955 736.46124 217.926587 738.870067 217.926587 
z
" clip-path="url(#pb6920b392e)" style="fill: #1f77b4; fill-opacity: 0.3; stroke: #1f77b4; stroke-opacity: 0.3"/>
    <path d="M 758.666075 205.277657 
C 760.844941 205.277657 762.93486 204.411984 764.47555 202.871293 
C 766.016241 201.330602 766.881914 199.240684 766.881914 197.061818 
C 766.881914 194.882952 766.016241 192.793034 764.47555 191.252343 
C 762.93486 189.711652 760.844941 188.84598 758.666075 188.84598 
C 756.48721 188.84598 754.397291 189.711652 752.8566 191.252343 
C 751.31591 192.793034 750.450237 194.882952 750.450237 197.061818 
C 750.450237 199.240684 751.31591 201.330602 752.8566 202.871293 
C 754.397291 204.411984 756.48721 205.277657 758.666075 205.277657 
z
" clip-path="url(#pb6920b392e)" style="fill: #1f77b4; fill-opacity: 0.3; stroke: #1f77b4; stroke-opacity: 0.3"/>
    <path d="M 778.462084 198.478641 
C 779.30073 198.478641 780.10514 198.145444 780.698152 197.552432 
C 781.291164 196.959419 781.624362 196.155009 781.624362 195.316364 
C 781.624362 194.477718 781.291164 193.673308 780.698152 193.080296 
C 780.10514 192.487283 779.30073 192.154086 778.462084 192.154086 
C 777.623438 192.154086 776.819028 192.487283 776.226016 193.080296 
C 775.633004 193.673308 775.299807 194.477718 775.299807 195.316364 
C 775.299807 196.155009 775.633004 196.959419 776.226016 197.552432 
C 776.819028 198.145444 777.623438 198.478641 778.462084 198.478641 
z
" clip-path="url(#pb6920b392e)" style="fill: #1f77b4; fill-opacity: 0.3; stroke: #1f77b4; stroke-opacity: 0.3"/>
    <path d="M 798.258093 195.557226 
C 799.71067 195.557226 801.103949 194.980111 802.131076 193.952983 
C 803.158204 192.925856 803.735319 191.532577 803.735319 190.08 
C 803.735319 188.627423 803.158204 187.234144 802.131076 186.207017 
C 801.103949 185.179889 799.71067 184.602774 798.258093 184.602774 
C 796.805516 184.602774 795.412237 185.179889 794.38511 186.207017 
C 793.357983 187.234144 792.780868 188.627423 792.780868 190.08 
C 792.780868 191.532577 793.357983 192.925856 794.38511 193.952983 
C 795.412237 194.980111 796.805516 195.557226 798.258093 195.557226 
z
" clip-path="url(#pb6920b392e)" style="fill: #1f77b4; fill-opacity: 0.3; stroke: #1f77b4; stroke-opacity: 0.3"/>
    <path d="M 818.054102 186.796803 
C 820.192238 186.796803 822.243089 185.947313 823.754979 184.435423 
C 825.266869 182.923532 826.11636 180.872681 826.11636 178.734545 
C 826.11636 176.59641 825.266869 174.545559 823.754979 173.033668 
C 822.243089 171.521778 820.192238 170.672288 818.054102 170.672288 
C 815.915966 170.672288 813.865115 171.521778 812.353225 173.033668 
C 810.841335 174.545559 809.991844 176.59641 809.991844 178.734545 
C 809.991844 180.872681 810.841335 182.923532 812.353225 184.435423 
C 813.865115 185.947313 815.915966 186.796803 818.054102 186.796803 
z
" clip-path="url(#pb6920b392e)" style="fill: #1f77b4; fill-opacity: 0.3; stroke: #1f77b4; stroke-opacity: 0.3"/>
    <path d="M 837.850111 175.168566 
C 840.028977 175.168566 842.118895 174.302893 843.659586 172.762202 
C 845.200277 171.221512 846.065949 169.131593 846.065949 166.952727 
C 846.065949 164.773861 845.200277 162.683943 843.659586 161.143252 
C 842.118895 159.602561 840.028977 158.736889 837.850111 158.736889 
C 835.671245 158.736889 833.581327 159.602561 832.040636 161.143252 
C 830.499945 162.683943 829.634273 164.773861 829.634273 166.952727 
C 829.634273 169.131593 830.499945 171.221512 832.040636 172.762202 
C 833.581327 174.302893 835.671245 175.168566 837.850111 175.168566 
z
" clip-path="url(#pb6920b392e)" style="fill: #1f77b4; fill-opacity: 0.3; stroke: #1f77b4; stroke-opacity: 0.3"/>
    <path d="M 857.64612 167.933954 
C 858.832144 167.933954 859.969752 167.462742 860.808397 166.624096 
C 861.647043 165.78545 862.118256 164.647843 862.118256 163.461818 
C 862.118256 162.275794 861.647043 161.138186 860.808397 160.299541 
C 859.969752 159.460895 858.832144 158.989682 857.64612 158.989682 
C 856.460095 158.989682 855.322488 159.460895 854.483842 160.299541 
C 853.645196 161.138186 853.173984 162.275794 853.173984 163.461818 
C 853.173984 164.647843 853.645196 165.78545 854.483842 166.624096 
C 855.322488 167.462742 856.460095 167.933954 857.64612 167.933954 
z
" clip-path="url(#pb6920b392e)" style="fill: #1f77b4; fill-opacity: 0.3; stroke: #1f77b4; stroke-opacity: 0.3"/>
    <path d="M 877.442129 158.737954 
C 879.77682 158.737954 882.016202 157.810371 883.667078 156.159495 
C 885.317954 154.508619 886.245537 152.269237 886.245537 149.934545 
C 886.245537 147.599854 885.317954 145.360472 883.667078 143.709596 
C 882.016202 142.05872 879.77682 141.131137 877.442129 141.131137 
C 875.107437 141.131137 872.868055 142.05872 871.217179 143.709596 
C 869.566303 145.360472 868.63872 147.599854 868.63872 149.934545 
C 868.63872 152.269237 869.566303 154.508619 871.217179 156.159495 
C 872.868055 157.810371 875.107437 158.737954 877.442129 158.737954 
z
" clip-path="url(#pb6920b392e)" style="fill: #1f77b4; fill-opacity: 0.3; stroke: #1f77b4; stroke-opacity: 0.3"/>
    <path d="M 897.238137 148.788204 
C 899.017174 148.788204 900.723585 148.081385 901.981554 146.823416 
C 903.239523 145.565448 903.946341 143.859036 903.946341 142.08 
C 903.946341 140.300964 903.239523 138.594552 901.981554 137.336584 
C 900.723585 136.078615 899.017174 135.371796 897.238137 135.371796 
C 895.459101 135.371796 893.75269 136.078615 892.494721 137.336584 
C 891.236752 138.594552 890.529934 140.300964 890.529934 142.08 
C 890.529934 143.859036 891.236752 145.565448 892.494721 146.823416 
C 893.75269 148.081385 895.459101 148.788204 897.238137 148.788204 
z
" clip-path="url(#pb6920b392e)" style="fill: #1f77b4; fill-opacity: 0.3; stroke: #1f77b4; stroke-opacity: 0.3"/>
    <path d="M 917.034146 141.65827 
C 918.658177 141.65827 920.21591 141.013036 921.364273 139.864672 
C 922.512636 138.716309 923.157871 137.158576 923.157871 135.534545 
C 923.157871 133.910515 922.512636 132.352782 921.364273 131.204418 
C 920.21591 130.056055 918.658177 129.410821 917.034146 129.410821 
C 915.410116 129.410821 913.852382 130.056055 912.704019 131.204418 
C 911.555656 132.352782 910.910422 133.910515 910.910422 135.534545 
C 910.910422 137.158576 911.555656 138.716309 912.704019 139.864672 
C 913.852382 141.013036 915.410116 141.65827 917.034146 141.65827 
z
" clip-path="url(#pb6920b392e)" style="fill: #1f77b4; fill-opacity: 0.3; stroke: #1f77b4; stroke-opacity: 0.3"/>
    <path d="M 936.830155 127.767865 
C 939.515132 127.767865 942.0905 126.701112 943.989066 124.802547 
C 945.887631 122.903982 946.954384 120.328613 946.954384 117.643636 
C 946.954384 114.95866 945.887631 112.383291 943.989066 110.484726 
C 942.0905 108.586161 939.515132 107.519408 936.830155 107.519408 
C 934.145178 107.519408 931.56981 108.586161 929.671245 110.484726 
C 927.772679 112.383291 926.705927 114.95866 926.705927 117.643636 
C 926.705927 120.328613 927.772679 122.903982 929.671245 124.802547 
C 931.56981 126.701112 934.145178 127.767865 936.830155 127.767865 
z
" clip-path="url(#pb6920b392e)" style="fill: #1f77b4; fill-opacity: 0.3; stroke: #1f77b4; stroke-opacity: 0.3"/>
    <path d="M 956.626164 117.221906 
C 958.250195 117.221906 959.807928 116.576672 960.956291 115.428309 
C 962.104654 114.279946 962.749888 112.722213 962.749888 111.098182 
C 962.749888 109.474151 962.104654 107.916418 960.956291 106.768055 
C 959.807928 105.619692 958.250195 104.974457 956.626164 104.974457 
C 955.002133 104.974457 953.4444 105.619692 952.296037 106.768055 
C 951.147674 107.916418 950.50244 109.474151 950.50244 111.098182 
C 950.50244 112.722213 951.147674 114.279946 952.296037 115.428309 
C 953.4444 116.576672 955.002133 117.221906 956.626164 117.221906 
z
" clip-path="url(#pb6920b392e)" style="fill: #1f77b4; fill-opacity: 0.3; stroke: #1f77b4; stroke-opacity: 0.3"/>
    <path d="M 976.422173 104.875924 
C 978.93811 104.875924 981.35134 103.876331 983.130377 102.097295 
C 984.909413 100.318258 985.909006 97.905028 985.909006 95.389091 
C 985.909006 92.873153 984.909413 90.459923 983.130377 88.680887 
C 981.35134 86.90185 978.93811 85.902258 976.422173 85.902258 
C 973.906235 85.902258 971.493005 86.90185 969.713969 88.680887 
C 967.934933 90.459923 966.93534 92.873153 966.93534 95.389091 
C 966.93534 97.905028 967.934933 100.318258 969.713969 102.097295 
C 971.493005 103.876331 973.906235 104.875924 976.422173 104.875924 
z
" clip-path="url(#pb6920b392e)" style="fill: #1f77b4; fill-opacity: 0.3; stroke: #1f77b4; stroke-opacity: 0.3"/>
    <path d="M 996.218182 95.19608 
C 997.787145 95.19608 999.292058 94.572724 1000.401482 93.4633 
C 1001.510906 92.353876 1002.134262 90.848963 1002.134262 89.28 
C 1002.134262 87.711037 1001.510906 86.206124 1000.401482 85.0967 
C 999.292058 83.987276 997.787145 83.36392 996.218182 83.36392 
C 994.649219 83.36392 993.144306 83.987276 992.034882 85.0967 
C 990.925458 86.206124 990.302102 87.711037 990.302102 89.28 
C 990.302102 90.848963 990.925458 92.353876 992.034882 93.4633 
C 993.144306 94.572724 994.649219 95.19608 996.218182 95.19608 
z
" clip-path="url(#pb6920b392e)" style="fill: #1f77b4; fill-opacity: 0.3; stroke: #1f77b4; stroke-opacity: 0.3"/>
   </g>
   <g id="matplotlib.axis_1">
    <g id="xtick_1">
     <g id="line2d_1">
      <defs>
       <path id="m3cf885df10" d="M 0 0 
L 0 3.5 
" style="stroke: #000000; stroke-width: 0.8"/>
      </defs>
      <g>
       <use xlink:href="#m3cf885df10" x="184.581818" y="512.64" style="stroke: #000000; stroke-width: 0.8"/>
      </g>
     </g>
     <g id="text_1">
      <!-- 2026-01-01 -->
      <g transform="translate(155.524006 527.238438) scale(0.1 -0.1)">
       <defs>
        <path id="DejaVuSans-32" d="M 1228 531 
L 3431 531 
L 3431 0 
L 469 0 
L 469 531 
Q 828 903 1448 1529 
Q 2069 2156 2228 2338 
Q 2531 2678 2651 2914 
Q 2772 3150 2772 3378 
Q 2772 3750 2511 3984 
Q 2250 4219 1831 4219 
Q 1534 4219 1204 4116 
Q 875 4013 500 3803 
L 500 4441 
Q 881 4594 1212 4672 
Q 1544 4750 1819 4750 
Q 2544 4750 2975 4387 
Q 3406 4025 3406 3419 
Q 3406 3131 3298 2873 
Q 3191 2616 2906 2266 
Q 2828 2175 2409 1742 
Q 1991 1309 1228 531 
z
" transform="scale(0.015625)"/>
        <path id="DejaVuSans-30" d="M 2034 4250 
Q 1547 4250 1301 3770 
Q 1056 3291 1056 2328 
Q 1056 1369 1301 889 
Q 1547 409 2034 409 
Q 2525 409 2770 889 
Q 3016 1369 3016 2328 
Q 3016 3291 2770 3770 
Q 2525 4250 2034 4250 
z
M 2034 4750 
Q 2819 4750 3233 4129 
Q 3647 3509 3647 2328 
Q 3647 1150 3233 529 
Q 2819 -91 2034 -91 
Q 1250 -91 836 529 
Q 422 1150 422 2328 
Q 422 3509 836 4129 
Q 1250 4750 2034 4750 
z
" transform="scale(0.015625)"/>
        <path id="DejaVuSans-36" d="M 2113 2584 
Q 1688 2584 1439 2293 
Q 1191 2003 1191 1497 
Q 1191 994 1439 701 
Q 1688 409 2113 409 
Q 2538 409 2786 701 
Q 3034 994 3034 1497 
Q 3034 2003 2786 2293 
Q 2538 2584 2113 2584 
z
M 3366 4563 
L 3366 3988 
Q 3128 4100 2886 4159 
Q 2644 4219 2406 4219 
Q 1781 4219 1451 3797 
Q 1122 3375 1075 2522 
Q 1259 2794 1537 2939 
Q 1816 3084 2150 3084 
Q 2853 3084 3261 2657 
Q 3669 2231 3669 1497 
Q 3669 778 3244 343 
Q 2819 -91 2113 -91 
Q 1303 -91 875 529 
Q 447 1150 447 2328 
Q 447 3434 972 4092 
Q 1497 4750 2381 4750 
Q 2619 4750 2861 4703 
Q 3103 4656 3366 4563 
z
" transform="scale(0.015625)"/>
        <path id="DejaVuSans-2d" d="M 313 2009 
L 1997 2009 
L 1997 1497 
L 313 1497 
L 313 2009 
z
" transform="scale(0.015625)"/>
        <path id="DejaVuSans-31" d="M 794 531 
L 1825 531 
L 1825 4091 
L 703 3866 
L 703 4441 
L 1819 4666 
L 2450 4666 
L 2450 531 
L 3481 531 
L 3481 0 
L 794 0 
L 794 531 
z
" transform="scale(0.015625)"/>
       </defs>
       <use xlink:href="#DejaVuSans-32"/>
       <use xlink:href="#DejaVuSans-30" x="63.623047"/>
       <use xlink:href="#DejaVuSans-32" x="127.246094"/>
       <use xlink:href="#DejaVuSans-36" x="190.869141"/>
       <use xlink:href="#DejaVuSans-2d" x="254.492188"/>
       <use xlink:href="#DejaVuSans-30" x="290.576172"/>
       <use xlink:href="#DejaVuSans-31" x="354.199219"/>
       <use xlink:href="#DejaVuSans-2d" x="417.822266"/>
       <use xlink:href="#DejaVuSans-30" x="453.90625"/>
       <use xlink:href="#DejaVuSans-31" x="517.529297"/>
      </g>
     </g>
    </g>
    <g id="xtick_2">
     <g id="line2d_2">
      <g>
       <use xlink:href="#m3cf885df10" x="323.15388" y="512.64" style="stroke: #000000; stroke-width: 0.8"/>
      </g>
     </g>
     <g id="text_2">
      <!-- 2026-01-08 -->
      <g transform="translate(294.096068 527.238438) scale(0.1 -0.1)">
       <defs>
        <path id="DejaVuSans-38" d="M 2034 2216 
Q 1584 2216 1326 1975 
Q 1069 1734 1069 1313 
Q 1069 891 1326 650 
Q 1584 409 2034 409 
Q 2484 409 2743 651 
Q 3003 894 3003 1313 
Q 3003 1734 2745 1975 
Q 2488 2216 2034 2216 
z
M 1403 2484 
Q 997 2584 770 2862 
Q 544 3141 544 3541 
Q 544 4100 942 4425 
Q 1341 4750 2034 4750 
Q 2731 4750 3128 4425 
Q 3525 4100 3525 3541 
Q 3525 3141 3298 2862 
Q 3072 2584 2669 2484 
Q 3125 2378 3379 2068 
Q 3634 1759 3634 1313 
Q 3634 634 3220 271 
Q 2806 -91 2034 -91 
Q 1263 -91 848 271 
Q 434 634 434 1313 
Q 434 1759 690 2068 
Q 947 2378 1403 2484 
z
M 1172 3481 
Q 1172 3119 1398 2916 
Q 1625 2713 2034 2713 
Q 2441 2713 2670 2916 
Q 2900 3119 2900 3481 
Q 2900 3844 2670 4047 
Q 2441 4250 2034 4250 
Q 1625 4250 1398 4047 
Q 1172 3844 1172 3481 
z
" transform="scale(0.015625)"/>
       </defs>
       <use xlink:href="#DejaVuSans-32"/>
       <use xlink:href="#DejaVuSans-30" x="63.623047"/>
       <use xlink:href="#DejaVuSans-32" x="127.246094"/>
       <use xlink:href="#DejaVuSans-36" x="190.869141"/>
       <use xlink:href="#DejaVuSans-2d" x="254.492188"/>
       <use xlink:href="#DejaVuSans-30" x="290.576172"/>
       <use xlink:href="#DejaVuSans-31" x="354.199219"/>
       <use xlink:href="#DejaVuSans-2d" x="417.822266"/>
       <use xlink:href="#DejaVuSans-30" x="453.90625"/>
       <use xlink:href="#DejaVuSans-38" x="517.529297"/>
      </g>
     </g>
    </g>
    <g id="xtick_3">
     <g id="line2d_3">
      <g>
       <use xlink:href="#m3cf885df10" x="461.725942" y="512.64" style="stroke: #000000; stroke-width: 0.8"/>
      </g>
     </g>
     <g id="text_3">
      <!-- 2026-01-15 -->
      <g transform="translate(432.66813 527.238438) scale(0.1 -0.1)">
       <defs>
        <path id="DejaVuSans-35" d="M 691 4666 
L 3169 4666 
L 3169 4134 
L 1269 4134 
L 1269 2991 
Q 1406 3038 1543 3061 
Q 1681 3084 1819 3084 
Q 2600 3084 3056 2656 
Q 3513 2228 3513 1497 
Q 3513 744 3044 326 
Q 2575 -91 1722 -91 
Q 1428 -91 1123 -41 
Q 819 9 494 109 
L 494 744 
Q 775 591 1075 516 
Q 1375 441 1709 441 
Q 2250 441 2565 725 
Q 2881 1009 2881 1497 
Q 2881 1984 2565 2268 
Q 2250 2553 1709 2553 
Q 1456 2553 1204 2497 
Q 953 2441 691 2322 
L 691 4666 
z
" transform="scale(0.015625)"/>
       </defs>
       <use xlink:href="#DejaVuSans-32"/>
       <use xlink:href="#DejaVuSans-30" x="63.623047"/>
       <use xlink:href="#DejaVuSans-32" x="127.246094"/>
       <use xlink:href="#DejaVuSans-36" x="190.869141"/>
       <use xlink:href="#DejaVuSans-2d" x="254.492188"/>
       <use xlink:href="#DejaVuSans-30" x="290.576172"/>
       <use xlink:href="#DejaVuSans-31" x="354.199219"/>
       <use xlink:href="#DejaVuSans-2d" x="417.822266"/>
       <use xlink:href="#DejaVuSans-31" x="453.90625"/>
       <use xlink:href="#DejaVuSans-35" x="517.529297"/>
      </g>
     </g>
    </g>
    <g id="xtick_4">
     <g id="line2d_4">
      <g>
       <use xlink:href="#m3cf885df10" x="600.298004" y="512.64" style="stroke: #000000; stroke-width: 0.8"/>
      </g>
     </g>
     <g id="text_4">
      <!-- 2026-01-22 -->
      <g transform="translate(571.240192 527.238438) scale(0.1 -0.1)">
       <use xlink:href="#DejaVuSans-32"/>
       <use xlink:href="#DejaVuSans-30" x="63.623047"/>
       <use xlink:href="#DejaVuSans-32" x="127.246094"/>
       <use xlink:href="#DejaVuSans-36" x="190.869141"/>
       <use xlink:href="#DejaVuSans-2d" x="254.492188"/>
       <use xlink:href="#DejaVuSans-30" x="290.576172"/>
       <use xlink:href="#DejaVuSans-31" x="354.199219"/>
       <use xlink:href="#DejaVuSans-2d" x="417.822266"/>
       <use xlink:href="#DejaVuSans-32" x="453.90625"/>
       <use xlink:href="#DejaVuSans-32" x="517.529297"/>
      </g>
     </g>
    </g>
    <g id="xtick_5">
     <g id="line2d_5">
      <g>
       <use xlink:href="#m3cf885df10" x="798.258093" y="512.64" style="stroke: #000000; stroke-width: 0.8"/>
      </g>
     </g>
     <g id="text_5">
      <!-- 2026-02-01 -->
      <g transform="translate(769.200281 527.238438) scale(0.1 -0.1)">
       <use xlink:href="#DejaVuSans-32"/>
       <use xlink:href="#DejaVuSans-30" x="63.623047"/>
       <use xlink:href="#DejaVuSans-32" x="127.246094"/>
       <use xlink:href="#DejaVuSans-36" x="190.869141"/>
       <use xlink:href="#DejaVuSans-2d" x="254.492188"/>
       <use xlink:href="#DejaVuSans-30" x="290.576172"/>
       <use xlink:href="#DejaVuSans-32" x="354.199219"/>
       <use xlink:href="#DejaVuSans-2d" x="417.822266"/>
       <use xlink:href="#DejaVuSans-30" x="453.90625"/>
       <use xlink:href="#DejaVuSans-31" x="517.529297"/>
      </g>
     </g>
    </g>
    <g id="xtick_6">
     <g id="line2d_6">
      <g>
       <use xlink:href="#m3cf885df10" x="936.830155" y="512.64" style="stroke: #000000; stroke-width: 0.8"/>
      </g>
     </g>
     <g id="text_6">
      <!-- 2026-02-08 -->
      <g transform="translate(907.772343 527.238438) scale(0.1 -0.1)">
       <use xlink:href="#DejaVuSans-32"/>
       <use xlink:href="#DejaVuSans-30" x="63.623047"/>
       <use xlink:href="#DejaVuSans-32" x="127.246094"/>
       <use xlink:href="#DejaVuSans-36" x="190.869141"/>
       <use xlink:href="#DejaVuSans-2d" x="254.492188"/>
       <use xlink:href="#DejaVuSans-30" x="290.576172"/>
       <use xlink:href="#DejaVuSans-32" x="354.199219"/>
       <use xlink:href="#DejaVuSans-2d" x="417.822266"/>
       <use xlink:href="#DejaVuSans-30" x="453.90625"/>
       <use xlink:href="#DejaVuSans-38" x="517.529297"/>
      </g>
     </g>
    </g>
   </g>
   <g id="matplotlib.axis_2">
    <g id="ytick_1">
     <g id="line2d_7">
      <defs>
       <path id="m4d6cb77e8e" d="M 0 0 
L -3.5 0 
" style="stroke: #000000; stroke-width: 0.8"/>
      </defs>
      <g>
       <use xlink:href="#m4d6cb77e8e" x="144" y="486.370909" style="stroke: #000000; stroke-width: 0.8"/>
      </g>
     </g>
     <g id="text_7">
      <!-- 13200 -->
      <g transform="translate(105.1875 490.170128) scale(0.1 -0.1)">
       <defs>
        <path id="DejaVuSans-33" d="M 2597 2516 
Q 3050 2419 3304 2112 
Q 3559 1806 3559 1356 
Q 3559 666 3084 287 
Q 2609 -91 1734 -91 
Q 1441 -91 1130 -33 
Q 819 25 488 141 
L 488 750 
Q 750 597 1062 519 
Q 1375 441 1716 441 
Q 2309 441 2620 675 
Q 2931 909 2931 1356 
Q 2931 1769 2642 2001 
Q 2353 2234 1838 2234 
L 1294 2234 
L 1294 2753 
L 1863 2753 
Q 2328 2753 2575 2939 
Q 2822 3125 2822 3475 
Q 2822 3834 2567 4026 
Q 2313 4219 1838 4219 
Q 1578 4219 1281 4162 
Q 984 4106 628 3988 
L 628 4550 
Q 988 4650 1302 4700 
Q 1616 4750 1894 4750 
Q 2613 4750 3031 4423 
Q 3450 4097 3450 3541 
Q 3450 3153 3228 2886 
Q 3006 2619 2597 2516 
z
" transform="scale(0.015625)"/>
       </defs>
       <use xlink:href="#DejaVuSans-31"/>
       <use xlink:href="#DejaVuSans-33" x="63.623047"/>
       <use xlink:href="#DejaVuSans-32" x="127.246094"/>
       <use xlink:href="#DejaVuSans-30" x="190.869141"/>
       <use xlink:href="#DejaVuSans-30" x="254.492188"/>
      </g>
     </g>
    </g>
    <g id="ytick_2">
     <g id="line2d_8">
      <g>
       <use xlink:href="#m4d6cb77e8e" x="144" y="399.098182" style="stroke: #000000; stroke-width: 0.8"/>
      </g>
     </g>
     <g id="text_8">
      <!-- 13400 -->
      <g transform="translate(105.1875 402.897401) scale(0.1 -0.1)">
       <defs>
        <path id="DejaVuSans-34" d="M 2419 4116 
L 825 1625 
L 2419 1625 
L 2419 4116 
z
M 2253 4666 
L 3047 4666 
L 3047 1625 
L 3713 1625 
L 3713 1100 
L 3047 1100 
L 3047 0 
L 2419 0 
L 2419 1100 
L 313 1100 
L 313 1709 
L 2253 4666 
z
" transform="scale(0.015625)"/>
       </defs>
       <use xlink:href="#DejaVuSans-31"/>
       <use xlink:href="#DejaVuSans-33" x="63.623047"/>
       <use xlink:href="#DejaVuSans-34" x="127.246094"/>
       <use xlink:href="#DejaVuSans-30" x="190.869141"/>
       <use xlink:href="#DejaVuSans-30" x="254.492188"/>
      </g>
     </g>
    </g>
    <g id="ytick_3">
     <g id="line2d_9">
      <g>
       <use xlink:href="#m4d6cb77e8e" x="144" y="311.825455" style="stroke: #000000; stroke-width: 0.8"/>
      </g>
     </g>
     <g id="text_9">
      <!-- 13600 -->
      <g transform="translate(105.1875 315.624673) scale(0.1 -0.1)">
       <use xlink:href="#DejaVuSans-31"/>
       <use xlink:href="#DejaVuSans-33" x="63.623047"/>
       <use xlink:href="#DejaVuSans-36" x="127.246094"/>
       <use xlink:href="#DejaVuSans-30" x="190.869141"/>
       <use xlink:href="#DejaVuSans-30" x="254.492188"/>
      </g>
     </g>
    </g>
    <g id="ytick_4">
     <g id="line2d_10">
      <g>
       <use xlink:href="#m4d6cb77e8e" x="144" y="224.552727" style="stroke: #000000; stroke-width: 0.8"/>
      </g>
     </g>
     <g id="text_10">
      <!-- 13800 -->
      <g transform="translate(105.1875 228.351946) scale(0.1 -0.1)">
       <use xlink:href="#DejaVuSans-31"/>
       <use xlink:href="#DejaVuSans-33" x="63.623047"/>
       <use xlink:href="#DejaVuSans-38" x="127.246094"/>
       <use xlink:href="#DejaVuSans-30" x="190.869141"/>
       <use xlink:href="#DejaVuSans-30" x="254.492188"/>
      </g>
     </g>
    </g>
    <g id="ytick_5">
     <g id="line2d_11">
      <g>
       <use xlink:href="#m4d6cb77e8e" x="144" y="137.28" style="stroke: #000000; stroke-width: 0.8"/>
      </g>
     </g>
     <g id="text_11">
      <!-- 14000 -->
      <g transform="translate(105.1875 141.079219) scale(0.1 -0.1)">
       <use xlink:href="#DejaVuSans-31"/>
       <use xlink:href="#DejaVuSans-34" x="63.623047"/>
       <use xlink:href="#DejaVuSans-30" x="127.246094"/>
       <use xlink:href="#DejaVuSans-30" x="190.869141"/>
       <use xlink:href="#DejaVuSans-30" x="254.492188"/>
      </g>
     </g>
    </g>
   </g>
   <g id="line2d_12">
    <path d="M 184.581818 492.48 
L 204.377827 484.625455 
L 224.173836 472.407273 
L 243.969845 467.607273 
L 263.765854 465.425455 
L 283.561863 458.007273 
L 303.357871 451.025455 
L 323.15388 433.570909 
L 342.949889 424.843636 
L 362.745898 420.48 
L 382.541907 419.607273 
L 402.337916 400.407273 
L 422.133925 389.498182 
L 441.929933 383.825455 
L 461.725942 368.989091 
L 481.521951 350.225455 
L 501.31796 348.48 
L 521.113969 343.68 
L 540.909978 331.898182 
L 560.705987 325.789091 
L 580.501996 303.970909 
L 600.298004 292.189091 
L 620.094013 279.970909 
L 639.890022 266.88 
L 659.686031 265.134545 
L 679.48204 262.516364 
L 699.278049 245.934545 
L 719.074058 223.243636 
L 738.870067 208.843636 
L 758.666075 197.061818 
L 778.462084 195.316364 
L 798.258093 190.08 
L 818.054102 178.734545 
L 837.850111 166.952727 
L 857.64612 163.461818 
L 877.442129 149.934545 
L 897.238137 142.08 
L 917.034146 135.534545 
L 936.830155 117.643636 
L 956.626164 111.098182 
L 976.422173 95.389091 
L 996.218182 89.28 
" clip-path="url(#pb6920b392e)" style="fill: none; stroke: #1f77b4; stroke-width: 1.5; stroke-linecap: square"/>
   </g>
   <g id="patch_3">
    <path d="M 144 512.64 
L 144 69.12 
" style="fill: none; stroke: #000000; stroke-width: 0.8; stroke-linejoin: miter; stroke-linecap: square"/>
   </g>
   <g id="patch_4">
    <path d="M 1036.8 512.64 
L 1036.8 69.12 
" style="fill: none; stroke: #000000; stroke-width: 0.8; stroke-linejoin: miter; stroke-linecap: square"/>
   </g>
   <g id="patch_5">
    <path d="M 144 512.64 
L 1036.8 512.64 
" style="fill: none; stroke: #000000; stroke-width: 0.8; stroke-linejoin: miter; stroke-linecap: square"/>
   </g>
   <g id="patch_6">
    <path d="M 144 69.12 
L 1036.8 69.12 
" style="fill: none; stroke: #000000; stroke-width: 0.8; stroke-linejoin: miter; stroke-linecap: square"/>
   </g>
   <g id="text_12">
    <!-- Number of AEDs in the OpenStreetMap database in Poland from 2026-01-01, day by day. As at: 2026-02-11 -->
    <g transform="translate(144 63.12) scale(0.14 -0.14)">
     <defs>
      <path id="DejaVuSans-4e" d="M 628 4666 
L 1478 4666 
L 3547 763 
L 3547 4666 
L 4159 4666 
L 4159 0 
L 3309 0 
L 1241 3903 
L 1241 0 
L 628 0 
L 628 4666 
z
" transform="scale(0.015625)"/>
      <path id="DejaVuSans-75" d="M 544 1381 
L 544 3500 
L 1119 3500 
L 1119 1403 
Q 1119 906 1312 657 
Q 1506 409 1894 409 
Q 2359 409 2629 706 
Q 2900 1003 2900 1516 
L 2900 3500 
L 3475 3500 
L 3475 0 
L 2900 0 
L 2900 538 
Q 2691 219 2414 64 
Q 2138 -91 1772 -91 
Q 1169 -91 856 284 
Q 544 659 544 1381 
z
M 1991 3584 
L 1991 3584 
z
" transform="scale(0.015625)"/>
      <path id="DejaVuSans-6d" d="M 3328 2828 
Q 3544 3216 3844 3400 
Q 4144 3584 4550 3584 
Q 5097 3584 5394 3201 
Q 5691 2819 5691 2113 
L 5691 0 
L 5113 0 
L 5113 2094 
Q 5113 2597 4934 2840 
Q 4756 3084 4391 3084 
Q 3944 3084 3684 2787 
Q 3425 2491 3425 1978 
L 3425 0 
L 2847 0 
L 2847 2094 
Q 2847 2600 2669 2842 
Q 2491 3084 2119 3084 
Q 1678 3084 1418 2786 
Q 1159 2488 1159 1978 
L 1159 0 
L 581 0 
L 581 3500 
L 1159 3500 
L 1159 2956 
Q 1356 3278 1631 3431 
Q 1906 3584 2284 3584 
Q 2666 3584 2933 3390 
Q 3200 3197 3328 2828 
z
" transform="scale(0.015625)"/>
      <path id="DejaVuSans-62" d="M 3116 1747 
Q 3116 2381 2855 2742 
Q 2594 3103 2138 3103 
Q 1681 3103 1420 2742 
Q 1159 2381 1159 1747 
Q 1159 1113 1420 752 
Q 1681 391 2138 391 
Q 2594 391 2855 752 
Q 3116 1113 3116 1747 
z
M 1159 2969 
Q 1341 3281 1617 3432 
Q 1894 3584 2278 3584 
Q 2916 3584 3314 3078 
Q 3713 2572 3713 1747 
Q 3713 922 3314 415 
Q 2916 -91 2278 -91 
Q 1894 -91 1617 61 
Q 1341 213 1159 525 
L 1159 0 
L 581 0 
L 581 4863 
L 1159 4863 
L 1159 2969 
z
" transform="scale(0.015625)"/>
      <path id="DejaVuSans-65" d="M 3597 1894 
L 3597 1613 
L 953 1613 
Q 991 1019 1311 708 
Q 1631 397 2203 397 
Q 2534 397 2845 478 
Q 3156 559 3463 722 
L 3463 178 
Q 3153 47 2828 -22 
Q 2503 -91 2169 -91 
Q 1331 -91 842 396 
Q 353 884 353 1716 
Q 353 2575 817 3079 
Q 1281 3584 2069 3584 
Q 2775 3584 3186 3129 
Q 3597 2675 3597 1894 
z
M 3022 2063 
Q 3016 2534 2758 2815 
Q 2500 3097 2075 3097 
Q 1594 3097 1305 2825 
Q 1016 2553 972 2059 
L 3022 2063 
z
" transform="scale(0.015625)"/>
      <path id="DejaVuSans-72" d="M 2631 2963 
Q 2534 3019 2420 3045 
Q 2306 3072 2169 3072 
Q 1681 3072 1420 2755 
Q 1159 2438 1159 1844 
L 1159 0 
L 581 0 
L 581 3500 
L 1159 3500 
L 1159 2956 
Q 1341 3275 1631 3429 
Q 1922 3584 2338 3584 
Q 2397 3584 2469 3576 
Q 2541 3569 2628 3553 
L 2631 2963 
z
" transform="scale(0.015625)"/>
      <path id="DejaVuSans-20" transform="scale(0.015625)"/>
      <path id="DejaVuSans-6f" d="M 1959 3097 
Q 1497 3097 1228 2736 
Q 959 2375 959 1747 
Q 959 1119 1226 758 
Q 1494 397 1959 397 
Q 2419 397 2687 759 
Q 2956 1122 2956 1747 
Q 2956 2369 2687 2733 
Q 2419 3097 1959 3097 
z
M 1959 3584 
Q 2709 3584 3137 3096 
Q 3566 2609 3566 1747 
Q 3566 888 3137 398 
Q 2709 -91 1959 -91 
Q 1206 -91 779 398 
Q 353 888 353 1747 
Q 353 2609 779 3096 
Q 1206 3584 1959 3584 
z
" transform="scale(0.015625)"/>
      <path id="DejaVuSans-66" d="M 2375 4863 
L 2375 4384 
L 1825 4384 
Q 1516 4384 1395 4259 
Q 1275 4134 1275 3809 
L 1275 3500 
L 2222 3500 
L 2222 3053 
L 1275 3053 
L 1275 0 
L 697 0 
L 697 3053 
L 147 3053 
L 147 3500 
L 697 3500 
L 697 3744 
Q 697 4328 969 4595 
Q 1241 4863 1831 4863 
L 2375 4863 
z
" transform="scale(0.015625)"/>
      <path id="DejaVuSans-41" d="M 2188 4044 
L 1331 1722 
L 3047 1722 
L 2188 4044 
z
M 1831 4666 
L 2547 4666 
L 4325 0 
L 3669 0 
L 3244 1197 
L 1141 1197 
L 716 0 
L 50 0 
L 1831 4666 
z
" transform="scale(0.015625)"/>
      <path id="DejaVuSans-45" d="M 628 4666 
L 3578 4666 
L 3578 4134 
L 1259 4134 
L 1259 2753 
L 3481 2753 
L 3481 2222 
L 1259 2222 
L 1259 531 
L 3634 531 
L 3634 0 
L 628 0 
L 628 4666 
z
" transform="scale(0.015625)"/>
      <path id="DejaVuSans-44" d="M 1259 4147 
L 1259 519 
L 2022 519 
Q 2988 519 3436 956 
Q 3884 1394 3884 2338 
Q 3884 3275 3436 3711 
Q 2988 4147 2022 4147 
L 1259 4147 
z
M 628 4666 
L 1925 4666 
Q 3281 4666 3915 4102 
Q 4550 3538 4550 2338 
Q 4550 1131 3912 565 
Q 3275 0 1925 0 
L 628 0 
L 628 4666 
z
" transform="scale(0.015625)"/>
      <path id="DejaVuSans-73" d="M 2834 3397 
L 2834 2853 
Q 2591 2978 2328 3040 
Q 2066 3103 1784 3103 
Q 1356 3103 1142 2972 
Q 928 2841 928 2578 
Q 928 2378 1081 2264 
Q 1234 2150 1697 2047 
L 1894 2003 
Q 2506 1872 2764 1633 
Q 3022 1394 3022 966 
Q 3022 478 2636 193 
Q 2250 -91 1575 -91 
Q 1294 -91 989 -36 
Q 684 19 347 128 
L 347 722 
Q 666 556 975 473 
Q 1284 391 1588 391 
Q 1994 391 2212 530 
Q 2431 669 2431 922 
Q 2431 1156 2273 1281 
Q 2116 1406 1581 1522 
L 1381 1569 
Q 847 1681 609 1914 
Q 372 2147 372 2553 
Q 372 3047 722 3315 
Q 1072 3584 1716 3584 
Q 2034 3584 2315 3537 
Q 2597 3491 2834 3397 
z
" transform="scale(0.015625)"/>
      <path id="DejaVuSans-69" d="M 603 3500 
L 1178 3500 
L 1178 0 
L 603 0 
L 603 3500 
z
M 603 4863 
L 1178 4863 
L 1178 4134 
L 603 4134 
L 603 4863 
z
" transform="scale(0.015625)"/>
      <path id="DejaVuSans-6e" d="M 3513 2113 
L 3513 0 
L 2938 0 
L 2938 2094 
Q 2938 2591 2744 2837 
Q 2550 3084 2163 3084 
Q 1697 3084 1428 2787 
Q 1159 2491 1159 1978 
L 1159 0 
L 581 0 
L 581 3500 
L 1159 3500 
L 1159 2956 
Q 1366 3272 1645 3428 
Q 1925 3584 2291 3584 
Q 2894 3584 3203 3211 
Q 3513 2838 3513 2113 
z
" transform="scale(0.015625)"/>
      <path id="DejaVuSans-74" d="M 1172 4494 
L 1172 3500 
L 2356 3500 
L 2356 3053 
L 1172 3053 
L 1172 1153 
Q 1172 725 1289 603 
Q 1406 481 1766 481 
L 2356 481 
L 2356 0 
L 1766 0 
Q 1100 0 847 248 
Q 594 497 594 1153 
L 594 3053 
L 172 3053 
L 172 3500 
L 594 3500 
L 594 4494 
L 1172 4494 
z
" transform="scale(0.015625)"/>
      <path id="DejaVuSans-68" d="M 3513 2113 
L 3513 0 
L 2938 0 
L 2938 2094 
Q 2938 2591 2744 2837 
Q 2550 3084 2163 3084 
Q 1697 3084 1428 2787 
Q 1159 2491 1159 1978 
L 1159 0 
L 581 0 
L 581 4863 
L 1159 4863 
L 1159 2956 
Q 1366 3272 1645 3428 
Q 1925 3584 2291 3584 
Q 2894 3584 3203 3211 
Q 3513 2838 3513 2113 
z
" transform="scale(0.015625)"/>
      <path id="DejaVuSans-4f" d="M 2522 4238 
Q 1834 4238 1429 3725 
Q 1025 3213 1025 2328 
Q 1025 1447 1429 934 
Q 1834 422 2522 422 
Q 3209 422 3611 934 
Q 4013 1447 4013 2328 
Q 4013 3213 3611 3725 
Q 3209 4238 2522 4238 
z
M 2522 4750 
Q 3503 4750 4090 4092 
Q 4678 3434 4678 2328 
Q 4678 1225 4090 567 
Q 3503 -91 2522 -91 
Q 1538 -91 948 565 
Q 359 1222 359 2328 
Q 359 3434 948 4092 
Q 1538 4750 2522 4750 
z
" transform="scale(0.015625)"/>
      <path id="DejaVuSans-70" d="M 1159 525 
L 1159 -1331 
L 581 -1331 
L 581 3500 
L 1159 3500 
L 1159 2969 
Q 1341 3281 1617 3432 
Q 1894 3584 2278 3584 
Q 2916 3584 3314 3078 
Q 3713 2572 3713 1747 
Q 3713 922 3314 415 
Q 2916 -91 2278 -91 
Q 1894 -91 1617 61 
Q 1341 213 1159 525 
z
M 3116 1747 
Q 3116 2381 2855 2742 
Q 2594 3103 2138 3103 
Q 1681 3103 1420 2742 
Q 1159 2381 1159 1747 
Q 1159 1113 1420 752 
Q 1681 391 2138 391 
Q 2594 391 2855 752 
Q 3116 1113 3116 1747 
z
" transform="scale(0.015625)"/>
      <path id="DejaVuSans-53" d="M 3425 4513 
L 3425 3897 
Q 3066 4069 2747 4153 
Q 2428 4238 2131 4238 
Q 1616 4238 1336 4038 
Q 1056 3838 1056 3469 
Q 1056 3159 1242 3001 
Q 1428 2844 1947 2747 
L 2328 2669 
Q 3034 2534 3370 2195 
Q 3706 1856 3706 1288 
Q 3706 609 3251 259 
Q 2797 -91 1919 -91 
Q 1588 -91 1214 -16 
Q 841 59 441 206 
L 441 856 
Q 825 641 1194 531 
Q 1563 422 1919 422 
Q 2459 422 2753 634 
Q 3047 847 3047 1241 
Q 3047 1584 2836 1778 
Q 2625 1972 2144 2069 
L 1759 2144 
Q 1053 2284 737 2584 
Q 422 2884 422 3419 
Q 422 4038 858 4394 
Q 1294 4750 2059 4750 
Q 2388 4750 2728 4690 
Q 3069 4631 3425 4513 
z
" transform="scale(0.015625)"/>
      <path id="DejaVuSans-4d" d="M 628 4666 
L 1569 4666 
L 2759 1491 
L 3956 4666 
L 4897 4666 
L 4897 0 
L 4281 0 
L 4281 4097 
L 3078 897 
L 2444 897 
L 1241 4097 
L 1241 0 
L 628 0 
L 628 4666 
z
" transform="scale(0.015625)"/>
      <path id="DejaVuSans-61" d="M 2194 1759 
Q 1497 1759 1228 1600 
Q 959 1441 959 1056 
Q 959 750 1161 570 
Q 1363 391 1709 391 
Q 2188 391 2477 730 
Q 2766 1069 2766 1631 
L 2766 1759 
L 2194 1759 
z
M 3341 1997 
L 3341 0 
L 2766 0 
L 2766 531 
Q 2569 213 2275 61 
Q 1981 -91 1556 -91 
Q 1019 -91 701 211 
Q 384 513 384 1019 
Q 384 1609 779 1909 
Q 1175 2209 1959 2209 
L 2766 2209 
L 2766 2266 
Q 2766 2663 2505 2880 
Q 2244 3097 1772 3097 
Q 1472 3097 1187 3025 
Q 903 2953 641 2809 
L 641 3341 
Q 956 3463 1253 3523 
Q 1550 3584 1831 3584 
Q 2591 3584 2966 3190 
Q 3341 2797 3341 1997 
z
" transform="scale(0.015625)"/>
      <path id="DejaVuSans-64" d="M 2906 2969 
L 2906 4863 
L 3481 4863 
L 3481 0 
L 2906 0 
L 2906 525 
Q 2725 213 2448 61 
Q 2172 -91 1784 -91 
Q 1150 -91 751 415 
Q 353 922 353 1747 
Q 353 2572 751 3078 
Q 1150 3584 1784 3584 
Q 2172 3584 2448 3432 
Q 2725 3281 2906 2969 
z
M 947 1747 
Q 947 1113 1208 752 
Q 1469 391 1925 391 
Q 2381 391 2643 752 
Q 2906 1113 2906 1747 
Q 2906 2381 2643 2742 
Q 2381 3103 1925 3103 
Q 1469 3103 1208 2742 
Q 947 2381 947 1747 
z
" transform="scale(0.015625)"/>
      <path id="DejaVuSans-50" d="M 1259 4147 
L 1259 2394 
L 2053 2394 
Q 2494 2394 2734 2622 
Q 2975 2850 2975 3272 
Q 2975 3691 2734 3919 
Q 2494 4147 2053 4147 
L 1259 4147 
z
M 628 4666 
L 2053 4666 
Q 2838 4666 3239 4311 
Q 3641 3956 3641 3272 
Q 3641 2581 3239 2228 
Q 2838 1875 2053 1875 
L 1259 1875 
L 1259 0 
L 628 0 
L 628 4666 
z
" transform="scale(0.015625)"/>
      <path id="DejaVuSans-6c" d="M 603 4863 
L 1178 4863 
L 1178 0 
L 603 0 
L 603 4863 
z
" transform="scale(0.015625)"/>
      <path id="DejaVuSans-2c" d="M 750 794 
L 1409 794 
L 1409 256 
L 897 -744 
L 494 -744 
L 750 256 
L 750 794 
z
" transform="scale(0.015625)"/>
      <path id="DejaVuSans-79" d="M 2059 -325 
Q 1816 -950 1584 -1140 
Q 1353 -1331 966 -1331 
L 506 -1331 
L 506 -850 
L 844 -850 
Q 1081 -850 1212 -737 
Q 1344 -625 1503 -206 
L 1606 56 
L 191 3500 
L 800 3500 
L 1894 763 
L 2988 3500 
L 3597 3500 
L 2059 -325 
z
" transform="scale(0.015625)"/>
      <path id="DejaVuSans-2e" d="M 684 794 
L 1344 794 
L 1344 0 
L 684 0 
L 684 794 
z
" transform="scale(0.015625)"/>
      <path id="DejaVuSans-3a" d="M 750 794 
L 1409 794 
L 1409 0 
L 750 0 
L 750 794 
z
M 750 3309 
L 1409 3309 
L 1409 2516 
L 750 2516 
L 750 3309 
z
" transform="scale(0.015625)"/>
     </defs>
     <use xlink:href="#DejaVuSans-4e"/>
     <use xlink:href="#DejaVuSans-75" x="74.804688"/>
     <use xlink:href="#DejaVuSans-6d" x="138.183594"/>
     <use xlink:href="#DejaVuSans-62" x="235.595703"/>
     <use xlink:href="#DejaVuSans-65" x="299.072266"/>
     <use xlink:href="#DejaVuSans-72" x="360.595703"/>
     <use xlink:href="#DejaVuSans-20" x="401.708984"/>
     <use xlink:href="#DejaVuSans-6f" x="433.496094"/>
     <use xlink:href="#DejaVuSans-66" x="494.677734"/>
     <use xlink:href="#DejaVuSans-20" x="529.882812"/>
     <use xlink:href="#DejaVuSans-41" x="561.669922"/>
     <use xlink:href="#DejaVuSans-45" x="630.078125"/>
     <use xlink:href="#DejaVuSans-44" x="693.261719"/>
     <use xlink:href="#DejaVuSans-73" x="770.263672"/>
     <use xlink:href="#DejaVuSans-20" x="822.363281"/>
     <use xlink:href="#DejaVuSans-69" x="854.150391"/>
     <use xlink:href="#DejaVuSans-6e" x="881.933594"/>
     <use xlink:href="#DejaVuSans-20" x="945.3125"/>
     <use xlink:href="#DejaVuSans-74" x="977.099609"/>
     <use xlink:href="#DejaVuSans-68" x="1016.308594"/>
     <use xlink:href="#DejaVuSans-65" x="1079.6875"/>
     <use xlink:href="#DejaVuSans-20" x="1141.210938"/>
     <use xlink:href="#DejaVuSans-4f" x="1172.998047"/>
     <use xlink:href="#DejaVuSans-70" x="1251.708984"/>
     <use xlink:href="#DejaVuSans-65" x="1315.185547"/>
     <use xlink:href="#DejaVuSans-6e" x="1376.708984"/>
     <use xlink:href="#DejaVuSans-53" x="1440.087891"/>
     <use xlink:href="#DejaVuSans-74" x="1503.564453"/>
     <use xlink:href="#DejaVuSans-72" x="1542.773438"/>
     <use xlink:href="#DejaVuSans-65" x="1581.636719"/>
     <use xlink:href="#DejaVuSans-65" x="1643.160156"/>
     <use xlink:href="#DejaVuSans-74" x="1704.683594"/>
     <use xlink:href="#DejaVuSans-4d" x="1743.892578"/>
     <use xlink:href="#DejaVuSans-61" x="1830.171875"/>
     <use xlink:href="#DejaVuSans-70" x="1891.451172"/>
     <use xlink:href="#DejaVuSans-20" x="1954.927734"/>
     <use xlink:href="#DejaVuSans-64" x="1986.714844"/>
     <use xlink:href="#DejaVuSans-61" x="2050.191406"/>
     <use xlink:href="#DejaVuSans-74" x="2111.470703"/>
     <use xlink:href="#DejaVuSans-61" x="2150.679688"/>
     <use xlink:href="#DejaVuSans-62" x="2211.958984"/>
     <use xlink:href="#DejaVuSans-61" x="2275.435547"/>
     <use xlink:href="#DejaVuSans-73" x="2336.714844"/>
     <use xlink:href="#DejaVuSans-65" x="2388.814453"/>
     <use xlink:href="#DejaVuSans-20" x="2450.337891"/>
     <use xlink:href="#DejaVuSans-69" x="2482.125"/>
     <use xlink:href="#DejaVuSans-6e" x="2509.908203"/>
     <use xlink:href="#DejaVuSans-20" x="2573.287109"/>
     <use xlink:href="#DejaVuSans-50" x="2605.074219"/>
     <use xlink:href="#DejaVuSans-6f" x="2661.751953"/>
     <use xlink:href="#DejaVuSans-6c" x="2722.933594"/>
     <use xlink:href="#DejaVuSans-61" x="2750.716797"/>
     <use xlink:href="#DejaVuSans-6e" x="2811.996094"/>
     <use xlink:href="#DejaVuSans-64" x="2875.375"/>
     <use xlink:href="#DejaVuSans-20" x="2938.851562"/>
     <use xlink:href="#DejaVuSans-66" x="2970.638672"/>
     <use xlink:href="#DejaVuSans-72" x="3005.84375"/>
     <use xlink:href="#DejaVuSans-6f" x="3044.707031"/>
     <use xlink:href="#DejaVuSans-6d" x="3105.888672"/>
     <use xlink:href="#DejaVuSans-20" x="3203.300781"/>
     <use xlink:href="#DejaVuSans-32" x="3235.087891"/>
     <use xlink:href="#DejaVuSans-30" x="3298.710938"/>
     <use xlink:href="#DejaVuSans-32" x="3362.333984"/>
     <use xlink:href="#DejaVuSans-36" x="3425.957031"/>
     <use xlink:href="#DejaVuSans-2d" x="3489.580078"/>
     <use xlink:href="#DejaVuSans-30" x="3525.664062"/>
     <use xlink:href="#DejaVuSans-31" x="3589.287109"/>
     <use xlink:href="#DejaVuSans-2d" x="3652.910156"/>
     <use xlink:href="#DejaVuSans-30" x="3688.994141"/>
     <use xlink:href="#DejaVuSans-31" x="3752.617188"/>
     <use xlink:href="#DejaVuSans-2c" x="3816.240234"/>
     <use xlink:href="#DejaVuSans-20" x="3848.027344"/>
     <use xlink:href="#DejaVuSans-64" x="3879.814453"/>
     <use xlink:href="#DejaVuSans-61" x="3943.291016"/>
     <use xlink:href="#DejaVuSans-79" x="4004.570312"/>
     <use xlink:href="#DejaVuSans-20" x="4063.75"/>
     <use xlink:href="#DejaVuSans-62" x="4095.537109"/>
     <use xlink:href="#DejaVuSans-79" x="4159.013672"/>
     <use xlink:href="#DejaVuSans-20" x="4218.193359"/>
     <use xlink:href="#DejaVuSans-64" x="4249.980469"/>
     <use xlink:href="#DejaVuSans-61" x="4313.457031"/>
     <use xlink:href="#DejaVuSans-79" x="4374.736328"/>
     <use xlink:href="#DejaVuSans-2e" x="4419.666016"/>
     <use xlink:href="#DejaVuSans-20" x="4451.453125"/>
     <use xlink:href="#DejaVuSans-41" x="4483.240234"/>
     <use xlink:href="#DejaVuSans-73" x="4551.648438"/>
     <use xlink:href="#DejaVuSans-20" x="4603.748047"/>
     <use xlink:href="#DejaVuSans-61" x="4635.535156"/>
     <use xlink:href="#DejaVuSans-74" x="4696.814453"/>
     <use xlink:href="#DejaVuSans-3a" x="4736.023438"/>
     <use xlink:href="#DejaVuSans-20" x="4769.714844"/>
     <use xlink:href="#DejaVuSans-32" x="4801.501953"/>
     <use xlink:href="#DejaVuSans-30" x="4865.125"/>
     <use xlink:href="#DejaVuSans-32" x="4928.748047"/>
     <use xlink:href="#DejaVuSans-36" x="4992.371094"/>
     <use xlink:href="#DejaVuSans-2d" x="5055.994141"/>
     <use xlink:href="#DejaVuSans-30" x="5092.078125"/>
     <use xlink:href="#DejaVuSans-32" x="5155.701172"/>
     <use xlink:href="#DejaVuSans-2d" x="5219.324219"/>
     <use xlink:href="#DejaVuSans-31" x="5255.408203"/>
     <use xlink:href="#DejaVuSans-31" x="5319.03125"/>
    </g>
   </g>
  </g>
 </g>
 <defs>
  <clipPath id="pb6920b392e">
   <rect x="144" y="69.12" width="892.8" height="443.52"/>
  </clipPath>
 </defs>
</svg>
