<?xml version="1.0" encoding="utf-8" standalone="no"?>
<!DOCTYPE svg PUBLIC "-//W3C//DTD SVG 1.1//EN"
  "http://www.w3.org/Graphics/SVG/1.1/DTD/svg11.dtd">
<svg xmlns:xlink="http://www.w3.org/1999/xlink" width="1152pt" height="576pt" viewBox="0 0 1152 576" xmlns="http://www.w3.org/2000/svg" version="1.1">
 <metadata>
  <rdf:RDF xmlns:dc="http://purl.org/dc/elements/1.1/" xmlns:cc="http://creativecommons.org/ns#" xmlns:rdf="http://www.w3.org/1999/02/22-rdf-syntax-ns#">
   <cc:Work>
    <dc:type rdf:resource="http://purl.org/dc/dcmitype/StillImage"/>
    <dc:date>2024-03-28T23:33:20.131056</dc:date>
    <dc:format>image/svg+xml</dc:format>
    <dc:creator>
     <cc:Agent>
      <dc:title>Matplotlib v3.8.3, https://matplotlib.org/</dc:title>
     </cc:Agent>
    </dc:creator>
   </cc:Work>
  </rdf:RDF>
 </metadata>
 <defs>
  <style type="text/css">*{stroke-linejoin: round; stroke-linecap: butt}</style>
 </defs>
 <g id="figure_1">
  <g id="patch_1">
   <path d="M 0 576 
L 1152 576 
L 1152 0 
L 0 0 
z
" style="fill: #ffffff"/>
  </g>
  <g id="axes_1">
   <g id="patch_2">
    <path d="M 144 512.64 
L 1036.8 512.64 
L 1036.8 69.12 
L 144 69.12 
z
" style="fill: #ffffff"/>
   </g>
   <g id="PathCollection_1">
    <path d="M 184.581818 496.015534 
C 185.519453 496.015534 186.41881 495.643008 187.081818 494.98 
C 187.744826 494.316992 188.117352 493.417635 188.117352 492.48 
C 188.117352 491.542365 187.744826 490.643008 187.081818 489.98 
C 186.41881 489.316992 185.519453 488.944466 184.581818 488.944466 
C 183.644184 488.944466 182.744826 489.316992 182.081818 489.98 
C 181.41881 490.643008 181.046284 491.542365 181.046284 492.48 
C 181.046284 493.417635 181.41881 494.316992 182.081818 494.98 
C 182.744826 495.643008 183.644184 496.015534 184.581818 496.015534 
z
" clip-path="url(#pe0c8c858f2)" style="fill: #1f77b4; fill-opacity: 0.3; stroke: #1f77b4; stroke-opacity: 0.3"/>
    <path d="M 193.910972 485.766452 
C 195.786241 485.766452 197.584956 485.0214 198.910972 483.695385 
C 200.236987 482.369369 200.98204 480.570654 200.98204 478.695385 
C 200.98204 476.820116 200.236987 475.0214 198.910972 473.695385 
C 197.584956 472.369369 195.786241 471.624317 193.910972 471.624317 
C 192.035703 471.624317 190.236987 472.369369 188.910972 473.695385 
C 187.584956 475.0214 186.839904 476.820116 186.839904 478.695385 
C 186.839904 480.570654 187.584956 482.369369 188.910972 483.695385 
C 190.236987 485.0214 192.035703 485.766452 193.910972 485.766452 
z
" clip-path="url(#pe0c8c858f2)" style="fill: #1f77b4; fill-opacity: 0.3; stroke: #1f77b4; stroke-opacity: 0.3"/>
    <path d="M 203.240125 468.837642 
C 205.378261 468.837642 207.429112 467.988152 208.941003 466.476262 
C 210.452893 464.964371 211.302383 462.91352 211.302383 460.775385 
C 211.302383 458.637249 210.452893 456.586398 208.941003 455.074507 
C 207.429112 453.562617 205.378261 452.713127 203.240125 452.713127 
C 201.10199 452.713127 199.051139 453.562617 197.539248 455.074507 
C 196.027358 456.586398 195.177868 458.637249 195.177868 460.775385 
C 195.177868 462.91352 196.027358 464.964371 197.539248 466.476262 
C 199.051139 467.988152 201.10199 468.837642 203.240125 468.837642 
z
" clip-path="url(#pe0c8c858f2)" style="fill: #1f77b4; fill-opacity: 0.3; stroke: #1f77b4; stroke-opacity: 0.3"/>
    <path d="M 212.569279 461.667293 
C 212.988602 461.667293 213.390807 461.500694 213.687313 461.204188 
C 213.983819 460.907682 214.150418 460.505477 214.150418 460.086154 
C 214.150418 459.666831 213.983819 459.264626 213.687313 458.96812 
C 213.390807 458.671614 212.988602 458.505015 212.569279 458.505015 
C 212.149956 458.505015 211.747751 458.671614 211.451245 458.96812 
C 211.154739 459.264626 210.98814 459.666831 210.98814 460.086154 
C 210.98814 460.505477 211.154739 460.907682 211.451245 461.204188 
C 211.747751 461.500694 212.149956 461.667293 212.569279 461.667293 
z
" clip-path="url(#pe0c8c858f2)" style="fill: #1f77b4; fill-opacity: 0.3; stroke: #1f77b4; stroke-opacity: 0.3"/>
    <path d="M 221.898433 458.193846 
C 223.224448 458.193846 224.496332 457.667015 225.433967 456.72938 
C 226.371601 455.791746 226.898433 454.519862 226.898433 453.193846 
C 226.898433 451.867831 226.371601 450.595947 225.433967 449.658312 
C 224.496332 448.720678 223.224448 448.193846 221.898433 448.193846 
C 220.572417 448.193846 219.300533 448.720678 218.362899 449.658312 
C 217.425264 450.595947 216.898433 451.867831 216.898433 453.193846 
C 216.898433 454.519862 217.425264 455.791746 218.362899 456.72938 
C 219.300533 457.667015 220.572417 458.193846 221.898433 458.193846 
z
" clip-path="url(#pe0c8c858f2)" style="fill: #1f77b4; fill-opacity: 0.3; stroke: #1f77b4; stroke-opacity: 0.3"/>
    <path d="M 240.55674 453.283226 
C 241.494374 453.283226 242.393732 452.9107 243.05674 452.247692 
C 243.719748 451.584685 244.092274 450.685327 244.092274 449.747692 
C 244.092274 448.810058 243.719748 447.9107 243.05674 447.247692 
C 242.393732 446.584685 241.494374 446.212158 240.55674 446.212158 
C 239.619105 446.212158 238.719748 446.584685 238.05674 447.247692 
C 237.393732 447.9107 237.021206 448.810058 237.021206 449.747692 
C 237.021206 450.685327 237.393732 451.584685 238.05674 452.247692 
C 238.719748 452.9107 239.619105 453.283226 240.55674 453.283226 
z
" clip-path="url(#pe0c8c858f2)" style="fill: #1f77b4; fill-opacity: 0.3; stroke: #1f77b4; stroke-opacity: 0.3"/>
    <path d="M 249.885893 450.153047 
C 250.724539 450.153047 251.528949 449.819849 252.121961 449.226837 
C 252.714974 448.633825 253.048171 447.829415 253.048171 446.990769 
C 253.048171 446.152123 252.714974 445.347713 252.121961 444.754701 
C 251.528949 444.161689 250.724539 443.828492 249.885893 443.828492 
C 249.047248 443.828492 248.242838 444.161689 247.649825 444.754701 
C 247.056813 445.347713 246.723616 446.152123 246.723616 446.990769 
C 246.723616 447.829415 247.056813 448.633825 247.649825 449.226837 
C 248.242838 449.819849 249.047248 450.153047 249.885893 450.153047 
z
" clip-path="url(#pe0c8c858f2)" style="fill: #1f77b4; fill-opacity: 0.3; stroke: #1f77b4; stroke-opacity: 0.3"/>
    <path d="M 259.215047 447.66169 
C 259.941336 447.66169 260.637975 447.373132 261.151539 446.859569 
C 261.665102 446.346005 261.95366 445.649366 261.95366 444.923077 
C 261.95366 444.196788 261.665102 443.500149 261.151539 442.986585 
C 260.637975 442.473022 259.941336 442.184464 259.215047 442.184464 
C 258.488758 442.184464 257.792119 442.473022 257.278555 442.986585 
C 256.764992 443.500149 256.476434 444.196788 256.476434 444.923077 
C 256.476434 445.649366 256.764992 446.346005 257.278555 446.859569 
C 257.792119 447.373132 258.488758 447.66169 259.215047 447.66169 
z
" clip-path="url(#pe0c8c858f2)" style="fill: #1f77b4; fill-opacity: 0.3; stroke: #1f77b4; stroke-opacity: 0.3"/>
    <path d="M 268.544201 445.328432 
C 269.382846 445.328432 270.187256 444.995234 270.780269 444.402222 
C 271.373281 443.80921 271.706478 443.0048 271.706478 442.166154 
C 271.706478 441.327508 271.373281 440.523098 270.780269 439.930086 
C 270.187256 439.337074 269.382846 439.003876 268.544201 439.003876 
C 267.705555 439.003876 266.901145 439.337074 266.308133 439.930086 
C 265.71512 440.523098 265.381923 441.327508 265.381923 442.166154 
C 265.381923 443.0048 265.71512 443.80921 266.308133 444.402222 
C 266.901145 444.995234 267.705555 445.328432 268.544201 445.328432 
z
" clip-path="url(#pe0c8c858f2)" style="fill: #1f77b4; fill-opacity: 0.3; stroke: #1f77b4; stroke-opacity: 0.3"/>
    <path d="M 277.873354 441.903753 
C 278.900481 441.903753 279.885678 441.495671 280.611967 440.769382 
C 281.338256 440.043093 281.746338 439.057896 281.746338 438.030769 
C 281.746338 437.003642 281.338256 436.018445 280.611967 435.292156 
C 279.885678 434.565868 278.900481 434.157786 277.873354 434.157786 
C 276.846227 434.157786 275.86103 434.565868 275.134741 435.292156 
C 274.408453 436.018445 274.000371 437.003642 274.000371 438.030769 
C 274.000371 439.057896 274.408453 440.043093 275.134741 440.769382 
C 275.86103 441.495671 276.846227 441.903753 277.873354 441.903753 
z
" clip-path="url(#pe0c8c858f2)" style="fill: #1f77b4; fill-opacity: 0.3; stroke: #1f77b4; stroke-opacity: 0.3"/>
    <path d="M 287.202508 433.327632 
C 288.8798 433.327632 290.488619 432.661237 291.674644 431.475213 
C 292.860668 430.289189 293.527063 428.680369 293.527063 427.003077 
C 293.527063 425.325785 292.860668 423.716965 291.674644 422.530941 
C 290.488619 421.344917 288.8798 420.678522 287.202508 420.678522 
C 285.525216 420.678522 283.916396 421.344917 282.730372 422.530941 
C 281.544348 423.716965 280.877953 425.325785 280.877953 427.003077 
C 280.877953 428.680369 281.544348 430.289189 282.730372 431.475213 
C 283.916396 432.661237 285.525216 433.327632 287.202508 433.327632 
z
" clip-path="url(#pe0c8c858f2)" style="fill: #1f77b4; fill-opacity: 0.3; stroke: #1f77b4; stroke-opacity: 0.3"/>
    <path d="M 296.531661 427.673997 
C 297.25795 427.673997 297.95459 427.38544 298.468153 426.871876 
C 298.981717 426.358313 299.270274 425.661673 299.270274 424.935385 
C 299.270274 424.209096 298.981717 423.512457 298.468153 422.998893 
C 297.95459 422.485329 297.25795 422.196772 296.531661 422.196772 
C 295.805373 422.196772 295.108733 422.485329 294.59517 422.998893 
C 294.081606 423.512457 293.793049 424.209096 293.793049 424.935385 
C 293.793049 425.661673 294.081606 426.358313 294.59517 426.871876 
C 295.108733 427.38544 295.805373 427.673997 296.531661 427.673997 
z
" clip-path="url(#pe0c8c858f2)" style="fill: #1f77b4; fill-opacity: 0.3; stroke: #1f77b4; stroke-opacity: 0.3"/>
    <path d="M 305.860815 425.606305 
C 306.587104 425.606305 307.283743 425.317748 307.797307 424.804184 
C 308.31087 424.29062 308.599428 423.593981 308.599428 422.867692 
C 308.599428 422.141404 308.31087 421.444764 307.797307 420.931201 
C 307.283743 420.417637 306.587104 420.12908 305.860815 420.12908 
C 305.134526 420.12908 304.437887 420.417637 303.924323 420.931201 
C 303.41076 421.444764 303.122202 422.141404 303.122202 422.867692 
C 303.122202 423.593981 303.41076 424.29062 303.924323 424.804184 
C 304.437887 425.317748 305.134526 425.606305 305.860815 425.606305 
z
" clip-path="url(#pe0c8c858f2)" style="fill: #1f77b4; fill-opacity: 0.3; stroke: #1f77b4; stroke-opacity: 0.3"/>
    <path d="M 315.189969 418.652955 
C 316.813999 418.652955 318.371733 418.007721 319.520096 416.859358 
C 320.668459 415.710995 321.313693 414.153261 321.313693 412.529231 
C 321.313693 410.9052 320.668459 409.347467 319.520096 408.199104 
C 318.371733 407.050741 316.813999 406.405506 315.189969 406.405506 
C 313.565938 406.405506 312.008205 407.050741 310.859842 408.199104 
C 309.711479 409.347467 309.066244 410.9052 309.066244 412.529231 
C 309.066244 414.153261 309.711479 415.710995 310.859842 416.859358 
C 312.008205 418.007721 313.565938 418.652955 315.189969 418.652955 
z
" clip-path="url(#pe0c8c858f2)" style="fill: #1f77b4; fill-opacity: 0.3; stroke: #1f77b4; stroke-opacity: 0.3"/>
    <path d="M 324.519122 413.200151 
C 325.245411 413.200151 325.94205 412.911594 326.455614 412.39803 
C 326.969178 411.884467 327.257735 411.187827 327.257735 410.461538 
C 327.257735 409.73525 326.969178 409.03861 326.455614 408.525047 
C 325.94205 408.011483 325.245411 407.722926 324.519122 407.722926 
C 323.792834 407.722926 323.096194 408.011483 322.582631 408.525047 
C 322.069067 409.03861 321.780509 409.73525 321.780509 410.461538 
C 321.780509 411.187827 322.069067 411.884467 322.582631 412.39803 
C 323.096194 412.911594 323.792834 413.200151 324.519122 413.200151 
z
" clip-path="url(#pe0c8c858f2)" style="fill: #1f77b4; fill-opacity: 0.3; stroke: #1f77b4; stroke-opacity: 0.3"/>
    <path d="M 333.848276 407.667995 
C 335.300853 407.667995 336.694132 407.09088 337.721259 406.063753 
C 338.748386 405.036625 339.325501 403.643346 339.325501 402.190769 
C 339.325501 400.738192 338.748386 399.344913 337.721259 398.317786 
C 336.694132 397.290659 335.300853 396.713544 333.848276 396.713544 
C 332.395699 396.713544 331.00242 397.290659 329.975293 398.317786 
C 328.948165 399.344913 328.37105 400.738192 328.37105 402.190769 
C 328.37105 403.643346 328.948165 405.036625 329.975293 406.063753 
C 331.00242 407.09088 332.395699 407.667995 333.848276 407.667995 
z
" clip-path="url(#pe0c8c858f2)" style="fill: #1f77b4; fill-opacity: 0.3; stroke: #1f77b4; stroke-opacity: 0.3"/>
    <path d="M 343.177429 402.280149 
C 344.115064 402.280149 345.014422 401.907623 345.677429 401.244615 
C 346.340437 400.581608 346.712963 399.68225 346.712963 398.744615 
C 346.712963 397.806981 346.340437 396.907623 345.677429 396.244615 
C 345.014422 395.581608 344.115064 395.209081 343.177429 395.209081 
C 342.239795 395.209081 341.340437 395.581608 340.677429 396.244615 
C 340.014422 396.907623 339.641896 397.806981 339.641896 398.744615 
C 339.641896 399.68225 340.014422 400.581608 340.677429 401.244615 
C 341.340437 401.907623 342.239795 402.280149 343.177429 402.280149 
z
" clip-path="url(#pe0c8c858f2)" style="fill: #1f77b4; fill-opacity: 0.3; stroke: #1f77b4; stroke-opacity: 0.3"/>
    <path d="M 352.506583 398.482214 
C 353.53371 398.482214 354.518907 398.074132 355.245196 397.347844 
C 355.971484 396.621555 356.379566 395.636358 356.379566 394.609231 
C 356.379566 393.582104 355.971484 392.596907 355.245196 391.870618 
C 354.518907 391.144329 353.53371 390.736247 352.506583 390.736247 
C 351.479456 390.736247 350.494259 391.144329 349.76797 391.870618 
C 349.041682 392.596907 348.6336 393.582104 348.6336 394.609231 
C 348.6336 395.636358 349.041682 396.621555 349.76797 397.347844 
C 350.494259 398.074132 351.479456 398.482214 352.506583 398.482214 
z
" clip-path="url(#pe0c8c858f2)" style="fill: #1f77b4; fill-opacity: 0.3; stroke: #1f77b4; stroke-opacity: 0.3"/>
    <path d="M 361.835737 395.280151 
C 362.562025 395.280151 363.258665 394.991594 363.772228 394.47803 
C 364.285792 393.964467 364.574349 393.267827 364.574349 392.541538 
C 364.574349 391.81525 364.285792 391.11861 363.772228 390.605047 
C 363.258665 390.091483 362.562025 389.802926 361.835737 389.802926 
C 361.109448 389.802926 360.412809 390.091483 359.899245 390.605047 
C 359.385681 391.11861 359.097124 391.81525 359.097124 392.541538 
C 359.097124 393.267827 359.385681 393.964467 359.899245 394.47803 
C 360.412809 394.991594 361.109448 395.280151 361.835737 395.280151 
z
" clip-path="url(#pe0c8c858f2)" style="fill: #1f77b4; fill-opacity: 0.3; stroke: #1f77b4; stroke-opacity: 0.3"/>
    <path d="M 371.16489 393.212459 
C 371.891179 393.212459 372.587818 392.923901 373.101382 392.410338 
C 373.614946 391.896774 373.903503 391.200135 373.903503 390.473846 
C 373.903503 389.747558 373.614946 389.050918 373.101382 388.537354 
C 372.587818 388.023791 371.891179 387.735233 371.16489 387.735233 
C 370.438602 387.735233 369.741962 388.023791 369.228399 388.537354 
C 368.714835 389.050918 368.426277 389.747558 368.426277 390.473846 
C 368.426277 391.200135 368.714835 391.896774 369.228399 392.410338 
C 369.741962 392.923901 370.438602 393.212459 371.16489 393.212459 
z
" clip-path="url(#pe0c8c858f2)" style="fill: #1f77b4; fill-opacity: 0.3; stroke: #1f77b4; stroke-opacity: 0.3"/>
    <path d="M 380.494044 390.563226 
C 381.431678 390.563226 382.331036 390.1907 382.994044 389.527692 
C 383.657052 388.864685 384.029578 387.965327 384.029578 387.027692 
C 384.029578 386.090058 383.657052 385.1907 382.994044 384.527692 
C 382.331036 383.864685 381.431678 383.492158 380.494044 383.492158 
C 379.556409 383.492158 378.657052 383.864685 377.994044 384.527692 
C 377.331036 385.1907 376.95851 386.090058 376.95851 387.027692 
C 376.95851 387.965327 377.331036 388.864685 377.994044 389.527692 
C 378.657052 390.1907 379.556409 390.563226 380.494044 390.563226 
z
" clip-path="url(#pe0c8c858f2)" style="fill: #1f77b4; fill-opacity: 0.3; stroke: #1f77b4; stroke-opacity: 0.3"/>
    <path d="M 389.823197 387.117072 
C 390.760832 387.117072 391.66019 386.744546 392.323197 386.081538 
C 392.986205 385.418531 393.358731 384.519173 393.358731 383.581538 
C 393.358731 382.643904 392.986205 381.744546 392.323197 381.081538 
C 391.66019 380.418531 390.760832 380.046005 389.823197 380.046005 
C 388.885563 380.046005 387.986205 380.418531 387.323197 381.081538 
C 386.66019 381.744546 386.287664 382.643904 386.287664 383.581538 
C 386.287664 384.519173 386.66019 385.418531 387.323197 386.081538 
C 387.986205 386.744546 388.885563 387.117072 389.823197 387.117072 
z
" clip-path="url(#pe0c8c858f2)" style="fill: #1f77b4; fill-opacity: 0.3; stroke: #1f77b4; stroke-opacity: 0.3"/>
    <path d="M 399.152351 383.986893 
C 399.990997 383.986893 400.795407 383.653696 401.388419 383.060683 
C 401.981431 382.467671 402.314629 381.663261 402.314629 380.824615 
C 402.314629 379.98597 401.981431 379.18156 401.388419 378.588547 
C 400.795407 377.995535 399.990997 377.662338 399.152351 377.662338 
C 398.313705 377.662338 397.509295 377.995535 396.916283 378.588547 
C 396.323271 379.18156 395.990073 379.98597 395.990073 380.824615 
C 395.990073 381.663261 396.323271 382.467671 396.916283 383.060683 
C 397.509295 383.653696 398.313705 383.986893 399.152351 383.986893 
z
" clip-path="url(#pe0c8c858f2)" style="fill: #1f77b4; fill-opacity: 0.3; stroke: #1f77b4; stroke-opacity: 0.3"/>
    <path d="M 408.481505 381.682222 
C 409.074517 381.682222 409.643321 381.446616 410.062644 381.027293 
C 410.481966 380.60797 410.717573 380.039166 410.717573 379.446154 
C 410.717573 378.853142 410.481966 378.284338 410.062644 377.865015 
C 409.643321 377.445692 409.074517 377.210086 408.481505 377.210086 
C 407.888493 377.210086 407.319689 377.445692 406.900366 377.865015 
C 406.481043 378.284338 406.245437 378.853142 406.245437 379.446154 
C 406.245437 380.039166 406.481043 380.60797 406.900366 381.027293 
C 407.319689 381.446616 407.888493 381.682222 408.481505 381.682222 
z
" clip-path="url(#pe0c8c858f2)" style="fill: #1f77b4; fill-opacity: 0.3; stroke: #1f77b4; stroke-opacity: 0.3"/>
    <path d="M 417.810658 378.804839 
C 418.920082 378.804839 419.984217 378.36406 420.768698 377.579578 
C 421.55318 376.795097 421.993958 375.730963 421.993958 374.621538 
C 421.993958 373.512114 421.55318 372.44798 420.768698 371.663499 
C 419.984217 370.879017 418.920082 370.438238 417.810658 370.438238 
C 416.701234 370.438238 415.6371 370.879017 414.852618 371.663499 
C 414.068137 372.44798 413.627358 373.512114 413.627358 374.621538 
C 413.627358 375.730963 414.068137 376.795097 414.852618 377.579578 
C 415.6371 378.36406 416.701234 378.804839 417.810658 378.804839 
z
" clip-path="url(#pe0c8c858f2)" style="fill: #1f77b4; fill-opacity: 0.3; stroke: #1f77b4; stroke-opacity: 0.3"/>
    <path d="M 427.139812 375.479145 
C 427.732824 375.479145 428.301628 375.243539 428.720951 374.824216 
C 429.140274 374.404893 429.37588 373.836089 429.37588 373.243077 
C 429.37588 372.650065 429.140274 372.081261 428.720951 371.661938 
C 428.301628 371.242615 427.732824 371.007009 427.139812 371.007009 
C 426.5468 371.007009 425.977996 371.242615 425.558673 371.661938 
C 425.13935 372.081261 424.903744 372.650065 424.903744 373.243077 
C 424.903744 373.836089 425.13935 374.404893 425.558673 374.824216 
C 425.977996 375.243539 426.5468 375.479145 427.139812 375.479145 
z
" clip-path="url(#pe0c8c858f2)" style="fill: #1f77b4; fill-opacity: 0.3; stroke: #1f77b4; stroke-opacity: 0.3"/>
    <path d="M 445.798119 371.350769 
C 447.124135 371.350769 448.396018 370.823938 449.333653 369.886303 
C 450.271288 368.948669 450.798119 367.676785 450.798119 366.350769 
C 450.798119 365.024754 450.271288 363.75287 449.333653 362.815235 
C 448.396018 361.877601 447.124135 361.350769 445.798119 361.350769 
C 444.472104 361.350769 443.20022 361.877601 442.262585 362.815235 
C 441.324951 363.75287 440.798119 365.024754 440.798119 366.350769 
C 440.798119 367.676785 441.324951 368.948669 442.262585 369.886303 
C 443.20022 370.823938 444.472104 371.350769 445.798119 371.350769 
z
" clip-path="url(#pe0c8c858f2)" style="fill: #1f77b4; fill-opacity: 0.3; stroke: #1f77b4; stroke-opacity: 0.3"/>
    <path d="M 455.127273 367.242677 
C 455.546596 367.242677 455.948801 367.076079 456.245307 366.779572 
C 456.541813 366.483066 456.708412 366.080861 456.708412 365.661538 
C 456.708412 365.242216 456.541813 364.840011 456.245307 364.543504 
C 455.948801 364.246998 455.546596 364.0804 455.127273 364.0804 
C 454.70795 364.0804 454.305745 364.246998 454.009239 364.543504 
C 453.712733 364.840011 453.546134 365.242216 453.546134 365.661538 
C 453.546134 366.080861 453.712733 366.483066 454.009239 366.779572 
C 454.305745 367.076079 454.70795 367.242677 455.127273 367.242677 
z
" clip-path="url(#pe0c8c858f2)" style="fill: #1f77b4; fill-opacity: 0.3; stroke: #1f77b4; stroke-opacity: 0.3"/>
    <path d="M 464.456426 365.399137 
C 465.483554 365.399137 466.468751 364.991055 467.195039 364.264767 
C 467.921328 363.538478 468.32941 362.553281 468.32941 361.526154 
C 468.32941 360.499027 467.921328 359.51383 467.195039 358.787541 
C 466.468751 358.061252 465.483554 357.65317 464.456426 357.65317 
C 463.429299 357.65317 462.444102 358.061252 461.717814 358.787541 
C 460.991525 359.51383 460.583443 360.499027 460.583443 361.526154 
C 460.583443 362.553281 460.991525 363.538478 461.717814 364.264767 
C 462.444102 364.991055 463.429299 365.399137 464.456426 365.399137 
z
" clip-path="url(#pe0c8c858f2)" style="fill: #1f77b4; fill-opacity: 0.3; stroke: #1f77b4; stroke-opacity: 0.3"/>
    <path d="M 473.78558 357.793003 
C 475.354543 357.793003 476.859456 357.169647 477.96888 356.060223 
C 479.078304 354.950799 479.70166 353.445886 479.70166 351.876923 
C 479.70166 350.30796 479.078304 348.803047 477.96888 347.693623 
C 476.859456 346.584199 475.354543 345.960843 473.78558 345.960843 
C 472.216617 345.960843 470.711704 346.584199 469.60228 347.693623 
C 468.492856 348.803047 467.8695 350.30796 467.8695 351.876923 
C 467.8695 353.445886 468.492856 354.950799 469.60228 356.060223 
C 470.711704 357.169647 472.216617 357.793003 473.78558 357.793003 
z
" clip-path="url(#pe0c8c858f2)" style="fill: #1f77b4; fill-opacity: 0.3; stroke: #1f77b4; stroke-opacity: 0.3"/>
    <path d="M 483.114734 347.662186 
C 484.738764 347.662186 486.296497 347.016952 487.444861 345.868589 
C 488.593224 344.720225 489.238458 343.162492 489.238458 341.538462 
C 489.238458 339.914431 488.593224 338.356698 487.444861 337.208335 
C 486.296497 336.059971 484.738764 335.414737 483.114734 335.414737 
C 481.490703 335.414737 479.93297 336.059971 478.784607 337.208335 
C 477.636243 338.356698 476.991009 339.914431 476.991009 341.538462 
C 476.991009 343.162492 477.636243 344.720225 478.784607 345.868589 
C 479.93297 347.016952 481.490703 347.662186 483.114734 347.662186 
z
" clip-path="url(#pe0c8c858f2)" style="fill: #1f77b4; fill-opacity: 0.3; stroke: #1f77b4; stroke-opacity: 0.3"/>
    <path d="M 492.443887 342.209382 
C 493.170176 342.209382 493.866815 341.920824 494.380379 341.407261 
C 494.893942 340.893697 495.1825 340.197058 495.1825 339.470769 
C 495.1825 338.744481 494.893942 338.047841 494.380379 337.534278 
C 493.866815 337.020714 493.170176 336.732156 492.443887 336.732156 
C 491.717599 336.732156 491.020959 337.020714 490.507395 337.534278 
C 489.993832 338.047841 489.705274 338.744481 489.705274 339.470769 
C 489.705274 340.197058 489.993832 340.893697 490.507395 341.407261 
C 491.020959 341.920824 491.717599 342.209382 492.443887 342.209382 
z
" clip-path="url(#pe0c8c858f2)" style="fill: #1f77b4; fill-opacity: 0.3; stroke: #1f77b4; stroke-opacity: 0.3"/>
    <path d="M 511.102194 339.876124 
C 511.94084 339.876124 512.74525 339.542926 513.338262 338.949914 
C 513.931274 338.356902 514.264472 337.552492 514.264472 336.713846 
C 514.264472 335.8752 513.931274 335.07079 513.338262 334.477778 
C 512.74525 333.884766 511.94084 333.551568 511.102194 333.551568 
C 510.263549 333.551568 509.459139 333.884766 508.866126 334.477778 
C 508.273114 335.07079 507.939917 335.8752 507.939917 336.713846 
C 507.939917 337.552492 508.273114 338.356902 508.866126 338.949914 
C 509.459139 339.542926 510.263549 339.876124 511.102194 339.876124 
z
" clip-path="url(#pe0c8c858f2)" style="fill: #1f77b4; fill-opacity: 0.3; stroke: #1f77b4; stroke-opacity: 0.3"/>
    <path d="M 520.431348 332.010709 
C 522.10864 332.010709 523.71746 331.344314 524.903484 330.15829 
C 526.089508 328.972265 526.755903 327.363446 526.755903 325.686154 
C 526.755903 324.008862 526.089508 322.400042 524.903484 321.214018 
C 523.71746 320.027994 522.10864 319.361599 520.431348 319.361599 
C 518.754056 319.361599 517.145236 320.027994 515.959212 321.214018 
C 514.773188 322.400042 514.106793 324.008862 514.106793 325.686154 
C 514.106793 327.363446 514.773188 328.972265 515.959212 330.15829 
C 517.145236 331.344314 518.754056 332.010709 520.431348 332.010709 
z
" clip-path="url(#pe0c8c858f2)" style="fill: #1f77b4; fill-opacity: 0.3; stroke: #1f77b4; stroke-opacity: 0.3"/>
    <path d="M 529.760502 326.578062 
C 530.179824 326.578062 530.582029 326.411463 530.878536 326.114957 
C 531.175042 325.818451 531.34164 325.416246 531.34164 324.996923 
C 531.34164 324.5776 531.175042 324.175395 530.878536 323.878889 
C 530.582029 323.582383 530.179824 323.415784 529.760502 323.415784 
C 529.341179 323.415784 528.938974 323.582383 528.642468 323.878889 
C 528.345961 324.175395 528.179363 324.5776 528.179363 324.996923 
C 528.179363 325.416246 528.345961 325.818451 528.642468 326.114957 
C 528.938974 326.411463 529.341179 326.578062 529.760502 326.578062 
z
" clip-path="url(#pe0c8c858f2)" style="fill: #1f77b4; fill-opacity: 0.3; stroke: #1f77b4; stroke-opacity: 0.3"/>
    <path d="M 539.089655 325.402278 
C 539.928301 325.402278 540.732711 325.06908 541.325723 324.476068 
C 541.918735 323.883056 542.251933 323.078646 542.251933 322.24 
C 542.251933 321.401354 541.918735 320.596944 541.325723 320.003932 
C 540.732711 319.41092 539.928301 319.077722 539.089655 319.077722 
C 538.251009 319.077722 537.446599 319.41092 536.853587 320.003932 
C 536.260575 320.596944 535.927378 321.401354 535.927378 322.24 
C 535.927378 323.078646 536.260575 323.883056 536.853587 324.476068 
C 537.446599 325.06908 538.251009 325.402278 539.089655 325.402278 
z
" clip-path="url(#pe0c8c858f2)" style="fill: #1f77b4; fill-opacity: 0.3; stroke: #1f77b4; stroke-opacity: 0.3"/>
    <path d="M 548.418809 322.91092 
C 549.145097 322.91092 549.841737 322.622363 550.3553 322.108799 
C 550.868864 321.595236 551.157422 320.898596 551.157422 320.172308 
C 551.157422 319.446019 550.868864 318.74938 550.3553 318.235816 
C 549.841737 317.722252 549.145097 317.433695 548.418809 317.433695 
C 547.69252 317.433695 546.995881 317.722252 546.482317 318.235816 
C 545.968754 318.74938 545.680196 319.446019 545.680196 320.172308 
C 545.680196 320.898596 545.968754 321.595236 546.482317 322.108799 
C 546.995881 322.622363 547.69252 322.91092 548.418809 322.91092 
z
" clip-path="url(#pe0c8c858f2)" style="fill: #1f77b4; fill-opacity: 0.3; stroke: #1f77b4; stroke-opacity: 0.3"/>
    <path d="M 557.747962 320.843228 
C 558.474251 320.843228 559.17089 320.554671 559.684454 320.041107 
C 560.198018 319.527543 560.486575 318.830904 560.486575 318.104615 
C 560.486575 317.378327 560.198018 316.681687 559.684454 316.168124 
C 559.17089 315.65456 558.474251 315.366003 557.747962 315.366003 
C 557.021674 315.366003 556.325034 315.65456 555.811471 316.168124 
C 555.297907 316.681687 555.00935 317.378327 555.00935 318.104615 
C 555.00935 318.830904 555.297907 319.527543 555.811471 320.041107 
C 556.325034 320.554671 557.021674 320.843228 557.747962 320.843228 
z
" clip-path="url(#pe0c8c858f2)" style="fill: #1f77b4; fill-opacity: 0.3; stroke: #1f77b4; stroke-opacity: 0.3"/>
    <path d="M 567.077116 312.406665 
C 568.856152 312.406665 570.562564 311.699847 571.820532 310.441878 
C 573.078501 309.183909 573.78532 307.477498 573.78532 305.698462 
C 573.78532 303.919425 573.078501 302.213014 571.820532 300.955045 
C 570.562564 299.697076 568.856152 298.990258 567.077116 298.990258 
C 565.29808 298.990258 563.591668 299.697076 562.333699 300.955045 
C 561.075731 302.213014 560.368912 303.919425 560.368912 305.698462 
C 560.368912 307.477498 561.075731 309.183909 562.333699 310.441878 
C 563.591668 311.699847 565.29808 312.406665 567.077116 312.406665 
z
" clip-path="url(#pe0c8c858f2)" style="fill: #1f77b4; fill-opacity: 0.3; stroke: #1f77b4; stroke-opacity: 0.3"/>
    <path d="M 576.40627 306.369382 
C 577.132558 306.369382 577.829198 306.080824 578.342761 305.567261 
C 578.856325 305.053697 579.144882 304.357058 579.144882 303.630769 
C 579.144882 302.904481 578.856325 302.207841 578.342761 301.694278 
C 577.829198 301.180714 577.132558 300.892156 576.40627 300.892156 
C 575.679981 300.892156 574.983342 301.180714 574.469778 301.694278 
C 573.956214 302.207841 573.667657 302.904481 573.667657 303.630769 
C 573.667657 304.357058 573.956214 305.053697 574.469778 305.567261 
C 574.983342 306.080824 575.679981 306.369382 576.40627 306.369382 
z
" clip-path="url(#pe0c8c858f2)" style="fill: #1f77b4; fill-opacity: 0.3; stroke: #1f77b4; stroke-opacity: 0.3"/>
    <path d="M 585.735423 304.036124 
C 586.574069 304.036124 587.378479 303.702926 587.971491 303.109914 
C 588.564503 302.516902 588.897701 301.712492 588.897701 300.873846 
C 588.897701 300.0352 588.564503 299.23079 587.971491 298.637778 
C 587.378479 298.044766 586.574069 297.711568 585.735423 297.711568 
C 584.896777 297.711568 584.092367 298.044766 583.499355 298.637778 
C 582.906343 299.23079 582.573146 300.0352 582.573146 300.873846 
C 582.573146 301.712492 582.906343 302.516902 583.499355 303.109914 
C 584.092367 303.702926 584.896777 304.036124 585.735423 304.036124 
z
" clip-path="url(#pe0c8c858f2)" style="fill: #1f77b4; fill-opacity: 0.3; stroke: #1f77b4; stroke-opacity: 0.3"/>
    <path d="M 595.064577 301.544767 
C 595.790865 301.544767 596.487505 301.256209 597.001068 300.742646 
C 597.514632 300.229082 597.80319 299.532442 597.80319 298.806154 
C 597.80319 298.079865 597.514632 297.383226 597.001068 296.869662 
C 596.487505 296.356099 595.790865 296.067541 595.064577 296.067541 
C 594.338288 296.067541 593.641649 296.356099 593.128085 296.869662 
C 592.614522 297.383226 592.325964 298.079865 592.325964 298.806154 
C 592.325964 299.532442 592.614522 300.229082 593.128085 300.742646 
C 593.641649 301.256209 594.338288 301.544767 595.064577 301.544767 
z
" clip-path="url(#pe0c8c858f2)" style="fill: #1f77b4; fill-opacity: 0.3; stroke: #1f77b4; stroke-opacity: 0.3"/>
    <path d="M 604.39373 298.895534 
C 605.331365 298.895534 606.230723 298.523008 606.89373 297.86 
C 607.556738 297.196992 607.929264 296.297635 607.929264 295.36 
C 607.929264 294.422365 607.556738 293.523008 606.89373 292.86 
C 606.230723 292.196992 605.331365 291.824466 604.39373 291.824466 
C 603.456096 291.824466 602.556738 292.196992 601.89373 292.86 
C 601.230723 293.523008 600.858197 294.422365 600.858197 295.36 
C 600.858197 296.297635 601.230723 297.196992 601.89373 297.86 
C 602.556738 298.523008 603.456096 298.895534 604.39373 298.895534 
z
" clip-path="url(#pe0c8c858f2)" style="fill: #1f77b4; fill-opacity: 0.3; stroke: #1f77b4; stroke-opacity: 0.3"/>
    <path d="M 613.722884 288.646452 
C 615.598153 288.646452 617.396869 287.9014 618.722884 286.575385 
C 620.0489 285.249369 620.793952 283.450654 620.793952 281.575385 
C 620.793952 279.700116 620.0489 277.9014 618.722884 276.575385 
C 617.396869 275.249369 615.598153 274.504317 613.722884 274.504317 
C 611.847615 274.504317 610.0489 275.249369 608.722884 276.575385 
C 607.396869 277.9014 606.651816 279.700116 606.651816 281.575385 
C 606.651816 283.450654 607.396869 285.249369 608.722884 286.575385 
C 610.0489 287.9014 611.847615 288.646452 613.722884 288.646452 
z
" clip-path="url(#pe0c8c858f2)" style="fill: #1f77b4; fill-opacity: 0.3; stroke: #1f77b4; stroke-opacity: 0.3"/>
    <path d="M 623.052038 281.664765 
C 623.989672 281.664765 624.88903 281.292239 625.552038 280.629231 
C 626.215045 279.966223 626.587572 279.066865 626.587572 278.129231 
C 626.587572 277.191596 626.215045 276.292239 625.552038 275.629231 
C 624.88903 274.966223 623.989672 274.593697 623.052038 274.593697 
C 622.114403 274.593697 621.215045 274.966223 620.552038 275.629231 
C 619.88903 276.292239 619.516504 277.191596 619.516504 278.129231 
C 619.516504 279.066865 619.88903 279.966223 620.552038 280.629231 
C 621.215045 281.292239 622.114403 281.664765 623.052038 281.664765 
z
" clip-path="url(#pe0c8c858f2)" style="fill: #1f77b4; fill-opacity: 0.3; stroke: #1f77b4; stroke-opacity: 0.3"/>
    <path d="M 632.381191 278.800151 
C 633.10748 278.800151 633.804119 278.511594 634.317683 277.99803 
C 634.831246 277.484467 635.119804 276.787827 635.119804 276.061538 
C 635.119804 275.33525 634.831246 274.63861 634.317683 274.125047 
C 633.804119 273.611483 633.10748 273.322926 632.381191 273.322926 
C 631.654903 273.322926 630.958263 273.611483 630.4447 274.125047 
C 629.931136 274.63861 629.642578 275.33525 629.642578 276.061538 
C 629.642578 276.787827 629.931136 277.484467 630.4447 277.99803 
C 630.958263 278.511594 631.654903 278.800151 632.381191 278.800151 
z
" clip-path="url(#pe0c8c858f2)" style="fill: #1f77b4; fill-opacity: 0.3; stroke: #1f77b4; stroke-opacity: 0.3"/>
    <path d="M 641.710345 274.169231 
C 643.03636 274.169231 644.308244 273.642399 645.245879 272.704765 
C 646.183513 271.76713 646.710345 270.495246 646.710345 269.169231 
C 646.710345 267.843215 646.183513 266.571331 645.245879 265.633697 
C 644.308244 264.696062 643.03636 264.169231 641.710345 264.169231 
C 640.384329 264.169231 639.112445 264.696062 638.174811 265.633697 
C 637.237176 266.571331 636.710345 267.843215 636.710345 269.169231 
C 636.710345 270.495246 637.237176 271.76713 638.174811 272.704765 
C 639.112445 273.642399 640.384329 274.169231 641.710345 274.169231 
z
" clip-path="url(#pe0c8c858f2)" style="fill: #1f77b4; fill-opacity: 0.3; stroke: #1f77b4; stroke-opacity: 0.3"/>
    <path d="M 651.039498 269.574585 
C 651.878144 269.574585 652.682554 269.241388 653.275566 268.648376 
C 653.868579 268.055364 654.201776 267.250954 654.201776 266.412308 
C 654.201776 265.573662 653.868579 264.769252 653.275566 264.17624 
C 652.682554 263.583228 651.878144 263.25003 651.039498 263.25003 
C 650.200853 263.25003 649.396443 263.583228 648.80343 264.17624 
C 648.210418 264.769252 647.877221 265.573662 647.877221 266.412308 
C 647.877221 267.250954 648.210418 268.055364 648.80343 268.648376 
C 649.396443 269.241388 650.200853 269.574585 651.039498 269.574585 
z
" clip-path="url(#pe0c8c858f2)" style="fill: #1f77b4; fill-opacity: 0.3; stroke: #1f77b4; stroke-opacity: 0.3"/>
    <path d="M 660.368652 267.304216 
C 660.787975 267.304216 661.19018 267.137617 661.486686 266.841111 
C 661.783192 266.544605 661.949791 266.1424 661.949791 265.723077 
C 661.949791 265.303754 661.783192 264.901549 661.486686 264.605043 
C 661.19018 264.308537 660.787975 264.141938 660.368652 264.141938 
C 659.949329 264.141938 659.547124 264.308537 659.250618 264.605043 
C 658.954112 264.901549 658.787513 265.303754 658.787513 265.723077 
C 658.787513 266.1424 658.954112 266.544605 659.250618 266.841111 
C 659.547124 267.137617 659.949329 267.304216 660.368652 267.304216 
z
" clip-path="url(#pe0c8c858f2)" style="fill: #1f77b4; fill-opacity: 0.3; stroke: #1f77b4; stroke-opacity: 0.3"/>
    <path d="M 669.697806 255.865335 
C 671.835941 255.865335 673.886792 255.015844 675.398683 253.503954 
C 676.910573 251.992064 677.760063 249.941213 677.760063 247.803077 
C 677.760063 245.664941 676.910573 243.61409 675.398683 242.1022 
C 673.886792 240.59031 671.835941 239.740819 669.697806 239.740819 
C 667.55967 239.740819 665.508819 240.59031 663.996929 242.1022 
C 662.485038 243.61409 661.635548 245.664941 661.635548 247.803077 
C 661.635548 249.941213 662.485038 251.992064 663.996929 253.503954 
C 665.508819 255.015844 667.55967 255.865335 669.697806 255.865335 
z
" clip-path="url(#pe0c8c858f2)" style="fill: #1f77b4; fill-opacity: 0.3; stroke: #1f77b4; stroke-opacity: 0.3"/>
    <path d="M 679.026959 247.892457 
C 679.964594 247.892457 680.863951 247.519931 681.526959 246.856923 
C 682.189967 246.193915 682.562493 245.294558 682.562493 244.356923 
C 682.562493 243.419289 682.189967 242.519931 681.526959 241.856923 
C 680.863951 241.193915 679.964594 240.821389 679.026959 240.821389 
C 678.089325 240.821389 677.189967 241.193915 676.526959 241.856923 
C 675.863951 242.519931 675.491425 243.419289 675.491425 244.356923 
C 675.491425 245.294558 675.863951 246.193915 676.526959 246.856923 
C 677.189967 247.519931 678.089325 247.892457 679.026959 247.892457 
z
" clip-path="url(#pe0c8c858f2)" style="fill: #1f77b4; fill-opacity: 0.3; stroke: #1f77b4; stroke-opacity: 0.3"/>
    <path d="M 688.356113 242.897263 
C 689.614082 242.897263 690.820697 242.397466 691.710215 241.507948 
C 692.599733 240.61843 693.099529 239.411815 693.099529 238.153846 
C 693.099529 236.895877 692.599733 235.689262 691.710215 234.799744 
C 690.820697 233.910226 689.614082 233.41043 688.356113 233.41043 
C 687.098144 233.41043 685.891529 233.910226 685.002011 234.799744 
C 684.112493 235.689262 683.612696 236.895877 683.612696 238.153846 
C 683.612696 239.411815 684.112493 240.61843 685.002011 241.507948 
C 685.891529 242.397466 687.098144 242.897263 688.356113 242.897263 
z
" clip-path="url(#pe0c8c858f2)" style="fill: #1f77b4; fill-opacity: 0.3; stroke: #1f77b4; stroke-opacity: 0.3"/>
    <path d="M 697.685266 239.011453 
C 698.278279 239.011453 698.847082 238.775846 699.266405 238.356523 
C 699.685728 237.937201 699.921334 237.368397 699.921334 236.775385 
C 699.921334 236.182372 699.685728 235.613569 699.266405 235.194246 
C 698.847082 234.774923 698.278279 234.539317 697.685266 234.539317 
C 697.092254 234.539317 696.523451 234.774923 696.104128 235.194246 
C 695.684805 235.613569 695.449198 236.182372 695.449198 236.775385 
C 695.449198 237.368397 695.684805 237.937201 696.104128 238.356523 
C 696.523451 238.775846 697.092254 239.011453 697.685266 239.011453 
z
" clip-path="url(#pe0c8c858f2)" style="fill: #1f77b4; fill-opacity: 0.3; stroke: #1f77b4; stroke-opacity: 0.3"/>
    <path d="M 707.01442 237.446305 
C 707.740709 237.446305 708.437348 237.157748 708.950912 236.644184 
C 709.464475 236.13062 709.753033 235.433981 709.753033 234.707692 
C 709.753033 233.981404 709.464475 233.284764 708.950912 232.771201 
C 708.437348 232.257637 707.740709 231.96908 707.01442 231.96908 
C 706.288131 231.96908 705.591492 232.257637 705.077928 232.771201 
C 704.564365 233.284764 704.275807 233.981404 704.275807 234.707692 
C 704.275807 235.433981 704.564365 236.13062 705.077928 236.644184 
C 705.591492 237.157748 706.288131 237.446305 707.01442 237.446305 
z
" clip-path="url(#pe0c8c858f2)" style="fill: #1f77b4; fill-opacity: 0.3; stroke: #1f77b4; stroke-opacity: 0.3"/>
    <path d="M 716.343574 231.914149 
C 717.796151 231.914149 719.18943 231.337034 720.216557 230.309906 
C 721.243684 229.282779 721.820799 227.8895 721.820799 226.436923 
C 721.820799 224.984346 721.243684 223.591067 720.216557 222.56394 
C 719.18943 221.536813 717.796151 220.959698 716.343574 220.959698 
C 714.890996 220.959698 713.497718 221.536813 712.47059 222.56394 
C 711.443463 223.591067 710.866348 224.984346 710.866348 226.436923 
C 710.866348 227.8895 711.443463 229.282779 712.47059 230.309906 
C 713.497718 231.337034 714.890996 231.914149 716.343574 231.914149 
z
" clip-path="url(#pe0c8c858f2)" style="fill: #1f77b4; fill-opacity: 0.3; stroke: #1f77b4; stroke-opacity: 0.3"/>
    <path d="M 725.672727 227.29453 
C 726.265739 227.29453 726.834543 227.058923 727.253866 226.6396 
C 727.673189 226.220277 727.908795 225.651474 727.908795 225.058462 
C 727.908795 224.465449 727.673189 223.896646 727.253866 223.477323 
C 726.834543 223.058 726.265739 222.822394 725.672727 222.822394 
C 725.079715 222.822394 724.510911 223.058 724.091588 223.477323 
C 723.672266 223.896646 723.436659 224.465449 723.436659 225.058462 
C 723.436659 225.651474 723.672266 226.220277 724.091588 226.6396 
C 724.510911 227.058923 725.079715 227.29453 725.672727 227.29453 
z
" clip-path="url(#pe0c8c858f2)" style="fill: #1f77b4; fill-opacity: 0.3; stroke: #1f77b4; stroke-opacity: 0.3"/>
    <path d="M 735.001881 225.729382 
C 735.728169 225.729382 736.424809 225.440824 736.938373 224.927261 
C 737.451936 224.413697 737.740494 223.717058 737.740494 222.990769 
C 737.740494 222.264481 737.451936 221.567841 736.938373 221.054278 
C 736.424809 220.540714 735.728169 220.252156 735.001881 220.252156 
C 734.275592 220.252156 733.578953 220.540714 733.065389 221.054278 
C 732.551826 221.567841 732.263268 222.264481 732.263268 222.990769 
C 732.263268 223.717058 732.551826 224.413697 733.065389 224.927261 
C 733.578953 225.440824 734.275592 225.729382 735.001881 225.729382 
z
" clip-path="url(#pe0c8c858f2)" style="fill: #1f77b4; fill-opacity: 0.3; stroke: #1f77b4; stroke-opacity: 0.3"/>
    <path d="M 744.331034 211.51777 
C 746.589158 211.51777 748.755098 210.620608 750.351832 209.023874 
C 751.948566 207.42714 752.845728 205.2612 752.845728 203.003077 
C 752.845728 200.744954 751.948566 198.579014 750.351832 196.98228 
C 748.755098 195.385546 746.589158 194.488384 744.331034 194.488384 
C 742.072911 194.488384 739.906971 195.385546 738.310237 196.98228 
C 736.713503 198.579014 735.816341 200.744954 735.816341 203.003077 
C 735.816341 205.2612 736.713503 207.42714 738.310237 209.023874 
C 739.906971 210.620608 742.072911 211.51777 744.331034 211.51777 
z
" clip-path="url(#pe0c8c858f2)" style="fill: #1f77b4; fill-opacity: 0.3; stroke: #1f77b4; stroke-opacity: 0.3"/>
    <path d="M 753.660188 203.860683 
C 754.2532 203.860683 754.822004 203.625077 755.241327 203.205754 
C 755.66065 202.786431 755.896256 202.217628 755.896256 201.624615 
C 755.896256 201.031603 755.66065 200.462799 755.241327 200.043477 
C 754.822004 199.624154 754.2532 199.388547 753.660188 199.388547 
C 753.067176 199.388547 752.498372 199.624154 752.079049 200.043477 
C 751.659726 200.462799 751.42412 201.031603 751.42412 201.624615 
C 751.42412 202.217628 751.659726 202.786431 752.079049 203.205754 
C 752.498372 203.625077 753.067176 203.860683 753.660188 203.860683 
z
" clip-path="url(#pe0c8c858f2)" style="fill: #1f77b4; fill-opacity: 0.3; stroke: #1f77b4; stroke-opacity: 0.3"/>
    <path d="M 762.989342 202.482222 
C 763.582354 202.482222 764.151158 202.246616 764.570481 201.827293 
C 764.989803 201.40797 765.22541 200.839166 765.22541 200.246154 
C 765.22541 199.653142 764.989803 199.084338 764.570481 198.665015 
C 764.151158 198.245692 763.582354 198.010086 762.989342 198.010086 
C 762.39633 198.010086 761.827526 198.245692 761.408203 198.665015 
C 760.98888 199.084338 760.753274 199.653142 760.753274 200.246154 
C 760.753274 200.839166 760.98888 201.40797 761.408203 201.827293 
C 761.827526 202.246616 762.39633 202.482222 762.989342 202.482222 
z
" clip-path="url(#pe0c8c858f2)" style="fill: #1f77b4; fill-opacity: 0.3; stroke: #1f77b4; stroke-opacity: 0.3"/>
    <path d="M 772.318495 198.353846 
C 773.644511 198.353846 774.916395 197.827015 775.854029 196.88938 
C 776.791664 195.951746 777.318495 194.679862 777.318495 193.353846 
C 777.318495 192.027831 776.791664 190.755947 775.854029 189.818312 
C 774.916395 188.880678 773.644511 188.353846 772.318495 188.353846 
C 770.99248 188.353846 769.720596 188.880678 768.782961 189.818312 
C 767.845327 190.755947 767.318495 192.027831 767.318495 193.353846 
C 767.318495 194.679862 767.845327 195.951746 768.782961 196.88938 
C 769.720596 197.827015 770.99248 198.353846 772.318495 198.353846 
z
" clip-path="url(#pe0c8c858f2)" style="fill: #1f77b4; fill-opacity: 0.3; stroke: #1f77b4; stroke-opacity: 0.3"/>
    <path d="M 781.647649 194.024767 
C 782.373938 194.024767 783.070577 193.736209 783.584141 193.222646 
C 784.097704 192.709082 784.386262 192.012442 784.386262 191.286154 
C 784.386262 190.559865 784.097704 189.863226 783.584141 189.349662 
C 783.070577 188.836099 782.373938 188.547541 781.647649 188.547541 
C 780.92136 188.547541 780.224721 188.836099 779.711157 189.349662 
C 779.197594 189.863226 778.909036 190.559865 778.909036 191.286154 
C 778.909036 192.012442 779.197594 192.709082 779.711157 193.222646 
C 780.224721 193.736209 780.92136 194.024767 781.647649 194.024767 
z
" clip-path="url(#pe0c8c858f2)" style="fill: #1f77b4; fill-opacity: 0.3; stroke: #1f77b4; stroke-opacity: 0.3"/>
    <path d="M 790.976803 183.016722 
C 792.987805 183.016722 794.916712 182.217742 796.338705 180.795749 
C 797.760698 179.373756 798.559678 177.444848 798.559678 175.433846 
C 798.559678 173.422844 797.760698 171.493937 796.338705 170.071944 
C 794.916712 168.64995 792.987805 167.850971 790.976803 167.850971 
C 788.9658 167.850971 787.036893 168.64995 785.6149 170.071944 
C 784.192907 171.493937 783.393927 173.422844 783.393927 175.433846 
C 783.393927 177.444848 784.192907 179.373756 785.6149 180.795749 
C 787.036893 182.217742 788.9658 183.016722 790.976803 183.016722 
z
" clip-path="url(#pe0c8c858f2)" style="fill: #1f77b4; fill-opacity: 0.3; stroke: #1f77b4; stroke-opacity: 0.3"/>
    <path d="M 800.305956 176.325754 
C 800.725279 176.325754 801.127484 176.159155 801.42399 175.862649 
C 801.720496 175.566143 801.887095 175.163938 801.887095 174.744615 
C 801.887095 174.325292 801.720496 173.923087 801.42399 173.626581 
C 801.127484 173.330075 800.725279 173.163477 800.305956 173.163477 
C 799.886633 173.163477 799.484428 173.330075 799.187922 173.626581 
C 798.891416 173.923087 798.724817 174.325292 798.724817 174.744615 
C 798.724817 175.163938 798.891416 175.566143 799.187922 175.862649 
C 799.484428 176.159155 799.886633 176.325754 800.305956 176.325754 
z
" clip-path="url(#pe0c8c858f2)" style="fill: #1f77b4; fill-opacity: 0.3; stroke: #1f77b4; stroke-opacity: 0.3"/>
    <path d="M 809.63511 175.602222 
C 810.228122 175.602222 810.796926 175.366616 811.216249 174.947293 
C 811.635571 174.52797 811.871178 173.959166 811.871178 173.366154 
C 811.871178 172.773142 811.635571 172.204338 811.216249 171.785015 
C 810.796926 171.365692 810.228122 171.130086 809.63511 171.130086 
C 809.042098 171.130086 808.473294 171.365692 808.053971 171.785015 
C 807.634648 172.204338 807.399042 172.773142 807.399042 173.366154 
C 807.399042 173.959166 807.634648 174.52797 808.053971 174.947293 
C 808.473294 175.366616 809.042098 175.602222 809.63511 175.602222 
z
" clip-path="url(#pe0c8c858f2)" style="fill: #1f77b4; fill-opacity: 0.3; stroke: #1f77b4; stroke-opacity: 0.3"/>
    <path d="M 818.964263 173.455534 
C 819.901898 173.455534 820.801256 173.083008 821.464263 172.42 
C 822.127271 171.756992 822.499797 170.857635 822.499797 169.92 
C 822.499797 168.982365 822.127271 168.083008 821.464263 167.42 
C 820.801256 166.756992 819.901898 166.384466 818.964263 166.384466 
C 818.026629 166.384466 817.127271 166.756992 816.464263 167.42 
C 815.801256 168.083008 815.428729 168.982365 815.428729 169.92 
C 815.428729 170.857635 815.801256 171.756992 816.464263 172.42 
C 817.127271 173.083008 818.026629 173.455534 818.964263 173.455534 
z
" clip-path="url(#pe0c8c858f2)" style="fill: #1f77b4; fill-opacity: 0.3; stroke: #1f77b4; stroke-opacity: 0.3"/>
    <path d="M 828.293417 170.00938 
C 829.231051 170.00938 830.130409 169.636854 830.793417 168.973846 
C 831.456425 168.310838 831.828951 167.411481 831.828951 166.473846 
C 831.828951 165.536212 831.456425 164.636854 830.793417 163.973846 
C 830.130409 163.310838 829.231051 162.938312 828.293417 162.938312 
C 827.355782 162.938312 826.456425 163.310838 825.793417 163.973846 
C 825.130409 164.636854 824.757883 165.536212 824.757883 166.473846 
C 824.757883 167.411481 825.130409 168.310838 825.793417 168.973846 
C 826.456425 169.636854 827.355782 170.00938 828.293417 170.00938 
z
" clip-path="url(#pe0c8c858f2)" style="fill: #1f77b4; fill-opacity: 0.3; stroke: #1f77b4; stroke-opacity: 0.3"/>
    <path d="M 837.622571 164.136352 
C 839.013307 164.136352 840.34727 163.583806 841.33067 162.600407 
C 842.314069 161.617008 842.866615 160.283044 842.866615 158.892308 
C 842.866615 157.501571 842.314069 156.167608 841.33067 155.184208 
C 840.34727 154.200809 839.013307 153.648263 837.622571 153.648263 
C 836.231834 153.648263 834.897871 154.200809 833.914471 155.184208 
C 832.931072 156.167608 832.378526 157.501571 832.378526 158.892308 
C 832.378526 160.283044 832.931072 161.617008 833.914471 162.600407 
C 834.897871 163.583806 836.231834 164.136352 837.622571 164.136352 
z
" clip-path="url(#pe0c8c858f2)" style="fill: #1f77b4; fill-opacity: 0.3; stroke: #1f77b4; stroke-opacity: 0.3"/>
    <path d="M 846.951724 158.981688 
C 847.889359 158.981688 848.788716 158.609162 849.451724 157.946154 
C 850.114732 157.283146 850.487258 156.383788 850.487258 155.446154 
C 850.487258 154.508519 850.114732 153.609162 849.451724 152.946154 
C 848.788716 152.283146 847.889359 151.91062 846.951724 151.91062 
C 846.01409 151.91062 845.114732 152.283146 844.451724 152.946154 
C 843.788716 153.609162 843.41619 154.508519 843.41619 155.446154 
C 843.41619 156.383788 843.788716 157.283146 844.451724 157.946154 
C 845.114732 158.609162 846.01409 158.981688 846.951724 158.981688 
z
" clip-path="url(#pe0c8c858f2)" style="fill: #1f77b4; fill-opacity: 0.3; stroke: #1f77b4; stroke-opacity: 0.3"/>
    <path d="M 856.280878 155.851508 
C 857.119524 155.851508 857.923934 155.518311 858.516946 154.925299 
C 859.109958 154.332287 859.443155 153.527877 859.443155 152.689231 
C 859.443155 151.850585 859.109958 151.046175 858.516946 150.453163 
C 857.923934 149.860151 857.119524 149.526953 856.280878 149.526953 
C 855.442232 149.526953 854.637822 149.860151 854.04481 150.453163 
C 853.451798 151.046175 853.1186 151.850585 853.1186 152.689231 
C 853.1186 153.527877 853.451798 154.332287 854.04481 154.925299 
C 854.637822 155.518311 855.442232 155.851508 856.280878 155.851508 
z
" clip-path="url(#pe0c8c858f2)" style="fill: #1f77b4; fill-opacity: 0.3; stroke: #1f77b4; stroke-opacity: 0.3"/>
    <path d="M 865.610031 150.351737 
C 867.000768 150.351737 868.334731 149.799191 869.318131 148.815792 
C 870.30153 147.832392 870.854076 146.498429 870.854076 145.107692 
C 870.854076 143.716956 870.30153 142.382992 869.318131 141.399593 
C 868.334731 140.416194 867.000768 139.863648 865.610031 139.863648 
C 864.219295 139.863648 862.885332 140.416194 861.901932 141.399593 
C 860.918533 142.382992 860.365987 143.716956 860.365987 145.107692 
C 860.365987 146.498429 860.918533 147.832392 861.901932 148.815792 
C 862.885332 149.799191 864.219295 150.351737 865.610031 150.351737 
z
" clip-path="url(#pe0c8c858f2)" style="fill: #1f77b4; fill-opacity: 0.3; stroke: #1f77b4; stroke-opacity: 0.3"/>
    <path d="M 874.939185 140.404555 
C 876.616477 140.404555 878.225297 139.73816 879.411321 138.552136 
C 880.597345 137.366112 881.26374 135.757292 881.26374 134.08 
C 881.26374 132.402708 880.597345 130.793888 879.411321 129.607864 
C 878.225297 128.42184 876.616477 127.755445 874.939185 127.755445 
C 873.261893 127.755445 871.653073 128.42184 870.467049 129.607864 
C 869.281025 130.793888 868.61463 132.402708 868.61463 134.08 
C 868.61463 135.757292 869.281025 137.366112 870.467049 138.552136 
C 871.653073 139.73816 873.261893 140.404555 874.939185 140.404555 
z
" clip-path="url(#pe0c8c858f2)" style="fill: #1f77b4; fill-opacity: 0.3; stroke: #1f77b4; stroke-opacity: 0.3"/>
    <path d="M 884.268339 133.438685 
C 885.377763 133.438685 886.441897 132.997906 887.226378 132.213425 
C 888.01086 131.428943 888.451639 130.364809 888.451639 129.255385 
C 888.451639 128.14596 888.01086 127.081826 887.226378 126.297345 
C 886.441897 125.512863 885.377763 125.072084 884.268339 125.072084 
C 883.158914 125.072084 882.09478 125.512863 881.310299 126.297345 
C 880.525817 127.081826 880.085038 128.14596 880.085038 129.255385 
C 880.085038 130.364809 880.525817 131.428943 881.310299 132.213425 
C 882.09478 132.997906 883.158914 133.438685 884.268339 133.438685 
z
" clip-path="url(#pe0c8c858f2)" style="fill: #1f77b4; fill-opacity: 0.3; stroke: #1f77b4; stroke-opacity: 0.3"/>
    <path d="M 893.597492 129.660739 
C 894.436138 129.660739 895.240548 129.327542 895.83356 128.73453 
C 896.426572 128.141517 896.75977 127.337107 896.75977 126.498462 
C 896.75977 125.659816 896.426572 124.855406 895.83356 124.262394 
C 895.240548 123.669381 894.436138 123.336184 893.597492 123.336184 
C 892.758846 123.336184 891.954436 123.669381 891.361424 124.262394 
C 890.768412 124.855406 890.435215 125.659816 890.435215 126.498462 
C 890.435215 127.337107 890.768412 128.141517 891.361424 128.73453 
C 891.954436 129.327542 892.758846 129.660739 893.597492 129.660739 
z
" clip-path="url(#pe0c8c858f2)" style="fill: #1f77b4; fill-opacity: 0.3; stroke: #1f77b4; stroke-opacity: 0.3"/>
    <path d="M 902.926646 127.356068 
C 903.519658 127.356068 904.088462 127.120462 904.507785 126.701139 
C 904.927108 126.281816 905.162714 125.713012 905.162714 125.12 
C 905.162714 124.526988 904.927108 123.958184 904.507785 123.538861 
C 904.088462 123.119538 903.519658 122.883932 902.926646 122.883932 
C 902.333634 122.883932 901.76483 123.119538 901.345507 123.538861 
C 900.926184 123.958184 900.690578 124.526988 900.690578 125.12 
C 900.690578 125.713012 900.926184 126.281816 901.345507 126.701139 
C 901.76483 127.120462 902.333634 127.356068 902.926646 127.356068 
z
" clip-path="url(#pe0c8c858f2)" style="fill: #1f77b4; fill-opacity: 0.3; stroke: #1f77b4; stroke-opacity: 0.3"/>
    <path d="M 912.255799 123.66034 
C 913.513768 123.66034 914.720383 123.160543 915.609901 122.271025 
C 916.49942 121.381507 916.999216 120.174892 916.999216 118.916923 
C 916.999216 117.658954 916.49942 116.452339 915.609901 115.562821 
C 914.720383 114.673303 913.513768 114.173507 912.255799 114.173507 
C 910.997831 114.173507 909.791216 114.673303 908.901697 115.562821 
C 908.012179 116.452339 907.512383 117.658954 907.512383 118.916923 
C 907.512383 120.174892 908.012179 121.381507 908.901697 122.271025 
C 909.791216 123.160543 910.997831 123.66034 912.255799 123.66034 
z
" clip-path="url(#pe0c8c858f2)" style="fill: #1f77b4; fill-opacity: 0.3; stroke: #1f77b4; stroke-opacity: 0.3"/>
    <path d="M 921.584953 119.322278 
C 922.423599 119.322278 923.228009 118.98908 923.821021 118.396068 
C 924.414033 117.803056 924.747231 116.998646 924.747231 116.16 
C 924.747231 115.321354 924.414033 114.516944 923.821021 113.923932 
C 923.228009 113.33092 922.423599 112.997722 921.584953 112.997722 
C 920.746307 112.997722 919.941897 113.33092 919.348885 113.923932 
C 918.755873 114.516944 918.422675 115.321354 918.422675 116.16 
C 918.422675 116.998646 918.755873 117.803056 919.348885 118.396068 
C 919.941897 118.98908 920.746307 119.322278 921.584953 119.322278 
z
" clip-path="url(#pe0c8c858f2)" style="fill: #1f77b4; fill-opacity: 0.3; stroke: #1f77b4; stroke-opacity: 0.3"/>
    <path d="M 930.914107 115.897599 
C 931.941234 115.897599 932.926431 115.489517 933.652719 114.763228 
C 934.379008 114.03694 934.78709 113.051743 934.78709 112.024615 
C 934.78709 110.997488 934.379008 110.012291 933.652719 109.286003 
C 932.926431 108.559714 931.941234 108.151632 930.914107 108.151632 
C 929.886979 108.151632 928.901782 108.559714 928.175494 109.286003 
C 927.449205 110.012291 927.041123 110.997488 927.041123 112.024615 
C 927.041123 113.051743 927.449205 114.03694 928.175494 114.763228 
C 928.901782 115.489517 929.886979 115.897599 930.914107 115.897599 
z
" clip-path="url(#pe0c8c858f2)" style="fill: #1f77b4; fill-opacity: 0.3; stroke: #1f77b4; stroke-opacity: 0.3"/>
    <path d="M 940.24326 112.882222 
C 940.836272 112.882222 941.405076 112.646616 941.824399 112.227293 
C 942.243722 111.80797 942.479328 111.239166 942.479328 110.646154 
C 942.479328 110.053142 942.243722 109.484338 941.824399 109.065015 
C 941.405076 108.645692 940.836272 108.410086 940.24326 108.410086 
C 939.650248 108.410086 939.081444 108.645692 938.662121 109.065015 
C 938.242798 109.484338 938.007192 110.053142 938.007192 110.646154 
C 938.007192 111.239166 938.242798 111.80797 938.662121 112.227293 
C 939.081444 112.646616 939.650248 112.882222 940.24326 112.882222 
z
" clip-path="url(#pe0c8c858f2)" style="fill: #1f77b4; fill-opacity: 0.3; stroke: #1f77b4; stroke-opacity: 0.3"/>
    <path d="M 949.572414 111.051508 
C 950.41106 111.051508 951.21547 110.718311 951.808482 110.125299 
C 952.401494 109.532287 952.734691 108.727877 952.734691 107.889231 
C 952.734691 107.050585 952.401494 106.246175 951.808482 105.653163 
C 951.21547 105.060151 950.41106 104.726953 949.572414 104.726953 
C 948.733768 104.726953 947.929358 105.060151 947.336346 105.653163 
C 946.743334 106.246175 946.410136 107.050585 946.410136 107.889231 
C 946.410136 108.727877 946.743334 109.532287 947.336346 110.125299 
C 947.929358 110.718311 948.733768 111.051508 949.572414 111.051508 
z
" clip-path="url(#pe0c8c858f2)" style="fill: #1f77b4; fill-opacity: 0.3; stroke: #1f77b4; stroke-opacity: 0.3"/>
    <path d="M 958.901567 107.978611 
C 959.839202 107.978611 960.73856 107.606085 961.401567 106.943077 
C 962.064575 106.280069 962.437101 105.380711 962.437101 104.443077 
C 962.437101 103.505442 962.064575 102.606085 961.401567 101.943077 
C 960.73856 101.280069 959.839202 100.907543 958.901567 100.907543 
C 957.963933 100.907543 957.064575 101.280069 956.401567 101.943077 
C 955.73856 102.606085 955.366033 103.505442 955.366033 104.443077 
C 955.366033 105.380711 955.73856 106.280069 956.401567 106.943077 
C 957.064575 107.606085 957.963933 107.978611 958.901567 107.978611 
z
" clip-path="url(#pe0c8c858f2)" style="fill: #1f77b4; fill-opacity: 0.3; stroke: #1f77b4; stroke-opacity: 0.3"/>
    <path d="M 968.230721 105.300683 
C 968.823733 105.300683 969.392537 105.065077 969.81186 104.645754 
C 970.231183 104.226431 970.466789 103.657628 970.466789 103.064615 
C 970.466789 102.471603 970.231183 101.902799 969.81186 101.483477 
C 969.392537 101.064154 968.823733 100.828547 968.230721 100.828547 
C 967.637709 100.828547 967.068905 101.064154 966.649582 101.483477 
C 966.230259 101.902799 965.994653 102.471603 965.994653 103.064615 
C 965.994653 103.657628 966.230259 104.226431 966.649582 104.645754 
C 967.068905 105.065077 967.637709 105.300683 968.230721 105.300683 
z
" clip-path="url(#pe0c8c858f2)" style="fill: #1f77b4; fill-opacity: 0.3; stroke: #1f77b4; stroke-opacity: 0.3"/>
    <path d="M 977.559875 101.604955 
C 978.817843 101.604955 980.024458 101.105159 980.913977 100.21564 
C 981.803495 99.326122 982.303291 98.119507 982.303291 96.861538 
C 982.303291 95.60357 981.803495 94.396955 980.913977 93.507436 
C 980.024458 92.617918 978.817843 92.118122 977.559875 92.118122 
C 976.301906 92.118122 975.095291 92.617918 974.205773 93.507436 
C 973.316254 94.396955 972.816458 95.60357 972.816458 96.861538 
C 972.816458 98.119507 973.316254 99.326122 974.205773 100.21564 
C 975.095291 101.105159 976.301906 101.604955 977.559875 101.604955 
z
" clip-path="url(#pe0c8c858f2)" style="fill: #1f77b4; fill-opacity: 0.3; stroke: #1f77b4; stroke-opacity: 0.3"/>
    <path d="M 986.889028 97.266893 
C 987.727674 97.266893 988.532084 96.933696 989.125096 96.340683 
C 989.718108 95.747671 990.051306 94.943261 990.051306 94.104615 
C 990.051306 93.26597 989.718108 92.46156 989.125096 91.868547 
C 988.532084 91.275535 987.727674 90.942338 986.889028 90.942338 
C 986.050382 90.942338 985.245972 91.275535 984.65296 91.868547 
C 984.059948 92.46156 983.726751 93.26597 983.726751 94.104615 
C 983.726751 94.943261 984.059948 95.747671 984.65296 96.340683 
C 985.245972 96.933696 986.050382 97.266893 986.889028 97.266893 
z
" clip-path="url(#pe0c8c858f2)" style="fill: #1f77b4; fill-opacity: 0.3; stroke: #1f77b4; stroke-opacity: 0.3"/>
    <path d="M 996.218182 93.4633 
C 997.327606 93.4633 998.39174 93.022521 999.176222 92.23804 
C 999.960703 91.453559 1000.401482 90.389424 1000.401482 89.28 
C 1000.401482 88.170576 999.960703 87.106441 999.176222 86.32196 
C 998.39174 85.537479 997.327606 85.0967 996.218182 85.0967 
C 995.108758 85.0967 994.044623 85.537479 993.260142 86.32196 
C 992.475661 87.106441 992.034882 88.170576 992.034882 89.28 
C 992.034882 90.389424 992.475661 91.453559 993.260142 92.23804 
C 994.044623 93.022521 995.108758 93.4633 996.218182 93.4633 
z
" clip-path="url(#pe0c8c858f2)" style="fill: #1f77b4; fill-opacity: 0.3; stroke: #1f77b4; stroke-opacity: 0.3"/>
   </g>
   <g id="matplotlib.axis_1">
    <g id="xtick_1">
     <g id="line2d_1">
      <defs>
       <path id="mc878ce27c1" d="M 0 0 
L 0 3.5 
" style="stroke: #000000; stroke-width: 0.8"/>
      </defs>
      <g>
       <use xlink:href="#mc878ce27c1" x="184.581818" y="512.64" style="stroke: #000000; stroke-width: 0.8"/>
      </g>
     </g>
     <g id="text_1">
      <!-- 2024-01-01 -->
      <g transform="translate(155.524006 527.238438) scale(0.1 -0.1)">
       <defs>
        <path id="DejaVuSans-32" d="M 1228 531 
L 3431 531 
L 3431 0 
L 469 0 
L 469 531 
Q 828 903 1448 1529 
Q 2069 2156 2228 2338 
Q 2531 2678 2651 2914 
Q 2772 3150 2772 3378 
Q 2772 3750 2511 3984 
Q 2250 4219 1831 4219 
Q 1534 4219 1204 4116 
Q 875 4013 500 3803 
L 500 4441 
Q 881 4594 1212 4672 
Q 1544 4750 1819 4750 
Q 2544 4750 2975 4387 
Q 3406 4025 3406 3419 
Q 3406 3131 3298 2873 
Q 3191 2616 2906 2266 
Q 2828 2175 2409 1742 
Q 1991 1309 1228 531 
z
" transform="scale(0.015625)"/>
        <path id="DejaVuSans-30" d="M 2034 4250 
Q 1547 4250 1301 3770 
Q 1056 3291 1056 2328 
Q 1056 1369 1301 889 
Q 1547 409 2034 409 
Q 2525 409 2770 889 
Q 3016 1369 3016 2328 
Q 3016 3291 2770 3770 
Q 2525 4250 2034 4250 
z
M 2034 4750 
Q 2819 4750 3233 4129 
Q 3647 3509 3647 2328 
Q 3647 1150 3233 529 
Q 2819 -91 2034 -91 
Q 1250 -91 836 529 
Q 422 1150 422 2328 
Q 422 3509 836 4129 
Q 1250 4750 2034 4750 
z
" transform="scale(0.015625)"/>
        <path id="DejaVuSans-34" d="M 2419 4116 
L 825 1625 
L 2419 1625 
L 2419 4116 
z
M 2253 4666 
L 3047 4666 
L 3047 1625 
L 3713 1625 
L 3713 1100 
L 3047 1100 
L 3047 0 
L 2419 0 
L 2419 1100 
L 313 1100 
L 313 1709 
L 2253 4666 
z
" transform="scale(0.015625)"/>
        <path id="DejaVuSans-2d" d="M 313 2009 
L 1997 2009 
L 1997 1497 
L 313 1497 
L 313 2009 
z
" transform="scale(0.015625)"/>
        <path id="DejaVuSans-31" d="M 794 531 
L 1825 531 
L 1825 4091 
L 703 3866 
L 703 4441 
L 1819 4666 
L 2450 4666 
L 2450 531 
L 3481 531 
L 3481 0 
L 794 0 
L 794 531 
z
" transform="scale(0.015625)"/>
       </defs>
       <use xlink:href="#DejaVuSans-32"/>
       <use xlink:href="#DejaVuSans-30" x="63.623047"/>
       <use xlink:href="#DejaVuSans-32" x="127.246094"/>
       <use xlink:href="#DejaVuSans-34" x="190.869141"/>
       <use xlink:href="#DejaVuSans-2d" x="254.492188"/>
       <use xlink:href="#DejaVuSans-30" x="290.576172"/>
       <use xlink:href="#DejaVuSans-31" x="354.199219"/>
       <use xlink:href="#DejaVuSans-2d" x="417.822266"/>
       <use xlink:href="#DejaVuSans-30" x="453.90625"/>
       <use xlink:href="#DejaVuSans-31" x="517.529297"/>
      </g>
     </g>
    </g>
    <g id="xtick_2">
     <g id="line2d_2">
      <g>
       <use xlink:href="#mc878ce27c1" x="315.189969" y="512.64" style="stroke: #000000; stroke-width: 0.8"/>
      </g>
     </g>
     <g id="text_2">
      <!-- 2024-01-15 -->
      <g transform="translate(286.132156 527.238438) scale(0.1 -0.1)">
       <defs>
        <path id="DejaVuSans-35" d="M 691 4666 
L 3169 4666 
L 3169 4134 
L 1269 4134 
L 1269 2991 
Q 1406 3038 1543 3061 
Q 1681 3084 1819 3084 
Q 2600 3084 3056 2656 
Q 3513 2228 3513 1497 
Q 3513 744 3044 326 
Q 2575 -91 1722 -91 
Q 1428 -91 1123 -41 
Q 819 9 494 109 
L 494 744 
Q 775 591 1075 516 
Q 1375 441 1709 441 
Q 2250 441 2565 725 
Q 2881 1009 2881 1497 
Q 2881 1984 2565 2268 
Q 2250 2553 1709 2553 
Q 1456 2553 1204 2497 
Q 953 2441 691 2322 
L 691 4666 
z
" transform="scale(0.015625)"/>
       </defs>
       <use xlink:href="#DejaVuSans-32"/>
       <use xlink:href="#DejaVuSans-30" x="63.623047"/>
       <use xlink:href="#DejaVuSans-32" x="127.246094"/>
       <use xlink:href="#DejaVuSans-34" x="190.869141"/>
       <use xlink:href="#DejaVuSans-2d" x="254.492188"/>
       <use xlink:href="#DejaVuSans-30" x="290.576172"/>
       <use xlink:href="#DejaVuSans-31" x="354.199219"/>
       <use xlink:href="#DejaVuSans-2d" x="417.822266"/>
       <use xlink:href="#DejaVuSans-31" x="453.90625"/>
       <use xlink:href="#DejaVuSans-35" x="517.529297"/>
      </g>
     </g>
    </g>
    <g id="xtick_3">
     <g id="line2d_3">
      <g>
       <use xlink:href="#mc878ce27c1" x="473.78558" y="512.64" style="stroke: #000000; stroke-width: 0.8"/>
      </g>
     </g>
     <g id="text_3">
      <!-- 2024-02-01 -->
      <g transform="translate(444.727767 527.238438) scale(0.1 -0.1)">
       <use xlink:href="#DejaVuSans-32"/>
       <use xlink:href="#DejaVuSans-30" x="63.623047"/>
       <use xlink:href="#DejaVuSans-32" x="127.246094"/>
       <use xlink:href="#DejaVuSans-34" x="190.869141"/>
       <use xlink:href="#DejaVuSans-2d" x="254.492188"/>
       <use xlink:href="#DejaVuSans-30" x="290.576172"/>
       <use xlink:href="#DejaVuSans-32" x="354.199219"/>
       <use xlink:href="#DejaVuSans-2d" x="417.822266"/>
       <use xlink:href="#DejaVuSans-30" x="453.90625"/>
       <use xlink:href="#DejaVuSans-31" x="517.529297"/>
      </g>
     </g>
    </g>
    <g id="xtick_4">
     <g id="line2d_4">
      <g>
       <use xlink:href="#mc878ce27c1" x="604.39373" y="512.64" style="stroke: #000000; stroke-width: 0.8"/>
      </g>
     </g>
     <g id="text_4">
      <!-- 2024-02-15 -->
      <g transform="translate(575.335918 527.238438) scale(0.1 -0.1)">
       <use xlink:href="#DejaVuSans-32"/>
       <use xlink:href="#DejaVuSans-30" x="63.623047"/>
       <use xlink:href="#DejaVuSans-32" x="127.246094"/>
       <use xlink:href="#DejaVuSans-34" x="190.869141"/>
       <use xlink:href="#DejaVuSans-2d" x="254.492188"/>
       <use xlink:href="#DejaVuSans-30" x="290.576172"/>
       <use xlink:href="#DejaVuSans-32" x="354.199219"/>
       <use xlink:href="#DejaVuSans-2d" x="417.822266"/>
       <use xlink:href="#DejaVuSans-31" x="453.90625"/>
       <use xlink:href="#DejaVuSans-35" x="517.529297"/>
      </g>
     </g>
    </g>
    <g id="xtick_5">
     <g id="line2d_5">
      <g>
       <use xlink:href="#mc878ce27c1" x="744.331034" y="512.64" style="stroke: #000000; stroke-width: 0.8"/>
      </g>
     </g>
     <g id="text_5">
      <!-- 2024-03-01 -->
      <g transform="translate(715.273222 527.238438) scale(0.1 -0.1)">
       <defs>
        <path id="DejaVuSans-33" d="M 2597 2516 
Q 3050 2419 3304 2112 
Q 3559 1806 3559 1356 
Q 3559 666 3084 287 
Q 2609 -91 1734 -91 
Q 1441 -91 1130 -33 
Q 819 25 488 141 
L 488 750 
Q 750 597 1062 519 
Q 1375 441 1716 441 
Q 2309 441 2620 675 
Q 2931 909 2931 1356 
Q 2931 1769 2642 2001 
Q 2353 2234 1838 2234 
L 1294 2234 
L 1294 2753 
L 1863 2753 
Q 2328 2753 2575 2939 
Q 2822 3125 2822 3475 
Q 2822 3834 2567 4026 
Q 2313 4219 1838 4219 
Q 1578 4219 1281 4162 
Q 984 4106 628 3988 
L 628 4550 
Q 988 4650 1302 4700 
Q 1616 4750 1894 4750 
Q 2613 4750 3031 4423 
Q 3450 4097 3450 3541 
Q 3450 3153 3228 2886 
Q 3006 2619 2597 2516 
z
" transform="scale(0.015625)"/>
       </defs>
       <use xlink:href="#DejaVuSans-32"/>
       <use xlink:href="#DejaVuSans-30" x="63.623047"/>
       <use xlink:href="#DejaVuSans-32" x="127.246094"/>
       <use xlink:href="#DejaVuSans-34" x="190.869141"/>
       <use xlink:href="#DejaVuSans-2d" x="254.492188"/>
       <use xlink:href="#DejaVuSans-30" x="290.576172"/>
       <use xlink:href="#DejaVuSans-33" x="354.199219"/>
       <use xlink:href="#DejaVuSans-2d" x="417.822266"/>
       <use xlink:href="#DejaVuSans-30" x="453.90625"/>
       <use xlink:href="#DejaVuSans-31" x="517.529297"/>
      </g>
     </g>
    </g>
    <g id="xtick_6">
     <g id="line2d_6">
      <g>
       <use xlink:href="#mc878ce27c1" x="874.939185" y="512.64" style="stroke: #000000; stroke-width: 0.8"/>
      </g>
     </g>
     <g id="text_6">
      <!-- 2024-03-15 -->
      <g transform="translate(845.881372 527.238438) scale(0.1 -0.1)">
       <use xlink:href="#DejaVuSans-32"/>
       <use xlink:href="#DejaVuSans-30" x="63.623047"/>
       <use xlink:href="#DejaVuSans-32" x="127.246094"/>
       <use xlink:href="#DejaVuSans-34" x="190.869141"/>
       <use xlink:href="#DejaVuSans-2d" x="254.492188"/>
       <use xlink:href="#DejaVuSans-30" x="290.576172"/>
       <use xlink:href="#DejaVuSans-33" x="354.199219"/>
       <use xlink:href="#DejaVuSans-2d" x="417.822266"/>
       <use xlink:href="#DejaVuSans-31" x="453.90625"/>
       <use xlink:href="#DejaVuSans-35" x="517.529297"/>
      </g>
     </g>
    </g>
    <g id="xtick_7">
     <g id="line2d_7">
      <g>
       <use xlink:href="#mc878ce27c1" x="1033.534796" y="512.64" style="stroke: #000000; stroke-width: 0.8"/>
      </g>
     </g>
     <g id="text_7">
      <!-- 2024-04-01 -->
      <g transform="translate(1004.476984 527.238438) scale(0.1 -0.1)">
       <use xlink:href="#DejaVuSans-32"/>
       <use xlink:href="#DejaVuSans-30" x="63.623047"/>
       <use xlink:href="#DejaVuSans-32" x="127.246094"/>
       <use xlink:href="#DejaVuSans-34" x="190.869141"/>
       <use xlink:href="#DejaVuSans-2d" x="254.492188"/>
       <use xlink:href="#DejaVuSans-30" x="290.576172"/>
       <use xlink:href="#DejaVuSans-34" x="354.199219"/>
       <use xlink:href="#DejaVuSans-2d" x="417.822266"/>
       <use xlink:href="#DejaVuSans-30" x="453.90625"/>
       <use xlink:href="#DejaVuSans-31" x="517.529297"/>
      </g>
     </g>
    </g>
   </g>
   <g id="matplotlib.axis_2">
    <g id="ytick_1">
     <g id="line2d_8">
      <defs>
       <path id="m81ab0d3365" d="M 0 0 
L -3.5 0 
" style="stroke: #000000; stroke-width: 0.8"/>
      </defs>
      <g>
       <use xlink:href="#m81ab0d3365" x="144" y="474.56" style="stroke: #000000; stroke-width: 0.8"/>
      </g>
     </g>
     <g id="text_8">
      <!-- 6300 -->
      <g transform="translate(111.55 478.359219) scale(0.1 -0.1)">
       <defs>
        <path id="DejaVuSans-36" d="M 2113 2584 
Q 1688 2584 1439 2293 
Q 1191 2003 1191 1497 
Q 1191 994 1439 701 
Q 1688 409 2113 409 
Q 2538 409 2786 701 
Q 3034 994 3034 1497 
Q 3034 2003 2786 2293 
Q 2538 2584 2113 2584 
z
M 3366 4563 
L 3366 3988 
Q 3128 4100 2886 4159 
Q 2644 4219 2406 4219 
Q 1781 4219 1451 3797 
Q 1122 3375 1075 2522 
Q 1259 2794 1537 2939 
Q 1816 3084 2150 3084 
Q 2853 3084 3261 2657 
Q 3669 2231 3669 1497 
Q 3669 778 3244 343 
Q 2819 -91 2113 -91 
Q 1303 -91 875 529 
Q 447 1150 447 2328 
Q 447 3434 972 4092 
Q 1497 4750 2381 4750 
Q 2619 4750 2861 4703 
Q 3103 4656 3366 4563 
z
" transform="scale(0.015625)"/>
       </defs>
       <use xlink:href="#DejaVuSans-36"/>
       <use xlink:href="#DejaVuSans-33" x="63.623047"/>
       <use xlink:href="#DejaVuSans-30" x="127.246094"/>
       <use xlink:href="#DejaVuSans-30" x="190.869141"/>
      </g>
     </g>
    </g>
    <g id="ytick_2">
     <g id="line2d_9">
      <g>
       <use xlink:href="#m81ab0d3365" x="144" y="405.636923" style="stroke: #000000; stroke-width: 0.8"/>
      </g>
     </g>
     <g id="text_9">
      <!-- 6400 -->
      <g transform="translate(111.55 409.436142) scale(0.1 -0.1)">
       <use xlink:href="#DejaVuSans-36"/>
       <use xlink:href="#DejaVuSans-34" x="63.623047"/>
       <use xlink:href="#DejaVuSans-30" x="127.246094"/>
       <use xlink:href="#DejaVuSans-30" x="190.869141"/>
      </g>
     </g>
    </g>
    <g id="ytick_3">
     <g id="line2d_10">
      <g>
       <use xlink:href="#m81ab0d3365" x="144" y="336.713846" style="stroke: #000000; stroke-width: 0.8"/>
      </g>
     </g>
     <g id="text_10">
      <!-- 6500 -->
      <g transform="translate(111.55 340.513065) scale(0.1 -0.1)">
       <use xlink:href="#DejaVuSans-36"/>
       <use xlink:href="#DejaVuSans-35" x="63.623047"/>
       <use xlink:href="#DejaVuSans-30" x="127.246094"/>
       <use xlink:href="#DejaVuSans-30" x="190.869141"/>
      </g>
     </g>
    </g>
    <g id="ytick_4">
     <g id="line2d_11">
      <g>
       <use xlink:href="#m81ab0d3365" x="144" y="267.790769" style="stroke: #000000; stroke-width: 0.8"/>
      </g>
     </g>
     <g id="text_11">
      <!-- 6600 -->
      <g transform="translate(111.55 271.589988) scale(0.1 -0.1)">
       <use xlink:href="#DejaVuSans-36"/>
       <use xlink:href="#DejaVuSans-36" x="63.623047"/>
       <use xlink:href="#DejaVuSans-30" x="127.246094"/>
       <use xlink:href="#DejaVuSans-30" x="190.869141"/>
      </g>
     </g>
    </g>
    <g id="ytick_5">
     <g id="line2d_12">
      <g>
       <use xlink:href="#m81ab0d3365" x="144" y="198.867692" style="stroke: #000000; stroke-width: 0.8"/>
      </g>
     </g>
     <g id="text_12">
      <!-- 6700 -->
      <g transform="translate(111.55 202.666911) scale(0.1 -0.1)">
       <defs>
        <path id="DejaVuSans-37" d="M 525 4666 
L 3525 4666 
L 3525 4397 
L 1831 0 
L 1172 0 
L 2766 4134 
L 525 4134 
L 525 4666 
z
" transform="scale(0.015625)"/>
       </defs>
       <use xlink:href="#DejaVuSans-36"/>
       <use xlink:href="#DejaVuSans-37" x="63.623047"/>
       <use xlink:href="#DejaVuSans-30" x="127.246094"/>
       <use xlink:href="#DejaVuSans-30" x="190.869141"/>
      </g>
     </g>
    </g>
    <g id="ytick_6">
     <g id="line2d_13">
      <g>
       <use xlink:href="#m81ab0d3365" x="144" y="129.944615" style="stroke: #000000; stroke-width: 0.8"/>
      </g>
     </g>
     <g id="text_13">
      <!-- 6800 -->
      <g transform="translate(111.55 133.743834) scale(0.1 -0.1)">
       <defs>
        <path id="DejaVuSans-38" d="M 2034 2216 
Q 1584 2216 1326 1975 
Q 1069 1734 1069 1313 
Q 1069 891 1326 650 
Q 1584 409 2034 409 
Q 2484 409 2743 651 
Q 3003 894 3003 1313 
Q 3003 1734 2745 1975 
Q 2488 2216 2034 2216 
z
M 1403 2484 
Q 997 2584 770 2862 
Q 544 3141 544 3541 
Q 544 4100 942 4425 
Q 1341 4750 2034 4750 
Q 2731 4750 3128 4425 
Q 3525 4100 3525 3541 
Q 3525 3141 3298 2862 
Q 3072 2584 2669 2484 
Q 3125 2378 3379 2068 
Q 3634 1759 3634 1313 
Q 3634 634 3220 271 
Q 2806 -91 2034 -91 
Q 1263 -91 848 271 
Q 434 634 434 1313 
Q 434 1759 690 2068 
Q 947 2378 1403 2484 
z
M 1172 3481 
Q 1172 3119 1398 2916 
Q 1625 2713 2034 2713 
Q 2441 2713 2670 2916 
Q 2900 3119 2900 3481 
Q 2900 3844 2670 4047 
Q 2441 4250 2034 4250 
Q 1625 4250 1398 4047 
Q 1172 3844 1172 3481 
z
" transform="scale(0.015625)"/>
       </defs>
       <use xlink:href="#DejaVuSans-36"/>
       <use xlink:href="#DejaVuSans-38" x="63.623047"/>
       <use xlink:href="#DejaVuSans-30" x="127.246094"/>
       <use xlink:href="#DejaVuSans-30" x="190.869141"/>
      </g>
     </g>
    </g>
   </g>
   <g id="line2d_14">
    <path d="M 184.581818 492.48 
L 193.910972 478.695385 
L 203.240125 460.775385 
L 212.569279 460.086154 
L 221.898433 453.193846 
L 240.55674 449.747692 
L 249.885893 446.990769 
L 259.215047 444.923077 
L 268.544201 442.166154 
L 277.873354 438.030769 
L 287.202508 427.003077 
L 296.531661 424.935385 
L 305.860815 422.867692 
L 315.189969 412.529231 
L 324.519122 410.461538 
L 333.848276 402.190769 
L 343.177429 398.744615 
L 352.506583 394.609231 
L 361.835737 392.541538 
L 371.16489 390.473846 
L 380.494044 387.027692 
L 389.823197 383.581538 
L 399.152351 380.824615 
L 408.481505 379.446154 
L 417.810658 374.621538 
L 427.139812 373.243077 
L 445.798119 366.350769 
L 455.127273 365.661538 
L 464.456426 361.526154 
L 473.78558 351.876923 
L 483.114734 341.538462 
L 492.443887 339.470769 
L 511.102194 336.713846 
L 520.431348 325.686154 
L 529.760502 324.996923 
L 539.089655 322.24 
L 548.418809 320.172308 
L 557.747962 318.104615 
L 567.077116 305.698462 
L 576.40627 303.630769 
L 585.735423 300.873846 
L 595.064577 298.806154 
L 604.39373 295.36 
L 613.722884 281.575385 
L 623.052038 278.129231 
L 632.381191 276.061538 
L 641.710345 269.169231 
L 651.039498 266.412308 
L 660.368652 265.723077 
L 669.697806 247.803077 
L 679.026959 244.356923 
L 688.356113 238.153846 
L 697.685266 236.775385 
L 707.01442 234.707692 
L 716.343574 226.436923 
L 725.672727 225.058462 
L 735.001881 222.990769 
L 744.331034 203.003077 
L 753.660188 201.624615 
L 762.989342 200.246154 
L 772.318495 193.353846 
L 781.647649 191.286154 
L 790.976803 175.433846 
L 800.305956 174.744615 
L 809.63511 173.366154 
L 818.964263 169.92 
L 828.293417 166.473846 
L 837.622571 158.892308 
L 846.951724 155.446154 
L 856.280878 152.689231 
L 865.610031 145.107692 
L 874.939185 134.08 
L 884.268339 129.255385 
L 893.597492 126.498462 
L 902.926646 125.12 
L 912.255799 118.916923 
L 921.584953 116.16 
L 930.914107 112.024615 
L 940.24326 110.646154 
L 949.572414 107.889231 
L 958.901567 104.443077 
L 968.230721 103.064615 
L 977.559875 96.861538 
L 986.889028 94.104615 
L 996.218182 89.28 
" clip-path="url(#pe0c8c858f2)" style="fill: none; stroke: #1f77b4; stroke-width: 1.5; stroke-linecap: square"/>
   </g>
   <g id="patch_3">
    <path d="M 144 512.64 
L 144 69.12 
" style="fill: none; stroke: #000000; stroke-width: 0.8; stroke-linejoin: miter; stroke-linecap: square"/>
   </g>
   <g id="patch_4">
    <path d="M 1036.8 512.64 
L 1036.8 69.12 
" style="fill: none; stroke: #000000; stroke-width: 0.8; stroke-linejoin: miter; stroke-linecap: square"/>
   </g>
   <g id="patch_5">
    <path d="M 144 512.64 
L 1036.8 512.64 
" style="fill: none; stroke: #000000; stroke-width: 0.8; stroke-linejoin: miter; stroke-linecap: square"/>
   </g>
   <g id="patch_6">
    <path d="M 144 69.12 
L 1036.8 69.12 
" style="fill: none; stroke: #000000; stroke-width: 0.8; stroke-linejoin: miter; stroke-linecap: square"/>
   </g>
   <g id="text_14">
    <!-- Number of AEDs in the OpenStreetMap database in Poland from 2024-01-01, day by day. As at: 2024-03-28 -->
    <g transform="translate(144 63.12) scale(0.14 -0.14)">
     <defs>
      <path id="DejaVuSans-4e" d="M 628 4666 
L 1478 4666 
L 3547 763 
L 3547 4666 
L 4159 4666 
L 4159 0 
L 3309 0 
L 1241 3903 
L 1241 0 
L 628 0 
L 628 4666 
z
" transform="scale(0.015625)"/>
      <path id="DejaVuSans-75" d="M 544 1381 
L 544 3500 
L 1119 3500 
L 1119 1403 
Q 1119 906 1312 657 
Q 1506 409 1894 409 
Q 2359 409 2629 706 
Q 2900 1003 2900 1516 
L 2900 3500 
L 3475 3500 
L 3475 0 
L 2900 0 
L 2900 538 
Q 2691 219 2414 64 
Q 2138 -91 1772 -91 
Q 1169 -91 856 284 
Q 544 659 544 1381 
z
M 1991 3584 
L 1991 3584 
z
" transform="scale(0.015625)"/>
      <path id="DejaVuSans-6d" d="M 3328 2828 
Q 3544 3216 3844 3400 
Q 4144 3584 4550 3584 
Q 5097 3584 5394 3201 
Q 5691 2819 5691 2113 
L 5691 0 
L 5113 0 
L 5113 2094 
Q 5113 2597 4934 2840 
Q 4756 3084 4391 3084 
Q 3944 3084 3684 2787 
Q 3425 2491 3425 1978 
L 3425 0 
L 2847 0 
L 2847 2094 
Q 2847 2600 2669 2842 
Q 2491 3084 2119 3084 
Q 1678 3084 1418 2786 
Q 1159 2488 1159 1978 
L 1159 0 
L 581 0 
L 581 3500 
L 1159 3500 
L 1159 2956 
Q 1356 3278 1631 3431 
Q 1906 3584 2284 3584 
Q 2666 3584 2933 3390 
Q 3200 3197 3328 2828 
z
" transform="scale(0.015625)"/>
      <path id="DejaVuSans-62" d="M 3116 1747 
Q 3116 2381 2855 2742 
Q 2594 3103 2138 3103 
Q 1681 3103 1420 2742 
Q 1159 2381 1159 1747 
Q 1159 1113 1420 752 
Q 1681 391 2138 391 
Q 2594 391 2855 752 
Q 3116 1113 3116 1747 
z
M 1159 2969 
Q 1341 3281 1617 3432 
Q 1894 3584 2278 3584 
Q 2916 3584 3314 3078 
Q 3713 2572 3713 1747 
Q 3713 922 3314 415 
Q 2916 -91 2278 -91 
Q 1894 -91 1617 61 
Q 1341 213 1159 525 
L 1159 0 
L 581 0 
L 581 4863 
L 1159 4863 
L 1159 2969 
z
" transform="scale(0.015625)"/>
      <path id="DejaVuSans-65" d="M 3597 1894 
L 3597 1613 
L 953 1613 
Q 991 1019 1311 708 
Q 1631 397 2203 397 
Q 2534 397 2845 478 
Q 3156 559 3463 722 
L 3463 178 
Q 3153 47 2828 -22 
Q 2503 -91 2169 -91 
Q 1331 -91 842 396 
Q 353 884 353 1716 
Q 353 2575 817 3079 
Q 1281 3584 2069 3584 
Q 2775 3584 3186 3129 
Q 3597 2675 3597 1894 
z
M 3022 2063 
Q 3016 2534 2758 2815 
Q 2500 3097 2075 3097 
Q 1594 3097 1305 2825 
Q 1016 2553 972 2059 
L 3022 2063 
z
" transform="scale(0.015625)"/>
      <path id="DejaVuSans-72" d="M 2631 2963 
Q 2534 3019 2420 3045 
Q 2306 3072 2169 3072 
Q 1681 3072 1420 2755 
Q 1159 2438 1159 1844 
L 1159 0 
L 581 0 
L 581 3500 
L 1159 3500 
L 1159 2956 
Q 1341 3275 1631 3429 
Q 1922 3584 2338 3584 
Q 2397 3584 2469 3576 
Q 2541 3569 2628 3553 
L 2631 2963 
z
" transform="scale(0.015625)"/>
      <path id="DejaVuSans-20" transform="scale(0.015625)"/>
      <path id="DejaVuSans-6f" d="M 1959 3097 
Q 1497 3097 1228 2736 
Q 959 2375 959 1747 
Q 959 1119 1226 758 
Q 1494 397 1959 397 
Q 2419 397 2687 759 
Q 2956 1122 2956 1747 
Q 2956 2369 2687 2733 
Q 2419 3097 1959 3097 
z
M 1959 3584 
Q 2709 3584 3137 3096 
Q 3566 2609 3566 1747 
Q 3566 888 3137 398 
Q 2709 -91 1959 -91 
Q 1206 -91 779 398 
Q 353 888 353 1747 
Q 353 2609 779 3096 
Q 1206 3584 1959 3584 
z
" transform="scale(0.015625)"/>
      <path id="DejaVuSans-66" d="M 2375 4863 
L 2375 4384 
L 1825 4384 
Q 1516 4384 1395 4259 
Q 1275 4134 1275 3809 
L 1275 3500 
L 2222 3500 
L 2222 3053 
L 1275 3053 
L 1275 0 
L 697 0 
L 697 3053 
L 147 3053 
L 147 3500 
L 697 3500 
L 697 3744 
Q 697 4328 969 4595 
Q 1241 4863 1831 4863 
L 2375 4863 
z
" transform="scale(0.015625)"/>
      <path id="DejaVuSans-41" d="M 2188 4044 
L 1331 1722 
L 3047 1722 
L 2188 4044 
z
M 1831 4666 
L 2547 4666 
L 4325 0 
L 3669 0 
L 3244 1197 
L 1141 1197 
L 716 0 
L 50 0 
L 1831 4666 
z
" transform="scale(0.015625)"/>
      <path id="DejaVuSans-45" d="M 628 4666 
L 3578 4666 
L 3578 4134 
L 1259 4134 
L 1259 2753 
L 3481 2753 
L 3481 2222 
L 1259 2222 
L 1259 531 
L 3634 531 
L 3634 0 
L 628 0 
L 628 4666 
z
" transform="scale(0.015625)"/>
      <path id="DejaVuSans-44" d="M 1259 4147 
L 1259 519 
L 2022 519 
Q 2988 519 3436 956 
Q 3884 1394 3884 2338 
Q 3884 3275 3436 3711 
Q 2988 4147 2022 4147 
L 1259 4147 
z
M 628 4666 
L 1925 4666 
Q 3281 4666 3915 4102 
Q 4550 3538 4550 2338 
Q 4550 1131 3912 565 
Q 3275 0 1925 0 
L 628 0 
L 628 4666 
z
" transform="scale(0.015625)"/>
      <path id="DejaVuSans-73" d="M 2834 3397 
L 2834 2853 
Q 2591 2978 2328 3040 
Q 2066 3103 1784 3103 
Q 1356 3103 1142 2972 
Q 928 2841 928 2578 
Q 928 2378 1081 2264 
Q 1234 2150 1697 2047 
L 1894 2003 
Q 2506 1872 2764 1633 
Q 3022 1394 3022 966 
Q 3022 478 2636 193 
Q 2250 -91 1575 -91 
Q 1294 -91 989 -36 
Q 684 19 347 128 
L 347 722 
Q 666 556 975 473 
Q 1284 391 1588 391 
Q 1994 391 2212 530 
Q 2431 669 2431 922 
Q 2431 1156 2273 1281 
Q 2116 1406 1581 1522 
L 1381 1569 
Q 847 1681 609 1914 
Q 372 2147 372 2553 
Q 372 3047 722 3315 
Q 1072 3584 1716 3584 
Q 2034 3584 2315 3537 
Q 2597 3491 2834 3397 
z
" transform="scale(0.015625)"/>
      <path id="DejaVuSans-69" d="M 603 3500 
L 1178 3500 
L 1178 0 
L 603 0 
L 603 3500 
z
M 603 4863 
L 1178 4863 
L 1178 4134 
L 603 4134 
L 603 4863 
z
" transform="scale(0.015625)"/>
      <path id="DejaVuSans-6e" d="M 3513 2113 
L 3513 0 
L 2938 0 
L 2938 2094 
Q 2938 2591 2744 2837 
Q 2550 3084 2163 3084 
Q 1697 3084 1428 2787 
Q 1159 2491 1159 1978 
L 1159 0 
L 581 0 
L 581 3500 
L 1159 3500 
L 1159 2956 
Q 1366 3272 1645 3428 
Q 1925 3584 2291 3584 
Q 2894 3584 3203 3211 
Q 3513 2838 3513 2113 
z
" transform="scale(0.015625)"/>
      <path id="DejaVuSans-74" d="M 1172 4494 
L 1172 3500 
L 2356 3500 
L 2356 3053 
L 1172 3053 
L 1172 1153 
Q 1172 725 1289 603 
Q 1406 481 1766 481 
L 2356 481 
L 2356 0 
L 1766 0 
Q 1100 0 847 248 
Q 594 497 594 1153 
L 594 3053 
L 172 3053 
L 172 3500 
L 594 3500 
L 594 4494 
L 1172 4494 
z
" transform="scale(0.015625)"/>
      <path id="DejaVuSans-68" d="M 3513 2113 
L 3513 0 
L 2938 0 
L 2938 2094 
Q 2938 2591 2744 2837 
Q 2550 3084 2163 3084 
Q 1697 3084 1428 2787 
Q 1159 2491 1159 1978 
L 1159 0 
L 581 0 
L 581 4863 
L 1159 4863 
L 1159 2956 
Q 1366 3272 1645 3428 
Q 1925 3584 2291 3584 
Q 2894 3584 3203 3211 
Q 3513 2838 3513 2113 
z
" transform="scale(0.015625)"/>
      <path id="DejaVuSans-4f" d="M 2522 4238 
Q 1834 4238 1429 3725 
Q 1025 3213 1025 2328 
Q 1025 1447 1429 934 
Q 1834 422 2522 422 
Q 3209 422 3611 934 
Q 4013 1447 4013 2328 
Q 4013 3213 3611 3725 
Q 3209 4238 2522 4238 
z
M 2522 4750 
Q 3503 4750 4090 4092 
Q 4678 3434 4678 2328 
Q 4678 1225 4090 567 
Q 3503 -91 2522 -91 
Q 1538 -91 948 565 
Q 359 1222 359 2328 
Q 359 3434 948 4092 
Q 1538 4750 2522 4750 
z
" transform="scale(0.015625)"/>
      <path id="DejaVuSans-70" d="M 1159 525 
L 1159 -1331 
L 581 -1331 
L 581 3500 
L 1159 3500 
L 1159 2969 
Q 1341 3281 1617 3432 
Q 1894 3584 2278 3584 
Q 2916 3584 3314 3078 
Q 3713 2572 3713 1747 
Q 3713 922 3314 415 
Q 2916 -91 2278 -91 
Q 1894 -91 1617 61 
Q 1341 213 1159 525 
z
M 3116 1747 
Q 3116 2381 2855 2742 
Q 2594 3103 2138 3103 
Q 1681 3103 1420 2742 
Q 1159 2381 1159 1747 
Q 1159 1113 1420 752 
Q 1681 391 2138 391 
Q 2594 391 2855 752 
Q 3116 1113 3116 1747 
z
" transform="scale(0.015625)"/>
      <path id="DejaVuSans-53" d="M 3425 4513 
L 3425 3897 
Q 3066 4069 2747 4153 
Q 2428 4238 2131 4238 
Q 1616 4238 1336 4038 
Q 1056 3838 1056 3469 
Q 1056 3159 1242 3001 
Q 1428 2844 1947 2747 
L 2328 2669 
Q 3034 2534 3370 2195 
Q 3706 1856 3706 1288 
Q 3706 609 3251 259 
Q 2797 -91 1919 -91 
Q 1588 -91 1214 -16 
Q 841 59 441 206 
L 441 856 
Q 825 641 1194 531 
Q 1563 422 1919 422 
Q 2459 422 2753 634 
Q 3047 847 3047 1241 
Q 3047 1584 2836 1778 
Q 2625 1972 2144 2069 
L 1759 2144 
Q 1053 2284 737 2584 
Q 422 2884 422 3419 
Q 422 4038 858 4394 
Q 1294 4750 2059 4750 
Q 2388 4750 2728 4690 
Q 3069 4631 3425 4513 
z
" transform="scale(0.015625)"/>
      <path id="DejaVuSans-4d" d="M 628 4666 
L 1569 4666 
L 2759 1491 
L 3956 4666 
L 4897 4666 
L 4897 0 
L 4281 0 
L 4281 4097 
L 3078 897 
L 2444 897 
L 1241 4097 
L 1241 0 
L 628 0 
L 628 4666 
z
" transform="scale(0.015625)"/>
      <path id="DejaVuSans-61" d="M 2194 1759 
Q 1497 1759 1228 1600 
Q 959 1441 959 1056 
Q 959 750 1161 570 
Q 1363 391 1709 391 
Q 2188 391 2477 730 
Q 2766 1069 2766 1631 
L 2766 1759 
L 2194 1759 
z
M 3341 1997 
L 3341 0 
L 2766 0 
L 2766 531 
Q 2569 213 2275 61 
Q 1981 -91 1556 -91 
Q 1019 -91 701 211 
Q 384 513 384 1019 
Q 384 1609 779 1909 
Q 1175 2209 1959 2209 
L 2766 2209 
L 2766 2266 
Q 2766 2663 2505 2880 
Q 2244 3097 1772 3097 
Q 1472 3097 1187 3025 
Q 903 2953 641 2809 
L 641 3341 
Q 956 3463 1253 3523 
Q 1550 3584 1831 3584 
Q 2591 3584 2966 3190 
Q 3341 2797 3341 1997 
z
" transform="scale(0.015625)"/>
      <path id="DejaVuSans-64" d="M 2906 2969 
L 2906 4863 
L 3481 4863 
L 3481 0 
L 2906 0 
L 2906 525 
Q 2725 213 2448 61 
Q 2172 -91 1784 -91 
Q 1150 -91 751 415 
Q 353 922 353 1747 
Q 353 2572 751 3078 
Q 1150 3584 1784 3584 
Q 2172 3584 2448 3432 
Q 2725 3281 2906 2969 
z
M 947 1747 
Q 947 1113 1208 752 
Q 1469 391 1925 391 
Q 2381 391 2643 752 
Q 2906 1113 2906 1747 
Q 2906 2381 2643 2742 
Q 2381 3103 1925 3103 
Q 1469 3103 1208 2742 
Q 947 2381 947 1747 
z
" transform="scale(0.015625)"/>
      <path id="DejaVuSans-50" d="M 1259 4147 
L 1259 2394 
L 2053 2394 
Q 2494 2394 2734 2622 
Q 2975 2850 2975 3272 
Q 2975 3691 2734 3919 
Q 2494 4147 2053 4147 
L 1259 4147 
z
M 628 4666 
L 2053 4666 
Q 2838 4666 3239 4311 
Q 3641 3956 3641 3272 
Q 3641 2581 3239 2228 
Q 2838 1875 2053 1875 
L 1259 1875 
L 1259 0 
L 628 0 
L 628 4666 
z
" transform="scale(0.015625)"/>
      <path id="DejaVuSans-6c" d="M 603 4863 
L 1178 4863 
L 1178 0 
L 603 0 
L 603 4863 
z
" transform="scale(0.015625)"/>
      <path id="DejaVuSans-2c" d="M 750 794 
L 1409 794 
L 1409 256 
L 897 -744 
L 494 -744 
L 750 256 
L 750 794 
z
" transform="scale(0.015625)"/>
      <path id="DejaVuSans-79" d="M 2059 -325 
Q 1816 -950 1584 -1140 
Q 1353 -1331 966 -1331 
L 506 -1331 
L 506 -850 
L 844 -850 
Q 1081 -850 1212 -737 
Q 1344 -625 1503 -206 
L 1606 56 
L 191 3500 
L 800 3500 
L 1894 763 
L 2988 3500 
L 3597 3500 
L 2059 -325 
z
" transform="scale(0.015625)"/>
      <path id="DejaVuSans-2e" d="M 684 794 
L 1344 794 
L 1344 0 
L 684 0 
L 684 794 
z
" transform="scale(0.015625)"/>
      <path id="DejaVuSans-3a" d="M 750 794 
L 1409 794 
L 1409 0 
L 750 0 
L 750 794 
z
M 750 3309 
L 1409 3309 
L 1409 2516 
L 750 2516 
L 750 3309 
z
" transform="scale(0.015625)"/>
     </defs>
     <use xlink:href="#DejaVuSans-4e"/>
     <use xlink:href="#DejaVuSans-75" x="74.804688"/>
     <use xlink:href="#DejaVuSans-6d" x="138.183594"/>
     <use xlink:href="#DejaVuSans-62" x="235.595703"/>
     <use xlink:href="#DejaVuSans-65" x="299.072266"/>
     <use xlink:href="#DejaVuSans-72" x="360.595703"/>
     <use xlink:href="#DejaVuSans-20" x="401.708984"/>
     <use xlink:href="#DejaVuSans-6f" x="433.496094"/>
     <use xlink:href="#DejaVuSans-66" x="494.677734"/>
     <use xlink:href="#DejaVuSans-20" x="529.882812"/>
     <use xlink:href="#DejaVuSans-41" x="561.669922"/>
     <use xlink:href="#DejaVuSans-45" x="630.078125"/>
     <use xlink:href="#DejaVuSans-44" x="693.261719"/>
     <use xlink:href="#DejaVuSans-73" x="770.263672"/>
     <use xlink:href="#DejaVuSans-20" x="822.363281"/>
     <use xlink:href="#DejaVuSans-69" x="854.150391"/>
     <use xlink:href="#DejaVuSans-6e" x="881.933594"/>
     <use xlink:href="#DejaVuSans-20" x="945.3125"/>
     <use xlink:href="#DejaVuSans-74" x="977.099609"/>
     <use xlink:href="#DejaVuSans-68" x="1016.308594"/>
     <use xlink:href="#DejaVuSans-65" x="1079.6875"/>
     <use xlink:href="#DejaVuSans-20" x="1141.210938"/>
     <use xlink:href="#DejaVuSans-4f" x="1172.998047"/>
     <use xlink:href="#DejaVuSans-70" x="1251.708984"/>
     <use xlink:href="#DejaVuSans-65" x="1315.185547"/>
     <use xlink:href="#DejaVuSans-6e" x="1376.708984"/>
     <use xlink:href="#DejaVuSans-53" x="1440.087891"/>
     <use xlink:href="#DejaVuSans-74" x="1503.564453"/>
     <use xlink:href="#DejaVuSans-72" x="1542.773438"/>
     <use xlink:href="#DejaVuSans-65" x="1581.636719"/>
     <use xlink:href="#DejaVuSans-65" x="1643.160156"/>
     <use xlink:href="#DejaVuSans-74" x="1704.683594"/>
     <use xlink:href="#DejaVuSans-4d" x="1743.892578"/>
     <use xlink:href="#DejaVuSans-61" x="1830.171875"/>
     <use xlink:href="#DejaVuSans-70" x="1891.451172"/>
     <use xlink:href="#DejaVuSans-20" x="1954.927734"/>
     <use xlink:href="#DejaVuSans-64" x="1986.714844"/>
     <use xlink:href="#DejaVuSans-61" x="2050.191406"/>
     <use xlink:href="#DejaVuSans-74" x="2111.470703"/>
     <use xlink:href="#DejaVuSans-61" x="2150.679688"/>
     <use xlink:href="#DejaVuSans-62" x="2211.958984"/>
     <use xlink:href="#DejaVuSans-61" x="2275.435547"/>
     <use xlink:href="#DejaVuSans-73" x="2336.714844"/>
     <use xlink:href="#DejaVuSans-65" x="2388.814453"/>
     <use xlink:href="#DejaVuSans-20" x="2450.337891"/>
     <use xlink:href="#DejaVuSans-69" x="2482.125"/>
     <use xlink:href="#DejaVuSans-6e" x="2509.908203"/>
     <use xlink:href="#DejaVuSans-20" x="2573.287109"/>
     <use xlink:href="#DejaVuSans-50" x="2605.074219"/>
     <use xlink:href="#DejaVuSans-6f" x="2661.751953"/>
     <use xlink:href="#DejaVuSans-6c" x="2722.933594"/>
     <use xlink:href="#DejaVuSans-61" x="2750.716797"/>
     <use xlink:href="#DejaVuSans-6e" x="2811.996094"/>
     <use xlink:href="#DejaVuSans-64" x="2875.375"/>
     <use xlink:href="#DejaVuSans-20" x="2938.851562"/>
     <use xlink:href="#DejaVuSans-66" x="2970.638672"/>
     <use xlink:href="#DejaVuSans-72" x="3005.84375"/>
     <use xlink:href="#DejaVuSans-6f" x="3044.707031"/>
     <use xlink:href="#DejaVuSans-6d" x="3105.888672"/>
     <use xlink:href="#DejaVuSans-20" x="3203.300781"/>
     <use xlink:href="#DejaVuSans-32" x="3235.087891"/>
     <use xlink:href="#DejaVuSans-30" x="3298.710938"/>
     <use xlink:href="#DejaVuSans-32" x="3362.333984"/>
     <use xlink:href="#DejaVuSans-34" x="3425.957031"/>
     <use xlink:href="#DejaVuSans-2d" x="3489.580078"/>
     <use xlink:href="#DejaVuSans-30" x="3525.664062"/>
     <use xlink:href="#DejaVuSans-31" x="3589.287109"/>
     <use xlink:href="#DejaVuSans-2d" x="3652.910156"/>
     <use xlink:href="#DejaVuSans-30" x="3688.994141"/>
     <use xlink:href="#DejaVuSans-31" x="3752.617188"/>
     <use xlink:href="#DejaVuSans-2c" x="3816.240234"/>
     <use xlink:href="#DejaVuSans-20" x="3848.027344"/>
     <use xlink:href="#DejaVuSans-64" x="3879.814453"/>
     <use xlink:href="#DejaVuSans-61" x="3943.291016"/>
     <use xlink:href="#DejaVuSans-79" x="4004.570312"/>
     <use xlink:href="#DejaVuSans-20" x="4063.75"/>
     <use xlink:href="#DejaVuSans-62" x="4095.537109"/>
     <use xlink:href="#DejaVuSans-79" x="4159.013672"/>
     <use xlink:href="#DejaVuSans-20" x="4218.193359"/>
     <use xlink:href="#DejaVuSans-64" x="4249.980469"/>
     <use xlink:href="#DejaVuSans-61" x="4313.457031"/>
     <use xlink:href="#DejaVuSans-79" x="4374.736328"/>
     <use xlink:href="#DejaVuSans-2e" x="4419.666016"/>
     <use xlink:href="#DejaVuSans-20" x="4451.453125"/>
     <use xlink:href="#DejaVuSans-41" x="4483.240234"/>
     <use xlink:href="#DejaVuSans-73" x="4551.648438"/>
     <use xlink:href="#DejaVuSans-20" x="4603.748047"/>
     <use xlink:href="#DejaVuSans-61" x="4635.535156"/>
     <use xlink:href="#DejaVuSans-74" x="4696.814453"/>
     <use xlink:href="#DejaVuSans-3a" x="4736.023438"/>
     <use xlink:href="#DejaVuSans-20" x="4769.714844"/>
     <use xlink:href="#DejaVuSans-32" x="4801.501953"/>
     <use xlink:href="#DejaVuSans-30" x="4865.125"/>
     <use xlink:href="#DejaVuSans-32" x="4928.748047"/>
     <use xlink:href="#DejaVuSans-34" x="4992.371094"/>
     <use xlink:href="#DejaVuSans-2d" x="5055.994141"/>
     <use xlink:href="#DejaVuSans-30" x="5092.078125"/>
     <use xlink:href="#DejaVuSans-33" x="5155.701172"/>
     <use xlink:href="#DejaVuSans-2d" x="5219.324219"/>
     <use xlink:href="#DejaVuSans-32" x="5255.408203"/>
     <use xlink:href="#DejaVuSans-38" x="5319.03125"/>
    </g>
   </g>
  </g>
 </g>
 <defs>
  <clipPath id="pe0c8c858f2">
   <rect x="144" y="69.12" width="892.8" height="443.52"/>
  </clipPath>
 </defs>
</svg>
