<?xml version="1.0" encoding="utf-8" standalone="no"?>
<!DOCTYPE svg PUBLIC "-//W3C//DTD SVG 1.1//EN"
  "http://www.w3.org/Graphics/SVG/1.1/DTD/svg11.dtd">
<svg xmlns:xlink="http://www.w3.org/1999/xlink" width="1152pt" height="576pt" viewBox="0 0 1152 576" xmlns="http://www.w3.org/2000/svg" version="1.1">
 <metadata>
  <rdf:RDF xmlns:dc="http://purl.org/dc/elements/1.1/" xmlns:cc="http://creativecommons.org/ns#" xmlns:rdf="http://www.w3.org/1999/02/22-rdf-syntax-ns#">
   <cc:Work>
    <dc:type rdf:resource="http://purl.org/dc/dcmitype/StillImage"/>
    <dc:date>1980-01-01T00:00:00+00:00</dc:date>
    <dc:format>image/svg+xml</dc:format>
    <dc:creator>
     <cc:Agent>
      <dc:title>Matplotlib v3.9.1, https://matplotlib.org/</dc:title>
     </cc:Agent>
    </dc:creator>
   </cc:Work>
  </rdf:RDF>
 </metadata>
 <defs>
  <style type="text/css">*{stroke-linejoin: round; stroke-linecap: butt}</style>
 </defs>
 <g id="figure_1">
  <g id="patch_1">
   <path d="M 0 576 
L 1152 576 
L 1152 0 
L 0 0 
z
" style="fill: #ffffff"/>
  </g>
  <g id="axes_1">
   <g id="patch_2">
    <path d="M 144 512.64 
L 1036.8 512.64 
L 1036.8 69.12 
L 144 69.12 
z
" style="fill: #ffffff"/>
   </g>
   <g id="PathCollection_1">
    <path d="M 184.581818 494.716068 
C 185.17483 494.716068 185.743634 494.480462 186.162957 494.061139 
C 186.58228 493.641816 186.817886 493.073012 186.817886 492.48 
C 186.817886 491.886988 186.58228 491.318184 186.162957 490.898861 
C 185.743634 490.479538 185.17483 490.243932 184.581818 490.243932 
C 183.988806 490.243932 183.420002 490.479538 183.000679 490.898861 
C 182.581356 491.318184 182.34575 491.886988 182.34575 492.48 
C 182.34575 493.073012 182.581356 493.641816 183.000679 494.061139 
C 183.420002 494.480462 183.988806 494.716068 184.581818 494.716068 
z
" clip-path="url(#p9284289efb)" style="fill: #1f77b4; fill-opacity: 0.3; stroke: #1f77b4; stroke-opacity: 0.3"/>
    <path d="M 199.612121 494.767237 
C 200.549756 494.767237 201.449113 494.394711 202.112121 493.731703 
C 202.775129 493.068695 203.147655 492.169337 203.147655 491.231703 
C 203.147655 490.294068 202.775129 489.394711 202.112121 488.731703 
C 201.449113 488.068695 200.549756 487.696169 199.612121 487.696169 
C 198.674487 487.696169 197.775129 488.068695 197.112121 488.731703 
C 196.449113 489.394711 196.076587 490.294068 196.076587 491.231703 
C 196.076587 492.169337 196.449113 493.068695 197.112121 493.731703 
C 197.775129 494.394711 198.674487 494.767237 199.612121 494.767237 
z
" clip-path="url(#p9284289efb)" style="fill: #1f77b4; fill-opacity: 0.3; stroke: #1f77b4; stroke-opacity: 0.3"/>
    <path d="M 214.642424 493.610536 
C 216.266455 493.610536 217.824188 492.965301 218.972551 491.816938 
C 220.120914 490.668575 220.766149 489.110842 220.766149 487.486811 
C 220.766149 485.86278 220.120914 484.305047 218.972551 483.156684 
C 217.824188 482.008321 216.266455 481.363087 214.642424 481.363087 
C 213.018394 481.363087 211.46066 482.008321 210.312297 483.156684 
C 209.163934 484.305047 208.5187 485.86278 208.5187 487.486811 
C 208.5187 489.110842 209.163934 490.668575 210.312297 491.816938 
C 211.46066 492.965301 213.018394 493.610536 214.642424 493.610536 
z
" clip-path="url(#p9284289efb)" style="fill: #1f77b4; fill-opacity: 0.3; stroke: #1f77b4; stroke-opacity: 0.3"/>
    <path d="M 229.672727 489.476446 
C 230.399016 489.476446 231.095655 489.187888 231.609219 488.674324 
C 232.122783 488.160761 232.41134 487.464121 232.41134 486.737833 
C 232.41134 486.011544 232.122783 485.314905 231.609219 484.801341 
C 231.095655 484.287778 230.399016 483.99922 229.672727 483.99922 
C 228.946439 483.99922 228.249799 484.287778 227.736236 484.801341 
C 227.222672 485.314905 226.934114 486.011544 226.934114 486.737833 
C 226.934114 487.464121 227.222672 488.160761 227.736236 488.674324 
C 228.249799 489.187888 228.946439 489.476446 229.672727 489.476446 
z
" clip-path="url(#p9284289efb)" style="fill: #1f77b4; fill-opacity: 0.3; stroke: #1f77b4; stroke-opacity: 0.3"/>
    <path d="M 244.70303 489.212693 
C 245.889055 489.212693 247.026662 488.741481 247.865308 487.902835 
C 248.703954 487.064189 249.175166 485.926582 249.175166 484.740557 
C 249.175166 483.554533 248.703954 482.416925 247.865308 481.57828 
C 247.026662 480.739634 245.889055 480.268421 244.70303 480.268421 
C 243.517006 480.268421 242.379398 480.739634 241.540753 481.57828 
C 240.702107 482.416925 240.230894 483.554533 240.230894 484.740557 
C 240.230894 485.926582 240.702107 487.064189 241.540753 487.902835 
C 242.379398 488.741481 243.517006 489.212693 244.70303 489.212693 
z
" clip-path="url(#p9284289efb)" style="fill: #1f77b4; fill-opacity: 0.3; stroke: #1f77b4; stroke-opacity: 0.3"/>
    <path d="M 259.733333 487.243963 
C 261.059349 487.243963 262.331233 486.717131 263.268867 485.779497 
C 264.206502 484.841862 264.733333 483.569978 264.733333 482.243963 
C 264.733333 480.917947 264.206502 479.646063 263.268867 478.708429 
C 262.331233 477.770794 261.059349 477.243963 259.733333 477.243963 
C 258.407318 477.243963 257.135434 477.770794 256.197799 478.708429 
C 255.260165 479.646063 254.733333 480.917947 254.733333 482.243963 
C 254.733333 483.569978 255.260165 484.841862 256.197799 485.779497 
C 257.135434 486.717131 258.407318 487.243963 259.733333 487.243963 
z
" clip-path="url(#p9284289efb)" style="fill: #1f77b4; fill-opacity: 0.3; stroke: #1f77b4; stroke-opacity: 0.3"/>
    <path d="M 274.763636 483.980712 
C 275.356649 483.980712 275.925452 483.745106 276.344775 483.325783 
C 276.764098 482.90646 276.999704 482.337656 276.999704 481.744644 
C 276.999704 481.151632 276.764098 480.582828 276.344775 480.163505 
C 275.925452 479.744182 275.356649 479.508576 274.763636 479.508576 
C 274.170624 479.508576 273.60182 479.744182 273.182498 480.163505 
C 272.763175 480.582828 272.527568 481.151632 272.527568 481.744644 
C 272.527568 482.337656 272.763175 482.90646 273.182498 483.325783 
C 273.60182 483.745106 274.170624 483.980712 274.763636 483.980712 
z
" clip-path="url(#p9284289efb)" style="fill: #1f77b4; fill-opacity: 0.3; stroke: #1f77b4; stroke-opacity: 0.3"/>
    <path d="M 289.793939 484.219504 
C 290.979964 484.219504 292.117571 483.748292 292.956217 482.909646 
C 293.794863 482.071 294.266075 480.933393 294.266075 479.747368 
C 294.266075 478.561344 293.794863 477.423737 292.956217 476.585091 
C 292.117571 475.746445 290.979964 475.275232 289.793939 475.275232 
C 288.607915 475.275232 287.470308 475.746445 286.631662 476.585091 
C 285.793016 477.423737 285.321803 478.561344 285.321803 479.747368 
C 285.321803 480.933393 285.793016 482.071 286.631662 482.909646 
C 287.470308 483.748292 288.607915 484.219504 289.793939 484.219504 
z
" clip-path="url(#p9284289efb)" style="fill: #1f77b4; fill-opacity: 0.3; stroke: #1f77b4; stroke-opacity: 0.3"/>
    <path d="M 304.824242 481.737003 
C 305.550531 481.737003 306.247171 481.448445 306.760734 480.934882 
C 307.274298 480.421318 307.562855 479.724679 307.562855 478.99839 
C 307.562855 478.272101 307.274298 477.575462 306.760734 477.061898 
C 306.247171 476.548335 305.550531 476.259777 304.824242 476.259777 
C 304.097954 476.259777 303.401314 476.548335 302.887751 477.061898 
C 302.374187 477.575462 302.08563 478.272101 302.08563 478.99839 
C 302.08563 479.724679 302.374187 480.421318 302.887751 480.934882 
C 303.401314 481.448445 304.097954 481.737003 304.824242 481.737003 
z
" clip-path="url(#p9284289efb)" style="fill: #1f77b4; fill-opacity: 0.3; stroke: #1f77b4; stroke-opacity: 0.3"/>
    <path d="M 319.854545 481.16203 
C 320.693191 481.16203 321.497601 480.828832 322.090613 480.23582 
C 322.683626 479.642808 323.016823 478.838398 323.016823 477.999752 
C 323.016823 477.161106 322.683626 476.356697 322.090613 475.763684 
C 321.497601 475.170672 320.693191 474.837475 319.854545 474.837475 
C 319.0159 474.837475 318.21149 475.170672 317.618477 475.763684 
C 317.025465 476.356697 316.692268 477.161106 316.692268 477.999752 
C 316.692268 478.838398 317.025465 479.642808 317.618477 480.23582 
C 318.21149 480.828832 319.0159 481.16203 319.854545 481.16203 
z
" clip-path="url(#p9284289efb)" style="fill: #1f77b4; fill-opacity: 0.3; stroke: #1f77b4; stroke-opacity: 0.3"/>
    <path d="M 334.884848 479.736501 
C 335.477861 479.736501 336.046664 479.500895 336.465987 479.081572 
C 336.88531 478.662249 337.120916 478.093446 337.120916 477.500433 
C 337.120916 476.907421 336.88531 476.338618 336.465987 475.919295 
C 336.046664 475.499972 335.477861 475.264365 334.884848 475.264365 
C 334.291836 475.264365 333.723033 475.499972 333.30371 475.919295 
C 332.884387 476.338618 332.648781 476.907421 332.648781 477.500433 
C 332.648781 478.093446 332.884387 478.662249 333.30371 479.081572 
C 333.723033 479.500895 334.291836 479.736501 334.884848 479.736501 
z
" clip-path="url(#p9284289efb)" style="fill: #1f77b4; fill-opacity: 0.3; stroke: #1f77b4; stroke-opacity: 0.3"/>
    <path d="M 349.915152 479.78767 
C 350.852786 479.78767 351.752144 479.415144 352.415152 478.752136 
C 353.078159 478.089128 353.450685 477.189771 353.450685 476.252136 
C 353.450685 475.314502 353.078159 474.415144 352.415152 473.752136 
C 351.752144 473.089128 350.852786 472.716602 349.915152 472.716602 
C 348.977517 472.716602 348.078159 473.089128 347.415152 473.752136 
C 346.752144 474.415144 346.379618 475.314502 346.379618 476.252136 
C 346.379618 477.189771 346.752144 478.089128 347.415152 478.752136 
C 348.078159 479.415144 348.977517 479.78767 349.915152 479.78767 
z
" clip-path="url(#p9284289efb)" style="fill: #1f77b4; fill-opacity: 0.3; stroke: #1f77b4; stroke-opacity: 0.3"/>
    <path d="M 364.945455 478.415776 
C 365.7841 478.415776 366.58851 478.082579 367.181523 477.489566 
C 367.774535 476.896554 368.107732 476.092144 368.107732 475.253498 
C 368.107732 474.414853 367.774535 473.610443 367.181523 473.01743 
C 366.58851 472.424418 365.7841 472.091221 364.945455 472.091221 
C 364.106809 472.091221 363.302399 472.424418 362.709387 473.01743 
C 362.116374 473.610443 361.783177 474.414853 361.783177 475.253498 
C 361.783177 476.092144 362.116374 476.896554 362.709387 477.489566 
C 363.302399 478.082579 364.106809 478.415776 364.945455 478.415776 
z
" clip-path="url(#p9284289efb)" style="fill: #1f77b4; fill-opacity: 0.3; stroke: #1f77b4; stroke-opacity: 0.3"/>
    <path d="M 379.975758 477.540735 
C 380.913392 477.540735 381.81275 477.168209 382.475758 476.505201 
C 383.138765 475.842193 383.511291 474.942836 383.511291 474.005201 
C 383.511291 473.067567 383.138765 472.168209 382.475758 471.505201 
C 381.81275 470.842193 380.913392 470.469667 379.975758 470.469667 
C 379.038123 470.469667 378.138765 470.842193 377.475758 471.505201 
C 376.81275 472.168209 376.440224 473.067567 376.440224 474.005201 
C 376.440224 474.942836 376.81275 475.842193 377.475758 476.505201 
C 378.138765 477.168209 379.038123 477.540735 379.975758 477.540735 
z
" clip-path="url(#p9284289efb)" style="fill: #1f77b4; fill-opacity: 0.3; stroke: #1f77b4; stroke-opacity: 0.3"/>
    <path d="M 395.006061 476.292438 
C 395.943695 476.292438 396.843053 475.919912 397.506061 475.256904 
C 398.169068 474.593896 398.541595 473.694539 398.541595 472.756904 
C 398.541595 471.819269 398.169068 470.919912 397.506061 470.256904 
C 396.843053 469.593896 395.943695 469.22137 395.006061 469.22137 
C 394.068426 469.22137 393.169068 469.593896 392.506061 470.256904 
C 391.843053 470.919912 391.470527 471.819269 391.470527 472.756904 
C 391.470527 473.694539 391.843053 474.593896 392.506061 475.256904 
C 393.169068 475.919912 394.068426 476.292438 395.006061 476.292438 
z
" clip-path="url(#p9284289efb)" style="fill: #1f77b4; fill-opacity: 0.3; stroke: #1f77b4; stroke-opacity: 0.3"/>
    <path d="M 410.036364 475.131931 
C 411.063491 475.131931 412.048688 474.723849 412.774976 473.99756 
C 413.501265 473.271272 413.909347 472.286075 413.909347 471.258947 
C 413.909347 470.23182 413.501265 469.246623 412.774976 468.520335 
C 412.048688 467.794046 411.063491 467.385964 410.036364 467.385964 
C 409.009236 467.385964 408.024039 467.794046 407.297751 468.520335 
C 406.571462 469.246623 406.16338 470.23182 406.16338 471.258947 
C 406.16338 472.286075 406.571462 473.271272 407.297751 473.99756 
C 408.024039 474.723849 409.009236 475.131931 410.036364 475.131931 
z
" clip-path="url(#p9284289efb)" style="fill: #1f77b4; fill-opacity: 0.3; stroke: #1f77b4; stroke-opacity: 0.3"/>
    <path d="M 425.066667 473.546184 
C 426.004301 473.546184 426.903659 473.173658 427.566667 472.51065 
C 428.229674 471.847642 428.602201 470.948285 428.602201 470.01065 
C 428.602201 469.073016 428.229674 468.173658 427.566667 467.51065 
C 426.903659 466.847642 426.004301 466.475116 425.066667 466.475116 
C 424.129032 466.475116 423.229674 466.847642 422.566667 467.51065 
C 421.903659 468.173658 421.531133 469.073016 421.531133 470.01065 
C 421.531133 470.948285 421.903659 471.847642 422.566667 472.51065 
C 423.229674 473.173658 424.129032 473.546184 425.066667 473.546184 
z
" clip-path="url(#p9284289efb)" style="fill: #1f77b4; fill-opacity: 0.3; stroke: #1f77b4; stroke-opacity: 0.3"/>
    <path d="M 440.09697 472.385677 
C 441.124097 472.385677 442.109294 471.977595 442.835582 471.251306 
C 443.561871 470.525018 443.969953 469.539821 443.969953 468.512693 
C 443.969953 467.485566 443.561871 466.500369 442.835582 465.774081 
C 442.109294 465.047792 441.124097 464.63971 440.09697 464.63971 
C 439.069843 464.63971 438.084646 465.047792 437.358357 465.774081 
C 436.632068 466.500369 436.223986 467.485566 436.223986 468.512693 
C 436.223986 469.539821 436.632068 470.525018 437.358357 471.251306 
C 438.084646 471.977595 439.069843 472.385677 440.09697 472.385677 
z
" clip-path="url(#p9284289efb)" style="fill: #1f77b4; fill-opacity: 0.3; stroke: #1f77b4; stroke-opacity: 0.3"/>
    <path d="M 455.127273 470.948378 
C 456.236697 470.948378 457.300831 470.507599 458.085313 469.723117 
C 458.869794 468.938636 459.310573 467.874502 459.310573 466.765077 
C 459.310573 465.655653 458.869794 464.591519 458.085313 463.807038 
C 457.300831 463.022556 456.236697 462.581777 455.127273 462.581777 
C 454.017849 462.581777 452.953714 463.022556 452.169233 463.807038 
C 451.384751 464.591519 450.943973 465.655653 450.943973 466.765077 
C 450.943973 467.874502 451.384751 468.938636 452.169233 469.723117 
C 452.953714 470.507599 454.017849 470.948378 455.127273 470.948378 
z
" clip-path="url(#p9284289efb)" style="fill: #1f77b4; fill-opacity: 0.3; stroke: #1f77b4; stroke-opacity: 0.3"/>
    <path d="M 470.157576 469.239938 
C 471.3436 469.239938 472.481208 468.768725 473.319853 467.93008 
C 474.158499 467.091434 474.629712 465.953826 474.629712 464.767802 
C 474.629712 463.581778 474.158499 462.44417 473.319853 461.605524 
C 472.481208 460.766878 471.3436 460.295666 470.157576 460.295666 
C 468.971551 460.295666 467.833944 460.766878 466.995298 461.605524 
C 466.156652 462.44417 465.68544 463.581778 465.68544 464.767802 
C 465.68544 465.953826 466.156652 467.091434 466.995298 467.93008 
C 467.833944 468.768725 468.971551 469.239938 470.157576 469.239938 
z
" clip-path="url(#p9284289efb)" style="fill: #1f77b4; fill-opacity: 0.3; stroke: #1f77b4; stroke-opacity: 0.3"/>
    <path d="M 485.187879 467.142829 
C 486.215006 467.142829 487.200203 466.734747 487.926492 466.008458 
C 488.65278 465.282169 489.060862 464.296972 489.060862 463.269845 
C 489.060862 462.242718 488.65278 461.257521 487.926492 460.531232 
C 487.200203 459.804944 486.215006 459.396862 485.187879 459.396862 
C 484.160752 459.396862 483.175555 459.804944 482.449266 460.531232 
C 481.722977 461.257521 481.314895 462.242718 481.314895 463.269845 
C 481.314895 464.296972 481.722977 465.282169 482.449266 466.008458 
C 483.175555 466.734747 484.160752 467.142829 485.187879 467.142829 
z
" clip-path="url(#p9284289efb)" style="fill: #1f77b4; fill-opacity: 0.3; stroke: #1f77b4; stroke-opacity: 0.3"/>
    <path d="M 500.218182 465.767636 
C 501.608919 465.767636 502.942882 465.21509 503.926281 464.231691 
C 504.90968 463.248291 505.462226 461.914328 505.462226 460.523591 
C 505.462226 459.132855 504.90968 457.798892 503.926281 456.815492 
C 502.942882 455.832093 501.608919 455.279547 500.218182 455.279547 
C 498.827445 455.279547 497.493482 455.832093 496.510083 456.815492 
C 495.526683 457.798892 494.974138 459.132855 494.974138 460.523591 
C 494.974138 461.914328 495.526683 463.248291 496.510083 464.231691 
C 497.493482 465.21509 498.827445 465.767636 500.218182 465.767636 
z
" clip-path="url(#p9284289efb)" style="fill: #1f77b4; fill-opacity: 0.3; stroke: #1f77b4; stroke-opacity: 0.3"/>
    <path d="M 515.248485 462.853596 
C 516.925777 462.853596 518.534596 462.187201 519.720621 461.001176 
C 520.906645 459.815152 521.57304 458.206332 521.57304 456.52904 
C 521.57304 454.851749 520.906645 453.242929 519.720621 452.056904 
C 518.534596 450.87088 516.925777 450.204485 515.248485 450.204485 
C 513.571193 450.204485 511.962373 450.87088 510.776349 452.056904 
C 509.590325 453.242929 508.92393 454.851749 508.92393 456.52904 
C 508.92393 458.206332 509.590325 459.815152 510.776349 461.001176 
C 511.962373 462.187201 513.571193 462.853596 515.248485 462.853596 
z
" clip-path="url(#p9284289efb)" style="fill: #1f77b4; fill-opacity: 0.3; stroke: #1f77b4; stroke-opacity: 0.3"/>
    <path d="M 530.278788 458.28318 
C 532.333042 458.28318 534.303436 457.467016 535.756013 456.014439 
C 537.208591 454.561862 538.024755 452.591468 538.024755 450.537214 
C 538.024755 448.482959 537.208591 446.512565 535.756013 445.059988 
C 534.303436 443.607411 532.333042 442.791247 530.278788 442.791247 
C 528.224533 442.791247 526.25414 443.607411 524.801562 445.059988 
C 523.348985 446.512565 522.532821 448.482959 522.532821 450.537214 
C 522.532821 452.591468 523.348985 454.561862 524.801562 456.014439 
C 526.25414 457.467016 528.224533 458.28318 530.278788 458.28318 
z
" clip-path="url(#p9284289efb)" style="fill: #1f77b4; fill-opacity: 0.3; stroke: #1f77b4; stroke-opacity: 0.3"/>
    <path d="M 545.309091 452.972898 
C 546.418515 452.972898 547.482649 452.532119 548.267131 451.747637 
C 549.051612 450.963156 549.492391 449.899022 549.492391 448.789598 
C 549.492391 447.680173 549.051612 446.616039 548.267131 445.831558 
C 547.482649 445.047076 546.418515 444.606297 545.309091 444.606297 
C 544.199667 444.606297 543.135532 445.047076 542.351051 445.831558 
C 541.56657 446.616039 541.125791 447.680173 541.125791 448.789598 
C 541.125791 449.899022 541.56657 450.963156 542.351051 451.747637 
C 543.135532 452.532119 544.199667 452.972898 545.309091 452.972898 
z
" clip-path="url(#p9284289efb)" style="fill: #1f77b4; fill-opacity: 0.3; stroke: #1f77b4; stroke-opacity: 0.3"/>
    <path d="M 560.339394 451.244902 
C 561.851284 451.244902 563.301455 450.644222 564.370523 449.575154 
C 565.439591 448.506086 566.040271 447.055915 566.040271 445.544025 
C 566.040271 444.032134 565.439591 442.581964 564.370523 441.512896 
C 563.301455 440.443828 561.851284 439.843148 560.339394 439.843148 
C 558.827504 439.843148 557.377333 440.443828 556.308265 441.512896 
C 555.239197 442.581964 554.638517 444.032134 554.638517 445.544025 
C 554.638517 447.055915 555.239197 448.506086 556.308265 449.575154 
C 557.377333 450.644222 558.827504 451.244902 560.339394 451.244902 
z
" clip-path="url(#p9284289efb)" style="fill: #1f77b4; fill-opacity: 0.3; stroke: #1f77b4; stroke-opacity: 0.3"/>
    <path d="M 575.369697 447.964872 
C 576.93866 447.964872 578.443573 447.341517 579.552997 446.232093 
C 580.662421 445.122669 581.285777 443.617755 581.285777 442.048793 
C 581.285777 440.47983 580.662421 438.974917 579.552997 437.865492 
C 578.443573 436.756068 576.93866 436.132713 575.369697 436.132713 
C 573.800734 436.132713 572.295821 436.756068 571.186397 437.865492 
C 570.076973 438.974917 569.453617 440.47983 569.453617 442.048793 
C 569.453617 443.617755 570.076973 445.122669 571.186397 446.232093 
C 572.295821 447.341517 573.800734 447.964872 575.369697 447.964872 
z
" clip-path="url(#p9284289efb)" style="fill: #1f77b4; fill-opacity: 0.3; stroke: #1f77b4; stroke-opacity: 0.3"/>
    <path d="M 590.4 442.892982 
C 592.808827 442.892982 595.119319 441.935945 596.822616 440.232647 
C 598.525914 438.529349 599.482951 436.218858 599.482951 433.810031 
C 599.482951 431.401204 598.525914 429.090712 596.822616 427.387415 
C 595.119319 425.684117 592.808827 424.72708 590.4 424.72708 
C 587.991173 424.72708 585.680681 425.684117 583.977384 427.387415 
C 582.274086 429.090712 581.317049 431.401204 581.317049 433.810031 
C 581.317049 436.218858 582.274086 438.529349 583.977384 440.232647 
C 585.680681 441.935945 587.991173 442.892982 590.4 442.892982 
z
" clip-path="url(#p9284289efb)" style="fill: #1f77b4; fill-opacity: 0.3; stroke: #1f77b4; stroke-opacity: 0.3"/>
    <path d="M 605.430303 434.873997 
C 607.764994 434.873997 610.004377 433.946414 611.655253 432.295538 
C 613.306129 430.644662 614.233711 428.405279 614.233711 426.070588 
C 614.233711 423.735897 613.306129 421.496514 611.655253 419.845638 
C 610.004377 418.194762 607.764994 417.26718 605.430303 417.26718 
C 603.095612 417.26718 600.856229 418.194762 599.205353 419.845638 
C 597.554477 421.496514 596.626895 423.735897 596.626895 426.070588 
C 596.626895 428.405279 597.554477 430.644662 599.205353 432.295538 
C 600.856229 433.946414 603.095612 434.873997 605.430303 434.873997 
z
" clip-path="url(#p9284289efb)" style="fill: #1f77b4; fill-opacity: 0.3; stroke: #1f77b4; stroke-opacity: 0.3"/>
    <path d="M 620.460606 426.914778 
C 622.869433 426.914778 625.179925 425.957741 626.883222 424.254443 
C 628.58652 422.551145 629.543557 420.240653 629.543557 417.831827 
C 629.543557 415.423 628.58652 413.112508 626.883222 411.40921 
C 625.179925 409.705913 622.869433 408.748876 620.460606 408.748876 
C 618.051779 408.748876 615.741288 409.705913 614.03799 411.40921 
C 612.334692 413.112508 611.377655 415.423 611.377655 417.831827 
C 611.377655 420.240653 612.334692 422.551145 614.03799 424.254443 
C 615.741288 425.957741 618.051779 426.914778 620.460606 426.914778 
z
" clip-path="url(#p9284289efb)" style="fill: #1f77b4; fill-opacity: 0.3; stroke: #1f77b4; stroke-opacity: 0.3"/>
    <path d="M 635.490909 418.44789 
C 637.971657 418.44789 640.351134 417.462278 642.105287 415.708124 
C 643.859441 413.953971 644.845053 411.574494 644.845053 409.093746 
C 644.845053 406.612998 643.859441 404.233521 642.105287 402.479368 
C 640.351134 400.725214 637.971657 399.739603 635.490909 399.739603 
C 633.010161 399.739603 630.630684 400.725214 628.876531 402.479368 
C 627.122377 404.233521 626.136766 406.612998 626.136766 409.093746 
C 626.136766 411.574494 627.122377 413.953971 628.876531 415.708124 
C 630.630684 417.462278 633.010161 418.44789 635.490909 418.44789 
z
" clip-path="url(#p9284289efb)" style="fill: #1f77b4; fill-opacity: 0.3; stroke: #1f77b4; stroke-opacity: 0.3"/>
    <path d="M 650.521212 411.242241 
C 652.348998 411.242241 654.102169 410.516054 655.394609 409.223614 
C 656.687049 407.931174 657.413236 406.178003 657.413236 404.350217 
C 657.413236 402.52243 656.687049 400.76926 655.394609 399.47682 
C 654.102169 398.18438 652.348998 397.458192 650.521212 397.458192 
C 648.693426 397.458192 646.940255 398.18438 645.647815 399.47682 
C 644.355375 400.76926 643.629188 402.52243 643.629188 404.350217 
C 643.629188 406.178003 644.355375 407.931174 645.647815 409.223614 
C 646.940255 410.516054 648.693426 411.242241 650.521212 411.242241 
z
" clip-path="url(#p9284289efb)" style="fill: #1f77b4; fill-opacity: 0.3; stroke: #1f77b4; stroke-opacity: 0.3"/>
    <path d="M 665.551515 406.825077 
C 666.737539 406.825077 667.875147 406.353865 668.713793 405.515219 
C 669.552439 404.676573 670.023651 403.538965 670.023651 402.352941 
C 670.023651 401.166917 669.552439 400.029309 668.713793 399.190664 
C 667.875147 398.352018 666.737539 397.880805 665.551515 397.880805 
C 664.365491 397.880805 663.227883 398.352018 662.389237 399.190664 
C 661.550592 400.029309 661.079379 401.166917 661.079379 402.352941 
C 661.079379 403.538965 661.550592 404.676573 662.389237 405.515219 
C 663.227883 406.353865 664.365491 406.825077 665.551515 406.825077 
z
" clip-path="url(#p9284289efb)" style="fill: #1f77b4; fill-opacity: 0.3; stroke: #1f77b4; stroke-opacity: 0.3"/>
    <path d="M 680.581818 404.731774 
C 682.205849 404.731774 683.763582 404.08654 684.911945 402.938177 
C 686.060308 401.789813 686.705543 400.23208 686.705543 398.60805 
C 686.705543 396.984019 686.060308 395.426286 684.911945 394.277923 
C 683.763582 393.129559 682.205849 392.484325 680.581818 392.484325 
C 678.957787 392.484325 677.400054 393.129559 676.251691 394.277923 
C 675.103328 395.426286 674.458094 396.984019 674.458094 398.60805 
C 674.458094 400.23208 675.103328 401.789813 676.251691 402.938177 
C 677.400054 404.08654 678.957787 404.731774 680.581818 404.731774 
z
" clip-path="url(#p9284289efb)" style="fill: #1f77b4; fill-opacity: 0.3; stroke: #1f77b4; stroke-opacity: 0.3"/>
    <path d="M 695.612121 396.314798 
C 698.77794 396.314798 701.814521 395.057005 704.053093 392.818433 
C 706.291665 390.579861 707.549458 387.54328 707.549458 384.377461 
C 707.549458 381.211643 706.291665 378.175062 704.053093 375.93649 
C 701.814521 373.697918 698.77794 372.440125 695.612121 372.440125 
C 692.446303 372.440125 689.409722 373.697918 687.17115 375.93649 
C 684.932578 378.175062 683.674785 381.211643 683.674785 384.377461 
C 683.674785 387.54328 684.932578 390.579861 687.17115 392.818433 
C 689.409722 395.057005 692.446303 396.314798 695.612121 396.314798 
z
" clip-path="url(#p9284289efb)" style="fill: #1f77b4; fill-opacity: 0.3; stroke: #1f77b4; stroke-opacity: 0.3"/>
    <path d="M 710.642424 373.672156 
C 715.020284 373.672156 719.219427 371.932814 722.315042 368.8372 
C 725.410656 365.741585 727.149998 361.542442 727.149998 357.164582 
C 727.149998 352.786722 725.410656 348.587579 722.315042 345.491965 
C 719.219427 342.39635 715.020284 340.657008 710.642424 340.657008 
C 706.264564 340.657008 702.065421 342.39635 698.969807 345.491965 
C 695.874192 348.587579 694.13485 352.786722 694.13485 357.164582 
C 694.13485 361.542442 695.874192 365.741585 698.969807 368.8372 
C 702.065421 371.932814 706.264564 373.672156 710.642424 373.672156 
z
" clip-path="url(#p9284289efb)" style="fill: #1f77b4; fill-opacity: 0.3; stroke: #1f77b4; stroke-opacity: 0.3"/>
    <path d="M 725.672727 356.27033 
C 728.54746 356.27033 731.304839 355.128186 733.337582 353.095443 
C 735.370325 351.0627 736.512469 348.305321 736.512469 345.430588 
C 736.512469 342.555855 735.370325 339.798477 733.337582 337.765733 
C 731.304839 335.73299 728.54746 334.590847 725.672727 334.590847 
C 722.797994 334.590847 720.040616 335.73299 718.007872 337.765733 
C 715.975129 339.798477 714.832986 342.555855 714.832986 345.430588 
C 714.832986 348.305321 715.975129 351.0627 718.007872 353.095443 
C 720.040616 355.128186 722.797994 356.27033 725.672727 356.27033 
z
" clip-path="url(#p9284289efb)" style="fill: #1f77b4; fill-opacity: 0.3; stroke: #1f77b4; stroke-opacity: 0.3"/>
    <path d="M 740.70303 341.645585 
C 744.135336 341.645585 747.427526 340.281915 749.854533 337.854908 
C 752.28154 335.427901 753.645209 332.135712 753.645209 328.703406 
C 753.645209 325.2711 752.28154 321.97891 749.854533 319.551903 
C 747.427526 317.124896 744.135336 315.761226 740.70303 315.761226 
C 737.270724 315.761226 733.978535 317.124896 731.551528 319.551903 
C 729.124521 321.97891 727.760851 325.2711 727.760851 328.703406 
C 727.760851 332.135712 729.124521 335.427901 731.551528 337.854908 
C 733.978535 340.281915 737.270724 341.645585 740.70303 341.645585 
z
" clip-path="url(#p9284289efb)" style="fill: #1f77b4; fill-opacity: 0.3; stroke: #1f77b4; stroke-opacity: 0.3"/>
    <path d="M 755.733333 330.91774 
C 757.51237 330.91774 759.218781 330.210921 760.47675 328.952952 
C 761.734719 327.694983 762.441537 325.988572 762.441537 324.209536 
C 762.441537 322.430499 761.734719 320.724088 760.47675 319.466119 
C 759.218781 318.20815 757.51237 317.501332 755.733333 317.501332 
C 753.954297 317.501332 752.247886 318.20815 750.989917 319.466119 
C 749.731948 320.724088 749.025129 322.430499 749.025129 324.209536 
C 749.025129 325.988572 749.731948 327.694983 750.989917 328.952952 
C 752.247886 330.210921 753.954297 330.91774 755.733333 330.91774 
z
" clip-path="url(#p9284289efb)" style="fill: #1f77b4; fill-opacity: 0.3; stroke: #1f77b4; stroke-opacity: 0.3"/>
    <path d="M 770.763636 325.164705 
C 773.135685 325.164705 775.4109 324.22228 777.088192 322.544989 
C 778.765483 320.867697 779.707908 318.592482 779.707908 316.220433 
C 779.707908 313.848385 778.765483 311.57317 777.088192 309.895878 
C 775.4109 308.218586 773.135685 307.276162 770.763636 307.276162 
C 768.391588 307.276162 766.116373 308.218586 764.439081 309.895878 
C 762.761789 311.57317 761.819364 313.848385 761.819364 316.220433 
C 761.819364 318.592482 762.761789 320.867697 764.439081 322.544989 
C 766.116373 324.22228 768.391588 325.164705 770.763636 325.164705 
z
" clip-path="url(#p9284289efb)" style="fill: #1f77b4; fill-opacity: 0.3; stroke: #1f77b4; stroke-opacity: 0.3"/>
    <path d="M 785.793939 315.59236 
C 788.606843 315.59236 791.304916 314.474782 793.293939 312.485759 
C 795.282963 310.496735 796.400541 307.798662 796.400541 304.985759 
C 796.400541 302.172855 795.282963 299.474782 793.293939 297.485759 
C 791.304916 295.496735 788.606843 294.379157 785.793939 294.379157 
C 782.981036 294.379157 780.282963 295.496735 778.293939 297.485759 
C 776.304916 299.474782 775.187338 302.172855 775.187338 304.985759 
C 775.187338 307.798662 776.304916 310.496735 778.293939 312.485759 
C 780.282963 314.474782 782.981036 315.59236 785.793939 315.59236 
z
" clip-path="url(#p9284289efb)" style="fill: #1f77b4; fill-opacity: 0.3; stroke: #1f77b4; stroke-opacity: 0.3"/>
    <path d="M 800.824242 304.357685 
C 803.637146 304.357685 806.335219 303.240107 808.324242 301.251084 
C 810.313266 299.26206 811.430844 296.563987 811.430844 293.751084 
C 811.430844 290.93818 810.313266 288.240107 808.324242 286.251084 
C 806.335219 284.26206 803.637146 283.144482 800.824242 283.144482 
C 798.011339 283.144482 795.313266 284.26206 793.324242 286.251084 
C 791.335219 288.240107 790.217641 290.93818 790.217641 293.751084 
C 790.217641 296.563987 791.335219 299.26206 793.324242 301.251084 
C 795.313266 303.240107 798.011339 304.357685 800.824242 304.357685 
z
" clip-path="url(#p9284289efb)" style="fill: #1f77b4; fill-opacity: 0.3; stroke: #1f77b4; stroke-opacity: 0.3"/>
    <path d="M 815.854545 291.31243 
C 819.048014 291.31243 822.111116 290.043652 824.369239 287.785529 
C 826.627362 285.527406 827.89614 282.464304 827.89614 279.270836 
C 827.89614 276.077368 826.627362 273.014266 824.369239 270.756143 
C 822.111116 268.49802 819.048014 267.229241 815.854545 267.229241 
C 812.661077 267.229241 809.597975 268.49802 807.339852 270.756143 
C 805.081729 273.014266 803.812951 276.077368 803.812951 279.270836 
C 803.812951 282.464304 805.081729 285.527406 807.339852 287.785529 
C 809.597975 290.043652 812.661077 291.31243 815.854545 291.31243 
z
" clip-path="url(#p9284289efb)" style="fill: #1f77b4; fill-opacity: 0.3; stroke: #1f77b4; stroke-opacity: 0.3"/>
    <path d="M 830.884848 272.463002 
C 834.773489 272.463002 838.503385 270.918029 841.253069 268.168345 
C 844.002753 265.41866 845.547727 261.688765 845.547727 257.800124 
C 845.547727 253.911483 844.002753 250.181587 841.253069 247.431903 
C 838.503385 244.682219 834.773489 243.137246 830.884848 243.137246 
C 826.996208 243.137246 823.266312 244.682219 820.516628 247.431903 
C 817.766944 250.181587 816.22197 253.911483 816.22197 257.800124 
C 816.22197 261.688765 817.766944 265.41866 820.516628 268.168345 
C 823.266312 270.918029 826.996208 272.463002 830.884848 272.463002 
z
" clip-path="url(#p9284289efb)" style="fill: #1f77b4; fill-opacity: 0.3; stroke: #1f77b4; stroke-opacity: 0.3"/>
    <path d="M 845.915152 254.771138 
C 849.216903 254.771138 852.383869 253.459338 854.71856 251.124647 
C 857.053251 248.789956 858.365051 245.62299 858.365051 242.321238 
C 858.365051 239.019486 857.053251 235.852521 854.71856 233.51783 
C 852.383869 231.183139 849.216903 229.871339 845.915152 229.871339 
C 842.6134 229.871339 839.446434 231.183139 837.111743 233.51783 
C 834.777052 235.852521 833.465252 239.019486 833.465252 242.321238 
C 833.465252 245.62299 834.777052 248.789956 837.111743 251.124647 
C 839.446434 253.459338 842.6134 254.771138 845.915152 254.771138 
z
" clip-path="url(#p9284289efb)" style="fill: #1f77b4; fill-opacity: 0.3; stroke: #1f77b4; stroke-opacity: 0.3"/>
    <path d="M 860.945455 244.824644 
C 862.27147 244.824644 863.543354 244.297812 864.480988 243.360178 
C 865.418623 242.422543 865.945455 241.150659 865.945455 239.824644 
C 865.945455 238.498628 865.418623 237.226745 864.480988 236.28911 
C 863.543354 235.351476 862.27147 234.824644 860.945455 234.824644 
C 859.619439 234.824644 858.347555 235.351476 857.409921 236.28911 
C 856.472286 237.226745 855.945455 238.498628 855.945455 239.824644 
C 855.945455 241.150659 856.472286 242.422543 857.409921 243.360178 
C 858.347555 244.297812 859.619439 244.824644 860.945455 244.824644 
z
" clip-path="url(#p9284289efb)" style="fill: #1f77b4; fill-opacity: 0.3; stroke: #1f77b4; stroke-opacity: 0.3"/>
    <path d="M 875.975758 242.305956 
C 877.428335 242.305956 878.821614 241.728841 879.848741 240.701714 
C 880.875868 239.674587 881.452983 238.281308 881.452983 236.828731 
C 881.452983 235.376153 880.875868 233.982874 879.848741 232.955747 
C 878.821614 231.92862 877.428335 231.351505 875.975758 231.351505 
C 874.52318 231.351505 873.129901 231.92862 872.102774 232.955747 
C 871.075647 233.982874 870.498532 235.376153 870.498532 236.828731 
C 870.498532 238.281308 871.075647 239.674587 872.102774 240.701714 
C 873.129901 241.728841 874.52318 242.305956 875.975758 242.305956 
z
" clip-path="url(#p9284289efb)" style="fill: #1f77b4; fill-opacity: 0.3; stroke: #1f77b4; stroke-opacity: 0.3"/>
    <path d="M 891.006061 224.897622 
C 895.522307 224.897622 899.854187 223.103298 903.047655 219.90983 
C 906.241123 216.716362 908.035447 212.384481 908.035447 207.868235 
C 908.035447 203.351989 906.241123 199.020109 903.047655 195.826641 
C 899.854187 192.633173 895.522307 190.838849 891.006061 190.838849 
C 886.489815 190.838849 882.157934 192.633173 878.964466 195.826641 
C 875.770998 199.020109 873.976674 203.351989 873.976674 207.868235 
C 873.976674 212.384481 875.770998 216.716362 878.964466 219.90983 
C 882.157934 223.103298 886.489815 224.897622 891.006061 224.897622 
z
" clip-path="url(#p9284289efb)" style="fill: #1f77b4; fill-opacity: 0.3; stroke: #1f77b4; stroke-opacity: 0.3"/>
    <path d="M 906.036364 201.388219 
C 909.879522 201.388219 913.565791 199.861316 916.283314 197.143793 
C 919.000838 194.42627 920.52774 190.74 920.52774 186.896842 
C 920.52774 183.053684 919.000838 179.367414 916.283314 176.649891 
C 913.565791 173.932368 909.879522 172.405465 906.036364 172.405465 
C 902.193206 172.405465 898.506936 173.932368 895.789413 176.649891 
C 893.07189 179.367414 891.544987 183.053684 891.544987 186.896842 
C 891.544987 190.74 893.07189 194.42627 895.789413 197.143793 
C 898.506936 199.861316 902.193206 201.388219 906.036364 201.388219 
z
" clip-path="url(#p9284289efb)" style="fill: #1f77b4; fill-opacity: 0.3; stroke: #1f77b4; stroke-opacity: 0.3"/>
    <path d="M 921.066667 185.86764 
C 923.971821 185.86764 926.758379 184.71341 928.812633 182.659156 
C 930.866888 180.604901 932.021118 177.818343 932.021118 174.913189 
C 932.021118 172.008034 930.866888 169.221477 928.812633 167.167222 
C 926.758379 165.112968 923.971821 163.958738 921.066667 163.958738 
C 918.161512 163.958738 915.374954 165.112968 913.3207 167.167222 
C 911.266446 169.221477 910.112216 172.008034 910.112216 174.913189 
C 910.112216 177.818343 911.266446 180.604901 913.3207 182.659156 
C 915.374954 184.71341 918.161512 185.86764 921.066667 185.86764 
z
" clip-path="url(#p9284289efb)" style="fill: #1f77b4; fill-opacity: 0.3; stroke: #1f77b4; stroke-opacity: 0.3"/>
    <path d="M 936.09697 165.416645 
C 940.331924 165.416645 944.393995 163.73408 947.388559 160.739515 
C 950.383124 157.744951 952.065689 153.68288 952.065689 149.447926 
C 952.065689 145.212972 950.383124 141.150901 947.388559 138.156336 
C 944.393995 135.161771 940.331924 133.479206 936.09697 133.479206 
C 931.862016 133.479206 927.799945 135.161771 924.80538 138.156336 
C 921.810815 141.150901 920.12825 145.212972 920.12825 149.447926 
C 920.12825 153.68288 921.810815 157.744951 924.80538 160.739515 
C 927.799945 163.73408 931.862016 165.416645 936.09697 165.416645 
z
" clip-path="url(#p9284289efb)" style="fill: #1f77b4; fill-opacity: 0.3; stroke: #1f77b4; stroke-opacity: 0.3"/>
    <path d="M 951.127273 137.163675 
C 955.682286 137.163675 960.05135 135.35395 963.272231 132.133069 
C 966.493111 128.912189 968.302837 124.543124 968.302837 119.988111 
C 968.302837 115.433099 966.493111 111.064034 963.272231 107.843154 
C 960.05135 104.622273 955.682286 102.812547 951.127273 102.812547 
C 946.57226 102.812547 942.203195 104.622273 938.982315 107.843154 
C 935.761434 111.064034 933.951709 115.433099 933.951709 119.988111 
C 933.951709 124.543124 935.761434 128.912189 938.982315 132.133069 
C 942.203195 135.35395 946.57226 137.163675 951.127273 137.163675 
z
" clip-path="url(#p9284289efb)" style="fill: #1f77b4; fill-opacity: 0.3; stroke: #1f77b4; stroke-opacity: 0.3"/>
    <path d="M 966.157576 121.052077 
C 968.492267 121.052077 970.73165 120.124495 972.382526 118.473619 
C 974.033402 116.822743 974.960984 114.58336 974.960984 112.248669 
C 974.960984 109.913978 974.033402 107.674595 972.382526 106.023719 
C 970.73165 104.372843 968.492267 103.44526 966.157576 103.44526 
C 963.822885 103.44526 961.583502 104.372843 959.932626 106.023719 
C 958.28175 107.674595 957.354167 109.913978 957.354167 112.248669 
C 957.354167 114.58336 958.28175 116.822743 959.932626 118.473619 
C 961.583502 120.124495 963.822885 121.052077 966.157576 121.052077 
z
" clip-path="url(#p9284289efb)" style="fill: #1f77b4; fill-opacity: 0.3; stroke: #1f77b4; stroke-opacity: 0.3"/>
    <path d="M 981.187879 114.729981 
C 982.640456 114.729981 984.033735 114.152866 985.060862 113.125739 
C 986.087989 112.098612 986.665104 110.705333 986.665104 109.252755 
C 986.665104 107.800178 986.087989 106.406899 985.060862 105.379772 
C 984.033735 104.352645 982.640456 103.77553 981.187879 103.77553 
C 979.735302 103.77553 978.342023 104.352645 977.314895 105.379772 
C 976.287768 106.406899 975.710653 107.800178 975.710653 109.252755 
C 975.710653 110.705333 976.287768 112.098612 977.314895 113.125739 
C 978.342023 114.152866 979.735302 114.729981 981.187879 114.729981 
z
" clip-path="url(#p9284289efb)" style="fill: #1f77b4; fill-opacity: 0.3; stroke: #1f77b4; stroke-opacity: 0.3"/>
    <path d="M 996.218182 103.422136 
C 999.96872 103.422136 1003.566151 101.932031 1006.218182 99.28 
C 1008.870213 96.627969 1010.360317 93.030538 1010.360317 89.28 
C 1010.360317 85.529462 1008.870213 81.932031 1006.218182 79.28 
C 1003.566151 76.627969 999.96872 75.137864 996.218182 75.137864 
C 992.467644 75.137864 988.870213 76.627969 986.218182 79.28 
C 983.566151 81.932031 982.076046 85.529462 982.076046 89.28 
C 982.076046 93.030538 983.566151 96.627969 986.218182 99.28 
C 988.870213 101.932031 992.467644 103.422136 996.218182 103.422136 
z
" clip-path="url(#p9284289efb)" style="fill: #1f77b4; fill-opacity: 0.3; stroke: #1f77b4; stroke-opacity: 0.3"/>
   </g>
   <g id="matplotlib.axis_1">
    <g id="xtick_1">
     <g id="line2d_1">
      <defs>
       <path id="m9af84fe5bd" d="M 0 0 
L 0 3.5 
" style="stroke: #000000; stroke-width: 0.8"/>
      </defs>
      <g>
       <use xlink:href="#m9af84fe5bd" x="184.581818" y="512.64" style="stroke: #000000; stroke-width: 0.8"/>
      </g>
     </g>
     <g id="text_1">
      <!-- 2025-01-01 -->
      <g transform="translate(155.524006 527.238438) scale(0.1 -0.1)">
       <defs>
        <path id="DejaVuSans-32" d="M 1228 531 
L 3431 531 
L 3431 0 
L 469 0 
L 469 531 
Q 828 903 1448 1529 
Q 2069 2156 2228 2338 
Q 2531 2678 2651 2914 
Q 2772 3150 2772 3378 
Q 2772 3750 2511 3984 
Q 2250 4219 1831 4219 
Q 1534 4219 1204 4116 
Q 875 4013 500 3803 
L 500 4441 
Q 881 4594 1212 4672 
Q 1544 4750 1819 4750 
Q 2544 4750 2975 4387 
Q 3406 4025 3406 3419 
Q 3406 3131 3298 2873 
Q 3191 2616 2906 2266 
Q 2828 2175 2409 1742 
Q 1991 1309 1228 531 
z
" transform="scale(0.015625)"/>
        <path id="DejaVuSans-30" d="M 2034 4250 
Q 1547 4250 1301 3770 
Q 1056 3291 1056 2328 
Q 1056 1369 1301 889 
Q 1547 409 2034 409 
Q 2525 409 2770 889 
Q 3016 1369 3016 2328 
Q 3016 3291 2770 3770 
Q 2525 4250 2034 4250 
z
M 2034 4750 
Q 2819 4750 3233 4129 
Q 3647 3509 3647 2328 
Q 3647 1150 3233 529 
Q 2819 -91 2034 -91 
Q 1250 -91 836 529 
Q 422 1150 422 2328 
Q 422 3509 836 4129 
Q 1250 4750 2034 4750 
z
" transform="scale(0.015625)"/>
        <path id="DejaVuSans-35" d="M 691 4666 
L 3169 4666 
L 3169 4134 
L 1269 4134 
L 1269 2991 
Q 1406 3038 1543 3061 
Q 1681 3084 1819 3084 
Q 2600 3084 3056 2656 
Q 3513 2228 3513 1497 
Q 3513 744 3044 326 
Q 2575 -91 1722 -91 
Q 1428 -91 1123 -41 
Q 819 9 494 109 
L 494 744 
Q 775 591 1075 516 
Q 1375 441 1709 441 
Q 2250 441 2565 725 
Q 2881 1009 2881 1497 
Q 2881 1984 2565 2268 
Q 2250 2553 1709 2553 
Q 1456 2553 1204 2497 
Q 953 2441 691 2322 
L 691 4666 
z
" transform="scale(0.015625)"/>
        <path id="DejaVuSans-2d" d="M 313 2009 
L 1997 2009 
L 1997 1497 
L 313 1497 
L 313 2009 
z
" transform="scale(0.015625)"/>
        <path id="DejaVuSans-31" d="M 794 531 
L 1825 531 
L 1825 4091 
L 703 3866 
L 703 4441 
L 1819 4666 
L 2450 4666 
L 2450 531 
L 3481 531 
L 3481 0 
L 794 0 
L 794 531 
z
" transform="scale(0.015625)"/>
       </defs>
       <use xlink:href="#DejaVuSans-32"/>
       <use xlink:href="#DejaVuSans-30" x="63.623047"/>
       <use xlink:href="#DejaVuSans-32" x="127.246094"/>
       <use xlink:href="#DejaVuSans-35" x="190.869141"/>
       <use xlink:href="#DejaVuSans-2d" x="254.492188"/>
       <use xlink:href="#DejaVuSans-30" x="290.576172"/>
       <use xlink:href="#DejaVuSans-31" x="354.199219"/>
       <use xlink:href="#DejaVuSans-2d" x="417.822266"/>
       <use xlink:href="#DejaVuSans-30" x="453.90625"/>
       <use xlink:href="#DejaVuSans-31" x="517.529297"/>
      </g>
     </g>
    </g>
    <g id="xtick_2">
     <g id="line2d_2">
      <g>
       <use xlink:href="#m9af84fe5bd" x="289.793939" y="512.64" style="stroke: #000000; stroke-width: 0.8"/>
      </g>
     </g>
     <g id="text_2">
      <!-- 2025-01-08 -->
      <g transform="translate(260.736127 527.238438) scale(0.1 -0.1)">
       <defs>
        <path id="DejaVuSans-38" d="M 2034 2216 
Q 1584 2216 1326 1975 
Q 1069 1734 1069 1313 
Q 1069 891 1326 650 
Q 1584 409 2034 409 
Q 2484 409 2743 651 
Q 3003 894 3003 1313 
Q 3003 1734 2745 1975 
Q 2488 2216 2034 2216 
z
M 1403 2484 
Q 997 2584 770 2862 
Q 544 3141 544 3541 
Q 544 4100 942 4425 
Q 1341 4750 2034 4750 
Q 2731 4750 3128 4425 
Q 3525 4100 3525 3541 
Q 3525 3141 3298 2862 
Q 3072 2584 2669 2484 
Q 3125 2378 3379 2068 
Q 3634 1759 3634 1313 
Q 3634 634 3220 271 
Q 2806 -91 2034 -91 
Q 1263 -91 848 271 
Q 434 634 434 1313 
Q 434 1759 690 2068 
Q 947 2378 1403 2484 
z
M 1172 3481 
Q 1172 3119 1398 2916 
Q 1625 2713 2034 2713 
Q 2441 2713 2670 2916 
Q 2900 3119 2900 3481 
Q 2900 3844 2670 4047 
Q 2441 4250 2034 4250 
Q 1625 4250 1398 4047 
Q 1172 3844 1172 3481 
z
" transform="scale(0.015625)"/>
       </defs>
       <use xlink:href="#DejaVuSans-32"/>
       <use xlink:href="#DejaVuSans-30" x="63.623047"/>
       <use xlink:href="#DejaVuSans-32" x="127.246094"/>
       <use xlink:href="#DejaVuSans-35" x="190.869141"/>
       <use xlink:href="#DejaVuSans-2d" x="254.492188"/>
       <use xlink:href="#DejaVuSans-30" x="290.576172"/>
       <use xlink:href="#DejaVuSans-31" x="354.199219"/>
       <use xlink:href="#DejaVuSans-2d" x="417.822266"/>
       <use xlink:href="#DejaVuSans-30" x="453.90625"/>
       <use xlink:href="#DejaVuSans-38" x="517.529297"/>
      </g>
     </g>
    </g>
    <g id="xtick_3">
     <g id="line2d_3">
      <g>
       <use xlink:href="#m9af84fe5bd" x="395.006061" y="512.64" style="stroke: #000000; stroke-width: 0.8"/>
      </g>
     </g>
     <g id="text_3">
      <!-- 2025-01-15 -->
      <g transform="translate(365.948248 527.238438) scale(0.1 -0.1)">
       <use xlink:href="#DejaVuSans-32"/>
       <use xlink:href="#DejaVuSans-30" x="63.623047"/>
       <use xlink:href="#DejaVuSans-32" x="127.246094"/>
       <use xlink:href="#DejaVuSans-35" x="190.869141"/>
       <use xlink:href="#DejaVuSans-2d" x="254.492188"/>
       <use xlink:href="#DejaVuSans-30" x="290.576172"/>
       <use xlink:href="#DejaVuSans-31" x="354.199219"/>
       <use xlink:href="#DejaVuSans-2d" x="417.822266"/>
       <use xlink:href="#DejaVuSans-31" x="453.90625"/>
       <use xlink:href="#DejaVuSans-35" x="517.529297"/>
      </g>
     </g>
    </g>
    <g id="xtick_4">
     <g id="line2d_4">
      <g>
       <use xlink:href="#m9af84fe5bd" x="500.218182" y="512.64" style="stroke: #000000; stroke-width: 0.8"/>
      </g>
     </g>
     <g id="text_4">
      <!-- 2025-01-22 -->
      <g transform="translate(471.160369 527.238438) scale(0.1 -0.1)">
       <use xlink:href="#DejaVuSans-32"/>
       <use xlink:href="#DejaVuSans-30" x="63.623047"/>
       <use xlink:href="#DejaVuSans-32" x="127.246094"/>
       <use xlink:href="#DejaVuSans-35" x="190.869141"/>
       <use xlink:href="#DejaVuSans-2d" x="254.492188"/>
       <use xlink:href="#DejaVuSans-30" x="290.576172"/>
       <use xlink:href="#DejaVuSans-31" x="354.199219"/>
       <use xlink:href="#DejaVuSans-2d" x="417.822266"/>
       <use xlink:href="#DejaVuSans-32" x="453.90625"/>
       <use xlink:href="#DejaVuSans-32" x="517.529297"/>
      </g>
     </g>
    </g>
    <g id="xtick_5">
     <g id="line2d_5">
      <g>
       <use xlink:href="#m9af84fe5bd" x="650.521212" y="512.64" style="stroke: #000000; stroke-width: 0.8"/>
      </g>
     </g>
     <g id="text_5">
      <!-- 2025-02-01 -->
      <g transform="translate(621.4634 527.238438) scale(0.1 -0.1)">
       <use xlink:href="#DejaVuSans-32"/>
       <use xlink:href="#DejaVuSans-30" x="63.623047"/>
       <use xlink:href="#DejaVuSans-32" x="127.246094"/>
       <use xlink:href="#DejaVuSans-35" x="190.869141"/>
       <use xlink:href="#DejaVuSans-2d" x="254.492188"/>
       <use xlink:href="#DejaVuSans-30" x="290.576172"/>
       <use xlink:href="#DejaVuSans-32" x="354.199219"/>
       <use xlink:href="#DejaVuSans-2d" x="417.822266"/>
       <use xlink:href="#DejaVuSans-30" x="453.90625"/>
       <use xlink:href="#DejaVuSans-31" x="517.529297"/>
      </g>
     </g>
    </g>
    <g id="xtick_6">
     <g id="line2d_6">
      <g>
       <use xlink:href="#m9af84fe5bd" x="755.733333" y="512.64" style="stroke: #000000; stroke-width: 0.8"/>
      </g>
     </g>
     <g id="text_6">
      <!-- 2025-02-08 -->
      <g transform="translate(726.675521 527.238438) scale(0.1 -0.1)">
       <use xlink:href="#DejaVuSans-32"/>
       <use xlink:href="#DejaVuSans-30" x="63.623047"/>
       <use xlink:href="#DejaVuSans-32" x="127.246094"/>
       <use xlink:href="#DejaVuSans-35" x="190.869141"/>
       <use xlink:href="#DejaVuSans-2d" x="254.492188"/>
       <use xlink:href="#DejaVuSans-30" x="290.576172"/>
       <use xlink:href="#DejaVuSans-32" x="354.199219"/>
       <use xlink:href="#DejaVuSans-2d" x="417.822266"/>
       <use xlink:href="#DejaVuSans-30" x="453.90625"/>
       <use xlink:href="#DejaVuSans-38" x="517.529297"/>
      </g>
     </g>
    </g>
    <g id="xtick_7">
     <g id="line2d_7">
      <g>
       <use xlink:href="#m9af84fe5bd" x="860.945455" y="512.64" style="stroke: #000000; stroke-width: 0.8"/>
      </g>
     </g>
     <g id="text_7">
      <!-- 2025-02-15 -->
      <g transform="translate(831.887642 527.238438) scale(0.1 -0.1)">
       <use xlink:href="#DejaVuSans-32"/>
       <use xlink:href="#DejaVuSans-30" x="63.623047"/>
       <use xlink:href="#DejaVuSans-32" x="127.246094"/>
       <use xlink:href="#DejaVuSans-35" x="190.869141"/>
       <use xlink:href="#DejaVuSans-2d" x="254.492188"/>
       <use xlink:href="#DejaVuSans-30" x="290.576172"/>
       <use xlink:href="#DejaVuSans-32" x="354.199219"/>
       <use xlink:href="#DejaVuSans-2d" x="417.822266"/>
       <use xlink:href="#DejaVuSans-31" x="453.90625"/>
       <use xlink:href="#DejaVuSans-35" x="517.529297"/>
      </g>
     </g>
    </g>
    <g id="xtick_8">
     <g id="line2d_8">
      <g>
       <use xlink:href="#m9af84fe5bd" x="966.157576" y="512.64" style="stroke: #000000; stroke-width: 0.8"/>
      </g>
     </g>
     <g id="text_8">
      <!-- 2025-02-22 -->
      <g transform="translate(937.099763 527.238438) scale(0.1 -0.1)">
       <use xlink:href="#DejaVuSans-32"/>
       <use xlink:href="#DejaVuSans-30" x="63.623047"/>
       <use xlink:href="#DejaVuSans-32" x="127.246094"/>
       <use xlink:href="#DejaVuSans-35" x="190.869141"/>
       <use xlink:href="#DejaVuSans-2d" x="254.492188"/>
       <use xlink:href="#DejaVuSans-30" x="290.576172"/>
       <use xlink:href="#DejaVuSans-32" x="354.199219"/>
       <use xlink:href="#DejaVuSans-2d" x="417.822266"/>
       <use xlink:href="#DejaVuSans-32" x="453.90625"/>
       <use xlink:href="#DejaVuSans-32" x="517.529297"/>
      </g>
     </g>
    </g>
   </g>
   <g id="matplotlib.axis_2">
    <g id="ytick_1">
     <g id="line2d_9">
      <defs>
       <path id="m13b499ac2c" d="M 0 0 
L -3.5 0 
" style="stroke: #000000; stroke-width: 0.8"/>
      </defs>
      <g>
       <use xlink:href="#m13b499ac2c" x="144" y="511.204458" style="stroke: #000000; stroke-width: 0.8"/>
      </g>
     </g>
     <g id="text_9">
      <!-- 8200 -->
      <g transform="translate(111.55 515.003677) scale(0.1 -0.1)">
       <use xlink:href="#DejaVuSans-38"/>
       <use xlink:href="#DejaVuSans-32" x="63.623047"/>
       <use xlink:href="#DejaVuSans-30" x="127.246094"/>
       <use xlink:href="#DejaVuSans-30" x="190.869141"/>
      </g>
     </g>
    </g>
    <g id="ytick_2">
     <g id="line2d_10">
      <g>
       <use xlink:href="#m13b499ac2c" x="144" y="461.27257" style="stroke: #000000; stroke-width: 0.8"/>
      </g>
     </g>
     <g id="text_10">
      <!-- 8400 -->
      <g transform="translate(111.55 465.071788) scale(0.1 -0.1)">
       <defs>
        <path id="DejaVuSans-34" d="M 2419 4116 
L 825 1625 
L 2419 1625 
L 2419 4116 
z
M 2253 4666 
L 3047 4666 
L 3047 1625 
L 3713 1625 
L 3713 1100 
L 3047 1100 
L 3047 0 
L 2419 0 
L 2419 1100 
L 313 1100 
L 313 1709 
L 2253 4666 
z
" transform="scale(0.015625)"/>
       </defs>
       <use xlink:href="#DejaVuSans-38"/>
       <use xlink:href="#DejaVuSans-34" x="63.623047"/>
       <use xlink:href="#DejaVuSans-30" x="127.246094"/>
       <use xlink:href="#DejaVuSans-30" x="190.869141"/>
      </g>
     </g>
    </g>
    <g id="ytick_3">
     <g id="line2d_11">
      <g>
       <use xlink:href="#m13b499ac2c" x="144" y="411.340681" style="stroke: #000000; stroke-width: 0.8"/>
      </g>
     </g>
     <g id="text_11">
      <!-- 8600 -->
      <g transform="translate(111.55 415.1399) scale(0.1 -0.1)">
       <defs>
        <path id="DejaVuSans-36" d="M 2113 2584 
Q 1688 2584 1439 2293 
Q 1191 2003 1191 1497 
Q 1191 994 1439 701 
Q 1688 409 2113 409 
Q 2538 409 2786 701 
Q 3034 994 3034 1497 
Q 3034 2003 2786 2293 
Q 2538 2584 2113 2584 
z
M 3366 4563 
L 3366 3988 
Q 3128 4100 2886 4159 
Q 2644 4219 2406 4219 
Q 1781 4219 1451 3797 
Q 1122 3375 1075 2522 
Q 1259 2794 1537 2939 
Q 1816 3084 2150 3084 
Q 2853 3084 3261 2657 
Q 3669 2231 3669 1497 
Q 3669 778 3244 343 
Q 2819 -91 2113 -91 
Q 1303 -91 875 529 
Q 447 1150 447 2328 
Q 447 3434 972 4092 
Q 1497 4750 2381 4750 
Q 2619 4750 2861 4703 
Q 3103 4656 3366 4563 
z
" transform="scale(0.015625)"/>
       </defs>
       <use xlink:href="#DejaVuSans-38"/>
       <use xlink:href="#DejaVuSans-36" x="63.623047"/>
       <use xlink:href="#DejaVuSans-30" x="127.246094"/>
       <use xlink:href="#DejaVuSans-30" x="190.869141"/>
      </g>
     </g>
    </g>
    <g id="ytick_4">
     <g id="line2d_12">
      <g>
       <use xlink:href="#m13b499ac2c" x="144" y="361.408793" style="stroke: #000000; stroke-width: 0.8"/>
      </g>
     </g>
     <g id="text_12">
      <!-- 8800 -->
      <g transform="translate(111.55 365.208011) scale(0.1 -0.1)">
       <use xlink:href="#DejaVuSans-38"/>
       <use xlink:href="#DejaVuSans-38" x="63.623047"/>
       <use xlink:href="#DejaVuSans-30" x="127.246094"/>
       <use xlink:href="#DejaVuSans-30" x="190.869141"/>
      </g>
     </g>
    </g>
    <g id="ytick_5">
     <g id="line2d_13">
      <g>
       <use xlink:href="#m13b499ac2c" x="144" y="311.476904" style="stroke: #000000; stroke-width: 0.8"/>
      </g>
     </g>
     <g id="text_13">
      <!-- 9000 -->
      <g transform="translate(111.55 315.276123) scale(0.1 -0.1)">
       <defs>
        <path id="DejaVuSans-39" d="M 703 97 
L 703 672 
Q 941 559 1184 500 
Q 1428 441 1663 441 
Q 2288 441 2617 861 
Q 2947 1281 2994 2138 
Q 2813 1869 2534 1725 
Q 2256 1581 1919 1581 
Q 1219 1581 811 2004 
Q 403 2428 403 3163 
Q 403 3881 828 4315 
Q 1253 4750 1959 4750 
Q 2769 4750 3195 4129 
Q 3622 3509 3622 2328 
Q 3622 1225 3098 567 
Q 2575 -91 1691 -91 
Q 1453 -91 1209 -44 
Q 966 3 703 97 
z
M 1959 2075 
Q 2384 2075 2632 2365 
Q 2881 2656 2881 3163 
Q 2881 3666 2632 3958 
Q 2384 4250 1959 4250 
Q 1534 4250 1286 3958 
Q 1038 3666 1038 3163 
Q 1038 2656 1286 2365 
Q 1534 2075 1959 2075 
z
" transform="scale(0.015625)"/>
       </defs>
       <use xlink:href="#DejaVuSans-39"/>
       <use xlink:href="#DejaVuSans-30" x="63.623047"/>
       <use xlink:href="#DejaVuSans-30" x="127.246094"/>
       <use xlink:href="#DejaVuSans-30" x="190.869141"/>
      </g>
     </g>
    </g>
    <g id="ytick_6">
     <g id="line2d_14">
      <g>
       <use xlink:href="#m13b499ac2c" x="144" y="261.545015" style="stroke: #000000; stroke-width: 0.8"/>
      </g>
     </g>
     <g id="text_14">
      <!-- 9200 -->
      <g transform="translate(111.55 265.344234) scale(0.1 -0.1)">
       <use xlink:href="#DejaVuSans-39"/>
       <use xlink:href="#DejaVuSans-32" x="63.623047"/>
       <use xlink:href="#DejaVuSans-30" x="127.246094"/>
       <use xlink:href="#DejaVuSans-30" x="190.869141"/>
      </g>
     </g>
    </g>
    <g id="ytick_7">
     <g id="line2d_15">
      <g>
       <use xlink:href="#m13b499ac2c" x="144" y="211.613127" style="stroke: #000000; stroke-width: 0.8"/>
      </g>
     </g>
     <g id="text_15">
      <!-- 9400 -->
      <g transform="translate(111.55 215.412346) scale(0.1 -0.1)">
       <use xlink:href="#DejaVuSans-39"/>
       <use xlink:href="#DejaVuSans-34" x="63.623047"/>
       <use xlink:href="#DejaVuSans-30" x="127.246094"/>
       <use xlink:href="#DejaVuSans-30" x="190.869141"/>
      </g>
     </g>
    </g>
    <g id="ytick_8">
     <g id="line2d_16">
      <g>
       <use xlink:href="#m13b499ac2c" x="144" y="161.681238" style="stroke: #000000; stroke-width: 0.8"/>
      </g>
     </g>
     <g id="text_16">
      <!-- 9600 -->
      <g transform="translate(111.55 165.480457) scale(0.1 -0.1)">
       <use xlink:href="#DejaVuSans-39"/>
       <use xlink:href="#DejaVuSans-36" x="63.623047"/>
       <use xlink:href="#DejaVuSans-30" x="127.246094"/>
       <use xlink:href="#DejaVuSans-30" x="190.869141"/>
      </g>
     </g>
    </g>
    <g id="ytick_9">
     <g id="line2d_17">
      <g>
       <use xlink:href="#m13b499ac2c" x="144" y="111.74935" style="stroke: #000000; stroke-width: 0.8"/>
      </g>
     </g>
     <g id="text_17">
      <!-- 9800 -->
      <g transform="translate(111.55 115.548569) scale(0.1 -0.1)">
       <use xlink:href="#DejaVuSans-39"/>
       <use xlink:href="#DejaVuSans-38" x="63.623047"/>
       <use xlink:href="#DejaVuSans-30" x="127.246094"/>
       <use xlink:href="#DejaVuSans-30" x="190.869141"/>
      </g>
     </g>
    </g>
   </g>
   <g id="line2d_18">
    <path d="M 184.581818 492.48 
L 199.612121 491.231703 
L 214.642424 487.486811 
L 229.672727 486.737833 
L 244.70303 484.740557 
L 259.733333 482.243963 
L 274.763636 481.744644 
L 289.793939 479.747368 
L 304.824242 478.99839 
L 319.854545 477.999752 
L 334.884848 477.500433 
L 349.915152 476.252136 
L 364.945455 475.253498 
L 379.975758 474.005201 
L 395.006061 472.756904 
L 410.036364 471.258947 
L 425.066667 470.01065 
L 440.09697 468.512693 
L 455.127273 466.765077 
L 470.157576 464.767802 
L 485.187879 463.269845 
L 500.218182 460.523591 
L 515.248485 456.52904 
L 530.278788 450.537214 
L 545.309091 448.789598 
L 560.339394 445.544025 
L 575.369697 442.048793 
L 590.4 433.810031 
L 605.430303 426.070588 
L 620.460606 417.831827 
L 635.490909 409.093746 
L 650.521212 404.350217 
L 665.551515 402.352941 
L 680.581818 398.60805 
L 695.612121 384.377461 
L 710.642424 357.164582 
L 725.672727 345.430588 
L 740.70303 328.703406 
L 755.733333 324.209536 
L 770.763636 316.220433 
L 785.793939 304.985759 
L 800.824242 293.751084 
L 815.854545 279.270836 
L 830.884848 257.800124 
L 845.915152 242.321238 
L 860.945455 239.824644 
L 875.975758 236.828731 
L 891.006061 207.868235 
L 906.036364 186.896842 
L 921.066667 174.913189 
L 936.09697 149.447926 
L 951.127273 119.988111 
L 966.157576 112.248669 
L 981.187879 109.252755 
L 996.218182 89.28 
" clip-path="url(#p9284289efb)" style="fill: none; stroke: #1f77b4; stroke-width: 1.5; stroke-linecap: square"/>
   </g>
   <g id="patch_3">
    <path d="M 144 512.64 
L 144 69.12 
" style="fill: none; stroke: #000000; stroke-width: 0.8; stroke-linejoin: miter; stroke-linecap: square"/>
   </g>
   <g id="patch_4">
    <path d="M 1036.8 512.64 
L 1036.8 69.12 
" style="fill: none; stroke: #000000; stroke-width: 0.8; stroke-linejoin: miter; stroke-linecap: square"/>
   </g>
   <g id="patch_5">
    <path d="M 144 512.64 
L 1036.8 512.64 
" style="fill: none; stroke: #000000; stroke-width: 0.8; stroke-linejoin: miter; stroke-linecap: square"/>
   </g>
   <g id="patch_6">
    <path d="M 144 69.12 
L 1036.8 69.12 
" style="fill: none; stroke: #000000; stroke-width: 0.8; stroke-linejoin: miter; stroke-linecap: square"/>
   </g>
   <g id="text_18">
    <!-- Number of AEDs in the OpenStreetMap database in Poland from 2025-01-01, day by day. As at: 2025-02-24 -->
    <g transform="translate(144 63.12) scale(0.14 -0.14)">
     <defs>
      <path id="DejaVuSans-4e" d="M 628 4666 
L 1478 4666 
L 3547 763 
L 3547 4666 
L 4159 4666 
L 4159 0 
L 3309 0 
L 1241 3903 
L 1241 0 
L 628 0 
L 628 4666 
z
" transform="scale(0.015625)"/>
      <path id="DejaVuSans-75" d="M 544 1381 
L 544 3500 
L 1119 3500 
L 1119 1403 
Q 1119 906 1312 657 
Q 1506 409 1894 409 
Q 2359 409 2629 706 
Q 2900 1003 2900 1516 
L 2900 3500 
L 3475 3500 
L 3475 0 
L 2900 0 
L 2900 538 
Q 2691 219 2414 64 
Q 2138 -91 1772 -91 
Q 1169 -91 856 284 
Q 544 659 544 1381 
z
M 1991 3584 
L 1991 3584 
z
" transform="scale(0.015625)"/>
      <path id="DejaVuSans-6d" d="M 3328 2828 
Q 3544 3216 3844 3400 
Q 4144 3584 4550 3584 
Q 5097 3584 5394 3201 
Q 5691 2819 5691 2113 
L 5691 0 
L 5113 0 
L 5113 2094 
Q 5113 2597 4934 2840 
Q 4756 3084 4391 3084 
Q 3944 3084 3684 2787 
Q 3425 2491 3425 1978 
L 3425 0 
L 2847 0 
L 2847 2094 
Q 2847 2600 2669 2842 
Q 2491 3084 2119 3084 
Q 1678 3084 1418 2786 
Q 1159 2488 1159 1978 
L 1159 0 
L 581 0 
L 581 3500 
L 1159 3500 
L 1159 2956 
Q 1356 3278 1631 3431 
Q 1906 3584 2284 3584 
Q 2666 3584 2933 3390 
Q 3200 3197 3328 2828 
z
" transform="scale(0.015625)"/>
      <path id="DejaVuSans-62" d="M 3116 1747 
Q 3116 2381 2855 2742 
Q 2594 3103 2138 3103 
Q 1681 3103 1420 2742 
Q 1159 2381 1159 1747 
Q 1159 1113 1420 752 
Q 1681 391 2138 391 
Q 2594 391 2855 752 
Q 3116 1113 3116 1747 
z
M 1159 2969 
Q 1341 3281 1617 3432 
Q 1894 3584 2278 3584 
Q 2916 3584 3314 3078 
Q 3713 2572 3713 1747 
Q 3713 922 3314 415 
Q 2916 -91 2278 -91 
Q 1894 -91 1617 61 
Q 1341 213 1159 525 
L 1159 0 
L 581 0 
L 581 4863 
L 1159 4863 
L 1159 2969 
z
" transform="scale(0.015625)"/>
      <path id="DejaVuSans-65" d="M 3597 1894 
L 3597 1613 
L 953 1613 
Q 991 1019 1311 708 
Q 1631 397 2203 397 
Q 2534 397 2845 478 
Q 3156 559 3463 722 
L 3463 178 
Q 3153 47 2828 -22 
Q 2503 -91 2169 -91 
Q 1331 -91 842 396 
Q 353 884 353 1716 
Q 353 2575 817 3079 
Q 1281 3584 2069 3584 
Q 2775 3584 3186 3129 
Q 3597 2675 3597 1894 
z
M 3022 2063 
Q 3016 2534 2758 2815 
Q 2500 3097 2075 3097 
Q 1594 3097 1305 2825 
Q 1016 2553 972 2059 
L 3022 2063 
z
" transform="scale(0.015625)"/>
      <path id="DejaVuSans-72" d="M 2631 2963 
Q 2534 3019 2420 3045 
Q 2306 3072 2169 3072 
Q 1681 3072 1420 2755 
Q 1159 2438 1159 1844 
L 1159 0 
L 581 0 
L 581 3500 
L 1159 3500 
L 1159 2956 
Q 1341 3275 1631 3429 
Q 1922 3584 2338 3584 
Q 2397 3584 2469 3576 
Q 2541 3569 2628 3553 
L 2631 2963 
z
" transform="scale(0.015625)"/>
      <path id="DejaVuSans-20" transform="scale(0.015625)"/>
      <path id="DejaVuSans-6f" d="M 1959 3097 
Q 1497 3097 1228 2736 
Q 959 2375 959 1747 
Q 959 1119 1226 758 
Q 1494 397 1959 397 
Q 2419 397 2687 759 
Q 2956 1122 2956 1747 
Q 2956 2369 2687 2733 
Q 2419 3097 1959 3097 
z
M 1959 3584 
Q 2709 3584 3137 3096 
Q 3566 2609 3566 1747 
Q 3566 888 3137 398 
Q 2709 -91 1959 -91 
Q 1206 -91 779 398 
Q 353 888 353 1747 
Q 353 2609 779 3096 
Q 1206 3584 1959 3584 
z
" transform="scale(0.015625)"/>
      <path id="DejaVuSans-66" d="M 2375 4863 
L 2375 4384 
L 1825 4384 
Q 1516 4384 1395 4259 
Q 1275 4134 1275 3809 
L 1275 3500 
L 2222 3500 
L 2222 3053 
L 1275 3053 
L 1275 0 
L 697 0 
L 697 3053 
L 147 3053 
L 147 3500 
L 697 3500 
L 697 3744 
Q 697 4328 969 4595 
Q 1241 4863 1831 4863 
L 2375 4863 
z
" transform="scale(0.015625)"/>
      <path id="DejaVuSans-41" d="M 2188 4044 
L 1331 1722 
L 3047 1722 
L 2188 4044 
z
M 1831 4666 
L 2547 4666 
L 4325 0 
L 3669 0 
L 3244 1197 
L 1141 1197 
L 716 0 
L 50 0 
L 1831 4666 
z
" transform="scale(0.015625)"/>
      <path id="DejaVuSans-45" d="M 628 4666 
L 3578 4666 
L 3578 4134 
L 1259 4134 
L 1259 2753 
L 3481 2753 
L 3481 2222 
L 1259 2222 
L 1259 531 
L 3634 531 
L 3634 0 
L 628 0 
L 628 4666 
z
" transform="scale(0.015625)"/>
      <path id="DejaVuSans-44" d="M 1259 4147 
L 1259 519 
L 2022 519 
Q 2988 519 3436 956 
Q 3884 1394 3884 2338 
Q 3884 3275 3436 3711 
Q 2988 4147 2022 4147 
L 1259 4147 
z
M 628 4666 
L 1925 4666 
Q 3281 4666 3915 4102 
Q 4550 3538 4550 2338 
Q 4550 1131 3912 565 
Q 3275 0 1925 0 
L 628 0 
L 628 4666 
z
" transform="scale(0.015625)"/>
      <path id="DejaVuSans-73" d="M 2834 3397 
L 2834 2853 
Q 2591 2978 2328 3040 
Q 2066 3103 1784 3103 
Q 1356 3103 1142 2972 
Q 928 2841 928 2578 
Q 928 2378 1081 2264 
Q 1234 2150 1697 2047 
L 1894 2003 
Q 2506 1872 2764 1633 
Q 3022 1394 3022 966 
Q 3022 478 2636 193 
Q 2250 -91 1575 -91 
Q 1294 -91 989 -36 
Q 684 19 347 128 
L 347 722 
Q 666 556 975 473 
Q 1284 391 1588 391 
Q 1994 391 2212 530 
Q 2431 669 2431 922 
Q 2431 1156 2273 1281 
Q 2116 1406 1581 1522 
L 1381 1569 
Q 847 1681 609 1914 
Q 372 2147 372 2553 
Q 372 3047 722 3315 
Q 1072 3584 1716 3584 
Q 2034 3584 2315 3537 
Q 2597 3491 2834 3397 
z
" transform="scale(0.015625)"/>
      <path id="DejaVuSans-69" d="M 603 3500 
L 1178 3500 
L 1178 0 
L 603 0 
L 603 3500 
z
M 603 4863 
L 1178 4863 
L 1178 4134 
L 603 4134 
L 603 4863 
z
" transform="scale(0.015625)"/>
      <path id="DejaVuSans-6e" d="M 3513 2113 
L 3513 0 
L 2938 0 
L 2938 2094 
Q 2938 2591 2744 2837 
Q 2550 3084 2163 3084 
Q 1697 3084 1428 2787 
Q 1159 2491 1159 1978 
L 1159 0 
L 581 0 
L 581 3500 
L 1159 3500 
L 1159 2956 
Q 1366 3272 1645 3428 
Q 1925 3584 2291 3584 
Q 2894 3584 3203 3211 
Q 3513 2838 3513 2113 
z
" transform="scale(0.015625)"/>
      <path id="DejaVuSans-74" d="M 1172 4494 
L 1172 3500 
L 2356 3500 
L 2356 3053 
L 1172 3053 
L 1172 1153 
Q 1172 725 1289 603 
Q 1406 481 1766 481 
L 2356 481 
L 2356 0 
L 1766 0 
Q 1100 0 847 248 
Q 594 497 594 1153 
L 594 3053 
L 172 3053 
L 172 3500 
L 594 3500 
L 594 4494 
L 1172 4494 
z
" transform="scale(0.015625)"/>
      <path id="DejaVuSans-68" d="M 3513 2113 
L 3513 0 
L 2938 0 
L 2938 2094 
Q 2938 2591 2744 2837 
Q 2550 3084 2163 3084 
Q 1697 3084 1428 2787 
Q 1159 2491 1159 1978 
L 1159 0 
L 581 0 
L 581 4863 
L 1159 4863 
L 1159 2956 
Q 1366 3272 1645 3428 
Q 1925 3584 2291 3584 
Q 2894 3584 3203 3211 
Q 3513 2838 3513 2113 
z
" transform="scale(0.015625)"/>
      <path id="DejaVuSans-4f" d="M 2522 4238 
Q 1834 4238 1429 3725 
Q 1025 3213 1025 2328 
Q 1025 1447 1429 934 
Q 1834 422 2522 422 
Q 3209 422 3611 934 
Q 4013 1447 4013 2328 
Q 4013 3213 3611 3725 
Q 3209 4238 2522 4238 
z
M 2522 4750 
Q 3503 4750 4090 4092 
Q 4678 3434 4678 2328 
Q 4678 1225 4090 567 
Q 3503 -91 2522 -91 
Q 1538 -91 948 565 
Q 359 1222 359 2328 
Q 359 3434 948 4092 
Q 1538 4750 2522 4750 
z
" transform="scale(0.015625)"/>
      <path id="DejaVuSans-70" d="M 1159 525 
L 1159 -1331 
L 581 -1331 
L 581 3500 
L 1159 3500 
L 1159 2969 
Q 1341 3281 1617 3432 
Q 1894 3584 2278 3584 
Q 2916 3584 3314 3078 
Q 3713 2572 3713 1747 
Q 3713 922 3314 415 
Q 2916 -91 2278 -91 
Q 1894 -91 1617 61 
Q 1341 213 1159 525 
z
M 3116 1747 
Q 3116 2381 2855 2742 
Q 2594 3103 2138 3103 
Q 1681 3103 1420 2742 
Q 1159 2381 1159 1747 
Q 1159 1113 1420 752 
Q 1681 391 2138 391 
Q 2594 391 2855 752 
Q 3116 1113 3116 1747 
z
" transform="scale(0.015625)"/>
      <path id="DejaVuSans-53" d="M 3425 4513 
L 3425 3897 
Q 3066 4069 2747 4153 
Q 2428 4238 2131 4238 
Q 1616 4238 1336 4038 
Q 1056 3838 1056 3469 
Q 1056 3159 1242 3001 
Q 1428 2844 1947 2747 
L 2328 2669 
Q 3034 2534 3370 2195 
Q 3706 1856 3706 1288 
Q 3706 609 3251 259 
Q 2797 -91 1919 -91 
Q 1588 -91 1214 -16 
Q 841 59 441 206 
L 441 856 
Q 825 641 1194 531 
Q 1563 422 1919 422 
Q 2459 422 2753 634 
Q 3047 847 3047 1241 
Q 3047 1584 2836 1778 
Q 2625 1972 2144 2069 
L 1759 2144 
Q 1053 2284 737 2584 
Q 422 2884 422 3419 
Q 422 4038 858 4394 
Q 1294 4750 2059 4750 
Q 2388 4750 2728 4690 
Q 3069 4631 3425 4513 
z
" transform="scale(0.015625)"/>
      <path id="DejaVuSans-4d" d="M 628 4666 
L 1569 4666 
L 2759 1491 
L 3956 4666 
L 4897 4666 
L 4897 0 
L 4281 0 
L 4281 4097 
L 3078 897 
L 2444 897 
L 1241 4097 
L 1241 0 
L 628 0 
L 628 4666 
z
" transform="scale(0.015625)"/>
      <path id="DejaVuSans-61" d="M 2194 1759 
Q 1497 1759 1228 1600 
Q 959 1441 959 1056 
Q 959 750 1161 570 
Q 1363 391 1709 391 
Q 2188 391 2477 730 
Q 2766 1069 2766 1631 
L 2766 1759 
L 2194 1759 
z
M 3341 1997 
L 3341 0 
L 2766 0 
L 2766 531 
Q 2569 213 2275 61 
Q 1981 -91 1556 -91 
Q 1019 -91 701 211 
Q 384 513 384 1019 
Q 384 1609 779 1909 
Q 1175 2209 1959 2209 
L 2766 2209 
L 2766 2266 
Q 2766 2663 2505 2880 
Q 2244 3097 1772 3097 
Q 1472 3097 1187 3025 
Q 903 2953 641 2809 
L 641 3341 
Q 956 3463 1253 3523 
Q 1550 3584 1831 3584 
Q 2591 3584 2966 3190 
Q 3341 2797 3341 1997 
z
" transform="scale(0.015625)"/>
      <path id="DejaVuSans-64" d="M 2906 2969 
L 2906 4863 
L 3481 4863 
L 3481 0 
L 2906 0 
L 2906 525 
Q 2725 213 2448 61 
Q 2172 -91 1784 -91 
Q 1150 -91 751 415 
Q 353 922 353 1747 
Q 353 2572 751 3078 
Q 1150 3584 1784 3584 
Q 2172 3584 2448 3432 
Q 2725 3281 2906 2969 
z
M 947 1747 
Q 947 1113 1208 752 
Q 1469 391 1925 391 
Q 2381 391 2643 752 
Q 2906 1113 2906 1747 
Q 2906 2381 2643 2742 
Q 2381 3103 1925 3103 
Q 1469 3103 1208 2742 
Q 947 2381 947 1747 
z
" transform="scale(0.015625)"/>
      <path id="DejaVuSans-50" d="M 1259 4147 
L 1259 2394 
L 2053 2394 
Q 2494 2394 2734 2622 
Q 2975 2850 2975 3272 
Q 2975 3691 2734 3919 
Q 2494 4147 2053 4147 
L 1259 4147 
z
M 628 4666 
L 2053 4666 
Q 2838 4666 3239 4311 
Q 3641 3956 3641 3272 
Q 3641 2581 3239 2228 
Q 2838 1875 2053 1875 
L 1259 1875 
L 1259 0 
L 628 0 
L 628 4666 
z
" transform="scale(0.015625)"/>
      <path id="DejaVuSans-6c" d="M 603 4863 
L 1178 4863 
L 1178 0 
L 603 0 
L 603 4863 
z
" transform="scale(0.015625)"/>
      <path id="DejaVuSans-2c" d="M 750 794 
L 1409 794 
L 1409 256 
L 897 -744 
L 494 -744 
L 750 256 
L 750 794 
z
" transform="scale(0.015625)"/>
      <path id="DejaVuSans-79" d="M 2059 -325 
Q 1816 -950 1584 -1140 
Q 1353 -1331 966 -1331 
L 506 -1331 
L 506 -850 
L 844 -850 
Q 1081 -850 1212 -737 
Q 1344 -625 1503 -206 
L 1606 56 
L 191 3500 
L 800 3500 
L 1894 763 
L 2988 3500 
L 3597 3500 
L 2059 -325 
z
" transform="scale(0.015625)"/>
      <path id="DejaVuSans-2e" d="M 684 794 
L 1344 794 
L 1344 0 
L 684 0 
L 684 794 
z
" transform="scale(0.015625)"/>
      <path id="DejaVuSans-3a" d="M 750 794 
L 1409 794 
L 1409 0 
L 750 0 
L 750 794 
z
M 750 3309 
L 1409 3309 
L 1409 2516 
L 750 2516 
L 750 3309 
z
" transform="scale(0.015625)"/>
     </defs>
     <use xlink:href="#DejaVuSans-4e"/>
     <use xlink:href="#DejaVuSans-75" x="74.804688"/>
     <use xlink:href="#DejaVuSans-6d" x="138.183594"/>
     <use xlink:href="#DejaVuSans-62" x="235.595703"/>
     <use xlink:href="#DejaVuSans-65" x="299.072266"/>
     <use xlink:href="#DejaVuSans-72" x="360.595703"/>
     <use xlink:href="#DejaVuSans-20" x="401.708984"/>
     <use xlink:href="#DejaVuSans-6f" x="433.496094"/>
     <use xlink:href="#DejaVuSans-66" x="494.677734"/>
     <use xlink:href="#DejaVuSans-20" x="529.882812"/>
     <use xlink:href="#DejaVuSans-41" x="561.669922"/>
     <use xlink:href="#DejaVuSans-45" x="630.078125"/>
     <use xlink:href="#DejaVuSans-44" x="693.261719"/>
     <use xlink:href="#DejaVuSans-73" x="770.263672"/>
     <use xlink:href="#DejaVuSans-20" x="822.363281"/>
     <use xlink:href="#DejaVuSans-69" x="854.150391"/>
     <use xlink:href="#DejaVuSans-6e" x="881.933594"/>
     <use xlink:href="#DejaVuSans-20" x="945.3125"/>
     <use xlink:href="#DejaVuSans-74" x="977.099609"/>
     <use xlink:href="#DejaVuSans-68" x="1016.308594"/>
     <use xlink:href="#DejaVuSans-65" x="1079.6875"/>
     <use xlink:href="#DejaVuSans-20" x="1141.210938"/>
     <use xlink:href="#DejaVuSans-4f" x="1172.998047"/>
     <use xlink:href="#DejaVuSans-70" x="1251.708984"/>
     <use xlink:href="#DejaVuSans-65" x="1315.185547"/>
     <use xlink:href="#DejaVuSans-6e" x="1376.708984"/>
     <use xlink:href="#DejaVuSans-53" x="1440.087891"/>
     <use xlink:href="#DejaVuSans-74" x="1503.564453"/>
     <use xlink:href="#DejaVuSans-72" x="1542.773438"/>
     <use xlink:href="#DejaVuSans-65" x="1581.636719"/>
     <use xlink:href="#DejaVuSans-65" x="1643.160156"/>
     <use xlink:href="#DejaVuSans-74" x="1704.683594"/>
     <use xlink:href="#DejaVuSans-4d" x="1743.892578"/>
     <use xlink:href="#DejaVuSans-61" x="1830.171875"/>
     <use xlink:href="#DejaVuSans-70" x="1891.451172"/>
     <use xlink:href="#DejaVuSans-20" x="1954.927734"/>
     <use xlink:href="#DejaVuSans-64" x="1986.714844"/>
     <use xlink:href="#DejaVuSans-61" x="2050.191406"/>
     <use xlink:href="#DejaVuSans-74" x="2111.470703"/>
     <use xlink:href="#DejaVuSans-61" x="2150.679688"/>
     <use xlink:href="#DejaVuSans-62" x="2211.958984"/>
     <use xlink:href="#DejaVuSans-61" x="2275.435547"/>
     <use xlink:href="#DejaVuSans-73" x="2336.714844"/>
     <use xlink:href="#DejaVuSans-65" x="2388.814453"/>
     <use xlink:href="#DejaVuSans-20" x="2450.337891"/>
     <use xlink:href="#DejaVuSans-69" x="2482.125"/>
     <use xlink:href="#DejaVuSans-6e" x="2509.908203"/>
     <use xlink:href="#DejaVuSans-20" x="2573.287109"/>
     <use xlink:href="#DejaVuSans-50" x="2605.074219"/>
     <use xlink:href="#DejaVuSans-6f" x="2661.751953"/>
     <use xlink:href="#DejaVuSans-6c" x="2722.933594"/>
     <use xlink:href="#DejaVuSans-61" x="2750.716797"/>
     <use xlink:href="#DejaVuSans-6e" x="2811.996094"/>
     <use xlink:href="#DejaVuSans-64" x="2875.375"/>
     <use xlink:href="#DejaVuSans-20" x="2938.851562"/>
     <use xlink:href="#DejaVuSans-66" x="2970.638672"/>
     <use xlink:href="#DejaVuSans-72" x="3005.84375"/>
     <use xlink:href="#DejaVuSans-6f" x="3044.707031"/>
     <use xlink:href="#DejaVuSans-6d" x="3105.888672"/>
     <use xlink:href="#DejaVuSans-20" x="3203.300781"/>
     <use xlink:href="#DejaVuSans-32" x="3235.087891"/>
     <use xlink:href="#DejaVuSans-30" x="3298.710938"/>
     <use xlink:href="#DejaVuSans-32" x="3362.333984"/>
     <use xlink:href="#DejaVuSans-35" x="3425.957031"/>
     <use xlink:href="#DejaVuSans-2d" x="3489.580078"/>
     <use xlink:href="#DejaVuSans-30" x="3525.664062"/>
     <use xlink:href="#DejaVuSans-31" x="3589.287109"/>
     <use xlink:href="#DejaVuSans-2d" x="3652.910156"/>
     <use xlink:href="#DejaVuSans-30" x="3688.994141"/>
     <use xlink:href="#DejaVuSans-31" x="3752.617188"/>
     <use xlink:href="#DejaVuSans-2c" x="3816.240234"/>
     <use xlink:href="#DejaVuSans-20" x="3848.027344"/>
     <use xlink:href="#DejaVuSans-64" x="3879.814453"/>
     <use xlink:href="#DejaVuSans-61" x="3943.291016"/>
     <use xlink:href="#DejaVuSans-79" x="4004.570312"/>
     <use xlink:href="#DejaVuSans-20" x="4063.75"/>
     <use xlink:href="#DejaVuSans-62" x="4095.537109"/>
     <use xlink:href="#DejaVuSans-79" x="4159.013672"/>
     <use xlink:href="#DejaVuSans-20" x="4218.193359"/>
     <use xlink:href="#DejaVuSans-64" x="4249.980469"/>
     <use xlink:href="#DejaVuSans-61" x="4313.457031"/>
     <use xlink:href="#DejaVuSans-79" x="4374.736328"/>
     <use xlink:href="#DejaVuSans-2e" x="4419.666016"/>
     <use xlink:href="#DejaVuSans-20" x="4451.453125"/>
     <use xlink:href="#DejaVuSans-41" x="4483.240234"/>
     <use xlink:href="#DejaVuSans-73" x="4551.648438"/>
     <use xlink:href="#DejaVuSans-20" x="4603.748047"/>
     <use xlink:href="#DejaVuSans-61" x="4635.535156"/>
     <use xlink:href="#DejaVuSans-74" x="4696.814453"/>
     <use xlink:href="#DejaVuSans-3a" x="4736.023438"/>
     <use xlink:href="#DejaVuSans-20" x="4769.714844"/>
     <use xlink:href="#DejaVuSans-32" x="4801.501953"/>
     <use xlink:href="#DejaVuSans-30" x="4865.125"/>
     <use xlink:href="#DejaVuSans-32" x="4928.748047"/>
     <use xlink:href="#DejaVuSans-35" x="4992.371094"/>
     <use xlink:href="#DejaVuSans-2d" x="5055.994141"/>
     <use xlink:href="#DejaVuSans-30" x="5092.078125"/>
     <use xlink:href="#DejaVuSans-32" x="5155.701172"/>
     <use xlink:href="#DejaVuSans-2d" x="5219.324219"/>
     <use xlink:href="#DejaVuSans-32" x="5255.408203"/>
     <use xlink:href="#DejaVuSans-34" x="5319.03125"/>
    </g>
   </g>
  </g>
 </g>
 <defs>
  <clipPath id="p9284289efb">
   <rect x="144" y="69.12" width="892.8" height="443.52"/>
  </clipPath>
 </defs>
</svg>
