<?xml version="1.0" encoding="utf-8" standalone="no"?>
<!DOCTYPE svg PUBLIC "-//W3C//DTD SVG 1.1//EN"
  "http://www.w3.org/Graphics/SVG/1.1/DTD/svg11.dtd">
<svg xmlns:xlink="http://www.w3.org/1999/xlink" width="1152pt" height="576pt" viewBox="0 0 1152 576" xmlns="http://www.w3.org/2000/svg" version="1.1">
 <metadata>
  <rdf:RDF xmlns:dc="http://purl.org/dc/elements/1.1/" xmlns:cc="http://creativecommons.org/ns#" xmlns:rdf="http://www.w3.org/1999/02/22-rdf-syntax-ns#">
   <cc:Work>
    <dc:type rdf:resource="http://purl.org/dc/dcmitype/StillImage"/>
    <dc:date>1980-01-01T00:00:00+00:00</dc:date>
    <dc:format>image/svg+xml</dc:format>
    <dc:creator>
     <cc:Agent>
      <dc:title>Matplotlib v3.9.1, https://matplotlib.org/</dc:title>
     </cc:Agent>
    </dc:creator>
   </cc:Work>
  </rdf:RDF>
 </metadata>
 <defs>
  <style type="text/css">*{stroke-linejoin: round; stroke-linecap: butt}</style>
 </defs>
 <g id="figure_1">
  <g id="patch_1">
   <path d="M 0 576 
L 1152 576 
L 1152 0 
L 0 0 
z
" style="fill: #ffffff"/>
  </g>
  <g id="axes_1">
   <g id="patch_2">
    <path d="M 144 512.64 
L 1036.8 512.64 
L 1036.8 69.12 
L 144 69.12 
z
" style="fill: #ffffff"/>
   </g>
   <g id="PathCollection_1">
    <path d="M 184.581818 496.352983 
C 185.608945 496.352983 186.594142 495.944901 187.320431 495.218613 
C 188.04672 494.492324 188.454802 493.507127 188.454802 492.48 
C 188.454802 491.452873 188.04672 490.467676 187.320431 489.741387 
C 186.594142 489.015099 185.608945 488.607017 184.581818 488.607017 
C 183.554691 488.607017 182.569494 489.015099 181.843205 489.741387 
C 181.116917 490.467676 180.708835 491.452873 180.708835 492.48 
C 180.708835 493.507127 181.116917 494.492324 181.843205 495.218613 
C 182.569494 495.944901 183.554691 496.352983 184.581818 496.352983 
z
" clip-path="url(#p8f47d764d1)" style="fill: #1f77b4; fill-opacity: 0.3; stroke: #1f77b4; stroke-opacity: 0.3"/>
    <path d="M 193.309091 495.879312 
C 195.038004 495.879312 196.696337 495.192407 197.918863 493.969881 
C 199.141389 492.747356 199.828293 491.089022 199.828293 489.360109 
C 199.828293 487.631197 199.141389 485.972863 197.918863 484.750337 
C 196.696337 483.527811 195.038004 482.840907 193.309091 482.840907 
C 191.580178 482.840907 189.921845 483.527811 188.699319 484.750337 
C 187.476793 485.972863 186.789889 487.631197 186.789889 489.360109 
C 186.789889 491.089022 187.476793 492.747356 188.699319 493.969881 
C 189.921845 495.192407 191.580178 495.879312 193.309091 495.879312 
z
" clip-path="url(#p8f47d764d1)" style="fill: #1f77b4; fill-opacity: 0.3; stroke: #1f77b4; stroke-opacity: 0.3"/>
    <path d="M 202.036364 492.588066 
C 204.255212 492.588066 206.383481 491.706508 207.952443 490.137545 
C 209.521406 488.568583 210.402964 486.440314 210.402964 484.221466 
C 210.402964 482.002617 209.521406 479.874349 207.952443 478.305386 
C 206.383481 476.736423 204.255212 475.854865 202.036364 475.854865 
C 199.817515 475.854865 197.689247 476.736423 196.120284 478.305386 
C 194.551321 479.874349 193.669763 482.002617 193.669763 484.221466 
C 193.669763 486.440314 194.551321 488.568583 196.120284 490.137545 
C 197.689247 491.706508 199.817515 492.588066 202.036364 492.588066 
z
" clip-path="url(#p8f47d764d1)" style="fill: #1f77b4; fill-opacity: 0.3; stroke: #1f77b4; stroke-opacity: 0.3"/>
    <path d="M 210.763636 487.446757 
C 212.154373 487.446757 213.488336 486.894211 214.471736 485.910812 
C 215.455135 484.927413 216.007681 483.59345 216.007681 482.202713 
C 216.007681 480.811976 215.455135 479.478013 214.471736 478.494614 
C 213.488336 477.511214 212.154373 476.958669 210.763636 476.958669 
C 209.3729 476.958669 208.038937 477.511214 207.055537 478.494614 
C 206.072138 479.478013 205.519592 480.811976 205.519592 482.202713 
C 205.519592 483.59345 206.072138 484.927413 207.055537 485.910812 
C 208.038937 486.894211 209.3729 487.446757 210.763636 487.446757 
z
" clip-path="url(#p8f47d764d1)" style="fill: #1f77b4; fill-opacity: 0.3; stroke: #1f77b4; stroke-opacity: 0.3"/>
    <path d="M 219.490909 484.820632 
C 220.428544 484.820632 221.327901 484.448106 221.990909 483.785098 
C 222.653917 483.12209 223.026443 482.222732 223.026443 481.285098 
C 223.026443 480.347463 222.653917 479.448106 221.990909 478.785098 
C 221.327901 478.12209 220.428544 477.749564 219.490909 477.749564 
C 218.553275 477.749564 217.653917 478.12209 216.990909 478.785098 
C 216.327901 479.448106 215.955375 480.347463 215.955375 481.285098 
C 215.955375 482.222732 216.327901 483.12209 216.990909 483.785098 
C 217.653917 484.448106 218.553275 484.820632 219.490909 484.820632 
z
" clip-path="url(#p8f47d764d1)" style="fill: #1f77b4; fill-opacity: 0.3; stroke: #1f77b4; stroke-opacity: 0.3"/>
    <path d="M 228.218182 484.68441 
C 229.947095 484.68441 231.605428 483.997505 232.827954 482.774979 
C 234.05048 481.552453 234.737384 479.89412 234.737384 478.165207 
C 234.737384 476.436294 234.05048 474.777961 232.827954 473.555435 
C 231.605428 472.332909 229.947095 471.646005 228.218182 471.646005 
C 226.489269 471.646005 224.830935 472.332909 223.60841 473.555435 
C 222.385884 474.777961 221.698979 476.436294 221.698979 478.165207 
C 221.698979 479.89412 222.385884 481.552453 223.60841 482.774979 
C 224.830935 483.997505 226.489269 484.68441 228.218182 484.68441 
z
" clip-path="url(#p8f47d764d1)" style="fill: #1f77b4; fill-opacity: 0.3; stroke: #1f77b4; stroke-opacity: 0.3"/>
    <path d="M 236.945455 481.536087 
C 238.569485 481.536087 240.127218 480.890852 241.275582 479.742489 
C 242.423945 478.594126 243.069179 477.036393 243.069179 475.412362 
C 243.069179 473.788332 242.423945 472.230598 241.275582 471.082235 
C 240.127218 469.933872 238.569485 469.288638 236.945455 469.288638 
C 235.321424 469.288638 233.763691 469.933872 232.615328 471.082235 
C 231.466964 472.230598 230.82173 473.788332 230.82173 475.412362 
C 230.82173 477.036393 231.466964 478.594126 232.615328 479.742489 
C 233.763691 480.890852 235.321424 481.536087 236.945455 481.536087 
z
" clip-path="url(#p8f47d764d1)" style="fill: #1f77b4; fill-opacity: 0.3; stroke: #1f77b4; stroke-opacity: 0.3"/>
    <path d="M 245.672727 478.129175 
C 248.291398 478.129175 250.803167 477.088766 252.654847 475.237086 
C 254.506527 473.385406 255.546936 470.873637 255.546936 468.254966 
C 255.546936 465.636295 254.506527 463.124526 252.654847 461.272846 
C 250.803167 459.421166 248.291398 458.380757 245.672727 458.380757 
C 243.054056 458.380757 240.542287 459.421166 238.690607 461.272846 
C 236.838927 463.124526 235.798518 465.636295 235.798518 468.254966 
C 235.798518 470.873637 236.838927 473.385406 238.690607 475.237086 
C 240.542287 477.088766 243.054056 478.129175 245.672727 478.129175 
z
" clip-path="url(#p8f47d764d1)" style="fill: #1f77b4; fill-opacity: 0.3; stroke: #1f77b4; stroke-opacity: 0.3"/>
    <path d="M 254.4 471.660054 
C 256.227786 471.660054 257.980957 470.933866 259.273397 469.641426 
C 260.565837 468.348986 261.292024 466.595815 261.292024 464.768029 
C 261.292024 462.940243 260.565837 461.187072 259.273397 459.894632 
C 257.980957 458.602192 256.227786 457.876005 254.4 457.876005 
C 252.572214 457.876005 250.819043 458.602192 249.526603 459.894632 
C 248.234163 461.187072 247.507976 462.940243 247.507976 464.768029 
C 247.507976 466.595815 248.234163 468.348986 249.526603 469.641426 
C 250.819043 470.933866 252.572214 471.660054 254.4 471.660054 
z
" clip-path="url(#p8f47d764d1)" style="fill: #1f77b4; fill-opacity: 0.3; stroke: #1f77b4; stroke-opacity: 0.3"/>
    <path d="M 263.127273 467.859739 
C 264.385241 467.859739 265.591856 467.359942 266.481375 466.470424 
C 267.370893 465.580906 267.870689 464.374291 267.870689 463.116322 
C 267.870689 461.858353 267.370893 460.651739 266.481375 459.76222 
C 265.591856 458.872702 264.385241 458.372906 263.127273 458.372906 
C 261.869304 458.372906 260.662689 458.872702 259.773171 459.76222 
C 258.883653 460.651739 258.383856 461.858353 258.383856 463.116322 
C 258.383856 464.374291 258.883653 465.580906 259.773171 466.470424 
C 260.662689 467.359942 261.869304 467.859739 263.127273 467.859739 
z
" clip-path="url(#p8f47d764d1)" style="fill: #1f77b4; fill-opacity: 0.3; stroke: #1f77b4; stroke-opacity: 0.3"/>
    <path d="M 271.854545 464.985344 
C 272.447558 464.985344 273.016361 464.749738 273.435684 464.330415 
C 273.855007 463.911092 274.090613 463.342288 274.090613 462.749276 
C 274.090613 462.156264 273.855007 461.58746 273.435684 461.168137 
C 273.016361 460.748815 272.447558 460.513208 271.854545 460.513208 
C 271.261533 460.513208 270.69273 460.748815 270.273407 461.168137 
C 269.854084 461.58746 269.618477 462.156264 269.618477 462.749276 
C 269.618477 463.342288 269.854084 463.911092 270.273407 464.330415 
C 270.69273 464.749738 271.261533 464.985344 271.854545 464.985344 
z
" clip-path="url(#p8f47d764d1)" style="fill: #1f77b4; fill-opacity: 0.3; stroke: #1f77b4; stroke-opacity: 0.3"/>
    <path d="M 280.581818 465.522197 
C 283.166698 465.522197 285.646056 464.495213 287.473843 462.667427 
C 289.301629 460.839641 290.328613 458.360283 290.328613 455.775403 
C 290.328613 453.190523 289.301629 450.711165 287.473843 448.883378 
C 285.646056 447.055592 283.166698 446.028608 280.581818 446.028608 
C 277.996938 446.028608 275.51758 447.055592 273.689794 448.883378 
C 271.862008 450.711165 270.835024 453.190523 270.835024 455.775403 
C 270.835024 458.360283 271.862008 460.839641 273.689794 462.667427 
C 275.51758 464.495213 277.996938 465.522197 280.581818 465.522197 
z
" clip-path="url(#p8f47d764d1)" style="fill: #1f77b4; fill-opacity: 0.3; stroke: #1f77b4; stroke-opacity: 0.3"/>
    <path d="M 289.309091 459.093022 
C 291.405706 459.093022 293.41673 458.260029 294.899261 456.777498 
C 296.381791 455.294968 297.214785 453.283943 297.214785 451.187328 
C 297.214785 449.090714 296.381791 447.079689 294.899261 445.597158 
C 293.41673 444.114628 291.405706 443.281634 289.309091 443.281634 
C 287.212476 443.281634 285.201451 444.114628 283.718921 445.597158 
C 282.236391 447.079689 281.403397 449.090714 281.403397 451.187328 
C 281.403397 453.283943 282.236391 455.294968 283.718921 456.777498 
C 285.201451 458.260029 287.212476 459.093022 289.309091 459.093022 
z
" clip-path="url(#p8f47d764d1)" style="fill: #1f77b4; fill-opacity: 0.3; stroke: #1f77b4; stroke-opacity: 0.3"/>
    <path d="M 298.036364 454.502406 
C 299.548254 454.502406 300.998425 453.901726 302.067493 452.832658 
C 303.13656 451.76359 303.737241 450.31342 303.737241 448.801529 
C 303.737241 447.289639 303.13656 445.839468 302.067493 444.7704 
C 300.998425 443.701333 299.548254 443.100652 298.036364 443.100652 
C 296.524473 443.100652 295.074303 443.701333 294.005235 444.7704 
C 292.936167 445.839468 292.335487 447.289639 292.335487 448.801529 
C 292.335487 450.31342 292.936167 451.76359 294.005235 452.832658 
C 295.074303 453.901726 296.524473 454.502406 298.036364 454.502406 
z
" clip-path="url(#p8f47d764d1)" style="fill: #1f77b4; fill-opacity: 0.3; stroke: #1f77b4; stroke-opacity: 0.3"/>
    <path d="M 306.763636 451.915725 
C 309.098328 451.915725 311.33771 450.988143 312.988586 449.337267 
C 314.639462 447.686391 315.567045 445.447008 315.567045 443.112317 
C 315.567045 440.777626 314.639462 438.538243 312.988586 436.887367 
C 311.33771 435.236491 309.098328 434.308908 306.763636 434.308908 
C 304.428945 434.308908 302.189563 435.236491 300.538687 436.887367 
C 298.887811 438.538243 297.960228 440.777626 297.960228 443.112317 
C 297.960228 445.447008 298.887811 447.686391 300.538687 449.337267 
C 302.189563 450.988143 304.428945 451.915725 306.763636 451.915725 
z
" clip-path="url(#p8f47d764d1)" style="fill: #1f77b4; fill-opacity: 0.3; stroke: #1f77b4; stroke-opacity: 0.3"/>
    <path d="M 315.490909 445.589049 
C 318.240593 445.589049 320.878028 444.496588 322.822348 442.552268 
C 324.766669 440.607947 325.85913 437.970513 325.85913 435.220828 
C 325.85913 432.471144 324.766669 429.83371 322.822348 427.889389 
C 320.878028 425.945069 318.240593 424.852608 315.490909 424.852608 
C 312.741225 424.852608 310.10379 425.945069 308.15947 427.889389 
C 306.21515 429.83371 305.122688 432.471144 305.122688 435.220828 
C 305.122688 437.970513 306.21515 440.607947 308.15947 442.552268 
C 310.10379 444.496588 312.741225 445.589049 315.490909 445.589049 
z
" clip-path="url(#p8f47d764d1)" style="fill: #1f77b4; fill-opacity: 0.3; stroke: #1f77b4; stroke-opacity: 0.3"/>
    <path d="M 324.218182 437.649014 
C 325.056828 437.649014 325.861238 437.315817 326.45425 436.722804 
C 327.047262 436.129792 327.380459 435.325382 327.380459 434.486736 
C 327.380459 433.648091 327.047262 432.843681 326.45425 432.250668 
C 325.861238 431.657656 325.056828 431.324459 324.218182 431.324459 
C 323.379536 431.324459 322.575126 431.657656 321.982114 432.250668 
C 321.389102 432.843681 321.055904 433.648091 321.055904 434.486736 
C 321.055904 435.325382 321.389102 436.129792 321.982114 436.722804 
C 322.575126 437.315817 323.379536 437.649014 324.218182 437.649014 
z
" clip-path="url(#p8f47d764d1)" style="fill: #1f77b4; fill-opacity: 0.3; stroke: #1f77b4; stroke-opacity: 0.3"/>
    <path d="M 332.945455 437.651507 
C 334.27147 437.651507 335.543354 437.124675 336.480988 436.187041 
C 337.418623 435.249406 337.945455 433.977522 337.945455 432.651507 
C 337.945455 431.325491 337.418623 430.053607 336.480988 429.115973 
C 335.543354 428.178338 334.27147 427.651507 332.945455 427.651507 
C 331.619439 427.651507 330.347555 428.178338 329.409921 429.115973 
C 328.472286 430.053607 327.945455 431.325491 327.945455 432.651507 
C 327.945455 433.977522 328.472286 435.249406 329.409921 436.187041 
C 330.347555 437.124675 331.619439 437.651507 332.945455 437.651507 
z
" clip-path="url(#p8f47d764d1)" style="fill: #1f77b4; fill-opacity: 0.3; stroke: #1f77b4; stroke-opacity: 0.3"/>
    <path d="M 341.672727 435.912224 
C 343.851593 435.912224 345.941512 435.046552 347.482202 433.505861 
C 349.022893 431.96517 349.888566 429.875252 349.888566 427.696386 
C 349.888566 425.51752 349.022893 423.427602 347.482202 421.886911 
C 345.941512 420.34622 343.851593 419.480548 341.672727 419.480548 
C 339.493861 419.480548 337.403943 420.34622 335.863252 421.886911 
C 334.322561 423.427602 333.456889 425.51752 333.456889 427.696386 
C 333.456889 429.875252 334.322561 431.96517 335.863252 433.505861 
C 337.403943 435.046552 339.493861 435.912224 341.672727 435.912224 
z
" clip-path="url(#p8f47d764d1)" style="fill: #1f77b4; fill-opacity: 0.3; stroke: #1f77b4; stroke-opacity: 0.3"/>
    <path d="M 350.4 430.971336 
C 351.852577 430.971336 353.245856 430.394221 354.272983 429.367093 
C 355.300111 428.339966 355.877226 426.946687 355.877226 425.49411 
C 355.877226 424.041533 355.300111 422.648254 354.272983 421.621127 
C 353.245856 420.594 351.852577 420.016885 350.4 420.016885 
C 348.947423 420.016885 347.554144 420.594 346.527017 421.621127 
C 345.499889 422.648254 344.922774 424.041533 344.922774 425.49411 
C 344.922774 426.946687 345.499889 428.339966 346.527017 429.367093 
C 347.554144 430.394221 348.947423 430.971336 350.4 430.971336 
z
" clip-path="url(#p8f47d764d1)" style="fill: #1f77b4; fill-opacity: 0.3; stroke: #1f77b4; stroke-opacity: 0.3"/>
    <path d="M 359.127273 427.498301 
C 362.092334 427.498301 364.936352 426.32027 367.032967 424.223655 
C 369.129581 422.12704 370.307613 419.283022 370.307613 416.317961 
C 370.307613 413.3529 369.129581 410.508881 367.032967 408.412267 
C 364.936352 406.315652 362.092334 405.137621 359.127273 405.137621 
C 356.162212 405.137621 353.318193 406.315652 351.221579 408.412267 
C 349.124964 410.508881 347.946933 413.3529 347.946933 416.317961 
C 347.946933 419.283022 349.124964 422.12704 351.221579 424.223655 
C 353.318193 426.32027 356.162212 427.498301 359.127273 427.498301 
z
" clip-path="url(#p8f47d764d1)" style="fill: #1f77b4; fill-opacity: 0.3; stroke: #1f77b4; stroke-opacity: 0.3"/>
    <path d="M 367.854545 419.608621 
C 369.992681 419.608621 372.043532 418.759131 373.555423 417.24724 
C 375.067313 415.73535 375.916803 413.684499 375.916803 411.546363 
C 375.916803 409.408227 375.067313 407.357376 373.555423 405.845486 
C 372.043532 404.333596 369.992681 403.484105 367.854545 403.484105 
C 365.71641 403.484105 363.665559 404.333596 362.153668 405.845486 
C 360.641778 407.357376 359.792288 409.408227 359.792288 411.546363 
C 359.792288 413.684499 360.641778 415.73535 362.153668 417.24724 
C 363.665559 418.759131 365.71641 419.608621 367.854545 419.608621 
z
" clip-path="url(#p8f47d764d1)" style="fill: #1f77b4; fill-opacity: 0.3; stroke: #1f77b4; stroke-opacity: 0.3"/>
    <path d="M 376.581818 414.887778 
C 378.636073 414.887778 380.606467 414.071614 382.059044 412.619037 
C 383.511621 411.16646 384.327785 409.196066 384.327785 407.141812 
C 384.327785 405.087557 383.511621 403.117163 382.059044 401.664586 
C 380.606467 400.212009 378.636073 399.395845 376.581818 399.395845 
C 374.527564 399.395845 372.55717 400.212009 371.104593 401.664586 
C 369.652015 403.117163 368.835851 405.087557 368.835851 407.141812 
C 368.835851 409.196066 369.652015 411.16646 371.104593 412.619037 
C 372.55717 414.071614 374.527564 414.887778 376.581818 414.887778 
z
" clip-path="url(#p8f47d764d1)" style="fill: #1f77b4; fill-opacity: 0.3; stroke: #1f77b4; stroke-opacity: 0.3"/>
    <path d="M 385.309091 410.334338 
C 387.567214 410.334338 389.733154 409.437176 391.329888 407.840442 
C 392.926622 406.243708 393.823784 404.077768 393.823784 401.819645 
C 393.823784 399.561522 392.926622 397.395582 391.329888 395.798848 
C 389.733154 394.202114 387.567214 393.304952 385.309091 393.304952 
C 383.050968 393.304952 380.885028 394.202114 379.288294 395.798848 
C 377.69156 397.395582 376.794398 399.561522 376.794398 401.819645 
C 376.794398 404.077768 377.69156 406.243708 379.288294 407.840442 
C 380.885028 409.437176 383.050968 410.334338 385.309091 410.334338 
z
" clip-path="url(#p8f47d764d1)" style="fill: #1f77b4; fill-opacity: 0.3; stroke: #1f77b4; stroke-opacity: 0.3"/>
    <path d="M 394.036364 404.247831 
C 394.875009 404.247831 395.679419 403.914633 396.272432 403.321621 
C 396.865444 402.728609 397.198641 401.924199 397.198641 401.085553 
C 397.198641 400.246907 396.865444 399.442497 396.272432 398.849485 
C 395.679419 398.256473 394.875009 397.923275 394.036364 397.923275 
C 393.197718 397.923275 392.393308 398.256473 391.800296 398.849485 
C 391.207283 399.442497 390.874086 400.246907 390.874086 401.085553 
C 390.874086 401.924199 391.207283 402.728609 391.800296 403.321621 
C 392.393308 403.914633 393.197718 404.247831 394.036364 404.247831 
z
" clip-path="url(#p8f47d764d1)" style="fill: #1f77b4; fill-opacity: 0.3; stroke: #1f77b4; stroke-opacity: 0.3"/>
    <path d="M 402.763636 403.513739 
C 403.602282 403.513739 404.406692 403.180541 404.999704 402.587529 
C 405.592717 401.994517 405.925914 401.190107 405.925914 400.351461 
C 405.925914 399.512815 405.592717 398.708405 404.999704 398.115393 
C 404.406692 397.522381 403.602282 397.189183 402.763636 397.189183 
C 401.924991 397.189183 401.120581 397.522381 400.527568 398.115393 
C 399.934556 398.708405 399.601359 399.512815 399.601359 400.351461 
C 399.601359 401.190107 399.934556 401.994517 400.527568 402.587529 
C 401.120581 403.180541 401.924991 403.513739 402.763636 403.513739 
z
" clip-path="url(#p8f47d764d1)" style="fill: #1f77b4; fill-opacity: 0.3; stroke: #1f77b4; stroke-opacity: 0.3"/>
    <path d="M 411.490909 403.231467 
C 414.006847 403.231467 416.420077 402.231874 418.199113 400.452838 
C 419.97815 398.673801 420.977742 396.260571 420.977742 393.744634 
C 420.977742 391.228696 419.97815 388.815466 418.199113 387.03643 
C 416.420077 385.257393 414.006847 384.257801 411.490909 384.257801 
C 408.974972 384.257801 406.561742 385.257393 404.782705 387.03643 
C 403.003669 388.815466 402.004076 391.228696 402.004076 393.744634 
C 402.004076 396.260571 403.003669 398.673801 404.782705 400.452838 
C 406.561742 402.231874 408.974972 403.231467 411.490909 403.231467 
z
" clip-path="url(#p8f47d764d1)" style="fill: #1f77b4; fill-opacity: 0.3; stroke: #1f77b4; stroke-opacity: 0.3"/>
    <path d="M 420.218182 395.748824 
C 423.183243 395.748824 426.027261 394.570793 428.123876 392.474178 
C 430.220491 390.377564 431.398522 387.533545 431.398522 384.568484 
C 431.398522 381.603423 430.220491 378.759405 428.123876 376.66279 
C 426.027261 374.566176 423.183243 373.388144 420.218182 373.388144 
C 417.253121 373.388144 414.409102 374.566176 412.312488 376.66279 
C 410.215873 378.759405 409.037842 381.603423 409.037842 384.568484 
C 409.037842 387.533545 410.215873 390.377564 412.312488 392.474178 
C 414.409102 394.570793 417.253121 395.748824 420.218182 395.748824 
z
" clip-path="url(#p8f47d764d1)" style="fill: #1f77b4; fill-opacity: 0.3; stroke: #1f77b4; stroke-opacity: 0.3"/>
    <path d="M 428.945455 387.640021 
C 431.317503 387.640021 433.592718 386.697596 435.27001 385.020304 
C 436.947302 383.343012 437.889726 381.067797 437.889726 378.695749 
C 437.889726 376.3237 436.947302 374.048485 435.27001 372.371193 
C 433.592718 370.693902 431.317503 369.751477 428.945455 369.751477 
C 426.573406 369.751477 424.298191 370.693902 422.620899 372.371193 
C 420.943608 374.048485 420.001183 376.3237 420.001183 378.695749 
C 420.001183 381.067797 420.943608 383.343012 422.620899 385.020304 
C 424.298191 386.697596 426.573406 387.640021 428.945455 387.640021 
z
" clip-path="url(#p8f47d764d1)" style="fill: #1f77b4; fill-opacity: 0.3; stroke: #1f77b4; stroke-opacity: 0.3"/>
    <path d="M 437.672727 381.956466 
C 439.851593 381.956466 441.941512 381.090794 443.482202 379.550103 
C 445.022893 378.009412 445.888566 375.919494 445.888566 373.740628 
C 445.888566 371.561762 445.022893 369.471844 443.482202 367.931153 
C 441.941512 366.390462 439.851593 365.52479 437.672727 365.52479 
C 435.493861 365.52479 433.403943 366.390462 431.863252 367.931153 
C 430.322561 369.471844 429.456889 371.561762 429.456889 373.740628 
C 429.456889 375.919494 430.322561 378.009412 431.863252 379.550103 
C 433.403943 381.090794 435.493861 381.956466 437.672727 381.956466 
z
" clip-path="url(#p8f47d764d1)" style="fill: #1f77b4; fill-opacity: 0.3; stroke: #1f77b4; stroke-opacity: 0.3"/>
    <path d="M 446.4 376.168814 
C 447.238646 376.168814 448.043056 375.835616 448.636068 375.242604 
C 449.22908 374.649592 449.562278 373.845182 449.562278 373.006536 
C 449.562278 372.16789 449.22908 371.36348 448.636068 370.770468 
C 448.043056 370.177456 447.238646 369.844259 446.4 369.844259 
C 445.561354 369.844259 444.756944 370.177456 444.163932 370.770468 
C 443.57092 371.36348 443.237722 372.16789 443.237722 373.006536 
C 443.237722 373.845182 443.57092 374.649592 444.163932 375.242604 
C 444.756944 375.835616 445.561354 376.168814 446.4 376.168814 
z
" clip-path="url(#p8f47d764d1)" style="fill: #1f77b4; fill-opacity: 0.3; stroke: #1f77b4; stroke-opacity: 0.3"/>
    <path d="M 455.127273 376.231828 
C 456.51801 376.231828 457.851973 375.679282 458.835372 374.695883 
C 459.818771 373.712483 460.371317 372.37852 460.371317 370.987783 
C 460.371317 369.597047 459.818771 368.263084 458.835372 367.279684 
C 457.851973 366.296285 456.51801 365.743739 455.127273 365.743739 
C 453.736536 365.743739 452.402573 366.296285 451.419173 367.279684 
C 450.435774 368.263084 449.883228 369.597047 449.883228 370.987783 
C 449.883228 372.37852 450.435774 373.712483 451.419173 374.695883 
C 452.402573 375.679282 453.736536 376.231828 455.127273 376.231828 
z
" clip-path="url(#p8f47d764d1)" style="fill: #1f77b4; fill-opacity: 0.3; stroke: #1f77b4; stroke-opacity: 0.3"/>
    <path d="M 463.854545 374.388391 
C 465.729815 374.388391 467.52853 373.643339 468.854545 372.317324 
C 470.180561 370.991308 470.925613 369.192593 470.925613 367.317324 
C 470.925613 365.442055 470.180561 363.643339 468.854545 362.317324 
C 467.52853 360.991308 465.729815 360.246256 463.854545 360.246256 
C 461.979276 360.246256 460.180561 360.991308 458.854545 362.317324 
C 457.52853 363.643339 456.783478 365.442055 456.783478 367.317324 
C 456.783478 369.192593 457.52853 370.991308 458.854545 372.317324 
C 460.180561 373.643339 461.979276 374.388391 463.854545 374.388391 
z
" clip-path="url(#p8f47d764d1)" style="fill: #1f77b4; fill-opacity: 0.3; stroke: #1f77b4; stroke-opacity: 0.3"/>
    <path d="M 472.581818 370.658739 
C 474.636073 370.658739 476.606467 369.842575 478.059044 368.389998 
C 479.511621 366.93742 480.327785 364.967026 480.327785 362.912772 
C 480.327785 360.858518 479.511621 358.888124 478.059044 357.435546 
C 476.606467 355.982969 474.636073 355.166805 472.581818 355.166805 
C 470.527564 355.166805 468.55717 355.982969 467.104593 357.435546 
C 465.652015 358.888124 464.835851 360.858518 464.835851 362.912772 
C 464.835851 364.967026 465.652015 366.93742 467.104593 368.389998 
C 468.55717 369.842575 470.527564 370.658739 472.581818 370.658739 
z
" clip-path="url(#p8f47d764d1)" style="fill: #1f77b4; fill-opacity: 0.3; stroke: #1f77b4; stroke-opacity: 0.3"/>
    <path d="M 481.309091 365.916724 
C 482.495115 365.916724 483.632723 365.445512 484.471369 364.606866 
C 485.310014 363.76822 485.781227 362.630612 485.781227 361.444588 
C 485.781227 360.258564 485.310014 359.120956 484.471369 358.28231 
C 483.632723 357.443665 482.495115 356.972452 481.309091 356.972452 
C 480.123067 356.972452 478.985459 357.443665 478.146813 358.28231 
C 477.308167 359.120956 476.836955 360.258564 476.836955 361.444588 
C 476.836955 362.630612 477.308167 363.76822 478.146813 364.606866 
C 478.985459 365.445512 480.123067 365.916724 481.309091 365.916724 
z
" clip-path="url(#p8f47d764d1)" style="fill: #1f77b4; fill-opacity: 0.3; stroke: #1f77b4; stroke-opacity: 0.3"/>
    <path d="M 490.036364 364.672545 
C 492.255212 364.672545 494.383481 363.790987 495.952443 362.222024 
C 497.521406 360.653062 498.402964 358.524793 498.402964 356.305944 
C 498.402964 354.087096 497.521406 351.958827 495.952443 350.389865 
C 494.383481 348.820902 492.255212 347.939344 490.036364 347.939344 
C 487.817515 347.939344 485.689247 348.820902 484.120284 350.389865 
C 482.551321 351.958827 481.669763 354.087096 481.669763 356.305944 
C 481.669763 358.524793 482.551321 360.653062 484.120284 362.222024 
C 485.689247 363.790987 487.817515 364.672545 490.036364 364.672545 
z
" clip-path="url(#p8f47d764d1)" style="fill: #1f77b4; fill-opacity: 0.3; stroke: #1f77b4; stroke-opacity: 0.3"/>
    <path d="M 498.763636 359.705256 
C 500.492549 359.705256 502.150883 359.018352 503.373409 357.795826 
C 504.595934 356.5733 505.282839 354.914966 505.282839 353.186054 
C 505.282839 351.457141 504.595934 349.798807 503.373409 348.576281 
C 502.150883 347.353756 500.492549 346.666851 498.763636 346.666851 
C 497.034724 346.666851 495.37639 347.353756 494.153864 348.576281 
C 492.931338 349.798807 492.244434 351.457141 492.244434 353.186054 
C 492.244434 354.914966 492.931338 356.5733 494.153864 357.795826 
C 495.37639 359.018352 497.034724 359.705256 498.763636 359.705256 
z
" clip-path="url(#p8f47d764d1)" style="fill: #1f77b4; fill-opacity: 0.3; stroke: #1f77b4; stroke-opacity: 0.3"/>
    <path d="M 507.490909 356.411345 
C 508.881646 356.411345 510.215609 355.8588 511.199008 354.8754 
C 512.182408 353.892001 512.734953 352.558038 512.734953 351.167301 
C 512.734953 349.776564 512.182408 348.442601 511.199008 347.459202 
C 510.215609 346.475802 508.881646 345.923257 507.490909 345.923257 
C 506.100172 345.923257 504.766209 346.475802 503.78281 347.459202 
C 502.79941 348.442601 502.246865 349.776564 502.246865 351.167301 
C 502.246865 352.558038 502.79941 353.892001 503.78281 354.8754 
C 504.766209 355.8588 506.100172 356.411345 507.490909 356.411345 
z
" clip-path="url(#p8f47d764d1)" style="fill: #1f77b4; fill-opacity: 0.3; stroke: #1f77b4; stroke-opacity: 0.3"/>
    <path d="M 516.218182 353.940222 
C 518.803062 353.940222 521.28242 352.913238 523.110206 351.085452 
C 524.937992 349.257666 525.964976 346.778307 525.964976 344.193427 
C 525.964976 341.608547 524.937992 339.129189 523.110206 337.301403 
C 521.28242 335.473617 518.803062 334.446633 516.218182 334.446633 
C 513.633302 334.446633 511.153944 335.473617 509.326157 337.301403 
C 507.498371 339.129189 506.471387 341.608547 506.471387 344.193427 
C 506.471387 346.778307 507.498371 349.257666 509.326157 351.085452 
C 511.153944 352.913238 513.633302 353.940222 516.218182 353.940222 
z
" clip-path="url(#p8f47d764d1)" style="fill: #1f77b4; fill-opacity: 0.3; stroke: #1f77b4; stroke-opacity: 0.3"/>
    <path d="M 524.945455 347.468377 
C 526.398032 347.468377 527.791311 346.891262 528.818438 345.864135 
C 529.845565 344.837008 530.42268 343.443729 530.42268 341.991152 
C 530.42268 340.538574 529.845565 339.145295 528.818438 338.118168 
C 527.791311 337.091041 526.398032 336.513926 524.945455 336.513926 
C 523.492877 336.513926 522.099598 337.091041 521.072471 338.118168 
C 520.045344 339.145295 519.468229 340.538574 519.468229 341.991152 
C 519.468229 343.443729 520.045344 344.837008 521.072471 345.864135 
C 522.099598 346.891262 523.492877 347.468377 524.945455 347.468377 
z
" clip-path="url(#p8f47d764d1)" style="fill: #1f77b4; fill-opacity: 0.3; stroke: #1f77b4; stroke-opacity: 0.3"/>
    <path d="M 533.672727 344.970915 
C 536.117779 344.970915 538.463017 343.999485 540.19193 342.270572 
C 541.920842 340.54166 542.892272 338.196422 542.892272 335.75137 
C 542.892272 333.306318 541.920842 330.96108 540.19193 329.232168 
C 538.463017 327.503255 536.117779 326.531826 533.672727 326.531826 
C 531.227676 326.531826 528.882438 327.503255 527.153525 329.232168 
C 525.424612 330.96108 524.453183 333.306318 524.453183 335.75137 
C 524.453183 338.196422 525.424612 340.54166 527.153525 342.270572 
C 528.882438 343.999485 531.227676 344.970915 533.672727 344.970915 
z
" clip-path="url(#p8f47d764d1)" style="fill: #1f77b4; fill-opacity: 0.3; stroke: #1f77b4; stroke-opacity: 0.3"/>
    <path d="M 542.4 339.151978 
C 544.275269 339.151978 546.073985 338.406926 547.4 337.08091 
C 548.726016 335.754895 549.471068 333.956179 549.471068 332.08091 
C 549.471068 330.205641 548.726016 328.406926 547.4 327.08091 
C 546.073985 325.754895 544.275269 325.009843 542.4 325.009843 
C 540.524731 325.009843 538.726016 325.754895 537.4 327.08091 
C 536.073985 328.406926 535.328932 330.205641 535.328932 332.08091 
C 535.328932 333.956179 536.073985 335.754895 537.4 337.08091 
C 538.726016 338.406926 540.524731 339.151978 542.4 339.151978 
z
" clip-path="url(#p8f47d764d1)" style="fill: #1f77b4; fill-opacity: 0.3; stroke: #1f77b4; stroke-opacity: 0.3"/>
    <path d="M 551.127273 335.35586 
C 552.57985 335.35586 553.973129 334.778745 555.000256 333.751618 
C 556.027383 332.724491 556.604498 331.331212 556.604498 329.878635 
C 556.604498 328.426057 556.027383 327.032778 555.000256 326.005651 
C 553.973129 324.978524 552.57985 324.401409 551.127273 324.401409 
C 549.674696 324.401409 548.281417 324.978524 547.254289 326.005651 
C 546.227162 327.032778 545.650047 328.426057 545.650047 329.878635 
C 545.650047 331.331212 546.227162 332.724491 547.254289 333.751618 
C 548.281417 334.778745 549.674696 335.35586 551.127273 335.35586 
z
" clip-path="url(#p8f47d764d1)" style="fill: #1f77b4; fill-opacity: 0.3; stroke: #1f77b4; stroke-opacity: 0.3"/>
    <path d="M 559.854545 333.283722 
C 561.682332 333.283722 563.435503 332.557535 564.727943 331.265095 
C 566.020383 329.972655 566.74657 328.219484 566.74657 326.391698 
C 566.74657 324.563912 566.020383 322.810741 564.727943 321.518301 
C 563.435503 320.225861 561.682332 319.499673 559.854545 319.499673 
C 558.026759 319.499673 556.273588 320.225861 554.981148 321.518301 
C 553.688708 322.810741 552.962521 324.563912 552.962521 326.391698 
C 552.962521 328.219484 553.688708 329.972655 554.981148 331.265095 
C 556.273588 332.557535 558.026759 333.283722 559.854545 333.283722 
z
" clip-path="url(#p8f47d764d1)" style="fill: #1f77b4; fill-opacity: 0.3; stroke: #1f77b4; stroke-opacity: 0.3"/>
    <path d="M 568.581818 329.483407 
C 569.839787 329.483407 571.046402 328.983611 571.93592 328.094093 
C 572.825438 327.204575 573.325235 325.99796 573.325235 324.739991 
C 573.325235 323.482022 572.825438 322.275407 571.93592 321.385889 
C 571.046402 320.496371 569.839787 319.996574 568.581818 319.996574 
C 567.323849 319.996574 566.117234 320.496371 565.227716 321.385889 
C 564.338198 322.275407 563.838402 323.482022 563.838402 324.739991 
C 563.838402 325.99796 564.338198 327.204575 565.227716 328.094093 
C 566.117234 328.983611 567.323849 329.483407 568.581818 329.483407 
z
" clip-path="url(#p8f47d764d1)" style="fill: #1f77b4; fill-opacity: 0.3; stroke: #1f77b4; stroke-opacity: 0.3"/>
    <path d="M 577.309091 327.567332 
C 579.859733 327.567332 582.30625 326.553952 584.109826 324.750376 
C 585.913402 322.9468 586.926783 320.500282 586.926783 317.94964 
C 586.926783 315.398999 585.913402 312.952481 584.109826 311.148905 
C 582.30625 309.345329 579.859733 308.331948 577.309091 308.331948 
C 574.758449 308.331948 572.311932 309.345329 570.508356 311.148905 
C 568.70478 312.952481 567.691399 315.398999 567.691399 317.94964 
C 567.691399 320.500282 568.70478 322.9468 570.508356 324.750376 
C 572.311932 326.553952 574.758449 327.567332 577.309091 327.567332 
z
" clip-path="url(#p8f47d764d1)" style="fill: #1f77b4; fill-opacity: 0.3; stroke: #1f77b4; stroke-opacity: 0.3"/>
    <path d="M 586.036364 320.094988 
C 588.941518 320.094988 591.728076 318.940758 593.78233 316.886504 
C 595.836585 314.832249 596.990815 312.045691 596.990815 309.140537 
C 596.990815 306.235383 595.836585 303.448825 593.78233 301.39457 
C 591.728076 299.340316 588.941518 298.186086 586.036364 298.186086 
C 583.131209 298.186086 580.344651 299.340316 578.290397 301.39457 
C 576.236143 303.448825 575.081912 306.235383 575.081912 309.140537 
C 575.081912 312.045691 576.236143 314.832249 578.290397 316.886504 
C 580.344651 318.940758 583.131209 320.094988 586.036364 320.094988 
z
" clip-path="url(#p8f47d764d1)" style="fill: #1f77b4; fill-opacity: 0.3; stroke: #1f77b4; stroke-opacity: 0.3"/>
    <path d="M 594.763636 312.232247 
C 596.021605 312.232247 597.22822 311.73245 598.117738 310.842932 
C 599.007257 309.953414 599.507053 308.746799 599.507053 307.48883 
C 599.507053 306.230861 599.007257 305.024246 598.117738 304.134728 
C 597.22822 303.24521 596.021605 302.745414 594.763636 302.745414 
C 593.505668 302.745414 592.299053 303.24521 591.409534 304.134728 
C 590.520016 305.024246 590.02022 306.230861 590.02022 307.48883 
C 590.02022 308.746799 590.520016 309.953414 591.409534 310.842932 
C 592.299053 311.73245 593.505668 312.232247 594.763636 312.232247 
z
" clip-path="url(#p8f47d764d1)" style="fill: #1f77b4; fill-opacity: 0.3; stroke: #1f77b4; stroke-opacity: 0.3"/>
    <path d="M 603.490909 310.889438 
C 605.366178 310.889438 607.164894 310.144386 608.490909 308.818371 
C 609.816925 307.492355 610.561977 305.69364 610.561977 303.818371 
C 610.561977 301.943101 609.816925 300.144386 608.490909 298.818371 
C 607.164894 297.492355 605.366178 296.747303 603.490909 296.747303 
C 601.61564 296.747303 599.816925 297.492355 598.490909 298.818371 
C 597.164894 300.144386 596.419841 301.943101 596.419841 303.818371 
C 596.419841 305.69364 597.164894 307.492355 598.490909 308.818371 
C 599.816925 310.144386 601.61564 310.889438 603.490909 310.889438 
z
" clip-path="url(#p8f47d764d1)" style="fill: #1f77b4; fill-opacity: 0.3; stroke: #1f77b4; stroke-opacity: 0.3"/>
    <path d="M 612.218182 307.218979 
C 614.093451 307.218979 615.892166 306.473926 617.218182 305.147911 
C 618.544197 303.821895 619.28925 302.02318 619.28925 300.147911 
C 619.28925 298.272642 618.544197 296.473926 617.218182 295.147911 
C 615.892166 293.821895 614.093451 293.076843 612.218182 293.076843 
C 610.342913 293.076843 608.544197 293.821895 607.218182 295.147911 
C 605.892166 296.473926 605.147114 298.272642 605.147114 300.147911 
C 605.147114 302.02318 605.892166 303.821895 607.218182 305.147911 
C 608.544197 306.473926 610.342913 307.218979 612.218182 307.218979 
z
" clip-path="url(#p8f47d764d1)" style="fill: #1f77b4; fill-opacity: 0.3; stroke: #1f77b4; stroke-opacity: 0.3"/>
    <path d="M 620.945455 303.552701 
C 622.724491 303.552701 624.430902 302.845882 625.688871 301.587914 
C 626.94684 300.329945 627.653658 298.623534 627.653658 296.844497 
C 627.653658 295.065461 626.94684 293.359049 625.688871 292.101081 
C 624.430902 290.843112 622.724491 290.136293 620.945455 290.136293 
C 619.166418 290.136293 617.460007 290.843112 616.202038 292.101081 
C 614.944069 293.359049 614.237251 295.065461 614.237251 296.844497 
C 614.237251 298.623534 614.944069 300.329945 616.202038 301.587914 
C 617.460007 302.845882 619.166418 303.552701 620.945455 303.552701 
z
" clip-path="url(#p8f47d764d1)" style="fill: #1f77b4; fill-opacity: 0.3; stroke: #1f77b4; stroke-opacity: 0.3"/>
    <path d="M 629.672727 300.249585 
C 631.500514 300.249585 633.253684 299.523398 634.546124 298.230957 
C 635.838564 296.938517 636.564752 295.185347 636.564752 293.35756 
C 636.564752 291.529774 635.838564 289.776603 634.546124 288.484163 
C 633.253684 287.191723 631.500514 286.465536 629.672727 286.465536 
C 627.844941 286.465536 626.09177 287.191723 624.79933 288.484163 
C 623.50689 289.776603 622.780703 291.529774 622.780703 293.35756 
C 622.780703 295.185347 623.50689 296.938517 624.79933 298.230957 
C 626.09177 299.523398 627.844941 300.249585 629.672727 300.249585 
z
" clip-path="url(#p8f47d764d1)" style="fill: #1f77b4; fill-opacity: 0.3; stroke: #1f77b4; stroke-opacity: 0.3"/>
    <path d="M 638.4 296.550087 
C 640.658123 296.550087 642.824063 295.652925 644.420797 294.056191 
C 646.017531 292.459457 646.914693 290.293517 646.914693 288.035394 
C 646.914693 285.777271 646.017531 283.611331 644.420797 282.014596 
C 642.824063 280.417862 640.658123 279.520701 638.4 279.520701 
C 636.141877 279.520701 633.975937 280.417862 632.379203 282.014596 
C 630.782469 283.611331 629.885307 285.777271 629.885307 288.035394 
C 629.885307 290.293517 630.782469 292.459457 632.379203 294.056191 
C 633.975937 295.652925 636.141877 296.550087 638.4 296.550087 
z
" clip-path="url(#p8f47d764d1)" style="fill: #1f77b4; fill-opacity: 0.3; stroke: #1f77b4; stroke-opacity: 0.3"/>
    <path d="M 647.127273 291.22792 
C 649.385396 291.22792 651.551336 290.330759 653.14807 288.734024 
C 654.744804 287.13729 655.641966 284.97135 655.641966 282.713227 
C 655.641966 280.455104 654.744804 278.289164 653.14807 276.69243 
C 651.551336 275.095696 649.385396 274.198534 647.127273 274.198534 
C 644.86915 274.198534 642.70321 275.095696 641.106475 276.69243 
C 639.509741 278.289164 638.61258 280.455104 638.61258 282.713227 
C 638.61258 284.97135 639.509741 287.13729 641.106475 288.734024 
C 642.70321 290.330759 644.86915 291.22792 647.127273 291.22792 
z
" clip-path="url(#p8f47d764d1)" style="fill: #1f77b4; fill-opacity: 0.3; stroke: #1f77b4; stroke-opacity: 0.3"/>
    <path d="M 655.854545 285.189959 
C 658.60423 285.189959 661.241664 284.097498 663.185985 282.153178 
C 665.130305 280.208857 666.222766 277.571423 666.222766 274.821739 
C 666.222766 272.072054 665.130305 269.43462 663.185985 267.4903 
C 661.241664 265.545979 658.60423 264.453518 655.854545 264.453518 
C 653.104861 264.453518 650.467427 265.545979 648.523106 267.4903 
C 646.578786 269.43462 645.486325 272.072054 645.486325 274.821739 
C 645.486325 277.571423 646.578786 280.208857 648.523106 282.153178 
C 650.467427 284.097498 653.104861 285.189959 655.854545 285.189959 
z
" clip-path="url(#p8f47d764d1)" style="fill: #1f77b4; fill-opacity: 0.3; stroke: #1f77b4; stroke-opacity: 0.3"/>
    <path d="M 664.581818 278.222347 
C 666.457087 278.222347 668.255803 277.477295 669.581818 276.151279 
C 670.907834 274.825264 671.652886 273.026548 671.652886 271.151279 
C 671.652886 269.27601 670.907834 267.477295 669.581818 266.151279 
C 668.255803 264.825264 666.457087 264.080211 664.581818 264.080211 
C 662.706549 264.080211 660.907834 264.825264 659.581818 266.151279 
C 658.255803 267.477295 657.51075 269.27601 657.51075 271.151279 
C 657.51075 273.026548 658.255803 274.825264 659.581818 276.151279 
C 660.907834 277.477295 662.706549 278.222347 664.581818 278.222347 
z
" clip-path="url(#p8f47d764d1)" style="fill: #1f77b4; fill-opacity: 0.3; stroke: #1f77b4; stroke-opacity: 0.3"/>
    <path d="M 673.309091 272.54854 
C 676.502559 272.54854 679.565661 271.279762 681.823784 269.021639 
C 684.081907 266.763516 685.350685 263.700414 685.350685 260.506946 
C 685.350685 257.313478 684.081907 254.250376 681.823784 251.992253 
C 679.565661 249.73413 676.502559 248.465351 673.309091 248.465351 
C 670.115623 248.465351 667.052521 249.73413 664.794398 251.992253 
C 662.536275 254.250376 661.267496 257.313478 661.267496 260.506946 
C 661.267496 263.700414 662.536275 266.763516 664.794398 269.021639 
C 667.052521 271.279762 670.115623 272.54854 673.309091 272.54854 
z
" clip-path="url(#p8f47d764d1)" style="fill: #1f77b4; fill-opacity: 0.3; stroke: #1f77b4; stroke-opacity: 0.3"/>
    <path d="M 682.036364 263.868793 
C 684.047366 263.868793 685.976273 263.069813 687.398266 261.64782 
C 688.820259 260.225827 689.619239 258.296919 689.619239 256.285917 
C 689.619239 254.274915 688.820259 252.346008 687.398266 250.924015 
C 685.976273 249.502021 684.047366 248.703042 682.036364 248.703042 
C 680.025362 248.703042 678.096454 249.502021 676.674461 250.924015 
C 675.252468 252.346008 674.453488 254.274915 674.453488 256.285917 
C 674.453488 258.296919 675.252468 260.225827 676.674461 261.64782 
C 678.096454 263.069813 680.025362 263.868793 682.036364 263.868793 
z
" clip-path="url(#p8f47d764d1)" style="fill: #1f77b4; fill-opacity: 0.3; stroke: #1f77b4; stroke-opacity: 0.3"/>
    <path d="M 690.763636 259.560867 
C 692.216214 259.560867 693.609493 258.983752 694.63662 257.956625 
C 695.663747 256.929497 696.240862 255.536219 696.240862 254.083641 
C 696.240862 252.631064 695.663747 251.237785 694.63662 250.210658 
C 693.609493 249.183531 692.216214 248.606416 690.763636 248.606416 
C 689.311059 248.606416 687.91778 249.183531 686.890653 250.210658 
C 685.863526 251.237785 685.286411 252.631064 685.286411 254.083641 
C 685.286411 255.536219 685.863526 256.929497 686.890653 257.956625 
C 687.91778 258.983752 689.311059 259.560867 690.763636 259.560867 
z
" clip-path="url(#p8f47d764d1)" style="fill: #1f77b4; fill-opacity: 0.3; stroke: #1f77b4; stroke-opacity: 0.3"/>
    <path d="M 699.490909 257.484249 
C 701.366178 257.484249 703.164894 256.739197 704.490909 255.413182 
C 705.816925 254.087166 706.561977 252.288451 706.561977 250.413182 
C 706.561977 248.537913 705.816925 246.739197 704.490909 245.413182 
C 703.164894 244.087166 701.366178 243.342114 699.490909 243.342114 
C 697.61564 243.342114 695.816925 244.087166 694.490909 245.413182 
C 693.164894 246.739197 692.419841 248.537913 692.419841 250.413182 
C 692.419841 252.288451 693.164894 254.087166 694.490909 255.413182 
C 695.816925 256.739197 697.61564 257.484249 699.490909 257.484249 
z
" clip-path="url(#p8f47d764d1)" style="fill: #1f77b4; fill-opacity: 0.3; stroke: #1f77b4; stroke-opacity: 0.3"/>
    <path d="M 708.218182 253.673899 
C 710.397048 253.673899 712.486966 252.808227 714.027657 251.267536 
C 715.568348 249.726845 716.43402 247.636927 716.43402 245.458061 
C 716.43402 243.279195 715.568348 241.189277 714.027657 239.648586 
C 712.486966 238.107895 710.397048 237.242223 708.218182 237.242223 
C 706.039316 237.242223 703.949398 238.107895 702.408707 239.648586 
C 700.868016 241.189277 700.002343 243.279195 700.002343 245.458061 
C 700.002343 247.636927 700.868016 249.726845 702.408707 251.267536 
C 703.949398 252.808227 706.039316 253.673899 708.218182 253.673899 
z
" clip-path="url(#p8f47d764d1)" style="fill: #1f77b4; fill-opacity: 0.3; stroke: #1f77b4; stroke-opacity: 0.3"/>
    <path d="M 716.945455 248.858669 
C 718.820724 248.858669 720.619439 248.113617 721.945455 246.787601 
C 723.27147 245.461586 724.016522 243.66287 724.016522 241.787601 
C 724.016522 239.912332 723.27147 238.113617 721.945455 236.787601 
C 720.619439 235.461586 718.820724 234.716533 716.945455 234.716533 
C 715.070185 234.716533 713.27147 235.461586 711.945455 236.787601 
C 710.619439 238.113617 709.874387 239.912332 709.874387 241.787601 
C 709.874387 243.66287 710.619439 245.461586 711.945455 246.787601 
C 713.27147 248.113617 715.070185 248.858669 716.945455 248.858669 
z
" clip-path="url(#p8f47d764d1)" style="fill: #1f77b4; fill-opacity: 0.3; stroke: #1f77b4; stroke-opacity: 0.3"/>
    <path d="M 725.672727 244.980128 
C 727.93085 244.980128 730.09679 244.082966 731.693525 242.486232 
C 733.290259 240.889498 734.18742 238.723558 734.18742 236.465435 
C 734.18742 234.207312 733.290259 232.041371 731.693525 230.444637 
C 730.09679 228.847903 727.93085 227.950742 725.672727 227.950742 
C 723.414604 227.950742 721.248664 228.847903 719.65193 230.444637 
C 718.055196 232.041371 717.158034 234.207312 717.158034 236.465435 
C 717.158034 238.723558 718.055196 240.889498 719.65193 242.486232 
C 721.248664 244.082966 723.414604 244.980128 725.672727 244.980128 
z
" clip-path="url(#p8f47d764d1)" style="fill: #1f77b4; fill-opacity: 0.3; stroke: #1f77b4; stroke-opacity: 0.3"/>
    <path d="M 734.4 239.853622 
C 736.077292 239.853622 737.686112 239.187227 738.872136 238.001203 
C 740.05816 236.815179 740.724555 235.206359 740.724555 233.529067 
C 740.724555 231.851775 740.05816 230.242955 738.872136 229.056931 
C 737.686112 227.870907 736.077292 227.204512 734.4 227.204512 
C 732.722708 227.204512 731.113888 227.870907 729.927864 229.056931 
C 728.74184 230.242955 728.075445 231.851775 728.075445 233.529067 
C 728.075445 235.206359 728.74184 236.815179 729.927864 238.001203 
C 731.113888 239.187227 732.722708 239.853622 734.4 239.853622 
z
" clip-path="url(#p8f47d764d1)" style="fill: #1f77b4; fill-opacity: 0.3; stroke: #1f77b4; stroke-opacity: 0.3"/>
    <path d="M 743.127273 236.920773 
C 745.048852 236.920773 746.891987 236.157321 748.250748 234.79856 
C 749.60951 233.439798 750.372961 231.596663 750.372961 229.675084 
C 750.372961 227.753505 749.60951 225.91037 748.250748 224.551609 
C 746.891987 223.192847 745.048852 222.429396 743.127273 222.429396 
C 741.205694 222.429396 739.362559 223.192847 738.003797 224.551609 
C 736.645036 225.91037 735.881584 227.753505 735.881584 229.675084 
C 735.881584 231.596663 736.645036 233.439798 738.003797 234.79856 
C 739.362559 236.157321 741.205694 236.920773 743.127273 236.920773 
z
" clip-path="url(#p8f47d764d1)" style="fill: #1f77b4; fill-opacity: 0.3; stroke: #1f77b4; stroke-opacity: 0.3"/>
    <path d="M 751.854545 233.079874 
C 753.633582 233.079874 755.339993 232.373056 756.597962 231.115087 
C 757.855931 229.857118 758.562749 228.150707 758.562749 226.37167 
C 758.562749 224.592634 757.855931 222.886223 756.597962 221.628254 
C 755.339993 220.370285 753.633582 219.663467 751.854545 219.663467 
C 750.075509 219.663467 748.369098 220.370285 747.111129 221.628254 
C 745.85316 222.886223 745.146342 224.592634 745.146342 226.37167 
C 745.146342 228.150707 745.85316 229.857118 747.111129 231.115087 
C 748.369098 232.373056 750.075509 233.079874 751.854545 233.079874 
z
" clip-path="url(#p8f47d764d1)" style="fill: #1f77b4; fill-opacity: 0.3; stroke: #1f77b4; stroke-opacity: 0.3"/>
    <path d="M 760.581818 229.686749 
C 762.093708 229.686749 763.543879 229.086068 764.612947 228.017001 
C 765.682015 226.947933 766.282695 225.497762 766.282695 223.985872 
C 766.282695 222.473981 765.682015 221.023811 764.612947 219.954743 
C 763.543879 218.885675 762.093708 218.284995 760.581818 218.284995 
C 759.069928 218.284995 757.619757 218.885675 756.550689 219.954743 
C 755.481621 221.023811 754.880941 222.473981 754.880941 223.985872 
C 754.880941 225.497762 755.481621 226.947933 756.550689 228.017001 
C 757.619757 229.086068 759.069928 229.686749 760.581818 229.686749 
z
" clip-path="url(#p8f47d764d1)" style="fill: #1f77b4; fill-opacity: 0.3; stroke: #1f77b4; stroke-opacity: 0.3"/>
    <path d="M 769.309091 225.057346 
C 772.610843 225.057346 775.777808 223.745546 778.112499 221.410855 
C 780.447191 219.076164 781.758991 215.909198 781.758991 212.607447 
C 781.758991 209.305695 780.447191 206.138729 778.112499 203.804038 
C 775.777808 201.469347 772.610843 200.157547 769.309091 200.157547 
C 766.007339 200.157547 762.840374 201.469347 760.505682 203.804038 
C 758.170991 206.138729 756.859191 209.305695 756.859191 212.607447 
C 756.859191 215.909198 758.170991 219.076164 760.505682 221.410855 
C 762.840374 223.745546 766.007339 225.057346 769.309091 225.057346 
z
" clip-path="url(#p8f47d764d1)" style="fill: #1f77b4; fill-opacity: 0.3; stroke: #1f77b4; stroke-opacity: 0.3"/>
    <path d="M 778.036364 216.012534 
C 779.86415 216.012534 781.617321 215.286347 782.909761 213.993907 
C 784.202201 212.701467 784.928388 210.948296 784.928388 209.12051 
C 784.928388 207.292724 784.202201 205.539553 782.909761 204.247113 
C 781.617321 202.954673 779.86415 202.228485 778.036364 202.228485 
C 776.208577 202.228485 774.455407 202.954673 773.162966 204.247113 
C 771.870526 205.539553 771.144339 207.292724 771.144339 209.12051 
C 771.144339 210.948296 771.870526 212.701467 773.162966 213.993907 
C 774.455407 215.286347 776.208577 216.012534 778.036364 216.012534 
z
" clip-path="url(#p8f47d764d1)" style="fill: #1f77b4; fill-opacity: 0.3; stroke: #1f77b4; stroke-opacity: 0.3"/>
    <path d="M 786.763636 211.597242 
C 789.513321 211.597242 792.150755 210.504781 794.095076 208.560461 
C 796.039396 206.61614 797.131857 203.978706 797.131857 201.229021 
C 797.131857 198.479337 796.039396 195.841903 794.095076 193.897582 
C 792.150755 191.953262 789.513321 190.860801 786.763636 190.860801 
C 784.013952 190.860801 781.376518 191.953262 779.432197 193.897582 
C 777.487877 195.841903 776.395416 198.479337 776.395416 201.229021 
C 776.395416 203.978706 777.487877 206.61614 779.432197 208.560461 
C 781.376518 210.504781 784.013952 211.597242 786.763636 211.597242 
z
" clip-path="url(#p8f47d764d1)" style="fill: #1f77b4; fill-opacity: 0.3; stroke: #1f77b4; stroke-opacity: 0.3"/>
    <path d="M 795.490909 204.383586 
C 797.787635 204.383586 799.990603 203.471087 801.614633 201.847056 
C 803.238664 200.223025 804.151163 198.020058 804.151163 195.723332 
C 804.151163 193.426606 803.238664 191.223638 801.614633 189.599607 
C 799.990603 187.975577 797.787635 187.063078 795.490909 187.063078 
C 793.194183 187.063078 790.991215 187.975577 789.367185 189.599607 
C 787.743154 191.223638 786.830655 193.426606 786.830655 195.723332 
C 786.830655 198.020058 787.743154 200.223025 789.367185 201.847056 
C 790.991215 203.471087 793.194183 204.383586 795.490909 204.383586 
z
" clip-path="url(#p8f47d764d1)" style="fill: #1f77b4; fill-opacity: 0.3; stroke: #1f77b4; stroke-opacity: 0.3"/>
    <path d="M 804.218182 199.128419 
C 806.045968 199.128419 807.799139 198.402232 809.091579 197.109792 
C 810.384019 195.817352 811.110206 194.064181 811.110206 192.236395 
C 811.110206 190.408609 810.384019 188.655438 809.091579 187.362998 
C 807.799139 186.070558 806.045968 185.344371 804.218182 185.344371 
C 802.390396 185.344371 800.637225 186.070558 799.344785 187.362998 
C 798.052345 188.655438 797.326157 190.408609 797.326157 192.236395 
C 797.326157 194.064181 798.052345 195.817352 799.344785 197.109792 
C 800.637225 198.402232 802.390396 199.128419 804.218182 199.128419 
z
" clip-path="url(#p8f47d764d1)" style="fill: #1f77b4; fill-opacity: 0.3; stroke: #1f77b4; stroke-opacity: 0.3"/>
    <path d="M 812.945455 195.607275 
C 814.569485 195.607275 816.127218 194.96204 817.275582 193.813677 
C 818.423945 192.665314 819.069179 191.107581 819.069179 189.48355 
C 819.069179 187.85952 818.423945 186.301786 817.275582 185.153423 
C 816.127218 184.00506 814.569485 183.359826 812.945455 183.359826 
C 811.321424 183.359826 809.763691 184.00506 808.615328 185.153423 
C 807.466964 186.301786 806.82173 187.85952 806.82173 189.48355 
C 806.82173 191.107581 807.466964 192.665314 808.615328 193.813677 
C 809.763691 194.96204 811.321424 195.607275 812.945455 195.607275 
z
" clip-path="url(#p8f47d764d1)" style="fill: #1f77b4; fill-opacity: 0.3; stroke: #1f77b4; stroke-opacity: 0.3"/>
    <path d="M 821.672727 192.64832 
C 822.998743 192.64832 824.270627 192.121489 825.208261 191.183854 
C 826.145896 190.24622 826.672727 188.974336 826.672727 187.64832 
C 826.672727 186.322305 826.145896 185.050421 825.208261 184.112787 
C 824.270627 183.175152 822.998743 182.64832 821.672727 182.64832 
C 820.346712 182.64832 819.074828 183.175152 818.137193 184.112787 
C 817.199559 185.050421 816.672727 186.322305 816.672727 187.64832 
C 816.672727 188.974336 817.199559 190.24622 818.137193 191.183854 
C 819.074828 192.121489 820.346712 192.64832 821.672727 192.64832 
z
" clip-path="url(#p8f47d764d1)" style="fill: #1f77b4; fill-opacity: 0.3; stroke: #1f77b4; stroke-opacity: 0.3"/>
    <path d="M 830.4 191.040026 
C 832.321579 191.040026 834.164714 190.276575 835.523475 188.917813 
C 836.882237 187.559052 837.645688 185.715917 837.645688 183.794338 
C 837.645688 181.872759 836.882237 180.029624 835.523475 178.670862 
C 834.164714 177.312101 832.321579 176.548649 830.4 176.548649 
C 828.478421 176.548649 826.635286 177.312101 825.276525 178.670862 
C 823.917763 180.029624 823.154312 181.872759 823.154312 183.794338 
C 823.154312 185.715917 823.917763 187.559052 825.276525 188.917813 
C 826.635286 190.276575 828.478421 191.040026 830.4 191.040026 
z
" clip-path="url(#p8f47d764d1)" style="fill: #1f77b4; fill-opacity: 0.3; stroke: #1f77b4; stroke-opacity: 0.3"/>
    <path d="M 839.127273 186.986864 
C 841.385396 186.986864 843.551336 186.089703 845.14807 184.492968 
C 846.744804 182.896234 847.641966 180.730294 847.641966 178.472171 
C 847.641966 176.214048 846.744804 174.048108 845.14807 172.451374 
C 843.551336 170.85464 841.385396 169.957478 839.127273 169.957478 
C 836.86915 169.957478 834.70321 170.85464 833.106475 172.451374 
C 831.509741 174.048108 830.61258 176.214048 830.61258 178.472171 
C 830.61258 180.730294 831.509741 182.896234 833.106475 184.492968 
C 834.70321 186.089703 836.86915 186.986864 839.127273 186.986864 
z
" clip-path="url(#p8f47d764d1)" style="fill: #1f77b4; fill-opacity: 0.3; stroke: #1f77b4; stroke-opacity: 0.3"/>
    <path d="M 847.854545 181.850864 
C 849.821344 181.850864 851.707853 181.069446 853.09859 179.67871 
C 854.489326 178.287973 855.270744 176.401464 855.270744 174.434665 
C 855.270744 172.467867 854.489326 170.581358 853.09859 169.190621 
C 851.707853 167.799884 849.821344 167.018467 847.854545 167.018467 
C 845.887747 167.018467 844.001238 167.799884 842.610501 169.190621 
C 841.219764 170.581358 840.438347 172.467867 840.438347 174.434665 
C 840.438347 176.401464 841.219764 178.287973 842.610501 179.67871 
C 844.001238 181.069446 845.887747 181.850864 847.854545 181.850864 
z
" clip-path="url(#p8f47d764d1)" style="fill: #1f77b4; fill-opacity: 0.3; stroke: #1f77b4; stroke-opacity: 0.3"/>
    <path d="M 856.581818 177.207586 
C 859.166698 177.207586 861.646056 176.180603 863.473843 174.352816 
C 865.301629 172.52503 866.328613 170.045672 866.328613 167.460792 
C 866.328613 164.875912 865.301629 162.396554 863.473843 160.568768 
C 861.646056 158.740981 859.166698 157.713998 856.581818 157.713998 
C 853.996938 157.713998 851.51758 158.740981 849.689794 160.568768 
C 847.862008 162.396554 846.835024 164.875912 846.835024 167.460792 
C 846.835024 170.045672 847.862008 172.52503 849.689794 174.352816 
C 851.51758 176.180603 853.996938 177.207586 856.581818 177.207586 
z
" clip-path="url(#p8f47d764d1)" style="fill: #1f77b4; fill-opacity: 0.3; stroke: #1f77b4; stroke-opacity: 0.3"/>
    <path d="M 865.309091 170.751452 
C 867.447227 170.751452 869.498078 169.901962 871.009968 168.390071 
C 872.521858 166.878181 873.371349 164.82733 873.371349 162.689194 
C 873.371349 160.551059 872.521858 158.500208 871.009968 156.988317 
C 869.498078 155.476427 867.447227 154.626937 865.309091 154.626937 
C 863.170955 154.626937 861.120104 155.476427 859.608214 156.988317 
C 858.096323 158.500208 857.246833 160.551059 857.246833 162.689194 
C 857.246833 164.82733 858.096323 166.878181 859.608214 168.390071 
C 861.120104 169.901962 863.170955 170.751452 865.309091 170.751452 
z
" clip-path="url(#p8f47d764d1)" style="fill: #1f77b4; fill-opacity: 0.3; stroke: #1f77b4; stroke-opacity: 0.3"/>
    <path d="M 874.036364 165.881721 
C 876.294487 165.881721 878.460427 164.984559 880.057161 163.387825 
C 881.653895 161.791091 882.551057 159.625151 882.551057 157.367028 
C 882.551057 155.108905 881.653895 152.942965 880.057161 151.34623 
C 878.460427 149.749496 876.294487 148.852335 874.036364 148.852335 
C 871.778241 148.852335 869.6123 149.749496 868.015566 151.34623 
C 866.418832 152.942965 865.52167 155.108905 865.52167 157.367028 
C 865.52167 159.625151 866.418832 161.791091 868.015566 163.387825 
C 869.6123 164.984559 871.778241 165.881721 874.036364 165.881721 
z
" clip-path="url(#p8f47d764d1)" style="fill: #1f77b4; fill-opacity: 0.3; stroke: #1f77b4; stroke-opacity: 0.3"/>
    <path d="M 882.763636 160.755215 
C 884.440928 160.755215 886.049748 160.08882 887.235772 158.902796 
C 888.421797 157.716772 889.088192 156.107952 889.088192 154.43066 
C 889.088192 152.753368 888.421797 151.144548 887.235772 149.958524 
C 886.049748 148.7725 884.440928 148.106105 882.763636 148.106105 
C 881.086345 148.106105 879.477525 148.7725 878.2915 149.958524 
C 877.105476 151.144548 876.439081 152.753368 876.439081 154.43066 
C 876.439081 156.107952 877.105476 157.716772 878.2915 158.902796 
C 879.477525 160.08882 881.086345 160.755215 882.763636 160.755215 
z
" clip-path="url(#p8f47d764d1)" style="fill: #1f77b4; fill-opacity: 0.3; stroke: #1f77b4; stroke-opacity: 0.3"/>
    <path d="M 891.490909 156.712408 
C 894.334895 156.712408 897.062782 155.58248 899.073785 153.571478 
C 901.084787 151.560476 902.214714 148.832589 902.214714 145.988603 
C 902.214714 143.144616 901.084787 140.416729 899.073785 138.405727 
C 897.062782 136.394725 894.334895 135.264797 891.490909 135.264797 
C 888.646923 135.264797 885.919036 136.394725 883.908034 138.405727 
C 881.897032 140.416729 880.767104 143.144616 880.767104 145.988603 
C 880.767104 148.832589 881.897032 151.560476 883.908034 153.571478 
C 885.919036 155.58248 888.646923 156.712408 891.490909 156.712408 
z
" clip-path="url(#p8f47d764d1)" style="fill: #1f77b4; fill-opacity: 0.3; stroke: #1f77b4; stroke-opacity: 0.3"/>
    <path d="M 900.218182 146.807157 
C 903.598871 146.807157 906.841552 145.463995 909.23206 143.073487 
C 911.622568 140.682978 912.965731 137.440298 912.965731 134.059609 
C 912.965731 130.678919 911.622568 127.436239 909.23206 125.04573 
C 906.841552 122.655222 903.598871 121.31206 900.218182 121.31206 
C 896.837492 121.31206 893.594812 122.655222 891.204304 125.04573 
C 888.813795 127.436239 887.470633 130.678919 887.470633 134.059609 
C 887.470633 137.440298 888.813795 140.682978 891.204304 143.073487 
C 893.594812 145.463995 896.837492 146.807157 900.218182 146.807157 
z
" clip-path="url(#p8f47d764d1)" style="fill: #1f77b4; fill-opacity: 0.3; stroke: #1f77b4; stroke-opacity: 0.3"/>
    <path d="M 908.945455 137.451314 
C 910.867034 137.451314 912.710168 136.687863 914.06893 135.329101 
C 915.427691 133.97034 916.191143 132.127205 916.191143 130.205626 
C 916.191143 128.284047 915.427691 126.440912 914.06893 125.08215 
C 912.710168 123.723389 910.867034 122.959937 908.945455 122.959937 
C 907.023876 122.959937 905.180741 123.723389 903.821979 125.08215 
C 902.463218 126.440912 901.699766 128.284047 901.699766 130.205626 
C 901.699766 132.127205 902.463218 133.97034 903.821979 135.329101 
C 905.180741 136.687863 907.023876 137.451314 908.945455 137.451314 
z
" clip-path="url(#p8f47d764d1)" style="fill: #1f77b4; fill-opacity: 0.3; stroke: #1f77b4; stroke-opacity: 0.3"/>
    <path d="M 917.672727 132.922438 
C 920.291398 132.922438 922.803167 131.882029 924.654847 130.030349 
C 926.506527 128.17867 927.546936 125.6669 927.546936 123.048229 
C 927.546936 120.429559 926.506527 117.917789 924.654847 116.066109 
C 922.803167 114.21443 920.291398 113.174021 917.672727 113.174021 
C 915.054056 113.174021 912.542287 114.21443 910.690607 116.066109 
C 908.838927 117.917789 907.798518 120.429559 907.798518 123.048229 
C 907.798518 125.6669 908.838927 128.17867 910.690607 130.030349 
C 912.542287 131.882029 915.054056 132.922438 917.672727 132.922438 
z
" clip-path="url(#p8f47d764d1)" style="fill: #1f77b4; fill-opacity: 0.3; stroke: #1f77b4; stroke-opacity: 0.3"/>
    <path d="M 926.4 126.33889 
C 928.538136 126.33889 930.588987 125.489399 932.100877 123.977509 
C 933.612767 122.465619 934.462258 120.414768 934.462258 118.276632 
C 934.462258 116.138496 933.612767 114.087645 932.100877 112.575755 
C 930.588987 111.063864 928.538136 110.214374 926.4 110.214374 
C 924.261864 110.214374 922.211013 111.063864 920.699123 112.575755 
C 919.187233 114.087645 918.337742 116.138496 918.337742 118.276632 
C 918.337742 120.414768 919.187233 122.465619 920.699123 123.977509 
C 922.211013 125.489399 924.261864 126.33889 926.4 126.33889 
z
" clip-path="url(#p8f47d764d1)" style="fill: #1f77b4; fill-opacity: 0.3; stroke: #1f77b4; stroke-opacity: 0.3"/>
    <path d="M 935.127273 121.175271 
C 936.236697 121.175271 937.300831 120.734492 938.085313 119.950011 
C 938.869794 119.165529 939.310573 118.101395 939.310573 116.991971 
C 939.310573 115.882547 938.869794 114.818412 938.085313 114.033931 
C 937.300831 113.24945 936.236697 112.808671 935.127273 112.808671 
C 934.017849 112.808671 932.953714 113.24945 932.169233 114.033931 
C 931.384751 114.818412 930.943973 115.882547 930.943973 116.991971 
C 930.943973 118.101395 931.384751 119.165529 932.169233 119.950011 
C 932.953714 120.734492 934.017849 121.175271 935.127273 121.175271 
z
" clip-path="url(#p8f47d764d1)" style="fill: #1f77b4; fill-opacity: 0.3; stroke: #1f77b4; stroke-opacity: 0.3"/>
    <path d="M 943.854545 119.60989 
C 944.79218 119.60989 945.691538 119.237364 946.354545 118.574356 
C 947.017553 117.911348 947.390079 117.01199 947.390079 116.074356 
C 947.390079 115.136721 947.017553 114.237364 946.354545 113.574356 
C 945.691538 112.911348 944.79218 112.538822 943.854545 112.538822 
C 942.916911 112.538822 942.017553 112.911348 941.354545 113.574356 
C 940.691538 114.237364 940.319012 115.136721 940.319012 116.074356 
C 940.319012 117.01199 940.691538 117.911348 941.354545 118.574356 
C 942.017553 119.237364 942.916911 119.60989 943.854545 119.60989 
z
" clip-path="url(#p8f47d764d1)" style="fill: #1f77b4; fill-opacity: 0.3; stroke: #1f77b4; stroke-opacity: 0.3"/>
    <path d="M 952.581818 119.166066 
C 953.839787 119.166066 955.046402 118.666269 955.93592 117.776751 
C 956.825438 116.887233 957.325235 115.680618 957.325235 114.422649 
C 957.325235 113.16468 956.825438 111.958065 955.93592 111.068547 
C 955.046402 110.179029 953.839787 109.679233 952.581818 109.679233 
C 951.323849 109.679233 950.117234 110.179029 949.227716 111.068547 
C 948.338198 111.958065 947.838402 113.16468 947.838402 114.422649 
C 947.838402 115.680618 948.338198 116.887233 949.227716 117.776751 
C 950.117234 118.666269 951.323849 119.166066 952.581818 119.166066 
z
" clip-path="url(#p8f47d764d1)" style="fill: #1f77b4; fill-opacity: 0.3; stroke: #1f77b4; stroke-opacity: 0.3"/>
    <path d="M 961.309091 116.704397 
C 964.153077 116.704397 966.880964 115.574469 968.891966 113.563467 
C 970.902968 111.552465 972.032896 108.824578 972.032896 105.980592 
C 972.032896 103.136605 970.902968 100.408718 968.891966 98.397716 
C 966.880964 96.386714 964.153077 95.256786 961.309091 95.256786 
C 958.465105 95.256786 955.737218 96.386714 953.726215 98.397716 
C 951.715213 100.408718 950.585286 103.136605 950.585286 105.980592 
C 950.585286 108.824578 951.715213 111.552465 953.726215 113.563467 
C 955.737218 115.574469 958.465105 116.704397 961.309091 116.704397 
z
" clip-path="url(#p8f47d764d1)" style="fill: #1f77b4; fill-opacity: 0.3; stroke: #1f77b4; stroke-opacity: 0.3"/>
    <path d="M 970.036364 109.342438 
C 972.047366 109.342438 973.976273 108.543459 975.398266 107.121466 
C 976.820259 105.699472 977.619239 103.770565 977.619239 101.759563 
C 977.619239 99.748561 976.820259 97.819654 975.398266 96.39766 
C 973.976273 94.975667 972.047366 94.176688 970.036364 94.176688 
C 968.025362 94.176688 966.096454 94.975667 964.674461 96.39766 
C 963.252468 97.819654 962.453488 99.748561 962.453488 101.759563 
C 962.453488 103.770565 963.252468 105.699472 964.674461 107.121466 
C 966.096454 108.543459 968.025362 109.342438 970.036364 109.342438 
z
" clip-path="url(#p8f47d764d1)" style="fill: #1f77b4; fill-opacity: 0.3; stroke: #1f77b4; stroke-opacity: 0.3"/>
    <path d="M 978.763636 105.020281 
C 980.942502 105.020281 983.032421 104.154608 984.573111 102.613917 
C 986.113802 101.073227 986.979475 98.983308 986.979475 96.804442 
C 986.979475 94.625577 986.113802 92.535658 984.573111 90.994967 
C 983.032421 89.454277 980.942502 88.588604 978.763636 88.588604 
C 976.584771 88.588604 974.494852 89.454277 972.954161 90.994967 
C 971.413471 92.535658 970.547798 94.625577 970.547798 96.804442 
C 970.547798 98.983308 971.413471 101.073227 972.954161 102.613917 
C 974.494852 104.154608 976.584771 105.020281 978.763636 105.020281 
z
" clip-path="url(#p8f47d764d1)" style="fill: #1f77b4; fill-opacity: 0.3; stroke: #1f77b4; stroke-opacity: 0.3"/>
    <path d="M 987.490909 100.166289 
C 989.501911 100.166289 991.430819 99.36731 992.852812 97.945316 
C 994.274805 96.523323 995.073785 94.594416 995.073785 92.583414 
C 995.073785 90.572412 994.274805 88.643504 992.852812 87.221511 
C 991.430819 85.799518 989.501911 85.000538 987.490909 85.000538 
C 985.479907 85.000538 983.551 85.799518 982.129006 87.221511 
C 980.707013 88.643504 979.908034 90.572412 979.908034 92.583414 
C 979.908034 94.594416 980.707013 96.523323 982.129006 97.945316 
C 983.551 99.36731 985.479907 100.166289 987.490909 100.166289 
z
" clip-path="url(#p8f47d764d1)" style="fill: #1f77b4; fill-opacity: 0.3; stroke: #1f77b4; stroke-opacity: 0.3"/>
    <path d="M 996.218182 95.988204 
C 997.997218 95.988204 999.70363 95.281385 1000.961598 94.023416 
C 1002.219567 92.765448 1002.926386 91.059036 1002.926386 89.28 
C 1002.926386 87.500964 1002.219567 85.794552 1000.961598 84.536584 
C 999.70363 83.278615 997.997218 82.571796 996.218182 82.571796 
C 994.439145 82.571796 992.732734 83.278615 991.474765 84.536584 
C 990.216797 85.794552 989.509978 87.500964 989.509978 89.28 
C 989.509978 91.059036 990.216797 92.765448 991.474765 94.023416 
C 992.732734 95.281385 994.439145 95.988204 996.218182 95.988204 
z
" clip-path="url(#p8f47d764d1)" style="fill: #1f77b4; fill-opacity: 0.3; stroke: #1f77b4; stroke-opacity: 0.3"/>
   </g>
   <g id="matplotlib.axis_1">
    <g id="xtick_1">
     <g id="line2d_1">
      <defs>
       <path id="mba1fce575a" d="M 0 0 
L 0 3.5 
" style="stroke: #000000; stroke-width: 0.8"/>
      </defs>
      <g>
       <use xlink:href="#mba1fce575a" x="184.581818" y="512.64" style="stroke: #000000; stroke-width: 0.8"/>
      </g>
     </g>
     <g id="text_1">
      <!-- 2026-01-01 -->
      <g transform="translate(155.524006 527.238438) scale(0.1 -0.1)">
       <defs>
        <path id="DejaVuSans-32" d="M 1228 531 
L 3431 531 
L 3431 0 
L 469 0 
L 469 531 
Q 828 903 1448 1529 
Q 2069 2156 2228 2338 
Q 2531 2678 2651 2914 
Q 2772 3150 2772 3378 
Q 2772 3750 2511 3984 
Q 2250 4219 1831 4219 
Q 1534 4219 1204 4116 
Q 875 4013 500 3803 
L 500 4441 
Q 881 4594 1212 4672 
Q 1544 4750 1819 4750 
Q 2544 4750 2975 4387 
Q 3406 4025 3406 3419 
Q 3406 3131 3298 2873 
Q 3191 2616 2906 2266 
Q 2828 2175 2409 1742 
Q 1991 1309 1228 531 
z
" transform="scale(0.015625)"/>
        <path id="DejaVuSans-30" d="M 2034 4250 
Q 1547 4250 1301 3770 
Q 1056 3291 1056 2328 
Q 1056 1369 1301 889 
Q 1547 409 2034 409 
Q 2525 409 2770 889 
Q 3016 1369 3016 2328 
Q 3016 3291 2770 3770 
Q 2525 4250 2034 4250 
z
M 2034 4750 
Q 2819 4750 3233 4129 
Q 3647 3509 3647 2328 
Q 3647 1150 3233 529 
Q 2819 -91 2034 -91 
Q 1250 -91 836 529 
Q 422 1150 422 2328 
Q 422 3509 836 4129 
Q 1250 4750 2034 4750 
z
" transform="scale(0.015625)"/>
        <path id="DejaVuSans-36" d="M 2113 2584 
Q 1688 2584 1439 2293 
Q 1191 2003 1191 1497 
Q 1191 994 1439 701 
Q 1688 409 2113 409 
Q 2538 409 2786 701 
Q 3034 994 3034 1497 
Q 3034 2003 2786 2293 
Q 2538 2584 2113 2584 
z
M 3366 4563 
L 3366 3988 
Q 3128 4100 2886 4159 
Q 2644 4219 2406 4219 
Q 1781 4219 1451 3797 
Q 1122 3375 1075 2522 
Q 1259 2794 1537 2939 
Q 1816 3084 2150 3084 
Q 2853 3084 3261 2657 
Q 3669 2231 3669 1497 
Q 3669 778 3244 343 
Q 2819 -91 2113 -91 
Q 1303 -91 875 529 
Q 447 1150 447 2328 
Q 447 3434 972 4092 
Q 1497 4750 2381 4750 
Q 2619 4750 2861 4703 
Q 3103 4656 3366 4563 
z
" transform="scale(0.015625)"/>
        <path id="DejaVuSans-2d" d="M 313 2009 
L 1997 2009 
L 1997 1497 
L 313 1497 
L 313 2009 
z
" transform="scale(0.015625)"/>
        <path id="DejaVuSans-31" d="M 794 531 
L 1825 531 
L 1825 4091 
L 703 3866 
L 703 4441 
L 1819 4666 
L 2450 4666 
L 2450 531 
L 3481 531 
L 3481 0 
L 794 0 
L 794 531 
z
" transform="scale(0.015625)"/>
       </defs>
       <use xlink:href="#DejaVuSans-32"/>
       <use xlink:href="#DejaVuSans-30" x="63.623047"/>
       <use xlink:href="#DejaVuSans-32" x="127.246094"/>
       <use xlink:href="#DejaVuSans-36" x="190.869141"/>
       <use xlink:href="#DejaVuSans-2d" x="254.492188"/>
       <use xlink:href="#DejaVuSans-30" x="290.576172"/>
       <use xlink:href="#DejaVuSans-31" x="354.199219"/>
       <use xlink:href="#DejaVuSans-2d" x="417.822266"/>
       <use xlink:href="#DejaVuSans-30" x="453.90625"/>
       <use xlink:href="#DejaVuSans-31" x="517.529297"/>
      </g>
     </g>
    </g>
    <g id="xtick_2">
     <g id="line2d_2">
      <g>
       <use xlink:href="#mba1fce575a" x="306.763636" y="512.64" style="stroke: #000000; stroke-width: 0.8"/>
      </g>
     </g>
     <g id="text_2">
      <!-- 2026-01-15 -->
      <g transform="translate(277.705824 527.238438) scale(0.1 -0.1)">
       <defs>
        <path id="DejaVuSans-35" d="M 691 4666 
L 3169 4666 
L 3169 4134 
L 1269 4134 
L 1269 2991 
Q 1406 3038 1543 3061 
Q 1681 3084 1819 3084 
Q 2600 3084 3056 2656 
Q 3513 2228 3513 1497 
Q 3513 744 3044 326 
Q 2575 -91 1722 -91 
Q 1428 -91 1123 -41 
Q 819 9 494 109 
L 494 744 
Q 775 591 1075 516 
Q 1375 441 1709 441 
Q 2250 441 2565 725 
Q 2881 1009 2881 1497 
Q 2881 1984 2565 2268 
Q 2250 2553 1709 2553 
Q 1456 2553 1204 2497 
Q 953 2441 691 2322 
L 691 4666 
z
" transform="scale(0.015625)"/>
       </defs>
       <use xlink:href="#DejaVuSans-32"/>
       <use xlink:href="#DejaVuSans-30" x="63.623047"/>
       <use xlink:href="#DejaVuSans-32" x="127.246094"/>
       <use xlink:href="#DejaVuSans-36" x="190.869141"/>
       <use xlink:href="#DejaVuSans-2d" x="254.492188"/>
       <use xlink:href="#DejaVuSans-30" x="290.576172"/>
       <use xlink:href="#DejaVuSans-31" x="354.199219"/>
       <use xlink:href="#DejaVuSans-2d" x="417.822266"/>
       <use xlink:href="#DejaVuSans-31" x="453.90625"/>
       <use xlink:href="#DejaVuSans-35" x="517.529297"/>
      </g>
     </g>
    </g>
    <g id="xtick_3">
     <g id="line2d_3">
      <g>
       <use xlink:href="#mba1fce575a" x="455.127273" y="512.64" style="stroke: #000000; stroke-width: 0.8"/>
      </g>
     </g>
     <g id="text_3">
      <!-- 2026-02-01 -->
      <g transform="translate(426.06946 527.238438) scale(0.1 -0.1)">
       <use xlink:href="#DejaVuSans-32"/>
       <use xlink:href="#DejaVuSans-30" x="63.623047"/>
       <use xlink:href="#DejaVuSans-32" x="127.246094"/>
       <use xlink:href="#DejaVuSans-36" x="190.869141"/>
       <use xlink:href="#DejaVuSans-2d" x="254.492188"/>
       <use xlink:href="#DejaVuSans-30" x="290.576172"/>
       <use xlink:href="#DejaVuSans-32" x="354.199219"/>
       <use xlink:href="#DejaVuSans-2d" x="417.822266"/>
       <use xlink:href="#DejaVuSans-30" x="453.90625"/>
       <use xlink:href="#DejaVuSans-31" x="517.529297"/>
      </g>
     </g>
    </g>
    <g id="xtick_4">
     <g id="line2d_4">
      <g>
       <use xlink:href="#mba1fce575a" x="577.309091" y="512.64" style="stroke: #000000; stroke-width: 0.8"/>
      </g>
     </g>
     <g id="text_4">
      <!-- 2026-02-15 -->
      <g transform="translate(548.251278 527.238438) scale(0.1 -0.1)">
       <use xlink:href="#DejaVuSans-32"/>
       <use xlink:href="#DejaVuSans-30" x="63.623047"/>
       <use xlink:href="#DejaVuSans-32" x="127.246094"/>
       <use xlink:href="#DejaVuSans-36" x="190.869141"/>
       <use xlink:href="#DejaVuSans-2d" x="254.492188"/>
       <use xlink:href="#DejaVuSans-30" x="290.576172"/>
       <use xlink:href="#DejaVuSans-32" x="354.199219"/>
       <use xlink:href="#DejaVuSans-2d" x="417.822266"/>
       <use xlink:href="#DejaVuSans-31" x="453.90625"/>
       <use xlink:href="#DejaVuSans-35" x="517.529297"/>
      </g>
     </g>
    </g>
    <g id="xtick_5">
     <g id="line2d_5">
      <g>
       <use xlink:href="#mba1fce575a" x="699.490909" y="512.64" style="stroke: #000000; stroke-width: 0.8"/>
      </g>
     </g>
     <g id="text_5">
      <!-- 2026-03-01 -->
      <g transform="translate(670.433097 527.238438) scale(0.1 -0.1)">
       <defs>
        <path id="DejaVuSans-33" d="M 2597 2516 
Q 3050 2419 3304 2112 
Q 3559 1806 3559 1356 
Q 3559 666 3084 287 
Q 2609 -91 1734 -91 
Q 1441 -91 1130 -33 
Q 819 25 488 141 
L 488 750 
Q 750 597 1062 519 
Q 1375 441 1716 441 
Q 2309 441 2620 675 
Q 2931 909 2931 1356 
Q 2931 1769 2642 2001 
Q 2353 2234 1838 2234 
L 1294 2234 
L 1294 2753 
L 1863 2753 
Q 2328 2753 2575 2939 
Q 2822 3125 2822 3475 
Q 2822 3834 2567 4026 
Q 2313 4219 1838 4219 
Q 1578 4219 1281 4162 
Q 984 4106 628 3988 
L 628 4550 
Q 988 4650 1302 4700 
Q 1616 4750 1894 4750 
Q 2613 4750 3031 4423 
Q 3450 4097 3450 3541 
Q 3450 3153 3228 2886 
Q 3006 2619 2597 2516 
z
" transform="scale(0.015625)"/>
       </defs>
       <use xlink:href="#DejaVuSans-32"/>
       <use xlink:href="#DejaVuSans-30" x="63.623047"/>
       <use xlink:href="#DejaVuSans-32" x="127.246094"/>
       <use xlink:href="#DejaVuSans-36" x="190.869141"/>
       <use xlink:href="#DejaVuSans-2d" x="254.492188"/>
       <use xlink:href="#DejaVuSans-30" x="290.576172"/>
       <use xlink:href="#DejaVuSans-33" x="354.199219"/>
       <use xlink:href="#DejaVuSans-2d" x="417.822266"/>
       <use xlink:href="#DejaVuSans-30" x="453.90625"/>
       <use xlink:href="#DejaVuSans-31" x="517.529297"/>
      </g>
     </g>
    </g>
    <g id="xtick_6">
     <g id="line2d_6">
      <g>
       <use xlink:href="#mba1fce575a" x="821.672727" y="512.64" style="stroke: #000000; stroke-width: 0.8"/>
      </g>
     </g>
     <g id="text_6">
      <!-- 2026-03-15 -->
      <g transform="translate(792.614915 527.238438) scale(0.1 -0.1)">
       <use xlink:href="#DejaVuSans-32"/>
       <use xlink:href="#DejaVuSans-30" x="63.623047"/>
       <use xlink:href="#DejaVuSans-32" x="127.246094"/>
       <use xlink:href="#DejaVuSans-36" x="190.869141"/>
       <use xlink:href="#DejaVuSans-2d" x="254.492188"/>
       <use xlink:href="#DejaVuSans-30" x="290.576172"/>
       <use xlink:href="#DejaVuSans-33" x="354.199219"/>
       <use xlink:href="#DejaVuSans-2d" x="417.822266"/>
       <use xlink:href="#DejaVuSans-31" x="453.90625"/>
       <use xlink:href="#DejaVuSans-35" x="517.529297"/>
      </g>
     </g>
    </g>
    <g id="xtick_7">
     <g id="line2d_7">
      <g>
       <use xlink:href="#mba1fce575a" x="970.036364" y="512.64" style="stroke: #000000; stroke-width: 0.8"/>
      </g>
     </g>
     <g id="text_7">
      <!-- 2026-04-01 -->
      <g transform="translate(940.978551 527.238438) scale(0.1 -0.1)">
       <defs>
        <path id="DejaVuSans-34" d="M 2419 4116 
L 825 1625 
L 2419 1625 
L 2419 4116 
z
M 2253 4666 
L 3047 4666 
L 3047 1625 
L 3713 1625 
L 3713 1100 
L 3047 1100 
L 3047 0 
L 2419 0 
L 2419 1100 
L 313 1100 
L 313 1709 
L 2253 4666 
z
" transform="scale(0.015625)"/>
       </defs>
       <use xlink:href="#DejaVuSans-32"/>
       <use xlink:href="#DejaVuSans-30" x="63.623047"/>
       <use xlink:href="#DejaVuSans-32" x="127.246094"/>
       <use xlink:href="#DejaVuSans-36" x="190.869141"/>
       <use xlink:href="#DejaVuSans-2d" x="254.492188"/>
       <use xlink:href="#DejaVuSans-30" x="290.576172"/>
       <use xlink:href="#DejaVuSans-34" x="354.199219"/>
       <use xlink:href="#DejaVuSans-2d" x="417.822266"/>
       <use xlink:href="#DejaVuSans-30" x="453.90625"/>
       <use xlink:href="#DejaVuSans-31" x="517.529297"/>
      </g>
     </g>
    </g>
   </g>
   <g id="matplotlib.axis_2">
    <g id="ytick_1">
     <g id="line2d_8">
      <defs>
       <path id="mc7245f1170" d="M 0 0 
L -3.5 0 
" style="stroke: #000000; stroke-width: 0.8"/>
      </defs>
      <g>
       <use xlink:href="#mc7245f1170" x="144" y="486.240218" style="stroke: #000000; stroke-width: 0.8"/>
      </g>
     </g>
     <g id="text_8">
      <!-- 13000 -->
      <g transform="translate(105.1875 490.039437) scale(0.1 -0.1)">
       <use xlink:href="#DejaVuSans-31"/>
       <use xlink:href="#DejaVuSans-33" x="63.623047"/>
       <use xlink:href="#DejaVuSans-30" x="127.246094"/>
       <use xlink:href="#DejaVuSans-30" x="190.869141"/>
       <use xlink:href="#DejaVuSans-30" x="254.492188"/>
      </g>
     </g>
    </g>
    <g id="ytick_2">
     <g id="line2d_9">
      <g>
       <use xlink:href="#mc7245f1170" x="144" y="394.478726" style="stroke: #000000; stroke-width: 0.8"/>
      </g>
     </g>
     <g id="text_9">
      <!-- 13500 -->
      <g transform="translate(105.1875 398.277944) scale(0.1 -0.1)">
       <use xlink:href="#DejaVuSans-31"/>
       <use xlink:href="#DejaVuSans-33" x="63.623047"/>
       <use xlink:href="#DejaVuSans-35" x="127.246094"/>
       <use xlink:href="#DejaVuSans-30" x="190.869141"/>
       <use xlink:href="#DejaVuSans-30" x="254.492188"/>
      </g>
     </g>
    </g>
    <g id="ytick_3">
     <g id="line2d_10">
      <g>
       <use xlink:href="#mc7245f1170" x="144" y="302.717233" style="stroke: #000000; stroke-width: 0.8"/>
      </g>
     </g>
     <g id="text_10">
      <!-- 14000 -->
      <g transform="translate(105.1875 306.516451) scale(0.1 -0.1)">
       <use xlink:href="#DejaVuSans-31"/>
       <use xlink:href="#DejaVuSans-34" x="63.623047"/>
       <use xlink:href="#DejaVuSans-30" x="127.246094"/>
       <use xlink:href="#DejaVuSans-30" x="190.869141"/>
       <use xlink:href="#DejaVuSans-30" x="254.492188"/>
      </g>
     </g>
    </g>
    <g id="ytick_4">
     <g id="line2d_11">
      <g>
       <use xlink:href="#mc7245f1170" x="144" y="210.95574" style="stroke: #000000; stroke-width: 0.8"/>
      </g>
     </g>
     <g id="text_11">
      <!-- 14500 -->
      <g transform="translate(105.1875 214.754958) scale(0.1 -0.1)">
       <use xlink:href="#DejaVuSans-31"/>
       <use xlink:href="#DejaVuSans-34" x="63.623047"/>
       <use xlink:href="#DejaVuSans-35" x="127.246094"/>
       <use xlink:href="#DejaVuSans-30" x="190.869141"/>
       <use xlink:href="#DejaVuSans-30" x="254.492188"/>
      </g>
     </g>
    </g>
    <g id="ytick_5">
     <g id="line2d_12">
      <g>
       <use xlink:href="#mc7245f1170" x="144" y="119.194247" style="stroke: #000000; stroke-width: 0.8"/>
      </g>
     </g>
     <g id="text_12">
      <!-- 15000 -->
      <g transform="translate(105.1875 122.993465) scale(0.1 -0.1)">
       <use xlink:href="#DejaVuSans-31"/>
       <use xlink:href="#DejaVuSans-35" x="63.623047"/>
       <use xlink:href="#DejaVuSans-30" x="127.246094"/>
       <use xlink:href="#DejaVuSans-30" x="190.869141"/>
       <use xlink:href="#DejaVuSans-30" x="254.492188"/>
      </g>
     </g>
    </g>
   </g>
   <g id="line2d_13">
    <path d="M 184.581818 492.48 
L 193.309091 489.360109 
L 202.036364 484.221466 
L 210.763636 482.202713 
L 219.490909 481.285098 
L 228.218182 478.165207 
L 236.945455 475.412362 
L 245.672727 468.254966 
L 254.4 464.768029 
L 263.127273 463.116322 
L 271.854545 462.749276 
L 280.581818 455.775403 
L 289.309091 451.187328 
L 298.036364 448.801529 
L 306.763636 443.112317 
L 315.490909 435.220828 
L 324.218182 434.486736 
L 332.945455 432.651507 
L 341.672727 427.696386 
L 350.4 425.49411 
L 359.127273 416.317961 
L 367.854545 411.546363 
L 376.581818 407.141812 
L 385.309091 401.819645 
L 394.036364 401.085553 
L 402.763636 400.351461 
L 411.490909 393.744634 
L 420.218182 384.568484 
L 428.945455 378.695749 
L 437.672727 373.740628 
L 446.4 373.006536 
L 455.127273 370.987783 
L 463.854545 367.317324 
L 472.581818 362.912772 
L 481.309091 361.444588 
L 490.036364 356.305944 
L 498.763636 353.186054 
L 507.490909 351.167301 
L 516.218182 344.193427 
L 524.945455 341.991152 
L 533.672727 335.75137 
L 542.4 332.08091 
L 551.127273 329.878635 
L 559.854545 326.391698 
L 568.581818 324.739991 
L 577.309091 317.94964 
L 586.036364 309.140537 
L 594.763636 307.48883 
L 603.490909 303.818371 
L 612.218182 300.147911 
L 620.945455 296.844497 
L 629.672727 293.35756 
L 638.4 288.035394 
L 647.127273 282.713227 
L 655.854545 274.821739 
L 664.581818 271.151279 
L 673.309091 260.506946 
L 682.036364 256.285917 
L 690.763636 254.083641 
L 699.490909 250.413182 
L 708.218182 245.458061 
L 716.945455 241.787601 
L 725.672727 236.465435 
L 734.4 233.529067 
L 743.127273 229.675084 
L 751.854545 226.37167 
L 760.581818 223.985872 
L 769.309091 212.607447 
L 778.036364 209.12051 
L 786.763636 201.229021 
L 795.490909 195.723332 
L 804.218182 192.236395 
L 812.945455 189.48355 
L 821.672727 187.64832 
L 830.4 183.794338 
L 839.127273 178.472171 
L 847.854545 174.434665 
L 856.581818 167.460792 
L 865.309091 162.689194 
L 874.036364 157.367028 
L 882.763636 154.43066 
L 891.490909 145.988603 
L 900.218182 134.059609 
L 908.945455 130.205626 
L 917.672727 123.048229 
L 926.4 118.276632 
L 935.127273 116.991971 
L 943.854545 116.074356 
L 952.581818 114.422649 
L 961.309091 105.980592 
L 970.036364 101.759563 
L 978.763636 96.804442 
L 987.490909 92.583414 
L 996.218182 89.28 
" clip-path="url(#p8f47d764d1)" style="fill: none; stroke: #1f77b4; stroke-width: 1.5; stroke-linecap: square"/>
   </g>
   <g id="patch_3">
    <path d="M 144 512.64 
L 144 69.12 
" style="fill: none; stroke: #000000; stroke-width: 0.8; stroke-linejoin: miter; stroke-linecap: square"/>
   </g>
   <g id="patch_4">
    <path d="M 1036.8 512.64 
L 1036.8 69.12 
" style="fill: none; stroke: #000000; stroke-width: 0.8; stroke-linejoin: miter; stroke-linecap: square"/>
   </g>
   <g id="patch_5">
    <path d="M 144 512.64 
L 1036.8 512.64 
" style="fill: none; stroke: #000000; stroke-width: 0.8; stroke-linejoin: miter; stroke-linecap: square"/>
   </g>
   <g id="patch_6">
    <path d="M 144 69.12 
L 1036.8 69.12 
" style="fill: none; stroke: #000000; stroke-width: 0.8; stroke-linejoin: miter; stroke-linecap: square"/>
   </g>
   <g id="text_13">
    <!-- Number of AEDs in the OpenStreetMap database in Poland from 2026-01-01, day by day. As at: 2026-04-04 -->
    <g transform="translate(144 63.12) scale(0.14 -0.14)">
     <defs>
      <path id="DejaVuSans-4e" d="M 628 4666 
L 1478 4666 
L 3547 763 
L 3547 4666 
L 4159 4666 
L 4159 0 
L 3309 0 
L 1241 3903 
L 1241 0 
L 628 0 
L 628 4666 
z
" transform="scale(0.015625)"/>
      <path id="DejaVuSans-75" d="M 544 1381 
L 544 3500 
L 1119 3500 
L 1119 1403 
Q 1119 906 1312 657 
Q 1506 409 1894 409 
Q 2359 409 2629 706 
Q 2900 1003 2900 1516 
L 2900 3500 
L 3475 3500 
L 3475 0 
L 2900 0 
L 2900 538 
Q 2691 219 2414 64 
Q 2138 -91 1772 -91 
Q 1169 -91 856 284 
Q 544 659 544 1381 
z
M 1991 3584 
L 1991 3584 
z
" transform="scale(0.015625)"/>
      <path id="DejaVuSans-6d" d="M 3328 2828 
Q 3544 3216 3844 3400 
Q 4144 3584 4550 3584 
Q 5097 3584 5394 3201 
Q 5691 2819 5691 2113 
L 5691 0 
L 5113 0 
L 5113 2094 
Q 5113 2597 4934 2840 
Q 4756 3084 4391 3084 
Q 3944 3084 3684 2787 
Q 3425 2491 3425 1978 
L 3425 0 
L 2847 0 
L 2847 2094 
Q 2847 2600 2669 2842 
Q 2491 3084 2119 3084 
Q 1678 3084 1418 2786 
Q 1159 2488 1159 1978 
L 1159 0 
L 581 0 
L 581 3500 
L 1159 3500 
L 1159 2956 
Q 1356 3278 1631 3431 
Q 1906 3584 2284 3584 
Q 2666 3584 2933 3390 
Q 3200 3197 3328 2828 
z
" transform="scale(0.015625)"/>
      <path id="DejaVuSans-62" d="M 3116 1747 
Q 3116 2381 2855 2742 
Q 2594 3103 2138 3103 
Q 1681 3103 1420 2742 
Q 1159 2381 1159 1747 
Q 1159 1113 1420 752 
Q 1681 391 2138 391 
Q 2594 391 2855 752 
Q 3116 1113 3116 1747 
z
M 1159 2969 
Q 1341 3281 1617 3432 
Q 1894 3584 2278 3584 
Q 2916 3584 3314 3078 
Q 3713 2572 3713 1747 
Q 3713 922 3314 415 
Q 2916 -91 2278 -91 
Q 1894 -91 1617 61 
Q 1341 213 1159 525 
L 1159 0 
L 581 0 
L 581 4863 
L 1159 4863 
L 1159 2969 
z
" transform="scale(0.015625)"/>
      <path id="DejaVuSans-65" d="M 3597 1894 
L 3597 1613 
L 953 1613 
Q 991 1019 1311 708 
Q 1631 397 2203 397 
Q 2534 397 2845 478 
Q 3156 559 3463 722 
L 3463 178 
Q 3153 47 2828 -22 
Q 2503 -91 2169 -91 
Q 1331 -91 842 396 
Q 353 884 353 1716 
Q 353 2575 817 3079 
Q 1281 3584 2069 3584 
Q 2775 3584 3186 3129 
Q 3597 2675 3597 1894 
z
M 3022 2063 
Q 3016 2534 2758 2815 
Q 2500 3097 2075 3097 
Q 1594 3097 1305 2825 
Q 1016 2553 972 2059 
L 3022 2063 
z
" transform="scale(0.015625)"/>
      <path id="DejaVuSans-72" d="M 2631 2963 
Q 2534 3019 2420 3045 
Q 2306 3072 2169 3072 
Q 1681 3072 1420 2755 
Q 1159 2438 1159 1844 
L 1159 0 
L 581 0 
L 581 3500 
L 1159 3500 
L 1159 2956 
Q 1341 3275 1631 3429 
Q 1922 3584 2338 3584 
Q 2397 3584 2469 3576 
Q 2541 3569 2628 3553 
L 2631 2963 
z
" transform="scale(0.015625)"/>
      <path id="DejaVuSans-20" transform="scale(0.015625)"/>
      <path id="DejaVuSans-6f" d="M 1959 3097 
Q 1497 3097 1228 2736 
Q 959 2375 959 1747 
Q 959 1119 1226 758 
Q 1494 397 1959 397 
Q 2419 397 2687 759 
Q 2956 1122 2956 1747 
Q 2956 2369 2687 2733 
Q 2419 3097 1959 3097 
z
M 1959 3584 
Q 2709 3584 3137 3096 
Q 3566 2609 3566 1747 
Q 3566 888 3137 398 
Q 2709 -91 1959 -91 
Q 1206 -91 779 398 
Q 353 888 353 1747 
Q 353 2609 779 3096 
Q 1206 3584 1959 3584 
z
" transform="scale(0.015625)"/>
      <path id="DejaVuSans-66" d="M 2375 4863 
L 2375 4384 
L 1825 4384 
Q 1516 4384 1395 4259 
Q 1275 4134 1275 3809 
L 1275 3500 
L 2222 3500 
L 2222 3053 
L 1275 3053 
L 1275 0 
L 697 0 
L 697 3053 
L 147 3053 
L 147 3500 
L 697 3500 
L 697 3744 
Q 697 4328 969 4595 
Q 1241 4863 1831 4863 
L 2375 4863 
z
" transform="scale(0.015625)"/>
      <path id="DejaVuSans-41" d="M 2188 4044 
L 1331 1722 
L 3047 1722 
L 2188 4044 
z
M 1831 4666 
L 2547 4666 
L 4325 0 
L 3669 0 
L 3244 1197 
L 1141 1197 
L 716 0 
L 50 0 
L 1831 4666 
z
" transform="scale(0.015625)"/>
      <path id="DejaVuSans-45" d="M 628 4666 
L 3578 4666 
L 3578 4134 
L 1259 4134 
L 1259 2753 
L 3481 2753 
L 3481 2222 
L 1259 2222 
L 1259 531 
L 3634 531 
L 3634 0 
L 628 0 
L 628 4666 
z
" transform="scale(0.015625)"/>
      <path id="DejaVuSans-44" d="M 1259 4147 
L 1259 519 
L 2022 519 
Q 2988 519 3436 956 
Q 3884 1394 3884 2338 
Q 3884 3275 3436 3711 
Q 2988 4147 2022 4147 
L 1259 4147 
z
M 628 4666 
L 1925 4666 
Q 3281 4666 3915 4102 
Q 4550 3538 4550 2338 
Q 4550 1131 3912 565 
Q 3275 0 1925 0 
L 628 0 
L 628 4666 
z
" transform="scale(0.015625)"/>
      <path id="DejaVuSans-73" d="M 2834 3397 
L 2834 2853 
Q 2591 2978 2328 3040 
Q 2066 3103 1784 3103 
Q 1356 3103 1142 2972 
Q 928 2841 928 2578 
Q 928 2378 1081 2264 
Q 1234 2150 1697 2047 
L 1894 2003 
Q 2506 1872 2764 1633 
Q 3022 1394 3022 966 
Q 3022 478 2636 193 
Q 2250 -91 1575 -91 
Q 1294 -91 989 -36 
Q 684 19 347 128 
L 347 722 
Q 666 556 975 473 
Q 1284 391 1588 391 
Q 1994 391 2212 530 
Q 2431 669 2431 922 
Q 2431 1156 2273 1281 
Q 2116 1406 1581 1522 
L 1381 1569 
Q 847 1681 609 1914 
Q 372 2147 372 2553 
Q 372 3047 722 3315 
Q 1072 3584 1716 3584 
Q 2034 3584 2315 3537 
Q 2597 3491 2834 3397 
z
" transform="scale(0.015625)"/>
      <path id="DejaVuSans-69" d="M 603 3500 
L 1178 3500 
L 1178 0 
L 603 0 
L 603 3500 
z
M 603 4863 
L 1178 4863 
L 1178 4134 
L 603 4134 
L 603 4863 
z
" transform="scale(0.015625)"/>
      <path id="DejaVuSans-6e" d="M 3513 2113 
L 3513 0 
L 2938 0 
L 2938 2094 
Q 2938 2591 2744 2837 
Q 2550 3084 2163 3084 
Q 1697 3084 1428 2787 
Q 1159 2491 1159 1978 
L 1159 0 
L 581 0 
L 581 3500 
L 1159 3500 
L 1159 2956 
Q 1366 3272 1645 3428 
Q 1925 3584 2291 3584 
Q 2894 3584 3203 3211 
Q 3513 2838 3513 2113 
z
" transform="scale(0.015625)"/>
      <path id="DejaVuSans-74" d="M 1172 4494 
L 1172 3500 
L 2356 3500 
L 2356 3053 
L 1172 3053 
L 1172 1153 
Q 1172 725 1289 603 
Q 1406 481 1766 481 
L 2356 481 
L 2356 0 
L 1766 0 
Q 1100 0 847 248 
Q 594 497 594 1153 
L 594 3053 
L 172 3053 
L 172 3500 
L 594 3500 
L 594 4494 
L 1172 4494 
z
" transform="scale(0.015625)"/>
      <path id="DejaVuSans-68" d="M 3513 2113 
L 3513 0 
L 2938 0 
L 2938 2094 
Q 2938 2591 2744 2837 
Q 2550 3084 2163 3084 
Q 1697 3084 1428 2787 
Q 1159 2491 1159 1978 
L 1159 0 
L 581 0 
L 581 4863 
L 1159 4863 
L 1159 2956 
Q 1366 3272 1645 3428 
Q 1925 3584 2291 3584 
Q 2894 3584 3203 3211 
Q 3513 2838 3513 2113 
z
" transform="scale(0.015625)"/>
      <path id="DejaVuSans-4f" d="M 2522 4238 
Q 1834 4238 1429 3725 
Q 1025 3213 1025 2328 
Q 1025 1447 1429 934 
Q 1834 422 2522 422 
Q 3209 422 3611 934 
Q 4013 1447 4013 2328 
Q 4013 3213 3611 3725 
Q 3209 4238 2522 4238 
z
M 2522 4750 
Q 3503 4750 4090 4092 
Q 4678 3434 4678 2328 
Q 4678 1225 4090 567 
Q 3503 -91 2522 -91 
Q 1538 -91 948 565 
Q 359 1222 359 2328 
Q 359 3434 948 4092 
Q 1538 4750 2522 4750 
z
" transform="scale(0.015625)"/>
      <path id="DejaVuSans-70" d="M 1159 525 
L 1159 -1331 
L 581 -1331 
L 581 3500 
L 1159 3500 
L 1159 2969 
Q 1341 3281 1617 3432 
Q 1894 3584 2278 3584 
Q 2916 3584 3314 3078 
Q 3713 2572 3713 1747 
Q 3713 922 3314 415 
Q 2916 -91 2278 -91 
Q 1894 -91 1617 61 
Q 1341 213 1159 525 
z
M 3116 1747 
Q 3116 2381 2855 2742 
Q 2594 3103 2138 3103 
Q 1681 3103 1420 2742 
Q 1159 2381 1159 1747 
Q 1159 1113 1420 752 
Q 1681 391 2138 391 
Q 2594 391 2855 752 
Q 3116 1113 3116 1747 
z
" transform="scale(0.015625)"/>
      <path id="DejaVuSans-53" d="M 3425 4513 
L 3425 3897 
Q 3066 4069 2747 4153 
Q 2428 4238 2131 4238 
Q 1616 4238 1336 4038 
Q 1056 3838 1056 3469 
Q 1056 3159 1242 3001 
Q 1428 2844 1947 2747 
L 2328 2669 
Q 3034 2534 3370 2195 
Q 3706 1856 3706 1288 
Q 3706 609 3251 259 
Q 2797 -91 1919 -91 
Q 1588 -91 1214 -16 
Q 841 59 441 206 
L 441 856 
Q 825 641 1194 531 
Q 1563 422 1919 422 
Q 2459 422 2753 634 
Q 3047 847 3047 1241 
Q 3047 1584 2836 1778 
Q 2625 1972 2144 2069 
L 1759 2144 
Q 1053 2284 737 2584 
Q 422 2884 422 3419 
Q 422 4038 858 4394 
Q 1294 4750 2059 4750 
Q 2388 4750 2728 4690 
Q 3069 4631 3425 4513 
z
" transform="scale(0.015625)"/>
      <path id="DejaVuSans-4d" d="M 628 4666 
L 1569 4666 
L 2759 1491 
L 3956 4666 
L 4897 4666 
L 4897 0 
L 4281 0 
L 4281 4097 
L 3078 897 
L 2444 897 
L 1241 4097 
L 1241 0 
L 628 0 
L 628 4666 
z
" transform="scale(0.015625)"/>
      <path id="DejaVuSans-61" d="M 2194 1759 
Q 1497 1759 1228 1600 
Q 959 1441 959 1056 
Q 959 750 1161 570 
Q 1363 391 1709 391 
Q 2188 391 2477 730 
Q 2766 1069 2766 1631 
L 2766 1759 
L 2194 1759 
z
M 3341 1997 
L 3341 0 
L 2766 0 
L 2766 531 
Q 2569 213 2275 61 
Q 1981 -91 1556 -91 
Q 1019 -91 701 211 
Q 384 513 384 1019 
Q 384 1609 779 1909 
Q 1175 2209 1959 2209 
L 2766 2209 
L 2766 2266 
Q 2766 2663 2505 2880 
Q 2244 3097 1772 3097 
Q 1472 3097 1187 3025 
Q 903 2953 641 2809 
L 641 3341 
Q 956 3463 1253 3523 
Q 1550 3584 1831 3584 
Q 2591 3584 2966 3190 
Q 3341 2797 3341 1997 
z
" transform="scale(0.015625)"/>
      <path id="DejaVuSans-64" d="M 2906 2969 
L 2906 4863 
L 3481 4863 
L 3481 0 
L 2906 0 
L 2906 525 
Q 2725 213 2448 61 
Q 2172 -91 1784 -91 
Q 1150 -91 751 415 
Q 353 922 353 1747 
Q 353 2572 751 3078 
Q 1150 3584 1784 3584 
Q 2172 3584 2448 3432 
Q 2725 3281 2906 2969 
z
M 947 1747 
Q 947 1113 1208 752 
Q 1469 391 1925 391 
Q 2381 391 2643 752 
Q 2906 1113 2906 1747 
Q 2906 2381 2643 2742 
Q 2381 3103 1925 3103 
Q 1469 3103 1208 2742 
Q 947 2381 947 1747 
z
" transform="scale(0.015625)"/>
      <path id="DejaVuSans-50" d="M 1259 4147 
L 1259 2394 
L 2053 2394 
Q 2494 2394 2734 2622 
Q 2975 2850 2975 3272 
Q 2975 3691 2734 3919 
Q 2494 4147 2053 4147 
L 1259 4147 
z
M 628 4666 
L 2053 4666 
Q 2838 4666 3239 4311 
Q 3641 3956 3641 3272 
Q 3641 2581 3239 2228 
Q 2838 1875 2053 1875 
L 1259 1875 
L 1259 0 
L 628 0 
L 628 4666 
z
" transform="scale(0.015625)"/>
      <path id="DejaVuSans-6c" d="M 603 4863 
L 1178 4863 
L 1178 0 
L 603 0 
L 603 4863 
z
" transform="scale(0.015625)"/>
      <path id="DejaVuSans-2c" d="M 750 794 
L 1409 794 
L 1409 256 
L 897 -744 
L 494 -744 
L 750 256 
L 750 794 
z
" transform="scale(0.015625)"/>
      <path id="DejaVuSans-79" d="M 2059 -325 
Q 1816 -950 1584 -1140 
Q 1353 -1331 966 -1331 
L 506 -1331 
L 506 -850 
L 844 -850 
Q 1081 -850 1212 -737 
Q 1344 -625 1503 -206 
L 1606 56 
L 191 3500 
L 800 3500 
L 1894 763 
L 2988 3500 
L 3597 3500 
L 2059 -325 
z
" transform="scale(0.015625)"/>
      <path id="DejaVuSans-2e" d="M 684 794 
L 1344 794 
L 1344 0 
L 684 0 
L 684 794 
z
" transform="scale(0.015625)"/>
      <path id="DejaVuSans-3a" d="M 750 794 
L 1409 794 
L 1409 0 
L 750 0 
L 750 794 
z
M 750 3309 
L 1409 3309 
L 1409 2516 
L 750 2516 
L 750 3309 
z
" transform="scale(0.015625)"/>
     </defs>
     <use xlink:href="#DejaVuSans-4e"/>
     <use xlink:href="#DejaVuSans-75" x="74.804688"/>
     <use xlink:href="#DejaVuSans-6d" x="138.183594"/>
     <use xlink:href="#DejaVuSans-62" x="235.595703"/>
     <use xlink:href="#DejaVuSans-65" x="299.072266"/>
     <use xlink:href="#DejaVuSans-72" x="360.595703"/>
     <use xlink:href="#DejaVuSans-20" x="401.708984"/>
     <use xlink:href="#DejaVuSans-6f" x="433.496094"/>
     <use xlink:href="#DejaVuSans-66" x="494.677734"/>
     <use xlink:href="#DejaVuSans-20" x="529.882812"/>
     <use xlink:href="#DejaVuSans-41" x="561.669922"/>
     <use xlink:href="#DejaVuSans-45" x="630.078125"/>
     <use xlink:href="#DejaVuSans-44" x="693.261719"/>
     <use xlink:href="#DejaVuSans-73" x="770.263672"/>
     <use xlink:href="#DejaVuSans-20" x="822.363281"/>
     <use xlink:href="#DejaVuSans-69" x="854.150391"/>
     <use xlink:href="#DejaVuSans-6e" x="881.933594"/>
     <use xlink:href="#DejaVuSans-20" x="945.3125"/>
     <use xlink:href="#DejaVuSans-74" x="977.099609"/>
     <use xlink:href="#DejaVuSans-68" x="1016.308594"/>
     <use xlink:href="#DejaVuSans-65" x="1079.6875"/>
     <use xlink:href="#DejaVuSans-20" x="1141.210938"/>
     <use xlink:href="#DejaVuSans-4f" x="1172.998047"/>
     <use xlink:href="#DejaVuSans-70" x="1251.708984"/>
     <use xlink:href="#DejaVuSans-65" x="1315.185547"/>
     <use xlink:href="#DejaVuSans-6e" x="1376.708984"/>
     <use xlink:href="#DejaVuSans-53" x="1440.087891"/>
     <use xlink:href="#DejaVuSans-74" x="1503.564453"/>
     <use xlink:href="#DejaVuSans-72" x="1542.773438"/>
     <use xlink:href="#DejaVuSans-65" x="1581.636719"/>
     <use xlink:href="#DejaVuSans-65" x="1643.160156"/>
     <use xlink:href="#DejaVuSans-74" x="1704.683594"/>
     <use xlink:href="#DejaVuSans-4d" x="1743.892578"/>
     <use xlink:href="#DejaVuSans-61" x="1830.171875"/>
     <use xlink:href="#DejaVuSans-70" x="1891.451172"/>
     <use xlink:href="#DejaVuSans-20" x="1954.927734"/>
     <use xlink:href="#DejaVuSans-64" x="1986.714844"/>
     <use xlink:href="#DejaVuSans-61" x="2050.191406"/>
     <use xlink:href="#DejaVuSans-74" x="2111.470703"/>
     <use xlink:href="#DejaVuSans-61" x="2150.679688"/>
     <use xlink:href="#DejaVuSans-62" x="2211.958984"/>
     <use xlink:href="#DejaVuSans-61" x="2275.435547"/>
     <use xlink:href="#DejaVuSans-73" x="2336.714844"/>
     <use xlink:href="#DejaVuSans-65" x="2388.814453"/>
     <use xlink:href="#DejaVuSans-20" x="2450.337891"/>
     <use xlink:href="#DejaVuSans-69" x="2482.125"/>
     <use xlink:href="#DejaVuSans-6e" x="2509.908203"/>
     <use xlink:href="#DejaVuSans-20" x="2573.287109"/>
     <use xlink:href="#DejaVuSans-50" x="2605.074219"/>
     <use xlink:href="#DejaVuSans-6f" x="2661.751953"/>
     <use xlink:href="#DejaVuSans-6c" x="2722.933594"/>
     <use xlink:href="#DejaVuSans-61" x="2750.716797"/>
     <use xlink:href="#DejaVuSans-6e" x="2811.996094"/>
     <use xlink:href="#DejaVuSans-64" x="2875.375"/>
     <use xlink:href="#DejaVuSans-20" x="2938.851562"/>
     <use xlink:href="#DejaVuSans-66" x="2970.638672"/>
     <use xlink:href="#DejaVuSans-72" x="3005.84375"/>
     <use xlink:href="#DejaVuSans-6f" x="3044.707031"/>
     <use xlink:href="#DejaVuSans-6d" x="3105.888672"/>
     <use xlink:href="#DejaVuSans-20" x="3203.300781"/>
     <use xlink:href="#DejaVuSans-32" x="3235.087891"/>
     <use xlink:href="#DejaVuSans-30" x="3298.710938"/>
     <use xlink:href="#DejaVuSans-32" x="3362.333984"/>
     <use xlink:href="#DejaVuSans-36" x="3425.957031"/>
     <use xlink:href="#DejaVuSans-2d" x="3489.580078"/>
     <use xlink:href="#DejaVuSans-30" x="3525.664062"/>
     <use xlink:href="#DejaVuSans-31" x="3589.287109"/>
     <use xlink:href="#DejaVuSans-2d" x="3652.910156"/>
     <use xlink:href="#DejaVuSans-30" x="3688.994141"/>
     <use xlink:href="#DejaVuSans-31" x="3752.617188"/>
     <use xlink:href="#DejaVuSans-2c" x="3816.240234"/>
     <use xlink:href="#DejaVuSans-20" x="3848.027344"/>
     <use xlink:href="#DejaVuSans-64" x="3879.814453"/>
     <use xlink:href="#DejaVuSans-61" x="3943.291016"/>
     <use xlink:href="#DejaVuSans-79" x="4004.570312"/>
     <use xlink:href="#DejaVuSans-20" x="4063.75"/>
     <use xlink:href="#DejaVuSans-62" x="4095.537109"/>
     <use xlink:href="#DejaVuSans-79" x="4159.013672"/>
     <use xlink:href="#DejaVuSans-20" x="4218.193359"/>
     <use xlink:href="#DejaVuSans-64" x="4249.980469"/>
     <use xlink:href="#DejaVuSans-61" x="4313.457031"/>
     <use xlink:href="#DejaVuSans-79" x="4374.736328"/>
     <use xlink:href="#DejaVuSans-2e" x="4419.666016"/>
     <use xlink:href="#DejaVuSans-20" x="4451.453125"/>
     <use xlink:href="#DejaVuSans-41" x="4483.240234"/>
     <use xlink:href="#DejaVuSans-73" x="4551.648438"/>
     <use xlink:href="#DejaVuSans-20" x="4603.748047"/>
     <use xlink:href="#DejaVuSans-61" x="4635.535156"/>
     <use xlink:href="#DejaVuSans-74" x="4696.814453"/>
     <use xlink:href="#DejaVuSans-3a" x="4736.023438"/>
     <use xlink:href="#DejaVuSans-20" x="4769.714844"/>
     <use xlink:href="#DejaVuSans-32" x="4801.501953"/>
     <use xlink:href="#DejaVuSans-30" x="4865.125"/>
     <use xlink:href="#DejaVuSans-32" x="4928.748047"/>
     <use xlink:href="#DejaVuSans-36" x="4992.371094"/>
     <use xlink:href="#DejaVuSans-2d" x="5055.994141"/>
     <use xlink:href="#DejaVuSans-30" x="5092.078125"/>
     <use xlink:href="#DejaVuSans-34" x="5155.701172"/>
     <use xlink:href="#DejaVuSans-2d" x="5219.324219"/>
     <use xlink:href="#DejaVuSans-30" x="5255.408203"/>
     <use xlink:href="#DejaVuSans-34" x="5319.03125"/>
    </g>
   </g>
  </g>
 </g>
 <defs>
  <clipPath id="p8f47d764d1">
   <rect x="144" y="69.12" width="892.8" height="443.52"/>
  </clipPath>
 </defs>
</svg>
