<?xml version="1.0" encoding="utf-8" standalone="no"?>
<!DOCTYPE svg PUBLIC "-//W3C//DTD SVG 1.1//EN"
  "http://www.w3.org/Graphics/SVG/1.1/DTD/svg11.dtd">
<svg xmlns:xlink="http://www.w3.org/1999/xlink" width="1152pt" height="576pt" viewBox="0 0 1152 576" xmlns="http://www.w3.org/2000/svg" version="1.1">
 <metadata>
  <rdf:RDF xmlns:dc="http://purl.org/dc/elements/1.1/" xmlns:cc="http://creativecommons.org/ns#" xmlns:rdf="http://www.w3.org/1999/02/22-rdf-syntax-ns#">
   <cc:Work>
    <dc:type rdf:resource="http://purl.org/dc/dcmitype/StillImage"/>
    <dc:date>1980-01-01T00:00:00+00:00</dc:date>
    <dc:format>image/svg+xml</dc:format>
    <dc:creator>
     <cc:Agent>
      <dc:title>Matplotlib v3.9.1, https://matplotlib.org/</dc:title>
     </cc:Agent>
    </dc:creator>
   </cc:Work>
  </rdf:RDF>
 </metadata>
 <defs>
  <style type="text/css">*{stroke-linejoin: round; stroke-linecap: butt}</style>
 </defs>
 <g id="figure_1">
  <g id="patch_1">
   <path d="M 0 576 
L 1152 576 
L 1152 0 
L 0 0 
z
" style="fill: #ffffff"/>
  </g>
  <g id="axes_1">
   <g id="patch_2">
    <path d="M 144 512.64 
L 1036.8 512.64 
L 1036.8 69.12 
L 144 69.12 
z
" style="fill: #ffffff"/>
   </g>
   <g id="PathCollection_1">
    <path d="M 184.581818 496.352983 
C 185.608945 496.352983 186.594142 495.944901 187.320431 495.218613 
C 188.04672 494.492324 188.454802 493.507127 188.454802 492.48 
C 188.454802 491.452873 188.04672 490.467676 187.320431 489.741387 
C 186.594142 489.015099 185.608945 488.607017 184.581818 488.607017 
C 183.554691 488.607017 182.569494 489.015099 181.843205 489.741387 
C 181.116917 490.467676 180.708835 491.452873 180.708835 492.48 
C 180.708835 493.507127 181.116917 494.492324 181.843205 495.218613 
C 182.569494 495.944901 183.554691 496.352983 184.581818 496.352983 
z
" clip-path="url(#pf5793be21d)" style="fill: #1f77b4; fill-opacity: 0.3; stroke: #1f77b4; stroke-opacity: 0.3"/>
    <path d="M 199.612121 493.390037 
C 201.341034 493.390037 202.999368 492.703133 204.221893 491.480607 
C 205.444419 490.258081 206.131324 488.599747 206.131324 486.870835 
C 206.131324 485.141922 205.444419 483.483588 204.221893 482.261062 
C 202.999368 481.038537 201.341034 480.351632 199.612121 480.351632 
C 197.883209 480.351632 196.224875 481.038537 195.002349 482.261062 
C 193.779823 483.483588 193.092919 485.141922 193.092919 486.870835 
C 193.092919 488.599747 193.779823 490.258081 195.002349 491.480607 
C 196.224875 492.703133 197.883209 493.390037 199.612121 493.390037 
z
" clip-path="url(#pf5793be21d)" style="fill: #1f77b4; fill-opacity: 0.3; stroke: #1f77b4; stroke-opacity: 0.3"/>
    <path d="M 214.642424 485.99881 
C 216.861273 485.99881 218.989541 485.117252 220.558504 483.548289 
C 222.127467 481.979327 223.009025 479.851058 223.009025 477.632209 
C 223.009025 475.413361 222.127467 473.285092 220.558504 471.71613 
C 218.989541 470.147167 216.861273 469.265609 214.642424 469.265609 
C 212.423576 469.265609 210.295307 470.147167 208.726344 471.71613 
C 207.157382 473.285092 206.275824 475.413361 206.275824 477.632209 
C 206.275824 479.851058 207.157382 481.979327 208.726344 483.548289 
C 210.295307 485.117252 212.423576 485.99881 214.642424 485.99881 
z
" clip-path="url(#pf5793be21d)" style="fill: #1f77b4; fill-opacity: 0.3; stroke: #1f77b4; stroke-opacity: 0.3"/>
    <path d="M 229.672727 479.246794 
C 231.063464 479.246794 232.397427 478.694248 233.380827 477.710849 
C 234.364226 476.727449 234.916772 475.393486 234.916772 474.00275 
C 234.916772 472.612013 234.364226 471.27805 233.380827 470.29465 
C 232.397427 469.311251 231.063464 468.758705 229.672727 468.758705 
C 228.28199 468.758705 226.948027 469.311251 225.964628 470.29465 
C 224.981229 471.27805 224.428683 472.612013 224.428683 474.00275 
C 224.428683 475.393486 224.981229 476.727449 225.964628 477.710849 
C 226.948027 478.694248 228.28199 479.246794 229.672727 479.246794 
z
" clip-path="url(#pf5793be21d)" style="fill: #1f77b4; fill-opacity: 0.3; stroke: #1f77b4; stroke-opacity: 0.3"/>
    <path d="M 244.70303 475.888529 
C 245.640665 475.888529 246.540023 475.516003 247.20303 474.852995 
C 247.866038 474.189987 248.238564 473.29063 248.238564 472.352995 
C 248.238564 471.415361 247.866038 470.516003 247.20303 469.852995 
C 246.540023 469.189987 245.640665 468.817461 244.70303 468.817461 
C 243.765396 468.817461 242.866038 469.189987 242.20303 469.852995 
C 241.540023 470.516003 241.167496 471.415361 241.167496 472.352995 
C 241.167496 473.29063 241.540023 474.189987 242.20303 474.852995 
C 242.866038 475.516003 243.765396 475.888529 244.70303 475.888529 
z
" clip-path="url(#pf5793be21d)" style="fill: #1f77b4; fill-opacity: 0.3; stroke: #1f77b4; stroke-opacity: 0.3"/>
    <path d="M 259.733333 473.263032 
C 261.462246 473.263032 263.12058 472.576128 264.343106 471.353602 
C 265.565631 470.131076 266.252536 468.472742 266.252536 466.74383 
C 266.252536 465.014917 265.565631 463.356583 264.343106 462.134058 
C 263.12058 460.911532 261.462246 460.224627 259.733333 460.224627 
C 258.004421 460.224627 256.346087 460.911532 255.123561 462.134058 
C 253.901035 463.356583 253.214131 465.014917 253.214131 466.74383 
C 253.214131 468.472742 253.901035 470.131076 255.123561 471.353602 
C 256.346087 472.576128 258.004421 473.263032 259.733333 473.263032 
z
" clip-path="url(#pf5793be21d)" style="fill: #1f77b4; fill-opacity: 0.3; stroke: #1f77b4; stroke-opacity: 0.3"/>
    <path d="M 274.763636 467.789171 
C 276.440928 467.789171 278.049748 467.122776 279.235772 465.936751 
C 280.421797 464.750727 281.088192 463.141907 281.088192 461.464615 
C 281.088192 459.787324 280.421797 458.178504 279.235772 456.992479 
C 278.049748 455.806455 276.440928 455.14006 274.763636 455.14006 
C 273.086345 455.14006 271.477525 455.806455 270.2915 456.992479 
C 269.105476 458.178504 268.439081 459.787324 268.439081 461.464615 
C 268.439081 463.141907 269.105476 464.750727 270.2915 465.936751 
C 271.477525 467.122776 273.086345 467.789171 274.763636 467.789171 
z
" clip-path="url(#pf5793be21d)" style="fill: #1f77b4; fill-opacity: 0.3; stroke: #1f77b4; stroke-opacity: 0.3"/>
    <path d="M 289.793939 458.266579 
C 292.44597 458.266579 294.989738 457.212916 296.865007 455.337647 
C 298.740276 453.462378 299.793939 450.91861 299.793939 448.266579 
C 299.793939 445.614548 298.740276 443.070781 296.865007 441.195512 
C 294.989738 439.320242 292.44597 438.266579 289.793939 438.266579 
C 287.141908 438.266579 284.598141 439.320242 282.722872 441.195512 
C 280.847602 443.070781 279.793939 445.614548 279.793939 448.266579 
C 279.793939 450.91861 280.847602 453.462378 282.722872 455.337647 
C 284.598141 457.212916 287.141908 458.266579 289.793939 458.266579 
z
" clip-path="url(#pf5793be21d)" style="fill: #1f77b4; fill-opacity: 0.3; stroke: #1f77b4; stroke-opacity: 0.3"/>
    <path d="M 304.824242 448.738629 
C 306.699512 448.738629 308.498227 447.993577 309.824242 446.667561 
C 311.150258 445.341546 311.89531 443.54283 311.89531 441.667561 
C 311.89531 439.792292 311.150258 437.993577 309.824242 436.667561 
C 308.498227 435.341546 306.699512 434.596494 304.824242 434.596494 
C 302.948973 434.596494 301.150258 435.341546 299.824242 436.667561 
C 298.498227 437.993577 297.753175 439.792292 297.753175 441.667561 
C 297.753175 443.54283 298.498227 445.341546 299.824242 446.667561 
C 301.150258 447.993577 302.948973 448.738629 304.824242 448.738629 
z
" clip-path="url(#pf5793be21d)" style="fill: #1f77b4; fill-opacity: 0.3; stroke: #1f77b4; stroke-opacity: 0.3"/>
    <path d="M 319.854545 443.368052 
C 321.180561 443.368052 322.452445 442.841221 323.390079 441.903586 
C 324.327714 440.965952 324.854545 439.694068 324.854545 438.368052 
C 324.854545 437.042037 324.327714 435.770153 323.390079 434.832518 
C 322.452445 433.894884 321.180561 433.368052 319.854545 433.368052 
C 318.52853 433.368052 317.256646 433.894884 316.319012 434.832518 
C 315.381377 435.770153 314.854545 437.042037 314.854545 438.368052 
C 314.854545 439.694068 315.381377 440.965952 316.319012 441.903586 
C 317.256646 442.841221 318.52853 443.368052 319.854545 443.368052 
z
" clip-path="url(#pf5793be21d)" style="fill: #1f77b4; fill-opacity: 0.3; stroke: #1f77b4; stroke-opacity: 0.3"/>
    <path d="M 334.884848 439.944219 
C 335.477861 439.944219 336.046664 439.708612 336.465987 439.289289 
C 336.88531 438.869966 337.120916 438.301163 337.120916 437.708151 
C 337.120916 437.115138 336.88531 436.546335 336.465987 436.127012 
C 336.046664 435.707689 335.477861 435.472083 334.884848 435.472083 
C 334.291836 435.472083 333.723033 435.707689 333.30371 436.127012 
C 332.884387 436.546335 332.648781 437.115138 332.648781 437.708151 
C 332.648781 438.301163 332.884387 438.869966 333.30371 439.289289 
C 333.723033 439.708612 334.291836 439.944219 334.884848 439.944219 
z
" clip-path="url(#pf5793be21d)" style="fill: #1f77b4; fill-opacity: 0.3; stroke: #1f77b4; stroke-opacity: 0.3"/>
    <path d="M 349.915152 434.510115 
C 352.567183 434.510115 355.11095 433.456451 356.986219 431.581182 
C 358.861488 429.705913 359.915152 427.162146 359.915152 424.510115 
C 359.915152 421.858084 358.861488 419.314316 356.986219 417.439047 
C 355.11095 415.563778 352.567183 414.510115 349.915152 414.510115 
C 347.263121 414.510115 344.719353 415.563778 342.844084 417.439047 
C 340.968815 419.314316 339.915152 421.858084 339.915152 424.510115 
C 339.915152 427.162146 340.968815 429.705913 342.844084 431.581182 
C 344.719353 433.456451 347.263121 434.510115 349.915152 434.510115 
z
" clip-path="url(#pf5793be21d)" style="fill: #1f77b4; fill-opacity: 0.3; stroke: #1f77b4; stroke-opacity: 0.3"/>
    <path d="M 364.945455 424.167036 
C 367.042069 424.167036 369.053094 423.334042 370.535624 421.851512 
C 372.018155 420.368982 372.851149 418.357957 372.851149 416.261342 
C 372.851149 414.164727 372.018155 412.153703 370.535624 410.671172 
C 369.053094 409.188642 367.042069 408.355648 364.945455 408.355648 
C 362.84884 408.355648 360.837815 409.188642 359.355285 410.671172 
C 357.872754 412.153703 357.03976 414.164727 357.03976 416.261342 
C 357.03976 418.357957 357.872754 420.368982 359.355285 421.851512 
C 360.837815 423.334042 362.84884 424.167036 364.945455 424.167036 
z
" clip-path="url(#pf5793be21d)" style="fill: #1f77b4; fill-opacity: 0.3; stroke: #1f77b4; stroke-opacity: 0.3"/>
    <path d="M 379.975758 417.672857 
C 381.487648 417.672857 382.937819 417.072177 384.006886 416.003109 
C 385.075954 414.934041 385.676635 413.483871 385.676635 411.97198 
C 385.676635 410.46009 385.075954 409.009919 384.006886 407.940851 
C 382.937819 406.871784 381.487648 406.271103 379.975758 406.271103 
C 378.463867 406.271103 377.013697 406.871784 375.944629 407.940851 
C 374.875561 409.009919 374.27488 410.46009 374.27488 411.97198 
C 374.27488 413.483871 374.875561 414.934041 375.944629 416.003109 
C 377.013697 417.072177 378.463867 417.672857 379.975758 417.672857 
z
" clip-path="url(#pf5793be21d)" style="fill: #1f77b4; fill-opacity: 0.3; stroke: #1f77b4; stroke-opacity: 0.3"/>
    <path d="M 395.006061 410.357823 
C 397.378109 410.357823 399.653324 409.415399 401.330616 407.738107 
C 403.007908 406.060815 403.950333 403.7856 403.950333 401.413552 
C 403.950333 399.041503 403.007908 396.766288 401.330616 395.088996 
C 399.653324 393.411705 397.378109 392.46928 395.006061 392.46928 
C 392.634012 392.46928 390.358797 393.411705 388.681505 395.088996 
C 387.004214 396.766288 386.061789 399.041503 386.061789 401.413552 
C 386.061789 403.7856 387.004214 406.060815 388.681505 407.738107 
C 390.358797 409.415399 392.634012 410.357823 395.006061 410.357823 
z
" clip-path="url(#pf5793be21d)" style="fill: #1f77b4; fill-opacity: 0.3; stroke: #1f77b4; stroke-opacity: 0.3"/>
    <path d="M 410.036364 397.593884 
C 412.786048 397.593884 415.423482 396.501422 417.367803 394.557102 
C 419.312123 392.612782 420.404584 389.975347 420.404584 387.225663 
C 420.404584 384.475979 419.312123 381.838544 417.367803 379.894224 
C 415.423482 377.949903 412.786048 376.857442 410.036364 376.857442 
C 407.286679 376.857442 404.649245 377.949903 402.704924 379.894224 
C 400.760604 381.838544 399.668143 384.475979 399.668143 387.225663 
C 399.668143 389.975347 400.760604 392.612782 402.704924 394.557102 
C 404.649245 396.501422 407.286679 397.593884 410.036364 397.593884 
z
" clip-path="url(#pf5793be21d)" style="fill: #1f77b4; fill-opacity: 0.3; stroke: #1f77b4; stroke-opacity: 0.3"/>
    <path d="M 425.066667 389.068137 
C 425.905313 389.068137 426.709722 388.734939 427.302735 388.141927 
C 427.895747 387.548915 428.228944 386.744505 428.228944 385.905859 
C 428.228944 385.067213 427.895747 384.262803 427.302735 383.669791 
C 426.709722 383.076779 425.905313 382.743582 425.066667 382.743582 
C 424.228021 382.743582 423.423611 383.076779 422.830599 383.669791 
C 422.237587 384.262803 421.904389 385.067213 421.904389 385.905859 
C 421.904389 386.744505 422.237587 387.548915 422.830599 388.141927 
C 423.423611 388.734939 424.228021 389.068137 425.066667 389.068137 
z
" clip-path="url(#pf5793be21d)" style="fill: #1f77b4; fill-opacity: 0.3; stroke: #1f77b4; stroke-opacity: 0.3"/>
    <path d="M 440.09697 387.520444 
C 441.487706 387.520444 442.82167 386.967898 443.805069 385.984499 
C 444.788468 385.001099 445.341014 383.667136 445.341014 382.276399 
C 445.341014 380.885663 444.788468 379.5517 443.805069 378.5683 
C 442.82167 377.584901 441.487706 377.032355 440.09697 377.032355 
C 438.706233 377.032355 437.37227 377.584901 436.38887 378.5683 
C 435.405471 379.5517 434.852925 380.885663 434.852925 382.276399 
C 434.852925 383.667136 435.405471 385.001099 436.38887 385.984499 
C 437.37227 386.967898 438.706233 387.520444 440.09697 387.520444 
z
" clip-path="url(#pf5793be21d)" style="fill: #1f77b4; fill-opacity: 0.3; stroke: #1f77b4; stroke-opacity: 0.3"/>
    <path d="M 455.127273 381.583563 
C 457.306139 381.583563 459.396057 380.717891 460.936748 379.1772 
C 462.477439 377.636509 463.343111 375.546591 463.343111 373.367725 
C 463.343111 371.188859 462.477439 369.098941 460.936748 367.55825 
C 459.396057 366.017559 457.306139 365.151887 455.127273 365.151887 
C 452.948407 365.151887 450.858488 366.017559 449.317798 367.55825 
C 447.777107 369.098941 446.911434 371.188859 446.911434 373.367725 
C 446.911434 375.546591 447.777107 377.636509 449.317798 379.1772 
C 450.858488 380.717891 452.948407 381.583563 455.127273 381.583563 
z
" clip-path="url(#pf5793be21d)" style="fill: #1f77b4; fill-opacity: 0.3; stroke: #1f77b4; stroke-opacity: 0.3"/>
    <path d="M 470.157576 374.664492 
C 471.726538 374.664492 473.231452 374.041137 474.340876 372.931713 
C 475.4503 371.822288 476.073656 370.317375 476.073656 368.748412 
C 476.073656 367.17945 475.4503 365.674536 474.340876 364.565112 
C 473.231452 363.455688 471.726538 362.832333 470.157576 362.832333 
C 468.588613 362.832333 467.0837 363.455688 465.974276 364.565112 
C 464.864851 365.674536 464.241496 367.17945 464.241496 368.748412 
C 464.241496 370.317375 464.864851 371.822288 465.974276 372.931713 
C 467.0837 374.041137 468.588613 374.664492 470.157576 374.664492 
z
" clip-path="url(#pf5793be21d)" style="fill: #1f77b4; fill-opacity: 0.3; stroke: #1f77b4; stroke-opacity: 0.3"/>
    <path d="M 485.187879 363.431207 
C 488.15294 363.431207 490.996958 362.253176 493.093573 360.156562 
C 495.190188 358.059947 496.368219 355.215928 496.368219 352.250867 
C 496.368219 349.285807 495.190188 346.441788 493.093573 344.345173 
C 490.996958 342.248559 488.15294 341.070528 485.187879 341.070528 
C 482.222818 341.070528 479.378799 342.248559 477.282185 344.345173 
C 475.18557 346.441788 474.007539 349.285807 474.007539 352.250867 
C 474.007539 355.215928 475.18557 358.059947 477.282185 360.156562 
C 479.378799 362.253176 482.222818 363.431207 485.187879 363.431207 
z
" clip-path="url(#pf5793be21d)" style="fill: #1f77b4; fill-opacity: 0.3; stroke: #1f77b4; stroke-opacity: 0.3"/>
    <path d="M 500.218182 351.558031 
C 502.397048 351.558031 504.486966 350.692359 506.027657 349.151668 
C 507.568348 347.610977 508.43402 345.521059 508.43402 343.342193 
C 508.43402 341.163327 507.568348 339.073409 506.027657 337.532718 
C 504.486966 335.992027 502.397048 335.126355 500.218182 335.126355 
C 498.039316 335.126355 495.949398 335.992027 494.408707 337.532718 
C 492.868016 339.073409 492.002343 341.163327 492.002343 343.342193 
C 492.002343 345.521059 492.868016 347.610977 494.408707 349.151668 
C 495.949398 350.692359 498.039316 351.558031 500.218182 351.558031 
z
" clip-path="url(#pf5793be21d)" style="fill: #1f77b4; fill-opacity: 0.3; stroke: #1f77b4; stroke-opacity: 0.3"/>
    <path d="M 515.248485 342.649357 
C 517.427351 342.649357 519.517269 341.783685 521.05796 340.242994 
C 522.598651 338.702303 523.464323 336.612385 523.464323 334.433519 
C 523.464323 332.254653 522.598651 330.164735 521.05796 328.624044 
C 519.517269 327.083353 517.427351 326.21768 515.248485 326.21768 
C 513.069619 326.21768 510.979701 327.083353 509.43901 328.624044 
C 507.898319 330.164735 507.032646 332.254653 507.032646 334.433519 
C 507.032646 336.612385 507.898319 338.702303 509.43901 340.242994 
C 510.979701 341.783685 513.069619 342.649357 515.248485 342.649357 
z
" clip-path="url(#pf5793be21d)" style="fill: #1f77b4; fill-opacity: 0.3; stroke: #1f77b4; stroke-opacity: 0.3"/>
    <path d="M 530.278788 333.379636 
C 532.536911 333.379636 534.702851 332.482474 536.299585 330.88574 
C 537.896319 329.289006 538.793481 327.123066 538.793481 324.864943 
C 538.793481 322.60682 537.896319 320.44088 536.299585 318.844145 
C 534.702851 317.247411 532.536911 316.35025 530.278788 316.35025 
C 528.020665 316.35025 525.854725 317.247411 524.257991 318.844145 
C 522.661256 320.44088 521.764095 322.60682 521.764095 324.864943 
C 521.764095 327.123066 522.661256 329.289006 524.257991 330.88574 
C 525.854725 332.482474 528.020665 333.379636 530.278788 333.379636 
z
" clip-path="url(#pf5793be21d)" style="fill: #1f77b4; fill-opacity: 0.3; stroke: #1f77b4; stroke-opacity: 0.3"/>
    <path d="M 545.309091 326.707417 
C 546.147737 326.707417 546.952147 326.374219 547.545159 325.781207 
C 548.138171 325.188195 548.471369 324.383785 548.471369 323.545139 
C 548.471369 322.706493 548.138171 321.902083 547.545159 321.309071 
C 546.952147 320.716059 546.147737 320.382861 545.309091 320.382861 
C 544.470445 320.382861 543.666035 320.716059 543.073023 321.309071 
C 542.480011 321.902083 542.146813 322.706493 542.146813 323.545139 
C 542.146813 324.383785 542.480011 325.188195 543.073023 325.781207 
C 543.666035 326.374219 544.470445 326.707417 545.309091 326.707417 
z
" clip-path="url(#pf5793be21d)" style="fill: #1f77b4; fill-opacity: 0.3; stroke: #1f77b4; stroke-opacity: 0.3"/>
    <path d="M 560.339394 325.430919 
C 561.277028 325.430919 562.176386 325.058392 562.839394 324.395385 
C 563.502402 323.732377 563.874928 322.833019 563.874928 321.895385 
C 563.874928 320.95775 563.502402 320.058392 562.839394 319.395385 
C 562.176386 318.732377 561.277028 318.359851 560.339394 318.359851 
C 559.401759 318.359851 558.502402 318.732377 557.839394 319.395385 
C 557.176386 320.058392 556.80386 320.95775 556.80386 321.895385 
C 556.80386 322.833019 557.176386 323.732377 557.839394 324.395385 
C 558.502402 325.058392 559.401759 325.430919 560.339394 325.430919 
z
" clip-path="url(#pf5793be21d)" style="fill: #1f77b4; fill-opacity: 0.3; stroke: #1f77b4; stroke-opacity: 0.3"/>
    <path d="M 575.369697 319.304893 
C 577.920339 319.304893 580.366856 318.291513 582.170432 316.487937 
C 583.974008 314.68436 584.987389 312.237843 584.987389 309.687201 
C 584.987389 307.13656 583.974008 304.690042 582.170432 302.886466 
C 580.366856 301.08289 577.920339 300.069509 575.369697 300.069509 
C 572.819055 300.069509 570.372538 301.08289 568.568962 302.886466 
C 566.765386 304.690042 565.752005 307.13656 565.752005 309.687201 
C 565.752005 312.237843 566.765386 314.68436 568.568962 316.487937 
C 570.372538 318.291513 572.819055 319.304893 575.369697 319.304893 
z
" clip-path="url(#pf5793be21d)" style="fill: #1f77b4; fill-opacity: 0.3; stroke: #1f77b4; stroke-opacity: 0.3"/>
    <path d="M 590.4 304.151295 
C 593.394565 304.151295 596.266883 302.961542 598.38436 300.844065 
C 600.501837 298.726588 601.69159 295.85427 601.69159 292.859705 
C 601.69159 289.865141 600.501837 286.992823 598.38436 284.875346 
C 596.266883 282.757869 593.394565 281.568116 590.4 281.568116 
C 587.405435 281.568116 584.533117 282.757869 582.41564 284.875346 
C 580.298163 286.992823 579.10841 289.865141 579.10841 292.859705 
C 579.10841 295.85427 580.298163 298.726588 582.41564 300.844065 
C 584.533117 302.961542 587.405435 304.151295 590.4 304.151295 
z
" clip-path="url(#pf5793be21d)" style="fill: #1f77b4; fill-opacity: 0.3; stroke: #1f77b4; stroke-opacity: 0.3"/>
    <path d="M 605.430303 291.054277 
C 607.83913 291.054277 610.149622 290.09724 611.852919 288.393942 
C 613.556217 286.690644 614.513254 284.380152 614.513254 281.971326 
C 614.513254 279.562499 613.556217 277.252007 611.852919 275.548709 
C 610.149622 273.845412 607.83913 272.888375 605.430303 272.888375 
C 603.021476 272.888375 600.710984 273.845412 599.007687 275.548709 
C 597.304389 277.252007 596.347352 279.562499 596.347352 281.971326 
C 596.347352 284.380152 597.304389 286.690644 599.007687 288.393942 
C 600.710984 290.09724 603.021476 291.054277 605.430303 291.054277 
z
" clip-path="url(#pf5793be21d)" style="fill: #1f77b4; fill-opacity: 0.3; stroke: #1f77b4; stroke-opacity: 0.3"/>
    <path d="M 620.460606 281.27849 
C 622.639472 281.27849 624.72939 280.412817 626.270081 278.872126 
C 627.810772 277.331436 628.676444 275.241517 628.676444 273.062651 
C 628.676444 270.883786 627.810772 268.793867 626.270081 267.253176 
C 624.72939 265.712486 622.639472 264.846813 620.460606 264.846813 
C 618.28174 264.846813 616.191822 265.712486 614.651131 267.253176 
C 613.11044 268.793867 612.244768 270.883786 612.244768 273.062651 
C 612.244768 275.241517 613.11044 277.331436 614.651131 278.872126 
C 616.191822 280.412817 618.28174 281.27849 620.460606 281.27849 
z
" clip-path="url(#pf5793be21d)" style="fill: #1f77b4; fill-opacity: 0.3; stroke: #1f77b4; stroke-opacity: 0.3"/>
    <path d="M 635.490909 274.905125 
C 636.329555 274.905125 637.133965 274.571928 637.726977 273.978916 
C 638.319989 273.385904 638.653187 272.581494 638.653187 271.742848 
C 638.653187 270.904202 638.319989 270.099792 637.726977 269.50678 
C 637.133965 268.913768 636.329555 268.58057 635.490909 268.58057 
C 634.652263 268.58057 633.847853 268.913768 633.254841 269.50678 
C 632.661829 270.099792 632.328631 270.904202 632.328631 271.742848 
C 632.328631 272.581494 632.661829 273.385904 633.254841 273.978916 
C 633.847853 274.571928 634.652263 274.905125 635.490909 274.905125 
z
" clip-path="url(#pf5793be21d)" style="fill: #1f77b4; fill-opacity: 0.3; stroke: #1f77b4; stroke-opacity: 0.3"/>
    <path d="M 650.521212 273.357432 
C 651.911949 273.357432 653.245912 272.804887 654.229311 271.821487 
C 655.212711 270.838088 655.765256 269.504125 655.765256 268.113388 
C 655.765256 266.722651 655.212711 265.388688 654.229311 264.405289 
C 653.245912 263.421889 651.911949 262.869344 650.521212 262.869344 
C 649.130475 262.869344 647.796512 263.421889 646.813113 264.405289 
C 645.829713 265.388688 645.277168 266.722651 645.277168 268.113388 
C 645.277168 269.504125 645.829713 270.838088 646.813113 271.821487 
C 647.796512 272.804887 649.130475 273.357432 650.521212 273.357432 
z
" clip-path="url(#pf5793be21d)" style="fill: #1f77b4; fill-opacity: 0.3; stroke: #1f77b4; stroke-opacity: 0.3"/>
    <path d="M 665.551515 268.430107 
C 667.473094 268.430107 669.316229 267.666656 670.674991 266.307894 
C 672.033752 264.949133 672.797204 263.105998 672.797204 261.184419 
C 672.797204 259.26284 672.033752 257.419705 670.674991 256.060944 
C 669.316229 254.702182 667.473094 253.938731 665.551515 253.938731 
C 663.629936 253.938731 661.786801 254.702182 660.42804 256.060944 
C 659.069278 257.419705 658.305827 259.26284 658.305827 261.184419 
C 658.305827 263.105998 659.069278 264.949133 660.42804 266.307894 
C 661.786801 267.666656 663.629936 268.430107 665.551515 268.430107 
z
" clip-path="url(#pf5793be21d)" style="fill: #1f77b4; fill-opacity: 0.3; stroke: #1f77b4; stroke-opacity: 0.3"/>
    <path d="M 680.581818 260.841341 
C 682.678433 260.841341 684.689458 260.008347 686.171988 258.525816 
C 687.654519 257.043286 688.487512 255.032261 688.487512 252.935646 
C 688.487512 250.839032 687.654519 248.828007 686.171988 247.345477 
C 684.689458 245.862946 682.678433 245.029952 680.581818 245.029952 
C 678.485204 245.029952 676.474179 245.862946 674.991648 247.345477 
C 673.509118 248.828007 672.676124 250.839032 672.676124 252.935646 
C 672.676124 255.032261 673.509118 257.043286 674.991648 258.525816 
C 676.474179 260.008347 678.485204 260.841341 680.581818 260.841341 
z
" clip-path="url(#pf5793be21d)" style="fill: #1f77b4; fill-opacity: 0.3; stroke: #1f77b4; stroke-opacity: 0.3"/>
    <path d="M 695.612121 254.768175 
C 696.798146 254.768175 697.935753 254.296963 698.774399 253.458317 
C 699.613045 252.619671 700.084257 251.482064 700.084257 250.296039 
C 700.084257 249.110015 699.613045 247.972407 698.774399 247.133762 
C 697.935753 246.295116 696.798146 245.823903 695.612121 245.823903 
C 694.426097 245.823903 693.288489 246.295116 692.449844 247.133762 
C 691.611198 247.972407 691.139985 249.110015 691.139985 250.296039 
C 691.139985 251.482064 691.611198 252.619671 692.449844 253.458317 
C 693.288489 254.296963 694.426097 254.768175 695.612121 254.768175 
z
" clip-path="url(#pf5793be21d)" style="fill: #1f77b4; fill-opacity: 0.3; stroke: #1f77b4; stroke-opacity: 0.3"/>
    <path d="M 710.642424 249.242156 
C 712.900547 249.242156 715.066487 248.344995 716.663222 246.74826 
C 718.259956 245.151526 719.157117 242.985586 719.157117 240.727463 
C 719.157117 238.46934 718.259956 236.3034 716.663222 234.706666 
C 715.066487 233.109932 712.900547 232.21277 710.642424 232.21277 
C 708.384301 232.21277 706.218361 233.109932 704.621627 234.706666 
C 703.024893 236.3034 702.127731 238.46934 702.127731 240.727463 
C 702.127731 242.985586 703.024893 245.151526 704.621627 246.74826 
C 706.218361 248.344995 708.384301 249.242156 710.642424 249.242156 
z
" clip-path="url(#pf5793be21d)" style="fill: #1f77b4; fill-opacity: 0.3; stroke: #1f77b4; stroke-opacity: 0.3"/>
    <path d="M 725.672727 241.6375 
C 727.40164 241.6375 729.059974 240.950596 730.2825 239.72807 
C 731.505025 238.505544 732.19193 236.847211 732.19193 235.118298 
C 732.19193 233.389385 731.505025 231.731052 730.2825 230.508526 
C 729.059974 229.286 727.40164 228.599095 725.672727 228.599095 
C 723.943815 228.599095 722.285481 229.286 721.062955 230.508526 
C 719.840429 231.731052 719.153525 233.389385 719.153525 235.118298 
C 719.153525 236.847211 719.840429 238.505544 721.062955 239.72807 
C 722.285481 240.950596 723.943815 241.6375 725.672727 241.6375 
z
" clip-path="url(#pf5793be21d)" style="fill: #1f77b4; fill-opacity: 0.3; stroke: #1f77b4; stroke-opacity: 0.3"/>
    <path d="M 740.70303 236.732882 
C 742.093767 236.732882 743.42773 236.180337 744.41113 235.196937 
C 745.394529 234.213538 745.947075 232.879575 745.947075 231.488838 
C 745.947075 230.098101 745.394529 228.764138 744.41113 227.780739 
C 743.42773 226.797339 742.093767 226.244794 740.70303 226.244794 
C 739.312294 226.244794 737.97833 226.797339 736.994931 227.780739 
C 736.011532 228.764138 735.458986 230.098101 735.458986 231.488838 
C 735.458986 232.879575 736.011532 234.213538 736.994931 235.196937 
C 737.97833 236.180337 739.312294 236.732882 740.70303 236.732882 
z
" clip-path="url(#pf5793be21d)" style="fill: #1f77b4; fill-opacity: 0.3; stroke: #1f77b4; stroke-opacity: 0.3"/>
    <path d="M 755.733333 228.494962 
C 758.352004 228.494962 760.863773 227.454553 762.715453 225.602873 
C 764.567133 223.751193 765.607542 221.239424 765.607542 218.620753 
C 765.607542 216.002082 764.567133 213.490313 762.715453 211.638633 
C 760.863773 209.786953 758.352004 208.746544 755.733333 208.746544 
C 753.114663 208.746544 750.602893 209.786953 748.751213 211.638633 
C 746.899533 213.490313 745.859125 216.002082 745.859125 218.620753 
C 745.859125 221.239424 746.899533 223.751193 748.751213 225.602873 
C 750.602893 227.454553 753.114663 228.494962 755.733333 228.494962 
z
" clip-path="url(#pf5793be21d)" style="fill: #1f77b4; fill-opacity: 0.3; stroke: #1f77b4; stroke-opacity: 0.3"/>
    <path d="M 770.763636 220.032268 
C 772.275527 220.032268 773.725697 219.431588 774.794765 218.36252 
C 775.863833 217.293452 776.464513 215.843281 776.464513 214.331391 
C 776.464513 212.819501 775.863833 211.36933 774.794765 210.300262 
C 773.725697 209.231194 772.275527 208.630514 770.763636 208.630514 
C 769.251746 208.630514 767.801575 209.231194 766.732507 210.300262 
C 765.66344 211.36933 765.062759 212.819501 765.062759 214.331391 
C 765.062759 215.843281 765.66344 217.293452 766.732507 218.36252 
C 767.801575 219.431588 769.251746 220.032268 770.763636 220.032268 
z
" clip-path="url(#pf5793be21d)" style="fill: #1f77b4; fill-opacity: 0.3; stroke: #1f77b4; stroke-opacity: 0.3"/>
    <path d="M 785.793939 212.137253 
C 788.274687 212.137253 790.654164 211.151642 792.408318 209.397488 
C 794.162471 207.643334 795.148083 205.263858 795.148083 202.78311 
C 795.148083 200.302362 794.162471 197.922885 792.408318 196.168731 
C 790.654164 194.414578 788.274687 193.428966 785.793939 193.428966 
C 783.313192 193.428966 780.933715 194.414578 779.179561 196.168731 
C 777.425407 197.922885 776.439796 200.302362 776.439796 202.78311 
C 776.439796 205.263858 777.425407 207.643334 779.179561 209.397488 
C 780.933715 211.151642 783.313192 212.137253 785.793939 212.137253 
z
" clip-path="url(#pf5793be21d)" style="fill: #1f77b4; fill-opacity: 0.3; stroke: #1f77b4; stroke-opacity: 0.3"/>
    <path d="M 800.824242 203.099829 
C 802.745821 203.099829 804.588956 202.336378 805.947718 200.977616 
C 807.306479 199.618855 808.069931 197.77572 808.069931 195.854141 
C 808.069931 193.932562 807.306479 192.089427 805.947718 190.730665 
C 804.588956 189.371904 802.745821 188.608452 800.824242 188.608452 
C 798.902663 188.608452 797.059529 189.371904 795.700767 190.730665 
C 794.342005 192.089427 793.578554 193.932562 793.578554 195.854141 
C 793.578554 197.77572 794.342005 199.618855 795.700767 200.977616 
C 797.059529 202.336378 798.902663 203.099829 800.824242 203.099829 
z
" clip-path="url(#pf5793be21d)" style="fill: #1f77b4; fill-opacity: 0.3; stroke: #1f77b4; stroke-opacity: 0.3"/>
    <path d="M 815.854545 197.371956 
C 817.307123 197.371956 818.700402 196.79484 819.727529 195.767713 
C 820.754656 194.740586 821.331771 193.347307 821.331771 191.89473 
C 821.331771 190.442153 820.754656 189.048874 819.727529 188.021747 
C 818.700402 186.994619 817.307123 186.417504 815.854545 186.417504 
C 814.401968 186.417504 813.008689 186.994619 811.981562 188.021747 
C 810.954435 189.048874 810.37732 190.442153 810.37732 191.89473 
C 810.37732 193.347307 810.954435 194.740586 811.981562 195.767713 
C 813.008689 196.79484 814.401968 197.371956 815.854545 197.371956 
z
" clip-path="url(#pf5793be21d)" style="fill: #1f77b4; fill-opacity: 0.3; stroke: #1f77b4; stroke-opacity: 0.3"/>
    <path d="M 830.884848 192.211449 
C 832.806428 192.211449 834.649562 191.447998 836.008324 190.089236 
C 837.367085 188.730475 838.130537 186.88734 838.130537 184.965761 
C 838.130537 183.044182 837.367085 181.201047 836.008324 179.842286 
C 834.649562 178.483524 832.806428 177.720073 830.884848 177.720073 
C 828.963269 177.720073 827.120135 178.483524 825.761373 179.842286 
C 824.402612 181.201047 823.63916 183.044182 823.63916 184.965761 
C 823.63916 186.88734 824.402612 188.730475 825.761373 190.089236 
C 827.120135 191.447998 828.963269 192.211449 830.884848 192.211449 
z
" clip-path="url(#pf5793be21d)" style="fill: #1f77b4; fill-opacity: 0.3; stroke: #1f77b4; stroke-opacity: 0.3"/>
    <path d="M 845.915152 186.666252 
C 847.241167 186.666252 848.513051 186.139421 849.450685 185.201786 
C 850.38832 184.264151 850.915152 182.992268 850.915152 181.666252 
C 850.915152 180.340237 850.38832 179.068353 849.450685 178.130718 
C 848.513051 177.193084 847.241167 176.666252 845.915152 176.666252 
C 844.589136 176.666252 843.317252 177.193084 842.379618 178.130718 
C 841.441983 179.068353 840.915152 180.340237 840.915152 181.666252 
C 840.915152 182.992268 841.441983 184.264151 842.379618 185.201786 
C 843.317252 186.139421 844.589136 186.666252 845.915152 186.666252 
z
" clip-path="url(#pf5793be21d)" style="fill: #1f77b4; fill-opacity: 0.3; stroke: #1f77b4; stroke-opacity: 0.3"/>
    <path d="M 860.945455 179.075761 
C 863.496096 179.075761 865.942614 178.06238 867.74619 176.258804 
C 869.549766 174.455228 870.563147 172.00871 870.563147 169.458069 
C 870.563147 166.907427 869.549766 164.46091 867.74619 162.657333 
C 865.942614 160.853757 863.496096 159.840377 860.945455 159.840377 
C 858.394813 159.840377 855.948295 160.853757 854.144719 162.657333 
C 852.341143 164.46091 851.327763 166.907427 851.327763 169.458069 
C 851.327763 172.00871 852.341143 174.455228 854.144719 176.258804 
C 855.948295 178.06238 858.394813 179.075761 860.945455 179.075761 
z
" clip-path="url(#pf5793be21d)" style="fill: #1f77b4; fill-opacity: 0.3; stroke: #1f77b4; stroke-opacity: 0.3"/>
    <path d="M 875.975758 164.358446 
C 878.911018 164.358446 881.726453 163.192255 883.801995 161.116713 
C 885.877538 159.04117 887.043729 156.225735 887.043729 153.290475 
C 887.043729 150.355214 885.877538 147.539779 883.801995 145.464237 
C 881.726453 143.388694 878.911018 142.222503 875.975758 142.222503 
C 873.040497 142.222503 870.225062 143.388694 868.14952 145.464237 
C 866.073977 147.539779 864.907786 150.355214 864.907786 153.290475 
C 864.907786 156.225735 866.073977 159.04117 868.14952 161.116713 
C 870.225062 163.192255 873.040497 164.358446 875.975758 164.358446 
z
" clip-path="url(#pf5793be21d)" style="fill: #1f77b4; fill-opacity: 0.3; stroke: #1f77b4; stroke-opacity: 0.3"/>
    <path d="M 891.006061 155.064333 
C 892.264029 155.064333 893.470644 154.564537 894.360163 153.675018 
C 895.249681 152.7855 895.749477 151.578885 895.749477 150.320917 
C 895.749477 149.062948 895.249681 147.856333 894.360163 146.966815 
C 893.470644 146.077296 892.264029 145.5775 891.006061 145.5775 
C 889.748092 145.5775 888.541477 146.077296 887.651959 146.966815 
C 886.76244 147.856333 886.262644 149.062948 886.262644 150.320917 
C 886.262644 151.578885 886.76244 152.7855 887.651959 153.675018 
C 888.541477 154.564537 889.748092 155.064333 891.006061 155.064333 
z
" clip-path="url(#pf5793be21d)" style="fill: #1f77b4; fill-opacity: 0.3; stroke: #1f77b4; stroke-opacity: 0.3"/>
    <path d="M 906.036364 150.792966 
C 907.911633 150.792966 909.710348 150.047914 911.036364 148.721899 
C 912.362379 147.395883 913.107431 145.597168 913.107431 143.721899 
C 913.107431 141.846629 912.362379 140.047914 911.036364 138.721899 
C 909.710348 137.395883 907.911633 136.650831 906.036364 136.650831 
C 904.161095 136.650831 902.362379 137.395883 901.036364 138.721899 
C 899.710348 140.047914 898.965296 141.846629 898.965296 143.721899 
C 898.965296 145.597168 899.710348 147.395883 901.036364 148.721899 
C 902.362379 150.047914 904.161095 150.792966 906.036364 150.792966 
z
" clip-path="url(#pf5793be21d)" style="fill: #1f77b4; fill-opacity: 0.3; stroke: #1f77b4; stroke-opacity: 0.3"/>
    <path d="M 921.066667 144.193948 
C 922.941936 144.193948 924.740651 143.448896 926.066667 142.122881 
C 927.392682 140.796865 928.137734 138.99815 928.137734 137.122881 
C 928.137734 135.247611 927.392682 133.448896 926.066667 132.122881 
C 924.740651 130.796865 922.941936 130.051813 921.066667 130.051813 
C 919.191398 130.051813 917.392682 130.796865 916.066667 132.122881 
C 914.740651 133.448896 913.995599 135.247611 913.995599 137.122881 
C 913.995599 138.99815 914.740651 140.796865 916.066667 142.122881 
C 917.392682 143.448896 919.191398 144.193948 921.066667 144.193948 
z
" clip-path="url(#pf5793be21d)" style="fill: #1f77b4; fill-opacity: 0.3; stroke: #1f77b4; stroke-opacity: 0.3"/>
    <path d="M 936.09697 137.891968 
C 937.876006 137.891968 939.582417 137.18515 940.840386 135.927181 
C 942.098355 134.669212 942.805174 132.962801 942.805174 131.183764 
C 942.805174 129.404728 942.098355 127.698317 940.840386 126.440348 
C 939.582417 125.182379 937.876006 124.47556 936.09697 124.47556 
C 934.317933 124.47556 932.611522 125.182379 931.353553 126.440348 
C 930.095584 127.698317 929.388766 129.404728 929.388766 131.183764 
C 929.388766 132.962801 930.095584 134.669212 931.353553 135.927181 
C 932.611522 137.18515 934.317933 137.891968 936.09697 137.891968 
z
" clip-path="url(#pf5793be21d)" style="fill: #1f77b4; fill-opacity: 0.3; stroke: #1f77b4; stroke-opacity: 0.3"/>
    <path d="M 951.127273 131.500484 
C 953.048852 131.500484 954.891987 130.737032 956.250748 129.378271 
C 957.60951 128.019509 958.372961 126.176374 958.372961 124.254795 
C 958.372961 122.333216 957.60951 120.490082 956.250748 119.13132 
C 954.891987 117.772558 953.048852 117.009107 951.127273 117.009107 
C 949.205694 117.009107 947.362559 117.772558 946.003797 119.13132 
C 944.645036 120.490082 943.881584 122.333216 943.881584 124.254795 
C 943.881584 126.176374 944.645036 128.019509 946.003797 129.378271 
C 947.362559 130.737032 949.205694 131.500484 951.127273 131.500484 
z
" clip-path="url(#pf5793be21d)" style="fill: #1f77b4; fill-opacity: 0.3; stroke: #1f77b4; stroke-opacity: 0.3"/>
    <path d="M 966.157576 123.016522 
C 968.454302 123.016522 970.657269 122.104023 972.2813 120.479993 
C 973.905331 118.855962 974.81783 116.652995 974.81783 114.356268 
C 974.81783 112.059542 973.905331 109.856575 972.2813 108.232544 
C 970.657269 106.608513 968.454302 105.696014 966.157576 105.696014 
C 963.86085 105.696014 961.657882 106.608513 960.033851 108.232544 
C 958.409821 109.856575 957.497322 112.059542 957.497322 114.356268 
C 957.497322 116.652995 958.409821 118.855962 960.033851 120.479993 
C 961.657882 122.104023 963.86085 123.016522 966.157576 123.016522 
z
" clip-path="url(#pf5793be21d)" style="fill: #1f77b4; fill-opacity: 0.3; stroke: #1f77b4; stroke-opacity: 0.3"/>
    <path d="M 981.187879 112.931199 
C 983.52257 112.931199 985.761953 112.003616 987.412829 110.35274 
C 989.063705 108.701864 989.991287 106.462482 989.991287 104.127791 
C 989.991287 101.793099 989.063705 99.553717 987.412829 97.902841 
C 985.761953 96.251965 983.52257 95.324382 981.187879 95.324382 
C 978.853188 95.324382 976.613805 96.251965 974.962929 97.902841 
C 973.312053 99.553717 972.38447 101.793099 972.38447 104.127791 
C 972.38447 106.462482 973.312053 108.701864 974.962929 110.35274 
C 976.613805 112.003616 978.853188 112.931199 981.187879 112.931199 
z
" clip-path="url(#pf5793be21d)" style="fill: #1f77b4; fill-opacity: 0.3; stroke: #1f77b4; stroke-opacity: 0.3"/>
    <path d="M 996.218182 99.886602 
C 999.031085 99.886602 1001.729159 98.769023 1003.718182 96.78 
C 1005.707205 94.790977 1006.824784 92.092904 1006.824784 89.28 
C 1006.824784 86.467096 1005.707205 83.769023 1003.718182 81.78 
C 1001.729159 79.790977 999.031085 78.673398 996.218182 78.673398 
C 993.405278 78.673398 990.707205 79.790977 988.718182 81.78 
C 986.729159 83.769023 985.61158 86.467096 985.61158 89.28 
C 985.61158 92.092904 986.729159 94.790977 988.718182 96.78 
C 990.707205 98.769023 993.405278 99.886602 996.218182 99.886602 
z
" clip-path="url(#pf5793be21d)" style="fill: #1f77b4; fill-opacity: 0.3; stroke: #1f77b4; stroke-opacity: 0.3"/>
   </g>
   <g id="matplotlib.axis_1">
    <g id="xtick_1">
     <g id="line2d_1">
      <defs>
       <path id="md3907b0b05" d="M 0 0 
L 0 3.5 
" style="stroke: #000000; stroke-width: 0.8"/>
      </defs>
      <g>
       <use xlink:href="#md3907b0b05" x="184.581818" y="512.64" style="stroke: #000000; stroke-width: 0.8"/>
      </g>
     </g>
     <g id="text_1">
      <!-- 2026-01-01 -->
      <g transform="translate(155.524006 527.238438) scale(0.1 -0.1)">
       <defs>
        <path id="DejaVuSans-32" d="M 1228 531 
L 3431 531 
L 3431 0 
L 469 0 
L 469 531 
Q 828 903 1448 1529 
Q 2069 2156 2228 2338 
Q 2531 2678 2651 2914 
Q 2772 3150 2772 3378 
Q 2772 3750 2511 3984 
Q 2250 4219 1831 4219 
Q 1534 4219 1204 4116 
Q 875 4013 500 3803 
L 500 4441 
Q 881 4594 1212 4672 
Q 1544 4750 1819 4750 
Q 2544 4750 2975 4387 
Q 3406 4025 3406 3419 
Q 3406 3131 3298 2873 
Q 3191 2616 2906 2266 
Q 2828 2175 2409 1742 
Q 1991 1309 1228 531 
z
" transform="scale(0.015625)"/>
        <path id="DejaVuSans-30" d="M 2034 4250 
Q 1547 4250 1301 3770 
Q 1056 3291 1056 2328 
Q 1056 1369 1301 889 
Q 1547 409 2034 409 
Q 2525 409 2770 889 
Q 3016 1369 3016 2328 
Q 3016 3291 2770 3770 
Q 2525 4250 2034 4250 
z
M 2034 4750 
Q 2819 4750 3233 4129 
Q 3647 3509 3647 2328 
Q 3647 1150 3233 529 
Q 2819 -91 2034 -91 
Q 1250 -91 836 529 
Q 422 1150 422 2328 
Q 422 3509 836 4129 
Q 1250 4750 2034 4750 
z
" transform="scale(0.015625)"/>
        <path id="DejaVuSans-36" d="M 2113 2584 
Q 1688 2584 1439 2293 
Q 1191 2003 1191 1497 
Q 1191 994 1439 701 
Q 1688 409 2113 409 
Q 2538 409 2786 701 
Q 3034 994 3034 1497 
Q 3034 2003 2786 2293 
Q 2538 2584 2113 2584 
z
M 3366 4563 
L 3366 3988 
Q 3128 4100 2886 4159 
Q 2644 4219 2406 4219 
Q 1781 4219 1451 3797 
Q 1122 3375 1075 2522 
Q 1259 2794 1537 2939 
Q 1816 3084 2150 3084 
Q 2853 3084 3261 2657 
Q 3669 2231 3669 1497 
Q 3669 778 3244 343 
Q 2819 -91 2113 -91 
Q 1303 -91 875 529 
Q 447 1150 447 2328 
Q 447 3434 972 4092 
Q 1497 4750 2381 4750 
Q 2619 4750 2861 4703 
Q 3103 4656 3366 4563 
z
" transform="scale(0.015625)"/>
        <path id="DejaVuSans-2d" d="M 313 2009 
L 1997 2009 
L 1997 1497 
L 313 1497 
L 313 2009 
z
" transform="scale(0.015625)"/>
        <path id="DejaVuSans-31" d="M 794 531 
L 1825 531 
L 1825 4091 
L 703 3866 
L 703 4441 
L 1819 4666 
L 2450 4666 
L 2450 531 
L 3481 531 
L 3481 0 
L 794 0 
L 794 531 
z
" transform="scale(0.015625)"/>
       </defs>
       <use xlink:href="#DejaVuSans-32"/>
       <use xlink:href="#DejaVuSans-30" x="63.623047"/>
       <use xlink:href="#DejaVuSans-32" x="127.246094"/>
       <use xlink:href="#DejaVuSans-36" x="190.869141"/>
       <use xlink:href="#DejaVuSans-2d" x="254.492188"/>
       <use xlink:href="#DejaVuSans-30" x="290.576172"/>
       <use xlink:href="#DejaVuSans-31" x="354.199219"/>
       <use xlink:href="#DejaVuSans-2d" x="417.822266"/>
       <use xlink:href="#DejaVuSans-30" x="453.90625"/>
       <use xlink:href="#DejaVuSans-31" x="517.529297"/>
      </g>
     </g>
    </g>
    <g id="xtick_2">
     <g id="line2d_2">
      <g>
       <use xlink:href="#md3907b0b05" x="289.793939" y="512.64" style="stroke: #000000; stroke-width: 0.8"/>
      </g>
     </g>
     <g id="text_2">
      <!-- 2026-01-08 -->
      <g transform="translate(260.736127 527.238438) scale(0.1 -0.1)">
       <defs>
        <path id="DejaVuSans-38" d="M 2034 2216 
Q 1584 2216 1326 1975 
Q 1069 1734 1069 1313 
Q 1069 891 1326 650 
Q 1584 409 2034 409 
Q 2484 409 2743 651 
Q 3003 894 3003 1313 
Q 3003 1734 2745 1975 
Q 2488 2216 2034 2216 
z
M 1403 2484 
Q 997 2584 770 2862 
Q 544 3141 544 3541 
Q 544 4100 942 4425 
Q 1341 4750 2034 4750 
Q 2731 4750 3128 4425 
Q 3525 4100 3525 3541 
Q 3525 3141 3298 2862 
Q 3072 2584 2669 2484 
Q 3125 2378 3379 2068 
Q 3634 1759 3634 1313 
Q 3634 634 3220 271 
Q 2806 -91 2034 -91 
Q 1263 -91 848 271 
Q 434 634 434 1313 
Q 434 1759 690 2068 
Q 947 2378 1403 2484 
z
M 1172 3481 
Q 1172 3119 1398 2916 
Q 1625 2713 2034 2713 
Q 2441 2713 2670 2916 
Q 2900 3119 2900 3481 
Q 2900 3844 2670 4047 
Q 2441 4250 2034 4250 
Q 1625 4250 1398 4047 
Q 1172 3844 1172 3481 
z
" transform="scale(0.015625)"/>
       </defs>
       <use xlink:href="#DejaVuSans-32"/>
       <use xlink:href="#DejaVuSans-30" x="63.623047"/>
       <use xlink:href="#DejaVuSans-32" x="127.246094"/>
       <use xlink:href="#DejaVuSans-36" x="190.869141"/>
       <use xlink:href="#DejaVuSans-2d" x="254.492188"/>
       <use xlink:href="#DejaVuSans-30" x="290.576172"/>
       <use xlink:href="#DejaVuSans-31" x="354.199219"/>
       <use xlink:href="#DejaVuSans-2d" x="417.822266"/>
       <use xlink:href="#DejaVuSans-30" x="453.90625"/>
       <use xlink:href="#DejaVuSans-38" x="517.529297"/>
      </g>
     </g>
    </g>
    <g id="xtick_3">
     <g id="line2d_3">
      <g>
       <use xlink:href="#md3907b0b05" x="395.006061" y="512.64" style="stroke: #000000; stroke-width: 0.8"/>
      </g>
     </g>
     <g id="text_3">
      <!-- 2026-01-15 -->
      <g transform="translate(365.948248 527.238438) scale(0.1 -0.1)">
       <defs>
        <path id="DejaVuSans-35" d="M 691 4666 
L 3169 4666 
L 3169 4134 
L 1269 4134 
L 1269 2991 
Q 1406 3038 1543 3061 
Q 1681 3084 1819 3084 
Q 2600 3084 3056 2656 
Q 3513 2228 3513 1497 
Q 3513 744 3044 326 
Q 2575 -91 1722 -91 
Q 1428 -91 1123 -41 
Q 819 9 494 109 
L 494 744 
Q 775 591 1075 516 
Q 1375 441 1709 441 
Q 2250 441 2565 725 
Q 2881 1009 2881 1497 
Q 2881 1984 2565 2268 
Q 2250 2553 1709 2553 
Q 1456 2553 1204 2497 
Q 953 2441 691 2322 
L 691 4666 
z
" transform="scale(0.015625)"/>
       </defs>
       <use xlink:href="#DejaVuSans-32"/>
       <use xlink:href="#DejaVuSans-30" x="63.623047"/>
       <use xlink:href="#DejaVuSans-32" x="127.246094"/>
       <use xlink:href="#DejaVuSans-36" x="190.869141"/>
       <use xlink:href="#DejaVuSans-2d" x="254.492188"/>
       <use xlink:href="#DejaVuSans-30" x="290.576172"/>
       <use xlink:href="#DejaVuSans-31" x="354.199219"/>
       <use xlink:href="#DejaVuSans-2d" x="417.822266"/>
       <use xlink:href="#DejaVuSans-31" x="453.90625"/>
       <use xlink:href="#DejaVuSans-35" x="517.529297"/>
      </g>
     </g>
    </g>
    <g id="xtick_4">
     <g id="line2d_4">
      <g>
       <use xlink:href="#md3907b0b05" x="500.218182" y="512.64" style="stroke: #000000; stroke-width: 0.8"/>
      </g>
     </g>
     <g id="text_4">
      <!-- 2026-01-22 -->
      <g transform="translate(471.160369 527.238438) scale(0.1 -0.1)">
       <use xlink:href="#DejaVuSans-32"/>
       <use xlink:href="#DejaVuSans-30" x="63.623047"/>
       <use xlink:href="#DejaVuSans-32" x="127.246094"/>
       <use xlink:href="#DejaVuSans-36" x="190.869141"/>
       <use xlink:href="#DejaVuSans-2d" x="254.492188"/>
       <use xlink:href="#DejaVuSans-30" x="290.576172"/>
       <use xlink:href="#DejaVuSans-31" x="354.199219"/>
       <use xlink:href="#DejaVuSans-2d" x="417.822266"/>
       <use xlink:href="#DejaVuSans-32" x="453.90625"/>
       <use xlink:href="#DejaVuSans-32" x="517.529297"/>
      </g>
     </g>
    </g>
    <g id="xtick_5">
     <g id="line2d_5">
      <g>
       <use xlink:href="#md3907b0b05" x="650.521212" y="512.64" style="stroke: #000000; stroke-width: 0.8"/>
      </g>
     </g>
     <g id="text_5">
      <!-- 2026-02-01 -->
      <g transform="translate(621.4634 527.238438) scale(0.1 -0.1)">
       <use xlink:href="#DejaVuSans-32"/>
       <use xlink:href="#DejaVuSans-30" x="63.623047"/>
       <use xlink:href="#DejaVuSans-32" x="127.246094"/>
       <use xlink:href="#DejaVuSans-36" x="190.869141"/>
       <use xlink:href="#DejaVuSans-2d" x="254.492188"/>
       <use xlink:href="#DejaVuSans-30" x="290.576172"/>
       <use xlink:href="#DejaVuSans-32" x="354.199219"/>
       <use xlink:href="#DejaVuSans-2d" x="417.822266"/>
       <use xlink:href="#DejaVuSans-30" x="453.90625"/>
       <use xlink:href="#DejaVuSans-31" x="517.529297"/>
      </g>
     </g>
    </g>
    <g id="xtick_6">
     <g id="line2d_6">
      <g>
       <use xlink:href="#md3907b0b05" x="755.733333" y="512.64" style="stroke: #000000; stroke-width: 0.8"/>
      </g>
     </g>
     <g id="text_6">
      <!-- 2026-02-08 -->
      <g transform="translate(726.675521 527.238438) scale(0.1 -0.1)">
       <use xlink:href="#DejaVuSans-32"/>
       <use xlink:href="#DejaVuSans-30" x="63.623047"/>
       <use xlink:href="#DejaVuSans-32" x="127.246094"/>
       <use xlink:href="#DejaVuSans-36" x="190.869141"/>
       <use xlink:href="#DejaVuSans-2d" x="254.492188"/>
       <use xlink:href="#DejaVuSans-30" x="290.576172"/>
       <use xlink:href="#DejaVuSans-32" x="354.199219"/>
       <use xlink:href="#DejaVuSans-2d" x="417.822266"/>
       <use xlink:href="#DejaVuSans-30" x="453.90625"/>
       <use xlink:href="#DejaVuSans-38" x="517.529297"/>
      </g>
     </g>
    </g>
    <g id="xtick_7">
     <g id="line2d_7">
      <g>
       <use xlink:href="#md3907b0b05" x="860.945455" y="512.64" style="stroke: #000000; stroke-width: 0.8"/>
      </g>
     </g>
     <g id="text_7">
      <!-- 2026-02-15 -->
      <g transform="translate(831.887642 527.238438) scale(0.1 -0.1)">
       <use xlink:href="#DejaVuSans-32"/>
       <use xlink:href="#DejaVuSans-30" x="63.623047"/>
       <use xlink:href="#DejaVuSans-32" x="127.246094"/>
       <use xlink:href="#DejaVuSans-36" x="190.869141"/>
       <use xlink:href="#DejaVuSans-2d" x="254.492188"/>
       <use xlink:href="#DejaVuSans-30" x="290.576172"/>
       <use xlink:href="#DejaVuSans-32" x="354.199219"/>
       <use xlink:href="#DejaVuSans-2d" x="417.822266"/>
       <use xlink:href="#DejaVuSans-31" x="453.90625"/>
       <use xlink:href="#DejaVuSans-35" x="517.529297"/>
      </g>
     </g>
    </g>
    <g id="xtick_8">
     <g id="line2d_8">
      <g>
       <use xlink:href="#md3907b0b05" x="966.157576" y="512.64" style="stroke: #000000; stroke-width: 0.8"/>
      </g>
     </g>
     <g id="text_8">
      <!-- 2026-02-22 -->
      <g transform="translate(937.099763 527.238438) scale(0.1 -0.1)">
       <use xlink:href="#DejaVuSans-32"/>
       <use xlink:href="#DejaVuSans-30" x="63.623047"/>
       <use xlink:href="#DejaVuSans-32" x="127.246094"/>
       <use xlink:href="#DejaVuSans-36" x="190.869141"/>
       <use xlink:href="#DejaVuSans-2d" x="254.492188"/>
       <use xlink:href="#DejaVuSans-30" x="290.576172"/>
       <use xlink:href="#DejaVuSans-32" x="354.199219"/>
       <use xlink:href="#DejaVuSans-2d" x="417.822266"/>
       <use xlink:href="#DejaVuSans-32" x="453.90625"/>
       <use xlink:href="#DejaVuSans-32" x="517.529297"/>
      </g>
     </g>
    </g>
   </g>
   <g id="matplotlib.axis_2">
    <g id="ytick_1">
     <g id="line2d_9">
      <defs>
       <path id="m95c4d391c0" d="M 0 0 
L -3.5 0 
" style="stroke: #000000; stroke-width: 0.8"/>
      </defs>
      <g>
       <use xlink:href="#m95c4d391c0" x="144" y="470.043339" style="stroke: #000000; stroke-width: 0.8"/>
      </g>
     </g>
     <g id="text_9">
      <!-- 13200 -->
      <g transform="translate(105.1875 473.842558) scale(0.1 -0.1)">
       <defs>
        <path id="DejaVuSans-33" d="M 2597 2516 
Q 3050 2419 3304 2112 
Q 3559 1806 3559 1356 
Q 3559 666 3084 287 
Q 2609 -91 1734 -91 
Q 1441 -91 1130 -33 
Q 819 25 488 141 
L 488 750 
Q 750 597 1062 519 
Q 1375 441 1716 441 
Q 2309 441 2620 675 
Q 2931 909 2931 1356 
Q 2931 1769 2642 2001 
Q 2353 2234 1838 2234 
L 1294 2234 
L 1294 2753 
L 1863 2753 
Q 2328 2753 2575 2939 
Q 2822 3125 2822 3475 
Q 2822 3834 2567 4026 
Q 2313 4219 1838 4219 
Q 1578 4219 1281 4162 
Q 984 4106 628 3988 
L 628 4550 
Q 988 4650 1302 4700 
Q 1616 4750 1894 4750 
Q 2613 4750 3031 4423 
Q 3450 4097 3450 3541 
Q 3450 3153 3228 2886 
Q 3006 2619 2597 2516 
z
" transform="scale(0.015625)"/>
       </defs>
       <use xlink:href="#DejaVuSans-31"/>
       <use xlink:href="#DejaVuSans-33" x="63.623047"/>
       <use xlink:href="#DejaVuSans-32" x="127.246094"/>
       <use xlink:href="#DejaVuSans-30" x="190.869141"/>
       <use xlink:href="#DejaVuSans-30" x="254.492188"/>
      </g>
     </g>
    </g>
    <g id="ytick_2">
     <g id="line2d_10">
      <g>
       <use xlink:href="#m95c4d391c0" x="144" y="404.053159" style="stroke: #000000; stroke-width: 0.8"/>
      </g>
     </g>
     <g id="text_10">
      <!-- 13400 -->
      <g transform="translate(105.1875 407.852378) scale(0.1 -0.1)">
       <defs>
        <path id="DejaVuSans-34" d="M 2419 4116 
L 825 1625 
L 2419 1625 
L 2419 4116 
z
M 2253 4666 
L 3047 4666 
L 3047 1625 
L 3713 1625 
L 3713 1100 
L 3047 1100 
L 3047 0 
L 2419 0 
L 2419 1100 
L 313 1100 
L 313 1709 
L 2253 4666 
z
" transform="scale(0.015625)"/>
       </defs>
       <use xlink:href="#DejaVuSans-31"/>
       <use xlink:href="#DejaVuSans-33" x="63.623047"/>
       <use xlink:href="#DejaVuSans-34" x="127.246094"/>
       <use xlink:href="#DejaVuSans-30" x="190.869141"/>
       <use xlink:href="#DejaVuSans-30" x="254.492188"/>
      </g>
     </g>
    </g>
    <g id="ytick_3">
     <g id="line2d_11">
      <g>
       <use xlink:href="#m95c4d391c0" x="144" y="338.062979" style="stroke: #000000; stroke-width: 0.8"/>
      </g>
     </g>
     <g id="text_11">
      <!-- 13600 -->
      <g transform="translate(105.1875 341.862197) scale(0.1 -0.1)">
       <use xlink:href="#DejaVuSans-31"/>
       <use xlink:href="#DejaVuSans-33" x="63.623047"/>
       <use xlink:href="#DejaVuSans-36" x="127.246094"/>
       <use xlink:href="#DejaVuSans-30" x="190.869141"/>
       <use xlink:href="#DejaVuSans-30" x="254.492188"/>
      </g>
     </g>
    </g>
    <g id="ytick_4">
     <g id="line2d_12">
      <g>
       <use xlink:href="#m95c4d391c0" x="144" y="272.072799" style="stroke: #000000; stroke-width: 0.8"/>
      </g>
     </g>
     <g id="text_12">
      <!-- 13800 -->
      <g transform="translate(105.1875 275.872017) scale(0.1 -0.1)">
       <use xlink:href="#DejaVuSans-31"/>
       <use xlink:href="#DejaVuSans-33" x="63.623047"/>
       <use xlink:href="#DejaVuSans-38" x="127.246094"/>
       <use xlink:href="#DejaVuSans-30" x="190.869141"/>
       <use xlink:href="#DejaVuSans-30" x="254.492188"/>
      </g>
     </g>
    </g>
    <g id="ytick_5">
     <g id="line2d_13">
      <g>
       <use xlink:href="#m95c4d391c0" x="144" y="206.082619" style="stroke: #000000; stroke-width: 0.8"/>
      </g>
     </g>
     <g id="text_13">
      <!-- 14000 -->
      <g transform="translate(105.1875 209.881837) scale(0.1 -0.1)">
       <use xlink:href="#DejaVuSans-31"/>
       <use xlink:href="#DejaVuSans-34" x="63.623047"/>
       <use xlink:href="#DejaVuSans-30" x="127.246094"/>
       <use xlink:href="#DejaVuSans-30" x="190.869141"/>
       <use xlink:href="#DejaVuSans-30" x="254.492188"/>
      </g>
     </g>
    </g>
    <g id="ytick_6">
     <g id="line2d_14">
      <g>
       <use xlink:href="#m95c4d391c0" x="144" y="140.092439" style="stroke: #000000; stroke-width: 0.8"/>
      </g>
     </g>
     <g id="text_14">
      <!-- 14200 -->
      <g transform="translate(105.1875 143.891657) scale(0.1 -0.1)">
       <use xlink:href="#DejaVuSans-31"/>
       <use xlink:href="#DejaVuSans-34" x="63.623047"/>
       <use xlink:href="#DejaVuSans-32" x="127.246094"/>
       <use xlink:href="#DejaVuSans-30" x="190.869141"/>
       <use xlink:href="#DejaVuSans-30" x="254.492188"/>
      </g>
     </g>
    </g>
    <g id="ytick_7">
     <g id="line2d_15">
      <g>
       <use xlink:href="#m95c4d391c0" x="144" y="74.102259" style="stroke: #000000; stroke-width: 0.8"/>
      </g>
     </g>
     <g id="text_15">
      <!-- 14400 -->
      <g transform="translate(105.1875 77.901477) scale(0.1 -0.1)">
       <use xlink:href="#DejaVuSans-31"/>
       <use xlink:href="#DejaVuSans-34" x="63.623047"/>
       <use xlink:href="#DejaVuSans-34" x="127.246094"/>
       <use xlink:href="#DejaVuSans-30" x="190.869141"/>
       <use xlink:href="#DejaVuSans-30" x="254.492188"/>
      </g>
     </g>
    </g>
   </g>
   <g id="line2d_16">
    <path d="M 184.581818 492.48 
L 199.612121 486.870835 
L 214.642424 477.632209 
L 229.672727 474.00275 
L 244.70303 472.352995 
L 259.733333 466.74383 
L 274.763636 461.464615 
L 289.793939 448.266579 
L 304.824242 441.667561 
L 319.854545 438.368052 
L 334.884848 437.708151 
L 349.915152 424.510115 
L 364.945455 416.261342 
L 379.975758 411.97198 
L 395.006061 401.413552 
L 410.036364 387.225663 
L 425.066667 385.905859 
L 440.09697 382.276399 
L 455.127273 373.367725 
L 470.157576 368.748412 
L 485.187879 352.250867 
L 500.218182 343.342193 
L 515.248485 334.433519 
L 530.278788 324.864943 
L 545.309091 323.545139 
L 560.339394 321.895385 
L 575.369697 309.687201 
L 590.4 292.859705 
L 605.430303 281.971326 
L 620.460606 273.062651 
L 635.490909 271.742848 
L 650.521212 268.113388 
L 665.551515 261.184419 
L 680.581818 252.935646 
L 695.612121 250.296039 
L 710.642424 240.727463 
L 725.672727 235.118298 
L 740.70303 231.488838 
L 755.733333 218.620753 
L 770.763636 214.331391 
L 785.793939 202.78311 
L 800.824242 195.854141 
L 815.854545 191.89473 
L 830.884848 184.965761 
L 845.915152 181.666252 
L 860.945455 169.458069 
L 875.975758 153.290475 
L 891.006061 150.320917 
L 906.036364 143.721899 
L 921.066667 137.122881 
L 936.09697 131.183764 
L 951.127273 124.254795 
L 966.157576 114.356268 
L 981.187879 104.127791 
L 996.218182 89.28 
" clip-path="url(#pf5793be21d)" style="fill: none; stroke: #1f77b4; stroke-width: 1.5; stroke-linecap: square"/>
   </g>
   <g id="patch_3">
    <path d="M 144 512.64 
L 144 69.12 
" style="fill: none; stroke: #000000; stroke-width: 0.8; stroke-linejoin: miter; stroke-linecap: square"/>
   </g>
   <g id="patch_4">
    <path d="M 1036.8 512.64 
L 1036.8 69.12 
" style="fill: none; stroke: #000000; stroke-width: 0.8; stroke-linejoin: miter; stroke-linecap: square"/>
   </g>
   <g id="patch_5">
    <path d="M 144 512.64 
L 1036.8 512.64 
" style="fill: none; stroke: #000000; stroke-width: 0.8; stroke-linejoin: miter; stroke-linecap: square"/>
   </g>
   <g id="patch_6">
    <path d="M 144 69.12 
L 1036.8 69.12 
" style="fill: none; stroke: #000000; stroke-width: 0.8; stroke-linejoin: miter; stroke-linecap: square"/>
   </g>
   <g id="text_16">
    <!-- Number of AEDs in the OpenStreetMap database in Poland from 2026-01-01, day by day. As at: 2026-02-24 -->
    <g transform="translate(144 63.12) scale(0.14 -0.14)">
     <defs>
      <path id="DejaVuSans-4e" d="M 628 4666 
L 1478 4666 
L 3547 763 
L 3547 4666 
L 4159 4666 
L 4159 0 
L 3309 0 
L 1241 3903 
L 1241 0 
L 628 0 
L 628 4666 
z
" transform="scale(0.015625)"/>
      <path id="DejaVuSans-75" d="M 544 1381 
L 544 3500 
L 1119 3500 
L 1119 1403 
Q 1119 906 1312 657 
Q 1506 409 1894 409 
Q 2359 409 2629 706 
Q 2900 1003 2900 1516 
L 2900 3500 
L 3475 3500 
L 3475 0 
L 2900 0 
L 2900 538 
Q 2691 219 2414 64 
Q 2138 -91 1772 -91 
Q 1169 -91 856 284 
Q 544 659 544 1381 
z
M 1991 3584 
L 1991 3584 
z
" transform="scale(0.015625)"/>
      <path id="DejaVuSans-6d" d="M 3328 2828 
Q 3544 3216 3844 3400 
Q 4144 3584 4550 3584 
Q 5097 3584 5394 3201 
Q 5691 2819 5691 2113 
L 5691 0 
L 5113 0 
L 5113 2094 
Q 5113 2597 4934 2840 
Q 4756 3084 4391 3084 
Q 3944 3084 3684 2787 
Q 3425 2491 3425 1978 
L 3425 0 
L 2847 0 
L 2847 2094 
Q 2847 2600 2669 2842 
Q 2491 3084 2119 3084 
Q 1678 3084 1418 2786 
Q 1159 2488 1159 1978 
L 1159 0 
L 581 0 
L 581 3500 
L 1159 3500 
L 1159 2956 
Q 1356 3278 1631 3431 
Q 1906 3584 2284 3584 
Q 2666 3584 2933 3390 
Q 3200 3197 3328 2828 
z
" transform="scale(0.015625)"/>
      <path id="DejaVuSans-62" d="M 3116 1747 
Q 3116 2381 2855 2742 
Q 2594 3103 2138 3103 
Q 1681 3103 1420 2742 
Q 1159 2381 1159 1747 
Q 1159 1113 1420 752 
Q 1681 391 2138 391 
Q 2594 391 2855 752 
Q 3116 1113 3116 1747 
z
M 1159 2969 
Q 1341 3281 1617 3432 
Q 1894 3584 2278 3584 
Q 2916 3584 3314 3078 
Q 3713 2572 3713 1747 
Q 3713 922 3314 415 
Q 2916 -91 2278 -91 
Q 1894 -91 1617 61 
Q 1341 213 1159 525 
L 1159 0 
L 581 0 
L 581 4863 
L 1159 4863 
L 1159 2969 
z
" transform="scale(0.015625)"/>
      <path id="DejaVuSans-65" d="M 3597 1894 
L 3597 1613 
L 953 1613 
Q 991 1019 1311 708 
Q 1631 397 2203 397 
Q 2534 397 2845 478 
Q 3156 559 3463 722 
L 3463 178 
Q 3153 47 2828 -22 
Q 2503 -91 2169 -91 
Q 1331 -91 842 396 
Q 353 884 353 1716 
Q 353 2575 817 3079 
Q 1281 3584 2069 3584 
Q 2775 3584 3186 3129 
Q 3597 2675 3597 1894 
z
M 3022 2063 
Q 3016 2534 2758 2815 
Q 2500 3097 2075 3097 
Q 1594 3097 1305 2825 
Q 1016 2553 972 2059 
L 3022 2063 
z
" transform="scale(0.015625)"/>
      <path id="DejaVuSans-72" d="M 2631 2963 
Q 2534 3019 2420 3045 
Q 2306 3072 2169 3072 
Q 1681 3072 1420 2755 
Q 1159 2438 1159 1844 
L 1159 0 
L 581 0 
L 581 3500 
L 1159 3500 
L 1159 2956 
Q 1341 3275 1631 3429 
Q 1922 3584 2338 3584 
Q 2397 3584 2469 3576 
Q 2541 3569 2628 3553 
L 2631 2963 
z
" transform="scale(0.015625)"/>
      <path id="DejaVuSans-20" transform="scale(0.015625)"/>
      <path id="DejaVuSans-6f" d="M 1959 3097 
Q 1497 3097 1228 2736 
Q 959 2375 959 1747 
Q 959 1119 1226 758 
Q 1494 397 1959 397 
Q 2419 397 2687 759 
Q 2956 1122 2956 1747 
Q 2956 2369 2687 2733 
Q 2419 3097 1959 3097 
z
M 1959 3584 
Q 2709 3584 3137 3096 
Q 3566 2609 3566 1747 
Q 3566 888 3137 398 
Q 2709 -91 1959 -91 
Q 1206 -91 779 398 
Q 353 888 353 1747 
Q 353 2609 779 3096 
Q 1206 3584 1959 3584 
z
" transform="scale(0.015625)"/>
      <path id="DejaVuSans-66" d="M 2375 4863 
L 2375 4384 
L 1825 4384 
Q 1516 4384 1395 4259 
Q 1275 4134 1275 3809 
L 1275 3500 
L 2222 3500 
L 2222 3053 
L 1275 3053 
L 1275 0 
L 697 0 
L 697 3053 
L 147 3053 
L 147 3500 
L 697 3500 
L 697 3744 
Q 697 4328 969 4595 
Q 1241 4863 1831 4863 
L 2375 4863 
z
" transform="scale(0.015625)"/>
      <path id="DejaVuSans-41" d="M 2188 4044 
L 1331 1722 
L 3047 1722 
L 2188 4044 
z
M 1831 4666 
L 2547 4666 
L 4325 0 
L 3669 0 
L 3244 1197 
L 1141 1197 
L 716 0 
L 50 0 
L 1831 4666 
z
" transform="scale(0.015625)"/>
      <path id="DejaVuSans-45" d="M 628 4666 
L 3578 4666 
L 3578 4134 
L 1259 4134 
L 1259 2753 
L 3481 2753 
L 3481 2222 
L 1259 2222 
L 1259 531 
L 3634 531 
L 3634 0 
L 628 0 
L 628 4666 
z
" transform="scale(0.015625)"/>
      <path id="DejaVuSans-44" d="M 1259 4147 
L 1259 519 
L 2022 519 
Q 2988 519 3436 956 
Q 3884 1394 3884 2338 
Q 3884 3275 3436 3711 
Q 2988 4147 2022 4147 
L 1259 4147 
z
M 628 4666 
L 1925 4666 
Q 3281 4666 3915 4102 
Q 4550 3538 4550 2338 
Q 4550 1131 3912 565 
Q 3275 0 1925 0 
L 628 0 
L 628 4666 
z
" transform="scale(0.015625)"/>
      <path id="DejaVuSans-73" d="M 2834 3397 
L 2834 2853 
Q 2591 2978 2328 3040 
Q 2066 3103 1784 3103 
Q 1356 3103 1142 2972 
Q 928 2841 928 2578 
Q 928 2378 1081 2264 
Q 1234 2150 1697 2047 
L 1894 2003 
Q 2506 1872 2764 1633 
Q 3022 1394 3022 966 
Q 3022 478 2636 193 
Q 2250 -91 1575 -91 
Q 1294 -91 989 -36 
Q 684 19 347 128 
L 347 722 
Q 666 556 975 473 
Q 1284 391 1588 391 
Q 1994 391 2212 530 
Q 2431 669 2431 922 
Q 2431 1156 2273 1281 
Q 2116 1406 1581 1522 
L 1381 1569 
Q 847 1681 609 1914 
Q 372 2147 372 2553 
Q 372 3047 722 3315 
Q 1072 3584 1716 3584 
Q 2034 3584 2315 3537 
Q 2597 3491 2834 3397 
z
" transform="scale(0.015625)"/>
      <path id="DejaVuSans-69" d="M 603 3500 
L 1178 3500 
L 1178 0 
L 603 0 
L 603 3500 
z
M 603 4863 
L 1178 4863 
L 1178 4134 
L 603 4134 
L 603 4863 
z
" transform="scale(0.015625)"/>
      <path id="DejaVuSans-6e" d="M 3513 2113 
L 3513 0 
L 2938 0 
L 2938 2094 
Q 2938 2591 2744 2837 
Q 2550 3084 2163 3084 
Q 1697 3084 1428 2787 
Q 1159 2491 1159 1978 
L 1159 0 
L 581 0 
L 581 3500 
L 1159 3500 
L 1159 2956 
Q 1366 3272 1645 3428 
Q 1925 3584 2291 3584 
Q 2894 3584 3203 3211 
Q 3513 2838 3513 2113 
z
" transform="scale(0.015625)"/>
      <path id="DejaVuSans-74" d="M 1172 4494 
L 1172 3500 
L 2356 3500 
L 2356 3053 
L 1172 3053 
L 1172 1153 
Q 1172 725 1289 603 
Q 1406 481 1766 481 
L 2356 481 
L 2356 0 
L 1766 0 
Q 1100 0 847 248 
Q 594 497 594 1153 
L 594 3053 
L 172 3053 
L 172 3500 
L 594 3500 
L 594 4494 
L 1172 4494 
z
" transform="scale(0.015625)"/>
      <path id="DejaVuSans-68" d="M 3513 2113 
L 3513 0 
L 2938 0 
L 2938 2094 
Q 2938 2591 2744 2837 
Q 2550 3084 2163 3084 
Q 1697 3084 1428 2787 
Q 1159 2491 1159 1978 
L 1159 0 
L 581 0 
L 581 4863 
L 1159 4863 
L 1159 2956 
Q 1366 3272 1645 3428 
Q 1925 3584 2291 3584 
Q 2894 3584 3203 3211 
Q 3513 2838 3513 2113 
z
" transform="scale(0.015625)"/>
      <path id="DejaVuSans-4f" d="M 2522 4238 
Q 1834 4238 1429 3725 
Q 1025 3213 1025 2328 
Q 1025 1447 1429 934 
Q 1834 422 2522 422 
Q 3209 422 3611 934 
Q 4013 1447 4013 2328 
Q 4013 3213 3611 3725 
Q 3209 4238 2522 4238 
z
M 2522 4750 
Q 3503 4750 4090 4092 
Q 4678 3434 4678 2328 
Q 4678 1225 4090 567 
Q 3503 -91 2522 -91 
Q 1538 -91 948 565 
Q 359 1222 359 2328 
Q 359 3434 948 4092 
Q 1538 4750 2522 4750 
z
" transform="scale(0.015625)"/>
      <path id="DejaVuSans-70" d="M 1159 525 
L 1159 -1331 
L 581 -1331 
L 581 3500 
L 1159 3500 
L 1159 2969 
Q 1341 3281 1617 3432 
Q 1894 3584 2278 3584 
Q 2916 3584 3314 3078 
Q 3713 2572 3713 1747 
Q 3713 922 3314 415 
Q 2916 -91 2278 -91 
Q 1894 -91 1617 61 
Q 1341 213 1159 525 
z
M 3116 1747 
Q 3116 2381 2855 2742 
Q 2594 3103 2138 3103 
Q 1681 3103 1420 2742 
Q 1159 2381 1159 1747 
Q 1159 1113 1420 752 
Q 1681 391 2138 391 
Q 2594 391 2855 752 
Q 3116 1113 3116 1747 
z
" transform="scale(0.015625)"/>
      <path id="DejaVuSans-53" d="M 3425 4513 
L 3425 3897 
Q 3066 4069 2747 4153 
Q 2428 4238 2131 4238 
Q 1616 4238 1336 4038 
Q 1056 3838 1056 3469 
Q 1056 3159 1242 3001 
Q 1428 2844 1947 2747 
L 2328 2669 
Q 3034 2534 3370 2195 
Q 3706 1856 3706 1288 
Q 3706 609 3251 259 
Q 2797 -91 1919 -91 
Q 1588 -91 1214 -16 
Q 841 59 441 206 
L 441 856 
Q 825 641 1194 531 
Q 1563 422 1919 422 
Q 2459 422 2753 634 
Q 3047 847 3047 1241 
Q 3047 1584 2836 1778 
Q 2625 1972 2144 2069 
L 1759 2144 
Q 1053 2284 737 2584 
Q 422 2884 422 3419 
Q 422 4038 858 4394 
Q 1294 4750 2059 4750 
Q 2388 4750 2728 4690 
Q 3069 4631 3425 4513 
z
" transform="scale(0.015625)"/>
      <path id="DejaVuSans-4d" d="M 628 4666 
L 1569 4666 
L 2759 1491 
L 3956 4666 
L 4897 4666 
L 4897 0 
L 4281 0 
L 4281 4097 
L 3078 897 
L 2444 897 
L 1241 4097 
L 1241 0 
L 628 0 
L 628 4666 
z
" transform="scale(0.015625)"/>
      <path id="DejaVuSans-61" d="M 2194 1759 
Q 1497 1759 1228 1600 
Q 959 1441 959 1056 
Q 959 750 1161 570 
Q 1363 391 1709 391 
Q 2188 391 2477 730 
Q 2766 1069 2766 1631 
L 2766 1759 
L 2194 1759 
z
M 3341 1997 
L 3341 0 
L 2766 0 
L 2766 531 
Q 2569 213 2275 61 
Q 1981 -91 1556 -91 
Q 1019 -91 701 211 
Q 384 513 384 1019 
Q 384 1609 779 1909 
Q 1175 2209 1959 2209 
L 2766 2209 
L 2766 2266 
Q 2766 2663 2505 2880 
Q 2244 3097 1772 3097 
Q 1472 3097 1187 3025 
Q 903 2953 641 2809 
L 641 3341 
Q 956 3463 1253 3523 
Q 1550 3584 1831 3584 
Q 2591 3584 2966 3190 
Q 3341 2797 3341 1997 
z
" transform="scale(0.015625)"/>
      <path id="DejaVuSans-64" d="M 2906 2969 
L 2906 4863 
L 3481 4863 
L 3481 0 
L 2906 0 
L 2906 525 
Q 2725 213 2448 61 
Q 2172 -91 1784 -91 
Q 1150 -91 751 415 
Q 353 922 353 1747 
Q 353 2572 751 3078 
Q 1150 3584 1784 3584 
Q 2172 3584 2448 3432 
Q 2725 3281 2906 2969 
z
M 947 1747 
Q 947 1113 1208 752 
Q 1469 391 1925 391 
Q 2381 391 2643 752 
Q 2906 1113 2906 1747 
Q 2906 2381 2643 2742 
Q 2381 3103 1925 3103 
Q 1469 3103 1208 2742 
Q 947 2381 947 1747 
z
" transform="scale(0.015625)"/>
      <path id="DejaVuSans-50" d="M 1259 4147 
L 1259 2394 
L 2053 2394 
Q 2494 2394 2734 2622 
Q 2975 2850 2975 3272 
Q 2975 3691 2734 3919 
Q 2494 4147 2053 4147 
L 1259 4147 
z
M 628 4666 
L 2053 4666 
Q 2838 4666 3239 4311 
Q 3641 3956 3641 3272 
Q 3641 2581 3239 2228 
Q 2838 1875 2053 1875 
L 1259 1875 
L 1259 0 
L 628 0 
L 628 4666 
z
" transform="scale(0.015625)"/>
      <path id="DejaVuSans-6c" d="M 603 4863 
L 1178 4863 
L 1178 0 
L 603 0 
L 603 4863 
z
" transform="scale(0.015625)"/>
      <path id="DejaVuSans-2c" d="M 750 794 
L 1409 794 
L 1409 256 
L 897 -744 
L 494 -744 
L 750 256 
L 750 794 
z
" transform="scale(0.015625)"/>
      <path id="DejaVuSans-79" d="M 2059 -325 
Q 1816 -950 1584 -1140 
Q 1353 -1331 966 -1331 
L 506 -1331 
L 506 -850 
L 844 -850 
Q 1081 -850 1212 -737 
Q 1344 -625 1503 -206 
L 1606 56 
L 191 3500 
L 800 3500 
L 1894 763 
L 2988 3500 
L 3597 3500 
L 2059 -325 
z
" transform="scale(0.015625)"/>
      <path id="DejaVuSans-2e" d="M 684 794 
L 1344 794 
L 1344 0 
L 684 0 
L 684 794 
z
" transform="scale(0.015625)"/>
      <path id="DejaVuSans-3a" d="M 750 794 
L 1409 794 
L 1409 0 
L 750 0 
L 750 794 
z
M 750 3309 
L 1409 3309 
L 1409 2516 
L 750 2516 
L 750 3309 
z
" transform="scale(0.015625)"/>
     </defs>
     <use xlink:href="#DejaVuSans-4e"/>
     <use xlink:href="#DejaVuSans-75" x="74.804688"/>
     <use xlink:href="#DejaVuSans-6d" x="138.183594"/>
     <use xlink:href="#DejaVuSans-62" x="235.595703"/>
     <use xlink:href="#DejaVuSans-65" x="299.072266"/>
     <use xlink:href="#DejaVuSans-72" x="360.595703"/>
     <use xlink:href="#DejaVuSans-20" x="401.708984"/>
     <use xlink:href="#DejaVuSans-6f" x="433.496094"/>
     <use xlink:href="#DejaVuSans-66" x="494.677734"/>
     <use xlink:href="#DejaVuSans-20" x="529.882812"/>
     <use xlink:href="#DejaVuSans-41" x="561.669922"/>
     <use xlink:href="#DejaVuSans-45" x="630.078125"/>
     <use xlink:href="#DejaVuSans-44" x="693.261719"/>
     <use xlink:href="#DejaVuSans-73" x="770.263672"/>
     <use xlink:href="#DejaVuSans-20" x="822.363281"/>
     <use xlink:href="#DejaVuSans-69" x="854.150391"/>
     <use xlink:href="#DejaVuSans-6e" x="881.933594"/>
     <use xlink:href="#DejaVuSans-20" x="945.3125"/>
     <use xlink:href="#DejaVuSans-74" x="977.099609"/>
     <use xlink:href="#DejaVuSans-68" x="1016.308594"/>
     <use xlink:href="#DejaVuSans-65" x="1079.6875"/>
     <use xlink:href="#DejaVuSans-20" x="1141.210938"/>
     <use xlink:href="#DejaVuSans-4f" x="1172.998047"/>
     <use xlink:href="#DejaVuSans-70" x="1251.708984"/>
     <use xlink:href="#DejaVuSans-65" x="1315.185547"/>
     <use xlink:href="#DejaVuSans-6e" x="1376.708984"/>
     <use xlink:href="#DejaVuSans-53" x="1440.087891"/>
     <use xlink:href="#DejaVuSans-74" x="1503.564453"/>
     <use xlink:href="#DejaVuSans-72" x="1542.773438"/>
     <use xlink:href="#DejaVuSans-65" x="1581.636719"/>
     <use xlink:href="#DejaVuSans-65" x="1643.160156"/>
     <use xlink:href="#DejaVuSans-74" x="1704.683594"/>
     <use xlink:href="#DejaVuSans-4d" x="1743.892578"/>
     <use xlink:href="#DejaVuSans-61" x="1830.171875"/>
     <use xlink:href="#DejaVuSans-70" x="1891.451172"/>
     <use xlink:href="#DejaVuSans-20" x="1954.927734"/>
     <use xlink:href="#DejaVuSans-64" x="1986.714844"/>
     <use xlink:href="#DejaVuSans-61" x="2050.191406"/>
     <use xlink:href="#DejaVuSans-74" x="2111.470703"/>
     <use xlink:href="#DejaVuSans-61" x="2150.679688"/>
     <use xlink:href="#DejaVuSans-62" x="2211.958984"/>
     <use xlink:href="#DejaVuSans-61" x="2275.435547"/>
     <use xlink:href="#DejaVuSans-73" x="2336.714844"/>
     <use xlink:href="#DejaVuSans-65" x="2388.814453"/>
     <use xlink:href="#DejaVuSans-20" x="2450.337891"/>
     <use xlink:href="#DejaVuSans-69" x="2482.125"/>
     <use xlink:href="#DejaVuSans-6e" x="2509.908203"/>
     <use xlink:href="#DejaVuSans-20" x="2573.287109"/>
     <use xlink:href="#DejaVuSans-50" x="2605.074219"/>
     <use xlink:href="#DejaVuSans-6f" x="2661.751953"/>
     <use xlink:href="#DejaVuSans-6c" x="2722.933594"/>
     <use xlink:href="#DejaVuSans-61" x="2750.716797"/>
     <use xlink:href="#DejaVuSans-6e" x="2811.996094"/>
     <use xlink:href="#DejaVuSans-64" x="2875.375"/>
     <use xlink:href="#DejaVuSans-20" x="2938.851562"/>
     <use xlink:href="#DejaVuSans-66" x="2970.638672"/>
     <use xlink:href="#DejaVuSans-72" x="3005.84375"/>
     <use xlink:href="#DejaVuSans-6f" x="3044.707031"/>
     <use xlink:href="#DejaVuSans-6d" x="3105.888672"/>
     <use xlink:href="#DejaVuSans-20" x="3203.300781"/>
     <use xlink:href="#DejaVuSans-32" x="3235.087891"/>
     <use xlink:href="#DejaVuSans-30" x="3298.710938"/>
     <use xlink:href="#DejaVuSans-32" x="3362.333984"/>
     <use xlink:href="#DejaVuSans-36" x="3425.957031"/>
     <use xlink:href="#DejaVuSans-2d" x="3489.580078"/>
     <use xlink:href="#DejaVuSans-30" x="3525.664062"/>
     <use xlink:href="#DejaVuSans-31" x="3589.287109"/>
     <use xlink:href="#DejaVuSans-2d" x="3652.910156"/>
     <use xlink:href="#DejaVuSans-30" x="3688.994141"/>
     <use xlink:href="#DejaVuSans-31" x="3752.617188"/>
     <use xlink:href="#DejaVuSans-2c" x="3816.240234"/>
     <use xlink:href="#DejaVuSans-20" x="3848.027344"/>
     <use xlink:href="#DejaVuSans-64" x="3879.814453"/>
     <use xlink:href="#DejaVuSans-61" x="3943.291016"/>
     <use xlink:href="#DejaVuSans-79" x="4004.570312"/>
     <use xlink:href="#DejaVuSans-20" x="4063.75"/>
     <use xlink:href="#DejaVuSans-62" x="4095.537109"/>
     <use xlink:href="#DejaVuSans-79" x="4159.013672"/>
     <use xlink:href="#DejaVuSans-20" x="4218.193359"/>
     <use xlink:href="#DejaVuSans-64" x="4249.980469"/>
     <use xlink:href="#DejaVuSans-61" x="4313.457031"/>
     <use xlink:href="#DejaVuSans-79" x="4374.736328"/>
     <use xlink:href="#DejaVuSans-2e" x="4419.666016"/>
     <use xlink:href="#DejaVuSans-20" x="4451.453125"/>
     <use xlink:href="#DejaVuSans-41" x="4483.240234"/>
     <use xlink:href="#DejaVuSans-73" x="4551.648438"/>
     <use xlink:href="#DejaVuSans-20" x="4603.748047"/>
     <use xlink:href="#DejaVuSans-61" x="4635.535156"/>
     <use xlink:href="#DejaVuSans-74" x="4696.814453"/>
     <use xlink:href="#DejaVuSans-3a" x="4736.023438"/>
     <use xlink:href="#DejaVuSans-20" x="4769.714844"/>
     <use xlink:href="#DejaVuSans-32" x="4801.501953"/>
     <use xlink:href="#DejaVuSans-30" x="4865.125"/>
     <use xlink:href="#DejaVuSans-32" x="4928.748047"/>
     <use xlink:href="#DejaVuSans-36" x="4992.371094"/>
     <use xlink:href="#DejaVuSans-2d" x="5055.994141"/>
     <use xlink:href="#DejaVuSans-30" x="5092.078125"/>
     <use xlink:href="#DejaVuSans-32" x="5155.701172"/>
     <use xlink:href="#DejaVuSans-2d" x="5219.324219"/>
     <use xlink:href="#DejaVuSans-32" x="5255.408203"/>
     <use xlink:href="#DejaVuSans-34" x="5319.03125"/>
    </g>
   </g>
  </g>
 </g>
 <defs>
  <clipPath id="pf5793be21d">
   <rect x="144" y="69.12" width="892.8" height="443.52"/>
  </clipPath>
 </defs>
</svg>
