<?xml version="1.0" encoding="utf-8" standalone="no"?>
<!DOCTYPE svg PUBLIC "-//W3C//DTD SVG 1.1//EN"
  "http://www.w3.org/Graphics/SVG/1.1/DTD/svg11.dtd">
<svg xmlns:xlink="http://www.w3.org/1999/xlink" width="1152pt" height="576pt" viewBox="0 0 1152 576" xmlns="http://www.w3.org/2000/svg" version="1.1">
 <metadata>
  <rdf:RDF xmlns:dc="http://purl.org/dc/elements/1.1/" xmlns:cc="http://creativecommons.org/ns#" xmlns:rdf="http://www.w3.org/1999/02/22-rdf-syntax-ns#">
   <cc:Work>
    <dc:type rdf:resource="http://purl.org/dc/dcmitype/StillImage"/>
    <dc:date>2024-03-27T10:33:22.051507</dc:date>
    <dc:format>image/svg+xml</dc:format>
    <dc:creator>
     <cc:Agent>
      <dc:title>Matplotlib v3.8.3, https://matplotlib.org/</dc:title>
     </cc:Agent>
    </dc:creator>
   </cc:Work>
  </rdf:RDF>
 </metadata>
 <defs>
  <style type="text/css">*{stroke-linejoin: round; stroke-linecap: butt}</style>
 </defs>
 <g id="figure_1">
  <g id="patch_1">
   <path d="M 0 576 
L 1152 576 
L 1152 0 
L 0 0 
z
" style="fill: #ffffff"/>
  </g>
  <g id="axes_1">
   <g id="patch_2">
    <path d="M 144 512.64 
L 1036.8 512.64 
L 1036.8 69.12 
L 144 69.12 
z
" style="fill: #ffffff"/>
   </g>
   <g id="PathCollection_1">
    <path d="M 184.581818 496.015534 
C 185.519453 496.015534 186.41881 495.643008 187.081818 494.98 
C 187.744826 494.316992 188.117352 493.417635 188.117352 492.48 
C 188.117352 491.542365 187.744826 490.643008 187.081818 489.98 
C 186.41881 489.316992 185.519453 488.944466 184.581818 488.944466 
C 183.644184 488.944466 182.744826 489.316992 182.081818 489.98 
C 181.41881 490.643008 181.046284 491.542365 181.046284 492.48 
C 181.046284 493.417635 181.41881 494.316992 182.081818 494.98 
C 182.744826 495.643008 183.644184 496.015534 184.581818 496.015534 
z
" clip-path="url(#pf9cdbf35a4)" style="fill: #1f77b4; fill-opacity: 0.3; stroke: #1f77b4; stroke-opacity: 0.3"/>
    <path d="M 194.01945 485.623607 
C 195.894719 485.623607 197.693435 484.878554 199.01945 483.552539 
C 200.345466 482.226523 201.090518 480.427808 201.090518 478.552539 
C 201.090518 476.67727 200.345466 474.878554 199.01945 473.552539 
C 197.693435 472.226523 195.894719 471.481471 194.01945 471.481471 
C 192.144181 471.481471 190.345466 472.226523 189.01945 473.552539 
C 187.693435 474.878554 186.948383 476.67727 186.948383 478.552539 
C 186.948383 480.427808 187.693435 482.226523 189.01945 483.552539 
C 190.345466 484.878554 192.144181 485.623607 194.01945 485.623607 
z
" clip-path="url(#pf9cdbf35a4)" style="fill: #1f77b4; fill-opacity: 0.3; stroke: #1f77b4; stroke-opacity: 0.3"/>
    <path d="M 203.457082 468.509097 
C 205.595218 468.509097 207.646069 467.659607 209.15796 466.147717 
C 210.66985 464.635826 211.51934 462.584975 211.51934 460.446839 
C 211.51934 458.308704 210.66985 456.257853 209.15796 454.745962 
C 207.646069 453.234072 205.595218 452.384582 203.457082 452.384582 
C 201.318947 452.384582 199.268096 453.234072 197.756205 454.745962 
C 196.244315 456.257853 195.394825 458.308704 195.394825 460.446839 
C 195.394825 462.584975 196.244315 464.635826 197.756205 466.147717 
C 199.268096 467.659607 201.318947 468.509097 203.457082 468.509097 
z
" clip-path="url(#pf9cdbf35a4)" style="fill: #1f77b4; fill-opacity: 0.3; stroke: #1f77b4; stroke-opacity: 0.3"/>
    <path d="M 212.894715 461.331605 
C 213.314038 461.331605 213.716242 461.165006 214.012749 460.8685 
C 214.309255 460.571994 214.475853 460.169789 214.475853 459.750466 
C 214.475853 459.331143 214.309255 458.928938 214.012749 458.632432 
C 213.716242 458.335926 213.314038 458.169327 212.894715 458.169327 
C 212.475392 458.169327 212.073187 458.335926 211.776681 458.632432 
C 211.480175 458.928938 211.313576 459.331143 211.313576 459.750466 
C 211.313576 460.169789 211.480175 460.571994 211.776681 460.8685 
C 212.073187 461.165006 212.475392 461.331605 212.894715 461.331605 
z
" clip-path="url(#pf9cdbf35a4)" style="fill: #1f77b4; fill-opacity: 0.3; stroke: #1f77b4; stroke-opacity: 0.3"/>
    <path d="M 222.332347 457.786736 
C 223.658362 457.786736 224.930246 457.259904 225.867881 456.32227 
C 226.805515 455.384635 227.332347 454.112751 227.332347 452.786736 
C 227.332347 451.46072 226.805515 450.188836 225.867881 449.251202 
C 224.930246 448.313567 223.658362 447.786736 222.332347 447.786736 
C 221.006331 447.786736 219.734447 448.313567 218.796813 449.251202 
C 217.859178 450.188836 217.332347 451.46072 217.332347 452.786736 
C 217.332347 454.112751 217.859178 455.384635 218.796813 456.32227 
C 219.734447 457.259904 221.006331 457.786736 222.332347 457.786736 
z
" clip-path="url(#pf9cdbf35a4)" style="fill: #1f77b4; fill-opacity: 0.3; stroke: #1f77b4; stroke-opacity: 0.3"/>
    <path d="M 241.207611 452.840404 
C 242.145246 452.840404 243.044603 452.467878 243.707611 451.80487 
C 244.370619 451.141863 244.743145 450.242505 244.743145 449.30487 
C 244.743145 448.367236 244.370619 447.467878 243.707611 446.80487 
C 243.044603 446.141863 242.145246 445.769337 241.207611 445.769337 
C 240.269976 445.769337 239.370619 446.141863 238.707611 446.80487 
C 238.044603 447.467878 237.672077 448.367236 237.672077 449.30487 
C 237.672077 450.242505 238.044603 451.141863 238.707611 451.80487 
C 239.370619 452.467878 240.269976 452.840404 241.207611 452.840404 
z
" clip-path="url(#pf9cdbf35a4)" style="fill: #1f77b4; fill-opacity: 0.3; stroke: #1f77b4; stroke-opacity: 0.3"/>
    <path d="M 250.645243 449.681656 
C 251.483889 449.681656 252.288299 449.348458 252.881311 448.755446 
C 253.474323 448.162434 253.807521 447.358024 253.807521 446.519378 
C 253.807521 445.680732 253.474323 444.876322 252.881311 444.28331 
C 252.288299 443.690298 251.483889 443.357101 250.645243 443.357101 
C 249.806597 443.357101 249.002187 443.690298 248.409175 444.28331 
C 247.816163 444.876322 247.482965 445.680732 247.482965 446.519378 
C 247.482965 447.358024 247.816163 448.162434 248.409175 448.755446 
C 249.002187 449.348458 249.806597 449.681656 250.645243 449.681656 
z
" clip-path="url(#pf9cdbf35a4)" style="fill: #1f77b4; fill-opacity: 0.3; stroke: #1f77b4; stroke-opacity: 0.3"/>
    <path d="M 260.082875 447.168872 
C 260.809164 447.168872 261.505803 446.880314 262.019367 446.366751 
C 262.532931 445.853187 262.821488 445.156548 262.821488 444.430259 
C 262.821488 443.70397 262.532931 443.007331 262.019367 442.493767 
C 261.505803 441.980204 260.809164 441.691646 260.082875 441.691646 
C 259.356587 441.691646 258.659947 441.980204 258.146384 442.493767 
C 257.63282 443.007331 257.344262 443.70397 257.344262 444.430259 
C 257.344262 445.156548 257.63282 445.853187 258.146384 446.366751 
C 258.659947 446.880314 259.356587 447.168872 260.082875 447.168872 
z
" clip-path="url(#pf9cdbf35a4)" style="fill: #1f77b4; fill-opacity: 0.3; stroke: #1f77b4; stroke-opacity: 0.3"/>
    <path d="M 269.520507 444.807044 
C 270.359153 444.807044 271.163563 444.473847 271.756575 443.880835 
C 272.349588 443.287823 272.682785 442.483413 272.682785 441.644767 
C 272.682785 440.806121 272.349588 440.001711 271.756575 439.408699 
C 271.163563 438.815687 270.359153 438.482489 269.520507 438.482489 
C 268.681862 438.482489 267.877452 438.815687 267.284439 439.408699 
C 266.691427 440.001711 266.35823 440.806121 266.35823 441.644767 
C 266.35823 442.483413 266.691427 443.287823 267.284439 443.880835 
C 267.877452 444.473847 268.681862 444.807044 269.520507 444.807044 
z
" clip-path="url(#pf9cdbf35a4)" style="fill: #1f77b4; fill-opacity: 0.3; stroke: #1f77b4; stroke-opacity: 0.3"/>
    <path d="M 278.95814 441.339512 
C 279.985267 441.339512 280.970464 440.93143 281.696752 440.205141 
C 282.423041 439.478853 282.831123 438.493656 282.831123 437.466528 
C 282.831123 436.439401 282.423041 435.454204 281.696752 434.727916 
C 280.970464 434.001627 279.985267 433.593545 278.95814 433.593545 
C 277.931012 433.593545 276.945815 434.001627 276.219527 434.727916 
C 275.493238 435.454204 275.085156 436.439401 275.085156 437.466528 
C 275.085156 438.493656 275.493238 439.478853 276.219527 440.205141 
C 276.945815 440.93143 277.931012 441.339512 278.95814 441.339512 
z
" clip-path="url(#pf9cdbf35a4)" style="fill: #1f77b4; fill-opacity: 0.3; stroke: #1f77b4; stroke-opacity: 0.3"/>
    <path d="M 288.395772 432.649115 
C 290.073063 432.649115 291.681883 431.98272 292.867908 430.796696 
C 294.053932 429.610671 294.720327 428.001851 294.720327 426.32456 
C 294.720327 424.647268 294.053932 423.038448 292.867908 421.852424 
C 291.681883 420.666399 290.073063 420.000004 288.395772 420.000004 
C 286.71848 420.000004 285.10966 420.666399 283.923636 421.852424 
C 282.737611 423.038448 282.071216 424.647268 282.071216 426.32456 
C 282.071216 428.001851 282.737611 429.610671 283.923636 430.796696 
C 285.10966 431.98272 286.71848 432.649115 288.395772 432.649115 
z
" clip-path="url(#pf9cdbf35a4)" style="fill: #1f77b4; fill-opacity: 0.3; stroke: #1f77b4; stroke-opacity: 0.3"/>
    <path d="M 297.833404 426.974053 
C 298.559692 426.974053 299.256332 426.685496 299.769895 426.171932 
C 300.283459 425.658368 300.572017 424.961729 300.572017 424.23544 
C 300.572017 423.509152 300.283459 422.812512 299.769895 422.298949 
C 299.256332 421.785385 298.559692 421.496828 297.833404 421.496828 
C 297.107115 421.496828 296.410476 421.785385 295.896912 422.298949 
C 295.383349 422.812512 295.094791 423.509152 295.094791 424.23544 
C 295.094791 424.961729 295.383349 425.658368 295.896912 426.171932 
C 296.410476 426.685496 297.107115 426.974053 297.833404 426.974053 
z
" clip-path="url(#pf9cdbf35a4)" style="fill: #1f77b4; fill-opacity: 0.3; stroke: #1f77b4; stroke-opacity: 0.3"/>
    <path d="M 307.271036 424.884934 
C 307.997325 424.884934 308.693964 424.596377 309.207528 424.082813 
C 309.721091 423.569249 310.009649 422.87261 310.009649 422.146321 
C 310.009649 421.420033 309.721091 420.723393 309.207528 420.20983 
C 308.693964 419.696266 307.997325 419.407708 307.271036 419.407708 
C 306.544747 419.407708 305.848108 419.696266 305.334544 420.20983 
C 304.820981 420.723393 304.532423 421.420033 304.532423 422.146321 
C 304.532423 422.87261 304.820981 423.569249 305.334544 424.082813 
C 305.848108 424.596377 306.544747 424.884934 307.271036 424.884934 
z
" clip-path="url(#pf9cdbf35a4)" style="fill: #1f77b4; fill-opacity: 0.3; stroke: #1f77b4; stroke-opacity: 0.3"/>
    <path d="M 316.708668 417.82445 
C 318.332699 417.82445 319.890432 417.179216 321.038795 416.030852 
C 322.187158 414.882489 322.832392 413.324756 322.832392 411.700725 
C 322.832392 410.076695 322.187158 408.518961 321.038795 407.370598 
C 319.890432 406.222235 318.332699 405.577001 316.708668 405.577001 
C 315.084637 405.577001 313.526904 406.222235 312.378541 407.370598 
C 311.230178 408.518961 310.584944 410.076695 310.584944 411.700725 
C 310.584944 413.324756 311.230178 414.882489 312.378541 416.030852 
C 313.526904 417.179216 315.084637 417.82445 316.708668 417.82445 
z
" clip-path="url(#pf9cdbf35a4)" style="fill: #1f77b4; fill-opacity: 0.3; stroke: #1f77b4; stroke-opacity: 0.3"/>
    <path d="M 326.1463 412.350219 
C 326.872589 412.350219 327.569228 412.061661 328.082792 411.548098 
C 328.596355 411.034534 328.884913 410.337895 328.884913 409.611606 
C 328.884913 408.885318 328.596355 408.188678 328.082792 407.675115 
C 327.569228 407.161551 326.872589 406.872993 326.1463 406.872993 
C 325.420012 406.872993 324.723372 407.161551 324.209809 407.675115 
C 323.696245 408.188678 323.407687 408.885318 323.407687 409.611606 
C 323.407687 410.337895 323.696245 411.034534 324.209809 411.548098 
C 324.723372 412.061661 325.420012 412.350219 326.1463 412.350219 
z
" clip-path="url(#pf9cdbf35a4)" style="fill: #1f77b4; fill-opacity: 0.3; stroke: #1f77b4; stroke-opacity: 0.3"/>
    <path d="M 335.583932 406.732355 
C 337.03651 406.732355 338.429789 406.15524 339.456916 405.128113 
C 340.484043 404.100986 341.061158 402.707707 341.061158 401.25513 
C 341.061158 399.802552 340.484043 398.409273 339.456916 397.382146 
C 338.429789 396.355019 337.03651 395.777904 335.583932 395.777904 
C 334.131355 395.777904 332.738076 396.355019 331.710949 397.382146 
C 330.683822 398.409273 330.106707 399.802552 330.106707 401.25513 
C 330.106707 402.707707 330.683822 404.100986 331.710949 405.128113 
C 332.738076 406.15524 334.131355 406.732355 335.583932 406.732355 
z
" clip-path="url(#pf9cdbf35a4)" style="fill: #1f77b4; fill-opacity: 0.3; stroke: #1f77b4; stroke-opacity: 0.3"/>
    <path d="M 345.021564 401.308798 
C 345.959199 401.308798 346.858557 400.936272 347.521564 400.273264 
C 348.184572 399.610256 348.557098 398.710899 348.557098 397.773264 
C 348.557098 396.83563 348.184572 395.936272 347.521564 395.273264 
C 346.858557 394.610256 345.959199 394.23773 345.021564 394.23773 
C 344.08393 394.23773 343.184572 394.610256 342.521564 395.273264 
C 341.858557 395.936272 341.486031 396.83563 341.486031 397.773264 
C 341.486031 398.710899 341.858557 399.610256 342.521564 400.273264 
C 343.184572 400.936272 344.08393 401.308798 345.021564 401.308798 
z
" clip-path="url(#pf9cdbf35a4)" style="fill: #1f77b4; fill-opacity: 0.3; stroke: #1f77b4; stroke-opacity: 0.3"/>
    <path d="M 354.459197 397.468009 
C 355.486324 397.468009 356.471521 397.059927 357.197809 396.333639 
C 357.924098 395.60735 358.33218 394.622153 358.33218 393.595026 
C 358.33218 392.567899 357.924098 391.582702 357.197809 390.856413 
C 356.471521 390.130125 355.486324 389.722043 354.459197 389.722043 
C 353.432069 389.722043 352.446872 390.130125 351.720584 390.856413 
C 350.994295 391.582702 350.586213 392.567899 350.586213 393.595026 
C 350.586213 394.622153 350.994295 395.60735 351.720584 396.333639 
C 352.446872 397.059927 353.432069 397.468009 354.459197 397.468009 
z
" clip-path="url(#pf9cdbf35a4)" style="fill: #1f77b4; fill-opacity: 0.3; stroke: #1f77b4; stroke-opacity: 0.3"/>
    <path d="M 363.896829 394.24452 
C 364.623117 394.24452 365.319757 393.955962 365.83332 393.442398 
C 366.346884 392.928835 366.635442 392.232195 366.635442 391.505907 
C 366.635442 390.779618 366.346884 390.082979 365.83332 389.569415 
C 365.319757 389.055851 364.623117 388.767294 363.896829 388.767294 
C 363.17054 388.767294 362.473901 389.055851 361.960337 389.569415 
C 361.446773 390.082979 361.158216 390.779618 361.158216 391.505907 
C 361.158216 392.232195 361.446773 392.928835 361.960337 393.442398 
C 362.473901 393.955962 363.17054 394.24452 363.896829 394.24452 
z
" clip-path="url(#pf9cdbf35a4)" style="fill: #1f77b4; fill-opacity: 0.3; stroke: #1f77b4; stroke-opacity: 0.3"/>
    <path d="M 373.334461 392.1554 
C 374.060749 392.1554 374.757389 391.866843 375.270953 391.353279 
C 375.784516 390.839716 376.073074 390.143076 376.073074 389.416788 
C 376.073074 388.690499 375.784516 387.993859 375.270953 387.480296 
C 374.757389 386.966732 374.060749 386.678175 373.334461 386.678175 
C 372.608172 386.678175 371.911533 386.966732 371.397969 387.480296 
C 370.884406 387.993859 370.595848 388.690499 370.595848 389.416788 
C 370.595848 390.143076 370.884406 390.839716 371.397969 391.353279 
C 371.911533 391.866843 372.608172 392.1554 373.334461 392.1554 
z
" clip-path="url(#pf9cdbf35a4)" style="fill: #1f77b4; fill-opacity: 0.3; stroke: #1f77b4; stroke-opacity: 0.3"/>
    <path d="M 382.772093 389.470456 
C 383.709728 389.470456 384.609085 389.09793 385.272093 388.434922 
C 385.935101 387.771915 386.307627 386.872557 386.307627 385.934922 
C 386.307627 384.997288 385.935101 384.09793 385.272093 383.434922 
C 384.609085 382.771915 383.709728 382.399388 382.772093 382.399388 
C 381.834458 382.399388 380.935101 382.771915 380.272093 383.434922 
C 379.609085 384.09793 379.236559 384.997288 379.236559 385.934922 
C 379.236559 386.872557 379.609085 387.771915 380.272093 388.434922 
C 380.935101 389.09793 381.834458 389.470456 382.772093 389.470456 
z
" clip-path="url(#pf9cdbf35a4)" style="fill: #1f77b4; fill-opacity: 0.3; stroke: #1f77b4; stroke-opacity: 0.3"/>
    <path d="M 392.209725 385.988591 
C 393.14736 385.988591 394.046717 385.616065 394.709725 384.953057 
C 395.372733 384.290049 395.745259 383.390692 395.745259 382.453057 
C 395.745259 381.515422 395.372733 380.616065 394.709725 379.953057 
C 394.046717 379.290049 393.14736 378.917523 392.209725 378.917523 
C 391.272091 378.917523 390.372733 379.290049 389.709725 379.953057 
C 389.046717 380.616065 388.674191 381.515422 388.674191 382.453057 
C 388.674191 383.390692 389.046717 384.290049 389.709725 384.953057 
C 390.372733 385.616065 391.272091 385.988591 392.209725 385.988591 
z
" clip-path="url(#pf9cdbf35a4)" style="fill: #1f77b4; fill-opacity: 0.3; stroke: #1f77b4; stroke-opacity: 0.3"/>
    <path d="M 401.647357 382.829842 
C 402.486003 382.829842 403.290413 382.496645 403.883425 381.903633 
C 404.476437 381.310621 404.809635 380.506211 404.809635 379.667565 
C 404.809635 378.828919 404.476437 378.024509 403.883425 377.431497 
C 403.290413 376.838485 402.486003 376.505287 401.647357 376.505287 
C 400.808711 376.505287 400.004301 376.838485 399.411289 377.431497 
C 398.818277 378.024509 398.48508 378.828919 398.48508 379.667565 
C 398.48508 380.506211 398.818277 381.310621 399.411289 381.903633 
C 400.004301 382.496645 400.808711 382.829842 401.647357 382.829842 
z
" clip-path="url(#pf9cdbf35a4)" style="fill: #1f77b4; fill-opacity: 0.3; stroke: #1f77b4; stroke-opacity: 0.3"/>
    <path d="M 411.084989 380.510887 
C 411.678002 380.510887 412.246805 380.27528 412.666128 379.855957 
C 413.085451 379.436635 413.321057 378.867831 413.321057 378.274819 
C 413.321057 377.681806 413.085451 377.113003 412.666128 376.69368 
C 412.246805 376.274357 411.678002 376.038751 411.084989 376.038751 
C 410.491977 376.038751 409.923174 376.274357 409.503851 376.69368 
C 409.084528 377.113003 408.848921 377.681806 408.848921 378.274819 
C 408.848921 378.867831 409.084528 379.436635 409.503851 379.855957 
C 409.923174 380.27528 410.491977 380.510887 411.084989 380.510887 
z
" clip-path="url(#pf9cdbf35a4)" style="fill: #1f77b4; fill-opacity: 0.3; stroke: #1f77b4; stroke-opacity: 0.3"/>
    <path d="M 420.522622 377.583507 
C 421.632046 377.583507 422.69618 377.142728 423.480661 376.358247 
C 424.265143 375.573766 424.705922 374.509631 424.705922 373.400207 
C 424.705922 372.290783 424.265143 371.226649 423.480661 370.442167 
C 422.69618 369.657686 421.632046 369.216907 420.522622 369.216907 
C 419.413197 369.216907 418.349063 369.657686 417.564582 370.442167 
C 416.7801 371.226649 416.339321 372.290783 416.339321 373.400207 
C 416.339321 374.509631 416.7801 375.573766 417.564582 376.358247 
C 418.349063 377.142728 419.413197 377.583507 420.522622 377.583507 
z
" clip-path="url(#pf9cdbf35a4)" style="fill: #1f77b4; fill-opacity: 0.3; stroke: #1f77b4; stroke-opacity: 0.3"/>
    <path d="M 429.960254 374.243529 
C 430.553266 374.243529 431.12207 374.007923 431.541393 373.5886 
C 431.960715 373.169277 432.196322 372.600473 432.196322 372.007461 
C 432.196322 371.414449 431.960715 370.845645 431.541393 370.426322 
C 431.12207 370.006999 430.553266 369.771393 429.960254 369.771393 
C 429.367242 369.771393 428.798438 370.006999 428.379115 370.426322 
C 427.959792 370.845645 427.724186 371.414449 427.724186 372.007461 
C 427.724186 372.600473 427.959792 373.169277 428.379115 373.5886 
C 428.798438 374.007923 429.367242 374.243529 429.960254 374.243529 
z
" clip-path="url(#pf9cdbf35a4)" style="fill: #1f77b4; fill-opacity: 0.3; stroke: #1f77b4; stroke-opacity: 0.3"/>
    <path d="M 448.835518 370.043731 
C 450.161533 370.043731 451.433417 369.516899 452.371052 368.579264 
C 453.308686 367.64163 453.835518 366.369746 453.835518 365.043731 
C 453.835518 363.717715 453.308686 362.445831 452.371052 361.508197 
C 451.433417 360.570562 450.161533 360.043731 448.835518 360.043731 
C 447.509502 360.043731 446.237619 360.570562 445.299984 361.508197 
C 444.36235 362.445831 443.835518 363.717715 443.835518 365.043731 
C 443.835518 366.369746 444.36235 367.64163 445.299984 368.579264 
C 446.237619 369.516899 447.509502 370.043731 448.835518 370.043731 
z
" clip-path="url(#pf9cdbf35a4)" style="fill: #1f77b4; fill-opacity: 0.3; stroke: #1f77b4; stroke-opacity: 0.3"/>
    <path d="M 458.27315 365.928496 
C 458.692473 365.928496 459.094678 365.761898 459.391184 365.465392 
C 459.68769 365.168885 459.854289 364.76668 459.854289 364.347358 
C 459.854289 363.928035 459.68769 363.52583 459.391184 363.229324 
C 459.094678 362.932817 458.692473 362.766219 458.27315 362.766219 
C 457.853827 362.766219 457.451622 362.932817 457.155116 363.229324 
C 456.85861 363.52583 456.692011 363.928035 456.692011 364.347358 
C 456.692011 364.76668 456.85861 365.168885 457.155116 365.465392 
C 457.451622 365.761898 457.853827 365.928496 458.27315 365.928496 
z
" clip-path="url(#pf9cdbf35a4)" style="fill: #1f77b4; fill-opacity: 0.3; stroke: #1f77b4; stroke-opacity: 0.3"/>
    <path d="M 467.710782 364.042103 
C 468.737909 364.042103 469.723106 363.634021 470.449395 362.907732 
C 471.175684 362.181443 471.583766 361.196246 471.583766 360.169119 
C 471.583766 359.141992 471.175684 358.156795 470.449395 357.430506 
C 469.723106 356.704218 468.737909 356.296136 467.710782 356.296136 
C 466.683655 356.296136 465.698458 356.704218 464.972169 357.430506 
C 464.245881 358.156795 463.837799 359.141992 463.837799 360.169119 
C 463.837799 361.196246 464.245881 362.181443 464.972169 362.907732 
C 465.698458 363.634021 466.683655 364.042103 467.710782 364.042103 
z
" clip-path="url(#pf9cdbf35a4)" style="fill: #1f77b4; fill-opacity: 0.3; stroke: #1f77b4; stroke-opacity: 0.3"/>
    <path d="M 477.148414 356.335976 
C 478.717377 356.335976 480.22229 355.712621 481.331715 354.603197 
C 482.441139 353.493772 483.064494 351.988859 483.064494 350.419896 
C 483.064494 348.850934 482.441139 347.34602 481.331715 346.236596 
C 480.22229 345.127172 478.717377 344.503817 477.148414 344.503817 
C 475.579452 344.503817 474.074538 345.127172 472.965114 346.236596 
C 471.85569 347.34602 471.232335 348.850934 471.232335 350.419896 
C 471.232335 351.988859 471.85569 353.493772 472.965114 354.603197 
C 474.074538 355.712621 475.579452 356.335976 477.148414 356.335976 
z
" clip-path="url(#pf9cdbf35a4)" style="fill: #1f77b4; fill-opacity: 0.3; stroke: #1f77b4; stroke-opacity: 0.3"/>
    <path d="M 486.586047 346.098025 
C 488.210077 346.098025 489.76781 345.452791 490.916174 344.304428 
C 492.064537 343.156064 492.709771 341.598331 492.709771 339.974301 
C 492.709771 338.35027 492.064537 336.792537 490.916174 335.644173 
C 489.76781 334.49581 488.210077 333.850576 486.586047 333.850576 
C 484.962016 333.850576 483.404283 334.49581 482.255919 335.644173 
C 481.107556 336.792537 480.462322 338.35027 480.462322 339.974301 
C 480.462322 341.598331 481.107556 343.156064 482.255919 344.304428 
C 483.404283 345.452791 484.962016 346.098025 486.586047 346.098025 
z
" clip-path="url(#pf9cdbf35a4)" style="fill: #1f77b4; fill-opacity: 0.3; stroke: #1f77b4; stroke-opacity: 0.3"/>
    <path d="M 496.023679 340.623794 
C 496.749967 340.623794 497.446607 340.335237 497.96017 339.821673 
C 498.473734 339.308109 498.762291 338.61147 498.762291 337.885181 
C 498.762291 337.158893 498.473734 336.462253 497.96017 335.94869 
C 497.446607 335.435126 496.749967 335.146569 496.023679 335.146569 
C 495.29739 335.146569 494.600751 335.435126 494.087187 335.94869 
C 493.573623 336.462253 493.285066 337.158893 493.285066 337.885181 
C 493.285066 338.61147 493.573623 339.308109 494.087187 339.821673 
C 494.600751 340.335237 495.29739 340.623794 496.023679 340.623794 
z
" clip-path="url(#pf9cdbf35a4)" style="fill: #1f77b4; fill-opacity: 0.3; stroke: #1f77b4; stroke-opacity: 0.3"/>
    <path d="M 514.898943 338.261967 
C 515.737589 338.261967 516.541999 337.928769 517.135011 337.335757 
C 517.728023 336.742745 518.061221 335.938335 518.061221 335.099689 
C 518.061221 334.261043 517.728023 333.456633 517.135011 332.863621 
C 516.541999 332.270609 515.737589 331.937411 514.898943 331.937411 
C 514.060297 331.937411 513.255887 332.270609 512.662875 332.863621 
C 512.069863 333.456633 511.736665 334.261043 511.736665 335.099689 
C 511.736665 335.938335 512.069863 336.742745 512.662875 337.335757 
C 513.255887 337.928769 514.060297 338.261967 514.898943 338.261967 
z
" clip-path="url(#pf9cdbf35a4)" style="fill: #1f77b4; fill-opacity: 0.3; stroke: #1f77b4; stroke-opacity: 0.3"/>
    <path d="M 524.336575 330.282276 
C 526.013867 330.282276 527.622687 329.61588 528.808711 328.429856 
C 529.994735 327.243832 530.66113 325.635012 530.66113 323.95772 
C 530.66113 322.280429 529.994735 320.671609 528.808711 319.485584 
C 527.622687 318.29956 526.013867 317.633165 524.336575 317.633165 
C 522.659283 317.633165 521.050463 318.29956 519.864439 319.485584 
C 518.678415 320.671609 518.01202 322.280429 518.01202 323.95772 
C 518.01202 325.635012 518.678415 327.243832 519.864439 328.429856 
C 521.050463 329.61588 522.659283 330.282276 524.336575 330.282276 
z
" clip-path="url(#pf9cdbf35a4)" style="fill: #1f77b4; fill-opacity: 0.3; stroke: #1f77b4; stroke-opacity: 0.3"/>
    <path d="M 533.774207 324.842486 
C 534.19353 324.842486 534.595735 324.675887 534.892241 324.379381 
C 535.188747 324.082875 535.355346 323.68067 535.355346 323.261347 
C 535.355346 322.842024 535.188747 322.439819 534.892241 322.143313 
C 534.595735 321.846807 534.19353 321.680208 533.774207 321.680208 
C 533.354884 321.680208 532.952679 321.846807 532.656173 322.143313 
C 532.359667 322.439819 532.193068 322.842024 532.193068 323.261347 
C 532.193068 323.68067 532.359667 324.082875 532.656173 324.379381 
C 532.952679 324.675887 533.354884 324.842486 533.774207 324.842486 
z
" clip-path="url(#pf9cdbf35a4)" style="fill: #1f77b4; fill-opacity: 0.3; stroke: #1f77b4; stroke-opacity: 0.3"/>
    <path d="M 543.211839 323.638133 
C 544.050485 323.638133 544.854895 323.304935 545.447907 322.711923 
C 546.040919 322.118911 546.374117 321.314501 546.374117 320.475855 
C 546.374117 319.637209 546.040919 318.832799 545.447907 318.239787 
C 544.854895 317.646775 544.050485 317.313577 543.211839 317.313577 
C 542.373193 317.313577 541.568784 317.646775 540.975771 318.239787 
C 540.382759 318.832799 540.049562 319.637209 540.049562 320.475855 
C 540.049562 321.314501 540.382759 322.118911 540.975771 322.711923 
C 541.568784 323.304935 542.373193 323.638133 543.211839 323.638133 
z
" clip-path="url(#pf9cdbf35a4)" style="fill: #1f77b4; fill-opacity: 0.3; stroke: #1f77b4; stroke-opacity: 0.3"/>
    <path d="M 552.649471 321.125349 
C 553.37576 321.125349 554.0724 320.836791 554.585963 320.323227 
C 555.099527 319.809664 555.388084 319.113024 555.388084 318.386736 
C 555.388084 317.660447 555.099527 316.963808 554.585963 316.450244 
C 554.0724 315.93668 553.37576 315.648123 552.649471 315.648123 
C 551.923183 315.648123 551.226543 315.93668 550.71298 316.450244 
C 550.199416 316.963808 549.910859 317.660447 549.910859 318.386736 
C 549.910859 319.113024 550.199416 319.809664 550.71298 320.323227 
C 551.226543 320.836791 551.923183 321.125349 552.649471 321.125349 
z
" clip-path="url(#pf9cdbf35a4)" style="fill: #1f77b4; fill-opacity: 0.3; stroke: #1f77b4; stroke-opacity: 0.3"/>
    <path d="M 562.087104 319.036229 
C 562.813392 319.036229 563.510032 318.747672 564.023595 318.234108 
C 564.537159 317.720545 564.825716 317.023905 564.825716 316.297617 
C 564.825716 315.571328 564.537159 314.874689 564.023595 314.361125 
C 563.510032 313.847561 562.813392 313.559004 562.087104 313.559004 
C 561.360815 313.559004 560.664176 313.847561 560.150612 314.361125 
C 559.637048 314.874689 559.348491 315.571328 559.348491 316.297617 
C 559.348491 317.023905 559.637048 317.720545 560.150612 318.234108 
C 560.664176 318.747672 561.360815 319.036229 562.087104 319.036229 
z
" clip-path="url(#pf9cdbf35a4)" style="fill: #1f77b4; fill-opacity: 0.3; stroke: #1f77b4; stroke-opacity: 0.3"/>
    <path d="M 571.524736 310.471105 
C 573.303772 310.471105 575.010183 309.764287 576.268152 308.506318 
C 577.526121 307.248349 578.23294 305.541938 578.23294 303.762902 
C 578.23294 301.983865 577.526121 300.277454 576.268152 299.019485 
C 575.010183 297.761516 573.303772 297.054698 571.524736 297.054698 
C 569.745699 297.054698 568.039288 297.761516 566.781319 299.019485 
C 565.52335 300.277454 564.816532 301.983865 564.816532 303.762902 
C 564.816532 305.541938 565.52335 307.248349 566.781319 308.506318 
C 568.039288 309.764287 569.745699 310.471105 571.524736 310.471105 
z
" clip-path="url(#pf9cdbf35a4)" style="fill: #1f77b4; fill-opacity: 0.3; stroke: #1f77b4; stroke-opacity: 0.3"/>
    <path d="M 580.962368 304.412395 
C 581.688656 304.412395 582.385296 304.123838 582.89886 303.610274 
C 583.412423 303.09671 583.700981 302.400071 583.700981 301.673782 
C 583.700981 300.947494 583.412423 300.250854 582.89886 299.737291 
C 582.385296 299.223727 581.688656 298.93517 580.962368 298.93517 
C 580.236079 298.93517 579.53944 299.223727 579.025876 299.737291 
C 578.512313 300.250854 578.223755 300.947494 578.223755 301.673782 
C 578.223755 302.400071 578.512313 303.09671 579.025876 303.610274 
C 579.53944 304.123838 580.236079 304.412395 580.962368 304.412395 
z
" clip-path="url(#pf9cdbf35a4)" style="fill: #1f77b4; fill-opacity: 0.3; stroke: #1f77b4; stroke-opacity: 0.3"/>
    <path d="M 590.4 302.050568 
C 591.238646 302.050568 592.043056 301.71737 592.636068 301.124358 
C 593.22908 300.531346 593.562278 299.726936 593.562278 298.88829 
C 593.562278 298.049644 593.22908 297.245234 592.636068 296.652222 
C 592.043056 296.05921 591.238646 295.726012 590.4 295.726012 
C 589.561354 295.726012 588.756944 296.05921 588.163932 296.652222 
C 587.57092 297.245234 587.237722 298.049644 587.237722 298.88829 
C 587.237722 299.726936 587.57092 300.531346 588.163932 301.124358 
C 588.756944 301.71737 589.561354 302.050568 590.4 302.050568 
z
" clip-path="url(#pf9cdbf35a4)" style="fill: #1f77b4; fill-opacity: 0.3; stroke: #1f77b4; stroke-opacity: 0.3"/>
    <path d="M 599.837632 299.265076 
C 600.676278 299.265076 601.480688 298.931878 602.0737 298.338866 
C 602.666712 297.745854 602.99991 296.941444 602.99991 296.102798 
C 602.99991 295.264152 602.666712 294.459742 602.0737 293.86673 
C 601.480688 293.273718 600.676278 292.94052 599.837632 292.94052 
C 598.998986 292.94052 598.194576 293.273718 597.601564 293.86673 
C 597.008552 294.459742 596.675354 295.264152 596.675354 296.102798 
C 596.675354 296.941444 597.008552 297.745854 597.601564 298.338866 
C 598.194576 298.931878 598.998986 299.265076 599.837632 299.265076 
z
" clip-path="url(#pf9cdbf35a4)" style="fill: #1f77b4; fill-opacity: 0.3; stroke: #1f77b4; stroke-opacity: 0.3"/>
    <path d="M 609.275264 296.156467 
C 610.212899 296.156467 611.112257 295.78394 611.775264 295.120933 
C 612.438272 294.457925 612.810798 293.558567 612.810798 292.620933 
C 612.810798 291.683298 612.438272 290.78394 611.775264 290.120933 
C 611.112257 289.457925 610.212899 289.085399 609.275264 289.085399 
C 608.33763 289.085399 607.438272 289.457925 606.775264 290.120933 
C 606.112257 290.78394 605.73973 291.683298 605.73973 292.620933 
C 605.73973 293.558567 606.112257 294.457925 606.775264 295.120933 
C 607.438272 295.78394 608.33763 296.156467 609.275264 296.156467 
z
" clip-path="url(#pf9cdbf35a4)" style="fill: #1f77b4; fill-opacity: 0.3; stroke: #1f77b4; stroke-opacity: 0.3"/>
    <path d="M 618.712896 285.764539 
C 620.588166 285.764539 622.386881 285.019487 623.712896 283.693472 
C 625.038912 282.367456 625.783964 280.568741 625.783964 278.693472 
C 625.783964 276.818202 625.038912 275.019487 623.712896 273.693472 
C 622.386881 272.367456 620.588166 271.622404 618.712896 271.622404 
C 616.837627 271.622404 615.038912 272.367456 613.712896 273.693472 
C 612.386881 275.019487 611.641829 276.818202 611.641829 278.693472 
C 611.641829 280.568741 612.386881 282.367456 613.712896 283.693472 
C 615.038912 285.019487 616.837627 285.764539 618.712896 285.764539 
z
" clip-path="url(#pf9cdbf35a4)" style="fill: #1f77b4; fill-opacity: 0.3; stroke: #1f77b4; stroke-opacity: 0.3"/>
    <path d="M 628.150529 278.74714 
C 629.088163 278.74714 629.987521 278.374614 630.650529 277.711606 
C 631.313536 277.048598 631.686062 276.149241 631.686062 275.211606 
C 631.686062 274.273972 631.313536 273.374614 630.650529 272.711606 
C 629.987521 272.048598 629.088163 271.676072 628.150529 271.676072 
C 627.212894 271.676072 626.313536 272.048598 625.650529 272.711606 
C 624.987521 273.374614 624.614995 274.273972 624.614995 275.211606 
C 624.614995 276.149241 624.987521 277.048598 625.650529 277.711606 
C 626.313536 278.374614 627.212894 278.74714 628.150529 278.74714 
z
" clip-path="url(#pf9cdbf35a4)" style="fill: #1f77b4; fill-opacity: 0.3; stroke: #1f77b4; stroke-opacity: 0.3"/>
    <path d="M 637.588161 275.8611 
C 638.314449 275.8611 639.011089 275.572542 639.524652 275.058979 
C 640.038216 274.545415 640.326773 273.848776 640.326773 273.122487 
C 640.326773 272.396198 640.038216 271.699559 639.524652 271.185995 
C 639.011089 270.672432 638.314449 270.383874 637.588161 270.383874 
C 636.861872 270.383874 636.165233 270.672432 635.651669 271.185995 
C 635.138105 271.699559 634.849548 272.396198 634.849548 273.122487 
C 634.849548 273.848776 635.138105 274.545415 635.651669 275.058979 
C 636.165233 275.572542 636.861872 275.8611 637.588161 275.8611 
z
" clip-path="url(#pf9cdbf35a4)" style="fill: #1f77b4; fill-opacity: 0.3; stroke: #1f77b4; stroke-opacity: 0.3"/>
    <path d="M 647.025793 271.158756 
C 648.351808 271.158756 649.623692 270.631925 650.561327 269.69429 
C 651.498961 268.756656 652.025793 267.484772 652.025793 266.158756 
C 652.025793 264.832741 651.498961 263.560857 650.561327 262.623223 
C 649.623692 261.685588 648.351808 261.158756 647.025793 261.158756 
C 645.699777 261.158756 644.427893 261.685588 643.490259 262.623223 
C 642.552624 263.560857 642.025793 264.832741 642.025793 266.158756 
C 642.025793 267.484772 642.552624 268.756656 643.490259 269.69429 
C 644.427893 270.631925 645.699777 271.158756 647.025793 271.158756 
z
" clip-path="url(#pf9cdbf35a4)" style="fill: #1f77b4; fill-opacity: 0.3; stroke: #1f77b4; stroke-opacity: 0.3"/>
    <path d="M 656.463425 266.535542 
C 657.302071 266.535542 658.106481 266.202344 658.699493 265.609332 
C 659.292505 265.01632 659.625703 264.21191 659.625703 263.373264 
C 659.625703 262.534618 659.292505 261.730208 658.699493 261.137196 
C 658.106481 260.544184 657.302071 260.210987 656.463425 260.210987 
C 655.624779 260.210987 654.820369 260.544184 654.227357 261.137196 
C 653.634345 261.730208 653.301147 262.534618 653.301147 263.373264 
C 653.301147 264.21191 653.634345 265.01632 654.227357 265.609332 
C 654.820369 266.202344 655.624779 266.535542 656.463425 266.535542 
z
" clip-path="url(#pf9cdbf35a4)" style="fill: #1f77b4; fill-opacity: 0.3; stroke: #1f77b4; stroke-opacity: 0.3"/>
    <path d="M 665.901057 264.25803 
C 666.32038 264.25803 666.722585 264.091431 667.019091 263.794925 
C 667.315597 263.498419 667.482196 263.096214 667.482196 262.676891 
C 667.482196 262.257568 667.315597 261.855363 667.019091 261.558857 
C 666.722585 261.262351 666.32038 261.095752 665.901057 261.095752 
C 665.481734 261.095752 665.079529 261.262351 664.783023 261.558857 
C 664.486517 261.855363 664.319918 262.257568 664.319918 262.676891 
C 664.319918 263.096214 664.486517 263.498419 664.783023 263.794925 
C 665.079529 264.091431 665.481734 264.25803 665.901057 264.25803 
z
" clip-path="url(#pf9cdbf35a4)" style="fill: #1f77b4; fill-opacity: 0.3; stroke: #1f77b4; stroke-opacity: 0.3"/>
    <path d="M 675.338689 252.633449 
C 677.476825 252.633449 679.527676 251.783959 681.039566 250.272069 
C 682.551457 248.760179 683.400947 246.709327 683.400947 244.571192 
C 683.400947 242.433056 682.551457 240.382205 681.039566 238.870315 
C 679.527676 237.358424 677.476825 236.508934 675.338689 236.508934 
C 673.200553 236.508934 671.149702 237.358424 669.637812 238.870315 
C 668.125922 240.382205 667.276431 242.433056 667.276431 244.571192 
C 667.276431 246.709327 668.125922 248.760179 669.637812 250.272069 
C 671.149702 251.783959 673.200553 252.633449 675.338689 252.633449 
z
" clip-path="url(#pf9cdbf35a4)" style="fill: #1f77b4; fill-opacity: 0.3; stroke: #1f77b4; stroke-opacity: 0.3"/>
    <path d="M 684.776321 244.62486 
C 685.713956 244.62486 686.613314 244.252334 687.276321 243.589326 
C 687.939329 242.926319 688.311855 242.026961 688.311855 241.089326 
C 688.311855 240.151692 687.939329 239.252334 687.276321 238.589326 
C 686.613314 237.926319 685.713956 237.553793 684.776321 237.553793 
C 683.838687 237.553793 682.939329 237.926319 682.276321 238.589326 
C 681.613314 239.252334 681.240787 240.151692 681.240787 241.089326 
C 681.240787 242.026961 681.613314 242.926319 682.276321 243.589326 
C 682.939329 244.252334 683.838687 244.62486 684.776321 244.62486 
z
" clip-path="url(#pf9cdbf35a4)" style="fill: #1f77b4; fill-opacity: 0.3; stroke: #1f77b4; stroke-opacity: 0.3"/>
    <path d="M 694.213953 239.565385 
C 695.471922 239.565385 696.678537 239.065589 697.568055 238.176071 
C 698.457574 237.286553 698.95737 236.079938 698.95737 234.821969 
C 698.95737 233.564 698.457574 232.357385 697.568055 231.467867 
C 696.678537 230.578349 695.471922 230.078552 694.213953 230.078552 
C 692.955985 230.078552 691.74937 230.578349 690.859852 231.467867 
C 689.970333 232.357385 689.470537 233.564 689.470537 234.821969 
C 689.470537 236.079938 689.970333 237.286553 690.859852 238.176071 
C 691.74937 239.065589 692.955985 239.565385 694.213953 239.565385 
z
" clip-path="url(#pf9cdbf35a4)" style="fill: #1f77b4; fill-opacity: 0.3; stroke: #1f77b4; stroke-opacity: 0.3"/>
    <path d="M 703.651586 235.665291 
C 704.244598 235.665291 704.813402 235.429685 705.232724 235.010362 
C 705.652047 234.591039 705.887654 234.022235 705.887654 233.429223 
C 705.887654 232.836211 705.652047 232.267407 705.232724 231.848084 
C 704.813402 231.428761 704.244598 231.193155 703.651586 231.193155 
C 703.058573 231.193155 702.48977 231.428761 702.070447 231.848084 
C 701.651124 232.267407 701.415518 232.836211 701.415518 233.429223 
C 701.415518 234.022235 701.651124 234.591039 702.070447 235.010362 
C 702.48977 235.429685 703.058573 235.665291 703.651586 235.665291 
z
" clip-path="url(#pf9cdbf35a4)" style="fill: #1f77b4; fill-opacity: 0.3; stroke: #1f77b4; stroke-opacity: 0.3"/>
    <path d="M 713.089218 234.078716 
C 713.815506 234.078716 714.512146 233.790159 715.025709 233.276595 
C 715.539273 232.763032 715.827831 232.066392 715.827831 231.340104 
C 715.827831 230.613815 715.539273 229.917176 715.025709 229.403612 
C 714.512146 228.890048 713.815506 228.601491 713.089218 228.601491 
C 712.362929 228.601491 711.66629 228.890048 711.152726 229.403612 
C 710.639162 229.917176 710.350605 230.613815 710.350605 231.340104 
C 710.350605 232.066392 710.639162 232.763032 711.152726 233.276595 
C 711.66629 233.790159 712.362929 234.078716 713.089218 234.078716 
z
" clip-path="url(#pf9cdbf35a4)" style="fill: #1f77b4; fill-opacity: 0.3; stroke: #1f77b4; stroke-opacity: 0.3"/>
    <path d="M 722.52685 228.460853 
C 723.979427 228.460853 725.372706 227.883737 726.399833 226.85661 
C 727.42696 225.829483 728.004075 224.436204 728.004075 222.983627 
C 728.004075 221.53105 727.42696 220.137771 726.399833 219.110644 
C 725.372706 218.083516 723.979427 217.506401 722.52685 217.506401 
C 721.074273 217.506401 719.680994 218.083516 718.653867 219.110644 
C 717.626739 220.137771 717.049624 221.53105 717.049624 222.983627 
C 717.049624 224.436204 717.626739 225.829483 718.653867 226.85661 
C 719.680994 227.883737 721.074273 228.460853 722.52685 228.460853 
z
" clip-path="url(#pf9cdbf35a4)" style="fill: #1f77b4; fill-opacity: 0.3; stroke: #1f77b4; stroke-opacity: 0.3"/>
    <path d="M 731.964482 223.826949 
C 732.557494 223.826949 733.126298 223.591343 733.545621 223.17202 
C 733.964944 222.752697 734.20055 222.183893 734.20055 221.590881 
C 734.20055 220.997869 733.964944 220.429065 733.545621 220.009742 
C 733.126298 219.590419 732.557494 219.354813 731.964482 219.354813 
C 731.37147 219.354813 730.802666 219.590419 730.383343 220.009742 
C 729.96402 220.429065 729.728414 220.997869 729.728414 221.590881 
C 729.728414 222.183893 729.96402 222.752697 730.383343 223.17202 
C 730.802666 223.591343 731.37147 223.826949 731.964482 223.826949 
z
" clip-path="url(#pf9cdbf35a4)" style="fill: #1f77b4; fill-opacity: 0.3; stroke: #1f77b4; stroke-opacity: 0.3"/>
    <path d="M 741.402114 222.240374 
C 742.128403 222.240374 742.825042 221.951817 743.338606 221.438253 
C 743.852169 220.92469 744.140727 220.22805 744.140727 219.501762 
C 744.140727 218.775473 743.852169 218.078834 743.338606 217.56527 
C 742.825042 217.051706 742.128403 216.763149 741.402114 216.763149 
C 740.675826 216.763149 739.979186 217.051706 739.465622 217.56527 
C 738.952059 218.078834 738.663501 218.775473 738.663501 219.501762 
C 738.663501 220.22805 738.952059 220.92469 739.465622 221.438253 
C 739.979186 221.951817 740.675826 222.240374 741.402114 222.240374 
z
" clip-path="url(#pf9cdbf35a4)" style="fill: #1f77b4; fill-opacity: 0.3; stroke: #1f77b4; stroke-opacity: 0.3"/>
    <path d="M 750.839746 207.821636 
C 753.097869 207.821636 755.263809 206.924474 756.860544 205.32774 
C 758.457278 203.731006 759.354439 201.565066 759.354439 199.306943 
C 759.354439 197.04882 758.457278 194.88288 756.860544 193.286146 
C 755.263809 191.689412 753.097869 190.79225 750.839746 190.79225 
C 748.581623 190.79225 746.415683 191.689412 744.818949 193.286146 
C 743.222215 194.88288 742.325053 197.04882 742.325053 199.306943 
C 742.325053 201.565066 743.222215 203.731006 744.818949 205.32774 
C 746.415683 206.924474 748.581623 207.821636 750.839746 207.821636 
z
" clip-path="url(#pf9cdbf35a4)" style="fill: #1f77b4; fill-opacity: 0.3; stroke: #1f77b4; stroke-opacity: 0.3"/>
    <path d="M 760.277378 200.150265 
C 760.870391 200.150265 761.439194 199.914659 761.858517 199.495336 
C 762.27784 199.076013 762.513446 198.507209 762.513446 197.914197 
C 762.513446 197.321185 762.27784 196.752381 761.858517 196.333058 
C 761.439194 195.913735 760.870391 195.678129 760.277378 195.678129 
C 759.684366 195.678129 759.115563 195.913735 758.69624 196.333058 
C 758.276917 196.752381 758.04131 197.321185 758.04131 197.914197 
C 758.04131 198.507209 758.276917 199.076013 758.69624 199.495336 
C 759.115563 199.914659 759.684366 200.150265 760.277378 200.150265 
z
" clip-path="url(#pf9cdbf35a4)" style="fill: #1f77b4; fill-opacity: 0.3; stroke: #1f77b4; stroke-opacity: 0.3"/>
    <path d="M 769.715011 198.757519 
C 770.308023 198.757519 770.876826 198.521913 771.296149 198.10259 
C 771.715472 197.683267 771.951079 197.114463 771.951079 196.521451 
C 771.951079 195.928439 771.715472 195.359635 771.296149 194.940312 
C 770.876826 194.520989 770.308023 194.285383 769.715011 194.285383 
C 769.121998 194.285383 768.553195 194.520989 768.133872 194.940312 
C 767.714549 195.359635 767.478943 195.928439 767.478943 196.521451 
C 767.478943 197.114463 767.714549 197.683267 768.133872 198.10259 
C 768.553195 198.521913 769.121998 198.757519 769.715011 198.757519 
z
" clip-path="url(#pf9cdbf35a4)" style="fill: #1f77b4; fill-opacity: 0.3; stroke: #1f77b4; stroke-opacity: 0.3"/>
    <path d="M 779.152643 194.55772 
C 780.478658 194.55772 781.750542 194.030889 782.688177 193.093254 
C 783.625811 192.15562 784.152643 190.883736 784.152643 189.55772 
C 784.152643 188.231705 783.625811 186.959821 782.688177 186.022186 
C 781.750542 185.084552 780.478658 184.55772 779.152643 184.55772 
C 777.826627 184.55772 776.554743 185.084552 775.617109 186.022186 
C 774.679474 186.959821 774.152643 188.231705 774.152643 189.55772 
C 774.152643 190.883736 774.679474 192.15562 775.617109 193.093254 
C 776.554743 194.030889 777.826627 194.55772 779.152643 194.55772 
z
" clip-path="url(#pf9cdbf35a4)" style="fill: #1f77b4; fill-opacity: 0.3; stroke: #1f77b4; stroke-opacity: 0.3"/>
    <path d="M 788.590275 190.207214 
C 789.316563 190.207214 790.013203 189.918656 790.526767 189.405093 
C 791.04033 188.891529 791.328888 188.19489 791.328888 187.468601 
C 791.328888 186.742312 791.04033 186.045673 790.526767 185.532109 
C 790.013203 185.018546 789.316563 184.729988 788.590275 184.729988 
C 787.863986 184.729988 787.167347 185.018546 786.653783 185.532109 
C 786.14022 186.045673 785.851662 186.742312 785.851662 187.468601 
C 785.851662 188.19489 786.14022 188.891529 786.653783 189.405093 
C 787.167347 189.918656 787.863986 190.207214 788.590275 190.207214 
z
" clip-path="url(#pf9cdbf35a4)" style="fill: #1f77b4; fill-opacity: 0.3; stroke: #1f77b4; stroke-opacity: 0.3"/>
    <path d="M 798.027907 179.034896 
C 800.038909 179.034896 801.967816 178.235917 803.38981 176.813923 
C 804.811803 175.39193 805.610782 173.463023 805.610782 171.452021 
C 805.610782 169.441019 804.811803 167.512111 803.38981 166.090118 
C 801.967816 164.668125 800.038909 163.869145 798.027907 163.869145 
C 796.016905 163.869145 794.087998 164.668125 792.666004 166.090118 
C 791.244011 167.512111 790.445032 169.441019 790.445032 171.452021 
C 790.445032 173.463023 791.244011 175.39193 792.666004 176.813923 
C 794.087998 178.235917 796.016905 179.034896 798.027907 179.034896 
z
" clip-path="url(#pf9cdbf35a4)" style="fill: #1f77b4; fill-opacity: 0.3; stroke: #1f77b4; stroke-opacity: 0.3"/>
    <path d="M 807.465539 172.336786 
C 807.884862 172.336786 808.287067 172.170188 808.583573 171.873682 
C 808.880079 171.577176 809.046678 171.174971 809.046678 170.755648 
C 809.046678 170.336325 808.880079 169.93412 808.583573 169.637614 
C 808.287067 169.341108 807.884862 169.174509 807.465539 169.174509 
C 807.046216 169.174509 806.644011 169.341108 806.347505 169.637614 
C 806.050999 169.93412 805.8844 170.336325 805.8844 170.755648 
C 805.8844 171.174971 806.050999 171.577176 806.347505 171.873682 
C 806.644011 172.170188 807.046216 172.336786 807.465539 172.336786 
z
" clip-path="url(#pf9cdbf35a4)" style="fill: #1f77b4; fill-opacity: 0.3; stroke: #1f77b4; stroke-opacity: 0.3"/>
    <path d="M 816.903171 171.59897 
C 817.496183 171.59897 818.064987 171.363363 818.48431 170.94404 
C 818.903633 170.524717 819.139239 169.955914 819.139239 169.362902 
C 819.139239 168.769889 818.903633 168.201086 818.48431 167.781763 
C 818.064987 167.36244 817.496183 167.126834 816.903171 167.126834 
C 816.310159 167.126834 815.741355 167.36244 815.322032 167.781763 
C 814.902709 168.201086 814.667103 168.769889 814.667103 169.362902 
C 814.667103 169.955914 814.902709 170.524717 815.322032 170.94404 
C 815.741355 171.363363 816.310159 171.59897 816.903171 171.59897 
z
" clip-path="url(#pf9cdbf35a4)" style="fill: #1f77b4; fill-opacity: 0.3; stroke: #1f77b4; stroke-opacity: 0.3"/>
    <path d="M 826.340803 169.41657 
C 827.278438 169.41657 828.177796 169.044044 828.840803 168.381036 
C 829.503811 167.718029 829.876337 166.818671 829.876337 165.881036 
C 829.876337 164.943402 829.503811 164.044044 828.840803 163.381036 
C 828.177796 162.718029 827.278438 162.345502 826.340803 162.345502 
C 825.403169 162.345502 824.503811 162.718029 823.840803 163.381036 
C 823.177796 164.044044 822.805269 164.943402 822.805269 165.881036 
C 822.805269 166.818671 823.177796 167.718029 823.840803 168.381036 
C 824.503811 169.044044 825.403169 169.41657 826.340803 169.41657 
z
" clip-path="url(#pf9cdbf35a4)" style="fill: #1f77b4; fill-opacity: 0.3; stroke: #1f77b4; stroke-opacity: 0.3"/>
    <path d="M 835.778436 165.934705 
C 836.71607 165.934705 837.615428 165.562179 838.278436 164.899171 
C 838.941443 164.236163 839.313969 163.336806 839.313969 162.399171 
C 839.313969 161.461536 838.941443 160.562179 838.278436 159.899171 
C 837.615428 159.236163 836.71607 158.863637 835.778436 158.863637 
C 834.840801 158.863637 833.941443 159.236163 833.278436 159.899171 
C 832.615428 160.562179 832.242902 161.461536 832.242902 162.399171 
C 832.242902 163.336806 832.615428 164.236163 833.278436 164.899171 
C 833.941443 165.562179 834.840801 165.934705 835.778436 165.934705 
z
" clip-path="url(#pf9cdbf35a4)" style="fill: #1f77b4; fill-opacity: 0.3; stroke: #1f77b4; stroke-opacity: 0.3"/>
    <path d="M 845.216068 159.983112 
C 846.606804 159.983112 847.940767 159.430566 848.924167 158.447167 
C 849.907566 157.463767 850.460112 156.129804 850.460112 154.739067 
C 850.460112 153.348331 849.907566 152.014368 848.924167 151.030968 
C 847.940767 150.047569 846.606804 149.495023 845.216068 149.495023 
C 843.825331 149.495023 842.491368 150.047569 841.507968 151.030968 
C 840.524569 152.014368 839.972023 153.348331 839.972023 154.739067 
C 839.972023 156.129804 840.524569 157.463767 841.507968 158.447167 
C 842.491368 159.430566 843.825331 159.983112 845.216068 159.983112 
z
" clip-path="url(#pf9cdbf35a4)" style="fill: #1f77b4; fill-opacity: 0.3; stroke: #1f77b4; stroke-opacity: 0.3"/>
    <path d="M 854.6537 154.792736 
C 855.591334 154.792736 856.490692 154.42021 857.1537 153.757202 
C 857.816708 153.094194 858.189234 152.194837 858.189234 151.257202 
C 858.189234 150.319568 857.816708 149.42021 857.1537 148.757202 
C 856.490692 148.094194 855.591334 147.721668 854.6537 147.721668 
C 853.716065 147.721668 852.816708 148.094194 852.1537 148.757202 
C 851.490692 149.42021 851.118166 150.319568 851.118166 151.257202 
C 851.118166 152.194837 851.490692 153.094194 852.1537 153.757202 
C 852.816708 154.42021 853.716065 154.792736 854.6537 154.792736 
z
" clip-path="url(#pf9cdbf35a4)" style="fill: #1f77b4; fill-opacity: 0.3; stroke: #1f77b4; stroke-opacity: 0.3"/>
    <path d="M 864.091332 151.633988 
C 864.929978 151.633988 865.734388 151.30079 866.3274 150.707778 
C 866.920412 150.114766 867.25361 149.310356 867.25361 148.47171 
C 867.25361 147.633064 866.920412 146.828654 866.3274 146.235642 
C 865.734388 145.64263 864.929978 145.309432 864.091332 145.309432 
C 863.252686 145.309432 862.448276 145.64263 861.855264 146.235642 
C 861.262252 146.828654 860.929054 147.633064 860.929054 148.47171 
C 860.929054 149.310356 861.262252 150.114766 861.855264 150.707778 
C 862.448276 151.30079 863.252686 151.633988 864.091332 151.633988 
z
" clip-path="url(#pf9cdbf35a4)" style="fill: #1f77b4; fill-opacity: 0.3; stroke: #1f77b4; stroke-opacity: 0.3"/>
    <path d="M 873.528964 146.05565 
C 874.919701 146.05565 876.253664 145.503105 877.237063 144.519705 
C 878.220463 143.536306 878.773008 142.202343 878.773008 140.811606 
C 878.773008 139.420869 878.220463 138.086906 877.237063 137.103507 
C 876.253664 136.120108 874.919701 135.567562 873.528964 135.567562 
C 872.138227 135.567562 870.804264 136.120108 869.820865 137.103507 
C 868.837465 138.086906 868.28492 139.420869 868.28492 140.811606 
C 868.28492 142.202343 868.837465 143.536306 869.820865 144.519705 
C 870.804264 145.503105 872.138227 146.05565 873.528964 146.05565 
z
" clip-path="url(#pf9cdbf35a4)" style="fill: #1f77b4; fill-opacity: 0.3; stroke: #1f77b4; stroke-opacity: 0.3"/>
    <path d="M 882.966596 135.994193 
C 884.643888 135.994193 886.252708 135.327798 887.438732 134.141773 
C 888.624756 132.955749 889.291152 131.346929 889.291152 129.669637 
C 889.291152 127.992346 888.624756 126.383526 887.438732 125.197501 
C 886.252708 124.011477 884.643888 123.345082 882.966596 123.345082 
C 881.289305 123.345082 879.680485 124.011477 878.49446 125.197501 
C 877.308436 126.383526 876.642041 127.992346 876.642041 129.669637 
C 876.642041 131.346929 877.308436 132.955749 878.49446 134.141773 
C 879.680485 135.327798 881.289305 135.994193 882.966596 135.994193 
z
" clip-path="url(#pf9cdbf35a4)" style="fill: #1f77b4; fill-opacity: 0.3; stroke: #1f77b4; stroke-opacity: 0.3"/>
    <path d="M 892.404228 128.978326 
C 893.513652 128.978326 894.577787 128.537547 895.362268 127.753066 
C 896.14675 126.968584 896.587528 125.90445 896.587528 124.795026 
C 896.587528 123.685602 896.14675 122.621467 895.362268 121.836986 
C 894.577787 121.052505 893.513652 120.611726 892.404228 120.611726 
C 891.294804 120.611726 890.23067 121.052505 889.446188 121.836986 
C 888.661707 122.621467 888.220928 123.685602 888.220928 124.795026 
C 888.220928 125.90445 888.661707 126.968584 889.446188 127.753066 
C 890.23067 128.537547 891.294804 128.978326 892.404228 128.978326 
z
" clip-path="url(#pf9cdbf35a4)" style="fill: #1f77b4; fill-opacity: 0.3; stroke: #1f77b4; stroke-opacity: 0.3"/>
    <path d="M 901.84186 125.171811 
C 902.680506 125.171811 903.484916 124.838614 904.077928 124.245602 
C 904.670941 123.652589 905.004138 122.84818 905.004138 122.009534 
C 905.004138 121.170888 904.670941 120.366478 904.077928 119.773466 
C 903.484916 119.180454 902.680506 118.847256 901.84186 118.847256 
C 901.003215 118.847256 900.198805 119.180454 899.605792 119.773466 
C 899.01278 120.366478 898.679583 121.170888 898.679583 122.009534 
C 898.679583 122.84818 899.01278 123.652589 899.605792 124.245602 
C 900.198805 124.838614 901.003215 125.171811 901.84186 125.171811 
z
" clip-path="url(#pf9cdbf35a4)" style="fill: #1f77b4; fill-opacity: 0.3; stroke: #1f77b4; stroke-opacity: 0.3"/>
    <path d="M 911.279493 122.852856 
C 911.872505 122.852856 912.441309 122.617249 912.860631 122.197926 
C 913.279954 121.778603 913.515561 121.2098 913.515561 120.616788 
C 913.515561 120.023775 913.279954 119.454972 912.860631 119.035649 
C 912.441309 118.616326 911.872505 118.38072 911.279493 118.38072 
C 910.68648 118.38072 910.117677 118.616326 909.698354 119.035649 
C 909.279031 119.454972 909.043425 120.023775 909.043425 120.616788 
C 909.043425 121.2098 909.279031 121.778603 909.698354 122.197926 
C 910.117677 122.617249 910.68648 122.852856 911.279493 122.852856 
z
" clip-path="url(#pf9cdbf35a4)" style="fill: #1f77b4; fill-opacity: 0.3; stroke: #1f77b4; stroke-opacity: 0.3"/>
    <path d="M 920.717125 119.092847 
C 921.975093 119.092847 923.181708 118.59305 924.071227 117.703532 
C 924.960745 116.814014 925.460541 115.607399 925.460541 114.34943 
C 925.460541 113.091461 924.960745 111.884846 924.071227 110.995328 
C 923.181708 110.10581 921.975093 109.606014 920.717125 109.606014 
C 919.459156 109.606014 918.252541 110.10581 917.363023 110.995328 
C 916.473505 111.884846 915.973708 113.091461 915.973708 114.34943 
C 915.973708 115.607399 916.473505 116.814014 917.363023 117.703532 
C 918.252541 118.59305 919.459156 119.092847 920.717125 119.092847 
z
" clip-path="url(#pf9cdbf35a4)" style="fill: #1f77b4; fill-opacity: 0.3; stroke: #1f77b4; stroke-opacity: 0.3"/>
    <path d="M 930.154757 114.726215 
C 930.993403 114.726215 931.797813 114.393018 932.390825 113.800006 
C 932.983837 113.206994 933.317035 112.402584 933.317035 111.563938 
C 933.317035 110.725292 932.983837 109.920882 932.390825 109.32787 
C 931.797813 108.734858 930.993403 108.40166 930.154757 108.40166 
C 929.316111 108.40166 928.511701 108.734858 927.918689 109.32787 
C 927.325677 109.920882 926.992479 110.725292 926.992479 111.563938 
C 926.992479 112.402584 927.325677 113.206994 927.918689 113.800006 
C 928.511701 114.393018 929.316111 114.726215 930.154757 114.726215 
z
" clip-path="url(#pf9cdbf35a4)" style="fill: #1f77b4; fill-opacity: 0.3; stroke: #1f77b4; stroke-opacity: 0.3"/>
    <path d="M 939.592389 111.258683 
C 940.619516 111.258683 941.604713 110.850601 942.331002 110.124312 
C 943.05729 109.398024 943.465372 108.412827 943.465372 107.385699 
C 943.465372 106.358572 943.05729 105.373375 942.331002 104.647087 
C 941.604713 103.920798 940.619516 103.512716 939.592389 103.512716 
C 938.565262 103.512716 937.580065 103.920798 936.853776 104.647087 
C 936.127488 105.373375 935.719406 106.358572 935.719406 107.385699 
C 935.719406 108.412827 936.127488 109.398024 936.853776 110.124312 
C 937.580065 110.850601 938.565262 111.258683 939.592389 111.258683 
z
" clip-path="url(#pf9cdbf35a4)" style="fill: #1f77b4; fill-opacity: 0.3; stroke: #1f77b4; stroke-opacity: 0.3"/>
    <path d="M 949.030021 108.229021 
C 949.623033 108.229021 950.191837 107.993415 950.61116 107.574092 
C 951.030483 107.154769 951.266089 106.585966 951.266089 105.992953 
C 951.266089 105.399941 951.030483 104.831137 950.61116 104.411815 
C 950.191837 103.992492 949.623033 103.756885 949.030021 103.756885 
C 948.437009 103.756885 947.868205 103.992492 947.448882 104.411815 
C 947.029559 104.831137 946.793953 105.399941 946.793953 105.992953 
C 946.793953 106.585966 947.029559 107.154769 947.448882 107.574092 
C 947.868205 107.993415 948.437009 108.229021 949.030021 108.229021 
z
" clip-path="url(#pf9cdbf35a4)" style="fill: #1f77b4; fill-opacity: 0.3; stroke: #1f77b4; stroke-opacity: 0.3"/>
    <path d="M 958.467653 106.369739 
C 959.306299 106.369739 960.110709 106.036541 960.703721 105.443529 
C 961.296733 104.850517 961.629931 104.046107 961.629931 103.207461 
C 961.629931 102.368815 961.296733 101.564405 960.703721 100.971393 
C 960.110709 100.378381 959.306299 100.045183 958.467653 100.045183 
C 957.629007 100.045183 956.824597 100.378381 956.231585 100.971393 
C 955.638573 101.564405 955.305376 102.368815 955.305376 103.207461 
C 955.305376 104.046107 955.638573 104.850517 956.231585 105.443529 
C 956.824597 106.036541 957.629007 106.369739 958.467653 106.369739 
z
" clip-path="url(#pf9cdbf35a4)" style="fill: #1f77b4; fill-opacity: 0.3; stroke: #1f77b4; stroke-opacity: 0.3"/>
    <path d="M 967.905285 103.26113 
C 968.84292 103.26113 969.742278 102.888604 970.405285 102.225596 
C 971.068293 101.562588 971.440819 100.66323 971.440819 99.725596 
C 971.440819 98.787961 971.068293 97.888604 970.405285 97.225596 
C 969.742278 96.562588 968.84292 96.190062 967.905285 96.190062 
C 966.967651 96.190062 966.068293 96.562588 965.405285 97.225596 
C 964.742278 97.888604 964.369752 98.787961 964.369752 99.725596 
C 964.369752 100.66323 964.742278 101.562588 965.405285 102.225596 
C 966.068293 102.888604 966.967651 103.26113 967.905285 103.26113 
z
" clip-path="url(#pf9cdbf35a4)" style="fill: #1f77b4; fill-opacity: 0.3; stroke: #1f77b4; stroke-opacity: 0.3"/>
    <path d="M 977.342918 100.568918 
C 977.93593 100.568918 978.504733 100.333311 978.924056 99.913989 
C 979.343379 99.494666 979.578986 98.925862 979.578986 98.33285 
C 979.578986 97.739838 979.343379 97.171034 978.924056 96.751711 
C 978.504733 96.332388 977.93593 96.096782 977.342918 96.096782 
C 976.749905 96.096782 976.181102 96.332388 975.761779 96.751711 
C 975.342456 97.171034 975.10685 97.739838 975.10685 98.33285 
C 975.10685 98.925862 975.342456 99.494666 975.761779 99.913989 
C 976.181102 100.333311 976.749905 100.568918 977.342918 100.568918 
z
" clip-path="url(#pf9cdbf35a4)" style="fill: #1f77b4; fill-opacity: 0.3; stroke: #1f77b4; stroke-opacity: 0.3"/>
    <path d="M 986.78055 96.369119 
C 988.106565 96.369119 989.378449 95.842288 990.316084 94.904653 
C 991.253718 93.967019 991.78055 92.695135 991.78055 91.369119 
C 991.78055 90.043104 991.253718 88.77122 990.316084 87.833585 
C 989.378449 86.895951 988.106565 86.369119 986.78055 86.369119 
C 985.454534 86.369119 984.18265 86.895951 983.245016 87.833585 
C 982.307381 88.77122 981.78055 90.043104 981.78055 91.369119 
C 981.78055 92.695135 982.307381 93.967019 983.245016 94.904653 
C 984.18265 95.842288 985.454534 96.369119 986.78055 96.369119 
z
" clip-path="url(#pf9cdbf35a4)" style="fill: #1f77b4; fill-opacity: 0.3; stroke: #1f77b4; stroke-opacity: 0.3"/>
    <path d="M 996.218182 92.018613 
C 996.94447 92.018613 997.64111 91.730055 998.154673 91.216492 
C 998.668237 90.702928 998.956795 90.006289 998.956795 89.28 
C 998.956795 88.553711 998.668237 87.857072 998.154673 87.343508 
C 997.64111 86.829945 996.94447 86.541387 996.218182 86.541387 
C 995.491893 86.541387 994.795254 86.829945 994.28169 87.343508 
C 993.768127 87.857072 993.479569 88.553711 993.479569 89.28 
C 993.479569 90.006289 993.768127 90.702928 994.28169 91.216492 
C 994.795254 91.730055 995.491893 92.018613 996.218182 92.018613 
z
" clip-path="url(#pf9cdbf35a4)" style="fill: #1f77b4; fill-opacity: 0.3; stroke: #1f77b4; stroke-opacity: 0.3"/>
   </g>
   <g id="matplotlib.axis_1">
    <g id="xtick_1">
     <g id="line2d_1">
      <defs>
       <path id="mcf1d756fb4" d="M 0 0 
L 0 3.5 
" style="stroke: #000000; stroke-width: 0.8"/>
      </defs>
      <g>
       <use xlink:href="#mcf1d756fb4" x="184.581818" y="512.64" style="stroke: #000000; stroke-width: 0.8"/>
      </g>
     </g>
     <g id="text_1">
      <!-- 2024-01-01 -->
      <g transform="translate(155.524006 527.238438) scale(0.1 -0.1)">
       <defs>
        <path id="DejaVuSans-32" d="M 1228 531 
L 3431 531 
L 3431 0 
L 469 0 
L 469 531 
Q 828 903 1448 1529 
Q 2069 2156 2228 2338 
Q 2531 2678 2651 2914 
Q 2772 3150 2772 3378 
Q 2772 3750 2511 3984 
Q 2250 4219 1831 4219 
Q 1534 4219 1204 4116 
Q 875 4013 500 3803 
L 500 4441 
Q 881 4594 1212 4672 
Q 1544 4750 1819 4750 
Q 2544 4750 2975 4387 
Q 3406 4025 3406 3419 
Q 3406 3131 3298 2873 
Q 3191 2616 2906 2266 
Q 2828 2175 2409 1742 
Q 1991 1309 1228 531 
z
" transform="scale(0.015625)"/>
        <path id="DejaVuSans-30" d="M 2034 4250 
Q 1547 4250 1301 3770 
Q 1056 3291 1056 2328 
Q 1056 1369 1301 889 
Q 1547 409 2034 409 
Q 2525 409 2770 889 
Q 3016 1369 3016 2328 
Q 3016 3291 2770 3770 
Q 2525 4250 2034 4250 
z
M 2034 4750 
Q 2819 4750 3233 4129 
Q 3647 3509 3647 2328 
Q 3647 1150 3233 529 
Q 2819 -91 2034 -91 
Q 1250 -91 836 529 
Q 422 1150 422 2328 
Q 422 3509 836 4129 
Q 1250 4750 2034 4750 
z
" transform="scale(0.015625)"/>
        <path id="DejaVuSans-34" d="M 2419 4116 
L 825 1625 
L 2419 1625 
L 2419 4116 
z
M 2253 4666 
L 3047 4666 
L 3047 1625 
L 3713 1625 
L 3713 1100 
L 3047 1100 
L 3047 0 
L 2419 0 
L 2419 1100 
L 313 1100 
L 313 1709 
L 2253 4666 
z
" transform="scale(0.015625)"/>
        <path id="DejaVuSans-2d" d="M 313 2009 
L 1997 2009 
L 1997 1497 
L 313 1497 
L 313 2009 
z
" transform="scale(0.015625)"/>
        <path id="DejaVuSans-31" d="M 794 531 
L 1825 531 
L 1825 4091 
L 703 3866 
L 703 4441 
L 1819 4666 
L 2450 4666 
L 2450 531 
L 3481 531 
L 3481 0 
L 794 0 
L 794 531 
z
" transform="scale(0.015625)"/>
       </defs>
       <use xlink:href="#DejaVuSans-32"/>
       <use xlink:href="#DejaVuSans-30" x="63.623047"/>
       <use xlink:href="#DejaVuSans-32" x="127.246094"/>
       <use xlink:href="#DejaVuSans-34" x="190.869141"/>
       <use xlink:href="#DejaVuSans-2d" x="254.492188"/>
       <use xlink:href="#DejaVuSans-30" x="290.576172"/>
       <use xlink:href="#DejaVuSans-31" x="354.199219"/>
       <use xlink:href="#DejaVuSans-2d" x="417.822266"/>
       <use xlink:href="#DejaVuSans-30" x="453.90625"/>
       <use xlink:href="#DejaVuSans-31" x="517.529297"/>
      </g>
     </g>
    </g>
    <g id="xtick_2">
     <g id="line2d_2">
      <g>
       <use xlink:href="#mcf1d756fb4" x="316.708668" y="512.64" style="stroke: #000000; stroke-width: 0.8"/>
      </g>
     </g>
     <g id="text_2">
      <!-- 2024-01-15 -->
      <g transform="translate(287.650856 527.238438) scale(0.1 -0.1)">
       <defs>
        <path id="DejaVuSans-35" d="M 691 4666 
L 3169 4666 
L 3169 4134 
L 1269 4134 
L 1269 2991 
Q 1406 3038 1543 3061 
Q 1681 3084 1819 3084 
Q 2600 3084 3056 2656 
Q 3513 2228 3513 1497 
Q 3513 744 3044 326 
Q 2575 -91 1722 -91 
Q 1428 -91 1123 -41 
Q 819 9 494 109 
L 494 744 
Q 775 591 1075 516 
Q 1375 441 1709 441 
Q 2250 441 2565 725 
Q 2881 1009 2881 1497 
Q 2881 1984 2565 2268 
Q 2250 2553 1709 2553 
Q 1456 2553 1204 2497 
Q 953 2441 691 2322 
L 691 4666 
z
" transform="scale(0.015625)"/>
       </defs>
       <use xlink:href="#DejaVuSans-32"/>
       <use xlink:href="#DejaVuSans-30" x="63.623047"/>
       <use xlink:href="#DejaVuSans-32" x="127.246094"/>
       <use xlink:href="#DejaVuSans-34" x="190.869141"/>
       <use xlink:href="#DejaVuSans-2d" x="254.492188"/>
       <use xlink:href="#DejaVuSans-30" x="290.576172"/>
       <use xlink:href="#DejaVuSans-31" x="354.199219"/>
       <use xlink:href="#DejaVuSans-2d" x="417.822266"/>
       <use xlink:href="#DejaVuSans-31" x="453.90625"/>
       <use xlink:href="#DejaVuSans-35" x="517.529297"/>
      </g>
     </g>
    </g>
    <g id="xtick_3">
     <g id="line2d_3">
      <g>
       <use xlink:href="#mcf1d756fb4" x="477.148414" y="512.64" style="stroke: #000000; stroke-width: 0.8"/>
      </g>
     </g>
     <g id="text_3">
      <!-- 2024-02-01 -->
      <g transform="translate(448.090602 527.238438) scale(0.1 -0.1)">
       <use xlink:href="#DejaVuSans-32"/>
       <use xlink:href="#DejaVuSans-30" x="63.623047"/>
       <use xlink:href="#DejaVuSans-32" x="127.246094"/>
       <use xlink:href="#DejaVuSans-34" x="190.869141"/>
       <use xlink:href="#DejaVuSans-2d" x="254.492188"/>
       <use xlink:href="#DejaVuSans-30" x="290.576172"/>
       <use xlink:href="#DejaVuSans-32" x="354.199219"/>
       <use xlink:href="#DejaVuSans-2d" x="417.822266"/>
       <use xlink:href="#DejaVuSans-30" x="453.90625"/>
       <use xlink:href="#DejaVuSans-31" x="517.529297"/>
      </g>
     </g>
    </g>
    <g id="xtick_4">
     <g id="line2d_4">
      <g>
       <use xlink:href="#mcf1d756fb4" x="609.275264" y="512.64" style="stroke: #000000; stroke-width: 0.8"/>
      </g>
     </g>
     <g id="text_4">
      <!-- 2024-02-15 -->
      <g transform="translate(580.217452 527.238438) scale(0.1 -0.1)">
       <use xlink:href="#DejaVuSans-32"/>
       <use xlink:href="#DejaVuSans-30" x="63.623047"/>
       <use xlink:href="#DejaVuSans-32" x="127.246094"/>
       <use xlink:href="#DejaVuSans-34" x="190.869141"/>
       <use xlink:href="#DejaVuSans-2d" x="254.492188"/>
       <use xlink:href="#DejaVuSans-30" x="290.576172"/>
       <use xlink:href="#DejaVuSans-32" x="354.199219"/>
       <use xlink:href="#DejaVuSans-2d" x="417.822266"/>
       <use xlink:href="#DejaVuSans-31" x="453.90625"/>
       <use xlink:href="#DejaVuSans-35" x="517.529297"/>
      </g>
     </g>
    </g>
    <g id="xtick_5">
     <g id="line2d_5">
      <g>
       <use xlink:href="#mcf1d756fb4" x="750.839746" y="512.64" style="stroke: #000000; stroke-width: 0.8"/>
      </g>
     </g>
     <g id="text_5">
      <!-- 2024-03-01 -->
      <g transform="translate(721.781934 527.238438) scale(0.1 -0.1)">
       <defs>
        <path id="DejaVuSans-33" d="M 2597 2516 
Q 3050 2419 3304 2112 
Q 3559 1806 3559 1356 
Q 3559 666 3084 287 
Q 2609 -91 1734 -91 
Q 1441 -91 1130 -33 
Q 819 25 488 141 
L 488 750 
Q 750 597 1062 519 
Q 1375 441 1716 441 
Q 2309 441 2620 675 
Q 2931 909 2931 1356 
Q 2931 1769 2642 2001 
Q 2353 2234 1838 2234 
L 1294 2234 
L 1294 2753 
L 1863 2753 
Q 2328 2753 2575 2939 
Q 2822 3125 2822 3475 
Q 2822 3834 2567 4026 
Q 2313 4219 1838 4219 
Q 1578 4219 1281 4162 
Q 984 4106 628 3988 
L 628 4550 
Q 988 4650 1302 4700 
Q 1616 4750 1894 4750 
Q 2613 4750 3031 4423 
Q 3450 4097 3450 3541 
Q 3450 3153 3228 2886 
Q 3006 2619 2597 2516 
z
" transform="scale(0.015625)"/>
       </defs>
       <use xlink:href="#DejaVuSans-32"/>
       <use xlink:href="#DejaVuSans-30" x="63.623047"/>
       <use xlink:href="#DejaVuSans-32" x="127.246094"/>
       <use xlink:href="#DejaVuSans-34" x="190.869141"/>
       <use xlink:href="#DejaVuSans-2d" x="254.492188"/>
       <use xlink:href="#DejaVuSans-30" x="290.576172"/>
       <use xlink:href="#DejaVuSans-33" x="354.199219"/>
       <use xlink:href="#DejaVuSans-2d" x="417.822266"/>
       <use xlink:href="#DejaVuSans-30" x="453.90625"/>
       <use xlink:href="#DejaVuSans-31" x="517.529297"/>
      </g>
     </g>
    </g>
    <g id="xtick_6">
     <g id="line2d_6">
      <g>
       <use xlink:href="#mcf1d756fb4" x="882.966596" y="512.64" style="stroke: #000000; stroke-width: 0.8"/>
      </g>
     </g>
     <g id="text_6">
      <!-- 2024-03-15 -->
      <g transform="translate(853.908784 527.238438) scale(0.1 -0.1)">
       <use xlink:href="#DejaVuSans-32"/>
       <use xlink:href="#DejaVuSans-30" x="63.623047"/>
       <use xlink:href="#DejaVuSans-32" x="127.246094"/>
       <use xlink:href="#DejaVuSans-34" x="190.869141"/>
       <use xlink:href="#DejaVuSans-2d" x="254.492188"/>
       <use xlink:href="#DejaVuSans-30" x="290.576172"/>
       <use xlink:href="#DejaVuSans-33" x="354.199219"/>
       <use xlink:href="#DejaVuSans-2d" x="417.822266"/>
       <use xlink:href="#DejaVuSans-31" x="453.90625"/>
       <use xlink:href="#DejaVuSans-35" x="517.529297"/>
      </g>
     </g>
    </g>
   </g>
   <g id="matplotlib.axis_2">
    <g id="ytick_1">
     <g id="line2d_7">
      <defs>
       <path id="m57445a03f5" d="M 0 0 
L -3.5 0 
" style="stroke: #000000; stroke-width: 0.8"/>
      </defs>
      <g>
       <use xlink:href="#m57445a03f5" x="144" y="475.070674" style="stroke: #000000; stroke-width: 0.8"/>
      </g>
     </g>
     <g id="text_7">
      <!-- 6300 -->
      <g transform="translate(111.55 478.869892) scale(0.1 -0.1)">
       <defs>
        <path id="DejaVuSans-36" d="M 2113 2584 
Q 1688 2584 1439 2293 
Q 1191 2003 1191 1497 
Q 1191 994 1439 701 
Q 1688 409 2113 409 
Q 2538 409 2786 701 
Q 3034 994 3034 1497 
Q 3034 2003 2786 2293 
Q 2538 2584 2113 2584 
z
M 3366 4563 
L 3366 3988 
Q 3128 4100 2886 4159 
Q 2644 4219 2406 4219 
Q 1781 4219 1451 3797 
Q 1122 3375 1075 2522 
Q 1259 2794 1537 2939 
Q 1816 3084 2150 3084 
Q 2853 3084 3261 2657 
Q 3669 2231 3669 1497 
Q 3669 778 3244 343 
Q 2819 -91 2113 -91 
Q 1303 -91 875 529 
Q 447 1150 447 2328 
Q 447 3434 972 4092 
Q 1497 4750 2381 4750 
Q 2619 4750 2861 4703 
Q 3103 4656 3366 4563 
z
" transform="scale(0.015625)"/>
       </defs>
       <use xlink:href="#DejaVuSans-36"/>
       <use xlink:href="#DejaVuSans-33" x="63.623047"/>
       <use xlink:href="#DejaVuSans-30" x="127.246094"/>
       <use xlink:href="#DejaVuSans-30" x="190.869141"/>
      </g>
     </g>
    </g>
    <g id="ytick_2">
     <g id="line2d_8">
      <g>
       <use xlink:href="#m57445a03f5" x="144" y="405.433368" style="stroke: #000000; stroke-width: 0.8"/>
      </g>
     </g>
     <g id="text_8">
      <!-- 6400 -->
      <g transform="translate(111.55 409.232587) scale(0.1 -0.1)">
       <use xlink:href="#DejaVuSans-36"/>
       <use xlink:href="#DejaVuSans-34" x="63.623047"/>
       <use xlink:href="#DejaVuSans-30" x="127.246094"/>
       <use xlink:href="#DejaVuSans-30" x="190.869141"/>
      </g>
     </g>
    </g>
    <g id="ytick_3">
     <g id="line2d_9">
      <g>
       <use xlink:href="#m57445a03f5" x="144" y="335.796062" style="stroke: #000000; stroke-width: 0.8"/>
      </g>
     </g>
     <g id="text_9">
      <!-- 6500 -->
      <g transform="translate(111.55 339.595281) scale(0.1 -0.1)">
       <use xlink:href="#DejaVuSans-36"/>
       <use xlink:href="#DejaVuSans-35" x="63.623047"/>
       <use xlink:href="#DejaVuSans-30" x="127.246094"/>
       <use xlink:href="#DejaVuSans-30" x="190.869141"/>
      </g>
     </g>
    </g>
    <g id="ytick_4">
     <g id="line2d_10">
      <g>
       <use xlink:href="#m57445a03f5" x="144" y="266.158756" style="stroke: #000000; stroke-width: 0.8"/>
      </g>
     </g>
     <g id="text_10">
      <!-- 6600 -->
      <g transform="translate(111.55 269.957975) scale(0.1 -0.1)">
       <use xlink:href="#DejaVuSans-36"/>
       <use xlink:href="#DejaVuSans-36" x="63.623047"/>
       <use xlink:href="#DejaVuSans-30" x="127.246094"/>
       <use xlink:href="#DejaVuSans-30" x="190.869141"/>
      </g>
     </g>
    </g>
    <g id="ytick_5">
     <g id="line2d_11">
      <g>
       <use xlink:href="#m57445a03f5" x="144" y="196.521451" style="stroke: #000000; stroke-width: 0.8"/>
      </g>
     </g>
     <g id="text_11">
      <!-- 6700 -->
      <g transform="translate(111.55 200.32067) scale(0.1 -0.1)">
       <defs>
        <path id="DejaVuSans-37" d="M 525 4666 
L 3525 4666 
L 3525 4397 
L 1831 0 
L 1172 0 
L 2766 4134 
L 525 4134 
L 525 4666 
z
" transform="scale(0.015625)"/>
       </defs>
       <use xlink:href="#DejaVuSans-36"/>
       <use xlink:href="#DejaVuSans-37" x="63.623047"/>
       <use xlink:href="#DejaVuSans-30" x="127.246094"/>
       <use xlink:href="#DejaVuSans-30" x="190.869141"/>
      </g>
     </g>
    </g>
    <g id="ytick_6">
     <g id="line2d_12">
      <g>
       <use xlink:href="#m57445a03f5" x="144" y="126.884145" style="stroke: #000000; stroke-width: 0.8"/>
      </g>
     </g>
     <g id="text_12">
      <!-- 6800 -->
      <g transform="translate(111.55 130.683364) scale(0.1 -0.1)">
       <defs>
        <path id="DejaVuSans-38" d="M 2034 2216 
Q 1584 2216 1326 1975 
Q 1069 1734 1069 1313 
Q 1069 891 1326 650 
Q 1584 409 2034 409 
Q 2484 409 2743 651 
Q 3003 894 3003 1313 
Q 3003 1734 2745 1975 
Q 2488 2216 2034 2216 
z
M 1403 2484 
Q 997 2584 770 2862 
Q 544 3141 544 3541 
Q 544 4100 942 4425 
Q 1341 4750 2034 4750 
Q 2731 4750 3128 4425 
Q 3525 4100 3525 3541 
Q 3525 3141 3298 2862 
Q 3072 2584 2669 2484 
Q 3125 2378 3379 2068 
Q 3634 1759 3634 1313 
Q 3634 634 3220 271 
Q 2806 -91 2034 -91 
Q 1263 -91 848 271 
Q 434 634 434 1313 
Q 434 1759 690 2068 
Q 947 2378 1403 2484 
z
M 1172 3481 
Q 1172 3119 1398 2916 
Q 1625 2713 2034 2713 
Q 2441 2713 2670 2916 
Q 2900 3119 2900 3481 
Q 2900 3844 2670 4047 
Q 2441 4250 2034 4250 
Q 1625 4250 1398 4047 
Q 1172 3844 1172 3481 
z
" transform="scale(0.015625)"/>
       </defs>
       <use xlink:href="#DejaVuSans-36"/>
       <use xlink:href="#DejaVuSans-38" x="63.623047"/>
       <use xlink:href="#DejaVuSans-30" x="127.246094"/>
       <use xlink:href="#DejaVuSans-30" x="190.869141"/>
      </g>
     </g>
    </g>
   </g>
   <g id="line2d_13">
    <path d="M 184.581818 492.48 
L 194.01945 478.552539 
L 203.457082 460.446839 
L 212.894715 459.750466 
L 222.332347 452.786736 
L 241.207611 449.30487 
L 250.645243 446.519378 
L 260.082875 444.430259 
L 269.520507 441.644767 
L 278.95814 437.466528 
L 288.395772 426.32456 
L 297.833404 424.23544 
L 307.271036 422.146321 
L 316.708668 411.700725 
L 326.1463 409.611606 
L 335.583932 401.25513 
L 345.021564 397.773264 
L 354.459197 393.595026 
L 363.896829 391.505907 
L 373.334461 389.416788 
L 382.772093 385.934922 
L 392.209725 382.453057 
L 401.647357 379.667565 
L 411.084989 378.274819 
L 420.522622 373.400207 
L 429.960254 372.007461 
L 448.835518 365.043731 
L 458.27315 364.347358 
L 467.710782 360.169119 
L 477.148414 350.419896 
L 486.586047 339.974301 
L 496.023679 337.885181 
L 514.898943 335.099689 
L 524.336575 323.95772 
L 533.774207 323.261347 
L 543.211839 320.475855 
L 552.649471 318.386736 
L 562.087104 316.297617 
L 571.524736 303.762902 
L 580.962368 301.673782 
L 590.4 298.88829 
L 599.837632 296.102798 
L 609.275264 292.620933 
L 618.712896 278.693472 
L 628.150529 275.211606 
L 637.588161 273.122487 
L 647.025793 266.158756 
L 656.463425 263.373264 
L 665.901057 262.676891 
L 675.338689 244.571192 
L 684.776321 241.089326 
L 694.213953 234.821969 
L 703.651586 233.429223 
L 713.089218 231.340104 
L 722.52685 222.983627 
L 731.964482 221.590881 
L 741.402114 219.501762 
L 750.839746 199.306943 
L 760.277378 197.914197 
L 769.715011 196.521451 
L 779.152643 189.55772 
L 788.590275 187.468601 
L 798.027907 171.452021 
L 807.465539 170.755648 
L 816.903171 169.362902 
L 826.340803 165.881036 
L 835.778436 162.399171 
L 845.216068 154.739067 
L 854.6537 151.257202 
L 864.091332 148.47171 
L 873.528964 140.811606 
L 882.966596 129.669637 
L 892.404228 124.795026 
L 901.84186 122.009534 
L 911.279493 120.616788 
L 920.717125 114.34943 
L 930.154757 111.563938 
L 939.592389 107.385699 
L 949.030021 105.992953 
L 958.467653 103.207461 
L 967.905285 99.725596 
L 977.342918 98.33285 
L 986.78055 91.369119 
L 996.218182 89.28 
" clip-path="url(#pf9cdbf35a4)" style="fill: none; stroke: #1f77b4; stroke-width: 1.5; stroke-linecap: square"/>
   </g>
   <g id="patch_3">
    <path d="M 144 512.64 
L 144 69.12 
" style="fill: none; stroke: #000000; stroke-width: 0.8; stroke-linejoin: miter; stroke-linecap: square"/>
   </g>
   <g id="patch_4">
    <path d="M 1036.8 512.64 
L 1036.8 69.12 
" style="fill: none; stroke: #000000; stroke-width: 0.8; stroke-linejoin: miter; stroke-linecap: square"/>
   </g>
   <g id="patch_5">
    <path d="M 144 512.64 
L 1036.8 512.64 
" style="fill: none; stroke: #000000; stroke-width: 0.8; stroke-linejoin: miter; stroke-linecap: square"/>
   </g>
   <g id="patch_6">
    <path d="M 144 69.12 
L 1036.8 69.12 
" style="fill: none; stroke: #000000; stroke-width: 0.8; stroke-linejoin: miter; stroke-linecap: square"/>
   </g>
   <g id="text_13">
    <!-- Number of AEDs in the OpenStreetMap database in Poland from 2024-01-01, day by day. As at: 2024-03-27 -->
    <g transform="translate(144 63.12) scale(0.14 -0.14)">
     <defs>
      <path id="DejaVuSans-4e" d="M 628 4666 
L 1478 4666 
L 3547 763 
L 3547 4666 
L 4159 4666 
L 4159 0 
L 3309 0 
L 1241 3903 
L 1241 0 
L 628 0 
L 628 4666 
z
" transform="scale(0.015625)"/>
      <path id="DejaVuSans-75" d="M 544 1381 
L 544 3500 
L 1119 3500 
L 1119 1403 
Q 1119 906 1312 657 
Q 1506 409 1894 409 
Q 2359 409 2629 706 
Q 2900 1003 2900 1516 
L 2900 3500 
L 3475 3500 
L 3475 0 
L 2900 0 
L 2900 538 
Q 2691 219 2414 64 
Q 2138 -91 1772 -91 
Q 1169 -91 856 284 
Q 544 659 544 1381 
z
M 1991 3584 
L 1991 3584 
z
" transform="scale(0.015625)"/>
      <path id="DejaVuSans-6d" d="M 3328 2828 
Q 3544 3216 3844 3400 
Q 4144 3584 4550 3584 
Q 5097 3584 5394 3201 
Q 5691 2819 5691 2113 
L 5691 0 
L 5113 0 
L 5113 2094 
Q 5113 2597 4934 2840 
Q 4756 3084 4391 3084 
Q 3944 3084 3684 2787 
Q 3425 2491 3425 1978 
L 3425 0 
L 2847 0 
L 2847 2094 
Q 2847 2600 2669 2842 
Q 2491 3084 2119 3084 
Q 1678 3084 1418 2786 
Q 1159 2488 1159 1978 
L 1159 0 
L 581 0 
L 581 3500 
L 1159 3500 
L 1159 2956 
Q 1356 3278 1631 3431 
Q 1906 3584 2284 3584 
Q 2666 3584 2933 3390 
Q 3200 3197 3328 2828 
z
" transform="scale(0.015625)"/>
      <path id="DejaVuSans-62" d="M 3116 1747 
Q 3116 2381 2855 2742 
Q 2594 3103 2138 3103 
Q 1681 3103 1420 2742 
Q 1159 2381 1159 1747 
Q 1159 1113 1420 752 
Q 1681 391 2138 391 
Q 2594 391 2855 752 
Q 3116 1113 3116 1747 
z
M 1159 2969 
Q 1341 3281 1617 3432 
Q 1894 3584 2278 3584 
Q 2916 3584 3314 3078 
Q 3713 2572 3713 1747 
Q 3713 922 3314 415 
Q 2916 -91 2278 -91 
Q 1894 -91 1617 61 
Q 1341 213 1159 525 
L 1159 0 
L 581 0 
L 581 4863 
L 1159 4863 
L 1159 2969 
z
" transform="scale(0.015625)"/>
      <path id="DejaVuSans-65" d="M 3597 1894 
L 3597 1613 
L 953 1613 
Q 991 1019 1311 708 
Q 1631 397 2203 397 
Q 2534 397 2845 478 
Q 3156 559 3463 722 
L 3463 178 
Q 3153 47 2828 -22 
Q 2503 -91 2169 -91 
Q 1331 -91 842 396 
Q 353 884 353 1716 
Q 353 2575 817 3079 
Q 1281 3584 2069 3584 
Q 2775 3584 3186 3129 
Q 3597 2675 3597 1894 
z
M 3022 2063 
Q 3016 2534 2758 2815 
Q 2500 3097 2075 3097 
Q 1594 3097 1305 2825 
Q 1016 2553 972 2059 
L 3022 2063 
z
" transform="scale(0.015625)"/>
      <path id="DejaVuSans-72" d="M 2631 2963 
Q 2534 3019 2420 3045 
Q 2306 3072 2169 3072 
Q 1681 3072 1420 2755 
Q 1159 2438 1159 1844 
L 1159 0 
L 581 0 
L 581 3500 
L 1159 3500 
L 1159 2956 
Q 1341 3275 1631 3429 
Q 1922 3584 2338 3584 
Q 2397 3584 2469 3576 
Q 2541 3569 2628 3553 
L 2631 2963 
z
" transform="scale(0.015625)"/>
      <path id="DejaVuSans-20" transform="scale(0.015625)"/>
      <path id="DejaVuSans-6f" d="M 1959 3097 
Q 1497 3097 1228 2736 
Q 959 2375 959 1747 
Q 959 1119 1226 758 
Q 1494 397 1959 397 
Q 2419 397 2687 759 
Q 2956 1122 2956 1747 
Q 2956 2369 2687 2733 
Q 2419 3097 1959 3097 
z
M 1959 3584 
Q 2709 3584 3137 3096 
Q 3566 2609 3566 1747 
Q 3566 888 3137 398 
Q 2709 -91 1959 -91 
Q 1206 -91 779 398 
Q 353 888 353 1747 
Q 353 2609 779 3096 
Q 1206 3584 1959 3584 
z
" transform="scale(0.015625)"/>
      <path id="DejaVuSans-66" d="M 2375 4863 
L 2375 4384 
L 1825 4384 
Q 1516 4384 1395 4259 
Q 1275 4134 1275 3809 
L 1275 3500 
L 2222 3500 
L 2222 3053 
L 1275 3053 
L 1275 0 
L 697 0 
L 697 3053 
L 147 3053 
L 147 3500 
L 697 3500 
L 697 3744 
Q 697 4328 969 4595 
Q 1241 4863 1831 4863 
L 2375 4863 
z
" transform="scale(0.015625)"/>
      <path id="DejaVuSans-41" d="M 2188 4044 
L 1331 1722 
L 3047 1722 
L 2188 4044 
z
M 1831 4666 
L 2547 4666 
L 4325 0 
L 3669 0 
L 3244 1197 
L 1141 1197 
L 716 0 
L 50 0 
L 1831 4666 
z
" transform="scale(0.015625)"/>
      <path id="DejaVuSans-45" d="M 628 4666 
L 3578 4666 
L 3578 4134 
L 1259 4134 
L 1259 2753 
L 3481 2753 
L 3481 2222 
L 1259 2222 
L 1259 531 
L 3634 531 
L 3634 0 
L 628 0 
L 628 4666 
z
" transform="scale(0.015625)"/>
      <path id="DejaVuSans-44" d="M 1259 4147 
L 1259 519 
L 2022 519 
Q 2988 519 3436 956 
Q 3884 1394 3884 2338 
Q 3884 3275 3436 3711 
Q 2988 4147 2022 4147 
L 1259 4147 
z
M 628 4666 
L 1925 4666 
Q 3281 4666 3915 4102 
Q 4550 3538 4550 2338 
Q 4550 1131 3912 565 
Q 3275 0 1925 0 
L 628 0 
L 628 4666 
z
" transform="scale(0.015625)"/>
      <path id="DejaVuSans-73" d="M 2834 3397 
L 2834 2853 
Q 2591 2978 2328 3040 
Q 2066 3103 1784 3103 
Q 1356 3103 1142 2972 
Q 928 2841 928 2578 
Q 928 2378 1081 2264 
Q 1234 2150 1697 2047 
L 1894 2003 
Q 2506 1872 2764 1633 
Q 3022 1394 3022 966 
Q 3022 478 2636 193 
Q 2250 -91 1575 -91 
Q 1294 -91 989 -36 
Q 684 19 347 128 
L 347 722 
Q 666 556 975 473 
Q 1284 391 1588 391 
Q 1994 391 2212 530 
Q 2431 669 2431 922 
Q 2431 1156 2273 1281 
Q 2116 1406 1581 1522 
L 1381 1569 
Q 847 1681 609 1914 
Q 372 2147 372 2553 
Q 372 3047 722 3315 
Q 1072 3584 1716 3584 
Q 2034 3584 2315 3537 
Q 2597 3491 2834 3397 
z
" transform="scale(0.015625)"/>
      <path id="DejaVuSans-69" d="M 603 3500 
L 1178 3500 
L 1178 0 
L 603 0 
L 603 3500 
z
M 603 4863 
L 1178 4863 
L 1178 4134 
L 603 4134 
L 603 4863 
z
" transform="scale(0.015625)"/>
      <path id="DejaVuSans-6e" d="M 3513 2113 
L 3513 0 
L 2938 0 
L 2938 2094 
Q 2938 2591 2744 2837 
Q 2550 3084 2163 3084 
Q 1697 3084 1428 2787 
Q 1159 2491 1159 1978 
L 1159 0 
L 581 0 
L 581 3500 
L 1159 3500 
L 1159 2956 
Q 1366 3272 1645 3428 
Q 1925 3584 2291 3584 
Q 2894 3584 3203 3211 
Q 3513 2838 3513 2113 
z
" transform="scale(0.015625)"/>
      <path id="DejaVuSans-74" d="M 1172 4494 
L 1172 3500 
L 2356 3500 
L 2356 3053 
L 1172 3053 
L 1172 1153 
Q 1172 725 1289 603 
Q 1406 481 1766 481 
L 2356 481 
L 2356 0 
L 1766 0 
Q 1100 0 847 248 
Q 594 497 594 1153 
L 594 3053 
L 172 3053 
L 172 3500 
L 594 3500 
L 594 4494 
L 1172 4494 
z
" transform="scale(0.015625)"/>
      <path id="DejaVuSans-68" d="M 3513 2113 
L 3513 0 
L 2938 0 
L 2938 2094 
Q 2938 2591 2744 2837 
Q 2550 3084 2163 3084 
Q 1697 3084 1428 2787 
Q 1159 2491 1159 1978 
L 1159 0 
L 581 0 
L 581 4863 
L 1159 4863 
L 1159 2956 
Q 1366 3272 1645 3428 
Q 1925 3584 2291 3584 
Q 2894 3584 3203 3211 
Q 3513 2838 3513 2113 
z
" transform="scale(0.015625)"/>
      <path id="DejaVuSans-4f" d="M 2522 4238 
Q 1834 4238 1429 3725 
Q 1025 3213 1025 2328 
Q 1025 1447 1429 934 
Q 1834 422 2522 422 
Q 3209 422 3611 934 
Q 4013 1447 4013 2328 
Q 4013 3213 3611 3725 
Q 3209 4238 2522 4238 
z
M 2522 4750 
Q 3503 4750 4090 4092 
Q 4678 3434 4678 2328 
Q 4678 1225 4090 567 
Q 3503 -91 2522 -91 
Q 1538 -91 948 565 
Q 359 1222 359 2328 
Q 359 3434 948 4092 
Q 1538 4750 2522 4750 
z
" transform="scale(0.015625)"/>
      <path id="DejaVuSans-70" d="M 1159 525 
L 1159 -1331 
L 581 -1331 
L 581 3500 
L 1159 3500 
L 1159 2969 
Q 1341 3281 1617 3432 
Q 1894 3584 2278 3584 
Q 2916 3584 3314 3078 
Q 3713 2572 3713 1747 
Q 3713 922 3314 415 
Q 2916 -91 2278 -91 
Q 1894 -91 1617 61 
Q 1341 213 1159 525 
z
M 3116 1747 
Q 3116 2381 2855 2742 
Q 2594 3103 2138 3103 
Q 1681 3103 1420 2742 
Q 1159 2381 1159 1747 
Q 1159 1113 1420 752 
Q 1681 391 2138 391 
Q 2594 391 2855 752 
Q 3116 1113 3116 1747 
z
" transform="scale(0.015625)"/>
      <path id="DejaVuSans-53" d="M 3425 4513 
L 3425 3897 
Q 3066 4069 2747 4153 
Q 2428 4238 2131 4238 
Q 1616 4238 1336 4038 
Q 1056 3838 1056 3469 
Q 1056 3159 1242 3001 
Q 1428 2844 1947 2747 
L 2328 2669 
Q 3034 2534 3370 2195 
Q 3706 1856 3706 1288 
Q 3706 609 3251 259 
Q 2797 -91 1919 -91 
Q 1588 -91 1214 -16 
Q 841 59 441 206 
L 441 856 
Q 825 641 1194 531 
Q 1563 422 1919 422 
Q 2459 422 2753 634 
Q 3047 847 3047 1241 
Q 3047 1584 2836 1778 
Q 2625 1972 2144 2069 
L 1759 2144 
Q 1053 2284 737 2584 
Q 422 2884 422 3419 
Q 422 4038 858 4394 
Q 1294 4750 2059 4750 
Q 2388 4750 2728 4690 
Q 3069 4631 3425 4513 
z
" transform="scale(0.015625)"/>
      <path id="DejaVuSans-4d" d="M 628 4666 
L 1569 4666 
L 2759 1491 
L 3956 4666 
L 4897 4666 
L 4897 0 
L 4281 0 
L 4281 4097 
L 3078 897 
L 2444 897 
L 1241 4097 
L 1241 0 
L 628 0 
L 628 4666 
z
" transform="scale(0.015625)"/>
      <path id="DejaVuSans-61" d="M 2194 1759 
Q 1497 1759 1228 1600 
Q 959 1441 959 1056 
Q 959 750 1161 570 
Q 1363 391 1709 391 
Q 2188 391 2477 730 
Q 2766 1069 2766 1631 
L 2766 1759 
L 2194 1759 
z
M 3341 1997 
L 3341 0 
L 2766 0 
L 2766 531 
Q 2569 213 2275 61 
Q 1981 -91 1556 -91 
Q 1019 -91 701 211 
Q 384 513 384 1019 
Q 384 1609 779 1909 
Q 1175 2209 1959 2209 
L 2766 2209 
L 2766 2266 
Q 2766 2663 2505 2880 
Q 2244 3097 1772 3097 
Q 1472 3097 1187 3025 
Q 903 2953 641 2809 
L 641 3341 
Q 956 3463 1253 3523 
Q 1550 3584 1831 3584 
Q 2591 3584 2966 3190 
Q 3341 2797 3341 1997 
z
" transform="scale(0.015625)"/>
      <path id="DejaVuSans-64" d="M 2906 2969 
L 2906 4863 
L 3481 4863 
L 3481 0 
L 2906 0 
L 2906 525 
Q 2725 213 2448 61 
Q 2172 -91 1784 -91 
Q 1150 -91 751 415 
Q 353 922 353 1747 
Q 353 2572 751 3078 
Q 1150 3584 1784 3584 
Q 2172 3584 2448 3432 
Q 2725 3281 2906 2969 
z
M 947 1747 
Q 947 1113 1208 752 
Q 1469 391 1925 391 
Q 2381 391 2643 752 
Q 2906 1113 2906 1747 
Q 2906 2381 2643 2742 
Q 2381 3103 1925 3103 
Q 1469 3103 1208 2742 
Q 947 2381 947 1747 
z
" transform="scale(0.015625)"/>
      <path id="DejaVuSans-50" d="M 1259 4147 
L 1259 2394 
L 2053 2394 
Q 2494 2394 2734 2622 
Q 2975 2850 2975 3272 
Q 2975 3691 2734 3919 
Q 2494 4147 2053 4147 
L 1259 4147 
z
M 628 4666 
L 2053 4666 
Q 2838 4666 3239 4311 
Q 3641 3956 3641 3272 
Q 3641 2581 3239 2228 
Q 2838 1875 2053 1875 
L 1259 1875 
L 1259 0 
L 628 0 
L 628 4666 
z
" transform="scale(0.015625)"/>
      <path id="DejaVuSans-6c" d="M 603 4863 
L 1178 4863 
L 1178 0 
L 603 0 
L 603 4863 
z
" transform="scale(0.015625)"/>
      <path id="DejaVuSans-2c" d="M 750 794 
L 1409 794 
L 1409 256 
L 897 -744 
L 494 -744 
L 750 256 
L 750 794 
z
" transform="scale(0.015625)"/>
      <path id="DejaVuSans-79" d="M 2059 -325 
Q 1816 -950 1584 -1140 
Q 1353 -1331 966 -1331 
L 506 -1331 
L 506 -850 
L 844 -850 
Q 1081 -850 1212 -737 
Q 1344 -625 1503 -206 
L 1606 56 
L 191 3500 
L 800 3500 
L 1894 763 
L 2988 3500 
L 3597 3500 
L 2059 -325 
z
" transform="scale(0.015625)"/>
      <path id="DejaVuSans-2e" d="M 684 794 
L 1344 794 
L 1344 0 
L 684 0 
L 684 794 
z
" transform="scale(0.015625)"/>
      <path id="DejaVuSans-3a" d="M 750 794 
L 1409 794 
L 1409 0 
L 750 0 
L 750 794 
z
M 750 3309 
L 1409 3309 
L 1409 2516 
L 750 2516 
L 750 3309 
z
" transform="scale(0.015625)"/>
     </defs>
     <use xlink:href="#DejaVuSans-4e"/>
     <use xlink:href="#DejaVuSans-75" x="74.804688"/>
     <use xlink:href="#DejaVuSans-6d" x="138.183594"/>
     <use xlink:href="#DejaVuSans-62" x="235.595703"/>
     <use xlink:href="#DejaVuSans-65" x="299.072266"/>
     <use xlink:href="#DejaVuSans-72" x="360.595703"/>
     <use xlink:href="#DejaVuSans-20" x="401.708984"/>
     <use xlink:href="#DejaVuSans-6f" x="433.496094"/>
     <use xlink:href="#DejaVuSans-66" x="494.677734"/>
     <use xlink:href="#DejaVuSans-20" x="529.882812"/>
     <use xlink:href="#DejaVuSans-41" x="561.669922"/>
     <use xlink:href="#DejaVuSans-45" x="630.078125"/>
     <use xlink:href="#DejaVuSans-44" x="693.261719"/>
     <use xlink:href="#DejaVuSans-73" x="770.263672"/>
     <use xlink:href="#DejaVuSans-20" x="822.363281"/>
     <use xlink:href="#DejaVuSans-69" x="854.150391"/>
     <use xlink:href="#DejaVuSans-6e" x="881.933594"/>
     <use xlink:href="#DejaVuSans-20" x="945.3125"/>
     <use xlink:href="#DejaVuSans-74" x="977.099609"/>
     <use xlink:href="#DejaVuSans-68" x="1016.308594"/>
     <use xlink:href="#DejaVuSans-65" x="1079.6875"/>
     <use xlink:href="#DejaVuSans-20" x="1141.210938"/>
     <use xlink:href="#DejaVuSans-4f" x="1172.998047"/>
     <use xlink:href="#DejaVuSans-70" x="1251.708984"/>
     <use xlink:href="#DejaVuSans-65" x="1315.185547"/>
     <use xlink:href="#DejaVuSans-6e" x="1376.708984"/>
     <use xlink:href="#DejaVuSans-53" x="1440.087891"/>
     <use xlink:href="#DejaVuSans-74" x="1503.564453"/>
     <use xlink:href="#DejaVuSans-72" x="1542.773438"/>
     <use xlink:href="#DejaVuSans-65" x="1581.636719"/>
     <use xlink:href="#DejaVuSans-65" x="1643.160156"/>
     <use xlink:href="#DejaVuSans-74" x="1704.683594"/>
     <use xlink:href="#DejaVuSans-4d" x="1743.892578"/>
     <use xlink:href="#DejaVuSans-61" x="1830.171875"/>
     <use xlink:href="#DejaVuSans-70" x="1891.451172"/>
     <use xlink:href="#DejaVuSans-20" x="1954.927734"/>
     <use xlink:href="#DejaVuSans-64" x="1986.714844"/>
     <use xlink:href="#DejaVuSans-61" x="2050.191406"/>
     <use xlink:href="#DejaVuSans-74" x="2111.470703"/>
     <use xlink:href="#DejaVuSans-61" x="2150.679688"/>
     <use xlink:href="#DejaVuSans-62" x="2211.958984"/>
     <use xlink:href="#DejaVuSans-61" x="2275.435547"/>
     <use xlink:href="#DejaVuSans-73" x="2336.714844"/>
     <use xlink:href="#DejaVuSans-65" x="2388.814453"/>
     <use xlink:href="#DejaVuSans-20" x="2450.337891"/>
     <use xlink:href="#DejaVuSans-69" x="2482.125"/>
     <use xlink:href="#DejaVuSans-6e" x="2509.908203"/>
     <use xlink:href="#DejaVuSans-20" x="2573.287109"/>
     <use xlink:href="#DejaVuSans-50" x="2605.074219"/>
     <use xlink:href="#DejaVuSans-6f" x="2661.751953"/>
     <use xlink:href="#DejaVuSans-6c" x="2722.933594"/>
     <use xlink:href="#DejaVuSans-61" x="2750.716797"/>
     <use xlink:href="#DejaVuSans-6e" x="2811.996094"/>
     <use xlink:href="#DejaVuSans-64" x="2875.375"/>
     <use xlink:href="#DejaVuSans-20" x="2938.851562"/>
     <use xlink:href="#DejaVuSans-66" x="2970.638672"/>
     <use xlink:href="#DejaVuSans-72" x="3005.84375"/>
     <use xlink:href="#DejaVuSans-6f" x="3044.707031"/>
     <use xlink:href="#DejaVuSans-6d" x="3105.888672"/>
     <use xlink:href="#DejaVuSans-20" x="3203.300781"/>
     <use xlink:href="#DejaVuSans-32" x="3235.087891"/>
     <use xlink:href="#DejaVuSans-30" x="3298.710938"/>
     <use xlink:href="#DejaVuSans-32" x="3362.333984"/>
     <use xlink:href="#DejaVuSans-34" x="3425.957031"/>
     <use xlink:href="#DejaVuSans-2d" x="3489.580078"/>
     <use xlink:href="#DejaVuSans-30" x="3525.664062"/>
     <use xlink:href="#DejaVuSans-31" x="3589.287109"/>
     <use xlink:href="#DejaVuSans-2d" x="3652.910156"/>
     <use xlink:href="#DejaVuSans-30" x="3688.994141"/>
     <use xlink:href="#DejaVuSans-31" x="3752.617188"/>
     <use xlink:href="#DejaVuSans-2c" x="3816.240234"/>
     <use xlink:href="#DejaVuSans-20" x="3848.027344"/>
     <use xlink:href="#DejaVuSans-64" x="3879.814453"/>
     <use xlink:href="#DejaVuSans-61" x="3943.291016"/>
     <use xlink:href="#DejaVuSans-79" x="4004.570312"/>
     <use xlink:href="#DejaVuSans-20" x="4063.75"/>
     <use xlink:href="#DejaVuSans-62" x="4095.537109"/>
     <use xlink:href="#DejaVuSans-79" x="4159.013672"/>
     <use xlink:href="#DejaVuSans-20" x="4218.193359"/>
     <use xlink:href="#DejaVuSans-64" x="4249.980469"/>
     <use xlink:href="#DejaVuSans-61" x="4313.457031"/>
     <use xlink:href="#DejaVuSans-79" x="4374.736328"/>
     <use xlink:href="#DejaVuSans-2e" x="4419.666016"/>
     <use xlink:href="#DejaVuSans-20" x="4451.453125"/>
     <use xlink:href="#DejaVuSans-41" x="4483.240234"/>
     <use xlink:href="#DejaVuSans-73" x="4551.648438"/>
     <use xlink:href="#DejaVuSans-20" x="4603.748047"/>
     <use xlink:href="#DejaVuSans-61" x="4635.535156"/>
     <use xlink:href="#DejaVuSans-74" x="4696.814453"/>
     <use xlink:href="#DejaVuSans-3a" x="4736.023438"/>
     <use xlink:href="#DejaVuSans-20" x="4769.714844"/>
     <use xlink:href="#DejaVuSans-32" x="4801.501953"/>
     <use xlink:href="#DejaVuSans-30" x="4865.125"/>
     <use xlink:href="#DejaVuSans-32" x="4928.748047"/>
     <use xlink:href="#DejaVuSans-34" x="4992.371094"/>
     <use xlink:href="#DejaVuSans-2d" x="5055.994141"/>
     <use xlink:href="#DejaVuSans-30" x="5092.078125"/>
     <use xlink:href="#DejaVuSans-33" x="5155.701172"/>
     <use xlink:href="#DejaVuSans-2d" x="5219.324219"/>
     <use xlink:href="#DejaVuSans-32" x="5255.408203"/>
     <use xlink:href="#DejaVuSans-37" x="5319.03125"/>
    </g>
   </g>
  </g>
 </g>
 <defs>
  <clipPath id="pf9cdbf35a4">
   <rect x="144" y="69.12" width="892.8" height="443.52"/>
  </clipPath>
 </defs>
</svg>
