<?xml version="1.0" encoding="utf-8" standalone="no"?>
<!DOCTYPE svg PUBLIC "-//W3C//DTD SVG 1.1//EN"
  "http://www.w3.org/Graphics/SVG/1.1/DTD/svg11.dtd">
<svg xmlns:xlink="http://www.w3.org/1999/xlink" width="1152pt" height="576pt" viewBox="0 0 1152 576" xmlns="http://www.w3.org/2000/svg" version="1.1">
 <metadata>
  <rdf:RDF xmlns:dc="http://purl.org/dc/elements/1.1/" xmlns:cc="http://creativecommons.org/ns#" xmlns:rdf="http://www.w3.org/1999/02/22-rdf-syntax-ns#">
   <cc:Work>
    <dc:type rdf:resource="http://purl.org/dc/dcmitype/StillImage"/>
    <dc:date>2024-04-04T06:33:17.643585</dc:date>
    <dc:format>image/svg+xml</dc:format>
    <dc:creator>
     <cc:Agent>
      <dc:title>Matplotlib v3.8.3, https://matplotlib.org/</dc:title>
     </cc:Agent>
    </dc:creator>
   </cc:Work>
  </rdf:RDF>
 </metadata>
 <defs>
  <style type="text/css">*{stroke-linejoin: round; stroke-linecap: butt}</style>
 </defs>
 <g id="figure_1">
  <g id="patch_1">
   <path d="M 0 576 
L 1152 576 
L 1152 0 
L 0 0 
z
" style="fill: #ffffff"/>
  </g>
  <g id="axes_1">
   <g id="patch_2">
    <path d="M 144 512.64 
L 1036.8 512.64 
L 1036.8 69.12 
L 144 69.12 
z
" style="fill: #ffffff"/>
   </g>
   <g id="PathCollection_1">
    <path d="M 184.581818 496.015534 
C 185.519453 496.015534 186.41881 495.643008 187.081818 494.98 
C 187.744826 494.316992 188.117352 493.417635 188.117352 492.48 
C 188.117352 491.542365 187.744826 490.643008 187.081818 489.98 
C 186.41881 489.316992 185.519453 488.944466 184.581818 488.944466 
C 183.644184 488.944466 182.744826 489.316992 182.081818 489.98 
C 181.41881 490.643008 181.046284 491.542365 181.046284 492.48 
C 181.046284 493.417635 181.41881 494.316992 182.081818 494.98 
C 182.744826 495.643008 183.644184 496.015534 184.581818 496.015534 
z
" clip-path="url(#p07e1b861a5)" style="fill: #1f77b4; fill-opacity: 0.3; stroke: #1f77b4; stroke-opacity: 0.3"/>
    <path d="M 193.216248 486.710303 
C 195.091517 486.710303 196.890232 485.965251 198.216248 484.639236 
C 199.542263 483.31322 200.287315 481.514505 200.287315 479.639236 
C 200.287315 477.763967 199.542263 475.965251 198.216248 474.639236 
C 196.890232 473.31322 195.091517 472.568168 193.216248 472.568168 
C 191.340978 472.568168 189.542263 473.31322 188.216248 474.639236 
C 186.890232 475.965251 186.14518 477.763967 186.14518 479.639236 
C 186.14518 481.514505 186.890232 483.31322 188.216248 484.639236 
C 189.542263 485.965251 191.340978 486.710303 193.216248 486.710303 
z
" clip-path="url(#p07e1b861a5)" style="fill: #1f77b4; fill-opacity: 0.3; stroke: #1f77b4; stroke-opacity: 0.3"/>
    <path d="M 201.850677 471.0085 
C 203.988813 471.0085 206.039664 470.159009 207.551554 468.647119 
C 209.063444 467.135229 209.912935 465.084378 209.912935 462.946242 
C 209.912935 460.808106 209.063444 458.757255 207.551554 457.245365 
C 206.039664 455.733475 203.988813 454.883984 201.850677 454.883984 
C 199.712541 454.883984 197.66169 455.733475 196.1498 457.245365 
C 194.63791 458.757255 193.788419 460.808106 193.788419 462.946242 
C 193.788419 465.084378 194.63791 467.135229 196.1498 468.647119 
C 197.66169 470.159009 199.712541 471.0085 201.850677 471.0085 
z
" clip-path="url(#p07e1b861a5)" style="fill: #1f77b4; fill-opacity: 0.3; stroke: #1f77b4; stroke-opacity: 0.3"/>
    <path d="M 210.485106 463.885343 
C 210.904429 463.885343 211.306634 463.718744 211.60314 463.422238 
C 211.899646 463.125732 212.066245 462.723527 212.066245 462.304204 
C 212.066245 461.884881 211.899646 461.482676 211.60314 461.18617 
C 211.306634 460.889664 210.904429 460.723065 210.485106 460.723065 
C 210.065783 460.723065 209.663578 460.889664 209.367072 461.18617 
C 209.070566 461.482676 208.903968 461.884881 208.903968 462.304204 
C 208.903968 462.723527 209.070566 463.125732 209.367072 463.422238 
C 209.663578 463.718744 210.065783 463.885343 210.485106 463.885343 
z
" clip-path="url(#p07e1b861a5)" style="fill: #1f77b4; fill-opacity: 0.3; stroke: #1f77b4; stroke-opacity: 0.3"/>
    <path d="M 219.119536 460.883822 
C 220.445551 460.883822 221.717435 460.35699 222.65507 459.419356 
C 223.592704 458.481721 224.119536 457.209837 224.119536 455.883822 
C 224.119536 454.557806 223.592704 453.285922 222.65507 452.348288 
C 221.717435 451.410653 220.445551 450.883822 219.119536 450.883822 
C 217.79352 450.883822 216.521636 451.410653 215.584002 452.348288 
C 214.646367 453.285922 214.119536 454.557806 214.119536 455.883822 
C 214.119536 457.209837 214.646367 458.481721 215.584002 459.419356 
C 216.521636 460.35699 217.79352 460.883822 219.119536 460.883822 
z
" clip-path="url(#p07e1b861a5)" style="fill: #1f77b4; fill-opacity: 0.3; stroke: #1f77b4; stroke-opacity: 0.3"/>
    <path d="M 236.388395 456.209164 
C 237.326029 456.209164 238.225387 455.836638 238.888395 455.173631 
C 239.551402 454.510623 239.923928 453.611265 239.923928 452.673631 
C 239.923928 451.735996 239.551402 450.836638 238.888395 450.173631 
C 238.225387 449.510623 237.326029 449.138097 236.388395 449.138097 
C 235.45076 449.138097 234.551402 449.510623 233.888395 450.173631 
C 233.225387 450.836638 232.852861 451.735996 232.852861 452.673631 
C 232.852861 453.611265 233.225387 454.510623 233.888395 455.173631 
C 234.551402 455.836638 235.45076 456.209164 236.388395 456.209164 
z
" clip-path="url(#p07e1b861a5)" style="fill: #1f77b4; fill-opacity: 0.3; stroke: #1f77b4; stroke-opacity: 0.3"/>
    <path d="M 245.022824 453.267755 
C 245.86147 453.267755 246.66588 452.934558 247.258892 452.341546 
C 247.851904 451.748534 248.185102 450.944124 248.185102 450.105478 
C 248.185102 449.266832 247.851904 448.462422 247.258892 447.86941 
C 246.66588 447.276398 245.86147 446.9432 245.022824 446.9432 
C 244.184178 446.9432 243.379768 447.276398 242.786756 447.86941 
C 242.193744 448.462422 241.860546 449.266832 241.860546 450.105478 
C 241.860546 450.944124 242.193744 451.748534 242.786756 452.341546 
C 243.379768 452.934558 244.184178 453.267755 245.022824 453.267755 
z
" clip-path="url(#p07e1b861a5)" style="fill: #1f77b4; fill-opacity: 0.3; stroke: #1f77b4; stroke-opacity: 0.3"/>
    <path d="M 253.657253 450.917976 
C 254.383542 450.917976 255.080181 450.629418 255.593745 450.115855 
C 256.107309 449.602291 256.395866 448.905652 256.395866 448.179363 
C 256.395866 447.453074 256.107309 446.756435 255.593745 446.242871 
C 255.080181 445.729308 254.383542 445.44075 253.657253 445.44075 
C 252.930965 445.44075 252.234325 445.729308 251.720762 446.242871 
C 251.207198 446.756435 250.918641 447.453074 250.918641 448.179363 
C 250.918641 448.905652 251.207198 449.602291 251.720762 450.115855 
C 252.234325 450.629418 252.930965 450.917976 253.657253 450.917976 
z
" clip-path="url(#p07e1b861a5)" style="fill: #1f77b4; fill-opacity: 0.3; stroke: #1f77b4; stroke-opacity: 0.3"/>
    <path d="M 262.291683 448.773488 
C 263.130329 448.773488 263.934739 448.44029 264.527751 447.847278 
C 265.120763 447.254266 265.45396 446.449856 265.45396 445.61121 
C 265.45396 444.772564 265.120763 443.968154 264.527751 443.375142 
C 263.934739 442.78213 263.130329 442.448933 262.291683 442.448933 
C 261.453037 442.448933 260.648627 442.78213 260.055615 443.375142 
C 259.462603 443.968154 259.129405 444.772564 259.129405 445.61121 
C 259.129405 446.449856 259.462603 447.254266 260.055615 447.847278 
C 260.648627 448.44029 261.453037 448.773488 262.291683 448.773488 
z
" clip-path="url(#p07e1b861a5)" style="fill: #1f77b4; fill-opacity: 0.3; stroke: #1f77b4; stroke-opacity: 0.3"/>
    <path d="M 270.926112 445.631964 
C 271.953239 445.631964 272.938436 445.223882 273.664725 444.497594 
C 274.391014 443.771305 274.799096 442.786108 274.799096 441.758981 
C 274.799096 440.731854 274.391014 439.746657 273.664725 439.020368 
C 272.938436 438.29408 271.953239 437.885998 270.926112 437.885998 
C 269.898985 437.885998 268.913788 438.29408 268.187499 439.020368 
C 267.461211 439.746657 267.053129 440.731854 267.053129 441.758981 
C 267.053129 442.786108 267.461211 443.771305 268.187499 444.497594 
C 268.913788 445.223882 269.898985 445.631964 270.926112 445.631964 
z
" clip-path="url(#p07e1b861a5)" style="fill: #1f77b4; fill-opacity: 0.3; stroke: #1f77b4; stroke-opacity: 0.3"/>
    <path d="M 279.560542 437.810925 
C 281.237833 437.810925 282.846653 437.14453 284.032678 435.958505 
C 285.218702 434.772481 285.885097 433.163661 285.885097 431.486369 
C 285.885097 429.809078 285.218702 428.200258 284.032678 427.014233 
C 282.846653 425.828209 281.237833 425.161814 279.560542 425.161814 
C 277.88325 425.161814 276.27443 425.828209 275.088406 427.014233 
C 273.902381 428.200258 273.235986 429.809078 273.235986 431.486369 
C 273.235986 433.163661 273.902381 434.772481 275.088406 435.958505 
C 276.27443 437.14453 277.88325 437.810925 279.560542 437.810925 
z
" clip-path="url(#p07e1b861a5)" style="fill: #1f77b4; fill-opacity: 0.3; stroke: #1f77b4; stroke-opacity: 0.3"/>
    <path d="M 288.194971 432.298868 
C 288.92126 432.298868 289.617899 432.01031 290.131463 431.496746 
C 290.645026 430.983183 290.933584 430.286543 290.933584 429.560255 
C 290.933584 428.833966 290.645026 428.137327 290.131463 427.623763 
C 289.617899 427.1102 288.92126 426.821642 288.194971 426.821642 
C 287.468682 426.821642 286.772043 427.1102 286.258479 427.623763 
C 285.744916 428.137327 285.456358 428.833966 285.456358 429.560255 
C 285.456358 430.286543 285.744916 430.983183 286.258479 431.496746 
C 286.772043 432.01031 287.468682 432.298868 288.194971 432.298868 
z
" clip-path="url(#p07e1b861a5)" style="fill: #1f77b4; fill-opacity: 0.3; stroke: #1f77b4; stroke-opacity: 0.3"/>
    <path d="M 296.8294 430.372753 
C 297.555689 430.372753 298.252328 430.084195 298.765892 429.570632 
C 299.279456 429.057068 299.568013 428.360429 299.568013 427.63414 
C 299.568013 426.907852 299.279456 426.211212 298.765892 425.697648 
C 298.252328 425.184085 297.555689 424.895527 296.8294 424.895527 
C 296.103112 424.895527 295.406472 425.184085 294.892909 425.697648 
C 294.379345 426.211212 294.090788 426.907852 294.090788 427.63414 
C 294.090788 428.360429 294.379345 429.057068 294.892909 429.570632 
C 295.406472 430.084195 296.103112 430.372753 296.8294 430.372753 
z
" clip-path="url(#p07e1b861a5)" style="fill: #1f77b4; fill-opacity: 0.3; stroke: #1f77b4; stroke-opacity: 0.3"/>
    <path d="M 305.46383 424.127291 
C 307.08786 424.127291 308.645594 423.482057 309.793957 422.333694 
C 310.94232 421.185331 311.587554 419.627598 311.587554 418.003567 
C 311.587554 416.379536 310.94232 414.821803 309.793957 413.67344 
C 308.645594 412.525077 307.08786 411.879843 305.46383 411.879843 
C 303.839799 411.879843 302.282066 412.525077 301.133703 413.67344 
C 299.98534 414.821803 299.340105 416.379536 299.340105 418.003567 
C 299.340105 419.627598 299.98534 421.185331 301.133703 422.333694 
C 302.282066 423.482057 303.839799 424.127291 305.46383 424.127291 
z
" clip-path="url(#p07e1b861a5)" style="fill: #1f77b4; fill-opacity: 0.3; stroke: #1f77b4; stroke-opacity: 0.3"/>
    <path d="M 314.098259 418.816065 
C 314.824548 418.816065 315.521187 418.527507 316.034751 418.013944 
C 316.548314 417.50038 316.836872 416.803741 316.836872 416.077452 
C 316.836872 415.351164 316.548314 414.654524 316.034751 414.140961 
C 315.521187 413.627397 314.824548 413.338839 314.098259 413.338839 
C 313.371971 413.338839 312.675331 413.627397 312.161768 414.140961 
C 311.648204 414.654524 311.359646 415.351164 311.359646 416.077452 
C 311.359646 416.803741 311.648204 417.50038 312.161768 418.013944 
C 312.675331 418.527507 313.371971 418.816065 314.098259 418.816065 
z
" clip-path="url(#p07e1b861a5)" style="fill: #1f77b4; fill-opacity: 0.3; stroke: #1f77b4; stroke-opacity: 0.3"/>
    <path d="M 322.732689 413.850219 
C 324.185266 413.850219 325.578545 413.273104 326.605672 412.245977 
C 327.632799 411.21885 328.209914 409.825571 328.209914 408.372994 
C 328.209914 406.920416 327.632799 405.527137 326.605672 404.50001 
C 325.578545 403.472883 324.185266 402.895768 322.732689 402.895768 
C 321.280111 402.895768 319.886832 403.472883 318.859705 404.50001 
C 317.832578 405.527137 317.255463 406.920416 317.255463 408.372994 
C 317.255463 409.825571 317.832578 411.21885 318.859705 412.245977 
C 319.886832 413.273104 321.280111 413.850219 322.732689 413.850219 
z
" clip-path="url(#p07e1b861a5)" style="fill: #1f77b4; fill-opacity: 0.3; stroke: #1f77b4; stroke-opacity: 0.3"/>
    <path d="M 331.367118 408.698336 
C 332.304753 408.698336 333.20411 408.32581 333.867118 407.662803 
C 334.530126 406.999795 334.902652 406.100437 334.902652 405.162803 
C 334.902652 404.225168 334.530126 403.32581 333.867118 402.662803 
C 333.20411 401.999795 332.304753 401.627269 331.367118 401.627269 
C 330.429483 401.627269 329.530126 401.999795 328.867118 402.662803 
C 328.20411 403.32581 327.831584 404.225168 327.831584 405.162803 
C 327.831584 406.100437 328.20411 406.999795 328.867118 407.662803 
C 329.530126 408.32581 330.429483 408.698336 331.367118 408.698336 
z
" clip-path="url(#p07e1b861a5)" style="fill: #1f77b4; fill-opacity: 0.3; stroke: #1f77b4; stroke-opacity: 0.3"/>
    <path d="M 340.001547 405.183557 
C 341.028675 405.183557 342.013872 404.775475 342.74016 404.049186 
C 343.466449 403.322897 343.874531 402.3377 343.874531 401.310573 
C 343.874531 400.283446 343.466449 399.298249 342.74016 398.57196 
C 342.013872 397.845672 341.028675 397.43759 340.001547 397.43759 
C 338.97442 397.43759 337.989223 397.845672 337.262935 398.57196 
C 336.536646 399.298249 336.128564 400.283446 336.128564 401.310573 
C 336.128564 402.3377 336.536646 403.322897 337.262935 404.049186 
C 337.989223 404.775475 338.97442 405.183557 340.001547 405.183557 
z
" clip-path="url(#p07e1b861a5)" style="fill: #1f77b4; fill-opacity: 0.3; stroke: #1f77b4; stroke-opacity: 0.3"/>
    <path d="M 348.635977 402.123071 
C 349.362265 402.123071 350.058905 401.834514 350.572468 401.32095 
C 351.086032 400.807387 351.37459 400.110747 351.37459 399.384459 
C 351.37459 398.65817 351.086032 397.961531 350.572468 397.447967 
C 350.058905 396.934403 349.362265 396.645846 348.635977 396.645846 
C 347.909688 396.645846 347.213049 396.934403 346.699485 397.447967 
C 346.185922 397.961531 345.897364 398.65817 345.897364 399.384459 
C 345.897364 400.110747 346.185922 400.807387 346.699485 401.32095 
C 347.213049 401.834514 347.909688 402.123071 348.635977 402.123071 
z
" clip-path="url(#p07e1b861a5)" style="fill: #1f77b4; fill-opacity: 0.3; stroke: #1f77b4; stroke-opacity: 0.3"/>
    <path d="M 357.270406 400.196957 
C 357.996695 400.196957 358.693334 399.908399 359.206898 399.394836 
C 359.720461 398.881272 360.009019 398.184633 360.009019 397.458344 
C 360.009019 396.732055 359.720461 396.035416 359.206898 395.521852 
C 358.693334 395.008289 357.996695 394.719731 357.270406 394.719731 
C 356.544118 394.719731 355.847478 395.008289 355.333915 395.521852 
C 354.820351 396.035416 354.531793 396.732055 354.531793 397.458344 
C 354.531793 398.184633 354.820351 398.881272 355.333915 399.394836 
C 355.847478 399.908399 356.544118 400.196957 357.270406 400.196957 
z
" clip-path="url(#p07e1b861a5)" style="fill: #1f77b4; fill-opacity: 0.3; stroke: #1f77b4; stroke-opacity: 0.3"/>
    <path d="M 365.904836 397.783687 
C 366.84247 397.783687 367.741828 397.411161 368.404836 396.748153 
C 369.067843 396.085145 369.440369 395.185787 369.440369 394.248153 
C 369.440369 393.310518 369.067843 392.411161 368.404836 391.748153 
C 367.741828 391.085145 366.84247 390.712619 365.904836 390.712619 
C 364.967201 390.712619 364.067843 391.085145 363.404836 391.748153 
C 362.741828 392.411161 362.369302 393.310518 362.369302 394.248153 
C 362.369302 395.185787 362.741828 396.085145 363.404836 396.748153 
C 364.067843 397.411161 364.967201 397.783687 365.904836 397.783687 
z
" clip-path="url(#p07e1b861a5)" style="fill: #1f77b4; fill-opacity: 0.3; stroke: #1f77b4; stroke-opacity: 0.3"/>
    <path d="M 374.539265 394.573496 
C 375.4769 394.573496 376.376257 394.20097 377.039265 393.537962 
C 377.702273 392.874954 378.074799 391.975596 378.074799 391.037962 
C 378.074799 390.100327 377.702273 389.20097 377.039265 388.537962 
C 376.376257 387.874954 375.4769 387.502428 374.539265 387.502428 
C 373.60163 387.502428 372.702273 387.874954 372.039265 388.537962 
C 371.376257 389.20097 371.003731 390.100327 371.003731 391.037962 
C 371.003731 391.975596 371.376257 392.874954 372.039265 393.537962 
C 372.702273 394.20097 373.60163 394.573496 374.539265 394.573496 
z
" clip-path="url(#p07e1b861a5)" style="fill: #1f77b4; fill-opacity: 0.3; stroke: #1f77b4; stroke-opacity: 0.3"/>
    <path d="M 383.173694 391.632087 
C 384.01234 391.632087 384.81675 391.298889 385.409762 390.705877 
C 386.002775 390.112865 386.335972 389.308455 386.335972 388.469809 
C 386.335972 387.631163 386.002775 386.826753 385.409762 386.233741 
C 384.81675 385.640729 384.01234 385.307531 383.173694 385.307531 
C 382.335049 385.307531 381.530639 385.640729 380.937626 386.233741 
C 380.344614 386.826753 380.011417 387.631163 380.011417 388.469809 
C 380.011417 389.308455 380.344614 390.112865 380.937626 390.705877 
C 381.530639 391.298889 382.335049 391.632087 383.173694 391.632087 
z
" clip-path="url(#p07e1b861a5)" style="fill: #1f77b4; fill-opacity: 0.3; stroke: #1f77b4; stroke-opacity: 0.3"/>
    <path d="M 391.808124 389.4218 
C 392.401136 389.4218 392.96994 389.186194 393.389263 388.766871 
C 393.808586 388.347548 394.044192 387.778745 394.044192 387.185732 
C 394.044192 386.59272 393.808586 386.023917 393.389263 385.604594 
C 392.96994 385.185271 392.401136 384.949665 391.808124 384.949665 
C 391.215112 384.949665 390.646308 385.185271 390.226985 385.604594 
C 389.807662 386.023917 389.572056 386.59272 389.572056 387.185732 
C 389.572056 387.778745 389.807662 388.347548 390.226985 388.766871 
C 390.646308 389.186194 391.215112 389.4218 391.808124 389.4218 
z
" clip-path="url(#p07e1b861a5)" style="fill: #1f77b4; fill-opacity: 0.3; stroke: #1f77b4; stroke-opacity: 0.3"/>
    <path d="M 400.442553 387.206487 
C 401.46968 387.206487 402.454877 386.798405 403.181166 386.072116 
C 403.907455 385.345827 404.315537 384.36063 404.315537 383.333503 
C 404.315537 382.306376 403.907455 381.321179 403.181166 380.59489 
C 402.454877 379.868602 401.46968 379.46052 400.442553 379.46052 
C 399.415426 379.46052 398.430229 379.868602 397.70394 380.59489 
C 396.977652 381.321179 396.56957 382.306376 396.56957 383.333503 
C 396.56957 384.36063 396.977652 385.345827 397.70394 386.072116 
C 398.430229 386.798405 399.415426 387.206487 400.442553 387.206487 
z
" clip-path="url(#p07e1b861a5)" style="fill: #1f77b4; fill-opacity: 0.3; stroke: #1f77b4; stroke-opacity: 0.3"/>
    <path d="M 409.076983 384.285495 
C 409.669995 384.285495 410.238799 384.049889 410.658121 383.630566 
C 411.077444 383.211243 411.313051 382.642439 411.313051 382.049427 
C 411.313051 381.456415 411.077444 380.887611 410.658121 380.468288 
C 410.238799 380.048965 409.669995 379.813359 409.076983 379.813359 
C 408.48397 379.813359 407.915167 380.048965 407.495844 380.468288 
C 407.076521 380.887611 406.840915 381.456415 406.840915 382.049427 
C 406.840915 382.642439 407.076521 383.211243 407.495844 383.630566 
C 407.915167 384.049889 408.48397 384.285495 409.076983 384.285495 
z
" clip-path="url(#p07e1b861a5)" style="fill: #1f77b4; fill-opacity: 0.3; stroke: #1f77b4; stroke-opacity: 0.3"/>
    <path d="M 426.345841 380.629045 
C 427.671857 380.629045 428.943741 380.102213 429.881375 379.164578 
C 430.81901 378.226944 431.345841 376.95506 431.345841 375.629045 
C 431.345841 374.303029 430.81901 373.031145 429.881375 372.093511 
C 428.943741 371.155876 427.671857 370.629045 426.345841 370.629045 
C 425.019826 370.629045 423.747942 371.155876 422.810307 372.093511 
C 421.872673 373.031145 421.345841 374.303029 421.345841 375.629045 
C 421.345841 376.95506 421.872673 378.226944 422.810307 379.164578 
C 423.747942 380.102213 425.019826 380.629045 426.345841 380.629045 
z
" clip-path="url(#p07e1b861a5)" style="fill: #1f77b4; fill-opacity: 0.3; stroke: #1f77b4; stroke-opacity: 0.3"/>
    <path d="M 434.980271 376.568145 
C 435.399594 376.568145 435.801799 376.401546 436.098305 376.10504 
C 436.394811 375.808534 436.56141 375.406329 436.56141 374.987006 
C 436.56141 374.567683 436.394811 374.165478 436.098305 373.868972 
C 435.801799 373.572466 435.399594 373.405868 434.980271 373.405868 
C 434.560948 373.405868 434.158743 373.572466 433.862237 373.868972 
C 433.565731 374.165478 433.399132 374.567683 433.399132 374.987006 
C 433.399132 375.406329 433.565731 375.808534 433.862237 376.10504 
C 434.158743 376.401546 434.560948 376.568145 434.980271 376.568145 
z
" clip-path="url(#p07e1b861a5)" style="fill: #1f77b4; fill-opacity: 0.3; stroke: #1f77b4; stroke-opacity: 0.3"/>
    <path d="M 443.6147 375.00776 
C 444.641827 375.00776 445.627024 374.599678 446.353313 373.87339 
C 447.079602 373.147101 447.487684 372.161904 447.487684 371.134777 
C 447.487684 370.10765 447.079602 369.122453 446.353313 368.396164 
C 445.627024 367.669876 444.641827 367.261794 443.6147 367.261794 
C 442.587573 367.261794 441.602376 367.669876 440.876087 368.396164 
C 440.149799 369.122453 439.741717 370.10765 439.741717 371.134777 
C 439.741717 372.161904 440.149799 373.147101 440.876087 373.87339 
C 441.602376 374.599678 442.587573 375.00776 443.6147 375.00776 
z
" clip-path="url(#p07e1b861a5)" style="fill: #1f77b4; fill-opacity: 0.3; stroke: #1f77b4; stroke-opacity: 0.3"/>
    <path d="M 452.24913 368.062322 
C 453.818092 368.062322 455.323006 367.438966 456.43243 366.329542 
C 457.541854 365.220118 458.165209 363.715205 458.165209 362.146242 
C 458.165209 360.577279 457.541854 359.072366 456.43243 357.962942 
C 455.323006 356.853518 453.818092 356.230162 452.24913 356.230162 
C 450.680167 356.230162 449.175254 356.853518 448.065829 357.962942 
C 446.956405 359.072366 446.33305 360.577279 446.33305 362.146242 
C 446.33305 363.715205 446.956405 365.220118 448.065829 366.329542 
C 449.175254 367.438966 450.680167 368.062322 452.24913 368.062322 
z
" clip-path="url(#p07e1b861a5)" style="fill: #1f77b4; fill-opacity: 0.3; stroke: #1f77b4; stroke-opacity: 0.3"/>
    <path d="M 460.883559 358.639393 
C 462.50759 358.639393 464.065323 357.994159 465.213686 356.845796 
C 466.362049 355.697433 467.007283 354.139699 467.007283 352.515669 
C 467.007283 350.891638 466.362049 349.333905 465.213686 348.185542 
C 464.065323 347.037179 462.50759 346.391944 460.883559 346.391944 
C 459.259528 346.391944 457.701795 347.037179 456.553432 348.185542 
C 455.405069 349.333905 454.759835 350.891638 454.759835 352.515669 
C 454.759835 354.139699 455.405069 355.697433 456.553432 356.845796 
C 457.701795 357.994159 459.259528 358.639393 460.883559 358.639393 
z
" clip-path="url(#p07e1b861a5)" style="fill: #1f77b4; fill-opacity: 0.3; stroke: #1f77b4; stroke-opacity: 0.3"/>
    <path d="M 469.517988 353.328167 
C 470.244277 353.328167 470.940916 353.039609 471.45448 352.526046 
C 471.968044 352.012482 472.256601 351.315843 472.256601 350.589554 
C 472.256601 349.863266 471.968044 349.166626 471.45448 348.653062 
C 470.940916 348.139499 470.244277 347.850941 469.517988 347.850941 
C 468.7917 347.850941 468.09506 348.139499 467.581497 348.653062 
C 467.067933 349.166626 466.779376 349.863266 466.779376 350.589554 
C 466.779376 351.315843 467.067933 352.012482 467.581497 352.526046 
C 468.09506 353.039609 468.7917 353.328167 469.517988 353.328167 
z
" clip-path="url(#p07e1b861a5)" style="fill: #1f77b4; fill-opacity: 0.3; stroke: #1f77b4; stroke-opacity: 0.3"/>
    <path d="M 486.786847 351.183679 
C 487.625493 351.183679 488.429903 350.850481 489.022915 350.257469 
C 489.615927 349.664457 489.949125 348.860047 489.949125 348.021401 
C 489.949125 347.182755 489.615927 346.378345 489.022915 345.785333 
C 488.429903 345.192321 487.625493 344.859124 486.786847 344.859124 
C 485.948201 344.859124 485.143791 345.192321 484.550779 345.785333 
C 483.957767 346.378345 483.62457 347.182755 483.62457 348.021401 
C 483.62457 348.860047 483.957767 349.664457 484.550779 350.257469 
C 485.143791 350.850481 485.948201 351.183679 486.786847 351.183679 
z
" clip-path="url(#p07e1b861a5)" style="fill: #1f77b4; fill-opacity: 0.3; stroke: #1f77b4; stroke-opacity: 0.3"/>
    <path d="M 495.421277 344.073345 
C 497.098568 344.073345 498.707388 343.40695 499.893413 342.220926 
C 501.079437 341.034901 501.745832 339.426081 501.745832 337.74879 
C 501.745832 336.071498 501.079437 334.462678 499.893413 333.276654 
C 498.707388 332.09063 497.098568 331.424234 495.421277 331.424234 
C 493.743985 331.424234 492.135165 332.09063 490.949141 333.276654 
C 489.763116 334.462678 489.096721 336.071498 489.096721 337.74879 
C 489.096721 339.426081 489.763116 341.034901 490.949141 342.220926 
C 492.135165 343.40695 493.743985 344.073345 495.421277 344.073345 
z
" clip-path="url(#p07e1b861a5)" style="fill: #1f77b4; fill-opacity: 0.3; stroke: #1f77b4; stroke-opacity: 0.3"/>
    <path d="M 504.055706 338.68789 
C 504.475029 338.68789 504.877234 338.521292 505.17374 338.224786 
C 505.470246 337.92828 505.636845 337.526075 505.636845 337.106752 
C 505.636845 336.687429 505.470246 336.285224 505.17374 335.988718 
C 504.877234 335.692212 504.475029 335.525613 504.055706 335.525613 
C 503.636383 335.525613 503.234178 335.692212 502.937672 335.988718 
C 502.641166 336.285224 502.474567 336.687429 502.474567 337.106752 
C 502.474567 337.526075 502.641166 337.92828 502.937672 338.224786 
C 503.234178 338.521292 503.636383 338.68789 504.055706 338.68789 
z
" clip-path="url(#p07e1b861a5)" style="fill: #1f77b4; fill-opacity: 0.3; stroke: #1f77b4; stroke-opacity: 0.3"/>
    <path d="M 512.690135 337.700876 
C 513.528781 337.700876 514.333191 337.367679 514.926203 336.774667 
C 515.519216 336.181655 515.852413 335.377245 515.852413 334.538599 
C 515.852413 333.699953 515.519216 332.895543 514.926203 332.302531 
C 514.333191 331.709519 513.528781 331.376321 512.690135 331.376321 
C 511.85149 331.376321 511.04708 331.709519 510.454067 332.302531 
C 509.861055 332.895543 509.527858 333.699953 509.527858 334.538599 
C 509.527858 335.377245 509.861055 336.181655 510.454067 336.774667 
C 511.04708 337.367679 511.85149 337.700876 512.690135 337.700876 
z
" clip-path="url(#p07e1b861a5)" style="fill: #1f77b4; fill-opacity: 0.3; stroke: #1f77b4; stroke-opacity: 0.3"/>
    <path d="M 521.324565 335.351097 
C 522.050853 335.351097 522.747493 335.062539 523.261056 334.548976 
C 523.77462 334.035412 524.063178 333.338773 524.063178 332.612484 
C 524.063178 331.886195 523.77462 331.189556 523.261056 330.675992 
C 522.747493 330.162429 522.050853 329.873871 521.324565 329.873871 
C 520.598276 329.873871 519.901637 330.162429 519.388073 330.675992 
C 518.87451 331.189556 518.585952 331.886195 518.585952 332.612484 
C 518.585952 333.338773 518.87451 334.035412 519.388073 334.548976 
C 519.901637 335.062539 520.598276 335.351097 521.324565 335.351097 
z
" clip-path="url(#p07e1b861a5)" style="fill: #1f77b4; fill-opacity: 0.3; stroke: #1f77b4; stroke-opacity: 0.3"/>
    <path d="M 529.958994 333.424982 
C 530.685283 333.424982 531.381922 333.136425 531.895486 332.622861 
C 532.409049 332.109298 532.697607 331.412658 532.697607 330.686369 
C 532.697607 329.960081 532.409049 329.263441 531.895486 328.749878 
C 531.381922 328.236314 530.685283 327.947757 529.958994 327.947757 
C 529.232706 327.947757 528.536066 328.236314 528.022503 328.749878 
C 527.508939 329.263441 527.220381 329.960081 527.220381 330.686369 
C 527.220381 331.412658 527.508939 332.109298 528.022503 332.622861 
C 528.536066 333.136425 529.232706 333.424982 529.958994 333.424982 
z
" clip-path="url(#p07e1b861a5)" style="fill: #1f77b4; fill-opacity: 0.3; stroke: #1f77b4; stroke-opacity: 0.3"/>
    <path d="M 538.593424 325.837885 
C 540.37246 325.837885 542.078871 325.131067 543.33684 323.873098 
C 544.594809 322.615129 545.301628 320.908718 545.301628 319.129682 
C 545.301628 317.350645 544.594809 315.644234 543.33684 314.386265 
C 542.078871 313.128296 540.37246 312.421478 538.593424 312.421478 
C 536.814387 312.421478 535.107976 313.128296 533.850007 314.386265 
C 532.592038 315.644234 531.88522 317.350645 531.88522 319.129682 
C 531.88522 320.908718 532.592038 322.615129 533.850007 323.873098 
C 535.107976 325.131067 536.814387 325.837885 538.593424 325.837885 
z
" clip-path="url(#p07e1b861a5)" style="fill: #1f77b4; fill-opacity: 0.3; stroke: #1f77b4; stroke-opacity: 0.3"/>
    <path d="M 547.227853 319.94218 
C 547.954142 319.94218 548.650781 319.653622 549.164345 319.140059 
C 549.677908 318.626495 549.966466 317.929855 549.966466 317.203567 
C 549.966466 316.477278 549.677908 315.780639 549.164345 315.267075 
C 548.650781 314.753512 547.954142 314.464954 547.227853 314.464954 
C 546.501564 314.464954 545.804925 314.753512 545.291361 315.267075 
C 544.777798 315.780639 544.48924 316.477278 544.48924 317.203567 
C 544.48924 317.929855 544.777798 318.626495 545.291361 319.140059 
C 545.804925 319.653622 546.501564 319.94218 547.227853 319.94218 
z
" clip-path="url(#p07e1b861a5)" style="fill: #1f77b4; fill-opacity: 0.3; stroke: #1f77b4; stroke-opacity: 0.3"/>
    <path d="M 555.862282 317.797692 
C 556.700928 317.797692 557.505338 317.464494 558.09835 316.871482 
C 558.691363 316.27847 559.02456 315.47406 559.02456 314.635414 
C 559.02456 313.796768 558.691363 312.992358 558.09835 312.399346 
C 557.505338 311.806334 556.700928 311.473136 555.862282 311.473136 
C 555.023637 311.473136 554.219227 311.806334 553.626214 312.399346 
C 553.033202 312.992358 552.700005 313.796768 552.700005 314.635414 
C 552.700005 315.47406 553.033202 316.27847 553.626214 316.871482 
C 554.219227 317.464494 555.023637 317.797692 555.862282 317.797692 
z
" clip-path="url(#p07e1b861a5)" style="fill: #1f77b4; fill-opacity: 0.3; stroke: #1f77b4; stroke-opacity: 0.3"/>
    <path d="M 564.496712 315.447912 
C 565.223 315.447912 565.91964 315.159355 566.433203 314.645791 
C 566.946767 314.132227 567.235325 313.435588 567.235325 312.709299 
C 567.235325 311.983011 566.946767 311.286371 566.433203 310.772808 
C 565.91964 310.259244 565.223 309.970687 564.496712 309.970687 
C 563.770423 309.970687 563.073784 310.259244 562.56022 310.772808 
C 562.046657 311.286371 561.758099 311.983011 561.758099 312.709299 
C 561.758099 313.435588 562.046657 314.132227 562.56022 314.645791 
C 563.073784 315.159355 563.770423 315.447912 564.496712 315.447912 
z
" clip-path="url(#p07e1b861a5)" style="fill: #1f77b4; fill-opacity: 0.3; stroke: #1f77b4; stroke-opacity: 0.3"/>
    <path d="M 573.131141 313.034642 
C 574.068776 313.034642 574.968133 312.662116 575.631141 311.999108 
C 576.294149 311.336101 576.666675 310.436743 576.666675 309.499108 
C 576.666675 308.561474 576.294149 307.662116 575.631141 306.999108 
C 574.968133 306.336101 574.068776 305.963574 573.131141 305.963574 
C 572.193507 305.963574 571.294149 306.336101 570.631141 306.999108 
C 569.968133 307.662116 569.595607 308.561474 569.595607 309.499108 
C 569.595607 310.436743 569.968133 311.336101 570.631141 311.999108 
C 571.294149 312.662116 572.193507 313.034642 573.131141 313.034642 
z
" clip-path="url(#p07e1b861a5)" style="fill: #1f77b4; fill-opacity: 0.3; stroke: #1f77b4; stroke-opacity: 0.3"/>
    <path d="M 581.765571 303.729412 
C 583.64084 303.729412 585.439555 302.984359 586.765571 301.658344 
C 588.091586 300.332328 588.836638 298.533613 588.836638 296.658344 
C 588.836638 294.783075 588.091586 292.984359 586.765571 291.658344 
C 585.439555 290.332328 583.64084 289.587276 581.765571 289.587276 
C 579.890301 289.587276 578.091586 290.332328 576.765571 291.658344 
C 575.439555 292.984359 574.694503 294.783075 574.694503 296.658344 
C 574.694503 298.533613 575.439555 300.332328 576.765571 301.658344 
C 578.091586 302.984359 579.890301 303.729412 581.765571 303.729412 
z
" clip-path="url(#p07e1b861a5)" style="fill: #1f77b4; fill-opacity: 0.3; stroke: #1f77b4; stroke-opacity: 0.3"/>
    <path d="M 590.4 296.983687 
C 591.337635 296.983687 592.236992 296.611161 592.9 295.948153 
C 593.563008 295.285145 593.935534 294.385787 593.935534 293.448153 
C 593.935534 292.510518 593.563008 291.611161 592.9 290.948153 
C 592.236992 290.285145 591.337635 289.912619 590.4 289.912619 
C 589.462365 289.912619 588.563008 290.285145 587.9 290.948153 
C 587.236992 291.611161 586.864466 292.510518 586.864466 293.448153 
C 586.864466 294.385787 587.236992 295.285145 587.9 295.948153 
C 588.563008 296.611161 589.462365 296.983687 590.4 296.983687 
z
" clip-path="url(#p07e1b861a5)" style="fill: #1f77b4; fill-opacity: 0.3; stroke: #1f77b4; stroke-opacity: 0.3"/>
    <path d="M 599.034429 294.260651 
C 599.760718 294.260651 600.457357 293.972093 600.970921 293.45853 
C 601.484485 292.944966 601.773042 292.248327 601.773042 291.522038 
C 601.773042 290.79575 601.484485 290.09911 600.970921 289.585547 
C 600.457357 289.071983 599.760718 288.783425 599.034429 288.783425 
C 598.308141 288.783425 597.611501 289.071983 597.097938 289.585547 
C 596.584374 290.09911 596.295817 290.79575 596.295817 291.522038 
C 596.295817 292.248327 596.584374 292.944966 597.097938 293.45853 
C 597.611501 293.972093 598.308141 294.260651 599.034429 294.260651 
z
" clip-path="url(#p07e1b861a5)" style="fill: #1f77b4; fill-opacity: 0.3; stroke: #1f77b4; stroke-opacity: 0.3"/>
    <path d="M 607.668859 290.101656 
C 608.994874 290.101656 610.266758 289.574825 611.204393 288.63719 
C 612.142027 287.699555 612.668859 286.427672 612.668859 285.101656 
C 612.668859 283.775641 612.142027 282.503757 611.204393 281.566122 
C 610.266758 280.628488 608.994874 280.101656 607.668859 280.101656 
C 606.342843 280.101656 605.070959 280.628488 604.133325 281.566122 
C 603.19569 282.503757 602.668859 283.775641 602.668859 285.101656 
C 602.668859 286.427672 603.19569 287.699555 604.133325 288.63719 
C 605.070959 289.574825 606.342843 290.101656 607.668859 290.101656 
z
" clip-path="url(#p07e1b861a5)" style="fill: #1f77b4; fill-opacity: 0.3; stroke: #1f77b4; stroke-opacity: 0.3"/>
    <path d="M 616.303288 285.695781 
C 617.141934 285.695781 617.946344 285.362583 618.539356 284.769571 
C 619.132368 284.176559 619.465566 283.372149 619.465566 282.533503 
C 619.465566 281.694857 619.132368 280.890447 618.539356 280.297435 
C 617.946344 279.704423 617.141934 279.371226 616.303288 279.371226 
C 615.464642 279.371226 614.660232 279.704423 614.06722 280.297435 
C 613.474208 280.890447 613.141011 281.694857 613.141011 282.533503 
C 613.141011 283.372149 613.474208 284.176559 614.06722 284.769571 
C 614.660232 285.362583 615.464642 285.695781 616.303288 285.695781 
z
" clip-path="url(#p07e1b861a5)" style="fill: #1f77b4; fill-opacity: 0.3; stroke: #1f77b4; stroke-opacity: 0.3"/>
    <path d="M 624.937718 283.472604 
C 625.357041 283.472604 625.759246 283.306005 626.055752 283.009499 
C 626.352258 282.712993 626.518856 282.310788 626.518856 281.891465 
C 626.518856 281.472142 626.352258 281.069937 626.055752 280.773431 
C 625.759246 280.476925 625.357041 280.310326 624.937718 280.310326 
C 624.518395 280.310326 624.11619 280.476925 623.819684 280.773431 
C 623.523178 281.069937 623.356579 281.472142 623.356579 281.891465 
C 623.356579 282.310788 623.523178 282.712993 623.819684 283.009499 
C 624.11619 283.306005 624.518395 283.472604 624.937718 283.472604 
z
" clip-path="url(#p07e1b861a5)" style="fill: #1f77b4; fill-opacity: 0.3; stroke: #1f77b4; stroke-opacity: 0.3"/>
    <path d="M 633.572147 273.260729 
C 635.710283 273.260729 637.761134 272.411239 639.273024 270.899348 
C 640.784914 269.387458 641.634405 267.336607 641.634405 265.198471 
C 641.634405 263.060336 640.784914 261.009484 639.273024 259.497594 
C 637.761134 257.985704 635.710283 257.136214 633.572147 257.136214 
C 631.434011 257.136214 629.38316 257.985704 627.87127 259.497594 
C 626.35938 261.009484 625.509889 263.060336 625.509889 265.198471 
C 625.509889 267.336607 626.35938 269.387458 627.87127 270.899348 
C 629.38316 272.411239 631.434011 273.260729 633.572147 273.260729 
z
" clip-path="url(#p07e1b861a5)" style="fill: #1f77b4; fill-opacity: 0.3; stroke: #1f77b4; stroke-opacity: 0.3"/>
    <path d="M 642.206576 265.523814 
C 643.144211 265.523814 644.043569 265.151288 644.706576 264.48828 
C 645.369584 263.825273 645.74211 262.925915 645.74211 261.98828 
C 645.74211 261.050646 645.369584 260.151288 644.706576 259.48828 
C 644.043569 258.825273 643.144211 258.452746 642.206576 258.452746 
C 641.268942 258.452746 640.369584 258.825273 639.706576 259.48828 
C 639.043569 260.151288 638.671042 261.050646 638.671042 261.98828 
C 638.671042 262.925915 639.043569 263.825273 639.706576 264.48828 
C 640.369584 265.151288 641.268942 265.523814 642.206576 265.523814 
z
" clip-path="url(#p07e1b861a5)" style="fill: #1f77b4; fill-opacity: 0.3; stroke: #1f77b4; stroke-opacity: 0.3"/>
    <path d="M 650.841006 260.953353 
C 652.098975 260.953353 653.30559 260.453557 654.195108 259.564038 
C 655.084626 258.67452 655.584422 257.467905 655.584422 256.209936 
C 655.584422 254.951968 655.084626 253.745353 654.195108 252.855834 
C 653.30559 251.966316 652.098975 251.46652 650.841006 251.46652 
C 649.583037 251.46652 648.376422 251.966316 647.486904 252.855834 
C 646.597386 253.745353 646.097589 254.951968 646.097589 256.209936 
C 646.097589 257.467905 646.597386 258.67452 647.486904 259.564038 
C 648.376422 260.453557 649.583037 260.953353 650.841006 260.953353 
z
" clip-path="url(#p07e1b861a5)" style="fill: #1f77b4; fill-opacity: 0.3; stroke: #1f77b4; stroke-opacity: 0.3"/>
    <path d="M 659.475435 257.161928 
C 660.068447 257.161928 660.637251 256.926322 661.056574 256.506999 
C 661.475897 256.087676 661.711503 255.518872 661.711503 254.92586 
C 661.711503 254.332848 661.475897 253.764044 661.056574 253.344721 
C 660.637251 252.925398 660.068447 252.689792 659.475435 252.689792 
C 658.882423 252.689792 658.313619 252.925398 657.894296 253.344721 
C 657.474973 253.764044 657.239367 254.332848 657.239367 254.92586 
C 657.239367 255.518872 657.474973 256.087676 657.894296 256.506999 
C 658.313619 256.926322 658.882423 257.161928 659.475435 257.161928 
z
" clip-path="url(#p07e1b861a5)" style="fill: #1f77b4; fill-opacity: 0.3; stroke: #1f77b4; stroke-opacity: 0.3"/>
    <path d="M 668.109865 255.738358 
C 668.836153 255.738358 669.532793 255.4498 670.046356 254.936237 
C 670.55992 254.422673 670.848477 253.726034 670.848477 252.999745 
C 670.848477 252.273457 670.55992 251.576817 670.046356 251.063254 
C 669.532793 250.54969 668.836153 250.261132 668.109865 250.261132 
C 667.383576 250.261132 666.686937 250.54969 666.173373 251.063254 
C 665.659809 251.576817 665.371252 252.273457 665.371252 252.999745 
C 665.371252 253.726034 665.659809 254.422673 666.173373 254.936237 
C 666.686937 255.4498 667.383576 255.738358 668.109865 255.738358 
z
" clip-path="url(#p07e1b861a5)" style="fill: #1f77b4; fill-opacity: 0.3; stroke: #1f77b4; stroke-opacity: 0.3"/>
    <path d="M 676.744294 250.772512 
C 678.196871 250.772512 679.59015 250.195397 680.617277 249.16827 
C 681.644405 248.141143 682.22152 246.747864 682.22152 245.295287 
C 682.22152 243.842709 681.644405 242.44943 680.617277 241.422303 
C 679.59015 240.395176 678.196871 239.818061 676.744294 239.818061 
C 675.291717 239.818061 673.898438 240.395176 672.871311 241.422303 
C 671.844183 242.44943 671.267068 243.842709 671.267068 245.295287 
C 671.267068 246.747864 671.844183 248.141143 672.871311 249.16827 
C 673.898438 250.195397 675.291717 250.772512 676.744294 250.772512 
z
" clip-path="url(#p07e1b861a5)" style="fill: #1f77b4; fill-opacity: 0.3; stroke: #1f77b4; stroke-opacity: 0.3"/>
    <path d="M 685.378723 246.247278 
C 685.971736 246.247278 686.540539 246.011672 686.959862 245.592349 
C 687.379185 245.173026 687.614791 244.604222 687.614791 244.01121 
C 687.614791 243.418198 687.379185 242.849394 686.959862 242.430071 
C 686.540539 242.010748 685.971736 241.775142 685.378723 241.775142 
C 684.785711 241.775142 684.216907 242.010748 683.797585 242.430071 
C 683.378262 242.849394 683.142655 243.418198 683.142655 244.01121 
C 683.142655 244.604222 683.378262 245.173026 683.797585 245.592349 
C 684.216907 246.011672 684.785711 246.247278 685.378723 246.247278 
z
" clip-path="url(#p07e1b861a5)" style="fill: #1f77b4; fill-opacity: 0.3; stroke: #1f77b4; stroke-opacity: 0.3"/>
    <path d="M 694.013153 244.823708 
C 694.739441 244.823708 695.436081 244.535151 695.949644 244.021587 
C 696.463208 243.508024 696.751766 242.811384 696.751766 242.085096 
C 696.751766 241.358807 696.463208 240.662167 695.949644 240.148604 
C 695.436081 239.63504 694.739441 239.346483 694.013153 239.346483 
C 693.286864 239.346483 692.590225 239.63504 692.076661 240.148604 
C 691.563098 240.662167 691.27454 241.358807 691.27454 242.085096 
C 691.27454 242.811384 691.563098 243.508024 692.076661 244.021587 
C 692.590225 244.535151 693.286864 244.823708 694.013153 244.823708 
z
" clip-path="url(#p07e1b861a5)" style="fill: #1f77b4; fill-opacity: 0.3; stroke: #1f77b4; stroke-opacity: 0.3"/>
    <path d="M 702.647582 231.98068 
C 704.905705 231.98068 707.071645 231.083519 708.668379 229.486785 
C 710.265114 227.89005 711.162275 225.72411 711.162275 223.465987 
C 711.162275 221.207864 710.265114 219.041924 708.668379 217.44519 
C 707.071645 215.848456 704.905705 214.951294 702.647582 214.951294 
C 700.389459 214.951294 698.223519 215.848456 696.626785 217.44519 
C 695.030051 219.041924 694.132889 221.207864 694.132889 223.465987 
C 694.132889 225.72411 695.030051 227.89005 696.626785 229.486785 
C 698.223519 231.083519 700.389459 231.98068 702.647582 231.98068 
z
" clip-path="url(#p07e1b861a5)" style="fill: #1f77b4; fill-opacity: 0.3; stroke: #1f77b4; stroke-opacity: 0.3"/>
    <path d="M 711.282012 224.417979 
C 711.875024 224.417979 712.443828 224.182373 712.86315 223.76305 
C 713.282473 223.343727 713.51808 222.774923 713.51808 222.181911 
C 713.51808 221.588899 713.282473 221.020095 712.86315 220.600772 
C 712.443828 220.181449 711.875024 219.945843 711.282012 219.945843 
C 710.688999 219.945843 710.120196 220.181449 709.700873 220.600772 
C 709.28155 221.020095 709.045944 221.588899 709.045944 222.181911 
C 709.045944 222.774923 709.28155 223.343727 709.700873 223.76305 
C 710.120196 224.182373 710.688999 224.417979 711.282012 224.417979 
z
" clip-path="url(#p07e1b861a5)" style="fill: #1f77b4; fill-opacity: 0.3; stroke: #1f77b4; stroke-opacity: 0.3"/>
    <path d="M 719.916441 223.133902 
C 720.509453 223.133902 721.078257 222.898296 721.49758 222.478973 
C 721.916903 222.05965 722.152509 221.490847 722.152509 220.897834 
C 722.152509 220.304822 721.916903 219.736018 721.49758 219.316696 
C 721.078257 218.897373 720.509453 218.661766 719.916441 218.661766 
C 719.323429 218.661766 718.754625 218.897373 718.335302 219.316696 
C 717.915979 219.736018 717.680373 220.304822 717.680373 220.897834 
C 717.680373 221.490847 717.915979 222.05965 718.335302 222.478973 
C 718.754625 222.898296 719.323429 223.133902 719.916441 223.133902 
z
" clip-path="url(#p07e1b861a5)" style="fill: #1f77b4; fill-opacity: 0.3; stroke: #1f77b4; stroke-opacity: 0.3"/>
    <path d="M 728.55087 219.477452 
C 729.876886 219.477452 731.14877 218.950621 732.086404 218.012986 
C 733.024039 217.075352 733.55087 215.803468 733.55087 214.477452 
C 733.55087 213.151437 733.024039 211.879553 732.086404 210.941918 
C 731.14877 210.004284 729.876886 209.477452 728.55087 209.477452 
C 727.224855 209.477452 725.952971 210.004284 725.015337 210.941918 
C 724.077702 211.879553 723.55087 213.151437 723.55087 214.477452 
C 723.55087 215.803468 724.077702 217.075352 725.015337 218.012986 
C 725.952971 218.950621 727.224855 219.477452 728.55087 219.477452 
z
" clip-path="url(#p07e1b861a5)" style="fill: #1f77b4; fill-opacity: 0.3; stroke: #1f77b4; stroke-opacity: 0.3"/>
    <path d="M 737.1853 215.28995 
C 737.911588 215.28995 738.608228 215.001393 739.121791 214.487829 
C 739.635355 213.974266 739.923913 213.277626 739.923913 212.551338 
C 739.923913 211.825049 739.635355 211.12841 739.121791 210.614846 
C 738.608228 210.101282 737.911588 209.812725 737.1853 209.812725 
C 736.459011 209.812725 735.762372 210.101282 735.248808 210.614846 
C 734.735245 211.12841 734.446687 211.825049 734.446687 212.551338 
C 734.446687 213.277626 734.735245 213.974266 735.248808 214.487829 
C 735.762372 215.001393 736.459011 215.28995 737.1853 215.28995 
z
" clip-path="url(#p07e1b861a5)" style="fill: #1f77b4; fill-opacity: 0.3; stroke: #1f77b4; stroke-opacity: 0.3"/>
    <path d="M 745.819729 205.367334 
C 747.830731 205.367334 749.759639 204.568354 751.181632 203.146361 
C 752.603625 201.724368 753.402605 199.795461 753.402605 197.784459 
C 753.402605 195.773457 752.603625 193.844549 751.181632 192.422556 
C 749.759639 191.000563 747.830731 190.201583 745.819729 190.201583 
C 743.808727 190.201583 741.87982 191.000563 740.457827 192.422556 
C 739.035833 193.844549 738.236854 195.773457 738.236854 197.784459 
C 738.236854 199.795461 739.035833 201.724368 740.457827 203.146361 
C 741.87982 204.568354 743.808727 205.367334 745.819729 205.367334 
z
" clip-path="url(#p07e1b861a5)" style="fill: #1f77b4; fill-opacity: 0.3; stroke: #1f77b4; stroke-opacity: 0.3"/>
    <path d="M 754.454159 198.723559 
C 754.873482 198.723559 755.275687 198.55696 755.572193 198.260454 
C 755.868699 197.963948 756.035297 197.561743 756.035297 197.14242 
C 756.035297 196.723097 755.868699 196.320892 755.572193 196.024386 
C 755.275687 195.72788 754.873482 195.561282 754.454159 195.561282 
C 754.034836 195.561282 753.632631 195.72788 753.336125 196.024386 
C 753.039619 196.320892 752.87302 196.723097 752.87302 197.14242 
C 752.87302 197.561743 753.039619 197.963948 753.336125 198.260454 
C 753.632631 198.55696 754.034836 198.723559 754.454159 198.723559 
z
" clip-path="url(#p07e1b861a5)" style="fill: #1f77b4; fill-opacity: 0.3; stroke: #1f77b4; stroke-opacity: 0.3"/>
    <path d="M 763.088588 198.094412 
C 763.6816 198.094412 764.250404 197.858806 764.669727 197.439483 
C 765.08905 197.02016 765.324656 196.451356 765.324656 195.858344 
C 765.324656 195.265332 765.08905 194.696528 764.669727 194.277205 
C 764.250404 193.857882 763.6816 193.622276 763.088588 193.622276 
C 762.495576 193.622276 761.926772 193.857882 761.507449 194.277205 
C 761.088126 194.696528 760.85252 195.265332 760.85252 195.858344 
C 760.85252 196.451356 761.088126 197.02016 761.507449 197.439483 
C 761.926772 197.858806 762.495576 198.094412 763.088588 198.094412 
z
" clip-path="url(#p07e1b861a5)" style="fill: #1f77b4; fill-opacity: 0.3; stroke: #1f77b4; stroke-opacity: 0.3"/>
    <path d="M 771.723017 196.183687 
C 772.660652 196.183687 773.56001 195.811161 774.223017 195.148153 
C 774.886025 194.485145 775.258551 193.585787 775.258551 192.648153 
C 775.258551 191.710518 774.886025 190.811161 774.223017 190.148153 
C 773.56001 189.485145 772.660652 189.112619 771.723017 189.112619 
C 770.785383 189.112619 769.886025 189.485145 769.223017 190.148153 
C 768.56001 190.811161 768.187484 191.710518 768.187484 192.648153 
C 768.187484 193.585787 768.56001 194.485145 769.223017 195.148153 
C 769.886025 195.811161 770.785383 196.183687 771.723017 196.183687 
z
" clip-path="url(#p07e1b861a5)" style="fill: #1f77b4; fill-opacity: 0.3; stroke: #1f77b4; stroke-opacity: 0.3"/>
    <path d="M 780.357447 192.973496 
C 781.295081 192.973496 782.194439 192.60097 782.857447 191.937962 
C 783.520455 191.274954 783.892981 190.375596 783.892981 189.437962 
C 783.892981 188.500327 783.520455 187.60097 782.857447 186.937962 
C 782.194439 186.274954 781.295081 185.902428 780.357447 185.902428 
C 779.419812 185.902428 778.520455 186.274954 777.857447 186.937962 
C 777.194439 187.60097 776.821913 188.500327 776.821913 189.437962 
C 776.821913 190.375596 777.194439 191.274954 777.857447 191.937962 
C 778.520455 192.60097 779.419812 192.973496 780.357447 192.973496 
z
" clip-path="url(#p07e1b861a5)" style="fill: #1f77b4; fill-opacity: 0.3; stroke: #1f77b4; stroke-opacity: 0.3"/>
    <path d="M 788.991876 187.619586 
C 790.382613 187.619586 791.716576 187.06704 792.699975 186.083641 
C 793.683375 185.100241 794.23592 183.766278 794.23592 182.375541 
C 794.23592 180.984805 793.683375 179.650842 792.699975 178.667442 
C 791.716576 177.684043 790.382613 177.131497 788.991876 177.131497 
C 787.601139 177.131497 786.267176 177.684043 785.283777 178.667442 
C 784.300378 179.650842 783.747832 180.984805 783.747832 182.375541 
C 783.747832 183.766278 784.300378 185.100241 785.283777 186.083641 
C 786.267176 187.06704 787.601139 187.619586 788.991876 187.619586 
z
" clip-path="url(#p07e1b861a5)" style="fill: #1f77b4; fill-opacity: 0.3; stroke: #1f77b4; stroke-opacity: 0.3"/>
    <path d="M 797.626306 182.700884 
C 798.56394 182.700884 799.463298 182.328358 800.126306 181.66535 
C 800.789313 181.002343 801.16184 180.102985 801.16184 179.16535 
C 801.16184 178.227716 800.789313 177.328358 800.126306 176.66535 
C 799.463298 176.002343 798.56394 175.629816 797.626306 175.629816 
C 796.688671 175.629816 795.789313 176.002343 795.126306 176.66535 
C 794.463298 177.328358 794.090772 178.227716 794.090772 179.16535 
C 794.090772 180.102985 794.463298 181.002343 795.126306 181.66535 
C 795.789313 182.328358 796.688671 182.700884 797.626306 182.700884 
z
" clip-path="url(#p07e1b861a5)" style="fill: #1f77b4; fill-opacity: 0.3; stroke: #1f77b4; stroke-opacity: 0.3"/>
    <path d="M 806.260735 179.759475 
C 807.099381 179.759475 807.903791 179.426278 808.496803 178.833265 
C 809.089815 178.240253 809.423013 177.435843 809.423013 176.597197 
C 809.423013 175.758552 809.089815 174.954142 808.496803 174.361129 
C 807.903791 173.768117 807.099381 173.43492 806.260735 173.43492 
C 805.422089 173.43492 804.617679 173.768117 804.024667 174.361129 
C 803.431655 174.954142 803.098457 175.758552 803.098457 176.597197 
C 803.098457 177.435843 803.431655 178.240253 804.024667 178.833265 
C 804.617679 179.426278 805.422089 179.759475 806.260735 179.759475 
z
" clip-path="url(#p07e1b861a5)" style="fill: #1f77b4; fill-opacity: 0.3; stroke: #1f77b4; stroke-opacity: 0.3"/>
    <path d="M 814.895164 174.778821 
C 816.285901 174.778821 817.619864 174.226276 818.603264 173.242876 
C 819.586663 172.259477 820.139209 170.925514 820.139209 169.534777 
C 820.139209 168.14404 819.586663 166.810077 818.603264 165.826678 
C 817.619864 164.843278 816.285901 164.290733 814.895164 164.290733 
C 813.504428 164.290733 812.170465 164.843278 811.187065 165.826678 
C 810.203666 166.810077 809.65112 168.14404 809.65112 169.534777 
C 809.65112 170.925514 810.203666 172.259477 811.187065 173.242876 
C 812.170465 174.226276 813.504428 174.778821 814.895164 174.778821 
z
" clip-path="url(#p07e1b861a5)" style="fill: #1f77b4; fill-opacity: 0.3; stroke: #1f77b4; stroke-opacity: 0.3"/>
    <path d="M 823.529594 166.027928 
C 825.153624 166.027928 826.711358 165.382694 827.859721 164.234331 
C 829.008084 163.085968 829.653318 161.528235 829.653318 159.904204 
C 829.653318 158.280173 829.008084 156.72244 827.859721 155.574077 
C 826.711358 154.425714 825.153624 153.780479 823.529594 153.780479 
C 821.905563 153.780479 820.34783 154.425714 819.199467 155.574077 
C 818.051104 156.72244 817.405869 158.280173 817.405869 159.904204 
C 817.405869 161.528235 818.051104 163.085968 819.199467 164.234331 
C 820.34783 165.382694 821.905563 166.027928 823.529594 166.027928 
z
" clip-path="url(#p07e1b861a5)" style="fill: #1f77b4; fill-opacity: 0.3; stroke: #1f77b4; stroke-opacity: 0.3"/>
    <path d="M 832.164023 159.593236 
C 833.273447 159.593236 834.337582 159.152458 835.122063 158.367976 
C 835.906544 157.583495 836.347323 156.51936 836.347323 155.409936 
C 836.347323 154.300512 835.906544 153.236378 835.122063 152.451896 
C 834.337582 151.667415 833.273447 151.226636 832.164023 151.226636 
C 831.054599 151.226636 829.990465 151.667415 829.205983 152.451896 
C 828.421502 153.236378 827.980723 154.300512 827.980723 155.409936 
C 827.980723 156.51936 828.421502 157.583495 829.205983 158.367976 
C 829.990465 159.152458 831.054599 159.593236 832.164023 159.593236 
z
" clip-path="url(#p07e1b861a5)" style="fill: #1f77b4; fill-opacity: 0.3; stroke: #1f77b4; stroke-opacity: 0.3"/>
    <path d="M 840.798453 156.004061 
C 841.637098 156.004061 842.441508 155.670864 843.034521 155.077851 
C 843.627533 154.484839 843.96073 153.680429 843.96073 152.841783 
C 843.96073 152.003138 843.627533 151.198728 843.034521 150.605715 
C 842.441508 150.012703 841.637098 149.679506 840.798453 149.679506 
C 839.959807 149.679506 839.155397 150.012703 838.562385 150.605715 
C 837.969372 151.198728 837.636175 152.003138 837.636175 152.841783 
C 837.636175 153.680429 837.969372 154.484839 838.562385 155.077851 
C 839.155397 155.670864 839.959807 156.004061 840.798453 156.004061 
z
" clip-path="url(#p07e1b861a5)" style="fill: #1f77b4; fill-opacity: 0.3; stroke: #1f77b4; stroke-opacity: 0.3"/>
    <path d="M 849.432882 153.793775 
C 850.025894 153.793775 850.594698 153.558169 851.014021 153.138846 
C 851.433344 152.719523 851.66895 152.150719 851.66895 151.557707 
C 851.66895 150.964695 851.433344 150.395891 851.014021 149.976568 
C 850.594698 149.557245 850.025894 149.321639 849.432882 149.321639 
C 848.83987 149.321639 848.271066 149.557245 847.851743 149.976568 
C 847.43242 150.395891 847.196814 150.964695 847.196814 151.557707 
C 847.196814 152.150719 847.43242 152.719523 847.851743 153.138846 
C 848.271066 153.558169 848.83987 153.793775 849.432882 153.793775 
z
" clip-path="url(#p07e1b861a5)" style="fill: #1f77b4; fill-opacity: 0.3; stroke: #1f77b4; stroke-opacity: 0.3"/>
    <path d="M 858.067311 150.52278 
C 859.32528 150.52278 860.531895 150.022983 861.421413 149.133465 
C 862.310932 148.243947 862.810728 147.037332 862.810728 145.779363 
C 862.810728 144.521394 862.310932 143.314779 861.421413 142.425261 
C 860.531895 141.535743 859.32528 141.035947 858.067311 141.035947 
C 856.809343 141.035947 855.602728 141.535743 854.713209 142.425261 
C 853.823691 143.314779 853.323895 144.521394 853.323895 145.779363 
C 853.323895 147.037332 853.823691 148.243947 854.713209 149.133465 
C 855.602728 150.022983 856.809343 150.52278 858.067311 150.52278 
z
" clip-path="url(#p07e1b861a5)" style="fill: #1f77b4; fill-opacity: 0.3; stroke: #1f77b4; stroke-opacity: 0.3"/>
    <path d="M 866.701741 146.373488 
C 867.540387 146.373488 868.344797 146.04029 868.937809 145.447278 
C 869.530821 144.854266 869.864018 144.049856 869.864018 143.21121 
C 869.864018 142.372564 869.530821 141.568154 868.937809 140.975142 
C 868.344797 140.38213 867.540387 140.048933 866.701741 140.048933 
C 865.863095 140.048933 865.058685 140.38213 864.465673 140.975142 
C 863.872661 141.568154 863.539463 142.372564 863.539463 143.21121 
C 863.539463 144.049856 863.872661 144.854266 864.465673 145.447278 
C 865.058685 146.04029 865.863095 146.373488 866.701741 146.373488 
z
" clip-path="url(#p07e1b861a5)" style="fill: #1f77b4; fill-opacity: 0.3; stroke: #1f77b4; stroke-opacity: 0.3"/>
    <path d="M 875.33617 143.231964 
C 876.363297 143.231964 877.348494 142.823882 878.074783 142.097594 
C 878.801072 141.371305 879.209154 140.386108 879.209154 139.358981 
C 879.209154 138.331854 878.801072 137.346657 878.074783 136.620368 
C 877.348494 135.89408 876.363297 135.485998 875.33617 135.485998 
C 874.309043 135.485998 873.323846 135.89408 872.597557 136.620368 
C 871.871269 137.346657 871.463187 138.331854 871.463187 139.358981 
C 871.463187 140.386108 871.871269 141.371305 872.597557 142.097594 
C 873.323846 142.823882 874.309043 143.231964 875.33617 143.231964 
z
" clip-path="url(#p07e1b861a5)" style="fill: #1f77b4; fill-opacity: 0.3; stroke: #1f77b4; stroke-opacity: 0.3"/>
    <path d="M 883.9706 140.310972 
C 884.563612 140.310972 885.132416 140.075366 885.551738 139.656043 
C 885.971061 139.23672 886.206668 138.667917 886.206668 138.074904 
C 886.206668 137.481892 885.971061 136.913089 885.551738 136.493766 
C 885.132416 136.074443 884.563612 135.838836 883.9706 135.838836 
C 883.377587 135.838836 882.808784 136.074443 882.389461 136.493766 
C 881.970138 136.913089 881.734532 137.481892 881.734532 138.074904 
C 881.734532 138.667917 881.970138 139.23672 882.389461 139.656043 
C 882.808784 140.075366 883.377587 140.310972 883.9706 140.310972 
z
" clip-path="url(#p07e1b861a5)" style="fill: #1f77b4; fill-opacity: 0.3; stroke: #1f77b4; stroke-opacity: 0.3"/>
    <path d="M 892.605029 138.669029 
C 893.443675 138.669029 894.248085 138.335832 894.841097 137.74282 
C 895.434109 137.149807 895.767307 136.345397 895.767307 135.506752 
C 895.767307 134.668106 895.434109 133.863696 894.841097 133.270684 
C 894.248085 132.677671 893.443675 132.344474 892.605029 132.344474 
C 891.766383 132.344474 890.961973 132.677671 890.368961 133.270684 
C 889.775949 133.863696 889.442751 134.668106 889.442751 135.506752 
C 889.442751 136.345397 889.775949 137.149807 890.368961 137.74282 
C 890.961973 138.335832 891.766383 138.669029 892.605029 138.669029 
z
" clip-path="url(#p07e1b861a5)" style="fill: #1f77b4; fill-opacity: 0.3; stroke: #1f77b4; stroke-opacity: 0.3"/>
    <path d="M 901.239458 135.832094 
C 902.177093 135.832094 903.076451 135.459568 903.739458 134.796561 
C 904.402466 134.133553 904.774992 133.234195 904.774992 132.296561 
C 904.774992 131.358926 904.402466 130.459568 903.739458 129.796561 
C 903.076451 129.133553 902.177093 128.761027 901.239458 128.761027 
C 900.301824 128.761027 899.402466 129.133553 898.739458 129.796561 
C 898.076451 130.459568 897.703925 131.358926 897.703925 132.296561 
C 897.703925 133.234195 898.076451 134.133553 898.739458 134.796561 
C 899.402466 135.459568 900.301824 135.832094 901.239458 135.832094 
z
" clip-path="url(#p07e1b861a5)" style="fill: #1f77b4; fill-opacity: 0.3; stroke: #1f77b4; stroke-opacity: 0.3"/>
    <path d="M 909.873888 133.248552 
C 910.4669 133.248552 911.035704 133.012946 911.455027 132.593623 
C 911.87435 132.1743 912.109956 131.605496 912.109956 131.012484 
C 912.109956 130.419472 911.87435 129.850668 911.455027 129.431345 
C 911.035704 129.012022 910.4669 128.776416 909.873888 128.776416 
C 909.280876 128.776416 908.712072 129.012022 908.292749 129.431345 
C 907.873426 129.850668 907.63782 130.419472 907.63782 131.012484 
C 907.63782 131.605496 907.873426 132.1743 908.292749 132.593623 
C 908.712072 133.012946 909.280876 133.248552 909.873888 133.248552 
z
" clip-path="url(#p07e1b861a5)" style="fill: #1f77b4; fill-opacity: 0.3; stroke: #1f77b4; stroke-opacity: 0.3"/>
    <path d="M 918.508317 131.606609 
C 919.346963 131.606609 920.151373 131.273411 920.744385 130.680399 
C 921.337397 130.087387 921.670595 129.282977 921.670595 128.444331 
C 921.670595 127.605685 921.337397 126.801275 920.744385 126.208263 
C 920.151373 125.615251 919.346963 125.282054 918.508317 125.282054 
C 917.669671 125.282054 916.865261 125.615251 916.272249 126.208263 
C 915.679237 126.801275 915.34604 127.605685 915.34604 128.444331 
C 915.34604 129.282977 915.679237 130.087387 916.272249 130.680399 
C 916.865261 131.273411 917.669671 131.606609 918.508317 131.606609 
z
" clip-path="url(#p07e1b861a5)" style="fill: #1f77b4; fill-opacity: 0.3; stroke: #1f77b4; stroke-opacity: 0.3"/>
    <path d="M 927.142747 129.038456 
C 927.981392 129.038456 928.785802 128.705258 929.378815 128.112246 
C 929.971827 127.519234 930.305024 126.714824 930.305024 125.876178 
C 930.305024 125.037533 929.971827 124.233123 929.378815 123.64011 
C 928.785802 123.047098 927.981392 122.713901 927.142747 122.713901 
C 926.304101 122.713901 925.499691 123.047098 924.906679 123.64011 
C 924.313666 124.233123 923.980469 125.037533 923.980469 125.876178 
C 923.980469 126.714824 924.313666 127.519234 924.906679 128.112246 
C 925.499691 128.705258 926.304101 129.038456 927.142747 129.038456 
z
" clip-path="url(#p07e1b861a5)" style="fill: #1f77b4; fill-opacity: 0.3; stroke: #1f77b4; stroke-opacity: 0.3"/>
    <path d="M 935.777176 125.565211 
C 936.8866 125.565211 937.950735 125.124432 938.735216 124.339951 
C 939.519697 123.555469 939.960476 122.491335 939.960476 121.381911 
C 939.960476 120.272487 939.519697 119.208352 938.735216 118.423871 
C 937.950735 117.63939 936.8866 117.198611 935.777176 117.198611 
C 934.667752 117.198611 933.603617 117.63939 932.819136 118.423871 
C 932.034655 119.208352 931.593876 120.272487 931.593876 121.381911 
C 931.593876 122.491335 932.034655 123.555469 932.819136 124.339951 
C 933.603617 125.124432 934.667752 125.565211 935.777176 125.565211 
z
" clip-path="url(#p07e1b861a5)" style="fill: #1f77b4; fill-opacity: 0.3; stroke: #1f77b4; stroke-opacity: 0.3"/>
    <path d="M 944.411605 119.154678 
C 945.864183 119.154678 947.257462 118.577563 948.284589 117.550436 
C 949.311716 116.523308 949.888831 115.130029 949.888831 113.677452 
C 949.888831 112.224875 949.311716 110.831596 948.284589 109.804469 
C 947.257462 108.777342 945.864183 108.200227 944.411605 108.200227 
C 942.959028 108.200227 941.565749 108.777342 940.538622 109.804469 
C 939.511495 110.831596 938.93438 112.224875 938.93438 113.677452 
C 938.93438 115.130029 939.511495 116.523308 940.538622 117.550436 
C 941.565749 118.577563 942.959028 119.154678 944.411605 119.154678 
z
" clip-path="url(#p07e1b861a5)" style="fill: #1f77b4; fill-opacity: 0.3; stroke: #1f77b4; stroke-opacity: 0.3"/>
    <path d="M 953.046035 112.642525 
C 954.304004 112.642525 955.510619 112.142728 956.400137 111.25321 
C 957.289655 110.363692 957.789451 109.157077 957.789451 107.899108 
C 957.789451 106.64114 957.289655 105.434525 956.400137 104.545006 
C 955.510619 103.655488 954.304004 103.155692 953.046035 103.155692 
C 951.788066 103.155692 950.581451 103.655488 949.691933 104.545006 
C 948.802415 105.434525 948.302618 106.64114 948.302618 107.899108 
C 948.302618 109.157077 948.802415 110.363692 949.691933 111.25321 
C 950.581451 112.142728 951.788066 112.642525 953.046035 112.642525 
z
" clip-path="url(#p07e1b861a5)" style="fill: #1f77b4; fill-opacity: 0.3; stroke: #1f77b4; stroke-opacity: 0.3"/>
    <path d="M 961.680464 108.8511 
C 962.273476 108.8511 962.84228 108.615494 963.261603 108.196171 
C 963.680926 107.776848 963.916532 107.208044 963.916532 106.615032 
C 963.916532 106.02202 963.680926 105.453216 963.261603 105.033893 
C 962.84228 104.61457 962.273476 104.378964 961.680464 104.378964 
C 961.087452 104.378964 960.518648 104.61457 960.099325 105.033893 
C 959.680002 105.453216 959.444396 106.02202 959.444396 106.615032 
C 959.444396 107.208044 959.680002 107.776848 960.099325 108.196171 
C 960.518648 108.615494 961.087452 108.8511 961.680464 108.8511 
z
" clip-path="url(#p07e1b861a5)" style="fill: #1f77b4; fill-opacity: 0.3; stroke: #1f77b4; stroke-opacity: 0.3"/>
    <path d="M 978.949323 102.666976 
C 980.626615 102.666976 982.235435 102.000581 983.421459 100.814556 
C 984.607483 99.628532 985.273878 98.019712 985.273878 96.34242 
C 985.273878 94.665129 984.607483 93.056309 983.421459 91.870284 
C 982.235435 90.68426 980.626615 90.017865 978.949323 90.017865 
C 977.272031 90.017865 975.663211 90.68426 974.477187 91.870284 
C 973.291163 93.056309 972.624768 94.665129 972.624768 96.34242 
C 972.624768 98.019712 973.291163 99.628532 974.477187 100.814556 
C 975.663211 102.000581 977.272031 102.666976 978.949323 102.666976 
z
" clip-path="url(#p07e1b861a5)" style="fill: #1f77b4; fill-opacity: 0.3; stroke: #1f77b4; stroke-opacity: 0.3"/>
    <path d="M 987.583752 95.678251 
C 988.769777 95.678251 989.907384 95.207038 990.74603 94.368392 
C 991.584676 93.529746 992.055888 92.392139 992.055888 91.206115 
C 992.055888 90.02009 991.584676 88.882483 990.74603 88.043837 
C 989.907384 87.205191 988.769777 86.733979 987.583752 86.733979 
C 986.397728 86.733979 985.260121 87.205191 984.421475 88.043837 
C 983.582829 88.882483 983.111616 90.02009 983.111616 91.206115 
C 983.111616 92.392139 983.582829 93.529746 984.421475 94.368392 
C 985.260121 95.207038 986.397728 95.678251 987.583752 95.678251 
z
" clip-path="url(#p07e1b861a5)" style="fill: #1f77b4; fill-opacity: 0.3; stroke: #1f77b4; stroke-opacity: 0.3"/>
    <path d="M 996.218182 92.018613 
C 996.94447 92.018613 997.64111 91.730055 998.154673 91.216492 
C 998.668237 90.702928 998.956795 90.006289 998.956795 89.28 
C 998.956795 88.553711 998.668237 87.857072 998.154673 87.343508 
C 997.64111 86.829945 996.94447 86.541387 996.218182 86.541387 
C 995.491893 86.541387 994.795254 86.829945 994.28169 87.343508 
C 993.768127 87.857072 993.479569 88.553711 993.479569 89.28 
C 993.479569 90.006289 993.768127 90.702928 994.28169 91.216492 
C 994.795254 91.730055 995.491893 92.018613 996.218182 92.018613 
z
" clip-path="url(#p07e1b861a5)" style="fill: #1f77b4; fill-opacity: 0.3; stroke: #1f77b4; stroke-opacity: 0.3"/>
   </g>
   <g id="matplotlib.axis_1">
    <g id="xtick_1">
     <g id="line2d_1">
      <defs>
       <path id="mf913816cf5" d="M 0 0 
L 0 3.5 
" style="stroke: #000000; stroke-width: 0.8"/>
      </defs>
      <g>
       <use xlink:href="#mf913816cf5" x="184.581818" y="512.64" style="stroke: #000000; stroke-width: 0.8"/>
      </g>
     </g>
     <g id="text_1">
      <!-- 2024-01-01 -->
      <g transform="translate(155.524006 527.238438) scale(0.1 -0.1)">
       <defs>
        <path id="DejaVuSans-32" d="M 1228 531 
L 3431 531 
L 3431 0 
L 469 0 
L 469 531 
Q 828 903 1448 1529 
Q 2069 2156 2228 2338 
Q 2531 2678 2651 2914 
Q 2772 3150 2772 3378 
Q 2772 3750 2511 3984 
Q 2250 4219 1831 4219 
Q 1534 4219 1204 4116 
Q 875 4013 500 3803 
L 500 4441 
Q 881 4594 1212 4672 
Q 1544 4750 1819 4750 
Q 2544 4750 2975 4387 
Q 3406 4025 3406 3419 
Q 3406 3131 3298 2873 
Q 3191 2616 2906 2266 
Q 2828 2175 2409 1742 
Q 1991 1309 1228 531 
z
" transform="scale(0.015625)"/>
        <path id="DejaVuSans-30" d="M 2034 4250 
Q 1547 4250 1301 3770 
Q 1056 3291 1056 2328 
Q 1056 1369 1301 889 
Q 1547 409 2034 409 
Q 2525 409 2770 889 
Q 3016 1369 3016 2328 
Q 3016 3291 2770 3770 
Q 2525 4250 2034 4250 
z
M 2034 4750 
Q 2819 4750 3233 4129 
Q 3647 3509 3647 2328 
Q 3647 1150 3233 529 
Q 2819 -91 2034 -91 
Q 1250 -91 836 529 
Q 422 1150 422 2328 
Q 422 3509 836 4129 
Q 1250 4750 2034 4750 
z
" transform="scale(0.015625)"/>
        <path id="DejaVuSans-34" d="M 2419 4116 
L 825 1625 
L 2419 1625 
L 2419 4116 
z
M 2253 4666 
L 3047 4666 
L 3047 1625 
L 3713 1625 
L 3713 1100 
L 3047 1100 
L 3047 0 
L 2419 0 
L 2419 1100 
L 313 1100 
L 313 1709 
L 2253 4666 
z
" transform="scale(0.015625)"/>
        <path id="DejaVuSans-2d" d="M 313 2009 
L 1997 2009 
L 1997 1497 
L 313 1497 
L 313 2009 
z
" transform="scale(0.015625)"/>
        <path id="DejaVuSans-31" d="M 794 531 
L 1825 531 
L 1825 4091 
L 703 3866 
L 703 4441 
L 1819 4666 
L 2450 4666 
L 2450 531 
L 3481 531 
L 3481 0 
L 794 0 
L 794 531 
z
" transform="scale(0.015625)"/>
       </defs>
       <use xlink:href="#DejaVuSans-32"/>
       <use xlink:href="#DejaVuSans-30" x="63.623047"/>
       <use xlink:href="#DejaVuSans-32" x="127.246094"/>
       <use xlink:href="#DejaVuSans-34" x="190.869141"/>
       <use xlink:href="#DejaVuSans-2d" x="254.492188"/>
       <use xlink:href="#DejaVuSans-30" x="290.576172"/>
       <use xlink:href="#DejaVuSans-31" x="354.199219"/>
       <use xlink:href="#DejaVuSans-2d" x="417.822266"/>
       <use xlink:href="#DejaVuSans-30" x="453.90625"/>
       <use xlink:href="#DejaVuSans-31" x="517.529297"/>
      </g>
     </g>
    </g>
    <g id="xtick_2">
     <g id="line2d_2">
      <g>
       <use xlink:href="#mf913816cf5" x="305.46383" y="512.64" style="stroke: #000000; stroke-width: 0.8"/>
      </g>
     </g>
     <g id="text_2">
      <!-- 2024-01-15 -->
      <g transform="translate(276.406017 527.238438) scale(0.1 -0.1)">
       <defs>
        <path id="DejaVuSans-35" d="M 691 4666 
L 3169 4666 
L 3169 4134 
L 1269 4134 
L 1269 2991 
Q 1406 3038 1543 3061 
Q 1681 3084 1819 3084 
Q 2600 3084 3056 2656 
Q 3513 2228 3513 1497 
Q 3513 744 3044 326 
Q 2575 -91 1722 -91 
Q 1428 -91 1123 -41 
Q 819 9 494 109 
L 494 744 
Q 775 591 1075 516 
Q 1375 441 1709 441 
Q 2250 441 2565 725 
Q 2881 1009 2881 1497 
Q 2881 1984 2565 2268 
Q 2250 2553 1709 2553 
Q 1456 2553 1204 2497 
Q 953 2441 691 2322 
L 691 4666 
z
" transform="scale(0.015625)"/>
       </defs>
       <use xlink:href="#DejaVuSans-32"/>
       <use xlink:href="#DejaVuSans-30" x="63.623047"/>
       <use xlink:href="#DejaVuSans-32" x="127.246094"/>
       <use xlink:href="#DejaVuSans-34" x="190.869141"/>
       <use xlink:href="#DejaVuSans-2d" x="254.492188"/>
       <use xlink:href="#DejaVuSans-30" x="290.576172"/>
       <use xlink:href="#DejaVuSans-31" x="354.199219"/>
       <use xlink:href="#DejaVuSans-2d" x="417.822266"/>
       <use xlink:href="#DejaVuSans-31" x="453.90625"/>
       <use xlink:href="#DejaVuSans-35" x="517.529297"/>
      </g>
     </g>
    </g>
    <g id="xtick_3">
     <g id="line2d_3">
      <g>
       <use xlink:href="#mf913816cf5" x="452.24913" y="512.64" style="stroke: #000000; stroke-width: 0.8"/>
      </g>
     </g>
     <g id="text_3">
      <!-- 2024-02-01 -->
      <g transform="translate(423.191317 527.238438) scale(0.1 -0.1)">
       <use xlink:href="#DejaVuSans-32"/>
       <use xlink:href="#DejaVuSans-30" x="63.623047"/>
       <use xlink:href="#DejaVuSans-32" x="127.246094"/>
       <use xlink:href="#DejaVuSans-34" x="190.869141"/>
       <use xlink:href="#DejaVuSans-2d" x="254.492188"/>
       <use xlink:href="#DejaVuSans-30" x="290.576172"/>
       <use xlink:href="#DejaVuSans-32" x="354.199219"/>
       <use xlink:href="#DejaVuSans-2d" x="417.822266"/>
       <use xlink:href="#DejaVuSans-30" x="453.90625"/>
       <use xlink:href="#DejaVuSans-31" x="517.529297"/>
      </g>
     </g>
    </g>
    <g id="xtick_4">
     <g id="line2d_4">
      <g>
       <use xlink:href="#mf913816cf5" x="573.131141" y="512.64" style="stroke: #000000; stroke-width: 0.8"/>
      </g>
     </g>
     <g id="text_4">
      <!-- 2024-02-15 -->
      <g transform="translate(544.073329 527.238438) scale(0.1 -0.1)">
       <use xlink:href="#DejaVuSans-32"/>
       <use xlink:href="#DejaVuSans-30" x="63.623047"/>
       <use xlink:href="#DejaVuSans-32" x="127.246094"/>
       <use xlink:href="#DejaVuSans-34" x="190.869141"/>
       <use xlink:href="#DejaVuSans-2d" x="254.492188"/>
       <use xlink:href="#DejaVuSans-30" x="290.576172"/>
       <use xlink:href="#DejaVuSans-32" x="354.199219"/>
       <use xlink:href="#DejaVuSans-2d" x="417.822266"/>
       <use xlink:href="#DejaVuSans-31" x="453.90625"/>
       <use xlink:href="#DejaVuSans-35" x="517.529297"/>
      </g>
     </g>
    </g>
    <g id="xtick_5">
     <g id="line2d_5">
      <g>
       <use xlink:href="#mf913816cf5" x="702.647582" y="512.64" style="stroke: #000000; stroke-width: 0.8"/>
      </g>
     </g>
     <g id="text_5">
      <!-- 2024-03-01 -->
      <g transform="translate(673.58977 527.238438) scale(0.1 -0.1)">
       <defs>
        <path id="DejaVuSans-33" d="M 2597 2516 
Q 3050 2419 3304 2112 
Q 3559 1806 3559 1356 
Q 3559 666 3084 287 
Q 2609 -91 1734 -91 
Q 1441 -91 1130 -33 
Q 819 25 488 141 
L 488 750 
Q 750 597 1062 519 
Q 1375 441 1716 441 
Q 2309 441 2620 675 
Q 2931 909 2931 1356 
Q 2931 1769 2642 2001 
Q 2353 2234 1838 2234 
L 1294 2234 
L 1294 2753 
L 1863 2753 
Q 2328 2753 2575 2939 
Q 2822 3125 2822 3475 
Q 2822 3834 2567 4026 
Q 2313 4219 1838 4219 
Q 1578 4219 1281 4162 
Q 984 4106 628 3988 
L 628 4550 
Q 988 4650 1302 4700 
Q 1616 4750 1894 4750 
Q 2613 4750 3031 4423 
Q 3450 4097 3450 3541 
Q 3450 3153 3228 2886 
Q 3006 2619 2597 2516 
z
" transform="scale(0.015625)"/>
       </defs>
       <use xlink:href="#DejaVuSans-32"/>
       <use xlink:href="#DejaVuSans-30" x="63.623047"/>
       <use xlink:href="#DejaVuSans-32" x="127.246094"/>
       <use xlink:href="#DejaVuSans-34" x="190.869141"/>
       <use xlink:href="#DejaVuSans-2d" x="254.492188"/>
       <use xlink:href="#DejaVuSans-30" x="290.576172"/>
       <use xlink:href="#DejaVuSans-33" x="354.199219"/>
       <use xlink:href="#DejaVuSans-2d" x="417.822266"/>
       <use xlink:href="#DejaVuSans-30" x="453.90625"/>
       <use xlink:href="#DejaVuSans-31" x="517.529297"/>
      </g>
     </g>
    </g>
    <g id="xtick_6">
     <g id="line2d_6">
      <g>
       <use xlink:href="#mf913816cf5" x="823.529594" y="512.64" style="stroke: #000000; stroke-width: 0.8"/>
      </g>
     </g>
     <g id="text_6">
      <!-- 2024-03-15 -->
      <g transform="translate(794.471781 527.238438) scale(0.1 -0.1)">
       <use xlink:href="#DejaVuSans-32"/>
       <use xlink:href="#DejaVuSans-30" x="63.623047"/>
       <use xlink:href="#DejaVuSans-32" x="127.246094"/>
       <use xlink:href="#DejaVuSans-34" x="190.869141"/>
       <use xlink:href="#DejaVuSans-2d" x="254.492188"/>
       <use xlink:href="#DejaVuSans-30" x="290.576172"/>
       <use xlink:href="#DejaVuSans-33" x="354.199219"/>
       <use xlink:href="#DejaVuSans-2d" x="417.822266"/>
       <use xlink:href="#DejaVuSans-31" x="453.90625"/>
       <use xlink:href="#DejaVuSans-35" x="517.529297"/>
      </g>
     </g>
    </g>
    <g id="xtick_7">
     <g id="line2d_7">
      <g>
       <use xlink:href="#mf913816cf5" x="970.314894" y="512.64" style="stroke: #000000; stroke-width: 0.8"/>
      </g>
     </g>
     <g id="text_7">
      <!-- 2024-04-01 -->
      <g transform="translate(941.257081 527.238438) scale(0.1 -0.1)">
       <use xlink:href="#DejaVuSans-32"/>
       <use xlink:href="#DejaVuSans-30" x="63.623047"/>
       <use xlink:href="#DejaVuSans-32" x="127.246094"/>
       <use xlink:href="#DejaVuSans-34" x="190.869141"/>
       <use xlink:href="#DejaVuSans-2d" x="254.492188"/>
       <use xlink:href="#DejaVuSans-30" x="290.576172"/>
       <use xlink:href="#DejaVuSans-34" x="354.199219"/>
       <use xlink:href="#DejaVuSans-2d" x="417.822266"/>
       <use xlink:href="#DejaVuSans-30" x="453.90625"/>
       <use xlink:href="#DejaVuSans-31" x="517.529297"/>
      </g>
     </g>
    </g>
   </g>
   <g id="matplotlib.axis_2">
    <g id="ytick_1">
     <g id="line2d_8">
      <defs>
       <path id="m65cc3273fa" d="M 0 0 
L -3.5 0 
" style="stroke: #000000; stroke-width: 0.8"/>
      </defs>
      <g>
       <use xlink:href="#m65cc3273fa" x="144" y="468.724586" style="stroke: #000000; stroke-width: 0.8"/>
      </g>
     </g>
     <g id="text_8">
      <!-- 6300 -->
      <g transform="translate(111.55 472.523805) scale(0.1 -0.1)">
       <defs>
        <path id="DejaVuSans-36" d="M 2113 2584 
Q 1688 2584 1439 2293 
Q 1191 2003 1191 1497 
Q 1191 994 1439 701 
Q 1688 409 2113 409 
Q 2538 409 2786 701 
Q 3034 994 3034 1497 
Q 3034 2003 2786 2293 
Q 2538 2584 2113 2584 
z
M 3366 4563 
L 3366 3988 
Q 3128 4100 2886 4159 
Q 2644 4219 2406 4219 
Q 1781 4219 1451 3797 
Q 1122 3375 1075 2522 
Q 1259 2794 1537 2939 
Q 1816 3084 2150 3084 
Q 2853 3084 3261 2657 
Q 3669 2231 3669 1497 
Q 3669 778 3244 343 
Q 2819 -91 2113 -91 
Q 1303 -91 875 529 
Q 447 1150 447 2328 
Q 447 3434 972 4092 
Q 1497 4750 2381 4750 
Q 2619 4750 2861 4703 
Q 3103 4656 3366 4563 
z
" transform="scale(0.015625)"/>
       </defs>
       <use xlink:href="#DejaVuSans-36"/>
       <use xlink:href="#DejaVuSans-33" x="63.623047"/>
       <use xlink:href="#DejaVuSans-30" x="127.246094"/>
       <use xlink:href="#DejaVuSans-30" x="190.869141"/>
      </g>
     </g>
    </g>
    <g id="ytick_2">
     <g id="line2d_9">
      <g>
       <use xlink:href="#m65cc3273fa" x="144" y="404.520764" style="stroke: #000000; stroke-width: 0.8"/>
      </g>
     </g>
     <g id="text_9">
      <!-- 6400 -->
      <g transform="translate(111.55 408.319983) scale(0.1 -0.1)">
       <use xlink:href="#DejaVuSans-36"/>
       <use xlink:href="#DejaVuSans-34" x="63.623047"/>
       <use xlink:href="#DejaVuSans-30" x="127.246094"/>
       <use xlink:href="#DejaVuSans-30" x="190.869141"/>
      </g>
     </g>
    </g>
    <g id="ytick_3">
     <g id="line2d_10">
      <g>
       <use xlink:href="#m65cc3273fa" x="144" y="340.316943" style="stroke: #000000; stroke-width: 0.8"/>
      </g>
     </g>
     <g id="text_10">
      <!-- 6500 -->
      <g transform="translate(111.55 344.116161) scale(0.1 -0.1)">
       <use xlink:href="#DejaVuSans-36"/>
       <use xlink:href="#DejaVuSans-35" x="63.623047"/>
       <use xlink:href="#DejaVuSans-30" x="127.246094"/>
       <use xlink:href="#DejaVuSans-30" x="190.869141"/>
      </g>
     </g>
    </g>
    <g id="ytick_4">
     <g id="line2d_11">
      <g>
       <use xlink:href="#m65cc3273fa" x="144" y="276.113121" style="stroke: #000000; stroke-width: 0.8"/>
      </g>
     </g>
     <g id="text_11">
      <!-- 6600 -->
      <g transform="translate(111.55 279.91234) scale(0.1 -0.1)">
       <use xlink:href="#DejaVuSans-36"/>
       <use xlink:href="#DejaVuSans-36" x="63.623047"/>
       <use xlink:href="#DejaVuSans-30" x="127.246094"/>
       <use xlink:href="#DejaVuSans-30" x="190.869141"/>
      </g>
     </g>
    </g>
    <g id="ytick_5">
     <g id="line2d_12">
      <g>
       <use xlink:href="#m65cc3273fa" x="144" y="211.909299" style="stroke: #000000; stroke-width: 0.8"/>
      </g>
     </g>
     <g id="text_12">
      <!-- 6700 -->
      <g transform="translate(111.55 215.708518) scale(0.1 -0.1)">
       <defs>
        <path id="DejaVuSans-37" d="M 525 4666 
L 3525 4666 
L 3525 4397 
L 1831 0 
L 1172 0 
L 2766 4134 
L 525 4134 
L 525 4666 
z
" transform="scale(0.015625)"/>
       </defs>
       <use xlink:href="#DejaVuSans-36"/>
       <use xlink:href="#DejaVuSans-37" x="63.623047"/>
       <use xlink:href="#DejaVuSans-30" x="127.246094"/>
       <use xlink:href="#DejaVuSans-30" x="190.869141"/>
      </g>
     </g>
    </g>
    <g id="ytick_6">
     <g id="line2d_13">
      <g>
       <use xlink:href="#m65cc3273fa" x="144" y="147.705478" style="stroke: #000000; stroke-width: 0.8"/>
      </g>
     </g>
     <g id="text_13">
      <!-- 6800 -->
      <g transform="translate(111.55 151.504696) scale(0.1 -0.1)">
       <defs>
        <path id="DejaVuSans-38" d="M 2034 2216 
Q 1584 2216 1326 1975 
Q 1069 1734 1069 1313 
Q 1069 891 1326 650 
Q 1584 409 2034 409 
Q 2484 409 2743 651 
Q 3003 894 3003 1313 
Q 3003 1734 2745 1975 
Q 2488 2216 2034 2216 
z
M 1403 2484 
Q 997 2584 770 2862 
Q 544 3141 544 3541 
Q 544 4100 942 4425 
Q 1341 4750 2034 4750 
Q 2731 4750 3128 4425 
Q 3525 4100 3525 3541 
Q 3525 3141 3298 2862 
Q 3072 2584 2669 2484 
Q 3125 2378 3379 2068 
Q 3634 1759 3634 1313 
Q 3634 634 3220 271 
Q 2806 -91 2034 -91 
Q 1263 -91 848 271 
Q 434 634 434 1313 
Q 434 1759 690 2068 
Q 947 2378 1403 2484 
z
M 1172 3481 
Q 1172 3119 1398 2916 
Q 1625 2713 2034 2713 
Q 2441 2713 2670 2916 
Q 2900 3119 2900 3481 
Q 2900 3844 2670 4047 
Q 2441 4250 2034 4250 
Q 1625 4250 1398 4047 
Q 1172 3844 1172 3481 
z
" transform="scale(0.015625)"/>
       </defs>
       <use xlink:href="#DejaVuSans-36"/>
       <use xlink:href="#DejaVuSans-38" x="63.623047"/>
       <use xlink:href="#DejaVuSans-30" x="127.246094"/>
       <use xlink:href="#DejaVuSans-30" x="190.869141"/>
      </g>
     </g>
    </g>
    <g id="ytick_7">
     <g id="line2d_14">
      <g>
       <use xlink:href="#m65cc3273fa" x="144" y="83.501656" style="stroke: #000000; stroke-width: 0.8"/>
      </g>
     </g>
     <g id="text_14">
      <!-- 6900 -->
      <g transform="translate(111.55 87.300875) scale(0.1 -0.1)">
       <defs>
        <path id="DejaVuSans-39" d="M 703 97 
L 703 672 
Q 941 559 1184 500 
Q 1428 441 1663 441 
Q 2288 441 2617 861 
Q 2947 1281 2994 2138 
Q 2813 1869 2534 1725 
Q 2256 1581 1919 1581 
Q 1219 1581 811 2004 
Q 403 2428 403 3163 
Q 403 3881 828 4315 
Q 1253 4750 1959 4750 
Q 2769 4750 3195 4129 
Q 3622 3509 3622 2328 
Q 3622 1225 3098 567 
Q 2575 -91 1691 -91 
Q 1453 -91 1209 -44 
Q 966 3 703 97 
z
M 1959 2075 
Q 2384 2075 2632 2365 
Q 2881 2656 2881 3163 
Q 2881 3666 2632 3958 
Q 2384 4250 1959 4250 
Q 1534 4250 1286 3958 
Q 1038 3666 1038 3163 
Q 1038 2656 1286 2365 
Q 1534 2075 1959 2075 
z
" transform="scale(0.015625)"/>
       </defs>
       <use xlink:href="#DejaVuSans-36"/>
       <use xlink:href="#DejaVuSans-39" x="63.623047"/>
       <use xlink:href="#DejaVuSans-30" x="127.246094"/>
       <use xlink:href="#DejaVuSans-30" x="190.869141"/>
      </g>
     </g>
    </g>
   </g>
   <g id="line2d_15">
    <path d="M 184.581818 492.48 
L 193.216248 479.639236 
L 201.850677 462.946242 
L 210.485106 462.304204 
L 219.119536 455.883822 
L 236.388395 452.673631 
L 245.022824 450.105478 
L 253.657253 448.179363 
L 262.291683 445.61121 
L 270.926112 441.758981 
L 279.560542 431.486369 
L 288.194971 429.560255 
L 296.8294 427.63414 
L 305.46383 418.003567 
L 314.098259 416.077452 
L 322.732689 408.372994 
L 331.367118 405.162803 
L 340.001547 401.310573 
L 348.635977 399.384459 
L 357.270406 397.458344 
L 365.904836 394.248153 
L 374.539265 391.037962 
L 383.173694 388.469809 
L 391.808124 387.185732 
L 400.442553 383.333503 
L 409.076983 382.049427 
L 426.345841 375.629045 
L 434.980271 374.987006 
L 443.6147 371.134777 
L 452.24913 362.146242 
L 460.883559 352.515669 
L 469.517988 350.589554 
L 486.786847 348.021401 
L 495.421277 337.74879 
L 504.055706 337.106752 
L 512.690135 334.538599 
L 521.324565 332.612484 
L 529.958994 330.686369 
L 538.593424 319.129682 
L 547.227853 317.203567 
L 555.862282 314.635414 
L 564.496712 312.709299 
L 573.131141 309.499108 
L 581.765571 296.658344 
L 590.4 293.448153 
L 599.034429 291.522038 
L 607.668859 285.101656 
L 616.303288 282.533503 
L 624.937718 281.891465 
L 633.572147 265.198471 
L 642.206576 261.98828 
L 650.841006 256.209936 
L 659.475435 254.92586 
L 668.109865 252.999745 
L 676.744294 245.295287 
L 685.378723 244.01121 
L 694.013153 242.085096 
L 702.647582 223.465987 
L 711.282012 222.181911 
L 719.916441 220.897834 
L 728.55087 214.477452 
L 737.1853 212.551338 
L 745.819729 197.784459 
L 754.454159 197.14242 
L 763.088588 195.858344 
L 771.723017 192.648153 
L 780.357447 189.437962 
L 788.991876 182.375541 
L 797.626306 179.16535 
L 806.260735 176.597197 
L 814.895164 169.534777 
L 823.529594 159.904204 
L 832.164023 155.409936 
L 840.798453 152.841783 
L 849.432882 151.557707 
L 858.067311 145.779363 
L 866.701741 143.21121 
L 875.33617 139.358981 
L 883.9706 138.074904 
L 892.605029 135.506752 
L 901.239458 132.296561 
L 909.873888 131.012484 
L 918.508317 128.444331 
L 927.142747 125.876178 
L 935.777176 121.381911 
L 944.411605 113.677452 
L 953.046035 107.899108 
L 961.680464 106.615032 
L 978.949323 96.34242 
L 987.583752 91.206115 
L 996.218182 89.28 
" clip-path="url(#p07e1b861a5)" style="fill: none; stroke: #1f77b4; stroke-width: 1.5; stroke-linecap: square"/>
   </g>
   <g id="patch_3">
    <path d="M 144 512.64 
L 144 69.12 
" style="fill: none; stroke: #000000; stroke-width: 0.8; stroke-linejoin: miter; stroke-linecap: square"/>
   </g>
   <g id="patch_4">
    <path d="M 1036.8 512.64 
L 1036.8 69.12 
" style="fill: none; stroke: #000000; stroke-width: 0.8; stroke-linejoin: miter; stroke-linecap: square"/>
   </g>
   <g id="patch_5">
    <path d="M 144 512.64 
L 1036.8 512.64 
" style="fill: none; stroke: #000000; stroke-width: 0.8; stroke-linejoin: miter; stroke-linecap: square"/>
   </g>
   <g id="patch_6">
    <path d="M 144 69.12 
L 1036.8 69.12 
" style="fill: none; stroke: #000000; stroke-width: 0.8; stroke-linejoin: miter; stroke-linecap: square"/>
   </g>
   <g id="text_15">
    <!-- Number of AEDs in the OpenStreetMap database in Poland from 2024-01-01, day by day. As at: 2024-04-04 -->
    <g transform="translate(144 63.12) scale(0.14 -0.14)">
     <defs>
      <path id="DejaVuSans-4e" d="M 628 4666 
L 1478 4666 
L 3547 763 
L 3547 4666 
L 4159 4666 
L 4159 0 
L 3309 0 
L 1241 3903 
L 1241 0 
L 628 0 
L 628 4666 
z
" transform="scale(0.015625)"/>
      <path id="DejaVuSans-75" d="M 544 1381 
L 544 3500 
L 1119 3500 
L 1119 1403 
Q 1119 906 1312 657 
Q 1506 409 1894 409 
Q 2359 409 2629 706 
Q 2900 1003 2900 1516 
L 2900 3500 
L 3475 3500 
L 3475 0 
L 2900 0 
L 2900 538 
Q 2691 219 2414 64 
Q 2138 -91 1772 -91 
Q 1169 -91 856 284 
Q 544 659 544 1381 
z
M 1991 3584 
L 1991 3584 
z
" transform="scale(0.015625)"/>
      <path id="DejaVuSans-6d" d="M 3328 2828 
Q 3544 3216 3844 3400 
Q 4144 3584 4550 3584 
Q 5097 3584 5394 3201 
Q 5691 2819 5691 2113 
L 5691 0 
L 5113 0 
L 5113 2094 
Q 5113 2597 4934 2840 
Q 4756 3084 4391 3084 
Q 3944 3084 3684 2787 
Q 3425 2491 3425 1978 
L 3425 0 
L 2847 0 
L 2847 2094 
Q 2847 2600 2669 2842 
Q 2491 3084 2119 3084 
Q 1678 3084 1418 2786 
Q 1159 2488 1159 1978 
L 1159 0 
L 581 0 
L 581 3500 
L 1159 3500 
L 1159 2956 
Q 1356 3278 1631 3431 
Q 1906 3584 2284 3584 
Q 2666 3584 2933 3390 
Q 3200 3197 3328 2828 
z
" transform="scale(0.015625)"/>
      <path id="DejaVuSans-62" d="M 3116 1747 
Q 3116 2381 2855 2742 
Q 2594 3103 2138 3103 
Q 1681 3103 1420 2742 
Q 1159 2381 1159 1747 
Q 1159 1113 1420 752 
Q 1681 391 2138 391 
Q 2594 391 2855 752 
Q 3116 1113 3116 1747 
z
M 1159 2969 
Q 1341 3281 1617 3432 
Q 1894 3584 2278 3584 
Q 2916 3584 3314 3078 
Q 3713 2572 3713 1747 
Q 3713 922 3314 415 
Q 2916 -91 2278 -91 
Q 1894 -91 1617 61 
Q 1341 213 1159 525 
L 1159 0 
L 581 0 
L 581 4863 
L 1159 4863 
L 1159 2969 
z
" transform="scale(0.015625)"/>
      <path id="DejaVuSans-65" d="M 3597 1894 
L 3597 1613 
L 953 1613 
Q 991 1019 1311 708 
Q 1631 397 2203 397 
Q 2534 397 2845 478 
Q 3156 559 3463 722 
L 3463 178 
Q 3153 47 2828 -22 
Q 2503 -91 2169 -91 
Q 1331 -91 842 396 
Q 353 884 353 1716 
Q 353 2575 817 3079 
Q 1281 3584 2069 3584 
Q 2775 3584 3186 3129 
Q 3597 2675 3597 1894 
z
M 3022 2063 
Q 3016 2534 2758 2815 
Q 2500 3097 2075 3097 
Q 1594 3097 1305 2825 
Q 1016 2553 972 2059 
L 3022 2063 
z
" transform="scale(0.015625)"/>
      <path id="DejaVuSans-72" d="M 2631 2963 
Q 2534 3019 2420 3045 
Q 2306 3072 2169 3072 
Q 1681 3072 1420 2755 
Q 1159 2438 1159 1844 
L 1159 0 
L 581 0 
L 581 3500 
L 1159 3500 
L 1159 2956 
Q 1341 3275 1631 3429 
Q 1922 3584 2338 3584 
Q 2397 3584 2469 3576 
Q 2541 3569 2628 3553 
L 2631 2963 
z
" transform="scale(0.015625)"/>
      <path id="DejaVuSans-20" transform="scale(0.015625)"/>
      <path id="DejaVuSans-6f" d="M 1959 3097 
Q 1497 3097 1228 2736 
Q 959 2375 959 1747 
Q 959 1119 1226 758 
Q 1494 397 1959 397 
Q 2419 397 2687 759 
Q 2956 1122 2956 1747 
Q 2956 2369 2687 2733 
Q 2419 3097 1959 3097 
z
M 1959 3584 
Q 2709 3584 3137 3096 
Q 3566 2609 3566 1747 
Q 3566 888 3137 398 
Q 2709 -91 1959 -91 
Q 1206 -91 779 398 
Q 353 888 353 1747 
Q 353 2609 779 3096 
Q 1206 3584 1959 3584 
z
" transform="scale(0.015625)"/>
      <path id="DejaVuSans-66" d="M 2375 4863 
L 2375 4384 
L 1825 4384 
Q 1516 4384 1395 4259 
Q 1275 4134 1275 3809 
L 1275 3500 
L 2222 3500 
L 2222 3053 
L 1275 3053 
L 1275 0 
L 697 0 
L 697 3053 
L 147 3053 
L 147 3500 
L 697 3500 
L 697 3744 
Q 697 4328 969 4595 
Q 1241 4863 1831 4863 
L 2375 4863 
z
" transform="scale(0.015625)"/>
      <path id="DejaVuSans-41" d="M 2188 4044 
L 1331 1722 
L 3047 1722 
L 2188 4044 
z
M 1831 4666 
L 2547 4666 
L 4325 0 
L 3669 0 
L 3244 1197 
L 1141 1197 
L 716 0 
L 50 0 
L 1831 4666 
z
" transform="scale(0.015625)"/>
      <path id="DejaVuSans-45" d="M 628 4666 
L 3578 4666 
L 3578 4134 
L 1259 4134 
L 1259 2753 
L 3481 2753 
L 3481 2222 
L 1259 2222 
L 1259 531 
L 3634 531 
L 3634 0 
L 628 0 
L 628 4666 
z
" transform="scale(0.015625)"/>
      <path id="DejaVuSans-44" d="M 1259 4147 
L 1259 519 
L 2022 519 
Q 2988 519 3436 956 
Q 3884 1394 3884 2338 
Q 3884 3275 3436 3711 
Q 2988 4147 2022 4147 
L 1259 4147 
z
M 628 4666 
L 1925 4666 
Q 3281 4666 3915 4102 
Q 4550 3538 4550 2338 
Q 4550 1131 3912 565 
Q 3275 0 1925 0 
L 628 0 
L 628 4666 
z
" transform="scale(0.015625)"/>
      <path id="DejaVuSans-73" d="M 2834 3397 
L 2834 2853 
Q 2591 2978 2328 3040 
Q 2066 3103 1784 3103 
Q 1356 3103 1142 2972 
Q 928 2841 928 2578 
Q 928 2378 1081 2264 
Q 1234 2150 1697 2047 
L 1894 2003 
Q 2506 1872 2764 1633 
Q 3022 1394 3022 966 
Q 3022 478 2636 193 
Q 2250 -91 1575 -91 
Q 1294 -91 989 -36 
Q 684 19 347 128 
L 347 722 
Q 666 556 975 473 
Q 1284 391 1588 391 
Q 1994 391 2212 530 
Q 2431 669 2431 922 
Q 2431 1156 2273 1281 
Q 2116 1406 1581 1522 
L 1381 1569 
Q 847 1681 609 1914 
Q 372 2147 372 2553 
Q 372 3047 722 3315 
Q 1072 3584 1716 3584 
Q 2034 3584 2315 3537 
Q 2597 3491 2834 3397 
z
" transform="scale(0.015625)"/>
      <path id="DejaVuSans-69" d="M 603 3500 
L 1178 3500 
L 1178 0 
L 603 0 
L 603 3500 
z
M 603 4863 
L 1178 4863 
L 1178 4134 
L 603 4134 
L 603 4863 
z
" transform="scale(0.015625)"/>
      <path id="DejaVuSans-6e" d="M 3513 2113 
L 3513 0 
L 2938 0 
L 2938 2094 
Q 2938 2591 2744 2837 
Q 2550 3084 2163 3084 
Q 1697 3084 1428 2787 
Q 1159 2491 1159 1978 
L 1159 0 
L 581 0 
L 581 3500 
L 1159 3500 
L 1159 2956 
Q 1366 3272 1645 3428 
Q 1925 3584 2291 3584 
Q 2894 3584 3203 3211 
Q 3513 2838 3513 2113 
z
" transform="scale(0.015625)"/>
      <path id="DejaVuSans-74" d="M 1172 4494 
L 1172 3500 
L 2356 3500 
L 2356 3053 
L 1172 3053 
L 1172 1153 
Q 1172 725 1289 603 
Q 1406 481 1766 481 
L 2356 481 
L 2356 0 
L 1766 0 
Q 1100 0 847 248 
Q 594 497 594 1153 
L 594 3053 
L 172 3053 
L 172 3500 
L 594 3500 
L 594 4494 
L 1172 4494 
z
" transform="scale(0.015625)"/>
      <path id="DejaVuSans-68" d="M 3513 2113 
L 3513 0 
L 2938 0 
L 2938 2094 
Q 2938 2591 2744 2837 
Q 2550 3084 2163 3084 
Q 1697 3084 1428 2787 
Q 1159 2491 1159 1978 
L 1159 0 
L 581 0 
L 581 4863 
L 1159 4863 
L 1159 2956 
Q 1366 3272 1645 3428 
Q 1925 3584 2291 3584 
Q 2894 3584 3203 3211 
Q 3513 2838 3513 2113 
z
" transform="scale(0.015625)"/>
      <path id="DejaVuSans-4f" d="M 2522 4238 
Q 1834 4238 1429 3725 
Q 1025 3213 1025 2328 
Q 1025 1447 1429 934 
Q 1834 422 2522 422 
Q 3209 422 3611 934 
Q 4013 1447 4013 2328 
Q 4013 3213 3611 3725 
Q 3209 4238 2522 4238 
z
M 2522 4750 
Q 3503 4750 4090 4092 
Q 4678 3434 4678 2328 
Q 4678 1225 4090 567 
Q 3503 -91 2522 -91 
Q 1538 -91 948 565 
Q 359 1222 359 2328 
Q 359 3434 948 4092 
Q 1538 4750 2522 4750 
z
" transform="scale(0.015625)"/>
      <path id="DejaVuSans-70" d="M 1159 525 
L 1159 -1331 
L 581 -1331 
L 581 3500 
L 1159 3500 
L 1159 2969 
Q 1341 3281 1617 3432 
Q 1894 3584 2278 3584 
Q 2916 3584 3314 3078 
Q 3713 2572 3713 1747 
Q 3713 922 3314 415 
Q 2916 -91 2278 -91 
Q 1894 -91 1617 61 
Q 1341 213 1159 525 
z
M 3116 1747 
Q 3116 2381 2855 2742 
Q 2594 3103 2138 3103 
Q 1681 3103 1420 2742 
Q 1159 2381 1159 1747 
Q 1159 1113 1420 752 
Q 1681 391 2138 391 
Q 2594 391 2855 752 
Q 3116 1113 3116 1747 
z
" transform="scale(0.015625)"/>
      <path id="DejaVuSans-53" d="M 3425 4513 
L 3425 3897 
Q 3066 4069 2747 4153 
Q 2428 4238 2131 4238 
Q 1616 4238 1336 4038 
Q 1056 3838 1056 3469 
Q 1056 3159 1242 3001 
Q 1428 2844 1947 2747 
L 2328 2669 
Q 3034 2534 3370 2195 
Q 3706 1856 3706 1288 
Q 3706 609 3251 259 
Q 2797 -91 1919 -91 
Q 1588 -91 1214 -16 
Q 841 59 441 206 
L 441 856 
Q 825 641 1194 531 
Q 1563 422 1919 422 
Q 2459 422 2753 634 
Q 3047 847 3047 1241 
Q 3047 1584 2836 1778 
Q 2625 1972 2144 2069 
L 1759 2144 
Q 1053 2284 737 2584 
Q 422 2884 422 3419 
Q 422 4038 858 4394 
Q 1294 4750 2059 4750 
Q 2388 4750 2728 4690 
Q 3069 4631 3425 4513 
z
" transform="scale(0.015625)"/>
      <path id="DejaVuSans-4d" d="M 628 4666 
L 1569 4666 
L 2759 1491 
L 3956 4666 
L 4897 4666 
L 4897 0 
L 4281 0 
L 4281 4097 
L 3078 897 
L 2444 897 
L 1241 4097 
L 1241 0 
L 628 0 
L 628 4666 
z
" transform="scale(0.015625)"/>
      <path id="DejaVuSans-61" d="M 2194 1759 
Q 1497 1759 1228 1600 
Q 959 1441 959 1056 
Q 959 750 1161 570 
Q 1363 391 1709 391 
Q 2188 391 2477 730 
Q 2766 1069 2766 1631 
L 2766 1759 
L 2194 1759 
z
M 3341 1997 
L 3341 0 
L 2766 0 
L 2766 531 
Q 2569 213 2275 61 
Q 1981 -91 1556 -91 
Q 1019 -91 701 211 
Q 384 513 384 1019 
Q 384 1609 779 1909 
Q 1175 2209 1959 2209 
L 2766 2209 
L 2766 2266 
Q 2766 2663 2505 2880 
Q 2244 3097 1772 3097 
Q 1472 3097 1187 3025 
Q 903 2953 641 2809 
L 641 3341 
Q 956 3463 1253 3523 
Q 1550 3584 1831 3584 
Q 2591 3584 2966 3190 
Q 3341 2797 3341 1997 
z
" transform="scale(0.015625)"/>
      <path id="DejaVuSans-64" d="M 2906 2969 
L 2906 4863 
L 3481 4863 
L 3481 0 
L 2906 0 
L 2906 525 
Q 2725 213 2448 61 
Q 2172 -91 1784 -91 
Q 1150 -91 751 415 
Q 353 922 353 1747 
Q 353 2572 751 3078 
Q 1150 3584 1784 3584 
Q 2172 3584 2448 3432 
Q 2725 3281 2906 2969 
z
M 947 1747 
Q 947 1113 1208 752 
Q 1469 391 1925 391 
Q 2381 391 2643 752 
Q 2906 1113 2906 1747 
Q 2906 2381 2643 2742 
Q 2381 3103 1925 3103 
Q 1469 3103 1208 2742 
Q 947 2381 947 1747 
z
" transform="scale(0.015625)"/>
      <path id="DejaVuSans-50" d="M 1259 4147 
L 1259 2394 
L 2053 2394 
Q 2494 2394 2734 2622 
Q 2975 2850 2975 3272 
Q 2975 3691 2734 3919 
Q 2494 4147 2053 4147 
L 1259 4147 
z
M 628 4666 
L 2053 4666 
Q 2838 4666 3239 4311 
Q 3641 3956 3641 3272 
Q 3641 2581 3239 2228 
Q 2838 1875 2053 1875 
L 1259 1875 
L 1259 0 
L 628 0 
L 628 4666 
z
" transform="scale(0.015625)"/>
      <path id="DejaVuSans-6c" d="M 603 4863 
L 1178 4863 
L 1178 0 
L 603 0 
L 603 4863 
z
" transform="scale(0.015625)"/>
      <path id="DejaVuSans-2c" d="M 750 794 
L 1409 794 
L 1409 256 
L 897 -744 
L 494 -744 
L 750 256 
L 750 794 
z
" transform="scale(0.015625)"/>
      <path id="DejaVuSans-79" d="M 2059 -325 
Q 1816 -950 1584 -1140 
Q 1353 -1331 966 -1331 
L 506 -1331 
L 506 -850 
L 844 -850 
Q 1081 -850 1212 -737 
Q 1344 -625 1503 -206 
L 1606 56 
L 191 3500 
L 800 3500 
L 1894 763 
L 2988 3500 
L 3597 3500 
L 2059 -325 
z
" transform="scale(0.015625)"/>
      <path id="DejaVuSans-2e" d="M 684 794 
L 1344 794 
L 1344 0 
L 684 0 
L 684 794 
z
" transform="scale(0.015625)"/>
      <path id="DejaVuSans-3a" d="M 750 794 
L 1409 794 
L 1409 0 
L 750 0 
L 750 794 
z
M 750 3309 
L 1409 3309 
L 1409 2516 
L 750 2516 
L 750 3309 
z
" transform="scale(0.015625)"/>
     </defs>
     <use xlink:href="#DejaVuSans-4e"/>
     <use xlink:href="#DejaVuSans-75" x="74.804688"/>
     <use xlink:href="#DejaVuSans-6d" x="138.183594"/>
     <use xlink:href="#DejaVuSans-62" x="235.595703"/>
     <use xlink:href="#DejaVuSans-65" x="299.072266"/>
     <use xlink:href="#DejaVuSans-72" x="360.595703"/>
     <use xlink:href="#DejaVuSans-20" x="401.708984"/>
     <use xlink:href="#DejaVuSans-6f" x="433.496094"/>
     <use xlink:href="#DejaVuSans-66" x="494.677734"/>
     <use xlink:href="#DejaVuSans-20" x="529.882812"/>
     <use xlink:href="#DejaVuSans-41" x="561.669922"/>
     <use xlink:href="#DejaVuSans-45" x="630.078125"/>
     <use xlink:href="#DejaVuSans-44" x="693.261719"/>
     <use xlink:href="#DejaVuSans-73" x="770.263672"/>
     <use xlink:href="#DejaVuSans-20" x="822.363281"/>
     <use xlink:href="#DejaVuSans-69" x="854.150391"/>
     <use xlink:href="#DejaVuSans-6e" x="881.933594"/>
     <use xlink:href="#DejaVuSans-20" x="945.3125"/>
     <use xlink:href="#DejaVuSans-74" x="977.099609"/>
     <use xlink:href="#DejaVuSans-68" x="1016.308594"/>
     <use xlink:href="#DejaVuSans-65" x="1079.6875"/>
     <use xlink:href="#DejaVuSans-20" x="1141.210938"/>
     <use xlink:href="#DejaVuSans-4f" x="1172.998047"/>
     <use xlink:href="#DejaVuSans-70" x="1251.708984"/>
     <use xlink:href="#DejaVuSans-65" x="1315.185547"/>
     <use xlink:href="#DejaVuSans-6e" x="1376.708984"/>
     <use xlink:href="#DejaVuSans-53" x="1440.087891"/>
     <use xlink:href="#DejaVuSans-74" x="1503.564453"/>
     <use xlink:href="#DejaVuSans-72" x="1542.773438"/>
     <use xlink:href="#DejaVuSans-65" x="1581.636719"/>
     <use xlink:href="#DejaVuSans-65" x="1643.160156"/>
     <use xlink:href="#DejaVuSans-74" x="1704.683594"/>
     <use xlink:href="#DejaVuSans-4d" x="1743.892578"/>
     <use xlink:href="#DejaVuSans-61" x="1830.171875"/>
     <use xlink:href="#DejaVuSans-70" x="1891.451172"/>
     <use xlink:href="#DejaVuSans-20" x="1954.927734"/>
     <use xlink:href="#DejaVuSans-64" x="1986.714844"/>
     <use xlink:href="#DejaVuSans-61" x="2050.191406"/>
     <use xlink:href="#DejaVuSans-74" x="2111.470703"/>
     <use xlink:href="#DejaVuSans-61" x="2150.679688"/>
     <use xlink:href="#DejaVuSans-62" x="2211.958984"/>
     <use xlink:href="#DejaVuSans-61" x="2275.435547"/>
     <use xlink:href="#DejaVuSans-73" x="2336.714844"/>
     <use xlink:href="#DejaVuSans-65" x="2388.814453"/>
     <use xlink:href="#DejaVuSans-20" x="2450.337891"/>
     <use xlink:href="#DejaVuSans-69" x="2482.125"/>
     <use xlink:href="#DejaVuSans-6e" x="2509.908203"/>
     <use xlink:href="#DejaVuSans-20" x="2573.287109"/>
     <use xlink:href="#DejaVuSans-50" x="2605.074219"/>
     <use xlink:href="#DejaVuSans-6f" x="2661.751953"/>
     <use xlink:href="#DejaVuSans-6c" x="2722.933594"/>
     <use xlink:href="#DejaVuSans-61" x="2750.716797"/>
     <use xlink:href="#DejaVuSans-6e" x="2811.996094"/>
     <use xlink:href="#DejaVuSans-64" x="2875.375"/>
     <use xlink:href="#DejaVuSans-20" x="2938.851562"/>
     <use xlink:href="#DejaVuSans-66" x="2970.638672"/>
     <use xlink:href="#DejaVuSans-72" x="3005.84375"/>
     <use xlink:href="#DejaVuSans-6f" x="3044.707031"/>
     <use xlink:href="#DejaVuSans-6d" x="3105.888672"/>
     <use xlink:href="#DejaVuSans-20" x="3203.300781"/>
     <use xlink:href="#DejaVuSans-32" x="3235.087891"/>
     <use xlink:href="#DejaVuSans-30" x="3298.710938"/>
     <use xlink:href="#DejaVuSans-32" x="3362.333984"/>
     <use xlink:href="#DejaVuSans-34" x="3425.957031"/>
     <use xlink:href="#DejaVuSans-2d" x="3489.580078"/>
     <use xlink:href="#DejaVuSans-30" x="3525.664062"/>
     <use xlink:href="#DejaVuSans-31" x="3589.287109"/>
     <use xlink:href="#DejaVuSans-2d" x="3652.910156"/>
     <use xlink:href="#DejaVuSans-30" x="3688.994141"/>
     <use xlink:href="#DejaVuSans-31" x="3752.617188"/>
     <use xlink:href="#DejaVuSans-2c" x="3816.240234"/>
     <use xlink:href="#DejaVuSans-20" x="3848.027344"/>
     <use xlink:href="#DejaVuSans-64" x="3879.814453"/>
     <use xlink:href="#DejaVuSans-61" x="3943.291016"/>
     <use xlink:href="#DejaVuSans-79" x="4004.570312"/>
     <use xlink:href="#DejaVuSans-20" x="4063.75"/>
     <use xlink:href="#DejaVuSans-62" x="4095.537109"/>
     <use xlink:href="#DejaVuSans-79" x="4159.013672"/>
     <use xlink:href="#DejaVuSans-20" x="4218.193359"/>
     <use xlink:href="#DejaVuSans-64" x="4249.980469"/>
     <use xlink:href="#DejaVuSans-61" x="4313.457031"/>
     <use xlink:href="#DejaVuSans-79" x="4374.736328"/>
     <use xlink:href="#DejaVuSans-2e" x="4419.666016"/>
     <use xlink:href="#DejaVuSans-20" x="4451.453125"/>
     <use xlink:href="#DejaVuSans-41" x="4483.240234"/>
     <use xlink:href="#DejaVuSans-73" x="4551.648438"/>
     <use xlink:href="#DejaVuSans-20" x="4603.748047"/>
     <use xlink:href="#DejaVuSans-61" x="4635.535156"/>
     <use xlink:href="#DejaVuSans-74" x="4696.814453"/>
     <use xlink:href="#DejaVuSans-3a" x="4736.023438"/>
     <use xlink:href="#DejaVuSans-20" x="4769.714844"/>
     <use xlink:href="#DejaVuSans-32" x="4801.501953"/>
     <use xlink:href="#DejaVuSans-30" x="4865.125"/>
     <use xlink:href="#DejaVuSans-32" x="4928.748047"/>
     <use xlink:href="#DejaVuSans-34" x="4992.371094"/>
     <use xlink:href="#DejaVuSans-2d" x="5055.994141"/>
     <use xlink:href="#DejaVuSans-30" x="5092.078125"/>
     <use xlink:href="#DejaVuSans-34" x="5155.701172"/>
     <use xlink:href="#DejaVuSans-2d" x="5219.324219"/>
     <use xlink:href="#DejaVuSans-30" x="5255.408203"/>
     <use xlink:href="#DejaVuSans-34" x="5319.03125"/>
    </g>
   </g>
  </g>
 </g>
 <defs>
  <clipPath id="p07e1b861a5">
   <rect x="144" y="69.12" width="892.8" height="443.52"/>
  </clipPath>
 </defs>
</svg>
