<?xml version="1.0" encoding="utf-8" standalone="no"?>
<!DOCTYPE svg PUBLIC "-//W3C//DTD SVG 1.1//EN"
  "http://www.w3.org/Graphics/SVG/1.1/DTD/svg11.dtd">
<svg xmlns:xlink="http://www.w3.org/1999/xlink" width="1152pt" height="576pt" viewBox="0 0 1152 576" xmlns="http://www.w3.org/2000/svg" version="1.1">
 <metadata>
  <rdf:RDF xmlns:dc="http://purl.org/dc/elements/1.1/" xmlns:cc="http://creativecommons.org/ns#" xmlns:rdf="http://www.w3.org/1999/02/22-rdf-syntax-ns#">
   <cc:Work>
    <dc:type rdf:resource="http://purl.org/dc/dcmitype/StillImage"/>
    <dc:date>1980-01-01T00:00:00+00:00</dc:date>
    <dc:format>image/svg+xml</dc:format>
    <dc:creator>
     <cc:Agent>
      <dc:title>Matplotlib v3.9.1, https://matplotlib.org/</dc:title>
     </cc:Agent>
    </dc:creator>
   </cc:Work>
  </rdf:RDF>
 </metadata>
 <defs>
  <style type="text/css">*{stroke-linejoin: round; stroke-linecap: butt}</style>
 </defs>
 <g id="figure_1">
  <g id="patch_1">
   <path d="M 0 576 
L 1152 576 
L 1152 0 
L 0 0 
z
" style="fill: #ffffff"/>
  </g>
  <g id="axes_1">
   <g id="patch_2">
    <path d="M 144 512.64 
L 1036.8 512.64 
L 1036.8 69.12 
L 144 69.12 
z
" style="fill: #ffffff"/>
   </g>
   <g id="PathCollection_1">
    <path d="M 184.581818 494.716068 
C 185.17483 494.716068 185.743634 494.480462 186.162957 494.061139 
C 186.58228 493.641816 186.817886 493.073012 186.817886 492.48 
C 186.817886 491.886988 186.58228 491.318184 186.162957 490.898861 
C 185.743634 490.479538 185.17483 490.243932 184.581818 490.243932 
C 183.988806 490.243932 183.420002 490.479538 183.000679 490.898861 
C 182.581356 491.318184 182.34575 491.886988 182.34575 492.48 
C 182.34575 493.073012 182.581356 493.641816 183.000679 494.061139 
C 183.420002 494.480462 183.988806 494.716068 184.581818 494.716068 
z
" clip-path="url(#p240c9d5240)" style="fill: #1f77b4; fill-opacity: 0.3; stroke: #1f77b4; stroke-opacity: 0.3"/>
    <path d="M 196.879339 495.157662 
C 197.816973 495.157662 198.716331 494.785135 199.379339 494.122128 
C 200.042347 493.45912 200.414873 492.559762 200.414873 491.622128 
C 200.414873 490.684493 200.042347 489.785135 199.379339 489.122128 
C 198.716331 488.45912 197.816973 488.086594 196.879339 488.086594 
C 195.941704 488.086594 195.042347 488.45912 194.379339 489.122128 
C 193.716331 489.785135 193.343805 490.684493 193.343805 491.622128 
C 193.343805 492.559762 193.716331 493.45912 194.379339 494.122128 
C 195.042347 494.785135 195.941704 495.157662 196.879339 495.157662 
z
" clip-path="url(#p240c9d5240)" style="fill: #1f77b4; fill-opacity: 0.3; stroke: #1f77b4; stroke-opacity: 0.3"/>
    <path d="M 209.17686 495.172235 
C 210.80089 495.172235 212.358623 494.527001 213.506987 493.378638 
C 214.65535 492.230275 215.300584 490.672541 215.300584 489.048511 
C 215.300584 487.42448 214.65535 485.866747 213.506987 484.718384 
C 212.358623 483.570021 210.80089 482.924786 209.17686 482.924786 
C 207.552829 482.924786 205.995096 483.570021 204.846732 484.718384 
C 203.698369 485.866747 203.053135 487.42448 203.053135 489.048511 
C 203.053135 490.672541 203.698369 492.230275 204.846732 493.378638 
C 205.995096 494.527001 207.552829 495.172235 209.17686 495.172235 
z
" clip-path="url(#p240c9d5240)" style="fill: #1f77b4; fill-opacity: 0.3; stroke: #1f77b4; stroke-opacity: 0.3"/>
    <path d="M 221.47438 491.2724 
C 222.200669 491.2724 222.897308 490.983843 223.410872 490.470279 
C 223.924435 489.956715 224.212993 489.260076 224.212993 488.533787 
C 224.212993 487.807499 223.924435 487.110859 223.410872 486.597296 
C 222.897308 486.083732 222.200669 485.795174 221.47438 485.795174 
C 220.748092 485.795174 220.051452 486.083732 219.537888 486.597296 
C 219.024325 487.110859 218.735767 487.807499 218.735767 488.533787 
C 218.735767 489.260076 219.024325 489.956715 219.537888 490.470279 
C 220.051452 490.983843 220.748092 491.2724 221.47438 491.2724 
z
" clip-path="url(#p240c9d5240)" style="fill: #1f77b4; fill-opacity: 0.3; stroke: #1f77b4; stroke-opacity: 0.3"/>
    <path d="M 233.771901 491.633327 
C 234.957925 491.633327 236.095533 491.162115 236.934178 490.323469 
C 237.772824 489.484823 238.244037 488.347216 238.244037 487.161191 
C 238.244037 485.975167 237.772824 484.83756 236.934178 483.998914 
C 236.095533 483.160268 234.957925 482.689056 233.771901 482.689056 
C 232.585877 482.689056 231.448269 483.160268 230.609623 483.998914 
C 229.770977 484.83756 229.299765 485.975167 229.299765 487.161191 
C 229.299765 488.347216 229.770977 489.484823 230.609623 490.323469 
C 231.448269 491.162115 232.585877 491.633327 233.771901 491.633327 
z
" clip-path="url(#p240c9d5240)" style="fill: #1f77b4; fill-opacity: 0.3; stroke: #1f77b4; stroke-opacity: 0.3"/>
    <path d="M 246.069421 490.445447 
C 247.395437 490.445447 248.667321 489.918615 249.604955 488.980981 
C 250.54259 488.043346 251.069421 486.771462 251.069421 485.445447 
C 251.069421 484.119431 250.54259 482.847547 249.604955 481.909913 
C 248.667321 480.972278 247.395437 480.445447 246.069421 480.445447 
C 244.743406 480.445447 243.471522 480.972278 242.533888 481.909913 
C 241.596253 482.847547 241.069421 484.119431 241.069421 485.445447 
C 241.069421 486.771462 241.596253 488.043346 242.533888 488.980981 
C 243.471522 489.918615 244.743406 490.445447 246.069421 490.445447 
z
" clip-path="url(#p240c9d5240)" style="fill: #1f77b4; fill-opacity: 0.3; stroke: #1f77b4; stroke-opacity: 0.3"/>
    <path d="M 258.366942 487.338366 
C 258.959954 487.338366 259.528758 487.10276 259.948081 486.683437 
C 260.367404 486.264114 260.60301 485.69531 260.60301 485.102298 
C 260.60301 484.509286 260.367404 483.940482 259.948081 483.521159 
C 259.528758 483.101836 258.959954 482.86623 258.366942 482.86623 
C 257.77393 482.86623 257.205126 483.101836 256.785803 483.521159 
C 256.36648 483.940482 256.130874 484.509286 256.130874 485.102298 
C 256.130874 485.69531 256.36648 486.264114 256.785803 486.683437 
C 257.205126 487.10276 257.77393 487.338366 258.366942 487.338366 
z
" clip-path="url(#p240c9d5240)" style="fill: #1f77b4; fill-opacity: 0.3; stroke: #1f77b4; stroke-opacity: 0.3"/>
    <path d="M 270.664463 488.201838 
C 271.850487 488.201838 272.988095 487.730626 273.82674 486.89198 
C 274.665386 486.053334 275.136599 484.915726 275.136599 483.729702 
C 275.136599 482.543678 274.665386 481.40607 273.82674 480.567424 
C 272.988095 479.728779 271.850487 479.257566 270.664463 479.257566 
C 269.478438 479.257566 268.340831 479.728779 267.502185 480.567424 
C 266.663539 481.40607 266.192327 482.543678 266.192327 483.729702 
C 266.192327 484.915726 266.663539 486.053334 267.502185 486.89198 
C 268.340831 487.730626 269.478438 488.201838 270.664463 488.201838 
z
" clip-path="url(#p240c9d5240)" style="fill: #1f77b4; fill-opacity: 0.3; stroke: #1f77b4; stroke-opacity: 0.3"/>
    <path d="M 282.961983 485.953592 
C 283.688272 485.953592 284.384912 485.665034 284.898475 485.15147 
C 285.412039 484.637907 285.700596 483.941267 285.700596 483.214979 
C 285.700596 482.48869 285.412039 481.792051 284.898475 481.278487 
C 284.384912 480.764923 283.688272 480.476366 282.961983 480.476366 
C 282.235695 480.476366 281.539055 480.764923 281.025492 481.278487 
C 280.511928 481.792051 280.223371 482.48869 280.223371 483.214979 
C 280.223371 483.941267 280.511928 484.637907 281.025492 485.15147 
C 281.539055 485.665034 282.235695 485.953592 282.961983 485.953592 
z
" clip-path="url(#p240c9d5240)" style="fill: #1f77b4; fill-opacity: 0.3; stroke: #1f77b4; stroke-opacity: 0.3"/>
    <path d="M 295.259504 485.690959 
C 296.09815 485.690959 296.90256 485.357761 297.495572 484.764749 
C 298.088584 484.171737 298.421782 483.367327 298.421782 482.528681 
C 298.421782 481.690035 298.088584 480.885625 297.495572 480.292613 
C 296.90256 479.699601 296.09815 479.366403 295.259504 479.366403 
C 294.420858 479.366403 293.616448 479.699601 293.023436 480.292613 
C 292.430424 480.885625 292.097226 481.690035 292.097226 482.528681 
C 292.097226 483.367327 292.430424 484.171737 293.023436 484.764749 
C 293.616448 485.357761 294.420858 485.690959 295.259504 485.690959 
z
" clip-path="url(#p240c9d5240)" style="fill: #1f77b4; fill-opacity: 0.3; stroke: #1f77b4; stroke-opacity: 0.3"/>
    <path d="M 307.557025 484.4216 
C 308.150037 484.4216 308.718841 484.185994 309.138164 483.766671 
C 309.557487 483.347348 309.793093 482.778544 309.793093 482.185532 
C 309.793093 481.59252 309.557487 481.023716 309.138164 480.604393 
C 308.718841 480.18507 308.150037 479.949464 307.557025 479.949464 
C 306.964013 479.949464 306.395209 480.18507 305.975886 480.604393 
C 305.556563 481.023716 305.320957 481.59252 305.320957 482.185532 
C 305.320957 482.778544 305.556563 483.347348 305.975886 483.766671 
C 306.395209 484.185994 306.964013 484.4216 307.557025 484.4216 
z
" clip-path="url(#p240c9d5240)" style="fill: #1f77b4; fill-opacity: 0.3; stroke: #1f77b4; stroke-opacity: 0.3"/>
    <path d="M 319.854545 484.863193 
C 320.79218 484.863193 321.691538 484.490667 322.354545 483.82766 
C 323.017553 483.164652 323.390079 482.265294 323.390079 481.32766 
C 323.390079 480.390025 323.017553 479.490667 322.354545 478.82766 
C 321.691538 478.164652 320.79218 477.792126 319.854545 477.792126 
C 318.916911 477.792126 318.017553 478.164652 317.354545 478.82766 
C 316.691538 479.490667 316.319012 480.390025 316.319012 481.32766 
C 316.319012 482.265294 316.691538 483.164652 317.354545 483.82766 
C 318.017553 484.490667 318.916911 484.863193 319.854545 484.863193 
z
" clip-path="url(#p240c9d5240)" style="fill: #1f77b4; fill-opacity: 0.3; stroke: #1f77b4; stroke-opacity: 0.3"/>
    <path d="M 332.152066 483.803639 
C 332.990712 483.803639 333.795122 483.470442 334.388134 482.87743 
C 334.981146 482.284418 335.314344 481.480008 335.314344 480.641362 
C 335.314344 479.802716 334.981146 478.998306 334.388134 478.405294 
C 333.795122 477.812282 332.990712 477.479084 332.152066 477.479084 
C 331.31342 477.479084 330.50901 477.812282 329.915998 478.405294 
C 329.322986 478.998306 328.989788 479.802716 328.989788 480.641362 
C 328.989788 481.480008 329.322986 482.284418 329.915998 482.87743 
C 330.50901 483.470442 331.31342 483.803639 332.152066 483.803639 
z
" clip-path="url(#p240c9d5240)" style="fill: #1f77b4; fill-opacity: 0.3; stroke: #1f77b4; stroke-opacity: 0.3"/>
    <path d="M 344.449587 483.319023 
C 345.387221 483.319023 346.286579 482.946497 346.949587 482.283489 
C 347.612595 481.620482 347.985121 480.721124 347.985121 479.783489 
C 347.985121 478.845855 347.612595 477.946497 346.949587 477.283489 
C 346.286579 476.620482 345.387221 476.247955 344.449587 476.247955 
C 343.511952 476.247955 342.612595 476.620482 341.949587 477.283489 
C 341.286579 477.946497 340.914053 478.845855 340.914053 479.783489 
C 340.914053 480.721124 341.286579 481.620482 341.949587 482.283489 
C 342.612595 482.946497 343.511952 483.319023 344.449587 483.319023 
z
" clip-path="url(#p240c9d5240)" style="fill: #1f77b4; fill-opacity: 0.3; stroke: #1f77b4; stroke-opacity: 0.3"/>
    <path d="M 356.747107 482.461151 
C 357.684742 482.461151 358.5841 482.088625 359.247107 481.425617 
C 359.910115 480.762609 360.282641 479.863252 360.282641 478.925617 
C 360.282641 477.987982 359.910115 477.088625 359.247107 476.425617 
C 358.5841 475.762609 357.684742 475.390083 356.747107 475.390083 
C 355.809473 475.390083 354.910115 475.762609 354.247107 476.425617 
C 353.5841 477.088625 353.211574 477.987982 353.211574 478.925617 
C 353.211574 479.863252 353.5841 480.762609 354.247107 481.425617 
C 354.910115 482.088625 355.809473 482.461151 356.747107 482.461151 
z
" clip-path="url(#p240c9d5240)" style="fill: #1f77b4; fill-opacity: 0.3; stroke: #1f77b4; stroke-opacity: 0.3"/>
    <path d="M 369.044628 481.769154 
C 370.071755 481.769154 371.056952 481.361072 371.783241 480.634783 
C 372.509529 479.908494 372.917611 478.923297 372.917611 477.89617 
C 372.917611 476.869043 372.509529 475.883846 371.783241 475.157557 
C 371.056952 474.431269 370.071755 474.023187 369.044628 474.023187 
C 368.017501 474.023187 367.032304 474.431269 366.306015 475.157557 
C 365.579727 475.883846 365.171645 476.869043 365.171645 477.89617 
C 365.171645 478.923297 365.579727 479.908494 366.306015 480.634783 
C 367.032304 481.361072 368.017501 481.769154 369.044628 481.769154 
z
" clip-path="url(#p240c9d5240)" style="fill: #1f77b4; fill-opacity: 0.3; stroke: #1f77b4; stroke-opacity: 0.3"/>
    <path d="M 381.342149 480.573832 
C 382.279783 480.573832 383.179141 480.201306 383.842149 479.538298 
C 384.505157 478.87529 384.877683 477.975932 384.877683 477.038298 
C 384.877683 476.100663 384.505157 475.201306 383.842149 474.538298 
C 383.179141 473.87529 382.279783 473.502764 381.342149 473.502764 
C 380.404514 473.502764 379.505157 473.87529 378.842149 474.538298 
C 378.179141 475.201306 377.806615 476.100663 377.806615 477.038298 
C 377.806615 477.975932 378.179141 478.87529 378.842149 479.538298 
C 379.505157 480.201306 380.404514 480.573832 381.342149 480.573832 
z
" clip-path="url(#p240c9d5240)" style="fill: #1f77b4; fill-opacity: 0.3; stroke: #1f77b4; stroke-opacity: 0.3"/>
    <path d="M 393.639669 479.881834 
C 394.666797 479.881834 395.651994 479.473752 396.378282 478.747464 
C 397.104571 478.021175 397.512653 477.035978 397.512653 476.008851 
C 397.512653 474.981724 397.104571 473.996527 396.378282 473.270238 
C 395.651994 472.54395 394.666797 472.135868 393.639669 472.135868 
C 392.612542 472.135868 391.627345 472.54395 390.901057 473.270238 
C 390.174768 473.996527 389.766686 474.981724 389.766686 476.008851 
C 389.766686 477.035978 390.174768 478.021175 390.901057 478.747464 
C 391.627345 479.473752 392.612542 479.881834 393.639669 479.881834 
z
" clip-path="url(#p240c9d5240)" style="fill: #1f77b4; fill-opacity: 0.3; stroke: #1f77b4; stroke-opacity: 0.3"/>
    <path d="M 405.93719 478.99113 
C 407.046614 478.99113 408.110749 478.550351 408.89523 477.76587 
C 409.679711 476.981388 410.12049 475.917254 410.12049 474.80783 
C 410.12049 473.698406 409.679711 472.634271 408.89523 471.84979 
C 408.110749 471.065309 407.046614 470.62453 405.93719 470.62453 
C 404.827766 470.62453 403.763632 471.065309 402.97915 471.84979 
C 402.194669 472.634271 401.75389 473.698406 401.75389 474.80783 
C 401.75389 475.917254 402.194669 476.981388 402.97915 477.76587 
C 403.763632 478.550351 404.827766 478.99113 405.93719 478.99113 
z
" clip-path="url(#p240c9d5240)" style="fill: #1f77b4; fill-opacity: 0.3; stroke: #1f77b4; stroke-opacity: 0.3"/>
    <path d="M 418.234711 477.790109 
C 419.344135 477.790109 420.408269 477.34933 421.192751 476.564848 
C 421.977232 475.780367 422.418011 474.716233 422.418011 473.606809 
C 422.418011 472.497384 421.977232 471.43325 421.192751 470.648769 
C 420.408269 469.864287 419.344135 469.423508 418.234711 469.423508 
C 417.125287 469.423508 416.061152 469.864287 415.276671 470.648769 
C 414.49219 471.43325 414.051411 472.497384 414.051411 473.606809 
C 414.051411 474.716233 414.49219 475.780367 415.276671 476.564848 
C 416.061152 477.34933 417.125287 477.790109 418.234711 477.790109 
z
" clip-path="url(#p240c9d5240)" style="fill: #1f77b4; fill-opacity: 0.3; stroke: #1f77b4; stroke-opacity: 0.3"/>
    <path d="M 430.532231 476.450345 
C 431.559359 476.450345 432.544556 476.042263 433.270844 475.315974 
C 433.997133 474.589686 434.405215 473.604489 434.405215 472.577362 
C 434.405215 471.550235 433.997133 470.565038 433.270844 469.838749 
C 432.544556 469.11246 431.559359 468.704378 430.532231 468.704378 
C 429.505104 468.704378 428.519907 469.11246 427.793619 469.838749 
C 427.06733 470.565038 426.659248 471.550235 426.659248 472.577362 
C 426.659248 473.604489 427.06733 474.589686 427.793619 475.315974 
C 428.519907 476.042263 429.505104 476.450345 430.532231 476.450345 
z
" clip-path="url(#p240c9d5240)" style="fill: #1f77b4; fill-opacity: 0.3; stroke: #1f77b4; stroke-opacity: 0.3"/>
    <path d="M 442.829752 475.934087 
C 444.220489 475.934087 445.554452 475.381541 446.537851 474.398142 
C 447.521251 473.414742 448.073796 472.080779 448.073796 470.690043 
C 448.073796 469.299306 447.521251 467.965343 446.537851 466.981943 
C 445.554452 465.998544 444.220489 465.445998 442.829752 465.445998 
C 441.439015 465.445998 440.105052 465.998544 439.121653 466.981943 
C 438.138253 467.965343 437.585708 469.299306 437.585708 470.690043 
C 437.585708 472.080779 438.138253 473.414742 439.121653 474.398142 
C 440.105052 475.381541 441.439015 475.934087 442.829752 475.934087 
z
" clip-path="url(#p240c9d5240)" style="fill: #1f77b4; fill-opacity: 0.3; stroke: #1f77b4; stroke-opacity: 0.3"/>
    <path d="M 455.127273 474.269406 
C 456.804564 474.269406 458.413384 473.603011 459.599409 472.416987 
C 460.785433 471.230963 461.451828 469.622143 461.451828 467.944851 
C 461.451828 466.267559 460.785433 464.658739 459.599409 463.472715 
C 458.413384 462.286691 456.804564 461.620296 455.127273 461.620296 
C 453.449981 461.620296 451.841161 462.286691 450.655137 463.472715 
C 449.469112 464.658739 448.802717 466.267559 448.802717 467.944851 
C 448.802717 469.622143 449.469112 471.230963 450.655137 472.416987 
C 451.841161 473.603011 453.449981 474.269406 455.127273 474.269406 
z
" clip-path="url(#p240c9d5240)" style="fill: #1f77b4; fill-opacity: 0.3; stroke: #1f77b4; stroke-opacity: 0.3"/>
    <path d="M 467.424793 471.573031 
C 469.479048 471.573031 471.449442 470.756867 472.902019 469.304289 
C 474.354596 467.851712 475.17076 465.881318 475.17076 463.827064 
C 475.17076 461.772809 474.354596 459.802415 472.902019 458.349838 
C 471.449442 456.897261 469.479048 456.081097 467.424793 456.081097 
C 465.370539 456.081097 463.400145 456.897261 461.947568 458.349838 
C 460.494991 459.802415 459.678827 461.772809 459.678827 463.827064 
C 459.678827 465.881318 460.494991 467.851712 461.947568 469.304289 
C 463.400145 470.756867 465.370539 471.573031 467.424793 471.573031 
z
" clip-path="url(#p240c9d5240)" style="fill: #1f77b4; fill-opacity: 0.3; stroke: #1f77b4; stroke-opacity: 0.3"/>
    <path d="M 479.722314 466.809343 
C 480.831738 466.809343 481.895873 466.368564 482.680354 465.584082 
C 483.464835 464.799601 483.905614 463.735467 483.905614 462.626043 
C 483.905614 461.516618 483.464835 460.452484 482.680354 459.668003 
C 481.895873 458.883521 480.831738 458.442742 479.722314 458.442742 
C 478.61289 458.442742 477.548756 458.883521 476.764274 459.668003 
C 475.979793 460.452484 475.539014 461.516618 475.539014 462.626043 
C 475.539014 463.735467 475.979793 464.799601 476.764274 465.584082 
C 477.548756 466.368564 478.61289 466.809343 479.722314 466.809343 
z
" clip-path="url(#p240c9d5240)" style="fill: #1f77b4; fill-opacity: 0.3; stroke: #1f77b4; stroke-opacity: 0.3"/>
    <path d="M 492.019835 466.096452 
C 493.531725 466.096452 494.981896 465.495771 496.050964 464.426703 
C 497.120031 463.357635 497.720712 461.907465 497.720712 460.395574 
C 497.720712 458.883684 497.120031 457.433513 496.050964 456.364446 
C 494.981896 455.295378 493.531725 454.694697 492.019835 454.694697 
C 490.507944 454.694697 489.057774 455.295378 487.988706 456.364446 
C 486.919638 457.433513 486.318958 458.883684 486.318958 460.395574 
C 486.318958 461.907465 486.919638 463.357635 487.988706 464.426703 
C 489.057774 465.495771 490.507944 466.096452 492.019835 466.096452 
z
" clip-path="url(#p240c9d5240)" style="fill: #1f77b4; fill-opacity: 0.3; stroke: #1f77b4; stroke-opacity: 0.3"/>
    <path d="M 504.317355 463.865984 
C 505.829246 463.865984 507.279416 463.265303 508.348484 462.196235 
C 509.417552 461.127167 510.018232 459.676997 510.018232 458.165106 
C 510.018232 456.653216 509.417552 455.203045 508.348484 454.133978 
C 507.279416 453.06491 505.829246 452.464229 504.317355 452.464229 
C 502.805465 452.464229 501.355294 453.06491 500.286226 454.133978 
C 499.217159 455.203045 498.616478 456.653216 498.616478 458.165106 
C 498.616478 459.676997 499.217159 461.127167 500.286226 462.196235 
C 501.355294 463.265303 502.805465 463.865984 504.317355 463.865984 
z
" clip-path="url(#p240c9d5240)" style="fill: #1f77b4; fill-opacity: 0.3; stroke: #1f77b4; stroke-opacity: 0.3"/>
    <path d="M 516.614876 461.5861 
C 519.023703 461.5861 521.334195 460.629063 523.037492 458.925765 
C 524.74079 457.222467 525.697827 454.911976 525.697827 452.503149 
C 525.697827 450.094322 524.74079 447.78383 523.037492 446.080533 
C 521.334195 444.377235 519.023703 443.420198 516.614876 443.420198 
C 514.206049 443.420198 511.895557 444.377235 510.19226 446.080533 
C 508.488962 447.78383 507.531925 450.094322 507.531925 452.503149 
C 507.531925 454.911976 508.488962 457.222467 510.19226 458.925765 
C 511.895557 460.629063 514.206049 461.5861 516.614876 461.5861 
z
" clip-path="url(#p240c9d5240)" style="fill: #1f77b4; fill-opacity: 0.3; stroke: #1f77b4; stroke-opacity: 0.3"/>
    <path d="M 528.912397 455.987749 
C 531.247088 455.987749 533.486471 455.060166 535.137346 453.40929 
C 536.788222 451.758414 537.715805 449.519032 537.715805 447.18434 
C 537.715805 444.849649 536.788222 442.610267 535.137346 440.959391 
C 533.486471 439.308515 531.247088 438.380932 528.912397 438.380932 
C 526.577705 438.380932 524.338323 439.308515 522.687447 440.959391 
C 521.036571 442.610267 520.108988 444.849649 520.108988 447.18434 
C 520.108988 449.519032 521.036571 451.758414 522.687447 453.40929 
C 524.338323 455.060166 526.577705 455.987749 528.912397 455.987749 
z
" clip-path="url(#p240c9d5240)" style="fill: #1f77b4; fill-opacity: 0.3; stroke: #1f77b4; stroke-opacity: 0.3"/>
    <path d="M 541.209917 450.605334 
C 543.618744 450.605334 545.929236 449.648297 547.632534 447.944999 
C 549.335831 446.241702 550.292868 443.93121 550.292868 441.522383 
C 550.292868 439.113556 549.335831 436.803064 547.632534 435.099767 
C 545.929236 433.396469 543.618744 432.439432 541.209917 432.439432 
C 538.801091 432.439432 536.490599 433.396469 534.787301 435.099767 
C 533.084003 436.803064 532.126966 439.113556 532.126966 441.522383 
C 532.126966 443.93121 533.084003 446.241702 534.787301 447.944999 
C 536.490599 449.648297 538.801091 450.605334 541.209917 450.605334 
z
" clip-path="url(#p240c9d5240)" style="fill: #1f77b4; fill-opacity: 0.3; stroke: #1f77b4; stroke-opacity: 0.3"/>
    <path d="M 553.507438 444.87142 
C 555.988186 444.87142 558.367663 443.885808 560.121816 442.131655 
C 561.87597 440.377501 562.861581 437.998024 562.861581 435.517277 
C 562.861581 433.036529 561.87597 430.657052 560.121816 428.902898 
C 558.367663 427.148745 555.988186 426.163133 553.507438 426.163133 
C 551.02669 426.163133 548.647213 427.148745 546.89306 428.902898 
C 545.138906 430.657052 544.153295 433.036529 544.153295 435.517277 
C 544.153295 437.998024 545.138906 440.377501 546.89306 442.131655 
C 548.647213 443.885808 551.02669 444.87142 553.507438 444.87142 
z
" clip-path="url(#p240c9d5240)" style="fill: #1f77b4; fill-opacity: 0.3; stroke: #1f77b4; stroke-opacity: 0.3"/>
    <path d="M 565.804959 439.149386 
C 567.632745 439.149386 569.385916 438.423199 570.678356 437.130759 
C 571.970796 435.838319 572.696983 434.085148 572.696983 432.257362 
C 572.696983 430.429575 571.970796 428.676405 570.678356 427.383965 
C 569.385916 426.091524 567.632745 425.365337 565.804959 425.365337 
C 563.977172 425.365337 562.224002 426.091524 560.931562 427.383965 
C 559.639121 428.676405 558.912934 430.429575 558.912934 432.257362 
C 558.912934 434.085148 559.639121 435.838319 560.931562 437.130759 
C 562.224002 438.423199 563.977172 439.149386 565.804959 439.149386 
z
" clip-path="url(#p240c9d5240)" style="fill: #1f77b4; fill-opacity: 0.3; stroke: #1f77b4; stroke-opacity: 0.3"/>
    <path d="M 578.102479 435.356902 
C 579.288504 435.356902 580.426111 434.885689 581.264757 434.047044 
C 582.103403 433.208398 582.574615 432.07079 582.574615 430.884766 
C 582.574615 429.698742 582.103403 428.561134 581.264757 427.722488 
C 580.426111 426.883842 579.288504 426.41263 578.102479 426.41263 
C 576.916455 426.41263 575.778848 426.883842 574.940202 427.722488 
C 574.101556 428.561134 573.630343 429.698742 573.630343 430.884766 
C 573.630343 432.07079 574.101556 433.208398 574.940202 434.047044 
C 575.778848 434.885689 576.916455 435.356902 578.102479 435.356902 
z
" clip-path="url(#p240c9d5240)" style="fill: #1f77b4; fill-opacity: 0.3; stroke: #1f77b4; stroke-opacity: 0.3"/>
    <path d="M 590.4 434.434873 
C 592.024031 434.434873 593.581764 433.789639 594.730127 432.641276 
C 595.87849 431.492913 596.523724 429.93518 596.523724 428.311149 
C 596.523724 426.687118 595.87849 425.129385 594.730127 423.981022 
C 593.581764 422.832659 592.024031 422.187425 590.4 422.187425 
C 588.775969 422.187425 587.218236 422.832659 586.069873 423.981022 
C 584.92151 425.129385 584.276276 426.687118 584.276276 428.311149 
C 584.276276 429.93518 584.92151 431.492913 586.069873 432.641276 
C 587.218236 433.789639 588.775969 434.434873 590.4 434.434873 
z
" clip-path="url(#p240c9d5240)" style="fill: #1f77b4; fill-opacity: 0.3; stroke: #1f77b4; stroke-opacity: 0.3"/>
    <path d="M 602.697521 430.468741 
C 605.863339 430.468741 608.89992 429.210948 611.138492 426.972376 
C 613.377064 424.733804 614.634857 421.697223 614.634857 418.531404 
C 614.634857 415.365586 613.377064 412.329005 611.138492 410.090433 
C 608.89992 407.851861 605.863339 406.594068 602.697521 406.594068 
C 599.531702 406.594068 596.495121 407.851861 594.256549 410.090433 
C 592.017977 412.329005 590.760184 415.365586 590.760184 418.531404 
C 590.760184 421.697223 592.017977 424.733804 594.256549 426.972376 
C 596.495121 429.210948 599.531702 430.468741 602.697521 430.468741 
z
" clip-path="url(#p240c9d5240)" style="fill: #1f77b4; fill-opacity: 0.3; stroke: #1f77b4; stroke-opacity: 0.3"/>
    <path d="M 614.995041 416.337361 
C 619.372901 416.337361 623.572044 414.598019 626.667659 411.502405 
C 629.763273 408.40679 631.502615 404.207647 631.502615 399.829787 
C 631.502615 395.451927 629.763273 391.252784 626.667659 388.15717 
C 623.572044 385.061555 619.372901 383.322213 614.995041 383.322213 
C 610.617182 383.322213 606.418038 385.061555 603.322424 388.15717 
C 600.226809 391.252784 598.487467 395.451927 598.487467 399.829787 
C 598.487467 404.207647 600.226809 408.40679 603.322424 411.502405 
C 606.418038 414.598019 610.617182 416.337361 614.995041 416.337361 
z
" clip-path="url(#p240c9d5240)" style="fill: #1f77b4; fill-opacity: 0.3; stroke: #1f77b4; stroke-opacity: 0.3"/>
    <path d="M 627.292562 402.605529 
C 630.167295 402.605529 632.924674 401.463385 634.957417 399.430642 
C 636.99016 397.397899 638.132304 394.64052 638.132304 391.765787 
C 638.132304 388.891054 636.99016 386.133676 634.957417 384.100932 
C 632.924674 382.068189 630.167295 380.926046 627.292562 380.926046 
C 624.417829 380.926046 621.66045 382.068189 619.627707 384.100932 
C 617.594964 386.133676 616.45282 388.891054 616.45282 391.765787 
C 616.45282 394.64052 617.594964 397.397899 619.627707 399.430642 
C 621.66045 401.463385 624.417829 402.605529 627.292562 402.605529 
z
" clip-path="url(#p240c9d5240)" style="fill: #1f77b4; fill-opacity: 0.3; stroke: #1f77b4; stroke-opacity: 0.3"/>
    <path d="M 639.590083 393.212477 
C 643.022389 393.212477 646.314578 391.848807 648.741585 389.4218 
C 651.168592 386.994794 652.532262 383.702604 652.532262 380.270298 
C 652.532262 376.837992 651.168592 373.545802 648.741585 371.118795 
C 646.314578 368.691788 643.022389 367.328119 639.590083 367.328119 
C 636.157777 367.328119 632.865587 368.691788 630.43858 371.118795 
C 628.011573 373.545802 626.647904 376.837992 626.647904 380.270298 
C 626.647904 383.702604 628.011573 386.994794 630.43858 389.4218 
C 632.865587 391.848807 636.157777 393.212477 639.590083 393.212477 
z
" clip-path="url(#p240c9d5240)" style="fill: #1f77b4; fill-opacity: 0.3; stroke: #1f77b4; stroke-opacity: 0.3"/>
    <path d="M 651.887603 383.890161 
C 653.66664 383.890161 655.373051 383.183343 656.63102 381.925374 
C 657.888989 380.667405 658.595807 378.960994 658.595807 377.181957 
C 658.595807 375.402921 657.888989 373.69651 656.63102 372.438541 
C 655.373051 371.180572 653.66664 370.473754 651.887603 370.473754 
C 650.108567 370.473754 648.402156 371.180572 647.144187 372.438541 
C 645.886218 373.69651 645.179399 375.402921 645.179399 377.181957 
C 645.179399 378.960994 645.886218 380.667405 647.144187 381.925374 
C 648.402156 383.183343 650.108567 383.890161 651.887603 383.890161 
z
" clip-path="url(#p240c9d5240)" style="fill: #1f77b4; fill-opacity: 0.3; stroke: #1f77b4; stroke-opacity: 0.3"/>
    <path d="M 664.185124 380.666557 
C 666.519815 380.666557 668.759198 379.738975 670.410074 378.088099 
C 672.06095 376.437223 672.988532 374.19784 672.988532 371.863149 
C 672.988532 369.528458 672.06095 367.289075 670.410074 365.638199 
C 668.759198 363.987323 666.519815 363.059741 664.185124 363.059741 
C 661.850433 363.059741 659.61105 363.987323 657.960174 365.638199 
C 656.309298 367.289075 655.381716 369.528458 655.381716 371.863149 
C 655.381716 374.19784 656.309298 376.437223 657.960174 378.088099 
C 659.61105 379.738975 661.850433 380.666557 664.185124 380.666557 
z
" clip-path="url(#p240c9d5240)" style="fill: #1f77b4; fill-opacity: 0.3; stroke: #1f77b4; stroke-opacity: 0.3"/>
    <path d="M 676.482645 374.7489 
C 679.295548 374.7489 681.993621 373.631321 683.982645 371.642298 
C 685.971668 369.653275 687.089246 366.955202 687.089246 364.142298 
C 687.089246 361.329394 685.971668 358.631321 683.982645 356.642298 
C 681.993621 354.653275 679.295548 353.535696 676.482645 353.535696 
C 673.669741 353.535696 670.971668 354.653275 668.982645 356.642298 
C 666.993621 358.631321 665.876043 361.329394 665.876043 364.142298 
C 665.876043 366.955202 666.993621 369.653275 668.982645 371.642298 
C 670.971668 373.631321 673.669741 374.7489 676.482645 374.7489 
z
" clip-path="url(#p240c9d5240)" style="fill: #1f77b4; fill-opacity: 0.3; stroke: #1f77b4; stroke-opacity: 0.3"/>
    <path d="M 688.780165 367.028049 
C 691.593069 367.028049 694.291142 365.91047 696.280165 363.921447 
C 698.269189 361.932424 699.386767 359.23435 699.386767 356.421447 
C 699.386767 353.608543 698.269189 350.91047 696.280165 348.921447 
C 694.291142 346.932424 691.593069 345.814845 688.780165 345.814845 
C 685.967262 345.814845 683.269189 346.932424 681.280165 348.921447 
C 679.291142 350.91047 678.173564 353.608543 678.173564 356.421447 
C 678.173564 359.23435 679.291142 361.932424 681.280165 363.921447 
C 683.269189 365.91047 685.967262 367.028049 688.780165 367.028049 
z
" clip-path="url(#p240c9d5240)" style="fill: #1f77b4; fill-opacity: 0.3; stroke: #1f77b4; stroke-opacity: 0.3"/>
    <path d="M 701.077686 358.579039 
C 704.243505 358.579039 707.280086 357.321245 709.518657 355.082674 
C 711.757229 352.844102 713.015022 349.807521 713.015022 346.641702 
C 713.015022 343.475884 711.757229 340.439302 709.518657 338.200731 
C 707.280086 335.962159 704.243505 334.704366 701.077686 334.704366 
C 697.911867 334.704366 694.875286 335.962159 692.636714 338.200731 
C 690.398143 340.439302 689.14035 343.475884 689.14035 346.641702 
C 689.14035 349.807521 690.398143 352.844102 692.636714 355.082674 
C 694.875286 357.321245 697.911867 358.579039 701.077686 358.579039 
z
" clip-path="url(#p240c9d5240)" style="fill: #1f77b4; fill-opacity: 0.3; stroke: #1f77b4; stroke-opacity: 0.3"/>
    <path d="M 713.375207 347.223134 
C 717.078566 347.223134 720.630745 345.751773 723.249415 343.133102 
C 725.868086 340.514432 727.339447 336.962253 727.339447 333.258894 
C 727.339447 329.555534 725.868086 326.003356 723.249415 323.384685 
C 720.630745 320.766014 717.078566 319.294654 713.375207 319.294654 
C 709.671847 319.294654 706.119669 320.766014 703.500998 323.384685 
C 700.882327 326.003356 699.410967 329.555534 699.410967 333.258894 
C 699.410967 336.962253 700.882327 340.514432 703.500998 343.133102 
C 706.119669 345.751773 709.671847 347.223134 713.375207 347.223134 
z
" clip-path="url(#p240c9d5240)" style="fill: #1f77b4; fill-opacity: 0.3; stroke: #1f77b4; stroke-opacity: 0.3"/>
    <path d="M 725.672727 335.071176 
C 728.974479 335.071176 732.141444 333.759376 734.476136 331.424685 
C 736.810827 329.089994 738.122627 325.923029 738.122627 322.621277 
C 738.122627 319.319525 736.810827 316.152559 734.476136 313.817868 
C 732.141444 311.483177 728.974479 310.171377 725.672727 310.171377 
C 722.370975 310.171377 719.20401 311.483177 716.869319 313.817868 
C 714.534628 316.152559 713.222828 319.319525 713.222828 322.621277 
C 713.222828 325.923029 714.534628 329.089994 716.869319 331.424685 
C 719.20401 333.759376 722.370975 335.071176 725.672727 335.071176 
z
" clip-path="url(#p240c9d5240)" style="fill: #1f77b4; fill-opacity: 0.3; stroke: #1f77b4; stroke-opacity: 0.3"/>
    <path d="M 737.970248 325.820523 
C 739.228217 325.820523 740.434832 325.320727 741.32435 324.431208 
C 742.213868 323.54169 742.713664 322.335075 742.713664 321.077106 
C 742.713664 319.819138 742.213868 318.612523 741.32435 317.723004 
C 740.434832 316.833486 739.228217 316.33369 737.970248 316.33369 
C 736.712279 316.33369 735.505664 316.833486 734.616146 317.723004 
C 733.726628 318.612523 733.226831 319.819138 733.226831 321.077106 
C 733.226831 322.335075 733.726628 323.54169 734.616146 324.431208 
C 735.505664 325.320727 736.712279 325.820523 737.970248 325.820523 
z
" clip-path="url(#p240c9d5240)" style="fill: #1f77b4; fill-opacity: 0.3; stroke: #1f77b4; stroke-opacity: 0.3"/>
    <path d="M 750.267769 324.495438 
C 751.720346 324.495438 753.113625 323.918323 754.140752 322.891196 
C 755.167879 321.864069 755.744994 320.47079 755.744994 319.018213 
C 755.744994 317.565636 755.167879 316.172357 754.140752 315.145229 
C 753.113625 314.118102 751.720346 313.540987 750.267769 313.540987 
C 748.815191 313.540987 747.421912 314.118102 746.394785 315.145229 
C 745.367658 316.172357 744.790543 317.565636 744.790543 319.018213 
C 744.790543 320.47079 745.367658 321.864069 746.394785 322.891196 
C 747.421912 323.918323 748.815191 324.495438 750.267769 324.495438 
z
" clip-path="url(#p240c9d5240)" style="fill: #1f77b4; fill-opacity: 0.3; stroke: #1f77b4; stroke-opacity: 0.3"/>
    <path d="M 762.565289 317.486336 
C 766.800243 317.486336 770.862314 315.803771 773.856879 312.809207 
C 776.851444 309.814642 778.534009 305.752571 778.534009 301.517617 
C 778.534009 297.282663 776.851444 293.220592 773.856879 290.226027 
C 770.862314 287.231463 766.800243 285.548898 762.565289 285.548898 
C 758.330335 285.548898 754.268264 287.231463 751.273699 290.226027 
C 748.279135 293.220592 746.59657 297.282663 746.59657 301.517617 
C 746.59657 305.752571 748.279135 309.814642 751.273699 312.809207 
C 754.268264 315.803771 758.330335 317.486336 762.565289 317.486336 
z
" clip-path="url(#p240c9d5240)" style="fill: #1f77b4; fill-opacity: 0.3; stroke: #1f77b4; stroke-opacity: 0.3"/>
    <path d="M 774.86281 301.850335 
C 778.636716 301.850335 782.256561 300.350946 784.925116 297.682391 
C 787.593671 295.013836 789.093059 291.393991 789.093059 287.620085 
C 789.093059 283.846179 787.593671 280.226334 784.925116 277.557779 
C 782.256561 274.889224 778.636716 273.389836 774.86281 273.389836 
C 771.088904 273.389836 767.469059 274.889224 764.800504 277.557779 
C 762.131949 280.226334 760.63256 283.846179 760.63256 287.620085 
C 760.63256 291.393991 762.131949 295.013836 764.800504 297.682391 
C 767.469059 300.350946 771.088904 301.850335 774.86281 301.850335 
z
" clip-path="url(#p240c9d5240)" style="fill: #1f77b4; fill-opacity: 0.3; stroke: #1f77b4; stroke-opacity: 0.3"/>
    <path d="M 787.160331 290.395827 
C 790.035064 290.395827 792.792442 289.253683 794.825185 287.22094 
C 796.857929 285.188197 798.000072 282.430818 798.000072 279.556085 
C 798.000072 276.681352 796.857929 273.923974 794.825185 271.89123 
C 792.792442 269.858487 790.035064 268.716343 787.160331 268.716343 
C 784.285597 268.716343 781.528219 269.858487 779.495476 271.89123 
C 777.462732 273.923974 776.320589 276.681352 776.320589 279.556085 
C 776.320589 282.430818 777.462732 285.188197 779.495476 287.22094 
C 781.528219 289.253683 784.285597 290.395827 787.160331 290.395827 
z
" clip-path="url(#p240c9d5240)" style="fill: #1f77b4; fill-opacity: 0.3; stroke: #1f77b4; stroke-opacity: 0.3"/>
    <path d="M 799.457851 278.302345 
C 803.630062 278.302345 807.631951 276.644709 810.582149 273.69451 
C 813.532347 270.744312 815.189984 266.742423 815.189984 262.570213 
C 815.189984 258.398002 813.532347 254.396113 810.582149 251.445915 
C 807.631951 248.495717 803.630062 246.83808 799.457851 246.83808 
C 795.285641 246.83808 791.283752 248.495717 788.333554 251.445915 
C 785.383355 254.396113 783.725719 258.398002 783.725719 262.570213 
C 783.725719 266.742423 785.383355 270.744312 788.333554 273.69451 
C 791.283752 276.644709 795.285641 278.302345 799.457851 278.302345 
z
" clip-path="url(#p240c9d5240)" style="fill: #1f77b4; fill-opacity: 0.3; stroke: #1f77b4; stroke-opacity: 0.3"/>
    <path d="M 811.755372 260.567172 
C 816.092882 260.567172 820.253323 258.843861 823.320405 255.776778 
C 826.387488 252.709695 828.110799 248.549255 828.110799 244.211745 
C 828.110799 239.874235 826.387488 235.713794 823.320405 232.646711 
C 820.253323 229.579628 816.092882 227.856317 811.755372 227.856317 
C 807.417862 227.856317 803.257421 229.579628 800.190338 232.646711 
C 797.123256 235.713794 795.399945 239.874235 795.399945 244.211745 
C 795.399945 248.549255 797.123256 252.709695 800.190338 255.776778 
C 803.257421 258.843861 807.417862 260.567172 811.755372 260.567172 
z
" clip-path="url(#p240c9d5240)" style="fill: #1f77b4; fill-opacity: 0.3; stroke: #1f77b4; stroke-opacity: 0.3"/>
    <path d="M 824.052893 247.77426 
C 826.271741 247.77426 828.40001 246.892702 829.968972 245.323739 
C 831.537935 243.754777 832.419493 241.626508 832.419493 239.40766 
C 832.419493 237.188811 831.537935 235.060542 829.968972 233.49158 
C 828.40001 231.922617 826.271741 231.041059 824.052893 231.041059 
C 821.834044 231.041059 819.705775 231.922617 818.136813 233.49158 
C 816.56785 235.060542 815.686292 237.188811 815.686292 239.40766 
C 815.686292 241.626508 816.56785 243.754777 818.136813 245.323739 
C 819.705775 246.892702 821.834044 247.77426 824.052893 247.77426 
z
" clip-path="url(#p240c9d5240)" style="fill: #1f77b4; fill-opacity: 0.3; stroke: #1f77b4; stroke-opacity: 0.3"/>
    <path d="M 836.350413 242.825992 
C 837.80299 242.825992 839.196269 242.248876 840.223397 241.221749 
C 841.250524 240.194622 841.827639 238.801343 841.827639 237.348766 
C 841.827639 235.896189 841.250524 234.50291 840.223397 233.475783 
C 839.196269 232.448655 837.80299 231.87154 836.350413 231.87154 
C 834.897836 231.87154 833.504557 232.448655 832.47743 233.475783 
C 831.450303 234.50291 830.873188 235.896189 830.873188 237.348766 
C 830.873188 238.801343 831.450303 240.194622 832.47743 241.221749 
C 833.504557 242.248876 834.897836 242.825992 836.350413 242.825992 
z
" clip-path="url(#p240c9d5240)" style="fill: #1f77b4; fill-opacity: 0.3; stroke: #1f77b4; stroke-opacity: 0.3"/>
    <path d="M 848.647934 235.723402 
C 852.903597 235.723402 856.985532 234.03261 859.99474 231.023401 
C 863.003948 228.014193 864.69474 223.932259 864.69474 219.676596 
C 864.69474 215.420933 863.003948 211.338998 859.99474 208.32979 
C 856.985532 205.320582 852.903597 203.629789 848.647934 203.629789 
C 844.392271 203.629789 840.310336 205.320582 837.301128 208.32979 
C 834.29192 211.338998 832.601127 215.420933 832.601127 219.676596 
C 832.601127 223.932259 834.29192 228.014193 837.301128 231.023401 
C 840.310336 234.03261 844.392271 235.723402 848.647934 235.723402 
z
" clip-path="url(#p240c9d5240)" style="fill: #1f77b4; fill-opacity: 0.3; stroke: #1f77b4; stroke-opacity: 0.3"/>
    <path d="M 860.945455 223.304775 
C 862.999709 223.304775 864.970103 222.488611 866.42268 221.036034 
C 867.875257 219.583457 868.691421 217.613063 868.691421 215.558809 
C 868.691421 213.504554 867.875257 211.53416 866.42268 210.081583 
C 864.970103 208.629006 862.999709 207.812842 860.945455 207.812842 
C 858.8912 207.812842 856.920806 208.629006 855.468229 210.081583 
C 854.015652 211.53416 853.199488 213.504554 853.199488 215.558809 
C 853.199488 217.613063 854.015652 219.583457 855.468229 221.036034 
C 856.920806 222.488611 858.8912 223.304775 860.945455 223.304775 
z
" clip-path="url(#p240c9d5240)" style="fill: #1f77b4; fill-opacity: 0.3; stroke: #1f77b4; stroke-opacity: 0.3"/>
    <path d="M 873.242975 217.649084 
C 876.436443 217.649084 879.499545 216.380306 881.757668 214.122183 
C 884.015791 211.86406 885.28457 208.800958 885.28457 205.607489 
C 885.28457 202.414021 884.015791 199.350919 881.757668 197.092796 
C 879.499545 194.834673 876.436443 193.565895 873.242975 193.565895 
C 870.049507 193.565895 866.986405 194.834673 864.728282 197.092796 
C 862.470159 199.350919 861.201381 202.414021 861.201381 205.607489 
C 861.201381 208.800958 862.470159 211.86406 864.728282 214.122183 
C 866.986405 216.380306 870.049507 217.649084 873.242975 217.649084 
z
" clip-path="url(#p240c9d5240)" style="fill: #1f77b4; fill-opacity: 0.3; stroke: #1f77b4; stroke-opacity: 0.3"/>
    <path d="M 885.540496 207.765081 
C 888.706314 207.765081 891.742896 206.507288 893.981467 204.268716 
C 896.220039 202.030144 897.477832 198.993563 897.477832 195.827745 
C 897.477832 192.661926 896.220039 189.625345 893.981467 187.386773 
C 891.742896 185.148201 888.706314 183.890408 885.540496 183.890408 
C 882.374677 183.890408 879.338096 185.148201 877.099524 187.386773 
C 874.860953 189.625345 873.603159 192.661926 873.603159 195.827745 
C 873.603159 198.993563 874.860953 202.030144 877.099524 204.268716 
C 879.338096 206.507288 882.374677 207.765081 885.540496 207.765081 
z
" clip-path="url(#p240c9d5240)" style="fill: #1f77b4; fill-opacity: 0.3; stroke: #1f77b4; stroke-opacity: 0.3"/>
    <path d="M 897.838017 186.157544 
C 903.463824 186.157544 908.85997 183.922387 912.838017 179.94434 
C 916.816063 175.966294 919.05122 170.570148 919.05122 164.94434 
C 919.05122 159.318533 916.816063 153.922387 912.838017 149.94434 
C 908.85997 145.966294 903.463824 143.731137 897.838017 143.731137 
C 892.212209 143.731137 886.816063 145.966294 882.838017 149.94434 
C 878.85997 153.922387 876.624813 159.318533 876.624813 164.94434 
C 876.624813 170.570148 878.85997 175.966294 882.838017 179.94434 
C 886.816063 183.922387 892.212209 186.157544 897.838017 186.157544 
z
" clip-path="url(#p240c9d5240)" style="fill: #1f77b4; fill-opacity: 0.3; stroke: #1f77b4; stroke-opacity: 0.3"/>
    <path d="M 910.135537 160.871352 
C 914.879634 160.871352 919.430064 158.986503 922.784648 155.631919 
C 926.139231 152.277336 928.024081 147.726906 928.024081 142.982809 
C 928.024081 138.238711 926.139231 133.688281 922.784648 130.333698 
C 919.430064 126.979115 914.879634 125.094265 910.135537 125.094265 
C 905.39144 125.094265 900.84101 126.979115 897.486427 130.333698 
C 894.131843 133.688281 892.246993 138.238711 892.246993 142.982809 
C 892.246993 147.726906 894.131843 152.277336 897.486427 155.631919 
C 900.84101 158.986503 905.39144 160.871352 910.135537 160.871352 
z
" clip-path="url(#p240c9d5240)" style="fill: #1f77b4; fill-opacity: 0.3; stroke: #1f77b4; stroke-opacity: 0.3"/>
    <path d="M 922.433058 146.614918 
C 924.260844 146.614918 926.014015 145.888731 927.306455 144.596291 
C 928.598895 143.303851 929.325082 141.55068 929.325082 139.722894 
C 929.325082 137.895107 928.598895 136.141936 927.306455 134.849496 
C 926.014015 133.557056 924.260844 132.830869 922.433058 132.830869 
C 920.605272 132.830869 918.852101 133.557056 917.559661 134.849496 
C 916.267221 136.141936 915.541033 137.895107 915.541033 139.722894 
C 915.541033 141.55068 916.267221 143.303851 917.559661 144.596291 
C 918.852101 145.888731 920.605272 146.614918 922.433058 146.614918 
z
" clip-path="url(#p240c9d5240)" style="fill: #1f77b4; fill-opacity: 0.3; stroke: #1f77b4; stroke-opacity: 0.3"/>
    <path d="M 934.730579 143.261927 
C 936.988702 143.261927 939.154642 142.364765 940.751376 140.768031 
C 942.34811 139.171297 943.245272 137.005357 943.245272 134.747234 
C 943.245272 132.489111 942.34811 130.323171 940.751376 128.726437 
C 939.154642 127.129703 936.988702 126.232541 934.730579 126.232541 
C 932.472455 126.232541 930.306515 127.129703 928.709781 128.726437 
C 927.113047 130.323171 926.215885 132.489111 926.215885 134.747234 
C 926.215885 137.005357 927.113047 139.171297 928.709781 140.768031 
C 930.306515 142.364765 932.472455 143.261927 934.730579 143.261927 
z
" clip-path="url(#p240c9d5240)" style="fill: #1f77b4; fill-opacity: 0.3; stroke: #1f77b4; stroke-opacity: 0.3"/>
    <path d="M 947.028099 133.676922 
C 951.157951 133.676922 955.119211 132.036115 958.039457 129.115868 
C 960.959703 126.195622 962.600511 122.234362 962.600511 118.104511 
C 962.600511 113.974659 960.959703 110.013399 958.039457 107.093153 
C 955.119211 104.172907 951.157951 102.532099 947.028099 102.532099 
C 942.898247 102.532099 938.936988 104.172907 936.016741 107.093153 
C 933.096495 110.013399 931.455688 113.974659 931.455688 118.104511 
C 931.455688 122.234362 933.096495 126.195622 936.016741 129.115868 
C 938.936988 132.036115 942.898247 133.676922 947.028099 133.676922 
z
" clip-path="url(#p240c9d5240)" style="fill: #1f77b4; fill-opacity: 0.3; stroke: #1f77b4; stroke-opacity: 0.3"/>
    <path d="M 959.32562 121.388766 
C 960.651635 121.388766 961.923519 120.861934 962.861154 119.9243 
C 963.798788 118.986665 964.32562 117.714781 964.32562 116.388766 
C 964.32562 115.06275 963.798788 113.790867 962.861154 112.853232 
C 961.923519 111.915597 960.651635 111.388766 959.32562 111.388766 
C 957.999604 111.388766 956.72772 111.915597 955.790086 112.853232 
C 954.852451 113.790867 954.32562 115.06275 954.32562 116.388766 
C 954.32562 117.714781 954.852451 118.986665 955.790086 119.9243 
C 956.72772 120.861934 957.999604 121.388766 959.32562 121.388766 
z
" clip-path="url(#p240c9d5240)" style="fill: #1f77b4; fill-opacity: 0.3; stroke: #1f77b4; stroke-opacity: 0.3"/>
    <path d="M 971.62314 114.85689 
C 975.858094 114.85689 979.920166 113.174325 982.91473 110.17976 
C 985.909295 107.185195 987.59186 103.123124 987.59186 98.88817 
C 987.59186 94.653216 985.909295 90.591145 982.91473 87.59658 
C 979.920166 84.602016 975.858094 82.919451 971.62314 82.919451 
C 967.388187 82.919451 963.326115 84.602016 960.331551 87.59658 
C 957.336986 90.591145 955.654421 94.653216 955.654421 98.88817 
C 955.654421 103.123124 957.336986 107.185195 960.331551 110.17976 
C 963.326115 113.174325 967.388187 114.85689 971.62314 114.85689 
z
" clip-path="url(#p240c9d5240)" style="fill: #1f77b4; fill-opacity: 0.3; stroke: #1f77b4; stroke-opacity: 0.3"/>
    <path d="M 983.920661 101.242099 
C 987.002043 101.242099 989.957634 100.017853 992.1365 97.838987 
C 994.315365 95.660121 995.539611 92.704531 995.539611 89.623149 
C 995.539611 86.541767 994.315365 83.586176 992.1365 81.407311 
C 989.957634 79.228445 987.002043 78.004199 983.920661 78.004199 
C 980.83928 78.004199 977.883689 79.228445 975.704823 81.407311 
C 973.525957 83.586176 972.301711 86.541767 972.301711 89.623149 
C 972.301711 92.704531 973.525957 95.660121 975.704823 97.838987 
C 977.883689 100.017853 980.83928 101.242099 983.920661 101.242099 
z
" clip-path="url(#p240c9d5240)" style="fill: #1f77b4; fill-opacity: 0.3; stroke: #1f77b4; stroke-opacity: 0.3"/>
    <path d="M 996.218182 91.516068 
C 996.811194 91.516068 997.379998 91.280462 997.799321 90.861139 
C 998.218644 90.441816 998.45425 89.873012 998.45425 89.28 
C 998.45425 88.686988 998.218644 88.118184 997.799321 87.698861 
C 997.379998 87.279538 996.811194 87.043932 996.218182 87.043932 
C 995.62517 87.043932 995.056366 87.279538 994.637043 87.698861 
C 994.21772 88.118184 993.982114 88.686988 993.982114 89.28 
C 993.982114 89.873012 994.21772 90.441816 994.637043 90.861139 
C 995.056366 91.280462 995.62517 91.516068 996.218182 91.516068 
z
" clip-path="url(#p240c9d5240)" style="fill: #1f77b4; fill-opacity: 0.3; stroke: #1f77b4; stroke-opacity: 0.3"/>
   </g>
   <g id="matplotlib.axis_1">
    <g id="xtick_1">
     <g id="line2d_1">
      <defs>
       <path id="md66c44da91" d="M 0 0 
L 0 3.5 
" style="stroke: #000000; stroke-width: 0.8"/>
      </defs>
      <g>
       <use xlink:href="#md66c44da91" x="184.581818" y="512.64" style="stroke: #000000; stroke-width: 0.8"/>
      </g>
     </g>
     <g id="text_1">
      <!-- 2025-01-01 -->
      <g transform="translate(155.524006 527.238438) scale(0.1 -0.1)">
       <defs>
        <path id="DejaVuSans-32" d="M 1228 531 
L 3431 531 
L 3431 0 
L 469 0 
L 469 531 
Q 828 903 1448 1529 
Q 2069 2156 2228 2338 
Q 2531 2678 2651 2914 
Q 2772 3150 2772 3378 
Q 2772 3750 2511 3984 
Q 2250 4219 1831 4219 
Q 1534 4219 1204 4116 
Q 875 4013 500 3803 
L 500 4441 
Q 881 4594 1212 4672 
Q 1544 4750 1819 4750 
Q 2544 4750 2975 4387 
Q 3406 4025 3406 3419 
Q 3406 3131 3298 2873 
Q 3191 2616 2906 2266 
Q 2828 2175 2409 1742 
Q 1991 1309 1228 531 
z
" transform="scale(0.015625)"/>
        <path id="DejaVuSans-30" d="M 2034 4250 
Q 1547 4250 1301 3770 
Q 1056 3291 1056 2328 
Q 1056 1369 1301 889 
Q 1547 409 2034 409 
Q 2525 409 2770 889 
Q 3016 1369 3016 2328 
Q 3016 3291 2770 3770 
Q 2525 4250 2034 4250 
z
M 2034 4750 
Q 2819 4750 3233 4129 
Q 3647 3509 3647 2328 
Q 3647 1150 3233 529 
Q 2819 -91 2034 -91 
Q 1250 -91 836 529 
Q 422 1150 422 2328 
Q 422 3509 836 4129 
Q 1250 4750 2034 4750 
z
" transform="scale(0.015625)"/>
        <path id="DejaVuSans-35" d="M 691 4666 
L 3169 4666 
L 3169 4134 
L 1269 4134 
L 1269 2991 
Q 1406 3038 1543 3061 
Q 1681 3084 1819 3084 
Q 2600 3084 3056 2656 
Q 3513 2228 3513 1497 
Q 3513 744 3044 326 
Q 2575 -91 1722 -91 
Q 1428 -91 1123 -41 
Q 819 9 494 109 
L 494 744 
Q 775 591 1075 516 
Q 1375 441 1709 441 
Q 2250 441 2565 725 
Q 2881 1009 2881 1497 
Q 2881 1984 2565 2268 
Q 2250 2553 1709 2553 
Q 1456 2553 1204 2497 
Q 953 2441 691 2322 
L 691 4666 
z
" transform="scale(0.015625)"/>
        <path id="DejaVuSans-2d" d="M 313 2009 
L 1997 2009 
L 1997 1497 
L 313 1497 
L 313 2009 
z
" transform="scale(0.015625)"/>
        <path id="DejaVuSans-31" d="M 794 531 
L 1825 531 
L 1825 4091 
L 703 3866 
L 703 4441 
L 1819 4666 
L 2450 4666 
L 2450 531 
L 3481 531 
L 3481 0 
L 794 0 
L 794 531 
z
" transform="scale(0.015625)"/>
       </defs>
       <use xlink:href="#DejaVuSans-32"/>
       <use xlink:href="#DejaVuSans-30" x="63.623047"/>
       <use xlink:href="#DejaVuSans-32" x="127.246094"/>
       <use xlink:href="#DejaVuSans-35" x="190.869141"/>
       <use xlink:href="#DejaVuSans-2d" x="254.492188"/>
       <use xlink:href="#DejaVuSans-30" x="290.576172"/>
       <use xlink:href="#DejaVuSans-31" x="354.199219"/>
       <use xlink:href="#DejaVuSans-2d" x="417.822266"/>
       <use xlink:href="#DejaVuSans-30" x="453.90625"/>
       <use xlink:href="#DejaVuSans-31" x="517.529297"/>
      </g>
     </g>
    </g>
    <g id="xtick_2">
     <g id="line2d_2">
      <g>
       <use xlink:href="#md66c44da91" x="356.747107" y="512.64" style="stroke: #000000; stroke-width: 0.8"/>
      </g>
     </g>
     <g id="text_2">
      <!-- 2025-01-15 -->
      <g transform="translate(327.689295 527.238438) scale(0.1 -0.1)">
       <use xlink:href="#DejaVuSans-32"/>
       <use xlink:href="#DejaVuSans-30" x="63.623047"/>
       <use xlink:href="#DejaVuSans-32" x="127.246094"/>
       <use xlink:href="#DejaVuSans-35" x="190.869141"/>
       <use xlink:href="#DejaVuSans-2d" x="254.492188"/>
       <use xlink:href="#DejaVuSans-30" x="290.576172"/>
       <use xlink:href="#DejaVuSans-31" x="354.199219"/>
       <use xlink:href="#DejaVuSans-2d" x="417.822266"/>
       <use xlink:href="#DejaVuSans-31" x="453.90625"/>
       <use xlink:href="#DejaVuSans-35" x="517.529297"/>
      </g>
     </g>
    </g>
    <g id="xtick_3">
     <g id="line2d_3">
      <g>
       <use xlink:href="#md66c44da91" x="565.804959" y="512.64" style="stroke: #000000; stroke-width: 0.8"/>
      </g>
     </g>
     <g id="text_3">
      <!-- 2025-02-01 -->
      <g transform="translate(536.747146 527.238438) scale(0.1 -0.1)">
       <use xlink:href="#DejaVuSans-32"/>
       <use xlink:href="#DejaVuSans-30" x="63.623047"/>
       <use xlink:href="#DejaVuSans-32" x="127.246094"/>
       <use xlink:href="#DejaVuSans-35" x="190.869141"/>
       <use xlink:href="#DejaVuSans-2d" x="254.492188"/>
       <use xlink:href="#DejaVuSans-30" x="290.576172"/>
       <use xlink:href="#DejaVuSans-32" x="354.199219"/>
       <use xlink:href="#DejaVuSans-2d" x="417.822266"/>
       <use xlink:href="#DejaVuSans-30" x="453.90625"/>
       <use xlink:href="#DejaVuSans-31" x="517.529297"/>
      </g>
     </g>
    </g>
    <g id="xtick_4">
     <g id="line2d_4">
      <g>
       <use xlink:href="#md66c44da91" x="737.970248" y="512.64" style="stroke: #000000; stroke-width: 0.8"/>
      </g>
     </g>
     <g id="text_4">
      <!-- 2025-02-15 -->
      <g transform="translate(708.912435 527.238438) scale(0.1 -0.1)">
       <use xlink:href="#DejaVuSans-32"/>
       <use xlink:href="#DejaVuSans-30" x="63.623047"/>
       <use xlink:href="#DejaVuSans-32" x="127.246094"/>
       <use xlink:href="#DejaVuSans-35" x="190.869141"/>
       <use xlink:href="#DejaVuSans-2d" x="254.492188"/>
       <use xlink:href="#DejaVuSans-30" x="290.576172"/>
       <use xlink:href="#DejaVuSans-32" x="354.199219"/>
       <use xlink:href="#DejaVuSans-2d" x="417.822266"/>
       <use xlink:href="#DejaVuSans-31" x="453.90625"/>
       <use xlink:href="#DejaVuSans-35" x="517.529297"/>
      </g>
     </g>
    </g>
    <g id="xtick_5">
     <g id="line2d_5">
      <g>
       <use xlink:href="#md66c44da91" x="910.135537" y="512.64" style="stroke: #000000; stroke-width: 0.8"/>
      </g>
     </g>
     <g id="text_5">
      <!-- 2025-03-01 -->
      <g transform="translate(881.077725 527.238438) scale(0.1 -0.1)">
       <defs>
        <path id="DejaVuSans-33" d="M 2597 2516 
Q 3050 2419 3304 2112 
Q 3559 1806 3559 1356 
Q 3559 666 3084 287 
Q 2609 -91 1734 -91 
Q 1441 -91 1130 -33 
Q 819 25 488 141 
L 488 750 
Q 750 597 1062 519 
Q 1375 441 1716 441 
Q 2309 441 2620 675 
Q 2931 909 2931 1356 
Q 2931 1769 2642 2001 
Q 2353 2234 1838 2234 
L 1294 2234 
L 1294 2753 
L 1863 2753 
Q 2328 2753 2575 2939 
Q 2822 3125 2822 3475 
Q 2822 3834 2567 4026 
Q 2313 4219 1838 4219 
Q 1578 4219 1281 4162 
Q 984 4106 628 3988 
L 628 4550 
Q 988 4650 1302 4700 
Q 1616 4750 1894 4750 
Q 2613 4750 3031 4423 
Q 3450 4097 3450 3541 
Q 3450 3153 3228 2886 
Q 3006 2619 2597 2516 
z
" transform="scale(0.015625)"/>
       </defs>
       <use xlink:href="#DejaVuSans-32"/>
       <use xlink:href="#DejaVuSans-30" x="63.623047"/>
       <use xlink:href="#DejaVuSans-32" x="127.246094"/>
       <use xlink:href="#DejaVuSans-35" x="190.869141"/>
       <use xlink:href="#DejaVuSans-2d" x="254.492188"/>
       <use xlink:href="#DejaVuSans-30" x="290.576172"/>
       <use xlink:href="#DejaVuSans-33" x="354.199219"/>
       <use xlink:href="#DejaVuSans-2d" x="417.822266"/>
       <use xlink:href="#DejaVuSans-30" x="453.90625"/>
       <use xlink:href="#DejaVuSans-31" x="517.529297"/>
      </g>
     </g>
    </g>
   </g>
   <g id="matplotlib.axis_2">
    <g id="ytick_1">
     <g id="line2d_6">
      <defs>
       <path id="mbaf9d949b5" d="M 0 0 
L -3.5 0 
" style="stroke: #000000; stroke-width: 0.8"/>
      </defs>
      <g>
       <use xlink:href="#mbaf9d949b5" x="144" y="445.125447" style="stroke: #000000; stroke-width: 0.8"/>
      </g>
     </g>
     <g id="text_6">
      <!-- 8500 -->
      <g transform="translate(111.55 448.924666) scale(0.1 -0.1)">
       <defs>
        <path id="DejaVuSans-38" d="M 2034 2216 
Q 1584 2216 1326 1975 
Q 1069 1734 1069 1313 
Q 1069 891 1326 650 
Q 1584 409 2034 409 
Q 2484 409 2743 651 
Q 3003 894 3003 1313 
Q 3003 1734 2745 1975 
Q 2488 2216 2034 2216 
z
M 1403 2484 
Q 997 2584 770 2862 
Q 544 3141 544 3541 
Q 544 4100 942 4425 
Q 1341 4750 2034 4750 
Q 2731 4750 3128 4425 
Q 3525 4100 3525 3541 
Q 3525 3141 3298 2862 
Q 3072 2584 2669 2484 
Q 3125 2378 3379 2068 
Q 3634 1759 3634 1313 
Q 3634 634 3220 271 
Q 2806 -91 2034 -91 
Q 1263 -91 848 271 
Q 434 634 434 1313 
Q 434 1759 690 2068 
Q 947 2378 1403 2484 
z
M 1172 3481 
Q 1172 3119 1398 2916 
Q 1625 2713 2034 2713 
Q 2441 2713 2670 2916 
Q 2900 3119 2900 3481 
Q 2900 3844 2670 4047 
Q 2441 4250 2034 4250 
Q 1625 4250 1398 4047 
Q 1172 3844 1172 3481 
z
" transform="scale(0.015625)"/>
       </defs>
       <use xlink:href="#DejaVuSans-38"/>
       <use xlink:href="#DejaVuSans-35" x="63.623047"/>
       <use xlink:href="#DejaVuSans-30" x="127.246094"/>
       <use xlink:href="#DejaVuSans-30" x="190.869141"/>
      </g>
     </g>
    </g>
    <g id="ytick_2">
     <g id="line2d_7">
      <g>
       <use xlink:href="#mbaf9d949b5" x="144" y="359.338213" style="stroke: #000000; stroke-width: 0.8"/>
      </g>
     </g>
     <g id="text_7">
      <!-- 9000 -->
      <g transform="translate(111.55 363.137432) scale(0.1 -0.1)">
       <defs>
        <path id="DejaVuSans-39" d="M 703 97 
L 703 672 
Q 941 559 1184 500 
Q 1428 441 1663 441 
Q 2288 441 2617 861 
Q 2947 1281 2994 2138 
Q 2813 1869 2534 1725 
Q 2256 1581 1919 1581 
Q 1219 1581 811 2004 
Q 403 2428 403 3163 
Q 403 3881 828 4315 
Q 1253 4750 1959 4750 
Q 2769 4750 3195 4129 
Q 3622 3509 3622 2328 
Q 3622 1225 3098 567 
Q 2575 -91 1691 -91 
Q 1453 -91 1209 -44 
Q 966 3 703 97 
z
M 1959 2075 
Q 2384 2075 2632 2365 
Q 2881 2656 2881 3163 
Q 2881 3666 2632 3958 
Q 2384 4250 1959 4250 
Q 1534 4250 1286 3958 
Q 1038 3666 1038 3163 
Q 1038 2656 1286 2365 
Q 1534 2075 1959 2075 
z
" transform="scale(0.015625)"/>
       </defs>
       <use xlink:href="#DejaVuSans-39"/>
       <use xlink:href="#DejaVuSans-30" x="63.623047"/>
       <use xlink:href="#DejaVuSans-30" x="127.246094"/>
       <use xlink:href="#DejaVuSans-30" x="190.869141"/>
      </g>
     </g>
    </g>
    <g id="ytick_3">
     <g id="line2d_8">
      <g>
       <use xlink:href="#mbaf9d949b5" x="144" y="273.550979" style="stroke: #000000; stroke-width: 0.8"/>
      </g>
     </g>
     <g id="text_8">
      <!-- 9500 -->
      <g transform="translate(111.55 277.350197) scale(0.1 -0.1)">
       <use xlink:href="#DejaVuSans-39"/>
       <use xlink:href="#DejaVuSans-35" x="63.623047"/>
       <use xlink:href="#DejaVuSans-30" x="127.246094"/>
       <use xlink:href="#DejaVuSans-30" x="190.869141"/>
      </g>
     </g>
    </g>
    <g id="ytick_4">
     <g id="line2d_9">
      <g>
       <use xlink:href="#mbaf9d949b5" x="144" y="187.763745" style="stroke: #000000; stroke-width: 0.8"/>
      </g>
     </g>
     <g id="text_9">
      <!-- 10000 -->
      <g transform="translate(105.1875 191.562963) scale(0.1 -0.1)">
       <use xlink:href="#DejaVuSans-31"/>
       <use xlink:href="#DejaVuSans-30" x="63.623047"/>
       <use xlink:href="#DejaVuSans-30" x="127.246094"/>
       <use xlink:href="#DejaVuSans-30" x="190.869141"/>
       <use xlink:href="#DejaVuSans-30" x="254.492188"/>
      </g>
     </g>
    </g>
    <g id="ytick_5">
     <g id="line2d_10">
      <g>
       <use xlink:href="#mbaf9d949b5" x="144" y="101.976511" style="stroke: #000000; stroke-width: 0.8"/>
      </g>
     </g>
     <g id="text_10">
      <!-- 10500 -->
      <g transform="translate(105.1875 105.775729) scale(0.1 -0.1)">
       <use xlink:href="#DejaVuSans-31"/>
       <use xlink:href="#DejaVuSans-30" x="63.623047"/>
       <use xlink:href="#DejaVuSans-35" x="127.246094"/>
       <use xlink:href="#DejaVuSans-30" x="190.869141"/>
       <use xlink:href="#DejaVuSans-30" x="254.492188"/>
      </g>
     </g>
    </g>
   </g>
   <g id="line2d_11">
    <path d="M 184.581818 492.48 
L 196.879339 491.622128 
L 209.17686 489.048511 
L 221.47438 488.533787 
L 233.771901 487.161191 
L 246.069421 485.445447 
L 258.366942 485.102298 
L 270.664463 483.729702 
L 282.961983 483.214979 
L 295.259504 482.528681 
L 307.557025 482.185532 
L 319.854545 481.32766 
L 332.152066 480.641362 
L 344.449587 479.783489 
L 356.747107 478.925617 
L 369.044628 477.89617 
L 381.342149 477.038298 
L 393.639669 476.008851 
L 405.93719 474.80783 
L 418.234711 473.606809 
L 430.532231 472.577362 
L 442.829752 470.690043 
L 455.127273 467.944851 
L 467.424793 463.827064 
L 479.722314 462.626043 
L 492.019835 460.395574 
L 504.317355 458.165106 
L 516.614876 452.503149 
L 528.912397 447.18434 
L 541.209917 441.522383 
L 553.507438 435.517277 
L 565.804959 432.257362 
L 578.102479 430.884766 
L 590.4 428.311149 
L 602.697521 418.531404 
L 614.995041 399.829787 
L 627.292562 391.765787 
L 639.590083 380.270298 
L 651.887603 377.181957 
L 664.185124 371.863149 
L 676.482645 364.142298 
L 688.780165 356.421447 
L 701.077686 346.641702 
L 713.375207 333.258894 
L 725.672727 322.621277 
L 737.970248 321.077106 
L 750.267769 319.018213 
L 762.565289 301.517617 
L 774.86281 287.620085 
L 787.160331 279.556085 
L 799.457851 262.570213 
L 811.755372 244.211745 
L 824.052893 239.40766 
L 836.350413 237.348766 
L 848.647934 219.676596 
L 860.945455 215.558809 
L 873.242975 205.607489 
L 885.540496 195.827745 
L 897.838017 164.94434 
L 910.135537 142.982809 
L 922.433058 139.722894 
L 934.730579 134.747234 
L 947.028099 118.104511 
L 959.32562 116.388766 
L 971.62314 98.88817 
L 983.920661 89.623149 
L 996.218182 89.28 
" clip-path="url(#p240c9d5240)" style="fill: none; stroke: #1f77b4; stroke-width: 1.5; stroke-linecap: square"/>
   </g>
   <g id="patch_3">
    <path d="M 144 512.64 
L 144 69.12 
" style="fill: none; stroke: #000000; stroke-width: 0.8; stroke-linejoin: miter; stroke-linecap: square"/>
   </g>
   <g id="patch_4">
    <path d="M 1036.8 512.64 
L 1036.8 69.12 
" style="fill: none; stroke: #000000; stroke-width: 0.8; stroke-linejoin: miter; stroke-linecap: square"/>
   </g>
   <g id="patch_5">
    <path d="M 144 512.64 
L 1036.8 512.64 
" style="fill: none; stroke: #000000; stroke-width: 0.8; stroke-linejoin: miter; stroke-linecap: square"/>
   </g>
   <g id="patch_6">
    <path d="M 144 69.12 
L 1036.8 69.12 
" style="fill: none; stroke: #000000; stroke-width: 0.8; stroke-linejoin: miter; stroke-linecap: square"/>
   </g>
   <g id="text_11">
    <!-- Number of AEDs in the OpenStreetMap database in Poland from 2025-01-01, day by day. As at: 2025-03-08 -->
    <g transform="translate(144 63.12) scale(0.14 -0.14)">
     <defs>
      <path id="DejaVuSans-4e" d="M 628 4666 
L 1478 4666 
L 3547 763 
L 3547 4666 
L 4159 4666 
L 4159 0 
L 3309 0 
L 1241 3903 
L 1241 0 
L 628 0 
L 628 4666 
z
" transform="scale(0.015625)"/>
      <path id="DejaVuSans-75" d="M 544 1381 
L 544 3500 
L 1119 3500 
L 1119 1403 
Q 1119 906 1312 657 
Q 1506 409 1894 409 
Q 2359 409 2629 706 
Q 2900 1003 2900 1516 
L 2900 3500 
L 3475 3500 
L 3475 0 
L 2900 0 
L 2900 538 
Q 2691 219 2414 64 
Q 2138 -91 1772 -91 
Q 1169 -91 856 284 
Q 544 659 544 1381 
z
M 1991 3584 
L 1991 3584 
z
" transform="scale(0.015625)"/>
      <path id="DejaVuSans-6d" d="M 3328 2828 
Q 3544 3216 3844 3400 
Q 4144 3584 4550 3584 
Q 5097 3584 5394 3201 
Q 5691 2819 5691 2113 
L 5691 0 
L 5113 0 
L 5113 2094 
Q 5113 2597 4934 2840 
Q 4756 3084 4391 3084 
Q 3944 3084 3684 2787 
Q 3425 2491 3425 1978 
L 3425 0 
L 2847 0 
L 2847 2094 
Q 2847 2600 2669 2842 
Q 2491 3084 2119 3084 
Q 1678 3084 1418 2786 
Q 1159 2488 1159 1978 
L 1159 0 
L 581 0 
L 581 3500 
L 1159 3500 
L 1159 2956 
Q 1356 3278 1631 3431 
Q 1906 3584 2284 3584 
Q 2666 3584 2933 3390 
Q 3200 3197 3328 2828 
z
" transform="scale(0.015625)"/>
      <path id="DejaVuSans-62" d="M 3116 1747 
Q 3116 2381 2855 2742 
Q 2594 3103 2138 3103 
Q 1681 3103 1420 2742 
Q 1159 2381 1159 1747 
Q 1159 1113 1420 752 
Q 1681 391 2138 391 
Q 2594 391 2855 752 
Q 3116 1113 3116 1747 
z
M 1159 2969 
Q 1341 3281 1617 3432 
Q 1894 3584 2278 3584 
Q 2916 3584 3314 3078 
Q 3713 2572 3713 1747 
Q 3713 922 3314 415 
Q 2916 -91 2278 -91 
Q 1894 -91 1617 61 
Q 1341 213 1159 525 
L 1159 0 
L 581 0 
L 581 4863 
L 1159 4863 
L 1159 2969 
z
" transform="scale(0.015625)"/>
      <path id="DejaVuSans-65" d="M 3597 1894 
L 3597 1613 
L 953 1613 
Q 991 1019 1311 708 
Q 1631 397 2203 397 
Q 2534 397 2845 478 
Q 3156 559 3463 722 
L 3463 178 
Q 3153 47 2828 -22 
Q 2503 -91 2169 -91 
Q 1331 -91 842 396 
Q 353 884 353 1716 
Q 353 2575 817 3079 
Q 1281 3584 2069 3584 
Q 2775 3584 3186 3129 
Q 3597 2675 3597 1894 
z
M 3022 2063 
Q 3016 2534 2758 2815 
Q 2500 3097 2075 3097 
Q 1594 3097 1305 2825 
Q 1016 2553 972 2059 
L 3022 2063 
z
" transform="scale(0.015625)"/>
      <path id="DejaVuSans-72" d="M 2631 2963 
Q 2534 3019 2420 3045 
Q 2306 3072 2169 3072 
Q 1681 3072 1420 2755 
Q 1159 2438 1159 1844 
L 1159 0 
L 581 0 
L 581 3500 
L 1159 3500 
L 1159 2956 
Q 1341 3275 1631 3429 
Q 1922 3584 2338 3584 
Q 2397 3584 2469 3576 
Q 2541 3569 2628 3553 
L 2631 2963 
z
" transform="scale(0.015625)"/>
      <path id="DejaVuSans-20" transform="scale(0.015625)"/>
      <path id="DejaVuSans-6f" d="M 1959 3097 
Q 1497 3097 1228 2736 
Q 959 2375 959 1747 
Q 959 1119 1226 758 
Q 1494 397 1959 397 
Q 2419 397 2687 759 
Q 2956 1122 2956 1747 
Q 2956 2369 2687 2733 
Q 2419 3097 1959 3097 
z
M 1959 3584 
Q 2709 3584 3137 3096 
Q 3566 2609 3566 1747 
Q 3566 888 3137 398 
Q 2709 -91 1959 -91 
Q 1206 -91 779 398 
Q 353 888 353 1747 
Q 353 2609 779 3096 
Q 1206 3584 1959 3584 
z
" transform="scale(0.015625)"/>
      <path id="DejaVuSans-66" d="M 2375 4863 
L 2375 4384 
L 1825 4384 
Q 1516 4384 1395 4259 
Q 1275 4134 1275 3809 
L 1275 3500 
L 2222 3500 
L 2222 3053 
L 1275 3053 
L 1275 0 
L 697 0 
L 697 3053 
L 147 3053 
L 147 3500 
L 697 3500 
L 697 3744 
Q 697 4328 969 4595 
Q 1241 4863 1831 4863 
L 2375 4863 
z
" transform="scale(0.015625)"/>
      <path id="DejaVuSans-41" d="M 2188 4044 
L 1331 1722 
L 3047 1722 
L 2188 4044 
z
M 1831 4666 
L 2547 4666 
L 4325 0 
L 3669 0 
L 3244 1197 
L 1141 1197 
L 716 0 
L 50 0 
L 1831 4666 
z
" transform="scale(0.015625)"/>
      <path id="DejaVuSans-45" d="M 628 4666 
L 3578 4666 
L 3578 4134 
L 1259 4134 
L 1259 2753 
L 3481 2753 
L 3481 2222 
L 1259 2222 
L 1259 531 
L 3634 531 
L 3634 0 
L 628 0 
L 628 4666 
z
" transform="scale(0.015625)"/>
      <path id="DejaVuSans-44" d="M 1259 4147 
L 1259 519 
L 2022 519 
Q 2988 519 3436 956 
Q 3884 1394 3884 2338 
Q 3884 3275 3436 3711 
Q 2988 4147 2022 4147 
L 1259 4147 
z
M 628 4666 
L 1925 4666 
Q 3281 4666 3915 4102 
Q 4550 3538 4550 2338 
Q 4550 1131 3912 565 
Q 3275 0 1925 0 
L 628 0 
L 628 4666 
z
" transform="scale(0.015625)"/>
      <path id="DejaVuSans-73" d="M 2834 3397 
L 2834 2853 
Q 2591 2978 2328 3040 
Q 2066 3103 1784 3103 
Q 1356 3103 1142 2972 
Q 928 2841 928 2578 
Q 928 2378 1081 2264 
Q 1234 2150 1697 2047 
L 1894 2003 
Q 2506 1872 2764 1633 
Q 3022 1394 3022 966 
Q 3022 478 2636 193 
Q 2250 -91 1575 -91 
Q 1294 -91 989 -36 
Q 684 19 347 128 
L 347 722 
Q 666 556 975 473 
Q 1284 391 1588 391 
Q 1994 391 2212 530 
Q 2431 669 2431 922 
Q 2431 1156 2273 1281 
Q 2116 1406 1581 1522 
L 1381 1569 
Q 847 1681 609 1914 
Q 372 2147 372 2553 
Q 372 3047 722 3315 
Q 1072 3584 1716 3584 
Q 2034 3584 2315 3537 
Q 2597 3491 2834 3397 
z
" transform="scale(0.015625)"/>
      <path id="DejaVuSans-69" d="M 603 3500 
L 1178 3500 
L 1178 0 
L 603 0 
L 603 3500 
z
M 603 4863 
L 1178 4863 
L 1178 4134 
L 603 4134 
L 603 4863 
z
" transform="scale(0.015625)"/>
      <path id="DejaVuSans-6e" d="M 3513 2113 
L 3513 0 
L 2938 0 
L 2938 2094 
Q 2938 2591 2744 2837 
Q 2550 3084 2163 3084 
Q 1697 3084 1428 2787 
Q 1159 2491 1159 1978 
L 1159 0 
L 581 0 
L 581 3500 
L 1159 3500 
L 1159 2956 
Q 1366 3272 1645 3428 
Q 1925 3584 2291 3584 
Q 2894 3584 3203 3211 
Q 3513 2838 3513 2113 
z
" transform="scale(0.015625)"/>
      <path id="DejaVuSans-74" d="M 1172 4494 
L 1172 3500 
L 2356 3500 
L 2356 3053 
L 1172 3053 
L 1172 1153 
Q 1172 725 1289 603 
Q 1406 481 1766 481 
L 2356 481 
L 2356 0 
L 1766 0 
Q 1100 0 847 248 
Q 594 497 594 1153 
L 594 3053 
L 172 3053 
L 172 3500 
L 594 3500 
L 594 4494 
L 1172 4494 
z
" transform="scale(0.015625)"/>
      <path id="DejaVuSans-68" d="M 3513 2113 
L 3513 0 
L 2938 0 
L 2938 2094 
Q 2938 2591 2744 2837 
Q 2550 3084 2163 3084 
Q 1697 3084 1428 2787 
Q 1159 2491 1159 1978 
L 1159 0 
L 581 0 
L 581 4863 
L 1159 4863 
L 1159 2956 
Q 1366 3272 1645 3428 
Q 1925 3584 2291 3584 
Q 2894 3584 3203 3211 
Q 3513 2838 3513 2113 
z
" transform="scale(0.015625)"/>
      <path id="DejaVuSans-4f" d="M 2522 4238 
Q 1834 4238 1429 3725 
Q 1025 3213 1025 2328 
Q 1025 1447 1429 934 
Q 1834 422 2522 422 
Q 3209 422 3611 934 
Q 4013 1447 4013 2328 
Q 4013 3213 3611 3725 
Q 3209 4238 2522 4238 
z
M 2522 4750 
Q 3503 4750 4090 4092 
Q 4678 3434 4678 2328 
Q 4678 1225 4090 567 
Q 3503 -91 2522 -91 
Q 1538 -91 948 565 
Q 359 1222 359 2328 
Q 359 3434 948 4092 
Q 1538 4750 2522 4750 
z
" transform="scale(0.015625)"/>
      <path id="DejaVuSans-70" d="M 1159 525 
L 1159 -1331 
L 581 -1331 
L 581 3500 
L 1159 3500 
L 1159 2969 
Q 1341 3281 1617 3432 
Q 1894 3584 2278 3584 
Q 2916 3584 3314 3078 
Q 3713 2572 3713 1747 
Q 3713 922 3314 415 
Q 2916 -91 2278 -91 
Q 1894 -91 1617 61 
Q 1341 213 1159 525 
z
M 3116 1747 
Q 3116 2381 2855 2742 
Q 2594 3103 2138 3103 
Q 1681 3103 1420 2742 
Q 1159 2381 1159 1747 
Q 1159 1113 1420 752 
Q 1681 391 2138 391 
Q 2594 391 2855 752 
Q 3116 1113 3116 1747 
z
" transform="scale(0.015625)"/>
      <path id="DejaVuSans-53" d="M 3425 4513 
L 3425 3897 
Q 3066 4069 2747 4153 
Q 2428 4238 2131 4238 
Q 1616 4238 1336 4038 
Q 1056 3838 1056 3469 
Q 1056 3159 1242 3001 
Q 1428 2844 1947 2747 
L 2328 2669 
Q 3034 2534 3370 2195 
Q 3706 1856 3706 1288 
Q 3706 609 3251 259 
Q 2797 -91 1919 -91 
Q 1588 -91 1214 -16 
Q 841 59 441 206 
L 441 856 
Q 825 641 1194 531 
Q 1563 422 1919 422 
Q 2459 422 2753 634 
Q 3047 847 3047 1241 
Q 3047 1584 2836 1778 
Q 2625 1972 2144 2069 
L 1759 2144 
Q 1053 2284 737 2584 
Q 422 2884 422 3419 
Q 422 4038 858 4394 
Q 1294 4750 2059 4750 
Q 2388 4750 2728 4690 
Q 3069 4631 3425 4513 
z
" transform="scale(0.015625)"/>
      <path id="DejaVuSans-4d" d="M 628 4666 
L 1569 4666 
L 2759 1491 
L 3956 4666 
L 4897 4666 
L 4897 0 
L 4281 0 
L 4281 4097 
L 3078 897 
L 2444 897 
L 1241 4097 
L 1241 0 
L 628 0 
L 628 4666 
z
" transform="scale(0.015625)"/>
      <path id="DejaVuSans-61" d="M 2194 1759 
Q 1497 1759 1228 1600 
Q 959 1441 959 1056 
Q 959 750 1161 570 
Q 1363 391 1709 391 
Q 2188 391 2477 730 
Q 2766 1069 2766 1631 
L 2766 1759 
L 2194 1759 
z
M 3341 1997 
L 3341 0 
L 2766 0 
L 2766 531 
Q 2569 213 2275 61 
Q 1981 -91 1556 -91 
Q 1019 -91 701 211 
Q 384 513 384 1019 
Q 384 1609 779 1909 
Q 1175 2209 1959 2209 
L 2766 2209 
L 2766 2266 
Q 2766 2663 2505 2880 
Q 2244 3097 1772 3097 
Q 1472 3097 1187 3025 
Q 903 2953 641 2809 
L 641 3341 
Q 956 3463 1253 3523 
Q 1550 3584 1831 3584 
Q 2591 3584 2966 3190 
Q 3341 2797 3341 1997 
z
" transform="scale(0.015625)"/>
      <path id="DejaVuSans-64" d="M 2906 2969 
L 2906 4863 
L 3481 4863 
L 3481 0 
L 2906 0 
L 2906 525 
Q 2725 213 2448 61 
Q 2172 -91 1784 -91 
Q 1150 -91 751 415 
Q 353 922 353 1747 
Q 353 2572 751 3078 
Q 1150 3584 1784 3584 
Q 2172 3584 2448 3432 
Q 2725 3281 2906 2969 
z
M 947 1747 
Q 947 1113 1208 752 
Q 1469 391 1925 391 
Q 2381 391 2643 752 
Q 2906 1113 2906 1747 
Q 2906 2381 2643 2742 
Q 2381 3103 1925 3103 
Q 1469 3103 1208 2742 
Q 947 2381 947 1747 
z
" transform="scale(0.015625)"/>
      <path id="DejaVuSans-50" d="M 1259 4147 
L 1259 2394 
L 2053 2394 
Q 2494 2394 2734 2622 
Q 2975 2850 2975 3272 
Q 2975 3691 2734 3919 
Q 2494 4147 2053 4147 
L 1259 4147 
z
M 628 4666 
L 2053 4666 
Q 2838 4666 3239 4311 
Q 3641 3956 3641 3272 
Q 3641 2581 3239 2228 
Q 2838 1875 2053 1875 
L 1259 1875 
L 1259 0 
L 628 0 
L 628 4666 
z
" transform="scale(0.015625)"/>
      <path id="DejaVuSans-6c" d="M 603 4863 
L 1178 4863 
L 1178 0 
L 603 0 
L 603 4863 
z
" transform="scale(0.015625)"/>
      <path id="DejaVuSans-2c" d="M 750 794 
L 1409 794 
L 1409 256 
L 897 -744 
L 494 -744 
L 750 256 
L 750 794 
z
" transform="scale(0.015625)"/>
      <path id="DejaVuSans-79" d="M 2059 -325 
Q 1816 -950 1584 -1140 
Q 1353 -1331 966 -1331 
L 506 -1331 
L 506 -850 
L 844 -850 
Q 1081 -850 1212 -737 
Q 1344 -625 1503 -206 
L 1606 56 
L 191 3500 
L 800 3500 
L 1894 763 
L 2988 3500 
L 3597 3500 
L 2059 -325 
z
" transform="scale(0.015625)"/>
      <path id="DejaVuSans-2e" d="M 684 794 
L 1344 794 
L 1344 0 
L 684 0 
L 684 794 
z
" transform="scale(0.015625)"/>
      <path id="DejaVuSans-3a" d="M 750 794 
L 1409 794 
L 1409 0 
L 750 0 
L 750 794 
z
M 750 3309 
L 1409 3309 
L 1409 2516 
L 750 2516 
L 750 3309 
z
" transform="scale(0.015625)"/>
     </defs>
     <use xlink:href="#DejaVuSans-4e"/>
     <use xlink:href="#DejaVuSans-75" x="74.804688"/>
     <use xlink:href="#DejaVuSans-6d" x="138.183594"/>
     <use xlink:href="#DejaVuSans-62" x="235.595703"/>
     <use xlink:href="#DejaVuSans-65" x="299.072266"/>
     <use xlink:href="#DejaVuSans-72" x="360.595703"/>
     <use xlink:href="#DejaVuSans-20" x="401.708984"/>
     <use xlink:href="#DejaVuSans-6f" x="433.496094"/>
     <use xlink:href="#DejaVuSans-66" x="494.677734"/>
     <use xlink:href="#DejaVuSans-20" x="529.882812"/>
     <use xlink:href="#DejaVuSans-41" x="561.669922"/>
     <use xlink:href="#DejaVuSans-45" x="630.078125"/>
     <use xlink:href="#DejaVuSans-44" x="693.261719"/>
     <use xlink:href="#DejaVuSans-73" x="770.263672"/>
     <use xlink:href="#DejaVuSans-20" x="822.363281"/>
     <use xlink:href="#DejaVuSans-69" x="854.150391"/>
     <use xlink:href="#DejaVuSans-6e" x="881.933594"/>
     <use xlink:href="#DejaVuSans-20" x="945.3125"/>
     <use xlink:href="#DejaVuSans-74" x="977.099609"/>
     <use xlink:href="#DejaVuSans-68" x="1016.308594"/>
     <use xlink:href="#DejaVuSans-65" x="1079.6875"/>
     <use xlink:href="#DejaVuSans-20" x="1141.210938"/>
     <use xlink:href="#DejaVuSans-4f" x="1172.998047"/>
     <use xlink:href="#DejaVuSans-70" x="1251.708984"/>
     <use xlink:href="#DejaVuSans-65" x="1315.185547"/>
     <use xlink:href="#DejaVuSans-6e" x="1376.708984"/>
     <use xlink:href="#DejaVuSans-53" x="1440.087891"/>
     <use xlink:href="#DejaVuSans-74" x="1503.564453"/>
     <use xlink:href="#DejaVuSans-72" x="1542.773438"/>
     <use xlink:href="#DejaVuSans-65" x="1581.636719"/>
     <use xlink:href="#DejaVuSans-65" x="1643.160156"/>
     <use xlink:href="#DejaVuSans-74" x="1704.683594"/>
     <use xlink:href="#DejaVuSans-4d" x="1743.892578"/>
     <use xlink:href="#DejaVuSans-61" x="1830.171875"/>
     <use xlink:href="#DejaVuSans-70" x="1891.451172"/>
     <use xlink:href="#DejaVuSans-20" x="1954.927734"/>
     <use xlink:href="#DejaVuSans-64" x="1986.714844"/>
     <use xlink:href="#DejaVuSans-61" x="2050.191406"/>
     <use xlink:href="#DejaVuSans-74" x="2111.470703"/>
     <use xlink:href="#DejaVuSans-61" x="2150.679688"/>
     <use xlink:href="#DejaVuSans-62" x="2211.958984"/>
     <use xlink:href="#DejaVuSans-61" x="2275.435547"/>
     <use xlink:href="#DejaVuSans-73" x="2336.714844"/>
     <use xlink:href="#DejaVuSans-65" x="2388.814453"/>
     <use xlink:href="#DejaVuSans-20" x="2450.337891"/>
     <use xlink:href="#DejaVuSans-69" x="2482.125"/>
     <use xlink:href="#DejaVuSans-6e" x="2509.908203"/>
     <use xlink:href="#DejaVuSans-20" x="2573.287109"/>
     <use xlink:href="#DejaVuSans-50" x="2605.074219"/>
     <use xlink:href="#DejaVuSans-6f" x="2661.751953"/>
     <use xlink:href="#DejaVuSans-6c" x="2722.933594"/>
     <use xlink:href="#DejaVuSans-61" x="2750.716797"/>
     <use xlink:href="#DejaVuSans-6e" x="2811.996094"/>
     <use xlink:href="#DejaVuSans-64" x="2875.375"/>
     <use xlink:href="#DejaVuSans-20" x="2938.851562"/>
     <use xlink:href="#DejaVuSans-66" x="2970.638672"/>
     <use xlink:href="#DejaVuSans-72" x="3005.84375"/>
     <use xlink:href="#DejaVuSans-6f" x="3044.707031"/>
     <use xlink:href="#DejaVuSans-6d" x="3105.888672"/>
     <use xlink:href="#DejaVuSans-20" x="3203.300781"/>
     <use xlink:href="#DejaVuSans-32" x="3235.087891"/>
     <use xlink:href="#DejaVuSans-30" x="3298.710938"/>
     <use xlink:href="#DejaVuSans-32" x="3362.333984"/>
     <use xlink:href="#DejaVuSans-35" x="3425.957031"/>
     <use xlink:href="#DejaVuSans-2d" x="3489.580078"/>
     <use xlink:href="#DejaVuSans-30" x="3525.664062"/>
     <use xlink:href="#DejaVuSans-31" x="3589.287109"/>
     <use xlink:href="#DejaVuSans-2d" x="3652.910156"/>
     <use xlink:href="#DejaVuSans-30" x="3688.994141"/>
     <use xlink:href="#DejaVuSans-31" x="3752.617188"/>
     <use xlink:href="#DejaVuSans-2c" x="3816.240234"/>
     <use xlink:href="#DejaVuSans-20" x="3848.027344"/>
     <use xlink:href="#DejaVuSans-64" x="3879.814453"/>
     <use xlink:href="#DejaVuSans-61" x="3943.291016"/>
     <use xlink:href="#DejaVuSans-79" x="4004.570312"/>
     <use xlink:href="#DejaVuSans-20" x="4063.75"/>
     <use xlink:href="#DejaVuSans-62" x="4095.537109"/>
     <use xlink:href="#DejaVuSans-79" x="4159.013672"/>
     <use xlink:href="#DejaVuSans-20" x="4218.193359"/>
     <use xlink:href="#DejaVuSans-64" x="4249.980469"/>
     <use xlink:href="#DejaVuSans-61" x="4313.457031"/>
     <use xlink:href="#DejaVuSans-79" x="4374.736328"/>
     <use xlink:href="#DejaVuSans-2e" x="4419.666016"/>
     <use xlink:href="#DejaVuSans-20" x="4451.453125"/>
     <use xlink:href="#DejaVuSans-41" x="4483.240234"/>
     <use xlink:href="#DejaVuSans-73" x="4551.648438"/>
     <use xlink:href="#DejaVuSans-20" x="4603.748047"/>
     <use xlink:href="#DejaVuSans-61" x="4635.535156"/>
     <use xlink:href="#DejaVuSans-74" x="4696.814453"/>
     <use xlink:href="#DejaVuSans-3a" x="4736.023438"/>
     <use xlink:href="#DejaVuSans-20" x="4769.714844"/>
     <use xlink:href="#DejaVuSans-32" x="4801.501953"/>
     <use xlink:href="#DejaVuSans-30" x="4865.125"/>
     <use xlink:href="#DejaVuSans-32" x="4928.748047"/>
     <use xlink:href="#DejaVuSans-35" x="4992.371094"/>
     <use xlink:href="#DejaVuSans-2d" x="5055.994141"/>
     <use xlink:href="#DejaVuSans-30" x="5092.078125"/>
     <use xlink:href="#DejaVuSans-33" x="5155.701172"/>
     <use xlink:href="#DejaVuSans-2d" x="5219.324219"/>
     <use xlink:href="#DejaVuSans-30" x="5255.408203"/>
     <use xlink:href="#DejaVuSans-38" x="5319.03125"/>
    </g>
   </g>
  </g>
 </g>
 <defs>
  <clipPath id="p240c9d5240">
   <rect x="144" y="69.12" width="892.8" height="443.52"/>
  </clipPath>
 </defs>
</svg>
