<?xml version="1.0" encoding="utf-8" standalone="no"?>
<!DOCTYPE svg PUBLIC "-//W3C//DTD SVG 1.1//EN"
  "http://www.w3.org/Graphics/SVG/1.1/DTD/svg11.dtd">
<svg xmlns:xlink="http://www.w3.org/1999/xlink" width="1152pt" height="576pt" viewBox="0 0 1152 576" xmlns="http://www.w3.org/2000/svg" version="1.1">
 <metadata>
  <rdf:RDF xmlns:dc="http://purl.org/dc/elements/1.1/" xmlns:cc="http://creativecommons.org/ns#" xmlns:rdf="http://www.w3.org/1999/02/22-rdf-syntax-ns#">
   <cc:Work>
    <dc:type rdf:resource="http://purl.org/dc/dcmitype/StillImage"/>
    <dc:date>1980-01-01T00:00:00+00:00</dc:date>
    <dc:format>image/svg+xml</dc:format>
    <dc:creator>
     <cc:Agent>
      <dc:title>Matplotlib v3.9.1, https://matplotlib.org/</dc:title>
     </cc:Agent>
    </dc:creator>
   </cc:Work>
  </rdf:RDF>
 </metadata>
 <defs>
  <style type="text/css">*{stroke-linejoin: round; stroke-linecap: butt}</style>
 </defs>
 <g id="figure_1">
  <g id="patch_1">
   <path d="M 0 576 
L 1152 576 
L 1152 0 
L 0 0 
z
" style="fill: #ffffff"/>
  </g>
  <g id="axes_1">
   <g id="patch_2">
    <path d="M 144 512.64 
L 1036.8 512.64 
L 1036.8 69.12 
L 144 69.12 
z
" style="fill: #ffffff"/>
   </g>
   <g id="PathCollection_1">
    <path d="M 184.581818 496.352983 
C 185.608945 496.352983 186.594142 495.944901 187.320431 495.218613 
C 188.04672 494.492324 188.454802 493.507127 188.454802 492.48 
C 188.454802 491.452873 188.04672 490.467676 187.320431 489.741387 
C 186.594142 489.015099 185.608945 488.607017 184.581818 488.607017 
C 183.554691 488.607017 182.569494 489.015099 181.843205 489.741387 
C 181.116917 490.467676 180.708835 491.452873 180.708835 492.48 
C 180.708835 493.507127 181.116917 494.492324 181.843205 495.218613 
C 182.569494 495.944901 183.554691 496.352983 184.581818 496.352983 
z
" clip-path="url(#pe00a660af3)" style="fill: #1f77b4; fill-opacity: 0.3; stroke: #1f77b4; stroke-opacity: 0.3"/>
    <path d="M 195.12255 495.174202 
C 196.851463 495.174202 198.509797 494.487298 199.732322 493.264772 
C 200.954848 492.042246 201.641753 490.383913 201.641753 488.655 
C 201.641753 486.926087 200.954848 485.267754 199.732322 484.045228 
C 198.509797 482.822702 196.851463 482.135798 195.12255 482.135798 
C 193.393637 482.135798 191.735304 482.822702 190.512778 484.045228 
C 189.290252 485.267754 188.603348 486.926087 188.603348 488.655 
C 188.603348 490.383913 189.290252 492.042246 190.512778 493.264772 
C 191.735304 494.487298 193.393637 495.174202 195.12255 495.174202 
z
" clip-path="url(#pe00a660af3)" style="fill: #1f77b4; fill-opacity: 0.3; stroke: #1f77b4; stroke-opacity: 0.3"/>
    <path d="M 205.663282 490.7216 
C 207.88213 490.7216 210.010399 489.840042 211.579362 488.27108 
C 213.148325 486.702117 214.029882 484.573848 214.029882 482.355 
C 214.029882 480.136152 213.148325 478.007883 211.579362 476.43892 
C 210.010399 474.869958 207.88213 473.9884 205.663282 473.9884 
C 203.444434 473.9884 201.316165 474.869958 199.747202 476.43892 
C 198.17824 478.007883 197.296682 480.136152 197.296682 482.355 
C 197.296682 484.573848 198.17824 486.702117 199.747202 488.27108 
C 201.316165 489.840042 203.444434 490.7216 205.663282 490.7216 
z
" clip-path="url(#pe00a660af3)" style="fill: #1f77b4; fill-opacity: 0.3; stroke: #1f77b4; stroke-opacity: 0.3"/>
    <path d="M 216.204014 485.124044 
C 217.594751 485.124044 218.928714 484.571499 219.912113 483.588099 
C 220.895513 482.6047 221.448058 481.270737 221.448058 479.88 
C 221.448058 478.489263 220.895513 477.1553 219.912113 476.171901 
C 218.928714 475.188501 217.594751 474.635956 216.204014 474.635956 
C 214.813277 474.635956 213.479314 475.188501 212.495915 476.171901 
C 211.512516 477.1553 210.95997 478.489263 210.95997 479.88 
C 210.95997 481.270737 211.512516 482.6047 212.495915 483.588099 
C 213.479314 484.571499 214.813277 485.124044 216.204014 485.124044 
z
" clip-path="url(#pe00a660af3)" style="fill: #1f77b4; fill-opacity: 0.3; stroke: #1f77b4; stroke-opacity: 0.3"/>
    <path d="M 226.744746 482.290534 
C 227.682381 482.290534 228.581738 481.918008 229.244746 481.255 
C 229.907754 480.591992 230.28028 479.692635 230.28028 478.755 
C 230.28028 477.817365 229.907754 476.918008 229.244746 476.255 
C 228.581738 475.591992 227.682381 475.219466 226.744746 475.219466 
C 225.807112 475.219466 224.907754 475.591992 224.244746 476.255 
C 223.581738 476.918008 223.209212 477.817365 223.209212 478.755 
C 223.209212 479.692635 223.581738 480.591992 224.244746 481.255 
C 224.907754 481.918008 225.807112 482.290534 226.744746 482.290534 
z
" clip-path="url(#pe00a660af3)" style="fill: #1f77b4; fill-opacity: 0.3; stroke: #1f77b4; stroke-opacity: 0.3"/>
    <path d="M 237.285478 481.449202 
C 239.014391 481.449202 240.672725 480.762298 241.89525 479.539772 
C 243.117776 478.317246 243.804681 476.658913 243.804681 474.93 
C 243.804681 473.201087 243.117776 471.542754 241.89525 470.320228 
C 240.672725 469.097702 239.014391 468.410798 237.285478 468.410798 
C 235.556565 468.410798 233.898232 469.097702 232.675706 470.320228 
C 231.45318 471.542754 230.766276 473.201087 230.766276 474.93 
C 230.766276 476.658913 231.45318 478.317246 232.675706 479.539772 
C 233.898232 480.762298 235.556565 481.449202 237.285478 481.449202 
z
" clip-path="url(#pe00a660af3)" style="fill: #1f77b4; fill-opacity: 0.3; stroke: #1f77b4; stroke-opacity: 0.3"/>
    <path d="M 247.82621 477.678724 
C 249.450241 477.678724 251.007974 477.03349 252.156337 475.885127 
C 253.3047 474.736764 253.949935 473.179031 253.949935 471.555 
C 253.949935 469.930969 253.3047 468.373236 252.156337 467.224873 
C 251.007974 466.07651 249.450241 465.431276 247.82621 465.431276 
C 246.202179 465.431276 244.644446 466.07651 243.496083 467.224873 
C 242.34772 468.373236 241.702486 469.930969 241.702486 471.555 
C 241.702486 473.179031 242.34772 474.736764 243.496083 475.885127 
C 244.644446 477.03349 246.202179 477.678724 247.82621 477.678724 
z
" clip-path="url(#pe00a660af3)" style="fill: #1f77b4; fill-opacity: 0.3; stroke: #1f77b4; stroke-opacity: 0.3"/>
    <path d="M 258.366942 472.654209 
C 260.985613 472.654209 263.497382 471.6138 265.349062 469.76212 
C 267.200742 467.91044 268.241151 465.398671 268.241151 462.78 
C 268.241151 460.161329 267.200742 457.64956 265.349062 455.79788 
C 263.497382 453.9462 260.985613 452.905791 258.366942 452.905791 
C 255.748271 452.905791 253.236502 453.9462 251.384822 455.79788 
C 249.533142 457.64956 248.492733 460.161329 248.492733 462.78 
C 248.492733 465.398671 249.533142 467.91044 251.384822 469.76212 
C 253.236502 471.6138 255.748271 472.654209 258.366942 472.654209 
z
" clip-path="url(#pe00a660af3)" style="fill: #1f77b4; fill-opacity: 0.3; stroke: #1f77b4; stroke-opacity: 0.3"/>
    <path d="M 268.907674 465.351068 
C 270.782943 465.351068 272.581659 464.606015 273.907674 463.28 
C 275.23369 461.953984 275.978742 460.155269 275.978742 458.28 
C 275.978742 456.404731 275.23369 454.606015 273.907674 453.28 
C 272.581659 451.953984 270.782943 451.208932 268.907674 451.208932 
C 267.032405 451.208932 265.23369 451.953984 263.907674 453.28 
C 262.581659 454.606015 261.836606 456.404731 261.836606 458.28 
C 261.836606 460.155269 262.581659 461.953984 263.907674 463.28 
C 265.23369 464.606015 267.032405 465.351068 268.907674 465.351068 
z
" clip-path="url(#pe00a660af3)" style="fill: #1f77b4; fill-opacity: 0.3; stroke: #1f77b4; stroke-opacity: 0.3"/>
    <path d="M 279.448406 460.998416 
C 280.706375 460.998416 281.91299 460.49862 282.802508 459.609102 
C 283.692026 458.719584 284.191823 457.512969 284.191823 456.255 
C 284.191823 454.997031 283.692026 453.790416 282.802508 452.900898 
C 281.91299 452.01138 280.706375 451.511584 279.448406 451.511584 
C 278.190437 451.511584 276.983822 452.01138 276.094304 452.900898 
C 275.204786 453.790416 274.70499 454.997031 274.70499 456.255 
C 274.70499 457.512969 275.204786 458.719584 276.094304 459.609102 
C 276.983822 460.49862 278.190437 460.998416 279.448406 460.998416 
z
" clip-path="url(#pe00a660af3)" style="fill: #1f77b4; fill-opacity: 0.3; stroke: #1f77b4; stroke-opacity: 0.3"/>
    <path d="M 289.989138 458.041068 
C 290.58215 458.041068 291.150954 457.805462 291.570277 457.386139 
C 291.9896 456.966816 292.225206 456.398012 292.225206 455.805 
C 292.225206 455.211988 291.9896 454.643184 291.570277 454.223861 
C 291.150954 453.804538 290.58215 453.568932 289.989138 453.568932 
C 289.396126 453.568932 288.827322 453.804538 288.407999 454.223861 
C 287.988676 454.643184 287.75307 455.211988 287.75307 455.805 
C 287.75307 456.398012 287.988676 456.966816 288.407999 457.386139 
C 288.827322 457.805462 289.396126 458.041068 289.989138 458.041068 
z
" clip-path="url(#pe00a660af3)" style="fill: #1f77b4; fill-opacity: 0.3; stroke: #1f77b4; stroke-opacity: 0.3"/>
    <path d="M 300.52987 457.001794 
C 303.11475 457.001794 305.594108 455.974811 307.421895 454.147024 
C 309.249681 452.319238 310.276664 449.83988 310.276664 447.255 
C 310.276664 444.67012 309.249681 442.190762 307.421895 440.362976 
C 305.594108 438.535189 303.11475 437.508206 300.52987 437.508206 
C 297.94499 437.508206 295.465632 438.535189 293.637846 440.362976 
C 291.81006 442.190762 290.783076 444.67012 290.783076 447.255 
C 290.783076 449.83988 291.81006 452.319238 293.637846 454.147024 
C 295.465632 455.974811 297.94499 457.001794 300.52987 457.001794 
z
" clip-path="url(#pe00a660af3)" style="fill: #1f77b4; fill-opacity: 0.3; stroke: #1f77b4; stroke-opacity: 0.3"/>
    <path d="M 311.070602 449.535694 
C 313.167217 449.535694 315.178242 448.7027 316.660772 447.22017 
C 318.143302 445.73764 318.976296 443.726615 318.976296 441.63 
C 318.976296 439.533385 318.143302 437.52236 316.660772 436.03983 
C 315.178242 434.5573 313.167217 433.724306 311.070602 433.724306 
C 308.973988 433.724306 306.962963 434.5573 305.480432 436.03983 
C 303.997902 437.52236 303.164908 439.533385 303.164908 441.63 
C 303.164908 443.726615 303.997902 445.73764 305.480432 447.22017 
C 306.962963 448.7027 308.973988 449.535694 311.070602 449.535694 
z
" clip-path="url(#pe00a660af3)" style="fill: #1f77b4; fill-opacity: 0.3; stroke: #1f77b4; stroke-opacity: 0.3"/>
    <path d="M 321.611334 444.405877 
C 323.123224 444.405877 324.573395 443.805197 325.642463 442.736129 
C 326.711531 441.667061 327.312211 440.21689 327.312211 438.705 
C 327.312211 437.19311 326.711531 435.742939 325.642463 434.673871 
C 324.573395 433.604803 323.123224 433.004123 321.611334 433.004123 
C 320.099444 433.004123 318.649273 433.604803 317.580205 434.673871 
C 316.511137 435.742939 315.910457 437.19311 315.910457 438.705 
C 315.910457 440.21689 316.511137 441.667061 317.580205 442.736129 
C 318.649273 443.805197 320.099444 444.405877 321.611334 444.405877 
z
" clip-path="url(#pe00a660af3)" style="fill: #1f77b4; fill-opacity: 0.3; stroke: #1f77b4; stroke-opacity: 0.3"/>
    <path d="M 332.152066 440.449272 
C 334.524115 440.449272 336.79933 439.506847 338.476621 437.829555 
C 340.153913 436.152264 341.096338 433.877049 341.096338 431.505 
C 341.096338 429.132951 340.153913 426.857736 338.476621 425.180445 
C 336.79933 423.503153 334.524115 422.560728 332.152066 422.560728 
C 329.780017 422.560728 327.504802 423.503153 325.827511 425.180445 
C 324.150219 426.857736 323.207794 429.132951 323.207794 431.505 
C 323.207794 433.877049 324.150219 436.152264 325.827511 437.829555 
C 327.504802 439.506847 329.780017 440.449272 332.152066 440.449272 
z
" clip-path="url(#pe00a660af3)" style="fill: #1f77b4; fill-opacity: 0.3; stroke: #1f77b4; stroke-opacity: 0.3"/>
    <path d="M 342.692798 432.198221 
C 345.442482 432.198221 348.079917 431.10576 350.024237 429.161439 
C 351.968558 427.217119 353.061019 424.579684 353.061019 421.83 
C 353.061019 419.080316 351.968558 416.442881 350.024237 414.498561 
C 348.079917 412.55424 345.442482 411.461779 342.692798 411.461779 
C 339.943114 411.461779 337.305679 412.55424 335.361359 414.498561 
C 333.417039 416.442881 332.324577 419.080316 332.324577 421.83 
C 332.324577 424.579684 333.417039 427.217119 335.361359 429.161439 
C 337.305679 431.10576 339.943114 432.198221 342.692798 432.198221 
z
" clip-path="url(#pe00a660af3)" style="fill: #1f77b4; fill-opacity: 0.3; stroke: #1f77b4; stroke-opacity: 0.3"/>
    <path d="M 353.23353 424.092278 
C 354.072176 424.092278 354.876586 423.75908 355.469598 423.166068 
C 356.06261 422.573056 356.395808 421.768646 356.395808 420.93 
C 356.395808 420.091354 356.06261 419.286944 355.469598 418.693932 
C 354.876586 418.10092 354.072176 417.767722 353.23353 417.767722 
C 352.394884 417.767722 351.590474 418.10092 350.997462 418.693932 
C 350.40445 419.286944 350.071252 420.091354 350.071252 420.93 
C 350.071252 421.768646 350.40445 422.573056 350.997462 423.166068 
C 351.590474 423.75908 352.394884 424.092278 353.23353 424.092278 
z
" clip-path="url(#pe00a660af3)" style="fill: #1f77b4; fill-opacity: 0.3; stroke: #1f77b4; stroke-opacity: 0.3"/>
    <path d="M 363.774262 423.699044 
C 365.164999 423.699044 366.498962 423.146499 367.482361 422.163099 
C 368.465761 421.1797 369.018306 419.845737 369.018306 418.455 
C 369.018306 417.064263 368.465761 415.7303 367.482361 414.746901 
C 366.498962 413.763501 365.164999 413.210956 363.774262 413.210956 
C 362.383525 413.210956 361.049562 413.763501 360.066163 414.746901 
C 359.082763 415.7303 358.530218 417.064263 358.530218 418.455 
C 358.530218 419.845737 359.082763 421.1797 360.066163 422.163099 
C 361.049562 423.146499 362.383525 423.699044 363.774262 423.699044 
z
" clip-path="url(#pe00a660af3)" style="fill: #1f77b4; fill-opacity: 0.3; stroke: #1f77b4; stroke-opacity: 0.3"/>
    <path d="M 374.314994 420.595838 
C 376.49386 420.595838 378.583778 419.730166 380.124469 418.189475 
C 381.66516 416.648784 382.530832 414.558866 382.530832 412.38 
C 382.530832 410.201134 381.66516 408.111216 380.124469 406.570525 
C 378.583778 405.029834 376.49386 404.164162 374.314994 404.164162 
C 372.136128 404.164162 370.04621 405.029834 368.505519 406.570525 
C 366.964828 408.111216 366.099156 410.201134 366.099156 412.38 
C 366.099156 414.558866 366.964828 416.648784 368.505519 418.189475 
C 370.04621 419.730166 372.136128 420.595838 374.314994 420.595838 
z
" clip-path="url(#pe00a660af3)" style="fill: #1f77b4; fill-opacity: 0.3; stroke: #1f77b4; stroke-opacity: 0.3"/>
    <path d="M 384.855726 415.157226 
C 386.308303 415.157226 387.701582 414.580111 388.728709 413.552983 
C 389.755837 412.525856 390.332952 411.132577 390.332952 409.68 
C 390.332952 408.227423 389.755837 406.834144 388.728709 405.807017 
C 387.701582 404.779889 386.308303 404.202774 384.855726 404.202774 
C 383.403149 404.202774 382.00987 404.779889 380.982743 405.807017 
C 379.955616 406.834144 379.378501 408.227423 379.378501 409.68 
C 379.378501 411.132577 379.955616 412.525856 380.982743 413.552983 
C 382.00987 414.580111 383.403149 415.157226 384.855726 415.157226 
z
" clip-path="url(#pe00a660af3)" style="fill: #1f77b4; fill-opacity: 0.3; stroke: #1f77b4; stroke-opacity: 0.3"/>
    <path d="M 395.396458 409.61034 
C 398.361519 409.61034 401.205538 408.432309 403.302152 406.335694 
C 405.398767 404.23908 406.576798 401.395061 406.576798 398.43 
C 406.576798 395.464939 405.398767 392.62092 403.302152 390.524306 
C 401.205538 388.427691 398.361519 387.24966 395.396458 387.24966 
C 392.431397 387.24966 389.587379 388.427691 387.490764 390.524306 
C 385.394149 392.62092 384.216118 395.464939 384.216118 398.43 
C 384.216118 401.395061 385.394149 404.23908 387.490764 406.335694 
C 389.587379 408.432309 392.431397 409.61034 395.396458 409.61034 
z
" clip-path="url(#pe00a660af3)" style="fill: #1f77b4; fill-opacity: 0.3; stroke: #1f77b4; stroke-opacity: 0.3"/>
    <path d="M 405.93719 400.570838 
C 408.116056 400.570838 410.205974 399.705166 411.746665 398.164475 
C 413.287356 396.623784 414.153028 394.533866 414.153028 392.355 
C 414.153028 390.176134 413.287356 388.086216 411.746665 386.545525 
C 410.205974 385.004834 408.116056 384.139162 405.93719 384.139162 
C 403.758324 384.139162 401.668406 385.004834 400.127715 386.545525 
C 398.587024 388.086216 397.721352 390.176134 397.721352 392.355 
C 397.721352 394.533866 398.587024 396.623784 400.127715 398.164475 
C 401.668406 399.705166 403.758324 400.570838 405.93719 400.570838 
z
" clip-path="url(#pe00a660af3)" style="fill: #1f77b4; fill-opacity: 0.3; stroke: #1f77b4; stroke-opacity: 0.3"/>
    <path d="M 416.477922 394.700967 
C 418.532176 394.700967 420.50257 393.884803 421.955148 392.432226 
C 423.407725 390.979648 424.223889 389.009254 424.223889 386.955 
C 424.223889 384.900746 423.407725 382.930352 421.955148 381.477774 
C 420.50257 380.025197 418.532176 379.209033 416.477922 379.209033 
C 414.423668 379.209033 412.453274 380.025197 411.000697 381.477774 
C 409.548119 382.930352 408.731955 384.900746 408.731955 386.955 
C 408.731955 389.009254 409.548119 390.979648 411.000697 392.432226 
C 412.453274 393.884803 414.423668 394.700967 416.477922 394.700967 
z
" clip-path="url(#pe00a660af3)" style="fill: #1f77b4; fill-opacity: 0.3; stroke: #1f77b4; stroke-opacity: 0.3"/>
    <path d="M 427.018654 388.944693 
C 429.276777 388.944693 431.442717 388.047531 433.039451 386.450797 
C 434.636185 384.854063 435.533347 382.688123 435.533347 380.43 
C 435.533347 378.171877 434.636185 376.005937 433.039451 374.409203 
C 431.442717 372.812469 429.276777 371.915307 427.018654 371.915307 
C 424.760531 371.915307 422.594591 372.812469 420.997857 374.409203 
C 419.401123 376.005937 418.503961 378.171877 418.503961 380.43 
C 418.503961 382.688123 419.401123 384.854063 420.997857 386.450797 
C 422.594591 388.047531 424.760531 388.944693 427.018654 388.944693 
z
" clip-path="url(#pe00a660af3)" style="fill: #1f77b4; fill-opacity: 0.3; stroke: #1f77b4; stroke-opacity: 0.3"/>
    <path d="M 437.559386 382.692278 
C 438.398032 382.692278 439.202442 382.35908 439.795454 381.766068 
C 440.388466 381.173056 440.721664 380.368646 440.721664 379.53 
C 440.721664 378.691354 440.388466 377.886944 439.795454 377.293932 
C 439.202442 376.70092 438.398032 376.367722 437.559386 376.367722 
C 436.72074 376.367722 435.91633 376.70092 435.323318 377.293932 
C 434.730306 377.886944 434.397108 378.691354 434.397108 379.53 
C 434.397108 380.368646 434.730306 381.173056 435.323318 381.766068 
C 435.91633 382.35908 436.72074 382.692278 437.559386 382.692278 
z
" clip-path="url(#pe00a660af3)" style="fill: #1f77b4; fill-opacity: 0.3; stroke: #1f77b4; stroke-opacity: 0.3"/>
    <path d="M 448.100118 381.792278 
C 448.938764 381.792278 449.743174 381.45908 450.336186 380.866068 
C 450.929198 380.273056 451.262396 379.468646 451.262396 378.63 
C 451.262396 377.791354 450.929198 376.986944 450.336186 376.393932 
C 449.743174 375.80092 448.938764 375.467722 448.100118 375.467722 
C 447.261472 375.467722 446.457062 375.80092 445.86405 376.393932 
C 445.271038 376.986944 444.93784 377.791354 444.93784 378.63 
C 444.93784 379.468646 445.271038 380.273056 445.86405 380.866068 
C 446.457062 381.45908 447.261472 381.792278 448.100118 381.792278 
z
" clip-path="url(#pe00a660af3)" style="fill: #1f77b4; fill-opacity: 0.3; stroke: #1f77b4; stroke-opacity: 0.3"/>
    <path d="M 458.64085 380.016833 
C 461.156788 380.016833 463.570018 379.01724 465.349054 377.238204 
C 467.12809 375.459167 468.127683 373.045938 468.127683 370.53 
C 468.127683 368.014062 467.12809 365.600833 465.349054 363.821796 
C 463.570018 362.04276 461.156788 361.043167 458.64085 361.043167 
C 456.124913 361.043167 453.711683 362.04276 451.932646 363.821796 
C 450.15361 365.600833 449.154017 368.014062 449.154017 370.53 
C 449.154017 373.045938 450.15361 375.459167 451.932646 377.238204 
C 453.711683 379.01724 456.124913 380.016833 458.64085 380.016833 
z
" clip-path="url(#pe00a660af3)" style="fill: #1f77b4; fill-opacity: 0.3; stroke: #1f77b4; stroke-opacity: 0.3"/>
    <path d="M 469.181582 370.46034 
C 472.146643 370.46034 474.990662 369.282309 477.087276 367.185694 
C 479.183891 365.08908 480.361922 362.245061 480.361922 359.28 
C 480.361922 356.314939 479.183891 353.47092 477.087276 351.374306 
C 474.990662 349.277691 472.146643 348.09966 469.181582 348.09966 
C 466.216521 348.09966 463.372503 349.277691 461.275888 351.374306 
C 459.179273 353.47092 458.001242 356.314939 458.001242 359.28 
C 458.001242 362.245061 459.179273 365.08908 461.275888 367.185694 
C 463.372503 369.282309 466.216521 370.46034 469.181582 370.46034 
z
" clip-path="url(#pe00a660af3)" style="fill: #1f77b4; fill-opacity: 0.3; stroke: #1f77b4; stroke-opacity: 0.3"/>
    <path d="M 479.722314 361.024272 
C 482.094363 361.024272 484.369578 360.081847 486.046869 358.404555 
C 487.724161 356.727264 488.666586 354.452049 488.666586 352.08 
C 488.666586 349.707951 487.724161 347.432736 486.046869 345.755445 
C 484.369578 344.078153 482.094363 343.135728 479.722314 343.135728 
C 477.350265 343.135728 475.07505 344.078153 473.397759 345.755445 
C 471.720467 347.432736 470.778042 349.707951 470.778042 352.08 
C 470.778042 354.452049 471.720467 356.727264 473.397759 358.404555 
C 475.07505 360.081847 477.350265 361.024272 479.722314 361.024272 
z
" clip-path="url(#pe00a660af3)" style="fill: #1f77b4; fill-opacity: 0.3; stroke: #1f77b4; stroke-opacity: 0.3"/>
    <path d="M 490.263046 354.220838 
C 492.441912 354.220838 494.53183 353.355166 496.072521 351.814475 
C 497.613212 350.273784 498.478884 348.183866 498.478884 346.005 
C 498.478884 343.826134 497.613212 341.736216 496.072521 340.195525 
C 494.53183 338.654834 492.441912 337.789162 490.263046 337.789162 
C 488.08418 337.789162 485.994262 338.654834 484.453571 340.195525 
C 482.91288 341.736216 482.047208 343.826134 482.047208 346.005 
C 482.047208 348.183866 482.91288 350.273784 484.453571 351.814475 
C 485.994262 353.355166 488.08418 354.220838 490.263046 354.220838 
z
" clip-path="url(#pe00a660af3)" style="fill: #1f77b4; fill-opacity: 0.3; stroke: #1f77b4; stroke-opacity: 0.3"/>
    <path d="M 500.803778 348.267278 
C 501.642424 348.267278 502.446834 347.93408 503.039846 347.341068 
C 503.632858 346.748056 503.966056 345.943646 503.966056 345.105 
C 503.966056 344.266354 503.632858 343.461944 503.039846 342.868932 
C 502.446834 342.27592 501.642424 341.942722 500.803778 341.942722 
C 499.965132 341.942722 499.160722 342.27592 498.56771 342.868932 
C 497.974698 343.461944 497.6415 344.266354 497.6415 345.105 
C 497.6415 345.943646 497.974698 346.748056 498.56771 347.341068 
C 499.160722 347.93408 499.965132 348.267278 500.803778 348.267278 
z
" clip-path="url(#pe00a660af3)" style="fill: #1f77b4; fill-opacity: 0.3; stroke: #1f77b4; stroke-opacity: 0.3"/>
    <path d="M 511.34451 347.874044 
C 512.735247 347.874044 514.06921 347.321499 515.052609 346.338099 
C 516.036009 345.3547 516.588554 344.020737 516.588554 342.63 
C 516.588554 341.239263 516.036009 339.9053 515.052609 338.921901 
C 514.06921 337.938501 512.735247 337.385956 511.34451 337.385956 
C 509.953773 337.385956 508.61981 337.938501 507.636411 338.921901 
C 506.653011 339.9053 506.100466 341.239263 506.100466 342.63 
C 506.100466 344.020737 506.653011 345.3547 507.636411 346.338099 
C 508.61981 347.321499 509.953773 347.874044 511.34451 347.874044 
z
" clip-path="url(#pe00a660af3)" style="fill: #1f77b4; fill-opacity: 0.3; stroke: #1f77b4; stroke-opacity: 0.3"/>
    <path d="M 521.885242 345.201068 
C 523.760511 345.201068 525.559227 344.456016 526.885242 343.13 
C 528.211258 341.803985 528.95631 340.005269 528.95631 338.13 
C 528.95631 336.254731 528.211258 334.456016 526.885242 333.13 
C 525.559227 331.803985 523.760511 331.058932 521.885242 331.058932 
C 520.009973 331.058932 518.211258 331.803985 516.885242 333.13 
C 515.559227 334.456016 514.814174 336.254731 514.814174 338.13 
C 514.814174 340.005269 515.559227 341.803985 516.885242 343.13 
C 518.211258 344.456016 520.009973 345.201068 521.885242 345.201068 
z
" clip-path="url(#pe00a660af3)" style="fill: #1f77b4; fill-opacity: 0.3; stroke: #1f77b4; stroke-opacity: 0.3"/>
    <path d="M 532.425974 340.475967 
C 534.480228 340.475967 536.450622 339.659803 537.9032 338.207226 
C 539.355777 336.754648 540.171941 334.784254 540.171941 332.73 
C 540.171941 330.675746 539.355777 328.705352 537.9032 327.252774 
C 536.450622 325.800197 534.480228 324.984033 532.425974 324.984033 
C 530.37172 324.984033 528.401326 325.800197 526.948748 327.252774 
C 525.496171 328.705352 524.680007 330.675746 524.680007 332.73 
C 524.680007 334.784254 525.496171 336.754648 526.948748 338.207226 
C 528.401326 339.659803 530.37172 340.475967 532.425974 340.475967 
z
" clip-path="url(#pe00a660af3)" style="fill: #1f77b4; fill-opacity: 0.3; stroke: #1f77b4; stroke-opacity: 0.3"/>
    <path d="M 542.966706 335.402136 
C 544.15273 335.402136 545.290338 334.930923 546.128984 334.092278 
C 546.96763 333.253632 547.438842 332.116024 547.438842 330.93 
C 547.438842 329.743976 546.96763 328.606368 546.128984 327.767722 
C 545.290338 326.929077 544.15273 326.457864 542.966706 326.457864 
C 541.780682 326.457864 540.643074 326.929077 539.804428 327.767722 
C 538.965783 328.606368 538.49457 329.743976 538.49457 330.93 
C 538.49457 332.116024 538.965783 333.253632 539.804428 334.092278 
C 540.643074 334.930923 541.780682 335.402136 542.966706 335.402136 
z
" clip-path="url(#pe00a660af3)" style="fill: #1f77b4; fill-opacity: 0.3; stroke: #1f77b4; stroke-opacity: 0.3"/>
    <path d="M 553.507438 332.9966 
C 555.726286 332.9966 557.854555 332.115042 559.423518 330.54608 
C 560.99248 328.977117 561.874038 326.848848 561.874038 324.63 
C 561.874038 322.411152 560.99248 320.282883 559.423518 318.71392 
C 557.854555 317.144958 555.726286 316.2634 553.507438 316.2634 
C 551.28859 316.2634 549.160321 317.144958 547.591358 318.71392 
C 546.022396 320.282883 545.140838 322.411152 545.140838 324.63 
C 545.140838 326.848848 546.022396 328.977117 547.591358 330.54608 
C 549.160321 332.115042 551.28859 332.9966 553.507438 332.9966 
z
" clip-path="url(#pe00a660af3)" style="fill: #1f77b4; fill-opacity: 0.3; stroke: #1f77b4; stroke-opacity: 0.3"/>
    <path d="M 564.04817 327.324202 
C 565.777083 327.324202 567.435416 326.637298 568.657942 325.414772 
C 569.880468 324.192246 570.567372 322.533913 570.567372 320.805 
C 570.567372 319.076087 569.880468 317.417754 568.657942 316.195228 
C 567.435416 314.972702 565.777083 314.285798 564.04817 314.285798 
C 562.319257 314.285798 560.660924 314.972702 559.438398 316.195228 
C 558.215872 317.417754 557.528968 319.076087 557.528968 320.805 
C 557.528968 322.533913 558.215872 324.192246 559.438398 325.414772 
C 560.660924 326.637298 562.319257 327.324202 564.04817 327.324202 
z
" clip-path="url(#pe00a660af3)" style="fill: #1f77b4; fill-opacity: 0.3; stroke: #1f77b4; stroke-opacity: 0.3"/>
    <path d="M 574.588902 323.574044 
C 575.979639 323.574044 577.313602 323.021499 578.297001 322.038099 
C 579.280401 321.0547 579.832946 319.720737 579.832946 318.33 
C 579.832946 316.939263 579.280401 315.6053 578.297001 314.621901 
C 577.313602 313.638501 575.979639 313.085956 574.588902 313.085956 
C 573.198165 313.085956 571.864202 313.638501 570.880803 314.621901 
C 569.897403 315.6053 569.344858 316.939263 569.344858 318.33 
C 569.344858 319.720737 569.897403 321.0547 570.880803 322.038099 
C 571.864202 323.021499 573.198165 323.574044 574.588902 323.574044 
z
" clip-path="url(#pe00a660af3)" style="fill: #1f77b4; fill-opacity: 0.3; stroke: #1f77b4; stroke-opacity: 0.3"/>
    <path d="M 585.129634 319.429209 
C 587.748305 319.429209 590.260074 318.3888 592.111754 316.53712 
C 593.963434 314.68544 595.003843 312.173671 595.003843 309.555 
C 595.003843 306.936329 593.963434 304.42456 592.111754 302.57288 
C 590.260074 300.7212 587.748305 299.680791 585.129634 299.680791 
C 582.510963 299.680791 579.999194 300.7212 578.147514 302.57288 
C 576.295834 304.42456 575.255425 306.936329 575.255425 309.555 
C 575.255425 312.173671 576.295834 314.68544 578.147514 316.53712 
C 579.999194 318.3888 582.510963 319.429209 585.129634 319.429209 
z
" clip-path="url(#pe00a660af3)" style="fill: #1f77b4; fill-opacity: 0.3; stroke: #1f77b4; stroke-opacity: 0.3"/>
    <path d="M 595.670366 312.332226 
C 597.122943 312.332226 598.516222 311.755111 599.543349 310.727983 
C 600.570477 309.700856 601.147592 308.307577 601.147592 306.855 
C 601.147592 305.402423 600.570477 304.009144 599.543349 302.982017 
C 598.516222 301.954889 597.122943 301.377774 595.670366 301.377774 
C 594.217789 301.377774 592.82451 301.954889 591.797383 302.982017 
C 590.770255 304.009144 590.19314 305.402423 590.19314 306.855 
C 590.19314 308.307577 590.770255 309.700856 591.797383 310.727983 
C 592.82451 311.755111 594.217789 312.332226 595.670366 312.332226 
z
" clip-path="url(#pe00a660af3)" style="fill: #1f77b4; fill-opacity: 0.3; stroke: #1f77b4; stroke-opacity: 0.3"/>
    <path d="M 606.211098 308.424544 
C 608.65615 308.424544 611.001388 307.453115 612.7303 305.724202 
C 614.459213 303.99529 615.430642 301.650052 615.430642 299.205 
C 615.430642 296.759948 614.459213 294.41471 612.7303 292.685798 
C 611.001388 290.956885 608.65615 289.985456 606.211098 289.985456 
C 603.766046 289.985456 601.420808 290.956885 599.691896 292.685798 
C 597.962983 294.41471 596.991554 296.759948 596.991554 299.205 
C 596.991554 301.650052 597.962983 303.99529 599.691896 305.724202 
C 601.420808 307.453115 603.766046 308.424544 606.211098 308.424544 
z
" clip-path="url(#pe00a660af3)" style="fill: #1f77b4; fill-opacity: 0.3; stroke: #1f77b4; stroke-opacity: 0.3"/>
    <path d="M 616.75183 301.776068 
C 618.627099 301.776068 620.425814 301.031015 621.75183 299.705 
C 623.077845 298.378984 623.822898 296.580269 623.822898 294.705 
C 623.822898 292.829731 623.077845 291.031015 621.75183 289.705 
C 620.425814 288.378984 618.627099 287.633932 616.75183 287.633932 
C 614.876561 287.633932 613.077845 288.378984 611.75183 289.705 
C 610.425814 291.031015 609.680762 292.829731 609.680762 294.705 
C 609.680762 296.580269 610.425814 298.378984 611.75183 299.705 
C 613.077845 301.031015 614.876561 301.776068 616.75183 301.776068 
z
" clip-path="url(#pe00a660af3)" style="fill: #1f77b4; fill-opacity: 0.3; stroke: #1f77b4; stroke-opacity: 0.3"/>
    <path d="M 627.292562 297.482226 
C 628.745139 297.482226 630.138418 296.905111 631.165545 295.877983 
C 632.192673 294.850856 632.769788 293.457577 632.769788 292.005 
C 632.769788 290.552423 632.192673 289.159144 631.165545 288.132017 
C 630.138418 287.104889 628.745139 286.527774 627.292562 286.527774 
C 625.839985 286.527774 624.446706 287.104889 623.419579 288.132017 
C 622.392451 289.159144 621.815336 290.552423 621.815336 292.005 
C 621.815336 293.457577 622.392451 294.850856 623.419579 295.877983 
C 624.446706 296.905111 625.839985 297.482226 627.292562 297.482226 
z
" clip-path="url(#pe00a660af3)" style="fill: #1f77b4; fill-opacity: 0.3; stroke: #1f77b4; stroke-opacity: 0.3"/>
    <path d="M 637.833294 294.576068 
C 639.708563 294.576068 641.507278 293.831016 642.833294 292.505 
C 644.159309 291.178985 644.904362 289.380269 644.904362 287.505 
C 644.904362 285.629731 644.159309 283.831016 642.833294 282.505 
C 641.507278 281.178985 639.708563 280.433932 637.833294 280.433932 
C 635.958025 280.433932 634.159309 281.178985 632.833294 282.505 
C 631.507278 283.831016 630.762226 285.629731 630.762226 287.505 
C 630.762226 289.380269 631.507278 291.178985 632.833294 292.505 
C 634.159309 293.831016 635.958025 294.576068 637.833294 294.576068 
z
" clip-path="url(#pe00a660af3)" style="fill: #1f77b4; fill-opacity: 0.3; stroke: #1f77b4; stroke-opacity: 0.3"/>
    <path d="M 648.374026 290.223416 
C 649.631995 290.223416 650.83861 289.72362 651.728128 288.834102 
C 652.617646 287.944584 653.117442 286.737969 653.117442 285.48 
C 653.117442 284.222031 652.617646 283.015416 651.728128 282.125898 
C 650.83861 281.23638 649.631995 280.736584 648.374026 280.736584 
C 647.116057 280.736584 645.909442 281.23638 645.019924 282.125898 
C 644.130406 283.015416 643.630609 284.222031 643.630609 285.48 
C 643.630609 286.737969 644.130406 287.944584 645.019924 288.834102 
C 645.909442 289.72362 647.116057 290.223416 648.374026 290.223416 
z
" clip-path="url(#pe00a660af3)" style="fill: #1f77b4; fill-opacity: 0.3; stroke: #1f77b4; stroke-opacity: 0.3"/>
    <path d="M 658.914758 286.772692 
C 661.4654 286.772692 663.911917 285.759311 665.715493 283.955735 
C 667.519069 282.152159 668.53245 279.705642 668.53245 277.155 
C 668.53245 274.604358 667.519069 272.157841 665.715493 270.354265 
C 663.911917 268.550689 661.4654 267.537308 658.914758 267.537308 
C 656.364116 267.537308 653.917599 268.550689 652.114023 270.354265 
C 650.310447 272.157841 649.297066 274.604358 649.297066 277.155 
C 649.297066 279.705642 650.310447 282.152159 652.114023 283.955735 
C 653.917599 285.759311 656.364116 286.772692 658.914758 286.772692 
z
" clip-path="url(#pe00a660af3)" style="fill: #1f77b4; fill-opacity: 0.3; stroke: #1f77b4; stroke-opacity: 0.3"/>
    <path d="M 669.45549 277.309451 
C 672.360644 277.309451 675.147202 276.155221 677.201457 274.100967 
C 679.255711 272.046712 680.409941 269.260154 680.409941 266.355 
C 680.409941 263.449846 679.255711 260.663288 677.201457 258.609033 
C 675.147202 256.554779 672.360644 255.400549 669.45549 255.400549 
C 666.550336 255.400549 663.763778 256.554779 661.709523 258.609033 
C 659.655269 260.663288 658.501039 263.449846 658.501039 266.355 
C 658.501039 269.260154 659.655269 272.046712 661.709523 274.100967 
C 663.763778 276.155221 666.550336 277.309451 669.45549 277.309451 
z
" clip-path="url(#pe00a660af3)" style="fill: #1f77b4; fill-opacity: 0.3; stroke: #1f77b4; stroke-opacity: 0.3"/>
    <path d="M 679.996222 269.073416 
C 681.254191 269.073416 682.460806 268.57362 683.350324 267.684102 
C 684.239842 266.794584 684.739638 265.587969 684.739638 264.33 
C 684.739638 263.072031 684.239842 261.865416 683.350324 260.975898 
C 682.460806 260.08638 681.254191 259.586584 679.996222 259.586584 
C 678.738253 259.586584 677.531638 260.08638 676.64212 260.975898 
C 675.752602 261.865416 675.252805 263.072031 675.252805 264.33 
C 675.252805 265.587969 675.752602 266.794584 676.64212 267.684102 
C 677.531638 268.57362 678.738253 269.073416 679.996222 269.073416 
z
" clip-path="url(#pe00a660af3)" style="fill: #1f77b4; fill-opacity: 0.3; stroke: #1f77b4; stroke-opacity: 0.3"/>
    <path d="M 690.536954 266.901068 
C 692.412223 266.901068 694.210938 266.156015 695.536954 264.83 
C 696.862969 263.503984 697.608022 261.705269 697.608022 259.83 
C 697.608022 257.954731 696.862969 256.156015 695.536954 254.83 
C 694.210938 253.503984 692.412223 252.758932 690.536954 252.758932 
C 688.661685 252.758932 686.862969 253.503984 685.536954 254.83 
C 684.210938 256.156015 683.465886 257.954731 683.465886 259.83 
C 683.465886 261.705269 684.210938 263.503984 685.536954 264.83 
C 686.862969 266.156015 688.661685 266.901068 690.536954 266.901068 
z
" clip-path="url(#pe00a660af3)" style="fill: #1f77b4; fill-opacity: 0.3; stroke: #1f77b4; stroke-opacity: 0.3"/>
    <path d="M 701.077686 262.401068 
C 702.952955 262.401068 704.75167 261.656015 706.077686 260.33 
C 707.403701 259.003984 708.148754 257.205269 708.148754 255.33 
C 708.148754 253.454731 707.403701 251.656015 706.077686 250.33 
C 704.75167 249.003984 702.952955 248.258932 701.077686 248.258932 
C 699.202417 248.258932 697.403701 249.003984 696.077686 250.33 
C 694.75167 251.656015 694.006618 253.454731 694.006618 255.33 
C 694.006618 257.205269 694.75167 259.003984 696.077686 260.33 
C 697.403701 261.656015 699.202417 262.401068 701.077686 262.401068 
z
" clip-path="url(#pe00a660af3)" style="fill: #1f77b4; fill-opacity: 0.3; stroke: #1f77b4; stroke-opacity: 0.3"/>
    <path d="M 711.618418 257.988204 
C 713.397454 257.988204 715.103866 257.281385 716.361834 256.023416 
C 717.619803 254.765448 718.326622 253.059036 718.326622 251.28 
C 718.326622 249.500964 717.619803 247.794552 716.361834 246.536584 
C 715.103866 245.278615 713.397454 244.571796 711.618418 244.571796 
C 709.839381 244.571796 708.13297 245.278615 706.875001 246.536584 
C 705.617033 247.794552 704.910214 249.500964 704.910214 251.28 
C 704.910214 253.059036 705.617033 254.765448 706.875001 256.023416 
C 708.13297 257.281385 709.839381 257.988204 711.618418 257.988204 
z
" clip-path="url(#pe00a660af3)" style="fill: #1f77b4; fill-opacity: 0.3; stroke: #1f77b4; stroke-opacity: 0.3"/>
    <path d="M 722.15915 253.897024 
C 723.986936 253.897024 725.740107 253.170837 727.032547 251.878397 
C 728.324987 250.585957 729.051174 248.832786 729.051174 247.005 
C 729.051174 245.177214 728.324987 243.424043 727.032547 242.131603 
C 725.740107 240.839163 723.986936 240.112976 722.15915 240.112976 
C 720.331364 240.112976 718.578193 240.839163 717.285753 242.131603 
C 715.993313 243.424043 715.267126 245.177214 715.267126 247.005 
C 715.267126 248.832786 715.993313 250.585957 717.285753 251.878397 
C 718.578193 253.170837 720.331364 253.897024 722.15915 253.897024 
z
" clip-path="url(#pe00a660af3)" style="fill: #1f77b4; fill-opacity: 0.3; stroke: #1f77b4; stroke-opacity: 0.3"/>
    <path d="M 732.699882 248.915254 
C 734.996608 248.915254 737.199576 248.002755 738.823606 246.378724 
C 740.447637 244.754694 741.360136 242.551726 741.360136 240.255 
C 741.360136 237.958274 740.447637 235.755306 738.823606 234.131276 
C 737.199576 232.507245 734.996608 231.594746 732.699882 231.594746 
C 730.403156 231.594746 728.200188 232.507245 726.576158 234.131276 
C 724.952127 235.755306 724.039628 237.958274 724.039628 240.255 
C 724.039628 242.551726 724.952127 244.754694 726.576158 246.378724 
C 728.200188 248.002755 730.403156 248.915254 732.699882 248.915254 
z
" clip-path="url(#pe00a660af3)" style="fill: #1f77b4; fill-opacity: 0.3; stroke: #1f77b4; stroke-opacity: 0.3"/>
    <path d="M 743.240614 242.165254 
C 745.53734 242.165254 747.740308 241.252755 749.364338 239.628724 
C 750.988369 238.004694 751.900868 235.801726 751.900868 233.505 
C 751.900868 231.208274 750.988369 229.005306 749.364338 227.381276 
C 747.740308 225.757245 745.53734 224.844746 743.240614 224.844746 
C 740.943888 224.844746 738.74092 225.757245 737.11689 227.381276 
C 735.492859 229.005306 734.58036 231.208274 734.58036 233.505 
C 734.58036 235.801726 735.492859 238.004694 737.11689 239.628724 
C 738.74092 241.252755 740.943888 242.165254 743.240614 242.165254 
z
" clip-path="url(#pe00a660af3)" style="fill: #1f77b4; fill-opacity: 0.3; stroke: #1f77b4; stroke-opacity: 0.3"/>
    <path d="M 753.781346 234.198221 
C 756.53103 234.198221 759.168465 233.10576 761.112785 231.161439 
C 763.057105 229.217119 764.149567 226.579684 764.149567 223.83 
C 764.149567 221.080316 763.057105 218.442881 761.112785 216.498561 
C 759.168465 214.55424 756.53103 213.461779 753.781346 213.461779 
C 751.031662 213.461779 748.394227 214.55424 746.449907 216.498561 
C 744.505586 218.442881 743.413125 221.080316 743.413125 223.83 
C 743.413125 226.579684 744.505586 229.217119 746.449907 231.161439 
C 748.394227 233.10576 751.031662 234.198221 753.781346 234.198221 
z
" clip-path="url(#pe00a660af3)" style="fill: #1f77b4; fill-opacity: 0.3; stroke: #1f77b4; stroke-opacity: 0.3"/>
    <path d="M 764.322078 226.350688 
C 766.243657 226.350688 768.086792 225.587237 769.445553 224.228475 
C 770.804315 222.869714 771.567766 221.026579 771.567766 219.105 
C 771.567766 217.183421 770.804315 215.340286 769.445553 213.981525 
C 768.086792 212.622763 766.243657 211.859312 764.322078 211.859312 
C 762.400499 211.859312 760.557364 212.622763 759.198603 213.981525 
C 757.839841 215.340286 757.07639 217.183421 757.07639 219.105 
C 757.07639 221.026579 757.839841 222.869714 759.198603 224.228475 
C 760.557364 225.587237 762.400499 226.350688 764.322078 226.350688 
z
" clip-path="url(#pe00a660af3)" style="fill: #1f77b4; fill-opacity: 0.3; stroke: #1f77b4; stroke-opacity: 0.3"/>
    <path d="M 774.86281 218.096595 
C 778.056278 218.096595 781.11938 216.827816 783.377503 214.569693 
C 785.635626 212.31157 786.904404 209.248468 786.904404 206.055 
C 786.904404 202.861532 785.635626 199.79843 783.377503 197.540307 
C 781.11938 195.282184 778.056278 194.013405 774.86281 194.013405 
C 771.669342 194.013405 768.60624 195.282184 766.348117 197.540307 
C 764.089994 199.79843 762.821215 202.861532 762.821215 206.055 
C 762.821215 209.248468 764.089994 212.31157 766.348117 214.569693 
C 768.60624 216.827816 771.669342 218.096595 774.86281 218.096595 
z
" clip-path="url(#pe00a660af3)" style="fill: #1f77b4; fill-opacity: 0.3; stroke: #1f77b4; stroke-opacity: 0.3"/>
    <path d="M 785.403542 208.462875 
C 787.414544 208.462875 789.343451 207.663896 790.765445 206.241903 
C 792.187438 204.819909 792.986417 202.891002 792.986417 200.88 
C 792.986417 198.868998 792.187438 196.940091 790.765445 195.518097 
C 789.343451 194.096104 787.414544 193.297125 785.403542 193.297125 
C 783.39254 193.297125 781.463632 194.096104 780.041639 195.518097 
C 778.619646 196.940091 777.820666 198.868998 777.820666 200.88 
C 777.820666 202.891002 778.619646 204.819909 780.041639 206.241903 
C 781.463632 207.663896 783.39254 208.462875 785.403542 208.462875 
z
" clip-path="url(#pe00a660af3)" style="fill: #1f77b4; fill-opacity: 0.3; stroke: #1f77b4; stroke-opacity: 0.3"/>
    <path d="M 795.944274 203.657226 
C 797.396851 203.657226 798.79013 203.080111 799.817257 202.052983 
C 800.844384 201.025856 801.421499 199.632577 801.421499 198.18 
C 801.421499 196.727423 800.844384 195.334144 799.817257 194.307017 
C 798.79013 193.279889 797.396851 192.702774 795.944274 192.702774 
C 794.491697 192.702774 793.098418 193.279889 792.071291 194.307017 
C 791.044163 195.334144 790.467048 196.727423 790.467048 198.18 
C 790.467048 199.632577 791.044163 201.025856 792.071291 202.052983 
C 793.098418 203.080111 794.491697 203.657226 795.944274 203.657226 
z
" clip-path="url(#pe00a660af3)" style="fill: #1f77b4; fill-opacity: 0.3; stroke: #1f77b4; stroke-opacity: 0.3"/>
    <path d="M 806.485006 200.751068 
C 808.360275 200.751068 810.15899 200.006015 811.485006 198.68 
C 812.811021 197.353984 813.556074 195.555269 813.556074 193.68 
C 813.556074 191.804731 812.811021 190.006015 811.485006 188.68 
C 810.15899 187.353984 808.360275 186.608932 806.485006 186.608932 
C 804.609737 186.608932 802.811021 187.353984 801.485006 188.68 
C 800.15899 190.006015 799.413938 191.804731 799.413938 193.68 
C 799.413938 195.555269 800.15899 197.353984 801.485006 198.68 
C 802.811021 200.006015 804.609737 200.751068 806.485006 200.751068 
z
" clip-path="url(#pe00a660af3)" style="fill: #1f77b4; fill-opacity: 0.3; stroke: #1f77b4; stroke-opacity: 0.3"/>
    <path d="M 817.025738 195.820838 
C 819.204604 195.820838 821.294522 194.955166 822.835213 193.414475 
C 824.375904 191.873784 825.241576 189.783866 825.241576 187.605 
C 825.241576 185.426134 824.375904 183.336216 822.835213 181.795525 
C 821.294522 180.254834 819.204604 179.389162 817.025738 179.389162 
C 814.846872 179.389162 812.756954 180.254834 811.216263 181.795525 
C 809.675572 183.336216 808.8099 185.426134 808.8099 187.605 
C 808.8099 189.783866 809.675572 191.873784 811.216263 193.414475 
C 812.756954 194.955166 814.846872 195.820838 817.025738 195.820838 
z
" clip-path="url(#pe00a660af3)" style="fill: #1f77b4; fill-opacity: 0.3; stroke: #1f77b4; stroke-opacity: 0.3"/>
    <path d="M 827.56647 190.176068 
C 829.441739 190.176068 831.240454 189.431016 832.56647 188.105 
C 833.892485 186.778985 834.637538 184.980269 834.637538 183.105 
C 834.637538 181.229731 833.892485 179.431016 832.56647 178.105 
C 831.240454 176.778985 829.441739 176.033932 827.56647 176.033932 
C 825.691201 176.033932 823.892485 176.778985 822.56647 178.105 
C 821.240454 179.431016 820.495402 181.229731 820.495402 183.105 
C 820.495402 184.980269 821.240454 186.778985 822.56647 188.105 
C 823.892485 189.431016 825.691201 190.176068 827.56647 190.176068 
z
" clip-path="url(#pe00a660af3)" style="fill: #1f77b4; fill-opacity: 0.3; stroke: #1f77b4; stroke-opacity: 0.3"/>
    <path d="M 838.107202 185.015254 
C 840.403928 185.015254 842.606896 184.102755 844.230926 182.478724 
C 845.854957 180.854694 846.767456 178.651726 846.767456 176.355 
C 846.767456 174.058274 845.854957 171.855306 844.230926 170.231276 
C 842.606896 168.607245 840.403928 167.694746 838.107202 167.694746 
C 835.810476 167.694746 833.607508 168.607245 831.983478 170.231276 
C 830.359447 171.855306 829.446948 174.058274 829.446948 176.355 
C 829.446948 178.651726 830.359447 180.854694 831.983478 182.478724 
C 833.607508 184.102755 835.810476 185.015254 838.107202 185.015254 
z
" clip-path="url(#pe00a660af3)" style="fill: #1f77b4; fill-opacity: 0.3; stroke: #1f77b4; stroke-opacity: 0.3"/>
    <path d="M 848.647934 179.049202 
C 850.376847 179.049202 852.03518 178.362298 853.257706 177.139772 
C 854.480232 175.917246 855.167136 174.258913 855.167136 172.53 
C 855.167136 170.801087 854.480232 169.142754 853.257706 167.920228 
C 852.03518 166.697702 850.376847 166.010798 848.647934 166.010798 
C 846.919021 166.010798 845.260688 166.697702 844.038162 167.920228 
C 842.815636 169.142754 842.128731 170.801087 842.128731 172.53 
C 842.128731 174.258913 842.815636 175.917246 844.038162 177.139772 
C 845.260688 178.362298 846.919021 179.049202 848.647934 179.049202 
z
" clip-path="url(#pe00a660af3)" style="fill: #1f77b4; fill-opacity: 0.3; stroke: #1f77b4; stroke-opacity: 0.3"/>
    <path d="M 859.188666 174.996198 
C 861.155465 174.996198 863.041973 174.214781 864.43271 172.824044 
C 865.823447 171.433307 866.604864 169.546799 866.604864 167.58 
C 866.604864 165.613201 865.823447 163.726693 864.43271 162.335956 
C 863.041973 160.945219 861.155465 160.163802 859.188666 160.163802 
C 857.221867 160.163802 855.335358 160.945219 853.944622 162.335956 
C 852.553885 163.726693 851.772467 165.613201 851.772467 167.58 
C 851.772467 169.546799 852.553885 171.433307 853.944622 172.824044 
C 855.335358 174.214781 857.221867 174.996198 859.188666 174.996198 
z
" clip-path="url(#pe00a660af3)" style="fill: #1f77b4; fill-opacity: 0.3; stroke: #1f77b4; stroke-opacity: 0.3"/>
    <path d="M 869.729398 170.238204 
C 871.508434 170.238204 873.214846 169.531385 874.472814 168.273416 
C 875.730783 167.015448 876.437602 165.309036 876.437602 163.53 
C 876.437602 161.750964 875.730783 160.044552 874.472814 158.786584 
C 873.214846 157.528615 871.508434 156.821796 869.729398 156.821796 
C 867.950361 156.821796 866.24395 157.528615 864.985981 158.786584 
C 863.728013 160.044552 863.021194 161.750964 863.021194 163.53 
C 863.021194 165.309036 863.728013 167.015448 864.985981 168.273416 
C 866.24395 169.531385 867.950361 170.238204 869.729398 170.238204 
z
" clip-path="url(#pe00a660af3)" style="fill: #1f77b4; fill-opacity: 0.3; stroke: #1f77b4; stroke-opacity: 0.3"/>
    <path d="M 880.27013 166.305877 
C 881.78202 166.305877 883.232191 165.705197 884.301259 164.636129 
C 885.370327 163.567061 885.971007 162.11689 885.971007 160.605 
C 885.971007 159.09311 885.370327 157.642939 884.301259 156.573871 
C 883.232191 155.504803 881.78202 154.904123 880.27013 154.904123 
C 878.75824 154.904123 877.308069 155.504803 876.239001 156.573871 
C 875.169933 157.642939 874.569253 159.09311 874.569253 160.605 
C 874.569253 162.11689 875.169933 163.567061 876.239001 164.636129 
C 877.308069 165.705197 878.75824 166.305877 880.27013 166.305877 
z
" clip-path="url(#pe00a660af3)" style="fill: #1f77b4; fill-opacity: 0.3; stroke: #1f77b4; stroke-opacity: 0.3"/>
    <path d="M 890.810862 158.472179 
C 894.243168 158.472179 897.535358 157.108509 899.962364 154.681503 
C 902.389371 152.254496 903.753041 148.962306 903.753041 145.53 
C 903.753041 142.097694 902.389371 138.805504 899.962364 136.378497 
C 897.535358 133.951491 894.243168 132.587821 890.810862 132.587821 
C 887.378556 132.587821 884.086366 133.951491 881.659359 136.378497 
C 879.232352 138.805504 877.868683 142.097694 877.868683 145.53 
C 877.868683 148.962306 879.232352 152.254496 881.659359 154.681503 
C 884.086366 157.108509 887.378556 158.472179 890.810862 158.472179 
z
" clip-path="url(#pe00a660af3)" style="fill: #1f77b4; fill-opacity: 0.3; stroke: #1f77b4; stroke-opacity: 0.3"/>
    <path d="M 901.351594 148.147024 
C 903.17938 148.147024 904.932551 147.420837 906.224991 146.128397 
C 907.517431 144.835957 908.243618 143.082786 908.243618 141.255 
C 908.243618 139.427214 907.517431 137.674043 906.224991 136.381603 
C 904.932551 135.089163 903.17938 134.362976 901.351594 134.362976 
C 899.523808 134.362976 897.770637 135.089163 896.478197 136.381603 
C 895.185757 137.674043 894.459569 139.427214 894.459569 141.255 
C 894.459569 143.082786 895.185757 144.835957 896.478197 146.128397 
C 897.770637 147.420837 899.523808 148.147024 901.351594 148.147024 
z
" clip-path="url(#pe00a660af3)" style="fill: #1f77b4; fill-opacity: 0.3; stroke: #1f77b4; stroke-opacity: 0.3"/>
    <path d="M 911.892326 141.948221 
C 914.64201 141.948221 917.279445 140.85576 919.223765 138.911439 
C 921.168085 136.967119 922.260547 134.329684 922.260547 131.58 
C 922.260547 128.830316 921.168085 126.192881 919.223765 124.248561 
C 917.279445 122.30424 914.64201 121.211779 911.892326 121.211779 
C 909.142642 121.211779 906.505207 122.30424 904.560887 124.248561 
C 902.616566 126.192881 901.524105 128.830316 901.524105 131.58 
C 901.524105 134.329684 902.616566 136.967119 904.560887 138.911439 
C 906.505207 140.85576 909.142642 141.948221 911.892326 141.948221 
z
" clip-path="url(#pe00a660af3)" style="fill: #1f77b4; fill-opacity: 0.3; stroke: #1f77b4; stroke-opacity: 0.3"/>
    <path d="M 922.433058 133.490254 
C 924.729784 133.490254 926.932752 132.577755 928.556782 130.953724 
C 930.180813 129.329694 931.093312 127.126726 931.093312 124.83 
C 931.093312 122.533274 930.180813 120.330306 928.556782 118.706276 
C 926.932752 117.082245 924.729784 116.169746 922.433058 116.169746 
C 920.136332 116.169746 917.933364 117.082245 916.309333 118.706276 
C 914.685303 120.330306 913.772804 122.533274 913.772804 124.83 
C 913.772804 127.126726 914.685303 129.329694 916.309333 130.953724 
C 917.933364 132.577755 920.136332 133.490254 922.433058 133.490254 
z
" clip-path="url(#pe00a660af3)" style="fill: #1f77b4; fill-opacity: 0.3; stroke: #1f77b4; stroke-opacity: 0.3"/>
    <path d="M 932.97379 127.401068 
C 934.849059 127.401068 936.647774 126.656015 937.97379 125.33 
C 939.299805 124.003984 940.044858 122.205269 940.044858 120.33 
C 940.044858 118.454731 939.299805 116.656015 937.97379 115.33 
C 936.647774 114.003984 934.849059 113.258932 932.97379 113.258932 
C 931.098521 113.258932 929.299805 114.003984 927.97379 115.33 
C 926.647774 116.656015 925.902722 118.454731 925.902722 120.33 
C 925.902722 122.205269 926.647774 124.003984 927.97379 125.33 
C 929.299805 126.656015 931.098521 127.401068 932.97379 127.401068 
z
" clip-path="url(#pe00a660af3)" style="fill: #1f77b4; fill-opacity: 0.3; stroke: #1f77b4; stroke-opacity: 0.3"/>
    <path d="M 943.514522 122.988204 
C 945.293558 122.988204 946.99997 122.281385 948.257938 121.023416 
C 949.515907 119.765448 950.222726 118.059036 950.222726 116.28 
C 950.222726 114.500964 949.515907 112.794552 948.257938 111.536584 
C 946.99997 110.278615 945.293558 109.571796 943.514522 109.571796 
C 941.735485 109.571796 940.029074 110.278615 938.771105 111.536584 
C 937.513137 112.794552 936.806318 114.500964 936.806318 116.28 
C 936.806318 118.059036 937.513137 119.765448 938.771105 121.023416 
C 940.029074 122.281385 941.735485 122.988204 943.514522 122.988204 
z
" clip-path="url(#pe00a660af3)" style="fill: #1f77b4; fill-opacity: 0.3; stroke: #1f77b4; stroke-opacity: 0.3"/>
    <path d="M 954.055254 119.03 
C 955.381269 119.03 956.653153 118.503168 957.590788 117.565534 
C 958.528422 116.627899 959.055254 115.356016 959.055254 114.03 
C 959.055254 112.703985 958.528422 111.432101 957.590788 110.494466 
C 956.653153 109.556832 955.381269 109.03 954.055254 109.03 
C 952.729238 109.03 951.457354 109.556832 950.51972 110.494466 
C 949.582085 111.432101 949.055254 112.703985 949.055254 114.03 
C 949.055254 115.356016 949.582085 116.627899 950.51972 117.565534 
C 951.457354 118.503168 952.729238 119.03 954.055254 119.03 
z
" clip-path="url(#pe00a660af3)" style="fill: #1f77b4; fill-opacity: 0.3; stroke: #1f77b4; stroke-opacity: 0.3"/>
    <path d="M 964.595986 116.550688 
C 966.517565 116.550688 968.3607 115.787237 969.719461 114.428475 
C 971.078223 113.069714 971.841674 111.226579 971.841674 109.305 
C 971.841674 107.383421 971.078223 105.540286 969.719461 104.181525 
C 968.3607 102.822763 966.517565 102.059312 964.595986 102.059312 
C 962.674407 102.059312 960.831272 102.822763 959.47251 104.181525 
C 958.113749 105.540286 957.350297 107.383421 957.350297 109.305 
C 957.350297 111.226579 958.113749 113.069714 959.47251 114.428475 
C 960.831272 115.787237 962.674407 116.550688 964.595986 116.550688 
z
" clip-path="url(#pe00a660af3)" style="fill: #1f77b4; fill-opacity: 0.3; stroke: #1f77b4; stroke-opacity: 0.3"/>
    <path d="M 975.136718 111.133408 
C 977.471409 111.133408 979.710792 110.205826 981.361668 108.55495 
C 983.012544 106.904074 983.940126 104.664691 983.940126 102.33 
C 983.940126 99.995309 983.012544 97.755926 981.361668 96.10505 
C 979.710792 94.454174 977.471409 93.526592 975.136718 93.526592 
C 972.802027 93.526592 970.562644 94.454174 968.911768 96.10505 
C 967.260892 97.755926 966.333309 99.995309 966.333309 102.33 
C 966.333309 104.664691 967.260892 106.904074 968.911768 108.55495 
C 970.562644 110.205826 972.802027 111.133408 975.136718 111.133408 
z
" clip-path="url(#pe00a660af3)" style="fill: #1f77b4; fill-opacity: 0.3; stroke: #1f77b4; stroke-opacity: 0.3"/>
    <path d="M 985.67745 104.796198 
C 987.644249 104.796198 989.530757 104.014781 990.921494 102.624044 
C 992.312231 101.233307 993.093648 99.346799 993.093648 97.38 
C 993.093648 95.413201 992.312231 93.526693 990.921494 92.135956 
C 989.530757 90.745219 987.644249 89.963802 985.67745 89.963802 
C 983.710651 89.963802 981.824142 90.745219 980.433406 92.135956 
C 979.042669 93.526693 978.261251 95.413201 978.261251 97.38 
C 978.261251 99.346799 979.042669 101.233307 980.433406 102.624044 
C 981.824142 104.014781 983.710651 104.796198 985.67745 104.796198 
z
" clip-path="url(#pe00a660af3)" style="fill: #1f77b4; fill-opacity: 0.3; stroke: #1f77b4; stroke-opacity: 0.3"/>
    <path d="M 996.218182 98.766833 
C 998.734119 98.766833 1001.147349 97.76724 1002.926386 95.988204 
C 1004.705422 94.209167 1005.705015 91.795938 1005.705015 89.28 
C 1005.705015 86.764062 1004.705422 84.350833 1002.926386 82.571796 
C 1001.147349 80.79276 998.734119 79.793167 996.218182 79.793167 
C 993.702244 79.793167 991.289014 80.79276 989.509978 82.571796 
C 987.730941 84.350833 986.731349 86.764062 986.731349 89.28 
C 986.731349 91.795938 987.730941 94.209167 989.509978 95.988204 
C 991.289014 97.76724 993.702244 98.766833 996.218182 98.766833 
z
" clip-path="url(#pe00a660af3)" style="fill: #1f77b4; fill-opacity: 0.3; stroke: #1f77b4; stroke-opacity: 0.3"/>
   </g>
   <g id="matplotlib.axis_1">
    <g id="xtick_1">
     <g id="line2d_1">
      <defs>
       <path id="m1324cd1d14" d="M 0 0 
L 0 3.5 
" style="stroke: #000000; stroke-width: 0.8"/>
      </defs>
      <g>
       <use xlink:href="#m1324cd1d14" x="184.581818" y="512.64" style="stroke: #000000; stroke-width: 0.8"/>
      </g>
     </g>
     <g id="text_1">
      <!-- 2026-01-01 -->
      <g transform="translate(155.524006 527.238438) scale(0.1 -0.1)">
       <defs>
        <path id="DejaVuSans-32" d="M 1228 531 
L 3431 531 
L 3431 0 
L 469 0 
L 469 531 
Q 828 903 1448 1529 
Q 2069 2156 2228 2338 
Q 2531 2678 2651 2914 
Q 2772 3150 2772 3378 
Q 2772 3750 2511 3984 
Q 2250 4219 1831 4219 
Q 1534 4219 1204 4116 
Q 875 4013 500 3803 
L 500 4441 
Q 881 4594 1212 4672 
Q 1544 4750 1819 4750 
Q 2544 4750 2975 4387 
Q 3406 4025 3406 3419 
Q 3406 3131 3298 2873 
Q 3191 2616 2906 2266 
Q 2828 2175 2409 1742 
Q 1991 1309 1228 531 
z
" transform="scale(0.015625)"/>
        <path id="DejaVuSans-30" d="M 2034 4250 
Q 1547 4250 1301 3770 
Q 1056 3291 1056 2328 
Q 1056 1369 1301 889 
Q 1547 409 2034 409 
Q 2525 409 2770 889 
Q 3016 1369 3016 2328 
Q 3016 3291 2770 3770 
Q 2525 4250 2034 4250 
z
M 2034 4750 
Q 2819 4750 3233 4129 
Q 3647 3509 3647 2328 
Q 3647 1150 3233 529 
Q 2819 -91 2034 -91 
Q 1250 -91 836 529 
Q 422 1150 422 2328 
Q 422 3509 836 4129 
Q 1250 4750 2034 4750 
z
" transform="scale(0.015625)"/>
        <path id="DejaVuSans-36" d="M 2113 2584 
Q 1688 2584 1439 2293 
Q 1191 2003 1191 1497 
Q 1191 994 1439 701 
Q 1688 409 2113 409 
Q 2538 409 2786 701 
Q 3034 994 3034 1497 
Q 3034 2003 2786 2293 
Q 2538 2584 2113 2584 
z
M 3366 4563 
L 3366 3988 
Q 3128 4100 2886 4159 
Q 2644 4219 2406 4219 
Q 1781 4219 1451 3797 
Q 1122 3375 1075 2522 
Q 1259 2794 1537 2939 
Q 1816 3084 2150 3084 
Q 2853 3084 3261 2657 
Q 3669 2231 3669 1497 
Q 3669 778 3244 343 
Q 2819 -91 2113 -91 
Q 1303 -91 875 529 
Q 447 1150 447 2328 
Q 447 3434 972 4092 
Q 1497 4750 2381 4750 
Q 2619 4750 2861 4703 
Q 3103 4656 3366 4563 
z
" transform="scale(0.015625)"/>
        <path id="DejaVuSans-2d" d="M 313 2009 
L 1997 2009 
L 1997 1497 
L 313 1497 
L 313 2009 
z
" transform="scale(0.015625)"/>
        <path id="DejaVuSans-31" d="M 794 531 
L 1825 531 
L 1825 4091 
L 703 3866 
L 703 4441 
L 1819 4666 
L 2450 4666 
L 2450 531 
L 3481 531 
L 3481 0 
L 794 0 
L 794 531 
z
" transform="scale(0.015625)"/>
       </defs>
       <use xlink:href="#DejaVuSans-32"/>
       <use xlink:href="#DejaVuSans-30" x="63.623047"/>
       <use xlink:href="#DejaVuSans-32" x="127.246094"/>
       <use xlink:href="#DejaVuSans-36" x="190.869141"/>
       <use xlink:href="#DejaVuSans-2d" x="254.492188"/>
       <use xlink:href="#DejaVuSans-30" x="290.576172"/>
       <use xlink:href="#DejaVuSans-31" x="354.199219"/>
       <use xlink:href="#DejaVuSans-2d" x="417.822266"/>
       <use xlink:href="#DejaVuSans-30" x="453.90625"/>
       <use xlink:href="#DejaVuSans-31" x="517.529297"/>
      </g>
     </g>
    </g>
    <g id="xtick_2">
     <g id="line2d_2">
      <g>
       <use xlink:href="#m1324cd1d14" x="332.152066" y="512.64" style="stroke: #000000; stroke-width: 0.8"/>
      </g>
     </g>
     <g id="text_2">
      <!-- 2026-01-15 -->
      <g transform="translate(303.094254 527.238438) scale(0.1 -0.1)">
       <defs>
        <path id="DejaVuSans-35" d="M 691 4666 
L 3169 4666 
L 3169 4134 
L 1269 4134 
L 1269 2991 
Q 1406 3038 1543 3061 
Q 1681 3084 1819 3084 
Q 2600 3084 3056 2656 
Q 3513 2228 3513 1497 
Q 3513 744 3044 326 
Q 2575 -91 1722 -91 
Q 1428 -91 1123 -41 
Q 819 9 494 109 
L 494 744 
Q 775 591 1075 516 
Q 1375 441 1709 441 
Q 2250 441 2565 725 
Q 2881 1009 2881 1497 
Q 2881 1984 2565 2268 
Q 2250 2553 1709 2553 
Q 1456 2553 1204 2497 
Q 953 2441 691 2322 
L 691 4666 
z
" transform="scale(0.015625)"/>
       </defs>
       <use xlink:href="#DejaVuSans-32"/>
       <use xlink:href="#DejaVuSans-30" x="63.623047"/>
       <use xlink:href="#DejaVuSans-32" x="127.246094"/>
       <use xlink:href="#DejaVuSans-36" x="190.869141"/>
       <use xlink:href="#DejaVuSans-2d" x="254.492188"/>
       <use xlink:href="#DejaVuSans-30" x="290.576172"/>
       <use xlink:href="#DejaVuSans-31" x="354.199219"/>
       <use xlink:href="#DejaVuSans-2d" x="417.822266"/>
       <use xlink:href="#DejaVuSans-31" x="453.90625"/>
       <use xlink:href="#DejaVuSans-35" x="517.529297"/>
      </g>
     </g>
    </g>
    <g id="xtick_3">
     <g id="line2d_3">
      <g>
       <use xlink:href="#m1324cd1d14" x="511.34451" y="512.64" style="stroke: #000000; stroke-width: 0.8"/>
      </g>
     </g>
     <g id="text_3">
      <!-- 2026-02-01 -->
      <g transform="translate(482.286698 527.238438) scale(0.1 -0.1)">
       <use xlink:href="#DejaVuSans-32"/>
       <use xlink:href="#DejaVuSans-30" x="63.623047"/>
       <use xlink:href="#DejaVuSans-32" x="127.246094"/>
       <use xlink:href="#DejaVuSans-36" x="190.869141"/>
       <use xlink:href="#DejaVuSans-2d" x="254.492188"/>
       <use xlink:href="#DejaVuSans-30" x="290.576172"/>
       <use xlink:href="#DejaVuSans-32" x="354.199219"/>
       <use xlink:href="#DejaVuSans-2d" x="417.822266"/>
       <use xlink:href="#DejaVuSans-30" x="453.90625"/>
       <use xlink:href="#DejaVuSans-31" x="517.529297"/>
      </g>
     </g>
    </g>
    <g id="xtick_4">
     <g id="line2d_4">
      <g>
       <use xlink:href="#m1324cd1d14" x="658.914758" y="512.64" style="stroke: #000000; stroke-width: 0.8"/>
      </g>
     </g>
     <g id="text_4">
      <!-- 2026-02-15 -->
      <g transform="translate(629.856945 527.238438) scale(0.1 -0.1)">
       <use xlink:href="#DejaVuSans-32"/>
       <use xlink:href="#DejaVuSans-30" x="63.623047"/>
       <use xlink:href="#DejaVuSans-32" x="127.246094"/>
       <use xlink:href="#DejaVuSans-36" x="190.869141"/>
       <use xlink:href="#DejaVuSans-2d" x="254.492188"/>
       <use xlink:href="#DejaVuSans-30" x="290.576172"/>
       <use xlink:href="#DejaVuSans-32" x="354.199219"/>
       <use xlink:href="#DejaVuSans-2d" x="417.822266"/>
       <use xlink:href="#DejaVuSans-31" x="453.90625"/>
       <use xlink:href="#DejaVuSans-35" x="517.529297"/>
      </g>
     </g>
    </g>
    <g id="xtick_5">
     <g id="line2d_5">
      <g>
       <use xlink:href="#m1324cd1d14" x="806.485006" y="512.64" style="stroke: #000000; stroke-width: 0.8"/>
      </g>
     </g>
     <g id="text_5">
      <!-- 2026-03-01 -->
      <g transform="translate(777.427193 527.238438) scale(0.1 -0.1)">
       <defs>
        <path id="DejaVuSans-33" d="M 2597 2516 
Q 3050 2419 3304 2112 
Q 3559 1806 3559 1356 
Q 3559 666 3084 287 
Q 2609 -91 1734 -91 
Q 1441 -91 1130 -33 
Q 819 25 488 141 
L 488 750 
Q 750 597 1062 519 
Q 1375 441 1716 441 
Q 2309 441 2620 675 
Q 2931 909 2931 1356 
Q 2931 1769 2642 2001 
Q 2353 2234 1838 2234 
L 1294 2234 
L 1294 2753 
L 1863 2753 
Q 2328 2753 2575 2939 
Q 2822 3125 2822 3475 
Q 2822 3834 2567 4026 
Q 2313 4219 1838 4219 
Q 1578 4219 1281 4162 
Q 984 4106 628 3988 
L 628 4550 
Q 988 4650 1302 4700 
Q 1616 4750 1894 4750 
Q 2613 4750 3031 4423 
Q 3450 4097 3450 3541 
Q 3450 3153 3228 2886 
Q 3006 2619 2597 2516 
z
" transform="scale(0.015625)"/>
       </defs>
       <use xlink:href="#DejaVuSans-32"/>
       <use xlink:href="#DejaVuSans-30" x="63.623047"/>
       <use xlink:href="#DejaVuSans-32" x="127.246094"/>
       <use xlink:href="#DejaVuSans-36" x="190.869141"/>
       <use xlink:href="#DejaVuSans-2d" x="254.492188"/>
       <use xlink:href="#DejaVuSans-30" x="290.576172"/>
       <use xlink:href="#DejaVuSans-33" x="354.199219"/>
       <use xlink:href="#DejaVuSans-2d" x="417.822266"/>
       <use xlink:href="#DejaVuSans-30" x="453.90625"/>
       <use xlink:href="#DejaVuSans-31" x="517.529297"/>
      </g>
     </g>
    </g>
    <g id="xtick_6">
     <g id="line2d_6">
      <g>
       <use xlink:href="#m1324cd1d14" x="954.055254" y="512.64" style="stroke: #000000; stroke-width: 0.8"/>
      </g>
     </g>
     <g id="text_6">
      <!-- 2026-03-15 -->
      <g transform="translate(924.997441 527.238438) scale(0.1 -0.1)">
       <use xlink:href="#DejaVuSans-32"/>
       <use xlink:href="#DejaVuSans-30" x="63.623047"/>
       <use xlink:href="#DejaVuSans-32" x="127.246094"/>
       <use xlink:href="#DejaVuSans-36" x="190.869141"/>
       <use xlink:href="#DejaVuSans-2d" x="254.492188"/>
       <use xlink:href="#DejaVuSans-30" x="290.576172"/>
       <use xlink:href="#DejaVuSans-33" x="354.199219"/>
       <use xlink:href="#DejaVuSans-2d" x="417.822266"/>
       <use xlink:href="#DejaVuSans-31" x="453.90625"/>
       <use xlink:href="#DejaVuSans-35" x="517.529297"/>
      </g>
     </g>
    </g>
   </g>
   <g id="matplotlib.axis_2">
    <g id="ytick_1">
     <g id="line2d_7">
      <defs>
       <path id="mbb25b4b682" d="M 0 0 
L -3.5 0 
" style="stroke: #000000; stroke-width: 0.8"/>
      </defs>
      <g>
       <use xlink:href="#mbb25b4b682" x="144" y="499.905" style="stroke: #000000; stroke-width: 0.8"/>
      </g>
     </g>
     <g id="text_7">
      <!-- 13000 -->
      <g transform="translate(105.1875 503.704219) scale(0.1 -0.1)">
       <use xlink:href="#DejaVuSans-31"/>
       <use xlink:href="#DejaVuSans-33" x="63.623047"/>
       <use xlink:href="#DejaVuSans-30" x="127.246094"/>
       <use xlink:href="#DejaVuSans-30" x="190.869141"/>
       <use xlink:href="#DejaVuSans-30" x="254.492188"/>
      </g>
     </g>
    </g>
    <g id="ytick_2">
     <g id="line2d_8">
      <g>
       <use xlink:href="#mbb25b4b682" x="144" y="443.655" style="stroke: #000000; stroke-width: 0.8"/>
      </g>
     </g>
     <g id="text_8">
      <!-- 13250 -->
      <g transform="translate(105.1875 447.454219) scale(0.1 -0.1)">
       <use xlink:href="#DejaVuSans-31"/>
       <use xlink:href="#DejaVuSans-33" x="63.623047"/>
       <use xlink:href="#DejaVuSans-32" x="127.246094"/>
       <use xlink:href="#DejaVuSans-35" x="190.869141"/>
       <use xlink:href="#DejaVuSans-30" x="254.492188"/>
      </g>
     </g>
    </g>
    <g id="ytick_3">
     <g id="line2d_9">
      <g>
       <use xlink:href="#mbb25b4b682" x="144" y="387.405" style="stroke: #000000; stroke-width: 0.8"/>
      </g>
     </g>
     <g id="text_9">
      <!-- 13500 -->
      <g transform="translate(105.1875 391.204219) scale(0.1 -0.1)">
       <use xlink:href="#DejaVuSans-31"/>
       <use xlink:href="#DejaVuSans-33" x="63.623047"/>
       <use xlink:href="#DejaVuSans-35" x="127.246094"/>
       <use xlink:href="#DejaVuSans-30" x="190.869141"/>
       <use xlink:href="#DejaVuSans-30" x="254.492188"/>
      </g>
     </g>
    </g>
    <g id="ytick_4">
     <g id="line2d_10">
      <g>
       <use xlink:href="#mbb25b4b682" x="144" y="331.155" style="stroke: #000000; stroke-width: 0.8"/>
      </g>
     </g>
     <g id="text_10">
      <!-- 13750 -->
      <g transform="translate(105.1875 334.954219) scale(0.1 -0.1)">
       <defs>
        <path id="DejaVuSans-37" d="M 525 4666 
L 3525 4666 
L 3525 4397 
L 1831 0 
L 1172 0 
L 2766 4134 
L 525 4134 
L 525 4666 
z
" transform="scale(0.015625)"/>
       </defs>
       <use xlink:href="#DejaVuSans-31"/>
       <use xlink:href="#DejaVuSans-33" x="63.623047"/>
       <use xlink:href="#DejaVuSans-37" x="127.246094"/>
       <use xlink:href="#DejaVuSans-35" x="190.869141"/>
       <use xlink:href="#DejaVuSans-30" x="254.492188"/>
      </g>
     </g>
    </g>
    <g id="ytick_5">
     <g id="line2d_11">
      <g>
       <use xlink:href="#mbb25b4b682" x="144" y="274.905" style="stroke: #000000; stroke-width: 0.8"/>
      </g>
     </g>
     <g id="text_11">
      <!-- 14000 -->
      <g transform="translate(105.1875 278.704219) scale(0.1 -0.1)">
       <defs>
        <path id="DejaVuSans-34" d="M 2419 4116 
L 825 1625 
L 2419 1625 
L 2419 4116 
z
M 2253 4666 
L 3047 4666 
L 3047 1625 
L 3713 1625 
L 3713 1100 
L 3047 1100 
L 3047 0 
L 2419 0 
L 2419 1100 
L 313 1100 
L 313 1709 
L 2253 4666 
z
" transform="scale(0.015625)"/>
       </defs>
       <use xlink:href="#DejaVuSans-31"/>
       <use xlink:href="#DejaVuSans-34" x="63.623047"/>
       <use xlink:href="#DejaVuSans-30" x="127.246094"/>
       <use xlink:href="#DejaVuSans-30" x="190.869141"/>
       <use xlink:href="#DejaVuSans-30" x="254.492188"/>
      </g>
     </g>
    </g>
    <g id="ytick_6">
     <g id="line2d_12">
      <g>
       <use xlink:href="#mbb25b4b682" x="144" y="218.655" style="stroke: #000000; stroke-width: 0.8"/>
      </g>
     </g>
     <g id="text_12">
      <!-- 14250 -->
      <g transform="translate(105.1875 222.454219) scale(0.1 -0.1)">
       <use xlink:href="#DejaVuSans-31"/>
       <use xlink:href="#DejaVuSans-34" x="63.623047"/>
       <use xlink:href="#DejaVuSans-32" x="127.246094"/>
       <use xlink:href="#DejaVuSans-35" x="190.869141"/>
       <use xlink:href="#DejaVuSans-30" x="254.492188"/>
      </g>
     </g>
    </g>
    <g id="ytick_7">
     <g id="line2d_13">
      <g>
       <use xlink:href="#mbb25b4b682" x="144" y="162.405" style="stroke: #000000; stroke-width: 0.8"/>
      </g>
     </g>
     <g id="text_13">
      <!-- 14500 -->
      <g transform="translate(105.1875 166.204219) scale(0.1 -0.1)">
       <use xlink:href="#DejaVuSans-31"/>
       <use xlink:href="#DejaVuSans-34" x="63.623047"/>
       <use xlink:href="#DejaVuSans-35" x="127.246094"/>
       <use xlink:href="#DejaVuSans-30" x="190.869141"/>
       <use xlink:href="#DejaVuSans-30" x="254.492188"/>
      </g>
     </g>
    </g>
    <g id="ytick_8">
     <g id="line2d_14">
      <g>
       <use xlink:href="#mbb25b4b682" x="144" y="106.155" style="stroke: #000000; stroke-width: 0.8"/>
      </g>
     </g>
     <g id="text_14">
      <!-- 14750 -->
      <g transform="translate(105.1875 109.954219) scale(0.1 -0.1)">
       <use xlink:href="#DejaVuSans-31"/>
       <use xlink:href="#DejaVuSans-34" x="63.623047"/>
       <use xlink:href="#DejaVuSans-37" x="127.246094"/>
       <use xlink:href="#DejaVuSans-35" x="190.869141"/>
       <use xlink:href="#DejaVuSans-30" x="254.492188"/>
      </g>
     </g>
    </g>
   </g>
   <g id="line2d_15">
    <path d="M 184.581818 492.48 
L 195.12255 488.655 
L 205.663282 482.355 
L 216.204014 479.88 
L 226.744746 478.755 
L 237.285478 474.93 
L 247.82621 471.555 
L 258.366942 462.78 
L 268.907674 458.28 
L 279.448406 456.255 
L 289.989138 455.805 
L 300.52987 447.255 
L 311.070602 441.63 
L 321.611334 438.705 
L 332.152066 431.505 
L 342.692798 421.83 
L 353.23353 420.93 
L 363.774262 418.455 
L 374.314994 412.38 
L 384.855726 409.68 
L 395.396458 398.43 
L 405.93719 392.355 
L 416.477922 386.955 
L 427.018654 380.43 
L 437.559386 379.53 
L 448.100118 378.63 
L 458.64085 370.53 
L 469.181582 359.28 
L 479.722314 352.08 
L 490.263046 346.005 
L 500.803778 345.105 
L 511.34451 342.63 
L 521.885242 338.13 
L 532.425974 332.73 
L 542.966706 330.93 
L 553.507438 324.63 
L 564.04817 320.805 
L 574.588902 318.33 
L 585.129634 309.555 
L 595.670366 306.855 
L 606.211098 299.205 
L 616.75183 294.705 
L 627.292562 292.005 
L 637.833294 287.505 
L 648.374026 285.48 
L 658.914758 277.155 
L 669.45549 266.355 
L 679.996222 264.33 
L 690.536954 259.83 
L 701.077686 255.33 
L 711.618418 251.28 
L 722.15915 247.005 
L 732.699882 240.255 
L 743.240614 233.505 
L 753.781346 223.83 
L 764.322078 219.105 
L 774.86281 206.055 
L 785.403542 200.88 
L 795.944274 198.18 
L 806.485006 193.68 
L 817.025738 187.605 
L 827.56647 183.105 
L 838.107202 176.355 
L 848.647934 172.53 
L 859.188666 167.58 
L 869.729398 163.53 
L 880.27013 160.605 
L 890.810862 145.53 
L 901.351594 141.255 
L 911.892326 131.58 
L 922.433058 124.83 
L 932.97379 120.33 
L 943.514522 116.28 
L 954.055254 114.03 
L 964.595986 109.305 
L 975.136718 102.33 
L 985.67745 97.38 
L 996.218182 89.28 
" clip-path="url(#pe00a660af3)" style="fill: none; stroke: #1f77b4; stroke-width: 1.5; stroke-linecap: square"/>
   </g>
   <g id="patch_3">
    <path d="M 144 512.64 
L 144 69.12 
" style="fill: none; stroke: #000000; stroke-width: 0.8; stroke-linejoin: miter; stroke-linecap: square"/>
   </g>
   <g id="patch_4">
    <path d="M 1036.8 512.64 
L 1036.8 69.12 
" style="fill: none; stroke: #000000; stroke-width: 0.8; stroke-linejoin: miter; stroke-linecap: square"/>
   </g>
   <g id="patch_5">
    <path d="M 144 512.64 
L 1036.8 512.64 
" style="fill: none; stroke: #000000; stroke-width: 0.8; stroke-linejoin: miter; stroke-linecap: square"/>
   </g>
   <g id="patch_6">
    <path d="M 144 69.12 
L 1036.8 69.12 
" style="fill: none; stroke: #000000; stroke-width: 0.8; stroke-linejoin: miter; stroke-linecap: square"/>
   </g>
   <g id="text_15">
    <!-- Number of AEDs in the OpenStreetMap database in Poland from 2026-01-01, day by day. As at: 2026-03-19 -->
    <g transform="translate(144 63.12) scale(0.14 -0.14)">
     <defs>
      <path id="DejaVuSans-4e" d="M 628 4666 
L 1478 4666 
L 3547 763 
L 3547 4666 
L 4159 4666 
L 4159 0 
L 3309 0 
L 1241 3903 
L 1241 0 
L 628 0 
L 628 4666 
z
" transform="scale(0.015625)"/>
      <path id="DejaVuSans-75" d="M 544 1381 
L 544 3500 
L 1119 3500 
L 1119 1403 
Q 1119 906 1312 657 
Q 1506 409 1894 409 
Q 2359 409 2629 706 
Q 2900 1003 2900 1516 
L 2900 3500 
L 3475 3500 
L 3475 0 
L 2900 0 
L 2900 538 
Q 2691 219 2414 64 
Q 2138 -91 1772 -91 
Q 1169 -91 856 284 
Q 544 659 544 1381 
z
M 1991 3584 
L 1991 3584 
z
" transform="scale(0.015625)"/>
      <path id="DejaVuSans-6d" d="M 3328 2828 
Q 3544 3216 3844 3400 
Q 4144 3584 4550 3584 
Q 5097 3584 5394 3201 
Q 5691 2819 5691 2113 
L 5691 0 
L 5113 0 
L 5113 2094 
Q 5113 2597 4934 2840 
Q 4756 3084 4391 3084 
Q 3944 3084 3684 2787 
Q 3425 2491 3425 1978 
L 3425 0 
L 2847 0 
L 2847 2094 
Q 2847 2600 2669 2842 
Q 2491 3084 2119 3084 
Q 1678 3084 1418 2786 
Q 1159 2488 1159 1978 
L 1159 0 
L 581 0 
L 581 3500 
L 1159 3500 
L 1159 2956 
Q 1356 3278 1631 3431 
Q 1906 3584 2284 3584 
Q 2666 3584 2933 3390 
Q 3200 3197 3328 2828 
z
" transform="scale(0.015625)"/>
      <path id="DejaVuSans-62" d="M 3116 1747 
Q 3116 2381 2855 2742 
Q 2594 3103 2138 3103 
Q 1681 3103 1420 2742 
Q 1159 2381 1159 1747 
Q 1159 1113 1420 752 
Q 1681 391 2138 391 
Q 2594 391 2855 752 
Q 3116 1113 3116 1747 
z
M 1159 2969 
Q 1341 3281 1617 3432 
Q 1894 3584 2278 3584 
Q 2916 3584 3314 3078 
Q 3713 2572 3713 1747 
Q 3713 922 3314 415 
Q 2916 -91 2278 -91 
Q 1894 -91 1617 61 
Q 1341 213 1159 525 
L 1159 0 
L 581 0 
L 581 4863 
L 1159 4863 
L 1159 2969 
z
" transform="scale(0.015625)"/>
      <path id="DejaVuSans-65" d="M 3597 1894 
L 3597 1613 
L 953 1613 
Q 991 1019 1311 708 
Q 1631 397 2203 397 
Q 2534 397 2845 478 
Q 3156 559 3463 722 
L 3463 178 
Q 3153 47 2828 -22 
Q 2503 -91 2169 -91 
Q 1331 -91 842 396 
Q 353 884 353 1716 
Q 353 2575 817 3079 
Q 1281 3584 2069 3584 
Q 2775 3584 3186 3129 
Q 3597 2675 3597 1894 
z
M 3022 2063 
Q 3016 2534 2758 2815 
Q 2500 3097 2075 3097 
Q 1594 3097 1305 2825 
Q 1016 2553 972 2059 
L 3022 2063 
z
" transform="scale(0.015625)"/>
      <path id="DejaVuSans-72" d="M 2631 2963 
Q 2534 3019 2420 3045 
Q 2306 3072 2169 3072 
Q 1681 3072 1420 2755 
Q 1159 2438 1159 1844 
L 1159 0 
L 581 0 
L 581 3500 
L 1159 3500 
L 1159 2956 
Q 1341 3275 1631 3429 
Q 1922 3584 2338 3584 
Q 2397 3584 2469 3576 
Q 2541 3569 2628 3553 
L 2631 2963 
z
" transform="scale(0.015625)"/>
      <path id="DejaVuSans-20" transform="scale(0.015625)"/>
      <path id="DejaVuSans-6f" d="M 1959 3097 
Q 1497 3097 1228 2736 
Q 959 2375 959 1747 
Q 959 1119 1226 758 
Q 1494 397 1959 397 
Q 2419 397 2687 759 
Q 2956 1122 2956 1747 
Q 2956 2369 2687 2733 
Q 2419 3097 1959 3097 
z
M 1959 3584 
Q 2709 3584 3137 3096 
Q 3566 2609 3566 1747 
Q 3566 888 3137 398 
Q 2709 -91 1959 -91 
Q 1206 -91 779 398 
Q 353 888 353 1747 
Q 353 2609 779 3096 
Q 1206 3584 1959 3584 
z
" transform="scale(0.015625)"/>
      <path id="DejaVuSans-66" d="M 2375 4863 
L 2375 4384 
L 1825 4384 
Q 1516 4384 1395 4259 
Q 1275 4134 1275 3809 
L 1275 3500 
L 2222 3500 
L 2222 3053 
L 1275 3053 
L 1275 0 
L 697 0 
L 697 3053 
L 147 3053 
L 147 3500 
L 697 3500 
L 697 3744 
Q 697 4328 969 4595 
Q 1241 4863 1831 4863 
L 2375 4863 
z
" transform="scale(0.015625)"/>
      <path id="DejaVuSans-41" d="M 2188 4044 
L 1331 1722 
L 3047 1722 
L 2188 4044 
z
M 1831 4666 
L 2547 4666 
L 4325 0 
L 3669 0 
L 3244 1197 
L 1141 1197 
L 716 0 
L 50 0 
L 1831 4666 
z
" transform="scale(0.015625)"/>
      <path id="DejaVuSans-45" d="M 628 4666 
L 3578 4666 
L 3578 4134 
L 1259 4134 
L 1259 2753 
L 3481 2753 
L 3481 2222 
L 1259 2222 
L 1259 531 
L 3634 531 
L 3634 0 
L 628 0 
L 628 4666 
z
" transform="scale(0.015625)"/>
      <path id="DejaVuSans-44" d="M 1259 4147 
L 1259 519 
L 2022 519 
Q 2988 519 3436 956 
Q 3884 1394 3884 2338 
Q 3884 3275 3436 3711 
Q 2988 4147 2022 4147 
L 1259 4147 
z
M 628 4666 
L 1925 4666 
Q 3281 4666 3915 4102 
Q 4550 3538 4550 2338 
Q 4550 1131 3912 565 
Q 3275 0 1925 0 
L 628 0 
L 628 4666 
z
" transform="scale(0.015625)"/>
      <path id="DejaVuSans-73" d="M 2834 3397 
L 2834 2853 
Q 2591 2978 2328 3040 
Q 2066 3103 1784 3103 
Q 1356 3103 1142 2972 
Q 928 2841 928 2578 
Q 928 2378 1081 2264 
Q 1234 2150 1697 2047 
L 1894 2003 
Q 2506 1872 2764 1633 
Q 3022 1394 3022 966 
Q 3022 478 2636 193 
Q 2250 -91 1575 -91 
Q 1294 -91 989 -36 
Q 684 19 347 128 
L 347 722 
Q 666 556 975 473 
Q 1284 391 1588 391 
Q 1994 391 2212 530 
Q 2431 669 2431 922 
Q 2431 1156 2273 1281 
Q 2116 1406 1581 1522 
L 1381 1569 
Q 847 1681 609 1914 
Q 372 2147 372 2553 
Q 372 3047 722 3315 
Q 1072 3584 1716 3584 
Q 2034 3584 2315 3537 
Q 2597 3491 2834 3397 
z
" transform="scale(0.015625)"/>
      <path id="DejaVuSans-69" d="M 603 3500 
L 1178 3500 
L 1178 0 
L 603 0 
L 603 3500 
z
M 603 4863 
L 1178 4863 
L 1178 4134 
L 603 4134 
L 603 4863 
z
" transform="scale(0.015625)"/>
      <path id="DejaVuSans-6e" d="M 3513 2113 
L 3513 0 
L 2938 0 
L 2938 2094 
Q 2938 2591 2744 2837 
Q 2550 3084 2163 3084 
Q 1697 3084 1428 2787 
Q 1159 2491 1159 1978 
L 1159 0 
L 581 0 
L 581 3500 
L 1159 3500 
L 1159 2956 
Q 1366 3272 1645 3428 
Q 1925 3584 2291 3584 
Q 2894 3584 3203 3211 
Q 3513 2838 3513 2113 
z
" transform="scale(0.015625)"/>
      <path id="DejaVuSans-74" d="M 1172 4494 
L 1172 3500 
L 2356 3500 
L 2356 3053 
L 1172 3053 
L 1172 1153 
Q 1172 725 1289 603 
Q 1406 481 1766 481 
L 2356 481 
L 2356 0 
L 1766 0 
Q 1100 0 847 248 
Q 594 497 594 1153 
L 594 3053 
L 172 3053 
L 172 3500 
L 594 3500 
L 594 4494 
L 1172 4494 
z
" transform="scale(0.015625)"/>
      <path id="DejaVuSans-68" d="M 3513 2113 
L 3513 0 
L 2938 0 
L 2938 2094 
Q 2938 2591 2744 2837 
Q 2550 3084 2163 3084 
Q 1697 3084 1428 2787 
Q 1159 2491 1159 1978 
L 1159 0 
L 581 0 
L 581 4863 
L 1159 4863 
L 1159 2956 
Q 1366 3272 1645 3428 
Q 1925 3584 2291 3584 
Q 2894 3584 3203 3211 
Q 3513 2838 3513 2113 
z
" transform="scale(0.015625)"/>
      <path id="DejaVuSans-4f" d="M 2522 4238 
Q 1834 4238 1429 3725 
Q 1025 3213 1025 2328 
Q 1025 1447 1429 934 
Q 1834 422 2522 422 
Q 3209 422 3611 934 
Q 4013 1447 4013 2328 
Q 4013 3213 3611 3725 
Q 3209 4238 2522 4238 
z
M 2522 4750 
Q 3503 4750 4090 4092 
Q 4678 3434 4678 2328 
Q 4678 1225 4090 567 
Q 3503 -91 2522 -91 
Q 1538 -91 948 565 
Q 359 1222 359 2328 
Q 359 3434 948 4092 
Q 1538 4750 2522 4750 
z
" transform="scale(0.015625)"/>
      <path id="DejaVuSans-70" d="M 1159 525 
L 1159 -1331 
L 581 -1331 
L 581 3500 
L 1159 3500 
L 1159 2969 
Q 1341 3281 1617 3432 
Q 1894 3584 2278 3584 
Q 2916 3584 3314 3078 
Q 3713 2572 3713 1747 
Q 3713 922 3314 415 
Q 2916 -91 2278 -91 
Q 1894 -91 1617 61 
Q 1341 213 1159 525 
z
M 3116 1747 
Q 3116 2381 2855 2742 
Q 2594 3103 2138 3103 
Q 1681 3103 1420 2742 
Q 1159 2381 1159 1747 
Q 1159 1113 1420 752 
Q 1681 391 2138 391 
Q 2594 391 2855 752 
Q 3116 1113 3116 1747 
z
" transform="scale(0.015625)"/>
      <path id="DejaVuSans-53" d="M 3425 4513 
L 3425 3897 
Q 3066 4069 2747 4153 
Q 2428 4238 2131 4238 
Q 1616 4238 1336 4038 
Q 1056 3838 1056 3469 
Q 1056 3159 1242 3001 
Q 1428 2844 1947 2747 
L 2328 2669 
Q 3034 2534 3370 2195 
Q 3706 1856 3706 1288 
Q 3706 609 3251 259 
Q 2797 -91 1919 -91 
Q 1588 -91 1214 -16 
Q 841 59 441 206 
L 441 856 
Q 825 641 1194 531 
Q 1563 422 1919 422 
Q 2459 422 2753 634 
Q 3047 847 3047 1241 
Q 3047 1584 2836 1778 
Q 2625 1972 2144 2069 
L 1759 2144 
Q 1053 2284 737 2584 
Q 422 2884 422 3419 
Q 422 4038 858 4394 
Q 1294 4750 2059 4750 
Q 2388 4750 2728 4690 
Q 3069 4631 3425 4513 
z
" transform="scale(0.015625)"/>
      <path id="DejaVuSans-4d" d="M 628 4666 
L 1569 4666 
L 2759 1491 
L 3956 4666 
L 4897 4666 
L 4897 0 
L 4281 0 
L 4281 4097 
L 3078 897 
L 2444 897 
L 1241 4097 
L 1241 0 
L 628 0 
L 628 4666 
z
" transform="scale(0.015625)"/>
      <path id="DejaVuSans-61" d="M 2194 1759 
Q 1497 1759 1228 1600 
Q 959 1441 959 1056 
Q 959 750 1161 570 
Q 1363 391 1709 391 
Q 2188 391 2477 730 
Q 2766 1069 2766 1631 
L 2766 1759 
L 2194 1759 
z
M 3341 1997 
L 3341 0 
L 2766 0 
L 2766 531 
Q 2569 213 2275 61 
Q 1981 -91 1556 -91 
Q 1019 -91 701 211 
Q 384 513 384 1019 
Q 384 1609 779 1909 
Q 1175 2209 1959 2209 
L 2766 2209 
L 2766 2266 
Q 2766 2663 2505 2880 
Q 2244 3097 1772 3097 
Q 1472 3097 1187 3025 
Q 903 2953 641 2809 
L 641 3341 
Q 956 3463 1253 3523 
Q 1550 3584 1831 3584 
Q 2591 3584 2966 3190 
Q 3341 2797 3341 1997 
z
" transform="scale(0.015625)"/>
      <path id="DejaVuSans-64" d="M 2906 2969 
L 2906 4863 
L 3481 4863 
L 3481 0 
L 2906 0 
L 2906 525 
Q 2725 213 2448 61 
Q 2172 -91 1784 -91 
Q 1150 -91 751 415 
Q 353 922 353 1747 
Q 353 2572 751 3078 
Q 1150 3584 1784 3584 
Q 2172 3584 2448 3432 
Q 2725 3281 2906 2969 
z
M 947 1747 
Q 947 1113 1208 752 
Q 1469 391 1925 391 
Q 2381 391 2643 752 
Q 2906 1113 2906 1747 
Q 2906 2381 2643 2742 
Q 2381 3103 1925 3103 
Q 1469 3103 1208 2742 
Q 947 2381 947 1747 
z
" transform="scale(0.015625)"/>
      <path id="DejaVuSans-50" d="M 1259 4147 
L 1259 2394 
L 2053 2394 
Q 2494 2394 2734 2622 
Q 2975 2850 2975 3272 
Q 2975 3691 2734 3919 
Q 2494 4147 2053 4147 
L 1259 4147 
z
M 628 4666 
L 2053 4666 
Q 2838 4666 3239 4311 
Q 3641 3956 3641 3272 
Q 3641 2581 3239 2228 
Q 2838 1875 2053 1875 
L 1259 1875 
L 1259 0 
L 628 0 
L 628 4666 
z
" transform="scale(0.015625)"/>
      <path id="DejaVuSans-6c" d="M 603 4863 
L 1178 4863 
L 1178 0 
L 603 0 
L 603 4863 
z
" transform="scale(0.015625)"/>
      <path id="DejaVuSans-2c" d="M 750 794 
L 1409 794 
L 1409 256 
L 897 -744 
L 494 -744 
L 750 256 
L 750 794 
z
" transform="scale(0.015625)"/>
      <path id="DejaVuSans-79" d="M 2059 -325 
Q 1816 -950 1584 -1140 
Q 1353 -1331 966 -1331 
L 506 -1331 
L 506 -850 
L 844 -850 
Q 1081 -850 1212 -737 
Q 1344 -625 1503 -206 
L 1606 56 
L 191 3500 
L 800 3500 
L 1894 763 
L 2988 3500 
L 3597 3500 
L 2059 -325 
z
" transform="scale(0.015625)"/>
      <path id="DejaVuSans-2e" d="M 684 794 
L 1344 794 
L 1344 0 
L 684 0 
L 684 794 
z
" transform="scale(0.015625)"/>
      <path id="DejaVuSans-3a" d="M 750 794 
L 1409 794 
L 1409 0 
L 750 0 
L 750 794 
z
M 750 3309 
L 1409 3309 
L 1409 2516 
L 750 2516 
L 750 3309 
z
" transform="scale(0.015625)"/>
      <path id="DejaVuSans-39" d="M 703 97 
L 703 672 
Q 941 559 1184 500 
Q 1428 441 1663 441 
Q 2288 441 2617 861 
Q 2947 1281 2994 2138 
Q 2813 1869 2534 1725 
Q 2256 1581 1919 1581 
Q 1219 1581 811 2004 
Q 403 2428 403 3163 
Q 403 3881 828 4315 
Q 1253 4750 1959 4750 
Q 2769 4750 3195 4129 
Q 3622 3509 3622 2328 
Q 3622 1225 3098 567 
Q 2575 -91 1691 -91 
Q 1453 -91 1209 -44 
Q 966 3 703 97 
z
M 1959 2075 
Q 2384 2075 2632 2365 
Q 2881 2656 2881 3163 
Q 2881 3666 2632 3958 
Q 2384 4250 1959 4250 
Q 1534 4250 1286 3958 
Q 1038 3666 1038 3163 
Q 1038 2656 1286 2365 
Q 1534 2075 1959 2075 
z
" transform="scale(0.015625)"/>
     </defs>
     <use xlink:href="#DejaVuSans-4e"/>
     <use xlink:href="#DejaVuSans-75" x="74.804688"/>
     <use xlink:href="#DejaVuSans-6d" x="138.183594"/>
     <use xlink:href="#DejaVuSans-62" x="235.595703"/>
     <use xlink:href="#DejaVuSans-65" x="299.072266"/>
     <use xlink:href="#DejaVuSans-72" x="360.595703"/>
     <use xlink:href="#DejaVuSans-20" x="401.708984"/>
     <use xlink:href="#DejaVuSans-6f" x="433.496094"/>
     <use xlink:href="#DejaVuSans-66" x="494.677734"/>
     <use xlink:href="#DejaVuSans-20" x="529.882812"/>
     <use xlink:href="#DejaVuSans-41" x="561.669922"/>
     <use xlink:href="#DejaVuSans-45" x="630.078125"/>
     <use xlink:href="#DejaVuSans-44" x="693.261719"/>
     <use xlink:href="#DejaVuSans-73" x="770.263672"/>
     <use xlink:href="#DejaVuSans-20" x="822.363281"/>
     <use xlink:href="#DejaVuSans-69" x="854.150391"/>
     <use xlink:href="#DejaVuSans-6e" x="881.933594"/>
     <use xlink:href="#DejaVuSans-20" x="945.3125"/>
     <use xlink:href="#DejaVuSans-74" x="977.099609"/>
     <use xlink:href="#DejaVuSans-68" x="1016.308594"/>
     <use xlink:href="#DejaVuSans-65" x="1079.6875"/>
     <use xlink:href="#DejaVuSans-20" x="1141.210938"/>
     <use xlink:href="#DejaVuSans-4f" x="1172.998047"/>
     <use xlink:href="#DejaVuSans-70" x="1251.708984"/>
     <use xlink:href="#DejaVuSans-65" x="1315.185547"/>
     <use xlink:href="#DejaVuSans-6e" x="1376.708984"/>
     <use xlink:href="#DejaVuSans-53" x="1440.087891"/>
     <use xlink:href="#DejaVuSans-74" x="1503.564453"/>
     <use xlink:href="#DejaVuSans-72" x="1542.773438"/>
     <use xlink:href="#DejaVuSans-65" x="1581.636719"/>
     <use xlink:href="#DejaVuSans-65" x="1643.160156"/>
     <use xlink:href="#DejaVuSans-74" x="1704.683594"/>
     <use xlink:href="#DejaVuSans-4d" x="1743.892578"/>
     <use xlink:href="#DejaVuSans-61" x="1830.171875"/>
     <use xlink:href="#DejaVuSans-70" x="1891.451172"/>
     <use xlink:href="#DejaVuSans-20" x="1954.927734"/>
     <use xlink:href="#DejaVuSans-64" x="1986.714844"/>
     <use xlink:href="#DejaVuSans-61" x="2050.191406"/>
     <use xlink:href="#DejaVuSans-74" x="2111.470703"/>
     <use xlink:href="#DejaVuSans-61" x="2150.679688"/>
     <use xlink:href="#DejaVuSans-62" x="2211.958984"/>
     <use xlink:href="#DejaVuSans-61" x="2275.435547"/>
     <use xlink:href="#DejaVuSans-73" x="2336.714844"/>
     <use xlink:href="#DejaVuSans-65" x="2388.814453"/>
     <use xlink:href="#DejaVuSans-20" x="2450.337891"/>
     <use xlink:href="#DejaVuSans-69" x="2482.125"/>
     <use xlink:href="#DejaVuSans-6e" x="2509.908203"/>
     <use xlink:href="#DejaVuSans-20" x="2573.287109"/>
     <use xlink:href="#DejaVuSans-50" x="2605.074219"/>
     <use xlink:href="#DejaVuSans-6f" x="2661.751953"/>
     <use xlink:href="#DejaVuSans-6c" x="2722.933594"/>
     <use xlink:href="#DejaVuSans-61" x="2750.716797"/>
     <use xlink:href="#DejaVuSans-6e" x="2811.996094"/>
     <use xlink:href="#DejaVuSans-64" x="2875.375"/>
     <use xlink:href="#DejaVuSans-20" x="2938.851562"/>
     <use xlink:href="#DejaVuSans-66" x="2970.638672"/>
     <use xlink:href="#DejaVuSans-72" x="3005.84375"/>
     <use xlink:href="#DejaVuSans-6f" x="3044.707031"/>
     <use xlink:href="#DejaVuSans-6d" x="3105.888672"/>
     <use xlink:href="#DejaVuSans-20" x="3203.300781"/>
     <use xlink:href="#DejaVuSans-32" x="3235.087891"/>
     <use xlink:href="#DejaVuSans-30" x="3298.710938"/>
     <use xlink:href="#DejaVuSans-32" x="3362.333984"/>
     <use xlink:href="#DejaVuSans-36" x="3425.957031"/>
     <use xlink:href="#DejaVuSans-2d" x="3489.580078"/>
     <use xlink:href="#DejaVuSans-30" x="3525.664062"/>
     <use xlink:href="#DejaVuSans-31" x="3589.287109"/>
     <use xlink:href="#DejaVuSans-2d" x="3652.910156"/>
     <use xlink:href="#DejaVuSans-30" x="3688.994141"/>
     <use xlink:href="#DejaVuSans-31" x="3752.617188"/>
     <use xlink:href="#DejaVuSans-2c" x="3816.240234"/>
     <use xlink:href="#DejaVuSans-20" x="3848.027344"/>
     <use xlink:href="#DejaVuSans-64" x="3879.814453"/>
     <use xlink:href="#DejaVuSans-61" x="3943.291016"/>
     <use xlink:href="#DejaVuSans-79" x="4004.570312"/>
     <use xlink:href="#DejaVuSans-20" x="4063.75"/>
     <use xlink:href="#DejaVuSans-62" x="4095.537109"/>
     <use xlink:href="#DejaVuSans-79" x="4159.013672"/>
     <use xlink:href="#DejaVuSans-20" x="4218.193359"/>
     <use xlink:href="#DejaVuSans-64" x="4249.980469"/>
     <use xlink:href="#DejaVuSans-61" x="4313.457031"/>
     <use xlink:href="#DejaVuSans-79" x="4374.736328"/>
     <use xlink:href="#DejaVuSans-2e" x="4419.666016"/>
     <use xlink:href="#DejaVuSans-20" x="4451.453125"/>
     <use xlink:href="#DejaVuSans-41" x="4483.240234"/>
     <use xlink:href="#DejaVuSans-73" x="4551.648438"/>
     <use xlink:href="#DejaVuSans-20" x="4603.748047"/>
     <use xlink:href="#DejaVuSans-61" x="4635.535156"/>
     <use xlink:href="#DejaVuSans-74" x="4696.814453"/>
     <use xlink:href="#DejaVuSans-3a" x="4736.023438"/>
     <use xlink:href="#DejaVuSans-20" x="4769.714844"/>
     <use xlink:href="#DejaVuSans-32" x="4801.501953"/>
     <use xlink:href="#DejaVuSans-30" x="4865.125"/>
     <use xlink:href="#DejaVuSans-32" x="4928.748047"/>
     <use xlink:href="#DejaVuSans-36" x="4992.371094"/>
     <use xlink:href="#DejaVuSans-2d" x="5055.994141"/>
     <use xlink:href="#DejaVuSans-30" x="5092.078125"/>
     <use xlink:href="#DejaVuSans-33" x="5155.701172"/>
     <use xlink:href="#DejaVuSans-2d" x="5219.324219"/>
     <use xlink:href="#DejaVuSans-31" x="5255.408203"/>
     <use xlink:href="#DejaVuSans-39" x="5319.03125"/>
    </g>
   </g>
  </g>
 </g>
 <defs>
  <clipPath id="pe00a660af3">
   <rect x="144" y="69.12" width="892.8" height="443.52"/>
  </clipPath>
 </defs>
</svg>
