<?xml version="1.0" encoding="utf-8" standalone="no"?>
<!DOCTYPE svg PUBLIC "-//W3C//DTD SVG 1.1//EN"
  "http://www.w3.org/Graphics/SVG/1.1/DTD/svg11.dtd">
<svg xmlns:xlink="http://www.w3.org/1999/xlink" width="1152pt" height="576pt" viewBox="0 0 1152 576" xmlns="http://www.w3.org/2000/svg" version="1.1">
 <metadata>
  <rdf:RDF xmlns:dc="http://purl.org/dc/elements/1.1/" xmlns:cc="http://creativecommons.org/ns#" xmlns:rdf="http://www.w3.org/1999/02/22-rdf-syntax-ns#">
   <cc:Work>
    <dc:type rdf:resource="http://purl.org/dc/dcmitype/StillImage"/>
    <dc:date>2024-03-07T21:33:18.848573</dc:date>
    <dc:format>image/svg+xml</dc:format>
    <dc:creator>
     <cc:Agent>
      <dc:title>Matplotlib v3.8.3, https://matplotlib.org/</dc:title>
     </cc:Agent>
    </dc:creator>
   </cc:Work>
  </rdf:RDF>
 </metadata>
 <defs>
  <style type="text/css">*{stroke-linejoin: round; stroke-linecap: butt}</style>
 </defs>
 <g id="figure_1">
  <g id="patch_1">
   <path d="M 0 576 
L 1152 576 
L 1152 0 
L 0 0 
z
" style="fill: #ffffff"/>
  </g>
  <g id="axes_1">
   <g id="patch_2">
    <path d="M 144 512.64 
L 1036.8 512.64 
L 1036.8 69.12 
L 144 69.12 
z
" style="fill: #ffffff"/>
   </g>
   <g id="PathCollection_1">
    <path d="M 184.581818 496.015534 
C 185.519453 496.015534 186.41881 495.643008 187.081818 494.98 
C 187.744826 494.316992 188.117352 493.417635 188.117352 492.48 
C 188.117352 491.542365 187.744826 490.643008 187.081818 489.98 
C 186.41881 489.316992 185.519453 488.944466 184.581818 488.944466 
C 183.644184 488.944466 182.744826 489.316992 182.081818 489.98 
C 181.41881 490.643008 181.046284 491.542365 181.046284 492.48 
C 181.046284 493.417635 181.41881 494.316992 182.081818 494.98 
C 182.744826 495.643008 183.644184 496.015534 184.581818 496.015534 
z
" clip-path="url(#p7a4d64ea80)" style="fill: #1f77b4; fill-opacity: 0.3; stroke: #1f77b4; stroke-opacity: 0.3"/>
    <path d="M 196.879339 482.357038 
C 198.754608 482.357038 200.553323 481.611986 201.879339 480.28597 
C 203.205354 478.959955 203.950407 477.161239 203.950407 475.28597 
C 203.950407 473.410701 203.205354 471.611986 201.879339 470.28597 
C 200.553323 468.959955 198.754608 468.214902 196.879339 468.214902 
C 195.00407 468.214902 193.205354 468.959955 191.879339 470.28597 
C 190.553323 471.611986 189.808271 473.410701 189.808271 475.28597 
C 189.808271 477.161239 190.553323 478.959955 191.879339 480.28597 
C 193.205354 481.611986 195.00407 482.357038 196.879339 482.357038 
z
" clip-path="url(#p7a4d64ea80)" style="fill: #1f77b4; fill-opacity: 0.3; stroke: #1f77b4; stroke-opacity: 0.3"/>
    <path d="M 209.17686 460.995989 
C 211.314995 460.995989 213.365846 460.146499 214.877737 458.634608 
C 216.389627 457.122718 217.239117 455.071867 217.239117 452.933731 
C 217.239117 450.795596 216.389627 448.744745 214.877737 447.232854 
C 213.365846 445.720964 211.314995 444.871474 209.17686 444.871474 
C 207.038724 444.871474 204.987873 445.720964 203.475982 447.232854 
C 201.964092 448.744745 201.114602 450.795596 201.114602 452.933731 
C 201.114602 455.071867 201.964092 457.122718 203.475982 458.634608 
C 204.987873 460.146499 207.038724 460.995989 209.17686 460.995989 
z
" clip-path="url(#p7a4d64ea80)" style="fill: #1f77b4; fill-opacity: 0.3; stroke: #1f77b4; stroke-opacity: 0.3"/>
    <path d="M 221.47438 453.655169 
C 221.893703 453.655169 222.295908 453.48857 222.592414 453.192064 
C 222.88892 452.895558 223.055519 452.493353 223.055519 452.07403 
C 223.055519 451.654707 222.88892 451.252502 222.592414 450.955996 
C 222.295908 450.65949 221.893703 450.492891 221.47438 450.492891 
C 221.055057 450.492891 220.652852 450.65949 220.356346 450.955996 
C 220.05984 451.252502 219.893241 451.654707 219.893241 452.07403 
C 219.893241 452.493353 220.05984 452.895558 220.356346 453.192064 
C 220.652852 453.48857 221.055057 453.655169 221.47438 453.655169 
z
" clip-path="url(#p7a4d64ea80)" style="fill: #1f77b4; fill-opacity: 0.3; stroke: #1f77b4; stroke-opacity: 0.3"/>
    <path d="M 233.771901 448.477015 
C 235.097916 448.477015 236.3698 447.950183 237.307435 447.012549 
C 238.245069 446.074914 238.771901 444.80303 238.771901 443.477015 
C 238.771901 442.150999 238.245069 440.879116 237.307435 439.941481 
C 236.3698 439.003846 235.097916 438.477015 233.771901 438.477015 
C 232.445885 438.477015 231.174001 439.003846 230.236367 439.941481 
C 229.298732 440.879116 228.771901 442.150999 228.771901 443.477015 
C 228.771901 444.80303 229.298732 446.074914 230.236367 447.012549 
C 231.174001 447.950183 232.445885 448.477015 233.771901 448.477015 
z
" clip-path="url(#p7a4d64ea80)" style="fill: #1f77b4; fill-opacity: 0.3; stroke: #1f77b4; stroke-opacity: 0.3"/>
    <path d="M 258.366942 442.714041 
C 259.304577 442.714041 260.203934 442.341515 260.866942 441.678507 
C 261.52995 441.0155 261.902476 440.116142 261.902476 439.178507 
C 261.902476 438.240873 261.52995 437.341515 260.866942 436.678507 
C 260.203934 436.0155 259.304577 435.642974 258.366942 435.642974 
C 257.429308 435.642974 256.52995 436.0155 255.866942 436.678507 
C 255.203934 437.341515 254.831408 438.240873 254.831408 439.178507 
C 254.831408 440.116142 255.203934 441.0155 255.866942 441.678507 
C 256.52995 442.341515 257.429308 442.714041 258.366942 442.714041 
z
" clip-path="url(#p7a4d64ea80)" style="fill: #1f77b4; fill-opacity: 0.3; stroke: #1f77b4; stroke-opacity: 0.3"/>
    <path d="M 270.664463 438.901979 
C 271.503109 438.901979 272.307519 438.568782 272.900531 437.975769 
C 273.493543 437.382757 273.82674 436.578347 273.82674 435.739701 
C 273.82674 434.901056 273.493543 434.096646 272.900531 433.503634 
C 272.307519 432.910621 271.503109 432.577424 270.664463 432.577424 
C 269.825817 432.577424 269.021407 432.910621 268.428395 433.503634 
C 267.835383 434.096646 267.502185 434.901056 267.502185 435.739701 
C 267.502185 436.578347 267.835383 437.382757 268.428395 437.975769 
C 269.021407 438.568782 269.825817 438.901979 270.664463 438.901979 
z
" clip-path="url(#p7a4d64ea80)" style="fill: #1f77b4; fill-opacity: 0.3; stroke: #1f77b4; stroke-opacity: 0.3"/>
    <path d="M 282.961983 435.89921 
C 283.688272 435.89921 284.384912 435.610652 284.898475 435.097089 
C 285.412039 434.583525 285.700596 433.886886 285.700596 433.160597 
C 285.700596 432.434308 285.412039 431.737669 284.898475 431.224105 
C 284.384912 430.710542 283.688272 430.421984 282.961983 430.421984 
C 282.235695 430.421984 281.539055 430.710542 281.025492 431.224105 
C 280.511928 431.737669 280.223371 432.434308 280.223371 433.160597 
C 280.223371 433.886886 280.511928 434.583525 281.025492 435.097089 
C 281.539055 435.610652 282.235695 435.89921 282.961983 435.89921 
z
" clip-path="url(#p7a4d64ea80)" style="fill: #1f77b4; fill-opacity: 0.3; stroke: #1f77b4; stroke-opacity: 0.3"/>
    <path d="M 295.259504 432.884069 
C 296.09815 432.884069 296.90256 432.550871 297.495572 431.957859 
C 298.088584 431.364847 298.421782 430.560437 298.421782 429.721791 
C 298.421782 428.883145 298.088584 428.078735 297.495572 427.485723 
C 296.90256 426.892711 296.09815 426.559513 295.259504 426.559513 
C 294.420858 426.559513 293.616448 426.892711 293.023436 427.485723 
C 292.430424 428.078735 292.097226 428.883145 292.097226 429.721791 
C 292.097226 430.560437 292.430424 431.364847 293.023436 431.957859 
C 293.616448 432.550871 294.420858 432.884069 295.259504 432.884069 
z
" clip-path="url(#p7a4d64ea80)" style="fill: #1f77b4; fill-opacity: 0.3; stroke: #1f77b4; stroke-opacity: 0.3"/>
    <path d="M 307.557025 428.436565 
C 308.584152 428.436565 309.569349 428.028483 310.295638 427.302195 
C 311.021926 426.575906 311.430008 425.590709 311.430008 424.563582 
C 311.430008 423.536455 311.021926 422.551258 310.295638 421.824969 
C 309.569349 421.098681 308.584152 420.690599 307.557025 420.690599 
C 306.529898 420.690599 305.544701 421.098681 304.818412 421.824969 
C 304.092123 422.551258 303.684041 423.536455 303.684041 424.563582 
C 303.684041 425.590709 304.092123 426.575906 304.818412 427.302195 
C 305.544701 428.028483 306.529898 428.436565 307.557025 428.436565 
z
" clip-path="url(#p7a4d64ea80)" style="fill: #1f77b4; fill-opacity: 0.3; stroke: #1f77b4; stroke-opacity: 0.3"/>
    <path d="M 319.854545 417.132914 
C 321.531837 417.132914 323.140657 416.466518 324.326681 415.280494 
C 325.512706 414.09447 326.179101 412.48565 326.179101 410.808358 
C 326.179101 409.131067 325.512706 407.522247 324.326681 406.336222 
C 323.140657 405.150198 321.531837 404.483803 319.854545 404.483803 
C 318.177254 404.483803 316.568434 405.150198 315.382409 406.336222 
C 314.196385 407.522247 313.52999 409.131067 313.52999 410.808358 
C 313.52999 412.48565 314.196385 414.09447 315.382409 415.280494 
C 316.568434 416.466518 318.177254 417.132914 319.854545 417.132914 
z
" clip-path="url(#p7a4d64ea80)" style="fill: #1f77b4; fill-opacity: 0.3; stroke: #1f77b4; stroke-opacity: 0.3"/>
    <path d="M 332.152066 410.967867 
C 332.878355 410.967867 333.574994 410.679309 334.088558 410.165745 
C 334.602121 409.652182 334.890679 408.955542 334.890679 408.229254 
C 334.890679 407.502965 334.602121 406.806326 334.088558 406.292762 
C 333.574994 405.779198 332.878355 405.490641 332.152066 405.490641 
C 331.425778 405.490641 330.729138 405.779198 330.215574 406.292762 
C 329.702011 406.806326 329.413453 407.502965 329.413453 408.229254 
C 329.413453 408.955542 329.702011 409.652182 330.215574 410.165745 
C 330.729138 410.679309 331.425778 410.967867 332.152066 410.967867 
z
" clip-path="url(#p7a4d64ea80)" style="fill: #1f77b4; fill-opacity: 0.3; stroke: #1f77b4; stroke-opacity: 0.3"/>
    <path d="M 344.449587 408.388762 
C 345.175875 408.388762 345.872515 408.100205 346.386078 407.586641 
C 346.899642 407.073077 347.1882 406.376438 347.1882 405.650149 
C 347.1882 404.923861 346.899642 404.227221 346.386078 403.713658 
C 345.872515 403.200094 345.175875 402.911536 344.449587 402.911536 
C 343.723298 402.911536 343.026659 403.200094 342.513095 403.713658 
C 341.999532 404.227221 341.710974 404.923861 341.710974 405.650149 
C 341.710974 406.376438 341.999532 407.073077 342.513095 407.586641 
C 343.026659 408.100205 343.723298 408.388762 344.449587 408.388762 
z
" clip-path="url(#p7a4d64ea80)" style="fill: #1f77b4; fill-opacity: 0.3; stroke: #1f77b4; stroke-opacity: 0.3"/>
    <path d="M 356.747107 398.878351 
C 358.371138 398.878351 359.928871 398.233117 361.077234 397.084754 
C 362.225598 395.936391 362.870832 394.378658 362.870832 392.754627 
C 362.870832 391.130596 362.225598 389.572863 361.077234 388.4245 
C 359.928871 387.276137 358.371138 386.630903 356.747107 386.630903 
C 355.123077 386.630903 353.565344 387.276137 352.41698 388.4245 
C 351.268617 389.572863 350.623383 391.130596 350.623383 392.754627 
C 350.623383 394.378658 351.268617 395.936391 352.41698 397.084754 
C 353.565344 398.233117 355.123077 398.878351 356.747107 398.878351 
z
" clip-path="url(#p7a4d64ea80)" style="fill: #1f77b4; fill-opacity: 0.3; stroke: #1f77b4; stroke-opacity: 0.3"/>
    <path d="M 369.044628 392.914135 
C 369.770917 392.914135 370.467556 392.625578 370.98112 392.112014 
C 371.494683 391.59845 371.783241 390.901811 371.783241 390.175522 
C 371.783241 389.449234 371.494683 388.752594 370.98112 388.239031 
C 370.467556 387.725467 369.770917 387.43691 369.044628 387.43691 
C 368.318339 387.43691 367.6217 387.725467 367.108136 388.239031 
C 366.594573 388.752594 366.306015 389.449234 366.306015 390.175522 
C 366.306015 390.901811 366.594573 391.59845 367.108136 392.112014 
C 367.6217 392.625578 368.318339 392.914135 369.044628 392.914135 
z
" clip-path="url(#p7a4d64ea80)" style="fill: #1f77b4; fill-opacity: 0.3; stroke: #1f77b4; stroke-opacity: 0.3"/>
    <path d="M 381.342149 385.33633 
C 382.794726 385.33633 384.188005 384.759215 385.215132 383.732088 
C 386.242259 382.704961 386.819374 381.311682 386.819374 379.859104 
C 386.819374 378.406527 386.242259 377.013248 385.215132 375.986121 
C 384.188005 374.958994 382.794726 374.381879 381.342149 374.381879 
C 379.889572 374.381879 378.496293 374.958994 377.469165 375.986121 
C 376.442038 377.013248 375.864923 378.406527 375.864923 379.859104 
C 375.864923 381.311682 376.442038 382.704961 377.469165 383.732088 
C 378.496293 384.759215 379.889572 385.33633 381.342149 385.33633 
z
" clip-path="url(#p7a4d64ea80)" style="fill: #1f77b4; fill-opacity: 0.3; stroke: #1f77b4; stroke-opacity: 0.3"/>
    <path d="M 393.639669 379.096131 
C 394.577304 379.096131 395.476662 378.723605 396.139669 378.060597 
C 396.802677 377.397589 397.175203 376.498232 397.175203 375.560597 
C 397.175203 374.622962 396.802677 373.723605 396.139669 373.060597 
C 395.476662 372.397589 394.577304 372.025063 393.639669 372.025063 
C 392.702035 372.025063 391.802677 372.397589 391.139669 373.060597 
C 390.476662 373.723605 390.104136 374.622962 390.104136 375.560597 
C 390.104136 376.498232 390.476662 377.397589 391.139669 378.060597 
C 391.802677 378.723605 392.702035 379.096131 393.639669 379.096131 
z
" clip-path="url(#p7a4d64ea80)" style="fill: #1f77b4; fill-opacity: 0.3; stroke: #1f77b4; stroke-opacity: 0.3"/>
    <path d="M 405.93719 374.275371 
C 406.964317 374.275371 407.949514 373.867289 408.675803 373.141001 
C 409.402091 372.414712 409.810173 371.429515 409.810173 370.402388 
C 409.810173 369.375261 409.402091 368.390064 408.675803 367.663775 
C 407.949514 366.937487 406.964317 366.529405 405.93719 366.529405 
C 404.910063 366.529405 403.924866 366.937487 403.198577 367.663775 
C 402.472289 368.390064 402.064207 369.375261 402.064207 370.402388 
C 402.064207 371.429515 402.472289 372.414712 403.198577 373.141001 
C 403.924866 373.867289 404.910063 374.275371 405.93719 374.275371 
z
" clip-path="url(#p7a4d64ea80)" style="fill: #1f77b4; fill-opacity: 0.3; stroke: #1f77b4; stroke-opacity: 0.3"/>
    <path d="M 418.234711 370.561896 
C 418.960999 370.561896 419.657639 370.273339 420.171202 369.759775 
C 420.684766 369.246212 420.973324 368.549572 420.973324 367.823284 
C 420.973324 367.096995 420.684766 366.400356 420.171202 365.886792 
C 419.657639 365.373228 418.960999 365.084671 418.234711 365.084671 
C 417.508422 365.084671 416.811783 365.373228 416.298219 365.886792 
C 415.784655 366.400356 415.496098 367.096995 415.496098 367.823284 
C 415.496098 368.549572 415.784655 369.246212 416.298219 369.759775 
C 416.811783 370.273339 417.508422 370.561896 418.234711 370.561896 
z
" clip-path="url(#p7a4d64ea80)" style="fill: #1f77b4; fill-opacity: 0.3; stroke: #1f77b4; stroke-opacity: 0.3"/>
    <path d="M 430.532231 367.982792 
C 431.25852 367.982792 431.955159 367.694234 432.468723 367.180671 
C 432.982287 366.667107 433.270844 365.970468 433.270844 365.244179 
C 433.270844 364.517891 432.982287 363.821251 432.468723 363.307687 
C 431.955159 362.794124 431.25852 362.505566 430.532231 362.505566 
C 429.805943 362.505566 429.109303 362.794124 428.59574 363.307687 
C 428.082176 363.821251 427.793619 364.517891 427.793619 365.244179 
C 427.793619 365.970468 428.082176 366.667107 428.59574 367.180671 
C 429.109303 367.694234 429.805943 367.982792 430.532231 367.982792 
z
" clip-path="url(#p7a4d64ea80)" style="fill: #1f77b4; fill-opacity: 0.3; stroke: #1f77b4; stroke-opacity: 0.3"/>
    <path d="M 442.829752 364.481206 
C 443.767387 364.481206 444.666744 364.108679 445.329752 363.445672 
C 445.99276 362.782664 446.365286 361.883306 446.365286 360.945672 
C 446.365286 360.008037 445.99276 359.108679 445.329752 358.445672 
C 444.666744 357.782664 443.767387 357.410138 442.829752 357.410138 
C 441.892118 357.410138 440.99276 357.782664 440.329752 358.445672 
C 439.666744 359.108679 439.294218 360.008037 439.294218 360.945672 
C 439.294218 361.883306 439.666744 362.782664 440.329752 363.445672 
C 440.99276 364.108679 441.892118 364.481206 442.829752 364.481206 
z
" clip-path="url(#p7a4d64ea80)" style="fill: #1f77b4; fill-opacity: 0.3; stroke: #1f77b4; stroke-opacity: 0.3"/>
    <path d="M 455.127273 360.182698 
C 456.064907 360.182698 456.964265 359.810172 457.627273 359.147164 
C 458.29028 358.484156 458.662807 357.584799 458.662807 356.647164 
C 458.662807 355.70953 458.29028 354.810172 457.627273 354.147164 
C 456.964265 353.484156 456.064907 353.11163 455.127273 353.11163 
C 454.189638 353.11163 453.29028 353.484156 452.627273 354.147164 
C 451.964265 354.810172 451.591739 355.70953 451.591739 356.647164 
C 451.591739 357.584799 451.964265 358.484156 452.627273 359.147164 
C 453.29028 359.810172 454.189638 360.182698 455.127273 360.182698 
z
" clip-path="url(#p7a4d64ea80)" style="fill: #1f77b4; fill-opacity: 0.3; stroke: #1f77b4; stroke-opacity: 0.3"/>
    <path d="M 467.424793 356.370636 
C 468.263439 356.370636 469.067849 356.037438 469.660861 355.444426 
C 470.253874 354.851414 470.587071 354.047004 470.587071 353.208358 
C 470.587071 352.369712 470.253874 351.565302 469.660861 350.97229 
C 469.067849 350.379278 468.263439 350.046081 467.424793 350.046081 
C 466.586148 350.046081 465.781738 350.379278 465.188725 350.97229 
C 464.595713 351.565302 464.262516 352.369712 464.262516 353.208358 
C 464.262516 354.047004 464.595713 354.851414 465.188725 355.444426 
C 465.781738 356.037438 466.586148 356.370636 467.424793 356.370636 
z
" clip-path="url(#p7a4d64ea80)" style="fill: #1f77b4; fill-opacity: 0.3; stroke: #1f77b4; stroke-opacity: 0.3"/>
    <path d="M 479.722314 353.725023 
C 480.315326 353.725023 480.88413 353.489417 481.303453 353.070094 
C 481.722776 352.650771 481.958382 352.081967 481.958382 351.488955 
C 481.958382 350.895943 481.722776 350.327139 481.303453 349.907816 
C 480.88413 349.488493 480.315326 349.252887 479.722314 349.252887 
C 479.129302 349.252887 478.560498 349.488493 478.141175 349.907816 
C 477.721852 350.327139 477.486246 350.895943 477.486246 351.488955 
C 477.486246 352.081967 477.721852 352.650771 478.141175 353.070094 
C 478.560498 353.489417 479.129302 353.725023 479.722314 353.725023 
z
" clip-path="url(#p7a4d64ea80)" style="fill: #1f77b4; fill-opacity: 0.3; stroke: #1f77b4; stroke-opacity: 0.3"/>
    <path d="M 492.019835 349.654345 
C 493.129259 349.654345 494.193393 349.213566 494.977875 348.429085 
C 495.762356 347.644603 496.203135 346.580469 496.203135 345.471045 
C 496.203135 344.361621 495.762356 343.297486 494.977875 342.513005 
C 494.193393 341.728524 493.129259 341.287745 492.019835 341.287745 
C 490.910411 341.287745 489.846276 341.728524 489.061795 342.513005 
C 488.277313 343.297486 487.836535 344.361621 487.836535 345.471045 
C 487.836535 346.580469 488.277313 347.644603 489.061795 348.429085 
C 489.846276 349.213566 490.910411 349.654345 492.019835 349.654345 
z
" clip-path="url(#p7a4d64ea80)" style="fill: #1f77b4; fill-opacity: 0.3; stroke: #1f77b4; stroke-opacity: 0.3"/>
    <path d="M 504.317355 345.98771 
C 504.910368 345.98771 505.479171 345.752104 505.898494 345.332781 
C 506.317817 344.913458 506.553423 344.344654 506.553423 343.751642 
C 506.553423 343.15863 506.317817 342.589826 505.898494 342.170503 
C 505.479171 341.75118 504.910368 341.515574 504.317355 341.515574 
C 503.724343 341.515574 503.155539 341.75118 502.736217 342.170503 
C 502.316894 342.589826 502.081287 343.15863 502.081287 343.751642 
C 502.081287 344.344654 502.316894 344.913458 502.736217 345.332781 
C 503.155539 345.752104 503.724343 345.98771 504.317355 345.98771 
z
" clip-path="url(#p7a4d64ea80)" style="fill: #1f77b4; fill-opacity: 0.3; stroke: #1f77b4; stroke-opacity: 0.3"/>
    <path d="M 528.912397 340.154627 
C 530.238412 340.154627 531.510296 339.627795 532.447931 338.690161 
C 533.385565 337.752526 533.912397 336.480642 533.912397 335.154627 
C 533.912397 333.828611 533.385565 332.556728 532.447931 331.619093 
C 531.510296 330.681458 530.238412 330.154627 528.912397 330.154627 
C 527.586381 330.154627 526.314497 330.681458 525.376863 331.619093 
C 524.439228 332.556728 523.912397 333.828611 523.912397 335.154627 
C 523.912397 336.480642 524.439228 337.752526 525.376863 338.690161 
C 526.314497 339.627795 527.586381 340.154627 528.912397 340.154627 
z
" clip-path="url(#p7a4d64ea80)" style="fill: #1f77b4; fill-opacity: 0.3; stroke: #1f77b4; stroke-opacity: 0.3"/>
    <path d="M 541.209917 335.876064 
C 541.62924 335.876064 542.031445 335.709465 542.327951 335.412959 
C 542.624457 335.116453 542.791056 334.714248 542.791056 334.294925 
C 542.791056 333.875602 542.624457 333.473397 542.327951 333.176891 
C 542.031445 332.880385 541.62924 332.713787 541.209917 332.713787 
C 540.790594 332.713787 540.388389 332.880385 540.091883 333.176891 
C 539.795377 333.473397 539.628779 333.875602 539.628779 334.294925 
C 539.628779 334.714248 539.795377 335.116453 540.091883 335.412959 
C 540.388389 335.709465 540.790594 335.876064 541.209917 335.876064 
z
" clip-path="url(#p7a4d64ea80)" style="fill: #1f77b4; fill-opacity: 0.3; stroke: #1f77b4; stroke-opacity: 0.3"/>
    <path d="M 553.507438 333.0097 
C 554.534565 333.0097 555.519762 332.601618 556.246051 331.875329 
C 556.972339 331.149041 557.380421 330.163844 557.380421 329.136716 
C 557.380421 328.109589 556.972339 327.124392 556.246051 326.398104 
C 555.519762 325.671815 554.534565 325.263733 553.507438 325.263733 
C 552.480311 325.263733 551.495114 325.671815 550.768825 326.398104 
C 550.042537 327.124392 549.634455 328.109589 549.634455 329.136716 
C 549.634455 330.163844 550.042537 331.149041 550.768825 331.875329 
C 551.495114 332.601618 552.480311 333.0097 553.507438 333.0097 
z
" clip-path="url(#p7a4d64ea80)" style="fill: #1f77b4; fill-opacity: 0.3; stroke: #1f77b4; stroke-opacity: 0.3"/>
    <path d="M 565.804959 322.364918 
C 567.428989 322.364918 568.986723 321.719684 570.135086 320.571321 
C 571.283449 319.422958 571.928683 317.865225 571.928683 316.241194 
C 571.928683 314.617163 571.283449 313.05943 570.135086 311.911067 
C 568.986723 310.762704 567.428989 310.11747 565.804959 310.11747 
C 564.180928 310.11747 562.623195 310.762704 561.474832 311.911067 
C 560.326469 313.05943 559.681234 314.617163 559.681234 316.241194 
C 559.681234 317.865225 560.326469 319.422958 561.474832 320.571321 
C 562.623195 321.719684 564.180928 322.364918 565.804959 322.364918 
z
" clip-path="url(#p7a4d64ea80)" style="fill: #1f77b4; fill-opacity: 0.3; stroke: #1f77b4; stroke-opacity: 0.3"/>
    <path d="M 578.102479 309.469396 
C 579.72651 309.469396 581.284243 308.824162 582.432606 307.675799 
C 583.580969 306.527436 584.226204 304.969702 584.226204 303.345672 
C 584.226204 301.721641 583.580969 300.163908 582.432606 299.015545 
C 581.284243 297.867182 579.72651 297.221947 578.102479 297.221947 
C 576.478449 297.221947 574.920715 297.867182 573.772352 299.015545 
C 572.623989 300.163908 571.978755 301.721641 571.978755 303.345672 
C 571.978755 304.969702 572.623989 306.527436 573.772352 307.675799 
C 574.920715 308.824162 576.478449 309.469396 578.102479 309.469396 
z
" clip-path="url(#p7a4d64ea80)" style="fill: #1f77b4; fill-opacity: 0.3; stroke: #1f77b4; stroke-opacity: 0.3"/>
    <path d="M 590.4 303.50518 
C 591.126289 303.50518 591.822928 303.216622 592.336492 302.703059 
C 592.850055 302.189495 593.138613 301.492856 593.138613 300.766567 
C 593.138613 300.040279 592.850055 299.343639 592.336492 298.830075 
C 591.822928 298.316512 591.126289 298.027954 590.4 298.027954 
C 589.673711 298.027954 588.977072 298.316512 588.463508 298.830075 
C 587.949945 299.343639 587.661387 300.040279 587.661387 300.766567 
C 587.661387 301.492856 587.949945 302.189495 588.463508 302.703059 
C 588.977072 303.216622 589.673711 303.50518 590.4 303.50518 
z
" clip-path="url(#p7a4d64ea80)" style="fill: #1f77b4; fill-opacity: 0.3; stroke: #1f77b4; stroke-opacity: 0.3"/>
    <path d="M 614.995041 300.490039 
C 615.833687 300.490039 616.638097 300.156841 617.231109 299.563829 
C 617.824121 298.970817 618.157319 298.166407 618.157319 297.327761 
C 618.157319 296.489115 617.824121 295.684705 617.231109 295.091693 
C 616.638097 294.498681 615.833687 294.165484 614.995041 294.165484 
C 614.156395 294.165484 613.351986 294.498681 612.758973 295.091693 
C 612.165961 295.684705 611.832764 296.489115 611.832764 297.327761 
C 611.832764 298.166407 612.165961 298.970817 612.758973 299.563829 
C 613.351986 300.156841 614.156395 300.490039 614.995041 300.490039 
z
" clip-path="url(#p7a4d64ea80)" style="fill: #1f77b4; fill-opacity: 0.3; stroke: #1f77b4; stroke-opacity: 0.3"/>
    <path d="M 627.292562 289.232038 
C 629.021475 289.232038 630.679808 288.545134 631.902334 287.322608 
C 633.12486 286.100082 633.811764 284.441749 633.811764 282.712836 
C 633.811764 280.983923 633.12486 279.325589 631.902334 278.103064 
C 630.679808 276.880538 629.021475 276.193633 627.292562 276.193633 
C 625.563649 276.193633 623.905316 276.880538 622.68279 278.103064 
C 621.460264 279.325589 620.77336 280.983923 620.77336 282.712836 
C 620.77336 284.441749 621.460264 286.100082 622.68279 287.322608 
C 623.905316 288.545134 625.563649 289.232038 627.292562 289.232038 
z
" clip-path="url(#p7a4d64ea80)" style="fill: #1f77b4; fill-opacity: 0.3; stroke: #1f77b4; stroke-opacity: 0.3"/>
    <path d="M 639.590083 283.434273 
C 640.009406 283.434273 640.411611 283.267674 640.708117 282.971168 
C 641.004623 282.674662 641.171221 282.272457 641.171221 281.853134 
C 641.171221 281.433811 641.004623 281.031606 640.708117 280.7351 
C 640.411611 280.438594 640.009406 280.271995 639.590083 280.271995 
C 639.17076 280.271995 638.768555 280.438594 638.472049 280.7351 
C 638.175543 281.031606 638.008944 281.433811 638.008944 281.853134 
C 638.008944 282.272457 638.175543 282.674662 638.472049 282.971168 
C 638.768555 283.267674 639.17076 283.434273 639.590083 283.434273 
z
" clip-path="url(#p7a4d64ea80)" style="fill: #1f77b4; fill-opacity: 0.3; stroke: #1f77b4; stroke-opacity: 0.3"/>
    <path d="M 651.887603 281.576606 
C 652.726249 281.576606 653.530659 281.243408 654.123671 280.650396 
C 654.716683 280.057384 655.049881 279.252974 655.049881 278.414328 
C 655.049881 277.575683 654.716683 276.771273 654.123671 276.17826 
C 653.530659 275.585248 652.726249 275.252051 651.887603 275.252051 
C 651.048957 275.252051 650.244547 275.585248 649.651535 276.17826 
C 649.058523 276.771273 648.725326 277.575683 648.725326 278.414328 
C 648.725326 279.252974 649.058523 280.057384 649.651535 280.650396 
C 650.244547 281.243408 651.048957 281.576606 651.887603 281.576606 
z
" clip-path="url(#p7a4d64ea80)" style="fill: #1f77b4; fill-opacity: 0.3; stroke: #1f77b4; stroke-opacity: 0.3"/>
    <path d="M 664.185124 278.573837 
C 664.911413 278.573837 665.608052 278.285279 666.121616 277.771716 
C 666.635179 277.258152 666.923737 276.561512 666.923737 275.835224 
C 666.923737 275.108935 666.635179 274.412296 666.121616 273.898732 
C 665.608052 273.385169 664.911413 273.096611 664.185124 273.096611 
C 663.458835 273.096611 662.762196 273.385169 662.248632 273.898732 
C 661.735069 274.412296 661.446511 275.108935 661.446511 275.835224 
C 661.446511 276.561512 661.735069 277.258152 662.248632 277.771716 
C 662.762196 278.285279 663.458835 278.573837 664.185124 278.573837 
z
" clip-path="url(#p7a4d64ea80)" style="fill: #1f77b4; fill-opacity: 0.3; stroke: #1f77b4; stroke-opacity: 0.3"/>
    <path d="M 676.482645 275.994732 
C 677.208933 275.994732 677.905573 275.706175 678.419136 275.192611 
C 678.9327 274.679047 679.221257 273.982408 679.221257 273.256119 
C 679.221257 272.529831 678.9327 271.833191 678.419136 271.319628 
C 677.905573 270.806064 677.208933 270.517507 676.482645 270.517507 
C 675.756356 270.517507 675.059717 270.806064 674.546153 271.319628 
C 674.032589 271.833191 673.744032 272.529831 673.744032 273.256119 
C 673.744032 273.982408 674.032589 274.679047 674.546153 275.192611 
C 675.059717 275.706175 675.756356 275.994732 676.482645 275.994732 
z
" clip-path="url(#p7a4d64ea80)" style="fill: #1f77b4; fill-opacity: 0.3; stroke: #1f77b4; stroke-opacity: 0.3"/>
    <path d="M 688.780165 264.489696 
C 690.559202 264.489696 692.265613 263.782878 693.523582 262.524909 
C 694.781551 261.26694 695.488369 259.560529 695.488369 257.781493 
C 695.488369 256.002456 694.781551 254.296045 693.523582 253.038076 
C 692.265613 251.780107 690.559202 251.073289 688.780165 251.073289 
C 687.001129 251.073289 685.294718 251.780107 684.036749 253.038076 
C 682.77878 254.296045 682.071961 256.002456 682.071961 257.781493 
C 682.071961 259.560529 682.77878 261.26694 684.036749 262.524909 
C 685.294718 263.782878 687.001129 264.489696 688.780165 264.489696 
z
" clip-path="url(#p7a4d64ea80)" style="fill: #1f77b4; fill-opacity: 0.3; stroke: #1f77b4; stroke-opacity: 0.3"/>
    <path d="M 701.077686 257.941001 
C 701.803975 257.941001 702.500614 257.652443 703.014178 257.13888 
C 703.527741 256.625316 703.816299 255.928677 703.816299 255.202388 
C 703.816299 254.476099 703.527741 253.77946 703.014178 253.265896 
C 702.500614 252.752333 701.803975 252.463775 701.077686 252.463775 
C 700.351397 252.463775 699.654758 252.752333 699.141194 253.265896 
C 698.627631 253.77946 698.339073 254.476099 698.339073 255.202388 
C 698.339073 255.928677 698.627631 256.625316 699.141194 257.13888 
C 699.654758 257.652443 700.351397 257.941001 701.077686 257.941001 
z
" clip-path="url(#p7a4d64ea80)" style="fill: #1f77b4; fill-opacity: 0.3; stroke: #1f77b4; stroke-opacity: 0.3"/>
    <path d="M 713.375207 254.92586 
C 714.213852 254.92586 715.018262 254.592662 715.611275 253.99965 
C 716.204287 253.406638 716.537484 252.602228 716.537484 251.763582 
C 716.537484 250.924936 716.204287 250.120526 715.611275 249.527514 
C 715.018262 248.934502 714.213852 248.601304 713.375207 248.601304 
C 712.536561 248.601304 711.732151 248.934502 711.139139 249.527514 
C 710.546126 250.120526 710.212929 250.924936 710.212929 251.763582 
C 710.212929 252.602228 710.546126 253.406638 711.139139 253.99965 
C 711.732151 254.592662 712.536561 254.92586 713.375207 254.92586 
z
" clip-path="url(#p7a4d64ea80)" style="fill: #1f77b4; fill-opacity: 0.3; stroke: #1f77b4; stroke-opacity: 0.3"/>
    <path d="M 725.672727 251.487054 
C 726.511373 251.487054 727.315783 251.153856 727.908795 250.560844 
C 728.501807 249.967832 728.835005 249.163422 728.835005 248.324776 
C 728.835005 247.48613 728.501807 246.68172 727.908795 246.088708 
C 727.315783 245.495696 726.511373 245.162498 725.672727 245.162498 
C 724.834081 245.162498 724.029671 245.495696 723.436659 246.088708 
C 722.843647 246.68172 722.51045 247.48613 722.51045 248.324776 
C 722.51045 249.163422 722.843647 249.967832 723.436659 250.560844 
C 724.029671 251.153856 724.834081 251.487054 725.672727 251.487054 
z
" clip-path="url(#p7a4d64ea80)" style="fill: #1f77b4; fill-opacity: 0.3; stroke: #1f77b4; stroke-opacity: 0.3"/>
    <path d="M 737.970248 247.039551 
C 738.997375 247.039551 739.982572 246.631469 740.708861 245.90518 
C 741.435149 245.178891 741.843231 244.193694 741.843231 243.166567 
C 741.843231 242.13944 741.435149 241.154243 740.708861 240.427954 
C 739.982572 239.701666 738.997375 239.293584 737.970248 239.293584 
C 736.943121 239.293584 735.957924 239.701666 735.231635 240.427954 
C 734.505347 241.154243 734.097265 242.13944 734.097265 243.166567 
C 734.097265 244.193694 734.505347 245.178891 735.231635 245.90518 
C 735.957924 246.631469 736.943121 247.039551 737.970248 247.039551 
z
" clip-path="url(#p7a4d64ea80)" style="fill: #1f77b4; fill-opacity: 0.3; stroke: #1f77b4; stroke-opacity: 0.3"/>
    <path d="M 750.267769 233.043605 
C 752.143038 233.043605 753.941753 232.298553 755.267769 230.972537 
C 756.593784 229.646522 757.338836 227.847806 757.338836 225.972537 
C 757.338836 224.097268 756.593784 222.298553 755.267769 220.972537 
C 753.941753 219.646522 752.143038 218.90147 750.267769 218.90147 
C 748.392499 218.90147 746.593784 219.646522 745.267769 220.972537 
C 743.941753 222.298553 743.196701 224.097268 743.196701 225.972537 
C 743.196701 227.847806 743.941753 229.646522 745.267769 230.972537 
C 746.593784 232.298553 748.392499 233.043605 750.267769 233.043605 
z
" clip-path="url(#p7a4d64ea80)" style="fill: #1f77b4; fill-opacity: 0.3; stroke: #1f77b4; stroke-opacity: 0.3"/>
    <path d="M 762.565289 225.209564 
C 763.502924 225.209564 764.402282 224.837038 765.065289 224.17403 
C 765.728297 223.511022 766.100823 222.611664 766.100823 221.67403 
C 766.100823 220.736395 765.728297 219.837038 765.065289 219.17403 
C 764.402282 218.511022 763.502924 218.138496 762.565289 218.138496 
C 761.627655 218.138496 760.728297 218.511022 760.065289 219.17403 
C 759.402282 219.837038 759.029755 220.736395 759.029755 221.67403 
C 759.029755 222.611664 759.402282 223.511022 760.065289 224.17403 
C 760.728297 224.837038 761.627655 225.209564 762.565289 225.209564 
z
" clip-path="url(#p7a4d64ea80)" style="fill: #1f77b4; fill-opacity: 0.3; stroke: #1f77b4; stroke-opacity: 0.3"/>
    <path d="M 774.86281 221.833538 
C 775.589099 221.833538 776.285738 221.544981 776.799302 221.031417 
C 777.312865 220.517853 777.601423 219.821214 777.601423 219.094925 
C 777.601423 218.368637 777.312865 217.671997 776.799302 217.158434 
C 776.285738 216.64487 775.589099 216.356313 774.86281 216.356313 
C 774.136521 216.356313 773.439882 216.64487 772.926318 217.158434 
C 772.412755 217.671997 772.124197 218.368637 772.124197 219.094925 
C 772.124197 219.821214 772.412755 220.517853 772.926318 221.031417 
C 773.439882 221.544981 774.136521 221.833538 774.86281 221.833538 
z
" clip-path="url(#p7a4d64ea80)" style="fill: #1f77b4; fill-opacity: 0.3; stroke: #1f77b4; stroke-opacity: 0.3"/>
    <path d="M 787.160331 215.49791 
C 788.486346 215.49791 789.75823 214.971079 790.695864 214.033444 
C 791.633499 213.09581 792.160331 211.823926 792.160331 210.49791 
C 792.160331 209.171895 791.633499 207.900011 790.695864 206.962377 
C 789.75823 206.024742 788.486346 205.49791 787.160331 205.49791 
C 785.834315 205.49791 784.562431 206.024742 783.624797 206.962377 
C 782.687162 207.900011 782.160331 209.171895 782.160331 210.49791 
C 782.160331 211.823926 782.687162 213.09581 783.624797 214.033444 
C 784.562431 214.971079 785.834315 215.49791 787.160331 215.49791 
z
" clip-path="url(#p7a4d64ea80)" style="fill: #1f77b4; fill-opacity: 0.3; stroke: #1f77b4; stroke-opacity: 0.3"/>
    <path d="M 799.457851 210.221382 
C 800.296497 210.221382 801.100907 209.888185 801.693919 209.295172 
C 802.286931 208.70216 802.620129 207.89775 802.620129 207.059104 
C 802.620129 206.220459 802.286931 205.416049 801.693919 204.823037 
C 801.100907 204.230024 800.296497 203.896827 799.457851 203.896827 
C 798.619205 203.896827 797.814795 204.230024 797.221783 204.823037 
C 796.628771 205.416049 796.295574 206.220459 796.295574 207.059104 
C 796.295574 207.89775 796.628771 208.70216 797.221783 209.295172 
C 797.814795 209.888185 798.619205 210.221382 799.457851 210.221382 
z
" clip-path="url(#p7a4d64ea80)" style="fill: #1f77b4; fill-opacity: 0.3; stroke: #1f77b4; stroke-opacity: 0.3"/>
    <path d="M 811.755372 207.780542 
C 812.174695 207.780542 812.5769 207.613943 812.873406 207.317437 
C 813.169912 207.020931 813.336511 206.618726 813.336511 206.199403 
C 813.336511 205.78008 813.169912 205.377875 812.873406 205.081369 
C 812.5769 204.784863 812.174695 204.618264 811.755372 204.618264 
C 811.336049 204.618264 810.933844 204.784863 810.637338 205.081369 
C 810.340832 205.377875 810.174233 205.78008 810.174233 206.199403 
C 810.174233 206.618726 810.340832 207.020931 810.637338 207.317437 
C 810.933844 207.613943 811.336049 207.780542 811.755372 207.780542 
z
" clip-path="url(#p7a4d64ea80)" style="fill: #1f77b4; fill-opacity: 0.3; stroke: #1f77b4; stroke-opacity: 0.3"/>
    <path d="M 824.052893 191.909422 
C 826.191028 191.909422 828.241879 191.059932 829.75377 189.548041 
C 831.26566 188.036151 832.11515 185.9853 832.11515 183.847164 
C 832.11515 181.709028 831.26566 179.658177 829.75377 178.146287 
C 828.241879 176.634397 826.191028 175.784906 824.052893 175.784906 
C 821.914757 175.784906 819.863906 176.634397 818.352015 178.146287 
C 816.840125 179.658177 815.990635 181.709028 815.990635 183.847164 
C 815.990635 185.9853 816.840125 188.036151 818.352015 189.548041 
C 819.863906 191.059932 821.914757 191.909422 824.052893 191.909422 
z
" clip-path="url(#p7a4d64ea80)" style="fill: #1f77b4; fill-opacity: 0.3; stroke: #1f77b4; stroke-opacity: 0.3"/>
    <path d="M 836.350413 183.084191 
C 837.288048 183.084191 838.187405 182.711664 838.850413 182.048657 
C 839.513421 181.385649 839.885947 180.486291 839.885947 179.548657 
C 839.885947 178.611022 839.513421 177.711664 838.850413 177.048657 
C 838.187405 176.385649 837.288048 176.013123 836.350413 176.013123 
C 835.412779 176.013123 834.513421 176.385649 833.850413 177.048657 
C 833.187405 177.711664 832.814879 178.611022 832.814879 179.548657 
C 832.814879 180.486291 833.187405 181.385649 833.850413 182.048657 
C 834.513421 182.711664 835.412779 183.084191 836.350413 183.084191 
z
" clip-path="url(#p7a4d64ea80)" style="fill: #1f77b4; fill-opacity: 0.3; stroke: #1f77b4; stroke-opacity: 0.3"/>
    <path d="M 848.647934 176.55476 
C 849.905903 176.55476 851.112518 176.054963 852.002036 175.165445 
C 852.891554 174.275927 853.39135 173.069312 853.39135 171.811343 
C 853.39135 170.553375 852.891554 169.34676 852.002036 168.457241 
C 851.112518 167.567723 849.905903 167.067927 848.647934 167.067927 
C 847.389965 167.067927 846.18335 167.567723 845.293832 168.457241 
C 844.404314 169.34676 843.904517 170.553375 843.904517 171.811343 
C 843.904517 173.069312 844.404314 174.275927 845.293832 175.165445 
C 846.18335 176.054963 847.389965 176.55476 848.647934 176.55476 
z
" clip-path="url(#p7a4d64ea80)" style="fill: #1f77b4; fill-opacity: 0.3; stroke: #1f77b4; stroke-opacity: 0.3"/>
    <path d="M 860.945455 172.328008 
C 861.538467 172.328008 862.10727 172.092402 862.526593 171.673079 
C 862.945916 171.253756 863.181523 170.684952 863.181523 170.09194 
C 863.181523 169.498928 862.945916 168.930124 862.526593 168.510801 
C 862.10727 168.091479 861.538467 167.855872 860.945455 167.855872 
C 860.352442 167.855872 859.783639 168.091479 859.364316 168.510801 
C 858.944993 168.930124 858.709387 169.498928 858.709387 170.09194 
C 858.709387 170.684952 858.944993 171.253756 859.364316 171.673079 
C 859.783639 172.092402 860.352442 172.328008 860.945455 172.328008 
z
" clip-path="url(#p7a4d64ea80)" style="fill: #1f77b4; fill-opacity: 0.3; stroke: #1f77b4; stroke-opacity: 0.3"/>
    <path d="M 873.242975 170.251449 
C 873.969264 170.251449 874.665903 169.962891 875.179467 169.449327 
C 875.69303 168.935764 875.981588 168.239124 875.981588 167.512836 
C 875.981588 166.786547 875.69303 166.089908 875.179467 165.576344 
C 874.665903 165.062781 873.969264 164.774223 873.242975 164.774223 
C 872.516687 164.774223 871.820047 165.062781 871.306484 165.576344 
C 870.79292 166.089908 870.504362 166.786547 870.504362 167.512836 
C 870.504362 168.239124 870.79292 168.935764 871.306484 169.449327 
C 871.820047 169.962891 872.516687 170.251449 873.242975 170.251449 
z
" clip-path="url(#p7a4d64ea80)" style="fill: #1f77b4; fill-opacity: 0.3; stroke: #1f77b4; stroke-opacity: 0.3"/>
    <path d="M 885.540496 160.741038 
C 887.164527 160.741038 888.72226 160.095804 889.870623 158.94744 
C 891.018986 157.799077 891.66422 156.241344 891.66422 154.617313 
C 891.66422 152.993283 891.018986 151.43555 889.870623 150.287186 
C 888.72226 149.138823 887.164527 148.493589 885.540496 148.493589 
C 883.916465 148.493589 882.358732 149.138823 881.210369 150.287186 
C 880.062006 151.43555 879.416772 152.993283 879.416772 154.617313 
C 879.416772 156.241344 880.062006 157.799077 881.210369 158.94744 
C 882.358732 160.095804 883.916465 160.741038 885.540496 160.741038 
z
" clip-path="url(#p7a4d64ea80)" style="fill: #1f77b4; fill-opacity: 0.3; stroke: #1f77b4; stroke-opacity: 0.3"/>
    <path d="M 897.838017 155.133978 
C 898.431029 155.133978 898.999832 154.898372 899.419155 154.479049 
C 899.838478 154.059726 900.074085 153.490923 900.074085 152.89791 
C 900.074085 152.304898 899.838478 151.736095 899.419155 151.316772 
C 898.999832 150.897449 898.431029 150.661842 897.838017 150.661842 
C 897.245004 150.661842 896.676201 150.897449 896.256878 151.316772 
C 895.837555 151.736095 895.601949 152.304898 895.601949 152.89791 
C 895.601949 153.490923 895.837555 154.059726 896.256878 154.479049 
C 896.676201 154.898372 897.245004 155.133978 897.838017 155.133978 
z
" clip-path="url(#p7a4d64ea80)" style="fill: #1f77b4; fill-opacity: 0.3; stroke: #1f77b4; stroke-opacity: 0.3"/>
    <path d="M 910.135537 152.621382 
C 910.974183 152.621382 911.778593 152.288185 912.371605 151.695172 
C 912.964617 151.10216 913.297815 150.29775 913.297815 149.459104 
C 913.297815 148.620459 912.964617 147.816049 912.371605 147.223037 
C 911.778593 146.630024 910.974183 146.296827 910.135537 146.296827 
C 909.296891 146.296827 908.492481 146.630024 907.899469 147.223037 
C 907.306457 147.816049 906.97326 148.620459 906.97326 149.459104 
C 906.97326 150.29775 907.306457 151.10216 907.899469 151.695172 
C 908.492481 152.288185 909.296891 152.621382 910.135537 152.621382 
z
" clip-path="url(#p7a4d64ea80)" style="fill: #1f77b4; fill-opacity: 0.3; stroke: #1f77b4; stroke-opacity: 0.3"/>
    <path d="M 922.433058 133.042454 
C 924.691181 133.042454 926.857121 132.145293 928.453855 130.548558 
C 930.050589 128.951824 930.947751 126.785884 930.947751 124.527761 
C 930.947751 122.269638 930.050589 120.103698 928.453855 118.506964 
C 926.857121 116.91023 924.691181 116.013068 922.433058 116.013068 
C 920.174935 116.013068 918.008995 116.91023 916.412261 118.506964 
C 914.815526 120.103698 913.918365 122.269638 913.918365 124.527761 
C 913.918365 126.785884 914.815526 128.951824 916.412261 130.548558 
C 918.008995 132.145293 920.174935 133.042454 922.433058 133.042454 
z
" clip-path="url(#p7a4d64ea80)" style="fill: #1f77b4; fill-opacity: 0.3; stroke: #1f77b4; stroke-opacity: 0.3"/>
    <path d="M 934.730579 125.044426 
C 935.323591 125.044426 935.892394 124.80882 936.311717 124.389497 
C 936.73104 123.970174 936.966646 123.40137 936.966646 122.808358 
C 936.966646 122.215346 936.73104 121.646542 936.311717 121.227219 
C 935.892394 120.807896 935.323591 120.57229 934.730579 120.57229 
C 934.137566 120.57229 933.568763 120.807896 933.14944 121.227219 
C 932.730117 121.646542 932.494511 122.215346 932.494511 122.808358 
C 932.494511 123.40137 932.730117 123.970174 933.14944 124.389497 
C 933.568763 124.80882 934.137566 125.044426 934.730579 125.044426 
z
" clip-path="url(#p7a4d64ea80)" style="fill: #1f77b4; fill-opacity: 0.3; stroke: #1f77b4; stroke-opacity: 0.3"/>
    <path d="M 947.028099 123.325023 
C 947.621111 123.325023 948.189915 123.089417 948.609238 122.670094 
C 949.028561 122.250771 949.264167 121.681967 949.264167 121.088955 
C 949.264167 120.495943 949.028561 119.927139 948.609238 119.507816 
C 948.189915 119.088493 947.621111 118.852887 947.028099 118.852887 
C 946.435087 118.852887 945.866283 119.088493 945.44696 119.507816 
C 945.027637 119.927139 944.792031 120.495943 944.792031 121.088955 
C 944.792031 121.681967 945.027637 122.250771 945.44696 122.670094 
C 945.866283 123.089417 946.435087 123.325023 947.028099 123.325023 
z
" clip-path="url(#p7a4d64ea80)" style="fill: #1f77b4; fill-opacity: 0.3; stroke: #1f77b4; stroke-opacity: 0.3"/>
    <path d="M 959.32562 117.49194 
C 960.651635 117.49194 961.923519 116.965109 962.861154 116.027474 
C 963.798788 115.08984 964.32562 113.817956 964.32562 112.49194 
C 964.32562 111.165925 963.798788 109.894041 962.861154 108.956406 
C 961.923519 108.018772 960.651635 107.49194 959.32562 107.49194 
C 957.999604 107.49194 956.72772 108.018772 955.790086 108.956406 
C 954.852451 109.894041 954.32562 111.165925 954.32562 112.49194 
C 954.32562 113.817956 954.852451 115.08984 955.790086 116.027474 
C 956.72772 116.965109 957.999604 117.49194 959.32562 117.49194 
z
" clip-path="url(#p7a4d64ea80)" style="fill: #1f77b4; fill-opacity: 0.3; stroke: #1f77b4; stroke-opacity: 0.3"/>
    <path d="M 971.62314 112.651449 
C 972.349429 112.651449 973.046069 112.362891 973.559632 111.849327 
C 974.073196 111.335764 974.361753 110.639124 974.361753 109.912836 
C 974.361753 109.186547 974.073196 108.489908 973.559632 107.976344 
C 973.046069 107.462781 972.349429 107.174223 971.62314 107.174223 
C 970.896852 107.174223 970.200212 107.462781 969.686649 107.976344 
C 969.173085 108.489908 968.884528 109.186547 968.884528 109.912836 
C 968.884528 110.639124 969.173085 111.335764 969.686649 111.849327 
C 970.200212 112.362891 970.896852 112.651449 971.62314 112.651449 
z
" clip-path="url(#p7a4d64ea80)" style="fill: #1f77b4; fill-opacity: 0.3; stroke: #1f77b4; stroke-opacity: 0.3"/>
    <path d="M 983.920661 97.722577 
C 985.931663 97.722577 987.860571 96.923597 989.282564 95.501604 
C 990.704557 94.079611 991.503537 92.150704 991.503537 90.139701 
C 991.503537 88.128699 990.704557 86.199792 989.282564 84.777799 
C 987.860571 83.355806 985.931663 82.556826 983.920661 82.556826 
C 981.909659 82.556826 979.980752 83.355806 978.558759 84.777799 
C 977.136765 86.199792 976.337786 88.128699 976.337786 90.139701 
C 976.337786 92.150704 977.136765 94.079611 978.558759 95.501604 
C 979.980752 96.923597 981.909659 97.722577 983.920661 97.722577 
z
" clip-path="url(#p7a4d64ea80)" style="fill: #1f77b4; fill-opacity: 0.3; stroke: #1f77b4; stroke-opacity: 0.3"/>
    <path d="M 996.218182 90.861139 
C 996.637505 90.861139 997.03971 90.69454 997.336216 90.398034 
C 997.632722 90.101528 997.799321 89.699323 997.799321 89.28 
C 997.799321 88.860677 997.632722 88.458472 997.336216 88.161966 
C 997.03971 87.86546 996.637505 87.698861 996.218182 87.698861 
C 995.798859 87.698861 995.396654 87.86546 995.100148 88.161966 
C 994.803642 88.458472 994.637043 88.860677 994.637043 89.28 
C 994.637043 89.699323 994.803642 90.101528 995.100148 90.398034 
C 995.396654 90.69454 995.798859 90.861139 996.218182 90.861139 
z
" clip-path="url(#p7a4d64ea80)" style="fill: #1f77b4; fill-opacity: 0.3; stroke: #1f77b4; stroke-opacity: 0.3"/>
   </g>
   <g id="matplotlib.axis_1">
    <g id="xtick_1">
     <g id="line2d_1">
      <defs>
       <path id="m1b7a7c3a50" d="M 0 0 
L 0 3.5 
" style="stroke: #000000; stroke-width: 0.8"/>
      </defs>
      <g>
       <use xlink:href="#m1b7a7c3a50" x="184.581818" y="512.64" style="stroke: #000000; stroke-width: 0.8"/>
      </g>
     </g>
     <g id="text_1">
      <!-- 2024-01-01 -->
      <g transform="translate(155.524006 527.238438) scale(0.1 -0.1)">
       <defs>
        <path id="DejaVuSans-32" d="M 1228 531 
L 3431 531 
L 3431 0 
L 469 0 
L 469 531 
Q 828 903 1448 1529 
Q 2069 2156 2228 2338 
Q 2531 2678 2651 2914 
Q 2772 3150 2772 3378 
Q 2772 3750 2511 3984 
Q 2250 4219 1831 4219 
Q 1534 4219 1204 4116 
Q 875 4013 500 3803 
L 500 4441 
Q 881 4594 1212 4672 
Q 1544 4750 1819 4750 
Q 2544 4750 2975 4387 
Q 3406 4025 3406 3419 
Q 3406 3131 3298 2873 
Q 3191 2616 2906 2266 
Q 2828 2175 2409 1742 
Q 1991 1309 1228 531 
z
" transform="scale(0.015625)"/>
        <path id="DejaVuSans-30" d="M 2034 4250 
Q 1547 4250 1301 3770 
Q 1056 3291 1056 2328 
Q 1056 1369 1301 889 
Q 1547 409 2034 409 
Q 2525 409 2770 889 
Q 3016 1369 3016 2328 
Q 3016 3291 2770 3770 
Q 2525 4250 2034 4250 
z
M 2034 4750 
Q 2819 4750 3233 4129 
Q 3647 3509 3647 2328 
Q 3647 1150 3233 529 
Q 2819 -91 2034 -91 
Q 1250 -91 836 529 
Q 422 1150 422 2328 
Q 422 3509 836 4129 
Q 1250 4750 2034 4750 
z
" transform="scale(0.015625)"/>
        <path id="DejaVuSans-34" d="M 2419 4116 
L 825 1625 
L 2419 1625 
L 2419 4116 
z
M 2253 4666 
L 3047 4666 
L 3047 1625 
L 3713 1625 
L 3713 1100 
L 3047 1100 
L 3047 0 
L 2419 0 
L 2419 1100 
L 313 1100 
L 313 1709 
L 2253 4666 
z
" transform="scale(0.015625)"/>
        <path id="DejaVuSans-2d" d="M 313 2009 
L 1997 2009 
L 1997 1497 
L 313 1497 
L 313 2009 
z
" transform="scale(0.015625)"/>
        <path id="DejaVuSans-31" d="M 794 531 
L 1825 531 
L 1825 4091 
L 703 3866 
L 703 4441 
L 1819 4666 
L 2450 4666 
L 2450 531 
L 3481 531 
L 3481 0 
L 794 0 
L 794 531 
z
" transform="scale(0.015625)"/>
       </defs>
       <use xlink:href="#DejaVuSans-32"/>
       <use xlink:href="#DejaVuSans-30" x="63.623047"/>
       <use xlink:href="#DejaVuSans-32" x="127.246094"/>
       <use xlink:href="#DejaVuSans-34" x="190.869141"/>
       <use xlink:href="#DejaVuSans-2d" x="254.492188"/>
       <use xlink:href="#DejaVuSans-30" x="290.576172"/>
       <use xlink:href="#DejaVuSans-31" x="354.199219"/>
       <use xlink:href="#DejaVuSans-2d" x="417.822266"/>
       <use xlink:href="#DejaVuSans-30" x="453.90625"/>
       <use xlink:href="#DejaVuSans-31" x="517.529297"/>
      </g>
     </g>
    </g>
    <g id="xtick_2">
     <g id="line2d_2">
      <g>
       <use xlink:href="#m1b7a7c3a50" x="356.747107" y="512.64" style="stroke: #000000; stroke-width: 0.8"/>
      </g>
     </g>
     <g id="text_2">
      <!-- 2024-01-15 -->
      <g transform="translate(327.689295 527.238438) scale(0.1 -0.1)">
       <defs>
        <path id="DejaVuSans-35" d="M 691 4666 
L 3169 4666 
L 3169 4134 
L 1269 4134 
L 1269 2991 
Q 1406 3038 1543 3061 
Q 1681 3084 1819 3084 
Q 2600 3084 3056 2656 
Q 3513 2228 3513 1497 
Q 3513 744 3044 326 
Q 2575 -91 1722 -91 
Q 1428 -91 1123 -41 
Q 819 9 494 109 
L 494 744 
Q 775 591 1075 516 
Q 1375 441 1709 441 
Q 2250 441 2565 725 
Q 2881 1009 2881 1497 
Q 2881 1984 2565 2268 
Q 2250 2553 1709 2553 
Q 1456 2553 1204 2497 
Q 953 2441 691 2322 
L 691 4666 
z
" transform="scale(0.015625)"/>
       </defs>
       <use xlink:href="#DejaVuSans-32"/>
       <use xlink:href="#DejaVuSans-30" x="63.623047"/>
       <use xlink:href="#DejaVuSans-32" x="127.246094"/>
       <use xlink:href="#DejaVuSans-34" x="190.869141"/>
       <use xlink:href="#DejaVuSans-2d" x="254.492188"/>
       <use xlink:href="#DejaVuSans-30" x="290.576172"/>
       <use xlink:href="#DejaVuSans-31" x="354.199219"/>
       <use xlink:href="#DejaVuSans-2d" x="417.822266"/>
       <use xlink:href="#DejaVuSans-31" x="453.90625"/>
       <use xlink:href="#DejaVuSans-35" x="517.529297"/>
      </g>
     </g>
    </g>
    <g id="xtick_3">
     <g id="line2d_3">
      <g>
       <use xlink:href="#m1b7a7c3a50" x="565.804959" y="512.64" style="stroke: #000000; stroke-width: 0.8"/>
      </g>
     </g>
     <g id="text_3">
      <!-- 2024-02-01 -->
      <g transform="translate(536.747146 527.238438) scale(0.1 -0.1)">
       <use xlink:href="#DejaVuSans-32"/>
       <use xlink:href="#DejaVuSans-30" x="63.623047"/>
       <use xlink:href="#DejaVuSans-32" x="127.246094"/>
       <use xlink:href="#DejaVuSans-34" x="190.869141"/>
       <use xlink:href="#DejaVuSans-2d" x="254.492188"/>
       <use xlink:href="#DejaVuSans-30" x="290.576172"/>
       <use xlink:href="#DejaVuSans-32" x="354.199219"/>
       <use xlink:href="#DejaVuSans-2d" x="417.822266"/>
       <use xlink:href="#DejaVuSans-30" x="453.90625"/>
       <use xlink:href="#DejaVuSans-31" x="517.529297"/>
      </g>
     </g>
    </g>
    <g id="xtick_4">
     <g id="line2d_4">
      <g>
       <use xlink:href="#m1b7a7c3a50" x="737.970248" y="512.64" style="stroke: #000000; stroke-width: 0.8"/>
      </g>
     </g>
     <g id="text_4">
      <!-- 2024-02-15 -->
      <g transform="translate(708.912435 527.238438) scale(0.1 -0.1)">
       <use xlink:href="#DejaVuSans-32"/>
       <use xlink:href="#DejaVuSans-30" x="63.623047"/>
       <use xlink:href="#DejaVuSans-32" x="127.246094"/>
       <use xlink:href="#DejaVuSans-34" x="190.869141"/>
       <use xlink:href="#DejaVuSans-2d" x="254.492188"/>
       <use xlink:href="#DejaVuSans-30" x="290.576172"/>
       <use xlink:href="#DejaVuSans-32" x="354.199219"/>
       <use xlink:href="#DejaVuSans-2d" x="417.822266"/>
       <use xlink:href="#DejaVuSans-31" x="453.90625"/>
       <use xlink:href="#DejaVuSans-35" x="517.529297"/>
      </g>
     </g>
    </g>
    <g id="xtick_5">
     <g id="line2d_5">
      <g>
       <use xlink:href="#m1b7a7c3a50" x="922.433058" y="512.64" style="stroke: #000000; stroke-width: 0.8"/>
      </g>
     </g>
     <g id="text_5">
      <!-- 2024-03-01 -->
      <g transform="translate(893.375245 527.238438) scale(0.1 -0.1)">
       <defs>
        <path id="DejaVuSans-33" d="M 2597 2516 
Q 3050 2419 3304 2112 
Q 3559 1806 3559 1356 
Q 3559 666 3084 287 
Q 2609 -91 1734 -91 
Q 1441 -91 1130 -33 
Q 819 25 488 141 
L 488 750 
Q 750 597 1062 519 
Q 1375 441 1716 441 
Q 2309 441 2620 675 
Q 2931 909 2931 1356 
Q 2931 1769 2642 2001 
Q 2353 2234 1838 2234 
L 1294 2234 
L 1294 2753 
L 1863 2753 
Q 2328 2753 2575 2939 
Q 2822 3125 2822 3475 
Q 2822 3834 2567 4026 
Q 2313 4219 1838 4219 
Q 1578 4219 1281 4162 
Q 984 4106 628 3988 
L 628 4550 
Q 988 4650 1302 4700 
Q 1616 4750 1894 4750 
Q 2613 4750 3031 4423 
Q 3450 4097 3450 3541 
Q 3450 3153 3228 2886 
Q 3006 2619 2597 2516 
z
" transform="scale(0.015625)"/>
       </defs>
       <use xlink:href="#DejaVuSans-32"/>
       <use xlink:href="#DejaVuSans-30" x="63.623047"/>
       <use xlink:href="#DejaVuSans-32" x="127.246094"/>
       <use xlink:href="#DejaVuSans-34" x="190.869141"/>
       <use xlink:href="#DejaVuSans-2d" x="254.492188"/>
       <use xlink:href="#DejaVuSans-30" x="290.576172"/>
       <use xlink:href="#DejaVuSans-33" x="354.199219"/>
       <use xlink:href="#DejaVuSans-2d" x="417.822266"/>
       <use xlink:href="#DejaVuSans-30" x="453.90625"/>
       <use xlink:href="#DejaVuSans-31" x="517.529297"/>
      </g>
     </g>
    </g>
   </g>
   <g id="matplotlib.axis_2">
    <g id="ytick_1">
     <g id="line2d_6">
      <defs>
       <path id="maea6b3d6da" d="M 0 0 
L -3.5 0 
" style="stroke: #000000; stroke-width: 0.8"/>
      </defs>
      <g>
       <use xlink:href="#maea6b3d6da" x="144" y="489.041194" style="stroke: #000000; stroke-width: 0.8"/>
      </g>
     </g>
     <g id="text_6">
      <!-- 6300 -->
      <g transform="translate(111.55 492.840413) scale(0.1 -0.1)">
       <defs>
        <path id="DejaVuSans-36" d="M 2113 2584 
Q 1688 2584 1439 2293 
Q 1191 2003 1191 1497 
Q 1191 994 1439 701 
Q 1688 409 2113 409 
Q 2538 409 2786 701 
Q 3034 994 3034 1497 
Q 3034 2003 2786 2293 
Q 2538 2584 2113 2584 
z
M 3366 4563 
L 3366 3988 
Q 3128 4100 2886 4159 
Q 2644 4219 2406 4219 
Q 1781 4219 1451 3797 
Q 1122 3375 1075 2522 
Q 1259 2794 1537 2939 
Q 1816 3084 2150 3084 
Q 2853 3084 3261 2657 
Q 3669 2231 3669 1497 
Q 3669 778 3244 343 
Q 2819 -91 2113 -91 
Q 1303 -91 875 529 
Q 447 1150 447 2328 
Q 447 3434 972 4092 
Q 1497 4750 2381 4750 
Q 2619 4750 2861 4703 
Q 3103 4656 3366 4563 
z
" transform="scale(0.015625)"/>
       </defs>
       <use xlink:href="#DejaVuSans-36"/>
       <use xlink:href="#DejaVuSans-33" x="63.623047"/>
       <use xlink:href="#DejaVuSans-30" x="127.246094"/>
       <use xlink:href="#DejaVuSans-30" x="190.869141"/>
      </g>
     </g>
    </g>
    <g id="ytick_2">
     <g id="line2d_7">
      <g>
       <use xlink:href="#maea6b3d6da" x="144" y="403.071045" style="stroke: #000000; stroke-width: 0.8"/>
      </g>
     </g>
     <g id="text_7">
      <!-- 6400 -->
      <g transform="translate(111.55 406.870264) scale(0.1 -0.1)">
       <use xlink:href="#DejaVuSans-36"/>
       <use xlink:href="#DejaVuSans-34" x="63.623047"/>
       <use xlink:href="#DejaVuSans-30" x="127.246094"/>
       <use xlink:href="#DejaVuSans-30" x="190.869141"/>
      </g>
     </g>
    </g>
    <g id="ytick_3">
     <g id="line2d_8">
      <g>
       <use xlink:href="#maea6b3d6da" x="144" y="317.100896" style="stroke: #000000; stroke-width: 0.8"/>
      </g>
     </g>
     <g id="text_8">
      <!-- 6500 -->
      <g transform="translate(111.55 320.900114) scale(0.1 -0.1)">
       <use xlink:href="#DejaVuSans-36"/>
       <use xlink:href="#DejaVuSans-35" x="63.623047"/>
       <use xlink:href="#DejaVuSans-30" x="127.246094"/>
       <use xlink:href="#DejaVuSans-30" x="190.869141"/>
      </g>
     </g>
    </g>
    <g id="ytick_4">
     <g id="line2d_9">
      <g>
       <use xlink:href="#maea6b3d6da" x="144" y="231.130746" style="stroke: #000000; stroke-width: 0.8"/>
      </g>
     </g>
     <g id="text_9">
      <!-- 6600 -->
      <g transform="translate(111.55 234.929965) scale(0.1 -0.1)">
       <use xlink:href="#DejaVuSans-36"/>
       <use xlink:href="#DejaVuSans-36" x="63.623047"/>
       <use xlink:href="#DejaVuSans-30" x="127.246094"/>
       <use xlink:href="#DejaVuSans-30" x="190.869141"/>
      </g>
     </g>
    </g>
    <g id="ytick_5">
     <g id="line2d_10">
      <g>
       <use xlink:href="#maea6b3d6da" x="144" y="145.160597" style="stroke: #000000; stroke-width: 0.8"/>
      </g>
     </g>
     <g id="text_10">
      <!-- 6700 -->
      <g transform="translate(111.55 148.959816) scale(0.1 -0.1)">
       <defs>
        <path id="DejaVuSans-37" d="M 525 4666 
L 3525 4666 
L 3525 4397 
L 1831 0 
L 1172 0 
L 2766 4134 
L 525 4134 
L 525 4666 
z
" transform="scale(0.015625)"/>
       </defs>
       <use xlink:href="#DejaVuSans-36"/>
       <use xlink:href="#DejaVuSans-37" x="63.623047"/>
       <use xlink:href="#DejaVuSans-30" x="127.246094"/>
       <use xlink:href="#DejaVuSans-30" x="190.869141"/>
      </g>
     </g>
    </g>
   </g>
   <g id="line2d_11">
    <path d="M 184.581818 492.48 
L 196.879339 475.28597 
L 209.17686 452.933731 
L 221.47438 452.07403 
L 233.771901 443.477015 
L 258.366942 439.178507 
L 270.664463 435.739701 
L 282.961983 433.160597 
L 295.259504 429.721791 
L 307.557025 424.563582 
L 319.854545 410.808358 
L 332.152066 408.229254 
L 344.449587 405.650149 
L 356.747107 392.754627 
L 369.044628 390.175522 
L 381.342149 379.859104 
L 393.639669 375.560597 
L 405.93719 370.402388 
L 418.234711 367.823284 
L 430.532231 365.244179 
L 442.829752 360.945672 
L 455.127273 356.647164 
L 467.424793 353.208358 
L 479.722314 351.488955 
L 492.019835 345.471045 
L 504.317355 343.751642 
L 528.912397 335.154627 
L 541.209917 334.294925 
L 553.507438 329.136716 
L 565.804959 316.241194 
L 578.102479 303.345672 
L 590.4 300.766567 
L 614.995041 297.327761 
L 627.292562 282.712836 
L 639.590083 281.853134 
L 651.887603 278.414328 
L 664.185124 275.835224 
L 676.482645 273.256119 
L 688.780165 257.781493 
L 701.077686 255.202388 
L 713.375207 251.763582 
L 725.672727 248.324776 
L 737.970248 243.166567 
L 750.267769 225.972537 
L 762.565289 221.67403 
L 774.86281 219.094925 
L 787.160331 210.49791 
L 799.457851 207.059104 
L 811.755372 206.199403 
L 824.052893 183.847164 
L 836.350413 179.548657 
L 848.647934 171.811343 
L 860.945455 170.09194 
L 873.242975 167.512836 
L 885.540496 154.617313 
L 897.838017 152.89791 
L 910.135537 149.459104 
L 922.433058 124.527761 
L 934.730579 122.808358 
L 947.028099 121.088955 
L 959.32562 112.49194 
L 971.62314 109.912836 
L 983.920661 90.139701 
L 996.218182 89.28 
" clip-path="url(#p7a4d64ea80)" style="fill: none; stroke: #1f77b4; stroke-width: 1.5; stroke-linecap: square"/>
   </g>
   <g id="patch_3">
    <path d="M 144 512.64 
L 144 69.12 
" style="fill: none; stroke: #000000; stroke-width: 0.8; stroke-linejoin: miter; stroke-linecap: square"/>
   </g>
   <g id="patch_4">
    <path d="M 1036.8 512.64 
L 1036.8 69.12 
" style="fill: none; stroke: #000000; stroke-width: 0.8; stroke-linejoin: miter; stroke-linecap: square"/>
   </g>
   <g id="patch_5">
    <path d="M 144 512.64 
L 1036.8 512.64 
" style="fill: none; stroke: #000000; stroke-width: 0.8; stroke-linejoin: miter; stroke-linecap: square"/>
   </g>
   <g id="patch_6">
    <path d="M 144 69.12 
L 1036.8 69.12 
" style="fill: none; stroke: #000000; stroke-width: 0.8; stroke-linejoin: miter; stroke-linecap: square"/>
   </g>
   <g id="text_11">
    <!-- Number of AEDs in the OpenStreetMap database in Poland from 2024-01-01, day by day. As at: 2024-03-07 -->
    <g transform="translate(144 63.12) scale(0.14 -0.14)">
     <defs>
      <path id="DejaVuSans-4e" d="M 628 4666 
L 1478 4666 
L 3547 763 
L 3547 4666 
L 4159 4666 
L 4159 0 
L 3309 0 
L 1241 3903 
L 1241 0 
L 628 0 
L 628 4666 
z
" transform="scale(0.015625)"/>
      <path id="DejaVuSans-75" d="M 544 1381 
L 544 3500 
L 1119 3500 
L 1119 1403 
Q 1119 906 1312 657 
Q 1506 409 1894 409 
Q 2359 409 2629 706 
Q 2900 1003 2900 1516 
L 2900 3500 
L 3475 3500 
L 3475 0 
L 2900 0 
L 2900 538 
Q 2691 219 2414 64 
Q 2138 -91 1772 -91 
Q 1169 -91 856 284 
Q 544 659 544 1381 
z
M 1991 3584 
L 1991 3584 
z
" transform="scale(0.015625)"/>
      <path id="DejaVuSans-6d" d="M 3328 2828 
Q 3544 3216 3844 3400 
Q 4144 3584 4550 3584 
Q 5097 3584 5394 3201 
Q 5691 2819 5691 2113 
L 5691 0 
L 5113 0 
L 5113 2094 
Q 5113 2597 4934 2840 
Q 4756 3084 4391 3084 
Q 3944 3084 3684 2787 
Q 3425 2491 3425 1978 
L 3425 0 
L 2847 0 
L 2847 2094 
Q 2847 2600 2669 2842 
Q 2491 3084 2119 3084 
Q 1678 3084 1418 2786 
Q 1159 2488 1159 1978 
L 1159 0 
L 581 0 
L 581 3500 
L 1159 3500 
L 1159 2956 
Q 1356 3278 1631 3431 
Q 1906 3584 2284 3584 
Q 2666 3584 2933 3390 
Q 3200 3197 3328 2828 
z
" transform="scale(0.015625)"/>
      <path id="DejaVuSans-62" d="M 3116 1747 
Q 3116 2381 2855 2742 
Q 2594 3103 2138 3103 
Q 1681 3103 1420 2742 
Q 1159 2381 1159 1747 
Q 1159 1113 1420 752 
Q 1681 391 2138 391 
Q 2594 391 2855 752 
Q 3116 1113 3116 1747 
z
M 1159 2969 
Q 1341 3281 1617 3432 
Q 1894 3584 2278 3584 
Q 2916 3584 3314 3078 
Q 3713 2572 3713 1747 
Q 3713 922 3314 415 
Q 2916 -91 2278 -91 
Q 1894 -91 1617 61 
Q 1341 213 1159 525 
L 1159 0 
L 581 0 
L 581 4863 
L 1159 4863 
L 1159 2969 
z
" transform="scale(0.015625)"/>
      <path id="DejaVuSans-65" d="M 3597 1894 
L 3597 1613 
L 953 1613 
Q 991 1019 1311 708 
Q 1631 397 2203 397 
Q 2534 397 2845 478 
Q 3156 559 3463 722 
L 3463 178 
Q 3153 47 2828 -22 
Q 2503 -91 2169 -91 
Q 1331 -91 842 396 
Q 353 884 353 1716 
Q 353 2575 817 3079 
Q 1281 3584 2069 3584 
Q 2775 3584 3186 3129 
Q 3597 2675 3597 1894 
z
M 3022 2063 
Q 3016 2534 2758 2815 
Q 2500 3097 2075 3097 
Q 1594 3097 1305 2825 
Q 1016 2553 972 2059 
L 3022 2063 
z
" transform="scale(0.015625)"/>
      <path id="DejaVuSans-72" d="M 2631 2963 
Q 2534 3019 2420 3045 
Q 2306 3072 2169 3072 
Q 1681 3072 1420 2755 
Q 1159 2438 1159 1844 
L 1159 0 
L 581 0 
L 581 3500 
L 1159 3500 
L 1159 2956 
Q 1341 3275 1631 3429 
Q 1922 3584 2338 3584 
Q 2397 3584 2469 3576 
Q 2541 3569 2628 3553 
L 2631 2963 
z
" transform="scale(0.015625)"/>
      <path id="DejaVuSans-20" transform="scale(0.015625)"/>
      <path id="DejaVuSans-6f" d="M 1959 3097 
Q 1497 3097 1228 2736 
Q 959 2375 959 1747 
Q 959 1119 1226 758 
Q 1494 397 1959 397 
Q 2419 397 2687 759 
Q 2956 1122 2956 1747 
Q 2956 2369 2687 2733 
Q 2419 3097 1959 3097 
z
M 1959 3584 
Q 2709 3584 3137 3096 
Q 3566 2609 3566 1747 
Q 3566 888 3137 398 
Q 2709 -91 1959 -91 
Q 1206 -91 779 398 
Q 353 888 353 1747 
Q 353 2609 779 3096 
Q 1206 3584 1959 3584 
z
" transform="scale(0.015625)"/>
      <path id="DejaVuSans-66" d="M 2375 4863 
L 2375 4384 
L 1825 4384 
Q 1516 4384 1395 4259 
Q 1275 4134 1275 3809 
L 1275 3500 
L 2222 3500 
L 2222 3053 
L 1275 3053 
L 1275 0 
L 697 0 
L 697 3053 
L 147 3053 
L 147 3500 
L 697 3500 
L 697 3744 
Q 697 4328 969 4595 
Q 1241 4863 1831 4863 
L 2375 4863 
z
" transform="scale(0.015625)"/>
      <path id="DejaVuSans-41" d="M 2188 4044 
L 1331 1722 
L 3047 1722 
L 2188 4044 
z
M 1831 4666 
L 2547 4666 
L 4325 0 
L 3669 0 
L 3244 1197 
L 1141 1197 
L 716 0 
L 50 0 
L 1831 4666 
z
" transform="scale(0.015625)"/>
      <path id="DejaVuSans-45" d="M 628 4666 
L 3578 4666 
L 3578 4134 
L 1259 4134 
L 1259 2753 
L 3481 2753 
L 3481 2222 
L 1259 2222 
L 1259 531 
L 3634 531 
L 3634 0 
L 628 0 
L 628 4666 
z
" transform="scale(0.015625)"/>
      <path id="DejaVuSans-44" d="M 1259 4147 
L 1259 519 
L 2022 519 
Q 2988 519 3436 956 
Q 3884 1394 3884 2338 
Q 3884 3275 3436 3711 
Q 2988 4147 2022 4147 
L 1259 4147 
z
M 628 4666 
L 1925 4666 
Q 3281 4666 3915 4102 
Q 4550 3538 4550 2338 
Q 4550 1131 3912 565 
Q 3275 0 1925 0 
L 628 0 
L 628 4666 
z
" transform="scale(0.015625)"/>
      <path id="DejaVuSans-73" d="M 2834 3397 
L 2834 2853 
Q 2591 2978 2328 3040 
Q 2066 3103 1784 3103 
Q 1356 3103 1142 2972 
Q 928 2841 928 2578 
Q 928 2378 1081 2264 
Q 1234 2150 1697 2047 
L 1894 2003 
Q 2506 1872 2764 1633 
Q 3022 1394 3022 966 
Q 3022 478 2636 193 
Q 2250 -91 1575 -91 
Q 1294 -91 989 -36 
Q 684 19 347 128 
L 347 722 
Q 666 556 975 473 
Q 1284 391 1588 391 
Q 1994 391 2212 530 
Q 2431 669 2431 922 
Q 2431 1156 2273 1281 
Q 2116 1406 1581 1522 
L 1381 1569 
Q 847 1681 609 1914 
Q 372 2147 372 2553 
Q 372 3047 722 3315 
Q 1072 3584 1716 3584 
Q 2034 3584 2315 3537 
Q 2597 3491 2834 3397 
z
" transform="scale(0.015625)"/>
      <path id="DejaVuSans-69" d="M 603 3500 
L 1178 3500 
L 1178 0 
L 603 0 
L 603 3500 
z
M 603 4863 
L 1178 4863 
L 1178 4134 
L 603 4134 
L 603 4863 
z
" transform="scale(0.015625)"/>
      <path id="DejaVuSans-6e" d="M 3513 2113 
L 3513 0 
L 2938 0 
L 2938 2094 
Q 2938 2591 2744 2837 
Q 2550 3084 2163 3084 
Q 1697 3084 1428 2787 
Q 1159 2491 1159 1978 
L 1159 0 
L 581 0 
L 581 3500 
L 1159 3500 
L 1159 2956 
Q 1366 3272 1645 3428 
Q 1925 3584 2291 3584 
Q 2894 3584 3203 3211 
Q 3513 2838 3513 2113 
z
" transform="scale(0.015625)"/>
      <path id="DejaVuSans-74" d="M 1172 4494 
L 1172 3500 
L 2356 3500 
L 2356 3053 
L 1172 3053 
L 1172 1153 
Q 1172 725 1289 603 
Q 1406 481 1766 481 
L 2356 481 
L 2356 0 
L 1766 0 
Q 1100 0 847 248 
Q 594 497 594 1153 
L 594 3053 
L 172 3053 
L 172 3500 
L 594 3500 
L 594 4494 
L 1172 4494 
z
" transform="scale(0.015625)"/>
      <path id="DejaVuSans-68" d="M 3513 2113 
L 3513 0 
L 2938 0 
L 2938 2094 
Q 2938 2591 2744 2837 
Q 2550 3084 2163 3084 
Q 1697 3084 1428 2787 
Q 1159 2491 1159 1978 
L 1159 0 
L 581 0 
L 581 4863 
L 1159 4863 
L 1159 2956 
Q 1366 3272 1645 3428 
Q 1925 3584 2291 3584 
Q 2894 3584 3203 3211 
Q 3513 2838 3513 2113 
z
" transform="scale(0.015625)"/>
      <path id="DejaVuSans-4f" d="M 2522 4238 
Q 1834 4238 1429 3725 
Q 1025 3213 1025 2328 
Q 1025 1447 1429 934 
Q 1834 422 2522 422 
Q 3209 422 3611 934 
Q 4013 1447 4013 2328 
Q 4013 3213 3611 3725 
Q 3209 4238 2522 4238 
z
M 2522 4750 
Q 3503 4750 4090 4092 
Q 4678 3434 4678 2328 
Q 4678 1225 4090 567 
Q 3503 -91 2522 -91 
Q 1538 -91 948 565 
Q 359 1222 359 2328 
Q 359 3434 948 4092 
Q 1538 4750 2522 4750 
z
" transform="scale(0.015625)"/>
      <path id="DejaVuSans-70" d="M 1159 525 
L 1159 -1331 
L 581 -1331 
L 581 3500 
L 1159 3500 
L 1159 2969 
Q 1341 3281 1617 3432 
Q 1894 3584 2278 3584 
Q 2916 3584 3314 3078 
Q 3713 2572 3713 1747 
Q 3713 922 3314 415 
Q 2916 -91 2278 -91 
Q 1894 -91 1617 61 
Q 1341 213 1159 525 
z
M 3116 1747 
Q 3116 2381 2855 2742 
Q 2594 3103 2138 3103 
Q 1681 3103 1420 2742 
Q 1159 2381 1159 1747 
Q 1159 1113 1420 752 
Q 1681 391 2138 391 
Q 2594 391 2855 752 
Q 3116 1113 3116 1747 
z
" transform="scale(0.015625)"/>
      <path id="DejaVuSans-53" d="M 3425 4513 
L 3425 3897 
Q 3066 4069 2747 4153 
Q 2428 4238 2131 4238 
Q 1616 4238 1336 4038 
Q 1056 3838 1056 3469 
Q 1056 3159 1242 3001 
Q 1428 2844 1947 2747 
L 2328 2669 
Q 3034 2534 3370 2195 
Q 3706 1856 3706 1288 
Q 3706 609 3251 259 
Q 2797 -91 1919 -91 
Q 1588 -91 1214 -16 
Q 841 59 441 206 
L 441 856 
Q 825 641 1194 531 
Q 1563 422 1919 422 
Q 2459 422 2753 634 
Q 3047 847 3047 1241 
Q 3047 1584 2836 1778 
Q 2625 1972 2144 2069 
L 1759 2144 
Q 1053 2284 737 2584 
Q 422 2884 422 3419 
Q 422 4038 858 4394 
Q 1294 4750 2059 4750 
Q 2388 4750 2728 4690 
Q 3069 4631 3425 4513 
z
" transform="scale(0.015625)"/>
      <path id="DejaVuSans-4d" d="M 628 4666 
L 1569 4666 
L 2759 1491 
L 3956 4666 
L 4897 4666 
L 4897 0 
L 4281 0 
L 4281 4097 
L 3078 897 
L 2444 897 
L 1241 4097 
L 1241 0 
L 628 0 
L 628 4666 
z
" transform="scale(0.015625)"/>
      <path id="DejaVuSans-61" d="M 2194 1759 
Q 1497 1759 1228 1600 
Q 959 1441 959 1056 
Q 959 750 1161 570 
Q 1363 391 1709 391 
Q 2188 391 2477 730 
Q 2766 1069 2766 1631 
L 2766 1759 
L 2194 1759 
z
M 3341 1997 
L 3341 0 
L 2766 0 
L 2766 531 
Q 2569 213 2275 61 
Q 1981 -91 1556 -91 
Q 1019 -91 701 211 
Q 384 513 384 1019 
Q 384 1609 779 1909 
Q 1175 2209 1959 2209 
L 2766 2209 
L 2766 2266 
Q 2766 2663 2505 2880 
Q 2244 3097 1772 3097 
Q 1472 3097 1187 3025 
Q 903 2953 641 2809 
L 641 3341 
Q 956 3463 1253 3523 
Q 1550 3584 1831 3584 
Q 2591 3584 2966 3190 
Q 3341 2797 3341 1997 
z
" transform="scale(0.015625)"/>
      <path id="DejaVuSans-64" d="M 2906 2969 
L 2906 4863 
L 3481 4863 
L 3481 0 
L 2906 0 
L 2906 525 
Q 2725 213 2448 61 
Q 2172 -91 1784 -91 
Q 1150 -91 751 415 
Q 353 922 353 1747 
Q 353 2572 751 3078 
Q 1150 3584 1784 3584 
Q 2172 3584 2448 3432 
Q 2725 3281 2906 2969 
z
M 947 1747 
Q 947 1113 1208 752 
Q 1469 391 1925 391 
Q 2381 391 2643 752 
Q 2906 1113 2906 1747 
Q 2906 2381 2643 2742 
Q 2381 3103 1925 3103 
Q 1469 3103 1208 2742 
Q 947 2381 947 1747 
z
" transform="scale(0.015625)"/>
      <path id="DejaVuSans-50" d="M 1259 4147 
L 1259 2394 
L 2053 2394 
Q 2494 2394 2734 2622 
Q 2975 2850 2975 3272 
Q 2975 3691 2734 3919 
Q 2494 4147 2053 4147 
L 1259 4147 
z
M 628 4666 
L 2053 4666 
Q 2838 4666 3239 4311 
Q 3641 3956 3641 3272 
Q 3641 2581 3239 2228 
Q 2838 1875 2053 1875 
L 1259 1875 
L 1259 0 
L 628 0 
L 628 4666 
z
" transform="scale(0.015625)"/>
      <path id="DejaVuSans-6c" d="M 603 4863 
L 1178 4863 
L 1178 0 
L 603 0 
L 603 4863 
z
" transform="scale(0.015625)"/>
      <path id="DejaVuSans-2c" d="M 750 794 
L 1409 794 
L 1409 256 
L 897 -744 
L 494 -744 
L 750 256 
L 750 794 
z
" transform="scale(0.015625)"/>
      <path id="DejaVuSans-79" d="M 2059 -325 
Q 1816 -950 1584 -1140 
Q 1353 -1331 966 -1331 
L 506 -1331 
L 506 -850 
L 844 -850 
Q 1081 -850 1212 -737 
Q 1344 -625 1503 -206 
L 1606 56 
L 191 3500 
L 800 3500 
L 1894 763 
L 2988 3500 
L 3597 3500 
L 2059 -325 
z
" transform="scale(0.015625)"/>
      <path id="DejaVuSans-2e" d="M 684 794 
L 1344 794 
L 1344 0 
L 684 0 
L 684 794 
z
" transform="scale(0.015625)"/>
      <path id="DejaVuSans-3a" d="M 750 794 
L 1409 794 
L 1409 0 
L 750 0 
L 750 794 
z
M 750 3309 
L 1409 3309 
L 1409 2516 
L 750 2516 
L 750 3309 
z
" transform="scale(0.015625)"/>
     </defs>
     <use xlink:href="#DejaVuSans-4e"/>
     <use xlink:href="#DejaVuSans-75" x="74.804688"/>
     <use xlink:href="#DejaVuSans-6d" x="138.183594"/>
     <use xlink:href="#DejaVuSans-62" x="235.595703"/>
     <use xlink:href="#DejaVuSans-65" x="299.072266"/>
     <use xlink:href="#DejaVuSans-72" x="360.595703"/>
     <use xlink:href="#DejaVuSans-20" x="401.708984"/>
     <use xlink:href="#DejaVuSans-6f" x="433.496094"/>
     <use xlink:href="#DejaVuSans-66" x="494.677734"/>
     <use xlink:href="#DejaVuSans-20" x="529.882812"/>
     <use xlink:href="#DejaVuSans-41" x="561.669922"/>
     <use xlink:href="#DejaVuSans-45" x="630.078125"/>
     <use xlink:href="#DejaVuSans-44" x="693.261719"/>
     <use xlink:href="#DejaVuSans-73" x="770.263672"/>
     <use xlink:href="#DejaVuSans-20" x="822.363281"/>
     <use xlink:href="#DejaVuSans-69" x="854.150391"/>
     <use xlink:href="#DejaVuSans-6e" x="881.933594"/>
     <use xlink:href="#DejaVuSans-20" x="945.3125"/>
     <use xlink:href="#DejaVuSans-74" x="977.099609"/>
     <use xlink:href="#DejaVuSans-68" x="1016.308594"/>
     <use xlink:href="#DejaVuSans-65" x="1079.6875"/>
     <use xlink:href="#DejaVuSans-20" x="1141.210938"/>
     <use xlink:href="#DejaVuSans-4f" x="1172.998047"/>
     <use xlink:href="#DejaVuSans-70" x="1251.708984"/>
     <use xlink:href="#DejaVuSans-65" x="1315.185547"/>
     <use xlink:href="#DejaVuSans-6e" x="1376.708984"/>
     <use xlink:href="#DejaVuSans-53" x="1440.087891"/>
     <use xlink:href="#DejaVuSans-74" x="1503.564453"/>
     <use xlink:href="#DejaVuSans-72" x="1542.773438"/>
     <use xlink:href="#DejaVuSans-65" x="1581.636719"/>
     <use xlink:href="#DejaVuSans-65" x="1643.160156"/>
     <use xlink:href="#DejaVuSans-74" x="1704.683594"/>
     <use xlink:href="#DejaVuSans-4d" x="1743.892578"/>
     <use xlink:href="#DejaVuSans-61" x="1830.171875"/>
     <use xlink:href="#DejaVuSans-70" x="1891.451172"/>
     <use xlink:href="#DejaVuSans-20" x="1954.927734"/>
     <use xlink:href="#DejaVuSans-64" x="1986.714844"/>
     <use xlink:href="#DejaVuSans-61" x="2050.191406"/>
     <use xlink:href="#DejaVuSans-74" x="2111.470703"/>
     <use xlink:href="#DejaVuSans-61" x="2150.679688"/>
     <use xlink:href="#DejaVuSans-62" x="2211.958984"/>
     <use xlink:href="#DejaVuSans-61" x="2275.435547"/>
     <use xlink:href="#DejaVuSans-73" x="2336.714844"/>
     <use xlink:href="#DejaVuSans-65" x="2388.814453"/>
     <use xlink:href="#DejaVuSans-20" x="2450.337891"/>
     <use xlink:href="#DejaVuSans-69" x="2482.125"/>
     <use xlink:href="#DejaVuSans-6e" x="2509.908203"/>
     <use xlink:href="#DejaVuSans-20" x="2573.287109"/>
     <use xlink:href="#DejaVuSans-50" x="2605.074219"/>
     <use xlink:href="#DejaVuSans-6f" x="2661.751953"/>
     <use xlink:href="#DejaVuSans-6c" x="2722.933594"/>
     <use xlink:href="#DejaVuSans-61" x="2750.716797"/>
     <use xlink:href="#DejaVuSans-6e" x="2811.996094"/>
     <use xlink:href="#DejaVuSans-64" x="2875.375"/>
     <use xlink:href="#DejaVuSans-20" x="2938.851562"/>
     <use xlink:href="#DejaVuSans-66" x="2970.638672"/>
     <use xlink:href="#DejaVuSans-72" x="3005.84375"/>
     <use xlink:href="#DejaVuSans-6f" x="3044.707031"/>
     <use xlink:href="#DejaVuSans-6d" x="3105.888672"/>
     <use xlink:href="#DejaVuSans-20" x="3203.300781"/>
     <use xlink:href="#DejaVuSans-32" x="3235.087891"/>
     <use xlink:href="#DejaVuSans-30" x="3298.710938"/>
     <use xlink:href="#DejaVuSans-32" x="3362.333984"/>
     <use xlink:href="#DejaVuSans-34" x="3425.957031"/>
     <use xlink:href="#DejaVuSans-2d" x="3489.580078"/>
     <use xlink:href="#DejaVuSans-30" x="3525.664062"/>
     <use xlink:href="#DejaVuSans-31" x="3589.287109"/>
     <use xlink:href="#DejaVuSans-2d" x="3652.910156"/>
     <use xlink:href="#DejaVuSans-30" x="3688.994141"/>
     <use xlink:href="#DejaVuSans-31" x="3752.617188"/>
     <use xlink:href="#DejaVuSans-2c" x="3816.240234"/>
     <use xlink:href="#DejaVuSans-20" x="3848.027344"/>
     <use xlink:href="#DejaVuSans-64" x="3879.814453"/>
     <use xlink:href="#DejaVuSans-61" x="3943.291016"/>
     <use xlink:href="#DejaVuSans-79" x="4004.570312"/>
     <use xlink:href="#DejaVuSans-20" x="4063.75"/>
     <use xlink:href="#DejaVuSans-62" x="4095.537109"/>
     <use xlink:href="#DejaVuSans-79" x="4159.013672"/>
     <use xlink:href="#DejaVuSans-20" x="4218.193359"/>
     <use xlink:href="#DejaVuSans-64" x="4249.980469"/>
     <use xlink:href="#DejaVuSans-61" x="4313.457031"/>
     <use xlink:href="#DejaVuSans-79" x="4374.736328"/>
     <use xlink:href="#DejaVuSans-2e" x="4419.666016"/>
     <use xlink:href="#DejaVuSans-20" x="4451.453125"/>
     <use xlink:href="#DejaVuSans-41" x="4483.240234"/>
     <use xlink:href="#DejaVuSans-73" x="4551.648438"/>
     <use xlink:href="#DejaVuSans-20" x="4603.748047"/>
     <use xlink:href="#DejaVuSans-61" x="4635.535156"/>
     <use xlink:href="#DejaVuSans-74" x="4696.814453"/>
     <use xlink:href="#DejaVuSans-3a" x="4736.023438"/>
     <use xlink:href="#DejaVuSans-20" x="4769.714844"/>
     <use xlink:href="#DejaVuSans-32" x="4801.501953"/>
     <use xlink:href="#DejaVuSans-30" x="4865.125"/>
     <use xlink:href="#DejaVuSans-32" x="4928.748047"/>
     <use xlink:href="#DejaVuSans-34" x="4992.371094"/>
     <use xlink:href="#DejaVuSans-2d" x="5055.994141"/>
     <use xlink:href="#DejaVuSans-30" x="5092.078125"/>
     <use xlink:href="#DejaVuSans-33" x="5155.701172"/>
     <use xlink:href="#DejaVuSans-2d" x="5219.324219"/>
     <use xlink:href="#DejaVuSans-30" x="5255.408203"/>
     <use xlink:href="#DejaVuSans-37" x="5319.03125"/>
    </g>
   </g>
  </g>
 </g>
 <defs>
  <clipPath id="p7a4d64ea80">
   <rect x="144" y="69.12" width="892.8" height="443.52"/>
  </clipPath>
 </defs>
</svg>
