<?xml version="1.0" encoding="utf-8" standalone="no"?>
<!DOCTYPE svg PUBLIC "-//W3C//DTD SVG 1.1//EN"
  "http://www.w3.org/Graphics/SVG/1.1/DTD/svg11.dtd">
<svg xmlns:xlink="http://www.w3.org/1999/xlink" width="1152pt" height="576pt" viewBox="0 0 1152 576" xmlns="http://www.w3.org/2000/svg" version="1.1">
 <metadata>
  <rdf:RDF xmlns:dc="http://purl.org/dc/elements/1.1/" xmlns:cc="http://creativecommons.org/ns#" xmlns:rdf="http://www.w3.org/1999/02/22-rdf-syntax-ns#">
   <cc:Work>
    <dc:type rdf:resource="http://purl.org/dc/dcmitype/StillImage"/>
    <dc:date>1980-01-01T00:00:00+00:00</dc:date>
    <dc:format>image/svg+xml</dc:format>
    <dc:creator>
     <cc:Agent>
      <dc:title>Matplotlib v3.9.1, https://matplotlib.org/</dc:title>
     </cc:Agent>
    </dc:creator>
   </cc:Work>
  </rdf:RDF>
 </metadata>
 <defs>
  <style type="text/css">*{stroke-linejoin: round; stroke-linecap: butt}</style>
 </defs>
 <g id="figure_1">
  <g id="patch_1">
   <path d="M 0 576 
L 1152 576 
L 1152 0 
L 0 0 
z
" style="fill: #ffffff"/>
  </g>
  <g id="axes_1">
   <g id="patch_2">
    <path d="M 144 512.64 
L 1036.8 512.64 
L 1036.8 69.12 
L 144 69.12 
z
" style="fill: #ffffff"/>
   </g>
   <g id="PathCollection_1">
    <path d="M 184.581818 496.352983 
C 185.608945 496.352983 186.594142 495.944901 187.320431 495.218613 
C 188.04672 494.492324 188.454802 493.507127 188.454802 492.48 
C 188.454802 491.452873 188.04672 490.467676 187.320431 489.741387 
C 186.594142 489.015099 185.608945 488.607017 184.581818 488.607017 
C 183.554691 488.607017 182.569494 489.015099 181.843205 489.741387 
C 181.116917 490.467676 180.708835 491.452873 180.708835 492.48 
C 180.708835 493.507127 181.116917 494.492324 181.843205 495.218613 
C 182.569494 495.944901 183.554691 496.352983 184.581818 496.352983 
z
" clip-path="url(#p79d06be498)" style="fill: #1f77b4; fill-opacity: 0.3; stroke: #1f77b4; stroke-opacity: 0.3"/>
    <path d="M 196.013316 494.865065 
C 197.742229 494.865065 199.400563 494.178161 200.623088 492.955635 
C 201.845614 491.733109 202.532519 490.074775 202.532519 488.345862 
C 202.532519 486.61695 201.845614 484.958616 200.623088 483.73609 
C 199.400563 482.513564 197.742229 481.82666 196.013316 481.82666 
C 194.284404 481.82666 192.62607 482.513564 191.403544 483.73609 
C 190.181018 484.958616 189.494114 486.61695 189.494114 488.345862 
C 189.494114 490.074775 190.181018 491.733109 191.403544 492.955635 
C 192.62607 494.178161 194.284404 494.865065 196.013316 494.865065 
z
" clip-path="url(#p79d06be498)" style="fill: #1f77b4; fill-opacity: 0.3; stroke: #1f77b4; stroke-opacity: 0.3"/>
    <path d="M 207.444814 489.903295 
C 209.663663 489.903295 211.791931 489.021737 213.360894 487.452775 
C 214.929857 485.883812 215.811415 483.755543 215.811415 481.536695 
C 215.811415 479.317846 214.929857 477.189578 213.360894 475.620615 
C 211.791931 474.051652 209.663663 473.170095 207.444814 473.170095 
C 205.225966 473.170095 203.097697 474.051652 201.528735 475.620615 
C 199.959772 477.189578 199.078214 479.317846 199.078214 481.536695 
C 199.078214 483.755543 199.959772 485.883812 201.528735 487.452775 
C 203.097697 489.021737 205.225966 489.903295 207.444814 489.903295 
z
" clip-path="url(#p79d06be498)" style="fill: #1f77b4; fill-opacity: 0.3; stroke: #1f77b4; stroke-opacity: 0.3"/>
    <path d="M 218.876312 484.105709 
C 220.267049 484.105709 221.601012 483.553163 222.584412 482.569764 
C 223.567811 481.586364 224.120357 480.252401 224.120357 478.861665 
C 224.120357 477.470928 223.567811 476.136965 222.584412 475.153565 
C 221.601012 474.170166 220.267049 473.61762 218.876312 473.61762 
C 217.485576 473.61762 216.151613 474.170166 215.168213 475.153565 
C 214.184814 476.136965 213.632268 477.470928 213.632268 478.861665 
C 213.632268 480.252401 214.184814 481.586364 215.168213 482.569764 
C 216.151613 483.553163 217.485576 484.105709 218.876312 484.105709 
z
" clip-path="url(#p79d06be498)" style="fill: #1f77b4; fill-opacity: 0.3; stroke: #1f77b4; stroke-opacity: 0.3"/>
    <path d="M 230.30781 481.181276 
C 231.245445 481.181276 232.144803 480.80875 232.80781 480.145742 
C 233.470818 479.482734 233.843344 478.583376 233.843344 477.645742 
C 233.843344 476.708107 233.470818 475.80875 232.80781 475.145742 
C 232.144803 474.482734 231.245445 474.110208 230.30781 474.110208 
C 229.370176 474.110208 228.470818 474.482734 227.80781 475.145742 
C 227.144803 475.80875 226.772277 476.708107 226.772277 477.645742 
C 226.772277 478.583376 227.144803 479.482734 227.80781 480.145742 
C 228.470818 480.80875 229.370176 481.181276 230.30781 481.181276 
z
" clip-path="url(#p79d06be498)" style="fill: #1f77b4; fill-opacity: 0.3; stroke: #1f77b4; stroke-opacity: 0.3"/>
    <path d="M 241.739309 480.030807 
C 243.468221 480.030807 245.126555 479.343902 246.349081 478.121377 
C 247.571607 476.898851 248.258511 475.240517 248.258511 473.511604 
C 248.258511 471.782692 247.571607 470.124358 246.349081 468.901832 
C 245.126555 467.679306 243.468221 466.992402 241.739309 466.992402 
C 240.010396 466.992402 238.352062 467.679306 237.129536 468.901832 
C 235.90701 470.124358 235.220106 471.782692 235.220106 473.511604 
C 235.220106 475.240517 235.90701 476.898851 237.129536 478.121377 
C 238.352062 479.343902 240.010396 480.030807 241.739309 480.030807 
z
" clip-path="url(#p79d06be498)" style="fill: #1f77b4; fill-opacity: 0.3; stroke: #1f77b4; stroke-opacity: 0.3"/>
    <path d="M 253.170807 475.98756 
C 254.794837 475.98756 256.352571 475.342326 257.500934 474.193963 
C 258.649297 473.0456 259.294531 471.487867 259.294531 469.863836 
C 259.294531 468.239805 258.649297 466.682072 257.500934 465.533709 
C 256.352571 464.385346 254.794837 463.740112 253.170807 463.740112 
C 251.546776 463.740112 249.989043 464.385346 248.84068 465.533709 
C 247.692317 466.682072 247.047082 468.239805 247.047082 469.863836 
C 247.047082 471.487867 247.692317 473.0456 248.84068 474.193963 
C 249.989043 475.342326 251.546776 475.98756 253.170807 475.98756 
z
" clip-path="url(#p79d06be498)" style="fill: #1f77b4; fill-opacity: 0.3; stroke: #1f77b4; stroke-opacity: 0.3"/>
    <path d="M 264.602305 470.253847 
C 267.220976 470.253847 269.732745 469.213438 271.584425 467.361758 
C 273.436105 465.510078 274.476514 462.998309 274.476514 460.379638 
C 274.476514 457.760967 273.436105 455.249198 271.584425 453.397518 
C 269.732745 451.545838 267.220976 450.505429 264.602305 450.505429 
C 261.983634 450.505429 259.471865 451.545838 257.620185 453.397518 
C 255.768505 455.249198 254.728096 457.760967 254.728096 460.379638 
C 254.728096 462.998309 255.768505 465.510078 257.620185 467.361758 
C 259.471865 469.213438 261.983634 470.253847 264.602305 470.253847 
z
" clip-path="url(#p79d06be498)" style="fill: #1f77b4; fill-opacity: 0.3; stroke: #1f77b4; stroke-opacity: 0.3"/>
    <path d="M 276.033803 462.587015 
C 277.909072 462.587015 279.707787 461.841962 281.033803 460.515947 
C 282.359818 459.189931 283.104871 457.391216 283.104871 455.515947 
C 283.104871 453.640678 282.359818 451.841962 281.033803 450.515947 
C 279.707787 449.189931 277.909072 448.444879 276.033803 448.444879 
C 274.158534 448.444879 272.359818 449.189931 271.033803 450.515947 
C 269.707787 451.841962 268.962735 453.640678 268.962735 455.515947 
C 268.962735 457.391216 269.707787 459.189931 271.033803 460.515947 
C 272.359818 461.841962 274.158534 462.587015 276.033803 462.587015 
z
" clip-path="url(#p79d06be498)" style="fill: #1f77b4; fill-opacity: 0.3; stroke: #1f77b4; stroke-opacity: 0.3"/>
    <path d="M 287.465301 458.070702 
C 288.72327 458.070702 289.929885 457.570906 290.819403 456.681388 
C 291.708921 455.79187 292.208717 454.585255 292.208717 453.327286 
C 292.208717 452.069317 291.708921 450.862702 290.819403 449.973184 
C 289.929885 449.083666 288.72327 448.583869 287.465301 448.583869 
C 286.207332 448.583869 285.000717 449.083666 284.111199 449.973184 
C 283.221681 450.862702 282.721884 452.069317 282.721884 453.327286 
C 282.721884 454.585255 283.221681 455.79187 284.111199 456.681388 
C 285.000717 457.570906 286.207332 458.070702 287.465301 458.070702 
z
" clip-path="url(#p79d06be498)" style="fill: #1f77b4; fill-opacity: 0.3; stroke: #1f77b4; stroke-opacity: 0.3"/>
    <path d="M 298.896799 455.076985 
C 299.489811 455.076985 300.058615 454.841379 300.477938 454.422056 
C 300.897261 454.002733 301.132867 453.433929 301.132867 452.840917 
C 301.132867 452.247905 300.897261 451.679101 300.477938 451.259778 
C 300.058615 450.840455 299.489811 450.604849 298.896799 450.604849 
C 298.303787 450.604849 297.734983 450.840455 297.31566 451.259778 
C 296.896337 451.679101 296.660731 452.247905 296.660731 452.840917 
C 296.660731 453.433929 296.896337 454.002733 297.31566 454.422056 
C 297.734983 454.841379 298.303787 455.076985 298.896799 455.076985 
z
" clip-path="url(#p79d06be498)" style="fill: #1f77b4; fill-opacity: 0.3; stroke: #1f77b4; stroke-opacity: 0.3"/>
    <path d="M 310.328297 453.230928 
C 312.946968 453.230928 315.458737 452.190519 317.310417 450.338839 
C 319.162097 448.487159 320.202506 445.97539 320.202506 443.356719 
C 320.202506 440.738048 319.162097 438.226279 317.310417 436.374599 
C 315.458737 434.522919 312.946968 433.48251 310.328297 433.48251 
C 307.709626 433.48251 305.197857 434.522919 303.346177 436.374599 
C 301.494497 438.226279 300.454088 440.738048 300.454088 443.356719 
C 300.454088 445.97539 301.494497 448.487159 303.346177 450.338839 
C 305.197857 452.190519 307.709626 453.230928 310.328297 453.230928 
z
" clip-path="url(#p79d06be498)" style="fill: #1f77b4; fill-opacity: 0.3; stroke: #1f77b4; stroke-opacity: 0.3"/>
    <path d="M 321.759795 445.182799 
C 323.85641 445.182799 325.867435 444.349805 327.349965 442.867275 
C 328.832495 441.384744 329.665489 439.37372 329.665489 437.277105 
C 329.665489 435.18049 328.832495 433.169465 327.349965 431.686935 
C 325.867435 430.204405 323.85641 429.371411 321.759795 429.371411 
C 319.663181 429.371411 317.652156 430.204405 316.169625 431.686935 
C 314.687095 433.169465 313.854101 435.18049 313.854101 437.277105 
C 313.854101 439.37372 314.687095 441.384744 316.169625 442.867275 
C 317.652156 444.349805 319.663181 445.182799 321.759795 445.182799 
z
" clip-path="url(#p79d06be498)" style="fill: #1f77b4; fill-opacity: 0.3; stroke: #1f77b4; stroke-opacity: 0.3"/>
    <path d="M 333.191293 439.816583 
C 334.703184 439.816583 336.153354 439.215902 337.222422 438.146835 
C 338.29149 437.077767 338.89217 435.627596 338.89217 434.115706 
C 338.89217 432.603815 338.29149 431.153645 337.222422 430.084577 
C 336.153354 429.015509 334.703184 428.414829 333.191293 428.414829 
C 331.679403 428.414829 330.229232 429.015509 329.160164 430.084577 
C 328.091096 431.153645 327.490416 432.603815 327.490416 434.115706 
C 327.490416 435.627596 328.091096 437.077767 329.160164 438.146835 
C 330.229232 439.215902 331.679403 439.816583 333.191293 439.816583 
z
" clip-path="url(#p79d06be498)" style="fill: #1f77b4; fill-opacity: 0.3; stroke: #1f77b4; stroke-opacity: 0.3"/>
    <path d="M 344.622791 435.278072 
C 346.99484 435.278072 349.270055 434.335647 350.947347 432.658355 
C 352.624638 430.981063 353.567063 428.705848 353.567063 426.3338 
C 353.567063 423.961751 352.624638 421.686536 350.947347 420.009244 
C 349.270055 418.331953 346.99484 417.389528 344.622791 417.389528 
C 342.250743 417.389528 339.975528 418.331953 338.298236 420.009244 
C 336.620944 421.686536 335.678519 423.961751 335.678519 426.3338 
C 335.678519 428.705848 336.620944 430.981063 338.298236 432.658355 
C 339.975528 434.335647 342.250743 435.278072 344.622791 435.278072 
z
" clip-path="url(#p79d06be498)" style="fill: #1f77b4; fill-opacity: 0.3; stroke: #1f77b4; stroke-opacity: 0.3"/>
    <path d="M 356.054289 426.245084 
C 358.803974 426.245084 361.441408 425.152623 363.385729 423.208303 
C 365.330049 421.263982 366.42251 418.626548 366.42251 415.876864 
C 366.42251 413.127179 365.330049 410.489745 363.385729 408.545425 
C 361.441408 406.601104 358.803974 405.508643 356.054289 405.508643 
C 353.304605 405.508643 350.667171 406.601104 348.72285 408.545425 
C 346.77853 410.489745 345.686069 413.127179 345.686069 415.876864 
C 345.686069 418.626548 346.77853 421.263982 348.72285 423.208303 
C 350.667171 425.152623 353.304605 426.245084 356.054289 426.245084 
z
" clip-path="url(#p79d06be498)" style="fill: #1f77b4; fill-opacity: 0.3; stroke: #1f77b4; stroke-opacity: 0.3"/>
    <path d="M 367.485787 418.066403 
C 368.324433 418.066403 369.128843 417.733206 369.721855 417.140193 
C 370.314868 416.547181 370.648065 415.742771 370.648065 414.904125 
C 370.648065 414.06548 370.314868 413.26107 369.721855 412.668057 
C 369.128843 412.075045 368.324433 411.741848 367.485787 411.741848 
C 366.647142 411.741848 365.842732 412.075045 365.249719 412.668057 
C 364.656707 413.26107 364.32351 414.06548 364.32351 414.904125 
C 364.32351 415.742771 364.656707 416.547181 365.249719 417.140193 
C 365.842732 417.733206 366.647142 418.066403 367.485787 418.066403 
z
" clip-path="url(#p79d06be498)" style="fill: #1f77b4; fill-opacity: 0.3; stroke: #1f77b4; stroke-opacity: 0.3"/>
    <path d="M 378.917286 417.47314 
C 380.308022 417.47314 381.641985 416.920594 382.625385 415.937195 
C 383.608784 414.953795 384.16133 413.619832 384.16133 412.229095 
C 384.16133 410.838359 383.608784 409.504395 382.625385 408.520996 
C 381.641985 407.537597 380.308022 406.985051 378.917286 406.985051 
C 377.526549 406.985051 376.192586 407.537597 375.209186 408.520996 
C 374.225787 409.504395 373.673241 410.838359 373.673241 412.229095 
C 373.673241 413.619832 374.225787 414.953795 375.209186 415.937195 
C 376.192586 416.920594 377.526549 417.47314 378.917286 417.47314 
z
" clip-path="url(#p79d06be498)" style="fill: #1f77b4; fill-opacity: 0.3; stroke: #1f77b4; stroke-opacity: 0.3"/>
    <path d="M 390.348784 413.878951 
C 392.527649 413.878951 394.617568 413.013278 396.158259 411.472587 
C 397.698949 409.931896 398.564622 407.841978 398.564622 405.663112 
C 398.564622 403.484246 397.698949 401.394328 396.158259 399.853637 
C 394.617568 398.312946 392.527649 397.447274 390.348784 397.447274 
C 388.169918 397.447274 386.079999 398.312946 384.539309 399.853637 
C 382.998618 401.394328 382.132945 403.484246 382.132945 405.663112 
C 382.132945 407.841978 382.998618 409.931896 384.539309 411.472587 
C 386.079999 413.013278 388.169918 413.878951 390.348784 413.878951 
z
" clip-path="url(#p79d06be498)" style="fill: #1f77b4; fill-opacity: 0.3; stroke: #1f77b4; stroke-opacity: 0.3"/>
    <path d="M 401.780282 408.222123 
C 403.232859 408.222123 404.626138 407.645008 405.653265 406.617881 
C 406.680392 405.590754 407.257507 404.197475 407.257507 402.744897 
C 407.257507 401.29232 406.680392 399.899041 405.653265 398.871914 
C 404.626138 397.844787 403.232859 397.267672 401.780282 397.267672 
C 400.327704 397.267672 398.934426 397.844787 397.907298 398.871914 
C 396.880171 399.899041 396.303056 401.29232 396.303056 402.744897 
C 396.303056 404.197475 396.880171 405.590754 397.907298 406.617881 
C 398.934426 407.645008 400.327704 408.222123 401.780282 408.222123 
z
" clip-path="url(#p79d06be498)" style="fill: #1f77b4; fill-opacity: 0.3; stroke: #1f77b4; stroke-opacity: 0.3"/>
    <path d="M 413.21178 401.766009 
C 416.176841 401.766009 419.020859 400.587978 421.117474 398.491364 
C 423.214089 396.394749 424.39212 393.55073 424.39212 390.585669 
C 424.39212 387.620609 423.214089 384.77659 421.117474 382.679975 
C 419.020859 380.583361 416.176841 379.40533 413.21178 379.40533 
C 410.246719 379.40533 407.4027 380.583361 405.306086 382.679975 
C 403.209471 384.77659 402.03144 387.620609 402.03144 390.585669 
C 402.03144 393.55073 403.209471 396.394749 405.306086 398.491364 
C 407.4027 400.587978 410.246719 401.766009 413.21178 401.766009 
z
" clip-path="url(#p79d06be498)" style="fill: #1f77b4; fill-opacity: 0.3; stroke: #1f77b4; stroke-opacity: 0.3"/>
    <path d="M 424.643278 392.235525 
C 426.822144 392.235525 428.912062 391.369852 430.452753 389.829161 
C 431.993444 388.288471 432.859116 386.198552 432.859116 384.019686 
C 432.859116 381.840821 431.993444 379.750902 430.452753 378.210211 
C 428.912062 376.669521 426.822144 375.803848 424.643278 375.803848 
C 422.464412 375.803848 420.374494 376.669521 418.833803 378.210211 
C 417.293112 379.750902 416.427439 381.840821 416.427439 384.019686 
C 416.427439 386.198552 417.293112 388.288471 418.833803 389.829161 
C 420.374494 391.369852 422.464412 392.235525 424.643278 392.235525 
z
" clip-path="url(#p79d06be498)" style="fill: #1f77b4; fill-opacity: 0.3; stroke: #1f77b4; stroke-opacity: 0.3"/>
    <path d="M 436.074776 385.929224 
C 438.12903 385.929224 440.099424 385.11306 441.552002 383.660483 
C 443.004579 382.207905 443.820743 380.237511 443.820743 378.183257 
C 443.820743 376.129003 443.004579 374.158609 441.552002 372.706031 
C 440.099424 371.253454 438.12903 370.43729 436.074776 370.43729 
C 434.020522 370.43729 432.050128 371.253454 430.59755 372.706031 
C 429.144973 374.158609 428.328809 376.129003 428.328809 378.183257 
C 428.328809 380.237511 429.144973 382.207905 430.59755 383.660483 
C 432.050128 385.11306 434.020522 385.929224 436.074776 385.929224 
z
" clip-path="url(#p79d06be498)" style="fill: #1f77b4; fill-opacity: 0.3; stroke: #1f77b4; stroke-opacity: 0.3"/>
    <path d="M 447.506274 379.645598 
C 449.764397 379.645598 451.930337 378.748436 453.527071 377.151702 
C 455.123805 375.554968 456.020967 373.389028 456.020967 371.130905 
C 456.020967 368.872782 455.123805 366.706842 453.527071 365.110107 
C 451.930337 363.513373 449.764397 362.616212 447.506274 362.616212 
C 445.248151 362.616212 443.082211 363.513373 441.485477 365.110107 
C 439.888743 366.706842 438.991581 368.872782 438.991581 371.130905 
C 438.991581 373.389028 439.888743 375.554968 441.485477 377.151702 
C 443.082211 378.748436 445.248151 379.645598 447.506274 379.645598 
z
" clip-path="url(#p79d06be498)" style="fill: #1f77b4; fill-opacity: 0.3; stroke: #1f77b4; stroke-opacity: 0.3"/>
    <path d="M 458.937772 373.320444 
C 459.776418 373.320444 460.580828 372.987247 461.17384 372.394234 
C 461.766852 371.801222 462.10005 370.996812 462.10005 370.158166 
C 462.10005 369.319521 461.766852 368.515111 461.17384 367.922098 
C 460.580828 367.329086 459.776418 366.995889 458.937772 366.995889 
C 458.099126 366.995889 457.294716 367.329086 456.701704 367.922098 
C 456.108692 368.515111 455.775494 369.319521 455.775494 370.158166 
C 455.775494 370.996812 456.108692 371.801222 456.701704 372.394234 
C 457.294716 372.987247 458.099126 373.320444 458.937772 373.320444 
z
" clip-path="url(#p79d06be498)" style="fill: #1f77b4; fill-opacity: 0.3; stroke: #1f77b4; stroke-opacity: 0.3"/>
    <path d="M 470.36927 372.347706 
C 471.207916 372.347706 472.012326 372.014508 472.605338 371.421496 
C 473.19835 370.828484 473.531548 370.024074 473.531548 369.185428 
C 473.531548 368.346782 473.19835 367.542372 472.605338 366.94936 
C 472.012326 366.356348 471.207916 366.023151 470.36927 366.023151 
C 469.530624 366.023151 468.726214 366.356348 468.133202 366.94936 
C 467.54019 367.542372 467.206993 368.346782 467.206993 369.185428 
C 467.206993 370.024074 467.54019 370.828484 468.133202 371.421496 
C 468.726214 372.014508 469.530624 372.347706 470.36927 372.347706 
z
" clip-path="url(#p79d06be498)" style="fill: #1f77b4; fill-opacity: 0.3; stroke: #1f77b4; stroke-opacity: 0.3"/>
    <path d="M 481.800768 369.917617 
C 484.316706 369.917617 486.729936 368.918024 488.508972 367.138988 
C 490.288009 365.359952 491.287601 362.946722 491.287601 360.430784 
C 491.287601 357.914847 490.288009 355.501617 488.508972 353.72258 
C 486.729936 351.943544 484.316706 350.943951 481.800768 350.943951 
C 479.284831 350.943951 476.871601 351.943544 475.092564 353.72258 
C 473.313528 355.501617 472.313935 357.914847 472.313935 360.430784 
C 472.313935 362.946722 473.313528 365.359952 475.092564 367.138988 
C 476.871601 368.918024 479.284831 369.917617 481.800768 369.917617 
z
" clip-path="url(#p79d06be498)" style="fill: #1f77b4; fill-opacity: 0.3; stroke: #1f77b4; stroke-opacity: 0.3"/>
    <path d="M 493.232266 359.451896 
C 496.197327 359.451896 499.041346 358.273865 501.13796 356.17725 
C 503.234575 354.080636 504.412606 351.236617 504.412606 348.271556 
C 504.412606 345.306495 503.234575 342.462477 501.13796 340.365862 
C 499.041346 338.269247 496.197327 337.091216 493.232266 337.091216 
C 490.267206 337.091216 487.423187 338.269247 485.326572 340.365862 
C 483.229958 342.462477 482.051926 345.306495 482.051926 348.271556 
C 482.051926 351.236617 483.229958 354.080636 485.326572 356.17725 
C 487.423187 358.273865 490.267206 359.451896 493.232266 359.451896 
z
" clip-path="url(#p79d06be498)" style="fill: #1f77b4; fill-opacity: 0.3; stroke: #1f77b4; stroke-opacity: 0.3"/>
    <path d="M 504.663764 349.433922 
C 507.035813 349.433922 509.311028 348.491497 510.98832 346.814206 
C 512.665611 345.136914 513.608036 342.861699 513.608036 340.48965 
C 513.608036 338.117602 512.665611 335.842387 510.98832 334.165095 
C 509.311028 332.487803 507.035813 331.545378 504.663764 331.545378 
C 502.291716 331.545378 500.016501 332.487803 498.339209 334.165095 
C 496.661917 335.842387 495.719492 338.117602 495.719492 340.48965 
C 495.719492 342.861699 496.661917 345.136914 498.339209 346.814206 
C 500.016501 348.491497 502.291716 349.433922 504.663764 349.433922 
z
" clip-path="url(#p79d06be498)" style="fill: #1f77b4; fill-opacity: 0.3; stroke: #1f77b4; stroke-opacity: 0.3"/>
    <path d="M 516.095262 342.139505 
C 518.274128 342.139505 520.364047 341.273833 521.904738 339.733142 
C 523.445428 338.192451 524.311101 336.102533 524.311101 333.923667 
C 524.311101 331.744801 523.445428 329.654883 521.904738 328.114192 
C 520.364047 326.573501 518.274128 325.707829 516.095262 325.707829 
C 513.916397 325.707829 511.826478 326.573501 510.285787 328.114192 
C 508.745097 329.654883 507.879424 331.744801 507.879424 333.923667 
C 507.879424 336.102533 508.745097 338.192451 510.285787 339.733142 
C 511.826478 341.273833 513.916397 342.139505 516.095262 342.139505 
z
" clip-path="url(#p79d06be498)" style="fill: #1f77b4; fill-opacity: 0.3; stroke: #1f77b4; stroke-opacity: 0.3"/>
    <path d="M 527.526761 336.113206 
C 528.365406 336.113206 529.169816 335.780009 529.762829 335.186997 
C 530.355841 334.593985 530.689038 333.789575 530.689038 332.950929 
C 530.689038 332.112283 530.355841 331.307873 529.762829 330.714861 
C 529.169816 330.121849 528.365406 329.788651 527.526761 329.788651 
C 526.688115 329.788651 525.883705 330.121849 525.290693 330.714861 
C 524.69768 331.307873 524.364483 332.112283 524.364483 332.950929 
C 524.364483 333.789575 524.69768 334.593985 525.290693 335.186997 
C 525.883705 335.780009 526.688115 336.113206 527.526761 336.113206 
z
" clip-path="url(#p79d06be498)" style="fill: #1f77b4; fill-opacity: 0.3; stroke: #1f77b4; stroke-opacity: 0.3"/>
    <path d="M 538.958259 335.519943 
C 540.348995 335.519943 541.682958 334.967397 542.666358 333.983998 
C 543.649757 333.000599 544.202303 331.666635 544.202303 330.275899 
C 544.202303 328.885162 543.649757 327.551199 542.666358 326.567799 
C 541.682958 325.5844 540.348995 325.031854 538.958259 325.031854 
C 537.567522 325.031854 536.233559 325.5844 535.250159 326.567799 
C 534.26676 327.551199 533.714214 328.885162 533.714214 330.275899 
C 533.714214 331.666635 534.26676 333.000599 535.250159 333.983998 
C 536.233559 334.967397 537.567522 335.519943 538.958259 335.519943 
z
" clip-path="url(#p79d06be498)" style="fill: #1f77b4; fill-opacity: 0.3; stroke: #1f77b4; stroke-opacity: 0.3"/>
    <path d="M 550.389757 332.483275 
C 552.265026 332.483275 554.063741 331.738223 555.389757 330.412207 
C 556.715772 329.086192 557.460825 327.287477 557.460825 325.412207 
C 557.460825 323.536938 556.715772 321.738223 555.389757 320.412207 
C 554.063741 319.086192 552.265026 318.34114 550.389757 318.34114 
C 548.514488 318.34114 546.715772 319.086192 545.389757 320.412207 
C 544.063741 321.738223 543.318689 323.536938 543.318689 325.412207 
C 543.318689 327.287477 544.063741 329.086192 545.389757 330.412207 
C 546.715772 331.738223 548.514488 332.483275 550.389757 332.483275 
z
" clip-path="url(#p79d06be498)" style="fill: #1f77b4; fill-opacity: 0.3; stroke: #1f77b4; stroke-opacity: 0.3"/>
    <path d="M 561.821255 327.321745 
C 563.875509 327.321745 565.845903 326.505581 567.29848 325.053004 
C 568.751058 323.600426 569.567221 321.630032 569.567221 319.575778 
C 569.567221 317.521524 568.751058 315.55113 567.29848 314.098552 
C 565.845903 312.645975 563.875509 311.829811 561.821255 311.829811 
C 559.767 311.829811 557.796606 312.645975 556.344029 314.098552 
C 554.891452 315.55113 554.075288 317.521524 554.075288 319.575778 
C 554.075288 321.630032 554.891452 323.600426 556.344029 325.053004 
C 557.796606 326.505581 559.767 327.321745 561.821255 327.321745 
z
" clip-path="url(#p79d06be498)" style="fill: #1f77b4; fill-opacity: 0.3; stroke: #1f77b4; stroke-opacity: 0.3"/>
    <path d="M 573.252753 322.102438 
C 574.438777 322.102438 575.576385 321.631225 576.415031 320.792579 
C 577.253676 319.953933 577.724889 318.816326 577.724889 317.630302 
C 577.724889 316.444277 577.253676 315.30667 576.415031 314.468024 
C 575.576385 313.629378 574.438777 313.158166 573.252753 313.158166 
C 572.066729 313.158166 570.929121 313.629378 570.090475 314.468024 
C 569.251829 315.30667 568.780617 316.444277 568.780617 317.630302 
C 568.780617 318.816326 569.251829 319.953933 570.090475 320.792579 
C 570.929121 321.631225 572.066729 322.102438 573.252753 322.102438 
z
" clip-path="url(#p79d06be498)" style="fill: #1f77b4; fill-opacity: 0.3; stroke: #1f77b4; stroke-opacity: 0.3"/>
    <path d="M 584.684251 319.187734 
C 586.903099 319.187734 589.031368 318.306176 590.600331 316.737214 
C 592.169293 315.168251 593.050851 313.039982 593.050851 310.821134 
C 593.050851 308.602286 592.169293 306.474017 590.600331 304.905054 
C 589.031368 303.336091 586.903099 302.454534 584.684251 302.454534 
C 582.465403 302.454534 580.337134 303.336091 578.768171 304.905054 
C 577.199208 306.474017 576.317651 308.602286 576.317651 310.821134 
C 576.317651 313.039982 577.199208 315.168251 578.768171 316.737214 
C 580.337134 318.306176 582.465403 319.187734 584.684251 319.187734 
z
" clip-path="url(#p79d06be498)" style="fill: #1f77b4; fill-opacity: 0.3; stroke: #1f77b4; stroke-opacity: 0.3"/>
    <path d="M 596.115749 313.206199 
C 597.844662 313.206199 599.502995 312.519294 600.725521 311.296769 
C 601.948047 310.074243 602.634951 308.415909 602.634951 306.686996 
C 602.634951 304.958084 601.948047 303.29975 600.725521 302.077224 
C 599.502995 300.854698 597.844662 300.167794 596.115749 300.167794 
C 594.386836 300.167794 592.728503 300.854698 591.505977 302.077224 
C 590.283451 303.29975 589.596547 304.958084 589.596547 306.686996 
C 589.596547 308.415909 590.283451 310.074243 591.505977 311.296769 
C 592.728503 312.519294 594.386836 313.206199 596.115749 313.206199 
z
" clip-path="url(#p79d06be498)" style="fill: #1f77b4; fill-opacity: 0.3; stroke: #1f77b4; stroke-opacity: 0.3"/>
    <path d="M 607.547247 309.25601 
C 608.937984 309.25601 610.271947 308.703465 611.255346 307.720065 
C 612.238746 306.736666 612.791291 305.402703 612.791291 304.011966 
C 612.791291 302.621229 612.238746 301.287266 611.255346 300.303867 
C 610.271947 299.320468 608.937984 298.767922 607.547247 298.767922 
C 606.15651 298.767922 604.822547 299.320468 603.839148 300.303867 
C 602.855748 301.287266 602.303203 302.621229 602.303203 304.011966 
C 602.303203 305.402703 602.855748 306.736666 603.839148 307.720065 
C 604.822547 308.703465 606.15651 309.25601 607.547247 309.25601 
z
" clip-path="url(#p79d06be498)" style="fill: #1f77b4; fill-opacity: 0.3; stroke: #1f77b4; stroke-opacity: 0.3"/>
    <path d="M 618.978745 304.401977 
C 621.597416 304.401977 624.109185 303.361568 625.960865 301.509888 
C 627.812545 299.658209 628.852954 297.146439 628.852954 294.527768 
C 628.852954 291.909098 627.812545 289.397328 625.960865 287.545648 
C 624.109185 285.693968 621.597416 284.65356 618.978745 284.65356 
C 616.360074 284.65356 613.848305 285.693968 611.996625 287.545648 
C 610.144945 289.397328 609.104536 291.909098 609.104536 294.527768 
C 609.104536 297.146439 610.144945 299.658209 611.996625 301.509888 
C 613.848305 303.361568 616.360074 304.401977 618.978745 304.401977 
z
" clip-path="url(#p79d06be498)" style="fill: #1f77b4; fill-opacity: 0.3; stroke: #1f77b4; stroke-opacity: 0.3"/>
    <path d="M 630.410243 297.086779 
C 631.86282 297.086779 633.256099 296.509664 634.283227 295.482537 
C 635.310354 294.45541 635.887469 293.062131 635.887469 291.609554 
C 635.887469 290.156976 635.310354 288.763698 634.283227 287.73657 
C 633.256099 286.709443 631.86282 286.132328 630.410243 286.132328 
C 628.957666 286.132328 627.564387 286.709443 626.53726 287.73657 
C 625.510133 288.763698 624.933018 290.156976 624.933018 291.609554 
C 624.933018 293.062131 625.510133 294.45541 626.53726 295.482537 
C 627.564387 296.509664 628.957666 297.086779 630.410243 297.086779 
z
" clip-path="url(#p79d06be498)" style="fill: #1f77b4; fill-opacity: 0.3; stroke: #1f77b4; stroke-opacity: 0.3"/>
    <path d="M 641.841741 292.560823 
C 644.286793 292.560823 646.632031 291.589394 648.360944 289.860481 
C 650.089856 288.131568 651.061286 285.78633 651.061286 283.341279 
C 651.061286 280.896227 650.089856 278.550989 648.360944 276.822076 
C 646.632031 275.093164 644.286793 274.121734 641.841741 274.121734 
C 639.39669 274.121734 637.051452 275.093164 635.322539 276.822076 
C 633.593626 278.550989 632.622197 280.896227 632.622197 283.341279 
C 632.622197 285.78633 633.593626 288.131568 635.322539 289.860481 
C 637.051452 291.589394 639.39669 292.560823 641.841741 292.560823 
z
" clip-path="url(#p79d06be498)" style="fill: #1f77b4; fill-opacity: 0.3; stroke: #1f77b4; stroke-opacity: 0.3"/>
    <path d="M 653.273239 285.548655 
C 655.148509 285.548655 656.947224 284.803603 658.273239 283.477587 
C 659.599255 282.151572 660.344307 280.352857 660.344307 278.477587 
C 660.344307 276.602318 659.599255 274.803603 658.273239 273.477587 
C 656.947224 272.151572 655.148509 271.40652 653.273239 271.40652 
C 651.39797 271.40652 649.599255 272.151572 648.273239 273.477587 
C 646.947224 274.803603 646.202172 276.602318 646.202172 278.477587 
C 646.202172 280.352857 646.947224 282.151572 648.273239 283.477587 
C 649.599255 284.803603 651.39797 285.548655 653.273239 285.548655 
z
" clip-path="url(#p79d06be498)" style="fill: #1f77b4; fill-opacity: 0.3; stroke: #1f77b4; stroke-opacity: 0.3"/>
    <path d="M 664.704738 281.036598 
C 666.157315 281.036598 667.550594 280.459483 668.577721 279.432356 
C 669.604848 278.405229 670.181963 277.01195 670.181963 275.559373 
C 670.181963 274.106796 669.604848 272.713517 668.577721 271.686389 
C 667.550594 270.659262 666.157315 270.082147 664.704738 270.082147 
C 663.25216 270.082147 661.858881 270.659262 660.831754 271.686389 
C 659.804627 272.713517 659.227512 274.106796 659.227512 275.559373 
C 659.227512 277.01195 659.804627 278.405229 660.831754 279.432356 
C 661.858881 280.459483 663.25216 281.036598 664.704738 281.036598 
z
" clip-path="url(#p79d06be498)" style="fill: #1f77b4; fill-opacity: 0.3; stroke: #1f77b4; stroke-opacity: 0.3"/>
    <path d="M 676.136236 277.766749 
C 678.011505 277.766749 679.81022 277.021697 681.136236 275.695682 
C 682.462251 274.369666 683.207303 272.570951 683.207303 270.695682 
C 683.207303 268.820412 682.462251 267.021697 681.136236 265.695682 
C 679.81022 264.369666 678.011505 263.624614 676.136236 263.624614 
C 674.260966 263.624614 672.462251 264.369666 671.136236 265.695682 
C 669.81022 267.021697 669.065168 268.820412 669.065168 270.695682 
C 669.065168 272.570951 669.81022 274.369666 671.136236 275.695682 
C 672.462251 277.021697 674.260966 277.766749 676.136236 277.766749 
z
" clip-path="url(#p79d06be498)" style="fill: #1f77b4; fill-opacity: 0.3; stroke: #1f77b4; stroke-opacity: 0.3"/>
    <path d="M 687.567734 273.250437 
C 688.825702 273.250437 690.032317 272.750641 690.921836 271.861122 
C 691.811354 270.971604 692.31115 269.764989 692.31115 268.507021 
C 692.31115 267.249052 691.811354 266.042437 690.921836 265.152919 
C 690.032317 264.2634 688.825702 263.763604 687.567734 263.763604 
C 686.309765 263.763604 685.10315 264.2634 684.213632 265.152919 
C 683.324113 266.042437 682.824317 267.249052 682.824317 268.507021 
C 682.824317 269.764989 683.324113 270.971604 684.213632 271.861122 
C 685.10315 272.750641 686.309765 273.250437 687.567734 273.250437 
z
" clip-path="url(#p79d06be498)" style="fill: #1f77b4; fill-opacity: 0.3; stroke: #1f77b4; stroke-opacity: 0.3"/>
    <path d="M 698.999232 269.126884 
C 701.549873 269.126884 703.996391 268.113503 705.799967 266.309927 
C 707.603543 264.506351 708.616924 262.059834 708.616924 259.509192 
C 708.616924 256.95855 707.603543 254.512033 705.799967 252.708457 
C 703.996391 250.90488 701.549873 249.8915 698.999232 249.8915 
C 696.44859 249.8915 694.002073 250.90488 692.198496 252.708457 
C 690.39492 254.512033 689.38154 256.95855 689.38154 259.509192 
C 689.38154 262.059834 690.39492 264.506351 692.198496 266.309927 
C 694.002073 268.113503 696.44859 269.126884 698.999232 269.126884 
z
" clip-path="url(#p79d06be498)" style="fill: #1f77b4; fill-opacity: 0.3; stroke: #1f77b4; stroke-opacity: 0.3"/>
    <path d="M 710.43073 258.790784 
C 713.335884 258.790784 716.122442 257.636554 718.176697 255.5823 
C 720.230951 253.528045 721.385181 250.741487 721.385181 247.836333 
C 721.385181 244.931179 720.230951 242.144621 718.176697 240.090366 
C 716.122442 238.036112 713.335884 236.881882 710.43073 236.881882 
C 707.525575 236.881882 704.739018 238.036112 702.684763 240.090366 
C 700.630509 242.144621 699.476279 244.931179 699.476279 247.836333 
C 699.476279 250.741487 700.630509 253.528045 702.684763 255.5823 
C 704.739018 257.636554 707.525575 258.790784 710.43073 258.790784 
z
" clip-path="url(#p79d06be498)" style="fill: #1f77b4; fill-opacity: 0.3; stroke: #1f77b4; stroke-opacity: 0.3"/>
    <path d="M 721.862228 250.391088 
C 723.120197 250.391088 724.326812 249.891292 725.21633 249.001774 
C 726.105848 248.112256 726.605644 246.905641 726.605644 245.647672 
C 726.605644 244.389703 726.105848 243.183088 725.21633 242.29357 
C 724.326812 241.404052 723.120197 240.904255 721.862228 240.904255 
C 720.604259 240.904255 719.397644 241.404052 718.508126 242.29357 
C 717.618608 243.183088 717.118811 244.389703 717.118811 245.647672 
C 717.118811 246.905641 717.618608 248.112256 718.508126 249.001774 
C 719.397644 249.891292 720.604259 250.391088 721.862228 250.391088 
z
" clip-path="url(#p79d06be498)" style="fill: #1f77b4; fill-opacity: 0.3; stroke: #1f77b4; stroke-opacity: 0.3"/>
    <path d="M 733.293726 247.855049 
C 735.168995 247.855049 736.96771 247.109996 738.293726 245.783981 
C 739.619741 244.457965 740.364794 242.65925 740.364794 240.783981 
C 740.364794 238.908712 739.619741 237.109996 738.293726 235.783981 
C 736.96771 234.457965 735.168995 233.712913 733.293726 233.712913 
C 731.418457 233.712913 729.619741 234.457965 728.293726 235.783981 
C 726.96771 237.109996 726.222658 238.908712 726.222658 240.783981 
C 726.222658 242.65925 726.96771 244.457965 728.293726 245.783981 
C 729.619741 247.109996 731.418457 247.855049 733.293726 247.855049 
z
" clip-path="url(#p79d06be498)" style="fill: #1f77b4; fill-opacity: 0.3; stroke: #1f77b4; stroke-opacity: 0.3"/>
    <path d="M 744.725224 242.991357 
C 746.600493 242.991357 748.399209 242.246305 749.725224 240.92029 
C 751.05124 239.594274 751.796292 237.795559 751.796292 235.92029 
C 751.796292 234.04502 751.05124 232.246305 749.725224 230.92029 
C 748.399209 229.594274 746.600493 228.849222 744.725224 228.849222 
C 742.849955 228.849222 741.05124 229.594274 739.725224 230.92029 
C 738.399209 232.246305 737.654156 234.04502 737.654156 235.92029 
C 737.654156 237.795559 738.399209 239.594274 739.725224 240.92029 
C 741.05124 242.246305 742.849955 242.991357 744.725224 242.991357 
z
" clip-path="url(#p79d06be498)" style="fill: #1f77b4; fill-opacity: 0.3; stroke: #1f77b4; stroke-opacity: 0.3"/>
    <path d="M 756.156722 238.251171 
C 757.935759 238.251171 759.64217 237.544353 760.900139 236.286384 
C 762.158107 235.028415 762.864926 233.322004 762.864926 231.542967 
C 762.864926 229.763931 762.158107 228.05752 760.900139 226.799551 
C 759.64217 225.541582 757.935759 224.834763 756.156722 224.834763 
C 754.377686 224.834763 752.671274 225.541582 751.413306 226.799551 
C 750.155337 228.05752 749.448518 229.763931 749.448518 231.542967 
C 749.448518 233.322004 750.155337 235.028415 751.413306 236.286384 
C 752.671274 237.544353 754.377686 238.251171 756.156722 238.251171 
z
" clip-path="url(#p79d06be498)" style="fill: #1f77b4; fill-opacity: 0.3; stroke: #1f77b4; stroke-opacity: 0.3"/>
    <path d="M 767.58822 233.814485 
C 769.416006 233.814485 771.169177 233.088298 772.461617 231.795858 
C 773.754057 230.503418 774.480245 228.750247 774.480245 226.922461 
C 774.480245 225.094675 773.754057 223.341504 772.461617 222.049064 
C 771.169177 220.756624 769.416006 220.030436 767.58822 220.030436 
C 765.760434 220.030436 764.007263 220.756624 762.714823 222.049064 
C 761.422383 223.341504 760.696196 225.094675 760.696196 226.922461 
C 760.696196 228.750247 761.422383 230.503418 762.714823 231.795858 
C 764.007263 233.088298 765.760434 233.814485 767.58822 233.814485 
z
" clip-path="url(#p79d06be498)" style="fill: #1f77b4; fill-opacity: 0.3; stroke: #1f77b4; stroke-opacity: 0.3"/>
    <path d="M 779.019718 228.287178 
C 781.316445 228.287178 783.519412 227.374679 785.143443 225.750648 
C 786.767473 224.126618 787.679972 221.92365 787.679972 219.626924 
C 787.679972 217.330198 786.767473 215.12723 785.143443 213.5032 
C 783.519412 211.879169 781.316445 210.96667 779.019718 210.96667 
C 776.722992 210.96667 774.520025 211.879169 772.895994 213.5032 
C 771.271963 215.12723 770.359464 217.330198 770.359464 219.626924 
C 770.359464 221.92365 771.271963 224.126618 772.895994 225.750648 
C 774.520025 227.374679 776.722992 228.287178 779.019718 228.287178 
z
" clip-path="url(#p79d06be498)" style="fill: #1f77b4; fill-opacity: 0.3; stroke: #1f77b4; stroke-opacity: 0.3"/>
    <path d="M 790.451216 220.991641 
C 792.747943 220.991641 794.95091 220.079142 796.574941 218.455112 
C 798.198971 216.831081 799.11147 214.628113 799.11147 212.331387 
C 799.11147 210.034661 798.198971 207.831694 796.574941 206.207663 
C 794.95091 204.583632 792.747943 203.671133 790.451216 203.671133 
C 788.15449 203.671133 785.951523 204.583632 784.327492 206.207663 
C 782.703461 207.831694 781.790962 210.034661 781.790962 212.331387 
C 781.790962 214.628113 782.703461 216.831081 784.327492 218.455112 
C 785.951523 220.079142 788.15449 220.991641 790.451216 220.991641 
z
" clip-path="url(#p79d06be498)" style="fill: #1f77b4; fill-opacity: 0.3; stroke: #1f77b4; stroke-opacity: 0.3"/>
    <path d="M 801.882714 212.242672 
C 804.632399 212.242672 807.269833 211.150211 809.214154 209.20589 
C 811.158474 207.26157 812.250935 204.624135 812.250935 201.874451 
C 812.250935 199.124767 811.158474 196.487332 809.214154 194.543012 
C 807.269833 192.598692 804.632399 191.50623 801.882714 191.50623 
C 799.13303 191.50623 796.495596 192.598692 794.551275 194.543012 
C 792.606955 196.487332 791.514494 199.124767 791.514494 201.874451 
C 791.514494 204.624135 792.606955 207.26157 794.551275 209.20589 
C 796.495596 211.150211 799.13303 212.242672 801.882714 212.242672 
z
" clip-path="url(#p79d06be498)" style="fill: #1f77b4; fill-opacity: 0.3; stroke: #1f77b4; stroke-opacity: 0.3"/>
    <path d="M 813.314213 204.013264 
C 815.235792 204.013264 817.078926 203.249812 818.437688 201.891051 
C 819.796449 200.532289 820.559901 198.689154 820.559901 196.767575 
C 820.559901 194.845996 819.796449 193.002862 818.437688 191.6441 
C 817.078926 190.285338 815.235792 189.521887 813.314213 189.521887 
C 811.392634 189.521887 809.549499 190.285338 808.190737 191.6441 
C 806.831976 193.002862 806.068524 194.845996 806.068524 196.767575 
C 806.068524 198.689154 806.831976 200.532289 808.190737 201.891051 
C 809.549499 203.249812 811.392634 204.013264 813.314213 204.013264 
z
" clip-path="url(#p79d06be498)" style="fill: #1f77b4; fill-opacity: 0.3; stroke: #1f77b4; stroke-opacity: 0.3"/>
    <path d="M 824.745711 194.704466 
C 827.939179 194.704466 831.002281 193.435687 833.260404 191.177564 
C 835.518527 188.919441 836.787305 185.856339 836.787305 182.662871 
C 836.787305 179.469403 835.518527 176.406301 833.260404 174.148178 
C 831.002281 171.890055 827.939179 170.621276 824.745711 170.621276 
C 821.552242 170.621276 818.48914 171.890055 816.231017 174.148178 
C 813.972894 176.406301 812.704116 179.469403 812.704116 182.662871 
C 812.704116 185.856339 813.972894 188.919441 816.231017 191.177564 
C 818.48914 193.435687 821.552242 194.704466 824.745711 194.704466 
z
" clip-path="url(#p79d06be498)" style="fill: #1f77b4; fill-opacity: 0.3; stroke: #1f77b4; stroke-opacity: 0.3"/>
    <path d="M 836.177209 184.652501 
C 838.188211 184.652501 840.117118 183.853522 841.539111 182.431529 
C 842.961105 181.009535 843.760084 179.080628 843.760084 177.069626 
C 843.760084 175.058624 842.961105 173.129717 841.539111 171.707723 
C 840.117118 170.28573 838.188211 169.486751 836.177209 169.486751 
C 834.166207 169.486751 832.237299 170.28573 830.815306 171.707723 
C 829.393313 173.129717 828.594333 175.058624 828.594333 177.069626 
C 828.594333 179.080628 829.393313 181.009535 830.815306 182.431529 
C 832.237299 183.853522 834.166207 184.652501 836.177209 184.652501 
z
" clip-path="url(#p79d06be498)" style="fill: #1f77b4; fill-opacity: 0.3; stroke: #1f77b4; stroke-opacity: 0.3"/>
    <path d="M 847.608707 179.628637 
C 849.061284 179.628637 850.454563 179.051522 851.48169 178.024395 
C 852.508817 176.997267 853.085932 175.603989 853.085932 174.151411 
C 853.085932 172.698834 852.508817 171.305555 851.48169 170.278428 
C 850.454563 169.251301 849.061284 168.674186 847.608707 168.674186 
C 846.15613 168.674186 844.762851 169.251301 843.735723 170.278428 
C 842.708596 171.305555 842.131481 172.698834 842.131481 174.151411 
C 842.131481 175.603989 842.708596 176.997267 843.735723 178.024395 
C 844.762851 179.051522 846.15613 179.628637 847.608707 179.628637 
z
" clip-path="url(#p79d06be498)" style="fill: #1f77b4; fill-opacity: 0.3; stroke: #1f77b4; stroke-opacity: 0.3"/>
    <path d="M 859.040205 176.358788 
C 860.915474 176.358788 862.714189 175.613736 864.040205 174.28772 
C 865.36622 172.961705 866.111273 171.162989 866.111273 169.28772 
C 866.111273 167.412451 865.36622 165.613736 864.040205 164.28772 
C 862.714189 162.961705 860.915474 162.216652 859.040205 162.216652 
C 857.164936 162.216652 855.36622 162.961705 854.040205 164.28772 
C 852.714189 165.613736 851.969137 167.412451 851.969137 169.28772 
C 851.969137 171.162989 852.714189 172.961705 854.040205 174.28772 
C 855.36622 175.613736 857.164936 176.358788 859.040205 176.358788 
z
" clip-path="url(#p79d06be498)" style="fill: #1f77b4; fill-opacity: 0.3; stroke: #1f77b4; stroke-opacity: 0.3"/>
    <path d="M 870.471703 170.937575 
C 872.650569 170.937575 874.740487 170.071903 876.281178 168.531212 
C 877.821869 166.990521 878.687541 164.900603 878.687541 162.721737 
C 878.687541 160.542871 877.821869 158.452953 876.281178 156.912262 
C 874.740487 155.371571 872.650569 154.505899 870.471703 154.505899 
C 868.292837 154.505899 866.202919 155.371571 864.662228 156.912262 
C 863.121537 158.452953 862.255865 160.542871 862.255865 162.721737 
C 862.255865 164.900603 863.121537 166.990521 864.662228 168.531212 
C 866.202919 170.071903 868.292837 170.937575 870.471703 170.937575 
z
" clip-path="url(#p79d06be498)" style="fill: #1f77b4; fill-opacity: 0.3; stroke: #1f77b4; stroke-opacity: 0.3"/>
    <path d="M 881.903201 164.929114 
C 883.77847 164.929114 885.577186 164.184061 886.903201 162.858046 
C 888.229217 161.53203 888.974269 159.733315 888.974269 157.858046 
C 888.974269 155.982777 888.229217 154.184061 886.903201 152.858046 
C 885.577186 151.53203 883.77847 150.786978 881.903201 150.786978 
C 880.027932 150.786978 878.229217 151.53203 876.903201 152.858046 
C 875.577186 154.184061 874.832133 155.982777 874.832133 157.858046 
C 874.832133 159.733315 875.577186 161.53203 876.903201 162.858046 
C 878.229217 164.184061 880.027932 164.929114 881.903201 164.929114 
z
" clip-path="url(#p79d06be498)" style="fill: #1f77b4; fill-opacity: 0.3; stroke: #1f77b4; stroke-opacity: 0.3"/>
    <path d="M 893.334699 159.222763 
C 895.631425 159.222763 897.834393 158.310264 899.458423 156.686233 
C 901.082454 155.062203 901.994953 152.859235 901.994953 150.562509 
C 901.994953 148.265783 901.082454 146.062815 899.458423 144.438785 
C 897.834393 142.814754 895.631425 141.902255 893.334699 141.902255 
C 891.037973 141.902255 888.835005 142.814754 887.210975 144.438785 
C 885.586944 146.062815 884.674445 148.265783 884.674445 150.562509 
C 884.674445 152.859235 885.586944 155.062203 887.210975 156.686233 
C 888.835005 158.310264 891.037973 159.222763 893.334699 159.222763 
z
" clip-path="url(#p79d06be498)" style="fill: #1f77b4; fill-opacity: 0.3; stroke: #1f77b4; stroke-opacity: 0.3"/>
    <path d="M 904.766197 152.947574 
C 906.49511 152.947574 908.153444 152.26067 909.375969 151.038144 
C 910.598495 149.815618 911.2854 148.157284 911.2854 146.428372 
C 911.2854 144.699459 910.598495 143.041125 909.375969 141.818599 
C 908.153444 140.596073 906.49511 139.909169 904.766197 139.909169 
C 903.037284 139.909169 901.378951 140.596073 900.156425 141.818599 
C 898.933899 143.041125 898.246995 144.699459 898.246995 146.428372 
C 898.246995 148.157284 898.933899 149.815618 900.156425 151.038144 
C 901.378951 152.26067 903.037284 152.947574 904.766197 152.947574 
z
" clip-path="url(#p79d06be498)" style="fill: #1f77b4; fill-opacity: 0.3; stroke: #1f77b4; stroke-opacity: 0.3"/>
    <path d="M 916.197695 148.418002 
C 918.208697 148.418002 920.137605 147.619023 921.559598 146.197029 
C 922.981591 144.775036 923.780571 142.846129 923.780571 140.835127 
C 923.780571 138.824125 922.981591 136.895217 921.559598 135.473224 
C 920.137605 134.051231 918.208697 133.252251 916.197695 133.252251 
C 914.186693 133.252251 912.257786 134.051231 910.835793 135.473224 
C 909.413799 136.895217 908.61482 138.824125 908.61482 140.835127 
C 908.61482 142.846129 909.413799 144.775036 910.835793 146.197029 
C 912.257786 147.619023 914.186693 148.418002 916.197695 148.418002 
z
" clip-path="url(#p79d06be498)" style="fill: #1f77b4; fill-opacity: 0.3; stroke: #1f77b4; stroke-opacity: 0.3"/>
    <path d="M 927.629193 143.166009 
C 929.40823 143.166009 931.114641 142.45919 932.37261 141.201221 
C 933.630579 139.943252 934.337397 138.236841 934.337397 136.457805 
C 934.337397 134.678768 933.630579 132.972357 932.37261 131.714388 
C 931.114641 130.456419 929.40823 129.749601 927.629193 129.749601 
C 925.850157 129.749601 924.143746 130.456419 922.885777 131.714388 
C 921.627808 132.972357 920.920989 134.678768 920.920989 136.457805 
C 920.920989 138.236841 921.627808 139.943252 922.885777 141.201221 
C 924.143746 142.45919 925.850157 143.166009 927.629193 143.166009 
z
" clip-path="url(#p79d06be498)" style="fill: #1f77b4; fill-opacity: 0.3; stroke: #1f77b4; stroke-opacity: 0.3"/>
    <path d="M 939.060691 138.997282 
C 940.572582 138.997282 942.022752 138.396602 943.09182 137.327534 
C 944.160888 136.258466 944.761569 134.808296 944.761569 133.296405 
C 944.761569 131.784515 944.160888 130.334344 943.09182 129.265276 
C 942.022752 128.196209 940.572582 127.595528 939.060691 127.595528 
C 937.548801 127.595528 936.09863 128.196209 935.029563 129.265276 
C 933.960495 130.334344 933.359814 131.784515 933.359814 133.296405 
C 933.359814 134.808296 933.960495 136.258466 935.029563 137.327534 
C 936.09863 138.396602 937.548801 138.997282 939.060691 138.997282 
z
" clip-path="url(#p79d06be498)" style="fill: #1f77b4; fill-opacity: 0.3; stroke: #1f77b4; stroke-opacity: 0.3"/>
    <path d="M 950.49219 129.945219 
C 953.924496 129.945219 957.216685 128.581549 959.643692 126.154542 
C 962.070699 123.727536 963.434369 120.435346 963.434369 117.00304 
C 963.434369 113.570734 962.070699 110.278544 959.643692 107.851537 
C 957.216685 105.42453 953.924496 104.060861 950.49219 104.060861 
C 947.059883 104.060861 943.767694 105.42453 941.340687 107.851537 
C 938.91368 110.278544 937.55001 113.570734 937.55001 117.00304 
C 937.55001 120.435346 938.91368 123.727536 941.340687 126.154542 
C 943.767694 128.581549 947.059883 129.945219 950.49219 129.945219 
z
" clip-path="url(#p79d06be498)" style="fill: #1f77b4; fill-opacity: 0.3; stroke: #1f77b4; stroke-opacity: 0.3"/>
    <path d="M 961.923688 119.274558 
C 963.751474 119.274558 965.504645 118.54837 966.797085 117.25593 
C 968.089525 115.96349 968.815712 114.210319 968.815712 112.382533 
C 968.815712 110.554747 968.089525 108.801576 966.797085 107.509136 
C 965.504645 106.216696 963.751474 105.490509 961.923688 105.490509 
C 960.095901 105.490509 958.34273 106.216696 957.05029 107.509136 
C 955.75785 108.801576 955.031663 110.554747 955.031663 112.382533 
C 955.031663 114.210319 955.75785 115.96349 957.05029 117.25593 
C 958.34273 118.54837 960.095901 119.274558 961.923688 119.274558 
z
" clip-path="url(#p79d06be498)" style="fill: #1f77b4; fill-opacity: 0.3; stroke: #1f77b4; stroke-opacity: 0.3"/>
    <path d="M 973.355186 112.170501 
C 976.136659 112.170501 978.804585 111.06541 980.771384 109.098611 
C 982.738183 107.131812 983.843274 104.463886 983.843274 101.682413 
C 983.843274 98.900939 982.738183 96.233013 980.771384 94.266214 
C 978.804585 92.299415 976.136659 91.194324 973.355186 91.194324 
C 970.573712 91.194324 967.905786 92.299415 965.938987 94.266214 
C 963.972188 96.233013 962.867097 98.900939 962.867097 101.682413 
C 962.867097 104.463886 963.972188 107.131812 965.938987 109.098611 
C 967.905786 111.06541 970.573712 112.170501 973.355186 112.170501 
z
" clip-path="url(#p79d06be498)" style="fill: #1f77b4; fill-opacity: 0.3; stroke: #1f77b4; stroke-opacity: 0.3"/>
    <path d="M 984.786684 102.740273 
C 987.195511 102.740273 989.506002 101.783236 991.2093 100.079938 
C 992.912598 98.376641 993.869635 96.066149 993.869635 93.657322 
C 993.869635 91.248495 992.912598 88.938004 991.2093 87.234706 
C 989.506002 85.531408 987.195511 84.574371 984.786684 84.574371 
C 982.377857 84.574371 980.067365 85.531408 978.364067 87.234706 
C 976.66077 88.938004 975.703733 91.248495 975.703733 93.657322 
C 975.703733 96.066149 976.66077 98.376641 978.364067 100.079938 
C 980.067365 101.783236 982.377857 102.740273 984.786684 102.740273 
z
" clip-path="url(#p79d06be498)" style="fill: #1f77b4; fill-opacity: 0.3; stroke: #1f77b4; stroke-opacity: 0.3"/>
    <path d="M 996.218182 95.988204 
C 997.997218 95.988204 999.70363 95.281385 1000.961598 94.023416 
C 1002.219567 92.765448 1002.926386 91.059036 1002.926386 89.28 
C 1002.926386 87.500964 1002.219567 85.794552 1000.961598 84.536584 
C 999.70363 83.278615 997.997218 82.571796 996.218182 82.571796 
C 994.439145 82.571796 992.732734 83.278615 991.474765 84.536584 
C 990.216797 85.794552 989.509978 87.500964 989.509978 89.28 
C 989.509978 91.059036 990.216797 92.765448 991.474765 94.023416 
C 992.732734 95.281385 994.439145 95.988204 996.218182 95.988204 
z
" clip-path="url(#p79d06be498)" style="fill: #1f77b4; fill-opacity: 0.3; stroke: #1f77b4; stroke-opacity: 0.3"/>
   </g>
   <g id="matplotlib.axis_1">
    <g id="xtick_1">
     <g id="line2d_1">
      <defs>
       <path id="m73474ebef2" d="M 0 0 
L 0 3.5 
" style="stroke: #000000; stroke-width: 0.8"/>
      </defs>
      <g>
       <use xlink:href="#m73474ebef2" x="184.581818" y="512.64" style="stroke: #000000; stroke-width: 0.8"/>
      </g>
     </g>
     <g id="text_1">
      <!-- 2026-01-01 -->
      <g transform="translate(155.524006 527.238438) scale(0.1 -0.1)">
       <defs>
        <path id="DejaVuSans-32" d="M 1228 531 
L 3431 531 
L 3431 0 
L 469 0 
L 469 531 
Q 828 903 1448 1529 
Q 2069 2156 2228 2338 
Q 2531 2678 2651 2914 
Q 2772 3150 2772 3378 
Q 2772 3750 2511 3984 
Q 2250 4219 1831 4219 
Q 1534 4219 1204 4116 
Q 875 4013 500 3803 
L 500 4441 
Q 881 4594 1212 4672 
Q 1544 4750 1819 4750 
Q 2544 4750 2975 4387 
Q 3406 4025 3406 3419 
Q 3406 3131 3298 2873 
Q 3191 2616 2906 2266 
Q 2828 2175 2409 1742 
Q 1991 1309 1228 531 
z
" transform="scale(0.015625)"/>
        <path id="DejaVuSans-30" d="M 2034 4250 
Q 1547 4250 1301 3770 
Q 1056 3291 1056 2328 
Q 1056 1369 1301 889 
Q 1547 409 2034 409 
Q 2525 409 2770 889 
Q 3016 1369 3016 2328 
Q 3016 3291 2770 3770 
Q 2525 4250 2034 4250 
z
M 2034 4750 
Q 2819 4750 3233 4129 
Q 3647 3509 3647 2328 
Q 3647 1150 3233 529 
Q 2819 -91 2034 -91 
Q 1250 -91 836 529 
Q 422 1150 422 2328 
Q 422 3509 836 4129 
Q 1250 4750 2034 4750 
z
" transform="scale(0.015625)"/>
        <path id="DejaVuSans-36" d="M 2113 2584 
Q 1688 2584 1439 2293 
Q 1191 2003 1191 1497 
Q 1191 994 1439 701 
Q 1688 409 2113 409 
Q 2538 409 2786 701 
Q 3034 994 3034 1497 
Q 3034 2003 2786 2293 
Q 2538 2584 2113 2584 
z
M 3366 4563 
L 3366 3988 
Q 3128 4100 2886 4159 
Q 2644 4219 2406 4219 
Q 1781 4219 1451 3797 
Q 1122 3375 1075 2522 
Q 1259 2794 1537 2939 
Q 1816 3084 2150 3084 
Q 2853 3084 3261 2657 
Q 3669 2231 3669 1497 
Q 3669 778 3244 343 
Q 2819 -91 2113 -91 
Q 1303 -91 875 529 
Q 447 1150 447 2328 
Q 447 3434 972 4092 
Q 1497 4750 2381 4750 
Q 2619 4750 2861 4703 
Q 3103 4656 3366 4563 
z
" transform="scale(0.015625)"/>
        <path id="DejaVuSans-2d" d="M 313 2009 
L 1997 2009 
L 1997 1497 
L 313 1497 
L 313 2009 
z
" transform="scale(0.015625)"/>
        <path id="DejaVuSans-31" d="M 794 531 
L 1825 531 
L 1825 4091 
L 703 3866 
L 703 4441 
L 1819 4666 
L 2450 4666 
L 2450 531 
L 3481 531 
L 3481 0 
L 794 0 
L 794 531 
z
" transform="scale(0.015625)"/>
       </defs>
       <use xlink:href="#DejaVuSans-32"/>
       <use xlink:href="#DejaVuSans-30" x="63.623047"/>
       <use xlink:href="#DejaVuSans-32" x="127.246094"/>
       <use xlink:href="#DejaVuSans-36" x="190.869141"/>
       <use xlink:href="#DejaVuSans-2d" x="254.492188"/>
       <use xlink:href="#DejaVuSans-30" x="290.576172"/>
       <use xlink:href="#DejaVuSans-31" x="354.199219"/>
       <use xlink:href="#DejaVuSans-2d" x="417.822266"/>
       <use xlink:href="#DejaVuSans-30" x="453.90625"/>
       <use xlink:href="#DejaVuSans-31" x="517.529297"/>
      </g>
     </g>
    </g>
    <g id="xtick_2">
     <g id="line2d_2">
      <g>
       <use xlink:href="#m73474ebef2" x="344.622791" y="512.64" style="stroke: #000000; stroke-width: 0.8"/>
      </g>
     </g>
     <g id="text_2">
      <!-- 2026-01-15 -->
      <g transform="translate(315.564979 527.238438) scale(0.1 -0.1)">
       <defs>
        <path id="DejaVuSans-35" d="M 691 4666 
L 3169 4666 
L 3169 4134 
L 1269 4134 
L 1269 2991 
Q 1406 3038 1543 3061 
Q 1681 3084 1819 3084 
Q 2600 3084 3056 2656 
Q 3513 2228 3513 1497 
Q 3513 744 3044 326 
Q 2575 -91 1722 -91 
Q 1428 -91 1123 -41 
Q 819 9 494 109 
L 494 744 
Q 775 591 1075 516 
Q 1375 441 1709 441 
Q 2250 441 2565 725 
Q 2881 1009 2881 1497 
Q 2881 1984 2565 2268 
Q 2250 2553 1709 2553 
Q 1456 2553 1204 2497 
Q 953 2441 691 2322 
L 691 4666 
z
" transform="scale(0.015625)"/>
       </defs>
       <use xlink:href="#DejaVuSans-32"/>
       <use xlink:href="#DejaVuSans-30" x="63.623047"/>
       <use xlink:href="#DejaVuSans-32" x="127.246094"/>
       <use xlink:href="#DejaVuSans-36" x="190.869141"/>
       <use xlink:href="#DejaVuSans-2d" x="254.492188"/>
       <use xlink:href="#DejaVuSans-30" x="290.576172"/>
       <use xlink:href="#DejaVuSans-31" x="354.199219"/>
       <use xlink:href="#DejaVuSans-2d" x="417.822266"/>
       <use xlink:href="#DejaVuSans-31" x="453.90625"/>
       <use xlink:href="#DejaVuSans-35" x="517.529297"/>
      </g>
     </g>
    </g>
    <g id="xtick_3">
     <g id="line2d_3">
      <g>
       <use xlink:href="#m73474ebef2" x="538.958259" y="512.64" style="stroke: #000000; stroke-width: 0.8"/>
      </g>
     </g>
     <g id="text_3">
      <!-- 2026-02-01 -->
      <g transform="translate(509.900446 527.238438) scale(0.1 -0.1)">
       <use xlink:href="#DejaVuSans-32"/>
       <use xlink:href="#DejaVuSans-30" x="63.623047"/>
       <use xlink:href="#DejaVuSans-32" x="127.246094"/>
       <use xlink:href="#DejaVuSans-36" x="190.869141"/>
       <use xlink:href="#DejaVuSans-2d" x="254.492188"/>
       <use xlink:href="#DejaVuSans-30" x="290.576172"/>
       <use xlink:href="#DejaVuSans-32" x="354.199219"/>
       <use xlink:href="#DejaVuSans-2d" x="417.822266"/>
       <use xlink:href="#DejaVuSans-30" x="453.90625"/>
       <use xlink:href="#DejaVuSans-31" x="517.529297"/>
      </g>
     </g>
    </g>
    <g id="xtick_4">
     <g id="line2d_4">
      <g>
       <use xlink:href="#m73474ebef2" x="698.999232" y="512.64" style="stroke: #000000; stroke-width: 0.8"/>
      </g>
     </g>
     <g id="text_4">
      <!-- 2026-02-15 -->
      <g transform="translate(669.941419 527.238438) scale(0.1 -0.1)">
       <use xlink:href="#DejaVuSans-32"/>
       <use xlink:href="#DejaVuSans-30" x="63.623047"/>
       <use xlink:href="#DejaVuSans-32" x="127.246094"/>
       <use xlink:href="#DejaVuSans-36" x="190.869141"/>
       <use xlink:href="#DejaVuSans-2d" x="254.492188"/>
       <use xlink:href="#DejaVuSans-30" x="290.576172"/>
       <use xlink:href="#DejaVuSans-32" x="354.199219"/>
       <use xlink:href="#DejaVuSans-2d" x="417.822266"/>
       <use xlink:href="#DejaVuSans-31" x="453.90625"/>
       <use xlink:href="#DejaVuSans-35" x="517.529297"/>
      </g>
     </g>
    </g>
    <g id="xtick_5">
     <g id="line2d_5">
      <g>
       <use xlink:href="#m73474ebef2" x="859.040205" y="512.64" style="stroke: #000000; stroke-width: 0.8"/>
      </g>
     </g>
     <g id="text_5">
      <!-- 2026-03-01 -->
      <g transform="translate(829.982392 527.238438) scale(0.1 -0.1)">
       <defs>
        <path id="DejaVuSans-33" d="M 2597 2516 
Q 3050 2419 3304 2112 
Q 3559 1806 3559 1356 
Q 3559 666 3084 287 
Q 2609 -91 1734 -91 
Q 1441 -91 1130 -33 
Q 819 25 488 141 
L 488 750 
Q 750 597 1062 519 
Q 1375 441 1716 441 
Q 2309 441 2620 675 
Q 2931 909 2931 1356 
Q 2931 1769 2642 2001 
Q 2353 2234 1838 2234 
L 1294 2234 
L 1294 2753 
L 1863 2753 
Q 2328 2753 2575 2939 
Q 2822 3125 2822 3475 
Q 2822 3834 2567 4026 
Q 2313 4219 1838 4219 
Q 1578 4219 1281 4162 
Q 984 4106 628 3988 
L 628 4550 
Q 988 4650 1302 4700 
Q 1616 4750 1894 4750 
Q 2613 4750 3031 4423 
Q 3450 4097 3450 3541 
Q 3450 3153 3228 2886 
Q 3006 2619 2597 2516 
z
" transform="scale(0.015625)"/>
       </defs>
       <use xlink:href="#DejaVuSans-32"/>
       <use xlink:href="#DejaVuSans-30" x="63.623047"/>
       <use xlink:href="#DejaVuSans-32" x="127.246094"/>
       <use xlink:href="#DejaVuSans-36" x="190.869141"/>
       <use xlink:href="#DejaVuSans-2d" x="254.492188"/>
       <use xlink:href="#DejaVuSans-30" x="290.576172"/>
       <use xlink:href="#DejaVuSans-33" x="354.199219"/>
       <use xlink:href="#DejaVuSans-2d" x="417.822266"/>
       <use xlink:href="#DejaVuSans-30" x="453.90625"/>
       <use xlink:href="#DejaVuSans-31" x="517.529297"/>
      </g>
     </g>
    </g>
    <g id="xtick_6">
     <g id="line2d_6">
      <g>
       <use xlink:href="#m73474ebef2" x="1019.081178" y="512.64" style="stroke: #000000; stroke-width: 0.8"/>
      </g>
     </g>
     <g id="text_6">
      <!-- 2026-03-15 -->
      <g transform="translate(990.023365 527.238438) scale(0.1 -0.1)">
       <use xlink:href="#DejaVuSans-32"/>
       <use xlink:href="#DejaVuSans-30" x="63.623047"/>
       <use xlink:href="#DejaVuSans-32" x="127.246094"/>
       <use xlink:href="#DejaVuSans-36" x="190.869141"/>
       <use xlink:href="#DejaVuSans-2d" x="254.492188"/>
       <use xlink:href="#DejaVuSans-30" x="290.576172"/>
       <use xlink:href="#DejaVuSans-33" x="354.199219"/>
       <use xlink:href="#DejaVuSans-2d" x="417.822266"/>
       <use xlink:href="#DejaVuSans-31" x="453.90625"/>
       <use xlink:href="#DejaVuSans-35" x="517.529297"/>
      </g>
     </g>
    </g>
   </g>
   <g id="matplotlib.axis_2">
    <g id="ytick_1">
     <g id="line2d_7">
      <defs>
       <path id="m47cf4767c0" d="M 0 0 
L -3.5 0 
" style="stroke: #000000; stroke-width: 0.8"/>
      </defs>
      <g>
       <use xlink:href="#m47cf4767c0" x="144" y="505.611966" style="stroke: #000000; stroke-width: 0.8"/>
      </g>
     </g>
     <g id="text_7">
      <!-- 13000 -->
      <g transform="translate(105.1875 509.411185) scale(0.1 -0.1)">
       <use xlink:href="#DejaVuSans-31"/>
       <use xlink:href="#DejaVuSans-33" x="63.623047"/>
       <use xlink:href="#DejaVuSans-30" x="127.246094"/>
       <use xlink:href="#DejaVuSans-30" x="190.869141"/>
       <use xlink:href="#DejaVuSans-30" x="254.492188"/>
      </g>
     </g>
    </g>
    <g id="ytick_2">
     <g id="line2d_8">
      <g>
       <use xlink:href="#m47cf4767c0" x="144" y="444.815826" style="stroke: #000000; stroke-width: 0.8"/>
      </g>
     </g>
     <g id="text_8">
      <!-- 13250 -->
      <g transform="translate(105.1875 448.615045) scale(0.1 -0.1)">
       <use xlink:href="#DejaVuSans-31"/>
       <use xlink:href="#DejaVuSans-33" x="63.623047"/>
       <use xlink:href="#DejaVuSans-32" x="127.246094"/>
       <use xlink:href="#DejaVuSans-35" x="190.869141"/>
       <use xlink:href="#DejaVuSans-30" x="254.492188"/>
      </g>
     </g>
    </g>
    <g id="ytick_3">
     <g id="line2d_9">
      <g>
       <use xlink:href="#m47cf4767c0" x="144" y="384.019686" style="stroke: #000000; stroke-width: 0.8"/>
      </g>
     </g>
     <g id="text_9">
      <!-- 13500 -->
      <g transform="translate(105.1875 387.818905) scale(0.1 -0.1)">
       <use xlink:href="#DejaVuSans-31"/>
       <use xlink:href="#DejaVuSans-33" x="63.623047"/>
       <use xlink:href="#DejaVuSans-35" x="127.246094"/>
       <use xlink:href="#DejaVuSans-30" x="190.869141"/>
       <use xlink:href="#DejaVuSans-30" x="254.492188"/>
      </g>
     </g>
    </g>
    <g id="ytick_4">
     <g id="line2d_10">
      <g>
       <use xlink:href="#m47cf4767c0" x="144" y="323.223546" style="stroke: #000000; stroke-width: 0.8"/>
      </g>
     </g>
     <g id="text_10">
      <!-- 13750 -->
      <g transform="translate(105.1875 327.022765) scale(0.1 -0.1)">
       <defs>
        <path id="DejaVuSans-37" d="M 525 4666 
L 3525 4666 
L 3525 4397 
L 1831 0 
L 1172 0 
L 2766 4134 
L 525 4134 
L 525 4666 
z
" transform="scale(0.015625)"/>
       </defs>
       <use xlink:href="#DejaVuSans-31"/>
       <use xlink:href="#DejaVuSans-33" x="63.623047"/>
       <use xlink:href="#DejaVuSans-37" x="127.246094"/>
       <use xlink:href="#DejaVuSans-35" x="190.869141"/>
       <use xlink:href="#DejaVuSans-30" x="254.492188"/>
      </g>
     </g>
    </g>
    <g id="ytick_5">
     <g id="line2d_11">
      <g>
       <use xlink:href="#m47cf4767c0" x="144" y="262.427407" style="stroke: #000000; stroke-width: 0.8"/>
      </g>
     </g>
     <g id="text_11">
      <!-- 14000 -->
      <g transform="translate(105.1875 266.226625) scale(0.1 -0.1)">
       <defs>
        <path id="DejaVuSans-34" d="M 2419 4116 
L 825 1625 
L 2419 1625 
L 2419 4116 
z
M 2253 4666 
L 3047 4666 
L 3047 1625 
L 3713 1625 
L 3713 1100 
L 3047 1100 
L 3047 0 
L 2419 0 
L 2419 1100 
L 313 1100 
L 313 1709 
L 2253 4666 
z
" transform="scale(0.015625)"/>
       </defs>
       <use xlink:href="#DejaVuSans-31"/>
       <use xlink:href="#DejaVuSans-34" x="63.623047"/>
       <use xlink:href="#DejaVuSans-30" x="127.246094"/>
       <use xlink:href="#DejaVuSans-30" x="190.869141"/>
       <use xlink:href="#DejaVuSans-30" x="254.492188"/>
      </g>
     </g>
    </g>
    <g id="ytick_6">
     <g id="line2d_12">
      <g>
       <use xlink:href="#m47cf4767c0" x="144" y="201.631267" style="stroke: #000000; stroke-width: 0.8"/>
      </g>
     </g>
     <g id="text_12">
      <!-- 14250 -->
      <g transform="translate(105.1875 205.430485) scale(0.1 -0.1)">
       <use xlink:href="#DejaVuSans-31"/>
       <use xlink:href="#DejaVuSans-34" x="63.623047"/>
       <use xlink:href="#DejaVuSans-32" x="127.246094"/>
       <use xlink:href="#DejaVuSans-35" x="190.869141"/>
       <use xlink:href="#DejaVuSans-30" x="254.492188"/>
      </g>
     </g>
    </g>
    <g id="ytick_7">
     <g id="line2d_13">
      <g>
       <use xlink:href="#m47cf4767c0" x="144" y="140.835127" style="stroke: #000000; stroke-width: 0.8"/>
      </g>
     </g>
     <g id="text_13">
      <!-- 14500 -->
      <g transform="translate(105.1875 144.634345) scale(0.1 -0.1)">
       <use xlink:href="#DejaVuSans-31"/>
       <use xlink:href="#DejaVuSans-34" x="63.623047"/>
       <use xlink:href="#DejaVuSans-35" x="127.246094"/>
       <use xlink:href="#DejaVuSans-30" x="190.869141"/>
       <use xlink:href="#DejaVuSans-30" x="254.492188"/>
      </g>
     </g>
    </g>
    <g id="ytick_8">
     <g id="line2d_14">
      <g>
       <use xlink:href="#m47cf4767c0" x="144" y="80.038987" style="stroke: #000000; stroke-width: 0.8"/>
      </g>
     </g>
     <g id="text_14">
      <!-- 14750 -->
      <g transform="translate(105.1875 83.838205) scale(0.1 -0.1)">
       <use xlink:href="#DejaVuSans-31"/>
       <use xlink:href="#DejaVuSans-34" x="63.623047"/>
       <use xlink:href="#DejaVuSans-37" x="127.246094"/>
       <use xlink:href="#DejaVuSans-35" x="190.869141"/>
       <use xlink:href="#DejaVuSans-30" x="254.492188"/>
      </g>
     </g>
    </g>
   </g>
   <g id="line2d_15">
    <path d="M 184.581818 492.48 
L 196.013316 488.345862 
L 207.444814 481.536695 
L 218.876312 478.861665 
L 230.30781 477.645742 
L 241.739309 473.511604 
L 253.170807 469.863836 
L 264.602305 460.379638 
L 276.033803 455.515947 
L 287.465301 453.327286 
L 298.896799 452.840917 
L 310.328297 443.356719 
L 321.759795 437.277105 
L 333.191293 434.115706 
L 344.622791 426.3338 
L 356.054289 415.876864 
L 367.485787 414.904125 
L 378.917286 412.229095 
L 390.348784 405.663112 
L 401.780282 402.744897 
L 413.21178 390.585669 
L 424.643278 384.019686 
L 436.074776 378.183257 
L 447.506274 371.130905 
L 458.937772 370.158166 
L 470.36927 369.185428 
L 481.800768 360.430784 
L 493.232266 348.271556 
L 504.663764 340.48965 
L 516.095262 333.923667 
L 527.526761 332.950929 
L 538.958259 330.275899 
L 550.389757 325.412207 
L 561.821255 319.575778 
L 573.252753 317.630302 
L 584.684251 310.821134 
L 596.115749 306.686996 
L 607.547247 304.011966 
L 618.978745 294.527768 
L 630.410243 291.609554 
L 641.841741 283.341279 
L 653.273239 278.477587 
L 664.704738 275.559373 
L 676.136236 270.695682 
L 687.567734 268.507021 
L 698.999232 259.509192 
L 710.43073 247.836333 
L 721.862228 245.647672 
L 733.293726 240.783981 
L 744.725224 235.92029 
L 756.156722 231.542967 
L 767.58822 226.922461 
L 779.019718 219.626924 
L 790.451216 212.331387 
L 801.882714 201.874451 
L 813.314213 196.767575 
L 824.745711 182.662871 
L 836.177209 177.069626 
L 847.608707 174.151411 
L 859.040205 169.28772 
L 870.471703 162.721737 
L 881.903201 157.858046 
L 893.334699 150.562509 
L 904.766197 146.428372 
L 916.197695 140.835127 
L 927.629193 136.457805 
L 939.060691 133.296405 
L 950.49219 117.00304 
L 961.923688 112.382533 
L 973.355186 101.682413 
L 984.786684 93.657322 
L 996.218182 89.28 
" clip-path="url(#p79d06be498)" style="fill: none; stroke: #1f77b4; stroke-width: 1.5; stroke-linecap: square"/>
   </g>
   <g id="patch_3">
    <path d="M 144 512.64 
L 144 69.12 
" style="fill: none; stroke: #000000; stroke-width: 0.8; stroke-linejoin: miter; stroke-linecap: square"/>
   </g>
   <g id="patch_4">
    <path d="M 1036.8 512.64 
L 1036.8 69.12 
" style="fill: none; stroke: #000000; stroke-width: 0.8; stroke-linejoin: miter; stroke-linecap: square"/>
   </g>
   <g id="patch_5">
    <path d="M 144 512.64 
L 1036.8 512.64 
" style="fill: none; stroke: #000000; stroke-width: 0.8; stroke-linejoin: miter; stroke-linecap: square"/>
   </g>
   <g id="patch_6">
    <path d="M 144 69.12 
L 1036.8 69.12 
" style="fill: none; stroke: #000000; stroke-width: 0.8; stroke-linejoin: miter; stroke-linecap: square"/>
   </g>
   <g id="text_15">
    <!-- Number of AEDs in the OpenStreetMap database in Poland from 2026-01-01, day by day. As at: 2026-03-13 -->
    <g transform="translate(144 63.12) scale(0.14 -0.14)">
     <defs>
      <path id="DejaVuSans-4e" d="M 628 4666 
L 1478 4666 
L 3547 763 
L 3547 4666 
L 4159 4666 
L 4159 0 
L 3309 0 
L 1241 3903 
L 1241 0 
L 628 0 
L 628 4666 
z
" transform="scale(0.015625)"/>
      <path id="DejaVuSans-75" d="M 544 1381 
L 544 3500 
L 1119 3500 
L 1119 1403 
Q 1119 906 1312 657 
Q 1506 409 1894 409 
Q 2359 409 2629 706 
Q 2900 1003 2900 1516 
L 2900 3500 
L 3475 3500 
L 3475 0 
L 2900 0 
L 2900 538 
Q 2691 219 2414 64 
Q 2138 -91 1772 -91 
Q 1169 -91 856 284 
Q 544 659 544 1381 
z
M 1991 3584 
L 1991 3584 
z
" transform="scale(0.015625)"/>
      <path id="DejaVuSans-6d" d="M 3328 2828 
Q 3544 3216 3844 3400 
Q 4144 3584 4550 3584 
Q 5097 3584 5394 3201 
Q 5691 2819 5691 2113 
L 5691 0 
L 5113 0 
L 5113 2094 
Q 5113 2597 4934 2840 
Q 4756 3084 4391 3084 
Q 3944 3084 3684 2787 
Q 3425 2491 3425 1978 
L 3425 0 
L 2847 0 
L 2847 2094 
Q 2847 2600 2669 2842 
Q 2491 3084 2119 3084 
Q 1678 3084 1418 2786 
Q 1159 2488 1159 1978 
L 1159 0 
L 581 0 
L 581 3500 
L 1159 3500 
L 1159 2956 
Q 1356 3278 1631 3431 
Q 1906 3584 2284 3584 
Q 2666 3584 2933 3390 
Q 3200 3197 3328 2828 
z
" transform="scale(0.015625)"/>
      <path id="DejaVuSans-62" d="M 3116 1747 
Q 3116 2381 2855 2742 
Q 2594 3103 2138 3103 
Q 1681 3103 1420 2742 
Q 1159 2381 1159 1747 
Q 1159 1113 1420 752 
Q 1681 391 2138 391 
Q 2594 391 2855 752 
Q 3116 1113 3116 1747 
z
M 1159 2969 
Q 1341 3281 1617 3432 
Q 1894 3584 2278 3584 
Q 2916 3584 3314 3078 
Q 3713 2572 3713 1747 
Q 3713 922 3314 415 
Q 2916 -91 2278 -91 
Q 1894 -91 1617 61 
Q 1341 213 1159 525 
L 1159 0 
L 581 0 
L 581 4863 
L 1159 4863 
L 1159 2969 
z
" transform="scale(0.015625)"/>
      <path id="DejaVuSans-65" d="M 3597 1894 
L 3597 1613 
L 953 1613 
Q 991 1019 1311 708 
Q 1631 397 2203 397 
Q 2534 397 2845 478 
Q 3156 559 3463 722 
L 3463 178 
Q 3153 47 2828 -22 
Q 2503 -91 2169 -91 
Q 1331 -91 842 396 
Q 353 884 353 1716 
Q 353 2575 817 3079 
Q 1281 3584 2069 3584 
Q 2775 3584 3186 3129 
Q 3597 2675 3597 1894 
z
M 3022 2063 
Q 3016 2534 2758 2815 
Q 2500 3097 2075 3097 
Q 1594 3097 1305 2825 
Q 1016 2553 972 2059 
L 3022 2063 
z
" transform="scale(0.015625)"/>
      <path id="DejaVuSans-72" d="M 2631 2963 
Q 2534 3019 2420 3045 
Q 2306 3072 2169 3072 
Q 1681 3072 1420 2755 
Q 1159 2438 1159 1844 
L 1159 0 
L 581 0 
L 581 3500 
L 1159 3500 
L 1159 2956 
Q 1341 3275 1631 3429 
Q 1922 3584 2338 3584 
Q 2397 3584 2469 3576 
Q 2541 3569 2628 3553 
L 2631 2963 
z
" transform="scale(0.015625)"/>
      <path id="DejaVuSans-20" transform="scale(0.015625)"/>
      <path id="DejaVuSans-6f" d="M 1959 3097 
Q 1497 3097 1228 2736 
Q 959 2375 959 1747 
Q 959 1119 1226 758 
Q 1494 397 1959 397 
Q 2419 397 2687 759 
Q 2956 1122 2956 1747 
Q 2956 2369 2687 2733 
Q 2419 3097 1959 3097 
z
M 1959 3584 
Q 2709 3584 3137 3096 
Q 3566 2609 3566 1747 
Q 3566 888 3137 398 
Q 2709 -91 1959 -91 
Q 1206 -91 779 398 
Q 353 888 353 1747 
Q 353 2609 779 3096 
Q 1206 3584 1959 3584 
z
" transform="scale(0.015625)"/>
      <path id="DejaVuSans-66" d="M 2375 4863 
L 2375 4384 
L 1825 4384 
Q 1516 4384 1395 4259 
Q 1275 4134 1275 3809 
L 1275 3500 
L 2222 3500 
L 2222 3053 
L 1275 3053 
L 1275 0 
L 697 0 
L 697 3053 
L 147 3053 
L 147 3500 
L 697 3500 
L 697 3744 
Q 697 4328 969 4595 
Q 1241 4863 1831 4863 
L 2375 4863 
z
" transform="scale(0.015625)"/>
      <path id="DejaVuSans-41" d="M 2188 4044 
L 1331 1722 
L 3047 1722 
L 2188 4044 
z
M 1831 4666 
L 2547 4666 
L 4325 0 
L 3669 0 
L 3244 1197 
L 1141 1197 
L 716 0 
L 50 0 
L 1831 4666 
z
" transform="scale(0.015625)"/>
      <path id="DejaVuSans-45" d="M 628 4666 
L 3578 4666 
L 3578 4134 
L 1259 4134 
L 1259 2753 
L 3481 2753 
L 3481 2222 
L 1259 2222 
L 1259 531 
L 3634 531 
L 3634 0 
L 628 0 
L 628 4666 
z
" transform="scale(0.015625)"/>
      <path id="DejaVuSans-44" d="M 1259 4147 
L 1259 519 
L 2022 519 
Q 2988 519 3436 956 
Q 3884 1394 3884 2338 
Q 3884 3275 3436 3711 
Q 2988 4147 2022 4147 
L 1259 4147 
z
M 628 4666 
L 1925 4666 
Q 3281 4666 3915 4102 
Q 4550 3538 4550 2338 
Q 4550 1131 3912 565 
Q 3275 0 1925 0 
L 628 0 
L 628 4666 
z
" transform="scale(0.015625)"/>
      <path id="DejaVuSans-73" d="M 2834 3397 
L 2834 2853 
Q 2591 2978 2328 3040 
Q 2066 3103 1784 3103 
Q 1356 3103 1142 2972 
Q 928 2841 928 2578 
Q 928 2378 1081 2264 
Q 1234 2150 1697 2047 
L 1894 2003 
Q 2506 1872 2764 1633 
Q 3022 1394 3022 966 
Q 3022 478 2636 193 
Q 2250 -91 1575 -91 
Q 1294 -91 989 -36 
Q 684 19 347 128 
L 347 722 
Q 666 556 975 473 
Q 1284 391 1588 391 
Q 1994 391 2212 530 
Q 2431 669 2431 922 
Q 2431 1156 2273 1281 
Q 2116 1406 1581 1522 
L 1381 1569 
Q 847 1681 609 1914 
Q 372 2147 372 2553 
Q 372 3047 722 3315 
Q 1072 3584 1716 3584 
Q 2034 3584 2315 3537 
Q 2597 3491 2834 3397 
z
" transform="scale(0.015625)"/>
      <path id="DejaVuSans-69" d="M 603 3500 
L 1178 3500 
L 1178 0 
L 603 0 
L 603 3500 
z
M 603 4863 
L 1178 4863 
L 1178 4134 
L 603 4134 
L 603 4863 
z
" transform="scale(0.015625)"/>
      <path id="DejaVuSans-6e" d="M 3513 2113 
L 3513 0 
L 2938 0 
L 2938 2094 
Q 2938 2591 2744 2837 
Q 2550 3084 2163 3084 
Q 1697 3084 1428 2787 
Q 1159 2491 1159 1978 
L 1159 0 
L 581 0 
L 581 3500 
L 1159 3500 
L 1159 2956 
Q 1366 3272 1645 3428 
Q 1925 3584 2291 3584 
Q 2894 3584 3203 3211 
Q 3513 2838 3513 2113 
z
" transform="scale(0.015625)"/>
      <path id="DejaVuSans-74" d="M 1172 4494 
L 1172 3500 
L 2356 3500 
L 2356 3053 
L 1172 3053 
L 1172 1153 
Q 1172 725 1289 603 
Q 1406 481 1766 481 
L 2356 481 
L 2356 0 
L 1766 0 
Q 1100 0 847 248 
Q 594 497 594 1153 
L 594 3053 
L 172 3053 
L 172 3500 
L 594 3500 
L 594 4494 
L 1172 4494 
z
" transform="scale(0.015625)"/>
      <path id="DejaVuSans-68" d="M 3513 2113 
L 3513 0 
L 2938 0 
L 2938 2094 
Q 2938 2591 2744 2837 
Q 2550 3084 2163 3084 
Q 1697 3084 1428 2787 
Q 1159 2491 1159 1978 
L 1159 0 
L 581 0 
L 581 4863 
L 1159 4863 
L 1159 2956 
Q 1366 3272 1645 3428 
Q 1925 3584 2291 3584 
Q 2894 3584 3203 3211 
Q 3513 2838 3513 2113 
z
" transform="scale(0.015625)"/>
      <path id="DejaVuSans-4f" d="M 2522 4238 
Q 1834 4238 1429 3725 
Q 1025 3213 1025 2328 
Q 1025 1447 1429 934 
Q 1834 422 2522 422 
Q 3209 422 3611 934 
Q 4013 1447 4013 2328 
Q 4013 3213 3611 3725 
Q 3209 4238 2522 4238 
z
M 2522 4750 
Q 3503 4750 4090 4092 
Q 4678 3434 4678 2328 
Q 4678 1225 4090 567 
Q 3503 -91 2522 -91 
Q 1538 -91 948 565 
Q 359 1222 359 2328 
Q 359 3434 948 4092 
Q 1538 4750 2522 4750 
z
" transform="scale(0.015625)"/>
      <path id="DejaVuSans-70" d="M 1159 525 
L 1159 -1331 
L 581 -1331 
L 581 3500 
L 1159 3500 
L 1159 2969 
Q 1341 3281 1617 3432 
Q 1894 3584 2278 3584 
Q 2916 3584 3314 3078 
Q 3713 2572 3713 1747 
Q 3713 922 3314 415 
Q 2916 -91 2278 -91 
Q 1894 -91 1617 61 
Q 1341 213 1159 525 
z
M 3116 1747 
Q 3116 2381 2855 2742 
Q 2594 3103 2138 3103 
Q 1681 3103 1420 2742 
Q 1159 2381 1159 1747 
Q 1159 1113 1420 752 
Q 1681 391 2138 391 
Q 2594 391 2855 752 
Q 3116 1113 3116 1747 
z
" transform="scale(0.015625)"/>
      <path id="DejaVuSans-53" d="M 3425 4513 
L 3425 3897 
Q 3066 4069 2747 4153 
Q 2428 4238 2131 4238 
Q 1616 4238 1336 4038 
Q 1056 3838 1056 3469 
Q 1056 3159 1242 3001 
Q 1428 2844 1947 2747 
L 2328 2669 
Q 3034 2534 3370 2195 
Q 3706 1856 3706 1288 
Q 3706 609 3251 259 
Q 2797 -91 1919 -91 
Q 1588 -91 1214 -16 
Q 841 59 441 206 
L 441 856 
Q 825 641 1194 531 
Q 1563 422 1919 422 
Q 2459 422 2753 634 
Q 3047 847 3047 1241 
Q 3047 1584 2836 1778 
Q 2625 1972 2144 2069 
L 1759 2144 
Q 1053 2284 737 2584 
Q 422 2884 422 3419 
Q 422 4038 858 4394 
Q 1294 4750 2059 4750 
Q 2388 4750 2728 4690 
Q 3069 4631 3425 4513 
z
" transform="scale(0.015625)"/>
      <path id="DejaVuSans-4d" d="M 628 4666 
L 1569 4666 
L 2759 1491 
L 3956 4666 
L 4897 4666 
L 4897 0 
L 4281 0 
L 4281 4097 
L 3078 897 
L 2444 897 
L 1241 4097 
L 1241 0 
L 628 0 
L 628 4666 
z
" transform="scale(0.015625)"/>
      <path id="DejaVuSans-61" d="M 2194 1759 
Q 1497 1759 1228 1600 
Q 959 1441 959 1056 
Q 959 750 1161 570 
Q 1363 391 1709 391 
Q 2188 391 2477 730 
Q 2766 1069 2766 1631 
L 2766 1759 
L 2194 1759 
z
M 3341 1997 
L 3341 0 
L 2766 0 
L 2766 531 
Q 2569 213 2275 61 
Q 1981 -91 1556 -91 
Q 1019 -91 701 211 
Q 384 513 384 1019 
Q 384 1609 779 1909 
Q 1175 2209 1959 2209 
L 2766 2209 
L 2766 2266 
Q 2766 2663 2505 2880 
Q 2244 3097 1772 3097 
Q 1472 3097 1187 3025 
Q 903 2953 641 2809 
L 641 3341 
Q 956 3463 1253 3523 
Q 1550 3584 1831 3584 
Q 2591 3584 2966 3190 
Q 3341 2797 3341 1997 
z
" transform="scale(0.015625)"/>
      <path id="DejaVuSans-64" d="M 2906 2969 
L 2906 4863 
L 3481 4863 
L 3481 0 
L 2906 0 
L 2906 525 
Q 2725 213 2448 61 
Q 2172 -91 1784 -91 
Q 1150 -91 751 415 
Q 353 922 353 1747 
Q 353 2572 751 3078 
Q 1150 3584 1784 3584 
Q 2172 3584 2448 3432 
Q 2725 3281 2906 2969 
z
M 947 1747 
Q 947 1113 1208 752 
Q 1469 391 1925 391 
Q 2381 391 2643 752 
Q 2906 1113 2906 1747 
Q 2906 2381 2643 2742 
Q 2381 3103 1925 3103 
Q 1469 3103 1208 2742 
Q 947 2381 947 1747 
z
" transform="scale(0.015625)"/>
      <path id="DejaVuSans-50" d="M 1259 4147 
L 1259 2394 
L 2053 2394 
Q 2494 2394 2734 2622 
Q 2975 2850 2975 3272 
Q 2975 3691 2734 3919 
Q 2494 4147 2053 4147 
L 1259 4147 
z
M 628 4666 
L 2053 4666 
Q 2838 4666 3239 4311 
Q 3641 3956 3641 3272 
Q 3641 2581 3239 2228 
Q 2838 1875 2053 1875 
L 1259 1875 
L 1259 0 
L 628 0 
L 628 4666 
z
" transform="scale(0.015625)"/>
      <path id="DejaVuSans-6c" d="M 603 4863 
L 1178 4863 
L 1178 0 
L 603 0 
L 603 4863 
z
" transform="scale(0.015625)"/>
      <path id="DejaVuSans-2c" d="M 750 794 
L 1409 794 
L 1409 256 
L 897 -744 
L 494 -744 
L 750 256 
L 750 794 
z
" transform="scale(0.015625)"/>
      <path id="DejaVuSans-79" d="M 2059 -325 
Q 1816 -950 1584 -1140 
Q 1353 -1331 966 -1331 
L 506 -1331 
L 506 -850 
L 844 -850 
Q 1081 -850 1212 -737 
Q 1344 -625 1503 -206 
L 1606 56 
L 191 3500 
L 800 3500 
L 1894 763 
L 2988 3500 
L 3597 3500 
L 2059 -325 
z
" transform="scale(0.015625)"/>
      <path id="DejaVuSans-2e" d="M 684 794 
L 1344 794 
L 1344 0 
L 684 0 
L 684 794 
z
" transform="scale(0.015625)"/>
      <path id="DejaVuSans-3a" d="M 750 794 
L 1409 794 
L 1409 0 
L 750 0 
L 750 794 
z
M 750 3309 
L 1409 3309 
L 1409 2516 
L 750 2516 
L 750 3309 
z
" transform="scale(0.015625)"/>
     </defs>
     <use xlink:href="#DejaVuSans-4e"/>
     <use xlink:href="#DejaVuSans-75" x="74.804688"/>
     <use xlink:href="#DejaVuSans-6d" x="138.183594"/>
     <use xlink:href="#DejaVuSans-62" x="235.595703"/>
     <use xlink:href="#DejaVuSans-65" x="299.072266"/>
     <use xlink:href="#DejaVuSans-72" x="360.595703"/>
     <use xlink:href="#DejaVuSans-20" x="401.708984"/>
     <use xlink:href="#DejaVuSans-6f" x="433.496094"/>
     <use xlink:href="#DejaVuSans-66" x="494.677734"/>
     <use xlink:href="#DejaVuSans-20" x="529.882812"/>
     <use xlink:href="#DejaVuSans-41" x="561.669922"/>
     <use xlink:href="#DejaVuSans-45" x="630.078125"/>
     <use xlink:href="#DejaVuSans-44" x="693.261719"/>
     <use xlink:href="#DejaVuSans-73" x="770.263672"/>
     <use xlink:href="#DejaVuSans-20" x="822.363281"/>
     <use xlink:href="#DejaVuSans-69" x="854.150391"/>
     <use xlink:href="#DejaVuSans-6e" x="881.933594"/>
     <use xlink:href="#DejaVuSans-20" x="945.3125"/>
     <use xlink:href="#DejaVuSans-74" x="977.099609"/>
     <use xlink:href="#DejaVuSans-68" x="1016.308594"/>
     <use xlink:href="#DejaVuSans-65" x="1079.6875"/>
     <use xlink:href="#DejaVuSans-20" x="1141.210938"/>
     <use xlink:href="#DejaVuSans-4f" x="1172.998047"/>
     <use xlink:href="#DejaVuSans-70" x="1251.708984"/>
     <use xlink:href="#DejaVuSans-65" x="1315.185547"/>
     <use xlink:href="#DejaVuSans-6e" x="1376.708984"/>
     <use xlink:href="#DejaVuSans-53" x="1440.087891"/>
     <use xlink:href="#DejaVuSans-74" x="1503.564453"/>
     <use xlink:href="#DejaVuSans-72" x="1542.773438"/>
     <use xlink:href="#DejaVuSans-65" x="1581.636719"/>
     <use xlink:href="#DejaVuSans-65" x="1643.160156"/>
     <use xlink:href="#DejaVuSans-74" x="1704.683594"/>
     <use xlink:href="#DejaVuSans-4d" x="1743.892578"/>
     <use xlink:href="#DejaVuSans-61" x="1830.171875"/>
     <use xlink:href="#DejaVuSans-70" x="1891.451172"/>
     <use xlink:href="#DejaVuSans-20" x="1954.927734"/>
     <use xlink:href="#DejaVuSans-64" x="1986.714844"/>
     <use xlink:href="#DejaVuSans-61" x="2050.191406"/>
     <use xlink:href="#DejaVuSans-74" x="2111.470703"/>
     <use xlink:href="#DejaVuSans-61" x="2150.679688"/>
     <use xlink:href="#DejaVuSans-62" x="2211.958984"/>
     <use xlink:href="#DejaVuSans-61" x="2275.435547"/>
     <use xlink:href="#DejaVuSans-73" x="2336.714844"/>
     <use xlink:href="#DejaVuSans-65" x="2388.814453"/>
     <use xlink:href="#DejaVuSans-20" x="2450.337891"/>
     <use xlink:href="#DejaVuSans-69" x="2482.125"/>
     <use xlink:href="#DejaVuSans-6e" x="2509.908203"/>
     <use xlink:href="#DejaVuSans-20" x="2573.287109"/>
     <use xlink:href="#DejaVuSans-50" x="2605.074219"/>
     <use xlink:href="#DejaVuSans-6f" x="2661.751953"/>
     <use xlink:href="#DejaVuSans-6c" x="2722.933594"/>
     <use xlink:href="#DejaVuSans-61" x="2750.716797"/>
     <use xlink:href="#DejaVuSans-6e" x="2811.996094"/>
     <use xlink:href="#DejaVuSans-64" x="2875.375"/>
     <use xlink:href="#DejaVuSans-20" x="2938.851562"/>
     <use xlink:href="#DejaVuSans-66" x="2970.638672"/>
     <use xlink:href="#DejaVuSans-72" x="3005.84375"/>
     <use xlink:href="#DejaVuSans-6f" x="3044.707031"/>
     <use xlink:href="#DejaVuSans-6d" x="3105.888672"/>
     <use xlink:href="#DejaVuSans-20" x="3203.300781"/>
     <use xlink:href="#DejaVuSans-32" x="3235.087891"/>
     <use xlink:href="#DejaVuSans-30" x="3298.710938"/>
     <use xlink:href="#DejaVuSans-32" x="3362.333984"/>
     <use xlink:href="#DejaVuSans-36" x="3425.957031"/>
     <use xlink:href="#DejaVuSans-2d" x="3489.580078"/>
     <use xlink:href="#DejaVuSans-30" x="3525.664062"/>
     <use xlink:href="#DejaVuSans-31" x="3589.287109"/>
     <use xlink:href="#DejaVuSans-2d" x="3652.910156"/>
     <use xlink:href="#DejaVuSans-30" x="3688.994141"/>
     <use xlink:href="#DejaVuSans-31" x="3752.617188"/>
     <use xlink:href="#DejaVuSans-2c" x="3816.240234"/>
     <use xlink:href="#DejaVuSans-20" x="3848.027344"/>
     <use xlink:href="#DejaVuSans-64" x="3879.814453"/>
     <use xlink:href="#DejaVuSans-61" x="3943.291016"/>
     <use xlink:href="#DejaVuSans-79" x="4004.570312"/>
     <use xlink:href="#DejaVuSans-20" x="4063.75"/>
     <use xlink:href="#DejaVuSans-62" x="4095.537109"/>
     <use xlink:href="#DejaVuSans-79" x="4159.013672"/>
     <use xlink:href="#DejaVuSans-20" x="4218.193359"/>
     <use xlink:href="#DejaVuSans-64" x="4249.980469"/>
     <use xlink:href="#DejaVuSans-61" x="4313.457031"/>
     <use xlink:href="#DejaVuSans-79" x="4374.736328"/>
     <use xlink:href="#DejaVuSans-2e" x="4419.666016"/>
     <use xlink:href="#DejaVuSans-20" x="4451.453125"/>
     <use xlink:href="#DejaVuSans-41" x="4483.240234"/>
     <use xlink:href="#DejaVuSans-73" x="4551.648438"/>
     <use xlink:href="#DejaVuSans-20" x="4603.748047"/>
     <use xlink:href="#DejaVuSans-61" x="4635.535156"/>
     <use xlink:href="#DejaVuSans-74" x="4696.814453"/>
     <use xlink:href="#DejaVuSans-3a" x="4736.023438"/>
     <use xlink:href="#DejaVuSans-20" x="4769.714844"/>
     <use xlink:href="#DejaVuSans-32" x="4801.501953"/>
     <use xlink:href="#DejaVuSans-30" x="4865.125"/>
     <use xlink:href="#DejaVuSans-32" x="4928.748047"/>
     <use xlink:href="#DejaVuSans-36" x="4992.371094"/>
     <use xlink:href="#DejaVuSans-2d" x="5055.994141"/>
     <use xlink:href="#DejaVuSans-30" x="5092.078125"/>
     <use xlink:href="#DejaVuSans-33" x="5155.701172"/>
     <use xlink:href="#DejaVuSans-2d" x="5219.324219"/>
     <use xlink:href="#DejaVuSans-31" x="5255.408203"/>
     <use xlink:href="#DejaVuSans-33" x="5319.03125"/>
    </g>
   </g>
  </g>
 </g>
 <defs>
  <clipPath id="p79d06be498">
   <rect x="144" y="69.12" width="892.8" height="443.52"/>
  </clipPath>
 </defs>
</svg>
