<?xml version="1.0" encoding="utf-8" standalone="no"?>
<!DOCTYPE svg PUBLIC "-//W3C//DTD SVG 1.1//EN"
  "http://www.w3.org/Graphics/SVG/1.1/DTD/svg11.dtd">
<svg xmlns:xlink="http://www.w3.org/1999/xlink" width="1152pt" height="576pt" viewBox="0 0 1152 576" xmlns="http://www.w3.org/2000/svg" version="1.1">
 <metadata>
  <rdf:RDF xmlns:dc="http://purl.org/dc/elements/1.1/" xmlns:cc="http://creativecommons.org/ns#" xmlns:rdf="http://www.w3.org/1999/02/22-rdf-syntax-ns#">
   <cc:Work>
    <dc:type rdf:resource="http://purl.org/dc/dcmitype/StillImage"/>
    <dc:date>1980-01-01T00:00:00+00:00</dc:date>
    <dc:format>image/svg+xml</dc:format>
    <dc:creator>
     <cc:Agent>
      <dc:title>Matplotlib v3.9.1, https://matplotlib.org/</dc:title>
     </cc:Agent>
    </dc:creator>
   </cc:Work>
  </rdf:RDF>
 </metadata>
 <defs>
  <style type="text/css">*{stroke-linejoin: round; stroke-linecap: butt}</style>
 </defs>
 <g id="figure_1">
  <g id="patch_1">
   <path d="M 0 576 
L 1152 576 
L 1152 0 
L 0 0 
z
" style="fill: #ffffff"/>
  </g>
  <g id="axes_1">
   <g id="patch_2">
    <path d="M 144 512.64 
L 1036.8 512.64 
L 1036.8 69.12 
L 144 69.12 
z
" style="fill: #ffffff"/>
   </g>
   <g id="PathCollection_1">
    <path d="M 184.581818 496.352983 
C 185.608945 496.352983 186.594142 495.944901 187.320431 495.218613 
C 188.04672 494.492324 188.454802 493.507127 188.454802 492.48 
C 188.454802 491.452873 188.04672 490.467676 187.320431 489.741387 
C 186.594142 489.015099 185.608945 488.607017 184.581818 488.607017 
C 183.554691 488.607017 182.569494 489.015099 181.843205 489.741387 
C 181.116917 490.467676 180.708835 491.452873 180.708835 492.48 
C 180.708835 493.507127 181.116917 494.492324 181.843205 495.218613 
C 182.569494 495.944901 183.554691 496.352983 184.581818 496.352983 
z
" clip-path="url(#pd5640d8ff4)" style="fill: #1f77b4; fill-opacity: 0.3; stroke: #1f77b4; stroke-opacity: 0.3"/>
    <path d="M 202.226087 492.009569 
C 204.005123 492.009569 205.711535 491.30275 206.969503 490.044781 
C 208.227472 488.786813 208.934291 487.080401 208.934291 485.301365 
C 208.934291 483.522329 208.227472 481.815917 206.969503 480.557948 
C 205.711535 479.29998 204.005123 478.593161 202.226087 478.593161 
C 200.44705 478.593161 198.740639 479.29998 197.48267 480.557948 
C 196.224702 481.815917 195.517883 483.522329 195.517883 485.301365 
C 195.517883 487.080401 196.224702 488.786813 197.48267 490.044781 
C 198.740639 491.30275 200.44705 492.009569 202.226087 492.009569 
z
" clip-path="url(#pd5640d8ff4)" style="fill: #1f77b4; fill-opacity: 0.3; stroke: #1f77b4; stroke-opacity: 0.3"/>
    <path d="M 219.870356 482.5012 
C 222.089204 482.5012 224.217473 481.619642 225.786436 480.050679 
C 227.355398 478.481716 228.236956 476.353448 228.236956 474.134599 
C 228.236956 471.915751 227.355398 469.787482 225.786436 468.21852 
C 224.217473 466.649557 222.089204 465.767999 219.870356 465.767999 
C 217.651507 465.767999 215.523239 466.649557 213.954276 468.21852 
C 212.385313 469.787482 211.503755 471.915751 211.503755 474.134599 
C 211.503755 476.353448 212.385313 478.481716 213.954276 480.050679 
C 215.523239 481.619642 217.651507 482.5012 219.870356 482.5012 
z
" clip-path="url(#pd5640d8ff4)" style="fill: #1f77b4; fill-opacity: 0.3; stroke: #1f77b4; stroke-opacity: 0.3"/>
    <path d="M 237.514625 474.9917 
C 238.905361 474.9917 240.239324 474.439154 241.222724 473.455755 
C 242.206123 472.472356 242.758669 471.138393 242.758669 469.747656 
C 242.758669 468.356919 242.206123 467.022956 241.222724 466.039557 
C 240.239324 465.056157 238.905361 464.503612 237.514625 464.503612 
C 236.123888 464.503612 234.789925 465.056157 233.806525 466.039557 
C 232.823126 467.022956 232.27058 468.356919 232.27058 469.747656 
C 232.27058 471.138393 232.823126 472.472356 233.806525 473.455755 
C 234.789925 474.439154 236.123888 474.9917 237.514625 474.9917 
z
" clip-path="url(#pd5640d8ff4)" style="fill: #1f77b4; fill-opacity: 0.3; stroke: #1f77b4; stroke-opacity: 0.3"/>
    <path d="M 255.158893 471.289124 
C 256.096528 471.289124 256.995886 470.916598 257.658893 470.253591 
C 258.321901 469.590583 258.694427 468.691225 258.694427 467.753591 
C 258.694427 466.815956 258.321901 465.916598 257.658893 465.253591 
C 256.995886 464.590583 256.096528 464.218057 255.158893 464.218057 
C 254.221259 464.218057 253.321901 464.590583 252.658893 465.253591 
C 251.995886 465.916598 251.623359 466.815956 251.623359 467.753591 
C 251.623359 468.691225 251.995886 469.590583 252.658893 470.253591 
C 253.321901 470.916598 254.221259 471.289124 255.158893 471.289124 
z
" clip-path="url(#pd5640d8ff4)" style="fill: #1f77b4; fill-opacity: 0.3; stroke: #1f77b4; stroke-opacity: 0.3"/>
    <path d="M 272.803162 467.492971 
C 274.532075 467.492971 276.190408 466.806067 277.412934 465.583541 
C 278.63546 464.361015 279.322364 462.702681 279.322364 460.973769 
C 279.322364 459.244856 278.63546 457.586522 277.412934 456.363996 
C 276.190408 455.14147 274.532075 454.454566 272.803162 454.454566 
C 271.074249 454.454566 269.415916 455.14147 268.19339 456.363996 
C 266.970864 457.586522 266.28396 459.244856 266.28396 460.973769 
C 266.28396 462.702681 266.970864 464.361015 268.19339 465.583541 
C 269.415916 466.806067 271.074249 467.492971 272.803162 467.492971 
z
" clip-path="url(#pd5640d8ff4)" style="fill: #1f77b4; fill-opacity: 0.3; stroke: #1f77b4; stroke-opacity: 0.3"/>
    <path d="M 290.447431 460.917315 
C 292.124723 460.917315 293.733542 460.25092 294.919567 459.064896 
C 296.105591 457.878871 296.771986 456.270051 296.771986 454.59276 
C 296.771986 452.915468 296.105591 451.306648 294.919567 450.120624 
C 293.733542 448.934599 292.124723 448.268204 290.447431 448.268204 
C 288.770139 448.268204 287.161319 448.934599 285.975295 450.120624 
C 284.789271 451.306648 284.122876 452.915468 284.122876 454.59276 
C 284.122876 456.270051 284.789271 457.878871 285.975295 459.064896 
C 287.161319 460.25092 288.770139 460.917315 290.447431 460.917315 
z
" clip-path="url(#pd5640d8ff4)" style="fill: #1f77b4; fill-opacity: 0.3; stroke: #1f77b4; stroke-opacity: 0.3"/>
    <path d="M 308.0917 448.640237 
C 310.743731 448.640237 313.287498 447.586574 315.162767 445.711305 
C 317.038037 443.836036 318.0917 441.292268 318.0917 438.640237 
C 318.0917 435.988206 317.038037 433.444439 315.162767 431.56917 
C 313.287498 429.6939 310.743731 428.640237 308.0917 428.640237 
C 305.439669 428.640237 302.895901 429.6939 301.020632 431.56917 
C 299.145363 433.444439 298.0917 435.988206 298.0917 438.640237 
C 298.0917 441.292268 299.145363 443.836036 301.020632 445.711305 
C 302.895901 447.586574 305.439669 448.640237 308.0917 448.640237 
z
" clip-path="url(#pd5640d8ff4)" style="fill: #1f77b4; fill-opacity: 0.3; stroke: #1f77b4; stroke-opacity: 0.3"/>
    <path d="M 325.735968 437.735044 
C 327.611237 437.735044 329.409953 436.989992 330.735968 435.663976 
C 332.061984 434.337961 332.807036 432.539245 332.807036 430.663976 
C 332.807036 428.788707 332.061984 426.989992 330.735968 425.663976 
C 329.409953 424.337961 327.611237 423.592908 325.735968 423.592908 
C 323.860699 423.592908 322.061984 424.337961 320.735968 425.663976 
C 319.409953 426.989992 318.664901 428.788707 318.664901 430.663976 
C 318.664901 432.539245 319.409953 434.337961 320.735968 435.663976 
C 322.061984 436.989992 323.860699 437.735044 325.735968 437.735044 
z
" clip-path="url(#pd5640d8ff4)" style="fill: #1f77b4; fill-opacity: 0.3; stroke: #1f77b4; stroke-opacity: 0.3"/>
    <path d="M 343.380237 431.675846 
C 344.706253 431.675846 345.978137 431.149014 346.915771 430.21138 
C 347.853406 429.273745 348.380237 428.001861 348.380237 426.675846 
C 348.380237 425.34983 347.853406 424.077946 346.915771 423.140312 
C 345.978137 422.202677 344.706253 421.675846 343.380237 421.675846 
C 342.054222 421.675846 340.782338 422.202677 339.844703 423.140312 
C 338.907069 424.077946 338.380237 425.34983 338.380237 426.675846 
C 338.380237 428.001861 338.907069 429.273745 339.844703 430.21138 
C 340.782338 431.149014 342.054222 431.675846 343.380237 431.675846 
z
" clip-path="url(#pd5640d8ff4)" style="fill: #1f77b4; fill-opacity: 0.3; stroke: #1f77b4; stroke-opacity: 0.3"/>
    <path d="M 361.024506 428.114288 
C 361.617518 428.114288 362.186322 427.878681 362.605645 427.459358 
C 363.024968 427.040035 363.260574 426.471232 363.260574 425.87822 
C 363.260574 425.285207 363.024968 424.716404 362.605645 424.297081 
C 362.186322 423.877758 361.617518 423.642152 361.024506 423.642152 
C 360.431494 423.642152 359.86269 423.877758 359.443367 424.297081 
C 359.024044 424.716404 358.788438 425.285207 358.788438 425.87822 
C 358.788438 426.471232 359.024044 427.040035 359.443367 427.459358 
C 359.86269 427.878681 360.431494 428.114288 361.024506 428.114288 
z
" clip-path="url(#pd5640d8ff4)" style="fill: #1f77b4; fill-opacity: 0.3; stroke: #1f77b4; stroke-opacity: 0.3"/>
    <path d="M 378.668775 418.818534 
C 381.450248 418.818534 384.118174 417.713442 386.084973 415.746644 
C 388.051772 413.779845 389.156863 411.111919 389.156863 408.330445 
C 389.156863 405.548972 388.051772 402.881045 386.084973 400.914247 
C 384.118174 398.947448 381.450248 397.842357 378.668775 397.842357 
C 375.887301 397.842357 373.219375 398.947448 371.252576 400.914247 
C 369.285777 402.881045 368.180686 405.548972 368.180686 408.330445 
C 368.180686 411.111919 369.285777 413.779845 371.252576 415.746644 
C 373.219375 417.713442 375.887301 418.818534 378.668775 418.818534 
z
" clip-path="url(#pd5640d8ff4)" style="fill: #1f77b4; fill-opacity: 0.3; stroke: #1f77b4; stroke-opacity: 0.3"/>
    <path d="M 396.313043 406.265813 
C 398.409658 406.265813 400.420683 405.432819 401.903213 403.950289 
C 403.385744 402.467758 404.218738 400.456733 404.218738 398.360119 
C 404.218738 396.263504 403.385744 394.252479 401.903213 392.769949 
C 400.420683 391.287418 398.409658 390.454425 396.313043 390.454425 
C 394.216429 390.454425 392.205404 391.287418 390.722874 392.769949 
C 389.240343 394.252479 388.407349 396.263504 388.407349 398.360119 
C 388.407349 400.456733 389.240343 402.467758 390.722874 403.950289 
C 392.205404 405.432819 394.216429 406.265813 396.313043 406.265813 
z
" clip-path="url(#pd5640d8ff4)" style="fill: #1f77b4; fill-opacity: 0.3; stroke: #1f77b4; stroke-opacity: 0.3"/>
    <path d="M 413.957312 398.876426 
C 415.469203 398.876426 416.919373 398.275746 417.988441 397.206678 
C 419.057509 396.13761 419.658189 394.687439 419.658189 393.175549 
C 419.658189 391.663659 419.057509 390.213488 417.988441 389.14442 
C 416.919373 388.075352 415.469203 387.474672 413.957312 387.474672 
C 412.445422 387.474672 410.995251 388.075352 409.926183 389.14442 
C 408.857116 390.213488 408.256435 391.663659 408.256435 393.175549 
C 408.256435 394.687439 408.857116 396.13761 409.926183 397.206678 
C 410.995251 398.275746 412.445422 398.876426 413.957312 398.876426 
z
" clip-path="url(#pd5640d8ff4)" style="fill: #1f77b4; fill-opacity: 0.3; stroke: #1f77b4; stroke-opacity: 0.3"/>
    <path d="M 431.601581 389.357803 
C 433.97363 389.357803 436.248845 388.415378 437.926136 386.738086 
C 439.603428 385.060795 440.545853 382.78558 440.545853 380.413531 
C 440.545853 378.041483 439.603428 375.766268 437.926136 374.088976 
C 436.248845 372.411684 433.97363 371.469259 431.601581 371.469259 
C 429.229532 371.469259 426.954317 372.411684 425.277026 374.088976 
C 423.599734 375.766268 422.657309 378.041483 422.657309 380.413531 
C 422.657309 382.78558 423.599734 385.060795 425.277026 386.738086 
C 426.954317 388.415378 429.229532 389.357803 431.601581 389.357803 
z
" clip-path="url(#pd5640d8ff4)" style="fill: #1f77b4; fill-opacity: 0.3; stroke: #1f77b4; stroke-opacity: 0.3"/>
    <path d="M 449.24585 373.63279 
C 451.995534 373.63279 454.632969 372.540329 456.577289 370.596009 
C 458.521609 368.651688 459.61407 366.014254 459.61407 363.26457 
C 459.61407 360.514885 458.521609 357.877451 456.577289 355.933131 
C 454.632969 353.98881 451.995534 352.896349 449.24585 352.896349 
C 446.496166 352.896349 443.858731 353.98881 441.914411 355.933131 
C 439.97009 357.877451 438.877629 360.514885 438.877629 363.26457 
C 438.877629 366.014254 439.97009 368.651688 441.914411 370.596009 
C 443.858731 372.540329 446.496166 373.63279 449.24585 373.63279 
z
" clip-path="url(#pd5640d8ff4)" style="fill: #1f77b4; fill-opacity: 0.3; stroke: #1f77b4; stroke-opacity: 0.3"/>
    <path d="M 466.890119 364.831595 
C 467.728764 364.831595 468.533174 364.498398 469.126187 363.905385 
C 469.719199 363.312373 470.052396 362.507963 470.052396 361.669318 
C 470.052396 360.830672 469.719199 360.026262 469.126187 359.43325 
C 468.533174 358.840237 467.728764 358.50704 466.890119 358.50704 
C 466.051473 358.50704 465.247063 358.840237 464.654051 359.43325 
C 464.061038 360.026262 463.727841 360.830672 463.727841 361.669318 
C 463.727841 362.507963 464.061038 363.312373 464.654051 363.905385 
C 465.247063 364.498398 466.051473 364.831595 466.890119 364.831595 
z
" clip-path="url(#pd5640d8ff4)" style="fill: #1f77b4; fill-opacity: 0.3; stroke: #1f77b4; stroke-opacity: 0.3"/>
    <path d="M 484.534387 362.526418 
C 485.925124 362.526418 487.259087 361.973873 488.242487 360.990473 
C 489.225886 360.007074 489.778432 358.673111 489.778432 357.282374 
C 489.778432 355.891637 489.225886 354.557674 488.242487 353.574275 
C 487.259087 352.590875 485.925124 352.03833 484.534387 352.03833 
C 483.143651 352.03833 481.809688 352.590875 480.826288 353.574275 
C 479.842889 354.557674 479.290343 355.891637 479.290343 357.282374 
C 479.290343 358.673111 479.842889 360.007074 480.826288 360.990473 
C 481.809688 361.973873 483.143651 362.526418 484.534387 362.526418 
z
" clip-path="url(#pd5640d8ff4)" style="fill: #1f77b4; fill-opacity: 0.3; stroke: #1f77b4; stroke-opacity: 0.3"/>
    <path d="M 502.178656 354.73026 
C 504.357522 354.73026 506.44744 353.864587 507.988131 352.323896 
C 509.528822 350.783206 510.394494 348.693287 510.394494 346.514421 
C 510.394494 344.335556 509.528822 342.245637 507.988131 340.704946 
C 506.44744 339.164256 504.357522 338.298583 502.178656 338.298583 
C 499.99979 338.298583 497.909872 339.164256 496.369181 340.704946 
C 494.82849 342.245637 493.962818 344.335556 493.962818 346.514421 
C 493.962818 348.693287 494.82849 350.783206 496.369181 352.323896 
C 497.909872 353.864587 499.99979 354.73026 502.178656 354.73026 
z
" clip-path="url(#pd5640d8ff4)" style="fill: #1f77b4; fill-opacity: 0.3; stroke: #1f77b4; stroke-opacity: 0.3"/>
    <path d="M 519.822925 346.847118 
C 521.391888 346.847118 522.896801 346.223763 524.006225 345.114339 
C 525.115649 344.004915 525.739005 342.500001 525.739005 340.931039 
C 525.739005 339.362076 525.115649 337.857163 524.006225 336.747738 
C 522.896801 335.638314 521.391888 335.014959 519.822925 335.014959 
C 518.253962 335.014959 516.749049 335.638314 515.639625 336.747738 
C 514.530201 337.857163 513.906845 339.362076 513.906845 340.931039 
C 513.906845 342.500001 514.530201 344.004915 515.639625 345.114339 
C 516.749049 346.223763 518.253962 346.847118 519.822925 346.847118 
z
" clip-path="url(#pd5640d8ff4)" style="fill: #1f77b4; fill-opacity: 0.3; stroke: #1f77b4; stroke-opacity: 0.3"/>
    <path d="M 537.467194 332.170726 
C 540.432254 332.170726 543.276273 330.992695 545.372888 328.89608 
C 547.469502 326.799465 548.647534 323.955447 548.647534 320.990386 
C 548.647534 318.025325 547.469502 315.181306 545.372888 313.084692 
C 543.276273 310.988077 540.432254 309.810046 537.467194 309.810046 
C 534.502133 309.810046 531.658114 310.988077 529.5615 313.084692 
C 527.464885 315.181306 526.286854 318.025325 526.286854 320.990386 
C 526.286854 323.955447 527.464885 326.799465 529.5615 328.89608 
C 531.658114 330.992695 534.502133 332.170726 537.467194 332.170726 
z
" clip-path="url(#pd5640d8ff4)" style="fill: #1f77b4; fill-opacity: 0.3; stroke: #1f77b4; stroke-opacity: 0.3"/>
    <path d="M 555.111462 318.438272 
C 557.290328 318.438272 559.380247 317.572599 560.920937 316.031908 
C 562.461628 314.491217 563.327301 312.401299 563.327301 310.222433 
C 563.327301 308.043567 562.461628 305.953649 560.920937 304.412958 
C 559.380247 302.872267 557.290328 302.006595 555.111462 302.006595 
C 552.932597 302.006595 550.842678 302.872267 549.301987 304.412958 
C 547.761297 305.953649 546.895624 308.043567 546.895624 310.222433 
C 546.895624 312.401299 547.761297 314.491217 549.301987 316.031908 
C 550.842678 317.572599 552.932597 318.438272 555.111462 318.438272 
z
" clip-path="url(#pd5640d8ff4)" style="fill: #1f77b4; fill-opacity: 0.3; stroke: #1f77b4; stroke-opacity: 0.3"/>
    <path d="M 572.755731 307.670319 
C 574.934597 307.670319 577.024515 306.804647 578.565206 305.263956 
C 580.105897 303.723265 580.97157 301.633347 580.97157 299.454481 
C 580.97157 297.275615 580.105897 295.185696 578.565206 293.645006 
C 577.024515 292.104315 574.934597 291.238642 572.755731 291.238642 
C 570.576865 291.238642 568.486947 292.104315 566.946256 293.645006 
C 565.405565 295.185696 564.539893 297.275615 564.539893 299.454481 
C 564.539893 301.633347 565.405565 303.723265 566.946256 305.263956 
C 568.486947 306.804647 570.576865 307.670319 572.755731 307.670319 
z
" clip-path="url(#pd5640d8ff4)" style="fill: #1f77b4; fill-opacity: 0.3; stroke: #1f77b4; stroke-opacity: 0.3"/>
    <path d="M 590.4 296.403595 
C 592.658123 296.403595 594.824063 295.506433 596.420797 293.909699 
C 598.017531 292.312965 598.914693 290.147025 598.914693 287.888902 
C 598.914693 285.630779 598.017531 283.464839 596.420797 281.868105 
C 594.824063 280.271371 592.658123 279.374209 590.4 279.374209 
C 588.141877 279.374209 585.975937 280.271371 584.379203 281.868105 
C 582.782469 283.464839 581.885307 285.630779 581.885307 287.888902 
C 581.885307 290.147025 582.782469 292.312965 584.379203 293.909699 
C 585.975937 295.506433 588.141877 296.403595 590.4 296.403595 
z
" clip-path="url(#pd5640d8ff4)" style="fill: #1f77b4; fill-opacity: 0.3; stroke: #1f77b4; stroke-opacity: 0.3"/>
    <path d="M 608.044269 289.455928 
C 608.882915 289.455928 609.687325 289.12273 610.280337 288.529718 
C 610.873349 287.936706 611.206546 287.132296 611.206546 286.29365 
C 611.206546 285.455004 610.873349 284.650594 610.280337 284.057582 
C 609.687325 283.46457 608.882915 283.131372 608.044269 283.131372 
C 607.205623 283.131372 606.401213 283.46457 605.808201 284.057582 
C 605.215189 284.650594 604.881991 285.455004 604.881991 286.29365 
C 604.881991 287.132296 605.215189 287.936706 605.808201 288.529718 
C 606.401213 289.12273 607.205623 289.455928 608.044269 289.455928 
z
" clip-path="url(#pd5640d8ff4)" style="fill: #1f77b4; fill-opacity: 0.3; stroke: #1f77b4; stroke-opacity: 0.3"/>
    <path d="M 625.688538 287.835118 
C 626.626172 287.835118 627.52553 287.462592 628.188538 286.799585 
C 628.851545 286.136577 629.224071 285.237219 629.224071 284.299585 
C 629.224071 283.36195 628.851545 282.462592 628.188538 281.799585 
C 627.52553 281.136577 626.626172 280.764051 625.688538 280.764051 
C 624.750903 280.764051 623.851545 281.136577 623.188538 281.799585 
C 622.52553 282.462592 622.153004 283.36195 622.153004 284.299585 
C 622.153004 285.237219 622.52553 286.136577 623.188538 286.799585 
C 623.851545 287.462592 624.750903 287.835118 625.688538 287.835118 
z
" clip-path="url(#pd5640d8ff4)" style="fill: #1f77b4; fill-opacity: 0.3; stroke: #1f77b4; stroke-opacity: 0.3"/>
    <path d="M 643.332806 279.161194 
C 645.883448 279.161194 648.329966 278.147813 650.133542 276.344237 
C 651.937118 274.540661 652.950498 272.094143 652.950498 269.543501 
C 652.950498 266.99286 651.937118 264.546342 650.133542 262.742766 
C 648.329966 260.93919 645.883448 259.925809 643.332806 259.925809 
C 640.782165 259.925809 638.335647 260.93919 636.532071 262.742766 
C 634.728495 264.546342 633.715114 266.99286 633.715114 269.543501 
C 633.715114 272.094143 634.728495 274.540661 636.532071 276.344237 
C 638.335647 278.147813 640.782165 279.161194 643.332806 279.161194 
z
" clip-path="url(#pd5640d8ff4)" style="fill: #1f77b4; fill-opacity: 0.3; stroke: #1f77b4; stroke-opacity: 0.3"/>
    <path d="M 660.977075 260.495625 
C 663.97164 260.495625 666.843958 259.305872 668.961435 257.188395 
C 671.078912 255.070918 672.268665 252.1986 672.268665 249.204036 
C 672.268665 246.209471 671.078912 243.337153 668.961435 241.219676 
C 666.843958 239.102199 663.97164 237.912446 660.977075 237.912446 
C 657.98251 237.912446 655.110192 239.102199 652.992715 241.219676 
C 650.875238 243.337153 649.685485 246.209471 649.685485 249.204036 
C 649.685485 252.1986 650.875238 255.070918 652.992715 257.188395 
C 655.110192 259.305872 657.98251 260.495625 660.977075 260.495625 
z
" clip-path="url(#pd5640d8ff4)" style="fill: #1f77b4; fill-opacity: 0.3; stroke: #1f77b4; stroke-opacity: 0.3"/>
    <path d="M 678.621344 245.126156 
C 681.030171 245.126156 683.340662 244.169119 685.04396 242.465821 
C 686.747258 240.762523 687.704295 238.452032 687.704295 236.043205 
C 687.704295 233.634378 686.747258 231.323886 685.04396 229.620588 
C 683.340662 227.917291 681.030171 226.960254 678.621344 226.960254 
C 676.212517 226.960254 673.902025 227.917291 672.198728 229.620588 
C 670.49543 231.323886 669.538393 233.634378 669.538393 236.043205 
C 669.538393 238.452032 670.49543 240.762523 672.198728 242.465821 
C 673.902025 244.169119 676.212517 245.126156 678.621344 245.126156 
z
" clip-path="url(#pd5640d8ff4)" style="fill: #1f77b4; fill-opacity: 0.3; stroke: #1f77b4; stroke-opacity: 0.3"/>
    <path d="M 696.265613 233.491091 
C 698.444478 233.491091 700.534397 232.625418 702.075088 231.084727 
C 703.615778 229.544036 704.481451 227.454118 704.481451 225.275252 
C 704.481451 223.096386 703.615778 221.006468 702.075088 219.465777 
C 700.534397 217.925086 698.444478 217.059414 696.265613 217.059414 
C 694.086747 217.059414 691.996828 217.925086 690.456138 219.465777 
C 688.915447 221.006468 688.049774 223.096386 688.049774 225.275252 
C 688.049774 227.454118 688.915447 229.544036 690.456138 231.084727 
C 691.996828 232.625418 694.086747 233.491091 696.265613 233.491091 
z
" clip-path="url(#pd5640d8ff4)" style="fill: #1f77b4; fill-opacity: 0.3; stroke: #1f77b4; stroke-opacity: 0.3"/>
    <path d="M 713.909881 226.842278 
C 714.748527 226.842278 715.552937 226.50908 716.145949 225.916068 
C 716.738962 225.323056 717.072159 224.518646 717.072159 223.68 
C 717.072159 222.841354 716.738962 222.036944 716.145949 221.443932 
C 715.552937 220.85092 714.748527 220.517722 713.909881 220.517722 
C 713.071236 220.517722 712.266826 220.85092 711.673813 221.443932 
C 711.080801 222.036944 710.747604 222.841354 710.747604 223.68 
C 710.747604 224.518646 711.080801 225.323056 711.673813 225.916068 
C 712.266826 226.50908 713.071236 226.842278 713.909881 226.842278 
z
" clip-path="url(#pd5640d8ff4)" style="fill: #1f77b4; fill-opacity: 0.3; stroke: #1f77b4; stroke-opacity: 0.3"/>
    <path d="M 731.55415 224.371469 
C 733.006727 224.371469 734.400006 223.794354 735.427134 222.767227 
C 736.454261 221.740099 737.031376 220.346821 737.031376 218.894243 
C 737.031376 217.441666 736.454261 216.048387 735.427134 215.02126 
C 734.400006 213.994133 733.006727 213.417018 731.55415 213.417018 
C 730.101573 213.417018 728.708294 213.994133 727.681167 215.02126 
C 726.65404 216.048387 726.076925 217.441666 726.076925 218.894243 
C 726.076925 220.346821 726.65404 221.740099 727.681167 222.767227 
C 728.708294 223.794354 730.101573 224.371469 731.55415 224.371469 
z
" clip-path="url(#pd5640d8ff4)" style="fill: #1f77b4; fill-opacity: 0.3; stroke: #1f77b4; stroke-opacity: 0.3"/>
    <path d="M 749.198419 216.829611 
C 751.295034 216.829611 753.306059 215.996617 754.788589 214.514087 
C 756.271119 213.031556 757.104113 211.020532 757.104113 208.923917 
C 757.104113 206.827302 756.271119 204.816277 754.788589 203.333747 
C 753.306059 201.851217 751.295034 201.018223 749.198419 201.018223 
C 747.101804 201.018223 745.090779 201.851217 743.608249 203.333747 
C 742.125719 204.816277 741.292725 206.827302 741.292725 208.923917 
C 741.292725 211.020532 742.125719 213.031556 743.608249 214.514087 
C 745.090779 215.996617 747.101804 216.829611 749.198419 216.829611 
z
" clip-path="url(#pd5640d8ff4)" style="fill: #1f77b4; fill-opacity: 0.3; stroke: #1f77b4; stroke-opacity: 0.3"/>
    <path d="M 766.842688 206.617035 
C 768.980823 206.617035 771.031675 205.767545 772.543565 204.255655 
C 774.055455 202.743764 774.904945 200.692913 774.904945 198.554777 
C 774.904945 196.416642 774.055455 194.365791 772.543565 192.8539 
C 771.031675 191.34201 768.980823 190.49252 766.842688 190.49252 
C 764.704552 190.49252 762.653701 191.34201 761.141811 192.8539 
C 759.62992 194.365791 758.78043 196.416642 758.78043 198.554777 
C 758.78043 200.692913 759.62992 202.743764 761.141811 204.255655 
C 762.653701 205.767545 764.704552 206.617035 766.842688 206.617035 
z
" clip-path="url(#pd5640d8ff4)" style="fill: #1f77b4; fill-opacity: 0.3; stroke: #1f77b4; stroke-opacity: 0.3"/>
    <path d="M 784.486957 199.836409 
C 785.672981 199.836409 786.810588 199.365196 787.649234 198.526551 
C 788.48788 197.687905 788.959092 196.550297 788.959092 195.364273 
C 788.959092 194.178249 788.48788 193.040641 787.649234 192.201995 
C 786.810588 191.363349 785.672981 190.892137 784.486957 190.892137 
C 783.300932 190.892137 782.163325 191.363349 781.324679 192.201995 
C 780.486033 193.040641 780.014821 194.178249 780.014821 195.364273 
C 780.014821 196.550297 780.486033 197.687905 781.324679 198.526551 
C 782.163325 199.365196 783.300932 199.836409 784.486957 199.836409 
z
" clip-path="url(#pd5640d8ff4)" style="fill: #1f77b4; fill-opacity: 0.3; stroke: #1f77b4; stroke-opacity: 0.3"/>
    <path d="M 802.131225 192.060135 
C 804.427952 192.060135 806.630919 191.147636 808.25495 189.523606 
C 809.87898 187.899575 810.791479 185.696608 810.791479 183.399881 
C 810.791479 181.103155 809.87898 178.900188 808.25495 177.276157 
C 806.630919 175.652126 804.427952 174.739627 802.131225 174.739627 
C 799.834499 174.739627 797.631532 175.652126 796.007501 177.276157 
C 794.38347 178.900188 793.470971 181.103155 793.470971 183.399881 
C 793.470971 185.696608 794.38347 187.899575 796.007501 189.523606 
C 797.631532 191.147636 799.834499 192.060135 802.131225 192.060135 
z
" clip-path="url(#pd5640d8ff4)" style="fill: #1f77b4; fill-opacity: 0.3; stroke: #1f77b4; stroke-opacity: 0.3"/>
    <path d="M 819.775494 182.92945 
C 821.554531 182.92945 823.260942 182.222632 824.518911 180.964663 
C 825.776879 179.706694 826.483698 178.000283 826.483698 176.221246 
C 826.483698 174.44221 825.776879 172.735799 824.518911 171.47783 
C 823.260942 170.219861 821.554531 169.513042 819.775494 169.513042 
C 817.996458 169.513042 816.290046 170.219861 815.032078 171.47783 
C 813.774109 172.735799 813.06729 174.44221 813.06729 176.221246 
C 813.06729 178.000283 813.774109 179.706694 815.032078 180.964663 
C 816.290046 182.222632 817.996458 182.92945 819.775494 182.92945 
z
" clip-path="url(#pd5640d8ff4)" style="fill: #1f77b4; fill-opacity: 0.3; stroke: #1f77b4; stroke-opacity: 0.3"/>
    <path d="M 837.419763 176.912715 
C 838.87234 176.912715 840.265619 176.3356 841.292746 175.308473 
C 842.319873 174.281346 842.896988 172.888067 842.896988 171.43549 
C 842.896988 169.982912 842.319873 168.589633 841.292746 167.562506 
C 840.265619 166.535379 838.87234 165.958264 837.419763 165.958264 
C 835.967186 165.958264 834.573907 166.535379 833.546779 167.562506 
C 832.519652 168.589633 831.942537 169.982912 831.942537 171.43549 
C 831.942537 172.888067 832.519652 174.281346 833.546779 175.308473 
C 834.573907 176.3356 835.967186 176.912715 837.419763 176.912715 
z
" clip-path="url(#pd5640d8ff4)" style="fill: #1f77b4; fill-opacity: 0.3; stroke: #1f77b4; stroke-opacity: 0.3"/>
    <path d="M 855.064032 165.208383 
C 857.749008 165.208383 860.324377 164.14163 862.222942 162.243065 
C 864.121507 160.3445 865.18826 157.769131 865.18826 155.084154 
C 865.18826 152.399178 864.121507 149.823809 862.222942 147.925244 
C 860.324377 146.026679 857.749008 144.959926 855.064032 144.959926 
C 852.379055 144.959926 849.803686 146.026679 847.905121 147.925244 
C 846.006556 149.823809 844.939803 152.399178 844.939803 155.084154 
C 844.939803 157.769131 846.006556 160.3445 847.905121 162.243065 
C 849.803686 164.14163 852.379055 165.208383 855.064032 165.208383 
z
" clip-path="url(#pd5640d8ff4)" style="fill: #1f77b4; fill-opacity: 0.3; stroke: #1f77b4; stroke-opacity: 0.3"/>
    <path d="M 872.7083 155.416851 
C 874.277263 155.416851 875.782176 154.793496 876.891601 153.684072 
C 878.001025 152.574647 878.62438 151.069734 878.62438 149.500772 
C 878.62438 147.931809 878.001025 146.426896 876.891601 145.317471 
C 875.782176 144.208047 874.277263 143.584692 872.7083 143.584692 
C 871.139338 143.584692 869.634424 144.208047 868.525 145.317471 
C 867.415576 146.426896 866.792221 147.931809 866.792221 149.500772 
C 866.792221 151.069734 867.415576 152.574647 868.525 153.684072 
C 869.634424 154.793496 871.139338 155.416851 872.7083 155.416851 
z
" clip-path="url(#pd5640d8ff4)" style="fill: #1f77b4; fill-opacity: 0.3; stroke: #1f77b4; stroke-opacity: 0.3"/>
    <path d="M 890.352569 144.630334 
C 892.868507 144.630334 895.281737 143.630742 897.060773 141.851705 
C 898.83981 140.072669 899.839402 137.659439 899.839402 135.143501 
C 899.839402 132.627564 898.83981 130.214334 897.060773 128.435298 
C 895.281737 126.656261 892.868507 125.656669 890.352569 125.656669 
C 887.836632 125.656669 885.423402 126.656261 883.644365 128.435298 
C 881.865329 130.214334 880.865736 132.627564 880.865736 135.143501 
C 880.865736 137.659439 881.865329 140.072669 883.644365 141.851705 
C 885.423402 143.630742 887.836632 144.630334 890.352569 144.630334 
z
" clip-path="url(#pd5640d8ff4)" style="fill: #1f77b4; fill-opacity: 0.3; stroke: #1f77b4; stroke-opacity: 0.3"/>
    <path d="M 907.996838 132.591387 
C 910.175704 132.591387 912.265622 131.725715 913.806313 130.185024 
C 915.347004 128.644333 916.212676 126.554415 916.212676 124.375549 
C 916.212676 122.196683 915.347004 120.106765 913.806313 118.566074 
C 912.265622 117.025383 910.175704 116.159711 907.996838 116.159711 
C 905.817972 116.159711 903.728054 117.025383 902.187363 118.566074 
C 900.646672 120.106765 899.781 122.196683 899.781 124.375549 
C 899.781 126.554415 900.646672 128.644333 902.187363 130.185024 
C 903.728054 131.725715 905.817972 132.591387 907.996838 132.591387 
z
" clip-path="url(#pd5640d8ff4)" style="fill: #1f77b4; fill-opacity: 0.3; stroke: #1f77b4; stroke-opacity: 0.3"/>
    <path d="M 925.641107 124.891856 
C 927.152997 124.891856 928.603168 124.291176 929.672236 123.222108 
C 930.741303 122.15304 931.341984 120.70287 931.341984 119.190979 
C 931.341984 117.679089 930.741303 116.228918 929.672236 115.15985 
C 928.603168 114.090782 927.152997 113.490102 925.641107 113.490102 
C 924.129216 113.490102 922.679046 114.090782 921.609978 115.15985 
C 920.54091 116.228918 919.94023 117.679089 919.94023 119.190979 
C 919.94023 120.70287 920.54091 122.15304 921.609978 123.222108 
C 922.679046 124.291176 924.129216 124.891856 925.641107 124.891856 
z
" clip-path="url(#pd5640d8ff4)" style="fill: #1f77b4; fill-opacity: 0.3; stroke: #1f77b4; stroke-opacity: 0.3"/>
    <path d="M 943.285375 117.83329 
C 945.252174 117.83329 947.138683 117.051873 948.52942 115.661136 
C 949.920157 114.270399 950.701574 112.383891 950.701574 110.417092 
C 950.701574 108.450293 949.920157 106.563785 948.52942 105.173048 
C 947.138683 103.782311 945.252174 103.000894 943.285375 103.000894 
C 941.318577 103.000894 939.432068 103.782311 938.041331 105.173048 
C 936.650594 106.563785 935.869177 108.450293 935.869177 110.417092 
C 935.869177 112.383891 936.650594 114.270399 938.041331 115.661136 
C 939.432068 117.051873 941.318577 117.83329 943.285375 117.83329 
z
" clip-path="url(#pd5640d8ff4)" style="fill: #1f77b4; fill-opacity: 0.3; stroke: #1f77b4; stroke-opacity: 0.3"/>
    <path d="M 960.929644 111.428961 
C 962.25566 111.428961 963.527544 110.90213 964.465178 109.964495 
C 965.402813 109.026861 965.929644 107.754977 965.929644 106.428961 
C 965.929644 105.102946 965.402813 103.831062 964.465178 102.893428 
C 963.527544 101.955793 962.25566 101.428961 960.929644 101.428961 
C 959.603629 101.428961 958.331745 101.955793 957.39411 102.893428 
C 956.456476 103.831062 955.929644 105.102946 955.929644 106.428961 
C 955.929644 107.754977 956.456476 109.026861 957.39411 109.964495 
C 958.331745 110.90213 959.603629 111.428961 960.929644 111.428961 
z
" clip-path="url(#pd5640d8ff4)" style="fill: #1f77b4; fill-opacity: 0.3; stroke: #1f77b4; stroke-opacity: 0.3"/>
    <path d="M 978.573913 101.02086 
C 981.158793 101.02086 983.638151 99.993876 985.465937 98.16609 
C 987.293724 96.338303 988.320707 93.858945 988.320707 91.274065 
C 988.320707 88.689185 987.293724 86.209827 985.465937 84.382041 
C 983.638151 82.554255 981.158793 81.527271 978.573913 81.527271 
C 975.989033 81.527271 973.509675 82.554255 971.681889 84.382041 
C 969.854102 86.209827 968.827119 88.689185 968.827119 91.274065 
C 968.827119 93.858945 969.854102 96.338303 971.681889 98.16609 
C 973.509675 99.993876 975.989033 101.02086 978.573913 101.02086 
z
" clip-path="url(#pd5640d8ff4)" style="fill: #1f77b4; fill-opacity: 0.3; stroke: #1f77b4; stroke-opacity: 0.3"/>
    <path d="M 996.218182 92.815534 
C 997.155816 92.815534 998.055174 92.443008 998.718182 91.78 
C 999.38119 91.116992 999.753716 90.217635 999.753716 89.28 
C 999.753716 88.342365 999.38119 87.443008 998.718182 86.78 
C 998.055174 86.116992 997.155816 85.744466 996.218182 85.744466 
C 995.280547 85.744466 994.38119 86.116992 993.718182 86.78 
C 993.055174 87.443008 992.682648 88.342365 992.682648 89.28 
C 992.682648 90.217635 993.055174 91.116992 993.718182 91.78 
C 994.38119 92.443008 995.280547 92.815534 996.218182 92.815534 
z
" clip-path="url(#pd5640d8ff4)" style="fill: #1f77b4; fill-opacity: 0.3; stroke: #1f77b4; stroke-opacity: 0.3"/>
   </g>
   <g id="matplotlib.axis_1">
    <g id="xtick_1">
     <g id="line2d_1">
      <defs>
       <path id="mf3396ac679" d="M 0 0 
L 0 3.5 
" style="stroke: #000000; stroke-width: 0.8"/>
      </defs>
      <g>
       <use xlink:href="#mf3396ac679" x="184.581818" y="512.64" style="stroke: #000000; stroke-width: 0.8"/>
      </g>
     </g>
     <g id="text_1">
      <!-- 2026-01-01 -->
      <g transform="translate(155.524006 527.238438) scale(0.1 -0.1)">
       <defs>
        <path id="DejaVuSans-32" d="M 1228 531 
L 3431 531 
L 3431 0 
L 469 0 
L 469 531 
Q 828 903 1448 1529 
Q 2069 2156 2228 2338 
Q 2531 2678 2651 2914 
Q 2772 3150 2772 3378 
Q 2772 3750 2511 3984 
Q 2250 4219 1831 4219 
Q 1534 4219 1204 4116 
Q 875 4013 500 3803 
L 500 4441 
Q 881 4594 1212 4672 
Q 1544 4750 1819 4750 
Q 2544 4750 2975 4387 
Q 3406 4025 3406 3419 
Q 3406 3131 3298 2873 
Q 3191 2616 2906 2266 
Q 2828 2175 2409 1742 
Q 1991 1309 1228 531 
z
" transform="scale(0.015625)"/>
        <path id="DejaVuSans-30" d="M 2034 4250 
Q 1547 4250 1301 3770 
Q 1056 3291 1056 2328 
Q 1056 1369 1301 889 
Q 1547 409 2034 409 
Q 2525 409 2770 889 
Q 3016 1369 3016 2328 
Q 3016 3291 2770 3770 
Q 2525 4250 2034 4250 
z
M 2034 4750 
Q 2819 4750 3233 4129 
Q 3647 3509 3647 2328 
Q 3647 1150 3233 529 
Q 2819 -91 2034 -91 
Q 1250 -91 836 529 
Q 422 1150 422 2328 
Q 422 3509 836 4129 
Q 1250 4750 2034 4750 
z
" transform="scale(0.015625)"/>
        <path id="DejaVuSans-36" d="M 2113 2584 
Q 1688 2584 1439 2293 
Q 1191 2003 1191 1497 
Q 1191 994 1439 701 
Q 1688 409 2113 409 
Q 2538 409 2786 701 
Q 3034 994 3034 1497 
Q 3034 2003 2786 2293 
Q 2538 2584 2113 2584 
z
M 3366 4563 
L 3366 3988 
Q 3128 4100 2886 4159 
Q 2644 4219 2406 4219 
Q 1781 4219 1451 3797 
Q 1122 3375 1075 2522 
Q 1259 2794 1537 2939 
Q 1816 3084 2150 3084 
Q 2853 3084 3261 2657 
Q 3669 2231 3669 1497 
Q 3669 778 3244 343 
Q 2819 -91 2113 -91 
Q 1303 -91 875 529 
Q 447 1150 447 2328 
Q 447 3434 972 4092 
Q 1497 4750 2381 4750 
Q 2619 4750 2861 4703 
Q 3103 4656 3366 4563 
z
" transform="scale(0.015625)"/>
        <path id="DejaVuSans-2d" d="M 313 2009 
L 1997 2009 
L 1997 1497 
L 313 1497 
L 313 2009 
z
" transform="scale(0.015625)"/>
        <path id="DejaVuSans-31" d="M 794 531 
L 1825 531 
L 1825 4091 
L 703 3866 
L 703 4441 
L 1819 4666 
L 2450 4666 
L 2450 531 
L 3481 531 
L 3481 0 
L 794 0 
L 794 531 
z
" transform="scale(0.015625)"/>
       </defs>
       <use xlink:href="#DejaVuSans-32"/>
       <use xlink:href="#DejaVuSans-30" x="63.623047"/>
       <use xlink:href="#DejaVuSans-32" x="127.246094"/>
       <use xlink:href="#DejaVuSans-36" x="190.869141"/>
       <use xlink:href="#DejaVuSans-2d" x="254.492188"/>
       <use xlink:href="#DejaVuSans-30" x="290.576172"/>
       <use xlink:href="#DejaVuSans-31" x="354.199219"/>
       <use xlink:href="#DejaVuSans-2d" x="417.822266"/>
       <use xlink:href="#DejaVuSans-30" x="453.90625"/>
       <use xlink:href="#DejaVuSans-31" x="517.529297"/>
      </g>
     </g>
    </g>
    <g id="xtick_2">
     <g id="line2d_2">
      <g>
       <use xlink:href="#mf3396ac679" x="308.0917" y="512.64" style="stroke: #000000; stroke-width: 0.8"/>
      </g>
     </g>
     <g id="text_2">
      <!-- 2026-01-08 -->
      <g transform="translate(279.033887 527.238438) scale(0.1 -0.1)">
       <defs>
        <path id="DejaVuSans-38" d="M 2034 2216 
Q 1584 2216 1326 1975 
Q 1069 1734 1069 1313 
Q 1069 891 1326 650 
Q 1584 409 2034 409 
Q 2484 409 2743 651 
Q 3003 894 3003 1313 
Q 3003 1734 2745 1975 
Q 2488 2216 2034 2216 
z
M 1403 2484 
Q 997 2584 770 2862 
Q 544 3141 544 3541 
Q 544 4100 942 4425 
Q 1341 4750 2034 4750 
Q 2731 4750 3128 4425 
Q 3525 4100 3525 3541 
Q 3525 3141 3298 2862 
Q 3072 2584 2669 2484 
Q 3125 2378 3379 2068 
Q 3634 1759 3634 1313 
Q 3634 634 3220 271 
Q 2806 -91 2034 -91 
Q 1263 -91 848 271 
Q 434 634 434 1313 
Q 434 1759 690 2068 
Q 947 2378 1403 2484 
z
M 1172 3481 
Q 1172 3119 1398 2916 
Q 1625 2713 2034 2713 
Q 2441 2713 2670 2916 
Q 2900 3119 2900 3481 
Q 2900 3844 2670 4047 
Q 2441 4250 2034 4250 
Q 1625 4250 1398 4047 
Q 1172 3844 1172 3481 
z
" transform="scale(0.015625)"/>
       </defs>
       <use xlink:href="#DejaVuSans-32"/>
       <use xlink:href="#DejaVuSans-30" x="63.623047"/>
       <use xlink:href="#DejaVuSans-32" x="127.246094"/>
       <use xlink:href="#DejaVuSans-36" x="190.869141"/>
       <use xlink:href="#DejaVuSans-2d" x="254.492188"/>
       <use xlink:href="#DejaVuSans-30" x="290.576172"/>
       <use xlink:href="#DejaVuSans-31" x="354.199219"/>
       <use xlink:href="#DejaVuSans-2d" x="417.822266"/>
       <use xlink:href="#DejaVuSans-30" x="453.90625"/>
       <use xlink:href="#DejaVuSans-38" x="517.529297"/>
      </g>
     </g>
    </g>
    <g id="xtick_3">
     <g id="line2d_3">
      <g>
       <use xlink:href="#mf3396ac679" x="431.601581" y="512.64" style="stroke: #000000; stroke-width: 0.8"/>
      </g>
     </g>
     <g id="text_3">
      <!-- 2026-01-15 -->
      <g transform="translate(402.543769 527.238438) scale(0.1 -0.1)">
       <defs>
        <path id="DejaVuSans-35" d="M 691 4666 
L 3169 4666 
L 3169 4134 
L 1269 4134 
L 1269 2991 
Q 1406 3038 1543 3061 
Q 1681 3084 1819 3084 
Q 2600 3084 3056 2656 
Q 3513 2228 3513 1497 
Q 3513 744 3044 326 
Q 2575 -91 1722 -91 
Q 1428 -91 1123 -41 
Q 819 9 494 109 
L 494 744 
Q 775 591 1075 516 
Q 1375 441 1709 441 
Q 2250 441 2565 725 
Q 2881 1009 2881 1497 
Q 2881 1984 2565 2268 
Q 2250 2553 1709 2553 
Q 1456 2553 1204 2497 
Q 953 2441 691 2322 
L 691 4666 
z
" transform="scale(0.015625)"/>
       </defs>
       <use xlink:href="#DejaVuSans-32"/>
       <use xlink:href="#DejaVuSans-30" x="63.623047"/>
       <use xlink:href="#DejaVuSans-32" x="127.246094"/>
       <use xlink:href="#DejaVuSans-36" x="190.869141"/>
       <use xlink:href="#DejaVuSans-2d" x="254.492188"/>
       <use xlink:href="#DejaVuSans-30" x="290.576172"/>
       <use xlink:href="#DejaVuSans-31" x="354.199219"/>
       <use xlink:href="#DejaVuSans-2d" x="417.822266"/>
       <use xlink:href="#DejaVuSans-31" x="453.90625"/>
       <use xlink:href="#DejaVuSans-35" x="517.529297"/>
      </g>
     </g>
    </g>
    <g id="xtick_4">
     <g id="line2d_4">
      <g>
       <use xlink:href="#mf3396ac679" x="555.111462" y="512.64" style="stroke: #000000; stroke-width: 0.8"/>
      </g>
     </g>
     <g id="text_4">
      <!-- 2026-01-22 -->
      <g transform="translate(526.05365 527.238438) scale(0.1 -0.1)">
       <use xlink:href="#DejaVuSans-32"/>
       <use xlink:href="#DejaVuSans-30" x="63.623047"/>
       <use xlink:href="#DejaVuSans-32" x="127.246094"/>
       <use xlink:href="#DejaVuSans-36" x="190.869141"/>
       <use xlink:href="#DejaVuSans-2d" x="254.492188"/>
       <use xlink:href="#DejaVuSans-30" x="290.576172"/>
       <use xlink:href="#DejaVuSans-31" x="354.199219"/>
       <use xlink:href="#DejaVuSans-2d" x="417.822266"/>
       <use xlink:href="#DejaVuSans-32" x="453.90625"/>
       <use xlink:href="#DejaVuSans-32" x="517.529297"/>
      </g>
     </g>
    </g>
    <g id="xtick_5">
     <g id="line2d_5">
      <g>
       <use xlink:href="#mf3396ac679" x="731.55415" y="512.64" style="stroke: #000000; stroke-width: 0.8"/>
      </g>
     </g>
     <g id="text_5">
      <!-- 2026-02-01 -->
      <g transform="translate(702.496338 527.238438) scale(0.1 -0.1)">
       <use xlink:href="#DejaVuSans-32"/>
       <use xlink:href="#DejaVuSans-30" x="63.623047"/>
       <use xlink:href="#DejaVuSans-32" x="127.246094"/>
       <use xlink:href="#DejaVuSans-36" x="190.869141"/>
       <use xlink:href="#DejaVuSans-2d" x="254.492188"/>
       <use xlink:href="#DejaVuSans-30" x="290.576172"/>
       <use xlink:href="#DejaVuSans-32" x="354.199219"/>
       <use xlink:href="#DejaVuSans-2d" x="417.822266"/>
       <use xlink:href="#DejaVuSans-30" x="453.90625"/>
       <use xlink:href="#DejaVuSans-31" x="517.529297"/>
      </g>
     </g>
    </g>
    <g id="xtick_6">
     <g id="line2d_6">
      <g>
       <use xlink:href="#mf3396ac679" x="855.064032" y="512.64" style="stroke: #000000; stroke-width: 0.8"/>
      </g>
     </g>
     <g id="text_6">
      <!-- 2026-02-08 -->
      <g transform="translate(826.006219 527.238438) scale(0.1 -0.1)">
       <use xlink:href="#DejaVuSans-32"/>
       <use xlink:href="#DejaVuSans-30" x="63.623047"/>
       <use xlink:href="#DejaVuSans-32" x="127.246094"/>
       <use xlink:href="#DejaVuSans-36" x="190.869141"/>
       <use xlink:href="#DejaVuSans-2d" x="254.492188"/>
       <use xlink:href="#DejaVuSans-30" x="290.576172"/>
       <use xlink:href="#DejaVuSans-32" x="354.199219"/>
       <use xlink:href="#DejaVuSans-2d" x="417.822266"/>
       <use xlink:href="#DejaVuSans-30" x="453.90625"/>
       <use xlink:href="#DejaVuSans-38" x="517.529297"/>
      </g>
     </g>
    </g>
    <g id="xtick_7">
     <g id="line2d_7">
      <g>
       <use xlink:href="#mf3396ac679" x="978.573913" y="512.64" style="stroke: #000000; stroke-width: 0.8"/>
      </g>
     </g>
     <g id="text_7">
      <!-- 2026-02-15 -->
      <g transform="translate(949.516101 527.238438) scale(0.1 -0.1)">
       <use xlink:href="#DejaVuSans-32"/>
       <use xlink:href="#DejaVuSans-30" x="63.623047"/>
       <use xlink:href="#DejaVuSans-32" x="127.246094"/>
       <use xlink:href="#DejaVuSans-36" x="190.869141"/>
       <use xlink:href="#DejaVuSans-2d" x="254.492188"/>
       <use xlink:href="#DejaVuSans-30" x="290.576172"/>
       <use xlink:href="#DejaVuSans-32" x="354.199219"/>
       <use xlink:href="#DejaVuSans-2d" x="417.822266"/>
       <use xlink:href="#DejaVuSans-31" x="453.90625"/>
       <use xlink:href="#DejaVuSans-35" x="517.529297"/>
      </g>
     </g>
    </g>
   </g>
   <g id="matplotlib.axis_2">
    <g id="ytick_1">
     <g id="line2d_8">
      <defs>
       <path id="m2362546e48" d="M 0 0 
L -3.5 0 
" style="stroke: #000000; stroke-width: 0.8"/>
      </defs>
      <g>
       <use xlink:href="#m2362546e48" x="144" y="480.515608" style="stroke: #000000; stroke-width: 0.8"/>
      </g>
     </g>
     <g id="text_8">
      <!-- 13200 -->
      <g transform="translate(105.1875 484.314827) scale(0.1 -0.1)">
       <defs>
        <path id="DejaVuSans-33" d="M 2597 2516 
Q 3050 2419 3304 2112 
Q 3559 1806 3559 1356 
Q 3559 666 3084 287 
Q 2609 -91 1734 -91 
Q 1441 -91 1130 -33 
Q 819 25 488 141 
L 488 750 
Q 750 597 1062 519 
Q 1375 441 1716 441 
Q 2309 441 2620 675 
Q 2931 909 2931 1356 
Q 2931 1769 2642 2001 
Q 2353 2234 1838 2234 
L 1294 2234 
L 1294 2753 
L 1863 2753 
Q 2328 2753 2575 2939 
Q 2822 3125 2822 3475 
Q 2822 3834 2567 4026 
Q 2313 4219 1838 4219 
Q 1578 4219 1281 4162 
Q 984 4106 628 3988 
L 628 4550 
Q 988 4650 1302 4700 
Q 1616 4750 1894 4750 
Q 2613 4750 3031 4423 
Q 3450 4097 3450 3541 
Q 3450 3153 3228 2886 
Q 3006 2619 2597 2516 
z
" transform="scale(0.015625)"/>
       </defs>
       <use xlink:href="#DejaVuSans-31"/>
       <use xlink:href="#DejaVuSans-33" x="63.623047"/>
       <use xlink:href="#DejaVuSans-32" x="127.246094"/>
       <use xlink:href="#DejaVuSans-30" x="190.869141"/>
       <use xlink:href="#DejaVuSans-30" x="254.492188"/>
      </g>
     </g>
    </g>
    <g id="ytick_2">
     <g id="line2d_9">
      <g>
       <use xlink:href="#m2362546e48" x="144" y="400.752997" style="stroke: #000000; stroke-width: 0.8"/>
      </g>
     </g>
     <g id="text_9">
      <!-- 13400 -->
      <g transform="translate(105.1875 404.552216) scale(0.1 -0.1)">
       <defs>
        <path id="DejaVuSans-34" d="M 2419 4116 
L 825 1625 
L 2419 1625 
L 2419 4116 
z
M 2253 4666 
L 3047 4666 
L 3047 1625 
L 3713 1625 
L 3713 1100 
L 3047 1100 
L 3047 0 
L 2419 0 
L 2419 1100 
L 313 1100 
L 313 1709 
L 2253 4666 
z
" transform="scale(0.015625)"/>
       </defs>
       <use xlink:href="#DejaVuSans-31"/>
       <use xlink:href="#DejaVuSans-33" x="63.623047"/>
       <use xlink:href="#DejaVuSans-34" x="127.246094"/>
       <use xlink:href="#DejaVuSans-30" x="190.869141"/>
       <use xlink:href="#DejaVuSans-30" x="254.492188"/>
      </g>
     </g>
    </g>
    <g id="ytick_3">
     <g id="line2d_10">
      <g>
       <use xlink:href="#m2362546e48" x="144" y="320.990386" style="stroke: #000000; stroke-width: 0.8"/>
      </g>
     </g>
     <g id="text_10">
      <!-- 13600 -->
      <g transform="translate(105.1875 324.789605) scale(0.1 -0.1)">
       <use xlink:href="#DejaVuSans-31"/>
       <use xlink:href="#DejaVuSans-33" x="63.623047"/>
       <use xlink:href="#DejaVuSans-36" x="127.246094"/>
       <use xlink:href="#DejaVuSans-30" x="190.869141"/>
       <use xlink:href="#DejaVuSans-30" x="254.492188"/>
      </g>
     </g>
    </g>
    <g id="ytick_4">
     <g id="line2d_11">
      <g>
       <use xlink:href="#m2362546e48" x="144" y="241.227774" style="stroke: #000000; stroke-width: 0.8"/>
      </g>
     </g>
     <g id="text_11">
      <!-- 13800 -->
      <g transform="translate(105.1875 245.026993) scale(0.1 -0.1)">
       <use xlink:href="#DejaVuSans-31"/>
       <use xlink:href="#DejaVuSans-33" x="63.623047"/>
       <use xlink:href="#DejaVuSans-38" x="127.246094"/>
       <use xlink:href="#DejaVuSans-30" x="190.869141"/>
       <use xlink:href="#DejaVuSans-30" x="254.492188"/>
      </g>
     </g>
    </g>
    <g id="ytick_5">
     <g id="line2d_12">
      <g>
       <use xlink:href="#m2362546e48" x="144" y="161.465163" style="stroke: #000000; stroke-width: 0.8"/>
      </g>
     </g>
     <g id="text_12">
      <!-- 14000 -->
      <g transform="translate(105.1875 165.264382) scale(0.1 -0.1)">
       <use xlink:href="#DejaVuSans-31"/>
       <use xlink:href="#DejaVuSans-34" x="63.623047"/>
       <use xlink:href="#DejaVuSans-30" x="127.246094"/>
       <use xlink:href="#DejaVuSans-30" x="190.869141"/>
       <use xlink:href="#DejaVuSans-30" x="254.492188"/>
      </g>
     </g>
    </g>
    <g id="ytick_6">
     <g id="line2d_13">
      <g>
       <use xlink:href="#m2362546e48" x="144" y="81.702552" style="stroke: #000000; stroke-width: 0.8"/>
      </g>
     </g>
     <g id="text_13">
      <!-- 14200 -->
      <g transform="translate(105.1875 85.501771) scale(0.1 -0.1)">
       <use xlink:href="#DejaVuSans-31"/>
       <use xlink:href="#DejaVuSans-34" x="63.623047"/>
       <use xlink:href="#DejaVuSans-32" x="127.246094"/>
       <use xlink:href="#DejaVuSans-30" x="190.869141"/>
       <use xlink:href="#DejaVuSans-30" x="254.492188"/>
      </g>
     </g>
    </g>
   </g>
   <g id="line2d_14">
    <path d="M 184.581818 492.48 
L 202.226087 485.301365 
L 219.870356 474.134599 
L 237.514625 469.747656 
L 255.158893 467.753591 
L 272.803162 460.973769 
L 290.447431 454.59276 
L 308.0917 438.640237 
L 325.735968 430.663976 
L 343.380237 426.675846 
L 361.024506 425.87822 
L 378.668775 408.330445 
L 396.313043 398.360119 
L 413.957312 393.175549 
L 431.601581 380.413531 
L 449.24585 363.26457 
L 466.890119 361.669318 
L 484.534387 357.282374 
L 502.178656 346.514421 
L 519.822925 340.931039 
L 537.467194 320.990386 
L 555.111462 310.222433 
L 572.755731 299.454481 
L 590.4 287.888902 
L 608.044269 286.29365 
L 625.688538 284.299585 
L 643.332806 269.543501 
L 660.977075 249.204036 
L 678.621344 236.043205 
L 696.265613 225.275252 
L 713.909881 223.68 
L 731.55415 218.894243 
L 749.198419 208.923917 
L 766.842688 198.554777 
L 784.486957 195.364273 
L 802.131225 183.399881 
L 819.775494 176.221246 
L 837.419763 171.43549 
L 855.064032 155.084154 
L 872.7083 149.500772 
L 890.352569 135.143501 
L 907.996838 124.375549 
L 925.641107 119.190979 
L 943.285375 110.417092 
L 960.929644 106.428961 
L 978.573913 91.274065 
L 996.218182 89.28 
" clip-path="url(#pd5640d8ff4)" style="fill: none; stroke: #1f77b4; stroke-width: 1.5; stroke-linecap: square"/>
   </g>
   <g id="patch_3">
    <path d="M 144 512.64 
L 144 69.12 
" style="fill: none; stroke: #000000; stroke-width: 0.8; stroke-linejoin: miter; stroke-linecap: square"/>
   </g>
   <g id="patch_4">
    <path d="M 1036.8 512.64 
L 1036.8 69.12 
" style="fill: none; stroke: #000000; stroke-width: 0.8; stroke-linejoin: miter; stroke-linecap: square"/>
   </g>
   <g id="patch_5">
    <path d="M 144 512.64 
L 1036.8 512.64 
" style="fill: none; stroke: #000000; stroke-width: 0.8; stroke-linejoin: miter; stroke-linecap: square"/>
   </g>
   <g id="patch_6">
    <path d="M 144 69.12 
L 1036.8 69.12 
" style="fill: none; stroke: #000000; stroke-width: 0.8; stroke-linejoin: miter; stroke-linecap: square"/>
   </g>
   <g id="text_14">
    <!-- Number of AEDs in the OpenStreetMap database in Poland from 2026-01-01, day by day. As at: 2026-02-16 -->
    <g transform="translate(144 63.12) scale(0.14 -0.14)">
     <defs>
      <path id="DejaVuSans-4e" d="M 628 4666 
L 1478 4666 
L 3547 763 
L 3547 4666 
L 4159 4666 
L 4159 0 
L 3309 0 
L 1241 3903 
L 1241 0 
L 628 0 
L 628 4666 
z
" transform="scale(0.015625)"/>
      <path id="DejaVuSans-75" d="M 544 1381 
L 544 3500 
L 1119 3500 
L 1119 1403 
Q 1119 906 1312 657 
Q 1506 409 1894 409 
Q 2359 409 2629 706 
Q 2900 1003 2900 1516 
L 2900 3500 
L 3475 3500 
L 3475 0 
L 2900 0 
L 2900 538 
Q 2691 219 2414 64 
Q 2138 -91 1772 -91 
Q 1169 -91 856 284 
Q 544 659 544 1381 
z
M 1991 3584 
L 1991 3584 
z
" transform="scale(0.015625)"/>
      <path id="DejaVuSans-6d" d="M 3328 2828 
Q 3544 3216 3844 3400 
Q 4144 3584 4550 3584 
Q 5097 3584 5394 3201 
Q 5691 2819 5691 2113 
L 5691 0 
L 5113 0 
L 5113 2094 
Q 5113 2597 4934 2840 
Q 4756 3084 4391 3084 
Q 3944 3084 3684 2787 
Q 3425 2491 3425 1978 
L 3425 0 
L 2847 0 
L 2847 2094 
Q 2847 2600 2669 2842 
Q 2491 3084 2119 3084 
Q 1678 3084 1418 2786 
Q 1159 2488 1159 1978 
L 1159 0 
L 581 0 
L 581 3500 
L 1159 3500 
L 1159 2956 
Q 1356 3278 1631 3431 
Q 1906 3584 2284 3584 
Q 2666 3584 2933 3390 
Q 3200 3197 3328 2828 
z
" transform="scale(0.015625)"/>
      <path id="DejaVuSans-62" d="M 3116 1747 
Q 3116 2381 2855 2742 
Q 2594 3103 2138 3103 
Q 1681 3103 1420 2742 
Q 1159 2381 1159 1747 
Q 1159 1113 1420 752 
Q 1681 391 2138 391 
Q 2594 391 2855 752 
Q 3116 1113 3116 1747 
z
M 1159 2969 
Q 1341 3281 1617 3432 
Q 1894 3584 2278 3584 
Q 2916 3584 3314 3078 
Q 3713 2572 3713 1747 
Q 3713 922 3314 415 
Q 2916 -91 2278 -91 
Q 1894 -91 1617 61 
Q 1341 213 1159 525 
L 1159 0 
L 581 0 
L 581 4863 
L 1159 4863 
L 1159 2969 
z
" transform="scale(0.015625)"/>
      <path id="DejaVuSans-65" d="M 3597 1894 
L 3597 1613 
L 953 1613 
Q 991 1019 1311 708 
Q 1631 397 2203 397 
Q 2534 397 2845 478 
Q 3156 559 3463 722 
L 3463 178 
Q 3153 47 2828 -22 
Q 2503 -91 2169 -91 
Q 1331 -91 842 396 
Q 353 884 353 1716 
Q 353 2575 817 3079 
Q 1281 3584 2069 3584 
Q 2775 3584 3186 3129 
Q 3597 2675 3597 1894 
z
M 3022 2063 
Q 3016 2534 2758 2815 
Q 2500 3097 2075 3097 
Q 1594 3097 1305 2825 
Q 1016 2553 972 2059 
L 3022 2063 
z
" transform="scale(0.015625)"/>
      <path id="DejaVuSans-72" d="M 2631 2963 
Q 2534 3019 2420 3045 
Q 2306 3072 2169 3072 
Q 1681 3072 1420 2755 
Q 1159 2438 1159 1844 
L 1159 0 
L 581 0 
L 581 3500 
L 1159 3500 
L 1159 2956 
Q 1341 3275 1631 3429 
Q 1922 3584 2338 3584 
Q 2397 3584 2469 3576 
Q 2541 3569 2628 3553 
L 2631 2963 
z
" transform="scale(0.015625)"/>
      <path id="DejaVuSans-20" transform="scale(0.015625)"/>
      <path id="DejaVuSans-6f" d="M 1959 3097 
Q 1497 3097 1228 2736 
Q 959 2375 959 1747 
Q 959 1119 1226 758 
Q 1494 397 1959 397 
Q 2419 397 2687 759 
Q 2956 1122 2956 1747 
Q 2956 2369 2687 2733 
Q 2419 3097 1959 3097 
z
M 1959 3584 
Q 2709 3584 3137 3096 
Q 3566 2609 3566 1747 
Q 3566 888 3137 398 
Q 2709 -91 1959 -91 
Q 1206 -91 779 398 
Q 353 888 353 1747 
Q 353 2609 779 3096 
Q 1206 3584 1959 3584 
z
" transform="scale(0.015625)"/>
      <path id="DejaVuSans-66" d="M 2375 4863 
L 2375 4384 
L 1825 4384 
Q 1516 4384 1395 4259 
Q 1275 4134 1275 3809 
L 1275 3500 
L 2222 3500 
L 2222 3053 
L 1275 3053 
L 1275 0 
L 697 0 
L 697 3053 
L 147 3053 
L 147 3500 
L 697 3500 
L 697 3744 
Q 697 4328 969 4595 
Q 1241 4863 1831 4863 
L 2375 4863 
z
" transform="scale(0.015625)"/>
      <path id="DejaVuSans-41" d="M 2188 4044 
L 1331 1722 
L 3047 1722 
L 2188 4044 
z
M 1831 4666 
L 2547 4666 
L 4325 0 
L 3669 0 
L 3244 1197 
L 1141 1197 
L 716 0 
L 50 0 
L 1831 4666 
z
" transform="scale(0.015625)"/>
      <path id="DejaVuSans-45" d="M 628 4666 
L 3578 4666 
L 3578 4134 
L 1259 4134 
L 1259 2753 
L 3481 2753 
L 3481 2222 
L 1259 2222 
L 1259 531 
L 3634 531 
L 3634 0 
L 628 0 
L 628 4666 
z
" transform="scale(0.015625)"/>
      <path id="DejaVuSans-44" d="M 1259 4147 
L 1259 519 
L 2022 519 
Q 2988 519 3436 956 
Q 3884 1394 3884 2338 
Q 3884 3275 3436 3711 
Q 2988 4147 2022 4147 
L 1259 4147 
z
M 628 4666 
L 1925 4666 
Q 3281 4666 3915 4102 
Q 4550 3538 4550 2338 
Q 4550 1131 3912 565 
Q 3275 0 1925 0 
L 628 0 
L 628 4666 
z
" transform="scale(0.015625)"/>
      <path id="DejaVuSans-73" d="M 2834 3397 
L 2834 2853 
Q 2591 2978 2328 3040 
Q 2066 3103 1784 3103 
Q 1356 3103 1142 2972 
Q 928 2841 928 2578 
Q 928 2378 1081 2264 
Q 1234 2150 1697 2047 
L 1894 2003 
Q 2506 1872 2764 1633 
Q 3022 1394 3022 966 
Q 3022 478 2636 193 
Q 2250 -91 1575 -91 
Q 1294 -91 989 -36 
Q 684 19 347 128 
L 347 722 
Q 666 556 975 473 
Q 1284 391 1588 391 
Q 1994 391 2212 530 
Q 2431 669 2431 922 
Q 2431 1156 2273 1281 
Q 2116 1406 1581 1522 
L 1381 1569 
Q 847 1681 609 1914 
Q 372 2147 372 2553 
Q 372 3047 722 3315 
Q 1072 3584 1716 3584 
Q 2034 3584 2315 3537 
Q 2597 3491 2834 3397 
z
" transform="scale(0.015625)"/>
      <path id="DejaVuSans-69" d="M 603 3500 
L 1178 3500 
L 1178 0 
L 603 0 
L 603 3500 
z
M 603 4863 
L 1178 4863 
L 1178 4134 
L 603 4134 
L 603 4863 
z
" transform="scale(0.015625)"/>
      <path id="DejaVuSans-6e" d="M 3513 2113 
L 3513 0 
L 2938 0 
L 2938 2094 
Q 2938 2591 2744 2837 
Q 2550 3084 2163 3084 
Q 1697 3084 1428 2787 
Q 1159 2491 1159 1978 
L 1159 0 
L 581 0 
L 581 3500 
L 1159 3500 
L 1159 2956 
Q 1366 3272 1645 3428 
Q 1925 3584 2291 3584 
Q 2894 3584 3203 3211 
Q 3513 2838 3513 2113 
z
" transform="scale(0.015625)"/>
      <path id="DejaVuSans-74" d="M 1172 4494 
L 1172 3500 
L 2356 3500 
L 2356 3053 
L 1172 3053 
L 1172 1153 
Q 1172 725 1289 603 
Q 1406 481 1766 481 
L 2356 481 
L 2356 0 
L 1766 0 
Q 1100 0 847 248 
Q 594 497 594 1153 
L 594 3053 
L 172 3053 
L 172 3500 
L 594 3500 
L 594 4494 
L 1172 4494 
z
" transform="scale(0.015625)"/>
      <path id="DejaVuSans-68" d="M 3513 2113 
L 3513 0 
L 2938 0 
L 2938 2094 
Q 2938 2591 2744 2837 
Q 2550 3084 2163 3084 
Q 1697 3084 1428 2787 
Q 1159 2491 1159 1978 
L 1159 0 
L 581 0 
L 581 4863 
L 1159 4863 
L 1159 2956 
Q 1366 3272 1645 3428 
Q 1925 3584 2291 3584 
Q 2894 3584 3203 3211 
Q 3513 2838 3513 2113 
z
" transform="scale(0.015625)"/>
      <path id="DejaVuSans-4f" d="M 2522 4238 
Q 1834 4238 1429 3725 
Q 1025 3213 1025 2328 
Q 1025 1447 1429 934 
Q 1834 422 2522 422 
Q 3209 422 3611 934 
Q 4013 1447 4013 2328 
Q 4013 3213 3611 3725 
Q 3209 4238 2522 4238 
z
M 2522 4750 
Q 3503 4750 4090 4092 
Q 4678 3434 4678 2328 
Q 4678 1225 4090 567 
Q 3503 -91 2522 -91 
Q 1538 -91 948 565 
Q 359 1222 359 2328 
Q 359 3434 948 4092 
Q 1538 4750 2522 4750 
z
" transform="scale(0.015625)"/>
      <path id="DejaVuSans-70" d="M 1159 525 
L 1159 -1331 
L 581 -1331 
L 581 3500 
L 1159 3500 
L 1159 2969 
Q 1341 3281 1617 3432 
Q 1894 3584 2278 3584 
Q 2916 3584 3314 3078 
Q 3713 2572 3713 1747 
Q 3713 922 3314 415 
Q 2916 -91 2278 -91 
Q 1894 -91 1617 61 
Q 1341 213 1159 525 
z
M 3116 1747 
Q 3116 2381 2855 2742 
Q 2594 3103 2138 3103 
Q 1681 3103 1420 2742 
Q 1159 2381 1159 1747 
Q 1159 1113 1420 752 
Q 1681 391 2138 391 
Q 2594 391 2855 752 
Q 3116 1113 3116 1747 
z
" transform="scale(0.015625)"/>
      <path id="DejaVuSans-53" d="M 3425 4513 
L 3425 3897 
Q 3066 4069 2747 4153 
Q 2428 4238 2131 4238 
Q 1616 4238 1336 4038 
Q 1056 3838 1056 3469 
Q 1056 3159 1242 3001 
Q 1428 2844 1947 2747 
L 2328 2669 
Q 3034 2534 3370 2195 
Q 3706 1856 3706 1288 
Q 3706 609 3251 259 
Q 2797 -91 1919 -91 
Q 1588 -91 1214 -16 
Q 841 59 441 206 
L 441 856 
Q 825 641 1194 531 
Q 1563 422 1919 422 
Q 2459 422 2753 634 
Q 3047 847 3047 1241 
Q 3047 1584 2836 1778 
Q 2625 1972 2144 2069 
L 1759 2144 
Q 1053 2284 737 2584 
Q 422 2884 422 3419 
Q 422 4038 858 4394 
Q 1294 4750 2059 4750 
Q 2388 4750 2728 4690 
Q 3069 4631 3425 4513 
z
" transform="scale(0.015625)"/>
      <path id="DejaVuSans-4d" d="M 628 4666 
L 1569 4666 
L 2759 1491 
L 3956 4666 
L 4897 4666 
L 4897 0 
L 4281 0 
L 4281 4097 
L 3078 897 
L 2444 897 
L 1241 4097 
L 1241 0 
L 628 0 
L 628 4666 
z
" transform="scale(0.015625)"/>
      <path id="DejaVuSans-61" d="M 2194 1759 
Q 1497 1759 1228 1600 
Q 959 1441 959 1056 
Q 959 750 1161 570 
Q 1363 391 1709 391 
Q 2188 391 2477 730 
Q 2766 1069 2766 1631 
L 2766 1759 
L 2194 1759 
z
M 3341 1997 
L 3341 0 
L 2766 0 
L 2766 531 
Q 2569 213 2275 61 
Q 1981 -91 1556 -91 
Q 1019 -91 701 211 
Q 384 513 384 1019 
Q 384 1609 779 1909 
Q 1175 2209 1959 2209 
L 2766 2209 
L 2766 2266 
Q 2766 2663 2505 2880 
Q 2244 3097 1772 3097 
Q 1472 3097 1187 3025 
Q 903 2953 641 2809 
L 641 3341 
Q 956 3463 1253 3523 
Q 1550 3584 1831 3584 
Q 2591 3584 2966 3190 
Q 3341 2797 3341 1997 
z
" transform="scale(0.015625)"/>
      <path id="DejaVuSans-64" d="M 2906 2969 
L 2906 4863 
L 3481 4863 
L 3481 0 
L 2906 0 
L 2906 525 
Q 2725 213 2448 61 
Q 2172 -91 1784 -91 
Q 1150 -91 751 415 
Q 353 922 353 1747 
Q 353 2572 751 3078 
Q 1150 3584 1784 3584 
Q 2172 3584 2448 3432 
Q 2725 3281 2906 2969 
z
M 947 1747 
Q 947 1113 1208 752 
Q 1469 391 1925 391 
Q 2381 391 2643 752 
Q 2906 1113 2906 1747 
Q 2906 2381 2643 2742 
Q 2381 3103 1925 3103 
Q 1469 3103 1208 2742 
Q 947 2381 947 1747 
z
" transform="scale(0.015625)"/>
      <path id="DejaVuSans-50" d="M 1259 4147 
L 1259 2394 
L 2053 2394 
Q 2494 2394 2734 2622 
Q 2975 2850 2975 3272 
Q 2975 3691 2734 3919 
Q 2494 4147 2053 4147 
L 1259 4147 
z
M 628 4666 
L 2053 4666 
Q 2838 4666 3239 4311 
Q 3641 3956 3641 3272 
Q 3641 2581 3239 2228 
Q 2838 1875 2053 1875 
L 1259 1875 
L 1259 0 
L 628 0 
L 628 4666 
z
" transform="scale(0.015625)"/>
      <path id="DejaVuSans-6c" d="M 603 4863 
L 1178 4863 
L 1178 0 
L 603 0 
L 603 4863 
z
" transform="scale(0.015625)"/>
      <path id="DejaVuSans-2c" d="M 750 794 
L 1409 794 
L 1409 256 
L 897 -744 
L 494 -744 
L 750 256 
L 750 794 
z
" transform="scale(0.015625)"/>
      <path id="DejaVuSans-79" d="M 2059 -325 
Q 1816 -950 1584 -1140 
Q 1353 -1331 966 -1331 
L 506 -1331 
L 506 -850 
L 844 -850 
Q 1081 -850 1212 -737 
Q 1344 -625 1503 -206 
L 1606 56 
L 191 3500 
L 800 3500 
L 1894 763 
L 2988 3500 
L 3597 3500 
L 2059 -325 
z
" transform="scale(0.015625)"/>
      <path id="DejaVuSans-2e" d="M 684 794 
L 1344 794 
L 1344 0 
L 684 0 
L 684 794 
z
" transform="scale(0.015625)"/>
      <path id="DejaVuSans-3a" d="M 750 794 
L 1409 794 
L 1409 0 
L 750 0 
L 750 794 
z
M 750 3309 
L 1409 3309 
L 1409 2516 
L 750 2516 
L 750 3309 
z
" transform="scale(0.015625)"/>
     </defs>
     <use xlink:href="#DejaVuSans-4e"/>
     <use xlink:href="#DejaVuSans-75" x="74.804688"/>
     <use xlink:href="#DejaVuSans-6d" x="138.183594"/>
     <use xlink:href="#DejaVuSans-62" x="235.595703"/>
     <use xlink:href="#DejaVuSans-65" x="299.072266"/>
     <use xlink:href="#DejaVuSans-72" x="360.595703"/>
     <use xlink:href="#DejaVuSans-20" x="401.708984"/>
     <use xlink:href="#DejaVuSans-6f" x="433.496094"/>
     <use xlink:href="#DejaVuSans-66" x="494.677734"/>
     <use xlink:href="#DejaVuSans-20" x="529.882812"/>
     <use xlink:href="#DejaVuSans-41" x="561.669922"/>
     <use xlink:href="#DejaVuSans-45" x="630.078125"/>
     <use xlink:href="#DejaVuSans-44" x="693.261719"/>
     <use xlink:href="#DejaVuSans-73" x="770.263672"/>
     <use xlink:href="#DejaVuSans-20" x="822.363281"/>
     <use xlink:href="#DejaVuSans-69" x="854.150391"/>
     <use xlink:href="#DejaVuSans-6e" x="881.933594"/>
     <use xlink:href="#DejaVuSans-20" x="945.3125"/>
     <use xlink:href="#DejaVuSans-74" x="977.099609"/>
     <use xlink:href="#DejaVuSans-68" x="1016.308594"/>
     <use xlink:href="#DejaVuSans-65" x="1079.6875"/>
     <use xlink:href="#DejaVuSans-20" x="1141.210938"/>
     <use xlink:href="#DejaVuSans-4f" x="1172.998047"/>
     <use xlink:href="#DejaVuSans-70" x="1251.708984"/>
     <use xlink:href="#DejaVuSans-65" x="1315.185547"/>
     <use xlink:href="#DejaVuSans-6e" x="1376.708984"/>
     <use xlink:href="#DejaVuSans-53" x="1440.087891"/>
     <use xlink:href="#DejaVuSans-74" x="1503.564453"/>
     <use xlink:href="#DejaVuSans-72" x="1542.773438"/>
     <use xlink:href="#DejaVuSans-65" x="1581.636719"/>
     <use xlink:href="#DejaVuSans-65" x="1643.160156"/>
     <use xlink:href="#DejaVuSans-74" x="1704.683594"/>
     <use xlink:href="#DejaVuSans-4d" x="1743.892578"/>
     <use xlink:href="#DejaVuSans-61" x="1830.171875"/>
     <use xlink:href="#DejaVuSans-70" x="1891.451172"/>
     <use xlink:href="#DejaVuSans-20" x="1954.927734"/>
     <use xlink:href="#DejaVuSans-64" x="1986.714844"/>
     <use xlink:href="#DejaVuSans-61" x="2050.191406"/>
     <use xlink:href="#DejaVuSans-74" x="2111.470703"/>
     <use xlink:href="#DejaVuSans-61" x="2150.679688"/>
     <use xlink:href="#DejaVuSans-62" x="2211.958984"/>
     <use xlink:href="#DejaVuSans-61" x="2275.435547"/>
     <use xlink:href="#DejaVuSans-73" x="2336.714844"/>
     <use xlink:href="#DejaVuSans-65" x="2388.814453"/>
     <use xlink:href="#DejaVuSans-20" x="2450.337891"/>
     <use xlink:href="#DejaVuSans-69" x="2482.125"/>
     <use xlink:href="#DejaVuSans-6e" x="2509.908203"/>
     <use xlink:href="#DejaVuSans-20" x="2573.287109"/>
     <use xlink:href="#DejaVuSans-50" x="2605.074219"/>
     <use xlink:href="#DejaVuSans-6f" x="2661.751953"/>
     <use xlink:href="#DejaVuSans-6c" x="2722.933594"/>
     <use xlink:href="#DejaVuSans-61" x="2750.716797"/>
     <use xlink:href="#DejaVuSans-6e" x="2811.996094"/>
     <use xlink:href="#DejaVuSans-64" x="2875.375"/>
     <use xlink:href="#DejaVuSans-20" x="2938.851562"/>
     <use xlink:href="#DejaVuSans-66" x="2970.638672"/>
     <use xlink:href="#DejaVuSans-72" x="3005.84375"/>
     <use xlink:href="#DejaVuSans-6f" x="3044.707031"/>
     <use xlink:href="#DejaVuSans-6d" x="3105.888672"/>
     <use xlink:href="#DejaVuSans-20" x="3203.300781"/>
     <use xlink:href="#DejaVuSans-32" x="3235.087891"/>
     <use xlink:href="#DejaVuSans-30" x="3298.710938"/>
     <use xlink:href="#DejaVuSans-32" x="3362.333984"/>
     <use xlink:href="#DejaVuSans-36" x="3425.957031"/>
     <use xlink:href="#DejaVuSans-2d" x="3489.580078"/>
     <use xlink:href="#DejaVuSans-30" x="3525.664062"/>
     <use xlink:href="#DejaVuSans-31" x="3589.287109"/>
     <use xlink:href="#DejaVuSans-2d" x="3652.910156"/>
     <use xlink:href="#DejaVuSans-30" x="3688.994141"/>
     <use xlink:href="#DejaVuSans-31" x="3752.617188"/>
     <use xlink:href="#DejaVuSans-2c" x="3816.240234"/>
     <use xlink:href="#DejaVuSans-20" x="3848.027344"/>
     <use xlink:href="#DejaVuSans-64" x="3879.814453"/>
     <use xlink:href="#DejaVuSans-61" x="3943.291016"/>
     <use xlink:href="#DejaVuSans-79" x="4004.570312"/>
     <use xlink:href="#DejaVuSans-20" x="4063.75"/>
     <use xlink:href="#DejaVuSans-62" x="4095.537109"/>
     <use xlink:href="#DejaVuSans-79" x="4159.013672"/>
     <use xlink:href="#DejaVuSans-20" x="4218.193359"/>
     <use xlink:href="#DejaVuSans-64" x="4249.980469"/>
     <use xlink:href="#DejaVuSans-61" x="4313.457031"/>
     <use xlink:href="#DejaVuSans-79" x="4374.736328"/>
     <use xlink:href="#DejaVuSans-2e" x="4419.666016"/>
     <use xlink:href="#DejaVuSans-20" x="4451.453125"/>
     <use xlink:href="#DejaVuSans-41" x="4483.240234"/>
     <use xlink:href="#DejaVuSans-73" x="4551.648438"/>
     <use xlink:href="#DejaVuSans-20" x="4603.748047"/>
     <use xlink:href="#DejaVuSans-61" x="4635.535156"/>
     <use xlink:href="#DejaVuSans-74" x="4696.814453"/>
     <use xlink:href="#DejaVuSans-3a" x="4736.023438"/>
     <use xlink:href="#DejaVuSans-20" x="4769.714844"/>
     <use xlink:href="#DejaVuSans-32" x="4801.501953"/>
     <use xlink:href="#DejaVuSans-30" x="4865.125"/>
     <use xlink:href="#DejaVuSans-32" x="4928.748047"/>
     <use xlink:href="#DejaVuSans-36" x="4992.371094"/>
     <use xlink:href="#DejaVuSans-2d" x="5055.994141"/>
     <use xlink:href="#DejaVuSans-30" x="5092.078125"/>
     <use xlink:href="#DejaVuSans-32" x="5155.701172"/>
     <use xlink:href="#DejaVuSans-2d" x="5219.324219"/>
     <use xlink:href="#DejaVuSans-31" x="5255.408203"/>
     <use xlink:href="#DejaVuSans-36" x="5319.03125"/>
    </g>
   </g>
  </g>
 </g>
 <defs>
  <clipPath id="pd5640d8ff4">
   <rect x="144" y="69.12" width="892.8" height="443.52"/>
  </clipPath>
 </defs>
</svg>
