<?xml version="1.0" encoding="utf-8" standalone="no"?>
<!DOCTYPE svg PUBLIC "-//W3C//DTD SVG 1.1//EN"
  "http://www.w3.org/Graphics/SVG/1.1/DTD/svg11.dtd">
<svg xmlns:xlink="http://www.w3.org/1999/xlink" width="1152pt" height="576pt" viewBox="0 0 1152 576" xmlns="http://www.w3.org/2000/svg" version="1.1">
 <metadata>
  <rdf:RDF xmlns:dc="http://purl.org/dc/elements/1.1/" xmlns:cc="http://creativecommons.org/ns#" xmlns:rdf="http://www.w3.org/1999/02/22-rdf-syntax-ns#">
   <cc:Work>
    <dc:type rdf:resource="http://purl.org/dc/dcmitype/StillImage"/>
    <dc:date>1980-01-01T00:00:00+00:00</dc:date>
    <dc:format>image/svg+xml</dc:format>
    <dc:creator>
     <cc:Agent>
      <dc:title>Matplotlib v3.9.1, https://matplotlib.org/</dc:title>
     </cc:Agent>
    </dc:creator>
   </cc:Work>
  </rdf:RDF>
 </metadata>
 <defs>
  <style type="text/css">*{stroke-linejoin: round; stroke-linecap: butt}</style>
 </defs>
 <g id="figure_1">
  <g id="patch_1">
   <path d="M 0 576 
L 1152 576 
L 1152 0 
L 0 0 
z
" style="fill: #ffffff"/>
  </g>
  <g id="axes_1">
   <g id="patch_2">
    <path d="M 144 512.64 
L 1036.8 512.64 
L 1036.8 69.12 
L 144 69.12 
z
" style="fill: #ffffff"/>
   </g>
   <g id="PathCollection_1">
    <path d="M 184.581818 494.716068 
C 185.17483 494.716068 185.743634 494.480462 186.162957 494.061139 
C 186.58228 493.641816 186.817886 493.073012 186.817886 492.48 
C 186.817886 491.886988 186.58228 491.318184 186.162957 490.898861 
C 185.743634 490.479538 185.17483 490.243932 184.581818 490.243932 
C 183.988806 490.243932 183.420002 490.479538 183.000679 490.898861 
C 182.581356 491.318184 182.34575 491.886988 182.34575 492.48 
C 182.34575 493.073012 182.581356 493.641816 183.000679 494.061139 
C 183.420002 494.480462 183.988806 494.716068 184.581818 494.716068 
z
" clip-path="url(#p3fc298d527)" style="fill: #1f77b4; fill-opacity: 0.3; stroke: #1f77b4; stroke-opacity: 0.3"/>
    <path d="M 197.887332 495.050017 
C 198.824967 495.050017 199.724325 494.677491 200.387332 494.014483 
C 201.05034 493.351475 201.422866 492.452117 201.422866 491.514483 
C 201.422866 490.576848 201.05034 489.677491 200.387332 489.014483 
C 199.724325 488.351475 198.824967 487.978949 197.887332 487.978949 
C 196.949698 487.978949 196.05034 488.351475 195.387332 489.014483 
C 194.724325 489.677491 194.351798 490.576848 194.351798 491.514483 
C 194.351798 492.452117 194.724325 493.351475 195.387332 494.014483 
C 196.05034 494.677491 196.949698 495.050017 197.887332 495.050017 
z
" clip-path="url(#p3fc298d527)" style="fill: #1f77b4; fill-opacity: 0.3; stroke: #1f77b4; stroke-opacity: 0.3"/>
    <path d="M 211.192846 494.741655 
C 212.816877 494.741655 214.37461 494.096421 215.522974 492.948058 
C 216.671337 491.799695 217.316571 490.241962 217.316571 488.617931 
C 217.316571 486.9939 216.671337 485.436167 215.522974 484.287804 
C 214.37461 483.139441 212.816877 482.494207 211.192846 482.494207 
C 209.568816 482.494207 208.011083 483.139441 206.862719 484.287804 
C 205.714356 485.436167 205.069122 486.9939 205.069122 488.617931 
C 205.069122 490.241962 205.714356 491.799695 206.862719 492.948058 
C 208.011083 494.096421 209.568816 494.741655 211.192846 494.741655 
z
" clip-path="url(#p3fc298d527)" style="fill: #1f77b4; fill-opacity: 0.3; stroke: #1f77b4; stroke-opacity: 0.3"/>
    <path d="M 224.498361 490.777233 
C 225.224649 490.777233 225.921289 490.488676 226.434852 489.975112 
C 226.948416 489.461549 227.236973 488.764909 227.236973 488.038621 
C 227.236973 487.312332 226.948416 486.615693 226.434852 486.102129 
C 225.921289 485.588565 225.224649 485.300008 224.498361 485.300008 
C 223.772072 485.300008 223.075433 485.588565 222.561869 486.102129 
C 222.048305 486.615693 221.759748 487.312332 221.759748 488.038621 
C 221.759748 488.764909 222.048305 489.461549 222.561869 489.975112 
C 223.075433 490.488676 223.772072 490.777233 224.498361 490.777233 
z
" clip-path="url(#p3fc298d527)" style="fill: #1f77b4; fill-opacity: 0.3; stroke: #1f77b4; stroke-opacity: 0.3"/>
    <path d="M 237.803875 490.965929 
C 238.989899 490.965929 240.127507 490.494717 240.966152 489.656071 
C 241.804798 488.817425 242.276011 487.679817 242.276011 486.493793 
C 242.276011 485.307769 241.804798 484.170161 240.966152 483.331515 
C 240.127507 482.49287 238.989899 482.021657 237.803875 482.021657 
C 236.61785 482.021657 235.480243 482.49287 234.641597 483.331515 
C 233.802951 484.170161 233.331739 485.307769 233.331739 486.493793 
C 233.331739 487.679817 233.802951 488.817425 234.641597 489.656071 
C 235.480243 490.494717 236.61785 490.965929 237.803875 490.965929 
z
" clip-path="url(#p3fc298d527)" style="fill: #1f77b4; fill-opacity: 0.3; stroke: #1f77b4; stroke-opacity: 0.3"/>
    <path d="M 251.109389 489.562759 
C 252.435404 489.562759 253.707288 489.035927 254.644923 488.098293 
C 255.582557 487.160658 256.109389 485.888774 256.109389 484.562759 
C 256.109389 483.236743 255.582557 481.964859 254.644923 481.027225 
C 253.707288 480.08959 252.435404 479.562759 251.109389 479.562759 
C 249.783373 479.562759 248.51149 480.08959 247.573855 481.027225 
C 246.636221 481.964859 246.109389 483.236743 246.109389 484.562759 
C 246.109389 485.888774 246.636221 487.160658 247.573855 488.098293 
C 248.51149 489.035927 249.783373 489.562759 251.109389 489.562759 
z
" clip-path="url(#p3fc298d527)" style="fill: #1f77b4; fill-opacity: 0.3; stroke: #1f77b4; stroke-opacity: 0.3"/>
    <path d="M 264.414903 486.41262 
C 265.007915 486.41262 265.576719 486.177013 265.996042 485.757691 
C 266.415365 485.338368 266.650971 484.769564 266.650971 484.176552 
C 266.650971 483.58354 266.415365 483.014736 265.996042 482.595413 
C 265.576719 482.17609 265.007915 481.940484 264.414903 481.940484 
C 263.821891 481.940484 263.253087 482.17609 262.833764 482.595413 
C 262.414441 483.014736 262.178835 483.58354 262.178835 484.176552 
C 262.178835 484.769564 262.414441 485.338368 262.833764 485.757691 
C 263.253087 486.177013 263.821891 486.41262 264.414903 486.41262 
z
" clip-path="url(#p3fc298d527)" style="fill: #1f77b4; fill-opacity: 0.3; stroke: #1f77b4; stroke-opacity: 0.3"/>
    <path d="M 277.720417 487.10386 
C 278.906442 487.10386 280.044049 486.632648 280.882695 485.794002 
C 281.721341 484.955356 282.192553 483.817748 282.192553 482.631724 
C 282.192553 481.4457 281.721341 480.308092 280.882695 479.469446 
C 280.044049 478.630801 278.906442 478.159588 277.720417 478.159588 
C 276.534393 478.159588 275.396785 478.630801 274.55814 479.469446 
C 273.719494 480.308092 273.248281 481.4457 273.248281 482.631724 
C 273.248281 483.817748 273.719494 484.955356 274.55814 485.794002 
C 275.396785 486.632648 276.534393 487.10386 277.720417 487.10386 
z
" clip-path="url(#p3fc298d527)" style="fill: #1f77b4; fill-opacity: 0.3; stroke: #1f77b4; stroke-opacity: 0.3"/>
    <path d="M 291.025931 484.791027 
C 291.75222 484.791027 292.44886 484.502469 292.962423 483.988905 
C 293.475987 483.475342 293.764544 482.778702 293.764544 482.052414 
C 293.764544 481.326125 293.475987 480.629486 292.962423 480.115922 
C 292.44886 479.602359 291.75222 479.313801 291.025931 479.313801 
C 290.299643 479.313801 289.603003 479.602359 289.08944 480.115922 
C 288.575876 480.629486 288.287319 481.326125 288.287319 482.052414 
C 288.287319 482.778702 288.575876 483.475342 289.08944 483.988905 
C 289.603003 484.502469 290.299643 484.791027 291.025931 484.791027 
z
" clip-path="url(#p3fc298d527)" style="fill: #1f77b4; fill-opacity: 0.3; stroke: #1f77b4; stroke-opacity: 0.3"/>
    <path d="M 304.331446 484.442278 
C 305.170091 484.442278 305.974501 484.10908 306.567514 483.516068 
C 307.160526 482.923056 307.493723 482.118646 307.493723 481.28 
C 307.493723 480.441354 307.160526 479.636944 306.567514 479.043932 
C 305.974501 478.45092 305.170091 478.117722 304.331446 478.117722 
C 303.4928 478.117722 302.68839 478.45092 302.095378 479.043932 
C 301.502365 479.636944 301.169168 480.441354 301.169168 481.28 
C 301.169168 482.118646 301.502365 482.923056 302.095378 483.516068 
C 302.68839 484.10908 303.4928 484.442278 304.331446 484.442278 
z
" clip-path="url(#p3fc298d527)" style="fill: #1f77b4; fill-opacity: 0.3; stroke: #1f77b4; stroke-opacity: 0.3"/>
    <path d="M 317.63696 483.129861 
C 318.229972 483.129861 318.798776 482.894255 319.218099 482.474932 
C 319.637422 482.055609 319.873028 481.486805 319.873028 480.893793 
C 319.873028 480.300781 319.637422 479.731977 319.218099 479.312654 
C 318.798776 478.893331 318.229972 478.657725 317.63696 478.657725 
C 317.043948 478.657725 316.475144 478.893331 316.055821 479.312654 
C 315.636498 479.731977 315.400892 480.300781 315.400892 480.893793 
C 315.400892 481.486805 315.636498 482.055609 316.055821 482.474932 
C 316.475144 482.894255 317.043948 483.129861 317.63696 483.129861 
z
" clip-path="url(#p3fc298d527)" style="fill: #1f77b4; fill-opacity: 0.3; stroke: #1f77b4; stroke-opacity: 0.3"/>
    <path d="M 330.942474 483.46381 
C 331.880108 483.46381 332.779466 483.091284 333.442474 482.428276 
C 334.105482 481.765268 334.478008 480.86591 334.478008 479.928276 
C 334.478008 478.990641 334.105482 478.091284 333.442474 477.428276 
C 332.779466 476.765268 331.880108 476.392742 330.942474 476.392742 
C 330.004839 476.392742 329.105482 476.765268 328.442474 477.428276 
C 327.779466 478.091284 327.40694 478.990641 327.40694 479.928276 
C 327.40694 480.86591 327.779466 481.765268 328.442474 482.428276 
C 329.105482 483.091284 330.004839 483.46381 330.942474 483.46381 
z
" clip-path="url(#p3fc298d527)" style="fill: #1f77b4; fill-opacity: 0.3; stroke: #1f77b4; stroke-opacity: 0.3"/>
    <path d="M 344.247988 482.31814 
C 345.086634 482.31814 345.891044 481.984942 346.484056 481.39193 
C 347.077068 480.798918 347.410266 479.994508 347.410266 479.155862 
C 347.410266 478.317216 347.077068 477.512806 346.484056 476.919794 
C 345.891044 476.326782 345.086634 475.993584 344.247988 475.993584 
C 343.409342 475.993584 342.604932 476.326782 342.01192 476.919794 
C 341.418908 477.512806 341.08571 478.317216 341.08571 479.155862 
C 341.08571 479.994508 341.418908 480.798918 342.01192 481.39193 
C 342.604932 481.984942 343.409342 482.31814 344.247988 482.31814 
z
" clip-path="url(#p3fc298d527)" style="fill: #1f77b4; fill-opacity: 0.3; stroke: #1f77b4; stroke-opacity: 0.3"/>
    <path d="M 357.553502 481.725879 
C 358.491137 481.725879 359.390494 481.353353 360.053502 480.690345 
C 360.71651 480.027337 361.089036 479.127979 361.089036 478.190345 
C 361.089036 477.25271 360.71651 476.353353 360.053502 475.690345 
C 359.390494 475.027337 358.491137 474.654811 357.553502 474.654811 
C 356.615868 474.654811 355.71651 475.027337 355.053502 475.690345 
C 354.390494 476.353353 354.017968 477.25271 354.017968 478.190345 
C 354.017968 479.127979 354.390494 480.027337 355.053502 480.690345 
C 355.71651 481.353353 356.615868 481.725879 357.553502 481.725879 
z
" clip-path="url(#p3fc298d527)" style="fill: #1f77b4; fill-opacity: 0.3; stroke: #1f77b4; stroke-opacity: 0.3"/>
    <path d="M 370.859016 480.760361 
C 371.796651 480.760361 372.696009 480.387835 373.359016 479.724828 
C 374.022024 479.06182 374.39455 478.162462 374.39455 477.224828 
C 374.39455 476.287193 374.022024 475.387835 373.359016 474.724828 
C 372.696009 474.06182 371.796651 473.689294 370.859016 473.689294 
C 369.921382 473.689294 369.022024 474.06182 368.359016 474.724828 
C 367.696009 475.387835 367.323482 476.287193 367.323482 477.224828 
C 367.323482 478.162462 367.696009 479.06182 368.359016 479.724828 
C 369.022024 480.387835 369.921382 480.760361 370.859016 480.760361 
z
" clip-path="url(#p3fc298d527)" style="fill: #1f77b4; fill-opacity: 0.3; stroke: #1f77b4; stroke-opacity: 0.3"/>
    <path d="M 384.164531 479.93919 
C 385.191658 479.93919 386.176855 479.531108 386.903143 478.80482 
C 387.629432 478.078531 388.037514 477.093334 388.037514 476.066207 
C 388.037514 475.03908 387.629432 474.053883 386.903143 473.327594 
C 386.176855 472.601306 385.191658 472.193224 384.164531 472.193224 
C 383.137403 472.193224 382.152206 472.601306 381.425918 473.327594 
C 380.699629 474.053883 380.291547 475.03908 380.291547 476.066207 
C 380.291547 477.093334 380.699629 478.078531 381.425918 478.80482 
C 382.152206 479.531108 383.137403 479.93919 384.164531 479.93919 
z
" clip-path="url(#p3fc298d527)" style="fill: #1f77b4; fill-opacity: 0.3; stroke: #1f77b4; stroke-opacity: 0.3"/>
    <path d="M 397.470045 478.636224 
C 398.407679 478.636224 399.307037 478.263697 399.970045 477.60069 
C 400.633052 476.937682 401.005579 476.038324 401.005579 475.10069 
C 401.005579 474.163055 400.633052 473.263697 399.970045 472.60069 
C 399.307037 471.937682 398.407679 471.565156 397.470045 471.565156 
C 396.53241 471.565156 395.633052 471.937682 394.970045 472.60069 
C 394.307037 473.263697 393.934511 474.163055 393.934511 475.10069 
C 393.934511 476.038324 394.307037 476.937682 394.970045 477.60069 
C 395.633052 478.263697 396.53241 478.636224 397.470045 478.636224 
z
" clip-path="url(#p3fc298d527)" style="fill: #1f77b4; fill-opacity: 0.3; stroke: #1f77b4; stroke-opacity: 0.3"/>
    <path d="M 410.775559 477.815052 
C 411.802686 477.815052 412.787883 477.40697 413.514172 476.680682 
C 414.24046 475.954393 414.648542 474.969196 414.648542 473.942069 
C 414.648542 472.914942 414.24046 471.929745 413.514172 471.203456 
C 412.787883 470.477168 411.802686 470.069086 410.775559 470.069086 
C 409.748432 470.069086 408.763235 470.477168 408.036946 471.203456 
C 407.310657 471.929745 406.902576 472.914942 406.902576 473.942069 
C 406.902576 474.969196 407.310657 475.954393 408.036946 476.680682 
C 408.763235 477.40697 409.748432 477.815052 410.775559 477.815052 
z
" clip-path="url(#p3fc298d527)" style="fill: #1f77b4; fill-opacity: 0.3; stroke: #1f77b4; stroke-opacity: 0.3"/>
    <path d="M 424.081073 476.773645 
C 425.190497 476.773645 426.254632 476.332866 427.039113 475.548385 
C 427.823594 474.763903 428.264373 473.699769 428.264373 472.590345 
C 428.264373 471.480921 427.823594 470.416786 427.039113 469.632305 
C 426.254632 468.847824 425.190497 468.407045 424.081073 468.407045 
C 422.971649 468.407045 421.907514 468.847824 421.123033 469.632305 
C 420.338552 470.416786 419.897773 471.480921 419.897773 472.590345 
C 419.897773 473.699769 420.338552 474.763903 421.123033 475.548385 
C 421.907514 476.332866 422.971649 476.773645 424.081073 476.773645 
z
" clip-path="url(#p3fc298d527)" style="fill: #1f77b4; fill-opacity: 0.3; stroke: #1f77b4; stroke-opacity: 0.3"/>
    <path d="M 437.386587 475.421921 
C 438.496011 475.421921 439.560146 474.981142 440.344627 474.196661 
C 441.129108 473.412179 441.569887 472.348045 441.569887 471.238621 
C 441.569887 470.129197 441.129108 469.065062 440.344627 468.280581 
C 439.560146 467.496099 438.496011 467.055321 437.386587 467.055321 
C 436.277163 467.055321 435.213029 467.496099 434.428547 468.280581 
C 433.644066 469.065062 433.203287 470.129197 433.203287 471.238621 
C 433.203287 472.348045 433.644066 473.412179 434.428547 474.196661 
C 435.213029 474.981142 436.277163 475.421921 437.386587 475.421921 
z
" clip-path="url(#p3fc298d527)" style="fill: #1f77b4; fill-opacity: 0.3; stroke: #1f77b4; stroke-opacity: 0.3"/>
    <path d="M 450.692101 473.952983 
C 451.719229 473.952983 452.704426 473.544901 453.430714 472.818613 
C 454.157003 472.092324 454.565085 471.107127 454.565085 470.08 
C 454.565085 469.052873 454.157003 468.067676 453.430714 467.341387 
C 452.704426 466.615099 451.719229 466.207017 450.692101 466.207017 
C 449.664974 466.207017 448.679777 466.615099 447.953489 467.341387 
C 447.2272 468.067676 446.819118 469.052873 446.819118 470.08 
C 446.819118 471.107127 447.2272 472.092324 447.953489 472.818613 
C 448.679777 473.544901 449.664974 473.952983 450.692101 473.952983 
z
" clip-path="url(#p3fc298d527)" style="fill: #1f77b4; fill-opacity: 0.3; stroke: #1f77b4; stroke-opacity: 0.3"/>
    <path d="M 463.997615 473.199906 
C 465.388352 473.199906 466.722315 472.647361 467.705715 471.663961 
C 468.689114 470.680562 469.24166 469.346599 469.24166 467.955862 
C 469.24166 466.565125 468.689114 465.231162 467.705715 464.247763 
C 466.722315 463.264363 465.388352 462.711818 463.997615 462.711818 
C 462.606879 462.711818 461.272916 463.264363 460.289516 464.247763 
C 459.306117 465.231162 458.753571 466.565125 458.753571 467.955862 
C 458.753571 469.346599 459.306117 470.680562 460.289516 471.663961 
C 461.272916 472.647361 462.606879 473.199906 463.997615 473.199906 
z
" clip-path="url(#p3fc298d527)" style="fill: #1f77b4; fill-opacity: 0.3; stroke: #1f77b4; stroke-opacity: 0.3"/>
    <path d="M 477.30313 471.190762 
C 478.980421 471.190762 480.589241 470.524367 481.775266 469.338343 
C 482.96129 468.152319 483.627685 466.543499 483.627685 464.866207 
C 483.627685 463.188915 482.96129 461.580095 481.775266 460.394071 
C 480.589241 459.208047 478.980421 458.541652 477.30313 458.541652 
C 475.625838 458.541652 474.017018 459.208047 472.830994 460.394071 
C 471.644969 461.580095 470.978574 463.188915 470.978574 464.866207 
C 470.978574 466.543499 471.644969 468.152319 472.830994 469.338343 
C 474.017018 470.524367 475.625838 471.190762 477.30313 471.190762 
z
" clip-path="url(#p3fc298d527)" style="fill: #1f77b4; fill-opacity: 0.3; stroke: #1f77b4; stroke-opacity: 0.3"/>
    <path d="M 490.608644 467.977691 
C 492.662898 467.977691 494.633292 467.161527 496.085869 465.70895 
C 497.538447 464.256373 498.354611 462.285979 498.354611 460.231724 
C 498.354611 458.17747 497.538447 456.207076 496.085869 454.754499 
C 494.633292 453.301921 492.662898 452.485757 490.608644 452.485757 
C 488.554389 452.485757 486.583995 453.301921 485.131418 454.754499 
C 483.678841 456.207076 482.862677 458.17747 482.862677 460.231724 
C 482.862677 462.285979 483.678841 464.256373 485.131418 465.70895 
C 486.583995 467.161527 488.554389 467.977691 490.608644 467.977691 
z
" clip-path="url(#p3fc298d527)" style="fill: #1f77b4; fill-opacity: 0.3; stroke: #1f77b4; stroke-opacity: 0.3"/>
    <path d="M 503.914158 463.0633 
C 505.023582 463.0633 506.087717 462.622521 506.872198 461.83804 
C 507.656679 461.053559 508.097458 459.989424 508.097458 458.88 
C 508.097458 457.770576 507.656679 456.706441 506.872198 455.92196 
C 506.087717 455.137479 505.023582 454.6967 503.914158 454.6967 
C 502.804734 454.6967 501.740599 455.137479 500.956118 455.92196 
C 500.171637 456.706441 499.730858 457.770576 499.730858 458.88 
C 499.730858 459.989424 500.171637 461.053559 500.956118 461.83804 
C 501.740599 462.622521 502.804734 463.0633 503.914158 463.0633 
z
" clip-path="url(#p3fc298d527)" style="fill: #1f77b4; fill-opacity: 0.3; stroke: #1f77b4; stroke-opacity: 0.3"/>
    <path d="M 517.219672 462.070532 
C 518.731562 462.070532 520.181733 461.469852 521.250801 460.400784 
C 522.319869 459.331716 522.920549 457.881545 522.920549 456.369655 
C 522.920549 454.857765 522.319869 453.407594 521.250801 452.338526 
C 520.181733 451.269458 518.731562 450.668778 517.219672 450.668778 
C 515.707782 450.668778 514.257611 451.269458 513.188543 452.338526 
C 512.119475 453.407594 511.518795 454.857765 511.518795 456.369655 
C 511.518795 457.881545 512.119475 459.331716 513.188543 460.400784 
C 514.257611 461.469852 515.707782 462.070532 517.219672 462.070532 
z
" clip-path="url(#p3fc298d527)" style="fill: #1f77b4; fill-opacity: 0.3; stroke: #1f77b4; stroke-opacity: 0.3"/>
    <path d="M 530.525186 459.582287 
C 532.094149 459.582287 533.599062 458.958931 534.708486 457.849507 
C 535.817911 456.740083 536.441266 455.23517 536.441266 453.666207 
C 536.441266 452.097244 535.817911 450.592331 534.708486 449.482907 
C 533.599062 448.373483 532.094149 447.750127 530.525186 447.750127 
C 528.956224 447.750127 527.45131 448.373483 526.341886 449.482907 
C 525.232462 450.592331 524.609107 452.097244 524.609107 453.666207 
C 524.609107 455.23517 525.232462 456.740083 526.341886 457.849507 
C 527.45131 458.958931 528.956224 459.582287 530.525186 459.582287 
z
" clip-path="url(#p3fc298d527)" style="fill: #1f77b4; fill-opacity: 0.3; stroke: #1f77b4; stroke-opacity: 0.3"/>
    <path d="M 543.8307 456.376744 
C 546.239527 456.376744 548.550019 455.419707 550.253317 453.716409 
C 551.956614 452.013112 552.913652 449.70262 552.913652 447.293793 
C 552.913652 444.884966 551.956614 442.574475 550.253317 440.871177 
C 548.550019 439.167879 546.239527 438.210842 543.8307 438.210842 
C 541.421874 438.210842 539.111382 439.167879 537.408084 440.871177 
C 535.704786 442.574475 534.747749 444.884966 534.747749 447.293793 
C 534.747749 449.70262 535.704786 452.013112 537.408084 453.716409 
C 539.111382 455.419707 541.421874 456.376744 543.8307 456.376744 
z
" clip-path="url(#p3fc298d527)" style="fill: #1f77b4; fill-opacity: 0.3; stroke: #1f77b4; stroke-opacity: 0.3"/>
    <path d="M 557.136215 450.110995 
C 559.470906 450.110995 561.710288 449.183412 563.361164 447.532536 
C 565.01204 445.88166 565.939623 443.642277 565.939623 441.307586 
C 565.939623 438.972895 565.01204 436.733512 563.361164 435.082636 
C 561.710288 433.43176 559.470906 432.504178 557.136215 432.504178 
C 554.801523 432.504178 552.562141 433.43176 550.911265 435.082636 
C 549.260389 436.733512 548.332806 438.972895 548.332806 441.307586 
C 548.332806 443.642277 549.260389 445.88166 550.911265 447.532536 
C 552.562141 449.183412 554.801523 450.110995 557.136215 450.110995 
z
" clip-path="url(#p3fc298d527)" style="fill: #1f77b4; fill-opacity: 0.3; stroke: #1f77b4; stroke-opacity: 0.3"/>
    <path d="M 570.441729 444.018123 
C 572.850556 444.018123 575.161047 443.061086 576.864345 441.357789 
C 578.567643 439.654491 579.52468 437.343999 579.52468 434.935172 
C 579.52468 432.526346 578.567643 430.215854 576.864345 428.512556 
C 575.161047 426.809258 572.850556 425.852221 570.441729 425.852221 
C 568.032902 425.852221 565.72241 426.809258 564.019112 428.512556 
C 562.315815 430.215854 561.358778 432.526346 561.358778 434.935172 
C 561.358778 437.343999 562.315815 439.654491 564.019112 441.357789 
C 565.72241 443.061086 568.032902 444.018123 570.441729 444.018123 
z
" clip-path="url(#p3fc298d527)" style="fill: #1f77b4; fill-opacity: 0.3; stroke: #1f77b4; stroke-opacity: 0.3"/>
    <path d="M 583.747243 437.530695 
C 586.227991 437.530695 588.607468 436.545084 590.361621 434.79093 
C 592.115775 433.036776 593.101386 430.6573 593.101386 428.176552 
C 593.101386 425.695804 592.115775 423.316327 590.361621 421.562173 
C 588.607468 419.80802 586.227991 418.822408 583.747243 418.822408 
C 581.266495 418.822408 578.887018 419.80802 577.132865 421.562173 
C 575.378711 423.316327 574.393099 425.695804 574.393099 428.176552 
C 574.393099 430.6573 575.378711 433.036776 577.132865 434.79093 
C 578.887018 436.545084 581.266495 437.530695 583.747243 437.530695 
z
" clip-path="url(#p3fc298d527)" style="fill: #1f77b4; fill-opacity: 0.3; stroke: #1f77b4; stroke-opacity: 0.3"/>
    <path d="M 597.052757 431.399611 
C 598.880543 431.399611 600.633714 430.673423 601.926154 429.380983 
C 603.218594 428.088543 603.944781 426.335372 603.944781 424.507586 
C 603.944781 422.6798 603.218594 420.926629 601.926154 419.634189 
C 600.633714 418.341749 598.880543 417.615562 597.052757 417.615562 
C 595.224971 417.615562 593.4718 418.341749 592.17936 419.634189 
C 590.88692 420.926629 590.160733 422.6798 590.160733 424.507586 
C 590.160733 426.335372 590.88692 428.088543 592.17936 429.380983 
C 593.4718 430.673423 595.224971 431.399611 597.052757 431.399611 
z
" clip-path="url(#p3fc298d527)" style="fill: #1f77b4; fill-opacity: 0.3; stroke: #1f77b4; stroke-opacity: 0.3"/>
    <path d="M 610.358271 427.434895 
C 611.544296 427.434895 612.681903 426.963682 613.520549 426.125036 
C 614.359195 425.28639 614.830407 424.148783 614.830407 422.962759 
C 614.830407 421.776734 614.359195 420.639127 613.520549 419.800481 
C 612.681903 418.961835 611.544296 418.490623 610.358271 418.490623 
C 609.172247 418.490623 608.034639 418.961835 607.195994 419.800481 
C 606.357348 420.639127 605.886135 421.776734 605.886135 422.962759 
C 605.886135 424.148783 606.357348 425.28639 607.195994 426.125036 
C 608.034639 426.963682 609.172247 427.434895 610.358271 427.434895 
z
" clip-path="url(#p3fc298d527)" style="fill: #1f77b4; fill-opacity: 0.3; stroke: #1f77b4; stroke-opacity: 0.3"/>
    <path d="M 623.663785 426.189931 
C 625.287816 426.189931 626.845549 425.544697 627.993912 424.396334 
C 629.142276 423.247971 629.78751 421.690238 629.78751 420.066207 
C 629.78751 418.442176 629.142276 416.884443 627.993912 415.73608 
C 626.845549 414.587717 625.287816 413.942483 623.663785 413.942483 
C 622.039755 413.942483 620.482021 414.587717 619.333658 415.73608 
C 618.185295 416.884443 617.540061 418.442176 617.540061 420.066207 
C 617.540061 421.690238 618.185295 423.247971 619.333658 424.396334 
C 620.482021 425.544697 622.039755 426.189931 623.663785 426.189931 
z
" clip-path="url(#p3fc298d527)" style="fill: #1f77b4; fill-opacity: 0.3; stroke: #1f77b4; stroke-opacity: 0.3"/>
    <path d="M 636.9693 420.996647 
C 640.135118 420.996647 643.171699 419.738854 645.410271 417.500282 
C 647.648843 415.26171 648.906636 412.225129 648.906636 409.05931 
C 648.906636 405.893492 647.648843 402.856911 645.410271 400.618339 
C 643.171699 398.379767 640.135118 397.121974 636.9693 397.121974 
C 633.803481 397.121974 630.7669 398.379767 628.528328 400.618339 
C 626.289756 402.856911 625.031963 405.893492 625.031963 409.05931 
C 625.031963 412.225129 626.289756 415.26171 628.528328 417.500282 
C 630.7669 419.738854 633.803481 420.996647 636.9693 420.996647 
z
" clip-path="url(#p3fc298d527)" style="fill: #1f77b4; fill-opacity: 0.3; stroke: #1f77b4; stroke-opacity: 0.3"/>
    <path d="M 650.274814 404.518609 
C 654.652674 404.518609 658.851817 402.779266 661.947431 399.683652 
C 665.043046 396.588038 666.782388 392.388894 666.782388 388.011034 
C 666.782388 383.633175 665.043046 379.434031 661.947431 376.338417 
C 658.851817 373.242803 654.652674 371.50346 650.274814 371.50346 
C 645.896954 371.50346 641.697811 373.242803 638.602196 376.338417 
C 635.506582 379.434031 633.76724 383.633175 633.76724 388.011034 
C 633.76724 392.388894 635.506582 396.588038 638.602196 399.683652 
C 641.697811 402.779266 645.896954 404.518609 650.274814 404.518609 
z
" clip-path="url(#p3fc298d527)" style="fill: #1f77b4; fill-opacity: 0.3; stroke: #1f77b4; stroke-opacity: 0.3"/>
    <path d="M 663.580328 389.774914 
C 666.455061 389.774914 669.212439 388.632771 671.245183 386.600027 
C 673.277926 384.567284 674.42007 381.809906 674.42007 378.935172 
C 674.42007 376.060439 673.277926 373.303061 671.245183 371.270318 
C 669.212439 369.237574 666.455061 368.095431 663.580328 368.095431 
C 660.705595 368.095431 657.948216 369.237574 655.915473 371.270318 
C 653.88273 373.303061 652.740586 376.060439 652.740586 378.935172 
C 652.740586 381.809906 653.88273 384.567284 655.915473 386.600027 
C 657.948216 388.632771 660.705595 389.774914 663.580328 389.774914 
z
" clip-path="url(#p3fc298d527)" style="fill: #1f77b4; fill-opacity: 0.3; stroke: #1f77b4; stroke-opacity: 0.3"/>
    <path d="M 676.885842 378.93942 
C 680.318148 378.93942 683.610338 377.575751 686.037345 375.148744 
C 688.464351 372.721737 689.828021 369.429547 689.828021 365.997241 
C 689.828021 362.564935 688.464351 359.272746 686.037345 356.845739 
C 683.610338 354.418732 680.318148 353.055062 676.885842 353.055062 
C 673.453536 353.055062 670.161346 354.418732 667.734339 356.845739 
C 665.307333 359.272746 663.943663 362.564935 663.943663 365.997241 
C 663.943663 369.429547 665.307333 372.721737 667.734339 375.148744 
C 670.161346 377.575751 673.453536 378.93942 676.885842 378.93942 
z
" clip-path="url(#p3fc298d527)" style="fill: #1f77b4; fill-opacity: 0.3; stroke: #1f77b4; stroke-opacity: 0.3"/>
    <path d="M 690.191356 369.229583 
C 691.970393 369.229583 693.676804 368.522765 694.934773 367.264796 
C 696.192741 366.006827 696.89956 364.300416 696.89956 362.521379 
C 696.89956 360.742343 696.192741 359.035932 694.934773 357.777963 
C 693.676804 356.519994 691.970393 355.813175 690.191356 355.813175 
C 688.41232 355.813175 686.705908 356.519994 685.44794 357.777963 
C 684.189971 359.035932 683.483152 360.742343 683.483152 362.521379 
C 683.483152 364.300416 684.189971 366.006827 685.44794 367.264796 
C 686.705908 368.522765 688.41232 369.229583 690.191356 369.229583 
z
" clip-path="url(#p3fc298d527)" style="fill: #1f77b4; fill-opacity: 0.3; stroke: #1f77b4; stroke-opacity: 0.3"/>
    <path d="M 703.49687 365.338581 
C 705.831562 365.338581 708.070944 364.410998 709.72182 362.760122 
C 711.372696 361.109246 712.300279 358.869864 712.300279 356.535172 
C 712.300279 354.200481 711.372696 351.961099 709.72182 350.310223 
C 708.070944 348.659347 705.831562 347.731764 703.49687 347.731764 
C 701.162179 347.731764 698.922797 348.659347 697.271921 350.310223 
C 695.621045 351.961099 694.693462 354.200481 694.693462 356.535172 
C 694.693462 358.869864 695.621045 361.109246 697.271921 362.760122 
C 698.922797 364.410998 701.162179 365.338581 703.49687 365.338581 
z
" clip-path="url(#p3fc298d527)" style="fill: #1f77b4; fill-opacity: 0.3; stroke: #1f77b4; stroke-opacity: 0.3"/>
    <path d="M 716.802385 358.452119 
C 719.615288 358.452119 722.313361 357.33454 724.302385 355.345517 
C 726.291408 353.356494 727.408986 350.658421 727.408986 347.845517 
C 727.408986 345.032614 726.291408 342.33454 724.302385 340.345517 
C 722.313361 338.356494 719.615288 337.238916 716.802385 337.238916 
C 713.989481 337.238916 711.291408 338.356494 709.302385 340.345517 
C 707.313361 342.33454 706.195783 345.032614 706.195783 347.845517 
C 706.195783 350.658421 707.313361 353.356494 709.302385 355.345517 
C 711.291408 357.33454 713.989481 358.452119 716.802385 358.452119 
z
" clip-path="url(#p3fc298d527)" style="fill: #1f77b4; fill-opacity: 0.3; stroke: #1f77b4; stroke-opacity: 0.3"/>
    <path d="M 730.107899 349.762464 
C 732.920802 349.762464 735.618875 348.644885 737.607899 346.655862 
C 739.596922 344.666839 740.7145 341.968766 740.7145 339.155862 
C 740.7145 336.342958 739.596922 333.644885 737.607899 331.655862 
C 735.618875 329.666839 732.920802 328.54926 730.107899 328.54926 
C 727.294995 328.54926 724.596922 329.666839 722.607899 331.655862 
C 720.618875 333.644885 719.501297 336.342958 719.501297 339.155862 
C 719.501297 341.968766 720.618875 344.666839 722.607899 346.655862 
C 724.596922 348.644885 727.294995 349.762464 730.107899 349.762464 
z
" clip-path="url(#p3fc298d527)" style="fill: #1f77b4; fill-opacity: 0.3; stroke: #1f77b4; stroke-opacity: 0.3"/>
    <path d="M 743.413413 340.086302 
C 746.579231 340.086302 749.615813 338.828509 751.854384 336.589937 
C 754.092956 334.351365 755.350749 331.314784 755.350749 328.148966 
C 755.350749 324.983147 754.092956 321.946566 751.854384 319.707994 
C 749.615813 317.469422 746.579231 316.211629 743.413413 316.211629 
C 740.247594 316.211629 737.211013 317.469422 734.972441 319.707994 
C 732.733869 321.946566 731.476076 324.983147 731.476076 328.148966 
C 731.476076 331.314784 732.733869 334.351365 734.972441 336.589937 
C 737.211013 338.828509 740.247594 340.086302 743.413413 340.086302 
z
" clip-path="url(#p3fc298d527)" style="fill: #1f77b4; fill-opacity: 0.3; stroke: #1f77b4; stroke-opacity: 0.3"/>
    <path d="M 756.718927 327.051137 
C 760.422287 327.051137 763.974465 325.579776 766.593136 322.961105 
C 769.211807 320.342435 770.683167 316.790256 770.683167 313.086897 
C 770.683167 309.383537 769.211807 305.831359 766.593136 303.212688 
C 763.974465 300.594017 760.422287 299.122657 756.718927 299.122657 
C 753.015567 299.122657 749.463389 300.594017 746.844718 303.212688 
C 744.226047 305.831359 742.754687 309.383537 742.754687 313.086897 
C 742.754687 316.790256 744.226047 320.342435 746.844718 322.961105 
C 749.463389 325.579776 753.015567 327.051137 756.718927 327.051137 
z
" clip-path="url(#p3fc298d527)" style="fill: #1f77b4; fill-opacity: 0.3; stroke: #1f77b4; stroke-opacity: 0.3"/>
    <path d="M 770.024441 313.564382 
C 773.326193 313.564382 776.493158 312.252582 778.82785 309.917891 
C 781.162541 307.5832 782.474341 304.416235 782.474341 301.114483 
C 782.474341 297.812731 781.162541 294.645766 778.82785 292.311074 
C 776.493158 289.976383 773.326193 288.664583 770.024441 288.664583 
C 766.722689 288.664583 763.555724 289.976383 761.221033 292.311074 
C 758.886341 294.645766 757.574542 297.812731 757.574542 301.114483 
C 757.574542 304.416235 758.886341 307.5832 761.221033 309.917891 
C 763.555724 312.252582 766.722689 313.564382 770.024441 313.564382 
z
" clip-path="url(#p3fc298d527)" style="fill: #1f77b4; fill-opacity: 0.3; stroke: #1f77b4; stroke-opacity: 0.3"/>
    <path d="M 783.329955 304.183448 
C 784.655971 304.183448 785.927855 303.656617 786.865489 302.718982 
C 787.803124 301.781348 788.329955 300.509464 788.329955 299.183448 
C 788.329955 297.857433 787.803124 296.585549 786.865489 295.647914 
C 785.927855 294.71028 784.655971 294.183448 783.329955 294.183448 
C 782.00394 294.183448 780.732056 294.71028 779.794421 295.647914 
C 778.856787 296.585549 778.329955 297.857433 778.329955 299.183448 
C 778.329955 300.509464 778.856787 301.781348 779.794421 302.718982 
C 780.732056 303.656617 782.00394 304.183448 783.329955 304.183448 
z
" clip-path="url(#p3fc298d527)" style="fill: #1f77b4; fill-opacity: 0.3; stroke: #1f77b4; stroke-opacity: 0.3"/>
    <path d="M 796.635469 302.343432 
C 798.088047 302.343432 799.481326 301.766317 800.508453 300.73919 
C 801.53558 299.712063 802.112695 298.318784 802.112695 296.866207 
C 802.112695 295.41363 801.53558 294.020351 800.508453 292.993224 
C 799.481326 291.966096 798.088047 291.388981 796.635469 291.388981 
C 795.182892 291.388981 793.789613 291.966096 792.762486 292.993224 
C 791.735359 294.020351 791.158244 295.41363 791.158244 296.866207 
C 791.158244 298.318784 791.735359 299.712063 792.762486 300.73919 
C 793.789613 301.766317 795.182892 302.343432 796.635469 302.343432 
z
" clip-path="url(#p3fc298d527)" style="fill: #1f77b4; fill-opacity: 0.3; stroke: #1f77b4; stroke-opacity: 0.3"/>
    <path d="M 809.940984 292.907964 
C 814.217255 292.907964 818.318957 291.208983 821.342738 288.185203 
C 824.366518 285.161422 826.065499 281.05972 826.065499 276.783448 
C 826.065499 272.507177 824.366518 268.405475 821.342738 265.381694 
C 818.318957 262.357913 814.217255 260.658933 809.940984 260.658933 
C 805.664712 260.658933 801.56301 262.357913 798.539229 265.381694 
C 795.515449 268.405475 793.816468 272.507177 793.816468 276.783448 
C 793.816468 281.05972 795.515449 285.161422 798.539229 288.185203 
C 801.56301 291.208983 805.664712 292.907964 809.940984 292.907964 
z
" clip-path="url(#p3fc298d527)" style="fill: #1f77b4; fill-opacity: 0.3; stroke: #1f77b4; stroke-opacity: 0.3"/>
    <path d="M 823.246498 275.160722 
C 827.066711 275.160722 830.730973 273.642935 833.432272 270.941636 
C 836.133571 268.240338 837.651358 264.576076 837.651358 260.755862 
C 837.651358 256.935648 836.133571 253.271387 833.432272 250.570088 
C 830.730973 247.868789 827.066711 246.351002 823.246498 246.351002 
C 819.426284 246.351002 815.762022 247.868789 813.060723 250.570088 
C 810.359424 253.271387 808.841637 256.935648 808.841637 260.755862 
C 808.841637 264.576076 810.359424 268.240338 813.060723 270.941636 
C 815.762022 273.642935 819.426284 275.160722 823.246498 275.160722 
z
" clip-path="url(#p3fc298d527)" style="fill: #1f77b4; fill-opacity: 0.3; stroke: #1f77b4; stroke-opacity: 0.3"/>
    <path d="M 836.552012 262.441348 
C 839.457166 262.441348 842.243724 261.287118 844.297979 259.232863 
C 846.352233 257.178609 847.506463 254.392051 847.506463 251.486897 
C 847.506463 248.581742 846.352233 245.795184 844.297979 243.74093 
C 842.243724 241.686675 839.457166 240.532445 836.552012 240.532445 
C 833.646858 240.532445 830.8603 241.686675 828.806045 243.74093 
C 826.751791 245.795184 825.597561 248.581742 825.597561 251.486897 
C 825.597561 254.392051 826.751791 257.178609 828.806045 259.232863 
C 830.8603 261.287118 833.646858 262.441348 836.552012 262.441348 
z
" clip-path="url(#p3fc298d527)" style="fill: #1f77b4; fill-opacity: 0.3; stroke: #1f77b4; stroke-opacity: 0.3"/>
    <path d="M 849.857526 247.873697 
C 854.071669 247.873697 858.113779 246.1994 861.093629 243.219551 
C 864.073478 240.239702 865.747775 236.197591 865.747775 231.983448 
C 865.747775 227.769305 864.073478 223.727195 861.093629 220.747346 
C 858.113779 217.767497 854.071669 216.0932 849.857526 216.0932 
C 845.643383 216.0932 841.601273 217.767497 838.621424 220.747346 
C 835.641574 223.727195 833.967277 227.769305 833.967277 231.983448 
C 833.967277 236.197591 835.641574 240.239702 838.621424 243.219551 
C 841.601273 246.1994 845.643383 247.873697 849.857526 247.873697 
z
" clip-path="url(#p3fc298d527)" style="fill: #1f77b4; fill-opacity: 0.3; stroke: #1f77b4; stroke-opacity: 0.3"/>
    <path d="M 863.16304 227.089063 
C 867.600737 227.089063 871.857274 225.325947 874.9952 222.188022 
C 878.133125 219.050096 879.896241 214.793559 879.896241 210.355862 
C 879.896241 205.918165 878.133125 201.661628 874.9952 198.523703 
C 871.857274 195.385777 867.600737 193.622662 863.16304 193.622662 
C 858.725344 193.622662 854.468806 195.385777 851.330881 198.523703 
C 848.192955 201.661628 846.42984 205.918165 846.42984 210.355862 
C 846.42984 214.793559 848.192955 219.050096 851.330881 222.188022 
C 854.468806 225.325947 858.725344 227.089063 863.16304 227.089063 
z
" clip-path="url(#p3fc298d527)" style="fill: #1f77b4; fill-opacity: 0.3; stroke: #1f77b4; stroke-opacity: 0.3"/>
    <path d="M 876.468554 213.173064 
C 878.803246 213.173064 881.042628 212.245481 882.693504 210.594605 
C 884.34438 208.943729 885.271963 206.704346 885.271963 204.369655 
C 885.271963 202.034964 884.34438 199.795581 882.693504 198.144705 
C 881.042628 196.493829 878.803246 195.566247 876.468554 195.566247 
C 874.133863 195.566247 871.894481 196.493829 870.243605 198.144705 
C 868.592729 199.795581 867.665146 202.034964 867.665146 204.369655 
C 867.665146 206.704346 868.592729 208.943729 870.243605 210.594605 
C 871.894481 212.245481 874.133863 213.173064 876.468554 213.173064 
z
" clip-path="url(#p3fc298d527)" style="fill: #1f77b4; fill-opacity: 0.3; stroke: #1f77b4; stroke-opacity: 0.3"/>
    <path d="M 889.774069 207.529639 
C 891.226646 207.529639 892.619925 206.952524 893.647052 205.925397 
C 894.674179 204.89827 895.251294 203.504991 895.251294 202.052414 
C 895.251294 200.599837 894.674179 199.206558 893.647052 198.17943 
C 892.619925 197.152303 891.226646 196.575188 889.774069 196.575188 
C 888.321491 196.575188 886.928212 197.152303 885.901085 198.17943 
C 884.873958 199.206558 884.296843 200.599837 884.296843 202.052414 
C 884.296843 203.504991 884.873958 204.89827 885.901085 205.925397 
C 886.928212 206.952524 888.321491 207.529639 889.774069 207.529639 
z
" clip-path="url(#p3fc298d527)" style="fill: #1f77b4; fill-opacity: 0.3; stroke: #1f77b4; stroke-opacity: 0.3"/>
    <path d="M 903.079583 198.209565 
C 907.335246 198.209565 911.41718 196.518772 914.426388 193.509564 
C 917.435596 190.500356 919.126389 186.418421 919.126389 182.162759 
C 919.126389 177.907096 917.435596 173.825161 914.426388 170.815953 
C 911.41718 167.806745 907.335246 166.115952 903.079583 166.115952 
C 898.82392 166.115952 894.741985 167.806745 891.732777 170.815953 
C 888.723569 173.825161 887.032776 177.907096 887.032776 182.162759 
C 887.032776 186.418421 888.723569 190.500356 891.732777 193.509564 
C 894.741985 196.518772 898.82392 198.209565 903.079583 198.209565 
z
" clip-path="url(#p3fc298d527)" style="fill: #1f77b4; fill-opacity: 0.3; stroke: #1f77b4; stroke-opacity: 0.3"/>
    <path d="M 916.385097 185.274243 
C 918.439351 185.274243 920.409745 184.458079 921.862322 183.005501 
C 923.3149 181.552924 924.131064 179.58253 924.131064 177.528276 
C 924.131064 175.474021 923.3149 173.503627 921.862322 172.05105 
C 920.409745 170.598473 918.439351 169.782309 916.385097 169.782309 
C 914.330842 169.782309 912.360448 170.598473 910.907871 172.05105 
C 909.455294 173.503627 908.63913 175.474021 908.63913 177.528276 
C 908.63913 179.58253 909.455294 181.552924 910.907871 183.005501 
C 912.360448 184.458079 914.330842 185.274243 916.385097 185.274243 
z
" clip-path="url(#p3fc298d527)" style="fill: #1f77b4; fill-opacity: 0.3; stroke: #1f77b4; stroke-opacity: 0.3"/>
    <path d="M 929.690611 178.36987 
C 932.884079 178.36987 935.947181 177.101092 938.205304 174.842969 
C 940.463427 172.584846 941.732206 169.521744 941.732206 166.328276 
C 941.732206 163.134808 940.463427 160.071706 938.205304 157.813583 
C 935.947181 155.55546 932.884079 154.286681 929.690611 154.286681 
C 926.497143 154.286681 923.434041 155.55546 921.175918 157.813583 
C 918.917795 160.071706 917.649016 163.134808 917.649016 166.328276 
C 917.649016 169.521744 918.917795 172.584846 921.175918 174.842969 
C 923.434041 177.101092 926.497143 178.36987 929.690611 178.36987 
z
" clip-path="url(#p3fc298d527)" style="fill: #1f77b4; fill-opacity: 0.3; stroke: #1f77b4; stroke-opacity: 0.3"/>
    <path d="M 942.996125 167.258716 
C 946.161944 167.258716 949.198525 166.000923 951.437097 163.762351 
C 953.675669 161.523779 954.933462 158.487198 954.933462 155.321379 
C 954.933462 152.155561 953.675669 149.11898 951.437097 146.880408 
C 949.198525 144.641836 946.161944 143.384043 942.996125 143.384043 
C 939.830307 143.384043 936.793725 144.641836 934.555154 146.880408 
C 932.316582 149.11898 931.058789 152.155561 931.058789 155.321379 
C 931.058789 158.487198 932.316582 161.523779 934.555154 163.762351 
C 936.793725 166.000923 939.830307 167.258716 942.996125 167.258716 
z
" clip-path="url(#p3fc298d527)" style="fill: #1f77b4; fill-opacity: 0.3; stroke: #1f77b4; stroke-opacity: 0.3"/>
    <path d="M 956.301639 141.641703 
C 961.943052 141.641703 967.354167 139.400345 971.343248 135.411264 
C 975.33233 131.422183 977.573687 126.011068 977.573687 120.369655 
C 977.573687 114.728242 975.33233 109.317128 971.343248 105.328046 
C 967.354167 101.338965 961.943052 99.097608 956.301639 99.097608 
C 950.660226 99.097608 945.249112 101.338965 941.26003 105.328046 
C 937.270949 109.317128 935.029592 114.728242 935.029592 120.369655 
C 935.029592 126.011068 937.270949 131.422183 941.26003 135.411264 
C 945.249112 139.400345 950.660226 141.641703 956.301639 141.641703 
z
" clip-path="url(#p3fc298d527)" style="fill: #1f77b4; fill-opacity: 0.3; stroke: #1f77b4; stroke-opacity: 0.3"/>
    <path d="M 969.607154 113.540958 
C 974.351251 113.540958 978.901681 111.656108 982.256264 108.301524 
C 985.610847 104.946941 987.495697 100.396511 987.495697 95.652414 
C 987.495697 90.908317 985.610847 86.357887 982.256264 83.003303 
C 978.901681 79.64872 974.351251 77.76387 969.607154 77.76387 
C 964.863056 77.76387 960.312626 79.64872 956.958043 83.003303 
C 953.60346 86.357887 951.71861 90.908317 951.71861 95.652414 
C 951.71861 100.396511 953.60346 104.946941 956.958043 108.301524 
C 960.312626 111.656108 964.863056 113.540958 969.607154 113.540958 
z
" clip-path="url(#p3fc298d527)" style="fill: #1f77b4; fill-opacity: 0.3; stroke: #1f77b4; stroke-opacity: 0.3"/>
    <path d="M 982.912668 98.875473 
C 984.740454 98.875473 986.493625 98.149285 987.786065 96.856845 
C 989.078505 95.564405 989.804692 93.811235 989.804692 91.983448 
C 989.804692 90.155662 989.078505 88.402491 987.786065 87.110051 
C 986.493625 85.817611 984.740454 85.091424 982.912668 85.091424 
C 981.084881 85.091424 979.331711 85.817611 978.03927 87.110051 
C 976.74683 88.402491 976.020643 90.155662 976.020643 91.983448 
C 976.020643 93.811235 976.74683 95.564405 978.03927 96.856845 
C 979.331711 98.149285 981.084881 98.875473 982.912668 98.875473 
z
" clip-path="url(#p3fc298d527)" style="fill: #1f77b4; fill-opacity: 0.3; stroke: #1f77b4; stroke-opacity: 0.3"/>
    <path d="M 996.218182 95.19608 
C 997.787145 95.19608 999.292058 94.572724 1000.401482 93.4633 
C 1001.510906 92.353876 1002.134262 90.848963 1002.134262 89.28 
C 1002.134262 87.711037 1001.510906 86.206124 1000.401482 85.0967 
C 999.292058 83.987276 997.787145 83.36392 996.218182 83.36392 
C 994.649219 83.36392 993.144306 83.987276 992.034882 85.0967 
C 990.925458 86.206124 990.302102 87.711037 990.302102 89.28 
C 990.302102 90.848963 990.925458 92.353876 992.034882 93.4633 
C 993.144306 94.572724 994.649219 95.19608 996.218182 95.19608 
z
" clip-path="url(#p3fc298d527)" style="fill: #1f77b4; fill-opacity: 0.3; stroke: #1f77b4; stroke-opacity: 0.3"/>
   </g>
   <g id="matplotlib.axis_1">
    <g id="xtick_1">
     <g id="line2d_1">
      <defs>
       <path id="m342e4fb1d0" d="M 0 0 
L 0 3.5 
" style="stroke: #000000; stroke-width: 0.8"/>
      </defs>
      <g>
       <use xlink:href="#m342e4fb1d0" x="184.581818" y="512.64" style="stroke: #000000; stroke-width: 0.8"/>
      </g>
     </g>
     <g id="text_1">
      <!-- 2025-01-01 -->
      <g transform="translate(155.524006 527.238438) scale(0.1 -0.1)">
       <defs>
        <path id="DejaVuSans-32" d="M 1228 531 
L 3431 531 
L 3431 0 
L 469 0 
L 469 531 
Q 828 903 1448 1529 
Q 2069 2156 2228 2338 
Q 2531 2678 2651 2914 
Q 2772 3150 2772 3378 
Q 2772 3750 2511 3984 
Q 2250 4219 1831 4219 
Q 1534 4219 1204 4116 
Q 875 4013 500 3803 
L 500 4441 
Q 881 4594 1212 4672 
Q 1544 4750 1819 4750 
Q 2544 4750 2975 4387 
Q 3406 4025 3406 3419 
Q 3406 3131 3298 2873 
Q 3191 2616 2906 2266 
Q 2828 2175 2409 1742 
Q 1991 1309 1228 531 
z
" transform="scale(0.015625)"/>
        <path id="DejaVuSans-30" d="M 2034 4250 
Q 1547 4250 1301 3770 
Q 1056 3291 1056 2328 
Q 1056 1369 1301 889 
Q 1547 409 2034 409 
Q 2525 409 2770 889 
Q 3016 1369 3016 2328 
Q 3016 3291 2770 3770 
Q 2525 4250 2034 4250 
z
M 2034 4750 
Q 2819 4750 3233 4129 
Q 3647 3509 3647 2328 
Q 3647 1150 3233 529 
Q 2819 -91 2034 -91 
Q 1250 -91 836 529 
Q 422 1150 422 2328 
Q 422 3509 836 4129 
Q 1250 4750 2034 4750 
z
" transform="scale(0.015625)"/>
        <path id="DejaVuSans-35" d="M 691 4666 
L 3169 4666 
L 3169 4134 
L 1269 4134 
L 1269 2991 
Q 1406 3038 1543 3061 
Q 1681 3084 1819 3084 
Q 2600 3084 3056 2656 
Q 3513 2228 3513 1497 
Q 3513 744 3044 326 
Q 2575 -91 1722 -91 
Q 1428 -91 1123 -41 
Q 819 9 494 109 
L 494 744 
Q 775 591 1075 516 
Q 1375 441 1709 441 
Q 2250 441 2565 725 
Q 2881 1009 2881 1497 
Q 2881 1984 2565 2268 
Q 2250 2553 1709 2553 
Q 1456 2553 1204 2497 
Q 953 2441 691 2322 
L 691 4666 
z
" transform="scale(0.015625)"/>
        <path id="DejaVuSans-2d" d="M 313 2009 
L 1997 2009 
L 1997 1497 
L 313 1497 
L 313 2009 
z
" transform="scale(0.015625)"/>
        <path id="DejaVuSans-31" d="M 794 531 
L 1825 531 
L 1825 4091 
L 703 3866 
L 703 4441 
L 1819 4666 
L 2450 4666 
L 2450 531 
L 3481 531 
L 3481 0 
L 794 0 
L 794 531 
z
" transform="scale(0.015625)"/>
       </defs>
       <use xlink:href="#DejaVuSans-32"/>
       <use xlink:href="#DejaVuSans-30" x="63.623047"/>
       <use xlink:href="#DejaVuSans-32" x="127.246094"/>
       <use xlink:href="#DejaVuSans-35" x="190.869141"/>
       <use xlink:href="#DejaVuSans-2d" x="254.492188"/>
       <use xlink:href="#DejaVuSans-30" x="290.576172"/>
       <use xlink:href="#DejaVuSans-31" x="354.199219"/>
       <use xlink:href="#DejaVuSans-2d" x="417.822266"/>
       <use xlink:href="#DejaVuSans-30" x="453.90625"/>
       <use xlink:href="#DejaVuSans-31" x="517.529297"/>
      </g>
     </g>
    </g>
    <g id="xtick_2">
     <g id="line2d_2">
      <g>
       <use xlink:href="#m342e4fb1d0" x="277.720417" y="512.64" style="stroke: #000000; stroke-width: 0.8"/>
      </g>
     </g>
     <g id="text_2">
      <!-- 2025-01-08 -->
      <g transform="translate(248.662605 527.238438) scale(0.1 -0.1)">
       <defs>
        <path id="DejaVuSans-38" d="M 2034 2216 
Q 1584 2216 1326 1975 
Q 1069 1734 1069 1313 
Q 1069 891 1326 650 
Q 1584 409 2034 409 
Q 2484 409 2743 651 
Q 3003 894 3003 1313 
Q 3003 1734 2745 1975 
Q 2488 2216 2034 2216 
z
M 1403 2484 
Q 997 2584 770 2862 
Q 544 3141 544 3541 
Q 544 4100 942 4425 
Q 1341 4750 2034 4750 
Q 2731 4750 3128 4425 
Q 3525 4100 3525 3541 
Q 3525 3141 3298 2862 
Q 3072 2584 2669 2484 
Q 3125 2378 3379 2068 
Q 3634 1759 3634 1313 
Q 3634 634 3220 271 
Q 2806 -91 2034 -91 
Q 1263 -91 848 271 
Q 434 634 434 1313 
Q 434 1759 690 2068 
Q 947 2378 1403 2484 
z
M 1172 3481 
Q 1172 3119 1398 2916 
Q 1625 2713 2034 2713 
Q 2441 2713 2670 2916 
Q 2900 3119 2900 3481 
Q 2900 3844 2670 4047 
Q 2441 4250 2034 4250 
Q 1625 4250 1398 4047 
Q 1172 3844 1172 3481 
z
" transform="scale(0.015625)"/>
       </defs>
       <use xlink:href="#DejaVuSans-32"/>
       <use xlink:href="#DejaVuSans-30" x="63.623047"/>
       <use xlink:href="#DejaVuSans-32" x="127.246094"/>
       <use xlink:href="#DejaVuSans-35" x="190.869141"/>
       <use xlink:href="#DejaVuSans-2d" x="254.492188"/>
       <use xlink:href="#DejaVuSans-30" x="290.576172"/>
       <use xlink:href="#DejaVuSans-31" x="354.199219"/>
       <use xlink:href="#DejaVuSans-2d" x="417.822266"/>
       <use xlink:href="#DejaVuSans-30" x="453.90625"/>
       <use xlink:href="#DejaVuSans-38" x="517.529297"/>
      </g>
     </g>
    </g>
    <g id="xtick_3">
     <g id="line2d_3">
      <g>
       <use xlink:href="#m342e4fb1d0" x="370.859016" y="512.64" style="stroke: #000000; stroke-width: 0.8"/>
      </g>
     </g>
     <g id="text_3">
      <!-- 2025-01-15 -->
      <g transform="translate(341.801204 527.238438) scale(0.1 -0.1)">
       <use xlink:href="#DejaVuSans-32"/>
       <use xlink:href="#DejaVuSans-30" x="63.623047"/>
       <use xlink:href="#DejaVuSans-32" x="127.246094"/>
       <use xlink:href="#DejaVuSans-35" x="190.869141"/>
       <use xlink:href="#DejaVuSans-2d" x="254.492188"/>
       <use xlink:href="#DejaVuSans-30" x="290.576172"/>
       <use xlink:href="#DejaVuSans-31" x="354.199219"/>
       <use xlink:href="#DejaVuSans-2d" x="417.822266"/>
       <use xlink:href="#DejaVuSans-31" x="453.90625"/>
       <use xlink:href="#DejaVuSans-35" x="517.529297"/>
      </g>
     </g>
    </g>
    <g id="xtick_4">
     <g id="line2d_4">
      <g>
       <use xlink:href="#m342e4fb1d0" x="463.997615" y="512.64" style="stroke: #000000; stroke-width: 0.8"/>
      </g>
     </g>
     <g id="text_4">
      <!-- 2025-01-22 -->
      <g transform="translate(434.939803 527.238438) scale(0.1 -0.1)">
       <use xlink:href="#DejaVuSans-32"/>
       <use xlink:href="#DejaVuSans-30" x="63.623047"/>
       <use xlink:href="#DejaVuSans-32" x="127.246094"/>
       <use xlink:href="#DejaVuSans-35" x="190.869141"/>
       <use xlink:href="#DejaVuSans-2d" x="254.492188"/>
       <use xlink:href="#DejaVuSans-30" x="290.576172"/>
       <use xlink:href="#DejaVuSans-31" x="354.199219"/>
       <use xlink:href="#DejaVuSans-2d" x="417.822266"/>
       <use xlink:href="#DejaVuSans-32" x="453.90625"/>
       <use xlink:href="#DejaVuSans-32" x="517.529297"/>
      </g>
     </g>
    </g>
    <g id="xtick_5">
     <g id="line2d_5">
      <g>
       <use xlink:href="#m342e4fb1d0" x="597.052757" y="512.64" style="stroke: #000000; stroke-width: 0.8"/>
      </g>
     </g>
     <g id="text_5">
      <!-- 2025-02-01 -->
      <g transform="translate(567.994945 527.238438) scale(0.1 -0.1)">
       <use xlink:href="#DejaVuSans-32"/>
       <use xlink:href="#DejaVuSans-30" x="63.623047"/>
       <use xlink:href="#DejaVuSans-32" x="127.246094"/>
       <use xlink:href="#DejaVuSans-35" x="190.869141"/>
       <use xlink:href="#DejaVuSans-2d" x="254.492188"/>
       <use xlink:href="#DejaVuSans-30" x="290.576172"/>
       <use xlink:href="#DejaVuSans-32" x="354.199219"/>
       <use xlink:href="#DejaVuSans-2d" x="417.822266"/>
       <use xlink:href="#DejaVuSans-30" x="453.90625"/>
       <use xlink:href="#DejaVuSans-31" x="517.529297"/>
      </g>
     </g>
    </g>
    <g id="xtick_6">
     <g id="line2d_6">
      <g>
       <use xlink:href="#m342e4fb1d0" x="690.191356" y="512.64" style="stroke: #000000; stroke-width: 0.8"/>
      </g>
     </g>
     <g id="text_6">
      <!-- 2025-02-08 -->
      <g transform="translate(661.133544 527.238438) scale(0.1 -0.1)">
       <use xlink:href="#DejaVuSans-32"/>
       <use xlink:href="#DejaVuSans-30" x="63.623047"/>
       <use xlink:href="#DejaVuSans-32" x="127.246094"/>
       <use xlink:href="#DejaVuSans-35" x="190.869141"/>
       <use xlink:href="#DejaVuSans-2d" x="254.492188"/>
       <use xlink:href="#DejaVuSans-30" x="290.576172"/>
       <use xlink:href="#DejaVuSans-32" x="354.199219"/>
       <use xlink:href="#DejaVuSans-2d" x="417.822266"/>
       <use xlink:href="#DejaVuSans-30" x="453.90625"/>
       <use xlink:href="#DejaVuSans-38" x="517.529297"/>
      </g>
     </g>
    </g>
    <g id="xtick_7">
     <g id="line2d_7">
      <g>
       <use xlink:href="#m342e4fb1d0" x="783.329955" y="512.64" style="stroke: #000000; stroke-width: 0.8"/>
      </g>
     </g>
     <g id="text_7">
      <!-- 2025-02-15 -->
      <g transform="translate(754.272143 527.238438) scale(0.1 -0.1)">
       <use xlink:href="#DejaVuSans-32"/>
       <use xlink:href="#DejaVuSans-30" x="63.623047"/>
       <use xlink:href="#DejaVuSans-32" x="127.246094"/>
       <use xlink:href="#DejaVuSans-35" x="190.869141"/>
       <use xlink:href="#DejaVuSans-2d" x="254.492188"/>
       <use xlink:href="#DejaVuSans-30" x="290.576172"/>
       <use xlink:href="#DejaVuSans-32" x="354.199219"/>
       <use xlink:href="#DejaVuSans-2d" x="417.822266"/>
       <use xlink:href="#DejaVuSans-31" x="453.90625"/>
       <use xlink:href="#DejaVuSans-35" x="517.529297"/>
      </g>
     </g>
    </g>
    <g id="xtick_8">
     <g id="line2d_8">
      <g>
       <use xlink:href="#m342e4fb1d0" x="876.468554" y="512.64" style="stroke: #000000; stroke-width: 0.8"/>
      </g>
     </g>
     <g id="text_8">
      <!-- 2025-02-22 -->
      <g transform="translate(847.410742 527.238438) scale(0.1 -0.1)">
       <use xlink:href="#DejaVuSans-32"/>
       <use xlink:href="#DejaVuSans-30" x="63.623047"/>
       <use xlink:href="#DejaVuSans-32" x="127.246094"/>
       <use xlink:href="#DejaVuSans-35" x="190.869141"/>
       <use xlink:href="#DejaVuSans-2d" x="254.492188"/>
       <use xlink:href="#DejaVuSans-30" x="290.576172"/>
       <use xlink:href="#DejaVuSans-32" x="354.199219"/>
       <use xlink:href="#DejaVuSans-2d" x="417.822266"/>
       <use xlink:href="#DejaVuSans-32" x="453.90625"/>
       <use xlink:href="#DejaVuSans-32" x="517.529297"/>
      </g>
     </g>
    </g>
    <g id="xtick_9">
     <g id="line2d_9">
      <g>
       <use xlink:href="#m342e4fb1d0" x="969.607154" y="512.64" style="stroke: #000000; stroke-width: 0.8"/>
      </g>
     </g>
     <g id="text_9">
      <!-- 2025-03-01 -->
      <g transform="translate(940.549341 527.238438) scale(0.1 -0.1)">
       <defs>
        <path id="DejaVuSans-33" d="M 2597 2516 
Q 3050 2419 3304 2112 
Q 3559 1806 3559 1356 
Q 3559 666 3084 287 
Q 2609 -91 1734 -91 
Q 1441 -91 1130 -33 
Q 819 25 488 141 
L 488 750 
Q 750 597 1062 519 
Q 1375 441 1716 441 
Q 2309 441 2620 675 
Q 2931 909 2931 1356 
Q 2931 1769 2642 2001 
Q 2353 2234 1838 2234 
L 1294 2234 
L 1294 2753 
L 1863 2753 
Q 2328 2753 2575 2939 
Q 2822 3125 2822 3475 
Q 2822 3834 2567 4026 
Q 2313 4219 1838 4219 
Q 1578 4219 1281 4162 
Q 984 4106 628 3988 
L 628 4550 
Q 988 4650 1302 4700 
Q 1616 4750 1894 4750 
Q 2613 4750 3031 4423 
Q 3450 4097 3450 3541 
Q 3450 3153 3228 2886 
Q 3006 2619 2597 2516 
z
" transform="scale(0.015625)"/>
       </defs>
       <use xlink:href="#DejaVuSans-32"/>
       <use xlink:href="#DejaVuSans-30" x="63.623047"/>
       <use xlink:href="#DejaVuSans-32" x="127.246094"/>
       <use xlink:href="#DejaVuSans-35" x="190.869141"/>
       <use xlink:href="#DejaVuSans-2d" x="254.492188"/>
       <use xlink:href="#DejaVuSans-30" x="290.576172"/>
       <use xlink:href="#DejaVuSans-33" x="354.199219"/>
       <use xlink:href="#DejaVuSans-2d" x="417.822266"/>
       <use xlink:href="#DejaVuSans-30" x="453.90625"/>
       <use xlink:href="#DejaVuSans-31" x="517.529297"/>
      </g>
     </g>
    </g>
   </g>
   <g id="matplotlib.axis_2">
    <g id="ytick_1">
     <g id="line2d_10">
      <defs>
       <path id="m7739641568" d="M 0 0 
L -3.5 0 
" style="stroke: #000000; stroke-width: 0.8"/>
      </defs>
      <g>
       <use xlink:href="#m7739641568" x="144" y="442.852414" style="stroke: #000000; stroke-width: 0.8"/>
      </g>
     </g>
     <g id="text_10">
      <!-- 8500 -->
      <g transform="translate(111.55 446.651633) scale(0.1 -0.1)">
       <use xlink:href="#DejaVuSans-38"/>
       <use xlink:href="#DejaVuSans-35" x="63.623047"/>
       <use xlink:href="#DejaVuSans-30" x="127.246094"/>
       <use xlink:href="#DejaVuSans-30" x="190.869141"/>
      </g>
     </g>
    </g>
    <g id="ytick_2">
     <g id="line2d_11">
      <g>
       <use xlink:href="#m7739641568" x="144" y="346.30069" style="stroke: #000000; stroke-width: 0.8"/>
      </g>
     </g>
     <g id="text_11">
      <!-- 9000 -->
      <g transform="translate(111.55 350.099908) scale(0.1 -0.1)">
       <defs>
        <path id="DejaVuSans-39" d="M 703 97 
L 703 672 
Q 941 559 1184 500 
Q 1428 441 1663 441 
Q 2288 441 2617 861 
Q 2947 1281 2994 2138 
Q 2813 1869 2534 1725 
Q 2256 1581 1919 1581 
Q 1219 1581 811 2004 
Q 403 2428 403 3163 
Q 403 3881 828 4315 
Q 1253 4750 1959 4750 
Q 2769 4750 3195 4129 
Q 3622 3509 3622 2328 
Q 3622 1225 3098 567 
Q 2575 -91 1691 -91 
Q 1453 -91 1209 -44 
Q 966 3 703 97 
z
M 1959 2075 
Q 2384 2075 2632 2365 
Q 2881 2656 2881 3163 
Q 2881 3666 2632 3958 
Q 2384 4250 1959 4250 
Q 1534 4250 1286 3958 
Q 1038 3666 1038 3163 
Q 1038 2656 1286 2365 
Q 1534 2075 1959 2075 
z
" transform="scale(0.015625)"/>
       </defs>
       <use xlink:href="#DejaVuSans-39"/>
       <use xlink:href="#DejaVuSans-30" x="63.623047"/>
       <use xlink:href="#DejaVuSans-30" x="127.246094"/>
       <use xlink:href="#DejaVuSans-30" x="190.869141"/>
      </g>
     </g>
    </g>
    <g id="ytick_3">
     <g id="line2d_12">
      <g>
       <use xlink:href="#m7739641568" x="144" y="249.748966" style="stroke: #000000; stroke-width: 0.8"/>
      </g>
     </g>
     <g id="text_12">
      <!-- 9500 -->
      <g transform="translate(111.55 253.548184) scale(0.1 -0.1)">
       <use xlink:href="#DejaVuSans-39"/>
       <use xlink:href="#DejaVuSans-35" x="63.623047"/>
       <use xlink:href="#DejaVuSans-30" x="127.246094"/>
       <use xlink:href="#DejaVuSans-30" x="190.869141"/>
      </g>
     </g>
    </g>
    <g id="ytick_4">
     <g id="line2d_13">
      <g>
       <use xlink:href="#m7739641568" x="144" y="153.197241" style="stroke: #000000; stroke-width: 0.8"/>
      </g>
     </g>
     <g id="text_13">
      <!-- 10000 -->
      <g transform="translate(105.1875 156.99646) scale(0.1 -0.1)">
       <use xlink:href="#DejaVuSans-31"/>
       <use xlink:href="#DejaVuSans-30" x="63.623047"/>
       <use xlink:href="#DejaVuSans-30" x="127.246094"/>
       <use xlink:href="#DejaVuSans-30" x="190.869141"/>
       <use xlink:href="#DejaVuSans-30" x="254.492188"/>
      </g>
     </g>
    </g>
   </g>
   <g id="line2d_14">
    <path d="M 184.581818 492.48 
L 197.887332 491.514483 
L 211.192846 488.617931 
L 224.498361 488.038621 
L 237.803875 486.493793 
L 251.109389 484.562759 
L 264.414903 484.176552 
L 277.720417 482.631724 
L 291.025931 482.052414 
L 304.331446 481.28 
L 317.63696 480.893793 
L 330.942474 479.928276 
L 344.247988 479.155862 
L 357.553502 478.190345 
L 370.859016 477.224828 
L 384.164531 476.066207 
L 397.470045 475.10069 
L 410.775559 473.942069 
L 424.081073 472.590345 
L 437.386587 471.238621 
L 450.692101 470.08 
L 463.997615 467.955862 
L 477.30313 464.866207 
L 490.608644 460.231724 
L 503.914158 458.88 
L 517.219672 456.369655 
L 530.525186 453.666207 
L 543.8307 447.293793 
L 557.136215 441.307586 
L 570.441729 434.935172 
L 583.747243 428.176552 
L 597.052757 424.507586 
L 610.358271 422.962759 
L 623.663785 420.066207 
L 636.9693 409.05931 
L 650.274814 388.011034 
L 663.580328 378.935172 
L 676.885842 365.997241 
L 690.191356 362.521379 
L 703.49687 356.535172 
L 716.802385 347.845517 
L 730.107899 339.155862 
L 743.413413 328.148966 
L 756.718927 313.086897 
L 770.024441 301.114483 
L 783.329955 299.183448 
L 796.635469 296.866207 
L 809.940984 276.783448 
L 823.246498 260.755862 
L 836.552012 251.486897 
L 849.857526 231.983448 
L 863.16304 210.355862 
L 876.468554 204.369655 
L 889.774069 202.052414 
L 903.079583 182.162759 
L 916.385097 177.528276 
L 929.690611 166.328276 
L 942.996125 155.321379 
L 956.301639 120.369655 
L 969.607154 95.652414 
L 982.912668 91.983448 
L 996.218182 89.28 
" clip-path="url(#p3fc298d527)" style="fill: none; stroke: #1f77b4; stroke-width: 1.5; stroke-linecap: square"/>
   </g>
   <g id="patch_3">
    <path d="M 144 512.64 
L 144 69.12 
" style="fill: none; stroke: #000000; stroke-width: 0.8; stroke-linejoin: miter; stroke-linecap: square"/>
   </g>
   <g id="patch_4">
    <path d="M 1036.8 512.64 
L 1036.8 69.12 
" style="fill: none; stroke: #000000; stroke-width: 0.8; stroke-linejoin: miter; stroke-linecap: square"/>
   </g>
   <g id="patch_5">
    <path d="M 144 512.64 
L 1036.8 512.64 
" style="fill: none; stroke: #000000; stroke-width: 0.8; stroke-linejoin: miter; stroke-linecap: square"/>
   </g>
   <g id="patch_6">
    <path d="M 144 69.12 
L 1036.8 69.12 
" style="fill: none; stroke: #000000; stroke-width: 0.8; stroke-linejoin: miter; stroke-linecap: square"/>
   </g>
   <g id="text_14">
    <!-- Number of AEDs in the OpenStreetMap database in Poland from 2025-01-01, day by day. As at: 2025-03-03 -->
    <g transform="translate(144 63.12) scale(0.14 -0.14)">
     <defs>
      <path id="DejaVuSans-4e" d="M 628 4666 
L 1478 4666 
L 3547 763 
L 3547 4666 
L 4159 4666 
L 4159 0 
L 3309 0 
L 1241 3903 
L 1241 0 
L 628 0 
L 628 4666 
z
" transform="scale(0.015625)"/>
      <path id="DejaVuSans-75" d="M 544 1381 
L 544 3500 
L 1119 3500 
L 1119 1403 
Q 1119 906 1312 657 
Q 1506 409 1894 409 
Q 2359 409 2629 706 
Q 2900 1003 2900 1516 
L 2900 3500 
L 3475 3500 
L 3475 0 
L 2900 0 
L 2900 538 
Q 2691 219 2414 64 
Q 2138 -91 1772 -91 
Q 1169 -91 856 284 
Q 544 659 544 1381 
z
M 1991 3584 
L 1991 3584 
z
" transform="scale(0.015625)"/>
      <path id="DejaVuSans-6d" d="M 3328 2828 
Q 3544 3216 3844 3400 
Q 4144 3584 4550 3584 
Q 5097 3584 5394 3201 
Q 5691 2819 5691 2113 
L 5691 0 
L 5113 0 
L 5113 2094 
Q 5113 2597 4934 2840 
Q 4756 3084 4391 3084 
Q 3944 3084 3684 2787 
Q 3425 2491 3425 1978 
L 3425 0 
L 2847 0 
L 2847 2094 
Q 2847 2600 2669 2842 
Q 2491 3084 2119 3084 
Q 1678 3084 1418 2786 
Q 1159 2488 1159 1978 
L 1159 0 
L 581 0 
L 581 3500 
L 1159 3500 
L 1159 2956 
Q 1356 3278 1631 3431 
Q 1906 3584 2284 3584 
Q 2666 3584 2933 3390 
Q 3200 3197 3328 2828 
z
" transform="scale(0.015625)"/>
      <path id="DejaVuSans-62" d="M 3116 1747 
Q 3116 2381 2855 2742 
Q 2594 3103 2138 3103 
Q 1681 3103 1420 2742 
Q 1159 2381 1159 1747 
Q 1159 1113 1420 752 
Q 1681 391 2138 391 
Q 2594 391 2855 752 
Q 3116 1113 3116 1747 
z
M 1159 2969 
Q 1341 3281 1617 3432 
Q 1894 3584 2278 3584 
Q 2916 3584 3314 3078 
Q 3713 2572 3713 1747 
Q 3713 922 3314 415 
Q 2916 -91 2278 -91 
Q 1894 -91 1617 61 
Q 1341 213 1159 525 
L 1159 0 
L 581 0 
L 581 4863 
L 1159 4863 
L 1159 2969 
z
" transform="scale(0.015625)"/>
      <path id="DejaVuSans-65" d="M 3597 1894 
L 3597 1613 
L 953 1613 
Q 991 1019 1311 708 
Q 1631 397 2203 397 
Q 2534 397 2845 478 
Q 3156 559 3463 722 
L 3463 178 
Q 3153 47 2828 -22 
Q 2503 -91 2169 -91 
Q 1331 -91 842 396 
Q 353 884 353 1716 
Q 353 2575 817 3079 
Q 1281 3584 2069 3584 
Q 2775 3584 3186 3129 
Q 3597 2675 3597 1894 
z
M 3022 2063 
Q 3016 2534 2758 2815 
Q 2500 3097 2075 3097 
Q 1594 3097 1305 2825 
Q 1016 2553 972 2059 
L 3022 2063 
z
" transform="scale(0.015625)"/>
      <path id="DejaVuSans-72" d="M 2631 2963 
Q 2534 3019 2420 3045 
Q 2306 3072 2169 3072 
Q 1681 3072 1420 2755 
Q 1159 2438 1159 1844 
L 1159 0 
L 581 0 
L 581 3500 
L 1159 3500 
L 1159 2956 
Q 1341 3275 1631 3429 
Q 1922 3584 2338 3584 
Q 2397 3584 2469 3576 
Q 2541 3569 2628 3553 
L 2631 2963 
z
" transform="scale(0.015625)"/>
      <path id="DejaVuSans-20" transform="scale(0.015625)"/>
      <path id="DejaVuSans-6f" d="M 1959 3097 
Q 1497 3097 1228 2736 
Q 959 2375 959 1747 
Q 959 1119 1226 758 
Q 1494 397 1959 397 
Q 2419 397 2687 759 
Q 2956 1122 2956 1747 
Q 2956 2369 2687 2733 
Q 2419 3097 1959 3097 
z
M 1959 3584 
Q 2709 3584 3137 3096 
Q 3566 2609 3566 1747 
Q 3566 888 3137 398 
Q 2709 -91 1959 -91 
Q 1206 -91 779 398 
Q 353 888 353 1747 
Q 353 2609 779 3096 
Q 1206 3584 1959 3584 
z
" transform="scale(0.015625)"/>
      <path id="DejaVuSans-66" d="M 2375 4863 
L 2375 4384 
L 1825 4384 
Q 1516 4384 1395 4259 
Q 1275 4134 1275 3809 
L 1275 3500 
L 2222 3500 
L 2222 3053 
L 1275 3053 
L 1275 0 
L 697 0 
L 697 3053 
L 147 3053 
L 147 3500 
L 697 3500 
L 697 3744 
Q 697 4328 969 4595 
Q 1241 4863 1831 4863 
L 2375 4863 
z
" transform="scale(0.015625)"/>
      <path id="DejaVuSans-41" d="M 2188 4044 
L 1331 1722 
L 3047 1722 
L 2188 4044 
z
M 1831 4666 
L 2547 4666 
L 4325 0 
L 3669 0 
L 3244 1197 
L 1141 1197 
L 716 0 
L 50 0 
L 1831 4666 
z
" transform="scale(0.015625)"/>
      <path id="DejaVuSans-45" d="M 628 4666 
L 3578 4666 
L 3578 4134 
L 1259 4134 
L 1259 2753 
L 3481 2753 
L 3481 2222 
L 1259 2222 
L 1259 531 
L 3634 531 
L 3634 0 
L 628 0 
L 628 4666 
z
" transform="scale(0.015625)"/>
      <path id="DejaVuSans-44" d="M 1259 4147 
L 1259 519 
L 2022 519 
Q 2988 519 3436 956 
Q 3884 1394 3884 2338 
Q 3884 3275 3436 3711 
Q 2988 4147 2022 4147 
L 1259 4147 
z
M 628 4666 
L 1925 4666 
Q 3281 4666 3915 4102 
Q 4550 3538 4550 2338 
Q 4550 1131 3912 565 
Q 3275 0 1925 0 
L 628 0 
L 628 4666 
z
" transform="scale(0.015625)"/>
      <path id="DejaVuSans-73" d="M 2834 3397 
L 2834 2853 
Q 2591 2978 2328 3040 
Q 2066 3103 1784 3103 
Q 1356 3103 1142 2972 
Q 928 2841 928 2578 
Q 928 2378 1081 2264 
Q 1234 2150 1697 2047 
L 1894 2003 
Q 2506 1872 2764 1633 
Q 3022 1394 3022 966 
Q 3022 478 2636 193 
Q 2250 -91 1575 -91 
Q 1294 -91 989 -36 
Q 684 19 347 128 
L 347 722 
Q 666 556 975 473 
Q 1284 391 1588 391 
Q 1994 391 2212 530 
Q 2431 669 2431 922 
Q 2431 1156 2273 1281 
Q 2116 1406 1581 1522 
L 1381 1569 
Q 847 1681 609 1914 
Q 372 2147 372 2553 
Q 372 3047 722 3315 
Q 1072 3584 1716 3584 
Q 2034 3584 2315 3537 
Q 2597 3491 2834 3397 
z
" transform="scale(0.015625)"/>
      <path id="DejaVuSans-69" d="M 603 3500 
L 1178 3500 
L 1178 0 
L 603 0 
L 603 3500 
z
M 603 4863 
L 1178 4863 
L 1178 4134 
L 603 4134 
L 603 4863 
z
" transform="scale(0.015625)"/>
      <path id="DejaVuSans-6e" d="M 3513 2113 
L 3513 0 
L 2938 0 
L 2938 2094 
Q 2938 2591 2744 2837 
Q 2550 3084 2163 3084 
Q 1697 3084 1428 2787 
Q 1159 2491 1159 1978 
L 1159 0 
L 581 0 
L 581 3500 
L 1159 3500 
L 1159 2956 
Q 1366 3272 1645 3428 
Q 1925 3584 2291 3584 
Q 2894 3584 3203 3211 
Q 3513 2838 3513 2113 
z
" transform="scale(0.015625)"/>
      <path id="DejaVuSans-74" d="M 1172 4494 
L 1172 3500 
L 2356 3500 
L 2356 3053 
L 1172 3053 
L 1172 1153 
Q 1172 725 1289 603 
Q 1406 481 1766 481 
L 2356 481 
L 2356 0 
L 1766 0 
Q 1100 0 847 248 
Q 594 497 594 1153 
L 594 3053 
L 172 3053 
L 172 3500 
L 594 3500 
L 594 4494 
L 1172 4494 
z
" transform="scale(0.015625)"/>
      <path id="DejaVuSans-68" d="M 3513 2113 
L 3513 0 
L 2938 0 
L 2938 2094 
Q 2938 2591 2744 2837 
Q 2550 3084 2163 3084 
Q 1697 3084 1428 2787 
Q 1159 2491 1159 1978 
L 1159 0 
L 581 0 
L 581 4863 
L 1159 4863 
L 1159 2956 
Q 1366 3272 1645 3428 
Q 1925 3584 2291 3584 
Q 2894 3584 3203 3211 
Q 3513 2838 3513 2113 
z
" transform="scale(0.015625)"/>
      <path id="DejaVuSans-4f" d="M 2522 4238 
Q 1834 4238 1429 3725 
Q 1025 3213 1025 2328 
Q 1025 1447 1429 934 
Q 1834 422 2522 422 
Q 3209 422 3611 934 
Q 4013 1447 4013 2328 
Q 4013 3213 3611 3725 
Q 3209 4238 2522 4238 
z
M 2522 4750 
Q 3503 4750 4090 4092 
Q 4678 3434 4678 2328 
Q 4678 1225 4090 567 
Q 3503 -91 2522 -91 
Q 1538 -91 948 565 
Q 359 1222 359 2328 
Q 359 3434 948 4092 
Q 1538 4750 2522 4750 
z
" transform="scale(0.015625)"/>
      <path id="DejaVuSans-70" d="M 1159 525 
L 1159 -1331 
L 581 -1331 
L 581 3500 
L 1159 3500 
L 1159 2969 
Q 1341 3281 1617 3432 
Q 1894 3584 2278 3584 
Q 2916 3584 3314 3078 
Q 3713 2572 3713 1747 
Q 3713 922 3314 415 
Q 2916 -91 2278 -91 
Q 1894 -91 1617 61 
Q 1341 213 1159 525 
z
M 3116 1747 
Q 3116 2381 2855 2742 
Q 2594 3103 2138 3103 
Q 1681 3103 1420 2742 
Q 1159 2381 1159 1747 
Q 1159 1113 1420 752 
Q 1681 391 2138 391 
Q 2594 391 2855 752 
Q 3116 1113 3116 1747 
z
" transform="scale(0.015625)"/>
      <path id="DejaVuSans-53" d="M 3425 4513 
L 3425 3897 
Q 3066 4069 2747 4153 
Q 2428 4238 2131 4238 
Q 1616 4238 1336 4038 
Q 1056 3838 1056 3469 
Q 1056 3159 1242 3001 
Q 1428 2844 1947 2747 
L 2328 2669 
Q 3034 2534 3370 2195 
Q 3706 1856 3706 1288 
Q 3706 609 3251 259 
Q 2797 -91 1919 -91 
Q 1588 -91 1214 -16 
Q 841 59 441 206 
L 441 856 
Q 825 641 1194 531 
Q 1563 422 1919 422 
Q 2459 422 2753 634 
Q 3047 847 3047 1241 
Q 3047 1584 2836 1778 
Q 2625 1972 2144 2069 
L 1759 2144 
Q 1053 2284 737 2584 
Q 422 2884 422 3419 
Q 422 4038 858 4394 
Q 1294 4750 2059 4750 
Q 2388 4750 2728 4690 
Q 3069 4631 3425 4513 
z
" transform="scale(0.015625)"/>
      <path id="DejaVuSans-4d" d="M 628 4666 
L 1569 4666 
L 2759 1491 
L 3956 4666 
L 4897 4666 
L 4897 0 
L 4281 0 
L 4281 4097 
L 3078 897 
L 2444 897 
L 1241 4097 
L 1241 0 
L 628 0 
L 628 4666 
z
" transform="scale(0.015625)"/>
      <path id="DejaVuSans-61" d="M 2194 1759 
Q 1497 1759 1228 1600 
Q 959 1441 959 1056 
Q 959 750 1161 570 
Q 1363 391 1709 391 
Q 2188 391 2477 730 
Q 2766 1069 2766 1631 
L 2766 1759 
L 2194 1759 
z
M 3341 1997 
L 3341 0 
L 2766 0 
L 2766 531 
Q 2569 213 2275 61 
Q 1981 -91 1556 -91 
Q 1019 -91 701 211 
Q 384 513 384 1019 
Q 384 1609 779 1909 
Q 1175 2209 1959 2209 
L 2766 2209 
L 2766 2266 
Q 2766 2663 2505 2880 
Q 2244 3097 1772 3097 
Q 1472 3097 1187 3025 
Q 903 2953 641 2809 
L 641 3341 
Q 956 3463 1253 3523 
Q 1550 3584 1831 3584 
Q 2591 3584 2966 3190 
Q 3341 2797 3341 1997 
z
" transform="scale(0.015625)"/>
      <path id="DejaVuSans-64" d="M 2906 2969 
L 2906 4863 
L 3481 4863 
L 3481 0 
L 2906 0 
L 2906 525 
Q 2725 213 2448 61 
Q 2172 -91 1784 -91 
Q 1150 -91 751 415 
Q 353 922 353 1747 
Q 353 2572 751 3078 
Q 1150 3584 1784 3584 
Q 2172 3584 2448 3432 
Q 2725 3281 2906 2969 
z
M 947 1747 
Q 947 1113 1208 752 
Q 1469 391 1925 391 
Q 2381 391 2643 752 
Q 2906 1113 2906 1747 
Q 2906 2381 2643 2742 
Q 2381 3103 1925 3103 
Q 1469 3103 1208 2742 
Q 947 2381 947 1747 
z
" transform="scale(0.015625)"/>
      <path id="DejaVuSans-50" d="M 1259 4147 
L 1259 2394 
L 2053 2394 
Q 2494 2394 2734 2622 
Q 2975 2850 2975 3272 
Q 2975 3691 2734 3919 
Q 2494 4147 2053 4147 
L 1259 4147 
z
M 628 4666 
L 2053 4666 
Q 2838 4666 3239 4311 
Q 3641 3956 3641 3272 
Q 3641 2581 3239 2228 
Q 2838 1875 2053 1875 
L 1259 1875 
L 1259 0 
L 628 0 
L 628 4666 
z
" transform="scale(0.015625)"/>
      <path id="DejaVuSans-6c" d="M 603 4863 
L 1178 4863 
L 1178 0 
L 603 0 
L 603 4863 
z
" transform="scale(0.015625)"/>
      <path id="DejaVuSans-2c" d="M 750 794 
L 1409 794 
L 1409 256 
L 897 -744 
L 494 -744 
L 750 256 
L 750 794 
z
" transform="scale(0.015625)"/>
      <path id="DejaVuSans-79" d="M 2059 -325 
Q 1816 -950 1584 -1140 
Q 1353 -1331 966 -1331 
L 506 -1331 
L 506 -850 
L 844 -850 
Q 1081 -850 1212 -737 
Q 1344 -625 1503 -206 
L 1606 56 
L 191 3500 
L 800 3500 
L 1894 763 
L 2988 3500 
L 3597 3500 
L 2059 -325 
z
" transform="scale(0.015625)"/>
      <path id="DejaVuSans-2e" d="M 684 794 
L 1344 794 
L 1344 0 
L 684 0 
L 684 794 
z
" transform="scale(0.015625)"/>
      <path id="DejaVuSans-3a" d="M 750 794 
L 1409 794 
L 1409 0 
L 750 0 
L 750 794 
z
M 750 3309 
L 1409 3309 
L 1409 2516 
L 750 2516 
L 750 3309 
z
" transform="scale(0.015625)"/>
     </defs>
     <use xlink:href="#DejaVuSans-4e"/>
     <use xlink:href="#DejaVuSans-75" x="74.804688"/>
     <use xlink:href="#DejaVuSans-6d" x="138.183594"/>
     <use xlink:href="#DejaVuSans-62" x="235.595703"/>
     <use xlink:href="#DejaVuSans-65" x="299.072266"/>
     <use xlink:href="#DejaVuSans-72" x="360.595703"/>
     <use xlink:href="#DejaVuSans-20" x="401.708984"/>
     <use xlink:href="#DejaVuSans-6f" x="433.496094"/>
     <use xlink:href="#DejaVuSans-66" x="494.677734"/>
     <use xlink:href="#DejaVuSans-20" x="529.882812"/>
     <use xlink:href="#DejaVuSans-41" x="561.669922"/>
     <use xlink:href="#DejaVuSans-45" x="630.078125"/>
     <use xlink:href="#DejaVuSans-44" x="693.261719"/>
     <use xlink:href="#DejaVuSans-73" x="770.263672"/>
     <use xlink:href="#DejaVuSans-20" x="822.363281"/>
     <use xlink:href="#DejaVuSans-69" x="854.150391"/>
     <use xlink:href="#DejaVuSans-6e" x="881.933594"/>
     <use xlink:href="#DejaVuSans-20" x="945.3125"/>
     <use xlink:href="#DejaVuSans-74" x="977.099609"/>
     <use xlink:href="#DejaVuSans-68" x="1016.308594"/>
     <use xlink:href="#DejaVuSans-65" x="1079.6875"/>
     <use xlink:href="#DejaVuSans-20" x="1141.210938"/>
     <use xlink:href="#DejaVuSans-4f" x="1172.998047"/>
     <use xlink:href="#DejaVuSans-70" x="1251.708984"/>
     <use xlink:href="#DejaVuSans-65" x="1315.185547"/>
     <use xlink:href="#DejaVuSans-6e" x="1376.708984"/>
     <use xlink:href="#DejaVuSans-53" x="1440.087891"/>
     <use xlink:href="#DejaVuSans-74" x="1503.564453"/>
     <use xlink:href="#DejaVuSans-72" x="1542.773438"/>
     <use xlink:href="#DejaVuSans-65" x="1581.636719"/>
     <use xlink:href="#DejaVuSans-65" x="1643.160156"/>
     <use xlink:href="#DejaVuSans-74" x="1704.683594"/>
     <use xlink:href="#DejaVuSans-4d" x="1743.892578"/>
     <use xlink:href="#DejaVuSans-61" x="1830.171875"/>
     <use xlink:href="#DejaVuSans-70" x="1891.451172"/>
     <use xlink:href="#DejaVuSans-20" x="1954.927734"/>
     <use xlink:href="#DejaVuSans-64" x="1986.714844"/>
     <use xlink:href="#DejaVuSans-61" x="2050.191406"/>
     <use xlink:href="#DejaVuSans-74" x="2111.470703"/>
     <use xlink:href="#DejaVuSans-61" x="2150.679688"/>
     <use xlink:href="#DejaVuSans-62" x="2211.958984"/>
     <use xlink:href="#DejaVuSans-61" x="2275.435547"/>
     <use xlink:href="#DejaVuSans-73" x="2336.714844"/>
     <use xlink:href="#DejaVuSans-65" x="2388.814453"/>
     <use xlink:href="#DejaVuSans-20" x="2450.337891"/>
     <use xlink:href="#DejaVuSans-69" x="2482.125"/>
     <use xlink:href="#DejaVuSans-6e" x="2509.908203"/>
     <use xlink:href="#DejaVuSans-20" x="2573.287109"/>
     <use xlink:href="#DejaVuSans-50" x="2605.074219"/>
     <use xlink:href="#DejaVuSans-6f" x="2661.751953"/>
     <use xlink:href="#DejaVuSans-6c" x="2722.933594"/>
     <use xlink:href="#DejaVuSans-61" x="2750.716797"/>
     <use xlink:href="#DejaVuSans-6e" x="2811.996094"/>
     <use xlink:href="#DejaVuSans-64" x="2875.375"/>
     <use xlink:href="#DejaVuSans-20" x="2938.851562"/>
     <use xlink:href="#DejaVuSans-66" x="2970.638672"/>
     <use xlink:href="#DejaVuSans-72" x="3005.84375"/>
     <use xlink:href="#DejaVuSans-6f" x="3044.707031"/>
     <use xlink:href="#DejaVuSans-6d" x="3105.888672"/>
     <use xlink:href="#DejaVuSans-20" x="3203.300781"/>
     <use xlink:href="#DejaVuSans-32" x="3235.087891"/>
     <use xlink:href="#DejaVuSans-30" x="3298.710938"/>
     <use xlink:href="#DejaVuSans-32" x="3362.333984"/>
     <use xlink:href="#DejaVuSans-35" x="3425.957031"/>
     <use xlink:href="#DejaVuSans-2d" x="3489.580078"/>
     <use xlink:href="#DejaVuSans-30" x="3525.664062"/>
     <use xlink:href="#DejaVuSans-31" x="3589.287109"/>
     <use xlink:href="#DejaVuSans-2d" x="3652.910156"/>
     <use xlink:href="#DejaVuSans-30" x="3688.994141"/>
     <use xlink:href="#DejaVuSans-31" x="3752.617188"/>
     <use xlink:href="#DejaVuSans-2c" x="3816.240234"/>
     <use xlink:href="#DejaVuSans-20" x="3848.027344"/>
     <use xlink:href="#DejaVuSans-64" x="3879.814453"/>
     <use xlink:href="#DejaVuSans-61" x="3943.291016"/>
     <use xlink:href="#DejaVuSans-79" x="4004.570312"/>
     <use xlink:href="#DejaVuSans-20" x="4063.75"/>
     <use xlink:href="#DejaVuSans-62" x="4095.537109"/>
     <use xlink:href="#DejaVuSans-79" x="4159.013672"/>
     <use xlink:href="#DejaVuSans-20" x="4218.193359"/>
     <use xlink:href="#DejaVuSans-64" x="4249.980469"/>
     <use xlink:href="#DejaVuSans-61" x="4313.457031"/>
     <use xlink:href="#DejaVuSans-79" x="4374.736328"/>
     <use xlink:href="#DejaVuSans-2e" x="4419.666016"/>
     <use xlink:href="#DejaVuSans-20" x="4451.453125"/>
     <use xlink:href="#DejaVuSans-41" x="4483.240234"/>
     <use xlink:href="#DejaVuSans-73" x="4551.648438"/>
     <use xlink:href="#DejaVuSans-20" x="4603.748047"/>
     <use xlink:href="#DejaVuSans-61" x="4635.535156"/>
     <use xlink:href="#DejaVuSans-74" x="4696.814453"/>
     <use xlink:href="#DejaVuSans-3a" x="4736.023438"/>
     <use xlink:href="#DejaVuSans-20" x="4769.714844"/>
     <use xlink:href="#DejaVuSans-32" x="4801.501953"/>
     <use xlink:href="#DejaVuSans-30" x="4865.125"/>
     <use xlink:href="#DejaVuSans-32" x="4928.748047"/>
     <use xlink:href="#DejaVuSans-35" x="4992.371094"/>
     <use xlink:href="#DejaVuSans-2d" x="5055.994141"/>
     <use xlink:href="#DejaVuSans-30" x="5092.078125"/>
     <use xlink:href="#DejaVuSans-33" x="5155.701172"/>
     <use xlink:href="#DejaVuSans-2d" x="5219.324219"/>
     <use xlink:href="#DejaVuSans-30" x="5255.408203"/>
     <use xlink:href="#DejaVuSans-33" x="5319.03125"/>
    </g>
   </g>
  </g>
 </g>
 <defs>
  <clipPath id="p3fc298d527">
   <rect x="144" y="69.12" width="892.8" height="443.52"/>
  </clipPath>
 </defs>
</svg>
