<?xml version="1.0" encoding="utf-8" standalone="no"?>
<!DOCTYPE svg PUBLIC "-//W3C//DTD SVG 1.1//EN"
  "http://www.w3.org/Graphics/SVG/1.1/DTD/svg11.dtd">
<svg xmlns:xlink="http://www.w3.org/1999/xlink" width="1152pt" height="576pt" viewBox="0 0 1152 576" xmlns="http://www.w3.org/2000/svg" version="1.1">
 <metadata>
  <rdf:RDF xmlns:dc="http://purl.org/dc/elements/1.1/" xmlns:cc="http://creativecommons.org/ns#" xmlns:rdf="http://www.w3.org/1999/02/22-rdf-syntax-ns#">
   <cc:Work>
    <dc:type rdf:resource="http://purl.org/dc/dcmitype/StillImage"/>
    <dc:date>1980-01-01T00:00:00+00:00</dc:date>
    <dc:format>image/svg+xml</dc:format>
    <dc:creator>
     <cc:Agent>
      <dc:title>Matplotlib v3.9.1, https://matplotlib.org/</dc:title>
     </cc:Agent>
    </dc:creator>
   </cc:Work>
  </rdf:RDF>
 </metadata>
 <defs>
  <style type="text/css">*{stroke-linejoin: round; stroke-linecap: butt}</style>
 </defs>
 <g id="figure_1">
  <g id="patch_1">
   <path d="M 0 576 
L 1152 576 
L 1152 0 
L 0 0 
z
" style="fill: #ffffff"/>
  </g>
  <g id="axes_1">
   <g id="patch_2">
    <path d="M 144 512.64 
L 1036.8 512.64 
L 1036.8 69.12 
L 144 69.12 
z
" style="fill: #ffffff"/>
   </g>
   <g id="PathCollection_1">
    <path d="M 184.581818 496.352983 
C 185.608945 496.352983 186.594142 495.944901 187.320431 495.218613 
C 188.04672 494.492324 188.454802 493.507127 188.454802 492.48 
C 188.454802 491.452873 188.04672 490.467676 187.320431 489.741387 
C 186.594142 489.015099 185.608945 488.607017 184.581818 488.607017 
C 183.554691 488.607017 182.569494 489.015099 181.843205 489.741387 
C 181.116917 490.467676 180.708835 491.452873 180.708835 492.48 
C 180.708835 493.507127 181.116917 494.492324 181.843205 495.218613 
C 182.569494 495.944901 183.554691 496.352983 184.581818 496.352983 
z
" clip-path="url(#pb2d06cba20)" style="fill: #1f77b4; fill-opacity: 0.3; stroke: #1f77b4; stroke-opacity: 0.3"/>
    <path d="M 196.013316 494.829859 
C 197.742229 494.829859 199.400563 494.142955 200.623088 492.920429 
C 201.845614 491.697903 202.532519 490.03957 202.532519 488.310657 
C 202.532519 486.581744 201.845614 484.923411 200.623088 483.700885 
C 199.400563 482.478359 197.742229 481.791455 196.013316 481.791455 
C 194.284404 481.791455 192.62607 482.478359 191.403544 483.700885 
C 190.181018 484.923411 189.494114 486.581744 189.494114 488.310657 
C 189.494114 490.03957 190.181018 491.697903 191.403544 492.920429 
C 192.62607 494.142955 194.284404 494.829859 196.013316 494.829859 
z
" clip-path="url(#pb2d06cba20)" style="fill: #1f77b4; fill-opacity: 0.3; stroke: #1f77b4; stroke-opacity: 0.3"/>
    <path d="M 207.444814 489.810104 
C 209.663663 489.810104 211.791931 488.928546 213.360894 487.359583 
C 214.929857 485.790621 215.811415 483.662352 215.811415 481.443504 
C 215.811415 479.224655 214.929857 477.096387 213.360894 475.527424 
C 211.791931 473.958461 209.663663 473.076903 207.444814 473.076903 
C 205.225966 473.076903 203.097697 473.958461 201.528735 475.527424 
C 199.959772 477.096387 199.078214 479.224655 199.078214 481.443504 
C 199.078214 483.662352 199.959772 485.790621 201.528735 487.359583 
C 203.097697 488.928546 205.225966 489.810104 207.444814 489.810104 
z
" clip-path="url(#pb2d06cba20)" style="fill: #1f77b4; fill-opacity: 0.3; stroke: #1f77b4; stroke-opacity: 0.3"/>
    <path d="M 218.876312 483.989738 
C 220.267049 483.989738 221.601012 483.437192 222.584412 482.453793 
C 223.567811 481.470393 224.120357 480.13643 224.120357 478.745693 
C 224.120357 477.354957 223.567811 476.020994 222.584412 475.037594 
C 221.601012 474.054195 220.267049 473.501649 218.876312 473.501649 
C 217.485576 473.501649 216.151613 474.054195 215.168213 475.037594 
C 214.184814 476.020994 213.632268 477.354957 213.632268 478.745693 
C 213.632268 480.13643 214.184814 481.470393 215.168213 482.453793 
C 216.151613 483.437192 217.485576 483.989738 218.876312 483.989738 
z
" clip-path="url(#pb2d06cba20)" style="fill: #1f77b4; fill-opacity: 0.3; stroke: #1f77b4; stroke-opacity: 0.3"/>
    <path d="M 230.30781 481.05495 
C 231.245445 481.05495 232.144803 480.682424 232.80781 480.019416 
C 233.470818 479.356408 233.843344 478.457051 233.843344 477.519416 
C 233.843344 476.581782 233.470818 475.682424 232.80781 475.019416 
C 232.144803 474.356408 231.245445 473.983882 230.30781 473.983882 
C 229.370176 473.983882 228.470818 474.356408 227.80781 475.019416 
C 227.144803 475.682424 226.772277 476.581782 226.772277 477.519416 
C 226.772277 478.457051 227.144803 479.356408 227.80781 480.019416 
C 228.470818 480.682424 229.370176 481.05495 230.30781 481.05495 
z
" clip-path="url(#pb2d06cba20)" style="fill: #1f77b4; fill-opacity: 0.3; stroke: #1f77b4; stroke-opacity: 0.3"/>
    <path d="M 241.739309 479.869275 
C 243.468221 479.869275 245.126555 479.182371 246.349081 477.959845 
C 247.571607 476.737319 248.258511 475.078986 248.258511 473.350073 
C 248.258511 471.62116 247.571607 469.962827 246.349081 468.740301 
C 245.126555 467.517775 243.468221 466.830871 241.739309 466.830871 
C 240.010396 466.830871 238.352062 467.517775 237.129536 468.740301 
C 235.90701 469.962827 235.220106 471.62116 235.220106 473.350073 
C 235.220106 475.078986 235.90701 476.737319 237.129536 477.959845 
C 238.352062 479.182371 240.010396 479.869275 241.739309 479.869275 
z
" clip-path="url(#pb2d06cba20)" style="fill: #1f77b4; fill-opacity: 0.3; stroke: #1f77b4; stroke-opacity: 0.3"/>
    <path d="M 253.170807 475.794965 
C 254.794837 475.794965 256.352571 475.149731 257.500934 474.001368 
C 258.649297 472.853005 259.294531 471.295272 259.294531 469.671241 
C 259.294531 468.04721 258.649297 466.489477 257.500934 465.341114 
C 256.352571 464.192751 254.794837 463.547517 253.170807 463.547517 
C 251.546776 463.547517 249.989043 464.192751 248.84068 465.341114 
C 247.692317 466.489477 247.047082 468.04721 247.047082 469.671241 
C 247.047082 471.295272 247.692317 472.853005 248.84068 474.001368 
C 249.989043 475.149731 251.546776 475.794965 253.170807 475.794965 
z
" clip-path="url(#pb2d06cba20)" style="fill: #1f77b4; fill-opacity: 0.3; stroke: #1f77b4; stroke-opacity: 0.3"/>
    <path d="M 264.602305 469.980486 
C 267.220976 469.980486 269.732745 468.940077 271.584425 467.088397 
C 273.436105 465.236718 274.476514 462.724948 274.476514 460.106277 
C 274.476514 457.487607 273.436105 454.975837 271.584425 453.124157 
C 269.732745 451.272477 267.220976 450.232069 264.602305 450.232069 
C 261.983634 450.232069 259.471865 451.272477 257.620185 453.124157 
C 255.768505 454.975837 254.728096 457.487607 254.728096 460.106277 
C 254.728096 462.724948 255.768505 465.236718 257.620185 467.088397 
C 259.471865 468.940077 261.983634 469.980486 264.602305 469.980486 
z
" clip-path="url(#pb2d06cba20)" style="fill: #1f77b4; fill-opacity: 0.3; stroke: #1f77b4; stroke-opacity: 0.3"/>
    <path d="M 276.033803 462.272236 
C 277.909072 462.272236 279.707787 461.527183 281.033803 460.201168 
C 282.359818 458.875152 283.104871 457.076437 283.104871 455.201168 
C 283.104871 453.325899 282.359818 451.527183 281.033803 450.201168 
C 279.707787 448.875152 277.909072 448.1301 276.033803 448.1301 
C 274.158534 448.1301 272.359818 448.875152 271.033803 450.201168 
C 269.707787 451.527183 268.962735 453.325899 268.962735 455.201168 
C 268.962735 457.076437 269.707787 458.875152 271.033803 460.201168 
C 272.359818 461.527183 274.158534 462.272236 276.033803 462.272236 
z
" clip-path="url(#pb2d06cba20)" style="fill: #1f77b4; fill-opacity: 0.3; stroke: #1f77b4; stroke-opacity: 0.3"/>
    <path d="M 287.465301 457.737285 
C 288.72327 457.737285 289.929885 457.237489 290.819403 456.347971 
C 291.708921 455.458452 292.208717 454.251837 292.208717 452.993869 
C 292.208717 451.7359 291.708921 450.529285 290.819403 449.639767 
C 289.929885 448.750248 288.72327 448.250452 287.465301 448.250452 
C 286.207332 448.250452 285.000717 448.750248 284.111199 449.639767 
C 283.221681 450.529285 282.721884 451.7359 282.721884 452.993869 
C 282.721884 454.251837 283.221681 455.458452 284.111199 456.347971 
C 285.000717 457.237489 286.207332 457.737285 287.465301 457.737285 
z
" clip-path="url(#pb2d06cba20)" style="fill: #1f77b4; fill-opacity: 0.3; stroke: #1f77b4; stroke-opacity: 0.3"/>
    <path d="M 298.896799 454.739426 
C 299.489811 454.739426 300.058615 454.503819 300.477938 454.084496 
C 300.897261 453.665174 301.132867 453.09637 301.132867 452.503358 
C 301.132867 451.910346 300.897261 451.341542 300.477938 450.922219 
C 300.058615 450.502896 299.489811 450.26729 298.896799 450.26729 
C 298.303787 450.26729 297.734983 450.502896 297.31566 450.922219 
C 296.896337 451.341542 296.660731 451.910346 296.660731 452.503358 
C 296.660731 453.09637 296.896337 453.665174 297.31566 454.084496 
C 297.734983 454.503819 298.303787 454.739426 298.896799 454.739426 
z
" clip-path="url(#pb2d06cba20)" style="fill: #1f77b4; fill-opacity: 0.3; stroke: #1f77b4; stroke-opacity: 0.3"/>
    <path d="M 310.328297 452.812603 
C 312.946968 452.812603 315.458737 451.772194 317.310417 449.920514 
C 319.162097 448.068834 320.202506 445.557065 320.202506 442.938394 
C 320.202506 440.319723 319.162097 437.807954 317.310417 435.956274 
C 315.458737 434.104594 312.946968 433.064185 310.328297 433.064185 
C 307.709626 433.064185 305.197857 434.104594 303.346177 435.956274 
C 301.494497 437.807954 300.454088 440.319723 300.454088 442.938394 
C 300.454088 445.557065 301.494497 448.068834 303.346177 449.920514 
C 305.197857 451.772194 307.709626 452.812603 310.328297 452.812603 
z
" clip-path="url(#pb2d06cba20)" style="fill: #1f77b4; fill-opacity: 0.3; stroke: #1f77b4; stroke-opacity: 0.3"/>
    <path d="M 321.759795 444.712701 
C 323.85641 444.712701 325.867435 443.879708 327.349965 442.397177 
C 328.832495 440.914647 329.665489 438.903622 329.665489 436.807007 
C 329.665489 434.710393 328.832495 432.699368 327.349965 431.216837 
C 325.867435 429.734307 323.85641 428.901313 321.759795 428.901313 
C 319.663181 428.901313 317.652156 429.734307 316.169625 431.216837 
C 314.687095 432.699368 313.854101 434.710393 313.854101 436.807007 
C 313.854101 438.903622 314.687095 440.914647 316.169625 442.397177 
C 317.652156 443.879708 319.663181 444.712701 321.759795 444.712701 
z
" clip-path="url(#pb2d06cba20)" style="fill: #1f77b4; fill-opacity: 0.3; stroke: #1f77b4; stroke-opacity: 0.3"/>
    <path d="M 333.191293 439.319563 
C 334.703184 439.319563 336.153354 438.718883 337.222422 437.649815 
C 338.29149 436.580747 338.89217 435.130576 338.89217 433.618686 
C 338.89217 432.106796 338.29149 430.656625 337.222422 429.587557 
C 336.153354 428.518489 334.703184 427.917809 333.191293 427.917809 
C 331.679403 427.917809 330.229232 428.518489 329.160164 429.587557 
C 328.091096 430.656625 327.490416 432.106796 327.490416 433.618686 
C 327.490416 435.130576 328.091096 436.580747 329.160164 437.649815 
C 330.229232 438.718883 331.679403 439.319563 333.191293 439.319563 
z
" clip-path="url(#pb2d06cba20)" style="fill: #1f77b4; fill-opacity: 0.3; stroke: #1f77b4; stroke-opacity: 0.3"/>
    <path d="M 344.622791 434.714783 
C 346.99484 434.714783 349.270055 433.772358 350.947347 432.095066 
C 352.624638 430.417775 353.567063 428.14256 353.567063 425.770511 
C 353.567063 423.398462 352.624638 421.123247 350.947347 419.445956 
C 349.270055 417.768664 346.99484 416.826239 344.622791 416.826239 
C 342.250743 416.826239 339.975528 417.768664 338.298236 419.445956 
C 336.620944 421.123247 335.678519 423.398462 335.678519 425.770511 
C 335.678519 428.14256 336.620944 430.417775 338.298236 432.095066 
C 339.975528 433.772358 342.250743 434.714783 344.622791 434.714783 
z
" clip-path="url(#pb2d06cba20)" style="fill: #1f77b4; fill-opacity: 0.3; stroke: #1f77b4; stroke-opacity: 0.3"/>
    <path d="M 356.054289 425.592746 
C 358.803974 425.592746 361.441408 424.500285 363.385729 422.555965 
C 365.330049 420.611644 366.42251 417.97421 366.42251 415.224526 
C 366.42251 412.474841 365.330049 409.837407 363.385729 407.893086 
C 361.441408 405.948766 358.803974 404.856305 356.054289 404.856305 
C 353.304605 404.856305 350.667171 405.948766 348.72285 407.893086 
C 346.77853 409.837407 345.686069 412.474841 345.686069 415.224526 
C 345.686069 417.97421 346.77853 420.611644 348.72285 422.555965 
C 350.667171 424.500285 353.304605 425.592746 356.054289 425.592746 
z
" clip-path="url(#pb2d06cba20)" style="fill: #1f77b4; fill-opacity: 0.3; stroke: #1f77b4; stroke-opacity: 0.3"/>
    <path d="M 367.485787 417.405781 
C 368.324433 417.405781 369.128843 417.072584 369.721855 416.479572 
C 370.314868 415.886559 370.648065 415.082149 370.648065 414.243504 
C 370.648065 413.404858 370.314868 412.600448 369.721855 412.007436 
C 369.128843 411.414424 368.324433 411.081226 367.485787 411.081226 
C 366.647142 411.081226 365.842732 411.414424 365.249719 412.007436 
C 364.656707 412.600448 364.32351 413.404858 364.32351 414.243504 
C 364.32351 415.082149 364.656707 415.886559 365.249719 416.479572 
C 365.842732 417.072584 366.647142 417.405781 367.485787 417.405781 
z
" clip-path="url(#pb2d06cba20)" style="fill: #1f77b4; fill-opacity: 0.3; stroke: #1f77b4; stroke-opacity: 0.3"/>
    <path d="M 378.917286 416.789738 
C 380.308022 416.789738 381.641985 416.237192 382.625385 415.253793 
C 383.608784 414.270393 384.16133 412.93643 384.16133 411.545693 
C 384.16133 410.154957 383.608784 408.820994 382.625385 407.837594 
C 381.641985 406.854195 380.308022 406.301649 378.917286 406.301649 
C 377.526549 406.301649 376.192586 406.854195 375.209186 407.837594 
C 374.225787 408.820994 373.673241 410.154957 373.673241 411.545693 
C 373.673241 412.93643 374.225787 414.270393 375.209186 415.253793 
C 376.192586 416.237192 377.526549 416.789738 378.917286 416.789738 
z
" clip-path="url(#pb2d06cba20)" style="fill: #1f77b4; fill-opacity: 0.3; stroke: #1f77b4; stroke-opacity: 0.3"/>
    <path d="M 390.348784 413.139634 
C 392.527649 413.139634 394.617568 412.273961 396.158259 410.733271 
C 397.698949 409.19258 398.564622 407.102661 398.564622 404.923796 
C 398.564622 402.74493 397.698949 400.655011 396.158259 399.114321 
C 394.617568 397.57363 392.527649 396.707957 390.348784 396.707957 
C 388.169918 396.707957 386.079999 397.57363 384.539309 399.114321 
C 382.998618 400.655011 382.132945 402.74493 382.132945 404.923796 
C 382.132945 407.102661 382.998618 409.19258 384.539309 410.733271 
C 386.079999 412.273961 388.169918 413.139634 390.348784 413.139634 
z
" clip-path="url(#pb2d06cba20)" style="fill: #1f77b4; fill-opacity: 0.3; stroke: #1f77b4; stroke-opacity: 0.3"/>
    <path d="M 401.780282 407.457956 
C 403.232859 407.457956 404.626138 406.88084 405.653265 405.853713 
C 406.680392 404.826586 407.257507 403.433307 407.257507 401.98073 
C 407.257507 400.528153 406.680392 399.134874 405.653265 398.107747 
C 404.626138 397.080619 403.232859 396.503504 401.780282 396.503504 
C 400.327704 396.503504 398.934426 397.080619 397.907298 398.107747 
C 396.880171 399.134874 396.303056 400.528153 396.303056 401.98073 
C 396.303056 403.433307 396.880171 404.826586 397.907298 405.853713 
C 398.934426 406.88084 400.327704 407.457956 401.780282 407.457956 
z
" clip-path="url(#pb2d06cba20)" style="fill: #1f77b4; fill-opacity: 0.3; stroke: #1f77b4; stroke-opacity: 0.3"/>
    <path d="M 413.21178 400.898296 
C 416.176841 400.898296 419.020859 399.720265 421.117474 397.62365 
C 423.214089 395.527036 424.39212 392.683017 424.39212 389.717956 
C 424.39212 386.752895 423.214089 383.908877 421.117474 381.812262 
C 419.020859 379.715647 416.176841 378.537616 413.21178 378.537616 
C 410.246719 378.537616 407.4027 379.715647 405.306086 381.812262 
C 403.209471 383.908877 402.03144 386.752895 402.03144 389.717956 
C 402.03144 392.683017 403.209471 395.527036 405.306086 397.62365 
C 407.4027 399.720265 410.246719 400.898296 413.21178 400.898296 
z
" clip-path="url(#pb2d06cba20)" style="fill: #1f77b4; fill-opacity: 0.3; stroke: #1f77b4; stroke-opacity: 0.3"/>
    <path d="M 424.643278 391.311897 
C 426.822144 391.311897 428.912062 390.446224 430.452753 388.905533 
C 431.993444 387.364843 432.859116 385.274924 432.859116 383.096058 
C 432.859116 380.917193 431.993444 378.827274 430.452753 377.286583 
C 428.912062 375.745893 426.822144 374.88022 424.643278 374.88022 
C 422.464412 374.88022 420.374494 375.745893 418.833803 377.286583 
C 417.293112 378.827274 416.427439 380.917193 416.427439 383.096058 
C 416.427439 385.274924 417.293112 387.364843 418.833803 388.905533 
C 420.374494 390.446224 422.464412 391.311897 424.643278 391.311897 
z
" clip-path="url(#pb2d06cba20)" style="fill: #1f77b4; fill-opacity: 0.3; stroke: #1f77b4; stroke-opacity: 0.3"/>
    <path d="M 436.074776 384.955894 
C 438.12903 384.955894 440.099424 384.13973 441.552002 382.687153 
C 443.004579 381.234575 443.820743 379.264181 443.820743 377.209927 
C 443.820743 375.155673 443.004579 373.185279 441.552002 371.732701 
C 440.099424 370.280124 438.12903 369.46396 436.074776 369.46396 
C 434.020522 369.46396 432.050128 370.280124 430.59755 371.732701 
C 429.144973 373.185279 428.328809 375.155673 428.328809 377.209927 
C 428.328809 379.264181 429.144973 381.234575 430.59755 382.687153 
C 432.050128 384.13973 434.020522 384.955894 436.074776 384.955894 
z
" clip-path="url(#pb2d06cba20)" style="fill: #1f77b4; fill-opacity: 0.3; stroke: #1f77b4; stroke-opacity: 0.3"/>
    <path d="M 447.506274 378.612211 
C 449.764397 378.612211 451.930337 377.71505 453.527071 376.118316 
C 455.123805 374.521581 456.020967 372.355641 456.020967 370.097518 
C 456.020967 367.839395 455.123805 365.673455 453.527071 364.076721 
C 451.930337 362.479987 449.764397 361.582825 447.506274 361.582825 
C 445.248151 361.582825 443.082211 362.479987 441.485477 364.076721 
C 439.888743 365.673455 438.991581 367.839395 438.991581 370.097518 
C 438.991581 372.355641 439.888743 374.521581 441.485477 376.118316 
C 443.082211 377.71505 445.248151 378.612211 447.506274 378.612211 
z
" clip-path="url(#pb2d06cba20)" style="fill: #1f77b4; fill-opacity: 0.3; stroke: #1f77b4; stroke-opacity: 0.3"/>
    <path d="M 458.937772 372.278774 
C 459.776418 372.278774 460.580828 371.945576 461.17384 371.352564 
C 461.766852 370.759552 462.10005 369.955142 462.10005 369.116496 
C 462.10005 368.277851 461.766852 367.473441 461.17384 366.880428 
C 460.580828 366.287416 459.776418 365.954219 458.937772 365.954219 
C 458.099126 365.954219 457.294716 366.287416 456.701704 366.880428 
C 456.108692 367.473441 455.775494 368.277851 455.775494 369.116496 
C 455.775494 369.955142 456.108692 370.759552 456.701704 371.352564 
C 457.294716 371.945576 458.099126 372.278774 458.937772 372.278774 
z
" clip-path="url(#pb2d06cba20)" style="fill: #1f77b4; fill-opacity: 0.3; stroke: #1f77b4; stroke-opacity: 0.3"/>
    <path d="M 470.36927 371.297752 
C 471.207916 371.297752 472.012326 370.964555 472.605338 370.371542 
C 473.19835 369.77853 473.531548 368.97412 473.531548 368.135474 
C 473.531548 367.296829 473.19835 366.492419 472.605338 365.899406 
C 472.012326 365.306394 471.207916 364.973197 470.36927 364.973197 
C 469.530624 364.973197 468.726214 365.306394 468.133202 365.899406 
C 467.54019 366.492419 467.206993 367.296829 467.206993 368.135474 
C 467.206993 368.97412 467.54019 369.77853 468.133202 370.371542 
C 468.726214 370.964555 469.530624 371.297752 470.36927 371.297752 
z
" clip-path="url(#pb2d06cba20)" style="fill: #1f77b4; fill-opacity: 0.3; stroke: #1f77b4; stroke-opacity: 0.3"/>
    <path d="M 481.800768 368.79311 
C 484.316706 368.79311 486.729936 367.793518 488.508972 366.014481 
C 490.288009 364.235445 491.287601 361.822215 491.287601 359.306277 
C 491.287601 356.79034 490.288009 354.37711 488.508972 352.598073 
C 486.729936 350.819037 484.316706 349.819444 481.800768 349.819444 
C 479.284831 349.819444 476.871601 350.819037 475.092564 352.598073 
C 473.313528 354.37711 472.313935 356.79034 472.313935 359.306277 
C 472.313935 361.822215 473.313528 364.235445 475.092564 366.014481 
C 476.871601 367.793518 479.284831 368.79311 481.800768 368.79311 
z
" clip-path="url(#pb2d06cba20)" style="fill: #1f77b4; fill-opacity: 0.3; stroke: #1f77b4; stroke-opacity: 0.3"/>
    <path d="M 493.232266 358.223844 
C 496.197327 358.223844 499.041346 357.045812 501.13796 354.949198 
C 503.234575 352.852583 504.412606 350.008564 504.412606 347.043504 
C 504.412606 344.078443 503.234575 341.234424 501.13796 339.137809 
C 499.041346 337.041195 496.197327 335.863164 493.232266 335.863164 
C 490.267206 335.863164 487.423187 337.041195 485.326572 339.137809 
C 483.229958 341.234424 482.051926 344.078443 482.051926 347.043504 
C 482.051926 350.008564 483.229958 352.852583 485.326572 354.949198 
C 487.423187 357.045812 490.267206 358.223844 493.232266 358.223844 
z
" clip-path="url(#pb2d06cba20)" style="fill: #1f77b4; fill-opacity: 0.3; stroke: #1f77b4; stroke-opacity: 0.3"/>
    <path d="M 504.663764 348.1396 
C 507.035813 348.1396 509.311028 347.197175 510.98832 345.519884 
C 512.665611 343.842592 513.608036 341.567377 513.608036 339.195328 
C 513.608036 336.82328 512.665611 334.548065 510.98832 332.870773 
C 509.311028 331.193481 507.035813 330.251057 504.663764 330.251057 
C 502.291716 330.251057 500.016501 331.193481 498.339209 332.870773 
C 496.661917 334.548065 495.719492 336.82328 495.719492 339.195328 
C 495.719492 341.567377 496.661917 343.842592 498.339209 345.519884 
C 500.016501 347.197175 502.291716 348.1396 504.663764 348.1396 
z
" clip-path="url(#pb2d06cba20)" style="fill: #1f77b4; fill-opacity: 0.3; stroke: #1f77b4; stroke-opacity: 0.3"/>
    <path d="M 516.095262 340.789269 
C 518.274128 340.789269 520.364047 339.923596 521.904738 338.382906 
C 523.445428 336.842215 524.311101 334.752296 524.311101 332.573431 
C 524.311101 330.394565 523.445428 328.304646 521.904738 326.763956 
C 520.364047 325.223265 518.274128 324.357592 516.095262 324.357592 
C 513.916397 324.357592 511.826478 325.223265 510.285787 326.763956 
C 508.745097 328.304646 507.879424 330.394565 507.879424 332.573431 
C 507.879424 334.752296 508.745097 336.842215 510.285787 338.382906 
C 511.826478 339.923596 513.916397 340.789269 516.095262 340.789269 
z
" clip-path="url(#pb2d06cba20)" style="fill: #1f77b4; fill-opacity: 0.3; stroke: #1f77b4; stroke-opacity: 0.3"/>
    <path d="M 527.526761 334.754686 
C 528.365406 334.754686 529.169816 334.421489 529.762829 333.828477 
C 530.355841 333.235465 530.689038 332.431055 530.689038 331.592409 
C 530.689038 330.753763 530.355841 329.949353 529.762829 329.356341 
C 529.169816 328.763329 528.365406 328.430131 527.526761 328.430131 
C 526.688115 328.430131 525.883705 328.763329 525.290693 329.356341 
C 524.69768 329.949353 524.364483 330.753763 524.364483 331.592409 
C 524.364483 332.431055 524.69768 333.235465 525.290693 333.828477 
C 525.883705 334.421489 526.688115 334.754686 527.526761 334.754686 
z
" clip-path="url(#pb2d06cba20)" style="fill: #1f77b4; fill-opacity: 0.3; stroke: #1f77b4; stroke-opacity: 0.3"/>
    <path d="M 538.958259 334.138643 
C 540.348995 334.138643 541.682958 333.586097 542.666358 332.602698 
C 543.649757 331.619298 544.202303 330.285335 544.202303 328.894599 
C 544.202303 327.503862 543.649757 326.169899 542.666358 325.186499 
C 541.682958 324.2031 540.348995 323.650554 538.958259 323.650554 
C 537.567522 323.650554 536.233559 324.2031 535.250159 325.186499 
C 534.26676 326.169899 533.714214 327.503862 533.714214 328.894599 
C 533.714214 330.285335 534.26676 331.619298 535.250159 332.602698 
C 536.233559 333.586097 537.567522 334.138643 538.958259 334.138643 
z
" clip-path="url(#pb2d06cba20)" style="fill: #1f77b4; fill-opacity: 0.3; stroke: #1f77b4; stroke-opacity: 0.3"/>
    <path d="M 550.389757 331.060557 
C 552.265026 331.060557 554.063741 330.315505 555.389757 328.989489 
C 556.715772 327.663474 557.460825 325.864758 557.460825 323.989489 
C 557.460825 322.11422 556.715772 320.315505 555.389757 318.989489 
C 554.063741 317.663474 552.265026 316.918421 550.389757 316.918421 
C 548.514488 316.918421 546.715772 317.663474 545.389757 318.989489 
C 544.063741 320.315505 543.318689 322.11422 543.318689 323.989489 
C 543.318689 325.864758 544.063741 327.663474 545.389757 328.989489 
C 546.715772 330.315505 548.514488 331.060557 550.389757 331.060557 
z
" clip-path="url(#pb2d06cba20)" style="fill: #1f77b4; fill-opacity: 0.3; stroke: #1f77b4; stroke-opacity: 0.3"/>
    <path d="M 561.821255 325.849324 
C 563.875509 325.849324 565.845903 325.03316 567.29848 323.580583 
C 568.751058 322.128006 569.567221 320.157612 569.567221 318.103358 
C 569.567221 316.049103 568.751058 314.078709 567.29848 312.626132 
C 565.845903 311.173555 563.875509 310.357391 561.821255 310.357391 
C 559.767 310.357391 557.796606 311.173555 556.344029 312.626132 
C 554.891452 314.078709 554.075288 316.049103 554.075288 318.103358 
C 554.075288 320.157612 554.891452 322.128006 556.344029 323.580583 
C 557.796606 325.03316 559.767 325.849324 561.821255 325.849324 
z
" clip-path="url(#pb2d06cba20)" style="fill: #1f77b4; fill-opacity: 0.3; stroke: #1f77b4; stroke-opacity: 0.3"/>
    <path d="M 573.252753 320.61345 
C 574.438777 320.61345 575.576385 320.142237 576.415031 319.303592 
C 577.253676 318.464946 577.724889 317.327338 577.724889 316.141314 
C 577.724889 314.95529 577.253676 313.817682 576.415031 312.979036 
C 575.576385 312.14039 574.438777 311.669178 573.252753 311.669178 
C 572.066729 311.669178 570.929121 312.14039 570.090475 312.979036 
C 569.251829 313.817682 568.780617 314.95529 568.780617 316.141314 
C 568.780617 317.327338 569.251829 318.464946 570.090475 319.303592 
C 570.929121 320.142237 572.066729 320.61345 573.252753 320.61345 
z
" clip-path="url(#pb2d06cba20)" style="fill: #1f77b4; fill-opacity: 0.3; stroke: #1f77b4; stroke-opacity: 0.3"/>
    <path d="M 584.684251 317.640761 
C 586.903099 317.640761 589.031368 316.759203 590.600331 315.19024 
C 592.169293 313.621278 593.050851 311.493009 593.050851 309.274161 
C 593.050851 307.055312 592.169293 304.927043 590.600331 303.358081 
C 589.031368 301.789118 586.903099 300.90756 584.684251 300.90756 
C 582.465403 300.90756 580.337134 301.789118 578.768171 303.358081 
C 577.199208 304.927043 576.317651 307.055312 576.317651 309.274161 
C 576.317651 311.493009 577.199208 313.621278 578.768171 315.19024 
C 580.337134 316.759203 582.465403 317.640761 584.684251 317.640761 
z
" clip-path="url(#pb2d06cba20)" style="fill: #1f77b4; fill-opacity: 0.3; stroke: #1f77b4; stroke-opacity: 0.3"/>
    <path d="M 596.115749 311.62402 
C 597.844662 311.62402 599.502995 310.937116 600.725521 309.71459 
C 601.948047 308.492064 602.634951 306.83373 602.634951 305.104818 
C 602.634951 303.375905 601.948047 301.717571 600.725521 300.495045 
C 599.502995 299.272519 597.844662 298.585615 596.115749 298.585615 
C 594.386836 298.585615 592.728503 299.272519 591.505977 300.495045 
C 590.283451 301.717571 589.596547 303.375905 589.596547 305.104818 
C 589.596547 306.83373 590.283451 308.492064 591.505977 309.71459 
C 592.728503 310.937116 594.386836 311.62402 596.115749 311.62402 
z
" clip-path="url(#pb2d06cba20)" style="fill: #1f77b4; fill-opacity: 0.3; stroke: #1f77b4; stroke-opacity: 0.3"/>
    <path d="M 607.547247 307.651052 
C 608.937984 307.651052 610.271947 307.098506 611.255346 306.115107 
C 612.238746 305.131707 612.791291 303.797744 612.791291 302.407007 
C 612.791291 301.016271 612.238746 299.682307 611.255346 298.698908 
C 610.271947 297.715509 608.937984 297.162963 607.547247 297.162963 
C 606.15651 297.162963 604.822547 297.715509 603.839148 298.698908 
C 602.855748 299.682307 602.303203 301.016271 602.303203 302.407007 
C 602.303203 303.797744 602.855748 305.131707 603.839148 306.115107 
C 604.822547 307.098506 606.15651 307.651052 607.547247 307.651052 
z
" clip-path="url(#pb2d06cba20)" style="fill: #1f77b4; fill-opacity: 0.3; stroke: #1f77b4; stroke-opacity: 0.3"/>
    <path d="M 618.978745 302.716253 
C 621.597416 302.716253 624.109185 301.675844 625.960865 299.824164 
C 627.812545 297.972484 628.852954 295.460715 628.852954 292.842044 
C 628.852954 290.223373 627.812545 287.711604 625.960865 285.859924 
C 624.109185 284.008244 621.597416 282.967835 618.978745 282.967835 
C 616.360074 282.967835 613.848305 284.008244 611.996625 285.859924 
C 610.144945 287.711604 609.104536 290.223373 609.104536 292.842044 
C 609.104536 295.460715 610.144945 297.972484 611.996625 299.824164 
C 613.848305 301.675844 616.360074 302.716253 618.978745 302.716253 
z
" clip-path="url(#pb2d06cba20)" style="fill: #1f77b4; fill-opacity: 0.3; stroke: #1f77b4; stroke-opacity: 0.3"/>
    <path d="M 630.410243 295.376204 
C 631.86282 295.376204 633.256099 294.799089 634.283227 293.771961 
C 635.310354 292.744834 635.887469 291.351555 635.887469 289.898978 
C 635.887469 288.446401 635.310354 287.053122 634.283227 286.025995 
C 633.256099 284.998868 631.86282 284.421753 630.410243 284.421753 
C 628.957666 284.421753 627.564387 284.998868 626.53726 286.025995 
C 625.510133 287.053122 624.933018 288.446401 624.933018 289.898978 
C 624.933018 291.351555 625.510133 292.744834 626.53726 293.771961 
C 627.564387 294.799089 628.957666 295.376204 630.410243 295.376204 
z
" clip-path="url(#pb2d06cba20)" style="fill: #1f77b4; fill-opacity: 0.3; stroke: #1f77b4; stroke-opacity: 0.3"/>
    <path d="M 641.841741 290.779836 
C 644.286793 290.779836 646.632031 289.808407 648.360944 288.079494 
C 650.089856 286.350582 651.061286 284.005344 651.061286 281.560292 
C 651.061286 279.11524 650.089856 276.770002 648.360944 275.04109 
C 646.632031 273.312177 644.286793 272.340748 641.841741 272.340748 
C 639.39669 272.340748 637.051452 273.312177 635.322539 275.04109 
C 633.593626 276.770002 632.622197 279.11524 632.622197 281.560292 
C 632.622197 284.005344 633.593626 286.350582 635.322539 288.079494 
C 637.051452 289.808407 639.39669 290.779836 641.841741 290.779836 
z
" clip-path="url(#pb2d06cba20)" style="fill: #1f77b4; fill-opacity: 0.3; stroke: #1f77b4; stroke-opacity: 0.3"/>
    <path d="M 653.273239 283.72625 
C 655.148509 283.72625 656.947224 282.981198 658.273239 281.655182 
C 659.599255 280.329167 660.344307 278.530452 660.344307 276.655182 
C 660.344307 274.779913 659.599255 272.981198 658.273239 271.655182 
C 656.947224 270.329167 655.148509 269.584115 653.273239 269.584115 
C 651.39797 269.584115 649.599255 270.329167 648.273239 271.655182 
C 646.947224 272.981198 646.202172 274.779913 646.202172 276.655182 
C 646.202172 278.530452 646.947224 280.329167 648.273239 281.655182 
C 649.599255 282.981198 651.39797 283.72625 653.273239 283.72625 
z
" clip-path="url(#pb2d06cba20)" style="fill: #1f77b4; fill-opacity: 0.3; stroke: #1f77b4; stroke-opacity: 0.3"/>
    <path d="M 664.704738 279.189342 
C 666.157315 279.189342 667.550594 278.612227 668.577721 277.5851 
C 669.604848 276.557973 670.181963 275.164694 670.181963 273.712117 
C 670.181963 272.25954 669.604848 270.866261 668.577721 269.839133 
C 667.550594 268.812006 666.157315 268.234891 664.704738 268.234891 
C 663.25216 268.234891 661.858881 268.812006 660.831754 269.839133 
C 659.804627 270.866261 659.227512 272.25954 659.227512 273.712117 
C 659.227512 275.164694 659.804627 276.557973 660.831754 277.5851 
C 661.858881 278.612227 663.25216 279.189342 664.704738 279.189342 
z
" clip-path="url(#pb2d06cba20)" style="fill: #1f77b4; fill-opacity: 0.3; stroke: #1f77b4; stroke-opacity: 0.3"/>
    <path d="M 676.136236 275.878075 
C 678.011505 275.878075 679.81022 275.133023 681.136236 273.807007 
C 682.462251 272.480992 683.207303 270.682276 683.207303 268.807007 
C 683.207303 266.931738 682.462251 265.133023 681.136236 263.807007 
C 679.81022 262.480992 678.011505 261.735939 676.136236 261.735939 
C 674.260966 261.735939 672.462251 262.480992 671.136236 263.807007 
C 669.81022 265.133023 669.065168 266.931738 669.065168 268.807007 
C 669.065168 270.682276 669.81022 272.480992 671.136236 273.807007 
C 672.462251 275.133023 674.260966 275.878075 676.136236 275.878075 
z
" clip-path="url(#pb2d06cba20)" style="fill: #1f77b4; fill-opacity: 0.3; stroke: #1f77b4; stroke-opacity: 0.3"/>
    <path d="M 687.567734 271.343125 
C 688.825702 271.343125 690.032317 270.843328 690.921836 269.95381 
C 691.811354 269.064292 692.31115 267.857677 692.31115 266.599708 
C 692.31115 265.341739 691.811354 264.135124 690.921836 263.245606 
C 690.032317 262.356088 688.825702 261.856292 687.567734 261.856292 
C 686.309765 261.856292 685.10315 262.356088 684.213632 263.245606 
C 683.324113 264.135124 682.824317 265.341739 682.824317 266.599708 
C 682.824317 267.857677 683.324113 269.064292 684.213632 269.95381 
C 685.10315 270.843328 686.309765 271.343125 687.567734 271.343125 
z
" clip-path="url(#pb2d06cba20)" style="fill: #1f77b4; fill-opacity: 0.3; stroke: #1f77b4; stroke-opacity: 0.3"/>
    <path d="M 698.999232 267.142948 
C 701.549873 267.142948 703.996391 266.129567 705.799967 264.325991 
C 707.603543 262.522415 708.616924 260.075897 708.616924 257.525255 
C 708.616924 254.974614 707.603543 252.528096 705.799967 250.72452 
C 703.996391 248.920944 701.549873 247.907563 698.999232 247.907563 
C 696.44859 247.907563 694.002073 248.920944 692.198496 250.72452 
C 690.39492 252.528096 689.38154 254.974614 689.38154 257.525255 
C 689.38154 260.075897 690.39492 262.522415 692.198496 264.325991 
C 694.002073 266.129567 696.44859 267.142948 698.999232 267.142948 
z
" clip-path="url(#pb2d06cba20)" style="fill: #1f77b4; fill-opacity: 0.3; stroke: #1f77b4; stroke-opacity: 0.3"/>
    <path d="M 710.43073 256.707444 
C 713.335884 256.707444 716.122442 255.553214 718.176697 253.498959 
C 720.230951 251.444705 721.385181 248.658147 721.385181 245.752993 
C 721.385181 242.847838 720.230951 240.06128 718.176697 238.007026 
C 716.122442 235.952772 713.335884 234.798542 710.43073 234.798542 
C 707.525575 234.798542 704.739018 235.952772 702.684763 238.007026 
C 700.630509 240.06128 699.476279 242.847838 699.476279 245.752993 
C 699.476279 248.658147 700.630509 251.444705 702.684763 253.498959 
C 704.739018 255.553214 707.525575 256.707444 710.43073 256.707444 
z
" clip-path="url(#pb2d06cba20)" style="fill: #1f77b4; fill-opacity: 0.3; stroke: #1f77b4; stroke-opacity: 0.3"/>
    <path d="M 721.862228 248.28911 
C 723.120197 248.28911 724.326812 247.789314 725.21633 246.899795 
C 726.105848 246.010277 726.605644 244.803662 726.605644 243.545693 
C 726.605644 242.287725 726.105848 241.08111 725.21633 240.191591 
C 724.326812 239.302073 723.120197 238.802277 721.862228 238.802277 
C 720.604259 238.802277 719.397644 239.302073 718.508126 240.191591 
C 717.618608 241.08111 717.118811 242.287725 717.118811 243.545693 
C 717.118811 244.803662 717.618608 246.010277 718.508126 246.899795 
C 719.397644 247.789314 720.604259 248.28911 721.862228 248.28911 
z
" clip-path="url(#pb2d06cba20)" style="fill: #1f77b4; fill-opacity: 0.3; stroke: #1f77b4; stroke-opacity: 0.3"/>
    <path d="M 733.293726 245.711652 
C 735.168995 245.711652 736.96771 244.966599 738.293726 243.640584 
C 739.619741 242.314568 740.364794 240.515853 740.364794 238.640584 
C 740.364794 236.765315 739.619741 234.966599 738.293726 233.640584 
C 736.96771 232.314568 735.168995 231.569516 733.293726 231.569516 
C 731.418457 231.569516 729.619741 232.314568 728.293726 233.640584 
C 726.96771 234.966599 726.222658 236.765315 726.222658 238.640584 
C 726.222658 240.515853 726.96771 242.314568 728.293726 243.640584 
C 729.619741 244.966599 731.418457 245.711652 733.293726 245.711652 
z
" clip-path="url(#pb2d06cba20)" style="fill: #1f77b4; fill-opacity: 0.3; stroke: #1f77b4; stroke-opacity: 0.3"/>
    <path d="M 744.725224 240.806542 
C 746.600493 240.806542 748.399209 240.06149 749.725224 238.735474 
C 751.05124 237.409459 751.796292 235.610744 751.796292 233.735474 
C 751.796292 231.860205 751.05124 230.06149 749.725224 228.735474 
C 748.399209 227.409459 746.600493 226.664407 744.725224 226.664407 
C 742.849955 226.664407 741.05124 227.409459 739.725224 228.735474 
C 738.399209 230.06149 737.654156 231.860205 737.654156 233.735474 
C 737.654156 235.610744 738.399209 237.409459 739.725224 238.735474 
C 741.05124 240.06149 742.849955 240.806542 744.725224 240.806542 
z
" clip-path="url(#pb2d06cba20)" style="fill: #1f77b4; fill-opacity: 0.3; stroke: #1f77b4; stroke-opacity: 0.3"/>
    <path d="M 756.156722 236.02908 
C 757.935759 236.02908 759.64217 235.322261 760.900139 234.064292 
C 762.158107 232.806324 762.864926 231.099912 762.864926 229.320876 
C 762.864926 227.541839 762.158107 225.835428 760.900139 224.577459 
C 759.64217 223.319491 757.935759 222.612672 756.156722 222.612672 
C 754.377686 222.612672 752.671274 223.319491 751.413306 224.577459 
C 750.155337 225.835428 749.448518 227.541839 749.448518 229.320876 
C 749.448518 231.099912 750.155337 232.806324 751.413306 234.064292 
C 752.671274 235.322261 754.377686 236.02908 756.156722 236.02908 
z
" clip-path="url(#pb2d06cba20)" style="fill: #1f77b4; fill-opacity: 0.3; stroke: #1f77b4; stroke-opacity: 0.3"/>
    <path d="M 767.58822 231.553046 
C 769.416006 231.553046 771.169177 230.826859 772.461617 229.534419 
C 773.754057 228.241979 774.480245 226.488808 774.480245 224.661022 
C 774.480245 222.833236 773.754057 221.080065 772.461617 219.787625 
C 771.169177 218.495185 769.416006 217.768998 767.58822 217.768998 
C 765.760434 217.768998 764.007263 218.495185 762.714823 219.787625 
C 761.422383 221.080065 760.696196 222.833236 760.696196 224.661022 
C 760.696196 226.488808 761.422383 228.241979 762.714823 229.534419 
C 764.007263 230.826859 765.760434 231.553046 767.58822 231.553046 
z
" clip-path="url(#pb2d06cba20)" style="fill: #1f77b4; fill-opacity: 0.3; stroke: #1f77b4; stroke-opacity: 0.3"/>
    <path d="M 779.019718 225.963612 
C 781.316445 225.963612 783.519412 225.051113 785.143443 223.427082 
C 786.767473 221.803051 787.679972 219.600084 787.679972 217.303358 
C 787.679972 215.006631 786.767473 212.803664 785.143443 211.179633 
C 783.519412 209.555603 781.316445 208.643104 779.019718 208.643104 
C 776.722992 208.643104 774.520025 209.555603 772.895994 211.179633 
C 771.271963 212.803664 770.359464 215.006631 770.359464 217.303358 
C 770.359464 219.600084 771.271963 221.803051 772.895994 223.427082 
C 774.520025 225.051113 776.722992 225.963612 779.019718 225.963612 
z
" clip-path="url(#pb2d06cba20)" style="fill: #1f77b4; fill-opacity: 0.3; stroke: #1f77b4; stroke-opacity: 0.3"/>
    <path d="M 790.451216 218.605947 
C 792.747943 218.605947 794.95091 217.693448 796.574941 216.069418 
C 798.198971 214.445387 799.11147 212.24242 799.11147 209.945693 
C 799.11147 207.648967 798.198971 205.446 796.574941 203.821969 
C 794.95091 202.197938 792.747943 201.285439 790.451216 201.285439 
C 788.15449 201.285439 785.951523 202.197938 784.327492 203.821969 
C 782.703461 205.446 781.790962 207.648967 781.790962 209.945693 
C 781.790962 212.24242 782.703461 214.445387 784.327492 216.069418 
C 785.951523 217.693448 788.15449 218.605947 790.451216 218.605947 
z
" clip-path="url(#pb2d06cba20)" style="fill: #1f77b4; fill-opacity: 0.3; stroke: #1f77b4; stroke-opacity: 0.3"/>
    <path d="M 801.882714 209.767929 
C 804.632399 209.767929 807.269833 208.675468 809.214154 206.731147 
C 811.158474 204.786827 812.250935 202.149392 812.250935 199.399708 
C 812.250935 196.650024 811.158474 194.012589 809.214154 192.068269 
C 807.269833 190.123948 804.632399 189.031487 801.882714 189.031487 
C 799.13303 189.031487 796.495596 190.123948 794.551275 192.068269 
C 792.606955 194.012589 791.514494 196.650024 791.514494 199.399708 
C 791.514494 202.149392 792.606955 204.786827 794.551275 206.731147 
C 796.495596 208.675468 799.13303 209.767929 801.882714 209.767929 
z
" clip-path="url(#pb2d06cba20)" style="fill: #1f77b4; fill-opacity: 0.3; stroke: #1f77b4; stroke-opacity: 0.3"/>
    <path d="M 813.314213 201.495031 
C 815.235792 201.495031 817.078926 200.73158 818.437688 199.372818 
C 819.796449 198.014057 820.559901 196.170922 820.559901 194.249343 
C 820.559901 192.327764 819.796449 190.484629 818.437688 189.125868 
C 817.078926 187.767106 815.235792 187.003655 813.314213 187.003655 
C 811.392634 187.003655 809.549499 187.767106 808.190737 189.125868 
C 806.831976 190.484629 806.068524 192.327764 806.068524 194.249343 
C 806.068524 196.170922 806.831976 198.014057 808.190737 199.372818 
C 809.549499 200.73158 811.392634 201.495031 813.314213 201.495031 
z
" clip-path="url(#pb2d06cba20)" style="fill: #1f77b4; fill-opacity: 0.3; stroke: #1f77b4; stroke-opacity: 0.3"/>
    <path d="M 824.745711 192.06612 
C 827.939179 192.06612 831.002281 190.797342 833.260404 188.539219 
C 835.518527 186.281096 836.787305 183.217994 836.787305 180.024526 
C 836.787305 176.831057 835.518527 173.767955 833.260404 171.509832 
C 831.002281 169.251709 827.939179 167.982931 824.745711 167.982931 
C 821.552242 167.982931 818.48914 169.251709 816.231017 171.509832 
C 813.972894 173.767955 812.704116 176.831057 812.704116 180.024526 
C 812.704116 183.217994 813.972894 186.281096 816.231017 188.539219 
C 818.48914 190.797342 821.552242 192.06612 824.745711 192.06612 
z
" clip-path="url(#pb2d06cba20)" style="fill: #1f77b4; fill-opacity: 0.3; stroke: #1f77b4; stroke-opacity: 0.3"/>
    <path d="M 836.177209 181.966525 
C 838.188211 181.966525 840.117118 181.167545 841.539111 179.745552 
C 842.961105 178.323559 843.760084 176.394652 843.760084 174.38365 
C 843.760084 172.372648 842.961105 170.44374 841.539111 169.021747 
C 840.117118 167.599754 838.188211 166.800774 836.177209 166.800774 
C 834.166207 166.800774 832.237299 167.599754 830.815306 169.021747 
C 829.393313 170.44374 828.594333 172.372648 828.594333 174.38365 
C 828.594333 176.394652 829.393313 178.323559 830.815306 179.745552 
C 832.237299 181.167545 834.166207 181.966525 836.177209 181.966525 
z
" clip-path="url(#pb2d06cba20)" style="fill: #1f77b4; fill-opacity: 0.3; stroke: #1f77b4; stroke-opacity: 0.3"/>
    <path d="M 847.608707 176.91781 
C 849.061284 176.91781 850.454563 176.340694 851.48169 175.313567 
C 852.508817 174.28644 853.085932 172.893161 853.085932 171.440584 
C 853.085932 169.988007 852.508817 168.594728 851.48169 167.567601 
C 850.454563 166.540473 849.061284 165.963358 847.608707 165.963358 
C 846.15613 165.963358 844.762851 166.540473 843.735723 167.567601 
C 842.708596 168.594728 842.131481 169.988007 842.131481 171.440584 
C 842.131481 172.893161 842.708596 174.28644 843.735723 175.313567 
C 844.762851 176.340694 846.15613 176.91781 847.608707 176.91781 
z
" clip-path="url(#pb2d06cba20)" style="fill: #1f77b4; fill-opacity: 0.3; stroke: #1f77b4; stroke-opacity: 0.3"/>
    <path d="M 859.040205 173.606542 
C 860.915474 173.606542 862.714189 172.86149 864.040205 171.535474 
C 865.36622 170.209459 866.111273 168.410744 866.111273 166.535474 
C 866.111273 164.660205 865.36622 162.86149 864.040205 161.535474 
C 862.714189 160.209459 860.915474 159.464407 859.040205 159.464407 
C 857.164936 159.464407 855.36622 160.209459 854.040205 161.535474 
C 852.714189 162.86149 851.969137 164.660205 851.969137 166.535474 
C 851.969137 168.410744 852.714189 170.209459 854.040205 171.535474 
C 855.36622 172.86149 857.164936 173.606542 859.040205 173.606542 
z
" clip-path="url(#pb2d06cba20)" style="fill: #1f77b4; fill-opacity: 0.3; stroke: #1f77b4; stroke-opacity: 0.3"/>
    <path d="M 870.471703 168.129415 
C 872.650569 168.129415 874.740487 167.263742 876.281178 165.723052 
C 877.821869 164.182361 878.687541 162.092442 878.687541 159.913577 
C 878.687541 157.734711 877.821869 155.644792 876.281178 154.104102 
C 874.740487 152.563411 872.650569 151.697738 870.471703 151.697738 
C 868.292837 151.697738 866.202919 152.563411 864.662228 154.104102 
C 863.121537 155.644792 862.255865 157.734711 862.255865 159.913577 
C 862.255865 162.092442 863.121537 164.182361 864.662228 165.723052 
C 866.202919 167.263742 868.292837 168.129415 870.471703 168.129415 
z
" clip-path="url(#pb2d06cba20)" style="fill: #1f77b4; fill-opacity: 0.3; stroke: #1f77b4; stroke-opacity: 0.3"/>
    <path d="M 881.903201 162.079535 
C 883.77847 162.079535 885.577186 161.334483 886.903201 160.008467 
C 888.229217 158.682452 888.974269 156.883736 888.974269 155.008467 
C 888.974269 153.133198 888.229217 151.334483 886.903201 150.008467 
C 885.577186 148.682452 883.77847 147.937399 881.903201 147.937399 
C 880.027932 147.937399 878.229217 148.682452 876.903201 150.008467 
C 875.577186 151.334483 874.832133 153.133198 874.832133 155.008467 
C 874.832133 156.883736 875.577186 158.682452 876.903201 160.008467 
C 878.229217 161.334483 880.027932 162.079535 881.903201 162.079535 
z
" clip-path="url(#pb2d06cba20)" style="fill: #1f77b4; fill-opacity: 0.3; stroke: #1f77b4; stroke-opacity: 0.3"/>
    <path d="M 893.334699 156.311057 
C 895.631425 156.311057 897.834393 155.398558 899.458423 153.774527 
C 901.082454 152.150497 901.994953 149.947529 901.994953 147.650803 
C 901.994953 145.354077 901.082454 143.151109 899.458423 141.527079 
C 897.834393 139.903048 895.631425 138.990549 893.334699 138.990549 
C 891.037973 138.990549 888.835005 139.903048 887.210975 141.527079 
C 885.586944 143.151109 884.674445 145.354077 884.674445 147.650803 
C 884.674445 149.947529 885.586944 152.150497 887.210975 153.774527 
C 888.835005 155.398558 891.037973 156.311057 893.334699 156.311057 
z
" clip-path="url(#pb2d06cba20)" style="fill: #1f77b4; fill-opacity: 0.3; stroke: #1f77b4; stroke-opacity: 0.3"/>
    <path d="M 904.766197 150.000662 
C 906.49511 150.000662 908.153444 149.313758 909.375969 148.091232 
C 910.598495 146.868706 911.2854 145.210373 911.2854 143.48146 
C 911.2854 141.752547 910.598495 140.094214 909.375969 138.871688 
C 908.153444 137.649162 906.49511 136.962257 904.766197 136.962257 
C 903.037284 136.962257 901.378951 137.649162 900.156425 138.871688 
C 898.933899 140.094214 898.246995 141.752547 898.246995 143.48146 
C 898.246995 145.210373 898.933899 146.868706 900.156425 148.091232 
C 901.378951 149.313758 903.037284 150.000662 904.766197 150.000662 
z
" clip-path="url(#pb2d06cba20)" style="fill: #1f77b4; fill-opacity: 0.3; stroke: #1f77b4; stroke-opacity: 0.3"/>
    <path d="M 916.197695 145.423459 
C 918.208697 145.423459 920.137605 144.62448 921.559598 143.202487 
C 922.981591 141.780493 923.780571 139.851586 923.780571 137.840584 
C 923.780571 135.829582 922.981591 133.900674 921.559598 132.478681 
C 920.137605 131.056688 918.208697 130.257708 916.197695 130.257708 
C 914.186693 130.257708 912.257786 131.056688 910.835793 132.478681 
C 909.413799 133.900674 908.61482 135.829582 908.61482 137.840584 
C 908.61482 139.851586 909.413799 141.780493 910.835793 143.202487 
C 912.257786 144.62448 914.186693 145.423459 916.197695 145.423459 
z
" clip-path="url(#pb2d06cba20)" style="fill: #1f77b4; fill-opacity: 0.3; stroke: #1f77b4; stroke-opacity: 0.3"/>
    <path d="M 927.629193 140.134189 
C 929.40823 140.134189 931.114641 139.427371 932.37261 138.169402 
C 933.630579 136.911433 934.337397 135.205022 934.337397 133.425985 
C 934.337397 131.646949 933.630579 129.940538 932.37261 128.682569 
C 931.114641 127.4246 929.40823 126.717781 927.629193 126.717781 
C 925.850157 126.717781 924.143746 127.4246 922.885777 128.682569 
C 921.627808 129.940538 920.920989 131.646949 920.920989 133.425985 
C 920.920989 135.205022 921.627808 136.911433 922.885777 138.169402 
C 924.143746 139.427371 925.850157 140.134189 927.629193 140.134189 
z
" clip-path="url(#pb2d06cba20)" style="fill: #1f77b4; fill-opacity: 0.3; stroke: #1f77b4; stroke-opacity: 0.3"/>
    <path d="M 939.060691 135.938541 
C 940.572582 135.938541 942.022752 135.337861 943.09182 134.268793 
C 944.160888 133.199725 944.761569 131.749555 944.761569 130.237664 
C 944.761569 128.725774 944.160888 127.275603 943.09182 126.206535 
C 942.022752 125.137467 940.572582 124.536787 939.060691 124.536787 
C 937.548801 124.536787 936.09863 125.137467 935.029563 126.206535 
C 933.960495 127.275603 933.359814 128.725774 933.359814 130.237664 
C 933.359814 131.749555 933.960495 133.199725 935.029563 134.268793 
C 936.09863 135.337861 937.548801 135.938541 939.060691 135.938541 
z
" clip-path="url(#pb2d06cba20)" style="fill: #1f77b4; fill-opacity: 0.3; stroke: #1f77b4; stroke-opacity: 0.3"/>
    <path d="M 950.49219 126.747727 
C 953.924496 126.747727 957.216685 125.384057 959.643692 122.95705 
C 962.070699 120.530043 963.434369 117.237853 963.434369 113.805547 
C 963.434369 110.373241 962.070699 107.081052 959.643692 104.654045 
C 957.216685 102.227038 953.924496 100.863368 950.49219 100.863368 
C 947.059883 100.863368 943.767694 102.227038 941.340687 104.654045 
C 938.91368 107.081052 937.55001 110.373241 937.55001 113.805547 
C 937.55001 117.237853 938.91368 120.530043 941.340687 122.95705 
C 943.767694 125.384057 947.059883 126.747727 950.49219 126.747727 
z
" clip-path="url(#pb2d06cba20)" style="fill: #1f77b4; fill-opacity: 0.3; stroke: #1f77b4; stroke-opacity: 0.3"/>
    <path d="M 961.923688 116.037718 
C 963.751474 116.037718 965.504645 115.311531 966.797085 114.019091 
C 968.089525 112.726651 968.815712 110.97348 968.815712 109.145693 
C 968.815712 107.317907 968.089525 105.564736 966.797085 104.272296 
C 965.504645 102.979856 963.751474 102.253669 961.923688 102.253669 
C 960.095901 102.253669 958.34273 102.979856 957.05029 104.272296 
C 955.75785 105.564736 955.031663 107.317907 955.031663 109.145693 
C 955.031663 110.97348 955.75785 112.726651 957.05029 114.019091 
C 958.34273 115.311531 960.095901 116.037718 961.923688 116.037718 
z
" clip-path="url(#pb2d06cba20)" style="fill: #1f77b4; fill-opacity: 0.3; stroke: #1f77b4; stroke-opacity: 0.3"/>
    <path d="M 973.355186 108.842541 
C 976.136659 108.842541 978.804585 107.73745 980.771384 105.770651 
C 982.738183 103.803852 983.843274 101.135926 983.843274 98.354453 
C 983.843274 95.572979 982.738183 92.905053 980.771384 90.938254 
C 978.804585 88.971455 976.136659 87.866364 973.355186 87.866364 
C 970.573712 87.866364 967.905786 88.971455 965.938987 90.938254 
C 963.972188 92.905053 962.867097 95.572979 962.867097 98.354453 
C 962.867097 101.135926 963.972188 103.803852 965.938987 105.770651 
C 967.905786 107.73745 970.573712 108.842541 973.355186 108.842541 
z
" clip-path="url(#pb2d06cba20)" style="fill: #1f77b4; fill-opacity: 0.3; stroke: #1f77b4; stroke-opacity: 0.3"/>
    <path d="M 984.786684 99.343973 
C 987.195511 99.343973 989.506002 98.386936 991.2093 96.683638 
C 992.912598 94.98034 993.869635 92.669849 993.869635 90.261022 
C 993.869635 87.852195 992.912598 85.541703 991.2093 83.838406 
C 989.506002 82.135108 987.195511 81.178071 984.786684 81.178071 
C 982.377857 81.178071 980.067365 82.135108 978.364067 83.838406 
C 976.66077 85.541703 975.703733 87.852195 975.703733 90.261022 
C 975.703733 92.669849 976.66077 94.98034 978.364067 96.683638 
C 980.067365 98.386936 982.377857 99.343973 984.786684 99.343973 
z
" clip-path="url(#pb2d06cba20)" style="fill: #1f77b4; fill-opacity: 0.3; stroke: #1f77b4; stroke-opacity: 0.3"/>
    <path d="M 996.218182 92.442278 
C 997.056828 92.442278 997.861238 92.10908 998.45425 91.516068 
C 999.047262 90.923056 999.380459 90.118646 999.380459 89.28 
C 999.380459 88.441354 999.047262 87.636944 998.45425 87.043932 
C 997.861238 86.45092 997.056828 86.117722 996.218182 86.117722 
C 995.379536 86.117722 994.575126 86.45092 993.982114 87.043932 
C 993.389102 87.636944 993.055904 88.441354 993.055904 89.28 
C 993.055904 90.118646 993.389102 90.923056 993.982114 91.516068 
C 994.575126 92.10908 995.379536 92.442278 996.218182 92.442278 
z
" clip-path="url(#pb2d06cba20)" style="fill: #1f77b4; fill-opacity: 0.3; stroke: #1f77b4; stroke-opacity: 0.3"/>
   </g>
   <g id="matplotlib.axis_1">
    <g id="xtick_1">
     <g id="line2d_1">
      <defs>
       <path id="m035ec69e53" d="M 0 0 
L 0 3.5 
" style="stroke: #000000; stroke-width: 0.8"/>
      </defs>
      <g>
       <use xlink:href="#m035ec69e53" x="184.581818" y="512.64" style="stroke: #000000; stroke-width: 0.8"/>
      </g>
     </g>
     <g id="text_1">
      <!-- 2026-01-01 -->
      <g transform="translate(155.524006 527.238438) scale(0.1 -0.1)">
       <defs>
        <path id="DejaVuSans-32" d="M 1228 531 
L 3431 531 
L 3431 0 
L 469 0 
L 469 531 
Q 828 903 1448 1529 
Q 2069 2156 2228 2338 
Q 2531 2678 2651 2914 
Q 2772 3150 2772 3378 
Q 2772 3750 2511 3984 
Q 2250 4219 1831 4219 
Q 1534 4219 1204 4116 
Q 875 4013 500 3803 
L 500 4441 
Q 881 4594 1212 4672 
Q 1544 4750 1819 4750 
Q 2544 4750 2975 4387 
Q 3406 4025 3406 3419 
Q 3406 3131 3298 2873 
Q 3191 2616 2906 2266 
Q 2828 2175 2409 1742 
Q 1991 1309 1228 531 
z
" transform="scale(0.015625)"/>
        <path id="DejaVuSans-30" d="M 2034 4250 
Q 1547 4250 1301 3770 
Q 1056 3291 1056 2328 
Q 1056 1369 1301 889 
Q 1547 409 2034 409 
Q 2525 409 2770 889 
Q 3016 1369 3016 2328 
Q 3016 3291 2770 3770 
Q 2525 4250 2034 4250 
z
M 2034 4750 
Q 2819 4750 3233 4129 
Q 3647 3509 3647 2328 
Q 3647 1150 3233 529 
Q 2819 -91 2034 -91 
Q 1250 -91 836 529 
Q 422 1150 422 2328 
Q 422 3509 836 4129 
Q 1250 4750 2034 4750 
z
" transform="scale(0.015625)"/>
        <path id="DejaVuSans-36" d="M 2113 2584 
Q 1688 2584 1439 2293 
Q 1191 2003 1191 1497 
Q 1191 994 1439 701 
Q 1688 409 2113 409 
Q 2538 409 2786 701 
Q 3034 994 3034 1497 
Q 3034 2003 2786 2293 
Q 2538 2584 2113 2584 
z
M 3366 4563 
L 3366 3988 
Q 3128 4100 2886 4159 
Q 2644 4219 2406 4219 
Q 1781 4219 1451 3797 
Q 1122 3375 1075 2522 
Q 1259 2794 1537 2939 
Q 1816 3084 2150 3084 
Q 2853 3084 3261 2657 
Q 3669 2231 3669 1497 
Q 3669 778 3244 343 
Q 2819 -91 2113 -91 
Q 1303 -91 875 529 
Q 447 1150 447 2328 
Q 447 3434 972 4092 
Q 1497 4750 2381 4750 
Q 2619 4750 2861 4703 
Q 3103 4656 3366 4563 
z
" transform="scale(0.015625)"/>
        <path id="DejaVuSans-2d" d="M 313 2009 
L 1997 2009 
L 1997 1497 
L 313 1497 
L 313 2009 
z
" transform="scale(0.015625)"/>
        <path id="DejaVuSans-31" d="M 794 531 
L 1825 531 
L 1825 4091 
L 703 3866 
L 703 4441 
L 1819 4666 
L 2450 4666 
L 2450 531 
L 3481 531 
L 3481 0 
L 794 0 
L 794 531 
z
" transform="scale(0.015625)"/>
       </defs>
       <use xlink:href="#DejaVuSans-32"/>
       <use xlink:href="#DejaVuSans-30" x="63.623047"/>
       <use xlink:href="#DejaVuSans-32" x="127.246094"/>
       <use xlink:href="#DejaVuSans-36" x="190.869141"/>
       <use xlink:href="#DejaVuSans-2d" x="254.492188"/>
       <use xlink:href="#DejaVuSans-30" x="290.576172"/>
       <use xlink:href="#DejaVuSans-31" x="354.199219"/>
       <use xlink:href="#DejaVuSans-2d" x="417.822266"/>
       <use xlink:href="#DejaVuSans-30" x="453.90625"/>
       <use xlink:href="#DejaVuSans-31" x="517.529297"/>
      </g>
     </g>
    </g>
    <g id="xtick_2">
     <g id="line2d_2">
      <g>
       <use xlink:href="#m035ec69e53" x="344.622791" y="512.64" style="stroke: #000000; stroke-width: 0.8"/>
      </g>
     </g>
     <g id="text_2">
      <!-- 2026-01-15 -->
      <g transform="translate(315.564979 527.238438) scale(0.1 -0.1)">
       <defs>
        <path id="DejaVuSans-35" d="M 691 4666 
L 3169 4666 
L 3169 4134 
L 1269 4134 
L 1269 2991 
Q 1406 3038 1543 3061 
Q 1681 3084 1819 3084 
Q 2600 3084 3056 2656 
Q 3513 2228 3513 1497 
Q 3513 744 3044 326 
Q 2575 -91 1722 -91 
Q 1428 -91 1123 -41 
Q 819 9 494 109 
L 494 744 
Q 775 591 1075 516 
Q 1375 441 1709 441 
Q 2250 441 2565 725 
Q 2881 1009 2881 1497 
Q 2881 1984 2565 2268 
Q 2250 2553 1709 2553 
Q 1456 2553 1204 2497 
Q 953 2441 691 2322 
L 691 4666 
z
" transform="scale(0.015625)"/>
       </defs>
       <use xlink:href="#DejaVuSans-32"/>
       <use xlink:href="#DejaVuSans-30" x="63.623047"/>
       <use xlink:href="#DejaVuSans-32" x="127.246094"/>
       <use xlink:href="#DejaVuSans-36" x="190.869141"/>
       <use xlink:href="#DejaVuSans-2d" x="254.492188"/>
       <use xlink:href="#DejaVuSans-30" x="290.576172"/>
       <use xlink:href="#DejaVuSans-31" x="354.199219"/>
       <use xlink:href="#DejaVuSans-2d" x="417.822266"/>
       <use xlink:href="#DejaVuSans-31" x="453.90625"/>
       <use xlink:href="#DejaVuSans-35" x="517.529297"/>
      </g>
     </g>
    </g>
    <g id="xtick_3">
     <g id="line2d_3">
      <g>
       <use xlink:href="#m035ec69e53" x="538.958259" y="512.64" style="stroke: #000000; stroke-width: 0.8"/>
      </g>
     </g>
     <g id="text_3">
      <!-- 2026-02-01 -->
      <g transform="translate(509.900446 527.238438) scale(0.1 -0.1)">
       <use xlink:href="#DejaVuSans-32"/>
       <use xlink:href="#DejaVuSans-30" x="63.623047"/>
       <use xlink:href="#DejaVuSans-32" x="127.246094"/>
       <use xlink:href="#DejaVuSans-36" x="190.869141"/>
       <use xlink:href="#DejaVuSans-2d" x="254.492188"/>
       <use xlink:href="#DejaVuSans-30" x="290.576172"/>
       <use xlink:href="#DejaVuSans-32" x="354.199219"/>
       <use xlink:href="#DejaVuSans-2d" x="417.822266"/>
       <use xlink:href="#DejaVuSans-30" x="453.90625"/>
       <use xlink:href="#DejaVuSans-31" x="517.529297"/>
      </g>
     </g>
    </g>
    <g id="xtick_4">
     <g id="line2d_4">
      <g>
       <use xlink:href="#m035ec69e53" x="698.999232" y="512.64" style="stroke: #000000; stroke-width: 0.8"/>
      </g>
     </g>
     <g id="text_4">
      <!-- 2026-02-15 -->
      <g transform="translate(669.941419 527.238438) scale(0.1 -0.1)">
       <use xlink:href="#DejaVuSans-32"/>
       <use xlink:href="#DejaVuSans-30" x="63.623047"/>
       <use xlink:href="#DejaVuSans-32" x="127.246094"/>
       <use xlink:href="#DejaVuSans-36" x="190.869141"/>
       <use xlink:href="#DejaVuSans-2d" x="254.492188"/>
       <use xlink:href="#DejaVuSans-30" x="290.576172"/>
       <use xlink:href="#DejaVuSans-32" x="354.199219"/>
       <use xlink:href="#DejaVuSans-2d" x="417.822266"/>
       <use xlink:href="#DejaVuSans-31" x="453.90625"/>
       <use xlink:href="#DejaVuSans-35" x="517.529297"/>
      </g>
     </g>
    </g>
    <g id="xtick_5">
     <g id="line2d_5">
      <g>
       <use xlink:href="#m035ec69e53" x="859.040205" y="512.64" style="stroke: #000000; stroke-width: 0.8"/>
      </g>
     </g>
     <g id="text_5">
      <!-- 2026-03-01 -->
      <g transform="translate(829.982392 527.238438) scale(0.1 -0.1)">
       <defs>
        <path id="DejaVuSans-33" d="M 2597 2516 
Q 3050 2419 3304 2112 
Q 3559 1806 3559 1356 
Q 3559 666 3084 287 
Q 2609 -91 1734 -91 
Q 1441 -91 1130 -33 
Q 819 25 488 141 
L 488 750 
Q 750 597 1062 519 
Q 1375 441 1716 441 
Q 2309 441 2620 675 
Q 2931 909 2931 1356 
Q 2931 1769 2642 2001 
Q 2353 2234 1838 2234 
L 1294 2234 
L 1294 2753 
L 1863 2753 
Q 2328 2753 2575 2939 
Q 2822 3125 2822 3475 
Q 2822 3834 2567 4026 
Q 2313 4219 1838 4219 
Q 1578 4219 1281 4162 
Q 984 4106 628 3988 
L 628 4550 
Q 988 4650 1302 4700 
Q 1616 4750 1894 4750 
Q 2613 4750 3031 4423 
Q 3450 4097 3450 3541 
Q 3450 3153 3228 2886 
Q 3006 2619 2597 2516 
z
" transform="scale(0.015625)"/>
       </defs>
       <use xlink:href="#DejaVuSans-32"/>
       <use xlink:href="#DejaVuSans-30" x="63.623047"/>
       <use xlink:href="#DejaVuSans-32" x="127.246094"/>
       <use xlink:href="#DejaVuSans-36" x="190.869141"/>
       <use xlink:href="#DejaVuSans-2d" x="254.492188"/>
       <use xlink:href="#DejaVuSans-30" x="290.576172"/>
       <use xlink:href="#DejaVuSans-33" x="354.199219"/>
       <use xlink:href="#DejaVuSans-2d" x="417.822266"/>
       <use xlink:href="#DejaVuSans-30" x="453.90625"/>
       <use xlink:href="#DejaVuSans-31" x="517.529297"/>
      </g>
     </g>
    </g>
    <g id="xtick_6">
     <g id="line2d_6">
      <g>
       <use xlink:href="#m035ec69e53" x="1019.081178" y="512.64" style="stroke: #000000; stroke-width: 0.8"/>
      </g>
     </g>
     <g id="text_6">
      <!-- 2026-03-15 -->
      <g transform="translate(990.023365 527.238438) scale(0.1 -0.1)">
       <use xlink:href="#DejaVuSans-32"/>
       <use xlink:href="#DejaVuSans-30" x="63.623047"/>
       <use xlink:href="#DejaVuSans-32" x="127.246094"/>
       <use xlink:href="#DejaVuSans-36" x="190.869141"/>
       <use xlink:href="#DejaVuSans-2d" x="254.492188"/>
       <use xlink:href="#DejaVuSans-30" x="290.576172"/>
       <use xlink:href="#DejaVuSans-33" x="354.199219"/>
       <use xlink:href="#DejaVuSans-2d" x="417.822266"/>
       <use xlink:href="#DejaVuSans-31" x="453.90625"/>
       <use xlink:href="#DejaVuSans-35" x="517.529297"/>
      </g>
     </g>
    </g>
   </g>
   <g id="matplotlib.axis_2">
    <g id="ytick_1">
     <g id="line2d_7">
      <defs>
       <path id="mc0f4e07e53" d="M 0 0 
L -3.5 0 
" style="stroke: #000000; stroke-width: 0.8"/>
      </defs>
      <g>
       <use xlink:href="#mc0f4e07e53" x="144" y="505.969051" style="stroke: #000000; stroke-width: 0.8"/>
      </g>
     </g>
     <g id="text_7">
      <!-- 13000 -->
      <g transform="translate(105.1875 509.76827) scale(0.1 -0.1)">
       <use xlink:href="#DejaVuSans-31"/>
       <use xlink:href="#DejaVuSans-33" x="63.623047"/>
       <use xlink:href="#DejaVuSans-30" x="127.246094"/>
       <use xlink:href="#DejaVuSans-30" x="190.869141"/>
       <use xlink:href="#DejaVuSans-30" x="254.492188"/>
      </g>
     </g>
    </g>
    <g id="ytick_2">
     <g id="line2d_8">
      <g>
       <use xlink:href="#mc0f4e07e53" x="144" y="444.655182" style="stroke: #000000; stroke-width: 0.8"/>
      </g>
     </g>
     <g id="text_8">
      <!-- 13250 -->
      <g transform="translate(105.1875 448.454401) scale(0.1 -0.1)">
       <use xlink:href="#DejaVuSans-31"/>
       <use xlink:href="#DejaVuSans-33" x="63.623047"/>
       <use xlink:href="#DejaVuSans-32" x="127.246094"/>
       <use xlink:href="#DejaVuSans-35" x="190.869141"/>
       <use xlink:href="#DejaVuSans-30" x="254.492188"/>
      </g>
     </g>
    </g>
    <g id="ytick_3">
     <g id="line2d_9">
      <g>
       <use xlink:href="#mc0f4e07e53" x="144" y="383.341314" style="stroke: #000000; stroke-width: 0.8"/>
      </g>
     </g>
     <g id="text_9">
      <!-- 13500 -->
      <g transform="translate(105.1875 387.140533) scale(0.1 -0.1)">
       <use xlink:href="#DejaVuSans-31"/>
       <use xlink:href="#DejaVuSans-33" x="63.623047"/>
       <use xlink:href="#DejaVuSans-35" x="127.246094"/>
       <use xlink:href="#DejaVuSans-30" x="190.869141"/>
       <use xlink:href="#DejaVuSans-30" x="254.492188"/>
      </g>
     </g>
    </g>
    <g id="ytick_4">
     <g id="line2d_10">
      <g>
       <use xlink:href="#mc0f4e07e53" x="144" y="322.027445" style="stroke: #000000; stroke-width: 0.8"/>
      </g>
     </g>
     <g id="text_10">
      <!-- 13750 -->
      <g transform="translate(105.1875 325.826664) scale(0.1 -0.1)">
       <defs>
        <path id="DejaVuSans-37" d="M 525 4666 
L 3525 4666 
L 3525 4397 
L 1831 0 
L 1172 0 
L 2766 4134 
L 525 4134 
L 525 4666 
z
" transform="scale(0.015625)"/>
       </defs>
       <use xlink:href="#DejaVuSans-31"/>
       <use xlink:href="#DejaVuSans-33" x="63.623047"/>
       <use xlink:href="#DejaVuSans-37" x="127.246094"/>
       <use xlink:href="#DejaVuSans-35" x="190.869141"/>
       <use xlink:href="#DejaVuSans-30" x="254.492188"/>
      </g>
     </g>
    </g>
    <g id="ytick_5">
     <g id="line2d_11">
      <g>
       <use xlink:href="#mc0f4e07e53" x="144" y="260.713577" style="stroke: #000000; stroke-width: 0.8"/>
      </g>
     </g>
     <g id="text_11">
      <!-- 14000 -->
      <g transform="translate(105.1875 264.512795) scale(0.1 -0.1)">
       <defs>
        <path id="DejaVuSans-34" d="M 2419 4116 
L 825 1625 
L 2419 1625 
L 2419 4116 
z
M 2253 4666 
L 3047 4666 
L 3047 1625 
L 3713 1625 
L 3713 1100 
L 3047 1100 
L 3047 0 
L 2419 0 
L 2419 1100 
L 313 1100 
L 313 1709 
L 2253 4666 
z
" transform="scale(0.015625)"/>
       </defs>
       <use xlink:href="#DejaVuSans-31"/>
       <use xlink:href="#DejaVuSans-34" x="63.623047"/>
       <use xlink:href="#DejaVuSans-30" x="127.246094"/>
       <use xlink:href="#DejaVuSans-30" x="190.869141"/>
       <use xlink:href="#DejaVuSans-30" x="254.492188"/>
      </g>
     </g>
    </g>
    <g id="ytick_6">
     <g id="line2d_12">
      <g>
       <use xlink:href="#mc0f4e07e53" x="144" y="199.399708" style="stroke: #000000; stroke-width: 0.8"/>
      </g>
     </g>
     <g id="text_12">
      <!-- 14250 -->
      <g transform="translate(105.1875 203.198927) scale(0.1 -0.1)">
       <use xlink:href="#DejaVuSans-31"/>
       <use xlink:href="#DejaVuSans-34" x="63.623047"/>
       <use xlink:href="#DejaVuSans-32" x="127.246094"/>
       <use xlink:href="#DejaVuSans-35" x="190.869141"/>
       <use xlink:href="#DejaVuSans-30" x="254.492188"/>
      </g>
     </g>
    </g>
    <g id="ytick_7">
     <g id="line2d_13">
      <g>
       <use xlink:href="#mc0f4e07e53" x="144" y="138.085839" style="stroke: #000000; stroke-width: 0.8"/>
      </g>
     </g>
     <g id="text_13">
      <!-- 14500 -->
      <g transform="translate(105.1875 141.885058) scale(0.1 -0.1)">
       <use xlink:href="#DejaVuSans-31"/>
       <use xlink:href="#DejaVuSans-34" x="63.623047"/>
       <use xlink:href="#DejaVuSans-35" x="127.246094"/>
       <use xlink:href="#DejaVuSans-30" x="190.869141"/>
       <use xlink:href="#DejaVuSans-30" x="254.492188"/>
      </g>
     </g>
    </g>
    <g id="ytick_8">
     <g id="line2d_14">
      <g>
       <use xlink:href="#mc0f4e07e53" x="144" y="76.771971" style="stroke: #000000; stroke-width: 0.8"/>
      </g>
     </g>
     <g id="text_14">
      <!-- 14750 -->
      <g transform="translate(105.1875 80.57119) scale(0.1 -0.1)">
       <use xlink:href="#DejaVuSans-31"/>
       <use xlink:href="#DejaVuSans-34" x="63.623047"/>
       <use xlink:href="#DejaVuSans-37" x="127.246094"/>
       <use xlink:href="#DejaVuSans-35" x="190.869141"/>
       <use xlink:href="#DejaVuSans-30" x="254.492188"/>
      </g>
     </g>
    </g>
   </g>
   <g id="line2d_15">
    <path d="M 184.581818 492.48 
L 196.013316 488.310657 
L 207.444814 481.443504 
L 218.876312 478.745693 
L 230.30781 477.519416 
L 241.739309 473.350073 
L 253.170807 469.671241 
L 264.602305 460.106277 
L 276.033803 455.201168 
L 287.465301 452.993869 
L 298.896799 452.503358 
L 310.328297 442.938394 
L 321.759795 436.807007 
L 333.191293 433.618686 
L 344.622791 425.770511 
L 356.054289 415.224526 
L 367.485787 414.243504 
L 378.917286 411.545693 
L 390.348784 404.923796 
L 401.780282 401.98073 
L 413.21178 389.717956 
L 424.643278 383.096058 
L 436.074776 377.209927 
L 447.506274 370.097518 
L 458.937772 369.116496 
L 470.36927 368.135474 
L 481.800768 359.306277 
L 493.232266 347.043504 
L 504.663764 339.195328 
L 516.095262 332.573431 
L 527.526761 331.592409 
L 538.958259 328.894599 
L 550.389757 323.989489 
L 561.821255 318.103358 
L 573.252753 316.141314 
L 584.684251 309.274161 
L 596.115749 305.104818 
L 607.547247 302.407007 
L 618.978745 292.842044 
L 630.410243 289.898978 
L 641.841741 281.560292 
L 653.273239 276.655182 
L 664.704738 273.712117 
L 676.136236 268.807007 
L 687.567734 266.599708 
L 698.999232 257.525255 
L 710.43073 245.752993 
L 721.862228 243.545693 
L 733.293726 238.640584 
L 744.725224 233.735474 
L 756.156722 229.320876 
L 767.58822 224.661022 
L 779.019718 217.303358 
L 790.451216 209.945693 
L 801.882714 199.399708 
L 813.314213 194.249343 
L 824.745711 180.024526 
L 836.177209 174.38365 
L 847.608707 171.440584 
L 859.040205 166.535474 
L 870.471703 159.913577 
L 881.903201 155.008467 
L 893.334699 147.650803 
L 904.766197 143.48146 
L 916.197695 137.840584 
L 927.629193 133.425985 
L 939.060691 130.237664 
L 950.49219 113.805547 
L 961.923688 109.145693 
L 973.355186 98.354453 
L 984.786684 90.261022 
L 996.218182 89.28 
" clip-path="url(#pb2d06cba20)" style="fill: none; stroke: #1f77b4; stroke-width: 1.5; stroke-linecap: square"/>
   </g>
   <g id="patch_3">
    <path d="M 144 512.64 
L 144 69.12 
" style="fill: none; stroke: #000000; stroke-width: 0.8; stroke-linejoin: miter; stroke-linecap: square"/>
   </g>
   <g id="patch_4">
    <path d="M 1036.8 512.64 
L 1036.8 69.12 
" style="fill: none; stroke: #000000; stroke-width: 0.8; stroke-linejoin: miter; stroke-linecap: square"/>
   </g>
   <g id="patch_5">
    <path d="M 144 512.64 
L 1036.8 512.64 
" style="fill: none; stroke: #000000; stroke-width: 0.8; stroke-linejoin: miter; stroke-linecap: square"/>
   </g>
   <g id="patch_6">
    <path d="M 144 69.12 
L 1036.8 69.12 
" style="fill: none; stroke: #000000; stroke-width: 0.8; stroke-linejoin: miter; stroke-linecap: square"/>
   </g>
   <g id="text_15">
    <!-- Number of AEDs in the OpenStreetMap database in Poland from 2026-01-01, day by day. As at: 2026-03-13 -->
    <g transform="translate(144 63.12) scale(0.14 -0.14)">
     <defs>
      <path id="DejaVuSans-4e" d="M 628 4666 
L 1478 4666 
L 3547 763 
L 3547 4666 
L 4159 4666 
L 4159 0 
L 3309 0 
L 1241 3903 
L 1241 0 
L 628 0 
L 628 4666 
z
" transform="scale(0.015625)"/>
      <path id="DejaVuSans-75" d="M 544 1381 
L 544 3500 
L 1119 3500 
L 1119 1403 
Q 1119 906 1312 657 
Q 1506 409 1894 409 
Q 2359 409 2629 706 
Q 2900 1003 2900 1516 
L 2900 3500 
L 3475 3500 
L 3475 0 
L 2900 0 
L 2900 538 
Q 2691 219 2414 64 
Q 2138 -91 1772 -91 
Q 1169 -91 856 284 
Q 544 659 544 1381 
z
M 1991 3584 
L 1991 3584 
z
" transform="scale(0.015625)"/>
      <path id="DejaVuSans-6d" d="M 3328 2828 
Q 3544 3216 3844 3400 
Q 4144 3584 4550 3584 
Q 5097 3584 5394 3201 
Q 5691 2819 5691 2113 
L 5691 0 
L 5113 0 
L 5113 2094 
Q 5113 2597 4934 2840 
Q 4756 3084 4391 3084 
Q 3944 3084 3684 2787 
Q 3425 2491 3425 1978 
L 3425 0 
L 2847 0 
L 2847 2094 
Q 2847 2600 2669 2842 
Q 2491 3084 2119 3084 
Q 1678 3084 1418 2786 
Q 1159 2488 1159 1978 
L 1159 0 
L 581 0 
L 581 3500 
L 1159 3500 
L 1159 2956 
Q 1356 3278 1631 3431 
Q 1906 3584 2284 3584 
Q 2666 3584 2933 3390 
Q 3200 3197 3328 2828 
z
" transform="scale(0.015625)"/>
      <path id="DejaVuSans-62" d="M 3116 1747 
Q 3116 2381 2855 2742 
Q 2594 3103 2138 3103 
Q 1681 3103 1420 2742 
Q 1159 2381 1159 1747 
Q 1159 1113 1420 752 
Q 1681 391 2138 391 
Q 2594 391 2855 752 
Q 3116 1113 3116 1747 
z
M 1159 2969 
Q 1341 3281 1617 3432 
Q 1894 3584 2278 3584 
Q 2916 3584 3314 3078 
Q 3713 2572 3713 1747 
Q 3713 922 3314 415 
Q 2916 -91 2278 -91 
Q 1894 -91 1617 61 
Q 1341 213 1159 525 
L 1159 0 
L 581 0 
L 581 4863 
L 1159 4863 
L 1159 2969 
z
" transform="scale(0.015625)"/>
      <path id="DejaVuSans-65" d="M 3597 1894 
L 3597 1613 
L 953 1613 
Q 991 1019 1311 708 
Q 1631 397 2203 397 
Q 2534 397 2845 478 
Q 3156 559 3463 722 
L 3463 178 
Q 3153 47 2828 -22 
Q 2503 -91 2169 -91 
Q 1331 -91 842 396 
Q 353 884 353 1716 
Q 353 2575 817 3079 
Q 1281 3584 2069 3584 
Q 2775 3584 3186 3129 
Q 3597 2675 3597 1894 
z
M 3022 2063 
Q 3016 2534 2758 2815 
Q 2500 3097 2075 3097 
Q 1594 3097 1305 2825 
Q 1016 2553 972 2059 
L 3022 2063 
z
" transform="scale(0.015625)"/>
      <path id="DejaVuSans-72" d="M 2631 2963 
Q 2534 3019 2420 3045 
Q 2306 3072 2169 3072 
Q 1681 3072 1420 2755 
Q 1159 2438 1159 1844 
L 1159 0 
L 581 0 
L 581 3500 
L 1159 3500 
L 1159 2956 
Q 1341 3275 1631 3429 
Q 1922 3584 2338 3584 
Q 2397 3584 2469 3576 
Q 2541 3569 2628 3553 
L 2631 2963 
z
" transform="scale(0.015625)"/>
      <path id="DejaVuSans-20" transform="scale(0.015625)"/>
      <path id="DejaVuSans-6f" d="M 1959 3097 
Q 1497 3097 1228 2736 
Q 959 2375 959 1747 
Q 959 1119 1226 758 
Q 1494 397 1959 397 
Q 2419 397 2687 759 
Q 2956 1122 2956 1747 
Q 2956 2369 2687 2733 
Q 2419 3097 1959 3097 
z
M 1959 3584 
Q 2709 3584 3137 3096 
Q 3566 2609 3566 1747 
Q 3566 888 3137 398 
Q 2709 -91 1959 -91 
Q 1206 -91 779 398 
Q 353 888 353 1747 
Q 353 2609 779 3096 
Q 1206 3584 1959 3584 
z
" transform="scale(0.015625)"/>
      <path id="DejaVuSans-66" d="M 2375 4863 
L 2375 4384 
L 1825 4384 
Q 1516 4384 1395 4259 
Q 1275 4134 1275 3809 
L 1275 3500 
L 2222 3500 
L 2222 3053 
L 1275 3053 
L 1275 0 
L 697 0 
L 697 3053 
L 147 3053 
L 147 3500 
L 697 3500 
L 697 3744 
Q 697 4328 969 4595 
Q 1241 4863 1831 4863 
L 2375 4863 
z
" transform="scale(0.015625)"/>
      <path id="DejaVuSans-41" d="M 2188 4044 
L 1331 1722 
L 3047 1722 
L 2188 4044 
z
M 1831 4666 
L 2547 4666 
L 4325 0 
L 3669 0 
L 3244 1197 
L 1141 1197 
L 716 0 
L 50 0 
L 1831 4666 
z
" transform="scale(0.015625)"/>
      <path id="DejaVuSans-45" d="M 628 4666 
L 3578 4666 
L 3578 4134 
L 1259 4134 
L 1259 2753 
L 3481 2753 
L 3481 2222 
L 1259 2222 
L 1259 531 
L 3634 531 
L 3634 0 
L 628 0 
L 628 4666 
z
" transform="scale(0.015625)"/>
      <path id="DejaVuSans-44" d="M 1259 4147 
L 1259 519 
L 2022 519 
Q 2988 519 3436 956 
Q 3884 1394 3884 2338 
Q 3884 3275 3436 3711 
Q 2988 4147 2022 4147 
L 1259 4147 
z
M 628 4666 
L 1925 4666 
Q 3281 4666 3915 4102 
Q 4550 3538 4550 2338 
Q 4550 1131 3912 565 
Q 3275 0 1925 0 
L 628 0 
L 628 4666 
z
" transform="scale(0.015625)"/>
      <path id="DejaVuSans-73" d="M 2834 3397 
L 2834 2853 
Q 2591 2978 2328 3040 
Q 2066 3103 1784 3103 
Q 1356 3103 1142 2972 
Q 928 2841 928 2578 
Q 928 2378 1081 2264 
Q 1234 2150 1697 2047 
L 1894 2003 
Q 2506 1872 2764 1633 
Q 3022 1394 3022 966 
Q 3022 478 2636 193 
Q 2250 -91 1575 -91 
Q 1294 -91 989 -36 
Q 684 19 347 128 
L 347 722 
Q 666 556 975 473 
Q 1284 391 1588 391 
Q 1994 391 2212 530 
Q 2431 669 2431 922 
Q 2431 1156 2273 1281 
Q 2116 1406 1581 1522 
L 1381 1569 
Q 847 1681 609 1914 
Q 372 2147 372 2553 
Q 372 3047 722 3315 
Q 1072 3584 1716 3584 
Q 2034 3584 2315 3537 
Q 2597 3491 2834 3397 
z
" transform="scale(0.015625)"/>
      <path id="DejaVuSans-69" d="M 603 3500 
L 1178 3500 
L 1178 0 
L 603 0 
L 603 3500 
z
M 603 4863 
L 1178 4863 
L 1178 4134 
L 603 4134 
L 603 4863 
z
" transform="scale(0.015625)"/>
      <path id="DejaVuSans-6e" d="M 3513 2113 
L 3513 0 
L 2938 0 
L 2938 2094 
Q 2938 2591 2744 2837 
Q 2550 3084 2163 3084 
Q 1697 3084 1428 2787 
Q 1159 2491 1159 1978 
L 1159 0 
L 581 0 
L 581 3500 
L 1159 3500 
L 1159 2956 
Q 1366 3272 1645 3428 
Q 1925 3584 2291 3584 
Q 2894 3584 3203 3211 
Q 3513 2838 3513 2113 
z
" transform="scale(0.015625)"/>
      <path id="DejaVuSans-74" d="M 1172 4494 
L 1172 3500 
L 2356 3500 
L 2356 3053 
L 1172 3053 
L 1172 1153 
Q 1172 725 1289 603 
Q 1406 481 1766 481 
L 2356 481 
L 2356 0 
L 1766 0 
Q 1100 0 847 248 
Q 594 497 594 1153 
L 594 3053 
L 172 3053 
L 172 3500 
L 594 3500 
L 594 4494 
L 1172 4494 
z
" transform="scale(0.015625)"/>
      <path id="DejaVuSans-68" d="M 3513 2113 
L 3513 0 
L 2938 0 
L 2938 2094 
Q 2938 2591 2744 2837 
Q 2550 3084 2163 3084 
Q 1697 3084 1428 2787 
Q 1159 2491 1159 1978 
L 1159 0 
L 581 0 
L 581 4863 
L 1159 4863 
L 1159 2956 
Q 1366 3272 1645 3428 
Q 1925 3584 2291 3584 
Q 2894 3584 3203 3211 
Q 3513 2838 3513 2113 
z
" transform="scale(0.015625)"/>
      <path id="DejaVuSans-4f" d="M 2522 4238 
Q 1834 4238 1429 3725 
Q 1025 3213 1025 2328 
Q 1025 1447 1429 934 
Q 1834 422 2522 422 
Q 3209 422 3611 934 
Q 4013 1447 4013 2328 
Q 4013 3213 3611 3725 
Q 3209 4238 2522 4238 
z
M 2522 4750 
Q 3503 4750 4090 4092 
Q 4678 3434 4678 2328 
Q 4678 1225 4090 567 
Q 3503 -91 2522 -91 
Q 1538 -91 948 565 
Q 359 1222 359 2328 
Q 359 3434 948 4092 
Q 1538 4750 2522 4750 
z
" transform="scale(0.015625)"/>
      <path id="DejaVuSans-70" d="M 1159 525 
L 1159 -1331 
L 581 -1331 
L 581 3500 
L 1159 3500 
L 1159 2969 
Q 1341 3281 1617 3432 
Q 1894 3584 2278 3584 
Q 2916 3584 3314 3078 
Q 3713 2572 3713 1747 
Q 3713 922 3314 415 
Q 2916 -91 2278 -91 
Q 1894 -91 1617 61 
Q 1341 213 1159 525 
z
M 3116 1747 
Q 3116 2381 2855 2742 
Q 2594 3103 2138 3103 
Q 1681 3103 1420 2742 
Q 1159 2381 1159 1747 
Q 1159 1113 1420 752 
Q 1681 391 2138 391 
Q 2594 391 2855 752 
Q 3116 1113 3116 1747 
z
" transform="scale(0.015625)"/>
      <path id="DejaVuSans-53" d="M 3425 4513 
L 3425 3897 
Q 3066 4069 2747 4153 
Q 2428 4238 2131 4238 
Q 1616 4238 1336 4038 
Q 1056 3838 1056 3469 
Q 1056 3159 1242 3001 
Q 1428 2844 1947 2747 
L 2328 2669 
Q 3034 2534 3370 2195 
Q 3706 1856 3706 1288 
Q 3706 609 3251 259 
Q 2797 -91 1919 -91 
Q 1588 -91 1214 -16 
Q 841 59 441 206 
L 441 856 
Q 825 641 1194 531 
Q 1563 422 1919 422 
Q 2459 422 2753 634 
Q 3047 847 3047 1241 
Q 3047 1584 2836 1778 
Q 2625 1972 2144 2069 
L 1759 2144 
Q 1053 2284 737 2584 
Q 422 2884 422 3419 
Q 422 4038 858 4394 
Q 1294 4750 2059 4750 
Q 2388 4750 2728 4690 
Q 3069 4631 3425 4513 
z
" transform="scale(0.015625)"/>
      <path id="DejaVuSans-4d" d="M 628 4666 
L 1569 4666 
L 2759 1491 
L 3956 4666 
L 4897 4666 
L 4897 0 
L 4281 0 
L 4281 4097 
L 3078 897 
L 2444 897 
L 1241 4097 
L 1241 0 
L 628 0 
L 628 4666 
z
" transform="scale(0.015625)"/>
      <path id="DejaVuSans-61" d="M 2194 1759 
Q 1497 1759 1228 1600 
Q 959 1441 959 1056 
Q 959 750 1161 570 
Q 1363 391 1709 391 
Q 2188 391 2477 730 
Q 2766 1069 2766 1631 
L 2766 1759 
L 2194 1759 
z
M 3341 1997 
L 3341 0 
L 2766 0 
L 2766 531 
Q 2569 213 2275 61 
Q 1981 -91 1556 -91 
Q 1019 -91 701 211 
Q 384 513 384 1019 
Q 384 1609 779 1909 
Q 1175 2209 1959 2209 
L 2766 2209 
L 2766 2266 
Q 2766 2663 2505 2880 
Q 2244 3097 1772 3097 
Q 1472 3097 1187 3025 
Q 903 2953 641 2809 
L 641 3341 
Q 956 3463 1253 3523 
Q 1550 3584 1831 3584 
Q 2591 3584 2966 3190 
Q 3341 2797 3341 1997 
z
" transform="scale(0.015625)"/>
      <path id="DejaVuSans-64" d="M 2906 2969 
L 2906 4863 
L 3481 4863 
L 3481 0 
L 2906 0 
L 2906 525 
Q 2725 213 2448 61 
Q 2172 -91 1784 -91 
Q 1150 -91 751 415 
Q 353 922 353 1747 
Q 353 2572 751 3078 
Q 1150 3584 1784 3584 
Q 2172 3584 2448 3432 
Q 2725 3281 2906 2969 
z
M 947 1747 
Q 947 1113 1208 752 
Q 1469 391 1925 391 
Q 2381 391 2643 752 
Q 2906 1113 2906 1747 
Q 2906 2381 2643 2742 
Q 2381 3103 1925 3103 
Q 1469 3103 1208 2742 
Q 947 2381 947 1747 
z
" transform="scale(0.015625)"/>
      <path id="DejaVuSans-50" d="M 1259 4147 
L 1259 2394 
L 2053 2394 
Q 2494 2394 2734 2622 
Q 2975 2850 2975 3272 
Q 2975 3691 2734 3919 
Q 2494 4147 2053 4147 
L 1259 4147 
z
M 628 4666 
L 2053 4666 
Q 2838 4666 3239 4311 
Q 3641 3956 3641 3272 
Q 3641 2581 3239 2228 
Q 2838 1875 2053 1875 
L 1259 1875 
L 1259 0 
L 628 0 
L 628 4666 
z
" transform="scale(0.015625)"/>
      <path id="DejaVuSans-6c" d="M 603 4863 
L 1178 4863 
L 1178 0 
L 603 0 
L 603 4863 
z
" transform="scale(0.015625)"/>
      <path id="DejaVuSans-2c" d="M 750 794 
L 1409 794 
L 1409 256 
L 897 -744 
L 494 -744 
L 750 256 
L 750 794 
z
" transform="scale(0.015625)"/>
      <path id="DejaVuSans-79" d="M 2059 -325 
Q 1816 -950 1584 -1140 
Q 1353 -1331 966 -1331 
L 506 -1331 
L 506 -850 
L 844 -850 
Q 1081 -850 1212 -737 
Q 1344 -625 1503 -206 
L 1606 56 
L 191 3500 
L 800 3500 
L 1894 763 
L 2988 3500 
L 3597 3500 
L 2059 -325 
z
" transform="scale(0.015625)"/>
      <path id="DejaVuSans-2e" d="M 684 794 
L 1344 794 
L 1344 0 
L 684 0 
L 684 794 
z
" transform="scale(0.015625)"/>
      <path id="DejaVuSans-3a" d="M 750 794 
L 1409 794 
L 1409 0 
L 750 0 
L 750 794 
z
M 750 3309 
L 1409 3309 
L 1409 2516 
L 750 2516 
L 750 3309 
z
" transform="scale(0.015625)"/>
     </defs>
     <use xlink:href="#DejaVuSans-4e"/>
     <use xlink:href="#DejaVuSans-75" x="74.804688"/>
     <use xlink:href="#DejaVuSans-6d" x="138.183594"/>
     <use xlink:href="#DejaVuSans-62" x="235.595703"/>
     <use xlink:href="#DejaVuSans-65" x="299.072266"/>
     <use xlink:href="#DejaVuSans-72" x="360.595703"/>
     <use xlink:href="#DejaVuSans-20" x="401.708984"/>
     <use xlink:href="#DejaVuSans-6f" x="433.496094"/>
     <use xlink:href="#DejaVuSans-66" x="494.677734"/>
     <use xlink:href="#DejaVuSans-20" x="529.882812"/>
     <use xlink:href="#DejaVuSans-41" x="561.669922"/>
     <use xlink:href="#DejaVuSans-45" x="630.078125"/>
     <use xlink:href="#DejaVuSans-44" x="693.261719"/>
     <use xlink:href="#DejaVuSans-73" x="770.263672"/>
     <use xlink:href="#DejaVuSans-20" x="822.363281"/>
     <use xlink:href="#DejaVuSans-69" x="854.150391"/>
     <use xlink:href="#DejaVuSans-6e" x="881.933594"/>
     <use xlink:href="#DejaVuSans-20" x="945.3125"/>
     <use xlink:href="#DejaVuSans-74" x="977.099609"/>
     <use xlink:href="#DejaVuSans-68" x="1016.308594"/>
     <use xlink:href="#DejaVuSans-65" x="1079.6875"/>
     <use xlink:href="#DejaVuSans-20" x="1141.210938"/>
     <use xlink:href="#DejaVuSans-4f" x="1172.998047"/>
     <use xlink:href="#DejaVuSans-70" x="1251.708984"/>
     <use xlink:href="#DejaVuSans-65" x="1315.185547"/>
     <use xlink:href="#DejaVuSans-6e" x="1376.708984"/>
     <use xlink:href="#DejaVuSans-53" x="1440.087891"/>
     <use xlink:href="#DejaVuSans-74" x="1503.564453"/>
     <use xlink:href="#DejaVuSans-72" x="1542.773438"/>
     <use xlink:href="#DejaVuSans-65" x="1581.636719"/>
     <use xlink:href="#DejaVuSans-65" x="1643.160156"/>
     <use xlink:href="#DejaVuSans-74" x="1704.683594"/>
     <use xlink:href="#DejaVuSans-4d" x="1743.892578"/>
     <use xlink:href="#DejaVuSans-61" x="1830.171875"/>
     <use xlink:href="#DejaVuSans-70" x="1891.451172"/>
     <use xlink:href="#DejaVuSans-20" x="1954.927734"/>
     <use xlink:href="#DejaVuSans-64" x="1986.714844"/>
     <use xlink:href="#DejaVuSans-61" x="2050.191406"/>
     <use xlink:href="#DejaVuSans-74" x="2111.470703"/>
     <use xlink:href="#DejaVuSans-61" x="2150.679688"/>
     <use xlink:href="#DejaVuSans-62" x="2211.958984"/>
     <use xlink:href="#DejaVuSans-61" x="2275.435547"/>
     <use xlink:href="#DejaVuSans-73" x="2336.714844"/>
     <use xlink:href="#DejaVuSans-65" x="2388.814453"/>
     <use xlink:href="#DejaVuSans-20" x="2450.337891"/>
     <use xlink:href="#DejaVuSans-69" x="2482.125"/>
     <use xlink:href="#DejaVuSans-6e" x="2509.908203"/>
     <use xlink:href="#DejaVuSans-20" x="2573.287109"/>
     <use xlink:href="#DejaVuSans-50" x="2605.074219"/>
     <use xlink:href="#DejaVuSans-6f" x="2661.751953"/>
     <use xlink:href="#DejaVuSans-6c" x="2722.933594"/>
     <use xlink:href="#DejaVuSans-61" x="2750.716797"/>
     <use xlink:href="#DejaVuSans-6e" x="2811.996094"/>
     <use xlink:href="#DejaVuSans-64" x="2875.375"/>
     <use xlink:href="#DejaVuSans-20" x="2938.851562"/>
     <use xlink:href="#DejaVuSans-66" x="2970.638672"/>
     <use xlink:href="#DejaVuSans-72" x="3005.84375"/>
     <use xlink:href="#DejaVuSans-6f" x="3044.707031"/>
     <use xlink:href="#DejaVuSans-6d" x="3105.888672"/>
     <use xlink:href="#DejaVuSans-20" x="3203.300781"/>
     <use xlink:href="#DejaVuSans-32" x="3235.087891"/>
     <use xlink:href="#DejaVuSans-30" x="3298.710938"/>
     <use xlink:href="#DejaVuSans-32" x="3362.333984"/>
     <use xlink:href="#DejaVuSans-36" x="3425.957031"/>
     <use xlink:href="#DejaVuSans-2d" x="3489.580078"/>
     <use xlink:href="#DejaVuSans-30" x="3525.664062"/>
     <use xlink:href="#DejaVuSans-31" x="3589.287109"/>
     <use xlink:href="#DejaVuSans-2d" x="3652.910156"/>
     <use xlink:href="#DejaVuSans-30" x="3688.994141"/>
     <use xlink:href="#DejaVuSans-31" x="3752.617188"/>
     <use xlink:href="#DejaVuSans-2c" x="3816.240234"/>
     <use xlink:href="#DejaVuSans-20" x="3848.027344"/>
     <use xlink:href="#DejaVuSans-64" x="3879.814453"/>
     <use xlink:href="#DejaVuSans-61" x="3943.291016"/>
     <use xlink:href="#DejaVuSans-79" x="4004.570312"/>
     <use xlink:href="#DejaVuSans-20" x="4063.75"/>
     <use xlink:href="#DejaVuSans-62" x="4095.537109"/>
     <use xlink:href="#DejaVuSans-79" x="4159.013672"/>
     <use xlink:href="#DejaVuSans-20" x="4218.193359"/>
     <use xlink:href="#DejaVuSans-64" x="4249.980469"/>
     <use xlink:href="#DejaVuSans-61" x="4313.457031"/>
     <use xlink:href="#DejaVuSans-79" x="4374.736328"/>
     <use xlink:href="#DejaVuSans-2e" x="4419.666016"/>
     <use xlink:href="#DejaVuSans-20" x="4451.453125"/>
     <use xlink:href="#DejaVuSans-41" x="4483.240234"/>
     <use xlink:href="#DejaVuSans-73" x="4551.648438"/>
     <use xlink:href="#DejaVuSans-20" x="4603.748047"/>
     <use xlink:href="#DejaVuSans-61" x="4635.535156"/>
     <use xlink:href="#DejaVuSans-74" x="4696.814453"/>
     <use xlink:href="#DejaVuSans-3a" x="4736.023438"/>
     <use xlink:href="#DejaVuSans-20" x="4769.714844"/>
     <use xlink:href="#DejaVuSans-32" x="4801.501953"/>
     <use xlink:href="#DejaVuSans-30" x="4865.125"/>
     <use xlink:href="#DejaVuSans-32" x="4928.748047"/>
     <use xlink:href="#DejaVuSans-36" x="4992.371094"/>
     <use xlink:href="#DejaVuSans-2d" x="5055.994141"/>
     <use xlink:href="#DejaVuSans-30" x="5092.078125"/>
     <use xlink:href="#DejaVuSans-33" x="5155.701172"/>
     <use xlink:href="#DejaVuSans-2d" x="5219.324219"/>
     <use xlink:href="#DejaVuSans-31" x="5255.408203"/>
     <use xlink:href="#DejaVuSans-33" x="5319.03125"/>
    </g>
   </g>
  </g>
 </g>
 <defs>
  <clipPath id="pb2d06cba20">
   <rect x="144" y="69.12" width="892.8" height="443.52"/>
  </clipPath>
 </defs>
</svg>
