<?xml version="1.0" encoding="utf-8" standalone="no"?>
<!DOCTYPE svg PUBLIC "-//W3C//DTD SVG 1.1//EN"
  "http://www.w3.org/Graphics/SVG/1.1/DTD/svg11.dtd">
<svg xmlns:xlink="http://www.w3.org/1999/xlink" width="1152pt" height="576pt" viewBox="0 0 1152 576" xmlns="http://www.w3.org/2000/svg" version="1.1">
 <metadata>
  <rdf:RDF xmlns:dc="http://purl.org/dc/elements/1.1/" xmlns:cc="http://creativecommons.org/ns#" xmlns:rdf="http://www.w3.org/1999/02/22-rdf-syntax-ns#">
   <cc:Work>
    <dc:type rdf:resource="http://purl.org/dc/dcmitype/StillImage"/>
    <dc:date>1980-01-01T00:00:00+00:00</dc:date>
    <dc:format>image/svg+xml</dc:format>
    <dc:creator>
     <cc:Agent>
      <dc:title>Matplotlib v3.9.1, https://matplotlib.org/</dc:title>
     </cc:Agent>
    </dc:creator>
   </cc:Work>
  </rdf:RDF>
 </metadata>
 <defs>
  <style type="text/css">*{stroke-linejoin: round; stroke-linecap: butt}</style>
 </defs>
 <g id="figure_1">
  <g id="patch_1">
   <path d="M 0 576 
L 1152 576 
L 1152 0 
L 0 0 
z
" style="fill: #ffffff"/>
  </g>
  <g id="axes_1">
   <g id="patch_2">
    <path d="M 144 512.64 
L 1036.8 512.64 
L 1036.8 69.12 
L 144 69.12 
z
" style="fill: #ffffff"/>
   </g>
   <g id="PathCollection_1">
    <path d="M 184.581818 496.352983 
C 185.608945 496.352983 186.594142 495.944901 187.320431 495.218613 
C 188.04672 494.492324 188.454802 493.507127 188.454802 492.48 
C 188.454802 491.452873 188.04672 490.467676 187.320431 489.741387 
C 186.594142 489.015099 185.608945 488.607017 184.581818 488.607017 
C 183.554691 488.607017 182.569494 489.015099 181.843205 489.741387 
C 181.116917 490.467676 180.708835 491.452873 180.708835 492.48 
C 180.708835 493.507127 181.116917 494.492324 181.843205 495.218613 
C 182.569494 495.944901 183.554691 496.352983 184.581818 496.352983 
z
" clip-path="url(#p6c685c96de)" style="fill: #1f77b4; fill-opacity: 0.3; stroke: #1f77b4; stroke-opacity: 0.3"/>
    <path d="M 196.879339 494.383445 
C 198.608252 494.383445 200.266585 493.696541 201.489111 492.474015 
C 202.711637 491.251489 203.398541 489.593155 203.398541 487.864242 
C 203.398541 486.13533 202.711637 484.476996 201.489111 483.25447 
C 200.266585 482.031944 198.608252 481.34504 196.879339 481.34504 
C 195.150426 481.34504 193.492092 482.031944 192.269567 483.25447 
C 191.047041 484.476996 190.360136 486.13533 190.360136 487.864242 
C 190.360136 489.593155 191.047041 491.251489 192.269567 492.474015 
C 193.492092 493.696541 195.150426 494.383445 196.879339 494.383445 
z
" clip-path="url(#p6c685c96de)" style="fill: #1f77b4; fill-opacity: 0.3; stroke: #1f77b4; stroke-opacity: 0.3"/>
    <path d="M 209.17686 488.628418 
C 211.395708 488.628418 213.523977 487.746861 215.092939 486.177898 
C 216.661902 484.608935 217.54346 482.480667 217.54346 480.261818 
C 217.54346 478.04297 216.661902 475.914701 215.092939 474.345738 
C 213.523977 472.776776 211.395708 471.895218 209.17686 471.895218 
C 206.958011 471.895218 204.829742 472.776776 203.26078 474.345738 
C 201.691817 475.914701 200.810259 478.04297 200.810259 480.261818 
C 200.810259 482.480667 201.691817 484.608935 203.26078 486.177898 
C 204.829742 487.746861 206.958011 488.628418 209.17686 488.628418 
z
" clip-path="url(#p6c685c96de)" style="fill: #1f77b4; fill-opacity: 0.3; stroke: #1f77b4; stroke-opacity: 0.3"/>
    <path d="M 221.47438 482.519196 
C 222.865117 482.519196 224.19908 481.96665 225.182479 480.983251 
C 226.165879 479.999851 226.718424 478.665888 226.718424 477.275152 
C 226.718424 475.884415 226.165879 474.550452 225.182479 473.567052 
C 224.19908 472.583653 222.865117 472.031107 221.47438 472.031107 
C 220.083643 472.031107 218.74968 472.583653 217.766281 473.567052 
C 216.782882 474.550452 216.230336 475.884415 216.230336 477.275152 
C 216.230336 478.665888 216.782882 479.999851 217.766281 480.983251 
C 218.74968 481.96665 220.083643 482.519196 221.47438 482.519196 
z
" clip-path="url(#p6c685c96de)" style="fill: #1f77b4; fill-opacity: 0.3; stroke: #1f77b4; stroke-opacity: 0.3"/>
    <path d="M 233.771901 479.45311 
C 234.709535 479.45311 235.608893 479.080584 236.271901 478.417576 
C 236.934909 477.754568 237.307435 476.85521 237.307435 475.917576 
C 237.307435 474.979941 236.934909 474.080584 236.271901 473.417576 
C 235.608893 472.754568 234.709535 472.382042 233.771901 472.382042 
C 232.834266 472.382042 231.934909 472.754568 231.271901 473.417576 
C 230.608893 474.080584 230.236367 474.979941 230.236367 475.917576 
C 230.236367 476.85521 230.608893 477.754568 231.271901 478.417576 
C 231.934909 479.080584 232.834266 479.45311 233.771901 479.45311 
z
" clip-path="url(#p6c685c96de)" style="fill: #1f77b4; fill-opacity: 0.3; stroke: #1f77b4; stroke-opacity: 0.3"/>
    <path d="M 246.069421 477.821021 
C 247.798334 477.821021 249.456668 477.134116 250.679194 475.91159 
C 251.90172 474.689065 252.588624 473.030731 252.588624 471.301818 
C 252.588624 469.572905 251.90172 467.914572 250.679194 466.692046 
C 249.456668 465.46952 247.798334 464.782616 246.069421 464.782616 
C 244.340509 464.782616 242.682175 465.46952 241.459649 466.692046 
C 240.237123 467.914572 239.550219 469.572905 239.550219 471.301818 
C 239.550219 473.030731 240.237123 474.689065 241.459649 475.91159 
C 242.682175 477.134116 244.340509 477.821021 246.069421 477.821021 
z
" clip-path="url(#p6c685c96de)" style="fill: #1f77b4; fill-opacity: 0.3; stroke: #1f77b4; stroke-opacity: 0.3"/>
    <path d="M 258.366942 473.282131 
C 260.044234 473.282131 261.653054 472.615736 262.839078 471.429712 
C 264.025102 470.243687 264.691497 468.634867 264.691497 466.957576 
C 264.691497 465.280284 264.025102 463.671464 262.839078 462.48544 
C 261.653054 461.299415 260.044234 460.63302 258.366942 460.63302 
C 256.68965 460.63302 255.080831 461.299415 253.894806 462.48544 
C 252.708782 463.671464 252.042387 465.280284 252.042387 466.957576 
C 252.042387 468.634867 252.708782 470.243687 253.894806 471.429712 
C 255.080831 472.615736 256.68965 473.282131 258.366942 473.282131 
z
" clip-path="url(#p6c685c96de)" style="fill: #1f77b4; fill-opacity: 0.3; stroke: #1f77b4; stroke-opacity: 0.3"/>
    <path d="M 270.664463 466.242694 
C 273.283134 466.242694 275.794903 465.202285 277.646583 463.350605 
C 279.498263 461.498925 280.538672 458.987156 280.538672 456.368485 
C 280.538672 453.749814 279.498263 451.238045 277.646583 449.386365 
C 275.794903 447.534685 273.283134 446.494276 270.664463 446.494276 
C 268.045792 446.494276 265.534023 447.534685 263.682343 449.386365 
C 261.830663 451.238045 260.790254 453.749814 260.790254 456.368485 
C 260.790254 458.987156 261.830663 461.498925 263.682343 463.350605 
C 265.534023 465.202285 268.045792 466.242694 270.664463 466.242694 
z
" clip-path="url(#p6c685c96de)" style="fill: #1f77b4; fill-opacity: 0.3; stroke: #1f77b4; stroke-opacity: 0.3"/>
    <path d="M 282.961983 458.00925 
C 284.837253 458.00925 286.635968 457.264197 287.961983 455.938182 
C 289.287999 454.612166 290.033051 452.813451 290.033051 450.938182 
C 290.033051 449.062913 289.287999 447.264197 287.961983 445.938182 
C 286.635968 444.612166 284.837253 443.867114 282.961983 443.867114 
C 281.086714 443.867114 279.287999 444.612166 277.961983 445.938182 
C 276.635968 447.264197 275.890916 449.062913 275.890916 450.938182 
C 275.890916 452.813451 276.635968 454.612166 277.961983 455.938182 
C 279.287999 457.264197 281.086714 458.00925 282.961983 458.00925 
z
" clip-path="url(#p6c685c96de)" style="fill: #1f77b4; fill-opacity: 0.3; stroke: #1f77b4; stroke-opacity: 0.3"/>
    <path d="M 295.259504 453.22303 
C 296.58552 453.22303 297.857403 452.696199 298.795038 451.758564 
C 299.732673 450.82093 300.259504 449.549046 300.259504 448.22303 
C 300.259504 446.897015 299.732673 445.625131 298.795038 444.687496 
C 297.857403 443.749862 296.58552 443.22303 295.259504 443.22303 
C 293.933489 443.22303 292.661605 443.749862 291.72397 444.687496 
C 290.786336 445.625131 290.259504 446.897015 290.259504 448.22303 
C 290.259504 449.549046 290.786336 450.82093 291.72397 451.758564 
C 292.661605 452.696199 293.933489 453.22303 295.259504 453.22303 
z
" clip-path="url(#p6c685c96de)" style="fill: #1f77b4; fill-opacity: 0.3; stroke: #1f77b4; stroke-opacity: 0.3"/>
    <path d="M 307.557025 449.916068 
C 308.150037 449.916068 308.718841 449.680462 309.138164 449.261139 
C 309.557487 448.841816 309.793093 448.273012 309.793093 447.68 
C 309.793093 447.086988 309.557487 446.518184 309.138164 446.098861 
C 308.718841 445.679538 308.150037 445.443932 307.557025 445.443932 
C 306.964013 445.443932 306.395209 445.679538 305.975886 446.098861 
C 305.556563 446.518184 305.320957 447.086988 305.320957 447.68 
C 305.320957 448.273012 305.556563 448.841816 305.975886 449.261139 
C 306.395209 449.680462 306.964013 449.916068 307.557025 449.916068 
z
" clip-path="url(#p6c685c96de)" style="fill: #1f77b4; fill-opacity: 0.3; stroke: #1f77b4; stroke-opacity: 0.3"/>
    <path d="M 319.854545 446.819394 
C 322.506576 446.819394 325.050344 445.765731 326.925613 443.890462 
C 328.800882 442.015193 329.854545 439.471425 329.854545 436.819394 
C 329.854545 434.167363 328.800882 431.623595 326.925613 429.748326 
C 325.050344 427.873057 322.506576 426.819394 319.854545 426.819394 
C 317.202514 426.819394 314.658747 427.873057 312.783478 429.748326 
C 310.908209 431.623595 309.854545 434.167363 309.854545 436.819394 
C 309.854545 439.471425 310.908209 442.015193 312.783478 443.890462 
C 314.658747 445.765731 317.202514 446.819394 319.854545 446.819394 
z
" clip-path="url(#p6c685c96de)" style="fill: #1f77b4; fill-opacity: 0.3; stroke: #1f77b4; stroke-opacity: 0.3"/>
    <path d="M 332.152066 437.937209 
C 334.248681 437.937209 336.259706 437.104215 337.742236 435.621685 
C 339.224766 434.139155 340.05776 432.12813 340.05776 430.031515 
C 340.05776 427.934901 339.224766 425.923876 337.742236 424.441345 
C 336.259706 422.958815 334.248681 422.125821 332.152066 422.125821 
C 330.055452 422.125821 328.044427 422.958815 326.561896 424.441345 
C 325.079366 425.923876 324.246372 427.934901 324.246372 430.031515 
C 324.246372 432.12813 325.079366 434.139155 326.561896 435.621685 
C 328.044427 437.104215 330.055452 437.937209 332.152066 437.937209 
z
" clip-path="url(#p6c685c96de)" style="fill: #1f77b4; fill-opacity: 0.3; stroke: #1f77b4; stroke-opacity: 0.3"/>
    <path d="M 344.449587 432.202695 
C 345.961477 432.202695 347.411648 431.602015 348.480716 430.532947 
C 349.549784 429.463879 350.150464 428.013708 350.150464 426.501818 
C 350.150464 424.989928 349.549784 423.539757 348.480716 422.470689 
C 347.411648 421.401621 345.961477 420.800941 344.449587 420.800941 
C 342.937696 420.800941 341.487526 421.401621 340.418458 422.470689 
C 339.34939 423.539757 338.74871 424.989928 338.74871 426.501818 
C 338.74871 428.013708 339.34939 429.463879 340.418458 430.532947 
C 341.487526 431.602015 342.937696 432.202695 344.449587 432.202695 
z
" clip-path="url(#p6c685c96de)" style="fill: #1f77b4; fill-opacity: 0.3; stroke: #1f77b4; stroke-opacity: 0.3"/>
    <path d="M 356.747107 426.757605 
C 359.119156 426.757605 361.394371 425.81518 363.071663 424.137889 
C 364.748954 422.460597 365.691379 420.185382 365.691379 417.813333 
C 365.691379 415.441285 364.748954 413.16607 363.071663 411.488778 
C 361.394371 409.811486 359.119156 408.869061 356.747107 408.869061 
C 354.375059 408.869061 352.099844 409.811486 350.422552 411.488778 
C 348.74526 413.16607 347.802836 415.441285 347.802836 417.813333 
C 347.802836 420.185382 348.74526 422.460597 350.422552 424.137889 
C 352.099844 425.81518 354.375059 426.757605 356.747107 426.757605 
z
" clip-path="url(#p6c685c96de)" style="fill: #1f77b4; fill-opacity: 0.3; stroke: #1f77b4; stroke-opacity: 0.3"/>
    <path d="M 369.044628 416.506402 
C 371.794312 416.506402 374.431747 415.413941 376.376067 413.469621 
C 378.320388 411.525301 379.412849 408.887866 379.412849 406.138182 
C 379.412849 403.388498 378.320388 400.751063 376.376067 398.806743 
C 374.431747 396.862422 371.794312 395.769961 369.044628 395.769961 
C 366.294944 395.769961 363.657509 396.862422 361.713189 398.806743 
C 359.768869 400.751063 358.676407 403.388498 358.676407 406.138182 
C 358.676407 408.887866 359.768869 411.525301 361.713189 413.469621 
C 363.657509 415.413941 366.294944 416.506402 369.044628 416.506402 
z
" clip-path="url(#p6c685c96de)" style="fill: #1f77b4; fill-opacity: 0.3; stroke: #1f77b4; stroke-opacity: 0.3"/>
    <path d="M 381.342149 408.214399 
C 382.180795 408.214399 382.985205 407.881201 383.578217 407.288189 
C 384.171229 406.695177 384.504426 405.890767 384.504426 405.052121 
C 384.504426 404.213475 384.171229 403.409065 383.578217 402.816053 
C 382.985205 402.223041 382.180795 401.889844 381.342149 401.889844 
C 380.503503 401.889844 379.699093 402.223041 379.106081 402.816053 
C 378.513069 403.409065 378.179871 404.213475 378.179871 405.052121 
C 378.179871 405.890767 378.513069 406.695177 379.106081 407.288189 
C 379.699093 407.881201 380.503503 408.214399 381.342149 408.214399 
z
" clip-path="url(#p6c685c96de)" style="fill: #1f77b4; fill-opacity: 0.3; stroke: #1f77b4; stroke-opacity: 0.3"/>
    <path d="M 393.639669 407.309499 
C 395.030406 407.309499 396.364369 406.756953 397.347769 405.773554 
C 398.331168 404.790154 398.883714 403.456191 398.883714 402.065455 
C 398.883714 400.674718 398.331168 399.340755 397.347769 398.357355 
C 396.364369 397.373956 395.030406 396.82141 393.639669 396.82141 
C 392.248933 396.82141 390.91497 397.373956 389.93157 398.357355 
C 388.948171 399.340755 388.395625 400.674718 388.395625 402.065455 
C 388.395625 403.456191 388.948171 404.790154 389.93157 405.773554 
C 390.91497 406.756953 392.248933 407.309499 393.639669 407.309499 
z
" clip-path="url(#p6c685c96de)" style="fill: #1f77b4; fill-opacity: 0.3; stroke: #1f77b4; stroke-opacity: 0.3"/>
    <path d="M 405.93719 402.950384 
C 408.116056 402.950384 410.205974 402.084711 411.746665 400.54402 
C 413.287356 399.00333 414.153028 396.913411 414.153028 394.734545 
C 414.153028 392.55568 413.287356 390.465761 411.746665 388.92507 
C 410.205974 387.38438 408.116056 386.518707 405.93719 386.518707 
C 403.758324 386.518707 401.668406 387.38438 400.127715 388.92507 
C 398.587024 390.465761 397.721352 392.55568 397.721352 394.734545 
C 397.721352 396.913411 398.587024 399.00333 400.127715 400.54402 
C 401.668406 402.084711 403.758324 402.950384 405.93719 402.950384 
z
" clip-path="url(#p6c685c96de)" style="fill: #1f77b4; fill-opacity: 0.3; stroke: #1f77b4; stroke-opacity: 0.3"/>
    <path d="M 418.234711 396.953589 
C 419.687288 396.953589 421.080567 396.376474 422.107694 395.349347 
C 423.134821 394.32222 423.711936 392.928941 423.711936 391.476364 
C 423.711936 390.023786 423.134821 388.630507 422.107694 387.60338 
C 421.080567 386.576253 419.687288 385.999138 418.234711 385.999138 
C 416.782134 385.999138 415.388855 386.576253 414.361727 387.60338 
C 413.3346 388.630507 412.757485 390.023786 412.757485 391.476364 
C 412.757485 392.928941 413.3346 394.32222 414.361727 395.349347 
C 415.388855 396.376474 416.782134 396.953589 418.234711 396.953589 
z
" clip-path="url(#p6c685c96de)" style="fill: #1f77b4; fill-opacity: 0.3; stroke: #1f77b4; stroke-opacity: 0.3"/>
    <path d="M 430.532231 389.080946 
C 433.497292 389.080946 436.341311 387.902915 438.437926 385.8063 
C 440.53454 383.709686 441.712571 380.865667 441.712571 377.900606 
C 441.712571 374.935545 440.53454 372.091527 438.437926 369.994912 
C 436.341311 367.898297 433.497292 366.720266 430.532231 366.720266 
C 427.567171 366.720266 424.723152 367.898297 422.626537 369.994912 
C 420.529923 372.091527 419.351892 374.935545 419.351892 377.900606 
C 419.351892 380.865667 420.529923 383.709686 422.626537 385.8063 
C 424.723152 387.902915 427.567171 389.080946 430.532231 389.080946 
z
" clip-path="url(#p6c685c96de)" style="fill: #1f77b4; fill-opacity: 0.3; stroke: #1f77b4; stroke-opacity: 0.3"/>
    <path d="M 442.829752 378.785535 
C 445.008618 378.785535 447.098536 377.919863 448.639227 376.379172 
C 450.179918 374.838481 451.04559 372.748563 451.04559 370.569697 
C 451.04559 368.390831 450.179918 366.300913 448.639227 364.760222 
C 447.098536 363.219531 445.008618 362.353859 442.829752 362.353859 
C 440.650886 362.353859 438.560968 363.219531 437.020277 364.760222 
C 435.479586 366.300913 434.613914 368.390831 434.613914 370.569697 
C 434.613914 372.748563 435.479586 374.838481 437.020277 376.379172 
C 438.560968 377.919863 440.650886 378.785535 442.829752 378.785535 
z
" clip-path="url(#p6c685c96de)" style="fill: #1f77b4; fill-opacity: 0.3; stroke: #1f77b4; stroke-opacity: 0.3"/>
    <path d="M 455.127273 371.7993 
C 457.181527 371.7993 459.151921 370.983136 460.604498 369.530559 
C 462.057076 368.077982 462.873239 366.107588 462.873239 364.053333 
C 462.873239 361.999079 462.057076 360.028685 460.604498 358.576108 
C 459.151921 357.123531 457.181527 356.307367 455.127273 356.307367 
C 453.073018 356.307367 451.102624 357.123531 449.650047 358.576108 
C 448.19747 360.028685 447.381306 361.999079 447.381306 364.053333 
C 447.381306 366.107588 448.19747 368.077982 449.650047 369.530559 
C 451.102624 370.983136 453.073018 371.7993 455.127273 371.7993 
z
" clip-path="url(#p6c685c96de)" style="fill: #1f77b4; fill-opacity: 0.3; stroke: #1f77b4; stroke-opacity: 0.3"/>
    <path d="M 467.424793 364.694087 
C 469.682916 364.694087 471.848857 363.796925 473.445591 362.200191 
C 475.042325 360.603457 475.939487 358.437517 475.939487 356.179394 
C 475.939487 353.921271 475.042325 351.755331 473.445591 350.158597 
C 471.848857 348.561863 469.682916 347.664701 467.424793 347.664701 
C 465.16667 347.664701 463.00073 348.561863 461.403996 350.158597 
C 459.807262 351.755331 458.9101 353.921271 458.9101 356.179394 
C 458.9101 358.437517 459.807262 360.603457 461.403996 362.200191 
C 463.00073 363.796925 465.16667 364.694087 467.424793 364.694087 
z
" clip-path="url(#p6c685c96de)" style="fill: #1f77b4; fill-opacity: 0.3; stroke: #1f77b4; stroke-opacity: 0.3"/>
    <path d="M 479.722314 358.255611 
C 480.56096 358.255611 481.36537 357.922413 481.958382 357.329401 
C 482.551394 356.736389 482.884592 355.931979 482.884592 355.093333 
C 482.884592 354.254687 482.551394 353.450278 481.958382 352.857265 
C 481.36537 352.264253 480.56096 351.931056 479.722314 351.931056 
C 478.883668 351.931056 478.079258 352.264253 477.486246 352.857265 
C 476.893234 353.450278 476.560036 354.254687 476.560036 355.093333 
C 476.560036 355.931979 476.893234 356.736389 477.486246 357.329401 
C 478.079258 357.922413 478.883668 358.255611 479.722314 358.255611 
z
" clip-path="url(#p6c685c96de)" style="fill: #1f77b4; fill-opacity: 0.3; stroke: #1f77b4; stroke-opacity: 0.3"/>
    <path d="M 492.019835 357.16955 
C 492.858481 357.16955 493.662891 356.836353 494.255903 356.243341 
C 494.848915 355.650329 495.182112 354.845919 495.182112 354.007273 
C 495.182112 353.168627 494.848915 352.364217 494.255903 351.771205 
C 493.662891 351.178193 492.858481 350.844995 492.019835 350.844995 
C 491.181189 350.844995 490.376779 351.178193 489.783767 351.771205 
C 489.190755 352.364217 488.857557 353.168627 488.857557 354.007273 
C 488.857557 354.845919 489.190755 355.650329 489.783767 356.243341 
C 490.376779 356.836353 491.181189 357.16955 492.019835 357.16955 
z
" clip-path="url(#p6c685c96de)" style="fill: #1f77b4; fill-opacity: 0.3; stroke: #1f77b4; stroke-opacity: 0.3"/>
    <path d="M 504.317355 353.578904 
C 506.867997 353.578904 509.314515 352.565523 511.118091 350.761947 
C 512.921667 348.958371 513.935047 346.511854 513.935047 343.961212 
C 513.935047 341.41057 512.921667 338.964053 511.118091 337.160477 
C 509.314515 335.356901 506.867997 334.34352 504.317355 334.34352 
C 501.766714 334.34352 499.320196 335.356901 497.51662 337.160477 
C 495.713044 338.964053 494.699663 341.41057 494.699663 343.961212 
C 494.699663 346.511854 495.713044 348.958371 497.51662 350.761947 
C 499.320196 352.565523 501.766714 353.578904 504.317355 353.578904 
z
" clip-path="url(#p6c685c96de)" style="fill: #1f77b4; fill-opacity: 0.3; stroke: #1f77b4; stroke-opacity: 0.3"/>
    <path d="M 516.614876 341.565794 
C 519.579937 341.565794 522.423956 340.387763 524.52057 338.291149 
C 526.617185 336.194534 527.795216 333.350515 527.795216 330.385455 
C 527.795216 327.420394 526.617185 324.576375 524.52057 322.47976 
C 522.423956 320.383146 519.579937 319.205115 516.614876 319.205115 
C 513.649815 319.205115 510.805796 320.383146 508.709182 322.47976 
C 506.612567 324.576375 505.434536 327.420394 505.434536 330.385455 
C 505.434536 333.350515 506.612567 336.194534 508.709182 338.291149 
C 510.805796 340.387763 513.649815 341.565794 516.614876 341.565794 
z
" clip-path="url(#p6c685c96de)" style="fill: #1f77b4; fill-opacity: 0.3; stroke: #1f77b4; stroke-opacity: 0.3"/>
    <path d="M 528.912397 330.641242 
C 531.284445 330.641242 533.55966 329.698817 535.236952 328.021525 
C 536.914244 326.344233 537.856669 324.069018 537.856669 321.69697 
C 537.856669 319.324921 536.914244 317.049706 535.236952 315.372414 
C 533.55966 313.695123 531.284445 312.752698 528.912397 312.752698 
C 526.540348 312.752698 524.265133 313.695123 522.587841 315.372414 
C 520.91055 317.049706 519.968125 319.324921 519.968125 321.69697 
C 519.968125 324.069018 520.91055 326.344233 522.587841 328.021525 
C 524.265133 329.698817 526.540348 330.641242 528.912397 330.641242 
z
" clip-path="url(#p6c685c96de)" style="fill: #1f77b4; fill-opacity: 0.3; stroke: #1f77b4; stroke-opacity: 0.3"/>
    <path d="M 541.209917 322.581899 
C 543.388783 322.581899 545.478702 321.716226 547.019392 320.175536 
C 548.560083 318.634845 549.425756 316.544926 549.425756 314.366061 
C 549.425756 312.187195 548.560083 310.097276 547.019392 308.556586 
C 545.478702 307.015895 543.388783 306.150222 541.209917 306.150222 
C 539.031052 306.150222 536.941133 307.015895 535.400442 308.556586 
C 533.859752 310.097276 532.994079 312.187195 532.994079 314.366061 
C 532.994079 316.544926 533.859752 318.634845 535.400442 320.175536 
C 536.941133 321.716226 539.031052 322.581899 541.209917 322.581899 
z
" clip-path="url(#p6c685c96de)" style="fill: #1f77b4; fill-opacity: 0.3; stroke: #1f77b4; stroke-opacity: 0.3"/>
    <path d="M 553.507438 316.442278 
C 554.346084 316.442278 555.150494 316.10908 555.743506 315.516068 
C 556.336518 314.923056 556.669716 314.118646 556.669716 313.28 
C 556.669716 312.441354 556.336518 311.636944 555.743506 311.043932 
C 555.150494 310.45092 554.346084 310.117722 553.507438 310.117722 
C 552.668792 310.117722 551.864382 310.45092 551.27137 311.043932 
C 550.678358 311.636944 550.34516 312.441354 550.34516 313.28 
C 550.34516 314.118646 550.678358 314.923056 551.27137 315.516068 
C 551.864382 316.10908 552.668792 316.442278 553.507438 316.442278 
z
" clip-path="url(#p6c685c96de)" style="fill: #1f77b4; fill-opacity: 0.3; stroke: #1f77b4; stroke-opacity: 0.3"/>
    <path d="M 565.804959 315.537378 
C 567.195695 315.537378 568.529659 314.984832 569.513058 314.001433 
C 570.496457 313.018033 571.049003 311.68407 571.049003 310.293333 
C 571.049003 308.902597 570.496457 307.568634 569.513058 306.585234 
C 568.529659 305.601835 567.195695 305.049289 565.804959 305.049289 
C 564.414222 305.049289 563.080259 305.601835 562.096859 306.585234 
C 561.11346 307.568634 560.560914 308.902597 560.560914 310.293333 
C 560.560914 311.68407 561.11346 313.018033 562.096859 314.001433 
C 563.080259 314.984832 564.414222 315.537378 565.804959 315.537378 
z
" clip-path="url(#p6c685c96de)" style="fill: #1f77b4; fill-opacity: 0.3; stroke: #1f77b4; stroke-opacity: 0.3"/>
    <path d="M 578.102479 311.934098 
C 579.977748 311.934098 581.776464 311.189046 583.102479 309.86303 
C 584.428495 308.537015 585.173547 306.738299 585.173547 304.86303 
C 585.173547 302.987761 584.428495 301.189046 583.102479 299.86303 
C 581.776464 298.537015 579.977748 297.791962 578.102479 297.791962 
C 576.22721 297.791962 574.428495 298.537015 573.102479 299.86303 
C 571.776464 301.189046 571.031412 302.987761 571.031412 304.86303 
C 571.031412 306.738299 571.776464 308.537015 573.102479 309.86303 
C 574.428495 311.189046 576.22721 311.934098 578.102479 311.934098 
z
" clip-path="url(#p6c685c96de)" style="fill: #1f77b4; fill-opacity: 0.3; stroke: #1f77b4; stroke-opacity: 0.3"/>
    <path d="M 590.4 306.092633 
C 592.454254 306.092633 594.424648 305.276469 595.877226 303.823892 
C 597.329803 302.371315 598.145967 300.400921 598.145967 298.346667 
C 598.145967 296.292412 597.329803 294.322018 595.877226 292.869441 
C 594.424648 291.416864 592.454254 290.6007 590.4 290.6007 
C 588.345746 290.6007 586.375352 291.416864 584.922774 292.869441 
C 583.470197 294.322018 582.654033 296.292412 582.654033 298.346667 
C 582.654033 300.400921 583.470197 302.371315 584.922774 303.823892 
C 586.375352 305.276469 588.345746 306.092633 590.4 306.092633 
z
" clip-path="url(#p6c685c96de)" style="fill: #1f77b4; fill-opacity: 0.3; stroke: #1f77b4; stroke-opacity: 0.3"/>
    <path d="M 602.697521 300.646681 
C 603.883545 300.646681 605.021152 300.175469 605.859798 299.336823 
C 606.698444 298.498177 607.169657 297.36057 607.169657 296.174545 
C 607.169657 294.988521 606.698444 293.850914 605.859798 293.012268 
C 605.021152 292.173622 603.883545 291.702409 602.697521 291.702409 
C 601.511496 291.702409 600.373889 292.173622 599.535243 293.012268 
C 598.696597 293.850914 598.225385 294.988521 598.225385 296.174545 
C 598.225385 297.36057 598.696597 298.498177 599.535243 299.336823 
C 600.373889 300.175469 601.511496 300.646681 602.697521 300.646681 
z
" clip-path="url(#p6c685c96de)" style="fill: #1f77b4; fill-opacity: 0.3; stroke: #1f77b4; stroke-opacity: 0.3"/>
    <path d="M 614.995041 296.938721 
C 617.21389 296.938721 619.342158 296.057164 620.911121 294.488201 
C 622.480084 292.919238 623.361642 290.79097 623.361642 288.572121 
C 623.361642 286.353273 622.480084 284.225004 620.911121 282.656041 
C 619.342158 281.087079 617.21389 280.205521 614.995041 280.205521 
C 612.776193 280.205521 610.647924 281.087079 609.078962 282.656041 
C 607.509999 284.225004 606.628441 286.353273 606.628441 288.572121 
C 606.628441 290.79097 607.509999 292.919238 609.078962 294.488201 
C 610.647924 296.057164 612.776193 296.938721 614.995041 296.938721 
z
" clip-path="url(#p6c685c96de)" style="fill: #1f77b4; fill-opacity: 0.3; stroke: #1f77b4; stroke-opacity: 0.3"/>
    <path d="M 627.292562 290.475566 
C 629.021475 290.475566 630.679808 289.788662 631.902334 288.566136 
C 633.12486 287.34361 633.811764 285.685276 633.811764 283.956364 
C 633.811764 282.227451 633.12486 280.569117 631.902334 279.346591 
C 630.679808 278.124066 629.021475 277.437161 627.292562 277.437161 
C 625.563649 277.437161 623.905316 278.124066 622.68279 279.346591 
C 621.460264 280.569117 620.77336 282.227451 620.77336 283.956364 
C 620.77336 285.685276 621.460264 287.34361 622.68279 288.566136 
C 623.905316 289.788662 625.563649 290.475566 627.292562 290.475566 
z
" clip-path="url(#p6c685c96de)" style="fill: #1f77b4; fill-opacity: 0.3; stroke: #1f77b4; stroke-opacity: 0.3"/>
    <path d="M 639.590083 286.213741 
C 640.980819 286.213741 642.314782 285.661196 643.298182 284.677796 
C 644.281581 283.694397 644.834127 282.360434 644.834127 280.969697 
C 644.834127 279.57896 644.281581 278.244997 643.298182 277.261598 
C 642.314782 276.278198 640.980819 275.725653 639.590083 275.725653 
C 638.199346 275.725653 636.865383 276.278198 635.881983 277.261598 
C 634.898584 278.244997 634.346038 279.57896 634.346038 280.969697 
C 634.346038 282.360434 634.898584 283.694397 635.881983 284.677796 
C 636.865383 285.661196 638.199346 286.213741 639.590083 286.213741 
z
" clip-path="url(#p6c685c96de)" style="fill: #1f77b4; fill-opacity: 0.3; stroke: #1f77b4; stroke-opacity: 0.3"/>
    <path d="M 651.887603 280.254815 
C 654.506274 280.254815 657.018043 279.214406 658.869723 277.362726 
C 660.721403 275.511046 661.761812 272.999277 661.761812 270.380606 
C 661.761812 267.761935 660.721403 265.250166 658.869723 263.398486 
C 657.018043 261.546806 654.506274 260.506397 651.887603 260.506397 
C 649.268933 260.506397 646.757163 261.546806 644.905483 263.398486 
C 643.053803 265.250166 642.013394 267.761935 642.013394 270.380606 
C 642.013394 272.999277 643.053803 275.511046 644.905483 277.362726 
C 646.757163 279.214406 649.268933 280.254815 651.887603 280.254815 
z
" clip-path="url(#p6c685c96de)" style="fill: #1f77b4; fill-opacity: 0.3; stroke: #1f77b4; stroke-opacity: 0.3"/>
    <path d="M 664.185124 272.59965 
C 665.637701 272.59965 667.03098 272.022535 668.058107 270.995408 
C 669.085235 269.96828 669.66235 268.575001 669.66235 267.122424 
C 669.66235 265.669847 669.085235 264.276568 668.058107 263.249441 
C 667.03098 262.222314 665.637701 261.645199 664.185124 261.645199 
C 662.732547 261.645199 661.339268 262.222314 660.312141 263.249441 
C 659.285013 264.276568 658.707898 265.669847 658.707898 267.122424 
C 658.707898 268.575001 659.285013 269.96828 660.312141 270.995408 
C 661.339268 272.022535 662.732547 272.59965 664.185124 272.59965 
z
" clip-path="url(#p6c685c96de)" style="fill: #1f77b4; fill-opacity: 0.3; stroke: #1f77b4; stroke-opacity: 0.3"/>
    <path d="M 676.482645 267.110454 
C 678.927696 267.110454 681.272934 266.139024 683.001847 264.410111 
C 684.73076 262.681199 685.702189 260.335961 685.702189 257.890909 
C 685.702189 255.445857 684.73076 253.100619 683.001847 251.371707 
C 681.272934 249.642794 678.927696 248.671365 676.482645 248.671365 
C 674.037593 248.671365 671.692355 249.642794 669.963442 251.371707 
C 668.23453 253.100619 667.2631 255.445857 667.2631 257.890909 
C 667.2631 260.335961 668.23453 262.681199 669.963442 264.410111 
C 671.692355 266.139024 674.037593 267.110454 676.482645 267.110454 
z
" clip-path="url(#p6c685c96de)" style="fill: #1f77b4; fill-opacity: 0.3; stroke: #1f77b4; stroke-opacity: 0.3"/>
    <path d="M 688.780165 259.531674 
C 690.655434 259.531674 692.45415 258.786622 693.780165 257.460606 
C 695.106181 256.134591 695.851233 254.335875 695.851233 252.460606 
C 695.851233 250.585337 695.106181 248.786622 693.780165 247.460606 
C 692.45415 246.134591 690.655434 245.389538 688.780165 245.389538 
C 686.904896 245.389538 685.106181 246.134591 683.780165 247.460606 
C 682.45415 248.786622 681.709097 250.585337 681.709097 252.460606 
C 681.709097 254.335875 682.45415 256.134591 683.780165 257.460606 
C 685.106181 258.786622 686.904896 259.531674 688.780165 259.531674 
z
" clip-path="url(#p6c685c96de)" style="fill: #1f77b4; fill-opacity: 0.3; stroke: #1f77b4; stroke-opacity: 0.3"/>
    <path d="M 701.077686 254.67965 
C 702.530263 254.67965 703.923542 254.102535 704.950669 253.075408 
C 705.977796 252.04828 706.554912 250.655001 706.554912 249.202424 
C 706.554912 247.749847 705.977796 246.356568 704.950669 245.329441 
C 703.923542 244.302314 702.530263 243.725199 701.077686 243.725199 
C 699.625109 243.725199 698.23183 244.302314 697.204703 245.329441 
C 696.177575 246.356568 695.60046 247.749847 695.60046 249.202424 
C 695.60046 250.655001 696.177575 252.04828 697.204703 253.075408 
C 698.23183 254.102535 699.625109 254.67965 701.077686 254.67965 
z
" clip-path="url(#p6c685c96de)" style="fill: #1f77b4; fill-opacity: 0.3; stroke: #1f77b4; stroke-opacity: 0.3"/>
    <path d="M 713.375207 250.843189 
C 715.250476 250.843189 717.049191 250.098137 718.375207 248.772121 
C 719.701222 247.446106 720.446274 245.64739 720.446274 243.772121 
C 720.446274 241.896852 719.701222 240.098137 718.375207 238.772121 
C 717.049191 237.446106 715.250476 236.701053 713.375207 236.701053 
C 711.499938 236.701053 709.701222 237.446106 708.375207 238.772121 
C 707.049191 240.098137 706.304139 241.896852 706.304139 243.772121 
C 706.304139 245.64739 707.049191 247.446106 708.375207 248.772121 
C 709.701222 250.098137 711.499938 250.843189 713.375207 250.843189 
z
" clip-path="url(#p6c685c96de)" style="fill: #1f77b4; fill-opacity: 0.3; stroke: #1f77b4; stroke-opacity: 0.3"/>
    <path d="M 725.672727 246.071901 
C 726.930696 246.071901 728.137311 245.572105 729.026829 244.682587 
C 729.916347 243.793069 730.416144 242.586454 730.416144 241.328485 
C 730.416144 240.070516 729.916347 238.863901 729.026829 237.974383 
C 728.137311 237.084865 726.930696 236.585068 725.672727 236.585068 
C 724.414759 236.585068 723.208144 237.084865 722.318625 237.974383 
C 721.429107 238.863901 720.929311 240.070516 720.929311 241.328485 
C 720.929311 242.586454 721.429107 243.793069 722.318625 244.682587 
C 723.208144 245.572105 724.414759 246.071901 725.672727 246.071901 
z
" clip-path="url(#p6c685c96de)" style="fill: #1f77b4; fill-opacity: 0.3; stroke: #1f77b4; stroke-opacity: 0.3"/>
    <path d="M 737.970248 240.900116 
C 740.52089 240.900116 742.967407 239.886736 744.770983 238.083159 
C 746.574559 236.279583 747.58794 233.833066 747.58794 231.282424 
C 747.58794 228.731783 746.574559 226.285265 744.770983 224.481689 
C 742.967407 222.678113 740.52089 221.664732 737.970248 221.664732 
C 735.419606 221.664732 732.973089 222.678113 731.169513 224.481689 
C 729.365937 226.285265 728.352556 228.731783 728.352556 231.282424 
C 728.352556 233.833066 729.365937 236.279583 731.169513 238.083159 
C 732.973089 239.886736 735.419606 240.900116 737.970248 240.900116 
z
" clip-path="url(#p6c685c96de)" style="fill: #1f77b4; fill-opacity: 0.3; stroke: #1f77b4; stroke-opacity: 0.3"/>
    <path d="M 750.267769 229.046154 
C 753.203029 229.046154 756.018464 227.879962 758.094007 225.80442 
C 760.169549 223.728877 761.33574 220.913442 761.33574 217.978182 
C 761.33574 215.042921 760.169549 212.227486 758.094007 210.151944 
C 756.018464 208.076401 753.203029 206.91021 750.267769 206.91021 
C 747.332508 206.91021 744.517073 208.076401 742.441531 210.151944 
C 740.365988 212.227486 739.199797 215.042921 739.199797 217.978182 
C 739.199797 220.913442 740.365988 223.728877 742.441531 225.80442 
C 744.517073 227.879962 747.332508 229.046154 750.267769 229.046154 
z
" clip-path="url(#p6c685c96de)" style="fill: #1f77b4; fill-opacity: 0.3; stroke: #1f77b4; stroke-opacity: 0.3"/>
    <path d="M 762.565289 220.277962 
C 763.823258 220.277962 765.029873 219.778166 765.919391 218.888647 
C 766.808909 217.999129 767.308706 216.792514 767.308706 215.534545 
C 767.308706 214.276577 766.808909 213.069962 765.919391 212.180443 
C 765.029873 211.290925 763.823258 210.791129 762.565289 210.791129 
C 761.30732 210.791129 760.100706 211.290925 759.211187 212.180443 
C 758.321669 213.069962 757.821873 214.276577 757.821873 215.534545 
C 757.821873 216.792514 758.321669 217.999129 759.211187 218.888647 
C 760.100706 219.778166 761.30732 220.277962 762.565289 220.277962 
z
" clip-path="url(#p6c685c96de)" style="fill: #1f77b4; fill-opacity: 0.3; stroke: #1f77b4; stroke-opacity: 0.3"/>
    <path d="M 774.86281 217.17531 
C 776.738079 217.17531 778.536794 216.430258 779.86281 215.104242 
C 781.188825 213.778227 781.933878 211.979512 781.933878 210.104242 
C 781.933878 208.228973 781.188825 206.430258 779.86281 205.104242 
C 778.536794 203.778227 776.738079 203.033175 774.86281 203.033175 
C 772.987541 203.033175 771.188825 203.778227 769.86281 205.104242 
C 768.536794 206.430258 767.791742 208.228973 767.791742 210.104242 
C 767.791742 211.979512 768.536794 213.778227 769.86281 215.104242 
C 771.188825 216.430258 772.987541 217.17531 774.86281 217.17531 
z
" clip-path="url(#p6c685c96de)" style="fill: #1f77b4; fill-opacity: 0.3; stroke: #1f77b4; stroke-opacity: 0.3"/>
    <path d="M 787.160331 211.745007 
C 789.0356 211.745007 790.834315 210.999955 792.160331 209.673939 
C 793.486346 208.347924 794.231398 206.549208 794.231398 204.673939 
C 794.231398 202.79867 793.486346 200.999955 792.160331 199.673939 
C 790.834315 198.347924 789.0356 197.602872 787.160331 197.602872 
C 785.285061 197.602872 783.486346 198.347924 782.160331 199.673939 
C 780.834315 200.999955 780.089263 202.79867 780.089263 204.673939 
C 780.089263 206.549208 780.834315 208.347924 782.160331 209.673939 
C 783.486346 210.999955 785.285061 211.745007 787.160331 211.745007 
z
" clip-path="url(#p6c685c96de)" style="fill: #1f77b4; fill-opacity: 0.3; stroke: #1f77b4; stroke-opacity: 0.3"/>
    <path d="M 799.457851 206.494871 
C 801.236888 206.494871 802.943299 205.788052 804.201268 204.530083 
C 805.459236 203.272114 806.166055 201.565703 806.166055 199.786667 
C 806.166055 198.00763 805.459236 196.301219 804.201268 195.04325 
C 802.943299 193.785281 801.236888 193.078463 799.457851 193.078463 
C 797.678815 193.078463 795.972404 193.785281 794.714435 195.04325 
C 793.456466 196.301219 792.749647 198.00763 792.749647 199.786667 
C 792.749647 201.565703 793.456466 203.272114 794.714435 204.530083 
C 795.972404 205.788052 797.678815 206.494871 799.457851 206.494871 
z
" clip-path="url(#p6c685c96de)" style="fill: #1f77b4; fill-opacity: 0.3; stroke: #1f77b4; stroke-opacity: 0.3"/>
    <path d="M 811.755372 201.427431 
C 813.630641 201.427431 815.429356 200.682379 816.755372 199.356364 
C 818.081387 198.030348 818.82644 196.231633 818.82644 194.356364 
C 818.82644 192.481095 818.081387 190.682379 816.755372 189.356364 
C 815.429356 188.030348 813.630641 187.285296 811.755372 187.285296 
C 809.880103 187.285296 808.081387 188.030348 806.755372 189.356364 
C 805.429356 190.682379 804.684304 192.481095 804.684304 194.356364 
C 804.684304 196.231633 805.429356 198.030348 806.755372 199.356364 
C 808.081387 200.682379 809.880103 201.427431 811.755372 201.427431 
z
" clip-path="url(#p6c685c96de)" style="fill: #1f77b4; fill-opacity: 0.3; stroke: #1f77b4; stroke-opacity: 0.3"/>
    <path d="M 824.052893 194.871163 
C 826.349619 194.871163 828.552586 193.958664 830.176617 192.334633 
C 831.800648 190.710603 832.713147 188.507635 832.713147 186.210909 
C 832.713147 183.914183 831.800648 181.711215 830.176617 180.087185 
C 828.552586 178.463154 826.349619 177.550655 824.052893 177.550655 
C 821.756166 177.550655 819.553199 178.463154 817.929168 180.087185 
C 816.305138 181.711215 815.392639 183.914183 815.392639 186.210909 
C 815.392639 188.507635 816.305138 190.710603 817.929168 192.334633 
C 819.553199 193.958664 821.756166 194.871163 824.052893 194.871163 
z
" clip-path="url(#p6c685c96de)" style="fill: #1f77b4; fill-opacity: 0.3; stroke: #1f77b4; stroke-opacity: 0.3"/>
    <path d="M 836.350413 186.597348 
C 838.685104 186.597348 840.924487 185.669765 842.575363 184.018889 
C 844.226239 182.368013 845.153822 180.128631 845.153822 177.793939 
C 845.153822 175.459248 844.226239 173.219866 842.575363 171.56899 
C 840.924487 169.918114 838.685104 168.990531 836.350413 168.990531 
C 834.015722 168.990531 831.776339 169.918114 830.125463 171.56899 
C 828.474587 173.219866 827.547005 175.459248 827.547005 177.793939 
C 827.547005 180.128631 828.474587 182.368013 830.125463 184.018889 
C 831.776339 185.669765 834.015722 186.597348 836.350413 186.597348 
z
" clip-path="url(#p6c685c96de)" style="fill: #1f77b4; fill-opacity: 0.3; stroke: #1f77b4; stroke-opacity: 0.3"/>
    <path d="M 848.647934 176.487009 
C 851.397618 176.487009 854.035053 175.394547 855.979373 173.450227 
C 857.923693 171.505907 859.016155 168.868472 859.016155 166.118788 
C 859.016155 163.369104 857.923693 160.731669 855.979373 158.787349 
C 854.035053 156.843028 851.397618 155.750567 848.647934 155.750567 
C 845.89825 155.750567 843.260815 156.843028 841.316495 158.787349 
C 839.372174 160.731669 838.279713 163.369104 838.279713 166.118788 
C 838.279713 168.868472 839.372174 171.505907 841.316495 173.450227 
C 843.260815 175.394547 845.89825 176.487009 848.647934 176.487009 
z
" clip-path="url(#p6c685c96de)" style="fill: #1f77b4; fill-opacity: 0.3; stroke: #1f77b4; stroke-opacity: 0.3"/>
    <path d="M 860.945455 167.662658 
C 862.867034 167.662658 864.710168 166.899207 866.06893 165.540445 
C 867.427691 164.181684 868.191143 162.338549 868.191143 160.41697 
C 868.191143 158.495391 867.427691 156.652256 866.06893 155.293494 
C 864.710168 153.934733 862.867034 153.171281 860.945455 153.171281 
C 859.023876 153.171281 857.180741 153.934733 855.821979 155.293494 
C 854.463218 156.652256 853.699766 158.495391 853.699766 160.41697 
C 853.699766 162.338549 854.463218 164.181684 855.821979 165.540445 
C 857.180741 166.899207 859.023876 167.662658 860.945455 167.662658 
z
" clip-path="url(#p6c685c96de)" style="fill: #1f77b4; fill-opacity: 0.3; stroke: #1f77b4; stroke-opacity: 0.3"/>
    <path d="M 873.242975 156.542534 
C 876.463856 156.542534 879.553251 155.262864 881.830757 152.985358 
C 884.108264 150.707851 885.387933 147.618456 885.387933 144.397576 
C 885.387933 141.176695 884.108264 138.0873 881.830757 135.809794 
C 879.553251 133.532287 876.463856 132.252618 873.242975 132.252618 
C 870.022095 132.252618 866.9327 133.532287 864.655193 135.809794 
C 862.377687 138.0873 861.098017 141.176695 861.098017 144.397576 
C 861.098017 147.618456 862.377687 150.707851 864.655193 152.985358 
C 866.9327 155.262864 870.022095 156.542534 873.242975 156.542534 
z
" clip-path="url(#p6c685c96de)" style="fill: #1f77b4; fill-opacity: 0.3; stroke: #1f77b4; stroke-opacity: 0.3"/>
    <path d="M 885.540496 145.735603 
C 887.551498 145.735603 889.480405 144.936623 890.902399 143.51463 
C 892.324392 142.092637 893.123371 140.163729 893.123371 138.152727 
C 893.123371 136.141725 892.324392 134.212818 890.902399 132.790825 
C 889.480405 131.368831 887.551498 130.569852 885.540496 130.569852 
C 883.529494 130.569852 881.600586 131.368831 880.178593 132.790825 
C 878.7566 134.212818 877.95762 136.141725 877.95762 138.152727 
C 877.95762 140.163729 878.7566 142.092637 880.178593 143.51463 
C 881.600586 144.936623 883.529494 145.735603 885.540496 145.735603 
z
" clip-path="url(#p6c685c96de)" style="fill: #1f77b4; fill-opacity: 0.3; stroke: #1f77b4; stroke-opacity: 0.3"/>
    <path d="M 897.838017 140.371771 
C 899.290594 140.371771 900.683873 139.794656 901.711 138.767529 
C 902.738127 137.740402 903.315242 136.347123 903.315242 134.894545 
C 903.315242 133.441968 902.738127 132.048689 901.711 131.021562 
C 900.683873 129.994435 899.290594 129.41732 897.838017 129.41732 
C 896.385439 129.41732 894.99216 129.994435 893.965033 131.021562 
C 892.937906 132.048689 892.360791 133.441968 892.360791 134.894545 
C 892.360791 136.347123 892.937906 137.740402 893.965033 138.767529 
C 894.99216 139.794656 896.385439 140.371771 897.838017 140.371771 
z
" clip-path="url(#p6c685c96de)" style="fill: #1f77b4; fill-opacity: 0.3; stroke: #1f77b4; stroke-opacity: 0.3"/>
    <path d="M 910.135537 136.438416 
C 912.057116 136.438416 913.900251 135.674964 915.259013 134.316203 
C 916.617774 132.957441 917.381226 131.114306 917.381226 129.192727 
C 917.381226 127.271148 916.617774 125.428013 915.259013 124.069252 
C 913.900251 122.71049 912.057116 121.947039 910.135537 121.947039 
C 908.213958 121.947039 906.370823 122.71049 905.012062 124.069252 
C 903.6533 125.428013 902.889849 127.271148 902.889849 129.192727 
C 902.889849 131.114306 903.6533 132.957441 905.012062 134.316203 
C 906.370823 135.674964 908.213958 136.438416 910.135537 136.438416 
z
" clip-path="url(#p6c685c96de)" style="fill: #1f77b4; fill-opacity: 0.3; stroke: #1f77b4; stroke-opacity: 0.3"/>
    <path d="M 922.433058 130.077657 
C 924.611924 130.077657 926.701842 129.211984 928.242533 127.671293 
C 929.783224 126.130602 930.648896 124.040684 930.648896 121.861818 
C 930.648896 119.682952 929.783224 117.593034 928.242533 116.052343 
C 926.701842 114.511652 924.611924 113.64598 922.433058 113.64598 
C 920.254192 113.64598 918.164274 114.511652 916.623583 116.052343 
C 915.082892 117.593034 914.217219 119.682952 914.217219 121.861818 
C 914.217219 124.040684 915.082892 126.130602 916.623583 127.671293 
C 918.164274 129.211984 920.254192 130.077657 922.433058 130.077657 
z
" clip-path="url(#p6c685c96de)" style="fill: #1f77b4; fill-opacity: 0.3; stroke: #1f77b4; stroke-opacity: 0.3"/>
    <path d="M 934.730579 123.405688 
C 936.652158 123.405688 938.495292 122.642237 939.854054 121.283475 
C 941.212815 119.924714 941.976267 118.081579 941.976267 116.16 
C 941.976267 114.238421 941.212815 112.395286 939.854054 111.036525 
C 938.495292 109.677763 936.652158 108.914312 934.730579 108.914312 
C 932.808999 108.914312 930.965865 109.677763 929.607103 111.036525 
C 928.248342 112.395286 927.48489 114.238421 927.48489 116.16 
C 927.48489 118.081579 928.248342 119.924714 929.607103 121.283475 
C 930.965865 122.642237 932.808999 123.405688 934.730579 123.405688 
z
" clip-path="url(#p6c685c96de)" style="fill: #1f77b4; fill-opacity: 0.3; stroke: #1f77b4; stroke-opacity: 0.3"/>
    <path d="M 947.028099 116.674799 
C 949.324825 116.674799 951.527793 115.7623 953.151824 114.13827 
C 954.775854 112.514239 955.688353 110.311272 955.688353 108.014545 
C 955.688353 105.717819 954.775854 103.514852 953.151824 101.890821 
C 951.527793 100.26679 949.324825 99.354291 947.028099 99.354291 
C 944.731373 99.354291 942.528405 100.26679 940.904375 101.890821 
C 939.280344 103.514852 938.367845 105.717819 938.367845 108.014545 
C 938.367845 110.311272 939.280344 112.514239 940.904375 114.13827 
C 942.528405 115.7623 944.731373 116.674799 947.028099 116.674799 
z
" clip-path="url(#p6c685c96de)" style="fill: #1f77b4; fill-opacity: 0.3; stroke: #1f77b4; stroke-opacity: 0.3"/>
    <path d="M 959.32562 109.835477 
C 961.104656 109.835477 962.811068 109.128658 964.069036 107.870689 
C 965.327005 106.61272 966.033824 104.906309 966.033824 103.127273 
C 966.033824 101.348236 965.327005 99.641825 964.069036 98.383856 
C 962.811068 97.125887 961.104656 96.419069 959.32562 96.419069 
C 957.546583 96.419069 955.840172 97.125887 954.582203 98.383856 
C 953.324235 99.641825 952.617416 101.348236 952.617416 103.127273 
C 952.617416 104.906309 953.324235 106.61272 954.582203 107.870689 
C 955.840172 109.128658 957.546583 109.835477 959.32562 109.835477 
z
" clip-path="url(#p6c685c96de)" style="fill: #1f77b4; fill-opacity: 0.3; stroke: #1f77b4; stroke-opacity: 0.3"/>
    <path d="M 971.62314 103.513711 
C 973.957832 103.513711 976.197214 102.586129 977.84809 100.935253 
C 979.498966 99.284377 980.426549 97.044994 980.426549 94.710303 
C 980.426549 92.375612 979.498966 90.136229 977.84809 88.485353 
C 976.197214 86.834477 973.957832 85.906895 971.62314 85.906895 
C 969.288449 85.906895 967.049067 86.834477 965.398191 88.485353 
C 963.747315 90.136229 962.819732 92.375612 962.819732 94.710303 
C 962.819732 97.044994 963.747315 99.284377 965.398191 100.935253 
C 967.049067 102.586129 969.288449 103.513711 971.62314 103.513711 
z
" clip-path="url(#p6c685c96de)" style="fill: #1f77b4; fill-opacity: 0.3; stroke: #1f77b4; stroke-opacity: 0.3"/>
    <path d="M 983.920661 96.44354 
C 985.748447 96.44354 987.501618 95.717352 988.794058 94.424912 
C 990.086498 93.132472 990.812686 91.379301 990.812686 89.551515 
C 990.812686 87.723729 990.086498 85.970558 988.794058 84.678118 
C 987.501618 83.385678 985.748447 82.659491 983.920661 82.659491 
C 982.092875 82.659491 980.339704 83.385678 979.047264 84.678118 
C 977.754824 85.970558 977.028637 87.723729 977.028637 89.551515 
C 977.028637 91.379301 977.754824 93.132472 979.047264 94.424912 
C 980.339704 95.717352 982.092875 96.44354 983.920661 96.44354 
z
" clip-path="url(#p6c685c96de)" style="fill: #1f77b4; fill-opacity: 0.3; stroke: #1f77b4; stroke-opacity: 0.3"/>
    <path d="M 996.218182 90.861139 
C 996.637505 90.861139 997.03971 90.69454 997.336216 90.398034 
C 997.632722 90.101528 997.799321 89.699323 997.799321 89.28 
C 997.799321 88.860677 997.632722 88.458472 997.336216 88.161966 
C 997.03971 87.86546 996.637505 87.698861 996.218182 87.698861 
C 995.798859 87.698861 995.396654 87.86546 995.100148 88.161966 
C 994.803642 88.458472 994.637043 88.860677 994.637043 89.28 
C 994.637043 89.699323 994.803642 90.101528 995.100148 90.398034 
C 995.396654 90.69454 995.798859 90.861139 996.218182 90.861139 
z
" clip-path="url(#p6c685c96de)" style="fill: #1f77b4; fill-opacity: 0.3; stroke: #1f77b4; stroke-opacity: 0.3"/>
   </g>
   <g id="matplotlib.axis_1">
    <g id="xtick_1">
     <g id="line2d_1">
      <defs>
       <path id="m9b417a3e60" d="M 0 0 
L 0 3.5 
" style="stroke: #000000; stroke-width: 0.8"/>
      </defs>
      <g>
       <use xlink:href="#m9b417a3e60" x="184.581818" y="512.64" style="stroke: #000000; stroke-width: 0.8"/>
      </g>
     </g>
     <g id="text_1">
      <!-- 2026-01-01 -->
      <g transform="translate(155.524006 527.238438) scale(0.1 -0.1)">
       <defs>
        <path id="DejaVuSans-32" d="M 1228 531 
L 3431 531 
L 3431 0 
L 469 0 
L 469 531 
Q 828 903 1448 1529 
Q 2069 2156 2228 2338 
Q 2531 2678 2651 2914 
Q 2772 3150 2772 3378 
Q 2772 3750 2511 3984 
Q 2250 4219 1831 4219 
Q 1534 4219 1204 4116 
Q 875 4013 500 3803 
L 500 4441 
Q 881 4594 1212 4672 
Q 1544 4750 1819 4750 
Q 2544 4750 2975 4387 
Q 3406 4025 3406 3419 
Q 3406 3131 3298 2873 
Q 3191 2616 2906 2266 
Q 2828 2175 2409 1742 
Q 1991 1309 1228 531 
z
" transform="scale(0.015625)"/>
        <path id="DejaVuSans-30" d="M 2034 4250 
Q 1547 4250 1301 3770 
Q 1056 3291 1056 2328 
Q 1056 1369 1301 889 
Q 1547 409 2034 409 
Q 2525 409 2770 889 
Q 3016 1369 3016 2328 
Q 3016 3291 2770 3770 
Q 2525 4250 2034 4250 
z
M 2034 4750 
Q 2819 4750 3233 4129 
Q 3647 3509 3647 2328 
Q 3647 1150 3233 529 
Q 2819 -91 2034 -91 
Q 1250 -91 836 529 
Q 422 1150 422 2328 
Q 422 3509 836 4129 
Q 1250 4750 2034 4750 
z
" transform="scale(0.015625)"/>
        <path id="DejaVuSans-36" d="M 2113 2584 
Q 1688 2584 1439 2293 
Q 1191 2003 1191 1497 
Q 1191 994 1439 701 
Q 1688 409 2113 409 
Q 2538 409 2786 701 
Q 3034 994 3034 1497 
Q 3034 2003 2786 2293 
Q 2538 2584 2113 2584 
z
M 3366 4563 
L 3366 3988 
Q 3128 4100 2886 4159 
Q 2644 4219 2406 4219 
Q 1781 4219 1451 3797 
Q 1122 3375 1075 2522 
Q 1259 2794 1537 2939 
Q 1816 3084 2150 3084 
Q 2853 3084 3261 2657 
Q 3669 2231 3669 1497 
Q 3669 778 3244 343 
Q 2819 -91 2113 -91 
Q 1303 -91 875 529 
Q 447 1150 447 2328 
Q 447 3434 972 4092 
Q 1497 4750 2381 4750 
Q 2619 4750 2861 4703 
Q 3103 4656 3366 4563 
z
" transform="scale(0.015625)"/>
        <path id="DejaVuSans-2d" d="M 313 2009 
L 1997 2009 
L 1997 1497 
L 313 1497 
L 313 2009 
z
" transform="scale(0.015625)"/>
        <path id="DejaVuSans-31" d="M 794 531 
L 1825 531 
L 1825 4091 
L 703 3866 
L 703 4441 
L 1819 4666 
L 2450 4666 
L 2450 531 
L 3481 531 
L 3481 0 
L 794 0 
L 794 531 
z
" transform="scale(0.015625)"/>
       </defs>
       <use xlink:href="#DejaVuSans-32"/>
       <use xlink:href="#DejaVuSans-30" x="63.623047"/>
       <use xlink:href="#DejaVuSans-32" x="127.246094"/>
       <use xlink:href="#DejaVuSans-36" x="190.869141"/>
       <use xlink:href="#DejaVuSans-2d" x="254.492188"/>
       <use xlink:href="#DejaVuSans-30" x="290.576172"/>
       <use xlink:href="#DejaVuSans-31" x="354.199219"/>
       <use xlink:href="#DejaVuSans-2d" x="417.822266"/>
       <use xlink:href="#DejaVuSans-30" x="453.90625"/>
       <use xlink:href="#DejaVuSans-31" x="517.529297"/>
      </g>
     </g>
    </g>
    <g id="xtick_2">
     <g id="line2d_2">
      <g>
       <use xlink:href="#m9b417a3e60" x="356.747107" y="512.64" style="stroke: #000000; stroke-width: 0.8"/>
      </g>
     </g>
     <g id="text_2">
      <!-- 2026-01-15 -->
      <g transform="translate(327.689295 527.238438) scale(0.1 -0.1)">
       <defs>
        <path id="DejaVuSans-35" d="M 691 4666 
L 3169 4666 
L 3169 4134 
L 1269 4134 
L 1269 2991 
Q 1406 3038 1543 3061 
Q 1681 3084 1819 3084 
Q 2600 3084 3056 2656 
Q 3513 2228 3513 1497 
Q 3513 744 3044 326 
Q 2575 -91 1722 -91 
Q 1428 -91 1123 -41 
Q 819 9 494 109 
L 494 744 
Q 775 591 1075 516 
Q 1375 441 1709 441 
Q 2250 441 2565 725 
Q 2881 1009 2881 1497 
Q 2881 1984 2565 2268 
Q 2250 2553 1709 2553 
Q 1456 2553 1204 2497 
Q 953 2441 691 2322 
L 691 4666 
z
" transform="scale(0.015625)"/>
       </defs>
       <use xlink:href="#DejaVuSans-32"/>
       <use xlink:href="#DejaVuSans-30" x="63.623047"/>
       <use xlink:href="#DejaVuSans-32" x="127.246094"/>
       <use xlink:href="#DejaVuSans-36" x="190.869141"/>
       <use xlink:href="#DejaVuSans-2d" x="254.492188"/>
       <use xlink:href="#DejaVuSans-30" x="290.576172"/>
       <use xlink:href="#DejaVuSans-31" x="354.199219"/>
       <use xlink:href="#DejaVuSans-2d" x="417.822266"/>
       <use xlink:href="#DejaVuSans-31" x="453.90625"/>
       <use xlink:href="#DejaVuSans-35" x="517.529297"/>
      </g>
     </g>
    </g>
    <g id="xtick_3">
     <g id="line2d_3">
      <g>
       <use xlink:href="#m9b417a3e60" x="565.804959" y="512.64" style="stroke: #000000; stroke-width: 0.8"/>
      </g>
     </g>
     <g id="text_3">
      <!-- 2026-02-01 -->
      <g transform="translate(536.747146 527.238438) scale(0.1 -0.1)">
       <use xlink:href="#DejaVuSans-32"/>
       <use xlink:href="#DejaVuSans-30" x="63.623047"/>
       <use xlink:href="#DejaVuSans-32" x="127.246094"/>
       <use xlink:href="#DejaVuSans-36" x="190.869141"/>
       <use xlink:href="#DejaVuSans-2d" x="254.492188"/>
       <use xlink:href="#DejaVuSans-30" x="290.576172"/>
       <use xlink:href="#DejaVuSans-32" x="354.199219"/>
       <use xlink:href="#DejaVuSans-2d" x="417.822266"/>
       <use xlink:href="#DejaVuSans-30" x="453.90625"/>
       <use xlink:href="#DejaVuSans-31" x="517.529297"/>
      </g>
     </g>
    </g>
    <g id="xtick_4">
     <g id="line2d_4">
      <g>
       <use xlink:href="#m9b417a3e60" x="737.970248" y="512.64" style="stroke: #000000; stroke-width: 0.8"/>
      </g>
     </g>
     <g id="text_4">
      <!-- 2026-02-15 -->
      <g transform="translate(708.912435 527.238438) scale(0.1 -0.1)">
       <use xlink:href="#DejaVuSans-32"/>
       <use xlink:href="#DejaVuSans-30" x="63.623047"/>
       <use xlink:href="#DejaVuSans-32" x="127.246094"/>
       <use xlink:href="#DejaVuSans-36" x="190.869141"/>
       <use xlink:href="#DejaVuSans-2d" x="254.492188"/>
       <use xlink:href="#DejaVuSans-30" x="290.576172"/>
       <use xlink:href="#DejaVuSans-32" x="354.199219"/>
       <use xlink:href="#DejaVuSans-2d" x="417.822266"/>
       <use xlink:href="#DejaVuSans-31" x="453.90625"/>
       <use xlink:href="#DejaVuSans-35" x="517.529297"/>
      </g>
     </g>
    </g>
    <g id="xtick_5">
     <g id="line2d_5">
      <g>
       <use xlink:href="#m9b417a3e60" x="910.135537" y="512.64" style="stroke: #000000; stroke-width: 0.8"/>
      </g>
     </g>
     <g id="text_5">
      <!-- 2026-03-01 -->
      <g transform="translate(881.077725 527.238438) scale(0.1 -0.1)">
       <defs>
        <path id="DejaVuSans-33" d="M 2597 2516 
Q 3050 2419 3304 2112 
Q 3559 1806 3559 1356 
Q 3559 666 3084 287 
Q 2609 -91 1734 -91 
Q 1441 -91 1130 -33 
Q 819 25 488 141 
L 488 750 
Q 750 597 1062 519 
Q 1375 441 1716 441 
Q 2309 441 2620 675 
Q 2931 909 2931 1356 
Q 2931 1769 2642 2001 
Q 2353 2234 1838 2234 
L 1294 2234 
L 1294 2753 
L 1863 2753 
Q 2328 2753 2575 2939 
Q 2822 3125 2822 3475 
Q 2822 3834 2567 4026 
Q 2313 4219 1838 4219 
Q 1578 4219 1281 4162 
Q 984 4106 628 3988 
L 628 4550 
Q 988 4650 1302 4700 
Q 1616 4750 1894 4750 
Q 2613 4750 3031 4423 
Q 3450 4097 3450 3541 
Q 3450 3153 3228 2886 
Q 3006 2619 2597 2516 
z
" transform="scale(0.015625)"/>
       </defs>
       <use xlink:href="#DejaVuSans-32"/>
       <use xlink:href="#DejaVuSans-30" x="63.623047"/>
       <use xlink:href="#DejaVuSans-32" x="127.246094"/>
       <use xlink:href="#DejaVuSans-36" x="190.869141"/>
       <use xlink:href="#DejaVuSans-2d" x="254.492188"/>
       <use xlink:href="#DejaVuSans-30" x="290.576172"/>
       <use xlink:href="#DejaVuSans-33" x="354.199219"/>
       <use xlink:href="#DejaVuSans-2d" x="417.822266"/>
       <use xlink:href="#DejaVuSans-30" x="453.90625"/>
       <use xlink:href="#DejaVuSans-31" x="517.529297"/>
      </g>
     </g>
    </g>
   </g>
   <g id="matplotlib.axis_2">
    <g id="ytick_1">
     <g id="line2d_6">
      <defs>
       <path id="m96a6a0ceb6" d="M 0 0 
L -3.5 0 
" style="stroke: #000000; stroke-width: 0.8"/>
      </defs>
      <g>
       <use xlink:href="#m96a6a0ceb6" x="144" y="460.441212" style="stroke: #000000; stroke-width: 0.8"/>
      </g>
     </g>
     <g id="text_6">
      <!-- 13200 -->
      <g transform="translate(105.1875 464.240431) scale(0.1 -0.1)">
       <use xlink:href="#DejaVuSans-31"/>
       <use xlink:href="#DejaVuSans-33" x="63.623047"/>
       <use xlink:href="#DejaVuSans-32" x="127.246094"/>
       <use xlink:href="#DejaVuSans-30" x="190.869141"/>
       <use xlink:href="#DejaVuSans-30" x="254.492188"/>
      </g>
     </g>
    </g>
    <g id="ytick_2">
     <g id="line2d_7">
      <g>
       <use xlink:href="#m96a6a0ceb6" x="144" y="406.138182" style="stroke: #000000; stroke-width: 0.8"/>
      </g>
     </g>
     <g id="text_7">
      <!-- 13400 -->
      <g transform="translate(105.1875 409.937401) scale(0.1 -0.1)">
       <defs>
        <path id="DejaVuSans-34" d="M 2419 4116 
L 825 1625 
L 2419 1625 
L 2419 4116 
z
M 2253 4666 
L 3047 4666 
L 3047 1625 
L 3713 1625 
L 3713 1100 
L 3047 1100 
L 3047 0 
L 2419 0 
L 2419 1100 
L 313 1100 
L 313 1709 
L 2253 4666 
z
" transform="scale(0.015625)"/>
       </defs>
       <use xlink:href="#DejaVuSans-31"/>
       <use xlink:href="#DejaVuSans-33" x="63.623047"/>
       <use xlink:href="#DejaVuSans-34" x="127.246094"/>
       <use xlink:href="#DejaVuSans-30" x="190.869141"/>
       <use xlink:href="#DejaVuSans-30" x="254.492188"/>
      </g>
     </g>
    </g>
    <g id="ytick_3">
     <g id="line2d_8">
      <g>
       <use xlink:href="#m96a6a0ceb6" x="144" y="351.835152" style="stroke: #000000; stroke-width: 0.8"/>
      </g>
     </g>
     <g id="text_8">
      <!-- 13600 -->
      <g transform="translate(105.1875 355.63437) scale(0.1 -0.1)">
       <use xlink:href="#DejaVuSans-31"/>
       <use xlink:href="#DejaVuSans-33" x="63.623047"/>
       <use xlink:href="#DejaVuSans-36" x="127.246094"/>
       <use xlink:href="#DejaVuSans-30" x="190.869141"/>
       <use xlink:href="#DejaVuSans-30" x="254.492188"/>
      </g>
     </g>
    </g>
    <g id="ytick_4">
     <g id="line2d_9">
      <g>
       <use xlink:href="#m96a6a0ceb6" x="144" y="297.532121" style="stroke: #000000; stroke-width: 0.8"/>
      </g>
     </g>
     <g id="text_9">
      <!-- 13800 -->
      <g transform="translate(105.1875 301.33134) scale(0.1 -0.1)">
       <defs>
        <path id="DejaVuSans-38" d="M 2034 2216 
Q 1584 2216 1326 1975 
Q 1069 1734 1069 1313 
Q 1069 891 1326 650 
Q 1584 409 2034 409 
Q 2484 409 2743 651 
Q 3003 894 3003 1313 
Q 3003 1734 2745 1975 
Q 2488 2216 2034 2216 
z
M 1403 2484 
Q 997 2584 770 2862 
Q 544 3141 544 3541 
Q 544 4100 942 4425 
Q 1341 4750 2034 4750 
Q 2731 4750 3128 4425 
Q 3525 4100 3525 3541 
Q 3525 3141 3298 2862 
Q 3072 2584 2669 2484 
Q 3125 2378 3379 2068 
Q 3634 1759 3634 1313 
Q 3634 634 3220 271 
Q 2806 -91 2034 -91 
Q 1263 -91 848 271 
Q 434 634 434 1313 
Q 434 1759 690 2068 
Q 947 2378 1403 2484 
z
M 1172 3481 
Q 1172 3119 1398 2916 
Q 1625 2713 2034 2713 
Q 2441 2713 2670 2916 
Q 2900 3119 2900 3481 
Q 2900 3844 2670 4047 
Q 2441 4250 2034 4250 
Q 1625 4250 1398 4047 
Q 1172 3844 1172 3481 
z
" transform="scale(0.015625)"/>
       </defs>
       <use xlink:href="#DejaVuSans-31"/>
       <use xlink:href="#DejaVuSans-33" x="63.623047"/>
       <use xlink:href="#DejaVuSans-38" x="127.246094"/>
       <use xlink:href="#DejaVuSans-30" x="190.869141"/>
       <use xlink:href="#DejaVuSans-30" x="254.492188"/>
      </g>
     </g>
    </g>
    <g id="ytick_5">
     <g id="line2d_10">
      <g>
       <use xlink:href="#m96a6a0ceb6" x="144" y="243.229091" style="stroke: #000000; stroke-width: 0.8"/>
      </g>
     </g>
     <g id="text_10">
      <!-- 14000 -->
      <g transform="translate(105.1875 247.02831) scale(0.1 -0.1)">
       <use xlink:href="#DejaVuSans-31"/>
       <use xlink:href="#DejaVuSans-34" x="63.623047"/>
       <use xlink:href="#DejaVuSans-30" x="127.246094"/>
       <use xlink:href="#DejaVuSans-30" x="190.869141"/>
       <use xlink:href="#DejaVuSans-30" x="254.492188"/>
      </g>
     </g>
    </g>
    <g id="ytick_6">
     <g id="line2d_11">
      <g>
       <use xlink:href="#m96a6a0ceb6" x="144" y="188.926061" style="stroke: #000000; stroke-width: 0.8"/>
      </g>
     </g>
     <g id="text_11">
      <!-- 14200 -->
      <g transform="translate(105.1875 192.725279) scale(0.1 -0.1)">
       <use xlink:href="#DejaVuSans-31"/>
       <use xlink:href="#DejaVuSans-34" x="63.623047"/>
       <use xlink:href="#DejaVuSans-32" x="127.246094"/>
       <use xlink:href="#DejaVuSans-30" x="190.869141"/>
       <use xlink:href="#DejaVuSans-30" x="254.492188"/>
      </g>
     </g>
    </g>
    <g id="ytick_7">
     <g id="line2d_12">
      <g>
       <use xlink:href="#m96a6a0ceb6" x="144" y="134.62303" style="stroke: #000000; stroke-width: 0.8"/>
      </g>
     </g>
     <g id="text_12">
      <!-- 14400 -->
      <g transform="translate(105.1875 138.422249) scale(0.1 -0.1)">
       <use xlink:href="#DejaVuSans-31"/>
       <use xlink:href="#DejaVuSans-34" x="63.623047"/>
       <use xlink:href="#DejaVuSans-34" x="127.246094"/>
       <use xlink:href="#DejaVuSans-30" x="190.869141"/>
       <use xlink:href="#DejaVuSans-30" x="254.492188"/>
      </g>
     </g>
    </g>
    <g id="ytick_8">
     <g id="line2d_13">
      <g>
       <use xlink:href="#m96a6a0ceb6" x="144" y="80.32" style="stroke: #000000; stroke-width: 0.8"/>
      </g>
     </g>
     <g id="text_13">
      <!-- 14600 -->
      <g transform="translate(105.1875 84.119219) scale(0.1 -0.1)">
       <use xlink:href="#DejaVuSans-31"/>
       <use xlink:href="#DejaVuSans-34" x="63.623047"/>
       <use xlink:href="#DejaVuSans-36" x="127.246094"/>
       <use xlink:href="#DejaVuSans-30" x="190.869141"/>
       <use xlink:href="#DejaVuSans-30" x="254.492188"/>
      </g>
     </g>
    </g>
   </g>
   <g id="line2d_14">
    <path d="M 184.581818 492.48 
L 196.879339 487.864242 
L 209.17686 480.261818 
L 221.47438 477.275152 
L 233.771901 475.917576 
L 246.069421 471.301818 
L 258.366942 466.957576 
L 270.664463 456.368485 
L 282.961983 450.938182 
L 295.259504 448.22303 
L 307.557025 447.68 
L 319.854545 436.819394 
L 332.152066 430.031515 
L 344.449587 426.501818 
L 356.747107 417.813333 
L 369.044628 406.138182 
L 381.342149 405.052121 
L 393.639669 402.065455 
L 405.93719 394.734545 
L 418.234711 391.476364 
L 430.532231 377.900606 
L 442.829752 370.569697 
L 455.127273 364.053333 
L 467.424793 356.179394 
L 479.722314 355.093333 
L 492.019835 354.007273 
L 504.317355 343.961212 
L 516.614876 330.385455 
L 528.912397 321.69697 
L 541.209917 314.366061 
L 553.507438 313.28 
L 565.804959 310.293333 
L 578.102479 304.86303 
L 590.4 298.346667 
L 602.697521 296.174545 
L 614.995041 288.572121 
L 627.292562 283.956364 
L 639.590083 280.969697 
L 651.887603 270.380606 
L 664.185124 267.122424 
L 676.482645 257.890909 
L 688.780165 252.460606 
L 701.077686 249.202424 
L 713.375207 243.772121 
L 725.672727 241.328485 
L 737.970248 231.282424 
L 750.267769 217.978182 
L 762.565289 215.534545 
L 774.86281 210.104242 
L 787.160331 204.673939 
L 799.457851 199.786667 
L 811.755372 194.356364 
L 824.052893 186.210909 
L 836.350413 177.793939 
L 848.647934 166.118788 
L 860.945455 160.41697 
L 873.242975 144.397576 
L 885.540496 138.152727 
L 897.838017 134.894545 
L 910.135537 129.192727 
L 922.433058 121.861818 
L 934.730579 116.16 
L 947.028099 108.014545 
L 959.32562 103.127273 
L 971.62314 94.710303 
L 983.920661 89.551515 
L 996.218182 89.28 
" clip-path="url(#p6c685c96de)" style="fill: none; stroke: #1f77b4; stroke-width: 1.5; stroke-linecap: square"/>
   </g>
   <g id="patch_3">
    <path d="M 144 512.64 
L 144 69.12 
" style="fill: none; stroke: #000000; stroke-width: 0.8; stroke-linejoin: miter; stroke-linecap: square"/>
   </g>
   <g id="patch_4">
    <path d="M 1036.8 512.64 
L 1036.8 69.12 
" style="fill: none; stroke: #000000; stroke-width: 0.8; stroke-linejoin: miter; stroke-linecap: square"/>
   </g>
   <g id="patch_5">
    <path d="M 144 512.64 
L 1036.8 512.64 
" style="fill: none; stroke: #000000; stroke-width: 0.8; stroke-linejoin: miter; stroke-linecap: square"/>
   </g>
   <g id="patch_6">
    <path d="M 144 69.12 
L 1036.8 69.12 
" style="fill: none; stroke: #000000; stroke-width: 0.8; stroke-linejoin: miter; stroke-linecap: square"/>
   </g>
   <g id="text_14">
    <!-- Number of AEDs in the OpenStreetMap database in Poland from 2026-01-01, day by day. As at: 2026-03-08 -->
    <g transform="translate(144 63.12) scale(0.14 -0.14)">
     <defs>
      <path id="DejaVuSans-4e" d="M 628 4666 
L 1478 4666 
L 3547 763 
L 3547 4666 
L 4159 4666 
L 4159 0 
L 3309 0 
L 1241 3903 
L 1241 0 
L 628 0 
L 628 4666 
z
" transform="scale(0.015625)"/>
      <path id="DejaVuSans-75" d="M 544 1381 
L 544 3500 
L 1119 3500 
L 1119 1403 
Q 1119 906 1312 657 
Q 1506 409 1894 409 
Q 2359 409 2629 706 
Q 2900 1003 2900 1516 
L 2900 3500 
L 3475 3500 
L 3475 0 
L 2900 0 
L 2900 538 
Q 2691 219 2414 64 
Q 2138 -91 1772 -91 
Q 1169 -91 856 284 
Q 544 659 544 1381 
z
M 1991 3584 
L 1991 3584 
z
" transform="scale(0.015625)"/>
      <path id="DejaVuSans-6d" d="M 3328 2828 
Q 3544 3216 3844 3400 
Q 4144 3584 4550 3584 
Q 5097 3584 5394 3201 
Q 5691 2819 5691 2113 
L 5691 0 
L 5113 0 
L 5113 2094 
Q 5113 2597 4934 2840 
Q 4756 3084 4391 3084 
Q 3944 3084 3684 2787 
Q 3425 2491 3425 1978 
L 3425 0 
L 2847 0 
L 2847 2094 
Q 2847 2600 2669 2842 
Q 2491 3084 2119 3084 
Q 1678 3084 1418 2786 
Q 1159 2488 1159 1978 
L 1159 0 
L 581 0 
L 581 3500 
L 1159 3500 
L 1159 2956 
Q 1356 3278 1631 3431 
Q 1906 3584 2284 3584 
Q 2666 3584 2933 3390 
Q 3200 3197 3328 2828 
z
" transform="scale(0.015625)"/>
      <path id="DejaVuSans-62" d="M 3116 1747 
Q 3116 2381 2855 2742 
Q 2594 3103 2138 3103 
Q 1681 3103 1420 2742 
Q 1159 2381 1159 1747 
Q 1159 1113 1420 752 
Q 1681 391 2138 391 
Q 2594 391 2855 752 
Q 3116 1113 3116 1747 
z
M 1159 2969 
Q 1341 3281 1617 3432 
Q 1894 3584 2278 3584 
Q 2916 3584 3314 3078 
Q 3713 2572 3713 1747 
Q 3713 922 3314 415 
Q 2916 -91 2278 -91 
Q 1894 -91 1617 61 
Q 1341 213 1159 525 
L 1159 0 
L 581 0 
L 581 4863 
L 1159 4863 
L 1159 2969 
z
" transform="scale(0.015625)"/>
      <path id="DejaVuSans-65" d="M 3597 1894 
L 3597 1613 
L 953 1613 
Q 991 1019 1311 708 
Q 1631 397 2203 397 
Q 2534 397 2845 478 
Q 3156 559 3463 722 
L 3463 178 
Q 3153 47 2828 -22 
Q 2503 -91 2169 -91 
Q 1331 -91 842 396 
Q 353 884 353 1716 
Q 353 2575 817 3079 
Q 1281 3584 2069 3584 
Q 2775 3584 3186 3129 
Q 3597 2675 3597 1894 
z
M 3022 2063 
Q 3016 2534 2758 2815 
Q 2500 3097 2075 3097 
Q 1594 3097 1305 2825 
Q 1016 2553 972 2059 
L 3022 2063 
z
" transform="scale(0.015625)"/>
      <path id="DejaVuSans-72" d="M 2631 2963 
Q 2534 3019 2420 3045 
Q 2306 3072 2169 3072 
Q 1681 3072 1420 2755 
Q 1159 2438 1159 1844 
L 1159 0 
L 581 0 
L 581 3500 
L 1159 3500 
L 1159 2956 
Q 1341 3275 1631 3429 
Q 1922 3584 2338 3584 
Q 2397 3584 2469 3576 
Q 2541 3569 2628 3553 
L 2631 2963 
z
" transform="scale(0.015625)"/>
      <path id="DejaVuSans-20" transform="scale(0.015625)"/>
      <path id="DejaVuSans-6f" d="M 1959 3097 
Q 1497 3097 1228 2736 
Q 959 2375 959 1747 
Q 959 1119 1226 758 
Q 1494 397 1959 397 
Q 2419 397 2687 759 
Q 2956 1122 2956 1747 
Q 2956 2369 2687 2733 
Q 2419 3097 1959 3097 
z
M 1959 3584 
Q 2709 3584 3137 3096 
Q 3566 2609 3566 1747 
Q 3566 888 3137 398 
Q 2709 -91 1959 -91 
Q 1206 -91 779 398 
Q 353 888 353 1747 
Q 353 2609 779 3096 
Q 1206 3584 1959 3584 
z
" transform="scale(0.015625)"/>
      <path id="DejaVuSans-66" d="M 2375 4863 
L 2375 4384 
L 1825 4384 
Q 1516 4384 1395 4259 
Q 1275 4134 1275 3809 
L 1275 3500 
L 2222 3500 
L 2222 3053 
L 1275 3053 
L 1275 0 
L 697 0 
L 697 3053 
L 147 3053 
L 147 3500 
L 697 3500 
L 697 3744 
Q 697 4328 969 4595 
Q 1241 4863 1831 4863 
L 2375 4863 
z
" transform="scale(0.015625)"/>
      <path id="DejaVuSans-41" d="M 2188 4044 
L 1331 1722 
L 3047 1722 
L 2188 4044 
z
M 1831 4666 
L 2547 4666 
L 4325 0 
L 3669 0 
L 3244 1197 
L 1141 1197 
L 716 0 
L 50 0 
L 1831 4666 
z
" transform="scale(0.015625)"/>
      <path id="DejaVuSans-45" d="M 628 4666 
L 3578 4666 
L 3578 4134 
L 1259 4134 
L 1259 2753 
L 3481 2753 
L 3481 2222 
L 1259 2222 
L 1259 531 
L 3634 531 
L 3634 0 
L 628 0 
L 628 4666 
z
" transform="scale(0.015625)"/>
      <path id="DejaVuSans-44" d="M 1259 4147 
L 1259 519 
L 2022 519 
Q 2988 519 3436 956 
Q 3884 1394 3884 2338 
Q 3884 3275 3436 3711 
Q 2988 4147 2022 4147 
L 1259 4147 
z
M 628 4666 
L 1925 4666 
Q 3281 4666 3915 4102 
Q 4550 3538 4550 2338 
Q 4550 1131 3912 565 
Q 3275 0 1925 0 
L 628 0 
L 628 4666 
z
" transform="scale(0.015625)"/>
      <path id="DejaVuSans-73" d="M 2834 3397 
L 2834 2853 
Q 2591 2978 2328 3040 
Q 2066 3103 1784 3103 
Q 1356 3103 1142 2972 
Q 928 2841 928 2578 
Q 928 2378 1081 2264 
Q 1234 2150 1697 2047 
L 1894 2003 
Q 2506 1872 2764 1633 
Q 3022 1394 3022 966 
Q 3022 478 2636 193 
Q 2250 -91 1575 -91 
Q 1294 -91 989 -36 
Q 684 19 347 128 
L 347 722 
Q 666 556 975 473 
Q 1284 391 1588 391 
Q 1994 391 2212 530 
Q 2431 669 2431 922 
Q 2431 1156 2273 1281 
Q 2116 1406 1581 1522 
L 1381 1569 
Q 847 1681 609 1914 
Q 372 2147 372 2553 
Q 372 3047 722 3315 
Q 1072 3584 1716 3584 
Q 2034 3584 2315 3537 
Q 2597 3491 2834 3397 
z
" transform="scale(0.015625)"/>
      <path id="DejaVuSans-69" d="M 603 3500 
L 1178 3500 
L 1178 0 
L 603 0 
L 603 3500 
z
M 603 4863 
L 1178 4863 
L 1178 4134 
L 603 4134 
L 603 4863 
z
" transform="scale(0.015625)"/>
      <path id="DejaVuSans-6e" d="M 3513 2113 
L 3513 0 
L 2938 0 
L 2938 2094 
Q 2938 2591 2744 2837 
Q 2550 3084 2163 3084 
Q 1697 3084 1428 2787 
Q 1159 2491 1159 1978 
L 1159 0 
L 581 0 
L 581 3500 
L 1159 3500 
L 1159 2956 
Q 1366 3272 1645 3428 
Q 1925 3584 2291 3584 
Q 2894 3584 3203 3211 
Q 3513 2838 3513 2113 
z
" transform="scale(0.015625)"/>
      <path id="DejaVuSans-74" d="M 1172 4494 
L 1172 3500 
L 2356 3500 
L 2356 3053 
L 1172 3053 
L 1172 1153 
Q 1172 725 1289 603 
Q 1406 481 1766 481 
L 2356 481 
L 2356 0 
L 1766 0 
Q 1100 0 847 248 
Q 594 497 594 1153 
L 594 3053 
L 172 3053 
L 172 3500 
L 594 3500 
L 594 4494 
L 1172 4494 
z
" transform="scale(0.015625)"/>
      <path id="DejaVuSans-68" d="M 3513 2113 
L 3513 0 
L 2938 0 
L 2938 2094 
Q 2938 2591 2744 2837 
Q 2550 3084 2163 3084 
Q 1697 3084 1428 2787 
Q 1159 2491 1159 1978 
L 1159 0 
L 581 0 
L 581 4863 
L 1159 4863 
L 1159 2956 
Q 1366 3272 1645 3428 
Q 1925 3584 2291 3584 
Q 2894 3584 3203 3211 
Q 3513 2838 3513 2113 
z
" transform="scale(0.015625)"/>
      <path id="DejaVuSans-4f" d="M 2522 4238 
Q 1834 4238 1429 3725 
Q 1025 3213 1025 2328 
Q 1025 1447 1429 934 
Q 1834 422 2522 422 
Q 3209 422 3611 934 
Q 4013 1447 4013 2328 
Q 4013 3213 3611 3725 
Q 3209 4238 2522 4238 
z
M 2522 4750 
Q 3503 4750 4090 4092 
Q 4678 3434 4678 2328 
Q 4678 1225 4090 567 
Q 3503 -91 2522 -91 
Q 1538 -91 948 565 
Q 359 1222 359 2328 
Q 359 3434 948 4092 
Q 1538 4750 2522 4750 
z
" transform="scale(0.015625)"/>
      <path id="DejaVuSans-70" d="M 1159 525 
L 1159 -1331 
L 581 -1331 
L 581 3500 
L 1159 3500 
L 1159 2969 
Q 1341 3281 1617 3432 
Q 1894 3584 2278 3584 
Q 2916 3584 3314 3078 
Q 3713 2572 3713 1747 
Q 3713 922 3314 415 
Q 2916 -91 2278 -91 
Q 1894 -91 1617 61 
Q 1341 213 1159 525 
z
M 3116 1747 
Q 3116 2381 2855 2742 
Q 2594 3103 2138 3103 
Q 1681 3103 1420 2742 
Q 1159 2381 1159 1747 
Q 1159 1113 1420 752 
Q 1681 391 2138 391 
Q 2594 391 2855 752 
Q 3116 1113 3116 1747 
z
" transform="scale(0.015625)"/>
      <path id="DejaVuSans-53" d="M 3425 4513 
L 3425 3897 
Q 3066 4069 2747 4153 
Q 2428 4238 2131 4238 
Q 1616 4238 1336 4038 
Q 1056 3838 1056 3469 
Q 1056 3159 1242 3001 
Q 1428 2844 1947 2747 
L 2328 2669 
Q 3034 2534 3370 2195 
Q 3706 1856 3706 1288 
Q 3706 609 3251 259 
Q 2797 -91 1919 -91 
Q 1588 -91 1214 -16 
Q 841 59 441 206 
L 441 856 
Q 825 641 1194 531 
Q 1563 422 1919 422 
Q 2459 422 2753 634 
Q 3047 847 3047 1241 
Q 3047 1584 2836 1778 
Q 2625 1972 2144 2069 
L 1759 2144 
Q 1053 2284 737 2584 
Q 422 2884 422 3419 
Q 422 4038 858 4394 
Q 1294 4750 2059 4750 
Q 2388 4750 2728 4690 
Q 3069 4631 3425 4513 
z
" transform="scale(0.015625)"/>
      <path id="DejaVuSans-4d" d="M 628 4666 
L 1569 4666 
L 2759 1491 
L 3956 4666 
L 4897 4666 
L 4897 0 
L 4281 0 
L 4281 4097 
L 3078 897 
L 2444 897 
L 1241 4097 
L 1241 0 
L 628 0 
L 628 4666 
z
" transform="scale(0.015625)"/>
      <path id="DejaVuSans-61" d="M 2194 1759 
Q 1497 1759 1228 1600 
Q 959 1441 959 1056 
Q 959 750 1161 570 
Q 1363 391 1709 391 
Q 2188 391 2477 730 
Q 2766 1069 2766 1631 
L 2766 1759 
L 2194 1759 
z
M 3341 1997 
L 3341 0 
L 2766 0 
L 2766 531 
Q 2569 213 2275 61 
Q 1981 -91 1556 -91 
Q 1019 -91 701 211 
Q 384 513 384 1019 
Q 384 1609 779 1909 
Q 1175 2209 1959 2209 
L 2766 2209 
L 2766 2266 
Q 2766 2663 2505 2880 
Q 2244 3097 1772 3097 
Q 1472 3097 1187 3025 
Q 903 2953 641 2809 
L 641 3341 
Q 956 3463 1253 3523 
Q 1550 3584 1831 3584 
Q 2591 3584 2966 3190 
Q 3341 2797 3341 1997 
z
" transform="scale(0.015625)"/>
      <path id="DejaVuSans-64" d="M 2906 2969 
L 2906 4863 
L 3481 4863 
L 3481 0 
L 2906 0 
L 2906 525 
Q 2725 213 2448 61 
Q 2172 -91 1784 -91 
Q 1150 -91 751 415 
Q 353 922 353 1747 
Q 353 2572 751 3078 
Q 1150 3584 1784 3584 
Q 2172 3584 2448 3432 
Q 2725 3281 2906 2969 
z
M 947 1747 
Q 947 1113 1208 752 
Q 1469 391 1925 391 
Q 2381 391 2643 752 
Q 2906 1113 2906 1747 
Q 2906 2381 2643 2742 
Q 2381 3103 1925 3103 
Q 1469 3103 1208 2742 
Q 947 2381 947 1747 
z
" transform="scale(0.015625)"/>
      <path id="DejaVuSans-50" d="M 1259 4147 
L 1259 2394 
L 2053 2394 
Q 2494 2394 2734 2622 
Q 2975 2850 2975 3272 
Q 2975 3691 2734 3919 
Q 2494 4147 2053 4147 
L 1259 4147 
z
M 628 4666 
L 2053 4666 
Q 2838 4666 3239 4311 
Q 3641 3956 3641 3272 
Q 3641 2581 3239 2228 
Q 2838 1875 2053 1875 
L 1259 1875 
L 1259 0 
L 628 0 
L 628 4666 
z
" transform="scale(0.015625)"/>
      <path id="DejaVuSans-6c" d="M 603 4863 
L 1178 4863 
L 1178 0 
L 603 0 
L 603 4863 
z
" transform="scale(0.015625)"/>
      <path id="DejaVuSans-2c" d="M 750 794 
L 1409 794 
L 1409 256 
L 897 -744 
L 494 -744 
L 750 256 
L 750 794 
z
" transform="scale(0.015625)"/>
      <path id="DejaVuSans-79" d="M 2059 -325 
Q 1816 -950 1584 -1140 
Q 1353 -1331 966 -1331 
L 506 -1331 
L 506 -850 
L 844 -850 
Q 1081 -850 1212 -737 
Q 1344 -625 1503 -206 
L 1606 56 
L 191 3500 
L 800 3500 
L 1894 763 
L 2988 3500 
L 3597 3500 
L 2059 -325 
z
" transform="scale(0.015625)"/>
      <path id="DejaVuSans-2e" d="M 684 794 
L 1344 794 
L 1344 0 
L 684 0 
L 684 794 
z
" transform="scale(0.015625)"/>
      <path id="DejaVuSans-3a" d="M 750 794 
L 1409 794 
L 1409 0 
L 750 0 
L 750 794 
z
M 750 3309 
L 1409 3309 
L 1409 2516 
L 750 2516 
L 750 3309 
z
" transform="scale(0.015625)"/>
     </defs>
     <use xlink:href="#DejaVuSans-4e"/>
     <use xlink:href="#DejaVuSans-75" x="74.804688"/>
     <use xlink:href="#DejaVuSans-6d" x="138.183594"/>
     <use xlink:href="#DejaVuSans-62" x="235.595703"/>
     <use xlink:href="#DejaVuSans-65" x="299.072266"/>
     <use xlink:href="#DejaVuSans-72" x="360.595703"/>
     <use xlink:href="#DejaVuSans-20" x="401.708984"/>
     <use xlink:href="#DejaVuSans-6f" x="433.496094"/>
     <use xlink:href="#DejaVuSans-66" x="494.677734"/>
     <use xlink:href="#DejaVuSans-20" x="529.882812"/>
     <use xlink:href="#DejaVuSans-41" x="561.669922"/>
     <use xlink:href="#DejaVuSans-45" x="630.078125"/>
     <use xlink:href="#DejaVuSans-44" x="693.261719"/>
     <use xlink:href="#DejaVuSans-73" x="770.263672"/>
     <use xlink:href="#DejaVuSans-20" x="822.363281"/>
     <use xlink:href="#DejaVuSans-69" x="854.150391"/>
     <use xlink:href="#DejaVuSans-6e" x="881.933594"/>
     <use xlink:href="#DejaVuSans-20" x="945.3125"/>
     <use xlink:href="#DejaVuSans-74" x="977.099609"/>
     <use xlink:href="#DejaVuSans-68" x="1016.308594"/>
     <use xlink:href="#DejaVuSans-65" x="1079.6875"/>
     <use xlink:href="#DejaVuSans-20" x="1141.210938"/>
     <use xlink:href="#DejaVuSans-4f" x="1172.998047"/>
     <use xlink:href="#DejaVuSans-70" x="1251.708984"/>
     <use xlink:href="#DejaVuSans-65" x="1315.185547"/>
     <use xlink:href="#DejaVuSans-6e" x="1376.708984"/>
     <use xlink:href="#DejaVuSans-53" x="1440.087891"/>
     <use xlink:href="#DejaVuSans-74" x="1503.564453"/>
     <use xlink:href="#DejaVuSans-72" x="1542.773438"/>
     <use xlink:href="#DejaVuSans-65" x="1581.636719"/>
     <use xlink:href="#DejaVuSans-65" x="1643.160156"/>
     <use xlink:href="#DejaVuSans-74" x="1704.683594"/>
     <use xlink:href="#DejaVuSans-4d" x="1743.892578"/>
     <use xlink:href="#DejaVuSans-61" x="1830.171875"/>
     <use xlink:href="#DejaVuSans-70" x="1891.451172"/>
     <use xlink:href="#DejaVuSans-20" x="1954.927734"/>
     <use xlink:href="#DejaVuSans-64" x="1986.714844"/>
     <use xlink:href="#DejaVuSans-61" x="2050.191406"/>
     <use xlink:href="#DejaVuSans-74" x="2111.470703"/>
     <use xlink:href="#DejaVuSans-61" x="2150.679688"/>
     <use xlink:href="#DejaVuSans-62" x="2211.958984"/>
     <use xlink:href="#DejaVuSans-61" x="2275.435547"/>
     <use xlink:href="#DejaVuSans-73" x="2336.714844"/>
     <use xlink:href="#DejaVuSans-65" x="2388.814453"/>
     <use xlink:href="#DejaVuSans-20" x="2450.337891"/>
     <use xlink:href="#DejaVuSans-69" x="2482.125"/>
     <use xlink:href="#DejaVuSans-6e" x="2509.908203"/>
     <use xlink:href="#DejaVuSans-20" x="2573.287109"/>
     <use xlink:href="#DejaVuSans-50" x="2605.074219"/>
     <use xlink:href="#DejaVuSans-6f" x="2661.751953"/>
     <use xlink:href="#DejaVuSans-6c" x="2722.933594"/>
     <use xlink:href="#DejaVuSans-61" x="2750.716797"/>
     <use xlink:href="#DejaVuSans-6e" x="2811.996094"/>
     <use xlink:href="#DejaVuSans-64" x="2875.375"/>
     <use xlink:href="#DejaVuSans-20" x="2938.851562"/>
     <use xlink:href="#DejaVuSans-66" x="2970.638672"/>
     <use xlink:href="#DejaVuSans-72" x="3005.84375"/>
     <use xlink:href="#DejaVuSans-6f" x="3044.707031"/>
     <use xlink:href="#DejaVuSans-6d" x="3105.888672"/>
     <use xlink:href="#DejaVuSans-20" x="3203.300781"/>
     <use xlink:href="#DejaVuSans-32" x="3235.087891"/>
     <use xlink:href="#DejaVuSans-30" x="3298.710938"/>
     <use xlink:href="#DejaVuSans-32" x="3362.333984"/>
     <use xlink:href="#DejaVuSans-36" x="3425.957031"/>
     <use xlink:href="#DejaVuSans-2d" x="3489.580078"/>
     <use xlink:href="#DejaVuSans-30" x="3525.664062"/>
     <use xlink:href="#DejaVuSans-31" x="3589.287109"/>
     <use xlink:href="#DejaVuSans-2d" x="3652.910156"/>
     <use xlink:href="#DejaVuSans-30" x="3688.994141"/>
     <use xlink:href="#DejaVuSans-31" x="3752.617188"/>
     <use xlink:href="#DejaVuSans-2c" x="3816.240234"/>
     <use xlink:href="#DejaVuSans-20" x="3848.027344"/>
     <use xlink:href="#DejaVuSans-64" x="3879.814453"/>
     <use xlink:href="#DejaVuSans-61" x="3943.291016"/>
     <use xlink:href="#DejaVuSans-79" x="4004.570312"/>
     <use xlink:href="#DejaVuSans-20" x="4063.75"/>
     <use xlink:href="#DejaVuSans-62" x="4095.537109"/>
     <use xlink:href="#DejaVuSans-79" x="4159.013672"/>
     <use xlink:href="#DejaVuSans-20" x="4218.193359"/>
     <use xlink:href="#DejaVuSans-64" x="4249.980469"/>
     <use xlink:href="#DejaVuSans-61" x="4313.457031"/>
     <use xlink:href="#DejaVuSans-79" x="4374.736328"/>
     <use xlink:href="#DejaVuSans-2e" x="4419.666016"/>
     <use xlink:href="#DejaVuSans-20" x="4451.453125"/>
     <use xlink:href="#DejaVuSans-41" x="4483.240234"/>
     <use xlink:href="#DejaVuSans-73" x="4551.648438"/>
     <use xlink:href="#DejaVuSans-20" x="4603.748047"/>
     <use xlink:href="#DejaVuSans-61" x="4635.535156"/>
     <use xlink:href="#DejaVuSans-74" x="4696.814453"/>
     <use xlink:href="#DejaVuSans-3a" x="4736.023438"/>
     <use xlink:href="#DejaVuSans-20" x="4769.714844"/>
     <use xlink:href="#DejaVuSans-32" x="4801.501953"/>
     <use xlink:href="#DejaVuSans-30" x="4865.125"/>
     <use xlink:href="#DejaVuSans-32" x="4928.748047"/>
     <use xlink:href="#DejaVuSans-36" x="4992.371094"/>
     <use xlink:href="#DejaVuSans-2d" x="5055.994141"/>
     <use xlink:href="#DejaVuSans-30" x="5092.078125"/>
     <use xlink:href="#DejaVuSans-33" x="5155.701172"/>
     <use xlink:href="#DejaVuSans-2d" x="5219.324219"/>
     <use xlink:href="#DejaVuSans-30" x="5255.408203"/>
     <use xlink:href="#DejaVuSans-38" x="5319.03125"/>
    </g>
   </g>
  </g>
 </g>
 <defs>
  <clipPath id="p6c685c96de">
   <rect x="144" y="69.12" width="892.8" height="443.52"/>
  </clipPath>
 </defs>
</svg>
