<?xml version="1.0" encoding="utf-8" standalone="no"?>
<!DOCTYPE svg PUBLIC "-//W3C//DTD SVG 1.1//EN"
  "http://www.w3.org/Graphics/SVG/1.1/DTD/svg11.dtd">
<svg xmlns:xlink="http://www.w3.org/1999/xlink" width="1152pt" height="576pt" viewBox="0 0 1152 576" xmlns="http://www.w3.org/2000/svg" version="1.1">
 <metadata>
  <rdf:RDF xmlns:dc="http://purl.org/dc/elements/1.1/" xmlns:cc="http://creativecommons.org/ns#" xmlns:rdf="http://www.w3.org/1999/02/22-rdf-syntax-ns#">
   <cc:Work>
    <dc:type rdf:resource="http://purl.org/dc/dcmitype/StillImage"/>
    <dc:date>1980-01-01T00:00:00+00:00</dc:date>
    <dc:format>image/svg+xml</dc:format>
    <dc:creator>
     <cc:Agent>
      <dc:title>Matplotlib v3.9.1, https://matplotlib.org/</dc:title>
     </cc:Agent>
    </dc:creator>
   </cc:Work>
  </rdf:RDF>
 </metadata>
 <defs>
  <style type="text/css">*{stroke-linejoin: round; stroke-linecap: butt}</style>
 </defs>
 <g id="figure_1">
  <g id="patch_1">
   <path d="M 0 576 
L 1152 576 
L 1152 0 
L 0 0 
z
" style="fill: #ffffff"/>
  </g>
  <g id="axes_1">
   <g id="patch_2">
    <path d="M 144 512.64 
L 1036.8 512.64 
L 1036.8 69.12 
L 144 69.12 
z
" style="fill: #ffffff"/>
   </g>
   <g id="PathCollection_1">
    <path d="M 184.581818 494.716068 
C 185.17483 494.716068 185.743634 494.480462 186.162957 494.061139 
C 186.58228 493.641816 186.817886 493.073012 186.817886 492.48 
C 186.817886 491.886988 186.58228 491.318184 186.162957 490.898861 
C 185.743634 490.479538 185.17483 490.243932 184.581818 490.243932 
C 183.988806 490.243932 183.420002 490.479538 183.000679 490.898861 
C 182.581356 491.318184 182.34575 491.886988 182.34575 492.48 
C 182.34575 493.073012 182.581356 493.641816 183.000679 494.061139 
C 183.420002 494.480462 183.988806 494.716068 184.581818 494.716068 
z
" clip-path="url(#pfb6c2ab0b3)" style="fill: #1f77b4; fill-opacity: 0.3; stroke: #1f77b4; stroke-opacity: 0.3"/>
    <path d="M 204.377827 493.476491 
C 205.315462 493.476491 206.214819 493.103965 206.877827 492.440957 
C 207.540835 491.777949 207.913361 490.878592 207.913361 489.940957 
C 207.913361 489.003323 207.540835 488.103965 206.877827 487.440957 
C 206.214819 486.777949 205.315462 486.405423 204.377827 486.405423 
C 203.440192 486.405423 202.540835 486.777949 201.877827 487.440957 
C 201.214819 488.103965 200.842293 489.003323 200.842293 489.940957 
C 200.842293 490.878592 201.214819 491.777949 201.877827 492.440957 
C 202.540835 493.103965 203.440192 493.476491 204.377827 493.476491 
z
" clip-path="url(#pfb6c2ab0b3)" style="fill: #1f77b4; fill-opacity: 0.3; stroke: #1f77b4; stroke-opacity: 0.3"/>
    <path d="M 224.173836 488.447553 
C 225.797867 488.447553 227.3556 487.802319 228.503963 486.653956 
C 229.652326 485.505593 230.29756 483.947859 230.29756 482.323829 
C 230.29756 480.699798 229.652326 479.142065 228.503963 477.993702 
C 227.3556 476.845339 225.797867 476.200104 224.173836 476.200104 
C 222.549805 476.200104 220.992072 476.845339 219.843709 477.993702 
C 218.695346 479.142065 218.050112 480.699798 218.050112 482.323829 
C 218.050112 483.947859 218.695346 485.505593 219.843709 486.653956 
C 220.992072 487.802319 222.549805 488.447553 224.173836 488.447553 
z
" clip-path="url(#pfb6c2ab0b3)" style="fill: #1f77b4; fill-opacity: 0.3; stroke: #1f77b4; stroke-opacity: 0.3"/>
    <path d="M 243.969845 483.539016 
C 244.696133 483.539016 245.392773 483.250458 245.906336 482.736895 
C 246.4199 482.223331 246.708458 481.526692 246.708458 480.800403 
C 246.708458 480.074114 246.4199 479.377475 245.906336 478.863911 
C 245.392773 478.350348 244.696133 478.06179 243.969845 478.06179 
C 243.243556 478.06179 242.546917 478.350348 242.033353 478.863911 
C 241.51979 479.377475 241.231232 480.074114 241.231232 480.800403 
C 241.231232 481.526692 241.51979 482.223331 242.033353 482.736895 
C 242.546917 483.250458 243.243556 483.539016 243.969845 483.539016 
z
" clip-path="url(#pfb6c2ab0b3)" style="fill: #1f77b4; fill-opacity: 0.3; stroke: #1f77b4; stroke-opacity: 0.3"/>
    <path d="M 263.765854 481.21007 
C 264.951878 481.21007 266.089485 480.738858 266.928131 479.900212 
C 267.766777 479.061566 268.23799 477.923959 268.23799 476.737935 
C 268.23799 475.55191 267.766777 474.414303 266.928131 473.575657 
C 266.089485 472.737011 264.951878 472.265799 263.765854 472.265799 
C 262.579829 472.265799 261.442222 472.737011 260.603576 473.575657 
C 259.76493 474.414303 259.293718 475.55191 259.293718 476.737935 
C 259.293718 477.923959 259.76493 479.061566 260.603576 479.900212 
C 261.442222 480.738858 262.579829 481.21007 263.765854 481.21007 
z
" clip-path="url(#pfb6c2ab0b3)" style="fill: #1f77b4; fill-opacity: 0.3; stroke: #1f77b4; stroke-opacity: 0.3"/>
    <path d="M 283.561863 476.659849 
C 284.887878 476.659849 286.159762 476.133017 287.097396 475.195383 
C 288.035031 474.257748 288.561863 472.985864 288.561863 471.659849 
C 288.561863 470.333833 288.035031 469.06195 287.097396 468.124315 
C 286.159762 467.18668 284.887878 466.659849 283.561863 466.659849 
C 282.235847 466.659849 280.963963 467.18668 280.026329 468.124315 
C 279.088694 469.06195 278.561863 470.333833 278.561863 471.659849 
C 278.561863 472.985864 279.088694 474.257748 280.026329 475.195383 
C 280.963963 476.133017 282.235847 476.659849 283.561863 476.659849 
z
" clip-path="url(#pfb6c2ab0b3)" style="fill: #1f77b4; fill-opacity: 0.3; stroke: #1f77b4; stroke-opacity: 0.3"/>
    <path d="M 303.357871 472.8803 
C 303.950884 472.8803 304.519687 472.644693 304.93901 472.225371 
C 305.358333 471.806048 305.593939 471.237244 305.593939 470.644232 
C 305.593939 470.05122 305.358333 469.482416 304.93901 469.063093 
C 304.519687 468.64377 303.950884 468.408164 303.357871 468.408164 
C 302.764859 468.408164 302.196055 468.64377 301.776733 469.063093 
C 301.35741 469.482416 301.121803 470.05122 301.121803 470.644232 
C 301.121803 471.237244 301.35741 471.806048 301.776733 472.225371 
C 302.196055 472.644693 302.764859 472.8803 303.357871 472.8803 
z
" clip-path="url(#pfb6c2ab0b3)" style="fill: #1f77b4; fill-opacity: 0.3; stroke: #1f77b4; stroke-opacity: 0.3"/>
    <path d="M 323.15388 471.053899 
C 324.339905 471.053899 325.477512 470.582687 326.316158 469.744041 
C 327.154804 468.905395 327.626016 467.767788 327.626016 466.581763 
C 327.626016 465.395739 327.154804 464.258131 326.316158 463.419486 
C 325.477512 462.58084 324.339905 462.109627 323.15388 462.109627 
C 321.967856 462.109627 320.830248 462.58084 319.991603 463.419486 
C 319.152957 464.258131 318.681744 465.395739 318.681744 466.581763 
C 318.681744 467.767788 319.152957 468.905395 319.991603 469.744041 
C 320.830248 470.582687 321.967856 471.053899 323.15388 471.053899 
z
" clip-path="url(#pfb6c2ab0b3)" style="fill: #1f77b4; fill-opacity: 0.3; stroke: #1f77b4; stroke-opacity: 0.3"/>
    <path d="M 342.949889 467.79695 
C 343.676178 467.79695 344.372817 467.508393 344.886381 466.994829 
C 345.399944 466.481266 345.688502 465.784626 345.688502 465.058338 
C 345.688502 464.332049 345.399944 463.635409 344.886381 463.121846 
C 344.372817 462.608282 343.676178 462.319725 342.949889 462.319725 
C 342.223601 462.319725 341.526961 462.608282 341.013397 463.121846 
C 340.499834 463.635409 340.211276 464.332049 340.211276 465.058338 
C 340.211276 465.784626 340.499834 466.481266 341.013397 466.994829 
C 341.526961 467.508393 342.223601 467.79695 342.949889 467.79695 
z
" clip-path="url(#pfb6c2ab0b3)" style="fill: #1f77b4; fill-opacity: 0.3; stroke: #1f77b4; stroke-opacity: 0.3"/>
    <path d="M 362.745898 466.189381 
C 363.584544 466.189381 364.388954 465.856183 364.981966 465.263171 
C 365.574978 464.670159 365.908176 463.865749 365.908176 463.027103 
C 365.908176 462.188457 365.574978 461.384047 364.981966 460.791035 
C 364.388954 460.198023 363.584544 459.864826 362.745898 459.864826 
C 361.907252 459.864826 361.102842 460.198023 360.50983 460.791035 
C 359.916818 461.384047 359.58362 462.188457 359.58362 463.027103 
C 359.58362 463.865749 359.916818 464.670159 360.50983 465.263171 
C 361.102842 465.856183 361.907252 466.189381 362.745898 466.189381 
z
" clip-path="url(#pfb6c2ab0b3)" style="fill: #1f77b4; fill-opacity: 0.3; stroke: #1f77b4; stroke-opacity: 0.3"/>
    <path d="M 382.541907 464.247554 
C 383.134919 464.247554 383.703723 464.011948 384.123046 463.592625 
C 384.542369 463.173302 384.777975 462.604498 384.777975 462.011486 
C 384.777975 461.418474 384.542369 460.84967 384.123046 460.430347 
C 383.703723 460.011024 383.134919 459.775418 382.541907 459.775418 
C 381.948895 459.775418 381.380091 460.011024 380.960768 460.430347 
C 380.541445 460.84967 380.305839 461.418474 380.305839 462.011486 
C 380.305839 462.604498 380.541445 463.173302 380.960768 463.592625 
C 381.380091 464.011948 381.948895 464.247554 382.541907 464.247554 
z
" clip-path="url(#pfb6c2ab0b3)" style="fill: #1f77b4; fill-opacity: 0.3; stroke: #1f77b4; stroke-opacity: 0.3"/>
    <path d="M 402.337916 463.007977 
C 403.27555 463.007977 404.174908 462.635451 404.837916 461.972443 
C 405.500923 461.309436 405.87345 460.410078 405.87345 459.472443 
C 405.87345 458.534809 405.500923 457.635451 404.837916 456.972443 
C 404.174908 456.309436 403.27555 455.936909 402.337916 455.936909 
C 401.400281 455.936909 400.500923 456.309436 399.837916 456.972443 
C 399.174908 457.635451 398.802382 458.534809 398.802382 459.472443 
C 398.802382 460.410078 399.174908 461.309436 399.837916 461.972443 
C 400.500923 462.635451 401.400281 463.007977 402.337916 463.007977 
z
" clip-path="url(#pfb6c2ab0b3)" style="fill: #1f77b4; fill-opacity: 0.3; stroke: #1f77b4; stroke-opacity: 0.3"/>
    <path d="M 422.133925 460.603487 
C 422.97257 460.603487 423.77698 460.270289 424.369993 459.677277 
C 424.963005 459.084265 425.296202 458.279855 425.296202 457.441209 
C 425.296202 456.602563 424.963005 455.798153 424.369993 455.205141 
C 423.77698 454.612129 422.97257 454.278931 422.133925 454.278931 
C 421.295279 454.278931 420.490869 454.612129 419.897857 455.205141 
C 419.304844 455.798153 418.971647 456.602563 418.971647 457.441209 
C 418.971647 458.279855 419.304844 459.084265 419.897857 459.677277 
C 420.490869 460.270289 421.295279 460.603487 422.133925 460.603487 
z
" clip-path="url(#pfb6c2ab0b3)" style="fill: #1f77b4; fill-opacity: 0.3; stroke: #1f77b4; stroke-opacity: 0.3"/>
    <path d="M 441.929933 458.4377 
C 442.867568 458.4377 443.766926 458.065174 444.429933 457.402166 
C 445.092941 456.739158 445.465467 455.839801 445.465467 454.902166 
C 445.465467 453.964532 445.092941 453.065174 444.429933 452.402166 
C 443.766926 451.739158 442.867568 451.366632 441.929933 451.366632 
C 440.992299 451.366632 440.092941 451.739158 439.429933 452.402166 
C 438.766926 453.065174 438.3944 453.964532 438.3944 454.902166 
C 438.3944 455.839801 438.766926 456.739158 439.429933 457.402166 
C 440.092941 458.065174 440.992299 458.4377 441.929933 458.4377 
z
" clip-path="url(#pfb6c2ab0b3)" style="fill: #1f77b4; fill-opacity: 0.3; stroke: #1f77b4; stroke-opacity: 0.3"/>
    <path d="M 461.725942 455.898657 
C 462.663577 455.898657 463.562935 455.526131 464.225942 454.863123 
C 464.88895 454.200116 465.261476 453.300758 465.261476 452.363123 
C 465.261476 451.425489 464.88895 450.526131 464.225942 449.863123 
C 463.562935 449.200116 462.663577 448.82759 461.725942 448.82759 
C 460.788308 448.82759 459.88895 449.200116 459.225942 449.863123 
C 458.562935 450.526131 458.190408 451.425489 458.190408 452.363123 
C 458.190408 453.300758 458.562935 454.200116 459.225942 454.863123 
C 459.88895 455.526131 460.788308 455.898657 461.725942 455.898657 
z
" clip-path="url(#pfb6c2ab0b3)" style="fill: #1f77b4; fill-opacity: 0.3; stroke: #1f77b4; stroke-opacity: 0.3"/>
    <path d="M 481.521951 453.189255 
C 482.549078 453.189255 483.534275 452.781173 484.260564 452.054885 
C 484.986853 451.328596 485.394935 450.343399 485.394935 449.316272 
C 485.394935 448.289145 484.986853 447.303948 484.260564 446.577659 
C 483.534275 445.851371 482.549078 445.443289 481.521951 445.443289 
C 480.494824 445.443289 479.509627 445.851371 478.783338 446.577659 
C 478.05705 447.303948 477.648968 448.289145 477.648968 449.316272 
C 477.648968 450.343399 478.05705 451.328596 478.783338 452.054885 
C 479.509627 452.781173 480.494824 453.189255 481.521951 453.189255 
z
" clip-path="url(#pfb6c2ab0b3)" style="fill: #1f77b4; fill-opacity: 0.3; stroke: #1f77b4; stroke-opacity: 0.3"/>
    <path d="M 501.31796 450.312763 
C 502.255595 450.312763 503.154952 449.940237 503.81796 449.277229 
C 504.480968 448.614221 504.853494 447.714864 504.853494 446.777229 
C 504.853494 445.839595 504.480968 444.940237 503.81796 444.277229 
C 503.154952 443.614221 502.255595 443.241695 501.31796 443.241695 
C 500.380326 443.241695 499.480968 443.614221 498.81796 444.277229 
C 498.154952 444.940237 497.782426 445.839595 497.782426 446.777229 
C 497.782426 447.714864 498.154952 448.614221 498.81796 449.277229 
C 499.480968 449.940237 500.380326 450.312763 501.31796 450.312763 
z
" clip-path="url(#pfb6c2ab0b3)" style="fill: #1f77b4; fill-opacity: 0.3; stroke: #1f77b4; stroke-opacity: 0.3"/>
    <path d="M 521.113969 447.603361 
C 522.141096 447.603361 523.126293 447.195279 523.852582 446.468991 
C 524.57887 445.742702 524.986952 444.757505 524.986952 443.730378 
C 524.986952 442.703251 524.57887 441.718054 523.852582 440.991765 
C 523.126293 440.265476 522.141096 439.857394 521.113969 439.857394 
C 520.086842 439.857394 519.101645 440.265476 518.375356 440.991765 
C 517.649068 441.718054 517.240986 442.703251 517.240986 443.730378 
C 517.240986 444.757505 517.649068 445.742702 518.375356 446.468991 
C 519.101645 447.195279 520.086842 447.603361 521.113969 447.603361 
z
" clip-path="url(#pfb6c2ab0b3)" style="fill: #1f77b4; fill-opacity: 0.3; stroke: #1f77b4; stroke-opacity: 0.3"/>
    <path d="M 540.909978 444.359018 
C 542.019402 444.359018 543.083536 443.918239 543.868018 443.133758 
C 544.652499 442.349276 545.093278 441.285142 545.093278 440.175718 
C 545.093278 439.066294 544.652499 438.002159 543.868018 437.217678 
C 543.083536 436.433197 542.019402 435.992418 540.909978 435.992418 
C 539.800554 435.992418 538.736419 436.433197 537.951938 437.217678 
C 537.167457 438.002159 536.726678 439.066294 536.726678 440.175718 
C 536.726678 441.285142 537.167457 442.349276 537.951938 443.133758 
C 538.736419 443.918239 539.800554 444.359018 540.909978 444.359018 
z
" clip-path="url(#pfb6c2ab0b3)" style="fill: #1f77b4; fill-opacity: 0.3; stroke: #1f77b4; stroke-opacity: 0.3"/>
    <path d="M 560.705987 440.348857 
C 561.963955 440.348857 563.17057 439.849061 564.060089 438.959543 
C 564.949607 438.070025 565.449403 436.86341 565.449403 435.605441 
C 565.449403 434.347472 564.949607 433.140857 564.060089 432.251339 
C 563.17057 431.361821 561.963955 430.862024 560.705987 430.862024 
C 559.448018 430.862024 558.241403 431.361821 557.351885 432.251339 
C 556.462366 433.140857 555.96257 434.347472 555.96257 435.605441 
C 555.96257 436.86341 556.462366 438.070025 557.351885 438.959543 
C 558.241403 439.849061 559.448018 440.348857 560.705987 440.348857 
z
" clip-path="url(#pfb6c2ab0b3)" style="fill: #1f77b4; fill-opacity: 0.3; stroke: #1f77b4; stroke-opacity: 0.3"/>
    <path d="M 580.501996 436.431573 
C 581.529123 436.431573 582.51432 436.023491 583.240608 435.297202 
C 583.966897 434.570914 584.374979 433.585717 584.374979 432.558589 
C 584.374979 431.531462 583.966897 430.546265 583.240608 429.819977 
C 582.51432 429.093688 581.529123 428.685606 580.501996 428.685606 
C 579.474868 428.685606 578.489671 429.093688 577.763383 429.819977 
C 577.037094 430.546265 576.629012 431.531462 576.629012 432.558589 
C 576.629012 433.585717 577.037094 434.570914 577.763383 435.297202 
C 578.489671 436.023491 579.474868 436.431573 580.501996 436.431573 
z
" clip-path="url(#pfb6c2ab0b3)" style="fill: #1f77b4; fill-opacity: 0.3; stroke: #1f77b4; stroke-opacity: 0.3"/>
    <path d="M 600.298004 432.216739 
C 601.688741 432.216739 603.022704 431.664194 604.006104 430.680794 
C 604.989503 429.697395 605.542049 428.363432 605.542049 426.972695 
C 605.542049 425.581958 604.989503 424.247995 604.006104 423.264596 
C 603.022704 422.281197 601.688741 421.728651 600.298004 421.728651 
C 598.907268 421.728651 597.573305 422.281197 596.589905 423.264596 
C 595.606506 424.247995 595.05396 425.581958 595.05396 426.972695 
C 595.05396 428.363432 595.606506 429.697395 596.589905 430.680794 
C 597.573305 431.664194 598.907268 432.216739 600.298004 432.216739 
z
" clip-path="url(#pfb6c2ab0b3)" style="fill: #1f77b4; fill-opacity: 0.3; stroke: #1f77b4; stroke-opacity: 0.3"/>
    <path d="M 620.094013 425.172314 
C 621.771305 425.172314 623.380125 424.505918 624.566149 423.319894 
C 625.752174 422.13387 626.418569 420.52505 626.418569 418.847758 
C 626.418569 417.170467 625.752174 415.561647 624.566149 414.375622 
C 623.380125 413.189598 621.771305 412.523203 620.094013 412.523203 
C 618.416722 412.523203 616.807902 413.189598 615.621877 414.375622 
C 614.435853 415.561647 613.769458 417.170467 613.769458 418.847758 
C 613.769458 420.52505 614.435853 422.13387 615.621877 423.319894 
C 616.807902 424.505918 618.416722 425.172314 620.094013 425.172314 
z
" clip-path="url(#pfb6c2ab0b3)" style="fill: #1f77b4; fill-opacity: 0.3; stroke: #1f77b4; stroke-opacity: 0.3"/>
    <path d="M 639.890022 414.406319 
C 641.944277 414.406319 643.914671 413.590155 645.367248 412.137578 
C 646.819825 410.685001 647.635989 408.714607 647.635989 406.660353 
C 647.635989 404.606098 646.819825 402.635704 645.367248 401.183127 
C 643.914671 399.73055 641.944277 398.914386 639.890022 398.914386 
C 637.835768 398.914386 635.865374 399.73055 634.412797 401.183127 
C 632.960219 402.635704 632.144055 404.606098 632.144055 406.660353 
C 632.144055 408.714607 632.960219 410.685001 634.412797 412.137578 
C 635.865374 413.590155 637.835768 414.406319 639.890022 414.406319 
z
" clip-path="url(#pfb6c2ab0b3)" style="fill: #1f77b4; fill-opacity: 0.3; stroke: #1f77b4; stroke-opacity: 0.3"/>
    <path d="M 659.686031 407.288993 
C 660.795455 407.288993 661.85959 406.848214 662.644071 406.063733 
C 663.428552 405.279251 663.869331 404.215117 663.869331 403.105693 
C 663.869331 401.996269 663.428552 400.932134 662.644071 400.147653 
C 661.85959 399.363171 660.795455 398.922393 659.686031 398.922393 
C 658.576607 398.922393 657.512472 399.363171 656.727991 400.147653 
C 655.94351 400.932134 655.502731 401.996269 655.502731 403.105693 
C 655.502731 404.215117 655.94351 405.279251 656.727991 406.063733 
C 657.512472 406.848214 658.576607 407.288993 659.686031 407.288993 
z
" clip-path="url(#pfb6c2ab0b3)" style="fill: #1f77b4; fill-opacity: 0.3; stroke: #1f77b4; stroke-opacity: 0.3"/>
    <path d="M 679.48204 402.205058 
C 680.99393 402.205058 682.444101 401.604378 683.513169 400.53531 
C 684.582237 399.466242 685.182917 398.016072 685.182917 396.504181 
C 685.182917 394.992291 684.582237 393.54212 683.513169 392.473052 
C 682.444101 391.403985 680.99393 390.803304 679.48204 390.803304 
C 677.97015 390.803304 676.519979 391.403985 675.450911 392.473052 
C 674.381843 393.54212 673.781163 394.992291 673.781163 396.504181 
C 673.781163 398.016072 674.381843 399.466242 675.450911 400.53531 
C 676.519979 401.604378 677.97015 402.205058 679.48204 402.205058 
z
" clip-path="url(#pfb6c2ab0b3)" style="fill: #1f77b4; fill-opacity: 0.3; stroke: #1f77b4; stroke-opacity: 0.3"/>
    <path d="M 699.278049 395.310941 
C 700.847011 395.310941 702.351925 394.687586 703.461349 393.578162 
C 704.570773 392.468737 705.194129 390.963824 705.194129 389.394861 
C 705.194129 387.825899 704.570773 386.320985 703.461349 385.211561 
C 702.351925 384.102137 700.847011 383.478782 699.278049 383.478782 
C 697.709086 383.478782 696.204173 384.102137 695.094749 385.211561 
C 693.985324 386.320985 693.361969 387.825899 693.361969 389.394861 
C 693.361969 390.963824 693.985324 392.468737 695.094749 393.578162 
C 696.204173 394.687586 697.709086 395.310941 699.278049 395.310941 
z
" clip-path="url(#pfb6c2ab0b3)" style="fill: #1f77b4; fill-opacity: 0.3; stroke: #1f77b4; stroke-opacity: 0.3"/>
    <path d="M 719.074058 381.72013 
C 721.482884 381.72013 723.793376 380.763093 725.496674 379.059795 
C 727.199972 377.356497 728.157009 375.046006 728.157009 372.637179 
C 728.157009 370.228352 727.199972 367.91786 725.496674 366.214563 
C 723.793376 364.511265 721.482884 363.554228 719.074058 363.554228 
C 716.665231 363.554228 714.354739 364.511265 712.651441 366.214563 
C 710.948144 367.91786 709.991107 370.228352 709.991107 372.637179 
C 709.991107 375.046006 710.948144 377.356497 712.651441 379.059795 
C 714.354739 380.763093 716.665231 381.72013 719.074058 381.72013 
z
" clip-path="url(#pfb6c2ab0b3)" style="fill: #1f77b4; fill-opacity: 0.3; stroke: #1f77b4; stroke-opacity: 0.3"/>
    <path d="M 738.870067 365.698522 
C 741.204758 365.698522 743.44414 364.770939 745.095016 363.120063 
C 746.745892 361.469187 747.673475 359.229805 747.673475 356.895113 
C 747.673475 354.560422 746.745892 352.32104 745.095016 350.670164 
C 743.44414 349.019288 741.204758 348.091705 738.870067 348.091705 
C 736.535375 348.091705 734.295993 349.019288 732.645117 350.670164 
C 730.994241 352.32104 730.066658 354.560422 730.066658 356.895113 
C 730.066658 359.229805 730.994241 361.469187 732.645117 363.120063 
C 734.295993 364.770939 736.535375 365.698522 738.870067 365.698522 
z
" clip-path="url(#pfb6c2ab0b3)" style="fill: #1f77b4; fill-opacity: 0.3; stroke: #1f77b4; stroke-opacity: 0.3"/>
    <path d="M 758.666075 349.220382 
C 761.074902 349.220382 763.385394 348.263345 765.088692 346.560047 
C 766.791989 344.856749 767.749026 342.546258 767.749026 340.137431 
C 767.749026 337.728604 766.791989 335.418112 765.088692 333.714814 
C 763.385394 332.011517 761.074902 331.05448 758.666075 331.05448 
C 756.257249 331.05448 753.946757 332.011517 752.243459 333.714814 
C 750.540161 335.418112 749.583124 337.728604 749.583124 340.137431 
C 749.583124 342.546258 750.540161 344.856749 752.243459 346.560047 
C 753.946757 348.263345 756.257249 349.220382 758.666075 349.220382 
z
" clip-path="url(#pfb6c2ab0b3)" style="fill: #1f77b4; fill-opacity: 0.3; stroke: #1f77b4; stroke-opacity: 0.3"/>
    <path d="M 778.462084 331.343155 
C 780.978022 331.343155 783.391252 330.343563 785.170288 328.564526 
C 786.949325 326.78549 787.948917 324.37226 787.948917 321.856322 
C 787.948917 319.340385 786.949325 316.927155 785.170288 315.148118 
C 783.391252 313.369082 780.978022 312.369489 778.462084 312.369489 
C 775.946147 312.369489 773.532917 313.369082 771.75388 315.148118 
C 769.974844 316.927155 768.975251 319.340385 768.975251 321.856322 
C 768.975251 324.37226 769.974844 326.78549 771.75388 328.564526 
C 773.532917 330.343563 775.946147 331.343155 778.462084 331.343155 
z
" clip-path="url(#pfb6c2ab0b3)" style="fill: #1f77b4; fill-opacity: 0.3; stroke: #1f77b4; stroke-opacity: 0.3"/>
    <path d="M 798.258093 319.099984 
C 800.085879 319.099984 801.83905 318.373797 803.13149 317.081357 
C 804.42393 315.788917 805.150118 314.035746 805.150118 312.20796 
C 805.150118 310.380173 804.42393 308.627003 803.13149 307.334563 
C 801.83905 306.042122 800.085879 305.315935 798.258093 305.315935 
C 796.430307 305.315935 794.677136 306.042122 793.384696 307.334563 
C 792.092256 308.627003 791.366069 310.380173 791.366069 312.20796 
C 791.366069 314.035746 792.092256 315.788917 793.384696 317.081357 
C 794.677136 318.373797 796.430307 319.099984 798.258093 319.099984 
z
" clip-path="url(#pfb6c2ab0b3)" style="fill: #1f77b4; fill-opacity: 0.3; stroke: #1f77b4; stroke-opacity: 0.3"/>
    <path d="M 818.054102 312.381099 
C 819.312071 312.381099 820.518686 311.881303 821.408204 310.991785 
C 822.297722 310.102266 822.797518 308.895651 822.797518 307.637683 
C 822.797518 306.379714 822.297722 305.173099 821.408204 304.283581 
C 820.518686 303.394062 819.312071 302.894266 818.054102 302.894266 
C 816.796133 302.894266 815.589518 303.394062 814.7 304.283581 
C 813.810482 305.173099 813.310686 306.379714 813.310686 307.637683 
C 813.310686 308.895651 813.810482 310.102266 814.7 310.991785 
C 815.589518 311.881303 816.796133 312.381099 818.054102 312.381099 
z
" clip-path="url(#pfb6c2ab0b3)" style="fill: #1f77b4; fill-opacity: 0.3; stroke: #1f77b4; stroke-opacity: 0.3"/>
    <path d="M 837.850111 306.144279 
C 839.474142 306.144279 841.031875 305.499044 842.180238 304.350681 
C 843.328601 303.202318 843.973835 301.644585 843.973835 300.020554 
C 843.973835 298.396523 843.328601 296.83879 842.180238 295.690427 
C 841.031875 294.542064 839.474142 293.89683 837.850111 293.89683 
C 836.22608 293.89683 834.668347 294.542064 833.519984 295.690427 
C 832.371621 296.83879 831.726387 298.396523 831.726387 300.020554 
C 831.726387 301.644585 832.371621 303.202318 833.519984 304.350681 
C 834.668347 305.499044 836.22608 306.144279 837.850111 306.144279 
z
" clip-path="url(#pfb6c2ab0b3)" style="fill: #1f77b4; fill-opacity: 0.3; stroke: #1f77b4; stroke-opacity: 0.3"/>
    <path d="M 857.64612 283.012802 
C 860.811938 283.012802 863.848519 281.755009 866.087091 279.516438 
C 868.325663 277.277866 869.583456 274.241285 869.583456 271.075466 
C 869.583456 267.909647 868.325663 264.873066 866.087091 262.634494 
C 863.848519 260.395923 860.811938 259.13813 857.64612 259.13813 
C 854.480301 259.13813 851.44372 260.395923 849.205148 262.634494 
C 846.966576 264.873066 845.708783 267.909647 845.708783 271.075466 
C 845.708783 274.241285 846.966576 277.277866 849.205148 279.516438 
C 851.44372 281.755009 854.480301 283.012802 857.64612 283.012802 
z
" clip-path="url(#pfb6c2ab0b3)" style="fill: #1f77b4; fill-opacity: 0.3; stroke: #1f77b4; stroke-opacity: 0.3"/>
    <path d="M 877.442129 232.231907 
C 881.819988 232.231907 886.019132 230.492564 889.114746 227.39695 
C 892.21036 224.301336 893.949703 220.102192 893.949703 215.724332 
C 893.949703 211.346473 892.21036 207.147329 889.114746 204.051715 
C 886.019132 200.956101 881.819988 199.216758 877.442129 199.216758 
C 873.064269 199.216758 868.865125 200.956101 865.769511 204.051715 
C 862.673897 207.147329 860.934555 211.346473 860.934555 215.724332 
C 860.934555 220.102192 862.673897 224.301336 865.769511 227.39695 
C 868.865125 230.492564 873.064269 232.231907 877.442129 232.231907 
z
" clip-path="url(#pfb6c2ab0b3)" style="fill: #1f77b4; fill-opacity: 0.3; stroke: #1f77b4; stroke-opacity: 0.3"/>
    <path d="M 897.238137 202.697072 
C 900.112871 202.697072 902.870249 201.554928 904.902992 199.522185 
C 906.935736 197.489442 908.077879 194.732063 908.077879 191.85733 
C 908.077879 188.982597 906.935736 186.225218 904.902992 184.192475 
C 902.870249 182.159732 900.112871 181.017588 897.238137 181.017588 
C 894.363404 181.017588 891.606026 182.159732 889.573283 184.192475 
C 887.540539 186.225218 886.398396 188.982597 886.398396 191.85733 
C 886.398396 194.732063 887.540539 197.489442 889.573283 199.522185 
C 891.606026 201.554928 894.363404 202.697072 897.238137 202.697072 
z
" clip-path="url(#pfb6c2ab0b3)" style="fill: #1f77b4; fill-opacity: 0.3; stroke: #1f77b4; stroke-opacity: 0.3"/>
    <path d="M 917.034146 170.364752 
C 920.491972 170.364752 923.808639 168.990944 926.253691 166.545892 
C 928.698743 164.10084 930.072551 160.784173 930.072551 157.326348 
C 930.072551 153.868522 928.698743 150.551855 926.253691 148.106803 
C 923.808639 145.661751 920.491972 144.287943 917.034146 144.287943 
C 913.576321 144.287943 910.259654 145.661751 907.814602 148.106803 
C 905.36955 150.551855 903.995742 153.868522 903.995742 157.326348 
C 903.995742 160.784173 905.36955 164.10084 907.814602 166.545892 
C 910.259654 168.990944 913.576321 170.364752 917.034146 170.364752 
z
" clip-path="url(#pfb6c2ab0b3)" style="fill: #1f77b4; fill-opacity: 0.3; stroke: #1f77b4; stroke-opacity: 0.3"/>
    <path d="M 936.830155 153.908056 
C 938.751734 153.908056 940.594869 153.144605 941.953631 151.785843 
C 943.312392 150.427082 944.075844 148.583947 944.075844 146.662368 
C 944.075844 144.740789 943.312392 142.897654 941.953631 141.538892 
C 940.594869 140.180131 938.751734 139.416679 936.830155 139.416679 
C 934.908576 139.416679 933.065441 140.180131 931.70668 141.538892 
C 930.347918 142.897654 929.584467 144.740789 929.584467 146.662368 
C 929.584467 148.583947 930.347918 150.427082 931.70668 151.785843 
C 933.065441 153.144605 934.908576 153.908056 936.830155 153.908056 
z
" clip-path="url(#pfb6c2ab0b3)" style="fill: #1f77b4; fill-opacity: 0.3; stroke: #1f77b4; stroke-opacity: 0.3"/>
    <path d="M 956.626164 138.616421 
C 959.071216 138.616421 961.416454 137.644992 963.145366 135.916079 
C 964.874279 134.187166 965.845709 131.841928 965.845709 129.396877 
C 965.845709 126.951825 964.874279 124.606587 963.145366 122.877674 
C 961.416454 121.148761 959.071216 120.177332 956.626164 120.177332 
C 954.181112 120.177332 951.835874 121.148761 950.106962 122.877674 
C 948.378049 124.606587 947.40662 126.951825 947.40662 129.396877 
C 947.40662 131.841928 948.378049 134.187166 950.106962 135.916079 
C 951.835874 137.644992 954.181112 138.616421 956.626164 138.616421 
z
" clip-path="url(#pfb6c2ab0b3)" style="fill: #1f77b4; fill-opacity: 0.3; stroke: #1f77b4; stroke-opacity: 0.3"/>
    <path d="M 976.422173 115.976517 
C 979.327327 115.976517 982.113885 114.822287 984.16814 112.768032 
C 986.222394 110.713778 987.376624 107.92722 987.376624 105.022065 
C 987.376624 102.116911 986.222394 99.330353 984.16814 97.276099 
C 982.113885 95.221844 979.327327 94.067614 976.422173 94.067614 
C 973.517019 94.067614 970.730461 95.221844 968.676206 97.276099 
C 966.621952 99.330353 965.467722 102.116911 965.467722 105.022065 
C 965.467722 107.92722 966.621952 110.713778 968.676206 112.768032 
C 970.730461 114.822287 973.517019 115.976517 976.422173 115.976517 
z
" clip-path="url(#pfb6c2ab0b3)" style="fill: #1f77b4; fill-opacity: 0.3; stroke: #1f77b4; stroke-opacity: 0.3"/>
    <path d="M 996.218182 98.083408 
C 998.552873 98.083408 1000.792256 97.155826 1002.443132 95.50495 
C 1004.094008 93.854074 1005.02159 91.614691 1005.02159 89.28 
C 1005.02159 86.945309 1004.094008 84.705926 1002.443132 83.05505 
C 1000.792256 81.404174 998.552873 80.476592 996.218182 80.476592 
C 993.883491 80.476592 991.644108 81.404174 989.993232 83.05505 
C 988.342356 84.705926 987.414773 86.945309 987.414773 89.28 
C 987.414773 91.614691 988.342356 93.854074 989.993232 95.50495 
C 991.644108 97.155826 993.883491 98.083408 996.218182 98.083408 
z
" clip-path="url(#pfb6c2ab0b3)" style="fill: #1f77b4; fill-opacity: 0.3; stroke: #1f77b4; stroke-opacity: 0.3"/>
   </g>
   <g id="matplotlib.axis_1">
    <g id="xtick_1">
     <g id="line2d_1">
      <defs>
       <path id="m8366b856cc" d="M 0 0 
L 0 3.5 
" style="stroke: #000000; stroke-width: 0.8"/>
      </defs>
      <g>
       <use xlink:href="#m8366b856cc" x="184.581818" y="512.64" style="stroke: #000000; stroke-width: 0.8"/>
      </g>
     </g>
     <g id="text_1">
      <!-- 2025-01-01 -->
      <g transform="translate(155.524006 527.238438) scale(0.1 -0.1)">
       <defs>
        <path id="DejaVuSans-32" d="M 1228 531 
L 3431 531 
L 3431 0 
L 469 0 
L 469 531 
Q 828 903 1448 1529 
Q 2069 2156 2228 2338 
Q 2531 2678 2651 2914 
Q 2772 3150 2772 3378 
Q 2772 3750 2511 3984 
Q 2250 4219 1831 4219 
Q 1534 4219 1204 4116 
Q 875 4013 500 3803 
L 500 4441 
Q 881 4594 1212 4672 
Q 1544 4750 1819 4750 
Q 2544 4750 2975 4387 
Q 3406 4025 3406 3419 
Q 3406 3131 3298 2873 
Q 3191 2616 2906 2266 
Q 2828 2175 2409 1742 
Q 1991 1309 1228 531 
z
" transform="scale(0.015625)"/>
        <path id="DejaVuSans-30" d="M 2034 4250 
Q 1547 4250 1301 3770 
Q 1056 3291 1056 2328 
Q 1056 1369 1301 889 
Q 1547 409 2034 409 
Q 2525 409 2770 889 
Q 3016 1369 3016 2328 
Q 3016 3291 2770 3770 
Q 2525 4250 2034 4250 
z
M 2034 4750 
Q 2819 4750 3233 4129 
Q 3647 3509 3647 2328 
Q 3647 1150 3233 529 
Q 2819 -91 2034 -91 
Q 1250 -91 836 529 
Q 422 1150 422 2328 
Q 422 3509 836 4129 
Q 1250 4750 2034 4750 
z
" transform="scale(0.015625)"/>
        <path id="DejaVuSans-35" d="M 691 4666 
L 3169 4666 
L 3169 4134 
L 1269 4134 
L 1269 2991 
Q 1406 3038 1543 3061 
Q 1681 3084 1819 3084 
Q 2600 3084 3056 2656 
Q 3513 2228 3513 1497 
Q 3513 744 3044 326 
Q 2575 -91 1722 -91 
Q 1428 -91 1123 -41 
Q 819 9 494 109 
L 494 744 
Q 775 591 1075 516 
Q 1375 441 1709 441 
Q 2250 441 2565 725 
Q 2881 1009 2881 1497 
Q 2881 1984 2565 2268 
Q 2250 2553 1709 2553 
Q 1456 2553 1204 2497 
Q 953 2441 691 2322 
L 691 4666 
z
" transform="scale(0.015625)"/>
        <path id="DejaVuSans-2d" d="M 313 2009 
L 1997 2009 
L 1997 1497 
L 313 1497 
L 313 2009 
z
" transform="scale(0.015625)"/>
        <path id="DejaVuSans-31" d="M 794 531 
L 1825 531 
L 1825 4091 
L 703 3866 
L 703 4441 
L 1819 4666 
L 2450 4666 
L 2450 531 
L 3481 531 
L 3481 0 
L 794 0 
L 794 531 
z
" transform="scale(0.015625)"/>
       </defs>
       <use xlink:href="#DejaVuSans-32"/>
       <use xlink:href="#DejaVuSans-30" x="63.623047"/>
       <use xlink:href="#DejaVuSans-32" x="127.246094"/>
       <use xlink:href="#DejaVuSans-35" x="190.869141"/>
       <use xlink:href="#DejaVuSans-2d" x="254.492188"/>
       <use xlink:href="#DejaVuSans-30" x="290.576172"/>
       <use xlink:href="#DejaVuSans-31" x="354.199219"/>
       <use xlink:href="#DejaVuSans-2d" x="417.822266"/>
       <use xlink:href="#DejaVuSans-30" x="453.90625"/>
       <use xlink:href="#DejaVuSans-31" x="517.529297"/>
      </g>
     </g>
    </g>
    <g id="xtick_2">
     <g id="line2d_2">
      <g>
       <use xlink:href="#m8366b856cc" x="323.15388" y="512.64" style="stroke: #000000; stroke-width: 0.8"/>
      </g>
     </g>
     <g id="text_2">
      <!-- 2025-01-08 -->
      <g transform="translate(294.096068 527.238438) scale(0.1 -0.1)">
       <defs>
        <path id="DejaVuSans-38" d="M 2034 2216 
Q 1584 2216 1326 1975 
Q 1069 1734 1069 1313 
Q 1069 891 1326 650 
Q 1584 409 2034 409 
Q 2484 409 2743 651 
Q 3003 894 3003 1313 
Q 3003 1734 2745 1975 
Q 2488 2216 2034 2216 
z
M 1403 2484 
Q 997 2584 770 2862 
Q 544 3141 544 3541 
Q 544 4100 942 4425 
Q 1341 4750 2034 4750 
Q 2731 4750 3128 4425 
Q 3525 4100 3525 3541 
Q 3525 3141 3298 2862 
Q 3072 2584 2669 2484 
Q 3125 2378 3379 2068 
Q 3634 1759 3634 1313 
Q 3634 634 3220 271 
Q 2806 -91 2034 -91 
Q 1263 -91 848 271 
Q 434 634 434 1313 
Q 434 1759 690 2068 
Q 947 2378 1403 2484 
z
M 1172 3481 
Q 1172 3119 1398 2916 
Q 1625 2713 2034 2713 
Q 2441 2713 2670 2916 
Q 2900 3119 2900 3481 
Q 2900 3844 2670 4047 
Q 2441 4250 2034 4250 
Q 1625 4250 1398 4047 
Q 1172 3844 1172 3481 
z
" transform="scale(0.015625)"/>
       </defs>
       <use xlink:href="#DejaVuSans-32"/>
       <use xlink:href="#DejaVuSans-30" x="63.623047"/>
       <use xlink:href="#DejaVuSans-32" x="127.246094"/>
       <use xlink:href="#DejaVuSans-35" x="190.869141"/>
       <use xlink:href="#DejaVuSans-2d" x="254.492188"/>
       <use xlink:href="#DejaVuSans-30" x="290.576172"/>
       <use xlink:href="#DejaVuSans-31" x="354.199219"/>
       <use xlink:href="#DejaVuSans-2d" x="417.822266"/>
       <use xlink:href="#DejaVuSans-30" x="453.90625"/>
       <use xlink:href="#DejaVuSans-38" x="517.529297"/>
      </g>
     </g>
    </g>
    <g id="xtick_3">
     <g id="line2d_3">
      <g>
       <use xlink:href="#m8366b856cc" x="461.725942" y="512.64" style="stroke: #000000; stroke-width: 0.8"/>
      </g>
     </g>
     <g id="text_3">
      <!-- 2025-01-15 -->
      <g transform="translate(432.66813 527.238438) scale(0.1 -0.1)">
       <use xlink:href="#DejaVuSans-32"/>
       <use xlink:href="#DejaVuSans-30" x="63.623047"/>
       <use xlink:href="#DejaVuSans-32" x="127.246094"/>
       <use xlink:href="#DejaVuSans-35" x="190.869141"/>
       <use xlink:href="#DejaVuSans-2d" x="254.492188"/>
       <use xlink:href="#DejaVuSans-30" x="290.576172"/>
       <use xlink:href="#DejaVuSans-31" x="354.199219"/>
       <use xlink:href="#DejaVuSans-2d" x="417.822266"/>
       <use xlink:href="#DejaVuSans-31" x="453.90625"/>
       <use xlink:href="#DejaVuSans-35" x="517.529297"/>
      </g>
     </g>
    </g>
    <g id="xtick_4">
     <g id="line2d_4">
      <g>
       <use xlink:href="#m8366b856cc" x="600.298004" y="512.64" style="stroke: #000000; stroke-width: 0.8"/>
      </g>
     </g>
     <g id="text_4">
      <!-- 2025-01-22 -->
      <g transform="translate(571.240192 527.238438) scale(0.1 -0.1)">
       <use xlink:href="#DejaVuSans-32"/>
       <use xlink:href="#DejaVuSans-30" x="63.623047"/>
       <use xlink:href="#DejaVuSans-32" x="127.246094"/>
       <use xlink:href="#DejaVuSans-35" x="190.869141"/>
       <use xlink:href="#DejaVuSans-2d" x="254.492188"/>
       <use xlink:href="#DejaVuSans-30" x="290.576172"/>
       <use xlink:href="#DejaVuSans-31" x="354.199219"/>
       <use xlink:href="#DejaVuSans-2d" x="417.822266"/>
       <use xlink:href="#DejaVuSans-32" x="453.90625"/>
       <use xlink:href="#DejaVuSans-32" x="517.529297"/>
      </g>
     </g>
    </g>
    <g id="xtick_5">
     <g id="line2d_5">
      <g>
       <use xlink:href="#m8366b856cc" x="798.258093" y="512.64" style="stroke: #000000; stroke-width: 0.8"/>
      </g>
     </g>
     <g id="text_5">
      <!-- 2025-02-01 -->
      <g transform="translate(769.200281 527.238438) scale(0.1 -0.1)">
       <use xlink:href="#DejaVuSans-32"/>
       <use xlink:href="#DejaVuSans-30" x="63.623047"/>
       <use xlink:href="#DejaVuSans-32" x="127.246094"/>
       <use xlink:href="#DejaVuSans-35" x="190.869141"/>
       <use xlink:href="#DejaVuSans-2d" x="254.492188"/>
       <use xlink:href="#DejaVuSans-30" x="290.576172"/>
       <use xlink:href="#DejaVuSans-32" x="354.199219"/>
       <use xlink:href="#DejaVuSans-2d" x="417.822266"/>
       <use xlink:href="#DejaVuSans-30" x="453.90625"/>
       <use xlink:href="#DejaVuSans-31" x="517.529297"/>
      </g>
     </g>
    </g>
    <g id="xtick_6">
     <g id="line2d_6">
      <g>
       <use xlink:href="#m8366b856cc" x="936.830155" y="512.64" style="stroke: #000000; stroke-width: 0.8"/>
      </g>
     </g>
     <g id="text_6">
      <!-- 2025-02-08 -->
      <g transform="translate(907.772343 527.238438) scale(0.1 -0.1)">
       <use xlink:href="#DejaVuSans-32"/>
       <use xlink:href="#DejaVuSans-30" x="63.623047"/>
       <use xlink:href="#DejaVuSans-32" x="127.246094"/>
       <use xlink:href="#DejaVuSans-35" x="190.869141"/>
       <use xlink:href="#DejaVuSans-2d" x="254.492188"/>
       <use xlink:href="#DejaVuSans-30" x="290.576172"/>
       <use xlink:href="#DejaVuSans-32" x="354.199219"/>
       <use xlink:href="#DejaVuSans-2d" x="417.822266"/>
       <use xlink:href="#DejaVuSans-30" x="453.90625"/>
       <use xlink:href="#DejaVuSans-38" x="517.529297"/>
      </g>
     </g>
    </g>
   </g>
   <g id="matplotlib.axis_2">
    <g id="ytick_1">
     <g id="line2d_7">
      <defs>
       <path id="mb4c041716c" d="M 0 0 
L -3.5 0 
" style="stroke: #000000; stroke-width: 0.8"/>
      </defs>
      <g>
       <use xlink:href="#mb4c041716c" x="144" y="475.214509" style="stroke: #000000; stroke-width: 0.8"/>
      </g>
     </g>
     <g id="text_7">
      <!-- 8400 -->
      <g transform="translate(111.55 479.013728) scale(0.1 -0.1)">
       <defs>
        <path id="DejaVuSans-34" d="M 2419 4116 
L 825 1625 
L 2419 1625 
L 2419 4116 
z
M 2253 4666 
L 3047 4666 
L 3047 1625 
L 3713 1625 
L 3713 1100 
L 3047 1100 
L 3047 0 
L 2419 0 
L 2419 1100 
L 313 1100 
L 313 1709 
L 2253 4666 
z
" transform="scale(0.015625)"/>
       </defs>
       <use xlink:href="#DejaVuSans-38"/>
       <use xlink:href="#DejaVuSans-34" x="63.623047"/>
       <use xlink:href="#DejaVuSans-30" x="127.246094"/>
       <use xlink:href="#DejaVuSans-30" x="190.869141"/>
      </g>
     </g>
    </g>
    <g id="ytick_2">
     <g id="line2d_8">
      <g>
       <use xlink:href="#mb4c041716c" x="144" y="424.433652" style="stroke: #000000; stroke-width: 0.8"/>
      </g>
     </g>
     <g id="text_8">
      <!-- 8500 -->
      <g transform="translate(111.55 428.232871) scale(0.1 -0.1)">
       <use xlink:href="#DejaVuSans-38"/>
       <use xlink:href="#DejaVuSans-35" x="63.623047"/>
       <use xlink:href="#DejaVuSans-30" x="127.246094"/>
       <use xlink:href="#DejaVuSans-30" x="190.869141"/>
      </g>
     </g>
    </g>
    <g id="ytick_3">
     <g id="line2d_9">
      <g>
       <use xlink:href="#mb4c041716c" x="144" y="373.652796" style="stroke: #000000; stroke-width: 0.8"/>
      </g>
     </g>
     <g id="text_9">
      <!-- 8600 -->
      <g transform="translate(111.55 377.452015) scale(0.1 -0.1)">
       <defs>
        <path id="DejaVuSans-36" d="M 2113 2584 
Q 1688 2584 1439 2293 
Q 1191 2003 1191 1497 
Q 1191 994 1439 701 
Q 1688 409 2113 409 
Q 2538 409 2786 701 
Q 3034 994 3034 1497 
Q 3034 2003 2786 2293 
Q 2538 2584 2113 2584 
z
M 3366 4563 
L 3366 3988 
Q 3128 4100 2886 4159 
Q 2644 4219 2406 4219 
Q 1781 4219 1451 3797 
Q 1122 3375 1075 2522 
Q 1259 2794 1537 2939 
Q 1816 3084 2150 3084 
Q 2853 3084 3261 2657 
Q 3669 2231 3669 1497 
Q 3669 778 3244 343 
Q 2819 -91 2113 -91 
Q 1303 -91 875 529 
Q 447 1150 447 2328 
Q 447 3434 972 4092 
Q 1497 4750 2381 4750 
Q 2619 4750 2861 4703 
Q 3103 4656 3366 4563 
z
" transform="scale(0.015625)"/>
       </defs>
       <use xlink:href="#DejaVuSans-38"/>
       <use xlink:href="#DejaVuSans-36" x="63.623047"/>
       <use xlink:href="#DejaVuSans-30" x="127.246094"/>
       <use xlink:href="#DejaVuSans-30" x="190.869141"/>
      </g>
     </g>
    </g>
    <g id="ytick_4">
     <g id="line2d_10">
      <g>
       <use xlink:href="#mb4c041716c" x="144" y="322.87194" style="stroke: #000000; stroke-width: 0.8"/>
      </g>
     </g>
     <g id="text_10">
      <!-- 8700 -->
      <g transform="translate(111.55 326.671158) scale(0.1 -0.1)">
       <defs>
        <path id="DejaVuSans-37" d="M 525 4666 
L 3525 4666 
L 3525 4397 
L 1831 0 
L 1172 0 
L 2766 4134 
L 525 4134 
L 525 4666 
z
" transform="scale(0.015625)"/>
       </defs>
       <use xlink:href="#DejaVuSans-38"/>
       <use xlink:href="#DejaVuSans-37" x="63.623047"/>
       <use xlink:href="#DejaVuSans-30" x="127.246094"/>
       <use xlink:href="#DejaVuSans-30" x="190.869141"/>
      </g>
     </g>
    </g>
    <g id="ytick_5">
     <g id="line2d_11">
      <g>
       <use xlink:href="#mb4c041716c" x="144" y="272.091083" style="stroke: #000000; stroke-width: 0.8"/>
      </g>
     </g>
     <g id="text_11">
      <!-- 8800 -->
      <g transform="translate(111.55 275.890302) scale(0.1 -0.1)">
       <use xlink:href="#DejaVuSans-38"/>
       <use xlink:href="#DejaVuSans-38" x="63.623047"/>
       <use xlink:href="#DejaVuSans-30" x="127.246094"/>
       <use xlink:href="#DejaVuSans-30" x="190.869141"/>
      </g>
     </g>
    </g>
    <g id="ytick_6">
     <g id="line2d_12">
      <g>
       <use xlink:href="#mb4c041716c" x="144" y="221.310227" style="stroke: #000000; stroke-width: 0.8"/>
      </g>
     </g>
     <g id="text_12">
      <!-- 8900 -->
      <g transform="translate(111.55 225.109445) scale(0.1 -0.1)">
       <defs>
        <path id="DejaVuSans-39" d="M 703 97 
L 703 672 
Q 941 559 1184 500 
Q 1428 441 1663 441 
Q 2288 441 2617 861 
Q 2947 1281 2994 2138 
Q 2813 1869 2534 1725 
Q 2256 1581 1919 1581 
Q 1219 1581 811 2004 
Q 403 2428 403 3163 
Q 403 3881 828 4315 
Q 1253 4750 1959 4750 
Q 2769 4750 3195 4129 
Q 3622 3509 3622 2328 
Q 3622 1225 3098 567 
Q 2575 -91 1691 -91 
Q 1453 -91 1209 -44 
Q 966 3 703 97 
z
M 1959 2075 
Q 2384 2075 2632 2365 
Q 2881 2656 2881 3163 
Q 2881 3666 2632 3958 
Q 2384 4250 1959 4250 
Q 1534 4250 1286 3958 
Q 1038 3666 1038 3163 
Q 1038 2656 1286 2365 
Q 1534 2075 1959 2075 
z
" transform="scale(0.015625)"/>
       </defs>
       <use xlink:href="#DejaVuSans-38"/>
       <use xlink:href="#DejaVuSans-39" x="63.623047"/>
       <use xlink:href="#DejaVuSans-30" x="127.246094"/>
       <use xlink:href="#DejaVuSans-30" x="190.869141"/>
      </g>
     </g>
    </g>
    <g id="ytick_7">
     <g id="line2d_13">
      <g>
       <use xlink:href="#mb4c041716c" x="144" y="170.52937" style="stroke: #000000; stroke-width: 0.8"/>
      </g>
     </g>
     <g id="text_13">
      <!-- 9000 -->
      <g transform="translate(111.55 174.328589) scale(0.1 -0.1)">
       <use xlink:href="#DejaVuSans-39"/>
       <use xlink:href="#DejaVuSans-30" x="63.623047"/>
       <use xlink:href="#DejaVuSans-30" x="127.246094"/>
       <use xlink:href="#DejaVuSans-30" x="190.869141"/>
      </g>
     </g>
    </g>
    <g id="ytick_8">
     <g id="line2d_14">
      <g>
       <use xlink:href="#mb4c041716c" x="144" y="119.748514" style="stroke: #000000; stroke-width: 0.8"/>
      </g>
     </g>
     <g id="text_14">
      <!-- 9100 -->
      <g transform="translate(111.55 123.547733) scale(0.1 -0.1)">
       <use xlink:href="#DejaVuSans-39"/>
       <use xlink:href="#DejaVuSans-31" x="63.623047"/>
       <use xlink:href="#DejaVuSans-30" x="127.246094"/>
       <use xlink:href="#DejaVuSans-30" x="190.869141"/>
      </g>
     </g>
    </g>
   </g>
   <g id="line2d_15">
    <path d="M 184.581818 492.48 
L 204.377827 489.940957 
L 224.173836 482.323829 
L 243.969845 480.800403 
L 263.765854 476.737935 
L 283.561863 471.659849 
L 303.357871 470.644232 
L 323.15388 466.581763 
L 342.949889 465.058338 
L 362.745898 463.027103 
L 382.541907 462.011486 
L 402.337916 459.472443 
L 422.133925 457.441209 
L 441.929933 454.902166 
L 461.725942 452.363123 
L 481.521951 449.316272 
L 501.31796 446.777229 
L 521.113969 443.730378 
L 540.909978 440.175718 
L 560.705987 435.605441 
L 580.501996 432.558589 
L 600.298004 426.972695 
L 620.094013 418.847758 
L 639.890022 406.660353 
L 659.686031 403.105693 
L 679.48204 396.504181 
L 699.278049 389.394861 
L 719.074058 372.637179 
L 738.870067 356.895113 
L 758.666075 340.137431 
L 778.462084 321.856322 
L 798.258093 312.20796 
L 818.054102 307.637683 
L 837.850111 300.020554 
L 857.64612 271.075466 
L 877.442129 215.724332 
L 897.238137 191.85733 
L 917.034146 157.326348 
L 936.830155 146.662368 
L 956.626164 129.396877 
L 976.422173 105.022065 
L 996.218182 89.28 
" clip-path="url(#pfb6c2ab0b3)" style="fill: none; stroke: #1f77b4; stroke-width: 1.5; stroke-linecap: square"/>
   </g>
   <g id="patch_3">
    <path d="M 144 512.64 
L 144 69.12 
" style="fill: none; stroke: #000000; stroke-width: 0.8; stroke-linejoin: miter; stroke-linecap: square"/>
   </g>
   <g id="patch_4">
    <path d="M 1036.8 512.64 
L 1036.8 69.12 
" style="fill: none; stroke: #000000; stroke-width: 0.8; stroke-linejoin: miter; stroke-linecap: square"/>
   </g>
   <g id="patch_5">
    <path d="M 144 512.64 
L 1036.8 512.64 
" style="fill: none; stroke: #000000; stroke-width: 0.8; stroke-linejoin: miter; stroke-linecap: square"/>
   </g>
   <g id="patch_6">
    <path d="M 144 69.12 
L 1036.8 69.12 
" style="fill: none; stroke: #000000; stroke-width: 0.8; stroke-linejoin: miter; stroke-linecap: square"/>
   </g>
   <g id="text_15">
    <!-- Number of AEDs in the OpenStreetMap database in Poland from 2025-01-01, day by day. As at: 2025-02-11 -->
    <g transform="translate(144 63.12) scale(0.14 -0.14)">
     <defs>
      <path id="DejaVuSans-4e" d="M 628 4666 
L 1478 4666 
L 3547 763 
L 3547 4666 
L 4159 4666 
L 4159 0 
L 3309 0 
L 1241 3903 
L 1241 0 
L 628 0 
L 628 4666 
z
" transform="scale(0.015625)"/>
      <path id="DejaVuSans-75" d="M 544 1381 
L 544 3500 
L 1119 3500 
L 1119 1403 
Q 1119 906 1312 657 
Q 1506 409 1894 409 
Q 2359 409 2629 706 
Q 2900 1003 2900 1516 
L 2900 3500 
L 3475 3500 
L 3475 0 
L 2900 0 
L 2900 538 
Q 2691 219 2414 64 
Q 2138 -91 1772 -91 
Q 1169 -91 856 284 
Q 544 659 544 1381 
z
M 1991 3584 
L 1991 3584 
z
" transform="scale(0.015625)"/>
      <path id="DejaVuSans-6d" d="M 3328 2828 
Q 3544 3216 3844 3400 
Q 4144 3584 4550 3584 
Q 5097 3584 5394 3201 
Q 5691 2819 5691 2113 
L 5691 0 
L 5113 0 
L 5113 2094 
Q 5113 2597 4934 2840 
Q 4756 3084 4391 3084 
Q 3944 3084 3684 2787 
Q 3425 2491 3425 1978 
L 3425 0 
L 2847 0 
L 2847 2094 
Q 2847 2600 2669 2842 
Q 2491 3084 2119 3084 
Q 1678 3084 1418 2786 
Q 1159 2488 1159 1978 
L 1159 0 
L 581 0 
L 581 3500 
L 1159 3500 
L 1159 2956 
Q 1356 3278 1631 3431 
Q 1906 3584 2284 3584 
Q 2666 3584 2933 3390 
Q 3200 3197 3328 2828 
z
" transform="scale(0.015625)"/>
      <path id="DejaVuSans-62" d="M 3116 1747 
Q 3116 2381 2855 2742 
Q 2594 3103 2138 3103 
Q 1681 3103 1420 2742 
Q 1159 2381 1159 1747 
Q 1159 1113 1420 752 
Q 1681 391 2138 391 
Q 2594 391 2855 752 
Q 3116 1113 3116 1747 
z
M 1159 2969 
Q 1341 3281 1617 3432 
Q 1894 3584 2278 3584 
Q 2916 3584 3314 3078 
Q 3713 2572 3713 1747 
Q 3713 922 3314 415 
Q 2916 -91 2278 -91 
Q 1894 -91 1617 61 
Q 1341 213 1159 525 
L 1159 0 
L 581 0 
L 581 4863 
L 1159 4863 
L 1159 2969 
z
" transform="scale(0.015625)"/>
      <path id="DejaVuSans-65" d="M 3597 1894 
L 3597 1613 
L 953 1613 
Q 991 1019 1311 708 
Q 1631 397 2203 397 
Q 2534 397 2845 478 
Q 3156 559 3463 722 
L 3463 178 
Q 3153 47 2828 -22 
Q 2503 -91 2169 -91 
Q 1331 -91 842 396 
Q 353 884 353 1716 
Q 353 2575 817 3079 
Q 1281 3584 2069 3584 
Q 2775 3584 3186 3129 
Q 3597 2675 3597 1894 
z
M 3022 2063 
Q 3016 2534 2758 2815 
Q 2500 3097 2075 3097 
Q 1594 3097 1305 2825 
Q 1016 2553 972 2059 
L 3022 2063 
z
" transform="scale(0.015625)"/>
      <path id="DejaVuSans-72" d="M 2631 2963 
Q 2534 3019 2420 3045 
Q 2306 3072 2169 3072 
Q 1681 3072 1420 2755 
Q 1159 2438 1159 1844 
L 1159 0 
L 581 0 
L 581 3500 
L 1159 3500 
L 1159 2956 
Q 1341 3275 1631 3429 
Q 1922 3584 2338 3584 
Q 2397 3584 2469 3576 
Q 2541 3569 2628 3553 
L 2631 2963 
z
" transform="scale(0.015625)"/>
      <path id="DejaVuSans-20" transform="scale(0.015625)"/>
      <path id="DejaVuSans-6f" d="M 1959 3097 
Q 1497 3097 1228 2736 
Q 959 2375 959 1747 
Q 959 1119 1226 758 
Q 1494 397 1959 397 
Q 2419 397 2687 759 
Q 2956 1122 2956 1747 
Q 2956 2369 2687 2733 
Q 2419 3097 1959 3097 
z
M 1959 3584 
Q 2709 3584 3137 3096 
Q 3566 2609 3566 1747 
Q 3566 888 3137 398 
Q 2709 -91 1959 -91 
Q 1206 -91 779 398 
Q 353 888 353 1747 
Q 353 2609 779 3096 
Q 1206 3584 1959 3584 
z
" transform="scale(0.015625)"/>
      <path id="DejaVuSans-66" d="M 2375 4863 
L 2375 4384 
L 1825 4384 
Q 1516 4384 1395 4259 
Q 1275 4134 1275 3809 
L 1275 3500 
L 2222 3500 
L 2222 3053 
L 1275 3053 
L 1275 0 
L 697 0 
L 697 3053 
L 147 3053 
L 147 3500 
L 697 3500 
L 697 3744 
Q 697 4328 969 4595 
Q 1241 4863 1831 4863 
L 2375 4863 
z
" transform="scale(0.015625)"/>
      <path id="DejaVuSans-41" d="M 2188 4044 
L 1331 1722 
L 3047 1722 
L 2188 4044 
z
M 1831 4666 
L 2547 4666 
L 4325 0 
L 3669 0 
L 3244 1197 
L 1141 1197 
L 716 0 
L 50 0 
L 1831 4666 
z
" transform="scale(0.015625)"/>
      <path id="DejaVuSans-45" d="M 628 4666 
L 3578 4666 
L 3578 4134 
L 1259 4134 
L 1259 2753 
L 3481 2753 
L 3481 2222 
L 1259 2222 
L 1259 531 
L 3634 531 
L 3634 0 
L 628 0 
L 628 4666 
z
" transform="scale(0.015625)"/>
      <path id="DejaVuSans-44" d="M 1259 4147 
L 1259 519 
L 2022 519 
Q 2988 519 3436 956 
Q 3884 1394 3884 2338 
Q 3884 3275 3436 3711 
Q 2988 4147 2022 4147 
L 1259 4147 
z
M 628 4666 
L 1925 4666 
Q 3281 4666 3915 4102 
Q 4550 3538 4550 2338 
Q 4550 1131 3912 565 
Q 3275 0 1925 0 
L 628 0 
L 628 4666 
z
" transform="scale(0.015625)"/>
      <path id="DejaVuSans-73" d="M 2834 3397 
L 2834 2853 
Q 2591 2978 2328 3040 
Q 2066 3103 1784 3103 
Q 1356 3103 1142 2972 
Q 928 2841 928 2578 
Q 928 2378 1081 2264 
Q 1234 2150 1697 2047 
L 1894 2003 
Q 2506 1872 2764 1633 
Q 3022 1394 3022 966 
Q 3022 478 2636 193 
Q 2250 -91 1575 -91 
Q 1294 -91 989 -36 
Q 684 19 347 128 
L 347 722 
Q 666 556 975 473 
Q 1284 391 1588 391 
Q 1994 391 2212 530 
Q 2431 669 2431 922 
Q 2431 1156 2273 1281 
Q 2116 1406 1581 1522 
L 1381 1569 
Q 847 1681 609 1914 
Q 372 2147 372 2553 
Q 372 3047 722 3315 
Q 1072 3584 1716 3584 
Q 2034 3584 2315 3537 
Q 2597 3491 2834 3397 
z
" transform="scale(0.015625)"/>
      <path id="DejaVuSans-69" d="M 603 3500 
L 1178 3500 
L 1178 0 
L 603 0 
L 603 3500 
z
M 603 4863 
L 1178 4863 
L 1178 4134 
L 603 4134 
L 603 4863 
z
" transform="scale(0.015625)"/>
      <path id="DejaVuSans-6e" d="M 3513 2113 
L 3513 0 
L 2938 0 
L 2938 2094 
Q 2938 2591 2744 2837 
Q 2550 3084 2163 3084 
Q 1697 3084 1428 2787 
Q 1159 2491 1159 1978 
L 1159 0 
L 581 0 
L 581 3500 
L 1159 3500 
L 1159 2956 
Q 1366 3272 1645 3428 
Q 1925 3584 2291 3584 
Q 2894 3584 3203 3211 
Q 3513 2838 3513 2113 
z
" transform="scale(0.015625)"/>
      <path id="DejaVuSans-74" d="M 1172 4494 
L 1172 3500 
L 2356 3500 
L 2356 3053 
L 1172 3053 
L 1172 1153 
Q 1172 725 1289 603 
Q 1406 481 1766 481 
L 2356 481 
L 2356 0 
L 1766 0 
Q 1100 0 847 248 
Q 594 497 594 1153 
L 594 3053 
L 172 3053 
L 172 3500 
L 594 3500 
L 594 4494 
L 1172 4494 
z
" transform="scale(0.015625)"/>
      <path id="DejaVuSans-68" d="M 3513 2113 
L 3513 0 
L 2938 0 
L 2938 2094 
Q 2938 2591 2744 2837 
Q 2550 3084 2163 3084 
Q 1697 3084 1428 2787 
Q 1159 2491 1159 1978 
L 1159 0 
L 581 0 
L 581 4863 
L 1159 4863 
L 1159 2956 
Q 1366 3272 1645 3428 
Q 1925 3584 2291 3584 
Q 2894 3584 3203 3211 
Q 3513 2838 3513 2113 
z
" transform="scale(0.015625)"/>
      <path id="DejaVuSans-4f" d="M 2522 4238 
Q 1834 4238 1429 3725 
Q 1025 3213 1025 2328 
Q 1025 1447 1429 934 
Q 1834 422 2522 422 
Q 3209 422 3611 934 
Q 4013 1447 4013 2328 
Q 4013 3213 3611 3725 
Q 3209 4238 2522 4238 
z
M 2522 4750 
Q 3503 4750 4090 4092 
Q 4678 3434 4678 2328 
Q 4678 1225 4090 567 
Q 3503 -91 2522 -91 
Q 1538 -91 948 565 
Q 359 1222 359 2328 
Q 359 3434 948 4092 
Q 1538 4750 2522 4750 
z
" transform="scale(0.015625)"/>
      <path id="DejaVuSans-70" d="M 1159 525 
L 1159 -1331 
L 581 -1331 
L 581 3500 
L 1159 3500 
L 1159 2969 
Q 1341 3281 1617 3432 
Q 1894 3584 2278 3584 
Q 2916 3584 3314 3078 
Q 3713 2572 3713 1747 
Q 3713 922 3314 415 
Q 2916 -91 2278 -91 
Q 1894 -91 1617 61 
Q 1341 213 1159 525 
z
M 3116 1747 
Q 3116 2381 2855 2742 
Q 2594 3103 2138 3103 
Q 1681 3103 1420 2742 
Q 1159 2381 1159 1747 
Q 1159 1113 1420 752 
Q 1681 391 2138 391 
Q 2594 391 2855 752 
Q 3116 1113 3116 1747 
z
" transform="scale(0.015625)"/>
      <path id="DejaVuSans-53" d="M 3425 4513 
L 3425 3897 
Q 3066 4069 2747 4153 
Q 2428 4238 2131 4238 
Q 1616 4238 1336 4038 
Q 1056 3838 1056 3469 
Q 1056 3159 1242 3001 
Q 1428 2844 1947 2747 
L 2328 2669 
Q 3034 2534 3370 2195 
Q 3706 1856 3706 1288 
Q 3706 609 3251 259 
Q 2797 -91 1919 -91 
Q 1588 -91 1214 -16 
Q 841 59 441 206 
L 441 856 
Q 825 641 1194 531 
Q 1563 422 1919 422 
Q 2459 422 2753 634 
Q 3047 847 3047 1241 
Q 3047 1584 2836 1778 
Q 2625 1972 2144 2069 
L 1759 2144 
Q 1053 2284 737 2584 
Q 422 2884 422 3419 
Q 422 4038 858 4394 
Q 1294 4750 2059 4750 
Q 2388 4750 2728 4690 
Q 3069 4631 3425 4513 
z
" transform="scale(0.015625)"/>
      <path id="DejaVuSans-4d" d="M 628 4666 
L 1569 4666 
L 2759 1491 
L 3956 4666 
L 4897 4666 
L 4897 0 
L 4281 0 
L 4281 4097 
L 3078 897 
L 2444 897 
L 1241 4097 
L 1241 0 
L 628 0 
L 628 4666 
z
" transform="scale(0.015625)"/>
      <path id="DejaVuSans-61" d="M 2194 1759 
Q 1497 1759 1228 1600 
Q 959 1441 959 1056 
Q 959 750 1161 570 
Q 1363 391 1709 391 
Q 2188 391 2477 730 
Q 2766 1069 2766 1631 
L 2766 1759 
L 2194 1759 
z
M 3341 1997 
L 3341 0 
L 2766 0 
L 2766 531 
Q 2569 213 2275 61 
Q 1981 -91 1556 -91 
Q 1019 -91 701 211 
Q 384 513 384 1019 
Q 384 1609 779 1909 
Q 1175 2209 1959 2209 
L 2766 2209 
L 2766 2266 
Q 2766 2663 2505 2880 
Q 2244 3097 1772 3097 
Q 1472 3097 1187 3025 
Q 903 2953 641 2809 
L 641 3341 
Q 956 3463 1253 3523 
Q 1550 3584 1831 3584 
Q 2591 3584 2966 3190 
Q 3341 2797 3341 1997 
z
" transform="scale(0.015625)"/>
      <path id="DejaVuSans-64" d="M 2906 2969 
L 2906 4863 
L 3481 4863 
L 3481 0 
L 2906 0 
L 2906 525 
Q 2725 213 2448 61 
Q 2172 -91 1784 -91 
Q 1150 -91 751 415 
Q 353 922 353 1747 
Q 353 2572 751 3078 
Q 1150 3584 1784 3584 
Q 2172 3584 2448 3432 
Q 2725 3281 2906 2969 
z
M 947 1747 
Q 947 1113 1208 752 
Q 1469 391 1925 391 
Q 2381 391 2643 752 
Q 2906 1113 2906 1747 
Q 2906 2381 2643 2742 
Q 2381 3103 1925 3103 
Q 1469 3103 1208 2742 
Q 947 2381 947 1747 
z
" transform="scale(0.015625)"/>
      <path id="DejaVuSans-50" d="M 1259 4147 
L 1259 2394 
L 2053 2394 
Q 2494 2394 2734 2622 
Q 2975 2850 2975 3272 
Q 2975 3691 2734 3919 
Q 2494 4147 2053 4147 
L 1259 4147 
z
M 628 4666 
L 2053 4666 
Q 2838 4666 3239 4311 
Q 3641 3956 3641 3272 
Q 3641 2581 3239 2228 
Q 2838 1875 2053 1875 
L 1259 1875 
L 1259 0 
L 628 0 
L 628 4666 
z
" transform="scale(0.015625)"/>
      <path id="DejaVuSans-6c" d="M 603 4863 
L 1178 4863 
L 1178 0 
L 603 0 
L 603 4863 
z
" transform="scale(0.015625)"/>
      <path id="DejaVuSans-2c" d="M 750 794 
L 1409 794 
L 1409 256 
L 897 -744 
L 494 -744 
L 750 256 
L 750 794 
z
" transform="scale(0.015625)"/>
      <path id="DejaVuSans-79" d="M 2059 -325 
Q 1816 -950 1584 -1140 
Q 1353 -1331 966 -1331 
L 506 -1331 
L 506 -850 
L 844 -850 
Q 1081 -850 1212 -737 
Q 1344 -625 1503 -206 
L 1606 56 
L 191 3500 
L 800 3500 
L 1894 763 
L 2988 3500 
L 3597 3500 
L 2059 -325 
z
" transform="scale(0.015625)"/>
      <path id="DejaVuSans-2e" d="M 684 794 
L 1344 794 
L 1344 0 
L 684 0 
L 684 794 
z
" transform="scale(0.015625)"/>
      <path id="DejaVuSans-3a" d="M 750 794 
L 1409 794 
L 1409 0 
L 750 0 
L 750 794 
z
M 750 3309 
L 1409 3309 
L 1409 2516 
L 750 2516 
L 750 3309 
z
" transform="scale(0.015625)"/>
     </defs>
     <use xlink:href="#DejaVuSans-4e"/>
     <use xlink:href="#DejaVuSans-75" x="74.804688"/>
     <use xlink:href="#DejaVuSans-6d" x="138.183594"/>
     <use xlink:href="#DejaVuSans-62" x="235.595703"/>
     <use xlink:href="#DejaVuSans-65" x="299.072266"/>
     <use xlink:href="#DejaVuSans-72" x="360.595703"/>
     <use xlink:href="#DejaVuSans-20" x="401.708984"/>
     <use xlink:href="#DejaVuSans-6f" x="433.496094"/>
     <use xlink:href="#DejaVuSans-66" x="494.677734"/>
     <use xlink:href="#DejaVuSans-20" x="529.882812"/>
     <use xlink:href="#DejaVuSans-41" x="561.669922"/>
     <use xlink:href="#DejaVuSans-45" x="630.078125"/>
     <use xlink:href="#DejaVuSans-44" x="693.261719"/>
     <use xlink:href="#DejaVuSans-73" x="770.263672"/>
     <use xlink:href="#DejaVuSans-20" x="822.363281"/>
     <use xlink:href="#DejaVuSans-69" x="854.150391"/>
     <use xlink:href="#DejaVuSans-6e" x="881.933594"/>
     <use xlink:href="#DejaVuSans-20" x="945.3125"/>
     <use xlink:href="#DejaVuSans-74" x="977.099609"/>
     <use xlink:href="#DejaVuSans-68" x="1016.308594"/>
     <use xlink:href="#DejaVuSans-65" x="1079.6875"/>
     <use xlink:href="#DejaVuSans-20" x="1141.210938"/>
     <use xlink:href="#DejaVuSans-4f" x="1172.998047"/>
     <use xlink:href="#DejaVuSans-70" x="1251.708984"/>
     <use xlink:href="#DejaVuSans-65" x="1315.185547"/>
     <use xlink:href="#DejaVuSans-6e" x="1376.708984"/>
     <use xlink:href="#DejaVuSans-53" x="1440.087891"/>
     <use xlink:href="#DejaVuSans-74" x="1503.564453"/>
     <use xlink:href="#DejaVuSans-72" x="1542.773438"/>
     <use xlink:href="#DejaVuSans-65" x="1581.636719"/>
     <use xlink:href="#DejaVuSans-65" x="1643.160156"/>
     <use xlink:href="#DejaVuSans-74" x="1704.683594"/>
     <use xlink:href="#DejaVuSans-4d" x="1743.892578"/>
     <use xlink:href="#DejaVuSans-61" x="1830.171875"/>
     <use xlink:href="#DejaVuSans-70" x="1891.451172"/>
     <use xlink:href="#DejaVuSans-20" x="1954.927734"/>
     <use xlink:href="#DejaVuSans-64" x="1986.714844"/>
     <use xlink:href="#DejaVuSans-61" x="2050.191406"/>
     <use xlink:href="#DejaVuSans-74" x="2111.470703"/>
     <use xlink:href="#DejaVuSans-61" x="2150.679688"/>
     <use xlink:href="#DejaVuSans-62" x="2211.958984"/>
     <use xlink:href="#DejaVuSans-61" x="2275.435547"/>
     <use xlink:href="#DejaVuSans-73" x="2336.714844"/>
     <use xlink:href="#DejaVuSans-65" x="2388.814453"/>
     <use xlink:href="#DejaVuSans-20" x="2450.337891"/>
     <use xlink:href="#DejaVuSans-69" x="2482.125"/>
     <use xlink:href="#DejaVuSans-6e" x="2509.908203"/>
     <use xlink:href="#DejaVuSans-20" x="2573.287109"/>
     <use xlink:href="#DejaVuSans-50" x="2605.074219"/>
     <use xlink:href="#DejaVuSans-6f" x="2661.751953"/>
     <use xlink:href="#DejaVuSans-6c" x="2722.933594"/>
     <use xlink:href="#DejaVuSans-61" x="2750.716797"/>
     <use xlink:href="#DejaVuSans-6e" x="2811.996094"/>
     <use xlink:href="#DejaVuSans-64" x="2875.375"/>
     <use xlink:href="#DejaVuSans-20" x="2938.851562"/>
     <use xlink:href="#DejaVuSans-66" x="2970.638672"/>
     <use xlink:href="#DejaVuSans-72" x="3005.84375"/>
     <use xlink:href="#DejaVuSans-6f" x="3044.707031"/>
     <use xlink:href="#DejaVuSans-6d" x="3105.888672"/>
     <use xlink:href="#DejaVuSans-20" x="3203.300781"/>
     <use xlink:href="#DejaVuSans-32" x="3235.087891"/>
     <use xlink:href="#DejaVuSans-30" x="3298.710938"/>
     <use xlink:href="#DejaVuSans-32" x="3362.333984"/>
     <use xlink:href="#DejaVuSans-35" x="3425.957031"/>
     <use xlink:href="#DejaVuSans-2d" x="3489.580078"/>
     <use xlink:href="#DejaVuSans-30" x="3525.664062"/>
     <use xlink:href="#DejaVuSans-31" x="3589.287109"/>
     <use xlink:href="#DejaVuSans-2d" x="3652.910156"/>
     <use xlink:href="#DejaVuSans-30" x="3688.994141"/>
     <use xlink:href="#DejaVuSans-31" x="3752.617188"/>
     <use xlink:href="#DejaVuSans-2c" x="3816.240234"/>
     <use xlink:href="#DejaVuSans-20" x="3848.027344"/>
     <use xlink:href="#DejaVuSans-64" x="3879.814453"/>
     <use xlink:href="#DejaVuSans-61" x="3943.291016"/>
     <use xlink:href="#DejaVuSans-79" x="4004.570312"/>
     <use xlink:href="#DejaVuSans-20" x="4063.75"/>
     <use xlink:href="#DejaVuSans-62" x="4095.537109"/>
     <use xlink:href="#DejaVuSans-79" x="4159.013672"/>
     <use xlink:href="#DejaVuSans-20" x="4218.193359"/>
     <use xlink:href="#DejaVuSans-64" x="4249.980469"/>
     <use xlink:href="#DejaVuSans-61" x="4313.457031"/>
     <use xlink:href="#DejaVuSans-79" x="4374.736328"/>
     <use xlink:href="#DejaVuSans-2e" x="4419.666016"/>
     <use xlink:href="#DejaVuSans-20" x="4451.453125"/>
     <use xlink:href="#DejaVuSans-41" x="4483.240234"/>
     <use xlink:href="#DejaVuSans-73" x="4551.648438"/>
     <use xlink:href="#DejaVuSans-20" x="4603.748047"/>
     <use xlink:href="#DejaVuSans-61" x="4635.535156"/>
     <use xlink:href="#DejaVuSans-74" x="4696.814453"/>
     <use xlink:href="#DejaVuSans-3a" x="4736.023438"/>
     <use xlink:href="#DejaVuSans-20" x="4769.714844"/>
     <use xlink:href="#DejaVuSans-32" x="4801.501953"/>
     <use xlink:href="#DejaVuSans-30" x="4865.125"/>
     <use xlink:href="#DejaVuSans-32" x="4928.748047"/>
     <use xlink:href="#DejaVuSans-35" x="4992.371094"/>
     <use xlink:href="#DejaVuSans-2d" x="5055.994141"/>
     <use xlink:href="#DejaVuSans-30" x="5092.078125"/>
     <use xlink:href="#DejaVuSans-32" x="5155.701172"/>
     <use xlink:href="#DejaVuSans-2d" x="5219.324219"/>
     <use xlink:href="#DejaVuSans-31" x="5255.408203"/>
     <use xlink:href="#DejaVuSans-31" x="5319.03125"/>
    </g>
   </g>
  </g>
 </g>
 <defs>
  <clipPath id="pfb6c2ab0b3">
   <rect x="144" y="69.12" width="892.8" height="443.52"/>
  </clipPath>
 </defs>
</svg>
