<?xml version="1.0" encoding="utf-8" standalone="no"?>
<!DOCTYPE svg PUBLIC "-//W3C//DTD SVG 1.1//EN"
  "http://www.w3.org/Graphics/SVG/1.1/DTD/svg11.dtd">
<svg xmlns:xlink="http://www.w3.org/1999/xlink" width="1152pt" height="576pt" viewBox="0 0 1152 576" xmlns="http://www.w3.org/2000/svg" version="1.1">
 <metadata>
  <rdf:RDF xmlns:dc="http://purl.org/dc/elements/1.1/" xmlns:cc="http://creativecommons.org/ns#" xmlns:rdf="http://www.w3.org/1999/02/22-rdf-syntax-ns#">
   <cc:Work>
    <dc:type rdf:resource="http://purl.org/dc/dcmitype/StillImage"/>
    <dc:date>2024-03-21T08:33:20.373881</dc:date>
    <dc:format>image/svg+xml</dc:format>
    <dc:creator>
     <cc:Agent>
      <dc:title>Matplotlib v3.8.3, https://matplotlib.org/</dc:title>
     </cc:Agent>
    </dc:creator>
   </cc:Work>
  </rdf:RDF>
 </metadata>
 <defs>
  <style type="text/css">*{stroke-linejoin: round; stroke-linecap: butt}</style>
 </defs>
 <g id="figure_1">
  <g id="patch_1">
   <path d="M 0 576 
L 1152 576 
L 1152 0 
L 0 0 
z
" style="fill: #ffffff"/>
  </g>
  <g id="axes_1">
   <g id="patch_2">
    <path d="M 144 512.64 
L 1036.8 512.64 
L 1036.8 69.12 
L 144 69.12 
z
" style="fill: #ffffff"/>
   </g>
   <g id="PathCollection_1">
    <path d="M 184.581818 496.015534 
C 185.519453 496.015534 186.41881 495.643008 187.081818 494.98 
C 187.744826 494.316992 188.117352 493.417635 188.117352 492.48 
C 188.117352 491.542365 187.744826 490.643008 187.081818 489.98 
C 186.41881 489.316992 185.519453 488.944466 184.581818 488.944466 
C 183.644184 488.944466 182.744826 489.316992 182.081818 489.98 
C 181.41881 490.643008 181.046284 491.542365 181.046284 492.48 
C 181.046284 493.417635 181.41881 494.316992 182.081818 494.98 
C 182.744826 495.643008 183.644184 496.015534 184.581818 496.015534 
z
" clip-path="url(#p1a5636c70c)" style="fill: #1f77b4; fill-opacity: 0.3; stroke: #1f77b4; stroke-opacity: 0.3"/>
    <path d="M 194.727273 484.88925 
C 196.602542 484.88925 198.401257 484.144197 199.727273 482.818182 
C 201.053288 481.492166 201.798341 479.693451 201.798341 477.818182 
C 201.798341 475.942913 201.053288 474.144197 199.727273 472.818182 
C 198.401257 471.492166 196.602542 470.747114 194.727273 470.747114 
C 192.852004 470.747114 191.053288 471.492166 189.727273 472.818182 
C 188.401257 474.144197 187.656205 475.942913 187.656205 477.818182 
C 187.656205 479.693451 188.401257 481.492166 189.727273 482.818182 
C 191.053288 484.144197 192.852004 484.88925 194.727273 484.88925 
z
" clip-path="url(#p1a5636c70c)" style="fill: #1f77b4; fill-opacity: 0.3; stroke: #1f77b4; stroke-opacity: 0.3"/>
    <path d="M 204.872727 466.820076 
C 207.010863 466.820076 209.061714 465.970586 210.573604 464.458695 
C 212.085495 462.946805 212.934985 460.895954 212.934985 458.757818 
C 212.934985 456.619682 212.085495 454.568831 210.573604 453.056941 
C 209.061714 451.545051 207.010863 450.69556 204.872727 450.69556 
C 202.734592 450.69556 200.68374 451.545051 199.17185 453.056941 
C 197.65996 454.568831 196.81047 456.619682 196.81047 458.757818 
C 196.81047 460.895954 197.65996 462.946805 199.17185 464.458695 
C 200.68374 465.970586 202.734592 466.820076 204.872727 466.820076 
z
" clip-path="url(#p1a5636c70c)" style="fill: #1f77b4; fill-opacity: 0.3; stroke: #1f77b4; stroke-opacity: 0.3"/>
    <path d="M 215.018182 459.605866 
C 215.437505 459.605866 215.83971 459.439267 216.136216 459.142761 
C 216.432722 458.846255 216.599321 458.44405 216.599321 458.024727 
C 216.599321 457.605404 216.432722 457.203199 216.136216 456.906693 
C 215.83971 456.610187 215.437505 456.443588 215.018182 456.443588 
C 214.598859 456.443588 214.196654 456.610187 213.900148 456.906693 
C 213.603642 457.203199 213.437043 457.605404 213.437043 458.024727 
C 213.437043 458.44405 213.603642 458.846255 213.900148 459.142761 
C 214.196654 459.439267 214.598859 459.605866 215.018182 459.605866 
z
" clip-path="url(#p1a5636c70c)" style="fill: #1f77b4; fill-opacity: 0.3; stroke: #1f77b4; stroke-opacity: 0.3"/>
    <path d="M 225.163636 455.693818 
C 226.489652 455.693818 227.761536 455.166987 228.69917 454.229352 
C 229.636805 453.291718 230.163636 452.019834 230.163636 450.693818 
C 230.163636 449.367803 229.636805 448.095919 228.69917 447.158284 
C 227.761536 446.22065 226.489652 445.693818 225.163636 445.693818 
C 223.837621 445.693818 222.565737 446.22065 221.628102 447.158284 
C 220.690468 448.095919 220.163636 449.367803 220.163636 450.693818 
C 220.163636 452.019834 220.690468 453.291718 221.628102 454.229352 
C 222.565737 455.166987 223.837621 455.693818 225.163636 455.693818 
z
" clip-path="url(#p1a5636c70c)" style="fill: #1f77b4; fill-opacity: 0.3; stroke: #1f77b4; stroke-opacity: 0.3"/>
    <path d="M 245.454545 450.563898 
C 246.39218 450.563898 247.291538 450.191371 247.954545 449.528364 
C 248.617553 448.865356 248.990079 447.965998 248.990079 447.028364 
C 248.990079 446.090729 248.617553 445.191371 247.954545 444.528364 
C 247.291538 443.865356 246.39218 443.49283 245.454545 443.49283 
C 244.516911 443.49283 243.617553 443.865356 242.954545 444.528364 
C 242.291538 445.191371 241.919012 446.090729 241.919012 447.028364 
C 241.919012 447.965998 242.291538 448.865356 242.954545 449.528364 
C 243.617553 450.191371 244.516911 450.563898 245.454545 450.563898 
z
" clip-path="url(#p1a5636c70c)" style="fill: #1f77b4; fill-opacity: 0.3; stroke: #1f77b4; stroke-opacity: 0.3"/>
    <path d="M 255.6 447.258278 
C 256.438646 447.258278 257.243056 446.92508 257.836068 446.332068 
C 258.42908 445.739056 258.762278 444.934646 258.762278 444.096 
C 258.762278 443.257354 258.42908 442.452944 257.836068 441.859932 
C 257.243056 441.26692 256.438646 440.933722 255.6 440.933722 
C 254.761354 440.933722 253.956944 441.26692 253.363932 441.859932 
C 252.77092 442.452944 252.437722 443.257354 252.437722 444.096 
C 252.437722 444.934646 252.77092 445.739056 253.363932 446.332068 
C 253.956944 446.92508 254.761354 447.258278 255.6 447.258278 
z
" clip-path="url(#p1a5636c70c)" style="fill: #1f77b4; fill-opacity: 0.3; stroke: #1f77b4; stroke-opacity: 0.3"/>
    <path d="M 265.745455 444.63534 
C 266.471743 444.63534 267.168383 444.346783 267.681946 443.833219 
C 268.19551 443.319655 268.484067 442.623016 268.484067 441.896727 
C 268.484067 441.170439 268.19551 440.473799 267.681946 439.960236 
C 267.168383 439.446672 266.471743 439.158114 265.745455 439.158114 
C 265.019166 439.158114 264.322526 439.446672 263.808963 439.960236 
C 263.295399 440.473799 263.006842 441.170439 263.006842 441.896727 
C 263.006842 442.623016 263.295399 443.319655 263.808963 443.833219 
C 264.322526 444.346783 265.019166 444.63534 265.745455 444.63534 
z
" clip-path="url(#p1a5636c70c)" style="fill: #1f77b4; fill-opacity: 0.3; stroke: #1f77b4; stroke-opacity: 0.3"/>
    <path d="M 275.890909 442.126641 
C 276.729555 442.126641 277.533965 441.793444 278.126977 441.200432 
C 278.719989 440.607419 279.053187 439.803009 279.053187 438.964364 
C 279.053187 438.125718 278.719989 437.321308 278.126977 436.728296 
C 277.533965 436.135283 276.729555 435.802086 275.890909 435.802086 
C 275.052263 435.802086 274.247853 436.135283 273.654841 436.728296 
C 273.061829 437.321308 272.728631 438.125718 272.728631 438.964364 
C 272.728631 439.803009 273.061829 440.607419 273.654841 441.200432 
C 274.247853 441.793444 275.052263 442.126641 275.890909 442.126641 
z
" clip-path="url(#p1a5636c70c)" style="fill: #1f77b4; fill-opacity: 0.3; stroke: #1f77b4; stroke-opacity: 0.3"/>
    <path d="M 286.036364 438.438802 
C 287.063491 438.438802 288.048688 438.03072 288.774976 437.304431 
C 289.501265 436.578142 289.909347 435.592945 289.909347 434.565818 
C 289.909347 433.538691 289.501265 432.553494 288.774976 431.827205 
C 288.048688 431.100917 287.063491 430.692835 286.036364 430.692835 
C 285.009236 430.692835 284.024039 431.100917 283.297751 431.827205 
C 282.571462 432.553494 282.16338 433.538691 282.16338 434.565818 
C 282.16338 435.592945 282.571462 436.578142 283.297751 437.304431 
C 284.024039 438.03072 285.009236 438.438802 286.036364 438.438802 
z
" clip-path="url(#p1a5636c70c)" style="fill: #1f77b4; fill-opacity: 0.3; stroke: #1f77b4; stroke-opacity: 0.3"/>
    <path d="M 296.181818 429.160919 
C 297.85911 429.160919 299.46793 428.494524 300.653954 427.3085 
C 301.839978 426.122475 302.506374 424.513655 302.506374 422.836364 
C 302.506374 421.159072 301.839978 419.550252 300.653954 418.364228 
C 299.46793 417.178203 297.85911 416.511808 296.181818 416.511808 
C 294.504527 416.511808 292.895707 417.178203 291.709682 418.364228 
C 290.523658 419.550252 289.857263 421.159072 289.857263 422.836364 
C 289.857263 424.513655 290.523658 426.122475 291.709682 427.3085 
C 292.895707 428.494524 294.504527 429.160919 296.181818 429.160919 
z
" clip-path="url(#p1a5636c70c)" style="fill: #1f77b4; fill-opacity: 0.3; stroke: #1f77b4; stroke-opacity: 0.3"/>
    <path d="M 306.327273 423.375704 
C 307.053561 423.375704 307.750201 423.087146 308.263764 422.573583 
C 308.777328 422.060019 309.065886 421.36338 309.065886 420.637091 
C 309.065886 419.910802 308.777328 419.214163 308.263764 418.700599 
C 307.750201 418.187036 307.053561 417.898478 306.327273 417.898478 
C 305.600984 417.898478 304.904345 418.187036 304.390781 418.700599 
C 303.877217 419.214163 303.58866 419.910802 303.58866 420.637091 
C 303.58866 421.36338 303.877217 422.060019 304.390781 422.573583 
C 304.904345 423.087146 305.600984 423.375704 306.327273 423.375704 
z
" clip-path="url(#p1a5636c70c)" style="fill: #1f77b4; fill-opacity: 0.3; stroke: #1f77b4; stroke-opacity: 0.3"/>
    <path d="M 316.472727 421.176431 
C 317.199016 421.176431 317.895655 420.887873 318.409219 420.37431 
C 318.922783 419.860746 319.21134 419.164107 319.21134 418.437818 
C 319.21134 417.71153 318.922783 417.01489 318.409219 416.501327 
C 317.895655 415.987763 317.199016 415.699205 316.472727 415.699205 
C 315.746439 415.699205 315.049799 415.987763 314.536236 416.501327 
C 314.022672 417.01489 313.734114 417.71153 313.734114 418.437818 
C 313.734114 419.164107 314.022672 419.860746 314.536236 420.37431 
C 315.049799 420.887873 315.746439 421.176431 316.472727 421.176431 
z
" clip-path="url(#p1a5636c70c)" style="fill: #1f77b4; fill-opacity: 0.3; stroke: #1f77b4; stroke-opacity: 0.3"/>
    <path d="M 326.618182 413.565179 
C 328.242213 413.565179 329.799946 412.919945 330.948309 411.771582 
C 332.096672 410.623218 332.741906 409.065485 332.741906 407.441455 
C 332.741906 405.817424 332.096672 404.259691 330.948309 403.111328 
C 329.799946 401.962964 328.242213 401.31773 326.618182 401.31773 
C 324.994151 401.31773 323.436418 401.962964 322.288055 403.111328 
C 321.139692 404.259691 320.494457 405.817424 320.494457 407.441455 
C 320.494457 409.065485 321.139692 410.623218 322.288055 411.771582 
C 323.436418 412.919945 324.994151 413.565179 326.618182 413.565179 
z
" clip-path="url(#p1a5636c70c)" style="fill: #1f77b4; fill-opacity: 0.3; stroke: #1f77b4; stroke-opacity: 0.3"/>
    <path d="M 336.763636 407.980795 
C 337.489925 407.980795 338.186564 407.692237 338.700128 407.178673 
C 339.213692 406.66511 339.502249 405.96847 339.502249 405.242182 
C 339.502249 404.515893 339.213692 403.819254 338.700128 403.30569 
C 338.186564 402.792127 337.489925 402.503569 336.763636 402.503569 
C 336.037348 402.503569 335.340708 402.792127 334.827145 403.30569 
C 334.313581 403.819254 334.025024 404.515893 334.025024 405.242182 
C 334.025024 405.96847 334.313581 406.66511 334.827145 407.178673 
C 335.340708 407.692237 336.037348 407.980795 336.763636 407.980795 
z
" clip-path="url(#p1a5636c70c)" style="fill: #1f77b4; fill-opacity: 0.3; stroke: #1f77b4; stroke-opacity: 0.3"/>
    <path d="M 346.909091 401.922316 
C 348.361668 401.922316 349.754947 401.345201 350.782074 400.318074 
C 351.809201 399.290947 352.386316 397.897668 352.386316 396.445091 
C 352.386316 394.992514 351.809201 393.599235 350.782074 392.572108 
C 349.754947 391.54498 348.361668 390.967865 346.909091 390.967865 
C 345.456514 390.967865 344.063235 391.54498 343.036108 392.572108 
C 342.00898 393.599235 341.431865 394.992514 341.431865 396.445091 
C 341.431865 397.897668 342.00898 399.290947 343.036108 400.318074 
C 344.063235 401.345201 345.456514 401.922316 346.909091 401.922316 
z
" clip-path="url(#p1a5636c70c)" style="fill: #1f77b4; fill-opacity: 0.3; stroke: #1f77b4; stroke-opacity: 0.3"/>
    <path d="M 357.054545 396.31517 
C 357.99218 396.31517 358.891538 395.942644 359.554545 395.279636 
C 360.217553 394.616629 360.590079 393.717271 360.590079 392.779636 
C 360.590079 391.842002 360.217553 390.942644 359.554545 390.279636 
C 358.891538 389.616629 357.99218 389.244102 357.054545 389.244102 
C 356.116911 389.244102 355.217553 389.616629 354.554545 390.279636 
C 353.891538 390.942644 353.519012 391.842002 353.519012 392.779636 
C 353.519012 393.717271 353.891538 394.616629 354.554545 395.279636 
C 355.217553 395.942644 356.116911 396.31517 357.054545 396.31517 
z
" clip-path="url(#p1a5636c70c)" style="fill: #1f77b4; fill-opacity: 0.3; stroke: #1f77b4; stroke-opacity: 0.3"/>
    <path d="M 367.2 392.254074 
C 368.227127 392.254074 369.212324 391.845992 369.938613 391.119704 
C 370.664901 390.393415 371.072983 389.408218 371.072983 388.381091 
C 371.072983 387.353964 370.664901 386.368767 369.938613 385.642478 
C 369.212324 384.91619 368.227127 384.508108 367.2 384.508108 
C 366.172873 384.508108 365.187676 384.91619 364.461387 385.642478 
C 363.735099 386.368767 363.327017 387.353964 363.327017 388.381091 
C 363.327017 389.408218 363.735099 390.393415 364.461387 391.119704 
C 365.187676 391.845992 366.172873 392.254074 367.2 392.254074 
z
" clip-path="url(#p1a5636c70c)" style="fill: #1f77b4; fill-opacity: 0.3; stroke: #1f77b4; stroke-opacity: 0.3"/>
    <path d="M 377.345455 388.920431 
C 378.071743 388.920431 378.768383 388.631873 379.281946 388.11831 
C 379.79551 387.604746 380.084067 386.908107 380.084067 386.181818 
C 380.084067 385.45553 379.79551 384.75889 379.281946 384.245327 
C 378.768383 383.731763 378.071743 383.443205 377.345455 383.443205 
C 376.619166 383.443205 375.922526 383.731763 375.408963 384.245327 
C 374.895399 384.75889 374.606842 385.45553 374.606842 386.181818 
C 374.606842 386.908107 374.895399 387.604746 375.408963 388.11831 
C 375.922526 388.631873 376.619166 388.920431 377.345455 388.920431 
z
" clip-path="url(#p1a5636c70c)" style="fill: #1f77b4; fill-opacity: 0.3; stroke: #1f77b4; stroke-opacity: 0.3"/>
    <path d="M 387.490909 386.721158 
C 388.217198 386.721158 388.913837 386.432601 389.427401 385.919037 
C 389.940964 385.405474 390.229522 384.708834 390.229522 383.982545 
C 390.229522 383.256257 389.940964 382.559617 389.427401 382.046054 
C 388.913837 381.53249 388.217198 381.243933 387.490909 381.243933 
C 386.76462 381.243933 386.067981 381.53249 385.554417 382.046054 
C 385.040854 382.559617 384.752296 383.256257 384.752296 383.982545 
C 384.752296 384.708834 385.040854 385.405474 385.554417 385.919037 
C 386.067981 386.432601 386.76462 386.721158 387.490909 386.721158 
z
" clip-path="url(#p1a5636c70c)" style="fill: #1f77b4; fill-opacity: 0.3; stroke: #1f77b4; stroke-opacity: 0.3"/>
    <path d="M 397.636364 383.852625 
C 398.573998 383.852625 399.473356 383.480099 400.136364 382.817091 
C 400.799371 382.154083 401.171898 381.254725 401.171898 380.317091 
C 401.171898 379.379456 400.799371 378.480099 400.136364 377.817091 
C 399.473356 377.154083 398.573998 376.781557 397.636364 376.781557 
C 396.698729 376.781557 395.799371 377.154083 395.136364 377.817091 
C 394.473356 378.480099 394.10083 379.379456 394.10083 380.317091 
C 394.10083 381.254725 394.473356 382.154083 395.136364 382.817091 
C 395.799371 383.480099 396.698729 383.852625 397.636364 383.852625 
z
" clip-path="url(#p1a5636c70c)" style="fill: #1f77b4; fill-opacity: 0.3; stroke: #1f77b4; stroke-opacity: 0.3"/>
    <path d="M 407.781818 380.18717 
C 408.719453 380.18717 409.61881 379.814644 410.281818 379.151636 
C 410.944826 378.488629 411.317352 377.589271 411.317352 376.651636 
C 411.317352 375.714002 410.944826 374.814644 410.281818 374.151636 
C 409.61881 373.488629 408.719453 373.116102 407.781818 373.116102 
C 406.844184 373.116102 405.944826 373.488629 405.281818 374.151636 
C 404.61881 374.814644 404.246284 375.714002 404.246284 376.651636 
C 404.246284 377.589271 404.61881 378.488629 405.281818 379.151636 
C 405.944826 379.814644 406.844184 380.18717 407.781818 380.18717 
z
" clip-path="url(#p1a5636c70c)" style="fill: #1f77b4; fill-opacity: 0.3; stroke: #1f77b4; stroke-opacity: 0.3"/>
    <path d="M 417.927273 376.88155 
C 418.765919 376.88155 419.570329 376.548353 420.163341 375.955341 
C 420.756353 375.362329 421.08955 374.557919 421.08955 373.719273 
C 421.08955 372.880627 420.756353 372.076217 420.163341 371.483205 
C 419.570329 370.890193 418.765919 370.556995 417.927273 370.556995 
C 417.088627 370.556995 416.284217 370.890193 415.691205 371.483205 
C 415.098193 372.076217 414.764995 372.880627 414.764995 373.719273 
C 414.764995 374.557919 415.098193 375.362329 415.691205 375.955341 
C 416.284217 376.548353 417.088627 376.88155 417.927273 376.88155 
z
" clip-path="url(#p1a5636c70c)" style="fill: #1f77b4; fill-opacity: 0.3; stroke: #1f77b4; stroke-opacity: 0.3"/>
    <path d="M 428.072727 374.489159 
C 428.665739 374.489159 429.234543 374.253553 429.653866 373.83423 
C 430.073189 373.414907 430.308795 372.846103 430.308795 372.253091 
C 430.308795 371.660079 430.073189 371.091275 429.653866 370.671952 
C 429.234543 370.252629 428.665739 370.017023 428.072727 370.017023 
C 427.479715 370.017023 426.910911 370.252629 426.491588 370.671952 
C 426.072266 371.091275 425.836659 371.660079 425.836659 372.253091 
C 425.836659 372.846103 426.072266 373.414907 426.491588 373.83423 
C 426.910911 374.253553 427.479715 374.489159 428.072727 374.489159 
z
" clip-path="url(#p1a5636c70c)" style="fill: #1f77b4; fill-opacity: 0.3; stroke: #1f77b4; stroke-opacity: 0.3"/>
    <path d="M 438.218182 371.304755 
C 439.327606 371.304755 440.39174 370.863976 441.176222 370.079494 
C 441.960703 369.295013 442.401482 368.230879 442.401482 367.121455 
C 442.401482 366.01203 441.960703 364.947896 441.176222 364.163415 
C 440.39174 363.378933 439.327606 362.938154 438.218182 362.938154 
C 437.108758 362.938154 436.044623 363.378933 435.260142 364.163415 
C 434.475661 364.947896 434.034882 366.01203 434.034882 367.121455 
C 434.034882 368.230879 434.475661 369.295013 435.260142 370.079494 
C 436.044623 370.863976 437.108758 371.304755 438.218182 371.304755 
z
" clip-path="url(#p1a5636c70c)" style="fill: #1f77b4; fill-opacity: 0.3; stroke: #1f77b4; stroke-opacity: 0.3"/>
    <path d="M 448.363636 367.891341 
C 448.956649 367.891341 449.525452 367.655734 449.944775 367.236412 
C 450.364098 366.817089 450.599704 366.248285 450.599704 365.655273 
C 450.599704 365.062261 450.364098 364.493457 449.944775 364.074134 
C 449.525452 363.654811 448.956649 363.419205 448.363636 363.419205 
C 447.770624 363.419205 447.20182 363.654811 446.782498 364.074134 
C 446.363175 364.493457 446.127568 365.062261 446.127568 365.655273 
C 446.127568 366.248285 446.363175 366.817089 446.782498 367.236412 
C 447.20182 367.655734 447.770624 367.891341 448.363636 367.891341 
z
" clip-path="url(#p1a5636c70c)" style="fill: #1f77b4; fill-opacity: 0.3; stroke: #1f77b4; stroke-opacity: 0.3"/>
    <path d="M 468.654545 363.324364 
C 469.980561 363.324364 471.252445 362.797532 472.190079 361.859898 
C 473.127714 360.922263 473.654545 359.650379 473.654545 358.324364 
C 473.654545 356.998348 473.127714 355.726464 472.190079 354.78883 
C 471.252445 353.851195 469.980561 353.324364 468.654545 353.324364 
C 467.32853 353.324364 466.056646 353.851195 465.119012 354.78883 
C 464.181377 355.726464 463.654545 356.998348 463.654545 358.324364 
C 463.654545 359.650379 464.181377 360.922263 465.119012 361.859898 
C 466.056646 362.797532 467.32853 363.324364 468.654545 363.324364 
z
" clip-path="url(#p1a5636c70c)" style="fill: #1f77b4; fill-opacity: 0.3; stroke: #1f77b4; stroke-opacity: 0.3"/>
    <path d="M 478.8 359.172412 
C 479.219323 359.172412 479.621528 359.005813 479.918034 358.709307 
C 480.21454 358.412801 480.381139 358.010596 480.381139 357.591273 
C 480.381139 357.17195 480.21454 356.769745 479.918034 356.473239 
C 479.621528 356.176733 479.219323 356.010134 478.8 356.010134 
C 478.380677 356.010134 477.978472 356.176733 477.681966 356.473239 
C 477.38546 356.769745 477.218861 357.17195 477.218861 357.591273 
C 477.218861 358.010596 477.38546 358.412801 477.681966 358.709307 
C 477.978472 359.005813 478.380677 359.172412 478.8 359.172412 
z
" clip-path="url(#p1a5636c70c)" style="fill: #1f77b4; fill-opacity: 0.3; stroke: #1f77b4; stroke-opacity: 0.3"/>
    <path d="M 488.945455 357.065711 
C 489.972582 357.065711 490.957779 356.657629 491.684067 355.93134 
C 492.410356 355.205051 492.818438 354.219854 492.818438 353.192727 
C 492.818438 352.1656 492.410356 351.180403 491.684067 350.454114 
C 490.957779 349.727826 489.972582 349.319744 488.945455 349.319744 
C 487.918327 349.319744 486.93313 349.727826 486.206842 350.454114 
C 485.480553 351.180403 485.072471 352.1656 485.072471 353.192727 
C 485.072471 354.219854 485.480553 355.205051 486.206842 355.93134 
C 486.93313 356.657629 487.918327 357.065711 488.945455 357.065711 
z
" clip-path="url(#p1a5636c70c)" style="fill: #1f77b4; fill-opacity: 0.3; stroke: #1f77b4; stroke-opacity: 0.3"/>
    <path d="M 499.090909 348.845534 
C 500.659872 348.845534 502.164785 348.222179 503.274209 347.112755 
C 504.383633 346.003331 505.006989 344.498417 505.006989 342.929455 
C 505.006989 341.360492 504.383633 339.855579 503.274209 338.746154 
C 502.164785 337.63673 500.659872 337.013375 499.090909 337.013375 
C 497.521946 337.013375 496.017033 337.63673 494.907609 338.746154 
C 493.798185 339.855579 493.174829 341.360492 493.174829 342.929455 
C 493.174829 344.498417 493.798185 346.003331 494.907609 347.112755 
C 496.017033 348.222179 497.521946 348.845534 499.090909 348.845534 
z
" clip-path="url(#p1a5636c70c)" style="fill: #1f77b4; fill-opacity: 0.3; stroke: #1f77b4; stroke-opacity: 0.3"/>
    <path d="M 509.236364 338.056815 
C 510.860394 338.056815 512.418128 337.411581 513.566491 336.263218 
C 514.714854 335.114855 515.360088 333.557122 515.360088 331.933091 
C 515.360088 330.30906 514.714854 328.751327 513.566491 327.602964 
C 512.418128 326.454601 510.860394 325.809367 509.236364 325.809367 
C 507.612333 325.809367 506.0546 326.454601 504.906237 327.602964 
C 503.757874 328.751327 503.112639 330.30906 503.112639 331.933091 
C 503.112639 333.557122 503.757874 335.114855 504.906237 336.263218 
C 506.0546 337.411581 507.612333 338.056815 509.236364 338.056815 
z
" clip-path="url(#p1a5636c70c)" style="fill: #1f77b4; fill-opacity: 0.3; stroke: #1f77b4; stroke-opacity: 0.3"/>
    <path d="M 519.381818 332.472431 
C 520.108107 332.472431 520.804746 332.183873 521.31831 331.67031 
C 521.831873 331.156746 522.120431 330.460107 522.120431 329.733818 
C 522.120431 329.00753 521.831873 328.31089 521.31831 327.797327 
C 520.804746 327.283763 520.108107 326.995205 519.381818 326.995205 
C 518.65553 326.995205 517.95889 327.283763 517.445327 327.797327 
C 516.931763 328.31089 516.643205 329.00753 516.643205 329.733818 
C 516.643205 330.460107 516.931763 331.156746 517.445327 331.67031 
C 517.95889 332.183873 518.65553 332.472431 519.381818 332.472431 
z
" clip-path="url(#p1a5636c70c)" style="fill: #1f77b4; fill-opacity: 0.3; stroke: #1f77b4; stroke-opacity: 0.3"/>
    <path d="M 539.672727 329.963732 
C 540.511373 329.963732 541.315783 329.630535 541.908795 329.037523 
C 542.501807 328.44451 542.835005 327.6401 542.835005 326.801455 
C 542.835005 325.962809 542.501807 325.158399 541.908795 324.565387 
C 541.315783 323.972374 540.511373 323.639177 539.672727 323.639177 
C 538.834081 323.639177 538.029671 323.972374 537.436659 324.565387 
C 536.843647 325.158399 536.51045 325.962809 536.51045 326.801455 
C 536.51045 327.6401 536.843647 328.44451 537.436659 329.037523 
C 538.029671 329.630535 538.834081 329.963732 539.672727 329.963732 
z
" clip-path="url(#p1a5636c70c)" style="fill: #1f77b4; fill-opacity: 0.3; stroke: #1f77b4; stroke-opacity: 0.3"/>
    <path d="M 549.818182 321.396555 
C 551.495473 321.396555 553.104293 320.73016 554.290318 319.544136 
C 555.476342 318.358112 556.142737 316.749292 556.142737 315.072 
C 556.142737 313.394708 555.476342 311.785888 554.290318 310.599864 
C 553.104293 309.41384 551.495473 308.747445 549.818182 308.747445 
C 548.14089 308.747445 546.53207 309.41384 545.346046 310.599864 
C 544.160022 311.785888 543.493626 313.394708 543.493626 315.072 
C 543.493626 316.749292 544.160022 318.358112 545.346046 319.544136 
C 546.53207 320.73016 548.14089 321.396555 549.818182 321.396555 
z
" clip-path="url(#p1a5636c70c)" style="fill: #1f77b4; fill-opacity: 0.3; stroke: #1f77b4; stroke-opacity: 0.3"/>
    <path d="M 559.963636 315.920048 
C 560.382959 315.920048 560.785164 315.753449 561.08167 315.456943 
C 561.378176 315.160437 561.544775 314.758232 561.544775 314.338909 
C 561.544775 313.919586 561.378176 313.517381 561.08167 313.220875 
C 560.785164 312.924369 560.382959 312.75777 559.963636 312.75777 
C 559.544313 312.75777 559.142108 312.924369 558.845602 313.220875 
C 558.549096 313.517381 558.382498 313.919586 558.382498 314.338909 
C 558.382498 314.758232 558.549096 315.160437 558.845602 315.456943 
C 559.142108 315.753449 559.544313 315.920048 559.963636 315.920048 
z
" clip-path="url(#p1a5636c70c)" style="fill: #1f77b4; fill-opacity: 0.3; stroke: #1f77b4; stroke-opacity: 0.3"/>
    <path d="M 570.109091 314.568823 
C 570.947737 314.568823 571.752147 314.235626 572.345159 313.642613 
C 572.938171 313.049601 573.271369 312.245191 573.271369 311.406545 
C 573.271369 310.5679 572.938171 309.76349 572.345159 309.170477 
C 571.752147 308.577465 570.947737 308.244268 570.109091 308.244268 
C 569.270445 308.244268 568.466035 308.577465 567.873023 309.170477 
C 567.280011 309.76349 566.946813 310.5679 566.946813 311.406545 
C 566.946813 312.245191 567.280011 313.049601 567.873023 313.642613 
C 568.466035 314.235626 569.270445 314.568823 570.109091 314.568823 
z
" clip-path="url(#p1a5636c70c)" style="fill: #1f77b4; fill-opacity: 0.3; stroke: #1f77b4; stroke-opacity: 0.3"/>
    <path d="M 580.254545 311.945886 
C 580.980834 311.945886 581.677474 311.657328 582.191037 311.143764 
C 582.704601 310.630201 582.993158 309.933561 582.993158 309.207273 
C 582.993158 308.480984 582.704601 307.784345 582.191037 307.270781 
C 581.677474 306.757217 580.980834 306.46866 580.254545 306.46866 
C 579.528257 306.46866 578.831617 306.757217 578.318054 307.270781 
C 577.80449 307.784345 577.515933 308.480984 577.515933 309.207273 
C 577.515933 309.933561 577.80449 310.630201 578.318054 311.143764 
C 578.831617 311.657328 579.528257 311.945886 580.254545 311.945886 
z
" clip-path="url(#p1a5636c70c)" style="fill: #1f77b4; fill-opacity: 0.3; stroke: #1f77b4; stroke-opacity: 0.3"/>
    <path d="M 590.4 309.746613 
C 591.126289 309.746613 591.822928 309.458055 592.336492 308.944492 
C 592.850055 308.430928 593.138613 307.734289 593.138613 307.008 
C 593.138613 306.281711 592.850055 305.585072 592.336492 305.071508 
C 591.822928 304.557945 591.126289 304.269387 590.4 304.269387 
C 589.673711 304.269387 588.977072 304.557945 588.463508 305.071508 
C 587.949945 305.585072 587.661387 306.281711 587.661387 307.008 
C 587.661387 307.734289 587.949945 308.430928 588.463508 308.944492 
C 588.977072 309.458055 589.673711 309.746613 590.4 309.746613 
z
" clip-path="url(#p1a5636c70c)" style="fill: #1f77b4; fill-opacity: 0.3; stroke: #1f77b4; stroke-opacity: 0.3"/>
    <path d="M 600.545455 300.520568 
C 602.324491 300.520568 604.030902 299.813749 605.288871 298.55578 
C 606.54684 297.297811 607.253658 295.5914 607.253658 293.812364 
C 607.253658 292.033327 606.54684 290.326916 605.288871 289.068947 
C 604.030902 287.810978 602.324491 287.10416 600.545455 287.10416 
C 598.766418 287.10416 597.060007 287.810978 595.802038 289.068947 
C 594.544069 290.326916 593.837251 292.033327 593.837251 293.812364 
C 593.837251 295.5914 594.544069 297.297811 595.802038 298.55578 
C 597.060007 299.813749 598.766418 300.520568 600.545455 300.520568 
z
" clip-path="url(#p1a5636c70c)" style="fill: #1f77b4; fill-opacity: 0.3; stroke: #1f77b4; stroke-opacity: 0.3"/>
    <path d="M 610.690909 294.351704 
C 611.417198 294.351704 612.113837 294.063146 612.627401 293.549583 
C 613.140964 293.036019 613.429522 292.33938 613.429522 291.613091 
C 613.429522 290.886802 613.140964 290.190163 612.627401 289.676599 
C 612.113837 289.163036 611.417198 288.874478 610.690909 288.874478 
C 609.96462 288.874478 609.267981 289.163036 608.754417 289.676599 
C 608.240854 290.190163 607.952296 290.886802 607.952296 291.613091 
C 607.952296 292.33938 608.240854 293.036019 608.754417 293.549583 
C 609.267981 294.063146 609.96462 294.351704 610.690909 294.351704 
z
" clip-path="url(#p1a5636c70c)" style="fill: #1f77b4; fill-opacity: 0.3; stroke: #1f77b4; stroke-opacity: 0.3"/>
    <path d="M 620.836364 291.843005 
C 621.675009 291.843005 622.479419 291.509807 623.072432 290.916795 
C 623.665444 290.323783 623.998641 289.519373 623.998641 288.680727 
C 623.998641 287.842081 623.665444 287.037671 623.072432 286.444659 
C 622.479419 285.851647 621.675009 285.51845 620.836364 285.51845 
C 619.997718 285.51845 619.193308 285.851647 618.600296 286.444659 
C 618.007283 287.037671 617.674086 287.842081 617.674086 288.680727 
C 617.674086 289.519373 618.007283 290.323783 618.600296 290.916795 
C 619.193308 291.509807 619.997718 291.843005 620.836364 291.843005 
z
" clip-path="url(#p1a5636c70c)" style="fill: #1f77b4; fill-opacity: 0.3; stroke: #1f77b4; stroke-opacity: 0.3"/>
    <path d="M 630.981818 288.910641 
C 631.820464 288.910641 632.624874 288.577444 633.217886 287.984432 
C 633.810898 287.391419 634.144096 286.587009 634.144096 285.748364 
C 634.144096 284.909718 633.810898 284.105308 633.217886 283.512296 
C 632.624874 282.919283 631.820464 282.586086 630.981818 282.586086 
C 630.143172 282.586086 629.338762 282.919283 628.74575 283.512296 
C 628.152738 284.105308 627.819541 284.909718 627.819541 285.748364 
C 627.819541 286.587009 628.152738 287.391419 628.74575 287.984432 
C 629.338762 288.577444 630.143172 288.910641 630.981818 288.910641 
z
" clip-path="url(#p1a5636c70c)" style="fill: #1f77b4; fill-opacity: 0.3; stroke: #1f77b4; stroke-opacity: 0.3"/>
    <path d="M 641.127273 285.222802 
C 642.1544 285.222802 643.139597 284.81472 643.865886 284.088431 
C 644.592174 283.362142 645.000256 282.376945 645.000256 281.349818 
C 645.000256 280.322691 644.592174 279.337494 643.865886 278.611205 
C 643.139597 277.884917 642.1544 277.476835 641.127273 277.476835 
C 640.100146 277.476835 639.114949 277.884917 638.38866 278.611205 
C 637.662371 279.337494 637.254289 280.322691 637.254289 281.349818 
C 637.254289 282.376945 637.662371 283.362142 638.38866 284.088431 
C 639.114949 284.81472 640.100146 285.222802 641.127273 285.222802 
z
" clip-path="url(#p1a5636c70c)" style="fill: #1f77b4; fill-opacity: 0.3; stroke: #1f77b4; stroke-opacity: 0.3"/>
    <path d="M 651.272727 273.759068 
C 653.147996 273.759068 654.946712 273.014016 656.272727 271.688 
C 657.598743 270.361985 658.343795 268.563269 658.343795 266.688 
C 658.343795 264.812731 657.598743 263.014016 656.272727 261.688 
C 654.946712 260.361985 653.147996 259.616932 651.272727 259.616932 
C 649.397458 259.616932 647.598743 260.361985 646.272727 261.688 
C 644.946712 263.014016 644.201659 264.812731 644.201659 266.688 
C 644.201659 268.563269 644.946712 270.361985 646.272727 271.688 
C 647.598743 273.014016 649.397458 273.759068 651.272727 273.759068 
z
" clip-path="url(#p1a5636c70c)" style="fill: #1f77b4; fill-opacity: 0.3; stroke: #1f77b4; stroke-opacity: 0.3"/>
    <path d="M 661.418182 266.558079 
C 662.355816 266.558079 663.255174 266.185553 663.918182 265.522545 
C 664.58119 264.859538 664.953716 263.96018 664.953716 263.022545 
C 664.953716 262.084911 664.58119 261.185553 663.918182 260.522545 
C 663.255174 259.859538 662.355816 259.487012 661.418182 259.487012 
C 660.480547 259.487012 659.58119 259.859538 658.918182 260.522545 
C 658.255174 261.185553 657.882648 262.084911 657.882648 263.022545 
C 657.882648 263.96018 658.255174 264.859538 658.918182 265.522545 
C 659.58119 266.185553 660.480547 266.558079 661.418182 266.558079 
z
" clip-path="url(#p1a5636c70c)" style="fill: #1f77b4; fill-opacity: 0.3; stroke: #1f77b4; stroke-opacity: 0.3"/>
    <path d="M 671.563636 263.561886 
C 672.289925 263.561886 672.986564 263.273328 673.500128 262.759764 
C 674.013692 262.246201 674.302249 261.549561 674.302249 260.823273 
C 674.302249 260.096984 674.013692 259.400345 673.500128 258.886781 
C 672.986564 258.373217 672.289925 258.08466 671.563636 258.08466 
C 670.837348 258.08466 670.140708 258.373217 669.627145 258.886781 
C 669.113581 259.400345 668.825024 260.096984 668.825024 260.823273 
C 668.825024 261.549561 669.113581 262.246201 669.627145 262.759764 
C 670.140708 263.273328 670.837348 263.561886 671.563636 263.561886 
z
" clip-path="url(#p1a5636c70c)" style="fill: #1f77b4; fill-opacity: 0.3; stroke: #1f77b4; stroke-opacity: 0.3"/>
    <path d="M 681.709091 258.492364 
C 683.035106 258.492364 684.30699 257.965532 685.244625 257.027898 
C 686.182259 256.090263 686.709091 254.818379 686.709091 253.492364 
C 686.709091 252.166348 686.182259 250.894464 685.244625 249.95683 
C 684.30699 249.019195 683.035106 248.492364 681.709091 248.492364 
C 680.383075 248.492364 679.111192 249.019195 678.173557 249.95683 
C 677.235922 250.894464 676.709091 252.166348 676.709091 253.492364 
C 676.709091 254.818379 677.235922 256.090263 678.173557 257.027898 
C 679.111192 257.965532 680.383075 258.492364 681.709091 258.492364 
z
" clip-path="url(#p1a5636c70c)" style="fill: #1f77b4; fill-opacity: 0.3; stroke: #1f77b4; stroke-opacity: 0.3"/>
    <path d="M 691.854545 253.722278 
C 692.693191 253.722278 693.497601 253.38908 694.090613 252.796068 
C 694.683626 252.203056 695.016823 251.398646 695.016823 250.56 
C 695.016823 249.721354 694.683626 248.916944 694.090613 248.323932 
C 693.497601 247.73092 692.693191 247.397722 691.854545 247.397722 
C 691.0159 247.397722 690.21149 247.73092 689.618477 248.323932 
C 689.025465 248.916944 688.692268 249.721354 688.692268 250.56 
C 688.692268 251.398646 689.025465 252.203056 689.618477 252.796068 
C 690.21149 253.38908 691.0159 253.722278 691.854545 253.722278 
z
" clip-path="url(#p1a5636c70c)" style="fill: #1f77b4; fill-opacity: 0.3; stroke: #1f77b4; stroke-opacity: 0.3"/>
    <path d="M 702 251.408048 
C 702.419323 251.408048 702.821528 251.241449 703.118034 250.944943 
C 703.41454 250.648437 703.581139 250.246232 703.581139 249.826909 
C 703.581139 249.407586 703.41454 249.005381 703.118034 248.708875 
C 702.821528 248.412369 702.419323 248.24577 702 248.24577 
C 701.580677 248.24577 701.178472 248.412369 700.881966 248.708875 
C 700.58546 249.005381 700.418861 249.407586 700.418861 249.826909 
C 700.418861 250.246232 700.58546 250.648437 700.881966 250.944943 
C 701.178472 251.241449 701.580677 251.408048 702 251.408048 
z
" clip-path="url(#p1a5636c70c)" style="fill: #1f77b4; fill-opacity: 0.3; stroke: #1f77b4; stroke-opacity: 0.3"/>
    <path d="M 712.145455 238.828803 
C 714.28359 238.828803 716.334441 237.979313 717.846332 236.467423 
C 719.358222 234.955532 720.207712 232.904681 720.207712 230.766545 
C 720.207712 228.62841 719.358222 226.577559 717.846332 225.065668 
C 716.334441 223.553778 714.28359 222.704288 712.145455 222.704288 
C 710.007319 222.704288 707.956468 223.553778 706.444577 225.065668 
C 704.932687 226.577559 704.083197 228.62841 704.083197 230.766545 
C 704.083197 232.904681 704.932687 234.955532 706.444577 236.467423 
C 707.956468 237.979313 710.007319 238.828803 712.145455 238.828803 
z
" clip-path="url(#p1a5636c70c)" style="fill: #1f77b4; fill-opacity: 0.3; stroke: #1f77b4; stroke-opacity: 0.3"/>
    <path d="M 722.290909 230.636625 
C 723.228544 230.636625 724.127901 230.264099 724.790909 229.601091 
C 725.453917 228.938083 725.826443 228.038725 725.826443 227.101091 
C 725.826443 226.163456 725.453917 225.264099 724.790909 224.601091 
C 724.127901 223.938083 723.228544 223.565557 722.290909 223.565557 
C 721.353275 223.565557 720.453917 223.938083 719.790909 224.601091 
C 719.127901 225.264099 718.755375 226.163456 718.755375 227.101091 
C 718.755375 228.038725 719.127901 228.938083 719.790909 229.601091 
C 720.453917 230.264099 721.353275 230.636625 722.290909 230.636625 
z
" clip-path="url(#p1a5636c70c)" style="fill: #1f77b4; fill-opacity: 0.3; stroke: #1f77b4; stroke-opacity: 0.3"/>
    <path d="M 732.436364 225.246689 
C 733.694332 225.246689 734.900947 224.746893 735.790466 223.857375 
C 736.679984 222.967856 737.17978 221.761241 737.17978 220.503273 
C 737.17978 219.245304 736.679984 218.038689 735.790466 217.149171 
C 734.900947 216.259653 733.694332 215.759856 732.436364 215.759856 
C 731.178395 215.759856 729.97178 216.259653 729.082262 217.149171 
C 728.192743 218.038689 727.692947 219.245304 727.692947 220.503273 
C 727.692947 221.761241 728.192743 222.967856 729.082262 223.857375 
C 729.97178 224.746893 731.178395 225.246689 732.436364 225.246689 
z
" clip-path="url(#p1a5636c70c)" style="fill: #1f77b4; fill-opacity: 0.3; stroke: #1f77b4; stroke-opacity: 0.3"/>
    <path d="M 742.581818 221.273159 
C 743.17483 221.273159 743.743634 221.037553 744.162957 220.61823 
C 744.58228 220.198907 744.817886 219.630103 744.817886 219.037091 
C 744.817886 218.444079 744.58228 217.875275 744.162957 217.455952 
C 743.743634 217.036629 743.17483 216.801023 742.581818 216.801023 
C 741.988806 216.801023 741.420002 217.036629 741.000679 217.455952 
C 740.581356 217.875275 740.34575 218.444079 740.34575 219.037091 
C 740.34575 219.630103 740.581356 220.198907 741.000679 220.61823 
C 741.420002 221.037553 741.988806 221.273159 742.581818 221.273159 
z
" clip-path="url(#p1a5636c70c)" style="fill: #1f77b4; fill-opacity: 0.3; stroke: #1f77b4; stroke-opacity: 0.3"/>
    <path d="M 752.727273 219.576431 
C 753.453561 219.576431 754.150201 219.287873 754.663764 218.77431 
C 755.177328 218.260746 755.465886 217.564107 755.465886 216.837818 
C 755.465886 216.11153 755.177328 215.41489 754.663764 214.901327 
C 754.150201 214.387763 753.453561 214.099205 752.727273 214.099205 
C 752.000984 214.099205 751.304345 214.387763 750.790781 214.901327 
C 750.277217 215.41489 749.98866 216.11153 749.98866 216.837818 
C 749.98866 217.564107 750.277217 218.260746 750.790781 218.77431 
C 751.304345 219.287873 752.000984 219.576431 752.727273 219.576431 
z
" clip-path="url(#p1a5636c70c)" style="fill: #1f77b4; fill-opacity: 0.3; stroke: #1f77b4; stroke-opacity: 0.3"/>
    <path d="M 762.872727 213.517953 
C 764.325304 213.517953 765.718583 212.940838 766.745711 211.913711 
C 767.772838 210.886583 768.349953 209.493304 768.349953 208.040727 
C 768.349953 206.58815 767.772838 205.194871 766.745711 204.167744 
C 765.718583 203.140617 764.325304 202.563502 762.872727 202.563502 
C 761.42015 202.563502 760.026871 203.140617 758.999744 204.167744 
C 757.972617 205.194871 757.395502 206.58815 757.395502 208.040727 
C 757.395502 209.493304 757.972617 210.886583 758.999744 211.913711 
C 760.026871 212.940838 761.42015 213.517953 762.872727 213.517953 
z
" clip-path="url(#p1a5636c70c)" style="fill: #1f77b4; fill-opacity: 0.3; stroke: #1f77b4; stroke-opacity: 0.3"/>
    <path d="M 773.018182 208.810613 
C 773.611194 208.810613 774.179998 208.575007 774.599321 208.155684 
C 775.018644 207.736361 775.25425 207.167558 775.25425 206.574545 
C 775.25425 205.981533 775.018644 205.41273 774.599321 204.993407 
C 774.179998 204.574084 773.611194 204.338477 773.018182 204.338477 
C 772.42517 204.338477 771.856366 204.574084 771.437043 204.993407 
C 771.01772 205.41273 770.782114 205.981533 770.782114 206.574545 
C 770.782114 207.167558 771.01772 207.736361 771.437043 208.155684 
C 771.856366 208.575007 772.42517 208.810613 773.018182 208.810613 
z
" clip-path="url(#p1a5636c70c)" style="fill: #1f77b4; fill-opacity: 0.3; stroke: #1f77b4; stroke-opacity: 0.3"/>
    <path d="M 783.163636 207.113886 
C 783.889925 207.113886 784.586564 206.825328 785.100128 206.311764 
C 785.613692 205.798201 785.902249 205.101561 785.902249 204.375273 
C 785.902249 203.648984 785.613692 202.952345 785.100128 202.438781 
C 784.586564 201.925217 783.889925 201.63666 783.163636 201.63666 
C 782.437348 201.63666 781.740708 201.925217 781.227145 202.438781 
C 780.713581 202.952345 780.425024 203.648984 780.425024 204.375273 
C 780.425024 205.101561 780.713581 205.798201 781.227145 206.311764 
C 781.740708 206.825328 782.437348 207.113886 783.163636 207.113886 
z
" clip-path="url(#p1a5636c70c)" style="fill: #1f77b4; fill-opacity: 0.3; stroke: #1f77b4; stroke-opacity: 0.3"/>
    <path d="M 793.309091 191.63033 
C 795.567214 191.63033 797.733154 190.733168 799.329888 189.136434 
C 800.926622 187.5397 801.823784 185.373759 801.823784 183.115636 
C 801.823784 180.857513 800.926622 178.691573 799.329888 177.094839 
C 797.733154 175.498105 795.567214 174.600943 793.309091 174.600943 
C 791.050968 174.600943 788.885028 175.498105 787.288294 177.094839 
C 785.69156 178.691573 784.794398 180.857513 784.794398 183.115636 
C 784.794398 185.373759 785.69156 187.5397 787.288294 189.136434 
C 788.885028 190.733168 791.050968 191.63033 793.309091 191.63033 
z
" clip-path="url(#p1a5636c70c)" style="fill: #1f77b4; fill-opacity: 0.3; stroke: #1f77b4; stroke-opacity: 0.3"/>
    <path d="M 803.454545 183.885523 
C 804.047558 183.885523 804.616361 183.649916 805.035684 183.230593 
C 805.455007 182.81127 805.690613 182.242467 805.690613 181.649455 
C 805.690613 181.056442 805.455007 180.487639 805.035684 180.068316 
C 804.616361 179.648993 804.047558 179.413387 803.454545 179.413387 
C 802.861533 179.413387 802.29273 179.648993 801.873407 180.068316 
C 801.454084 180.487639 801.218477 181.056442 801.218477 181.649455 
C 801.218477 182.242467 801.454084 182.81127 801.873407 183.230593 
C 802.29273 183.649916 802.861533 183.885523 803.454545 183.885523 
z
" clip-path="url(#p1a5636c70c)" style="fill: #1f77b4; fill-opacity: 0.3; stroke: #1f77b4; stroke-opacity: 0.3"/>
    <path d="M 813.6 182.419341 
C 814.193012 182.419341 814.761816 182.183734 815.181139 181.764412 
C 815.600462 181.345089 815.836068 180.776285 815.836068 180.183273 
C 815.836068 179.590261 815.600462 179.021457 815.181139 178.602134 
C 814.761816 178.182811 814.193012 177.947205 813.6 177.947205 
C 813.006988 177.947205 812.438184 178.182811 812.018861 178.602134 
C 811.599538 179.021457 811.363932 179.590261 811.363932 180.183273 
C 811.363932 180.776285 811.599538 181.345089 812.018861 181.764412 
C 812.438184 182.183734 813.006988 182.419341 813.6 182.419341 
z
" clip-path="url(#p1a5636c70c)" style="fill: #1f77b4; fill-opacity: 0.3; stroke: #1f77b4; stroke-opacity: 0.3"/>
    <path d="M 823.745455 177.852364 
C 825.07147 177.852364 826.343354 177.325532 827.280988 176.387898 
C 828.218623 175.450263 828.745455 174.178379 828.745455 172.852364 
C 828.745455 171.526348 828.218623 170.254464 827.280988 169.31683 
C 826.343354 168.379195 825.07147 167.852364 823.745455 167.852364 
C 822.419439 167.852364 821.147555 168.379195 820.209921 169.31683 
C 819.272286 170.254464 818.745455 171.526348 818.745455 172.852364 
C 818.745455 174.178379 819.272286 175.450263 820.209921 176.387898 
C 821.147555 177.325532 822.419439 177.852364 823.745455 177.852364 
z
" clip-path="url(#p1a5636c70c)" style="fill: #1f77b4; fill-opacity: 0.3; stroke: #1f77b4; stroke-opacity: 0.3"/>
    <path d="M 833.890909 173.391704 
C 834.617198 173.391704 835.313837 173.103146 835.827401 172.589583 
C 836.340964 172.076019 836.629522 171.37938 836.629522 170.653091 
C 836.629522 169.926802 836.340964 169.230163 835.827401 168.716599 
C 835.313837 168.203036 834.617198 167.914478 833.890909 167.914478 
C 833.16462 167.914478 832.467981 168.203036 831.954417 168.716599 
C 831.440854 169.230163 831.152296 169.926802 831.152296 170.653091 
C 831.152296 171.37938 831.440854 172.076019 831.954417 172.589583 
C 832.467981 173.103146 833.16462 173.391704 833.890909 173.391704 
z
" clip-path="url(#p1a5636c70c)" style="fill: #1f77b4; fill-opacity: 0.3; stroke: #1f77b4; stroke-opacity: 0.3"/>
    <path d="M 844.036364 161.374875 
C 846.047366 161.374875 847.976273 160.575896 849.398266 159.153903 
C 850.820259 157.731909 851.619239 155.803002 851.619239 153.792 
C 851.619239 151.780998 850.820259 149.852091 849.398266 148.430097 
C 847.976273 147.008104 846.047366 146.209125 844.036364 146.209125 
C 842.025362 146.209125 840.096454 147.008104 838.674461 148.430097 
C 837.252468 149.852091 836.453488 151.780998 836.453488 153.792 
C 836.453488 155.803002 837.252468 157.731909 838.674461 159.153903 
C 840.096454 160.575896 842.025362 161.374875 844.036364 161.374875 
z
" clip-path="url(#p1a5636c70c)" style="fill: #1f77b4; fill-opacity: 0.3; stroke: #1f77b4; stroke-opacity: 0.3"/>
    <path d="M 854.181818 154.640048 
C 854.601141 154.640048 855.003346 154.473449 855.299852 154.176943 
C 855.596358 153.880437 855.762957 153.478232 855.762957 153.058909 
C 855.762957 152.639586 855.596358 152.237381 855.299852 151.940875 
C 855.003346 151.644369 854.601141 151.47777 854.181818 151.47777 
C 853.762495 151.47777 853.36029 151.644369 853.063784 151.940875 
C 852.767278 152.237381 852.600679 152.639586 852.600679 153.058909 
C 852.600679 153.478232 852.767278 153.880437 853.063784 154.176943 
C 853.36029 154.473449 853.762495 154.640048 854.181818 154.640048 
z
" clip-path="url(#p1a5636c70c)" style="fill: #1f77b4; fill-opacity: 0.3; stroke: #1f77b4; stroke-opacity: 0.3"/>
    <path d="M 864.327273 153.828795 
C 864.920285 153.828795 865.489089 153.593189 865.908412 153.173866 
C 866.327734 152.754543 866.563341 152.185739 866.563341 151.592727 
C 866.563341 150.999715 866.327734 150.430911 865.908412 150.011588 
C 865.489089 149.592266 864.920285 149.356659 864.327273 149.356659 
C 863.734261 149.356659 863.165457 149.592266 862.746134 150.011588 
C 862.326811 150.430911 862.091205 150.999715 862.091205 151.592727 
C 862.091205 152.185739 862.326811 152.754543 862.746134 153.173866 
C 863.165457 153.593189 863.734261 153.828795 864.327273 153.828795 
z
" clip-path="url(#p1a5636c70c)" style="fill: #1f77b4; fill-opacity: 0.3; stroke: #1f77b4; stroke-opacity: 0.3"/>
    <path d="M 874.472727 151.462807 
C 875.410362 151.462807 876.30972 151.09028 876.972727 150.427273 
C 877.635735 149.764265 878.008261 148.864907 878.008261 147.927273 
C 878.008261 146.989638 877.635735 146.09028 876.972727 145.427273 
C 876.30972 144.764265 875.410362 144.391739 874.472727 144.391739 
C 873.535093 144.391739 872.635735 144.764265 871.972727 145.427273 
C 871.30972 146.09028 870.937193 146.989638 870.937193 147.927273 
C 870.937193 148.864907 871.30972 149.764265 871.972727 150.427273 
C 872.635735 151.09028 873.535093 151.462807 874.472727 151.462807 
z
" clip-path="url(#p1a5636c70c)" style="fill: #1f77b4; fill-opacity: 0.3; stroke: #1f77b4; stroke-opacity: 0.3"/>
    <path d="M 884.618182 147.797352 
C 885.555816 147.797352 886.455174 147.424826 887.118182 146.761818 
C 887.78119 146.09881 888.153716 145.199453 888.153716 144.261818 
C 888.153716 143.324184 887.78119 142.424826 887.118182 141.761818 
C 886.455174 141.09881 885.555816 140.726284 884.618182 140.726284 
C 883.680547 140.726284 882.78119 141.09881 882.118182 141.761818 
C 881.455174 142.424826 881.082648 143.324184 881.082648 144.261818 
C 881.082648 145.199453 881.455174 146.09881 882.118182 146.761818 
C 882.78119 147.424826 883.680547 147.797352 884.618182 147.797352 
z
" clip-path="url(#p1a5636c70c)" style="fill: #1f77b4; fill-opacity: 0.3; stroke: #1f77b4; stroke-opacity: 0.3"/>
    <path d="M 894.763636 141.441862 
C 896.154373 141.441862 897.488336 140.889317 898.471736 139.905917 
C 899.455135 138.922518 900.007681 137.588555 900.007681 136.197818 
C 900.007681 134.807081 899.455135 133.473118 898.471736 132.489719 
C 897.488336 131.50632 896.154373 130.953774 894.763636 130.953774 
C 893.3729 130.953774 892.038937 131.50632 891.055537 132.489719 
C 890.072138 133.473118 889.519592 134.807081 889.519592 136.197818 
C 889.519592 137.588555 890.072138 138.922518 891.055537 139.905917 
C 892.038937 140.889317 893.3729 141.441862 894.763636 141.441862 
z
" clip-path="url(#p1a5636c70c)" style="fill: #1f77b4; fill-opacity: 0.3; stroke: #1f77b4; stroke-opacity: 0.3"/>
    <path d="M 904.909091 136.067898 
C 905.846725 136.067898 906.746083 135.695371 907.409091 135.032364 
C 908.072099 134.369356 908.444625 133.469998 908.444625 132.532364 
C 908.444625 131.594729 908.072099 130.695371 907.409091 130.032364 
C 906.746083 129.369356 905.846725 128.99683 904.909091 128.99683 
C 903.971456 128.99683 903.072099 129.369356 902.409091 130.032364 
C 901.746083 130.695371 901.373557 131.594729 901.373557 132.532364 
C 901.373557 133.469998 901.746083 134.369356 902.409091 135.032364 
C 903.072099 135.695371 903.971456 136.067898 904.909091 136.067898 
z
" clip-path="url(#p1a5636c70c)" style="fill: #1f77b4; fill-opacity: 0.3; stroke: #1f77b4; stroke-opacity: 0.3"/>
    <path d="M 915.054545 132.762278 
C 915.893191 132.762278 916.697601 132.42908 917.290613 131.836068 
C 917.883626 131.243056 918.216823 130.438646 918.216823 129.6 
C 918.216823 128.761354 917.883626 127.956944 917.290613 127.363932 
C 916.697601 126.77092 915.893191 126.437722 915.054545 126.437722 
C 914.2159 126.437722 913.41149 126.77092 912.818477 127.363932 
C 912.225465 127.956944 911.892268 128.761354 911.892268 129.6 
C 911.892268 130.438646 912.225465 131.243056 912.818477 131.836068 
C 913.41149 132.42908 914.2159 132.762278 915.054545 132.762278 
z
" clip-path="url(#p1a5636c70c)" style="fill: #1f77b4; fill-opacity: 0.3; stroke: #1f77b4; stroke-opacity: 0.3"/>
    <path d="M 925.2 126.780044 
C 926.590737 126.780044 927.9247 126.227499 928.908099 125.244099 
C 929.891499 124.2607 930.444044 122.926737 930.444044 121.536 
C 930.444044 120.145263 929.891499 118.8113 928.908099 117.827901 
C 927.9247 116.844501 926.590737 116.291956 925.2 116.291956 
C 923.809263 116.291956 922.4753 116.844501 921.491901 117.827901 
C 920.508501 118.8113 919.955956 120.145263 919.955956 121.536 
C 919.955956 122.926737 920.508501 124.2607 921.491901 125.244099 
C 922.4753 126.227499 923.809263 126.780044 925.2 126.780044 
z
" clip-path="url(#p1a5636c70c)" style="fill: #1f77b4; fill-opacity: 0.3; stroke: #1f77b4; stroke-opacity: 0.3"/>
    <path d="M 935.345455 116.131101 
C 937.022746 116.131101 938.631566 115.464706 939.817591 114.278681 
C 941.003615 113.092657 941.67001 111.483837 941.67001 109.806545 
C 941.67001 108.129254 941.003615 106.520434 939.817591 105.334409 
C 938.631566 104.148385 937.022746 103.48199 935.345455 103.48199 
C 933.668163 103.48199 932.059343 104.148385 930.873319 105.334409 
C 929.687294 106.520434 929.020899 108.129254 929.020899 109.806545 
C 929.020899 111.483837 929.687294 113.092657 930.873319 114.278681 
C 932.059343 115.464706 933.668163 116.131101 935.345455 116.131101 
z
" clip-path="url(#p1a5636c70c)" style="fill: #1f77b4; fill-opacity: 0.3; stroke: #1f77b4; stroke-opacity: 0.3"/>
    <path d="M 945.490909 108.858209 
C 946.600333 108.858209 947.664468 108.41743 948.448949 107.632949 
C 949.23343 106.848468 949.674209 105.784333 949.674209 104.674909 
C 949.674209 103.565485 949.23343 102.501351 948.448949 101.716869 
C 947.664468 100.932388 946.600333 100.491609 945.490909 100.491609 
C 944.381485 100.491609 943.317351 100.932388 942.532869 101.716869 
C 941.748388 102.501351 941.307609 103.565485 941.307609 104.674909 
C 941.307609 105.784333 941.748388 106.848468 942.532869 107.632949 
C 943.317351 108.41743 944.381485 108.858209 945.490909 108.858209 
z
" clip-path="url(#p1a5636c70c)" style="fill: #1f77b4; fill-opacity: 0.3; stroke: #1f77b4; stroke-opacity: 0.3"/>
    <path d="M 955.636364 104.904823 
C 956.475009 104.904823 957.279419 104.571626 957.872432 103.978613 
C 958.465444 103.385601 958.798641 102.581191 958.798641 101.742545 
C 958.798641 100.9039 958.465444 100.09949 957.872432 99.506477 
C 957.279419 98.913465 956.475009 98.580268 955.636364 98.580268 
C 954.797718 98.580268 953.993308 98.913465 953.400296 99.506477 
C 952.807283 100.09949 952.474086 100.9039 952.474086 101.742545 
C 952.474086 102.581191 952.807283 103.385601 953.400296 103.978613 
C 953.993308 104.571626 954.797718 104.904823 955.636364 104.904823 
z
" clip-path="url(#p1a5636c70c)" style="fill: #1f77b4; fill-opacity: 0.3; stroke: #1f77b4; stroke-opacity: 0.3"/>
    <path d="M 965.781818 102.512432 
C 966.37483 102.512432 966.943634 102.276825 967.362957 101.857502 
C 967.78228 101.43818 968.017886 100.869376 968.017886 100.276364 
C 968.017886 99.683351 967.78228 99.114548 967.362957 98.695225 
C 966.943634 98.275902 966.37483 98.040296 965.781818 98.040296 
C 965.188806 98.040296 964.620002 98.275902 964.200679 98.695225 
C 963.781356 99.114548 963.54575 99.683351 963.54575 100.276364 
C 963.54575 100.869376 963.781356 101.43818 964.200679 101.857502 
C 964.620002 102.276825 965.188806 102.512432 965.781818 102.512432 
z
" clip-path="url(#p1a5636c70c)" style="fill: #1f77b4; fill-opacity: 0.3; stroke: #1f77b4; stroke-opacity: 0.3"/>
    <path d="M 975.927273 98.421962 
C 977.185241 98.421962 978.391856 97.922166 979.281375 97.032647 
C 980.170893 96.143129 980.670689 94.936514 980.670689 93.678545 
C 980.670689 92.420577 980.170893 91.213962 979.281375 90.324443 
C 978.391856 89.434925 977.185241 88.935129 975.927273 88.935129 
C 974.669304 88.935129 973.462689 89.434925 972.573171 90.324443 
C 971.683653 91.213962 971.183856 92.420577 971.183856 93.678545 
C 971.183856 94.936514 971.683653 96.143129 972.573171 97.032647 
C 973.462689 97.922166 974.669304 98.421962 975.927273 98.421962 
z
" clip-path="url(#p1a5636c70c)" style="fill: #1f77b4; fill-opacity: 0.3; stroke: #1f77b4; stroke-opacity: 0.3"/>
    <path d="M 986.072727 93.548625 
C 987.010362 93.548625 987.90972 93.176099 988.572727 92.513091 
C 989.235735 91.850083 989.608261 90.950725 989.608261 90.013091 
C 989.608261 89.075456 989.235735 88.176099 988.572727 87.513091 
C 987.90972 86.850083 987.010362 86.477557 986.072727 86.477557 
C 985.135093 86.477557 984.235735 86.850083 983.572727 87.513091 
C 982.90972 88.176099 982.537193 89.075456 982.537193 90.013091 
C 982.537193 90.950725 982.90972 91.850083 983.572727 92.513091 
C 984.235735 93.176099 985.135093 93.548625 986.072727 93.548625 
z
" clip-path="url(#p1a5636c70c)" style="fill: #1f77b4; fill-opacity: 0.3; stroke: #1f77b4; stroke-opacity: 0.3"/>
    <path d="M 996.218182 90.861139 
C 996.637505 90.861139 997.03971 90.69454 997.336216 90.398034 
C 997.632722 90.101528 997.799321 89.699323 997.799321 89.28 
C 997.799321 88.860677 997.632722 88.458472 997.336216 88.161966 
C 997.03971 87.86546 996.637505 87.698861 996.218182 87.698861 
C 995.798859 87.698861 995.396654 87.86546 995.100148 88.161966 
C 994.803642 88.458472 994.637043 88.860677 994.637043 89.28 
C 994.637043 89.699323 994.803642 90.101528 995.100148 90.398034 
C 995.396654 90.69454 995.798859 90.861139 996.218182 90.861139 
z
" clip-path="url(#p1a5636c70c)" style="fill: #1f77b4; fill-opacity: 0.3; stroke: #1f77b4; stroke-opacity: 0.3"/>
   </g>
   <g id="matplotlib.axis_1">
    <g id="xtick_1">
     <g id="line2d_1">
      <defs>
       <path id="mf723482df0" d="M 0 0 
L 0 3.5 
" style="stroke: #000000; stroke-width: 0.8"/>
      </defs>
      <g>
       <use xlink:href="#mf723482df0" x="184.581818" y="512.64" style="stroke: #000000; stroke-width: 0.8"/>
      </g>
     </g>
     <g id="text_1">
      <!-- 2024-01-01 -->
      <g transform="translate(155.524006 527.238438) scale(0.1 -0.1)">
       <defs>
        <path id="DejaVuSans-32" d="M 1228 531 
L 3431 531 
L 3431 0 
L 469 0 
L 469 531 
Q 828 903 1448 1529 
Q 2069 2156 2228 2338 
Q 2531 2678 2651 2914 
Q 2772 3150 2772 3378 
Q 2772 3750 2511 3984 
Q 2250 4219 1831 4219 
Q 1534 4219 1204 4116 
Q 875 4013 500 3803 
L 500 4441 
Q 881 4594 1212 4672 
Q 1544 4750 1819 4750 
Q 2544 4750 2975 4387 
Q 3406 4025 3406 3419 
Q 3406 3131 3298 2873 
Q 3191 2616 2906 2266 
Q 2828 2175 2409 1742 
Q 1991 1309 1228 531 
z
" transform="scale(0.015625)"/>
        <path id="DejaVuSans-30" d="M 2034 4250 
Q 1547 4250 1301 3770 
Q 1056 3291 1056 2328 
Q 1056 1369 1301 889 
Q 1547 409 2034 409 
Q 2525 409 2770 889 
Q 3016 1369 3016 2328 
Q 3016 3291 2770 3770 
Q 2525 4250 2034 4250 
z
M 2034 4750 
Q 2819 4750 3233 4129 
Q 3647 3509 3647 2328 
Q 3647 1150 3233 529 
Q 2819 -91 2034 -91 
Q 1250 -91 836 529 
Q 422 1150 422 2328 
Q 422 3509 836 4129 
Q 1250 4750 2034 4750 
z
" transform="scale(0.015625)"/>
        <path id="DejaVuSans-34" d="M 2419 4116 
L 825 1625 
L 2419 1625 
L 2419 4116 
z
M 2253 4666 
L 3047 4666 
L 3047 1625 
L 3713 1625 
L 3713 1100 
L 3047 1100 
L 3047 0 
L 2419 0 
L 2419 1100 
L 313 1100 
L 313 1709 
L 2253 4666 
z
" transform="scale(0.015625)"/>
        <path id="DejaVuSans-2d" d="M 313 2009 
L 1997 2009 
L 1997 1497 
L 313 1497 
L 313 2009 
z
" transform="scale(0.015625)"/>
        <path id="DejaVuSans-31" d="M 794 531 
L 1825 531 
L 1825 4091 
L 703 3866 
L 703 4441 
L 1819 4666 
L 2450 4666 
L 2450 531 
L 3481 531 
L 3481 0 
L 794 0 
L 794 531 
z
" transform="scale(0.015625)"/>
       </defs>
       <use xlink:href="#DejaVuSans-32"/>
       <use xlink:href="#DejaVuSans-30" x="63.623047"/>
       <use xlink:href="#DejaVuSans-32" x="127.246094"/>
       <use xlink:href="#DejaVuSans-34" x="190.869141"/>
       <use xlink:href="#DejaVuSans-2d" x="254.492188"/>
       <use xlink:href="#DejaVuSans-30" x="290.576172"/>
       <use xlink:href="#DejaVuSans-31" x="354.199219"/>
       <use xlink:href="#DejaVuSans-2d" x="417.822266"/>
       <use xlink:href="#DejaVuSans-30" x="453.90625"/>
       <use xlink:href="#DejaVuSans-31" x="517.529297"/>
      </g>
     </g>
    </g>
    <g id="xtick_2">
     <g id="line2d_2">
      <g>
       <use xlink:href="#mf723482df0" x="326.618182" y="512.64" style="stroke: #000000; stroke-width: 0.8"/>
      </g>
     </g>
     <g id="text_2">
      <!-- 2024-01-15 -->
      <g transform="translate(297.560369 527.238438) scale(0.1 -0.1)">
       <defs>
        <path id="DejaVuSans-35" d="M 691 4666 
L 3169 4666 
L 3169 4134 
L 1269 4134 
L 1269 2991 
Q 1406 3038 1543 3061 
Q 1681 3084 1819 3084 
Q 2600 3084 3056 2656 
Q 3513 2228 3513 1497 
Q 3513 744 3044 326 
Q 2575 -91 1722 -91 
Q 1428 -91 1123 -41 
Q 819 9 494 109 
L 494 744 
Q 775 591 1075 516 
Q 1375 441 1709 441 
Q 2250 441 2565 725 
Q 2881 1009 2881 1497 
Q 2881 1984 2565 2268 
Q 2250 2553 1709 2553 
Q 1456 2553 1204 2497 
Q 953 2441 691 2322 
L 691 4666 
z
" transform="scale(0.015625)"/>
       </defs>
       <use xlink:href="#DejaVuSans-32"/>
       <use xlink:href="#DejaVuSans-30" x="63.623047"/>
       <use xlink:href="#DejaVuSans-32" x="127.246094"/>
       <use xlink:href="#DejaVuSans-34" x="190.869141"/>
       <use xlink:href="#DejaVuSans-2d" x="254.492188"/>
       <use xlink:href="#DejaVuSans-30" x="290.576172"/>
       <use xlink:href="#DejaVuSans-31" x="354.199219"/>
       <use xlink:href="#DejaVuSans-2d" x="417.822266"/>
       <use xlink:href="#DejaVuSans-31" x="453.90625"/>
       <use xlink:href="#DejaVuSans-35" x="517.529297"/>
      </g>
     </g>
    </g>
    <g id="xtick_3">
     <g id="line2d_3">
      <g>
       <use xlink:href="#mf723482df0" x="499.090909" y="512.64" style="stroke: #000000; stroke-width: 0.8"/>
      </g>
     </g>
     <g id="text_3">
      <!-- 2024-02-01 -->
      <g transform="translate(470.033097 527.238438) scale(0.1 -0.1)">
       <use xlink:href="#DejaVuSans-32"/>
       <use xlink:href="#DejaVuSans-30" x="63.623047"/>
       <use xlink:href="#DejaVuSans-32" x="127.246094"/>
       <use xlink:href="#DejaVuSans-34" x="190.869141"/>
       <use xlink:href="#DejaVuSans-2d" x="254.492188"/>
       <use xlink:href="#DejaVuSans-30" x="290.576172"/>
       <use xlink:href="#DejaVuSans-32" x="354.199219"/>
       <use xlink:href="#DejaVuSans-2d" x="417.822266"/>
       <use xlink:href="#DejaVuSans-30" x="453.90625"/>
       <use xlink:href="#DejaVuSans-31" x="517.529297"/>
      </g>
     </g>
    </g>
    <g id="xtick_4">
     <g id="line2d_4">
      <g>
       <use xlink:href="#mf723482df0" x="641.127273" y="512.64" style="stroke: #000000; stroke-width: 0.8"/>
      </g>
     </g>
     <g id="text_4">
      <!-- 2024-02-15 -->
      <g transform="translate(612.06946 527.238438) scale(0.1 -0.1)">
       <use xlink:href="#DejaVuSans-32"/>
       <use xlink:href="#DejaVuSans-30" x="63.623047"/>
       <use xlink:href="#DejaVuSans-32" x="127.246094"/>
       <use xlink:href="#DejaVuSans-34" x="190.869141"/>
       <use xlink:href="#DejaVuSans-2d" x="254.492188"/>
       <use xlink:href="#DejaVuSans-30" x="290.576172"/>
       <use xlink:href="#DejaVuSans-32" x="354.199219"/>
       <use xlink:href="#DejaVuSans-2d" x="417.822266"/>
       <use xlink:href="#DejaVuSans-31" x="453.90625"/>
       <use xlink:href="#DejaVuSans-35" x="517.529297"/>
      </g>
     </g>
    </g>
    <g id="xtick_5">
     <g id="line2d_5">
      <g>
       <use xlink:href="#mf723482df0" x="793.309091" y="512.64" style="stroke: #000000; stroke-width: 0.8"/>
      </g>
     </g>
     <g id="text_5">
      <!-- 2024-03-01 -->
      <g transform="translate(764.251278 527.238438) scale(0.1 -0.1)">
       <defs>
        <path id="DejaVuSans-33" d="M 2597 2516 
Q 3050 2419 3304 2112 
Q 3559 1806 3559 1356 
Q 3559 666 3084 287 
Q 2609 -91 1734 -91 
Q 1441 -91 1130 -33 
Q 819 25 488 141 
L 488 750 
Q 750 597 1062 519 
Q 1375 441 1716 441 
Q 2309 441 2620 675 
Q 2931 909 2931 1356 
Q 2931 1769 2642 2001 
Q 2353 2234 1838 2234 
L 1294 2234 
L 1294 2753 
L 1863 2753 
Q 2328 2753 2575 2939 
Q 2822 3125 2822 3475 
Q 2822 3834 2567 4026 
Q 2313 4219 1838 4219 
Q 1578 4219 1281 4162 
Q 984 4106 628 3988 
L 628 4550 
Q 988 4650 1302 4700 
Q 1616 4750 1894 4750 
Q 2613 4750 3031 4423 
Q 3450 4097 3450 3541 
Q 3450 3153 3228 2886 
Q 3006 2619 2597 2516 
z
" transform="scale(0.015625)"/>
       </defs>
       <use xlink:href="#DejaVuSans-32"/>
       <use xlink:href="#DejaVuSans-30" x="63.623047"/>
       <use xlink:href="#DejaVuSans-32" x="127.246094"/>
       <use xlink:href="#DejaVuSans-34" x="190.869141"/>
       <use xlink:href="#DejaVuSans-2d" x="254.492188"/>
       <use xlink:href="#DejaVuSans-30" x="290.576172"/>
       <use xlink:href="#DejaVuSans-33" x="354.199219"/>
       <use xlink:href="#DejaVuSans-2d" x="417.822266"/>
       <use xlink:href="#DejaVuSans-30" x="453.90625"/>
       <use xlink:href="#DejaVuSans-31" x="517.529297"/>
      </g>
     </g>
    </g>
    <g id="xtick_6">
     <g id="line2d_6">
      <g>
       <use xlink:href="#mf723482df0" x="935.345455" y="512.64" style="stroke: #000000; stroke-width: 0.8"/>
      </g>
     </g>
     <g id="text_6">
      <!-- 2024-03-15 -->
      <g transform="translate(906.287642 527.238438) scale(0.1 -0.1)">
       <use xlink:href="#DejaVuSans-32"/>
       <use xlink:href="#DejaVuSans-30" x="63.623047"/>
       <use xlink:href="#DejaVuSans-32" x="127.246094"/>
       <use xlink:href="#DejaVuSans-34" x="190.869141"/>
       <use xlink:href="#DejaVuSans-2d" x="254.492188"/>
       <use xlink:href="#DejaVuSans-30" x="290.576172"/>
       <use xlink:href="#DejaVuSans-33" x="354.199219"/>
       <use xlink:href="#DejaVuSans-2d" x="417.822266"/>
       <use xlink:href="#DejaVuSans-31" x="453.90625"/>
       <use xlink:href="#DejaVuSans-35" x="517.529297"/>
      </g>
     </g>
    </g>
   </g>
   <g id="matplotlib.axis_2">
    <g id="ytick_1">
     <g id="line2d_7">
      <defs>
       <path id="m26d64db50a" d="M 0 0 
L -3.5 0 
" style="stroke: #000000; stroke-width: 0.8"/>
      </defs>
      <g>
       <use xlink:href="#m26d64db50a" x="144" y="476.352" style="stroke: #000000; stroke-width: 0.8"/>
      </g>
     </g>
     <g id="text_7">
      <!-- 6300 -->
      <g transform="translate(111.55 480.151219) scale(0.1 -0.1)">
       <defs>
        <path id="DejaVuSans-36" d="M 2113 2584 
Q 1688 2584 1439 2293 
Q 1191 2003 1191 1497 
Q 1191 994 1439 701 
Q 1688 409 2113 409 
Q 2538 409 2786 701 
Q 3034 994 3034 1497 
Q 3034 2003 2786 2293 
Q 2538 2584 2113 2584 
z
M 3366 4563 
L 3366 3988 
Q 3128 4100 2886 4159 
Q 2644 4219 2406 4219 
Q 1781 4219 1451 3797 
Q 1122 3375 1075 2522 
Q 1259 2794 1537 2939 
Q 1816 3084 2150 3084 
Q 2853 3084 3261 2657 
Q 3669 2231 3669 1497 
Q 3669 778 3244 343 
Q 2819 -91 2113 -91 
Q 1303 -91 875 529 
Q 447 1150 447 2328 
Q 447 3434 972 4092 
Q 1497 4750 2381 4750 
Q 2619 4750 2861 4703 
Q 3103 4656 3366 4563 
z
" transform="scale(0.015625)"/>
       </defs>
       <use xlink:href="#DejaVuSans-36"/>
       <use xlink:href="#DejaVuSans-33" x="63.623047"/>
       <use xlink:href="#DejaVuSans-30" x="127.246094"/>
       <use xlink:href="#DejaVuSans-30" x="190.869141"/>
      </g>
     </g>
    </g>
    <g id="ytick_2">
     <g id="line2d_8">
      <g>
       <use xlink:href="#m26d64db50a" x="144" y="403.042909" style="stroke: #000000; stroke-width: 0.8"/>
      </g>
     </g>
     <g id="text_8">
      <!-- 6400 -->
      <g transform="translate(111.55 406.842128) scale(0.1 -0.1)">
       <use xlink:href="#DejaVuSans-36"/>
       <use xlink:href="#DejaVuSans-34" x="63.623047"/>
       <use xlink:href="#DejaVuSans-30" x="127.246094"/>
       <use xlink:href="#DejaVuSans-30" x="190.869141"/>
      </g>
     </g>
    </g>
    <g id="ytick_3">
     <g id="line2d_9">
      <g>
       <use xlink:href="#m26d64db50a" x="144" y="329.733818" style="stroke: #000000; stroke-width: 0.8"/>
      </g>
     </g>
     <g id="text_9">
      <!-- 6500 -->
      <g transform="translate(111.55 333.533037) scale(0.1 -0.1)">
       <use xlink:href="#DejaVuSans-36"/>
       <use xlink:href="#DejaVuSans-35" x="63.623047"/>
       <use xlink:href="#DejaVuSans-30" x="127.246094"/>
       <use xlink:href="#DejaVuSans-30" x="190.869141"/>
      </g>
     </g>
    </g>
    <g id="ytick_4">
     <g id="line2d_10">
      <g>
       <use xlink:href="#m26d64db50a" x="144" y="256.424727" style="stroke: #000000; stroke-width: 0.8"/>
      </g>
     </g>
     <g id="text_10">
      <!-- 6600 -->
      <g transform="translate(111.55 260.223946) scale(0.1 -0.1)">
       <use xlink:href="#DejaVuSans-36"/>
       <use xlink:href="#DejaVuSans-36" x="63.623047"/>
       <use xlink:href="#DejaVuSans-30" x="127.246094"/>
       <use xlink:href="#DejaVuSans-30" x="190.869141"/>
      </g>
     </g>
    </g>
    <g id="ytick_5">
     <g id="line2d_11">
      <g>
       <use xlink:href="#m26d64db50a" x="144" y="183.115636" style="stroke: #000000; stroke-width: 0.8"/>
      </g>
     </g>
     <g id="text_11">
      <!-- 6700 -->
      <g transform="translate(111.55 186.914855) scale(0.1 -0.1)">
       <defs>
        <path id="DejaVuSans-37" d="M 525 4666 
L 3525 4666 
L 3525 4397 
L 1831 0 
L 1172 0 
L 2766 4134 
L 525 4134 
L 525 4666 
z
" transform="scale(0.015625)"/>
       </defs>
       <use xlink:href="#DejaVuSans-36"/>
       <use xlink:href="#DejaVuSans-37" x="63.623047"/>
       <use xlink:href="#DejaVuSans-30" x="127.246094"/>
       <use xlink:href="#DejaVuSans-30" x="190.869141"/>
      </g>
     </g>
    </g>
    <g id="ytick_6">
     <g id="line2d_12">
      <g>
       <use xlink:href="#m26d64db50a" x="144" y="109.806545" style="stroke: #000000; stroke-width: 0.8"/>
      </g>
     </g>
     <g id="text_12">
      <!-- 6800 -->
      <g transform="translate(111.55 113.605764) scale(0.1 -0.1)">
       <defs>
        <path id="DejaVuSans-38" d="M 2034 2216 
Q 1584 2216 1326 1975 
Q 1069 1734 1069 1313 
Q 1069 891 1326 650 
Q 1584 409 2034 409 
Q 2484 409 2743 651 
Q 3003 894 3003 1313 
Q 3003 1734 2745 1975 
Q 2488 2216 2034 2216 
z
M 1403 2484 
Q 997 2584 770 2862 
Q 544 3141 544 3541 
Q 544 4100 942 4425 
Q 1341 4750 2034 4750 
Q 2731 4750 3128 4425 
Q 3525 4100 3525 3541 
Q 3525 3141 3298 2862 
Q 3072 2584 2669 2484 
Q 3125 2378 3379 2068 
Q 3634 1759 3634 1313 
Q 3634 634 3220 271 
Q 2806 -91 2034 -91 
Q 1263 -91 848 271 
Q 434 634 434 1313 
Q 434 1759 690 2068 
Q 947 2378 1403 2484 
z
M 1172 3481 
Q 1172 3119 1398 2916 
Q 1625 2713 2034 2713 
Q 2441 2713 2670 2916 
Q 2900 3119 2900 3481 
Q 2900 3844 2670 4047 
Q 2441 4250 2034 4250 
Q 1625 4250 1398 4047 
Q 1172 3844 1172 3481 
z
" transform="scale(0.015625)"/>
       </defs>
       <use xlink:href="#DejaVuSans-36"/>
       <use xlink:href="#DejaVuSans-38" x="63.623047"/>
       <use xlink:href="#DejaVuSans-30" x="127.246094"/>
       <use xlink:href="#DejaVuSans-30" x="190.869141"/>
      </g>
     </g>
    </g>
   </g>
   <g id="line2d_13">
    <path d="M 184.581818 492.48 
L 194.727273 477.818182 
L 204.872727 458.757818 
L 215.018182 458.024727 
L 225.163636 450.693818 
L 245.454545 447.028364 
L 255.6 444.096 
L 265.745455 441.896727 
L 275.890909 438.964364 
L 286.036364 434.565818 
L 296.181818 422.836364 
L 306.327273 420.637091 
L 316.472727 418.437818 
L 326.618182 407.441455 
L 336.763636 405.242182 
L 346.909091 396.445091 
L 357.054545 392.779636 
L 367.2 388.381091 
L 377.345455 386.181818 
L 387.490909 383.982545 
L 397.636364 380.317091 
L 407.781818 376.651636 
L 417.927273 373.719273 
L 428.072727 372.253091 
L 438.218182 367.121455 
L 448.363636 365.655273 
L 468.654545 358.324364 
L 478.8 357.591273 
L 488.945455 353.192727 
L 499.090909 342.929455 
L 509.236364 331.933091 
L 519.381818 329.733818 
L 539.672727 326.801455 
L 549.818182 315.072 
L 559.963636 314.338909 
L 570.109091 311.406545 
L 580.254545 309.207273 
L 590.4 307.008 
L 600.545455 293.812364 
L 610.690909 291.613091 
L 620.836364 288.680727 
L 630.981818 285.748364 
L 641.127273 281.349818 
L 651.272727 266.688 
L 661.418182 263.022545 
L 671.563636 260.823273 
L 681.709091 253.492364 
L 691.854545 250.56 
L 702 249.826909 
L 712.145455 230.766545 
L 722.290909 227.101091 
L 732.436364 220.503273 
L 742.581818 219.037091 
L 752.727273 216.837818 
L 762.872727 208.040727 
L 773.018182 206.574545 
L 783.163636 204.375273 
L 793.309091 183.115636 
L 803.454545 181.649455 
L 813.6 180.183273 
L 823.745455 172.852364 
L 833.890909 170.653091 
L 844.036364 153.792 
L 854.181818 153.058909 
L 864.327273 151.592727 
L 874.472727 147.927273 
L 884.618182 144.261818 
L 894.763636 136.197818 
L 904.909091 132.532364 
L 915.054545 129.6 
L 925.2 121.536 
L 935.345455 109.806545 
L 945.490909 104.674909 
L 955.636364 101.742545 
L 965.781818 100.276364 
L 975.927273 93.678545 
L 986.072727 90.013091 
L 996.218182 89.28 
" clip-path="url(#p1a5636c70c)" style="fill: none; stroke: #1f77b4; stroke-width: 1.5; stroke-linecap: square"/>
   </g>
   <g id="patch_3">
    <path d="M 144 512.64 
L 144 69.12 
" style="fill: none; stroke: #000000; stroke-width: 0.8; stroke-linejoin: miter; stroke-linecap: square"/>
   </g>
   <g id="patch_4">
    <path d="M 1036.8 512.64 
L 1036.8 69.12 
" style="fill: none; stroke: #000000; stroke-width: 0.8; stroke-linejoin: miter; stroke-linecap: square"/>
   </g>
   <g id="patch_5">
    <path d="M 144 512.64 
L 1036.8 512.64 
" style="fill: none; stroke: #000000; stroke-width: 0.8; stroke-linejoin: miter; stroke-linecap: square"/>
   </g>
   <g id="patch_6">
    <path d="M 144 69.12 
L 1036.8 69.12 
" style="fill: none; stroke: #000000; stroke-width: 0.8; stroke-linejoin: miter; stroke-linecap: square"/>
   </g>
   <g id="text_13">
    <!-- Number of AEDs in the OpenStreetMap database in Poland from 2024-01-01, day by day. As at: 2024-03-21 -->
    <g transform="translate(144 63.12) scale(0.14 -0.14)">
     <defs>
      <path id="DejaVuSans-4e" d="M 628 4666 
L 1478 4666 
L 3547 763 
L 3547 4666 
L 4159 4666 
L 4159 0 
L 3309 0 
L 1241 3903 
L 1241 0 
L 628 0 
L 628 4666 
z
" transform="scale(0.015625)"/>
      <path id="DejaVuSans-75" d="M 544 1381 
L 544 3500 
L 1119 3500 
L 1119 1403 
Q 1119 906 1312 657 
Q 1506 409 1894 409 
Q 2359 409 2629 706 
Q 2900 1003 2900 1516 
L 2900 3500 
L 3475 3500 
L 3475 0 
L 2900 0 
L 2900 538 
Q 2691 219 2414 64 
Q 2138 -91 1772 -91 
Q 1169 -91 856 284 
Q 544 659 544 1381 
z
M 1991 3584 
L 1991 3584 
z
" transform="scale(0.015625)"/>
      <path id="DejaVuSans-6d" d="M 3328 2828 
Q 3544 3216 3844 3400 
Q 4144 3584 4550 3584 
Q 5097 3584 5394 3201 
Q 5691 2819 5691 2113 
L 5691 0 
L 5113 0 
L 5113 2094 
Q 5113 2597 4934 2840 
Q 4756 3084 4391 3084 
Q 3944 3084 3684 2787 
Q 3425 2491 3425 1978 
L 3425 0 
L 2847 0 
L 2847 2094 
Q 2847 2600 2669 2842 
Q 2491 3084 2119 3084 
Q 1678 3084 1418 2786 
Q 1159 2488 1159 1978 
L 1159 0 
L 581 0 
L 581 3500 
L 1159 3500 
L 1159 2956 
Q 1356 3278 1631 3431 
Q 1906 3584 2284 3584 
Q 2666 3584 2933 3390 
Q 3200 3197 3328 2828 
z
" transform="scale(0.015625)"/>
      <path id="DejaVuSans-62" d="M 3116 1747 
Q 3116 2381 2855 2742 
Q 2594 3103 2138 3103 
Q 1681 3103 1420 2742 
Q 1159 2381 1159 1747 
Q 1159 1113 1420 752 
Q 1681 391 2138 391 
Q 2594 391 2855 752 
Q 3116 1113 3116 1747 
z
M 1159 2969 
Q 1341 3281 1617 3432 
Q 1894 3584 2278 3584 
Q 2916 3584 3314 3078 
Q 3713 2572 3713 1747 
Q 3713 922 3314 415 
Q 2916 -91 2278 -91 
Q 1894 -91 1617 61 
Q 1341 213 1159 525 
L 1159 0 
L 581 0 
L 581 4863 
L 1159 4863 
L 1159 2969 
z
" transform="scale(0.015625)"/>
      <path id="DejaVuSans-65" d="M 3597 1894 
L 3597 1613 
L 953 1613 
Q 991 1019 1311 708 
Q 1631 397 2203 397 
Q 2534 397 2845 478 
Q 3156 559 3463 722 
L 3463 178 
Q 3153 47 2828 -22 
Q 2503 -91 2169 -91 
Q 1331 -91 842 396 
Q 353 884 353 1716 
Q 353 2575 817 3079 
Q 1281 3584 2069 3584 
Q 2775 3584 3186 3129 
Q 3597 2675 3597 1894 
z
M 3022 2063 
Q 3016 2534 2758 2815 
Q 2500 3097 2075 3097 
Q 1594 3097 1305 2825 
Q 1016 2553 972 2059 
L 3022 2063 
z
" transform="scale(0.015625)"/>
      <path id="DejaVuSans-72" d="M 2631 2963 
Q 2534 3019 2420 3045 
Q 2306 3072 2169 3072 
Q 1681 3072 1420 2755 
Q 1159 2438 1159 1844 
L 1159 0 
L 581 0 
L 581 3500 
L 1159 3500 
L 1159 2956 
Q 1341 3275 1631 3429 
Q 1922 3584 2338 3584 
Q 2397 3584 2469 3576 
Q 2541 3569 2628 3553 
L 2631 2963 
z
" transform="scale(0.015625)"/>
      <path id="DejaVuSans-20" transform="scale(0.015625)"/>
      <path id="DejaVuSans-6f" d="M 1959 3097 
Q 1497 3097 1228 2736 
Q 959 2375 959 1747 
Q 959 1119 1226 758 
Q 1494 397 1959 397 
Q 2419 397 2687 759 
Q 2956 1122 2956 1747 
Q 2956 2369 2687 2733 
Q 2419 3097 1959 3097 
z
M 1959 3584 
Q 2709 3584 3137 3096 
Q 3566 2609 3566 1747 
Q 3566 888 3137 398 
Q 2709 -91 1959 -91 
Q 1206 -91 779 398 
Q 353 888 353 1747 
Q 353 2609 779 3096 
Q 1206 3584 1959 3584 
z
" transform="scale(0.015625)"/>
      <path id="DejaVuSans-66" d="M 2375 4863 
L 2375 4384 
L 1825 4384 
Q 1516 4384 1395 4259 
Q 1275 4134 1275 3809 
L 1275 3500 
L 2222 3500 
L 2222 3053 
L 1275 3053 
L 1275 0 
L 697 0 
L 697 3053 
L 147 3053 
L 147 3500 
L 697 3500 
L 697 3744 
Q 697 4328 969 4595 
Q 1241 4863 1831 4863 
L 2375 4863 
z
" transform="scale(0.015625)"/>
      <path id="DejaVuSans-41" d="M 2188 4044 
L 1331 1722 
L 3047 1722 
L 2188 4044 
z
M 1831 4666 
L 2547 4666 
L 4325 0 
L 3669 0 
L 3244 1197 
L 1141 1197 
L 716 0 
L 50 0 
L 1831 4666 
z
" transform="scale(0.015625)"/>
      <path id="DejaVuSans-45" d="M 628 4666 
L 3578 4666 
L 3578 4134 
L 1259 4134 
L 1259 2753 
L 3481 2753 
L 3481 2222 
L 1259 2222 
L 1259 531 
L 3634 531 
L 3634 0 
L 628 0 
L 628 4666 
z
" transform="scale(0.015625)"/>
      <path id="DejaVuSans-44" d="M 1259 4147 
L 1259 519 
L 2022 519 
Q 2988 519 3436 956 
Q 3884 1394 3884 2338 
Q 3884 3275 3436 3711 
Q 2988 4147 2022 4147 
L 1259 4147 
z
M 628 4666 
L 1925 4666 
Q 3281 4666 3915 4102 
Q 4550 3538 4550 2338 
Q 4550 1131 3912 565 
Q 3275 0 1925 0 
L 628 0 
L 628 4666 
z
" transform="scale(0.015625)"/>
      <path id="DejaVuSans-73" d="M 2834 3397 
L 2834 2853 
Q 2591 2978 2328 3040 
Q 2066 3103 1784 3103 
Q 1356 3103 1142 2972 
Q 928 2841 928 2578 
Q 928 2378 1081 2264 
Q 1234 2150 1697 2047 
L 1894 2003 
Q 2506 1872 2764 1633 
Q 3022 1394 3022 966 
Q 3022 478 2636 193 
Q 2250 -91 1575 -91 
Q 1294 -91 989 -36 
Q 684 19 347 128 
L 347 722 
Q 666 556 975 473 
Q 1284 391 1588 391 
Q 1994 391 2212 530 
Q 2431 669 2431 922 
Q 2431 1156 2273 1281 
Q 2116 1406 1581 1522 
L 1381 1569 
Q 847 1681 609 1914 
Q 372 2147 372 2553 
Q 372 3047 722 3315 
Q 1072 3584 1716 3584 
Q 2034 3584 2315 3537 
Q 2597 3491 2834 3397 
z
" transform="scale(0.015625)"/>
      <path id="DejaVuSans-69" d="M 603 3500 
L 1178 3500 
L 1178 0 
L 603 0 
L 603 3500 
z
M 603 4863 
L 1178 4863 
L 1178 4134 
L 603 4134 
L 603 4863 
z
" transform="scale(0.015625)"/>
      <path id="DejaVuSans-6e" d="M 3513 2113 
L 3513 0 
L 2938 0 
L 2938 2094 
Q 2938 2591 2744 2837 
Q 2550 3084 2163 3084 
Q 1697 3084 1428 2787 
Q 1159 2491 1159 1978 
L 1159 0 
L 581 0 
L 581 3500 
L 1159 3500 
L 1159 2956 
Q 1366 3272 1645 3428 
Q 1925 3584 2291 3584 
Q 2894 3584 3203 3211 
Q 3513 2838 3513 2113 
z
" transform="scale(0.015625)"/>
      <path id="DejaVuSans-74" d="M 1172 4494 
L 1172 3500 
L 2356 3500 
L 2356 3053 
L 1172 3053 
L 1172 1153 
Q 1172 725 1289 603 
Q 1406 481 1766 481 
L 2356 481 
L 2356 0 
L 1766 0 
Q 1100 0 847 248 
Q 594 497 594 1153 
L 594 3053 
L 172 3053 
L 172 3500 
L 594 3500 
L 594 4494 
L 1172 4494 
z
" transform="scale(0.015625)"/>
      <path id="DejaVuSans-68" d="M 3513 2113 
L 3513 0 
L 2938 0 
L 2938 2094 
Q 2938 2591 2744 2837 
Q 2550 3084 2163 3084 
Q 1697 3084 1428 2787 
Q 1159 2491 1159 1978 
L 1159 0 
L 581 0 
L 581 4863 
L 1159 4863 
L 1159 2956 
Q 1366 3272 1645 3428 
Q 1925 3584 2291 3584 
Q 2894 3584 3203 3211 
Q 3513 2838 3513 2113 
z
" transform="scale(0.015625)"/>
      <path id="DejaVuSans-4f" d="M 2522 4238 
Q 1834 4238 1429 3725 
Q 1025 3213 1025 2328 
Q 1025 1447 1429 934 
Q 1834 422 2522 422 
Q 3209 422 3611 934 
Q 4013 1447 4013 2328 
Q 4013 3213 3611 3725 
Q 3209 4238 2522 4238 
z
M 2522 4750 
Q 3503 4750 4090 4092 
Q 4678 3434 4678 2328 
Q 4678 1225 4090 567 
Q 3503 -91 2522 -91 
Q 1538 -91 948 565 
Q 359 1222 359 2328 
Q 359 3434 948 4092 
Q 1538 4750 2522 4750 
z
" transform="scale(0.015625)"/>
      <path id="DejaVuSans-70" d="M 1159 525 
L 1159 -1331 
L 581 -1331 
L 581 3500 
L 1159 3500 
L 1159 2969 
Q 1341 3281 1617 3432 
Q 1894 3584 2278 3584 
Q 2916 3584 3314 3078 
Q 3713 2572 3713 1747 
Q 3713 922 3314 415 
Q 2916 -91 2278 -91 
Q 1894 -91 1617 61 
Q 1341 213 1159 525 
z
M 3116 1747 
Q 3116 2381 2855 2742 
Q 2594 3103 2138 3103 
Q 1681 3103 1420 2742 
Q 1159 2381 1159 1747 
Q 1159 1113 1420 752 
Q 1681 391 2138 391 
Q 2594 391 2855 752 
Q 3116 1113 3116 1747 
z
" transform="scale(0.015625)"/>
      <path id="DejaVuSans-53" d="M 3425 4513 
L 3425 3897 
Q 3066 4069 2747 4153 
Q 2428 4238 2131 4238 
Q 1616 4238 1336 4038 
Q 1056 3838 1056 3469 
Q 1056 3159 1242 3001 
Q 1428 2844 1947 2747 
L 2328 2669 
Q 3034 2534 3370 2195 
Q 3706 1856 3706 1288 
Q 3706 609 3251 259 
Q 2797 -91 1919 -91 
Q 1588 -91 1214 -16 
Q 841 59 441 206 
L 441 856 
Q 825 641 1194 531 
Q 1563 422 1919 422 
Q 2459 422 2753 634 
Q 3047 847 3047 1241 
Q 3047 1584 2836 1778 
Q 2625 1972 2144 2069 
L 1759 2144 
Q 1053 2284 737 2584 
Q 422 2884 422 3419 
Q 422 4038 858 4394 
Q 1294 4750 2059 4750 
Q 2388 4750 2728 4690 
Q 3069 4631 3425 4513 
z
" transform="scale(0.015625)"/>
      <path id="DejaVuSans-4d" d="M 628 4666 
L 1569 4666 
L 2759 1491 
L 3956 4666 
L 4897 4666 
L 4897 0 
L 4281 0 
L 4281 4097 
L 3078 897 
L 2444 897 
L 1241 4097 
L 1241 0 
L 628 0 
L 628 4666 
z
" transform="scale(0.015625)"/>
      <path id="DejaVuSans-61" d="M 2194 1759 
Q 1497 1759 1228 1600 
Q 959 1441 959 1056 
Q 959 750 1161 570 
Q 1363 391 1709 391 
Q 2188 391 2477 730 
Q 2766 1069 2766 1631 
L 2766 1759 
L 2194 1759 
z
M 3341 1997 
L 3341 0 
L 2766 0 
L 2766 531 
Q 2569 213 2275 61 
Q 1981 -91 1556 -91 
Q 1019 -91 701 211 
Q 384 513 384 1019 
Q 384 1609 779 1909 
Q 1175 2209 1959 2209 
L 2766 2209 
L 2766 2266 
Q 2766 2663 2505 2880 
Q 2244 3097 1772 3097 
Q 1472 3097 1187 3025 
Q 903 2953 641 2809 
L 641 3341 
Q 956 3463 1253 3523 
Q 1550 3584 1831 3584 
Q 2591 3584 2966 3190 
Q 3341 2797 3341 1997 
z
" transform="scale(0.015625)"/>
      <path id="DejaVuSans-64" d="M 2906 2969 
L 2906 4863 
L 3481 4863 
L 3481 0 
L 2906 0 
L 2906 525 
Q 2725 213 2448 61 
Q 2172 -91 1784 -91 
Q 1150 -91 751 415 
Q 353 922 353 1747 
Q 353 2572 751 3078 
Q 1150 3584 1784 3584 
Q 2172 3584 2448 3432 
Q 2725 3281 2906 2969 
z
M 947 1747 
Q 947 1113 1208 752 
Q 1469 391 1925 391 
Q 2381 391 2643 752 
Q 2906 1113 2906 1747 
Q 2906 2381 2643 2742 
Q 2381 3103 1925 3103 
Q 1469 3103 1208 2742 
Q 947 2381 947 1747 
z
" transform="scale(0.015625)"/>
      <path id="DejaVuSans-50" d="M 1259 4147 
L 1259 2394 
L 2053 2394 
Q 2494 2394 2734 2622 
Q 2975 2850 2975 3272 
Q 2975 3691 2734 3919 
Q 2494 4147 2053 4147 
L 1259 4147 
z
M 628 4666 
L 2053 4666 
Q 2838 4666 3239 4311 
Q 3641 3956 3641 3272 
Q 3641 2581 3239 2228 
Q 2838 1875 2053 1875 
L 1259 1875 
L 1259 0 
L 628 0 
L 628 4666 
z
" transform="scale(0.015625)"/>
      <path id="DejaVuSans-6c" d="M 603 4863 
L 1178 4863 
L 1178 0 
L 603 0 
L 603 4863 
z
" transform="scale(0.015625)"/>
      <path id="DejaVuSans-2c" d="M 750 794 
L 1409 794 
L 1409 256 
L 897 -744 
L 494 -744 
L 750 256 
L 750 794 
z
" transform="scale(0.015625)"/>
      <path id="DejaVuSans-79" d="M 2059 -325 
Q 1816 -950 1584 -1140 
Q 1353 -1331 966 -1331 
L 506 -1331 
L 506 -850 
L 844 -850 
Q 1081 -850 1212 -737 
Q 1344 -625 1503 -206 
L 1606 56 
L 191 3500 
L 800 3500 
L 1894 763 
L 2988 3500 
L 3597 3500 
L 2059 -325 
z
" transform="scale(0.015625)"/>
      <path id="DejaVuSans-2e" d="M 684 794 
L 1344 794 
L 1344 0 
L 684 0 
L 684 794 
z
" transform="scale(0.015625)"/>
      <path id="DejaVuSans-3a" d="M 750 794 
L 1409 794 
L 1409 0 
L 750 0 
L 750 794 
z
M 750 3309 
L 1409 3309 
L 1409 2516 
L 750 2516 
L 750 3309 
z
" transform="scale(0.015625)"/>
     </defs>
     <use xlink:href="#DejaVuSans-4e"/>
     <use xlink:href="#DejaVuSans-75" x="74.804688"/>
     <use xlink:href="#DejaVuSans-6d" x="138.183594"/>
     <use xlink:href="#DejaVuSans-62" x="235.595703"/>
     <use xlink:href="#DejaVuSans-65" x="299.072266"/>
     <use xlink:href="#DejaVuSans-72" x="360.595703"/>
     <use xlink:href="#DejaVuSans-20" x="401.708984"/>
     <use xlink:href="#DejaVuSans-6f" x="433.496094"/>
     <use xlink:href="#DejaVuSans-66" x="494.677734"/>
     <use xlink:href="#DejaVuSans-20" x="529.882812"/>
     <use xlink:href="#DejaVuSans-41" x="561.669922"/>
     <use xlink:href="#DejaVuSans-45" x="630.078125"/>
     <use xlink:href="#DejaVuSans-44" x="693.261719"/>
     <use xlink:href="#DejaVuSans-73" x="770.263672"/>
     <use xlink:href="#DejaVuSans-20" x="822.363281"/>
     <use xlink:href="#DejaVuSans-69" x="854.150391"/>
     <use xlink:href="#DejaVuSans-6e" x="881.933594"/>
     <use xlink:href="#DejaVuSans-20" x="945.3125"/>
     <use xlink:href="#DejaVuSans-74" x="977.099609"/>
     <use xlink:href="#DejaVuSans-68" x="1016.308594"/>
     <use xlink:href="#DejaVuSans-65" x="1079.6875"/>
     <use xlink:href="#DejaVuSans-20" x="1141.210938"/>
     <use xlink:href="#DejaVuSans-4f" x="1172.998047"/>
     <use xlink:href="#DejaVuSans-70" x="1251.708984"/>
     <use xlink:href="#DejaVuSans-65" x="1315.185547"/>
     <use xlink:href="#DejaVuSans-6e" x="1376.708984"/>
     <use xlink:href="#DejaVuSans-53" x="1440.087891"/>
     <use xlink:href="#DejaVuSans-74" x="1503.564453"/>
     <use xlink:href="#DejaVuSans-72" x="1542.773438"/>
     <use xlink:href="#DejaVuSans-65" x="1581.636719"/>
     <use xlink:href="#DejaVuSans-65" x="1643.160156"/>
     <use xlink:href="#DejaVuSans-74" x="1704.683594"/>
     <use xlink:href="#DejaVuSans-4d" x="1743.892578"/>
     <use xlink:href="#DejaVuSans-61" x="1830.171875"/>
     <use xlink:href="#DejaVuSans-70" x="1891.451172"/>
     <use xlink:href="#DejaVuSans-20" x="1954.927734"/>
     <use xlink:href="#DejaVuSans-64" x="1986.714844"/>
     <use xlink:href="#DejaVuSans-61" x="2050.191406"/>
     <use xlink:href="#DejaVuSans-74" x="2111.470703"/>
     <use xlink:href="#DejaVuSans-61" x="2150.679688"/>
     <use xlink:href="#DejaVuSans-62" x="2211.958984"/>
     <use xlink:href="#DejaVuSans-61" x="2275.435547"/>
     <use xlink:href="#DejaVuSans-73" x="2336.714844"/>
     <use xlink:href="#DejaVuSans-65" x="2388.814453"/>
     <use xlink:href="#DejaVuSans-20" x="2450.337891"/>
     <use xlink:href="#DejaVuSans-69" x="2482.125"/>
     <use xlink:href="#DejaVuSans-6e" x="2509.908203"/>
     <use xlink:href="#DejaVuSans-20" x="2573.287109"/>
     <use xlink:href="#DejaVuSans-50" x="2605.074219"/>
     <use xlink:href="#DejaVuSans-6f" x="2661.751953"/>
     <use xlink:href="#DejaVuSans-6c" x="2722.933594"/>
     <use xlink:href="#DejaVuSans-61" x="2750.716797"/>
     <use xlink:href="#DejaVuSans-6e" x="2811.996094"/>
     <use xlink:href="#DejaVuSans-64" x="2875.375"/>
     <use xlink:href="#DejaVuSans-20" x="2938.851562"/>
     <use xlink:href="#DejaVuSans-66" x="2970.638672"/>
     <use xlink:href="#DejaVuSans-72" x="3005.84375"/>
     <use xlink:href="#DejaVuSans-6f" x="3044.707031"/>
     <use xlink:href="#DejaVuSans-6d" x="3105.888672"/>
     <use xlink:href="#DejaVuSans-20" x="3203.300781"/>
     <use xlink:href="#DejaVuSans-32" x="3235.087891"/>
     <use xlink:href="#DejaVuSans-30" x="3298.710938"/>
     <use xlink:href="#DejaVuSans-32" x="3362.333984"/>
     <use xlink:href="#DejaVuSans-34" x="3425.957031"/>
     <use xlink:href="#DejaVuSans-2d" x="3489.580078"/>
     <use xlink:href="#DejaVuSans-30" x="3525.664062"/>
     <use xlink:href="#DejaVuSans-31" x="3589.287109"/>
     <use xlink:href="#DejaVuSans-2d" x="3652.910156"/>
     <use xlink:href="#DejaVuSans-30" x="3688.994141"/>
     <use xlink:href="#DejaVuSans-31" x="3752.617188"/>
     <use xlink:href="#DejaVuSans-2c" x="3816.240234"/>
     <use xlink:href="#DejaVuSans-20" x="3848.027344"/>
     <use xlink:href="#DejaVuSans-64" x="3879.814453"/>
     <use xlink:href="#DejaVuSans-61" x="3943.291016"/>
     <use xlink:href="#DejaVuSans-79" x="4004.570312"/>
     <use xlink:href="#DejaVuSans-20" x="4063.75"/>
     <use xlink:href="#DejaVuSans-62" x="4095.537109"/>
     <use xlink:href="#DejaVuSans-79" x="4159.013672"/>
     <use xlink:href="#DejaVuSans-20" x="4218.193359"/>
     <use xlink:href="#DejaVuSans-64" x="4249.980469"/>
     <use xlink:href="#DejaVuSans-61" x="4313.457031"/>
     <use xlink:href="#DejaVuSans-79" x="4374.736328"/>
     <use xlink:href="#DejaVuSans-2e" x="4419.666016"/>
     <use xlink:href="#DejaVuSans-20" x="4451.453125"/>
     <use xlink:href="#DejaVuSans-41" x="4483.240234"/>
     <use xlink:href="#DejaVuSans-73" x="4551.648438"/>
     <use xlink:href="#DejaVuSans-20" x="4603.748047"/>
     <use xlink:href="#DejaVuSans-61" x="4635.535156"/>
     <use xlink:href="#DejaVuSans-74" x="4696.814453"/>
     <use xlink:href="#DejaVuSans-3a" x="4736.023438"/>
     <use xlink:href="#DejaVuSans-20" x="4769.714844"/>
     <use xlink:href="#DejaVuSans-32" x="4801.501953"/>
     <use xlink:href="#DejaVuSans-30" x="4865.125"/>
     <use xlink:href="#DejaVuSans-32" x="4928.748047"/>
     <use xlink:href="#DejaVuSans-34" x="4992.371094"/>
     <use xlink:href="#DejaVuSans-2d" x="5055.994141"/>
     <use xlink:href="#DejaVuSans-30" x="5092.078125"/>
     <use xlink:href="#DejaVuSans-33" x="5155.701172"/>
     <use xlink:href="#DejaVuSans-2d" x="5219.324219"/>
     <use xlink:href="#DejaVuSans-32" x="5255.408203"/>
     <use xlink:href="#DejaVuSans-31" x="5319.03125"/>
    </g>
   </g>
  </g>
 </g>
 <defs>
  <clipPath id="p1a5636c70c">
   <rect x="144" y="69.12" width="892.8" height="443.52"/>
  </clipPath>
 </defs>
</svg>
