<?xml version="1.0" encoding="utf-8" standalone="no"?>
<!DOCTYPE svg PUBLIC "-//W3C//DTD SVG 1.1//EN"
  "http://www.w3.org/Graphics/SVG/1.1/DTD/svg11.dtd">
<svg xmlns:xlink="http://www.w3.org/1999/xlink" width="1152pt" height="576pt" viewBox="0 0 1152 576" xmlns="http://www.w3.org/2000/svg" version="1.1">
 <metadata>
  <rdf:RDF xmlns:dc="http://purl.org/dc/elements/1.1/" xmlns:cc="http://creativecommons.org/ns#" xmlns:rdf="http://www.w3.org/1999/02/22-rdf-syntax-ns#">
   <cc:Work>
    <dc:type rdf:resource="http://purl.org/dc/dcmitype/StillImage"/>
    <dc:date>2023-03-31T21:33:19.298157</dc:date>
    <dc:format>image/svg+xml</dc:format>
    <dc:creator>
     <cc:Agent>
      <dc:title>Matplotlib v3.5.1, https://matplotlib.org/</dc:title>
     </cc:Agent>
    </dc:creator>
   </cc:Work>
  </rdf:RDF>
 </metadata>
 <defs>
  <style type="text/css">*{stroke-linejoin: round; stroke-linecap: butt}</style>
 </defs>
 <g id="figure_1">
  <g id="patch_1">
   <path d="M 0 576 
L 1152 576 
L 1152 0 
L 0 0 
z
" style="fill: #ffffff"/>
  </g>
  <g id="axes_1">
   <g id="patch_2">
    <path d="M 144 512.64 
L 1036.8 512.64 
L 1036.8 69.12 
L 144 69.12 
z
" style="fill: #ffffff"/>
   </g>
   <g id="PathCollection_1">
    <path d="M 184.581818 505.422179 
C 188.014124 505.422179 191.306314 504.058509 193.733321 501.631503 
C 196.160328 499.204496 197.523997 495.912306 197.523997 492.48 
C 197.523997 489.047694 196.160328 485.755504 193.733321 483.328497 
C 191.306314 480.901491 188.014124 479.537821 184.581818 479.537821 
C 181.149512 479.537821 177.857322 480.901491 175.430316 483.328497 
C 173.003309 485.755504 171.639639 489.047694 171.639639 492.48 
C 171.639639 495.912306 173.003309 499.204496 175.430316 501.631503 
C 177.857322 504.058509 181.149512 505.422179 184.581818 505.422179 
z
" clip-path="url(#pc722b4dd36)" style="fill: #1f77b4; fill-opacity: 0.3; stroke: #1f77b4; stroke-opacity: 0.3"/>
    <path d="M 193.701328 493.826555 
C 194.887352 493.826555 196.02496 493.355342 196.863606 492.516696 
C 197.702251 491.67805 198.173464 490.540443 198.173464 489.354419 
C 198.173464 488.168394 197.702251 487.030787 196.863606 486.192141 
C 196.02496 485.353495 194.887352 484.882283 193.701328 484.882283 
C 192.515304 484.882283 191.377696 485.353495 190.53905 486.192141 
C 189.700404 487.030787 189.229192 488.168394 189.229192 489.354419 
C 189.229192 490.540443 189.700404 491.67805 190.53905 492.516696 
C 191.377696 493.355342 192.515304 493.826555 193.701328 493.826555 
z
" clip-path="url(#pc722b4dd36)" style="fill: #1f77b4; fill-opacity: 0.3; stroke: #1f77b4; stroke-opacity: 0.3"/>
    <path d="M 202.820838 487.723641 
C 204.875092 487.723641 206.845486 486.907477 208.298063 485.4549 
C 209.75064 484.002323 210.566804 482.031929 210.566804 479.977674 
C 210.566804 477.92342 209.75064 475.953026 208.298063 474.500449 
C 206.845486 473.047872 204.875092 472.231708 202.820838 472.231708 
C 200.766583 472.231708 198.796189 473.047872 197.343612 474.500449 
C 195.891035 475.953026 195.074871 477.92342 195.074871 479.977674 
C 195.074871 482.031929 195.891035 484.002323 197.343612 485.4549 
C 198.796189 486.907477 200.766583 487.723641 202.820838 487.723641 
z
" clip-path="url(#pc722b4dd36)" style="fill: #1f77b4; fill-opacity: 0.3; stroke: #1f77b4; stroke-opacity: 0.3"/>
    <path d="M 211.940347 477.40474 
C 214.159196 477.40474 216.287464 476.523182 217.856427 474.954219 
C 219.42539 473.385257 220.306948 471.256988 220.306948 469.03814 
C 220.306948 466.819291 219.42539 464.691022 217.856427 463.12206 
C 216.287464 461.553097 214.159196 460.671539 211.940347 460.671539 
C 209.721499 460.671539 207.59323 461.553097 206.024268 463.12206 
C 204.455305 464.691022 203.573747 466.819291 203.573747 469.03814 
C 203.573747 471.256988 204.455305 473.385257 206.024268 474.954219 
C 207.59323 476.523182 209.721499 477.40474 211.940347 477.40474 
z
" clip-path="url(#pc722b4dd36)" style="fill: #1f77b4; fill-opacity: 0.3; stroke: #1f77b4; stroke-opacity: 0.3"/>
    <path d="M 221.059857 467.407362 
C 223.114111 467.407362 225.084505 466.591198 226.537083 465.138621 
C 227.98966 463.686044 228.805824 461.71565 228.805824 459.661395 
C 228.805824 457.607141 227.98966 455.636747 226.537083 454.18417 
C 225.084505 452.731593 223.114111 451.915429 221.059857 451.915429 
C 219.005603 451.915429 217.035209 452.731593 215.582631 454.18417 
C 214.130054 455.636747 213.31389 457.607141 213.31389 459.661395 
C 213.31389 461.71565 214.130054 463.686044 215.582631 465.138621 
C 217.035209 466.591198 219.005603 467.407362 221.059857 467.407362 
z
" clip-path="url(#pc722b4dd36)" style="fill: #1f77b4; fill-opacity: 0.3; stroke: #1f77b4; stroke-opacity: 0.3"/>
    <path d="M 230.179367 459.734788 
C 231.856658 459.734788 233.465478 459.068393 234.651503 457.882369 
C 235.837527 456.696344 236.503922 455.087524 236.503922 453.410233 
C 236.503922 451.732941 235.837527 450.124121 234.651503 448.938097 
C 233.465478 447.752072 231.856658 447.085677 230.179367 447.085677 
C 228.502075 447.085677 226.893255 447.752072 225.707231 448.938097 
C 224.521206 450.124121 223.854811 451.732941 223.854811 453.410233 
C 223.854811 455.087524 224.521206 456.696344 225.707231 457.882369 
C 226.893255 459.068393 228.502075 459.734788 230.179367 459.734788 
z
" clip-path="url(#pc722b4dd36)" style="fill: #1f77b4; fill-opacity: 0.3; stroke: #1f77b4; stroke-opacity: 0.3"/>
    <path d="M 239.298876 453.856545 
C 240.867839 453.856545 242.372752 453.233189 243.482177 452.123765 
C 244.591601 451.014341 245.214956 449.509428 245.214956 447.940465 
C 245.214956 446.371502 244.591601 444.866589 243.482177 443.757165 
C 242.372752 442.647741 240.867839 442.024385 239.298876 442.024385 
C 237.729914 442.024385 236.225 442.647741 235.115576 443.757165 
C 234.006152 444.866589 233.382797 446.371502 233.382797 447.940465 
C 233.382797 449.509428 234.006152 451.014341 235.115576 452.123765 
C 236.225 453.233189 237.729914 453.856545 239.298876 453.856545 
z
" clip-path="url(#pc722b4dd36)" style="fill: #1f77b4; fill-opacity: 0.3; stroke: #1f77b4; stroke-opacity: 0.3"/>
    <path d="M 248.418386 448.013858 
C 250.095678 448.013858 251.704498 447.347463 252.890522 446.161438 
C 254.076546 444.975414 254.742941 443.366594 254.742941 441.689302 
C 254.742941 440.012011 254.076546 438.403191 252.890522 437.217166 
C 251.704498 436.031142 250.095678 435.364747 248.418386 435.364747 
C 246.741094 435.364747 245.132274 436.031142 243.94625 437.217166 
C 242.760226 438.403191 242.093831 440.012011 242.093831 441.689302 
C 242.093831 443.366594 242.760226 444.975414 243.94625 446.161438 
C 245.132274 447.347463 246.741094 448.013858 248.418386 448.013858 
z
" clip-path="url(#pc722b4dd36)" style="fill: #1f77b4; fill-opacity: 0.3; stroke: #1f77b4; stroke-opacity: 0.3"/>
    <path d="M 257.537896 443.2181 
C 258.565023 443.2181 259.55022 442.810018 260.276509 442.083729 
C 261.002797 441.35744 261.410879 440.372243 261.410879 439.345116 
C 261.410879 438.317989 261.002797 437.332792 260.276509 436.606503 
C 259.55022 435.880215 258.565023 435.472133 257.537896 435.472133 
C 256.510769 435.472133 255.525572 435.880215 254.799283 436.606503 
C 254.072994 437.332792 253.664912 438.317989 253.664912 439.345116 
C 253.664912 440.372243 254.072994 441.35744 254.799283 442.083729 
C 255.525572 442.810018 256.510769 443.2181 257.537896 443.2181 
z
" clip-path="url(#pc722b4dd36)" style="fill: #1f77b4; fill-opacity: 0.3; stroke: #1f77b4; stroke-opacity: 0.3"/>
    <path d="M 266.657406 440.572254 
C 267.915374 440.572254 269.121989 440.072457 270.011507 439.182939 
C 270.901026 438.293421 271.400822 437.086806 271.400822 435.828837 
C 271.400822 434.570868 270.901026 433.364253 270.011507 432.474735 
C 269.121989 431.585217 267.915374 431.085421 266.657406 431.085421 
C 265.399437 431.085421 264.192822 431.585217 263.303304 432.474735 
C 262.413785 433.364253 261.913989 434.570868 261.913989 435.828837 
C 261.913989 437.086806 262.413785 438.293421 263.303304 439.182939 
C 264.192822 440.072457 265.399437 440.572254 266.657406 440.572254 
z
" clip-path="url(#pc722b4dd36)" style="fill: #1f77b4; fill-opacity: 0.3; stroke: #1f77b4; stroke-opacity: 0.3"/>
    <path d="M 275.776915 435.90223 
C 277.454207 435.90223 279.063027 435.235835 280.249051 434.04981 
C 281.435075 432.863786 282.101471 431.254966 282.101471 429.577674 
C 282.101471 427.900383 281.435075 426.291563 280.249051 425.105538 
C 279.063027 423.919514 277.454207 423.253119 275.776915 423.253119 
C 274.099624 423.253119 272.490804 423.919514 271.304779 425.105538 
C 270.118755 426.291563 269.45236 427.900383 269.45236 429.577674 
C 269.45236 431.254966 270.118755 432.863786 271.304779 434.04981 
C 272.490804 435.235835 274.099624 435.90223 275.776915 435.90223 
z
" clip-path="url(#pc722b4dd36)" style="fill: #1f77b4; fill-opacity: 0.3; stroke: #1f77b4; stroke-opacity: 0.3"/>
    <path d="M 284.896425 421.50146 
C 287.831685 421.50146 290.64712 420.335269 292.722663 418.259726 
C 294.798205 416.184184 295.964397 413.368749 295.964397 410.433488 
C 295.964397 407.498228 294.798205 404.682793 292.722663 402.60725 
C 290.64712 400.531708 287.831685 399.365517 284.896425 399.365517 
C 281.961164 399.365517 279.14573 400.531708 277.070187 402.60725 
C 274.994644 404.682793 273.828453 407.498228 273.828453 410.433488 
C 273.828453 413.368749 274.994644 416.184184 277.070187 418.259726 
C 279.14573 420.335269 281.961164 421.50146 284.896425 421.50146 
z
" clip-path="url(#pc722b4dd36)" style="fill: #1f77b4; fill-opacity: 0.3; stroke: #1f77b4; stroke-opacity: 0.3"/>
    <path d="M 294.015935 411.222342 
C 295.468512 411.222342 296.861791 410.645227 297.888918 409.6181 
C 298.916045 408.590972 299.49316 407.197693 299.49316 405.745116 
C 299.49316 404.292539 298.916045 402.89926 297.888918 401.872133 
C 296.861791 400.845006 295.468512 400.267891 294.015935 400.267891 
C 292.563357 400.267891 291.170078 400.845006 290.142951 401.872133 
C 289.115824 402.89926 288.538709 404.292539 288.538709 405.745116 
C 288.538709 407.197693 289.115824 408.590972 290.142951 409.6181 
C 291.170078 410.645227 292.563357 411.222342 294.015935 411.222342 
z
" clip-path="url(#pc722b4dd36)" style="fill: #1f77b4; fill-opacity: 0.3; stroke: #1f77b4; stroke-opacity: 0.3"/>
    <path d="M 303.135444 406.935557 
C 303.554767 406.935557 303.956972 406.768959 304.253478 406.472453 
C 304.549984 406.175947 304.716583 405.773742 304.716583 405.354419 
C 304.716583 404.935096 304.549984 404.532891 304.253478 404.236385 
C 303.956972 403.939879 303.554767 403.77328 303.135444 403.77328 
C 302.716121 403.77328 302.313916 403.939879 302.01741 404.236385 
C 301.720904 404.532891 301.554306 404.935096 301.554306 405.354419 
C 301.554306 405.773742 301.720904 406.175947 302.01741 406.472453 
C 302.313916 406.768959 302.716121 406.935557 303.135444 406.935557 
z
" clip-path="url(#pc722b4dd36)" style="fill: #1f77b4; fill-opacity: 0.3; stroke: #1f77b4; stroke-opacity: 0.3"/>
    <path d="M 312.254954 406.143272 
C 313.707531 406.143272 315.10081 405.566157 316.127937 404.53903 
C 317.155065 403.511903 317.73218 402.118624 317.73218 400.666047 
C 317.73218 399.213469 317.155065 397.82019 316.127937 396.793063 
C 315.10081 395.765936 313.707531 395.188821 312.254954 395.188821 
C 310.802377 395.188821 309.409098 395.765936 308.381971 396.793063 
C 307.354843 397.82019 306.777728 399.213469 306.777728 400.666047 
C 306.777728 402.118624 307.354843 403.511903 308.381971 404.53903 
C 309.409098 405.566157 310.802377 406.143272 312.254954 406.143272 
z
" clip-path="url(#pc722b4dd36)" style="fill: #1f77b4; fill-opacity: 0.3; stroke: #1f77b4; stroke-opacity: 0.3"/>
    <path d="M 321.374464 400.929306 
C 322.998494 400.929306 324.556228 400.284072 325.704591 399.135708 
C 326.852954 397.987345 327.498188 396.429612 327.498188 394.805581 
C 327.498188 393.181551 326.852954 391.623817 325.704591 390.475454 
C 324.556228 389.327091 322.998494 388.681857 321.374464 388.681857 
C 319.750433 388.681857 318.1927 389.327091 317.044337 390.475454 
C 315.895974 391.623817 315.250739 393.181551 315.250739 394.805581 
C 315.250739 396.429612 315.895974 397.987345 317.044337 399.135708 
C 318.1927 400.284072 319.750433 400.929306 321.374464 400.929306 
z
" clip-path="url(#pc722b4dd36)" style="fill: #1f77b4; fill-opacity: 0.3; stroke: #1f77b4; stroke-opacity: 0.3"/>
    <path d="M 330.493973 395.594435 
C 331.946551 395.594435 333.33983 395.01732 334.366957 393.990193 
C 335.394084 392.963065 335.971199 391.569787 335.971199 390.117209 
C 335.971199 388.664632 335.394084 387.271353 334.366957 386.244226 
C 333.33983 385.217099 331.946551 384.639984 330.493973 384.639984 
C 329.041396 384.639984 327.648117 385.217099 326.62099 386.244226 
C 325.593863 387.271353 325.016748 388.664632 325.016748 390.117209 
C 325.016748 391.569787 325.593863 392.963065 326.62099 393.990193 
C 327.648117 395.01732 329.041396 395.594435 330.493973 395.594435 
z
" clip-path="url(#pc722b4dd36)" style="fill: #1f77b4; fill-opacity: 0.3; stroke: #1f77b4; stroke-opacity: 0.3"/>
    <path d="M 339.613483 391.646007 
C 340.64061 391.646007 341.625807 391.237925 342.352096 390.511636 
C 343.078385 389.785347 343.486466 388.80015 343.486466 387.773023 
C 343.486466 386.745896 343.078385 385.760699 342.352096 385.03441 
C 341.625807 384.308122 340.64061 383.90004 339.613483 383.90004 
C 338.586356 383.90004 337.601159 384.308122 336.87487 385.03441 
C 336.148582 385.760699 335.7405 386.745896 335.7405 387.773023 
C 335.7405 388.80015 336.148582 389.785347 336.87487 390.511636 
C 337.601159 391.237925 338.586356 391.646007 339.613483 391.646007 
z
" clip-path="url(#pc722b4dd36)" style="fill: #1f77b4; fill-opacity: 0.3; stroke: #1f77b4; stroke-opacity: 0.3"/>
    <path d="M 348.732993 387.030138 
C 350.608262 387.030138 352.406977 386.285085 353.732993 384.95907 
C 355.059008 383.633054 355.804061 381.834339 355.804061 379.95907 
C 355.804061 378.083801 355.059008 376.285085 353.732993 374.95907 
C 352.406977 373.633054 350.608262 372.888002 348.732993 372.888002 
C 346.857724 372.888002 345.059008 373.633054 343.732993 374.95907 
C 342.406977 376.285085 341.661925 378.083801 341.661925 379.95907 
C 341.661925 381.834339 342.406977 383.633054 343.732993 384.95907 
C 345.059008 386.285085 346.857724 387.030138 348.732993 387.030138 
z
" clip-path="url(#pc722b4dd36)" style="fill: #1f77b4; fill-opacity: 0.3; stroke: #1f77b4; stroke-opacity: 0.3"/>
    <path d="M 357.852503 381.487867 
C 358.87963 381.487867 359.864827 381.079785 360.591115 380.353497 
C 361.317404 379.627208 361.725486 378.642011 361.725486 377.614884 
C 361.725486 376.587757 361.317404 375.60256 360.591115 374.876271 
C 359.864827 374.149982 358.87963 373.7419 357.852503 373.7419 
C 356.825375 373.7419 355.840178 374.149982 355.11389 374.876271 
C 354.387601 375.60256 353.979519 376.587757 353.979519 377.614884 
C 353.979519 378.642011 354.387601 379.627208 355.11389 380.353497 
C 355.840178 381.079785 356.825375 381.487867 357.852503 381.487867 
z
" clip-path="url(#pc722b4dd36)" style="fill: #1f77b4; fill-opacity: 0.3; stroke: #1f77b4; stroke-opacity: 0.3"/>
    <path d="M 366.972012 378.403737 
C 368.424589 378.403737 369.817868 377.826622 370.844996 376.799495 
C 371.872123 375.772368 372.449238 374.379089 372.449238 372.926512 
C 372.449238 371.473934 371.872123 370.080655 370.844996 369.053528 
C 369.817868 368.026401 368.424589 367.449286 366.972012 367.449286 
C 365.519435 367.449286 364.126156 368.026401 363.099029 369.053528 
C 362.071902 370.080655 361.494787 371.473934 361.494787 372.926512 
C 361.494787 374.379089 362.071902 375.772368 363.099029 376.799495 
C 364.126156 377.826622 365.519435 378.403737 366.972012 378.403737 
z
" clip-path="url(#pc722b4dd36)" style="fill: #1f77b4; fill-opacity: 0.3; stroke: #1f77b4; stroke-opacity: 0.3"/>
    <path d="M 376.091522 374.508557 
C 377.029157 374.508557 377.928514 374.136031 378.591522 373.473023 
C 379.25453 372.810016 379.627056 371.910658 379.627056 370.973023 
C 379.627056 370.035389 379.25453 369.136031 378.591522 368.473023 
C 377.928514 367.810016 377.029157 367.437489 376.091522 367.437489 
C 375.153887 367.437489 374.25453 367.810016 373.591522 368.473023 
C 372.928514 369.136031 372.555988 370.035389 372.555988 370.973023 
C 372.555988 371.910658 372.928514 372.810016 373.591522 373.473023 
C 374.25453 374.136031 375.153887 374.508557 376.091522 374.508557 
z
" clip-path="url(#pc722b4dd36)" style="fill: #1f77b4; fill-opacity: 0.3; stroke: #1f77b4; stroke-opacity: 0.3"/>
    <path d="M 385.211032 367.912347 
C 387.507758 367.912347 389.710725 366.999848 391.334756 365.375817 
C 392.958787 363.751787 393.871286 361.548819 393.871286 359.252093 
C 393.871286 356.955367 392.958787 354.752399 391.334756 353.128369 
C 389.710725 351.504338 387.507758 350.591839 385.211032 350.591839 
C 382.914305 350.591839 380.711338 351.504338 379.087307 353.128369 
C 377.463277 354.752399 376.550778 356.955367 376.550778 359.252093 
C 376.550778 361.548819 377.463277 363.751787 379.087307 365.375817 
C 380.711338 366.999848 382.914305 367.912347 385.211032 367.912347 
z
" clip-path="url(#pc722b4dd36)" style="fill: #1f77b4; fill-opacity: 0.3; stroke: #1f77b4; stroke-opacity: 0.3"/>
    <path d="M 394.330541 359.325486 
C 396.007833 359.325486 397.616653 358.659091 398.802677 357.473066 
C 399.988702 356.287042 400.655097 354.678222 400.655097 353.00093 
C 400.655097 351.323639 399.988702 349.714819 398.802677 348.528794 
C 397.616653 347.34277 396.007833 346.676375 394.330541 346.676375 
C 392.65325 346.676375 391.04443 347.34277 389.858405 348.528794 
C 388.672381 349.714819 388.005986 351.323639 388.005986 353.00093 
C 388.005986 354.678222 388.672381 356.287042 389.858405 357.473066 
C 391.04443 358.659091 392.65325 359.325486 394.330541 359.325486 
z
" clip-path="url(#pc722b4dd36)" style="fill: #1f77b4; fill-opacity: 0.3; stroke: #1f77b4; stroke-opacity: 0.3"/>
    <path d="M 403.450051 352.878272 
C 405.178964 352.878272 406.837297 352.191368 408.059823 350.968842 
C 409.282349 349.746316 409.969253 348.087982 409.969253 346.35907 
C 409.969253 344.630157 409.282349 342.971823 408.059823 341.749298 
C 406.837297 340.526772 405.178964 339.839867 403.450051 339.839867 
C 401.721138 339.839867 400.062805 340.526772 398.840279 341.749298 
C 397.617753 342.971823 396.930849 344.630157 396.930849 346.35907 
C 396.930849 348.087982 397.617753 349.746316 398.840279 350.968842 
C 400.062805 352.191368 401.721138 352.878272 403.450051 352.878272 
z
" clip-path="url(#pc722b4dd36)" style="fill: #1f77b4; fill-opacity: 0.3; stroke: #1f77b4; stroke-opacity: 0.3"/>
    <path d="M 412.569561 347.147923 
C 414.022138 347.147923 415.415417 346.570808 416.442544 345.543681 
C 417.469671 344.516554 418.046786 343.123275 418.046786 341.670698 
C 418.046786 340.21812 417.469671 338.824842 416.442544 337.797714 
C 415.415417 336.770587 414.022138 336.193472 412.569561 336.193472 
C 411.116984 336.193472 409.723705 336.770587 408.696577 337.797714 
C 407.66945 338.824842 407.092335 340.21812 407.092335 341.670698 
C 407.092335 343.123275 407.66945 344.516554 408.696577 345.543681 
C 409.723705 346.570808 411.116984 347.147923 412.569561 347.147923 
z
" clip-path="url(#pc722b4dd36)" style="fill: #1f77b4; fill-opacity: 0.3; stroke: #1f77b4; stroke-opacity: 0.3"/>
    <path d="M 421.68907 342.459551 
C 423.141648 342.459551 424.534927 341.882436 425.562054 340.855309 
C 426.589181 339.828182 427.166296 338.434903 427.166296 336.982326 
C 427.166296 335.529748 426.589181 334.136469 425.562054 333.109342 
C 424.534927 332.082215 423.141648 331.5051 421.68907 331.5051 
C 420.236493 331.5051 418.843214 332.082215 417.816087 333.109342 
C 416.78896 334.136469 416.211845 335.529748 416.211845 336.982326 
C 416.211845 338.434903 416.78896 339.828182 417.816087 340.855309 
C 418.843214 341.882436 420.236493 342.459551 421.68907 342.459551 
z
" clip-path="url(#pc722b4dd36)" style="fill: #1f77b4; fill-opacity: 0.3; stroke: #1f77b4; stroke-opacity: 0.3"/>
    <path d="M 430.80858 338.564371 
C 431.746215 338.564371 432.645572 338.191845 433.30858 337.528837 
C 433.971588 336.865829 434.344114 335.966472 434.344114 335.028837 
C 434.344114 334.091203 433.971588 333.191845 433.30858 332.528837 
C 432.645572 331.865829 431.746215 331.493303 430.80858 331.493303 
C 429.870946 331.493303 428.971588 331.865829 428.30858 332.528837 
C 427.645572 333.191845 427.273046 334.091203 427.273046 335.028837 
C 427.273046 335.966472 427.645572 336.865829 428.30858 337.528837 
C 428.971588 338.191845 429.870946 338.564371 430.80858 338.564371 
z
" clip-path="url(#pc722b4dd36)" style="fill: #1f77b4; fill-opacity: 0.3; stroke: #1f77b4; stroke-opacity: 0.3"/>
    <path d="M 439.92809 336.477254 
C 441.037514 336.477254 442.101648 336.036475 442.88613 335.251993 
C 443.670611 334.467512 444.11139 333.403378 444.11139 332.293953 
C 444.11139 331.184529 443.670611 330.120395 442.88613 329.335914 
C 442.101648 328.551432 441.037514 328.110653 439.92809 328.110653 
C 438.818666 328.110653 437.754531 328.551432 436.97005 329.335914 
C 436.185569 330.120395 435.74479 331.184529 435.74479 332.293953 
C 435.74479 333.403378 436.185569 334.467512 436.97005 335.251993 
C 437.754531 336.036475 438.818666 336.477254 439.92809 336.477254 
z
" clip-path="url(#pc722b4dd36)" style="fill: #1f77b4; fill-opacity: 0.3; stroke: #1f77b4; stroke-opacity: 0.3"/>
    <path d="M 449.0476 333.875999 
C 449.985234 333.875999 450.884592 333.503473 451.5476 332.840465 
C 452.210607 332.177457 452.583133 331.2781 452.583133 330.340465 
C 452.583133 329.402831 452.210607 328.503473 451.5476 327.840465 
C 450.884592 327.177457 449.985234 326.804931 449.0476 326.804931 
C 448.109965 326.804931 447.210607 327.177457 446.5476 327.840465 
C 445.884592 328.503473 445.512066 329.402831 445.512066 330.340465 
C 445.512066 331.2781 445.884592 332.177457 446.5476 332.840465 
C 447.210607 333.503473 448.109965 333.875999 449.0476 333.875999 
z
" clip-path="url(#pc722b4dd36)" style="fill: #1f77b4; fill-opacity: 0.3; stroke: #1f77b4; stroke-opacity: 0.3"/>
    <path d="M 458.167109 331.869262 
C 459.194236 331.869262 460.179433 331.46118 460.905722 330.734892 
C 461.632011 330.008603 462.040093 329.023406 462.040093 327.996279 
C 462.040093 326.969152 461.632011 325.983955 460.905722 325.257666 
C 460.179433 324.531378 459.194236 324.123296 458.167109 324.123296 
C 457.139982 324.123296 456.154785 324.531378 455.428497 325.257666 
C 454.702208 325.983955 454.294126 326.969152 454.294126 327.996279 
C 454.294126 329.023406 454.702208 330.008603 455.428497 330.734892 
C 456.154785 331.46118 457.139982 331.869262 458.167109 331.869262 
z
" clip-path="url(#pc722b4dd36)" style="fill: #1f77b4; fill-opacity: 0.3; stroke: #1f77b4; stroke-opacity: 0.3"/>
    <path d="M 467.286619 329.595766 
C 468.125265 329.595766 468.929675 329.262569 469.522687 328.669556 
C 470.115699 328.076544 470.448897 327.272134 470.448897 326.433488 
C 470.448897 325.594843 470.115699 324.790433 469.522687 324.19742 
C 468.929675 323.604408 468.125265 323.271211 467.286619 323.271211 
C 466.447973 323.271211 465.643563 323.604408 465.050551 324.19742 
C 464.457539 324.790433 464.124341 325.594843 464.124341 326.433488 
C 464.124341 327.272134 464.457539 328.076544 465.050551 328.669556 
C 465.643563 329.262569 466.447973 329.595766 467.286619 329.595766 
z
" clip-path="url(#pc722b4dd36)" style="fill: #1f77b4; fill-opacity: 0.3; stroke: #1f77b4; stroke-opacity: 0.3"/>
    <path d="M 476.406129 327.881905 
C 477.515553 327.881905 478.579687 327.441126 479.364169 326.656645 
C 480.14865 325.872163 480.589429 324.808029 480.589429 323.698605 
C 480.589429 322.58918 480.14865 321.525046 479.364169 320.740565 
C 478.579687 319.956083 477.515553 319.515305 476.406129 319.515305 
C 475.296705 319.515305 474.23257 319.956083 473.448089 320.740565 
C 472.663607 321.525046 472.222829 322.58918 472.222829 323.698605 
C 472.222829 324.808029 472.663607 325.872163 473.448089 326.656645 
C 474.23257 327.441126 475.296705 327.881905 476.406129 327.881905 
z
" clip-path="url(#pc722b4dd36)" style="fill: #1f77b4; fill-opacity: 0.3; stroke: #1f77b4; stroke-opacity: 0.3"/>
    <path d="M 485.525638 318.598887 
C 488.110518 318.598887 490.589877 317.571904 492.417663 315.744117 
C 494.245449 313.916331 495.272433 311.436973 495.272433 308.852093 
C 495.272433 306.267213 494.245449 303.787855 492.417663 301.960069 
C 490.589877 300.132282 488.110518 299.105299 485.525638 299.105299 
C 482.940758 299.105299 480.4614 300.132282 478.633614 301.960069 
C 476.805828 303.787855 475.778844 306.267213 475.778844 308.852093 
C 475.778844 311.436973 476.805828 313.916331 478.633614 315.744117 
C 480.4614 317.571904 482.940758 318.598887 485.525638 318.598887 
z
" clip-path="url(#pc722b4dd36)" style="fill: #1f77b4; fill-opacity: 0.3; stroke: #1f77b4; stroke-opacity: 0.3"/>
    <path d="M 494.645148 310.306766 
C 495.23816 310.306766 495.806964 310.071159 496.226287 309.651837 
C 496.64561 309.232514 496.881216 308.66371 496.881216 308.070698 
C 496.881216 307.477686 496.64561 306.908882 496.226287 306.489559 
C 495.806964 306.070236 495.23816 305.83463 494.645148 305.83463 
C 494.052136 305.83463 493.483332 306.070236 493.064009 306.489559 
C 492.644686 306.908882 492.40908 307.477686 492.40908 308.070698 
C 492.40908 308.66371 492.644686 309.232514 493.064009 309.651837 
C 493.483332 310.071159 494.052136 310.306766 494.645148 310.306766 
z
" clip-path="url(#pc722b4dd36)" style="fill: #1f77b4; fill-opacity: 0.3; stroke: #1f77b4; stroke-opacity: 0.3"/>
    <path d="M 503.764658 309.652743 
C 504.702292 309.652743 505.60165 309.280217 506.264658 308.617209 
C 506.927666 307.954202 507.300192 307.054844 507.300192 306.117209 
C 507.300192 305.179575 506.927666 304.280217 506.264658 303.617209 
C 505.60165 302.954202 504.702292 302.581675 503.764658 302.581675 
C 502.827023 302.581675 501.927666 302.954202 501.264658 303.617209 
C 500.60165 304.280217 500.229124 305.179575 500.229124 306.117209 
C 500.229124 307.054844 500.60165 307.954202 501.264658 308.617209 
C 501.927666 309.280217 502.827023 309.652743 503.764658 309.652743 
z
" clip-path="url(#pc722b4dd36)" style="fill: #1f77b4; fill-opacity: 0.3; stroke: #1f77b4; stroke-opacity: 0.3"/>
    <path d="M 512.884168 307.699255 
C 513.821802 307.699255 514.72116 307.326729 515.384168 306.663721 
C 516.047175 306.000713 516.419701 305.101355 516.419701 304.163721 
C 516.419701 303.226086 516.047175 302.326729 515.384168 301.663721 
C 514.72116 301.000713 513.821802 300.628187 512.884168 300.628187 
C 511.946533 300.628187 511.047175 301.000713 510.384168 301.663721 
C 509.72116 302.326729 509.348634 303.226086 509.348634 304.163721 
C 509.348634 305.101355 509.72116 306.000713 510.384168 306.663721 
C 511.047175 307.326729 511.946533 307.699255 512.884168 307.699255 
z
" clip-path="url(#pc722b4dd36)" style="fill: #1f77b4; fill-opacity: 0.3; stroke: #1f77b4; stroke-opacity: 0.3"/>
    <path d="M 522.003677 305.612137 
C 523.113101 305.612137 524.177236 305.171358 524.961717 304.386877 
C 525.746198 303.602396 526.186977 302.538261 526.186977 301.428837 
C 526.186977 300.319413 525.746198 299.255279 524.961717 298.470797 
C 524.177236 297.686316 523.113101 297.245537 522.003677 297.245537 
C 520.894253 297.245537 519.830119 297.686316 519.045637 298.470797 
C 518.261156 299.255279 517.820377 300.319413 517.820377 301.428837 
C 517.820377 302.538261 518.261156 303.602396 519.045637 304.386877 
C 519.830119 305.171358 520.894253 305.612137 522.003677 305.612137 
z
" clip-path="url(#pc722b4dd36)" style="fill: #1f77b4; fill-opacity: 0.3; stroke: #1f77b4; stroke-opacity: 0.3"/>
    <path d="M 531.123187 302.375207 
C 532.513924 302.375207 533.847887 301.822661 534.831286 300.839262 
C 535.814686 299.855863 536.367231 298.5219 536.367231 297.131163 
C 536.367231 295.740426 535.814686 294.406463 534.831286 293.423064 
C 533.847887 292.439664 532.513924 291.887119 531.123187 291.887119 
C 529.73245 291.887119 528.398487 292.439664 527.415088 293.423064 
C 526.431688 294.406463 525.879143 295.740426 525.879143 297.131163 
C 525.879143 298.5219 526.431688 299.855863 527.415088 300.839262 
C 528.398487 301.822661 529.73245 302.375207 531.123187 302.375207 
z
" clip-path="url(#pc722b4dd36)" style="fill: #1f77b4; fill-opacity: 0.3; stroke: #1f77b4; stroke-opacity: 0.3"/>
    <path d="M 540.242697 298.65996 
C 541.269824 298.65996 542.255021 298.251878 542.981309 297.52559 
C 543.707598 296.799301 544.11568 295.814104 544.11568 294.786977 
C 544.11568 293.75985 543.707598 292.774653 542.981309 292.048364 
C 542.255021 291.322075 541.269824 290.913993 540.242697 290.913993 
C 539.215569 290.913993 538.230372 291.322075 537.504084 292.048364 
C 536.777795 292.774653 536.369713 293.75985 536.369713 294.786977 
C 536.369713 295.814104 536.777795 296.799301 537.504084 297.52559 
C 538.230372 298.251878 539.215569 298.65996 540.242697 298.65996 
z
" clip-path="url(#pc722b4dd36)" style="fill: #1f77b4; fill-opacity: 0.3; stroke: #1f77b4; stroke-opacity: 0.3"/>
    <path d="M 549.362206 295.88 
C 550.688222 295.88 551.960106 295.353168 552.89774 294.415534 
C 553.835375 293.477899 554.362206 292.206016 554.362206 290.88 
C 554.362206 289.553985 553.835375 288.282101 552.89774 287.344466 
C 551.960106 286.406832 550.688222 285.88 549.362206 285.88 
C 548.036191 285.88 546.764307 286.406832 545.826672 287.344466 
C 544.889038 288.282101 544.362206 289.553985 544.362206 290.88 
C 544.362206 292.206016 544.889038 293.477899 545.826672 294.415534 
C 546.764307 295.353168 548.036191 295.88 549.362206 295.88 
z
" clip-path="url(#pc722b4dd36)" style="fill: #1f77b4; fill-opacity: 0.3; stroke: #1f77b4; stroke-opacity: 0.3"/>
    <path d="M 558.481716 289.018252 
C 560.578331 289.018252 562.589356 288.185258 564.071886 286.702728 
C 565.554416 285.220198 566.38741 283.209173 566.38741 281.112558 
C 566.38741 279.015944 565.554416 277.004919 564.071886 275.522388 
C 562.589356 274.039858 560.578331 273.206864 558.481716 273.206864 
C 556.385101 273.206864 554.374076 274.039858 552.891546 275.522388 
C 551.409016 277.004919 550.576022 279.015944 550.576022 281.112558 
C 550.576022 283.209173 551.409016 285.220198 552.891546 286.702728 
C 554.374076 288.185258 556.385101 289.018252 558.481716 289.018252 
z
" clip-path="url(#pc722b4dd36)" style="fill: #1f77b4; fill-opacity: 0.3; stroke: #1f77b4; stroke-opacity: 0.3"/>
    <path d="M 567.601226 282.302999 
C 568.020549 282.302999 568.422754 282.136401 568.71926 281.839894 
C 569.015766 281.543388 569.182365 281.141183 569.182365 280.72186 
C 569.182365 280.302538 569.015766 279.900333 568.71926 279.603826 
C 568.422754 279.30732 568.020549 279.140722 567.601226 279.140722 
C 567.181903 279.140722 566.779698 279.30732 566.483192 279.603826 
C 566.186686 279.900333 566.020087 280.302538 566.020087 280.72186 
C 566.020087 281.141183 566.186686 281.543388 566.483192 281.839894 
C 566.779698 282.136401 567.181903 282.302999 567.601226 282.302999 
z
" clip-path="url(#pc722b4dd36)" style="fill: #1f77b4; fill-opacity: 0.3; stroke: #1f77b4; stroke-opacity: 0.3"/>
    <path d="M 576.720735 282.250658 
C 577.747863 282.250658 578.73306 281.842576 579.459348 281.116287 
C 580.185637 280.389999 580.593719 279.404802 580.593719 278.377674 
C 580.593719 277.350547 580.185637 276.36535 579.459348 275.639062 
C 578.73306 274.912773 577.747863 274.504691 576.720735 274.504691 
C 575.693608 274.504691 574.708411 274.912773 573.982123 275.639062 
C 573.255834 276.36535 572.847752 277.350547 572.847752 278.377674 
C 572.847752 279.404802 573.255834 280.389999 573.982123 281.116287 
C 574.708411 281.842576 575.693608 282.250658 576.720735 282.250658 
z
" clip-path="url(#pc722b4dd36)" style="fill: #1f77b4; fill-opacity: 0.3; stroke: #1f77b4; stroke-opacity: 0.3"/>
    <path d="M 585.840245 279.604812 
C 587.098214 279.604812 588.304829 279.105016 589.194347 278.215497 
C 590.083865 277.325979 590.583662 276.119364 590.583662 274.861395 
C 590.583662 273.603427 590.083865 272.396812 589.194347 271.507293 
C 588.304829 270.617775 587.098214 270.117979 585.840245 270.117979 
C 584.582276 270.117979 583.375661 270.617775 582.486143 271.507293 
C 581.596625 272.396812 581.096829 273.603427 581.096829 274.861395 
C 581.096829 276.119364 581.596625 277.325979 582.486143 278.215497 
C 583.375661 279.105016 584.582276 279.604812 585.840245 279.604812 
z
" clip-path="url(#pc722b4dd36)" style="fill: #1f77b4; fill-opacity: 0.3; stroke: #1f77b4; stroke-opacity: 0.3"/>
    <path d="M 594.959755 276.443441 
C 595.897389 276.443441 596.796747 276.070915 597.459755 275.407907 
C 598.122763 274.744899 598.495289 273.845542 598.495289 272.907907 
C 598.495289 271.970272 598.122763 271.070915 597.459755 270.407907 
C 596.796747 269.744899 595.897389 269.372373 594.959755 269.372373 
C 594.02212 269.372373 593.122763 269.744899 592.459755 270.407907 
C 591.796747 271.070915 591.424221 271.970272 591.424221 272.907907 
C 591.424221 273.845542 591.796747 274.744899 592.459755 275.407907 
C 593.122763 276.070915 594.02212 276.443441 594.959755 276.443441 
z
" clip-path="url(#pc722b4dd36)" style="fill: #1f77b4; fill-opacity: 0.3; stroke: #1f77b4; stroke-opacity: 0.3"/>
    <path d="M 604.079265 274.098348 
C 604.498587 274.098348 604.900792 273.931749 605.197299 273.635243 
C 605.493805 273.338737 605.660403 272.936532 605.660403 272.517209 
C 605.660403 272.097886 605.493805 271.695681 605.197299 271.399175 
C 604.900792 271.102669 604.498587 270.93607 604.079265 270.93607 
C 603.659942 270.93607 603.257737 271.102669 602.961231 271.399175 
C 602.664724 271.695681 602.498126 272.097886 602.498126 272.517209 
C 602.498126 272.936532 602.664724 273.338737 602.961231 273.635243 
C 603.257737 273.931749 603.659942 274.098348 604.079265 274.098348 
z
" clip-path="url(#pc722b4dd36)" style="fill: #1f77b4; fill-opacity: 0.3; stroke: #1f77b4; stroke-opacity: 0.3"/>
    <path d="M 613.198774 274.099255 
C 614.136409 274.099255 615.035767 273.726729 615.698774 273.063721 
C 616.361782 272.400713 616.734308 271.501355 616.734308 270.563721 
C 616.734308 269.626086 616.361782 268.726729 615.698774 268.063721 
C 615.035767 267.400713 614.136409 267.028187 613.198774 267.028187 
C 612.26114 267.028187 611.361782 267.400713 610.698774 268.063721 
C 610.035767 268.726729 609.66324 269.626086 609.66324 270.563721 
C 609.66324 271.501355 610.035767 272.400713 610.698774 273.063721 
C 611.361782 273.726729 612.26114 274.099255 613.198774 274.099255 
z
" clip-path="url(#pc722b4dd36)" style="fill: #1f77b4; fill-opacity: 0.3; stroke: #1f77b4; stroke-opacity: 0.3"/>
    <path d="M 622.318284 271.352574 
C 623.770861 271.352574 625.16414 270.775459 626.191267 269.748332 
C 627.218394 268.721205 627.79551 267.327926 627.79551 265.875349 
C 627.79551 264.422772 627.218394 263.029493 626.191267 262.002365 
C 625.16414 260.975238 623.770861 260.398123 622.318284 260.398123 
C 620.865707 260.398123 619.472428 260.975238 618.445301 262.002365 
C 617.418173 263.029493 616.841058 264.422772 616.841058 265.875349 
C 616.841058 267.327926 617.418173 268.721205 618.445301 269.748332 
C 619.472428 270.775459 620.865707 271.352574 622.318284 271.352574 
z
" clip-path="url(#pc722b4dd36)" style="fill: #1f77b4; fill-opacity: 0.3; stroke: #1f77b4; stroke-opacity: 0.3"/>
    <path d="M 631.437794 267.441869 
C 632.164082 267.441869 632.860722 267.153311 633.374285 266.639747 
C 633.887849 266.126184 634.176406 265.429544 634.176406 264.703256 
C 634.176406 263.976967 633.887849 263.280328 633.374285 262.766764 
C 632.860722 262.253201 632.164082 261.964643 631.437794 261.964643 
C 630.711505 261.964643 630.014866 262.253201 629.501302 262.766764 
C 628.987738 263.280328 628.699181 263.976967 628.699181 264.703256 
C 628.699181 265.429544 628.987738 266.126184 629.501302 266.639747 
C 630.014866 267.153311 630.711505 267.441869 631.437794 267.441869 
z
" clip-path="url(#pc722b4dd36)" style="fill: #1f77b4; fill-opacity: 0.3; stroke: #1f77b4; stroke-opacity: 0.3"/>
    <path d="M 640.557303 266.151672 
C 641.666728 266.151672 642.730862 265.710893 643.515343 264.926412 
C 644.299825 264.141931 644.740604 263.077796 644.740604 261.968372 
C 644.740604 260.858948 644.299825 259.794814 643.515343 259.010332 
C 642.730862 258.225851 641.666728 257.785072 640.557303 257.785072 
C 639.447879 257.785072 638.383745 258.225851 637.599263 259.010332 
C 636.814782 259.794814 636.374003 260.858948 636.374003 261.968372 
C 636.374003 263.077796 636.814782 264.141931 637.599263 264.926412 
C 638.383745 265.710893 639.447879 266.151672 640.557303 266.151672 
z
" clip-path="url(#pc722b4dd36)" style="fill: #1f77b4; fill-opacity: 0.3; stroke: #1f77b4; stroke-opacity: 0.3"/>
    <path d="M 649.676813 262.590179 
C 651.188703 262.590179 652.638874 261.989499 653.707942 260.920431 
C 654.77701 259.851363 655.37769 258.401193 655.37769 256.889302 
C 655.37769 255.377412 654.77701 253.927241 653.707942 252.858173 
C 652.638874 251.789106 651.188703 251.188425 649.676813 251.188425 
C 648.164923 251.188425 646.714752 251.789106 645.645684 252.858173 
C 644.576616 253.927241 643.975936 255.377412 643.975936 256.889302 
C 643.975936 258.401193 644.576616 259.851363 645.645684 260.920431 
C 646.714752 261.989499 648.164923 262.590179 649.676813 262.590179 
z
" clip-path="url(#pc722b4dd36)" style="fill: #1f77b4; fill-opacity: 0.3; stroke: #1f77b4; stroke-opacity: 0.3"/>
    <path d="M 658.796323 255.93034 
C 660.717902 255.93034 662.561037 255.166888 663.919798 253.808127 
C 665.27856 252.449365 666.042011 250.60623 666.042011 248.684651 
C 666.042011 246.763072 665.27856 244.919937 663.919798 243.561176 
C 662.561037 242.202414 660.717902 241.438963 658.796323 241.438963 
C 656.874744 241.438963 655.031609 242.202414 653.672847 243.561176 
C 652.314086 244.919937 651.550634 246.763072 651.550634 248.684651 
C 651.550634 250.60623 652.314086 252.449365 653.672847 253.808127 
C 655.031609 255.166888 656.874744 255.93034 658.796323 255.93034 
z
" clip-path="url(#pc722b4dd36)" style="fill: #1f77b4; fill-opacity: 0.3; stroke: #1f77b4; stroke-opacity: 0.3"/>
    <path d="M 667.915832 246.351652 
C 670.094698 246.351652 672.184617 245.48598 673.725308 243.945289 
C 675.265998 242.404598 676.131671 240.31468 676.131671 238.135814 
C 676.131671 235.956948 675.265998 233.86703 673.725308 232.326339 
C 672.184617 230.785648 670.094698 229.919976 667.915832 229.919976 
C 665.736967 229.919976 663.647048 230.785648 662.106357 232.326339 
C 660.565667 233.86703 659.699994 235.956948 659.699994 238.135814 
C 659.699994 240.31468 660.565667 242.404598 662.106357 243.945289 
C 663.647048 245.48598 665.736967 246.351652 667.915832 246.351652 
z
" clip-path="url(#pc722b4dd36)" style="fill: #1f77b4; fill-opacity: 0.3; stroke: #1f77b4; stroke-opacity: 0.3"/>
    <path d="M 677.035342 237.176851 
C 678.956921 237.176851 680.800056 236.4134 682.158818 235.054638 
C 683.517579 233.695877 684.281031 231.852742 684.281031 229.931163 
C 684.281031 228.009584 683.517579 226.166449 682.158818 224.807687 
C 680.800056 223.448926 678.956921 222.685474 677.035342 222.685474 
C 675.113763 222.685474 673.270628 223.448926 671.911867 224.807687 
C 670.553105 226.166449 669.789654 228.009584 669.789654 229.931163 
C 669.789654 231.852742 670.553105 233.695877 671.911867 235.054638 
C 673.270628 236.4134 675.113763 237.176851 677.035342 237.176851 
z
" clip-path="url(#pc722b4dd36)" style="fill: #1f77b4; fill-opacity: 0.3; stroke: #1f77b4; stroke-opacity: 0.3"/>
    <path d="M 686.154852 227.358228 
C 688.3737 227.358228 690.501969 226.47667 692.070932 224.907708 
C 693.639894 223.338745 694.521452 221.210476 694.521452 218.991628 
C 694.521452 216.77278 693.639894 214.644511 692.070932 213.075548 
C 690.501969 211.506585 688.3737 210.625028 686.154852 210.625028 
C 683.936004 210.625028 681.807735 211.506585 680.238772 213.075548 
C 678.669809 214.644511 677.788252 216.77278 677.788252 218.991628 
C 677.788252 221.210476 678.669809 223.338745 680.238772 224.907708 
C 681.807735 226.47667 683.936004 227.358228 686.154852 227.358228 
z
" clip-path="url(#pc722b4dd36)" style="fill: #1f77b4; fill-opacity: 0.3; stroke: #1f77b4; stroke-opacity: 0.3"/>
    <path d="M 695.274362 211.468579 
C 698.149095 211.468579 700.906473 210.326435 702.939216 208.293692 
C 704.97196 206.260949 706.114103 203.50357 706.114103 200.628837 
C 706.114103 197.754104 704.97196 194.996726 702.939216 192.963982 
C 700.906473 190.931239 698.149095 189.789096 695.274362 189.789096 
C 692.399628 189.789096 689.64225 190.931239 687.609507 192.963982 
C 685.576763 194.996726 684.43462 197.754104 684.43462 200.628837 
C 684.43462 203.50357 685.576763 206.260949 687.609507 208.293692 
C 689.64225 210.326435 692.399628 211.468579 695.274362 211.468579 
z
" clip-path="url(#pc722b4dd36)" style="fill: #1f77b4; fill-opacity: 0.3; stroke: #1f77b4; stroke-opacity: 0.3"/>
    <path d="M 704.393871 200.892096 
C 706.017902 200.892096 707.575635 200.246862 708.723998 199.098499 
C 709.872361 197.950136 710.517596 196.392403 710.517596 194.768372 
C 710.517596 193.144341 709.872361 191.586608 708.723998 190.438245 
C 707.575635 189.289882 706.017902 188.644648 704.393871 188.644648 
C 702.769841 188.644648 701.212107 189.289882 700.063744 190.438245 
C 698.915381 191.586608 698.270147 193.144341 698.270147 194.768372 
C 698.270147 196.392403 698.915381 197.950136 700.063744 199.098499 
C 701.212107 200.246862 702.769841 200.892096 704.393871 200.892096 
z
" clip-path="url(#pc722b4dd36)" style="fill: #1f77b4; fill-opacity: 0.3; stroke: #1f77b4; stroke-opacity: 0.3"/>
    <path d="M 713.513381 196.216789 
C 714.622805 196.216789 715.68694 195.77601 716.471421 194.991528 
C 717.255902 194.207047 717.696681 193.142913 717.696681 192.033488 
C 717.696681 190.924064 717.255902 189.85993 716.471421 189.075448 
C 715.68694 188.290967 714.622805 187.850188 713.513381 187.850188 
C 712.403957 187.850188 711.339822 188.290967 710.555341 189.075448 
C 709.77086 189.85993 709.330081 190.924064 709.330081 192.033488 
C 709.330081 193.142913 709.77086 194.207047 710.555341 194.991528 
C 711.339822 195.77601 712.403957 196.216789 713.513381 196.216789 
z
" clip-path="url(#pc722b4dd36)" style="fill: #1f77b4; fill-opacity: 0.3; stroke: #1f77b4; stroke-opacity: 0.3"/>
    <path d="M 722.632891 193.615534 
C 723.570525 193.615534 724.469883 193.243008 725.132891 192.58 
C 725.795898 191.916992 726.168425 191.017635 726.168425 190.08 
C 726.168425 189.142365 725.795898 188.243008 725.132891 187.58 
C 724.469883 186.916992 723.570525 186.544466 722.632891 186.544466 
C 721.695256 186.544466 720.795898 186.916992 720.132891 187.58 
C 719.469883 188.243008 719.097357 189.142365 719.097357 190.08 
C 719.097357 191.017635 719.469883 191.916992 720.132891 192.58 
C 720.795898 193.243008 721.695256 193.615534 722.632891 193.615534 
z
" clip-path="url(#pc722b4dd36)" style="fill: #1f77b4; fill-opacity: 0.3; stroke: #1f77b4; stroke-opacity: 0.3"/>
    <path d="M 731.7524 191.173023 
C 733.078416 191.173023 734.3503 190.646192 735.287934 189.708557 
C 736.225569 188.770923 736.7524 187.499039 736.7524 186.173023 
C 736.7524 184.847008 736.225569 183.575124 735.287934 182.637489 
C 734.3503 181.699855 733.078416 181.173023 731.7524 181.173023 
C 730.426385 181.173023 729.154501 181.699855 728.216867 182.637489 
C 727.279232 183.575124 726.7524 184.847008 726.7524 186.173023 
C 726.7524 187.499039 727.279232 188.770923 728.216867 189.708557 
C 729.154501 190.646192 730.426385 191.173023 731.7524 191.173023 
z
" clip-path="url(#pc722b4dd36)" style="fill: #1f77b4; fill-opacity: 0.3; stroke: #1f77b4; stroke-opacity: 0.3"/>
    <path d="M 749.99142 187.400161 
C 751.249389 187.400161 752.456004 186.900364 753.345522 186.010846 
C 754.23504 185.121328 754.734836 183.914713 754.734836 182.656744 
C 754.734836 181.398775 754.23504 180.19216 753.345522 179.302642 
C 752.456004 178.413124 751.249389 177.913328 749.99142 177.913328 
C 748.733451 177.913328 747.526836 178.413124 746.637318 179.302642 
C 745.7478 180.19216 745.248003 181.398775 745.248003 182.656744 
C 745.248003 183.914713 745.7478 185.121328 746.637318 186.010846 
C 747.526836 186.900364 748.733451 187.400161 749.99142 187.400161 
z
" clip-path="url(#pc722b4dd36)" style="fill: #1f77b4; fill-opacity: 0.3; stroke: #1f77b4; stroke-opacity: 0.3"/>
    <path d="M 759.11093 184.111417 
C 759.703942 184.111417 760.272745 183.875811 760.692068 183.456488 
C 761.111391 183.037165 761.346997 182.468361 761.346997 181.875349 
C 761.346997 181.282337 761.111391 180.713533 760.692068 180.29421 
C 760.272745 179.874887 759.703942 179.639281 759.11093 179.639281 
C 758.517917 179.639281 757.949114 179.874887 757.529791 180.29421 
C 757.110468 180.713533 756.874862 181.282337 756.874862 181.875349 
C 756.874862 182.468361 757.110468 183.037165 757.529791 183.456488 
C 757.949114 183.875811 758.517917 184.111417 759.11093 184.111417 
z
" clip-path="url(#pc722b4dd36)" style="fill: #1f77b4; fill-opacity: 0.3; stroke: #1f77b4; stroke-opacity: 0.3"/>
    <path d="M 768.230439 182.664202 
C 769.683016 182.664202 771.076295 182.087087 772.103423 181.05996 
C 773.13055 180.032833 773.707665 178.639554 773.707665 177.186977 
C 773.707665 175.7344 773.13055 174.341121 772.103423 173.313993 
C 771.076295 172.286866 769.683016 171.709751 768.230439 171.709751 
C 766.777862 171.709751 765.384583 172.286866 764.357456 173.313993 
C 763.330329 174.341121 762.753214 175.7344 762.753214 177.186977 
C 762.753214 178.639554 763.330329 180.032833 764.357456 181.05996 
C 765.384583 182.087087 766.777862 182.664202 768.230439 182.664202 
z
" clip-path="url(#pc722b4dd36)" style="fill: #1f77b4; fill-opacity: 0.3; stroke: #1f77b4; stroke-opacity: 0.3"/>
    <path d="M 777.349949 174.853978 
C 779.528815 174.853978 781.618733 173.988305 783.159424 172.447615 
C 784.700115 170.906924 785.565787 168.817005 785.565787 166.63814 
C 785.565787 164.459274 784.700115 162.369355 783.159424 160.828665 
C 781.618733 159.287974 779.528815 158.422301 777.349949 158.422301 
C 775.171083 158.422301 773.081165 159.287974 771.540474 160.828665 
C 769.999783 162.369355 769.134111 164.459274 769.134111 166.63814 
C 769.134111 168.817005 769.999783 170.906924 771.540474 172.447615 
C 773.081165 173.988305 775.171083 174.853978 777.349949 174.853978 
z
" clip-path="url(#pc722b4dd36)" style="fill: #1f77b4; fill-opacity: 0.3; stroke: #1f77b4; stroke-opacity: 0.3"/>
    <path d="M 786.469459 166.711532 
C 788.14675 166.711532 789.75557 166.045137 790.941595 164.859113 
C 792.127619 163.673088 792.794014 162.064268 792.794014 160.386977 
C 792.794014 158.709685 792.127619 157.100865 790.941595 155.914841 
C 789.75557 154.728816 788.14675 154.062421 786.469459 154.062421 
C 784.792167 154.062421 783.183347 154.728816 781.997323 155.914841 
C 780.811298 157.100865 780.144903 158.709685 780.144903 160.386977 
C 780.144903 162.064268 780.811298 163.673088 781.997323 164.859113 
C 783.183347 166.045137 784.792167 166.711532 786.469459 166.711532 
z
" clip-path="url(#pc722b4dd36)" style="fill: #1f77b4; fill-opacity: 0.3; stroke: #1f77b4; stroke-opacity: 0.3"/>
    <path d="M 795.588968 161.953497 
C 796.315257 161.953497 797.011896 161.664939 797.52546 161.151375 
C 798.039024 160.637812 798.327581 159.941172 798.327581 159.214884 
C 798.327581 158.488595 798.039024 157.791956 797.52546 157.278392 
C 797.011896 156.764828 796.315257 156.476271 795.588968 156.476271 
C 794.86268 156.476271 794.16604 156.764828 793.652477 157.278392 
C 793.138913 157.791956 792.850356 158.488595 792.850356 159.214884 
C 792.850356 159.941172 793.138913 160.637812 793.652477 161.151375 
C 794.16604 161.664939 794.86268 161.953497 795.588968 161.953497 
z
" clip-path="url(#pc722b4dd36)" style="fill: #1f77b4; fill-opacity: 0.3; stroke: #1f77b4; stroke-opacity: 0.3"/>
    <path d="M 804.708478 160.405325 
C 805.127801 160.405325 805.530006 160.238726 805.826512 159.94222 
C 806.123018 159.645714 806.289617 159.243509 806.289617 158.824186 
C 806.289617 158.404863 806.123018 158.002658 805.826512 157.706152 
C 805.530006 157.409646 805.127801 157.243047 804.708478 157.243047 
C 804.289155 157.243047 803.88695 157.409646 803.590444 157.706152 
C 803.293938 158.002658 803.127339 158.404863 803.127339 158.824186 
C 803.127339 159.243509 803.293938 159.645714 803.590444 159.94222 
C 803.88695 160.238726 804.289155 160.405325 804.708478 160.405325 
z
" clip-path="url(#pc722b4dd36)" style="fill: #1f77b4; fill-opacity: 0.3; stroke: #1f77b4; stroke-opacity: 0.3"/>
    <path d="M 813.827988 160.423673 
C 814.666634 160.423673 815.471044 160.090475 816.064056 159.497463 
C 816.657068 158.904451 816.990265 158.100041 816.990265 157.261395 
C 816.990265 156.42275 816.657068 155.61834 816.064056 155.025327 
C 815.471044 154.432315 814.666634 154.099118 813.827988 154.099118 
C 812.989342 154.099118 812.184932 154.432315 811.59192 155.025327 
C 810.998908 155.61834 810.66571 156.42275 810.66571 157.261395 
C 810.66571 158.100041 810.998908 158.904451 811.59192 159.497463 
C 812.184932 160.090475 812.989342 160.423673 813.827988 160.423673 
z
" clip-path="url(#pc722b4dd36)" style="fill: #1f77b4; fill-opacity: 0.3; stroke: #1f77b4; stroke-opacity: 0.3"/>
    <path d="M 822.947497 158.790193 
C 823.974625 158.790193 824.959822 158.382111 825.68611 157.655822 
C 826.412399 156.929533 826.820481 155.944336 826.820481 154.917209 
C 826.820481 153.890082 826.412399 152.904885 825.68611 152.178597 
C 824.959822 151.452308 823.974625 151.044226 822.947497 151.044226 
C 821.92037 151.044226 820.935173 151.452308 820.208885 152.178597 
C 819.482596 152.904885 819.074514 153.890082 819.074514 154.917209 
C 819.074514 155.944336 819.482596 156.929533 820.208885 157.655822 
C 820.935173 158.382111 821.92037 158.790193 822.947497 158.790193 
z
" clip-path="url(#pc722b4dd36)" style="fill: #1f77b4; fill-opacity: 0.3; stroke: #1f77b4; stroke-opacity: 0.3"/>
    <path d="M 832.067007 156.499255 
C 833.004642 156.499255 833.903999 156.126729 834.567007 155.463721 
C 835.230015 154.800713 835.602541 153.901355 835.602541 152.963721 
C 835.602541 152.026086 835.230015 151.126729 834.567007 150.463721 
C 833.903999 149.800713 833.004642 149.428187 832.067007 149.428187 
C 831.129373 149.428187 830.230015 149.800713 829.567007 150.463721 
C 828.903999 151.126729 828.531473 152.026086 828.531473 152.963721 
C 828.531473 153.901355 828.903999 154.800713 829.567007 155.463721 
C 830.230015 156.126729 831.129373 156.499255 832.067007 156.499255 
z
" clip-path="url(#pc722b4dd36)" style="fill: #1f77b4; fill-opacity: 0.3; stroke: #1f77b4; stroke-opacity: 0.3"/>
    <path d="M 841.186517 154.563208 
C 842.025163 154.563208 842.829573 154.23001 843.422585 153.636998 
C 844.015597 153.043986 844.348795 152.239576 844.348795 151.40093 
C 844.348795 150.562284 844.015597 149.757874 843.422585 149.164862 
C 842.829573 148.57185 842.025163 148.238653 841.186517 148.238653 
C 840.347871 148.238653 839.543461 148.57185 838.950449 149.164862 
C 838.357437 149.757874 838.024239 150.562284 838.024239 151.40093 
C 838.024239 152.239576 838.357437 153.043986 838.950449 153.636998 
C 839.543461 154.23001 840.347871 154.563208 841.186517 154.563208 
z
" clip-path="url(#pc722b4dd36)" style="fill: #1f77b4; fill-opacity: 0.3; stroke: #1f77b4; stroke-opacity: 0.3"/>
    <path d="M 850.306027 150.658045 
C 852.181296 150.658045 853.980011 149.912992 855.306027 148.586977 
C 856.632042 147.260961 857.377094 145.462246 857.377094 143.586977 
C 857.377094 141.711708 856.632042 139.912992 855.306027 138.586977 
C 853.980011 137.260961 852.181296 136.515909 850.306027 136.515909 
C 848.430757 136.515909 846.632042 137.260961 845.306027 138.586977 
C 843.980011 139.912992 843.234959 141.711708 843.234959 143.586977 
C 843.234959 145.462246 843.980011 147.260961 845.306027 148.586977 
C 846.632042 149.912992 848.430757 150.658045 850.306027 150.658045 
z
" clip-path="url(#pc722b4dd36)" style="fill: #1f77b4; fill-opacity: 0.3; stroke: #1f77b4; stroke-opacity: 0.3"/>
    <path d="M 859.425536 144.533347 
C 860.816273 144.533347 862.150236 143.980801 863.133636 142.997402 
C 864.117035 142.014002 864.669581 140.680039 864.669581 139.289302 
C 864.669581 137.898566 864.117035 136.564602 863.133636 135.581203 
C 862.150236 134.597804 860.816273 134.045258 859.425536 134.045258 
C 858.034799 134.045258 856.700836 134.597804 855.717437 135.581203 
C 854.734038 136.564602 854.181492 137.898566 854.181492 139.289302 
C 854.181492 140.680039 854.734038 142.014002 855.717437 142.997402 
C 856.700836 143.980801 858.034799 144.533347 859.425536 144.533347 
z
" clip-path="url(#pc722b4dd36)" style="fill: #1f77b4; fill-opacity: 0.3; stroke: #1f77b4; stroke-opacity: 0.3"/>
    <path d="M 868.545046 140.8181 
C 869.572173 140.8181 870.55737 140.410018 871.283659 139.683729 
C 872.009947 138.95744 872.418029 137.972243 872.418029 136.945116 
C 872.418029 135.917989 872.009947 134.932792 871.283659 134.206503 
C 870.55737 133.480215 869.572173 133.072133 868.545046 133.072133 
C 867.517919 133.072133 866.532722 133.480215 865.806433 134.206503 
C 865.080145 134.932792 864.672063 135.917989 864.672063 136.945116 
C 864.672063 137.972243 865.080145 138.95744 865.806433 139.683729 
C 866.532722 140.410018 867.517919 140.8181 868.545046 140.8181 
z
" clip-path="url(#pc722b4dd36)" style="fill: #1f77b4; fill-opacity: 0.3; stroke: #1f77b4; stroke-opacity: 0.3"/>
    <path d="M 877.664556 137.891486 
C 879.055292 137.891486 880.389255 137.338941 881.372655 136.355541 
C 882.356054 135.372142 882.9086 134.038179 882.9086 132.647442 
C 882.9086 131.256705 882.356054 129.922742 881.372655 128.939343 
C 880.389255 127.955943 879.055292 127.403398 877.664556 127.403398 
C 876.273819 127.403398 874.939856 127.955943 873.956456 128.939343 
C 872.973057 129.922742 872.420511 131.256705 872.420511 132.647442 
C 872.420511 134.038179 872.973057 135.372142 873.956456 136.355541 
C 874.939856 137.338941 876.273819 137.891486 877.664556 137.891486 
z
" clip-path="url(#pc722b4dd36)" style="fill: #1f77b4; fill-opacity: 0.3; stroke: #1f77b4; stroke-opacity: 0.3"/>
    <path d="M 886.784065 132.11621 
C 888.611852 132.11621 890.365023 131.390023 891.657463 130.097583 
C 892.949903 128.805143 893.67609 127.051972 893.67609 125.224186 
C 893.67609 123.3964 892.949903 121.643229 891.657463 120.350789 
C 890.365023 119.058349 888.611852 118.332162 886.784065 118.332162 
C 884.956279 118.332162 883.203108 119.058349 881.910668 120.350789 
C 880.618228 121.643229 879.892041 123.3964 879.892041 125.224186 
C 879.892041 127.051972 880.618228 128.805143 881.910668 130.097583 
C 883.203108 131.390023 884.956279 132.11621 886.784065 132.11621 
z
" clip-path="url(#pc722b4dd36)" style="fill: #1f77b4; fill-opacity: 0.3; stroke: #1f77b4; stroke-opacity: 0.3"/>
    <path d="M 895.903575 126.01304 
C 897.356152 126.01304 898.749431 125.435924 899.776558 124.408797 
C 900.803686 123.38167 901.380801 121.988391 901.380801 120.535814 
C 901.380801 119.083237 900.803686 117.689958 899.776558 116.662831 
C 898.749431 115.635703 897.356152 115.058588 895.903575 115.058588 
C 894.450998 115.058588 893.057719 115.635703 892.030592 116.662831 
C 891.003465 117.689958 890.42635 119.083237 890.42635 120.535814 
C 890.42635 121.988391 891.003465 123.38167 892.030592 124.408797 
C 893.057719 125.435924 894.450998 126.01304 895.903575 126.01304 
z
" clip-path="url(#pc722b4dd36)" style="fill: #1f77b4; fill-opacity: 0.3; stroke: #1f77b4; stroke-opacity: 0.3"/>
    <path d="M 905.023085 121.482184 
C 906.413822 121.482184 907.747785 120.929638 908.731184 119.946239 
C 909.714583 118.962839 910.267129 117.628876 910.267129 116.23814 
C 910.267129 114.847403 909.714583 113.51344 908.731184 112.53004 
C 907.747785 111.546641 906.413822 110.994095 905.023085 110.994095 
C 903.632348 110.994095 902.298385 111.546641 901.314986 112.53004 
C 900.331586 113.51344 899.779041 114.847403 899.779041 116.23814 
C 899.779041 117.628876 900.331586 118.962839 901.314986 119.946239 
C 902.298385 120.929638 903.632348 121.482184 905.023085 121.482184 
z
" clip-path="url(#pc722b4dd36)" style="fill: #1f77b4; fill-opacity: 0.3; stroke: #1f77b4; stroke-opacity: 0.3"/>
    <path d="M 914.142594 117.766937 
C 915.169722 117.766937 916.154919 117.358855 916.881207 116.632566 
C 917.607496 115.906278 918.015578 114.921081 918.015578 113.893953 
C 918.015578 112.866826 917.607496 111.881629 916.881207 111.155341 
C 916.154919 110.429052 915.169722 110.02097 914.142594 110.02097 
C 913.115467 110.02097 912.13027 110.429052 911.403982 111.155341 
C 910.677693 111.881629 910.269611 112.866826 910.269611 113.893953 
C 910.269611 114.921081 910.677693 115.906278 911.403982 116.632566 
C 912.13027 117.358855 913.115467 117.766937 914.142594 117.766937 
z
" clip-path="url(#pc722b4dd36)" style="fill: #1f77b4; fill-opacity: 0.3; stroke: #1f77b4; stroke-opacity: 0.3"/>
    <path d="M 923.262104 115.475999 
C 924.199739 115.475999 925.099096 115.103473 925.762104 114.440465 
C 926.425112 113.777457 926.797638 112.8781 926.797638 111.940465 
C 926.797638 111.002831 926.425112 110.103473 925.762104 109.440465 
C 925.099096 108.777457 924.199739 108.404931 923.262104 108.404931 
C 922.32447 108.404931 921.425112 108.777457 920.762104 109.440465 
C 920.099096 110.103473 919.72657 111.002831 919.72657 111.940465 
C 919.72657 112.8781 920.099096 113.777457 920.762104 114.440465 
C 921.425112 115.103473 922.32447 115.475999 923.262104 115.475999 
z
" clip-path="url(#pc722b4dd36)" style="fill: #1f77b4; fill-opacity: 0.3; stroke: #1f77b4; stroke-opacity: 0.3"/>
    <path d="M 932.381614 113.395138 
C 932.974626 113.395138 933.54343 113.159532 933.962753 112.740209 
C 934.382076 112.320886 934.617682 111.752082 934.617682 111.15907 
C 934.617682 110.566058 934.382076 109.997254 933.962753 109.577931 
C 933.54343 109.158608 932.974626 108.923002 932.381614 108.923002 
C 931.788602 108.923002 931.219798 109.158608 930.800475 109.577931 
C 930.381152 109.997254 930.145546 110.566058 930.145546 111.15907 
C 930.145546 111.752082 930.381152 112.320886 930.800475 112.740209 
C 931.219798 113.159532 931.788602 113.395138 932.381614 113.395138 
z
" clip-path="url(#pc722b4dd36)" style="fill: #1f77b4; fill-opacity: 0.3; stroke: #1f77b4; stroke-opacity: 0.3"/>
    <path d="M 941.501124 112.349511 
C 941.920447 112.349511 942.322652 112.182912 942.619158 111.886406 
C 942.915664 111.5899 943.082262 111.187695 943.082262 110.768372 
C 943.082262 110.349049 942.915664 109.946844 942.619158 109.650338 
C 942.322652 109.353832 941.920447 109.187233 941.501124 109.187233 
C 941.081801 109.187233 940.679596 109.353832 940.38309 109.650338 
C 940.086584 109.946844 939.919985 110.349049 939.919985 110.768372 
C 939.919985 111.187695 940.086584 111.5899 940.38309 111.886406 
C 940.679596 112.182912 941.081801 112.349511 941.501124 112.349511 
z
" clip-path="url(#pc722b4dd36)" style="fill: #1f77b4; fill-opacity: 0.3; stroke: #1f77b4; stroke-opacity: 0.3"/>
    <path d="M 950.620633 111.958813 
C 951.039956 111.958813 951.442161 111.792214 951.738667 111.495708 
C 952.035173 111.199202 952.201772 110.796997 952.201772 110.377674 
C 952.201772 109.958351 952.035173 109.556147 951.738667 109.25964 
C 951.442161 108.963134 951.039956 108.796536 950.620633 108.796536 
C 950.20131 108.796536 949.799105 108.963134 949.502599 109.25964 
C 949.206093 109.556147 949.039494 109.958351 949.039494 110.377674 
C 949.039494 110.796997 949.206093 111.199202 949.502599 111.495708 
C 949.799105 111.792214 950.20131 111.958813 950.620633 111.958813 
z
" clip-path="url(#pc722b4dd36)" style="fill: #1f77b4; fill-opacity: 0.3; stroke: #1f77b4; stroke-opacity: 0.3"/>
    <path d="M 959.740143 111.470698 
C 961.066159 111.470698 962.338042 110.943866 963.275677 110.006232 
C 964.213311 109.068597 964.740143 107.796713 964.740143 106.470698 
C 964.740143 105.144682 964.213311 103.872798 963.275677 102.935164 
C 962.338042 101.997529 961.066159 101.470698 959.740143 101.470698 
C 958.414128 101.470698 957.142244 101.997529 956.204609 102.935164 
C 955.266975 103.872798 954.740143 105.144682 954.740143 106.470698 
C 954.740143 107.796713 955.266975 109.068597 956.204609 110.006232 
C 957.142244 110.943866 958.414128 111.470698 959.740143 111.470698 
z
" clip-path="url(#pc722b4dd36)" style="fill: #1f77b4; fill-opacity: 0.3; stroke: #1f77b4; stroke-opacity: 0.3"/>
    <path d="M 968.859653 107.661139 
C 969.278976 107.661139 969.681181 107.49454 969.977687 107.198034 
C 970.274193 106.901528 970.440792 106.499323 970.440792 106.08 
C 970.440792 105.660677 970.274193 105.258472 969.977687 104.961966 
C 969.681181 104.66546 969.278976 104.498861 968.859653 104.498861 
C 968.44033 104.498861 968.038125 104.66546 967.741619 104.961966 
C 967.445113 105.258472 967.278514 105.660677 967.278514 106.08 
C 967.278514 106.499323 967.445113 106.901528 967.741619 107.198034 
C 968.038125 107.49454 968.44033 107.661139 968.859653 107.661139 
z
" clip-path="url(#pc722b4dd36)" style="fill: #1f77b4; fill-opacity: 0.3; stroke: #1f77b4; stroke-opacity: 0.3"/>
    <path d="M 977.979162 107.534673 
C 978.572175 107.534673 979.140978 107.299066 979.560301 106.879743 
C 979.979624 106.460421 980.21523 105.891617 980.21523 105.298605 
C 980.21523 104.705592 979.979624 104.136789 979.560301 103.717466 
C 979.140978 103.298143 978.572175 103.062537 977.979162 103.062537 
C 977.38615 103.062537 976.817346 103.298143 976.398024 103.717466 
C 975.978701 104.136789 975.743094 104.705592 975.743094 105.298605 
C 975.743094 105.891617 975.978701 106.460421 976.398024 106.879743 
C 976.817346 107.299066 977.38615 107.534673 977.979162 107.534673 
z
" clip-path="url(#pc722b4dd36)" style="fill: #1f77b4; fill-opacity: 0.3; stroke: #1f77b4; stroke-opacity: 0.3"/>
    <path d="M 987.098672 101.234428 
C 989.543724 101.234428 991.888962 100.262999 993.617875 98.534086 
C 995.346787 96.805173 996.318217 94.459935 996.318217 92.014884 
C 996.318217 89.569832 995.346787 87.224594 993.617875 85.495681 
C 991.888962 83.766769 989.543724 82.795339 987.098672 82.795339 
C 984.65362 82.795339 982.308382 83.766769 980.57947 85.495681 
C 978.850557 87.224594 977.879128 89.569832 977.879128 92.014884 
C 977.879128 94.459935 978.850557 96.805173 980.57947 98.534086 
C 982.308382 100.262999 984.65362 101.234428 987.098672 101.234428 
z
" clip-path="url(#pc722b4dd36)" style="fill: #1f77b4; fill-opacity: 0.3; stroke: #1f77b4; stroke-opacity: 0.3"/>
    <path d="M 996.218182 93.4633 
C 997.327606 93.4633 998.39174 93.022521 999.176222 92.23804 
C 999.960703 91.453559 1000.401482 90.389424 1000.401482 89.28 
C 1000.401482 88.170576 999.960703 87.106441 999.176222 86.32196 
C 998.39174 85.537479 997.327606 85.0967 996.218182 85.0967 
C 995.108758 85.0967 994.044623 85.537479 993.260142 86.32196 
C 992.475661 87.106441 992.034882 88.170576 992.034882 89.28 
C 992.034882 90.389424 992.475661 91.453559 993.260142 92.23804 
C 994.044623 93.022521 995.108758 93.4633 996.218182 93.4633 
z
" clip-path="url(#pc722b4dd36)" style="fill: #1f77b4; fill-opacity: 0.3; stroke: #1f77b4; stroke-opacity: 0.3"/>
   </g>
   <g id="matplotlib.axis_1">
    <g id="xtick_1">
     <g id="line2d_1">
      <defs>
       <path id="m0650d714de" d="M 0 0 
L 0 3.5 
" style="stroke: #000000; stroke-width: 0.8"/>
      </defs>
      <g>
       <use xlink:href="#m0650d714de" x="184.581818" y="512.64" style="stroke: #000000; stroke-width: 0.8"/>
      </g>
     </g>
     <g id="text_1">
      <!-- 2023-01-01 -->
      <g transform="translate(155.524006 527.238438)scale(0.1 -0.1)">
       <defs>
        <path id="DejaVuSans-32" d="M 1228 531 
L 3431 531 
L 3431 0 
L 469 0 
L 469 531 
Q 828 903 1448 1529 
Q 2069 2156 2228 2338 
Q 2531 2678 2651 2914 
Q 2772 3150 2772 3378 
Q 2772 3750 2511 3984 
Q 2250 4219 1831 4219 
Q 1534 4219 1204 4116 
Q 875 4013 500 3803 
L 500 4441 
Q 881 4594 1212 4672 
Q 1544 4750 1819 4750 
Q 2544 4750 2975 4387 
Q 3406 4025 3406 3419 
Q 3406 3131 3298 2873 
Q 3191 2616 2906 2266 
Q 2828 2175 2409 1742 
Q 1991 1309 1228 531 
z
" transform="scale(0.015625)"/>
        <path id="DejaVuSans-30" d="M 2034 4250 
Q 1547 4250 1301 3770 
Q 1056 3291 1056 2328 
Q 1056 1369 1301 889 
Q 1547 409 2034 409 
Q 2525 409 2770 889 
Q 3016 1369 3016 2328 
Q 3016 3291 2770 3770 
Q 2525 4250 2034 4250 
z
M 2034 4750 
Q 2819 4750 3233 4129 
Q 3647 3509 3647 2328 
Q 3647 1150 3233 529 
Q 2819 -91 2034 -91 
Q 1250 -91 836 529 
Q 422 1150 422 2328 
Q 422 3509 836 4129 
Q 1250 4750 2034 4750 
z
" transform="scale(0.015625)"/>
        <path id="DejaVuSans-33" d="M 2597 2516 
Q 3050 2419 3304 2112 
Q 3559 1806 3559 1356 
Q 3559 666 3084 287 
Q 2609 -91 1734 -91 
Q 1441 -91 1130 -33 
Q 819 25 488 141 
L 488 750 
Q 750 597 1062 519 
Q 1375 441 1716 441 
Q 2309 441 2620 675 
Q 2931 909 2931 1356 
Q 2931 1769 2642 2001 
Q 2353 2234 1838 2234 
L 1294 2234 
L 1294 2753 
L 1863 2753 
Q 2328 2753 2575 2939 
Q 2822 3125 2822 3475 
Q 2822 3834 2567 4026 
Q 2313 4219 1838 4219 
Q 1578 4219 1281 4162 
Q 984 4106 628 3988 
L 628 4550 
Q 988 4650 1302 4700 
Q 1616 4750 1894 4750 
Q 2613 4750 3031 4423 
Q 3450 4097 3450 3541 
Q 3450 3153 3228 2886 
Q 3006 2619 2597 2516 
z
" transform="scale(0.015625)"/>
        <path id="DejaVuSans-2d" d="M 313 2009 
L 1997 2009 
L 1997 1497 
L 313 1497 
L 313 2009 
z
" transform="scale(0.015625)"/>
        <path id="DejaVuSans-31" d="M 794 531 
L 1825 531 
L 1825 4091 
L 703 3866 
L 703 4441 
L 1819 4666 
L 2450 4666 
L 2450 531 
L 3481 531 
L 3481 0 
L 794 0 
L 794 531 
z
" transform="scale(0.015625)"/>
       </defs>
       <use xlink:href="#DejaVuSans-32"/>
       <use xlink:href="#DejaVuSans-30" x="63.623047"/>
       <use xlink:href="#DejaVuSans-32" x="127.246094"/>
       <use xlink:href="#DejaVuSans-33" x="190.869141"/>
       <use xlink:href="#DejaVuSans-2d" x="254.492188"/>
       <use xlink:href="#DejaVuSans-30" x="290.576172"/>
       <use xlink:href="#DejaVuSans-31" x="354.199219"/>
       <use xlink:href="#DejaVuSans-2d" x="417.822266"/>
       <use xlink:href="#DejaVuSans-30" x="453.90625"/>
       <use xlink:href="#DejaVuSans-31" x="517.529297"/>
      </g>
     </g>
    </g>
    <g id="xtick_2">
     <g id="line2d_2">
      <g>
       <use xlink:href="#m0650d714de" x="312.254954" y="512.64" style="stroke: #000000; stroke-width: 0.8"/>
      </g>
     </g>
     <g id="text_2">
      <!-- 2023-01-15 -->
      <g transform="translate(283.197142 527.238438)scale(0.1 -0.1)">
       <defs>
        <path id="DejaVuSans-35" d="M 691 4666 
L 3169 4666 
L 3169 4134 
L 1269 4134 
L 1269 2991 
Q 1406 3038 1543 3061 
Q 1681 3084 1819 3084 
Q 2600 3084 3056 2656 
Q 3513 2228 3513 1497 
Q 3513 744 3044 326 
Q 2575 -91 1722 -91 
Q 1428 -91 1123 -41 
Q 819 9 494 109 
L 494 744 
Q 775 591 1075 516 
Q 1375 441 1709 441 
Q 2250 441 2565 725 
Q 2881 1009 2881 1497 
Q 2881 1984 2565 2268 
Q 2250 2553 1709 2553 
Q 1456 2553 1204 2497 
Q 953 2441 691 2322 
L 691 4666 
z
" transform="scale(0.015625)"/>
       </defs>
       <use xlink:href="#DejaVuSans-32"/>
       <use xlink:href="#DejaVuSans-30" x="63.623047"/>
       <use xlink:href="#DejaVuSans-32" x="127.246094"/>
       <use xlink:href="#DejaVuSans-33" x="190.869141"/>
       <use xlink:href="#DejaVuSans-2d" x="254.492188"/>
       <use xlink:href="#DejaVuSans-30" x="290.576172"/>
       <use xlink:href="#DejaVuSans-31" x="354.199219"/>
       <use xlink:href="#DejaVuSans-2d" x="417.822266"/>
       <use xlink:href="#DejaVuSans-31" x="453.90625"/>
       <use xlink:href="#DejaVuSans-35" x="517.529297"/>
      </g>
     </g>
    </g>
    <g id="xtick_3">
     <g id="line2d_3">
      <g>
       <use xlink:href="#m0650d714de" x="467.286619" y="512.64" style="stroke: #000000; stroke-width: 0.8"/>
      </g>
     </g>
     <g id="text_3">
      <!-- 2023-02-01 -->
      <g transform="translate(438.228806 527.238438)scale(0.1 -0.1)">
       <use xlink:href="#DejaVuSans-32"/>
       <use xlink:href="#DejaVuSans-30" x="63.623047"/>
       <use xlink:href="#DejaVuSans-32" x="127.246094"/>
       <use xlink:href="#DejaVuSans-33" x="190.869141"/>
       <use xlink:href="#DejaVuSans-2d" x="254.492188"/>
       <use xlink:href="#DejaVuSans-30" x="290.576172"/>
       <use xlink:href="#DejaVuSans-32" x="354.199219"/>
       <use xlink:href="#DejaVuSans-2d" x="417.822266"/>
       <use xlink:href="#DejaVuSans-30" x="453.90625"/>
       <use xlink:href="#DejaVuSans-31" x="517.529297"/>
      </g>
     </g>
    </g>
    <g id="xtick_4">
     <g id="line2d_4">
      <g>
       <use xlink:href="#m0650d714de" x="594.959755" y="512.64" style="stroke: #000000; stroke-width: 0.8"/>
      </g>
     </g>
     <g id="text_4">
      <!-- 2023-02-15 -->
      <g transform="translate(565.901942 527.238438)scale(0.1 -0.1)">
       <use xlink:href="#DejaVuSans-32"/>
       <use xlink:href="#DejaVuSans-30" x="63.623047"/>
       <use xlink:href="#DejaVuSans-32" x="127.246094"/>
       <use xlink:href="#DejaVuSans-33" x="190.869141"/>
       <use xlink:href="#DejaVuSans-2d" x="254.492188"/>
       <use xlink:href="#DejaVuSans-30" x="290.576172"/>
       <use xlink:href="#DejaVuSans-32" x="354.199219"/>
       <use xlink:href="#DejaVuSans-2d" x="417.822266"/>
       <use xlink:href="#DejaVuSans-31" x="453.90625"/>
       <use xlink:href="#DejaVuSans-35" x="517.529297"/>
      </g>
     </g>
    </g>
    <g id="xtick_5">
     <g id="line2d_5">
      <g>
       <use xlink:href="#m0650d714de" x="722.632891" y="512.64" style="stroke: #000000; stroke-width: 0.8"/>
      </g>
     </g>
     <g id="text_5">
      <!-- 2023-03-01 -->
      <g transform="translate(693.575078 527.238438)scale(0.1 -0.1)">
       <use xlink:href="#DejaVuSans-32"/>
       <use xlink:href="#DejaVuSans-30" x="63.623047"/>
       <use xlink:href="#DejaVuSans-32" x="127.246094"/>
       <use xlink:href="#DejaVuSans-33" x="190.869141"/>
       <use xlink:href="#DejaVuSans-2d" x="254.492188"/>
       <use xlink:href="#DejaVuSans-30" x="290.576172"/>
       <use xlink:href="#DejaVuSans-33" x="354.199219"/>
       <use xlink:href="#DejaVuSans-2d" x="417.822266"/>
       <use xlink:href="#DejaVuSans-30" x="453.90625"/>
       <use xlink:href="#DejaVuSans-31" x="517.529297"/>
      </g>
     </g>
    </g>
    <g id="xtick_6">
     <g id="line2d_6">
      <g>
       <use xlink:href="#m0650d714de" x="850.306027" y="512.64" style="stroke: #000000; stroke-width: 0.8"/>
      </g>
     </g>
     <g id="text_6">
      <!-- 2023-03-15 -->
      <g transform="translate(821.248214 527.238438)scale(0.1 -0.1)">
       <use xlink:href="#DejaVuSans-32"/>
       <use xlink:href="#DejaVuSans-30" x="63.623047"/>
       <use xlink:href="#DejaVuSans-32" x="127.246094"/>
       <use xlink:href="#DejaVuSans-33" x="190.869141"/>
       <use xlink:href="#DejaVuSans-2d" x="254.492188"/>
       <use xlink:href="#DejaVuSans-30" x="290.576172"/>
       <use xlink:href="#DejaVuSans-33" x="354.199219"/>
       <use xlink:href="#DejaVuSans-2d" x="417.822266"/>
       <use xlink:href="#DejaVuSans-31" x="453.90625"/>
       <use xlink:href="#DejaVuSans-35" x="517.529297"/>
      </g>
     </g>
    </g>
    <g id="xtick_7">
     <g id="line2d_7">
      <g>
       <use xlink:href="#m0650d714de" x="1005.337692" y="512.64" style="stroke: #000000; stroke-width: 0.8"/>
      </g>
     </g>
     <g id="text_7">
      <!-- 2023-04-01 -->
      <g transform="translate(976.279879 527.238438)scale(0.1 -0.1)">
       <defs>
        <path id="DejaVuSans-34" d="M 2419 4116 
L 825 1625 
L 2419 1625 
L 2419 4116 
z
M 2253 4666 
L 3047 4666 
L 3047 1625 
L 3713 1625 
L 3713 1100 
L 3047 1100 
L 3047 0 
L 2419 0 
L 2419 1100 
L 313 1100 
L 313 1709 
L 2253 4666 
z
" transform="scale(0.015625)"/>
       </defs>
       <use xlink:href="#DejaVuSans-32"/>
       <use xlink:href="#DejaVuSans-30" x="63.623047"/>
       <use xlink:href="#DejaVuSans-32" x="127.246094"/>
       <use xlink:href="#DejaVuSans-33" x="190.869141"/>
       <use xlink:href="#DejaVuSans-2d" x="254.492188"/>
       <use xlink:href="#DejaVuSans-30" x="290.576172"/>
       <use xlink:href="#DejaVuSans-34" x="354.199219"/>
       <use xlink:href="#DejaVuSans-2d" x="417.822266"/>
       <use xlink:href="#DejaVuSans-30" x="453.90625"/>
       <use xlink:href="#DejaVuSans-31" x="517.529297"/>
      </g>
     </g>
    </g>
   </g>
   <g id="matplotlib.axis_2">
    <g id="ytick_1">
     <g id="line2d_8">
      <defs>
       <path id="m5f2679903e" d="M 0 0 
L -3.5 0 
" style="stroke: #000000; stroke-width: 0.8"/>
      </defs>
      <g>
       <use xlink:href="#m5f2679903e" x="144" y="434.656744" style="stroke: #000000; stroke-width: 0.8"/>
      </g>
     </g>
     <g id="text_8">
      <!-- 4400 -->
      <g transform="translate(111.55 438.455963)scale(0.1 -0.1)">
       <use xlink:href="#DejaVuSans-34"/>
       <use xlink:href="#DejaVuSans-34" x="63.623047"/>
       <use xlink:href="#DejaVuSans-30" x="127.246094"/>
       <use xlink:href="#DejaVuSans-30" x="190.869141"/>
      </g>
     </g>
    </g>
    <g id="ytick_2">
     <g id="line2d_9">
      <g>
       <use xlink:href="#m5f2679903e" x="144" y="356.517209" style="stroke: #000000; stroke-width: 0.8"/>
      </g>
     </g>
     <g id="text_9">
      <!-- 4600 -->
      <g transform="translate(111.55 360.316428)scale(0.1 -0.1)">
       <defs>
        <path id="DejaVuSans-36" d="M 2113 2584 
Q 1688 2584 1439 2293 
Q 1191 2003 1191 1497 
Q 1191 994 1439 701 
Q 1688 409 2113 409 
Q 2538 409 2786 701 
Q 3034 994 3034 1497 
Q 3034 2003 2786 2293 
Q 2538 2584 2113 2584 
z
M 3366 4563 
L 3366 3988 
Q 3128 4100 2886 4159 
Q 2644 4219 2406 4219 
Q 1781 4219 1451 3797 
Q 1122 3375 1075 2522 
Q 1259 2794 1537 2939 
Q 1816 3084 2150 3084 
Q 2853 3084 3261 2657 
Q 3669 2231 3669 1497 
Q 3669 778 3244 343 
Q 2819 -91 2113 -91 
Q 1303 -91 875 529 
Q 447 1150 447 2328 
Q 447 3434 972 4092 
Q 1497 4750 2381 4750 
Q 2619 4750 2861 4703 
Q 3103 4656 3366 4563 
z
" transform="scale(0.015625)"/>
       </defs>
       <use xlink:href="#DejaVuSans-34"/>
       <use xlink:href="#DejaVuSans-36" x="63.623047"/>
       <use xlink:href="#DejaVuSans-30" x="127.246094"/>
       <use xlink:href="#DejaVuSans-30" x="190.869141"/>
      </g>
     </g>
    </g>
    <g id="ytick_3">
     <g id="line2d_10">
      <g>
       <use xlink:href="#m5f2679903e" x="144" y="278.377674" style="stroke: #000000; stroke-width: 0.8"/>
      </g>
     </g>
     <g id="text_10">
      <!-- 4800 -->
      <g transform="translate(111.55 282.176893)scale(0.1 -0.1)">
       <defs>
        <path id="DejaVuSans-38" d="M 2034 2216 
Q 1584 2216 1326 1975 
Q 1069 1734 1069 1313 
Q 1069 891 1326 650 
Q 1584 409 2034 409 
Q 2484 409 2743 651 
Q 3003 894 3003 1313 
Q 3003 1734 2745 1975 
Q 2488 2216 2034 2216 
z
M 1403 2484 
Q 997 2584 770 2862 
Q 544 3141 544 3541 
Q 544 4100 942 4425 
Q 1341 4750 2034 4750 
Q 2731 4750 3128 4425 
Q 3525 4100 3525 3541 
Q 3525 3141 3298 2862 
Q 3072 2584 2669 2484 
Q 3125 2378 3379 2068 
Q 3634 1759 3634 1313 
Q 3634 634 3220 271 
Q 2806 -91 2034 -91 
Q 1263 -91 848 271 
Q 434 634 434 1313 
Q 434 1759 690 2068 
Q 947 2378 1403 2484 
z
M 1172 3481 
Q 1172 3119 1398 2916 
Q 1625 2713 2034 2713 
Q 2441 2713 2670 2916 
Q 2900 3119 2900 3481 
Q 2900 3844 2670 4047 
Q 2441 4250 2034 4250 
Q 1625 4250 1398 4047 
Q 1172 3844 1172 3481 
z
" transform="scale(0.015625)"/>
       </defs>
       <use xlink:href="#DejaVuSans-34"/>
       <use xlink:href="#DejaVuSans-38" x="63.623047"/>
       <use xlink:href="#DejaVuSans-30" x="127.246094"/>
       <use xlink:href="#DejaVuSans-30" x="190.869141"/>
      </g>
     </g>
    </g>
    <g id="ytick_4">
     <g id="line2d_11">
      <g>
       <use xlink:href="#m5f2679903e" x="144" y="200.23814" style="stroke: #000000; stroke-width: 0.8"/>
      </g>
     </g>
     <g id="text_11">
      <!-- 5000 -->
      <g transform="translate(111.55 204.037358)scale(0.1 -0.1)">
       <use xlink:href="#DejaVuSans-35"/>
       <use xlink:href="#DejaVuSans-30" x="63.623047"/>
       <use xlink:href="#DejaVuSans-30" x="127.246094"/>
       <use xlink:href="#DejaVuSans-30" x="190.869141"/>
      </g>
     </g>
    </g>
    <g id="ytick_5">
     <g id="line2d_12">
      <g>
       <use xlink:href="#m5f2679903e" x="144" y="122.098605" style="stroke: #000000; stroke-width: 0.8"/>
      </g>
     </g>
     <g id="text_12">
      <!-- 5200 -->
      <g transform="translate(111.55 125.897823)scale(0.1 -0.1)">
       <use xlink:href="#DejaVuSans-35"/>
       <use xlink:href="#DejaVuSans-32" x="63.623047"/>
       <use xlink:href="#DejaVuSans-30" x="127.246094"/>
       <use xlink:href="#DejaVuSans-30" x="190.869141"/>
      </g>
     </g>
    </g>
   </g>
   <g id="line2d_13">
    <path d="M 184.581818 492.48 
L 193.701328 489.354419 
L 202.820838 479.977674 
L 211.940347 469.03814 
L 221.059857 459.661395 
L 230.179367 453.410233 
L 239.298876 447.940465 
L 248.418386 441.689302 
L 257.537896 439.345116 
L 266.657406 435.828837 
L 275.776915 429.577674 
L 284.896425 410.433488 
L 294.015935 405.745116 
L 303.135444 405.354419 
L 312.254954 400.666047 
L 321.374464 394.805581 
L 330.493973 390.117209 
L 339.613483 387.773023 
L 348.732993 379.95907 
L 357.852503 377.614884 
L 366.972012 372.926512 
L 376.091522 370.973023 
L 385.211032 359.252093 
L 394.330541 353.00093 
L 403.450051 346.35907 
L 412.569561 341.670698 
L 421.68907 336.982326 
L 430.80858 335.028837 
L 439.92809 332.293953 
L 449.0476 330.340465 
L 458.167109 327.996279 
L 467.286619 326.433488 
L 476.406129 323.698605 
L 485.525638 308.852093 
L 494.645148 308.070698 
L 503.764658 306.117209 
L 512.884168 304.163721 
L 522.003677 301.428837 
L 531.123187 297.131163 
L 540.242697 294.786977 
L 549.362206 290.88 
L 558.481716 281.112558 
L 567.601226 280.72186 
L 576.720735 278.377674 
L 585.840245 274.861395 
L 594.959755 272.907907 
L 604.079265 272.517209 
L 613.198774 270.563721 
L 622.318284 265.875349 
L 631.437794 264.703256 
L 640.557303 261.968372 
L 649.676813 256.889302 
L 658.796323 248.684651 
L 667.915832 238.135814 
L 677.035342 229.931163 
L 686.154852 218.991628 
L 695.274362 200.628837 
L 704.393871 194.768372 
L 713.513381 192.033488 
L 722.632891 190.08 
L 731.7524 186.173023 
L 749.99142 182.656744 
L 759.11093 181.875349 
L 768.230439 177.186977 
L 777.349949 166.63814 
L 786.469459 160.386977 
L 795.588968 159.214884 
L 804.708478 158.824186 
L 813.827988 157.261395 
L 822.947497 154.917209 
L 832.067007 152.963721 
L 841.186517 151.40093 
L 850.306027 143.586977 
L 859.425536 139.289302 
L 868.545046 136.945116 
L 877.664556 132.647442 
L 886.784065 125.224186 
L 895.903575 120.535814 
L 905.023085 116.23814 
L 914.142594 113.893953 
L 923.262104 111.940465 
L 932.381614 111.15907 
L 941.501124 110.768372 
L 950.620633 110.377674 
L 959.740143 106.470698 
L 968.859653 106.08 
L 977.979162 105.298605 
L 987.098672 92.014884 
L 996.218182 89.28 
" clip-path="url(#pc722b4dd36)" style="fill: none; stroke: #1f77b4; stroke-width: 1.5; stroke-linecap: square"/>
   </g>
   <g id="patch_3">
    <path d="M 144 512.64 
L 144 69.12 
" style="fill: none; stroke: #000000; stroke-width: 0.8; stroke-linejoin: miter; stroke-linecap: square"/>
   </g>
   <g id="patch_4">
    <path d="M 1036.8 512.64 
L 1036.8 69.12 
" style="fill: none; stroke: #000000; stroke-width: 0.8; stroke-linejoin: miter; stroke-linecap: square"/>
   </g>
   <g id="patch_5">
    <path d="M 144 512.64 
L 1036.8 512.64 
" style="fill: none; stroke: #000000; stroke-width: 0.8; stroke-linejoin: miter; stroke-linecap: square"/>
   </g>
   <g id="patch_6">
    <path d="M 144 69.12 
L 1036.8 69.12 
" style="fill: none; stroke: #000000; stroke-width: 0.8; stroke-linejoin: miter; stroke-linecap: square"/>
   </g>
   <g id="text_13">
    <!-- Number of AEDs in the OpenStreetMap database in Poland from 2023-01-01, day by day. As at: 2023-03-31 -->
    <g transform="translate(144 63.12)scale(0.14 -0.14)">
     <defs>
      <path id="DejaVuSans-4e" d="M 628 4666 
L 1478 4666 
L 3547 763 
L 3547 4666 
L 4159 4666 
L 4159 0 
L 3309 0 
L 1241 3903 
L 1241 0 
L 628 0 
L 628 4666 
z
" transform="scale(0.015625)"/>
      <path id="DejaVuSans-75" d="M 544 1381 
L 544 3500 
L 1119 3500 
L 1119 1403 
Q 1119 906 1312 657 
Q 1506 409 1894 409 
Q 2359 409 2629 706 
Q 2900 1003 2900 1516 
L 2900 3500 
L 3475 3500 
L 3475 0 
L 2900 0 
L 2900 538 
Q 2691 219 2414 64 
Q 2138 -91 1772 -91 
Q 1169 -91 856 284 
Q 544 659 544 1381 
z
M 1991 3584 
L 1991 3584 
z
" transform="scale(0.015625)"/>
      <path id="DejaVuSans-6d" d="M 3328 2828 
Q 3544 3216 3844 3400 
Q 4144 3584 4550 3584 
Q 5097 3584 5394 3201 
Q 5691 2819 5691 2113 
L 5691 0 
L 5113 0 
L 5113 2094 
Q 5113 2597 4934 2840 
Q 4756 3084 4391 3084 
Q 3944 3084 3684 2787 
Q 3425 2491 3425 1978 
L 3425 0 
L 2847 0 
L 2847 2094 
Q 2847 2600 2669 2842 
Q 2491 3084 2119 3084 
Q 1678 3084 1418 2786 
Q 1159 2488 1159 1978 
L 1159 0 
L 581 0 
L 581 3500 
L 1159 3500 
L 1159 2956 
Q 1356 3278 1631 3431 
Q 1906 3584 2284 3584 
Q 2666 3584 2933 3390 
Q 3200 3197 3328 2828 
z
" transform="scale(0.015625)"/>
      <path id="DejaVuSans-62" d="M 3116 1747 
Q 3116 2381 2855 2742 
Q 2594 3103 2138 3103 
Q 1681 3103 1420 2742 
Q 1159 2381 1159 1747 
Q 1159 1113 1420 752 
Q 1681 391 2138 391 
Q 2594 391 2855 752 
Q 3116 1113 3116 1747 
z
M 1159 2969 
Q 1341 3281 1617 3432 
Q 1894 3584 2278 3584 
Q 2916 3584 3314 3078 
Q 3713 2572 3713 1747 
Q 3713 922 3314 415 
Q 2916 -91 2278 -91 
Q 1894 -91 1617 61 
Q 1341 213 1159 525 
L 1159 0 
L 581 0 
L 581 4863 
L 1159 4863 
L 1159 2969 
z
" transform="scale(0.015625)"/>
      <path id="DejaVuSans-65" d="M 3597 1894 
L 3597 1613 
L 953 1613 
Q 991 1019 1311 708 
Q 1631 397 2203 397 
Q 2534 397 2845 478 
Q 3156 559 3463 722 
L 3463 178 
Q 3153 47 2828 -22 
Q 2503 -91 2169 -91 
Q 1331 -91 842 396 
Q 353 884 353 1716 
Q 353 2575 817 3079 
Q 1281 3584 2069 3584 
Q 2775 3584 3186 3129 
Q 3597 2675 3597 1894 
z
M 3022 2063 
Q 3016 2534 2758 2815 
Q 2500 3097 2075 3097 
Q 1594 3097 1305 2825 
Q 1016 2553 972 2059 
L 3022 2063 
z
" transform="scale(0.015625)"/>
      <path id="DejaVuSans-72" d="M 2631 2963 
Q 2534 3019 2420 3045 
Q 2306 3072 2169 3072 
Q 1681 3072 1420 2755 
Q 1159 2438 1159 1844 
L 1159 0 
L 581 0 
L 581 3500 
L 1159 3500 
L 1159 2956 
Q 1341 3275 1631 3429 
Q 1922 3584 2338 3584 
Q 2397 3584 2469 3576 
Q 2541 3569 2628 3553 
L 2631 2963 
z
" transform="scale(0.015625)"/>
      <path id="DejaVuSans-20" transform="scale(0.015625)"/>
      <path id="DejaVuSans-6f" d="M 1959 3097 
Q 1497 3097 1228 2736 
Q 959 2375 959 1747 
Q 959 1119 1226 758 
Q 1494 397 1959 397 
Q 2419 397 2687 759 
Q 2956 1122 2956 1747 
Q 2956 2369 2687 2733 
Q 2419 3097 1959 3097 
z
M 1959 3584 
Q 2709 3584 3137 3096 
Q 3566 2609 3566 1747 
Q 3566 888 3137 398 
Q 2709 -91 1959 -91 
Q 1206 -91 779 398 
Q 353 888 353 1747 
Q 353 2609 779 3096 
Q 1206 3584 1959 3584 
z
" transform="scale(0.015625)"/>
      <path id="DejaVuSans-66" d="M 2375 4863 
L 2375 4384 
L 1825 4384 
Q 1516 4384 1395 4259 
Q 1275 4134 1275 3809 
L 1275 3500 
L 2222 3500 
L 2222 3053 
L 1275 3053 
L 1275 0 
L 697 0 
L 697 3053 
L 147 3053 
L 147 3500 
L 697 3500 
L 697 3744 
Q 697 4328 969 4595 
Q 1241 4863 1831 4863 
L 2375 4863 
z
" transform="scale(0.015625)"/>
      <path id="DejaVuSans-41" d="M 2188 4044 
L 1331 1722 
L 3047 1722 
L 2188 4044 
z
M 1831 4666 
L 2547 4666 
L 4325 0 
L 3669 0 
L 3244 1197 
L 1141 1197 
L 716 0 
L 50 0 
L 1831 4666 
z
" transform="scale(0.015625)"/>
      <path id="DejaVuSans-45" d="M 628 4666 
L 3578 4666 
L 3578 4134 
L 1259 4134 
L 1259 2753 
L 3481 2753 
L 3481 2222 
L 1259 2222 
L 1259 531 
L 3634 531 
L 3634 0 
L 628 0 
L 628 4666 
z
" transform="scale(0.015625)"/>
      <path id="DejaVuSans-44" d="M 1259 4147 
L 1259 519 
L 2022 519 
Q 2988 519 3436 956 
Q 3884 1394 3884 2338 
Q 3884 3275 3436 3711 
Q 2988 4147 2022 4147 
L 1259 4147 
z
M 628 4666 
L 1925 4666 
Q 3281 4666 3915 4102 
Q 4550 3538 4550 2338 
Q 4550 1131 3912 565 
Q 3275 0 1925 0 
L 628 0 
L 628 4666 
z
" transform="scale(0.015625)"/>
      <path id="DejaVuSans-73" d="M 2834 3397 
L 2834 2853 
Q 2591 2978 2328 3040 
Q 2066 3103 1784 3103 
Q 1356 3103 1142 2972 
Q 928 2841 928 2578 
Q 928 2378 1081 2264 
Q 1234 2150 1697 2047 
L 1894 2003 
Q 2506 1872 2764 1633 
Q 3022 1394 3022 966 
Q 3022 478 2636 193 
Q 2250 -91 1575 -91 
Q 1294 -91 989 -36 
Q 684 19 347 128 
L 347 722 
Q 666 556 975 473 
Q 1284 391 1588 391 
Q 1994 391 2212 530 
Q 2431 669 2431 922 
Q 2431 1156 2273 1281 
Q 2116 1406 1581 1522 
L 1381 1569 
Q 847 1681 609 1914 
Q 372 2147 372 2553 
Q 372 3047 722 3315 
Q 1072 3584 1716 3584 
Q 2034 3584 2315 3537 
Q 2597 3491 2834 3397 
z
" transform="scale(0.015625)"/>
      <path id="DejaVuSans-69" d="M 603 3500 
L 1178 3500 
L 1178 0 
L 603 0 
L 603 3500 
z
M 603 4863 
L 1178 4863 
L 1178 4134 
L 603 4134 
L 603 4863 
z
" transform="scale(0.015625)"/>
      <path id="DejaVuSans-6e" d="M 3513 2113 
L 3513 0 
L 2938 0 
L 2938 2094 
Q 2938 2591 2744 2837 
Q 2550 3084 2163 3084 
Q 1697 3084 1428 2787 
Q 1159 2491 1159 1978 
L 1159 0 
L 581 0 
L 581 3500 
L 1159 3500 
L 1159 2956 
Q 1366 3272 1645 3428 
Q 1925 3584 2291 3584 
Q 2894 3584 3203 3211 
Q 3513 2838 3513 2113 
z
" transform="scale(0.015625)"/>
      <path id="DejaVuSans-74" d="M 1172 4494 
L 1172 3500 
L 2356 3500 
L 2356 3053 
L 1172 3053 
L 1172 1153 
Q 1172 725 1289 603 
Q 1406 481 1766 481 
L 2356 481 
L 2356 0 
L 1766 0 
Q 1100 0 847 248 
Q 594 497 594 1153 
L 594 3053 
L 172 3053 
L 172 3500 
L 594 3500 
L 594 4494 
L 1172 4494 
z
" transform="scale(0.015625)"/>
      <path id="DejaVuSans-68" d="M 3513 2113 
L 3513 0 
L 2938 0 
L 2938 2094 
Q 2938 2591 2744 2837 
Q 2550 3084 2163 3084 
Q 1697 3084 1428 2787 
Q 1159 2491 1159 1978 
L 1159 0 
L 581 0 
L 581 4863 
L 1159 4863 
L 1159 2956 
Q 1366 3272 1645 3428 
Q 1925 3584 2291 3584 
Q 2894 3584 3203 3211 
Q 3513 2838 3513 2113 
z
" transform="scale(0.015625)"/>
      <path id="DejaVuSans-4f" d="M 2522 4238 
Q 1834 4238 1429 3725 
Q 1025 3213 1025 2328 
Q 1025 1447 1429 934 
Q 1834 422 2522 422 
Q 3209 422 3611 934 
Q 4013 1447 4013 2328 
Q 4013 3213 3611 3725 
Q 3209 4238 2522 4238 
z
M 2522 4750 
Q 3503 4750 4090 4092 
Q 4678 3434 4678 2328 
Q 4678 1225 4090 567 
Q 3503 -91 2522 -91 
Q 1538 -91 948 565 
Q 359 1222 359 2328 
Q 359 3434 948 4092 
Q 1538 4750 2522 4750 
z
" transform="scale(0.015625)"/>
      <path id="DejaVuSans-70" d="M 1159 525 
L 1159 -1331 
L 581 -1331 
L 581 3500 
L 1159 3500 
L 1159 2969 
Q 1341 3281 1617 3432 
Q 1894 3584 2278 3584 
Q 2916 3584 3314 3078 
Q 3713 2572 3713 1747 
Q 3713 922 3314 415 
Q 2916 -91 2278 -91 
Q 1894 -91 1617 61 
Q 1341 213 1159 525 
z
M 3116 1747 
Q 3116 2381 2855 2742 
Q 2594 3103 2138 3103 
Q 1681 3103 1420 2742 
Q 1159 2381 1159 1747 
Q 1159 1113 1420 752 
Q 1681 391 2138 391 
Q 2594 391 2855 752 
Q 3116 1113 3116 1747 
z
" transform="scale(0.015625)"/>
      <path id="DejaVuSans-53" d="M 3425 4513 
L 3425 3897 
Q 3066 4069 2747 4153 
Q 2428 4238 2131 4238 
Q 1616 4238 1336 4038 
Q 1056 3838 1056 3469 
Q 1056 3159 1242 3001 
Q 1428 2844 1947 2747 
L 2328 2669 
Q 3034 2534 3370 2195 
Q 3706 1856 3706 1288 
Q 3706 609 3251 259 
Q 2797 -91 1919 -91 
Q 1588 -91 1214 -16 
Q 841 59 441 206 
L 441 856 
Q 825 641 1194 531 
Q 1563 422 1919 422 
Q 2459 422 2753 634 
Q 3047 847 3047 1241 
Q 3047 1584 2836 1778 
Q 2625 1972 2144 2069 
L 1759 2144 
Q 1053 2284 737 2584 
Q 422 2884 422 3419 
Q 422 4038 858 4394 
Q 1294 4750 2059 4750 
Q 2388 4750 2728 4690 
Q 3069 4631 3425 4513 
z
" transform="scale(0.015625)"/>
      <path id="DejaVuSans-4d" d="M 628 4666 
L 1569 4666 
L 2759 1491 
L 3956 4666 
L 4897 4666 
L 4897 0 
L 4281 0 
L 4281 4097 
L 3078 897 
L 2444 897 
L 1241 4097 
L 1241 0 
L 628 0 
L 628 4666 
z
" transform="scale(0.015625)"/>
      <path id="DejaVuSans-61" d="M 2194 1759 
Q 1497 1759 1228 1600 
Q 959 1441 959 1056 
Q 959 750 1161 570 
Q 1363 391 1709 391 
Q 2188 391 2477 730 
Q 2766 1069 2766 1631 
L 2766 1759 
L 2194 1759 
z
M 3341 1997 
L 3341 0 
L 2766 0 
L 2766 531 
Q 2569 213 2275 61 
Q 1981 -91 1556 -91 
Q 1019 -91 701 211 
Q 384 513 384 1019 
Q 384 1609 779 1909 
Q 1175 2209 1959 2209 
L 2766 2209 
L 2766 2266 
Q 2766 2663 2505 2880 
Q 2244 3097 1772 3097 
Q 1472 3097 1187 3025 
Q 903 2953 641 2809 
L 641 3341 
Q 956 3463 1253 3523 
Q 1550 3584 1831 3584 
Q 2591 3584 2966 3190 
Q 3341 2797 3341 1997 
z
" transform="scale(0.015625)"/>
      <path id="DejaVuSans-64" d="M 2906 2969 
L 2906 4863 
L 3481 4863 
L 3481 0 
L 2906 0 
L 2906 525 
Q 2725 213 2448 61 
Q 2172 -91 1784 -91 
Q 1150 -91 751 415 
Q 353 922 353 1747 
Q 353 2572 751 3078 
Q 1150 3584 1784 3584 
Q 2172 3584 2448 3432 
Q 2725 3281 2906 2969 
z
M 947 1747 
Q 947 1113 1208 752 
Q 1469 391 1925 391 
Q 2381 391 2643 752 
Q 2906 1113 2906 1747 
Q 2906 2381 2643 2742 
Q 2381 3103 1925 3103 
Q 1469 3103 1208 2742 
Q 947 2381 947 1747 
z
" transform="scale(0.015625)"/>
      <path id="DejaVuSans-50" d="M 1259 4147 
L 1259 2394 
L 2053 2394 
Q 2494 2394 2734 2622 
Q 2975 2850 2975 3272 
Q 2975 3691 2734 3919 
Q 2494 4147 2053 4147 
L 1259 4147 
z
M 628 4666 
L 2053 4666 
Q 2838 4666 3239 4311 
Q 3641 3956 3641 3272 
Q 3641 2581 3239 2228 
Q 2838 1875 2053 1875 
L 1259 1875 
L 1259 0 
L 628 0 
L 628 4666 
z
" transform="scale(0.015625)"/>
      <path id="DejaVuSans-6c" d="M 603 4863 
L 1178 4863 
L 1178 0 
L 603 0 
L 603 4863 
z
" transform="scale(0.015625)"/>
      <path id="DejaVuSans-2c" d="M 750 794 
L 1409 794 
L 1409 256 
L 897 -744 
L 494 -744 
L 750 256 
L 750 794 
z
" transform="scale(0.015625)"/>
      <path id="DejaVuSans-79" d="M 2059 -325 
Q 1816 -950 1584 -1140 
Q 1353 -1331 966 -1331 
L 506 -1331 
L 506 -850 
L 844 -850 
Q 1081 -850 1212 -737 
Q 1344 -625 1503 -206 
L 1606 56 
L 191 3500 
L 800 3500 
L 1894 763 
L 2988 3500 
L 3597 3500 
L 2059 -325 
z
" transform="scale(0.015625)"/>
      <path id="DejaVuSans-2e" d="M 684 794 
L 1344 794 
L 1344 0 
L 684 0 
L 684 794 
z
" transform="scale(0.015625)"/>
      <path id="DejaVuSans-3a" d="M 750 794 
L 1409 794 
L 1409 0 
L 750 0 
L 750 794 
z
M 750 3309 
L 1409 3309 
L 1409 2516 
L 750 2516 
L 750 3309 
z
" transform="scale(0.015625)"/>
     </defs>
     <use xlink:href="#DejaVuSans-4e"/>
     <use xlink:href="#DejaVuSans-75" x="74.804688"/>
     <use xlink:href="#DejaVuSans-6d" x="138.183594"/>
     <use xlink:href="#DejaVuSans-62" x="235.595703"/>
     <use xlink:href="#DejaVuSans-65" x="299.072266"/>
     <use xlink:href="#DejaVuSans-72" x="360.595703"/>
     <use xlink:href="#DejaVuSans-20" x="401.708984"/>
     <use xlink:href="#DejaVuSans-6f" x="433.496094"/>
     <use xlink:href="#DejaVuSans-66" x="494.677734"/>
     <use xlink:href="#DejaVuSans-20" x="529.882812"/>
     <use xlink:href="#DejaVuSans-41" x="561.669922"/>
     <use xlink:href="#DejaVuSans-45" x="630.078125"/>
     <use xlink:href="#DejaVuSans-44" x="693.261719"/>
     <use xlink:href="#DejaVuSans-73" x="770.263672"/>
     <use xlink:href="#DejaVuSans-20" x="822.363281"/>
     <use xlink:href="#DejaVuSans-69" x="854.150391"/>
     <use xlink:href="#DejaVuSans-6e" x="881.933594"/>
     <use xlink:href="#DejaVuSans-20" x="945.3125"/>
     <use xlink:href="#DejaVuSans-74" x="977.099609"/>
     <use xlink:href="#DejaVuSans-68" x="1016.308594"/>
     <use xlink:href="#DejaVuSans-65" x="1079.6875"/>
     <use xlink:href="#DejaVuSans-20" x="1141.210938"/>
     <use xlink:href="#DejaVuSans-4f" x="1172.998047"/>
     <use xlink:href="#DejaVuSans-70" x="1251.708984"/>
     <use xlink:href="#DejaVuSans-65" x="1315.185547"/>
     <use xlink:href="#DejaVuSans-6e" x="1376.708984"/>
     <use xlink:href="#DejaVuSans-53" x="1440.087891"/>
     <use xlink:href="#DejaVuSans-74" x="1503.564453"/>
     <use xlink:href="#DejaVuSans-72" x="1542.773438"/>
     <use xlink:href="#DejaVuSans-65" x="1581.636719"/>
     <use xlink:href="#DejaVuSans-65" x="1643.160156"/>
     <use xlink:href="#DejaVuSans-74" x="1704.683594"/>
     <use xlink:href="#DejaVuSans-4d" x="1743.892578"/>
     <use xlink:href="#DejaVuSans-61" x="1830.171875"/>
     <use xlink:href="#DejaVuSans-70" x="1891.451172"/>
     <use xlink:href="#DejaVuSans-20" x="1954.927734"/>
     <use xlink:href="#DejaVuSans-64" x="1986.714844"/>
     <use xlink:href="#DejaVuSans-61" x="2050.191406"/>
     <use xlink:href="#DejaVuSans-74" x="2111.470703"/>
     <use xlink:href="#DejaVuSans-61" x="2150.679688"/>
     <use xlink:href="#DejaVuSans-62" x="2211.958984"/>
     <use xlink:href="#DejaVuSans-61" x="2275.435547"/>
     <use xlink:href="#DejaVuSans-73" x="2336.714844"/>
     <use xlink:href="#DejaVuSans-65" x="2388.814453"/>
     <use xlink:href="#DejaVuSans-20" x="2450.337891"/>
     <use xlink:href="#DejaVuSans-69" x="2482.125"/>
     <use xlink:href="#DejaVuSans-6e" x="2509.908203"/>
     <use xlink:href="#DejaVuSans-20" x="2573.287109"/>
     <use xlink:href="#DejaVuSans-50" x="2605.074219"/>
     <use xlink:href="#DejaVuSans-6f" x="2661.751953"/>
     <use xlink:href="#DejaVuSans-6c" x="2722.933594"/>
     <use xlink:href="#DejaVuSans-61" x="2750.716797"/>
     <use xlink:href="#DejaVuSans-6e" x="2811.996094"/>
     <use xlink:href="#DejaVuSans-64" x="2875.375"/>
     <use xlink:href="#DejaVuSans-20" x="2938.851562"/>
     <use xlink:href="#DejaVuSans-66" x="2970.638672"/>
     <use xlink:href="#DejaVuSans-72" x="3005.84375"/>
     <use xlink:href="#DejaVuSans-6f" x="3044.707031"/>
     <use xlink:href="#DejaVuSans-6d" x="3105.888672"/>
     <use xlink:href="#DejaVuSans-20" x="3203.300781"/>
     <use xlink:href="#DejaVuSans-32" x="3235.087891"/>
     <use xlink:href="#DejaVuSans-30" x="3298.710938"/>
     <use xlink:href="#DejaVuSans-32" x="3362.333984"/>
     <use xlink:href="#DejaVuSans-33" x="3425.957031"/>
     <use xlink:href="#DejaVuSans-2d" x="3489.580078"/>
     <use xlink:href="#DejaVuSans-30" x="3525.664062"/>
     <use xlink:href="#DejaVuSans-31" x="3589.287109"/>
     <use xlink:href="#DejaVuSans-2d" x="3652.910156"/>
     <use xlink:href="#DejaVuSans-30" x="3688.994141"/>
     <use xlink:href="#DejaVuSans-31" x="3752.617188"/>
     <use xlink:href="#DejaVuSans-2c" x="3816.240234"/>
     <use xlink:href="#DejaVuSans-20" x="3848.027344"/>
     <use xlink:href="#DejaVuSans-64" x="3879.814453"/>
     <use xlink:href="#DejaVuSans-61" x="3943.291016"/>
     <use xlink:href="#DejaVuSans-79" x="4004.570312"/>
     <use xlink:href="#DejaVuSans-20" x="4063.75"/>
     <use xlink:href="#DejaVuSans-62" x="4095.537109"/>
     <use xlink:href="#DejaVuSans-79" x="4159.013672"/>
     <use xlink:href="#DejaVuSans-20" x="4218.193359"/>
     <use xlink:href="#DejaVuSans-64" x="4249.980469"/>
     <use xlink:href="#DejaVuSans-61" x="4313.457031"/>
     <use xlink:href="#DejaVuSans-79" x="4374.736328"/>
     <use xlink:href="#DejaVuSans-2e" x="4419.666016"/>
     <use xlink:href="#DejaVuSans-20" x="4451.453125"/>
     <use xlink:href="#DejaVuSans-41" x="4483.240234"/>
     <use xlink:href="#DejaVuSans-73" x="4551.648438"/>
     <use xlink:href="#DejaVuSans-20" x="4603.748047"/>
     <use xlink:href="#DejaVuSans-61" x="4635.535156"/>
     <use xlink:href="#DejaVuSans-74" x="4696.814453"/>
     <use xlink:href="#DejaVuSans-3a" x="4736.023438"/>
     <use xlink:href="#DejaVuSans-20" x="4769.714844"/>
     <use xlink:href="#DejaVuSans-32" x="4801.501953"/>
     <use xlink:href="#DejaVuSans-30" x="4865.125"/>
     <use xlink:href="#DejaVuSans-32" x="4928.748047"/>
     <use xlink:href="#DejaVuSans-33" x="4992.371094"/>
     <use xlink:href="#DejaVuSans-2d" x="5055.994141"/>
     <use xlink:href="#DejaVuSans-30" x="5092.078125"/>
     <use xlink:href="#DejaVuSans-33" x="5155.701172"/>
     <use xlink:href="#DejaVuSans-2d" x="5219.324219"/>
     <use xlink:href="#DejaVuSans-33" x="5255.408203"/>
     <use xlink:href="#DejaVuSans-31" x="5319.03125"/>
    </g>
   </g>
  </g>
 </g>
 <defs>
  <clipPath id="pc722b4dd36">
   <rect x="144" y="69.12" width="892.8" height="443.52"/>
  </clipPath>
 </defs>
</svg>
