<?xml version="1.0" encoding="utf-8" standalone="no"?>
<!DOCTYPE svg PUBLIC "-//W3C//DTD SVG 1.1//EN"
  "http://www.w3.org/Graphics/SVG/1.1/DTD/svg11.dtd">
<svg xmlns:xlink="http://www.w3.org/1999/xlink" width="1152pt" height="576pt" viewBox="0 0 1152 576" xmlns="http://www.w3.org/2000/svg" version="1.1">
 <metadata>
  <rdf:RDF xmlns:dc="http://purl.org/dc/elements/1.1/" xmlns:cc="http://creativecommons.org/ns#" xmlns:rdf="http://www.w3.org/1999/02/22-rdf-syntax-ns#">
   <cc:Work>
    <dc:type rdf:resource="http://purl.org/dc/dcmitype/StillImage"/>
    <dc:date>2024-02-28T08:33:23.182152</dc:date>
    <dc:format>image/svg+xml</dc:format>
    <dc:creator>
     <cc:Agent>
      <dc:title>Matplotlib v3.8.3, https://matplotlib.org/</dc:title>
     </cc:Agent>
    </dc:creator>
   </cc:Work>
  </rdf:RDF>
 </metadata>
 <defs>
  <style type="text/css">*{stroke-linejoin: round; stroke-linecap: butt}</style>
 </defs>
 <g id="figure_1">
  <g id="patch_1">
   <path d="M 0 576 
L 1152 576 
L 1152 0 
L 0 0 
z
" style="fill: #ffffff"/>
  </g>
  <g id="axes_1">
   <g id="patch_2">
    <path d="M 144 512.64 
L 1036.8 512.64 
L 1036.8 69.12 
L 144 69.12 
z
" style="fill: #ffffff"/>
   </g>
   <g id="PathCollection_1">
    <path d="M 184.581818 496.015534 
C 185.519453 496.015534 186.41881 495.643008 187.081818 494.98 
C 187.744826 494.316992 188.117352 493.417635 188.117352 492.48 
C 188.117352 491.542365 187.744826 490.643008 187.081818 489.98 
C 186.41881 489.316992 185.519453 488.944466 184.581818 488.944466 
C 183.644184 488.944466 182.744826 489.316992 182.081818 489.98 
C 181.41881 490.643008 181.046284 491.542365 181.046284 492.48 
C 181.046284 493.417635 181.41881 494.316992 182.081818 494.98 
C 182.744826 495.643008 183.644184 496.015534 184.581818 496.015534 
z
" clip-path="url(#p36c6aa73ec)" style="fill: #1f77b4; fill-opacity: 0.3; stroke: #1f77b4; stroke-opacity: 0.3"/>
    <path d="M 198.575549 479.441342 
C 200.450818 479.441342 202.249533 478.69629 203.575549 477.370274 
C 204.901564 476.044259 205.646616 474.245543 205.646616 472.370274 
C 205.646616 470.495005 204.901564 468.69629 203.575549 467.370274 
C 202.249533 466.044259 200.450818 465.299207 198.575549 465.299207 
C 196.700279 465.299207 194.901564 466.044259 193.575549 467.370274 
C 192.249533 468.69629 191.504481 470.495005 191.504481 472.370274 
C 191.504481 474.245543 192.249533 476.044259 193.575549 477.370274 
C 194.901564 478.69629 196.700279 479.441342 198.575549 479.441342 
z
" clip-path="url(#p36c6aa73ec)" style="fill: #1f77b4; fill-opacity: 0.3; stroke: #1f77b4; stroke-opacity: 0.3"/>
    <path d="M 212.569279 454.289889 
C 214.707415 454.289889 216.758266 453.440398 218.270156 451.928508 
C 219.782046 450.416618 220.631537 448.365767 220.631537 446.227631 
C 220.631537 444.089495 219.782046 442.038644 218.270156 440.526754 
C 216.758266 439.014864 214.707415 438.165373 212.569279 438.165373 
C 210.431143 438.165373 208.380292 439.014864 206.868402 440.526754 
C 205.356512 442.038644 204.507021 444.089495 204.507021 446.227631 
C 204.507021 448.365767 205.356512 450.416618 206.868402 451.928508 
C 208.380292 453.440398 210.431143 454.289889 212.569279 454.289889 
z
" clip-path="url(#p36c6aa73ec)" style="fill: #1f77b4; fill-opacity: 0.3; stroke: #1f77b4; stroke-opacity: 0.3"/>
    <path d="M 226.563009 446.803283 
C 226.982332 446.803283 227.384537 446.636685 227.681043 446.340179 
C 227.977549 446.043673 228.144148 445.641468 228.144148 445.222145 
C 228.144148 444.802822 227.977549 444.400617 227.681043 444.104111 
C 227.384537 443.807605 226.982332 443.641006 226.563009 443.641006 
C 226.143686 443.641006 225.741481 443.807605 225.444975 444.104111 
C 225.148469 444.400617 224.981871 444.802822 224.981871 445.222145 
C 224.981871 445.641468 225.148469 446.043673 225.444975 446.340179 
C 225.741481 446.636685 226.143686 446.803283 226.563009 446.803283 
z
" clip-path="url(#p36c6aa73ec)" style="fill: #1f77b4; fill-opacity: 0.3; stroke: #1f77b4; stroke-opacity: 0.3"/>
    <path d="M 240.55674 440.167282 
C 241.882755 440.167282 243.154639 439.64045 244.092274 438.702816 
C 245.029908 437.765181 245.55674 436.493297 245.55674 435.167282 
C 245.55674 433.841266 245.029908 432.569382 244.092274 431.631748 
C 243.154639 430.694113 241.882755 430.167282 240.55674 430.167282 
C 239.230724 430.167282 237.95884 430.694113 237.021206 431.631748 
C 236.083571 432.569382 235.55674 433.841266 235.55674 435.167282 
C 235.55674 436.493297 236.083571 437.765181 237.021206 438.702816 
C 237.95884 439.64045 239.230724 440.167282 240.55674 440.167282 
z
" clip-path="url(#p36c6aa73ec)" style="fill: #1f77b4; fill-opacity: 0.3; stroke: #1f77b4; stroke-opacity: 0.3"/>
    <path d="M 268.544201 433.675384 
C 269.481835 433.675384 270.381193 433.302858 271.044201 432.63985 
C 271.707208 431.976843 272.079735 431.077485 272.079735 430.13985 
C 272.079735 429.202216 271.707208 428.302858 271.044201 427.63985 
C 270.381193 426.976843 269.481835 426.604316 268.544201 426.604316 
C 267.606566 426.604316 266.707208 426.976843 266.044201 427.63985 
C 265.381193 428.302858 265.008667 429.202216 265.008667 430.13985 
C 265.008667 431.077485 265.381193 431.976843 266.044201 432.63985 
C 266.707208 433.302858 267.606566 433.675384 268.544201 433.675384 
z
" clip-path="url(#p36c6aa73ec)" style="fill: #1f77b4; fill-opacity: 0.3; stroke: #1f77b4; stroke-opacity: 0.3"/>
    <path d="M 282.537931 429.280183 
C 283.376577 429.280183 284.180987 428.946985 284.773999 428.353973 
C 285.367011 427.760961 285.700209 426.956551 285.700209 426.117905 
C 285.700209 425.279259 285.367011 424.474849 284.773999 423.881837 
C 284.180987 423.288825 283.376577 422.955628 282.537931 422.955628 
C 281.699285 422.955628 280.894875 423.288825 280.301863 423.881837 
C 279.708851 424.474849 279.375653 425.279259 279.375653 426.117905 
C 279.375653 426.956551 279.708851 427.760961 280.301863 428.353973 
C 280.894875 428.946985 281.699285 429.280183 282.537931 429.280183 
z
" clip-path="url(#p36c6aa73ec)" style="fill: #1f77b4; fill-opacity: 0.3; stroke: #1f77b4; stroke-opacity: 0.3"/>
    <path d="M 296.531661 425.840059 
C 297.25795 425.840059 297.95459 425.551502 298.468153 425.037938 
C 298.981717 424.524374 299.270274 423.827735 299.270274 423.101446 
C 299.270274 422.375158 298.981717 421.678518 298.468153 421.164955 
C 297.95459 420.651391 297.25795 420.362834 296.531661 420.362834 
C 295.805373 420.362834 295.108733 420.651391 294.59517 421.164955 
C 294.081606 421.678518 293.793049 422.375158 293.793049 423.101446 
C 293.793049 423.827735 294.081606 424.524374 294.59517 425.037938 
C 295.108733 425.551502 295.805373 425.840059 296.531661 425.840059 
z
" clip-path="url(#p36c6aa73ec)" style="fill: #1f77b4; fill-opacity: 0.3; stroke: #1f77b4; stroke-opacity: 0.3"/>
    <path d="M 310.525392 422.241779 
C 311.364038 422.241779 312.168448 421.908581 312.76146 421.315569 
C 313.354472 420.722557 313.68767 419.918147 313.68767 419.079501 
C 313.68767 418.240855 313.354472 417.436445 312.76146 416.843433 
C 312.168448 416.250421 311.364038 415.917224 310.525392 415.917224 
C 309.686746 415.917224 308.882336 416.250421 308.289324 416.843433 
C 307.696312 417.436445 307.363114 418.240855 307.363114 419.079501 
C 307.363114 419.918147 307.696312 420.722557 308.289324 421.315569 
C 308.882336 421.908581 309.686746 422.241779 310.525392 422.241779 
z
" clip-path="url(#p36c6aa73ec)" style="fill: #1f77b4; fill-opacity: 0.3; stroke: #1f77b4; stroke-opacity: 0.3"/>
    <path d="M 324.519122 416.919567 
C 325.546249 416.919567 326.531446 416.511485 327.257735 415.785196 
C 327.984024 415.058908 328.392106 414.073711 328.392106 413.046584 
C 328.392106 412.019456 327.984024 411.034259 327.257735 410.307971 
C 326.531446 409.581682 325.546249 409.1736 324.519122 409.1736 
C 323.491995 409.1736 322.506798 409.581682 321.780509 410.307971 
C 321.054221 411.034259 320.646139 412.019456 320.646139 413.046584 
C 320.646139 414.073711 321.054221 415.058908 321.780509 415.785196 
C 322.506798 416.511485 323.491995 416.919567 324.519122 416.919567 
z
" clip-path="url(#p36c6aa73ec)" style="fill: #1f77b4; fill-opacity: 0.3; stroke: #1f77b4; stroke-opacity: 0.3"/>
    <path d="M 338.512853 403.283358 
C 340.190144 403.283358 341.798964 402.616963 342.984989 401.430939 
C 344.171013 400.244915 344.837408 398.636095 344.837408 396.958803 
C 344.837408 395.281511 344.171013 393.672691 342.984989 392.486667 
C 341.798964 391.300643 340.190144 390.634248 338.512853 390.634248 
C 336.835561 390.634248 335.226741 391.300643 334.040717 392.486667 
C 332.854692 393.672691 332.188297 395.281511 332.188297 396.958803 
C 332.188297 398.636095 332.854692 400.244915 334.040717 401.430939 
C 335.226741 402.616963 336.835561 403.283358 338.512853 403.283358 
z
" clip-path="url(#p36c6aa73ec)" style="fill: #1f77b4; fill-opacity: 0.3; stroke: #1f77b4; stroke-opacity: 0.3"/>
    <path d="M 352.506583 396.680957 
C 353.232872 396.680957 353.929511 396.392399 354.443075 395.878836 
C 354.956638 395.365272 355.245196 394.668633 355.245196 393.942344 
C 355.245196 393.216056 354.956638 392.519416 354.443075 392.005852 
C 353.929511 391.492289 353.232872 391.203731 352.506583 391.203731 
C 351.780294 391.203731 351.083655 391.492289 350.570091 392.005852 
C 350.056528 392.519416 349.76797 393.216056 349.76797 393.942344 
C 349.76797 394.668633 350.056528 395.365272 350.570091 395.878836 
C 351.083655 396.392399 351.780294 396.680957 352.506583 396.680957 
z
" clip-path="url(#p36c6aa73ec)" style="fill: #1f77b4; fill-opacity: 0.3; stroke: #1f77b4; stroke-opacity: 0.3"/>
    <path d="M 366.500313 393.664498 
C 367.226602 393.664498 367.923242 393.375941 368.436805 392.862377 
C 368.950369 392.348813 369.238926 391.652174 369.238926 390.925885 
C 369.238926 390.199597 368.950369 389.502957 368.436805 388.989394 
C 367.923242 388.47583 367.226602 388.187272 366.500313 388.187272 
C 365.774025 388.187272 365.077385 388.47583 364.563822 388.989394 
C 364.050258 389.502957 363.761701 390.199597 363.761701 390.925885 
C 363.761701 391.652174 364.050258 392.348813 364.563822 392.862377 
C 365.077385 393.375941 365.774025 393.664498 366.500313 393.664498 
z
" clip-path="url(#p36c6aa73ec)" style="fill: #1f77b4; fill-opacity: 0.3; stroke: #1f77b4; stroke-opacity: 0.3"/>
    <path d="M 380.494044 381.967315 
C 382.118075 381.967315 383.675808 381.322081 384.824171 380.173718 
C 385.972534 379.025355 386.617768 377.467622 386.617768 375.843591 
C 386.617768 374.21956 385.972534 372.661827 384.824171 371.513464 
C 383.675808 370.365101 382.118075 369.719867 380.494044 369.719867 
C 378.870013 369.719867 377.31228 370.365101 376.163917 371.513464 
C 375.015554 372.661827 374.37032 374.21956 374.37032 375.843591 
C 374.37032 377.467622 375.015554 379.025355 376.163917 380.173718 
C 377.31228 381.322081 378.870013 381.967315 380.494044 381.967315 
z
" clip-path="url(#p36c6aa73ec)" style="fill: #1f77b4; fill-opacity: 0.3; stroke: #1f77b4; stroke-opacity: 0.3"/>
    <path d="M 394.487774 374.983924 
C 395.32642 374.983924 396.13083 374.650726 396.723842 374.057714 
C 397.316854 373.464702 397.650052 372.660292 397.650052 371.821646 
C 397.650052 370.983 397.316854 370.17859 396.723842 369.585578 
C 396.13083 368.992566 395.32642 368.659368 394.487774 368.659368 
C 393.649128 368.659368 392.844718 368.992566 392.251706 369.585578 
C 391.658694 370.17859 391.325497 370.983 391.325497 371.821646 
C 391.325497 372.660292 391.658694 373.464702 392.251706 374.057714 
C 392.844718 374.650726 393.649128 374.983924 394.487774 374.983924 
z
" clip-path="url(#p36c6aa73ec)" style="fill: #1f77b4; fill-opacity: 0.3; stroke: #1f77b4; stroke-opacity: 0.3"/>
    <path d="M 408.481505 365.233036 
C 409.934082 365.233036 411.327361 364.655921 412.354488 363.628794 
C 413.381615 362.601667 413.95873 361.208388 413.95873 359.75581 
C 413.95873 358.303233 413.381615 356.909954 412.354488 355.882827 
C 411.327361 354.8557 409.934082 354.278585 408.481505 354.278585 
C 407.028928 354.278585 405.635649 354.8557 404.608521 355.882827 
C 403.581394 356.909954 403.004279 358.303233 403.004279 359.75581 
C 403.004279 361.208388 403.581394 362.601667 404.608521 363.628794 
C 405.635649 364.655921 407.028928 365.233036 408.481505 365.233036 
z
" clip-path="url(#p36c6aa73ec)" style="fill: #1f77b4; fill-opacity: 0.3; stroke: #1f77b4; stroke-opacity: 0.3"/>
    <path d="M 422.475235 358.263913 
C 423.41287 358.263913 424.312227 357.891387 424.975235 357.228379 
C 425.638243 356.565371 426.010769 355.666014 426.010769 354.728379 
C 426.010769 353.790745 425.638243 352.891387 424.975235 352.228379 
C 424.312227 351.565371 423.41287 351.192845 422.475235 351.192845 
C 421.537601 351.192845 420.638243 351.565371 419.975235 352.228379 
C 419.312227 352.891387 418.939701 353.790745 418.939701 354.728379 
C 418.939701 355.666014 419.312227 356.565371 419.975235 357.228379 
C 420.638243 357.891387 421.537601 358.263913 422.475235 358.263913 
z
" clip-path="url(#p36c6aa73ec)" style="fill: #1f77b4; fill-opacity: 0.3; stroke: #1f77b4; stroke-opacity: 0.3"/>
    <path d="M 436.468966 352.568445 
C 437.496093 352.568445 438.48129 352.160363 439.207578 351.434074 
C 439.933867 350.707786 440.341949 349.722589 440.341949 348.695461 
C 440.341949 347.668334 439.933867 346.683137 439.207578 345.956849 
C 438.48129 345.23056 437.496093 344.822478 436.468966 344.822478 
C 435.441838 344.822478 434.456641 345.23056 433.730353 345.956849 
C 433.004064 346.683137 432.595982 347.668334 432.595982 348.695461 
C 432.595982 349.722589 433.004064 350.707786 433.730353 351.434074 
C 434.456641 352.160363 435.441838 352.568445 436.468966 352.568445 
z
" clip-path="url(#p36c6aa73ec)" style="fill: #1f77b4; fill-opacity: 0.3; stroke: #1f77b4; stroke-opacity: 0.3"/>
    <path d="M 450.462696 348.417615 
C 451.188985 348.417615 451.885624 348.129058 452.399188 347.615494 
C 452.912751 347.101931 453.201309 346.405291 453.201309 345.679002 
C 453.201309 344.952714 452.912751 344.256074 452.399188 343.742511 
C 451.885624 343.228947 451.188985 342.94039 450.462696 342.94039 
C 449.736407 342.94039 449.039768 343.228947 448.526204 343.742511 
C 448.012641 344.256074 447.724083 344.952714 447.724083 345.679002 
C 447.724083 346.405291 448.012641 347.101931 448.526204 347.615494 
C 449.039768 348.129058 449.736407 348.417615 450.462696 348.417615 
z
" clip-path="url(#p36c6aa73ec)" style="fill: #1f77b4; fill-opacity: 0.3; stroke: #1f77b4; stroke-opacity: 0.3"/>
    <path d="M 464.456426 345.401156 
C 465.182715 345.401156 465.879354 345.112599 466.392918 344.599035 
C 466.906482 344.085472 467.195039 343.388832 467.195039 342.662544 
C 467.195039 341.936255 466.906482 341.239616 466.392918 340.726052 
C 465.879354 340.212488 465.182715 339.923931 464.456426 339.923931 
C 463.730138 339.923931 463.033498 340.212488 462.519935 340.726052 
C 462.006371 341.239616 461.717814 341.936255 461.717814 342.662544 
C 461.717814 343.388832 462.006371 344.085472 462.519935 344.599035 
C 463.033498 345.112599 463.730138 345.401156 464.456426 345.401156 
z
" clip-path="url(#p36c6aa73ec)" style="fill: #1f77b4; fill-opacity: 0.3; stroke: #1f77b4; stroke-opacity: 0.3"/>
    <path d="M 478.450157 341.170646 
C 479.387791 341.170646 480.287149 340.79812 480.950157 340.135112 
C 481.613164 339.472104 481.985691 338.572747 481.985691 337.635112 
C 481.985691 336.697478 481.613164 335.79812 480.950157 335.135112 
C 480.287149 334.472104 479.387791 334.099578 478.450157 334.099578 
C 477.512522 334.099578 476.613164 334.472104 475.950157 335.135112 
C 475.287149 335.79812 474.914623 336.697478 474.914623 337.635112 
C 474.914623 338.572747 475.287149 339.472104 475.950157 340.135112 
C 476.613164 340.79812 477.512522 341.170646 478.450157 341.170646 
z
" clip-path="url(#p36c6aa73ec)" style="fill: #1f77b4; fill-opacity: 0.3; stroke: #1f77b4; stroke-opacity: 0.3"/>
    <path d="M 492.443887 336.143215 
C 493.381522 336.143215 494.280879 335.770689 494.943887 335.107681 
C 495.606895 334.444673 495.979421 333.545315 495.979421 332.607681 
C 495.979421 331.670046 495.606895 330.770689 494.943887 330.107681 
C 494.280879 329.444673 493.381522 329.072147 492.443887 329.072147 
C 491.506253 329.072147 490.606895 329.444673 489.943887 330.107681 
C 489.280879 330.770689 488.908353 331.670046 488.908353 332.607681 
C 488.908353 333.545315 489.280879 334.444673 489.943887 335.107681 
C 490.606895 335.770689 491.506253 336.143215 492.443887 336.143215 
z
" clip-path="url(#p36c6aa73ec)" style="fill: #1f77b4; fill-opacity: 0.3; stroke: #1f77b4; stroke-opacity: 0.3"/>
    <path d="M 506.437618 331.748013 
C 507.276263 331.748013 508.080673 331.414816 508.673686 330.821804 
C 509.266698 330.228791 509.599895 329.424381 509.599895 328.585736 
C 509.599895 327.74709 509.266698 326.94268 508.673686 326.349668 
C 508.080673 325.756656 507.276263 325.423458 506.437618 325.423458 
C 505.598972 325.423458 504.794562 325.756656 504.20155 326.349668 
C 503.608537 326.94268 503.27534 327.74709 503.27534 328.585736 
C 503.27534 329.424381 503.608537 330.228791 504.20155 330.821804 
C 504.794562 331.414816 505.598972 331.748013 506.437618 331.748013 
z
" clip-path="url(#p36c6aa73ec)" style="fill: #1f77b4; fill-opacity: 0.3; stroke: #1f77b4; stroke-opacity: 0.3"/>
    <path d="M 520.431348 328.810831 
C 521.02436 328.810831 521.593164 328.575225 522.012487 328.155902 
C 522.43181 327.736579 522.667416 327.167775 522.667416 326.574763 
C 522.667416 325.981751 522.43181 325.412947 522.012487 324.993624 
C 521.593164 324.574301 521.02436 324.338695 520.431348 324.338695 
C 519.838336 324.338695 519.269532 324.574301 518.850209 324.993624 
C 518.430886 325.412947 518.19528 325.981751 518.19528 326.574763 
C 518.19528 327.167775 518.430886 327.736579 518.850209 328.155902 
C 519.269532 328.575225 519.838336 328.810831 520.431348 328.810831 
z
" clip-path="url(#p36c6aa73ec)" style="fill: #1f77b4; fill-opacity: 0.3; stroke: #1f77b4; stroke-opacity: 0.3"/>
    <path d="M 534.425078 323.719659 
C 535.534503 323.719659 536.598637 323.27888 537.383118 322.494399 
C 538.1676 321.709918 538.608379 320.645783 538.608379 319.536359 
C 538.608379 318.426935 538.1676 317.362801 537.383118 316.578319 
C 536.598637 315.793838 535.534503 315.353059 534.425078 315.353059 
C 533.315654 315.353059 532.25152 315.793838 531.467038 316.578319 
C 530.682557 317.362801 530.241778 318.426935 530.241778 319.536359 
C 530.241778 320.645783 530.682557 321.709918 531.467038 322.494399 
C 532.25152 323.27888 533.315654 323.719659 534.425078 323.719659 
z
" clip-path="url(#p36c6aa73ec)" style="fill: #1f77b4; fill-opacity: 0.3; stroke: #1f77b4; stroke-opacity: 0.3"/>
    <path d="M 548.418809 319.761455 
C 549.011821 319.761455 549.580625 319.525848 549.999948 319.106525 
C 550.419271 318.687202 550.654877 318.118399 550.654877 317.525387 
C 550.654877 316.932374 550.419271 316.363571 549.999948 315.944248 
C 549.580625 315.524925 549.011821 315.289319 548.418809 315.289319 
C 547.825797 315.289319 547.256993 315.524925 546.83767 315.944248 
C 546.418347 316.363571 546.182741 316.932374 546.182741 317.525387 
C 546.182741 318.118399 546.418347 318.687202 546.83767 319.106525 
C 547.256993 319.525848 547.825797 319.761455 548.418809 319.761455 
z
" clip-path="url(#p36c6aa73ec)" style="fill: #1f77b4; fill-opacity: 0.3; stroke: #1f77b4; stroke-opacity: 0.3"/>
    <path d="M 576.40627 312.470524 
C 577.732285 312.470524 579.004169 311.943692 579.941803 311.006058 
C 580.879438 310.068423 581.40627 308.796539 581.40627 307.470524 
C 581.40627 306.144508 580.879438 304.872624 579.941803 303.93499 
C 579.004169 302.997355 577.732285 302.470524 576.40627 302.470524 
C 575.080254 302.470524 573.80837 302.997355 572.870736 303.93499 
C 571.933101 304.872624 571.40627 306.144508 571.40627 307.470524 
C 571.40627 308.796539 571.933101 310.068423 572.870736 311.006058 
C 573.80837 311.943692 575.080254 312.470524 576.40627 312.470524 
z
" clip-path="url(#p36c6aa73ec)" style="fill: #1f77b4; fill-opacity: 0.3; stroke: #1f77b4; stroke-opacity: 0.3"/>
    <path d="M 590.4 308.046176 
C 590.819323 308.046176 591.221528 307.879577 591.518034 307.583071 
C 591.81454 307.286565 591.981139 306.88436 591.981139 306.465037 
C 591.981139 306.045714 591.81454 305.643509 591.518034 305.347003 
C 591.221528 305.050497 590.819323 304.883899 590.4 304.883899 
C 589.980677 304.883899 589.578472 305.050497 589.281966 305.347003 
C 588.98546 305.643509 588.818861 306.045714 588.818861 306.465037 
C 588.818861 306.88436 588.98546 307.286565 589.281966 307.583071 
C 589.578472 307.879577 589.980677 308.046176 590.4 308.046176 
z
" clip-path="url(#p36c6aa73ec)" style="fill: #1f77b4; fill-opacity: 0.3; stroke: #1f77b4; stroke-opacity: 0.3"/>
    <path d="M 604.39373 304.305103 
C 605.420858 304.305103 606.406055 303.897021 607.132343 303.170732 
C 607.858632 302.444444 608.266714 301.459247 608.266714 300.43212 
C 608.266714 299.404993 607.858632 298.419796 607.132343 297.693507 
C 606.406055 296.967218 605.420858 296.559136 604.39373 296.559136 
C 603.366603 296.559136 602.381406 296.967218 601.655118 297.693507 
C 600.928829 298.419796 600.520747 299.404993 600.520747 300.43212 
C 600.520747 301.459247 600.928829 302.444444 601.655118 303.170732 
C 602.381406 303.897021 603.366603 304.305103 604.39373 304.305103 
z
" clip-path="url(#p36c6aa73ec)" style="fill: #1f77b4; fill-opacity: 0.3; stroke: #1f77b4; stroke-opacity: 0.3"/>
    <path d="M 618.387461 291.47355 
C 620.011491 291.47355 621.569225 290.828316 622.717588 289.679952 
C 623.865951 288.531589 624.511185 286.973856 624.511185 285.349825 
C 624.511185 283.725795 623.865951 282.168062 622.717588 281.019698 
C 621.569225 279.871335 620.011491 279.226101 618.387461 279.226101 
C 616.76343 279.226101 615.205697 279.871335 614.057334 281.019698 
C 612.908971 282.168062 612.263736 283.725795 612.263736 285.349825 
C 612.263736 286.973856 612.908971 288.531589 614.057334 289.679952 
C 615.205697 290.828316 616.76343 291.47355 618.387461 291.47355 
z
" clip-path="url(#p36c6aa73ec)" style="fill: #1f77b4; fill-opacity: 0.3; stroke: #1f77b4; stroke-opacity: 0.3"/>
    <path d="M 632.381191 276.391256 
C 634.005222 276.391256 635.562955 275.746021 636.711318 274.597658 
C 637.859681 273.449295 638.504916 271.891562 638.504916 270.267531 
C 638.504916 268.6435 637.859681 267.085767 636.711318 265.937404 
C 635.562955 264.789041 634.005222 264.143807 632.381191 264.143807 
C 630.757161 264.143807 629.199427 264.789041 628.051064 265.937404 
C 626.902701 267.085767 626.257467 268.6435 626.257467 270.267531 
C 626.257467 271.891562 626.902701 273.449295 628.051064 274.597658 
C 629.199427 275.746021 630.757161 276.391256 632.381191 276.391256 
z
" clip-path="url(#p36c6aa73ec)" style="fill: #1f77b4; fill-opacity: 0.3; stroke: #1f77b4; stroke-opacity: 0.3"/>
    <path d="M 646.374922 269.989685 
C 647.10121 269.989685 647.79785 269.701128 648.311413 269.187564 
C 648.824977 268.674 649.113534 267.977361 649.113534 267.251072 
C 649.113534 266.524784 648.824977 265.828144 648.311413 265.314581 
C 647.79785 264.801017 647.10121 264.51246 646.374922 264.51246 
C 645.648633 264.51246 644.951994 264.801017 644.43843 265.314581 
C 643.924866 265.828144 643.636309 266.524784 643.636309 267.251072 
C 643.636309 267.977361 643.924866 268.674 644.43843 269.187564 
C 644.951994 269.701128 645.648633 269.989685 646.374922 269.989685 
z
" clip-path="url(#p36c6aa73ec)" style="fill: #1f77b4; fill-opacity: 0.3; stroke: #1f77b4; stroke-opacity: 0.3"/>
    <path d="M 674.362382 266.391405 
C 675.201028 266.391405 676.005438 266.058207 676.59845 265.465195 
C 677.191463 264.872183 677.52466 264.067773 677.52466 263.229127 
C 677.52466 262.390481 677.191463 261.586071 676.59845 260.993059 
C 676.005438 260.400047 675.201028 260.06685 674.362382 260.06685 
C 673.523737 260.06685 672.719327 260.400047 672.126314 260.993059 
C 671.533302 261.586071 671.200105 262.390481 671.200105 263.229127 
C 671.200105 264.067773 671.533302 264.872183 672.126314 265.465195 
C 672.719327 266.058207 673.523737 266.391405 674.362382 266.391405 
z
" clip-path="url(#p36c6aa73ec)" style="fill: #1f77b4; fill-opacity: 0.3; stroke: #1f77b4; stroke-opacity: 0.3"/>
    <path d="M 688.356113 252.655063 
C 690.085026 252.655063 691.743359 251.968158 692.965885 250.745633 
C 694.188411 249.523107 694.875315 247.864773 694.875315 246.13586 
C 694.875315 244.406948 694.188411 242.748614 692.965885 241.526088 
C 691.743359 240.303562 690.085026 239.616658 688.356113 239.616658 
C 686.6272 239.616658 684.968867 240.303562 683.746341 241.526088 
C 682.523815 242.748614 681.83691 244.406948 681.83691 246.13586 
C 681.83691 247.864773 682.523815 249.523107 683.746341 250.745633 
C 684.968867 251.968158 686.6272 252.655063 688.356113 252.655063 
z
" clip-path="url(#p36c6aa73ec)" style="fill: #1f77b4; fill-opacity: 0.3; stroke: #1f77b4; stroke-opacity: 0.3"/>
    <path d="M 702.349843 246.711513 
C 702.769166 246.711513 703.171371 246.544914 703.467877 246.248408 
C 703.764383 245.951902 703.930982 245.549697 703.930982 245.130374 
C 703.930982 244.711051 703.764383 244.308846 703.467877 244.01234 
C 703.171371 243.715834 702.769166 243.549235 702.349843 243.549235 
C 701.93052 243.549235 701.528315 243.715834 701.231809 244.01234 
C 700.935303 244.308846 700.768704 244.711051 700.768704 245.130374 
C 700.768704 245.549697 700.935303 245.951902 701.231809 246.248408 
C 701.528315 246.544914 701.93052 246.711513 702.349843 246.711513 
z
" clip-path="url(#p36c6aa73ec)" style="fill: #1f77b4; fill-opacity: 0.3; stroke: #1f77b4; stroke-opacity: 0.3"/>
    <path d="M 716.343574 244.270707 
C 717.18222 244.270707 717.986629 243.937509 718.579642 243.344497 
C 719.172654 242.751485 719.505851 241.947075 719.505851 241.108429 
C 719.505851 240.269783 719.172654 239.465373 718.579642 238.872361 
C 717.986629 238.279349 717.18222 237.946151 716.343574 237.946151 
C 715.504928 237.946151 714.700518 238.279349 714.107506 238.872361 
C 713.514494 239.465373 713.181296 240.269783 713.181296 241.108429 
C 713.181296 241.947075 713.514494 242.751485 714.107506 243.344497 
C 714.700518 243.937509 715.504928 244.270707 716.343574 244.270707 
z
" clip-path="url(#p36c6aa73ec)" style="fill: #1f77b4; fill-opacity: 0.3; stroke: #1f77b4; stroke-opacity: 0.3"/>
    <path d="M 730.337304 240.830583 
C 731.063593 240.830583 731.760232 240.542025 732.273796 240.028462 
C 732.787359 239.514898 733.075917 238.818259 733.075917 238.09197 
C 733.075917 237.365681 732.787359 236.669042 732.273796 236.155478 
C 731.760232 235.641915 731.063593 235.353357 730.337304 235.353357 
C 729.611015 235.353357 728.914376 235.641915 728.400812 236.155478 
C 727.887249 236.669042 727.598691 237.365681 727.598691 238.09197 
C 727.598691 238.818259 727.887249 239.514898 728.400812 240.028462 
C 728.914376 240.542025 729.611015 240.830583 730.337304 240.830583 
z
" clip-path="url(#p36c6aa73ec)" style="fill: #1f77b4; fill-opacity: 0.3; stroke: #1f77b4; stroke-opacity: 0.3"/>
    <path d="M 744.331034 237.814124 
C 745.057323 237.814124 745.753963 237.525566 746.267526 237.012003 
C 746.78109 236.498439 747.069647 235.8018 747.069647 235.075511 
C 747.069647 234.349223 746.78109 233.652583 746.267526 233.13902 
C 745.753963 232.625456 745.057323 232.336898 744.331034 232.336898 
C 743.604746 232.336898 742.908106 232.625456 742.394543 233.13902 
C 741.880979 233.652583 741.592422 234.349223 741.592422 235.075511 
C 741.592422 235.8018 741.880979 236.498439 742.394543 237.012003 
C 742.908106 237.525566 743.604746 237.814124 744.331034 237.814124 
z
" clip-path="url(#p36c6aa73ec)" style="fill: #1f77b4; fill-opacity: 0.3; stroke: #1f77b4; stroke-opacity: 0.3"/>
    <path d="M 758.324765 223.684962 
C 760.103801 223.684962 761.810213 222.978143 763.068181 221.720175 
C 764.32615 220.462206 765.032969 218.755795 765.032969 216.976758 
C 765.032969 215.197722 764.32615 213.49131 763.068181 212.233342 
C 761.810213 210.975373 760.103801 210.268554 758.324765 210.268554 
C 756.545728 210.268554 754.839317 210.975373 753.581348 212.233342 
C 752.32338 213.49131 751.616561 215.197722 751.616561 216.976758 
C 751.616561 218.755795 752.32338 220.462206 753.581348 221.720175 
C 754.839317 222.978143 756.545728 223.684962 758.324765 223.684962 
z
" clip-path="url(#p36c6aa73ec)" style="fill: #1f77b4; fill-opacity: 0.3; stroke: #1f77b4; stroke-opacity: 0.3"/>
    <path d="M 772.318495 216.698912 
C 773.044784 216.698912 773.741423 216.410355 774.254987 215.896791 
C 774.768551 215.383227 775.057108 214.686588 775.057108 213.960299 
C 775.057108 213.234011 774.768551 212.537371 774.254987 212.023808 
C 773.741423 211.510244 773.044784 211.221686 772.318495 211.221686 
C 771.592207 211.221686 770.895567 211.510244 770.382004 212.023808 
C 769.86844 212.537371 769.579883 213.234011 769.579883 213.960299 
C 769.579883 214.686588 769.86844 215.383227 770.382004 215.896791 
C 770.895567 216.410355 771.592207 216.698912 772.318495 216.698912 
z
" clip-path="url(#p36c6aa73ec)" style="fill: #1f77b4; fill-opacity: 0.3; stroke: #1f77b4; stroke-opacity: 0.3"/>
    <path d="M 786.312226 212.468402 
C 787.24986 212.468402 788.149218 212.095876 788.812226 211.432868 
C 789.475233 210.76986 789.84776 209.870502 789.84776 208.932868 
C 789.84776 207.995233 789.475233 207.095876 788.812226 206.432868 
C 788.149218 205.76986 787.24986 205.397334 786.312226 205.397334 
C 785.374591 205.397334 784.475233 205.76986 783.812226 206.432868 
C 783.149218 207.095876 782.776692 207.995233 782.776692 208.932868 
C 782.776692 209.870502 783.149218 210.76986 783.812226 211.432868 
C 784.475233 212.095876 785.374591 212.468402 786.312226 212.468402 
z
" clip-path="url(#p36c6aa73ec)" style="fill: #1f77b4; fill-opacity: 0.3; stroke: #1f77b4; stroke-opacity: 0.3"/>
    <path d="M 800.305956 208.0732 
C 801.144602 208.0732 801.949012 207.740003 802.542024 207.146991 
C 803.135036 206.553979 803.468234 205.749569 803.468234 204.910923 
C 803.468234 204.072277 803.135036 203.267867 802.542024 202.674855 
C 801.949012 202.081843 801.144602 201.748645 800.305956 201.748645 
C 799.46731 201.748645 798.6629 202.081843 798.069888 202.674855 
C 797.476876 203.267867 797.143678 204.072277 797.143678 204.910923 
C 797.143678 205.749569 797.476876 206.553979 798.069888 207.146991 
C 798.6629 207.740003 799.46731 208.0732 800.305956 208.0732 
z
" clip-path="url(#p36c6aa73ec)" style="fill: #1f77b4; fill-opacity: 0.3; stroke: #1f77b4; stroke-opacity: 0.3"/>
    <path d="M 814.299687 202.055819 
C 815.409111 202.055819 816.473245 201.61504 817.257726 200.830559 
C 818.042208 200.046077 818.482987 198.981943 818.482987 197.872519 
C 818.482987 196.763095 818.042208 195.69896 817.257726 194.914479 
C 816.473245 194.129997 815.409111 193.689219 814.299687 193.689219 
C 813.190262 193.689219 812.126128 194.129997 811.341647 194.914479 
C 810.557165 195.69896 810.116386 196.763095 810.116386 197.872519 
C 810.116386 198.981943 810.557165 200.046077 811.341647 200.830559 
C 812.126128 201.61504 813.190262 202.055819 814.299687 202.055819 
z
" clip-path="url(#p36c6aa73ec)" style="fill: #1f77b4; fill-opacity: 0.3; stroke: #1f77b4; stroke-opacity: 0.3"/>
    <path d="M 828.293417 184.833861 
C 830.168686 184.833861 831.967401 184.088809 833.293417 182.762793 
C 834.619432 181.436778 835.364485 179.638062 835.364485 177.762793 
C 835.364485 175.887524 834.619432 174.088809 833.293417 172.762793 
C 831.967401 171.436778 830.168686 170.691725 828.293417 170.691725 
C 826.418148 170.691725 824.619432 171.436778 823.293417 172.762793 
C 821.967401 174.088809 821.222349 175.887524 821.222349 177.762793 
C 821.222349 179.638062 821.967401 181.436778 823.293417 182.762793 
C 824.619432 184.088809 826.418148 184.833861 828.293417 184.833861 
z
" clip-path="url(#p36c6aa73ec)" style="fill: #1f77b4; fill-opacity: 0.3; stroke: #1f77b4; stroke-opacity: 0.3"/>
    <path d="M 842.287147 176.270896 
C 843.224782 176.270896 844.12414 175.898369 844.787147 175.235362 
C 845.450155 174.572354 845.822681 173.672996 845.822681 172.735362 
C 845.822681 171.797727 845.450155 170.898369 844.787147 170.235362 
C 844.12414 169.572354 843.224782 169.199828 842.287147 169.199828 
C 841.349513 169.199828 840.450155 169.572354 839.787147 170.235362 
C 839.12414 170.898369 838.751613 171.797727 838.751613 172.735362 
C 838.751613 173.672996 839.12414 174.572354 839.787147 175.235362 
C 840.450155 175.898369 841.349513 176.270896 842.287147 176.270896 
z
" clip-path="url(#p36c6aa73ec)" style="fill: #1f77b4; fill-opacity: 0.3; stroke: #1f77b4; stroke-opacity: 0.3"/>
    <path d="M 856.280878 172.457516 
C 857.007166 172.457516 857.703806 172.168958 858.217369 171.655394 
C 858.730933 171.141831 859.019491 170.445191 859.019491 169.718903 
C 859.019491 168.992614 858.730933 168.295975 858.217369 167.782411 
C 857.703806 167.268847 857.007166 166.98029 856.280878 166.98029 
C 855.554589 166.98029 854.85795 167.268847 854.344386 167.782411 
C 853.830822 168.295975 853.542265 168.992614 853.542265 169.718903 
C 853.542265 170.445191 853.830822 171.141831 854.344386 171.655394 
C 854.85795 172.168958 855.554589 172.457516 856.280878 172.457516 
z
" clip-path="url(#p36c6aa73ec)" style="fill: #1f77b4; fill-opacity: 0.3; stroke: #1f77b4; stroke-opacity: 0.3"/>
    <path d="M 870.274608 164.66404 
C 871.600624 164.66404 872.872508 164.137208 873.810142 163.199574 
C 874.747777 162.261939 875.274608 160.990055 875.274608 159.66404 
C 875.274608 158.338024 874.747777 157.066141 873.810142 156.128506 
C 872.872508 155.190871 871.600624 154.66404 870.274608 154.66404 
C 868.948593 154.66404 867.676709 155.190871 866.739074 156.128506 
C 865.80144 157.066141 865.274608 158.338024 865.274608 159.66404 
C 865.274608 160.990055 865.80144 162.261939 866.739074 163.199574 
C 867.676709 164.137208 868.948593 164.66404 870.274608 164.66404 
z
" clip-path="url(#p36c6aa73ec)" style="fill: #1f77b4; fill-opacity: 0.3; stroke: #1f77b4; stroke-opacity: 0.3"/>
    <path d="M 884.268339 158.804372 
C 885.106984 158.804372 885.911394 158.471175 886.504407 157.878163 
C 887.097419 157.285151 887.430616 156.480741 887.430616 155.642095 
C 887.430616 154.803449 887.097419 153.999039 886.504407 153.406027 
C 885.911394 152.813015 885.106984 152.479817 884.268339 152.479817 
C 883.429693 152.479817 882.625283 152.813015 882.032271 153.406027 
C 881.439258 153.999039 881.106061 154.803449 881.106061 155.642095 
C 881.106061 156.480741 881.439258 157.285151 882.032271 157.878163 
C 882.625283 158.471175 883.429693 158.804372 884.268339 158.804372 
z
" clip-path="url(#p36c6aa73ec)" style="fill: #1f77b4; fill-opacity: 0.3; stroke: #1f77b4; stroke-opacity: 0.3"/>
    <path d="M 898.262069 156.217747 
C 898.681392 156.217747 899.083597 156.051149 899.380103 155.754642 
C 899.676609 155.458136 899.843208 155.055931 899.843208 154.636608 
C 899.843208 154.217286 899.676609 153.815081 899.380103 153.518574 
C 899.083597 153.222068 898.681392 153.05547 898.262069 153.05547 
C 897.842746 153.05547 897.440541 153.222068 897.144035 153.518574 
C 896.847529 153.815081 896.68093 154.217286 896.68093 154.636608 
C 896.68093 155.055931 896.847529 155.458136 897.144035 155.754642 
C 897.440541 156.051149 897.842746 156.217747 898.262069 156.217747 
z
" clip-path="url(#p36c6aa73ec)" style="fill: #1f77b4; fill-opacity: 0.3; stroke: #1f77b4; stroke-opacity: 0.3"/>
    <path d="M 912.255799 136.556223 
C 914.393935 136.556223 916.444786 135.706732 917.956676 134.194842 
C 919.468567 132.682952 920.318057 130.632101 920.318057 128.493965 
C 920.318057 126.355829 919.468567 124.304978 917.956676 122.793088 
C 916.444786 121.281198 914.393935 120.431707 912.255799 120.431707 
C 910.117664 120.431707 908.066813 121.281198 906.554922 122.793088 
C 905.043032 124.304978 904.193542 126.355829 904.193542 128.493965 
C 904.193542 130.632101 905.043032 132.682952 906.554922 134.194842 
C 908.066813 135.706732 910.117664 136.556223 912.255799 136.556223 
z
" clip-path="url(#p36c6aa73ec)" style="fill: #1f77b4; fill-opacity: 0.3; stroke: #1f77b4; stroke-opacity: 0.3"/>
    <path d="M 926.24953 127.002068 
C 927.187164 127.002068 928.086522 126.629541 928.74953 125.966534 
C 929.412538 125.303526 929.785064 124.404168 929.785064 123.466534 
C 929.785064 122.528899 929.412538 121.629541 928.74953 120.966534 
C 928.086522 120.303526 927.187164 119.931 926.24953 119.931 
C 925.311895 119.931 924.412538 120.303526 923.74953 120.966534 
C 923.086522 121.629541 922.713996 122.528899 922.713996 123.466534 
C 922.713996 124.404168 923.086522 125.303526 923.74953 125.966534 
C 924.412538 126.629541 925.311895 127.002068 926.24953 127.002068 
z
" clip-path="url(#p36c6aa73ec)" style="fill: #1f77b4; fill-opacity: 0.3; stroke: #1f77b4; stroke-opacity: 0.3"/>
    <path d="M 940.24326 119.160574 
C 941.501229 119.160574 942.707844 118.660777 943.597362 117.771259 
C 944.48688 116.881741 944.986677 115.675126 944.986677 114.417157 
C 944.986677 113.159188 944.48688 111.952573 943.597362 111.063055 
C 942.707844 110.173537 941.501229 109.673741 940.24326 109.673741 
C 938.985291 109.673741 937.778676 110.173537 936.889158 111.063055 
C 935.99964 111.952573 935.499844 113.159188 935.499844 114.417157 
C 935.499844 115.675126 935.99964 116.881741 936.889158 117.771259 
C 937.778676 118.660777 938.985291 119.160574 940.24326 119.160574 
z
" clip-path="url(#p36c6aa73ec)" style="fill: #1f77b4; fill-opacity: 0.3; stroke: #1f77b4; stroke-opacity: 0.3"/>
    <path d="M 954.236991 114.642253 
C 954.830003 114.642253 955.398807 114.406646 955.818129 113.987323 
C 956.237452 113.568 956.473059 112.999197 956.473059 112.406185 
C 956.473059 111.813172 956.237452 111.244369 955.818129 110.825046 
C 955.398807 110.405723 954.830003 110.170117 954.236991 110.170117 
C 953.643978 110.170117 953.075175 110.405723 952.655852 110.825046 
C 952.236529 111.244369 952.000923 111.813172 952.000923 112.406185 
C 952.000923 112.999197 952.236529 113.568 952.655852 113.987323 
C 953.075175 114.406646 953.643978 114.642253 954.236991 114.642253 
z
" clip-path="url(#p36c6aa73ec)" style="fill: #1f77b4; fill-opacity: 0.3; stroke: #1f77b4; stroke-opacity: 0.3"/>
    <path d="M 968.230721 112.128338 
C 968.95701 112.128338 969.653649 111.839781 970.167213 111.326217 
C 970.680776 110.812654 970.969334 110.116014 970.969334 109.389726 
C 970.969334 108.663437 970.680776 107.966798 970.167213 107.453234 
C 969.653649 106.93967 968.95701 106.651113 968.230721 106.651113 
C 967.504432 106.651113 966.807793 106.93967 966.294229 107.453234 
C 965.780666 107.966798 965.492108 108.663437 965.492108 109.389726 
C 965.492108 110.116014 965.780666 110.812654 966.294229 111.326217 
C 966.807793 111.839781 967.504432 112.128338 968.230721 112.128338 
z
" clip-path="url(#p36c6aa73ec)" style="fill: #1f77b4; fill-opacity: 0.3; stroke: #1f77b4; stroke-opacity: 0.3"/>
    <path d="M 982.224451 97.177511 
C 984.052238 97.177511 985.805409 96.451323 987.097849 95.158883 
C 988.390289 93.866443 989.116476 92.113273 989.116476 90.285486 
C 989.116476 88.4577 988.390289 86.704529 987.097849 85.412089 
C 985.805409 84.119649 984.052238 83.393462 982.224451 83.393462 
C 980.396665 83.393462 978.643494 84.119649 977.351054 85.412089 
C 976.058614 86.704529 975.332427 88.4577 975.332427 90.285486 
C 975.332427 92.113273 976.058614 93.866443 977.351054 95.158883 
C 978.643494 96.451323 980.396665 97.177511 982.224451 97.177511 
z
" clip-path="url(#p36c6aa73ec)" style="fill: #1f77b4; fill-opacity: 0.3; stroke: #1f77b4; stroke-opacity: 0.3"/>
    <path d="M 996.218182 90.861139 
C 996.637505 90.861139 997.03971 90.69454 997.336216 90.398034 
C 997.632722 90.101528 997.799321 89.699323 997.799321 89.28 
C 997.799321 88.860677 997.632722 88.458472 997.336216 88.161966 
C 997.03971 87.86546 996.637505 87.698861 996.218182 87.698861 
C 995.798859 87.698861 995.396654 87.86546 995.100148 88.161966 
C 994.803642 88.458472 994.637043 88.860677 994.637043 89.28 
C 994.637043 89.699323 994.803642 90.101528 995.100148 90.398034 
C 995.396654 90.69454 995.798859 90.861139 996.218182 90.861139 
z
" clip-path="url(#p36c6aa73ec)" style="fill: #1f77b4; fill-opacity: 0.3; stroke: #1f77b4; stroke-opacity: 0.3"/>
   </g>
   <g id="matplotlib.axis_1">
    <g id="xtick_1">
     <g id="line2d_1">
      <defs>
       <path id="m83f5bf2549" d="M 0 0 
L 0 3.5 
" style="stroke: #000000; stroke-width: 0.8"/>
      </defs>
      <g>
       <use xlink:href="#m83f5bf2549" x="184.581818" y="512.64" style="stroke: #000000; stroke-width: 0.8"/>
      </g>
     </g>
     <g id="text_1">
      <!-- 2024-01-01 -->
      <g transform="translate(155.524006 527.238438) scale(0.1 -0.1)">
       <defs>
        <path id="DejaVuSans-32" d="M 1228 531 
L 3431 531 
L 3431 0 
L 469 0 
L 469 531 
Q 828 903 1448 1529 
Q 2069 2156 2228 2338 
Q 2531 2678 2651 2914 
Q 2772 3150 2772 3378 
Q 2772 3750 2511 3984 
Q 2250 4219 1831 4219 
Q 1534 4219 1204 4116 
Q 875 4013 500 3803 
L 500 4441 
Q 881 4594 1212 4672 
Q 1544 4750 1819 4750 
Q 2544 4750 2975 4387 
Q 3406 4025 3406 3419 
Q 3406 3131 3298 2873 
Q 3191 2616 2906 2266 
Q 2828 2175 2409 1742 
Q 1991 1309 1228 531 
z
" transform="scale(0.015625)"/>
        <path id="DejaVuSans-30" d="M 2034 4250 
Q 1547 4250 1301 3770 
Q 1056 3291 1056 2328 
Q 1056 1369 1301 889 
Q 1547 409 2034 409 
Q 2525 409 2770 889 
Q 3016 1369 3016 2328 
Q 3016 3291 2770 3770 
Q 2525 4250 2034 4250 
z
M 2034 4750 
Q 2819 4750 3233 4129 
Q 3647 3509 3647 2328 
Q 3647 1150 3233 529 
Q 2819 -91 2034 -91 
Q 1250 -91 836 529 
Q 422 1150 422 2328 
Q 422 3509 836 4129 
Q 1250 4750 2034 4750 
z
" transform="scale(0.015625)"/>
        <path id="DejaVuSans-34" d="M 2419 4116 
L 825 1625 
L 2419 1625 
L 2419 4116 
z
M 2253 4666 
L 3047 4666 
L 3047 1625 
L 3713 1625 
L 3713 1100 
L 3047 1100 
L 3047 0 
L 2419 0 
L 2419 1100 
L 313 1100 
L 313 1709 
L 2253 4666 
z
" transform="scale(0.015625)"/>
        <path id="DejaVuSans-2d" d="M 313 2009 
L 1997 2009 
L 1997 1497 
L 313 1497 
L 313 2009 
z
" transform="scale(0.015625)"/>
        <path id="DejaVuSans-31" d="M 794 531 
L 1825 531 
L 1825 4091 
L 703 3866 
L 703 4441 
L 1819 4666 
L 2450 4666 
L 2450 531 
L 3481 531 
L 3481 0 
L 794 0 
L 794 531 
z
" transform="scale(0.015625)"/>
       </defs>
       <use xlink:href="#DejaVuSans-32"/>
       <use xlink:href="#DejaVuSans-30" x="63.623047"/>
       <use xlink:href="#DejaVuSans-32" x="127.246094"/>
       <use xlink:href="#DejaVuSans-34" x="190.869141"/>
       <use xlink:href="#DejaVuSans-2d" x="254.492188"/>
       <use xlink:href="#DejaVuSans-30" x="290.576172"/>
       <use xlink:href="#DejaVuSans-31" x="354.199219"/>
       <use xlink:href="#DejaVuSans-2d" x="417.822266"/>
       <use xlink:href="#DejaVuSans-30" x="453.90625"/>
       <use xlink:href="#DejaVuSans-31" x="517.529297"/>
      </g>
     </g>
    </g>
    <g id="xtick_2">
     <g id="line2d_2">
      <g>
       <use xlink:href="#m83f5bf2549" x="282.537931" y="512.64" style="stroke: #000000; stroke-width: 0.8"/>
      </g>
     </g>
     <g id="text_2">
      <!-- 2024-01-08 -->
      <g transform="translate(253.480119 527.238438) scale(0.1 -0.1)">
       <defs>
        <path id="DejaVuSans-38" d="M 2034 2216 
Q 1584 2216 1326 1975 
Q 1069 1734 1069 1313 
Q 1069 891 1326 650 
Q 1584 409 2034 409 
Q 2484 409 2743 651 
Q 3003 894 3003 1313 
Q 3003 1734 2745 1975 
Q 2488 2216 2034 2216 
z
M 1403 2484 
Q 997 2584 770 2862 
Q 544 3141 544 3541 
Q 544 4100 942 4425 
Q 1341 4750 2034 4750 
Q 2731 4750 3128 4425 
Q 3525 4100 3525 3541 
Q 3525 3141 3298 2862 
Q 3072 2584 2669 2484 
Q 3125 2378 3379 2068 
Q 3634 1759 3634 1313 
Q 3634 634 3220 271 
Q 2806 -91 2034 -91 
Q 1263 -91 848 271 
Q 434 634 434 1313 
Q 434 1759 690 2068 
Q 947 2378 1403 2484 
z
M 1172 3481 
Q 1172 3119 1398 2916 
Q 1625 2713 2034 2713 
Q 2441 2713 2670 2916 
Q 2900 3119 2900 3481 
Q 2900 3844 2670 4047 
Q 2441 4250 2034 4250 
Q 1625 4250 1398 4047 
Q 1172 3844 1172 3481 
z
" transform="scale(0.015625)"/>
       </defs>
       <use xlink:href="#DejaVuSans-32"/>
       <use xlink:href="#DejaVuSans-30" x="63.623047"/>
       <use xlink:href="#DejaVuSans-32" x="127.246094"/>
       <use xlink:href="#DejaVuSans-34" x="190.869141"/>
       <use xlink:href="#DejaVuSans-2d" x="254.492188"/>
       <use xlink:href="#DejaVuSans-30" x="290.576172"/>
       <use xlink:href="#DejaVuSans-31" x="354.199219"/>
       <use xlink:href="#DejaVuSans-2d" x="417.822266"/>
       <use xlink:href="#DejaVuSans-30" x="453.90625"/>
       <use xlink:href="#DejaVuSans-38" x="517.529297"/>
      </g>
     </g>
    </g>
    <g id="xtick_3">
     <g id="line2d_3">
      <g>
       <use xlink:href="#m83f5bf2549" x="380.494044" y="512.64" style="stroke: #000000; stroke-width: 0.8"/>
      </g>
     </g>
     <g id="text_3">
      <!-- 2024-01-15 -->
      <g transform="translate(351.436231 527.238438) scale(0.1 -0.1)">
       <defs>
        <path id="DejaVuSans-35" d="M 691 4666 
L 3169 4666 
L 3169 4134 
L 1269 4134 
L 1269 2991 
Q 1406 3038 1543 3061 
Q 1681 3084 1819 3084 
Q 2600 3084 3056 2656 
Q 3513 2228 3513 1497 
Q 3513 744 3044 326 
Q 2575 -91 1722 -91 
Q 1428 -91 1123 -41 
Q 819 9 494 109 
L 494 744 
Q 775 591 1075 516 
Q 1375 441 1709 441 
Q 2250 441 2565 725 
Q 2881 1009 2881 1497 
Q 2881 1984 2565 2268 
Q 2250 2553 1709 2553 
Q 1456 2553 1204 2497 
Q 953 2441 691 2322 
L 691 4666 
z
" transform="scale(0.015625)"/>
       </defs>
       <use xlink:href="#DejaVuSans-32"/>
       <use xlink:href="#DejaVuSans-30" x="63.623047"/>
       <use xlink:href="#DejaVuSans-32" x="127.246094"/>
       <use xlink:href="#DejaVuSans-34" x="190.869141"/>
       <use xlink:href="#DejaVuSans-2d" x="254.492188"/>
       <use xlink:href="#DejaVuSans-30" x="290.576172"/>
       <use xlink:href="#DejaVuSans-31" x="354.199219"/>
       <use xlink:href="#DejaVuSans-2d" x="417.822266"/>
       <use xlink:href="#DejaVuSans-31" x="453.90625"/>
       <use xlink:href="#DejaVuSans-35" x="517.529297"/>
      </g>
     </g>
    </g>
    <g id="xtick_4">
     <g id="line2d_4">
      <g>
       <use xlink:href="#m83f5bf2549" x="478.450157" y="512.64" style="stroke: #000000; stroke-width: 0.8"/>
      </g>
     </g>
     <g id="text_4">
      <!-- 2024-01-22 -->
      <g transform="translate(449.392344 527.238438) scale(0.1 -0.1)">
       <use xlink:href="#DejaVuSans-32"/>
       <use xlink:href="#DejaVuSans-30" x="63.623047"/>
       <use xlink:href="#DejaVuSans-32" x="127.246094"/>
       <use xlink:href="#DejaVuSans-34" x="190.869141"/>
       <use xlink:href="#DejaVuSans-2d" x="254.492188"/>
       <use xlink:href="#DejaVuSans-30" x="290.576172"/>
       <use xlink:href="#DejaVuSans-31" x="354.199219"/>
       <use xlink:href="#DejaVuSans-2d" x="417.822266"/>
       <use xlink:href="#DejaVuSans-32" x="453.90625"/>
       <use xlink:href="#DejaVuSans-32" x="517.529297"/>
      </g>
     </g>
    </g>
    <g id="xtick_5">
     <g id="line2d_5">
      <g>
       <use xlink:href="#m83f5bf2549" x="618.387461" y="512.64" style="stroke: #000000; stroke-width: 0.8"/>
      </g>
     </g>
     <g id="text_5">
      <!-- 2024-02-01 -->
      <g transform="translate(589.329648 527.238438) scale(0.1 -0.1)">
       <use xlink:href="#DejaVuSans-32"/>
       <use xlink:href="#DejaVuSans-30" x="63.623047"/>
       <use xlink:href="#DejaVuSans-32" x="127.246094"/>
       <use xlink:href="#DejaVuSans-34" x="190.869141"/>
       <use xlink:href="#DejaVuSans-2d" x="254.492188"/>
       <use xlink:href="#DejaVuSans-30" x="290.576172"/>
       <use xlink:href="#DejaVuSans-32" x="354.199219"/>
       <use xlink:href="#DejaVuSans-2d" x="417.822266"/>
       <use xlink:href="#DejaVuSans-30" x="453.90625"/>
       <use xlink:href="#DejaVuSans-31" x="517.529297"/>
      </g>
     </g>
    </g>
    <g id="xtick_6">
     <g id="line2d_6">
      <g>
       <use xlink:href="#m83f5bf2549" x="716.343574" y="512.64" style="stroke: #000000; stroke-width: 0.8"/>
      </g>
     </g>
     <g id="text_6">
      <!-- 2024-02-08 -->
      <g transform="translate(687.285761 527.238438) scale(0.1 -0.1)">
       <use xlink:href="#DejaVuSans-32"/>
       <use xlink:href="#DejaVuSans-30" x="63.623047"/>
       <use xlink:href="#DejaVuSans-32" x="127.246094"/>
       <use xlink:href="#DejaVuSans-34" x="190.869141"/>
       <use xlink:href="#DejaVuSans-2d" x="254.492188"/>
       <use xlink:href="#DejaVuSans-30" x="290.576172"/>
       <use xlink:href="#DejaVuSans-32" x="354.199219"/>
       <use xlink:href="#DejaVuSans-2d" x="417.822266"/>
       <use xlink:href="#DejaVuSans-30" x="453.90625"/>
       <use xlink:href="#DejaVuSans-38" x="517.529297"/>
      </g>
     </g>
    </g>
    <g id="xtick_7">
     <g id="line2d_7">
      <g>
       <use xlink:href="#m83f5bf2549" x="814.299687" y="512.64" style="stroke: #000000; stroke-width: 0.8"/>
      </g>
     </g>
     <g id="text_7">
      <!-- 2024-02-15 -->
      <g transform="translate(785.241874 527.238438) scale(0.1 -0.1)">
       <use xlink:href="#DejaVuSans-32"/>
       <use xlink:href="#DejaVuSans-30" x="63.623047"/>
       <use xlink:href="#DejaVuSans-32" x="127.246094"/>
       <use xlink:href="#DejaVuSans-34" x="190.869141"/>
       <use xlink:href="#DejaVuSans-2d" x="254.492188"/>
       <use xlink:href="#DejaVuSans-30" x="290.576172"/>
       <use xlink:href="#DejaVuSans-32" x="354.199219"/>
       <use xlink:href="#DejaVuSans-2d" x="417.822266"/>
       <use xlink:href="#DejaVuSans-31" x="453.90625"/>
       <use xlink:href="#DejaVuSans-35" x="517.529297"/>
      </g>
     </g>
    </g>
    <g id="xtick_8">
     <g id="line2d_8">
      <g>
       <use xlink:href="#m83f5bf2549" x="912.255799" y="512.64" style="stroke: #000000; stroke-width: 0.8"/>
      </g>
     </g>
     <g id="text_8">
      <!-- 2024-02-22 -->
      <g transform="translate(883.197987 527.238438) scale(0.1 -0.1)">
       <use xlink:href="#DejaVuSans-32"/>
       <use xlink:href="#DejaVuSans-30" x="63.623047"/>
       <use xlink:href="#DejaVuSans-32" x="127.246094"/>
       <use xlink:href="#DejaVuSans-34" x="190.869141"/>
       <use xlink:href="#DejaVuSans-2d" x="254.492188"/>
       <use xlink:href="#DejaVuSans-30" x="290.576172"/>
       <use xlink:href="#DejaVuSans-32" x="354.199219"/>
       <use xlink:href="#DejaVuSans-2d" x="417.822266"/>
       <use xlink:href="#DejaVuSans-32" x="453.90625"/>
       <use xlink:href="#DejaVuSans-32" x="517.529297"/>
      </g>
     </g>
    </g>
    <g id="xtick_9">
     <g id="line2d_9">
      <g>
       <use xlink:href="#m83f5bf2549" x="1024.205643" y="512.64" style="stroke: #000000; stroke-width: 0.8"/>
      </g>
     </g>
     <g id="text_9">
      <!-- 2024-03-01 -->
      <g transform="translate(995.14783 527.238438) scale(0.1 -0.1)">
       <defs>
        <path id="DejaVuSans-33" d="M 2597 2516 
Q 3050 2419 3304 2112 
Q 3559 1806 3559 1356 
Q 3559 666 3084 287 
Q 2609 -91 1734 -91 
Q 1441 -91 1130 -33 
Q 819 25 488 141 
L 488 750 
Q 750 597 1062 519 
Q 1375 441 1716 441 
Q 2309 441 2620 675 
Q 2931 909 2931 1356 
Q 2931 1769 2642 2001 
Q 2353 2234 1838 2234 
L 1294 2234 
L 1294 2753 
L 1863 2753 
Q 2328 2753 2575 2939 
Q 2822 3125 2822 3475 
Q 2822 3834 2567 4026 
Q 2313 4219 1838 4219 
Q 1578 4219 1281 4162 
Q 984 4106 628 3988 
L 628 4550 
Q 988 4650 1302 4700 
Q 1616 4750 1894 4750 
Q 2613 4750 3031 4423 
Q 3450 4097 3450 3541 
Q 3450 3153 3228 2886 
Q 3006 2619 2597 2516 
z
" transform="scale(0.015625)"/>
       </defs>
       <use xlink:href="#DejaVuSans-32"/>
       <use xlink:href="#DejaVuSans-30" x="63.623047"/>
       <use xlink:href="#DejaVuSans-32" x="127.246094"/>
       <use xlink:href="#DejaVuSans-34" x="190.869141"/>
       <use xlink:href="#DejaVuSans-2d" x="254.492188"/>
       <use xlink:href="#DejaVuSans-30" x="290.576172"/>
       <use xlink:href="#DejaVuSans-33" x="354.199219"/>
       <use xlink:href="#DejaVuSans-2d" x="417.822266"/>
       <use xlink:href="#DejaVuSans-30" x="453.90625"/>
       <use xlink:href="#DejaVuSans-31" x="517.529297"/>
      </g>
     </g>
    </g>
   </g>
   <g id="matplotlib.axis_2">
    <g id="ytick_1">
     <g id="line2d_10">
      <defs>
       <path id="mcac4ae70b9" d="M 0 0 
L -3.5 0 
" style="stroke: #000000; stroke-width: 0.8"/>
      </defs>
      <g>
       <use xlink:href="#mcac4ae70b9" x="144" y="497.507431" style="stroke: #000000; stroke-width: 0.8"/>
      </g>
     </g>
     <g id="text_10">
      <!-- 6300 -->
      <g transform="translate(111.55 501.30665) scale(0.1 -0.1)">
       <defs>
        <path id="DejaVuSans-36" d="M 2113 2584 
Q 1688 2584 1439 2293 
Q 1191 2003 1191 1497 
Q 1191 994 1439 701 
Q 1688 409 2113 409 
Q 2538 409 2786 701 
Q 3034 994 3034 1497 
Q 3034 2003 2786 2293 
Q 2538 2584 2113 2584 
z
M 3366 4563 
L 3366 3988 
Q 3128 4100 2886 4159 
Q 2644 4219 2406 4219 
Q 1781 4219 1451 3797 
Q 1122 3375 1075 2522 
Q 1259 2794 1537 2939 
Q 1816 3084 2150 3084 
Q 2853 3084 3261 2657 
Q 3669 2231 3669 1497 
Q 3669 778 3244 343 
Q 2819 -91 2113 -91 
Q 1303 -91 875 529 
Q 447 1150 447 2328 
Q 447 3434 972 4092 
Q 1497 4750 2381 4750 
Q 2619 4750 2861 4703 
Q 3103 4656 3366 4563 
z
" transform="scale(0.015625)"/>
       </defs>
       <use xlink:href="#DejaVuSans-36"/>
       <use xlink:href="#DejaVuSans-33" x="63.623047"/>
       <use xlink:href="#DejaVuSans-30" x="127.246094"/>
       <use xlink:href="#DejaVuSans-30" x="190.869141"/>
      </g>
     </g>
    </g>
    <g id="ytick_2">
     <g id="line2d_11">
      <g>
       <use xlink:href="#mcac4ae70b9" x="144" y="447.233117" style="stroke: #000000; stroke-width: 0.8"/>
      </g>
     </g>
     <g id="text_11">
      <!-- 6350 -->
      <g transform="translate(111.55 451.032336) scale(0.1 -0.1)">
       <use xlink:href="#DejaVuSans-36"/>
       <use xlink:href="#DejaVuSans-33" x="63.623047"/>
       <use xlink:href="#DejaVuSans-35" x="127.246094"/>
       <use xlink:href="#DejaVuSans-30" x="190.869141"/>
      </g>
     </g>
    </g>
    <g id="ytick_3">
     <g id="line2d_12">
      <g>
       <use xlink:href="#mcac4ae70b9" x="144" y="396.958803" style="stroke: #000000; stroke-width: 0.8"/>
      </g>
     </g>
     <g id="text_12">
      <!-- 6400 -->
      <g transform="translate(111.55 400.758022) scale(0.1 -0.1)">
       <use xlink:href="#DejaVuSans-36"/>
       <use xlink:href="#DejaVuSans-34" x="63.623047"/>
       <use xlink:href="#DejaVuSans-30" x="127.246094"/>
       <use xlink:href="#DejaVuSans-30" x="190.869141"/>
      </g>
     </g>
    </g>
    <g id="ytick_4">
     <g id="line2d_13">
      <g>
       <use xlink:href="#mcac4ae70b9" x="144" y="346.684489" style="stroke: #000000; stroke-width: 0.8"/>
      </g>
     </g>
     <g id="text_13">
      <!-- 6450 -->
      <g transform="translate(111.55 350.483708) scale(0.1 -0.1)">
       <use xlink:href="#DejaVuSans-36"/>
       <use xlink:href="#DejaVuSans-34" x="63.623047"/>
       <use xlink:href="#DejaVuSans-35" x="127.246094"/>
       <use xlink:href="#DejaVuSans-30" x="190.869141"/>
      </g>
     </g>
    </g>
    <g id="ytick_5">
     <g id="line2d_14">
      <g>
       <use xlink:href="#mcac4ae70b9" x="144" y="296.410175" style="stroke: #000000; stroke-width: 0.8"/>
      </g>
     </g>
     <g id="text_14">
      <!-- 6500 -->
      <g transform="translate(111.55 300.209393) scale(0.1 -0.1)">
       <use xlink:href="#DejaVuSans-36"/>
       <use xlink:href="#DejaVuSans-35" x="63.623047"/>
       <use xlink:href="#DejaVuSans-30" x="127.246094"/>
       <use xlink:href="#DejaVuSans-30" x="190.869141"/>
      </g>
     </g>
    </g>
    <g id="ytick_6">
     <g id="line2d_15">
      <g>
       <use xlink:href="#mcac4ae70b9" x="144" y="246.13586" style="stroke: #000000; stroke-width: 0.8"/>
      </g>
     </g>
     <g id="text_15">
      <!-- 6550 -->
      <g transform="translate(111.55 249.935079) scale(0.1 -0.1)">
       <use xlink:href="#DejaVuSans-36"/>
       <use xlink:href="#DejaVuSans-35" x="63.623047"/>
       <use xlink:href="#DejaVuSans-35" x="127.246094"/>
       <use xlink:href="#DejaVuSans-30" x="190.869141"/>
      </g>
     </g>
    </g>
    <g id="ytick_7">
     <g id="line2d_16">
      <g>
       <use xlink:href="#mcac4ae70b9" x="144" y="195.861546" style="stroke: #000000; stroke-width: 0.8"/>
      </g>
     </g>
     <g id="text_16">
      <!-- 6600 -->
      <g transform="translate(111.55 199.660765) scale(0.1 -0.1)">
       <use xlink:href="#DejaVuSans-36"/>
       <use xlink:href="#DejaVuSans-36" x="63.623047"/>
       <use xlink:href="#DejaVuSans-30" x="127.246094"/>
       <use xlink:href="#DejaVuSans-30" x="190.869141"/>
      </g>
     </g>
    </g>
    <g id="ytick_8">
     <g id="line2d_17">
      <g>
       <use xlink:href="#mcac4ae70b9" x="144" y="145.587232" style="stroke: #000000; stroke-width: 0.8"/>
      </g>
     </g>
     <g id="text_17">
      <!-- 6650 -->
      <g transform="translate(111.55 149.386451) scale(0.1 -0.1)">
       <use xlink:href="#DejaVuSans-36"/>
       <use xlink:href="#DejaVuSans-36" x="63.623047"/>
       <use xlink:href="#DejaVuSans-35" x="127.246094"/>
       <use xlink:href="#DejaVuSans-30" x="190.869141"/>
      </g>
     </g>
    </g>
    <g id="ytick_9">
     <g id="line2d_18">
      <g>
       <use xlink:href="#mcac4ae70b9" x="144" y="95.312918" style="stroke: #000000; stroke-width: 0.8"/>
      </g>
     </g>
     <g id="text_18">
      <!-- 6700 -->
      <g transform="translate(111.55 99.112136) scale(0.1 -0.1)">
       <defs>
        <path id="DejaVuSans-37" d="M 525 4666 
L 3525 4666 
L 3525 4397 
L 1831 0 
L 1172 0 
L 2766 4134 
L 525 4134 
L 525 4666 
z
" transform="scale(0.015625)"/>
       </defs>
       <use xlink:href="#DejaVuSans-36"/>
       <use xlink:href="#DejaVuSans-37" x="63.623047"/>
       <use xlink:href="#DejaVuSans-30" x="127.246094"/>
       <use xlink:href="#DejaVuSans-30" x="190.869141"/>
      </g>
     </g>
    </g>
   </g>
   <g id="line2d_19">
    <path d="M 184.581818 492.48 
L 198.575549 472.370274 
L 212.569279 446.227631 
L 226.563009 445.222145 
L 240.55674 435.167282 
L 268.544201 430.13985 
L 282.537931 426.117905 
L 296.531661 423.101446 
L 310.525392 419.079501 
L 324.519122 413.046584 
L 338.512853 396.958803 
L 352.506583 393.942344 
L 366.500313 390.925885 
L 380.494044 375.843591 
L 394.487774 371.821646 
L 408.481505 359.75581 
L 422.475235 354.728379 
L 436.468966 348.695461 
L 450.462696 345.679002 
L 464.456426 342.662544 
L 478.450157 337.635112 
L 492.443887 332.607681 
L 506.437618 328.585736 
L 520.431348 326.574763 
L 534.425078 319.536359 
L 548.418809 317.525387 
L 576.40627 307.470524 
L 590.4 306.465037 
L 604.39373 300.43212 
L 618.387461 285.349825 
L 632.381191 270.267531 
L 646.374922 267.251072 
L 674.362382 263.229127 
L 688.356113 246.13586 
L 702.349843 245.130374 
L 716.343574 241.108429 
L 730.337304 238.09197 
L 744.331034 235.075511 
L 758.324765 216.976758 
L 772.318495 213.960299 
L 786.312226 208.932868 
L 800.305956 204.910923 
L 814.299687 197.872519 
L 828.293417 177.762793 
L 842.287147 172.735362 
L 856.280878 169.718903 
L 870.274608 159.66404 
L 884.268339 155.642095 
L 898.262069 154.636608 
L 912.255799 128.493965 
L 926.24953 123.466534 
L 940.24326 114.417157 
L 954.236991 112.406185 
L 968.230721 109.389726 
L 982.224451 90.285486 
L 996.218182 89.28 
" clip-path="url(#p36c6aa73ec)" style="fill: none; stroke: #1f77b4; stroke-width: 1.5; stroke-linecap: square"/>
   </g>
   <g id="patch_3">
    <path d="M 144 512.64 
L 144 69.12 
" style="fill: none; stroke: #000000; stroke-width: 0.8; stroke-linejoin: miter; stroke-linecap: square"/>
   </g>
   <g id="patch_4">
    <path d="M 1036.8 512.64 
L 1036.8 69.12 
" style="fill: none; stroke: #000000; stroke-width: 0.8; stroke-linejoin: miter; stroke-linecap: square"/>
   </g>
   <g id="patch_5">
    <path d="M 144 512.64 
L 1036.8 512.64 
" style="fill: none; stroke: #000000; stroke-width: 0.8; stroke-linejoin: miter; stroke-linecap: square"/>
   </g>
   <g id="patch_6">
    <path d="M 144 69.12 
L 1036.8 69.12 
" style="fill: none; stroke: #000000; stroke-width: 0.8; stroke-linejoin: miter; stroke-linecap: square"/>
   </g>
   <g id="text_19">
    <!-- Number of AEDs in the OpenStreetMap database in Poland from 2024-01-01, day by day. As at: 2024-02-28 -->
    <g transform="translate(144 63.12) scale(0.14 -0.14)">
     <defs>
      <path id="DejaVuSans-4e" d="M 628 4666 
L 1478 4666 
L 3547 763 
L 3547 4666 
L 4159 4666 
L 4159 0 
L 3309 0 
L 1241 3903 
L 1241 0 
L 628 0 
L 628 4666 
z
" transform="scale(0.015625)"/>
      <path id="DejaVuSans-75" d="M 544 1381 
L 544 3500 
L 1119 3500 
L 1119 1403 
Q 1119 906 1312 657 
Q 1506 409 1894 409 
Q 2359 409 2629 706 
Q 2900 1003 2900 1516 
L 2900 3500 
L 3475 3500 
L 3475 0 
L 2900 0 
L 2900 538 
Q 2691 219 2414 64 
Q 2138 -91 1772 -91 
Q 1169 -91 856 284 
Q 544 659 544 1381 
z
M 1991 3584 
L 1991 3584 
z
" transform="scale(0.015625)"/>
      <path id="DejaVuSans-6d" d="M 3328 2828 
Q 3544 3216 3844 3400 
Q 4144 3584 4550 3584 
Q 5097 3584 5394 3201 
Q 5691 2819 5691 2113 
L 5691 0 
L 5113 0 
L 5113 2094 
Q 5113 2597 4934 2840 
Q 4756 3084 4391 3084 
Q 3944 3084 3684 2787 
Q 3425 2491 3425 1978 
L 3425 0 
L 2847 0 
L 2847 2094 
Q 2847 2600 2669 2842 
Q 2491 3084 2119 3084 
Q 1678 3084 1418 2786 
Q 1159 2488 1159 1978 
L 1159 0 
L 581 0 
L 581 3500 
L 1159 3500 
L 1159 2956 
Q 1356 3278 1631 3431 
Q 1906 3584 2284 3584 
Q 2666 3584 2933 3390 
Q 3200 3197 3328 2828 
z
" transform="scale(0.015625)"/>
      <path id="DejaVuSans-62" d="M 3116 1747 
Q 3116 2381 2855 2742 
Q 2594 3103 2138 3103 
Q 1681 3103 1420 2742 
Q 1159 2381 1159 1747 
Q 1159 1113 1420 752 
Q 1681 391 2138 391 
Q 2594 391 2855 752 
Q 3116 1113 3116 1747 
z
M 1159 2969 
Q 1341 3281 1617 3432 
Q 1894 3584 2278 3584 
Q 2916 3584 3314 3078 
Q 3713 2572 3713 1747 
Q 3713 922 3314 415 
Q 2916 -91 2278 -91 
Q 1894 -91 1617 61 
Q 1341 213 1159 525 
L 1159 0 
L 581 0 
L 581 4863 
L 1159 4863 
L 1159 2969 
z
" transform="scale(0.015625)"/>
      <path id="DejaVuSans-65" d="M 3597 1894 
L 3597 1613 
L 953 1613 
Q 991 1019 1311 708 
Q 1631 397 2203 397 
Q 2534 397 2845 478 
Q 3156 559 3463 722 
L 3463 178 
Q 3153 47 2828 -22 
Q 2503 -91 2169 -91 
Q 1331 -91 842 396 
Q 353 884 353 1716 
Q 353 2575 817 3079 
Q 1281 3584 2069 3584 
Q 2775 3584 3186 3129 
Q 3597 2675 3597 1894 
z
M 3022 2063 
Q 3016 2534 2758 2815 
Q 2500 3097 2075 3097 
Q 1594 3097 1305 2825 
Q 1016 2553 972 2059 
L 3022 2063 
z
" transform="scale(0.015625)"/>
      <path id="DejaVuSans-72" d="M 2631 2963 
Q 2534 3019 2420 3045 
Q 2306 3072 2169 3072 
Q 1681 3072 1420 2755 
Q 1159 2438 1159 1844 
L 1159 0 
L 581 0 
L 581 3500 
L 1159 3500 
L 1159 2956 
Q 1341 3275 1631 3429 
Q 1922 3584 2338 3584 
Q 2397 3584 2469 3576 
Q 2541 3569 2628 3553 
L 2631 2963 
z
" transform="scale(0.015625)"/>
      <path id="DejaVuSans-20" transform="scale(0.015625)"/>
      <path id="DejaVuSans-6f" d="M 1959 3097 
Q 1497 3097 1228 2736 
Q 959 2375 959 1747 
Q 959 1119 1226 758 
Q 1494 397 1959 397 
Q 2419 397 2687 759 
Q 2956 1122 2956 1747 
Q 2956 2369 2687 2733 
Q 2419 3097 1959 3097 
z
M 1959 3584 
Q 2709 3584 3137 3096 
Q 3566 2609 3566 1747 
Q 3566 888 3137 398 
Q 2709 -91 1959 -91 
Q 1206 -91 779 398 
Q 353 888 353 1747 
Q 353 2609 779 3096 
Q 1206 3584 1959 3584 
z
" transform="scale(0.015625)"/>
      <path id="DejaVuSans-66" d="M 2375 4863 
L 2375 4384 
L 1825 4384 
Q 1516 4384 1395 4259 
Q 1275 4134 1275 3809 
L 1275 3500 
L 2222 3500 
L 2222 3053 
L 1275 3053 
L 1275 0 
L 697 0 
L 697 3053 
L 147 3053 
L 147 3500 
L 697 3500 
L 697 3744 
Q 697 4328 969 4595 
Q 1241 4863 1831 4863 
L 2375 4863 
z
" transform="scale(0.015625)"/>
      <path id="DejaVuSans-41" d="M 2188 4044 
L 1331 1722 
L 3047 1722 
L 2188 4044 
z
M 1831 4666 
L 2547 4666 
L 4325 0 
L 3669 0 
L 3244 1197 
L 1141 1197 
L 716 0 
L 50 0 
L 1831 4666 
z
" transform="scale(0.015625)"/>
      <path id="DejaVuSans-45" d="M 628 4666 
L 3578 4666 
L 3578 4134 
L 1259 4134 
L 1259 2753 
L 3481 2753 
L 3481 2222 
L 1259 2222 
L 1259 531 
L 3634 531 
L 3634 0 
L 628 0 
L 628 4666 
z
" transform="scale(0.015625)"/>
      <path id="DejaVuSans-44" d="M 1259 4147 
L 1259 519 
L 2022 519 
Q 2988 519 3436 956 
Q 3884 1394 3884 2338 
Q 3884 3275 3436 3711 
Q 2988 4147 2022 4147 
L 1259 4147 
z
M 628 4666 
L 1925 4666 
Q 3281 4666 3915 4102 
Q 4550 3538 4550 2338 
Q 4550 1131 3912 565 
Q 3275 0 1925 0 
L 628 0 
L 628 4666 
z
" transform="scale(0.015625)"/>
      <path id="DejaVuSans-73" d="M 2834 3397 
L 2834 2853 
Q 2591 2978 2328 3040 
Q 2066 3103 1784 3103 
Q 1356 3103 1142 2972 
Q 928 2841 928 2578 
Q 928 2378 1081 2264 
Q 1234 2150 1697 2047 
L 1894 2003 
Q 2506 1872 2764 1633 
Q 3022 1394 3022 966 
Q 3022 478 2636 193 
Q 2250 -91 1575 -91 
Q 1294 -91 989 -36 
Q 684 19 347 128 
L 347 722 
Q 666 556 975 473 
Q 1284 391 1588 391 
Q 1994 391 2212 530 
Q 2431 669 2431 922 
Q 2431 1156 2273 1281 
Q 2116 1406 1581 1522 
L 1381 1569 
Q 847 1681 609 1914 
Q 372 2147 372 2553 
Q 372 3047 722 3315 
Q 1072 3584 1716 3584 
Q 2034 3584 2315 3537 
Q 2597 3491 2834 3397 
z
" transform="scale(0.015625)"/>
      <path id="DejaVuSans-69" d="M 603 3500 
L 1178 3500 
L 1178 0 
L 603 0 
L 603 3500 
z
M 603 4863 
L 1178 4863 
L 1178 4134 
L 603 4134 
L 603 4863 
z
" transform="scale(0.015625)"/>
      <path id="DejaVuSans-6e" d="M 3513 2113 
L 3513 0 
L 2938 0 
L 2938 2094 
Q 2938 2591 2744 2837 
Q 2550 3084 2163 3084 
Q 1697 3084 1428 2787 
Q 1159 2491 1159 1978 
L 1159 0 
L 581 0 
L 581 3500 
L 1159 3500 
L 1159 2956 
Q 1366 3272 1645 3428 
Q 1925 3584 2291 3584 
Q 2894 3584 3203 3211 
Q 3513 2838 3513 2113 
z
" transform="scale(0.015625)"/>
      <path id="DejaVuSans-74" d="M 1172 4494 
L 1172 3500 
L 2356 3500 
L 2356 3053 
L 1172 3053 
L 1172 1153 
Q 1172 725 1289 603 
Q 1406 481 1766 481 
L 2356 481 
L 2356 0 
L 1766 0 
Q 1100 0 847 248 
Q 594 497 594 1153 
L 594 3053 
L 172 3053 
L 172 3500 
L 594 3500 
L 594 4494 
L 1172 4494 
z
" transform="scale(0.015625)"/>
      <path id="DejaVuSans-68" d="M 3513 2113 
L 3513 0 
L 2938 0 
L 2938 2094 
Q 2938 2591 2744 2837 
Q 2550 3084 2163 3084 
Q 1697 3084 1428 2787 
Q 1159 2491 1159 1978 
L 1159 0 
L 581 0 
L 581 4863 
L 1159 4863 
L 1159 2956 
Q 1366 3272 1645 3428 
Q 1925 3584 2291 3584 
Q 2894 3584 3203 3211 
Q 3513 2838 3513 2113 
z
" transform="scale(0.015625)"/>
      <path id="DejaVuSans-4f" d="M 2522 4238 
Q 1834 4238 1429 3725 
Q 1025 3213 1025 2328 
Q 1025 1447 1429 934 
Q 1834 422 2522 422 
Q 3209 422 3611 934 
Q 4013 1447 4013 2328 
Q 4013 3213 3611 3725 
Q 3209 4238 2522 4238 
z
M 2522 4750 
Q 3503 4750 4090 4092 
Q 4678 3434 4678 2328 
Q 4678 1225 4090 567 
Q 3503 -91 2522 -91 
Q 1538 -91 948 565 
Q 359 1222 359 2328 
Q 359 3434 948 4092 
Q 1538 4750 2522 4750 
z
" transform="scale(0.015625)"/>
      <path id="DejaVuSans-70" d="M 1159 525 
L 1159 -1331 
L 581 -1331 
L 581 3500 
L 1159 3500 
L 1159 2969 
Q 1341 3281 1617 3432 
Q 1894 3584 2278 3584 
Q 2916 3584 3314 3078 
Q 3713 2572 3713 1747 
Q 3713 922 3314 415 
Q 2916 -91 2278 -91 
Q 1894 -91 1617 61 
Q 1341 213 1159 525 
z
M 3116 1747 
Q 3116 2381 2855 2742 
Q 2594 3103 2138 3103 
Q 1681 3103 1420 2742 
Q 1159 2381 1159 1747 
Q 1159 1113 1420 752 
Q 1681 391 2138 391 
Q 2594 391 2855 752 
Q 3116 1113 3116 1747 
z
" transform="scale(0.015625)"/>
      <path id="DejaVuSans-53" d="M 3425 4513 
L 3425 3897 
Q 3066 4069 2747 4153 
Q 2428 4238 2131 4238 
Q 1616 4238 1336 4038 
Q 1056 3838 1056 3469 
Q 1056 3159 1242 3001 
Q 1428 2844 1947 2747 
L 2328 2669 
Q 3034 2534 3370 2195 
Q 3706 1856 3706 1288 
Q 3706 609 3251 259 
Q 2797 -91 1919 -91 
Q 1588 -91 1214 -16 
Q 841 59 441 206 
L 441 856 
Q 825 641 1194 531 
Q 1563 422 1919 422 
Q 2459 422 2753 634 
Q 3047 847 3047 1241 
Q 3047 1584 2836 1778 
Q 2625 1972 2144 2069 
L 1759 2144 
Q 1053 2284 737 2584 
Q 422 2884 422 3419 
Q 422 4038 858 4394 
Q 1294 4750 2059 4750 
Q 2388 4750 2728 4690 
Q 3069 4631 3425 4513 
z
" transform="scale(0.015625)"/>
      <path id="DejaVuSans-4d" d="M 628 4666 
L 1569 4666 
L 2759 1491 
L 3956 4666 
L 4897 4666 
L 4897 0 
L 4281 0 
L 4281 4097 
L 3078 897 
L 2444 897 
L 1241 4097 
L 1241 0 
L 628 0 
L 628 4666 
z
" transform="scale(0.015625)"/>
      <path id="DejaVuSans-61" d="M 2194 1759 
Q 1497 1759 1228 1600 
Q 959 1441 959 1056 
Q 959 750 1161 570 
Q 1363 391 1709 391 
Q 2188 391 2477 730 
Q 2766 1069 2766 1631 
L 2766 1759 
L 2194 1759 
z
M 3341 1997 
L 3341 0 
L 2766 0 
L 2766 531 
Q 2569 213 2275 61 
Q 1981 -91 1556 -91 
Q 1019 -91 701 211 
Q 384 513 384 1019 
Q 384 1609 779 1909 
Q 1175 2209 1959 2209 
L 2766 2209 
L 2766 2266 
Q 2766 2663 2505 2880 
Q 2244 3097 1772 3097 
Q 1472 3097 1187 3025 
Q 903 2953 641 2809 
L 641 3341 
Q 956 3463 1253 3523 
Q 1550 3584 1831 3584 
Q 2591 3584 2966 3190 
Q 3341 2797 3341 1997 
z
" transform="scale(0.015625)"/>
      <path id="DejaVuSans-64" d="M 2906 2969 
L 2906 4863 
L 3481 4863 
L 3481 0 
L 2906 0 
L 2906 525 
Q 2725 213 2448 61 
Q 2172 -91 1784 -91 
Q 1150 -91 751 415 
Q 353 922 353 1747 
Q 353 2572 751 3078 
Q 1150 3584 1784 3584 
Q 2172 3584 2448 3432 
Q 2725 3281 2906 2969 
z
M 947 1747 
Q 947 1113 1208 752 
Q 1469 391 1925 391 
Q 2381 391 2643 752 
Q 2906 1113 2906 1747 
Q 2906 2381 2643 2742 
Q 2381 3103 1925 3103 
Q 1469 3103 1208 2742 
Q 947 2381 947 1747 
z
" transform="scale(0.015625)"/>
      <path id="DejaVuSans-50" d="M 1259 4147 
L 1259 2394 
L 2053 2394 
Q 2494 2394 2734 2622 
Q 2975 2850 2975 3272 
Q 2975 3691 2734 3919 
Q 2494 4147 2053 4147 
L 1259 4147 
z
M 628 4666 
L 2053 4666 
Q 2838 4666 3239 4311 
Q 3641 3956 3641 3272 
Q 3641 2581 3239 2228 
Q 2838 1875 2053 1875 
L 1259 1875 
L 1259 0 
L 628 0 
L 628 4666 
z
" transform="scale(0.015625)"/>
      <path id="DejaVuSans-6c" d="M 603 4863 
L 1178 4863 
L 1178 0 
L 603 0 
L 603 4863 
z
" transform="scale(0.015625)"/>
      <path id="DejaVuSans-2c" d="M 750 794 
L 1409 794 
L 1409 256 
L 897 -744 
L 494 -744 
L 750 256 
L 750 794 
z
" transform="scale(0.015625)"/>
      <path id="DejaVuSans-79" d="M 2059 -325 
Q 1816 -950 1584 -1140 
Q 1353 -1331 966 -1331 
L 506 -1331 
L 506 -850 
L 844 -850 
Q 1081 -850 1212 -737 
Q 1344 -625 1503 -206 
L 1606 56 
L 191 3500 
L 800 3500 
L 1894 763 
L 2988 3500 
L 3597 3500 
L 2059 -325 
z
" transform="scale(0.015625)"/>
      <path id="DejaVuSans-2e" d="M 684 794 
L 1344 794 
L 1344 0 
L 684 0 
L 684 794 
z
" transform="scale(0.015625)"/>
      <path id="DejaVuSans-3a" d="M 750 794 
L 1409 794 
L 1409 0 
L 750 0 
L 750 794 
z
M 750 3309 
L 1409 3309 
L 1409 2516 
L 750 2516 
L 750 3309 
z
" transform="scale(0.015625)"/>
     </defs>
     <use xlink:href="#DejaVuSans-4e"/>
     <use xlink:href="#DejaVuSans-75" x="74.804688"/>
     <use xlink:href="#DejaVuSans-6d" x="138.183594"/>
     <use xlink:href="#DejaVuSans-62" x="235.595703"/>
     <use xlink:href="#DejaVuSans-65" x="299.072266"/>
     <use xlink:href="#DejaVuSans-72" x="360.595703"/>
     <use xlink:href="#DejaVuSans-20" x="401.708984"/>
     <use xlink:href="#DejaVuSans-6f" x="433.496094"/>
     <use xlink:href="#DejaVuSans-66" x="494.677734"/>
     <use xlink:href="#DejaVuSans-20" x="529.882812"/>
     <use xlink:href="#DejaVuSans-41" x="561.669922"/>
     <use xlink:href="#DejaVuSans-45" x="630.078125"/>
     <use xlink:href="#DejaVuSans-44" x="693.261719"/>
     <use xlink:href="#DejaVuSans-73" x="770.263672"/>
     <use xlink:href="#DejaVuSans-20" x="822.363281"/>
     <use xlink:href="#DejaVuSans-69" x="854.150391"/>
     <use xlink:href="#DejaVuSans-6e" x="881.933594"/>
     <use xlink:href="#DejaVuSans-20" x="945.3125"/>
     <use xlink:href="#DejaVuSans-74" x="977.099609"/>
     <use xlink:href="#DejaVuSans-68" x="1016.308594"/>
     <use xlink:href="#DejaVuSans-65" x="1079.6875"/>
     <use xlink:href="#DejaVuSans-20" x="1141.210938"/>
     <use xlink:href="#DejaVuSans-4f" x="1172.998047"/>
     <use xlink:href="#DejaVuSans-70" x="1251.708984"/>
     <use xlink:href="#DejaVuSans-65" x="1315.185547"/>
     <use xlink:href="#DejaVuSans-6e" x="1376.708984"/>
     <use xlink:href="#DejaVuSans-53" x="1440.087891"/>
     <use xlink:href="#DejaVuSans-74" x="1503.564453"/>
     <use xlink:href="#DejaVuSans-72" x="1542.773438"/>
     <use xlink:href="#DejaVuSans-65" x="1581.636719"/>
     <use xlink:href="#DejaVuSans-65" x="1643.160156"/>
     <use xlink:href="#DejaVuSans-74" x="1704.683594"/>
     <use xlink:href="#DejaVuSans-4d" x="1743.892578"/>
     <use xlink:href="#DejaVuSans-61" x="1830.171875"/>
     <use xlink:href="#DejaVuSans-70" x="1891.451172"/>
     <use xlink:href="#DejaVuSans-20" x="1954.927734"/>
     <use xlink:href="#DejaVuSans-64" x="1986.714844"/>
     <use xlink:href="#DejaVuSans-61" x="2050.191406"/>
     <use xlink:href="#DejaVuSans-74" x="2111.470703"/>
     <use xlink:href="#DejaVuSans-61" x="2150.679688"/>
     <use xlink:href="#DejaVuSans-62" x="2211.958984"/>
     <use xlink:href="#DejaVuSans-61" x="2275.435547"/>
     <use xlink:href="#DejaVuSans-73" x="2336.714844"/>
     <use xlink:href="#DejaVuSans-65" x="2388.814453"/>
     <use xlink:href="#DejaVuSans-20" x="2450.337891"/>
     <use xlink:href="#DejaVuSans-69" x="2482.125"/>
     <use xlink:href="#DejaVuSans-6e" x="2509.908203"/>
     <use xlink:href="#DejaVuSans-20" x="2573.287109"/>
     <use xlink:href="#DejaVuSans-50" x="2605.074219"/>
     <use xlink:href="#DejaVuSans-6f" x="2661.751953"/>
     <use xlink:href="#DejaVuSans-6c" x="2722.933594"/>
     <use xlink:href="#DejaVuSans-61" x="2750.716797"/>
     <use xlink:href="#DejaVuSans-6e" x="2811.996094"/>
     <use xlink:href="#DejaVuSans-64" x="2875.375"/>
     <use xlink:href="#DejaVuSans-20" x="2938.851562"/>
     <use xlink:href="#DejaVuSans-66" x="2970.638672"/>
     <use xlink:href="#DejaVuSans-72" x="3005.84375"/>
     <use xlink:href="#DejaVuSans-6f" x="3044.707031"/>
     <use xlink:href="#DejaVuSans-6d" x="3105.888672"/>
     <use xlink:href="#DejaVuSans-20" x="3203.300781"/>
     <use xlink:href="#DejaVuSans-32" x="3235.087891"/>
     <use xlink:href="#DejaVuSans-30" x="3298.710938"/>
     <use xlink:href="#DejaVuSans-32" x="3362.333984"/>
     <use xlink:href="#DejaVuSans-34" x="3425.957031"/>
     <use xlink:href="#DejaVuSans-2d" x="3489.580078"/>
     <use xlink:href="#DejaVuSans-30" x="3525.664062"/>
     <use xlink:href="#DejaVuSans-31" x="3589.287109"/>
     <use xlink:href="#DejaVuSans-2d" x="3652.910156"/>
     <use xlink:href="#DejaVuSans-30" x="3688.994141"/>
     <use xlink:href="#DejaVuSans-31" x="3752.617188"/>
     <use xlink:href="#DejaVuSans-2c" x="3816.240234"/>
     <use xlink:href="#DejaVuSans-20" x="3848.027344"/>
     <use xlink:href="#DejaVuSans-64" x="3879.814453"/>
     <use xlink:href="#DejaVuSans-61" x="3943.291016"/>
     <use xlink:href="#DejaVuSans-79" x="4004.570312"/>
     <use xlink:href="#DejaVuSans-20" x="4063.75"/>
     <use xlink:href="#DejaVuSans-62" x="4095.537109"/>
     <use xlink:href="#DejaVuSans-79" x="4159.013672"/>
     <use xlink:href="#DejaVuSans-20" x="4218.193359"/>
     <use xlink:href="#DejaVuSans-64" x="4249.980469"/>
     <use xlink:href="#DejaVuSans-61" x="4313.457031"/>
     <use xlink:href="#DejaVuSans-79" x="4374.736328"/>
     <use xlink:href="#DejaVuSans-2e" x="4419.666016"/>
     <use xlink:href="#DejaVuSans-20" x="4451.453125"/>
     <use xlink:href="#DejaVuSans-41" x="4483.240234"/>
     <use xlink:href="#DejaVuSans-73" x="4551.648438"/>
     <use xlink:href="#DejaVuSans-20" x="4603.748047"/>
     <use xlink:href="#DejaVuSans-61" x="4635.535156"/>
     <use xlink:href="#DejaVuSans-74" x="4696.814453"/>
     <use xlink:href="#DejaVuSans-3a" x="4736.023438"/>
     <use xlink:href="#DejaVuSans-20" x="4769.714844"/>
     <use xlink:href="#DejaVuSans-32" x="4801.501953"/>
     <use xlink:href="#DejaVuSans-30" x="4865.125"/>
     <use xlink:href="#DejaVuSans-32" x="4928.748047"/>
     <use xlink:href="#DejaVuSans-34" x="4992.371094"/>
     <use xlink:href="#DejaVuSans-2d" x="5055.994141"/>
     <use xlink:href="#DejaVuSans-30" x="5092.078125"/>
     <use xlink:href="#DejaVuSans-32" x="5155.701172"/>
     <use xlink:href="#DejaVuSans-2d" x="5219.324219"/>
     <use xlink:href="#DejaVuSans-32" x="5255.408203"/>
     <use xlink:href="#DejaVuSans-38" x="5319.03125"/>
    </g>
   </g>
  </g>
 </g>
 <defs>
  <clipPath id="p36c6aa73ec">
   <rect x="144" y="69.12" width="892.8" height="443.52"/>
  </clipPath>
 </defs>
</svg>
