<?xml version="1.0" encoding="utf-8" standalone="no"?>
<!DOCTYPE svg PUBLIC "-//W3C//DTD SVG 1.1//EN"
  "http://www.w3.org/Graphics/SVG/1.1/DTD/svg11.dtd">
<svg xmlns:xlink="http://www.w3.org/1999/xlink" width="1152pt" height="576pt" viewBox="0 0 1152 576" xmlns="http://www.w3.org/2000/svg" version="1.1">
 <metadata>
  <rdf:RDF xmlns:dc="http://purl.org/dc/elements/1.1/" xmlns:cc="http://creativecommons.org/ns#" xmlns:rdf="http://www.w3.org/1999/02/22-rdf-syntax-ns#">
   <cc:Work>
    <dc:type rdf:resource="http://purl.org/dc/dcmitype/StillImage"/>
    <dc:date>1980-01-01T00:00:00+00:00</dc:date>
    <dc:format>image/svg+xml</dc:format>
    <dc:creator>
     <cc:Agent>
      <dc:title>Matplotlib v3.9.1, https://matplotlib.org/</dc:title>
     </cc:Agent>
    </dc:creator>
   </cc:Work>
  </rdf:RDF>
 </metadata>
 <defs>
  <style type="text/css">*{stroke-linejoin: round; stroke-linecap: butt}</style>
 </defs>
 <g id="figure_1">
  <g id="patch_1">
   <path d="M 0 576 
L 1152 576 
L 1152 0 
L 0 0 
z
" style="fill: #ffffff"/>
  </g>
  <g id="axes_1">
   <g id="patch_2">
    <path d="M 144 512.64 
L 1036.8 512.64 
L 1036.8 69.12 
L 144 69.12 
z
" style="fill: #ffffff"/>
   </g>
   <g id="matplotlib.axis_1">
    <g id="xtick_1">
     <g id="line2d_1">
      <defs>
       <path id="m43549cdf1f" d="M 0 0 
L 0 3.5 
" style="stroke: #000000; stroke-width: 0.8"/>
      </defs>
      <g>
       <use xlink:href="#m43549cdf1f" x="177.198272" y="512.64" style="stroke: #000000; stroke-width: 0.8"/>
      </g>
     </g>
     <g id="text_1">
      <!-- 2014 -->
      <g transform="translate(164.473272 527.238438) scale(0.1 -0.1)">
       <defs>
        <path id="DejaVuSans-32" d="M 1228 531 
L 3431 531 
L 3431 0 
L 469 0 
L 469 531 
Q 828 903 1448 1529 
Q 2069 2156 2228 2338 
Q 2531 2678 2651 2914 
Q 2772 3150 2772 3378 
Q 2772 3750 2511 3984 
Q 2250 4219 1831 4219 
Q 1534 4219 1204 4116 
Q 875 4013 500 3803 
L 500 4441 
Q 881 4594 1212 4672 
Q 1544 4750 1819 4750 
Q 2544 4750 2975 4387 
Q 3406 4025 3406 3419 
Q 3406 3131 3298 2873 
Q 3191 2616 2906 2266 
Q 2828 2175 2409 1742 
Q 1991 1309 1228 531 
z
" transform="scale(0.015625)"/>
        <path id="DejaVuSans-30" d="M 2034 4250 
Q 1547 4250 1301 3770 
Q 1056 3291 1056 2328 
Q 1056 1369 1301 889 
Q 1547 409 2034 409 
Q 2525 409 2770 889 
Q 3016 1369 3016 2328 
Q 3016 3291 2770 3770 
Q 2525 4250 2034 4250 
z
M 2034 4750 
Q 2819 4750 3233 4129 
Q 3647 3509 3647 2328 
Q 3647 1150 3233 529 
Q 2819 -91 2034 -91 
Q 1250 -91 836 529 
Q 422 1150 422 2328 
Q 422 3509 836 4129 
Q 1250 4750 2034 4750 
z
" transform="scale(0.015625)"/>
        <path id="DejaVuSans-31" d="M 794 531 
L 1825 531 
L 1825 4091 
L 703 3866 
L 703 4441 
L 1819 4666 
L 2450 4666 
L 2450 531 
L 3481 531 
L 3481 0 
L 794 0 
L 794 531 
z
" transform="scale(0.015625)"/>
        <path id="DejaVuSans-34" d="M 2419 4116 
L 825 1625 
L 2419 1625 
L 2419 4116 
z
M 2253 4666 
L 3047 4666 
L 3047 1625 
L 3713 1625 
L 3713 1100 
L 3047 1100 
L 3047 0 
L 2419 0 
L 2419 1100 
L 313 1100 
L 313 1709 
L 2253 4666 
z
" transform="scale(0.015625)"/>
       </defs>
       <use xlink:href="#DejaVuSans-32"/>
       <use xlink:href="#DejaVuSans-30" x="63.623047"/>
       <use xlink:href="#DejaVuSans-31" x="127.246094"/>
       <use xlink:href="#DejaVuSans-34" x="190.869141"/>
      </g>
     </g>
    </g>
    <g id="xtick_2">
     <g id="line2d_2">
      <g>
       <use xlink:href="#m43549cdf1f" x="311.947998" y="512.64" style="stroke: #000000; stroke-width: 0.8"/>
      </g>
     </g>
     <g id="text_2">
      <!-- 2016 -->
      <g transform="translate(299.222998 527.238438) scale(0.1 -0.1)">
       <defs>
        <path id="DejaVuSans-36" d="M 2113 2584 
Q 1688 2584 1439 2293 
Q 1191 2003 1191 1497 
Q 1191 994 1439 701 
Q 1688 409 2113 409 
Q 2538 409 2786 701 
Q 3034 994 3034 1497 
Q 3034 2003 2786 2293 
Q 2538 2584 2113 2584 
z
M 3366 4563 
L 3366 3988 
Q 3128 4100 2886 4159 
Q 2644 4219 2406 4219 
Q 1781 4219 1451 3797 
Q 1122 3375 1075 2522 
Q 1259 2794 1537 2939 
Q 1816 3084 2150 3084 
Q 2853 3084 3261 2657 
Q 3669 2231 3669 1497 
Q 3669 778 3244 343 
Q 2819 -91 2113 -91 
Q 1303 -91 875 529 
Q 447 1150 447 2328 
Q 447 3434 972 4092 
Q 1497 4750 2381 4750 
Q 2619 4750 2861 4703 
Q 3103 4656 3366 4563 
z
" transform="scale(0.015625)"/>
       </defs>
       <use xlink:href="#DejaVuSans-32"/>
       <use xlink:href="#DejaVuSans-30" x="63.623047"/>
       <use xlink:href="#DejaVuSans-31" x="127.246094"/>
       <use xlink:href="#DejaVuSans-36" x="190.869141"/>
      </g>
     </g>
    </g>
    <g id="xtick_3">
     <g id="line2d_3">
      <g>
       <use xlink:href="#m43549cdf1f" x="446.882312" y="512.64" style="stroke: #000000; stroke-width: 0.8"/>
      </g>
     </g>
     <g id="text_3">
      <!-- 2018 -->
      <g transform="translate(434.157312 527.238438) scale(0.1 -0.1)">
       <defs>
        <path id="DejaVuSans-38" d="M 2034 2216 
Q 1584 2216 1326 1975 
Q 1069 1734 1069 1313 
Q 1069 891 1326 650 
Q 1584 409 2034 409 
Q 2484 409 2743 651 
Q 3003 894 3003 1313 
Q 3003 1734 2745 1975 
Q 2488 2216 2034 2216 
z
M 1403 2484 
Q 997 2584 770 2862 
Q 544 3141 544 3541 
Q 544 4100 942 4425 
Q 1341 4750 2034 4750 
Q 2731 4750 3128 4425 
Q 3525 4100 3525 3541 
Q 3525 3141 3298 2862 
Q 3072 2584 2669 2484 
Q 3125 2378 3379 2068 
Q 3634 1759 3634 1313 
Q 3634 634 3220 271 
Q 2806 -91 2034 -91 
Q 1263 -91 848 271 
Q 434 634 434 1313 
Q 434 1759 690 2068 
Q 947 2378 1403 2484 
z
M 1172 3481 
Q 1172 3119 1398 2916 
Q 1625 2713 2034 2713 
Q 2441 2713 2670 2916 
Q 2900 3119 2900 3481 
Q 2900 3844 2670 4047 
Q 2441 4250 2034 4250 
Q 1625 4250 1398 4047 
Q 1172 3844 1172 3481 
z
" transform="scale(0.015625)"/>
       </defs>
       <use xlink:href="#DejaVuSans-32"/>
       <use xlink:href="#DejaVuSans-30" x="63.623047"/>
       <use xlink:href="#DejaVuSans-31" x="127.246094"/>
       <use xlink:href="#DejaVuSans-38" x="190.869141"/>
      </g>
     </g>
    </g>
    <g id="xtick_4">
     <g id="line2d_4">
      <g>
       <use xlink:href="#m43549cdf1f" x="581.632038" y="512.64" style="stroke: #000000; stroke-width: 0.8"/>
      </g>
     </g>
     <g id="text_4">
      <!-- 2020 -->
      <g transform="translate(568.907038 527.238438) scale(0.1 -0.1)">
       <use xlink:href="#DejaVuSans-32"/>
       <use xlink:href="#DejaVuSans-30" x="63.623047"/>
       <use xlink:href="#DejaVuSans-32" x="127.246094"/>
       <use xlink:href="#DejaVuSans-30" x="190.869141"/>
      </g>
     </g>
    </g>
    <g id="xtick_5">
     <g id="line2d_5">
      <g>
       <use xlink:href="#m43549cdf1f" x="716.566353" y="512.64" style="stroke: #000000; stroke-width: 0.8"/>
      </g>
     </g>
     <g id="text_5">
      <!-- 2022 -->
      <g transform="translate(703.841353 527.238438) scale(0.1 -0.1)">
       <use xlink:href="#DejaVuSans-32"/>
       <use xlink:href="#DejaVuSans-30" x="63.623047"/>
       <use xlink:href="#DejaVuSans-32" x="127.246094"/>
       <use xlink:href="#DejaVuSans-32" x="190.869141"/>
      </g>
     </g>
    </g>
    <g id="xtick_6">
     <g id="line2d_6">
      <g>
       <use xlink:href="#m43549cdf1f" x="851.316079" y="512.64" style="stroke: #000000; stroke-width: 0.8"/>
      </g>
     </g>
     <g id="text_6">
      <!-- 2024 -->
      <g transform="translate(838.591079 527.238438) scale(0.1 -0.1)">
       <use xlink:href="#DejaVuSans-32"/>
       <use xlink:href="#DejaVuSans-30" x="63.623047"/>
       <use xlink:href="#DejaVuSans-32" x="127.246094"/>
       <use xlink:href="#DejaVuSans-34" x="190.869141"/>
      </g>
     </g>
    </g>
    <g id="xtick_7">
     <g id="line2d_7">
      <g>
       <use xlink:href="#m43549cdf1f" x="986.250394" y="512.64" style="stroke: #000000; stroke-width: 0.8"/>
      </g>
     </g>
     <g id="text_7">
      <!-- 2026 -->
      <g transform="translate(973.525394 527.238438) scale(0.1 -0.1)">
       <use xlink:href="#DejaVuSans-32"/>
       <use xlink:href="#DejaVuSans-30" x="63.623047"/>
       <use xlink:href="#DejaVuSans-32" x="127.246094"/>
       <use xlink:href="#DejaVuSans-36" x="190.869141"/>
      </g>
     </g>
    </g>
   </g>
   <g id="matplotlib.axis_2">
    <g id="ytick_1">
     <g id="line2d_8">
      <defs>
       <path id="mb5e6861ad8" d="M 0 0 
L -3.5 0 
" style="stroke: #000000; stroke-width: 0.8"/>
      </defs>
      <g>
       <use xlink:href="#mb5e6861ad8" x="144" y="492.508092" style="stroke: #000000; stroke-width: 0.8"/>
      </g>
     </g>
     <g id="text_8">
      <!-- 0 -->
      <g transform="translate(130.6375 496.30731) scale(0.1 -0.1)">
       <use xlink:href="#DejaVuSans-30"/>
      </g>
     </g>
    </g>
    <g id="ytick_2">
     <g id="line2d_9">
      <g>
       <use xlink:href="#mb5e6861ad8" x="144" y="436.324715" style="stroke: #000000; stroke-width: 0.8"/>
      </g>
     </g>
     <g id="text_9">
      <!-- 2000 -->
      <g transform="translate(111.55 440.123934) scale(0.1 -0.1)">
       <use xlink:href="#DejaVuSans-32"/>
       <use xlink:href="#DejaVuSans-30" x="63.623047"/>
       <use xlink:href="#DejaVuSans-30" x="127.246094"/>
       <use xlink:href="#DejaVuSans-30" x="190.869141"/>
      </g>
     </g>
    </g>
    <g id="ytick_3">
     <g id="line2d_10">
      <g>
       <use xlink:href="#mb5e6861ad8" x="144" y="380.141339" style="stroke: #000000; stroke-width: 0.8"/>
      </g>
     </g>
     <g id="text_10">
      <!-- 4000 -->
      <g transform="translate(111.55 383.940558) scale(0.1 -0.1)">
       <use xlink:href="#DejaVuSans-34"/>
       <use xlink:href="#DejaVuSans-30" x="63.623047"/>
       <use xlink:href="#DejaVuSans-30" x="127.246094"/>
       <use xlink:href="#DejaVuSans-30" x="190.869141"/>
      </g>
     </g>
    </g>
    <g id="ytick_4">
     <g id="line2d_11">
      <g>
       <use xlink:href="#mb5e6861ad8" x="144" y="323.957963" style="stroke: #000000; stroke-width: 0.8"/>
      </g>
     </g>
     <g id="text_11">
      <!-- 6000 -->
      <g transform="translate(111.55 327.757182) scale(0.1 -0.1)">
       <use xlink:href="#DejaVuSans-36"/>
       <use xlink:href="#DejaVuSans-30" x="63.623047"/>
       <use xlink:href="#DejaVuSans-30" x="127.246094"/>
       <use xlink:href="#DejaVuSans-30" x="190.869141"/>
      </g>
     </g>
    </g>
    <g id="ytick_5">
     <g id="line2d_12">
      <g>
       <use xlink:href="#mb5e6861ad8" x="144" y="267.774586" style="stroke: #000000; stroke-width: 0.8"/>
      </g>
     </g>
     <g id="text_12">
      <!-- 8000 -->
      <g transform="translate(111.55 271.573805) scale(0.1 -0.1)">
       <use xlink:href="#DejaVuSans-38"/>
       <use xlink:href="#DejaVuSans-30" x="63.623047"/>
       <use xlink:href="#DejaVuSans-30" x="127.246094"/>
       <use xlink:href="#DejaVuSans-30" x="190.869141"/>
      </g>
     </g>
    </g>
    <g id="ytick_6">
     <g id="line2d_13">
      <g>
       <use xlink:href="#mb5e6861ad8" x="144" y="211.59121" style="stroke: #000000; stroke-width: 0.8"/>
      </g>
     </g>
     <g id="text_13">
      <!-- 10000 -->
      <g transform="translate(105.1875 215.390429) scale(0.1 -0.1)">
       <use xlink:href="#DejaVuSans-31"/>
       <use xlink:href="#DejaVuSans-30" x="63.623047"/>
       <use xlink:href="#DejaVuSans-30" x="127.246094"/>
       <use xlink:href="#DejaVuSans-30" x="190.869141"/>
       <use xlink:href="#DejaVuSans-30" x="254.492188"/>
      </g>
     </g>
    </g>
    <g id="ytick_7">
     <g id="line2d_14">
      <g>
       <use xlink:href="#mb5e6861ad8" x="144" y="155.407834" style="stroke: #000000; stroke-width: 0.8"/>
      </g>
     </g>
     <g id="text_14">
      <!-- 12000 -->
      <g transform="translate(105.1875 159.207053) scale(0.1 -0.1)">
       <use xlink:href="#DejaVuSans-31"/>
       <use xlink:href="#DejaVuSans-32" x="63.623047"/>
       <use xlink:href="#DejaVuSans-30" x="127.246094"/>
       <use xlink:href="#DejaVuSans-30" x="190.869141"/>
       <use xlink:href="#DejaVuSans-30" x="254.492188"/>
      </g>
     </g>
    </g>
    <g id="ytick_8">
     <g id="line2d_15">
      <g>
       <use xlink:href="#mb5e6861ad8" x="144" y="99.224458" style="stroke: #000000; stroke-width: 0.8"/>
      </g>
     </g>
     <g id="text_15">
      <!-- 14000 -->
      <g transform="translate(105.1875 103.023676) scale(0.1 -0.1)">
       <use xlink:href="#DejaVuSans-31"/>
       <use xlink:href="#DejaVuSans-34" x="63.623047"/>
       <use xlink:href="#DejaVuSans-30" x="127.246094"/>
       <use xlink:href="#DejaVuSans-30" x="190.869141"/>
       <use xlink:href="#DejaVuSans-30" x="254.492188"/>
      </g>
     </g>
    </g>
   </g>
   <g id="line2d_16">
    <path d="M 184.581818 492.48 
L 186.243116 492.423817 
L 285.736407 492.283358 
L 452.78915 492.114808 
L 486.938053 492.002441 
L 500.043848 491.918166 
L 531.977687 491.749616 
L 535.115695 491.693433 
L 558.189278 491.581066 
L 587.723464 491.412516 
L 588.092642 491.187782 
L 591.969004 491.047324 
L 626.117907 490.906865 
L 650.668199 490.766407 
L 664.881527 490.569765 
L 692.569827 489.867473 
L 699.03043 489.502281 
L 708.62904 489.305639 
L 713.059168 488.294338 
L 713.243757 488.181972 
L 714.905055 488.097697 
L 715.64341 487.704413 
L 715.827998 487.058304 
L 716.197176 486.889754 
L 716.381764 486.861662 
L 716.566353 485.962728 
L 717.673885 485.569445 
L 718.043062 485.091886 
L 718.41224 484.951428 
L 718.596828 484.614327 
L 718.781417 483.855852 
L 719.150594 483.237835 
L 719.335183 482.423176 
L 719.519772 480.878133 
L 720.073538 479.866832 
L 720.442715 474.83842 
L 720.627304 474.304678 
L 720.996481 471.074134 
L 721.18107 470.540392 
L 721.365658 469.135807 
L 721.550247 469.051532 
L 722.104013 467.309847 
L 722.288602 463.348919 
L 722.47319 463.011819 
L 722.842368 461.916243 
L 723.026956 461.831968 
L 723.211545 461.242043 
L 723.396134 458.517149 
L 723.580722 457.87104 
L 723.765311 457.842949 
L 723.9499 455.87653 
L 724.134488 455.623705 
L 724.503666 455.483247 
L 725.24202 453.685379 
L 725.611198 453.123545 
L 726.164964 451.606594 
L 726.534141 447.392841 
L 726.903318 445.398331 
L 727.457084 445.314056 
L 727.826262 445.117414 
L 728.564616 444.021838 
L 728.933794 443.965655 
L 729.302971 441.71832 
L 729.672148 441.549769 
L 729.856737 441.296944 
L 730.041326 440.285643 
L 730.410503 439.976635 
L 730.595092 439.836176 
L 730.77968 439.358618 
L 731.333446 439.190068 
L 731.702624 438.937242 
L 732.071801 437.89785 
L 732.25639 437.813575 
L 732.625567 437.3922 
L 733.363922 437.083191 
L 733.54851 436.128074 
L 733.917688 435.931432 
L 734.102276 434.105472 
L 734.471454 434.049289 
L 734.840631 433.515547 
L 735.02522 432.981805 
L 735.578986 432.869438 
L 735.763574 432.700888 
L 736.132752 432.167146 
L 736.31734 432.139054 
L 736.686518 431.717679 
L 737.055695 431.605312 
L 737.240284 430.341186 
L 738.347816 430.200727 
L 738.716993 429.975994 
L 739.455348 429.891719 
L 739.639936 429.779352 
L 742.224178 429.133243 
L 742.593355 428.90851 
L 743.516298 428.796143 
L 744.254653 428.459043 
L 746.10054 428.121942 
L 746.838894 426.099341 
L 747.761838 425.986974 
L 747.946426 425.930791 
L 749.423136 425.790332 
L 750.16149 425.537507 
L 751.269022 425.397049 
L 753.484086 424.638573 
L 753.668675 424.470023 
L 754.40703 424.245289 
L 755.329973 424.189106 
L 755.514562 423.992464 
L 755.883739 423.964373 
L 756.068328 423.542997 
L 756.252916 423.486814 
L 756.437505 422.896888 
L 759.206335 422.391238 
L 759.390924 422.054138 
L 760.683044 421.773221 
L 761.23681 421.604671 
L 761.975165 421.464212 
L 762.71352 421.295662 
L 763.636463 421.127112 
L 765.48235 420.452912 
L 765.666938 419.891078 
L 766.589882 419.301152 
L 766.77447 419.048327 
L 767.697414 418.402218 
L 768.066591 417.812293 
L 768.25118 417.784201 
L 768.620357 417.166184 
L 769.358712 416.4358 
L 769.912478 416.351525 
L 770.281655 416.0987 
L 770.466244 416.014425 
L 770.650832 415.733508 
L 771.573776 415.536866 
L 771.758364 415.284041 
L 773.604251 414.975032 
L 773.788839 414.834574 
L 774.711783 414.722207 
L 775.819315 414.328924 
L 776.557669 414.188465 
L 776.926847 413.710906 
L 777.296024 413.514265 
L 778.218967 412.952431 
L 778.403556 412.306322 
L 779.326499 412.053497 
L 781.541563 411.014104 
L 781.726152 410.733187 
L 782.279918 410.564637 
L 782.649095 410.367996 
L 783.202861 410.199445 
L 783.572039 407.306002 
L 783.756627 406.378976 
L 783.941216 404.693475 
L 784.125805 404.496833 
L 784.679571 402.727056 
L 785.233337 401.856214 
L 785.602514 401.631481 
L 785.787103 401.46293 
L 785.971691 400.62018 
L 786.15628 400.311171 
L 786.525457 400.226896 
L 787.079223 399.552696 
L 787.263812 399.047045 
L 787.817578 398.45712 
L 788.002167 397.698644 
L 788.92511 396.378335 
L 789.848053 395.985051 
L 790.032642 395.254667 
L 790.586408 395.001842 
L 791.324763 394.271458 
L 791.509351 393.737716 
L 791.878529 393.569166 
L 792.247706 393.175882 
L 792.616883 393.147791 
L 792.801472 392.866874 
L 793.170649 392.698324 
L 793.724415 392.248857 
L 794.093593 392.052215 
L 794.278181 391.574656 
L 795.570302 390.703814 
L 795.754891 390.619539 
L 796.124068 389.580146 
L 796.677834 389.383504 
L 797.2316 389.243046 
L 797.600777 388.737396 
L 797.969955 388.48457 
L 798.523721 387.669912 
L 799.815841 387.360903 
L 800.369607 386.602427 
L 801.107962 386.461969 
L 802.030905 385.872043 
L 802.215494 385.843952 
L 802.76926 385.450668 
L 803.138437 385.338301 
L 803.507615 385.31021 
L 803.692203 385.14166 
L 803.876792 384.692193 
L 804.615147 384.495551 
L 804.799735 384.242726 
L 804.984324 384.214634 
L 805.168913 383.708983 
L 805.907267 383.48425 
L 806.276445 383.399975 
L 806.645622 383.14715 
L 808.676097 382.416766 
L 808.860686 381.686382 
L 809.229863 381.433557 
L 809.783629 381.265007 
L 810.337395 380.98409 
L 811.07575 380.871723 
L 811.260339 380.113247 
L 811.814105 379.888514 
L 811.998693 379.719964 
L 812.737048 379.579505 
L 812.921637 379.467139 
L 813.290814 379.410955 
L 813.475403 379.186222 
L 814.213757 378.961488 
L 814.398346 378.65248 
L 814.767523 378.624388 
L 815.136701 378.427746 
L 815.690467 378.174921 
L 815.875055 377.837821 
L 817.167176 377.50072 
L 817.351765 377.33217 
L 817.905531 377.191712 
L 818.090119 376.938887 
L 818.274708 376.910795 
L 818.643885 376.686061 
L 819.013063 376.545603 
L 819.197651 376.405145 
L 820.305183 376.180411 
L 820.489772 375.871402 
L 821.043538 375.730944 
L 821.597304 375.646669 
L 821.966481 375.393844 
L 822.520247 375.253385 
L 822.889425 375.141019 
L 823.074013 374.944377 
L 823.443191 374.888193 
L 823.627779 374.410635 
L 823.812368 374.32636 
L 824.735311 373.202692 
L 824.9199 373.118417 
L 825.104489 372.893684 
L 825.473666 372.725133 
L 826.212021 372.219483 
L 826.581198 372.107116 
L 826.765787 371.798108 
L 827.319553 371.517191 
L 827.68873 371.320549 
L 828.242496 371.180091 
L 828.796262 370.758715 
L 829.165439 370.50589 
L 829.534617 370.224973 
L 830.272971 369.747414 
L 831.749681 369.269856 
L 832.488035 368.736114 
L 833.041801 368.483289 
L 834.703099 367.921455 
L 835.072277 367.696721 
L 835.626043 367.556263 
L 836.179809 367.275346 
L 836.733575 367.134887 
L 837.287341 366.910154 
L 838.394873 366.657329 
L 838.948639 366.460687 
L 839.133227 366.17977 
L 841.53288 365.365111 
L 841.902057 365.196561 
L 842.271235 365.140378 
L 842.640412 364.775186 
L 842.825001 363.595335 
L 843.194178 363.314418 
L 843.563355 363.173959 
L 844.117121 362.499759 
L 844.486299 362.246934 
L 844.855476 361.488458 
L 845.224653 361.291816 
L 845.593831 361.123266 
L 845.963008 361.038991 
L 846.332185 360.814258 
L 846.516774 360.701891 
L 847.439717 360.505249 
L 847.808894 360.168149 
L 848.36266 359.774865 
L 848.731838 359.662498 
L 849.101015 359.325398 
L 850.208547 358.623106 
L 850.577724 358.595014 
L 850.762313 358.342189 
L 851.500668 358.173639 
L 851.685256 357.611805 
L 852.054434 357.330888 
L 852.977377 357.078063 
L 853.161966 356.993788 
L 853.346554 356.600504 
L 853.715732 356.488138 
L 853.90032 356.151037 
L 854.454086 355.785845 
L 854.823264 355.617295 
L 855.192441 355.53302 
L 855.561618 355.336378 
L 855.746207 355.308287 
L 856.115384 355.111645 
L 856.853739 354.746453 
L 857.222916 354.100344 
L 858.699626 353.454235 
L 858.884214 352.948585 
L 859.43798 352.780035 
L 859.991746 352.190109 
L 860.176335 352.133926 
L 860.545512 351.881101 
L 860.730101 351.853009 
L 861.099278 351.431634 
L 861.468456 351.234992 
L 862.20681 350.954075 
L 862.391399 350.673158 
L 862.760576 350.616975 
L 862.945165 350.420333 
L 863.129754 350.392241 
L 863.314342 349.830408 
L 863.868108 349.661857 
L 864.052697 349.577582 
L 864.421874 349.240482 
L 864.606463 349.128115 
L 865.160229 348.510098 
L 866.636938 347.695439 
L 867.375293 347.470706 
L 867.74447 347.04933 
L 867.929059 346.993147 
L 868.852002 346.290855 
L 869.405768 346.066121 
L 869.774946 345.897571 
L 869.959534 345.86948 
L 870.144123 345.307646 
L 870.697889 344.970546 
L 870.882478 344.436803 
L 871.251655 344.21207 
L 871.436244 343.987336 
L 871.620832 343.959245 
L 872.359187 343.341228 
L 873.097542 343.060311 
L 873.466719 342.807486 
L 874.574251 342.358019 
L 875.312606 341.515268 
L 876.05096 341.121984 
L 876.235549 340.925342 
L 876.420138 340.897251 
L 876.604726 340.588242 
L 879.004379 339.408391 
L 879.373556 339.211749 
L 879.927322 339.015108 
L 880.481088 338.874649 
L 881.404032 338.256632 
L 882.696152 337.55434 
L 883.249918 337.329606 
L 884.726628 336.767773 
L 884.911216 335.756472 
L 885.464982 335.531738 
L 885.649571 335.278913 
L 885.83416 335.250821 
L 886.572514 334.211429 
L 886.757103 334.127154 
L 886.941692 333.790054 
L 887.310869 333.677687 
L 888.049224 332.750661 
L 888.418401 331.486535 
L 888.60299 331.093252 
L 888.972167 329.098742 
L 889.156756 328.255991 
L 890.079699 327.300874 
L 890.818054 324.800713 
L 891.002642 324.660255 
L 891.187231 324.295063 
L 891.37182 322.974754 
L 891.556408 322.58147 
L 891.740997 322.553378 
L 891.925586 321.935361 
L 892.479352 321.626353 
L 892.848529 320.75551 
L 894.879004 319.800393 
L 895.43277 319.210467 
L 895.801948 318.648634 
L 896.171125 318.536267 
L 896.540302 318.395809 
L 896.90948 318.199167 
L 897.278657 318.030617 
L 898.386189 317.7497 
L 899.67831 317.272141 
L 900.232076 316.766491 
L 900.601253 316.513665 
L 900.97043 316.401299 
L 901.155019 316.288932 
L 901.339608 316.036107 
L 902.077962 315.783282 
L 902.262551 315.699006 
L 902.44714 315.080989 
L 903.000906 314.715797 
L 903.554672 314.519156 
L 903.73926 314.322514 
L 904.293026 314.125872 
L 905.585147 313.535946 
L 906.138913 313.030296 
L 906.323502 312.637012 
L 906.692679 312.496554 
L 907.246445 311.569528 
L 907.431034 311.035786 
L 907.800211 310.811053 
L 908.353977 310.473952 
L 908.538566 310.221127 
L 908.907743 309.125551 
L 909.092332 308.900818 
L 909.27692 308.310892 
L 909.461509 308.254709 
L 909.646098 307.77715 
L 910.015275 307.6086 
L 911.122807 306.737758 
L 911.307396 306.344474 
L 911.861162 306.147833 
L 912.968694 305.726457 
L 913.153282 305.698365 
L 913.337871 305.10844 
L 914.076226 304.60279 
L 914.81458 304.378056 
L 915.552935 303.900497 
L 916.845056 302.973472 
L 917.029644 302.720647 
L 917.214233 302.158813 
L 918.321765 301.737437 
L 918.690942 301.316062 
L 919.06012 301.231787 
L 919.244708 300.894687 
L 919.613886 300.754228 
L 919.798474 300.473312 
L 921.828949 299.433919 
L 922.936481 298.310252 
L 923.12107 297.748418 
L 923.490247 297.270859 
L 923.674836 296.96185 
L 924.413191 293.647031 
L 924.782368 292.972831 
L 924.966957 292.635731 
L 925.151545 291.146871 
L 925.336134 288.309611 
L 926.628255 280.47203 
L 926.997432 276.65156 
L 927.366609 276.174001 
L 927.735787 271.229864 
L 927.920375 269.937646 
L 928.289553 264.572134 
L 928.65873 263.532742 
L 928.843319 260.723573 
L 929.027907 260.217922 
L 929.397085 257.155928 
L 929.766262 248.896972 
L 929.950851 248.475597 
L 930.135439 247.689029 
L 930.320028 245.160778 
L 930.504617 244.964136 
L 930.873794 240.722291 
L 931.242971 240.525649 
L 931.612149 239.739082 
L 931.796737 239.570532 
L 931.981326 239.177248 
L 932.165915 238.390681 
L 932.535092 238.222131 
L 933.088858 236.733271 
L 933.458035 234.598303 
L 933.642624 234.205019 
L 933.827213 234.148836 
L 934.011801 233.952194 
L 934.934745 231.957684 
L 935.119333 231.901501 
L 935.488511 231.367759 
L 935.857688 231.2273 
L 936.042277 230.805925 
L 936.226865 230.665466 
L 936.596043 230.244091 
L 936.96522 229.963174 
L 937.518986 229.513707 
L 937.703575 229.485616 
L 938.257341 228.951873 
L 938.811107 228.586682 
L 940.472405 227.996756 
L 941.210759 227.603472 
L 942.318291 227.154005 
L 942.50288 226.760722 
L 943.425823 226.535988 
L 944.164178 226.002246 
L 944.717944 225.496596 
L 945.087121 225.131404 
L 945.825476 224.90667 
L 946.379242 224.56957 
L 946.748419 224.316745 
L 947.117597 224.06392 
L 947.486774 223.867278 
L 947.671363 223.221169 
L 948.963483 222.350327 
L 949.517249 221.985135 
L 950.624781 221.395209 
L 950.80937 221.254751 
L 951.363136 221.198568 
L 951.732313 220.383909 
L 951.916902 220.299634 
L 952.286079 219.850167 
L 953.024434 219.204058 
L 953.209023 219.119783 
L 953.762789 218.41749 
L 953.947377 217.855657 
L 954.131966 217.715198 
L 954.501143 217.659015 
L 954.870321 217.321915 
L 955.608675 216.984814 
L 956.34703 216.647714 
L 956.716207 216.198247 
L 956.900796 216.170155 
L 957.085385 212.883428 
L 957.454562 212.433961 
L 957.823739 212.124952 
L 958.008328 211.787852 
L 958.192917 211.75976 
L 958.562094 211.394568 
L 958.746683 210.860826 
L 959.854215 209.76525 
L 960.038803 209.484334 
L 960.407981 207.911199 
L 960.592569 207.405549 
L 960.777158 206.562798 
L 960.961747 206.309973 
L 961.146335 205.242489 
L 961.515513 204.371646 
L 961.700101 203.697446 
L 962.438456 202.910879 
L 962.807633 202.461412 
L 963.176811 202.068128 
L 963.730577 201.899578 
L 964.284343 201.393927 
L 964.838109 200.523085 
L 965.022697 200.466902 
L 965.391875 200.10171 
L 965.576463 199.93316 
L 965.945641 199.258959 
L 966.314818 198.865675 
L 966.499407 197.93865 
L 967.791527 197.095899 
L 969.083648 195.494673 
L 969.452825 194.595739 
L 969.637414 194.427189 
L 970.19118 193.247338 
L 970.375769 193.163063 
L 971.298712 190.943819 
L 971.852478 190.12916 
L 972.406244 189.820152 
L 972.590833 189.342593 
L 973.513776 188.471751 
L 973.882953 187.376175 
L 974.621308 185.269298 
L 974.805897 183.808531 
L 974.990485 183.583797 
L 975.175074 182.347763 
L 975.544251 181.842112 
L 975.72884 181.392645 
L 976.098017 179.257677 
L 976.467195 178.443018 
L 976.651783 178.274468 
L 976.836372 171.111088 
L 977.020961 168.33001 
L 977.205549 152.036831 
L 977.759315 150.941255 
L 977.943904 150.772705 
L 978.313081 149.452396 
L 978.682259 148.553462 
L 979.789791 141.783365 
L 980.343557 140.406872 
L 980.528145 138.721371 
L 980.897323 138.131446 
L 981.2665 136.811136 
L 981.451089 135.153727 
L 981.635677 134.760443 
L 982.004855 133.608684 
L 982.558621 132.737842 
L 982.743209 132.653567 
L 983.666153 129.198289 
L 984.219919 127.681338 
L 984.589096 125.630644 
L 984.773685 125.574461 
L 984.958273 125.377819 
L 985.142862 125.349728 
L 985.512039 124.956444 
L 985.881217 123.973235 
L 986.250394 123.608043 
L 986.434983 123.130484 
L 986.80416 122.034908 
L 986.988749 121.89445 
L 987.357926 120.967424 
L 987.727103 119.281923 
L 987.911692 119.001006 
L 988.096281 118.944823 
L 988.465458 117.118863 
L 988.650047 116.753671 
L 989.203813 114.534428 
L 989.388401 114.225419 
L 990.680522 109.225099 
L 990.865111 109.08464 
L 991.603465 104.92707 
L 991.788054 104.814704 
L 991.972643 104.505695 
L 992.895586 101.696526 
L 993.080174 101.387518 
L 993.264763 100.291942 
L 993.449352 99.92675 
L 993.818529 98.353615 
L 994.003118 98.016515 
L 994.556884 96.10628 
L 994.741472 94.729788 
L 994.926061 94.476962 
L 995.849004 91.414968 
L 996.218182 89.28 
L 996.218182 89.28 
" clip-path="url(#p2e6872e22b)" style="fill: none; stroke: #1f77b4; stroke-width: 1.5; stroke-linecap: square"/>
   </g>
   <g id="patch_3">
    <path d="M 144 512.64 
L 144 69.12 
" style="fill: none; stroke: #000000; stroke-width: 0.8; stroke-linejoin: miter; stroke-linecap: square"/>
   </g>
   <g id="patch_4">
    <path d="M 1036.8 512.64 
L 1036.8 69.12 
" style="fill: none; stroke: #000000; stroke-width: 0.8; stroke-linejoin: miter; stroke-linecap: square"/>
   </g>
   <g id="patch_5">
    <path d="M 144 512.64 
L 1036.8 512.64 
" style="fill: none; stroke: #000000; stroke-width: 0.8; stroke-linejoin: miter; stroke-linecap: square"/>
   </g>
   <g id="patch_6">
    <path d="M 144 69.12 
L 1036.8 69.12 
" style="fill: none; stroke: #000000; stroke-width: 0.8; stroke-linejoin: miter; stroke-linecap: square"/>
   </g>
   <g id="text_16">
    <!-- Number of AEDs in the OpenStreetMap database in Poland from first edition, day by day. As at: 2026-02-24 -->
    <g transform="translate(144 63.12) scale(0.14 -0.14)">
     <defs>
      <path id="DejaVuSans-4e" d="M 628 4666 
L 1478 4666 
L 3547 763 
L 3547 4666 
L 4159 4666 
L 4159 0 
L 3309 0 
L 1241 3903 
L 1241 0 
L 628 0 
L 628 4666 
z
" transform="scale(0.015625)"/>
      <path id="DejaVuSans-75" d="M 544 1381 
L 544 3500 
L 1119 3500 
L 1119 1403 
Q 1119 906 1312 657 
Q 1506 409 1894 409 
Q 2359 409 2629 706 
Q 2900 1003 2900 1516 
L 2900 3500 
L 3475 3500 
L 3475 0 
L 2900 0 
L 2900 538 
Q 2691 219 2414 64 
Q 2138 -91 1772 -91 
Q 1169 -91 856 284 
Q 544 659 544 1381 
z
M 1991 3584 
L 1991 3584 
z
" transform="scale(0.015625)"/>
      <path id="DejaVuSans-6d" d="M 3328 2828 
Q 3544 3216 3844 3400 
Q 4144 3584 4550 3584 
Q 5097 3584 5394 3201 
Q 5691 2819 5691 2113 
L 5691 0 
L 5113 0 
L 5113 2094 
Q 5113 2597 4934 2840 
Q 4756 3084 4391 3084 
Q 3944 3084 3684 2787 
Q 3425 2491 3425 1978 
L 3425 0 
L 2847 0 
L 2847 2094 
Q 2847 2600 2669 2842 
Q 2491 3084 2119 3084 
Q 1678 3084 1418 2786 
Q 1159 2488 1159 1978 
L 1159 0 
L 581 0 
L 581 3500 
L 1159 3500 
L 1159 2956 
Q 1356 3278 1631 3431 
Q 1906 3584 2284 3584 
Q 2666 3584 2933 3390 
Q 3200 3197 3328 2828 
z
" transform="scale(0.015625)"/>
      <path id="DejaVuSans-62" d="M 3116 1747 
Q 3116 2381 2855 2742 
Q 2594 3103 2138 3103 
Q 1681 3103 1420 2742 
Q 1159 2381 1159 1747 
Q 1159 1113 1420 752 
Q 1681 391 2138 391 
Q 2594 391 2855 752 
Q 3116 1113 3116 1747 
z
M 1159 2969 
Q 1341 3281 1617 3432 
Q 1894 3584 2278 3584 
Q 2916 3584 3314 3078 
Q 3713 2572 3713 1747 
Q 3713 922 3314 415 
Q 2916 -91 2278 -91 
Q 1894 -91 1617 61 
Q 1341 213 1159 525 
L 1159 0 
L 581 0 
L 581 4863 
L 1159 4863 
L 1159 2969 
z
" transform="scale(0.015625)"/>
      <path id="DejaVuSans-65" d="M 3597 1894 
L 3597 1613 
L 953 1613 
Q 991 1019 1311 708 
Q 1631 397 2203 397 
Q 2534 397 2845 478 
Q 3156 559 3463 722 
L 3463 178 
Q 3153 47 2828 -22 
Q 2503 -91 2169 -91 
Q 1331 -91 842 396 
Q 353 884 353 1716 
Q 353 2575 817 3079 
Q 1281 3584 2069 3584 
Q 2775 3584 3186 3129 
Q 3597 2675 3597 1894 
z
M 3022 2063 
Q 3016 2534 2758 2815 
Q 2500 3097 2075 3097 
Q 1594 3097 1305 2825 
Q 1016 2553 972 2059 
L 3022 2063 
z
" transform="scale(0.015625)"/>
      <path id="DejaVuSans-72" d="M 2631 2963 
Q 2534 3019 2420 3045 
Q 2306 3072 2169 3072 
Q 1681 3072 1420 2755 
Q 1159 2438 1159 1844 
L 1159 0 
L 581 0 
L 581 3500 
L 1159 3500 
L 1159 2956 
Q 1341 3275 1631 3429 
Q 1922 3584 2338 3584 
Q 2397 3584 2469 3576 
Q 2541 3569 2628 3553 
L 2631 2963 
z
" transform="scale(0.015625)"/>
      <path id="DejaVuSans-20" transform="scale(0.015625)"/>
      <path id="DejaVuSans-6f" d="M 1959 3097 
Q 1497 3097 1228 2736 
Q 959 2375 959 1747 
Q 959 1119 1226 758 
Q 1494 397 1959 397 
Q 2419 397 2687 759 
Q 2956 1122 2956 1747 
Q 2956 2369 2687 2733 
Q 2419 3097 1959 3097 
z
M 1959 3584 
Q 2709 3584 3137 3096 
Q 3566 2609 3566 1747 
Q 3566 888 3137 398 
Q 2709 -91 1959 -91 
Q 1206 -91 779 398 
Q 353 888 353 1747 
Q 353 2609 779 3096 
Q 1206 3584 1959 3584 
z
" transform="scale(0.015625)"/>
      <path id="DejaVuSans-66" d="M 2375 4863 
L 2375 4384 
L 1825 4384 
Q 1516 4384 1395 4259 
Q 1275 4134 1275 3809 
L 1275 3500 
L 2222 3500 
L 2222 3053 
L 1275 3053 
L 1275 0 
L 697 0 
L 697 3053 
L 147 3053 
L 147 3500 
L 697 3500 
L 697 3744 
Q 697 4328 969 4595 
Q 1241 4863 1831 4863 
L 2375 4863 
z
" transform="scale(0.015625)"/>
      <path id="DejaVuSans-41" d="M 2188 4044 
L 1331 1722 
L 3047 1722 
L 2188 4044 
z
M 1831 4666 
L 2547 4666 
L 4325 0 
L 3669 0 
L 3244 1197 
L 1141 1197 
L 716 0 
L 50 0 
L 1831 4666 
z
" transform="scale(0.015625)"/>
      <path id="DejaVuSans-45" d="M 628 4666 
L 3578 4666 
L 3578 4134 
L 1259 4134 
L 1259 2753 
L 3481 2753 
L 3481 2222 
L 1259 2222 
L 1259 531 
L 3634 531 
L 3634 0 
L 628 0 
L 628 4666 
z
" transform="scale(0.015625)"/>
      <path id="DejaVuSans-44" d="M 1259 4147 
L 1259 519 
L 2022 519 
Q 2988 519 3436 956 
Q 3884 1394 3884 2338 
Q 3884 3275 3436 3711 
Q 2988 4147 2022 4147 
L 1259 4147 
z
M 628 4666 
L 1925 4666 
Q 3281 4666 3915 4102 
Q 4550 3538 4550 2338 
Q 4550 1131 3912 565 
Q 3275 0 1925 0 
L 628 0 
L 628 4666 
z
" transform="scale(0.015625)"/>
      <path id="DejaVuSans-73" d="M 2834 3397 
L 2834 2853 
Q 2591 2978 2328 3040 
Q 2066 3103 1784 3103 
Q 1356 3103 1142 2972 
Q 928 2841 928 2578 
Q 928 2378 1081 2264 
Q 1234 2150 1697 2047 
L 1894 2003 
Q 2506 1872 2764 1633 
Q 3022 1394 3022 966 
Q 3022 478 2636 193 
Q 2250 -91 1575 -91 
Q 1294 -91 989 -36 
Q 684 19 347 128 
L 347 722 
Q 666 556 975 473 
Q 1284 391 1588 391 
Q 1994 391 2212 530 
Q 2431 669 2431 922 
Q 2431 1156 2273 1281 
Q 2116 1406 1581 1522 
L 1381 1569 
Q 847 1681 609 1914 
Q 372 2147 372 2553 
Q 372 3047 722 3315 
Q 1072 3584 1716 3584 
Q 2034 3584 2315 3537 
Q 2597 3491 2834 3397 
z
" transform="scale(0.015625)"/>
      <path id="DejaVuSans-69" d="M 603 3500 
L 1178 3500 
L 1178 0 
L 603 0 
L 603 3500 
z
M 603 4863 
L 1178 4863 
L 1178 4134 
L 603 4134 
L 603 4863 
z
" transform="scale(0.015625)"/>
      <path id="DejaVuSans-6e" d="M 3513 2113 
L 3513 0 
L 2938 0 
L 2938 2094 
Q 2938 2591 2744 2837 
Q 2550 3084 2163 3084 
Q 1697 3084 1428 2787 
Q 1159 2491 1159 1978 
L 1159 0 
L 581 0 
L 581 3500 
L 1159 3500 
L 1159 2956 
Q 1366 3272 1645 3428 
Q 1925 3584 2291 3584 
Q 2894 3584 3203 3211 
Q 3513 2838 3513 2113 
z
" transform="scale(0.015625)"/>
      <path id="DejaVuSans-74" d="M 1172 4494 
L 1172 3500 
L 2356 3500 
L 2356 3053 
L 1172 3053 
L 1172 1153 
Q 1172 725 1289 603 
Q 1406 481 1766 481 
L 2356 481 
L 2356 0 
L 1766 0 
Q 1100 0 847 248 
Q 594 497 594 1153 
L 594 3053 
L 172 3053 
L 172 3500 
L 594 3500 
L 594 4494 
L 1172 4494 
z
" transform="scale(0.015625)"/>
      <path id="DejaVuSans-68" d="M 3513 2113 
L 3513 0 
L 2938 0 
L 2938 2094 
Q 2938 2591 2744 2837 
Q 2550 3084 2163 3084 
Q 1697 3084 1428 2787 
Q 1159 2491 1159 1978 
L 1159 0 
L 581 0 
L 581 4863 
L 1159 4863 
L 1159 2956 
Q 1366 3272 1645 3428 
Q 1925 3584 2291 3584 
Q 2894 3584 3203 3211 
Q 3513 2838 3513 2113 
z
" transform="scale(0.015625)"/>
      <path id="DejaVuSans-4f" d="M 2522 4238 
Q 1834 4238 1429 3725 
Q 1025 3213 1025 2328 
Q 1025 1447 1429 934 
Q 1834 422 2522 422 
Q 3209 422 3611 934 
Q 4013 1447 4013 2328 
Q 4013 3213 3611 3725 
Q 3209 4238 2522 4238 
z
M 2522 4750 
Q 3503 4750 4090 4092 
Q 4678 3434 4678 2328 
Q 4678 1225 4090 567 
Q 3503 -91 2522 -91 
Q 1538 -91 948 565 
Q 359 1222 359 2328 
Q 359 3434 948 4092 
Q 1538 4750 2522 4750 
z
" transform="scale(0.015625)"/>
      <path id="DejaVuSans-70" d="M 1159 525 
L 1159 -1331 
L 581 -1331 
L 581 3500 
L 1159 3500 
L 1159 2969 
Q 1341 3281 1617 3432 
Q 1894 3584 2278 3584 
Q 2916 3584 3314 3078 
Q 3713 2572 3713 1747 
Q 3713 922 3314 415 
Q 2916 -91 2278 -91 
Q 1894 -91 1617 61 
Q 1341 213 1159 525 
z
M 3116 1747 
Q 3116 2381 2855 2742 
Q 2594 3103 2138 3103 
Q 1681 3103 1420 2742 
Q 1159 2381 1159 1747 
Q 1159 1113 1420 752 
Q 1681 391 2138 391 
Q 2594 391 2855 752 
Q 3116 1113 3116 1747 
z
" transform="scale(0.015625)"/>
      <path id="DejaVuSans-53" d="M 3425 4513 
L 3425 3897 
Q 3066 4069 2747 4153 
Q 2428 4238 2131 4238 
Q 1616 4238 1336 4038 
Q 1056 3838 1056 3469 
Q 1056 3159 1242 3001 
Q 1428 2844 1947 2747 
L 2328 2669 
Q 3034 2534 3370 2195 
Q 3706 1856 3706 1288 
Q 3706 609 3251 259 
Q 2797 -91 1919 -91 
Q 1588 -91 1214 -16 
Q 841 59 441 206 
L 441 856 
Q 825 641 1194 531 
Q 1563 422 1919 422 
Q 2459 422 2753 634 
Q 3047 847 3047 1241 
Q 3047 1584 2836 1778 
Q 2625 1972 2144 2069 
L 1759 2144 
Q 1053 2284 737 2584 
Q 422 2884 422 3419 
Q 422 4038 858 4394 
Q 1294 4750 2059 4750 
Q 2388 4750 2728 4690 
Q 3069 4631 3425 4513 
z
" transform="scale(0.015625)"/>
      <path id="DejaVuSans-4d" d="M 628 4666 
L 1569 4666 
L 2759 1491 
L 3956 4666 
L 4897 4666 
L 4897 0 
L 4281 0 
L 4281 4097 
L 3078 897 
L 2444 897 
L 1241 4097 
L 1241 0 
L 628 0 
L 628 4666 
z
" transform="scale(0.015625)"/>
      <path id="DejaVuSans-61" d="M 2194 1759 
Q 1497 1759 1228 1600 
Q 959 1441 959 1056 
Q 959 750 1161 570 
Q 1363 391 1709 391 
Q 2188 391 2477 730 
Q 2766 1069 2766 1631 
L 2766 1759 
L 2194 1759 
z
M 3341 1997 
L 3341 0 
L 2766 0 
L 2766 531 
Q 2569 213 2275 61 
Q 1981 -91 1556 -91 
Q 1019 -91 701 211 
Q 384 513 384 1019 
Q 384 1609 779 1909 
Q 1175 2209 1959 2209 
L 2766 2209 
L 2766 2266 
Q 2766 2663 2505 2880 
Q 2244 3097 1772 3097 
Q 1472 3097 1187 3025 
Q 903 2953 641 2809 
L 641 3341 
Q 956 3463 1253 3523 
Q 1550 3584 1831 3584 
Q 2591 3584 2966 3190 
Q 3341 2797 3341 1997 
z
" transform="scale(0.015625)"/>
      <path id="DejaVuSans-64" d="M 2906 2969 
L 2906 4863 
L 3481 4863 
L 3481 0 
L 2906 0 
L 2906 525 
Q 2725 213 2448 61 
Q 2172 -91 1784 -91 
Q 1150 -91 751 415 
Q 353 922 353 1747 
Q 353 2572 751 3078 
Q 1150 3584 1784 3584 
Q 2172 3584 2448 3432 
Q 2725 3281 2906 2969 
z
M 947 1747 
Q 947 1113 1208 752 
Q 1469 391 1925 391 
Q 2381 391 2643 752 
Q 2906 1113 2906 1747 
Q 2906 2381 2643 2742 
Q 2381 3103 1925 3103 
Q 1469 3103 1208 2742 
Q 947 2381 947 1747 
z
" transform="scale(0.015625)"/>
      <path id="DejaVuSans-50" d="M 1259 4147 
L 1259 2394 
L 2053 2394 
Q 2494 2394 2734 2622 
Q 2975 2850 2975 3272 
Q 2975 3691 2734 3919 
Q 2494 4147 2053 4147 
L 1259 4147 
z
M 628 4666 
L 2053 4666 
Q 2838 4666 3239 4311 
Q 3641 3956 3641 3272 
Q 3641 2581 3239 2228 
Q 2838 1875 2053 1875 
L 1259 1875 
L 1259 0 
L 628 0 
L 628 4666 
z
" transform="scale(0.015625)"/>
      <path id="DejaVuSans-6c" d="M 603 4863 
L 1178 4863 
L 1178 0 
L 603 0 
L 603 4863 
z
" transform="scale(0.015625)"/>
      <path id="DejaVuSans-2c" d="M 750 794 
L 1409 794 
L 1409 256 
L 897 -744 
L 494 -744 
L 750 256 
L 750 794 
z
" transform="scale(0.015625)"/>
      <path id="DejaVuSans-79" d="M 2059 -325 
Q 1816 -950 1584 -1140 
Q 1353 -1331 966 -1331 
L 506 -1331 
L 506 -850 
L 844 -850 
Q 1081 -850 1212 -737 
Q 1344 -625 1503 -206 
L 1606 56 
L 191 3500 
L 800 3500 
L 1894 763 
L 2988 3500 
L 3597 3500 
L 2059 -325 
z
" transform="scale(0.015625)"/>
      <path id="DejaVuSans-2e" d="M 684 794 
L 1344 794 
L 1344 0 
L 684 0 
L 684 794 
z
" transform="scale(0.015625)"/>
      <path id="DejaVuSans-3a" d="M 750 794 
L 1409 794 
L 1409 0 
L 750 0 
L 750 794 
z
M 750 3309 
L 1409 3309 
L 1409 2516 
L 750 2516 
L 750 3309 
z
" transform="scale(0.015625)"/>
      <path id="DejaVuSans-2d" d="M 313 2009 
L 1997 2009 
L 1997 1497 
L 313 1497 
L 313 2009 
z
" transform="scale(0.015625)"/>
     </defs>
     <use xlink:href="#DejaVuSans-4e"/>
     <use xlink:href="#DejaVuSans-75" x="74.804688"/>
     <use xlink:href="#DejaVuSans-6d" x="138.183594"/>
     <use xlink:href="#DejaVuSans-62" x="235.595703"/>
     <use xlink:href="#DejaVuSans-65" x="299.072266"/>
     <use xlink:href="#DejaVuSans-72" x="360.595703"/>
     <use xlink:href="#DejaVuSans-20" x="401.708984"/>
     <use xlink:href="#DejaVuSans-6f" x="433.496094"/>
     <use xlink:href="#DejaVuSans-66" x="494.677734"/>
     <use xlink:href="#DejaVuSans-20" x="529.882812"/>
     <use xlink:href="#DejaVuSans-41" x="561.669922"/>
     <use xlink:href="#DejaVuSans-45" x="630.078125"/>
     <use xlink:href="#DejaVuSans-44" x="693.261719"/>
     <use xlink:href="#DejaVuSans-73" x="770.263672"/>
     <use xlink:href="#DejaVuSans-20" x="822.363281"/>
     <use xlink:href="#DejaVuSans-69" x="854.150391"/>
     <use xlink:href="#DejaVuSans-6e" x="881.933594"/>
     <use xlink:href="#DejaVuSans-20" x="945.3125"/>
     <use xlink:href="#DejaVuSans-74" x="977.099609"/>
     <use xlink:href="#DejaVuSans-68" x="1016.308594"/>
     <use xlink:href="#DejaVuSans-65" x="1079.6875"/>
     <use xlink:href="#DejaVuSans-20" x="1141.210938"/>
     <use xlink:href="#DejaVuSans-4f" x="1172.998047"/>
     <use xlink:href="#DejaVuSans-70" x="1251.708984"/>
     <use xlink:href="#DejaVuSans-65" x="1315.185547"/>
     <use xlink:href="#DejaVuSans-6e" x="1376.708984"/>
     <use xlink:href="#DejaVuSans-53" x="1440.087891"/>
     <use xlink:href="#DejaVuSans-74" x="1503.564453"/>
     <use xlink:href="#DejaVuSans-72" x="1542.773438"/>
     <use xlink:href="#DejaVuSans-65" x="1581.636719"/>
     <use xlink:href="#DejaVuSans-65" x="1643.160156"/>
     <use xlink:href="#DejaVuSans-74" x="1704.683594"/>
     <use xlink:href="#DejaVuSans-4d" x="1743.892578"/>
     <use xlink:href="#DejaVuSans-61" x="1830.171875"/>
     <use xlink:href="#DejaVuSans-70" x="1891.451172"/>
     <use xlink:href="#DejaVuSans-20" x="1954.927734"/>
     <use xlink:href="#DejaVuSans-64" x="1986.714844"/>
     <use xlink:href="#DejaVuSans-61" x="2050.191406"/>
     <use xlink:href="#DejaVuSans-74" x="2111.470703"/>
     <use xlink:href="#DejaVuSans-61" x="2150.679688"/>
     <use xlink:href="#DejaVuSans-62" x="2211.958984"/>
     <use xlink:href="#DejaVuSans-61" x="2275.435547"/>
     <use xlink:href="#DejaVuSans-73" x="2336.714844"/>
     <use xlink:href="#DejaVuSans-65" x="2388.814453"/>
     <use xlink:href="#DejaVuSans-20" x="2450.337891"/>
     <use xlink:href="#DejaVuSans-69" x="2482.125"/>
     <use xlink:href="#DejaVuSans-6e" x="2509.908203"/>
     <use xlink:href="#DejaVuSans-20" x="2573.287109"/>
     <use xlink:href="#DejaVuSans-50" x="2605.074219"/>
     <use xlink:href="#DejaVuSans-6f" x="2661.751953"/>
     <use xlink:href="#DejaVuSans-6c" x="2722.933594"/>
     <use xlink:href="#DejaVuSans-61" x="2750.716797"/>
     <use xlink:href="#DejaVuSans-6e" x="2811.996094"/>
     <use xlink:href="#DejaVuSans-64" x="2875.375"/>
     <use xlink:href="#DejaVuSans-20" x="2938.851562"/>
     <use xlink:href="#DejaVuSans-66" x="2970.638672"/>
     <use xlink:href="#DejaVuSans-72" x="3005.84375"/>
     <use xlink:href="#DejaVuSans-6f" x="3044.707031"/>
     <use xlink:href="#DejaVuSans-6d" x="3105.888672"/>
     <use xlink:href="#DejaVuSans-20" x="3203.300781"/>
     <use xlink:href="#DejaVuSans-66" x="3235.087891"/>
     <use xlink:href="#DejaVuSans-69" x="3270.292969"/>
     <use xlink:href="#DejaVuSans-72" x="3298.076172"/>
     <use xlink:href="#DejaVuSans-73" x="3339.189453"/>
     <use xlink:href="#DejaVuSans-74" x="3391.289062"/>
     <use xlink:href="#DejaVuSans-20" x="3430.498047"/>
     <use xlink:href="#DejaVuSans-65" x="3462.285156"/>
     <use xlink:href="#DejaVuSans-64" x="3523.808594"/>
     <use xlink:href="#DejaVuSans-69" x="3587.285156"/>
     <use xlink:href="#DejaVuSans-74" x="3615.068359"/>
     <use xlink:href="#DejaVuSans-69" x="3654.277344"/>
     <use xlink:href="#DejaVuSans-6f" x="3682.060547"/>
     <use xlink:href="#DejaVuSans-6e" x="3743.242188"/>
     <use xlink:href="#DejaVuSans-2c" x="3806.621094"/>
     <use xlink:href="#DejaVuSans-20" x="3838.408203"/>
     <use xlink:href="#DejaVuSans-64" x="3870.195312"/>
     <use xlink:href="#DejaVuSans-61" x="3933.671875"/>
     <use xlink:href="#DejaVuSans-79" x="3994.951172"/>
     <use xlink:href="#DejaVuSans-20" x="4054.130859"/>
     <use xlink:href="#DejaVuSans-62" x="4085.917969"/>
     <use xlink:href="#DejaVuSans-79" x="4149.394531"/>
     <use xlink:href="#DejaVuSans-20" x="4208.574219"/>
     <use xlink:href="#DejaVuSans-64" x="4240.361328"/>
     <use xlink:href="#DejaVuSans-61" x="4303.837891"/>
     <use xlink:href="#DejaVuSans-79" x="4365.117188"/>
     <use xlink:href="#DejaVuSans-2e" x="4410.046875"/>
     <use xlink:href="#DejaVuSans-20" x="4441.833984"/>
     <use xlink:href="#DejaVuSans-41" x="4473.621094"/>
     <use xlink:href="#DejaVuSans-73" x="4542.029297"/>
     <use xlink:href="#DejaVuSans-20" x="4594.128906"/>
     <use xlink:href="#DejaVuSans-61" x="4625.916016"/>
     <use xlink:href="#DejaVuSans-74" x="4687.195312"/>
     <use xlink:href="#DejaVuSans-3a" x="4726.404297"/>
     <use xlink:href="#DejaVuSans-20" x="4760.095703"/>
     <use xlink:href="#DejaVuSans-32" x="4791.882812"/>
     <use xlink:href="#DejaVuSans-30" x="4855.505859"/>
     <use xlink:href="#DejaVuSans-32" x="4919.128906"/>
     <use xlink:href="#DejaVuSans-36" x="4982.751953"/>
     <use xlink:href="#DejaVuSans-2d" x="5046.375"/>
     <use xlink:href="#DejaVuSans-30" x="5082.458984"/>
     <use xlink:href="#DejaVuSans-32" x="5146.082031"/>
     <use xlink:href="#DejaVuSans-2d" x="5209.705078"/>
     <use xlink:href="#DejaVuSans-32" x="5245.789062"/>
     <use xlink:href="#DejaVuSans-34" x="5309.412109"/>
    </g>
   </g>
  </g>
 </g>
 <defs>
  <clipPath id="p2e6872e22b">
   <rect x="144" y="69.12" width="892.8" height="443.52"/>
  </clipPath>
 </defs>
</svg>
