<?xml version="1.0" encoding="utf-8" standalone="no"?>
<!DOCTYPE svg PUBLIC "-//W3C//DTD SVG 1.1//EN"
  "http://www.w3.org/Graphics/SVG/1.1/DTD/svg11.dtd">
<svg xmlns:xlink="http://www.w3.org/1999/xlink" width="1152pt" height="576pt" viewBox="0 0 1152 576" xmlns="http://www.w3.org/2000/svg" version="1.1">
 <metadata>
  <rdf:RDF xmlns:dc="http://purl.org/dc/elements/1.1/" xmlns:cc="http://creativecommons.org/ns#" xmlns:rdf="http://www.w3.org/1999/02/22-rdf-syntax-ns#">
   <cc:Work>
    <dc:type rdf:resource="http://purl.org/dc/dcmitype/StillImage"/>
    <dc:date>1980-01-01T00:00:00+00:00</dc:date>
    <dc:format>image/svg+xml</dc:format>
    <dc:creator>
     <cc:Agent>
      <dc:title>Matplotlib v3.9.1, https://matplotlib.org/</dc:title>
     </cc:Agent>
    </dc:creator>
   </cc:Work>
  </rdf:RDF>
 </metadata>
 <defs>
  <style type="text/css">*{stroke-linejoin: round; stroke-linecap: butt}</style>
 </defs>
 <g id="figure_1">
  <g id="patch_1">
   <path d="M 0 576 
L 1152 576 
L 1152 0 
L 0 0 
z
" style="fill: #ffffff"/>
  </g>
  <g id="axes_1">
   <g id="patch_2">
    <path d="M 144 512.64 
L 1036.8 512.64 
L 1036.8 69.12 
L 144 69.12 
z
" style="fill: #ffffff"/>
   </g>
   <g id="matplotlib.axis_1">
    <g id="xtick_1">
     <g id="line2d_1">
      <defs>
       <path id="m75fdec58b1" d="M 0 0 
L 0 3.5 
" style="stroke: #000000; stroke-width: 0.8"/>
      </defs>
      <g>
       <use xlink:href="#m75fdec58b1" x="176.842735" y="512.64" style="stroke: #000000; stroke-width: 0.8"/>
      </g>
     </g>
     <g id="text_1">
      <!-- 2014 -->
      <g transform="translate(164.117735 527.238438) scale(0.1 -0.1)">
       <defs>
        <path id="DejaVuSans-32" d="M 1228 531 
L 3431 531 
L 3431 0 
L 469 0 
L 469 531 
Q 828 903 1448 1529 
Q 2069 2156 2228 2338 
Q 2531 2678 2651 2914 
Q 2772 3150 2772 3378 
Q 2772 3750 2511 3984 
Q 2250 4219 1831 4219 
Q 1534 4219 1204 4116 
Q 875 4013 500 3803 
L 500 4441 
Q 881 4594 1212 4672 
Q 1544 4750 1819 4750 
Q 2544 4750 2975 4387 
Q 3406 4025 3406 3419 
Q 3406 3131 3298 2873 
Q 3191 2616 2906 2266 
Q 2828 2175 2409 1742 
Q 1991 1309 1228 531 
z
" transform="scale(0.015625)"/>
        <path id="DejaVuSans-30" d="M 2034 4250 
Q 1547 4250 1301 3770 
Q 1056 3291 1056 2328 
Q 1056 1369 1301 889 
Q 1547 409 2034 409 
Q 2525 409 2770 889 
Q 3016 1369 3016 2328 
Q 3016 3291 2770 3770 
Q 2525 4250 2034 4250 
z
M 2034 4750 
Q 2819 4750 3233 4129 
Q 3647 3509 3647 2328 
Q 3647 1150 3233 529 
Q 2819 -91 2034 -91 
Q 1250 -91 836 529 
Q 422 1150 422 2328 
Q 422 3509 836 4129 
Q 1250 4750 2034 4750 
z
" transform="scale(0.015625)"/>
        <path id="DejaVuSans-31" d="M 794 531 
L 1825 531 
L 1825 4091 
L 703 3866 
L 703 4441 
L 1819 4666 
L 2450 4666 
L 2450 531 
L 3481 531 
L 3481 0 
L 794 0 
L 794 531 
z
" transform="scale(0.015625)"/>
        <path id="DejaVuSans-34" d="M 2419 4116 
L 825 1625 
L 2419 1625 
L 2419 4116 
z
M 2253 4666 
L 3047 4666 
L 3047 1625 
L 3713 1625 
L 3713 1100 
L 3047 1100 
L 3047 0 
L 2419 0 
L 2419 1100 
L 313 1100 
L 313 1709 
L 2253 4666 
z
" transform="scale(0.015625)"/>
       </defs>
       <use xlink:href="#DejaVuSans-32"/>
       <use xlink:href="#DejaVuSans-30" x="63.623047"/>
       <use xlink:href="#DejaVuSans-31" x="127.246094"/>
       <use xlink:href="#DejaVuSans-34" x="190.869141"/>
      </g>
     </g>
    </g>
    <g id="xtick_2">
     <g id="line2d_2">
      <g>
       <use xlink:href="#m75fdec58b1" x="318.081006" y="512.64" style="stroke: #000000; stroke-width: 0.8"/>
      </g>
     </g>
     <g id="text_2">
      <!-- 2016 -->
      <g transform="translate(305.356006 527.238438) scale(0.1 -0.1)">
       <defs>
        <path id="DejaVuSans-36" d="M 2113 2584 
Q 1688 2584 1439 2293 
Q 1191 2003 1191 1497 
Q 1191 994 1439 701 
Q 1688 409 2113 409 
Q 2538 409 2786 701 
Q 3034 994 3034 1497 
Q 3034 2003 2786 2293 
Q 2538 2584 2113 2584 
z
M 3366 4563 
L 3366 3988 
Q 3128 4100 2886 4159 
Q 2644 4219 2406 4219 
Q 1781 4219 1451 3797 
Q 1122 3375 1075 2522 
Q 1259 2794 1537 2939 
Q 1816 3084 2150 3084 
Q 2853 3084 3261 2657 
Q 3669 2231 3669 1497 
Q 3669 778 3244 343 
Q 2819 -91 2113 -91 
Q 1303 -91 875 529 
Q 447 1150 447 2328 
Q 447 3434 972 4092 
Q 1497 4750 2381 4750 
Q 2619 4750 2861 4703 
Q 3103 4656 3366 4563 
z
" transform="scale(0.015625)"/>
       </defs>
       <use xlink:href="#DejaVuSans-32"/>
       <use xlink:href="#DejaVuSans-30" x="63.623047"/>
       <use xlink:href="#DejaVuSans-31" x="127.246094"/>
       <use xlink:href="#DejaVuSans-36" x="190.869141"/>
      </g>
     </g>
    </g>
    <g id="xtick_3">
     <g id="line2d_3">
      <g>
       <use xlink:href="#m75fdec58b1" x="459.512753" y="512.64" style="stroke: #000000; stroke-width: 0.8"/>
      </g>
     </g>
     <g id="text_3">
      <!-- 2018 -->
      <g transform="translate(446.787753 527.238438) scale(0.1 -0.1)">
       <defs>
        <path id="DejaVuSans-38" d="M 2034 2216 
Q 1584 2216 1326 1975 
Q 1069 1734 1069 1313 
Q 1069 891 1326 650 
Q 1584 409 2034 409 
Q 2484 409 2743 651 
Q 3003 894 3003 1313 
Q 3003 1734 2745 1975 
Q 2488 2216 2034 2216 
z
M 1403 2484 
Q 997 2584 770 2862 
Q 544 3141 544 3541 
Q 544 4100 942 4425 
Q 1341 4750 2034 4750 
Q 2731 4750 3128 4425 
Q 3525 4100 3525 3541 
Q 3525 3141 3298 2862 
Q 3072 2584 2669 2484 
Q 3125 2378 3379 2068 
Q 3634 1759 3634 1313 
Q 3634 634 3220 271 
Q 2806 -91 2034 -91 
Q 1263 -91 848 271 
Q 434 634 434 1313 
Q 434 1759 690 2068 
Q 947 2378 1403 2484 
z
M 1172 3481 
Q 1172 3119 1398 2916 
Q 1625 2713 2034 2713 
Q 2441 2713 2670 2916 
Q 2900 3119 2900 3481 
Q 2900 3844 2670 4047 
Q 2441 4250 2034 4250 
Q 1625 4250 1398 4047 
Q 1172 3844 1172 3481 
z
" transform="scale(0.015625)"/>
       </defs>
       <use xlink:href="#DejaVuSans-32"/>
       <use xlink:href="#DejaVuSans-30" x="63.623047"/>
       <use xlink:href="#DejaVuSans-31" x="127.246094"/>
       <use xlink:href="#DejaVuSans-38" x="190.869141"/>
      </g>
     </g>
    </g>
    <g id="xtick_4">
     <g id="line2d_4">
      <g>
       <use xlink:href="#m75fdec58b1" x="600.751024" y="512.64" style="stroke: #000000; stroke-width: 0.8"/>
      </g>
     </g>
     <g id="text_4">
      <!-- 2020 -->
      <g transform="translate(588.026024 527.238438) scale(0.1 -0.1)">
       <use xlink:href="#DejaVuSans-32"/>
       <use xlink:href="#DejaVuSans-30" x="63.623047"/>
       <use xlink:href="#DejaVuSans-32" x="127.246094"/>
       <use xlink:href="#DejaVuSans-30" x="190.869141"/>
      </g>
     </g>
    </g>
    <g id="xtick_5">
     <g id="line2d_5">
      <g>
       <use xlink:href="#m75fdec58b1" x="742.182772" y="512.64" style="stroke: #000000; stroke-width: 0.8"/>
      </g>
     </g>
     <g id="text_5">
      <!-- 2022 -->
      <g transform="translate(729.457772 527.238438) scale(0.1 -0.1)">
       <use xlink:href="#DejaVuSans-32"/>
       <use xlink:href="#DejaVuSans-30" x="63.623047"/>
       <use xlink:href="#DejaVuSans-32" x="127.246094"/>
       <use xlink:href="#DejaVuSans-32" x="190.869141"/>
      </g>
     </g>
    </g>
    <g id="xtick_6">
     <g id="line2d_6">
      <g>
       <use xlink:href="#m75fdec58b1" x="883.421042" y="512.64" style="stroke: #000000; stroke-width: 0.8"/>
      </g>
     </g>
     <g id="text_6">
      <!-- 2024 -->
      <g transform="translate(870.696042 527.238438) scale(0.1 -0.1)">
       <use xlink:href="#DejaVuSans-32"/>
       <use xlink:href="#DejaVuSans-30" x="63.623047"/>
       <use xlink:href="#DejaVuSans-32" x="127.246094"/>
       <use xlink:href="#DejaVuSans-34" x="190.869141"/>
      </g>
     </g>
    </g>
    <g id="xtick_7">
     <g id="line2d_7">
      <g>
       <use xlink:href="#m75fdec58b1" x="1024.85279" y="512.64" style="stroke: #000000; stroke-width: 0.8"/>
      </g>
     </g>
     <g id="text_7">
      <!-- 2026 -->
      <g transform="translate(1012.12779 527.238438) scale(0.1 -0.1)">
       <use xlink:href="#DejaVuSans-32"/>
       <use xlink:href="#DejaVuSans-30" x="63.623047"/>
       <use xlink:href="#DejaVuSans-32" x="127.246094"/>
       <use xlink:href="#DejaVuSans-36" x="190.869141"/>
      </g>
     </g>
    </g>
   </g>
   <g id="matplotlib.axis_2">
    <g id="ytick_1">
     <g id="line2d_8">
      <defs>
       <path id="mdee4d2828c" d="M 0 0 
L -3.5 0 
" style="stroke: #000000; stroke-width: 0.8"/>
      </defs>
      <g>
       <use xlink:href="#mdee4d2828c" x="144" y="492.514924" style="stroke: #000000; stroke-width: 0.8"/>
      </g>
     </g>
     <g id="text_8">
      <!-- 0 -->
      <g transform="translate(130.6375 496.314143) scale(0.1 -0.1)">
       <use xlink:href="#DejaVuSans-30"/>
      </g>
     </g>
    </g>
    <g id="ytick_2">
     <g id="line2d_9">
      <g>
       <use xlink:href="#mdee4d2828c" x="144" y="422.666505" style="stroke: #000000; stroke-width: 0.8"/>
      </g>
     </g>
     <g id="text_9">
      <!-- 2000 -->
      <g transform="translate(111.55 426.465724) scale(0.1 -0.1)">
       <use xlink:href="#DejaVuSans-32"/>
       <use xlink:href="#DejaVuSans-30" x="63.623047"/>
       <use xlink:href="#DejaVuSans-30" x="127.246094"/>
       <use xlink:href="#DejaVuSans-30" x="190.869141"/>
      </g>
     </g>
    </g>
    <g id="ytick_3">
     <g id="line2d_10">
      <g>
       <use xlink:href="#mdee4d2828c" x="144" y="352.818086" style="stroke: #000000; stroke-width: 0.8"/>
      </g>
     </g>
     <g id="text_10">
      <!-- 4000 -->
      <g transform="translate(111.55 356.617305) scale(0.1 -0.1)">
       <use xlink:href="#DejaVuSans-34"/>
       <use xlink:href="#DejaVuSans-30" x="63.623047"/>
       <use xlink:href="#DejaVuSans-30" x="127.246094"/>
       <use xlink:href="#DejaVuSans-30" x="190.869141"/>
      </g>
     </g>
    </g>
    <g id="ytick_4">
     <g id="line2d_11">
      <g>
       <use xlink:href="#mdee4d2828c" x="144" y="282.969667" style="stroke: #000000; stroke-width: 0.8"/>
      </g>
     </g>
     <g id="text_11">
      <!-- 6000 -->
      <g transform="translate(111.55 286.768885) scale(0.1 -0.1)">
       <use xlink:href="#DejaVuSans-36"/>
       <use xlink:href="#DejaVuSans-30" x="63.623047"/>
       <use xlink:href="#DejaVuSans-30" x="127.246094"/>
       <use xlink:href="#DejaVuSans-30" x="190.869141"/>
      </g>
     </g>
    </g>
    <g id="ytick_5">
     <g id="line2d_12">
      <g>
       <use xlink:href="#mdee4d2828c" x="144" y="213.121247" style="stroke: #000000; stroke-width: 0.8"/>
      </g>
     </g>
     <g id="text_12">
      <!-- 8000 -->
      <g transform="translate(111.55 216.920466) scale(0.1 -0.1)">
       <use xlink:href="#DejaVuSans-38"/>
       <use xlink:href="#DejaVuSans-30" x="63.623047"/>
       <use xlink:href="#DejaVuSans-30" x="127.246094"/>
       <use xlink:href="#DejaVuSans-30" x="190.869141"/>
      </g>
     </g>
    </g>
    <g id="ytick_6">
     <g id="line2d_13">
      <g>
       <use xlink:href="#mdee4d2828c" x="144" y="143.272828" style="stroke: #000000; stroke-width: 0.8"/>
      </g>
     </g>
     <g id="text_13">
      <!-- 10000 -->
      <g transform="translate(105.1875 147.072047) scale(0.1 -0.1)">
       <use xlink:href="#DejaVuSans-31"/>
       <use xlink:href="#DejaVuSans-30" x="63.623047"/>
       <use xlink:href="#DejaVuSans-30" x="127.246094"/>
       <use xlink:href="#DejaVuSans-30" x="190.869141"/>
       <use xlink:href="#DejaVuSans-30" x="254.492188"/>
      </g>
     </g>
    </g>
    <g id="ytick_7">
     <g id="line2d_14">
      <g>
       <use xlink:href="#mdee4d2828c" x="144" y="73.424409" style="stroke: #000000; stroke-width: 0.8"/>
      </g>
     </g>
     <g id="text_14">
      <!-- 12000 -->
      <g transform="translate(105.1875 77.223628) scale(0.1 -0.1)">
       <use xlink:href="#DejaVuSans-31"/>
       <use xlink:href="#DejaVuSans-32" x="63.623047"/>
       <use xlink:href="#DejaVuSans-30" x="127.246094"/>
       <use xlink:href="#DejaVuSans-30" x="190.869141"/>
       <use xlink:href="#DejaVuSans-30" x="254.492188"/>
      </g>
     </g>
    </g>
   </g>
   <g id="line2d_15">
    <path d="M 184.581818 492.48 
L 186.323112 492.410152 
L 307.246289 492.200606 
L 448.871514 492.025985 
L 501.49728 491.81644 
L 515.234153 491.711667 
L 548.125257 491.537046 
L 549.673074 491.467198 
L 558.57302 491.362425 
L 600.944501 491.15288 
L 607.135768 491.083032 
L 607.522722 490.803638 
L 611.585741 490.629017 
L 645.637707 490.48932 
L 649.507249 490.384547 
L 665.37237 490.209926 
L 684.720078 490.035305 
L 693.813501 489.755912 
L 701.552584 489.581291 
L 704.45474 489.371745 
L 705.80908 489.197124 
L 713.354686 488.987579 
L 717.417705 488.847882 
L 723.802449 488.393867 
L 733.863257 488.149398 
L 738.506707 486.717505 
L 738.700184 486.577809 
L 740.441478 486.403188 
L 741.215386 485.8444 
L 741.408863 484.971295 
L 741.795818 484.76175 
L 741.989295 484.726825 
L 742.182772 483.539402 
L 743.343634 483.050463 
L 743.730588 482.456752 
L 744.117543 482.212282 
L 744.31102 481.653495 
L 744.504497 480.361299 
L 744.697974 480.012057 
L 744.891451 479.278649 
L 745.084928 478.091226 
L 745.278405 476.065621 
L 745.665359 474.633729 
L 745.858836 474.354335 
L 746.052313 469.674491 
L 746.24579 467.788584 
L 746.439268 467.0901 
L 746.632745 463.737375 
L 747.213176 459.825864 
L 747.406653 459.721091 
L 747.793607 457.730411 
L 747.987084 457.066851 
L 748.180561 451.967917 
L 748.374038 451.513902 
L 748.760993 449.83754 
L 748.95447 449.732767 
L 749.147947 448.859662 
L 749.341424 445.227544 
L 749.534901 444.319515 
L 749.728378 444.249667 
L 749.921855 441.595427 
L 750.115332 441.071563 
L 750.502286 440.896942 
L 751.276195 438.242702 
L 751.663149 437.544218 
L 752.050103 435.48369 
L 752.24358 434.680433 
L 752.437057 430.768922 
L 753.017488 426.43832 
L 753.59792 426.228774 
L 753.984874 425.984305 
L 754.758782 424.517488 
L 755.145736 424.377791 
L 755.53269 421.374309 
L 755.726168 421.339385 
L 756.113122 420.815522 
L 756.306599 419.313781 
L 756.500076 418.89469 
L 756.693553 418.754994 
L 756.88703 418.405751 
L 757.080507 417.81204 
L 757.660938 417.56757 
L 757.854415 417.323101 
L 758.434847 415.122876 
L 758.628324 414.983179 
L 759.015278 414.424392 
L 759.789186 414.040225 
L 759.982663 412.608333 
L 760.17614 412.50356 
L 760.369618 412.224166 
L 760.563095 409.465154 
L 760.950049 409.360381 
L 761.337003 408.626973 
L 761.53048 407.928489 
L 762.110911 407.788792 
L 762.691343 406.706141 
L 762.88482 406.671217 
L 763.271774 406.077505 
L 763.658728 405.937809 
L 763.852205 402.724781 
L 765.013068 402.445388 
L 765.400022 402.165994 
L 766.17393 402.061221 
L 766.367407 401.851676 
L 768.689132 401.153192 
L 769.46304 400.594405 
L 770.430426 400.454708 
L 770.81738 400.175314 
L 771.204334 400.035617 
L 773.139105 399.511754 
L 773.913013 396.543196 
L 774.880399 396.403499 
L 775.073876 396.333651 
L 776.621692 396.15903 
L 777.202124 395.949485 
L 777.395601 395.355773 
L 778.362986 395.285925 
L 778.943417 394.971607 
L 779.910803 394.622365 
L 780.10428 394.58744 
L 780.491234 394.203274 
L 780.878188 394.098502 
L 781.071665 393.854032 
L 781.845574 393.574638 
L 782.812959 393.434942 
L 783.006436 393.190472 
L 783.39339 393.155548 
L 783.586867 392.596761 
L 783.780345 392.526912 
L 783.973822 391.723655 
L 786.295547 391.199792 
L 786.875978 391.060095 
L 787.069455 390.641005 
L 788.423795 390.291763 
L 789.004226 390.082217 
L 789.778134 389.907596 
L 790.552042 389.698051 
L 791.519428 389.488506 
L 792.099859 389.313885 
L 793.454199 388.510628 
L 793.647676 387.812144 
L 794.615061 387.008887 
L 794.808538 386.659645 
L 795.775924 385.821464 
L 796.162878 385.088055 
L 796.356355 385.053131 
L 796.549832 384.354647 
L 797.32374 383.306921 
L 797.710695 383.1323 
L 798.097649 383.062451 
L 798.291126 382.748133 
L 798.67808 382.573512 
L 798.871557 382.22427 
L 799.838942 381.979801 
L 800.03242 381.665483 
L 801.386759 381.351165 
L 801.773713 381.176544 
L 801.96719 381.14162 
L 802.160667 380.966999 
L 803.128053 380.827302 
L 804.482392 380.198666 
L 805.062824 380.058969 
L 805.449778 379.255712 
L 805.836732 379.011243 
L 806.804117 378.24291 
L 806.997595 377.439654 
L 807.771503 377.195184 
L 808.932365 376.811018 
L 809.512797 376.077609 
L 809.899751 375.868064 
L 810.093228 375.83314 
L 810.480182 375.274353 
L 811.060613 375.064807 
L 811.447567 374.750489 
L 812.027999 374.50602 
L 812.414953 370.594508 
L 812.60843 369.337237 
L 812.801907 367.171936 
L 812.995384 366.892542 
L 813.769292 364.203378 
L 814.156247 363.504894 
L 814.349724 363.400121 
L 814.543201 363.155652 
L 814.736678 362.701637 
L 814.930155 361.130048 
L 815.123632 360.745881 
L 815.510586 360.606184 
L 816.671449 358.231338 
L 816.864926 358.056717 
L 817.058403 357.113764 
L 817.25188 356.764521 
L 817.638834 355.856492 
L 818.025788 355.297705 
L 818.799697 354.84369 
L 818.993174 354.634145 
L 819.186651 353.51657 
L 819.573605 353.341949 
L 819.960559 352.957783 
L 820.54099 352.154526 
L 820.734467 351.421117 
L 820.927945 351.386193 
L 821.508376 350.687709 
L 821.89533 350.617861 
L 822.088807 350.268618 
L 822.475761 350.059073 
L 823.443147 348.976423 
L 823.636624 348.382711 
L 825.18444 346.88097 
L 825.571395 345.518926 
L 826.732257 344.89029 
L 827.312688 343.982261 
L 828.280074 342.410671 
L 828.667028 342.201126 
L 829.440936 342.061429 
L 830.021367 340.943854 
L 830.795276 340.699385 
L 831.569184 339.791356 
L 831.956138 339.721507 
L 832.343092 339.302417 
L 832.923524 339.057947 
L 833.310478 339.023023 
L 833.503955 338.813478 
L 833.697432 338.184842 
L 834.47134 337.940372 
L 834.664817 337.59113 
L 834.858295 337.556206 
L 835.051772 336.92757 
L 835.632203 336.683101 
L 836.212634 336.543404 
L 836.599588 336.194162 
L 837.566974 335.705223 
L 837.953928 335.390905 
L 838.340882 335.146436 
L 838.727836 335.111511 
L 838.921313 334.168558 
L 839.308267 333.85424 
L 839.888699 333.574846 
L 840.46913 333.225604 
L 841.243038 333.085907 
L 841.436515 332.108029 
L 842.790855 331.444469 
L 842.984332 331.409545 
L 843.177809 331.234924 
L 843.564763 331.165076 
L 843.75824 330.850758 
L 844.532149 330.53644 
L 844.725626 330.152274 
L 845.11258 330.11735 
L 845.499534 329.87288 
L 846.079965 329.558562 
L 846.273442 329.069623 
L 847.047351 328.685457 
L 847.240828 328.406063 
L 847.627782 328.301291 
L 847.821259 328.056821 
L 848.40169 327.777427 
L 848.595167 327.46311 
L 848.788644 327.393261 
L 849.175599 327.113867 
L 849.562553 326.939246 
L 849.75603 326.729701 
L 850.916892 326.380459 
L 851.110369 325.996293 
L 851.303847 325.89152 
L 852.271232 325.647051 
L 852.658186 325.332733 
L 853.04514 325.193036 
L 853.625572 325.018415 
L 853.819049 324.704097 
L 854.206003 324.634249 
L 854.39948 324.005613 
L 854.592957 323.865916 
L 854.979911 323.411901 
L 855.173388 322.364175 
L 855.560342 322.119706 
L 855.753819 321.980009 
L 855.947297 321.700615 
L 856.334251 321.456146 
L 857.108159 320.757661 
L 857.495113 320.58304 
L 857.68859 320.16395 
L 857.882067 320.094101 
L 858.269022 319.675011 
L 858.655976 319.430541 
L 859.236407 319.25592 
L 859.623361 318.801906 
L 861.751609 316.950922 
L 862.718994 316.706453 
L 863.299426 315.973045 
L 863.68638 315.553954 
L 864.266811 315.204712 
L 865.040719 314.890394 
L 865.234197 314.715773 
L 866.008105 314.401455 
L 866.395059 314.052213 
L 866.97549 313.842668 
L 867.555922 313.493426 
L 868.136353 313.248956 
L 868.32983 313.074335 
L 870.458078 312.236154 
L 870.651555 311.886912 
L 872.005894 311.328125 
L 872.586326 310.943958 
L 873.166757 310.664565 
L 873.360234 310.455019 
L 874.134142 310.245474 
L 874.327619 309.756535 
L 874.521097 308.184946 
L 874.908051 307.765855 
L 875.101528 307.730931 
L 876.26239 306.194266 
L 876.649344 305.14654 
L 877.036299 304.797298 
L 877.423253 304.552828 
L 877.810207 304.448055 
L 878.003684 304.168662 
L 878.390638 303.959117 
L 878.777592 303.609874 
L 879.164547 303.435253 
L 879.358024 303.365405 
L 879.744978 302.946314 
L 879.938455 302.91139 
L 880.131932 302.4923 
L 880.712363 302.282754 
L 881.099317 301.758891 
L 881.679749 301.304877 
L 882.066703 300.92071 
L 882.647134 300.815938 
L 882.840611 300.50162 
L 883.421042 300.292074 
L 883.807997 298.755409 
L 884.194951 298.406167 
L 884.968859 298.126773 
L 885.355813 297.84738 
L 885.54929 297.288592 
L 885.936244 297.113971 
L 886.129722 296.625032 
L 886.323199 296.52026 
L 886.710153 296.101169 
L 886.90363 295.891624 
L 887.484061 295.682079 
L 887.871015 295.367761 
L 888.064492 295.332837 
L 888.257969 295.123291 
L 888.451447 295.088367 
L 889.225355 294.599428 
L 889.612309 293.726323 
L 889.805786 293.62155 
L 890.19274 293.551702 
L 890.386217 293.167536 
L 890.773172 292.992915 
L 891.160126 292.783369 
L 891.353603 292.154734 
L 892.127511 291.700719 
L 892.320988 291.072083 
L 893.094897 290.408523 
L 893.288374 290.373599 
L 893.675328 289.849736 
L 894.062282 289.535418 
L 894.255759 289.46557 
L 894.449236 289.116327 
L 894.83619 288.976631 
L 895.029667 288.313071 
L 895.416622 288.208298 
L 895.610099 287.89398 
L 895.803576 287.824132 
L 895.997053 287.090723 
L 896.384007 286.985951 
L 896.770961 286.741481 
L 897.157915 286.182694 
L 897.351392 286.042997 
L 898.125301 284.855574 
L 898.318778 284.785725 
L 898.705732 284.366635 
L 899.47964 283.807848 
L 900.060072 283.528454 
L 901.801365 281.712395 
L 902.188319 281.572698 
L 902.575274 281.153608 
L 902.962228 281.013911 
L 903.155705 280.17573 
L 903.736136 279.616942 
L 903.929613 278.918458 
L 904.316567 278.534292 
L 904.510044 278.150126 
L 904.703522 278.115201 
L 905.670907 277.172248 
L 906.251338 276.823006 
L 906.444815 276.543612 
L 907.605678 276.159446 
L 908.186109 275.426037 
L 908.573063 274.762477 
L 908.960017 274.62278 
L 909.153494 274.308463 
L 909.346972 274.238614 
L 909.540449 273.994145 
L 909.733926 273.95922 
L 909.927403 273.575054 
L 910.701311 273.051191 
L 911.281742 272.597176 
L 912.055651 272.21301 
L 912.636082 271.724071 
L 913.216513 271.444677 
L 913.40999 271.130359 
L 913.796944 271.060511 
L 914.377376 270.501724 
L 914.570853 270.187406 
L 915.151284 269.908012 
L 915.538238 269.593694 
L 916.118669 269.419073 
L 916.505624 268.999983 
L 917.473009 268.441195 
L 917.666486 268.196726 
L 918.440394 267.847484 
L 918.633871 266.24097 
L 919.601257 265.542486 
L 920.375165 264.145518 
L 920.568642 264.005821 
L 920.762119 263.551806 
L 921.149074 263.412109 
L 921.922982 262.224686 
L 922.309936 260.583248 
L 922.503413 260.024461 
L 922.890367 257.405145 
L 923.083844 256.357419 
L 924.05123 255.100147 
L 924.825138 251.991893 
L 925.018615 251.817272 
L 925.212092 251.328333 
L 925.405569 249.617046 
L 925.599046 248.988411 
L 925.792524 248.918562 
L 925.986001 248.15023 
L 926.566432 247.661291 
L 926.953386 246.334171 
L 927.920771 245.810307 
L 928.114249 245.461065 
L 929.081634 244.937202 
L 929.468588 244.518112 
L 929.662065 244.133945 
L 929.855542 243.156068 
L 930.049019 242.771901 
L 930.435974 242.632204 
L 930.822928 242.457583 
L 931.209882 242.17819 
L 931.596836 241.93372 
L 932.370744 241.689251 
L 932.757699 241.444781 
L 932.951176 241.305084 
L 933.33813 241.27016 
L 936.62724 238.441299 
L 936.820717 238.336527 
L 937.014194 237.498346 
L 937.594626 236.904634 
L 937.98158 236.799861 
L 939.142442 235.821984 
L 939.529396 235.647362 
L 939.722874 235.577514 
L 940.109828 235.158424 
L 940.496782 235.053651 
L 940.690259 234.564712 
L 940.883736 234.390091 
L 941.077213 233.831304 
L 941.464167 233.586834 
L 942.044599 232.294638 
L 942.238076 231.596154 
L 942.818507 231.177064 
L 943.398938 230.408731 
L 943.785892 229.046687 
L 943.979369 228.627596 
L 944.172846 227.894188 
L 944.366324 227.82434 
L 944.559801 227.230628 
L 944.946755 226.986159 
L 946.107617 225.763811 
L 946.301094 225.274872 
L 946.881526 224.960554 
L 947.075003 224.471615 
L 947.848911 224.157298 
L 948.042388 223.912828 
L 948.235865 223.877904 
L 948.429342 223.144495 
L 948.816296 222.900026 
L 949.009774 222.446011 
L 949.203251 222.306314 
L 949.590205 222.27139 
L 950.751067 221.363361 
L 951.331499 220.909346 
L 951.718453 220.455331 
L 952.105407 220.071165 
L 952.298884 219.721923 
L 952.492361 218.95359 
L 953.653224 218.29003 
L 954.040178 217.451849 
L 954.427132 217.312152 
L 954.620609 216.788289 
L 954.814086 216.683517 
L 955.587994 215.740563 
L 956.55538 215.111927 
L 957.716242 213.924504 
L 958.296674 213.156172 
L 958.490151 212.667233 
L 958.683628 211.829052 
L 959.070582 211.165492 
L 959.264059 210.711477 
L 960.231444 205.612542 
L 960.424921 205.333149 
L 960.618399 204.84421 
L 960.811876 202.958302 
L 961.005353 199.326184 
L 961.19883 197.894292 
L 961.392307 195.589294 
L 961.585784 194.995583 
L 961.972738 192.376267 
L 962.359692 188.813997 
L 962.746646 184.029381 
L 963.133601 183.295972 
L 963.520555 177.114387 
L 963.714032 175.472949 
L 964.100986 168.383335 
L 964.48794 167.021291 
L 964.681417 163.459021 
L 964.874894 162.655764 
L 965.261849 158.709329 
L 965.648803 148.092369 
L 966.035757 146.450931 
L 966.229234 143.168055 
L 966.422711 142.818813 
L 966.809665 137.475409 
L 967.003142 137.370637 
L 967.196619 137.021395 
L 967.583574 135.764123 
L 967.777051 135.449805 
L 967.970528 134.856094 
L 968.164005 133.738519 
L 968.550959 133.528974 
L 968.744436 132.970186 
L 969.13139 131.223976 
L 969.518344 127.731555 
L 969.711821 126.998146 
L 969.905299 126.928298 
L 970.098776 126.61398 
L 971.066161 123.645422 
L 971.259638 123.505725 
L 971.453115 122.772317 
L 971.840069 122.423075 
L 972.033546 122.283378 
L 972.227024 121.759515 
L 972.420501 121.584894 
L 973.194409 120.397471 
L 973.77484 119.768835 
L 973.968317 119.698987 
L 974.935703 118.406791 
L 975.322657 118.23217 
L 975.903088 118.162321 
L 976.290042 117.638458 
L 976.676996 117.533686 
L 977.257428 116.800277 
L 978.031336 116.346262 
L 978.805244 115.368385 
L 978.998721 114.844521 
L 979.77263 114.600052 
L 980.159584 114.25081 
L 980.546538 113.552326 
L 980.933492 113.238008 
L 981.126969 112.993538 
L 981.320446 111.980736 
L 981.707401 111.317176 
L 982.287832 111.072707 
L 982.674786 110.758389 
L 983.06174 110.374223 
L 983.448694 110.024981 
L 983.835648 109.675738 
L 984.222603 109.326496 
L 984.41608 108.488315 
L 984.996511 108.069225 
L 985.770419 107.126271 
L 986.350851 106.637332 
L 986.931282 106.113469 
L 987.318236 105.903924 
L 987.70519 105.589606 
L 988.285621 105.380061 
L 988.672576 104.122789 
L 988.866053 104.018016 
L 989.446484 103.109987 
L 990.026915 102.446427 
L 990.220392 102.341654 
L 990.800823 101.259004 
L 990.994301 100.281126 
L 991.187778 99.966808 
L 991.574732 99.827111 
L 991.768209 99.408021 
L 993.509503 98.045977 
L 993.896457 97.24272 
L 994.089934 97.137947 
L 994.283411 92.842269 
L 994.670365 92.108861 
L 995.057319 91.515149 
L 995.250796 90.991286 
L 995.444273 90.956362 
L 995.831228 90.292802 
L 996.024705 89.559394 
L 996.218182 89.28 
L 996.218182 89.28 
" clip-path="url(#pa87f483ca7)" style="fill: none; stroke: #1f77b4; stroke-width: 1.5; stroke-linecap: square"/>
   </g>
   <g id="patch_3">
    <path d="M 144 512.64 
L 144 69.12 
" style="fill: none; stroke: #000000; stroke-width: 0.8; stroke-linejoin: miter; stroke-linecap: square"/>
   </g>
   <g id="patch_4">
    <path d="M 1036.8 512.64 
L 1036.8 69.12 
" style="fill: none; stroke: #000000; stroke-width: 0.8; stroke-linejoin: miter; stroke-linecap: square"/>
   </g>
   <g id="patch_5">
    <path d="M 144 512.64 
L 1036.8 512.64 
" style="fill: none; stroke: #000000; stroke-width: 0.8; stroke-linejoin: miter; stroke-linecap: square"/>
   </g>
   <g id="patch_6">
    <path d="M 144 69.12 
L 1036.8 69.12 
" style="fill: none; stroke: #000000; stroke-width: 0.8; stroke-linejoin: miter; stroke-linecap: square"/>
   </g>
   <g id="text_15">
    <!-- Number of AEDs in the OpenStreetMap database in Poland from first edition, day by day. As at: 2025-08-06 -->
    <g transform="translate(144 63.12) scale(0.14 -0.14)">
     <defs>
      <path id="DejaVuSans-4e" d="M 628 4666 
L 1478 4666 
L 3547 763 
L 3547 4666 
L 4159 4666 
L 4159 0 
L 3309 0 
L 1241 3903 
L 1241 0 
L 628 0 
L 628 4666 
z
" transform="scale(0.015625)"/>
      <path id="DejaVuSans-75" d="M 544 1381 
L 544 3500 
L 1119 3500 
L 1119 1403 
Q 1119 906 1312 657 
Q 1506 409 1894 409 
Q 2359 409 2629 706 
Q 2900 1003 2900 1516 
L 2900 3500 
L 3475 3500 
L 3475 0 
L 2900 0 
L 2900 538 
Q 2691 219 2414 64 
Q 2138 -91 1772 -91 
Q 1169 -91 856 284 
Q 544 659 544 1381 
z
M 1991 3584 
L 1991 3584 
z
" transform="scale(0.015625)"/>
      <path id="DejaVuSans-6d" d="M 3328 2828 
Q 3544 3216 3844 3400 
Q 4144 3584 4550 3584 
Q 5097 3584 5394 3201 
Q 5691 2819 5691 2113 
L 5691 0 
L 5113 0 
L 5113 2094 
Q 5113 2597 4934 2840 
Q 4756 3084 4391 3084 
Q 3944 3084 3684 2787 
Q 3425 2491 3425 1978 
L 3425 0 
L 2847 0 
L 2847 2094 
Q 2847 2600 2669 2842 
Q 2491 3084 2119 3084 
Q 1678 3084 1418 2786 
Q 1159 2488 1159 1978 
L 1159 0 
L 581 0 
L 581 3500 
L 1159 3500 
L 1159 2956 
Q 1356 3278 1631 3431 
Q 1906 3584 2284 3584 
Q 2666 3584 2933 3390 
Q 3200 3197 3328 2828 
z
" transform="scale(0.015625)"/>
      <path id="DejaVuSans-62" d="M 3116 1747 
Q 3116 2381 2855 2742 
Q 2594 3103 2138 3103 
Q 1681 3103 1420 2742 
Q 1159 2381 1159 1747 
Q 1159 1113 1420 752 
Q 1681 391 2138 391 
Q 2594 391 2855 752 
Q 3116 1113 3116 1747 
z
M 1159 2969 
Q 1341 3281 1617 3432 
Q 1894 3584 2278 3584 
Q 2916 3584 3314 3078 
Q 3713 2572 3713 1747 
Q 3713 922 3314 415 
Q 2916 -91 2278 -91 
Q 1894 -91 1617 61 
Q 1341 213 1159 525 
L 1159 0 
L 581 0 
L 581 4863 
L 1159 4863 
L 1159 2969 
z
" transform="scale(0.015625)"/>
      <path id="DejaVuSans-65" d="M 3597 1894 
L 3597 1613 
L 953 1613 
Q 991 1019 1311 708 
Q 1631 397 2203 397 
Q 2534 397 2845 478 
Q 3156 559 3463 722 
L 3463 178 
Q 3153 47 2828 -22 
Q 2503 -91 2169 -91 
Q 1331 -91 842 396 
Q 353 884 353 1716 
Q 353 2575 817 3079 
Q 1281 3584 2069 3584 
Q 2775 3584 3186 3129 
Q 3597 2675 3597 1894 
z
M 3022 2063 
Q 3016 2534 2758 2815 
Q 2500 3097 2075 3097 
Q 1594 3097 1305 2825 
Q 1016 2553 972 2059 
L 3022 2063 
z
" transform="scale(0.015625)"/>
      <path id="DejaVuSans-72" d="M 2631 2963 
Q 2534 3019 2420 3045 
Q 2306 3072 2169 3072 
Q 1681 3072 1420 2755 
Q 1159 2438 1159 1844 
L 1159 0 
L 581 0 
L 581 3500 
L 1159 3500 
L 1159 2956 
Q 1341 3275 1631 3429 
Q 1922 3584 2338 3584 
Q 2397 3584 2469 3576 
Q 2541 3569 2628 3553 
L 2631 2963 
z
" transform="scale(0.015625)"/>
      <path id="DejaVuSans-20" transform="scale(0.015625)"/>
      <path id="DejaVuSans-6f" d="M 1959 3097 
Q 1497 3097 1228 2736 
Q 959 2375 959 1747 
Q 959 1119 1226 758 
Q 1494 397 1959 397 
Q 2419 397 2687 759 
Q 2956 1122 2956 1747 
Q 2956 2369 2687 2733 
Q 2419 3097 1959 3097 
z
M 1959 3584 
Q 2709 3584 3137 3096 
Q 3566 2609 3566 1747 
Q 3566 888 3137 398 
Q 2709 -91 1959 -91 
Q 1206 -91 779 398 
Q 353 888 353 1747 
Q 353 2609 779 3096 
Q 1206 3584 1959 3584 
z
" transform="scale(0.015625)"/>
      <path id="DejaVuSans-66" d="M 2375 4863 
L 2375 4384 
L 1825 4384 
Q 1516 4384 1395 4259 
Q 1275 4134 1275 3809 
L 1275 3500 
L 2222 3500 
L 2222 3053 
L 1275 3053 
L 1275 0 
L 697 0 
L 697 3053 
L 147 3053 
L 147 3500 
L 697 3500 
L 697 3744 
Q 697 4328 969 4595 
Q 1241 4863 1831 4863 
L 2375 4863 
z
" transform="scale(0.015625)"/>
      <path id="DejaVuSans-41" d="M 2188 4044 
L 1331 1722 
L 3047 1722 
L 2188 4044 
z
M 1831 4666 
L 2547 4666 
L 4325 0 
L 3669 0 
L 3244 1197 
L 1141 1197 
L 716 0 
L 50 0 
L 1831 4666 
z
" transform="scale(0.015625)"/>
      <path id="DejaVuSans-45" d="M 628 4666 
L 3578 4666 
L 3578 4134 
L 1259 4134 
L 1259 2753 
L 3481 2753 
L 3481 2222 
L 1259 2222 
L 1259 531 
L 3634 531 
L 3634 0 
L 628 0 
L 628 4666 
z
" transform="scale(0.015625)"/>
      <path id="DejaVuSans-44" d="M 1259 4147 
L 1259 519 
L 2022 519 
Q 2988 519 3436 956 
Q 3884 1394 3884 2338 
Q 3884 3275 3436 3711 
Q 2988 4147 2022 4147 
L 1259 4147 
z
M 628 4666 
L 1925 4666 
Q 3281 4666 3915 4102 
Q 4550 3538 4550 2338 
Q 4550 1131 3912 565 
Q 3275 0 1925 0 
L 628 0 
L 628 4666 
z
" transform="scale(0.015625)"/>
      <path id="DejaVuSans-73" d="M 2834 3397 
L 2834 2853 
Q 2591 2978 2328 3040 
Q 2066 3103 1784 3103 
Q 1356 3103 1142 2972 
Q 928 2841 928 2578 
Q 928 2378 1081 2264 
Q 1234 2150 1697 2047 
L 1894 2003 
Q 2506 1872 2764 1633 
Q 3022 1394 3022 966 
Q 3022 478 2636 193 
Q 2250 -91 1575 -91 
Q 1294 -91 989 -36 
Q 684 19 347 128 
L 347 722 
Q 666 556 975 473 
Q 1284 391 1588 391 
Q 1994 391 2212 530 
Q 2431 669 2431 922 
Q 2431 1156 2273 1281 
Q 2116 1406 1581 1522 
L 1381 1569 
Q 847 1681 609 1914 
Q 372 2147 372 2553 
Q 372 3047 722 3315 
Q 1072 3584 1716 3584 
Q 2034 3584 2315 3537 
Q 2597 3491 2834 3397 
z
" transform="scale(0.015625)"/>
      <path id="DejaVuSans-69" d="M 603 3500 
L 1178 3500 
L 1178 0 
L 603 0 
L 603 3500 
z
M 603 4863 
L 1178 4863 
L 1178 4134 
L 603 4134 
L 603 4863 
z
" transform="scale(0.015625)"/>
      <path id="DejaVuSans-6e" d="M 3513 2113 
L 3513 0 
L 2938 0 
L 2938 2094 
Q 2938 2591 2744 2837 
Q 2550 3084 2163 3084 
Q 1697 3084 1428 2787 
Q 1159 2491 1159 1978 
L 1159 0 
L 581 0 
L 581 3500 
L 1159 3500 
L 1159 2956 
Q 1366 3272 1645 3428 
Q 1925 3584 2291 3584 
Q 2894 3584 3203 3211 
Q 3513 2838 3513 2113 
z
" transform="scale(0.015625)"/>
      <path id="DejaVuSans-74" d="M 1172 4494 
L 1172 3500 
L 2356 3500 
L 2356 3053 
L 1172 3053 
L 1172 1153 
Q 1172 725 1289 603 
Q 1406 481 1766 481 
L 2356 481 
L 2356 0 
L 1766 0 
Q 1100 0 847 248 
Q 594 497 594 1153 
L 594 3053 
L 172 3053 
L 172 3500 
L 594 3500 
L 594 4494 
L 1172 4494 
z
" transform="scale(0.015625)"/>
      <path id="DejaVuSans-68" d="M 3513 2113 
L 3513 0 
L 2938 0 
L 2938 2094 
Q 2938 2591 2744 2837 
Q 2550 3084 2163 3084 
Q 1697 3084 1428 2787 
Q 1159 2491 1159 1978 
L 1159 0 
L 581 0 
L 581 4863 
L 1159 4863 
L 1159 2956 
Q 1366 3272 1645 3428 
Q 1925 3584 2291 3584 
Q 2894 3584 3203 3211 
Q 3513 2838 3513 2113 
z
" transform="scale(0.015625)"/>
      <path id="DejaVuSans-4f" d="M 2522 4238 
Q 1834 4238 1429 3725 
Q 1025 3213 1025 2328 
Q 1025 1447 1429 934 
Q 1834 422 2522 422 
Q 3209 422 3611 934 
Q 4013 1447 4013 2328 
Q 4013 3213 3611 3725 
Q 3209 4238 2522 4238 
z
M 2522 4750 
Q 3503 4750 4090 4092 
Q 4678 3434 4678 2328 
Q 4678 1225 4090 567 
Q 3503 -91 2522 -91 
Q 1538 -91 948 565 
Q 359 1222 359 2328 
Q 359 3434 948 4092 
Q 1538 4750 2522 4750 
z
" transform="scale(0.015625)"/>
      <path id="DejaVuSans-70" d="M 1159 525 
L 1159 -1331 
L 581 -1331 
L 581 3500 
L 1159 3500 
L 1159 2969 
Q 1341 3281 1617 3432 
Q 1894 3584 2278 3584 
Q 2916 3584 3314 3078 
Q 3713 2572 3713 1747 
Q 3713 922 3314 415 
Q 2916 -91 2278 -91 
Q 1894 -91 1617 61 
Q 1341 213 1159 525 
z
M 3116 1747 
Q 3116 2381 2855 2742 
Q 2594 3103 2138 3103 
Q 1681 3103 1420 2742 
Q 1159 2381 1159 1747 
Q 1159 1113 1420 752 
Q 1681 391 2138 391 
Q 2594 391 2855 752 
Q 3116 1113 3116 1747 
z
" transform="scale(0.015625)"/>
      <path id="DejaVuSans-53" d="M 3425 4513 
L 3425 3897 
Q 3066 4069 2747 4153 
Q 2428 4238 2131 4238 
Q 1616 4238 1336 4038 
Q 1056 3838 1056 3469 
Q 1056 3159 1242 3001 
Q 1428 2844 1947 2747 
L 2328 2669 
Q 3034 2534 3370 2195 
Q 3706 1856 3706 1288 
Q 3706 609 3251 259 
Q 2797 -91 1919 -91 
Q 1588 -91 1214 -16 
Q 841 59 441 206 
L 441 856 
Q 825 641 1194 531 
Q 1563 422 1919 422 
Q 2459 422 2753 634 
Q 3047 847 3047 1241 
Q 3047 1584 2836 1778 
Q 2625 1972 2144 2069 
L 1759 2144 
Q 1053 2284 737 2584 
Q 422 2884 422 3419 
Q 422 4038 858 4394 
Q 1294 4750 2059 4750 
Q 2388 4750 2728 4690 
Q 3069 4631 3425 4513 
z
" transform="scale(0.015625)"/>
      <path id="DejaVuSans-4d" d="M 628 4666 
L 1569 4666 
L 2759 1491 
L 3956 4666 
L 4897 4666 
L 4897 0 
L 4281 0 
L 4281 4097 
L 3078 897 
L 2444 897 
L 1241 4097 
L 1241 0 
L 628 0 
L 628 4666 
z
" transform="scale(0.015625)"/>
      <path id="DejaVuSans-61" d="M 2194 1759 
Q 1497 1759 1228 1600 
Q 959 1441 959 1056 
Q 959 750 1161 570 
Q 1363 391 1709 391 
Q 2188 391 2477 730 
Q 2766 1069 2766 1631 
L 2766 1759 
L 2194 1759 
z
M 3341 1997 
L 3341 0 
L 2766 0 
L 2766 531 
Q 2569 213 2275 61 
Q 1981 -91 1556 -91 
Q 1019 -91 701 211 
Q 384 513 384 1019 
Q 384 1609 779 1909 
Q 1175 2209 1959 2209 
L 2766 2209 
L 2766 2266 
Q 2766 2663 2505 2880 
Q 2244 3097 1772 3097 
Q 1472 3097 1187 3025 
Q 903 2953 641 2809 
L 641 3341 
Q 956 3463 1253 3523 
Q 1550 3584 1831 3584 
Q 2591 3584 2966 3190 
Q 3341 2797 3341 1997 
z
" transform="scale(0.015625)"/>
      <path id="DejaVuSans-64" d="M 2906 2969 
L 2906 4863 
L 3481 4863 
L 3481 0 
L 2906 0 
L 2906 525 
Q 2725 213 2448 61 
Q 2172 -91 1784 -91 
Q 1150 -91 751 415 
Q 353 922 353 1747 
Q 353 2572 751 3078 
Q 1150 3584 1784 3584 
Q 2172 3584 2448 3432 
Q 2725 3281 2906 2969 
z
M 947 1747 
Q 947 1113 1208 752 
Q 1469 391 1925 391 
Q 2381 391 2643 752 
Q 2906 1113 2906 1747 
Q 2906 2381 2643 2742 
Q 2381 3103 1925 3103 
Q 1469 3103 1208 2742 
Q 947 2381 947 1747 
z
" transform="scale(0.015625)"/>
      <path id="DejaVuSans-50" d="M 1259 4147 
L 1259 2394 
L 2053 2394 
Q 2494 2394 2734 2622 
Q 2975 2850 2975 3272 
Q 2975 3691 2734 3919 
Q 2494 4147 2053 4147 
L 1259 4147 
z
M 628 4666 
L 2053 4666 
Q 2838 4666 3239 4311 
Q 3641 3956 3641 3272 
Q 3641 2581 3239 2228 
Q 2838 1875 2053 1875 
L 1259 1875 
L 1259 0 
L 628 0 
L 628 4666 
z
" transform="scale(0.015625)"/>
      <path id="DejaVuSans-6c" d="M 603 4863 
L 1178 4863 
L 1178 0 
L 603 0 
L 603 4863 
z
" transform="scale(0.015625)"/>
      <path id="DejaVuSans-2c" d="M 750 794 
L 1409 794 
L 1409 256 
L 897 -744 
L 494 -744 
L 750 256 
L 750 794 
z
" transform="scale(0.015625)"/>
      <path id="DejaVuSans-79" d="M 2059 -325 
Q 1816 -950 1584 -1140 
Q 1353 -1331 966 -1331 
L 506 -1331 
L 506 -850 
L 844 -850 
Q 1081 -850 1212 -737 
Q 1344 -625 1503 -206 
L 1606 56 
L 191 3500 
L 800 3500 
L 1894 763 
L 2988 3500 
L 3597 3500 
L 2059 -325 
z
" transform="scale(0.015625)"/>
      <path id="DejaVuSans-2e" d="M 684 794 
L 1344 794 
L 1344 0 
L 684 0 
L 684 794 
z
" transform="scale(0.015625)"/>
      <path id="DejaVuSans-3a" d="M 750 794 
L 1409 794 
L 1409 0 
L 750 0 
L 750 794 
z
M 750 3309 
L 1409 3309 
L 1409 2516 
L 750 2516 
L 750 3309 
z
" transform="scale(0.015625)"/>
      <path id="DejaVuSans-35" d="M 691 4666 
L 3169 4666 
L 3169 4134 
L 1269 4134 
L 1269 2991 
Q 1406 3038 1543 3061 
Q 1681 3084 1819 3084 
Q 2600 3084 3056 2656 
Q 3513 2228 3513 1497 
Q 3513 744 3044 326 
Q 2575 -91 1722 -91 
Q 1428 -91 1123 -41 
Q 819 9 494 109 
L 494 744 
Q 775 591 1075 516 
Q 1375 441 1709 441 
Q 2250 441 2565 725 
Q 2881 1009 2881 1497 
Q 2881 1984 2565 2268 
Q 2250 2553 1709 2553 
Q 1456 2553 1204 2497 
Q 953 2441 691 2322 
L 691 4666 
z
" transform="scale(0.015625)"/>
      <path id="DejaVuSans-2d" d="M 313 2009 
L 1997 2009 
L 1997 1497 
L 313 1497 
L 313 2009 
z
" transform="scale(0.015625)"/>
     </defs>
     <use xlink:href="#DejaVuSans-4e"/>
     <use xlink:href="#DejaVuSans-75" x="74.804688"/>
     <use xlink:href="#DejaVuSans-6d" x="138.183594"/>
     <use xlink:href="#DejaVuSans-62" x="235.595703"/>
     <use xlink:href="#DejaVuSans-65" x="299.072266"/>
     <use xlink:href="#DejaVuSans-72" x="360.595703"/>
     <use xlink:href="#DejaVuSans-20" x="401.708984"/>
     <use xlink:href="#DejaVuSans-6f" x="433.496094"/>
     <use xlink:href="#DejaVuSans-66" x="494.677734"/>
     <use xlink:href="#DejaVuSans-20" x="529.882812"/>
     <use xlink:href="#DejaVuSans-41" x="561.669922"/>
     <use xlink:href="#DejaVuSans-45" x="630.078125"/>
     <use xlink:href="#DejaVuSans-44" x="693.261719"/>
     <use xlink:href="#DejaVuSans-73" x="770.263672"/>
     <use xlink:href="#DejaVuSans-20" x="822.363281"/>
     <use xlink:href="#DejaVuSans-69" x="854.150391"/>
     <use xlink:href="#DejaVuSans-6e" x="881.933594"/>
     <use xlink:href="#DejaVuSans-20" x="945.3125"/>
     <use xlink:href="#DejaVuSans-74" x="977.099609"/>
     <use xlink:href="#DejaVuSans-68" x="1016.308594"/>
     <use xlink:href="#DejaVuSans-65" x="1079.6875"/>
     <use xlink:href="#DejaVuSans-20" x="1141.210938"/>
     <use xlink:href="#DejaVuSans-4f" x="1172.998047"/>
     <use xlink:href="#DejaVuSans-70" x="1251.708984"/>
     <use xlink:href="#DejaVuSans-65" x="1315.185547"/>
     <use xlink:href="#DejaVuSans-6e" x="1376.708984"/>
     <use xlink:href="#DejaVuSans-53" x="1440.087891"/>
     <use xlink:href="#DejaVuSans-74" x="1503.564453"/>
     <use xlink:href="#DejaVuSans-72" x="1542.773438"/>
     <use xlink:href="#DejaVuSans-65" x="1581.636719"/>
     <use xlink:href="#DejaVuSans-65" x="1643.160156"/>
     <use xlink:href="#DejaVuSans-74" x="1704.683594"/>
     <use xlink:href="#DejaVuSans-4d" x="1743.892578"/>
     <use xlink:href="#DejaVuSans-61" x="1830.171875"/>
     <use xlink:href="#DejaVuSans-70" x="1891.451172"/>
     <use xlink:href="#DejaVuSans-20" x="1954.927734"/>
     <use xlink:href="#DejaVuSans-64" x="1986.714844"/>
     <use xlink:href="#DejaVuSans-61" x="2050.191406"/>
     <use xlink:href="#DejaVuSans-74" x="2111.470703"/>
     <use xlink:href="#DejaVuSans-61" x="2150.679688"/>
     <use xlink:href="#DejaVuSans-62" x="2211.958984"/>
     <use xlink:href="#DejaVuSans-61" x="2275.435547"/>
     <use xlink:href="#DejaVuSans-73" x="2336.714844"/>
     <use xlink:href="#DejaVuSans-65" x="2388.814453"/>
     <use xlink:href="#DejaVuSans-20" x="2450.337891"/>
     <use xlink:href="#DejaVuSans-69" x="2482.125"/>
     <use xlink:href="#DejaVuSans-6e" x="2509.908203"/>
     <use xlink:href="#DejaVuSans-20" x="2573.287109"/>
     <use xlink:href="#DejaVuSans-50" x="2605.074219"/>
     <use xlink:href="#DejaVuSans-6f" x="2661.751953"/>
     <use xlink:href="#DejaVuSans-6c" x="2722.933594"/>
     <use xlink:href="#DejaVuSans-61" x="2750.716797"/>
     <use xlink:href="#DejaVuSans-6e" x="2811.996094"/>
     <use xlink:href="#DejaVuSans-64" x="2875.375"/>
     <use xlink:href="#DejaVuSans-20" x="2938.851562"/>
     <use xlink:href="#DejaVuSans-66" x="2970.638672"/>
     <use xlink:href="#DejaVuSans-72" x="3005.84375"/>
     <use xlink:href="#DejaVuSans-6f" x="3044.707031"/>
     <use xlink:href="#DejaVuSans-6d" x="3105.888672"/>
     <use xlink:href="#DejaVuSans-20" x="3203.300781"/>
     <use xlink:href="#DejaVuSans-66" x="3235.087891"/>
     <use xlink:href="#DejaVuSans-69" x="3270.292969"/>
     <use xlink:href="#DejaVuSans-72" x="3298.076172"/>
     <use xlink:href="#DejaVuSans-73" x="3339.189453"/>
     <use xlink:href="#DejaVuSans-74" x="3391.289062"/>
     <use xlink:href="#DejaVuSans-20" x="3430.498047"/>
     <use xlink:href="#DejaVuSans-65" x="3462.285156"/>
     <use xlink:href="#DejaVuSans-64" x="3523.808594"/>
     <use xlink:href="#DejaVuSans-69" x="3587.285156"/>
     <use xlink:href="#DejaVuSans-74" x="3615.068359"/>
     <use xlink:href="#DejaVuSans-69" x="3654.277344"/>
     <use xlink:href="#DejaVuSans-6f" x="3682.060547"/>
     <use xlink:href="#DejaVuSans-6e" x="3743.242188"/>
     <use xlink:href="#DejaVuSans-2c" x="3806.621094"/>
     <use xlink:href="#DejaVuSans-20" x="3838.408203"/>
     <use xlink:href="#DejaVuSans-64" x="3870.195312"/>
     <use xlink:href="#DejaVuSans-61" x="3933.671875"/>
     <use xlink:href="#DejaVuSans-79" x="3994.951172"/>
     <use xlink:href="#DejaVuSans-20" x="4054.130859"/>
     <use xlink:href="#DejaVuSans-62" x="4085.917969"/>
     <use xlink:href="#DejaVuSans-79" x="4149.394531"/>
     <use xlink:href="#DejaVuSans-20" x="4208.574219"/>
     <use xlink:href="#DejaVuSans-64" x="4240.361328"/>
     <use xlink:href="#DejaVuSans-61" x="4303.837891"/>
     <use xlink:href="#DejaVuSans-79" x="4365.117188"/>
     <use xlink:href="#DejaVuSans-2e" x="4410.046875"/>
     <use xlink:href="#DejaVuSans-20" x="4441.833984"/>
     <use xlink:href="#DejaVuSans-41" x="4473.621094"/>
     <use xlink:href="#DejaVuSans-73" x="4542.029297"/>
     <use xlink:href="#DejaVuSans-20" x="4594.128906"/>
     <use xlink:href="#DejaVuSans-61" x="4625.916016"/>
     <use xlink:href="#DejaVuSans-74" x="4687.195312"/>
     <use xlink:href="#DejaVuSans-3a" x="4726.404297"/>
     <use xlink:href="#DejaVuSans-20" x="4760.095703"/>
     <use xlink:href="#DejaVuSans-32" x="4791.882812"/>
     <use xlink:href="#DejaVuSans-30" x="4855.505859"/>
     <use xlink:href="#DejaVuSans-32" x="4919.128906"/>
     <use xlink:href="#DejaVuSans-35" x="4982.751953"/>
     <use xlink:href="#DejaVuSans-2d" x="5046.375"/>
     <use xlink:href="#DejaVuSans-30" x="5082.458984"/>
     <use xlink:href="#DejaVuSans-38" x="5146.082031"/>
     <use xlink:href="#DejaVuSans-2d" x="5209.705078"/>
     <use xlink:href="#DejaVuSans-30" x="5245.789062"/>
     <use xlink:href="#DejaVuSans-36" x="5309.412109"/>
    </g>
   </g>
  </g>
 </g>
 <defs>
  <clipPath id="pa87f483ca7">
   <rect x="144" y="69.12" width="892.8" height="443.52"/>
  </clipPath>
 </defs>
</svg>
