<?xml version="1.0" encoding="utf-8" standalone="no"?>
<!DOCTYPE svg PUBLIC "-//W3C//DTD SVG 1.1//EN"
  "http://www.w3.org/Graphics/SVG/1.1/DTD/svg11.dtd">
<svg xmlns:xlink="http://www.w3.org/1999/xlink" width="1152pt" height="576pt" viewBox="0 0 1152 576" xmlns="http://www.w3.org/2000/svg" version="1.1">
 <metadata>
  <rdf:RDF xmlns:dc="http://purl.org/dc/elements/1.1/" xmlns:cc="http://creativecommons.org/ns#" xmlns:rdf="http://www.w3.org/1999/02/22-rdf-syntax-ns#">
   <cc:Work>
    <dc:type rdf:resource="http://purl.org/dc/dcmitype/StillImage"/>
    <dc:date>1980-01-01T00:00:00+00:00</dc:date>
    <dc:format>image/svg+xml</dc:format>
    <dc:creator>
     <cc:Agent>
      <dc:title>Matplotlib v3.9.1, https://matplotlib.org/</dc:title>
     </cc:Agent>
    </dc:creator>
   </cc:Work>
  </rdf:RDF>
 </metadata>
 <defs>
  <style type="text/css">*{stroke-linejoin: round; stroke-linecap: butt}</style>
 </defs>
 <g id="figure_1">
  <g id="patch_1">
   <path d="M 0 576 
L 1152 576 
L 1152 0 
L 0 0 
z
" style="fill: #ffffff"/>
  </g>
  <g id="axes_1">
   <g id="patch_2">
    <path d="M 144 512.64 
L 1036.8 512.64 
L 1036.8 69.12 
L 144 69.12 
z
" style="fill: #ffffff"/>
   </g>
   <g id="matplotlib.axis_1">
    <g id="xtick_1">
     <g id="line2d_1">
      <defs>
       <path id="mc42aaf71fd" d="M 0 0 
L 0 3.5 
" style="stroke: #000000; stroke-width: 0.8"/>
      </defs>
      <g>
       <use xlink:href="#mc42aaf71fd" x="177.248307" y="512.64" style="stroke: #000000; stroke-width: 0.8"/>
      </g>
     </g>
     <g id="text_1">
      <!-- 2014 -->
      <g transform="translate(164.523307 527.238438) scale(0.1 -0.1)">
       <defs>
        <path id="DejaVuSans-32" d="M 1228 531 
L 3431 531 
L 3431 0 
L 469 0 
L 469 531 
Q 828 903 1448 1529 
Q 2069 2156 2228 2338 
Q 2531 2678 2651 2914 
Q 2772 3150 2772 3378 
Q 2772 3750 2511 3984 
Q 2250 4219 1831 4219 
Q 1534 4219 1204 4116 
Q 875 4013 500 3803 
L 500 4441 
Q 881 4594 1212 4672 
Q 1544 4750 1819 4750 
Q 2544 4750 2975 4387 
Q 3406 4025 3406 3419 
Q 3406 3131 3298 2873 
Q 3191 2616 2906 2266 
Q 2828 2175 2409 1742 
Q 1991 1309 1228 531 
z
" transform="scale(0.015625)"/>
        <path id="DejaVuSans-30" d="M 2034 4250 
Q 1547 4250 1301 3770 
Q 1056 3291 1056 2328 
Q 1056 1369 1301 889 
Q 1547 409 2034 409 
Q 2525 409 2770 889 
Q 3016 1369 3016 2328 
Q 3016 3291 2770 3770 
Q 2525 4250 2034 4250 
z
M 2034 4750 
Q 2819 4750 3233 4129 
Q 3647 3509 3647 2328 
Q 3647 1150 3233 529 
Q 2819 -91 2034 -91 
Q 1250 -91 836 529 
Q 422 1150 422 2328 
Q 422 3509 836 4129 
Q 1250 4750 2034 4750 
z
" transform="scale(0.015625)"/>
        <path id="DejaVuSans-31" d="M 794 531 
L 1825 531 
L 1825 4091 
L 703 3866 
L 703 4441 
L 1819 4666 
L 2450 4666 
L 2450 531 
L 3481 531 
L 3481 0 
L 794 0 
L 794 531 
z
" transform="scale(0.015625)"/>
        <path id="DejaVuSans-34" d="M 2419 4116 
L 825 1625 
L 2419 1625 
L 2419 4116 
z
M 2253 4666 
L 3047 4666 
L 3047 1625 
L 3713 1625 
L 3713 1100 
L 3047 1100 
L 3047 0 
L 2419 0 
L 2419 1100 
L 313 1100 
L 313 1709 
L 2253 4666 
z
" transform="scale(0.015625)"/>
       </defs>
       <use xlink:href="#DejaVuSans-32"/>
       <use xlink:href="#DejaVuSans-30" x="63.623047"/>
       <use xlink:href="#DejaVuSans-31" x="127.246094"/>
       <use xlink:href="#DejaVuSans-34" x="190.869141"/>
      </g>
     </g>
    </g>
    <g id="xtick_2">
     <g id="line2d_2">
      <g>
       <use xlink:href="#mc42aaf71fd" x="311.084888" y="512.64" style="stroke: #000000; stroke-width: 0.8"/>
      </g>
     </g>
     <g id="text_2">
      <!-- 2016 -->
      <g transform="translate(298.359888 527.238438) scale(0.1 -0.1)">
       <defs>
        <path id="DejaVuSans-36" d="M 2113 2584 
Q 1688 2584 1439 2293 
Q 1191 2003 1191 1497 
Q 1191 994 1439 701 
Q 1688 409 2113 409 
Q 2538 409 2786 701 
Q 3034 994 3034 1497 
Q 3034 2003 2786 2293 
Q 2538 2584 2113 2584 
z
M 3366 4563 
L 3366 3988 
Q 3128 4100 2886 4159 
Q 2644 4219 2406 4219 
Q 1781 4219 1451 3797 
Q 1122 3375 1075 2522 
Q 1259 2794 1537 2939 
Q 1816 3084 2150 3084 
Q 2853 3084 3261 2657 
Q 3669 2231 3669 1497 
Q 3669 778 3244 343 
Q 2819 -91 2113 -91 
Q 1303 -91 875 529 
Q 447 1150 447 2328 
Q 447 3434 972 4092 
Q 1497 4750 2381 4750 
Q 2619 4750 2861 4703 
Q 3103 4656 3366 4563 
z
" transform="scale(0.015625)"/>
       </defs>
       <use xlink:href="#DejaVuSans-32"/>
       <use xlink:href="#DejaVuSans-30" x="63.623047"/>
       <use xlink:href="#DejaVuSans-31" x="127.246094"/>
       <use xlink:href="#DejaVuSans-36" x="190.869141"/>
      </g>
     </g>
    </g>
    <g id="xtick_3">
     <g id="line2d_3">
      <g>
       <use xlink:href="#mc42aaf71fd" x="445.104807" y="512.64" style="stroke: #000000; stroke-width: 0.8"/>
      </g>
     </g>
     <g id="text_3">
      <!-- 2018 -->
      <g transform="translate(432.379807 527.238438) scale(0.1 -0.1)">
       <defs>
        <path id="DejaVuSans-38" d="M 2034 2216 
Q 1584 2216 1326 1975 
Q 1069 1734 1069 1313 
Q 1069 891 1326 650 
Q 1584 409 2034 409 
Q 2484 409 2743 651 
Q 3003 894 3003 1313 
Q 3003 1734 2745 1975 
Q 2488 2216 2034 2216 
z
M 1403 2484 
Q 997 2584 770 2862 
Q 544 3141 544 3541 
Q 544 4100 942 4425 
Q 1341 4750 2034 4750 
Q 2731 4750 3128 4425 
Q 3525 4100 3525 3541 
Q 3525 3141 3298 2862 
Q 3072 2584 2669 2484 
Q 3125 2378 3379 2068 
Q 3634 1759 3634 1313 
Q 3634 634 3220 271 
Q 2806 -91 2034 -91 
Q 1263 -91 848 271 
Q 434 634 434 1313 
Q 434 1759 690 2068 
Q 947 2378 1403 2484 
z
M 1172 3481 
Q 1172 3119 1398 2916 
Q 1625 2713 2034 2713 
Q 2441 2713 2670 2916 
Q 2900 3119 2900 3481 
Q 2900 3844 2670 4047 
Q 2441 4250 2034 4250 
Q 1625 4250 1398 4047 
Q 1172 3844 1172 3481 
z
" transform="scale(0.015625)"/>
       </defs>
       <use xlink:href="#DejaVuSans-32"/>
       <use xlink:href="#DejaVuSans-30" x="63.623047"/>
       <use xlink:href="#DejaVuSans-31" x="127.246094"/>
       <use xlink:href="#DejaVuSans-38" x="190.869141"/>
      </g>
     </g>
    </g>
    <g id="xtick_4">
     <g id="line2d_4">
      <g>
       <use xlink:href="#mc42aaf71fd" x="578.941389" y="512.64" style="stroke: #000000; stroke-width: 0.8"/>
      </g>
     </g>
     <g id="text_4">
      <!-- 2020 -->
      <g transform="translate(566.216389 527.238438) scale(0.1 -0.1)">
       <use xlink:href="#DejaVuSans-32"/>
       <use xlink:href="#DejaVuSans-30" x="63.623047"/>
       <use xlink:href="#DejaVuSans-32" x="127.246094"/>
       <use xlink:href="#DejaVuSans-30" x="190.869141"/>
      </g>
     </g>
    </g>
    <g id="xtick_5">
     <g id="line2d_5">
      <g>
       <use xlink:href="#mc42aaf71fd" x="712.961308" y="512.64" style="stroke: #000000; stroke-width: 0.8"/>
      </g>
     </g>
     <g id="text_5">
      <!-- 2022 -->
      <g transform="translate(700.236308 527.238438) scale(0.1 -0.1)">
       <use xlink:href="#DejaVuSans-32"/>
       <use xlink:href="#DejaVuSans-30" x="63.623047"/>
       <use xlink:href="#DejaVuSans-32" x="127.246094"/>
       <use xlink:href="#DejaVuSans-32" x="190.869141"/>
      </g>
     </g>
    </g>
    <g id="xtick_6">
     <g id="line2d_6">
      <g>
       <use xlink:href="#mc42aaf71fd" x="846.797889" y="512.64" style="stroke: #000000; stroke-width: 0.8"/>
      </g>
     </g>
     <g id="text_6">
      <!-- 2024 -->
      <g transform="translate(834.072889 527.238438) scale(0.1 -0.1)">
       <use xlink:href="#DejaVuSans-32"/>
       <use xlink:href="#DejaVuSans-30" x="63.623047"/>
       <use xlink:href="#DejaVuSans-32" x="127.246094"/>
       <use xlink:href="#DejaVuSans-34" x="190.869141"/>
      </g>
     </g>
    </g>
    <g id="xtick_7">
     <g id="line2d_7">
      <g>
       <use xlink:href="#mc42aaf71fd" x="980.817808" y="512.64" style="stroke: #000000; stroke-width: 0.8"/>
      </g>
     </g>
     <g id="text_7">
      <!-- 2026 -->
      <g transform="translate(968.092808 527.238438) scale(0.1 -0.1)">
       <use xlink:href="#DejaVuSans-32"/>
       <use xlink:href="#DejaVuSans-30" x="63.623047"/>
       <use xlink:href="#DejaVuSans-32" x="127.246094"/>
       <use xlink:href="#DejaVuSans-36" x="190.869141"/>
      </g>
     </g>
    </g>
   </g>
   <g id="matplotlib.axis_2">
    <g id="ytick_1">
     <g id="line2d_8">
      <defs>
       <path id="m665570e729" d="M 0 0 
L -3.5 0 
" style="stroke: #000000; stroke-width: 0.8"/>
      </defs>
      <g>
       <use xlink:href="#m665570e729" x="144" y="492.506819" style="stroke: #000000; stroke-width: 0.8"/>
      </g>
     </g>
     <g id="text_8">
      <!-- 0 -->
      <g transform="translate(130.6375 496.306038) scale(0.1 -0.1)">
       <use xlink:href="#DejaVuSans-30"/>
      </g>
     </g>
    </g>
    <g id="ytick_2">
     <g id="line2d_9">
      <g>
       <use xlink:href="#m665570e729" x="144" y="438.8684" style="stroke: #000000; stroke-width: 0.8"/>
      </g>
     </g>
     <g id="text_9">
      <!-- 2000 -->
      <g transform="translate(111.55 442.667618) scale(0.1 -0.1)">
       <use xlink:href="#DejaVuSans-32"/>
       <use xlink:href="#DejaVuSans-30" x="63.623047"/>
       <use xlink:href="#DejaVuSans-30" x="127.246094"/>
       <use xlink:href="#DejaVuSans-30" x="190.869141"/>
      </g>
     </g>
    </g>
    <g id="ytick_3">
     <g id="line2d_10">
      <g>
       <use xlink:href="#m665570e729" x="144" y="385.22998" style="stroke: #000000; stroke-width: 0.8"/>
      </g>
     </g>
     <g id="text_10">
      <!-- 4000 -->
      <g transform="translate(111.55 389.029199) scale(0.1 -0.1)">
       <use xlink:href="#DejaVuSans-34"/>
       <use xlink:href="#DejaVuSans-30" x="63.623047"/>
       <use xlink:href="#DejaVuSans-30" x="127.246094"/>
       <use xlink:href="#DejaVuSans-30" x="190.869141"/>
      </g>
     </g>
    </g>
    <g id="ytick_4">
     <g id="line2d_11">
      <g>
       <use xlink:href="#m665570e729" x="144" y="331.59156" style="stroke: #000000; stroke-width: 0.8"/>
      </g>
     </g>
     <g id="text_11">
      <!-- 6000 -->
      <g transform="translate(111.55 335.390779) scale(0.1 -0.1)">
       <use xlink:href="#DejaVuSans-36"/>
       <use xlink:href="#DejaVuSans-30" x="63.623047"/>
       <use xlink:href="#DejaVuSans-30" x="127.246094"/>
       <use xlink:href="#DejaVuSans-30" x="190.869141"/>
      </g>
     </g>
    </g>
    <g id="ytick_5">
     <g id="line2d_12">
      <g>
       <use xlink:href="#m665570e729" x="144" y="277.953141" style="stroke: #000000; stroke-width: 0.8"/>
      </g>
     </g>
     <g id="text_12">
      <!-- 8000 -->
      <g transform="translate(111.55 281.75236) scale(0.1 -0.1)">
       <use xlink:href="#DejaVuSans-38"/>
       <use xlink:href="#DejaVuSans-30" x="63.623047"/>
       <use xlink:href="#DejaVuSans-30" x="127.246094"/>
       <use xlink:href="#DejaVuSans-30" x="190.869141"/>
      </g>
     </g>
    </g>
    <g id="ytick_6">
     <g id="line2d_13">
      <g>
       <use xlink:href="#m665570e729" x="144" y="224.314721" style="stroke: #000000; stroke-width: 0.8"/>
      </g>
     </g>
     <g id="text_13">
      <!-- 10000 -->
      <g transform="translate(105.1875 228.11394) scale(0.1 -0.1)">
       <use xlink:href="#DejaVuSans-31"/>
       <use xlink:href="#DejaVuSans-30" x="63.623047"/>
       <use xlink:href="#DejaVuSans-30" x="127.246094"/>
       <use xlink:href="#DejaVuSans-30" x="190.869141"/>
       <use xlink:href="#DejaVuSans-30" x="254.492188"/>
      </g>
     </g>
    </g>
    <g id="ytick_7">
     <g id="line2d_14">
      <g>
       <use xlink:href="#m665570e729" x="144" y="170.676302" style="stroke: #000000; stroke-width: 0.8"/>
      </g>
     </g>
     <g id="text_14">
      <!-- 12000 -->
      <g transform="translate(105.1875 174.47552) scale(0.1 -0.1)">
       <use xlink:href="#DejaVuSans-31"/>
       <use xlink:href="#DejaVuSans-32" x="63.623047"/>
       <use xlink:href="#DejaVuSans-30" x="127.246094"/>
       <use xlink:href="#DejaVuSans-30" x="190.869141"/>
       <use xlink:href="#DejaVuSans-30" x="254.492188"/>
      </g>
     </g>
    </g>
    <g id="ytick_8">
     <g id="line2d_15">
      <g>
       <use xlink:href="#m665570e729" x="144" y="117.037882" style="stroke: #000000; stroke-width: 0.8"/>
      </g>
     </g>
     <g id="text_15">
      <!-- 14000 -->
      <g transform="translate(105.1875 120.837101) scale(0.1 -0.1)">
       <use xlink:href="#DejaVuSans-31"/>
       <use xlink:href="#DejaVuSans-34" x="63.623047"/>
       <use xlink:href="#DejaVuSans-30" x="127.246094"/>
       <use xlink:href="#DejaVuSans-30" x="190.869141"/>
       <use xlink:href="#DejaVuSans-30" x="254.492188"/>
      </g>
     </g>
    </g>
   </g>
   <g id="line2d_16">
    <path d="M 184.581818 492.48 
L 186.231858 492.426362 
L 285.050923 492.292266 
L 450.971616 492.13135 
L 492.222617 491.970435 
L 584.991535 491.46087 
L 585.358211 491.246316 
L 589.208304 491.11222 
L 636.142777 490.951305 
L 640.176208 490.870847 
L 661.626729 490.683113 
L 689.127396 490.012633 
L 695.544218 489.663983 
L 705.077783 489.476249 
L 709.47789 488.510757 
L 709.661228 488.40348 
L 711.311268 488.323022 
L 712.044619 487.947554 
L 712.227957 487.330712 
L 712.594632 487.169796 
L 712.77797 487.142977 
L 712.961308 486.284763 
L 714.061334 485.909294 
L 714.42801 485.453367 
L 714.794686 485.319271 
L 714.978023 484.99744 
L 715.161361 484.300141 
L 715.528037 483.710118 
L 715.711374 482.932361 
L 715.894712 481.457305 
L 716.444726 480.491813 
L 716.811401 475.717994 
L 716.994739 475.208429 
L 717.361414 472.177858 
L 717.544752 471.668293 
L 717.72809 470.327333 
L 717.911428 470.246875 
L 718.461441 468.584084 
L 718.644779 464.829395 
L 718.828117 464.507564 
L 719.194792 463.461615 
L 719.37813 463.381157 
L 719.561468 462.817954 
L 719.744806 460.24331 
L 719.928143 459.626468 
L 720.111481 459.599649 
L 720.294819 457.722304 
L 720.478157 457.480931 
L 720.844832 457.346835 
L 721.578183 455.630406 
L 721.944859 455.094022 
L 722.494872 453.645784 
L 722.861548 449.622903 
L 723.228224 447.745558 
L 723.778237 447.6651 
L 724.144912 447.477366 
L 724.878264 446.458236 
L 725.244939 446.404598 
L 725.611615 444.28588 
L 725.97829 444.124965 
L 726.161628 443.910411 
L 726.344966 442.94492 
L 726.711641 442.676727 
L 726.894979 442.542631 
L 727.078317 442.086705 
L 727.62833 441.92579 
L 727.995006 441.684417 
L 728.361681 440.692106 
L 728.545019 440.611648 
L 728.911695 440.20936 
L 729.645046 439.914349 
L 729.828384 439.002496 
L 730.195059 438.814761 
L 730.378397 437.071513 
L 730.745073 437.017874 
L 731.111748 436.508309 
L 731.295086 435.998744 
L 731.845099 435.891467 
L 732.028437 435.730552 
L 732.395113 435.220987 
L 732.57845 435.194168 
L 732.945126 434.79188 
L 733.311802 434.684603 
L 733.495139 433.477738 
L 734.595166 433.343642 
L 734.961842 433.182727 
L 735.695193 433.10227 
L 735.878531 432.994993 
L 738.445259 432.378151 
L 738.811935 432.163597 
L 739.728624 432.05632 
L 740.461975 431.73449 
L 742.295353 431.412659 
L 743.028704 429.481676 
L 744.678744 429.293942 
L 745.778771 429.106207 
L 747.795486 428.703919 
L 748.528838 428.516185 
L 748.895513 428.462546 
L 749.262189 428.167535 
L 749.628864 428.087077 
L 749.812202 427.926162 
L 750.545553 427.711608 
L 751.462242 427.65797 
L 751.64558 427.470235 
L 752.012255 427.443416 
L 752.195593 427.041128 
L 752.378931 426.98749 
L 752.562269 426.424286 
L 755.312335 425.96836 
L 755.495673 425.646529 
L 756.779038 425.378337 
L 757.329051 425.217422 
L 758.062402 425.083326 
L 758.795753 424.922411 
L 759.89578 424.707857 
L 760.812469 424.439665 
L 761.54582 424.117834 
L 761.729158 423.58145 
L 762.645847 423.018247 
L 762.829185 422.776874 
L 763.745873 422.160032 
L 764.112549 421.596829 
L 764.295887 421.570009 
L 764.662562 421.006806 
L 765.395914 420.309506 
L 765.945927 420.229049 
L 766.312602 419.987676 
L 766.49594 419.907218 
L 766.679278 419.639026 
L 767.595967 419.451292 
L 767.779305 419.209919 
L 769.612683 418.914908 
L 769.79602 418.780811 
L 770.896047 418.619896 
L 771.812736 418.324885 
L 772.546087 418.190789 
L 772.912763 417.734862 
L 773.279438 417.547128 
L 774.196127 417.037563 
L 774.379465 416.420721 
L 775.296154 416.179348 
L 777.496207 415.187037 
L 777.679545 414.918845 
L 778.229558 414.75793 
L 779.146247 414.40928 
L 779.512923 411.646902 
L 779.696261 410.761868 
L 779.879598 409.286811 
L 780.062936 409.099077 
L 780.612949 407.409467 
L 781.162963 406.578071 
L 781.529638 406.363517 
L 781.712976 406.202602 
L 781.896314 405.398026 
L 782.079652 405.156653 
L 782.446327 405.076195 
L 782.996341 404.432534 
L 783.179678 403.949788 
L 783.729692 403.386585 
L 783.91303 402.662466 
L 784.829718 401.401964 
L 785.746407 401.026495 
L 785.929745 400.329195 
L 786.479759 400.087822 
L 787.21311 399.390523 
L 787.396447 398.880958 
L 787.763123 398.720043 
L 788.129799 398.344574 
L 788.496474 398.317754 
L 788.679812 398.049562 
L 789.046487 397.888647 
L 789.596501 397.45954 
L 789.963176 397.271805 
L 790.146514 396.815879 
L 791.429879 395.984483 
L 791.613216 395.904026 
L 791.979892 394.938534 
L 792.529905 394.7508 
L 793.079919 394.616703 
L 793.446594 394.133958 
L 793.81327 393.892585 
L 794.363283 393.141647 
L 795.646648 392.846636 
L 796.196661 392.122517 
L 796.930012 391.988421 
L 797.846701 391.425218 
L 798.030039 391.398398 
L 798.580052 391.022929 
L 798.946728 390.915653 
L 799.313403 390.888833 
L 799.496741 390.727918 
L 799.680079 390.298811 
L 800.41343 390.111076 
L 800.596768 389.869703 
L 800.780106 389.842884 
L 800.963443 389.360138 
L 801.696794 389.145585 
L 802.06347 389.065127 
L 802.430146 388.823754 
L 804.446861 388.126455 
L 804.630199 387.429155 
L 804.996875 387.187782 
L 805.546888 387.026867 
L 806.096901 386.758675 
L 806.830252 386.651398 
L 807.01359 385.927279 
L 807.563604 385.712726 
L 807.746941 385.551811 
L 808.480292 385.417715 
L 808.66363 385.310438 
L 809.030306 385.283618 
L 809.213644 385.069065 
L 809.946995 384.854511 
L 810.130332 384.5595 
L 810.497008 384.532681 
L 811.047021 384.264488 
L 811.413697 384.103573 
L 811.597035 383.808562 
L 812.880399 383.486731 
L 813.063737 383.325816 
L 813.61375 383.19172 
L 813.797088 382.950347 
L 813.980426 382.923528 
L 814.347101 382.708974 
L 814.713777 382.574878 
L 814.897115 382.467601 
L 815.997142 382.253048 
L 816.180479 381.958036 
L 816.730493 381.82394 
L 817.280506 381.743483 
L 817.647182 381.50211 
L 818.197195 381.368014 
L 818.56387 381.260737 
L 818.747208 381.073003 
L 819.113884 381.019364 
L 819.297222 380.563438 
L 819.480559 380.48298 
L 820.397248 379.410212 
L 820.580586 379.329754 
L 820.763924 379.1152 
L 821.130599 378.954285 
L 821.863951 378.471539 
L 822.230626 378.364262 
L 822.413964 378.069251 
L 822.963977 377.801059 
L 823.330653 377.613324 
L 823.880666 377.479228 
L 824.43068 377.07694 
L 824.797355 376.835567 
L 825.164031 376.567375 
L 825.897382 376.111449 
L 827.547422 375.521426 
L 828.280773 375.0655 
L 829.014124 374.850946 
L 829.564137 374.609573 
L 830.297489 374.395019 
L 830.664164 374.180466 
L 831.214177 374.04637 
L 831.764191 373.778177 
L 832.314204 373.644081 
L 832.864218 373.429528 
L 833.964244 373.188155 
L 834.514258 373.00042 
L 834.697595 372.732228 
L 837.080987 371.98129 
L 837.447662 371.820375 
L 837.814338 371.766737 
L 838.181013 371.418087 
L 838.364351 370.318499 
L 838.731027 370.050307 
L 839.097702 369.916211 
L 839.831053 369.192093 
L 840.014391 369.084816 
L 840.381067 368.387516 
L 840.747742 368.199782 
L 841.114418 368.038867 
L 841.481093 367.958409 
L 841.847769 367.743855 
L 842.031107 367.636578 
L 842.947796 367.448844 
L 843.314471 367.127013 
L 843.864484 366.751544 
L 844.23116 366.644268 
L 844.597836 366.322437 
L 845.697862 365.651957 
L 846.064538 365.625138 
L 846.247876 365.383765 
L 846.981227 365.22285 
L 847.164565 364.686465 
L 847.53124 364.418273 
L 848.447929 364.1769 
L 848.631267 364.096443 
L 848.814605 363.720974 
L 849.18128 363.613697 
L 849.364618 363.318686 
L 849.914631 362.970036 
L 850.281307 362.809121 
L 850.647982 362.728663 
L 851.014658 362.540929 
L 851.197996 362.514109 
L 851.564671 362.326375 
L 852.298022 361.977725 
L 852.664698 361.360883 
L 854.1314 360.744042 
L 854.314738 360.261296 
L 854.864751 360.10038 
L 855.414765 359.537177 
L 855.598103 359.483539 
L 855.964778 359.242166 
L 856.148116 359.215347 
L 856.514791 358.813058 
L 856.881467 358.625324 
L 857.614818 358.357132 
L 857.798156 358.08894 
L 858.164832 358.035301 
L 858.348169 357.847567 
L 858.531507 357.820748 
L 858.714845 357.284363 
L 859.264858 357.123448 
L 859.448196 357.042991 
L 859.814872 356.72116 
L 859.998209 356.613883 
L 860.548223 356.023861 
L 862.014925 355.246103 
L 862.748276 355.03155 
L 863.114952 354.629262 
L 863.298289 354.575623 
L 864.214978 353.905143 
L 864.764992 353.690589 
L 865.131667 353.529674 
L 865.315005 353.502855 
L 865.498343 352.966471 
L 866.048356 352.64464 
L 866.231694 352.135075 
L 866.59837 351.920521 
L 866.781707 351.705968 
L 866.965045 351.679149 
L 867.698396 351.115945 
L 868.431747 350.874572 
L 868.798423 350.633199 
L 869.89845 350.204092 
L 870.631801 349.426335 
L 870.998476 349.345877 
L 871.365152 349.077685 
L 871.54849 348.889951 
L 871.731827 348.863132 
L 871.915165 348.56812 
L 874.298556 347.441713 
L 874.665232 347.253979 
L 875.215245 347.066245 
L 875.765259 346.932148 
L 877.048623 346.127572 
L 877.415299 345.993476 
L 877.781974 345.886199 
L 878.14865 345.564369 
L 879.615352 345.027985 
L 879.982028 344.920708 
L 880.165365 343.955216 
L 880.715379 343.740662 
L 880.898717 343.49929 
L 881.082054 343.47247 
L 881.815405 342.48016 
L 881.998743 342.399702 
L 882.182081 342.077871 
L 882.548757 341.970595 
L 883.282108 341.11238 
L 883.648783 339.905515 
L 883.832121 339.530047 
L 884.198797 337.652702 
L 884.382134 336.848126 
L 885.298823 335.936272 
L 886.032174 333.549363 
L 886.215512 333.415267 
L 886.39885 333.066617 
L 886.582188 331.806114 
L 886.765526 331.430645 
L 886.948863 331.403826 
L 887.132201 330.813803 
L 887.682215 330.518792 
L 888.04889 329.794673 
L 890.065606 328.88282 
L 890.615619 328.319617 
L 890.982295 327.810052 
L 891.34897 327.702775 
L 891.715646 327.568679 
L 894.832388 326.576368 
L 895.382401 326.093622 
L 895.932415 325.82543 
L 896.29909 325.637696 
L 896.482428 325.396323 
L 897.215779 325.15495 
L 897.399117 325.074492 
L 897.582455 324.48447 
L 898.132468 324.13582 
L 898.682481 323.948086 
L 898.865819 323.760351 
L 899.415833 323.572617 
L 900.699197 323.009413 
L 901.24921 322.526668 
L 901.432548 322.151199 
L 901.799224 322.017103 
L 902.349237 321.132069 
L 902.532575 320.622504 
L 902.89925 320.40795 
L 903.449264 320.086119 
L 903.632602 319.844747 
L 903.999277 318.798797 
L 904.182615 318.584244 
L 904.365953 318.02104 
L 904.549291 317.967402 
L 904.732628 317.511475 
L 905.099304 317.35056 
L 906.199331 316.519165 
L 906.382668 316.143696 
L 906.932682 315.98278 
L 907.666033 315.741407 
L 908.216046 315.580492 
L 908.399384 315.017289 
L 908.949397 314.802735 
L 910.599437 314.051797 
L 911.882802 313.166763 
L 912.06614 312.92539 
L 912.249477 312.442645 
L 913.349504 312.040357 
L 913.71618 311.638068 
L 914.082855 311.557611 
L 914.266193 311.23578 
L 914.632869 311.101684 
L 914.816206 310.860311 
L 916.832922 309.868001 
L 917.932949 308.795232 
L 918.116286 308.258848 
L 918.482962 307.802921 
L 918.6663 307.534729 
L 919.399651 304.396882 
L 919.766326 303.753221 
L 919.949664 303.43139 
L 920.133002 302.009972 
L 920.499678 298.255283 
L 920.683015 296.699769 
L 920.866353 296.351119 
L 921.233029 294.500593 
L 921.599704 291.89913 
L 921.96638 288.251717 
L 922.333055 287.795791 
L 922.699731 283.129248 
L 922.883069 281.895565 
L 923.249744 276.773096 
L 923.61642 275.780785 
L 923.799758 273.098864 
L 923.983095 272.616118 
L 924.349771 269.719643 
L 924.716447 261.861615 
L 924.899784 261.459327 
L 925.083122 260.708389 
L 925.26646 258.29466 
L 925.449798 258.106926 
L 925.816473 254.057225 
L 926.183149 253.86949 
L 926.549824 253.118553 
L 926.733162 252.957637 
L 926.9165 252.582168 
L 927.099838 251.831231 
L 927.466513 251.670315 
L 928.016527 250.248897 
L 928.383202 248.210637 
L 928.56654 247.835168 
L 928.749878 247.78153 
L 928.933216 247.593795 
L 929.299891 247.08423 
L 929.483229 246.252835 
L 929.666567 246.0651 
L 929.849905 245.716451 
L 930.033242 245.662812 
L 930.399918 245.180067 
L 930.766593 245.04597 
L 930.949931 244.643682 
L 931.86662 243.839106 
L 932.416633 243.409999 
L 932.599971 243.383179 
L 933.149985 242.900434 
L 933.883336 242.498146 
L 934.616687 242.364049 
L 934.800025 242.203134 
L 935.1667 242.149496 
L 935.716714 241.800846 
L 937.183416 241.184004 
L 937.366754 240.808535 
L 938.283443 240.593982 
L 939.016794 240.084417 
L 939.750145 239.413936 
L 939.933483 239.253021 
L 940.666834 239.038467 
L 941.76686 238.341168 
L 942.316874 238.072976 
L 942.500212 237.59023 
L 943.783576 236.758835 
L 944.150252 236.544281 
L 945.616954 235.766524 
L 946.166967 235.712885 
L 946.533643 234.935128 
L 946.716981 234.854671 
L 947.083656 234.425563 
L 947.817007 233.808722 
L 948.000345 233.728264 
L 948.550358 233.084603 
L 948.733696 232.548219 
L 948.917034 232.414123 
L 949.283709 232.360484 
L 949.650385 232.092292 
L 950.383736 231.770462 
L 951.117087 231.448631 
L 951.483763 231.019524 
L 951.667101 230.992705 
L 951.850438 227.881676 
L 952.217114 227.452569 
L 952.58379 227.157558 
L 952.767127 226.835727 
L 952.950465 226.808908 
L 953.317141 226.460258 
L 953.500478 225.950693 
L 954.600505 224.931563 
L 954.783843 224.663371 
L 955.150519 223.161495 
L 955.333856 222.732388 
L 955.517194 221.927812 
L 955.700532 221.686439 
L 955.88387 220.667309 
L 956.250545 219.835913 
L 956.433883 219.192252 
L 957.167234 218.441314 
L 957.717247 217.824473 
L 958.083923 217.636738 
L 958.450599 217.502642 
L 959.367288 216.590789 
L 959.550625 216.21532 
L 959.733963 216.161682 
L 960.100639 215.813032 
L 960.283976 215.652117 
L 960.650652 215.008456 
L 961.017328 214.632987 
L 961.200665 213.747953 
L 962.48403 212.943376 
L 963.584057 211.629235 
L 963.767394 211.441501 
L 964.13407 210.583286 
L 964.317408 210.422371 
L 964.867421 209.295964 
L 965.050759 209.215506 
L 965.234097 208.73276 
L 965.417434 208.571845 
L 965.967448 207.123608 
L 966.517461 206.345851 
L 967.067474 206.050839 
L 967.43415 205.433998 
L 968.167501 204.763517 
L 968.534177 203.717568 
L 969.267528 201.706127 
L 969.450866 200.311529 
L 969.634203 200.096975 
L 969.817541 198.91693 
L 970.184217 198.434184 
L 970.367554 198.005076 
L 970.73423 195.966817 
L 971.100906 195.215879 
L 971.284243 195.054963 
L 971.467581 188.323342 
L 971.650919 185.775517 
L 971.834257 170.461748 
L 972.38427 169.415799 
L 972.567608 169.254884 
L 972.934283 167.994381 
L 973.300959 167.136166 
L 974.400986 160.726375 
L 974.950999 159.439053 
L 975.134337 157.963996 
L 975.501012 157.400793 
L 975.867688 156.14029 
L 976.051026 154.611595 
L 976.234364 154.236126 
L 976.601039 153.190177 
L 977.151052 152.358781 
L 977.33439 152.278324 
L 978.251079 149.033199 
L 978.801092 147.611781 
L 979.167768 145.761256 
L 979.351106 145.707617 
L 979.534444 145.519883 
L 979.717781 145.493064 
L 980.084457 145.117595 
L 980.267795 144.447115 
L 981.001146 143.401165 
L 981.367821 142.355216 
L 981.551159 142.22112 
L 981.917835 141.362905 
L 982.28451 139.807391 
L 982.467848 139.566018 
L 982.651186 139.51238 
L 983.017861 137.82277 
L 983.201199 137.47412 
L 983.751213 135.355402 
L 983.93455 135.060391 
L 985.217915 130.420668 
L 985.401253 130.313391 
L 986.134604 126.424606 
L 986.317942 126.317329 
L 986.501279 126.022317 
L 987.967982 121.758063 
L 988.334657 120.309826 
L 988.884671 119.210238 
L 989.434684 116.689232 
L 990.351373 113.846396 
L 990.901386 111.35221 
L 991.268062 109.179854 
L 991.634737 108.321639 
L 992.368088 105.800633 
L 992.918102 104.406034 
L 993.10144 102.743243 
L 993.284777 102.233678 
L 993.651453 100.275876 
L 994.75148 97.138028 
L 995.301493 94.563384 
L 995.484831 94.134277 
L 996.218182 89.28 
L 996.218182 89.28 
" clip-path="url(#p894748814c)" style="fill: none; stroke: #1f77b4; stroke-width: 1.5; stroke-linecap: square"/>
   </g>
   <g id="patch_3">
    <path d="M 144 512.64 
L 144 69.12 
" style="fill: none; stroke: #000000; stroke-width: 0.8; stroke-linejoin: miter; stroke-linecap: square"/>
   </g>
   <g id="patch_4">
    <path d="M 1036.8 512.64 
L 1036.8 69.12 
" style="fill: none; stroke: #000000; stroke-width: 0.8; stroke-linejoin: miter; stroke-linecap: square"/>
   </g>
   <g id="patch_5">
    <path d="M 144 512.64 
L 1036.8 512.64 
" style="fill: none; stroke: #000000; stroke-width: 0.8; stroke-linejoin: miter; stroke-linecap: square"/>
   </g>
   <g id="patch_6">
    <path d="M 144 69.12 
L 1036.8 69.12 
" style="fill: none; stroke: #000000; stroke-width: 0.8; stroke-linejoin: miter; stroke-linecap: square"/>
   </g>
   <g id="text_16">
    <!-- Number of AEDs in the OpenStreetMap database in Poland from first edition, day by day. As at: 2026-03-26 -->
    <g transform="translate(144 63.12) scale(0.14 -0.14)">
     <defs>
      <path id="DejaVuSans-4e" d="M 628 4666 
L 1478 4666 
L 3547 763 
L 3547 4666 
L 4159 4666 
L 4159 0 
L 3309 0 
L 1241 3903 
L 1241 0 
L 628 0 
L 628 4666 
z
" transform="scale(0.015625)"/>
      <path id="DejaVuSans-75" d="M 544 1381 
L 544 3500 
L 1119 3500 
L 1119 1403 
Q 1119 906 1312 657 
Q 1506 409 1894 409 
Q 2359 409 2629 706 
Q 2900 1003 2900 1516 
L 2900 3500 
L 3475 3500 
L 3475 0 
L 2900 0 
L 2900 538 
Q 2691 219 2414 64 
Q 2138 -91 1772 -91 
Q 1169 -91 856 284 
Q 544 659 544 1381 
z
M 1991 3584 
L 1991 3584 
z
" transform="scale(0.015625)"/>
      <path id="DejaVuSans-6d" d="M 3328 2828 
Q 3544 3216 3844 3400 
Q 4144 3584 4550 3584 
Q 5097 3584 5394 3201 
Q 5691 2819 5691 2113 
L 5691 0 
L 5113 0 
L 5113 2094 
Q 5113 2597 4934 2840 
Q 4756 3084 4391 3084 
Q 3944 3084 3684 2787 
Q 3425 2491 3425 1978 
L 3425 0 
L 2847 0 
L 2847 2094 
Q 2847 2600 2669 2842 
Q 2491 3084 2119 3084 
Q 1678 3084 1418 2786 
Q 1159 2488 1159 1978 
L 1159 0 
L 581 0 
L 581 3500 
L 1159 3500 
L 1159 2956 
Q 1356 3278 1631 3431 
Q 1906 3584 2284 3584 
Q 2666 3584 2933 3390 
Q 3200 3197 3328 2828 
z
" transform="scale(0.015625)"/>
      <path id="DejaVuSans-62" d="M 3116 1747 
Q 3116 2381 2855 2742 
Q 2594 3103 2138 3103 
Q 1681 3103 1420 2742 
Q 1159 2381 1159 1747 
Q 1159 1113 1420 752 
Q 1681 391 2138 391 
Q 2594 391 2855 752 
Q 3116 1113 3116 1747 
z
M 1159 2969 
Q 1341 3281 1617 3432 
Q 1894 3584 2278 3584 
Q 2916 3584 3314 3078 
Q 3713 2572 3713 1747 
Q 3713 922 3314 415 
Q 2916 -91 2278 -91 
Q 1894 -91 1617 61 
Q 1341 213 1159 525 
L 1159 0 
L 581 0 
L 581 4863 
L 1159 4863 
L 1159 2969 
z
" transform="scale(0.015625)"/>
      <path id="DejaVuSans-65" d="M 3597 1894 
L 3597 1613 
L 953 1613 
Q 991 1019 1311 708 
Q 1631 397 2203 397 
Q 2534 397 2845 478 
Q 3156 559 3463 722 
L 3463 178 
Q 3153 47 2828 -22 
Q 2503 -91 2169 -91 
Q 1331 -91 842 396 
Q 353 884 353 1716 
Q 353 2575 817 3079 
Q 1281 3584 2069 3584 
Q 2775 3584 3186 3129 
Q 3597 2675 3597 1894 
z
M 3022 2063 
Q 3016 2534 2758 2815 
Q 2500 3097 2075 3097 
Q 1594 3097 1305 2825 
Q 1016 2553 972 2059 
L 3022 2063 
z
" transform="scale(0.015625)"/>
      <path id="DejaVuSans-72" d="M 2631 2963 
Q 2534 3019 2420 3045 
Q 2306 3072 2169 3072 
Q 1681 3072 1420 2755 
Q 1159 2438 1159 1844 
L 1159 0 
L 581 0 
L 581 3500 
L 1159 3500 
L 1159 2956 
Q 1341 3275 1631 3429 
Q 1922 3584 2338 3584 
Q 2397 3584 2469 3576 
Q 2541 3569 2628 3553 
L 2631 2963 
z
" transform="scale(0.015625)"/>
      <path id="DejaVuSans-20" transform="scale(0.015625)"/>
      <path id="DejaVuSans-6f" d="M 1959 3097 
Q 1497 3097 1228 2736 
Q 959 2375 959 1747 
Q 959 1119 1226 758 
Q 1494 397 1959 397 
Q 2419 397 2687 759 
Q 2956 1122 2956 1747 
Q 2956 2369 2687 2733 
Q 2419 3097 1959 3097 
z
M 1959 3584 
Q 2709 3584 3137 3096 
Q 3566 2609 3566 1747 
Q 3566 888 3137 398 
Q 2709 -91 1959 -91 
Q 1206 -91 779 398 
Q 353 888 353 1747 
Q 353 2609 779 3096 
Q 1206 3584 1959 3584 
z
" transform="scale(0.015625)"/>
      <path id="DejaVuSans-66" d="M 2375 4863 
L 2375 4384 
L 1825 4384 
Q 1516 4384 1395 4259 
Q 1275 4134 1275 3809 
L 1275 3500 
L 2222 3500 
L 2222 3053 
L 1275 3053 
L 1275 0 
L 697 0 
L 697 3053 
L 147 3053 
L 147 3500 
L 697 3500 
L 697 3744 
Q 697 4328 969 4595 
Q 1241 4863 1831 4863 
L 2375 4863 
z
" transform="scale(0.015625)"/>
      <path id="DejaVuSans-41" d="M 2188 4044 
L 1331 1722 
L 3047 1722 
L 2188 4044 
z
M 1831 4666 
L 2547 4666 
L 4325 0 
L 3669 0 
L 3244 1197 
L 1141 1197 
L 716 0 
L 50 0 
L 1831 4666 
z
" transform="scale(0.015625)"/>
      <path id="DejaVuSans-45" d="M 628 4666 
L 3578 4666 
L 3578 4134 
L 1259 4134 
L 1259 2753 
L 3481 2753 
L 3481 2222 
L 1259 2222 
L 1259 531 
L 3634 531 
L 3634 0 
L 628 0 
L 628 4666 
z
" transform="scale(0.015625)"/>
      <path id="DejaVuSans-44" d="M 1259 4147 
L 1259 519 
L 2022 519 
Q 2988 519 3436 956 
Q 3884 1394 3884 2338 
Q 3884 3275 3436 3711 
Q 2988 4147 2022 4147 
L 1259 4147 
z
M 628 4666 
L 1925 4666 
Q 3281 4666 3915 4102 
Q 4550 3538 4550 2338 
Q 4550 1131 3912 565 
Q 3275 0 1925 0 
L 628 0 
L 628 4666 
z
" transform="scale(0.015625)"/>
      <path id="DejaVuSans-73" d="M 2834 3397 
L 2834 2853 
Q 2591 2978 2328 3040 
Q 2066 3103 1784 3103 
Q 1356 3103 1142 2972 
Q 928 2841 928 2578 
Q 928 2378 1081 2264 
Q 1234 2150 1697 2047 
L 1894 2003 
Q 2506 1872 2764 1633 
Q 3022 1394 3022 966 
Q 3022 478 2636 193 
Q 2250 -91 1575 -91 
Q 1294 -91 989 -36 
Q 684 19 347 128 
L 347 722 
Q 666 556 975 473 
Q 1284 391 1588 391 
Q 1994 391 2212 530 
Q 2431 669 2431 922 
Q 2431 1156 2273 1281 
Q 2116 1406 1581 1522 
L 1381 1569 
Q 847 1681 609 1914 
Q 372 2147 372 2553 
Q 372 3047 722 3315 
Q 1072 3584 1716 3584 
Q 2034 3584 2315 3537 
Q 2597 3491 2834 3397 
z
" transform="scale(0.015625)"/>
      <path id="DejaVuSans-69" d="M 603 3500 
L 1178 3500 
L 1178 0 
L 603 0 
L 603 3500 
z
M 603 4863 
L 1178 4863 
L 1178 4134 
L 603 4134 
L 603 4863 
z
" transform="scale(0.015625)"/>
      <path id="DejaVuSans-6e" d="M 3513 2113 
L 3513 0 
L 2938 0 
L 2938 2094 
Q 2938 2591 2744 2837 
Q 2550 3084 2163 3084 
Q 1697 3084 1428 2787 
Q 1159 2491 1159 1978 
L 1159 0 
L 581 0 
L 581 3500 
L 1159 3500 
L 1159 2956 
Q 1366 3272 1645 3428 
Q 1925 3584 2291 3584 
Q 2894 3584 3203 3211 
Q 3513 2838 3513 2113 
z
" transform="scale(0.015625)"/>
      <path id="DejaVuSans-74" d="M 1172 4494 
L 1172 3500 
L 2356 3500 
L 2356 3053 
L 1172 3053 
L 1172 1153 
Q 1172 725 1289 603 
Q 1406 481 1766 481 
L 2356 481 
L 2356 0 
L 1766 0 
Q 1100 0 847 248 
Q 594 497 594 1153 
L 594 3053 
L 172 3053 
L 172 3500 
L 594 3500 
L 594 4494 
L 1172 4494 
z
" transform="scale(0.015625)"/>
      <path id="DejaVuSans-68" d="M 3513 2113 
L 3513 0 
L 2938 0 
L 2938 2094 
Q 2938 2591 2744 2837 
Q 2550 3084 2163 3084 
Q 1697 3084 1428 2787 
Q 1159 2491 1159 1978 
L 1159 0 
L 581 0 
L 581 4863 
L 1159 4863 
L 1159 2956 
Q 1366 3272 1645 3428 
Q 1925 3584 2291 3584 
Q 2894 3584 3203 3211 
Q 3513 2838 3513 2113 
z
" transform="scale(0.015625)"/>
      <path id="DejaVuSans-4f" d="M 2522 4238 
Q 1834 4238 1429 3725 
Q 1025 3213 1025 2328 
Q 1025 1447 1429 934 
Q 1834 422 2522 422 
Q 3209 422 3611 934 
Q 4013 1447 4013 2328 
Q 4013 3213 3611 3725 
Q 3209 4238 2522 4238 
z
M 2522 4750 
Q 3503 4750 4090 4092 
Q 4678 3434 4678 2328 
Q 4678 1225 4090 567 
Q 3503 -91 2522 -91 
Q 1538 -91 948 565 
Q 359 1222 359 2328 
Q 359 3434 948 4092 
Q 1538 4750 2522 4750 
z
" transform="scale(0.015625)"/>
      <path id="DejaVuSans-70" d="M 1159 525 
L 1159 -1331 
L 581 -1331 
L 581 3500 
L 1159 3500 
L 1159 2969 
Q 1341 3281 1617 3432 
Q 1894 3584 2278 3584 
Q 2916 3584 3314 3078 
Q 3713 2572 3713 1747 
Q 3713 922 3314 415 
Q 2916 -91 2278 -91 
Q 1894 -91 1617 61 
Q 1341 213 1159 525 
z
M 3116 1747 
Q 3116 2381 2855 2742 
Q 2594 3103 2138 3103 
Q 1681 3103 1420 2742 
Q 1159 2381 1159 1747 
Q 1159 1113 1420 752 
Q 1681 391 2138 391 
Q 2594 391 2855 752 
Q 3116 1113 3116 1747 
z
" transform="scale(0.015625)"/>
      <path id="DejaVuSans-53" d="M 3425 4513 
L 3425 3897 
Q 3066 4069 2747 4153 
Q 2428 4238 2131 4238 
Q 1616 4238 1336 4038 
Q 1056 3838 1056 3469 
Q 1056 3159 1242 3001 
Q 1428 2844 1947 2747 
L 2328 2669 
Q 3034 2534 3370 2195 
Q 3706 1856 3706 1288 
Q 3706 609 3251 259 
Q 2797 -91 1919 -91 
Q 1588 -91 1214 -16 
Q 841 59 441 206 
L 441 856 
Q 825 641 1194 531 
Q 1563 422 1919 422 
Q 2459 422 2753 634 
Q 3047 847 3047 1241 
Q 3047 1584 2836 1778 
Q 2625 1972 2144 2069 
L 1759 2144 
Q 1053 2284 737 2584 
Q 422 2884 422 3419 
Q 422 4038 858 4394 
Q 1294 4750 2059 4750 
Q 2388 4750 2728 4690 
Q 3069 4631 3425 4513 
z
" transform="scale(0.015625)"/>
      <path id="DejaVuSans-4d" d="M 628 4666 
L 1569 4666 
L 2759 1491 
L 3956 4666 
L 4897 4666 
L 4897 0 
L 4281 0 
L 4281 4097 
L 3078 897 
L 2444 897 
L 1241 4097 
L 1241 0 
L 628 0 
L 628 4666 
z
" transform="scale(0.015625)"/>
      <path id="DejaVuSans-61" d="M 2194 1759 
Q 1497 1759 1228 1600 
Q 959 1441 959 1056 
Q 959 750 1161 570 
Q 1363 391 1709 391 
Q 2188 391 2477 730 
Q 2766 1069 2766 1631 
L 2766 1759 
L 2194 1759 
z
M 3341 1997 
L 3341 0 
L 2766 0 
L 2766 531 
Q 2569 213 2275 61 
Q 1981 -91 1556 -91 
Q 1019 -91 701 211 
Q 384 513 384 1019 
Q 384 1609 779 1909 
Q 1175 2209 1959 2209 
L 2766 2209 
L 2766 2266 
Q 2766 2663 2505 2880 
Q 2244 3097 1772 3097 
Q 1472 3097 1187 3025 
Q 903 2953 641 2809 
L 641 3341 
Q 956 3463 1253 3523 
Q 1550 3584 1831 3584 
Q 2591 3584 2966 3190 
Q 3341 2797 3341 1997 
z
" transform="scale(0.015625)"/>
      <path id="DejaVuSans-64" d="M 2906 2969 
L 2906 4863 
L 3481 4863 
L 3481 0 
L 2906 0 
L 2906 525 
Q 2725 213 2448 61 
Q 2172 -91 1784 -91 
Q 1150 -91 751 415 
Q 353 922 353 1747 
Q 353 2572 751 3078 
Q 1150 3584 1784 3584 
Q 2172 3584 2448 3432 
Q 2725 3281 2906 2969 
z
M 947 1747 
Q 947 1113 1208 752 
Q 1469 391 1925 391 
Q 2381 391 2643 752 
Q 2906 1113 2906 1747 
Q 2906 2381 2643 2742 
Q 2381 3103 1925 3103 
Q 1469 3103 1208 2742 
Q 947 2381 947 1747 
z
" transform="scale(0.015625)"/>
      <path id="DejaVuSans-50" d="M 1259 4147 
L 1259 2394 
L 2053 2394 
Q 2494 2394 2734 2622 
Q 2975 2850 2975 3272 
Q 2975 3691 2734 3919 
Q 2494 4147 2053 4147 
L 1259 4147 
z
M 628 4666 
L 2053 4666 
Q 2838 4666 3239 4311 
Q 3641 3956 3641 3272 
Q 3641 2581 3239 2228 
Q 2838 1875 2053 1875 
L 1259 1875 
L 1259 0 
L 628 0 
L 628 4666 
z
" transform="scale(0.015625)"/>
      <path id="DejaVuSans-6c" d="M 603 4863 
L 1178 4863 
L 1178 0 
L 603 0 
L 603 4863 
z
" transform="scale(0.015625)"/>
      <path id="DejaVuSans-2c" d="M 750 794 
L 1409 794 
L 1409 256 
L 897 -744 
L 494 -744 
L 750 256 
L 750 794 
z
" transform="scale(0.015625)"/>
      <path id="DejaVuSans-79" d="M 2059 -325 
Q 1816 -950 1584 -1140 
Q 1353 -1331 966 -1331 
L 506 -1331 
L 506 -850 
L 844 -850 
Q 1081 -850 1212 -737 
Q 1344 -625 1503 -206 
L 1606 56 
L 191 3500 
L 800 3500 
L 1894 763 
L 2988 3500 
L 3597 3500 
L 2059 -325 
z
" transform="scale(0.015625)"/>
      <path id="DejaVuSans-2e" d="M 684 794 
L 1344 794 
L 1344 0 
L 684 0 
L 684 794 
z
" transform="scale(0.015625)"/>
      <path id="DejaVuSans-3a" d="M 750 794 
L 1409 794 
L 1409 0 
L 750 0 
L 750 794 
z
M 750 3309 
L 1409 3309 
L 1409 2516 
L 750 2516 
L 750 3309 
z
" transform="scale(0.015625)"/>
      <path id="DejaVuSans-2d" d="M 313 2009 
L 1997 2009 
L 1997 1497 
L 313 1497 
L 313 2009 
z
" transform="scale(0.015625)"/>
      <path id="DejaVuSans-33" d="M 2597 2516 
Q 3050 2419 3304 2112 
Q 3559 1806 3559 1356 
Q 3559 666 3084 287 
Q 2609 -91 1734 -91 
Q 1441 -91 1130 -33 
Q 819 25 488 141 
L 488 750 
Q 750 597 1062 519 
Q 1375 441 1716 441 
Q 2309 441 2620 675 
Q 2931 909 2931 1356 
Q 2931 1769 2642 2001 
Q 2353 2234 1838 2234 
L 1294 2234 
L 1294 2753 
L 1863 2753 
Q 2328 2753 2575 2939 
Q 2822 3125 2822 3475 
Q 2822 3834 2567 4026 
Q 2313 4219 1838 4219 
Q 1578 4219 1281 4162 
Q 984 4106 628 3988 
L 628 4550 
Q 988 4650 1302 4700 
Q 1616 4750 1894 4750 
Q 2613 4750 3031 4423 
Q 3450 4097 3450 3541 
Q 3450 3153 3228 2886 
Q 3006 2619 2597 2516 
z
" transform="scale(0.015625)"/>
     </defs>
     <use xlink:href="#DejaVuSans-4e"/>
     <use xlink:href="#DejaVuSans-75" x="74.804688"/>
     <use xlink:href="#DejaVuSans-6d" x="138.183594"/>
     <use xlink:href="#DejaVuSans-62" x="235.595703"/>
     <use xlink:href="#DejaVuSans-65" x="299.072266"/>
     <use xlink:href="#DejaVuSans-72" x="360.595703"/>
     <use xlink:href="#DejaVuSans-20" x="401.708984"/>
     <use xlink:href="#DejaVuSans-6f" x="433.496094"/>
     <use xlink:href="#DejaVuSans-66" x="494.677734"/>
     <use xlink:href="#DejaVuSans-20" x="529.882812"/>
     <use xlink:href="#DejaVuSans-41" x="561.669922"/>
     <use xlink:href="#DejaVuSans-45" x="630.078125"/>
     <use xlink:href="#DejaVuSans-44" x="693.261719"/>
     <use xlink:href="#DejaVuSans-73" x="770.263672"/>
     <use xlink:href="#DejaVuSans-20" x="822.363281"/>
     <use xlink:href="#DejaVuSans-69" x="854.150391"/>
     <use xlink:href="#DejaVuSans-6e" x="881.933594"/>
     <use xlink:href="#DejaVuSans-20" x="945.3125"/>
     <use xlink:href="#DejaVuSans-74" x="977.099609"/>
     <use xlink:href="#DejaVuSans-68" x="1016.308594"/>
     <use xlink:href="#DejaVuSans-65" x="1079.6875"/>
     <use xlink:href="#DejaVuSans-20" x="1141.210938"/>
     <use xlink:href="#DejaVuSans-4f" x="1172.998047"/>
     <use xlink:href="#DejaVuSans-70" x="1251.708984"/>
     <use xlink:href="#DejaVuSans-65" x="1315.185547"/>
     <use xlink:href="#DejaVuSans-6e" x="1376.708984"/>
     <use xlink:href="#DejaVuSans-53" x="1440.087891"/>
     <use xlink:href="#DejaVuSans-74" x="1503.564453"/>
     <use xlink:href="#DejaVuSans-72" x="1542.773438"/>
     <use xlink:href="#DejaVuSans-65" x="1581.636719"/>
     <use xlink:href="#DejaVuSans-65" x="1643.160156"/>
     <use xlink:href="#DejaVuSans-74" x="1704.683594"/>
     <use xlink:href="#DejaVuSans-4d" x="1743.892578"/>
     <use xlink:href="#DejaVuSans-61" x="1830.171875"/>
     <use xlink:href="#DejaVuSans-70" x="1891.451172"/>
     <use xlink:href="#DejaVuSans-20" x="1954.927734"/>
     <use xlink:href="#DejaVuSans-64" x="1986.714844"/>
     <use xlink:href="#DejaVuSans-61" x="2050.191406"/>
     <use xlink:href="#DejaVuSans-74" x="2111.470703"/>
     <use xlink:href="#DejaVuSans-61" x="2150.679688"/>
     <use xlink:href="#DejaVuSans-62" x="2211.958984"/>
     <use xlink:href="#DejaVuSans-61" x="2275.435547"/>
     <use xlink:href="#DejaVuSans-73" x="2336.714844"/>
     <use xlink:href="#DejaVuSans-65" x="2388.814453"/>
     <use xlink:href="#DejaVuSans-20" x="2450.337891"/>
     <use xlink:href="#DejaVuSans-69" x="2482.125"/>
     <use xlink:href="#DejaVuSans-6e" x="2509.908203"/>
     <use xlink:href="#DejaVuSans-20" x="2573.287109"/>
     <use xlink:href="#DejaVuSans-50" x="2605.074219"/>
     <use xlink:href="#DejaVuSans-6f" x="2661.751953"/>
     <use xlink:href="#DejaVuSans-6c" x="2722.933594"/>
     <use xlink:href="#DejaVuSans-61" x="2750.716797"/>
     <use xlink:href="#DejaVuSans-6e" x="2811.996094"/>
     <use xlink:href="#DejaVuSans-64" x="2875.375"/>
     <use xlink:href="#DejaVuSans-20" x="2938.851562"/>
     <use xlink:href="#DejaVuSans-66" x="2970.638672"/>
     <use xlink:href="#DejaVuSans-72" x="3005.84375"/>
     <use xlink:href="#DejaVuSans-6f" x="3044.707031"/>
     <use xlink:href="#DejaVuSans-6d" x="3105.888672"/>
     <use xlink:href="#DejaVuSans-20" x="3203.300781"/>
     <use xlink:href="#DejaVuSans-66" x="3235.087891"/>
     <use xlink:href="#DejaVuSans-69" x="3270.292969"/>
     <use xlink:href="#DejaVuSans-72" x="3298.076172"/>
     <use xlink:href="#DejaVuSans-73" x="3339.189453"/>
     <use xlink:href="#DejaVuSans-74" x="3391.289062"/>
     <use xlink:href="#DejaVuSans-20" x="3430.498047"/>
     <use xlink:href="#DejaVuSans-65" x="3462.285156"/>
     <use xlink:href="#DejaVuSans-64" x="3523.808594"/>
     <use xlink:href="#DejaVuSans-69" x="3587.285156"/>
     <use xlink:href="#DejaVuSans-74" x="3615.068359"/>
     <use xlink:href="#DejaVuSans-69" x="3654.277344"/>
     <use xlink:href="#DejaVuSans-6f" x="3682.060547"/>
     <use xlink:href="#DejaVuSans-6e" x="3743.242188"/>
     <use xlink:href="#DejaVuSans-2c" x="3806.621094"/>
     <use xlink:href="#DejaVuSans-20" x="3838.408203"/>
     <use xlink:href="#DejaVuSans-64" x="3870.195312"/>
     <use xlink:href="#DejaVuSans-61" x="3933.671875"/>
     <use xlink:href="#DejaVuSans-79" x="3994.951172"/>
     <use xlink:href="#DejaVuSans-20" x="4054.130859"/>
     <use xlink:href="#DejaVuSans-62" x="4085.917969"/>
     <use xlink:href="#DejaVuSans-79" x="4149.394531"/>
     <use xlink:href="#DejaVuSans-20" x="4208.574219"/>
     <use xlink:href="#DejaVuSans-64" x="4240.361328"/>
     <use xlink:href="#DejaVuSans-61" x="4303.837891"/>
     <use xlink:href="#DejaVuSans-79" x="4365.117188"/>
     <use xlink:href="#DejaVuSans-2e" x="4410.046875"/>
     <use xlink:href="#DejaVuSans-20" x="4441.833984"/>
     <use xlink:href="#DejaVuSans-41" x="4473.621094"/>
     <use xlink:href="#DejaVuSans-73" x="4542.029297"/>
     <use xlink:href="#DejaVuSans-20" x="4594.128906"/>
     <use xlink:href="#DejaVuSans-61" x="4625.916016"/>
     <use xlink:href="#DejaVuSans-74" x="4687.195312"/>
     <use xlink:href="#DejaVuSans-3a" x="4726.404297"/>
     <use xlink:href="#DejaVuSans-20" x="4760.095703"/>
     <use xlink:href="#DejaVuSans-32" x="4791.882812"/>
     <use xlink:href="#DejaVuSans-30" x="4855.505859"/>
     <use xlink:href="#DejaVuSans-32" x="4919.128906"/>
     <use xlink:href="#DejaVuSans-36" x="4982.751953"/>
     <use xlink:href="#DejaVuSans-2d" x="5046.375"/>
     <use xlink:href="#DejaVuSans-30" x="5082.458984"/>
     <use xlink:href="#DejaVuSans-33" x="5146.082031"/>
     <use xlink:href="#DejaVuSans-2d" x="5209.705078"/>
     <use xlink:href="#DejaVuSans-32" x="5245.789062"/>
     <use xlink:href="#DejaVuSans-36" x="5309.412109"/>
    </g>
   </g>
  </g>
 </g>
 <defs>
  <clipPath id="p894748814c">
   <rect x="144" y="69.12" width="892.8" height="443.52"/>
  </clipPath>
 </defs>
</svg>
