<?xml version="1.0" encoding="utf-8" standalone="no"?>
<!DOCTYPE svg PUBLIC "-//W3C//DTD SVG 1.1//EN"
  "http://www.w3.org/Graphics/SVG/1.1/DTD/svg11.dtd">
<svg xmlns:xlink="http://www.w3.org/1999/xlink" width="1152pt" height="576pt" viewBox="0 0 1152 576" xmlns="http://www.w3.org/2000/svg" version="1.1">
 <metadata>
  <rdf:RDF xmlns:dc="http://purl.org/dc/elements/1.1/" xmlns:cc="http://creativecommons.org/ns#" xmlns:rdf="http://www.w3.org/1999/02/22-rdf-syntax-ns#">
   <cc:Work>
    <dc:type rdf:resource="http://purl.org/dc/dcmitype/StillImage"/>
    <dc:date>1980-01-01T00:00:00+00:00</dc:date>
    <dc:format>image/svg+xml</dc:format>
    <dc:creator>
     <cc:Agent>
      <dc:title>Matplotlib v3.9.1, https://matplotlib.org/</dc:title>
     </cc:Agent>
    </dc:creator>
   </cc:Work>
  </rdf:RDF>
 </metadata>
 <defs>
  <style type="text/css">*{stroke-linejoin: round; stroke-linecap: butt}</style>
 </defs>
 <g id="figure_1">
  <g id="patch_1">
   <path d="M 0 576 
L 1152 576 
L 1152 0 
L 0 0 
z
" style="fill: #ffffff"/>
  </g>
  <g id="axes_1">
   <g id="patch_2">
    <path d="M 144 512.64 
L 1036.8 512.64 
L 1036.8 69.12 
L 144 69.12 
z
" style="fill: #ffffff"/>
   </g>
   <g id="matplotlib.axis_1">
    <g id="xtick_1">
     <g id="line2d_1">
      <defs>
       <path id="m475bd035d5" d="M 0 0 
L 0 3.5 
" style="stroke: #000000; stroke-width: 0.8"/>
      </defs>
      <g>
       <use xlink:href="#m475bd035d5" x="176.760702" y="512.64" style="stroke: #000000; stroke-width: 0.8"/>
      </g>
     </g>
     <g id="text_1">
      <!-- 2014 -->
      <g transform="translate(164.035702 527.238438) scale(0.1 -0.1)">
       <defs>
        <path id="DejaVuSans-32" d="M 1228 531 
L 3431 531 
L 3431 0 
L 469 0 
L 469 531 
Q 828 903 1448 1529 
Q 2069 2156 2228 2338 
Q 2531 2678 2651 2914 
Q 2772 3150 2772 3378 
Q 2772 3750 2511 3984 
Q 2250 4219 1831 4219 
Q 1534 4219 1204 4116 
Q 875 4013 500 3803 
L 500 4441 
Q 881 4594 1212 4672 
Q 1544 4750 1819 4750 
Q 2544 4750 2975 4387 
Q 3406 4025 3406 3419 
Q 3406 3131 3298 2873 
Q 3191 2616 2906 2266 
Q 2828 2175 2409 1742 
Q 1991 1309 1228 531 
z
" transform="scale(0.015625)"/>
        <path id="DejaVuSans-30" d="M 2034 4250 
Q 1547 4250 1301 3770 
Q 1056 3291 1056 2328 
Q 1056 1369 1301 889 
Q 1547 409 2034 409 
Q 2525 409 2770 889 
Q 3016 1369 3016 2328 
Q 3016 3291 2770 3770 
Q 2525 4250 2034 4250 
z
M 2034 4750 
Q 2819 4750 3233 4129 
Q 3647 3509 3647 2328 
Q 3647 1150 3233 529 
Q 2819 -91 2034 -91 
Q 1250 -91 836 529 
Q 422 1150 422 2328 
Q 422 3509 836 4129 
Q 1250 4750 2034 4750 
z
" transform="scale(0.015625)"/>
        <path id="DejaVuSans-31" d="M 794 531 
L 1825 531 
L 1825 4091 
L 703 3866 
L 703 4441 
L 1819 4666 
L 2450 4666 
L 2450 531 
L 3481 531 
L 3481 0 
L 794 0 
L 794 531 
z
" transform="scale(0.015625)"/>
        <path id="DejaVuSans-34" d="M 2419 4116 
L 825 1625 
L 2419 1625 
L 2419 4116 
z
M 2253 4666 
L 3047 4666 
L 3047 1625 
L 3713 1625 
L 3713 1100 
L 3047 1100 
L 3047 0 
L 2419 0 
L 2419 1100 
L 313 1100 
L 313 1709 
L 2253 4666 
z
" transform="scale(0.015625)"/>
       </defs>
       <use xlink:href="#DejaVuSans-32"/>
       <use xlink:href="#DejaVuSans-30" x="63.623047"/>
       <use xlink:href="#DejaVuSans-31" x="127.246094"/>
       <use xlink:href="#DejaVuSans-34" x="190.869141"/>
      </g>
     </g>
    </g>
    <g id="xtick_2">
     <g id="line2d_2">
      <g>
       <use xlink:href="#m475bd035d5" x="319.496078" y="512.64" style="stroke: #000000; stroke-width: 0.8"/>
      </g>
     </g>
     <g id="text_2">
      <!-- 2016 -->
      <g transform="translate(306.771078 527.238438) scale(0.1 -0.1)">
       <defs>
        <path id="DejaVuSans-36" d="M 2113 2584 
Q 1688 2584 1439 2293 
Q 1191 2003 1191 1497 
Q 1191 994 1439 701 
Q 1688 409 2113 409 
Q 2538 409 2786 701 
Q 3034 994 3034 1497 
Q 3034 2003 2786 2293 
Q 2538 2584 2113 2584 
z
M 3366 4563 
L 3366 3988 
Q 3128 4100 2886 4159 
Q 2644 4219 2406 4219 
Q 1781 4219 1451 3797 
Q 1122 3375 1075 2522 
Q 1259 2794 1537 2939 
Q 1816 3084 2150 3084 
Q 2853 3084 3261 2657 
Q 3669 2231 3669 1497 
Q 3669 778 3244 343 
Q 2819 -91 2113 -91 
Q 1303 -91 875 529 
Q 447 1150 447 2328 
Q 447 3434 972 4092 
Q 1497 4750 2381 4750 
Q 2619 4750 2861 4703 
Q 3103 4656 3366 4563 
z
" transform="scale(0.015625)"/>
       </defs>
       <use xlink:href="#DejaVuSans-32"/>
       <use xlink:href="#DejaVuSans-30" x="63.623047"/>
       <use xlink:href="#DejaVuSans-31" x="127.246094"/>
       <use xlink:href="#DejaVuSans-36" x="190.869141"/>
      </g>
     </g>
    </g>
    <g id="xtick_3">
     <g id="line2d_3">
      <g>
       <use xlink:href="#m475bd035d5" x="462.426981" y="512.64" style="stroke: #000000; stroke-width: 0.8"/>
      </g>
     </g>
     <g id="text_3">
      <!-- 2018 -->
      <g transform="translate(449.701981 527.238438) scale(0.1 -0.1)">
       <defs>
        <path id="DejaVuSans-38" d="M 2034 2216 
Q 1584 2216 1326 1975 
Q 1069 1734 1069 1313 
Q 1069 891 1326 650 
Q 1584 409 2034 409 
Q 2484 409 2743 651 
Q 3003 894 3003 1313 
Q 3003 1734 2745 1975 
Q 2488 2216 2034 2216 
z
M 1403 2484 
Q 997 2584 770 2862 
Q 544 3141 544 3541 
Q 544 4100 942 4425 
Q 1341 4750 2034 4750 
Q 2731 4750 3128 4425 
Q 3525 4100 3525 3541 
Q 3525 3141 3298 2862 
Q 3072 2584 2669 2484 
Q 3125 2378 3379 2068 
Q 3634 1759 3634 1313 
Q 3634 634 3220 271 
Q 2806 -91 2034 -91 
Q 1263 -91 848 271 
Q 434 634 434 1313 
Q 434 1759 690 2068 
Q 947 2378 1403 2484 
z
M 1172 3481 
Q 1172 3119 1398 2916 
Q 1625 2713 2034 2713 
Q 2441 2713 2670 2916 
Q 2900 3119 2900 3481 
Q 2900 3844 2670 4047 
Q 2441 4250 2034 4250 
Q 1625 4250 1398 4047 
Q 1172 3844 1172 3481 
z
" transform="scale(0.015625)"/>
       </defs>
       <use xlink:href="#DejaVuSans-32"/>
       <use xlink:href="#DejaVuSans-30" x="63.623047"/>
       <use xlink:href="#DejaVuSans-31" x="127.246094"/>
       <use xlink:href="#DejaVuSans-38" x="190.869141"/>
      </g>
     </g>
    </g>
    <g id="xtick_4">
     <g id="line2d_4">
      <g>
       <use xlink:href="#m475bd035d5" x="605.162357" y="512.64" style="stroke: #000000; stroke-width: 0.8"/>
      </g>
     </g>
     <g id="text_4">
      <!-- 2020 -->
      <g transform="translate(592.437357 527.238438) scale(0.1 -0.1)">
       <use xlink:href="#DejaVuSans-32"/>
       <use xlink:href="#DejaVuSans-30" x="63.623047"/>
       <use xlink:href="#DejaVuSans-32" x="127.246094"/>
       <use xlink:href="#DejaVuSans-30" x="190.869141"/>
      </g>
     </g>
    </g>
    <g id="xtick_5">
     <g id="line2d_5">
      <g>
       <use xlink:href="#m475bd035d5" x="748.093261" y="512.64" style="stroke: #000000; stroke-width: 0.8"/>
      </g>
     </g>
     <g id="text_5">
      <!-- 2022 -->
      <g transform="translate(735.368261 527.238438) scale(0.1 -0.1)">
       <use xlink:href="#DejaVuSans-32"/>
       <use xlink:href="#DejaVuSans-30" x="63.623047"/>
       <use xlink:href="#DejaVuSans-32" x="127.246094"/>
       <use xlink:href="#DejaVuSans-32" x="190.869141"/>
      </g>
     </g>
    </g>
    <g id="xtick_6">
     <g id="line2d_6">
      <g>
       <use xlink:href="#m475bd035d5" x="890.828637" y="512.64" style="stroke: #000000; stroke-width: 0.8"/>
      </g>
     </g>
     <g id="text_6">
      <!-- 2024 -->
      <g transform="translate(878.103637 527.238438) scale(0.1 -0.1)">
       <use xlink:href="#DejaVuSans-32"/>
       <use xlink:href="#DejaVuSans-30" x="63.623047"/>
       <use xlink:href="#DejaVuSans-32" x="127.246094"/>
       <use xlink:href="#DejaVuSans-34" x="190.869141"/>
      </g>
     </g>
    </g>
    <g id="xtick_7">
     <g id="line2d_7">
      <g>
       <use xlink:href="#m475bd035d5" x="1033.759541" y="512.64" style="stroke: #000000; stroke-width: 0.8"/>
      </g>
     </g>
     <g id="text_7">
      <!-- 2026 -->
      <g transform="translate(1021.034541 527.238438) scale(0.1 -0.1)">
       <use xlink:href="#DejaVuSans-32"/>
       <use xlink:href="#DejaVuSans-30" x="63.623047"/>
       <use xlink:href="#DejaVuSans-32" x="127.246094"/>
       <use xlink:href="#DejaVuSans-36" x="190.869141"/>
      </g>
     </g>
    </g>
   </g>
   <g id="matplotlib.axis_2">
    <g id="ytick_1">
     <g id="line2d_8">
      <defs>
       <path id="m9934c85cbc" d="M 0 0 
L -3.5 0 
" style="stroke: #000000; stroke-width: 0.8"/>
      </defs>
      <g>
       <use xlink:href="#m9934c85cbc" x="144" y="492.515704" style="stroke: #000000; stroke-width: 0.8"/>
      </g>
     </g>
     <g id="text_8">
      <!-- 0 -->
      <g transform="translate(130.6375 496.314922) scale(0.1 -0.1)">
       <use xlink:href="#DejaVuSans-30"/>
      </g>
     </g>
    </g>
    <g id="ytick_2">
     <g id="line2d_9">
      <g>
       <use xlink:href="#m9934c85cbc" x="144" y="421.108637" style="stroke: #000000; stroke-width: 0.8"/>
      </g>
     </g>
     <g id="text_9">
      <!-- 2000 -->
      <g transform="translate(111.55 424.907856) scale(0.1 -0.1)">
       <use xlink:href="#DejaVuSans-32"/>
       <use xlink:href="#DejaVuSans-30" x="63.623047"/>
       <use xlink:href="#DejaVuSans-30" x="127.246094"/>
       <use xlink:href="#DejaVuSans-30" x="190.869141"/>
      </g>
     </g>
    </g>
    <g id="ytick_3">
     <g id="line2d_10">
      <g>
       <use xlink:href="#m9934c85cbc" x="144" y="349.701571" style="stroke: #000000; stroke-width: 0.8"/>
      </g>
     </g>
     <g id="text_10">
      <!-- 4000 -->
      <g transform="translate(111.55 353.50079) scale(0.1 -0.1)">
       <use xlink:href="#DejaVuSans-34"/>
       <use xlink:href="#DejaVuSans-30" x="63.623047"/>
       <use xlink:href="#DejaVuSans-30" x="127.246094"/>
       <use xlink:href="#DejaVuSans-30" x="190.869141"/>
      </g>
     </g>
    </g>
    <g id="ytick_4">
     <g id="line2d_11">
      <g>
       <use xlink:href="#m9934c85cbc" x="144" y="278.294505" style="stroke: #000000; stroke-width: 0.8"/>
      </g>
     </g>
     <g id="text_11">
      <!-- 6000 -->
      <g transform="translate(111.55 282.093723) scale(0.1 -0.1)">
       <use xlink:href="#DejaVuSans-36"/>
       <use xlink:href="#DejaVuSans-30" x="63.623047"/>
       <use xlink:href="#DejaVuSans-30" x="127.246094"/>
       <use xlink:href="#DejaVuSans-30" x="190.869141"/>
      </g>
     </g>
    </g>
    <g id="ytick_5">
     <g id="line2d_12">
      <g>
       <use xlink:href="#m9934c85cbc" x="144" y="206.887438" style="stroke: #000000; stroke-width: 0.8"/>
      </g>
     </g>
     <g id="text_12">
      <!-- 8000 -->
      <g transform="translate(111.55 210.686657) scale(0.1 -0.1)">
       <use xlink:href="#DejaVuSans-38"/>
       <use xlink:href="#DejaVuSans-30" x="63.623047"/>
       <use xlink:href="#DejaVuSans-30" x="127.246094"/>
       <use xlink:href="#DejaVuSans-30" x="190.869141"/>
      </g>
     </g>
    </g>
    <g id="ytick_6">
     <g id="line2d_13">
      <g>
       <use xlink:href="#m9934c85cbc" x="144" y="135.480372" style="stroke: #000000; stroke-width: 0.8"/>
      </g>
     </g>
     <g id="text_13">
      <!-- 10000 -->
      <g transform="translate(105.1875 139.279591) scale(0.1 -0.1)">
       <use xlink:href="#DejaVuSans-31"/>
       <use xlink:href="#DejaVuSans-30" x="63.623047"/>
       <use xlink:href="#DejaVuSans-30" x="127.246094"/>
       <use xlink:href="#DejaVuSans-30" x="190.869141"/>
       <use xlink:href="#DejaVuSans-30" x="254.492188"/>
      </g>
     </g>
    </g>
   </g>
   <g id="line2d_14">
    <path d="M 184.581818 492.48 
L 186.341569 492.408593 
L 308.546515 492.194372 
L 451.672946 492.015854 
L 504.856538 491.801633 
L 518.73902 491.694522 
L 551.978765 491.516005 
L 553.542989 491.444598 
L 562.537273 491.337487 
L 605.357885 491.123266 
L 611.614778 491.051859 
L 612.005834 490.76623 
L 616.11192 490.587713 
L 650.524833 490.444899 
L 654.435391 490.337788 
L 668.513401 490.194974 
L 678.289797 490.123567 
L 692.172278 489.909346 
L 695.887309 489.766531 
L 705.468176 489.55231 
L 708.205567 489.373793 
L 709.965318 489.266682 
L 711.334014 489.088164 
L 718.764074 488.873943 
L 718.959602 488.83824 
L 723.065688 488.695425 
L 729.51811 488.23128 
L 739.685561 487.981355 
L 744.378231 486.51751 
L 744.573759 486.374696 
L 746.33351 486.196178 
L 747.115622 485.624922 
L 747.31115 484.732333 
L 747.702205 484.518112 
L 747.897733 484.482409 
L 748.093261 483.268488 
L 749.266429 482.768639 
L 749.657485 482.161679 
L 750.04854 481.911754 
L 750.244068 481.340498 
L 750.439596 479.876653 
L 750.635124 479.519617 
L 750.830652 478.769843 
L 751.02618 477.555923 
L 751.417236 474.59253 
L 751.808292 473.628534 
L 752.003819 468.844261 
L 752.199347 466.91627 
L 752.394875 466.166496 
L 752.590403 462.66755 
L 753.176987 458.668754 
L 753.372515 458.561643 
L 753.763571 456.526542 
L 753.959099 455.848175 
L 754.154626 450.635459 
L 754.350154 450.171313 
L 754.74121 448.457544 
L 754.936738 448.350433 
L 755.132266 447.457845 
L 755.327794 443.708974 
L 755.523322 442.780682 
L 755.71885 442.709275 
L 755.914378 439.924399 
L 756.109906 439.353143 
L 756.500961 439.174625 
L 757.283073 436.461156 
L 757.674129 435.747086 
L 758.065185 433.640577 
L 758.260713 432.819396 
L 758.456241 428.784897 
L 759.042824 424.357659 
L 759.629408 424.143438 
L 760.020464 423.893513 
L 760.802576 422.393964 
L 761.193631 422.25115 
L 761.584687 419.144943 
L 761.780215 419.109239 
L 762.171271 418.573686 
L 762.366799 417.038434 
L 762.757855 416.431474 
L 763.14891 415.431775 
L 763.735494 415.181851 
L 763.931022 414.931926 
L 764.517606 412.682603 
L 764.713134 412.539789 
L 765.10419 411.968533 
L 765.886301 411.575794 
L 766.081829 410.111949 
L 766.277357 410.004838 
L 766.472885 409.71921 
L 766.668413 406.862927 
L 767.059469 406.755817 
L 767.450525 406.006043 
L 767.646052 405.291972 
L 768.232636 405.149158 
L 768.81922 404.042348 
L 769.014748 404.006645 
L 769.405804 403.399685 
L 769.796859 403.256871 
L 769.992387 399.972146 
L 771.165555 399.686517 
L 771.556611 399.400889 
L 772.338722 399.293778 
L 772.53425 399.079557 
L 774.880585 398.365487 
L 775.662697 397.79423 
L 776.640336 397.651416 
L 777.031392 397.365788 
L 777.422448 397.222974 
L 779.377727 396.687421 
L 780.159839 393.65262 
L 781.137478 393.509806 
L 781.333006 393.438399 
L 782.89723 393.259881 
L 783.483813 393.04566 
L 783.679341 392.4387 
L 784.656981 392.367293 
L 785.243565 392.045961 
L 787.198844 391.117669 
L 787.394372 390.867745 
L 788.176483 390.582116 
L 789.154123 390.439302 
L 789.349651 390.189377 
L 789.740707 390.153674 
L 789.936234 389.546714 
L 790.131762 389.475307 
L 790.32729 388.654126 
L 792.673625 388.118573 
L 793.260209 387.975758 
L 793.455737 387.511613 
L 794.824432 387.154577 
L 795.411016 386.940356 
L 796.193128 386.761838 
L 796.975239 386.547617 
L 797.952879 386.333396 
L 798.539463 386.154878 
L 799.908158 385.333697 
L 800.103686 384.619626 
L 801.081325 383.798445 
L 801.276853 383.44141 
L 802.254493 382.584525 
L 802.645549 381.834751 
L 802.841077 381.799047 
L 803.036605 381.084977 
L 803.818716 380.013871 
L 804.209772 379.835353 
L 804.600828 379.763946 
L 804.796356 379.442614 
L 805.187412 379.264096 
L 805.382939 378.907061 
L 806.360579 378.621433 
L 806.556107 378.300101 
L 807.924802 377.978769 
L 808.315858 377.800251 
L 808.511386 377.764548 
L 808.706914 377.58603 
L 809.684554 377.443216 
L 811.053249 376.800553 
L 811.639833 376.657738 
L 812.030889 375.836557 
L 812.421944 375.586632 
L 813.399584 374.765451 
L 813.595112 373.94427 
L 814.377223 373.694345 
L 815.550391 373.301606 
L 815.941447 372.694646 
L 816.52803 372.337611 
L 816.723558 372.301907 
L 817.114614 371.730651 
L 817.701198 371.51643 
L 818.092254 371.195098 
L 818.678838 370.90947 
L 819.069893 366.910674 
L 819.265421 365.589643 
L 819.460949 363.340321 
L 819.656477 363.054692 
L 820.438589 360.30552 
L 820.829645 359.59145 
L 821.025172 359.484339 
L 821.2207 359.234414 
L 821.416228 358.734565 
L 821.611756 357.127906 
L 821.807284 356.735167 
L 822.19834 356.592353 
L 823.371507 354.164513 
L 823.567035 353.985995 
L 823.762563 353.021999 
L 823.958091 352.664964 
L 824.349147 351.736672 
L 824.740203 351.165416 
L 825.522314 350.70127 
L 825.717842 350.487049 
L 825.91337 349.308832 
L 826.304426 349.130314 
L 826.695482 348.737575 
L 827.282066 347.916394 
L 827.477594 347.16662 
L 827.673121 347.130916 
L 828.259705 346.416846 
L 828.650761 346.345439 
L 828.846289 345.988403 
L 829.237345 345.738479 
L 829.432873 345.45285 
L 830.214984 342.632271 
L 830.410512 341.168426 
L 830.801568 340.418652 
L 830.997096 340.275838 
L 831.192624 339.954506 
L 831.779208 339.597471 
L 831.974736 339.240436 
L 832.365791 337.812294 
L 833.538959 337.169631 
L 833.930015 336.312746 
L 834.125543 336.169932 
L 835.103182 334.563273 
L 835.494238 334.349052 
L 836.27635 334.099127 
L 836.862933 332.956614 
L 837.645045 332.706689 
L 838.427157 331.778397 
L 838.818212 331.70699 
L 839.209268 331.278548 
L 839.795852 331.028623 
L 840.186908 330.957216 
L 840.382436 330.742995 
L 840.577964 330.064628 
L 841.360075 329.814703 
L 841.555603 329.457668 
L 841.751131 329.421964 
L 841.946659 328.743597 
L 842.533243 328.493672 
L 843.119827 328.350858 
L 843.510882 327.958119 
L 844.488522 327.45827 
L 844.879578 327.101234 
L 845.270634 326.85131 
L 845.661689 326.815606 
L 845.857217 325.851611 
L 846.248273 325.530279 
L 846.834857 325.244651 
L 847.421441 324.887615 
L 848.203552 324.744801 
L 848.39908 323.745102 
L 848.985664 323.42377 
L 849.181192 323.173846 
L 849.572248 323.138142 
L 850.158831 322.745403 
L 850.549887 322.673996 
L 850.745415 322.352664 
L 851.527527 322.031333 
L 851.723055 321.638594 
L 852.114111 321.60289 
L 852.505166 321.352966 
L 853.09175 321.031634 
L 853.287278 320.531784 
L 854.06939 320.139045 
L 854.264918 319.853417 
L 854.655973 319.746307 
L 854.851501 319.496382 
L 855.438085 319.17505 
L 855.633613 318.853718 
L 855.829141 318.782311 
L 856.220197 318.496683 
L 856.611252 318.318165 
L 856.80678 318.103944 
L 857.979948 317.711205 
L 858.175476 317.282763 
L 858.371004 317.175652 
L 859.348643 316.925727 
L 859.739699 316.604396 
L 860.130755 316.461582 
L 860.717339 316.283064 
L 860.912867 315.961732 
L 861.303922 315.890325 
L 861.49945 315.247661 
L 861.694978 315.104847 
L 862.086034 314.640701 
L 862.281562 313.569595 
L 862.672618 313.319671 
L 862.868146 313.176856 
L 863.063674 312.855525 
L 863.454729 312.6056 
L 864.236841 311.891529 
L 864.627897 311.713012 
L 864.823425 311.284569 
L 865.018953 311.213162 
L 865.410009 310.78472 
L 865.801064 310.534795 
L 866.387648 310.320574 
L 866.974232 309.642207 
L 867.365288 309.320875 
L 867.756343 308.892432 
L 868.929511 307.928437 
L 869.907151 307.678512 
L 870.493734 306.928738 
L 870.88479 306.500296 
L 871.471374 306.107557 
L 872.253485 305.786225 
L 872.449013 305.607707 
L 873.231125 305.286376 
L 873.622181 304.92934 
L 874.208765 304.715119 
L 874.795348 304.358084 
L 875.381932 304.108159 
L 875.57746 303.929641 
L 877.728267 303.037053 
L 877.923795 302.680018 
L 879.29249 302.108761 
L 879.879074 301.716022 
L 880.074602 301.680319 
L 880.661186 301.180469 
L 881.443297 300.966248 
L 881.638825 300.466399 
L 881.834353 298.85974 
L 882.225409 298.431297 
L 882.420937 298.395594 
L 883.594104 296.824638 
L 883.98516 295.753532 
L 884.376216 295.396497 
L 884.767272 295.146572 
L 885.158328 295.039462 
L 885.353856 294.753833 
L 885.744911 294.539612 
L 886.135967 294.182577 
L 886.527023 294.004059 
L 886.722551 293.932652 
L 886.918079 293.575617 
L 887.309135 293.432803 
L 887.504663 293.00436 
L 888.091246 292.790139 
L 888.482302 292.218882 
L 889.068886 291.754737 
L 889.459942 291.361998 
L 890.046525 291.254887 
L 890.242053 290.933555 
L 890.828637 290.719334 
L 891.219693 289.148379 
L 891.610749 288.791343 
L 892.783916 288.14868 
L 892.979444 287.577423 
L 893.3705 287.363202 
L 893.566028 286.863353 
L 893.761556 286.756242 
L 893.957084 286.43491 
L 895.130251 285.685136 
L 896.694474 284.61403 
L 897.08553 283.721442 
L 897.281058 283.614331 
L 897.672114 283.542924 
L 897.867642 283.150185 
L 898.258698 282.971667 
L 898.649754 282.757446 
L 898.845282 282.114783 
L 899.627393 281.650637 
L 899.822921 281.007973 
L 900.605033 280.329606 
L 900.800561 280.293902 
L 900.996089 279.901164 
L 901.7782 279.365611 
L 901.973728 279.008575 
L 902.364784 278.865761 
L 902.560312 278.187394 
L 902.951368 278.080283 
L 903.146896 277.758952 
L 903.342424 277.687544 
L 903.537951 276.93777 
L 903.929007 276.83066 
L 904.320063 276.509328 
L 904.711119 275.938071 
L 904.906647 275.795257 
L 905.688758 274.581337 
L 905.884286 274.50993 
L 906.275342 274.081488 
L 907.057454 273.510231 
L 907.644038 273.224603 
L 909.403789 271.368019 
L 909.794845 271.225205 
L 910.1859 270.796763 
L 910.576956 270.653948 
L 910.772484 269.797064 
L 911.359068 269.190104 
L 911.554596 268.476033 
L 911.945652 268.083294 
L 912.14118 267.690555 
L 912.336707 267.654852 
L 913.314347 266.690856 
L 913.900931 266.333821 
L 914.096459 266.012489 
L 915.269626 265.61975 
L 915.85621 264.869976 
L 916.247266 264.191609 
L 916.638322 264.048795 
L 916.833849 263.727463 
L 917.029377 263.620352 
L 917.224905 263.370428 
L 917.420433 263.334724 
L 917.615961 262.906282 
L 918.398073 262.370729 
L 919.180184 261.799472 
L 919.375712 261.763769 
L 920.54888 260.835477 
L 920.939936 260.656959 
L 921.135464 260.299924 
L 921.526519 260.228517 
L 922.113103 259.621557 
L 922.308631 259.300225 
L 922.895215 259.014597 
L 923.481798 258.621858 
L 923.872854 258.479044 
L 924.26391 258.050601 
L 925.24155 257.479345 
L 925.437078 257.22942 
L 926.219189 256.872385 
L 926.414717 255.230022 
L 927.392357 254.515951 
L 928.174468 253.08781 
L 928.369996 252.944996 
L 928.565524 252.48085 
L 928.95658 252.302332 
L 929.738692 251.052709 
L 930.129747 249.374643 
L 930.325275 248.803386 
L 930.716331 246.089918 
L 930.911859 245.018812 
L 931.889499 243.733484 
L 932.67161 240.520166 
L 932.867138 240.341649 
L 933.062666 239.841799 
L 933.258194 238.092326 
L 933.453722 237.449663 
L 933.64925 237.378256 
L 933.844778 236.592778 
L 934.431362 236.092928 
L 934.822417 234.736194 
L 935.800057 234.200641 
L 935.995585 233.843606 
L 936.973224 233.308053 
L 937.36428 232.87961 
L 937.559808 232.486872 
L 937.755336 231.487173 
L 937.950864 231.094434 
L 938.34192 230.95162 
L 938.732976 230.773102 
L 939.124031 230.487474 
L 939.515087 230.201845 
L 939.906143 230.130438 
L 940.297199 229.916217 
L 940.688255 229.666292 
L 940.883783 229.523478 
L 941.274838 229.487775 
L 944.598813 226.595789 
L 944.794341 226.488678 
L 944.989869 225.631793 
L 945.576453 225.024833 
L 945.967508 224.917722 
L 947.140676 223.88232 
L 947.531732 223.703802 
L 947.72726 223.632395 
L 947.922787 223.311063 
L 948.509371 223.096842 
L 948.704899 222.596993 
L 948.900427 222.418475 
L 949.095955 221.847219 
L 949.487011 221.597294 
L 950.073595 220.133449 
L 950.269122 219.419378 
L 950.855706 218.990936 
L 951.44229 218.169755 
L 951.833346 216.777317 
L 952.028874 216.348875 
L 952.224402 215.5991 
L 952.419929 215.527693 
L 952.615457 214.920733 
L 953.006513 214.670808 
L 954.179681 213.421185 
L 954.375209 212.921335 
L 954.766264 212.778521 
L 954.961792 212.5643 
L 955.15732 212.064451 
L 955.939432 211.743119 
L 956.13496 211.493194 
L 956.330488 211.45749 
L 956.526016 210.707716 
L 956.917071 210.457792 
L 957.112599 209.957942 
L 957.308127 209.815128 
L 957.699183 209.779424 
L 958.872351 208.851133 
L 959.458934 208.386987 
L 959.84999 207.922841 
L 960.241046 207.530102 
L 960.436574 207.137363 
L 960.632102 206.351885 
L 961.805269 205.673518 
L 962.196325 204.745226 
L 962.587381 204.566709 
L 962.782909 204.031156 
L 962.978437 203.924045 
L 963.760548 202.924346 
L 964.738188 202.281682 
L 965.911355 201.067762 
L 966.497939 200.282285 
L 967.475579 197.71163 
L 968.453218 192.427507 
L 968.648746 192.141879 
L 968.844274 191.606326 
L 969.039802 189.642632 
L 969.23533 185.893761 
L 969.430858 184.429916 
L 969.626386 182.073483 
L 969.821914 181.430819 
L 970.212969 178.753054 
L 970.604025 175.111294 
L 970.995081 170.148503 
L 971.386137 169.398728 
L 971.777193 163.007796 
L 971.972721 161.32973 
L 972.363777 154.046209 
L 972.754832 152.653771 
L 972.95036 149.012011 
L 973.145888 148.155126 
L 973.536944 144.120627 
L 973.928 133.195346 
L 974.319056 131.51728 
L 974.514584 128.161148 
L 974.710111 127.804112 
L 975.101167 122.341472 
L 975.296695 122.234361 
L 975.492223 121.877326 
L 975.883279 120.591999 
L 976.078807 120.270667 
L 976.274335 119.663707 
L 976.469863 118.521194 
L 976.860919 118.306972 
L 977.056446 117.735716 
L 977.447502 115.914836 
L 977.838558 112.344482 
L 978.034086 111.559005 
L 978.229614 111.487598 
L 978.425142 111.166266 
L 979.402781 108.095762 
L 979.598309 107.952948 
L 979.793837 107.203174 
L 980.184893 106.846138 
L 980.380421 106.703324 
L 980.575949 106.167771 
L 980.771477 105.989254 
L 981.553588 104.775333 
L 982.140172 104.13267 
L 982.3357 104.061263 
L 983.31334 102.633121 
L 983.704395 102.454604 
L 984.290979 102.347493 
L 984.682035 101.776237 
L 985.073091 101.669126 
L 985.659675 100.919352 
L 986.441786 100.455206 
L 987.223898 99.455507 
L 987.419426 98.919954 
L 988.201537 98.670029 
L 988.592593 98.27729 
L 988.983649 97.56322 
L 989.374705 97.206184 
L 989.570233 96.95626 
L 989.765761 95.920857 
L 990.156817 95.24249 
L 990.7434 94.992565 
L 991.134456 94.671234 
L 991.525512 94.242791 
L 991.916568 93.885756 
L 992.503151 93.278796 
L 992.698679 93.100278 
L 992.894207 92.243393 
L 993.480791 91.814951 
L 994.458431 90.565327 
L 994.653959 90.49392 
L 995.631598 89.565628 
L 995.827126 89.529925 
L 996.218182 89.28 
L 996.218182 89.28 
" clip-path="url(#p782f3fa7b6)" style="fill: none; stroke: #1f77b4; stroke-width: 1.5; stroke-linecap: square"/>
   </g>
   <g id="patch_3">
    <path d="M 144 512.64 
L 144 69.12 
" style="fill: none; stroke: #000000; stroke-width: 0.8; stroke-linejoin: miter; stroke-linecap: square"/>
   </g>
   <g id="patch_4">
    <path d="M 1036.8 512.64 
L 1036.8 69.12 
" style="fill: none; stroke: #000000; stroke-width: 0.8; stroke-linejoin: miter; stroke-linecap: square"/>
   </g>
   <g id="patch_5">
    <path d="M 144 512.64 
L 1036.8 512.64 
" style="fill: none; stroke: #000000; stroke-width: 0.8; stroke-linejoin: miter; stroke-linecap: square"/>
   </g>
   <g id="patch_6">
    <path d="M 144 69.12 
L 1036.8 69.12 
" style="fill: none; stroke: #000000; stroke-width: 0.8; stroke-linejoin: miter; stroke-linecap: square"/>
   </g>
   <g id="text_14">
    <!-- Number of AEDs in the OpenStreetMap database in Poland from first edition, day by day. As at: 2025-06-23 -->
    <g transform="translate(144 63.12) scale(0.14 -0.14)">
     <defs>
      <path id="DejaVuSans-4e" d="M 628 4666 
L 1478 4666 
L 3547 763 
L 3547 4666 
L 4159 4666 
L 4159 0 
L 3309 0 
L 1241 3903 
L 1241 0 
L 628 0 
L 628 4666 
z
" transform="scale(0.015625)"/>
      <path id="DejaVuSans-75" d="M 544 1381 
L 544 3500 
L 1119 3500 
L 1119 1403 
Q 1119 906 1312 657 
Q 1506 409 1894 409 
Q 2359 409 2629 706 
Q 2900 1003 2900 1516 
L 2900 3500 
L 3475 3500 
L 3475 0 
L 2900 0 
L 2900 538 
Q 2691 219 2414 64 
Q 2138 -91 1772 -91 
Q 1169 -91 856 284 
Q 544 659 544 1381 
z
M 1991 3584 
L 1991 3584 
z
" transform="scale(0.015625)"/>
      <path id="DejaVuSans-6d" d="M 3328 2828 
Q 3544 3216 3844 3400 
Q 4144 3584 4550 3584 
Q 5097 3584 5394 3201 
Q 5691 2819 5691 2113 
L 5691 0 
L 5113 0 
L 5113 2094 
Q 5113 2597 4934 2840 
Q 4756 3084 4391 3084 
Q 3944 3084 3684 2787 
Q 3425 2491 3425 1978 
L 3425 0 
L 2847 0 
L 2847 2094 
Q 2847 2600 2669 2842 
Q 2491 3084 2119 3084 
Q 1678 3084 1418 2786 
Q 1159 2488 1159 1978 
L 1159 0 
L 581 0 
L 581 3500 
L 1159 3500 
L 1159 2956 
Q 1356 3278 1631 3431 
Q 1906 3584 2284 3584 
Q 2666 3584 2933 3390 
Q 3200 3197 3328 2828 
z
" transform="scale(0.015625)"/>
      <path id="DejaVuSans-62" d="M 3116 1747 
Q 3116 2381 2855 2742 
Q 2594 3103 2138 3103 
Q 1681 3103 1420 2742 
Q 1159 2381 1159 1747 
Q 1159 1113 1420 752 
Q 1681 391 2138 391 
Q 2594 391 2855 752 
Q 3116 1113 3116 1747 
z
M 1159 2969 
Q 1341 3281 1617 3432 
Q 1894 3584 2278 3584 
Q 2916 3584 3314 3078 
Q 3713 2572 3713 1747 
Q 3713 922 3314 415 
Q 2916 -91 2278 -91 
Q 1894 -91 1617 61 
Q 1341 213 1159 525 
L 1159 0 
L 581 0 
L 581 4863 
L 1159 4863 
L 1159 2969 
z
" transform="scale(0.015625)"/>
      <path id="DejaVuSans-65" d="M 3597 1894 
L 3597 1613 
L 953 1613 
Q 991 1019 1311 708 
Q 1631 397 2203 397 
Q 2534 397 2845 478 
Q 3156 559 3463 722 
L 3463 178 
Q 3153 47 2828 -22 
Q 2503 -91 2169 -91 
Q 1331 -91 842 396 
Q 353 884 353 1716 
Q 353 2575 817 3079 
Q 1281 3584 2069 3584 
Q 2775 3584 3186 3129 
Q 3597 2675 3597 1894 
z
M 3022 2063 
Q 3016 2534 2758 2815 
Q 2500 3097 2075 3097 
Q 1594 3097 1305 2825 
Q 1016 2553 972 2059 
L 3022 2063 
z
" transform="scale(0.015625)"/>
      <path id="DejaVuSans-72" d="M 2631 2963 
Q 2534 3019 2420 3045 
Q 2306 3072 2169 3072 
Q 1681 3072 1420 2755 
Q 1159 2438 1159 1844 
L 1159 0 
L 581 0 
L 581 3500 
L 1159 3500 
L 1159 2956 
Q 1341 3275 1631 3429 
Q 1922 3584 2338 3584 
Q 2397 3584 2469 3576 
Q 2541 3569 2628 3553 
L 2631 2963 
z
" transform="scale(0.015625)"/>
      <path id="DejaVuSans-20" transform="scale(0.015625)"/>
      <path id="DejaVuSans-6f" d="M 1959 3097 
Q 1497 3097 1228 2736 
Q 959 2375 959 1747 
Q 959 1119 1226 758 
Q 1494 397 1959 397 
Q 2419 397 2687 759 
Q 2956 1122 2956 1747 
Q 2956 2369 2687 2733 
Q 2419 3097 1959 3097 
z
M 1959 3584 
Q 2709 3584 3137 3096 
Q 3566 2609 3566 1747 
Q 3566 888 3137 398 
Q 2709 -91 1959 -91 
Q 1206 -91 779 398 
Q 353 888 353 1747 
Q 353 2609 779 3096 
Q 1206 3584 1959 3584 
z
" transform="scale(0.015625)"/>
      <path id="DejaVuSans-66" d="M 2375 4863 
L 2375 4384 
L 1825 4384 
Q 1516 4384 1395 4259 
Q 1275 4134 1275 3809 
L 1275 3500 
L 2222 3500 
L 2222 3053 
L 1275 3053 
L 1275 0 
L 697 0 
L 697 3053 
L 147 3053 
L 147 3500 
L 697 3500 
L 697 3744 
Q 697 4328 969 4595 
Q 1241 4863 1831 4863 
L 2375 4863 
z
" transform="scale(0.015625)"/>
      <path id="DejaVuSans-41" d="M 2188 4044 
L 1331 1722 
L 3047 1722 
L 2188 4044 
z
M 1831 4666 
L 2547 4666 
L 4325 0 
L 3669 0 
L 3244 1197 
L 1141 1197 
L 716 0 
L 50 0 
L 1831 4666 
z
" transform="scale(0.015625)"/>
      <path id="DejaVuSans-45" d="M 628 4666 
L 3578 4666 
L 3578 4134 
L 1259 4134 
L 1259 2753 
L 3481 2753 
L 3481 2222 
L 1259 2222 
L 1259 531 
L 3634 531 
L 3634 0 
L 628 0 
L 628 4666 
z
" transform="scale(0.015625)"/>
      <path id="DejaVuSans-44" d="M 1259 4147 
L 1259 519 
L 2022 519 
Q 2988 519 3436 956 
Q 3884 1394 3884 2338 
Q 3884 3275 3436 3711 
Q 2988 4147 2022 4147 
L 1259 4147 
z
M 628 4666 
L 1925 4666 
Q 3281 4666 3915 4102 
Q 4550 3538 4550 2338 
Q 4550 1131 3912 565 
Q 3275 0 1925 0 
L 628 0 
L 628 4666 
z
" transform="scale(0.015625)"/>
      <path id="DejaVuSans-73" d="M 2834 3397 
L 2834 2853 
Q 2591 2978 2328 3040 
Q 2066 3103 1784 3103 
Q 1356 3103 1142 2972 
Q 928 2841 928 2578 
Q 928 2378 1081 2264 
Q 1234 2150 1697 2047 
L 1894 2003 
Q 2506 1872 2764 1633 
Q 3022 1394 3022 966 
Q 3022 478 2636 193 
Q 2250 -91 1575 -91 
Q 1294 -91 989 -36 
Q 684 19 347 128 
L 347 722 
Q 666 556 975 473 
Q 1284 391 1588 391 
Q 1994 391 2212 530 
Q 2431 669 2431 922 
Q 2431 1156 2273 1281 
Q 2116 1406 1581 1522 
L 1381 1569 
Q 847 1681 609 1914 
Q 372 2147 372 2553 
Q 372 3047 722 3315 
Q 1072 3584 1716 3584 
Q 2034 3584 2315 3537 
Q 2597 3491 2834 3397 
z
" transform="scale(0.015625)"/>
      <path id="DejaVuSans-69" d="M 603 3500 
L 1178 3500 
L 1178 0 
L 603 0 
L 603 3500 
z
M 603 4863 
L 1178 4863 
L 1178 4134 
L 603 4134 
L 603 4863 
z
" transform="scale(0.015625)"/>
      <path id="DejaVuSans-6e" d="M 3513 2113 
L 3513 0 
L 2938 0 
L 2938 2094 
Q 2938 2591 2744 2837 
Q 2550 3084 2163 3084 
Q 1697 3084 1428 2787 
Q 1159 2491 1159 1978 
L 1159 0 
L 581 0 
L 581 3500 
L 1159 3500 
L 1159 2956 
Q 1366 3272 1645 3428 
Q 1925 3584 2291 3584 
Q 2894 3584 3203 3211 
Q 3513 2838 3513 2113 
z
" transform="scale(0.015625)"/>
      <path id="DejaVuSans-74" d="M 1172 4494 
L 1172 3500 
L 2356 3500 
L 2356 3053 
L 1172 3053 
L 1172 1153 
Q 1172 725 1289 603 
Q 1406 481 1766 481 
L 2356 481 
L 2356 0 
L 1766 0 
Q 1100 0 847 248 
Q 594 497 594 1153 
L 594 3053 
L 172 3053 
L 172 3500 
L 594 3500 
L 594 4494 
L 1172 4494 
z
" transform="scale(0.015625)"/>
      <path id="DejaVuSans-68" d="M 3513 2113 
L 3513 0 
L 2938 0 
L 2938 2094 
Q 2938 2591 2744 2837 
Q 2550 3084 2163 3084 
Q 1697 3084 1428 2787 
Q 1159 2491 1159 1978 
L 1159 0 
L 581 0 
L 581 4863 
L 1159 4863 
L 1159 2956 
Q 1366 3272 1645 3428 
Q 1925 3584 2291 3584 
Q 2894 3584 3203 3211 
Q 3513 2838 3513 2113 
z
" transform="scale(0.015625)"/>
      <path id="DejaVuSans-4f" d="M 2522 4238 
Q 1834 4238 1429 3725 
Q 1025 3213 1025 2328 
Q 1025 1447 1429 934 
Q 1834 422 2522 422 
Q 3209 422 3611 934 
Q 4013 1447 4013 2328 
Q 4013 3213 3611 3725 
Q 3209 4238 2522 4238 
z
M 2522 4750 
Q 3503 4750 4090 4092 
Q 4678 3434 4678 2328 
Q 4678 1225 4090 567 
Q 3503 -91 2522 -91 
Q 1538 -91 948 565 
Q 359 1222 359 2328 
Q 359 3434 948 4092 
Q 1538 4750 2522 4750 
z
" transform="scale(0.015625)"/>
      <path id="DejaVuSans-70" d="M 1159 525 
L 1159 -1331 
L 581 -1331 
L 581 3500 
L 1159 3500 
L 1159 2969 
Q 1341 3281 1617 3432 
Q 1894 3584 2278 3584 
Q 2916 3584 3314 3078 
Q 3713 2572 3713 1747 
Q 3713 922 3314 415 
Q 2916 -91 2278 -91 
Q 1894 -91 1617 61 
Q 1341 213 1159 525 
z
M 3116 1747 
Q 3116 2381 2855 2742 
Q 2594 3103 2138 3103 
Q 1681 3103 1420 2742 
Q 1159 2381 1159 1747 
Q 1159 1113 1420 752 
Q 1681 391 2138 391 
Q 2594 391 2855 752 
Q 3116 1113 3116 1747 
z
" transform="scale(0.015625)"/>
      <path id="DejaVuSans-53" d="M 3425 4513 
L 3425 3897 
Q 3066 4069 2747 4153 
Q 2428 4238 2131 4238 
Q 1616 4238 1336 4038 
Q 1056 3838 1056 3469 
Q 1056 3159 1242 3001 
Q 1428 2844 1947 2747 
L 2328 2669 
Q 3034 2534 3370 2195 
Q 3706 1856 3706 1288 
Q 3706 609 3251 259 
Q 2797 -91 1919 -91 
Q 1588 -91 1214 -16 
Q 841 59 441 206 
L 441 856 
Q 825 641 1194 531 
Q 1563 422 1919 422 
Q 2459 422 2753 634 
Q 3047 847 3047 1241 
Q 3047 1584 2836 1778 
Q 2625 1972 2144 2069 
L 1759 2144 
Q 1053 2284 737 2584 
Q 422 2884 422 3419 
Q 422 4038 858 4394 
Q 1294 4750 2059 4750 
Q 2388 4750 2728 4690 
Q 3069 4631 3425 4513 
z
" transform="scale(0.015625)"/>
      <path id="DejaVuSans-4d" d="M 628 4666 
L 1569 4666 
L 2759 1491 
L 3956 4666 
L 4897 4666 
L 4897 0 
L 4281 0 
L 4281 4097 
L 3078 897 
L 2444 897 
L 1241 4097 
L 1241 0 
L 628 0 
L 628 4666 
z
" transform="scale(0.015625)"/>
      <path id="DejaVuSans-61" d="M 2194 1759 
Q 1497 1759 1228 1600 
Q 959 1441 959 1056 
Q 959 750 1161 570 
Q 1363 391 1709 391 
Q 2188 391 2477 730 
Q 2766 1069 2766 1631 
L 2766 1759 
L 2194 1759 
z
M 3341 1997 
L 3341 0 
L 2766 0 
L 2766 531 
Q 2569 213 2275 61 
Q 1981 -91 1556 -91 
Q 1019 -91 701 211 
Q 384 513 384 1019 
Q 384 1609 779 1909 
Q 1175 2209 1959 2209 
L 2766 2209 
L 2766 2266 
Q 2766 2663 2505 2880 
Q 2244 3097 1772 3097 
Q 1472 3097 1187 3025 
Q 903 2953 641 2809 
L 641 3341 
Q 956 3463 1253 3523 
Q 1550 3584 1831 3584 
Q 2591 3584 2966 3190 
Q 3341 2797 3341 1997 
z
" transform="scale(0.015625)"/>
      <path id="DejaVuSans-64" d="M 2906 2969 
L 2906 4863 
L 3481 4863 
L 3481 0 
L 2906 0 
L 2906 525 
Q 2725 213 2448 61 
Q 2172 -91 1784 -91 
Q 1150 -91 751 415 
Q 353 922 353 1747 
Q 353 2572 751 3078 
Q 1150 3584 1784 3584 
Q 2172 3584 2448 3432 
Q 2725 3281 2906 2969 
z
M 947 1747 
Q 947 1113 1208 752 
Q 1469 391 1925 391 
Q 2381 391 2643 752 
Q 2906 1113 2906 1747 
Q 2906 2381 2643 2742 
Q 2381 3103 1925 3103 
Q 1469 3103 1208 2742 
Q 947 2381 947 1747 
z
" transform="scale(0.015625)"/>
      <path id="DejaVuSans-50" d="M 1259 4147 
L 1259 2394 
L 2053 2394 
Q 2494 2394 2734 2622 
Q 2975 2850 2975 3272 
Q 2975 3691 2734 3919 
Q 2494 4147 2053 4147 
L 1259 4147 
z
M 628 4666 
L 2053 4666 
Q 2838 4666 3239 4311 
Q 3641 3956 3641 3272 
Q 3641 2581 3239 2228 
Q 2838 1875 2053 1875 
L 1259 1875 
L 1259 0 
L 628 0 
L 628 4666 
z
" transform="scale(0.015625)"/>
      <path id="DejaVuSans-6c" d="M 603 4863 
L 1178 4863 
L 1178 0 
L 603 0 
L 603 4863 
z
" transform="scale(0.015625)"/>
      <path id="DejaVuSans-2c" d="M 750 794 
L 1409 794 
L 1409 256 
L 897 -744 
L 494 -744 
L 750 256 
L 750 794 
z
" transform="scale(0.015625)"/>
      <path id="DejaVuSans-79" d="M 2059 -325 
Q 1816 -950 1584 -1140 
Q 1353 -1331 966 -1331 
L 506 -1331 
L 506 -850 
L 844 -850 
Q 1081 -850 1212 -737 
Q 1344 -625 1503 -206 
L 1606 56 
L 191 3500 
L 800 3500 
L 1894 763 
L 2988 3500 
L 3597 3500 
L 2059 -325 
z
" transform="scale(0.015625)"/>
      <path id="DejaVuSans-2e" d="M 684 794 
L 1344 794 
L 1344 0 
L 684 0 
L 684 794 
z
" transform="scale(0.015625)"/>
      <path id="DejaVuSans-3a" d="M 750 794 
L 1409 794 
L 1409 0 
L 750 0 
L 750 794 
z
M 750 3309 
L 1409 3309 
L 1409 2516 
L 750 2516 
L 750 3309 
z
" transform="scale(0.015625)"/>
      <path id="DejaVuSans-35" d="M 691 4666 
L 3169 4666 
L 3169 4134 
L 1269 4134 
L 1269 2991 
Q 1406 3038 1543 3061 
Q 1681 3084 1819 3084 
Q 2600 3084 3056 2656 
Q 3513 2228 3513 1497 
Q 3513 744 3044 326 
Q 2575 -91 1722 -91 
Q 1428 -91 1123 -41 
Q 819 9 494 109 
L 494 744 
Q 775 591 1075 516 
Q 1375 441 1709 441 
Q 2250 441 2565 725 
Q 2881 1009 2881 1497 
Q 2881 1984 2565 2268 
Q 2250 2553 1709 2553 
Q 1456 2553 1204 2497 
Q 953 2441 691 2322 
L 691 4666 
z
" transform="scale(0.015625)"/>
      <path id="DejaVuSans-2d" d="M 313 2009 
L 1997 2009 
L 1997 1497 
L 313 1497 
L 313 2009 
z
" transform="scale(0.015625)"/>
      <path id="DejaVuSans-33" d="M 2597 2516 
Q 3050 2419 3304 2112 
Q 3559 1806 3559 1356 
Q 3559 666 3084 287 
Q 2609 -91 1734 -91 
Q 1441 -91 1130 -33 
Q 819 25 488 141 
L 488 750 
Q 750 597 1062 519 
Q 1375 441 1716 441 
Q 2309 441 2620 675 
Q 2931 909 2931 1356 
Q 2931 1769 2642 2001 
Q 2353 2234 1838 2234 
L 1294 2234 
L 1294 2753 
L 1863 2753 
Q 2328 2753 2575 2939 
Q 2822 3125 2822 3475 
Q 2822 3834 2567 4026 
Q 2313 4219 1838 4219 
Q 1578 4219 1281 4162 
Q 984 4106 628 3988 
L 628 4550 
Q 988 4650 1302 4700 
Q 1616 4750 1894 4750 
Q 2613 4750 3031 4423 
Q 3450 4097 3450 3541 
Q 3450 3153 3228 2886 
Q 3006 2619 2597 2516 
z
" transform="scale(0.015625)"/>
     </defs>
     <use xlink:href="#DejaVuSans-4e"/>
     <use xlink:href="#DejaVuSans-75" x="74.804688"/>
     <use xlink:href="#DejaVuSans-6d" x="138.183594"/>
     <use xlink:href="#DejaVuSans-62" x="235.595703"/>
     <use xlink:href="#DejaVuSans-65" x="299.072266"/>
     <use xlink:href="#DejaVuSans-72" x="360.595703"/>
     <use xlink:href="#DejaVuSans-20" x="401.708984"/>
     <use xlink:href="#DejaVuSans-6f" x="433.496094"/>
     <use xlink:href="#DejaVuSans-66" x="494.677734"/>
     <use xlink:href="#DejaVuSans-20" x="529.882812"/>
     <use xlink:href="#DejaVuSans-41" x="561.669922"/>
     <use xlink:href="#DejaVuSans-45" x="630.078125"/>
     <use xlink:href="#DejaVuSans-44" x="693.261719"/>
     <use xlink:href="#DejaVuSans-73" x="770.263672"/>
     <use xlink:href="#DejaVuSans-20" x="822.363281"/>
     <use xlink:href="#DejaVuSans-69" x="854.150391"/>
     <use xlink:href="#DejaVuSans-6e" x="881.933594"/>
     <use xlink:href="#DejaVuSans-20" x="945.3125"/>
     <use xlink:href="#DejaVuSans-74" x="977.099609"/>
     <use xlink:href="#DejaVuSans-68" x="1016.308594"/>
     <use xlink:href="#DejaVuSans-65" x="1079.6875"/>
     <use xlink:href="#DejaVuSans-20" x="1141.210938"/>
     <use xlink:href="#DejaVuSans-4f" x="1172.998047"/>
     <use xlink:href="#DejaVuSans-70" x="1251.708984"/>
     <use xlink:href="#DejaVuSans-65" x="1315.185547"/>
     <use xlink:href="#DejaVuSans-6e" x="1376.708984"/>
     <use xlink:href="#DejaVuSans-53" x="1440.087891"/>
     <use xlink:href="#DejaVuSans-74" x="1503.564453"/>
     <use xlink:href="#DejaVuSans-72" x="1542.773438"/>
     <use xlink:href="#DejaVuSans-65" x="1581.636719"/>
     <use xlink:href="#DejaVuSans-65" x="1643.160156"/>
     <use xlink:href="#DejaVuSans-74" x="1704.683594"/>
     <use xlink:href="#DejaVuSans-4d" x="1743.892578"/>
     <use xlink:href="#DejaVuSans-61" x="1830.171875"/>
     <use xlink:href="#DejaVuSans-70" x="1891.451172"/>
     <use xlink:href="#DejaVuSans-20" x="1954.927734"/>
     <use xlink:href="#DejaVuSans-64" x="1986.714844"/>
     <use xlink:href="#DejaVuSans-61" x="2050.191406"/>
     <use xlink:href="#DejaVuSans-74" x="2111.470703"/>
     <use xlink:href="#DejaVuSans-61" x="2150.679688"/>
     <use xlink:href="#DejaVuSans-62" x="2211.958984"/>
     <use xlink:href="#DejaVuSans-61" x="2275.435547"/>
     <use xlink:href="#DejaVuSans-73" x="2336.714844"/>
     <use xlink:href="#DejaVuSans-65" x="2388.814453"/>
     <use xlink:href="#DejaVuSans-20" x="2450.337891"/>
     <use xlink:href="#DejaVuSans-69" x="2482.125"/>
     <use xlink:href="#DejaVuSans-6e" x="2509.908203"/>
     <use xlink:href="#DejaVuSans-20" x="2573.287109"/>
     <use xlink:href="#DejaVuSans-50" x="2605.074219"/>
     <use xlink:href="#DejaVuSans-6f" x="2661.751953"/>
     <use xlink:href="#DejaVuSans-6c" x="2722.933594"/>
     <use xlink:href="#DejaVuSans-61" x="2750.716797"/>
     <use xlink:href="#DejaVuSans-6e" x="2811.996094"/>
     <use xlink:href="#DejaVuSans-64" x="2875.375"/>
     <use xlink:href="#DejaVuSans-20" x="2938.851562"/>
     <use xlink:href="#DejaVuSans-66" x="2970.638672"/>
     <use xlink:href="#DejaVuSans-72" x="3005.84375"/>
     <use xlink:href="#DejaVuSans-6f" x="3044.707031"/>
     <use xlink:href="#DejaVuSans-6d" x="3105.888672"/>
     <use xlink:href="#DejaVuSans-20" x="3203.300781"/>
     <use xlink:href="#DejaVuSans-66" x="3235.087891"/>
     <use xlink:href="#DejaVuSans-69" x="3270.292969"/>
     <use xlink:href="#DejaVuSans-72" x="3298.076172"/>
     <use xlink:href="#DejaVuSans-73" x="3339.189453"/>
     <use xlink:href="#DejaVuSans-74" x="3391.289062"/>
     <use xlink:href="#DejaVuSans-20" x="3430.498047"/>
     <use xlink:href="#DejaVuSans-65" x="3462.285156"/>
     <use xlink:href="#DejaVuSans-64" x="3523.808594"/>
     <use xlink:href="#DejaVuSans-69" x="3587.285156"/>
     <use xlink:href="#DejaVuSans-74" x="3615.068359"/>
     <use xlink:href="#DejaVuSans-69" x="3654.277344"/>
     <use xlink:href="#DejaVuSans-6f" x="3682.060547"/>
     <use xlink:href="#DejaVuSans-6e" x="3743.242188"/>
     <use xlink:href="#DejaVuSans-2c" x="3806.621094"/>
     <use xlink:href="#DejaVuSans-20" x="3838.408203"/>
     <use xlink:href="#DejaVuSans-64" x="3870.195312"/>
     <use xlink:href="#DejaVuSans-61" x="3933.671875"/>
     <use xlink:href="#DejaVuSans-79" x="3994.951172"/>
     <use xlink:href="#DejaVuSans-20" x="4054.130859"/>
     <use xlink:href="#DejaVuSans-62" x="4085.917969"/>
     <use xlink:href="#DejaVuSans-79" x="4149.394531"/>
     <use xlink:href="#DejaVuSans-20" x="4208.574219"/>
     <use xlink:href="#DejaVuSans-64" x="4240.361328"/>
     <use xlink:href="#DejaVuSans-61" x="4303.837891"/>
     <use xlink:href="#DejaVuSans-79" x="4365.117188"/>
     <use xlink:href="#DejaVuSans-2e" x="4410.046875"/>
     <use xlink:href="#DejaVuSans-20" x="4441.833984"/>
     <use xlink:href="#DejaVuSans-41" x="4473.621094"/>
     <use xlink:href="#DejaVuSans-73" x="4542.029297"/>
     <use xlink:href="#DejaVuSans-20" x="4594.128906"/>
     <use xlink:href="#DejaVuSans-61" x="4625.916016"/>
     <use xlink:href="#DejaVuSans-74" x="4687.195312"/>
     <use xlink:href="#DejaVuSans-3a" x="4726.404297"/>
     <use xlink:href="#DejaVuSans-20" x="4760.095703"/>
     <use xlink:href="#DejaVuSans-32" x="4791.882812"/>
     <use xlink:href="#DejaVuSans-30" x="4855.505859"/>
     <use xlink:href="#DejaVuSans-32" x="4919.128906"/>
     <use xlink:href="#DejaVuSans-35" x="4982.751953"/>
     <use xlink:href="#DejaVuSans-2d" x="5046.375"/>
     <use xlink:href="#DejaVuSans-30" x="5082.458984"/>
     <use xlink:href="#DejaVuSans-36" x="5146.082031"/>
     <use xlink:href="#DejaVuSans-2d" x="5209.705078"/>
     <use xlink:href="#DejaVuSans-32" x="5245.789062"/>
     <use xlink:href="#DejaVuSans-33" x="5309.412109"/>
    </g>
   </g>
  </g>
 </g>
 <defs>
  <clipPath id="p782f3fa7b6">
   <rect x="144" y="69.12" width="892.8" height="443.52"/>
  </clipPath>
 </defs>
</svg>
