<?xml version="1.0" encoding="utf-8" standalone="no"?>
<!DOCTYPE svg PUBLIC "-//W3C//DTD SVG 1.1//EN"
  "http://www.w3.org/Graphics/SVG/1.1/DTD/svg11.dtd">
<svg xmlns:xlink="http://www.w3.org/1999/xlink" width="1152pt" height="576pt" viewBox="0 0 1152 576" xmlns="http://www.w3.org/2000/svg" version="1.1">
 <metadata>
  <rdf:RDF xmlns:dc="http://purl.org/dc/elements/1.1/" xmlns:cc="http://creativecommons.org/ns#" xmlns:rdf="http://www.w3.org/1999/02/22-rdf-syntax-ns#">
   <cc:Work>
    <dc:type rdf:resource="http://purl.org/dc/dcmitype/StillImage"/>
    <dc:date>1980-01-01T00:00:00+00:00</dc:date>
    <dc:format>image/svg+xml</dc:format>
    <dc:creator>
     <cc:Agent>
      <dc:title>Matplotlib v3.9.1, https://matplotlib.org/</dc:title>
     </cc:Agent>
    </dc:creator>
   </cc:Work>
  </rdf:RDF>
 </metadata>
 <defs>
  <style type="text/css">*{stroke-linejoin: round; stroke-linecap: butt}</style>
 </defs>
 <g id="figure_1">
  <g id="patch_1">
   <path d="M 0 576 
L 1152 576 
L 1152 0 
L 0 0 
z
" style="fill: #ffffff"/>
  </g>
  <g id="axes_1">
   <g id="patch_2">
    <path d="M 144 512.64 
L 1036.8 512.64 
L 1036.8 69.12 
L 144 69.12 
z
" style="fill: #ffffff"/>
   </g>
   <g id="matplotlib.axis_1">
    <g id="xtick_1">
     <g id="line2d_1">
      <defs>
       <path id="m368e4316e0" d="M 0 0 
L 0 3.5 
" style="stroke: #000000; stroke-width: 0.8"/>
      </defs>
      <g>
       <use xlink:href="#m368e4316e0" x="177.259884" y="512.64" style="stroke: #000000; stroke-width: 0.8"/>
      </g>
     </g>
     <g id="text_1">
      <!-- 2014 -->
      <g transform="translate(164.534884 527.238438) scale(0.1 -0.1)">
       <defs>
        <path id="DejaVuSans-32" d="M 1228 531 
L 3431 531 
L 3431 0 
L 469 0 
L 469 531 
Q 828 903 1448 1529 
Q 2069 2156 2228 2338 
Q 2531 2678 2651 2914 
Q 2772 3150 2772 3378 
Q 2772 3750 2511 3984 
Q 2250 4219 1831 4219 
Q 1534 4219 1204 4116 
Q 875 4013 500 3803 
L 500 4441 
Q 881 4594 1212 4672 
Q 1544 4750 1819 4750 
Q 2544 4750 2975 4387 
Q 3406 4025 3406 3419 
Q 3406 3131 3298 2873 
Q 3191 2616 2906 2266 
Q 2828 2175 2409 1742 
Q 1991 1309 1228 531 
z
" transform="scale(0.015625)"/>
        <path id="DejaVuSans-30" d="M 2034 4250 
Q 1547 4250 1301 3770 
Q 1056 3291 1056 2328 
Q 1056 1369 1301 889 
Q 1547 409 2034 409 
Q 2525 409 2770 889 
Q 3016 1369 3016 2328 
Q 3016 3291 2770 3770 
Q 2525 4250 2034 4250 
z
M 2034 4750 
Q 2819 4750 3233 4129 
Q 3647 3509 3647 2328 
Q 3647 1150 3233 529 
Q 2819 -91 2034 -91 
Q 1250 -91 836 529 
Q 422 1150 422 2328 
Q 422 3509 836 4129 
Q 1250 4750 2034 4750 
z
" transform="scale(0.015625)"/>
        <path id="DejaVuSans-31" d="M 794 531 
L 1825 531 
L 1825 4091 
L 703 3866 
L 703 4441 
L 1819 4666 
L 2450 4666 
L 2450 531 
L 3481 531 
L 3481 0 
L 794 0 
L 794 531 
z
" transform="scale(0.015625)"/>
        <path id="DejaVuSans-34" d="M 2419 4116 
L 825 1625 
L 2419 1625 
L 2419 4116 
z
M 2253 4666 
L 3047 4666 
L 3047 1625 
L 3713 1625 
L 3713 1100 
L 3047 1100 
L 3047 0 
L 2419 0 
L 2419 1100 
L 313 1100 
L 313 1709 
L 2253 4666 
z
" transform="scale(0.015625)"/>
       </defs>
       <use xlink:href="#DejaVuSans-32"/>
       <use xlink:href="#DejaVuSans-30" x="63.623047"/>
       <use xlink:href="#DejaVuSans-31" x="127.246094"/>
       <use xlink:href="#DejaVuSans-34" x="190.869141"/>
      </g>
     </g>
    </g>
    <g id="xtick_2">
     <g id="line2d_2">
      <g>
       <use xlink:href="#m368e4316e0" x="310.885177" y="512.64" style="stroke: #000000; stroke-width: 0.8"/>
      </g>
     </g>
     <g id="text_2">
      <!-- 2016 -->
      <g transform="translate(298.160177 527.238438) scale(0.1 -0.1)">
       <defs>
        <path id="DejaVuSans-36" d="M 2113 2584 
Q 1688 2584 1439 2293 
Q 1191 2003 1191 1497 
Q 1191 994 1439 701 
Q 1688 409 2113 409 
Q 2538 409 2786 701 
Q 3034 994 3034 1497 
Q 3034 2003 2786 2293 
Q 2538 2584 2113 2584 
z
M 3366 4563 
L 3366 3988 
Q 3128 4100 2886 4159 
Q 2644 4219 2406 4219 
Q 1781 4219 1451 3797 
Q 1122 3375 1075 2522 
Q 1259 2794 1537 2939 
Q 1816 3084 2150 3084 
Q 2853 3084 3261 2657 
Q 3669 2231 3669 1497 
Q 3669 778 3244 343 
Q 2819 -91 2113 -91 
Q 1303 -91 875 529 
Q 447 1150 447 2328 
Q 447 3434 972 4092 
Q 1497 4750 2381 4750 
Q 2619 4750 2861 4703 
Q 3103 4656 3366 4563 
z
" transform="scale(0.015625)"/>
       </defs>
       <use xlink:href="#DejaVuSans-32"/>
       <use xlink:href="#DejaVuSans-30" x="63.623047"/>
       <use xlink:href="#DejaVuSans-31" x="127.246094"/>
       <use xlink:href="#DejaVuSans-36" x="190.869141"/>
      </g>
     </g>
    </g>
    <g id="xtick_3">
     <g id="line2d_3">
      <g>
       <use xlink:href="#m368e4316e0" x="444.693517" y="512.64" style="stroke: #000000; stroke-width: 0.8"/>
      </g>
     </g>
     <g id="text_3">
      <!-- 2018 -->
      <g transform="translate(431.968517 527.238438) scale(0.1 -0.1)">
       <defs>
        <path id="DejaVuSans-38" d="M 2034 2216 
Q 1584 2216 1326 1975 
Q 1069 1734 1069 1313 
Q 1069 891 1326 650 
Q 1584 409 2034 409 
Q 2484 409 2743 651 
Q 3003 894 3003 1313 
Q 3003 1734 2745 1975 
Q 2488 2216 2034 2216 
z
M 1403 2484 
Q 997 2584 770 2862 
Q 544 3141 544 3541 
Q 544 4100 942 4425 
Q 1341 4750 2034 4750 
Q 2731 4750 3128 4425 
Q 3525 4100 3525 3541 
Q 3525 3141 3298 2862 
Q 3072 2584 2669 2484 
Q 3125 2378 3379 2068 
Q 3634 1759 3634 1313 
Q 3634 634 3220 271 
Q 2806 -91 2034 -91 
Q 1263 -91 848 271 
Q 434 634 434 1313 
Q 434 1759 690 2068 
Q 947 2378 1403 2484 
z
M 1172 3481 
Q 1172 3119 1398 2916 
Q 1625 2713 2034 2713 
Q 2441 2713 2670 2916 
Q 2900 3119 2900 3481 
Q 2900 3844 2670 4047 
Q 2441 4250 2034 4250 
Q 1625 4250 1398 4047 
Q 1172 3844 1172 3481 
z
" transform="scale(0.015625)"/>
       </defs>
       <use xlink:href="#DejaVuSans-32"/>
       <use xlink:href="#DejaVuSans-30" x="63.623047"/>
       <use xlink:href="#DejaVuSans-31" x="127.246094"/>
       <use xlink:href="#DejaVuSans-38" x="190.869141"/>
      </g>
     </g>
    </g>
    <g id="xtick_4">
     <g id="line2d_4">
      <g>
       <use xlink:href="#m368e4316e0" x="578.318809" y="512.64" style="stroke: #000000; stroke-width: 0.8"/>
      </g>
     </g>
     <g id="text_4">
      <!-- 2020 -->
      <g transform="translate(565.593809 527.238438) scale(0.1 -0.1)">
       <use xlink:href="#DejaVuSans-32"/>
       <use xlink:href="#DejaVuSans-30" x="63.623047"/>
       <use xlink:href="#DejaVuSans-32" x="127.246094"/>
       <use xlink:href="#DejaVuSans-30" x="190.869141"/>
      </g>
     </g>
    </g>
    <g id="xtick_5">
     <g id="line2d_5">
      <g>
       <use xlink:href="#m368e4316e0" x="712.12715" y="512.64" style="stroke: #000000; stroke-width: 0.8"/>
      </g>
     </g>
     <g id="text_5">
      <!-- 2022 -->
      <g transform="translate(699.40215 527.238438) scale(0.1 -0.1)">
       <use xlink:href="#DejaVuSans-32"/>
       <use xlink:href="#DejaVuSans-30" x="63.623047"/>
       <use xlink:href="#DejaVuSans-32" x="127.246094"/>
       <use xlink:href="#DejaVuSans-32" x="190.869141"/>
      </g>
     </g>
    </g>
    <g id="xtick_6">
     <g id="line2d_6">
      <g>
       <use xlink:href="#m368e4316e0" x="845.752442" y="512.64" style="stroke: #000000; stroke-width: 0.8"/>
      </g>
     </g>
     <g id="text_6">
      <!-- 2024 -->
      <g transform="translate(833.027442 527.238438) scale(0.1 -0.1)">
       <use xlink:href="#DejaVuSans-32"/>
       <use xlink:href="#DejaVuSans-30" x="63.623047"/>
       <use xlink:href="#DejaVuSans-32" x="127.246094"/>
       <use xlink:href="#DejaVuSans-34" x="190.869141"/>
      </g>
     </g>
    </g>
    <g id="xtick_7">
     <g id="line2d_7">
      <g>
       <use xlink:href="#m368e4316e0" x="979.560782" y="512.64" style="stroke: #000000; stroke-width: 0.8"/>
      </g>
     </g>
     <g id="text_7">
      <!-- 2026 -->
      <g transform="translate(966.835782 527.238438) scale(0.1 -0.1)">
       <use xlink:href="#DejaVuSans-32"/>
       <use xlink:href="#DejaVuSans-30" x="63.623047"/>
       <use xlink:href="#DejaVuSans-32" x="127.246094"/>
       <use xlink:href="#DejaVuSans-36" x="190.869141"/>
      </g>
     </g>
    </g>
   </g>
   <g id="matplotlib.axis_2">
    <g id="ytick_1">
     <g id="line2d_8">
      <defs>
       <path id="m86155f67df" d="M 0 0 
L -3.5 0 
" style="stroke: #000000; stroke-width: 0.8"/>
      </defs>
      <g>
       <use xlink:href="#m86155f67df" x="144" y="492.506679" style="stroke: #000000; stroke-width: 0.8"/>
      </g>
     </g>
     <g id="text_8">
      <!-- 0 -->
      <g transform="translate(130.6375 496.305898) scale(0.1 -0.1)">
       <use xlink:href="#DejaVuSans-30"/>
      </g>
     </g>
    </g>
    <g id="ytick_2">
     <g id="line2d_9">
      <g>
       <use xlink:href="#m86155f67df" x="144" y="439.148643" style="stroke: #000000; stroke-width: 0.8"/>
      </g>
     </g>
     <g id="text_9">
      <!-- 2000 -->
      <g transform="translate(111.55 442.947862) scale(0.1 -0.1)">
       <use xlink:href="#DejaVuSans-32"/>
       <use xlink:href="#DejaVuSans-30" x="63.623047"/>
       <use xlink:href="#DejaVuSans-30" x="127.246094"/>
       <use xlink:href="#DejaVuSans-30" x="190.869141"/>
      </g>
     </g>
    </g>
    <g id="ytick_3">
     <g id="line2d_10">
      <g>
       <use xlink:href="#m86155f67df" x="144" y="385.790607" style="stroke: #000000; stroke-width: 0.8"/>
      </g>
     </g>
     <g id="text_10">
      <!-- 4000 -->
      <g transform="translate(111.55 389.589826) scale(0.1 -0.1)">
       <use xlink:href="#DejaVuSans-34"/>
       <use xlink:href="#DejaVuSans-30" x="63.623047"/>
       <use xlink:href="#DejaVuSans-30" x="127.246094"/>
       <use xlink:href="#DejaVuSans-30" x="190.869141"/>
      </g>
     </g>
    </g>
    <g id="ytick_4">
     <g id="line2d_11">
      <g>
       <use xlink:href="#m86155f67df" x="144" y="332.432571" style="stroke: #000000; stroke-width: 0.8"/>
      </g>
     </g>
     <g id="text_11">
      <!-- 6000 -->
      <g transform="translate(111.55 336.231789) scale(0.1 -0.1)">
       <use xlink:href="#DejaVuSans-36"/>
       <use xlink:href="#DejaVuSans-30" x="63.623047"/>
       <use xlink:href="#DejaVuSans-30" x="127.246094"/>
       <use xlink:href="#DejaVuSans-30" x="190.869141"/>
      </g>
     </g>
    </g>
    <g id="ytick_5">
     <g id="line2d_12">
      <g>
       <use xlink:href="#m86155f67df" x="144" y="279.074535" style="stroke: #000000; stroke-width: 0.8"/>
      </g>
     </g>
     <g id="text_12">
      <!-- 8000 -->
      <g transform="translate(111.55 282.873753) scale(0.1 -0.1)">
       <use xlink:href="#DejaVuSans-38"/>
       <use xlink:href="#DejaVuSans-30" x="63.623047"/>
       <use xlink:href="#DejaVuSans-30" x="127.246094"/>
       <use xlink:href="#DejaVuSans-30" x="190.869141"/>
      </g>
     </g>
    </g>
    <g id="ytick_6">
     <g id="line2d_13">
      <g>
       <use xlink:href="#m86155f67df" x="144" y="225.716498" style="stroke: #000000; stroke-width: 0.8"/>
      </g>
     </g>
     <g id="text_13">
      <!-- 10000 -->
      <g transform="translate(105.1875 229.515717) scale(0.1 -0.1)">
       <use xlink:href="#DejaVuSans-31"/>
       <use xlink:href="#DejaVuSans-30" x="63.623047"/>
       <use xlink:href="#DejaVuSans-30" x="127.246094"/>
       <use xlink:href="#DejaVuSans-30" x="190.869141"/>
       <use xlink:href="#DejaVuSans-30" x="254.492188"/>
      </g>
     </g>
    </g>
    <g id="ytick_7">
     <g id="line2d_14">
      <g>
       <use xlink:href="#m86155f67df" x="144" y="172.358462" style="stroke: #000000; stroke-width: 0.8"/>
      </g>
     </g>
     <g id="text_14">
      <!-- 12000 -->
      <g transform="translate(105.1875 176.157681) scale(0.1 -0.1)">
       <use xlink:href="#DejaVuSans-31"/>
       <use xlink:href="#DejaVuSans-32" x="63.623047"/>
       <use xlink:href="#DejaVuSans-30" x="127.246094"/>
       <use xlink:href="#DejaVuSans-30" x="190.869141"/>
       <use xlink:href="#DejaVuSans-30" x="254.492188"/>
      </g>
     </g>
    </g>
    <g id="ytick_8">
     <g id="line2d_15">
      <g>
       <use xlink:href="#m86155f67df" x="144" y="119.000426" style="stroke: #000000; stroke-width: 0.8"/>
      </g>
     </g>
     <g id="text_15">
      <!-- 14000 -->
      <g transform="translate(105.1875 122.799645) scale(0.1 -0.1)">
       <use xlink:href="#DejaVuSans-31"/>
       <use xlink:href="#DejaVuSans-34" x="63.623047"/>
       <use xlink:href="#DejaVuSans-30" x="127.246094"/>
       <use xlink:href="#DejaVuSans-30" x="190.869141"/>
       <use xlink:href="#DejaVuSans-30" x="254.492188"/>
      </g>
     </g>
    </g>
   </g>
   <g id="line2d_16">
    <path d="M 184.581818 492.48 
L 186.229253 492.426642 
L 284.892311 492.293247 
L 450.551064 492.133173 
L 491.736942 491.973099 
L 584.359405 491.466197 
L 584.725501 491.252765 
L 588.569517 491.11937 
L 635.429893 490.959296 
L 639.456957 490.879259 
L 660.873613 490.692506 
L 688.330865 490.02553 
L 694.737557 489.678703 
L 704.256071 489.49195 
L 708.649231 488.531505 
L 708.832279 488.424789 
L 710.479715 488.344752 
L 711.211908 487.971246 
L 711.394956 487.357629 
L 711.761053 487.197554 
L 711.944101 487.170875 
L 712.12715 486.317147 
L 713.22544 485.943641 
L 713.591536 485.516776 
L 713.957633 485.383381 
L 714.140682 485.063233 
L 714.32373 484.369579 
L 714.689827 483.78264 
L 714.872875 483.008949 
L 715.055923 481.541603 
L 715.605068 480.607837 
L 715.971165 475.858972 
L 716.154213 475.35207 
L 716.52031 472.337341 
L 716.703358 471.83044 
L 716.886407 470.496489 
L 717.069455 470.416452 
L 717.6186 468.762353 
L 717.801648 465.02729 
L 717.984697 464.707142 
L 718.350793 463.66666 
L 718.533842 463.586623 
L 718.71689 463.026364 
L 718.899938 460.465178 
L 719.082987 459.851561 
L 719.266035 459.824882 
L 719.449084 457.957351 
L 719.632132 457.717239 
L 719.998229 457.583844 
L 720.730422 455.876387 
L 721.096519 455.342807 
L 721.645664 453.90214 
L 722.01176 449.900287 
L 722.377857 448.032756 
L 722.927002 447.952719 
L 723.293099 447.765966 
L 724.025292 446.752163 
L 724.391389 446.698805 
L 724.757486 444.591163 
L 725.123582 444.431088 
L 725.306631 444.217656 
L 725.489679 443.257212 
L 725.855776 442.990421 
L 726.038824 442.857026 
L 726.221872 442.403483 
L 726.771017 442.243409 
L 727.137114 442.003298 
L 727.503211 441.016174 
L 727.686259 440.936137 
L 728.052356 440.535952 
L 728.784549 440.242483 
L 728.967597 439.335396 
L 729.333694 439.148643 
L 729.516743 437.414507 
L 729.882839 437.361149 
L 730.248936 436.854247 
L 730.431984 436.347346 
L 730.981129 436.24063 
L 731.164178 436.080556 
L 731.530274 435.573654 
L 731.713323 435.546975 
L 732.079419 435.14679 
L 732.445516 435.040074 
L 732.628564 433.839518 
L 733.726854 433.706123 
L 734.092951 433.546049 
L 734.825145 433.466012 
L 735.008193 433.359296 
L 737.57087 432.745679 
L 737.936966 432.532246 
L 738.852208 432.42553 
L 739.584402 432.105382 
L 741.414885 431.785234 
L 742.147078 429.864345 
L 743.794513 429.677591 
L 744.892804 429.490838 
L 746.906335 429.090653 
L 747.638529 428.9039 
L 748.004625 428.850542 
L 748.370722 428.557073 
L 748.736819 428.477036 
L 748.919867 428.316962 
L 749.652061 428.103529 
L 750.567302 428.050171 
L 750.750351 427.863418 
L 751.116447 427.836739 
L 751.299496 427.436554 
L 751.482544 427.383196 
L 751.665592 426.822937 
L 754.411318 426.369393 
L 754.594366 426.049245 
L 755.875704 425.782455 
L 756.424849 425.622381 
L 757.157043 425.488986 
L 757.889236 425.328912 
L 758.987526 425.115479 
L 759.902768 424.848689 
L 760.634961 424.528541 
L 760.81801 423.994961 
L 761.733251 423.434701 
L 761.9163 423.19459 
L 762.831541 422.580973 
L 763.197638 422.020713 
L 763.380686 421.994034 
L 763.746783 421.433775 
L 764.478977 420.74012 
L 765.028122 420.660083 
L 765.394218 420.419972 
L 765.577267 420.339935 
L 765.760315 420.073145 
L 766.675557 419.886392 
L 766.858605 419.646281 
L 768.689088 419.352811 
L 768.872137 419.219416 
L 769.970427 419.059342 
L 770.885669 418.765873 
L 771.617862 418.632478 
L 771.983959 418.178935 
L 772.350055 417.992182 
L 773.265297 417.48528 
L 773.448345 416.871663 
L 774.363587 416.631552 
L 776.560167 415.644428 
L 776.743216 415.377638 
L 777.292361 415.217564 
L 778.207602 414.870736 
L 778.573699 412.122798 
L 778.756747 411.269069 
L 778.939796 409.801723 
L 779.122844 409.61497 
L 779.671989 407.934192 
L 780.221134 407.107142 
L 780.587231 406.89371 
L 780.770279 406.733636 
L 780.953328 405.959944 
L 781.136376 405.719833 
L 781.502473 405.639796 
L 782.051618 404.9995 
L 782.234666 404.519277 
L 782.783811 403.959018 
L 782.966859 403.238685 
L 783.882101 401.984771 
L 784.797343 401.611264 
L 784.980391 400.91761 
L 785.529536 400.677499 
L 786.26173 399.983844 
L 786.444778 399.476943 
L 786.810875 399.316869 
L 787.176971 398.943363 
L 787.543068 398.916684 
L 787.726116 398.649893 
L 788.092213 398.489819 
L 788.641358 398.062955 
L 789.007455 397.876202 
L 789.190503 397.422659 
L 790.471842 396.595609 
L 790.65489 396.515572 
L 791.020987 395.555127 
L 791.570132 395.368374 
L 792.119277 395.234979 
L 792.485373 394.754757 
L 792.85147 394.514646 
L 793.400615 393.767633 
L 794.681953 393.474164 
L 795.231099 392.75383 
L 795.963292 392.620435 
L 796.878534 392.060176 
L 797.061582 392.033497 
L 797.610727 391.659991 
L 797.976824 391.553275 
L 798.34292 391.526596 
L 798.525969 391.366522 
L 798.709017 390.939657 
L 799.44121 390.752904 
L 799.624259 390.512793 
L 799.807307 390.486114 
L 799.990356 390.005892 
L 800.722549 389.792459 
L 801.088646 389.712422 
L 801.454742 389.472311 
L 803.468274 388.778657 
L 803.651322 388.085002 
L 804.017419 387.844891 
L 804.566564 387.684817 
L 805.115709 387.418027 
L 805.847903 387.311311 
L 806.030951 386.617656 
L 806.580096 386.404224 
L 806.763144 386.24415 
L 807.495338 386.110755 
L 807.678386 386.004039 
L 808.044483 385.97736 
L 808.227531 385.763928 
L 808.959724 385.550496 
L 809.142773 385.257026 
L 809.508869 385.230347 
L 810.058015 384.963557 
L 810.424111 384.803483 
L 810.60716 384.510014 
L 811.888498 384.189866 
L 812.071546 384.029792 
L 812.620691 383.896396 
L 812.80374 383.656285 
L 812.986788 383.629606 
L 813.352885 383.416174 
L 813.718981 383.282779 
L 813.90203 383.176063 
L 815.00032 382.962631 
L 815.183368 382.669162 
L 815.732513 382.535767 
L 816.281658 382.45573 
L 816.647755 382.215618 
L 817.1969 382.082223 
L 817.562997 381.975507 
L 817.746045 381.788754 
L 818.112142 381.735396 
L 818.29519 381.281853 
L 818.478238 381.201816 
L 819.39348 380.134655 
L 819.576528 380.054618 
L 819.759577 379.841186 
L 820.125674 379.681112 
L 820.857867 379.200889 
L 821.223964 379.094173 
L 821.407012 378.800704 
L 821.956157 378.533914 
L 822.322254 378.347161 
L 822.871399 378.213766 
L 823.420544 377.81358 
L 823.78664 377.573469 
L 824.152737 377.306679 
L 824.88493 376.853136 
L 826.532366 376.266197 
L 827.264559 375.812654 
L 827.996752 375.599222 
L 828.545897 375.359111 
L 829.278091 375.145679 
L 829.644187 374.932246 
L 830.193333 374.798851 
L 830.742478 374.532061 
L 831.291623 374.398666 
L 831.840768 374.185234 
L 832.939058 373.945123 
L 833.488203 373.75837 
L 833.671251 373.491579 
L 836.05088 372.744567 
L 836.416976 372.584493 
L 836.783073 372.531135 
L 837.14917 372.184308 
L 837.332218 371.090468 
L 837.698315 370.823678 
L 838.064411 370.690283 
L 838.796605 369.996628 
L 838.979653 369.889912 
L 839.34575 369.196258 
L 839.711846 369.009504 
L 840.077943 368.84943 
L 840.44404 368.769393 
L 840.810137 368.555961 
L 840.993185 368.449245 
L 841.908427 368.262492 
L 842.274523 367.942344 
L 842.823668 367.568837 
L 843.189765 367.462121 
L 843.555862 367.141973 
L 844.654152 366.474998 
L 845.020248 366.448319 
L 845.203297 366.208208 
L 845.93549 366.048133 
L 846.118539 365.514553 
L 846.484635 365.247763 
L 847.399877 365.007652 
L 847.582925 364.927615 
L 847.765974 364.554108 
L 848.13207 364.447392 
L 848.315119 364.153923 
L 848.864264 363.807096 
L 849.23036 363.647022 
L 849.596457 363.566985 
L 849.962554 363.380232 
L 850.145602 363.353553 
L 850.511699 363.166799 
L 851.243892 362.819972 
L 851.609989 362.206355 
L 853.074376 361.592737 
L 853.257424 361.112515 
L 853.806569 360.952441 
L 854.355714 360.392182 
L 854.538762 360.338824 
L 854.904859 360.098712 
L 855.087907 360.072033 
L 855.454004 359.671848 
L 855.820101 359.485095 
L 856.552294 359.218305 
L 856.735343 358.951515 
L 857.101439 358.898157 
L 857.284488 358.711403 
L 857.467536 358.684724 
L 857.650584 358.151144 
L 858.199729 357.99107 
L 858.382778 357.911033 
L 858.748874 357.590885 
L 858.931923 357.484169 
L 859.481068 356.89723 
L 860.945455 356.123539 
L 861.677648 355.910107 
L 862.043745 355.509921 
L 862.226793 355.456563 
L 863.142035 354.789588 
L 863.69118 354.576156 
L 864.057276 354.416082 
L 864.240325 354.389403 
L 864.423373 353.855822 
L 864.972518 353.535674 
L 865.155566 353.028773 
L 865.521663 352.81534 
L 865.704712 352.601908 
L 865.88776 352.575229 
L 866.619953 352.01497 
L 867.352147 351.774859 
L 867.718243 351.534748 
L 868.816533 351.107883 
L 869.548727 350.334192 
L 869.914823 350.254155 
L 870.28092 349.987365 
L 870.463969 349.800611 
L 870.647017 349.773932 
L 870.830065 349.480463 
L 875.040177 347.612932 
L 875.406274 347.346142 
L 875.955419 347.079352 
L 876.321516 346.945956 
L 876.687612 346.83924 
L 877.053709 346.519092 
L 878.518096 345.985512 
L 878.884192 345.878796 
L 879.067241 344.918351 
L 879.616386 344.704919 
L 879.799434 344.464808 
L 879.982482 344.438129 
L 880.714676 343.451005 
L 880.897724 343.370968 
L 881.080773 343.05082 
L 881.446869 342.944104 
L 882.179063 342.090375 
L 882.545159 340.889819 
L 882.728208 340.516313 
L 883.094304 338.648782 
L 883.277353 337.848411 
L 884.192594 336.941325 
L 884.924788 334.566892 
L 885.107836 334.433497 
L 885.290884 334.08667 
L 885.473933 332.832756 
L 885.656981 332.45925 
L 885.84003 332.432571 
L 886.023078 331.845632 
L 886.572223 331.552163 
L 886.93832 330.83183 
L 888.951851 329.924743 
L 889.500996 329.364484 
L 889.867093 328.857582 
L 890.23319 328.750866 
L 890.599287 328.617471 
L 893.711108 327.630347 
L 894.260253 327.150125 
L 894.809398 326.883335 
L 895.175495 326.696582 
L 895.358543 326.456471 
L 896.090737 326.216359 
L 896.273785 326.136322 
L 896.456834 325.576063 
L 897.005979 325.229236 
L 897.555124 325.042483 
L 897.738172 324.85573 
L 898.287317 324.668976 
L 899.568655 324.108717 
L 900.1178 323.655174 
L 900.300849 323.281667 
L 900.666946 323.148272 
L 901.216091 322.267865 
L 901.399139 321.760963 
L 901.765236 321.547531 
L 902.314381 321.227383 
L 902.497429 320.987272 
L 902.863526 319.94679 
L 903.046574 319.733358 
L 903.229622 319.173099 
L 903.412671 319.119741 
L 903.595719 318.666197 
L 903.961816 318.506123 
L 905.060106 317.679074 
L 905.243154 317.305567 
L 905.792299 317.145493 
L 906.524493 316.905382 
L 907.073638 316.745308 
L 907.256686 316.185049 
L 907.805831 315.971616 
L 909.453266 315.224604 
L 910.734605 314.344196 
L 910.917653 314.104085 
L 911.100701 313.623863 
L 912.198991 313.223678 
L 912.565088 312.823492 
L 912.931185 312.743455 
L 913.114233 312.423307 
L 913.48033 312.289912 
L 913.663378 312.049801 
L 915.67691 311.062677 
L 916.7752 309.995516 
L 916.958248 309.461936 
L 917.324345 309.008393 
L 917.507393 308.741603 
L 918.239587 305.620157 
L 918.605683 304.979861 
L 918.788732 304.659713 
L 918.97178 303.245725 
L 919.337877 299.510662 
L 919.520925 297.963279 
L 919.703973 297.616452 
L 920.07007 295.7756 
L 920.436167 293.187735 
L 920.802264 289.559389 
L 921.16836 289.105845 
L 921.534457 284.463696 
L 921.717505 283.236461 
L 922.083602 278.167448 
L 922.449699 277.180324 
L 922.632747 274.512422 
L 922.815795 274.0322 
L 923.181892 271.150866 
L 923.547989 263.333914 
L 923.731037 262.933729 
L 923.914085 262.186716 
L 924.097134 259.785604 
L 924.280182 259.598851 
L 924.646279 255.596999 
L 925.012375 255.410245 
L 925.378472 254.663233 
L 925.56152 254.503159 
L 925.744569 254.129653 
L 925.927617 253.38264 
L 926.293714 253.222566 
L 926.842859 251.808578 
L 927.208956 249.780973 
L 927.392004 249.407466 
L 927.575052 249.354108 
L 927.758101 249.167355 
L 928.124197 248.660454 
L 928.307246 247.833404 
L 928.490294 247.646651 
L 928.673342 247.299824 
L 928.856391 247.246466 
L 929.222487 246.766244 
L 929.588584 246.632849 
L 929.954681 246.099268 
L 930.320777 245.699083 
L 930.686874 245.432293 
L 931.236019 245.005428 
L 931.419068 244.978749 
L 931.968213 244.498527 
L 932.700406 244.098342 
L 933.432599 243.964947 
L 933.615648 243.804873 
L 933.981744 243.751515 
L 934.530889 243.404687 
L 935.995276 242.79107 
L 936.178325 242.417564 
L 937.093566 242.204132 
L 937.82576 241.69723 
L 938.557953 241.030255 
L 938.741001 240.870181 
L 939.473195 240.683428 
L 940.571485 239.989773 
L 941.12063 239.722983 
L 941.303678 239.242761 
L 942.585017 238.415711 
L 942.951113 238.202279 
L 944.4155 237.428587 
L 944.964645 237.375229 
L 945.330742 236.601538 
L 945.51379 236.521501 
L 945.879887 236.094636 
L 946.61208 235.481019 
L 946.795129 235.400982 
L 947.344274 234.760686 
L 947.527322 234.227105 
L 947.71037 234.120389 
L 948.076467 234.067031 
L 948.442564 233.800241 
L 949.174757 233.480093 
L 949.90695 233.159944 
L 950.273047 232.73308 
L 950.456095 232.706401 
L 950.639144 229.611635 
L 951.00524 229.184771 
L 951.371337 228.891302 
L 951.554386 228.571153 
L 951.737434 228.544474 
L 952.103531 228.197647 
L 952.286579 227.690746 
L 953.384869 226.676943 
L 953.567917 226.410153 
L 953.934014 224.916128 
L 954.117062 224.489264 
L 954.300111 223.688893 
L 954.483159 223.448782 
L 954.666207 222.461658 
L 955.032304 221.634609 
L 955.215352 220.994312 
L 955.947546 220.2473 
L 956.496691 219.633682 
L 956.862788 219.446929 
L 957.228884 219.313534 
L 958.144126 218.406447 
L 958.327174 218.032941 
L 958.510223 217.979583 
L 958.876319 217.659435 
L 959.059368 217.499361 
L 959.608513 216.618953 
L 959.791561 216.512237 
L 959.974609 215.63183 
L 961.255948 214.831459 
L 962.354238 213.550866 
L 962.537286 213.364113 
L 962.903383 212.510384 
L 963.086431 212.35031 
L 963.635576 211.256471 
L 963.818625 211.176434 
L 964.001673 210.696211 
L 964.184721 210.536137 
L 964.733866 209.09547 
L 965.283011 208.348458 
L 965.832156 208.054988 
L 966.198253 207.441371 
L 966.930447 206.774396 
L 967.296543 205.733914 
L 968.028737 203.732987 
L 968.211785 202.345679 
L 968.394833 202.132246 
L 968.577882 200.95837 
L 968.943978 200.478147 
L 969.127027 200.051283 
L 969.493123 198.023678 
L 969.85922 197.276665 
L 970.042268 197.116591 
L 970.225317 190.420157 
L 970.408365 187.885651 
L 970.591413 172.731969 
L 971.140558 171.691487 
L 971.323607 171.531413 
L 971.689704 170.277499 
L 972.0558 169.42377 
L 973.15409 163.074164 
L 973.703235 161.793571 
L 973.886284 160.326225 
L 974.25238 159.765966 
L 974.618477 158.512052 
L 974.801525 156.991348 
L 974.984574 156.617842 
L 975.35067 155.57736 
L 975.899815 154.75031 
L 976.082864 154.670273 
L 976.998106 151.442112 
L 977.547251 150.054803 
L 977.913347 148.213951 
L 978.096396 148.160593 
L 978.279444 147.97384 
L 978.462492 147.947161 
L 978.828589 147.573654 
L 979.011637 146.906679 
L 979.743831 145.866197 
L 980.109927 144.825716 
L 980.292976 144.692321 
L 980.659072 143.838592 
L 981.025169 142.291209 
L 981.208217 142.051098 
L 981.391266 141.99774 
L 981.757363 140.316962 
L 981.940411 139.970134 
L 982.489556 137.862492 
L 982.672604 137.569023 
L 983.953943 132.953553 
L 984.136991 132.846836 
L 984.869184 128.978379 
L 985.052233 128.871663 
L 985.235281 128.578194 
L 987.797958 120.841278 
L 987.981006 119.560686 
L 988.164055 119.320574 
L 989.079296 116.492598 
L 989.628441 114.038129 
L 989.994538 111.877128 
L 990.360635 111.0234 
L 991.092828 108.56893 
L 991.641973 107.181621 
L 991.825022 105.527522 
L 992.00807 105.020621 
L 992.374167 103.073052 
L 993.472457 99.951607 
L 994.021602 97.44378 
L 994.20465 97.016915 
L 994.936843 92.428124 
L 995.119892 91.73447 
L 995.669037 91.17421 
L 996.035133 89.333358 
L 996.218182 89.28 
L 996.218182 89.28 
" clip-path="url(#pec27644a08)" style="fill: none; stroke: #1f77b4; stroke-width: 1.5; stroke-linecap: square"/>
   </g>
   <g id="patch_3">
    <path d="M 144 512.64 
L 144 69.12 
" style="fill: none; stroke: #000000; stroke-width: 0.8; stroke-linejoin: miter; stroke-linecap: square"/>
   </g>
   <g id="patch_4">
    <path d="M 1036.8 512.64 
L 1036.8 69.12 
" style="fill: none; stroke: #000000; stroke-width: 0.8; stroke-linejoin: miter; stroke-linecap: square"/>
   </g>
   <g id="patch_5">
    <path d="M 144 512.64 
L 1036.8 512.64 
" style="fill: none; stroke: #000000; stroke-width: 0.8; stroke-linejoin: miter; stroke-linecap: square"/>
   </g>
   <g id="patch_6">
    <path d="M 144 69.12 
L 1036.8 69.12 
" style="fill: none; stroke: #000000; stroke-width: 0.8; stroke-linejoin: miter; stroke-linecap: square"/>
   </g>
   <g id="text_16">
    <!-- Number of AEDs in the OpenStreetMap database in Poland from first edition, day by day. As at: 2026-04-02 -->
    <g transform="translate(144 63.12) scale(0.14 -0.14)">
     <defs>
      <path id="DejaVuSans-4e" d="M 628 4666 
L 1478 4666 
L 3547 763 
L 3547 4666 
L 4159 4666 
L 4159 0 
L 3309 0 
L 1241 3903 
L 1241 0 
L 628 0 
L 628 4666 
z
" transform="scale(0.015625)"/>
      <path id="DejaVuSans-75" d="M 544 1381 
L 544 3500 
L 1119 3500 
L 1119 1403 
Q 1119 906 1312 657 
Q 1506 409 1894 409 
Q 2359 409 2629 706 
Q 2900 1003 2900 1516 
L 2900 3500 
L 3475 3500 
L 3475 0 
L 2900 0 
L 2900 538 
Q 2691 219 2414 64 
Q 2138 -91 1772 -91 
Q 1169 -91 856 284 
Q 544 659 544 1381 
z
M 1991 3584 
L 1991 3584 
z
" transform="scale(0.015625)"/>
      <path id="DejaVuSans-6d" d="M 3328 2828 
Q 3544 3216 3844 3400 
Q 4144 3584 4550 3584 
Q 5097 3584 5394 3201 
Q 5691 2819 5691 2113 
L 5691 0 
L 5113 0 
L 5113 2094 
Q 5113 2597 4934 2840 
Q 4756 3084 4391 3084 
Q 3944 3084 3684 2787 
Q 3425 2491 3425 1978 
L 3425 0 
L 2847 0 
L 2847 2094 
Q 2847 2600 2669 2842 
Q 2491 3084 2119 3084 
Q 1678 3084 1418 2786 
Q 1159 2488 1159 1978 
L 1159 0 
L 581 0 
L 581 3500 
L 1159 3500 
L 1159 2956 
Q 1356 3278 1631 3431 
Q 1906 3584 2284 3584 
Q 2666 3584 2933 3390 
Q 3200 3197 3328 2828 
z
" transform="scale(0.015625)"/>
      <path id="DejaVuSans-62" d="M 3116 1747 
Q 3116 2381 2855 2742 
Q 2594 3103 2138 3103 
Q 1681 3103 1420 2742 
Q 1159 2381 1159 1747 
Q 1159 1113 1420 752 
Q 1681 391 2138 391 
Q 2594 391 2855 752 
Q 3116 1113 3116 1747 
z
M 1159 2969 
Q 1341 3281 1617 3432 
Q 1894 3584 2278 3584 
Q 2916 3584 3314 3078 
Q 3713 2572 3713 1747 
Q 3713 922 3314 415 
Q 2916 -91 2278 -91 
Q 1894 -91 1617 61 
Q 1341 213 1159 525 
L 1159 0 
L 581 0 
L 581 4863 
L 1159 4863 
L 1159 2969 
z
" transform="scale(0.015625)"/>
      <path id="DejaVuSans-65" d="M 3597 1894 
L 3597 1613 
L 953 1613 
Q 991 1019 1311 708 
Q 1631 397 2203 397 
Q 2534 397 2845 478 
Q 3156 559 3463 722 
L 3463 178 
Q 3153 47 2828 -22 
Q 2503 -91 2169 -91 
Q 1331 -91 842 396 
Q 353 884 353 1716 
Q 353 2575 817 3079 
Q 1281 3584 2069 3584 
Q 2775 3584 3186 3129 
Q 3597 2675 3597 1894 
z
M 3022 2063 
Q 3016 2534 2758 2815 
Q 2500 3097 2075 3097 
Q 1594 3097 1305 2825 
Q 1016 2553 972 2059 
L 3022 2063 
z
" transform="scale(0.015625)"/>
      <path id="DejaVuSans-72" d="M 2631 2963 
Q 2534 3019 2420 3045 
Q 2306 3072 2169 3072 
Q 1681 3072 1420 2755 
Q 1159 2438 1159 1844 
L 1159 0 
L 581 0 
L 581 3500 
L 1159 3500 
L 1159 2956 
Q 1341 3275 1631 3429 
Q 1922 3584 2338 3584 
Q 2397 3584 2469 3576 
Q 2541 3569 2628 3553 
L 2631 2963 
z
" transform="scale(0.015625)"/>
      <path id="DejaVuSans-20" transform="scale(0.015625)"/>
      <path id="DejaVuSans-6f" d="M 1959 3097 
Q 1497 3097 1228 2736 
Q 959 2375 959 1747 
Q 959 1119 1226 758 
Q 1494 397 1959 397 
Q 2419 397 2687 759 
Q 2956 1122 2956 1747 
Q 2956 2369 2687 2733 
Q 2419 3097 1959 3097 
z
M 1959 3584 
Q 2709 3584 3137 3096 
Q 3566 2609 3566 1747 
Q 3566 888 3137 398 
Q 2709 -91 1959 -91 
Q 1206 -91 779 398 
Q 353 888 353 1747 
Q 353 2609 779 3096 
Q 1206 3584 1959 3584 
z
" transform="scale(0.015625)"/>
      <path id="DejaVuSans-66" d="M 2375 4863 
L 2375 4384 
L 1825 4384 
Q 1516 4384 1395 4259 
Q 1275 4134 1275 3809 
L 1275 3500 
L 2222 3500 
L 2222 3053 
L 1275 3053 
L 1275 0 
L 697 0 
L 697 3053 
L 147 3053 
L 147 3500 
L 697 3500 
L 697 3744 
Q 697 4328 969 4595 
Q 1241 4863 1831 4863 
L 2375 4863 
z
" transform="scale(0.015625)"/>
      <path id="DejaVuSans-41" d="M 2188 4044 
L 1331 1722 
L 3047 1722 
L 2188 4044 
z
M 1831 4666 
L 2547 4666 
L 4325 0 
L 3669 0 
L 3244 1197 
L 1141 1197 
L 716 0 
L 50 0 
L 1831 4666 
z
" transform="scale(0.015625)"/>
      <path id="DejaVuSans-45" d="M 628 4666 
L 3578 4666 
L 3578 4134 
L 1259 4134 
L 1259 2753 
L 3481 2753 
L 3481 2222 
L 1259 2222 
L 1259 531 
L 3634 531 
L 3634 0 
L 628 0 
L 628 4666 
z
" transform="scale(0.015625)"/>
      <path id="DejaVuSans-44" d="M 1259 4147 
L 1259 519 
L 2022 519 
Q 2988 519 3436 956 
Q 3884 1394 3884 2338 
Q 3884 3275 3436 3711 
Q 2988 4147 2022 4147 
L 1259 4147 
z
M 628 4666 
L 1925 4666 
Q 3281 4666 3915 4102 
Q 4550 3538 4550 2338 
Q 4550 1131 3912 565 
Q 3275 0 1925 0 
L 628 0 
L 628 4666 
z
" transform="scale(0.015625)"/>
      <path id="DejaVuSans-73" d="M 2834 3397 
L 2834 2853 
Q 2591 2978 2328 3040 
Q 2066 3103 1784 3103 
Q 1356 3103 1142 2972 
Q 928 2841 928 2578 
Q 928 2378 1081 2264 
Q 1234 2150 1697 2047 
L 1894 2003 
Q 2506 1872 2764 1633 
Q 3022 1394 3022 966 
Q 3022 478 2636 193 
Q 2250 -91 1575 -91 
Q 1294 -91 989 -36 
Q 684 19 347 128 
L 347 722 
Q 666 556 975 473 
Q 1284 391 1588 391 
Q 1994 391 2212 530 
Q 2431 669 2431 922 
Q 2431 1156 2273 1281 
Q 2116 1406 1581 1522 
L 1381 1569 
Q 847 1681 609 1914 
Q 372 2147 372 2553 
Q 372 3047 722 3315 
Q 1072 3584 1716 3584 
Q 2034 3584 2315 3537 
Q 2597 3491 2834 3397 
z
" transform="scale(0.015625)"/>
      <path id="DejaVuSans-69" d="M 603 3500 
L 1178 3500 
L 1178 0 
L 603 0 
L 603 3500 
z
M 603 4863 
L 1178 4863 
L 1178 4134 
L 603 4134 
L 603 4863 
z
" transform="scale(0.015625)"/>
      <path id="DejaVuSans-6e" d="M 3513 2113 
L 3513 0 
L 2938 0 
L 2938 2094 
Q 2938 2591 2744 2837 
Q 2550 3084 2163 3084 
Q 1697 3084 1428 2787 
Q 1159 2491 1159 1978 
L 1159 0 
L 581 0 
L 581 3500 
L 1159 3500 
L 1159 2956 
Q 1366 3272 1645 3428 
Q 1925 3584 2291 3584 
Q 2894 3584 3203 3211 
Q 3513 2838 3513 2113 
z
" transform="scale(0.015625)"/>
      <path id="DejaVuSans-74" d="M 1172 4494 
L 1172 3500 
L 2356 3500 
L 2356 3053 
L 1172 3053 
L 1172 1153 
Q 1172 725 1289 603 
Q 1406 481 1766 481 
L 2356 481 
L 2356 0 
L 1766 0 
Q 1100 0 847 248 
Q 594 497 594 1153 
L 594 3053 
L 172 3053 
L 172 3500 
L 594 3500 
L 594 4494 
L 1172 4494 
z
" transform="scale(0.015625)"/>
      <path id="DejaVuSans-68" d="M 3513 2113 
L 3513 0 
L 2938 0 
L 2938 2094 
Q 2938 2591 2744 2837 
Q 2550 3084 2163 3084 
Q 1697 3084 1428 2787 
Q 1159 2491 1159 1978 
L 1159 0 
L 581 0 
L 581 4863 
L 1159 4863 
L 1159 2956 
Q 1366 3272 1645 3428 
Q 1925 3584 2291 3584 
Q 2894 3584 3203 3211 
Q 3513 2838 3513 2113 
z
" transform="scale(0.015625)"/>
      <path id="DejaVuSans-4f" d="M 2522 4238 
Q 1834 4238 1429 3725 
Q 1025 3213 1025 2328 
Q 1025 1447 1429 934 
Q 1834 422 2522 422 
Q 3209 422 3611 934 
Q 4013 1447 4013 2328 
Q 4013 3213 3611 3725 
Q 3209 4238 2522 4238 
z
M 2522 4750 
Q 3503 4750 4090 4092 
Q 4678 3434 4678 2328 
Q 4678 1225 4090 567 
Q 3503 -91 2522 -91 
Q 1538 -91 948 565 
Q 359 1222 359 2328 
Q 359 3434 948 4092 
Q 1538 4750 2522 4750 
z
" transform="scale(0.015625)"/>
      <path id="DejaVuSans-70" d="M 1159 525 
L 1159 -1331 
L 581 -1331 
L 581 3500 
L 1159 3500 
L 1159 2969 
Q 1341 3281 1617 3432 
Q 1894 3584 2278 3584 
Q 2916 3584 3314 3078 
Q 3713 2572 3713 1747 
Q 3713 922 3314 415 
Q 2916 -91 2278 -91 
Q 1894 -91 1617 61 
Q 1341 213 1159 525 
z
M 3116 1747 
Q 3116 2381 2855 2742 
Q 2594 3103 2138 3103 
Q 1681 3103 1420 2742 
Q 1159 2381 1159 1747 
Q 1159 1113 1420 752 
Q 1681 391 2138 391 
Q 2594 391 2855 752 
Q 3116 1113 3116 1747 
z
" transform="scale(0.015625)"/>
      <path id="DejaVuSans-53" d="M 3425 4513 
L 3425 3897 
Q 3066 4069 2747 4153 
Q 2428 4238 2131 4238 
Q 1616 4238 1336 4038 
Q 1056 3838 1056 3469 
Q 1056 3159 1242 3001 
Q 1428 2844 1947 2747 
L 2328 2669 
Q 3034 2534 3370 2195 
Q 3706 1856 3706 1288 
Q 3706 609 3251 259 
Q 2797 -91 1919 -91 
Q 1588 -91 1214 -16 
Q 841 59 441 206 
L 441 856 
Q 825 641 1194 531 
Q 1563 422 1919 422 
Q 2459 422 2753 634 
Q 3047 847 3047 1241 
Q 3047 1584 2836 1778 
Q 2625 1972 2144 2069 
L 1759 2144 
Q 1053 2284 737 2584 
Q 422 2884 422 3419 
Q 422 4038 858 4394 
Q 1294 4750 2059 4750 
Q 2388 4750 2728 4690 
Q 3069 4631 3425 4513 
z
" transform="scale(0.015625)"/>
      <path id="DejaVuSans-4d" d="M 628 4666 
L 1569 4666 
L 2759 1491 
L 3956 4666 
L 4897 4666 
L 4897 0 
L 4281 0 
L 4281 4097 
L 3078 897 
L 2444 897 
L 1241 4097 
L 1241 0 
L 628 0 
L 628 4666 
z
" transform="scale(0.015625)"/>
      <path id="DejaVuSans-61" d="M 2194 1759 
Q 1497 1759 1228 1600 
Q 959 1441 959 1056 
Q 959 750 1161 570 
Q 1363 391 1709 391 
Q 2188 391 2477 730 
Q 2766 1069 2766 1631 
L 2766 1759 
L 2194 1759 
z
M 3341 1997 
L 3341 0 
L 2766 0 
L 2766 531 
Q 2569 213 2275 61 
Q 1981 -91 1556 -91 
Q 1019 -91 701 211 
Q 384 513 384 1019 
Q 384 1609 779 1909 
Q 1175 2209 1959 2209 
L 2766 2209 
L 2766 2266 
Q 2766 2663 2505 2880 
Q 2244 3097 1772 3097 
Q 1472 3097 1187 3025 
Q 903 2953 641 2809 
L 641 3341 
Q 956 3463 1253 3523 
Q 1550 3584 1831 3584 
Q 2591 3584 2966 3190 
Q 3341 2797 3341 1997 
z
" transform="scale(0.015625)"/>
      <path id="DejaVuSans-64" d="M 2906 2969 
L 2906 4863 
L 3481 4863 
L 3481 0 
L 2906 0 
L 2906 525 
Q 2725 213 2448 61 
Q 2172 -91 1784 -91 
Q 1150 -91 751 415 
Q 353 922 353 1747 
Q 353 2572 751 3078 
Q 1150 3584 1784 3584 
Q 2172 3584 2448 3432 
Q 2725 3281 2906 2969 
z
M 947 1747 
Q 947 1113 1208 752 
Q 1469 391 1925 391 
Q 2381 391 2643 752 
Q 2906 1113 2906 1747 
Q 2906 2381 2643 2742 
Q 2381 3103 1925 3103 
Q 1469 3103 1208 2742 
Q 947 2381 947 1747 
z
" transform="scale(0.015625)"/>
      <path id="DejaVuSans-50" d="M 1259 4147 
L 1259 2394 
L 2053 2394 
Q 2494 2394 2734 2622 
Q 2975 2850 2975 3272 
Q 2975 3691 2734 3919 
Q 2494 4147 2053 4147 
L 1259 4147 
z
M 628 4666 
L 2053 4666 
Q 2838 4666 3239 4311 
Q 3641 3956 3641 3272 
Q 3641 2581 3239 2228 
Q 2838 1875 2053 1875 
L 1259 1875 
L 1259 0 
L 628 0 
L 628 4666 
z
" transform="scale(0.015625)"/>
      <path id="DejaVuSans-6c" d="M 603 4863 
L 1178 4863 
L 1178 0 
L 603 0 
L 603 4863 
z
" transform="scale(0.015625)"/>
      <path id="DejaVuSans-2c" d="M 750 794 
L 1409 794 
L 1409 256 
L 897 -744 
L 494 -744 
L 750 256 
L 750 794 
z
" transform="scale(0.015625)"/>
      <path id="DejaVuSans-79" d="M 2059 -325 
Q 1816 -950 1584 -1140 
Q 1353 -1331 966 -1331 
L 506 -1331 
L 506 -850 
L 844 -850 
Q 1081 -850 1212 -737 
Q 1344 -625 1503 -206 
L 1606 56 
L 191 3500 
L 800 3500 
L 1894 763 
L 2988 3500 
L 3597 3500 
L 2059 -325 
z
" transform="scale(0.015625)"/>
      <path id="DejaVuSans-2e" d="M 684 794 
L 1344 794 
L 1344 0 
L 684 0 
L 684 794 
z
" transform="scale(0.015625)"/>
      <path id="DejaVuSans-3a" d="M 750 794 
L 1409 794 
L 1409 0 
L 750 0 
L 750 794 
z
M 750 3309 
L 1409 3309 
L 1409 2516 
L 750 2516 
L 750 3309 
z
" transform="scale(0.015625)"/>
      <path id="DejaVuSans-2d" d="M 313 2009 
L 1997 2009 
L 1997 1497 
L 313 1497 
L 313 2009 
z
" transform="scale(0.015625)"/>
     </defs>
     <use xlink:href="#DejaVuSans-4e"/>
     <use xlink:href="#DejaVuSans-75" x="74.804688"/>
     <use xlink:href="#DejaVuSans-6d" x="138.183594"/>
     <use xlink:href="#DejaVuSans-62" x="235.595703"/>
     <use xlink:href="#DejaVuSans-65" x="299.072266"/>
     <use xlink:href="#DejaVuSans-72" x="360.595703"/>
     <use xlink:href="#DejaVuSans-20" x="401.708984"/>
     <use xlink:href="#DejaVuSans-6f" x="433.496094"/>
     <use xlink:href="#DejaVuSans-66" x="494.677734"/>
     <use xlink:href="#DejaVuSans-20" x="529.882812"/>
     <use xlink:href="#DejaVuSans-41" x="561.669922"/>
     <use xlink:href="#DejaVuSans-45" x="630.078125"/>
     <use xlink:href="#DejaVuSans-44" x="693.261719"/>
     <use xlink:href="#DejaVuSans-73" x="770.263672"/>
     <use xlink:href="#DejaVuSans-20" x="822.363281"/>
     <use xlink:href="#DejaVuSans-69" x="854.150391"/>
     <use xlink:href="#DejaVuSans-6e" x="881.933594"/>
     <use xlink:href="#DejaVuSans-20" x="945.3125"/>
     <use xlink:href="#DejaVuSans-74" x="977.099609"/>
     <use xlink:href="#DejaVuSans-68" x="1016.308594"/>
     <use xlink:href="#DejaVuSans-65" x="1079.6875"/>
     <use xlink:href="#DejaVuSans-20" x="1141.210938"/>
     <use xlink:href="#DejaVuSans-4f" x="1172.998047"/>
     <use xlink:href="#DejaVuSans-70" x="1251.708984"/>
     <use xlink:href="#DejaVuSans-65" x="1315.185547"/>
     <use xlink:href="#DejaVuSans-6e" x="1376.708984"/>
     <use xlink:href="#DejaVuSans-53" x="1440.087891"/>
     <use xlink:href="#DejaVuSans-74" x="1503.564453"/>
     <use xlink:href="#DejaVuSans-72" x="1542.773438"/>
     <use xlink:href="#DejaVuSans-65" x="1581.636719"/>
     <use xlink:href="#DejaVuSans-65" x="1643.160156"/>
     <use xlink:href="#DejaVuSans-74" x="1704.683594"/>
     <use xlink:href="#DejaVuSans-4d" x="1743.892578"/>
     <use xlink:href="#DejaVuSans-61" x="1830.171875"/>
     <use xlink:href="#DejaVuSans-70" x="1891.451172"/>
     <use xlink:href="#DejaVuSans-20" x="1954.927734"/>
     <use xlink:href="#DejaVuSans-64" x="1986.714844"/>
     <use xlink:href="#DejaVuSans-61" x="2050.191406"/>
     <use xlink:href="#DejaVuSans-74" x="2111.470703"/>
     <use xlink:href="#DejaVuSans-61" x="2150.679688"/>
     <use xlink:href="#DejaVuSans-62" x="2211.958984"/>
     <use xlink:href="#DejaVuSans-61" x="2275.435547"/>
     <use xlink:href="#DejaVuSans-73" x="2336.714844"/>
     <use xlink:href="#DejaVuSans-65" x="2388.814453"/>
     <use xlink:href="#DejaVuSans-20" x="2450.337891"/>
     <use xlink:href="#DejaVuSans-69" x="2482.125"/>
     <use xlink:href="#DejaVuSans-6e" x="2509.908203"/>
     <use xlink:href="#DejaVuSans-20" x="2573.287109"/>
     <use xlink:href="#DejaVuSans-50" x="2605.074219"/>
     <use xlink:href="#DejaVuSans-6f" x="2661.751953"/>
     <use xlink:href="#DejaVuSans-6c" x="2722.933594"/>
     <use xlink:href="#DejaVuSans-61" x="2750.716797"/>
     <use xlink:href="#DejaVuSans-6e" x="2811.996094"/>
     <use xlink:href="#DejaVuSans-64" x="2875.375"/>
     <use xlink:href="#DejaVuSans-20" x="2938.851562"/>
     <use xlink:href="#DejaVuSans-66" x="2970.638672"/>
     <use xlink:href="#DejaVuSans-72" x="3005.84375"/>
     <use xlink:href="#DejaVuSans-6f" x="3044.707031"/>
     <use xlink:href="#DejaVuSans-6d" x="3105.888672"/>
     <use xlink:href="#DejaVuSans-20" x="3203.300781"/>
     <use xlink:href="#DejaVuSans-66" x="3235.087891"/>
     <use xlink:href="#DejaVuSans-69" x="3270.292969"/>
     <use xlink:href="#DejaVuSans-72" x="3298.076172"/>
     <use xlink:href="#DejaVuSans-73" x="3339.189453"/>
     <use xlink:href="#DejaVuSans-74" x="3391.289062"/>
     <use xlink:href="#DejaVuSans-20" x="3430.498047"/>
     <use xlink:href="#DejaVuSans-65" x="3462.285156"/>
     <use xlink:href="#DejaVuSans-64" x="3523.808594"/>
     <use xlink:href="#DejaVuSans-69" x="3587.285156"/>
     <use xlink:href="#DejaVuSans-74" x="3615.068359"/>
     <use xlink:href="#DejaVuSans-69" x="3654.277344"/>
     <use xlink:href="#DejaVuSans-6f" x="3682.060547"/>
     <use xlink:href="#DejaVuSans-6e" x="3743.242188"/>
     <use xlink:href="#DejaVuSans-2c" x="3806.621094"/>
     <use xlink:href="#DejaVuSans-20" x="3838.408203"/>
     <use xlink:href="#DejaVuSans-64" x="3870.195312"/>
     <use xlink:href="#DejaVuSans-61" x="3933.671875"/>
     <use xlink:href="#DejaVuSans-79" x="3994.951172"/>
     <use xlink:href="#DejaVuSans-20" x="4054.130859"/>
     <use xlink:href="#DejaVuSans-62" x="4085.917969"/>
     <use xlink:href="#DejaVuSans-79" x="4149.394531"/>
     <use xlink:href="#DejaVuSans-20" x="4208.574219"/>
     <use xlink:href="#DejaVuSans-64" x="4240.361328"/>
     <use xlink:href="#DejaVuSans-61" x="4303.837891"/>
     <use xlink:href="#DejaVuSans-79" x="4365.117188"/>
     <use xlink:href="#DejaVuSans-2e" x="4410.046875"/>
     <use xlink:href="#DejaVuSans-20" x="4441.833984"/>
     <use xlink:href="#DejaVuSans-41" x="4473.621094"/>
     <use xlink:href="#DejaVuSans-73" x="4542.029297"/>
     <use xlink:href="#DejaVuSans-20" x="4594.128906"/>
     <use xlink:href="#DejaVuSans-61" x="4625.916016"/>
     <use xlink:href="#DejaVuSans-74" x="4687.195312"/>
     <use xlink:href="#DejaVuSans-3a" x="4726.404297"/>
     <use xlink:href="#DejaVuSans-20" x="4760.095703"/>
     <use xlink:href="#DejaVuSans-32" x="4791.882812"/>
     <use xlink:href="#DejaVuSans-30" x="4855.505859"/>
     <use xlink:href="#DejaVuSans-32" x="4919.128906"/>
     <use xlink:href="#DejaVuSans-36" x="4982.751953"/>
     <use xlink:href="#DejaVuSans-2d" x="5046.375"/>
     <use xlink:href="#DejaVuSans-30" x="5082.458984"/>
     <use xlink:href="#DejaVuSans-34" x="5146.082031"/>
     <use xlink:href="#DejaVuSans-2d" x="5209.705078"/>
     <use xlink:href="#DejaVuSans-30" x="5245.789062"/>
     <use xlink:href="#DejaVuSans-32" x="5309.412109"/>
    </g>
   </g>
  </g>
 </g>
 <defs>
  <clipPath id="pec27644a08">
   <rect x="144" y="69.12" width="892.8" height="443.52"/>
  </clipPath>
 </defs>
</svg>
