<?xml version="1.0" encoding="utf-8" standalone="no"?>
<!DOCTYPE svg PUBLIC "-//W3C//DTD SVG 1.1//EN"
  "http://www.w3.org/Graphics/SVG/1.1/DTD/svg11.dtd">
<svg xmlns:xlink="http://www.w3.org/1999/xlink" width="1152pt" height="576pt" viewBox="0 0 1152 576" xmlns="http://www.w3.org/2000/svg" version="1.1">
 <metadata>
  <rdf:RDF xmlns:dc="http://purl.org/dc/elements/1.1/" xmlns:cc="http://creativecommons.org/ns#" xmlns:rdf="http://www.w3.org/1999/02/22-rdf-syntax-ns#">
   <cc:Work>
    <dc:type rdf:resource="http://purl.org/dc/dcmitype/StillImage"/>
    <dc:date>1980-01-01T00:00:00+00:00</dc:date>
    <dc:format>image/svg+xml</dc:format>
    <dc:creator>
     <cc:Agent>
      <dc:title>Matplotlib v3.9.1, https://matplotlib.org/</dc:title>
     </cc:Agent>
    </dc:creator>
   </cc:Work>
  </rdf:RDF>
 </metadata>
 <defs>
  <style type="text/css">*{stroke-linejoin: round; stroke-linecap: butt}</style>
 </defs>
 <g id="figure_1">
  <g id="patch_1">
   <path d="M 0 576 
L 1152 576 
L 1152 0 
L 0 0 
z
" style="fill: #ffffff"/>
  </g>
  <g id="axes_1">
   <g id="patch_2">
    <path d="M 144 512.64 
L 1036.8 512.64 
L 1036.8 69.12 
L 144 69.12 
z
" style="fill: #ffffff"/>
   </g>
   <g id="matplotlib.axis_1">
    <g id="xtick_1">
     <g id="line2d_1">
      <defs>
       <path id="m5d9753c26d" d="M 0 0 
L 0 3.5 
" style="stroke: #000000; stroke-width: 0.8"/>
      </defs>
      <g>
       <use xlink:href="#m5d9753c26d" x="177.226708" y="512.64" style="stroke: #000000; stroke-width: 0.8"/>
      </g>
     </g>
     <g id="text_1">
      <!-- 2014 -->
      <g transform="translate(164.501708 527.238438) scale(0.1 -0.1)">
       <defs>
        <path id="DejaVuSans-32" d="M 1228 531 
L 3431 531 
L 3431 0 
L 469 0 
L 469 531 
Q 828 903 1448 1529 
Q 2069 2156 2228 2338 
Q 2531 2678 2651 2914 
Q 2772 3150 2772 3378 
Q 2772 3750 2511 3984 
Q 2250 4219 1831 4219 
Q 1534 4219 1204 4116 
Q 875 4013 500 3803 
L 500 4441 
Q 881 4594 1212 4672 
Q 1544 4750 1819 4750 
Q 2544 4750 2975 4387 
Q 3406 4025 3406 3419 
Q 3406 3131 3298 2873 
Q 3191 2616 2906 2266 
Q 2828 2175 2409 1742 
Q 1991 1309 1228 531 
z
" transform="scale(0.015625)"/>
        <path id="DejaVuSans-30" d="M 2034 4250 
Q 1547 4250 1301 3770 
Q 1056 3291 1056 2328 
Q 1056 1369 1301 889 
Q 1547 409 2034 409 
Q 2525 409 2770 889 
Q 3016 1369 3016 2328 
Q 3016 3291 2770 3770 
Q 2525 4250 2034 4250 
z
M 2034 4750 
Q 2819 4750 3233 4129 
Q 3647 3509 3647 2328 
Q 3647 1150 3233 529 
Q 2819 -91 2034 -91 
Q 1250 -91 836 529 
Q 422 1150 422 2328 
Q 422 3509 836 4129 
Q 1250 4750 2034 4750 
z
" transform="scale(0.015625)"/>
        <path id="DejaVuSans-31" d="M 794 531 
L 1825 531 
L 1825 4091 
L 703 3866 
L 703 4441 
L 1819 4666 
L 2450 4666 
L 2450 531 
L 3481 531 
L 3481 0 
L 794 0 
L 794 531 
z
" transform="scale(0.015625)"/>
        <path id="DejaVuSans-34" d="M 2419 4116 
L 825 1625 
L 2419 1625 
L 2419 4116 
z
M 2253 4666 
L 3047 4666 
L 3047 1625 
L 3713 1625 
L 3713 1100 
L 3047 1100 
L 3047 0 
L 2419 0 
L 2419 1100 
L 313 1100 
L 313 1709 
L 2253 4666 
z
" transform="scale(0.015625)"/>
       </defs>
       <use xlink:href="#DejaVuSans-32"/>
       <use xlink:href="#DejaVuSans-30" x="63.623047"/>
       <use xlink:href="#DejaVuSans-31" x="127.246094"/>
       <use xlink:href="#DejaVuSans-34" x="190.869141"/>
      </g>
     </g>
    </g>
    <g id="xtick_2">
     <g id="line2d_2">
      <g>
       <use xlink:href="#m5d9753c26d" x="311.457462" y="512.64" style="stroke: #000000; stroke-width: 0.8"/>
      </g>
     </g>
     <g id="text_2">
      <!-- 2016 -->
      <g transform="translate(298.732462 527.238438) scale(0.1 -0.1)">
       <defs>
        <path id="DejaVuSans-36" d="M 2113 2584 
Q 1688 2584 1439 2293 
Q 1191 2003 1191 1497 
Q 1191 994 1439 701 
Q 1688 409 2113 409 
Q 2538 409 2786 701 
Q 3034 994 3034 1497 
Q 3034 2003 2786 2293 
Q 2538 2584 2113 2584 
z
M 3366 4563 
L 3366 3988 
Q 3128 4100 2886 4159 
Q 2644 4219 2406 4219 
Q 1781 4219 1451 3797 
Q 1122 3375 1075 2522 
Q 1259 2794 1537 2939 
Q 1816 3084 2150 3084 
Q 2853 3084 3261 2657 
Q 3669 2231 3669 1497 
Q 3669 778 3244 343 
Q 2819 -91 2113 -91 
Q 1303 -91 875 529 
Q 447 1150 447 2328 
Q 447 3434 972 4092 
Q 1497 4750 2381 4750 
Q 2619 4750 2861 4703 
Q 3103 4656 3366 4563 
z
" transform="scale(0.015625)"/>
       </defs>
       <use xlink:href="#DejaVuSans-32"/>
       <use xlink:href="#DejaVuSans-30" x="63.623047"/>
       <use xlink:href="#DejaVuSans-31" x="127.246094"/>
       <use xlink:href="#DejaVuSans-36" x="190.869141"/>
      </g>
     </g>
    </g>
    <g id="xtick_3">
     <g id="line2d_3">
      <g>
       <use xlink:href="#m5d9753c26d" x="445.872093" y="512.64" style="stroke: #000000; stroke-width: 0.8"/>
      </g>
     </g>
     <g id="text_3">
      <!-- 2018 -->
      <g transform="translate(433.147093 527.238438) scale(0.1 -0.1)">
       <defs>
        <path id="DejaVuSans-38" d="M 2034 2216 
Q 1584 2216 1326 1975 
Q 1069 1734 1069 1313 
Q 1069 891 1326 650 
Q 1584 409 2034 409 
Q 2484 409 2743 651 
Q 3003 894 3003 1313 
Q 3003 1734 2745 1975 
Q 2488 2216 2034 2216 
z
M 1403 2484 
Q 997 2584 770 2862 
Q 544 3141 544 3541 
Q 544 4100 942 4425 
Q 1341 4750 2034 4750 
Q 2731 4750 3128 4425 
Q 3525 4100 3525 3541 
Q 3525 3141 3298 2862 
Q 3072 2584 2669 2484 
Q 3125 2378 3379 2068 
Q 3634 1759 3634 1313 
Q 3634 634 3220 271 
Q 2806 -91 2034 -91 
Q 1263 -91 848 271 
Q 434 634 434 1313 
Q 434 1759 690 2068 
Q 947 2378 1403 2484 
z
M 1172 3481 
Q 1172 3119 1398 2916 
Q 1625 2713 2034 2713 
Q 2441 2713 2670 2916 
Q 2900 3119 2900 3481 
Q 2900 3844 2670 4047 
Q 2441 4250 2034 4250 
Q 1625 4250 1398 4047 
Q 1172 3844 1172 3481 
z
" transform="scale(0.015625)"/>
       </defs>
       <use xlink:href="#DejaVuSans-32"/>
       <use xlink:href="#DejaVuSans-30" x="63.623047"/>
       <use xlink:href="#DejaVuSans-31" x="127.246094"/>
       <use xlink:href="#DejaVuSans-38" x="190.869141"/>
      </g>
     </g>
    </g>
    <g id="xtick_4">
     <g id="line2d_4">
      <g>
       <use xlink:href="#m5d9753c26d" x="580.102846" y="512.64" style="stroke: #000000; stroke-width: 0.8"/>
      </g>
     </g>
     <g id="text_4">
      <!-- 2020 -->
      <g transform="translate(567.377846 527.238438) scale(0.1 -0.1)">
       <use xlink:href="#DejaVuSans-32"/>
       <use xlink:href="#DejaVuSans-30" x="63.623047"/>
       <use xlink:href="#DejaVuSans-32" x="127.246094"/>
       <use xlink:href="#DejaVuSans-30" x="190.869141"/>
      </g>
     </g>
    </g>
    <g id="xtick_5">
     <g id="line2d_5">
      <g>
       <use xlink:href="#m5d9753c26d" x="714.517477" y="512.64" style="stroke: #000000; stroke-width: 0.8"/>
      </g>
     </g>
     <g id="text_5">
      <!-- 2022 -->
      <g transform="translate(701.792477 527.238438) scale(0.1 -0.1)">
       <use xlink:href="#DejaVuSans-32"/>
       <use xlink:href="#DejaVuSans-30" x="63.623047"/>
       <use xlink:href="#DejaVuSans-32" x="127.246094"/>
       <use xlink:href="#DejaVuSans-32" x="190.869141"/>
      </g>
     </g>
    </g>
    <g id="xtick_6">
     <g id="line2d_6">
      <g>
       <use xlink:href="#m5d9753c26d" x="848.748231" y="512.64" style="stroke: #000000; stroke-width: 0.8"/>
      </g>
     </g>
     <g id="text_6">
      <!-- 2024 -->
      <g transform="translate(836.023231 527.238438) scale(0.1 -0.1)">
       <use xlink:href="#DejaVuSans-32"/>
       <use xlink:href="#DejaVuSans-30" x="63.623047"/>
       <use xlink:href="#DejaVuSans-32" x="127.246094"/>
       <use xlink:href="#DejaVuSans-34" x="190.869141"/>
      </g>
     </g>
    </g>
    <g id="xtick_7">
     <g id="line2d_7">
      <g>
       <use xlink:href="#m5d9753c26d" x="983.162862" y="512.64" style="stroke: #000000; stroke-width: 0.8"/>
      </g>
     </g>
     <g id="text_7">
      <!-- 2026 -->
      <g transform="translate(970.437862 527.238438) scale(0.1 -0.1)">
       <use xlink:href="#DejaVuSans-32"/>
       <use xlink:href="#DejaVuSans-30" x="63.623047"/>
       <use xlink:href="#DejaVuSans-32" x="127.246094"/>
       <use xlink:href="#DejaVuSans-36" x="190.869141"/>
      </g>
     </g>
    </g>
   </g>
   <g id="matplotlib.axis_2">
    <g id="ytick_1">
     <g id="line2d_8">
      <defs>
       <path id="m59874acd20" d="M 0 0 
L -3.5 0 
" style="stroke: #000000; stroke-width: 0.8"/>
      </defs>
      <g>
       <use xlink:href="#m59874acd20" x="144" y="492.507434" style="stroke: #000000; stroke-width: 0.8"/>
      </g>
     </g>
     <g id="text_8">
      <!-- 0 -->
      <g transform="translate(130.6375 496.306653) scale(0.1 -0.1)">
       <use xlink:href="#DejaVuSans-30"/>
      </g>
     </g>
    </g>
    <g id="ytick_2">
     <g id="line2d_9">
      <g>
       <use xlink:href="#m59874acd20" x="144" y="437.639094" style="stroke: #000000; stroke-width: 0.8"/>
      </g>
     </g>
     <g id="text_9">
      <!-- 2000 -->
      <g transform="translate(111.55 441.438312) scale(0.1 -0.1)">
       <use xlink:href="#DejaVuSans-32"/>
       <use xlink:href="#DejaVuSans-30" x="63.623047"/>
       <use xlink:href="#DejaVuSans-30" x="127.246094"/>
       <use xlink:href="#DejaVuSans-30" x="190.869141"/>
      </g>
     </g>
    </g>
    <g id="ytick_3">
     <g id="line2d_10">
      <g>
       <use xlink:href="#m59874acd20" x="144" y="382.770753" style="stroke: #000000; stroke-width: 0.8"/>
      </g>
     </g>
     <g id="text_10">
      <!-- 4000 -->
      <g transform="translate(111.55 386.569972) scale(0.1 -0.1)">
       <use xlink:href="#DejaVuSans-34"/>
       <use xlink:href="#DejaVuSans-30" x="63.623047"/>
       <use xlink:href="#DejaVuSans-30" x="127.246094"/>
       <use xlink:href="#DejaVuSans-30" x="190.869141"/>
      </g>
     </g>
    </g>
    <g id="ytick_4">
     <g id="line2d_11">
      <g>
       <use xlink:href="#m59874acd20" x="144" y="327.902413" style="stroke: #000000; stroke-width: 0.8"/>
      </g>
     </g>
     <g id="text_11">
      <!-- 6000 -->
      <g transform="translate(111.55 331.701631) scale(0.1 -0.1)">
       <use xlink:href="#DejaVuSans-36"/>
       <use xlink:href="#DejaVuSans-30" x="63.623047"/>
       <use xlink:href="#DejaVuSans-30" x="127.246094"/>
       <use xlink:href="#DejaVuSans-30" x="190.869141"/>
      </g>
     </g>
    </g>
    <g id="ytick_5">
     <g id="line2d_12">
      <g>
       <use xlink:href="#m59874acd20" x="144" y="273.034072" style="stroke: #000000; stroke-width: 0.8"/>
      </g>
     </g>
     <g id="text_12">
      <!-- 8000 -->
      <g transform="translate(111.55 276.833291) scale(0.1 -0.1)">
       <use xlink:href="#DejaVuSans-38"/>
       <use xlink:href="#DejaVuSans-30" x="63.623047"/>
       <use xlink:href="#DejaVuSans-30" x="127.246094"/>
       <use xlink:href="#DejaVuSans-30" x="190.869141"/>
      </g>
     </g>
    </g>
    <g id="ytick_6">
     <g id="line2d_13">
      <g>
       <use xlink:href="#m59874acd20" x="144" y="218.165732" style="stroke: #000000; stroke-width: 0.8"/>
      </g>
     </g>
     <g id="text_13">
      <!-- 10000 -->
      <g transform="translate(105.1875 221.964951) scale(0.1 -0.1)">
       <use xlink:href="#DejaVuSans-31"/>
       <use xlink:href="#DejaVuSans-30" x="63.623047"/>
       <use xlink:href="#DejaVuSans-30" x="127.246094"/>
       <use xlink:href="#DejaVuSans-30" x="190.869141"/>
       <use xlink:href="#DejaVuSans-30" x="254.492188"/>
      </g>
     </g>
    </g>
    <g id="ytick_7">
     <g id="line2d_14">
      <g>
       <use xlink:href="#m59874acd20" x="144" y="163.297391" style="stroke: #000000; stroke-width: 0.8"/>
      </g>
     </g>
     <g id="text_14">
      <!-- 12000 -->
      <g transform="translate(105.1875 167.09661) scale(0.1 -0.1)">
       <use xlink:href="#DejaVuSans-31"/>
       <use xlink:href="#DejaVuSans-32" x="63.623047"/>
       <use xlink:href="#DejaVuSans-30" x="127.246094"/>
       <use xlink:href="#DejaVuSans-30" x="190.869141"/>
       <use xlink:href="#DejaVuSans-30" x="254.492188"/>
      </g>
     </g>
    </g>
    <g id="ytick_8">
     <g id="line2d_15">
      <g>
       <use xlink:href="#m59874acd20" x="144" y="108.429051" style="stroke: #000000; stroke-width: 0.8"/>
      </g>
     </g>
     <g id="text_15">
      <!-- 14000 -->
      <g transform="translate(105.1875 112.22827) scale(0.1 -0.1)">
       <use xlink:href="#DejaVuSans-31"/>
       <use xlink:href="#DejaVuSans-34" x="63.623047"/>
       <use xlink:href="#DejaVuSans-30" x="127.246094"/>
       <use xlink:href="#DejaVuSans-30" x="190.869141"/>
       <use xlink:href="#DejaVuSans-30" x="254.492188"/>
      </g>
     </g>
    </g>
   </g>
   <g id="line2d_16">
    <path d="M 184.581818 492.48 
L 186.236718 492.425132 
L 285.346822 492.287961 
L 451.756181 492.123356 
L 493.128673 491.958751 
L 586.170812 491.437502 
L 586.538567 491.218028 
L 590.4 491.080857 
L 637.472703 490.916252 
L 641.518013 490.83395 
L 663.031709 490.641911 
L 690.613371 489.956056 
L 697.049092 489.599412 
L 706.610734 489.407373 
L 711.0238 488.419743 
L 711.207678 488.310006 
L 712.862578 488.227704 
L 713.598089 487.843625 
L 713.781966 487.212639 
L 714.149722 487.048034 
L 714.3336 487.0206 
L 714.517477 486.142707 
L 715.620744 485.758628 
L 715.988499 485.292247 
L 716.356255 485.155077 
L 716.540133 484.825867 
L 716.72401 484.085144 
L 717.091766 483.481592 
L 717.275644 482.686001 
L 717.459521 481.177122 
L 718.011155 480.189492 
L 718.37891 475.278775 
L 718.562788 474.757526 
L 718.930543 471.630031 
L 719.114421 471.108781 
L 719.298299 469.737073 
L 719.482177 469.65477 
L 720.03381 467.953852 
L 720.217688 464.085634 
L 720.401565 463.756424 
L 720.769321 462.686491 
L 720.953199 462.604189 
L 721.137076 462.028071 
L 721.320954 459.394391 
L 721.504832 458.763405 
L 721.688709 458.735971 
L 721.872587 456.815579 
L 722.056465 456.568671 
L 722.42422 456.4315 
L 723.159731 454.675713 
L 723.527487 454.12703 
L 724.07912 452.645585 
L 724.446876 448.530459 
L 724.814631 446.582633 
L 725.366264 446.500331 
L 725.73402 446.308291 
L 726.469531 445.265793 
L 726.837286 445.210925 
L 727.205042 443.043625 
L 727.572797 442.87902 
L 727.756675 442.659547 
L 727.940553 441.671917 
L 728.308308 441.397575 
L 728.492186 441.260404 
L 728.676064 440.794023 
L 729.227697 440.629418 
L 729.595452 440.382511 
L 729.963208 439.367446 
L 730.147086 439.285144 
L 730.514841 438.873631 
L 731.250352 438.571855 
L 731.43423 437.639094 
L 731.801985 437.447055 
L 731.985863 435.663833 
L 732.353619 435.608965 
L 732.721374 435.087716 
L 732.905252 434.566467 
L 733.456885 434.45673 
L 733.640763 434.292125 
L 734.008518 433.770876 
L 734.192396 433.743442 
L 734.560152 433.331929 
L 734.927907 433.222192 
L 735.111785 431.987655 
L 736.215051 431.850484 
L 736.582807 431.658445 
L 737.318318 431.576142 
L 737.502195 431.466405 
L 740.076484 430.835419 
L 740.444239 430.615946 
L 741.363628 430.506209 
L 742.099139 430.176999 
L 743.937917 429.847789 
L 744.673428 427.872529 
L 746.328327 427.68049 
L 747.431594 427.488451 
L 749.454249 427.076938 
L 750.18976 426.884899 
L 750.557515 426.830031 
L 750.925271 426.528255 
L 751.293026 426.445952 
L 751.476904 426.281347 
L 752.212415 426.061874 
L 753.131804 426.007006 
L 753.315682 425.814966 
L 753.683437 425.787532 
L 753.867315 425.37602 
L 754.051192 425.321151 
L 754.23507 424.745034 
L 756.993236 424.251219 
L 757.177114 423.922009 
L 758.464258 423.647667 
L 759.015892 423.483062 
L 759.751403 423.345891 
L 760.486914 423.181286 
L 761.59018 422.961813 
L 762.509569 422.687471 
L 763.24508 422.358261 
L 763.428957 421.809577 
L 764.348346 421.23346 
L 764.532224 420.986552 
L 765.451613 420.355566 
L 765.819368 419.779449 
L 766.003246 419.752015 
L 766.371001 419.175897 
L 767.106512 418.462609 
L 767.658146 418.380306 
L 768.025901 418.133399 
L 768.209779 418.051096 
L 768.393657 417.776754 
L 769.313045 417.584715 
L 769.496923 417.337808 
L 771.3357 417.036032 
L 771.519578 416.898861 
L 772.622845 416.706822 
L 773.542233 416.405046 
L 774.277744 416.267875 
L 774.6455 415.801494 
L 775.013255 415.609455 
L 775.932644 415.060772 
L 776.116522 414.429786 
L 777.035911 414.182878 
L 779.242443 413.167814 
L 779.426321 412.893472 
L 779.977954 412.728867 
L 780.897343 412.372223 
L 781.265099 409.546503 
L 781.448976 408.641176 
L 781.632854 406.995126 
L 781.816732 406.803086 
L 782.368365 405.074734 
L 782.919998 404.224274 
L 783.287754 404.004801 
L 783.471632 403.840196 
L 783.655509 403.017171 
L 783.839387 402.770263 
L 784.207143 402.687961 
L 784.758776 402.029541 
L 784.942654 401.535726 
L 785.494287 400.959608 
L 785.678165 400.218885 
L 786.597553 398.929479 
L 787.516942 398.545401 
L 787.70082 397.832113 
L 788.252453 397.585205 
L 788.987964 396.871917 
L 789.171842 396.350667 
L 789.539597 396.186062 
L 789.907353 395.801984 
L 790.275108 395.77455 
L 790.458986 395.500208 
L 790.826741 395.335603 
L 791.378375 394.896656 
L 791.74613 394.704617 
L 791.930008 394.238236 
L 793.217152 393.387777 
L 793.40103 393.305475 
L 793.768785 392.29041 
L 794.320419 392.098371 
L 794.872052 391.9612 
L 795.239807 391.467385 
L 795.607563 391.220478 
L 796.159196 390.452321 
L 797.44634 390.150545 
L 797.997973 389.409822 
L 798.733484 389.272652 
L 799.652873 388.696534 
L 799.836751 388.6691 
L 800.388384 388.285021 
L 800.75614 388.175285 
L 801.123895 388.147851 
L 801.307773 387.983246 
L 801.491651 387.544299 
L 802.227162 387.35226 
L 802.411039 387.105352 
L 802.594917 387.077918 
L 802.778795 386.584103 
L 803.514306 386.36463 
L 803.882061 386.282327 
L 804.249817 386.035419 
L 806.272472 385.322131 
L 806.45635 384.608843 
L 806.824105 384.361935 
L 807.375738 384.19733 
L 807.927372 383.922988 
L 808.662883 383.813252 
L 808.84676 383.072529 
L 809.398394 382.853056 
L 809.582271 382.688451 
L 810.317782 382.55128 
L 810.50166 382.441543 
L 810.869415 382.414109 
L 811.053293 382.194636 
L 811.788804 381.975162 
L 811.972682 381.673386 
L 812.340437 381.645952 
L 812.892071 381.371611 
L 813.259826 381.207006 
L 813.443704 380.877795 
L 814.730848 380.548585 
L 814.914726 380.38398 
L 815.466359 380.24681 
L 815.650237 379.999902 
L 815.834115 379.972468 
L 816.20187 379.752994 
L 816.569626 379.615824 
L 816.753503 379.506087 
L 817.85677 379.286614 
L 818.040648 378.984838 
L 818.592281 378.847667 
L 819.143914 378.765364 
L 819.511669 378.518457 
L 820.063303 378.381286 
L 820.431058 378.271549 
L 820.614936 378.07951 
L 820.982691 378.024642 
L 821.166569 377.558261 
L 821.350447 377.475958 
L 822.269836 376.378592 
L 822.453713 376.296289 
L 822.637591 376.076816 
L 823.005347 375.912211 
L 823.740858 375.418396 
L 824.108613 375.308659 
L 824.292491 375.006883 
L 824.844124 374.732541 
L 825.21188 374.540502 
L 825.763513 374.403331 
L 826.315146 373.991819 
L 826.682902 373.744911 
L 827.050657 373.47057 
L 827.786168 373.004189 
L 829.25719 372.537808 
L 829.992701 372.016558 
L 830.544334 371.769651 
L 832.199234 371.220968 
L 832.566989 371.001494 
L 833.118623 370.864323 
L 833.670256 370.589982 
L 834.221889 370.452811 
L 834.773522 370.233337 
L 835.876789 369.98643 
L 836.428422 369.794391 
L 836.6123 369.520049 
L 839.00271 368.751892 
L 839.370466 368.587287 
L 839.738221 368.532419 
L 840.105977 368.175775 
L 840.289855 367.050974 
L 840.65761 366.776632 
L 841.025366 366.639461 
L 841.760877 365.898739 
L 841.944754 365.789002 
L 842.31251 365.075713 
L 842.680265 364.883674 
L 843.048021 364.719069 
L 843.415776 364.636767 
L 843.783532 364.417293 
L 843.967409 364.307557 
L 844.886798 364.115517 
L 845.254554 363.786307 
L 845.806187 363.402229 
L 846.173942 363.292492 
L 846.541698 362.963282 
L 847.644964 362.277428 
L 848.01272 362.249994 
L 848.196598 362.003086 
L 848.932109 361.838481 
L 849.115986 361.289798 
L 849.483742 361.015456 
L 850.403131 360.768549 
L 850.587008 360.686246 
L 850.770886 360.302168 
L 851.138642 360.192431 
L 851.322519 359.890655 
L 851.874152 359.534011 
L 852.241908 359.369406 
L 852.609663 359.287103 
L 852.977419 359.095064 
L 853.161297 359.06763 
L 853.529052 358.875591 
L 854.264563 358.518947 
L 854.632319 357.887961 
L 856.103341 357.256975 
L 856.287218 356.76316 
L 856.838852 356.598555 
L 857.390485 356.022437 
L 857.574363 355.967569 
L 857.942118 355.720661 
L 858.125996 355.693227 
L 858.493751 355.281715 
L 858.861507 355.089675 
L 859.597018 354.815334 
L 859.780895 354.540992 
L 860.148651 354.486124 
L 860.332529 354.294085 
L 860.516406 354.26665 
L 860.700284 353.717967 
L 861.251917 353.553362 
L 861.435795 353.471059 
L 861.803551 353.141849 
L 861.987428 353.032113 
L 862.539062 352.428561 
L 864.010084 351.63297 
L 864.745595 351.413497 
L 865.11335 351.001984 
L 865.297228 350.947116 
L 866.216617 350.261261 
L 866.76825 350.041788 
L 867.136005 349.877183 
L 867.319883 349.849749 
L 867.503761 349.301066 
L 868.055394 348.971855 
L 868.239272 348.450606 
L 868.607027 348.231133 
L 868.790905 348.01166 
L 868.974783 347.984225 
L 869.710294 347.408108 
L 870.445805 347.133766 
L 870.81356 346.886859 
L 871.916827 346.447912 
L 872.652338 345.652321 
L 873.020093 345.570018 
L 873.387849 345.295677 
L 873.571726 345.103637 
L 873.755604 345.076203 
L 873.939482 344.774427 
L 876.329892 343.622192 
L 876.697648 343.430153 
L 877.249281 343.238114 
L 877.800914 343.100943 
L 879.088059 342.277918 
L 879.455814 342.140747 
L 879.82357 342.03101 
L 880.191325 341.7018 
L 881.662347 341.153117 
L 882.030103 341.04338 
L 882.21398 340.05575 
L 882.765614 339.836277 
L 882.949491 339.589369 
L 883.133369 339.561935 
L 883.86888 338.546871 
L 884.052758 338.464568 
L 884.236635 338.135358 
L 884.604391 338.025622 
L 885.339902 337.147728 
L 885.707657 335.91319 
L 885.891535 335.529112 
L 886.259291 333.60872 
L 886.443168 332.785695 
L 887.362557 331.852933 
L 888.098068 329.411292 
L 888.281946 329.274121 
L 888.465824 328.917477 
L 888.649701 327.628071 
L 888.833579 327.243993 
L 889.017457 327.216558 
L 889.201335 326.613007 
L 889.752968 326.311231 
L 890.304601 325.405903 
L 892.511134 324.253668 
L 893.062767 323.430643 
L 893.430523 323.320906 
L 893.798278 323.183735 
L 894.166034 322.991696 
L 894.533789 322.827091 
L 895.637056 322.55275 
L 896.9242 322.113803 
L 897.475833 321.619988 
L 898.027466 321.345646 
L 898.395222 321.153607 
L 898.5791 320.906699 
L 899.314611 320.659792 
L 899.498488 320.577489 
L 899.682366 319.973938 
L 900.233999 319.617293 
L 900.785632 319.425254 
L 900.96951 319.233215 
L 901.521143 319.041176 
L 902.808288 318.465058 
L 903.359921 317.971243 
L 903.543799 317.587165 
L 903.911554 317.449994 
L 904.463187 316.544666 
L 904.647065 316.023417 
L 905.014821 315.803944 
L 905.566454 315.474734 
L 905.750332 315.227826 
L 906.118087 314.157893 
L 906.301965 313.93842 
L 906.485843 313.362303 
L 906.66972 313.307434 
L 906.853598 312.841053 
L 907.221354 312.676448 
L 908.32462 311.825989 
L 908.508498 311.441911 
L 909.060131 311.249871 
L 910.163397 310.838359 
L 910.347275 310.810925 
L 910.531153 310.234807 
L 911.082786 310.015334 
L 912.737686 309.247177 
L 914.02483 308.341849 
L 914.208708 308.094942 
L 914.392586 307.601127 
L 915.495852 307.189614 
L 915.863608 306.778102 
L 916.231363 306.695799 
L 916.415241 306.366589 
L 916.782996 306.229418 
L 916.966874 305.955077 
L 918.989529 304.940012 
L 920.092796 303.842645 
L 920.276673 303.293962 
L 920.644429 302.827581 
L 920.828307 302.525805 
L 921.563818 299.316007 
L 921.931573 298.657587 
L 922.115451 298.328377 
L 922.299329 296.874366 
L 922.667084 293.006148 
L 922.850962 291.387532 
L 923.03484 291.030888 
L 923.402595 289.13793 
L 923.770351 286.449382 
L 924.138106 282.718334 
L 924.505862 282.251953 
L 924.873617 277.478408 
L 925.057495 276.216436 
L 925.42525 270.976509 
L 925.793006 269.961445 
L 925.976883 267.218028 
L 926.160761 266.724213 
L 926.528517 263.733889 
L 926.896272 255.668242 
L 927.08015 255.25673 
L 927.264028 254.488573 
L 927.447905 252.019498 
L 927.631783 251.827459 
L 927.999539 247.684899 
L 928.367294 247.49286 
L 928.73505 246.724703 
L 928.918927 246.560098 
L 929.102805 246.17602 
L 929.286683 245.407863 
L 929.654438 245.243258 
L 930.206072 243.789247 
L 930.573827 241.70425 
L 930.757705 241.320171 
L 930.941583 241.265303 
L 931.12546 241.073264 
L 931.493216 240.552015 
L 931.677094 239.701555 
L 931.860971 239.509516 
L 932.044849 239.152872 
L 932.228727 239.098004 
L 932.596482 238.604189 
L 932.964238 238.467018 
L 933.148116 238.055505 
L 934.067504 237.23248 
L 934.619137 236.793533 
L 934.803015 236.766099 
L 935.354648 236.272284 
L 936.090159 235.860772 
L 936.82567 235.723601 
L 937.009548 235.558996 
L 937.377304 235.504127 
L 937.928937 235.147483 
L 939.399959 234.516497 
L 939.583837 234.132419 
L 940.503225 233.912945 
L 941.238736 233.391696 
L 941.974247 232.705842 
L 942.158125 232.541237 
L 942.893636 232.321764 
L 944.18078 231.498739 
L 944.548536 231.306699 
L 944.732413 230.675713 
L 946.019558 229.825254 
L 946.571191 229.46861 
L 948.409968 228.727887 
L 948.777724 227.932296 
L 948.961602 227.849994 
L 949.329357 227.411047 
L 950.064868 226.780061 
L 950.248746 226.697759 
L 950.800379 226.039339 
L 950.984257 225.490655 
L 951.168134 225.353484 
L 951.53589 225.298616 
L 951.903645 225.024274 
L 952.639156 224.695064 
L 953.374667 224.365854 
L 953.742423 223.926908 
L 953.926301 223.899473 
L 954.110178 220.71711 
L 954.477934 220.278163 
L 954.845689 219.976387 
L 955.029567 219.647177 
L 955.213445 219.619743 
L 955.5812 219.263099 
L 955.765078 218.741849 
L 956.868345 217.699351 
L 957.052222 217.425009 
L 957.419978 215.888696 
L 957.603856 215.394881 
L 957.787733 214.571855 
L 957.971611 214.324948 
L 958.155489 213.282449 
L 958.523244 212.43199 
L 958.707122 211.77357 
L 959.442633 211.005413 
L 959.994266 210.374427 
L 960.362022 210.182388 
L 960.729777 210.045217 
L 961.649166 209.112456 
L 961.833044 208.728377 
L 962.016921 208.673509 
L 962.384677 208.316865 
L 962.568555 208.15226 
L 962.93631 207.49384 
L 963.304066 207.109761 
L 963.487943 206.204434 
L 964.775088 205.381408 
L 965.878354 204.037134 
L 966.062232 203.845095 
L 966.429987 202.967201 
L 966.613865 202.802596 
L 967.165498 201.650361 
L 967.349376 201.568059 
L 967.533254 201.074244 
L 967.717131 200.909639 
L 968.268765 199.428194 
L 968.820398 198.632603 
L 969.372031 198.330827 
L 969.739787 197.699841 
L 970.475298 197.013987 
L 970.843053 195.944054 
L 971.578564 193.886491 
L 971.762442 192.459914 
L 971.94632 192.240441 
L 972.130197 191.033337 
L 972.497953 190.539522 
L 972.681831 190.100576 
L 973.049586 188.015579 
L 973.417342 187.219988 
L 973.601219 187.055383 
L 973.785097 180.087103 
L 973.968975 177.453423 
L 974.152852 161.733644 
L 974.704486 160.663711 
L 974.888363 160.499106 
L 975.256119 159.2097 
L 975.623874 158.331806 
L 976.727141 151.747606 
L 977.278774 150.430765 
L 977.462652 148.867018 
L 977.830407 148.2909 
L 978.198163 147.001494 
L 978.382041 145.410312 
L 978.565918 145.026234 
L 978.933674 143.928867 
L 979.485307 143.078408 
L 979.669185 142.996105 
L 980.588574 139.676571 
L 981.140207 138.22256 
L 981.507962 136.302168 
L 981.69184 136.247299 
L 981.875718 136.05526 
L 982.059596 136.027826 
L 982.427351 135.643748 
L 982.611229 134.957893 
L 983.34674 133.887961 
L 983.714495 132.818028 
L 983.898373 132.680857 
L 984.266128 131.802964 
L 984.633884 130.184348 
L 984.817762 129.93744 
L 985.001639 129.882572 
L 985.369395 128.126785 
L 985.553273 127.770141 
L 986.104906 125.602841 
L 986.288784 125.301066 
L 987.575928 120.554954 
L 987.759806 120.445217 
L 988.495317 116.467263 
L 988.679194 116.357526 
L 988.863072 116.05575 
L 990.334094 111.693717 
L 990.701849 110.212272 
L 991.253483 109.087471 
L 991.805116 106.508659 
L 992.724505 103.573203 
L 993.276138 100.994391 
L 993.643893 98.772223 
L 994.011649 97.894329 
L 994.74716 95.315517 
L 995.114915 94.190716 
L 995.298793 93.834072 
L 995.482671 91.995983 
L 995.666549 91.474734 
L 996.034304 89.362303 
L 996.218182 89.28 
L 996.218182 89.28 
" clip-path="url(#p7896dcb0f2)" style="fill: none; stroke: #1f77b4; stroke-width: 1.5; stroke-linecap: square"/>
   </g>
   <g id="patch_3">
    <path d="M 144 512.64 
L 144 69.12 
" style="fill: none; stroke: #000000; stroke-width: 0.8; stroke-linejoin: miter; stroke-linecap: square"/>
   </g>
   <g id="patch_4">
    <path d="M 1036.8 512.64 
L 1036.8 69.12 
" style="fill: none; stroke: #000000; stroke-width: 0.8; stroke-linejoin: miter; stroke-linecap: square"/>
   </g>
   <g id="patch_5">
    <path d="M 144 512.64 
L 1036.8 512.64 
" style="fill: none; stroke: #000000; stroke-width: 0.8; stroke-linejoin: miter; stroke-linecap: square"/>
   </g>
   <g id="patch_6">
    <path d="M 144 69.12 
L 1036.8 69.12 
" style="fill: none; stroke: #000000; stroke-width: 0.8; stroke-linejoin: miter; stroke-linecap: square"/>
   </g>
   <g id="text_16">
    <!-- Number of AEDs in the OpenStreetMap database in Poland from first edition, day by day. As at: 2026-03-13 -->
    <g transform="translate(144 63.12) scale(0.14 -0.14)">
     <defs>
      <path id="DejaVuSans-4e" d="M 628 4666 
L 1478 4666 
L 3547 763 
L 3547 4666 
L 4159 4666 
L 4159 0 
L 3309 0 
L 1241 3903 
L 1241 0 
L 628 0 
L 628 4666 
z
" transform="scale(0.015625)"/>
      <path id="DejaVuSans-75" d="M 544 1381 
L 544 3500 
L 1119 3500 
L 1119 1403 
Q 1119 906 1312 657 
Q 1506 409 1894 409 
Q 2359 409 2629 706 
Q 2900 1003 2900 1516 
L 2900 3500 
L 3475 3500 
L 3475 0 
L 2900 0 
L 2900 538 
Q 2691 219 2414 64 
Q 2138 -91 1772 -91 
Q 1169 -91 856 284 
Q 544 659 544 1381 
z
M 1991 3584 
L 1991 3584 
z
" transform="scale(0.015625)"/>
      <path id="DejaVuSans-6d" d="M 3328 2828 
Q 3544 3216 3844 3400 
Q 4144 3584 4550 3584 
Q 5097 3584 5394 3201 
Q 5691 2819 5691 2113 
L 5691 0 
L 5113 0 
L 5113 2094 
Q 5113 2597 4934 2840 
Q 4756 3084 4391 3084 
Q 3944 3084 3684 2787 
Q 3425 2491 3425 1978 
L 3425 0 
L 2847 0 
L 2847 2094 
Q 2847 2600 2669 2842 
Q 2491 3084 2119 3084 
Q 1678 3084 1418 2786 
Q 1159 2488 1159 1978 
L 1159 0 
L 581 0 
L 581 3500 
L 1159 3500 
L 1159 2956 
Q 1356 3278 1631 3431 
Q 1906 3584 2284 3584 
Q 2666 3584 2933 3390 
Q 3200 3197 3328 2828 
z
" transform="scale(0.015625)"/>
      <path id="DejaVuSans-62" d="M 3116 1747 
Q 3116 2381 2855 2742 
Q 2594 3103 2138 3103 
Q 1681 3103 1420 2742 
Q 1159 2381 1159 1747 
Q 1159 1113 1420 752 
Q 1681 391 2138 391 
Q 2594 391 2855 752 
Q 3116 1113 3116 1747 
z
M 1159 2969 
Q 1341 3281 1617 3432 
Q 1894 3584 2278 3584 
Q 2916 3584 3314 3078 
Q 3713 2572 3713 1747 
Q 3713 922 3314 415 
Q 2916 -91 2278 -91 
Q 1894 -91 1617 61 
Q 1341 213 1159 525 
L 1159 0 
L 581 0 
L 581 4863 
L 1159 4863 
L 1159 2969 
z
" transform="scale(0.015625)"/>
      <path id="DejaVuSans-65" d="M 3597 1894 
L 3597 1613 
L 953 1613 
Q 991 1019 1311 708 
Q 1631 397 2203 397 
Q 2534 397 2845 478 
Q 3156 559 3463 722 
L 3463 178 
Q 3153 47 2828 -22 
Q 2503 -91 2169 -91 
Q 1331 -91 842 396 
Q 353 884 353 1716 
Q 353 2575 817 3079 
Q 1281 3584 2069 3584 
Q 2775 3584 3186 3129 
Q 3597 2675 3597 1894 
z
M 3022 2063 
Q 3016 2534 2758 2815 
Q 2500 3097 2075 3097 
Q 1594 3097 1305 2825 
Q 1016 2553 972 2059 
L 3022 2063 
z
" transform="scale(0.015625)"/>
      <path id="DejaVuSans-72" d="M 2631 2963 
Q 2534 3019 2420 3045 
Q 2306 3072 2169 3072 
Q 1681 3072 1420 2755 
Q 1159 2438 1159 1844 
L 1159 0 
L 581 0 
L 581 3500 
L 1159 3500 
L 1159 2956 
Q 1341 3275 1631 3429 
Q 1922 3584 2338 3584 
Q 2397 3584 2469 3576 
Q 2541 3569 2628 3553 
L 2631 2963 
z
" transform="scale(0.015625)"/>
      <path id="DejaVuSans-20" transform="scale(0.015625)"/>
      <path id="DejaVuSans-6f" d="M 1959 3097 
Q 1497 3097 1228 2736 
Q 959 2375 959 1747 
Q 959 1119 1226 758 
Q 1494 397 1959 397 
Q 2419 397 2687 759 
Q 2956 1122 2956 1747 
Q 2956 2369 2687 2733 
Q 2419 3097 1959 3097 
z
M 1959 3584 
Q 2709 3584 3137 3096 
Q 3566 2609 3566 1747 
Q 3566 888 3137 398 
Q 2709 -91 1959 -91 
Q 1206 -91 779 398 
Q 353 888 353 1747 
Q 353 2609 779 3096 
Q 1206 3584 1959 3584 
z
" transform="scale(0.015625)"/>
      <path id="DejaVuSans-66" d="M 2375 4863 
L 2375 4384 
L 1825 4384 
Q 1516 4384 1395 4259 
Q 1275 4134 1275 3809 
L 1275 3500 
L 2222 3500 
L 2222 3053 
L 1275 3053 
L 1275 0 
L 697 0 
L 697 3053 
L 147 3053 
L 147 3500 
L 697 3500 
L 697 3744 
Q 697 4328 969 4595 
Q 1241 4863 1831 4863 
L 2375 4863 
z
" transform="scale(0.015625)"/>
      <path id="DejaVuSans-41" d="M 2188 4044 
L 1331 1722 
L 3047 1722 
L 2188 4044 
z
M 1831 4666 
L 2547 4666 
L 4325 0 
L 3669 0 
L 3244 1197 
L 1141 1197 
L 716 0 
L 50 0 
L 1831 4666 
z
" transform="scale(0.015625)"/>
      <path id="DejaVuSans-45" d="M 628 4666 
L 3578 4666 
L 3578 4134 
L 1259 4134 
L 1259 2753 
L 3481 2753 
L 3481 2222 
L 1259 2222 
L 1259 531 
L 3634 531 
L 3634 0 
L 628 0 
L 628 4666 
z
" transform="scale(0.015625)"/>
      <path id="DejaVuSans-44" d="M 1259 4147 
L 1259 519 
L 2022 519 
Q 2988 519 3436 956 
Q 3884 1394 3884 2338 
Q 3884 3275 3436 3711 
Q 2988 4147 2022 4147 
L 1259 4147 
z
M 628 4666 
L 1925 4666 
Q 3281 4666 3915 4102 
Q 4550 3538 4550 2338 
Q 4550 1131 3912 565 
Q 3275 0 1925 0 
L 628 0 
L 628 4666 
z
" transform="scale(0.015625)"/>
      <path id="DejaVuSans-73" d="M 2834 3397 
L 2834 2853 
Q 2591 2978 2328 3040 
Q 2066 3103 1784 3103 
Q 1356 3103 1142 2972 
Q 928 2841 928 2578 
Q 928 2378 1081 2264 
Q 1234 2150 1697 2047 
L 1894 2003 
Q 2506 1872 2764 1633 
Q 3022 1394 3022 966 
Q 3022 478 2636 193 
Q 2250 -91 1575 -91 
Q 1294 -91 989 -36 
Q 684 19 347 128 
L 347 722 
Q 666 556 975 473 
Q 1284 391 1588 391 
Q 1994 391 2212 530 
Q 2431 669 2431 922 
Q 2431 1156 2273 1281 
Q 2116 1406 1581 1522 
L 1381 1569 
Q 847 1681 609 1914 
Q 372 2147 372 2553 
Q 372 3047 722 3315 
Q 1072 3584 1716 3584 
Q 2034 3584 2315 3537 
Q 2597 3491 2834 3397 
z
" transform="scale(0.015625)"/>
      <path id="DejaVuSans-69" d="M 603 3500 
L 1178 3500 
L 1178 0 
L 603 0 
L 603 3500 
z
M 603 4863 
L 1178 4863 
L 1178 4134 
L 603 4134 
L 603 4863 
z
" transform="scale(0.015625)"/>
      <path id="DejaVuSans-6e" d="M 3513 2113 
L 3513 0 
L 2938 0 
L 2938 2094 
Q 2938 2591 2744 2837 
Q 2550 3084 2163 3084 
Q 1697 3084 1428 2787 
Q 1159 2491 1159 1978 
L 1159 0 
L 581 0 
L 581 3500 
L 1159 3500 
L 1159 2956 
Q 1366 3272 1645 3428 
Q 1925 3584 2291 3584 
Q 2894 3584 3203 3211 
Q 3513 2838 3513 2113 
z
" transform="scale(0.015625)"/>
      <path id="DejaVuSans-74" d="M 1172 4494 
L 1172 3500 
L 2356 3500 
L 2356 3053 
L 1172 3053 
L 1172 1153 
Q 1172 725 1289 603 
Q 1406 481 1766 481 
L 2356 481 
L 2356 0 
L 1766 0 
Q 1100 0 847 248 
Q 594 497 594 1153 
L 594 3053 
L 172 3053 
L 172 3500 
L 594 3500 
L 594 4494 
L 1172 4494 
z
" transform="scale(0.015625)"/>
      <path id="DejaVuSans-68" d="M 3513 2113 
L 3513 0 
L 2938 0 
L 2938 2094 
Q 2938 2591 2744 2837 
Q 2550 3084 2163 3084 
Q 1697 3084 1428 2787 
Q 1159 2491 1159 1978 
L 1159 0 
L 581 0 
L 581 4863 
L 1159 4863 
L 1159 2956 
Q 1366 3272 1645 3428 
Q 1925 3584 2291 3584 
Q 2894 3584 3203 3211 
Q 3513 2838 3513 2113 
z
" transform="scale(0.015625)"/>
      <path id="DejaVuSans-4f" d="M 2522 4238 
Q 1834 4238 1429 3725 
Q 1025 3213 1025 2328 
Q 1025 1447 1429 934 
Q 1834 422 2522 422 
Q 3209 422 3611 934 
Q 4013 1447 4013 2328 
Q 4013 3213 3611 3725 
Q 3209 4238 2522 4238 
z
M 2522 4750 
Q 3503 4750 4090 4092 
Q 4678 3434 4678 2328 
Q 4678 1225 4090 567 
Q 3503 -91 2522 -91 
Q 1538 -91 948 565 
Q 359 1222 359 2328 
Q 359 3434 948 4092 
Q 1538 4750 2522 4750 
z
" transform="scale(0.015625)"/>
      <path id="DejaVuSans-70" d="M 1159 525 
L 1159 -1331 
L 581 -1331 
L 581 3500 
L 1159 3500 
L 1159 2969 
Q 1341 3281 1617 3432 
Q 1894 3584 2278 3584 
Q 2916 3584 3314 3078 
Q 3713 2572 3713 1747 
Q 3713 922 3314 415 
Q 2916 -91 2278 -91 
Q 1894 -91 1617 61 
Q 1341 213 1159 525 
z
M 3116 1747 
Q 3116 2381 2855 2742 
Q 2594 3103 2138 3103 
Q 1681 3103 1420 2742 
Q 1159 2381 1159 1747 
Q 1159 1113 1420 752 
Q 1681 391 2138 391 
Q 2594 391 2855 752 
Q 3116 1113 3116 1747 
z
" transform="scale(0.015625)"/>
      <path id="DejaVuSans-53" d="M 3425 4513 
L 3425 3897 
Q 3066 4069 2747 4153 
Q 2428 4238 2131 4238 
Q 1616 4238 1336 4038 
Q 1056 3838 1056 3469 
Q 1056 3159 1242 3001 
Q 1428 2844 1947 2747 
L 2328 2669 
Q 3034 2534 3370 2195 
Q 3706 1856 3706 1288 
Q 3706 609 3251 259 
Q 2797 -91 1919 -91 
Q 1588 -91 1214 -16 
Q 841 59 441 206 
L 441 856 
Q 825 641 1194 531 
Q 1563 422 1919 422 
Q 2459 422 2753 634 
Q 3047 847 3047 1241 
Q 3047 1584 2836 1778 
Q 2625 1972 2144 2069 
L 1759 2144 
Q 1053 2284 737 2584 
Q 422 2884 422 3419 
Q 422 4038 858 4394 
Q 1294 4750 2059 4750 
Q 2388 4750 2728 4690 
Q 3069 4631 3425 4513 
z
" transform="scale(0.015625)"/>
      <path id="DejaVuSans-4d" d="M 628 4666 
L 1569 4666 
L 2759 1491 
L 3956 4666 
L 4897 4666 
L 4897 0 
L 4281 0 
L 4281 4097 
L 3078 897 
L 2444 897 
L 1241 4097 
L 1241 0 
L 628 0 
L 628 4666 
z
" transform="scale(0.015625)"/>
      <path id="DejaVuSans-61" d="M 2194 1759 
Q 1497 1759 1228 1600 
Q 959 1441 959 1056 
Q 959 750 1161 570 
Q 1363 391 1709 391 
Q 2188 391 2477 730 
Q 2766 1069 2766 1631 
L 2766 1759 
L 2194 1759 
z
M 3341 1997 
L 3341 0 
L 2766 0 
L 2766 531 
Q 2569 213 2275 61 
Q 1981 -91 1556 -91 
Q 1019 -91 701 211 
Q 384 513 384 1019 
Q 384 1609 779 1909 
Q 1175 2209 1959 2209 
L 2766 2209 
L 2766 2266 
Q 2766 2663 2505 2880 
Q 2244 3097 1772 3097 
Q 1472 3097 1187 3025 
Q 903 2953 641 2809 
L 641 3341 
Q 956 3463 1253 3523 
Q 1550 3584 1831 3584 
Q 2591 3584 2966 3190 
Q 3341 2797 3341 1997 
z
" transform="scale(0.015625)"/>
      <path id="DejaVuSans-64" d="M 2906 2969 
L 2906 4863 
L 3481 4863 
L 3481 0 
L 2906 0 
L 2906 525 
Q 2725 213 2448 61 
Q 2172 -91 1784 -91 
Q 1150 -91 751 415 
Q 353 922 353 1747 
Q 353 2572 751 3078 
Q 1150 3584 1784 3584 
Q 2172 3584 2448 3432 
Q 2725 3281 2906 2969 
z
M 947 1747 
Q 947 1113 1208 752 
Q 1469 391 1925 391 
Q 2381 391 2643 752 
Q 2906 1113 2906 1747 
Q 2906 2381 2643 2742 
Q 2381 3103 1925 3103 
Q 1469 3103 1208 2742 
Q 947 2381 947 1747 
z
" transform="scale(0.015625)"/>
      <path id="DejaVuSans-50" d="M 1259 4147 
L 1259 2394 
L 2053 2394 
Q 2494 2394 2734 2622 
Q 2975 2850 2975 3272 
Q 2975 3691 2734 3919 
Q 2494 4147 2053 4147 
L 1259 4147 
z
M 628 4666 
L 2053 4666 
Q 2838 4666 3239 4311 
Q 3641 3956 3641 3272 
Q 3641 2581 3239 2228 
Q 2838 1875 2053 1875 
L 1259 1875 
L 1259 0 
L 628 0 
L 628 4666 
z
" transform="scale(0.015625)"/>
      <path id="DejaVuSans-6c" d="M 603 4863 
L 1178 4863 
L 1178 0 
L 603 0 
L 603 4863 
z
" transform="scale(0.015625)"/>
      <path id="DejaVuSans-2c" d="M 750 794 
L 1409 794 
L 1409 256 
L 897 -744 
L 494 -744 
L 750 256 
L 750 794 
z
" transform="scale(0.015625)"/>
      <path id="DejaVuSans-79" d="M 2059 -325 
Q 1816 -950 1584 -1140 
Q 1353 -1331 966 -1331 
L 506 -1331 
L 506 -850 
L 844 -850 
Q 1081 -850 1212 -737 
Q 1344 -625 1503 -206 
L 1606 56 
L 191 3500 
L 800 3500 
L 1894 763 
L 2988 3500 
L 3597 3500 
L 2059 -325 
z
" transform="scale(0.015625)"/>
      <path id="DejaVuSans-2e" d="M 684 794 
L 1344 794 
L 1344 0 
L 684 0 
L 684 794 
z
" transform="scale(0.015625)"/>
      <path id="DejaVuSans-3a" d="M 750 794 
L 1409 794 
L 1409 0 
L 750 0 
L 750 794 
z
M 750 3309 
L 1409 3309 
L 1409 2516 
L 750 2516 
L 750 3309 
z
" transform="scale(0.015625)"/>
      <path id="DejaVuSans-2d" d="M 313 2009 
L 1997 2009 
L 1997 1497 
L 313 1497 
L 313 2009 
z
" transform="scale(0.015625)"/>
      <path id="DejaVuSans-33" d="M 2597 2516 
Q 3050 2419 3304 2112 
Q 3559 1806 3559 1356 
Q 3559 666 3084 287 
Q 2609 -91 1734 -91 
Q 1441 -91 1130 -33 
Q 819 25 488 141 
L 488 750 
Q 750 597 1062 519 
Q 1375 441 1716 441 
Q 2309 441 2620 675 
Q 2931 909 2931 1356 
Q 2931 1769 2642 2001 
Q 2353 2234 1838 2234 
L 1294 2234 
L 1294 2753 
L 1863 2753 
Q 2328 2753 2575 2939 
Q 2822 3125 2822 3475 
Q 2822 3834 2567 4026 
Q 2313 4219 1838 4219 
Q 1578 4219 1281 4162 
Q 984 4106 628 3988 
L 628 4550 
Q 988 4650 1302 4700 
Q 1616 4750 1894 4750 
Q 2613 4750 3031 4423 
Q 3450 4097 3450 3541 
Q 3450 3153 3228 2886 
Q 3006 2619 2597 2516 
z
" transform="scale(0.015625)"/>
     </defs>
     <use xlink:href="#DejaVuSans-4e"/>
     <use xlink:href="#DejaVuSans-75" x="74.804688"/>
     <use xlink:href="#DejaVuSans-6d" x="138.183594"/>
     <use xlink:href="#DejaVuSans-62" x="235.595703"/>
     <use xlink:href="#DejaVuSans-65" x="299.072266"/>
     <use xlink:href="#DejaVuSans-72" x="360.595703"/>
     <use xlink:href="#DejaVuSans-20" x="401.708984"/>
     <use xlink:href="#DejaVuSans-6f" x="433.496094"/>
     <use xlink:href="#DejaVuSans-66" x="494.677734"/>
     <use xlink:href="#DejaVuSans-20" x="529.882812"/>
     <use xlink:href="#DejaVuSans-41" x="561.669922"/>
     <use xlink:href="#DejaVuSans-45" x="630.078125"/>
     <use xlink:href="#DejaVuSans-44" x="693.261719"/>
     <use xlink:href="#DejaVuSans-73" x="770.263672"/>
     <use xlink:href="#DejaVuSans-20" x="822.363281"/>
     <use xlink:href="#DejaVuSans-69" x="854.150391"/>
     <use xlink:href="#DejaVuSans-6e" x="881.933594"/>
     <use xlink:href="#DejaVuSans-20" x="945.3125"/>
     <use xlink:href="#DejaVuSans-74" x="977.099609"/>
     <use xlink:href="#DejaVuSans-68" x="1016.308594"/>
     <use xlink:href="#DejaVuSans-65" x="1079.6875"/>
     <use xlink:href="#DejaVuSans-20" x="1141.210938"/>
     <use xlink:href="#DejaVuSans-4f" x="1172.998047"/>
     <use xlink:href="#DejaVuSans-70" x="1251.708984"/>
     <use xlink:href="#DejaVuSans-65" x="1315.185547"/>
     <use xlink:href="#DejaVuSans-6e" x="1376.708984"/>
     <use xlink:href="#DejaVuSans-53" x="1440.087891"/>
     <use xlink:href="#DejaVuSans-74" x="1503.564453"/>
     <use xlink:href="#DejaVuSans-72" x="1542.773438"/>
     <use xlink:href="#DejaVuSans-65" x="1581.636719"/>
     <use xlink:href="#DejaVuSans-65" x="1643.160156"/>
     <use xlink:href="#DejaVuSans-74" x="1704.683594"/>
     <use xlink:href="#DejaVuSans-4d" x="1743.892578"/>
     <use xlink:href="#DejaVuSans-61" x="1830.171875"/>
     <use xlink:href="#DejaVuSans-70" x="1891.451172"/>
     <use xlink:href="#DejaVuSans-20" x="1954.927734"/>
     <use xlink:href="#DejaVuSans-64" x="1986.714844"/>
     <use xlink:href="#DejaVuSans-61" x="2050.191406"/>
     <use xlink:href="#DejaVuSans-74" x="2111.470703"/>
     <use xlink:href="#DejaVuSans-61" x="2150.679688"/>
     <use xlink:href="#DejaVuSans-62" x="2211.958984"/>
     <use xlink:href="#DejaVuSans-61" x="2275.435547"/>
     <use xlink:href="#DejaVuSans-73" x="2336.714844"/>
     <use xlink:href="#DejaVuSans-65" x="2388.814453"/>
     <use xlink:href="#DejaVuSans-20" x="2450.337891"/>
     <use xlink:href="#DejaVuSans-69" x="2482.125"/>
     <use xlink:href="#DejaVuSans-6e" x="2509.908203"/>
     <use xlink:href="#DejaVuSans-20" x="2573.287109"/>
     <use xlink:href="#DejaVuSans-50" x="2605.074219"/>
     <use xlink:href="#DejaVuSans-6f" x="2661.751953"/>
     <use xlink:href="#DejaVuSans-6c" x="2722.933594"/>
     <use xlink:href="#DejaVuSans-61" x="2750.716797"/>
     <use xlink:href="#DejaVuSans-6e" x="2811.996094"/>
     <use xlink:href="#DejaVuSans-64" x="2875.375"/>
     <use xlink:href="#DejaVuSans-20" x="2938.851562"/>
     <use xlink:href="#DejaVuSans-66" x="2970.638672"/>
     <use xlink:href="#DejaVuSans-72" x="3005.84375"/>
     <use xlink:href="#DejaVuSans-6f" x="3044.707031"/>
     <use xlink:href="#DejaVuSans-6d" x="3105.888672"/>
     <use xlink:href="#DejaVuSans-20" x="3203.300781"/>
     <use xlink:href="#DejaVuSans-66" x="3235.087891"/>
     <use xlink:href="#DejaVuSans-69" x="3270.292969"/>
     <use xlink:href="#DejaVuSans-72" x="3298.076172"/>
     <use xlink:href="#DejaVuSans-73" x="3339.189453"/>
     <use xlink:href="#DejaVuSans-74" x="3391.289062"/>
     <use xlink:href="#DejaVuSans-20" x="3430.498047"/>
     <use xlink:href="#DejaVuSans-65" x="3462.285156"/>
     <use xlink:href="#DejaVuSans-64" x="3523.808594"/>
     <use xlink:href="#DejaVuSans-69" x="3587.285156"/>
     <use xlink:href="#DejaVuSans-74" x="3615.068359"/>
     <use xlink:href="#DejaVuSans-69" x="3654.277344"/>
     <use xlink:href="#DejaVuSans-6f" x="3682.060547"/>
     <use xlink:href="#DejaVuSans-6e" x="3743.242188"/>
     <use xlink:href="#DejaVuSans-2c" x="3806.621094"/>
     <use xlink:href="#DejaVuSans-20" x="3838.408203"/>
     <use xlink:href="#DejaVuSans-64" x="3870.195312"/>
     <use xlink:href="#DejaVuSans-61" x="3933.671875"/>
     <use xlink:href="#DejaVuSans-79" x="3994.951172"/>
     <use xlink:href="#DejaVuSans-20" x="4054.130859"/>
     <use xlink:href="#DejaVuSans-62" x="4085.917969"/>
     <use xlink:href="#DejaVuSans-79" x="4149.394531"/>
     <use xlink:href="#DejaVuSans-20" x="4208.574219"/>
     <use xlink:href="#DejaVuSans-64" x="4240.361328"/>
     <use xlink:href="#DejaVuSans-61" x="4303.837891"/>
     <use xlink:href="#DejaVuSans-79" x="4365.117188"/>
     <use xlink:href="#DejaVuSans-2e" x="4410.046875"/>
     <use xlink:href="#DejaVuSans-20" x="4441.833984"/>
     <use xlink:href="#DejaVuSans-41" x="4473.621094"/>
     <use xlink:href="#DejaVuSans-73" x="4542.029297"/>
     <use xlink:href="#DejaVuSans-20" x="4594.128906"/>
     <use xlink:href="#DejaVuSans-61" x="4625.916016"/>
     <use xlink:href="#DejaVuSans-74" x="4687.195312"/>
     <use xlink:href="#DejaVuSans-3a" x="4726.404297"/>
     <use xlink:href="#DejaVuSans-20" x="4760.095703"/>
     <use xlink:href="#DejaVuSans-32" x="4791.882812"/>
     <use xlink:href="#DejaVuSans-30" x="4855.505859"/>
     <use xlink:href="#DejaVuSans-32" x="4919.128906"/>
     <use xlink:href="#DejaVuSans-36" x="4982.751953"/>
     <use xlink:href="#DejaVuSans-2d" x="5046.375"/>
     <use xlink:href="#DejaVuSans-30" x="5082.458984"/>
     <use xlink:href="#DejaVuSans-33" x="5146.082031"/>
     <use xlink:href="#DejaVuSans-2d" x="5209.705078"/>
     <use xlink:href="#DejaVuSans-31" x="5245.789062"/>
     <use xlink:href="#DejaVuSans-33" x="5309.412109"/>
    </g>
   </g>
  </g>
 </g>
 <defs>
  <clipPath id="p7896dcb0f2">
   <rect x="144" y="69.12" width="892.8" height="443.52"/>
  </clipPath>
 </defs>
</svg>
