<?xml version="1.0" encoding="utf-8" standalone="no"?>
<!DOCTYPE svg PUBLIC "-//W3C//DTD SVG 1.1//EN"
  "http://www.w3.org/Graphics/SVG/1.1/DTD/svg11.dtd">
<svg xmlns:xlink="http://www.w3.org/1999/xlink" width="1152pt" height="576pt" viewBox="0 0 1152 576" xmlns="http://www.w3.org/2000/svg" version="1.1">
 <metadata>
  <rdf:RDF xmlns:dc="http://purl.org/dc/elements/1.1/" xmlns:cc="http://creativecommons.org/ns#" xmlns:rdf="http://www.w3.org/1999/02/22-rdf-syntax-ns#">
   <cc:Work>
    <dc:type rdf:resource="http://purl.org/dc/dcmitype/StillImage"/>
    <dc:date>1980-01-01T00:00:00+00:00</dc:date>
    <dc:format>image/svg+xml</dc:format>
    <dc:creator>
     <cc:Agent>
      <dc:title>Matplotlib v3.9.1, https://matplotlib.org/</dc:title>
     </cc:Agent>
    </dc:creator>
   </cc:Work>
  </rdf:RDF>
 </metadata>
 <defs>
  <style type="text/css">*{stroke-linejoin: round; stroke-linecap: butt}</style>
 </defs>
 <g id="figure_1">
  <g id="patch_1">
   <path d="M 0 576 
L 1152 576 
L 1152 0 
L 0 0 
z
" style="fill: #ffffff"/>
  </g>
  <g id="axes_1">
   <g id="patch_2">
    <path d="M 144 512.64 
L 1036.8 512.64 
L 1036.8 69.12 
L 144 69.12 
z
" style="fill: #ffffff"/>
   </g>
   <g id="matplotlib.axis_1">
    <g id="xtick_1">
     <g id="line2d_1">
      <defs>
       <path id="mf0bed16b83" d="M 0 0 
L 0 3.5 
" style="stroke: #000000; stroke-width: 0.8"/>
      </defs>
      <g>
       <use xlink:href="#mf0bed16b83" x="176.935691" y="512.64" style="stroke: #000000; stroke-width: 0.8"/>
      </g>
     </g>
     <g id="text_1">
      <!-- 2014 -->
      <g transform="translate(164.210691 527.238438) scale(0.1 -0.1)">
       <defs>
        <path id="DejaVuSans-32" d="M 1228 531 
L 3431 531 
L 3431 0 
L 469 0 
L 469 531 
Q 828 903 1448 1529 
Q 2069 2156 2228 2338 
Q 2531 2678 2651 2914 
Q 2772 3150 2772 3378 
Q 2772 3750 2511 3984 
Q 2250 4219 1831 4219 
Q 1534 4219 1204 4116 
Q 875 4013 500 3803 
L 500 4441 
Q 881 4594 1212 4672 
Q 1544 4750 1819 4750 
Q 2544 4750 2975 4387 
Q 3406 4025 3406 3419 
Q 3406 3131 3298 2873 
Q 3191 2616 2906 2266 
Q 2828 2175 2409 1742 
Q 1991 1309 1228 531 
z
" transform="scale(0.015625)"/>
        <path id="DejaVuSans-30" d="M 2034 4250 
Q 1547 4250 1301 3770 
Q 1056 3291 1056 2328 
Q 1056 1369 1301 889 
Q 1547 409 2034 409 
Q 2525 409 2770 889 
Q 3016 1369 3016 2328 
Q 3016 3291 2770 3770 
Q 2525 4250 2034 4250 
z
M 2034 4750 
Q 2819 4750 3233 4129 
Q 3647 3509 3647 2328 
Q 3647 1150 3233 529 
Q 2819 -91 2034 -91 
Q 1250 -91 836 529 
Q 422 1150 422 2328 
Q 422 3509 836 4129 
Q 1250 4750 2034 4750 
z
" transform="scale(0.015625)"/>
        <path id="DejaVuSans-31" d="M 794 531 
L 1825 531 
L 1825 4091 
L 703 3866 
L 703 4441 
L 1819 4666 
L 2450 4666 
L 2450 531 
L 3481 531 
L 3481 0 
L 794 0 
L 794 531 
z
" transform="scale(0.015625)"/>
        <path id="DejaVuSans-34" d="M 2419 4116 
L 825 1625 
L 2419 1625 
L 2419 4116 
z
M 2253 4666 
L 3047 4666 
L 3047 1625 
L 3713 1625 
L 3713 1100 
L 3047 1100 
L 3047 0 
L 2419 0 
L 2419 1100 
L 313 1100 
L 313 1709 
L 2253 4666 
z
" transform="scale(0.015625)"/>
       </defs>
       <use xlink:href="#DejaVuSans-32"/>
       <use xlink:href="#DejaVuSans-30" x="63.623047"/>
       <use xlink:href="#DejaVuSans-31" x="127.246094"/>
       <use xlink:href="#DejaVuSans-34" x="190.869141"/>
      </g>
     </g>
    </g>
    <g id="xtick_2">
     <g id="line2d_2">
      <g>
       <use xlink:href="#mf0bed16b83" x="316.477506" y="512.64" style="stroke: #000000; stroke-width: 0.8"/>
      </g>
     </g>
     <g id="text_2">
      <!-- 2016 -->
      <g transform="translate(303.752506 527.238438) scale(0.1 -0.1)">
       <defs>
        <path id="DejaVuSans-36" d="M 2113 2584 
Q 1688 2584 1439 2293 
Q 1191 2003 1191 1497 
Q 1191 994 1439 701 
Q 1688 409 2113 409 
Q 2538 409 2786 701 
Q 3034 994 3034 1497 
Q 3034 2003 2786 2293 
Q 2538 2584 2113 2584 
z
M 3366 4563 
L 3366 3988 
Q 3128 4100 2886 4159 
Q 2644 4219 2406 4219 
Q 1781 4219 1451 3797 
Q 1122 3375 1075 2522 
Q 1259 2794 1537 2939 
Q 1816 3084 2150 3084 
Q 2853 3084 3261 2657 
Q 3669 2231 3669 1497 
Q 3669 778 3244 343 
Q 2819 -91 2113 -91 
Q 1303 -91 875 529 
Q 447 1150 447 2328 
Q 447 3434 972 4092 
Q 1497 4750 2381 4750 
Q 2619 4750 2861 4703 
Q 3103 4656 3366 4563 
z
" transform="scale(0.015625)"/>
       </defs>
       <use xlink:href="#DejaVuSans-32"/>
       <use xlink:href="#DejaVuSans-30" x="63.623047"/>
       <use xlink:href="#DejaVuSans-31" x="127.246094"/>
       <use xlink:href="#DejaVuSans-36" x="190.869141"/>
      </g>
     </g>
    </g>
    <g id="xtick_3">
     <g id="line2d_3">
      <g>
       <use xlink:href="#mf0bed16b83" x="456.210474" y="512.64" style="stroke: #000000; stroke-width: 0.8"/>
      </g>
     </g>
     <g id="text_3">
      <!-- 2018 -->
      <g transform="translate(443.485474 527.238438) scale(0.1 -0.1)">
       <defs>
        <path id="DejaVuSans-38" d="M 2034 2216 
Q 1584 2216 1326 1975 
Q 1069 1734 1069 1313 
Q 1069 891 1326 650 
Q 1584 409 2034 409 
Q 2484 409 2743 651 
Q 3003 894 3003 1313 
Q 3003 1734 2745 1975 
Q 2488 2216 2034 2216 
z
M 1403 2484 
Q 997 2584 770 2862 
Q 544 3141 544 3541 
Q 544 4100 942 4425 
Q 1341 4750 2034 4750 
Q 2731 4750 3128 4425 
Q 3525 4100 3525 3541 
Q 3525 3141 3298 2862 
Q 3072 2584 2669 2484 
Q 3125 2378 3379 2068 
Q 3634 1759 3634 1313 
Q 3634 634 3220 271 
Q 2806 -91 2034 -91 
Q 1263 -91 848 271 
Q 434 634 434 1313 
Q 434 1759 690 2068 
Q 947 2378 1403 2484 
z
M 1172 3481 
Q 1172 3119 1398 2916 
Q 1625 2713 2034 2713 
Q 2441 2713 2670 2916 
Q 2900 3119 2900 3481 
Q 2900 3844 2670 4047 
Q 2441 4250 2034 4250 
Q 1625 4250 1398 4047 
Q 1172 3844 1172 3481 
z
" transform="scale(0.015625)"/>
       </defs>
       <use xlink:href="#DejaVuSans-32"/>
       <use xlink:href="#DejaVuSans-30" x="63.623047"/>
       <use xlink:href="#DejaVuSans-31" x="127.246094"/>
       <use xlink:href="#DejaVuSans-38" x="190.869141"/>
      </g>
     </g>
    </g>
    <g id="xtick_4">
     <g id="line2d_4">
      <g>
       <use xlink:href="#mf0bed16b83" x="595.752289" y="512.64" style="stroke: #000000; stroke-width: 0.8"/>
      </g>
     </g>
     <g id="text_4">
      <!-- 2020 -->
      <g transform="translate(583.027289 527.238438) scale(0.1 -0.1)">
       <use xlink:href="#DejaVuSans-32"/>
       <use xlink:href="#DejaVuSans-30" x="63.623047"/>
       <use xlink:href="#DejaVuSans-32" x="127.246094"/>
       <use xlink:href="#DejaVuSans-30" x="190.869141"/>
      </g>
     </g>
    </g>
    <g id="xtick_5">
     <g id="line2d_5">
      <g>
       <use xlink:href="#mf0bed16b83" x="735.485257" y="512.64" style="stroke: #000000; stroke-width: 0.8"/>
      </g>
     </g>
     <g id="text_5">
      <!-- 2022 -->
      <g transform="translate(722.760257 527.238438) scale(0.1 -0.1)">
       <use xlink:href="#DejaVuSans-32"/>
       <use xlink:href="#DejaVuSans-30" x="63.623047"/>
       <use xlink:href="#DejaVuSans-32" x="127.246094"/>
       <use xlink:href="#DejaVuSans-32" x="190.869141"/>
      </g>
     </g>
    </g>
    <g id="xtick_6">
     <g id="line2d_6">
      <g>
       <use xlink:href="#mf0bed16b83" x="875.027071" y="512.64" style="stroke: #000000; stroke-width: 0.8"/>
      </g>
     </g>
     <g id="text_6">
      <!-- 2024 -->
      <g transform="translate(862.302071 527.238438) scale(0.1 -0.1)">
       <use xlink:href="#DejaVuSans-32"/>
       <use xlink:href="#DejaVuSans-30" x="63.623047"/>
       <use xlink:href="#DejaVuSans-32" x="127.246094"/>
       <use xlink:href="#DejaVuSans-34" x="190.869141"/>
      </g>
     </g>
    </g>
    <g id="xtick_7">
     <g id="line2d_7">
      <g>
       <use xlink:href="#mf0bed16b83" x="1014.760039" y="512.64" style="stroke: #000000; stroke-width: 0.8"/>
      </g>
     </g>
     <g id="text_7">
      <!-- 2026 -->
      <g transform="translate(1002.035039 527.238438) scale(0.1 -0.1)">
       <use xlink:href="#DejaVuSans-32"/>
       <use xlink:href="#DejaVuSans-30" x="63.623047"/>
       <use xlink:href="#DejaVuSans-32" x="127.246094"/>
       <use xlink:href="#DejaVuSans-36" x="190.869141"/>
      </g>
     </g>
    </g>
   </g>
   <g id="matplotlib.axis_2">
    <g id="ytick_1">
     <g id="line2d_8">
      <defs>
       <path id="mac7fdf17cc" d="M 0 0 
L -3.5 0 
" style="stroke: #000000; stroke-width: 0.8"/>
      </defs>
      <g>
       <use xlink:href="#mac7fdf17cc" x="144" y="492.513693" style="stroke: #000000; stroke-width: 0.8"/>
      </g>
     </g>
     <g id="text_8">
      <!-- 0 -->
      <g transform="translate(130.6375 496.312911) scale(0.1 -0.1)">
       <use xlink:href="#DejaVuSans-30"/>
      </g>
     </g>
    </g>
    <g id="ytick_2">
     <g id="line2d_9">
      <g>
       <use xlink:href="#mac7fdf17cc" x="144" y="425.128383" style="stroke: #000000; stroke-width: 0.8"/>
      </g>
     </g>
     <g id="text_9">
      <!-- 2000 -->
      <g transform="translate(111.55 428.927602) scale(0.1 -0.1)">
       <use xlink:href="#DejaVuSans-32"/>
       <use xlink:href="#DejaVuSans-30" x="63.623047"/>
       <use xlink:href="#DejaVuSans-30" x="127.246094"/>
       <use xlink:href="#DejaVuSans-30" x="190.869141"/>
      </g>
     </g>
    </g>
    <g id="ytick_3">
     <g id="line2d_10">
      <g>
       <use xlink:href="#mac7fdf17cc" x="144" y="357.743073" style="stroke: #000000; stroke-width: 0.8"/>
      </g>
     </g>
     <g id="text_10">
      <!-- 4000 -->
      <g transform="translate(111.55 361.542292) scale(0.1 -0.1)">
       <use xlink:href="#DejaVuSans-34"/>
       <use xlink:href="#DejaVuSans-30" x="63.623047"/>
       <use xlink:href="#DejaVuSans-30" x="127.246094"/>
       <use xlink:href="#DejaVuSans-30" x="190.869141"/>
      </g>
     </g>
    </g>
    <g id="ytick_4">
     <g id="line2d_11">
      <g>
       <use xlink:href="#mac7fdf17cc" x="144" y="290.357764" style="stroke: #000000; stroke-width: 0.8"/>
      </g>
     </g>
     <g id="text_11">
      <!-- 6000 -->
      <g transform="translate(111.55 294.156983) scale(0.1 -0.1)">
       <use xlink:href="#DejaVuSans-36"/>
       <use xlink:href="#DejaVuSans-30" x="63.623047"/>
       <use xlink:href="#DejaVuSans-30" x="127.246094"/>
       <use xlink:href="#DejaVuSans-30" x="190.869141"/>
      </g>
     </g>
    </g>
    <g id="ytick_5">
     <g id="line2d_12">
      <g>
       <use xlink:href="#mac7fdf17cc" x="144" y="222.972454" style="stroke: #000000; stroke-width: 0.8"/>
      </g>
     </g>
     <g id="text_12">
      <!-- 8000 -->
      <g transform="translate(111.55 226.771673) scale(0.1 -0.1)">
       <use xlink:href="#DejaVuSans-38"/>
       <use xlink:href="#DejaVuSans-30" x="63.623047"/>
       <use xlink:href="#DejaVuSans-30" x="127.246094"/>
       <use xlink:href="#DejaVuSans-30" x="190.869141"/>
      </g>
     </g>
    </g>
    <g id="ytick_6">
     <g id="line2d_13">
      <g>
       <use xlink:href="#mac7fdf17cc" x="144" y="155.587145" style="stroke: #000000; stroke-width: 0.8"/>
      </g>
     </g>
     <g id="text_13">
      <!-- 10000 -->
      <g transform="translate(105.1875 159.386363) scale(0.1 -0.1)">
       <use xlink:href="#DejaVuSans-31"/>
       <use xlink:href="#DejaVuSans-30" x="63.623047"/>
       <use xlink:href="#DejaVuSans-30" x="127.246094"/>
       <use xlink:href="#DejaVuSans-30" x="190.869141"/>
       <use xlink:href="#DejaVuSans-30" x="254.492188"/>
      </g>
     </g>
    </g>
    <g id="ytick_7">
     <g id="line2d_14">
      <g>
       <use xlink:href="#mac7fdf17cc" x="144" y="88.201835" style="stroke: #000000; stroke-width: 0.8"/>
      </g>
     </g>
     <g id="text_14">
      <!-- 12000 -->
      <g transform="translate(105.1875 92.001054) scale(0.1 -0.1)">
       <use xlink:href="#DejaVuSans-31"/>
       <use xlink:href="#DejaVuSans-32" x="63.623047"/>
       <use xlink:href="#DejaVuSans-30" x="127.246094"/>
       <use xlink:href="#DejaVuSans-30" x="190.869141"/>
       <use xlink:href="#DejaVuSans-30" x="254.492188"/>
      </g>
     </g>
    </g>
   </g>
   <g id="line2d_15">
    <path d="M 184.581818 492.48 
L 186.302197 492.412615 
L 305.772929 492.210459 
L 445.69705 492.041995 
L 497.690712 491.83984 
L 511.262587 491.738762 
L 543.758626 491.570298 
L 545.287852 491.502913 
L 554.080898 491.401835 
L 595.943442 491.199679 
L 602.060343 491.132294 
L 602.44265 490.862753 
L 606.456866 490.694289 
L 640.099824 490.559519 
L 643.922888 490.458441 
L 667.243575 490.256285 
L 681.388909 490.020436 
L 684.44736 489.919358 
L 693.813865 489.717202 
L 697.254623 489.548739 
L 698.210388 489.481354 
L 699.548461 489.31289 
L 707.003434 489.110735 
L 711.017651 488.975964 
L 717.325705 488.537959 
L 727.26567 488.302111 
L 733.191419 486.651171 
L 733.764878 486.617478 
L 734.529491 486.078396 
L 734.720644 485.269772 
L 735.10295 485.067616 
L 735.294104 485.033923 
L 735.485257 483.922066 
L 736.632176 483.450369 
L 737.014482 482.877593 
L 737.396788 482.641745 
L 737.587942 482.136355 
L 737.779095 481.159268 
L 737.970248 480.822341 
L 738.352554 479.036631 
L 738.543707 477.082457 
L 738.926014 475.701058 
L 739.117167 475.431517 
L 739.30832 470.916701 
L 739.499473 469.097298 
L 739.690626 468.423444 
L 739.88178 465.18895 
L 740.455239 461.482758 
L 740.646392 461.38168 
L 741.028699 459.461198 
L 741.219852 458.821038 
L 741.411005 453.969296 
L 741.602158 453.531291 
L 741.984465 452.015122 
L 742.175618 451.914044 
L 742.366771 451.071727 
L 742.557924 447.635076 
L 742.749077 446.759067 
L 742.94023 446.691682 
L 743.131384 444.198426 
L 743.322537 443.693036 
L 743.704843 443.524573 
L 744.469456 440.963931 
L 744.851762 440.290078 
L 745.234068 438.335904 
L 745.425222 437.560973 
L 745.807528 432.271226 
L 746.380987 429.676891 
L 747.1456 429.27258 
L 747.910213 427.891181 
L 748.292519 427.823795 
L 748.674826 424.926227 
L 748.865979 424.892534 
L 749.248285 424.420837 
L 749.439438 423.073131 
L 749.630591 422.668819 
L 749.821745 422.534049 
L 750.012898 422.230815 
L 750.204051 421.65804 
L 750.77751 421.422191 
L 750.968664 421.186342 
L 751.542123 419.097398 
L 751.733276 418.962627 
L 752.115583 418.423545 
L 752.880195 418.052926 
L 753.071348 416.671527 
L 753.262502 416.570449 
L 753.453655 416.3346 
L 753.644808 413.706573 
L 754.027114 413.639188 
L 754.409421 412.931642 
L 754.600574 412.257789 
L 755.174033 412.123018 
L 755.747493 411.078546 
L 755.938646 411.044853 
L 756.320952 410.472078 
L 756.703259 410.337308 
L 756.894412 407.271276 
L 758.041331 407.001735 
L 758.423637 406.732194 
L 759.18825 406.631116 
L 759.379403 406.462652 
L 761.673241 405.788799 
L 762.437854 405.249717 
L 763.39362 405.114946 
L 764.158232 404.710634 
L 766.069764 404.205244 
L 766.834377 401.341369 
L 767.790143 401.206598 
L 767.981296 401.139213 
L 769.510521 400.97075 
L 770.083981 400.768594 
L 770.275134 400.229511 
L 771.2309 400.162126 
L 771.804359 399.858892 
L 772.760125 399.521965 
L 772.951278 399.488273 
L 773.333585 399.117654 
L 773.715891 399.016576 
L 773.907044 398.780727 
L 774.671657 398.511186 
L 775.627423 398.410108 
L 775.818576 398.174259 
L 776.200882 398.140567 
L 776.392035 397.601484 
L 776.583188 397.534099 
L 776.774342 396.759168 
L 779.06818 396.253778 
L 779.641639 396.119007 
L 779.832792 395.714695 
L 781.170865 395.377769 
L 781.744324 395.175613 
L 782.508937 395.00715 
L 783.273549 394.804994 
L 784.229315 394.602838 
L 784.802775 394.434375 
L 786.140847 393.659443 
L 786.332 392.98559 
L 787.287766 392.210659 
L 787.478919 391.907425 
L 788.434685 391.098802 
L 788.816991 390.391256 
L 789.008145 390.357563 
L 789.390451 389.481554 
L 790.155064 388.605545 
L 790.728523 388.504467 
L 790.919676 388.201233 
L 791.301983 388.03277 
L 791.493136 387.695844 
L 792.448902 387.459995 
L 792.640055 387.156761 
L 793.978127 386.853527 
L 794.360433 386.685064 
L 794.551587 386.651371 
L 794.74274 386.482908 
L 795.698506 386.348137 
L 797.036578 385.74167 
L 797.610037 385.640592 
L 797.992344 384.899353 
L 798.37465 384.663505 
L 799.330416 383.922266 
L 799.521569 383.147335 
L 800.286182 382.911487 
L 801.433101 382.540867 
L 801.815407 381.968092 
L 802.771173 381.42901 
L 802.962326 381.092083 
L 803.535786 380.889927 
L 803.918092 380.620386 
L 804.491551 380.384537 
L 804.873858 376.644653 
L 805.065011 375.431717 
L 805.256164 373.342773 
L 805.447317 373.073231 
L 806.21193 370.478897 
L 806.594236 369.805044 
L 806.785389 369.737659 
L 806.976543 369.50181 
L 807.167696 369.063805 
L 807.358849 367.547636 
L 807.550002 367.177017 
L 807.932308 367.042246 
L 809.079228 364.751146 
L 809.270381 364.582682 
L 809.461534 363.672981 
L 810.4173 361.988348 
L 811.181912 361.550343 
L 811.373066 361.348188 
L 811.564219 360.270023 
L 811.946525 360.101559 
L 812.328831 359.73094 
L 812.902291 358.956009 
L 813.093444 358.248463 
L 813.284597 358.214771 
L 813.858057 357.540918 
L 814.240363 357.507225 
L 814.431516 357.170298 
L 814.813823 356.968142 
L 815.769588 355.92367 
L 815.960742 355.350895 
L 817.489967 353.902111 
L 817.872273 352.588097 
L 819.019192 352.015322 
L 819.592652 351.139313 
L 820.548418 349.690529 
L 820.930724 349.488373 
L 821.695337 349.353602 
L 822.268796 348.275437 
L 823.033409 348.039589 
L 823.798022 347.16358 
L 824.180328 347.096195 
L 824.562634 346.691883 
L 825.136094 346.456034 
L 825.5184 346.422341 
L 825.709553 346.220186 
L 825.900707 345.613718 
L 826.665319 345.377869 
L 826.856472 345.040943 
L 827.047626 345.00725 
L 827.238779 344.400782 
L 827.812238 344.164934 
L 828.385698 344.030163 
L 828.768004 343.693236 
L 829.72377 343.255232 
L 830.106076 342.951998 
L 830.488383 342.716149 
L 830.870689 342.682457 
L 831.061842 341.772755 
L 831.444149 341.469521 
L 832.017608 341.19998 
L 832.591068 340.863053 
L 833.35568 340.728283 
L 833.546833 339.784888 
L 834.884906 339.144728 
L 835.076059 339.111035 
L 835.267212 338.942572 
L 835.649518 338.875187 
L 835.840671 338.571953 
L 836.605284 338.268719 
L 836.796437 337.8981 
L 837.178744 337.864407 
L 837.56105 337.628559 
L 838.134509 337.325325 
L 838.325663 336.853627 
L 839.090275 336.483008 
L 839.281429 336.213467 
L 839.854888 335.910233 
L 840.428348 335.640692 
L 840.619501 335.337458 
L 840.810654 335.303765 
L 841.19296 335.034224 
L 841.575267 334.865761 
L 841.76642 334.663605 
L 842.913339 334.326678 
L 843.104492 333.956059 
L 843.295645 333.854981 
L 844.251411 333.619133 
L 844.633717 333.315899 
L 845.016024 333.181128 
L 845.589483 333.012665 
L 845.780636 332.709431 
L 846.162943 332.642046 
L 846.354096 332.035578 
L 846.545249 331.9345 
L 846.927555 331.496495 
L 847.118709 330.78895 
L 847.501015 330.553101 
L 848.647934 329.609707 
L 849.03024 329.239087 
L 849.412547 329.104317 
L 849.6037 328.700005 
L 849.794853 328.63262 
L 850.177159 328.228308 
L 850.559466 327.992459 
L 851.132925 327.823996 
L 851.515231 327.385991 
L 853.617916 325.600281 
L 854.573682 325.364432 
L 855.720601 324.185189 
L 856.102908 324.016726 
L 857.632133 323.410258 
L 858.396746 322.938561 
L 859.161358 322.601634 
L 859.734818 322.332093 
L 860.690584 321.927781 
L 861.455196 321.725625 
L 862.028656 321.321314 
L 862.219809 321.287621 
L 862.410962 320.950694 
L 863.749034 320.411612 
L 864.7048 319.872529 
L 865.851719 319.36714 
L 866.042872 318.929135 
L 866.234026 317.446658 
L 866.616332 317.076039 
L 866.807485 317.042346 
L 867.954404 315.55987 
L 868.33671 314.54909 
L 868.719017 314.212163 
L 869.101323 313.976315 
L 869.48363 313.875237 
L 869.674783 313.605696 
L 870.057089 313.40354 
L 870.439395 313.066613 
L 870.821702 312.89815 
L 871.012855 312.830765 
L 871.395161 312.426453 
L 871.586314 312.39276 
L 871.777468 311.988448 
L 872.350927 311.786292 
L 872.733233 311.280902 
L 873.880152 310.438586 
L 874.262459 310.404893 
L 874.453612 310.10166 
L 875.027071 309.933196 
L 875.409378 308.484412 
L 875.791684 308.147486 
L 876.556297 307.877944 
L 876.938603 307.608403 
L 877.129756 307.136706 
L 877.512063 307.001935 
L 877.703216 306.530238 
L 877.894369 306.42916 
L 878.276675 306.024848 
L 878.467829 305.822692 
L 879.041288 305.654229 
L 879.423594 305.350995 
L 879.614748 305.317303 
L 879.805901 305.115147 
L 879.997054 305.081454 
L 880.761667 304.609757 
L 881.143973 303.76744 
L 881.335126 303.666362 
L 881.717432 303.598977 
L 881.908586 303.228358 
L 882.290892 303.059895 
L 882.673198 302.857739 
L 882.864351 302.251271 
L 883.628964 301.813266 
L 883.820117 301.206799 
L 884.58473 300.566638 
L 884.775883 300.532946 
L 885.15819 300.027556 
L 885.540496 299.724322 
L 885.731649 299.656937 
L 885.922802 299.32001 
L 886.305109 299.185239 
L 886.496262 298.545079 
L 886.878568 298.444001 
L 887.069721 298.140767 
L 887.260874 298.073382 
L 887.452028 297.399529 
L 888.025487 297.197373 
L 888.21664 297.096295 
L 888.598947 296.557212 
L 888.7901 296.422442 
L 889.554712 295.344277 
L 889.745866 295.276891 
L 890.128172 294.87258 
L 890.892785 294.333497 
L 891.466244 294.063956 
L 893.186623 292.379323 
L 893.568929 292.244553 
L 893.951235 291.840241 
L 894.333542 291.739163 
L 894.524695 290.964232 
L 895.098154 290.458842 
L 895.289308 289.784989 
L 895.671614 289.41437 
L 895.862767 289.077443 
L 896.05392 289.04375 
L 897.009686 288.167741 
L 897.200839 288.100356 
L 897.391992 287.8982 
L 897.583146 287.864507 
L 897.965452 287.561274 
L 899.112371 287.022191 
L 899.876984 285.910333 
L 900.25929 285.775563 
L 900.450443 285.472329 
L 900.641596 285.404944 
L 900.83275 285.169095 
L 901.023903 285.135402 
L 901.215056 284.764783 
L 901.979669 284.293086 
L 902.553128 283.855081 
L 903.317741 283.484462 
L 903.8912 283.012765 
L 904.46466 282.743224 
L 904.655813 282.43999 
L 905.038119 282.372605 
L 906.758498 280.991206 
L 907.331957 280.822743 
L 907.714264 280.418431 
L 908.09657 280.28366 
L 908.478876 280.148889 
L 908.861183 279.677192 
L 909.625795 279.373958 
L 909.816949 277.824096 
L 910.772714 277.150243 
L 911.537327 275.802537 
L 911.72848 275.701459 
L 911.919633 275.263454 
L 912.30194 275.128684 
L 913.066552 273.983134 
L 913.448859 272.399579 
L 913.640012 271.927882 
L 914.022318 269.400933 
L 914.213472 268.390153 
L 915.169237 267.177217 
L 915.93385 264.178571 
L 916.125003 264.010108 
L 916.316156 263.538411 
L 916.50731 261.921163 
L 916.698463 261.314695 
L 916.889616 261.281003 
L 917.080769 260.539764 
L 917.654229 260.10176 
L 918.036535 258.855132 
L 918.992301 258.349742 
L 919.374607 257.94543 
L 920.521526 257.136806 
L 920.712679 256.766187 
L 921.094986 255.519559 
L 921.477292 255.384788 
L 922.624211 254.710935 
L 923.388824 254.475086 
L 923.77113 254.239238 
L 923.962283 254.104467 
L 924.34459 254.070775 
L 926.829581 251.813367 
L 927.211887 251.712289 
L 927.594193 251.47644 
L 927.785347 251.375362 
L 927.9765 250.566739 
L 928.549959 250.027656 
L 928.932266 249.926578 
L 930.079185 249.016876 
L 930.461491 248.848413 
L 930.652644 248.781028 
L 931.034951 248.376716 
L 931.417257 248.309331 
L 931.60841 247.837633 
L 931.799563 247.66917 
L 931.990716 247.130088 
L 932.373023 246.894239 
L 932.946482 245.647611 
L 933.137635 244.973758 
L 933.711095 244.569446 
L 934.284554 243.828208 
L 934.666861 242.514194 
L 934.858014 242.177267 
L 935.049167 241.469722 
L 935.24032 241.402336 
L 935.431473 240.829561 
L 935.81378 240.593713 
L 936.960699 239.448162 
L 937.151852 238.976465 
L 937.725312 238.706924 
L 937.916465 238.235227 
L 939.063384 237.76353 
L 939.254537 237.055984 
L 939.636843 236.820135 
L 939.827996 236.382131 
L 940.01915 236.24736 
L 940.401456 236.213668 
L 941.548375 235.337659 
L 942.121834 234.899654 
L 942.504141 234.46165 
L 942.886447 234.124723 
L 943.0776 233.787796 
L 943.268753 233.046558 
L 944.415673 232.406398 
L 944.797979 231.597774 
L 945.180285 231.463003 
L 945.371438 230.991306 
L 945.562592 230.923921 
L 945.944898 230.317453 
L 947.665276 229.13821 
L 948.812195 227.99266 
L 949.194502 227.184036 
L 949.385655 226.375412 
L 949.767961 225.735252 
L 949.959114 225.33094 
L 950.91488 220.479198 
L 951.297187 219.771652 
L 951.48834 217.985941 
L 951.679493 214.481905 
L 951.870646 213.100506 
L 952.061799 210.876791 
L 952.252953 210.304016 
L 952.635259 207.81076 
L 953.017565 204.374109 
L 953.399872 199.758215 
L 953.782178 199.050669 
L 954.164484 193.087069 
L 954.355637 191.503515 
L 954.737944 184.798676 
L 955.12025 183.518355 
L 955.311403 180.081705 
L 955.502556 179.306774 
L 955.884863 175.533196 
L 956.267169 165.4254 
L 956.458322 164.852625 
L 956.649475 163.90923 
L 956.840629 160.742121 
L 957.031782 160.47258 
L 957.414088 155.384989 
L 957.605241 155.283911 
L 957.796394 154.946984 
L 958.178701 153.734049 
L 958.369854 153.4982 
L 958.561007 152.925425 
L 958.75216 151.84726 
L 959.134467 151.645104 
L 959.32562 151.106022 
L 959.707926 149.421389 
L 960.090233 146.220587 
L 960.281386 145.580426 
L 960.472539 145.513041 
L 960.663692 145.209807 
L 961.619458 142.345931 
L 961.810611 142.244853 
L 962.001764 141.571 
L 962.384071 141.234074 
L 962.575224 141.099303 
L 962.766377 140.593913 
L 962.95753 140.42545 
L 963.53099 139.616826 
L 964.104449 138.77451 
L 964.486755 138.639739 
L 965.442521 137.426804 
L 965.824828 137.25834 
L 966.398287 137.190955 
L 966.780593 136.685565 
L 967.1629 136.584487 
L 967.736359 135.97802 
L 968.500972 135.540015 
L 969.265585 134.596621 
L 969.456738 134.091231 
L 970.221351 133.855382 
L 970.603657 133.518456 
L 970.985963 132.878295 
L 971.559423 132.339213 
L 971.941729 130.957814 
L 972.132882 130.721965 
L 972.897495 130.418732 
L 974.044414 129.340567 
L 974.42672 129.071025 
L 974.617874 128.902562 
L 974.809027 128.093938 
L 975.573639 127.453778 
L 975.764793 127.083159 
L 976.147099 126.813617 
L 976.529405 126.544076 
L 977.676324 125.668067 
L 978.440937 125.263755 
L 978.63209 125.162677 
L 979.014396 123.983434 
L 979.20555 123.882356 
L 979.587856 123.309581 
L 980.161315 122.500958 
L 980.543622 122.332494 
L 981.117081 121.321715 
L 981.308234 120.412013 
L 981.499388 120.108779 
L 981.881694 119.974009 
L 982.072847 119.569697 
L 983.793226 118.255683 
L 984.175532 117.514445 
L 984.366685 117.413367 
L 984.557838 113.336556 
L 984.940145 112.662702 
L 985.322451 112.12362 
L 985.513604 111.685615 
L 985.704757 111.651923 
L 986.087064 111.11284 
L 986.278217 110.405295 
L 987.425136 108.922818 
L 987.616289 108.518506 
L 987.998595 106.16002 
L 988.189749 105.51986 
L 988.380902 104.408002 
L 988.572055 104.104768 
L 988.763208 102.420135 
L 989.145514 101.173507 
L 989.336668 100.19642 
L 990.10128 99.151948 
L 990.865893 97.501008 
L 991.439353 97.197774 
L 992.012812 96.523921 
L 992.203965 95.984838 
L 992.395118 95.782682 
L 992.586272 95.310985 
L 992.777425 95.2436 
L 993.542037 93.895894 
L 993.924344 93.120963 
L 994.115497 92.952499 
L 994.30665 91.739564 
L 994.497803 91.571101 
L 994.88011 91.032018 
L 995.262416 90.762477 
L 996.218182 89.28 
L 996.218182 89.28 
" clip-path="url(#p9c143283b7)" style="fill: none; stroke: #1f77b4; stroke-width: 1.5; stroke-linecap: square"/>
   </g>
   <g id="patch_3">
    <path d="M 144 512.64 
L 144 69.12 
" style="fill: none; stroke: #000000; stroke-width: 0.8; stroke-linejoin: miter; stroke-linecap: square"/>
   </g>
   <g id="patch_4">
    <path d="M 1036.8 512.64 
L 1036.8 69.12 
" style="fill: none; stroke: #000000; stroke-width: 0.8; stroke-linejoin: miter; stroke-linecap: square"/>
   </g>
   <g id="patch_5">
    <path d="M 144 512.64 
L 1036.8 512.64 
" style="fill: none; stroke: #000000; stroke-width: 0.8; stroke-linejoin: miter; stroke-linecap: square"/>
   </g>
   <g id="patch_6">
    <path d="M 144 69.12 
L 1036.8 69.12 
" style="fill: none; stroke: #000000; stroke-width: 0.8; stroke-linejoin: miter; stroke-linecap: square"/>
   </g>
   <g id="text_15">
    <!-- Number of AEDs in the OpenStreetMap database in Poland from first edition, day by day. As at: 2025-09-26 -->
    <g transform="translate(144 63.12) scale(0.14 -0.14)">
     <defs>
      <path id="DejaVuSans-4e" d="M 628 4666 
L 1478 4666 
L 3547 763 
L 3547 4666 
L 4159 4666 
L 4159 0 
L 3309 0 
L 1241 3903 
L 1241 0 
L 628 0 
L 628 4666 
z
" transform="scale(0.015625)"/>
      <path id="DejaVuSans-75" d="M 544 1381 
L 544 3500 
L 1119 3500 
L 1119 1403 
Q 1119 906 1312 657 
Q 1506 409 1894 409 
Q 2359 409 2629 706 
Q 2900 1003 2900 1516 
L 2900 3500 
L 3475 3500 
L 3475 0 
L 2900 0 
L 2900 538 
Q 2691 219 2414 64 
Q 2138 -91 1772 -91 
Q 1169 -91 856 284 
Q 544 659 544 1381 
z
M 1991 3584 
L 1991 3584 
z
" transform="scale(0.015625)"/>
      <path id="DejaVuSans-6d" d="M 3328 2828 
Q 3544 3216 3844 3400 
Q 4144 3584 4550 3584 
Q 5097 3584 5394 3201 
Q 5691 2819 5691 2113 
L 5691 0 
L 5113 0 
L 5113 2094 
Q 5113 2597 4934 2840 
Q 4756 3084 4391 3084 
Q 3944 3084 3684 2787 
Q 3425 2491 3425 1978 
L 3425 0 
L 2847 0 
L 2847 2094 
Q 2847 2600 2669 2842 
Q 2491 3084 2119 3084 
Q 1678 3084 1418 2786 
Q 1159 2488 1159 1978 
L 1159 0 
L 581 0 
L 581 3500 
L 1159 3500 
L 1159 2956 
Q 1356 3278 1631 3431 
Q 1906 3584 2284 3584 
Q 2666 3584 2933 3390 
Q 3200 3197 3328 2828 
z
" transform="scale(0.015625)"/>
      <path id="DejaVuSans-62" d="M 3116 1747 
Q 3116 2381 2855 2742 
Q 2594 3103 2138 3103 
Q 1681 3103 1420 2742 
Q 1159 2381 1159 1747 
Q 1159 1113 1420 752 
Q 1681 391 2138 391 
Q 2594 391 2855 752 
Q 3116 1113 3116 1747 
z
M 1159 2969 
Q 1341 3281 1617 3432 
Q 1894 3584 2278 3584 
Q 2916 3584 3314 3078 
Q 3713 2572 3713 1747 
Q 3713 922 3314 415 
Q 2916 -91 2278 -91 
Q 1894 -91 1617 61 
Q 1341 213 1159 525 
L 1159 0 
L 581 0 
L 581 4863 
L 1159 4863 
L 1159 2969 
z
" transform="scale(0.015625)"/>
      <path id="DejaVuSans-65" d="M 3597 1894 
L 3597 1613 
L 953 1613 
Q 991 1019 1311 708 
Q 1631 397 2203 397 
Q 2534 397 2845 478 
Q 3156 559 3463 722 
L 3463 178 
Q 3153 47 2828 -22 
Q 2503 -91 2169 -91 
Q 1331 -91 842 396 
Q 353 884 353 1716 
Q 353 2575 817 3079 
Q 1281 3584 2069 3584 
Q 2775 3584 3186 3129 
Q 3597 2675 3597 1894 
z
M 3022 2063 
Q 3016 2534 2758 2815 
Q 2500 3097 2075 3097 
Q 1594 3097 1305 2825 
Q 1016 2553 972 2059 
L 3022 2063 
z
" transform="scale(0.015625)"/>
      <path id="DejaVuSans-72" d="M 2631 2963 
Q 2534 3019 2420 3045 
Q 2306 3072 2169 3072 
Q 1681 3072 1420 2755 
Q 1159 2438 1159 1844 
L 1159 0 
L 581 0 
L 581 3500 
L 1159 3500 
L 1159 2956 
Q 1341 3275 1631 3429 
Q 1922 3584 2338 3584 
Q 2397 3584 2469 3576 
Q 2541 3569 2628 3553 
L 2631 2963 
z
" transform="scale(0.015625)"/>
      <path id="DejaVuSans-20" transform="scale(0.015625)"/>
      <path id="DejaVuSans-6f" d="M 1959 3097 
Q 1497 3097 1228 2736 
Q 959 2375 959 1747 
Q 959 1119 1226 758 
Q 1494 397 1959 397 
Q 2419 397 2687 759 
Q 2956 1122 2956 1747 
Q 2956 2369 2687 2733 
Q 2419 3097 1959 3097 
z
M 1959 3584 
Q 2709 3584 3137 3096 
Q 3566 2609 3566 1747 
Q 3566 888 3137 398 
Q 2709 -91 1959 -91 
Q 1206 -91 779 398 
Q 353 888 353 1747 
Q 353 2609 779 3096 
Q 1206 3584 1959 3584 
z
" transform="scale(0.015625)"/>
      <path id="DejaVuSans-66" d="M 2375 4863 
L 2375 4384 
L 1825 4384 
Q 1516 4384 1395 4259 
Q 1275 4134 1275 3809 
L 1275 3500 
L 2222 3500 
L 2222 3053 
L 1275 3053 
L 1275 0 
L 697 0 
L 697 3053 
L 147 3053 
L 147 3500 
L 697 3500 
L 697 3744 
Q 697 4328 969 4595 
Q 1241 4863 1831 4863 
L 2375 4863 
z
" transform="scale(0.015625)"/>
      <path id="DejaVuSans-41" d="M 2188 4044 
L 1331 1722 
L 3047 1722 
L 2188 4044 
z
M 1831 4666 
L 2547 4666 
L 4325 0 
L 3669 0 
L 3244 1197 
L 1141 1197 
L 716 0 
L 50 0 
L 1831 4666 
z
" transform="scale(0.015625)"/>
      <path id="DejaVuSans-45" d="M 628 4666 
L 3578 4666 
L 3578 4134 
L 1259 4134 
L 1259 2753 
L 3481 2753 
L 3481 2222 
L 1259 2222 
L 1259 531 
L 3634 531 
L 3634 0 
L 628 0 
L 628 4666 
z
" transform="scale(0.015625)"/>
      <path id="DejaVuSans-44" d="M 1259 4147 
L 1259 519 
L 2022 519 
Q 2988 519 3436 956 
Q 3884 1394 3884 2338 
Q 3884 3275 3436 3711 
Q 2988 4147 2022 4147 
L 1259 4147 
z
M 628 4666 
L 1925 4666 
Q 3281 4666 3915 4102 
Q 4550 3538 4550 2338 
Q 4550 1131 3912 565 
Q 3275 0 1925 0 
L 628 0 
L 628 4666 
z
" transform="scale(0.015625)"/>
      <path id="DejaVuSans-73" d="M 2834 3397 
L 2834 2853 
Q 2591 2978 2328 3040 
Q 2066 3103 1784 3103 
Q 1356 3103 1142 2972 
Q 928 2841 928 2578 
Q 928 2378 1081 2264 
Q 1234 2150 1697 2047 
L 1894 2003 
Q 2506 1872 2764 1633 
Q 3022 1394 3022 966 
Q 3022 478 2636 193 
Q 2250 -91 1575 -91 
Q 1294 -91 989 -36 
Q 684 19 347 128 
L 347 722 
Q 666 556 975 473 
Q 1284 391 1588 391 
Q 1994 391 2212 530 
Q 2431 669 2431 922 
Q 2431 1156 2273 1281 
Q 2116 1406 1581 1522 
L 1381 1569 
Q 847 1681 609 1914 
Q 372 2147 372 2553 
Q 372 3047 722 3315 
Q 1072 3584 1716 3584 
Q 2034 3584 2315 3537 
Q 2597 3491 2834 3397 
z
" transform="scale(0.015625)"/>
      <path id="DejaVuSans-69" d="M 603 3500 
L 1178 3500 
L 1178 0 
L 603 0 
L 603 3500 
z
M 603 4863 
L 1178 4863 
L 1178 4134 
L 603 4134 
L 603 4863 
z
" transform="scale(0.015625)"/>
      <path id="DejaVuSans-6e" d="M 3513 2113 
L 3513 0 
L 2938 0 
L 2938 2094 
Q 2938 2591 2744 2837 
Q 2550 3084 2163 3084 
Q 1697 3084 1428 2787 
Q 1159 2491 1159 1978 
L 1159 0 
L 581 0 
L 581 3500 
L 1159 3500 
L 1159 2956 
Q 1366 3272 1645 3428 
Q 1925 3584 2291 3584 
Q 2894 3584 3203 3211 
Q 3513 2838 3513 2113 
z
" transform="scale(0.015625)"/>
      <path id="DejaVuSans-74" d="M 1172 4494 
L 1172 3500 
L 2356 3500 
L 2356 3053 
L 1172 3053 
L 1172 1153 
Q 1172 725 1289 603 
Q 1406 481 1766 481 
L 2356 481 
L 2356 0 
L 1766 0 
Q 1100 0 847 248 
Q 594 497 594 1153 
L 594 3053 
L 172 3053 
L 172 3500 
L 594 3500 
L 594 4494 
L 1172 4494 
z
" transform="scale(0.015625)"/>
      <path id="DejaVuSans-68" d="M 3513 2113 
L 3513 0 
L 2938 0 
L 2938 2094 
Q 2938 2591 2744 2837 
Q 2550 3084 2163 3084 
Q 1697 3084 1428 2787 
Q 1159 2491 1159 1978 
L 1159 0 
L 581 0 
L 581 4863 
L 1159 4863 
L 1159 2956 
Q 1366 3272 1645 3428 
Q 1925 3584 2291 3584 
Q 2894 3584 3203 3211 
Q 3513 2838 3513 2113 
z
" transform="scale(0.015625)"/>
      <path id="DejaVuSans-4f" d="M 2522 4238 
Q 1834 4238 1429 3725 
Q 1025 3213 1025 2328 
Q 1025 1447 1429 934 
Q 1834 422 2522 422 
Q 3209 422 3611 934 
Q 4013 1447 4013 2328 
Q 4013 3213 3611 3725 
Q 3209 4238 2522 4238 
z
M 2522 4750 
Q 3503 4750 4090 4092 
Q 4678 3434 4678 2328 
Q 4678 1225 4090 567 
Q 3503 -91 2522 -91 
Q 1538 -91 948 565 
Q 359 1222 359 2328 
Q 359 3434 948 4092 
Q 1538 4750 2522 4750 
z
" transform="scale(0.015625)"/>
      <path id="DejaVuSans-70" d="M 1159 525 
L 1159 -1331 
L 581 -1331 
L 581 3500 
L 1159 3500 
L 1159 2969 
Q 1341 3281 1617 3432 
Q 1894 3584 2278 3584 
Q 2916 3584 3314 3078 
Q 3713 2572 3713 1747 
Q 3713 922 3314 415 
Q 2916 -91 2278 -91 
Q 1894 -91 1617 61 
Q 1341 213 1159 525 
z
M 3116 1747 
Q 3116 2381 2855 2742 
Q 2594 3103 2138 3103 
Q 1681 3103 1420 2742 
Q 1159 2381 1159 1747 
Q 1159 1113 1420 752 
Q 1681 391 2138 391 
Q 2594 391 2855 752 
Q 3116 1113 3116 1747 
z
" transform="scale(0.015625)"/>
      <path id="DejaVuSans-53" d="M 3425 4513 
L 3425 3897 
Q 3066 4069 2747 4153 
Q 2428 4238 2131 4238 
Q 1616 4238 1336 4038 
Q 1056 3838 1056 3469 
Q 1056 3159 1242 3001 
Q 1428 2844 1947 2747 
L 2328 2669 
Q 3034 2534 3370 2195 
Q 3706 1856 3706 1288 
Q 3706 609 3251 259 
Q 2797 -91 1919 -91 
Q 1588 -91 1214 -16 
Q 841 59 441 206 
L 441 856 
Q 825 641 1194 531 
Q 1563 422 1919 422 
Q 2459 422 2753 634 
Q 3047 847 3047 1241 
Q 3047 1584 2836 1778 
Q 2625 1972 2144 2069 
L 1759 2144 
Q 1053 2284 737 2584 
Q 422 2884 422 3419 
Q 422 4038 858 4394 
Q 1294 4750 2059 4750 
Q 2388 4750 2728 4690 
Q 3069 4631 3425 4513 
z
" transform="scale(0.015625)"/>
      <path id="DejaVuSans-4d" d="M 628 4666 
L 1569 4666 
L 2759 1491 
L 3956 4666 
L 4897 4666 
L 4897 0 
L 4281 0 
L 4281 4097 
L 3078 897 
L 2444 897 
L 1241 4097 
L 1241 0 
L 628 0 
L 628 4666 
z
" transform="scale(0.015625)"/>
      <path id="DejaVuSans-61" d="M 2194 1759 
Q 1497 1759 1228 1600 
Q 959 1441 959 1056 
Q 959 750 1161 570 
Q 1363 391 1709 391 
Q 2188 391 2477 730 
Q 2766 1069 2766 1631 
L 2766 1759 
L 2194 1759 
z
M 3341 1997 
L 3341 0 
L 2766 0 
L 2766 531 
Q 2569 213 2275 61 
Q 1981 -91 1556 -91 
Q 1019 -91 701 211 
Q 384 513 384 1019 
Q 384 1609 779 1909 
Q 1175 2209 1959 2209 
L 2766 2209 
L 2766 2266 
Q 2766 2663 2505 2880 
Q 2244 3097 1772 3097 
Q 1472 3097 1187 3025 
Q 903 2953 641 2809 
L 641 3341 
Q 956 3463 1253 3523 
Q 1550 3584 1831 3584 
Q 2591 3584 2966 3190 
Q 3341 2797 3341 1997 
z
" transform="scale(0.015625)"/>
      <path id="DejaVuSans-64" d="M 2906 2969 
L 2906 4863 
L 3481 4863 
L 3481 0 
L 2906 0 
L 2906 525 
Q 2725 213 2448 61 
Q 2172 -91 1784 -91 
Q 1150 -91 751 415 
Q 353 922 353 1747 
Q 353 2572 751 3078 
Q 1150 3584 1784 3584 
Q 2172 3584 2448 3432 
Q 2725 3281 2906 2969 
z
M 947 1747 
Q 947 1113 1208 752 
Q 1469 391 1925 391 
Q 2381 391 2643 752 
Q 2906 1113 2906 1747 
Q 2906 2381 2643 2742 
Q 2381 3103 1925 3103 
Q 1469 3103 1208 2742 
Q 947 2381 947 1747 
z
" transform="scale(0.015625)"/>
      <path id="DejaVuSans-50" d="M 1259 4147 
L 1259 2394 
L 2053 2394 
Q 2494 2394 2734 2622 
Q 2975 2850 2975 3272 
Q 2975 3691 2734 3919 
Q 2494 4147 2053 4147 
L 1259 4147 
z
M 628 4666 
L 2053 4666 
Q 2838 4666 3239 4311 
Q 3641 3956 3641 3272 
Q 3641 2581 3239 2228 
Q 2838 1875 2053 1875 
L 1259 1875 
L 1259 0 
L 628 0 
L 628 4666 
z
" transform="scale(0.015625)"/>
      <path id="DejaVuSans-6c" d="M 603 4863 
L 1178 4863 
L 1178 0 
L 603 0 
L 603 4863 
z
" transform="scale(0.015625)"/>
      <path id="DejaVuSans-2c" d="M 750 794 
L 1409 794 
L 1409 256 
L 897 -744 
L 494 -744 
L 750 256 
L 750 794 
z
" transform="scale(0.015625)"/>
      <path id="DejaVuSans-79" d="M 2059 -325 
Q 1816 -950 1584 -1140 
Q 1353 -1331 966 -1331 
L 506 -1331 
L 506 -850 
L 844 -850 
Q 1081 -850 1212 -737 
Q 1344 -625 1503 -206 
L 1606 56 
L 191 3500 
L 800 3500 
L 1894 763 
L 2988 3500 
L 3597 3500 
L 2059 -325 
z
" transform="scale(0.015625)"/>
      <path id="DejaVuSans-2e" d="M 684 794 
L 1344 794 
L 1344 0 
L 684 0 
L 684 794 
z
" transform="scale(0.015625)"/>
      <path id="DejaVuSans-3a" d="M 750 794 
L 1409 794 
L 1409 0 
L 750 0 
L 750 794 
z
M 750 3309 
L 1409 3309 
L 1409 2516 
L 750 2516 
L 750 3309 
z
" transform="scale(0.015625)"/>
      <path id="DejaVuSans-35" d="M 691 4666 
L 3169 4666 
L 3169 4134 
L 1269 4134 
L 1269 2991 
Q 1406 3038 1543 3061 
Q 1681 3084 1819 3084 
Q 2600 3084 3056 2656 
Q 3513 2228 3513 1497 
Q 3513 744 3044 326 
Q 2575 -91 1722 -91 
Q 1428 -91 1123 -41 
Q 819 9 494 109 
L 494 744 
Q 775 591 1075 516 
Q 1375 441 1709 441 
Q 2250 441 2565 725 
Q 2881 1009 2881 1497 
Q 2881 1984 2565 2268 
Q 2250 2553 1709 2553 
Q 1456 2553 1204 2497 
Q 953 2441 691 2322 
L 691 4666 
z
" transform="scale(0.015625)"/>
      <path id="DejaVuSans-2d" d="M 313 2009 
L 1997 2009 
L 1997 1497 
L 313 1497 
L 313 2009 
z
" transform="scale(0.015625)"/>
      <path id="DejaVuSans-39" d="M 703 97 
L 703 672 
Q 941 559 1184 500 
Q 1428 441 1663 441 
Q 2288 441 2617 861 
Q 2947 1281 2994 2138 
Q 2813 1869 2534 1725 
Q 2256 1581 1919 1581 
Q 1219 1581 811 2004 
Q 403 2428 403 3163 
Q 403 3881 828 4315 
Q 1253 4750 1959 4750 
Q 2769 4750 3195 4129 
Q 3622 3509 3622 2328 
Q 3622 1225 3098 567 
Q 2575 -91 1691 -91 
Q 1453 -91 1209 -44 
Q 966 3 703 97 
z
M 1959 2075 
Q 2384 2075 2632 2365 
Q 2881 2656 2881 3163 
Q 2881 3666 2632 3958 
Q 2384 4250 1959 4250 
Q 1534 4250 1286 3958 
Q 1038 3666 1038 3163 
Q 1038 2656 1286 2365 
Q 1534 2075 1959 2075 
z
" transform="scale(0.015625)"/>
     </defs>
     <use xlink:href="#DejaVuSans-4e"/>
     <use xlink:href="#DejaVuSans-75" x="74.804688"/>
     <use xlink:href="#DejaVuSans-6d" x="138.183594"/>
     <use xlink:href="#DejaVuSans-62" x="235.595703"/>
     <use xlink:href="#DejaVuSans-65" x="299.072266"/>
     <use xlink:href="#DejaVuSans-72" x="360.595703"/>
     <use xlink:href="#DejaVuSans-20" x="401.708984"/>
     <use xlink:href="#DejaVuSans-6f" x="433.496094"/>
     <use xlink:href="#DejaVuSans-66" x="494.677734"/>
     <use xlink:href="#DejaVuSans-20" x="529.882812"/>
     <use xlink:href="#DejaVuSans-41" x="561.669922"/>
     <use xlink:href="#DejaVuSans-45" x="630.078125"/>
     <use xlink:href="#DejaVuSans-44" x="693.261719"/>
     <use xlink:href="#DejaVuSans-73" x="770.263672"/>
     <use xlink:href="#DejaVuSans-20" x="822.363281"/>
     <use xlink:href="#DejaVuSans-69" x="854.150391"/>
     <use xlink:href="#DejaVuSans-6e" x="881.933594"/>
     <use xlink:href="#DejaVuSans-20" x="945.3125"/>
     <use xlink:href="#DejaVuSans-74" x="977.099609"/>
     <use xlink:href="#DejaVuSans-68" x="1016.308594"/>
     <use xlink:href="#DejaVuSans-65" x="1079.6875"/>
     <use xlink:href="#DejaVuSans-20" x="1141.210938"/>
     <use xlink:href="#DejaVuSans-4f" x="1172.998047"/>
     <use xlink:href="#DejaVuSans-70" x="1251.708984"/>
     <use xlink:href="#DejaVuSans-65" x="1315.185547"/>
     <use xlink:href="#DejaVuSans-6e" x="1376.708984"/>
     <use xlink:href="#DejaVuSans-53" x="1440.087891"/>
     <use xlink:href="#DejaVuSans-74" x="1503.564453"/>
     <use xlink:href="#DejaVuSans-72" x="1542.773438"/>
     <use xlink:href="#DejaVuSans-65" x="1581.636719"/>
     <use xlink:href="#DejaVuSans-65" x="1643.160156"/>
     <use xlink:href="#DejaVuSans-74" x="1704.683594"/>
     <use xlink:href="#DejaVuSans-4d" x="1743.892578"/>
     <use xlink:href="#DejaVuSans-61" x="1830.171875"/>
     <use xlink:href="#DejaVuSans-70" x="1891.451172"/>
     <use xlink:href="#DejaVuSans-20" x="1954.927734"/>
     <use xlink:href="#DejaVuSans-64" x="1986.714844"/>
     <use xlink:href="#DejaVuSans-61" x="2050.191406"/>
     <use xlink:href="#DejaVuSans-74" x="2111.470703"/>
     <use xlink:href="#DejaVuSans-61" x="2150.679688"/>
     <use xlink:href="#DejaVuSans-62" x="2211.958984"/>
     <use xlink:href="#DejaVuSans-61" x="2275.435547"/>
     <use xlink:href="#DejaVuSans-73" x="2336.714844"/>
     <use xlink:href="#DejaVuSans-65" x="2388.814453"/>
     <use xlink:href="#DejaVuSans-20" x="2450.337891"/>
     <use xlink:href="#DejaVuSans-69" x="2482.125"/>
     <use xlink:href="#DejaVuSans-6e" x="2509.908203"/>
     <use xlink:href="#DejaVuSans-20" x="2573.287109"/>
     <use xlink:href="#DejaVuSans-50" x="2605.074219"/>
     <use xlink:href="#DejaVuSans-6f" x="2661.751953"/>
     <use xlink:href="#DejaVuSans-6c" x="2722.933594"/>
     <use xlink:href="#DejaVuSans-61" x="2750.716797"/>
     <use xlink:href="#DejaVuSans-6e" x="2811.996094"/>
     <use xlink:href="#DejaVuSans-64" x="2875.375"/>
     <use xlink:href="#DejaVuSans-20" x="2938.851562"/>
     <use xlink:href="#DejaVuSans-66" x="2970.638672"/>
     <use xlink:href="#DejaVuSans-72" x="3005.84375"/>
     <use xlink:href="#DejaVuSans-6f" x="3044.707031"/>
     <use xlink:href="#DejaVuSans-6d" x="3105.888672"/>
     <use xlink:href="#DejaVuSans-20" x="3203.300781"/>
     <use xlink:href="#DejaVuSans-66" x="3235.087891"/>
     <use xlink:href="#DejaVuSans-69" x="3270.292969"/>
     <use xlink:href="#DejaVuSans-72" x="3298.076172"/>
     <use xlink:href="#DejaVuSans-73" x="3339.189453"/>
     <use xlink:href="#DejaVuSans-74" x="3391.289062"/>
     <use xlink:href="#DejaVuSans-20" x="3430.498047"/>
     <use xlink:href="#DejaVuSans-65" x="3462.285156"/>
     <use xlink:href="#DejaVuSans-64" x="3523.808594"/>
     <use xlink:href="#DejaVuSans-69" x="3587.285156"/>
     <use xlink:href="#DejaVuSans-74" x="3615.068359"/>
     <use xlink:href="#DejaVuSans-69" x="3654.277344"/>
     <use xlink:href="#DejaVuSans-6f" x="3682.060547"/>
     <use xlink:href="#DejaVuSans-6e" x="3743.242188"/>
     <use xlink:href="#DejaVuSans-2c" x="3806.621094"/>
     <use xlink:href="#DejaVuSans-20" x="3838.408203"/>
     <use xlink:href="#DejaVuSans-64" x="3870.195312"/>
     <use xlink:href="#DejaVuSans-61" x="3933.671875"/>
     <use xlink:href="#DejaVuSans-79" x="3994.951172"/>
     <use xlink:href="#DejaVuSans-20" x="4054.130859"/>
     <use xlink:href="#DejaVuSans-62" x="4085.917969"/>
     <use xlink:href="#DejaVuSans-79" x="4149.394531"/>
     <use xlink:href="#DejaVuSans-20" x="4208.574219"/>
     <use xlink:href="#DejaVuSans-64" x="4240.361328"/>
     <use xlink:href="#DejaVuSans-61" x="4303.837891"/>
     <use xlink:href="#DejaVuSans-79" x="4365.117188"/>
     <use xlink:href="#DejaVuSans-2e" x="4410.046875"/>
     <use xlink:href="#DejaVuSans-20" x="4441.833984"/>
     <use xlink:href="#DejaVuSans-41" x="4473.621094"/>
     <use xlink:href="#DejaVuSans-73" x="4542.029297"/>
     <use xlink:href="#DejaVuSans-20" x="4594.128906"/>
     <use xlink:href="#DejaVuSans-61" x="4625.916016"/>
     <use xlink:href="#DejaVuSans-74" x="4687.195312"/>
     <use xlink:href="#DejaVuSans-3a" x="4726.404297"/>
     <use xlink:href="#DejaVuSans-20" x="4760.095703"/>
     <use xlink:href="#DejaVuSans-32" x="4791.882812"/>
     <use xlink:href="#DejaVuSans-30" x="4855.505859"/>
     <use xlink:href="#DejaVuSans-32" x="4919.128906"/>
     <use xlink:href="#DejaVuSans-35" x="4982.751953"/>
     <use xlink:href="#DejaVuSans-2d" x="5046.375"/>
     <use xlink:href="#DejaVuSans-30" x="5082.458984"/>
     <use xlink:href="#DejaVuSans-39" x="5146.082031"/>
     <use xlink:href="#DejaVuSans-2d" x="5209.705078"/>
     <use xlink:href="#DejaVuSans-32" x="5245.789062"/>
     <use xlink:href="#DejaVuSans-36" x="5309.412109"/>
    </g>
   </g>
  </g>
 </g>
 <defs>
  <clipPath id="p9c143283b7">
   <rect x="144" y="69.12" width="892.8" height="443.52"/>
  </clipPath>
 </defs>
</svg>
