<?xml version="1.0" encoding="utf-8" standalone="no"?>
<!DOCTYPE svg PUBLIC "-//W3C//DTD SVG 1.1//EN"
  "http://www.w3.org/Graphics/SVG/1.1/DTD/svg11.dtd">
<svg xmlns:xlink="http://www.w3.org/1999/xlink" width="1152pt" height="576pt" viewBox="0 0 1152 576" xmlns="http://www.w3.org/2000/svg" version="1.1">
 <metadata>
  <rdf:RDF xmlns:dc="http://purl.org/dc/elements/1.1/" xmlns:cc="http://creativecommons.org/ns#" xmlns:rdf="http://www.w3.org/1999/02/22-rdf-syntax-ns#">
   <cc:Work>
    <dc:type rdf:resource="http://purl.org/dc/dcmitype/StillImage"/>
    <dc:date>1980-01-01T00:00:00+00:00</dc:date>
    <dc:format>image/svg+xml</dc:format>
    <dc:creator>
     <cc:Agent>
      <dc:title>Matplotlib v3.9.1, https://matplotlib.org/</dc:title>
     </cc:Agent>
    </dc:creator>
   </cc:Work>
  </rdf:RDF>
 </metadata>
 <defs>
  <style type="text/css">*{stroke-linejoin: round; stroke-linecap: butt}</style>
 </defs>
 <g id="figure_1">
  <g id="patch_1">
   <path d="M 0 576 
L 1152 576 
L 1152 0 
L 0 0 
z
" style="fill: #ffffff"/>
  </g>
  <g id="axes_1">
   <g id="patch_2">
    <path d="M 144 512.64 
L 1036.8 512.64 
L 1036.8 69.12 
L 144 69.12 
z
" style="fill: #ffffff"/>
   </g>
   <g id="matplotlib.axis_1">
    <g id="xtick_1">
     <g id="line2d_1">
      <defs>
       <path id="mfe120452f6" d="M 0 0 
L 0 3.5 
" style="stroke: #000000; stroke-width: 0.8"/>
      </defs>
      <g>
       <use xlink:href="#mfe120452f6" x="176.308257" y="512.64" style="stroke: #000000; stroke-width: 0.8"/>
      </g>
     </g>
     <g id="text_1">
      <!-- 2014 -->
      <g transform="translate(163.583257 527.238438) scale(0.1 -0.1)">
       <defs>
        <path id="DejaVuSans-32" d="M 1228 531 
L 3431 531 
L 3431 0 
L 469 0 
L 469 531 
Q 828 903 1448 1529 
Q 2069 2156 2228 2338 
Q 2531 2678 2651 2914 
Q 2772 3150 2772 3378 
Q 2772 3750 2511 3984 
Q 2250 4219 1831 4219 
Q 1534 4219 1204 4116 
Q 875 4013 500 3803 
L 500 4441 
Q 881 4594 1212 4672 
Q 1544 4750 1819 4750 
Q 2544 4750 2975 4387 
Q 3406 4025 3406 3419 
Q 3406 3131 3298 2873 
Q 3191 2616 2906 2266 
Q 2828 2175 2409 1742 
Q 1991 1309 1228 531 
z
" transform="scale(0.015625)"/>
        <path id="DejaVuSans-30" d="M 2034 4250 
Q 1547 4250 1301 3770 
Q 1056 3291 1056 2328 
Q 1056 1369 1301 889 
Q 1547 409 2034 409 
Q 2525 409 2770 889 
Q 3016 1369 3016 2328 
Q 3016 3291 2770 3770 
Q 2525 4250 2034 4250 
z
M 2034 4750 
Q 2819 4750 3233 4129 
Q 3647 3509 3647 2328 
Q 3647 1150 3233 529 
Q 2819 -91 2034 -91 
Q 1250 -91 836 529 
Q 422 1150 422 2328 
Q 422 3509 836 4129 
Q 1250 4750 2034 4750 
z
" transform="scale(0.015625)"/>
        <path id="DejaVuSans-31" d="M 794 531 
L 1825 531 
L 1825 4091 
L 703 3866 
L 703 4441 
L 1819 4666 
L 2450 4666 
L 2450 531 
L 3481 531 
L 3481 0 
L 794 0 
L 794 531 
z
" transform="scale(0.015625)"/>
        <path id="DejaVuSans-34" d="M 2419 4116 
L 825 1625 
L 2419 1625 
L 2419 4116 
z
M 2253 4666 
L 3047 4666 
L 3047 1625 
L 3713 1625 
L 3713 1100 
L 3047 1100 
L 3047 0 
L 2419 0 
L 2419 1100 
L 313 1100 
L 313 1709 
L 2253 4666 
z
" transform="scale(0.015625)"/>
       </defs>
       <use xlink:href="#DejaVuSans-32"/>
       <use xlink:href="#DejaVuSans-30" x="63.623047"/>
       <use xlink:href="#DejaVuSans-31" x="127.246094"/>
       <use xlink:href="#DejaVuSans-34" x="190.869141"/>
      </g>
     </g>
    </g>
    <g id="xtick_2">
     <g id="line2d_2">
      <g>
       <use xlink:href="#mfe120452f6" x="327.300751" y="512.64" style="stroke: #000000; stroke-width: 0.8"/>
      </g>
     </g>
     <g id="text_2">
      <!-- 2016 -->
      <g transform="translate(314.575751 527.238438) scale(0.1 -0.1)">
       <defs>
        <path id="DejaVuSans-36" d="M 2113 2584 
Q 1688 2584 1439 2293 
Q 1191 2003 1191 1497 
Q 1191 994 1439 701 
Q 1688 409 2113 409 
Q 2538 409 2786 701 
Q 3034 994 3034 1497 
Q 3034 2003 2786 2293 
Q 2538 2584 2113 2584 
z
M 3366 4563 
L 3366 3988 
Q 3128 4100 2886 4159 
Q 2644 4219 2406 4219 
Q 1781 4219 1451 3797 
Q 1122 3375 1075 2522 
Q 1259 2794 1537 2939 
Q 1816 3084 2150 3084 
Q 2853 3084 3261 2657 
Q 3669 2231 3669 1497 
Q 3669 778 3244 343 
Q 2819 -91 2113 -91 
Q 1303 -91 875 529 
Q 447 1150 447 2328 
Q 447 3434 972 4092 
Q 1497 4750 2381 4750 
Q 2619 4750 2861 4703 
Q 3103 4656 3366 4563 
z
" transform="scale(0.015625)"/>
       </defs>
       <use xlink:href="#DejaVuSans-32"/>
       <use xlink:href="#DejaVuSans-30" x="63.623047"/>
       <use xlink:href="#DejaVuSans-31" x="127.246094"/>
       <use xlink:href="#DejaVuSans-36" x="190.869141"/>
      </g>
     </g>
    </g>
    <g id="xtick_3">
     <g id="line2d_3">
      <g>
       <use xlink:href="#mfe120452f6" x="478.500083" y="512.64" style="stroke: #000000; stroke-width: 0.8"/>
      </g>
     </g>
     <g id="text_3">
      <!-- 2018 -->
      <g transform="translate(465.775083 527.238438) scale(0.1 -0.1)">
       <defs>
        <path id="DejaVuSans-38" d="M 2034 2216 
Q 1584 2216 1326 1975 
Q 1069 1734 1069 1313 
Q 1069 891 1326 650 
Q 1584 409 2034 409 
Q 2484 409 2743 651 
Q 3003 894 3003 1313 
Q 3003 1734 2745 1975 
Q 2488 2216 2034 2216 
z
M 1403 2484 
Q 997 2584 770 2862 
Q 544 3141 544 3541 
Q 544 4100 942 4425 
Q 1341 4750 2034 4750 
Q 2731 4750 3128 4425 
Q 3525 4100 3525 3541 
Q 3525 3141 3298 2862 
Q 3072 2584 2669 2484 
Q 3125 2378 3379 2068 
Q 3634 1759 3634 1313 
Q 3634 634 3220 271 
Q 2806 -91 2034 -91 
Q 1263 -91 848 271 
Q 434 634 434 1313 
Q 434 1759 690 2068 
Q 947 2378 1403 2484 
z
M 1172 3481 
Q 1172 3119 1398 2916 
Q 1625 2713 2034 2713 
Q 2441 2713 2670 2916 
Q 2900 3119 2900 3481 
Q 2900 3844 2670 4047 
Q 2441 4250 2034 4250 
Q 1625 4250 1398 4047 
Q 1172 3844 1172 3481 
z
" transform="scale(0.015625)"/>
       </defs>
       <use xlink:href="#DejaVuSans-32"/>
       <use xlink:href="#DejaVuSans-30" x="63.623047"/>
       <use xlink:href="#DejaVuSans-31" x="127.246094"/>
       <use xlink:href="#DejaVuSans-38" x="190.869141"/>
      </g>
     </g>
    </g>
    <g id="xtick_4">
     <g id="line2d_4">
      <g>
       <use xlink:href="#mfe120452f6" x="629.492577" y="512.64" style="stroke: #000000; stroke-width: 0.8"/>
      </g>
     </g>
     <g id="text_4">
      <!-- 2020 -->
      <g transform="translate(616.767577 527.238438) scale(0.1 -0.1)">
       <use xlink:href="#DejaVuSans-32"/>
       <use xlink:href="#DejaVuSans-30" x="63.623047"/>
       <use xlink:href="#DejaVuSans-32" x="127.246094"/>
       <use xlink:href="#DejaVuSans-30" x="190.869141"/>
      </g>
     </g>
    </g>
    <g id="xtick_5">
     <g id="line2d_5">
      <g>
       <use xlink:href="#mfe120452f6" x="780.69191" y="512.64" style="stroke: #000000; stroke-width: 0.8"/>
      </g>
     </g>
     <g id="text_5">
      <!-- 2022 -->
      <g transform="translate(767.96691 527.238438) scale(0.1 -0.1)">
       <use xlink:href="#DejaVuSans-32"/>
       <use xlink:href="#DejaVuSans-30" x="63.623047"/>
       <use xlink:href="#DejaVuSans-32" x="127.246094"/>
       <use xlink:href="#DejaVuSans-32" x="190.869141"/>
      </g>
     </g>
    </g>
    <g id="xtick_6">
     <g id="line2d_6">
      <g>
       <use xlink:href="#mfe120452f6" x="931.684404" y="512.64" style="stroke: #000000; stroke-width: 0.8"/>
      </g>
     </g>
     <g id="text_6">
      <!-- 2024 -->
      <g transform="translate(918.959404 527.238438) scale(0.1 -0.1)">
       <use xlink:href="#DejaVuSans-32"/>
       <use xlink:href="#DejaVuSans-30" x="63.623047"/>
       <use xlink:href="#DejaVuSans-32" x="127.246094"/>
       <use xlink:href="#DejaVuSans-34" x="190.869141"/>
      </g>
     </g>
    </g>
   </g>
   <g id="matplotlib.axis_2">
    <g id="ytick_1">
     <g id="line2d_7">
      <defs>
       <path id="m640e2d3f26" d="M 0 0 
L -3.5 0 
" style="stroke: #000000; stroke-width: 0.8"/>
      </defs>
      <g>
       <use xlink:href="#m640e2d3f26" x="144" y="492.529207" style="stroke: #000000; stroke-width: 0.8"/>
      </g>
     </g>
     <g id="text_7">
      <!-- 0 -->
      <g transform="translate(130.6375 496.328425) scale(0.1 -0.1)">
       <use xlink:href="#DejaVuSans-30"/>
      </g>
     </g>
    </g>
    <g id="ytick_2">
     <g id="line2d_8">
      <g>
       <use xlink:href="#m640e2d3f26" x="144" y="394.115733" style="stroke: #000000; stroke-width: 0.8"/>
      </g>
     </g>
     <g id="text_8">
      <!-- 2000 -->
      <g transform="translate(111.55 397.914952) scale(0.1 -0.1)">
       <use xlink:href="#DejaVuSans-32"/>
       <use xlink:href="#DejaVuSans-30" x="63.623047"/>
       <use xlink:href="#DejaVuSans-30" x="127.246094"/>
       <use xlink:href="#DejaVuSans-30" x="190.869141"/>
      </g>
     </g>
    </g>
    <g id="ytick_3">
     <g id="line2d_9">
      <g>
       <use xlink:href="#m640e2d3f26" x="144" y="295.70226" style="stroke: #000000; stroke-width: 0.8"/>
      </g>
     </g>
     <g id="text_9">
      <!-- 4000 -->
      <g transform="translate(111.55 299.501479) scale(0.1 -0.1)">
       <use xlink:href="#DejaVuSans-34"/>
       <use xlink:href="#DejaVuSans-30" x="63.623047"/>
       <use xlink:href="#DejaVuSans-30" x="127.246094"/>
       <use xlink:href="#DejaVuSans-30" x="190.869141"/>
      </g>
     </g>
    </g>
    <g id="ytick_4">
     <g id="line2d_10">
      <g>
       <use xlink:href="#m640e2d3f26" x="144" y="197.288787" style="stroke: #000000; stroke-width: 0.8"/>
      </g>
     </g>
     <g id="text_10">
      <!-- 6000 -->
      <g transform="translate(111.55 201.088006) scale(0.1 -0.1)">
       <use xlink:href="#DejaVuSans-36"/>
       <use xlink:href="#DejaVuSans-30" x="63.623047"/>
       <use xlink:href="#DejaVuSans-30" x="127.246094"/>
       <use xlink:href="#DejaVuSans-30" x="190.869141"/>
      </g>
     </g>
    </g>
    <g id="ytick_5">
     <g id="line2d_11">
      <g>
       <use xlink:href="#m640e2d3f26" x="144" y="98.875314" style="stroke: #000000; stroke-width: 0.8"/>
      </g>
     </g>
     <g id="text_11">
      <!-- 8000 -->
      <g transform="translate(111.55 102.674532) scale(0.1 -0.1)">
       <use xlink:href="#DejaVuSans-38"/>
       <use xlink:href="#DejaVuSans-30" x="63.623047"/>
       <use xlink:href="#DejaVuSans-30" x="127.246094"/>
       <use xlink:href="#DejaVuSans-30" x="190.869141"/>
      </g>
     </g>
    </g>
   </g>
   <g id="line2d_12">
    <path d="M 184.581818 492.48 
L 186.443369 492.381587 
L 329.57598 492.037139 
L 455.127273 491.840312 
L 467.123937 491.741899 
L 520.902085 491.495865 
L 531.657715 491.348245 
L 538.069725 491.299038 
L 569.716097 491.102211 
L 613.772811 490.560937 
L 635.697748 490.413317 
L 636.318265 490.36411 
L 636.731943 489.970456 
L 641.075563 489.724423 
L 674.169808 489.576803 
L 677.479233 489.429182 
L 681.616013 489.281562 
L 694.026355 489.183149 
L 698.576814 488.986322 
L 714.917098 488.789495 
L 720.294912 488.641875 
L 739.324103 487.80536 
L 739.530942 487.756153 
L 740.358299 487.706947 
L 741.806172 487.362499 
L 747.804504 487.165672 
L 754.216514 486.821225 
L 761.042202 486.132331 
L 765.7995 485.935504 
L 771.797832 485.787884 
L 776.761968 483.671994 
L 776.968807 483.475167 
L 778.830359 483.229134 
L 779.450876 482.491032 
L 779.657715 482.441826 
L 779.864554 481.211657 
L 780.071393 480.916417 
L 780.485071 480.818003 
L 780.69191 479.095768 
L 781.932944 478.30846 
L 782.346622 477.471945 
L 782.553461 477.373532 
L 782.7603 477.127498 
L 782.967139 476.34019 
L 783.173978 474.322714 
L 783.380817 473.732233 
L 783.587656 472.698892 
L 783.794495 470.976656 
L 784.001334 468.073459 
L 784.415013 465.859155 
L 784.621852 465.465502 
L 784.828691 458.871799 
L 785.03553 456.116222 
L 785.242369 455.08288 
L 785.449208 450.014586 
L 786.069725 444.306605 
L 786.276564 444.109778 
L 786.690242 441.20658 
L 786.897081 440.173239 
L 787.10392 432.890642 
L 787.310759 432.250954 
L 787.724437 429.642997 
L 787.931276 429.495377 
L 788.138115 428.265209 
L 788.344954 423.098501 
L 788.551793 421.769919 
L 788.758632 421.622299 
L 788.965471 417.587347 
L 789.17231 416.800039 
L 789.585988 416.554005 
L 790.413344 412.666673 
L 790.620183 412.273019 
L 790.827023 411.584125 
L 791.240701 408.582514 
L 791.44754 407.450759 
L 791.654379 401.742778 
L 792.274896 395.345902 
L 792.895413 395.001455 
L 793.309091 394.657008 
L 794.136447 392.541118 
L 794.550125 392.344291 
L 794.963803 387.768064 
L 795.170642 387.718858 
L 795.58432 386.980757 
L 795.791159 384.66804 
L 795.997998 383.979146 
L 796.204837 383.733112 
L 796.618515 382.355323 
L 797.032193 382.158496 
L 797.239033 381.912463 
L 797.445872 381.469602 
L 798.066389 378.271164 
L 798.273228 378.074337 
L 798.686906 377.28703 
L 799.100584 377.040996 
L 799.514262 376.745755 
L 799.721101 374.531452 
L 799.92794 374.383832 
L 800.134779 373.990178 
L 800.341618 369.709192 
L 800.755296 369.561572 
L 801.168974 368.429817 
L 801.375813 367.445682 
L 801.99633 367.248855 
L 802.616847 365.723446 
L 802.823686 365.67424 
L 803.237364 364.837725 
L 803.651043 364.640898 
L 803.857882 360.064672 
L 804.685238 359.769431 
L 805.098916 359.572604 
L 805.512594 359.17895 
L 806.33995 359.03133 
L 806.546789 358.686883 
L 807.787823 358.293229 
L 807.994662 358.047196 
L 808.822018 357.850369 
L 809.442535 357.309094 
L 809.649374 357.013854 
L 810.269892 356.817027 
L 810.890409 356.718614 
L 811.304087 356.32496 
L 811.717765 356.128133 
L 813.165638 355.685272 
L 813.372477 355.488445 
L 813.786155 355.291618 
L 814.613511 350.813805 
L 815.234028 350.764598 
L 815.854545 350.469358 
L 816.061384 350.272531 
L 817.509258 350.026497 
L 817.922936 349.82967 
L 818.129775 349.731257 
L 818.336614 348.894742 
L 819.370809 348.796329 
L 819.991326 348.353468 
L 820.611843 348.058228 
L 820.818682 348.009021 
L 821.025521 347.762988 
L 821.23236 347.713781 
L 821.646038 347.172507 
L 822.059716 346.97568 
L 822.266555 346.631233 
L 822.887073 346.286785 
L 823.093912 346.188372 
L 824.128107 345.991545 
L 824.334946 345.647098 
L 824.748624 345.597891 
L 824.955463 344.662963 
L 825.162302 344.515343 
L 825.369141 343.334381 
L 827.64437 342.7439 
L 827.851209 342.59628 
L 828.471726 342.399453 
L 828.678565 341.710559 
L 829.9196 341.316905 
L 831.98799 340.381977 
L 833.022185 340.234357 
L 833.435863 340.03753 
L 834.05638 339.791496 
L 835.504254 338.659741 
L 835.711093 337.577193 
L 836.538449 336.740679 
L 837.572644 335.166063 
L 837.779483 335.018443 
L 838.193161 334.132722 
L 838.4 333.542241 
L 838.606839 333.493034 
L 838.813678 332.508899 
L 839.847873 330.737457 
L 840.46839 330.589836 
L 840.675229 330.146976 
L 841.088907 329.900942 
L 841.295746 329.359668 
L 841.916264 328.966014 
L 842.329942 328.916807 
L 842.536781 328.473947 
L 843.777815 328.1295 
L 844.398332 327.686639 
L 844.605171 327.637432 
L 844.81201 327.391399 
L 845.225688 327.342192 
L 845.432527 327.194572 
L 845.846205 327.145365 
L 846.673561 326.505677 
L 846.8804 326.259644 
L 847.294078 326.062817 
L 847.914595 325.86599 
L 848.328274 324.685028 
L 848.535113 324.586615 
L 849.569308 323.258033 
L 849.776147 323.159619 
L 849.982986 322.027864 
L 850.603503 321.831037 
L 851.637698 321.19135 
L 852.051376 321.142143 
L 852.465054 320.305629 
L 853.085571 319.813561 
L 853.29241 319.764354 
L 853.499249 319.469114 
L 853.706088 318.977047 
L 854.326606 318.681806 
L 854.740284 318.238946 
L 855.360801 317.845292 
L 855.56764 313.564306 
L 855.981318 309.8738 
L 856.188157 306.724569 
L 856.394996 306.330915 
L 857.015513 302.984857 
L 857.63603 301.311828 
L 858.049708 300.770554 
L 858.256547 300.08166 
L 858.463386 297.719736 
L 858.670225 297.178462 
L 859.083903 296.981635 
L 859.497581 295.653053 
L 859.70442 295.357813 
L 859.911259 294.373678 
L 860.118098 294.078438 
L 860.324937 293.487957 
L 860.531776 293.241923 
L 860.738616 291.913341 
L 861.772811 289.305384 
L 862.807006 288.222836 
L 863.013845 286.599014 
L 863.427523 286.303773 
L 863.841201 285.762499 
L 864.254879 284.975192 
L 864.461718 284.581538 
L 864.668557 283.548196 
L 864.875396 283.49899 
L 865.495913 282.514855 
L 865.909591 282.367235 
L 866.11643 281.875167 
L 866.323269 281.776754 
L 866.736947 281.038653 
L 867.357465 278.184662 
L 867.564304 277.0037 
L 867.771143 274.887811 
L 867.977982 274.14971 
L 869.012177 272.821128 
L 869.219016 272.722714 
L 869.425855 272.230647 
L 869.839533 270.213171 
L 870.666889 269.573483 
L 871.080567 269.130622 
L 871.494245 267.900454 
L 871.701084 267.605214 
L 872.735279 265.194083 
L 873.148957 264.849636 
L 873.355796 264.80043 
L 873.976314 264.505189 
L 874.596831 262.635333 
L 875.217348 262.290886 
L 875.631026 261.700405 
L 876.251543 260.667064 
L 876.665221 260.56865 
L 877.078899 259.879756 
L 877.699416 259.535309 
L 878.113094 259.436895 
L 878.319933 259.141655 
L 878.526772 258.206727 
L 879.354128 257.86228 
L 879.560967 257.370212 
L 879.767807 257.321006 
L 879.974646 256.386078 
L 880.595163 256.04163 
L 881.21568 255.844804 
L 881.629358 255.303529 
L 882.043036 255.057496 
L 883.490909 253.581294 
L 883.904587 253.532087 
L 884.111426 252.105092 
L 884.525104 251.563817 
L 885.145621 251.170164 
L 885.35246 250.92413 
L 885.559299 250.874923 
L 885.766138 250.579683 
L 886.593495 250.284442 
L 886.800334 248.906654 
L 887.420851 248.36538 
L 887.62769 248.020932 
L 888.041368 247.971726 
L 888.248207 247.725692 
L 888.455046 247.676485 
L 888.661885 247.430452 
L 889.075563 247.332038 
L 889.282402 246.889177 
L 889.69608 246.741557 
L 890.109758 246.446317 
L 890.316597 245.905043 
L 890.730275 245.855836 
L 890.937114 245.560596 
L 891.557631 245.166942 
L 891.76447 245.019321 
L 891.971309 244.232014 
L 892.798666 243.641533 
L 893.005505 243.198672 
L 893.419183 242.903432 
L 893.626022 242.558985 
L 894.246539 242.116124 
L 894.453378 241.673263 
L 894.660217 241.57485 
L 894.867056 241.279609 
L 895.487573 240.885956 
L 895.694412 240.590715 
L 896.10809 240.443095 
L 896.314929 240.246268 
L 896.728607 240.197061 
L 896.935446 240.000234 
L 897.142285 239.409753 
L 897.349124 239.212927 
L 898.383319 238.868479 
L 898.796997 238.425619 
L 899.210676 238.228792 
L 899.831193 237.982758 
L 900.038032 237.539897 
L 900.45171 237.441484 
L 900.658549 236.555763 
L 900.865388 236.358936 
L 901.072227 235.817662 
L 901.279066 235.620835 
L 901.485905 234.046219 
L 901.692744 233.947806 
L 902.5201 232.914464 
L 903.554295 231.635089 
L 903.967973 231.389055 
L 904.174812 230.798575 
L 904.381651 230.700161 
L 904.795329 230.060474 
L 905.209008 229.66682 
L 905.415847 229.617613 
L 906.036364 228.879512 
L 906.450042 228.289031 
L 906.86372 227.747757 
L 907.277398 227.108069 
L 908.104754 225.976314 
L 908.725271 225.631867 
L 909.138949 225.58266 
L 909.552627 225.336627 
L 910.793661 223.319151 
L 911.0005 223.220737 
L 911.414178 222.87629 
L 911.621018 222.827083 
L 912.241535 222.236602 
L 912.862052 221.990569 
L 913.689408 221.154054 
L 914.723603 220.415953 
L 916.171476 219.481025 
L 916.998832 219.185785 
L 917.41251 218.693717 
L 917.826188 218.447684 
L 918.033028 217.90641 
L 918.653545 217.512756 
L 919.274062 217.168309 
L 919.68774 216.873068 
L 920.101418 216.528621 
L 920.308257 216.479414 
L 920.928774 215.79052 
L 921.549291 215.544486 
L 921.75613 215.298453 
L 921.962969 214.609558 
L 922.169808 212.296842 
L 922.583486 211.657154 
L 922.790325 211.607947 
L 923.82452 209.541264 
L 924.031359 209.344437 
L 924.445038 207.523788 
L 924.858716 207.031721 
L 925.272394 206.58886 
L 925.686072 206.44124 
L 925.892911 205.998379 
L 926.306589 205.703139 
L 926.720267 205.161865 
L 926.927106 205.112658 
L 927.340784 204.768211 
L 927.754462 203.784076 
L 927.961301 203.685663 
L 928.16814 203.095182 
L 928.788657 202.799941 
L 929.202335 201.963427 
L 929.822852 201.323739 
L 930.23653 200.733258 
L 930.857048 200.536432 
L 931.063887 200.093571 
L 931.684404 199.65071 
L 932.098082 197.485614 
L 932.51176 196.993546 
L 933.545955 196.304652 
L 933.752794 196.009412 
L 933.959633 195.222104 
L 934.373311 194.926864 
L 934.58015 194.188763 
L 934.786989 194.041142 
L 935.200667 193.303041 
L 935.614345 192.860181 
L 936.028023 192.466527 
L 936.441701 192.023666 
L 936.64854 191.925253 
L 936.855379 191.630012 
L 937.062219 191.531599 
L 937.475897 191.039531 
L 937.682736 190.990325 
L 937.889575 190.695084 
L 938.303253 189.464916 
L 938.510092 189.317296 
L 938.92377 189.218882 
L 939.130609 188.579195 
L 939.337448 188.529988 
L 939.957965 188.03792 
L 940.164804 187.152199 
L 940.99216 186.512512 
L 941.198999 185.62679 
L 942.026355 184.691862 
L 942.233194 184.642656 
L 942.440033 183.36328 
L 942.646872 183.166454 
L 942.853711 182.723593 
L 943.267389 182.477559 
L 943.474229 181.985492 
L 943.887907 181.739458 
L 944.094746 180.706117 
L 944.508424 180.50929 
L 944.715263 180.017222 
L 944.922102 179.918809 
L 945.128941 178.836261 
L 945.542619 178.68864 
L 945.956297 178.196573 
L 946.369975 177.409265 
L 946.576814 177.212438 
L 947.197331 175.637823 
L 948.024687 174.752102 
L 948.231526 174.456861 
L 948.645204 174.161621 
L 949.058882 173.817174 
L 949.47256 173.521933 
L 950.299917 172.340971 
L 950.920434 171.406043 
L 951.127273 170.864769 
L 951.954629 170.175875 
L 952.368307 169.831428 
L 952.575146 169.683808 
L 952.781985 168.453639 
L 953.402502 167.518711 
L 953.609341 166.534577 
L 954.023019 165.944096 
L 954.229858 165.402822 
L 954.436697 165.353615 
L 955.264053 164.07424 
L 956.09141 163.336139 
L 956.298249 162.893278 
L 957.539283 162.352004 
L 958.1598 161.220249 
L 958.573478 160.137701 
L 959.400834 159.202773 
L 959.607673 158.759912 
L 959.814512 158.710705 
L 960.021351 158.120225 
L 960.641868 157.726571 
L 961.262385 156.890056 
L 962.089741 156.201162 
L 962.710259 155.463061 
L 963.123937 155.0202 
L 963.537615 154.72496 
L 963.744454 154.183686 
L 964.158132 154.085272 
L 964.364971 153.790032 
L 964.57181 153.740825 
L 964.985488 152.707484 
L 965.399166 152.46145 
L 966.433361 151.624935 
L 966.6402 151.477315 
L 967.053878 150.886834 
L 967.467556 150.690007 
L 967.881234 150.443974 
L 968.294912 149.755079 
L 968.501751 149.705873 
L 968.70859 149.410632 
L 968.91543 149.361425 
L 969.122269 149.115392 
L 969.329108 146.655055 
L 969.535947 146.162988 
L 969.742786 146.015367 
L 969.949625 145.720127 
L 970.156464 145.22806 
L 970.363303 145.178853 
L 970.98382 143.653444 
L 971.604337 142.177242 
L 972.018015 141.931208 
L 972.845371 140.159766 
L 973.259049 137.797842 
L 973.465888 136.862914 
L 973.879566 133.123202 
L 974.086405 131.597794 
L 975.120601 129.826351 
L 975.947957 125.053298 
L 976.154796 124.758057 
L 976.361635 124.069163 
L 976.568474 121.608826 
L 976.775313 120.624691 
L 976.982152 120.477071 
L 977.188991 119.345316 
L 977.602669 118.754835 
L 977.809508 118.656422 
L 978.223186 116.688152 
L 978.430025 116.442119 
L 978.636864 116.392912 
L 979.050542 115.900845 
L 979.257381 115.802431 
L 979.46422 115.310364 
L 980.291576 114.621469 
L 980.498415 114.424642 
L 980.912093 113.784955 
L 981.118932 113.243681 
L 981.325771 111.767479 
L 981.532611 111.226205 
L 981.946289 110.980171 
L 983.394162 109.651589 
L 983.601001 109.602382 
L 984.014679 109.257935 
L 984.221518 109.159522 
L 984.635196 108.716661 
L 985.048874 108.667454 
L 985.462552 108.076973 
L 985.669391 107.732526 
L 985.87623 107.634113 
L 986.289908 106.945218 
L 987.530942 105.370603 
L 987.737781 104.878536 
L 988.15146 104.730915 
L 988.358299 104.386468 
L 988.771977 104.140434 
L 988.978816 102.959473 
L 989.599333 101.975338 
L 990.013011 101.827718 
L 990.426689 101.18803 
L 990.633528 101.138824 
L 991.047206 100.548343 
L 991.254045 100.253102 
L 991.460884 100.203896 
L 992.495079 99.121347 
L 992.701918 99.072141 
L 993.322435 97.103871 
L 993.736113 96.710217 
L 993.942952 96.119736 
L 994.56347 93.511779 
L 994.770309 93.364159 
L 994.977148 92.576851 
L 995.183987 92.429231 
L 995.804504 91.248269 
L 996.011343 89.870481 
L 996.218182 89.28 
L 996.218182 89.28 
" clip-path="url(#pebc68b85a3)" style="fill: none; stroke: #1f77b4; stroke-width: 1.5; stroke-linecap: square"/>
   </g>
   <g id="patch_3">
    <path d="M 144 512.64 
L 144 69.12 
" style="fill: none; stroke: #000000; stroke-width: 0.8; stroke-linejoin: miter; stroke-linecap: square"/>
   </g>
   <g id="patch_4">
    <path d="M 1036.8 512.64 
L 1036.8 69.12 
" style="fill: none; stroke: #000000; stroke-width: 0.8; stroke-linejoin: miter; stroke-linecap: square"/>
   </g>
   <g id="patch_5">
    <path d="M 144 512.64 
L 1036.8 512.64 
" style="fill: none; stroke: #000000; stroke-width: 0.8; stroke-linejoin: miter; stroke-linecap: square"/>
   </g>
   <g id="patch_6">
    <path d="M 144 69.12 
L 1036.8 69.12 
" style="fill: none; stroke: #000000; stroke-width: 0.8; stroke-linejoin: miter; stroke-linecap: square"/>
   </g>
   <g id="text_12">
    <!-- Number of AEDs in the OpenStreetMap database in Poland from first edition, day by day. As at: 2024-11-08 -->
    <g transform="translate(144 63.12) scale(0.14 -0.14)">
     <defs>
      <path id="DejaVuSans-4e" d="M 628 4666 
L 1478 4666 
L 3547 763 
L 3547 4666 
L 4159 4666 
L 4159 0 
L 3309 0 
L 1241 3903 
L 1241 0 
L 628 0 
L 628 4666 
z
" transform="scale(0.015625)"/>
      <path id="DejaVuSans-75" d="M 544 1381 
L 544 3500 
L 1119 3500 
L 1119 1403 
Q 1119 906 1312 657 
Q 1506 409 1894 409 
Q 2359 409 2629 706 
Q 2900 1003 2900 1516 
L 2900 3500 
L 3475 3500 
L 3475 0 
L 2900 0 
L 2900 538 
Q 2691 219 2414 64 
Q 2138 -91 1772 -91 
Q 1169 -91 856 284 
Q 544 659 544 1381 
z
M 1991 3584 
L 1991 3584 
z
" transform="scale(0.015625)"/>
      <path id="DejaVuSans-6d" d="M 3328 2828 
Q 3544 3216 3844 3400 
Q 4144 3584 4550 3584 
Q 5097 3584 5394 3201 
Q 5691 2819 5691 2113 
L 5691 0 
L 5113 0 
L 5113 2094 
Q 5113 2597 4934 2840 
Q 4756 3084 4391 3084 
Q 3944 3084 3684 2787 
Q 3425 2491 3425 1978 
L 3425 0 
L 2847 0 
L 2847 2094 
Q 2847 2600 2669 2842 
Q 2491 3084 2119 3084 
Q 1678 3084 1418 2786 
Q 1159 2488 1159 1978 
L 1159 0 
L 581 0 
L 581 3500 
L 1159 3500 
L 1159 2956 
Q 1356 3278 1631 3431 
Q 1906 3584 2284 3584 
Q 2666 3584 2933 3390 
Q 3200 3197 3328 2828 
z
" transform="scale(0.015625)"/>
      <path id="DejaVuSans-62" d="M 3116 1747 
Q 3116 2381 2855 2742 
Q 2594 3103 2138 3103 
Q 1681 3103 1420 2742 
Q 1159 2381 1159 1747 
Q 1159 1113 1420 752 
Q 1681 391 2138 391 
Q 2594 391 2855 752 
Q 3116 1113 3116 1747 
z
M 1159 2969 
Q 1341 3281 1617 3432 
Q 1894 3584 2278 3584 
Q 2916 3584 3314 3078 
Q 3713 2572 3713 1747 
Q 3713 922 3314 415 
Q 2916 -91 2278 -91 
Q 1894 -91 1617 61 
Q 1341 213 1159 525 
L 1159 0 
L 581 0 
L 581 4863 
L 1159 4863 
L 1159 2969 
z
" transform="scale(0.015625)"/>
      <path id="DejaVuSans-65" d="M 3597 1894 
L 3597 1613 
L 953 1613 
Q 991 1019 1311 708 
Q 1631 397 2203 397 
Q 2534 397 2845 478 
Q 3156 559 3463 722 
L 3463 178 
Q 3153 47 2828 -22 
Q 2503 -91 2169 -91 
Q 1331 -91 842 396 
Q 353 884 353 1716 
Q 353 2575 817 3079 
Q 1281 3584 2069 3584 
Q 2775 3584 3186 3129 
Q 3597 2675 3597 1894 
z
M 3022 2063 
Q 3016 2534 2758 2815 
Q 2500 3097 2075 3097 
Q 1594 3097 1305 2825 
Q 1016 2553 972 2059 
L 3022 2063 
z
" transform="scale(0.015625)"/>
      <path id="DejaVuSans-72" d="M 2631 2963 
Q 2534 3019 2420 3045 
Q 2306 3072 2169 3072 
Q 1681 3072 1420 2755 
Q 1159 2438 1159 1844 
L 1159 0 
L 581 0 
L 581 3500 
L 1159 3500 
L 1159 2956 
Q 1341 3275 1631 3429 
Q 1922 3584 2338 3584 
Q 2397 3584 2469 3576 
Q 2541 3569 2628 3553 
L 2631 2963 
z
" transform="scale(0.015625)"/>
      <path id="DejaVuSans-20" transform="scale(0.015625)"/>
      <path id="DejaVuSans-6f" d="M 1959 3097 
Q 1497 3097 1228 2736 
Q 959 2375 959 1747 
Q 959 1119 1226 758 
Q 1494 397 1959 397 
Q 2419 397 2687 759 
Q 2956 1122 2956 1747 
Q 2956 2369 2687 2733 
Q 2419 3097 1959 3097 
z
M 1959 3584 
Q 2709 3584 3137 3096 
Q 3566 2609 3566 1747 
Q 3566 888 3137 398 
Q 2709 -91 1959 -91 
Q 1206 -91 779 398 
Q 353 888 353 1747 
Q 353 2609 779 3096 
Q 1206 3584 1959 3584 
z
" transform="scale(0.015625)"/>
      <path id="DejaVuSans-66" d="M 2375 4863 
L 2375 4384 
L 1825 4384 
Q 1516 4384 1395 4259 
Q 1275 4134 1275 3809 
L 1275 3500 
L 2222 3500 
L 2222 3053 
L 1275 3053 
L 1275 0 
L 697 0 
L 697 3053 
L 147 3053 
L 147 3500 
L 697 3500 
L 697 3744 
Q 697 4328 969 4595 
Q 1241 4863 1831 4863 
L 2375 4863 
z
" transform="scale(0.015625)"/>
      <path id="DejaVuSans-41" d="M 2188 4044 
L 1331 1722 
L 3047 1722 
L 2188 4044 
z
M 1831 4666 
L 2547 4666 
L 4325 0 
L 3669 0 
L 3244 1197 
L 1141 1197 
L 716 0 
L 50 0 
L 1831 4666 
z
" transform="scale(0.015625)"/>
      <path id="DejaVuSans-45" d="M 628 4666 
L 3578 4666 
L 3578 4134 
L 1259 4134 
L 1259 2753 
L 3481 2753 
L 3481 2222 
L 1259 2222 
L 1259 531 
L 3634 531 
L 3634 0 
L 628 0 
L 628 4666 
z
" transform="scale(0.015625)"/>
      <path id="DejaVuSans-44" d="M 1259 4147 
L 1259 519 
L 2022 519 
Q 2988 519 3436 956 
Q 3884 1394 3884 2338 
Q 3884 3275 3436 3711 
Q 2988 4147 2022 4147 
L 1259 4147 
z
M 628 4666 
L 1925 4666 
Q 3281 4666 3915 4102 
Q 4550 3538 4550 2338 
Q 4550 1131 3912 565 
Q 3275 0 1925 0 
L 628 0 
L 628 4666 
z
" transform="scale(0.015625)"/>
      <path id="DejaVuSans-73" d="M 2834 3397 
L 2834 2853 
Q 2591 2978 2328 3040 
Q 2066 3103 1784 3103 
Q 1356 3103 1142 2972 
Q 928 2841 928 2578 
Q 928 2378 1081 2264 
Q 1234 2150 1697 2047 
L 1894 2003 
Q 2506 1872 2764 1633 
Q 3022 1394 3022 966 
Q 3022 478 2636 193 
Q 2250 -91 1575 -91 
Q 1294 -91 989 -36 
Q 684 19 347 128 
L 347 722 
Q 666 556 975 473 
Q 1284 391 1588 391 
Q 1994 391 2212 530 
Q 2431 669 2431 922 
Q 2431 1156 2273 1281 
Q 2116 1406 1581 1522 
L 1381 1569 
Q 847 1681 609 1914 
Q 372 2147 372 2553 
Q 372 3047 722 3315 
Q 1072 3584 1716 3584 
Q 2034 3584 2315 3537 
Q 2597 3491 2834 3397 
z
" transform="scale(0.015625)"/>
      <path id="DejaVuSans-69" d="M 603 3500 
L 1178 3500 
L 1178 0 
L 603 0 
L 603 3500 
z
M 603 4863 
L 1178 4863 
L 1178 4134 
L 603 4134 
L 603 4863 
z
" transform="scale(0.015625)"/>
      <path id="DejaVuSans-6e" d="M 3513 2113 
L 3513 0 
L 2938 0 
L 2938 2094 
Q 2938 2591 2744 2837 
Q 2550 3084 2163 3084 
Q 1697 3084 1428 2787 
Q 1159 2491 1159 1978 
L 1159 0 
L 581 0 
L 581 3500 
L 1159 3500 
L 1159 2956 
Q 1366 3272 1645 3428 
Q 1925 3584 2291 3584 
Q 2894 3584 3203 3211 
Q 3513 2838 3513 2113 
z
" transform="scale(0.015625)"/>
      <path id="DejaVuSans-74" d="M 1172 4494 
L 1172 3500 
L 2356 3500 
L 2356 3053 
L 1172 3053 
L 1172 1153 
Q 1172 725 1289 603 
Q 1406 481 1766 481 
L 2356 481 
L 2356 0 
L 1766 0 
Q 1100 0 847 248 
Q 594 497 594 1153 
L 594 3053 
L 172 3053 
L 172 3500 
L 594 3500 
L 594 4494 
L 1172 4494 
z
" transform="scale(0.015625)"/>
      <path id="DejaVuSans-68" d="M 3513 2113 
L 3513 0 
L 2938 0 
L 2938 2094 
Q 2938 2591 2744 2837 
Q 2550 3084 2163 3084 
Q 1697 3084 1428 2787 
Q 1159 2491 1159 1978 
L 1159 0 
L 581 0 
L 581 4863 
L 1159 4863 
L 1159 2956 
Q 1366 3272 1645 3428 
Q 1925 3584 2291 3584 
Q 2894 3584 3203 3211 
Q 3513 2838 3513 2113 
z
" transform="scale(0.015625)"/>
      <path id="DejaVuSans-4f" d="M 2522 4238 
Q 1834 4238 1429 3725 
Q 1025 3213 1025 2328 
Q 1025 1447 1429 934 
Q 1834 422 2522 422 
Q 3209 422 3611 934 
Q 4013 1447 4013 2328 
Q 4013 3213 3611 3725 
Q 3209 4238 2522 4238 
z
M 2522 4750 
Q 3503 4750 4090 4092 
Q 4678 3434 4678 2328 
Q 4678 1225 4090 567 
Q 3503 -91 2522 -91 
Q 1538 -91 948 565 
Q 359 1222 359 2328 
Q 359 3434 948 4092 
Q 1538 4750 2522 4750 
z
" transform="scale(0.015625)"/>
      <path id="DejaVuSans-70" d="M 1159 525 
L 1159 -1331 
L 581 -1331 
L 581 3500 
L 1159 3500 
L 1159 2969 
Q 1341 3281 1617 3432 
Q 1894 3584 2278 3584 
Q 2916 3584 3314 3078 
Q 3713 2572 3713 1747 
Q 3713 922 3314 415 
Q 2916 -91 2278 -91 
Q 1894 -91 1617 61 
Q 1341 213 1159 525 
z
M 3116 1747 
Q 3116 2381 2855 2742 
Q 2594 3103 2138 3103 
Q 1681 3103 1420 2742 
Q 1159 2381 1159 1747 
Q 1159 1113 1420 752 
Q 1681 391 2138 391 
Q 2594 391 2855 752 
Q 3116 1113 3116 1747 
z
" transform="scale(0.015625)"/>
      <path id="DejaVuSans-53" d="M 3425 4513 
L 3425 3897 
Q 3066 4069 2747 4153 
Q 2428 4238 2131 4238 
Q 1616 4238 1336 4038 
Q 1056 3838 1056 3469 
Q 1056 3159 1242 3001 
Q 1428 2844 1947 2747 
L 2328 2669 
Q 3034 2534 3370 2195 
Q 3706 1856 3706 1288 
Q 3706 609 3251 259 
Q 2797 -91 1919 -91 
Q 1588 -91 1214 -16 
Q 841 59 441 206 
L 441 856 
Q 825 641 1194 531 
Q 1563 422 1919 422 
Q 2459 422 2753 634 
Q 3047 847 3047 1241 
Q 3047 1584 2836 1778 
Q 2625 1972 2144 2069 
L 1759 2144 
Q 1053 2284 737 2584 
Q 422 2884 422 3419 
Q 422 4038 858 4394 
Q 1294 4750 2059 4750 
Q 2388 4750 2728 4690 
Q 3069 4631 3425 4513 
z
" transform="scale(0.015625)"/>
      <path id="DejaVuSans-4d" d="M 628 4666 
L 1569 4666 
L 2759 1491 
L 3956 4666 
L 4897 4666 
L 4897 0 
L 4281 0 
L 4281 4097 
L 3078 897 
L 2444 897 
L 1241 4097 
L 1241 0 
L 628 0 
L 628 4666 
z
" transform="scale(0.015625)"/>
      <path id="DejaVuSans-61" d="M 2194 1759 
Q 1497 1759 1228 1600 
Q 959 1441 959 1056 
Q 959 750 1161 570 
Q 1363 391 1709 391 
Q 2188 391 2477 730 
Q 2766 1069 2766 1631 
L 2766 1759 
L 2194 1759 
z
M 3341 1997 
L 3341 0 
L 2766 0 
L 2766 531 
Q 2569 213 2275 61 
Q 1981 -91 1556 -91 
Q 1019 -91 701 211 
Q 384 513 384 1019 
Q 384 1609 779 1909 
Q 1175 2209 1959 2209 
L 2766 2209 
L 2766 2266 
Q 2766 2663 2505 2880 
Q 2244 3097 1772 3097 
Q 1472 3097 1187 3025 
Q 903 2953 641 2809 
L 641 3341 
Q 956 3463 1253 3523 
Q 1550 3584 1831 3584 
Q 2591 3584 2966 3190 
Q 3341 2797 3341 1997 
z
" transform="scale(0.015625)"/>
      <path id="DejaVuSans-64" d="M 2906 2969 
L 2906 4863 
L 3481 4863 
L 3481 0 
L 2906 0 
L 2906 525 
Q 2725 213 2448 61 
Q 2172 -91 1784 -91 
Q 1150 -91 751 415 
Q 353 922 353 1747 
Q 353 2572 751 3078 
Q 1150 3584 1784 3584 
Q 2172 3584 2448 3432 
Q 2725 3281 2906 2969 
z
M 947 1747 
Q 947 1113 1208 752 
Q 1469 391 1925 391 
Q 2381 391 2643 752 
Q 2906 1113 2906 1747 
Q 2906 2381 2643 2742 
Q 2381 3103 1925 3103 
Q 1469 3103 1208 2742 
Q 947 2381 947 1747 
z
" transform="scale(0.015625)"/>
      <path id="DejaVuSans-50" d="M 1259 4147 
L 1259 2394 
L 2053 2394 
Q 2494 2394 2734 2622 
Q 2975 2850 2975 3272 
Q 2975 3691 2734 3919 
Q 2494 4147 2053 4147 
L 1259 4147 
z
M 628 4666 
L 2053 4666 
Q 2838 4666 3239 4311 
Q 3641 3956 3641 3272 
Q 3641 2581 3239 2228 
Q 2838 1875 2053 1875 
L 1259 1875 
L 1259 0 
L 628 0 
L 628 4666 
z
" transform="scale(0.015625)"/>
      <path id="DejaVuSans-6c" d="M 603 4863 
L 1178 4863 
L 1178 0 
L 603 0 
L 603 4863 
z
" transform="scale(0.015625)"/>
      <path id="DejaVuSans-2c" d="M 750 794 
L 1409 794 
L 1409 256 
L 897 -744 
L 494 -744 
L 750 256 
L 750 794 
z
" transform="scale(0.015625)"/>
      <path id="DejaVuSans-79" d="M 2059 -325 
Q 1816 -950 1584 -1140 
Q 1353 -1331 966 -1331 
L 506 -1331 
L 506 -850 
L 844 -850 
Q 1081 -850 1212 -737 
Q 1344 -625 1503 -206 
L 1606 56 
L 191 3500 
L 800 3500 
L 1894 763 
L 2988 3500 
L 3597 3500 
L 2059 -325 
z
" transform="scale(0.015625)"/>
      <path id="DejaVuSans-2e" d="M 684 794 
L 1344 794 
L 1344 0 
L 684 0 
L 684 794 
z
" transform="scale(0.015625)"/>
      <path id="DejaVuSans-3a" d="M 750 794 
L 1409 794 
L 1409 0 
L 750 0 
L 750 794 
z
M 750 3309 
L 1409 3309 
L 1409 2516 
L 750 2516 
L 750 3309 
z
" transform="scale(0.015625)"/>
      <path id="DejaVuSans-2d" d="M 313 2009 
L 1997 2009 
L 1997 1497 
L 313 1497 
L 313 2009 
z
" transform="scale(0.015625)"/>
     </defs>
     <use xlink:href="#DejaVuSans-4e"/>
     <use xlink:href="#DejaVuSans-75" x="74.804688"/>
     <use xlink:href="#DejaVuSans-6d" x="138.183594"/>
     <use xlink:href="#DejaVuSans-62" x="235.595703"/>
     <use xlink:href="#DejaVuSans-65" x="299.072266"/>
     <use xlink:href="#DejaVuSans-72" x="360.595703"/>
     <use xlink:href="#DejaVuSans-20" x="401.708984"/>
     <use xlink:href="#DejaVuSans-6f" x="433.496094"/>
     <use xlink:href="#DejaVuSans-66" x="494.677734"/>
     <use xlink:href="#DejaVuSans-20" x="529.882812"/>
     <use xlink:href="#DejaVuSans-41" x="561.669922"/>
     <use xlink:href="#DejaVuSans-45" x="630.078125"/>
     <use xlink:href="#DejaVuSans-44" x="693.261719"/>
     <use xlink:href="#DejaVuSans-73" x="770.263672"/>
     <use xlink:href="#DejaVuSans-20" x="822.363281"/>
     <use xlink:href="#DejaVuSans-69" x="854.150391"/>
     <use xlink:href="#DejaVuSans-6e" x="881.933594"/>
     <use xlink:href="#DejaVuSans-20" x="945.3125"/>
     <use xlink:href="#DejaVuSans-74" x="977.099609"/>
     <use xlink:href="#DejaVuSans-68" x="1016.308594"/>
     <use xlink:href="#DejaVuSans-65" x="1079.6875"/>
     <use xlink:href="#DejaVuSans-20" x="1141.210938"/>
     <use xlink:href="#DejaVuSans-4f" x="1172.998047"/>
     <use xlink:href="#DejaVuSans-70" x="1251.708984"/>
     <use xlink:href="#DejaVuSans-65" x="1315.185547"/>
     <use xlink:href="#DejaVuSans-6e" x="1376.708984"/>
     <use xlink:href="#DejaVuSans-53" x="1440.087891"/>
     <use xlink:href="#DejaVuSans-74" x="1503.564453"/>
     <use xlink:href="#DejaVuSans-72" x="1542.773438"/>
     <use xlink:href="#DejaVuSans-65" x="1581.636719"/>
     <use xlink:href="#DejaVuSans-65" x="1643.160156"/>
     <use xlink:href="#DejaVuSans-74" x="1704.683594"/>
     <use xlink:href="#DejaVuSans-4d" x="1743.892578"/>
     <use xlink:href="#DejaVuSans-61" x="1830.171875"/>
     <use xlink:href="#DejaVuSans-70" x="1891.451172"/>
     <use xlink:href="#DejaVuSans-20" x="1954.927734"/>
     <use xlink:href="#DejaVuSans-64" x="1986.714844"/>
     <use xlink:href="#DejaVuSans-61" x="2050.191406"/>
     <use xlink:href="#DejaVuSans-74" x="2111.470703"/>
     <use xlink:href="#DejaVuSans-61" x="2150.679688"/>
     <use xlink:href="#DejaVuSans-62" x="2211.958984"/>
     <use xlink:href="#DejaVuSans-61" x="2275.435547"/>
     <use xlink:href="#DejaVuSans-73" x="2336.714844"/>
     <use xlink:href="#DejaVuSans-65" x="2388.814453"/>
     <use xlink:href="#DejaVuSans-20" x="2450.337891"/>
     <use xlink:href="#DejaVuSans-69" x="2482.125"/>
     <use xlink:href="#DejaVuSans-6e" x="2509.908203"/>
     <use xlink:href="#DejaVuSans-20" x="2573.287109"/>
     <use xlink:href="#DejaVuSans-50" x="2605.074219"/>
     <use xlink:href="#DejaVuSans-6f" x="2661.751953"/>
     <use xlink:href="#DejaVuSans-6c" x="2722.933594"/>
     <use xlink:href="#DejaVuSans-61" x="2750.716797"/>
     <use xlink:href="#DejaVuSans-6e" x="2811.996094"/>
     <use xlink:href="#DejaVuSans-64" x="2875.375"/>
     <use xlink:href="#DejaVuSans-20" x="2938.851562"/>
     <use xlink:href="#DejaVuSans-66" x="2970.638672"/>
     <use xlink:href="#DejaVuSans-72" x="3005.84375"/>
     <use xlink:href="#DejaVuSans-6f" x="3044.707031"/>
     <use xlink:href="#DejaVuSans-6d" x="3105.888672"/>
     <use xlink:href="#DejaVuSans-20" x="3203.300781"/>
     <use xlink:href="#DejaVuSans-66" x="3235.087891"/>
     <use xlink:href="#DejaVuSans-69" x="3270.292969"/>
     <use xlink:href="#DejaVuSans-72" x="3298.076172"/>
     <use xlink:href="#DejaVuSans-73" x="3339.189453"/>
     <use xlink:href="#DejaVuSans-74" x="3391.289062"/>
     <use xlink:href="#DejaVuSans-20" x="3430.498047"/>
     <use xlink:href="#DejaVuSans-65" x="3462.285156"/>
     <use xlink:href="#DejaVuSans-64" x="3523.808594"/>
     <use xlink:href="#DejaVuSans-69" x="3587.285156"/>
     <use xlink:href="#DejaVuSans-74" x="3615.068359"/>
     <use xlink:href="#DejaVuSans-69" x="3654.277344"/>
     <use xlink:href="#DejaVuSans-6f" x="3682.060547"/>
     <use xlink:href="#DejaVuSans-6e" x="3743.242188"/>
     <use xlink:href="#DejaVuSans-2c" x="3806.621094"/>
     <use xlink:href="#DejaVuSans-20" x="3838.408203"/>
     <use xlink:href="#DejaVuSans-64" x="3870.195312"/>
     <use xlink:href="#DejaVuSans-61" x="3933.671875"/>
     <use xlink:href="#DejaVuSans-79" x="3994.951172"/>
     <use xlink:href="#DejaVuSans-20" x="4054.130859"/>
     <use xlink:href="#DejaVuSans-62" x="4085.917969"/>
     <use xlink:href="#DejaVuSans-79" x="4149.394531"/>
     <use xlink:href="#DejaVuSans-20" x="4208.574219"/>
     <use xlink:href="#DejaVuSans-64" x="4240.361328"/>
     <use xlink:href="#DejaVuSans-61" x="4303.837891"/>
     <use xlink:href="#DejaVuSans-79" x="4365.117188"/>
     <use xlink:href="#DejaVuSans-2e" x="4410.046875"/>
     <use xlink:href="#DejaVuSans-20" x="4441.833984"/>
     <use xlink:href="#DejaVuSans-41" x="4473.621094"/>
     <use xlink:href="#DejaVuSans-73" x="4542.029297"/>
     <use xlink:href="#DejaVuSans-20" x="4594.128906"/>
     <use xlink:href="#DejaVuSans-61" x="4625.916016"/>
     <use xlink:href="#DejaVuSans-74" x="4687.195312"/>
     <use xlink:href="#DejaVuSans-3a" x="4726.404297"/>
     <use xlink:href="#DejaVuSans-20" x="4760.095703"/>
     <use xlink:href="#DejaVuSans-32" x="4791.882812"/>
     <use xlink:href="#DejaVuSans-30" x="4855.505859"/>
     <use xlink:href="#DejaVuSans-32" x="4919.128906"/>
     <use xlink:href="#DejaVuSans-34" x="4982.751953"/>
     <use xlink:href="#DejaVuSans-2d" x="5046.375"/>
     <use xlink:href="#DejaVuSans-31" x="5082.458984"/>
     <use xlink:href="#DejaVuSans-31" x="5146.082031"/>
     <use xlink:href="#DejaVuSans-2d" x="5209.705078"/>
     <use xlink:href="#DejaVuSans-30" x="5245.789062"/>
     <use xlink:href="#DejaVuSans-38" x="5309.412109"/>
    </g>
   </g>
  </g>
 </g>
 <defs>
  <clipPath id="pebc68b85a3">
   <rect x="144" y="69.12" width="892.8" height="443.52"/>
  </clipPath>
 </defs>
</svg>
