<?xml version="1.0" encoding="utf-8" standalone="no"?>
<!DOCTYPE svg PUBLIC "-//W3C//DTD SVG 1.1//EN"
  "http://www.w3.org/Graphics/SVG/1.1/DTD/svg11.dtd">
<svg xmlns:xlink="http://www.w3.org/1999/xlink" width="1152pt" height="576pt" viewBox="0 0 1152 576" xmlns="http://www.w3.org/2000/svg" version="1.1">
 <metadata>
  <rdf:RDF xmlns:dc="http://purl.org/dc/elements/1.1/" xmlns:cc="http://creativecommons.org/ns#" xmlns:rdf="http://www.w3.org/1999/02/22-rdf-syntax-ns#">
   <cc:Work>
    <dc:type rdf:resource="http://purl.org/dc/dcmitype/StillImage"/>
    <dc:date>1980-01-01T00:00:00+00:00</dc:date>
    <dc:format>image/svg+xml</dc:format>
    <dc:creator>
     <cc:Agent>
      <dc:title>Matplotlib v3.9.1, https://matplotlib.org/</dc:title>
     </cc:Agent>
    </dc:creator>
   </cc:Work>
  </rdf:RDF>
 </metadata>
 <defs>
  <style type="text/css">*{stroke-linejoin: round; stroke-linecap: butt}</style>
 </defs>
 <g id="figure_1">
  <g id="patch_1">
   <path d="M 0 576 
L 1152 576 
L 1152 0 
L 0 0 
z
" style="fill: #ffffff"/>
  </g>
  <g id="axes_1">
   <g id="patch_2">
    <path d="M 144 512.64 
L 1036.8 512.64 
L 1036.8 69.12 
L 144 69.12 
z
" style="fill: #ffffff"/>
   </g>
   <g id="matplotlib.axis_1">
    <g id="xtick_1">
     <g id="line2d_1">
      <defs>
       <path id="ma852a5ea72" d="M 0 0 
L 0 3.5 
" style="stroke: #000000; stroke-width: 0.8"/>
      </defs>
      <g>
       <use xlink:href="#ma852a5ea72" x="176.83165" y="512.64" style="stroke: #000000; stroke-width: 0.8"/>
      </g>
     </g>
     <g id="text_1">
      <!-- 2014 -->
      <g transform="translate(164.10665 527.238438) scale(0.1 -0.1)">
       <defs>
        <path id="DejaVuSans-32" d="M 1228 531 
L 3431 531 
L 3431 0 
L 469 0 
L 469 531 
Q 828 903 1448 1529 
Q 2069 2156 2228 2338 
Q 2531 2678 2651 2914 
Q 2772 3150 2772 3378 
Q 2772 3750 2511 3984 
Q 2250 4219 1831 4219 
Q 1534 4219 1204 4116 
Q 875 4013 500 3803 
L 500 4441 
Q 881 4594 1212 4672 
Q 1544 4750 1819 4750 
Q 2544 4750 2975 4387 
Q 3406 4025 3406 3419 
Q 3406 3131 3298 2873 
Q 3191 2616 2906 2266 
Q 2828 2175 2409 1742 
Q 1991 1309 1228 531 
z
" transform="scale(0.015625)"/>
        <path id="DejaVuSans-30" d="M 2034 4250 
Q 1547 4250 1301 3770 
Q 1056 3291 1056 2328 
Q 1056 1369 1301 889 
Q 1547 409 2034 409 
Q 2525 409 2770 889 
Q 3016 1369 3016 2328 
Q 3016 3291 2770 3770 
Q 2525 4250 2034 4250 
z
M 2034 4750 
Q 2819 4750 3233 4129 
Q 3647 3509 3647 2328 
Q 3647 1150 3233 529 
Q 2819 -91 2034 -91 
Q 1250 -91 836 529 
Q 422 1150 422 2328 
Q 422 3509 836 4129 
Q 1250 4750 2034 4750 
z
" transform="scale(0.015625)"/>
        <path id="DejaVuSans-31" d="M 794 531 
L 1825 531 
L 1825 4091 
L 703 3866 
L 703 4441 
L 1819 4666 
L 2450 4666 
L 2450 531 
L 3481 531 
L 3481 0 
L 794 0 
L 794 531 
z
" transform="scale(0.015625)"/>
        <path id="DejaVuSans-34" d="M 2419 4116 
L 825 1625 
L 2419 1625 
L 2419 4116 
z
M 2253 4666 
L 3047 4666 
L 3047 1625 
L 3713 1625 
L 3713 1100 
L 3047 1100 
L 3047 0 
L 2419 0 
L 2419 1100 
L 313 1100 
L 313 1709 
L 2253 4666 
z
" transform="scale(0.015625)"/>
       </defs>
       <use xlink:href="#DejaVuSans-32"/>
       <use xlink:href="#DejaVuSans-30" x="63.623047"/>
       <use xlink:href="#DejaVuSans-31" x="127.246094"/>
       <use xlink:href="#DejaVuSans-34" x="190.869141"/>
      </g>
     </g>
    </g>
    <g id="xtick_2">
     <g id="line2d_2">
      <g>
       <use xlink:href="#ma852a5ea72" x="318.272219" y="512.64" style="stroke: #000000; stroke-width: 0.8"/>
      </g>
     </g>
     <g id="text_2">
      <!-- 2016 -->
      <g transform="translate(305.547219 527.238438) scale(0.1 -0.1)">
       <defs>
        <path id="DejaVuSans-36" d="M 2113 2584 
Q 1688 2584 1439 2293 
Q 1191 2003 1191 1497 
Q 1191 994 1439 701 
Q 1688 409 2113 409 
Q 2538 409 2786 701 
Q 3034 994 3034 1497 
Q 3034 2003 2786 2293 
Q 2538 2584 2113 2584 
z
M 3366 4563 
L 3366 3988 
Q 3128 4100 2886 4159 
Q 2644 4219 2406 4219 
Q 1781 4219 1451 3797 
Q 1122 3375 1075 2522 
Q 1259 2794 1537 2939 
Q 1816 3084 2150 3084 
Q 2853 3084 3261 2657 
Q 3669 2231 3669 1497 
Q 3669 778 3244 343 
Q 2819 -91 2113 -91 
Q 1303 -91 875 529 
Q 447 1150 447 2328 
Q 447 3434 972 4092 
Q 1497 4750 2381 4750 
Q 2619 4750 2861 4703 
Q 3103 4656 3366 4563 
z
" transform="scale(0.015625)"/>
       </defs>
       <use xlink:href="#DejaVuSans-32"/>
       <use xlink:href="#DejaVuSans-30" x="63.623047"/>
       <use xlink:href="#DejaVuSans-31" x="127.246094"/>
       <use xlink:href="#DejaVuSans-36" x="190.869141"/>
      </g>
     </g>
    </g>
    <g id="xtick_3">
     <g id="line2d_3">
      <g>
       <use xlink:href="#ma852a5ea72" x="459.906543" y="512.64" style="stroke: #000000; stroke-width: 0.8"/>
      </g>
     </g>
     <g id="text_3">
      <!-- 2018 -->
      <g transform="translate(447.181543 527.238438) scale(0.1 -0.1)">
       <defs>
        <path id="DejaVuSans-38" d="M 2034 2216 
Q 1584 2216 1326 1975 
Q 1069 1734 1069 1313 
Q 1069 891 1326 650 
Q 1584 409 2034 409 
Q 2484 409 2743 651 
Q 3003 894 3003 1313 
Q 3003 1734 2745 1975 
Q 2488 2216 2034 2216 
z
M 1403 2484 
Q 997 2584 770 2862 
Q 544 3141 544 3541 
Q 544 4100 942 4425 
Q 1341 4750 2034 4750 
Q 2731 4750 3128 4425 
Q 3525 4100 3525 3541 
Q 3525 3141 3298 2862 
Q 3072 2584 2669 2484 
Q 3125 2378 3379 2068 
Q 3634 1759 3634 1313 
Q 3634 634 3220 271 
Q 2806 -91 2034 -91 
Q 1263 -91 848 271 
Q 434 634 434 1313 
Q 434 1759 690 2068 
Q 947 2378 1403 2484 
z
M 1172 3481 
Q 1172 3119 1398 2916 
Q 1625 2713 2034 2713 
Q 2441 2713 2670 2916 
Q 2900 3119 2900 3481 
Q 2900 3844 2670 4047 
Q 2441 4250 2034 4250 
Q 1625 4250 1398 4047 
Q 1172 3844 1172 3481 
z
" transform="scale(0.015625)"/>
       </defs>
       <use xlink:href="#DejaVuSans-32"/>
       <use xlink:href="#DejaVuSans-30" x="63.623047"/>
       <use xlink:href="#DejaVuSans-31" x="127.246094"/>
       <use xlink:href="#DejaVuSans-38" x="190.869141"/>
      </g>
     </g>
    </g>
    <g id="xtick_4">
     <g id="line2d_4">
      <g>
       <use xlink:href="#ma852a5ea72" x="601.347113" y="512.64" style="stroke: #000000; stroke-width: 0.8"/>
      </g>
     </g>
     <g id="text_4">
      <!-- 2020 -->
      <g transform="translate(588.622113 527.238438) scale(0.1 -0.1)">
       <use xlink:href="#DejaVuSans-32"/>
       <use xlink:href="#DejaVuSans-30" x="63.623047"/>
       <use xlink:href="#DejaVuSans-32" x="127.246094"/>
       <use xlink:href="#DejaVuSans-30" x="190.869141"/>
      </g>
     </g>
    </g>
    <g id="xtick_5">
     <g id="line2d_5">
      <g>
       <use xlink:href="#ma852a5ea72" x="742.981436" y="512.64" style="stroke: #000000; stroke-width: 0.8"/>
      </g>
     </g>
     <g id="text_5">
      <!-- 2022 -->
      <g transform="translate(730.256436 527.238438) scale(0.1 -0.1)">
       <use xlink:href="#DejaVuSans-32"/>
       <use xlink:href="#DejaVuSans-30" x="63.623047"/>
       <use xlink:href="#DejaVuSans-32" x="127.246094"/>
       <use xlink:href="#DejaVuSans-32" x="190.869141"/>
      </g>
     </g>
    </g>
    <g id="xtick_6">
     <g id="line2d_6">
      <g>
       <use xlink:href="#ma852a5ea72" x="884.422006" y="512.64" style="stroke: #000000; stroke-width: 0.8"/>
      </g>
     </g>
     <g id="text_6">
      <!-- 2024 -->
      <g transform="translate(871.697006 527.238438) scale(0.1 -0.1)">
       <use xlink:href="#DejaVuSans-32"/>
       <use xlink:href="#DejaVuSans-30" x="63.623047"/>
       <use xlink:href="#DejaVuSans-32" x="127.246094"/>
       <use xlink:href="#DejaVuSans-34" x="190.869141"/>
      </g>
     </g>
    </g>
    <g id="xtick_7">
     <g id="line2d_7">
      <g>
       <use xlink:href="#ma852a5ea72" x="1026.056329" y="512.64" style="stroke: #000000; stroke-width: 0.8"/>
      </g>
     </g>
     <g id="text_7">
      <!-- 2026 -->
      <g transform="translate(1013.331329 527.238438) scale(0.1 -0.1)">
       <use xlink:href="#DejaVuSans-32"/>
       <use xlink:href="#DejaVuSans-30" x="63.623047"/>
       <use xlink:href="#DejaVuSans-32" x="127.246094"/>
       <use xlink:href="#DejaVuSans-36" x="190.869141"/>
      </g>
     </g>
    </g>
   </g>
   <g id="matplotlib.axis_2">
    <g id="ytick_1">
     <g id="line2d_8">
      <defs>
       <path id="m86674fb9bd" d="M 0 0 
L -3.5 0 
" style="stroke: #000000; stroke-width: 0.8"/>
      </defs>
      <g>
       <use xlink:href="#m86674fb9bd" x="144" y="492.515046" style="stroke: #000000; stroke-width: 0.8"/>
      </g>
     </g>
     <g id="text_8">
      <!-- 0 -->
      <g transform="translate(130.6375 496.314264) scale(0.1 -0.1)">
       <use xlink:href="#DejaVuSans-30"/>
      </g>
     </g>
    </g>
    <g id="ytick_2">
     <g id="line2d_9">
      <g>
       <use xlink:href="#m86674fb9bd" x="144" y="422.423781" style="stroke: #000000; stroke-width: 0.8"/>
      </g>
     </g>
     <g id="text_9">
      <!-- 2000 -->
      <g transform="translate(111.55 426.223) scale(0.1 -0.1)">
       <use xlink:href="#DejaVuSans-32"/>
       <use xlink:href="#DejaVuSans-30" x="63.623047"/>
       <use xlink:href="#DejaVuSans-30" x="127.246094"/>
       <use xlink:href="#DejaVuSans-30" x="190.869141"/>
      </g>
     </g>
    </g>
    <g id="ytick_3">
     <g id="line2d_10">
      <g>
       <use xlink:href="#m86674fb9bd" x="144" y="352.332516" style="stroke: #000000; stroke-width: 0.8"/>
      </g>
     </g>
     <g id="text_10">
      <!-- 4000 -->
      <g transform="translate(111.55 356.131735) scale(0.1 -0.1)">
       <use xlink:href="#DejaVuSans-34"/>
       <use xlink:href="#DejaVuSans-30" x="63.623047"/>
       <use xlink:href="#DejaVuSans-30" x="127.246094"/>
       <use xlink:href="#DejaVuSans-30" x="190.869141"/>
      </g>
     </g>
    </g>
    <g id="ytick_4">
     <g id="line2d_11">
      <g>
       <use xlink:href="#m86674fb9bd" x="144" y="282.241252" style="stroke: #000000; stroke-width: 0.8"/>
      </g>
     </g>
     <g id="text_11">
      <!-- 6000 -->
      <g transform="translate(111.55 286.04047) scale(0.1 -0.1)">
       <use xlink:href="#DejaVuSans-36"/>
       <use xlink:href="#DejaVuSans-30" x="63.623047"/>
       <use xlink:href="#DejaVuSans-30" x="127.246094"/>
       <use xlink:href="#DejaVuSans-30" x="190.869141"/>
      </g>
     </g>
    </g>
    <g id="ytick_5">
     <g id="line2d_12">
      <g>
       <use xlink:href="#m86674fb9bd" x="144" y="212.149987" style="stroke: #000000; stroke-width: 0.8"/>
      </g>
     </g>
     <g id="text_12">
      <!-- 8000 -->
      <g transform="translate(111.55 215.949206) scale(0.1 -0.1)">
       <use xlink:href="#DejaVuSans-38"/>
       <use xlink:href="#DejaVuSans-30" x="63.623047"/>
       <use xlink:href="#DejaVuSans-30" x="127.246094"/>
       <use xlink:href="#DejaVuSans-30" x="190.869141"/>
      </g>
     </g>
    </g>
    <g id="ytick_6">
     <g id="line2d_13">
      <g>
       <use xlink:href="#m86674fb9bd" x="144" y="142.058722" style="stroke: #000000; stroke-width: 0.8"/>
      </g>
     </g>
     <g id="text_13">
      <!-- 10000 -->
      <g transform="translate(105.1875 145.857941) scale(0.1 -0.1)">
       <use xlink:href="#DejaVuSans-31"/>
       <use xlink:href="#DejaVuSans-30" x="63.623047"/>
       <use xlink:href="#DejaVuSans-30" x="127.246094"/>
       <use xlink:href="#DejaVuSans-30" x="190.869141"/>
       <use xlink:href="#DejaVuSans-30" x="254.492188"/>
      </g>
     </g>
    </g>
    <g id="ytick_7">
     <g id="line2d_14">
      <g>
       <use xlink:href="#m86674fb9bd" x="144" y="71.967458" style="stroke: #000000; stroke-width: 0.8"/>
      </g>
     </g>
     <g id="text_14">
      <!-- 12000 -->
      <g transform="translate(105.1875 75.766676) scale(0.1 -0.1)">
       <use xlink:href="#DejaVuSans-31"/>
       <use xlink:href="#DejaVuSans-32" x="63.623047"/>
       <use xlink:href="#DejaVuSans-30" x="127.246094"/>
       <use xlink:href="#DejaVuSans-30" x="190.869141"/>
       <use xlink:href="#DejaVuSans-30" x="254.492188"/>
      </g>
     </g>
    </g>
   </g>
   <g id="line2d_15">
    <path d="M 184.581818 492.48 
L 186.325606 492.409909 
L 307.421984 492.199635 
L 449.250062 492.024407 
L 501.951206 491.814133 
L 515.707754 491.708996 
L 548.645969 491.533768 
L 550.196003 491.463677 
L 559.108696 491.35854 
L 601.540867 491.148266 
L 607.741001 491.078175 
L 608.12851 490.79781 
L 612.197348 490.622581 
L 646.298088 490.482399 
L 650.173172 490.377262 
L 664.123475 490.23708 
L 673.811185 490.166988 
L 687.567734 489.956714 
L 691.249064 489.816532 
L 700.74302 489.606258 
L 704.230595 489.43103 
L 705.199366 489.360939 
L 706.555646 489.185711 
L 714.11206 488.975437 
L 718.180898 488.835254 
L 724.574787 488.379661 
L 734.650005 488.134342 
L 739.300106 486.697471 
L 739.493861 486.557288 
L 741.237648 486.38206 
L 742.012665 485.82133 
L 742.206419 484.945189 
L 742.593928 484.734915 
L 742.787682 484.69987 
L 742.981436 483.508318 
L 744.143961 483.017679 
L 744.53147 482.421904 
L 744.918978 482.176584 
L 745.112732 481.615854 
L 745.306487 480.249074 
L 745.500241 479.898618 
L 745.693995 479.16266 
L 745.887749 477.971108 
L 746.081504 475.938462 
L 746.469012 474.501591 
L 746.662766 474.221226 
L 746.85652 469.525111 
L 747.050275 467.632647 
L 747.244029 466.896688 
L 747.437783 463.497262 
L 748.019046 459.572151 
L 748.2128 459.467014 
L 748.600308 457.469413 
L 748.794062 456.803546 
L 748.987817 451.686884 
L 749.181571 451.231291 
L 749.569079 449.5491 
L 749.762833 449.443963 
L 749.956588 448.567823 
L 750.150342 444.923077 
L 750.344096 444.01189 
L 750.53785 443.941799 
L 750.731604 441.20824 
L 750.925359 440.682555 
L 751.312867 440.507327 
L 752.087884 437.843859 
L 752.475392 437.142947 
L 752.862901 435.075254 
L 753.056655 434.269205 
L 753.250409 430.344094 
L 753.831672 425.998435 
L 754.412934 425.788162 
L 754.800443 425.542842 
L 755.57546 424.070926 
L 755.962968 423.930743 
L 756.350476 420.916819 
L 756.544231 420.881773 
L 756.931739 420.356089 
L 757.125493 418.849126 
L 757.319247 418.428579 
L 757.513002 418.288396 
L 757.706756 417.93794 
L 757.90051 417.342164 
L 758.481773 417.096845 
L 758.675527 416.851525 
L 759.256789 414.643651 
L 759.450544 414.503468 
L 759.838052 413.942738 
L 760.613069 413.557236 
L 760.806823 412.120365 
L 761.000577 412.015228 
L 761.194331 411.734863 
L 761.388086 408.931213 
L 761.775594 408.826076 
L 762.163102 408.090117 
L 762.356857 407.389205 
L 762.938119 407.249022 
L 763.519382 406.162608 
L 763.713136 406.127562 
L 764.100645 405.531786 
L 764.488153 405.391604 
L 764.681907 402.167405 
L 765.844432 401.88704 
L 766.231941 401.606675 
L 767.006958 401.501538 
L 767.200712 401.291265 
L 769.525762 400.590352 
L 770.300779 400.029622 
L 771.26955 399.889439 
L 771.657059 399.609074 
L 772.044567 399.468892 
L 773.982109 398.943207 
L 774.757126 395.964329 
L 775.725897 395.824146 
L 775.919651 395.754055 
L 777.469685 395.578827 
L 778.050947 395.368553 
L 778.244701 394.772777 
L 779.213473 394.702686 
L 779.794735 394.387275 
L 780.763506 394.036819 
L 780.95726 394.001773 
L 781.344769 393.616271 
L 781.732277 393.511134 
L 781.926031 393.265815 
L 782.701048 392.98545 
L 783.669819 392.845267 
L 783.863573 392.599948 
L 784.251082 392.564902 
L 784.444836 392.004172 
L 784.63859 391.934081 
L 784.832344 391.128031 
L 787.157395 390.602347 
L 787.738658 390.462164 
L 787.932412 390.041617 
L 789.288691 389.69116 
L 789.869954 389.480887 
L 790.644971 389.305658 
L 791.419987 389.095385 
L 792.388758 388.885111 
L 792.970021 388.709883 
L 794.3263 387.903833 
L 794.520055 387.20292 
L 795.488826 386.396871 
L 795.68258 386.046415 
L 796.651351 385.205319 
L 797.038859 384.469361 
L 797.232614 384.434316 
L 797.426368 383.733403 
L 798.201385 382.682034 
L 798.588893 382.506806 
L 798.976401 382.436714 
L 799.170156 382.121304 
L 799.557664 381.946076 
L 799.751418 381.595619 
L 800.720189 381.3503 
L 800.913943 381.034889 
L 802.270223 380.719478 
L 802.657731 380.54425 
L 802.851485 380.509205 
L 803.04524 380.333977 
L 804.014011 380.193794 
L 805.37029 379.562973 
L 805.951553 379.42279 
L 806.339061 378.616741 
L 806.72657 378.371421 
L 807.695341 377.600417 
L 807.889095 376.794368 
L 808.664112 376.549048 
L 809.826637 376.163546 
L 810.407899 375.427588 
L 810.795408 375.217314 
L 810.989162 375.182269 
L 811.376671 374.621538 
L 811.957933 374.411265 
L 812.345442 374.095854 
L 812.926704 373.850535 
L 813.314213 369.925424 
L 813.507967 368.628735 
L 813.701721 366.455906 
L 813.895475 366.175541 
L 814.670492 363.477027 
L 815.058 362.776115 
L 815.251755 362.670978 
L 815.445509 362.425658 
L 815.639263 361.970065 
L 815.833017 360.393012 
L 816.026771 360.00751 
L 816.41428 359.867327 
L 817.576805 357.484224 
L 817.770559 357.308996 
L 817.964313 356.362764 
L 818.158068 356.012308 
L 818.545576 355.101121 
L 818.933084 354.540391 
L 819.708101 354.084798 
L 819.901856 353.874524 
L 820.09561 352.753064 
L 820.483118 352.577836 
L 820.870627 352.192334 
L 821.451889 351.386284 
L 821.645643 350.650326 
L 821.839398 350.61528 
L 822.42066 349.914368 
L 822.808169 349.844276 
L 823.001923 349.49382 
L 823.389431 349.283546 
L 824.358202 348.197132 
L 824.551956 347.601356 
L 826.10199 346.094394 
L 826.489498 344.727614 
L 827.652024 344.096793 
L 828.233286 343.185606 
L 829.202057 341.608553 
L 829.589566 341.398279 
L 830.364583 341.258096 
L 830.945845 340.136636 
L 831.720862 339.891317 
L 832.495879 338.98013 
L 832.883387 338.910039 
L 833.270896 338.489492 
L 833.852158 338.244172 
L 834.239667 338.209126 
L 834.433421 337.998853 
L 834.627175 337.368031 
L 835.402192 337.122712 
L 835.595946 336.772256 
L 835.7897 336.73721 
L 835.983455 336.106389 
L 836.564717 335.861069 
L 837.14598 335.720887 
L 837.533488 335.37043 
L 838.502259 334.879791 
L 838.889768 334.564381 
L 839.277276 334.319061 
L 839.664784 334.284016 
L 839.858539 333.337784 
L 840.246047 333.022373 
L 840.82731 332.742008 
L 841.408572 332.391551 
L 842.183589 332.251369 
L 842.377343 331.270091 
L 844.121131 330.323859 
L 844.50864 330.253768 
L 844.702394 329.938357 
L 845.477411 329.622947 
L 845.671165 329.237445 
L 846.058673 329.202399 
L 846.446182 328.95708 
L 847.027444 328.641669 
L 847.221198 328.15103 
L 847.996215 327.765528 
L 848.189969 327.485163 
L 848.577478 327.380026 
L 848.771232 327.134707 
L 849.352495 326.819296 
L 849.546249 326.503885 
L 849.740003 326.433794 
L 850.127511 326.153429 
L 850.51502 325.978201 
L 850.708774 325.767927 
L 851.871299 325.417471 
L 852.065053 325.031969 
L 852.258808 324.926832 
L 853.227579 324.681512 
L 853.615087 324.366102 
L 854.002596 324.225919 
L 854.583858 324.050691 
L 854.777612 323.73528 
L 855.165121 323.665189 
L 855.358875 323.034368 
L 855.552629 322.894185 
L 855.940138 322.438592 
L 856.133892 321.387223 
L 856.5214 321.141904 
L 856.715154 321.001721 
L 856.908909 320.721356 
L 857.296417 320.476037 
L 858.071434 319.775124 
L 858.458942 319.599896 
L 858.652696 319.179348 
L 858.846451 319.109257 
L 859.233959 318.688709 
L 859.621467 318.44339 
L 860.20273 318.233116 
L 860.590239 317.777523 
L 862.721535 315.920104 
L 863.690306 315.674785 
L 864.271568 314.938827 
L 864.659077 314.518279 
L 865.240339 314.167823 
L 866.015356 313.852412 
L 866.20911 313.677184 
L 866.984127 313.361773 
L 867.371636 313.011317 
L 867.952898 312.801043 
L 868.534161 312.450587 
L 869.115424 312.205267 
L 869.309178 312.030039 
L 871.440474 311.188944 
L 871.634228 310.838488 
L 872.990508 310.277757 
L 873.57177 309.892256 
L 874.153033 309.61189 
L 874.346787 309.401617 
L 875.121804 309.191343 
L 875.315558 308.700704 
L 875.509312 307.123651 
L 875.896821 306.703103 
L 876.090575 306.668057 
L 877.2531 305.12605 
L 877.640609 304.074681 
L 878.028117 303.724224 
L 878.415625 303.478905 
L 878.803134 303.373768 
L 878.996888 303.093403 
L 879.384396 302.883129 
L 879.771905 302.532673 
L 880.159413 302.357445 
L 880.353167 302.287353 
L 880.740676 301.866806 
L 880.93443 301.83176 
L 881.128184 301.411213 
L 881.709447 301.200939 
L 882.096955 300.675254 
L 882.678218 300.219661 
L 883.065726 299.834159 
L 883.646989 299.729022 
L 883.840743 299.413611 
L 884.422006 299.203338 
L 884.809514 297.66133 
L 885.197023 297.310874 
L 885.972039 297.030508 
L 886.359548 296.750143 
L 886.553302 296.189413 
L 886.94081 296.014185 
L 887.134565 295.523546 
L 887.328319 295.418409 
L 887.715827 294.997862 
L 887.909581 294.787588 
L 888.490844 294.577314 
L 888.878352 294.261904 
L 889.072107 294.226858 
L 889.265861 294.016584 
L 889.459615 293.981538 
L 890.234632 293.4909 
L 890.62214 292.614759 
L 890.815894 292.509622 
L 891.203403 292.439531 
L 891.397157 292.054029 
L 891.784665 291.878801 
L 892.172174 291.668527 
L 892.365928 291.037705 
L 893.140945 290.582112 
L 893.334699 289.951291 
L 894.109716 289.285424 
L 894.30347 289.250378 
L 894.690979 288.724694 
L 895.078487 288.409283 
L 895.272241 288.339192 
L 895.465995 287.988735 
L 895.853504 287.848553 
L 896.047258 287.182686 
L 896.434766 287.077549 
L 896.628521 286.762138 
L 896.822275 286.692047 
L 897.016029 285.956089 
L 897.403537 285.850952 
L 897.791046 285.605632 
L 898.178554 285.044902 
L 898.372308 284.90472 
L 899.147325 283.713168 
L 899.341079 283.643077 
L 899.728588 283.222529 
L 900.503605 282.661799 
L 901.084867 282.381434 
L 902.828655 280.559061 
L 903.216164 280.418879 
L 903.603672 279.998331 
L 903.99118 279.858149 
L 904.184935 279.017053 
L 904.766197 278.456323 
L 904.959951 277.755411 
L 905.34746 277.369909 
L 905.541214 276.984407 
L 905.734968 276.949361 
L 906.703739 276.003129 
L 907.285002 275.652673 
L 907.478756 275.372308 
L 908.641281 274.986806 
L 909.222544 274.250847 
L 909.610052 273.58498 
L 909.997561 273.444798 
L 910.191315 273.129387 
L 910.385069 273.059296 
L 910.578823 272.813977 
L 910.772578 272.778931 
L 910.966332 272.393429 
L 911.741349 271.867744 
L 912.322611 271.412151 
L 913.097628 271.026649 
L 913.678891 270.53601 
L 914.260153 270.255645 
L 914.453907 269.940235 
L 914.841416 269.870143 
L 915.422678 269.309413 
L 915.616433 268.994003 
L 916.197695 268.713638 
L 916.585204 268.398227 
L 917.166466 268.222999 
L 917.553975 267.802451 
L 918.522746 267.241721 
L 918.7165 266.996402 
L 919.491517 266.645945 
L 919.685271 265.033846 
L 920.654042 264.332934 
L 921.429059 262.931108 
L 921.622813 262.790926 
L 921.816567 262.335332 
L 922.204076 262.19515 
L 922.979092 261.003598 
L 923.366601 259.356454 
L 923.560355 258.795724 
L 923.947863 256.167301 
L 924.141618 255.115932 
L 925.110389 253.854289 
L 925.885405 250.700183 
L 926.07916 250.524954 
L 926.272914 250.034316 
L 926.466668 248.31708 
L 926.660422 247.686258 
L 926.854177 247.616167 
L 927.047931 246.845163 
L 927.629193 246.354524 
L 928.016702 245.02279 
L 928.985473 244.497106 
L 929.179227 244.146649 
L 930.147998 243.620965 
L 930.535506 243.200417 
L 930.729261 242.814915 
L 930.923015 241.833638 
L 931.116769 241.448136 
L 931.504277 241.307953 
L 931.891786 241.132725 
L 932.279294 240.85236 
L 932.666803 240.60704 
L 933.054311 240.536949 
L 933.441819 240.326675 
L 933.829328 240.081356 
L 934.023082 239.941173 
L 934.410591 239.906128 
L 937.704412 237.067432 
L 937.898166 236.962295 
L 938.09192 236.121199 
L 938.673183 235.525424 
L 939.060691 235.420287 
L 940.223217 234.439009 
L 940.610725 234.263781 
L 940.804479 234.19369 
L 941.191988 233.773142 
L 941.579496 233.668005 
L 941.77325 233.177366 
L 941.967004 233.002138 
L 942.160759 232.441408 
L 942.548267 232.196089 
L 943.12953 230.8994 
L 943.323284 230.198488 
L 943.904547 229.77794 
L 944.485809 228.97189 
L 944.873318 227.605111 
L 945.067072 227.184563 
L 945.260826 226.448605 
L 945.45458 226.378514 
L 945.648334 225.782738 
L 946.035843 225.537419 
L 947.198368 224.310821 
L 947.392122 223.820183 
L 947.973385 223.504772 
L 948.167139 223.014133 
L 948.942156 222.698722 
L 949.13591 222.453403 
L 949.329664 222.418357 
L 949.523418 221.682399 
L 949.910927 221.43708 
L 950.104681 220.981486 
L 950.298435 220.841304 
L 950.685944 220.806258 
L 951.848469 219.895072 
L 952.429732 219.439478 
L 952.81724 218.983885 
L 953.204748 218.598383 
L 953.398503 218.247927 
L 953.592257 217.476923 
L 954.754782 216.811056 
L 955.14229 215.934915 
L 955.529799 215.794733 
L 955.723553 215.269048 
L 955.917307 215.163911 
L 956.692324 214.217679 
L 957.661095 213.586858 
L 958.82362 212.395306 
L 959.404883 211.624302 
L 959.598637 211.133664 
L 959.792391 210.292568 
L 960.1799 209.626701 
L 960.373654 209.171108 
L 961.342425 204.0194 
L 961.536179 203.739035 
L 961.729933 203.213351 
L 961.923688 201.320887 
L 962.117442 197.676141 
L 962.311196 196.23927 
L 962.50495 193.926258 
L 962.698704 193.330482 
L 963.086213 190.70206 
L 963.473721 187.127405 
L 963.86123 182.291108 
L 964.248738 181.55515 
L 964.636246 175.352073 
L 964.830001 173.704928 
L 965.217509 166.590665 
L 965.605017 165.223885 
L 965.798772 161.649231 
L 965.992526 160.843181 
L 966.380034 156.883025 
L 966.767543 146.229153 
L 967.155051 144.582008 
L 967.348805 141.287718 
L 967.54256 140.937262 
L 967.930068 135.57528 
L 968.123822 135.470143 
L 968.317576 135.119687 
L 968.705085 133.858044 
L 968.898839 133.542634 
L 969.092593 132.946858 
L 969.286347 131.825398 
L 969.673856 131.615124 
L 969.86761 131.054394 
L 970.255118 129.302112 
L 970.642627 125.797549 
L 970.836381 125.061591 
L 971.030135 124.991499 
L 971.223889 124.676089 
L 972.19266 121.69721 
L 972.386415 121.557027 
L 972.580169 120.821069 
L 972.967677 120.470613 
L 973.161431 120.33043 
L 973.355186 119.804746 
L 973.54894 119.629518 
L 974.323957 118.437966 
L 974.905219 117.807145 
L 975.098974 117.737053 
L 976.067745 116.370274 
L 976.455253 116.195046 
L 977.036516 116.124954 
L 977.424024 115.59927 
L 977.811532 115.494133 
L 978.392795 114.758175 
L 979.167812 114.302581 
L 979.942829 113.321304 
L 980.136583 112.795619 
L 980.9116 112.5503 
L 981.299108 112.199844 
L 981.686616 111.498931 
L 982.074125 111.18352 
L 982.267879 110.938201 
L 982.461633 109.921877 
L 982.849142 109.25601 
L 983.430404 109.010691 
L 983.817913 108.69528 
L 984.205421 108.309778 
L 984.59293 107.959322 
L 984.980438 107.608866 
L 985.367946 107.258409 
L 985.561701 106.417314 
L 986.142963 105.996767 
L 986.91798 105.050535 
L 987.499243 104.559896 
L 988.080505 104.034211 
L 988.468014 103.823937 
L 988.855522 103.508527 
L 989.436785 103.298253 
L 989.824293 102.001565 
L 990.018047 101.896428 
L 990.59931 100.985241 
L 991.180572 100.319374 
L 991.374327 100.214237 
L 991.955589 99.092777 
L 992.343098 97.690952 
L 992.730606 97.550769 
L 992.92436 97.130222 
L 994.28064 96.254081 
L 995.055657 94.887301 
L 995.249411 94.747119 
L 995.443165 90.436506 
L 995.830673 89.630456 
L 996.218182 89.28 
L 996.218182 89.28 
" clip-path="url(#p5531de0fb3)" style="fill: none; stroke: #1f77b4; stroke-width: 1.5; stroke-linecap: square"/>
   </g>
   <g id="patch_3">
    <path d="M 144 512.64 
L 144 69.12 
" style="fill: none; stroke: #000000; stroke-width: 0.8; stroke-linejoin: miter; stroke-linecap: square"/>
   </g>
   <g id="patch_4">
    <path d="M 1036.8 512.64 
L 1036.8 69.12 
" style="fill: none; stroke: #000000; stroke-width: 0.8; stroke-linejoin: miter; stroke-linecap: square"/>
   </g>
   <g id="patch_5">
    <path d="M 144 512.64 
L 1036.8 512.64 
" style="fill: none; stroke: #000000; stroke-width: 0.8; stroke-linejoin: miter; stroke-linecap: square"/>
   </g>
   <g id="patch_6">
    <path d="M 144 69.12 
L 1036.8 69.12 
" style="fill: none; stroke: #000000; stroke-width: 0.8; stroke-linejoin: miter; stroke-linecap: square"/>
   </g>
   <g id="text_15">
    <!-- Number of AEDs in the OpenStreetMap database in Poland from first edition, day by day. As at: 2025-07-31 -->
    <g transform="translate(144 63.12) scale(0.14 -0.14)">
     <defs>
      <path id="DejaVuSans-4e" d="M 628 4666 
L 1478 4666 
L 3547 763 
L 3547 4666 
L 4159 4666 
L 4159 0 
L 3309 0 
L 1241 3903 
L 1241 0 
L 628 0 
L 628 4666 
z
" transform="scale(0.015625)"/>
      <path id="DejaVuSans-75" d="M 544 1381 
L 544 3500 
L 1119 3500 
L 1119 1403 
Q 1119 906 1312 657 
Q 1506 409 1894 409 
Q 2359 409 2629 706 
Q 2900 1003 2900 1516 
L 2900 3500 
L 3475 3500 
L 3475 0 
L 2900 0 
L 2900 538 
Q 2691 219 2414 64 
Q 2138 -91 1772 -91 
Q 1169 -91 856 284 
Q 544 659 544 1381 
z
M 1991 3584 
L 1991 3584 
z
" transform="scale(0.015625)"/>
      <path id="DejaVuSans-6d" d="M 3328 2828 
Q 3544 3216 3844 3400 
Q 4144 3584 4550 3584 
Q 5097 3584 5394 3201 
Q 5691 2819 5691 2113 
L 5691 0 
L 5113 0 
L 5113 2094 
Q 5113 2597 4934 2840 
Q 4756 3084 4391 3084 
Q 3944 3084 3684 2787 
Q 3425 2491 3425 1978 
L 3425 0 
L 2847 0 
L 2847 2094 
Q 2847 2600 2669 2842 
Q 2491 3084 2119 3084 
Q 1678 3084 1418 2786 
Q 1159 2488 1159 1978 
L 1159 0 
L 581 0 
L 581 3500 
L 1159 3500 
L 1159 2956 
Q 1356 3278 1631 3431 
Q 1906 3584 2284 3584 
Q 2666 3584 2933 3390 
Q 3200 3197 3328 2828 
z
" transform="scale(0.015625)"/>
      <path id="DejaVuSans-62" d="M 3116 1747 
Q 3116 2381 2855 2742 
Q 2594 3103 2138 3103 
Q 1681 3103 1420 2742 
Q 1159 2381 1159 1747 
Q 1159 1113 1420 752 
Q 1681 391 2138 391 
Q 2594 391 2855 752 
Q 3116 1113 3116 1747 
z
M 1159 2969 
Q 1341 3281 1617 3432 
Q 1894 3584 2278 3584 
Q 2916 3584 3314 3078 
Q 3713 2572 3713 1747 
Q 3713 922 3314 415 
Q 2916 -91 2278 -91 
Q 1894 -91 1617 61 
Q 1341 213 1159 525 
L 1159 0 
L 581 0 
L 581 4863 
L 1159 4863 
L 1159 2969 
z
" transform="scale(0.015625)"/>
      <path id="DejaVuSans-65" d="M 3597 1894 
L 3597 1613 
L 953 1613 
Q 991 1019 1311 708 
Q 1631 397 2203 397 
Q 2534 397 2845 478 
Q 3156 559 3463 722 
L 3463 178 
Q 3153 47 2828 -22 
Q 2503 -91 2169 -91 
Q 1331 -91 842 396 
Q 353 884 353 1716 
Q 353 2575 817 3079 
Q 1281 3584 2069 3584 
Q 2775 3584 3186 3129 
Q 3597 2675 3597 1894 
z
M 3022 2063 
Q 3016 2534 2758 2815 
Q 2500 3097 2075 3097 
Q 1594 3097 1305 2825 
Q 1016 2553 972 2059 
L 3022 2063 
z
" transform="scale(0.015625)"/>
      <path id="DejaVuSans-72" d="M 2631 2963 
Q 2534 3019 2420 3045 
Q 2306 3072 2169 3072 
Q 1681 3072 1420 2755 
Q 1159 2438 1159 1844 
L 1159 0 
L 581 0 
L 581 3500 
L 1159 3500 
L 1159 2956 
Q 1341 3275 1631 3429 
Q 1922 3584 2338 3584 
Q 2397 3584 2469 3576 
Q 2541 3569 2628 3553 
L 2631 2963 
z
" transform="scale(0.015625)"/>
      <path id="DejaVuSans-20" transform="scale(0.015625)"/>
      <path id="DejaVuSans-6f" d="M 1959 3097 
Q 1497 3097 1228 2736 
Q 959 2375 959 1747 
Q 959 1119 1226 758 
Q 1494 397 1959 397 
Q 2419 397 2687 759 
Q 2956 1122 2956 1747 
Q 2956 2369 2687 2733 
Q 2419 3097 1959 3097 
z
M 1959 3584 
Q 2709 3584 3137 3096 
Q 3566 2609 3566 1747 
Q 3566 888 3137 398 
Q 2709 -91 1959 -91 
Q 1206 -91 779 398 
Q 353 888 353 1747 
Q 353 2609 779 3096 
Q 1206 3584 1959 3584 
z
" transform="scale(0.015625)"/>
      <path id="DejaVuSans-66" d="M 2375 4863 
L 2375 4384 
L 1825 4384 
Q 1516 4384 1395 4259 
Q 1275 4134 1275 3809 
L 1275 3500 
L 2222 3500 
L 2222 3053 
L 1275 3053 
L 1275 0 
L 697 0 
L 697 3053 
L 147 3053 
L 147 3500 
L 697 3500 
L 697 3744 
Q 697 4328 969 4595 
Q 1241 4863 1831 4863 
L 2375 4863 
z
" transform="scale(0.015625)"/>
      <path id="DejaVuSans-41" d="M 2188 4044 
L 1331 1722 
L 3047 1722 
L 2188 4044 
z
M 1831 4666 
L 2547 4666 
L 4325 0 
L 3669 0 
L 3244 1197 
L 1141 1197 
L 716 0 
L 50 0 
L 1831 4666 
z
" transform="scale(0.015625)"/>
      <path id="DejaVuSans-45" d="M 628 4666 
L 3578 4666 
L 3578 4134 
L 1259 4134 
L 1259 2753 
L 3481 2753 
L 3481 2222 
L 1259 2222 
L 1259 531 
L 3634 531 
L 3634 0 
L 628 0 
L 628 4666 
z
" transform="scale(0.015625)"/>
      <path id="DejaVuSans-44" d="M 1259 4147 
L 1259 519 
L 2022 519 
Q 2988 519 3436 956 
Q 3884 1394 3884 2338 
Q 3884 3275 3436 3711 
Q 2988 4147 2022 4147 
L 1259 4147 
z
M 628 4666 
L 1925 4666 
Q 3281 4666 3915 4102 
Q 4550 3538 4550 2338 
Q 4550 1131 3912 565 
Q 3275 0 1925 0 
L 628 0 
L 628 4666 
z
" transform="scale(0.015625)"/>
      <path id="DejaVuSans-73" d="M 2834 3397 
L 2834 2853 
Q 2591 2978 2328 3040 
Q 2066 3103 1784 3103 
Q 1356 3103 1142 2972 
Q 928 2841 928 2578 
Q 928 2378 1081 2264 
Q 1234 2150 1697 2047 
L 1894 2003 
Q 2506 1872 2764 1633 
Q 3022 1394 3022 966 
Q 3022 478 2636 193 
Q 2250 -91 1575 -91 
Q 1294 -91 989 -36 
Q 684 19 347 128 
L 347 722 
Q 666 556 975 473 
Q 1284 391 1588 391 
Q 1994 391 2212 530 
Q 2431 669 2431 922 
Q 2431 1156 2273 1281 
Q 2116 1406 1581 1522 
L 1381 1569 
Q 847 1681 609 1914 
Q 372 2147 372 2553 
Q 372 3047 722 3315 
Q 1072 3584 1716 3584 
Q 2034 3584 2315 3537 
Q 2597 3491 2834 3397 
z
" transform="scale(0.015625)"/>
      <path id="DejaVuSans-69" d="M 603 3500 
L 1178 3500 
L 1178 0 
L 603 0 
L 603 3500 
z
M 603 4863 
L 1178 4863 
L 1178 4134 
L 603 4134 
L 603 4863 
z
" transform="scale(0.015625)"/>
      <path id="DejaVuSans-6e" d="M 3513 2113 
L 3513 0 
L 2938 0 
L 2938 2094 
Q 2938 2591 2744 2837 
Q 2550 3084 2163 3084 
Q 1697 3084 1428 2787 
Q 1159 2491 1159 1978 
L 1159 0 
L 581 0 
L 581 3500 
L 1159 3500 
L 1159 2956 
Q 1366 3272 1645 3428 
Q 1925 3584 2291 3584 
Q 2894 3584 3203 3211 
Q 3513 2838 3513 2113 
z
" transform="scale(0.015625)"/>
      <path id="DejaVuSans-74" d="M 1172 4494 
L 1172 3500 
L 2356 3500 
L 2356 3053 
L 1172 3053 
L 1172 1153 
Q 1172 725 1289 603 
Q 1406 481 1766 481 
L 2356 481 
L 2356 0 
L 1766 0 
Q 1100 0 847 248 
Q 594 497 594 1153 
L 594 3053 
L 172 3053 
L 172 3500 
L 594 3500 
L 594 4494 
L 1172 4494 
z
" transform="scale(0.015625)"/>
      <path id="DejaVuSans-68" d="M 3513 2113 
L 3513 0 
L 2938 0 
L 2938 2094 
Q 2938 2591 2744 2837 
Q 2550 3084 2163 3084 
Q 1697 3084 1428 2787 
Q 1159 2491 1159 1978 
L 1159 0 
L 581 0 
L 581 4863 
L 1159 4863 
L 1159 2956 
Q 1366 3272 1645 3428 
Q 1925 3584 2291 3584 
Q 2894 3584 3203 3211 
Q 3513 2838 3513 2113 
z
" transform="scale(0.015625)"/>
      <path id="DejaVuSans-4f" d="M 2522 4238 
Q 1834 4238 1429 3725 
Q 1025 3213 1025 2328 
Q 1025 1447 1429 934 
Q 1834 422 2522 422 
Q 3209 422 3611 934 
Q 4013 1447 4013 2328 
Q 4013 3213 3611 3725 
Q 3209 4238 2522 4238 
z
M 2522 4750 
Q 3503 4750 4090 4092 
Q 4678 3434 4678 2328 
Q 4678 1225 4090 567 
Q 3503 -91 2522 -91 
Q 1538 -91 948 565 
Q 359 1222 359 2328 
Q 359 3434 948 4092 
Q 1538 4750 2522 4750 
z
" transform="scale(0.015625)"/>
      <path id="DejaVuSans-70" d="M 1159 525 
L 1159 -1331 
L 581 -1331 
L 581 3500 
L 1159 3500 
L 1159 2969 
Q 1341 3281 1617 3432 
Q 1894 3584 2278 3584 
Q 2916 3584 3314 3078 
Q 3713 2572 3713 1747 
Q 3713 922 3314 415 
Q 2916 -91 2278 -91 
Q 1894 -91 1617 61 
Q 1341 213 1159 525 
z
M 3116 1747 
Q 3116 2381 2855 2742 
Q 2594 3103 2138 3103 
Q 1681 3103 1420 2742 
Q 1159 2381 1159 1747 
Q 1159 1113 1420 752 
Q 1681 391 2138 391 
Q 2594 391 2855 752 
Q 3116 1113 3116 1747 
z
" transform="scale(0.015625)"/>
      <path id="DejaVuSans-53" d="M 3425 4513 
L 3425 3897 
Q 3066 4069 2747 4153 
Q 2428 4238 2131 4238 
Q 1616 4238 1336 4038 
Q 1056 3838 1056 3469 
Q 1056 3159 1242 3001 
Q 1428 2844 1947 2747 
L 2328 2669 
Q 3034 2534 3370 2195 
Q 3706 1856 3706 1288 
Q 3706 609 3251 259 
Q 2797 -91 1919 -91 
Q 1588 -91 1214 -16 
Q 841 59 441 206 
L 441 856 
Q 825 641 1194 531 
Q 1563 422 1919 422 
Q 2459 422 2753 634 
Q 3047 847 3047 1241 
Q 3047 1584 2836 1778 
Q 2625 1972 2144 2069 
L 1759 2144 
Q 1053 2284 737 2584 
Q 422 2884 422 3419 
Q 422 4038 858 4394 
Q 1294 4750 2059 4750 
Q 2388 4750 2728 4690 
Q 3069 4631 3425 4513 
z
" transform="scale(0.015625)"/>
      <path id="DejaVuSans-4d" d="M 628 4666 
L 1569 4666 
L 2759 1491 
L 3956 4666 
L 4897 4666 
L 4897 0 
L 4281 0 
L 4281 4097 
L 3078 897 
L 2444 897 
L 1241 4097 
L 1241 0 
L 628 0 
L 628 4666 
z
" transform="scale(0.015625)"/>
      <path id="DejaVuSans-61" d="M 2194 1759 
Q 1497 1759 1228 1600 
Q 959 1441 959 1056 
Q 959 750 1161 570 
Q 1363 391 1709 391 
Q 2188 391 2477 730 
Q 2766 1069 2766 1631 
L 2766 1759 
L 2194 1759 
z
M 3341 1997 
L 3341 0 
L 2766 0 
L 2766 531 
Q 2569 213 2275 61 
Q 1981 -91 1556 -91 
Q 1019 -91 701 211 
Q 384 513 384 1019 
Q 384 1609 779 1909 
Q 1175 2209 1959 2209 
L 2766 2209 
L 2766 2266 
Q 2766 2663 2505 2880 
Q 2244 3097 1772 3097 
Q 1472 3097 1187 3025 
Q 903 2953 641 2809 
L 641 3341 
Q 956 3463 1253 3523 
Q 1550 3584 1831 3584 
Q 2591 3584 2966 3190 
Q 3341 2797 3341 1997 
z
" transform="scale(0.015625)"/>
      <path id="DejaVuSans-64" d="M 2906 2969 
L 2906 4863 
L 3481 4863 
L 3481 0 
L 2906 0 
L 2906 525 
Q 2725 213 2448 61 
Q 2172 -91 1784 -91 
Q 1150 -91 751 415 
Q 353 922 353 1747 
Q 353 2572 751 3078 
Q 1150 3584 1784 3584 
Q 2172 3584 2448 3432 
Q 2725 3281 2906 2969 
z
M 947 1747 
Q 947 1113 1208 752 
Q 1469 391 1925 391 
Q 2381 391 2643 752 
Q 2906 1113 2906 1747 
Q 2906 2381 2643 2742 
Q 2381 3103 1925 3103 
Q 1469 3103 1208 2742 
Q 947 2381 947 1747 
z
" transform="scale(0.015625)"/>
      <path id="DejaVuSans-50" d="M 1259 4147 
L 1259 2394 
L 2053 2394 
Q 2494 2394 2734 2622 
Q 2975 2850 2975 3272 
Q 2975 3691 2734 3919 
Q 2494 4147 2053 4147 
L 1259 4147 
z
M 628 4666 
L 2053 4666 
Q 2838 4666 3239 4311 
Q 3641 3956 3641 3272 
Q 3641 2581 3239 2228 
Q 2838 1875 2053 1875 
L 1259 1875 
L 1259 0 
L 628 0 
L 628 4666 
z
" transform="scale(0.015625)"/>
      <path id="DejaVuSans-6c" d="M 603 4863 
L 1178 4863 
L 1178 0 
L 603 0 
L 603 4863 
z
" transform="scale(0.015625)"/>
      <path id="DejaVuSans-2c" d="M 750 794 
L 1409 794 
L 1409 256 
L 897 -744 
L 494 -744 
L 750 256 
L 750 794 
z
" transform="scale(0.015625)"/>
      <path id="DejaVuSans-79" d="M 2059 -325 
Q 1816 -950 1584 -1140 
Q 1353 -1331 966 -1331 
L 506 -1331 
L 506 -850 
L 844 -850 
Q 1081 -850 1212 -737 
Q 1344 -625 1503 -206 
L 1606 56 
L 191 3500 
L 800 3500 
L 1894 763 
L 2988 3500 
L 3597 3500 
L 2059 -325 
z
" transform="scale(0.015625)"/>
      <path id="DejaVuSans-2e" d="M 684 794 
L 1344 794 
L 1344 0 
L 684 0 
L 684 794 
z
" transform="scale(0.015625)"/>
      <path id="DejaVuSans-3a" d="M 750 794 
L 1409 794 
L 1409 0 
L 750 0 
L 750 794 
z
M 750 3309 
L 1409 3309 
L 1409 2516 
L 750 2516 
L 750 3309 
z
" transform="scale(0.015625)"/>
      <path id="DejaVuSans-35" d="M 691 4666 
L 3169 4666 
L 3169 4134 
L 1269 4134 
L 1269 2991 
Q 1406 3038 1543 3061 
Q 1681 3084 1819 3084 
Q 2600 3084 3056 2656 
Q 3513 2228 3513 1497 
Q 3513 744 3044 326 
Q 2575 -91 1722 -91 
Q 1428 -91 1123 -41 
Q 819 9 494 109 
L 494 744 
Q 775 591 1075 516 
Q 1375 441 1709 441 
Q 2250 441 2565 725 
Q 2881 1009 2881 1497 
Q 2881 1984 2565 2268 
Q 2250 2553 1709 2553 
Q 1456 2553 1204 2497 
Q 953 2441 691 2322 
L 691 4666 
z
" transform="scale(0.015625)"/>
      <path id="DejaVuSans-2d" d="M 313 2009 
L 1997 2009 
L 1997 1497 
L 313 1497 
L 313 2009 
z
" transform="scale(0.015625)"/>
      <path id="DejaVuSans-37" d="M 525 4666 
L 3525 4666 
L 3525 4397 
L 1831 0 
L 1172 0 
L 2766 4134 
L 525 4134 
L 525 4666 
z
" transform="scale(0.015625)"/>
      <path id="DejaVuSans-33" d="M 2597 2516 
Q 3050 2419 3304 2112 
Q 3559 1806 3559 1356 
Q 3559 666 3084 287 
Q 2609 -91 1734 -91 
Q 1441 -91 1130 -33 
Q 819 25 488 141 
L 488 750 
Q 750 597 1062 519 
Q 1375 441 1716 441 
Q 2309 441 2620 675 
Q 2931 909 2931 1356 
Q 2931 1769 2642 2001 
Q 2353 2234 1838 2234 
L 1294 2234 
L 1294 2753 
L 1863 2753 
Q 2328 2753 2575 2939 
Q 2822 3125 2822 3475 
Q 2822 3834 2567 4026 
Q 2313 4219 1838 4219 
Q 1578 4219 1281 4162 
Q 984 4106 628 3988 
L 628 4550 
Q 988 4650 1302 4700 
Q 1616 4750 1894 4750 
Q 2613 4750 3031 4423 
Q 3450 4097 3450 3541 
Q 3450 3153 3228 2886 
Q 3006 2619 2597 2516 
z
" transform="scale(0.015625)"/>
     </defs>
     <use xlink:href="#DejaVuSans-4e"/>
     <use xlink:href="#DejaVuSans-75" x="74.804688"/>
     <use xlink:href="#DejaVuSans-6d" x="138.183594"/>
     <use xlink:href="#DejaVuSans-62" x="235.595703"/>
     <use xlink:href="#DejaVuSans-65" x="299.072266"/>
     <use xlink:href="#DejaVuSans-72" x="360.595703"/>
     <use xlink:href="#DejaVuSans-20" x="401.708984"/>
     <use xlink:href="#DejaVuSans-6f" x="433.496094"/>
     <use xlink:href="#DejaVuSans-66" x="494.677734"/>
     <use xlink:href="#DejaVuSans-20" x="529.882812"/>
     <use xlink:href="#DejaVuSans-41" x="561.669922"/>
     <use xlink:href="#DejaVuSans-45" x="630.078125"/>
     <use xlink:href="#DejaVuSans-44" x="693.261719"/>
     <use xlink:href="#DejaVuSans-73" x="770.263672"/>
     <use xlink:href="#DejaVuSans-20" x="822.363281"/>
     <use xlink:href="#DejaVuSans-69" x="854.150391"/>
     <use xlink:href="#DejaVuSans-6e" x="881.933594"/>
     <use xlink:href="#DejaVuSans-20" x="945.3125"/>
     <use xlink:href="#DejaVuSans-74" x="977.099609"/>
     <use xlink:href="#DejaVuSans-68" x="1016.308594"/>
     <use xlink:href="#DejaVuSans-65" x="1079.6875"/>
     <use xlink:href="#DejaVuSans-20" x="1141.210938"/>
     <use xlink:href="#DejaVuSans-4f" x="1172.998047"/>
     <use xlink:href="#DejaVuSans-70" x="1251.708984"/>
     <use xlink:href="#DejaVuSans-65" x="1315.185547"/>
     <use xlink:href="#DejaVuSans-6e" x="1376.708984"/>
     <use xlink:href="#DejaVuSans-53" x="1440.087891"/>
     <use xlink:href="#DejaVuSans-74" x="1503.564453"/>
     <use xlink:href="#DejaVuSans-72" x="1542.773438"/>
     <use xlink:href="#DejaVuSans-65" x="1581.636719"/>
     <use xlink:href="#DejaVuSans-65" x="1643.160156"/>
     <use xlink:href="#DejaVuSans-74" x="1704.683594"/>
     <use xlink:href="#DejaVuSans-4d" x="1743.892578"/>
     <use xlink:href="#DejaVuSans-61" x="1830.171875"/>
     <use xlink:href="#DejaVuSans-70" x="1891.451172"/>
     <use xlink:href="#DejaVuSans-20" x="1954.927734"/>
     <use xlink:href="#DejaVuSans-64" x="1986.714844"/>
     <use xlink:href="#DejaVuSans-61" x="2050.191406"/>
     <use xlink:href="#DejaVuSans-74" x="2111.470703"/>
     <use xlink:href="#DejaVuSans-61" x="2150.679688"/>
     <use xlink:href="#DejaVuSans-62" x="2211.958984"/>
     <use xlink:href="#DejaVuSans-61" x="2275.435547"/>
     <use xlink:href="#DejaVuSans-73" x="2336.714844"/>
     <use xlink:href="#DejaVuSans-65" x="2388.814453"/>
     <use xlink:href="#DejaVuSans-20" x="2450.337891"/>
     <use xlink:href="#DejaVuSans-69" x="2482.125"/>
     <use xlink:href="#DejaVuSans-6e" x="2509.908203"/>
     <use xlink:href="#DejaVuSans-20" x="2573.287109"/>
     <use xlink:href="#DejaVuSans-50" x="2605.074219"/>
     <use xlink:href="#DejaVuSans-6f" x="2661.751953"/>
     <use xlink:href="#DejaVuSans-6c" x="2722.933594"/>
     <use xlink:href="#DejaVuSans-61" x="2750.716797"/>
     <use xlink:href="#DejaVuSans-6e" x="2811.996094"/>
     <use xlink:href="#DejaVuSans-64" x="2875.375"/>
     <use xlink:href="#DejaVuSans-20" x="2938.851562"/>
     <use xlink:href="#DejaVuSans-66" x="2970.638672"/>
     <use xlink:href="#DejaVuSans-72" x="3005.84375"/>
     <use xlink:href="#DejaVuSans-6f" x="3044.707031"/>
     <use xlink:href="#DejaVuSans-6d" x="3105.888672"/>
     <use xlink:href="#DejaVuSans-20" x="3203.300781"/>
     <use xlink:href="#DejaVuSans-66" x="3235.087891"/>
     <use xlink:href="#DejaVuSans-69" x="3270.292969"/>
     <use xlink:href="#DejaVuSans-72" x="3298.076172"/>
     <use xlink:href="#DejaVuSans-73" x="3339.189453"/>
     <use xlink:href="#DejaVuSans-74" x="3391.289062"/>
     <use xlink:href="#DejaVuSans-20" x="3430.498047"/>
     <use xlink:href="#DejaVuSans-65" x="3462.285156"/>
     <use xlink:href="#DejaVuSans-64" x="3523.808594"/>
     <use xlink:href="#DejaVuSans-69" x="3587.285156"/>
     <use xlink:href="#DejaVuSans-74" x="3615.068359"/>
     <use xlink:href="#DejaVuSans-69" x="3654.277344"/>
     <use xlink:href="#DejaVuSans-6f" x="3682.060547"/>
     <use xlink:href="#DejaVuSans-6e" x="3743.242188"/>
     <use xlink:href="#DejaVuSans-2c" x="3806.621094"/>
     <use xlink:href="#DejaVuSans-20" x="3838.408203"/>
     <use xlink:href="#DejaVuSans-64" x="3870.195312"/>
     <use xlink:href="#DejaVuSans-61" x="3933.671875"/>
     <use xlink:href="#DejaVuSans-79" x="3994.951172"/>
     <use xlink:href="#DejaVuSans-20" x="4054.130859"/>
     <use xlink:href="#DejaVuSans-62" x="4085.917969"/>
     <use xlink:href="#DejaVuSans-79" x="4149.394531"/>
     <use xlink:href="#DejaVuSans-20" x="4208.574219"/>
     <use xlink:href="#DejaVuSans-64" x="4240.361328"/>
     <use xlink:href="#DejaVuSans-61" x="4303.837891"/>
     <use xlink:href="#DejaVuSans-79" x="4365.117188"/>
     <use xlink:href="#DejaVuSans-2e" x="4410.046875"/>
     <use xlink:href="#DejaVuSans-20" x="4441.833984"/>
     <use xlink:href="#DejaVuSans-41" x="4473.621094"/>
     <use xlink:href="#DejaVuSans-73" x="4542.029297"/>
     <use xlink:href="#DejaVuSans-20" x="4594.128906"/>
     <use xlink:href="#DejaVuSans-61" x="4625.916016"/>
     <use xlink:href="#DejaVuSans-74" x="4687.195312"/>
     <use xlink:href="#DejaVuSans-3a" x="4726.404297"/>
     <use xlink:href="#DejaVuSans-20" x="4760.095703"/>
     <use xlink:href="#DejaVuSans-32" x="4791.882812"/>
     <use xlink:href="#DejaVuSans-30" x="4855.505859"/>
     <use xlink:href="#DejaVuSans-32" x="4919.128906"/>
     <use xlink:href="#DejaVuSans-35" x="4982.751953"/>
     <use xlink:href="#DejaVuSans-2d" x="5046.375"/>
     <use xlink:href="#DejaVuSans-30" x="5082.458984"/>
     <use xlink:href="#DejaVuSans-37" x="5146.082031"/>
     <use xlink:href="#DejaVuSans-2d" x="5209.705078"/>
     <use xlink:href="#DejaVuSans-33" x="5245.789062"/>
     <use xlink:href="#DejaVuSans-31" x="5309.412109"/>
    </g>
   </g>
  </g>
 </g>
 <defs>
  <clipPath id="p5531de0fb3">
   <rect x="144" y="69.12" width="892.8" height="443.52"/>
  </clipPath>
 </defs>
</svg>
