<?xml version="1.0" encoding="utf-8" standalone="no"?>
<!DOCTYPE svg PUBLIC "-//W3C//DTD SVG 1.1//EN"
  "http://www.w3.org/Graphics/SVG/1.1/DTD/svg11.dtd">
<svg xmlns:xlink="http://www.w3.org/1999/xlink" width="1152pt" height="576pt" viewBox="0 0 1152 576" xmlns="http://www.w3.org/2000/svg" version="1.1">
 <metadata>
  <rdf:RDF xmlns:dc="http://purl.org/dc/elements/1.1/" xmlns:cc="http://creativecommons.org/ns#" xmlns:rdf="http://www.w3.org/1999/02/22-rdf-syntax-ns#">
   <cc:Work>
    <dc:type rdf:resource="http://purl.org/dc/dcmitype/StillImage"/>
    <dc:date>1980-01-01T00:00:00+00:00</dc:date>
    <dc:format>image/svg+xml</dc:format>
    <dc:creator>
     <cc:Agent>
      <dc:title>Matplotlib v3.9.1, https://matplotlib.org/</dc:title>
     </cc:Agent>
    </dc:creator>
   </cc:Work>
  </rdf:RDF>
 </metadata>
 <defs>
  <style type="text/css">*{stroke-linejoin: round; stroke-linecap: butt}</style>
 </defs>
 <g id="figure_1">
  <g id="patch_1">
   <path d="M 0 576 
L 1152 576 
L 1152 0 
L 0 0 
z
" style="fill: #ffffff"/>
  </g>
  <g id="axes_1">
   <g id="patch_2">
    <path d="M 144 512.64 
L 1036.8 512.64 
L 1036.8 69.12 
L 144 69.12 
z
" style="fill: #ffffff"/>
   </g>
   <g id="matplotlib.axis_1">
    <g id="xtick_1">
     <g id="line2d_1">
      <defs>
       <path id="me47e147264" d="M 0 0 
L 0 3.5 
" style="stroke: #000000; stroke-width: 0.8"/>
      </defs>
      <g>
       <use xlink:href="#me47e147264" x="176.978667" y="512.64" style="stroke: #000000; stroke-width: 0.8"/>
      </g>
     </g>
     <g id="text_1">
      <!-- 2014 -->
      <g transform="translate(164.253667 527.238438) scale(0.1 -0.1)">
       <defs>
        <path id="DejaVuSans-32" d="M 1228 531 
L 3431 531 
L 3431 0 
L 469 0 
L 469 531 
Q 828 903 1448 1529 
Q 2069 2156 2228 2338 
Q 2531 2678 2651 2914 
Q 2772 3150 2772 3378 
Q 2772 3750 2511 3984 
Q 2250 4219 1831 4219 
Q 1534 4219 1204 4116 
Q 875 4013 500 3803 
L 500 4441 
Q 881 4594 1212 4672 
Q 1544 4750 1819 4750 
Q 2544 4750 2975 4387 
Q 3406 4025 3406 3419 
Q 3406 3131 3298 2873 
Q 3191 2616 2906 2266 
Q 2828 2175 2409 1742 
Q 1991 1309 1228 531 
z
" transform="scale(0.015625)"/>
        <path id="DejaVuSans-30" d="M 2034 4250 
Q 1547 4250 1301 3770 
Q 1056 3291 1056 2328 
Q 1056 1369 1301 889 
Q 1547 409 2034 409 
Q 2525 409 2770 889 
Q 3016 1369 3016 2328 
Q 3016 3291 2770 3770 
Q 2525 4250 2034 4250 
z
M 2034 4750 
Q 2819 4750 3233 4129 
Q 3647 3509 3647 2328 
Q 3647 1150 3233 529 
Q 2819 -91 2034 -91 
Q 1250 -91 836 529 
Q 422 1150 422 2328 
Q 422 3509 836 4129 
Q 1250 4750 2034 4750 
z
" transform="scale(0.015625)"/>
        <path id="DejaVuSans-31" d="M 794 531 
L 1825 531 
L 1825 4091 
L 703 3866 
L 703 4441 
L 1819 4666 
L 2450 4666 
L 2450 531 
L 3481 531 
L 3481 0 
L 794 0 
L 794 531 
z
" transform="scale(0.015625)"/>
        <path id="DejaVuSans-34" d="M 2419 4116 
L 825 1625 
L 2419 1625 
L 2419 4116 
z
M 2253 4666 
L 3047 4666 
L 3047 1625 
L 3713 1625 
L 3713 1100 
L 3047 1100 
L 3047 0 
L 2419 0 
L 2419 1100 
L 313 1100 
L 313 1709 
L 2253 4666 
z
" transform="scale(0.015625)"/>
       </defs>
       <use xlink:href="#DejaVuSans-32"/>
       <use xlink:href="#DejaVuSans-30" x="63.623047"/>
       <use xlink:href="#DejaVuSans-31" x="127.246094"/>
       <use xlink:href="#DejaVuSans-34" x="190.869141"/>
      </g>
     </g>
    </g>
    <g id="xtick_2">
     <g id="line2d_2">
      <g>
       <use xlink:href="#me47e147264" x="315.736172" y="512.64" style="stroke: #000000; stroke-width: 0.8"/>
      </g>
     </g>
     <g id="text_2">
      <!-- 2016 -->
      <g transform="translate(303.011172 527.238438) scale(0.1 -0.1)">
       <defs>
        <path id="DejaVuSans-36" d="M 2113 2584 
Q 1688 2584 1439 2293 
Q 1191 2003 1191 1497 
Q 1191 994 1439 701 
Q 1688 409 2113 409 
Q 2538 409 2786 701 
Q 3034 994 3034 1497 
Q 3034 2003 2786 2293 
Q 2538 2584 2113 2584 
z
M 3366 4563 
L 3366 3988 
Q 3128 4100 2886 4159 
Q 2644 4219 2406 4219 
Q 1781 4219 1451 3797 
Q 1122 3375 1075 2522 
Q 1259 2794 1537 2939 
Q 1816 3084 2150 3084 
Q 2853 3084 3261 2657 
Q 3669 2231 3669 1497 
Q 3669 778 3244 343 
Q 2819 -91 2113 -91 
Q 1303 -91 875 529 
Q 447 1150 447 2328 
Q 447 3434 972 4092 
Q 1497 4750 2381 4750 
Q 2619 4750 2861 4703 
Q 3103 4656 3366 4563 
z
" transform="scale(0.015625)"/>
       </defs>
       <use xlink:href="#DejaVuSans-32"/>
       <use xlink:href="#DejaVuSans-30" x="63.623047"/>
       <use xlink:href="#DejaVuSans-31" x="127.246094"/>
       <use xlink:href="#DejaVuSans-36" x="190.869141"/>
      </g>
     </g>
    </g>
    <g id="xtick_3">
     <g id="line2d_3">
      <g>
       <use xlink:href="#me47e147264" x="454.683756" y="512.64" style="stroke: #000000; stroke-width: 0.8"/>
      </g>
     </g>
     <g id="text_3">
      <!-- 2018 -->
      <g transform="translate(441.958756 527.238438) scale(0.1 -0.1)">
       <defs>
        <path id="DejaVuSans-38" d="M 2034 2216 
Q 1584 2216 1326 1975 
Q 1069 1734 1069 1313 
Q 1069 891 1326 650 
Q 1584 409 2034 409 
Q 2484 409 2743 651 
Q 3003 894 3003 1313 
Q 3003 1734 2745 1975 
Q 2488 2216 2034 2216 
z
M 1403 2484 
Q 997 2584 770 2862 
Q 544 3141 544 3541 
Q 544 4100 942 4425 
Q 1341 4750 2034 4750 
Q 2731 4750 3128 4425 
Q 3525 4100 3525 3541 
Q 3525 3141 3298 2862 
Q 3072 2584 2669 2484 
Q 3125 2378 3379 2068 
Q 3634 1759 3634 1313 
Q 3634 634 3220 271 
Q 2806 -91 2034 -91 
Q 1263 -91 848 271 
Q 434 634 434 1313 
Q 434 1759 690 2068 
Q 947 2378 1403 2484 
z
M 1172 3481 
Q 1172 3119 1398 2916 
Q 1625 2713 2034 2713 
Q 2441 2713 2670 2916 
Q 2900 3119 2900 3481 
Q 2900 3844 2670 4047 
Q 2441 4250 2034 4250 
Q 1625 4250 1398 4047 
Q 1172 3844 1172 3481 
z
" transform="scale(0.015625)"/>
       </defs>
       <use xlink:href="#DejaVuSans-32"/>
       <use xlink:href="#DejaVuSans-30" x="63.623047"/>
       <use xlink:href="#DejaVuSans-31" x="127.246094"/>
       <use xlink:href="#DejaVuSans-38" x="190.869141"/>
      </g>
     </g>
    </g>
    <g id="xtick_4">
     <g id="line2d_4">
      <g>
       <use xlink:href="#me47e147264" x="593.44126" y="512.64" style="stroke: #000000; stroke-width: 0.8"/>
      </g>
     </g>
     <g id="text_4">
      <!-- 2020 -->
      <g transform="translate(580.71626 527.238438) scale(0.1 -0.1)">
       <use xlink:href="#DejaVuSans-32"/>
       <use xlink:href="#DejaVuSans-30" x="63.623047"/>
       <use xlink:href="#DejaVuSans-32" x="127.246094"/>
       <use xlink:href="#DejaVuSans-30" x="190.869141"/>
      </g>
     </g>
    </g>
    <g id="xtick_5">
     <g id="line2d_5">
      <g>
       <use xlink:href="#me47e147264" x="732.388844" y="512.64" style="stroke: #000000; stroke-width: 0.8"/>
      </g>
     </g>
     <g id="text_5">
      <!-- 2022 -->
      <g transform="translate(719.663844 527.238438) scale(0.1 -0.1)">
       <use xlink:href="#DejaVuSans-32"/>
       <use xlink:href="#DejaVuSans-30" x="63.623047"/>
       <use xlink:href="#DejaVuSans-32" x="127.246094"/>
       <use xlink:href="#DejaVuSans-32" x="190.869141"/>
      </g>
     </g>
    </g>
    <g id="xtick_6">
     <g id="line2d_6">
      <g>
       <use xlink:href="#me47e147264" x="871.146349" y="512.64" style="stroke: #000000; stroke-width: 0.8"/>
      </g>
     </g>
     <g id="text_6">
      <!-- 2024 -->
      <g transform="translate(858.421349 527.238438) scale(0.1 -0.1)">
       <use xlink:href="#DejaVuSans-32"/>
       <use xlink:href="#DejaVuSans-30" x="63.623047"/>
       <use xlink:href="#DejaVuSans-32" x="127.246094"/>
       <use xlink:href="#DejaVuSans-34" x="190.869141"/>
      </g>
     </g>
    </g>
    <g id="xtick_7">
     <g id="line2d_7">
      <g>
       <use xlink:href="#me47e147264" x="1010.093932" y="512.64" style="stroke: #000000; stroke-width: 0.8"/>
      </g>
     </g>
     <g id="text_7">
      <!-- 2026 -->
      <g transform="translate(997.368932 527.238438) scale(0.1 -0.1)">
       <use xlink:href="#DejaVuSans-32"/>
       <use xlink:href="#DejaVuSans-30" x="63.623047"/>
       <use xlink:href="#DejaVuSans-32" x="127.246094"/>
       <use xlink:href="#DejaVuSans-36" x="190.869141"/>
      </g>
     </g>
    </g>
   </g>
   <g id="matplotlib.axis_2">
    <g id="ytick_1">
     <g id="line2d_8">
      <defs>
       <path id="mb35b04cf1e" d="M 0 0 
L -3.5 0 
" style="stroke: #000000; stroke-width: 0.8"/>
      </defs>
      <g>
       <use xlink:href="#mb35b04cf1e" x="144" y="492.513022" style="stroke: #000000; stroke-width: 0.8"/>
      </g>
     </g>
     <g id="text_8">
      <!-- 0 -->
      <g transform="translate(130.6375 496.312241) scale(0.1 -0.1)">
       <use xlink:href="#DejaVuSans-30"/>
      </g>
     </g>
    </g>
    <g id="ytick_2">
     <g id="line2d_9">
      <g>
       <use xlink:href="#mb35b04cf1e" x="144" y="426.468796" style="stroke: #000000; stroke-width: 0.8"/>
      </g>
     </g>
     <g id="text_9">
      <!-- 2000 -->
      <g transform="translate(111.55 430.268015) scale(0.1 -0.1)">
       <use xlink:href="#DejaVuSans-32"/>
       <use xlink:href="#DejaVuSans-30" x="63.623047"/>
       <use xlink:href="#DejaVuSans-30" x="127.246094"/>
       <use xlink:href="#DejaVuSans-30" x="190.869141"/>
      </g>
     </g>
    </g>
    <g id="ytick_3">
     <g id="line2d_10">
      <g>
       <use xlink:href="#mb35b04cf1e" x="144" y="360.42457" style="stroke: #000000; stroke-width: 0.8"/>
      </g>
     </g>
     <g id="text_10">
      <!-- 4000 -->
      <g transform="translate(111.55 364.223789) scale(0.1 -0.1)">
       <use xlink:href="#DejaVuSans-34"/>
       <use xlink:href="#DejaVuSans-30" x="63.623047"/>
       <use xlink:href="#DejaVuSans-30" x="127.246094"/>
       <use xlink:href="#DejaVuSans-30" x="190.869141"/>
      </g>
     </g>
    </g>
    <g id="ytick_4">
     <g id="line2d_11">
      <g>
       <use xlink:href="#mb35b04cf1e" x="144" y="294.380344" style="stroke: #000000; stroke-width: 0.8"/>
      </g>
     </g>
     <g id="text_11">
      <!-- 6000 -->
      <g transform="translate(111.55 298.179563) scale(0.1 -0.1)">
       <use xlink:href="#DejaVuSans-36"/>
       <use xlink:href="#DejaVuSans-30" x="63.623047"/>
       <use xlink:href="#DejaVuSans-30" x="127.246094"/>
       <use xlink:href="#DejaVuSans-30" x="190.869141"/>
      </g>
     </g>
    </g>
    <g id="ytick_5">
     <g id="line2d_12">
      <g>
       <use xlink:href="#mb35b04cf1e" x="144" y="228.336118" style="stroke: #000000; stroke-width: 0.8"/>
      </g>
     </g>
     <g id="text_12">
      <!-- 8000 -->
      <g transform="translate(111.55 232.135337) scale(0.1 -0.1)">
       <use xlink:href="#DejaVuSans-38"/>
       <use xlink:href="#DejaVuSans-30" x="63.623047"/>
       <use xlink:href="#DejaVuSans-30" x="127.246094"/>
       <use xlink:href="#DejaVuSans-30" x="190.869141"/>
      </g>
     </g>
    </g>
    <g id="ytick_6">
     <g id="line2d_13">
      <g>
       <use xlink:href="#mb35b04cf1e" x="144" y="162.291892" style="stroke: #000000; stroke-width: 0.8"/>
      </g>
     </g>
     <g id="text_13">
      <!-- 10000 -->
      <g transform="translate(105.1875 166.091111) scale(0.1 -0.1)">
       <use xlink:href="#DejaVuSans-31"/>
       <use xlink:href="#DejaVuSans-30" x="63.623047"/>
       <use xlink:href="#DejaVuSans-30" x="127.246094"/>
       <use xlink:href="#DejaVuSans-30" x="190.869141"/>
       <use xlink:href="#DejaVuSans-30" x="254.492188"/>
      </g>
     </g>
    </g>
    <g id="ytick_7">
     <g id="line2d_14">
      <g>
       <use xlink:href="#mb35b04cf1e" x="144" y="96.247666" style="stroke: #000000; stroke-width: 0.8"/>
      </g>
     </g>
     <g id="text_14">
      <!-- 12000 -->
      <g transform="translate(105.1875 100.046885) scale(0.1 -0.1)">
       <use xlink:href="#DejaVuSans-31"/>
       <use xlink:href="#DejaVuSans-32" x="63.623047"/>
       <use xlink:href="#DejaVuSans-30" x="127.246094"/>
       <use xlink:href="#DejaVuSans-30" x="190.869141"/>
       <use xlink:href="#DejaVuSans-30" x="254.492188"/>
      </g>
     </g>
    </g>
   </g>
   <g id="line2d_15">
    <path d="M 184.581818 492.48 
L 186.292527 492.413956 
L 368.387992 492.182801 
L 444.229423 492.050713 
L 495.930849 491.85258 
L 509.426442 491.753514 
L 541.739834 491.588403 
L 543.260464 491.522359 
L 552.004088 491.423292 
L 593.631339 491.22516 
L 599.71386 491.159115 
L 600.094017 490.894939 
L 604.085672 490.729828 
L 637.539536 490.59774 
L 641.341111 490.498673 
L 664.530722 490.300541 
L 678.596551 490.069386 
L 681.637811 489.970319 
L 690.951671 489.772187 
L 694.373089 489.607076 
L 695.323483 489.541032 
L 696.654034 489.375921 
L 705.777816 489.144767 
L 708.058761 489.0457 
L 714.33136 488.616413 
L 724.215457 488.385258 
L 730.107899 486.767174 
L 730.678135 486.734152 
L 731.43845 486.205799 
L 731.628529 485.413268 
L 732.008686 485.215135 
L 732.198765 485.182113 
L 732.388844 484.125405 
L 733.529317 483.663096 
L 733.909474 483.10172 
L 734.289632 482.870565 
L 734.47971 482.375233 
L 734.669789 481.450614 
L 734.859868 481.120393 
L 735.049947 480.492973 
L 735.240026 479.469287 
L 735.430104 477.554005 
L 735.810262 476.23312 
L 736.000341 475.968943 
L 736.190419 471.54398 
L 736.380498 469.793808 
L 736.570577 469.133366 
L 736.950735 464.741425 
L 737.140813 464.080983 
L 737.330892 462.429877 
L 737.520971 462.330811 
L 738.091207 460.052285 
L 738.281286 455.363145 
L 738.471365 454.933857 
L 738.851522 453.480885 
L 739.041601 453.381818 
L 739.23168 452.556265 
L 739.421759 449.18801 
L 739.611837 448.362457 
L 739.801916 448.296413 
L 739.991995 445.852776 
L 740.182074 445.390467 
L 740.562231 445.225356 
L 741.322546 442.715676 
L 741.702704 442.055233 
L 742.082861 440.139951 
L 742.27294 439.413464 
L 742.653098 434.228993 
L 743.223334 431.68629 
L 743.983649 431.290025 
L 744.743964 429.936118 
L 745.124122 429.870074 
L 745.504279 427.030172 
L 745.694358 426.99715 
L 746.074516 426.53484 
L 746.264594 425.28 
L 746.644752 424.784668 
L 746.834831 424.487469 
L 747.02491 423.926093 
L 747.595146 423.694939 
L 747.785225 423.463784 
L 748.355461 421.416413 
L 748.54554 421.284324 
L 748.925697 420.755971 
L 749.686012 420.392727 
L 749.876091 419.071843 
L 750.06617 418.972776 
L 750.256249 418.741622 
L 750.446327 416.198919 
L 750.826485 416.132875 
L 751.206643 415.43941 
L 751.396721 414.778968 
L 751.966958 414.64688 
L 752.537194 413.623194 
L 752.727273 413.590172 
L 753.10743 413.061818 
L 753.487588 412.92973 
L 753.677667 409.924717 
L 754.818139 409.660541 
L 755.198297 409.396364 
L 755.958612 409.297297 
L 756.148691 409.132187 
L 758.429636 408.471744 
L 759.189951 407.943391 
L 760.140345 407.811302 
L 760.90066 407.415037 
L 762.801448 406.919705 
L 763.561763 404.145848 
L 764.512157 404.013759 
L 764.702235 403.947715 
L 766.222866 403.782604 
L 766.793102 403.584472 
L 766.983181 403.056118 
L 768.123653 402.891007 
L 769.644284 402.362654 
L 770.024441 401.99941 
L 770.404599 401.900344 
L 770.594677 401.669189 
L 771.354993 401.405012 
L 772.305386 401.305946 
L 772.495465 401.074791 
L 772.875623 401.041769 
L 773.065702 400.513415 
L 773.25578 400.447371 
L 773.445859 399.720885 
L 775.726804 399.225553 
L 776.297041 399.093464 
L 776.487119 398.697199 
L 777.817671 398.366978 
L 778.387907 398.168845 
L 779.148222 398.003735 
L 779.908537 397.805602 
L 780.858931 397.607469 
L 781.429168 397.442359 
L 782.759719 396.68285 
L 782.949798 396.022408 
L 783.900192 395.262899 
L 784.09027 394.9657 
L 785.040664 394.17317 
L 785.420822 393.479705 
L 785.610901 393.446683 
L 785.991058 392.588108 
L 786.751373 391.729533 
L 787.32161 391.630467 
L 787.511688 391.333268 
L 787.891846 391.168157 
L 788.081925 390.837936 
L 789.032319 390.606781 
L 789.222397 390.309582 
L 790.552949 390.012383 
L 790.933106 389.847273 
L 791.123185 389.814251 
L 791.313264 389.64914 
L 792.263658 389.517052 
L 793.594209 388.922654 
L 794.164445 388.823587 
L 794.544603 388.097101 
L 794.92476 387.865946 
L 795.875154 387.139459 
L 796.065233 386.379951 
L 796.825548 386.148796 
L 797.966021 385.785553 
L 798.346178 385.224177 
L 799.296572 384.728845 
L 799.486651 384.398624 
L 800.056887 384.200491 
L 800.437045 383.936314 
L 801.007281 383.70516 
L 801.387439 380.072727 
L 801.577518 378.883931 
L 801.767596 376.83656 
L 801.957675 376.572383 
L 802.71799 374.029681 
L 803.098148 373.369238 
L 803.288227 373.303194 
L 803.478305 373.072039 
L 803.668384 372.642752 
L 803.858463 371.156757 
L 804.048542 370.793514 
L 804.428699 370.661425 
L 805.569172 368.448943 
L 805.759251 368.283833 
L 805.949329 367.392236 
L 806.899723 365.774152 
L 807.660038 365.344865 
L 807.850117 365.146732 
L 808.040196 364.090025 
L 808.420353 363.924914 
L 808.800511 363.561671 
L 809.370747 362.802162 
L 809.560826 362.108698 
L 809.750905 362.075676 
L 810.321141 361.448256 
L 810.701299 361.415233 
L 810.891377 361.085012 
L 811.271535 360.88688 
L 813.172323 358.575332 
L 813.932638 357.914889 
L 814.312795 356.627027 
L 815.453268 356.065651 
L 815.833426 355.405209 
L 816.023504 355.27312 
L 816.973898 353.85317 
L 817.354056 353.655037 
L 818.114371 353.522948 
L 818.684607 352.532285 
L 819.444922 352.334152 
L 820.205237 351.475577 
L 820.585395 351.409533 
L 820.965552 351.013268 
L 821.535789 350.782113 
L 821.915946 350.749091 
L 822.106025 350.550958 
L 822.296104 349.95656 
L 823.056419 349.725405 
L 823.246498 349.395184 
L 823.436577 349.362162 
L 823.626655 348.767764 
L 824.196892 348.536609 
L 824.767128 348.404521 
L 825.147286 348.0743 
L 826.097679 347.645012 
L 826.477837 347.347813 
L 826.857994 347.116658 
L 827.238152 347.083636 
L 827.428231 346.192039 
L 827.808388 345.89484 
L 828.378625 345.630663 
L 828.948861 345.300442 
L 829.709176 345.168354 
L 829.899255 344.243735 
L 831.229806 343.616314 
L 831.419885 343.583292 
L 831.609964 343.418182 
L 831.990121 343.352138 
L 832.1802 343.054939 
L 832.940515 342.75774 
L 833.130594 342.394496 
L 833.510752 342.361474 
L 833.890909 342.130319 
L 834.461145 341.83312 
L 834.651224 341.436855 
L 835.411539 341.2057 
L 835.601618 340.941523 
L 836.171854 340.644324 
L 836.742091 340.380147 
L 836.932169 340.082948 
L 837.122248 340.049926 
L 837.502406 339.785749 
L 837.882563 339.620639 
L 838.072642 339.422506 
L 839.213115 339.092285 
L 839.403194 338.729042 
L 839.593272 338.629975 
L 840.543666 338.431843 
L 840.923824 338.134644 
L 841.303981 338.002555 
L 841.874218 337.837445 
L 842.064296 337.573268 
L 842.444454 337.507224 
L 842.634533 336.912826 
L 842.824611 336.813759 
L 843.204769 336.384472 
L 843.394848 335.691007 
L 843.775005 335.459853 
L 844.915478 334.568256 
L 845.295636 334.205012 
L 845.675793 334.072924 
L 845.865872 333.676658 
L 846.055951 333.610614 
L 846.436108 333.214349 
L 846.816266 332.983194 
L 847.386502 332.818084 
L 847.76666 332.388796 
L 849.857526 330.671646 
L 850.80792 330.440491 
L 851.948393 329.284717 
L 852.32855 329.119607 
L 853.84918 328.525209 
L 854.609495 328.062899 
L 855.369811 327.732678 
L 855.940047 327.468501 
L 856.890441 327.072236 
L 857.650756 326.874103 
L 858.220992 326.477838 
L 858.411071 326.444816 
L 858.60115 326.114595 
L 859.931701 325.586241 
L 860.882095 325.057887 
L 862.022568 324.562555 
L 862.212646 324.133268 
L 862.402725 322.680295 
L 862.782883 322.317052 
L 862.972961 322.284029 
L 864.303513 320.269681 
L 864.68367 319.64226 
L 866.204301 318.750663 
L 866.584458 318.420442 
L 867.154694 318.22231 
L 867.534852 317.826044 
L 868.105088 317.363735 
L 868.485246 317.231646 
L 868.865403 316.736314 
L 870.005876 315.910762 
L 870.386034 315.87774 
L 870.576112 315.580541 
L 871.146349 315.448452 
L 871.526506 314.028501 
L 871.906664 313.69828 
L 872.666979 313.434103 
L 873.047136 313.169926 
L 873.237215 312.707617 
L 873.617373 312.575528 
L 873.807452 312.113219 
L 873.99753 312.014152 
L 874.377688 311.617887 
L 874.567767 311.419754 
L 875.138003 311.254644 
L 875.518161 310.957445 
L 875.708239 310.924423 
L 875.898318 310.72629 
L 876.088397 310.693268 
L 876.848712 310.230958 
L 877.228869 309.405405 
L 877.418948 309.306339 
L 877.799106 309.240295 
L 877.989185 308.877052 
L 878.369342 308.711941 
L 878.7495 308.513808 
L 878.939578 307.91941 
L 879.699894 307.490123 
L 879.889972 306.895725 
L 880.650287 306.268305 
L 880.840366 306.235283 
L 881.220524 305.739951 
L 881.600681 305.442752 
L 881.79076 305.376708 
L 881.980839 305.046486 
L 882.360996 304.914398 
L 882.551075 304.286978 
L 882.931233 304.187912 
L 883.121311 303.890713 
L 883.31139 303.824668 
L 883.501469 303.164226 
L 884.071705 302.966093 
L 884.261784 302.867027 
L 884.641942 302.338673 
L 884.83202 302.206585 
L 885.592336 301.149877 
L 885.782414 301.083833 
L 886.352651 300.555479 
L 886.732808 300.357346 
L 887.112966 300.126192 
L 887.683202 299.762948 
L 888.06336 299.267617 
L 888.253438 299.201572 
L 889.393911 298.243931 
L 889.58399 298.177887 
L 889.964147 297.781622 
L 890.344305 297.682555 
L 890.534384 296.956069 
L 891.10462 296.460737 
L 891.294699 295.800295 
L 891.674856 295.437052 
L 891.864935 295.10683 
L 892.055014 295.073808 
L 893.005408 294.215233 
L 893.195486 294.149189 
L 893.385565 293.951057 
L 893.575644 293.918034 
L 893.955802 293.620835 
L 895.096274 293.092482 
L 895.856589 292.035774 
L 896.616904 291.573464 
L 896.806983 291.34231 
L 896.997062 291.309287 
L 897.187141 290.946044 
L 897.947456 290.483735 
L 898.517692 290.054447 
L 899.278007 289.691204 
L 899.848244 289.228894 
L 900.41848 288.99774 
L 900.608559 288.700541 
L 900.988716 288.634496 
L 902.509346 287.4457 
L 902.889504 287.28059 
L 903.269661 287.148501 
L 903.649819 286.752236 
L 904.029977 286.620147 
L 904.410134 286.488059 
L 904.790292 286.025749 
L 905.550607 285.72855 
L 905.740686 284.242555 
L 906.691079 283.582113 
L 907.451395 282.261229 
L 907.641473 282.162162 
L 907.831552 281.732875 
L 908.21171 281.600786 
L 908.972025 280.478034 
L 909.352182 278.925995 
L 909.542261 278.463686 
L 909.922419 276.053071 
L 910.112497 275.062408 
L 911.062891 273.873612 
L 911.823206 270.934644 
L 912.013285 270.769533 
L 912.203364 270.340246 
L 912.393443 268.755184 
L 912.583521 268.160786 
L 912.7736 268.127764 
L 912.963679 267.401278 
L 913.533915 266.97199 
L 913.914073 265.783194 
L 914.864467 265.287862 
L 915.244624 264.891597 
L 916.385097 264.099066 
L 916.575176 263.735823 
L 916.955333 262.514005 
L 917.335491 262.381916 
L 918.475963 261.721474 
L 919.236278 261.490319 
L 919.616436 261.292187 
L 919.806515 261.160098 
L 920.186672 261.127076 
L 922.657696 258.947617 
L 923.037854 258.84855 
L 923.418011 258.617396 
L 923.60809 258.518329 
L 923.798169 257.725799 
L 924.368405 257.263489 
L 924.748563 257.164423 
L 925.889036 256.272826 
L 926.269193 256.107715 
L 926.459272 256.041671 
L 926.839429 255.645405 
L 927.219587 255.579361 
L 927.409666 255.117052 
L 927.599745 254.951941 
L 927.789823 254.423587 
L 928.169981 254.225455 
L 928.740217 253.036658 
L 928.930296 252.376216 
L 929.500532 251.979951 
L 930.070769 251.253464 
L 930.450926 249.965602 
L 930.641005 249.635381 
L 930.831084 248.941916 
L 931.021162 248.875872 
L 931.211241 248.314496 
L 931.591399 248.083342 
L 932.731871 246.96059 
L 932.92195 246.49828 
L 933.492187 246.234103 
L 933.682265 245.771794 
L 934.822738 245.309484 
L 935.012817 244.61602 
L 935.392974 244.384865 
L 935.583053 243.9886 
L 935.773132 243.856511 
L 936.153289 243.823489 
L 937.293762 242.964914 
L 937.863998 242.535627 
L 938.244156 242.106339 
L 938.624313 241.80914 
L 938.814392 241.478919 
L 939.004471 240.752432 
L 940.144944 240.158034 
L 940.525101 239.398526 
L 940.905259 239.266437 
L 941.095337 238.804128 
L 941.285416 238.738084 
L 941.665574 238.143686 
L 943.376283 236.987912 
L 944.516755 235.86516 
L 944.896913 235.072629 
L 945.086992 234.31312 
L 945.467149 233.6857 
L 945.657228 233.289435 
L 946.607622 228.567273 
L 946.987779 227.873808 
L 947.177858 226.123636 
L 947.367937 222.689337 
L 948.698488 212.815725 
L 949.078646 208.291695 
L 949.458803 207.598231 
L 949.838961 201.753317 
L 950.02904 200.201278 
L 950.409197 193.629877 
L 950.789355 192.408059 
L 950.979434 189.039803 
L 951.169512 188.280295 
L 951.54967 184.581818 
L 951.929828 174.675184 
L 952.119906 174.14683 
L 952.309985 173.222211 
L 952.500064 170.118133 
L 952.690143 169.853956 
L 953.0703 164.867617 
L 953.260379 164.76855 
L 953.450458 164.438329 
L 953.830615 163.249533 
L 954.020694 163.018378 
L 954.210773 162.457002 
L 954.400852 161.400295 
L 954.781009 161.202162 
L 954.971088 160.673808 
L 955.351245 159.022703 
L 955.731403 155.951646 
L 955.921482 155.423292 
L 956.111561 155.357248 
L 956.301639 155.060049 
L 957.252033 152.25317 
L 957.442112 152.154103 
L 957.632191 151.493661 
L 958.012348 151.16344 
L 958.202427 151.031351 
L 958.392506 150.53602 
L 958.582585 150.370909 
L 959.152821 149.578378 
L 959.723057 148.752826 
L 960.103215 148.620737 
L 961.053609 147.431941 
L 961.433766 147.26683 
L 962.004003 147.200786 
L 962.38416 146.705455 
L 962.764318 146.606388 
L 963.524633 145.945946 
L 963.714712 145.780835 
L 964.284948 145.417592 
L 964.855184 144.691106 
L 965.045263 144.195774 
L 965.805578 143.997641 
L 966.185736 143.66742 
L 966.565893 143.04 
L 967.136129 142.511646 
L 967.516287 141.15774 
L 967.706366 140.926585 
L 968.466681 140.629386 
L 969.607154 139.572678 
L 970.17739 139.176413 
L 970.367469 138.383882 
L 971.127784 137.756462 
L 971.317862 137.393219 
L 971.69802 137.162064 
L 972.078178 136.897887 
L 973.21865 136.039312 
L 973.978965 135.643047 
L 974.169044 135.54398 
L 974.549202 134.388206 
L 974.73928 134.28914 
L 975.119438 133.727764 
L 975.689674 132.935233 
L 976.069832 132.770123 
L 976.640068 131.779459 
L 976.830147 131.052973 
L 977.020226 130.788796 
L 977.400383 130.656708 
L 977.590462 130.260442 
L 979.301171 128.97258 
L 979.681329 128.279115 
L 979.871407 128.180049 
L 980.061486 124.184373 
L 980.441644 123.523931 
L 980.821801 122.995577 
L 981.01188 122.56629 
L 981.201959 122.533268 
L 981.582116 122.037936 
L 981.772195 121.344472 
L 982.912668 119.891499 
L 983.102746 119.495233 
L 983.482904 117.24973 
L 983.672983 116.62231 
L 983.863062 115.53258 
L 984.05314 115.235381 
L 984.243219 113.617297 
L 984.623377 112.428501 
L 984.813455 111.47086 
L 985.57377 110.447174 
L 986.334086 108.895135 
L 986.904322 108.597936 
L 987.474558 107.937494 
L 987.854716 107.244029 
L 988.044795 106.78172 
L 988.234873 106.715676 
L 989.565425 104.569238 
L 989.755504 103.380442 
L 989.945582 103.215332 
L 990.32574 102.686978 
L 990.515819 102.653956 
L 991.086055 102.09258 
L 991.656291 101.00285 
L 992.036449 100.177297 
L 992.416606 99.648943 
L 992.606685 98.460147 
L 992.986843 97.436462 
L 993.557079 95.785356 
L 993.747158 95.653268 
L 993.937237 94.827715 
L 994.127315 94.563538 
L 995.077709 91.459459 
L 995.457867 90.865061 
L 996.028103 89.379066 
L 996.218182 89.28 
L 996.218182 89.28 
" clip-path="url(#pd496b7ba4f)" style="fill: none; stroke: #1f77b4; stroke-width: 1.5; stroke-linecap: square"/>
   </g>
   <g id="patch_3">
    <path d="M 144 512.64 
L 144 69.12 
" style="fill: none; stroke: #000000; stroke-width: 0.8; stroke-linejoin: miter; stroke-linecap: square"/>
   </g>
   <g id="patch_4">
    <path d="M 1036.8 512.64 
L 1036.8 69.12 
" style="fill: none; stroke: #000000; stroke-width: 0.8; stroke-linejoin: miter; stroke-linecap: square"/>
   </g>
   <g id="patch_5">
    <path d="M 144 512.64 
L 1036.8 512.64 
" style="fill: none; stroke: #000000; stroke-width: 0.8; stroke-linejoin: miter; stroke-linecap: square"/>
   </g>
   <g id="patch_6">
    <path d="M 144 69.12 
L 1036.8 69.12 
" style="fill: none; stroke: #000000; stroke-width: 0.8; stroke-linejoin: miter; stroke-linecap: square"/>
   </g>
   <g id="text_15">
    <!-- Number of AEDs in the OpenStreetMap database in Poland from first edition, day by day. As at: 2025-10-20 -->
    <g transform="translate(144 63.12) scale(0.14 -0.14)">
     <defs>
      <path id="DejaVuSans-4e" d="M 628 4666 
L 1478 4666 
L 3547 763 
L 3547 4666 
L 4159 4666 
L 4159 0 
L 3309 0 
L 1241 3903 
L 1241 0 
L 628 0 
L 628 4666 
z
" transform="scale(0.015625)"/>
      <path id="DejaVuSans-75" d="M 544 1381 
L 544 3500 
L 1119 3500 
L 1119 1403 
Q 1119 906 1312 657 
Q 1506 409 1894 409 
Q 2359 409 2629 706 
Q 2900 1003 2900 1516 
L 2900 3500 
L 3475 3500 
L 3475 0 
L 2900 0 
L 2900 538 
Q 2691 219 2414 64 
Q 2138 -91 1772 -91 
Q 1169 -91 856 284 
Q 544 659 544 1381 
z
M 1991 3584 
L 1991 3584 
z
" transform="scale(0.015625)"/>
      <path id="DejaVuSans-6d" d="M 3328 2828 
Q 3544 3216 3844 3400 
Q 4144 3584 4550 3584 
Q 5097 3584 5394 3201 
Q 5691 2819 5691 2113 
L 5691 0 
L 5113 0 
L 5113 2094 
Q 5113 2597 4934 2840 
Q 4756 3084 4391 3084 
Q 3944 3084 3684 2787 
Q 3425 2491 3425 1978 
L 3425 0 
L 2847 0 
L 2847 2094 
Q 2847 2600 2669 2842 
Q 2491 3084 2119 3084 
Q 1678 3084 1418 2786 
Q 1159 2488 1159 1978 
L 1159 0 
L 581 0 
L 581 3500 
L 1159 3500 
L 1159 2956 
Q 1356 3278 1631 3431 
Q 1906 3584 2284 3584 
Q 2666 3584 2933 3390 
Q 3200 3197 3328 2828 
z
" transform="scale(0.015625)"/>
      <path id="DejaVuSans-62" d="M 3116 1747 
Q 3116 2381 2855 2742 
Q 2594 3103 2138 3103 
Q 1681 3103 1420 2742 
Q 1159 2381 1159 1747 
Q 1159 1113 1420 752 
Q 1681 391 2138 391 
Q 2594 391 2855 752 
Q 3116 1113 3116 1747 
z
M 1159 2969 
Q 1341 3281 1617 3432 
Q 1894 3584 2278 3584 
Q 2916 3584 3314 3078 
Q 3713 2572 3713 1747 
Q 3713 922 3314 415 
Q 2916 -91 2278 -91 
Q 1894 -91 1617 61 
Q 1341 213 1159 525 
L 1159 0 
L 581 0 
L 581 4863 
L 1159 4863 
L 1159 2969 
z
" transform="scale(0.015625)"/>
      <path id="DejaVuSans-65" d="M 3597 1894 
L 3597 1613 
L 953 1613 
Q 991 1019 1311 708 
Q 1631 397 2203 397 
Q 2534 397 2845 478 
Q 3156 559 3463 722 
L 3463 178 
Q 3153 47 2828 -22 
Q 2503 -91 2169 -91 
Q 1331 -91 842 396 
Q 353 884 353 1716 
Q 353 2575 817 3079 
Q 1281 3584 2069 3584 
Q 2775 3584 3186 3129 
Q 3597 2675 3597 1894 
z
M 3022 2063 
Q 3016 2534 2758 2815 
Q 2500 3097 2075 3097 
Q 1594 3097 1305 2825 
Q 1016 2553 972 2059 
L 3022 2063 
z
" transform="scale(0.015625)"/>
      <path id="DejaVuSans-72" d="M 2631 2963 
Q 2534 3019 2420 3045 
Q 2306 3072 2169 3072 
Q 1681 3072 1420 2755 
Q 1159 2438 1159 1844 
L 1159 0 
L 581 0 
L 581 3500 
L 1159 3500 
L 1159 2956 
Q 1341 3275 1631 3429 
Q 1922 3584 2338 3584 
Q 2397 3584 2469 3576 
Q 2541 3569 2628 3553 
L 2631 2963 
z
" transform="scale(0.015625)"/>
      <path id="DejaVuSans-20" transform="scale(0.015625)"/>
      <path id="DejaVuSans-6f" d="M 1959 3097 
Q 1497 3097 1228 2736 
Q 959 2375 959 1747 
Q 959 1119 1226 758 
Q 1494 397 1959 397 
Q 2419 397 2687 759 
Q 2956 1122 2956 1747 
Q 2956 2369 2687 2733 
Q 2419 3097 1959 3097 
z
M 1959 3584 
Q 2709 3584 3137 3096 
Q 3566 2609 3566 1747 
Q 3566 888 3137 398 
Q 2709 -91 1959 -91 
Q 1206 -91 779 398 
Q 353 888 353 1747 
Q 353 2609 779 3096 
Q 1206 3584 1959 3584 
z
" transform="scale(0.015625)"/>
      <path id="DejaVuSans-66" d="M 2375 4863 
L 2375 4384 
L 1825 4384 
Q 1516 4384 1395 4259 
Q 1275 4134 1275 3809 
L 1275 3500 
L 2222 3500 
L 2222 3053 
L 1275 3053 
L 1275 0 
L 697 0 
L 697 3053 
L 147 3053 
L 147 3500 
L 697 3500 
L 697 3744 
Q 697 4328 969 4595 
Q 1241 4863 1831 4863 
L 2375 4863 
z
" transform="scale(0.015625)"/>
      <path id="DejaVuSans-41" d="M 2188 4044 
L 1331 1722 
L 3047 1722 
L 2188 4044 
z
M 1831 4666 
L 2547 4666 
L 4325 0 
L 3669 0 
L 3244 1197 
L 1141 1197 
L 716 0 
L 50 0 
L 1831 4666 
z
" transform="scale(0.015625)"/>
      <path id="DejaVuSans-45" d="M 628 4666 
L 3578 4666 
L 3578 4134 
L 1259 4134 
L 1259 2753 
L 3481 2753 
L 3481 2222 
L 1259 2222 
L 1259 531 
L 3634 531 
L 3634 0 
L 628 0 
L 628 4666 
z
" transform="scale(0.015625)"/>
      <path id="DejaVuSans-44" d="M 1259 4147 
L 1259 519 
L 2022 519 
Q 2988 519 3436 956 
Q 3884 1394 3884 2338 
Q 3884 3275 3436 3711 
Q 2988 4147 2022 4147 
L 1259 4147 
z
M 628 4666 
L 1925 4666 
Q 3281 4666 3915 4102 
Q 4550 3538 4550 2338 
Q 4550 1131 3912 565 
Q 3275 0 1925 0 
L 628 0 
L 628 4666 
z
" transform="scale(0.015625)"/>
      <path id="DejaVuSans-73" d="M 2834 3397 
L 2834 2853 
Q 2591 2978 2328 3040 
Q 2066 3103 1784 3103 
Q 1356 3103 1142 2972 
Q 928 2841 928 2578 
Q 928 2378 1081 2264 
Q 1234 2150 1697 2047 
L 1894 2003 
Q 2506 1872 2764 1633 
Q 3022 1394 3022 966 
Q 3022 478 2636 193 
Q 2250 -91 1575 -91 
Q 1294 -91 989 -36 
Q 684 19 347 128 
L 347 722 
Q 666 556 975 473 
Q 1284 391 1588 391 
Q 1994 391 2212 530 
Q 2431 669 2431 922 
Q 2431 1156 2273 1281 
Q 2116 1406 1581 1522 
L 1381 1569 
Q 847 1681 609 1914 
Q 372 2147 372 2553 
Q 372 3047 722 3315 
Q 1072 3584 1716 3584 
Q 2034 3584 2315 3537 
Q 2597 3491 2834 3397 
z
" transform="scale(0.015625)"/>
      <path id="DejaVuSans-69" d="M 603 3500 
L 1178 3500 
L 1178 0 
L 603 0 
L 603 3500 
z
M 603 4863 
L 1178 4863 
L 1178 4134 
L 603 4134 
L 603 4863 
z
" transform="scale(0.015625)"/>
      <path id="DejaVuSans-6e" d="M 3513 2113 
L 3513 0 
L 2938 0 
L 2938 2094 
Q 2938 2591 2744 2837 
Q 2550 3084 2163 3084 
Q 1697 3084 1428 2787 
Q 1159 2491 1159 1978 
L 1159 0 
L 581 0 
L 581 3500 
L 1159 3500 
L 1159 2956 
Q 1366 3272 1645 3428 
Q 1925 3584 2291 3584 
Q 2894 3584 3203 3211 
Q 3513 2838 3513 2113 
z
" transform="scale(0.015625)"/>
      <path id="DejaVuSans-74" d="M 1172 4494 
L 1172 3500 
L 2356 3500 
L 2356 3053 
L 1172 3053 
L 1172 1153 
Q 1172 725 1289 603 
Q 1406 481 1766 481 
L 2356 481 
L 2356 0 
L 1766 0 
Q 1100 0 847 248 
Q 594 497 594 1153 
L 594 3053 
L 172 3053 
L 172 3500 
L 594 3500 
L 594 4494 
L 1172 4494 
z
" transform="scale(0.015625)"/>
      <path id="DejaVuSans-68" d="M 3513 2113 
L 3513 0 
L 2938 0 
L 2938 2094 
Q 2938 2591 2744 2837 
Q 2550 3084 2163 3084 
Q 1697 3084 1428 2787 
Q 1159 2491 1159 1978 
L 1159 0 
L 581 0 
L 581 4863 
L 1159 4863 
L 1159 2956 
Q 1366 3272 1645 3428 
Q 1925 3584 2291 3584 
Q 2894 3584 3203 3211 
Q 3513 2838 3513 2113 
z
" transform="scale(0.015625)"/>
      <path id="DejaVuSans-4f" d="M 2522 4238 
Q 1834 4238 1429 3725 
Q 1025 3213 1025 2328 
Q 1025 1447 1429 934 
Q 1834 422 2522 422 
Q 3209 422 3611 934 
Q 4013 1447 4013 2328 
Q 4013 3213 3611 3725 
Q 3209 4238 2522 4238 
z
M 2522 4750 
Q 3503 4750 4090 4092 
Q 4678 3434 4678 2328 
Q 4678 1225 4090 567 
Q 3503 -91 2522 -91 
Q 1538 -91 948 565 
Q 359 1222 359 2328 
Q 359 3434 948 4092 
Q 1538 4750 2522 4750 
z
" transform="scale(0.015625)"/>
      <path id="DejaVuSans-70" d="M 1159 525 
L 1159 -1331 
L 581 -1331 
L 581 3500 
L 1159 3500 
L 1159 2969 
Q 1341 3281 1617 3432 
Q 1894 3584 2278 3584 
Q 2916 3584 3314 3078 
Q 3713 2572 3713 1747 
Q 3713 922 3314 415 
Q 2916 -91 2278 -91 
Q 1894 -91 1617 61 
Q 1341 213 1159 525 
z
M 3116 1747 
Q 3116 2381 2855 2742 
Q 2594 3103 2138 3103 
Q 1681 3103 1420 2742 
Q 1159 2381 1159 1747 
Q 1159 1113 1420 752 
Q 1681 391 2138 391 
Q 2594 391 2855 752 
Q 3116 1113 3116 1747 
z
" transform="scale(0.015625)"/>
      <path id="DejaVuSans-53" d="M 3425 4513 
L 3425 3897 
Q 3066 4069 2747 4153 
Q 2428 4238 2131 4238 
Q 1616 4238 1336 4038 
Q 1056 3838 1056 3469 
Q 1056 3159 1242 3001 
Q 1428 2844 1947 2747 
L 2328 2669 
Q 3034 2534 3370 2195 
Q 3706 1856 3706 1288 
Q 3706 609 3251 259 
Q 2797 -91 1919 -91 
Q 1588 -91 1214 -16 
Q 841 59 441 206 
L 441 856 
Q 825 641 1194 531 
Q 1563 422 1919 422 
Q 2459 422 2753 634 
Q 3047 847 3047 1241 
Q 3047 1584 2836 1778 
Q 2625 1972 2144 2069 
L 1759 2144 
Q 1053 2284 737 2584 
Q 422 2884 422 3419 
Q 422 4038 858 4394 
Q 1294 4750 2059 4750 
Q 2388 4750 2728 4690 
Q 3069 4631 3425 4513 
z
" transform="scale(0.015625)"/>
      <path id="DejaVuSans-4d" d="M 628 4666 
L 1569 4666 
L 2759 1491 
L 3956 4666 
L 4897 4666 
L 4897 0 
L 4281 0 
L 4281 4097 
L 3078 897 
L 2444 897 
L 1241 4097 
L 1241 0 
L 628 0 
L 628 4666 
z
" transform="scale(0.015625)"/>
      <path id="DejaVuSans-61" d="M 2194 1759 
Q 1497 1759 1228 1600 
Q 959 1441 959 1056 
Q 959 750 1161 570 
Q 1363 391 1709 391 
Q 2188 391 2477 730 
Q 2766 1069 2766 1631 
L 2766 1759 
L 2194 1759 
z
M 3341 1997 
L 3341 0 
L 2766 0 
L 2766 531 
Q 2569 213 2275 61 
Q 1981 -91 1556 -91 
Q 1019 -91 701 211 
Q 384 513 384 1019 
Q 384 1609 779 1909 
Q 1175 2209 1959 2209 
L 2766 2209 
L 2766 2266 
Q 2766 2663 2505 2880 
Q 2244 3097 1772 3097 
Q 1472 3097 1187 3025 
Q 903 2953 641 2809 
L 641 3341 
Q 956 3463 1253 3523 
Q 1550 3584 1831 3584 
Q 2591 3584 2966 3190 
Q 3341 2797 3341 1997 
z
" transform="scale(0.015625)"/>
      <path id="DejaVuSans-64" d="M 2906 2969 
L 2906 4863 
L 3481 4863 
L 3481 0 
L 2906 0 
L 2906 525 
Q 2725 213 2448 61 
Q 2172 -91 1784 -91 
Q 1150 -91 751 415 
Q 353 922 353 1747 
Q 353 2572 751 3078 
Q 1150 3584 1784 3584 
Q 2172 3584 2448 3432 
Q 2725 3281 2906 2969 
z
M 947 1747 
Q 947 1113 1208 752 
Q 1469 391 1925 391 
Q 2381 391 2643 752 
Q 2906 1113 2906 1747 
Q 2906 2381 2643 2742 
Q 2381 3103 1925 3103 
Q 1469 3103 1208 2742 
Q 947 2381 947 1747 
z
" transform="scale(0.015625)"/>
      <path id="DejaVuSans-50" d="M 1259 4147 
L 1259 2394 
L 2053 2394 
Q 2494 2394 2734 2622 
Q 2975 2850 2975 3272 
Q 2975 3691 2734 3919 
Q 2494 4147 2053 4147 
L 1259 4147 
z
M 628 4666 
L 2053 4666 
Q 2838 4666 3239 4311 
Q 3641 3956 3641 3272 
Q 3641 2581 3239 2228 
Q 2838 1875 2053 1875 
L 1259 1875 
L 1259 0 
L 628 0 
L 628 4666 
z
" transform="scale(0.015625)"/>
      <path id="DejaVuSans-6c" d="M 603 4863 
L 1178 4863 
L 1178 0 
L 603 0 
L 603 4863 
z
" transform="scale(0.015625)"/>
      <path id="DejaVuSans-2c" d="M 750 794 
L 1409 794 
L 1409 256 
L 897 -744 
L 494 -744 
L 750 256 
L 750 794 
z
" transform="scale(0.015625)"/>
      <path id="DejaVuSans-79" d="M 2059 -325 
Q 1816 -950 1584 -1140 
Q 1353 -1331 966 -1331 
L 506 -1331 
L 506 -850 
L 844 -850 
Q 1081 -850 1212 -737 
Q 1344 -625 1503 -206 
L 1606 56 
L 191 3500 
L 800 3500 
L 1894 763 
L 2988 3500 
L 3597 3500 
L 2059 -325 
z
" transform="scale(0.015625)"/>
      <path id="DejaVuSans-2e" d="M 684 794 
L 1344 794 
L 1344 0 
L 684 0 
L 684 794 
z
" transform="scale(0.015625)"/>
      <path id="DejaVuSans-3a" d="M 750 794 
L 1409 794 
L 1409 0 
L 750 0 
L 750 794 
z
M 750 3309 
L 1409 3309 
L 1409 2516 
L 750 2516 
L 750 3309 
z
" transform="scale(0.015625)"/>
      <path id="DejaVuSans-35" d="M 691 4666 
L 3169 4666 
L 3169 4134 
L 1269 4134 
L 1269 2991 
Q 1406 3038 1543 3061 
Q 1681 3084 1819 3084 
Q 2600 3084 3056 2656 
Q 3513 2228 3513 1497 
Q 3513 744 3044 326 
Q 2575 -91 1722 -91 
Q 1428 -91 1123 -41 
Q 819 9 494 109 
L 494 744 
Q 775 591 1075 516 
Q 1375 441 1709 441 
Q 2250 441 2565 725 
Q 2881 1009 2881 1497 
Q 2881 1984 2565 2268 
Q 2250 2553 1709 2553 
Q 1456 2553 1204 2497 
Q 953 2441 691 2322 
L 691 4666 
z
" transform="scale(0.015625)"/>
      <path id="DejaVuSans-2d" d="M 313 2009 
L 1997 2009 
L 1997 1497 
L 313 1497 
L 313 2009 
z
" transform="scale(0.015625)"/>
     </defs>
     <use xlink:href="#DejaVuSans-4e"/>
     <use xlink:href="#DejaVuSans-75" x="74.804688"/>
     <use xlink:href="#DejaVuSans-6d" x="138.183594"/>
     <use xlink:href="#DejaVuSans-62" x="235.595703"/>
     <use xlink:href="#DejaVuSans-65" x="299.072266"/>
     <use xlink:href="#DejaVuSans-72" x="360.595703"/>
     <use xlink:href="#DejaVuSans-20" x="401.708984"/>
     <use xlink:href="#DejaVuSans-6f" x="433.496094"/>
     <use xlink:href="#DejaVuSans-66" x="494.677734"/>
     <use xlink:href="#DejaVuSans-20" x="529.882812"/>
     <use xlink:href="#DejaVuSans-41" x="561.669922"/>
     <use xlink:href="#DejaVuSans-45" x="630.078125"/>
     <use xlink:href="#DejaVuSans-44" x="693.261719"/>
     <use xlink:href="#DejaVuSans-73" x="770.263672"/>
     <use xlink:href="#DejaVuSans-20" x="822.363281"/>
     <use xlink:href="#DejaVuSans-69" x="854.150391"/>
     <use xlink:href="#DejaVuSans-6e" x="881.933594"/>
     <use xlink:href="#DejaVuSans-20" x="945.3125"/>
     <use xlink:href="#DejaVuSans-74" x="977.099609"/>
     <use xlink:href="#DejaVuSans-68" x="1016.308594"/>
     <use xlink:href="#DejaVuSans-65" x="1079.6875"/>
     <use xlink:href="#DejaVuSans-20" x="1141.210938"/>
     <use xlink:href="#DejaVuSans-4f" x="1172.998047"/>
     <use xlink:href="#DejaVuSans-70" x="1251.708984"/>
     <use xlink:href="#DejaVuSans-65" x="1315.185547"/>
     <use xlink:href="#DejaVuSans-6e" x="1376.708984"/>
     <use xlink:href="#DejaVuSans-53" x="1440.087891"/>
     <use xlink:href="#DejaVuSans-74" x="1503.564453"/>
     <use xlink:href="#DejaVuSans-72" x="1542.773438"/>
     <use xlink:href="#DejaVuSans-65" x="1581.636719"/>
     <use xlink:href="#DejaVuSans-65" x="1643.160156"/>
     <use xlink:href="#DejaVuSans-74" x="1704.683594"/>
     <use xlink:href="#DejaVuSans-4d" x="1743.892578"/>
     <use xlink:href="#DejaVuSans-61" x="1830.171875"/>
     <use xlink:href="#DejaVuSans-70" x="1891.451172"/>
     <use xlink:href="#DejaVuSans-20" x="1954.927734"/>
     <use xlink:href="#DejaVuSans-64" x="1986.714844"/>
     <use xlink:href="#DejaVuSans-61" x="2050.191406"/>
     <use xlink:href="#DejaVuSans-74" x="2111.470703"/>
     <use xlink:href="#DejaVuSans-61" x="2150.679688"/>
     <use xlink:href="#DejaVuSans-62" x="2211.958984"/>
     <use xlink:href="#DejaVuSans-61" x="2275.435547"/>
     <use xlink:href="#DejaVuSans-73" x="2336.714844"/>
     <use xlink:href="#DejaVuSans-65" x="2388.814453"/>
     <use xlink:href="#DejaVuSans-20" x="2450.337891"/>
     <use xlink:href="#DejaVuSans-69" x="2482.125"/>
     <use xlink:href="#DejaVuSans-6e" x="2509.908203"/>
     <use xlink:href="#DejaVuSans-20" x="2573.287109"/>
     <use xlink:href="#DejaVuSans-50" x="2605.074219"/>
     <use xlink:href="#DejaVuSans-6f" x="2661.751953"/>
     <use xlink:href="#DejaVuSans-6c" x="2722.933594"/>
     <use xlink:href="#DejaVuSans-61" x="2750.716797"/>
     <use xlink:href="#DejaVuSans-6e" x="2811.996094"/>
     <use xlink:href="#DejaVuSans-64" x="2875.375"/>
     <use xlink:href="#DejaVuSans-20" x="2938.851562"/>
     <use xlink:href="#DejaVuSans-66" x="2970.638672"/>
     <use xlink:href="#DejaVuSans-72" x="3005.84375"/>
     <use xlink:href="#DejaVuSans-6f" x="3044.707031"/>
     <use xlink:href="#DejaVuSans-6d" x="3105.888672"/>
     <use xlink:href="#DejaVuSans-20" x="3203.300781"/>
     <use xlink:href="#DejaVuSans-66" x="3235.087891"/>
     <use xlink:href="#DejaVuSans-69" x="3270.292969"/>
     <use xlink:href="#DejaVuSans-72" x="3298.076172"/>
     <use xlink:href="#DejaVuSans-73" x="3339.189453"/>
     <use xlink:href="#DejaVuSans-74" x="3391.289062"/>
     <use xlink:href="#DejaVuSans-20" x="3430.498047"/>
     <use xlink:href="#DejaVuSans-65" x="3462.285156"/>
     <use xlink:href="#DejaVuSans-64" x="3523.808594"/>
     <use xlink:href="#DejaVuSans-69" x="3587.285156"/>
     <use xlink:href="#DejaVuSans-74" x="3615.068359"/>
     <use xlink:href="#DejaVuSans-69" x="3654.277344"/>
     <use xlink:href="#DejaVuSans-6f" x="3682.060547"/>
     <use xlink:href="#DejaVuSans-6e" x="3743.242188"/>
     <use xlink:href="#DejaVuSans-2c" x="3806.621094"/>
     <use xlink:href="#DejaVuSans-20" x="3838.408203"/>
     <use xlink:href="#DejaVuSans-64" x="3870.195312"/>
     <use xlink:href="#DejaVuSans-61" x="3933.671875"/>
     <use xlink:href="#DejaVuSans-79" x="3994.951172"/>
     <use xlink:href="#DejaVuSans-20" x="4054.130859"/>
     <use xlink:href="#DejaVuSans-62" x="4085.917969"/>
     <use xlink:href="#DejaVuSans-79" x="4149.394531"/>
     <use xlink:href="#DejaVuSans-20" x="4208.574219"/>
     <use xlink:href="#DejaVuSans-64" x="4240.361328"/>
     <use xlink:href="#DejaVuSans-61" x="4303.837891"/>
     <use xlink:href="#DejaVuSans-79" x="4365.117188"/>
     <use xlink:href="#DejaVuSans-2e" x="4410.046875"/>
     <use xlink:href="#DejaVuSans-20" x="4441.833984"/>
     <use xlink:href="#DejaVuSans-41" x="4473.621094"/>
     <use xlink:href="#DejaVuSans-73" x="4542.029297"/>
     <use xlink:href="#DejaVuSans-20" x="4594.128906"/>
     <use xlink:href="#DejaVuSans-61" x="4625.916016"/>
     <use xlink:href="#DejaVuSans-74" x="4687.195312"/>
     <use xlink:href="#DejaVuSans-3a" x="4726.404297"/>
     <use xlink:href="#DejaVuSans-20" x="4760.095703"/>
     <use xlink:href="#DejaVuSans-32" x="4791.882812"/>
     <use xlink:href="#DejaVuSans-30" x="4855.505859"/>
     <use xlink:href="#DejaVuSans-32" x="4919.128906"/>
     <use xlink:href="#DejaVuSans-35" x="4982.751953"/>
     <use xlink:href="#DejaVuSans-2d" x="5046.375"/>
     <use xlink:href="#DejaVuSans-31" x="5082.458984"/>
     <use xlink:href="#DejaVuSans-30" x="5146.082031"/>
     <use xlink:href="#DejaVuSans-2d" x="5209.705078"/>
     <use xlink:href="#DejaVuSans-32" x="5245.789062"/>
     <use xlink:href="#DejaVuSans-30" x="5309.412109"/>
    </g>
   </g>
  </g>
 </g>
 <defs>
  <clipPath id="pd496b7ba4f">
   <rect x="144" y="69.12" width="892.8" height="443.52"/>
  </clipPath>
 </defs>
</svg>
