<?xml version="1.0" encoding="utf-8" standalone="no"?>
<!DOCTYPE svg PUBLIC "-//W3C//DTD SVG 1.1//EN"
  "http://www.w3.org/Graphics/SVG/1.1/DTD/svg11.dtd">
<svg xmlns:xlink="http://www.w3.org/1999/xlink" width="1152pt" height="576pt" viewBox="0 0 1152 576" xmlns="http://www.w3.org/2000/svg" version="1.1">
 <metadata>
  <rdf:RDF xmlns:dc="http://purl.org/dc/elements/1.1/" xmlns:cc="http://creativecommons.org/ns#" xmlns:rdf="http://www.w3.org/1999/02/22-rdf-syntax-ns#">
   <cc:Work>
    <dc:type rdf:resource="http://purl.org/dc/dcmitype/StillImage"/>
    <dc:date>1980-01-01T00:00:00+00:00</dc:date>
    <dc:format>image/svg+xml</dc:format>
    <dc:creator>
     <cc:Agent>
      <dc:title>Matplotlib v3.9.1, https://matplotlib.org/</dc:title>
     </cc:Agent>
    </dc:creator>
   </cc:Work>
  </rdf:RDF>
 </metadata>
 <defs>
  <style type="text/css">*{stroke-linejoin: round; stroke-linecap: butt}</style>
 </defs>
 <g id="figure_1">
  <g id="patch_1">
   <path d="M 0 576 
L 1152 576 
L 1152 0 
L 0 0 
z
" style="fill: #ffffff"/>
  </g>
  <g id="axes_1">
   <g id="patch_2">
    <path d="M 144 512.64 
L 1036.8 512.64 
L 1036.8 69.12 
L 144 69.12 
z
" style="fill: #ffffff"/>
   </g>
   <g id="matplotlib.axis_1">
    <g id="xtick_1">
     <g id="line2d_1">
      <defs>
       <path id="m52ee4132de" d="M 0 0 
L 0 3.5 
" style="stroke: #000000; stroke-width: 0.8"/>
      </defs>
      <g>
       <use xlink:href="#m52ee4132de" x="176.870309" y="512.64" style="stroke: #000000; stroke-width: 0.8"/>
      </g>
     </g>
     <g id="text_1">
      <!-- 2014 -->
      <g transform="translate(164.145309 527.238438) scale(0.1 -0.1)">
       <defs>
        <path id="DejaVuSans-32" d="M 1228 531 
L 3431 531 
L 3431 0 
L 469 0 
L 469 531 
Q 828 903 1448 1529 
Q 2069 2156 2228 2338 
Q 2531 2678 2651 2914 
Q 2772 3150 2772 3378 
Q 2772 3750 2511 3984 
Q 2250 4219 1831 4219 
Q 1534 4219 1204 4116 
Q 875 4013 500 3803 
L 500 4441 
Q 881 4594 1212 4672 
Q 1544 4750 1819 4750 
Q 2544 4750 2975 4387 
Q 3406 4025 3406 3419 
Q 3406 3131 3298 2873 
Q 3191 2616 2906 2266 
Q 2828 2175 2409 1742 
Q 1991 1309 1228 531 
z
" transform="scale(0.015625)"/>
        <path id="DejaVuSans-30" d="M 2034 4250 
Q 1547 4250 1301 3770 
Q 1056 3291 1056 2328 
Q 1056 1369 1301 889 
Q 1547 409 2034 409 
Q 2525 409 2770 889 
Q 3016 1369 3016 2328 
Q 3016 3291 2770 3770 
Q 2525 4250 2034 4250 
z
M 2034 4750 
Q 2819 4750 3233 4129 
Q 3647 3509 3647 2328 
Q 3647 1150 3233 529 
Q 2819 -91 2034 -91 
Q 1250 -91 836 529 
Q 422 1150 422 2328 
Q 422 3509 836 4129 
Q 1250 4750 2034 4750 
z
" transform="scale(0.015625)"/>
        <path id="DejaVuSans-31" d="M 794 531 
L 1825 531 
L 1825 4091 
L 703 3866 
L 703 4441 
L 1819 4666 
L 2450 4666 
L 2450 531 
L 3481 531 
L 3481 0 
L 794 0 
L 794 531 
z
" transform="scale(0.015625)"/>
        <path id="DejaVuSans-34" d="M 2419 4116 
L 825 1625 
L 2419 1625 
L 2419 4116 
z
M 2253 4666 
L 3047 4666 
L 3047 1625 
L 3713 1625 
L 3713 1100 
L 3047 1100 
L 3047 0 
L 2419 0 
L 2419 1100 
L 313 1100 
L 313 1709 
L 2253 4666 
z
" transform="scale(0.015625)"/>
       </defs>
       <use xlink:href="#DejaVuSans-32"/>
       <use xlink:href="#DejaVuSans-30" x="63.623047"/>
       <use xlink:href="#DejaVuSans-31" x="127.246094"/>
       <use xlink:href="#DejaVuSans-34" x="190.869141"/>
      </g>
     </g>
    </g>
    <g id="xtick_2">
     <g id="line2d_2">
      <g>
       <use xlink:href="#m52ee4132de" x="317.605355" y="512.64" style="stroke: #000000; stroke-width: 0.8"/>
      </g>
     </g>
     <g id="text_2">
      <!-- 2016 -->
      <g transform="translate(304.880355 527.238438) scale(0.1 -0.1)">
       <defs>
        <path id="DejaVuSans-36" d="M 2113 2584 
Q 1688 2584 1439 2293 
Q 1191 2003 1191 1497 
Q 1191 994 1439 701 
Q 1688 409 2113 409 
Q 2538 409 2786 701 
Q 3034 994 3034 1497 
Q 3034 2003 2786 2293 
Q 2538 2584 2113 2584 
z
M 3366 4563 
L 3366 3988 
Q 3128 4100 2886 4159 
Q 2644 4219 2406 4219 
Q 1781 4219 1451 3797 
Q 1122 3375 1075 2522 
Q 1259 2794 1537 2939 
Q 1816 3084 2150 3084 
Q 2853 3084 3261 2657 
Q 3669 2231 3669 1497 
Q 3669 778 3244 343 
Q 2819 -91 2113 -91 
Q 1303 -91 875 529 
Q 447 1150 447 2328 
Q 447 3434 972 4092 
Q 1497 4750 2381 4750 
Q 2619 4750 2861 4703 
Q 3103 4656 3366 4563 
z
" transform="scale(0.015625)"/>
       </defs>
       <use xlink:href="#DejaVuSans-32"/>
       <use xlink:href="#DejaVuSans-30" x="63.623047"/>
       <use xlink:href="#DejaVuSans-31" x="127.246094"/>
       <use xlink:href="#DejaVuSans-36" x="190.869141"/>
      </g>
     </g>
    </g>
    <g id="xtick_3">
     <g id="line2d_3">
      <g>
       <use xlink:href="#m52ee4132de" x="458.533189" y="512.64" style="stroke: #000000; stroke-width: 0.8"/>
      </g>
     </g>
     <g id="text_3">
      <!-- 2018 -->
      <g transform="translate(445.808189 527.238438) scale(0.1 -0.1)">
       <defs>
        <path id="DejaVuSans-38" d="M 2034 2216 
Q 1584 2216 1326 1975 
Q 1069 1734 1069 1313 
Q 1069 891 1326 650 
Q 1584 409 2034 409 
Q 2484 409 2743 651 
Q 3003 894 3003 1313 
Q 3003 1734 2745 1975 
Q 2488 2216 2034 2216 
z
M 1403 2484 
Q 997 2584 770 2862 
Q 544 3141 544 3541 
Q 544 4100 942 4425 
Q 1341 4750 2034 4750 
Q 2731 4750 3128 4425 
Q 3525 4100 3525 3541 
Q 3525 3141 3298 2862 
Q 3072 2584 2669 2484 
Q 3125 2378 3379 2068 
Q 3634 1759 3634 1313 
Q 3634 634 3220 271 
Q 2806 -91 2034 -91 
Q 1263 -91 848 271 
Q 434 634 434 1313 
Q 434 1759 690 2068 
Q 947 2378 1403 2484 
z
M 1172 3481 
Q 1172 3119 1398 2916 
Q 1625 2713 2034 2713 
Q 2441 2713 2670 2916 
Q 2900 3119 2900 3481 
Q 2900 3844 2670 4047 
Q 2441 4250 2034 4250 
Q 1625 4250 1398 4047 
Q 1172 3844 1172 3481 
z
" transform="scale(0.015625)"/>
       </defs>
       <use xlink:href="#DejaVuSans-32"/>
       <use xlink:href="#DejaVuSans-30" x="63.623047"/>
       <use xlink:href="#DejaVuSans-31" x="127.246094"/>
       <use xlink:href="#DejaVuSans-38" x="190.869141"/>
      </g>
     </g>
    </g>
    <g id="xtick_4">
     <g id="line2d_4">
      <g>
       <use xlink:href="#m52ee4132de" x="599.268236" y="512.64" style="stroke: #000000; stroke-width: 0.8"/>
      </g>
     </g>
     <g id="text_4">
      <!-- 2020 -->
      <g transform="translate(586.543236 527.238438) scale(0.1 -0.1)">
       <use xlink:href="#DejaVuSans-32"/>
       <use xlink:href="#DejaVuSans-30" x="63.623047"/>
       <use xlink:href="#DejaVuSans-32" x="127.246094"/>
       <use xlink:href="#DejaVuSans-30" x="190.869141"/>
      </g>
     </g>
    </g>
    <g id="xtick_5">
     <g id="line2d_5">
      <g>
       <use xlink:href="#m52ee4132de" x="740.19607" y="512.64" style="stroke: #000000; stroke-width: 0.8"/>
      </g>
     </g>
     <g id="text_5">
      <!-- 2022 -->
      <g transform="translate(727.47107 527.238438) scale(0.1 -0.1)">
       <use xlink:href="#DejaVuSans-32"/>
       <use xlink:href="#DejaVuSans-30" x="63.623047"/>
       <use xlink:href="#DejaVuSans-32" x="127.246094"/>
       <use xlink:href="#DejaVuSans-32" x="190.869141"/>
      </g>
     </g>
    </g>
    <g id="xtick_6">
     <g id="line2d_6">
      <g>
       <use xlink:href="#m52ee4132de" x="880.931116" y="512.64" style="stroke: #000000; stroke-width: 0.8"/>
      </g>
     </g>
     <g id="text_6">
      <!-- 2024 -->
      <g transform="translate(868.206116 527.238438) scale(0.1 -0.1)">
       <use xlink:href="#DejaVuSans-32"/>
       <use xlink:href="#DejaVuSans-30" x="63.623047"/>
       <use xlink:href="#DejaVuSans-32" x="127.246094"/>
       <use xlink:href="#DejaVuSans-34" x="190.869141"/>
      </g>
     </g>
    </g>
    <g id="xtick_7">
     <g id="line2d_7">
      <g>
       <use xlink:href="#m52ee4132de" x="1021.858951" y="512.64" style="stroke: #000000; stroke-width: 0.8"/>
      </g>
     </g>
     <g id="text_7">
      <!-- 2026 -->
      <g transform="translate(1009.133951 527.238438) scale(0.1 -0.1)">
       <use xlink:href="#DejaVuSans-32"/>
       <use xlink:href="#DejaVuSans-30" x="63.623047"/>
       <use xlink:href="#DejaVuSans-32" x="127.246094"/>
       <use xlink:href="#DejaVuSans-36" x="190.869141"/>
      </g>
     </g>
    </g>
   </g>
   <g id="matplotlib.axis_2">
    <g id="ytick_1">
     <g id="line2d_8">
      <defs>
       <path id="mec923b8a2a" d="M 0 0 
L -3.5 0 
" style="stroke: #000000; stroke-width: 0.8"/>
      </defs>
      <g>
       <use xlink:href="#mec923b8a2a" x="144" y="492.514335" style="stroke: #000000; stroke-width: 0.8"/>
      </g>
     </g>
     <g id="text_8">
      <!-- 0 -->
      <g transform="translate(130.6375 496.313554) scale(0.1 -0.1)">
       <use xlink:href="#DejaVuSans-30"/>
      </g>
     </g>
    </g>
    <g id="ytick_2">
     <g id="line2d_9">
      <g>
       <use xlink:href="#mec923b8a2a" x="144" y="423.843638" style="stroke: #000000; stroke-width: 0.8"/>
      </g>
     </g>
     <g id="text_9">
      <!-- 2000 -->
      <g transform="translate(111.55 427.642857) scale(0.1 -0.1)">
       <use xlink:href="#DejaVuSans-32"/>
       <use xlink:href="#DejaVuSans-30" x="63.623047"/>
       <use xlink:href="#DejaVuSans-30" x="127.246094"/>
       <use xlink:href="#DejaVuSans-30" x="190.869141"/>
      </g>
     </g>
    </g>
    <g id="ytick_3">
     <g id="line2d_10">
      <g>
       <use xlink:href="#mec923b8a2a" x="144" y="355.17294" style="stroke: #000000; stroke-width: 0.8"/>
      </g>
     </g>
     <g id="text_10">
      <!-- 4000 -->
      <g transform="translate(111.55 358.972159) scale(0.1 -0.1)">
       <use xlink:href="#DejaVuSans-34"/>
       <use xlink:href="#DejaVuSans-30" x="63.623047"/>
       <use xlink:href="#DejaVuSans-30" x="127.246094"/>
       <use xlink:href="#DejaVuSans-30" x="190.869141"/>
      </g>
     </g>
    </g>
    <g id="ytick_4">
     <g id="line2d_11">
      <g>
       <use xlink:href="#mec923b8a2a" x="144" y="286.502243" style="stroke: #000000; stroke-width: 0.8"/>
      </g>
     </g>
     <g id="text_11">
      <!-- 6000 -->
      <g transform="translate(111.55 290.301462) scale(0.1 -0.1)">
       <use xlink:href="#DejaVuSans-36"/>
       <use xlink:href="#DejaVuSans-30" x="63.623047"/>
       <use xlink:href="#DejaVuSans-30" x="127.246094"/>
       <use xlink:href="#DejaVuSans-30" x="190.869141"/>
      </g>
     </g>
    </g>
    <g id="ytick_5">
     <g id="line2d_12">
      <g>
       <use xlink:href="#mec923b8a2a" x="144" y="217.831546" style="stroke: #000000; stroke-width: 0.8"/>
      </g>
     </g>
     <g id="text_12">
      <!-- 8000 -->
      <g transform="translate(111.55 221.630764) scale(0.1 -0.1)">
       <use xlink:href="#DejaVuSans-38"/>
       <use xlink:href="#DejaVuSans-30" x="63.623047"/>
       <use xlink:href="#DejaVuSans-30" x="127.246094"/>
       <use xlink:href="#DejaVuSans-30" x="190.869141"/>
      </g>
     </g>
    </g>
    <g id="ytick_6">
     <g id="line2d_13">
      <g>
       <use xlink:href="#mec923b8a2a" x="144" y="149.160848" style="stroke: #000000; stroke-width: 0.8"/>
      </g>
     </g>
     <g id="text_13">
      <!-- 10000 -->
      <g transform="translate(105.1875 152.960067) scale(0.1 -0.1)">
       <use xlink:href="#DejaVuSans-31"/>
       <use xlink:href="#DejaVuSans-30" x="63.623047"/>
       <use xlink:href="#DejaVuSans-30" x="127.246094"/>
       <use xlink:href="#DejaVuSans-30" x="190.869141"/>
       <use xlink:href="#DejaVuSans-30" x="254.492188"/>
      </g>
     </g>
    </g>
    <g id="ytick_7">
     <g id="line2d_14">
      <g>
       <use xlink:href="#mec923b8a2a" x="144" y="80.490151" style="stroke: #000000; stroke-width: 0.8"/>
      </g>
     </g>
     <g id="text_14">
      <!-- 12000 -->
      <g transform="translate(105.1875 84.289369) scale(0.1 -0.1)">
       <use xlink:href="#DejaVuSans-31"/>
       <use xlink:href="#DejaVuSans-32" x="63.623047"/>
       <use xlink:href="#DejaVuSans-30" x="127.246094"/>
       <use xlink:href="#DejaVuSans-30" x="190.869141"/>
       <use xlink:href="#DejaVuSans-30" x="254.492188"/>
      </g>
     </g>
    </g>
   </g>
   <g id="line2d_15">
    <path d="M 184.581818 492.48 
L 186.316908 492.411329 
L 306.809242 492.205317 
L 447.929864 492.03364 
L 500.368128 491.827628 
L 514.056057 491.724622 
L 546.829972 491.552946 
L 548.372274 491.484275 
L 557.24051 491.381269 
L 599.461024 491.175257 
L 605.630231 491.106586 
L 606.015807 490.831903 
L 610.064349 490.660227 
L 643.99499 490.522885 
L 647.850745 490.419879 
L 663.659339 490.248202 
L 682.938113 490.076526 
L 691.999136 489.801843 
L 699.710646 489.630166 
L 702.602462 489.424154 
L 703.951976 489.252477 
L 711.470697 489.046465 
L 715.51924 488.909124 
L 721.881235 488.462764 
L 731.906197 488.222417 
L 737.882617 486.539985 
L 738.46098 486.505649 
L 739.232131 485.956284 
L 739.424919 485.0979 
L 739.810494 484.891888 
L 740.003282 484.857553 
L 740.19607 483.690151 
L 741.352796 483.209456 
L 741.738372 482.625755 
L 742.123947 482.385407 
L 742.316735 481.870377 
L 742.509523 480.874652 
L 742.702311 480.531299 
L 743.087886 478.711525 
L 743.280674 476.720075 
L 743.666249 475.312326 
L 743.859037 475.037643 
L 744.051825 470.436706 
L 744.244612 468.582597 
L 744.4374 467.89589 
L 744.630188 464.599697 
L 745.208551 460.754138 
L 745.401339 460.651132 
L 745.786914 458.694017 
L 745.979702 458.041645 
L 746.17249 453.06302 
L 746.365277 452.61666 
L 746.750853 450.968563 
L 746.943641 450.865557 
L 747.136428 450.007174 
L 747.329216 446.470633 
L 747.522004 445.577914 
L 747.714792 445.509243 
L 747.907579 442.934092 
L 748.100367 442.419062 
L 748.485943 442.247385 
L 749.257094 439.637898 
L 749.642669 438.951191 
L 750.028244 436.925406 
L 750.221032 436.135693 
L 750.606608 430.710708 
L 751.184971 428.03255 
L 751.956122 427.620526 
L 752.727273 426.212777 
L 753.112848 426.075436 
L 753.498424 423.122596 
L 753.691211 423.08826 
L 754.076787 422.57323 
L 754.269575 421.131145 
L 754.462362 420.719121 
L 754.65515 420.58178 
L 754.847938 420.272762 
L 755.040726 419.689061 
L 755.619089 419.448713 
L 755.811876 419.208366 
L 756.39024 417.045239 
L 756.583027 416.907897 
L 756.968603 416.358532 
L 757.739754 415.980843 
L 757.932542 414.573094 
L 758.125329 414.470088 
L 758.318117 414.22974 
L 758.510905 411.517248 
L 758.89648 411.414242 
L 759.282056 410.693199 
L 759.474843 410.006492 
L 760.053207 409.869151 
L 760.63157 408.804755 
L 760.824358 408.77042 
L 761.209933 408.186719 
L 761.595509 408.049378 
L 761.788296 404.924861 
L 762.945023 404.650178 
L 763.330598 404.375495 
L 764.101749 404.272489 
L 764.294537 404.100812 
L 766.60799 403.414105 
L 767.379141 402.86474 
L 768.343079 402.727398 
L 768.728655 402.452716 
L 769.11423 402.315374 
L 771.042108 401.800344 
L 771.813258 398.881839 
L 772.777197 398.744498 
L 772.969985 398.675827 
L 774.512287 398.504151 
L 775.09065 398.298138 
L 775.283438 397.748773 
L 776.247376 397.680102 
L 776.82574 397.371084 
L 777.789678 397.027731 
L 777.982466 396.993395 
L 778.368041 396.615706 
L 778.753617 396.5127 
L 778.946405 396.272353 
L 779.717556 395.99767 
L 780.681494 395.894664 
L 780.874282 395.654317 
L 781.259857 395.619981 
L 781.452645 395.070616 
L 781.645433 395.001945 
L 781.838221 394.212232 
L 784.151674 393.697202 
L 784.730037 393.55986 
L 784.922824 393.147836 
L 786.272339 392.804483 
L 786.850702 392.598471 
L 787.621853 392.426794 
L 788.393004 392.220782 
L 789.356942 392.01477 
L 789.935306 391.843093 
L 791.28482 391.05338 
L 791.477607 390.366673 
L 792.441546 389.57696 
L 792.634334 389.267942 
L 793.598273 388.443893 
L 793.983848 387.722851 
L 794.176636 387.688516 
L 794.562211 386.795797 
L 795.333362 385.903078 
L 795.911725 385.800072 
L 796.104513 385.491053 
L 796.490089 385.319377 
L 796.682876 384.976023 
L 797.646815 384.735676 
L 797.839603 384.426658 
L 799.189117 384.117639 
L 799.574692 383.945963 
L 799.76748 383.911627 
L 799.960268 383.739951 
L 800.924206 383.602609 
L 802.273721 382.984573 
L 802.852084 382.847232 
L 803.237659 382.091854 
L 803.623235 381.851506 
L 804.587173 381.096129 
L 804.779961 380.306416 
L 805.551112 380.066068 
L 806.707838 379.688379 
L 807.093414 379.104679 
L 808.057353 378.555313 
L 808.25014 378.211959 
L 808.828504 378.005947 
L 809.214079 377.696929 
L 809.792442 377.456582 
L 810.178018 373.611023 
L 810.370805 372.37495 
L 810.563593 370.246159 
L 810.756381 369.971476 
L 811.527532 367.327654 
L 811.913107 366.640947 
L 812.105895 366.537941 
L 812.298683 366.297593 
L 812.491471 365.851234 
L 812.684258 364.306143 
L 812.877046 363.928454 
L 813.262621 363.791113 
L 814.419348 361.456309 
L 814.612136 361.284633 
L 814.804923 360.357578 
L 814.997711 360.014225 
L 815.383287 359.121506 
L 815.768862 358.57214 
L 816.540013 358.12578 
L 816.732801 357.919768 
L 816.925588 356.821037 
L 817.311164 356.64936 
L 817.696739 356.271672 
L 818.275103 355.481959 
L 818.46789 354.760916 
L 818.660678 354.726581 
L 819.239041 354.039874 
L 819.624617 354.005539 
L 819.817404 353.662185 
L 820.20298 353.456173 
L 821.166919 352.391777 
L 821.359706 351.808076 
L 822.902008 350.331656 
L 823.287584 348.992578 
L 824.44431 348.408877 
L 825.022673 347.516158 
L 825.986612 345.971067 
L 826.372187 345.765055 
L 827.143338 345.627714 
L 827.721702 344.528982 
L 828.492853 344.288635 
L 829.264003 343.395916 
L 829.649579 343.327245 
L 830.035154 342.915221 
L 830.613518 342.674874 
L 830.999093 342.640538 
L 831.191881 342.434526 
L 831.384669 341.81649 
L 832.155819 341.576142 
L 832.348607 341.232789 
L 832.541395 341.198454 
L 832.734183 340.580417 
L 833.312546 340.34007 
L 833.890909 340.202728 
L 834.276485 339.859375 
L 835.240423 339.413015 
L 835.625999 339.103997 
L 836.011574 338.86365 
L 836.39715 338.829314 
L 836.589937 337.90226 
L 836.975513 337.593242 
L 837.553876 337.318559 
L 838.132239 336.975206 
L 838.90339 336.837864 
L 839.096178 335.876474 
L 840.445692 335.224103 
L 840.63848 335.189768 
L 840.831268 335.018091 
L 841.216843 334.94942 
L 841.409631 334.640402 
L 842.180782 334.331384 
L 842.373569 333.953695 
L 842.759145 333.91936 
L 843.14472 333.679012 
L 843.723084 333.369994 
L 843.915871 332.889299 
L 844.687022 332.51161 
L 844.87981 332.236928 
L 845.458173 331.927909 
L 846.036536 331.653227 
L 846.229324 331.344208 
L 846.422112 331.275538 
L 846.807687 331.000855 
L 847.193263 330.829178 
L 847.386051 330.623166 
L 848.542777 330.279813 
L 848.735565 329.902124 
L 848.928352 329.799118 
L 849.892291 329.55877 
L 850.277867 329.249752 
L 850.663442 329.112411 
L 851.241805 328.940734 
L 851.434593 328.631716 
L 851.820168 328.563045 
L 852.012956 327.945009 
L 852.205744 327.842003 
L 852.591319 327.395643 
L 852.784107 326.365583 
L 853.169683 326.125235 
L 853.36247 325.987894 
L 853.555258 325.713211 
L 853.940834 325.472864 
L 854.711984 324.786157 
L 855.09756 324.61448 
L 855.290348 324.202456 
L 855.483135 324.133785 
L 855.868711 323.721761 
L 856.254286 323.481414 
L 856.83265 323.309737 
L 857.218225 322.863377 
L 859.33889 321.043604 
L 860.302829 320.803256 
L 861.459555 319.601519 
L 861.845131 319.429842 
L 863.387433 318.811806 
L 864.158583 318.331111 
L 864.929734 317.987758 
L 865.31531 317.781746 
L 865.700885 317.610069 
L 865.893673 317.438392 
L 868.014338 316.614344 
L 868.207126 316.27099 
L 869.55664 315.721625 
L 870.135003 315.343936 
L 870.713366 315.069253 
L 870.906154 314.863241 
L 871.677305 314.657229 
L 871.870093 314.210869 
L 872.062881 312.665779 
L 872.448456 312.253755 
L 872.641244 312.219419 
L 873.79797 310.708664 
L 874.183546 309.678603 
L 874.569121 309.33525 
L 874.954697 309.094902 
L 875.340272 308.991896 
L 875.53306 308.717214 
L 875.918635 308.511202 
L 876.304211 308.167848 
L 876.689786 307.996171 
L 876.882574 307.927501 
L 877.268149 307.515476 
L 877.460937 307.481141 
L 877.653725 307.069117 
L 878.232088 306.863105 
L 878.617664 306.348075 
L 879.196027 305.901715 
L 879.581602 305.524026 
L 880.159965 305.455356 
L 880.352753 305.146337 
L 880.931116 304.974661 
L 881.316692 303.463905 
L 881.702267 303.120552 
L 882.473418 302.845869 
L 882.858994 302.571186 
L 883.051781 302.056156 
L 883.437357 301.918815 
L 883.630145 301.43812 
L 883.822932 301.335114 
L 884.208508 300.92309 
L 884.401296 300.717077 
L 884.979659 300.511065 
L 885.365234 300.202047 
L 885.558022 300.167712 
L 885.75081 299.9617 
L 885.943597 299.927364 
L 886.714748 299.44667 
L 887.100324 298.588286 
L 887.293112 298.48528 
L 887.678687 298.416609 
L 887.871475 298.03892 
L 888.25705 297.867243 
L 888.642626 297.661231 
L 888.835414 297.043195 
L 889.606564 296.596836 
L 889.799352 295.978799 
L 890.570503 295.326428 
L 890.763291 295.292092 
L 891.148866 294.777062 
L 891.534442 294.468044 
L 891.72723 294.399373 
L 891.920017 294.05602 
L 892.305593 293.918678 
L 892.49838 293.266307 
L 892.883956 293.163301 
L 893.076744 292.854283 
L 893.269531 292.785612 
L 893.462319 292.06457 
L 893.847895 291.961563 
L 894.23347 291.721216 
L 894.619046 291.17185 
L 894.811833 291.034509 
L 895.582984 289.901443 
L 895.775772 289.832772 
L 896.161347 289.420748 
L 896.932498 288.871382 
L 897.510862 288.596699 
L 899.245951 286.879932 
L 899.631527 286.74259 
L 900.017102 286.330566 
L 900.402678 286.22756 
L 900.595465 285.437847 
L 901.173829 284.888482 
L 901.366616 284.201775 
L 901.752192 283.824086 
L 901.944979 283.480732 
L 902.137767 283.446397 
L 903.101706 282.553678 
L 903.680069 282.210324 
L 904.065645 281.901306 
L 905.222371 281.351941 
L 905.993522 280.218874 
L 906.379097 280.081533 
L 906.571885 279.772515 
L 906.764673 279.703844 
L 906.957461 279.463497 
L 907.150248 279.429161 
L 907.343036 279.051472 
L 908.114187 278.536442 
L 908.69255 278.090083 
L 909.463701 277.712394 
L 910.042064 277.231699 
L 910.620428 276.957016 
L 910.813215 276.647998 
L 911.198791 276.579327 
L 911.777154 276.029962 
L 911.969942 275.720944 
L 912.548305 275.446261 
L 912.93388 275.137243 
L 913.512244 274.965566 
L 913.897819 274.553542 
L 914.283395 274.4162 
L 914.66897 274.278859 
L 915.054545 273.798164 
L 915.825696 273.454811 
L 916.018484 271.875384 
L 916.982423 271.188678 
L 917.753574 269.815264 
L 917.946361 269.712258 
L 918.139149 269.265898 
L 918.524725 269.128557 
L 919.295876 267.961155 
L 919.681451 266.347393 
L 919.874239 265.832363 
L 920.259814 263.257212 
L 920.452602 262.227151 
L 921.416541 260.991079 
L 922.187692 257.935233 
L 922.380479 257.763556 
L 922.573267 257.282861 
L 922.766055 255.634765 
L 922.958843 255.016728 
L 923.15163 254.948058 
L 923.344418 254.19268 
L 923.922781 253.711985 
L 924.308357 252.407242 
L 925.272295 251.892212 
L 925.657871 251.480187 
L 926.236234 251.171169 
L 926.429022 251.068163 
L 926.814597 250.656139 
L 927.007385 250.27845 
L 927.200173 249.31706 
L 927.39296 248.939372 
L 927.778536 248.80203 
L 928.164111 248.630353 
L 928.549687 248.355671 
L 928.935262 248.115323 
L 929.706413 247.874976 
L 930.091989 247.634628 
L 930.284777 247.497287 
L 930.670352 247.462952 
L 933.176593 245.162483 
L 933.562168 245.059477 
L 933.947743 244.81913 
L 934.140531 244.716124 
L 934.333319 243.892075 
L 934.911682 243.34271 
L 935.297258 243.239704 
L 936.453984 242.312649 
L 936.839559 242.140972 
L 937.032347 242.072302 
L 937.417923 241.660278 
L 937.803498 241.557272 
L 937.996286 241.076577 
L 938.189074 240.9049 
L 938.381861 240.355534 
L 938.767437 240.115187 
L 939.3458 238.844779 
L 939.538588 238.158072 
L 940.116951 237.746048 
L 940.695314 236.99067 
L 941.08089 235.651592 
L 941.273677 235.239567 
L 941.466465 234.518525 
L 941.659253 234.449854 
L 941.852041 233.866153 
L 942.237616 233.625806 
L 943.394342 232.458404 
L 943.58713 231.977709 
L 944.165493 231.703026 
L 944.358281 231.222332 
L 945.515008 230.741637 
L 945.707795 230.020594 
L 946.093371 229.780247 
L 946.286158 229.333887 
L 946.478946 229.196546 
L 946.864522 229.162211 
L 948.021248 228.269492 
L 948.599611 227.823132 
L 948.985187 227.376773 
L 949.370762 227.033419 
L 949.56355 226.690066 
L 949.756338 225.934688 
L 950.913064 225.282316 
L 951.29864 224.458268 
L 951.684215 224.320927 
L 951.877003 223.805896 
L 952.069791 223.737226 
L 952.648154 223.084854 
L 953.033729 222.7415 
L 954.383243 221.677105 
L 954.961607 221.059068 
L 955.53997 220.303691 
L 955.732758 219.822996 
L 955.925545 218.998947 
L 956.311121 218.346576 
L 956.503908 217.934552 
L 957.467847 212.955926 
L 957.660635 212.681243 
L 957.853423 212.200548 
L 958.04621 210.34644 
L 958.238998 206.775563 
L 958.431786 205.367814 
L 958.624574 203.101681 
L 958.817361 202.51798 
L 959.202937 199.942829 
L 959.588512 196.440623 
L 959.974088 191.736681 
L 960.359663 191.015638 
L 960.745239 184.938282 
L 960.938026 183.32452 
L 961.323602 176.38878 
L 961.51639 175.461725 
L 961.709177 175.084036 
L 961.901965 171.581831 
L 962.094753 170.792118 
L 962.480328 166.946559 
L 962.865904 156.577283 
L 963.251479 154.963522 
L 963.444267 151.735999 
L 963.637055 151.426981 
L 964.02263 146.208008 
L 964.215418 146.105002 
L 964.408206 145.761649 
L 964.793781 144.525576 
L 964.986569 144.285229 
L 965.179357 143.701528 
L 965.372144 142.602797 
L 965.75772 142.396784 
L 965.950507 141.847419 
L 966.336083 140.130651 
L 966.721658 136.834458 
L 966.914446 136.147751 
L 967.107234 136.07908 
L 967.300022 135.770062 
L 968.26396 132.851558 
L 968.456748 132.748551 
L 968.649536 132.061845 
L 969.035111 131.718491 
L 969.227899 131.58115 
L 969.420687 131.066119 
L 969.613474 130.894443 
L 970.191838 130.070394 
L 970.770201 129.212011 
L 971.155776 129.074669 
L 972.119715 127.804261 
L 972.50529 127.632585 
L 973.083654 127.563914 
L 973.469229 127.048884 
L 973.854805 126.945878 
L 974.433168 126.293506 
L 975.204319 125.847146 
L 975.97547 124.885757 
L 976.168257 124.370726 
L 976.939408 124.130379 
L 977.324984 123.787025 
L 977.710559 123.134654 
L 978.096135 122.825636 
L 978.288922 122.585288 
L 978.674498 121.177539 
L 978.867286 120.937192 
L 979.445649 120.696844 
L 979.831224 120.387826 
L 980.2168 120.010137 
L 980.602375 119.701119 
L 980.987951 119.357765 
L 981.373526 119.014412 
L 981.566314 118.190364 
L 982.144677 117.778339 
L 982.915828 116.851285 
L 983.494191 116.37059 
L 984.072555 115.85556 
L 984.45813 115.649548 
L 984.843705 115.34053 
L 985.422069 115.134518 
L 985.807644 113.93278 
L 986.000432 113.829774 
L 986.386007 113.246073 
L 987.157158 112.319019 
L 987.349946 112.216013 
L 987.928309 111.185952 
L 988.121097 110.258898 
L 988.313885 109.94988 
L 988.69946 109.812539 
L 988.892248 109.400514 
L 990.627338 108.061436 
L 991.012913 107.271723 
L 991.205701 107.168717 
L 991.398488 102.979804 
L 991.784064 102.293097 
L 992.169639 101.743732 
L 992.362427 101.263037 
L 992.555215 101.228701 
L 992.94079 100.645 
L 993.133578 99.923958 
L 994.290304 98.310197 
L 994.483092 97.863837 
L 994.868668 95.426027 
L 995.061455 94.704985 
L 995.254243 93.537583 
L 995.447031 93.228565 
L 995.639819 91.168444 
L 996.025394 89.898036 
L 996.218182 89.28 
L 996.218182 89.28 
" clip-path="url(#p1915d48f6c)" style="fill: none; stroke: #1f77b4; stroke-width: 1.5; stroke-linecap: square"/>
   </g>
   <g id="patch_3">
    <path d="M 144 512.64 
L 144 69.12 
" style="fill: none; stroke: #000000; stroke-width: 0.8; stroke-linejoin: miter; stroke-linecap: square"/>
   </g>
   <g id="patch_4">
    <path d="M 1036.8 512.64 
L 1036.8 69.12 
" style="fill: none; stroke: #000000; stroke-width: 0.8; stroke-linejoin: miter; stroke-linecap: square"/>
   </g>
   <g id="patch_5">
    <path d="M 144 512.64 
L 1036.8 512.64 
" style="fill: none; stroke: #000000; stroke-width: 0.8; stroke-linejoin: miter; stroke-linecap: square"/>
   </g>
   <g id="patch_6">
    <path d="M 144 69.12 
L 1036.8 69.12 
" style="fill: none; stroke: #000000; stroke-width: 0.8; stroke-linejoin: miter; stroke-linecap: square"/>
   </g>
   <g id="text_15">
    <!-- Number of AEDs in the OpenStreetMap database in Poland from first edition, day by day. As at: 2025-08-21 -->
    <g transform="translate(144 63.12) scale(0.14 -0.14)">
     <defs>
      <path id="DejaVuSans-4e" d="M 628 4666 
L 1478 4666 
L 3547 763 
L 3547 4666 
L 4159 4666 
L 4159 0 
L 3309 0 
L 1241 3903 
L 1241 0 
L 628 0 
L 628 4666 
z
" transform="scale(0.015625)"/>
      <path id="DejaVuSans-75" d="M 544 1381 
L 544 3500 
L 1119 3500 
L 1119 1403 
Q 1119 906 1312 657 
Q 1506 409 1894 409 
Q 2359 409 2629 706 
Q 2900 1003 2900 1516 
L 2900 3500 
L 3475 3500 
L 3475 0 
L 2900 0 
L 2900 538 
Q 2691 219 2414 64 
Q 2138 -91 1772 -91 
Q 1169 -91 856 284 
Q 544 659 544 1381 
z
M 1991 3584 
L 1991 3584 
z
" transform="scale(0.015625)"/>
      <path id="DejaVuSans-6d" d="M 3328 2828 
Q 3544 3216 3844 3400 
Q 4144 3584 4550 3584 
Q 5097 3584 5394 3201 
Q 5691 2819 5691 2113 
L 5691 0 
L 5113 0 
L 5113 2094 
Q 5113 2597 4934 2840 
Q 4756 3084 4391 3084 
Q 3944 3084 3684 2787 
Q 3425 2491 3425 1978 
L 3425 0 
L 2847 0 
L 2847 2094 
Q 2847 2600 2669 2842 
Q 2491 3084 2119 3084 
Q 1678 3084 1418 2786 
Q 1159 2488 1159 1978 
L 1159 0 
L 581 0 
L 581 3500 
L 1159 3500 
L 1159 2956 
Q 1356 3278 1631 3431 
Q 1906 3584 2284 3584 
Q 2666 3584 2933 3390 
Q 3200 3197 3328 2828 
z
" transform="scale(0.015625)"/>
      <path id="DejaVuSans-62" d="M 3116 1747 
Q 3116 2381 2855 2742 
Q 2594 3103 2138 3103 
Q 1681 3103 1420 2742 
Q 1159 2381 1159 1747 
Q 1159 1113 1420 752 
Q 1681 391 2138 391 
Q 2594 391 2855 752 
Q 3116 1113 3116 1747 
z
M 1159 2969 
Q 1341 3281 1617 3432 
Q 1894 3584 2278 3584 
Q 2916 3584 3314 3078 
Q 3713 2572 3713 1747 
Q 3713 922 3314 415 
Q 2916 -91 2278 -91 
Q 1894 -91 1617 61 
Q 1341 213 1159 525 
L 1159 0 
L 581 0 
L 581 4863 
L 1159 4863 
L 1159 2969 
z
" transform="scale(0.015625)"/>
      <path id="DejaVuSans-65" d="M 3597 1894 
L 3597 1613 
L 953 1613 
Q 991 1019 1311 708 
Q 1631 397 2203 397 
Q 2534 397 2845 478 
Q 3156 559 3463 722 
L 3463 178 
Q 3153 47 2828 -22 
Q 2503 -91 2169 -91 
Q 1331 -91 842 396 
Q 353 884 353 1716 
Q 353 2575 817 3079 
Q 1281 3584 2069 3584 
Q 2775 3584 3186 3129 
Q 3597 2675 3597 1894 
z
M 3022 2063 
Q 3016 2534 2758 2815 
Q 2500 3097 2075 3097 
Q 1594 3097 1305 2825 
Q 1016 2553 972 2059 
L 3022 2063 
z
" transform="scale(0.015625)"/>
      <path id="DejaVuSans-72" d="M 2631 2963 
Q 2534 3019 2420 3045 
Q 2306 3072 2169 3072 
Q 1681 3072 1420 2755 
Q 1159 2438 1159 1844 
L 1159 0 
L 581 0 
L 581 3500 
L 1159 3500 
L 1159 2956 
Q 1341 3275 1631 3429 
Q 1922 3584 2338 3584 
Q 2397 3584 2469 3576 
Q 2541 3569 2628 3553 
L 2631 2963 
z
" transform="scale(0.015625)"/>
      <path id="DejaVuSans-20" transform="scale(0.015625)"/>
      <path id="DejaVuSans-6f" d="M 1959 3097 
Q 1497 3097 1228 2736 
Q 959 2375 959 1747 
Q 959 1119 1226 758 
Q 1494 397 1959 397 
Q 2419 397 2687 759 
Q 2956 1122 2956 1747 
Q 2956 2369 2687 2733 
Q 2419 3097 1959 3097 
z
M 1959 3584 
Q 2709 3584 3137 3096 
Q 3566 2609 3566 1747 
Q 3566 888 3137 398 
Q 2709 -91 1959 -91 
Q 1206 -91 779 398 
Q 353 888 353 1747 
Q 353 2609 779 3096 
Q 1206 3584 1959 3584 
z
" transform="scale(0.015625)"/>
      <path id="DejaVuSans-66" d="M 2375 4863 
L 2375 4384 
L 1825 4384 
Q 1516 4384 1395 4259 
Q 1275 4134 1275 3809 
L 1275 3500 
L 2222 3500 
L 2222 3053 
L 1275 3053 
L 1275 0 
L 697 0 
L 697 3053 
L 147 3053 
L 147 3500 
L 697 3500 
L 697 3744 
Q 697 4328 969 4595 
Q 1241 4863 1831 4863 
L 2375 4863 
z
" transform="scale(0.015625)"/>
      <path id="DejaVuSans-41" d="M 2188 4044 
L 1331 1722 
L 3047 1722 
L 2188 4044 
z
M 1831 4666 
L 2547 4666 
L 4325 0 
L 3669 0 
L 3244 1197 
L 1141 1197 
L 716 0 
L 50 0 
L 1831 4666 
z
" transform="scale(0.015625)"/>
      <path id="DejaVuSans-45" d="M 628 4666 
L 3578 4666 
L 3578 4134 
L 1259 4134 
L 1259 2753 
L 3481 2753 
L 3481 2222 
L 1259 2222 
L 1259 531 
L 3634 531 
L 3634 0 
L 628 0 
L 628 4666 
z
" transform="scale(0.015625)"/>
      <path id="DejaVuSans-44" d="M 1259 4147 
L 1259 519 
L 2022 519 
Q 2988 519 3436 956 
Q 3884 1394 3884 2338 
Q 3884 3275 3436 3711 
Q 2988 4147 2022 4147 
L 1259 4147 
z
M 628 4666 
L 1925 4666 
Q 3281 4666 3915 4102 
Q 4550 3538 4550 2338 
Q 4550 1131 3912 565 
Q 3275 0 1925 0 
L 628 0 
L 628 4666 
z
" transform="scale(0.015625)"/>
      <path id="DejaVuSans-73" d="M 2834 3397 
L 2834 2853 
Q 2591 2978 2328 3040 
Q 2066 3103 1784 3103 
Q 1356 3103 1142 2972 
Q 928 2841 928 2578 
Q 928 2378 1081 2264 
Q 1234 2150 1697 2047 
L 1894 2003 
Q 2506 1872 2764 1633 
Q 3022 1394 3022 966 
Q 3022 478 2636 193 
Q 2250 -91 1575 -91 
Q 1294 -91 989 -36 
Q 684 19 347 128 
L 347 722 
Q 666 556 975 473 
Q 1284 391 1588 391 
Q 1994 391 2212 530 
Q 2431 669 2431 922 
Q 2431 1156 2273 1281 
Q 2116 1406 1581 1522 
L 1381 1569 
Q 847 1681 609 1914 
Q 372 2147 372 2553 
Q 372 3047 722 3315 
Q 1072 3584 1716 3584 
Q 2034 3584 2315 3537 
Q 2597 3491 2834 3397 
z
" transform="scale(0.015625)"/>
      <path id="DejaVuSans-69" d="M 603 3500 
L 1178 3500 
L 1178 0 
L 603 0 
L 603 3500 
z
M 603 4863 
L 1178 4863 
L 1178 4134 
L 603 4134 
L 603 4863 
z
" transform="scale(0.015625)"/>
      <path id="DejaVuSans-6e" d="M 3513 2113 
L 3513 0 
L 2938 0 
L 2938 2094 
Q 2938 2591 2744 2837 
Q 2550 3084 2163 3084 
Q 1697 3084 1428 2787 
Q 1159 2491 1159 1978 
L 1159 0 
L 581 0 
L 581 3500 
L 1159 3500 
L 1159 2956 
Q 1366 3272 1645 3428 
Q 1925 3584 2291 3584 
Q 2894 3584 3203 3211 
Q 3513 2838 3513 2113 
z
" transform="scale(0.015625)"/>
      <path id="DejaVuSans-74" d="M 1172 4494 
L 1172 3500 
L 2356 3500 
L 2356 3053 
L 1172 3053 
L 1172 1153 
Q 1172 725 1289 603 
Q 1406 481 1766 481 
L 2356 481 
L 2356 0 
L 1766 0 
Q 1100 0 847 248 
Q 594 497 594 1153 
L 594 3053 
L 172 3053 
L 172 3500 
L 594 3500 
L 594 4494 
L 1172 4494 
z
" transform="scale(0.015625)"/>
      <path id="DejaVuSans-68" d="M 3513 2113 
L 3513 0 
L 2938 0 
L 2938 2094 
Q 2938 2591 2744 2837 
Q 2550 3084 2163 3084 
Q 1697 3084 1428 2787 
Q 1159 2491 1159 1978 
L 1159 0 
L 581 0 
L 581 4863 
L 1159 4863 
L 1159 2956 
Q 1366 3272 1645 3428 
Q 1925 3584 2291 3584 
Q 2894 3584 3203 3211 
Q 3513 2838 3513 2113 
z
" transform="scale(0.015625)"/>
      <path id="DejaVuSans-4f" d="M 2522 4238 
Q 1834 4238 1429 3725 
Q 1025 3213 1025 2328 
Q 1025 1447 1429 934 
Q 1834 422 2522 422 
Q 3209 422 3611 934 
Q 4013 1447 4013 2328 
Q 4013 3213 3611 3725 
Q 3209 4238 2522 4238 
z
M 2522 4750 
Q 3503 4750 4090 4092 
Q 4678 3434 4678 2328 
Q 4678 1225 4090 567 
Q 3503 -91 2522 -91 
Q 1538 -91 948 565 
Q 359 1222 359 2328 
Q 359 3434 948 4092 
Q 1538 4750 2522 4750 
z
" transform="scale(0.015625)"/>
      <path id="DejaVuSans-70" d="M 1159 525 
L 1159 -1331 
L 581 -1331 
L 581 3500 
L 1159 3500 
L 1159 2969 
Q 1341 3281 1617 3432 
Q 1894 3584 2278 3584 
Q 2916 3584 3314 3078 
Q 3713 2572 3713 1747 
Q 3713 922 3314 415 
Q 2916 -91 2278 -91 
Q 1894 -91 1617 61 
Q 1341 213 1159 525 
z
M 3116 1747 
Q 3116 2381 2855 2742 
Q 2594 3103 2138 3103 
Q 1681 3103 1420 2742 
Q 1159 2381 1159 1747 
Q 1159 1113 1420 752 
Q 1681 391 2138 391 
Q 2594 391 2855 752 
Q 3116 1113 3116 1747 
z
" transform="scale(0.015625)"/>
      <path id="DejaVuSans-53" d="M 3425 4513 
L 3425 3897 
Q 3066 4069 2747 4153 
Q 2428 4238 2131 4238 
Q 1616 4238 1336 4038 
Q 1056 3838 1056 3469 
Q 1056 3159 1242 3001 
Q 1428 2844 1947 2747 
L 2328 2669 
Q 3034 2534 3370 2195 
Q 3706 1856 3706 1288 
Q 3706 609 3251 259 
Q 2797 -91 1919 -91 
Q 1588 -91 1214 -16 
Q 841 59 441 206 
L 441 856 
Q 825 641 1194 531 
Q 1563 422 1919 422 
Q 2459 422 2753 634 
Q 3047 847 3047 1241 
Q 3047 1584 2836 1778 
Q 2625 1972 2144 2069 
L 1759 2144 
Q 1053 2284 737 2584 
Q 422 2884 422 3419 
Q 422 4038 858 4394 
Q 1294 4750 2059 4750 
Q 2388 4750 2728 4690 
Q 3069 4631 3425 4513 
z
" transform="scale(0.015625)"/>
      <path id="DejaVuSans-4d" d="M 628 4666 
L 1569 4666 
L 2759 1491 
L 3956 4666 
L 4897 4666 
L 4897 0 
L 4281 0 
L 4281 4097 
L 3078 897 
L 2444 897 
L 1241 4097 
L 1241 0 
L 628 0 
L 628 4666 
z
" transform="scale(0.015625)"/>
      <path id="DejaVuSans-61" d="M 2194 1759 
Q 1497 1759 1228 1600 
Q 959 1441 959 1056 
Q 959 750 1161 570 
Q 1363 391 1709 391 
Q 2188 391 2477 730 
Q 2766 1069 2766 1631 
L 2766 1759 
L 2194 1759 
z
M 3341 1997 
L 3341 0 
L 2766 0 
L 2766 531 
Q 2569 213 2275 61 
Q 1981 -91 1556 -91 
Q 1019 -91 701 211 
Q 384 513 384 1019 
Q 384 1609 779 1909 
Q 1175 2209 1959 2209 
L 2766 2209 
L 2766 2266 
Q 2766 2663 2505 2880 
Q 2244 3097 1772 3097 
Q 1472 3097 1187 3025 
Q 903 2953 641 2809 
L 641 3341 
Q 956 3463 1253 3523 
Q 1550 3584 1831 3584 
Q 2591 3584 2966 3190 
Q 3341 2797 3341 1997 
z
" transform="scale(0.015625)"/>
      <path id="DejaVuSans-64" d="M 2906 2969 
L 2906 4863 
L 3481 4863 
L 3481 0 
L 2906 0 
L 2906 525 
Q 2725 213 2448 61 
Q 2172 -91 1784 -91 
Q 1150 -91 751 415 
Q 353 922 353 1747 
Q 353 2572 751 3078 
Q 1150 3584 1784 3584 
Q 2172 3584 2448 3432 
Q 2725 3281 2906 2969 
z
M 947 1747 
Q 947 1113 1208 752 
Q 1469 391 1925 391 
Q 2381 391 2643 752 
Q 2906 1113 2906 1747 
Q 2906 2381 2643 2742 
Q 2381 3103 1925 3103 
Q 1469 3103 1208 2742 
Q 947 2381 947 1747 
z
" transform="scale(0.015625)"/>
      <path id="DejaVuSans-50" d="M 1259 4147 
L 1259 2394 
L 2053 2394 
Q 2494 2394 2734 2622 
Q 2975 2850 2975 3272 
Q 2975 3691 2734 3919 
Q 2494 4147 2053 4147 
L 1259 4147 
z
M 628 4666 
L 2053 4666 
Q 2838 4666 3239 4311 
Q 3641 3956 3641 3272 
Q 3641 2581 3239 2228 
Q 2838 1875 2053 1875 
L 1259 1875 
L 1259 0 
L 628 0 
L 628 4666 
z
" transform="scale(0.015625)"/>
      <path id="DejaVuSans-6c" d="M 603 4863 
L 1178 4863 
L 1178 0 
L 603 0 
L 603 4863 
z
" transform="scale(0.015625)"/>
      <path id="DejaVuSans-2c" d="M 750 794 
L 1409 794 
L 1409 256 
L 897 -744 
L 494 -744 
L 750 256 
L 750 794 
z
" transform="scale(0.015625)"/>
      <path id="DejaVuSans-79" d="M 2059 -325 
Q 1816 -950 1584 -1140 
Q 1353 -1331 966 -1331 
L 506 -1331 
L 506 -850 
L 844 -850 
Q 1081 -850 1212 -737 
Q 1344 -625 1503 -206 
L 1606 56 
L 191 3500 
L 800 3500 
L 1894 763 
L 2988 3500 
L 3597 3500 
L 2059 -325 
z
" transform="scale(0.015625)"/>
      <path id="DejaVuSans-2e" d="M 684 794 
L 1344 794 
L 1344 0 
L 684 0 
L 684 794 
z
" transform="scale(0.015625)"/>
      <path id="DejaVuSans-3a" d="M 750 794 
L 1409 794 
L 1409 0 
L 750 0 
L 750 794 
z
M 750 3309 
L 1409 3309 
L 1409 2516 
L 750 2516 
L 750 3309 
z
" transform="scale(0.015625)"/>
      <path id="DejaVuSans-35" d="M 691 4666 
L 3169 4666 
L 3169 4134 
L 1269 4134 
L 1269 2991 
Q 1406 3038 1543 3061 
Q 1681 3084 1819 3084 
Q 2600 3084 3056 2656 
Q 3513 2228 3513 1497 
Q 3513 744 3044 326 
Q 2575 -91 1722 -91 
Q 1428 -91 1123 -41 
Q 819 9 494 109 
L 494 744 
Q 775 591 1075 516 
Q 1375 441 1709 441 
Q 2250 441 2565 725 
Q 2881 1009 2881 1497 
Q 2881 1984 2565 2268 
Q 2250 2553 1709 2553 
Q 1456 2553 1204 2497 
Q 953 2441 691 2322 
L 691 4666 
z
" transform="scale(0.015625)"/>
      <path id="DejaVuSans-2d" d="M 313 2009 
L 1997 2009 
L 1997 1497 
L 313 1497 
L 313 2009 
z
" transform="scale(0.015625)"/>
     </defs>
     <use xlink:href="#DejaVuSans-4e"/>
     <use xlink:href="#DejaVuSans-75" x="74.804688"/>
     <use xlink:href="#DejaVuSans-6d" x="138.183594"/>
     <use xlink:href="#DejaVuSans-62" x="235.595703"/>
     <use xlink:href="#DejaVuSans-65" x="299.072266"/>
     <use xlink:href="#DejaVuSans-72" x="360.595703"/>
     <use xlink:href="#DejaVuSans-20" x="401.708984"/>
     <use xlink:href="#DejaVuSans-6f" x="433.496094"/>
     <use xlink:href="#DejaVuSans-66" x="494.677734"/>
     <use xlink:href="#DejaVuSans-20" x="529.882812"/>
     <use xlink:href="#DejaVuSans-41" x="561.669922"/>
     <use xlink:href="#DejaVuSans-45" x="630.078125"/>
     <use xlink:href="#DejaVuSans-44" x="693.261719"/>
     <use xlink:href="#DejaVuSans-73" x="770.263672"/>
     <use xlink:href="#DejaVuSans-20" x="822.363281"/>
     <use xlink:href="#DejaVuSans-69" x="854.150391"/>
     <use xlink:href="#DejaVuSans-6e" x="881.933594"/>
     <use xlink:href="#DejaVuSans-20" x="945.3125"/>
     <use xlink:href="#DejaVuSans-74" x="977.099609"/>
     <use xlink:href="#DejaVuSans-68" x="1016.308594"/>
     <use xlink:href="#DejaVuSans-65" x="1079.6875"/>
     <use xlink:href="#DejaVuSans-20" x="1141.210938"/>
     <use xlink:href="#DejaVuSans-4f" x="1172.998047"/>
     <use xlink:href="#DejaVuSans-70" x="1251.708984"/>
     <use xlink:href="#DejaVuSans-65" x="1315.185547"/>
     <use xlink:href="#DejaVuSans-6e" x="1376.708984"/>
     <use xlink:href="#DejaVuSans-53" x="1440.087891"/>
     <use xlink:href="#DejaVuSans-74" x="1503.564453"/>
     <use xlink:href="#DejaVuSans-72" x="1542.773438"/>
     <use xlink:href="#DejaVuSans-65" x="1581.636719"/>
     <use xlink:href="#DejaVuSans-65" x="1643.160156"/>
     <use xlink:href="#DejaVuSans-74" x="1704.683594"/>
     <use xlink:href="#DejaVuSans-4d" x="1743.892578"/>
     <use xlink:href="#DejaVuSans-61" x="1830.171875"/>
     <use xlink:href="#DejaVuSans-70" x="1891.451172"/>
     <use xlink:href="#DejaVuSans-20" x="1954.927734"/>
     <use xlink:href="#DejaVuSans-64" x="1986.714844"/>
     <use xlink:href="#DejaVuSans-61" x="2050.191406"/>
     <use xlink:href="#DejaVuSans-74" x="2111.470703"/>
     <use xlink:href="#DejaVuSans-61" x="2150.679688"/>
     <use xlink:href="#DejaVuSans-62" x="2211.958984"/>
     <use xlink:href="#DejaVuSans-61" x="2275.435547"/>
     <use xlink:href="#DejaVuSans-73" x="2336.714844"/>
     <use xlink:href="#DejaVuSans-65" x="2388.814453"/>
     <use xlink:href="#DejaVuSans-20" x="2450.337891"/>
     <use xlink:href="#DejaVuSans-69" x="2482.125"/>
     <use xlink:href="#DejaVuSans-6e" x="2509.908203"/>
     <use xlink:href="#DejaVuSans-20" x="2573.287109"/>
     <use xlink:href="#DejaVuSans-50" x="2605.074219"/>
     <use xlink:href="#DejaVuSans-6f" x="2661.751953"/>
     <use xlink:href="#DejaVuSans-6c" x="2722.933594"/>
     <use xlink:href="#DejaVuSans-61" x="2750.716797"/>
     <use xlink:href="#DejaVuSans-6e" x="2811.996094"/>
     <use xlink:href="#DejaVuSans-64" x="2875.375"/>
     <use xlink:href="#DejaVuSans-20" x="2938.851562"/>
     <use xlink:href="#DejaVuSans-66" x="2970.638672"/>
     <use xlink:href="#DejaVuSans-72" x="3005.84375"/>
     <use xlink:href="#DejaVuSans-6f" x="3044.707031"/>
     <use xlink:href="#DejaVuSans-6d" x="3105.888672"/>
     <use xlink:href="#DejaVuSans-20" x="3203.300781"/>
     <use xlink:href="#DejaVuSans-66" x="3235.087891"/>
     <use xlink:href="#DejaVuSans-69" x="3270.292969"/>
     <use xlink:href="#DejaVuSans-72" x="3298.076172"/>
     <use xlink:href="#DejaVuSans-73" x="3339.189453"/>
     <use xlink:href="#DejaVuSans-74" x="3391.289062"/>
     <use xlink:href="#DejaVuSans-20" x="3430.498047"/>
     <use xlink:href="#DejaVuSans-65" x="3462.285156"/>
     <use xlink:href="#DejaVuSans-64" x="3523.808594"/>
     <use xlink:href="#DejaVuSans-69" x="3587.285156"/>
     <use xlink:href="#DejaVuSans-74" x="3615.068359"/>
     <use xlink:href="#DejaVuSans-69" x="3654.277344"/>
     <use xlink:href="#DejaVuSans-6f" x="3682.060547"/>
     <use xlink:href="#DejaVuSans-6e" x="3743.242188"/>
     <use xlink:href="#DejaVuSans-2c" x="3806.621094"/>
     <use xlink:href="#DejaVuSans-20" x="3838.408203"/>
     <use xlink:href="#DejaVuSans-64" x="3870.195312"/>
     <use xlink:href="#DejaVuSans-61" x="3933.671875"/>
     <use xlink:href="#DejaVuSans-79" x="3994.951172"/>
     <use xlink:href="#DejaVuSans-20" x="4054.130859"/>
     <use xlink:href="#DejaVuSans-62" x="4085.917969"/>
     <use xlink:href="#DejaVuSans-79" x="4149.394531"/>
     <use xlink:href="#DejaVuSans-20" x="4208.574219"/>
     <use xlink:href="#DejaVuSans-64" x="4240.361328"/>
     <use xlink:href="#DejaVuSans-61" x="4303.837891"/>
     <use xlink:href="#DejaVuSans-79" x="4365.117188"/>
     <use xlink:href="#DejaVuSans-2e" x="4410.046875"/>
     <use xlink:href="#DejaVuSans-20" x="4441.833984"/>
     <use xlink:href="#DejaVuSans-41" x="4473.621094"/>
     <use xlink:href="#DejaVuSans-73" x="4542.029297"/>
     <use xlink:href="#DejaVuSans-20" x="4594.128906"/>
     <use xlink:href="#DejaVuSans-61" x="4625.916016"/>
     <use xlink:href="#DejaVuSans-74" x="4687.195312"/>
     <use xlink:href="#DejaVuSans-3a" x="4726.404297"/>
     <use xlink:href="#DejaVuSans-20" x="4760.095703"/>
     <use xlink:href="#DejaVuSans-32" x="4791.882812"/>
     <use xlink:href="#DejaVuSans-30" x="4855.505859"/>
     <use xlink:href="#DejaVuSans-32" x="4919.128906"/>
     <use xlink:href="#DejaVuSans-35" x="4982.751953"/>
     <use xlink:href="#DejaVuSans-2d" x="5046.375"/>
     <use xlink:href="#DejaVuSans-30" x="5082.458984"/>
     <use xlink:href="#DejaVuSans-38" x="5146.082031"/>
     <use xlink:href="#DejaVuSans-2d" x="5209.705078"/>
     <use xlink:href="#DejaVuSans-32" x="5245.789062"/>
     <use xlink:href="#DejaVuSans-31" x="5309.412109"/>
    </g>
   </g>
  </g>
 </g>
 <defs>
  <clipPath id="p1915d48f6c">
   <rect x="144" y="69.12" width="892.8" height="443.52"/>
  </clipPath>
 </defs>
</svg>
