<?xml version="1.0" encoding="utf-8" standalone="no"?>
<!DOCTYPE svg PUBLIC "-//W3C//DTD SVG 1.1//EN"
  "http://www.w3.org/Graphics/SVG/1.1/DTD/svg11.dtd">
<svg xmlns:xlink="http://www.w3.org/1999/xlink" width="1152pt" height="576pt" viewBox="0 0 1152 576" xmlns="http://www.w3.org/2000/svg" version="1.1">
 <metadata>
  <rdf:RDF xmlns:dc="http://purl.org/dc/elements/1.1/" xmlns:cc="http://creativecommons.org/ns#" xmlns:rdf="http://www.w3.org/1999/02/22-rdf-syntax-ns#">
   <cc:Work>
    <dc:type rdf:resource="http://purl.org/dc/dcmitype/StillImage"/>
    <dc:date>1980-01-01T00:00:00+00:00</dc:date>
    <dc:format>image/svg+xml</dc:format>
    <dc:creator>
     <cc:Agent>
      <dc:title>Matplotlib v3.9.1, https://matplotlib.org/</dc:title>
     </cc:Agent>
    </dc:creator>
   </cc:Work>
  </rdf:RDF>
 </metadata>
 <defs>
  <style type="text/css">*{stroke-linejoin: round; stroke-linecap: butt}</style>
 </defs>
 <g id="figure_1">
  <g id="patch_1">
   <path d="M 0 576 
L 1152 576 
L 1152 0 
L 0 0 
z
" style="fill: #ffffff"/>
  </g>
  <g id="axes_1">
   <g id="patch_2">
    <path d="M 144 512.64 
L 1036.8 512.64 
L 1036.8 69.12 
L 144 69.12 
z
" style="fill: #ffffff"/>
   </g>
   <g id="matplotlib.axis_1">
    <g id="xtick_1">
     <g id="line2d_1">
      <defs>
       <path id="m29582c3a76" d="M 0 0 
L 0 3.5 
" style="stroke: #000000; stroke-width: 0.8"/>
      </defs>
      <g>
       <use xlink:href="#m29582c3a76" x="177.231704" y="512.64" style="stroke: #000000; stroke-width: 0.8"/>
      </g>
     </g>
     <g id="text_1">
      <!-- 2014 -->
      <g transform="translate(164.506704 527.238438) scale(0.1 -0.1)">
       <defs>
        <path id="DejaVuSans-32" d="M 1228 531 
L 3431 531 
L 3431 0 
L 469 0 
L 469 531 
Q 828 903 1448 1529 
Q 2069 2156 2228 2338 
Q 2531 2678 2651 2914 
Q 2772 3150 2772 3378 
Q 2772 3750 2511 3984 
Q 2250 4219 1831 4219 
Q 1534 4219 1204 4116 
Q 875 4013 500 3803 
L 500 4441 
Q 881 4594 1212 4672 
Q 1544 4750 1819 4750 
Q 2544 4750 2975 4387 
Q 3406 4025 3406 3419 
Q 3406 3131 3298 2873 
Q 3191 2616 2906 2266 
Q 2828 2175 2409 1742 
Q 1991 1309 1228 531 
z
" transform="scale(0.015625)"/>
        <path id="DejaVuSans-30" d="M 2034 4250 
Q 1547 4250 1301 3770 
Q 1056 3291 1056 2328 
Q 1056 1369 1301 889 
Q 1547 409 2034 409 
Q 2525 409 2770 889 
Q 3016 1369 3016 2328 
Q 3016 3291 2770 3770 
Q 2525 4250 2034 4250 
z
M 2034 4750 
Q 2819 4750 3233 4129 
Q 3647 3509 3647 2328 
Q 3647 1150 3233 529 
Q 2819 -91 2034 -91 
Q 1250 -91 836 529 
Q 422 1150 422 2328 
Q 422 3509 836 4129 
Q 1250 4750 2034 4750 
z
" transform="scale(0.015625)"/>
        <path id="DejaVuSans-31" d="M 794 531 
L 1825 531 
L 1825 4091 
L 703 3866 
L 703 4441 
L 1819 4666 
L 2450 4666 
L 2450 531 
L 3481 531 
L 3481 0 
L 794 0 
L 794 531 
z
" transform="scale(0.015625)"/>
        <path id="DejaVuSans-34" d="M 2419 4116 
L 825 1625 
L 2419 1625 
L 2419 4116 
z
M 2253 4666 
L 3047 4666 
L 3047 1625 
L 3713 1625 
L 3713 1100 
L 3047 1100 
L 3047 0 
L 2419 0 
L 2419 1100 
L 313 1100 
L 313 1709 
L 2253 4666 
z
" transform="scale(0.015625)"/>
       </defs>
       <use xlink:href="#DejaVuSans-32"/>
       <use xlink:href="#DejaVuSans-30" x="63.623047"/>
       <use xlink:href="#DejaVuSans-31" x="127.246094"/>
       <use xlink:href="#DejaVuSans-34" x="190.869141"/>
      </g>
     </g>
    </g>
    <g id="xtick_2">
     <g id="line2d_2">
      <g>
       <use xlink:href="#m29582c3a76" x="311.371289" y="512.64" style="stroke: #000000; stroke-width: 0.8"/>
      </g>
     </g>
     <g id="text_2">
      <!-- 2016 -->
      <g transform="translate(298.646289 527.238438) scale(0.1 -0.1)">
       <defs>
        <path id="DejaVuSans-36" d="M 2113 2584 
Q 1688 2584 1439 2293 
Q 1191 2003 1191 1497 
Q 1191 994 1439 701 
Q 1688 409 2113 409 
Q 2538 409 2786 701 
Q 3034 994 3034 1497 
Q 3034 2003 2786 2293 
Q 2538 2584 2113 2584 
z
M 3366 4563 
L 3366 3988 
Q 3128 4100 2886 4159 
Q 2644 4219 2406 4219 
Q 1781 4219 1451 3797 
Q 1122 3375 1075 2522 
Q 1259 2794 1537 2939 
Q 1816 3084 2150 3084 
Q 2853 3084 3261 2657 
Q 3669 2231 3669 1497 
Q 3669 778 3244 343 
Q 2819 -91 2113 -91 
Q 1303 -91 875 529 
Q 447 1150 447 2328 
Q 447 3434 972 4092 
Q 1497 4750 2381 4750 
Q 2619 4750 2861 4703 
Q 3103 4656 3366 4563 
z
" transform="scale(0.015625)"/>
       </defs>
       <use xlink:href="#DejaVuSans-32"/>
       <use xlink:href="#DejaVuSans-30" x="63.623047"/>
       <use xlink:href="#DejaVuSans-31" x="127.246094"/>
       <use xlink:href="#DejaVuSans-36" x="190.869141"/>
      </g>
     </g>
    </g>
    <g id="xtick_3">
     <g id="line2d_3">
      <g>
       <use xlink:href="#m29582c3a76" x="445.694626" y="512.64" style="stroke: #000000; stroke-width: 0.8"/>
      </g>
     </g>
     <g id="text_3">
      <!-- 2018 -->
      <g transform="translate(432.969626 527.238438) scale(0.1 -0.1)">
       <defs>
        <path id="DejaVuSans-38" d="M 2034 2216 
Q 1584 2216 1326 1975 
Q 1069 1734 1069 1313 
Q 1069 891 1326 650 
Q 1584 409 2034 409 
Q 2484 409 2743 651 
Q 3003 894 3003 1313 
Q 3003 1734 2745 1975 
Q 2488 2216 2034 2216 
z
M 1403 2484 
Q 997 2584 770 2862 
Q 544 3141 544 3541 
Q 544 4100 942 4425 
Q 1341 4750 2034 4750 
Q 2731 4750 3128 4425 
Q 3525 4100 3525 3541 
Q 3525 3141 3298 2862 
Q 3072 2584 2669 2484 
Q 3125 2378 3379 2068 
Q 3634 1759 3634 1313 
Q 3634 634 3220 271 
Q 2806 -91 2034 -91 
Q 1263 -91 848 271 
Q 434 634 434 1313 
Q 434 1759 690 2068 
Q 947 2378 1403 2484 
z
M 1172 3481 
Q 1172 3119 1398 2916 
Q 1625 2713 2034 2713 
Q 2441 2713 2670 2916 
Q 2900 3119 2900 3481 
Q 2900 3844 2670 4047 
Q 2441 4250 2034 4250 
Q 1625 4250 1398 4047 
Q 1172 3844 1172 3481 
z
" transform="scale(0.015625)"/>
       </defs>
       <use xlink:href="#DejaVuSans-32"/>
       <use xlink:href="#DejaVuSans-30" x="63.623047"/>
       <use xlink:href="#DejaVuSans-31" x="127.246094"/>
       <use xlink:href="#DejaVuSans-38" x="190.869141"/>
      </g>
     </g>
    </g>
    <g id="xtick_4">
     <g id="line2d_4">
      <g>
       <use xlink:href="#m29582c3a76" x="579.834211" y="512.64" style="stroke: #000000; stroke-width: 0.8"/>
      </g>
     </g>
     <g id="text_4">
      <!-- 2020 -->
      <g transform="translate(567.109211 527.238438) scale(0.1 -0.1)">
       <use xlink:href="#DejaVuSans-32"/>
       <use xlink:href="#DejaVuSans-30" x="63.623047"/>
       <use xlink:href="#DejaVuSans-32" x="127.246094"/>
       <use xlink:href="#DejaVuSans-30" x="190.869141"/>
      </g>
     </g>
    </g>
    <g id="xtick_5">
     <g id="line2d_5">
      <g>
       <use xlink:href="#m29582c3a76" x="714.157548" y="512.64" style="stroke: #000000; stroke-width: 0.8"/>
      </g>
     </g>
     <g id="text_5">
      <!-- 2022 -->
      <g transform="translate(701.432548 527.238438) scale(0.1 -0.1)">
       <use xlink:href="#DejaVuSans-32"/>
       <use xlink:href="#DejaVuSans-30" x="63.623047"/>
       <use xlink:href="#DejaVuSans-32" x="127.246094"/>
       <use xlink:href="#DejaVuSans-32" x="190.869141"/>
      </g>
     </g>
    </g>
    <g id="xtick_6">
     <g id="line2d_6">
      <g>
       <use xlink:href="#m29582c3a76" x="848.297133" y="512.64" style="stroke: #000000; stroke-width: 0.8"/>
      </g>
     </g>
     <g id="text_6">
      <!-- 2024 -->
      <g transform="translate(835.572133 527.238438) scale(0.1 -0.1)">
       <use xlink:href="#DejaVuSans-32"/>
       <use xlink:href="#DejaVuSans-30" x="63.623047"/>
       <use xlink:href="#DejaVuSans-32" x="127.246094"/>
       <use xlink:href="#DejaVuSans-34" x="190.869141"/>
      </g>
     </g>
    </g>
    <g id="xtick_7">
     <g id="line2d_7">
      <g>
       <use xlink:href="#m29582c3a76" x="982.62047" y="512.64" style="stroke: #000000; stroke-width: 0.8"/>
      </g>
     </g>
     <g id="text_7">
      <!-- 2026 -->
      <g transform="translate(969.89547 527.238438) scale(0.1 -0.1)">
       <use xlink:href="#DejaVuSans-32"/>
       <use xlink:href="#DejaVuSans-30" x="63.623047"/>
       <use xlink:href="#DejaVuSans-32" x="127.246094"/>
       <use xlink:href="#DejaVuSans-36" x="190.869141"/>
      </g>
     </g>
    </g>
   </g>
   <g id="matplotlib.axis_2">
    <g id="ytick_1">
     <g id="line2d_8">
      <defs>
       <path id="mc6399513f0" d="M 0 0 
L -3.5 0 
" style="stroke: #000000; stroke-width: 0.8"/>
      </defs>
      <g>
       <use xlink:href="#mc6399513f0" x="144" y="492.507304" style="stroke: #000000; stroke-width: 0.8"/>
      </g>
     </g>
     <g id="text_8">
      <!-- 0 -->
      <g transform="translate(130.6375 496.306523) scale(0.1 -0.1)">
       <use xlink:href="#DejaVuSans-30"/>
      </g>
     </g>
    </g>
    <g id="ytick_2">
     <g id="line2d_9">
      <g>
       <use xlink:href="#mc6399513f0" x="144" y="437.899056" style="stroke: #000000; stroke-width: 0.8"/>
      </g>
     </g>
     <g id="text_9">
      <!-- 2000 -->
      <g transform="translate(111.55 441.698275) scale(0.1 -0.1)">
       <use xlink:href="#DejaVuSans-32"/>
       <use xlink:href="#DejaVuSans-30" x="63.623047"/>
       <use xlink:href="#DejaVuSans-30" x="127.246094"/>
       <use xlink:href="#DejaVuSans-30" x="190.869141"/>
      </g>
     </g>
    </g>
    <g id="ytick_3">
     <g id="line2d_10">
      <g>
       <use xlink:href="#mc6399513f0" x="144" y="383.290808" style="stroke: #000000; stroke-width: 0.8"/>
      </g>
     </g>
     <g id="text_10">
      <!-- 4000 -->
      <g transform="translate(111.55 387.090027) scale(0.1 -0.1)">
       <use xlink:href="#DejaVuSans-34"/>
       <use xlink:href="#DejaVuSans-30" x="63.623047"/>
       <use xlink:href="#DejaVuSans-30" x="127.246094"/>
       <use xlink:href="#DejaVuSans-30" x="190.869141"/>
      </g>
     </g>
    </g>
    <g id="ytick_4">
     <g id="line2d_11">
      <g>
       <use xlink:href="#mc6399513f0" x="144" y="328.68256" style="stroke: #000000; stroke-width: 0.8"/>
      </g>
     </g>
     <g id="text_11">
      <!-- 6000 -->
      <g transform="translate(111.55 332.481779) scale(0.1 -0.1)">
       <use xlink:href="#DejaVuSans-36"/>
       <use xlink:href="#DejaVuSans-30" x="63.623047"/>
       <use xlink:href="#DejaVuSans-30" x="127.246094"/>
       <use xlink:href="#DejaVuSans-30" x="190.869141"/>
      </g>
     </g>
    </g>
    <g id="ytick_5">
     <g id="line2d_12">
      <g>
       <use xlink:href="#mc6399513f0" x="144" y="274.074312" style="stroke: #000000; stroke-width: 0.8"/>
      </g>
     </g>
     <g id="text_12">
      <!-- 8000 -->
      <g transform="translate(111.55 277.87353) scale(0.1 -0.1)">
       <use xlink:href="#DejaVuSans-38"/>
       <use xlink:href="#DejaVuSans-30" x="63.623047"/>
       <use xlink:href="#DejaVuSans-30" x="127.246094"/>
       <use xlink:href="#DejaVuSans-30" x="190.869141"/>
      </g>
     </g>
    </g>
    <g id="ytick_6">
     <g id="line2d_13">
      <g>
       <use xlink:href="#mc6399513f0" x="144" y="219.466064" style="stroke: #000000; stroke-width: 0.8"/>
      </g>
     </g>
     <g id="text_13">
      <!-- 10000 -->
      <g transform="translate(105.1875 223.265282) scale(0.1 -0.1)">
       <use xlink:href="#DejaVuSans-31"/>
       <use xlink:href="#DejaVuSans-30" x="63.623047"/>
       <use xlink:href="#DejaVuSans-30" x="127.246094"/>
       <use xlink:href="#DejaVuSans-30" x="190.869141"/>
       <use xlink:href="#DejaVuSans-30" x="254.492188"/>
      </g>
     </g>
    </g>
    <g id="ytick_7">
     <g id="line2d_14">
      <g>
       <use xlink:href="#mc6399513f0" x="144" y="164.857815" style="stroke: #000000; stroke-width: 0.8"/>
      </g>
     </g>
     <g id="text_14">
      <!-- 12000 -->
      <g transform="translate(105.1875 168.657034) scale(0.1 -0.1)">
       <use xlink:href="#DejaVuSans-31"/>
       <use xlink:href="#DejaVuSans-32" x="63.623047"/>
       <use xlink:href="#DejaVuSans-30" x="127.246094"/>
       <use xlink:href="#DejaVuSans-30" x="190.869141"/>
       <use xlink:href="#DejaVuSans-30" x="254.492188"/>
      </g>
     </g>
    </g>
    <g id="ytick_8">
     <g id="line2d_15">
      <g>
       <use xlink:href="#mc6399513f0" x="144" y="110.249567" style="stroke: #000000; stroke-width: 0.8"/>
      </g>
     </g>
     <g id="text_15">
      <!-- 14000 -->
      <g transform="translate(105.1875 114.048786) scale(0.1 -0.1)">
       <use xlink:href="#DejaVuSans-31"/>
       <use xlink:href="#DejaVuSans-34" x="63.623047"/>
       <use xlink:href="#DejaVuSans-30" x="127.246094"/>
       <use xlink:href="#DejaVuSans-30" x="190.869141"/>
       <use xlink:href="#DejaVuSans-30" x="254.492188"/>
      </g>
     </g>
    </g>
   </g>
   <g id="line2d_16">
    <path d="M 184.581818 492.48 
L 186.235594 492.425392 
L 285.278383 492.288871 
L 451.574718 492.125046 
L 492.91911 491.961222 
L 585.898055 491.442443 
L 586.265561 491.22401 
L 590.124371 491.08749 
L 637.165102 490.923665 
L 641.207665 490.841753 
L 662.706749 490.650624 
L 690.269677 489.968021 
L 696.701027 489.613067 
L 706.256176 489.421938 
L 710.666244 488.43899 
L 710.849997 488.329773 
L 712.503773 488.247861 
L 713.238784 487.865603 
L 713.422537 487.237608 
L 713.790043 487.073783 
L 713.973795 487.046479 
L 714.157548 486.172747 
L 715.260065 485.79049 
L 715.627571 485.326319 
L 715.995077 485.189799 
L 716.17883 484.862149 
L 716.362583 484.124938 
L 716.730088 483.524247 
L 716.913841 482.732428 
L 717.097594 481.230701 
L 717.648853 480.247752 
L 718.016358 475.360314 
L 718.200111 474.841536 
L 718.567617 471.75617 
L 718.75137 471.237391 
L 718.935123 469.872185 
L 719.118875 469.790273 
L 719.670134 468.097417 
L 719.853887 464.27484 
L 720.03764 463.94719 
L 720.405145 462.88233 
L 720.588898 462.800417 
L 720.772651 462.227031 
L 720.956404 459.605835 
L 721.140157 458.97784 
L 721.32391 458.950536 
L 721.507663 457.039247 
L 721.691415 456.79351 
L 722.058921 456.656989 
L 722.793933 454.909525 
L 723.161438 454.363443 
L 723.712697 452.88902 
L 724.080203 448.793402 
L 724.447708 446.854809 
L 724.998967 446.772896 
L 725.366473 446.581767 
L 726.101484 445.544211 
L 726.46899 445.489602 
L 726.836495 443.332577 
L 727.204001 443.168752 
L 727.387754 442.950319 
L 727.571507 441.96737 
L 727.939012 441.694329 
L 728.122765 441.557809 
L 728.306518 441.093639 
L 728.857777 440.929814 
L 729.225282 440.684077 
L 729.592788 439.673824 
L 729.776541 439.591912 
L 730.144047 439.18235 
L 730.879058 438.882004 
L 731.062811 437.953664 
L 731.430317 437.762535 
L 731.61407 435.987767 
L 731.981575 435.933159 
L 732.349081 435.414381 
L 732.532834 434.895602 
L 733.084092 434.786386 
L 733.267845 434.622561 
L 733.635351 434.103783 
L 733.819104 434.076479 
L 734.18661 433.666917 
L 734.554115 433.5577 
L 734.737868 432.329015 
L 735.840385 432.192494 
L 736.207891 432.001365 
L 736.942902 431.919453 
L 737.126655 431.810236 
L 739.699195 431.182241 
L 740.066701 430.963808 
L 740.985465 430.854592 
L 741.720477 430.526943 
L 743.558005 430.199293 
L 744.293017 428.233396 
L 745.946792 428.042267 
L 747.049309 427.851138 
L 749.070591 427.441576 
L 749.805602 427.250448 
L 750.173108 427.195839 
L 750.540614 426.895494 
L 750.908119 426.813582 
L 751.091872 426.649757 
L 751.826884 426.431324 
L 752.745648 426.376716 
L 752.929401 426.185587 
L 753.296907 426.158283 
L 753.480659 425.748721 
L 753.664412 425.694113 
L 753.848165 425.120726 
L 756.604458 424.629252 
L 756.788211 424.301602 
L 758.074481 424.028561 
L 758.625739 423.864736 
L 759.360751 423.728216 
L 760.095762 423.564391 
L 761.198279 423.345958 
L 762.117044 423.072917 
L 762.852055 422.745267 
L 763.035808 422.199185 
L 763.954572 421.625798 
L 764.138325 421.380061 
L 765.057089 420.752066 
L 765.424595 420.178679 
L 765.608348 420.151375 
L 765.975854 419.577989 
L 766.710865 418.868082 
L 767.262124 418.786169 
L 767.629629 418.540432 
L 767.813382 418.45852 
L 767.997135 418.185478 
L 768.915899 417.99435 
L 769.099652 417.748612 
L 770.937181 417.448267 
L 771.120934 417.311746 
L 772.223451 417.120618 
L 773.142215 416.820272 
L 773.877226 416.683752 
L 774.244732 416.219581 
L 774.612238 416.028453 
L 775.531002 415.509674 
L 775.714755 414.881679 
L 776.633519 414.635942 
L 778.838554 413.62569 
L 779.022306 413.352648 
L 779.573565 413.188824 
L 780.492329 412.83387 
L 780.859835 410.021545 
L 781.043588 409.120509 
L 781.227341 407.482262 
L 781.411094 407.291133 
L 781.962352 405.570973 
L 782.513611 404.724545 
L 782.881116 404.506112 
L 783.064869 404.342288 
L 783.248622 403.523164 
L 783.432375 403.277427 
L 783.799881 403.195514 
L 784.351139 402.540215 
L 784.534892 402.048741 
L 785.086151 401.475355 
L 785.269903 400.738143 
L 786.188668 399.454849 
L 787.107432 399.072592 
L 787.291185 398.362684 
L 787.842443 398.116947 
L 788.577455 397.40704 
L 788.761208 396.888262 
L 789.128713 396.724437 
L 789.496219 396.342179 
L 789.863725 396.314875 
L 790.047478 396.041834 
L 790.414983 395.878009 
L 790.966242 395.441143 
L 791.333748 395.250014 
L 791.517501 394.785844 
L 792.803771 393.939416 
L 792.987523 393.857504 
L 793.355029 392.874555 
L 793.906288 392.683427 
L 794.457546 392.546906 
L 794.825052 392.055432 
L 795.192558 391.809695 
L 795.743816 391.045179 
L 797.030086 390.744834 
L 797.581345 390.007622 
L 798.316356 389.871102 
L 799.235121 389.297715 
L 799.418873 389.270411 
L 799.970132 388.888153 
L 800.337638 388.778937 
L 800.705143 388.751633 
L 800.888896 388.587808 
L 801.072649 388.150942 
L 801.80766 387.959813 
L 801.991413 387.714076 
L 802.175166 387.686772 
L 802.358919 387.195298 
L 803.09393 386.976865 
L 803.461436 386.894952 
L 803.828942 386.649215 
L 805.850223 385.939308 
L 806.033976 385.229401 
L 806.401482 384.983664 
L 806.95274 384.819839 
L 807.503999 384.546798 
L 808.23901 384.437581 
L 808.422763 383.70037 
L 808.974022 383.481937 
L 809.157775 383.318112 
L 809.892786 383.181591 
L 810.076539 383.072375 
L 810.444045 383.045071 
L 810.627798 382.826638 
L 811.362809 382.608205 
L 811.546562 382.307859 
L 811.914068 382.280555 
L 812.465326 382.007514 
L 812.832832 381.843689 
L 813.016585 381.51604 
L 814.302855 381.18839 
L 814.486608 381.024566 
L 815.037866 380.888045 
L 815.221619 380.642308 
L 815.405372 380.615004 
L 815.772878 380.396571 
L 816.140383 380.26005 
L 816.324136 380.150834 
L 817.426653 379.932401 
L 817.610406 379.632055 
L 818.161665 379.495535 
L 818.712923 379.413622 
L 819.080429 379.167885 
L 819.631687 379.031365 
L 819.999193 378.922148 
L 820.182946 378.731019 
L 820.550452 378.676411 
L 820.734205 378.212241 
L 820.917957 378.130328 
L 821.836722 377.038163 
L 822.020475 376.956251 
L 822.204227 376.737818 
L 822.571733 376.573993 
L 823.306745 376.082519 
L 823.67425 375.973303 
L 823.858003 375.672957 
L 824.409262 375.399916 
L 824.776767 375.208787 
L 825.328026 375.072267 
L 825.879285 374.662705 
L 826.24679 374.416968 
L 826.614296 374.143926 
L 827.349307 373.679756 
L 828.81933 373.215586 
L 829.554342 372.696808 
L 830.1056 372.451071 
L 831.759376 371.904988 
L 832.126882 371.686555 
L 832.67814 371.550035 
L 833.229399 371.276993 
L 833.780657 371.140473 
L 834.331916 370.92204 
L 835.434433 370.676303 
L 835.985692 370.485174 
L 836.169445 370.212132 
L 838.558232 369.447617 
L 838.925737 369.283792 
L 839.293243 369.229184 
L 839.660749 368.87423 
L 839.844502 367.754761 
L 840.212007 367.48172 
L 840.579513 367.345199 
L 841.314524 366.607988 
L 841.498277 366.498772 
L 841.865783 365.788864 
L 842.233289 365.597735 
L 842.600794 365.433911 
L 842.9683 365.351998 
L 843.335806 365.133565 
L 843.519559 365.024349 
L 844.438323 364.83322 
L 844.805829 364.505571 
L 845.357087 364.123313 
L 845.724593 364.014096 
L 846.092099 363.686447 
L 847.194616 363.003844 
L 847.562122 362.97654 
L 847.745874 362.730802 
L 848.480886 362.566978 
L 848.664639 362.020895 
L 849.032144 361.747854 
L 849.950909 361.502117 
L 850.134662 361.420205 
L 850.318414 361.037947 
L 850.68592 360.92873 
L 850.869673 360.628385 
L 851.420932 360.273431 
L 851.788437 360.109607 
L 852.155943 360.027694 
L 852.523449 359.836565 
L 852.707202 359.809261 
L 853.074707 359.618132 
L 853.809719 359.263179 
L 854.177224 358.635184 
L 855.647247 358.007189 
L 855.831 357.515715 
L 856.382259 357.35189 
L 856.933517 356.778503 
L 857.11727 356.723895 
L 857.484776 356.478158 
L 857.668529 356.450854 
L 858.036034 356.041292 
L 858.40354 355.850163 
L 859.138551 355.577122 
L 859.322304 355.304081 
L 859.68981 355.249472 
L 859.873563 355.058344 
L 860.057316 355.031039 
L 860.241069 354.484957 
L 860.792327 354.321132 
L 860.97608 354.23922 
L 861.343586 353.91157 
L 861.527339 353.802354 
L 862.078597 353.201663 
L 863.54862 352.409844 
L 864.283631 352.191411 
L 864.651137 351.781849 
L 864.83489 351.72724 
L 865.753654 351.044637 
L 866.304913 350.826204 
L 866.672419 350.66238 
L 866.856171 350.635076 
L 867.039924 350.088993 
L 867.591183 349.761344 
L 867.774936 349.242565 
L 868.142441 349.024132 
L 868.326194 348.805699 
L 868.509947 348.778395 
L 869.244959 348.205008 
L 869.97997 347.931967 
L 870.347476 347.68623 
L 871.449993 347.249364 
L 872.185004 346.457545 
L 872.55251 346.375632 
L 872.920016 346.102591 
L 873.103768 345.911462 
L 873.287521 345.884158 
L 873.471274 345.583813 
L 875.860061 344.437039 
L 876.227567 344.24591 
L 876.778826 344.054782 
L 877.330084 343.918261 
L 878.616354 343.099137 
L 878.98386 342.962617 
L 879.351366 342.8534 
L 879.718871 342.525751 
L 881.188894 341.979668 
L 881.5564 341.870452 
L 881.740153 340.887503 
L 882.291411 340.66907 
L 882.475164 340.423333 
L 882.658917 340.396029 
L 883.393928 339.385776 
L 883.577681 339.303864 
L 883.761434 338.976215 
L 884.12894 338.866998 
L 884.863951 337.993266 
L 885.231457 336.76458 
L 885.41521 336.382323 
L 885.782716 334.471034 
L 885.966468 333.65191 
L 886.885233 332.72357 
L 887.620244 330.293503 
L 887.803997 330.156982 
L 887.98775 329.802029 
L 888.171503 328.518735 
L 888.355256 328.136477 
L 888.539008 328.109173 
L 888.722761 327.508482 
L 889.27402 327.208137 
L 889.825278 326.307101 
L 892.030313 325.160328 
L 892.581571 324.341204 
L 892.949077 324.231988 
L 893.316583 324.095467 
L 893.684088 323.904338 
L 894.051594 323.740513 
L 895.154111 323.467472 
L 896.440381 323.030606 
L 896.99164 322.539132 
L 897.542898 322.266091 
L 897.910404 322.074962 
L 898.094157 321.829225 
L 898.829168 321.583488 
L 899.012921 321.501575 
L 899.196674 320.900884 
L 899.747933 320.545931 
L 900.299191 320.354802 
L 900.482944 320.163673 
L 901.034203 319.972544 
L 902.320473 319.399158 
L 902.871731 318.907683 
L 903.055484 318.525426 
L 903.42299 318.388905 
L 903.974248 317.487869 
L 904.158001 316.969091 
L 904.525507 316.750658 
L 905.076765 316.423008 
L 905.260518 316.177271 
L 905.628024 315.11241 
L 905.811777 314.893977 
L 905.99553 314.320591 
L 906.179283 314.265982 
L 906.363035 313.801812 
L 906.730541 313.637987 
L 907.833058 312.79156 
L 908.016811 312.409302 
L 908.56807 312.218173 
L 909.303081 311.972436 
L 909.85434 311.808611 
L 910.038092 311.235224 
L 910.589351 311.016791 
L 912.243127 310.252276 
L 913.529397 309.35124 
L 913.71315 309.105503 
L 913.896902 308.614029 
L 914.99942 308.204467 
L 915.366925 307.794905 
L 915.734431 307.712992 
L 915.918184 307.385343 
L 916.28569 307.248822 
L 916.469442 306.975781 
L 918.490724 305.965529 
L 919.593241 304.873364 
L 919.776994 304.327281 
L 920.1445 303.863111 
L 920.328252 303.562766 
L 921.063264 300.368183 
L 921.43077 299.712884 
L 921.614522 299.385235 
L 921.798275 297.938116 
L 922.165781 294.088235 
L 922.349534 292.477291 
L 922.533287 292.122338 
L 922.900792 290.238353 
L 923.268298 287.562549 
L 923.635804 283.849188 
L 924.00331 283.385018 
L 924.370815 278.6341 
L 924.554568 277.378111 
L 924.922074 272.163023 
L 925.28958 271.15277 
L 925.473332 268.422358 
L 925.657085 267.930884 
L 926.024591 264.954734 
L 926.392097 256.954626 
L 926.57585 256.545064 
L 926.759602 255.780549 
L 926.943355 253.323177 
L 927.127108 253.132048 
L 927.494614 249.009126 
L 927.862119 248.817997 
L 928.229625 248.053481 
L 928.413378 247.889657 
L 928.597131 247.507399 
L 928.780884 246.742883 
L 929.148389 246.579059 
L 929.699648 245.13194 
L 930.067154 243.056827 
L 930.250907 242.674569 
L 930.434659 242.619961 
L 930.618412 242.428832 
L 930.985918 241.910053 
L 931.169671 241.063626 
L 931.353424 240.872497 
L 931.537177 240.517543 
L 931.720929 240.462935 
L 932.088435 239.971461 
L 932.455941 239.83494 
L 932.639694 239.425378 
L 933.558458 238.606254 
L 934.109717 238.169389 
L 934.293469 238.142084 
L 934.844728 237.65061 
L 935.579739 237.241048 
L 936.314751 237.104528 
L 936.498504 236.940703 
L 936.866009 236.886095 
L 937.417268 236.531141 
L 938.887291 235.903146 
L 939.071044 235.520888 
L 939.989808 235.302455 
L 940.724819 234.783677 
L 941.459831 234.101074 
L 941.643584 233.937249 
L 942.378595 233.718816 
L 943.664865 232.899693 
L 944.032371 232.708564 
L 944.216124 232.217089 
L 945.502394 231.370662 
L 946.053652 231.015708 
L 947.891181 230.278497 
L 948.258686 229.486677 
L 948.442439 229.404765 
L 948.809945 228.967899 
L 949.544956 228.339904 
L 949.728709 228.257991 
L 950.279968 227.602692 
L 950.463721 227.05661 
L 950.647474 226.920089 
L 951.014979 226.865481 
L 951.382485 226.59244 
L 952.117496 226.26479 
L 952.852508 225.937141 
L 953.220014 225.500275 
L 953.403766 225.472971 
L 953.587519 222.305692 
L 953.955025 221.868826 
L 954.322531 221.568481 
L 954.506284 221.240832 
L 954.690036 221.213527 
L 955.057542 220.858574 
L 955.241295 220.339795 
L 956.343812 219.302239 
L 956.527565 219.029198 
L 956.895071 217.500167 
L 957.078824 217.008692 
L 957.262576 216.189569 
L 957.446329 215.943832 
L 957.630082 214.906275 
L 957.997588 214.059847 
L 958.181341 213.404548 
L 958.916352 212.640033 
L 959.467611 212.012038 
L 959.835116 211.820909 
L 960.202622 211.684388 
L 961.121386 210.756048 
L 961.305139 210.37379 
L 961.488892 210.319182 
L 961.856398 209.964228 
L 962.040151 209.800404 
L 962.407656 209.145105 
L 962.775162 208.762847 
L 962.958915 207.861811 
L 964.245185 207.042687 
L 965.347702 205.704785 
L 965.531455 205.513656 
L 965.898961 204.639924 
L 966.082713 204.476099 
L 966.633972 203.329326 
L 966.817725 203.247414 
L 967.001478 202.75594 
L 967.185231 202.592115 
L 967.736489 201.117692 
L 968.287748 200.325873 
L 968.839006 200.025527 
L 969.206512 199.397532 
L 969.941523 198.714929 
L 970.309029 197.650068 
L 971.044041 195.602259 
L 971.227793 194.182445 
L 971.411546 193.964012 
L 971.595299 192.76263 
L 971.962805 192.271156 
L 972.146558 191.83429 
L 972.514063 189.759177 
L 972.881569 188.994661 
L 973.065322 188.830836 
L 973.249075 181.950197 
L 973.432828 179.329001 
L 973.616581 163.683738 
L 974.167839 162.618877 
L 974.351592 162.455052 
L 974.719098 161.171759 
L 975.086603 160.298027 
L 976.189121 153.745037 
L 976.740379 152.434439 
L 976.924132 150.932712 
L 977.291638 150.359326 
L 977.659143 149.076032 
L 977.842896 147.492392 
L 978.026649 147.110135 
L 978.394155 146.045274 
L 978.945413 145.198846 
L 979.129166 145.116934 
L 980.047931 141.813135 
L 980.599189 140.366016 
L 980.966695 138.454727 
L 981.150448 138.400119 
L 981.334201 138.20899 
L 981.517953 138.181686 
L 981.885459 137.799428 
L 982.069212 137.116825 
L 982.804223 136.051965 
L 983.171729 134.987104 
L 983.355482 134.850583 
L 983.722988 133.976851 
L 984.090493 132.365908 
L 984.274246 132.120171 
L 984.457999 132.065562 
L 984.825505 130.318098 
L 985.009258 129.963145 
L 985.560516 127.806119 
L 985.744269 127.505774 
L 987.030539 122.78216 
L 987.214292 122.672944 
L 987.949303 118.713846 
L 988.133056 118.604629 
L 988.316809 118.304284 
L 989.786832 113.962928 
L 990.154338 112.488505 
L 990.705596 111.369036 
L 991.256855 108.802449 
L 992.175619 105.880907 
L 992.726878 103.31432 
L 993.094383 101.102686 
L 993.461889 100.228954 
L 994.1969 97.662366 
L 994.564406 96.542897 
L 994.748159 96.187943 
L 994.931912 94.358567 
L 995.115665 93.839789 
L 995.666923 90.754423 
L 996.218182 89.28 
L 996.218182 89.28 
" clip-path="url(#p0f9b954889)" style="fill: none; stroke: #1f77b4; stroke-width: 1.5; stroke-linecap: square"/>
   </g>
   <g id="patch_3">
    <path d="M 144 512.64 
L 144 69.12 
" style="fill: none; stroke: #000000; stroke-width: 0.8; stroke-linejoin: miter; stroke-linecap: square"/>
   </g>
   <g id="patch_4">
    <path d="M 1036.8 512.64 
L 1036.8 69.12 
" style="fill: none; stroke: #000000; stroke-width: 0.8; stroke-linejoin: miter; stroke-linecap: square"/>
   </g>
   <g id="patch_5">
    <path d="M 144 512.64 
L 1036.8 512.64 
" style="fill: none; stroke: #000000; stroke-width: 0.8; stroke-linejoin: miter; stroke-linecap: square"/>
   </g>
   <g id="patch_6">
    <path d="M 144 69.12 
L 1036.8 69.12 
" style="fill: none; stroke: #000000; stroke-width: 0.8; stroke-linejoin: miter; stroke-linecap: square"/>
   </g>
   <g id="text_16">
    <!-- Number of AEDs in the OpenStreetMap database in Poland from first edition, day by day. As at: 2026-03-17 -->
    <g transform="translate(144 63.12) scale(0.14 -0.14)">
     <defs>
      <path id="DejaVuSans-4e" d="M 628 4666 
L 1478 4666 
L 3547 763 
L 3547 4666 
L 4159 4666 
L 4159 0 
L 3309 0 
L 1241 3903 
L 1241 0 
L 628 0 
L 628 4666 
z
" transform="scale(0.015625)"/>
      <path id="DejaVuSans-75" d="M 544 1381 
L 544 3500 
L 1119 3500 
L 1119 1403 
Q 1119 906 1312 657 
Q 1506 409 1894 409 
Q 2359 409 2629 706 
Q 2900 1003 2900 1516 
L 2900 3500 
L 3475 3500 
L 3475 0 
L 2900 0 
L 2900 538 
Q 2691 219 2414 64 
Q 2138 -91 1772 -91 
Q 1169 -91 856 284 
Q 544 659 544 1381 
z
M 1991 3584 
L 1991 3584 
z
" transform="scale(0.015625)"/>
      <path id="DejaVuSans-6d" d="M 3328 2828 
Q 3544 3216 3844 3400 
Q 4144 3584 4550 3584 
Q 5097 3584 5394 3201 
Q 5691 2819 5691 2113 
L 5691 0 
L 5113 0 
L 5113 2094 
Q 5113 2597 4934 2840 
Q 4756 3084 4391 3084 
Q 3944 3084 3684 2787 
Q 3425 2491 3425 1978 
L 3425 0 
L 2847 0 
L 2847 2094 
Q 2847 2600 2669 2842 
Q 2491 3084 2119 3084 
Q 1678 3084 1418 2786 
Q 1159 2488 1159 1978 
L 1159 0 
L 581 0 
L 581 3500 
L 1159 3500 
L 1159 2956 
Q 1356 3278 1631 3431 
Q 1906 3584 2284 3584 
Q 2666 3584 2933 3390 
Q 3200 3197 3328 2828 
z
" transform="scale(0.015625)"/>
      <path id="DejaVuSans-62" d="M 3116 1747 
Q 3116 2381 2855 2742 
Q 2594 3103 2138 3103 
Q 1681 3103 1420 2742 
Q 1159 2381 1159 1747 
Q 1159 1113 1420 752 
Q 1681 391 2138 391 
Q 2594 391 2855 752 
Q 3116 1113 3116 1747 
z
M 1159 2969 
Q 1341 3281 1617 3432 
Q 1894 3584 2278 3584 
Q 2916 3584 3314 3078 
Q 3713 2572 3713 1747 
Q 3713 922 3314 415 
Q 2916 -91 2278 -91 
Q 1894 -91 1617 61 
Q 1341 213 1159 525 
L 1159 0 
L 581 0 
L 581 4863 
L 1159 4863 
L 1159 2969 
z
" transform="scale(0.015625)"/>
      <path id="DejaVuSans-65" d="M 3597 1894 
L 3597 1613 
L 953 1613 
Q 991 1019 1311 708 
Q 1631 397 2203 397 
Q 2534 397 2845 478 
Q 3156 559 3463 722 
L 3463 178 
Q 3153 47 2828 -22 
Q 2503 -91 2169 -91 
Q 1331 -91 842 396 
Q 353 884 353 1716 
Q 353 2575 817 3079 
Q 1281 3584 2069 3584 
Q 2775 3584 3186 3129 
Q 3597 2675 3597 1894 
z
M 3022 2063 
Q 3016 2534 2758 2815 
Q 2500 3097 2075 3097 
Q 1594 3097 1305 2825 
Q 1016 2553 972 2059 
L 3022 2063 
z
" transform="scale(0.015625)"/>
      <path id="DejaVuSans-72" d="M 2631 2963 
Q 2534 3019 2420 3045 
Q 2306 3072 2169 3072 
Q 1681 3072 1420 2755 
Q 1159 2438 1159 1844 
L 1159 0 
L 581 0 
L 581 3500 
L 1159 3500 
L 1159 2956 
Q 1341 3275 1631 3429 
Q 1922 3584 2338 3584 
Q 2397 3584 2469 3576 
Q 2541 3569 2628 3553 
L 2631 2963 
z
" transform="scale(0.015625)"/>
      <path id="DejaVuSans-20" transform="scale(0.015625)"/>
      <path id="DejaVuSans-6f" d="M 1959 3097 
Q 1497 3097 1228 2736 
Q 959 2375 959 1747 
Q 959 1119 1226 758 
Q 1494 397 1959 397 
Q 2419 397 2687 759 
Q 2956 1122 2956 1747 
Q 2956 2369 2687 2733 
Q 2419 3097 1959 3097 
z
M 1959 3584 
Q 2709 3584 3137 3096 
Q 3566 2609 3566 1747 
Q 3566 888 3137 398 
Q 2709 -91 1959 -91 
Q 1206 -91 779 398 
Q 353 888 353 1747 
Q 353 2609 779 3096 
Q 1206 3584 1959 3584 
z
" transform="scale(0.015625)"/>
      <path id="DejaVuSans-66" d="M 2375 4863 
L 2375 4384 
L 1825 4384 
Q 1516 4384 1395 4259 
Q 1275 4134 1275 3809 
L 1275 3500 
L 2222 3500 
L 2222 3053 
L 1275 3053 
L 1275 0 
L 697 0 
L 697 3053 
L 147 3053 
L 147 3500 
L 697 3500 
L 697 3744 
Q 697 4328 969 4595 
Q 1241 4863 1831 4863 
L 2375 4863 
z
" transform="scale(0.015625)"/>
      <path id="DejaVuSans-41" d="M 2188 4044 
L 1331 1722 
L 3047 1722 
L 2188 4044 
z
M 1831 4666 
L 2547 4666 
L 4325 0 
L 3669 0 
L 3244 1197 
L 1141 1197 
L 716 0 
L 50 0 
L 1831 4666 
z
" transform="scale(0.015625)"/>
      <path id="DejaVuSans-45" d="M 628 4666 
L 3578 4666 
L 3578 4134 
L 1259 4134 
L 1259 2753 
L 3481 2753 
L 3481 2222 
L 1259 2222 
L 1259 531 
L 3634 531 
L 3634 0 
L 628 0 
L 628 4666 
z
" transform="scale(0.015625)"/>
      <path id="DejaVuSans-44" d="M 1259 4147 
L 1259 519 
L 2022 519 
Q 2988 519 3436 956 
Q 3884 1394 3884 2338 
Q 3884 3275 3436 3711 
Q 2988 4147 2022 4147 
L 1259 4147 
z
M 628 4666 
L 1925 4666 
Q 3281 4666 3915 4102 
Q 4550 3538 4550 2338 
Q 4550 1131 3912 565 
Q 3275 0 1925 0 
L 628 0 
L 628 4666 
z
" transform="scale(0.015625)"/>
      <path id="DejaVuSans-73" d="M 2834 3397 
L 2834 2853 
Q 2591 2978 2328 3040 
Q 2066 3103 1784 3103 
Q 1356 3103 1142 2972 
Q 928 2841 928 2578 
Q 928 2378 1081 2264 
Q 1234 2150 1697 2047 
L 1894 2003 
Q 2506 1872 2764 1633 
Q 3022 1394 3022 966 
Q 3022 478 2636 193 
Q 2250 -91 1575 -91 
Q 1294 -91 989 -36 
Q 684 19 347 128 
L 347 722 
Q 666 556 975 473 
Q 1284 391 1588 391 
Q 1994 391 2212 530 
Q 2431 669 2431 922 
Q 2431 1156 2273 1281 
Q 2116 1406 1581 1522 
L 1381 1569 
Q 847 1681 609 1914 
Q 372 2147 372 2553 
Q 372 3047 722 3315 
Q 1072 3584 1716 3584 
Q 2034 3584 2315 3537 
Q 2597 3491 2834 3397 
z
" transform="scale(0.015625)"/>
      <path id="DejaVuSans-69" d="M 603 3500 
L 1178 3500 
L 1178 0 
L 603 0 
L 603 3500 
z
M 603 4863 
L 1178 4863 
L 1178 4134 
L 603 4134 
L 603 4863 
z
" transform="scale(0.015625)"/>
      <path id="DejaVuSans-6e" d="M 3513 2113 
L 3513 0 
L 2938 0 
L 2938 2094 
Q 2938 2591 2744 2837 
Q 2550 3084 2163 3084 
Q 1697 3084 1428 2787 
Q 1159 2491 1159 1978 
L 1159 0 
L 581 0 
L 581 3500 
L 1159 3500 
L 1159 2956 
Q 1366 3272 1645 3428 
Q 1925 3584 2291 3584 
Q 2894 3584 3203 3211 
Q 3513 2838 3513 2113 
z
" transform="scale(0.015625)"/>
      <path id="DejaVuSans-74" d="M 1172 4494 
L 1172 3500 
L 2356 3500 
L 2356 3053 
L 1172 3053 
L 1172 1153 
Q 1172 725 1289 603 
Q 1406 481 1766 481 
L 2356 481 
L 2356 0 
L 1766 0 
Q 1100 0 847 248 
Q 594 497 594 1153 
L 594 3053 
L 172 3053 
L 172 3500 
L 594 3500 
L 594 4494 
L 1172 4494 
z
" transform="scale(0.015625)"/>
      <path id="DejaVuSans-68" d="M 3513 2113 
L 3513 0 
L 2938 0 
L 2938 2094 
Q 2938 2591 2744 2837 
Q 2550 3084 2163 3084 
Q 1697 3084 1428 2787 
Q 1159 2491 1159 1978 
L 1159 0 
L 581 0 
L 581 4863 
L 1159 4863 
L 1159 2956 
Q 1366 3272 1645 3428 
Q 1925 3584 2291 3584 
Q 2894 3584 3203 3211 
Q 3513 2838 3513 2113 
z
" transform="scale(0.015625)"/>
      <path id="DejaVuSans-4f" d="M 2522 4238 
Q 1834 4238 1429 3725 
Q 1025 3213 1025 2328 
Q 1025 1447 1429 934 
Q 1834 422 2522 422 
Q 3209 422 3611 934 
Q 4013 1447 4013 2328 
Q 4013 3213 3611 3725 
Q 3209 4238 2522 4238 
z
M 2522 4750 
Q 3503 4750 4090 4092 
Q 4678 3434 4678 2328 
Q 4678 1225 4090 567 
Q 3503 -91 2522 -91 
Q 1538 -91 948 565 
Q 359 1222 359 2328 
Q 359 3434 948 4092 
Q 1538 4750 2522 4750 
z
" transform="scale(0.015625)"/>
      <path id="DejaVuSans-70" d="M 1159 525 
L 1159 -1331 
L 581 -1331 
L 581 3500 
L 1159 3500 
L 1159 2969 
Q 1341 3281 1617 3432 
Q 1894 3584 2278 3584 
Q 2916 3584 3314 3078 
Q 3713 2572 3713 1747 
Q 3713 922 3314 415 
Q 2916 -91 2278 -91 
Q 1894 -91 1617 61 
Q 1341 213 1159 525 
z
M 3116 1747 
Q 3116 2381 2855 2742 
Q 2594 3103 2138 3103 
Q 1681 3103 1420 2742 
Q 1159 2381 1159 1747 
Q 1159 1113 1420 752 
Q 1681 391 2138 391 
Q 2594 391 2855 752 
Q 3116 1113 3116 1747 
z
" transform="scale(0.015625)"/>
      <path id="DejaVuSans-53" d="M 3425 4513 
L 3425 3897 
Q 3066 4069 2747 4153 
Q 2428 4238 2131 4238 
Q 1616 4238 1336 4038 
Q 1056 3838 1056 3469 
Q 1056 3159 1242 3001 
Q 1428 2844 1947 2747 
L 2328 2669 
Q 3034 2534 3370 2195 
Q 3706 1856 3706 1288 
Q 3706 609 3251 259 
Q 2797 -91 1919 -91 
Q 1588 -91 1214 -16 
Q 841 59 441 206 
L 441 856 
Q 825 641 1194 531 
Q 1563 422 1919 422 
Q 2459 422 2753 634 
Q 3047 847 3047 1241 
Q 3047 1584 2836 1778 
Q 2625 1972 2144 2069 
L 1759 2144 
Q 1053 2284 737 2584 
Q 422 2884 422 3419 
Q 422 4038 858 4394 
Q 1294 4750 2059 4750 
Q 2388 4750 2728 4690 
Q 3069 4631 3425 4513 
z
" transform="scale(0.015625)"/>
      <path id="DejaVuSans-4d" d="M 628 4666 
L 1569 4666 
L 2759 1491 
L 3956 4666 
L 4897 4666 
L 4897 0 
L 4281 0 
L 4281 4097 
L 3078 897 
L 2444 897 
L 1241 4097 
L 1241 0 
L 628 0 
L 628 4666 
z
" transform="scale(0.015625)"/>
      <path id="DejaVuSans-61" d="M 2194 1759 
Q 1497 1759 1228 1600 
Q 959 1441 959 1056 
Q 959 750 1161 570 
Q 1363 391 1709 391 
Q 2188 391 2477 730 
Q 2766 1069 2766 1631 
L 2766 1759 
L 2194 1759 
z
M 3341 1997 
L 3341 0 
L 2766 0 
L 2766 531 
Q 2569 213 2275 61 
Q 1981 -91 1556 -91 
Q 1019 -91 701 211 
Q 384 513 384 1019 
Q 384 1609 779 1909 
Q 1175 2209 1959 2209 
L 2766 2209 
L 2766 2266 
Q 2766 2663 2505 2880 
Q 2244 3097 1772 3097 
Q 1472 3097 1187 3025 
Q 903 2953 641 2809 
L 641 3341 
Q 956 3463 1253 3523 
Q 1550 3584 1831 3584 
Q 2591 3584 2966 3190 
Q 3341 2797 3341 1997 
z
" transform="scale(0.015625)"/>
      <path id="DejaVuSans-64" d="M 2906 2969 
L 2906 4863 
L 3481 4863 
L 3481 0 
L 2906 0 
L 2906 525 
Q 2725 213 2448 61 
Q 2172 -91 1784 -91 
Q 1150 -91 751 415 
Q 353 922 353 1747 
Q 353 2572 751 3078 
Q 1150 3584 1784 3584 
Q 2172 3584 2448 3432 
Q 2725 3281 2906 2969 
z
M 947 1747 
Q 947 1113 1208 752 
Q 1469 391 1925 391 
Q 2381 391 2643 752 
Q 2906 1113 2906 1747 
Q 2906 2381 2643 2742 
Q 2381 3103 1925 3103 
Q 1469 3103 1208 2742 
Q 947 2381 947 1747 
z
" transform="scale(0.015625)"/>
      <path id="DejaVuSans-50" d="M 1259 4147 
L 1259 2394 
L 2053 2394 
Q 2494 2394 2734 2622 
Q 2975 2850 2975 3272 
Q 2975 3691 2734 3919 
Q 2494 4147 2053 4147 
L 1259 4147 
z
M 628 4666 
L 2053 4666 
Q 2838 4666 3239 4311 
Q 3641 3956 3641 3272 
Q 3641 2581 3239 2228 
Q 2838 1875 2053 1875 
L 1259 1875 
L 1259 0 
L 628 0 
L 628 4666 
z
" transform="scale(0.015625)"/>
      <path id="DejaVuSans-6c" d="M 603 4863 
L 1178 4863 
L 1178 0 
L 603 0 
L 603 4863 
z
" transform="scale(0.015625)"/>
      <path id="DejaVuSans-2c" d="M 750 794 
L 1409 794 
L 1409 256 
L 897 -744 
L 494 -744 
L 750 256 
L 750 794 
z
" transform="scale(0.015625)"/>
      <path id="DejaVuSans-79" d="M 2059 -325 
Q 1816 -950 1584 -1140 
Q 1353 -1331 966 -1331 
L 506 -1331 
L 506 -850 
L 844 -850 
Q 1081 -850 1212 -737 
Q 1344 -625 1503 -206 
L 1606 56 
L 191 3500 
L 800 3500 
L 1894 763 
L 2988 3500 
L 3597 3500 
L 2059 -325 
z
" transform="scale(0.015625)"/>
      <path id="DejaVuSans-2e" d="M 684 794 
L 1344 794 
L 1344 0 
L 684 0 
L 684 794 
z
" transform="scale(0.015625)"/>
      <path id="DejaVuSans-3a" d="M 750 794 
L 1409 794 
L 1409 0 
L 750 0 
L 750 794 
z
M 750 3309 
L 1409 3309 
L 1409 2516 
L 750 2516 
L 750 3309 
z
" transform="scale(0.015625)"/>
      <path id="DejaVuSans-2d" d="M 313 2009 
L 1997 2009 
L 1997 1497 
L 313 1497 
L 313 2009 
z
" transform="scale(0.015625)"/>
      <path id="DejaVuSans-33" d="M 2597 2516 
Q 3050 2419 3304 2112 
Q 3559 1806 3559 1356 
Q 3559 666 3084 287 
Q 2609 -91 1734 -91 
Q 1441 -91 1130 -33 
Q 819 25 488 141 
L 488 750 
Q 750 597 1062 519 
Q 1375 441 1716 441 
Q 2309 441 2620 675 
Q 2931 909 2931 1356 
Q 2931 1769 2642 2001 
Q 2353 2234 1838 2234 
L 1294 2234 
L 1294 2753 
L 1863 2753 
Q 2328 2753 2575 2939 
Q 2822 3125 2822 3475 
Q 2822 3834 2567 4026 
Q 2313 4219 1838 4219 
Q 1578 4219 1281 4162 
Q 984 4106 628 3988 
L 628 4550 
Q 988 4650 1302 4700 
Q 1616 4750 1894 4750 
Q 2613 4750 3031 4423 
Q 3450 4097 3450 3541 
Q 3450 3153 3228 2886 
Q 3006 2619 2597 2516 
z
" transform="scale(0.015625)"/>
      <path id="DejaVuSans-37" d="M 525 4666 
L 3525 4666 
L 3525 4397 
L 1831 0 
L 1172 0 
L 2766 4134 
L 525 4134 
L 525 4666 
z
" transform="scale(0.015625)"/>
     </defs>
     <use xlink:href="#DejaVuSans-4e"/>
     <use xlink:href="#DejaVuSans-75" x="74.804688"/>
     <use xlink:href="#DejaVuSans-6d" x="138.183594"/>
     <use xlink:href="#DejaVuSans-62" x="235.595703"/>
     <use xlink:href="#DejaVuSans-65" x="299.072266"/>
     <use xlink:href="#DejaVuSans-72" x="360.595703"/>
     <use xlink:href="#DejaVuSans-20" x="401.708984"/>
     <use xlink:href="#DejaVuSans-6f" x="433.496094"/>
     <use xlink:href="#DejaVuSans-66" x="494.677734"/>
     <use xlink:href="#DejaVuSans-20" x="529.882812"/>
     <use xlink:href="#DejaVuSans-41" x="561.669922"/>
     <use xlink:href="#DejaVuSans-45" x="630.078125"/>
     <use xlink:href="#DejaVuSans-44" x="693.261719"/>
     <use xlink:href="#DejaVuSans-73" x="770.263672"/>
     <use xlink:href="#DejaVuSans-20" x="822.363281"/>
     <use xlink:href="#DejaVuSans-69" x="854.150391"/>
     <use xlink:href="#DejaVuSans-6e" x="881.933594"/>
     <use xlink:href="#DejaVuSans-20" x="945.3125"/>
     <use xlink:href="#DejaVuSans-74" x="977.099609"/>
     <use xlink:href="#DejaVuSans-68" x="1016.308594"/>
     <use xlink:href="#DejaVuSans-65" x="1079.6875"/>
     <use xlink:href="#DejaVuSans-20" x="1141.210938"/>
     <use xlink:href="#DejaVuSans-4f" x="1172.998047"/>
     <use xlink:href="#DejaVuSans-70" x="1251.708984"/>
     <use xlink:href="#DejaVuSans-65" x="1315.185547"/>
     <use xlink:href="#DejaVuSans-6e" x="1376.708984"/>
     <use xlink:href="#DejaVuSans-53" x="1440.087891"/>
     <use xlink:href="#DejaVuSans-74" x="1503.564453"/>
     <use xlink:href="#DejaVuSans-72" x="1542.773438"/>
     <use xlink:href="#DejaVuSans-65" x="1581.636719"/>
     <use xlink:href="#DejaVuSans-65" x="1643.160156"/>
     <use xlink:href="#DejaVuSans-74" x="1704.683594"/>
     <use xlink:href="#DejaVuSans-4d" x="1743.892578"/>
     <use xlink:href="#DejaVuSans-61" x="1830.171875"/>
     <use xlink:href="#DejaVuSans-70" x="1891.451172"/>
     <use xlink:href="#DejaVuSans-20" x="1954.927734"/>
     <use xlink:href="#DejaVuSans-64" x="1986.714844"/>
     <use xlink:href="#DejaVuSans-61" x="2050.191406"/>
     <use xlink:href="#DejaVuSans-74" x="2111.470703"/>
     <use xlink:href="#DejaVuSans-61" x="2150.679688"/>
     <use xlink:href="#DejaVuSans-62" x="2211.958984"/>
     <use xlink:href="#DejaVuSans-61" x="2275.435547"/>
     <use xlink:href="#DejaVuSans-73" x="2336.714844"/>
     <use xlink:href="#DejaVuSans-65" x="2388.814453"/>
     <use xlink:href="#DejaVuSans-20" x="2450.337891"/>
     <use xlink:href="#DejaVuSans-69" x="2482.125"/>
     <use xlink:href="#DejaVuSans-6e" x="2509.908203"/>
     <use xlink:href="#DejaVuSans-20" x="2573.287109"/>
     <use xlink:href="#DejaVuSans-50" x="2605.074219"/>
     <use xlink:href="#DejaVuSans-6f" x="2661.751953"/>
     <use xlink:href="#DejaVuSans-6c" x="2722.933594"/>
     <use xlink:href="#DejaVuSans-61" x="2750.716797"/>
     <use xlink:href="#DejaVuSans-6e" x="2811.996094"/>
     <use xlink:href="#DejaVuSans-64" x="2875.375"/>
     <use xlink:href="#DejaVuSans-20" x="2938.851562"/>
     <use xlink:href="#DejaVuSans-66" x="2970.638672"/>
     <use xlink:href="#DejaVuSans-72" x="3005.84375"/>
     <use xlink:href="#DejaVuSans-6f" x="3044.707031"/>
     <use xlink:href="#DejaVuSans-6d" x="3105.888672"/>
     <use xlink:href="#DejaVuSans-20" x="3203.300781"/>
     <use xlink:href="#DejaVuSans-66" x="3235.087891"/>
     <use xlink:href="#DejaVuSans-69" x="3270.292969"/>
     <use xlink:href="#DejaVuSans-72" x="3298.076172"/>
     <use xlink:href="#DejaVuSans-73" x="3339.189453"/>
     <use xlink:href="#DejaVuSans-74" x="3391.289062"/>
     <use xlink:href="#DejaVuSans-20" x="3430.498047"/>
     <use xlink:href="#DejaVuSans-65" x="3462.285156"/>
     <use xlink:href="#DejaVuSans-64" x="3523.808594"/>
     <use xlink:href="#DejaVuSans-69" x="3587.285156"/>
     <use xlink:href="#DejaVuSans-74" x="3615.068359"/>
     <use xlink:href="#DejaVuSans-69" x="3654.277344"/>
     <use xlink:href="#DejaVuSans-6f" x="3682.060547"/>
     <use xlink:href="#DejaVuSans-6e" x="3743.242188"/>
     <use xlink:href="#DejaVuSans-2c" x="3806.621094"/>
     <use xlink:href="#DejaVuSans-20" x="3838.408203"/>
     <use xlink:href="#DejaVuSans-64" x="3870.195312"/>
     <use xlink:href="#DejaVuSans-61" x="3933.671875"/>
     <use xlink:href="#DejaVuSans-79" x="3994.951172"/>
     <use xlink:href="#DejaVuSans-20" x="4054.130859"/>
     <use xlink:href="#DejaVuSans-62" x="4085.917969"/>
     <use xlink:href="#DejaVuSans-79" x="4149.394531"/>
     <use xlink:href="#DejaVuSans-20" x="4208.574219"/>
     <use xlink:href="#DejaVuSans-64" x="4240.361328"/>
     <use xlink:href="#DejaVuSans-61" x="4303.837891"/>
     <use xlink:href="#DejaVuSans-79" x="4365.117188"/>
     <use xlink:href="#DejaVuSans-2e" x="4410.046875"/>
     <use xlink:href="#DejaVuSans-20" x="4441.833984"/>
     <use xlink:href="#DejaVuSans-41" x="4473.621094"/>
     <use xlink:href="#DejaVuSans-73" x="4542.029297"/>
     <use xlink:href="#DejaVuSans-20" x="4594.128906"/>
     <use xlink:href="#DejaVuSans-61" x="4625.916016"/>
     <use xlink:href="#DejaVuSans-74" x="4687.195312"/>
     <use xlink:href="#DejaVuSans-3a" x="4726.404297"/>
     <use xlink:href="#DejaVuSans-20" x="4760.095703"/>
     <use xlink:href="#DejaVuSans-32" x="4791.882812"/>
     <use xlink:href="#DejaVuSans-30" x="4855.505859"/>
     <use xlink:href="#DejaVuSans-32" x="4919.128906"/>
     <use xlink:href="#DejaVuSans-36" x="4982.751953"/>
     <use xlink:href="#DejaVuSans-2d" x="5046.375"/>
     <use xlink:href="#DejaVuSans-30" x="5082.458984"/>
     <use xlink:href="#DejaVuSans-33" x="5146.082031"/>
     <use xlink:href="#DejaVuSans-2d" x="5209.705078"/>
     <use xlink:href="#DejaVuSans-31" x="5245.789062"/>
     <use xlink:href="#DejaVuSans-37" x="5309.412109"/>
    </g>
   </g>
  </g>
 </g>
 <defs>
  <clipPath id="p0f9b954889">
   <rect x="144" y="69.12" width="892.8" height="443.52"/>
  </clipPath>
 </defs>
</svg>
