<?xml version="1.0" encoding="utf-8" standalone="no"?>
<!DOCTYPE svg PUBLIC "-//W3C//DTD SVG 1.1//EN"
  "http://www.w3.org/Graphics/SVG/1.1/DTD/svg11.dtd">
<svg xmlns:xlink="http://www.w3.org/1999/xlink" width="1152pt" height="576pt" viewBox="0 0 1152 576" xmlns="http://www.w3.org/2000/svg" version="1.1">
 <metadata>
  <rdf:RDF xmlns:dc="http://purl.org/dc/elements/1.1/" xmlns:cc="http://creativecommons.org/ns#" xmlns:rdf="http://www.w3.org/1999/02/22-rdf-syntax-ns#">
   <cc:Work>
    <dc:type rdf:resource="http://purl.org/dc/dcmitype/StillImage"/>
    <dc:date>1980-01-01T00:00:00+00:00</dc:date>
    <dc:format>image/svg+xml</dc:format>
    <dc:creator>
     <cc:Agent>
      <dc:title>Matplotlib v3.9.1, https://matplotlib.org/</dc:title>
     </cc:Agent>
    </dc:creator>
   </cc:Work>
  </rdf:RDF>
 </metadata>
 <defs>
  <style type="text/css">*{stroke-linejoin: round; stroke-linecap: butt}</style>
 </defs>
 <g id="figure_1">
  <g id="patch_1">
   <path d="M 0 576 
L 1152 576 
L 1152 0 
L 0 0 
z
" style="fill: #ffffff"/>
  </g>
  <g id="axes_1">
   <g id="patch_2">
    <path d="M 144 512.64 
L 1036.8 512.64 
L 1036.8 69.12 
L 144 69.12 
z
" style="fill: #ffffff"/>
   </g>
   <g id="matplotlib.axis_1">
    <g id="xtick_1">
     <g id="line2d_1">
      <defs>
       <path id="mcf49193b63" d="M 0 0 
L 0 3.5 
" style="stroke: #000000; stroke-width: 0.8"/>
      </defs>
      <g>
       <use xlink:href="#mcf49193b63" x="176.853788" y="512.64" style="stroke: #000000; stroke-width: 0.8"/>
      </g>
     </g>
     <g id="text_1">
      <!-- 2014 -->
      <g transform="translate(164.128788 527.238438) scale(0.1 -0.1)">
       <defs>
        <path id="DejaVuSans-32" d="M 1228 531 
L 3431 531 
L 3431 0 
L 469 0 
L 469 531 
Q 828 903 1448 1529 
Q 2069 2156 2228 2338 
Q 2531 2678 2651 2914 
Q 2772 3150 2772 3378 
Q 2772 3750 2511 3984 
Q 2250 4219 1831 4219 
Q 1534 4219 1204 4116 
Q 875 4013 500 3803 
L 500 4441 
Q 881 4594 1212 4672 
Q 1544 4750 1819 4750 
Q 2544 4750 2975 4387 
Q 3406 4025 3406 3419 
Q 3406 3131 3298 2873 
Q 3191 2616 2906 2266 
Q 2828 2175 2409 1742 
Q 1991 1309 1228 531 
z
" transform="scale(0.015625)"/>
        <path id="DejaVuSans-30" d="M 2034 4250 
Q 1547 4250 1301 3770 
Q 1056 3291 1056 2328 
Q 1056 1369 1301 889 
Q 1547 409 2034 409 
Q 2525 409 2770 889 
Q 3016 1369 3016 2328 
Q 3016 3291 2770 3770 
Q 2525 4250 2034 4250 
z
M 2034 4750 
Q 2819 4750 3233 4129 
Q 3647 3509 3647 2328 
Q 3647 1150 3233 529 
Q 2819 -91 2034 -91 
Q 1250 -91 836 529 
Q 422 1150 422 2328 
Q 422 3509 836 4129 
Q 1250 4750 2034 4750 
z
" transform="scale(0.015625)"/>
        <path id="DejaVuSans-31" d="M 794 531 
L 1825 531 
L 1825 4091 
L 703 3866 
L 703 4441 
L 1819 4666 
L 2450 4666 
L 2450 531 
L 3481 531 
L 3481 0 
L 794 0 
L 794 531 
z
" transform="scale(0.015625)"/>
        <path id="DejaVuSans-34" d="M 2419 4116 
L 825 1625 
L 2419 1625 
L 2419 4116 
z
M 2253 4666 
L 3047 4666 
L 3047 1625 
L 3713 1625 
L 3713 1100 
L 3047 1100 
L 3047 0 
L 2419 0 
L 2419 1100 
L 313 1100 
L 313 1709 
L 2253 4666 
z
" transform="scale(0.015625)"/>
       </defs>
       <use xlink:href="#DejaVuSans-32"/>
       <use xlink:href="#DejaVuSans-30" x="63.623047"/>
       <use xlink:href="#DejaVuSans-31" x="127.246094"/>
       <use xlink:href="#DejaVuSans-34" x="190.869141"/>
      </g>
     </g>
    </g>
    <g id="xtick_2">
     <g id="line2d_2">
      <g>
       <use xlink:href="#mcf49193b63" x="317.890338" y="512.64" style="stroke: #000000; stroke-width: 0.8"/>
      </g>
     </g>
     <g id="text_2">
      <!-- 2016 -->
      <g transform="translate(305.165338 527.238438) scale(0.1 -0.1)">
       <defs>
        <path id="DejaVuSans-36" d="M 2113 2584 
Q 1688 2584 1439 2293 
Q 1191 2003 1191 1497 
Q 1191 994 1439 701 
Q 1688 409 2113 409 
Q 2538 409 2786 701 
Q 3034 994 3034 1497 
Q 3034 2003 2786 2293 
Q 2538 2584 2113 2584 
z
M 3366 4563 
L 3366 3988 
Q 3128 4100 2886 4159 
Q 2644 4219 2406 4219 
Q 1781 4219 1451 3797 
Q 1122 3375 1075 2522 
Q 1259 2794 1537 2939 
Q 1816 3084 2150 3084 
Q 2853 3084 3261 2657 
Q 3669 2231 3669 1497 
Q 3669 778 3244 343 
Q 2819 -91 2113 -91 
Q 1303 -91 875 529 
Q 447 1150 447 2328 
Q 447 3434 972 4092 
Q 1497 4750 2381 4750 
Q 2619 4750 2861 4703 
Q 3103 4656 3366 4563 
z
" transform="scale(0.015625)"/>
       </defs>
       <use xlink:href="#DejaVuSans-32"/>
       <use xlink:href="#DejaVuSans-30" x="63.623047"/>
       <use xlink:href="#DejaVuSans-31" x="127.246094"/>
       <use xlink:href="#DejaVuSans-36" x="190.869141"/>
      </g>
     </g>
    </g>
    <g id="xtick_3">
     <g id="line2d_3">
      <g>
       <use xlink:href="#mcf49193b63" x="459.120088" y="512.64" style="stroke: #000000; stroke-width: 0.8"/>
      </g>
     </g>
     <g id="text_3">
      <!-- 2018 -->
      <g transform="translate(446.395088 527.238438) scale(0.1 -0.1)">
       <defs>
        <path id="DejaVuSans-38" d="M 2034 2216 
Q 1584 2216 1326 1975 
Q 1069 1734 1069 1313 
Q 1069 891 1326 650 
Q 1584 409 2034 409 
Q 2484 409 2743 651 
Q 3003 894 3003 1313 
Q 3003 1734 2745 1975 
Q 2488 2216 2034 2216 
z
M 1403 2484 
Q 997 2584 770 2862 
Q 544 3141 544 3541 
Q 544 4100 942 4425 
Q 1341 4750 2034 4750 
Q 2731 4750 3128 4425 
Q 3525 4100 3525 3541 
Q 3525 3141 3298 2862 
Q 3072 2584 2669 2484 
Q 3125 2378 3379 2068 
Q 3634 1759 3634 1313 
Q 3634 634 3220 271 
Q 2806 -91 2034 -91 
Q 1263 -91 848 271 
Q 434 634 434 1313 
Q 434 1759 690 2068 
Q 947 2378 1403 2484 
z
M 1172 3481 
Q 1172 3119 1398 2916 
Q 1625 2713 2034 2713 
Q 2441 2713 2670 2916 
Q 2900 3119 2900 3481 
Q 2900 3844 2670 4047 
Q 2441 4250 2034 4250 
Q 1625 4250 1398 4047 
Q 1172 3844 1172 3481 
z
" transform="scale(0.015625)"/>
       </defs>
       <use xlink:href="#DejaVuSans-32"/>
       <use xlink:href="#DejaVuSans-30" x="63.623047"/>
       <use xlink:href="#DejaVuSans-31" x="127.246094"/>
       <use xlink:href="#DejaVuSans-38" x="190.869141"/>
      </g>
     </g>
    </g>
    <g id="xtick_4">
     <g id="line2d_4">
      <g>
       <use xlink:href="#mcf49193b63" x="600.156638" y="512.64" style="stroke: #000000; stroke-width: 0.8"/>
      </g>
     </g>
     <g id="text_4">
      <!-- 2020 -->
      <g transform="translate(587.431638 527.238438) scale(0.1 -0.1)">
       <use xlink:href="#DejaVuSans-32"/>
       <use xlink:href="#DejaVuSans-30" x="63.623047"/>
       <use xlink:href="#DejaVuSans-32" x="127.246094"/>
       <use xlink:href="#DejaVuSans-30" x="190.869141"/>
      </g>
     </g>
    </g>
    <g id="xtick_5">
     <g id="line2d_5">
      <g>
       <use xlink:href="#mcf49193b63" x="741.386389" y="512.64" style="stroke: #000000; stroke-width: 0.8"/>
      </g>
     </g>
     <g id="text_5">
      <!-- 2022 -->
      <g transform="translate(728.661389 527.238438) scale(0.1 -0.1)">
       <use xlink:href="#DejaVuSans-32"/>
       <use xlink:href="#DejaVuSans-30" x="63.623047"/>
       <use xlink:href="#DejaVuSans-32" x="127.246094"/>
       <use xlink:href="#DejaVuSans-32" x="190.869141"/>
      </g>
     </g>
    </g>
    <g id="xtick_6">
     <g id="line2d_6">
      <g>
       <use xlink:href="#mcf49193b63" x="882.422938" y="512.64" style="stroke: #000000; stroke-width: 0.8"/>
      </g>
     </g>
     <g id="text_6">
      <!-- 2024 -->
      <g transform="translate(869.697938 527.238438) scale(0.1 -0.1)">
       <use xlink:href="#DejaVuSans-32"/>
       <use xlink:href="#DejaVuSans-30" x="63.623047"/>
       <use xlink:href="#DejaVuSans-32" x="127.246094"/>
       <use xlink:href="#DejaVuSans-34" x="190.869141"/>
      </g>
     </g>
    </g>
    <g id="xtick_7">
     <g id="line2d_7">
      <g>
       <use xlink:href="#mcf49193b63" x="1023.652689" y="512.64" style="stroke: #000000; stroke-width: 0.8"/>
      </g>
     </g>
     <g id="text_7">
      <!-- 2026 -->
      <g transform="translate(1010.927689 527.238438) scale(0.1 -0.1)">
       <use xlink:href="#DejaVuSans-32"/>
       <use xlink:href="#DejaVuSans-30" x="63.623047"/>
       <use xlink:href="#DejaVuSans-32" x="127.246094"/>
       <use xlink:href="#DejaVuSans-36" x="190.869141"/>
      </g>
     </g>
    </g>
   </g>
   <g id="matplotlib.axis_2">
    <g id="ytick_1">
     <g id="line2d_8">
      <defs>
       <path id="me4e1c42d7b" d="M 0 0 
L -3.5 0 
" style="stroke: #000000; stroke-width: 0.8"/>
      </defs>
      <g>
       <use xlink:href="#me4e1c42d7b" x="144" y="492.514804" style="stroke: #000000; stroke-width: 0.8"/>
      </g>
     </g>
     <g id="text_8">
      <!-- 0 -->
      <g transform="translate(130.6375 496.314022) scale(0.1 -0.1)">
       <use xlink:href="#DejaVuSans-30"/>
      </g>
     </g>
    </g>
    <g id="ytick_2">
     <g id="line2d_9">
      <g>
       <use xlink:href="#me4e1c42d7b" x="144" y="422.907553" style="stroke: #000000; stroke-width: 0.8"/>
      </g>
     </g>
     <g id="text_9">
      <!-- 2000 -->
      <g transform="translate(111.55 426.706772) scale(0.1 -0.1)">
       <use xlink:href="#DejaVuSans-32"/>
       <use xlink:href="#DejaVuSans-30" x="63.623047"/>
       <use xlink:href="#DejaVuSans-30" x="127.246094"/>
       <use xlink:href="#DejaVuSans-30" x="190.869141"/>
      </g>
     </g>
    </g>
    <g id="ytick_3">
     <g id="line2d_10">
      <g>
       <use xlink:href="#me4e1c42d7b" x="144" y="353.300302" style="stroke: #000000; stroke-width: 0.8"/>
      </g>
     </g>
     <g id="text_10">
      <!-- 4000 -->
      <g transform="translate(111.55 357.099521) scale(0.1 -0.1)">
       <use xlink:href="#DejaVuSans-34"/>
       <use xlink:href="#DejaVuSans-30" x="63.623047"/>
       <use xlink:href="#DejaVuSans-30" x="127.246094"/>
       <use xlink:href="#DejaVuSans-30" x="190.869141"/>
      </g>
     </g>
    </g>
    <g id="ytick_4">
     <g id="line2d_11">
      <g>
       <use xlink:href="#me4e1c42d7b" x="144" y="283.693051" style="stroke: #000000; stroke-width: 0.8"/>
      </g>
     </g>
     <g id="text_11">
      <!-- 6000 -->
      <g transform="translate(111.55 287.49227) scale(0.1 -0.1)">
       <use xlink:href="#DejaVuSans-36"/>
       <use xlink:href="#DejaVuSans-30" x="63.623047"/>
       <use xlink:href="#DejaVuSans-30" x="127.246094"/>
       <use xlink:href="#DejaVuSans-30" x="190.869141"/>
      </g>
     </g>
    </g>
    <g id="ytick_5">
     <g id="line2d_12">
      <g>
       <use xlink:href="#me4e1c42d7b" x="144" y="214.085801" style="stroke: #000000; stroke-width: 0.8"/>
      </g>
     </g>
     <g id="text_12">
      <!-- 8000 -->
      <g transform="translate(111.55 217.885019) scale(0.1 -0.1)">
       <use xlink:href="#DejaVuSans-38"/>
       <use xlink:href="#DejaVuSans-30" x="63.623047"/>
       <use xlink:href="#DejaVuSans-30" x="127.246094"/>
       <use xlink:href="#DejaVuSans-30" x="190.869141"/>
      </g>
     </g>
    </g>
    <g id="ytick_6">
     <g id="line2d_13">
      <g>
       <use xlink:href="#me4e1c42d7b" x="144" y="144.47855" style="stroke: #000000; stroke-width: 0.8"/>
      </g>
     </g>
     <g id="text_13">
      <!-- 10000 -->
      <g transform="translate(105.1875 148.277769) scale(0.1 -0.1)">
       <use xlink:href="#DejaVuSans-31"/>
       <use xlink:href="#DejaVuSans-30" x="63.623047"/>
       <use xlink:href="#DejaVuSans-30" x="127.246094"/>
       <use xlink:href="#DejaVuSans-30" x="190.869141"/>
       <use xlink:href="#DejaVuSans-30" x="254.492188"/>
      </g>
     </g>
    </g>
    <g id="ytick_7">
     <g id="line2d_14">
      <g>
       <use xlink:href="#me4e1c42d7b" x="144" y="74.871299" style="stroke: #000000; stroke-width: 0.8"/>
      </g>
     </g>
     <g id="text_14">
      <!-- 12000 -->
      <g transform="translate(105.1875 78.670518) scale(0.1 -0.1)">
       <use xlink:href="#DejaVuSans-31"/>
       <use xlink:href="#DejaVuSans-32" x="63.623047"/>
       <use xlink:href="#DejaVuSans-30" x="127.246094"/>
       <use xlink:href="#DejaVuSans-30" x="190.869141"/>
       <use xlink:href="#DejaVuSans-30" x="254.492188"/>
      </g>
     </g>
    </g>
   </g>
   <g id="line2d_15">
    <path d="M 184.581818 492.48 
L 186.320625 492.410393 
L 307.071096 492.201571 
L 448.494047 492.027553 
L 501.044652 491.818731 
L 514.761905 491.71432 
L 547.606033 491.540302 
L 549.151639 491.470695 
L 558.038874 491.366284 
L 600.349839 491.157462 
L 606.532263 491.087855 
L 606.918664 490.809426 
L 610.97588 490.635408 
L 644.979213 490.496193 
L 648.843228 490.391782 
L 664.68569 490.217764 
L 684.005765 490.043746 
L 693.0862 489.765317 
L 700.81423 489.591299 
L 703.712242 489.382477 
L 705.064647 489.208459 
L 712.599476 488.999637 
L 716.656692 488.860423 
L 723.032317 488.407976 
L 733.078756 488.16435 
L 737.715574 486.737402 
L 737.908775 486.598187 
L 739.647582 486.424169 
L 740.420385 485.867311 
L 740.613586 484.997221 
L 740.999987 484.788399 
L 741.193188 484.753595 
L 741.386389 483.570272 
L 742.545593 483.083021 
L 742.931995 482.49136 
L 743.318396 482.247734 
L 743.511597 481.690876 
L 743.704798 480.403142 
L 743.897998 480.055106 
L 744.091199 479.32423 
L 744.2844 478.140906 
L 744.477601 476.122296 
L 744.864002 474.695347 
L 745.057203 474.416918 
L 745.250404 469.753233 
L 745.443604 467.873837 
L 745.636805 467.177764 
L 745.830006 463.836616 
L 746.409608 459.93861 
L 746.602809 459.834199 
L 746.98921 457.850393 
L 747.182411 457.189124 
L 747.375612 452.107795 
L 747.568813 451.655347 
L 747.955214 449.984773 
L 748.148415 449.880363 
L 748.341616 449.010272 
L 748.534816 445.390695 
L 748.728017 444.485801 
L 748.921218 444.416193 
L 749.114419 441.771118 
L 749.307619 441.249063 
L 749.694021 441.075045 
L 750.466824 438.42997 
L 750.853225 437.733897 
L 751.239627 435.680483 
L 751.432828 434.88 
L 751.626028 430.981994 
L 752.205631 426.666344 
L 752.785233 426.457523 
L 753.171634 426.213897 
L 753.944437 424.786949 
L 754.330839 424.647734 
L 754.71724 421.654622 
L 754.910441 421.619819 
L 755.296843 421.097764 
L 755.490043 419.601208 
L 755.683244 419.183565 
L 755.876445 419.04435 
L 756.069646 418.696314 
L 756.262847 418.104653 
L 756.842449 417.861027 
L 757.03565 417.617402 
L 757.615252 415.424773 
L 757.808453 415.285559 
L 758.194854 414.728701 
L 758.967657 414.345861 
L 759.160858 412.918912 
L 759.354059 412.814502 
L 759.547259 412.536073 
L 759.74046 409.786586 
L 760.126862 409.682175 
L 760.513263 408.951299 
L 760.706464 408.255227 
L 761.286066 408.116012 
L 761.865668 407.0371 
L 762.058869 407.002296 
L 762.445271 406.410634 
L 762.831672 406.27142 
L 763.024873 403.069486 
L 764.184077 402.791057 
L 764.570479 402.512628 
L 765.343282 402.408218 
L 765.536483 402.199396 
L 767.854892 401.503323 
L 768.627695 400.946465 
L 769.593698 400.807251 
L 769.9801 400.528822 
L 770.366501 400.389607 
L 772.298509 399.867553 
L 773.071312 396.909245 
L 774.037316 396.77003 
L 774.230517 396.700423 
L 775.776123 396.526405 
L 776.355725 396.317583 
L 776.548926 395.760725 
L 777.514929 395.691118 
L 778.094532 395.377885 
L 779.060535 395.029849 
L 779.253736 394.995045 
L 779.640138 394.612205 
L 780.026539 394.507795 
L 780.21974 394.264169 
L 780.992543 393.98574 
L 781.958547 393.846526 
L 782.151747 393.6029 
L 782.538149 393.568097 
L 782.73135 393.011239 
L 782.92455 392.941631 
L 783.117751 392.141148 
L 785.43616 391.619094 
L 786.015762 391.479879 
L 786.208963 391.062236 
L 787.561369 390.714199 
L 788.140971 390.505378 
L 788.913774 390.33136 
L 789.686577 390.122538 
L 790.652581 389.913716 
L 791.232183 389.739698 
L 792.584588 388.939215 
L 792.777789 388.243142 
L 793.743793 387.442659 
L 793.936993 387.094622 
L 794.902997 386.259335 
L 795.289399 385.528459 
L 795.482599 385.493656 
L 795.6758 384.797583 
L 796.448603 383.753474 
L 796.835005 383.579456 
L 797.221406 383.509849 
L 797.414607 383.196616 
L 797.801008 383.022598 
L 797.994209 382.674562 
L 798.960213 382.430937 
L 799.153414 382.117704 
L 800.505819 381.804471 
L 800.89222 381.630453 
L 801.085421 381.59565 
L 801.278622 381.421631 
L 802.244626 381.282417 
L 803.597031 380.655952 
L 804.176633 380.516737 
L 804.563035 379.716254 
L 804.949436 379.472628 
L 805.91544 378.706949 
L 806.108641 377.906465 
L 806.881444 377.66284 
L 808.040648 377.28 
L 808.620251 376.549124 
L 809.006652 376.340302 
L 809.199853 376.305498 
L 809.586254 375.74864 
L 810.165857 375.539819 
L 810.552258 375.226586 
L 811.13186 374.982961 
L 811.518262 371.084955 
L 811.711463 369.832024 
L 811.904663 367.674199 
L 812.097864 367.39577 
L 812.870667 364.715891 
L 813.257069 364.019819 
L 813.450269 363.915408 
L 813.64347 363.671782 
L 813.836671 363.219335 
L 814.029872 361.653172 
L 814.223072 361.270332 
L 814.609474 361.131118 
L 815.768678 358.764471 
L 815.961879 358.590453 
L 816.15508 357.650755 
L 816.348281 357.302719 
L 816.734682 356.397825 
L 817.121084 355.840967 
L 817.893887 355.38852 
L 818.087087 355.179698 
L 818.280288 354.065982 
L 818.66669 353.891964 
L 819.053091 353.509124 
L 819.632694 352.70864 
L 819.825894 351.977764 
L 820.019095 351.942961 
L 820.598697 351.246888 
L 820.985099 351.177281 
L 821.1783 350.829245 
L 821.564701 350.620423 
L 822.530705 349.541511 
L 822.723906 348.949849 
L 824.269512 347.453293 
L 824.655913 346.095952 
L 825.815118 345.469486 
L 826.39472 344.564592 
L 827.360724 342.998429 
L 827.747125 342.789607 
L 828.519928 342.650393 
L 829.09953 341.536677 
L 829.872333 341.293051 
L 830.645136 340.388157 
L 831.031538 340.31855 
L 831.417939 339.900906 
L 831.997542 339.657281 
L 832.383943 339.622477 
L 832.577144 339.413656 
L 832.770345 338.78719 
L 833.543148 338.543565 
L 833.736348 338.195529 
L 833.929549 338.160725 
L 834.12275 337.53426 
L 834.702352 337.290634 
L 835.281955 337.15142 
L 835.668356 336.803384 
L 836.63436 336.316133 
L 837.020761 336.0029 
L 837.407163 335.759275 
L 837.793564 335.724471 
L 837.986765 334.784773 
L 838.373167 334.471541 
L 838.952769 334.193112 
L 839.532371 333.845076 
L 840.305174 333.705861 
L 840.498375 332.73136 
L 841.85078 332.070091 
L 842.043981 332.035287 
L 842.237182 331.861269 
L 842.623583 331.791662 
L 842.816784 331.478429 
L 843.589587 331.165196 
L 843.782788 330.782356 
L 844.169189 330.747553 
L 844.555591 330.503927 
L 845.135193 330.190695 
L 845.328394 329.703444 
L 846.101197 329.320604 
L 846.294397 329.042175 
L 846.680799 328.937764 
L 846.874 328.694139 
L 847.453602 328.41571 
L 847.646803 328.102477 
L 847.840003 328.03287 
L 848.226405 327.754441 
L 848.612806 327.580423 
L 848.806007 327.371601 
L 849.965212 327.023565 
L 850.158412 326.640725 
L 850.351613 326.536314 
L 851.317617 326.292689 
L 851.704019 325.979456 
L 852.09042 325.840242 
L 852.670022 325.666224 
L 852.863223 325.352991 
L 853.249625 325.283384 
L 853.442825 324.656918 
L 853.636026 324.517704 
L 854.022428 324.065257 
L 854.215628 323.021148 
L 854.60203 322.777523 
L 854.795231 322.638308 
L 854.988431 322.359879 
L 855.374833 322.116254 
L 856.147636 321.420181 
L 856.534037 321.246163 
L 856.727238 320.82852 
L 856.920439 320.758912 
L 857.30684 320.341269 
L 857.693242 320.097644 
L 858.272844 319.923625 
L 858.659246 319.471178 
L 860.784454 317.626586 
L 861.750458 317.382961 
L 862.33006 316.652085 
L 862.716461 316.234441 
L 863.296064 315.921208 
L 864.068867 315.607976 
L 864.262067 315.433958 
L 865.03487 315.120725 
L 865.421272 314.772689 
L 866.000874 314.563867 
L 866.580477 314.215831 
L 867.160079 313.972205 
L 867.35328 313.798187 
L 869.478488 312.9629 
L 869.671689 312.614864 
L 871.024094 312.058006 
L 871.603696 311.675166 
L 872.183298 311.396737 
L 872.376499 311.187915 
L 873.149302 310.979094 
L 873.342503 310.526647 
L 873.535704 308.960483 
L 873.922105 308.54284 
L 874.115306 308.508036 
L 875.27451 306.976677 
L 875.660912 305.932568 
L 876.047313 305.584532 
L 876.433715 305.340906 
L 876.820116 305.236495 
L 877.013317 304.958066 
L 877.399719 304.749245 
L 877.78612 304.401208 
L 878.172522 304.22719 
L 878.365722 304.157583 
L 878.752124 303.73994 
L 878.945325 303.705136 
L 879.138525 303.287492 
L 879.718128 303.078671 
L 880.104529 302.556616 
L 880.684131 302.104169 
L 881.070533 301.721329 
L 881.650135 301.616918 
L 881.843336 301.303686 
L 882.422938 301.094864 
L 882.80934 299.563505 
L 883.195741 299.215468 
L 883.968544 298.937039 
L 884.354946 298.65861 
L 884.548147 298.136556 
L 884.934548 297.997341 
L 885.127749 297.510091 
L 885.32095 297.40568 
L 885.707351 296.988036 
L 885.900552 296.779215 
L 886.480154 296.570393 
L 886.866556 296.25716 
L 887.059756 296.222356 
L 887.252957 296.013535 
L 887.446158 295.978731 
L 888.218961 295.49148 
L 888.605362 294.62139 
L 888.798563 294.516979 
L 889.184965 294.447372 
L 889.378165 294.064532 
L 889.764567 293.890514 
L 890.150968 293.681692 
L 890.344169 293.055227 
L 891.116972 292.602779 
L 891.310173 291.976314 
L 892.082976 291.315045 
L 892.276177 291.280242 
L 892.662578 290.758187 
L 893.04898 290.444955 
L 893.24218 290.375347 
L 893.435381 290.027311 
L 893.821783 289.888097 
L 894.014983 289.226828 
L 894.401385 289.122417 
L 894.594586 288.809184 
L 894.787786 288.739577 
L 894.980987 288.008701 
L 895.367389 287.90429 
L 895.75379 287.660665 
L 896.140192 287.103807 
L 896.333392 286.964592 
L 897.106195 285.781269 
L 897.299396 285.711662 
L 897.685798 285.294018 
L 898.458601 284.73716 
L 899.038203 284.458731 
L 900.77701 282.648943 
L 901.163411 282.509728 
L 901.549813 282.092085 
L 901.936214 281.95287 
L 902.129415 281.152387 
L 902.709017 280.595529 
L 902.902218 279.899456 
L 903.28862 279.516616 
L 903.48182 279.133776 
L 903.675021 279.098973 
L 904.641025 278.159275 
L 905.220627 277.811239 
L 905.413828 277.53281 
L 906.573032 277.14997 
L 907.152635 276.419094 
L 907.539036 275.757825 
L 907.925438 275.61861 
L 908.118638 275.305378 
L 908.311839 275.23577 
L 908.50504 274.992145 
L 908.698241 274.957341 
L 908.891441 274.574502 
L 909.664244 274.052447 
L 910.243847 273.6 
L 911.01665 273.21716 
L 911.596252 272.729909 
L 912.175854 272.45148 
L 912.369055 272.138248 
L 912.755456 272.06864 
L 913.335059 271.511782 
L 913.52826 271.19855 
L 914.107862 270.920121 
L 914.494263 270.606888 
L 915.073866 270.43287 
L 915.460267 270.015227 
L 916.426271 269.458369 
L 916.619472 269.214743 
L 917.392275 268.866707 
L 917.585475 267.26574 
L 918.551479 266.569668 
L 919.324282 265.177523 
L 919.517483 265.073112 
L 919.710684 264.620665 
L 920.097085 264.48145 
L 920.869888 263.298127 
L 921.25629 261.662356 
L 921.44949 261.105498 
L 921.835892 258.495227 
L 922.029093 257.451118 
L 922.995096 256.198187 
L 923.767899 253.100665 
L 923.9611 252.926647 
L 924.154301 252.439396 
L 924.347502 250.734018 
L 924.540702 250.107553 
L 924.733903 250.037946 
L 924.927104 249.272266 
L 925.506706 248.785015 
L 925.893108 247.462477 
L 926.859111 246.940423 
L 927.052312 246.592387 
L 928.018316 246.070332 
L 928.404717 245.652689 
L 928.597918 245.269849 
L 928.791119 244.295347 
L 928.98432 243.912508 
L 929.370721 243.773293 
L 929.757123 243.599275 
L 930.143524 243.320846 
L 930.529926 243.077221 
L 931.302729 242.833595 
L 931.68913 242.58997 
L 931.882331 242.450755 
L 932.268733 242.415952 
L 935.359945 239.736073 
L 935.746346 239.562054 
L 935.939547 238.726767 
L 936.519149 238.135106 
L 936.905551 238.030695 
L 938.064755 237.090997 
L 938.451157 236.916979 
L 938.644357 236.847372 
L 939.030759 236.429728 
L 939.41716 236.325317 
L 939.610361 235.838066 
L 939.803562 235.664048 
L 939.996763 235.10719 
L 940.383164 234.863565 
L 940.962766 233.575831 
L 941.155967 232.879758 
L 941.735569 232.462115 
L 942.315172 231.696435 
L 942.701573 230.339094 
L 942.894774 229.92145 
L 943.087975 229.190574 
L 943.281175 229.120967 
L 943.474376 228.529305 
L 943.860778 228.28568 
L 945.019982 227.067553 
L 945.213183 226.580302 
L 945.792785 226.301873 
L 945.985986 225.814622 
L 946.758789 225.50139 
L 946.95199 225.257764 
L 947.145191 225.222961 
L 947.338391 224.492085 
L 947.724793 224.248459 
L 947.917994 223.796012 
L 948.111194 223.656798 
L 948.497596 223.621994 
L 949.6568 222.7171 
L 950.236403 222.264653 
L 950.622804 221.812205 
L 951.009206 221.429366 
L 951.202406 221.081329 
L 951.395607 220.31565 
L 952.554812 219.654381 
L 952.941213 218.819094 
L 953.327615 218.679879 
L 953.520815 218.157825 
L 953.714016 218.088218 
L 954.293618 217.426949 
L 954.68002 217.078912 
L 956.032425 216 
L 956.612027 215.373535 
L 957.19163 214.607855 
L 957.38483 214.120604 
L 957.578031 213.285317 
L 957.964433 212.624048 
L 958.157633 212.171601 
L 959.123637 207.125076 
L 959.316838 206.846647 
L 959.510039 206.359396 
L 959.703239 204.48 
L 959.89644 200.860423 
L 960.089641 199.433474 
L 960.282842 197.136435 
L 960.476043 196.544773 
L 960.862444 193.934502 
L 961.248846 190.384532 
L 961.635247 185.616435 
L 962.021649 184.885559 
L 962.40805 178.725317 
L 962.601251 177.089547 
L 962.987652 170.059215 
L 963.374054 168.701873 
L 963.567255 165.151903 
L 963.760455 164.35142 
L 964.146857 160.41861 
L 964.533258 149.838308 
L 964.91966 148.202538 
L 965.112861 144.930997 
L 965.306061 144.582961 
L 965.692463 139.258006 
L 965.885664 139.153595 
L 966.078864 138.805559 
L 966.465266 137.552628 
L 966.658467 137.239396 
L 966.851667 136.647734 
L 967.044868 135.534018 
L 967.43127 135.325196 
L 967.62447 134.768338 
L 968.010872 133.028157 
L 968.397273 129.547795 
L 968.590474 128.816918 
L 968.783675 128.747311 
L 968.976876 128.434079 
L 969.942879 125.47577 
L 970.13608 125.336556 
L 970.329281 124.60568 
L 970.715682 124.257644 
L 970.908883 124.118429 
L 971.102084 123.596375 
L 971.295285 123.422356 
L 972.068088 122.239033 
L 972.64769 121.612568 
L 972.840891 121.542961 
L 973.806894 120.255227 
L 974.193296 120.081208 
L 974.772898 120.011601 
L 975.1593 119.489547 
L 975.545701 119.385136 
L 976.125303 118.65426 
L 976.898107 118.201813 
L 977.67091 117.227311 
L 977.86411 116.705257 
L 978.636913 116.461631 
L 979.023315 116.113595 
L 979.409716 115.417523 
L 979.796118 115.10429 
L 979.989319 114.860665 
L 980.182519 113.85136 
L 980.568921 113.190091 
L 981.148523 112.946465 
L 981.534925 112.633233 
L 981.921326 112.250393 
L 982.307728 111.902356 
L 982.694129 111.55432 
L 983.080531 111.206284 
L 983.273731 110.370997 
L 983.853334 109.953353 
L 984.626137 109.013656 
L 985.205739 108.526405 
L 985.785341 108.00435 
L 986.171743 107.795529 
L 986.558144 107.482296 
L 987.137746 107.273474 
L 987.524148 106.020544 
L 987.717349 105.916133 
L 988.296951 105.011239 
L 988.876553 104.34997 
L 989.069754 104.245559 
L 989.649356 103.166647 
L 989.842557 102.192145 
L 990.035758 101.878912 
L 990.422159 101.739698 
L 990.61536 101.322054 
L 992.354167 99.964713 
L 992.740568 99.16423 
L 992.933769 99.059819 
L 993.12697 94.813776 
L 993.513371 94.0829 
L 993.899773 93.491239 
L 994.092974 92.969184 
L 994.286174 92.934381 
L 994.672576 92.307915 
L 994.865777 91.577039 
L 996.024981 89.802054 
L 996.218182 89.28 
L 996.218182 89.28 
" clip-path="url(#p7c7d35dc37)" style="fill: none; stroke: #1f77b4; stroke-width: 1.5; stroke-linecap: square"/>
   </g>
   <g id="patch_3">
    <path d="M 144 512.64 
L 144 69.12 
" style="fill: none; stroke: #000000; stroke-width: 0.8; stroke-linejoin: miter; stroke-linecap: square"/>
   </g>
   <g id="patch_4">
    <path d="M 1036.8 512.64 
L 1036.8 69.12 
" style="fill: none; stroke: #000000; stroke-width: 0.8; stroke-linejoin: miter; stroke-linecap: square"/>
   </g>
   <g id="patch_5">
    <path d="M 144 512.64 
L 1036.8 512.64 
" style="fill: none; stroke: #000000; stroke-width: 0.8; stroke-linejoin: miter; stroke-linecap: square"/>
   </g>
   <g id="patch_6">
    <path d="M 144 69.12 
L 1036.8 69.12 
" style="fill: none; stroke: #000000; stroke-width: 0.8; stroke-linejoin: miter; stroke-linecap: square"/>
   </g>
   <g id="text_15">
    <!-- Number of AEDs in the OpenStreetMap database in Poland from first edition, day by day. As at: 2025-08-12 -->
    <g transform="translate(144 63.12) scale(0.14 -0.14)">
     <defs>
      <path id="DejaVuSans-4e" d="M 628 4666 
L 1478 4666 
L 3547 763 
L 3547 4666 
L 4159 4666 
L 4159 0 
L 3309 0 
L 1241 3903 
L 1241 0 
L 628 0 
L 628 4666 
z
" transform="scale(0.015625)"/>
      <path id="DejaVuSans-75" d="M 544 1381 
L 544 3500 
L 1119 3500 
L 1119 1403 
Q 1119 906 1312 657 
Q 1506 409 1894 409 
Q 2359 409 2629 706 
Q 2900 1003 2900 1516 
L 2900 3500 
L 3475 3500 
L 3475 0 
L 2900 0 
L 2900 538 
Q 2691 219 2414 64 
Q 2138 -91 1772 -91 
Q 1169 -91 856 284 
Q 544 659 544 1381 
z
M 1991 3584 
L 1991 3584 
z
" transform="scale(0.015625)"/>
      <path id="DejaVuSans-6d" d="M 3328 2828 
Q 3544 3216 3844 3400 
Q 4144 3584 4550 3584 
Q 5097 3584 5394 3201 
Q 5691 2819 5691 2113 
L 5691 0 
L 5113 0 
L 5113 2094 
Q 5113 2597 4934 2840 
Q 4756 3084 4391 3084 
Q 3944 3084 3684 2787 
Q 3425 2491 3425 1978 
L 3425 0 
L 2847 0 
L 2847 2094 
Q 2847 2600 2669 2842 
Q 2491 3084 2119 3084 
Q 1678 3084 1418 2786 
Q 1159 2488 1159 1978 
L 1159 0 
L 581 0 
L 581 3500 
L 1159 3500 
L 1159 2956 
Q 1356 3278 1631 3431 
Q 1906 3584 2284 3584 
Q 2666 3584 2933 3390 
Q 3200 3197 3328 2828 
z
" transform="scale(0.015625)"/>
      <path id="DejaVuSans-62" d="M 3116 1747 
Q 3116 2381 2855 2742 
Q 2594 3103 2138 3103 
Q 1681 3103 1420 2742 
Q 1159 2381 1159 1747 
Q 1159 1113 1420 752 
Q 1681 391 2138 391 
Q 2594 391 2855 752 
Q 3116 1113 3116 1747 
z
M 1159 2969 
Q 1341 3281 1617 3432 
Q 1894 3584 2278 3584 
Q 2916 3584 3314 3078 
Q 3713 2572 3713 1747 
Q 3713 922 3314 415 
Q 2916 -91 2278 -91 
Q 1894 -91 1617 61 
Q 1341 213 1159 525 
L 1159 0 
L 581 0 
L 581 4863 
L 1159 4863 
L 1159 2969 
z
" transform="scale(0.015625)"/>
      <path id="DejaVuSans-65" d="M 3597 1894 
L 3597 1613 
L 953 1613 
Q 991 1019 1311 708 
Q 1631 397 2203 397 
Q 2534 397 2845 478 
Q 3156 559 3463 722 
L 3463 178 
Q 3153 47 2828 -22 
Q 2503 -91 2169 -91 
Q 1331 -91 842 396 
Q 353 884 353 1716 
Q 353 2575 817 3079 
Q 1281 3584 2069 3584 
Q 2775 3584 3186 3129 
Q 3597 2675 3597 1894 
z
M 3022 2063 
Q 3016 2534 2758 2815 
Q 2500 3097 2075 3097 
Q 1594 3097 1305 2825 
Q 1016 2553 972 2059 
L 3022 2063 
z
" transform="scale(0.015625)"/>
      <path id="DejaVuSans-72" d="M 2631 2963 
Q 2534 3019 2420 3045 
Q 2306 3072 2169 3072 
Q 1681 3072 1420 2755 
Q 1159 2438 1159 1844 
L 1159 0 
L 581 0 
L 581 3500 
L 1159 3500 
L 1159 2956 
Q 1341 3275 1631 3429 
Q 1922 3584 2338 3584 
Q 2397 3584 2469 3576 
Q 2541 3569 2628 3553 
L 2631 2963 
z
" transform="scale(0.015625)"/>
      <path id="DejaVuSans-20" transform="scale(0.015625)"/>
      <path id="DejaVuSans-6f" d="M 1959 3097 
Q 1497 3097 1228 2736 
Q 959 2375 959 1747 
Q 959 1119 1226 758 
Q 1494 397 1959 397 
Q 2419 397 2687 759 
Q 2956 1122 2956 1747 
Q 2956 2369 2687 2733 
Q 2419 3097 1959 3097 
z
M 1959 3584 
Q 2709 3584 3137 3096 
Q 3566 2609 3566 1747 
Q 3566 888 3137 398 
Q 2709 -91 1959 -91 
Q 1206 -91 779 398 
Q 353 888 353 1747 
Q 353 2609 779 3096 
Q 1206 3584 1959 3584 
z
" transform="scale(0.015625)"/>
      <path id="DejaVuSans-66" d="M 2375 4863 
L 2375 4384 
L 1825 4384 
Q 1516 4384 1395 4259 
Q 1275 4134 1275 3809 
L 1275 3500 
L 2222 3500 
L 2222 3053 
L 1275 3053 
L 1275 0 
L 697 0 
L 697 3053 
L 147 3053 
L 147 3500 
L 697 3500 
L 697 3744 
Q 697 4328 969 4595 
Q 1241 4863 1831 4863 
L 2375 4863 
z
" transform="scale(0.015625)"/>
      <path id="DejaVuSans-41" d="M 2188 4044 
L 1331 1722 
L 3047 1722 
L 2188 4044 
z
M 1831 4666 
L 2547 4666 
L 4325 0 
L 3669 0 
L 3244 1197 
L 1141 1197 
L 716 0 
L 50 0 
L 1831 4666 
z
" transform="scale(0.015625)"/>
      <path id="DejaVuSans-45" d="M 628 4666 
L 3578 4666 
L 3578 4134 
L 1259 4134 
L 1259 2753 
L 3481 2753 
L 3481 2222 
L 1259 2222 
L 1259 531 
L 3634 531 
L 3634 0 
L 628 0 
L 628 4666 
z
" transform="scale(0.015625)"/>
      <path id="DejaVuSans-44" d="M 1259 4147 
L 1259 519 
L 2022 519 
Q 2988 519 3436 956 
Q 3884 1394 3884 2338 
Q 3884 3275 3436 3711 
Q 2988 4147 2022 4147 
L 1259 4147 
z
M 628 4666 
L 1925 4666 
Q 3281 4666 3915 4102 
Q 4550 3538 4550 2338 
Q 4550 1131 3912 565 
Q 3275 0 1925 0 
L 628 0 
L 628 4666 
z
" transform="scale(0.015625)"/>
      <path id="DejaVuSans-73" d="M 2834 3397 
L 2834 2853 
Q 2591 2978 2328 3040 
Q 2066 3103 1784 3103 
Q 1356 3103 1142 2972 
Q 928 2841 928 2578 
Q 928 2378 1081 2264 
Q 1234 2150 1697 2047 
L 1894 2003 
Q 2506 1872 2764 1633 
Q 3022 1394 3022 966 
Q 3022 478 2636 193 
Q 2250 -91 1575 -91 
Q 1294 -91 989 -36 
Q 684 19 347 128 
L 347 722 
Q 666 556 975 473 
Q 1284 391 1588 391 
Q 1994 391 2212 530 
Q 2431 669 2431 922 
Q 2431 1156 2273 1281 
Q 2116 1406 1581 1522 
L 1381 1569 
Q 847 1681 609 1914 
Q 372 2147 372 2553 
Q 372 3047 722 3315 
Q 1072 3584 1716 3584 
Q 2034 3584 2315 3537 
Q 2597 3491 2834 3397 
z
" transform="scale(0.015625)"/>
      <path id="DejaVuSans-69" d="M 603 3500 
L 1178 3500 
L 1178 0 
L 603 0 
L 603 3500 
z
M 603 4863 
L 1178 4863 
L 1178 4134 
L 603 4134 
L 603 4863 
z
" transform="scale(0.015625)"/>
      <path id="DejaVuSans-6e" d="M 3513 2113 
L 3513 0 
L 2938 0 
L 2938 2094 
Q 2938 2591 2744 2837 
Q 2550 3084 2163 3084 
Q 1697 3084 1428 2787 
Q 1159 2491 1159 1978 
L 1159 0 
L 581 0 
L 581 3500 
L 1159 3500 
L 1159 2956 
Q 1366 3272 1645 3428 
Q 1925 3584 2291 3584 
Q 2894 3584 3203 3211 
Q 3513 2838 3513 2113 
z
" transform="scale(0.015625)"/>
      <path id="DejaVuSans-74" d="M 1172 4494 
L 1172 3500 
L 2356 3500 
L 2356 3053 
L 1172 3053 
L 1172 1153 
Q 1172 725 1289 603 
Q 1406 481 1766 481 
L 2356 481 
L 2356 0 
L 1766 0 
Q 1100 0 847 248 
Q 594 497 594 1153 
L 594 3053 
L 172 3053 
L 172 3500 
L 594 3500 
L 594 4494 
L 1172 4494 
z
" transform="scale(0.015625)"/>
      <path id="DejaVuSans-68" d="M 3513 2113 
L 3513 0 
L 2938 0 
L 2938 2094 
Q 2938 2591 2744 2837 
Q 2550 3084 2163 3084 
Q 1697 3084 1428 2787 
Q 1159 2491 1159 1978 
L 1159 0 
L 581 0 
L 581 4863 
L 1159 4863 
L 1159 2956 
Q 1366 3272 1645 3428 
Q 1925 3584 2291 3584 
Q 2894 3584 3203 3211 
Q 3513 2838 3513 2113 
z
" transform="scale(0.015625)"/>
      <path id="DejaVuSans-4f" d="M 2522 4238 
Q 1834 4238 1429 3725 
Q 1025 3213 1025 2328 
Q 1025 1447 1429 934 
Q 1834 422 2522 422 
Q 3209 422 3611 934 
Q 4013 1447 4013 2328 
Q 4013 3213 3611 3725 
Q 3209 4238 2522 4238 
z
M 2522 4750 
Q 3503 4750 4090 4092 
Q 4678 3434 4678 2328 
Q 4678 1225 4090 567 
Q 3503 -91 2522 -91 
Q 1538 -91 948 565 
Q 359 1222 359 2328 
Q 359 3434 948 4092 
Q 1538 4750 2522 4750 
z
" transform="scale(0.015625)"/>
      <path id="DejaVuSans-70" d="M 1159 525 
L 1159 -1331 
L 581 -1331 
L 581 3500 
L 1159 3500 
L 1159 2969 
Q 1341 3281 1617 3432 
Q 1894 3584 2278 3584 
Q 2916 3584 3314 3078 
Q 3713 2572 3713 1747 
Q 3713 922 3314 415 
Q 2916 -91 2278 -91 
Q 1894 -91 1617 61 
Q 1341 213 1159 525 
z
M 3116 1747 
Q 3116 2381 2855 2742 
Q 2594 3103 2138 3103 
Q 1681 3103 1420 2742 
Q 1159 2381 1159 1747 
Q 1159 1113 1420 752 
Q 1681 391 2138 391 
Q 2594 391 2855 752 
Q 3116 1113 3116 1747 
z
" transform="scale(0.015625)"/>
      <path id="DejaVuSans-53" d="M 3425 4513 
L 3425 3897 
Q 3066 4069 2747 4153 
Q 2428 4238 2131 4238 
Q 1616 4238 1336 4038 
Q 1056 3838 1056 3469 
Q 1056 3159 1242 3001 
Q 1428 2844 1947 2747 
L 2328 2669 
Q 3034 2534 3370 2195 
Q 3706 1856 3706 1288 
Q 3706 609 3251 259 
Q 2797 -91 1919 -91 
Q 1588 -91 1214 -16 
Q 841 59 441 206 
L 441 856 
Q 825 641 1194 531 
Q 1563 422 1919 422 
Q 2459 422 2753 634 
Q 3047 847 3047 1241 
Q 3047 1584 2836 1778 
Q 2625 1972 2144 2069 
L 1759 2144 
Q 1053 2284 737 2584 
Q 422 2884 422 3419 
Q 422 4038 858 4394 
Q 1294 4750 2059 4750 
Q 2388 4750 2728 4690 
Q 3069 4631 3425 4513 
z
" transform="scale(0.015625)"/>
      <path id="DejaVuSans-4d" d="M 628 4666 
L 1569 4666 
L 2759 1491 
L 3956 4666 
L 4897 4666 
L 4897 0 
L 4281 0 
L 4281 4097 
L 3078 897 
L 2444 897 
L 1241 4097 
L 1241 0 
L 628 0 
L 628 4666 
z
" transform="scale(0.015625)"/>
      <path id="DejaVuSans-61" d="M 2194 1759 
Q 1497 1759 1228 1600 
Q 959 1441 959 1056 
Q 959 750 1161 570 
Q 1363 391 1709 391 
Q 2188 391 2477 730 
Q 2766 1069 2766 1631 
L 2766 1759 
L 2194 1759 
z
M 3341 1997 
L 3341 0 
L 2766 0 
L 2766 531 
Q 2569 213 2275 61 
Q 1981 -91 1556 -91 
Q 1019 -91 701 211 
Q 384 513 384 1019 
Q 384 1609 779 1909 
Q 1175 2209 1959 2209 
L 2766 2209 
L 2766 2266 
Q 2766 2663 2505 2880 
Q 2244 3097 1772 3097 
Q 1472 3097 1187 3025 
Q 903 2953 641 2809 
L 641 3341 
Q 956 3463 1253 3523 
Q 1550 3584 1831 3584 
Q 2591 3584 2966 3190 
Q 3341 2797 3341 1997 
z
" transform="scale(0.015625)"/>
      <path id="DejaVuSans-64" d="M 2906 2969 
L 2906 4863 
L 3481 4863 
L 3481 0 
L 2906 0 
L 2906 525 
Q 2725 213 2448 61 
Q 2172 -91 1784 -91 
Q 1150 -91 751 415 
Q 353 922 353 1747 
Q 353 2572 751 3078 
Q 1150 3584 1784 3584 
Q 2172 3584 2448 3432 
Q 2725 3281 2906 2969 
z
M 947 1747 
Q 947 1113 1208 752 
Q 1469 391 1925 391 
Q 2381 391 2643 752 
Q 2906 1113 2906 1747 
Q 2906 2381 2643 2742 
Q 2381 3103 1925 3103 
Q 1469 3103 1208 2742 
Q 947 2381 947 1747 
z
" transform="scale(0.015625)"/>
      <path id="DejaVuSans-50" d="M 1259 4147 
L 1259 2394 
L 2053 2394 
Q 2494 2394 2734 2622 
Q 2975 2850 2975 3272 
Q 2975 3691 2734 3919 
Q 2494 4147 2053 4147 
L 1259 4147 
z
M 628 4666 
L 2053 4666 
Q 2838 4666 3239 4311 
Q 3641 3956 3641 3272 
Q 3641 2581 3239 2228 
Q 2838 1875 2053 1875 
L 1259 1875 
L 1259 0 
L 628 0 
L 628 4666 
z
" transform="scale(0.015625)"/>
      <path id="DejaVuSans-6c" d="M 603 4863 
L 1178 4863 
L 1178 0 
L 603 0 
L 603 4863 
z
" transform="scale(0.015625)"/>
      <path id="DejaVuSans-2c" d="M 750 794 
L 1409 794 
L 1409 256 
L 897 -744 
L 494 -744 
L 750 256 
L 750 794 
z
" transform="scale(0.015625)"/>
      <path id="DejaVuSans-79" d="M 2059 -325 
Q 1816 -950 1584 -1140 
Q 1353 -1331 966 -1331 
L 506 -1331 
L 506 -850 
L 844 -850 
Q 1081 -850 1212 -737 
Q 1344 -625 1503 -206 
L 1606 56 
L 191 3500 
L 800 3500 
L 1894 763 
L 2988 3500 
L 3597 3500 
L 2059 -325 
z
" transform="scale(0.015625)"/>
      <path id="DejaVuSans-2e" d="M 684 794 
L 1344 794 
L 1344 0 
L 684 0 
L 684 794 
z
" transform="scale(0.015625)"/>
      <path id="DejaVuSans-3a" d="M 750 794 
L 1409 794 
L 1409 0 
L 750 0 
L 750 794 
z
M 750 3309 
L 1409 3309 
L 1409 2516 
L 750 2516 
L 750 3309 
z
" transform="scale(0.015625)"/>
      <path id="DejaVuSans-35" d="M 691 4666 
L 3169 4666 
L 3169 4134 
L 1269 4134 
L 1269 2991 
Q 1406 3038 1543 3061 
Q 1681 3084 1819 3084 
Q 2600 3084 3056 2656 
Q 3513 2228 3513 1497 
Q 3513 744 3044 326 
Q 2575 -91 1722 -91 
Q 1428 -91 1123 -41 
Q 819 9 494 109 
L 494 744 
Q 775 591 1075 516 
Q 1375 441 1709 441 
Q 2250 441 2565 725 
Q 2881 1009 2881 1497 
Q 2881 1984 2565 2268 
Q 2250 2553 1709 2553 
Q 1456 2553 1204 2497 
Q 953 2441 691 2322 
L 691 4666 
z
" transform="scale(0.015625)"/>
      <path id="DejaVuSans-2d" d="M 313 2009 
L 1997 2009 
L 1997 1497 
L 313 1497 
L 313 2009 
z
" transform="scale(0.015625)"/>
     </defs>
     <use xlink:href="#DejaVuSans-4e"/>
     <use xlink:href="#DejaVuSans-75" x="74.804688"/>
     <use xlink:href="#DejaVuSans-6d" x="138.183594"/>
     <use xlink:href="#DejaVuSans-62" x="235.595703"/>
     <use xlink:href="#DejaVuSans-65" x="299.072266"/>
     <use xlink:href="#DejaVuSans-72" x="360.595703"/>
     <use xlink:href="#DejaVuSans-20" x="401.708984"/>
     <use xlink:href="#DejaVuSans-6f" x="433.496094"/>
     <use xlink:href="#DejaVuSans-66" x="494.677734"/>
     <use xlink:href="#DejaVuSans-20" x="529.882812"/>
     <use xlink:href="#DejaVuSans-41" x="561.669922"/>
     <use xlink:href="#DejaVuSans-45" x="630.078125"/>
     <use xlink:href="#DejaVuSans-44" x="693.261719"/>
     <use xlink:href="#DejaVuSans-73" x="770.263672"/>
     <use xlink:href="#DejaVuSans-20" x="822.363281"/>
     <use xlink:href="#DejaVuSans-69" x="854.150391"/>
     <use xlink:href="#DejaVuSans-6e" x="881.933594"/>
     <use xlink:href="#DejaVuSans-20" x="945.3125"/>
     <use xlink:href="#DejaVuSans-74" x="977.099609"/>
     <use xlink:href="#DejaVuSans-68" x="1016.308594"/>
     <use xlink:href="#DejaVuSans-65" x="1079.6875"/>
     <use xlink:href="#DejaVuSans-20" x="1141.210938"/>
     <use xlink:href="#DejaVuSans-4f" x="1172.998047"/>
     <use xlink:href="#DejaVuSans-70" x="1251.708984"/>
     <use xlink:href="#DejaVuSans-65" x="1315.185547"/>
     <use xlink:href="#DejaVuSans-6e" x="1376.708984"/>
     <use xlink:href="#DejaVuSans-53" x="1440.087891"/>
     <use xlink:href="#DejaVuSans-74" x="1503.564453"/>
     <use xlink:href="#DejaVuSans-72" x="1542.773438"/>
     <use xlink:href="#DejaVuSans-65" x="1581.636719"/>
     <use xlink:href="#DejaVuSans-65" x="1643.160156"/>
     <use xlink:href="#DejaVuSans-74" x="1704.683594"/>
     <use xlink:href="#DejaVuSans-4d" x="1743.892578"/>
     <use xlink:href="#DejaVuSans-61" x="1830.171875"/>
     <use xlink:href="#DejaVuSans-70" x="1891.451172"/>
     <use xlink:href="#DejaVuSans-20" x="1954.927734"/>
     <use xlink:href="#DejaVuSans-64" x="1986.714844"/>
     <use xlink:href="#DejaVuSans-61" x="2050.191406"/>
     <use xlink:href="#DejaVuSans-74" x="2111.470703"/>
     <use xlink:href="#DejaVuSans-61" x="2150.679688"/>
     <use xlink:href="#DejaVuSans-62" x="2211.958984"/>
     <use xlink:href="#DejaVuSans-61" x="2275.435547"/>
     <use xlink:href="#DejaVuSans-73" x="2336.714844"/>
     <use xlink:href="#DejaVuSans-65" x="2388.814453"/>
     <use xlink:href="#DejaVuSans-20" x="2450.337891"/>
     <use xlink:href="#DejaVuSans-69" x="2482.125"/>
     <use xlink:href="#DejaVuSans-6e" x="2509.908203"/>
     <use xlink:href="#DejaVuSans-20" x="2573.287109"/>
     <use xlink:href="#DejaVuSans-50" x="2605.074219"/>
     <use xlink:href="#DejaVuSans-6f" x="2661.751953"/>
     <use xlink:href="#DejaVuSans-6c" x="2722.933594"/>
     <use xlink:href="#DejaVuSans-61" x="2750.716797"/>
     <use xlink:href="#DejaVuSans-6e" x="2811.996094"/>
     <use xlink:href="#DejaVuSans-64" x="2875.375"/>
     <use xlink:href="#DejaVuSans-20" x="2938.851562"/>
     <use xlink:href="#DejaVuSans-66" x="2970.638672"/>
     <use xlink:href="#DejaVuSans-72" x="3005.84375"/>
     <use xlink:href="#DejaVuSans-6f" x="3044.707031"/>
     <use xlink:href="#DejaVuSans-6d" x="3105.888672"/>
     <use xlink:href="#DejaVuSans-20" x="3203.300781"/>
     <use xlink:href="#DejaVuSans-66" x="3235.087891"/>
     <use xlink:href="#DejaVuSans-69" x="3270.292969"/>
     <use xlink:href="#DejaVuSans-72" x="3298.076172"/>
     <use xlink:href="#DejaVuSans-73" x="3339.189453"/>
     <use xlink:href="#DejaVuSans-74" x="3391.289062"/>
     <use xlink:href="#DejaVuSans-20" x="3430.498047"/>
     <use xlink:href="#DejaVuSans-65" x="3462.285156"/>
     <use xlink:href="#DejaVuSans-64" x="3523.808594"/>
     <use xlink:href="#DejaVuSans-69" x="3587.285156"/>
     <use xlink:href="#DejaVuSans-74" x="3615.068359"/>
     <use xlink:href="#DejaVuSans-69" x="3654.277344"/>
     <use xlink:href="#DejaVuSans-6f" x="3682.060547"/>
     <use xlink:href="#DejaVuSans-6e" x="3743.242188"/>
     <use xlink:href="#DejaVuSans-2c" x="3806.621094"/>
     <use xlink:href="#DejaVuSans-20" x="3838.408203"/>
     <use xlink:href="#DejaVuSans-64" x="3870.195312"/>
     <use xlink:href="#DejaVuSans-61" x="3933.671875"/>
     <use xlink:href="#DejaVuSans-79" x="3994.951172"/>
     <use xlink:href="#DejaVuSans-20" x="4054.130859"/>
     <use xlink:href="#DejaVuSans-62" x="4085.917969"/>
     <use xlink:href="#DejaVuSans-79" x="4149.394531"/>
     <use xlink:href="#DejaVuSans-20" x="4208.574219"/>
     <use xlink:href="#DejaVuSans-64" x="4240.361328"/>
     <use xlink:href="#DejaVuSans-61" x="4303.837891"/>
     <use xlink:href="#DejaVuSans-79" x="4365.117188"/>
     <use xlink:href="#DejaVuSans-2e" x="4410.046875"/>
     <use xlink:href="#DejaVuSans-20" x="4441.833984"/>
     <use xlink:href="#DejaVuSans-41" x="4473.621094"/>
     <use xlink:href="#DejaVuSans-73" x="4542.029297"/>
     <use xlink:href="#DejaVuSans-20" x="4594.128906"/>
     <use xlink:href="#DejaVuSans-61" x="4625.916016"/>
     <use xlink:href="#DejaVuSans-74" x="4687.195312"/>
     <use xlink:href="#DejaVuSans-3a" x="4726.404297"/>
     <use xlink:href="#DejaVuSans-20" x="4760.095703"/>
     <use xlink:href="#DejaVuSans-32" x="4791.882812"/>
     <use xlink:href="#DejaVuSans-30" x="4855.505859"/>
     <use xlink:href="#DejaVuSans-32" x="4919.128906"/>
     <use xlink:href="#DejaVuSans-35" x="4982.751953"/>
     <use xlink:href="#DejaVuSans-2d" x="5046.375"/>
     <use xlink:href="#DejaVuSans-30" x="5082.458984"/>
     <use xlink:href="#DejaVuSans-38" x="5146.082031"/>
     <use xlink:href="#DejaVuSans-2d" x="5209.705078"/>
     <use xlink:href="#DejaVuSans-31" x="5245.789062"/>
     <use xlink:href="#DejaVuSans-32" x="5309.412109"/>
    </g>
   </g>
  </g>
 </g>
 <defs>
  <clipPath id="p7c7d35dc37">
   <rect x="144" y="69.12" width="892.8" height="443.52"/>
  </clipPath>
 </defs>
</svg>
