<?xml version="1.0" encoding="utf-8" standalone="no"?>
<!DOCTYPE svg PUBLIC "-//W3C//DTD SVG 1.1//EN"
  "http://www.w3.org/Graphics/SVG/1.1/DTD/svg11.dtd">
<svg xmlns:xlink="http://www.w3.org/1999/xlink" width="1152pt" height="576pt" viewBox="0 0 1152 576" xmlns="http://www.w3.org/2000/svg" version="1.1">
 <metadata>
  <rdf:RDF xmlns:dc="http://purl.org/dc/elements/1.1/" xmlns:cc="http://creativecommons.org/ns#" xmlns:rdf="http://www.w3.org/1999/02/22-rdf-syntax-ns#">
   <cc:Work>
    <dc:type rdf:resource="http://purl.org/dc/dcmitype/StillImage"/>
    <dc:date>1980-01-01T00:00:00+00:00</dc:date>
    <dc:format>image/svg+xml</dc:format>
    <dc:creator>
     <cc:Agent>
      <dc:title>Matplotlib v3.9.1, https://matplotlib.org/</dc:title>
     </cc:Agent>
    </dc:creator>
   </cc:Work>
  </rdf:RDF>
 </metadata>
 <defs>
  <style type="text/css">*{stroke-linejoin: round; stroke-linecap: butt}</style>
 </defs>
 <g id="figure_1">
  <g id="patch_1">
   <path d="M 0 576 
L 1152 576 
L 1152 0 
L 0 0 
z
" style="fill: #ffffff"/>
  </g>
  <g id="axes_1">
   <g id="patch_2">
    <path d="M 144 512.64 
L 1036.8 512.64 
L 1036.8 69.12 
L 144 69.12 
z
" style="fill: #ffffff"/>
   </g>
   <g id="matplotlib.axis_1">
    <g id="xtick_1">
     <g id="line2d_1">
      <defs>
       <path id="m5be15e17ee" d="M 0 0 
L 0 3.5 
" style="stroke: #000000; stroke-width: 0.8"/>
      </defs>
      <g>
       <use xlink:href="#m5be15e17ee" x="177.139027" y="512.64" style="stroke: #000000; stroke-width: 0.8"/>
      </g>
     </g>
     <g id="text_1">
      <!-- 2014 -->
      <g transform="translate(164.414027 527.238438) scale(0.1 -0.1)">
       <defs>
        <path id="DejaVuSans-32" d="M 1228 531 
L 3431 531 
L 3431 0 
L 469 0 
L 469 531 
Q 828 903 1448 1529 
Q 2069 2156 2228 2338 
Q 2531 2678 2651 2914 
Q 2772 3150 2772 3378 
Q 2772 3750 2511 3984 
Q 2250 4219 1831 4219 
Q 1534 4219 1204 4116 
Q 875 4013 500 3803 
L 500 4441 
Q 881 4594 1212 4672 
Q 1544 4750 1819 4750 
Q 2544 4750 2975 4387 
Q 3406 4025 3406 3419 
Q 3406 3131 3298 2873 
Q 3191 2616 2906 2266 
Q 2828 2175 2409 1742 
Q 1991 1309 1228 531 
z
" transform="scale(0.015625)"/>
        <path id="DejaVuSans-30" d="M 2034 4250 
Q 1547 4250 1301 3770 
Q 1056 3291 1056 2328 
Q 1056 1369 1301 889 
Q 1547 409 2034 409 
Q 2525 409 2770 889 
Q 3016 1369 3016 2328 
Q 3016 3291 2770 3770 
Q 2525 4250 2034 4250 
z
M 2034 4750 
Q 2819 4750 3233 4129 
Q 3647 3509 3647 2328 
Q 3647 1150 3233 529 
Q 2819 -91 2034 -91 
Q 1250 -91 836 529 
Q 422 1150 422 2328 
Q 422 3509 836 4129 
Q 1250 4750 2034 4750 
z
" transform="scale(0.015625)"/>
        <path id="DejaVuSans-31" d="M 794 531 
L 1825 531 
L 1825 4091 
L 703 3866 
L 703 4441 
L 1819 4666 
L 2450 4666 
L 2450 531 
L 3481 531 
L 3481 0 
L 794 0 
L 794 531 
z
" transform="scale(0.015625)"/>
        <path id="DejaVuSans-34" d="M 2419 4116 
L 825 1625 
L 2419 1625 
L 2419 4116 
z
M 2253 4666 
L 3047 4666 
L 3047 1625 
L 3713 1625 
L 3713 1100 
L 3047 1100 
L 3047 0 
L 2419 0 
L 2419 1100 
L 313 1100 
L 313 1709 
L 2253 4666 
z
" transform="scale(0.015625)"/>
       </defs>
       <use xlink:href="#DejaVuSans-32"/>
       <use xlink:href="#DejaVuSans-30" x="63.623047"/>
       <use xlink:href="#DejaVuSans-31" x="127.246094"/>
       <use xlink:href="#DejaVuSans-34" x="190.869141"/>
      </g>
     </g>
    </g>
    <g id="xtick_2">
     <g id="line2d_2">
      <g>
       <use xlink:href="#m5be15e17ee" x="312.969964" y="512.64" style="stroke: #000000; stroke-width: 0.8"/>
      </g>
     </g>
     <g id="text_2">
      <!-- 2016 -->
      <g transform="translate(300.244964 527.238438) scale(0.1 -0.1)">
       <defs>
        <path id="DejaVuSans-36" d="M 2113 2584 
Q 1688 2584 1439 2293 
Q 1191 2003 1191 1497 
Q 1191 994 1439 701 
Q 1688 409 2113 409 
Q 2538 409 2786 701 
Q 3034 994 3034 1497 
Q 3034 2003 2786 2293 
Q 2538 2584 2113 2584 
z
M 3366 4563 
L 3366 3988 
Q 3128 4100 2886 4159 
Q 2644 4219 2406 4219 
Q 1781 4219 1451 3797 
Q 1122 3375 1075 2522 
Q 1259 2794 1537 2939 
Q 1816 3084 2150 3084 
Q 2853 3084 3261 2657 
Q 3669 2231 3669 1497 
Q 3669 778 3244 343 
Q 2819 -91 2113 -91 
Q 1303 -91 875 529 
Q 447 1150 447 2328 
Q 447 3434 972 4092 
Q 1497 4750 2381 4750 
Q 2619 4750 2861 4703 
Q 3103 4656 3366 4563 
z
" transform="scale(0.015625)"/>
       </defs>
       <use xlink:href="#DejaVuSans-32"/>
       <use xlink:href="#DejaVuSans-30" x="63.623047"/>
       <use xlink:href="#DejaVuSans-31" x="127.246094"/>
       <use xlink:href="#DejaVuSans-36" x="190.869141"/>
      </g>
     </g>
    </g>
    <g id="xtick_3">
     <g id="line2d_3">
      <g>
       <use xlink:href="#m5be15e17ee" x="448.98697" y="512.64" style="stroke: #000000; stroke-width: 0.8"/>
      </g>
     </g>
     <g id="text_3">
      <!-- 2018 -->
      <g transform="translate(436.26197 527.238438) scale(0.1 -0.1)">
       <defs>
        <path id="DejaVuSans-38" d="M 2034 2216 
Q 1584 2216 1326 1975 
Q 1069 1734 1069 1313 
Q 1069 891 1326 650 
Q 1584 409 2034 409 
Q 2484 409 2743 651 
Q 3003 894 3003 1313 
Q 3003 1734 2745 1975 
Q 2488 2216 2034 2216 
z
M 1403 2484 
Q 997 2584 770 2862 
Q 544 3141 544 3541 
Q 544 4100 942 4425 
Q 1341 4750 2034 4750 
Q 2731 4750 3128 4425 
Q 3525 4100 3525 3541 
Q 3525 3141 3298 2862 
Q 3072 2584 2669 2484 
Q 3125 2378 3379 2068 
Q 3634 1759 3634 1313 
Q 3634 634 3220 271 
Q 2806 -91 2034 -91 
Q 1263 -91 848 271 
Q 434 634 434 1313 
Q 434 1759 690 2068 
Q 947 2378 1403 2484 
z
M 1172 3481 
Q 1172 3119 1398 2916 
Q 1625 2713 2034 2713 
Q 2441 2713 2670 2916 
Q 2900 3119 2900 3481 
Q 2900 3844 2670 4047 
Q 2441 4250 2034 4250 
Q 1625 4250 1398 4047 
Q 1172 3844 1172 3481 
z
" transform="scale(0.015625)"/>
       </defs>
       <use xlink:href="#DejaVuSans-32"/>
       <use xlink:href="#DejaVuSans-30" x="63.623047"/>
       <use xlink:href="#DejaVuSans-31" x="127.246094"/>
       <use xlink:href="#DejaVuSans-38" x="190.869141"/>
      </g>
     </g>
    </g>
    <g id="xtick_4">
     <g id="line2d_4">
      <g>
       <use xlink:href="#m5be15e17ee" x="584.817907" y="512.64" style="stroke: #000000; stroke-width: 0.8"/>
      </g>
     </g>
     <g id="text_4">
      <!-- 2020 -->
      <g transform="translate(572.092907 527.238438) scale(0.1 -0.1)">
       <use xlink:href="#DejaVuSans-32"/>
       <use xlink:href="#DejaVuSans-30" x="63.623047"/>
       <use xlink:href="#DejaVuSans-32" x="127.246094"/>
       <use xlink:href="#DejaVuSans-30" x="190.869141"/>
      </g>
     </g>
    </g>
    <g id="xtick_5">
     <g id="line2d_5">
      <g>
       <use xlink:href="#m5be15e17ee" x="720.834913" y="512.64" style="stroke: #000000; stroke-width: 0.8"/>
      </g>
     </g>
     <g id="text_5">
      <!-- 2022 -->
      <g transform="translate(708.109913 527.238438) scale(0.1 -0.1)">
       <use xlink:href="#DejaVuSans-32"/>
       <use xlink:href="#DejaVuSans-30" x="63.623047"/>
       <use xlink:href="#DejaVuSans-32" x="127.246094"/>
       <use xlink:href="#DejaVuSans-32" x="190.869141"/>
      </g>
     </g>
    </g>
    <g id="xtick_6">
     <g id="line2d_6">
      <g>
       <use xlink:href="#m5be15e17ee" x="856.66585" y="512.64" style="stroke: #000000; stroke-width: 0.8"/>
      </g>
     </g>
     <g id="text_6">
      <!-- 2024 -->
      <g transform="translate(843.94085 527.238438) scale(0.1 -0.1)">
       <use xlink:href="#DejaVuSans-32"/>
       <use xlink:href="#DejaVuSans-30" x="63.623047"/>
       <use xlink:href="#DejaVuSans-32" x="127.246094"/>
       <use xlink:href="#DejaVuSans-34" x="190.869141"/>
      </g>
     </g>
    </g>
    <g id="xtick_7">
     <g id="line2d_7">
      <g>
       <use xlink:href="#m5be15e17ee" x="992.682856" y="512.64" style="stroke: #000000; stroke-width: 0.8"/>
      </g>
     </g>
     <g id="text_7">
      <!-- 2026 -->
      <g transform="translate(979.957856 527.238438) scale(0.1 -0.1)">
       <use xlink:href="#DejaVuSans-32"/>
       <use xlink:href="#DejaVuSans-30" x="63.623047"/>
       <use xlink:href="#DejaVuSans-32" x="127.246094"/>
       <use xlink:href="#DejaVuSans-36" x="190.869141"/>
      </g>
     </g>
    </g>
   </g>
   <g id="matplotlib.axis_2">
    <g id="ytick_1">
     <g id="line2d_8">
      <defs>
       <path id="m4be1bfa697" d="M 0 0 
L -3.5 0 
" style="stroke: #000000; stroke-width: 0.8"/>
      </defs>
      <g>
       <use xlink:href="#m4be1bfa697" x="144" y="492.509508" style="stroke: #000000; stroke-width: 0.8"/>
      </g>
     </g>
     <g id="text_8">
      <!-- 0 -->
      <g transform="translate(130.6375 496.308727) scale(0.1 -0.1)">
       <use xlink:href="#DejaVuSans-30"/>
      </g>
     </g>
    </g>
    <g id="ytick_2">
     <g id="line2d_9">
      <g>
       <use xlink:href="#m4be1bfa697" x="144" y="433.493115" style="stroke: #000000; stroke-width: 0.8"/>
      </g>
     </g>
     <g id="text_9">
      <!-- 2000 -->
      <g transform="translate(111.55 437.292334) scale(0.1 -0.1)">
       <use xlink:href="#DejaVuSans-32"/>
       <use xlink:href="#DejaVuSans-30" x="63.623047"/>
       <use xlink:href="#DejaVuSans-30" x="127.246094"/>
       <use xlink:href="#DejaVuSans-30" x="190.869141"/>
      </g>
     </g>
    </g>
    <g id="ytick_3">
     <g id="line2d_10">
      <g>
       <use xlink:href="#m4be1bfa697" x="144" y="374.476721" style="stroke: #000000; stroke-width: 0.8"/>
      </g>
     </g>
     <g id="text_10">
      <!-- 4000 -->
      <g transform="translate(111.55 378.27594) scale(0.1 -0.1)">
       <use xlink:href="#DejaVuSans-34"/>
       <use xlink:href="#DejaVuSans-30" x="63.623047"/>
       <use xlink:href="#DejaVuSans-30" x="127.246094"/>
       <use xlink:href="#DejaVuSans-30" x="190.869141"/>
      </g>
     </g>
    </g>
    <g id="ytick_4">
     <g id="line2d_11">
      <g>
       <use xlink:href="#m4be1bfa697" x="144" y="315.460328" style="stroke: #000000; stroke-width: 0.8"/>
      </g>
     </g>
     <g id="text_11">
      <!-- 6000 -->
      <g transform="translate(111.55 319.259547) scale(0.1 -0.1)">
       <use xlink:href="#DejaVuSans-36"/>
       <use xlink:href="#DejaVuSans-30" x="63.623047"/>
       <use xlink:href="#DejaVuSans-30" x="127.246094"/>
       <use xlink:href="#DejaVuSans-30" x="190.869141"/>
      </g>
     </g>
    </g>
    <g id="ytick_5">
     <g id="line2d_12">
      <g>
       <use xlink:href="#m4be1bfa697" x="144" y="256.443934" style="stroke: #000000; stroke-width: 0.8"/>
      </g>
     </g>
     <g id="text_12">
      <!-- 8000 -->
      <g transform="translate(111.55 260.243153) scale(0.1 -0.1)">
       <use xlink:href="#DejaVuSans-38"/>
       <use xlink:href="#DejaVuSans-30" x="63.623047"/>
       <use xlink:href="#DejaVuSans-30" x="127.246094"/>
       <use xlink:href="#DejaVuSans-30" x="190.869141"/>
      </g>
     </g>
    </g>
    <g id="ytick_6">
     <g id="line2d_13">
      <g>
       <use xlink:href="#m4be1bfa697" x="144" y="197.427541" style="stroke: #000000; stroke-width: 0.8"/>
      </g>
     </g>
     <g id="text_13">
      <!-- 10000 -->
      <g transform="translate(105.1875 201.22676) scale(0.1 -0.1)">
       <use xlink:href="#DejaVuSans-31"/>
       <use xlink:href="#DejaVuSans-30" x="63.623047"/>
       <use xlink:href="#DejaVuSans-30" x="127.246094"/>
       <use xlink:href="#DejaVuSans-30" x="190.869141"/>
       <use xlink:href="#DejaVuSans-30" x="254.492188"/>
      </g>
     </g>
    </g>
    <g id="ytick_7">
     <g id="line2d_14">
      <g>
       <use xlink:href="#m4be1bfa697" x="144" y="138.411148" style="stroke: #000000; stroke-width: 0.8"/>
      </g>
     </g>
     <g id="text_14">
      <!-- 12000 -->
      <g transform="translate(105.1875 142.210366) scale(0.1 -0.1)">
       <use xlink:href="#DejaVuSans-31"/>
       <use xlink:href="#DejaVuSans-32" x="63.623047"/>
       <use xlink:href="#DejaVuSans-30" x="127.246094"/>
       <use xlink:href="#DejaVuSans-30" x="190.869141"/>
       <use xlink:href="#DejaVuSans-30" x="254.492188"/>
      </g>
     </g>
    </g>
    <g id="ytick_8">
     <g id="line2d_15">
      <g>
       <use xlink:href="#m4be1bfa697" x="144" y="79.394754" style="stroke: #000000; stroke-width: 0.8"/>
      </g>
     </g>
     <g id="text_15">
      <!-- 14000 -->
      <g transform="translate(105.1875 83.193973) scale(0.1 -0.1)">
       <use xlink:href="#DejaVuSans-31"/>
       <use xlink:href="#DejaVuSans-34" x="63.623047"/>
       <use xlink:href="#DejaVuSans-30" x="127.246094"/>
       <use xlink:href="#DejaVuSans-30" x="190.869141"/>
       <use xlink:href="#DejaVuSans-30" x="254.492188"/>
      </g>
     </g>
    </g>
   </g>
   <g id="line2d_16">
    <path d="M 184.581818 492.48 
L 186.256446 492.420984 
L 286.548056 492.273443 
L 438.753132 492.125902 
L 489.364112 491.948852 
L 502.575066 491.860328 
L 534.765137 491.683279 
L 537.928323 491.624262 
L 561.187045 491.50623 
L 590.958209 491.32918 
L 591.330349 491.093115 
L 595.237814 490.945574 
L 629.660723 490.798033 
L 654.408003 490.650492 
L 668.735376 490.443934 
L 684.551307 490.001311 
L 685.853795 489.912787 
L 696.645842 489.676721 
L 703.158284 489.293115 
L 712.833913 489.086557 
L 717.299587 487.994754 
L 717.485657 487.876721 
L 719.160285 487.788197 
L 719.904564 487.375082 
L 720.090634 486.696393 
L 720.462774 486.519344 
L 720.648843 486.489836 
L 720.834913 485.545574 
L 721.951332 485.132459 
L 722.323471 484.63082 
L 722.695611 484.483279 
L 722.881681 484.12918 
L 723.06775 483.332459 
L 723.43989 482.683279 
L 723.62596 481.827541 
L 723.81203 480.20459 
L 724.370239 479.024262 
L 724.742378 473.742295 
L 724.928448 473.181639 
L 725.300588 469.788197 
L 725.486657 469.227541 
L 725.672727 467.752131 
L 725.858797 467.663607 
L 726.417006 465.745574 
L 726.603076 461.584918 
L 726.789146 461.23082 
L 727.161285 460.08 
L 727.347355 459.991475 
L 727.533425 459.371803 
L 727.719495 456.450492 
L 727.905565 455.742295 
L 728.091634 455.712787 
L 728.277704 453.617705 
L 728.463774 453.352131 
L 728.835913 453.20459 
L 729.580193 451.286557 
L 729.952332 450.696393 
L 730.510541 449.102951 
L 730.882681 444.617705 
L 731.254821 442.522623 
L 731.81303 442.434098 
L 732.185169 442.227541 
L 732.929449 441.076721 
L 733.301588 441.017705 
L 733.673728 438.568525 
L 733.859797 438.539016 
L 734.231937 438.125902 
L 734.418007 437.063607 
L 734.790146 436.709508 
L 734.976216 436.561967 
L 735.162286 436.060328 
L 735.720495 435.883279 
L 736.092635 435.617705 
L 736.464774 434.525902 
L 736.650844 434.437377 
L 737.022984 433.994754 
L 737.767263 433.670164 
L 737.953332 432.637377 
L 738.325472 432.43082 
L 738.511542 430.512787 
L 738.883681 430.45377 
L 739.255821 429.863607 
L 739.441891 429.302951 
L 740.0001 429.184918 
L 740.18617 429.007869 
L 740.558309 428.447213 
L 740.744379 428.417705 
L 741.116519 427.975082 
L 741.488658 427.857049 
L 741.674728 426.52918 
L 742.605077 426.381639 
L 742.791147 426.352131 
L 743.163286 426.116066 
L 743.907565 426.027541 
L 744.093635 425.909508 
L 746.698612 425.23082 
L 747.070752 424.994754 
L 748.0011 424.876721 
L 748.74538 424.522623 
L 750.606077 424.168525 
L 751.350356 421.984918 
L 752.280705 421.866885 
L 752.466775 421.807869 
L 753.955333 421.660328 
L 754.699612 421.394754 
L 755.816031 421.247213 
L 757.490659 420.657049 
L 757.862799 420.509508 
L 758.048868 420.450492 
L 758.234938 420.273443 
L 758.979217 420.037377 
L 759.909566 419.978361 
L 760.095636 419.771803 
L 760.467775 419.742295 
L 760.653845 419.299672 
L 760.839915 419.240656 
L 761.025985 418.620984 
L 763.817031 418.089836 
L 764.003101 417.735738 
L 765.30559 417.440656 
L 765.863799 417.263607 
L 766.608078 417.116066 
L 767.352357 416.939016 
L 768.282706 416.761967 
L 769.771264 416.201311 
L 770.143404 416.05377 
L 770.329474 415.463607 
L 771.259822 414.843934 
L 771.445892 414.578361 
L 772.376241 413.899672 
L 772.748381 413.28 
L 772.93445 413.250492 
L 773.30659 412.571803 
L 774.050869 411.80459 
L 774.609078 411.716066 
L 774.981218 411.450492 
L 775.167288 411.361967 
L 775.353358 411.066885 
L 776.283706 410.860328 
L 776.469776 410.594754 
L 778.330474 410.270164 
L 778.516544 410.122623 
L 779.446893 410.00459 
L 780.749381 409.502951 
L 781.30759 409.414426 
L 781.67973 408.912787 
L 782.051869 408.70623 
L 782.982218 408.116066 
L 783.168288 407.437377 
L 783.912567 407.23082 
L 784.656846 406.935738 
L 786.331474 406.08 
L 786.517544 405.784918 
L 787.075753 405.607869 
L 787.447893 405.401311 
L 788.006102 405.224262 
L 788.378242 402.184918 
L 788.564312 401.211148 
L 788.750381 399.440656 
L 788.936451 399.234098 
L 789.49466 397.375082 
L 790.05287 396.460328 
L 790.23894 396.401311 
L 790.611079 396.047213 
L 790.797149 395.161967 
L 790.983219 394.837377 
L 791.355358 394.748852 
L 791.913568 394.040656 
L 792.099637 393.509508 
L 792.657847 392.889836 
L 792.843916 392.093115 
L 793.774265 390.70623 
L 794.518544 390.411148 
L 794.704614 390.293115 
L 794.890684 389.525902 
L 795.448893 389.260328 
L 796.193172 388.493115 
L 796.379242 387.932459 
L 796.565312 387.902951 
L 797.123521 387.342295 
L 797.495661 387.312787 
L 797.681731 387.017705 
L 798.05387 386.840656 
L 798.61208 386.368525 
L 798.984219 386.161967 
L 799.170289 385.660328 
L 800.472777 384.745574 
L 800.658847 384.657049 
L 801.030987 383.565246 
L 801.589196 383.358689 
L 802.147405 383.211148 
L 802.519545 382.650492 
L 802.891684 382.384918 
L 803.449894 381.52918 
L 804.752382 381.175082 
L 805.310591 380.348852 
L 806.054871 380.201311 
L 806.985219 379.552131 
L 807.171289 379.522623 
L 807.729499 379.109508 
L 808.101638 378.991475 
L 808.473778 378.961967 
L 808.659847 378.784918 
L 808.845917 378.283279 
L 809.590196 378.076721 
L 809.776266 377.781639 
L 809.962336 377.752131 
L 810.148406 377.220984 
L 810.892685 376.984918 
L 811.264824 376.896393 
L 811.636964 376.63082 
L 813.683731 375.863607 
L 813.869801 375.096393 
L 814.241941 374.83082 
L 814.80015 374.65377 
L 815.358359 374.358689 
L 816.102638 374.240656 
L 816.288708 373.414426 
L 816.846918 373.178361 
L 817.032987 373.001311 
L 817.777266 372.85377 
L 817.963336 372.70623 
L 818.335476 372.647213 
L 818.521546 372.411148 
L 819.079755 372.234098 
L 819.265825 372.175082 
L 819.451894 371.850492 
L 819.824034 371.820984 
L 820.196174 371.614426 
L 820.754383 371.348852 
L 820.940453 370.994754 
L 822.242941 370.640656 
L 822.429011 370.463607 
L 822.98722 370.316066 
L 823.17329 370.050492 
L 823.35936 370.020984 
L 823.731499 369.784918 
L 824.103639 369.637377 
L 824.289709 369.489836 
L 825.406127 369.25377 
L 825.592197 368.92918 
L 826.150406 368.781639 
L 826.708616 368.693115 
L 827.080755 368.427541 
L 827.638965 368.28 
L 828.011104 368.161967 
L 828.197174 367.95541 
L 828.569313 367.896393 
L 828.755383 367.394754 
L 828.941453 367.30623 
L 829.313593 366.922623 
L 829.499662 366.302951 
L 829.871802 366.096393 
L 830.057872 366.007869 
L 830.430011 365.712787 
L 831.36036 365.034098 
L 831.7325 364.916066 
L 831.918569 364.591475 
L 832.290709 364.414426 
L 832.848918 364.089836 
L 833.407128 363.942295 
L 834.523546 362.968525 
L 834.895686 362.761967 
L 835.453895 362.407869 
L 836.012105 362.260328 
L 836.570314 362.142295 
L 836.756384 362.083279 
L 837.686733 361.345574 
L 838.244942 361.08 
L 839.91957 360.489836 
L 840.291709 360.25377 
L 840.849919 360.10623 
L 841.408128 359.811148 
L 841.966337 359.663607 
L 842.524547 359.427541 
L 843.640965 359.161967 
L 844.757384 358.483279 
L 845.687733 358.276721 
L 847.362361 357.568525 
L 847.548431 357.539016 
L 847.92057 357.15541 
L 848.10664 355.886557 
L 848.47878 355.591475 
L 848.850919 355.443934 
L 849.409128 354.735738 
L 849.781268 354.470164 
L 850.153408 353.673443 
L 850.525547 353.466885 
L 850.897687 353.289836 
L 851.269826 353.201311 
L 851.641966 352.965246 
L 851.828036 352.847213 
L 852.758384 352.640656 
L 853.130524 352.286557 
L 853.688733 351.873443 
L 854.060873 351.75541 
L 854.433012 351.401311 
L 855.549431 350.663607 
L 855.921571 350.634098 
L 856.10764 350.368525 
L 856.851919 350.191475 
L 857.037989 349.601311 
L 857.410129 349.30623 
L 858.154408 349.099672 
L 858.526547 348.952131 
L 858.712617 348.539016 
L 859.084757 348.420984 
L 859.270827 348.037377 
L 859.829036 347.65377 
L 860.201175 347.476721 
L 860.573315 347.388197 
L 860.945455 347.181639 
L 861.131524 347.152131 
L 861.503664 346.945574 
L 862.247943 346.561967 
L 862.620083 345.85377 
L 864.108641 345.145574 
L 864.294711 344.614426 
L 864.85292 344.407869 
L 865.411129 343.788197 
L 865.597199 343.72918 
L 865.969339 343.463607 
L 866.155408 343.434098 
L 866.527548 342.991475 
L 866.899687 342.784918 
L 867.643966 342.489836 
L 867.830036 342.194754 
L 868.202176 342.135738 
L 868.388246 341.92918 
L 868.574315 341.899672 
L 868.760385 341.309508 
L 869.318594 341.132459 
L 869.504664 341.043934 
L 869.876804 340.660328 
L 870.062874 340.542295 
L 870.621083 339.893115 
L 872.109641 339.037377 
L 872.66785 338.889836 
L 872.85392 338.801311 
L 873.22606 338.358689 
L 873.41213 338.299672 
L 874.342478 337.561967 
L 874.900688 337.325902 
L 875.272827 337.148852 
L 875.458897 337.119344 
L 875.644967 336.52918 
L 876.203176 336.175082 
L 876.389246 335.614426 
L 876.761386 335.348852 
L 876.947455 335.112787 
L 877.133525 335.083279 
L 877.877804 334.434098 
L 878.622083 334.139016 
L 878.994223 333.873443 
L 880.110641 333.401311 
L 881.04099 332.398033 
L 881.22706 332.368525 
L 881.5992 332.073443 
L 881.785269 331.866885 
L 881.971339 331.837377 
L 882.157409 331.512787 
L 884.576316 330.273443 
L 884.948456 330.037377 
L 885.320595 329.978361 
L 885.506665 329.83082 
L 886.064874 329.683279 
L 886.995223 329.034098 
L 888.297712 328.296393 
L 888.855921 328.060328 
L 889.41413 327.824262 
L 889.97234 327.588197 
L 890.344479 327.470164 
L 890.530549 326.407869 
L 891.088758 326.171803 
L 891.274828 325.90623 
L 891.460898 325.876721 
L 892.205177 324.784918 
L 892.391247 324.696393 
L 892.577316 324.342295 
L 892.949456 324.224262 
L 893.693735 323.250492 
L 894.065875 321.922623 
L 894.251944 321.509508 
L 894.624084 319.384918 
L 894.810154 318.499672 
L 895.740503 317.496393 
L 896.484782 314.870164 
L 896.670852 314.722623 
L 896.856921 314.339016 
L 897.042991 312.952131 
L 897.229061 312.539016 
L 897.415131 312.509508 
L 897.6012 311.860328 
L 898.15941 311.50623 
L 898.531549 310.561967 
L 900.578317 309.558689 
L 901.136526 308.939016 
L 901.508666 308.319344 
L 901.880805 308.201311 
L 902.252945 308.05377 
L 902.625084 307.847213 
L 902.997224 307.670164 
L 903.927573 307.434098 
L 904.299712 307.257049 
L 904.857922 307.198033 
L 906.53255 305.988197 
L 906.904689 305.781639 
L 907.090759 305.516066 
L 907.835038 305.250492 
L 908.021108 305.161967 
L 908.207178 304.512787 
L 908.765387 304.099672 
L 909.137527 304.040656 
L 909.881806 303.539016 
L 910.812155 303.214426 
L 911.184294 302.860328 
L 911.556434 302.801311 
L 912.114643 301.798033 
L 912.486783 301.650492 
L 913.044992 300.676721 
L 913.231062 300.116066 
L 913.417131 300.057049 
L 913.789271 299.791475 
L 914.161411 299.525902 
L 914.34748 299.260328 
L 914.71962 298.109508 
L 914.90569 297.873443 
L 915.091759 297.25377 
L 915.277829 297.194754 
L 915.463899 296.693115 
L 915.836039 296.516066 
L 916.952457 295.601311 
L 917.138527 295.188197 
L 917.510666 295.099672 
L 918.254946 294.745574 
L 918.999225 294.509508 
L 919.185294 293.889836 
L 919.929574 293.358689 
L 920.673853 293.122623 
L 921.232062 292.739016 
L 921.976341 292.237377 
L 922.348481 291.883279 
L 922.72062 291.647213 
L 922.90669 291.381639 
L 923.09276 290.791475 
L 924.209178 290.319344 
L 924.581318 289.876721 
L 924.953458 289.788197 
L 925.139527 289.434098 
L 925.511667 289.286557 
L 925.697737 288.991475 
L 927.744504 287.899672 
L 928.674853 287.014426 
L 929.605202 285.214426 
L 930.349481 281.732459 
L 930.721621 281.024262 
L 930.90769 280.670164 
L 931.09376 279.10623 
L 931.27983 276.096393 
L 932.582318 267.863607 
L 932.954458 263.850492 
L 933.326597 263.289836 
L 933.698737 258.096393 
L 933.884807 256.739016 
L 934.256946 251.073443 
L 934.629086 249.981639 
L 934.815156 247.03082 
L 935.001225 246.499672 
L 935.373365 243.283279 
L 935.745505 234.607869 
L 935.931574 234.135738 
L 936.117644 233.309508 
L 936.303714 230.65377 
L 936.489784 230.447213 
L 936.861923 225.991475 
L 937.234063 225.784918 
L 937.606202 224.958689 
L 937.792272 224.781639 
L 937.978342 224.368525 
L 938.164412 223.542295 
L 938.536551 223.365246 
L 939.094761 221.771803 
L 939.4669 219.52918 
L 939.65297 219.116066 
L 939.83904 219.057049 
L 940.025109 218.850492 
L 940.955458 216.75541 
L 941.141528 216.696393 
L 941.513668 216.135738 
L 941.885807 215.988197 
L 942.071877 215.545574 
L 942.257947 215.398033 
L 942.630086 214.896393 
L 943.002226 214.601311 
L 943.560435 214.12918 
L 943.746505 214.099672 
L 944.304714 213.539016 
L 944.862924 213.15541 
L 945.048993 213.096393 
L 945.793272 212.948852 
L 945.979342 212.771803 
L 946.351482 212.712787 
L 946.909691 212.32918 
L 948.398249 211.650492 
L 948.584319 211.237377 
L 949.514668 211.001311 
L 950.258947 210.440656 
L 950.817156 209.909508 
L 951.189296 209.525902 
L 951.933575 209.260328 
L 952.491784 208.90623 
L 952.863924 208.640656 
L 953.236064 208.375082 
L 953.608203 208.168525 
L 953.794273 207.489836 
L 954.538552 207.017705 
L 954.724622 206.752131 
L 955.096761 206.545574 
L 955.654971 206.161967 
L 956.771389 205.542295 
L 956.957459 205.394754 
L 957.515668 205.335738 
L 957.887808 204.48 
L 958.073878 204.391475 
L 958.446017 203.919344 
L 959.190296 203.240656 
L 959.376366 203.152131 
L 959.934575 202.414426 
L 960.120645 201.824262 
L 960.306715 201.676721 
L 960.678855 201.617705 
L 961.050994 201.263607 
L 961.795273 200.909508 
L 962.167413 200.791475 
L 962.911692 200.024262 
L 963.097762 199.994754 
L 963.283831 196.512787 
L 963.655971 196.040656 
L 964.028111 195.716066 
L 964.21418 195.361967 
L 964.40025 195.332459 
L 964.77239 194.948852 
L 964.958459 194.388197 
L 966.074878 193.207869 
L 966.260948 192.912787 
L 966.633087 191.201311 
L 967.191297 189.489836 
L 967.377367 188.368525 
L 967.749506 187.45377 
L 967.935576 186.745574 
L 968.679855 185.919344 
L 969.051994 185.447213 
L 969.424134 185.034098 
L 969.982343 184.857049 
L 970.540553 184.325902 
L 971.098762 183.411148 
L 971.284832 183.352131 
L 971.656971 182.968525 
L 971.843041 182.791475 
L 972.215181 182.083279 
L 972.58732 181.670164 
L 972.77339 180.696393 
L 974.075878 179.811148 
L 975.378367 178.12918 
L 975.750506 177.184918 
L 975.936576 177.007869 
L 976.494786 175.768525 
L 976.680855 175.68 
L 976.866925 175.119344 
L 977.052995 174.912787 
L 977.611204 173.289836 
L 978.169414 172.434098 
L 978.727623 172.109508 
L 978.913693 171.607869 
L 979.844042 170.634098 
L 980.030111 170.191475 
L 980.77439 167.594754 
L 980.96046 167.152131 
L 981.14653 165.617705 
L 981.3326 165.381639 
L 981.51867 164.083279 
L 981.890809 163.522623 
L 982.076879 162.991475 
L 982.449018 160.660328 
L 982.821158 159.80459 
L 983.007228 159.627541 
L 983.193297 152.014426 
L 983.379367 149.093115 
L 983.565437 131.742295 
L 984.123646 130.532459 
L 984.309716 130.35541 
L 984.681856 128.939016 
L 985.053995 127.994754 
L 986.170414 120.588197 
L 986.728623 119.083279 
L 986.914693 117.283279 
L 987.286833 116.663607 
L 987.658972 115.247213 
L 987.845042 113.50623 
L 988.031112 113.093115 
L 988.403251 111.85377 
L 988.961461 110.939016 
L 989.14753 110.820984 
L 989.70574 108.637377 
L 990.450019 105.952131 
L 990.636089 105.450492 
L 991.008228 103.207869 
L 991.566437 102.883279 
L 991.938577 102.470164 
L 992.310717 101.407869 
L 992.682856 100.994754 
L 992.868926 100.463607 
L 993.054996 99.578361 
L 993.613205 98.545574 
L 993.799275 98.043934 
L 994.171414 96.243934 
L 994.357484 95.948852 
L 994.543554 95.889836 
L 994.915693 93.824262 
L 995.101763 93.440656 
L 995.659972 90.548852 
L 995.846042 90.224262 
L 996.032112 89.309508 
L 996.218182 89.28 
L 996.218182 89.28 
" clip-path="url(#pbee9aa66ed)" style="fill: none; stroke: #1f77b4; stroke-width: 1.5; stroke-linecap: square"/>
   </g>
   <g id="patch_3">
    <path d="M 144 512.64 
L 144 69.12 
" style="fill: none; stroke: #000000; stroke-width: 0.8; stroke-linejoin: miter; stroke-linecap: square"/>
   </g>
   <g id="patch_4">
    <path d="M 1036.8 512.64 
L 1036.8 69.12 
" style="fill: none; stroke: #000000; stroke-width: 0.8; stroke-linejoin: miter; stroke-linecap: square"/>
   </g>
   <g id="patch_5">
    <path d="M 144 512.64 
L 1036.8 512.64 
" style="fill: none; stroke: #000000; stroke-width: 0.8; stroke-linejoin: miter; stroke-linecap: square"/>
   </g>
   <g id="patch_6">
    <path d="M 144 69.12 
L 1036.8 69.12 
" style="fill: none; stroke: #000000; stroke-width: 0.8; stroke-linejoin: miter; stroke-linecap: square"/>
   </g>
   <g id="text_16">
    <!-- Number of AEDs in the OpenStreetMap database in Poland from first edition, day by day. As at: 2026-01-20 -->
    <g transform="translate(144 63.12) scale(0.14 -0.14)">
     <defs>
      <path id="DejaVuSans-4e" d="M 628 4666 
L 1478 4666 
L 3547 763 
L 3547 4666 
L 4159 4666 
L 4159 0 
L 3309 0 
L 1241 3903 
L 1241 0 
L 628 0 
L 628 4666 
z
" transform="scale(0.015625)"/>
      <path id="DejaVuSans-75" d="M 544 1381 
L 544 3500 
L 1119 3500 
L 1119 1403 
Q 1119 906 1312 657 
Q 1506 409 1894 409 
Q 2359 409 2629 706 
Q 2900 1003 2900 1516 
L 2900 3500 
L 3475 3500 
L 3475 0 
L 2900 0 
L 2900 538 
Q 2691 219 2414 64 
Q 2138 -91 1772 -91 
Q 1169 -91 856 284 
Q 544 659 544 1381 
z
M 1991 3584 
L 1991 3584 
z
" transform="scale(0.015625)"/>
      <path id="DejaVuSans-6d" d="M 3328 2828 
Q 3544 3216 3844 3400 
Q 4144 3584 4550 3584 
Q 5097 3584 5394 3201 
Q 5691 2819 5691 2113 
L 5691 0 
L 5113 0 
L 5113 2094 
Q 5113 2597 4934 2840 
Q 4756 3084 4391 3084 
Q 3944 3084 3684 2787 
Q 3425 2491 3425 1978 
L 3425 0 
L 2847 0 
L 2847 2094 
Q 2847 2600 2669 2842 
Q 2491 3084 2119 3084 
Q 1678 3084 1418 2786 
Q 1159 2488 1159 1978 
L 1159 0 
L 581 0 
L 581 3500 
L 1159 3500 
L 1159 2956 
Q 1356 3278 1631 3431 
Q 1906 3584 2284 3584 
Q 2666 3584 2933 3390 
Q 3200 3197 3328 2828 
z
" transform="scale(0.015625)"/>
      <path id="DejaVuSans-62" d="M 3116 1747 
Q 3116 2381 2855 2742 
Q 2594 3103 2138 3103 
Q 1681 3103 1420 2742 
Q 1159 2381 1159 1747 
Q 1159 1113 1420 752 
Q 1681 391 2138 391 
Q 2594 391 2855 752 
Q 3116 1113 3116 1747 
z
M 1159 2969 
Q 1341 3281 1617 3432 
Q 1894 3584 2278 3584 
Q 2916 3584 3314 3078 
Q 3713 2572 3713 1747 
Q 3713 922 3314 415 
Q 2916 -91 2278 -91 
Q 1894 -91 1617 61 
Q 1341 213 1159 525 
L 1159 0 
L 581 0 
L 581 4863 
L 1159 4863 
L 1159 2969 
z
" transform="scale(0.015625)"/>
      <path id="DejaVuSans-65" d="M 3597 1894 
L 3597 1613 
L 953 1613 
Q 991 1019 1311 708 
Q 1631 397 2203 397 
Q 2534 397 2845 478 
Q 3156 559 3463 722 
L 3463 178 
Q 3153 47 2828 -22 
Q 2503 -91 2169 -91 
Q 1331 -91 842 396 
Q 353 884 353 1716 
Q 353 2575 817 3079 
Q 1281 3584 2069 3584 
Q 2775 3584 3186 3129 
Q 3597 2675 3597 1894 
z
M 3022 2063 
Q 3016 2534 2758 2815 
Q 2500 3097 2075 3097 
Q 1594 3097 1305 2825 
Q 1016 2553 972 2059 
L 3022 2063 
z
" transform="scale(0.015625)"/>
      <path id="DejaVuSans-72" d="M 2631 2963 
Q 2534 3019 2420 3045 
Q 2306 3072 2169 3072 
Q 1681 3072 1420 2755 
Q 1159 2438 1159 1844 
L 1159 0 
L 581 0 
L 581 3500 
L 1159 3500 
L 1159 2956 
Q 1341 3275 1631 3429 
Q 1922 3584 2338 3584 
Q 2397 3584 2469 3576 
Q 2541 3569 2628 3553 
L 2631 2963 
z
" transform="scale(0.015625)"/>
      <path id="DejaVuSans-20" transform="scale(0.015625)"/>
      <path id="DejaVuSans-6f" d="M 1959 3097 
Q 1497 3097 1228 2736 
Q 959 2375 959 1747 
Q 959 1119 1226 758 
Q 1494 397 1959 397 
Q 2419 397 2687 759 
Q 2956 1122 2956 1747 
Q 2956 2369 2687 2733 
Q 2419 3097 1959 3097 
z
M 1959 3584 
Q 2709 3584 3137 3096 
Q 3566 2609 3566 1747 
Q 3566 888 3137 398 
Q 2709 -91 1959 -91 
Q 1206 -91 779 398 
Q 353 888 353 1747 
Q 353 2609 779 3096 
Q 1206 3584 1959 3584 
z
" transform="scale(0.015625)"/>
      <path id="DejaVuSans-66" d="M 2375 4863 
L 2375 4384 
L 1825 4384 
Q 1516 4384 1395 4259 
Q 1275 4134 1275 3809 
L 1275 3500 
L 2222 3500 
L 2222 3053 
L 1275 3053 
L 1275 0 
L 697 0 
L 697 3053 
L 147 3053 
L 147 3500 
L 697 3500 
L 697 3744 
Q 697 4328 969 4595 
Q 1241 4863 1831 4863 
L 2375 4863 
z
" transform="scale(0.015625)"/>
      <path id="DejaVuSans-41" d="M 2188 4044 
L 1331 1722 
L 3047 1722 
L 2188 4044 
z
M 1831 4666 
L 2547 4666 
L 4325 0 
L 3669 0 
L 3244 1197 
L 1141 1197 
L 716 0 
L 50 0 
L 1831 4666 
z
" transform="scale(0.015625)"/>
      <path id="DejaVuSans-45" d="M 628 4666 
L 3578 4666 
L 3578 4134 
L 1259 4134 
L 1259 2753 
L 3481 2753 
L 3481 2222 
L 1259 2222 
L 1259 531 
L 3634 531 
L 3634 0 
L 628 0 
L 628 4666 
z
" transform="scale(0.015625)"/>
      <path id="DejaVuSans-44" d="M 1259 4147 
L 1259 519 
L 2022 519 
Q 2988 519 3436 956 
Q 3884 1394 3884 2338 
Q 3884 3275 3436 3711 
Q 2988 4147 2022 4147 
L 1259 4147 
z
M 628 4666 
L 1925 4666 
Q 3281 4666 3915 4102 
Q 4550 3538 4550 2338 
Q 4550 1131 3912 565 
Q 3275 0 1925 0 
L 628 0 
L 628 4666 
z
" transform="scale(0.015625)"/>
      <path id="DejaVuSans-73" d="M 2834 3397 
L 2834 2853 
Q 2591 2978 2328 3040 
Q 2066 3103 1784 3103 
Q 1356 3103 1142 2972 
Q 928 2841 928 2578 
Q 928 2378 1081 2264 
Q 1234 2150 1697 2047 
L 1894 2003 
Q 2506 1872 2764 1633 
Q 3022 1394 3022 966 
Q 3022 478 2636 193 
Q 2250 -91 1575 -91 
Q 1294 -91 989 -36 
Q 684 19 347 128 
L 347 722 
Q 666 556 975 473 
Q 1284 391 1588 391 
Q 1994 391 2212 530 
Q 2431 669 2431 922 
Q 2431 1156 2273 1281 
Q 2116 1406 1581 1522 
L 1381 1569 
Q 847 1681 609 1914 
Q 372 2147 372 2553 
Q 372 3047 722 3315 
Q 1072 3584 1716 3584 
Q 2034 3584 2315 3537 
Q 2597 3491 2834 3397 
z
" transform="scale(0.015625)"/>
      <path id="DejaVuSans-69" d="M 603 3500 
L 1178 3500 
L 1178 0 
L 603 0 
L 603 3500 
z
M 603 4863 
L 1178 4863 
L 1178 4134 
L 603 4134 
L 603 4863 
z
" transform="scale(0.015625)"/>
      <path id="DejaVuSans-6e" d="M 3513 2113 
L 3513 0 
L 2938 0 
L 2938 2094 
Q 2938 2591 2744 2837 
Q 2550 3084 2163 3084 
Q 1697 3084 1428 2787 
Q 1159 2491 1159 1978 
L 1159 0 
L 581 0 
L 581 3500 
L 1159 3500 
L 1159 2956 
Q 1366 3272 1645 3428 
Q 1925 3584 2291 3584 
Q 2894 3584 3203 3211 
Q 3513 2838 3513 2113 
z
" transform="scale(0.015625)"/>
      <path id="DejaVuSans-74" d="M 1172 4494 
L 1172 3500 
L 2356 3500 
L 2356 3053 
L 1172 3053 
L 1172 1153 
Q 1172 725 1289 603 
Q 1406 481 1766 481 
L 2356 481 
L 2356 0 
L 1766 0 
Q 1100 0 847 248 
Q 594 497 594 1153 
L 594 3053 
L 172 3053 
L 172 3500 
L 594 3500 
L 594 4494 
L 1172 4494 
z
" transform="scale(0.015625)"/>
      <path id="DejaVuSans-68" d="M 3513 2113 
L 3513 0 
L 2938 0 
L 2938 2094 
Q 2938 2591 2744 2837 
Q 2550 3084 2163 3084 
Q 1697 3084 1428 2787 
Q 1159 2491 1159 1978 
L 1159 0 
L 581 0 
L 581 4863 
L 1159 4863 
L 1159 2956 
Q 1366 3272 1645 3428 
Q 1925 3584 2291 3584 
Q 2894 3584 3203 3211 
Q 3513 2838 3513 2113 
z
" transform="scale(0.015625)"/>
      <path id="DejaVuSans-4f" d="M 2522 4238 
Q 1834 4238 1429 3725 
Q 1025 3213 1025 2328 
Q 1025 1447 1429 934 
Q 1834 422 2522 422 
Q 3209 422 3611 934 
Q 4013 1447 4013 2328 
Q 4013 3213 3611 3725 
Q 3209 4238 2522 4238 
z
M 2522 4750 
Q 3503 4750 4090 4092 
Q 4678 3434 4678 2328 
Q 4678 1225 4090 567 
Q 3503 -91 2522 -91 
Q 1538 -91 948 565 
Q 359 1222 359 2328 
Q 359 3434 948 4092 
Q 1538 4750 2522 4750 
z
" transform="scale(0.015625)"/>
      <path id="DejaVuSans-70" d="M 1159 525 
L 1159 -1331 
L 581 -1331 
L 581 3500 
L 1159 3500 
L 1159 2969 
Q 1341 3281 1617 3432 
Q 1894 3584 2278 3584 
Q 2916 3584 3314 3078 
Q 3713 2572 3713 1747 
Q 3713 922 3314 415 
Q 2916 -91 2278 -91 
Q 1894 -91 1617 61 
Q 1341 213 1159 525 
z
M 3116 1747 
Q 3116 2381 2855 2742 
Q 2594 3103 2138 3103 
Q 1681 3103 1420 2742 
Q 1159 2381 1159 1747 
Q 1159 1113 1420 752 
Q 1681 391 2138 391 
Q 2594 391 2855 752 
Q 3116 1113 3116 1747 
z
" transform="scale(0.015625)"/>
      <path id="DejaVuSans-53" d="M 3425 4513 
L 3425 3897 
Q 3066 4069 2747 4153 
Q 2428 4238 2131 4238 
Q 1616 4238 1336 4038 
Q 1056 3838 1056 3469 
Q 1056 3159 1242 3001 
Q 1428 2844 1947 2747 
L 2328 2669 
Q 3034 2534 3370 2195 
Q 3706 1856 3706 1288 
Q 3706 609 3251 259 
Q 2797 -91 1919 -91 
Q 1588 -91 1214 -16 
Q 841 59 441 206 
L 441 856 
Q 825 641 1194 531 
Q 1563 422 1919 422 
Q 2459 422 2753 634 
Q 3047 847 3047 1241 
Q 3047 1584 2836 1778 
Q 2625 1972 2144 2069 
L 1759 2144 
Q 1053 2284 737 2584 
Q 422 2884 422 3419 
Q 422 4038 858 4394 
Q 1294 4750 2059 4750 
Q 2388 4750 2728 4690 
Q 3069 4631 3425 4513 
z
" transform="scale(0.015625)"/>
      <path id="DejaVuSans-4d" d="M 628 4666 
L 1569 4666 
L 2759 1491 
L 3956 4666 
L 4897 4666 
L 4897 0 
L 4281 0 
L 4281 4097 
L 3078 897 
L 2444 897 
L 1241 4097 
L 1241 0 
L 628 0 
L 628 4666 
z
" transform="scale(0.015625)"/>
      <path id="DejaVuSans-61" d="M 2194 1759 
Q 1497 1759 1228 1600 
Q 959 1441 959 1056 
Q 959 750 1161 570 
Q 1363 391 1709 391 
Q 2188 391 2477 730 
Q 2766 1069 2766 1631 
L 2766 1759 
L 2194 1759 
z
M 3341 1997 
L 3341 0 
L 2766 0 
L 2766 531 
Q 2569 213 2275 61 
Q 1981 -91 1556 -91 
Q 1019 -91 701 211 
Q 384 513 384 1019 
Q 384 1609 779 1909 
Q 1175 2209 1959 2209 
L 2766 2209 
L 2766 2266 
Q 2766 2663 2505 2880 
Q 2244 3097 1772 3097 
Q 1472 3097 1187 3025 
Q 903 2953 641 2809 
L 641 3341 
Q 956 3463 1253 3523 
Q 1550 3584 1831 3584 
Q 2591 3584 2966 3190 
Q 3341 2797 3341 1997 
z
" transform="scale(0.015625)"/>
      <path id="DejaVuSans-64" d="M 2906 2969 
L 2906 4863 
L 3481 4863 
L 3481 0 
L 2906 0 
L 2906 525 
Q 2725 213 2448 61 
Q 2172 -91 1784 -91 
Q 1150 -91 751 415 
Q 353 922 353 1747 
Q 353 2572 751 3078 
Q 1150 3584 1784 3584 
Q 2172 3584 2448 3432 
Q 2725 3281 2906 2969 
z
M 947 1747 
Q 947 1113 1208 752 
Q 1469 391 1925 391 
Q 2381 391 2643 752 
Q 2906 1113 2906 1747 
Q 2906 2381 2643 2742 
Q 2381 3103 1925 3103 
Q 1469 3103 1208 2742 
Q 947 2381 947 1747 
z
" transform="scale(0.015625)"/>
      <path id="DejaVuSans-50" d="M 1259 4147 
L 1259 2394 
L 2053 2394 
Q 2494 2394 2734 2622 
Q 2975 2850 2975 3272 
Q 2975 3691 2734 3919 
Q 2494 4147 2053 4147 
L 1259 4147 
z
M 628 4666 
L 2053 4666 
Q 2838 4666 3239 4311 
Q 3641 3956 3641 3272 
Q 3641 2581 3239 2228 
Q 2838 1875 2053 1875 
L 1259 1875 
L 1259 0 
L 628 0 
L 628 4666 
z
" transform="scale(0.015625)"/>
      <path id="DejaVuSans-6c" d="M 603 4863 
L 1178 4863 
L 1178 0 
L 603 0 
L 603 4863 
z
" transform="scale(0.015625)"/>
      <path id="DejaVuSans-2c" d="M 750 794 
L 1409 794 
L 1409 256 
L 897 -744 
L 494 -744 
L 750 256 
L 750 794 
z
" transform="scale(0.015625)"/>
      <path id="DejaVuSans-79" d="M 2059 -325 
Q 1816 -950 1584 -1140 
Q 1353 -1331 966 -1331 
L 506 -1331 
L 506 -850 
L 844 -850 
Q 1081 -850 1212 -737 
Q 1344 -625 1503 -206 
L 1606 56 
L 191 3500 
L 800 3500 
L 1894 763 
L 2988 3500 
L 3597 3500 
L 2059 -325 
z
" transform="scale(0.015625)"/>
      <path id="DejaVuSans-2e" d="M 684 794 
L 1344 794 
L 1344 0 
L 684 0 
L 684 794 
z
" transform="scale(0.015625)"/>
      <path id="DejaVuSans-3a" d="M 750 794 
L 1409 794 
L 1409 0 
L 750 0 
L 750 794 
z
M 750 3309 
L 1409 3309 
L 1409 2516 
L 750 2516 
L 750 3309 
z
" transform="scale(0.015625)"/>
      <path id="DejaVuSans-2d" d="M 313 2009 
L 1997 2009 
L 1997 1497 
L 313 1497 
L 313 2009 
z
" transform="scale(0.015625)"/>
     </defs>
     <use xlink:href="#DejaVuSans-4e"/>
     <use xlink:href="#DejaVuSans-75" x="74.804688"/>
     <use xlink:href="#DejaVuSans-6d" x="138.183594"/>
     <use xlink:href="#DejaVuSans-62" x="235.595703"/>
     <use xlink:href="#DejaVuSans-65" x="299.072266"/>
     <use xlink:href="#DejaVuSans-72" x="360.595703"/>
     <use xlink:href="#DejaVuSans-20" x="401.708984"/>
     <use xlink:href="#DejaVuSans-6f" x="433.496094"/>
     <use xlink:href="#DejaVuSans-66" x="494.677734"/>
     <use xlink:href="#DejaVuSans-20" x="529.882812"/>
     <use xlink:href="#DejaVuSans-41" x="561.669922"/>
     <use xlink:href="#DejaVuSans-45" x="630.078125"/>
     <use xlink:href="#DejaVuSans-44" x="693.261719"/>
     <use xlink:href="#DejaVuSans-73" x="770.263672"/>
     <use xlink:href="#DejaVuSans-20" x="822.363281"/>
     <use xlink:href="#DejaVuSans-69" x="854.150391"/>
     <use xlink:href="#DejaVuSans-6e" x="881.933594"/>
     <use xlink:href="#DejaVuSans-20" x="945.3125"/>
     <use xlink:href="#DejaVuSans-74" x="977.099609"/>
     <use xlink:href="#DejaVuSans-68" x="1016.308594"/>
     <use xlink:href="#DejaVuSans-65" x="1079.6875"/>
     <use xlink:href="#DejaVuSans-20" x="1141.210938"/>
     <use xlink:href="#DejaVuSans-4f" x="1172.998047"/>
     <use xlink:href="#DejaVuSans-70" x="1251.708984"/>
     <use xlink:href="#DejaVuSans-65" x="1315.185547"/>
     <use xlink:href="#DejaVuSans-6e" x="1376.708984"/>
     <use xlink:href="#DejaVuSans-53" x="1440.087891"/>
     <use xlink:href="#DejaVuSans-74" x="1503.564453"/>
     <use xlink:href="#DejaVuSans-72" x="1542.773438"/>
     <use xlink:href="#DejaVuSans-65" x="1581.636719"/>
     <use xlink:href="#DejaVuSans-65" x="1643.160156"/>
     <use xlink:href="#DejaVuSans-74" x="1704.683594"/>
     <use xlink:href="#DejaVuSans-4d" x="1743.892578"/>
     <use xlink:href="#DejaVuSans-61" x="1830.171875"/>
     <use xlink:href="#DejaVuSans-70" x="1891.451172"/>
     <use xlink:href="#DejaVuSans-20" x="1954.927734"/>
     <use xlink:href="#DejaVuSans-64" x="1986.714844"/>
     <use xlink:href="#DejaVuSans-61" x="2050.191406"/>
     <use xlink:href="#DejaVuSans-74" x="2111.470703"/>
     <use xlink:href="#DejaVuSans-61" x="2150.679688"/>
     <use xlink:href="#DejaVuSans-62" x="2211.958984"/>
     <use xlink:href="#DejaVuSans-61" x="2275.435547"/>
     <use xlink:href="#DejaVuSans-73" x="2336.714844"/>
     <use xlink:href="#DejaVuSans-65" x="2388.814453"/>
     <use xlink:href="#DejaVuSans-20" x="2450.337891"/>
     <use xlink:href="#DejaVuSans-69" x="2482.125"/>
     <use xlink:href="#DejaVuSans-6e" x="2509.908203"/>
     <use xlink:href="#DejaVuSans-20" x="2573.287109"/>
     <use xlink:href="#DejaVuSans-50" x="2605.074219"/>
     <use xlink:href="#DejaVuSans-6f" x="2661.751953"/>
     <use xlink:href="#DejaVuSans-6c" x="2722.933594"/>
     <use xlink:href="#DejaVuSans-61" x="2750.716797"/>
     <use xlink:href="#DejaVuSans-6e" x="2811.996094"/>
     <use xlink:href="#DejaVuSans-64" x="2875.375"/>
     <use xlink:href="#DejaVuSans-20" x="2938.851562"/>
     <use xlink:href="#DejaVuSans-66" x="2970.638672"/>
     <use xlink:href="#DejaVuSans-72" x="3005.84375"/>
     <use xlink:href="#DejaVuSans-6f" x="3044.707031"/>
     <use xlink:href="#DejaVuSans-6d" x="3105.888672"/>
     <use xlink:href="#DejaVuSans-20" x="3203.300781"/>
     <use xlink:href="#DejaVuSans-66" x="3235.087891"/>
     <use xlink:href="#DejaVuSans-69" x="3270.292969"/>
     <use xlink:href="#DejaVuSans-72" x="3298.076172"/>
     <use xlink:href="#DejaVuSans-73" x="3339.189453"/>
     <use xlink:href="#DejaVuSans-74" x="3391.289062"/>
     <use xlink:href="#DejaVuSans-20" x="3430.498047"/>
     <use xlink:href="#DejaVuSans-65" x="3462.285156"/>
     <use xlink:href="#DejaVuSans-64" x="3523.808594"/>
     <use xlink:href="#DejaVuSans-69" x="3587.285156"/>
     <use xlink:href="#DejaVuSans-74" x="3615.068359"/>
     <use xlink:href="#DejaVuSans-69" x="3654.277344"/>
     <use xlink:href="#DejaVuSans-6f" x="3682.060547"/>
     <use xlink:href="#DejaVuSans-6e" x="3743.242188"/>
     <use xlink:href="#DejaVuSans-2c" x="3806.621094"/>
     <use xlink:href="#DejaVuSans-20" x="3838.408203"/>
     <use xlink:href="#DejaVuSans-64" x="3870.195312"/>
     <use xlink:href="#DejaVuSans-61" x="3933.671875"/>
     <use xlink:href="#DejaVuSans-79" x="3994.951172"/>
     <use xlink:href="#DejaVuSans-20" x="4054.130859"/>
     <use xlink:href="#DejaVuSans-62" x="4085.917969"/>
     <use xlink:href="#DejaVuSans-79" x="4149.394531"/>
     <use xlink:href="#DejaVuSans-20" x="4208.574219"/>
     <use xlink:href="#DejaVuSans-64" x="4240.361328"/>
     <use xlink:href="#DejaVuSans-61" x="4303.837891"/>
     <use xlink:href="#DejaVuSans-79" x="4365.117188"/>
     <use xlink:href="#DejaVuSans-2e" x="4410.046875"/>
     <use xlink:href="#DejaVuSans-20" x="4441.833984"/>
     <use xlink:href="#DejaVuSans-41" x="4473.621094"/>
     <use xlink:href="#DejaVuSans-73" x="4542.029297"/>
     <use xlink:href="#DejaVuSans-20" x="4594.128906"/>
     <use xlink:href="#DejaVuSans-61" x="4625.916016"/>
     <use xlink:href="#DejaVuSans-74" x="4687.195312"/>
     <use xlink:href="#DejaVuSans-3a" x="4726.404297"/>
     <use xlink:href="#DejaVuSans-20" x="4760.095703"/>
     <use xlink:href="#DejaVuSans-32" x="4791.882812"/>
     <use xlink:href="#DejaVuSans-30" x="4855.505859"/>
     <use xlink:href="#DejaVuSans-32" x="4919.128906"/>
     <use xlink:href="#DejaVuSans-36" x="4982.751953"/>
     <use xlink:href="#DejaVuSans-2d" x="5046.375"/>
     <use xlink:href="#DejaVuSans-30" x="5082.458984"/>
     <use xlink:href="#DejaVuSans-31" x="5146.082031"/>
     <use xlink:href="#DejaVuSans-2d" x="5209.705078"/>
     <use xlink:href="#DejaVuSans-32" x="5245.789062"/>
     <use xlink:href="#DejaVuSans-30" x="5309.412109"/>
    </g>
   </g>
  </g>
 </g>
 <defs>
  <clipPath id="pbee9aa66ed">
   <rect x="144" y="69.12" width="892.8" height="443.52"/>
  </clipPath>
 </defs>
</svg>
