<?xml version="1.0" encoding="utf-8" standalone="no"?>
<!DOCTYPE svg PUBLIC "-//W3C//DTD SVG 1.1//EN"
  "http://www.w3.org/Graphics/SVG/1.1/DTD/svg11.dtd">
<svg xmlns:xlink="http://www.w3.org/1999/xlink" width="1152pt" height="576pt" viewBox="0 0 1152 576" xmlns="http://www.w3.org/2000/svg" version="1.1">
 <metadata>
  <rdf:RDF xmlns:dc="http://purl.org/dc/elements/1.1/" xmlns:cc="http://creativecommons.org/ns#" xmlns:rdf="http://www.w3.org/1999/02/22-rdf-syntax-ns#">
   <cc:Work>
    <dc:type rdf:resource="http://purl.org/dc/dcmitype/StillImage"/>
    <dc:date>1980-01-01T00:00:00+00:00</dc:date>
    <dc:format>image/svg+xml</dc:format>
    <dc:creator>
     <cc:Agent>
      <dc:title>Matplotlib v3.9.1, https://matplotlib.org/</dc:title>
     </cc:Agent>
    </dc:creator>
   </cc:Work>
  </rdf:RDF>
 </metadata>
 <defs>
  <style type="text/css">*{stroke-linejoin: round; stroke-linecap: butt}</style>
 </defs>
 <g id="figure_1">
  <g id="patch_1">
   <path d="M 0 576 
L 1152 576 
L 1152 0 
L 0 0 
z
" style="fill: #ffffff"/>
  </g>
  <g id="axes_1">
   <g id="patch_2">
    <path d="M 144 512.64 
L 1036.8 512.64 
L 1036.8 69.12 
L 144 69.12 
z
" style="fill: #ffffff"/>
   </g>
   <g id="matplotlib.axis_1">
    <g id="xtick_1">
     <g id="line2d_1">
      <defs>
       <path id="mbf8fd524fe" d="M 0 0 
L 0 3.5 
" style="stroke: #000000; stroke-width: 0.8"/>
      </defs>
      <g>
       <use xlink:href="#mbf8fd524fe" x="176.998203" y="512.64" style="stroke: #000000; stroke-width: 0.8"/>
      </g>
     </g>
     <g id="text_1">
      <!-- 2014 -->
      <g transform="translate(164.273203 527.238438) scale(0.1 -0.1)">
       <defs>
        <path id="DejaVuSans-32" d="M 1228 531 
L 3431 531 
L 3431 0 
L 469 0 
L 469 531 
Q 828 903 1448 1529 
Q 2069 2156 2228 2338 
Q 2531 2678 2651 2914 
Q 2772 3150 2772 3378 
Q 2772 3750 2511 3984 
Q 2250 4219 1831 4219 
Q 1534 4219 1204 4116 
Q 875 4013 500 3803 
L 500 4441 
Q 881 4594 1212 4672 
Q 1544 4750 1819 4750 
Q 2544 4750 2975 4387 
Q 3406 4025 3406 3419 
Q 3406 3131 3298 2873 
Q 3191 2616 2906 2266 
Q 2828 2175 2409 1742 
Q 1991 1309 1228 531 
z
" transform="scale(0.015625)"/>
        <path id="DejaVuSans-30" d="M 2034 4250 
Q 1547 4250 1301 3770 
Q 1056 3291 1056 2328 
Q 1056 1369 1301 889 
Q 1547 409 2034 409 
Q 2525 409 2770 889 
Q 3016 1369 3016 2328 
Q 3016 3291 2770 3770 
Q 2525 4250 2034 4250 
z
M 2034 4750 
Q 2819 4750 3233 4129 
Q 3647 3509 3647 2328 
Q 3647 1150 3233 529 
Q 2819 -91 2034 -91 
Q 1250 -91 836 529 
Q 422 1150 422 2328 
Q 422 3509 836 4129 
Q 1250 4750 2034 4750 
z
" transform="scale(0.015625)"/>
        <path id="DejaVuSans-31" d="M 794 531 
L 1825 531 
L 1825 4091 
L 703 3866 
L 703 4441 
L 1819 4666 
L 2450 4666 
L 2450 531 
L 3481 531 
L 3481 0 
L 794 0 
L 794 531 
z
" transform="scale(0.015625)"/>
        <path id="DejaVuSans-34" d="M 2419 4116 
L 825 1625 
L 2419 1625 
L 2419 4116 
z
M 2253 4666 
L 3047 4666 
L 3047 1625 
L 3713 1625 
L 3713 1100 
L 3047 1100 
L 3047 0 
L 2419 0 
L 2419 1100 
L 313 1100 
L 313 1709 
L 2253 4666 
z
" transform="scale(0.015625)"/>
       </defs>
       <use xlink:href="#DejaVuSans-32"/>
       <use xlink:href="#DejaVuSans-30" x="63.623047"/>
       <use xlink:href="#DejaVuSans-31" x="127.246094"/>
       <use xlink:href="#DejaVuSans-34" x="190.869141"/>
      </g>
     </g>
    </g>
    <g id="xtick_2">
     <g id="line2d_2">
      <g>
       <use xlink:href="#mbf8fd524fe" x="315.399172" y="512.64" style="stroke: #000000; stroke-width: 0.8"/>
      </g>
     </g>
     <g id="text_2">
      <!-- 2016 -->
      <g transform="translate(302.674172 527.238438) scale(0.1 -0.1)">
       <defs>
        <path id="DejaVuSans-36" d="M 2113 2584 
Q 1688 2584 1439 2293 
Q 1191 2003 1191 1497 
Q 1191 994 1439 701 
Q 1688 409 2113 409 
Q 2538 409 2786 701 
Q 3034 994 3034 1497 
Q 3034 2003 2786 2293 
Q 2538 2584 2113 2584 
z
M 3366 4563 
L 3366 3988 
Q 3128 4100 2886 4159 
Q 2644 4219 2406 4219 
Q 1781 4219 1451 3797 
Q 1122 3375 1075 2522 
Q 1259 2794 1537 2939 
Q 1816 3084 2150 3084 
Q 2853 3084 3261 2657 
Q 3669 2231 3669 1497 
Q 3669 778 3244 343 
Q 2819 -91 2113 -91 
Q 1303 -91 875 529 
Q 447 1150 447 2328 
Q 447 3434 972 4092 
Q 1497 4750 2381 4750 
Q 2619 4750 2861 4703 
Q 3103 4656 3366 4563 
z
" transform="scale(0.015625)"/>
       </defs>
       <use xlink:href="#DejaVuSans-32"/>
       <use xlink:href="#DejaVuSans-30" x="63.623047"/>
       <use xlink:href="#DejaVuSans-31" x="127.246094"/>
       <use xlink:href="#DejaVuSans-36" x="190.869141"/>
      </g>
     </g>
    </g>
    <g id="xtick_3">
     <g id="line2d_3">
      <g>
       <use xlink:href="#mbf8fd524fe" x="453.989731" y="512.64" style="stroke: #000000; stroke-width: 0.8"/>
      </g>
     </g>
     <g id="text_3">
      <!-- 2018 -->
      <g transform="translate(441.264731 527.238438) scale(0.1 -0.1)">
       <defs>
        <path id="DejaVuSans-38" d="M 2034 2216 
Q 1584 2216 1326 1975 
Q 1069 1734 1069 1313 
Q 1069 891 1326 650 
Q 1584 409 2034 409 
Q 2484 409 2743 651 
Q 3003 894 3003 1313 
Q 3003 1734 2745 1975 
Q 2488 2216 2034 2216 
z
M 1403 2484 
Q 997 2584 770 2862 
Q 544 3141 544 3541 
Q 544 4100 942 4425 
Q 1341 4750 2034 4750 
Q 2731 4750 3128 4425 
Q 3525 4100 3525 3541 
Q 3525 3141 3298 2862 
Q 3072 2584 2669 2484 
Q 3125 2378 3379 2068 
Q 3634 1759 3634 1313 
Q 3634 634 3220 271 
Q 2806 -91 2034 -91 
Q 1263 -91 848 271 
Q 434 634 434 1313 
Q 434 1759 690 2068 
Q 947 2378 1403 2484 
z
M 1172 3481 
Q 1172 3119 1398 2916 
Q 1625 2713 2034 2713 
Q 2441 2713 2670 2916 
Q 2900 3119 2900 3481 
Q 2900 3844 2670 4047 
Q 2441 4250 2034 4250 
Q 1625 4250 1398 4047 
Q 1172 3844 1172 3481 
z
" transform="scale(0.015625)"/>
       </defs>
       <use xlink:href="#DejaVuSans-32"/>
       <use xlink:href="#DejaVuSans-30" x="63.623047"/>
       <use xlink:href="#DejaVuSans-31" x="127.246094"/>
       <use xlink:href="#DejaVuSans-38" x="190.869141"/>
      </g>
     </g>
    </g>
    <g id="xtick_4">
     <g id="line2d_4">
      <g>
       <use xlink:href="#mbf8fd524fe" x="592.390699" y="512.64" style="stroke: #000000; stroke-width: 0.8"/>
      </g>
     </g>
     <g id="text_4">
      <!-- 2020 -->
      <g transform="translate(579.665699 527.238438) scale(0.1 -0.1)">
       <use xlink:href="#DejaVuSans-32"/>
       <use xlink:href="#DejaVuSans-30" x="63.623047"/>
       <use xlink:href="#DejaVuSans-32" x="127.246094"/>
       <use xlink:href="#DejaVuSans-30" x="190.869141"/>
      </g>
     </g>
    </g>
    <g id="xtick_5">
     <g id="line2d_5">
      <g>
       <use xlink:href="#mbf8fd524fe" x="730.981258" y="512.64" style="stroke: #000000; stroke-width: 0.8"/>
      </g>
     </g>
     <g id="text_5">
      <!-- 2022 -->
      <g transform="translate(718.256258 527.238438) scale(0.1 -0.1)">
       <use xlink:href="#DejaVuSans-32"/>
       <use xlink:href="#DejaVuSans-30" x="63.623047"/>
       <use xlink:href="#DejaVuSans-32" x="127.246094"/>
       <use xlink:href="#DejaVuSans-32" x="190.869141"/>
      </g>
     </g>
    </g>
    <g id="xtick_6">
     <g id="line2d_6">
      <g>
       <use xlink:href="#mbf8fd524fe" x="869.382226" y="512.64" style="stroke: #000000; stroke-width: 0.8"/>
      </g>
     </g>
     <g id="text_6">
      <!-- 2024 -->
      <g transform="translate(856.657226 527.238438) scale(0.1 -0.1)">
       <use xlink:href="#DejaVuSans-32"/>
       <use xlink:href="#DejaVuSans-30" x="63.623047"/>
       <use xlink:href="#DejaVuSans-32" x="127.246094"/>
       <use xlink:href="#DejaVuSans-34" x="190.869141"/>
      </g>
     </g>
    </g>
    <g id="xtick_7">
     <g id="line2d_7">
      <g>
       <use xlink:href="#mbf8fd524fe" x="1007.972785" y="512.64" style="stroke: #000000; stroke-width: 0.8"/>
      </g>
     </g>
     <g id="text_7">
      <!-- 2026 -->
      <g transform="translate(995.247785 527.238438) scale(0.1 -0.1)">
       <use xlink:href="#DejaVuSans-32"/>
       <use xlink:href="#DejaVuSans-30" x="63.623047"/>
       <use xlink:href="#DejaVuSans-32" x="127.246094"/>
       <use xlink:href="#DejaVuSans-36" x="190.869141"/>
      </g>
     </g>
    </g>
   </g>
   <g id="matplotlib.axis_2">
    <g id="ytick_1">
     <g id="line2d_8">
      <defs>
       <path id="ma265d07d3e" d="M 0 0 
L -3.5 0 
" style="stroke: #000000; stroke-width: 0.8"/>
      </defs>
      <g>
       <use xlink:href="#ma265d07d3e" x="144" y="492.512637" style="stroke: #000000; stroke-width: 0.8"/>
      </g>
     </g>
     <g id="text_8">
      <!-- 0 -->
      <g transform="translate(130.6375 496.311856) scale(0.1 -0.1)">
       <use xlink:href="#DejaVuSans-30"/>
      </g>
     </g>
    </g>
    <g id="ytick_2">
     <g id="line2d_9">
      <g>
       <use xlink:href="#ma265d07d3e" x="144" y="427.238232" style="stroke: #000000; stroke-width: 0.8"/>
      </g>
     </g>
     <g id="text_9">
      <!-- 2000 -->
      <g transform="translate(111.55 431.037451) scale(0.1 -0.1)">
       <use xlink:href="#DejaVuSans-32"/>
       <use xlink:href="#DejaVuSans-30" x="63.623047"/>
       <use xlink:href="#DejaVuSans-30" x="127.246094"/>
       <use xlink:href="#DejaVuSans-30" x="190.869141"/>
      </g>
     </g>
    </g>
    <g id="ytick_3">
     <g id="line2d_10">
      <g>
       <use xlink:href="#ma265d07d3e" x="144" y="361.963827" style="stroke: #000000; stroke-width: 0.8"/>
      </g>
     </g>
     <g id="text_10">
      <!-- 4000 -->
      <g transform="translate(111.55 365.763046) scale(0.1 -0.1)">
       <use xlink:href="#DejaVuSans-34"/>
       <use xlink:href="#DejaVuSans-30" x="63.623047"/>
       <use xlink:href="#DejaVuSans-30" x="127.246094"/>
       <use xlink:href="#DejaVuSans-30" x="190.869141"/>
      </g>
     </g>
    </g>
    <g id="ytick_4">
     <g id="line2d_11">
      <g>
       <use xlink:href="#ma265d07d3e" x="144" y="296.689422" style="stroke: #000000; stroke-width: 0.8"/>
      </g>
     </g>
     <g id="text_11">
      <!-- 6000 -->
      <g transform="translate(111.55 300.488641) scale(0.1 -0.1)">
       <use xlink:href="#DejaVuSans-36"/>
       <use xlink:href="#DejaVuSans-30" x="63.623047"/>
       <use xlink:href="#DejaVuSans-30" x="127.246094"/>
       <use xlink:href="#DejaVuSans-30" x="190.869141"/>
      </g>
     </g>
    </g>
    <g id="ytick_5">
     <g id="line2d_12">
      <g>
       <use xlink:href="#ma265d07d3e" x="144" y="231.415017" style="stroke: #000000; stroke-width: 0.8"/>
      </g>
     </g>
     <g id="text_12">
      <!-- 8000 -->
      <g transform="translate(111.55 235.214236) scale(0.1 -0.1)">
       <use xlink:href="#DejaVuSans-38"/>
       <use xlink:href="#DejaVuSans-30" x="63.623047"/>
       <use xlink:href="#DejaVuSans-30" x="127.246094"/>
       <use xlink:href="#DejaVuSans-30" x="190.869141"/>
      </g>
     </g>
    </g>
    <g id="ytick_6">
     <g id="line2d_13">
      <g>
       <use xlink:href="#ma265d07d3e" x="144" y="166.140612" style="stroke: #000000; stroke-width: 0.8"/>
      </g>
     </g>
     <g id="text_13">
      <!-- 10000 -->
      <g transform="translate(105.1875 169.939831) scale(0.1 -0.1)">
       <use xlink:href="#DejaVuSans-31"/>
       <use xlink:href="#DejaVuSans-30" x="63.623047"/>
       <use xlink:href="#DejaVuSans-30" x="127.246094"/>
       <use xlink:href="#DejaVuSans-30" x="190.869141"/>
       <use xlink:href="#DejaVuSans-30" x="254.492188"/>
      </g>
     </g>
    </g>
    <g id="ytick_7">
     <g id="line2d_14">
      <g>
       <use xlink:href="#ma265d07d3e" x="144" y="100.866207" style="stroke: #000000; stroke-width: 0.8"/>
      </g>
     </g>
     <g id="text_14">
      <!-- 12000 -->
      <g transform="translate(105.1875 104.665426) scale(0.1 -0.1)">
       <use xlink:href="#DejaVuSans-31"/>
       <use xlink:href="#DejaVuSans-32" x="63.623047"/>
       <use xlink:href="#DejaVuSans-30" x="127.246094"/>
       <use xlink:href="#DejaVuSans-30" x="190.869141"/>
       <use xlink:href="#DejaVuSans-30" x="254.492188"/>
      </g>
     </g>
    </g>
   </g>
   <g id="line2d_15">
    <path d="M 184.581818 492.48 
L 186.288131 492.414726 
L 288.47734 492.25154 
L 443.56226 492.088354 
L 495.13084 491.89253 
L 508.591756 491.794619 
L 540.822119 491.631433 
L 542.338842 491.566158 
L 551.059999 491.468247 
L 592.580289 491.272424 
L 598.647181 491.207149 
L 599.026362 490.946051 
L 603.007759 490.782865 
L 636.375664 490.652317 
L 640.167471 490.554405 
L 663.297496 490.391219 
L 677.327184 490.162759 
L 680.360629 490.064847 
L 689.650557 489.869024 
L 693.063184 489.705838 
L 694.011136 489.640563 
L 695.338268 489.477377 
L 704.438606 489.248917 
L 706.713691 489.183643 
L 712.970173 488.759359 
L 722.828872 488.530898 
L 728.137402 486.99695 
L 729.274944 486.931676 
L 730.033306 486.40948 
L 730.222896 485.626187 
L 730.602077 485.430364 
L 730.791667 485.397727 
L 730.981258 484.353337 
L 732.1188 483.896416 
L 732.497981 483.341583 
L 732.877161 483.113123 
L 733.066752 482.623565 
L 733.256342 481.709723 
L 733.635523 480.92643 
L 733.825113 479.947314 
L 734.014703 478.086994 
L 734.583475 476.683594 
L 734.773065 472.375483 
L 734.962655 470.645712 
L 735.152246 469.992967 
L 735.531426 465.65222 
L 735.721017 464.999475 
L 735.910607 463.367615 
L 736.100197 463.269704 
L 736.668969 461.115648 
L 736.858559 456.481166 
L 737.048149 456.056882 
L 737.42733 454.620845 
L 737.61692 454.522933 
L 737.806511 453.739641 
L 737.996101 450.443283 
L 738.185692 449.65999 
L 738.375282 449.594716 
L 738.564872 447.179563 
L 738.754463 446.722642 
L 739.133643 446.559456 
L 739.892005 444.079029 
L 740.271186 443.426285 
L 740.650366 441.533327 
L 740.839957 440.815308 
L 741.219137 435.691268 
L 741.787909 433.178203 
L 742.54627 432.786557 
L 743.304631 431.448431 
L 743.683812 431.383157 
L 744.062993 428.576357 
L 744.252583 428.54372 
L 744.631764 428.086799 
L 744.821354 426.846586 
L 745.200535 426.357028 
L 745.390126 426.063293 
L 745.579716 425.50846 
L 746.148487 425.28 
L 746.338077 425.05154 
L 746.906848 423.028033 
L 747.096439 422.897484 
L 747.47562 422.375289 
L 748.233981 422.01628 
L 748.423571 420.710792 
L 748.613162 420.61288 
L 748.802752 420.38442 
L 748.992342 417.871355 
L 749.371523 417.806081 
L 749.750704 417.120699 
L 749.940294 416.467955 
L 750.509065 416.337407 
L 751.077837 415.325653 
L 751.267427 415.293016 
L 751.646608 414.770821 
L 752.025788 414.640272 
L 752.215379 411.800835 
L 753.352921 411.539738 
L 753.732102 411.27864 
L 754.490463 411.180729 
L 754.680054 411.017542 
L 756.955138 410.364798 
L 757.713499 409.842603 
L 758.661451 409.712054 
L 759.419813 409.320408 
L 761.315716 408.83085 
L 762.074078 406.089325 
L 763.02203 405.958776 
L 763.21162 405.893502 
L 764.728343 405.730316 
L 765.297114 405.534492 
L 765.486704 405.012297 
L 766.624247 404.849111 
L 768.14097 404.326916 
L 768.52015 403.967907 
L 768.899331 403.869995 
L 769.088921 403.641535 
L 769.847283 403.380437 
L 770.795235 403.282525 
L 770.984825 403.054065 
L 771.364006 403.021428 
L 771.553596 402.499233 
L 771.743187 402.433958 
L 771.932777 401.71594 
L 774.207861 401.226382 
L 774.776632 401.095833 
L 774.966223 400.704186 
L 776.293355 400.377814 
L 776.862127 400.181991 
L 777.620488 400.018805 
L 778.378849 399.822982 
L 779.326801 399.627159 
L 780.464344 399.137601 
L 781.222705 398.745954 
L 781.412295 398.09321 
L 782.360247 397.342555 
L 782.549838 397.04882 
L 783.497789 396.265527 
L 783.87697 395.580146 
L 784.06656 395.547508 
L 784.445741 394.698941 
L 785.204103 393.850374 
L 785.772874 393.752462 
L 785.962464 393.458728 
L 786.341645 393.295542 
L 786.531235 392.969169 
L 787.479187 392.740709 
L 787.668777 392.446974 
L 788.99591 392.153239 
L 789.375091 391.990053 
L 789.564681 391.957416 
L 789.754272 391.79423 
L 790.702223 391.663681 
L 792.029356 391.076212 
L 792.598127 390.9783 
L 792.977308 390.260282 
L 793.356489 390.031821 
L 794.30444 389.313803 
L 794.494031 388.563147 
L 795.252392 388.334687 
L 796.389934 387.975678 
L 796.769115 387.453482 
L 797.717067 386.963924 
L 797.906657 386.637552 
L 798.475428 386.441729 
L 798.854609 386.180631 
L 799.42338 385.952171 
L 799.802561 382.362079 
L 799.992151 381.187139 
L 800.181742 379.163633 
L 800.371332 378.935172 
L 801.129694 376.422108 
L 801.508874 375.769364 
L 801.698465 375.704089 
L 802.077645 375.312443 
L 802.267236 373.843769 
L 802.456826 373.48476 
L 802.836007 373.354211 
L 803.973549 371.232793 
L 804.163139 371.069607 
L 804.35273 370.188402 
L 805.300682 368.589179 
L 806.059043 368.262807 
L 806.248633 368.066984 
L 806.438224 367.022593 
L 806.817405 366.859407 
L 807.196585 366.500398 
L 807.765356 365.749743 
L 807.954947 365.064361 
L 808.144537 365.031724 
L 808.713308 364.411617 
L 809.092489 364.37898 
L 809.282079 364.052608 
L 809.66126 363.856785 
L 810.419622 363.040855 
L 810.609212 362.942943 
L 810.798802 362.388111 
L 812.315525 361.017348 
L 812.694706 359.744497 
L 813.832248 359.222302 
L 814.211429 358.569558 
L 814.59061 358.177912 
L 815.159381 357.133521 
L 816.486513 356.741875 
L 817.055284 355.762759 
L 817.813646 355.566935 
L 818.572007 354.718368 
L 818.951188 354.653094 
L 819.330369 354.261447 
L 819.89914 354.032987 
L 820.278321 354.00035 
L 820.467911 353.804526 
L 820.657501 353.217057 
L 821.415863 352.988596 
L 821.605453 352.662224 
L 821.795044 352.629587 
L 821.984634 352.042118 
L 822.553405 351.813657 
L 823.122176 351.683108 
L 823.501357 351.356736 
L 824.449309 350.932453 
L 824.82849 350.638718 
L 825.20767 350.410257 
L 825.586851 350.37762 
L 825.776441 349.496416 
L 826.155622 349.202681 
L 826.534803 349.104769 
L 827.293164 348.647848 
L 828.051526 348.5173 
L 828.241116 347.603458 
L 829.568249 346.983351 
L 829.757839 346.950714 
L 829.947429 346.787528 
L 830.32661 346.722254 
L 830.516201 346.428519 
L 831.274562 346.134784 
L 831.464152 345.775775 
L 831.843333 345.743137 
L 832.222514 345.514677 
L 832.791285 345.220942 
L 832.980875 344.829296 
L 833.739237 344.600835 
L 833.928827 344.339738 
L 834.497598 344.046003 
L 835.066369 343.784905 
L 835.25596 343.49117 
L 835.44555 343.458533 
L 835.824731 343.197436 
L 836.203912 343.03425 
L 836.393502 342.838426 
L 837.531044 342.512054 
L 837.720635 342.153045 
L 837.910225 342.055134 
L 838.858177 341.891948 
L 839.237357 341.598213 
L 839.616538 341.467664 
L 840.185309 341.304478 
L 840.3749 341.04338 
L 840.75408 340.978106 
L 840.943671 340.423273 
L 841.133261 340.325362 
L 841.512442 339.901078 
L 841.702032 339.215697 
L 842.081213 338.987237 
L 843.218755 338.106032 
L 843.597936 337.747023 
L 843.977117 337.616474 
L 844.166707 337.257465 
L 844.356297 337.19219 
L 844.735478 336.800544 
L 845.114659 336.572084 
L 845.68343 336.408898 
L 846.062611 335.984614 
L 848.148105 334.320117 
L 849.096057 334.091656 
L 850.233599 332.949354 
L 850.61278 332.786168 
L 852.129502 332.198698 
L 852.887864 331.741778 
L 853.646225 331.415406 
L 854.214996 331.154308 
L 855.162948 330.762661 
L 855.92131 330.566838 
L 856.490081 330.175192 
L 856.679671 330.142555 
L 856.869262 329.816183 
L 858.196394 329.293987 
L 859.144346 328.771792 
L 860.281888 328.282234 
L 860.471479 327.85795 
L 860.661069 326.421914 
L 861.04025 326.062904 
L 861.22984 326.030267 
L 862.556973 324.039398 
L 862.936153 323.419291 
L 864.452876 322.538086 
L 864.832057 322.211714 
L 865.400828 322.015891 
L 865.780009 321.624245 
L 866.34878 321.167324 
L 866.727961 321.036775 
L 866.917551 320.677766 
L 867.486322 320.318757 
L 868.244684 319.763924 
L 868.623864 319.731287 
L 868.813455 319.437552 
L 869.382226 319.307003 
L 869.761407 317.968878 
L 870.140587 317.642506 
L 870.898949 317.381408 
L 871.27813 317.120311 
L 871.46772 316.66339 
L 871.846901 316.532841 
L 872.036491 316.07592 
L 872.226081 315.978009 
L 872.605262 315.586362 
L 872.794853 315.390539 
L 873.363624 315.227353 
L 873.742804 314.998893 
L 873.932395 314.966255 
L 874.121985 314.770432 
L 874.311575 314.737795 
L 875.069937 314.280874 
L 875.449118 313.464944 
L 875.638708 313.367033 
L 876.017889 313.301758 
L 876.207479 312.942749 
L 876.58666 312.779563 
L 876.965841 312.58374 
L 877.155431 311.99627 
L 877.913792 311.571986 
L 878.103383 310.984517 
L 878.861744 310.36441 
L 879.051335 310.331773 
L 879.430515 309.842215 
L 879.809696 309.54848 
L 879.999286 309.483205 
L 880.188877 309.189471 
L 880.568058 309.058922 
L 880.757648 308.438815 
L 881.136829 308.340903 
L 881.326419 308.047169 
L 881.516009 307.981894 
L 881.7056 307.32915 
L 882.274371 307.133327 
L 882.463961 307.035415 
L 882.843142 306.51322 
L 883.032732 306.382671 
L 883.791094 305.338281 
L 883.980684 305.273006 
L 884.549455 304.750811 
L 884.928636 304.554988 
L 885.307817 304.326527 
L 885.876588 303.967518 
L 886.255769 303.47796 
L 886.445359 303.412686 
L 887.582901 302.466207 
L 887.772492 302.400932 
L 888.151672 302.009286 
L 888.530853 301.911374 
L 888.720443 301.193356 
L 889.289214 300.703798 
L 889.478805 300.051054 
L 889.857986 299.692045 
L 890.047576 299.39831 
L 890.237166 299.365673 
L 891.185118 298.517105 
L 891.374709 298.451831 
L 891.564299 298.256008 
L 891.753889 298.223371 
L 892.13307 297.929636 
L 893.270612 297.407441 
L 894.028974 296.36305 
L 894.787335 295.906129 
L 894.976926 295.677669 
L 895.166516 295.645032 
L 895.356106 295.286022 
L 896.114468 294.829102 
L 896.683239 294.404818 
L 897.4416 294.045809 
L 898.010371 293.588888 
L 898.958323 293.164604 
L 899.147914 293.131967 
L 900.664637 291.957028 
L 901.043817 291.793842 
L 901.422998 291.663293 
L 901.802179 291.271646 
L 902.181359 291.141098 
L 902.56054 291.010549 
L 902.939721 290.553628 
L 903.698082 290.259893 
L 903.887673 288.791219 
L 904.835625 288.138475 
L 905.593986 286.832987 
L 905.783576 286.735075 
L 905.973167 286.310792 
L 906.352348 286.180243 
L 907.110709 285.070578 
L 907.48989 283.569267 
L 907.67948 283.112346 
L 908.058661 280.72983 
L 908.248251 279.750714 
L 909.196203 278.575775 
L 909.954565 275.671064 
L 910.144155 275.507878 
L 910.333745 275.083594 
L 910.523336 273.517008 
L 910.712926 272.962176 
L 910.902516 272.929539 
L 911.092107 272.21152 
L 911.660878 271.787237 
L 912.040059 270.742846 
L 912.98801 270.253288 
L 913.367191 269.861642 
L 914.504733 269.078349 
L 914.694324 268.719339 
L 914.883914 267.870772 
L 915.073504 267.577037 
L 915.452685 267.446489 
L 916.590227 266.793745 
L 917.348589 266.565284 
L 917.72777 266.369461 
L 917.91736 266.238912 
L 918.296541 266.206275 
L 920.761216 264.05222 
L 921.329987 263.791122 
L 921.709167 263.627936 
L 921.898758 262.844643 
L 922.467529 262.387722 
L 922.84671 262.322448 
L 923.984252 261.441243 
L 924.363433 261.278057 
L 924.553023 261.212783 
L 924.932204 260.821136 
L 925.311384 260.755862 
L 925.500975 260.298941 
L 925.690565 260.135755 
L 925.880155 259.61356 
L 926.259336 259.417737 
L 926.828107 258.242797 
L 927.017698 257.590053 
L 927.586469 257.198407 
L 928.15524 256.513026 
L 928.534421 255.240175 
L 928.724011 254.913803 
L 928.913601 254.228422 
L 929.103192 254.163147 
L 929.292782 253.608315 
L 929.671963 253.379854 
L 930.809505 252.302827 
L 930.999095 251.845906 
L 931.567866 251.584808 
L 931.757457 251.160525 
L 932.894999 250.703604 
L 933.084589 250.018222 
L 933.46377 249.789762 
L 933.653361 249.398116 
L 933.842951 249.267567 
L 934.222132 249.23493 
L 935.359674 248.386362 
L 935.928445 247.962079 
L 936.307626 247.537795 
L 936.686806 247.24406 
L 936.876397 246.917688 
L 937.065987 246.19967 
L 938.203529 245.6122 
L 938.58271 244.861544 
L 938.961891 244.730996 
L 939.151481 244.274075 
L 939.341072 244.2088 
L 940.099433 243.425508 
L 941.047385 242.838038 
L 942.564108 241.467275 
L 942.943289 240.71662 
L 943.132879 239.965964 
L 943.51206 239.378494 
L 943.70165 238.986848 
L 944.649602 234.352365 
L 945.028783 233.666984 
L 945.218373 231.937212 
L 945.407963 228.542943 
L 946.735096 218.78442 
L 947.114277 214.34576 
L 947.493457 213.660379 
L 947.872638 207.883594 
L 948.062228 206.349645 
L 948.441409 199.887479 
L 948.82059 198.679903 
L 949.01018 195.383545 
L 949.199771 194.796076 
L 949.578951 191.140709 
L 949.958132 181.382186 
L 950.147722 180.85999 
L 950.337313 179.946149 
L 950.526903 176.878252 
L 950.716494 176.617154 
L 951.095674 171.688936 
L 951.285265 171.623662 
L 951.474855 171.29729 
L 951.854036 170.154988 
L 952.043626 169.926527 
L 952.233217 169.371695 
L 952.422807 168.327305 
L 952.801988 168.131481 
L 952.991578 167.609286 
L 953.370759 165.977426 
L 953.749939 163.007441 
L 953.93953 162.485245 
L 954.12912 162.419971 
L 954.318711 162.126236 
L 955.266662 159.352074 
L 955.456253 159.254162 
L 955.645843 158.601418 
L 956.025024 158.275046 
L 956.214614 158.144497 
L 956.404205 157.654939 
L 956.593795 157.491753 
L 957.162566 156.70846 
L 957.731337 155.89253 
L 958.110518 155.761982 
L 959.05847 154.587042 
L 959.437651 154.423856 
L 960.006422 154.358582 
L 960.385602 153.869024 
L 960.764783 153.771112 
L 961.523145 153.118368 
L 961.712735 152.955182 
L 962.281506 152.596173 
L 962.850277 151.878154 
L 963.039867 151.388596 
L 963.798229 151.192773 
L 964.17741 150.866401 
L 964.55659 150.246294 
L 965.125362 149.724099 
L 965.504542 148.418611 
L 965.694133 148.190151 
L 966.452494 147.896416 
L 967.590036 146.852025 
L 968.158807 146.460379 
L 968.348398 145.677086 
L 969.106759 145.056979 
L 969.29635 144.69797 
L 969.67553 144.469509 
L 970.054711 144.208412 
L 971.192253 143.359845 
L 971.950615 142.968198 
L 972.140205 142.870287 
L 972.519386 141.760622 
L 972.708976 141.66271 
L 973.088157 141.107878 
L 973.656928 140.324585 
L 974.036109 140.161399 
L 974.60488 139.182283 
L 974.79447 138.464264 
L 974.984061 138.203167 
L 975.363241 138.072618 
L 975.552832 137.680971 
L 977.259145 136.40812 
L 977.638326 135.722739 
L 977.827916 135.624828 
L 978.017507 131.675726 
L 978.396687 131.055619 
L 978.775868 130.533424 
L 978.965458 130.10914 
L 979.155049 130.076503 
L 979.534229 129.619582 
L 979.72382 128.934201 
L 981.050952 127.171792 
L 981.430133 124.952462 
L 981.619724 124.332356 
L 981.809314 123.255328 
L 981.998904 122.961593 
L 982.188495 121.395007 
L 982.567675 120.220068 
L 982.757266 119.338864 
L 983.515627 118.32711 
L 984.273989 116.793162 
L 984.84276 116.499427 
L 985.411531 115.846683 
L 985.790712 115.161302 
L 985.980302 114.704381 
L 986.169892 114.639106 
L 987.497025 112.517688 
L 987.686615 111.342749 
L 987.876206 111.179563 
L 988.255386 110.690005 
L 988.444977 110.657368 
L 989.013748 110.102535 
L 990.34088 107.752657 
L 990.530471 106.642992 
L 991.668013 104.162564 
L 991.857603 103.346634 
L 992.047194 103.085537 
L 992.805555 100.670384 
L 993.184736 99.821816 
L 993.753507 98.744789 
L 994.701459 95.872715 
L 995.08064 95.089422 
L 996.028591 90.977135 
L 996.218182 89.28 
L 996.218182 89.28 
" clip-path="url(#p5a52ae99f1)" style="fill: none; stroke: #1f77b4; stroke-width: 1.5; stroke-linecap: square"/>
   </g>
   <g id="patch_3">
    <path d="M 144 512.64 
L 144 69.12 
" style="fill: none; stroke: #000000; stroke-width: 0.8; stroke-linejoin: miter; stroke-linecap: square"/>
   </g>
   <g id="patch_4">
    <path d="M 1036.8 512.64 
L 1036.8 69.12 
" style="fill: none; stroke: #000000; stroke-width: 0.8; stroke-linejoin: miter; stroke-linecap: square"/>
   </g>
   <g id="patch_5">
    <path d="M 144 512.64 
L 1036.8 512.64 
" style="fill: none; stroke: #000000; stroke-width: 0.8; stroke-linejoin: miter; stroke-linecap: square"/>
   </g>
   <g id="patch_6">
    <path d="M 144 69.12 
L 1036.8 69.12 
" style="fill: none; stroke: #000000; stroke-width: 0.8; stroke-linejoin: miter; stroke-linecap: square"/>
   </g>
   <g id="text_15">
    <!-- Number of AEDs in the OpenStreetMap database in Poland from first edition, day by day. As at: 2025-10-31 -->
    <g transform="translate(144 63.12) scale(0.14 -0.14)">
     <defs>
      <path id="DejaVuSans-4e" d="M 628 4666 
L 1478 4666 
L 3547 763 
L 3547 4666 
L 4159 4666 
L 4159 0 
L 3309 0 
L 1241 3903 
L 1241 0 
L 628 0 
L 628 4666 
z
" transform="scale(0.015625)"/>
      <path id="DejaVuSans-75" d="M 544 1381 
L 544 3500 
L 1119 3500 
L 1119 1403 
Q 1119 906 1312 657 
Q 1506 409 1894 409 
Q 2359 409 2629 706 
Q 2900 1003 2900 1516 
L 2900 3500 
L 3475 3500 
L 3475 0 
L 2900 0 
L 2900 538 
Q 2691 219 2414 64 
Q 2138 -91 1772 -91 
Q 1169 -91 856 284 
Q 544 659 544 1381 
z
M 1991 3584 
L 1991 3584 
z
" transform="scale(0.015625)"/>
      <path id="DejaVuSans-6d" d="M 3328 2828 
Q 3544 3216 3844 3400 
Q 4144 3584 4550 3584 
Q 5097 3584 5394 3201 
Q 5691 2819 5691 2113 
L 5691 0 
L 5113 0 
L 5113 2094 
Q 5113 2597 4934 2840 
Q 4756 3084 4391 3084 
Q 3944 3084 3684 2787 
Q 3425 2491 3425 1978 
L 3425 0 
L 2847 0 
L 2847 2094 
Q 2847 2600 2669 2842 
Q 2491 3084 2119 3084 
Q 1678 3084 1418 2786 
Q 1159 2488 1159 1978 
L 1159 0 
L 581 0 
L 581 3500 
L 1159 3500 
L 1159 2956 
Q 1356 3278 1631 3431 
Q 1906 3584 2284 3584 
Q 2666 3584 2933 3390 
Q 3200 3197 3328 2828 
z
" transform="scale(0.015625)"/>
      <path id="DejaVuSans-62" d="M 3116 1747 
Q 3116 2381 2855 2742 
Q 2594 3103 2138 3103 
Q 1681 3103 1420 2742 
Q 1159 2381 1159 1747 
Q 1159 1113 1420 752 
Q 1681 391 2138 391 
Q 2594 391 2855 752 
Q 3116 1113 3116 1747 
z
M 1159 2969 
Q 1341 3281 1617 3432 
Q 1894 3584 2278 3584 
Q 2916 3584 3314 3078 
Q 3713 2572 3713 1747 
Q 3713 922 3314 415 
Q 2916 -91 2278 -91 
Q 1894 -91 1617 61 
Q 1341 213 1159 525 
L 1159 0 
L 581 0 
L 581 4863 
L 1159 4863 
L 1159 2969 
z
" transform="scale(0.015625)"/>
      <path id="DejaVuSans-65" d="M 3597 1894 
L 3597 1613 
L 953 1613 
Q 991 1019 1311 708 
Q 1631 397 2203 397 
Q 2534 397 2845 478 
Q 3156 559 3463 722 
L 3463 178 
Q 3153 47 2828 -22 
Q 2503 -91 2169 -91 
Q 1331 -91 842 396 
Q 353 884 353 1716 
Q 353 2575 817 3079 
Q 1281 3584 2069 3584 
Q 2775 3584 3186 3129 
Q 3597 2675 3597 1894 
z
M 3022 2063 
Q 3016 2534 2758 2815 
Q 2500 3097 2075 3097 
Q 1594 3097 1305 2825 
Q 1016 2553 972 2059 
L 3022 2063 
z
" transform="scale(0.015625)"/>
      <path id="DejaVuSans-72" d="M 2631 2963 
Q 2534 3019 2420 3045 
Q 2306 3072 2169 3072 
Q 1681 3072 1420 2755 
Q 1159 2438 1159 1844 
L 1159 0 
L 581 0 
L 581 3500 
L 1159 3500 
L 1159 2956 
Q 1341 3275 1631 3429 
Q 1922 3584 2338 3584 
Q 2397 3584 2469 3576 
Q 2541 3569 2628 3553 
L 2631 2963 
z
" transform="scale(0.015625)"/>
      <path id="DejaVuSans-20" transform="scale(0.015625)"/>
      <path id="DejaVuSans-6f" d="M 1959 3097 
Q 1497 3097 1228 2736 
Q 959 2375 959 1747 
Q 959 1119 1226 758 
Q 1494 397 1959 397 
Q 2419 397 2687 759 
Q 2956 1122 2956 1747 
Q 2956 2369 2687 2733 
Q 2419 3097 1959 3097 
z
M 1959 3584 
Q 2709 3584 3137 3096 
Q 3566 2609 3566 1747 
Q 3566 888 3137 398 
Q 2709 -91 1959 -91 
Q 1206 -91 779 398 
Q 353 888 353 1747 
Q 353 2609 779 3096 
Q 1206 3584 1959 3584 
z
" transform="scale(0.015625)"/>
      <path id="DejaVuSans-66" d="M 2375 4863 
L 2375 4384 
L 1825 4384 
Q 1516 4384 1395 4259 
Q 1275 4134 1275 3809 
L 1275 3500 
L 2222 3500 
L 2222 3053 
L 1275 3053 
L 1275 0 
L 697 0 
L 697 3053 
L 147 3053 
L 147 3500 
L 697 3500 
L 697 3744 
Q 697 4328 969 4595 
Q 1241 4863 1831 4863 
L 2375 4863 
z
" transform="scale(0.015625)"/>
      <path id="DejaVuSans-41" d="M 2188 4044 
L 1331 1722 
L 3047 1722 
L 2188 4044 
z
M 1831 4666 
L 2547 4666 
L 4325 0 
L 3669 0 
L 3244 1197 
L 1141 1197 
L 716 0 
L 50 0 
L 1831 4666 
z
" transform="scale(0.015625)"/>
      <path id="DejaVuSans-45" d="M 628 4666 
L 3578 4666 
L 3578 4134 
L 1259 4134 
L 1259 2753 
L 3481 2753 
L 3481 2222 
L 1259 2222 
L 1259 531 
L 3634 531 
L 3634 0 
L 628 0 
L 628 4666 
z
" transform="scale(0.015625)"/>
      <path id="DejaVuSans-44" d="M 1259 4147 
L 1259 519 
L 2022 519 
Q 2988 519 3436 956 
Q 3884 1394 3884 2338 
Q 3884 3275 3436 3711 
Q 2988 4147 2022 4147 
L 1259 4147 
z
M 628 4666 
L 1925 4666 
Q 3281 4666 3915 4102 
Q 4550 3538 4550 2338 
Q 4550 1131 3912 565 
Q 3275 0 1925 0 
L 628 0 
L 628 4666 
z
" transform="scale(0.015625)"/>
      <path id="DejaVuSans-73" d="M 2834 3397 
L 2834 2853 
Q 2591 2978 2328 3040 
Q 2066 3103 1784 3103 
Q 1356 3103 1142 2972 
Q 928 2841 928 2578 
Q 928 2378 1081 2264 
Q 1234 2150 1697 2047 
L 1894 2003 
Q 2506 1872 2764 1633 
Q 3022 1394 3022 966 
Q 3022 478 2636 193 
Q 2250 -91 1575 -91 
Q 1294 -91 989 -36 
Q 684 19 347 128 
L 347 722 
Q 666 556 975 473 
Q 1284 391 1588 391 
Q 1994 391 2212 530 
Q 2431 669 2431 922 
Q 2431 1156 2273 1281 
Q 2116 1406 1581 1522 
L 1381 1569 
Q 847 1681 609 1914 
Q 372 2147 372 2553 
Q 372 3047 722 3315 
Q 1072 3584 1716 3584 
Q 2034 3584 2315 3537 
Q 2597 3491 2834 3397 
z
" transform="scale(0.015625)"/>
      <path id="DejaVuSans-69" d="M 603 3500 
L 1178 3500 
L 1178 0 
L 603 0 
L 603 3500 
z
M 603 4863 
L 1178 4863 
L 1178 4134 
L 603 4134 
L 603 4863 
z
" transform="scale(0.015625)"/>
      <path id="DejaVuSans-6e" d="M 3513 2113 
L 3513 0 
L 2938 0 
L 2938 2094 
Q 2938 2591 2744 2837 
Q 2550 3084 2163 3084 
Q 1697 3084 1428 2787 
Q 1159 2491 1159 1978 
L 1159 0 
L 581 0 
L 581 3500 
L 1159 3500 
L 1159 2956 
Q 1366 3272 1645 3428 
Q 1925 3584 2291 3584 
Q 2894 3584 3203 3211 
Q 3513 2838 3513 2113 
z
" transform="scale(0.015625)"/>
      <path id="DejaVuSans-74" d="M 1172 4494 
L 1172 3500 
L 2356 3500 
L 2356 3053 
L 1172 3053 
L 1172 1153 
Q 1172 725 1289 603 
Q 1406 481 1766 481 
L 2356 481 
L 2356 0 
L 1766 0 
Q 1100 0 847 248 
Q 594 497 594 1153 
L 594 3053 
L 172 3053 
L 172 3500 
L 594 3500 
L 594 4494 
L 1172 4494 
z
" transform="scale(0.015625)"/>
      <path id="DejaVuSans-68" d="M 3513 2113 
L 3513 0 
L 2938 0 
L 2938 2094 
Q 2938 2591 2744 2837 
Q 2550 3084 2163 3084 
Q 1697 3084 1428 2787 
Q 1159 2491 1159 1978 
L 1159 0 
L 581 0 
L 581 4863 
L 1159 4863 
L 1159 2956 
Q 1366 3272 1645 3428 
Q 1925 3584 2291 3584 
Q 2894 3584 3203 3211 
Q 3513 2838 3513 2113 
z
" transform="scale(0.015625)"/>
      <path id="DejaVuSans-4f" d="M 2522 4238 
Q 1834 4238 1429 3725 
Q 1025 3213 1025 2328 
Q 1025 1447 1429 934 
Q 1834 422 2522 422 
Q 3209 422 3611 934 
Q 4013 1447 4013 2328 
Q 4013 3213 3611 3725 
Q 3209 4238 2522 4238 
z
M 2522 4750 
Q 3503 4750 4090 4092 
Q 4678 3434 4678 2328 
Q 4678 1225 4090 567 
Q 3503 -91 2522 -91 
Q 1538 -91 948 565 
Q 359 1222 359 2328 
Q 359 3434 948 4092 
Q 1538 4750 2522 4750 
z
" transform="scale(0.015625)"/>
      <path id="DejaVuSans-70" d="M 1159 525 
L 1159 -1331 
L 581 -1331 
L 581 3500 
L 1159 3500 
L 1159 2969 
Q 1341 3281 1617 3432 
Q 1894 3584 2278 3584 
Q 2916 3584 3314 3078 
Q 3713 2572 3713 1747 
Q 3713 922 3314 415 
Q 2916 -91 2278 -91 
Q 1894 -91 1617 61 
Q 1341 213 1159 525 
z
M 3116 1747 
Q 3116 2381 2855 2742 
Q 2594 3103 2138 3103 
Q 1681 3103 1420 2742 
Q 1159 2381 1159 1747 
Q 1159 1113 1420 752 
Q 1681 391 2138 391 
Q 2594 391 2855 752 
Q 3116 1113 3116 1747 
z
" transform="scale(0.015625)"/>
      <path id="DejaVuSans-53" d="M 3425 4513 
L 3425 3897 
Q 3066 4069 2747 4153 
Q 2428 4238 2131 4238 
Q 1616 4238 1336 4038 
Q 1056 3838 1056 3469 
Q 1056 3159 1242 3001 
Q 1428 2844 1947 2747 
L 2328 2669 
Q 3034 2534 3370 2195 
Q 3706 1856 3706 1288 
Q 3706 609 3251 259 
Q 2797 -91 1919 -91 
Q 1588 -91 1214 -16 
Q 841 59 441 206 
L 441 856 
Q 825 641 1194 531 
Q 1563 422 1919 422 
Q 2459 422 2753 634 
Q 3047 847 3047 1241 
Q 3047 1584 2836 1778 
Q 2625 1972 2144 2069 
L 1759 2144 
Q 1053 2284 737 2584 
Q 422 2884 422 3419 
Q 422 4038 858 4394 
Q 1294 4750 2059 4750 
Q 2388 4750 2728 4690 
Q 3069 4631 3425 4513 
z
" transform="scale(0.015625)"/>
      <path id="DejaVuSans-4d" d="M 628 4666 
L 1569 4666 
L 2759 1491 
L 3956 4666 
L 4897 4666 
L 4897 0 
L 4281 0 
L 4281 4097 
L 3078 897 
L 2444 897 
L 1241 4097 
L 1241 0 
L 628 0 
L 628 4666 
z
" transform="scale(0.015625)"/>
      <path id="DejaVuSans-61" d="M 2194 1759 
Q 1497 1759 1228 1600 
Q 959 1441 959 1056 
Q 959 750 1161 570 
Q 1363 391 1709 391 
Q 2188 391 2477 730 
Q 2766 1069 2766 1631 
L 2766 1759 
L 2194 1759 
z
M 3341 1997 
L 3341 0 
L 2766 0 
L 2766 531 
Q 2569 213 2275 61 
Q 1981 -91 1556 -91 
Q 1019 -91 701 211 
Q 384 513 384 1019 
Q 384 1609 779 1909 
Q 1175 2209 1959 2209 
L 2766 2209 
L 2766 2266 
Q 2766 2663 2505 2880 
Q 2244 3097 1772 3097 
Q 1472 3097 1187 3025 
Q 903 2953 641 2809 
L 641 3341 
Q 956 3463 1253 3523 
Q 1550 3584 1831 3584 
Q 2591 3584 2966 3190 
Q 3341 2797 3341 1997 
z
" transform="scale(0.015625)"/>
      <path id="DejaVuSans-64" d="M 2906 2969 
L 2906 4863 
L 3481 4863 
L 3481 0 
L 2906 0 
L 2906 525 
Q 2725 213 2448 61 
Q 2172 -91 1784 -91 
Q 1150 -91 751 415 
Q 353 922 353 1747 
Q 353 2572 751 3078 
Q 1150 3584 1784 3584 
Q 2172 3584 2448 3432 
Q 2725 3281 2906 2969 
z
M 947 1747 
Q 947 1113 1208 752 
Q 1469 391 1925 391 
Q 2381 391 2643 752 
Q 2906 1113 2906 1747 
Q 2906 2381 2643 2742 
Q 2381 3103 1925 3103 
Q 1469 3103 1208 2742 
Q 947 2381 947 1747 
z
" transform="scale(0.015625)"/>
      <path id="DejaVuSans-50" d="M 1259 4147 
L 1259 2394 
L 2053 2394 
Q 2494 2394 2734 2622 
Q 2975 2850 2975 3272 
Q 2975 3691 2734 3919 
Q 2494 4147 2053 4147 
L 1259 4147 
z
M 628 4666 
L 2053 4666 
Q 2838 4666 3239 4311 
Q 3641 3956 3641 3272 
Q 3641 2581 3239 2228 
Q 2838 1875 2053 1875 
L 1259 1875 
L 1259 0 
L 628 0 
L 628 4666 
z
" transform="scale(0.015625)"/>
      <path id="DejaVuSans-6c" d="M 603 4863 
L 1178 4863 
L 1178 0 
L 603 0 
L 603 4863 
z
" transform="scale(0.015625)"/>
      <path id="DejaVuSans-2c" d="M 750 794 
L 1409 794 
L 1409 256 
L 897 -744 
L 494 -744 
L 750 256 
L 750 794 
z
" transform="scale(0.015625)"/>
      <path id="DejaVuSans-79" d="M 2059 -325 
Q 1816 -950 1584 -1140 
Q 1353 -1331 966 -1331 
L 506 -1331 
L 506 -850 
L 844 -850 
Q 1081 -850 1212 -737 
Q 1344 -625 1503 -206 
L 1606 56 
L 191 3500 
L 800 3500 
L 1894 763 
L 2988 3500 
L 3597 3500 
L 2059 -325 
z
" transform="scale(0.015625)"/>
      <path id="DejaVuSans-2e" d="M 684 794 
L 1344 794 
L 1344 0 
L 684 0 
L 684 794 
z
" transform="scale(0.015625)"/>
      <path id="DejaVuSans-3a" d="M 750 794 
L 1409 794 
L 1409 0 
L 750 0 
L 750 794 
z
M 750 3309 
L 1409 3309 
L 1409 2516 
L 750 2516 
L 750 3309 
z
" transform="scale(0.015625)"/>
      <path id="DejaVuSans-35" d="M 691 4666 
L 3169 4666 
L 3169 4134 
L 1269 4134 
L 1269 2991 
Q 1406 3038 1543 3061 
Q 1681 3084 1819 3084 
Q 2600 3084 3056 2656 
Q 3513 2228 3513 1497 
Q 3513 744 3044 326 
Q 2575 -91 1722 -91 
Q 1428 -91 1123 -41 
Q 819 9 494 109 
L 494 744 
Q 775 591 1075 516 
Q 1375 441 1709 441 
Q 2250 441 2565 725 
Q 2881 1009 2881 1497 
Q 2881 1984 2565 2268 
Q 2250 2553 1709 2553 
Q 1456 2553 1204 2497 
Q 953 2441 691 2322 
L 691 4666 
z
" transform="scale(0.015625)"/>
      <path id="DejaVuSans-2d" d="M 313 2009 
L 1997 2009 
L 1997 1497 
L 313 1497 
L 313 2009 
z
" transform="scale(0.015625)"/>
      <path id="DejaVuSans-33" d="M 2597 2516 
Q 3050 2419 3304 2112 
Q 3559 1806 3559 1356 
Q 3559 666 3084 287 
Q 2609 -91 1734 -91 
Q 1441 -91 1130 -33 
Q 819 25 488 141 
L 488 750 
Q 750 597 1062 519 
Q 1375 441 1716 441 
Q 2309 441 2620 675 
Q 2931 909 2931 1356 
Q 2931 1769 2642 2001 
Q 2353 2234 1838 2234 
L 1294 2234 
L 1294 2753 
L 1863 2753 
Q 2328 2753 2575 2939 
Q 2822 3125 2822 3475 
Q 2822 3834 2567 4026 
Q 2313 4219 1838 4219 
Q 1578 4219 1281 4162 
Q 984 4106 628 3988 
L 628 4550 
Q 988 4650 1302 4700 
Q 1616 4750 1894 4750 
Q 2613 4750 3031 4423 
Q 3450 4097 3450 3541 
Q 3450 3153 3228 2886 
Q 3006 2619 2597 2516 
z
" transform="scale(0.015625)"/>
     </defs>
     <use xlink:href="#DejaVuSans-4e"/>
     <use xlink:href="#DejaVuSans-75" x="74.804688"/>
     <use xlink:href="#DejaVuSans-6d" x="138.183594"/>
     <use xlink:href="#DejaVuSans-62" x="235.595703"/>
     <use xlink:href="#DejaVuSans-65" x="299.072266"/>
     <use xlink:href="#DejaVuSans-72" x="360.595703"/>
     <use xlink:href="#DejaVuSans-20" x="401.708984"/>
     <use xlink:href="#DejaVuSans-6f" x="433.496094"/>
     <use xlink:href="#DejaVuSans-66" x="494.677734"/>
     <use xlink:href="#DejaVuSans-20" x="529.882812"/>
     <use xlink:href="#DejaVuSans-41" x="561.669922"/>
     <use xlink:href="#DejaVuSans-45" x="630.078125"/>
     <use xlink:href="#DejaVuSans-44" x="693.261719"/>
     <use xlink:href="#DejaVuSans-73" x="770.263672"/>
     <use xlink:href="#DejaVuSans-20" x="822.363281"/>
     <use xlink:href="#DejaVuSans-69" x="854.150391"/>
     <use xlink:href="#DejaVuSans-6e" x="881.933594"/>
     <use xlink:href="#DejaVuSans-20" x="945.3125"/>
     <use xlink:href="#DejaVuSans-74" x="977.099609"/>
     <use xlink:href="#DejaVuSans-68" x="1016.308594"/>
     <use xlink:href="#DejaVuSans-65" x="1079.6875"/>
     <use xlink:href="#DejaVuSans-20" x="1141.210938"/>
     <use xlink:href="#DejaVuSans-4f" x="1172.998047"/>
     <use xlink:href="#DejaVuSans-70" x="1251.708984"/>
     <use xlink:href="#DejaVuSans-65" x="1315.185547"/>
     <use xlink:href="#DejaVuSans-6e" x="1376.708984"/>
     <use xlink:href="#DejaVuSans-53" x="1440.087891"/>
     <use xlink:href="#DejaVuSans-74" x="1503.564453"/>
     <use xlink:href="#DejaVuSans-72" x="1542.773438"/>
     <use xlink:href="#DejaVuSans-65" x="1581.636719"/>
     <use xlink:href="#DejaVuSans-65" x="1643.160156"/>
     <use xlink:href="#DejaVuSans-74" x="1704.683594"/>
     <use xlink:href="#DejaVuSans-4d" x="1743.892578"/>
     <use xlink:href="#DejaVuSans-61" x="1830.171875"/>
     <use xlink:href="#DejaVuSans-70" x="1891.451172"/>
     <use xlink:href="#DejaVuSans-20" x="1954.927734"/>
     <use xlink:href="#DejaVuSans-64" x="1986.714844"/>
     <use xlink:href="#DejaVuSans-61" x="2050.191406"/>
     <use xlink:href="#DejaVuSans-74" x="2111.470703"/>
     <use xlink:href="#DejaVuSans-61" x="2150.679688"/>
     <use xlink:href="#DejaVuSans-62" x="2211.958984"/>
     <use xlink:href="#DejaVuSans-61" x="2275.435547"/>
     <use xlink:href="#DejaVuSans-73" x="2336.714844"/>
     <use xlink:href="#DejaVuSans-65" x="2388.814453"/>
     <use xlink:href="#DejaVuSans-20" x="2450.337891"/>
     <use xlink:href="#DejaVuSans-69" x="2482.125"/>
     <use xlink:href="#DejaVuSans-6e" x="2509.908203"/>
     <use xlink:href="#DejaVuSans-20" x="2573.287109"/>
     <use xlink:href="#DejaVuSans-50" x="2605.074219"/>
     <use xlink:href="#DejaVuSans-6f" x="2661.751953"/>
     <use xlink:href="#DejaVuSans-6c" x="2722.933594"/>
     <use xlink:href="#DejaVuSans-61" x="2750.716797"/>
     <use xlink:href="#DejaVuSans-6e" x="2811.996094"/>
     <use xlink:href="#DejaVuSans-64" x="2875.375"/>
     <use xlink:href="#DejaVuSans-20" x="2938.851562"/>
     <use xlink:href="#DejaVuSans-66" x="2970.638672"/>
     <use xlink:href="#DejaVuSans-72" x="3005.84375"/>
     <use xlink:href="#DejaVuSans-6f" x="3044.707031"/>
     <use xlink:href="#DejaVuSans-6d" x="3105.888672"/>
     <use xlink:href="#DejaVuSans-20" x="3203.300781"/>
     <use xlink:href="#DejaVuSans-66" x="3235.087891"/>
     <use xlink:href="#DejaVuSans-69" x="3270.292969"/>
     <use xlink:href="#DejaVuSans-72" x="3298.076172"/>
     <use xlink:href="#DejaVuSans-73" x="3339.189453"/>
     <use xlink:href="#DejaVuSans-74" x="3391.289062"/>
     <use xlink:href="#DejaVuSans-20" x="3430.498047"/>
     <use xlink:href="#DejaVuSans-65" x="3462.285156"/>
     <use xlink:href="#DejaVuSans-64" x="3523.808594"/>
     <use xlink:href="#DejaVuSans-69" x="3587.285156"/>
     <use xlink:href="#DejaVuSans-74" x="3615.068359"/>
     <use xlink:href="#DejaVuSans-69" x="3654.277344"/>
     <use xlink:href="#DejaVuSans-6f" x="3682.060547"/>
     <use xlink:href="#DejaVuSans-6e" x="3743.242188"/>
     <use xlink:href="#DejaVuSans-2c" x="3806.621094"/>
     <use xlink:href="#DejaVuSans-20" x="3838.408203"/>
     <use xlink:href="#DejaVuSans-64" x="3870.195312"/>
     <use xlink:href="#DejaVuSans-61" x="3933.671875"/>
     <use xlink:href="#DejaVuSans-79" x="3994.951172"/>
     <use xlink:href="#DejaVuSans-20" x="4054.130859"/>
     <use xlink:href="#DejaVuSans-62" x="4085.917969"/>
     <use xlink:href="#DejaVuSans-79" x="4149.394531"/>
     <use xlink:href="#DejaVuSans-20" x="4208.574219"/>
     <use xlink:href="#DejaVuSans-64" x="4240.361328"/>
     <use xlink:href="#DejaVuSans-61" x="4303.837891"/>
     <use xlink:href="#DejaVuSans-79" x="4365.117188"/>
     <use xlink:href="#DejaVuSans-2e" x="4410.046875"/>
     <use xlink:href="#DejaVuSans-20" x="4441.833984"/>
     <use xlink:href="#DejaVuSans-41" x="4473.621094"/>
     <use xlink:href="#DejaVuSans-73" x="4542.029297"/>
     <use xlink:href="#DejaVuSans-20" x="4594.128906"/>
     <use xlink:href="#DejaVuSans-61" x="4625.916016"/>
     <use xlink:href="#DejaVuSans-74" x="4687.195312"/>
     <use xlink:href="#DejaVuSans-3a" x="4726.404297"/>
     <use xlink:href="#DejaVuSans-20" x="4760.095703"/>
     <use xlink:href="#DejaVuSans-32" x="4791.882812"/>
     <use xlink:href="#DejaVuSans-30" x="4855.505859"/>
     <use xlink:href="#DejaVuSans-32" x="4919.128906"/>
     <use xlink:href="#DejaVuSans-35" x="4982.751953"/>
     <use xlink:href="#DejaVuSans-2d" x="5046.375"/>
     <use xlink:href="#DejaVuSans-31" x="5082.458984"/>
     <use xlink:href="#DejaVuSans-30" x="5146.082031"/>
     <use xlink:href="#DejaVuSans-2d" x="5209.705078"/>
     <use xlink:href="#DejaVuSans-33" x="5245.789062"/>
     <use xlink:href="#DejaVuSans-31" x="5309.412109"/>
    </g>
   </g>
  </g>
 </g>
 <defs>
  <clipPath id="p5a52ae99f1">
   <rect x="144" y="69.12" width="892.8" height="443.52"/>
  </clipPath>
 </defs>
</svg>
