<?xml version="1.0" encoding="utf-8" standalone="no"?>
<!DOCTYPE svg PUBLIC "-//W3C//DTD SVG 1.1//EN"
  "http://www.w3.org/Graphics/SVG/1.1/DTD/svg11.dtd">
<svg xmlns:xlink="http://www.w3.org/1999/xlink" width="1152pt" height="576pt" viewBox="0 0 1152 576" xmlns="http://www.w3.org/2000/svg" version="1.1">
 <metadata>
  <rdf:RDF xmlns:dc="http://purl.org/dc/elements/1.1/" xmlns:cc="http://creativecommons.org/ns#" xmlns:rdf="http://www.w3.org/1999/02/22-rdf-syntax-ns#">
   <cc:Work>
    <dc:type rdf:resource="http://purl.org/dc/dcmitype/StillImage"/>
    <dc:date>1980-01-01T00:00:00+00:00</dc:date>
    <dc:format>image/svg+xml</dc:format>
    <dc:creator>
     <cc:Agent>
      <dc:title>Matplotlib v3.9.1, https://matplotlib.org/</dc:title>
     </cc:Agent>
    </dc:creator>
   </cc:Work>
  </rdf:RDF>
 </metadata>
 <defs>
  <style type="text/css">*{stroke-linejoin: round; stroke-linecap: butt}</style>
 </defs>
 <g id="figure_1">
  <g id="patch_1">
   <path d="M 0 576 
L 1152 576 
L 1152 0 
L 0 0 
z
" style="fill: #ffffff"/>
  </g>
  <g id="axes_1">
   <g id="patch_2">
    <path d="M 144 512.64 
L 1036.8 512.64 
L 1036.8 69.12 
L 144 69.12 
z
" style="fill: #ffffff"/>
   </g>
   <g id="matplotlib.axis_1">
    <g id="xtick_1">
     <g id="line2d_1">
      <defs>
       <path id="m35304a05a8" d="M 0 0 
L 0 3.5 
" style="stroke: #000000; stroke-width: 0.8"/>
      </defs>
      <g>
       <use xlink:href="#m35304a05a8" x="176.707587" y="512.64" style="stroke: #000000; stroke-width: 0.8"/>
      </g>
     </g>
     <g id="text_1">
      <!-- 2014 -->
      <g transform="translate(163.982587 527.238438) scale(0.1 -0.1)">
       <defs>
        <path id="DejaVuSans-32" d="M 1228 531 
L 3431 531 
L 3431 0 
L 469 0 
L 469 531 
Q 828 903 1448 1529 
Q 2069 2156 2228 2338 
Q 2531 2678 2651 2914 
Q 2772 3150 2772 3378 
Q 2772 3750 2511 3984 
Q 2250 4219 1831 4219 
Q 1534 4219 1204 4116 
Q 875 4013 500 3803 
L 500 4441 
Q 881 4594 1212 4672 
Q 1544 4750 1819 4750 
Q 2544 4750 2975 4387 
Q 3406 4025 3406 3419 
Q 3406 3131 3298 2873 
Q 3191 2616 2906 2266 
Q 2828 2175 2409 1742 
Q 1991 1309 1228 531 
z
" transform="scale(0.015625)"/>
        <path id="DejaVuSans-30" d="M 2034 4250 
Q 1547 4250 1301 3770 
Q 1056 3291 1056 2328 
Q 1056 1369 1301 889 
Q 1547 409 2034 409 
Q 2525 409 2770 889 
Q 3016 1369 3016 2328 
Q 3016 3291 2770 3770 
Q 2525 4250 2034 4250 
z
M 2034 4750 
Q 2819 4750 3233 4129 
Q 3647 3509 3647 2328 
Q 3647 1150 3233 529 
Q 2819 -91 2034 -91 
Q 1250 -91 836 529 
Q 422 1150 422 2328 
Q 422 3509 836 4129 
Q 1250 4750 2034 4750 
z
" transform="scale(0.015625)"/>
        <path id="DejaVuSans-31" d="M 794 531 
L 1825 531 
L 1825 4091 
L 703 3866 
L 703 4441 
L 1819 4666 
L 2450 4666 
L 2450 531 
L 3481 531 
L 3481 0 
L 794 0 
L 794 531 
z
" transform="scale(0.015625)"/>
        <path id="DejaVuSans-34" d="M 2419 4116 
L 825 1625 
L 2419 1625 
L 2419 4116 
z
M 2253 4666 
L 3047 4666 
L 3047 1625 
L 3713 1625 
L 3713 1100 
L 3047 1100 
L 3047 0 
L 2419 0 
L 2419 1100 
L 313 1100 
L 313 1709 
L 2253 4666 
z
" transform="scale(0.015625)"/>
       </defs>
       <use xlink:href="#DejaVuSans-32"/>
       <use xlink:href="#DejaVuSans-30" x="63.623047"/>
       <use xlink:href="#DejaVuSans-31" x="127.246094"/>
       <use xlink:href="#DejaVuSans-34" x="190.869141"/>
      </g>
     </g>
    </g>
    <g id="xtick_2">
     <g id="line2d_2">
      <g>
       <use xlink:href="#m35304a05a8" x="320.412303" y="512.64" style="stroke: #000000; stroke-width: 0.8"/>
      </g>
     </g>
     <g id="text_2">
      <!-- 2016 -->
      <g transform="translate(307.687303 527.238438) scale(0.1 -0.1)">
       <defs>
        <path id="DejaVuSans-36" d="M 2113 2584 
Q 1688 2584 1439 2293 
Q 1191 2003 1191 1497 
Q 1191 994 1439 701 
Q 1688 409 2113 409 
Q 2538 409 2786 701 
Q 3034 994 3034 1497 
Q 3034 2003 2786 2293 
Q 2538 2584 2113 2584 
z
M 3366 4563 
L 3366 3988 
Q 3128 4100 2886 4159 
Q 2644 4219 2406 4219 
Q 1781 4219 1451 3797 
Q 1122 3375 1075 2522 
Q 1259 2794 1537 2939 
Q 1816 3084 2150 3084 
Q 2853 3084 3261 2657 
Q 3669 2231 3669 1497 
Q 3669 778 3244 343 
Q 2819 -91 2113 -91 
Q 1303 -91 875 529 
Q 447 1150 447 2328 
Q 447 3434 972 4092 
Q 1497 4750 2381 4750 
Q 2619 4750 2861 4703 
Q 3103 4656 3366 4563 
z
" transform="scale(0.015625)"/>
       </defs>
       <use xlink:href="#DejaVuSans-32"/>
       <use xlink:href="#DejaVuSans-30" x="63.623047"/>
       <use xlink:href="#DejaVuSans-31" x="127.246094"/>
       <use xlink:href="#DejaVuSans-36" x="190.869141"/>
      </g>
     </g>
    </g>
    <g id="xtick_3">
     <g id="line2d_3">
      <g>
       <use xlink:href="#m35304a05a8" x="464.313876" y="512.64" style="stroke: #000000; stroke-width: 0.8"/>
      </g>
     </g>
     <g id="text_3">
      <!-- 2018 -->
      <g transform="translate(451.588876 527.238438) scale(0.1 -0.1)">
       <defs>
        <path id="DejaVuSans-38" d="M 2034 2216 
Q 1584 2216 1326 1975 
Q 1069 1734 1069 1313 
Q 1069 891 1326 650 
Q 1584 409 2034 409 
Q 2484 409 2743 651 
Q 3003 894 3003 1313 
Q 3003 1734 2745 1975 
Q 2488 2216 2034 2216 
z
M 1403 2484 
Q 997 2584 770 2862 
Q 544 3141 544 3541 
Q 544 4100 942 4425 
Q 1341 4750 2034 4750 
Q 2731 4750 3128 4425 
Q 3525 4100 3525 3541 
Q 3525 3141 3298 2862 
Q 3072 2584 2669 2484 
Q 3125 2378 3379 2068 
Q 3634 1759 3634 1313 
Q 3634 634 3220 271 
Q 2806 -91 2034 -91 
Q 1263 -91 848 271 
Q 434 634 434 1313 
Q 434 1759 690 2068 
Q 947 2378 1403 2484 
z
M 1172 3481 
Q 1172 3119 1398 2916 
Q 1625 2713 2034 2713 
Q 2441 2713 2670 2916 
Q 2900 3119 2900 3481 
Q 2900 3844 2670 4047 
Q 2441 4250 2034 4250 
Q 1625 4250 1398 4047 
Q 1172 3844 1172 3481 
z
" transform="scale(0.015625)"/>
       </defs>
       <use xlink:href="#DejaVuSans-32"/>
       <use xlink:href="#DejaVuSans-30" x="63.623047"/>
       <use xlink:href="#DejaVuSans-31" x="127.246094"/>
       <use xlink:href="#DejaVuSans-38" x="190.869141"/>
      </g>
     </g>
    </g>
    <g id="xtick_4">
     <g id="line2d_4">
      <g>
       <use xlink:href="#m35304a05a8" x="608.018592" y="512.64" style="stroke: #000000; stroke-width: 0.8"/>
      </g>
     </g>
     <g id="text_4">
      <!-- 2020 -->
      <g transform="translate(595.293592 527.238438) scale(0.1 -0.1)">
       <use xlink:href="#DejaVuSans-32"/>
       <use xlink:href="#DejaVuSans-30" x="63.623047"/>
       <use xlink:href="#DejaVuSans-32" x="127.246094"/>
       <use xlink:href="#DejaVuSans-30" x="190.869141"/>
      </g>
     </g>
    </g>
    <g id="xtick_5">
     <g id="line2d_5">
      <g>
       <use xlink:href="#m35304a05a8" x="751.920164" y="512.64" style="stroke: #000000; stroke-width: 0.8"/>
      </g>
     </g>
     <g id="text_5">
      <!-- 2022 -->
      <g transform="translate(739.195164 527.238438) scale(0.1 -0.1)">
       <use xlink:href="#DejaVuSans-32"/>
       <use xlink:href="#DejaVuSans-30" x="63.623047"/>
       <use xlink:href="#DejaVuSans-32" x="127.246094"/>
       <use xlink:href="#DejaVuSans-32" x="190.869141"/>
      </g>
     </g>
    </g>
    <g id="xtick_6">
     <g id="line2d_6">
      <g>
       <use xlink:href="#m35304a05a8" x="895.62488" y="512.64" style="stroke: #000000; stroke-width: 0.8"/>
      </g>
     </g>
     <g id="text_6">
      <!-- 2024 -->
      <g transform="translate(882.89988 527.238438) scale(0.1 -0.1)">
       <use xlink:href="#DejaVuSans-32"/>
       <use xlink:href="#DejaVuSans-30" x="63.623047"/>
       <use xlink:href="#DejaVuSans-32" x="127.246094"/>
       <use xlink:href="#DejaVuSans-34" x="190.869141"/>
      </g>
     </g>
    </g>
   </g>
   <g id="matplotlib.axis_2">
    <g id="ytick_1">
     <g id="line2d_7">
      <defs>
       <path id="m57c3cc6740" d="M 0 0 
L -3.5 0 
" style="stroke: #000000; stroke-width: 0.8"/>
      </defs>
      <g>
       <use xlink:href="#m57c3cc6740" x="144" y="492.516016" style="stroke: #000000; stroke-width: 0.8"/>
      </g>
     </g>
     <g id="text_7">
      <!-- 0 -->
      <g transform="translate(130.6375 496.315235) scale(0.1 -0.1)">
       <use xlink:href="#DejaVuSans-30"/>
      </g>
     </g>
    </g>
    <g id="ytick_2">
     <g id="line2d_8">
      <g>
       <use xlink:href="#m57c3cc6740" x="144" y="420.483859" style="stroke: #000000; stroke-width: 0.8"/>
      </g>
     </g>
     <g id="text_8">
      <!-- 2000 -->
      <g transform="translate(111.55 424.283078) scale(0.1 -0.1)">
       <use xlink:href="#DejaVuSans-32"/>
       <use xlink:href="#DejaVuSans-30" x="63.623047"/>
       <use xlink:href="#DejaVuSans-30" x="127.246094"/>
       <use xlink:href="#DejaVuSans-30" x="190.869141"/>
      </g>
     </g>
    </g>
    <g id="ytick_3">
     <g id="line2d_9">
      <g>
       <use xlink:href="#m57c3cc6740" x="144" y="348.451702" style="stroke: #000000; stroke-width: 0.8"/>
      </g>
     </g>
     <g id="text_9">
      <!-- 4000 -->
      <g transform="translate(111.55 352.25092) scale(0.1 -0.1)">
       <use xlink:href="#DejaVuSans-34"/>
       <use xlink:href="#DejaVuSans-30" x="63.623047"/>
       <use xlink:href="#DejaVuSans-30" x="127.246094"/>
       <use xlink:href="#DejaVuSans-30" x="190.869141"/>
      </g>
     </g>
    </g>
    <g id="ytick_4">
     <g id="line2d_10">
      <g>
       <use xlink:href="#m57c3cc6740" x="144" y="276.419544" style="stroke: #000000; stroke-width: 0.8"/>
      </g>
     </g>
     <g id="text_10">
      <!-- 6000 -->
      <g transform="translate(111.55 280.218763) scale(0.1 -0.1)">
       <use xlink:href="#DejaVuSans-36"/>
       <use xlink:href="#DejaVuSans-30" x="63.623047"/>
       <use xlink:href="#DejaVuSans-30" x="127.246094"/>
       <use xlink:href="#DejaVuSans-30" x="190.869141"/>
      </g>
     </g>
    </g>
    <g id="ytick_5">
     <g id="line2d_11">
      <g>
       <use xlink:href="#m57c3cc6740" x="144" y="204.387387" style="stroke: #000000; stroke-width: 0.8"/>
      </g>
     </g>
     <g id="text_11">
      <!-- 8000 -->
      <g transform="translate(111.55 208.186606) scale(0.1 -0.1)">
       <use xlink:href="#DejaVuSans-38"/>
       <use xlink:href="#DejaVuSans-30" x="63.623047"/>
       <use xlink:href="#DejaVuSans-30" x="127.246094"/>
       <use xlink:href="#DejaVuSans-30" x="190.869141"/>
      </g>
     </g>
    </g>
    <g id="ytick_6">
     <g id="line2d_12">
      <g>
       <use xlink:href="#m57c3cc6740" x="144" y="132.35523" style="stroke: #000000; stroke-width: 0.8"/>
      </g>
     </g>
     <g id="text_12">
      <!-- 10000 -->
      <g transform="translate(105.1875 136.154449) scale(0.1 -0.1)">
       <use xlink:href="#DejaVuSans-31"/>
       <use xlink:href="#DejaVuSans-30" x="63.623047"/>
       <use xlink:href="#DejaVuSans-30" x="127.246094"/>
       <use xlink:href="#DejaVuSans-30" x="190.869141"/>
       <use xlink:href="#DejaVuSans-30" x="254.492188"/>
      </g>
     </g>
    </g>
   </g>
   <g id="line2d_13">
    <path d="M 184.581818 492.48 
L 186.35352 492.407968 
L 309.38838 492.191871 
L 453.486808 492.011791 
L 507.031579 491.795695 
L 521.008339 491.687646 
L 554.473821 491.507566 
L 556.048667 491.435534 
L 565.104033 491.327485 
L 608.215448 491.111389 
L 614.514833 491.039357 
L 614.908544 490.751228 
L 619.042515 490.571148 
L 653.689132 490.427084 
L 657.626247 490.319035 
L 671.799863 490.174971 
L 681.642652 490.102939 
L 695.619412 489.886842 
L 699.359672 489.742778 
L 709.005605 489.526682 
L 711.761586 489.346601 
L 713.533288 489.238553 
L 714.911278 489.058473 
L 722.391798 488.842376 
L 722.588653 488.80636 
L 726.722625 488.662296 
L 733.218865 488.158071 
L 743.455366 487.905958 
L 748.179904 486.429299 
L 748.37676 486.285234 
L 750.148462 486.105154 
L 750.935885 485.528897 
L 751.132741 484.628495 
L 751.526452 484.412398 
L 751.723308 484.376382 
L 751.920164 483.151836 
L 753.101299 482.647611 
L 753.49501 482.035337 
L 753.888722 481.783225 
L 754.085578 481.206967 
L 754.282433 479.730308 
L 754.479289 479.370147 
L 754.676145 478.61381 
L 754.873001 477.389263 
L 755.069856 475.300331 
L 755.463568 473.715623 
L 755.660424 473.427494 
L 755.85728 468.60134 
L 756.054135 466.656472 
L 756.250991 465.900134 
L 756.447847 462.370558 
L 757.038414 458.336757 
L 757.23527 458.192693 
L 757.628982 456.139777 
L 757.825837 455.455471 
L 758.022693 450.197124 
L 758.219549 449.728915 
L 758.61326 448.000143 
L 758.810116 447.892095 
L 759.006972 446.991693 
L 759.203828 443.210004 
L 759.400684 442.273586 
L 759.597539 442.201554 
L 759.794395 439.3923 
L 759.991251 438.816043 
L 760.384962 438.635962 
L 761.172386 435.898741 
L 761.566097 435.178419 
L 761.959809 433.05347 
L 762.156664 432.2251 
L 762.35352 428.155284 
L 762.944087 423.653274 
L 763.534655 423.437177 
L 763.928366 423.185065 
L 764.715789 421.672389 
L 765.109501 421.528325 
L 765.503213 418.35891 
L 765.700068 418.322894 
L 766.09378 417.782653 
L 766.290636 416.233962 
L 766.684347 415.621688 
L 767.078059 414.613238 
L 767.668626 414.325109 
L 767.865482 414.072997 
L 768.456049 411.803984 
L 768.652905 411.65992 
L 769.046617 411.083662 
L 769.83404 410.687485 
L 770.030895 409.210826 
L 770.227751 409.102778 
L 770.424607 408.814649 
L 770.621463 405.897347 
L 771.015174 405.789299 
L 771.408886 405.032961 
L 771.605742 404.31264 
L 772.196309 404.168575 
L 772.786876 403.052077 
L 772.983732 403.016061 
L 773.377444 402.403787 
L 773.771155 402.259723 
L 773.968011 398.946244 
L 775.149146 398.658115 
L 775.542857 398.369987 
L 776.33028 398.261938 
L 776.527136 398.045842 
L 778.889405 397.32552 
L 779.676828 396.749263 
L 780.661107 396.605199 
L 781.054819 396.31707 
L 781.44853 396.173006 
L 783.417088 395.632765 
L 784.204511 392.571398 
L 785.18879 392.427334 
L 785.385646 392.355301 
L 786.960492 392.175221 
L 787.551059 391.959125 
L 787.747915 391.346851 
L 788.732194 391.274819 
L 789.322761 390.950674 
L 791.291319 390.014256 
L 791.488175 389.762144 
L 792.275598 389.437999 
L 793.259877 389.293935 
L 793.456733 389.041822 
L 793.850444 389.005806 
L 794.0473 388.357517 
L 794.244156 388.285485 
L 794.441012 387.457115 
L 796.803281 386.916874 
L 797.393848 386.772809 
L 797.590704 386.268584 
L 798.968694 385.908423 
L 799.559262 385.692327 
L 800.346685 385.512247 
L 801.134108 385.29615 
L 802.118387 385.080054 
L 802.708954 384.899973 
L 804.086945 384.071603 
L 804.2838 383.351282 
L 805.268079 382.522912 
L 805.464935 382.162751 
L 806.449214 381.298365 
L 806.842925 380.542028 
L 807.039781 380.506012 
L 807.236637 379.78569 
L 808.02406 378.705208 
L 808.417772 378.525127 
L 808.811483 378.453095 
L 809.008339 378.12895 
L 809.402051 377.94887 
L 809.598906 377.588709 
L 810.583185 377.300581 
L 810.780041 376.976436 
L 812.158031 376.652291 
L 812.551743 376.472211 
L 812.748599 376.436195 
L 812.945455 376.256114 
L 813.929733 376.11205 
L 815.307724 375.463761 
L 815.898291 375.319696 
L 816.292003 374.491326 
L 816.685714 374.239214 
L 817.669993 373.410844 
L 817.866849 372.582474 
L 818.654272 372.330362 
L 819.835407 371.934185 
L 820.229118 371.321912 
L 820.819686 370.961751 
L 821.016541 370.925735 
L 821.410253 370.349477 
L 822.00082 370.133381 
L 822.394532 369.809236 
L 822.985099 369.521108 
L 823.378811 365.451291 
L 823.575666 364.118696 
L 823.772522 361.849683 
L 823.969378 361.561554 
L 824.756801 358.788316 
L 825.150513 358.067995 
L 825.347368 357.959946 
L 825.544224 357.707834 
L 825.74108 357.203609 
L 825.937936 355.582885 
L 826.134792 355.186708 
L 826.528503 355.042644 
L 827.709638 352.593551 
L 827.906494 352.41347 
L 828.103349 351.441036 
L 828.300205 351.080875 
L 828.693917 350.144457 
L 829.087628 349.5682 
L 829.875051 349.099991 
L 830.071907 348.883895 
L 830.268763 347.695364 
L 830.662474 347.515284 
L 831.056186 347.119107 
L 831.646753 346.290737 
L 831.843609 345.534399 
L 832.040465 345.498383 
L 832.631032 344.778062 
L 833.024744 344.706029 
L 833.221599 344.345869 
L 833.615311 344.093756 
L 833.812167 343.805628 
L 834.59959 340.924341 
L 834.796446 339.447682 
L 835.190157 338.691344 
L 835.387013 338.54728 
L 835.583869 338.223135 
L 836.174436 337.862975 
L 836.371292 337.502814 
L 836.765003 336.062171 
L 837.946138 335.413881 
L 838.33985 334.549495 
L 838.536705 334.405431 
L 839.324129 332.820724 
L 839.914696 332.460563 
L 840.702119 332.20845 
L 841.292686 330.875855 
L 842.080109 330.479678 
L 842.867532 329.507244 
L 843.261244 329.435212 
L 843.654956 329.003019 
L 844.245523 328.750907 
L 844.639234 328.678874 
L 844.83609 328.462778 
L 845.032946 327.778473 
L 845.820369 327.52636 
L 846.017225 327.166199 
L 846.214081 327.130183 
L 846.410936 326.445878 
L 847.001504 326.193765 
L 847.592071 326.049701 
L 847.985783 325.653524 
L 848.970062 325.149299 
L 849.363773 324.717106 
L 849.757485 324.464993 
L 850.151196 324.428977 
L 850.348052 323.456543 
L 850.741763 323.132398 
L 851.332331 322.84427 
L 851.922898 322.448093 
L 852.710321 322.304029 
L 852.907177 321.295578 
L 853.497744 320.935418 
L 853.6946 320.683305 
L 854.088312 320.647289 
L 854.678879 320.251112 
L 855.072591 320.17908 
L 855.269446 319.854935 
L 856.056869 319.530791 
L 856.253725 319.134614 
L 856.647437 319.098598 
L 857.041148 318.846485 
L 857.631716 318.52234 
L 857.828571 318.018115 
L 858.615995 317.621938 
L 858.81285 317.297794 
L 859.206562 317.081697 
L 859.403418 316.829585 
L 859.993985 316.50544 
L 860.190841 316.181295 
L 860.387697 316.109263 
L 860.781408 315.821134 
L 861.17512 315.641054 
L 861.371975 315.424958 
L 862.55311 314.992765 
L 862.749966 314.560572 
L 862.946822 314.452523 
L 863.9311 314.200411 
L 864.324812 313.876266 
L 864.718524 313.732202 
L 865.309091 313.552121 
L 865.505947 313.227977 
L 865.899658 313.155945 
L 866.096514 312.507655 
L 866.29337 312.363591 
L 866.687081 311.895382 
L 866.883937 310.8149 
L 867.277649 310.562787 
L 867.474504 310.418723 
L 867.67136 310.094578 
L 868.065072 309.842465 
L 868.852495 309.122144 
L 869.246206 308.942063 
L 869.443062 308.50987 
L 869.639918 308.437838 
L 870.03363 308.005645 
L 870.427341 307.753533 
L 871.017908 307.537436 
L 871.608476 306.853131 
L 872.002187 306.528986 
L 872.395899 306.096793 
L 873.577033 305.124359 
L 874.561312 304.872247 
L 875.15188 304.115909 
L 875.545591 303.683716 
L 876.136159 303.287539 
L 876.923582 302.927378 
L 877.120437 302.747298 
L 877.907861 302.423153 
L 878.301572 302.062992 
L 878.892139 301.846896 
L 879.482707 301.486735 
L 880.073274 301.234623 
L 880.27013 301.054542 
L 882.435543 300.15414 
L 882.632399 299.793979 
L 884.01039 299.217722 
L 884.600957 298.821545 
L 884.797813 298.785529 
L 885.38838 298.281304 
L 886.175803 298.065208 
L 886.372659 297.560983 
L 886.569515 295.904243 
L 886.963226 295.47205 
L 887.160082 295.436034 
L 887.553794 294.679696 
L 887.947505 294.139455 
L 888.341217 293.81531 
L 888.734928 292.698812 
L 889.12864 292.338651 
L 889.522351 292.086539 
L 889.916063 291.97849 
L 890.112919 291.690362 
L 890.50663 291.474265 
L 890.900342 291.114105 
L 891.294053 290.934024 
L 891.490909 290.825976 
L 891.687765 290.465815 
L 892.081476 290.321751 
L 892.278332 289.889558 
L 892.8689 289.673461 
L 893.262611 289.097204 
L 893.853178 288.628995 
L 894.24689 288.232818 
L 894.837457 288.12477 
L 895.034313 287.800625 
L 895.62488 287.584529 
L 896.018592 285.999821 
L 896.412303 285.639661 
L 897.593438 284.991371 
L 897.790294 284.415114 
L 898.184005 284.199017 
L 898.380861 283.694792 
L 898.577717 283.586744 
L 898.774573 283.226583 
L 899.758852 282.61431 
L 900.546275 282.002037 
L 900.743131 281.930004 
L 901.727409 280.885538 
L 901.924265 280.417329 
L 902.121121 280.309281 
L 902.514833 280.237249 
L 902.711688 279.841072 
L 903.1054 279.660992 
L 903.499111 279.444895 
L 903.695967 278.796606 
L 904.48339 278.328397 
L 904.680246 277.680107 
L 905.467669 276.995802 
L 905.664525 276.959786 
L 905.861381 276.563609 
L 906.648804 276.023368 
L 906.84566 275.663207 
L 907.239371 275.519142 
L 907.436227 274.834837 
L 907.829938 274.726789 
L 908.026794 274.402644 
L 908.22365 274.330612 
L 908.420506 273.574274 
L 908.814217 273.466226 
L 909.207929 273.142081 
L 909.60164 272.565824 
L 909.798496 272.42176 
L 910.585919 271.197213 
L 910.782775 271.125181 
L 911.176487 270.692988 
L 911.96391 270.116731 
L 912.554477 269.828602 
L 914.326179 267.955766 
L 914.719891 267.811702 
L 915.113602 267.379509 
L 915.507314 267.235444 
L 915.70417 266.371059 
L 916.294737 265.758785 
L 916.491593 265.038464 
L 916.885304 264.642287 
L 917.08216 264.24611 
L 917.279016 264.210094 
L 918.263295 263.201644 
L 918.853862 262.841483 
L 919.050718 262.517338 
L 920.231852 262.121161 
L 920.82242 261.364824 
L 921.216131 260.680518 
L 921.609843 260.536454 
L 921.806699 260.212309 
L 922.003554 260.104261 
L 922.20041 259.852148 
L 922.397266 259.816132 
L 922.594122 259.383939 
L 923.381545 258.843698 
L 924.168968 258.267441 
L 924.365824 258.231425 
L 925.546958 257.258991 
L 925.94067 257.07891 
L 926.137526 256.718749 
L 926.531237 256.646717 
L 927.121805 256.034444 
L 927.31866 255.710299 
L 927.909228 255.422171 
L 928.499795 255.025994 
L 928.893506 254.881929 
L 929.287218 254.449736 
L 930.271497 253.873479 
L 930.468353 253.621367 
L 931.255776 253.261206 
L 931.452632 251.604466 
L 932.43691 250.884145 
L 933.224334 249.443502 
L 933.421189 249.299437 
L 933.618045 248.831228 
L 934.011757 248.651148 
L 934.79918 247.390585 
L 935.192891 245.697829 
L 935.389747 245.121572 
L 935.783459 242.38435 
L 935.980314 241.303868 
L 936.964593 240.007289 
L 937.752016 236.765842 
L 937.948872 236.585762 
L 938.145728 236.081536 
L 938.342584 234.316749 
L 938.53944 233.668459 
L 938.736295 233.596427 
L 938.933151 232.768057 
L 939.523718 232.263832 
L 939.91743 230.895221 
L 940.901709 230.35498 
L 941.098565 229.994819 
L 942.082843 229.418562 
L 942.476555 228.986369 
L 942.673411 228.590192 
L 942.870267 227.581742 
L 943.067122 227.185565 
L 943.460834 227.041501 
L 943.854545 226.86142 
L 944.248257 226.573292 
L 944.641969 226.285163 
L 945.03568 226.213131 
L 945.429392 225.961018 
L 945.823103 225.708906 
L 946.019959 225.564841 
L 946.413671 225.528825 
L 947.791661 224.124198 
L 948.382228 223.619973 
L 948.77594 223.295828 
L 948.972796 222.971684 
L 949.366507 222.863636 
L 949.760219 222.539491 
L 949.957075 222.431443 
L 950.15393 221.567057 
L 950.744498 220.954783 
L 951.138209 220.846735 
L 952.319344 219.802269 
L 952.713055 219.622188 
L 952.909911 219.550156 
L 953.106767 219.226012 
L 953.697334 218.973899 
L 953.89419 218.433658 
L 954.091046 218.253577 
L 954.287902 217.67732 
L 954.681613 217.425208 
L 955.27218 215.948548 
L 955.469036 215.228227 
L 956.059604 214.796034 
L 956.650171 213.967664 
L 957.043882 212.563037 
L 957.240738 212.130844 
L 957.437594 211.374506 
L 957.63445 211.302474 
L 957.831306 210.690201 
L 958.225017 210.438088 
L 959.406152 209.177526 
L 959.603008 208.673301 
L 959.996719 208.529236 
L 960.193575 208.31314 
L 960.390431 207.808915 
L 961.177854 207.48477 
L 961.37471 207.232657 
L 961.571565 207.196641 
L 961.768421 206.440304 
L 962.162133 206.188191 
L 962.358988 205.683966 
L 962.555844 205.539902 
L 962.949556 205.503886 
L 964.13069 204.567468 
L 964.721258 204.099259 
L 965.114969 203.63105 
L 965.508681 203.234873 
L 965.705537 202.838696 
L 965.902392 202.046342 
L 967.083527 201.362037 
L 967.477239 200.389603 
L 967.87095 200.209522 
L 968.067806 199.669281 
L 968.264662 199.561233 
L 969.052085 198.552782 
L 970.036364 197.904493 
L 971.217498 196.679946 
L 971.808066 195.851577 
L 972.9892 192.069888 
L 973.776623 187.892023 
L 973.973479 187.603895 
L 974.170335 187.063653 
L 974.367191 185.046753 
L 974.564046 181.229049 
L 974.760902 179.752389 
L 974.957758 177.375328 
L 975.154614 176.727039 
L 975.548325 173.989817 
L 975.942037 170.316177 
L 976.335748 165.309942 
L 976.72946 164.553604 
L 977.123172 158.034694 
L 977.320027 156.341938 
L 977.713739 148.994658 
L 978.10745 147.590031 
L 978.304306 143.916391 
L 978.501162 143.052005 
L 978.894874 138.982188 
L 979.288585 127.925252 
L 979.682297 126.232497 
L 979.879152 122.846985 
L 980.076008 122.486824 
L 980.46972 116.976364 
L 980.666576 116.868316 
L 980.863431 116.508155 
L 981.257143 115.211577 
L 981.453999 114.887432 
L 981.650854 114.275159 
L 981.84771 113.122644 
L 982.241422 112.906548 
L 982.438278 112.33029 
L 982.831989 110.49347 
L 983.225701 106.855846 
L 983.422556 106.063493 
L 983.619412 105.99146 
L 983.816268 105.6313 
L 984.800547 102.497901 
L 984.997403 102.353837 
L 985.194258 101.561483 
L 985.58797 101.201322 
L 985.784826 101.057258 
L 985.981681 100.517017 
L 986.178537 100.336936 
L 986.96596 99.112389 
L 987.556528 98.4641 
L 987.753383 98.392068 
L 988.737662 96.951425 
L 989.131374 96.771344 
L 989.721941 96.663296 
L 990.115653 96.087039 
L 990.509364 95.978991 
L 991.099932 95.222653 
L 991.887355 94.754444 
L 992.674778 93.745994 
L 992.871634 93.205753 
L 993.462201 92.989656 
L 993.855913 92.701527 
L 994.052768 92.485431 
L 994.44648 91.765109 
L 994.840191 91.404949 
L 995.037047 91.152836 
L 995.233903 90.10837 
L 995.627614 89.424064 
L 996.218182 89.28 
L 996.218182 89.28 
" clip-path="url(#pdb8f6dbaae)" style="fill: none; stroke: #1f77b4; stroke-width: 1.5; stroke-linecap: square"/>
   </g>
   <g id="patch_3">
    <path d="M 144 512.64 
L 144 69.12 
" style="fill: none; stroke: #000000; stroke-width: 0.8; stroke-linejoin: miter; stroke-linecap: square"/>
   </g>
   <g id="patch_4">
    <path d="M 1036.8 512.64 
L 1036.8 69.12 
" style="fill: none; stroke: #000000; stroke-width: 0.8; stroke-linejoin: miter; stroke-linecap: square"/>
   </g>
   <g id="patch_5">
    <path d="M 144 512.64 
L 1036.8 512.64 
" style="fill: none; stroke: #000000; stroke-width: 0.8; stroke-linejoin: miter; stroke-linecap: square"/>
   </g>
   <g id="patch_6">
    <path d="M 144 69.12 
L 1036.8 69.12 
" style="fill: none; stroke: #000000; stroke-width: 0.8; stroke-linejoin: miter; stroke-linecap: square"/>
   </g>
   <g id="text_13">
    <!-- Number of AEDs in the OpenStreetMap database in Poland from first edition, day by day. As at: 2025-05-26 -->
    <g transform="translate(144 63.12) scale(0.14 -0.14)">
     <defs>
      <path id="DejaVuSans-4e" d="M 628 4666 
L 1478 4666 
L 3547 763 
L 3547 4666 
L 4159 4666 
L 4159 0 
L 3309 0 
L 1241 3903 
L 1241 0 
L 628 0 
L 628 4666 
z
" transform="scale(0.015625)"/>
      <path id="DejaVuSans-75" d="M 544 1381 
L 544 3500 
L 1119 3500 
L 1119 1403 
Q 1119 906 1312 657 
Q 1506 409 1894 409 
Q 2359 409 2629 706 
Q 2900 1003 2900 1516 
L 2900 3500 
L 3475 3500 
L 3475 0 
L 2900 0 
L 2900 538 
Q 2691 219 2414 64 
Q 2138 -91 1772 -91 
Q 1169 -91 856 284 
Q 544 659 544 1381 
z
M 1991 3584 
L 1991 3584 
z
" transform="scale(0.015625)"/>
      <path id="DejaVuSans-6d" d="M 3328 2828 
Q 3544 3216 3844 3400 
Q 4144 3584 4550 3584 
Q 5097 3584 5394 3201 
Q 5691 2819 5691 2113 
L 5691 0 
L 5113 0 
L 5113 2094 
Q 5113 2597 4934 2840 
Q 4756 3084 4391 3084 
Q 3944 3084 3684 2787 
Q 3425 2491 3425 1978 
L 3425 0 
L 2847 0 
L 2847 2094 
Q 2847 2600 2669 2842 
Q 2491 3084 2119 3084 
Q 1678 3084 1418 2786 
Q 1159 2488 1159 1978 
L 1159 0 
L 581 0 
L 581 3500 
L 1159 3500 
L 1159 2956 
Q 1356 3278 1631 3431 
Q 1906 3584 2284 3584 
Q 2666 3584 2933 3390 
Q 3200 3197 3328 2828 
z
" transform="scale(0.015625)"/>
      <path id="DejaVuSans-62" d="M 3116 1747 
Q 3116 2381 2855 2742 
Q 2594 3103 2138 3103 
Q 1681 3103 1420 2742 
Q 1159 2381 1159 1747 
Q 1159 1113 1420 752 
Q 1681 391 2138 391 
Q 2594 391 2855 752 
Q 3116 1113 3116 1747 
z
M 1159 2969 
Q 1341 3281 1617 3432 
Q 1894 3584 2278 3584 
Q 2916 3584 3314 3078 
Q 3713 2572 3713 1747 
Q 3713 922 3314 415 
Q 2916 -91 2278 -91 
Q 1894 -91 1617 61 
Q 1341 213 1159 525 
L 1159 0 
L 581 0 
L 581 4863 
L 1159 4863 
L 1159 2969 
z
" transform="scale(0.015625)"/>
      <path id="DejaVuSans-65" d="M 3597 1894 
L 3597 1613 
L 953 1613 
Q 991 1019 1311 708 
Q 1631 397 2203 397 
Q 2534 397 2845 478 
Q 3156 559 3463 722 
L 3463 178 
Q 3153 47 2828 -22 
Q 2503 -91 2169 -91 
Q 1331 -91 842 396 
Q 353 884 353 1716 
Q 353 2575 817 3079 
Q 1281 3584 2069 3584 
Q 2775 3584 3186 3129 
Q 3597 2675 3597 1894 
z
M 3022 2063 
Q 3016 2534 2758 2815 
Q 2500 3097 2075 3097 
Q 1594 3097 1305 2825 
Q 1016 2553 972 2059 
L 3022 2063 
z
" transform="scale(0.015625)"/>
      <path id="DejaVuSans-72" d="M 2631 2963 
Q 2534 3019 2420 3045 
Q 2306 3072 2169 3072 
Q 1681 3072 1420 2755 
Q 1159 2438 1159 1844 
L 1159 0 
L 581 0 
L 581 3500 
L 1159 3500 
L 1159 2956 
Q 1341 3275 1631 3429 
Q 1922 3584 2338 3584 
Q 2397 3584 2469 3576 
Q 2541 3569 2628 3553 
L 2631 2963 
z
" transform="scale(0.015625)"/>
      <path id="DejaVuSans-20" transform="scale(0.015625)"/>
      <path id="DejaVuSans-6f" d="M 1959 3097 
Q 1497 3097 1228 2736 
Q 959 2375 959 1747 
Q 959 1119 1226 758 
Q 1494 397 1959 397 
Q 2419 397 2687 759 
Q 2956 1122 2956 1747 
Q 2956 2369 2687 2733 
Q 2419 3097 1959 3097 
z
M 1959 3584 
Q 2709 3584 3137 3096 
Q 3566 2609 3566 1747 
Q 3566 888 3137 398 
Q 2709 -91 1959 -91 
Q 1206 -91 779 398 
Q 353 888 353 1747 
Q 353 2609 779 3096 
Q 1206 3584 1959 3584 
z
" transform="scale(0.015625)"/>
      <path id="DejaVuSans-66" d="M 2375 4863 
L 2375 4384 
L 1825 4384 
Q 1516 4384 1395 4259 
Q 1275 4134 1275 3809 
L 1275 3500 
L 2222 3500 
L 2222 3053 
L 1275 3053 
L 1275 0 
L 697 0 
L 697 3053 
L 147 3053 
L 147 3500 
L 697 3500 
L 697 3744 
Q 697 4328 969 4595 
Q 1241 4863 1831 4863 
L 2375 4863 
z
" transform="scale(0.015625)"/>
      <path id="DejaVuSans-41" d="M 2188 4044 
L 1331 1722 
L 3047 1722 
L 2188 4044 
z
M 1831 4666 
L 2547 4666 
L 4325 0 
L 3669 0 
L 3244 1197 
L 1141 1197 
L 716 0 
L 50 0 
L 1831 4666 
z
" transform="scale(0.015625)"/>
      <path id="DejaVuSans-45" d="M 628 4666 
L 3578 4666 
L 3578 4134 
L 1259 4134 
L 1259 2753 
L 3481 2753 
L 3481 2222 
L 1259 2222 
L 1259 531 
L 3634 531 
L 3634 0 
L 628 0 
L 628 4666 
z
" transform="scale(0.015625)"/>
      <path id="DejaVuSans-44" d="M 1259 4147 
L 1259 519 
L 2022 519 
Q 2988 519 3436 956 
Q 3884 1394 3884 2338 
Q 3884 3275 3436 3711 
Q 2988 4147 2022 4147 
L 1259 4147 
z
M 628 4666 
L 1925 4666 
Q 3281 4666 3915 4102 
Q 4550 3538 4550 2338 
Q 4550 1131 3912 565 
Q 3275 0 1925 0 
L 628 0 
L 628 4666 
z
" transform="scale(0.015625)"/>
      <path id="DejaVuSans-73" d="M 2834 3397 
L 2834 2853 
Q 2591 2978 2328 3040 
Q 2066 3103 1784 3103 
Q 1356 3103 1142 2972 
Q 928 2841 928 2578 
Q 928 2378 1081 2264 
Q 1234 2150 1697 2047 
L 1894 2003 
Q 2506 1872 2764 1633 
Q 3022 1394 3022 966 
Q 3022 478 2636 193 
Q 2250 -91 1575 -91 
Q 1294 -91 989 -36 
Q 684 19 347 128 
L 347 722 
Q 666 556 975 473 
Q 1284 391 1588 391 
Q 1994 391 2212 530 
Q 2431 669 2431 922 
Q 2431 1156 2273 1281 
Q 2116 1406 1581 1522 
L 1381 1569 
Q 847 1681 609 1914 
Q 372 2147 372 2553 
Q 372 3047 722 3315 
Q 1072 3584 1716 3584 
Q 2034 3584 2315 3537 
Q 2597 3491 2834 3397 
z
" transform="scale(0.015625)"/>
      <path id="DejaVuSans-69" d="M 603 3500 
L 1178 3500 
L 1178 0 
L 603 0 
L 603 3500 
z
M 603 4863 
L 1178 4863 
L 1178 4134 
L 603 4134 
L 603 4863 
z
" transform="scale(0.015625)"/>
      <path id="DejaVuSans-6e" d="M 3513 2113 
L 3513 0 
L 2938 0 
L 2938 2094 
Q 2938 2591 2744 2837 
Q 2550 3084 2163 3084 
Q 1697 3084 1428 2787 
Q 1159 2491 1159 1978 
L 1159 0 
L 581 0 
L 581 3500 
L 1159 3500 
L 1159 2956 
Q 1366 3272 1645 3428 
Q 1925 3584 2291 3584 
Q 2894 3584 3203 3211 
Q 3513 2838 3513 2113 
z
" transform="scale(0.015625)"/>
      <path id="DejaVuSans-74" d="M 1172 4494 
L 1172 3500 
L 2356 3500 
L 2356 3053 
L 1172 3053 
L 1172 1153 
Q 1172 725 1289 603 
Q 1406 481 1766 481 
L 2356 481 
L 2356 0 
L 1766 0 
Q 1100 0 847 248 
Q 594 497 594 1153 
L 594 3053 
L 172 3053 
L 172 3500 
L 594 3500 
L 594 4494 
L 1172 4494 
z
" transform="scale(0.015625)"/>
      <path id="DejaVuSans-68" d="M 3513 2113 
L 3513 0 
L 2938 0 
L 2938 2094 
Q 2938 2591 2744 2837 
Q 2550 3084 2163 3084 
Q 1697 3084 1428 2787 
Q 1159 2491 1159 1978 
L 1159 0 
L 581 0 
L 581 4863 
L 1159 4863 
L 1159 2956 
Q 1366 3272 1645 3428 
Q 1925 3584 2291 3584 
Q 2894 3584 3203 3211 
Q 3513 2838 3513 2113 
z
" transform="scale(0.015625)"/>
      <path id="DejaVuSans-4f" d="M 2522 4238 
Q 1834 4238 1429 3725 
Q 1025 3213 1025 2328 
Q 1025 1447 1429 934 
Q 1834 422 2522 422 
Q 3209 422 3611 934 
Q 4013 1447 4013 2328 
Q 4013 3213 3611 3725 
Q 3209 4238 2522 4238 
z
M 2522 4750 
Q 3503 4750 4090 4092 
Q 4678 3434 4678 2328 
Q 4678 1225 4090 567 
Q 3503 -91 2522 -91 
Q 1538 -91 948 565 
Q 359 1222 359 2328 
Q 359 3434 948 4092 
Q 1538 4750 2522 4750 
z
" transform="scale(0.015625)"/>
      <path id="DejaVuSans-70" d="M 1159 525 
L 1159 -1331 
L 581 -1331 
L 581 3500 
L 1159 3500 
L 1159 2969 
Q 1341 3281 1617 3432 
Q 1894 3584 2278 3584 
Q 2916 3584 3314 3078 
Q 3713 2572 3713 1747 
Q 3713 922 3314 415 
Q 2916 -91 2278 -91 
Q 1894 -91 1617 61 
Q 1341 213 1159 525 
z
M 3116 1747 
Q 3116 2381 2855 2742 
Q 2594 3103 2138 3103 
Q 1681 3103 1420 2742 
Q 1159 2381 1159 1747 
Q 1159 1113 1420 752 
Q 1681 391 2138 391 
Q 2594 391 2855 752 
Q 3116 1113 3116 1747 
z
" transform="scale(0.015625)"/>
      <path id="DejaVuSans-53" d="M 3425 4513 
L 3425 3897 
Q 3066 4069 2747 4153 
Q 2428 4238 2131 4238 
Q 1616 4238 1336 4038 
Q 1056 3838 1056 3469 
Q 1056 3159 1242 3001 
Q 1428 2844 1947 2747 
L 2328 2669 
Q 3034 2534 3370 2195 
Q 3706 1856 3706 1288 
Q 3706 609 3251 259 
Q 2797 -91 1919 -91 
Q 1588 -91 1214 -16 
Q 841 59 441 206 
L 441 856 
Q 825 641 1194 531 
Q 1563 422 1919 422 
Q 2459 422 2753 634 
Q 3047 847 3047 1241 
Q 3047 1584 2836 1778 
Q 2625 1972 2144 2069 
L 1759 2144 
Q 1053 2284 737 2584 
Q 422 2884 422 3419 
Q 422 4038 858 4394 
Q 1294 4750 2059 4750 
Q 2388 4750 2728 4690 
Q 3069 4631 3425 4513 
z
" transform="scale(0.015625)"/>
      <path id="DejaVuSans-4d" d="M 628 4666 
L 1569 4666 
L 2759 1491 
L 3956 4666 
L 4897 4666 
L 4897 0 
L 4281 0 
L 4281 4097 
L 3078 897 
L 2444 897 
L 1241 4097 
L 1241 0 
L 628 0 
L 628 4666 
z
" transform="scale(0.015625)"/>
      <path id="DejaVuSans-61" d="M 2194 1759 
Q 1497 1759 1228 1600 
Q 959 1441 959 1056 
Q 959 750 1161 570 
Q 1363 391 1709 391 
Q 2188 391 2477 730 
Q 2766 1069 2766 1631 
L 2766 1759 
L 2194 1759 
z
M 3341 1997 
L 3341 0 
L 2766 0 
L 2766 531 
Q 2569 213 2275 61 
Q 1981 -91 1556 -91 
Q 1019 -91 701 211 
Q 384 513 384 1019 
Q 384 1609 779 1909 
Q 1175 2209 1959 2209 
L 2766 2209 
L 2766 2266 
Q 2766 2663 2505 2880 
Q 2244 3097 1772 3097 
Q 1472 3097 1187 3025 
Q 903 2953 641 2809 
L 641 3341 
Q 956 3463 1253 3523 
Q 1550 3584 1831 3584 
Q 2591 3584 2966 3190 
Q 3341 2797 3341 1997 
z
" transform="scale(0.015625)"/>
      <path id="DejaVuSans-64" d="M 2906 2969 
L 2906 4863 
L 3481 4863 
L 3481 0 
L 2906 0 
L 2906 525 
Q 2725 213 2448 61 
Q 2172 -91 1784 -91 
Q 1150 -91 751 415 
Q 353 922 353 1747 
Q 353 2572 751 3078 
Q 1150 3584 1784 3584 
Q 2172 3584 2448 3432 
Q 2725 3281 2906 2969 
z
M 947 1747 
Q 947 1113 1208 752 
Q 1469 391 1925 391 
Q 2381 391 2643 752 
Q 2906 1113 2906 1747 
Q 2906 2381 2643 2742 
Q 2381 3103 1925 3103 
Q 1469 3103 1208 2742 
Q 947 2381 947 1747 
z
" transform="scale(0.015625)"/>
      <path id="DejaVuSans-50" d="M 1259 4147 
L 1259 2394 
L 2053 2394 
Q 2494 2394 2734 2622 
Q 2975 2850 2975 3272 
Q 2975 3691 2734 3919 
Q 2494 4147 2053 4147 
L 1259 4147 
z
M 628 4666 
L 2053 4666 
Q 2838 4666 3239 4311 
Q 3641 3956 3641 3272 
Q 3641 2581 3239 2228 
Q 2838 1875 2053 1875 
L 1259 1875 
L 1259 0 
L 628 0 
L 628 4666 
z
" transform="scale(0.015625)"/>
      <path id="DejaVuSans-6c" d="M 603 4863 
L 1178 4863 
L 1178 0 
L 603 0 
L 603 4863 
z
" transform="scale(0.015625)"/>
      <path id="DejaVuSans-2c" d="M 750 794 
L 1409 794 
L 1409 256 
L 897 -744 
L 494 -744 
L 750 256 
L 750 794 
z
" transform="scale(0.015625)"/>
      <path id="DejaVuSans-79" d="M 2059 -325 
Q 1816 -950 1584 -1140 
Q 1353 -1331 966 -1331 
L 506 -1331 
L 506 -850 
L 844 -850 
Q 1081 -850 1212 -737 
Q 1344 -625 1503 -206 
L 1606 56 
L 191 3500 
L 800 3500 
L 1894 763 
L 2988 3500 
L 3597 3500 
L 2059 -325 
z
" transform="scale(0.015625)"/>
      <path id="DejaVuSans-2e" d="M 684 794 
L 1344 794 
L 1344 0 
L 684 0 
L 684 794 
z
" transform="scale(0.015625)"/>
      <path id="DejaVuSans-3a" d="M 750 794 
L 1409 794 
L 1409 0 
L 750 0 
L 750 794 
z
M 750 3309 
L 1409 3309 
L 1409 2516 
L 750 2516 
L 750 3309 
z
" transform="scale(0.015625)"/>
      <path id="DejaVuSans-35" d="M 691 4666 
L 3169 4666 
L 3169 4134 
L 1269 4134 
L 1269 2991 
Q 1406 3038 1543 3061 
Q 1681 3084 1819 3084 
Q 2600 3084 3056 2656 
Q 3513 2228 3513 1497 
Q 3513 744 3044 326 
Q 2575 -91 1722 -91 
Q 1428 -91 1123 -41 
Q 819 9 494 109 
L 494 744 
Q 775 591 1075 516 
Q 1375 441 1709 441 
Q 2250 441 2565 725 
Q 2881 1009 2881 1497 
Q 2881 1984 2565 2268 
Q 2250 2553 1709 2553 
Q 1456 2553 1204 2497 
Q 953 2441 691 2322 
L 691 4666 
z
" transform="scale(0.015625)"/>
      <path id="DejaVuSans-2d" d="M 313 2009 
L 1997 2009 
L 1997 1497 
L 313 1497 
L 313 2009 
z
" transform="scale(0.015625)"/>
     </defs>
     <use xlink:href="#DejaVuSans-4e"/>
     <use xlink:href="#DejaVuSans-75" x="74.804688"/>
     <use xlink:href="#DejaVuSans-6d" x="138.183594"/>
     <use xlink:href="#DejaVuSans-62" x="235.595703"/>
     <use xlink:href="#DejaVuSans-65" x="299.072266"/>
     <use xlink:href="#DejaVuSans-72" x="360.595703"/>
     <use xlink:href="#DejaVuSans-20" x="401.708984"/>
     <use xlink:href="#DejaVuSans-6f" x="433.496094"/>
     <use xlink:href="#DejaVuSans-66" x="494.677734"/>
     <use xlink:href="#DejaVuSans-20" x="529.882812"/>
     <use xlink:href="#DejaVuSans-41" x="561.669922"/>
     <use xlink:href="#DejaVuSans-45" x="630.078125"/>
     <use xlink:href="#DejaVuSans-44" x="693.261719"/>
     <use xlink:href="#DejaVuSans-73" x="770.263672"/>
     <use xlink:href="#DejaVuSans-20" x="822.363281"/>
     <use xlink:href="#DejaVuSans-69" x="854.150391"/>
     <use xlink:href="#DejaVuSans-6e" x="881.933594"/>
     <use xlink:href="#DejaVuSans-20" x="945.3125"/>
     <use xlink:href="#DejaVuSans-74" x="977.099609"/>
     <use xlink:href="#DejaVuSans-68" x="1016.308594"/>
     <use xlink:href="#DejaVuSans-65" x="1079.6875"/>
     <use xlink:href="#DejaVuSans-20" x="1141.210938"/>
     <use xlink:href="#DejaVuSans-4f" x="1172.998047"/>
     <use xlink:href="#DejaVuSans-70" x="1251.708984"/>
     <use xlink:href="#DejaVuSans-65" x="1315.185547"/>
     <use xlink:href="#DejaVuSans-6e" x="1376.708984"/>
     <use xlink:href="#DejaVuSans-53" x="1440.087891"/>
     <use xlink:href="#DejaVuSans-74" x="1503.564453"/>
     <use xlink:href="#DejaVuSans-72" x="1542.773438"/>
     <use xlink:href="#DejaVuSans-65" x="1581.636719"/>
     <use xlink:href="#DejaVuSans-65" x="1643.160156"/>
     <use xlink:href="#DejaVuSans-74" x="1704.683594"/>
     <use xlink:href="#DejaVuSans-4d" x="1743.892578"/>
     <use xlink:href="#DejaVuSans-61" x="1830.171875"/>
     <use xlink:href="#DejaVuSans-70" x="1891.451172"/>
     <use xlink:href="#DejaVuSans-20" x="1954.927734"/>
     <use xlink:href="#DejaVuSans-64" x="1986.714844"/>
     <use xlink:href="#DejaVuSans-61" x="2050.191406"/>
     <use xlink:href="#DejaVuSans-74" x="2111.470703"/>
     <use xlink:href="#DejaVuSans-61" x="2150.679688"/>
     <use xlink:href="#DejaVuSans-62" x="2211.958984"/>
     <use xlink:href="#DejaVuSans-61" x="2275.435547"/>
     <use xlink:href="#DejaVuSans-73" x="2336.714844"/>
     <use xlink:href="#DejaVuSans-65" x="2388.814453"/>
     <use xlink:href="#DejaVuSans-20" x="2450.337891"/>
     <use xlink:href="#DejaVuSans-69" x="2482.125"/>
     <use xlink:href="#DejaVuSans-6e" x="2509.908203"/>
     <use xlink:href="#DejaVuSans-20" x="2573.287109"/>
     <use xlink:href="#DejaVuSans-50" x="2605.074219"/>
     <use xlink:href="#DejaVuSans-6f" x="2661.751953"/>
     <use xlink:href="#DejaVuSans-6c" x="2722.933594"/>
     <use xlink:href="#DejaVuSans-61" x="2750.716797"/>
     <use xlink:href="#DejaVuSans-6e" x="2811.996094"/>
     <use xlink:href="#DejaVuSans-64" x="2875.375"/>
     <use xlink:href="#DejaVuSans-20" x="2938.851562"/>
     <use xlink:href="#DejaVuSans-66" x="2970.638672"/>
     <use xlink:href="#DejaVuSans-72" x="3005.84375"/>
     <use xlink:href="#DejaVuSans-6f" x="3044.707031"/>
     <use xlink:href="#DejaVuSans-6d" x="3105.888672"/>
     <use xlink:href="#DejaVuSans-20" x="3203.300781"/>
     <use xlink:href="#DejaVuSans-66" x="3235.087891"/>
     <use xlink:href="#DejaVuSans-69" x="3270.292969"/>
     <use xlink:href="#DejaVuSans-72" x="3298.076172"/>
     <use xlink:href="#DejaVuSans-73" x="3339.189453"/>
     <use xlink:href="#DejaVuSans-74" x="3391.289062"/>
     <use xlink:href="#DejaVuSans-20" x="3430.498047"/>
     <use xlink:href="#DejaVuSans-65" x="3462.285156"/>
     <use xlink:href="#DejaVuSans-64" x="3523.808594"/>
     <use xlink:href="#DejaVuSans-69" x="3587.285156"/>
     <use xlink:href="#DejaVuSans-74" x="3615.068359"/>
     <use xlink:href="#DejaVuSans-69" x="3654.277344"/>
     <use xlink:href="#DejaVuSans-6f" x="3682.060547"/>
     <use xlink:href="#DejaVuSans-6e" x="3743.242188"/>
     <use xlink:href="#DejaVuSans-2c" x="3806.621094"/>
     <use xlink:href="#DejaVuSans-20" x="3838.408203"/>
     <use xlink:href="#DejaVuSans-64" x="3870.195312"/>
     <use xlink:href="#DejaVuSans-61" x="3933.671875"/>
     <use xlink:href="#DejaVuSans-79" x="3994.951172"/>
     <use xlink:href="#DejaVuSans-20" x="4054.130859"/>
     <use xlink:href="#DejaVuSans-62" x="4085.917969"/>
     <use xlink:href="#DejaVuSans-79" x="4149.394531"/>
     <use xlink:href="#DejaVuSans-20" x="4208.574219"/>
     <use xlink:href="#DejaVuSans-64" x="4240.361328"/>
     <use xlink:href="#DejaVuSans-61" x="4303.837891"/>
     <use xlink:href="#DejaVuSans-79" x="4365.117188"/>
     <use xlink:href="#DejaVuSans-2e" x="4410.046875"/>
     <use xlink:href="#DejaVuSans-20" x="4441.833984"/>
     <use xlink:href="#DejaVuSans-41" x="4473.621094"/>
     <use xlink:href="#DejaVuSans-73" x="4542.029297"/>
     <use xlink:href="#DejaVuSans-20" x="4594.128906"/>
     <use xlink:href="#DejaVuSans-61" x="4625.916016"/>
     <use xlink:href="#DejaVuSans-74" x="4687.195312"/>
     <use xlink:href="#DejaVuSans-3a" x="4726.404297"/>
     <use xlink:href="#DejaVuSans-20" x="4760.095703"/>
     <use xlink:href="#DejaVuSans-32" x="4791.882812"/>
     <use xlink:href="#DejaVuSans-30" x="4855.505859"/>
     <use xlink:href="#DejaVuSans-32" x="4919.128906"/>
     <use xlink:href="#DejaVuSans-35" x="4982.751953"/>
     <use xlink:href="#DejaVuSans-2d" x="5046.375"/>
     <use xlink:href="#DejaVuSans-30" x="5082.458984"/>
     <use xlink:href="#DejaVuSans-35" x="5146.082031"/>
     <use xlink:href="#DejaVuSans-2d" x="5209.705078"/>
     <use xlink:href="#DejaVuSans-32" x="5245.789062"/>
     <use xlink:href="#DejaVuSans-36" x="5309.412109"/>
    </g>
   </g>
  </g>
 </g>
 <defs>
  <clipPath id="pdb8f6dbaae">
   <rect x="144" y="69.12" width="892.8" height="443.52"/>
  </clipPath>
 </defs>
</svg>
