<?xml version="1.0" encoding="utf-8" standalone="no"?>
<!DOCTYPE svg PUBLIC "-//W3C//DTD SVG 1.1//EN"
  "http://www.w3.org/Graphics/SVG/1.1/DTD/svg11.dtd">
<svg xmlns:xlink="http://www.w3.org/1999/xlink" width="1152pt" height="576pt" viewBox="0 0 1152 576" xmlns="http://www.w3.org/2000/svg" version="1.1">
 <metadata>
  <rdf:RDF xmlns:dc="http://purl.org/dc/elements/1.1/" xmlns:cc="http://creativecommons.org/ns#" xmlns:rdf="http://www.w3.org/1999/02/22-rdf-syntax-ns#">
   <cc:Work>
    <dc:type rdf:resource="http://purl.org/dc/dcmitype/StillImage"/>
    <dc:date>1980-01-01T00:00:00+00:00</dc:date>
    <dc:format>image/svg+xml</dc:format>
    <dc:creator>
     <cc:Agent>
      <dc:title>Matplotlib v3.9.1, https://matplotlib.org/</dc:title>
     </cc:Agent>
    </dc:creator>
   </cc:Work>
  </rdf:RDF>
 </metadata>
 <defs>
  <style type="text/css">*{stroke-linejoin: round; stroke-linecap: butt}</style>
 </defs>
 <g id="figure_1">
  <g id="patch_1">
   <path d="M 0 576 
L 1152 576 
L 1152 0 
L 0 0 
z
" style="fill: #ffffff"/>
  </g>
  <g id="axes_1">
   <g id="patch_2">
    <path d="M 144 512.64 
L 1036.8 512.64 
L 1036.8 69.12 
L 144 69.12 
z
" style="fill: #ffffff"/>
   </g>
   <g id="matplotlib.axis_1">
    <g id="xtick_1">
     <g id="line2d_1">
      <defs>
       <path id="m9357d83e0e" d="M 0 0 
L 0 3.5 
" style="stroke: #000000; stroke-width: 0.8"/>
      </defs>
      <g>
       <use xlink:href="#m9357d83e0e" x="176.870309" y="512.64" style="stroke: #000000; stroke-width: 0.8"/>
      </g>
     </g>
     <g id="text_1">
      <!-- 2014 -->
      <g transform="translate(164.145309 527.238438) scale(0.1 -0.1)">
       <defs>
        <path id="DejaVuSans-32" d="M 1228 531 
L 3431 531 
L 3431 0 
L 469 0 
L 469 531 
Q 828 903 1448 1529 
Q 2069 2156 2228 2338 
Q 2531 2678 2651 2914 
Q 2772 3150 2772 3378 
Q 2772 3750 2511 3984 
Q 2250 4219 1831 4219 
Q 1534 4219 1204 4116 
Q 875 4013 500 3803 
L 500 4441 
Q 881 4594 1212 4672 
Q 1544 4750 1819 4750 
Q 2544 4750 2975 4387 
Q 3406 4025 3406 3419 
Q 3406 3131 3298 2873 
Q 3191 2616 2906 2266 
Q 2828 2175 2409 1742 
Q 1991 1309 1228 531 
z
" transform="scale(0.015625)"/>
        <path id="DejaVuSans-30" d="M 2034 4250 
Q 1547 4250 1301 3770 
Q 1056 3291 1056 2328 
Q 1056 1369 1301 889 
Q 1547 409 2034 409 
Q 2525 409 2770 889 
Q 3016 1369 3016 2328 
Q 3016 3291 2770 3770 
Q 2525 4250 2034 4250 
z
M 2034 4750 
Q 2819 4750 3233 4129 
Q 3647 3509 3647 2328 
Q 3647 1150 3233 529 
Q 2819 -91 2034 -91 
Q 1250 -91 836 529 
Q 422 1150 422 2328 
Q 422 3509 836 4129 
Q 1250 4750 2034 4750 
z
" transform="scale(0.015625)"/>
        <path id="DejaVuSans-31" d="M 794 531 
L 1825 531 
L 1825 4091 
L 703 3866 
L 703 4441 
L 1819 4666 
L 2450 4666 
L 2450 531 
L 3481 531 
L 3481 0 
L 794 0 
L 794 531 
z
" transform="scale(0.015625)"/>
        <path id="DejaVuSans-34" d="M 2419 4116 
L 825 1625 
L 2419 1625 
L 2419 4116 
z
M 2253 4666 
L 3047 4666 
L 3047 1625 
L 3713 1625 
L 3713 1100 
L 3047 1100 
L 3047 0 
L 2419 0 
L 2419 1100 
L 313 1100 
L 313 1709 
L 2253 4666 
z
" transform="scale(0.015625)"/>
       </defs>
       <use xlink:href="#DejaVuSans-32"/>
       <use xlink:href="#DejaVuSans-30" x="63.623047"/>
       <use xlink:href="#DejaVuSans-31" x="127.246094"/>
       <use xlink:href="#DejaVuSans-34" x="190.869141"/>
      </g>
     </g>
    </g>
    <g id="xtick_2">
     <g id="line2d_2">
      <g>
       <use xlink:href="#m9357d83e0e" x="317.605355" y="512.64" style="stroke: #000000; stroke-width: 0.8"/>
      </g>
     </g>
     <g id="text_2">
      <!-- 2016 -->
      <g transform="translate(304.880355 527.238438) scale(0.1 -0.1)">
       <defs>
        <path id="DejaVuSans-36" d="M 2113 2584 
Q 1688 2584 1439 2293 
Q 1191 2003 1191 1497 
Q 1191 994 1439 701 
Q 1688 409 2113 409 
Q 2538 409 2786 701 
Q 3034 994 3034 1497 
Q 3034 2003 2786 2293 
Q 2538 2584 2113 2584 
z
M 3366 4563 
L 3366 3988 
Q 3128 4100 2886 4159 
Q 2644 4219 2406 4219 
Q 1781 4219 1451 3797 
Q 1122 3375 1075 2522 
Q 1259 2794 1537 2939 
Q 1816 3084 2150 3084 
Q 2853 3084 3261 2657 
Q 3669 2231 3669 1497 
Q 3669 778 3244 343 
Q 2819 -91 2113 -91 
Q 1303 -91 875 529 
Q 447 1150 447 2328 
Q 447 3434 972 4092 
Q 1497 4750 2381 4750 
Q 2619 4750 2861 4703 
Q 3103 4656 3366 4563 
z
" transform="scale(0.015625)"/>
       </defs>
       <use xlink:href="#DejaVuSans-32"/>
       <use xlink:href="#DejaVuSans-30" x="63.623047"/>
       <use xlink:href="#DejaVuSans-31" x="127.246094"/>
       <use xlink:href="#DejaVuSans-36" x="190.869141"/>
      </g>
     </g>
    </g>
    <g id="xtick_3">
     <g id="line2d_3">
      <g>
       <use xlink:href="#m9357d83e0e" x="458.533189" y="512.64" style="stroke: #000000; stroke-width: 0.8"/>
      </g>
     </g>
     <g id="text_3">
      <!-- 2018 -->
      <g transform="translate(445.808189 527.238438) scale(0.1 -0.1)">
       <defs>
        <path id="DejaVuSans-38" d="M 2034 2216 
Q 1584 2216 1326 1975 
Q 1069 1734 1069 1313 
Q 1069 891 1326 650 
Q 1584 409 2034 409 
Q 2484 409 2743 651 
Q 3003 894 3003 1313 
Q 3003 1734 2745 1975 
Q 2488 2216 2034 2216 
z
M 1403 2484 
Q 997 2584 770 2862 
Q 544 3141 544 3541 
Q 544 4100 942 4425 
Q 1341 4750 2034 4750 
Q 2731 4750 3128 4425 
Q 3525 4100 3525 3541 
Q 3525 3141 3298 2862 
Q 3072 2584 2669 2484 
Q 3125 2378 3379 2068 
Q 3634 1759 3634 1313 
Q 3634 634 3220 271 
Q 2806 -91 2034 -91 
Q 1263 -91 848 271 
Q 434 634 434 1313 
Q 434 1759 690 2068 
Q 947 2378 1403 2484 
z
M 1172 3481 
Q 1172 3119 1398 2916 
Q 1625 2713 2034 2713 
Q 2441 2713 2670 2916 
Q 2900 3119 2900 3481 
Q 2900 3844 2670 4047 
Q 2441 4250 2034 4250 
Q 1625 4250 1398 4047 
Q 1172 3844 1172 3481 
z
" transform="scale(0.015625)"/>
       </defs>
       <use xlink:href="#DejaVuSans-32"/>
       <use xlink:href="#DejaVuSans-30" x="63.623047"/>
       <use xlink:href="#DejaVuSans-31" x="127.246094"/>
       <use xlink:href="#DejaVuSans-38" x="190.869141"/>
      </g>
     </g>
    </g>
    <g id="xtick_4">
     <g id="line2d_4">
      <g>
       <use xlink:href="#m9357d83e0e" x="599.268236" y="512.64" style="stroke: #000000; stroke-width: 0.8"/>
      </g>
     </g>
     <g id="text_4">
      <!-- 2020 -->
      <g transform="translate(586.543236 527.238438) scale(0.1 -0.1)">
       <use xlink:href="#DejaVuSans-32"/>
       <use xlink:href="#DejaVuSans-30" x="63.623047"/>
       <use xlink:href="#DejaVuSans-32" x="127.246094"/>
       <use xlink:href="#DejaVuSans-30" x="190.869141"/>
      </g>
     </g>
    </g>
    <g id="xtick_5">
     <g id="line2d_5">
      <g>
       <use xlink:href="#m9357d83e0e" x="740.19607" y="512.64" style="stroke: #000000; stroke-width: 0.8"/>
      </g>
     </g>
     <g id="text_5">
      <!-- 2022 -->
      <g transform="translate(727.47107 527.238438) scale(0.1 -0.1)">
       <use xlink:href="#DejaVuSans-32"/>
       <use xlink:href="#DejaVuSans-30" x="63.623047"/>
       <use xlink:href="#DejaVuSans-32" x="127.246094"/>
       <use xlink:href="#DejaVuSans-32" x="190.869141"/>
      </g>
     </g>
    </g>
    <g id="xtick_6">
     <g id="line2d_6">
      <g>
       <use xlink:href="#m9357d83e0e" x="880.931116" y="512.64" style="stroke: #000000; stroke-width: 0.8"/>
      </g>
     </g>
     <g id="text_6">
      <!-- 2024 -->
      <g transform="translate(868.206116 527.238438) scale(0.1 -0.1)">
       <use xlink:href="#DejaVuSans-32"/>
       <use xlink:href="#DejaVuSans-30" x="63.623047"/>
       <use xlink:href="#DejaVuSans-32" x="127.246094"/>
       <use xlink:href="#DejaVuSans-34" x="190.869141"/>
      </g>
     </g>
    </g>
    <g id="xtick_7">
     <g id="line2d_7">
      <g>
       <use xlink:href="#m9357d83e0e" x="1021.858951" y="512.64" style="stroke: #000000; stroke-width: 0.8"/>
      </g>
     </g>
     <g id="text_7">
      <!-- 2026 -->
      <g transform="translate(1009.133951 527.238438) scale(0.1 -0.1)">
       <use xlink:href="#DejaVuSans-32"/>
       <use xlink:href="#DejaVuSans-30" x="63.623047"/>
       <use xlink:href="#DejaVuSans-32" x="127.246094"/>
       <use xlink:href="#DejaVuSans-36" x="190.869141"/>
      </g>
     </g>
    </g>
   </g>
   <g id="matplotlib.axis_2">
    <g id="ytick_1">
     <g id="line2d_8">
      <defs>
       <path id="m2be745e50f" d="M 0 0 
L -3.5 0 
" style="stroke: #000000; stroke-width: 0.8"/>
      </defs>
      <g>
       <use xlink:href="#m2be745e50f" x="144" y="492.514344" style="stroke: #000000; stroke-width: 0.8"/>
      </g>
     </g>
     <g id="text_8">
      <!-- 0 -->
      <g transform="translate(130.6375 496.313563) scale(0.1 -0.1)">
       <use xlink:href="#DejaVuSans-30"/>
      </g>
     </g>
    </g>
    <g id="ytick_2">
     <g id="line2d_9">
      <g>
       <use xlink:href="#m2be745e50f" x="144" y="423.826099" style="stroke: #000000; stroke-width: 0.8"/>
      </g>
     </g>
     <g id="text_9">
      <!-- 2000 -->
      <g transform="translate(111.55 427.625318) scale(0.1 -0.1)">
       <use xlink:href="#DejaVuSans-32"/>
       <use xlink:href="#DejaVuSans-30" x="63.623047"/>
       <use xlink:href="#DejaVuSans-30" x="127.246094"/>
       <use xlink:href="#DejaVuSans-30" x="190.869141"/>
      </g>
     </g>
    </g>
    <g id="ytick_3">
     <g id="line2d_10">
      <g>
       <use xlink:href="#m2be745e50f" x="144" y="355.137853" style="stroke: #000000; stroke-width: 0.8"/>
      </g>
     </g>
     <g id="text_10">
      <!-- 4000 -->
      <g transform="translate(111.55 358.937072) scale(0.1 -0.1)">
       <use xlink:href="#DejaVuSans-34"/>
       <use xlink:href="#DejaVuSans-30" x="63.623047"/>
       <use xlink:href="#DejaVuSans-30" x="127.246094"/>
       <use xlink:href="#DejaVuSans-30" x="190.869141"/>
      </g>
     </g>
    </g>
    <g id="ytick_4">
     <g id="line2d_11">
      <g>
       <use xlink:href="#m2be745e50f" x="144" y="286.449608" style="stroke: #000000; stroke-width: 0.8"/>
      </g>
     </g>
     <g id="text_11">
      <!-- 6000 -->
      <g transform="translate(111.55 290.248827) scale(0.1 -0.1)">
       <use xlink:href="#DejaVuSans-36"/>
       <use xlink:href="#DejaVuSans-30" x="63.623047"/>
       <use xlink:href="#DejaVuSans-30" x="127.246094"/>
       <use xlink:href="#DejaVuSans-30" x="190.869141"/>
      </g>
     </g>
    </g>
    <g id="ytick_5">
     <g id="line2d_12">
      <g>
       <use xlink:href="#m2be745e50f" x="144" y="217.761363" style="stroke: #000000; stroke-width: 0.8"/>
      </g>
     </g>
     <g id="text_12">
      <!-- 8000 -->
      <g transform="translate(111.55 221.560582) scale(0.1 -0.1)">
       <use xlink:href="#DejaVuSans-38"/>
       <use xlink:href="#DejaVuSans-30" x="63.623047"/>
       <use xlink:href="#DejaVuSans-30" x="127.246094"/>
       <use xlink:href="#DejaVuSans-30" x="190.869141"/>
      </g>
     </g>
    </g>
    <g id="ytick_6">
     <g id="line2d_13">
      <g>
       <use xlink:href="#m2be745e50f" x="144" y="149.073118" style="stroke: #000000; stroke-width: 0.8"/>
      </g>
     </g>
     <g id="text_13">
      <!-- 10000 -->
      <g transform="translate(105.1875 152.872336) scale(0.1 -0.1)">
       <use xlink:href="#DejaVuSans-31"/>
       <use xlink:href="#DejaVuSans-30" x="63.623047"/>
       <use xlink:href="#DejaVuSans-30" x="127.246094"/>
       <use xlink:href="#DejaVuSans-30" x="190.869141"/>
       <use xlink:href="#DejaVuSans-30" x="254.492188"/>
      </g>
     </g>
    </g>
    <g id="ytick_7">
     <g id="line2d_14">
      <g>
       <use xlink:href="#m2be745e50f" x="144" y="80.384872" style="stroke: #000000; stroke-width: 0.8"/>
      </g>
     </g>
     <g id="text_14">
      <!-- 12000 -->
      <g transform="translate(105.1875 84.184091) scale(0.1 -0.1)">
       <use xlink:href="#DejaVuSans-31"/>
       <use xlink:href="#DejaVuSans-32" x="63.623047"/>
       <use xlink:href="#DejaVuSans-30" x="127.246094"/>
       <use xlink:href="#DejaVuSans-30" x="190.869141"/>
       <use xlink:href="#DejaVuSans-30" x="254.492188"/>
      </g>
     </g>
    </g>
   </g>
   <g id="line2d_15">
    <path d="M 184.581818 492.48 
L 186.316908 492.411312 
L 306.809242 492.205247 
L 447.929864 492.033526 
L 500.368128 491.827462 
L 514.056057 491.724429 
L 546.829972 491.552709 
L 548.372274 491.48402 
L 557.24051 491.380988 
L 599.461024 491.174923 
L 605.630231 491.106235 
L 606.015807 490.831482 
L 610.064349 490.659761 
L 643.99499 490.522385 
L 647.850745 490.419353 
L 663.659339 490.247632 
L 682.938113 490.075911 
L 691.999136 489.801158 
L 699.710646 489.629438 
L 702.602462 489.423373 
L 703.951976 489.251652 
L 711.470697 489.045588 
L 715.51924 488.908211 
L 721.881235 488.461738 
L 731.906197 488.221329 
L 737.882617 486.538467 
L 738.46098 486.504123 
L 739.232131 485.954617 
L 739.424919 485.096014 
L 739.810494 484.889949 
L 740.003282 484.855605 
L 740.19607 483.687905 
L 741.352796 483.207087 
L 741.738372 482.623237 
L 742.123947 482.382828 
L 742.316735 481.867666 
L 742.509523 480.871687 
L 742.702311 480.528245 
L 743.087886 478.708007 
L 743.280674 476.716048 
L 743.666249 475.307939 
L 743.859037 475.033186 
L 744.051825 470.431073 
L 744.244612 468.576491 
L 744.4374 467.889608 
L 744.630188 464.592572 
L 745.208551 460.746031 
L 745.401339 460.642998 
L 745.786914 458.685383 
L 745.979702 458.032845 
L 746.17249 453.052947 
L 746.365277 452.606474 
L 746.750853 450.957956 
L 746.943641 450.854923 
L 747.136428 449.99632 
L 747.329216 446.458876 
L 747.522004 445.565928 
L 747.714792 445.49724 
L 747.907579 442.921431 
L 748.100367 442.406269 
L 748.485943 442.234549 
L 749.257094 439.624395 
L 749.642669 438.937513 
L 750.028244 436.91121 
L 750.221032 436.121295 
L 750.606608 430.694923 
L 751.184971 428.016082 
L 751.956122 427.603952 
L 752.727273 426.195843 
L 753.112848 426.058467 
L 753.498424 423.104872 
L 753.691211 423.070528 
L 754.076787 422.555366 
L 754.269575 421.078569 
L 754.462362 420.66644 
L 754.65515 420.529063 
L 754.847938 420.219966 
L 755.040726 419.636116 
L 755.619089 419.395707 
L 755.811876 419.155298 
L 756.39024 416.991618 
L 756.583027 416.854242 
L 756.968603 416.304736 
L 757.739754 415.926951 
L 757.932542 414.518842 
L 758.125329 414.415809 
L 758.318117 414.1754 
L 758.510905 411.462215 
L 758.89648 411.359182 
L 759.282056 410.637956 
L 759.474843 409.951073 
L 760.053207 409.813697 
L 760.63157 408.749029 
L 760.824358 408.714685 
L 761.209933 408.130835 
L 761.595509 407.993458 
L 761.788296 404.868143 
L 762.945023 404.59339 
L 763.330598 404.318637 
L 764.101749 404.215605 
L 764.294537 404.043884 
L 766.60799 403.357002 
L 767.379141 402.807496 
L 768.343079 402.670119 
L 768.728655 402.395366 
L 769.11423 402.25799 
L 771.042108 401.742828 
L 771.813258 398.823578 
L 772.777197 398.686201 
L 772.969985 398.617513 
L 774.512287 398.445792 
L 775.09065 398.239727 
L 775.283438 397.690221 
L 776.247376 397.621533 
L 776.82574 397.312436 
L 777.789678 396.968995 
L 777.982466 396.934651 
L 778.368041 396.556865 
L 778.753617 396.453833 
L 778.946405 396.213424 
L 779.717556 395.938671 
L 780.681494 395.835639 
L 780.874282 395.59523 
L 781.259857 395.560886 
L 781.452645 395.01138 
L 781.645433 394.942692 
L 781.838221 394.152777 
L 784.151674 393.637615 
L 784.730037 393.500239 
L 784.922824 393.088109 
L 786.272339 392.744668 
L 786.850702 392.538603 
L 787.621853 392.366882 
L 788.393004 392.160818 
L 789.356942 391.954753 
L 789.935306 391.783032 
L 791.28482 390.993118 
L 791.477607 390.306235 
L 792.441546 389.51632 
L 792.634334 389.207223 
L 793.598273 388.382964 
L 793.983848 387.661738 
L 794.176636 387.627394 
L 794.562211 386.734446 
L 795.333362 385.841499 
L 795.911725 385.738467 
L 796.104513 385.42937 
L 796.490089 385.257649 
L 796.682876 384.914208 
L 797.646815 384.673799 
L 797.839603 384.364702 
L 799.189117 384.055605 
L 799.574692 383.883884 
L 799.76748 383.84954 
L 799.960268 383.677819 
L 800.924206 383.540443 
L 802.273721 382.922249 
L 802.852084 382.784872 
L 803.237659 381.994957 
L 803.623235 381.754549 
L 804.587173 380.998978 
L 804.779961 380.209063 
L 805.551112 379.968654 
L 806.707838 379.590869 
L 807.093414 379.007019 
L 808.057353 378.457513 
L 808.25014 378.114072 
L 808.828504 377.908007 
L 809.214079 377.59891 
L 809.792442 377.358501 
L 810.178018 373.511959 
L 810.370805 372.275571 
L 810.563593 370.146235 
L 810.756381 369.871482 
L 811.527532 367.226985 
L 811.913107 366.540102 
L 812.105895 366.43707 
L 812.298683 366.196661 
L 812.491471 365.750187 
L 812.684258 364.204702 
L 812.877046 363.826917 
L 813.262621 363.68954 
L 814.419348 361.35414 
L 814.612136 361.182419 
L 814.804923 360.255128 
L 814.997711 359.911687 
L 815.383287 359.018739 
L 815.768862 358.469233 
L 816.540013 358.02276 
L 816.732801 357.816695 
L 816.925588 356.717683 
L 817.311164 356.545963 
L 817.696739 356.168177 
L 818.275103 355.378262 
L 818.46789 354.657036 
L 818.660678 354.622692 
L 819.239041 353.935809 
L 819.624617 353.901465 
L 819.817404 353.558024 
L 820.20298 353.351959 
L 821.166919 352.287291 
L 821.359706 351.703441 
L 822.902008 350.226644 
L 823.287584 348.887223 
L 824.44431 348.303373 
L 825.022673 347.410426 
L 825.986612 345.86494 
L 826.372187 345.658876 
L 827.143338 345.521499 
L 827.721702 344.422487 
L 828.492853 344.182078 
L 829.264003 343.289131 
L 829.649579 343.220443 
L 830.035154 342.808313 
L 830.613518 342.567905 
L 830.999093 342.53356 
L 831.191881 342.327496 
L 831.384669 341.709302 
L 832.155819 341.468893 
L 832.348607 341.125451 
L 832.541395 341.091107 
L 832.734183 340.472913 
L 833.312546 340.232504 
L 833.890909 340.095128 
L 834.276485 339.751687 
L 835.240423 339.305213 
L 835.625999 338.996116 
L 836.011574 338.755707 
L 836.39715 338.721363 
L 836.589937 337.794072 
L 836.975513 337.484974 
L 837.553876 337.210221 
L 838.132239 336.86678 
L 838.90339 336.729404 
L 839.096178 335.767768 
L 840.445692 335.11523 
L 840.63848 335.080886 
L 840.831268 334.909165 
L 841.216843 334.840477 
L 841.409631 334.53138 
L 842.180782 334.222283 
L 842.373569 333.844497 
L 842.759145 333.810153 
L 843.14472 333.569744 
L 843.723084 333.260647 
L 843.915871 332.77983 
L 844.687022 332.402044 
L 844.87981 332.127291 
L 845.458173 331.818194 
L 846.036536 331.543441 
L 846.229324 331.234344 
L 846.422112 331.165656 
L 846.807687 330.890903 
L 847.193263 330.719182 
L 847.386051 330.513118 
L 848.542777 330.169676 
L 848.735565 329.791891 
L 848.928352 329.688859 
L 849.892291 329.44845 
L 850.277867 329.139353 
L 850.663442 329.001976 
L 851.241805 328.830256 
L 851.434593 328.521158 
L 851.820168 328.45247 
L 852.012956 327.834276 
L 852.205744 327.731244 
L 852.591319 327.28477 
L 852.784107 326.254446 
L 853.169683 326.014037 
L 853.36247 325.876661 
L 853.555258 325.601908 
L 853.940834 325.361499 
L 854.711984 324.674617 
L 855.09756 324.502896 
L 855.290348 324.090767 
L 855.483135 324.022078 
L 855.868711 323.609949 
L 856.254286 323.36954 
L 856.83265 323.197819 
L 857.218225 322.751346 
L 859.33889 320.931107 
L 860.302829 320.690698 
L 861.459555 319.488654 
L 861.845131 319.316934 
L 863.387433 318.698739 
L 864.158583 318.217922 
L 864.929734 317.87448 
L 865.31531 317.668416 
L 865.700885 317.496695 
L 865.893673 317.324974 
L 868.014338 316.500716 
L 868.207126 316.157274 
L 869.55664 315.607768 
L 870.135003 315.229983 
L 870.713366 314.95523 
L 870.906154 314.749165 
L 871.677305 314.543101 
L 871.870093 314.096627 
L 872.062881 312.551141 
L 872.448456 312.139012 
L 872.641244 312.104668 
L 873.79797 310.593526 
L 874.183546 309.563203 
L 874.569121 309.219761 
L 874.954697 308.979353 
L 875.340272 308.87632 
L 875.53306 308.601567 
L 875.918635 308.395503 
L 876.304211 308.052061 
L 876.689786 307.880341 
L 876.882574 307.811652 
L 877.268149 307.399523 
L 877.460937 307.365179 
L 877.653725 306.953049 
L 878.232088 306.746985 
L 878.617664 306.231823 
L 879.196027 305.785349 
L 879.581602 305.407564 
L 880.159965 305.338876 
L 880.352753 305.029779 
L 880.931116 304.858058 
L 881.316692 303.346917 
L 881.702267 303.003475 
L 882.473418 302.728722 
L 882.858994 302.453969 
L 883.051781 301.938807 
L 883.437357 301.801431 
L 883.630145 301.320613 
L 883.822932 301.217581 
L 884.208508 300.805451 
L 884.401296 300.599387 
L 884.979659 300.393322 
L 885.365234 300.084225 
L 885.558022 300.049881 
L 885.75081 299.843816 
L 885.943597 299.809472 
L 886.714748 299.328654 
L 887.100324 298.470051 
L 887.293112 298.367019 
L 887.678687 298.29833 
L 887.871475 297.920545 
L 888.25705 297.748825 
L 888.642626 297.54276 
L 888.835414 296.924566 
L 889.606564 296.478092 
L 889.799352 295.859898 
L 890.570503 295.207359 
L 890.763291 295.173015 
L 891.148866 294.657853 
L 891.534442 294.348756 
L 891.72723 294.280068 
L 891.920017 293.936627 
L 892.305593 293.79925 
L 892.49838 293.146712 
L 892.883956 293.04368 
L 893.076744 292.734583 
L 893.269531 292.665894 
L 893.462319 291.944668 
L 893.847895 291.841635 
L 894.23347 291.601227 
L 894.619046 291.051721 
L 894.811833 290.914344 
L 895.582984 289.780988 
L 895.775772 289.7123 
L 896.161347 289.30017 
L 896.932498 288.750664 
L 897.510862 288.475911 
L 899.245951 286.758705 
L 899.631527 286.621329 
L 900.017102 286.209199 
L 900.402678 286.106167 
L 900.595465 285.316252 
L 901.173829 284.766746 
L 901.366616 284.079864 
L 901.752192 283.702078 
L 901.944979 283.358637 
L 902.137767 283.324293 
L 903.101706 282.431346 
L 903.680069 282.087905 
L 904.065645 281.778807 
L 905.222371 281.229302 
L 905.993522 280.095945 
L 906.379097 279.958569 
L 906.571885 279.649472 
L 906.764673 279.580784 
L 906.957461 279.340375 
L 907.150248 279.306031 
L 907.343036 278.928245 
L 908.114187 278.413083 
L 908.69255 277.96661 
L 909.463701 277.588825 
L 910.042064 277.108007 
L 910.620428 276.833254 
L 910.813215 276.524157 
L 911.198791 276.455468 
L 911.777154 275.905963 
L 911.969942 275.596865 
L 912.548305 275.322112 
L 912.93388 275.013015 
L 913.512244 274.841295 
L 913.897819 274.429165 
L 914.283395 274.291789 
L 914.66897 274.154412 
L 915.054545 273.673595 
L 915.825696 273.330153 
L 916.018484 271.750324 
L 916.982423 271.063441 
L 917.753574 269.689676 
L 917.946361 269.586644 
L 918.139149 269.14017 
L 918.524725 269.002794 
L 919.295876 267.835094 
L 919.681451 266.22092 
L 919.874239 265.705758 
L 920.259814 263.129949 
L 920.452602 262.099625 
L 921.416541 260.863237 
L 922.187692 257.80661 
L 922.380479 257.634889 
L 922.573267 257.154072 
L 922.766055 255.505554 
L 922.958843 254.887359 
L 923.15163 254.818671 
L 923.344418 254.063101 
L 923.922781 253.582283 
L 924.308357 252.277206 
L 925.272295 251.762044 
L 925.657871 251.349915 
L 926.236234 251.040818 
L 926.429022 250.937785 
L 926.814597 250.525656 
L 927.007385 250.147871 
L 927.200173 249.186235 
L 927.39296 248.80845 
L 927.778536 248.671073 
L 928.164111 248.499353 
L 928.549687 248.2246 
L 928.935262 247.984191 
L 929.706413 247.743782 
L 930.091989 247.503373 
L 930.284777 247.365997 
L 930.670352 247.331652 
L 933.176593 245.030596 
L 933.562168 244.927564 
L 933.947743 244.687155 
L 934.140531 244.584123 
L 934.333319 243.759864 
L 934.911682 243.210358 
L 935.297258 243.107325 
L 936.453984 242.180034 
L 936.839559 242.008313 
L 937.032347 241.939625 
L 937.417923 241.527496 
L 937.803498 241.424463 
L 937.996286 240.943646 
L 938.189074 240.771925 
L 938.381861 240.222419 
L 938.767437 239.98201 
L 939.3458 238.711278 
L 939.538588 238.024395 
L 940.116951 237.612266 
L 940.695314 236.856695 
L 941.08089 235.517274 
L 941.273677 235.105145 
L 941.466465 234.383918 
L 941.659253 234.31523 
L 941.852041 233.73138 
L 942.237616 233.490971 
L 943.394342 232.323271 
L 943.58713 231.842453 
L 944.165493 231.5677 
L 944.358281 231.086882 
L 945.515008 230.606065 
L 945.707795 229.884838 
L 946.093371 229.644429 
L 946.286158 229.197956 
L 946.478946 229.060579 
L 946.864522 229.026235 
L 948.021248 228.133288 
L 948.599611 227.686814 
L 948.985187 227.240341 
L 949.370762 226.862555 
L 949.56355 226.519114 
L 949.756338 225.763543 
L 950.913064 225.111005 
L 951.29864 224.286746 
L 951.684215 224.14937 
L 951.877003 223.634208 
L 952.069791 223.56552 
L 952.648154 222.912981 
L 953.033729 222.56954 
L 954.383243 221.504872 
L 954.961607 220.886678 
L 955.53997 220.131107 
L 955.732758 219.65029 
L 955.925545 218.826031 
L 956.311121 218.173492 
L 956.503908 217.761363 
L 957.467847 212.781465 
L 957.660635 212.506712 
L 957.853423 212.025894 
L 958.04621 210.171312 
L 958.238998 206.599523 
L 958.431786 205.191414 
L 958.624574 202.924702 
L 958.817361 202.340852 
L 959.202937 199.765043 
L 959.588512 196.261942 
L 959.974088 191.556797 
L 960.359663 190.835571 
L 960.745239 184.756661 
L 960.938026 183.142487 
L 961.323602 176.204974 
L 961.51639 175.277683 
L 961.709177 174.899898 
L 961.901965 171.396797 
L 962.094753 170.606882 
L 962.480328 166.760341 
L 962.865904 156.319727 
L 963.251479 154.705554 
L 963.444267 151.477206 
L 963.637055 151.168109 
L 964.02263 145.947802 
L 964.215418 145.84477 
L 964.408206 145.501329 
L 964.793781 144.26494 
L 964.986569 144.024532 
L 965.179357 143.440681 
L 965.372144 142.34167 
L 965.75772 142.135605 
L 965.950507 141.586099 
L 966.336083 139.868893 
L 966.721658 136.571857 
L 966.914446 135.884974 
L 967.107234 135.816286 
L 967.300022 135.507189 
L 968.26396 132.587939 
L 968.456748 132.484906 
L 968.649536 131.798024 
L 969.035111 131.454583 
L 969.227899 131.317206 
L 969.420687 130.802044 
L 969.613474 130.630324 
L 970.191838 129.806065 
L 970.770201 128.947462 
L 971.155776 128.810085 
L 972.119715 127.539353 
L 972.50529 127.367632 
L 973.083654 127.298944 
L 973.469229 126.783782 
L 973.854805 126.68075 
L 974.433168 125.993867 
L 975.204319 125.547394 
L 975.97547 124.585758 
L 976.168257 124.070596 
L 976.939408 123.830187 
L 977.324984 123.486746 
L 977.710559 122.834208 
L 978.096135 122.525111 
L 978.288922 122.284702 
L 978.674498 120.876593 
L 978.867286 120.636184 
L 979.445649 120.395775 
L 979.831224 120.086678 
L 980.2168 119.708893 
L 980.602375 119.399796 
L 980.987951 119.056354 
L 981.373526 118.712913 
L 981.566314 117.888654 
L 982.144677 117.476525 
L 982.915828 116.549233 
L 983.494191 116.068416 
L 984.072555 115.553254 
L 984.45813 115.347189 
L 984.843705 115.038092 
L 985.422069 114.832027 
L 985.807644 113.629983 
L 986.000432 113.526951 
L 986.386007 112.943101 
L 987.157158 112.015809 
L 987.349946 111.912777 
L 987.928309 110.882453 
L 988.121097 109.955162 
L 988.313885 109.646065 
L 988.69946 109.508688 
L 988.892248 109.096559 
L 990.627338 107.757138 
L 991.012913 106.967223 
L 991.205701 106.864191 
L 991.398488 102.674208 
L 991.784064 101.987325 
L 992.169639 101.437819 
L 992.362427 100.957002 
L 992.555215 100.922658 
L 992.94079 100.338807 
L 993.133578 99.617581 
L 994.290304 98.003407 
L 994.483092 97.556934 
L 994.868668 95.118501 
L 995.061455 94.397274 
L 995.254243 93.229574 
L 995.447031 92.920477 
L 995.639819 90.85983 
L 996.218182 89.28 
L 996.218182 89.28 
" clip-path="url(#p934fe43374)" style="fill: none; stroke: #1f77b4; stroke-width: 1.5; stroke-linecap: square"/>
   </g>
   <g id="patch_3">
    <path d="M 144 512.64 
L 144 69.12 
" style="fill: none; stroke: #000000; stroke-width: 0.8; stroke-linejoin: miter; stroke-linecap: square"/>
   </g>
   <g id="patch_4">
    <path d="M 1036.8 512.64 
L 1036.8 69.12 
" style="fill: none; stroke: #000000; stroke-width: 0.8; stroke-linejoin: miter; stroke-linecap: square"/>
   </g>
   <g id="patch_5">
    <path d="M 144 512.64 
L 1036.8 512.64 
" style="fill: none; stroke: #000000; stroke-width: 0.8; stroke-linejoin: miter; stroke-linecap: square"/>
   </g>
   <g id="patch_6">
    <path d="M 144 69.12 
L 1036.8 69.12 
" style="fill: none; stroke: #000000; stroke-width: 0.8; stroke-linejoin: miter; stroke-linecap: square"/>
   </g>
   <g id="text_15">
    <!-- Number of AEDs in the OpenStreetMap database in Poland from first edition, day by day. As at: 2025-08-21 -->
    <g transform="translate(144 63.12) scale(0.14 -0.14)">
     <defs>
      <path id="DejaVuSans-4e" d="M 628 4666 
L 1478 4666 
L 3547 763 
L 3547 4666 
L 4159 4666 
L 4159 0 
L 3309 0 
L 1241 3903 
L 1241 0 
L 628 0 
L 628 4666 
z
" transform="scale(0.015625)"/>
      <path id="DejaVuSans-75" d="M 544 1381 
L 544 3500 
L 1119 3500 
L 1119 1403 
Q 1119 906 1312 657 
Q 1506 409 1894 409 
Q 2359 409 2629 706 
Q 2900 1003 2900 1516 
L 2900 3500 
L 3475 3500 
L 3475 0 
L 2900 0 
L 2900 538 
Q 2691 219 2414 64 
Q 2138 -91 1772 -91 
Q 1169 -91 856 284 
Q 544 659 544 1381 
z
M 1991 3584 
L 1991 3584 
z
" transform="scale(0.015625)"/>
      <path id="DejaVuSans-6d" d="M 3328 2828 
Q 3544 3216 3844 3400 
Q 4144 3584 4550 3584 
Q 5097 3584 5394 3201 
Q 5691 2819 5691 2113 
L 5691 0 
L 5113 0 
L 5113 2094 
Q 5113 2597 4934 2840 
Q 4756 3084 4391 3084 
Q 3944 3084 3684 2787 
Q 3425 2491 3425 1978 
L 3425 0 
L 2847 0 
L 2847 2094 
Q 2847 2600 2669 2842 
Q 2491 3084 2119 3084 
Q 1678 3084 1418 2786 
Q 1159 2488 1159 1978 
L 1159 0 
L 581 0 
L 581 3500 
L 1159 3500 
L 1159 2956 
Q 1356 3278 1631 3431 
Q 1906 3584 2284 3584 
Q 2666 3584 2933 3390 
Q 3200 3197 3328 2828 
z
" transform="scale(0.015625)"/>
      <path id="DejaVuSans-62" d="M 3116 1747 
Q 3116 2381 2855 2742 
Q 2594 3103 2138 3103 
Q 1681 3103 1420 2742 
Q 1159 2381 1159 1747 
Q 1159 1113 1420 752 
Q 1681 391 2138 391 
Q 2594 391 2855 752 
Q 3116 1113 3116 1747 
z
M 1159 2969 
Q 1341 3281 1617 3432 
Q 1894 3584 2278 3584 
Q 2916 3584 3314 3078 
Q 3713 2572 3713 1747 
Q 3713 922 3314 415 
Q 2916 -91 2278 -91 
Q 1894 -91 1617 61 
Q 1341 213 1159 525 
L 1159 0 
L 581 0 
L 581 4863 
L 1159 4863 
L 1159 2969 
z
" transform="scale(0.015625)"/>
      <path id="DejaVuSans-65" d="M 3597 1894 
L 3597 1613 
L 953 1613 
Q 991 1019 1311 708 
Q 1631 397 2203 397 
Q 2534 397 2845 478 
Q 3156 559 3463 722 
L 3463 178 
Q 3153 47 2828 -22 
Q 2503 -91 2169 -91 
Q 1331 -91 842 396 
Q 353 884 353 1716 
Q 353 2575 817 3079 
Q 1281 3584 2069 3584 
Q 2775 3584 3186 3129 
Q 3597 2675 3597 1894 
z
M 3022 2063 
Q 3016 2534 2758 2815 
Q 2500 3097 2075 3097 
Q 1594 3097 1305 2825 
Q 1016 2553 972 2059 
L 3022 2063 
z
" transform="scale(0.015625)"/>
      <path id="DejaVuSans-72" d="M 2631 2963 
Q 2534 3019 2420 3045 
Q 2306 3072 2169 3072 
Q 1681 3072 1420 2755 
Q 1159 2438 1159 1844 
L 1159 0 
L 581 0 
L 581 3500 
L 1159 3500 
L 1159 2956 
Q 1341 3275 1631 3429 
Q 1922 3584 2338 3584 
Q 2397 3584 2469 3576 
Q 2541 3569 2628 3553 
L 2631 2963 
z
" transform="scale(0.015625)"/>
      <path id="DejaVuSans-20" transform="scale(0.015625)"/>
      <path id="DejaVuSans-6f" d="M 1959 3097 
Q 1497 3097 1228 2736 
Q 959 2375 959 1747 
Q 959 1119 1226 758 
Q 1494 397 1959 397 
Q 2419 397 2687 759 
Q 2956 1122 2956 1747 
Q 2956 2369 2687 2733 
Q 2419 3097 1959 3097 
z
M 1959 3584 
Q 2709 3584 3137 3096 
Q 3566 2609 3566 1747 
Q 3566 888 3137 398 
Q 2709 -91 1959 -91 
Q 1206 -91 779 398 
Q 353 888 353 1747 
Q 353 2609 779 3096 
Q 1206 3584 1959 3584 
z
" transform="scale(0.015625)"/>
      <path id="DejaVuSans-66" d="M 2375 4863 
L 2375 4384 
L 1825 4384 
Q 1516 4384 1395 4259 
Q 1275 4134 1275 3809 
L 1275 3500 
L 2222 3500 
L 2222 3053 
L 1275 3053 
L 1275 0 
L 697 0 
L 697 3053 
L 147 3053 
L 147 3500 
L 697 3500 
L 697 3744 
Q 697 4328 969 4595 
Q 1241 4863 1831 4863 
L 2375 4863 
z
" transform="scale(0.015625)"/>
      <path id="DejaVuSans-41" d="M 2188 4044 
L 1331 1722 
L 3047 1722 
L 2188 4044 
z
M 1831 4666 
L 2547 4666 
L 4325 0 
L 3669 0 
L 3244 1197 
L 1141 1197 
L 716 0 
L 50 0 
L 1831 4666 
z
" transform="scale(0.015625)"/>
      <path id="DejaVuSans-45" d="M 628 4666 
L 3578 4666 
L 3578 4134 
L 1259 4134 
L 1259 2753 
L 3481 2753 
L 3481 2222 
L 1259 2222 
L 1259 531 
L 3634 531 
L 3634 0 
L 628 0 
L 628 4666 
z
" transform="scale(0.015625)"/>
      <path id="DejaVuSans-44" d="M 1259 4147 
L 1259 519 
L 2022 519 
Q 2988 519 3436 956 
Q 3884 1394 3884 2338 
Q 3884 3275 3436 3711 
Q 2988 4147 2022 4147 
L 1259 4147 
z
M 628 4666 
L 1925 4666 
Q 3281 4666 3915 4102 
Q 4550 3538 4550 2338 
Q 4550 1131 3912 565 
Q 3275 0 1925 0 
L 628 0 
L 628 4666 
z
" transform="scale(0.015625)"/>
      <path id="DejaVuSans-73" d="M 2834 3397 
L 2834 2853 
Q 2591 2978 2328 3040 
Q 2066 3103 1784 3103 
Q 1356 3103 1142 2972 
Q 928 2841 928 2578 
Q 928 2378 1081 2264 
Q 1234 2150 1697 2047 
L 1894 2003 
Q 2506 1872 2764 1633 
Q 3022 1394 3022 966 
Q 3022 478 2636 193 
Q 2250 -91 1575 -91 
Q 1294 -91 989 -36 
Q 684 19 347 128 
L 347 722 
Q 666 556 975 473 
Q 1284 391 1588 391 
Q 1994 391 2212 530 
Q 2431 669 2431 922 
Q 2431 1156 2273 1281 
Q 2116 1406 1581 1522 
L 1381 1569 
Q 847 1681 609 1914 
Q 372 2147 372 2553 
Q 372 3047 722 3315 
Q 1072 3584 1716 3584 
Q 2034 3584 2315 3537 
Q 2597 3491 2834 3397 
z
" transform="scale(0.015625)"/>
      <path id="DejaVuSans-69" d="M 603 3500 
L 1178 3500 
L 1178 0 
L 603 0 
L 603 3500 
z
M 603 4863 
L 1178 4863 
L 1178 4134 
L 603 4134 
L 603 4863 
z
" transform="scale(0.015625)"/>
      <path id="DejaVuSans-6e" d="M 3513 2113 
L 3513 0 
L 2938 0 
L 2938 2094 
Q 2938 2591 2744 2837 
Q 2550 3084 2163 3084 
Q 1697 3084 1428 2787 
Q 1159 2491 1159 1978 
L 1159 0 
L 581 0 
L 581 3500 
L 1159 3500 
L 1159 2956 
Q 1366 3272 1645 3428 
Q 1925 3584 2291 3584 
Q 2894 3584 3203 3211 
Q 3513 2838 3513 2113 
z
" transform="scale(0.015625)"/>
      <path id="DejaVuSans-74" d="M 1172 4494 
L 1172 3500 
L 2356 3500 
L 2356 3053 
L 1172 3053 
L 1172 1153 
Q 1172 725 1289 603 
Q 1406 481 1766 481 
L 2356 481 
L 2356 0 
L 1766 0 
Q 1100 0 847 248 
Q 594 497 594 1153 
L 594 3053 
L 172 3053 
L 172 3500 
L 594 3500 
L 594 4494 
L 1172 4494 
z
" transform="scale(0.015625)"/>
      <path id="DejaVuSans-68" d="M 3513 2113 
L 3513 0 
L 2938 0 
L 2938 2094 
Q 2938 2591 2744 2837 
Q 2550 3084 2163 3084 
Q 1697 3084 1428 2787 
Q 1159 2491 1159 1978 
L 1159 0 
L 581 0 
L 581 4863 
L 1159 4863 
L 1159 2956 
Q 1366 3272 1645 3428 
Q 1925 3584 2291 3584 
Q 2894 3584 3203 3211 
Q 3513 2838 3513 2113 
z
" transform="scale(0.015625)"/>
      <path id="DejaVuSans-4f" d="M 2522 4238 
Q 1834 4238 1429 3725 
Q 1025 3213 1025 2328 
Q 1025 1447 1429 934 
Q 1834 422 2522 422 
Q 3209 422 3611 934 
Q 4013 1447 4013 2328 
Q 4013 3213 3611 3725 
Q 3209 4238 2522 4238 
z
M 2522 4750 
Q 3503 4750 4090 4092 
Q 4678 3434 4678 2328 
Q 4678 1225 4090 567 
Q 3503 -91 2522 -91 
Q 1538 -91 948 565 
Q 359 1222 359 2328 
Q 359 3434 948 4092 
Q 1538 4750 2522 4750 
z
" transform="scale(0.015625)"/>
      <path id="DejaVuSans-70" d="M 1159 525 
L 1159 -1331 
L 581 -1331 
L 581 3500 
L 1159 3500 
L 1159 2969 
Q 1341 3281 1617 3432 
Q 1894 3584 2278 3584 
Q 2916 3584 3314 3078 
Q 3713 2572 3713 1747 
Q 3713 922 3314 415 
Q 2916 -91 2278 -91 
Q 1894 -91 1617 61 
Q 1341 213 1159 525 
z
M 3116 1747 
Q 3116 2381 2855 2742 
Q 2594 3103 2138 3103 
Q 1681 3103 1420 2742 
Q 1159 2381 1159 1747 
Q 1159 1113 1420 752 
Q 1681 391 2138 391 
Q 2594 391 2855 752 
Q 3116 1113 3116 1747 
z
" transform="scale(0.015625)"/>
      <path id="DejaVuSans-53" d="M 3425 4513 
L 3425 3897 
Q 3066 4069 2747 4153 
Q 2428 4238 2131 4238 
Q 1616 4238 1336 4038 
Q 1056 3838 1056 3469 
Q 1056 3159 1242 3001 
Q 1428 2844 1947 2747 
L 2328 2669 
Q 3034 2534 3370 2195 
Q 3706 1856 3706 1288 
Q 3706 609 3251 259 
Q 2797 -91 1919 -91 
Q 1588 -91 1214 -16 
Q 841 59 441 206 
L 441 856 
Q 825 641 1194 531 
Q 1563 422 1919 422 
Q 2459 422 2753 634 
Q 3047 847 3047 1241 
Q 3047 1584 2836 1778 
Q 2625 1972 2144 2069 
L 1759 2144 
Q 1053 2284 737 2584 
Q 422 2884 422 3419 
Q 422 4038 858 4394 
Q 1294 4750 2059 4750 
Q 2388 4750 2728 4690 
Q 3069 4631 3425 4513 
z
" transform="scale(0.015625)"/>
      <path id="DejaVuSans-4d" d="M 628 4666 
L 1569 4666 
L 2759 1491 
L 3956 4666 
L 4897 4666 
L 4897 0 
L 4281 0 
L 4281 4097 
L 3078 897 
L 2444 897 
L 1241 4097 
L 1241 0 
L 628 0 
L 628 4666 
z
" transform="scale(0.015625)"/>
      <path id="DejaVuSans-61" d="M 2194 1759 
Q 1497 1759 1228 1600 
Q 959 1441 959 1056 
Q 959 750 1161 570 
Q 1363 391 1709 391 
Q 2188 391 2477 730 
Q 2766 1069 2766 1631 
L 2766 1759 
L 2194 1759 
z
M 3341 1997 
L 3341 0 
L 2766 0 
L 2766 531 
Q 2569 213 2275 61 
Q 1981 -91 1556 -91 
Q 1019 -91 701 211 
Q 384 513 384 1019 
Q 384 1609 779 1909 
Q 1175 2209 1959 2209 
L 2766 2209 
L 2766 2266 
Q 2766 2663 2505 2880 
Q 2244 3097 1772 3097 
Q 1472 3097 1187 3025 
Q 903 2953 641 2809 
L 641 3341 
Q 956 3463 1253 3523 
Q 1550 3584 1831 3584 
Q 2591 3584 2966 3190 
Q 3341 2797 3341 1997 
z
" transform="scale(0.015625)"/>
      <path id="DejaVuSans-64" d="M 2906 2969 
L 2906 4863 
L 3481 4863 
L 3481 0 
L 2906 0 
L 2906 525 
Q 2725 213 2448 61 
Q 2172 -91 1784 -91 
Q 1150 -91 751 415 
Q 353 922 353 1747 
Q 353 2572 751 3078 
Q 1150 3584 1784 3584 
Q 2172 3584 2448 3432 
Q 2725 3281 2906 2969 
z
M 947 1747 
Q 947 1113 1208 752 
Q 1469 391 1925 391 
Q 2381 391 2643 752 
Q 2906 1113 2906 1747 
Q 2906 2381 2643 2742 
Q 2381 3103 1925 3103 
Q 1469 3103 1208 2742 
Q 947 2381 947 1747 
z
" transform="scale(0.015625)"/>
      <path id="DejaVuSans-50" d="M 1259 4147 
L 1259 2394 
L 2053 2394 
Q 2494 2394 2734 2622 
Q 2975 2850 2975 3272 
Q 2975 3691 2734 3919 
Q 2494 4147 2053 4147 
L 1259 4147 
z
M 628 4666 
L 2053 4666 
Q 2838 4666 3239 4311 
Q 3641 3956 3641 3272 
Q 3641 2581 3239 2228 
Q 2838 1875 2053 1875 
L 1259 1875 
L 1259 0 
L 628 0 
L 628 4666 
z
" transform="scale(0.015625)"/>
      <path id="DejaVuSans-6c" d="M 603 4863 
L 1178 4863 
L 1178 0 
L 603 0 
L 603 4863 
z
" transform="scale(0.015625)"/>
      <path id="DejaVuSans-2c" d="M 750 794 
L 1409 794 
L 1409 256 
L 897 -744 
L 494 -744 
L 750 256 
L 750 794 
z
" transform="scale(0.015625)"/>
      <path id="DejaVuSans-79" d="M 2059 -325 
Q 1816 -950 1584 -1140 
Q 1353 -1331 966 -1331 
L 506 -1331 
L 506 -850 
L 844 -850 
Q 1081 -850 1212 -737 
Q 1344 -625 1503 -206 
L 1606 56 
L 191 3500 
L 800 3500 
L 1894 763 
L 2988 3500 
L 3597 3500 
L 2059 -325 
z
" transform="scale(0.015625)"/>
      <path id="DejaVuSans-2e" d="M 684 794 
L 1344 794 
L 1344 0 
L 684 0 
L 684 794 
z
" transform="scale(0.015625)"/>
      <path id="DejaVuSans-3a" d="M 750 794 
L 1409 794 
L 1409 0 
L 750 0 
L 750 794 
z
M 750 3309 
L 1409 3309 
L 1409 2516 
L 750 2516 
L 750 3309 
z
" transform="scale(0.015625)"/>
      <path id="DejaVuSans-35" d="M 691 4666 
L 3169 4666 
L 3169 4134 
L 1269 4134 
L 1269 2991 
Q 1406 3038 1543 3061 
Q 1681 3084 1819 3084 
Q 2600 3084 3056 2656 
Q 3513 2228 3513 1497 
Q 3513 744 3044 326 
Q 2575 -91 1722 -91 
Q 1428 -91 1123 -41 
Q 819 9 494 109 
L 494 744 
Q 775 591 1075 516 
Q 1375 441 1709 441 
Q 2250 441 2565 725 
Q 2881 1009 2881 1497 
Q 2881 1984 2565 2268 
Q 2250 2553 1709 2553 
Q 1456 2553 1204 2497 
Q 953 2441 691 2322 
L 691 4666 
z
" transform="scale(0.015625)"/>
      <path id="DejaVuSans-2d" d="M 313 2009 
L 1997 2009 
L 1997 1497 
L 313 1497 
L 313 2009 
z
" transform="scale(0.015625)"/>
     </defs>
     <use xlink:href="#DejaVuSans-4e"/>
     <use xlink:href="#DejaVuSans-75" x="74.804688"/>
     <use xlink:href="#DejaVuSans-6d" x="138.183594"/>
     <use xlink:href="#DejaVuSans-62" x="235.595703"/>
     <use xlink:href="#DejaVuSans-65" x="299.072266"/>
     <use xlink:href="#DejaVuSans-72" x="360.595703"/>
     <use xlink:href="#DejaVuSans-20" x="401.708984"/>
     <use xlink:href="#DejaVuSans-6f" x="433.496094"/>
     <use xlink:href="#DejaVuSans-66" x="494.677734"/>
     <use xlink:href="#DejaVuSans-20" x="529.882812"/>
     <use xlink:href="#DejaVuSans-41" x="561.669922"/>
     <use xlink:href="#DejaVuSans-45" x="630.078125"/>
     <use xlink:href="#DejaVuSans-44" x="693.261719"/>
     <use xlink:href="#DejaVuSans-73" x="770.263672"/>
     <use xlink:href="#DejaVuSans-20" x="822.363281"/>
     <use xlink:href="#DejaVuSans-69" x="854.150391"/>
     <use xlink:href="#DejaVuSans-6e" x="881.933594"/>
     <use xlink:href="#DejaVuSans-20" x="945.3125"/>
     <use xlink:href="#DejaVuSans-74" x="977.099609"/>
     <use xlink:href="#DejaVuSans-68" x="1016.308594"/>
     <use xlink:href="#DejaVuSans-65" x="1079.6875"/>
     <use xlink:href="#DejaVuSans-20" x="1141.210938"/>
     <use xlink:href="#DejaVuSans-4f" x="1172.998047"/>
     <use xlink:href="#DejaVuSans-70" x="1251.708984"/>
     <use xlink:href="#DejaVuSans-65" x="1315.185547"/>
     <use xlink:href="#DejaVuSans-6e" x="1376.708984"/>
     <use xlink:href="#DejaVuSans-53" x="1440.087891"/>
     <use xlink:href="#DejaVuSans-74" x="1503.564453"/>
     <use xlink:href="#DejaVuSans-72" x="1542.773438"/>
     <use xlink:href="#DejaVuSans-65" x="1581.636719"/>
     <use xlink:href="#DejaVuSans-65" x="1643.160156"/>
     <use xlink:href="#DejaVuSans-74" x="1704.683594"/>
     <use xlink:href="#DejaVuSans-4d" x="1743.892578"/>
     <use xlink:href="#DejaVuSans-61" x="1830.171875"/>
     <use xlink:href="#DejaVuSans-70" x="1891.451172"/>
     <use xlink:href="#DejaVuSans-20" x="1954.927734"/>
     <use xlink:href="#DejaVuSans-64" x="1986.714844"/>
     <use xlink:href="#DejaVuSans-61" x="2050.191406"/>
     <use xlink:href="#DejaVuSans-74" x="2111.470703"/>
     <use xlink:href="#DejaVuSans-61" x="2150.679688"/>
     <use xlink:href="#DejaVuSans-62" x="2211.958984"/>
     <use xlink:href="#DejaVuSans-61" x="2275.435547"/>
     <use xlink:href="#DejaVuSans-73" x="2336.714844"/>
     <use xlink:href="#DejaVuSans-65" x="2388.814453"/>
     <use xlink:href="#DejaVuSans-20" x="2450.337891"/>
     <use xlink:href="#DejaVuSans-69" x="2482.125"/>
     <use xlink:href="#DejaVuSans-6e" x="2509.908203"/>
     <use xlink:href="#DejaVuSans-20" x="2573.287109"/>
     <use xlink:href="#DejaVuSans-50" x="2605.074219"/>
     <use xlink:href="#DejaVuSans-6f" x="2661.751953"/>
     <use xlink:href="#DejaVuSans-6c" x="2722.933594"/>
     <use xlink:href="#DejaVuSans-61" x="2750.716797"/>
     <use xlink:href="#DejaVuSans-6e" x="2811.996094"/>
     <use xlink:href="#DejaVuSans-64" x="2875.375"/>
     <use xlink:href="#DejaVuSans-20" x="2938.851562"/>
     <use xlink:href="#DejaVuSans-66" x="2970.638672"/>
     <use xlink:href="#DejaVuSans-72" x="3005.84375"/>
     <use xlink:href="#DejaVuSans-6f" x="3044.707031"/>
     <use xlink:href="#DejaVuSans-6d" x="3105.888672"/>
     <use xlink:href="#DejaVuSans-20" x="3203.300781"/>
     <use xlink:href="#DejaVuSans-66" x="3235.087891"/>
     <use xlink:href="#DejaVuSans-69" x="3270.292969"/>
     <use xlink:href="#DejaVuSans-72" x="3298.076172"/>
     <use xlink:href="#DejaVuSans-73" x="3339.189453"/>
     <use xlink:href="#DejaVuSans-74" x="3391.289062"/>
     <use xlink:href="#DejaVuSans-20" x="3430.498047"/>
     <use xlink:href="#DejaVuSans-65" x="3462.285156"/>
     <use xlink:href="#DejaVuSans-64" x="3523.808594"/>
     <use xlink:href="#DejaVuSans-69" x="3587.285156"/>
     <use xlink:href="#DejaVuSans-74" x="3615.068359"/>
     <use xlink:href="#DejaVuSans-69" x="3654.277344"/>
     <use xlink:href="#DejaVuSans-6f" x="3682.060547"/>
     <use xlink:href="#DejaVuSans-6e" x="3743.242188"/>
     <use xlink:href="#DejaVuSans-2c" x="3806.621094"/>
     <use xlink:href="#DejaVuSans-20" x="3838.408203"/>
     <use xlink:href="#DejaVuSans-64" x="3870.195312"/>
     <use xlink:href="#DejaVuSans-61" x="3933.671875"/>
     <use xlink:href="#DejaVuSans-79" x="3994.951172"/>
     <use xlink:href="#DejaVuSans-20" x="4054.130859"/>
     <use xlink:href="#DejaVuSans-62" x="4085.917969"/>
     <use xlink:href="#DejaVuSans-79" x="4149.394531"/>
     <use xlink:href="#DejaVuSans-20" x="4208.574219"/>
     <use xlink:href="#DejaVuSans-64" x="4240.361328"/>
     <use xlink:href="#DejaVuSans-61" x="4303.837891"/>
     <use xlink:href="#DejaVuSans-79" x="4365.117188"/>
     <use xlink:href="#DejaVuSans-2e" x="4410.046875"/>
     <use xlink:href="#DejaVuSans-20" x="4441.833984"/>
     <use xlink:href="#DejaVuSans-41" x="4473.621094"/>
     <use xlink:href="#DejaVuSans-73" x="4542.029297"/>
     <use xlink:href="#DejaVuSans-20" x="4594.128906"/>
     <use xlink:href="#DejaVuSans-61" x="4625.916016"/>
     <use xlink:href="#DejaVuSans-74" x="4687.195312"/>
     <use xlink:href="#DejaVuSans-3a" x="4726.404297"/>
     <use xlink:href="#DejaVuSans-20" x="4760.095703"/>
     <use xlink:href="#DejaVuSans-32" x="4791.882812"/>
     <use xlink:href="#DejaVuSans-30" x="4855.505859"/>
     <use xlink:href="#DejaVuSans-32" x="4919.128906"/>
     <use xlink:href="#DejaVuSans-35" x="4982.751953"/>
     <use xlink:href="#DejaVuSans-2d" x="5046.375"/>
     <use xlink:href="#DejaVuSans-30" x="5082.458984"/>
     <use xlink:href="#DejaVuSans-38" x="5146.082031"/>
     <use xlink:href="#DejaVuSans-2d" x="5209.705078"/>
     <use xlink:href="#DejaVuSans-32" x="5245.789062"/>
     <use xlink:href="#DejaVuSans-31" x="5309.412109"/>
    </g>
   </g>
  </g>
 </g>
 <defs>
  <clipPath id="p934fe43374">
   <rect x="144" y="69.12" width="892.8" height="443.52"/>
  </clipPath>
 </defs>
</svg>
