<?xml version="1.0" encoding="utf-8" standalone="no"?>
<!DOCTYPE svg PUBLIC "-//W3C//DTD SVG 1.1//EN"
  "http://www.w3.org/Graphics/SVG/1.1/DTD/svg11.dtd">
<svg xmlns:xlink="http://www.w3.org/1999/xlink" width="1152pt" height="576pt" viewBox="0 0 1152 576" xmlns="http://www.w3.org/2000/svg" version="1.1">
 <metadata>
  <rdf:RDF xmlns:dc="http://purl.org/dc/elements/1.1/" xmlns:cc="http://creativecommons.org/ns#" xmlns:rdf="http://www.w3.org/1999/02/22-rdf-syntax-ns#">
   <cc:Work>
    <dc:type rdf:resource="http://purl.org/dc/dcmitype/StillImage"/>
    <dc:date>1980-01-01T00:00:00+00:00</dc:date>
    <dc:format>image/svg+xml</dc:format>
    <dc:creator>
     <cc:Agent>
      <dc:title>Matplotlib v3.9.1, https://matplotlib.org/</dc:title>
     </cc:Agent>
    </dc:creator>
   </cc:Work>
  </rdf:RDF>
 </metadata>
 <defs>
  <style type="text/css">*{stroke-linejoin: round; stroke-linecap: butt}</style>
 </defs>
 <g id="figure_1">
  <g id="patch_1">
   <path d="M 0 576 
L 1152 576 
L 1152 0 
L 0 0 
z
" style="fill: #ffffff"/>
  </g>
  <g id="axes_1">
   <g id="patch_2">
    <path d="M 144 512.64 
L 1036.8 512.64 
L 1036.8 69.12 
L 144 69.12 
z
" style="fill: #ffffff"/>
   </g>
   <g id="matplotlib.axis_1">
    <g id="xtick_1">
     <g id="line2d_1">
      <defs>
       <path id="m3c66875f0f" d="M 0 0 
L 0 3.5 
" style="stroke: #000000; stroke-width: 0.8"/>
      </defs>
      <g>
       <use xlink:href="#m3c66875f0f" x="176.755045" y="512.64" style="stroke: #000000; stroke-width: 0.8"/>
      </g>
     </g>
     <g id="text_1">
      <!-- 2014 -->
      <g transform="translate(164.030045 527.238438) scale(0.1 -0.1)">
       <defs>
        <path id="DejaVuSans-32" d="M 1228 531 
L 3431 531 
L 3431 0 
L 469 0 
L 469 531 
Q 828 903 1448 1529 
Q 2069 2156 2228 2338 
Q 2531 2678 2651 2914 
Q 2772 3150 2772 3378 
Q 2772 3750 2511 3984 
Q 2250 4219 1831 4219 
Q 1534 4219 1204 4116 
Q 875 4013 500 3803 
L 500 4441 
Q 881 4594 1212 4672 
Q 1544 4750 1819 4750 
Q 2544 4750 2975 4387 
Q 3406 4025 3406 3419 
Q 3406 3131 3298 2873 
Q 3191 2616 2906 2266 
Q 2828 2175 2409 1742 
Q 1991 1309 1228 531 
z
" transform="scale(0.015625)"/>
        <path id="DejaVuSans-30" d="M 2034 4250 
Q 1547 4250 1301 3770 
Q 1056 3291 1056 2328 
Q 1056 1369 1301 889 
Q 1547 409 2034 409 
Q 2525 409 2770 889 
Q 3016 1369 3016 2328 
Q 3016 3291 2770 3770 
Q 2525 4250 2034 4250 
z
M 2034 4750 
Q 2819 4750 3233 4129 
Q 3647 3509 3647 2328 
Q 3647 1150 3233 529 
Q 2819 -91 2034 -91 
Q 1250 -91 836 529 
Q 422 1150 422 2328 
Q 422 3509 836 4129 
Q 1250 4750 2034 4750 
z
" transform="scale(0.015625)"/>
        <path id="DejaVuSans-31" d="M 794 531 
L 1825 531 
L 1825 4091 
L 703 3866 
L 703 4441 
L 1819 4666 
L 2450 4666 
L 2450 531 
L 3481 531 
L 3481 0 
L 794 0 
L 794 531 
z
" transform="scale(0.015625)"/>
        <path id="DejaVuSans-34" d="M 2419 4116 
L 825 1625 
L 2419 1625 
L 2419 4116 
z
M 2253 4666 
L 3047 4666 
L 3047 1625 
L 3713 1625 
L 3713 1100 
L 3047 1100 
L 3047 0 
L 2419 0 
L 2419 1100 
L 313 1100 
L 313 1709 
L 2253 4666 
z
" transform="scale(0.015625)"/>
       </defs>
       <use xlink:href="#DejaVuSans-32"/>
       <use xlink:href="#DejaVuSans-30" x="63.623047"/>
       <use xlink:href="#DejaVuSans-31" x="127.246094"/>
       <use xlink:href="#DejaVuSans-34" x="190.869141"/>
      </g>
     </g>
    </g>
    <g id="xtick_2">
     <g id="line2d_2">
      <g>
       <use xlink:href="#m3c66875f0f" x="319.593653" y="512.64" style="stroke: #000000; stroke-width: 0.8"/>
      </g>
     </g>
     <g id="text_2">
      <!-- 2016 -->
      <g transform="translate(306.868653 527.238438) scale(0.1 -0.1)">
       <defs>
        <path id="DejaVuSans-36" d="M 2113 2584 
Q 1688 2584 1439 2293 
Q 1191 2003 1191 1497 
Q 1191 994 1439 701 
Q 1688 409 2113 409 
Q 2538 409 2786 701 
Q 3034 994 3034 1497 
Q 3034 2003 2786 2293 
Q 2538 2584 2113 2584 
z
M 3366 4563 
L 3366 3988 
Q 3128 4100 2886 4159 
Q 2644 4219 2406 4219 
Q 1781 4219 1451 3797 
Q 1122 3375 1075 2522 
Q 1259 2794 1537 2939 
Q 1816 3084 2150 3084 
Q 2853 3084 3261 2657 
Q 3669 2231 3669 1497 
Q 3669 778 3244 343 
Q 2819 -91 2113 -91 
Q 1303 -91 875 529 
Q 447 1150 447 2328 
Q 447 3434 972 4092 
Q 1497 4750 2381 4750 
Q 2619 4750 2861 4703 
Q 3103 4656 3366 4563 
z
" transform="scale(0.015625)"/>
       </defs>
       <use xlink:href="#DejaVuSans-32"/>
       <use xlink:href="#DejaVuSans-30" x="63.623047"/>
       <use xlink:href="#DejaVuSans-31" x="127.246094"/>
       <use xlink:href="#DejaVuSans-36" x="190.869141"/>
      </g>
     </g>
    </g>
    <g id="xtick_3">
     <g id="line2d_3">
      <g>
       <use xlink:href="#m3c66875f0f" x="462.62793" y="512.64" style="stroke: #000000; stroke-width: 0.8"/>
      </g>
     </g>
     <g id="text_3">
      <!-- 2018 -->
      <g transform="translate(449.90293 527.238438) scale(0.1 -0.1)">
       <defs>
        <path id="DejaVuSans-38" d="M 2034 2216 
Q 1584 2216 1326 1975 
Q 1069 1734 1069 1313 
Q 1069 891 1326 650 
Q 1584 409 2034 409 
Q 2484 409 2743 651 
Q 3003 894 3003 1313 
Q 3003 1734 2745 1975 
Q 2488 2216 2034 2216 
z
M 1403 2484 
Q 997 2584 770 2862 
Q 544 3141 544 3541 
Q 544 4100 942 4425 
Q 1341 4750 2034 4750 
Q 2731 4750 3128 4425 
Q 3525 4100 3525 3541 
Q 3525 3141 3298 2862 
Q 3072 2584 2669 2484 
Q 3125 2378 3379 2068 
Q 3634 1759 3634 1313 
Q 3634 634 3220 271 
Q 2806 -91 2034 -91 
Q 1263 -91 848 271 
Q 434 634 434 1313 
Q 434 1759 690 2068 
Q 947 2378 1403 2484 
z
M 1172 3481 
Q 1172 3119 1398 2916 
Q 1625 2713 2034 2713 
Q 2441 2713 2670 2916 
Q 2900 3119 2900 3481 
Q 2900 3844 2670 4047 
Q 2441 4250 2034 4250 
Q 1625 4250 1398 4047 
Q 1172 3844 1172 3481 
z
" transform="scale(0.015625)"/>
       </defs>
       <use xlink:href="#DejaVuSans-32"/>
       <use xlink:href="#DejaVuSans-30" x="63.623047"/>
       <use xlink:href="#DejaVuSans-31" x="127.246094"/>
       <use xlink:href="#DejaVuSans-38" x="190.869141"/>
      </g>
     </g>
    </g>
    <g id="xtick_4">
     <g id="line2d_4">
      <g>
       <use xlink:href="#m3c66875f0f" x="605.466538" y="512.64" style="stroke: #000000; stroke-width: 0.8"/>
      </g>
     </g>
     <g id="text_4">
      <!-- 2020 -->
      <g transform="translate(592.741538 527.238438) scale(0.1 -0.1)">
       <use xlink:href="#DejaVuSans-32"/>
       <use xlink:href="#DejaVuSans-30" x="63.623047"/>
       <use xlink:href="#DejaVuSans-32" x="127.246094"/>
       <use xlink:href="#DejaVuSans-30" x="190.869141"/>
      </g>
     </g>
    </g>
    <g id="xtick_5">
     <g id="line2d_5">
      <g>
       <use xlink:href="#m3c66875f0f" x="748.500815" y="512.64" style="stroke: #000000; stroke-width: 0.8"/>
      </g>
     </g>
     <g id="text_5">
      <!-- 2022 -->
      <g transform="translate(735.775815 527.238438) scale(0.1 -0.1)">
       <use xlink:href="#DejaVuSans-32"/>
       <use xlink:href="#DejaVuSans-30" x="63.623047"/>
       <use xlink:href="#DejaVuSans-32" x="127.246094"/>
       <use xlink:href="#DejaVuSans-32" x="190.869141"/>
      </g>
     </g>
    </g>
    <g id="xtick_6">
     <g id="line2d_6">
      <g>
       <use xlink:href="#m3c66875f0f" x="891.339423" y="512.64" style="stroke: #000000; stroke-width: 0.8"/>
      </g>
     </g>
     <g id="text_6">
      <!-- 2024 -->
      <g transform="translate(878.614423 527.238438) scale(0.1 -0.1)">
       <use xlink:href="#DejaVuSans-32"/>
       <use xlink:href="#DejaVuSans-30" x="63.623047"/>
       <use xlink:href="#DejaVuSans-32" x="127.246094"/>
       <use xlink:href="#DejaVuSans-34" x="190.869141"/>
      </g>
     </g>
    </g>
    <g id="xtick_7">
     <g id="line2d_7">
      <g>
       <use xlink:href="#m3c66875f0f" x="1034.3737" y="512.64" style="stroke: #000000; stroke-width: 0.8"/>
      </g>
     </g>
     <g id="text_7">
      <!-- 2026 -->
      <g transform="translate(1021.6487 527.238438) scale(0.1 -0.1)">
       <use xlink:href="#DejaVuSans-32"/>
       <use xlink:href="#DejaVuSans-30" x="63.623047"/>
       <use xlink:href="#DejaVuSans-32" x="127.246094"/>
       <use xlink:href="#DejaVuSans-36" x="190.869141"/>
      </g>
     </g>
    </g>
   </g>
   <g id="matplotlib.axis_2">
    <g id="ytick_1">
     <g id="line2d_8">
      <defs>
       <path id="m157534deaa" d="M 0 0 
L -3.5 0 
" style="stroke: #000000; stroke-width: 0.8"/>
      </defs>
      <g>
       <use xlink:href="#m157534deaa" x="144" y="492.515723" style="stroke: #000000; stroke-width: 0.8"/>
      </g>
     </g>
     <g id="text_8">
      <!-- 0 -->
      <g transform="translate(130.6375 496.314941) scale(0.1 -0.1)">
       <use xlink:href="#DejaVuSans-30"/>
      </g>
     </g>
    </g>
    <g id="ytick_2">
     <g id="line2d_9">
      <g>
       <use xlink:href="#m157534deaa" x="144" y="421.070697" style="stroke: #000000; stroke-width: 0.8"/>
      </g>
     </g>
     <g id="text_9">
      <!-- 2000 -->
      <g transform="translate(111.55 424.869916) scale(0.1 -0.1)">
       <use xlink:href="#DejaVuSans-32"/>
       <use xlink:href="#DejaVuSans-30" x="63.623047"/>
       <use xlink:href="#DejaVuSans-30" x="127.246094"/>
       <use xlink:href="#DejaVuSans-30" x="190.869141"/>
      </g>
     </g>
    </g>
    <g id="ytick_3">
     <g id="line2d_10">
      <g>
       <use xlink:href="#m157534deaa" x="144" y="349.625672" style="stroke: #000000; stroke-width: 0.8"/>
      </g>
     </g>
     <g id="text_10">
      <!-- 4000 -->
      <g transform="translate(111.55 353.424891) scale(0.1 -0.1)">
       <use xlink:href="#DejaVuSans-34"/>
       <use xlink:href="#DejaVuSans-30" x="63.623047"/>
       <use xlink:href="#DejaVuSans-30" x="127.246094"/>
       <use xlink:href="#DejaVuSans-30" x="190.869141"/>
      </g>
     </g>
    </g>
    <g id="ytick_4">
     <g id="line2d_11">
      <g>
       <use xlink:href="#m157534deaa" x="144" y="278.180647" style="stroke: #000000; stroke-width: 0.8"/>
      </g>
     </g>
     <g id="text_11">
      <!-- 6000 -->
      <g transform="translate(111.55 281.979866) scale(0.1 -0.1)">
       <use xlink:href="#DejaVuSans-36"/>
       <use xlink:href="#DejaVuSans-30" x="63.623047"/>
       <use xlink:href="#DejaVuSans-30" x="127.246094"/>
       <use xlink:href="#DejaVuSans-30" x="190.869141"/>
      </g>
     </g>
    </g>
    <g id="ytick_5">
     <g id="line2d_12">
      <g>
       <use xlink:href="#m157534deaa" x="144" y="206.735622" style="stroke: #000000; stroke-width: 0.8"/>
      </g>
     </g>
     <g id="text_12">
      <!-- 8000 -->
      <g transform="translate(111.55 210.53484) scale(0.1 -0.1)">
       <use xlink:href="#DejaVuSans-38"/>
       <use xlink:href="#DejaVuSans-30" x="63.623047"/>
       <use xlink:href="#DejaVuSans-30" x="127.246094"/>
       <use xlink:href="#DejaVuSans-30" x="190.869141"/>
      </g>
     </g>
    </g>
    <g id="ytick_6">
     <g id="line2d_13">
      <g>
       <use xlink:href="#m157534deaa" x="144" y="135.290596" style="stroke: #000000; stroke-width: 0.8"/>
      </g>
     </g>
     <g id="text_13">
      <!-- 10000 -->
      <g transform="translate(105.1875 139.089815) scale(0.1 -0.1)">
       <use xlink:href="#DejaVuSans-31"/>
       <use xlink:href="#DejaVuSans-30" x="63.623047"/>
       <use xlink:href="#DejaVuSans-30" x="127.246094"/>
       <use xlink:href="#DejaVuSans-30" x="190.869141"/>
       <use xlink:href="#DejaVuSans-30" x="254.492188"/>
      </g>
     </g>
    </g>
   </g>
   <g id="line2d_14">
    <path d="M 184.581818 492.48 
L 186.342842 492.408555 
L 308.636171 492.19422 
L 451.866117 492.015607 
L 505.088174 491.801272 
L 518.980696 491.694105 
L 552.244481 491.515492 
L 553.809836 491.444047 
L 562.810625 491.33688 
L 605.662207 491.122545 
L 611.923626 491.051099 
L 612.314964 490.765319 
L 616.42402 490.586707 
L 650.861822 490.443817 
L 654.775208 490.336649 
L 668.8634 490.193759 
L 678.646866 490.122314 
L 692.539388 489.907979 
L 696.257105 489.765089 
L 705.844902 489.550754 
L 708.584273 489.372141 
L 710.345297 489.264974 
L 711.714982 489.086361 
L 719.150416 488.872026 
L 719.346086 488.836304 
L 723.455142 488.693414 
L 729.912229 488.229021 
L 740.087034 487.978963 
L 744.783098 486.51434 
L 744.978767 486.37145 
L 746.739791 486.192838 
L 747.522469 485.621278 
L 747.718138 484.728215 
L 748.109477 484.51388 
L 748.305146 484.478157 
L 748.500815 483.263592 
L 749.674831 482.763477 
L 750.06617 482.156194 
L 750.457509 481.906136 
L 750.653178 481.334576 
L 750.848847 479.869953 
L 751.044517 479.512728 
L 751.240186 478.762555 
L 751.435855 477.54799 
L 751.827194 474.583021 
L 752.218532 473.618513 
L 752.414202 468.831697 
L 752.609871 466.902681 
L 752.80554 466.152508 
L 753.00121 462.651702 
L 753.588218 458.650781 
L 753.783887 458.543613 
L 754.175226 456.50743 
L 754.370895 455.828702 
L 754.566564 450.613215 
L 754.762234 450.148823 
L 755.153572 448.434142 
L 755.349242 448.326974 
L 755.544911 447.433912 
L 755.74058 443.683048 
L 755.93625 442.754262 
L 756.131919 442.682817 
L 756.327588 439.896461 
L 756.523258 439.324901 
L 756.914596 439.146289 
L 757.697274 436.431378 
L 758.088612 435.716927 
L 758.479951 433.609299 
L 758.67562 432.787681 
L 758.87129 428.751037 
L 759.458298 424.321446 
L 760.045306 424.107111 
L 760.436644 423.857053 
L 761.219321 422.356708 
L 761.61066 422.213818 
L 762.001999 419.105959 
L 762.197668 419.070237 
L 762.589007 418.534399 
L 762.784676 416.998331 
L 763.176015 416.391048 
L 763.567353 415.390818 
L 764.154361 415.14076 
L 764.350031 414.890703 
L 764.937039 412.640184 
L 765.132708 412.497294 
L 765.524047 411.925734 
L 766.306724 411.532786 
L 766.502393 410.068163 
L 766.698063 409.960996 
L 766.893732 409.675216 
L 767.089401 406.817415 
L 767.48074 406.710247 
L 767.872079 405.960074 
L 768.067748 405.245624 
L 768.654756 405.102734 
L 769.241764 403.995336 
L 769.437433 403.959614 
L 769.828772 403.352331 
L 770.22011 403.209441 
L 770.41578 399.92297 
L 771.589796 399.63719 
L 771.981134 399.35141 
L 772.763812 399.244242 
L 772.959481 399.029907 
L 775.307513 398.315457 
L 776.09019 397.743897 
L 777.068537 397.601006 
L 777.459876 397.315226 
L 777.851214 397.172336 
L 779.807907 396.636499 
L 780.590585 393.600085 
L 781.568931 393.457195 
L 781.764601 393.38575 
L 783.329955 393.207137 
L 783.916963 392.992802 
L 784.112633 392.38552 
L 785.090979 392.314075 
L 785.677987 391.992572 
L 787.63468 391.063787 
L 787.83035 390.813729 
L 788.613027 390.527949 
L 789.591374 390.385059 
L 789.787043 390.135001 
L 790.178382 390.099279 
L 790.374051 389.456274 
L 790.56972 389.384829 
L 790.76539 388.563211 
L 793.113422 388.027373 
L 793.70043 387.884483 
L 793.896099 387.42009 
L 795.265784 387.062865 
L 795.852792 386.84853 
L 796.635469 386.669918 
L 797.418147 386.455583 
L 798.396493 386.241247 
L 798.983501 386.062635 
L 800.353187 385.241017 
L 800.548856 384.526567 
L 801.527203 383.704949 
L 801.722872 383.347724 
L 802.701219 382.490384 
L 803.092557 381.740211 
L 803.288227 381.704488 
L 803.483896 380.990038 
L 804.266573 379.918363 
L 804.657912 379.73975 
L 805.04925 379.668305 
L 805.24492 379.346803 
L 805.636258 379.16819 
L 805.831928 378.810965 
L 806.810274 378.525185 
L 807.005944 378.203682 
L 808.375629 377.882179 
L 808.766968 377.703567 
L 808.962637 377.667844 
L 809.158306 377.489232 
L 810.136653 377.346342 
L 811.506338 376.703337 
L 812.093346 376.560447 
L 812.484685 375.738829 
L 812.876023 375.488771 
L 813.85437 374.667153 
L 814.050039 373.845536 
L 814.832717 373.595478 
L 816.006733 373.20253 
L 816.398071 372.595248 
L 816.985079 372.238023 
L 817.180749 372.2023 
L 817.572087 371.63074 
L 818.159095 371.416405 
L 818.550434 371.094902 
L 819.137442 370.809122 
L 819.528781 366.808201 
L 819.72445 365.486468 
L 819.920119 363.235949 
L 820.115789 362.950169 
L 820.898466 360.199536 
L 821.289805 359.485085 
L 821.485474 359.377918 
L 821.681143 359.12786 
L 821.876812 358.627745 
L 822.072482 357.020232 
L 822.268151 356.627284 
L 822.65949 356.484394 
L 823.833506 354.055264 
L 824.029175 353.876651 
L 824.224844 352.912143 
L 824.420514 352.554918 
L 824.811852 351.626133 
L 825.203191 351.054573 
L 825.985868 350.59018 
L 826.181538 350.375845 
L 826.377207 349.197002 
L 826.768546 349.018389 
L 827.159884 348.625442 
L 827.746892 347.803824 
L 827.942562 347.053651 
L 828.138231 347.017929 
L 828.725239 346.303478 
L 829.116578 346.232033 
L 829.312247 345.874808 
L 829.703586 345.624751 
L 829.899255 345.33897 
L 830.681932 342.516892 
L 830.877601 341.052269 
L 831.26894 340.302096 
L 831.464609 340.159206 
L 831.660279 339.837704 
L 832.247287 339.480478 
L 832.442956 339.123253 
L 832.834295 337.694353 
L 834.008311 337.051348 
L 834.399649 336.194007 
L 834.595319 336.051117 
L 835.573665 334.443604 
L 835.965004 334.229269 
L 836.747681 333.979211 
L 837.334689 332.836091 
L 838.117367 332.586033 
L 838.900044 331.657248 
L 839.291382 331.585803 
L 839.682721 331.157133 
L 840.269729 330.907075 
L 840.661068 330.83563 
L 840.856737 330.621295 
L 841.052406 329.942568 
L 841.835084 329.69251 
L 842.030753 329.335285 
L 842.226422 329.299562 
L 842.422092 328.620835 
L 843.0091 328.370777 
L 843.596108 328.227887 
L 843.987446 327.834939 
L 844.965793 327.334824 
L 845.357132 326.977599 
L 845.74847 326.727541 
L 846.139809 326.691819 
L 846.335478 325.727311 
L 846.726817 325.405808 
L 847.313825 325.120028 
L 847.900833 324.762803 
L 848.68351 324.619913 
L 848.879179 323.619683 
L 849.466187 323.29818 
L 849.661857 323.048123 
L 850.053195 323.0124 
L 850.640203 322.619452 
L 851.031542 322.548007 
L 851.227211 322.226505 
L 852.009889 321.905002 
L 852.205558 321.512055 
L 852.596897 321.476332 
L 852.988235 321.226274 
L 853.575243 320.904772 
L 853.770913 320.404657 
L 854.55359 320.011709 
L 854.749259 319.725929 
L 855.140598 319.618761 
L 855.336267 319.368704 
L 855.923275 319.047201 
L 856.118945 318.725699 
L 856.314614 318.654254 
L 856.705952 318.368473 
L 857.097291 318.189861 
L 857.29296 317.975526 
L 858.466976 317.582578 
L 858.662646 317.153908 
L 858.858315 317.04674 
L 859.836662 316.796683 
L 860.228 316.47518 
L 860.619339 316.33229 
L 861.206347 316.153678 
L 861.402016 315.832175 
L 861.793355 315.76073 
L 861.989024 315.117725 
L 862.184694 314.974835 
L 862.576032 314.510442 
L 862.771702 313.438767 
L 863.16304 313.188709 
L 863.35871 313.045819 
L 863.554379 312.724316 
L 863.945718 312.474259 
L 864.728395 311.759809 
L 865.119733 311.581196 
L 865.315403 311.152526 
L 865.511072 311.081081 
L 865.902411 310.652411 
L 866.293749 310.402353 
L 866.880757 310.188018 
L 867.467765 309.50929 
L 867.859104 309.187788 
L 868.250443 308.759118 
L 869.424459 307.79461 
L 870.402805 307.544552 
L 870.989813 306.794379 
L 871.381152 306.365709 
L 871.96816 305.972762 
L 872.750837 305.651259 
L 872.946507 305.472646 
L 873.729184 305.151144 
L 874.120522 304.793919 
L 874.70753 304.579584 
L 875.294538 304.222358 
L 875.881546 303.972301 
L 876.077216 303.793688 
L 878.229578 302.900625 
L 878.425248 302.5434 
L 879.794933 301.97184 
L 880.381941 301.578893 
L 880.57761 301.54317 
L 881.164618 301.043055 
L 881.947296 300.82872 
L 882.142965 300.328605 
L 882.338634 298.721092 
L 882.729973 298.292421 
L 882.925642 298.256699 
L 884.099658 296.684908 
L 884.490997 295.57751 
L 884.882335 295.220285 
L 885.273674 294.970228 
L 885.665013 294.86306 
L 885.860682 294.57728 
L 886.252021 294.362945 
L 886.643359 294.00572 
L 887.034698 293.827107 
L 887.230367 293.755662 
L 887.426037 293.398437 
L 887.817375 293.255547 
L 888.013045 292.826877 
L 888.600053 292.612542 
L 888.991391 292.040982 
L 889.578399 291.576589 
L 889.969738 291.183641 
L 890.556746 291.076474 
L 890.752415 290.754971 
L 891.339423 290.540636 
L 891.730762 288.968846 
L 892.1221 288.61162 
L 893.296116 287.968615 
L 893.491786 287.397055 
L 893.883124 287.18272 
L 894.078794 286.682605 
L 894.274463 286.575437 
L 894.470132 286.253935 
L 895.644148 285.503762 
L 897.209503 284.432086 
L 897.600842 283.539024 
L 897.796511 283.431856 
L 898.18785 283.360411 
L 898.383519 282.967463 
L 898.774858 282.788851 
L 899.166196 282.574516 
L 899.361866 281.931511 
L 900.144543 281.467118 
L 900.340212 280.824113 
L 901.122889 280.145385 
L 901.318559 280.109662 
L 901.514228 279.716715 
L 902.296905 279.180877 
L 902.492575 278.823652 
L 902.883913 278.680762 
L 903.079583 278.002034 
L 903.470921 277.894867 
L 903.666591 277.573364 
L 903.86226 277.501919 
L 904.057929 276.751746 
L 904.449268 276.644579 
L 904.840607 276.323076 
L 905.231945 275.751516 
L 905.427615 275.608626 
L 906.210292 274.39406 
L 906.405961 274.322615 
L 906.7973 273.893945 
L 907.579977 273.322385 
L 908.166985 273.036605 
L 909.928009 271.179034 
L 910.319348 271.036144 
L 910.710686 270.607474 
L 911.102025 270.464584 
L 911.297694 269.607244 
L 911.884702 268.999961 
L 912.080372 268.285511 
L 912.47171 267.892563 
L 912.66738 267.499615 
L 912.863049 267.463893 
L 913.841396 266.499385 
L 914.428404 266.14216 
L 914.624073 265.820657 
L 915.798089 265.42771 
L 916.385097 264.677537 
L 916.776436 263.998809 
L 917.167774 263.855919 
L 917.363443 263.534417 
L 917.559113 263.427249 
L 917.754782 263.177191 
L 917.950451 263.141469 
L 918.146121 262.712799 
L 918.928798 262.176961 
L 919.711475 261.605401 
L 919.907145 261.569678 
L 921.081161 260.640893 
L 921.472499 260.46228 
L 921.668169 260.105055 
L 922.059507 260.03361 
L 922.646515 259.426328 
L 922.842185 259.104825 
L 923.429193 258.819045 
L 924.016201 258.426097 
L 924.407539 258.283207 
L 924.798878 257.854537 
L 925.777225 257.282977 
L 925.972894 257.032919 
L 926.755571 256.675694 
L 926.95124 255.032459 
L 927.929587 254.318008 
L 928.712264 252.889108 
L 928.907934 252.746218 
L 929.103603 252.281825 
L 929.494942 252.103213 
L 930.277619 250.852925 
L 930.668958 249.173967 
L 930.864627 248.602406 
L 931.255966 245.887495 
L 931.451635 244.81582 
L 932.429982 243.52981 
L 933.212659 240.314783 
L 933.408328 240.136171 
L 933.603998 239.636056 
L 933.799667 237.885653 
L 933.995336 237.242647 
L 934.191006 237.171202 
L 934.386675 236.385307 
L 934.973683 235.885192 
L 935.365021 234.527736 
L 936.343368 233.991899 
L 936.539037 233.634674 
L 937.517384 233.098836 
L 937.908723 232.670166 
L 938.104392 232.277218 
L 938.300061 231.276988 
L 938.495731 230.88404 
L 938.887069 230.74115 
L 939.278408 230.562537 
L 939.669747 230.276757 
L 940.061085 229.990977 
L 940.452424 229.919532 
L 940.843763 229.705197 
L 941.235101 229.45514 
L 941.430771 229.312249 
L 941.822109 229.276527 
L 945.148488 226.383003 
L 945.344157 226.275836 
L 945.539826 225.418496 
L 946.126834 224.811213 
L 946.518173 224.704045 
L 947.692189 223.668092 
L 948.083528 223.48948 
L 948.279197 223.418035 
L 948.474866 223.096532 
L 949.061874 222.882197 
L 949.257544 222.382082 
L 949.453213 222.203469 
L 949.648882 221.631909 
L 950.040221 221.381852 
L 950.627229 219.917229 
L 950.822898 219.202778 
L 951.409906 218.774108 
L 951.996914 217.95249 
L 952.388253 216.559312 
L 952.583922 216.130642 
L 952.779591 215.38047 
L 952.975261 215.309025 
L 953.17093 214.701742 
L 953.562269 214.451684 
L 954.736285 213.201396 
L 954.931954 212.701281 
L 955.323293 212.558391 
L 955.518962 212.344056 
L 955.714631 211.843941 
L 956.497309 211.522438 
L 956.692978 211.272381 
L 956.888647 211.236658 
L 957.084317 210.486485 
L 957.475655 210.236428 
L 957.671325 209.736313 
L 957.866994 209.593423 
L 958.258333 209.5577 
L 959.432349 208.628915 
L 960.019357 208.164522 
L 960.410695 207.700129 
L 960.802034 207.307182 
L 960.997703 206.914234 
L 961.193372 206.128339 
L 962.367388 205.449611 
L 962.758727 204.520826 
L 963.150066 204.342213 
L 963.345735 203.806375 
L 963.541404 203.699208 
L 964.324082 202.698978 
L 965.302428 202.055972 
L 966.476444 200.841407 
L 967.063452 200.055512 
L 968.041799 197.483491 
L 969.020146 192.196559 
L 969.215815 191.910779 
L 969.411484 191.374941 
L 969.607154 189.410203 
L 969.802823 185.659339 
L 969.998492 184.194716 
L 970.194161 181.83703 
L 970.389831 181.194025 
L 970.781169 178.514837 
L 971.172508 174.87114 
L 971.563847 169.905711 
L 971.955185 169.155538 
L 972.346524 162.761208 
L 972.542193 161.08225 
L 972.933532 153.794858 
L 973.324871 152.40168 
L 973.52054 148.757984 
L 973.716209 147.900643 
L 974.107548 143.863999 
L 974.498887 132.93291 
L 974.890225 131.253952 
L 975.085895 127.896036 
L 975.281564 127.538811 
L 975.672903 122.073267 
L 975.868572 121.966099 
L 976.064241 121.608874 
L 976.45558 120.322863 
L 976.651249 120.001361 
L 976.846919 119.394078 
L 977.042588 118.250958 
L 977.433927 118.036623 
L 977.629596 117.465062 
L 978.020935 115.643214 
L 978.412273 112.070963 
L 978.607942 111.285068 
L 978.803612 111.213623 
L 978.999281 110.89212 
L 979.977628 107.819984 
L 980.173297 107.677094 
L 980.368966 106.926921 
L 980.760305 106.569696 
L 980.955974 106.426806 
L 981.151644 105.890968 
L 981.347313 105.712356 
L 982.12999 104.49779 
L 982.716998 103.854785 
L 982.912668 103.78334 
L 983.891014 102.35444 
L 984.282353 102.175827 
L 984.869361 102.06866 
L 985.2607 101.497099 
L 985.652038 101.389932 
L 986.239046 100.639759 
L 987.021724 100.175366 
L 987.804401 99.175136 
L 988.00007 98.639298 
L 988.782747 98.389241 
L 989.174086 97.996293 
L 989.565425 97.281843 
L 989.956763 96.924618 
L 990.152433 96.67456 
L 990.348102 95.638607 
L 990.739441 94.95988 
L 991.326449 94.709822 
L 991.717787 94.388319 
L 992.109126 93.959649 
L 992.500465 93.602424 
L 993.087473 92.995141 
L 993.283142 92.816529 
L 993.478811 91.959188 
L 994.065819 91.530518 
L 995.044166 90.28023 
L 995.239835 90.208785 
L 996.218182 89.28 
L 996.218182 89.28 
" clip-path="url(#p165f0ff584)" style="fill: none; stroke: #1f77b4; stroke-width: 1.5; stroke-linecap: square"/>
   </g>
   <g id="patch_3">
    <path d="M 144 512.64 
L 144 69.12 
" style="fill: none; stroke: #000000; stroke-width: 0.8; stroke-linejoin: miter; stroke-linecap: square"/>
   </g>
   <g id="patch_4">
    <path d="M 1036.8 512.64 
L 1036.8 69.12 
" style="fill: none; stroke: #000000; stroke-width: 0.8; stroke-linejoin: miter; stroke-linecap: square"/>
   </g>
   <g id="patch_5">
    <path d="M 144 512.64 
L 1036.8 512.64 
" style="fill: none; stroke: #000000; stroke-width: 0.8; stroke-linejoin: miter; stroke-linecap: square"/>
   </g>
   <g id="patch_6">
    <path d="M 144 69.12 
L 1036.8 69.12 
" style="fill: none; stroke: #000000; stroke-width: 0.8; stroke-linejoin: miter; stroke-linecap: square"/>
   </g>
   <g id="text_14">
    <!-- Number of AEDs in the OpenStreetMap database in Poland from first edition, day by day. As at: 2025-06-20 -->
    <g transform="translate(144 63.12) scale(0.14 -0.14)">
     <defs>
      <path id="DejaVuSans-4e" d="M 628 4666 
L 1478 4666 
L 3547 763 
L 3547 4666 
L 4159 4666 
L 4159 0 
L 3309 0 
L 1241 3903 
L 1241 0 
L 628 0 
L 628 4666 
z
" transform="scale(0.015625)"/>
      <path id="DejaVuSans-75" d="M 544 1381 
L 544 3500 
L 1119 3500 
L 1119 1403 
Q 1119 906 1312 657 
Q 1506 409 1894 409 
Q 2359 409 2629 706 
Q 2900 1003 2900 1516 
L 2900 3500 
L 3475 3500 
L 3475 0 
L 2900 0 
L 2900 538 
Q 2691 219 2414 64 
Q 2138 -91 1772 -91 
Q 1169 -91 856 284 
Q 544 659 544 1381 
z
M 1991 3584 
L 1991 3584 
z
" transform="scale(0.015625)"/>
      <path id="DejaVuSans-6d" d="M 3328 2828 
Q 3544 3216 3844 3400 
Q 4144 3584 4550 3584 
Q 5097 3584 5394 3201 
Q 5691 2819 5691 2113 
L 5691 0 
L 5113 0 
L 5113 2094 
Q 5113 2597 4934 2840 
Q 4756 3084 4391 3084 
Q 3944 3084 3684 2787 
Q 3425 2491 3425 1978 
L 3425 0 
L 2847 0 
L 2847 2094 
Q 2847 2600 2669 2842 
Q 2491 3084 2119 3084 
Q 1678 3084 1418 2786 
Q 1159 2488 1159 1978 
L 1159 0 
L 581 0 
L 581 3500 
L 1159 3500 
L 1159 2956 
Q 1356 3278 1631 3431 
Q 1906 3584 2284 3584 
Q 2666 3584 2933 3390 
Q 3200 3197 3328 2828 
z
" transform="scale(0.015625)"/>
      <path id="DejaVuSans-62" d="M 3116 1747 
Q 3116 2381 2855 2742 
Q 2594 3103 2138 3103 
Q 1681 3103 1420 2742 
Q 1159 2381 1159 1747 
Q 1159 1113 1420 752 
Q 1681 391 2138 391 
Q 2594 391 2855 752 
Q 3116 1113 3116 1747 
z
M 1159 2969 
Q 1341 3281 1617 3432 
Q 1894 3584 2278 3584 
Q 2916 3584 3314 3078 
Q 3713 2572 3713 1747 
Q 3713 922 3314 415 
Q 2916 -91 2278 -91 
Q 1894 -91 1617 61 
Q 1341 213 1159 525 
L 1159 0 
L 581 0 
L 581 4863 
L 1159 4863 
L 1159 2969 
z
" transform="scale(0.015625)"/>
      <path id="DejaVuSans-65" d="M 3597 1894 
L 3597 1613 
L 953 1613 
Q 991 1019 1311 708 
Q 1631 397 2203 397 
Q 2534 397 2845 478 
Q 3156 559 3463 722 
L 3463 178 
Q 3153 47 2828 -22 
Q 2503 -91 2169 -91 
Q 1331 -91 842 396 
Q 353 884 353 1716 
Q 353 2575 817 3079 
Q 1281 3584 2069 3584 
Q 2775 3584 3186 3129 
Q 3597 2675 3597 1894 
z
M 3022 2063 
Q 3016 2534 2758 2815 
Q 2500 3097 2075 3097 
Q 1594 3097 1305 2825 
Q 1016 2553 972 2059 
L 3022 2063 
z
" transform="scale(0.015625)"/>
      <path id="DejaVuSans-72" d="M 2631 2963 
Q 2534 3019 2420 3045 
Q 2306 3072 2169 3072 
Q 1681 3072 1420 2755 
Q 1159 2438 1159 1844 
L 1159 0 
L 581 0 
L 581 3500 
L 1159 3500 
L 1159 2956 
Q 1341 3275 1631 3429 
Q 1922 3584 2338 3584 
Q 2397 3584 2469 3576 
Q 2541 3569 2628 3553 
L 2631 2963 
z
" transform="scale(0.015625)"/>
      <path id="DejaVuSans-20" transform="scale(0.015625)"/>
      <path id="DejaVuSans-6f" d="M 1959 3097 
Q 1497 3097 1228 2736 
Q 959 2375 959 1747 
Q 959 1119 1226 758 
Q 1494 397 1959 397 
Q 2419 397 2687 759 
Q 2956 1122 2956 1747 
Q 2956 2369 2687 2733 
Q 2419 3097 1959 3097 
z
M 1959 3584 
Q 2709 3584 3137 3096 
Q 3566 2609 3566 1747 
Q 3566 888 3137 398 
Q 2709 -91 1959 -91 
Q 1206 -91 779 398 
Q 353 888 353 1747 
Q 353 2609 779 3096 
Q 1206 3584 1959 3584 
z
" transform="scale(0.015625)"/>
      <path id="DejaVuSans-66" d="M 2375 4863 
L 2375 4384 
L 1825 4384 
Q 1516 4384 1395 4259 
Q 1275 4134 1275 3809 
L 1275 3500 
L 2222 3500 
L 2222 3053 
L 1275 3053 
L 1275 0 
L 697 0 
L 697 3053 
L 147 3053 
L 147 3500 
L 697 3500 
L 697 3744 
Q 697 4328 969 4595 
Q 1241 4863 1831 4863 
L 2375 4863 
z
" transform="scale(0.015625)"/>
      <path id="DejaVuSans-41" d="M 2188 4044 
L 1331 1722 
L 3047 1722 
L 2188 4044 
z
M 1831 4666 
L 2547 4666 
L 4325 0 
L 3669 0 
L 3244 1197 
L 1141 1197 
L 716 0 
L 50 0 
L 1831 4666 
z
" transform="scale(0.015625)"/>
      <path id="DejaVuSans-45" d="M 628 4666 
L 3578 4666 
L 3578 4134 
L 1259 4134 
L 1259 2753 
L 3481 2753 
L 3481 2222 
L 1259 2222 
L 1259 531 
L 3634 531 
L 3634 0 
L 628 0 
L 628 4666 
z
" transform="scale(0.015625)"/>
      <path id="DejaVuSans-44" d="M 1259 4147 
L 1259 519 
L 2022 519 
Q 2988 519 3436 956 
Q 3884 1394 3884 2338 
Q 3884 3275 3436 3711 
Q 2988 4147 2022 4147 
L 1259 4147 
z
M 628 4666 
L 1925 4666 
Q 3281 4666 3915 4102 
Q 4550 3538 4550 2338 
Q 4550 1131 3912 565 
Q 3275 0 1925 0 
L 628 0 
L 628 4666 
z
" transform="scale(0.015625)"/>
      <path id="DejaVuSans-73" d="M 2834 3397 
L 2834 2853 
Q 2591 2978 2328 3040 
Q 2066 3103 1784 3103 
Q 1356 3103 1142 2972 
Q 928 2841 928 2578 
Q 928 2378 1081 2264 
Q 1234 2150 1697 2047 
L 1894 2003 
Q 2506 1872 2764 1633 
Q 3022 1394 3022 966 
Q 3022 478 2636 193 
Q 2250 -91 1575 -91 
Q 1294 -91 989 -36 
Q 684 19 347 128 
L 347 722 
Q 666 556 975 473 
Q 1284 391 1588 391 
Q 1994 391 2212 530 
Q 2431 669 2431 922 
Q 2431 1156 2273 1281 
Q 2116 1406 1581 1522 
L 1381 1569 
Q 847 1681 609 1914 
Q 372 2147 372 2553 
Q 372 3047 722 3315 
Q 1072 3584 1716 3584 
Q 2034 3584 2315 3537 
Q 2597 3491 2834 3397 
z
" transform="scale(0.015625)"/>
      <path id="DejaVuSans-69" d="M 603 3500 
L 1178 3500 
L 1178 0 
L 603 0 
L 603 3500 
z
M 603 4863 
L 1178 4863 
L 1178 4134 
L 603 4134 
L 603 4863 
z
" transform="scale(0.015625)"/>
      <path id="DejaVuSans-6e" d="M 3513 2113 
L 3513 0 
L 2938 0 
L 2938 2094 
Q 2938 2591 2744 2837 
Q 2550 3084 2163 3084 
Q 1697 3084 1428 2787 
Q 1159 2491 1159 1978 
L 1159 0 
L 581 0 
L 581 3500 
L 1159 3500 
L 1159 2956 
Q 1366 3272 1645 3428 
Q 1925 3584 2291 3584 
Q 2894 3584 3203 3211 
Q 3513 2838 3513 2113 
z
" transform="scale(0.015625)"/>
      <path id="DejaVuSans-74" d="M 1172 4494 
L 1172 3500 
L 2356 3500 
L 2356 3053 
L 1172 3053 
L 1172 1153 
Q 1172 725 1289 603 
Q 1406 481 1766 481 
L 2356 481 
L 2356 0 
L 1766 0 
Q 1100 0 847 248 
Q 594 497 594 1153 
L 594 3053 
L 172 3053 
L 172 3500 
L 594 3500 
L 594 4494 
L 1172 4494 
z
" transform="scale(0.015625)"/>
      <path id="DejaVuSans-68" d="M 3513 2113 
L 3513 0 
L 2938 0 
L 2938 2094 
Q 2938 2591 2744 2837 
Q 2550 3084 2163 3084 
Q 1697 3084 1428 2787 
Q 1159 2491 1159 1978 
L 1159 0 
L 581 0 
L 581 4863 
L 1159 4863 
L 1159 2956 
Q 1366 3272 1645 3428 
Q 1925 3584 2291 3584 
Q 2894 3584 3203 3211 
Q 3513 2838 3513 2113 
z
" transform="scale(0.015625)"/>
      <path id="DejaVuSans-4f" d="M 2522 4238 
Q 1834 4238 1429 3725 
Q 1025 3213 1025 2328 
Q 1025 1447 1429 934 
Q 1834 422 2522 422 
Q 3209 422 3611 934 
Q 4013 1447 4013 2328 
Q 4013 3213 3611 3725 
Q 3209 4238 2522 4238 
z
M 2522 4750 
Q 3503 4750 4090 4092 
Q 4678 3434 4678 2328 
Q 4678 1225 4090 567 
Q 3503 -91 2522 -91 
Q 1538 -91 948 565 
Q 359 1222 359 2328 
Q 359 3434 948 4092 
Q 1538 4750 2522 4750 
z
" transform="scale(0.015625)"/>
      <path id="DejaVuSans-70" d="M 1159 525 
L 1159 -1331 
L 581 -1331 
L 581 3500 
L 1159 3500 
L 1159 2969 
Q 1341 3281 1617 3432 
Q 1894 3584 2278 3584 
Q 2916 3584 3314 3078 
Q 3713 2572 3713 1747 
Q 3713 922 3314 415 
Q 2916 -91 2278 -91 
Q 1894 -91 1617 61 
Q 1341 213 1159 525 
z
M 3116 1747 
Q 3116 2381 2855 2742 
Q 2594 3103 2138 3103 
Q 1681 3103 1420 2742 
Q 1159 2381 1159 1747 
Q 1159 1113 1420 752 
Q 1681 391 2138 391 
Q 2594 391 2855 752 
Q 3116 1113 3116 1747 
z
" transform="scale(0.015625)"/>
      <path id="DejaVuSans-53" d="M 3425 4513 
L 3425 3897 
Q 3066 4069 2747 4153 
Q 2428 4238 2131 4238 
Q 1616 4238 1336 4038 
Q 1056 3838 1056 3469 
Q 1056 3159 1242 3001 
Q 1428 2844 1947 2747 
L 2328 2669 
Q 3034 2534 3370 2195 
Q 3706 1856 3706 1288 
Q 3706 609 3251 259 
Q 2797 -91 1919 -91 
Q 1588 -91 1214 -16 
Q 841 59 441 206 
L 441 856 
Q 825 641 1194 531 
Q 1563 422 1919 422 
Q 2459 422 2753 634 
Q 3047 847 3047 1241 
Q 3047 1584 2836 1778 
Q 2625 1972 2144 2069 
L 1759 2144 
Q 1053 2284 737 2584 
Q 422 2884 422 3419 
Q 422 4038 858 4394 
Q 1294 4750 2059 4750 
Q 2388 4750 2728 4690 
Q 3069 4631 3425 4513 
z
" transform="scale(0.015625)"/>
      <path id="DejaVuSans-4d" d="M 628 4666 
L 1569 4666 
L 2759 1491 
L 3956 4666 
L 4897 4666 
L 4897 0 
L 4281 0 
L 4281 4097 
L 3078 897 
L 2444 897 
L 1241 4097 
L 1241 0 
L 628 0 
L 628 4666 
z
" transform="scale(0.015625)"/>
      <path id="DejaVuSans-61" d="M 2194 1759 
Q 1497 1759 1228 1600 
Q 959 1441 959 1056 
Q 959 750 1161 570 
Q 1363 391 1709 391 
Q 2188 391 2477 730 
Q 2766 1069 2766 1631 
L 2766 1759 
L 2194 1759 
z
M 3341 1997 
L 3341 0 
L 2766 0 
L 2766 531 
Q 2569 213 2275 61 
Q 1981 -91 1556 -91 
Q 1019 -91 701 211 
Q 384 513 384 1019 
Q 384 1609 779 1909 
Q 1175 2209 1959 2209 
L 2766 2209 
L 2766 2266 
Q 2766 2663 2505 2880 
Q 2244 3097 1772 3097 
Q 1472 3097 1187 3025 
Q 903 2953 641 2809 
L 641 3341 
Q 956 3463 1253 3523 
Q 1550 3584 1831 3584 
Q 2591 3584 2966 3190 
Q 3341 2797 3341 1997 
z
" transform="scale(0.015625)"/>
      <path id="DejaVuSans-64" d="M 2906 2969 
L 2906 4863 
L 3481 4863 
L 3481 0 
L 2906 0 
L 2906 525 
Q 2725 213 2448 61 
Q 2172 -91 1784 -91 
Q 1150 -91 751 415 
Q 353 922 353 1747 
Q 353 2572 751 3078 
Q 1150 3584 1784 3584 
Q 2172 3584 2448 3432 
Q 2725 3281 2906 2969 
z
M 947 1747 
Q 947 1113 1208 752 
Q 1469 391 1925 391 
Q 2381 391 2643 752 
Q 2906 1113 2906 1747 
Q 2906 2381 2643 2742 
Q 2381 3103 1925 3103 
Q 1469 3103 1208 2742 
Q 947 2381 947 1747 
z
" transform="scale(0.015625)"/>
      <path id="DejaVuSans-50" d="M 1259 4147 
L 1259 2394 
L 2053 2394 
Q 2494 2394 2734 2622 
Q 2975 2850 2975 3272 
Q 2975 3691 2734 3919 
Q 2494 4147 2053 4147 
L 1259 4147 
z
M 628 4666 
L 2053 4666 
Q 2838 4666 3239 4311 
Q 3641 3956 3641 3272 
Q 3641 2581 3239 2228 
Q 2838 1875 2053 1875 
L 1259 1875 
L 1259 0 
L 628 0 
L 628 4666 
z
" transform="scale(0.015625)"/>
      <path id="DejaVuSans-6c" d="M 603 4863 
L 1178 4863 
L 1178 0 
L 603 0 
L 603 4863 
z
" transform="scale(0.015625)"/>
      <path id="DejaVuSans-2c" d="M 750 794 
L 1409 794 
L 1409 256 
L 897 -744 
L 494 -744 
L 750 256 
L 750 794 
z
" transform="scale(0.015625)"/>
      <path id="DejaVuSans-79" d="M 2059 -325 
Q 1816 -950 1584 -1140 
Q 1353 -1331 966 -1331 
L 506 -1331 
L 506 -850 
L 844 -850 
Q 1081 -850 1212 -737 
Q 1344 -625 1503 -206 
L 1606 56 
L 191 3500 
L 800 3500 
L 1894 763 
L 2988 3500 
L 3597 3500 
L 2059 -325 
z
" transform="scale(0.015625)"/>
      <path id="DejaVuSans-2e" d="M 684 794 
L 1344 794 
L 1344 0 
L 684 0 
L 684 794 
z
" transform="scale(0.015625)"/>
      <path id="DejaVuSans-3a" d="M 750 794 
L 1409 794 
L 1409 0 
L 750 0 
L 750 794 
z
M 750 3309 
L 1409 3309 
L 1409 2516 
L 750 2516 
L 750 3309 
z
" transform="scale(0.015625)"/>
      <path id="DejaVuSans-35" d="M 691 4666 
L 3169 4666 
L 3169 4134 
L 1269 4134 
L 1269 2991 
Q 1406 3038 1543 3061 
Q 1681 3084 1819 3084 
Q 2600 3084 3056 2656 
Q 3513 2228 3513 1497 
Q 3513 744 3044 326 
Q 2575 -91 1722 -91 
Q 1428 -91 1123 -41 
Q 819 9 494 109 
L 494 744 
Q 775 591 1075 516 
Q 1375 441 1709 441 
Q 2250 441 2565 725 
Q 2881 1009 2881 1497 
Q 2881 1984 2565 2268 
Q 2250 2553 1709 2553 
Q 1456 2553 1204 2497 
Q 953 2441 691 2322 
L 691 4666 
z
" transform="scale(0.015625)"/>
      <path id="DejaVuSans-2d" d="M 313 2009 
L 1997 2009 
L 1997 1497 
L 313 1497 
L 313 2009 
z
" transform="scale(0.015625)"/>
     </defs>
     <use xlink:href="#DejaVuSans-4e"/>
     <use xlink:href="#DejaVuSans-75" x="74.804688"/>
     <use xlink:href="#DejaVuSans-6d" x="138.183594"/>
     <use xlink:href="#DejaVuSans-62" x="235.595703"/>
     <use xlink:href="#DejaVuSans-65" x="299.072266"/>
     <use xlink:href="#DejaVuSans-72" x="360.595703"/>
     <use xlink:href="#DejaVuSans-20" x="401.708984"/>
     <use xlink:href="#DejaVuSans-6f" x="433.496094"/>
     <use xlink:href="#DejaVuSans-66" x="494.677734"/>
     <use xlink:href="#DejaVuSans-20" x="529.882812"/>
     <use xlink:href="#DejaVuSans-41" x="561.669922"/>
     <use xlink:href="#DejaVuSans-45" x="630.078125"/>
     <use xlink:href="#DejaVuSans-44" x="693.261719"/>
     <use xlink:href="#DejaVuSans-73" x="770.263672"/>
     <use xlink:href="#DejaVuSans-20" x="822.363281"/>
     <use xlink:href="#DejaVuSans-69" x="854.150391"/>
     <use xlink:href="#DejaVuSans-6e" x="881.933594"/>
     <use xlink:href="#DejaVuSans-20" x="945.3125"/>
     <use xlink:href="#DejaVuSans-74" x="977.099609"/>
     <use xlink:href="#DejaVuSans-68" x="1016.308594"/>
     <use xlink:href="#DejaVuSans-65" x="1079.6875"/>
     <use xlink:href="#DejaVuSans-20" x="1141.210938"/>
     <use xlink:href="#DejaVuSans-4f" x="1172.998047"/>
     <use xlink:href="#DejaVuSans-70" x="1251.708984"/>
     <use xlink:href="#DejaVuSans-65" x="1315.185547"/>
     <use xlink:href="#DejaVuSans-6e" x="1376.708984"/>
     <use xlink:href="#DejaVuSans-53" x="1440.087891"/>
     <use xlink:href="#DejaVuSans-74" x="1503.564453"/>
     <use xlink:href="#DejaVuSans-72" x="1542.773438"/>
     <use xlink:href="#DejaVuSans-65" x="1581.636719"/>
     <use xlink:href="#DejaVuSans-65" x="1643.160156"/>
     <use xlink:href="#DejaVuSans-74" x="1704.683594"/>
     <use xlink:href="#DejaVuSans-4d" x="1743.892578"/>
     <use xlink:href="#DejaVuSans-61" x="1830.171875"/>
     <use xlink:href="#DejaVuSans-70" x="1891.451172"/>
     <use xlink:href="#DejaVuSans-20" x="1954.927734"/>
     <use xlink:href="#DejaVuSans-64" x="1986.714844"/>
     <use xlink:href="#DejaVuSans-61" x="2050.191406"/>
     <use xlink:href="#DejaVuSans-74" x="2111.470703"/>
     <use xlink:href="#DejaVuSans-61" x="2150.679688"/>
     <use xlink:href="#DejaVuSans-62" x="2211.958984"/>
     <use xlink:href="#DejaVuSans-61" x="2275.435547"/>
     <use xlink:href="#DejaVuSans-73" x="2336.714844"/>
     <use xlink:href="#DejaVuSans-65" x="2388.814453"/>
     <use xlink:href="#DejaVuSans-20" x="2450.337891"/>
     <use xlink:href="#DejaVuSans-69" x="2482.125"/>
     <use xlink:href="#DejaVuSans-6e" x="2509.908203"/>
     <use xlink:href="#DejaVuSans-20" x="2573.287109"/>
     <use xlink:href="#DejaVuSans-50" x="2605.074219"/>
     <use xlink:href="#DejaVuSans-6f" x="2661.751953"/>
     <use xlink:href="#DejaVuSans-6c" x="2722.933594"/>
     <use xlink:href="#DejaVuSans-61" x="2750.716797"/>
     <use xlink:href="#DejaVuSans-6e" x="2811.996094"/>
     <use xlink:href="#DejaVuSans-64" x="2875.375"/>
     <use xlink:href="#DejaVuSans-20" x="2938.851562"/>
     <use xlink:href="#DejaVuSans-66" x="2970.638672"/>
     <use xlink:href="#DejaVuSans-72" x="3005.84375"/>
     <use xlink:href="#DejaVuSans-6f" x="3044.707031"/>
     <use xlink:href="#DejaVuSans-6d" x="3105.888672"/>
     <use xlink:href="#DejaVuSans-20" x="3203.300781"/>
     <use xlink:href="#DejaVuSans-66" x="3235.087891"/>
     <use xlink:href="#DejaVuSans-69" x="3270.292969"/>
     <use xlink:href="#DejaVuSans-72" x="3298.076172"/>
     <use xlink:href="#DejaVuSans-73" x="3339.189453"/>
     <use xlink:href="#DejaVuSans-74" x="3391.289062"/>
     <use xlink:href="#DejaVuSans-20" x="3430.498047"/>
     <use xlink:href="#DejaVuSans-65" x="3462.285156"/>
     <use xlink:href="#DejaVuSans-64" x="3523.808594"/>
     <use xlink:href="#DejaVuSans-69" x="3587.285156"/>
     <use xlink:href="#DejaVuSans-74" x="3615.068359"/>
     <use xlink:href="#DejaVuSans-69" x="3654.277344"/>
     <use xlink:href="#DejaVuSans-6f" x="3682.060547"/>
     <use xlink:href="#DejaVuSans-6e" x="3743.242188"/>
     <use xlink:href="#DejaVuSans-2c" x="3806.621094"/>
     <use xlink:href="#DejaVuSans-20" x="3838.408203"/>
     <use xlink:href="#DejaVuSans-64" x="3870.195312"/>
     <use xlink:href="#DejaVuSans-61" x="3933.671875"/>
     <use xlink:href="#DejaVuSans-79" x="3994.951172"/>
     <use xlink:href="#DejaVuSans-20" x="4054.130859"/>
     <use xlink:href="#DejaVuSans-62" x="4085.917969"/>
     <use xlink:href="#DejaVuSans-79" x="4149.394531"/>
     <use xlink:href="#DejaVuSans-20" x="4208.574219"/>
     <use xlink:href="#DejaVuSans-64" x="4240.361328"/>
     <use xlink:href="#DejaVuSans-61" x="4303.837891"/>
     <use xlink:href="#DejaVuSans-79" x="4365.117188"/>
     <use xlink:href="#DejaVuSans-2e" x="4410.046875"/>
     <use xlink:href="#DejaVuSans-20" x="4441.833984"/>
     <use xlink:href="#DejaVuSans-41" x="4473.621094"/>
     <use xlink:href="#DejaVuSans-73" x="4542.029297"/>
     <use xlink:href="#DejaVuSans-20" x="4594.128906"/>
     <use xlink:href="#DejaVuSans-61" x="4625.916016"/>
     <use xlink:href="#DejaVuSans-74" x="4687.195312"/>
     <use xlink:href="#DejaVuSans-3a" x="4726.404297"/>
     <use xlink:href="#DejaVuSans-20" x="4760.095703"/>
     <use xlink:href="#DejaVuSans-32" x="4791.882812"/>
     <use xlink:href="#DejaVuSans-30" x="4855.505859"/>
     <use xlink:href="#DejaVuSans-32" x="4919.128906"/>
     <use xlink:href="#DejaVuSans-35" x="4982.751953"/>
     <use xlink:href="#DejaVuSans-2d" x="5046.375"/>
     <use xlink:href="#DejaVuSans-30" x="5082.458984"/>
     <use xlink:href="#DejaVuSans-36" x="5146.082031"/>
     <use xlink:href="#DejaVuSans-2d" x="5209.705078"/>
     <use xlink:href="#DejaVuSans-32" x="5245.789062"/>
     <use xlink:href="#DejaVuSans-30" x="5309.412109"/>
    </g>
   </g>
  </g>
 </g>
 <defs>
  <clipPath id="p165f0ff584">
   <rect x="144" y="69.12" width="892.8" height="443.52"/>
  </clipPath>
 </defs>
</svg>
