<?xml version="1.0" encoding="utf-8" standalone="no"?>
<!DOCTYPE svg PUBLIC "-//W3C//DTD SVG 1.1//EN"
  "http://www.w3.org/Graphics/SVG/1.1/DTD/svg11.dtd">
<svg xmlns:xlink="http://www.w3.org/1999/xlink" width="1152pt" height="576pt" viewBox="0 0 1152 576" xmlns="http://www.w3.org/2000/svg" version="1.1">
 <metadata>
  <rdf:RDF xmlns:dc="http://purl.org/dc/elements/1.1/" xmlns:cc="http://creativecommons.org/ns#" xmlns:rdf="http://www.w3.org/1999/02/22-rdf-syntax-ns#">
   <cc:Work>
    <dc:type rdf:resource="http://purl.org/dc/dcmitype/StillImage"/>
    <dc:date>1980-01-01T00:00:00+00:00</dc:date>
    <dc:format>image/svg+xml</dc:format>
    <dc:creator>
     <cc:Agent>
      <dc:title>Matplotlib v3.9.1, https://matplotlib.org/</dc:title>
     </cc:Agent>
    </dc:creator>
   </cc:Work>
  </rdf:RDF>
 </metadata>
 <defs>
  <style type="text/css">*{stroke-linejoin: round; stroke-linecap: butt}</style>
 </defs>
 <g id="figure_1">
  <g id="patch_1">
   <path d="M 0 576 
L 1152 576 
L 1152 0 
L 0 0 
z
" style="fill: #ffffff"/>
  </g>
  <g id="axes_1">
   <g id="patch_2">
    <path d="M 144 512.64 
L 1036.8 512.64 
L 1036.8 69.12 
L 144 69.12 
z
" style="fill: #ffffff"/>
   </g>
   <g id="matplotlib.axis_1">
    <g id="xtick_1">
     <g id="line2d_1">
      <defs>
       <path id="maedfe08444" d="M 0 0 
L 0 3.5 
" style="stroke: #000000; stroke-width: 0.8"/>
      </defs>
      <g>
       <use xlink:href="#maedfe08444" x="176.620696" y="512.64" style="stroke: #000000; stroke-width: 0.8"/>
      </g>
     </g>
     <g id="text_1">
      <!-- 2014 -->
      <g transform="translate(163.895696 527.238438) scale(0.1 -0.1)">
       <defs>
        <path id="DejaVuSans-32" d="M 1228 531 
L 3431 531 
L 3431 0 
L 469 0 
L 469 531 
Q 828 903 1448 1529 
Q 2069 2156 2228 2338 
Q 2531 2678 2651 2914 
Q 2772 3150 2772 3378 
Q 2772 3750 2511 3984 
Q 2250 4219 1831 4219 
Q 1534 4219 1204 4116 
Q 875 4013 500 3803 
L 500 4441 
Q 881 4594 1212 4672 
Q 1544 4750 1819 4750 
Q 2544 4750 2975 4387 
Q 3406 4025 3406 3419 
Q 3406 3131 3298 2873 
Q 3191 2616 2906 2266 
Q 2828 2175 2409 1742 
Q 1991 1309 1228 531 
z
" transform="scale(0.015625)"/>
        <path id="DejaVuSans-30" d="M 2034 4250 
Q 1547 4250 1301 3770 
Q 1056 3291 1056 2328 
Q 1056 1369 1301 889 
Q 1547 409 2034 409 
Q 2525 409 2770 889 
Q 3016 1369 3016 2328 
Q 3016 3291 2770 3770 
Q 2525 4250 2034 4250 
z
M 2034 4750 
Q 2819 4750 3233 4129 
Q 3647 3509 3647 2328 
Q 3647 1150 3233 529 
Q 2819 -91 2034 -91 
Q 1250 -91 836 529 
Q 422 1150 422 2328 
Q 422 3509 836 4129 
Q 1250 4750 2034 4750 
z
" transform="scale(0.015625)"/>
        <path id="DejaVuSans-31" d="M 794 531 
L 1825 531 
L 1825 4091 
L 703 3866 
L 703 4441 
L 1819 4666 
L 2450 4666 
L 2450 531 
L 3481 531 
L 3481 0 
L 794 0 
L 794 531 
z
" transform="scale(0.015625)"/>
        <path id="DejaVuSans-34" d="M 2419 4116 
L 825 1625 
L 2419 1625 
L 2419 4116 
z
M 2253 4666 
L 3047 4666 
L 3047 1625 
L 3713 1625 
L 3713 1100 
L 3047 1100 
L 3047 0 
L 2419 0 
L 2419 1100 
L 313 1100 
L 313 1709 
L 2253 4666 
z
" transform="scale(0.015625)"/>
       </defs>
       <use xlink:href="#DejaVuSans-32"/>
       <use xlink:href="#DejaVuSans-30" x="63.623047"/>
       <use xlink:href="#DejaVuSans-31" x="127.246094"/>
       <use xlink:href="#DejaVuSans-34" x="190.869141"/>
      </g>
     </g>
    </g>
    <g id="xtick_2">
     <g id="line2d_2">
      <g>
       <use xlink:href="#maedfe08444" x="321.911169" y="512.64" style="stroke: #000000; stroke-width: 0.8"/>
      </g>
     </g>
     <g id="text_2">
      <!-- 2016 -->
      <g transform="translate(309.186169 527.238438) scale(0.1 -0.1)">
       <defs>
        <path id="DejaVuSans-36" d="M 2113 2584 
Q 1688 2584 1439 2293 
Q 1191 2003 1191 1497 
Q 1191 994 1439 701 
Q 1688 409 2113 409 
Q 2538 409 2786 701 
Q 3034 994 3034 1497 
Q 3034 2003 2786 2293 
Q 2538 2584 2113 2584 
z
M 3366 4563 
L 3366 3988 
Q 3128 4100 2886 4159 
Q 2644 4219 2406 4219 
Q 1781 4219 1451 3797 
Q 1122 3375 1075 2522 
Q 1259 2794 1537 2939 
Q 1816 3084 2150 3084 
Q 2853 3084 3261 2657 
Q 3669 2231 3669 1497 
Q 3669 778 3244 343 
Q 2819 -91 2113 -91 
Q 1303 -91 875 529 
Q 447 1150 447 2328 
Q 447 3434 972 4092 
Q 1497 4750 2381 4750 
Q 2619 4750 2861 4703 
Q 3103 4656 3366 4563 
z
" transform="scale(0.015625)"/>
       </defs>
       <use xlink:href="#DejaVuSans-32"/>
       <use xlink:href="#DejaVuSans-30" x="63.623047"/>
       <use xlink:href="#DejaVuSans-31" x="127.246094"/>
       <use xlink:href="#DejaVuSans-36" x="190.869141"/>
      </g>
     </g>
    </g>
    <g id="xtick_3">
     <g id="line2d_3">
      <g>
       <use xlink:href="#maedfe08444" x="467.400669" y="512.64" style="stroke: #000000; stroke-width: 0.8"/>
      </g>
     </g>
     <g id="text_3">
      <!-- 2018 -->
      <g transform="translate(454.675669 527.238438) scale(0.1 -0.1)">
       <defs>
        <path id="DejaVuSans-38" d="M 2034 2216 
Q 1584 2216 1326 1975 
Q 1069 1734 1069 1313 
Q 1069 891 1326 650 
Q 1584 409 2034 409 
Q 2484 409 2743 651 
Q 3003 894 3003 1313 
Q 3003 1734 2745 1975 
Q 2488 2216 2034 2216 
z
M 1403 2484 
Q 997 2584 770 2862 
Q 544 3141 544 3541 
Q 544 4100 942 4425 
Q 1341 4750 2034 4750 
Q 2731 4750 3128 4425 
Q 3525 4100 3525 3541 
Q 3525 3141 3298 2862 
Q 3072 2584 2669 2484 
Q 3125 2378 3379 2068 
Q 3634 1759 3634 1313 
Q 3634 634 3220 271 
Q 2806 -91 2034 -91 
Q 1263 -91 848 271 
Q 434 634 434 1313 
Q 434 1759 690 2068 
Q 947 2378 1403 2484 
z
M 1172 3481 
Q 1172 3119 1398 2916 
Q 1625 2713 2034 2713 
Q 2441 2713 2670 2916 
Q 2900 3119 2900 3481 
Q 2900 3844 2670 4047 
Q 2441 4250 2034 4250 
Q 1625 4250 1398 4047 
Q 1172 3844 1172 3481 
z
" transform="scale(0.015625)"/>
       </defs>
       <use xlink:href="#DejaVuSans-32"/>
       <use xlink:href="#DejaVuSans-30" x="63.623047"/>
       <use xlink:href="#DejaVuSans-31" x="127.246094"/>
       <use xlink:href="#DejaVuSans-38" x="190.869141"/>
      </g>
     </g>
    </g>
    <g id="xtick_4">
     <g id="line2d_4">
      <g>
       <use xlink:href="#maedfe08444" x="612.691141" y="512.64" style="stroke: #000000; stroke-width: 0.8"/>
      </g>
     </g>
     <g id="text_4">
      <!-- 2020 -->
      <g transform="translate(599.966141 527.238438) scale(0.1 -0.1)">
       <use xlink:href="#DejaVuSans-32"/>
       <use xlink:href="#DejaVuSans-30" x="63.623047"/>
       <use xlink:href="#DejaVuSans-32" x="127.246094"/>
       <use xlink:href="#DejaVuSans-30" x="190.869141"/>
      </g>
     </g>
    </g>
    <g id="xtick_5">
     <g id="line2d_5">
      <g>
       <use xlink:href="#maedfe08444" x="758.180641" y="512.64" style="stroke: #000000; stroke-width: 0.8"/>
      </g>
     </g>
     <g id="text_5">
      <!-- 2022 -->
      <g transform="translate(745.455641 527.238438) scale(0.1 -0.1)">
       <use xlink:href="#DejaVuSans-32"/>
       <use xlink:href="#DejaVuSans-30" x="63.623047"/>
       <use xlink:href="#DejaVuSans-32" x="127.246094"/>
       <use xlink:href="#DejaVuSans-32" x="190.869141"/>
      </g>
     </g>
    </g>
    <g id="xtick_6">
     <g id="line2d_6">
      <g>
       <use xlink:href="#maedfe08444" x="903.471113" y="512.64" style="stroke: #000000; stroke-width: 0.8"/>
      </g>
     </g>
     <g id="text_6">
      <!-- 2024 -->
      <g transform="translate(890.746113 527.238438) scale(0.1 -0.1)">
       <use xlink:href="#DejaVuSans-32"/>
       <use xlink:href="#DejaVuSans-30" x="63.623047"/>
       <use xlink:href="#DejaVuSans-32" x="127.246094"/>
       <use xlink:href="#DejaVuSans-34" x="190.869141"/>
      </g>
     </g>
    </g>
   </g>
   <g id="matplotlib.axis_2">
    <g id="ytick_1">
     <g id="line2d_7">
      <defs>
       <path id="mcb394c63e2" d="M 0 0 
L -3.5 0 
" style="stroke: #000000; stroke-width: 0.8"/>
      </defs>
      <g>
       <use xlink:href="#mcb394c63e2" x="144" y="492.516608" style="stroke: #000000; stroke-width: 0.8"/>
      </g>
     </g>
     <g id="text_7">
      <!-- 0 -->
      <g transform="translate(130.6375 496.315827) scale(0.1 -0.1)">
       <use xlink:href="#DejaVuSans-30"/>
      </g>
     </g>
    </g>
    <g id="ytick_2">
     <g id="line2d_8">
      <g>
       <use xlink:href="#mcb394c63e2" x="144" y="419.300701" style="stroke: #000000; stroke-width: 0.8"/>
      </g>
     </g>
     <g id="text_8">
      <!-- 2000 -->
      <g transform="translate(111.55 423.09992) scale(0.1 -0.1)">
       <use xlink:href="#DejaVuSans-32"/>
       <use xlink:href="#DejaVuSans-30" x="63.623047"/>
       <use xlink:href="#DejaVuSans-30" x="127.246094"/>
       <use xlink:href="#DejaVuSans-30" x="190.869141"/>
      </g>
     </g>
    </g>
    <g id="ytick_3">
     <g id="line2d_9">
      <g>
       <use xlink:href="#mcb394c63e2" x="144" y="346.084794" style="stroke: #000000; stroke-width: 0.8"/>
      </g>
     </g>
     <g id="text_9">
      <!-- 4000 -->
      <g transform="translate(111.55 349.884013) scale(0.1 -0.1)">
       <use xlink:href="#DejaVuSans-34"/>
       <use xlink:href="#DejaVuSans-30" x="63.623047"/>
       <use xlink:href="#DejaVuSans-30" x="127.246094"/>
       <use xlink:href="#DejaVuSans-30" x="190.869141"/>
      </g>
     </g>
    </g>
    <g id="ytick_4">
     <g id="line2d_10">
      <g>
       <use xlink:href="#mcb394c63e2" x="144" y="272.868887" style="stroke: #000000; stroke-width: 0.8"/>
      </g>
     </g>
     <g id="text_10">
      <!-- 6000 -->
      <g transform="translate(111.55 276.668106) scale(0.1 -0.1)">
       <use xlink:href="#DejaVuSans-36"/>
       <use xlink:href="#DejaVuSans-30" x="63.623047"/>
       <use xlink:href="#DejaVuSans-30" x="127.246094"/>
       <use xlink:href="#DejaVuSans-30" x="190.869141"/>
      </g>
     </g>
    </g>
    <g id="ytick_5">
     <g id="line2d_11">
      <g>
       <use xlink:href="#mcb394c63e2" x="144" y="199.65298" style="stroke: #000000; stroke-width: 0.8"/>
      </g>
     </g>
     <g id="text_11">
      <!-- 8000 -->
      <g transform="translate(111.55 203.452199) scale(0.1 -0.1)">
       <use xlink:href="#DejaVuSans-38"/>
       <use xlink:href="#DejaVuSans-30" x="63.623047"/>
       <use xlink:href="#DejaVuSans-30" x="127.246094"/>
       <use xlink:href="#DejaVuSans-30" x="190.869141"/>
      </g>
     </g>
    </g>
    <g id="ytick_6">
     <g id="line2d_12">
      <g>
       <use xlink:href="#mcb394c63e2" x="144" y="126.437073" style="stroke: #000000; stroke-width: 0.8"/>
      </g>
     </g>
     <g id="text_12">
      <!-- 10000 -->
      <g transform="translate(105.1875 130.236292) scale(0.1 -0.1)">
       <use xlink:href="#DejaVuSans-31"/>
       <use xlink:href="#DejaVuSans-30" x="63.623047"/>
       <use xlink:href="#DejaVuSans-30" x="127.246094"/>
       <use xlink:href="#DejaVuSans-30" x="190.869141"/>
       <use xlink:href="#DejaVuSans-30" x="254.492188"/>
      </g>
     </g>
    </g>
   </g>
   <g id="line2d_13">
    <path d="M 184.581818 492.48 
L 186.373071 492.406784 
L 310.765598 492.187136 
L 456.454126 492.004097 
L 510.589754 491.784449 
L 524.720745 491.674625 
L 558.555513 491.491585 
L 560.147737 491.418369 
L 569.303027 491.308545 
L 612.293085 491.125506 
L 612.890169 491.088898 
L 619.259066 491.015682 
L 619.657122 490.722818 
L 623.836711 490.539778 
L 658.865647 490.393347 
L 662.846208 490.283523 
L 677.176227 490.137091 
L 687.127629 490.063875 
L 701.258621 489.844227 
L 705.040153 489.697796 
L 714.792528 489.478148 
L 717.57892 489.295108 
L 719.370173 489.185284 
L 720.763369 489.002244 
L 728.326435 488.782597 
L 728.525463 488.745989 
L 732.705051 488.599557 
L 739.272977 488.087046 
L 749.622435 487.83079 
L 755.792305 486.000392 
L 756.389389 485.963784 
L 757.185501 485.378057 
L 757.384529 484.462858 
L 757.782585 484.24321 
L 757.981613 484.206603 
L 758.180641 482.961932 
L 759.374809 482.449421 
L 759.772865 481.827086 
L 760.170922 481.57083 
L 760.36995 480.985103 
L 760.568978 479.484177 
L 760.768006 479.118097 
L 760.967034 478.34933 
L 761.166062 477.10466 
L 761.36509 474.981398 
L 761.763146 473.33404 
L 761.962174 473.041177 
L 762.161202 468.135711 
L 762.36023 466.158881 
L 762.559258 465.390114 
L 762.758286 461.729319 
L 763.35537 457.59262 
L 763.554398 457.446188 
L 763.952454 455.359535 
L 764.151482 454.663984 
L 764.35051 449.319223 
L 764.549539 448.843319 
L 764.947595 447.04953 
L 765.146623 446.939706 
L 765.345651 446.024507 
L 765.544679 442.180672 
L 765.743707 441.228865 
L 765.942735 441.155649 
L 766.141763 438.263621 
L 766.340791 437.677894 
L 766.738847 437.494854 
L 767.534959 434.712649 
L 767.933015 433.943882 
L 768.331071 431.710797 
L 768.530099 430.868814 
L 768.729127 426.732115 
L 769.326212 422.119513 
L 769.923296 421.899866 
L 770.321352 421.64361 
L 771.117464 420.106076 
L 771.51552 419.959644 
L 771.913576 416.701536 
L 772.112604 416.664928 
L 772.51066 416.115809 
L 772.709688 414.541667 
L 772.908716 414.065764 
L 773.107744 413.882724 
L 773.505801 412.857701 
L 774.102885 412.564837 
L 774.301913 412.271974 
L 774.898997 409.929065 
L 775.098025 409.782633 
L 775.496081 409.196906 
L 776.292193 408.794218 
L 776.491221 407.256684 
L 776.690249 407.14686 
L 776.889277 406.853997 
L 777.088305 403.888752 
L 777.486361 403.778929 
L 777.884417 402.936946 
L 778.083446 402.204787 
L 778.68053 402.058355 
L 779.277614 400.923508 
L 779.476642 400.8869 
L 779.874698 400.264565 
L 780.272754 400.118133 
L 780.471782 396.750202 
L 781.66595 396.457338 
L 782.064006 396.164474 
L 782.860119 396.05465 
L 783.059147 395.835003 
L 785.447483 395.102844 
L 786.243595 394.517116 
L 787.238736 394.370685 
L 787.636792 394.077821 
L 788.034848 393.931389 
L 790.025128 393.38227 
L 790.82124 390.270594 
L 791.816381 390.124162 
L 792.015409 390.050946 
L 793.607633 389.867906 
L 794.204717 389.648259 
L 794.403745 389.025923 
L 795.398885 388.952707 
L 795.99597 388.623236 
L 797.98625 387.671429 
L 798.185278 387.415173 
L 798.98139 387.085702 
L 799.97653 386.93927 
L 800.175558 386.683014 
L 800.573615 386.646406 
L 800.772643 385.987463 
L 800.971671 385.914247 
L 801.170699 385.072264 
L 803.559035 384.523145 
L 804.156119 384.376713 
L 804.355147 383.864202 
L 805.748344 383.498122 
L 806.345428 383.278475 
L 807.340568 382.985611 
L 807.539596 382.875787 
L 808.733764 382.656139 
L 809.529876 382.436492 
L 810.923073 381.594509 
L 811.122101 380.86235 
L 812.117241 380.020367 
L 812.316269 379.654287 
L 813.311409 378.775696 
L 813.709465 378.006929 
L 813.908493 377.970321 
L 814.107522 377.238162 
L 815.102662 375.956884 
L 815.699746 375.84706 
L 815.898774 375.517589 
L 816.29683 375.334549 
L 816.495858 374.968469 
L 817.490998 374.675606 
L 817.690026 374.346134 
L 819.083223 374.016662 
L 819.481279 373.833623 
L 819.680307 373.797015 
L 819.879335 373.613975 
L 820.874475 373.467543 
L 822.267671 372.8086 
L 822.864755 372.662168 
L 823.262812 371.820185 
L 823.660868 371.56393 
L 824.656008 370.721947 
L 824.855036 369.879964 
L 825.651148 369.623708 
L 826.845316 369.221021 
L 827.243372 368.598685 
L 827.840457 368.232606 
L 828.039485 368.195998 
L 828.437541 367.610271 
L 829.034625 367.390623 
L 829.432681 367.061151 
L 830.029765 366.768288 
L 830.228793 363.69322 
L 830.626849 360.984231 
L 830.825877 358.67793 
L 831.024905 358.385066 
L 831.821017 355.566254 
L 832.219074 354.834095 
L 832.418102 354.724271 
L 832.61713 354.468015 
L 832.816158 353.955504 
L 833.015186 352.308146 
L 833.214214 351.905459 
L 833.61227 351.759027 
L 834.010326 350.770612 
L 834.209354 350.550964 
L 834.408382 349.818805 
L 834.60741 349.599157 
L 835.005466 348.976822 
L 835.204494 347.988407 
L 835.403522 347.622328 
L 835.801578 346.670521 
L 836.199634 346.084794 
L 836.995747 345.572283 
L 837.194775 345.352635 
L 837.393803 344.144572 
L 837.791859 343.961533 
L 838.189915 343.558845 
L 838.786999 342.716862 
L 838.986027 341.948095 
L 839.185055 341.911487 
L 839.782139 341.179328 
L 840.180195 341.106112 
L 840.379223 340.740033 
L 840.777279 340.483777 
L 840.976307 340.190913 
L 841.77242 337.262277 
L 841.971448 335.761351 
L 842.170476 335.212232 
L 843.165616 334.223817 
L 843.364644 334.150601 
L 843.563672 333.784522 
L 843.961728 332.320203 
L 845.155896 331.66126 
L 845.553952 330.746061 
L 845.752981 330.59963 
L 846.549093 328.98888 
L 847.146177 328.6228 
L 847.942289 328.366544 
L 848.539373 327.01205 
L 849.335485 326.609363 
L 850.131597 325.620948 
L 850.529654 325.547732 
L 850.92771 325.071829 
L 851.524794 324.815573 
L 851.92285 324.742357 
L 852.121878 324.522709 
L 852.320906 323.827158 
L 853.117018 323.570902 
L 853.316046 323.204823 
L 853.515074 323.168215 
L 853.714102 322.472664 
L 854.311186 322.216408 
L 854.908271 322.069976 
L 855.306327 321.667289 
L 856.301467 321.154778 
L 856.699523 320.715482 
L 857.097579 320.459226 
L 857.495635 320.422618 
L 857.694663 319.434204 
L 857.893691 319.177948 
L 858.689803 318.811869 
L 859.286888 318.409181 
L 860.083 318.262749 
L 860.282028 317.237727 
L 860.879112 316.871647 
L 861.07814 316.615391 
L 861.476196 316.578783 
L 862.07328 316.176096 
L 862.471336 316.10288 
L 862.670364 315.773408 
L 863.466476 315.443937 
L 863.665504 315.041249 
L 864.063561 315.004641 
L 864.461617 314.748386 
L 865.058701 314.418914 
L 865.257729 313.869795 
L 866.053841 313.467107 
L 866.252869 313.137636 
L 866.650925 312.917988 
L 866.849953 312.661732 
L 867.447037 312.332261 
L 867.646065 312.002789 
L 867.845093 311.929573 
L 868.243149 311.63671 
L 868.641206 311.45367 
L 868.840234 311.234022 
L 870.034402 310.794727 
L 870.23343 310.355431 
L 870.432458 310.245607 
L 871.427598 309.989352 
L 871.825654 309.65988 
L 872.22371 309.513448 
L 872.820795 309.330409 
L 873.019823 309.000937 
L 873.417879 308.927721 
L 873.616907 308.268778 
L 873.815935 308.122346 
L 874.213991 307.646443 
L 874.413019 306.511596 
L 874.612047 306.43838 
L 875.607187 305.486573 
L 876.403299 304.754414 
L 876.801355 304.571375 
L 877.000383 304.132079 
L 877.199411 304.058863 
L 877.597468 303.619568 
L 877.995524 303.363312 
L 878.592608 303.143664 
L 879.189692 302.448113 
L 879.587748 302.118642 
L 879.985804 301.679346 
L 881.179972 300.690932 
L 882.175113 300.434676 
L 882.772197 299.665909 
L 883.170253 299.226613 
L 883.767337 298.823926 
L 884.563449 298.457846 
L 884.762477 298.274807 
L 885.558589 297.945335 
L 885.956645 297.579255 
L 886.55373 297.359608 
L 887.150814 296.993528 
L 887.747898 296.737273 
L 887.946926 296.554233 
L 890.136234 295.639034 
L 890.335262 295.272954 
L 891.728459 294.687227 
L 892.325543 294.28454 
L 892.524571 294.247932 
L 893.121655 293.73542 
L 893.917767 293.515773 
L 894.116795 293.003261 
L 894.315823 291.319295 
L 894.713879 290.88 
L 894.912907 290.843392 
L 895.310963 290.074625 
L 895.70902 289.525506 
L 896.107076 289.196034 
L 896.505132 288.061188 
L 896.903188 287.695108 
L 897.301244 287.438852 
L 897.6993 287.329029 
L 897.898328 287.036165 
L 898.296384 286.816517 
L 898.69444 286.450438 
L 899.092496 286.267398 
L 899.291524 286.157574 
L 899.490552 285.754887 
L 899.888608 285.608455 
L 900.087637 285.169159 
L 900.684721 284.949512 
L 901.082777 284.363784 
L 901.679861 283.887881 
L 902.077917 283.485193 
L 902.675001 283.37537 
L 902.874029 283.045898 
L 903.471113 282.82625 
L 903.869169 281.2155 
L 904.267225 280.849421 
L 905.461394 280.190478 
L 905.660422 279.60475 
L 906.058478 279.385103 
L 906.257506 278.872591 
L 906.456534 278.762767 
L 906.85459 278.250256 
L 907.252646 277.920784 
L 907.650702 277.737745 
L 908.446814 277.115409 
L 908.645842 277.042194 
L 909.640983 275.980563 
L 909.840011 275.50466 
L 910.039039 275.394836 
L 910.437095 275.32162 
L 910.636123 274.918932 
L 911.034179 274.735893 
L 911.432235 274.516245 
L 911.631263 273.857302 
L 912.427375 273.381398 
L 912.626403 272.722455 
L 913.422515 272.026904 
L 913.621544 271.990296 
L 913.820572 271.587608 
L 914.616684 271.038489 
L 914.815712 270.67241 
L 915.213768 270.525978 
L 915.412796 269.830427 
L 915.810852 269.720603 
L 916.00988 269.391131 
L 916.208908 269.317915 
L 916.407936 268.549148 
L 916.805992 268.439324 
L 917.204048 268.073245 
L 917.602104 267.487518 
L 917.801132 267.341086 
L 918.597245 266.096415 
L 918.796273 266.0232 
L 919.194329 265.583904 
L 919.990441 264.998177 
L 920.587525 264.705313 
L 922.378777 262.8017 
L 922.776834 262.655268 
L 923.17489 262.215972 
L 923.572946 262.069541 
L 923.771974 261.19095 
L 924.369058 260.532007 
L 924.568086 259.799847 
L 924.966142 259.360552 
L 925.16517 258.957865 
L 925.364198 258.921257 
L 926.757394 257.530154 
L 926.956422 257.493546 
L 927.155451 257.164075 
L 928.349619 256.761387 
L 928.946703 255.956012 
L 929.344759 255.260461 
L 929.742815 255.114029 
L 930.140871 254.638126 
L 930.339899 254.38187 
L 930.538927 254.345262 
L 930.737955 253.905967 
L 931.534068 253.356848 
L 932.33018 252.77112 
L 932.529208 252.734512 
L 933.126292 252.148785 
L 934.121432 251.52645 
L 934.32046 251.16037 
L 934.718516 251.087155 
L 935.3156 250.464819 
L 935.514628 250.135348 
L 936.111713 249.842484 
L 936.708797 249.439797 
L 937.106853 249.293365 
L 937.504909 248.854069 
L 938.500049 248.268342 
L 938.699077 248.012086 
L 938.898105 247.975478 
L 939.296161 247.755831 
L 939.495189 247.609399 
L 939.694217 245.925433 
L 940.689358 245.193274 
L 941.48547 243.728956 
L 941.684498 243.582524 
L 941.883526 243.070013 
L 942.281582 242.886973 
L 943.077694 241.605695 
L 943.47575 239.885121 
L 943.674778 239.299393 
L 944.072834 236.517189 
L 944.271862 235.41895 
L 945.267003 234.101064 
L 946.063115 230.733132 
L 946.262143 230.550093 
L 946.461171 230.037581 
L 946.660199 228.243792 
L 946.859227 227.584848 
L 947.058255 227.511632 
L 947.257283 226.66965 
L 947.854367 226.157138 
L 948.252423 224.766036 
L 949.247563 224.180309 
L 949.446591 223.814229 
L 950.441732 223.191894 
L 950.839788 222.752599 
L 951.038816 222.349911 
L 951.237844 221.324888 
L 951.436872 220.922201 
L 951.834928 220.775769 
L 952.232984 220.592729 
L 952.63104 220.299866 
L 953.029096 220.007002 
L 954.024236 219.567707 
L 954.422293 219.238235 
L 954.820349 219.201627 
L 956.213545 217.773917 
L 956.810629 217.261405 
L 957.208685 216.931934 
L 957.407713 216.602462 
L 957.805769 216.492638 
L 958.004797 216.236383 
L 958.402853 216.053343 
L 958.601881 215.174752 
L 959.198966 214.552417 
L 959.597022 214.442593 
L 960.79119 213.380962 
L 960.990218 213.344354 
L 961.985358 212.538979 
L 962.184386 212.502372 
L 962.383414 211.953252 
L 962.582442 211.770212 
L 962.78147 211.184485 
L 963.179527 210.92823 
L 963.776611 209.427303 
L 963.975639 208.695144 
L 964.572723 208.255849 
L 965.169807 207.413866 
L 965.567863 205.986156 
L 965.766891 205.54686 
L 965.965919 204.778093 
L 966.164947 204.704877 
L 966.363975 204.082542 
L 966.762031 203.826287 
L 967.160087 203.313775 
L 967.359115 203.240559 
L 968.354256 201.922673 
L 968.553284 201.849457 
L 968.752312 201.629809 
L 968.95134 201.117298 
L 969.747452 200.787826 
L 969.94648 200.531571 
L 970.145508 200.494963 
L 970.344536 199.689588 
L 970.742592 199.433332 
L 970.94162 198.920821 
L 971.140648 198.774389 
L 971.538704 198.737781 
L 972.732873 197.785974 
L 973.329957 197.310071 
L 973.728013 196.834167 
L 974.126069 196.43148 
L 974.325097 196.028792 
L 974.524125 195.223417 
L 975.718293 194.527866 
L 976.116349 193.466236 
L 976.514405 193.283196 
L 976.713434 192.734077 
L 976.912462 192.624253 
L 977.708574 191.59923 
L 978.703714 190.940287 
L 979.897882 189.695616 
L 980.494966 188.817026 
L 981.490107 186.144645 
L 982.485247 180.616844 
L 982.684275 180.32398 
L 982.883303 179.774861 
L 983.082331 177.724816 
L 983.281359 173.807765 
L 984.077471 167.877276 
L 984.674555 162.495907 
L 985.072611 157.407401 
L 985.470667 156.638634 
L 985.868724 149.975987 
L 986.067752 148.255413 
L 986.465808 140.750783 
L 986.664836 139.72576 
L 986.863864 139.286464 
L 987.062892 135.552453 
L 987.26192 134.673862 
L 987.659976 130.500556 
L 988.058032 119.261914 
L 988.456088 117.54134 
L 988.655116 114.100192 
L 988.854144 113.734113 
L 989.2522 108.133096 
L 989.451228 108.023272 
L 989.650256 107.620585 
L 990.048312 106.26609 
L 990.24734 105.936619 
L 990.446369 105.314284 
L 990.645397 104.142829 
L 991.043453 103.923181 
L 991.242481 103.337454 
L 991.640537 101.433841 
L 992.038593 97.663221 
L 992.237621 96.857846 
L 992.436649 96.78463 
L 992.635677 96.418551 
L 993.630817 93.233659 
L 993.829845 93.087227 
L 994.028873 92.245244 
L 994.426929 91.879165 
L 994.625957 91.732733 
L 994.824986 91.183614 
L 995.223042 90.597886 
L 996.019154 89.46304 
L 996.218182 89.28 
L 996.218182 89.28 
" clip-path="url(#p3b5c8f3986)" style="fill: none; stroke: #1f77b4; stroke-width: 1.5; stroke-linecap: square"/>
   </g>
   <g id="patch_3">
    <path d="M 144 512.64 
L 144 69.12 
" style="fill: none; stroke: #000000; stroke-width: 0.8; stroke-linejoin: miter; stroke-linecap: square"/>
   </g>
   <g id="patch_4">
    <path d="M 1036.8 512.64 
L 1036.8 69.12 
" style="fill: none; stroke: #000000; stroke-width: 0.8; stroke-linejoin: miter; stroke-linecap: square"/>
   </g>
   <g id="patch_5">
    <path d="M 144 512.64 
L 1036.8 512.64 
" style="fill: none; stroke: #000000; stroke-width: 0.8; stroke-linejoin: miter; stroke-linecap: square"/>
   </g>
   <g id="patch_6">
    <path d="M 144 69.12 
L 1036.8 69.12 
" style="fill: none; stroke: #000000; stroke-width: 0.8; stroke-linejoin: miter; stroke-linecap: square"/>
   </g>
   <g id="text_13">
    <!-- Number of AEDs in the OpenStreetMap database in Poland from first edition, day by day. As at: 2025-04-11 -->
    <g transform="translate(144 63.12) scale(0.14 -0.14)">
     <defs>
      <path id="DejaVuSans-4e" d="M 628 4666 
L 1478 4666 
L 3547 763 
L 3547 4666 
L 4159 4666 
L 4159 0 
L 3309 0 
L 1241 3903 
L 1241 0 
L 628 0 
L 628 4666 
z
" transform="scale(0.015625)"/>
      <path id="DejaVuSans-75" d="M 544 1381 
L 544 3500 
L 1119 3500 
L 1119 1403 
Q 1119 906 1312 657 
Q 1506 409 1894 409 
Q 2359 409 2629 706 
Q 2900 1003 2900 1516 
L 2900 3500 
L 3475 3500 
L 3475 0 
L 2900 0 
L 2900 538 
Q 2691 219 2414 64 
Q 2138 -91 1772 -91 
Q 1169 -91 856 284 
Q 544 659 544 1381 
z
M 1991 3584 
L 1991 3584 
z
" transform="scale(0.015625)"/>
      <path id="DejaVuSans-6d" d="M 3328 2828 
Q 3544 3216 3844 3400 
Q 4144 3584 4550 3584 
Q 5097 3584 5394 3201 
Q 5691 2819 5691 2113 
L 5691 0 
L 5113 0 
L 5113 2094 
Q 5113 2597 4934 2840 
Q 4756 3084 4391 3084 
Q 3944 3084 3684 2787 
Q 3425 2491 3425 1978 
L 3425 0 
L 2847 0 
L 2847 2094 
Q 2847 2600 2669 2842 
Q 2491 3084 2119 3084 
Q 1678 3084 1418 2786 
Q 1159 2488 1159 1978 
L 1159 0 
L 581 0 
L 581 3500 
L 1159 3500 
L 1159 2956 
Q 1356 3278 1631 3431 
Q 1906 3584 2284 3584 
Q 2666 3584 2933 3390 
Q 3200 3197 3328 2828 
z
" transform="scale(0.015625)"/>
      <path id="DejaVuSans-62" d="M 3116 1747 
Q 3116 2381 2855 2742 
Q 2594 3103 2138 3103 
Q 1681 3103 1420 2742 
Q 1159 2381 1159 1747 
Q 1159 1113 1420 752 
Q 1681 391 2138 391 
Q 2594 391 2855 752 
Q 3116 1113 3116 1747 
z
M 1159 2969 
Q 1341 3281 1617 3432 
Q 1894 3584 2278 3584 
Q 2916 3584 3314 3078 
Q 3713 2572 3713 1747 
Q 3713 922 3314 415 
Q 2916 -91 2278 -91 
Q 1894 -91 1617 61 
Q 1341 213 1159 525 
L 1159 0 
L 581 0 
L 581 4863 
L 1159 4863 
L 1159 2969 
z
" transform="scale(0.015625)"/>
      <path id="DejaVuSans-65" d="M 3597 1894 
L 3597 1613 
L 953 1613 
Q 991 1019 1311 708 
Q 1631 397 2203 397 
Q 2534 397 2845 478 
Q 3156 559 3463 722 
L 3463 178 
Q 3153 47 2828 -22 
Q 2503 -91 2169 -91 
Q 1331 -91 842 396 
Q 353 884 353 1716 
Q 353 2575 817 3079 
Q 1281 3584 2069 3584 
Q 2775 3584 3186 3129 
Q 3597 2675 3597 1894 
z
M 3022 2063 
Q 3016 2534 2758 2815 
Q 2500 3097 2075 3097 
Q 1594 3097 1305 2825 
Q 1016 2553 972 2059 
L 3022 2063 
z
" transform="scale(0.015625)"/>
      <path id="DejaVuSans-72" d="M 2631 2963 
Q 2534 3019 2420 3045 
Q 2306 3072 2169 3072 
Q 1681 3072 1420 2755 
Q 1159 2438 1159 1844 
L 1159 0 
L 581 0 
L 581 3500 
L 1159 3500 
L 1159 2956 
Q 1341 3275 1631 3429 
Q 1922 3584 2338 3584 
Q 2397 3584 2469 3576 
Q 2541 3569 2628 3553 
L 2631 2963 
z
" transform="scale(0.015625)"/>
      <path id="DejaVuSans-20" transform="scale(0.015625)"/>
      <path id="DejaVuSans-6f" d="M 1959 3097 
Q 1497 3097 1228 2736 
Q 959 2375 959 1747 
Q 959 1119 1226 758 
Q 1494 397 1959 397 
Q 2419 397 2687 759 
Q 2956 1122 2956 1747 
Q 2956 2369 2687 2733 
Q 2419 3097 1959 3097 
z
M 1959 3584 
Q 2709 3584 3137 3096 
Q 3566 2609 3566 1747 
Q 3566 888 3137 398 
Q 2709 -91 1959 -91 
Q 1206 -91 779 398 
Q 353 888 353 1747 
Q 353 2609 779 3096 
Q 1206 3584 1959 3584 
z
" transform="scale(0.015625)"/>
      <path id="DejaVuSans-66" d="M 2375 4863 
L 2375 4384 
L 1825 4384 
Q 1516 4384 1395 4259 
Q 1275 4134 1275 3809 
L 1275 3500 
L 2222 3500 
L 2222 3053 
L 1275 3053 
L 1275 0 
L 697 0 
L 697 3053 
L 147 3053 
L 147 3500 
L 697 3500 
L 697 3744 
Q 697 4328 969 4595 
Q 1241 4863 1831 4863 
L 2375 4863 
z
" transform="scale(0.015625)"/>
      <path id="DejaVuSans-41" d="M 2188 4044 
L 1331 1722 
L 3047 1722 
L 2188 4044 
z
M 1831 4666 
L 2547 4666 
L 4325 0 
L 3669 0 
L 3244 1197 
L 1141 1197 
L 716 0 
L 50 0 
L 1831 4666 
z
" transform="scale(0.015625)"/>
      <path id="DejaVuSans-45" d="M 628 4666 
L 3578 4666 
L 3578 4134 
L 1259 4134 
L 1259 2753 
L 3481 2753 
L 3481 2222 
L 1259 2222 
L 1259 531 
L 3634 531 
L 3634 0 
L 628 0 
L 628 4666 
z
" transform="scale(0.015625)"/>
      <path id="DejaVuSans-44" d="M 1259 4147 
L 1259 519 
L 2022 519 
Q 2988 519 3436 956 
Q 3884 1394 3884 2338 
Q 3884 3275 3436 3711 
Q 2988 4147 2022 4147 
L 1259 4147 
z
M 628 4666 
L 1925 4666 
Q 3281 4666 3915 4102 
Q 4550 3538 4550 2338 
Q 4550 1131 3912 565 
Q 3275 0 1925 0 
L 628 0 
L 628 4666 
z
" transform="scale(0.015625)"/>
      <path id="DejaVuSans-73" d="M 2834 3397 
L 2834 2853 
Q 2591 2978 2328 3040 
Q 2066 3103 1784 3103 
Q 1356 3103 1142 2972 
Q 928 2841 928 2578 
Q 928 2378 1081 2264 
Q 1234 2150 1697 2047 
L 1894 2003 
Q 2506 1872 2764 1633 
Q 3022 1394 3022 966 
Q 3022 478 2636 193 
Q 2250 -91 1575 -91 
Q 1294 -91 989 -36 
Q 684 19 347 128 
L 347 722 
Q 666 556 975 473 
Q 1284 391 1588 391 
Q 1994 391 2212 530 
Q 2431 669 2431 922 
Q 2431 1156 2273 1281 
Q 2116 1406 1581 1522 
L 1381 1569 
Q 847 1681 609 1914 
Q 372 2147 372 2553 
Q 372 3047 722 3315 
Q 1072 3584 1716 3584 
Q 2034 3584 2315 3537 
Q 2597 3491 2834 3397 
z
" transform="scale(0.015625)"/>
      <path id="DejaVuSans-69" d="M 603 3500 
L 1178 3500 
L 1178 0 
L 603 0 
L 603 3500 
z
M 603 4863 
L 1178 4863 
L 1178 4134 
L 603 4134 
L 603 4863 
z
" transform="scale(0.015625)"/>
      <path id="DejaVuSans-6e" d="M 3513 2113 
L 3513 0 
L 2938 0 
L 2938 2094 
Q 2938 2591 2744 2837 
Q 2550 3084 2163 3084 
Q 1697 3084 1428 2787 
Q 1159 2491 1159 1978 
L 1159 0 
L 581 0 
L 581 3500 
L 1159 3500 
L 1159 2956 
Q 1366 3272 1645 3428 
Q 1925 3584 2291 3584 
Q 2894 3584 3203 3211 
Q 3513 2838 3513 2113 
z
" transform="scale(0.015625)"/>
      <path id="DejaVuSans-74" d="M 1172 4494 
L 1172 3500 
L 2356 3500 
L 2356 3053 
L 1172 3053 
L 1172 1153 
Q 1172 725 1289 603 
Q 1406 481 1766 481 
L 2356 481 
L 2356 0 
L 1766 0 
Q 1100 0 847 248 
Q 594 497 594 1153 
L 594 3053 
L 172 3053 
L 172 3500 
L 594 3500 
L 594 4494 
L 1172 4494 
z
" transform="scale(0.015625)"/>
      <path id="DejaVuSans-68" d="M 3513 2113 
L 3513 0 
L 2938 0 
L 2938 2094 
Q 2938 2591 2744 2837 
Q 2550 3084 2163 3084 
Q 1697 3084 1428 2787 
Q 1159 2491 1159 1978 
L 1159 0 
L 581 0 
L 581 4863 
L 1159 4863 
L 1159 2956 
Q 1366 3272 1645 3428 
Q 1925 3584 2291 3584 
Q 2894 3584 3203 3211 
Q 3513 2838 3513 2113 
z
" transform="scale(0.015625)"/>
      <path id="DejaVuSans-4f" d="M 2522 4238 
Q 1834 4238 1429 3725 
Q 1025 3213 1025 2328 
Q 1025 1447 1429 934 
Q 1834 422 2522 422 
Q 3209 422 3611 934 
Q 4013 1447 4013 2328 
Q 4013 3213 3611 3725 
Q 3209 4238 2522 4238 
z
M 2522 4750 
Q 3503 4750 4090 4092 
Q 4678 3434 4678 2328 
Q 4678 1225 4090 567 
Q 3503 -91 2522 -91 
Q 1538 -91 948 565 
Q 359 1222 359 2328 
Q 359 3434 948 4092 
Q 1538 4750 2522 4750 
z
" transform="scale(0.015625)"/>
      <path id="DejaVuSans-70" d="M 1159 525 
L 1159 -1331 
L 581 -1331 
L 581 3500 
L 1159 3500 
L 1159 2969 
Q 1341 3281 1617 3432 
Q 1894 3584 2278 3584 
Q 2916 3584 3314 3078 
Q 3713 2572 3713 1747 
Q 3713 922 3314 415 
Q 2916 -91 2278 -91 
Q 1894 -91 1617 61 
Q 1341 213 1159 525 
z
M 3116 1747 
Q 3116 2381 2855 2742 
Q 2594 3103 2138 3103 
Q 1681 3103 1420 2742 
Q 1159 2381 1159 1747 
Q 1159 1113 1420 752 
Q 1681 391 2138 391 
Q 2594 391 2855 752 
Q 3116 1113 3116 1747 
z
" transform="scale(0.015625)"/>
      <path id="DejaVuSans-53" d="M 3425 4513 
L 3425 3897 
Q 3066 4069 2747 4153 
Q 2428 4238 2131 4238 
Q 1616 4238 1336 4038 
Q 1056 3838 1056 3469 
Q 1056 3159 1242 3001 
Q 1428 2844 1947 2747 
L 2328 2669 
Q 3034 2534 3370 2195 
Q 3706 1856 3706 1288 
Q 3706 609 3251 259 
Q 2797 -91 1919 -91 
Q 1588 -91 1214 -16 
Q 841 59 441 206 
L 441 856 
Q 825 641 1194 531 
Q 1563 422 1919 422 
Q 2459 422 2753 634 
Q 3047 847 3047 1241 
Q 3047 1584 2836 1778 
Q 2625 1972 2144 2069 
L 1759 2144 
Q 1053 2284 737 2584 
Q 422 2884 422 3419 
Q 422 4038 858 4394 
Q 1294 4750 2059 4750 
Q 2388 4750 2728 4690 
Q 3069 4631 3425 4513 
z
" transform="scale(0.015625)"/>
      <path id="DejaVuSans-4d" d="M 628 4666 
L 1569 4666 
L 2759 1491 
L 3956 4666 
L 4897 4666 
L 4897 0 
L 4281 0 
L 4281 4097 
L 3078 897 
L 2444 897 
L 1241 4097 
L 1241 0 
L 628 0 
L 628 4666 
z
" transform="scale(0.015625)"/>
      <path id="DejaVuSans-61" d="M 2194 1759 
Q 1497 1759 1228 1600 
Q 959 1441 959 1056 
Q 959 750 1161 570 
Q 1363 391 1709 391 
Q 2188 391 2477 730 
Q 2766 1069 2766 1631 
L 2766 1759 
L 2194 1759 
z
M 3341 1997 
L 3341 0 
L 2766 0 
L 2766 531 
Q 2569 213 2275 61 
Q 1981 -91 1556 -91 
Q 1019 -91 701 211 
Q 384 513 384 1019 
Q 384 1609 779 1909 
Q 1175 2209 1959 2209 
L 2766 2209 
L 2766 2266 
Q 2766 2663 2505 2880 
Q 2244 3097 1772 3097 
Q 1472 3097 1187 3025 
Q 903 2953 641 2809 
L 641 3341 
Q 956 3463 1253 3523 
Q 1550 3584 1831 3584 
Q 2591 3584 2966 3190 
Q 3341 2797 3341 1997 
z
" transform="scale(0.015625)"/>
      <path id="DejaVuSans-64" d="M 2906 2969 
L 2906 4863 
L 3481 4863 
L 3481 0 
L 2906 0 
L 2906 525 
Q 2725 213 2448 61 
Q 2172 -91 1784 -91 
Q 1150 -91 751 415 
Q 353 922 353 1747 
Q 353 2572 751 3078 
Q 1150 3584 1784 3584 
Q 2172 3584 2448 3432 
Q 2725 3281 2906 2969 
z
M 947 1747 
Q 947 1113 1208 752 
Q 1469 391 1925 391 
Q 2381 391 2643 752 
Q 2906 1113 2906 1747 
Q 2906 2381 2643 2742 
Q 2381 3103 1925 3103 
Q 1469 3103 1208 2742 
Q 947 2381 947 1747 
z
" transform="scale(0.015625)"/>
      <path id="DejaVuSans-50" d="M 1259 4147 
L 1259 2394 
L 2053 2394 
Q 2494 2394 2734 2622 
Q 2975 2850 2975 3272 
Q 2975 3691 2734 3919 
Q 2494 4147 2053 4147 
L 1259 4147 
z
M 628 4666 
L 2053 4666 
Q 2838 4666 3239 4311 
Q 3641 3956 3641 3272 
Q 3641 2581 3239 2228 
Q 2838 1875 2053 1875 
L 1259 1875 
L 1259 0 
L 628 0 
L 628 4666 
z
" transform="scale(0.015625)"/>
      <path id="DejaVuSans-6c" d="M 603 4863 
L 1178 4863 
L 1178 0 
L 603 0 
L 603 4863 
z
" transform="scale(0.015625)"/>
      <path id="DejaVuSans-2c" d="M 750 794 
L 1409 794 
L 1409 256 
L 897 -744 
L 494 -744 
L 750 256 
L 750 794 
z
" transform="scale(0.015625)"/>
      <path id="DejaVuSans-79" d="M 2059 -325 
Q 1816 -950 1584 -1140 
Q 1353 -1331 966 -1331 
L 506 -1331 
L 506 -850 
L 844 -850 
Q 1081 -850 1212 -737 
Q 1344 -625 1503 -206 
L 1606 56 
L 191 3500 
L 800 3500 
L 1894 763 
L 2988 3500 
L 3597 3500 
L 2059 -325 
z
" transform="scale(0.015625)"/>
      <path id="DejaVuSans-2e" d="M 684 794 
L 1344 794 
L 1344 0 
L 684 0 
L 684 794 
z
" transform="scale(0.015625)"/>
      <path id="DejaVuSans-3a" d="M 750 794 
L 1409 794 
L 1409 0 
L 750 0 
L 750 794 
z
M 750 3309 
L 1409 3309 
L 1409 2516 
L 750 2516 
L 750 3309 
z
" transform="scale(0.015625)"/>
      <path id="DejaVuSans-35" d="M 691 4666 
L 3169 4666 
L 3169 4134 
L 1269 4134 
L 1269 2991 
Q 1406 3038 1543 3061 
Q 1681 3084 1819 3084 
Q 2600 3084 3056 2656 
Q 3513 2228 3513 1497 
Q 3513 744 3044 326 
Q 2575 -91 1722 -91 
Q 1428 -91 1123 -41 
Q 819 9 494 109 
L 494 744 
Q 775 591 1075 516 
Q 1375 441 1709 441 
Q 2250 441 2565 725 
Q 2881 1009 2881 1497 
Q 2881 1984 2565 2268 
Q 2250 2553 1709 2553 
Q 1456 2553 1204 2497 
Q 953 2441 691 2322 
L 691 4666 
z
" transform="scale(0.015625)"/>
      <path id="DejaVuSans-2d" d="M 313 2009 
L 1997 2009 
L 1997 1497 
L 313 1497 
L 313 2009 
z
" transform="scale(0.015625)"/>
     </defs>
     <use xlink:href="#DejaVuSans-4e"/>
     <use xlink:href="#DejaVuSans-75" x="74.804688"/>
     <use xlink:href="#DejaVuSans-6d" x="138.183594"/>
     <use xlink:href="#DejaVuSans-62" x="235.595703"/>
     <use xlink:href="#DejaVuSans-65" x="299.072266"/>
     <use xlink:href="#DejaVuSans-72" x="360.595703"/>
     <use xlink:href="#DejaVuSans-20" x="401.708984"/>
     <use xlink:href="#DejaVuSans-6f" x="433.496094"/>
     <use xlink:href="#DejaVuSans-66" x="494.677734"/>
     <use xlink:href="#DejaVuSans-20" x="529.882812"/>
     <use xlink:href="#DejaVuSans-41" x="561.669922"/>
     <use xlink:href="#DejaVuSans-45" x="630.078125"/>
     <use xlink:href="#DejaVuSans-44" x="693.261719"/>
     <use xlink:href="#DejaVuSans-73" x="770.263672"/>
     <use xlink:href="#DejaVuSans-20" x="822.363281"/>
     <use xlink:href="#DejaVuSans-69" x="854.150391"/>
     <use xlink:href="#DejaVuSans-6e" x="881.933594"/>
     <use xlink:href="#DejaVuSans-20" x="945.3125"/>
     <use xlink:href="#DejaVuSans-74" x="977.099609"/>
     <use xlink:href="#DejaVuSans-68" x="1016.308594"/>
     <use xlink:href="#DejaVuSans-65" x="1079.6875"/>
     <use xlink:href="#DejaVuSans-20" x="1141.210938"/>
     <use xlink:href="#DejaVuSans-4f" x="1172.998047"/>
     <use xlink:href="#DejaVuSans-70" x="1251.708984"/>
     <use xlink:href="#DejaVuSans-65" x="1315.185547"/>
     <use xlink:href="#DejaVuSans-6e" x="1376.708984"/>
     <use xlink:href="#DejaVuSans-53" x="1440.087891"/>
     <use xlink:href="#DejaVuSans-74" x="1503.564453"/>
     <use xlink:href="#DejaVuSans-72" x="1542.773438"/>
     <use xlink:href="#DejaVuSans-65" x="1581.636719"/>
     <use xlink:href="#DejaVuSans-65" x="1643.160156"/>
     <use xlink:href="#DejaVuSans-74" x="1704.683594"/>
     <use xlink:href="#DejaVuSans-4d" x="1743.892578"/>
     <use xlink:href="#DejaVuSans-61" x="1830.171875"/>
     <use xlink:href="#DejaVuSans-70" x="1891.451172"/>
     <use xlink:href="#DejaVuSans-20" x="1954.927734"/>
     <use xlink:href="#DejaVuSans-64" x="1986.714844"/>
     <use xlink:href="#DejaVuSans-61" x="2050.191406"/>
     <use xlink:href="#DejaVuSans-74" x="2111.470703"/>
     <use xlink:href="#DejaVuSans-61" x="2150.679688"/>
     <use xlink:href="#DejaVuSans-62" x="2211.958984"/>
     <use xlink:href="#DejaVuSans-61" x="2275.435547"/>
     <use xlink:href="#DejaVuSans-73" x="2336.714844"/>
     <use xlink:href="#DejaVuSans-65" x="2388.814453"/>
     <use xlink:href="#DejaVuSans-20" x="2450.337891"/>
     <use xlink:href="#DejaVuSans-69" x="2482.125"/>
     <use xlink:href="#DejaVuSans-6e" x="2509.908203"/>
     <use xlink:href="#DejaVuSans-20" x="2573.287109"/>
     <use xlink:href="#DejaVuSans-50" x="2605.074219"/>
     <use xlink:href="#DejaVuSans-6f" x="2661.751953"/>
     <use xlink:href="#DejaVuSans-6c" x="2722.933594"/>
     <use xlink:href="#DejaVuSans-61" x="2750.716797"/>
     <use xlink:href="#DejaVuSans-6e" x="2811.996094"/>
     <use xlink:href="#DejaVuSans-64" x="2875.375"/>
     <use xlink:href="#DejaVuSans-20" x="2938.851562"/>
     <use xlink:href="#DejaVuSans-66" x="2970.638672"/>
     <use xlink:href="#DejaVuSans-72" x="3005.84375"/>
     <use xlink:href="#DejaVuSans-6f" x="3044.707031"/>
     <use xlink:href="#DejaVuSans-6d" x="3105.888672"/>
     <use xlink:href="#DejaVuSans-20" x="3203.300781"/>
     <use xlink:href="#DejaVuSans-66" x="3235.087891"/>
     <use xlink:href="#DejaVuSans-69" x="3270.292969"/>
     <use xlink:href="#DejaVuSans-72" x="3298.076172"/>
     <use xlink:href="#DejaVuSans-73" x="3339.189453"/>
     <use xlink:href="#DejaVuSans-74" x="3391.289062"/>
     <use xlink:href="#DejaVuSans-20" x="3430.498047"/>
     <use xlink:href="#DejaVuSans-65" x="3462.285156"/>
     <use xlink:href="#DejaVuSans-64" x="3523.808594"/>
     <use xlink:href="#DejaVuSans-69" x="3587.285156"/>
     <use xlink:href="#DejaVuSans-74" x="3615.068359"/>
     <use xlink:href="#DejaVuSans-69" x="3654.277344"/>
     <use xlink:href="#DejaVuSans-6f" x="3682.060547"/>
     <use xlink:href="#DejaVuSans-6e" x="3743.242188"/>
     <use xlink:href="#DejaVuSans-2c" x="3806.621094"/>
     <use xlink:href="#DejaVuSans-20" x="3838.408203"/>
     <use xlink:href="#DejaVuSans-64" x="3870.195312"/>
     <use xlink:href="#DejaVuSans-61" x="3933.671875"/>
     <use xlink:href="#DejaVuSans-79" x="3994.951172"/>
     <use xlink:href="#DejaVuSans-20" x="4054.130859"/>
     <use xlink:href="#DejaVuSans-62" x="4085.917969"/>
     <use xlink:href="#DejaVuSans-79" x="4149.394531"/>
     <use xlink:href="#DejaVuSans-20" x="4208.574219"/>
     <use xlink:href="#DejaVuSans-64" x="4240.361328"/>
     <use xlink:href="#DejaVuSans-61" x="4303.837891"/>
     <use xlink:href="#DejaVuSans-79" x="4365.117188"/>
     <use xlink:href="#DejaVuSans-2e" x="4410.046875"/>
     <use xlink:href="#DejaVuSans-20" x="4441.833984"/>
     <use xlink:href="#DejaVuSans-41" x="4473.621094"/>
     <use xlink:href="#DejaVuSans-73" x="4542.029297"/>
     <use xlink:href="#DejaVuSans-20" x="4594.128906"/>
     <use xlink:href="#DejaVuSans-61" x="4625.916016"/>
     <use xlink:href="#DejaVuSans-74" x="4687.195312"/>
     <use xlink:href="#DejaVuSans-3a" x="4726.404297"/>
     <use xlink:href="#DejaVuSans-20" x="4760.095703"/>
     <use xlink:href="#DejaVuSans-32" x="4791.882812"/>
     <use xlink:href="#DejaVuSans-30" x="4855.505859"/>
     <use xlink:href="#DejaVuSans-32" x="4919.128906"/>
     <use xlink:href="#DejaVuSans-35" x="4982.751953"/>
     <use xlink:href="#DejaVuSans-2d" x="5046.375"/>
     <use xlink:href="#DejaVuSans-30" x="5082.458984"/>
     <use xlink:href="#DejaVuSans-34" x="5146.082031"/>
     <use xlink:href="#DejaVuSans-2d" x="5209.705078"/>
     <use xlink:href="#DejaVuSans-31" x="5245.789062"/>
     <use xlink:href="#DejaVuSans-31" x="5309.412109"/>
    </g>
   </g>
  </g>
 </g>
 <defs>
  <clipPath id="p3b5c8f3986">
   <rect x="144" y="69.12" width="892.8" height="443.52"/>
  </clipPath>
 </defs>
</svg>
