<?xml version="1.0" encoding="utf-8" standalone="no"?>
<!DOCTYPE svg PUBLIC "-//W3C//DTD SVG 1.1//EN"
  "http://www.w3.org/Graphics/SVG/1.1/DTD/svg11.dtd">
<svg xmlns:xlink="http://www.w3.org/1999/xlink" width="1152pt" height="576pt" viewBox="0 0 1152 576" xmlns="http://www.w3.org/2000/svg" version="1.1">
 <metadata>
  <rdf:RDF xmlns:dc="http://purl.org/dc/elements/1.1/" xmlns:cc="http://creativecommons.org/ns#" xmlns:rdf="http://www.w3.org/1999/02/22-rdf-syntax-ns#">
   <cc:Work>
    <dc:type rdf:resource="http://purl.org/dc/dcmitype/StillImage"/>
    <dc:date>1980-01-01T00:00:00+00:00</dc:date>
    <dc:format>image/svg+xml</dc:format>
    <dc:creator>
     <cc:Agent>
      <dc:title>Matplotlib v3.9.1, https://matplotlib.org/</dc:title>
     </cc:Agent>
    </dc:creator>
   </cc:Work>
  </rdf:RDF>
 </metadata>
 <defs>
  <style type="text/css">*{stroke-linejoin: round; stroke-linecap: butt}</style>
 </defs>
 <g id="figure_1">
  <g id="patch_1">
   <path d="M 0 576 
L 1152 576 
L 1152 0 
L 0 0 
z
" style="fill: #ffffff"/>
  </g>
  <g id="axes_1">
   <g id="patch_2">
    <path d="M 144 512.64 
L 1036.8 512.64 
L 1036.8 69.12 
L 144 69.12 
z
" style="fill: #ffffff"/>
   </g>
   <g id="matplotlib.axis_1">
    <g id="xtick_1">
     <g id="line2d_1">
      <defs>
       <path id="ma44263fce2" d="M 0 0 
L 0 3.5 
" style="stroke: #000000; stroke-width: 0.8"/>
      </defs>
      <g>
       <use xlink:href="#ma44263fce2" x="176.495777" y="512.64" style="stroke: #000000; stroke-width: 0.8"/>
      </g>
     </g>
     <g id="text_1">
      <!-- 2014 -->
      <g transform="translate(163.770777 527.238438) scale(0.1 -0.1)">
       <defs>
        <path id="DejaVuSans-32" d="M 1228 531 
L 3431 531 
L 3431 0 
L 469 0 
L 469 531 
Q 828 903 1448 1529 
Q 2069 2156 2228 2338 
Q 2531 2678 2651 2914 
Q 2772 3150 2772 3378 
Q 2772 3750 2511 3984 
Q 2250 4219 1831 4219 
Q 1534 4219 1204 4116 
Q 875 4013 500 3803 
L 500 4441 
Q 881 4594 1212 4672 
Q 1544 4750 1819 4750 
Q 2544 4750 2975 4387 
Q 3406 4025 3406 3419 
Q 3406 3131 3298 2873 
Q 3191 2616 2906 2266 
Q 2828 2175 2409 1742 
Q 1991 1309 1228 531 
z
" transform="scale(0.015625)"/>
        <path id="DejaVuSans-30" d="M 2034 4250 
Q 1547 4250 1301 3770 
Q 1056 3291 1056 2328 
Q 1056 1369 1301 889 
Q 1547 409 2034 409 
Q 2525 409 2770 889 
Q 3016 1369 3016 2328 
Q 3016 3291 2770 3770 
Q 2525 4250 2034 4250 
z
M 2034 4750 
Q 2819 4750 3233 4129 
Q 3647 3509 3647 2328 
Q 3647 1150 3233 529 
Q 2819 -91 2034 -91 
Q 1250 -91 836 529 
Q 422 1150 422 2328 
Q 422 3509 836 4129 
Q 1250 4750 2034 4750 
z
" transform="scale(0.015625)"/>
        <path id="DejaVuSans-31" d="M 794 531 
L 1825 531 
L 1825 4091 
L 703 3866 
L 703 4441 
L 1819 4666 
L 2450 4666 
L 2450 531 
L 3481 531 
L 3481 0 
L 794 0 
L 794 531 
z
" transform="scale(0.015625)"/>
        <path id="DejaVuSans-34" d="M 2419 4116 
L 825 1625 
L 2419 1625 
L 2419 4116 
z
M 2253 4666 
L 3047 4666 
L 3047 1625 
L 3713 1625 
L 3713 1100 
L 3047 1100 
L 3047 0 
L 2419 0 
L 2419 1100 
L 313 1100 
L 313 1709 
L 2253 4666 
z
" transform="scale(0.015625)"/>
       </defs>
       <use xlink:href="#DejaVuSans-32"/>
       <use xlink:href="#DejaVuSans-30" x="63.623047"/>
       <use xlink:href="#DejaVuSans-31" x="127.246094"/>
       <use xlink:href="#DejaVuSans-34" x="190.869141"/>
      </g>
     </g>
    </g>
    <g id="xtick_2">
     <g id="line2d_2">
      <g>
       <use xlink:href="#ma44263fce2" x="324.066025" y="512.64" style="stroke: #000000; stroke-width: 0.8"/>
      </g>
     </g>
     <g id="text_2">
      <!-- 2016 -->
      <g transform="translate(311.341025 527.238438) scale(0.1 -0.1)">
       <defs>
        <path id="DejaVuSans-36" d="M 2113 2584 
Q 1688 2584 1439 2293 
Q 1191 2003 1191 1497 
Q 1191 994 1439 701 
Q 1688 409 2113 409 
Q 2538 409 2786 701 
Q 3034 994 3034 1497 
Q 3034 2003 2786 2293 
Q 2538 2584 2113 2584 
z
M 3366 4563 
L 3366 3988 
Q 3128 4100 2886 4159 
Q 2644 4219 2406 4219 
Q 1781 4219 1451 3797 
Q 1122 3375 1075 2522 
Q 1259 2794 1537 2939 
Q 1816 3084 2150 3084 
Q 2853 3084 3261 2657 
Q 3669 2231 3669 1497 
Q 3669 778 3244 343 
Q 2819 -91 2113 -91 
Q 1303 -91 875 529 
Q 447 1150 447 2328 
Q 447 3434 972 4092 
Q 1497 4750 2381 4750 
Q 2619 4750 2861 4703 
Q 3103 4656 3366 4563 
z
" transform="scale(0.015625)"/>
       </defs>
       <use xlink:href="#DejaVuSans-32"/>
       <use xlink:href="#DejaVuSans-30" x="63.623047"/>
       <use xlink:href="#DejaVuSans-31" x="127.246094"/>
       <use xlink:href="#DejaVuSans-36" x="190.869141"/>
      </g>
     </g>
    </g>
    <g id="xtick_3">
     <g id="line2d_3">
      <g>
       <use xlink:href="#ma44263fce2" x="471.838424" y="512.64" style="stroke: #000000; stroke-width: 0.8"/>
      </g>
     </g>
     <g id="text_3">
      <!-- 2018 -->
      <g transform="translate(459.113424 527.238438) scale(0.1 -0.1)">
       <defs>
        <path id="DejaVuSans-38" d="M 2034 2216 
Q 1584 2216 1326 1975 
Q 1069 1734 1069 1313 
Q 1069 891 1326 650 
Q 1584 409 2034 409 
Q 2484 409 2743 651 
Q 3003 894 3003 1313 
Q 3003 1734 2745 1975 
Q 2488 2216 2034 2216 
z
M 1403 2484 
Q 997 2584 770 2862 
Q 544 3141 544 3541 
Q 544 4100 942 4425 
Q 1341 4750 2034 4750 
Q 2731 4750 3128 4425 
Q 3525 4100 3525 3541 
Q 3525 3141 3298 2862 
Q 3072 2584 2669 2484 
Q 3125 2378 3379 2068 
Q 3634 1759 3634 1313 
Q 3634 634 3220 271 
Q 2806 -91 2034 -91 
Q 1263 -91 848 271 
Q 434 634 434 1313 
Q 434 1759 690 2068 
Q 947 2378 1403 2484 
z
M 1172 3481 
Q 1172 3119 1398 2916 
Q 1625 2713 2034 2713 
Q 2441 2713 2670 2916 
Q 2900 3119 2900 3481 
Q 2900 3844 2670 4047 
Q 2441 4250 2034 4250 
Q 1625 4250 1398 4047 
Q 1172 3844 1172 3481 
z
" transform="scale(0.015625)"/>
       </defs>
       <use xlink:href="#DejaVuSans-32"/>
       <use xlink:href="#DejaVuSans-30" x="63.623047"/>
       <use xlink:href="#DejaVuSans-31" x="127.246094"/>
       <use xlink:href="#DejaVuSans-38" x="190.869141"/>
      </g>
     </g>
    </g>
    <g id="xtick_4">
     <g id="line2d_4">
      <g>
       <use xlink:href="#ma44263fce2" x="619.408672" y="512.64" style="stroke: #000000; stroke-width: 0.8"/>
      </g>
     </g>
     <g id="text_4">
      <!-- 2020 -->
      <g transform="translate(606.683672 527.238438) scale(0.1 -0.1)">
       <use xlink:href="#DejaVuSans-32"/>
       <use xlink:href="#DejaVuSans-30" x="63.623047"/>
       <use xlink:href="#DejaVuSans-32" x="127.246094"/>
       <use xlink:href="#DejaVuSans-30" x="190.869141"/>
      </g>
     </g>
    </g>
    <g id="xtick_5">
     <g id="line2d_5">
      <g>
       <use xlink:href="#ma44263fce2" x="767.181071" y="512.64" style="stroke: #000000; stroke-width: 0.8"/>
      </g>
     </g>
     <g id="text_5">
      <!-- 2022 -->
      <g transform="translate(754.456071 527.238438) scale(0.1 -0.1)">
       <use xlink:href="#DejaVuSans-32"/>
       <use xlink:href="#DejaVuSans-30" x="63.623047"/>
       <use xlink:href="#DejaVuSans-32" x="127.246094"/>
       <use xlink:href="#DejaVuSans-32" x="190.869141"/>
      </g>
     </g>
    </g>
    <g id="xtick_6">
     <g id="line2d_6">
      <g>
       <use xlink:href="#ma44263fce2" x="914.751319" y="512.64" style="stroke: #000000; stroke-width: 0.8"/>
      </g>
     </g>
     <g id="text_6">
      <!-- 2024 -->
      <g transform="translate(902.026319 527.238438) scale(0.1 -0.1)">
       <use xlink:href="#DejaVuSans-32"/>
       <use xlink:href="#DejaVuSans-30" x="63.623047"/>
       <use xlink:href="#DejaVuSans-32" x="127.246094"/>
       <use xlink:href="#DejaVuSans-34" x="190.869141"/>
      </g>
     </g>
    </g>
   </g>
   <g id="matplotlib.axis_2">
    <g id="ytick_1">
     <g id="line2d_7">
      <defs>
       <path id="m00e9dec2da" d="M 0 0 
L -3.5 0 
" style="stroke: #000000; stroke-width: 0.8"/>
      </defs>
      <g>
       <use xlink:href="#m00e9dec2da" x="144" y="492.52485" style="stroke: #000000; stroke-width: 0.8"/>
      </g>
     </g>
     <g id="text_7">
      <!-- 0 -->
      <g transform="translate(130.6375 496.324069) scale(0.1 -0.1)">
       <use xlink:href="#DejaVuSans-30"/>
      </g>
     </g>
    </g>
    <g id="ytick_2">
     <g id="line2d_8">
      <g>
       <use xlink:href="#m00e9dec2da" x="144" y="402.825184" style="stroke: #000000; stroke-width: 0.8"/>
      </g>
     </g>
     <g id="text_8">
      <!-- 2000 -->
      <g transform="translate(111.55 406.624402) scale(0.1 -0.1)">
       <use xlink:href="#DejaVuSans-32"/>
       <use xlink:href="#DejaVuSans-30" x="63.623047"/>
       <use xlink:href="#DejaVuSans-30" x="127.246094"/>
       <use xlink:href="#DejaVuSans-30" x="190.869141"/>
      </g>
     </g>
    </g>
    <g id="ytick_3">
     <g id="line2d_9">
      <g>
       <use xlink:href="#m00e9dec2da" x="144" y="313.125517" style="stroke: #000000; stroke-width: 0.8"/>
      </g>
     </g>
     <g id="text_9">
      <!-- 4000 -->
      <g transform="translate(111.55 316.924736) scale(0.1 -0.1)">
       <use xlink:href="#DejaVuSans-34"/>
       <use xlink:href="#DejaVuSans-30" x="63.623047"/>
       <use xlink:href="#DejaVuSans-30" x="127.246094"/>
       <use xlink:href="#DejaVuSans-30" x="190.869141"/>
      </g>
     </g>
    </g>
    <g id="ytick_4">
     <g id="line2d_10">
      <g>
       <use xlink:href="#m00e9dec2da" x="144" y="223.425851" style="stroke: #000000; stroke-width: 0.8"/>
      </g>
     </g>
     <g id="text_10">
      <!-- 6000 -->
      <g transform="translate(111.55 227.22507) scale(0.1 -0.1)">
       <use xlink:href="#DejaVuSans-36"/>
       <use xlink:href="#DejaVuSans-30" x="63.623047"/>
       <use xlink:href="#DejaVuSans-30" x="127.246094"/>
       <use xlink:href="#DejaVuSans-30" x="190.869141"/>
      </g>
     </g>
    </g>
    <g id="ytick_5">
     <g id="line2d_11">
      <g>
       <use xlink:href="#m00e9dec2da" x="144" y="133.726185" style="stroke: #000000; stroke-width: 0.8"/>
      </g>
     </g>
     <g id="text_11">
      <!-- 8000 -->
      <g transform="translate(111.55 137.525403) scale(0.1 -0.1)">
       <use xlink:href="#DejaVuSans-38"/>
       <use xlink:href="#DejaVuSans-30" x="63.623047"/>
       <use xlink:href="#DejaVuSans-30" x="127.246094"/>
       <use xlink:href="#DejaVuSans-30" x="190.869141"/>
      </g>
     </g>
    </g>
   </g>
   <g id="line2d_12">
    <path d="M 184.581818 492.48 
L 186.401177 492.3903 
L 400.07481 491.986652 
L 452.836228 491.852102 
L 478.307257 491.762403 
L 510.044968 491.627853 
L 530.057919 491.403604 
L 564.423593 491.179355 
L 566.040802 491.089655 
L 575.339749 490.955106 
L 602.023684 490.775706 
L 604.045194 490.730857 
L 625.473203 490.596307 
L 626.079656 490.551457 
L 626.483958 490.192659 
L 630.729129 489.968409 
L 665.701257 489.83386 
L 668.127069 489.69931 
L 670.35073 489.654461 
L 682.479792 489.564761 
L 686.927114 489.385362 
L 702.897045 489.205962 
L 709.365878 489.026563 
L 713.206747 488.847164 
L 722.303544 488.622914 
L 727.761621 488.219266 
L 729.176678 487.995017 
L 735.039058 487.815617 
L 741.30574 487.501669 
L 747.976724 486.873771 
L 752.626197 486.694372 
L 758.488577 486.559822 
L 763.340202 484.631279 
L 763.542353 484.45188 
L 765.361712 484.227631 
L 765.968165 483.554883 
L 766.170316 483.510033 
L 766.372467 482.388788 
L 766.574618 482.164538 
L 766.97892 482.074839 
L 767.181071 480.549944 
L 768.393977 479.832347 
L 768.798279 479.0699 
L 769.00043 478.9802 
L 769.202581 478.755951 
L 769.404732 478.038354 
L 769.606883 476.199511 
L 769.809034 475.706162 
L 770.011185 474.764316 
L 770.213336 473.239422 
L 770.415487 470.638131 
L 770.819789 468.619889 
L 771.02194 468.26109 
L 771.224091 462.251212 
L 771.426242 459.739622 
L 771.628394 458.797775 
L 771.830545 454.267942 
L 772.436998 449.155061 
L 772.639149 448.975662 
L 773.043451 446.419221 
L 773.245602 445.477375 
L 773.447753 438.884449 
L 773.649904 438.301402 
L 774.054206 436.10376 
L 774.256357 435.96921 
L 774.458508 434.847964 
L 774.660659 430.138732 
L 774.86281 428.972636 
L 775.064961 428.838087 
L 775.267112 425.2501 
L 775.469263 424.532503 
L 775.873565 424.308254 
L 776.682169 420.899666 
L 777.086471 419.95782 
L 777.490773 417.22198 
L 777.692924 416.190434 
L 777.895075 410.987853 
L 778.501528 405.202225 
L 778.703679 405.157375 
L 779.512283 404.619177 
L 780.320888 402.690634 
L 780.72519 402.511235 
L 781.129492 398.4299 
L 781.331643 398.38505 
L 781.735945 397.712303 
L 781.938096 395.69406 
L 782.140247 395.066162 
L 782.342398 394.841913 
L 782.7467 393.586118 
L 783.151002 393.406719 
L 783.353153 393.182469 
L 783.555304 392.778821 
L 784.161757 389.863582 
L 784.363908 389.684182 
L 784.76821 388.966585 
L 785.172512 388.742336 
L 785.576814 388.473237 
L 785.778965 386.544694 
L 785.981116 386.410145 
L 786.183267 386.051346 
L 786.385418 382.23911 
L 786.78972 382.104561 
L 787.194022 381.073014 
L 787.396173 380.176018 
L 788.002627 379.996618 
L 788.60908 378.606274 
L 788.811231 378.561424 
L 789.215533 377.798977 
L 789.619835 377.619577 
L 789.821986 373.493393 
L 790.63059 373.224294 
L 791.237043 372.865495 
L 791.439194 372.730945 
L 792.247798 372.596396 
L 792.449949 372.282447 
L 794.875761 371.385451 
L 795.684365 370.667853 
L 796.695121 370.488454 
L 797.099423 370.129655 
L 797.503725 369.950256 
L 798.918782 369.546607 
L 799.120933 369.367208 
L 799.525235 369.187809 
L 800.333839 365.151324 
L 801.344594 364.971924 
L 801.748896 364.657976 
L 803.163953 364.433726 
L 803.568255 364.254327 
L 803.770406 364.164627 
L 803.972557 363.40218 
L 804.983313 363.312481 
L 805.589766 362.908832 
L 806.196219 362.639733 
L 806.39837 362.594883 
L 806.600521 362.370634 
L 806.802672 362.325784 
L 807.206974 361.832436 
L 807.611276 361.653037 
L 807.813427 361.339088 
L 808.41988 361.025139 
L 808.622031 360.935439 
L 809.632786 360.75604 
L 809.834937 360.442091 
L 810.239239 360.397241 
L 810.44139 359.589944 
L 810.643541 359.500245 
L 810.845692 358.468699 
L 813.069354 357.930501 
L 813.271505 357.795951 
L 813.877958 357.616552 
L 814.080109 356.988654 
L 815.293015 356.629855 
L 817.314525 355.777709 
L 818.32528 355.643159 
L 818.729582 355.46376 
L 819.336035 355.239511 
L 820.751092 354.207964 
L 820.953244 353.266118 
L 821.761848 352.503671 
L 822.570452 351.337575 
L 823.176905 350.664828 
L 823.581207 349.678131 
L 823.783358 349.633281 
L 823.985509 348.736285 
L 824.996264 347.121691 
L 825.602717 346.987141 
L 825.804868 346.583493 
L 826.20917 346.359244 
L 826.411321 345.910745 
L 827.017774 345.551947 
L 827.422076 345.507097 
L 827.624227 345.103448 
L 828.837133 344.789499 
L 829.443587 344.385851 
L 829.645738 344.341001 
L 829.847889 344.116752 
L 830.252191 344.071902 
L 830.454342 343.937353 
L 830.858644 343.892503 
L 831.667248 343.309455 
L 831.869399 343.085206 
L 832.273701 342.905806 
L 832.880154 342.726407 
L 833.284456 341.650011 
L 833.486607 341.560311 
L 834.497362 340.349366 
L 834.699513 340.259666 
L 834.901664 339.22812 
L 835.508117 339.048721 
L 836.518872 338.465673 
L 836.923174 338.420823 
L 837.327477 337.658376 
L 837.93393 337.209878 
L 838.136081 337.165028 
L 838.540383 336.44743 
L 839.146836 336.178331 
L 839.551138 335.774683 
L 840.157591 335.415884 
L 840.359742 331.603648 
L 840.764044 328.284761 
L 840.966195 325.459221 
L 841.168346 325.100423 
L 841.774799 322.050634 
L 842.381252 320.57059 
L 842.583403 320.43604 
L 842.785554 320.122091 
L 842.987705 319.494194 
L 843.189856 317.341402 
L 843.392007 316.848053 
L 843.796309 316.668654 
L 844.200611 315.457709 
L 844.402762 315.18861 
L 844.604913 314.291613 
L 844.807064 314.022514 
L 845.211366 313.260067 
L 845.413517 312.049121 
L 845.615669 311.600623 
L 846.019971 310.434527 
L 846.424273 309.71693 
L 847.232877 309.089032 
L 847.435028 308.819933 
L 847.637179 307.339889 
L 848.041481 307.11564 
L 848.445783 306.622291 
L 849.052236 305.590745 
L 849.254387 304.648899 
L 849.456538 304.604049 
L 850.062991 303.707052 
L 850.467293 303.572503 
L 850.669444 303.124004 
L 850.871595 303.034305 
L 851.275897 302.406407 
L 852.084501 298.728721 
L 852.286652 296.889878 
L 852.488803 296.21713 
L 853.499558 295.006185 
L 853.701709 294.916485 
L 853.903861 294.467987 
L 854.308163 292.673993 
L 855.116767 292.090945 
L 855.521069 291.687297 
L 855.925371 290.566051 
L 856.127522 290.296952 
L 856.936126 288.32356 
L 857.542579 287.830211 
L 857.74473 287.785362 
L 858.351183 287.516263 
L 858.957636 285.811969 
L 859.564089 285.49802 
L 859.968391 284.959822 
L 860.574844 284.017976 
L 860.979146 283.928276 
L 861.383448 283.300378 
L 861.989902 282.986429 
L 862.394204 282.89673 
L 862.596355 282.627631 
L 862.798506 281.775484 
L 863.60711 281.461535 
L 863.809261 281.013037 
L 864.011412 280.968187 
L 864.213563 280.11604 
L 864.820016 279.802091 
L 865.426469 279.622692 
L 865.830771 279.129344 
L 866.841526 278.501446 
L 867.245828 277.963248 
L 867.65013 277.649299 
L 868.054432 277.604449 
L 868.256583 276.303804 
L 868.660885 275.855306 
L 869.267338 275.496507 
L 869.469489 275.272258 
L 869.67164 275.227408 
L 869.873791 274.958309 
L 870.682396 274.68921 
L 870.884547 273.433415 
L 871.491 272.940067 
L 871.693151 272.626118 
L 872.097453 272.581268 
L 872.299604 272.357019 
L 872.501755 272.312169 
L 872.703906 272.08792 
L 873.108208 271.99822 
L 873.310359 271.594572 
L 873.916812 271.280623 
L 874.118963 271.190923 
L 874.321114 270.697575 
L 874.725416 270.652725 
L 875.129718 270.293927 
L 875.736171 269.890278 
L 875.938322 269.172681 
L 876.746926 268.634483 
L 876.949077 268.230834 
L 877.353379 267.961735 
L 877.55553 267.647786 
L 878.161983 267.244138 
L 878.364134 266.840489 
L 878.566286 266.75079 
L 878.970588 266.391991 
L 879.172739 266.347141 
L 880.183494 265.584694 
L 880.587796 265.539844 
L 880.789947 265.360445 
L 880.992098 264.822247 
L 881.194249 264.687697 
L 882.205004 264.373749 
L 882.609306 263.9701 
L 883.013608 263.790701 
L 883.620061 263.566452 
L 883.822212 263.162803 
L 884.226514 263.073103 
L 884.428665 262.265806 
L 884.630816 262.086407 
L 885.035118 261.503359 
L 885.237269 260.113014 
L 885.43942 260.023315 
L 886.450175 258.857219 
L 887.25878 257.915373 
L 887.663082 257.691123 
L 887.865233 257.152925 
L 888.067384 257.063226 
L 888.471686 256.480178 
L 888.875988 256.166229 
L 889.482441 255.89713 
L 889.886743 255.224383 
L 891.099649 253.789188 
L 891.503951 253.25099 
L 891.706102 253.026741 
L 892.312555 252.712792 
L 892.716857 252.667942 
L 893.121159 252.443693 
L 894.334065 250.694549 
L 894.536216 250.60485 
L 894.940519 250.290901 
L 895.14267 250.246051 
L 895.749123 249.707853 
L 896.557727 249.304205 
L 896.962029 248.810857 
L 897.16418 248.766007 
L 898.579237 247.91386 
L 899.387841 247.330812 
L 900.398596 247.016863 
L 900.802898 246.568365 
L 901.2072 246.344116 
L 901.409351 245.850768 
L 902.217955 245.402269 
L 902.622257 245.22287 
L 903.026559 244.953771 
L 903.430862 244.639822 
L 903.633013 244.594972 
L 904.239466 243.967075 
L 904.845919 243.742825 
L 905.04807 243.518576 
L 905.250221 242.890679 
L 905.452372 240.827586 
L 905.856674 240.289388 
L 906.058825 240.244538 
L 907.06958 238.360845 
L 907.271731 238.181446 
L 907.676033 236.522002 
L 908.080335 236.073504 
L 908.484637 235.714705 
L 908.888939 235.580156 
L 909.09109 235.221357 
L 909.495392 234.952258 
L 909.899694 234.50376 
L 910.101845 234.45891 
L 910.506147 234.144961 
L 910.910449 233.247964 
L 911.1126 233.158265 
L 911.314752 232.620067 
L 911.921205 232.350968 
L 912.325507 231.588521 
L 912.93196 231.005473 
L 913.336262 230.467275 
L 913.942715 230.332725 
L 914.144866 229.929077 
L 914.751319 229.615128 
L 915.155621 227.641735 
L 915.559923 227.193237 
L 916.570678 226.565339 
L 916.772829 226.38594 
L 916.97498 225.668343 
L 917.379282 225.399244 
L 917.581433 224.726496 
L 917.783584 224.591947 
L 918.187886 223.964049 
L 918.592188 223.5604 
L 918.794339 223.470701 
L 919.400792 222.842803 
L 919.602944 222.753103 
L 920.007246 222.394305 
L 920.411548 221.945806 
L 920.613699 221.900957 
L 920.81585 221.631858 
L 921.220152 220.510612 
L 921.422303 220.376062 
L 921.826605 220.286363 
L 922.028756 219.703315 
L 922.230907 219.658465 
L 922.83736 219.209967 
L 923.039511 218.40267 
L 923.848115 217.819622 
L 924.050266 217.012325 
L 924.85887 216.160178 
L 925.061021 216.115328 
L 925.263172 214.949232 
L 926.071776 214.231635 
L 926.273927 213.783137 
L 926.678229 213.603737 
L 926.88038 212.706741 
L 927.284682 212.572191 
L 927.486833 212.123693 
L 927.688984 212.033993 
L 927.891136 211.047297 
L 928.295438 210.912747 
L 928.69974 210.464249 
L 929.104042 209.746652 
L 929.306193 209.567253 
L 929.912646 208.132058 
L 930.72125 207.324761 
L 931.125552 206.965962 
L 932.338458 205.889566 
L 932.74276 205.216819 
L 932.944911 205.127119 
L 933.551364 204.274972 
L 933.753515 203.781624 
L 934.562119 203.153726 
L 934.966421 202.839778 
L 935.168572 202.750078 
L 935.370723 201.673682 
L 935.977176 200.821535 
L 936.179328 199.924538 
L 936.58363 199.38634 
L 936.785781 198.892992 
L 936.987932 198.848142 
L 937.796536 197.682047 
L 939.413744 196.336552 
L 940.020197 196.157152 
L 940.62665 195.125606 
L 941.030952 194.18376 
L 941.435254 194.00436 
L 942.041707 193.017664 
L 942.243858 192.972814 
L 942.446009 192.434616 
L 943.052462 192.075818 
L 943.658915 191.31337 
L 944.669671 190.595773 
L 945.276124 189.833326 
L 945.882577 189.429677 
L 946.084728 188.981179 
L 946.48903 188.891479 
L 946.691181 188.66723 
L 946.893332 188.62238 
L 947.297634 187.725384 
L 947.701936 187.501135 
L 948.712691 186.738687 
L 948.914842 186.604138 
L 949.319144 186.06594 
L 949.723446 185.886541 
L 950.127748 185.662291 
L 950.53205 185.034394 
L 950.734201 184.989544 
L 950.936352 184.765295 
L 951.138503 184.720445 
L 951.340654 184.541046 
L 951.542805 182.343404 
L 952.149258 181.850056 
L 952.351409 181.446407 
L 952.553561 181.401557 
L 953.362165 179.607564 
L 953.564316 179.383315 
L 953.766467 178.755417 
L 954.170769 178.531168 
L 954.979373 176.916574 
L 955.383675 174.763782 
L 955.585826 173.956485 
L 955.990128 170.547898 
L 956.192279 169.157553 
L 957.203034 167.542959 
L 958.011638 163.327075 
L 958.213789 163.057976 
L 958.41594 162.430078 
L 958.618091 160.187586 
L 958.820242 159.335439 
L 959.022393 159.24574 
L 959.224544 158.214194 
L 959.830997 157.586296 
L 960.235299 155.882002 
L 961.246055 155.164405 
L 961.448206 154.715907 
L 962.458961 153.953459 
L 962.863263 153.415261 
L 963.065414 152.921913 
L 963.267565 151.666118 
L 963.469716 151.17277 
L 963.874018 150.948521 
L 964.27832 150.724271 
L 964.682622 150.365473 
L 965.086924 149.961824 
L 966.097679 149.423626 
L 966.501981 149.019978 
L 966.906283 148.975128 
L 967.310585 148.43693 
L 967.512736 148.122981 
L 967.714887 148.033281 
L 968.119189 147.405384 
L 969.332096 146.104739 
L 969.534247 145.65624 
L 969.938549 145.521691 
L 970.1407 145.207742 
L 970.545002 144.983493 
L 970.747153 143.907097 
L 971.353606 143.14465 
L 971.757908 143.0101 
L 972.970814 141.709455 
L 973.172965 141.664605 
L 974.18372 140.677909 
L 974.385871 140.633059 
L 974.588022 139.960311 
L 974.790173 139.736062 
L 974.992324 139.018465 
L 975.396626 138.704516 
L 976.003079 136.820823 
L 976.20523 135.923826 
L 976.407381 135.789277 
L 977.418137 134.354082 
L 977.822439 132.560089 
L 978.02459 132.021891 
L 978.226741 131.080044 
L 978.428892 130.990345 
L 978.631043 130.227898 
L 979.035345 129.869099 
L 979.843949 128.747853 
L 980.248251 128.209655 
L 980.450402 127.581758 
L 981.056855 127.088409 
L 981.259006 126.460512 
L 982.06761 126.056863 
L 982.269761 125.742914 
L 982.471912 125.698065 
L 982.674063 124.666518 
L 983.078365 124.30772 
L 983.280516 123.679822 
L 983.482667 123.500423 
L 983.886969 123.455573 
L 985.099875 122.244627 
L 985.706329 121.66158 
L 986.110631 121.078532 
L 986.514933 120.585184 
L 986.717084 120.046986 
L 986.919235 119.015439 
L 988.132141 118.163293 
L 988.536443 116.817798 
L 988.738594 116.728098 
L 988.940745 116.503849 
L 989.142896 115.831101 
L 989.345047 115.696552 
L 990.153651 114.440756 
L 990.962255 113.812859 
L 991.568708 113.184961 
L 992.377312 112.108565 
L 992.781614 111.211568 
L 993.185916 110.000623 
L 993.388067 108.924227 
L 993.79237 107.98238 
L 993.994521 107.354483 
L 995.005276 100.492458 
L 995.207427 100.08881 
L 995.409578 99.416062 
L 995.611729 96.859622 
L 995.81388 91.97099 
L 996.016031 89.863048 
L 996.218182 89.28 
L 996.218182 89.28 
" clip-path="url(#pc1dc7ee4a2)" style="fill: none; stroke: #1f77b4; stroke-width: 1.5; stroke-linecap: square"/>
   </g>
   <g id="patch_3">
    <path d="M 144 512.64 
L 144 69.12 
" style="fill: none; stroke: #000000; stroke-width: 0.8; stroke-linejoin: miter; stroke-linecap: square"/>
   </g>
   <g id="patch_4">
    <path d="M 1036.8 512.64 
L 1036.8 69.12 
" style="fill: none; stroke: #000000; stroke-width: 0.8; stroke-linejoin: miter; stroke-linecap: square"/>
   </g>
   <g id="patch_5">
    <path d="M 144 512.64 
L 1036.8 512.64 
" style="fill: none; stroke: #000000; stroke-width: 0.8; stroke-linejoin: miter; stroke-linecap: square"/>
   </g>
   <g id="patch_6">
    <path d="M 144 69.12 
L 1036.8 69.12 
" style="fill: none; stroke: #000000; stroke-width: 0.8; stroke-linejoin: miter; stroke-linecap: square"/>
   </g>
   <g id="text_12">
    <!-- Number of AEDs in the OpenStreetMap database in Poland from first edition, day by day. As at: 2025-02-07 -->
    <g transform="translate(144 63.12) scale(0.14 -0.14)">
     <defs>
      <path id="DejaVuSans-4e" d="M 628 4666 
L 1478 4666 
L 3547 763 
L 3547 4666 
L 4159 4666 
L 4159 0 
L 3309 0 
L 1241 3903 
L 1241 0 
L 628 0 
L 628 4666 
z
" transform="scale(0.015625)"/>
      <path id="DejaVuSans-75" d="M 544 1381 
L 544 3500 
L 1119 3500 
L 1119 1403 
Q 1119 906 1312 657 
Q 1506 409 1894 409 
Q 2359 409 2629 706 
Q 2900 1003 2900 1516 
L 2900 3500 
L 3475 3500 
L 3475 0 
L 2900 0 
L 2900 538 
Q 2691 219 2414 64 
Q 2138 -91 1772 -91 
Q 1169 -91 856 284 
Q 544 659 544 1381 
z
M 1991 3584 
L 1991 3584 
z
" transform="scale(0.015625)"/>
      <path id="DejaVuSans-6d" d="M 3328 2828 
Q 3544 3216 3844 3400 
Q 4144 3584 4550 3584 
Q 5097 3584 5394 3201 
Q 5691 2819 5691 2113 
L 5691 0 
L 5113 0 
L 5113 2094 
Q 5113 2597 4934 2840 
Q 4756 3084 4391 3084 
Q 3944 3084 3684 2787 
Q 3425 2491 3425 1978 
L 3425 0 
L 2847 0 
L 2847 2094 
Q 2847 2600 2669 2842 
Q 2491 3084 2119 3084 
Q 1678 3084 1418 2786 
Q 1159 2488 1159 1978 
L 1159 0 
L 581 0 
L 581 3500 
L 1159 3500 
L 1159 2956 
Q 1356 3278 1631 3431 
Q 1906 3584 2284 3584 
Q 2666 3584 2933 3390 
Q 3200 3197 3328 2828 
z
" transform="scale(0.015625)"/>
      <path id="DejaVuSans-62" d="M 3116 1747 
Q 3116 2381 2855 2742 
Q 2594 3103 2138 3103 
Q 1681 3103 1420 2742 
Q 1159 2381 1159 1747 
Q 1159 1113 1420 752 
Q 1681 391 2138 391 
Q 2594 391 2855 752 
Q 3116 1113 3116 1747 
z
M 1159 2969 
Q 1341 3281 1617 3432 
Q 1894 3584 2278 3584 
Q 2916 3584 3314 3078 
Q 3713 2572 3713 1747 
Q 3713 922 3314 415 
Q 2916 -91 2278 -91 
Q 1894 -91 1617 61 
Q 1341 213 1159 525 
L 1159 0 
L 581 0 
L 581 4863 
L 1159 4863 
L 1159 2969 
z
" transform="scale(0.015625)"/>
      <path id="DejaVuSans-65" d="M 3597 1894 
L 3597 1613 
L 953 1613 
Q 991 1019 1311 708 
Q 1631 397 2203 397 
Q 2534 397 2845 478 
Q 3156 559 3463 722 
L 3463 178 
Q 3153 47 2828 -22 
Q 2503 -91 2169 -91 
Q 1331 -91 842 396 
Q 353 884 353 1716 
Q 353 2575 817 3079 
Q 1281 3584 2069 3584 
Q 2775 3584 3186 3129 
Q 3597 2675 3597 1894 
z
M 3022 2063 
Q 3016 2534 2758 2815 
Q 2500 3097 2075 3097 
Q 1594 3097 1305 2825 
Q 1016 2553 972 2059 
L 3022 2063 
z
" transform="scale(0.015625)"/>
      <path id="DejaVuSans-72" d="M 2631 2963 
Q 2534 3019 2420 3045 
Q 2306 3072 2169 3072 
Q 1681 3072 1420 2755 
Q 1159 2438 1159 1844 
L 1159 0 
L 581 0 
L 581 3500 
L 1159 3500 
L 1159 2956 
Q 1341 3275 1631 3429 
Q 1922 3584 2338 3584 
Q 2397 3584 2469 3576 
Q 2541 3569 2628 3553 
L 2631 2963 
z
" transform="scale(0.015625)"/>
      <path id="DejaVuSans-20" transform="scale(0.015625)"/>
      <path id="DejaVuSans-6f" d="M 1959 3097 
Q 1497 3097 1228 2736 
Q 959 2375 959 1747 
Q 959 1119 1226 758 
Q 1494 397 1959 397 
Q 2419 397 2687 759 
Q 2956 1122 2956 1747 
Q 2956 2369 2687 2733 
Q 2419 3097 1959 3097 
z
M 1959 3584 
Q 2709 3584 3137 3096 
Q 3566 2609 3566 1747 
Q 3566 888 3137 398 
Q 2709 -91 1959 -91 
Q 1206 -91 779 398 
Q 353 888 353 1747 
Q 353 2609 779 3096 
Q 1206 3584 1959 3584 
z
" transform="scale(0.015625)"/>
      <path id="DejaVuSans-66" d="M 2375 4863 
L 2375 4384 
L 1825 4384 
Q 1516 4384 1395 4259 
Q 1275 4134 1275 3809 
L 1275 3500 
L 2222 3500 
L 2222 3053 
L 1275 3053 
L 1275 0 
L 697 0 
L 697 3053 
L 147 3053 
L 147 3500 
L 697 3500 
L 697 3744 
Q 697 4328 969 4595 
Q 1241 4863 1831 4863 
L 2375 4863 
z
" transform="scale(0.015625)"/>
      <path id="DejaVuSans-41" d="M 2188 4044 
L 1331 1722 
L 3047 1722 
L 2188 4044 
z
M 1831 4666 
L 2547 4666 
L 4325 0 
L 3669 0 
L 3244 1197 
L 1141 1197 
L 716 0 
L 50 0 
L 1831 4666 
z
" transform="scale(0.015625)"/>
      <path id="DejaVuSans-45" d="M 628 4666 
L 3578 4666 
L 3578 4134 
L 1259 4134 
L 1259 2753 
L 3481 2753 
L 3481 2222 
L 1259 2222 
L 1259 531 
L 3634 531 
L 3634 0 
L 628 0 
L 628 4666 
z
" transform="scale(0.015625)"/>
      <path id="DejaVuSans-44" d="M 1259 4147 
L 1259 519 
L 2022 519 
Q 2988 519 3436 956 
Q 3884 1394 3884 2338 
Q 3884 3275 3436 3711 
Q 2988 4147 2022 4147 
L 1259 4147 
z
M 628 4666 
L 1925 4666 
Q 3281 4666 3915 4102 
Q 4550 3538 4550 2338 
Q 4550 1131 3912 565 
Q 3275 0 1925 0 
L 628 0 
L 628 4666 
z
" transform="scale(0.015625)"/>
      <path id="DejaVuSans-73" d="M 2834 3397 
L 2834 2853 
Q 2591 2978 2328 3040 
Q 2066 3103 1784 3103 
Q 1356 3103 1142 2972 
Q 928 2841 928 2578 
Q 928 2378 1081 2264 
Q 1234 2150 1697 2047 
L 1894 2003 
Q 2506 1872 2764 1633 
Q 3022 1394 3022 966 
Q 3022 478 2636 193 
Q 2250 -91 1575 -91 
Q 1294 -91 989 -36 
Q 684 19 347 128 
L 347 722 
Q 666 556 975 473 
Q 1284 391 1588 391 
Q 1994 391 2212 530 
Q 2431 669 2431 922 
Q 2431 1156 2273 1281 
Q 2116 1406 1581 1522 
L 1381 1569 
Q 847 1681 609 1914 
Q 372 2147 372 2553 
Q 372 3047 722 3315 
Q 1072 3584 1716 3584 
Q 2034 3584 2315 3537 
Q 2597 3491 2834 3397 
z
" transform="scale(0.015625)"/>
      <path id="DejaVuSans-69" d="M 603 3500 
L 1178 3500 
L 1178 0 
L 603 0 
L 603 3500 
z
M 603 4863 
L 1178 4863 
L 1178 4134 
L 603 4134 
L 603 4863 
z
" transform="scale(0.015625)"/>
      <path id="DejaVuSans-6e" d="M 3513 2113 
L 3513 0 
L 2938 0 
L 2938 2094 
Q 2938 2591 2744 2837 
Q 2550 3084 2163 3084 
Q 1697 3084 1428 2787 
Q 1159 2491 1159 1978 
L 1159 0 
L 581 0 
L 581 3500 
L 1159 3500 
L 1159 2956 
Q 1366 3272 1645 3428 
Q 1925 3584 2291 3584 
Q 2894 3584 3203 3211 
Q 3513 2838 3513 2113 
z
" transform="scale(0.015625)"/>
      <path id="DejaVuSans-74" d="M 1172 4494 
L 1172 3500 
L 2356 3500 
L 2356 3053 
L 1172 3053 
L 1172 1153 
Q 1172 725 1289 603 
Q 1406 481 1766 481 
L 2356 481 
L 2356 0 
L 1766 0 
Q 1100 0 847 248 
Q 594 497 594 1153 
L 594 3053 
L 172 3053 
L 172 3500 
L 594 3500 
L 594 4494 
L 1172 4494 
z
" transform="scale(0.015625)"/>
      <path id="DejaVuSans-68" d="M 3513 2113 
L 3513 0 
L 2938 0 
L 2938 2094 
Q 2938 2591 2744 2837 
Q 2550 3084 2163 3084 
Q 1697 3084 1428 2787 
Q 1159 2491 1159 1978 
L 1159 0 
L 581 0 
L 581 4863 
L 1159 4863 
L 1159 2956 
Q 1366 3272 1645 3428 
Q 1925 3584 2291 3584 
Q 2894 3584 3203 3211 
Q 3513 2838 3513 2113 
z
" transform="scale(0.015625)"/>
      <path id="DejaVuSans-4f" d="M 2522 4238 
Q 1834 4238 1429 3725 
Q 1025 3213 1025 2328 
Q 1025 1447 1429 934 
Q 1834 422 2522 422 
Q 3209 422 3611 934 
Q 4013 1447 4013 2328 
Q 4013 3213 3611 3725 
Q 3209 4238 2522 4238 
z
M 2522 4750 
Q 3503 4750 4090 4092 
Q 4678 3434 4678 2328 
Q 4678 1225 4090 567 
Q 3503 -91 2522 -91 
Q 1538 -91 948 565 
Q 359 1222 359 2328 
Q 359 3434 948 4092 
Q 1538 4750 2522 4750 
z
" transform="scale(0.015625)"/>
      <path id="DejaVuSans-70" d="M 1159 525 
L 1159 -1331 
L 581 -1331 
L 581 3500 
L 1159 3500 
L 1159 2969 
Q 1341 3281 1617 3432 
Q 1894 3584 2278 3584 
Q 2916 3584 3314 3078 
Q 3713 2572 3713 1747 
Q 3713 922 3314 415 
Q 2916 -91 2278 -91 
Q 1894 -91 1617 61 
Q 1341 213 1159 525 
z
M 3116 1747 
Q 3116 2381 2855 2742 
Q 2594 3103 2138 3103 
Q 1681 3103 1420 2742 
Q 1159 2381 1159 1747 
Q 1159 1113 1420 752 
Q 1681 391 2138 391 
Q 2594 391 2855 752 
Q 3116 1113 3116 1747 
z
" transform="scale(0.015625)"/>
      <path id="DejaVuSans-53" d="M 3425 4513 
L 3425 3897 
Q 3066 4069 2747 4153 
Q 2428 4238 2131 4238 
Q 1616 4238 1336 4038 
Q 1056 3838 1056 3469 
Q 1056 3159 1242 3001 
Q 1428 2844 1947 2747 
L 2328 2669 
Q 3034 2534 3370 2195 
Q 3706 1856 3706 1288 
Q 3706 609 3251 259 
Q 2797 -91 1919 -91 
Q 1588 -91 1214 -16 
Q 841 59 441 206 
L 441 856 
Q 825 641 1194 531 
Q 1563 422 1919 422 
Q 2459 422 2753 634 
Q 3047 847 3047 1241 
Q 3047 1584 2836 1778 
Q 2625 1972 2144 2069 
L 1759 2144 
Q 1053 2284 737 2584 
Q 422 2884 422 3419 
Q 422 4038 858 4394 
Q 1294 4750 2059 4750 
Q 2388 4750 2728 4690 
Q 3069 4631 3425 4513 
z
" transform="scale(0.015625)"/>
      <path id="DejaVuSans-4d" d="M 628 4666 
L 1569 4666 
L 2759 1491 
L 3956 4666 
L 4897 4666 
L 4897 0 
L 4281 0 
L 4281 4097 
L 3078 897 
L 2444 897 
L 1241 4097 
L 1241 0 
L 628 0 
L 628 4666 
z
" transform="scale(0.015625)"/>
      <path id="DejaVuSans-61" d="M 2194 1759 
Q 1497 1759 1228 1600 
Q 959 1441 959 1056 
Q 959 750 1161 570 
Q 1363 391 1709 391 
Q 2188 391 2477 730 
Q 2766 1069 2766 1631 
L 2766 1759 
L 2194 1759 
z
M 3341 1997 
L 3341 0 
L 2766 0 
L 2766 531 
Q 2569 213 2275 61 
Q 1981 -91 1556 -91 
Q 1019 -91 701 211 
Q 384 513 384 1019 
Q 384 1609 779 1909 
Q 1175 2209 1959 2209 
L 2766 2209 
L 2766 2266 
Q 2766 2663 2505 2880 
Q 2244 3097 1772 3097 
Q 1472 3097 1187 3025 
Q 903 2953 641 2809 
L 641 3341 
Q 956 3463 1253 3523 
Q 1550 3584 1831 3584 
Q 2591 3584 2966 3190 
Q 3341 2797 3341 1997 
z
" transform="scale(0.015625)"/>
      <path id="DejaVuSans-64" d="M 2906 2969 
L 2906 4863 
L 3481 4863 
L 3481 0 
L 2906 0 
L 2906 525 
Q 2725 213 2448 61 
Q 2172 -91 1784 -91 
Q 1150 -91 751 415 
Q 353 922 353 1747 
Q 353 2572 751 3078 
Q 1150 3584 1784 3584 
Q 2172 3584 2448 3432 
Q 2725 3281 2906 2969 
z
M 947 1747 
Q 947 1113 1208 752 
Q 1469 391 1925 391 
Q 2381 391 2643 752 
Q 2906 1113 2906 1747 
Q 2906 2381 2643 2742 
Q 2381 3103 1925 3103 
Q 1469 3103 1208 2742 
Q 947 2381 947 1747 
z
" transform="scale(0.015625)"/>
      <path id="DejaVuSans-50" d="M 1259 4147 
L 1259 2394 
L 2053 2394 
Q 2494 2394 2734 2622 
Q 2975 2850 2975 3272 
Q 2975 3691 2734 3919 
Q 2494 4147 2053 4147 
L 1259 4147 
z
M 628 4666 
L 2053 4666 
Q 2838 4666 3239 4311 
Q 3641 3956 3641 3272 
Q 3641 2581 3239 2228 
Q 2838 1875 2053 1875 
L 1259 1875 
L 1259 0 
L 628 0 
L 628 4666 
z
" transform="scale(0.015625)"/>
      <path id="DejaVuSans-6c" d="M 603 4863 
L 1178 4863 
L 1178 0 
L 603 0 
L 603 4863 
z
" transform="scale(0.015625)"/>
      <path id="DejaVuSans-2c" d="M 750 794 
L 1409 794 
L 1409 256 
L 897 -744 
L 494 -744 
L 750 256 
L 750 794 
z
" transform="scale(0.015625)"/>
      <path id="DejaVuSans-79" d="M 2059 -325 
Q 1816 -950 1584 -1140 
Q 1353 -1331 966 -1331 
L 506 -1331 
L 506 -850 
L 844 -850 
Q 1081 -850 1212 -737 
Q 1344 -625 1503 -206 
L 1606 56 
L 191 3500 
L 800 3500 
L 1894 763 
L 2988 3500 
L 3597 3500 
L 2059 -325 
z
" transform="scale(0.015625)"/>
      <path id="DejaVuSans-2e" d="M 684 794 
L 1344 794 
L 1344 0 
L 684 0 
L 684 794 
z
" transform="scale(0.015625)"/>
      <path id="DejaVuSans-3a" d="M 750 794 
L 1409 794 
L 1409 0 
L 750 0 
L 750 794 
z
M 750 3309 
L 1409 3309 
L 1409 2516 
L 750 2516 
L 750 3309 
z
" transform="scale(0.015625)"/>
      <path id="DejaVuSans-35" d="M 691 4666 
L 3169 4666 
L 3169 4134 
L 1269 4134 
L 1269 2991 
Q 1406 3038 1543 3061 
Q 1681 3084 1819 3084 
Q 2600 3084 3056 2656 
Q 3513 2228 3513 1497 
Q 3513 744 3044 326 
Q 2575 -91 1722 -91 
Q 1428 -91 1123 -41 
Q 819 9 494 109 
L 494 744 
Q 775 591 1075 516 
Q 1375 441 1709 441 
Q 2250 441 2565 725 
Q 2881 1009 2881 1497 
Q 2881 1984 2565 2268 
Q 2250 2553 1709 2553 
Q 1456 2553 1204 2497 
Q 953 2441 691 2322 
L 691 4666 
z
" transform="scale(0.015625)"/>
      <path id="DejaVuSans-2d" d="M 313 2009 
L 1997 2009 
L 1997 1497 
L 313 1497 
L 313 2009 
z
" transform="scale(0.015625)"/>
      <path id="DejaVuSans-37" d="M 525 4666 
L 3525 4666 
L 3525 4397 
L 1831 0 
L 1172 0 
L 2766 4134 
L 525 4134 
L 525 4666 
z
" transform="scale(0.015625)"/>
     </defs>
     <use xlink:href="#DejaVuSans-4e"/>
     <use xlink:href="#DejaVuSans-75" x="74.804688"/>
     <use xlink:href="#DejaVuSans-6d" x="138.183594"/>
     <use xlink:href="#DejaVuSans-62" x="235.595703"/>
     <use xlink:href="#DejaVuSans-65" x="299.072266"/>
     <use xlink:href="#DejaVuSans-72" x="360.595703"/>
     <use xlink:href="#DejaVuSans-20" x="401.708984"/>
     <use xlink:href="#DejaVuSans-6f" x="433.496094"/>
     <use xlink:href="#DejaVuSans-66" x="494.677734"/>
     <use xlink:href="#DejaVuSans-20" x="529.882812"/>
     <use xlink:href="#DejaVuSans-41" x="561.669922"/>
     <use xlink:href="#DejaVuSans-45" x="630.078125"/>
     <use xlink:href="#DejaVuSans-44" x="693.261719"/>
     <use xlink:href="#DejaVuSans-73" x="770.263672"/>
     <use xlink:href="#DejaVuSans-20" x="822.363281"/>
     <use xlink:href="#DejaVuSans-69" x="854.150391"/>
     <use xlink:href="#DejaVuSans-6e" x="881.933594"/>
     <use xlink:href="#DejaVuSans-20" x="945.3125"/>
     <use xlink:href="#DejaVuSans-74" x="977.099609"/>
     <use xlink:href="#DejaVuSans-68" x="1016.308594"/>
     <use xlink:href="#DejaVuSans-65" x="1079.6875"/>
     <use xlink:href="#DejaVuSans-20" x="1141.210938"/>
     <use xlink:href="#DejaVuSans-4f" x="1172.998047"/>
     <use xlink:href="#DejaVuSans-70" x="1251.708984"/>
     <use xlink:href="#DejaVuSans-65" x="1315.185547"/>
     <use xlink:href="#DejaVuSans-6e" x="1376.708984"/>
     <use xlink:href="#DejaVuSans-53" x="1440.087891"/>
     <use xlink:href="#DejaVuSans-74" x="1503.564453"/>
     <use xlink:href="#DejaVuSans-72" x="1542.773438"/>
     <use xlink:href="#DejaVuSans-65" x="1581.636719"/>
     <use xlink:href="#DejaVuSans-65" x="1643.160156"/>
     <use xlink:href="#DejaVuSans-74" x="1704.683594"/>
     <use xlink:href="#DejaVuSans-4d" x="1743.892578"/>
     <use xlink:href="#DejaVuSans-61" x="1830.171875"/>
     <use xlink:href="#DejaVuSans-70" x="1891.451172"/>
     <use xlink:href="#DejaVuSans-20" x="1954.927734"/>
     <use xlink:href="#DejaVuSans-64" x="1986.714844"/>
     <use xlink:href="#DejaVuSans-61" x="2050.191406"/>
     <use xlink:href="#DejaVuSans-74" x="2111.470703"/>
     <use xlink:href="#DejaVuSans-61" x="2150.679688"/>
     <use xlink:href="#DejaVuSans-62" x="2211.958984"/>
     <use xlink:href="#DejaVuSans-61" x="2275.435547"/>
     <use xlink:href="#DejaVuSans-73" x="2336.714844"/>
     <use xlink:href="#DejaVuSans-65" x="2388.814453"/>
     <use xlink:href="#DejaVuSans-20" x="2450.337891"/>
     <use xlink:href="#DejaVuSans-69" x="2482.125"/>
     <use xlink:href="#DejaVuSans-6e" x="2509.908203"/>
     <use xlink:href="#DejaVuSans-20" x="2573.287109"/>
     <use xlink:href="#DejaVuSans-50" x="2605.074219"/>
     <use xlink:href="#DejaVuSans-6f" x="2661.751953"/>
     <use xlink:href="#DejaVuSans-6c" x="2722.933594"/>
     <use xlink:href="#DejaVuSans-61" x="2750.716797"/>
     <use xlink:href="#DejaVuSans-6e" x="2811.996094"/>
     <use xlink:href="#DejaVuSans-64" x="2875.375"/>
     <use xlink:href="#DejaVuSans-20" x="2938.851562"/>
     <use xlink:href="#DejaVuSans-66" x="2970.638672"/>
     <use xlink:href="#DejaVuSans-72" x="3005.84375"/>
     <use xlink:href="#DejaVuSans-6f" x="3044.707031"/>
     <use xlink:href="#DejaVuSans-6d" x="3105.888672"/>
     <use xlink:href="#DejaVuSans-20" x="3203.300781"/>
     <use xlink:href="#DejaVuSans-66" x="3235.087891"/>
     <use xlink:href="#DejaVuSans-69" x="3270.292969"/>
     <use xlink:href="#DejaVuSans-72" x="3298.076172"/>
     <use xlink:href="#DejaVuSans-73" x="3339.189453"/>
     <use xlink:href="#DejaVuSans-74" x="3391.289062"/>
     <use xlink:href="#DejaVuSans-20" x="3430.498047"/>
     <use xlink:href="#DejaVuSans-65" x="3462.285156"/>
     <use xlink:href="#DejaVuSans-64" x="3523.808594"/>
     <use xlink:href="#DejaVuSans-69" x="3587.285156"/>
     <use xlink:href="#DejaVuSans-74" x="3615.068359"/>
     <use xlink:href="#DejaVuSans-69" x="3654.277344"/>
     <use xlink:href="#DejaVuSans-6f" x="3682.060547"/>
     <use xlink:href="#DejaVuSans-6e" x="3743.242188"/>
     <use xlink:href="#DejaVuSans-2c" x="3806.621094"/>
     <use xlink:href="#DejaVuSans-20" x="3838.408203"/>
     <use xlink:href="#DejaVuSans-64" x="3870.195312"/>
     <use xlink:href="#DejaVuSans-61" x="3933.671875"/>
     <use xlink:href="#DejaVuSans-79" x="3994.951172"/>
     <use xlink:href="#DejaVuSans-20" x="4054.130859"/>
     <use xlink:href="#DejaVuSans-62" x="4085.917969"/>
     <use xlink:href="#DejaVuSans-79" x="4149.394531"/>
     <use xlink:href="#DejaVuSans-20" x="4208.574219"/>
     <use xlink:href="#DejaVuSans-64" x="4240.361328"/>
     <use xlink:href="#DejaVuSans-61" x="4303.837891"/>
     <use xlink:href="#DejaVuSans-79" x="4365.117188"/>
     <use xlink:href="#DejaVuSans-2e" x="4410.046875"/>
     <use xlink:href="#DejaVuSans-20" x="4441.833984"/>
     <use xlink:href="#DejaVuSans-41" x="4473.621094"/>
     <use xlink:href="#DejaVuSans-73" x="4542.029297"/>
     <use xlink:href="#DejaVuSans-20" x="4594.128906"/>
     <use xlink:href="#DejaVuSans-61" x="4625.916016"/>
     <use xlink:href="#DejaVuSans-74" x="4687.195312"/>
     <use xlink:href="#DejaVuSans-3a" x="4726.404297"/>
     <use xlink:href="#DejaVuSans-20" x="4760.095703"/>
     <use xlink:href="#DejaVuSans-32" x="4791.882812"/>
     <use xlink:href="#DejaVuSans-30" x="4855.505859"/>
     <use xlink:href="#DejaVuSans-32" x="4919.128906"/>
     <use xlink:href="#DejaVuSans-35" x="4982.751953"/>
     <use xlink:href="#DejaVuSans-2d" x="5046.375"/>
     <use xlink:href="#DejaVuSans-30" x="5082.458984"/>
     <use xlink:href="#DejaVuSans-32" x="5146.082031"/>
     <use xlink:href="#DejaVuSans-2d" x="5209.705078"/>
     <use xlink:href="#DejaVuSans-30" x="5245.789062"/>
     <use xlink:href="#DejaVuSans-37" x="5309.412109"/>
    </g>
   </g>
  </g>
 </g>
 <defs>
  <clipPath id="pc1dc7ee4a2">
   <rect x="144" y="69.12" width="892.8" height="443.52"/>
  </clipPath>
 </defs>
</svg>
