<?xml version="1.0" encoding="utf-8" standalone="no"?>
<!DOCTYPE svg PUBLIC "-//W3C//DTD SVG 1.1//EN"
  "http://www.w3.org/Graphics/SVG/1.1/DTD/svg11.dtd">
<svg xmlns:xlink="http://www.w3.org/1999/xlink" width="1152pt" height="576pt" viewBox="0 0 1152 576" xmlns="http://www.w3.org/2000/svg" version="1.1">
 <metadata>
  <rdf:RDF xmlns:dc="http://purl.org/dc/elements/1.1/" xmlns:cc="http://creativecommons.org/ns#" xmlns:rdf="http://www.w3.org/1999/02/22-rdf-syntax-ns#">
   <cc:Work>
    <dc:type rdf:resource="http://purl.org/dc/dcmitype/StillImage"/>
    <dc:date>1980-01-01T00:00:00+00:00</dc:date>
    <dc:format>image/svg+xml</dc:format>
    <dc:creator>
     <cc:Agent>
      <dc:title>Matplotlib v3.9.1, https://matplotlib.org/</dc:title>
     </cc:Agent>
    </dc:creator>
   </cc:Work>
  </rdf:RDF>
 </metadata>
 <defs>
  <style type="text/css">*{stroke-linejoin: round; stroke-linecap: butt}</style>
 </defs>
 <g id="figure_1">
  <g id="patch_1">
   <path d="M 0 576 
L 1152 576 
L 1152 0 
L 0 0 
z
" style="fill: #ffffff"/>
  </g>
  <g id="axes_1">
   <g id="patch_2">
    <path d="M 144 512.64 
L 1036.8 512.64 
L 1036.8 69.12 
L 144 69.12 
z
" style="fill: #ffffff"/>
   </g>
   <g id="matplotlib.axis_1">
    <g id="xtick_1">
     <g id="line2d_1">
      <defs>
       <path id="m404806b14e" d="M 0 0 
L 0 3.5 
" style="stroke: #000000; stroke-width: 0.8"/>
      </defs>
      <g>
       <use xlink:href="#m404806b14e" x="176.999975" y="512.64" style="stroke: #000000; stroke-width: 0.8"/>
      </g>
     </g>
     <g id="text_1">
      <!-- 2014 -->
      <g transform="translate(164.274975 527.238438) scale(0.1 -0.1)">
       <defs>
        <path id="DejaVuSans-32" d="M 1228 531 
L 3431 531 
L 3431 0 
L 469 0 
L 469 531 
Q 828 903 1448 1529 
Q 2069 2156 2228 2338 
Q 2531 2678 2651 2914 
Q 2772 3150 2772 3378 
Q 2772 3750 2511 3984 
Q 2250 4219 1831 4219 
Q 1534 4219 1204 4116 
Q 875 4013 500 3803 
L 500 4441 
Q 881 4594 1212 4672 
Q 1544 4750 1819 4750 
Q 2544 4750 2975 4387 
Q 3406 4025 3406 3419 
Q 3406 3131 3298 2873 
Q 3191 2616 2906 2266 
Q 2828 2175 2409 1742 
Q 1991 1309 1228 531 
z
" transform="scale(0.015625)"/>
        <path id="DejaVuSans-30" d="M 2034 4250 
Q 1547 4250 1301 3770 
Q 1056 3291 1056 2328 
Q 1056 1369 1301 889 
Q 1547 409 2034 409 
Q 2525 409 2770 889 
Q 3016 1369 3016 2328 
Q 3016 3291 2770 3770 
Q 2525 4250 2034 4250 
z
M 2034 4750 
Q 2819 4750 3233 4129 
Q 3647 3509 3647 2328 
Q 3647 1150 3233 529 
Q 2819 -91 2034 -91 
Q 1250 -91 836 529 
Q 422 1150 422 2328 
Q 422 3509 836 4129 
Q 1250 4750 2034 4750 
z
" transform="scale(0.015625)"/>
        <path id="DejaVuSans-31" d="M 794 531 
L 1825 531 
L 1825 4091 
L 703 3866 
L 703 4441 
L 1819 4666 
L 2450 4666 
L 2450 531 
L 3481 531 
L 3481 0 
L 794 0 
L 794 531 
z
" transform="scale(0.015625)"/>
        <path id="DejaVuSans-34" d="M 2419 4116 
L 825 1625 
L 2419 1625 
L 2419 4116 
z
M 2253 4666 
L 3047 4666 
L 3047 1625 
L 3713 1625 
L 3713 1100 
L 3047 1100 
L 3047 0 
L 2419 0 
L 2419 1100 
L 313 1100 
L 313 1709 
L 2253 4666 
z
" transform="scale(0.015625)"/>
       </defs>
       <use xlink:href="#DejaVuSans-32"/>
       <use xlink:href="#DejaVuSans-30" x="63.623047"/>
       <use xlink:href="#DejaVuSans-31" x="127.246094"/>
       <use xlink:href="#DejaVuSans-34" x="190.869141"/>
      </g>
     </g>
    </g>
    <g id="xtick_2">
     <g id="line2d_2">
      <g>
       <use xlink:href="#m404806b14e" x="315.368621" y="512.64" style="stroke: #000000; stroke-width: 0.8"/>
      </g>
     </g>
     <g id="text_2">
      <!-- 2016 -->
      <g transform="translate(302.643621 527.238438) scale(0.1 -0.1)">
       <defs>
        <path id="DejaVuSans-36" d="M 2113 2584 
Q 1688 2584 1439 2293 
Q 1191 2003 1191 1497 
Q 1191 994 1439 701 
Q 1688 409 2113 409 
Q 2538 409 2786 701 
Q 3034 994 3034 1497 
Q 3034 2003 2786 2293 
Q 2538 2584 2113 2584 
z
M 3366 4563 
L 3366 3988 
Q 3128 4100 2886 4159 
Q 2644 4219 2406 4219 
Q 1781 4219 1451 3797 
Q 1122 3375 1075 2522 
Q 1259 2794 1537 2939 
Q 1816 3084 2150 3084 
Q 2853 3084 3261 2657 
Q 3669 2231 3669 1497 
Q 3669 778 3244 343 
Q 2819 -91 2113 -91 
Q 1303 -91 875 529 
Q 447 1150 447 2328 
Q 447 3434 972 4092 
Q 1497 4750 2381 4750 
Q 2619 4750 2861 4703 
Q 3103 4656 3366 4563 
z
" transform="scale(0.015625)"/>
       </defs>
       <use xlink:href="#DejaVuSans-32"/>
       <use xlink:href="#DejaVuSans-30" x="63.623047"/>
       <use xlink:href="#DejaVuSans-31" x="127.246094"/>
       <use xlink:href="#DejaVuSans-36" x="190.869141"/>
      </g>
     </g>
    </g>
    <g id="xtick_3">
     <g id="line2d_3">
      <g>
       <use xlink:href="#m404806b14e" x="453.926814" y="512.64" style="stroke: #000000; stroke-width: 0.8"/>
      </g>
     </g>
     <g id="text_3">
      <!-- 2018 -->
      <g transform="translate(441.201814 527.238438) scale(0.1 -0.1)">
       <defs>
        <path id="DejaVuSans-38" d="M 2034 2216 
Q 1584 2216 1326 1975 
Q 1069 1734 1069 1313 
Q 1069 891 1326 650 
Q 1584 409 2034 409 
Q 2484 409 2743 651 
Q 3003 894 3003 1313 
Q 3003 1734 2745 1975 
Q 2488 2216 2034 2216 
z
M 1403 2484 
Q 997 2584 770 2862 
Q 544 3141 544 3541 
Q 544 4100 942 4425 
Q 1341 4750 2034 4750 
Q 2731 4750 3128 4425 
Q 3525 4100 3525 3541 
Q 3525 3141 3298 2862 
Q 3072 2584 2669 2484 
Q 3125 2378 3379 2068 
Q 3634 1759 3634 1313 
Q 3634 634 3220 271 
Q 2806 -91 2034 -91 
Q 1263 -91 848 271 
Q 434 634 434 1313 
Q 434 1759 690 2068 
Q 947 2378 1403 2484 
z
M 1172 3481 
Q 1172 3119 1398 2916 
Q 1625 2713 2034 2713 
Q 2441 2713 2670 2916 
Q 2900 3119 2900 3481 
Q 2900 3844 2670 4047 
Q 2441 4250 2034 4250 
Q 1625 4250 1398 4047 
Q 1172 3844 1172 3481 
z
" transform="scale(0.015625)"/>
       </defs>
       <use xlink:href="#DejaVuSans-32"/>
       <use xlink:href="#DejaVuSans-30" x="63.623047"/>
       <use xlink:href="#DejaVuSans-31" x="127.246094"/>
       <use xlink:href="#DejaVuSans-38" x="190.869141"/>
      </g>
     </g>
    </g>
    <g id="xtick_4">
     <g id="line2d_4">
      <g>
       <use xlink:href="#m404806b14e" x="592.295461" y="512.64" style="stroke: #000000; stroke-width: 0.8"/>
      </g>
     </g>
     <g id="text_4">
      <!-- 2020 -->
      <g transform="translate(579.570461 527.238438) scale(0.1 -0.1)">
       <use xlink:href="#DejaVuSans-32"/>
       <use xlink:href="#DejaVuSans-30" x="63.623047"/>
       <use xlink:href="#DejaVuSans-32" x="127.246094"/>
       <use xlink:href="#DejaVuSans-30" x="190.869141"/>
      </g>
     </g>
    </g>
    <g id="xtick_5">
     <g id="line2d_5">
      <g>
       <use xlink:href="#m404806b14e" x="730.853654" y="512.64" style="stroke: #000000; stroke-width: 0.8"/>
      </g>
     </g>
     <g id="text_5">
      <!-- 2022 -->
      <g transform="translate(718.128654 527.238438) scale(0.1 -0.1)">
       <use xlink:href="#DejaVuSans-32"/>
       <use xlink:href="#DejaVuSans-30" x="63.623047"/>
       <use xlink:href="#DejaVuSans-32" x="127.246094"/>
       <use xlink:href="#DejaVuSans-32" x="190.869141"/>
      </g>
     </g>
    </g>
    <g id="xtick_6">
     <g id="line2d_6">
      <g>
       <use xlink:href="#m404806b14e" x="869.222301" y="512.64" style="stroke: #000000; stroke-width: 0.8"/>
      </g>
     </g>
     <g id="text_6">
      <!-- 2024 -->
      <g transform="translate(856.497301 527.238438) scale(0.1 -0.1)">
       <use xlink:href="#DejaVuSans-32"/>
       <use xlink:href="#DejaVuSans-30" x="63.623047"/>
       <use xlink:href="#DejaVuSans-32" x="127.246094"/>
       <use xlink:href="#DejaVuSans-34" x="190.869141"/>
      </g>
     </g>
    </g>
    <g id="xtick_7">
     <g id="line2d_7">
      <g>
       <use xlink:href="#m404806b14e" x="1007.780493" y="512.64" style="stroke: #000000; stroke-width: 0.8"/>
      </g>
     </g>
     <g id="text_7">
      <!-- 2026 -->
      <g transform="translate(995.055493 527.238438) scale(0.1 -0.1)">
       <use xlink:href="#DejaVuSans-32"/>
       <use xlink:href="#DejaVuSans-30" x="63.623047"/>
       <use xlink:href="#DejaVuSans-32" x="127.246094"/>
       <use xlink:href="#DejaVuSans-36" x="190.869141"/>
      </g>
     </g>
    </g>
   </g>
   <g id="matplotlib.axis_2">
    <g id="ytick_1">
     <g id="line2d_8">
      <defs>
       <path id="m52289c0cfd" d="M 0 0 
L -3.5 0 
" style="stroke: #000000; stroke-width: 0.8"/>
      </defs>
      <g>
       <use xlink:href="#m52289c0cfd" x="144" y="492.512577" style="stroke: #000000; stroke-width: 0.8"/>
      </g>
     </g>
     <g id="text_8">
      <!-- 0 -->
      <g transform="translate(130.6375 496.311795) scale(0.1 -0.1)">
       <use xlink:href="#DejaVuSans-30"/>
      </g>
     </g>
    </g>
    <g id="ytick_2">
     <g id="line2d_9">
      <g>
       <use xlink:href="#m52289c0cfd" x="144" y="427.35947" style="stroke: #000000; stroke-width: 0.8"/>
      </g>
     </g>
     <g id="text_9">
      <!-- 2000 -->
      <g transform="translate(111.55 431.158689) scale(0.1 -0.1)">
       <use xlink:href="#DejaVuSans-32"/>
       <use xlink:href="#DejaVuSans-30" x="63.623047"/>
       <use xlink:href="#DejaVuSans-30" x="127.246094"/>
       <use xlink:href="#DejaVuSans-30" x="190.869141"/>
      </g>
     </g>
    </g>
    <g id="ytick_3">
     <g id="line2d_10">
      <g>
       <use xlink:href="#m52289c0cfd" x="144" y="362.206363" style="stroke: #000000; stroke-width: 0.8"/>
      </g>
     </g>
     <g id="text_10">
      <!-- 4000 -->
      <g transform="translate(111.55 366.005582) scale(0.1 -0.1)">
       <use xlink:href="#DejaVuSans-34"/>
       <use xlink:href="#DejaVuSans-30" x="63.623047"/>
       <use xlink:href="#DejaVuSans-30" x="127.246094"/>
       <use xlink:href="#DejaVuSans-30" x="190.869141"/>
      </g>
     </g>
    </g>
    <g id="ytick_4">
     <g id="line2d_11">
      <g>
       <use xlink:href="#m52289c0cfd" x="144" y="297.053257" style="stroke: #000000; stroke-width: 0.8"/>
      </g>
     </g>
     <g id="text_11">
      <!-- 6000 -->
      <g transform="translate(111.55 300.852476) scale(0.1 -0.1)">
       <use xlink:href="#DejaVuSans-36"/>
       <use xlink:href="#DejaVuSans-30" x="63.623047"/>
       <use xlink:href="#DejaVuSans-30" x="127.246094"/>
       <use xlink:href="#DejaVuSans-30" x="190.869141"/>
      </g>
     </g>
    </g>
    <g id="ytick_5">
     <g id="line2d_12">
      <g>
       <use xlink:href="#m52289c0cfd" x="144" y="231.90015" style="stroke: #000000; stroke-width: 0.8"/>
      </g>
     </g>
     <g id="text_12">
      <!-- 8000 -->
      <g transform="translate(111.55 235.699369) scale(0.1 -0.1)">
       <use xlink:href="#DejaVuSans-38"/>
       <use xlink:href="#DejaVuSans-30" x="63.623047"/>
       <use xlink:href="#DejaVuSans-30" x="127.246094"/>
       <use xlink:href="#DejaVuSans-30" x="190.869141"/>
      </g>
     </g>
    </g>
    <g id="ytick_6">
     <g id="line2d_13">
      <g>
       <use xlink:href="#m52289c0cfd" x="144" y="166.747044" style="stroke: #000000; stroke-width: 0.8"/>
      </g>
     </g>
     <g id="text_13">
      <!-- 10000 -->
      <g transform="translate(105.1875 170.546262) scale(0.1 -0.1)">
       <use xlink:href="#DejaVuSans-31"/>
       <use xlink:href="#DejaVuSans-30" x="63.623047"/>
       <use xlink:href="#DejaVuSans-30" x="127.246094"/>
       <use xlink:href="#DejaVuSans-30" x="190.869141"/>
       <use xlink:href="#DejaVuSans-30" x="254.492188"/>
      </g>
     </g>
    </g>
    <g id="ytick_7">
     <g id="line2d_14">
      <g>
       <use xlink:href="#m52289c0cfd" x="144" y="101.593937" style="stroke: #000000; stroke-width: 0.8"/>
      </g>
     </g>
     <g id="text_14">
      <!-- 12000 -->
      <g transform="translate(105.1875 105.393156) scale(0.1 -0.1)">
       <use xlink:href="#DejaVuSans-31"/>
       <use xlink:href="#DejaVuSans-32" x="63.623047"/>
       <use xlink:href="#DejaVuSans-30" x="127.246094"/>
       <use xlink:href="#DejaVuSans-30" x="190.869141"/>
       <use xlink:href="#DejaVuSans-30" x="254.492188"/>
      </g>
     </g>
    </g>
   </g>
   <g id="line2d_15">
    <path d="M 184.581818 492.48 
L 186.287733 492.414847 
L 288.453076 492.251964 
L 443.501779 492.089081 
L 495.058316 491.893622 
L 508.516088 491.795892 
L 540.738924 491.63301 
L 542.255293 491.567857 
L 550.974413 491.470127 
L 592.485007 491.274668 
L 598.550482 491.209514 
L 598.929574 490.948902 
L 602.910042 490.786019 
L 636.270154 490.655713 
L 640.061076 490.557983 
L 663.185699 490.395101 
L 677.21211 490.167065 
L 680.244847 490.069335 
L 689.532606 489.873876 
L 692.944435 489.710993 
L 693.892166 489.64584 
L 695.218989 489.482957 
L 704.317201 489.254921 
L 706.591754 489.189768 
L 712.846775 488.766273 
L 722.703172 488.538237 
L 728.010462 487.007139 
L 729.147739 486.941986 
L 729.905923 486.420761 
L 730.095469 485.638924 
L 730.474562 485.443464 
L 730.664108 485.410888 
L 730.853654 484.368438 
L 731.99093 483.912366 
L 732.370023 483.358565 
L 732.749115 483.130529 
L 732.938661 482.641881 
L 733.128207 481.729737 
L 733.507299 480.9479 
L 733.696845 479.970604 
L 733.886391 478.11374 
L 734.45503 476.712948 
L 734.644576 472.412843 
L 734.834122 470.686286 
L 735.023668 470.034755 
L 735.40276 465.702073 
L 735.592306 465.050542 
L 735.781852 463.421714 
L 735.971398 463.323985 
L 736.540037 461.173932 
L 736.729583 456.548062 
L 736.919129 456.124567 
L 737.298221 454.691198 
L 737.487767 454.593469 
L 737.677313 453.811631 
L 737.866859 450.521399 
L 738.056405 449.739562 
L 738.245951 449.674409 
L 738.435497 447.263744 
L 738.625044 446.807672 
L 739.004136 446.64479 
L 739.76232 444.168971 
L 740.141412 443.51744 
L 740.520504 441.628 
L 740.710051 440.911316 
L 741.089143 435.796797 
L 741.657781 433.288403 
L 742.415965 432.897484 
L 743.17415 431.561845 
L 743.553242 431.496692 
L 743.932334 428.695109 
L 744.12188 428.662532 
L 744.500972 428.20646 
L 744.690518 426.968551 
L 745.069611 426.479903 
L 745.259157 426.186714 
L 745.448703 425.632913 
L 746.017341 425.404877 
L 746.206887 425.176841 
L 746.775525 423.157095 
L 746.965072 423.026788 
L 747.344164 422.505564 
L 748.102348 422.147221 
L 748.291894 420.844159 
L 748.48144 420.74643 
L 748.670986 420.518394 
L 748.860532 418.009999 
L 749.239625 417.944846 
L 749.618717 417.260738 
L 749.808263 416.609207 
L 750.376901 416.478901 
L 750.945539 415.469028 
L 751.135086 415.436451 
L 751.514178 414.915227 
L 751.89327 414.78492 
L 752.082816 411.95076 
L 753.220093 411.690148 
L 753.599185 411.429535 
L 754.357369 411.331806 
L 754.546915 411.168923 
L 756.821468 410.517392 
L 757.579653 409.996167 
L 758.527383 409.865861 
L 759.285567 409.474942 
L 761.181028 408.986294 
L 761.939213 406.249863 
L 762.886943 406.119557 
L 763.076489 406.054404 
L 764.592858 405.891521 
L 765.161496 405.696062 
L 765.351042 405.174837 
L 766.488319 405.011954 
L 768.004688 404.49073 
L 768.38378 404.132387 
L 768.762872 404.034658 
L 768.952418 403.806622 
L 769.710603 403.54601 
L 770.658333 403.44828 
L 770.847879 403.220244 
L 771.226971 403.187667 
L 771.416517 402.666443 
L 771.606063 402.601289 
L 771.79561 401.884605 
L 774.070163 401.395957 
L 774.638801 401.265651 
L 774.828347 400.874732 
L 776.15517 400.548967 
L 776.723808 400.353507 
L 777.481992 400.190625 
L 778.240177 399.995165 
L 779.187907 399.799706 
L 780.325184 399.311058 
L 781.083368 398.920139 
L 781.272914 398.268608 
L 782.220645 397.519347 
L 782.410191 397.226158 
L 783.357921 396.444321 
L 783.737013 395.760213 
L 783.926559 395.727637 
L 784.305652 394.880646 
L 785.063836 394.033656 
L 785.632474 393.935926 
L 785.82202 393.642737 
L 786.201112 393.479855 
L 786.390659 393.154089 
L 787.338389 392.926053 
L 787.527935 392.632864 
L 788.854758 392.339675 
L 789.23385 392.176792 
L 789.423396 392.144216 
L 789.612942 391.981333 
L 790.560673 391.851027 
L 791.887495 391.264649 
L 792.456133 391.166919 
L 792.835226 390.450235 
L 793.214318 390.222199 
L 794.162048 389.505515 
L 794.351594 388.756254 
L 795.109779 388.528218 
L 796.247055 388.169876 
L 796.626148 387.648652 
L 797.573878 387.160003 
L 797.763424 386.834238 
L 798.332062 386.638778 
L 798.711155 386.378166 
L 799.279793 386.15013 
L 799.658885 382.566709 
L 799.848431 381.393953 
L 800.037977 379.374207 
L 800.227523 379.146171 
L 800.985708 376.637777 
L 801.3648 375.986245 
L 801.554346 375.921092 
L 801.933438 375.530174 
L 802.122984 374.064229 
L 802.31253 373.705887 
L 802.691622 373.575581 
L 803.828899 371.458105 
L 804.018445 371.295222 
L 804.207991 370.415655 
L 805.155722 368.819404 
L 805.913906 368.493638 
L 806.103452 368.298179 
L 806.292998 367.255729 
L 806.67209 367.092846 
L 807.051183 366.734504 
L 807.619821 365.985244 
L 807.809367 365.301136 
L 807.998913 365.268559 
L 808.567551 364.649605 
L 808.946643 364.617028 
L 809.13619 364.291263 
L 809.515282 364.095804 
L 810.273466 363.28139 
L 810.463012 363.18366 
L 810.652558 362.629859 
L 812.168927 361.261643 
L 812.548019 359.991158 
L 813.685296 359.469933 
L 814.064388 358.818402 
L 814.44348 358.427483 
L 815.012118 357.385034 
L 816.338941 356.994115 
L 816.907579 356.016818 
L 817.665764 355.821359 
L 818.423948 354.974369 
L 818.80304 354.909215 
L 819.182132 354.518297 
L 819.750771 354.290261 
L 820.129863 354.257684 
L 820.319409 354.062225 
L 820.508955 353.475847 
L 821.267139 353.247811 
L 821.456685 352.922046 
L 821.646232 352.889469 
L 821.835778 352.303091 
L 822.404416 352.075055 
L 822.973054 351.944749 
L 823.352146 351.618984 
L 824.299877 351.195488 
L 824.678969 350.902299 
L 825.058061 350.674264 
L 825.437153 350.641687 
L 825.6267 349.76212 
L 826.005792 349.468931 
L 826.384884 349.371201 
L 827.143068 348.91513 
L 827.901253 348.784823 
L 828.090799 347.87268 
L 829.417621 347.253725 
L 829.607167 347.221149 
L 829.796714 347.058266 
L 830.175806 346.993113 
L 830.365352 346.699924 
L 831.123536 346.406735 
L 831.313082 346.048393 
L 831.692174 346.015816 
L 832.071267 345.787781 
L 832.639905 345.494592 
L 832.829451 345.103673 
L 833.587635 344.875637 
L 833.777181 344.615025 
L 834.34582 344.321836 
L 834.914458 344.061223 
L 835.104004 343.768034 
L 835.29355 343.735458 
L 835.672642 343.474845 
L 836.051735 343.311963 
L 836.241281 343.116503 
L 837.378557 342.790738 
L 837.568103 342.432396 
L 837.757649 342.334666 
L 838.70538 342.171783 
L 839.084472 341.878594 
L 839.463564 341.748288 
L 840.032202 341.585405 
L 840.221749 341.324793 
L 840.600841 341.25964 
L 840.790387 340.705838 
L 840.979933 340.608109 
L 841.359025 340.184613 
L 841.548571 339.500506 
L 841.927663 339.27247 
L 843.06494 338.392903 
L 843.444032 338.034561 
L 843.823124 337.904255 
L 844.01267 337.545913 
L 844.202216 337.480759 
L 844.581309 337.089841 
L 844.960401 336.861805 
L 845.529039 336.698922 
L 845.908131 336.275427 
L 847.993138 334.614023 
L 848.940869 334.385987 
L 850.078145 333.245808 
L 850.457237 333.082925 
L 851.973606 332.496547 
L 852.731791 332.040475 
L 853.489975 331.71471 
L 854.058613 331.454097 
L 855.006344 331.063178 
L 855.764528 330.867719 
L 856.333166 330.476801 
L 856.522712 330.444224 
L 856.712259 330.118458 
L 858.039081 329.597234 
L 858.986812 329.076009 
L 860.124088 328.58736 
L 860.313634 328.163865 
L 860.50318 326.730497 
L 860.882273 326.372155 
L 861.071819 326.339578 
L 862.398641 324.352408 
L 862.777733 323.733454 
L 864.294102 322.853887 
L 864.673194 322.528122 
L 865.241833 322.332662 
L 865.620925 321.941744 
L 866.189563 321.485672 
L 866.568655 321.355366 
L 866.758201 320.997024 
L 867.32684 320.638681 
L 868.085024 320.08488 
L 868.464116 320.052303 
L 868.653662 319.759114 
L 869.222301 319.628808 
L 869.601393 318.29317 
L 869.980485 317.967404 
L 870.738669 317.706792 
L 871.117761 317.446179 
L 871.307308 316.990107 
L 871.6864 316.859801 
L 871.875946 316.403729 
L 872.065492 316.306 
L 872.444584 315.915081 
L 872.63413 315.719622 
L 873.202768 315.556739 
L 873.581861 315.328703 
L 873.771407 315.296127 
L 873.960953 315.100667 
L 874.150499 315.068091 
L 874.908683 314.612019 
L 875.287775 313.797605 
L 875.477322 313.699876 
L 875.856414 313.634722 
L 876.04596 313.27638 
L 876.425052 313.113498 
L 876.804144 312.918038 
L 876.99369 312.33166 
L 877.751875 311.908165 
L 877.941421 311.321787 
L 878.699605 310.702833 
L 878.889151 310.670256 
L 879.268243 310.181608 
L 879.647336 309.888419 
L 879.836882 309.823266 
L 880.026428 309.530077 
L 880.40552 309.399771 
L 880.595066 308.780816 
L 880.974158 308.683086 
L 881.163704 308.389897 
L 881.35325 308.324744 
L 881.542796 307.673213 
L 882.111435 307.477754 
L 882.300981 307.380024 
L 882.680073 306.858799 
L 882.869619 306.728493 
L 883.627803 305.686043 
L 883.81735 305.62089 
L 884.385988 305.099666 
L 884.76508 304.904206 
L 885.144172 304.67617 
L 885.71281 304.317828 
L 886.091903 303.82918 
L 886.281449 303.764027 
L 887.418725 302.819307 
L 887.608271 302.754154 
L 887.987364 302.363235 
L 888.366456 302.265505 
L 888.556002 301.548821 
L 889.12464 301.060173 
L 889.314186 300.408642 
L 889.693278 300.0503 
L 889.882825 299.757111 
L 890.072371 299.724534 
L 891.020101 298.877544 
L 891.209647 298.812391 
L 891.399193 298.616931 
L 891.588739 298.584355 
L 891.967832 298.291166 
L 893.105108 297.769941 
L 893.863292 296.727491 
L 894.621477 296.27142 
L 894.811023 296.043384 
L 895.000569 296.010807 
L 895.190115 295.652465 
L 895.948299 295.196393 
L 896.516938 294.772898 
L 897.275122 294.414556 
L 897.84376 293.958484 
L 898.791491 293.534989 
L 898.981037 293.502413 
L 900.497406 292.329657 
L 900.876498 292.166774 
L 901.25559 292.036468 
L 901.634682 291.645549 
L 902.013774 291.515243 
L 902.392867 291.384937 
L 902.771959 290.928865 
L 903.530143 290.635676 
L 903.719689 289.169731 
L 904.66742 288.5182 
L 905.425604 287.215138 
L 905.61515 287.117408 
L 905.804696 286.693913 
L 906.183788 286.563607 
L 906.941973 285.456004 
L 907.321065 283.957482 
L 907.510611 283.501411 
L 907.889703 281.123322 
L 908.079249 280.146026 
L 909.02698 278.97327 
L 909.785164 276.073957 
L 909.97471 275.911074 
L 910.164256 275.487579 
L 910.353802 273.923904 
L 910.543348 273.370103 
L 910.732895 273.337526 
L 910.922441 272.620842 
L 911.491079 272.197347 
L 911.870171 271.154897 
L 912.817902 270.666249 
L 913.196994 270.27533 
L 914.33427 269.493493 
L 914.523816 269.135151 
L 914.713362 268.28816 
L 914.902909 267.994971 
L 915.282001 267.864665 
L 916.419277 267.213134 
L 917.177462 266.985098 
L 917.556554 266.789639 
L 917.7461 266.659333 
L 918.125192 266.626756 
L 920.589291 264.476704 
L 921.15793 264.216091 
L 921.537022 264.053208 
L 921.726568 263.271371 
L 922.295206 262.815299 
L 922.674298 262.750146 
L 923.811575 261.870579 
L 924.190667 261.707697 
L 924.380213 261.642543 
L 924.759305 261.251625 
L 925.138398 261.186472 
L 925.327944 260.7304 
L 925.51749 260.567517 
L 925.707036 260.046292 
L 926.086128 259.850833 
L 926.654766 258.678077 
L 926.844312 258.026546 
L 927.412951 257.635627 
L 927.981589 256.95152 
L 928.360681 255.681034 
L 928.550227 255.355269 
L 928.739773 254.671161 
L 928.929319 254.606008 
L 929.118865 254.052207 
L 929.497958 253.824171 
L 930.635234 252.749144 
L 930.82478 252.293073 
L 931.393419 252.03246 
L 931.582965 251.608965 
L 932.720241 251.152893 
L 932.909787 250.468786 
L 933.288879 250.24075 
L 933.478426 249.849831 
L 933.667972 249.719525 
L 934.047064 249.686948 
L 935.18434 248.839958 
L 935.752979 248.416463 
L 936.132071 247.992968 
L 936.511163 247.699779 
L 936.700709 247.374013 
L 936.890255 246.657329 
L 938.027532 246.070951 
L 938.406624 245.32169 
L 938.785716 245.191384 
L 938.975262 244.735312 
L 939.164808 244.670159 
L 939.922993 243.888322 
L 940.870723 243.301944 
L 942.387092 241.933729 
L 942.766184 241.184468 
L 942.95573 240.435207 
L 943.334822 239.848829 
L 943.524368 239.457911 
L 944.472099 234.83204 
L 944.851191 234.147932 
L 945.040737 232.421375 
L 945.230283 229.033414 
L 946.557106 219.293024 
L 946.936198 214.862613 
L 947.31529 214.178505 
L 947.694382 208.412455 
L 947.883928 206.881357 
L 948.263021 200.4312 
L 948.642113 199.225867 
L 948.831659 195.935635 
L 949.021205 195.349257 
L 949.400297 191.700684 
L 949.779389 181.960294 
L 949.968936 181.439069 
L 950.158482 180.526926 
L 950.348028 177.46473 
L 950.537574 177.204117 
L 950.916666 172.285058 
L 951.106212 172.219905 
L 951.295758 171.894139 
L 951.67485 170.75396 
L 951.864396 170.525924 
L 952.053943 169.972122 
L 952.243489 168.929673 
L 952.622581 168.734213 
L 952.812127 168.212989 
L 953.191219 166.584161 
L 953.570311 163.619695 
L 953.759857 163.09847 
L 953.949403 163.033317 
L 954.13895 162.740128 
L 955.08668 159.971121 
L 955.276226 159.873391 
L 955.465772 159.22186 
L 955.844864 158.896094 
L 956.03441 158.765788 
L 956.223957 158.27714 
L 956.413503 158.114257 
L 956.982141 157.33242 
L 957.550779 156.518006 
L 957.929871 156.3877 
L 958.877602 155.214944 
L 959.256694 155.052061 
L 959.825332 154.986908 
L 960.204424 154.49826 
L 960.583517 154.40053 
L 961.341701 153.748999 
L 961.531247 153.586116 
L 962.099885 153.227774 
L 962.668524 152.51109 
L 962.85807 152.022442 
L 963.616254 151.826982 
L 963.995346 151.501217 
L 964.374438 150.882262 
L 964.943077 150.361037 
L 965.322169 149.057975 
L 965.511715 148.829939 
L 966.269899 148.53675 
L 967.407176 147.494301 
L 967.975814 147.103382 
L 968.16536 146.321545 
L 968.923545 145.70259 
L 969.113091 145.344248 
L 969.492183 145.116212 
L 969.871275 144.8556 
L 971.008552 144.00861 
L 971.766736 143.617691 
L 971.956282 143.519961 
L 972.335374 142.444935 
L 972.52492 142.347205 
L 972.904013 141.793404 
L 973.472651 141.011567 
L 973.851743 140.848684 
L 974.420381 139.871387 
L 974.609927 139.154703 
L 974.799473 138.894091 
L 975.178566 138.763784 
L 975.368112 138.372866 
L 977.074027 137.10238 
L 977.453119 136.418273 
L 977.642665 136.320543 
L 977.832211 132.37878 
L 978.211303 131.759825 
L 978.590395 131.238601 
L 978.779941 130.815105 
L 978.969487 130.782529 
L 979.34858 130.326457 
L 979.538126 129.64235 
L 980.864948 127.883216 
L 981.244041 125.66801 
L 981.433587 125.049056 
L 981.623133 123.974029 
L 981.812679 123.68084 
L 982.002225 122.117166 
L 982.381317 120.94441 
L 982.570863 120.064843 
L 983.329048 119.05497 
L 984.087232 117.523872 
L 984.65587 117.230683 
L 985.224509 116.579152 
L 985.603601 115.895044 
L 985.793147 115.438972 
L 985.982693 115.373819 
L 987.309516 113.256343 
L 987.499062 112.083587 
L 987.688608 111.920705 
L 988.0677 111.432056 
L 988.257246 111.39948 
L 988.825884 110.845678 
L 990.152707 108.500166 
L 990.342253 107.392564 
L 991.47953 104.916746 
L 991.669076 104.102332 
L 991.858622 103.841719 
L 992.616806 101.431054 
L 992.995898 100.584064 
L 993.564537 99.509038 
L 994.512267 96.642301 
L 994.891359 95.860464 
L 995.83909 91.755818 
L 996.028636 89.410306 
L 996.218182 89.28 
L 996.218182 89.28 
" clip-path="url(#p19c0748138)" style="fill: none; stroke: #1f77b4; stroke-width: 1.5; stroke-linecap: square"/>
   </g>
   <g id="patch_3">
    <path d="M 144 512.64 
L 144 69.12 
" style="fill: none; stroke: #000000; stroke-width: 0.8; stroke-linejoin: miter; stroke-linecap: square"/>
   </g>
   <g id="patch_4">
    <path d="M 1036.8 512.64 
L 1036.8 69.12 
" style="fill: none; stroke: #000000; stroke-width: 0.8; stroke-linejoin: miter; stroke-linecap: square"/>
   </g>
   <g id="patch_5">
    <path d="M 144 512.64 
L 1036.8 512.64 
" style="fill: none; stroke: #000000; stroke-width: 0.8; stroke-linejoin: miter; stroke-linecap: square"/>
   </g>
   <g id="patch_6">
    <path d="M 144 69.12 
L 1036.8 69.12 
" style="fill: none; stroke: #000000; stroke-width: 0.8; stroke-linejoin: miter; stroke-linecap: square"/>
   </g>
   <g id="text_15">
    <!-- Number of AEDs in the OpenStreetMap database in Poland from first edition, day by day. As at: 2025-11-01 -->
    <g transform="translate(144 63.12) scale(0.14 -0.14)">
     <defs>
      <path id="DejaVuSans-4e" d="M 628 4666 
L 1478 4666 
L 3547 763 
L 3547 4666 
L 4159 4666 
L 4159 0 
L 3309 0 
L 1241 3903 
L 1241 0 
L 628 0 
L 628 4666 
z
" transform="scale(0.015625)"/>
      <path id="DejaVuSans-75" d="M 544 1381 
L 544 3500 
L 1119 3500 
L 1119 1403 
Q 1119 906 1312 657 
Q 1506 409 1894 409 
Q 2359 409 2629 706 
Q 2900 1003 2900 1516 
L 2900 3500 
L 3475 3500 
L 3475 0 
L 2900 0 
L 2900 538 
Q 2691 219 2414 64 
Q 2138 -91 1772 -91 
Q 1169 -91 856 284 
Q 544 659 544 1381 
z
M 1991 3584 
L 1991 3584 
z
" transform="scale(0.015625)"/>
      <path id="DejaVuSans-6d" d="M 3328 2828 
Q 3544 3216 3844 3400 
Q 4144 3584 4550 3584 
Q 5097 3584 5394 3201 
Q 5691 2819 5691 2113 
L 5691 0 
L 5113 0 
L 5113 2094 
Q 5113 2597 4934 2840 
Q 4756 3084 4391 3084 
Q 3944 3084 3684 2787 
Q 3425 2491 3425 1978 
L 3425 0 
L 2847 0 
L 2847 2094 
Q 2847 2600 2669 2842 
Q 2491 3084 2119 3084 
Q 1678 3084 1418 2786 
Q 1159 2488 1159 1978 
L 1159 0 
L 581 0 
L 581 3500 
L 1159 3500 
L 1159 2956 
Q 1356 3278 1631 3431 
Q 1906 3584 2284 3584 
Q 2666 3584 2933 3390 
Q 3200 3197 3328 2828 
z
" transform="scale(0.015625)"/>
      <path id="DejaVuSans-62" d="M 3116 1747 
Q 3116 2381 2855 2742 
Q 2594 3103 2138 3103 
Q 1681 3103 1420 2742 
Q 1159 2381 1159 1747 
Q 1159 1113 1420 752 
Q 1681 391 2138 391 
Q 2594 391 2855 752 
Q 3116 1113 3116 1747 
z
M 1159 2969 
Q 1341 3281 1617 3432 
Q 1894 3584 2278 3584 
Q 2916 3584 3314 3078 
Q 3713 2572 3713 1747 
Q 3713 922 3314 415 
Q 2916 -91 2278 -91 
Q 1894 -91 1617 61 
Q 1341 213 1159 525 
L 1159 0 
L 581 0 
L 581 4863 
L 1159 4863 
L 1159 2969 
z
" transform="scale(0.015625)"/>
      <path id="DejaVuSans-65" d="M 3597 1894 
L 3597 1613 
L 953 1613 
Q 991 1019 1311 708 
Q 1631 397 2203 397 
Q 2534 397 2845 478 
Q 3156 559 3463 722 
L 3463 178 
Q 3153 47 2828 -22 
Q 2503 -91 2169 -91 
Q 1331 -91 842 396 
Q 353 884 353 1716 
Q 353 2575 817 3079 
Q 1281 3584 2069 3584 
Q 2775 3584 3186 3129 
Q 3597 2675 3597 1894 
z
M 3022 2063 
Q 3016 2534 2758 2815 
Q 2500 3097 2075 3097 
Q 1594 3097 1305 2825 
Q 1016 2553 972 2059 
L 3022 2063 
z
" transform="scale(0.015625)"/>
      <path id="DejaVuSans-72" d="M 2631 2963 
Q 2534 3019 2420 3045 
Q 2306 3072 2169 3072 
Q 1681 3072 1420 2755 
Q 1159 2438 1159 1844 
L 1159 0 
L 581 0 
L 581 3500 
L 1159 3500 
L 1159 2956 
Q 1341 3275 1631 3429 
Q 1922 3584 2338 3584 
Q 2397 3584 2469 3576 
Q 2541 3569 2628 3553 
L 2631 2963 
z
" transform="scale(0.015625)"/>
      <path id="DejaVuSans-20" transform="scale(0.015625)"/>
      <path id="DejaVuSans-6f" d="M 1959 3097 
Q 1497 3097 1228 2736 
Q 959 2375 959 1747 
Q 959 1119 1226 758 
Q 1494 397 1959 397 
Q 2419 397 2687 759 
Q 2956 1122 2956 1747 
Q 2956 2369 2687 2733 
Q 2419 3097 1959 3097 
z
M 1959 3584 
Q 2709 3584 3137 3096 
Q 3566 2609 3566 1747 
Q 3566 888 3137 398 
Q 2709 -91 1959 -91 
Q 1206 -91 779 398 
Q 353 888 353 1747 
Q 353 2609 779 3096 
Q 1206 3584 1959 3584 
z
" transform="scale(0.015625)"/>
      <path id="DejaVuSans-66" d="M 2375 4863 
L 2375 4384 
L 1825 4384 
Q 1516 4384 1395 4259 
Q 1275 4134 1275 3809 
L 1275 3500 
L 2222 3500 
L 2222 3053 
L 1275 3053 
L 1275 0 
L 697 0 
L 697 3053 
L 147 3053 
L 147 3500 
L 697 3500 
L 697 3744 
Q 697 4328 969 4595 
Q 1241 4863 1831 4863 
L 2375 4863 
z
" transform="scale(0.015625)"/>
      <path id="DejaVuSans-41" d="M 2188 4044 
L 1331 1722 
L 3047 1722 
L 2188 4044 
z
M 1831 4666 
L 2547 4666 
L 4325 0 
L 3669 0 
L 3244 1197 
L 1141 1197 
L 716 0 
L 50 0 
L 1831 4666 
z
" transform="scale(0.015625)"/>
      <path id="DejaVuSans-45" d="M 628 4666 
L 3578 4666 
L 3578 4134 
L 1259 4134 
L 1259 2753 
L 3481 2753 
L 3481 2222 
L 1259 2222 
L 1259 531 
L 3634 531 
L 3634 0 
L 628 0 
L 628 4666 
z
" transform="scale(0.015625)"/>
      <path id="DejaVuSans-44" d="M 1259 4147 
L 1259 519 
L 2022 519 
Q 2988 519 3436 956 
Q 3884 1394 3884 2338 
Q 3884 3275 3436 3711 
Q 2988 4147 2022 4147 
L 1259 4147 
z
M 628 4666 
L 1925 4666 
Q 3281 4666 3915 4102 
Q 4550 3538 4550 2338 
Q 4550 1131 3912 565 
Q 3275 0 1925 0 
L 628 0 
L 628 4666 
z
" transform="scale(0.015625)"/>
      <path id="DejaVuSans-73" d="M 2834 3397 
L 2834 2853 
Q 2591 2978 2328 3040 
Q 2066 3103 1784 3103 
Q 1356 3103 1142 2972 
Q 928 2841 928 2578 
Q 928 2378 1081 2264 
Q 1234 2150 1697 2047 
L 1894 2003 
Q 2506 1872 2764 1633 
Q 3022 1394 3022 966 
Q 3022 478 2636 193 
Q 2250 -91 1575 -91 
Q 1294 -91 989 -36 
Q 684 19 347 128 
L 347 722 
Q 666 556 975 473 
Q 1284 391 1588 391 
Q 1994 391 2212 530 
Q 2431 669 2431 922 
Q 2431 1156 2273 1281 
Q 2116 1406 1581 1522 
L 1381 1569 
Q 847 1681 609 1914 
Q 372 2147 372 2553 
Q 372 3047 722 3315 
Q 1072 3584 1716 3584 
Q 2034 3584 2315 3537 
Q 2597 3491 2834 3397 
z
" transform="scale(0.015625)"/>
      <path id="DejaVuSans-69" d="M 603 3500 
L 1178 3500 
L 1178 0 
L 603 0 
L 603 3500 
z
M 603 4863 
L 1178 4863 
L 1178 4134 
L 603 4134 
L 603 4863 
z
" transform="scale(0.015625)"/>
      <path id="DejaVuSans-6e" d="M 3513 2113 
L 3513 0 
L 2938 0 
L 2938 2094 
Q 2938 2591 2744 2837 
Q 2550 3084 2163 3084 
Q 1697 3084 1428 2787 
Q 1159 2491 1159 1978 
L 1159 0 
L 581 0 
L 581 3500 
L 1159 3500 
L 1159 2956 
Q 1366 3272 1645 3428 
Q 1925 3584 2291 3584 
Q 2894 3584 3203 3211 
Q 3513 2838 3513 2113 
z
" transform="scale(0.015625)"/>
      <path id="DejaVuSans-74" d="M 1172 4494 
L 1172 3500 
L 2356 3500 
L 2356 3053 
L 1172 3053 
L 1172 1153 
Q 1172 725 1289 603 
Q 1406 481 1766 481 
L 2356 481 
L 2356 0 
L 1766 0 
Q 1100 0 847 248 
Q 594 497 594 1153 
L 594 3053 
L 172 3053 
L 172 3500 
L 594 3500 
L 594 4494 
L 1172 4494 
z
" transform="scale(0.015625)"/>
      <path id="DejaVuSans-68" d="M 3513 2113 
L 3513 0 
L 2938 0 
L 2938 2094 
Q 2938 2591 2744 2837 
Q 2550 3084 2163 3084 
Q 1697 3084 1428 2787 
Q 1159 2491 1159 1978 
L 1159 0 
L 581 0 
L 581 4863 
L 1159 4863 
L 1159 2956 
Q 1366 3272 1645 3428 
Q 1925 3584 2291 3584 
Q 2894 3584 3203 3211 
Q 3513 2838 3513 2113 
z
" transform="scale(0.015625)"/>
      <path id="DejaVuSans-4f" d="M 2522 4238 
Q 1834 4238 1429 3725 
Q 1025 3213 1025 2328 
Q 1025 1447 1429 934 
Q 1834 422 2522 422 
Q 3209 422 3611 934 
Q 4013 1447 4013 2328 
Q 4013 3213 3611 3725 
Q 3209 4238 2522 4238 
z
M 2522 4750 
Q 3503 4750 4090 4092 
Q 4678 3434 4678 2328 
Q 4678 1225 4090 567 
Q 3503 -91 2522 -91 
Q 1538 -91 948 565 
Q 359 1222 359 2328 
Q 359 3434 948 4092 
Q 1538 4750 2522 4750 
z
" transform="scale(0.015625)"/>
      <path id="DejaVuSans-70" d="M 1159 525 
L 1159 -1331 
L 581 -1331 
L 581 3500 
L 1159 3500 
L 1159 2969 
Q 1341 3281 1617 3432 
Q 1894 3584 2278 3584 
Q 2916 3584 3314 3078 
Q 3713 2572 3713 1747 
Q 3713 922 3314 415 
Q 2916 -91 2278 -91 
Q 1894 -91 1617 61 
Q 1341 213 1159 525 
z
M 3116 1747 
Q 3116 2381 2855 2742 
Q 2594 3103 2138 3103 
Q 1681 3103 1420 2742 
Q 1159 2381 1159 1747 
Q 1159 1113 1420 752 
Q 1681 391 2138 391 
Q 2594 391 2855 752 
Q 3116 1113 3116 1747 
z
" transform="scale(0.015625)"/>
      <path id="DejaVuSans-53" d="M 3425 4513 
L 3425 3897 
Q 3066 4069 2747 4153 
Q 2428 4238 2131 4238 
Q 1616 4238 1336 4038 
Q 1056 3838 1056 3469 
Q 1056 3159 1242 3001 
Q 1428 2844 1947 2747 
L 2328 2669 
Q 3034 2534 3370 2195 
Q 3706 1856 3706 1288 
Q 3706 609 3251 259 
Q 2797 -91 1919 -91 
Q 1588 -91 1214 -16 
Q 841 59 441 206 
L 441 856 
Q 825 641 1194 531 
Q 1563 422 1919 422 
Q 2459 422 2753 634 
Q 3047 847 3047 1241 
Q 3047 1584 2836 1778 
Q 2625 1972 2144 2069 
L 1759 2144 
Q 1053 2284 737 2584 
Q 422 2884 422 3419 
Q 422 4038 858 4394 
Q 1294 4750 2059 4750 
Q 2388 4750 2728 4690 
Q 3069 4631 3425 4513 
z
" transform="scale(0.015625)"/>
      <path id="DejaVuSans-4d" d="M 628 4666 
L 1569 4666 
L 2759 1491 
L 3956 4666 
L 4897 4666 
L 4897 0 
L 4281 0 
L 4281 4097 
L 3078 897 
L 2444 897 
L 1241 4097 
L 1241 0 
L 628 0 
L 628 4666 
z
" transform="scale(0.015625)"/>
      <path id="DejaVuSans-61" d="M 2194 1759 
Q 1497 1759 1228 1600 
Q 959 1441 959 1056 
Q 959 750 1161 570 
Q 1363 391 1709 391 
Q 2188 391 2477 730 
Q 2766 1069 2766 1631 
L 2766 1759 
L 2194 1759 
z
M 3341 1997 
L 3341 0 
L 2766 0 
L 2766 531 
Q 2569 213 2275 61 
Q 1981 -91 1556 -91 
Q 1019 -91 701 211 
Q 384 513 384 1019 
Q 384 1609 779 1909 
Q 1175 2209 1959 2209 
L 2766 2209 
L 2766 2266 
Q 2766 2663 2505 2880 
Q 2244 3097 1772 3097 
Q 1472 3097 1187 3025 
Q 903 2953 641 2809 
L 641 3341 
Q 956 3463 1253 3523 
Q 1550 3584 1831 3584 
Q 2591 3584 2966 3190 
Q 3341 2797 3341 1997 
z
" transform="scale(0.015625)"/>
      <path id="DejaVuSans-64" d="M 2906 2969 
L 2906 4863 
L 3481 4863 
L 3481 0 
L 2906 0 
L 2906 525 
Q 2725 213 2448 61 
Q 2172 -91 1784 -91 
Q 1150 -91 751 415 
Q 353 922 353 1747 
Q 353 2572 751 3078 
Q 1150 3584 1784 3584 
Q 2172 3584 2448 3432 
Q 2725 3281 2906 2969 
z
M 947 1747 
Q 947 1113 1208 752 
Q 1469 391 1925 391 
Q 2381 391 2643 752 
Q 2906 1113 2906 1747 
Q 2906 2381 2643 2742 
Q 2381 3103 1925 3103 
Q 1469 3103 1208 2742 
Q 947 2381 947 1747 
z
" transform="scale(0.015625)"/>
      <path id="DejaVuSans-50" d="M 1259 4147 
L 1259 2394 
L 2053 2394 
Q 2494 2394 2734 2622 
Q 2975 2850 2975 3272 
Q 2975 3691 2734 3919 
Q 2494 4147 2053 4147 
L 1259 4147 
z
M 628 4666 
L 2053 4666 
Q 2838 4666 3239 4311 
Q 3641 3956 3641 3272 
Q 3641 2581 3239 2228 
Q 2838 1875 2053 1875 
L 1259 1875 
L 1259 0 
L 628 0 
L 628 4666 
z
" transform="scale(0.015625)"/>
      <path id="DejaVuSans-6c" d="M 603 4863 
L 1178 4863 
L 1178 0 
L 603 0 
L 603 4863 
z
" transform="scale(0.015625)"/>
      <path id="DejaVuSans-2c" d="M 750 794 
L 1409 794 
L 1409 256 
L 897 -744 
L 494 -744 
L 750 256 
L 750 794 
z
" transform="scale(0.015625)"/>
      <path id="DejaVuSans-79" d="M 2059 -325 
Q 1816 -950 1584 -1140 
Q 1353 -1331 966 -1331 
L 506 -1331 
L 506 -850 
L 844 -850 
Q 1081 -850 1212 -737 
Q 1344 -625 1503 -206 
L 1606 56 
L 191 3500 
L 800 3500 
L 1894 763 
L 2988 3500 
L 3597 3500 
L 2059 -325 
z
" transform="scale(0.015625)"/>
      <path id="DejaVuSans-2e" d="M 684 794 
L 1344 794 
L 1344 0 
L 684 0 
L 684 794 
z
" transform="scale(0.015625)"/>
      <path id="DejaVuSans-3a" d="M 750 794 
L 1409 794 
L 1409 0 
L 750 0 
L 750 794 
z
M 750 3309 
L 1409 3309 
L 1409 2516 
L 750 2516 
L 750 3309 
z
" transform="scale(0.015625)"/>
      <path id="DejaVuSans-35" d="M 691 4666 
L 3169 4666 
L 3169 4134 
L 1269 4134 
L 1269 2991 
Q 1406 3038 1543 3061 
Q 1681 3084 1819 3084 
Q 2600 3084 3056 2656 
Q 3513 2228 3513 1497 
Q 3513 744 3044 326 
Q 2575 -91 1722 -91 
Q 1428 -91 1123 -41 
Q 819 9 494 109 
L 494 744 
Q 775 591 1075 516 
Q 1375 441 1709 441 
Q 2250 441 2565 725 
Q 2881 1009 2881 1497 
Q 2881 1984 2565 2268 
Q 2250 2553 1709 2553 
Q 1456 2553 1204 2497 
Q 953 2441 691 2322 
L 691 4666 
z
" transform="scale(0.015625)"/>
      <path id="DejaVuSans-2d" d="M 313 2009 
L 1997 2009 
L 1997 1497 
L 313 1497 
L 313 2009 
z
" transform="scale(0.015625)"/>
     </defs>
     <use xlink:href="#DejaVuSans-4e"/>
     <use xlink:href="#DejaVuSans-75" x="74.804688"/>
     <use xlink:href="#DejaVuSans-6d" x="138.183594"/>
     <use xlink:href="#DejaVuSans-62" x="235.595703"/>
     <use xlink:href="#DejaVuSans-65" x="299.072266"/>
     <use xlink:href="#DejaVuSans-72" x="360.595703"/>
     <use xlink:href="#DejaVuSans-20" x="401.708984"/>
     <use xlink:href="#DejaVuSans-6f" x="433.496094"/>
     <use xlink:href="#DejaVuSans-66" x="494.677734"/>
     <use xlink:href="#DejaVuSans-20" x="529.882812"/>
     <use xlink:href="#DejaVuSans-41" x="561.669922"/>
     <use xlink:href="#DejaVuSans-45" x="630.078125"/>
     <use xlink:href="#DejaVuSans-44" x="693.261719"/>
     <use xlink:href="#DejaVuSans-73" x="770.263672"/>
     <use xlink:href="#DejaVuSans-20" x="822.363281"/>
     <use xlink:href="#DejaVuSans-69" x="854.150391"/>
     <use xlink:href="#DejaVuSans-6e" x="881.933594"/>
     <use xlink:href="#DejaVuSans-20" x="945.3125"/>
     <use xlink:href="#DejaVuSans-74" x="977.099609"/>
     <use xlink:href="#DejaVuSans-68" x="1016.308594"/>
     <use xlink:href="#DejaVuSans-65" x="1079.6875"/>
     <use xlink:href="#DejaVuSans-20" x="1141.210938"/>
     <use xlink:href="#DejaVuSans-4f" x="1172.998047"/>
     <use xlink:href="#DejaVuSans-70" x="1251.708984"/>
     <use xlink:href="#DejaVuSans-65" x="1315.185547"/>
     <use xlink:href="#DejaVuSans-6e" x="1376.708984"/>
     <use xlink:href="#DejaVuSans-53" x="1440.087891"/>
     <use xlink:href="#DejaVuSans-74" x="1503.564453"/>
     <use xlink:href="#DejaVuSans-72" x="1542.773438"/>
     <use xlink:href="#DejaVuSans-65" x="1581.636719"/>
     <use xlink:href="#DejaVuSans-65" x="1643.160156"/>
     <use xlink:href="#DejaVuSans-74" x="1704.683594"/>
     <use xlink:href="#DejaVuSans-4d" x="1743.892578"/>
     <use xlink:href="#DejaVuSans-61" x="1830.171875"/>
     <use xlink:href="#DejaVuSans-70" x="1891.451172"/>
     <use xlink:href="#DejaVuSans-20" x="1954.927734"/>
     <use xlink:href="#DejaVuSans-64" x="1986.714844"/>
     <use xlink:href="#DejaVuSans-61" x="2050.191406"/>
     <use xlink:href="#DejaVuSans-74" x="2111.470703"/>
     <use xlink:href="#DejaVuSans-61" x="2150.679688"/>
     <use xlink:href="#DejaVuSans-62" x="2211.958984"/>
     <use xlink:href="#DejaVuSans-61" x="2275.435547"/>
     <use xlink:href="#DejaVuSans-73" x="2336.714844"/>
     <use xlink:href="#DejaVuSans-65" x="2388.814453"/>
     <use xlink:href="#DejaVuSans-20" x="2450.337891"/>
     <use xlink:href="#DejaVuSans-69" x="2482.125"/>
     <use xlink:href="#DejaVuSans-6e" x="2509.908203"/>
     <use xlink:href="#DejaVuSans-20" x="2573.287109"/>
     <use xlink:href="#DejaVuSans-50" x="2605.074219"/>
     <use xlink:href="#DejaVuSans-6f" x="2661.751953"/>
     <use xlink:href="#DejaVuSans-6c" x="2722.933594"/>
     <use xlink:href="#DejaVuSans-61" x="2750.716797"/>
     <use xlink:href="#DejaVuSans-6e" x="2811.996094"/>
     <use xlink:href="#DejaVuSans-64" x="2875.375"/>
     <use xlink:href="#DejaVuSans-20" x="2938.851562"/>
     <use xlink:href="#DejaVuSans-66" x="2970.638672"/>
     <use xlink:href="#DejaVuSans-72" x="3005.84375"/>
     <use xlink:href="#DejaVuSans-6f" x="3044.707031"/>
     <use xlink:href="#DejaVuSans-6d" x="3105.888672"/>
     <use xlink:href="#DejaVuSans-20" x="3203.300781"/>
     <use xlink:href="#DejaVuSans-66" x="3235.087891"/>
     <use xlink:href="#DejaVuSans-69" x="3270.292969"/>
     <use xlink:href="#DejaVuSans-72" x="3298.076172"/>
     <use xlink:href="#DejaVuSans-73" x="3339.189453"/>
     <use xlink:href="#DejaVuSans-74" x="3391.289062"/>
     <use xlink:href="#DejaVuSans-20" x="3430.498047"/>
     <use xlink:href="#DejaVuSans-65" x="3462.285156"/>
     <use xlink:href="#DejaVuSans-64" x="3523.808594"/>
     <use xlink:href="#DejaVuSans-69" x="3587.285156"/>
     <use xlink:href="#DejaVuSans-74" x="3615.068359"/>
     <use xlink:href="#DejaVuSans-69" x="3654.277344"/>
     <use xlink:href="#DejaVuSans-6f" x="3682.060547"/>
     <use xlink:href="#DejaVuSans-6e" x="3743.242188"/>
     <use xlink:href="#DejaVuSans-2c" x="3806.621094"/>
     <use xlink:href="#DejaVuSans-20" x="3838.408203"/>
     <use xlink:href="#DejaVuSans-64" x="3870.195312"/>
     <use xlink:href="#DejaVuSans-61" x="3933.671875"/>
     <use xlink:href="#DejaVuSans-79" x="3994.951172"/>
     <use xlink:href="#DejaVuSans-20" x="4054.130859"/>
     <use xlink:href="#DejaVuSans-62" x="4085.917969"/>
     <use xlink:href="#DejaVuSans-79" x="4149.394531"/>
     <use xlink:href="#DejaVuSans-20" x="4208.574219"/>
     <use xlink:href="#DejaVuSans-64" x="4240.361328"/>
     <use xlink:href="#DejaVuSans-61" x="4303.837891"/>
     <use xlink:href="#DejaVuSans-79" x="4365.117188"/>
     <use xlink:href="#DejaVuSans-2e" x="4410.046875"/>
     <use xlink:href="#DejaVuSans-20" x="4441.833984"/>
     <use xlink:href="#DejaVuSans-41" x="4473.621094"/>
     <use xlink:href="#DejaVuSans-73" x="4542.029297"/>
     <use xlink:href="#DejaVuSans-20" x="4594.128906"/>
     <use xlink:href="#DejaVuSans-61" x="4625.916016"/>
     <use xlink:href="#DejaVuSans-74" x="4687.195312"/>
     <use xlink:href="#DejaVuSans-3a" x="4726.404297"/>
     <use xlink:href="#DejaVuSans-20" x="4760.095703"/>
     <use xlink:href="#DejaVuSans-32" x="4791.882812"/>
     <use xlink:href="#DejaVuSans-30" x="4855.505859"/>
     <use xlink:href="#DejaVuSans-32" x="4919.128906"/>
     <use xlink:href="#DejaVuSans-35" x="4982.751953"/>
     <use xlink:href="#DejaVuSans-2d" x="5046.375"/>
     <use xlink:href="#DejaVuSans-31" x="5082.458984"/>
     <use xlink:href="#DejaVuSans-31" x="5146.082031"/>
     <use xlink:href="#DejaVuSans-2d" x="5209.705078"/>
     <use xlink:href="#DejaVuSans-30" x="5245.789062"/>
     <use xlink:href="#DejaVuSans-31" x="5309.412109"/>
    </g>
   </g>
  </g>
 </g>
 <defs>
  <clipPath id="p19c0748138">
   <rect x="144" y="69.12" width="892.8" height="443.52"/>
  </clipPath>
 </defs>
</svg>
