<?xml version="1.0" encoding="utf-8" standalone="no"?>
<!DOCTYPE svg PUBLIC "-//W3C//DTD SVG 1.1//EN"
  "http://www.w3.org/Graphics/SVG/1.1/DTD/svg11.dtd">
<svg xmlns:xlink="http://www.w3.org/1999/xlink" width="1152pt" height="576pt" viewBox="0 0 1152 576" xmlns="http://www.w3.org/2000/svg" version="1.1">
 <metadata>
  <rdf:RDF xmlns:dc="http://purl.org/dc/elements/1.1/" xmlns:cc="http://creativecommons.org/ns#" xmlns:rdf="http://www.w3.org/1999/02/22-rdf-syntax-ns#">
   <cc:Work>
    <dc:type rdf:resource="http://purl.org/dc/dcmitype/StillImage"/>
    <dc:date>1980-01-01T00:00:00+00:00</dc:date>
    <dc:format>image/svg+xml</dc:format>
    <dc:creator>
     <cc:Agent>
      <dc:title>Matplotlib v3.9.1, https://matplotlib.org/</dc:title>
     </cc:Agent>
    </dc:creator>
   </cc:Work>
  </rdf:RDF>
 </metadata>
 <defs>
  <style type="text/css">*{stroke-linejoin: round; stroke-linecap: butt}</style>
 </defs>
 <g id="figure_1">
  <g id="patch_1">
   <path d="M 0 576 
L 1152 576 
L 1152 0 
L 0 0 
z
" style="fill: #ffffff"/>
  </g>
  <g id="axes_1">
   <g id="patch_2">
    <path d="M 144 512.64 
L 1036.8 512.64 
L 1036.8 69.12 
L 144 69.12 
z
" style="fill: #ffffff"/>
   </g>
   <g id="matplotlib.axis_1">
    <g id="xtick_1">
     <g id="line2d_1">
      <defs>
       <path id="ma5ad2ab84a" d="M 0 0 
L 0 3.5 
" style="stroke: #000000; stroke-width: 0.8"/>
      </defs>
      <g>
       <use xlink:href="#ma5ad2ab84a" x="177.186498" y="512.64" style="stroke: #000000; stroke-width: 0.8"/>
      </g>
     </g>
     <g id="text_1">
      <!-- 2014 -->
      <g transform="translate(164.461498 527.238438) scale(0.1 -0.1)">
       <defs>
        <path id="DejaVuSans-32" d="M 1228 531 
L 3431 531 
L 3431 0 
L 469 0 
L 469 531 
Q 828 903 1448 1529 
Q 2069 2156 2228 2338 
Q 2531 2678 2651 2914 
Q 2772 3150 2772 3378 
Q 2772 3750 2511 3984 
Q 2250 4219 1831 4219 
Q 1534 4219 1204 4116 
Q 875 4013 500 3803 
L 500 4441 
Q 881 4594 1212 4672 
Q 1544 4750 1819 4750 
Q 2544 4750 2975 4387 
Q 3406 4025 3406 3419 
Q 3406 3131 3298 2873 
Q 3191 2616 2906 2266 
Q 2828 2175 2409 1742 
Q 1991 1309 1228 531 
z
" transform="scale(0.015625)"/>
        <path id="DejaVuSans-30" d="M 2034 4250 
Q 1547 4250 1301 3770 
Q 1056 3291 1056 2328 
Q 1056 1369 1301 889 
Q 1547 409 2034 409 
Q 2525 409 2770 889 
Q 3016 1369 3016 2328 
Q 3016 3291 2770 3770 
Q 2525 4250 2034 4250 
z
M 2034 4750 
Q 2819 4750 3233 4129 
Q 3647 3509 3647 2328 
Q 3647 1150 3233 529 
Q 2819 -91 2034 -91 
Q 1250 -91 836 529 
Q 422 1150 422 2328 
Q 422 3509 836 4129 
Q 1250 4750 2034 4750 
z
" transform="scale(0.015625)"/>
        <path id="DejaVuSans-31" d="M 794 531 
L 1825 531 
L 1825 4091 
L 703 3866 
L 703 4441 
L 1819 4666 
L 2450 4666 
L 2450 531 
L 3481 531 
L 3481 0 
L 794 0 
L 794 531 
z
" transform="scale(0.015625)"/>
        <path id="DejaVuSans-34" d="M 2419 4116 
L 825 1625 
L 2419 1625 
L 2419 4116 
z
M 2253 4666 
L 3047 4666 
L 3047 1625 
L 3713 1625 
L 3713 1100 
L 3047 1100 
L 3047 0 
L 2419 0 
L 2419 1100 
L 313 1100 
L 313 1709 
L 2253 4666 
z
" transform="scale(0.015625)"/>
       </defs>
       <use xlink:href="#DejaVuSans-32"/>
       <use xlink:href="#DejaVuSans-30" x="63.623047"/>
       <use xlink:href="#DejaVuSans-31" x="127.246094"/>
       <use xlink:href="#DejaVuSans-34" x="190.869141"/>
      </g>
     </g>
    </g>
    <g id="xtick_2">
     <g id="line2d_2">
      <g>
       <use xlink:href="#ma5ad2ab84a" x="312.151087" y="512.64" style="stroke: #000000; stroke-width: 0.8"/>
      </g>
     </g>
     <g id="text_2">
      <!-- 2016 -->
      <g transform="translate(299.426087 527.238438) scale(0.1 -0.1)">
       <defs>
        <path id="DejaVuSans-36" d="M 2113 2584 
Q 1688 2584 1439 2293 
Q 1191 2003 1191 1497 
Q 1191 994 1439 701 
Q 1688 409 2113 409 
Q 2538 409 2786 701 
Q 3034 994 3034 1497 
Q 3034 2003 2786 2293 
Q 2538 2584 2113 2584 
z
M 3366 4563 
L 3366 3988 
Q 3128 4100 2886 4159 
Q 2644 4219 2406 4219 
Q 1781 4219 1451 3797 
Q 1122 3375 1075 2522 
Q 1259 2794 1537 2939 
Q 1816 3084 2150 3084 
Q 2853 3084 3261 2657 
Q 3669 2231 3669 1497 
Q 3669 778 3244 343 
Q 2819 -91 2113 -91 
Q 1303 -91 875 529 
Q 447 1150 447 2328 
Q 447 3434 972 4092 
Q 1497 4750 2381 4750 
Q 2619 4750 2861 4703 
Q 3103 4656 3366 4563 
z
" transform="scale(0.015625)"/>
       </defs>
       <use xlink:href="#DejaVuSans-32"/>
       <use xlink:href="#DejaVuSans-30" x="63.623047"/>
       <use xlink:href="#DejaVuSans-31" x="127.246094"/>
       <use xlink:href="#DejaVuSans-36" x="190.869141"/>
      </g>
     </g>
    </g>
    <g id="xtick_3">
     <g id="line2d_3">
      <g>
       <use xlink:href="#ma5ad2ab84a" x="447.300559" y="512.64" style="stroke: #000000; stroke-width: 0.8"/>
      </g>
     </g>
     <g id="text_3">
      <!-- 2018 -->
      <g transform="translate(434.575559 527.238438) scale(0.1 -0.1)">
       <defs>
        <path id="DejaVuSans-38" d="M 2034 2216 
Q 1584 2216 1326 1975 
Q 1069 1734 1069 1313 
Q 1069 891 1326 650 
Q 1584 409 2034 409 
Q 2484 409 2743 651 
Q 3003 894 3003 1313 
Q 3003 1734 2745 1975 
Q 2488 2216 2034 2216 
z
M 1403 2484 
Q 997 2584 770 2862 
Q 544 3141 544 3541 
Q 544 4100 942 4425 
Q 1341 4750 2034 4750 
Q 2731 4750 3128 4425 
Q 3525 4100 3525 3541 
Q 3525 3141 3298 2862 
Q 3072 2584 2669 2484 
Q 3125 2378 3379 2068 
Q 3634 1759 3634 1313 
Q 3634 634 3220 271 
Q 2806 -91 2034 -91 
Q 1263 -91 848 271 
Q 434 634 434 1313 
Q 434 1759 690 2068 
Q 947 2378 1403 2484 
z
M 1172 3481 
Q 1172 3119 1398 2916 
Q 1625 2713 2034 2713 
Q 2441 2713 2670 2916 
Q 2900 3119 2900 3481 
Q 2900 3844 2670 4047 
Q 2441 4250 2034 4250 
Q 1625 4250 1398 4047 
Q 1172 3844 1172 3481 
z
" transform="scale(0.015625)"/>
       </defs>
       <use xlink:href="#DejaVuSans-32"/>
       <use xlink:href="#DejaVuSans-30" x="63.623047"/>
       <use xlink:href="#DejaVuSans-31" x="127.246094"/>
       <use xlink:href="#DejaVuSans-38" x="190.869141"/>
      </g>
     </g>
    </g>
    <g id="xtick_4">
     <g id="line2d_4">
      <g>
       <use xlink:href="#ma5ad2ab84a" x="582.265148" y="512.64" style="stroke: #000000; stroke-width: 0.8"/>
      </g>
     </g>
     <g id="text_4">
      <!-- 2020 -->
      <g transform="translate(569.540148 527.238438) scale(0.1 -0.1)">
       <use xlink:href="#DejaVuSans-32"/>
       <use xlink:href="#DejaVuSans-30" x="63.623047"/>
       <use xlink:href="#DejaVuSans-32" x="127.246094"/>
       <use xlink:href="#DejaVuSans-30" x="190.869141"/>
      </g>
     </g>
    </g>
    <g id="xtick_5">
     <g id="line2d_5">
      <g>
       <use xlink:href="#ma5ad2ab84a" x="717.41462" y="512.64" style="stroke: #000000; stroke-width: 0.8"/>
      </g>
     </g>
     <g id="text_5">
      <!-- 2022 -->
      <g transform="translate(704.68962 527.238438) scale(0.1 -0.1)">
       <use xlink:href="#DejaVuSans-32"/>
       <use xlink:href="#DejaVuSans-30" x="63.623047"/>
       <use xlink:href="#DejaVuSans-32" x="127.246094"/>
       <use xlink:href="#DejaVuSans-32" x="190.869141"/>
      </g>
     </g>
    </g>
    <g id="xtick_6">
     <g id="line2d_6">
      <g>
       <use xlink:href="#ma5ad2ab84a" x="852.379209" y="512.64" style="stroke: #000000; stroke-width: 0.8"/>
      </g>
     </g>
     <g id="text_6">
      <!-- 2024 -->
      <g transform="translate(839.654209 527.238438) scale(0.1 -0.1)">
       <use xlink:href="#DejaVuSans-32"/>
       <use xlink:href="#DejaVuSans-30" x="63.623047"/>
       <use xlink:href="#DejaVuSans-32" x="127.246094"/>
       <use xlink:href="#DejaVuSans-34" x="190.869141"/>
      </g>
     </g>
    </g>
    <g id="xtick_7">
     <g id="line2d_7">
      <g>
       <use xlink:href="#ma5ad2ab84a" x="987.528681" y="512.64" style="stroke: #000000; stroke-width: 0.8"/>
      </g>
     </g>
     <g id="text_7">
      <!-- 2026 -->
      <g transform="translate(974.803681 527.238438) scale(0.1 -0.1)">
       <use xlink:href="#DejaVuSans-32"/>
       <use xlink:href="#DejaVuSans-30" x="63.623047"/>
       <use xlink:href="#DejaVuSans-32" x="127.246094"/>
       <use xlink:href="#DejaVuSans-36" x="190.869141"/>
      </g>
     </g>
    </g>
   </g>
   <g id="matplotlib.axis_2">
    <g id="ytick_1">
     <g id="line2d_8">
      <defs>
       <path id="m6c428d027b" d="M 0 0 
L -3.5 0 
" style="stroke: #000000; stroke-width: 0.8"/>
      </defs>
      <g>
       <use xlink:href="#m6c428d027b" x="144" y="492.50836" style="stroke: #000000; stroke-width: 0.8"/>
      </g>
     </g>
     <g id="text_8">
      <!-- 0 -->
      <g transform="translate(130.6375 496.307579) scale(0.1 -0.1)">
       <use xlink:href="#DejaVuSans-30"/>
      </g>
     </g>
    </g>
    <g id="ytick_2">
     <g id="line2d_9">
      <g>
       <use xlink:href="#m6c428d027b" x="144" y="435.787533" style="stroke: #000000; stroke-width: 0.8"/>
      </g>
     </g>
     <g id="text_9">
      <!-- 2000 -->
      <g transform="translate(111.55 439.586752) scale(0.1 -0.1)">
       <use xlink:href="#DejaVuSans-32"/>
       <use xlink:href="#DejaVuSans-30" x="63.623047"/>
       <use xlink:href="#DejaVuSans-30" x="127.246094"/>
       <use xlink:href="#DejaVuSans-30" x="190.869141"/>
      </g>
     </g>
    </g>
    <g id="ytick_3">
     <g id="line2d_10">
      <g>
       <use xlink:href="#m6c428d027b" x="144" y="379.066706" style="stroke: #000000; stroke-width: 0.8"/>
      </g>
     </g>
     <g id="text_10">
      <!-- 4000 -->
      <g transform="translate(111.55 382.865925) scale(0.1 -0.1)">
       <use xlink:href="#DejaVuSans-34"/>
       <use xlink:href="#DejaVuSans-30" x="63.623047"/>
       <use xlink:href="#DejaVuSans-30" x="127.246094"/>
       <use xlink:href="#DejaVuSans-30" x="190.869141"/>
      </g>
     </g>
    </g>
    <g id="ytick_4">
     <g id="line2d_11">
      <g>
       <use xlink:href="#m6c428d027b" x="144" y="322.345879" style="stroke: #000000; stroke-width: 0.8"/>
      </g>
     </g>
     <g id="text_11">
      <!-- 6000 -->
      <g transform="translate(111.55 326.145098) scale(0.1 -0.1)">
       <use xlink:href="#DejaVuSans-36"/>
       <use xlink:href="#DejaVuSans-30" x="63.623047"/>
       <use xlink:href="#DejaVuSans-30" x="127.246094"/>
       <use xlink:href="#DejaVuSans-30" x="190.869141"/>
      </g>
     </g>
    </g>
    <g id="ytick_5">
     <g id="line2d_12">
      <g>
       <use xlink:href="#m6c428d027b" x="144" y="265.625052" style="stroke: #000000; stroke-width: 0.8"/>
      </g>
     </g>
     <g id="text_12">
      <!-- 8000 -->
      <g transform="translate(111.55 269.42427) scale(0.1 -0.1)">
       <use xlink:href="#DejaVuSans-38"/>
       <use xlink:href="#DejaVuSans-30" x="63.623047"/>
       <use xlink:href="#DejaVuSans-30" x="127.246094"/>
       <use xlink:href="#DejaVuSans-30" x="190.869141"/>
      </g>
     </g>
    </g>
    <g id="ytick_6">
     <g id="line2d_13">
      <g>
       <use xlink:href="#m6c428d027b" x="144" y="208.904225" style="stroke: #000000; stroke-width: 0.8"/>
      </g>
     </g>
     <g id="text_13">
      <!-- 10000 -->
      <g transform="translate(105.1875 212.703443) scale(0.1 -0.1)">
       <use xlink:href="#DejaVuSans-31"/>
       <use xlink:href="#DejaVuSans-30" x="63.623047"/>
       <use xlink:href="#DejaVuSans-30" x="127.246094"/>
       <use xlink:href="#DejaVuSans-30" x="190.869141"/>
       <use xlink:href="#DejaVuSans-30" x="254.492188"/>
      </g>
     </g>
    </g>
    <g id="ytick_7">
     <g id="line2d_14">
      <g>
       <use xlink:href="#m6c428d027b" x="144" y="152.183397" style="stroke: #000000; stroke-width: 0.8"/>
      </g>
     </g>
     <g id="text_14">
      <!-- 12000 -->
      <g transform="translate(105.1875 155.982616) scale(0.1 -0.1)">
       <use xlink:href="#DejaVuSans-31"/>
       <use xlink:href="#DejaVuSans-32" x="63.623047"/>
       <use xlink:href="#DejaVuSans-30" x="127.246094"/>
       <use xlink:href="#DejaVuSans-30" x="190.869141"/>
       <use xlink:href="#DejaVuSans-30" x="254.492188"/>
      </g>
     </g>
    </g>
    <g id="ytick_8">
     <g id="line2d_15">
      <g>
       <use xlink:href="#m6c428d027b" x="144" y="95.46257" style="stroke: #000000; stroke-width: 0.8"/>
      </g>
     </g>
     <g id="text_15">
      <!-- 14000 -->
      <g transform="translate(105.1875 99.261789) scale(0.1 -0.1)">
       <use xlink:href="#DejaVuSans-31"/>
       <use xlink:href="#DejaVuSans-34" x="63.623047"/>
       <use xlink:href="#DejaVuSans-30" x="127.246094"/>
       <use xlink:href="#DejaVuSans-30" x="190.869141"/>
       <use xlink:href="#DejaVuSans-30" x="254.492188"/>
      </g>
     </g>
    </g>
   </g>
   <g id="line2d_16">
    <path d="M 184.581818 492.48 
L 186.245765 492.423279 
L 285.897701 492.281477 
L 453.216815 492.111315 
L 487.42017 491.997873 
L 500.546863 491.912792 
L 532.531621 491.742629 
L 535.674632 491.685908 
L 558.785007 491.572467 
L 588.366287 491.402304 
L 588.736053 491.175421 
L 592.618596 491.033619 
L 626.821951 490.891817 
L 651.41139 490.750015 
L 665.64738 490.551492 
L 693.37983 489.842482 
L 699.850735 489.473796 
L 709.464651 489.275273 
L 713.901843 488.225938 
L 714.086726 488.112496 
L 715.750673 488.027415 
L 716.490205 487.630369 
L 716.675088 486.97808 
L 717.044854 486.807917 
L 717.229737 486.779557 
L 717.41462 485.872024 
L 718.523918 485.474978 
L 718.893684 484.992851 
L 719.26345 484.851049 
L 719.448333 484.510724 
L 719.633216 483.744993 
L 720.002982 483.121064 
L 720.187865 482.298612 
L 720.372748 480.738789 
L 720.927397 479.717814 
L 721.297163 474.6413 
L 721.482046 474.102452 
L 721.851812 470.841004 
L 722.036695 470.302157 
L 722.221578 468.884136 
L 722.406461 468.799055 
L 722.96111 467.012349 
L 723.145993 463.01353 
L 723.330876 462.673205 
L 723.700642 461.567149 
L 723.885525 461.482068 
L 724.070408 460.886499 
L 724.255291 458.107179 
L 724.440174 457.454889 
L 724.625057 457.426529 
L 724.80994 455.4413 
L 724.994823 455.186056 
L 725.364589 455.044254 
L 726.104121 453.200827 
L 726.473887 452.633619 
L 727.028536 451.102157 
L 727.398302 446.848095 
L 727.768068 444.834505 
L 728.322717 444.749424 
L 728.692483 444.550901 
L 729.432015 443.444845 
L 729.801781 443.388124 
L 730.171547 441.03421 
L 730.35643 441.005849 
L 730.726196 440.608804 
L 730.911079 439.587829 
L 731.280845 439.247504 
L 731.465728 439.105702 
L 731.650611 438.623575 
L 732.20526 438.453412 
L 732.575026 438.198168 
L 732.944792 437.148833 
L 733.129675 437.063752 
L 733.499441 436.638346 
L 734.238973 436.326381 
L 734.423856 435.362127 
L 734.793622 435.163604 
L 734.978505 433.320177 
L 735.348271 433.263456 
L 735.718037 432.724609 
L 735.90292 432.185761 
L 736.457569 432.072319 
L 736.642452 431.902157 
L 737.012218 431.363309 
L 737.197101 431.334948 
L 737.566867 430.909542 
L 737.936633 430.7961 
L 738.121516 429.519882 
L 739.230814 429.37808 
L 739.60058 429.151196 
L 740.340112 429.066115 
L 740.524995 428.952674 
L 743.113357 428.300384 
L 743.483123 428.073501 
L 744.407538 427.960059 
L 745.14707 427.619734 
L 746.9959 427.279409 
L 747.735432 425.237459 
L 748.659847 425.124018 
L 748.84473 425.067297 
L 750.323794 424.925495 
L 751.063326 424.670251 
L 752.172624 424.528449 
L 754.39122 423.762718 
L 754.576103 423.592555 
L 755.315635 423.365672 
L 756.24005 423.308951 
L 756.424933 423.110428 
L 756.794699 423.082068 
L 756.979582 422.656662 
L 757.164465 422.599941 
L 757.349348 422.004372 
L 760.122593 421.493885 
L 760.307476 421.15356 
L 761.601657 420.869956 
L 762.156306 420.699793 
L 762.895838 420.557991 
L 763.63537 420.387829 
L 764.559785 420.217666 
L 766.408615 419.537016 
L 766.593498 418.969808 
L 767.517913 418.374239 
L 767.702796 418.118996 
L 768.627211 417.466706 
L 768.996977 416.871137 
L 769.18186 416.842777 
L 769.551626 416.218848 
L 770.291158 415.481477 
L 770.845807 415.396396 
L 771.215573 415.141152 
L 771.400456 415.056071 
L 771.585339 414.772467 
L 772.509754 414.573944 
L 772.694637 414.3187 
L 774.543467 414.006736 
L 774.72835 413.864934 
L 775.652765 413.751492 
L 776.762063 413.354446 
L 777.501595 413.212644 
L 777.871361 412.730517 
L 778.241127 412.531994 
L 779.165542 411.964786 
L 779.350425 411.312496 
L 780.089957 411.113973 
L 780.829489 410.830369 
L 782.493435 410.007917 
L 782.678318 409.724313 
L 783.232967 409.554151 
L 783.602733 409.355628 
L 784.157382 409.185465 
L 784.527148 406.264343 
L 784.712031 405.328449 
L 784.896914 403.626824 
L 785.081797 403.428301 
L 785.636446 401.641595 
L 786.191095 400.762422 
L 786.560861 400.535539 
L 786.745744 400.365377 
L 786.930627 399.514564 
L 787.11551 399.2026 
L 787.485276 399.117518 
L 788.039925 398.436869 
L 788.224808 397.926381 
L 788.779457 397.330812 
L 788.96434 396.565081 
L 789.888755 395.232142 
L 790.81317 394.835096 
L 790.998053 394.097725 
L 791.552702 393.842482 
L 792.292234 393.105111 
L 792.477117 392.566263 
L 792.662 392.537903 
L 793.216649 391.999055 
L 793.586415 391.970694 
L 793.771298 391.68709 
L 794.141064 391.516928 
L 794.695713 391.063161 
L 795.065479 390.864638 
L 795.250362 390.382511 
L 796.544543 389.503338 
L 796.729426 389.418257 
L 797.099192 388.368922 
L 797.653841 388.170399 
L 798.20849 388.028597 
L 798.578256 387.518109 
L 798.948022 387.262866 
L 799.502671 386.440414 
L 800.796852 386.128449 
L 801.351501 385.362718 
L 802.091033 385.220916 
L 803.015448 384.625347 
L 803.200331 384.596987 
L 803.75498 384.199941 
L 804.124746 384.086499 
L 804.494512 384.058139 
L 804.679395 383.887976 
L 804.864278 383.43421 
L 805.60381 383.235687 
L 805.788693 382.952083 
L 805.973576 382.923722 
L 806.158459 382.413235 
L 806.897991 382.186352 
L 807.267757 382.10127 
L 807.637523 381.846027 
L 809.671236 381.108656 
L 809.856119 380.371285 
L 810.225885 380.116041 
L 810.780534 379.945879 
L 811.335183 379.662275 
L 812.074715 379.548833 
L 812.259598 378.783102 
L 812.814247 378.556219 
L 812.99913 378.386056 
L 813.738662 378.244254 
L 813.923545 378.130812 
L 814.293311 378.074092 
L 814.478194 377.847208 
L 815.032843 377.677046 
L 815.217726 377.620325 
L 815.402609 377.30836 
L 815.772375 377.28 
L 816.142141 377.081477 
L 816.69679 376.826233 
L 816.881673 376.485908 
L 818.175854 376.145583 
L 818.360737 375.975421 
L 818.915386 375.833619 
L 819.100269 375.578375 
L 819.285152 375.550015 
L 819.654918 375.323131 
L 820.024684 375.181329 
L 820.209567 375.039527 
L 821.318865 374.812644 
L 821.503748 374.500679 
L 822.058397 374.358877 
L 822.613046 374.273796 
L 822.982812 374.018552 
L 823.537461 373.87675 
L 823.907227 373.763309 
L 824.09211 373.564786 
L 824.461876 373.508065 
L 824.646759 373.025938 
L 824.831642 372.940857 
L 825.756057 371.80644 
L 825.94094 371.721359 
L 826.125823 371.494476 
L 826.310706 371.466115 
L 827.235121 370.813826 
L 827.604887 370.700384 
L 827.78977 370.388419 
L 828.344419 370.104815 
L 828.714185 369.906292 
L 829.268834 369.76449 
L 830.378132 368.828597 
L 830.747898 368.630074 
L 831.302547 368.289749 
L 832.781611 367.807622 
L 833.521143 367.268774 
L 834.075792 367.01353 
L 835.739739 366.446322 
L 836.109505 366.219439 
L 836.664154 366.077637 
L 837.218803 365.794032 
L 837.773452 365.65223 
L 838.328101 365.425347 
L 839.437399 365.170103 
L 840.546697 364.517814 
L 841.471112 364.319291 
L 843.135059 363.638641 
L 843.319942 363.610281 
L 843.689708 363.241595 
L 843.874591 362.022097 
L 844.244357 361.738493 
L 844.614123 361.596691 
L 845.168772 360.916041 
L 845.538538 360.660798 
L 845.908304 359.895066 
L 846.27807 359.696544 
L 846.647836 359.526381 
L 847.017602 359.4413 
L 847.387368 359.214417 
L 847.572251 359.100975 
L 848.496666 358.902452 
L 848.866432 358.562127 
L 849.421081 358.165081 
L 849.790847 358.05164 
L 850.160613 357.711315 
L 851.269911 357.002304 
L 851.639677 356.973944 
L 851.82456 356.7187 
L 852.564092 356.548538 
L 852.748975 355.981329 
L 853.118741 355.697725 
L 853.858273 355.499202 
L 854.228039 355.3574 
L 854.412922 354.960355 
L 854.782688 354.846913 
L 854.967571 354.506588 
L 855.52222 354.137903 
L 855.891986 353.96774 
L 856.261752 353.882659 
L 856.631518 353.684136 
L 856.816401 353.655775 
L 857.186167 353.457253 
L 857.925699 353.088567 
L 858.295465 352.436278 
L 859.774529 351.755628 
L 859.959412 351.24514 
L 860.514061 351.074978 
L 861.06871 350.479409 
L 861.253593 350.422688 
L 861.623359 350.167445 
L 861.808242 350.139084 
L 862.178008 349.713678 
L 862.547774 349.515155 
L 863.287306 349.231551 
L 863.472189 348.947947 
L 863.841955 348.891226 
L 864.026838 348.692703 
L 864.211721 348.664343 
L 864.396604 348.097134 
L 864.951253 347.926972 
L 865.136136 347.841891 
L 865.505902 347.473205 
L 865.690785 347.359764 
L 866.245434 346.735835 
L 867.724498 345.913383 
L 868.279147 345.771581 
L 868.46403 345.686499 
L 868.833796 345.261093 
L 869.018679 345.204372 
L 869.943094 344.495362 
L 870.497743 344.268479 
L 870.867509 344.098316 
L 871.052392 344.069956 
L 871.237275 343.502747 
L 871.791924 343.162422 
L 871.976807 342.623575 
L 872.346573 342.368331 
L 872.531456 342.141448 
L 872.716339 342.113087 
L 873.455871 341.489158 
L 874.195403 341.205554 
L 874.565169 340.95031 
L 875.674467 340.496544 
L 876.598882 339.53229 
L 876.783765 339.503929 
L 877.153531 339.220325 
L 877.338414 339.021802 
L 877.523297 338.993442 
L 877.70818 338.681477 
L 880.111659 337.49034 
L 880.481425 337.291817 
L 880.851191 337.235096 
L 881.036074 337.093294 
L 881.590723 336.951492 
L 882.515138 336.327563 
L 883.809319 335.618552 
L 884.363968 335.391669 
L 885.843032 334.824461 
L 886.027915 333.803486 
L 886.582564 333.576603 
L 886.767447 333.321359 
L 886.95233 333.292999 
L 887.691862 332.243663 
L 887.876745 332.158582 
L 888.061628 331.818257 
L 888.431394 331.704815 
L 889.170926 330.768922 
L 889.540692 329.492703 
L 889.725575 329.095657 
L 890.095341 327.082068 
L 890.280224 326.231256 
L 891.204639 325.267001 
L 891.944171 322.742925 
L 892.129054 322.601123 
L 892.313937 322.232437 
L 892.49882 320.899498 
L 892.683703 320.502452 
L 892.868586 320.474092 
L 893.053469 319.850162 
L 893.608118 319.538198 
L 893.977884 318.659025 
L 896.011597 317.694771 
L 896.566246 317.099202 
L 896.936012 316.531994 
L 897.305778 316.418552 
L 897.675544 316.27675 
L 898.04531 316.078227 
L 898.415076 315.908065 
L 899.339491 315.709542 
L 899.709257 315.53938 
L 900.263906 315.482659 
L 901.927853 314.319882 
L 902.297619 314.121359 
L 902.482502 313.866115 
L 903.222034 313.610871 
L 903.406917 313.52579 
L 903.5918 312.901861 
L 904.146449 312.504815 
L 904.516215 312.448095 
L 905.255747 311.965968 
L 906.180162 311.682363 
L 906.549928 311.342038 
L 906.734811 311.313678 
L 907.28946 310.803191 
L 907.474343 310.406145 
L 907.844109 310.264343 
L 908.398758 309.328449 
L 908.583641 308.789601 
L 908.953407 308.562718 
L 909.508055 308.222393 
L 909.692938 307.967149 
L 910.062704 306.861093 
L 910.247587 306.63421 
L 910.43247 306.038641 
L 910.617353 305.98192 
L 910.802236 305.499793 
L 911.172002 305.329631 
L 912.2813 304.450458 
L 912.466183 304.053412 
L 912.835949 303.968331 
L 913.575481 303.628006 
L 914.315013 303.401123 
L 914.499896 302.805554 
L 915.239428 302.295066 
L 915.97896 302.068183 
L 916.718492 301.586056 
L 918.012673 300.650162 
L 918.197556 300.394919 
L 918.382439 299.82771 
L 919.491737 299.402304 
L 919.861503 298.976898 
L 920.231269 298.891817 
L 920.416152 298.551492 
L 920.785918 298.40969 
L 920.970801 298.126086 
L 923.004514 297.07675 
L 924.113812 295.942334 
L 924.298695 295.375126 
L 924.668461 294.892999 
L 924.853344 294.581034 
L 925.592876 291.234505 
L 925.962642 290.553855 
L 926.147525 290.21353 
L 926.332408 288.710428 
L 926.517291 285.846027 
L 927.811472 277.933471 
L 928.181238 274.076455 
L 928.551004 273.537607 
L 928.92077 268.546174 
L 929.105653 267.241595 
L 929.475419 261.796396 
L 929.845185 260.747061 
L 930.030068 257.911019 
L 930.214951 257.400532 
L 930.584717 254.309247 
L 930.954483 245.971285 
L 931.139366 245.545879 
L 931.324249 244.751787 
L 931.509132 242.19935 
L 931.694015 242.000827 
L 932.063781 237.718405 
L 932.433547 237.519882 
L 932.803313 236.72579 
L 932.988196 236.555628 
L 933.173079 236.158582 
L 933.357962 235.36449 
L 933.727728 235.194328 
L 934.282377 233.691226 
L 934.652143 231.535835 
L 934.837026 231.138789 
L 935.021909 231.082068 
L 935.206792 230.883545 
L 936.131207 228.869956 
L 936.31609 228.813235 
L 936.685856 228.274387 
L 937.055622 228.132585 
L 937.240505 227.707179 
L 937.425388 227.565377 
L 937.795154 227.13997 
L 938.16492 226.856366 
L 938.719569 226.4026 
L 938.904452 226.374239 
L 939.459101 225.835391 
L 940.01375 225.466706 
L 941.677697 224.871137 
L 942.417229 224.474092 
L 943.526527 224.020325 
L 943.71141 223.623279 
L 944.635825 223.396396 
L 945.375357 222.857548 
L 945.930006 222.347061 
L 946.299772 221.978375 
L 947.039304 221.723131 
L 947.593953 221.382806 
L 947.963719 221.127563 
L 948.333485 220.872319 
L 948.703251 220.673796 
L 948.888134 220.021507 
L 950.182315 219.142334 
L 950.736964 218.773648 
L 951.846262 218.17808 
L 952.031145 218.036278 
L 952.585794 217.979557 
L 952.95556 217.157105 
L 953.140443 217.072024 
L 953.510209 216.618257 
L 954.249741 215.965968 
L 954.434624 215.880886 
L 954.989273 215.171876 
L 955.174156 214.604668 
L 955.359039 214.462866 
L 955.728805 214.406145 
L 956.098571 214.06582 
L 956.838103 213.725495 
L 957.207869 213.612053 
L 957.947401 212.874682 
L 958.132284 212.846322 
L 958.317167 209.499793 
L 958.686933 209.046027 
L 959.056699 208.734062 
L 959.241582 208.393737 
L 959.426465 208.365377 
L 959.796231 207.996691 
L 959.981114 207.457843 
L 961.090412 206.323427 
L 961.275295 206.039823 
L 961.645061 204.45164 
L 961.829944 203.941152 
L 962.014827 203.09034 
L 962.19971 202.835096 
L 962.384593 201.7574 
L 962.754359 200.878227 
L 962.939242 200.197578 
L 963.678774 199.403486 
L 964.04854 198.949719 
L 964.418306 198.552674 
L 964.972955 198.382511 
L 965.527604 197.872024 
L 966.082253 196.992851 
L 966.267136 196.93613 
L 966.636902 196.567445 
L 966.821785 196.397282 
L 967.191551 195.716632 
L 967.561317 195.319586 
L 967.7462 194.383693 
L 969.040381 193.53288 
L 970.334562 191.916337 
L 970.704328 191.008804 
L 970.889211 190.838641 
L 971.44386 189.647504 
L 971.628743 189.562422 
L 972.368275 187.605554 
L 973.107807 186.471137 
L 973.662456 186.159173 
L 973.847339 185.677046 
L 974.771754 184.769513 
L 975.14152 183.663456 
L 975.881052 181.508065 
L 976.065935 180.033323 
L 976.250818 179.80644 
L 976.435701 178.558582 
L 976.805467 178.048095 
L 976.99035 177.594328 
L 977.360116 175.438936 
L 977.729882 174.616484 
L 977.914765 174.446322 
L 978.099648 167.214417 
L 978.284531 164.406736 
L 978.469414 147.900975 
L 979.024063 146.794919 
L 979.208946 146.624756 
L 979.578712 145.291817 
L 979.948478 144.384284 
L 981.057776 137.549424 
L 981.612425 136.131403 
L 981.797308 134.401418 
L 982.167074 133.805849 
L 982.53684 132.47291 
L 982.721723 130.799645 
L 982.906606 130.4026 
L 983.276372 129.239823 
L 983.831021 128.36065 
L 984.015904 128.275569 
L 984.940319 124.787238 
L 985.494968 123.227415 
L 985.864734 121.157105 
L 986.049617 121.100384 
L 986.2345 120.901861 
L 986.419383 120.873501 
L 986.789149 120.476455 
L 987.158915 119.48384 
L 987.528681 119.115155 
L 988.453096 116.874682 
L 988.637979 116.420916 
L 989.007745 114.719291 
L 989.192628 114.435687 
L 989.377511 114.378966 
L 989.747277 112.507179 
L 989.93216 112.138493 
L 990.486809 109.898021 
L 990.671692 109.586056 
L 991.965873 104.537903 
L 992.150756 104.3961 
L 992.890288 100.198759 
L 993.075171 100.085318 
L 993.260054 99.773353 
L 994.184469 96.767149 
L 994.369352 96.426824 
L 994.554235 95.264047 
L 994.739118 94.867001 
L 995.108884 93.080295 
L 995.293767 92.73997 
L 995.848416 90.754742 
L 996.033299 89.336721 
L 996.218182 89.28 
L 996.218182 89.28 
" clip-path="url(#p87b660fb38)" style="fill: none; stroke: #1f77b4; stroke-width: 1.5; stroke-linecap: square"/>
   </g>
   <g id="patch_3">
    <path d="M 144 512.64 
L 144 69.12 
" style="fill: none; stroke: #000000; stroke-width: 0.8; stroke-linejoin: miter; stroke-linecap: square"/>
   </g>
   <g id="patch_4">
    <path d="M 1036.8 512.64 
L 1036.8 69.12 
" style="fill: none; stroke: #000000; stroke-width: 0.8; stroke-linejoin: miter; stroke-linecap: square"/>
   </g>
   <g id="patch_5">
    <path d="M 144 512.64 
L 1036.8 512.64 
" style="fill: none; stroke: #000000; stroke-width: 0.8; stroke-linejoin: miter; stroke-linecap: square"/>
   </g>
   <g id="patch_6">
    <path d="M 144 69.12 
L 1036.8 69.12 
" style="fill: none; stroke: #000000; stroke-width: 0.8; stroke-linejoin: miter; stroke-linecap: square"/>
   </g>
   <g id="text_16">
    <!-- Number of AEDs in the OpenStreetMap database in Poland from first edition, day by day. As at: 2026-02-17 -->
    <g transform="translate(144 63.12) scale(0.14 -0.14)">
     <defs>
      <path id="DejaVuSans-4e" d="M 628 4666 
L 1478 4666 
L 3547 763 
L 3547 4666 
L 4159 4666 
L 4159 0 
L 3309 0 
L 1241 3903 
L 1241 0 
L 628 0 
L 628 4666 
z
" transform="scale(0.015625)"/>
      <path id="DejaVuSans-75" d="M 544 1381 
L 544 3500 
L 1119 3500 
L 1119 1403 
Q 1119 906 1312 657 
Q 1506 409 1894 409 
Q 2359 409 2629 706 
Q 2900 1003 2900 1516 
L 2900 3500 
L 3475 3500 
L 3475 0 
L 2900 0 
L 2900 538 
Q 2691 219 2414 64 
Q 2138 -91 1772 -91 
Q 1169 -91 856 284 
Q 544 659 544 1381 
z
M 1991 3584 
L 1991 3584 
z
" transform="scale(0.015625)"/>
      <path id="DejaVuSans-6d" d="M 3328 2828 
Q 3544 3216 3844 3400 
Q 4144 3584 4550 3584 
Q 5097 3584 5394 3201 
Q 5691 2819 5691 2113 
L 5691 0 
L 5113 0 
L 5113 2094 
Q 5113 2597 4934 2840 
Q 4756 3084 4391 3084 
Q 3944 3084 3684 2787 
Q 3425 2491 3425 1978 
L 3425 0 
L 2847 0 
L 2847 2094 
Q 2847 2600 2669 2842 
Q 2491 3084 2119 3084 
Q 1678 3084 1418 2786 
Q 1159 2488 1159 1978 
L 1159 0 
L 581 0 
L 581 3500 
L 1159 3500 
L 1159 2956 
Q 1356 3278 1631 3431 
Q 1906 3584 2284 3584 
Q 2666 3584 2933 3390 
Q 3200 3197 3328 2828 
z
" transform="scale(0.015625)"/>
      <path id="DejaVuSans-62" d="M 3116 1747 
Q 3116 2381 2855 2742 
Q 2594 3103 2138 3103 
Q 1681 3103 1420 2742 
Q 1159 2381 1159 1747 
Q 1159 1113 1420 752 
Q 1681 391 2138 391 
Q 2594 391 2855 752 
Q 3116 1113 3116 1747 
z
M 1159 2969 
Q 1341 3281 1617 3432 
Q 1894 3584 2278 3584 
Q 2916 3584 3314 3078 
Q 3713 2572 3713 1747 
Q 3713 922 3314 415 
Q 2916 -91 2278 -91 
Q 1894 -91 1617 61 
Q 1341 213 1159 525 
L 1159 0 
L 581 0 
L 581 4863 
L 1159 4863 
L 1159 2969 
z
" transform="scale(0.015625)"/>
      <path id="DejaVuSans-65" d="M 3597 1894 
L 3597 1613 
L 953 1613 
Q 991 1019 1311 708 
Q 1631 397 2203 397 
Q 2534 397 2845 478 
Q 3156 559 3463 722 
L 3463 178 
Q 3153 47 2828 -22 
Q 2503 -91 2169 -91 
Q 1331 -91 842 396 
Q 353 884 353 1716 
Q 353 2575 817 3079 
Q 1281 3584 2069 3584 
Q 2775 3584 3186 3129 
Q 3597 2675 3597 1894 
z
M 3022 2063 
Q 3016 2534 2758 2815 
Q 2500 3097 2075 3097 
Q 1594 3097 1305 2825 
Q 1016 2553 972 2059 
L 3022 2063 
z
" transform="scale(0.015625)"/>
      <path id="DejaVuSans-72" d="M 2631 2963 
Q 2534 3019 2420 3045 
Q 2306 3072 2169 3072 
Q 1681 3072 1420 2755 
Q 1159 2438 1159 1844 
L 1159 0 
L 581 0 
L 581 3500 
L 1159 3500 
L 1159 2956 
Q 1341 3275 1631 3429 
Q 1922 3584 2338 3584 
Q 2397 3584 2469 3576 
Q 2541 3569 2628 3553 
L 2631 2963 
z
" transform="scale(0.015625)"/>
      <path id="DejaVuSans-20" transform="scale(0.015625)"/>
      <path id="DejaVuSans-6f" d="M 1959 3097 
Q 1497 3097 1228 2736 
Q 959 2375 959 1747 
Q 959 1119 1226 758 
Q 1494 397 1959 397 
Q 2419 397 2687 759 
Q 2956 1122 2956 1747 
Q 2956 2369 2687 2733 
Q 2419 3097 1959 3097 
z
M 1959 3584 
Q 2709 3584 3137 3096 
Q 3566 2609 3566 1747 
Q 3566 888 3137 398 
Q 2709 -91 1959 -91 
Q 1206 -91 779 398 
Q 353 888 353 1747 
Q 353 2609 779 3096 
Q 1206 3584 1959 3584 
z
" transform="scale(0.015625)"/>
      <path id="DejaVuSans-66" d="M 2375 4863 
L 2375 4384 
L 1825 4384 
Q 1516 4384 1395 4259 
Q 1275 4134 1275 3809 
L 1275 3500 
L 2222 3500 
L 2222 3053 
L 1275 3053 
L 1275 0 
L 697 0 
L 697 3053 
L 147 3053 
L 147 3500 
L 697 3500 
L 697 3744 
Q 697 4328 969 4595 
Q 1241 4863 1831 4863 
L 2375 4863 
z
" transform="scale(0.015625)"/>
      <path id="DejaVuSans-41" d="M 2188 4044 
L 1331 1722 
L 3047 1722 
L 2188 4044 
z
M 1831 4666 
L 2547 4666 
L 4325 0 
L 3669 0 
L 3244 1197 
L 1141 1197 
L 716 0 
L 50 0 
L 1831 4666 
z
" transform="scale(0.015625)"/>
      <path id="DejaVuSans-45" d="M 628 4666 
L 3578 4666 
L 3578 4134 
L 1259 4134 
L 1259 2753 
L 3481 2753 
L 3481 2222 
L 1259 2222 
L 1259 531 
L 3634 531 
L 3634 0 
L 628 0 
L 628 4666 
z
" transform="scale(0.015625)"/>
      <path id="DejaVuSans-44" d="M 1259 4147 
L 1259 519 
L 2022 519 
Q 2988 519 3436 956 
Q 3884 1394 3884 2338 
Q 3884 3275 3436 3711 
Q 2988 4147 2022 4147 
L 1259 4147 
z
M 628 4666 
L 1925 4666 
Q 3281 4666 3915 4102 
Q 4550 3538 4550 2338 
Q 4550 1131 3912 565 
Q 3275 0 1925 0 
L 628 0 
L 628 4666 
z
" transform="scale(0.015625)"/>
      <path id="DejaVuSans-73" d="M 2834 3397 
L 2834 2853 
Q 2591 2978 2328 3040 
Q 2066 3103 1784 3103 
Q 1356 3103 1142 2972 
Q 928 2841 928 2578 
Q 928 2378 1081 2264 
Q 1234 2150 1697 2047 
L 1894 2003 
Q 2506 1872 2764 1633 
Q 3022 1394 3022 966 
Q 3022 478 2636 193 
Q 2250 -91 1575 -91 
Q 1294 -91 989 -36 
Q 684 19 347 128 
L 347 722 
Q 666 556 975 473 
Q 1284 391 1588 391 
Q 1994 391 2212 530 
Q 2431 669 2431 922 
Q 2431 1156 2273 1281 
Q 2116 1406 1581 1522 
L 1381 1569 
Q 847 1681 609 1914 
Q 372 2147 372 2553 
Q 372 3047 722 3315 
Q 1072 3584 1716 3584 
Q 2034 3584 2315 3537 
Q 2597 3491 2834 3397 
z
" transform="scale(0.015625)"/>
      <path id="DejaVuSans-69" d="M 603 3500 
L 1178 3500 
L 1178 0 
L 603 0 
L 603 3500 
z
M 603 4863 
L 1178 4863 
L 1178 4134 
L 603 4134 
L 603 4863 
z
" transform="scale(0.015625)"/>
      <path id="DejaVuSans-6e" d="M 3513 2113 
L 3513 0 
L 2938 0 
L 2938 2094 
Q 2938 2591 2744 2837 
Q 2550 3084 2163 3084 
Q 1697 3084 1428 2787 
Q 1159 2491 1159 1978 
L 1159 0 
L 581 0 
L 581 3500 
L 1159 3500 
L 1159 2956 
Q 1366 3272 1645 3428 
Q 1925 3584 2291 3584 
Q 2894 3584 3203 3211 
Q 3513 2838 3513 2113 
z
" transform="scale(0.015625)"/>
      <path id="DejaVuSans-74" d="M 1172 4494 
L 1172 3500 
L 2356 3500 
L 2356 3053 
L 1172 3053 
L 1172 1153 
Q 1172 725 1289 603 
Q 1406 481 1766 481 
L 2356 481 
L 2356 0 
L 1766 0 
Q 1100 0 847 248 
Q 594 497 594 1153 
L 594 3053 
L 172 3053 
L 172 3500 
L 594 3500 
L 594 4494 
L 1172 4494 
z
" transform="scale(0.015625)"/>
      <path id="DejaVuSans-68" d="M 3513 2113 
L 3513 0 
L 2938 0 
L 2938 2094 
Q 2938 2591 2744 2837 
Q 2550 3084 2163 3084 
Q 1697 3084 1428 2787 
Q 1159 2491 1159 1978 
L 1159 0 
L 581 0 
L 581 4863 
L 1159 4863 
L 1159 2956 
Q 1366 3272 1645 3428 
Q 1925 3584 2291 3584 
Q 2894 3584 3203 3211 
Q 3513 2838 3513 2113 
z
" transform="scale(0.015625)"/>
      <path id="DejaVuSans-4f" d="M 2522 4238 
Q 1834 4238 1429 3725 
Q 1025 3213 1025 2328 
Q 1025 1447 1429 934 
Q 1834 422 2522 422 
Q 3209 422 3611 934 
Q 4013 1447 4013 2328 
Q 4013 3213 3611 3725 
Q 3209 4238 2522 4238 
z
M 2522 4750 
Q 3503 4750 4090 4092 
Q 4678 3434 4678 2328 
Q 4678 1225 4090 567 
Q 3503 -91 2522 -91 
Q 1538 -91 948 565 
Q 359 1222 359 2328 
Q 359 3434 948 4092 
Q 1538 4750 2522 4750 
z
" transform="scale(0.015625)"/>
      <path id="DejaVuSans-70" d="M 1159 525 
L 1159 -1331 
L 581 -1331 
L 581 3500 
L 1159 3500 
L 1159 2969 
Q 1341 3281 1617 3432 
Q 1894 3584 2278 3584 
Q 2916 3584 3314 3078 
Q 3713 2572 3713 1747 
Q 3713 922 3314 415 
Q 2916 -91 2278 -91 
Q 1894 -91 1617 61 
Q 1341 213 1159 525 
z
M 3116 1747 
Q 3116 2381 2855 2742 
Q 2594 3103 2138 3103 
Q 1681 3103 1420 2742 
Q 1159 2381 1159 1747 
Q 1159 1113 1420 752 
Q 1681 391 2138 391 
Q 2594 391 2855 752 
Q 3116 1113 3116 1747 
z
" transform="scale(0.015625)"/>
      <path id="DejaVuSans-53" d="M 3425 4513 
L 3425 3897 
Q 3066 4069 2747 4153 
Q 2428 4238 2131 4238 
Q 1616 4238 1336 4038 
Q 1056 3838 1056 3469 
Q 1056 3159 1242 3001 
Q 1428 2844 1947 2747 
L 2328 2669 
Q 3034 2534 3370 2195 
Q 3706 1856 3706 1288 
Q 3706 609 3251 259 
Q 2797 -91 1919 -91 
Q 1588 -91 1214 -16 
Q 841 59 441 206 
L 441 856 
Q 825 641 1194 531 
Q 1563 422 1919 422 
Q 2459 422 2753 634 
Q 3047 847 3047 1241 
Q 3047 1584 2836 1778 
Q 2625 1972 2144 2069 
L 1759 2144 
Q 1053 2284 737 2584 
Q 422 2884 422 3419 
Q 422 4038 858 4394 
Q 1294 4750 2059 4750 
Q 2388 4750 2728 4690 
Q 3069 4631 3425 4513 
z
" transform="scale(0.015625)"/>
      <path id="DejaVuSans-4d" d="M 628 4666 
L 1569 4666 
L 2759 1491 
L 3956 4666 
L 4897 4666 
L 4897 0 
L 4281 0 
L 4281 4097 
L 3078 897 
L 2444 897 
L 1241 4097 
L 1241 0 
L 628 0 
L 628 4666 
z
" transform="scale(0.015625)"/>
      <path id="DejaVuSans-61" d="M 2194 1759 
Q 1497 1759 1228 1600 
Q 959 1441 959 1056 
Q 959 750 1161 570 
Q 1363 391 1709 391 
Q 2188 391 2477 730 
Q 2766 1069 2766 1631 
L 2766 1759 
L 2194 1759 
z
M 3341 1997 
L 3341 0 
L 2766 0 
L 2766 531 
Q 2569 213 2275 61 
Q 1981 -91 1556 -91 
Q 1019 -91 701 211 
Q 384 513 384 1019 
Q 384 1609 779 1909 
Q 1175 2209 1959 2209 
L 2766 2209 
L 2766 2266 
Q 2766 2663 2505 2880 
Q 2244 3097 1772 3097 
Q 1472 3097 1187 3025 
Q 903 2953 641 2809 
L 641 3341 
Q 956 3463 1253 3523 
Q 1550 3584 1831 3584 
Q 2591 3584 2966 3190 
Q 3341 2797 3341 1997 
z
" transform="scale(0.015625)"/>
      <path id="DejaVuSans-64" d="M 2906 2969 
L 2906 4863 
L 3481 4863 
L 3481 0 
L 2906 0 
L 2906 525 
Q 2725 213 2448 61 
Q 2172 -91 1784 -91 
Q 1150 -91 751 415 
Q 353 922 353 1747 
Q 353 2572 751 3078 
Q 1150 3584 1784 3584 
Q 2172 3584 2448 3432 
Q 2725 3281 2906 2969 
z
M 947 1747 
Q 947 1113 1208 752 
Q 1469 391 1925 391 
Q 2381 391 2643 752 
Q 2906 1113 2906 1747 
Q 2906 2381 2643 2742 
Q 2381 3103 1925 3103 
Q 1469 3103 1208 2742 
Q 947 2381 947 1747 
z
" transform="scale(0.015625)"/>
      <path id="DejaVuSans-50" d="M 1259 4147 
L 1259 2394 
L 2053 2394 
Q 2494 2394 2734 2622 
Q 2975 2850 2975 3272 
Q 2975 3691 2734 3919 
Q 2494 4147 2053 4147 
L 1259 4147 
z
M 628 4666 
L 2053 4666 
Q 2838 4666 3239 4311 
Q 3641 3956 3641 3272 
Q 3641 2581 3239 2228 
Q 2838 1875 2053 1875 
L 1259 1875 
L 1259 0 
L 628 0 
L 628 4666 
z
" transform="scale(0.015625)"/>
      <path id="DejaVuSans-6c" d="M 603 4863 
L 1178 4863 
L 1178 0 
L 603 0 
L 603 4863 
z
" transform="scale(0.015625)"/>
      <path id="DejaVuSans-2c" d="M 750 794 
L 1409 794 
L 1409 256 
L 897 -744 
L 494 -744 
L 750 256 
L 750 794 
z
" transform="scale(0.015625)"/>
      <path id="DejaVuSans-79" d="M 2059 -325 
Q 1816 -950 1584 -1140 
Q 1353 -1331 966 -1331 
L 506 -1331 
L 506 -850 
L 844 -850 
Q 1081 -850 1212 -737 
Q 1344 -625 1503 -206 
L 1606 56 
L 191 3500 
L 800 3500 
L 1894 763 
L 2988 3500 
L 3597 3500 
L 2059 -325 
z
" transform="scale(0.015625)"/>
      <path id="DejaVuSans-2e" d="M 684 794 
L 1344 794 
L 1344 0 
L 684 0 
L 684 794 
z
" transform="scale(0.015625)"/>
      <path id="DejaVuSans-3a" d="M 750 794 
L 1409 794 
L 1409 0 
L 750 0 
L 750 794 
z
M 750 3309 
L 1409 3309 
L 1409 2516 
L 750 2516 
L 750 3309 
z
" transform="scale(0.015625)"/>
      <path id="DejaVuSans-2d" d="M 313 2009 
L 1997 2009 
L 1997 1497 
L 313 1497 
L 313 2009 
z
" transform="scale(0.015625)"/>
      <path id="DejaVuSans-37" d="M 525 4666 
L 3525 4666 
L 3525 4397 
L 1831 0 
L 1172 0 
L 2766 4134 
L 525 4134 
L 525 4666 
z
" transform="scale(0.015625)"/>
     </defs>
     <use xlink:href="#DejaVuSans-4e"/>
     <use xlink:href="#DejaVuSans-75" x="74.804688"/>
     <use xlink:href="#DejaVuSans-6d" x="138.183594"/>
     <use xlink:href="#DejaVuSans-62" x="235.595703"/>
     <use xlink:href="#DejaVuSans-65" x="299.072266"/>
     <use xlink:href="#DejaVuSans-72" x="360.595703"/>
     <use xlink:href="#DejaVuSans-20" x="401.708984"/>
     <use xlink:href="#DejaVuSans-6f" x="433.496094"/>
     <use xlink:href="#DejaVuSans-66" x="494.677734"/>
     <use xlink:href="#DejaVuSans-20" x="529.882812"/>
     <use xlink:href="#DejaVuSans-41" x="561.669922"/>
     <use xlink:href="#DejaVuSans-45" x="630.078125"/>
     <use xlink:href="#DejaVuSans-44" x="693.261719"/>
     <use xlink:href="#DejaVuSans-73" x="770.263672"/>
     <use xlink:href="#DejaVuSans-20" x="822.363281"/>
     <use xlink:href="#DejaVuSans-69" x="854.150391"/>
     <use xlink:href="#DejaVuSans-6e" x="881.933594"/>
     <use xlink:href="#DejaVuSans-20" x="945.3125"/>
     <use xlink:href="#DejaVuSans-74" x="977.099609"/>
     <use xlink:href="#DejaVuSans-68" x="1016.308594"/>
     <use xlink:href="#DejaVuSans-65" x="1079.6875"/>
     <use xlink:href="#DejaVuSans-20" x="1141.210938"/>
     <use xlink:href="#DejaVuSans-4f" x="1172.998047"/>
     <use xlink:href="#DejaVuSans-70" x="1251.708984"/>
     <use xlink:href="#DejaVuSans-65" x="1315.185547"/>
     <use xlink:href="#DejaVuSans-6e" x="1376.708984"/>
     <use xlink:href="#DejaVuSans-53" x="1440.087891"/>
     <use xlink:href="#DejaVuSans-74" x="1503.564453"/>
     <use xlink:href="#DejaVuSans-72" x="1542.773438"/>
     <use xlink:href="#DejaVuSans-65" x="1581.636719"/>
     <use xlink:href="#DejaVuSans-65" x="1643.160156"/>
     <use xlink:href="#DejaVuSans-74" x="1704.683594"/>
     <use xlink:href="#DejaVuSans-4d" x="1743.892578"/>
     <use xlink:href="#DejaVuSans-61" x="1830.171875"/>
     <use xlink:href="#DejaVuSans-70" x="1891.451172"/>
     <use xlink:href="#DejaVuSans-20" x="1954.927734"/>
     <use xlink:href="#DejaVuSans-64" x="1986.714844"/>
     <use xlink:href="#DejaVuSans-61" x="2050.191406"/>
     <use xlink:href="#DejaVuSans-74" x="2111.470703"/>
     <use xlink:href="#DejaVuSans-61" x="2150.679688"/>
     <use xlink:href="#DejaVuSans-62" x="2211.958984"/>
     <use xlink:href="#DejaVuSans-61" x="2275.435547"/>
     <use xlink:href="#DejaVuSans-73" x="2336.714844"/>
     <use xlink:href="#DejaVuSans-65" x="2388.814453"/>
     <use xlink:href="#DejaVuSans-20" x="2450.337891"/>
     <use xlink:href="#DejaVuSans-69" x="2482.125"/>
     <use xlink:href="#DejaVuSans-6e" x="2509.908203"/>
     <use xlink:href="#DejaVuSans-20" x="2573.287109"/>
     <use xlink:href="#DejaVuSans-50" x="2605.074219"/>
     <use xlink:href="#DejaVuSans-6f" x="2661.751953"/>
     <use xlink:href="#DejaVuSans-6c" x="2722.933594"/>
     <use xlink:href="#DejaVuSans-61" x="2750.716797"/>
     <use xlink:href="#DejaVuSans-6e" x="2811.996094"/>
     <use xlink:href="#DejaVuSans-64" x="2875.375"/>
     <use xlink:href="#DejaVuSans-20" x="2938.851562"/>
     <use xlink:href="#DejaVuSans-66" x="2970.638672"/>
     <use xlink:href="#DejaVuSans-72" x="3005.84375"/>
     <use xlink:href="#DejaVuSans-6f" x="3044.707031"/>
     <use xlink:href="#DejaVuSans-6d" x="3105.888672"/>
     <use xlink:href="#DejaVuSans-20" x="3203.300781"/>
     <use xlink:href="#DejaVuSans-66" x="3235.087891"/>
     <use xlink:href="#DejaVuSans-69" x="3270.292969"/>
     <use xlink:href="#DejaVuSans-72" x="3298.076172"/>
     <use xlink:href="#DejaVuSans-73" x="3339.189453"/>
     <use xlink:href="#DejaVuSans-74" x="3391.289062"/>
     <use xlink:href="#DejaVuSans-20" x="3430.498047"/>
     <use xlink:href="#DejaVuSans-65" x="3462.285156"/>
     <use xlink:href="#DejaVuSans-64" x="3523.808594"/>
     <use xlink:href="#DejaVuSans-69" x="3587.285156"/>
     <use xlink:href="#DejaVuSans-74" x="3615.068359"/>
     <use xlink:href="#DejaVuSans-69" x="3654.277344"/>
     <use xlink:href="#DejaVuSans-6f" x="3682.060547"/>
     <use xlink:href="#DejaVuSans-6e" x="3743.242188"/>
     <use xlink:href="#DejaVuSans-2c" x="3806.621094"/>
     <use xlink:href="#DejaVuSans-20" x="3838.408203"/>
     <use xlink:href="#DejaVuSans-64" x="3870.195312"/>
     <use xlink:href="#DejaVuSans-61" x="3933.671875"/>
     <use xlink:href="#DejaVuSans-79" x="3994.951172"/>
     <use xlink:href="#DejaVuSans-20" x="4054.130859"/>
     <use xlink:href="#DejaVuSans-62" x="4085.917969"/>
     <use xlink:href="#DejaVuSans-79" x="4149.394531"/>
     <use xlink:href="#DejaVuSans-20" x="4208.574219"/>
     <use xlink:href="#DejaVuSans-64" x="4240.361328"/>
     <use xlink:href="#DejaVuSans-61" x="4303.837891"/>
     <use xlink:href="#DejaVuSans-79" x="4365.117188"/>
     <use xlink:href="#DejaVuSans-2e" x="4410.046875"/>
     <use xlink:href="#DejaVuSans-20" x="4441.833984"/>
     <use xlink:href="#DejaVuSans-41" x="4473.621094"/>
     <use xlink:href="#DejaVuSans-73" x="4542.029297"/>
     <use xlink:href="#DejaVuSans-20" x="4594.128906"/>
     <use xlink:href="#DejaVuSans-61" x="4625.916016"/>
     <use xlink:href="#DejaVuSans-74" x="4687.195312"/>
     <use xlink:href="#DejaVuSans-3a" x="4726.404297"/>
     <use xlink:href="#DejaVuSans-20" x="4760.095703"/>
     <use xlink:href="#DejaVuSans-32" x="4791.882812"/>
     <use xlink:href="#DejaVuSans-30" x="4855.505859"/>
     <use xlink:href="#DejaVuSans-32" x="4919.128906"/>
     <use xlink:href="#DejaVuSans-36" x="4982.751953"/>
     <use xlink:href="#DejaVuSans-2d" x="5046.375"/>
     <use xlink:href="#DejaVuSans-30" x="5082.458984"/>
     <use xlink:href="#DejaVuSans-32" x="5146.082031"/>
     <use xlink:href="#DejaVuSans-2d" x="5209.705078"/>
     <use xlink:href="#DejaVuSans-31" x="5245.789062"/>
     <use xlink:href="#DejaVuSans-37" x="5309.412109"/>
    </g>
   </g>
  </g>
 </g>
 <defs>
  <clipPath id="p87b660fb38">
   <rect x="144" y="69.12" width="892.8" height="443.52"/>
  </clipPath>
 </defs>
</svg>
