<?xml version="1.0" encoding="utf-8" standalone="no"?>
<!DOCTYPE svg PUBLIC "-//W3C//DTD SVG 1.1//EN"
  "http://www.w3.org/Graphics/SVG/1.1/DTD/svg11.dtd">
<svg xmlns:xlink="http://www.w3.org/1999/xlink" width="1152pt" height="576pt" viewBox="0 0 1152 576" xmlns="http://www.w3.org/2000/svg" version="1.1">
 <metadata>
  <rdf:RDF xmlns:dc="http://purl.org/dc/elements/1.1/" xmlns:cc="http://creativecommons.org/ns#" xmlns:rdf="http://www.w3.org/1999/02/22-rdf-syntax-ns#">
   <cc:Work>
    <dc:type rdf:resource="http://purl.org/dc/dcmitype/StillImage"/>
    <dc:date>1980-01-01T00:00:00+00:00</dc:date>
    <dc:format>image/svg+xml</dc:format>
    <dc:creator>
     <cc:Agent>
      <dc:title>Matplotlib v3.9.1, https://matplotlib.org/</dc:title>
     </cc:Agent>
    </dc:creator>
   </cc:Work>
  </rdf:RDF>
 </metadata>
 <defs>
  <style type="text/css">*{stroke-linejoin: round; stroke-linecap: butt}</style>
 </defs>
 <g id="figure_1">
  <g id="patch_1">
   <path d="M 0 576 
L 1152 576 
L 1152 0 
L 0 0 
z
" style="fill: #ffffff"/>
  </g>
  <g id="axes_1">
   <g id="patch_2">
    <path d="M 144 512.64 
L 1036.8 512.64 
L 1036.8 69.12 
L 144 69.12 
z
" style="fill: #ffffff"/>
   </g>
   <g id="matplotlib.axis_1">
    <g id="xtick_1">
     <g id="line2d_1">
      <defs>
       <path id="mca4948ce7b" d="M 0 0 
L 0 3.5 
" style="stroke: #000000; stroke-width: 0.8"/>
      </defs>
      <g>
       <use xlink:href="#mca4948ce7b" x="177.085754" y="512.64" style="stroke: #000000; stroke-width: 0.8"/>
      </g>
     </g>
     <g id="text_1">
      <!-- 2014 -->
      <g transform="translate(164.360754 527.238438) scale(0.1 -0.1)">
       <defs>
        <path id="DejaVuSans-32" d="M 1228 531 
L 3431 531 
L 3431 0 
L 469 0 
L 469 531 
Q 828 903 1448 1529 
Q 2069 2156 2228 2338 
Q 2531 2678 2651 2914 
Q 2772 3150 2772 3378 
Q 2772 3750 2511 3984 
Q 2250 4219 1831 4219 
Q 1534 4219 1204 4116 
Q 875 4013 500 3803 
L 500 4441 
Q 881 4594 1212 4672 
Q 1544 4750 1819 4750 
Q 2544 4750 2975 4387 
Q 3406 4025 3406 3419 
Q 3406 3131 3298 2873 
Q 3191 2616 2906 2266 
Q 2828 2175 2409 1742 
Q 1991 1309 1228 531 
z
" transform="scale(0.015625)"/>
        <path id="DejaVuSans-30" d="M 2034 4250 
Q 1547 4250 1301 3770 
Q 1056 3291 1056 2328 
Q 1056 1369 1301 889 
Q 1547 409 2034 409 
Q 2525 409 2770 889 
Q 3016 1369 3016 2328 
Q 3016 3291 2770 3770 
Q 2525 4250 2034 4250 
z
M 2034 4750 
Q 2819 4750 3233 4129 
Q 3647 3509 3647 2328 
Q 3647 1150 3233 529 
Q 2819 -91 2034 -91 
Q 1250 -91 836 529 
Q 422 1150 422 2328 
Q 422 3509 836 4129 
Q 1250 4750 2034 4750 
z
" transform="scale(0.015625)"/>
        <path id="DejaVuSans-31" d="M 794 531 
L 1825 531 
L 1825 4091 
L 703 3866 
L 703 4441 
L 1819 4666 
L 2450 4666 
L 2450 531 
L 3481 531 
L 3481 0 
L 794 0 
L 794 531 
z
" transform="scale(0.015625)"/>
        <path id="DejaVuSans-34" d="M 2419 4116 
L 825 1625 
L 2419 1625 
L 2419 4116 
z
M 2253 4666 
L 3047 4666 
L 3047 1625 
L 3713 1625 
L 3713 1100 
L 3047 1100 
L 3047 0 
L 2419 0 
L 2419 1100 
L 313 1100 
L 313 1709 
L 2253 4666 
z
" transform="scale(0.015625)"/>
       </defs>
       <use xlink:href="#DejaVuSans-32"/>
       <use xlink:href="#DejaVuSans-30" x="63.623047"/>
       <use xlink:href="#DejaVuSans-31" x="127.246094"/>
       <use xlink:href="#DejaVuSans-34" x="190.869141"/>
      </g>
     </g>
    </g>
    <g id="xtick_2">
     <g id="line2d_2">
      <g>
       <use xlink:href="#mca4948ce7b" x="313.888928" y="512.64" style="stroke: #000000; stroke-width: 0.8"/>
      </g>
     </g>
     <g id="text_2">
      <!-- 2016 -->
      <g transform="translate(301.163928 527.238438) scale(0.1 -0.1)">
       <defs>
        <path id="DejaVuSans-36" d="M 2113 2584 
Q 1688 2584 1439 2293 
Q 1191 2003 1191 1497 
Q 1191 994 1439 701 
Q 1688 409 2113 409 
Q 2538 409 2786 701 
Q 3034 994 3034 1497 
Q 3034 2003 2786 2293 
Q 2538 2584 2113 2584 
z
M 3366 4563 
L 3366 3988 
Q 3128 4100 2886 4159 
Q 2644 4219 2406 4219 
Q 1781 4219 1451 3797 
Q 1122 3375 1075 2522 
Q 1259 2794 1537 2939 
Q 1816 3084 2150 3084 
Q 2853 3084 3261 2657 
Q 3669 2231 3669 1497 
Q 3669 778 3244 343 
Q 2819 -91 2113 -91 
Q 1303 -91 875 529 
Q 447 1150 447 2328 
Q 447 3434 972 4092 
Q 1497 4750 2381 4750 
Q 2619 4750 2861 4703 
Q 3103 4656 3366 4563 
z
" transform="scale(0.015625)"/>
       </defs>
       <use xlink:href="#DejaVuSans-32"/>
       <use xlink:href="#DejaVuSans-30" x="63.623047"/>
       <use xlink:href="#DejaVuSans-31" x="127.246094"/>
       <use xlink:href="#DejaVuSans-36" x="190.869141"/>
      </g>
     </g>
    </g>
    <g id="xtick_3">
     <g id="line2d_3">
      <g>
       <use xlink:href="#mca4948ce7b" x="450.879503" y="512.64" style="stroke: #000000; stroke-width: 0.8"/>
      </g>
     </g>
     <g id="text_3">
      <!-- 2018 -->
      <g transform="translate(438.154503 527.238438) scale(0.1 -0.1)">
       <defs>
        <path id="DejaVuSans-38" d="M 2034 2216 
Q 1584 2216 1326 1975 
Q 1069 1734 1069 1313 
Q 1069 891 1326 650 
Q 1584 409 2034 409 
Q 2484 409 2743 651 
Q 3003 894 3003 1313 
Q 3003 1734 2745 1975 
Q 2488 2216 2034 2216 
z
M 1403 2484 
Q 997 2584 770 2862 
Q 544 3141 544 3541 
Q 544 4100 942 4425 
Q 1341 4750 2034 4750 
Q 2731 4750 3128 4425 
Q 3525 4100 3525 3541 
Q 3525 3141 3298 2862 
Q 3072 2584 2669 2484 
Q 3125 2378 3379 2068 
Q 3634 1759 3634 1313 
Q 3634 634 3220 271 
Q 2806 -91 2034 -91 
Q 1263 -91 848 271 
Q 434 634 434 1313 
Q 434 1759 690 2068 
Q 947 2378 1403 2484 
z
M 1172 3481 
Q 1172 3119 1398 2916 
Q 1625 2713 2034 2713 
Q 2441 2713 2670 2916 
Q 2900 3119 2900 3481 
Q 2900 3844 2670 4047 
Q 2441 4250 2034 4250 
Q 1625 4250 1398 4047 
Q 1172 3844 1172 3481 
z
" transform="scale(0.015625)"/>
       </defs>
       <use xlink:href="#DejaVuSans-32"/>
       <use xlink:href="#DejaVuSans-30" x="63.623047"/>
       <use xlink:href="#DejaVuSans-31" x="127.246094"/>
       <use xlink:href="#DejaVuSans-38" x="190.869141"/>
      </g>
     </g>
    </g>
    <g id="xtick_4">
     <g id="line2d_4">
      <g>
       <use xlink:href="#mca4948ce7b" x="587.682677" y="512.64" style="stroke: #000000; stroke-width: 0.8"/>
      </g>
     </g>
     <g id="text_4">
      <!-- 2020 -->
      <g transform="translate(574.957677 527.238438) scale(0.1 -0.1)">
       <use xlink:href="#DejaVuSans-32"/>
       <use xlink:href="#DejaVuSans-30" x="63.623047"/>
       <use xlink:href="#DejaVuSans-32" x="127.246094"/>
       <use xlink:href="#DejaVuSans-30" x="190.869141"/>
      </g>
     </g>
    </g>
    <g id="xtick_5">
     <g id="line2d_5">
      <g>
       <use xlink:href="#mca4948ce7b" x="724.673252" y="512.64" style="stroke: #000000; stroke-width: 0.8"/>
      </g>
     </g>
     <g id="text_5">
      <!-- 2022 -->
      <g transform="translate(711.948252 527.238438) scale(0.1 -0.1)">
       <use xlink:href="#DejaVuSans-32"/>
       <use xlink:href="#DejaVuSans-30" x="63.623047"/>
       <use xlink:href="#DejaVuSans-32" x="127.246094"/>
       <use xlink:href="#DejaVuSans-32" x="190.869141"/>
      </g>
     </g>
    </g>
    <g id="xtick_6">
     <g id="line2d_6">
      <g>
       <use xlink:href="#mca4948ce7b" x="861.476426" y="512.64" style="stroke: #000000; stroke-width: 0.8"/>
      </g>
     </g>
     <g id="text_6">
      <!-- 2024 -->
      <g transform="translate(848.751426 527.238438) scale(0.1 -0.1)">
       <use xlink:href="#DejaVuSans-32"/>
       <use xlink:href="#DejaVuSans-30" x="63.623047"/>
       <use xlink:href="#DejaVuSans-32" x="127.246094"/>
       <use xlink:href="#DejaVuSans-34" x="190.869141"/>
      </g>
     </g>
    </g>
    <g id="xtick_7">
     <g id="line2d_7">
      <g>
       <use xlink:href="#mca4948ce7b" x="998.467001" y="512.64" style="stroke: #000000; stroke-width: 0.8"/>
      </g>
     </g>
     <g id="text_7">
      <!-- 2026 -->
      <g transform="translate(985.742001 527.238438) scale(0.1 -0.1)">
       <use xlink:href="#DejaVuSans-32"/>
       <use xlink:href="#DejaVuSans-30" x="63.623047"/>
       <use xlink:href="#DejaVuSans-32" x="127.246094"/>
       <use xlink:href="#DejaVuSans-36" x="190.869141"/>
      </g>
     </g>
    </g>
   </g>
   <g id="matplotlib.axis_2">
    <g id="ytick_1">
     <g id="line2d_8">
      <defs>
       <path id="m8ced3af0b6" d="M 0 0 
L -3.5 0 
" style="stroke: #000000; stroke-width: 0.8"/>
      </defs>
      <g>
       <use xlink:href="#m8ced3af0b6" x="144" y="492.510506" style="stroke: #000000; stroke-width: 0.8"/>
      </g>
     </g>
     <g id="text_8">
      <!-- 0 -->
      <g transform="translate(130.6375 496.309725) scale(0.1 -0.1)">
       <use xlink:href="#DejaVuSans-30"/>
      </g>
     </g>
    </g>
    <g id="ytick_2">
     <g id="line2d_9">
      <g>
       <use xlink:href="#m8ced3af0b6" x="144" y="431.498174" style="stroke: #000000; stroke-width: 0.8"/>
      </g>
     </g>
     <g id="text_9">
      <!-- 2000 -->
      <g transform="translate(111.55 435.297392) scale(0.1 -0.1)">
       <use xlink:href="#DejaVuSans-32"/>
       <use xlink:href="#DejaVuSans-30" x="63.623047"/>
       <use xlink:href="#DejaVuSans-30" x="127.246094"/>
       <use xlink:href="#DejaVuSans-30" x="190.869141"/>
      </g>
     </g>
    </g>
    <g id="ytick_3">
     <g id="line2d_10">
      <g>
       <use xlink:href="#m8ced3af0b6" x="144" y="370.485841" style="stroke: #000000; stroke-width: 0.8"/>
      </g>
     </g>
     <g id="text_10">
      <!-- 4000 -->
      <g transform="translate(111.55 374.28506) scale(0.1 -0.1)">
       <use xlink:href="#DejaVuSans-34"/>
       <use xlink:href="#DejaVuSans-30" x="63.623047"/>
       <use xlink:href="#DejaVuSans-30" x="127.246094"/>
       <use xlink:href="#DejaVuSans-30" x="190.869141"/>
      </g>
     </g>
    </g>
    <g id="ytick_4">
     <g id="line2d_11">
      <g>
       <use xlink:href="#m8ced3af0b6" x="144" y="309.473508" style="stroke: #000000; stroke-width: 0.8"/>
      </g>
     </g>
     <g id="text_11">
      <!-- 6000 -->
      <g transform="translate(111.55 313.272727) scale(0.1 -0.1)">
       <use xlink:href="#DejaVuSans-36"/>
       <use xlink:href="#DejaVuSans-30" x="63.623047"/>
       <use xlink:href="#DejaVuSans-30" x="127.246094"/>
       <use xlink:href="#DejaVuSans-30" x="190.869141"/>
      </g>
     </g>
    </g>
    <g id="ytick_5">
     <g id="line2d_12">
      <g>
       <use xlink:href="#m8ced3af0b6" x="144" y="248.461176" style="stroke: #000000; stroke-width: 0.8"/>
      </g>
     </g>
     <g id="text_12">
      <!-- 8000 -->
      <g transform="translate(111.55 252.260395) scale(0.1 -0.1)">
       <use xlink:href="#DejaVuSans-38"/>
       <use xlink:href="#DejaVuSans-30" x="63.623047"/>
       <use xlink:href="#DejaVuSans-30" x="127.246094"/>
       <use xlink:href="#DejaVuSans-30" x="190.869141"/>
      </g>
     </g>
    </g>
    <g id="ytick_6">
     <g id="line2d_13">
      <g>
       <use xlink:href="#m8ced3af0b6" x="144" y="187.448843" style="stroke: #000000; stroke-width: 0.8"/>
      </g>
     </g>
     <g id="text_13">
      <!-- 10000 -->
      <g transform="translate(105.1875 191.248062) scale(0.1 -0.1)">
       <use xlink:href="#DejaVuSans-31"/>
       <use xlink:href="#DejaVuSans-30" x="63.623047"/>
       <use xlink:href="#DejaVuSans-30" x="127.246094"/>
       <use xlink:href="#DejaVuSans-30" x="190.869141"/>
       <use xlink:href="#DejaVuSans-30" x="254.492188"/>
      </g>
     </g>
    </g>
    <g id="ytick_7">
     <g id="line2d_14">
      <g>
       <use xlink:href="#m8ced3af0b6" x="144" y="126.436511" style="stroke: #000000; stroke-width: 0.8"/>
      </g>
     </g>
     <g id="text_14">
      <!-- 12000 -->
      <g transform="translate(105.1875 130.235729) scale(0.1 -0.1)">
       <use xlink:href="#DejaVuSans-31"/>
       <use xlink:href="#DejaVuSans-32" x="63.623047"/>
       <use xlink:href="#DejaVuSans-30" x="127.246094"/>
       <use xlink:href="#DejaVuSans-30" x="190.869141"/>
       <use xlink:href="#DejaVuSans-30" x="254.492188"/>
      </g>
     </g>
    </g>
   </g>
   <g id="line2d_15">
    <path d="M 184.581818 492.48 
L 186.268433 492.418988 
L 287.277899 492.266457 
L 440.572415 492.113926 
L 491.545652 491.930889 
L 504.851166 491.839371 
L 537.271644 491.656334 
L 540.457472 491.595321 
L 563.882672 491.473297 
L 593.86693 491.29026 
L 594.241733 491.04621 
L 598.177167 490.893679 
L 632.846464 490.741149 
L 657.770878 490.588618 
L 672.200802 490.375075 
L 688.129938 489.917482 
L 689.44175 489.825964 
L 700.311043 489.581914 
L 706.870099 489.185334 
L 716.614983 488.971791 
L 721.112621 487.843063 
L 721.300023 487.721038 
L 722.986638 487.62952 
L 723.736244 487.202433 
L 723.923646 486.470285 
L 724.298449 486.287248 
L 724.48585 486.256742 
L 724.673252 485.280545 
L 725.797662 484.853458 
L 726.172465 484.334854 
L 726.547268 484.182323 
L 726.73467 483.816249 
L 726.922071 482.992582 
L 727.109473 482.748533 
L 727.296875 482.321447 
L 727.484276 481.436768 
L 727.671678 479.758929 
L 728.233883 478.538682 
L 728.608686 473.017066 
L 728.796087 472.437449 
L 729.170891 468.92924 
L 729.358292 468.349622 
L 729.545694 466.824314 
L 729.733095 466.732796 
L 730.2953 464.749895 
L 730.482702 460.448525 
L 730.670103 460.082451 
L 731.044907 458.862205 
L 731.232308 458.770686 
L 731.41971 458.099551 
L 731.607112 455.048934 
L 731.794513 454.316786 
L 731.981915 454.28628 
L 732.169316 452.028823 
L 732.356718 451.754268 
L 732.731521 451.601737 
L 733.481128 449.405293 
L 733.855931 448.79517 
L 734.418136 447.117331 
L 734.792939 442.480393 
L 735.167742 440.314456 
L 735.729947 440.222937 
L 736.10475 440.009394 
L 736.854357 438.819653 
L 737.22916 438.758641 
L 737.603963 436.196123 
L 737.791365 436.165617 
L 738.166168 435.738531 
L 738.353569 434.640309 
L 738.728373 434.274235 
L 738.915774 434.121704 
L 739.103176 433.603099 
L 739.665381 433.420062 
L 740.040184 433.115 
L 740.414987 431.986272 
L 740.602389 431.894754 
L 740.977192 431.437161 
L 741.726798 431.101593 
L 741.9142 430.033878 
L 742.289003 429.820334 
L 742.476405 427.776421 
L 742.851208 427.715409 
L 743.226011 427.105286 
L 743.413413 426.525668 
L 743.975618 426.403644 
L 744.163019 426.220607 
L 744.537822 425.64099 
L 744.725224 425.610483 
L 745.100027 425.152891 
L 745.474831 425.030866 
L 745.662232 423.627583 
L 746.59924 423.444546 
L 746.786642 423.414039 
L 747.161445 423.16999 
L 747.911051 423.078472 
L 748.098453 422.925941 
L 750.722076 422.224299 
L 751.096879 421.98025 
L 752.033887 421.858225 
L 752.783493 421.492151 
L 754.657509 421.126077 
L 755.407116 418.746596 
L 756.344124 418.624571 
L 756.531525 418.563559 
L 758.030738 418.411028 
L 758.780345 418.136473 
L 759.904754 417.983942 
L 761.591369 417.373819 
L 761.966172 417.221288 
L 762.153574 417.160275 
L 762.340975 416.946732 
L 763.090582 416.702683 
L 764.02759 416.641671 
L 764.214991 416.428127 
L 764.589795 416.397621 
L 764.777196 415.909523 
L 764.964598 415.84851 
L 765.151999 415.207881 
L 767.963023 414.65877 
L 768.150425 414.292696 
L 769.462236 413.987634 
L 770.024441 413.804597 
L 770.774048 413.652066 
L 771.523654 413.469029 
L 772.460662 413.285992 
L 773.959875 412.706375 
L 774.334678 412.553844 
L 774.52208 411.943721 
L 775.459088 411.272585 
L 775.646489 410.99803 
L 776.583497 410.296388 
L 776.958301 409.655758 
L 777.145702 409.625252 
L 777.520505 408.923611 
L 778.270112 408.13045 
L 778.832317 408.038932 
L 779.019718 407.794882 
L 779.394522 407.642352 
L 779.581923 407.33729 
L 780.518931 407.123747 
L 780.706333 406.849191 
L 782.580349 406.513623 
L 782.76775 406.361093 
L 783.704759 406.239068 
L 785.01657 405.720463 
L 785.578775 405.628945 
L 785.953578 405.11034 
L 786.328381 404.896797 
L 787.265389 404.286673 
L 787.452791 403.585031 
L 788.202397 403.371488 
L 788.952004 403.066427 
L 790.638618 402.181748 
L 790.82602 401.876686 
L 791.388224 401.693649 
L 792.325232 401.266563 
L 792.700036 398.124428 
L 792.887437 397.117724 
L 793.074839 395.287354 
L 793.262241 395.073811 
L 793.824445 393.151923 
L 794.38665 392.206231 
L 794.574052 392.145219 
L 794.948855 391.779145 
L 795.136257 390.86396 
L 795.323658 390.528392 
L 795.698461 390.436874 
L 796.260666 389.704726 
L 796.448068 389.155615 
L 797.010273 388.514985 
L 797.197674 387.691319 
L 798.134682 386.196517 
L 798.884289 385.891455 
L 799.07169 385.76943 
L 799.259092 384.97627 
L 799.821297 384.701714 
L 800.570903 383.878048 
L 800.758305 383.298431 
L 800.945706 383.267925 
L 801.507911 382.688307 
L 801.882714 382.657801 
L 802.070116 382.35274 
L 802.444919 382.169703 
L 803.007124 381.651098 
L 803.381927 381.437555 
L 803.569329 380.91895 
L 804.88114 379.973259 
L 805.068542 379.88174 
L 805.443345 378.753012 
L 806.00555 378.539469 
L 806.567755 378.386938 
L 806.942558 377.807321 
L 807.129959 377.715802 
L 808.254369 376.404037 
L 809.003976 376.251506 
L 809.191377 376.221 
L 809.56618 375.488852 
L 809.940984 375.336321 
L 810.69059 375.061766 
L 811.440196 374.543161 
L 811.627598 374.512655 
L 812.189803 374.085569 
L 812.564606 373.963544 
L 812.939409 373.933038 
L 813.126811 373.750001 
L 813.314213 373.231396 
L 814.063819 373.017853 
L 814.251221 372.712791 
L 814.438622 372.682285 
L 814.626024 372.133174 
L 815.37563 371.889125 
L 815.750433 371.797606 
L 816.125237 371.523051 
L 818.186654 370.72989 
L 818.374056 369.93673 
L 818.748859 369.662174 
L 819.311064 369.479137 
L 819.873269 369.174076 
L 820.622875 369.052051 
L 820.810277 368.197878 
L 822.496891 367.435224 
L 822.871695 367.374212 
L 823.059096 367.130163 
L 823.621301 366.947126 
L 823.808703 366.886113 
L 823.996104 366.550546 
L 824.370907 366.520039 
L 824.745711 366.306496 
L 825.307915 366.031941 
L 825.495317 365.665867 
L 826.244923 365.513336 
L 826.619727 365.299793 
L 826.807128 365.269287 
L 826.99453 365.08625 
L 827.556735 364.933719 
L 827.744136 364.659163 
L 827.931538 364.628657 
L 828.306341 364.384608 
L 828.681144 364.232077 
L 828.868546 364.079546 
L 829.992956 363.804991 
L 830.180357 363.469423 
L 830.742562 363.316892 
L 831.304767 363.225373 
L 831.67957 362.950818 
L 832.241775 362.798287 
L 832.616578 362.676262 
L 832.80398 362.462719 
L 833.178783 362.401707 
L 833.366185 361.883102 
L 833.553586 361.791584 
L 833.928389 361.395003 
L 834.115791 360.754374 
L 834.490594 360.540831 
L 834.677996 360.449312 
L 834.865397 360.205263 
L 835.240201 359.99172 
L 835.989807 359.442609 
L 836.36461 359.320584 
L 836.552012 358.985016 
L 836.926815 358.801979 
L 837.48902 358.466411 
L 838.051225 358.313881 
L 838.426028 357.9173 
L 840.112642 356.666548 
L 840.674847 356.514017 
L 841.237052 356.391992 
L 841.424454 356.33098 
L 842.548863 355.385289 
L 842.923667 355.232758 
L 844.610281 354.622634 
L 844.985084 354.378585 
L 845.547289 354.226054 
L 846.109494 353.920993 
L 846.671699 353.768462 
L 847.233904 353.524412 
L 848.170912 353.371882 
L 848.733116 353.005808 
L 848.920518 352.975302 
L 849.10792 352.67024 
L 851.544141 351.785561 
L 851.918944 351.602524 
L 852.293747 351.541512 
L 852.66855 351.144932 
L 852.855952 349.833166 
L 853.230755 349.528105 
L 853.605558 349.375574 
L 854.167763 348.643426 
L 854.542566 348.36887 
L 854.917369 347.545204 
L 855.292173 347.331661 
L 855.666976 347.148624 
L 856.041779 347.057105 
L 856.416582 346.813056 
L 856.603984 346.691031 
L 857.540992 346.477488 
L 857.915795 346.111414 
L 858.478 345.684328 
L 858.852803 345.562303 
L 859.227606 345.196229 
L 860.352016 344.433575 
L 860.726819 344.403069 
L 860.914221 344.128513 
L 861.663827 343.91497 
L 861.851229 343.304847 
L 862.226032 342.999785 
L 862.975639 342.786242 
L 863.350442 342.633711 
L 863.537843 342.206625 
L 863.912647 342.0846 
L 864.100048 341.68802 
L 864.662253 341.29144 
L 865.037056 341.108403 
L 865.41186 341.016884 
L 865.786663 340.803341 
L 865.974064 340.772835 
L 866.348868 340.559292 
L 867.098474 340.162712 
L 867.473277 339.430564 
L 868.97249 338.698416 
L 869.159892 338.149305 
L 869.722097 337.935762 
L 870.284301 337.295132 
L 870.471703 337.23412 
L 870.846506 336.959564 
L 871.033908 336.929058 
L 871.408711 336.471466 
L 871.783514 336.257922 
L 872.533121 335.952861 
L 872.720522 335.647799 
L 873.095325 335.586787 
L 873.282727 335.373244 
L 873.470129 335.342737 
L 873.65753 334.732614 
L 874.219735 334.549577 
L 874.407137 334.458059 
L 874.594538 334.152997 
L 874.969342 333.939454 
L 875.531546 333.268318 
L 877.030759 332.383639 
L 877.592964 332.231108 
L 877.780366 332.13959 
L 878.155169 331.681997 
L 878.34257 331.620985 
L 879.279579 330.827825 
L 879.841783 330.553269 
L 880.216587 330.370232 
L 880.403988 330.339726 
L 880.59139 329.699097 
L 881.153595 329.333023 
L 881.340996 328.753405 
L 881.715799 328.47885 
L 881.903201 328.234801 
L 882.090603 328.204294 
L 882.840209 327.533159 
L 883.589815 327.228097 
L 883.964619 326.953542 
L 885.089028 326.465443 
L 885.838635 325.489246 
L 886.588241 325.062159 
L 886.775643 324.848616 
L 886.963044 324.81811 
L 887.150446 324.482542 
L 889.586667 323.201283 
L 889.96147 322.957234 
L 890.336273 322.896222 
L 890.711077 322.713185 
L 891.08588 322.560654 
L 892.022888 321.889518 
L 893.334699 321.126864 
L 893.896904 320.882815 
L 894.459109 320.638765 
L 895.021314 320.394716 
L 895.396117 320.272691 
L 895.583518 319.174469 
L 896.145723 318.93042 
L 896.333125 318.655864 
L 896.520526 318.625358 
L 897.082731 317.771186 
L 897.270133 317.466124 
L 897.457534 317.374605 
L 897.644936 317.008531 
L 898.019739 316.886507 
L 898.769346 315.879803 
L 899.144149 314.507026 
L 899.331551 314.079939 
L 899.706354 311.883495 
L 899.893755 310.968311 
L 900.643362 310.114138 
L 900.830763 309.931101 
L 901.58037 307.216052 
L 901.767771 307.063521 
L 901.955173 306.666941 
L 902.142575 305.233151 
L 902.329976 304.775559 
L 902.517378 304.745053 
L 902.704779 304.073917 
L 903.266984 303.707843 
L 903.641788 302.731646 
L 905.703205 301.694436 
L 906.26541 301.053806 
L 906.640213 300.413177 
L 907.015016 300.291152 
L 907.38982 300.138621 
L 907.764623 299.925078 
L 908.139426 299.742041 
L 909.076434 299.497992 
L 909.451237 299.314955 
L 910.013442 299.253943 
L 911.700057 298.00319 
L 912.07486 297.789647 
L 912.262261 297.515091 
L 913.011868 297.240536 
L 913.19927 297.149017 
L 913.386671 296.477882 
L 913.948876 296.050795 
L 914.323679 295.989783 
L 915.073286 295.471178 
L 916.010294 295.13561 
L 916.385097 294.769536 
L 916.7599 294.708524 
L 917.322105 293.671314 
L 917.696908 293.518783 
L 918.259113 292.481574 
L 918.446515 291.901957 
L 918.633916 291.840944 
L 919.008719 291.566389 
L 919.383523 291.291833 
L 919.570924 291.017278 
L 919.945727 289.827537 
L 920.133129 289.583488 
L 920.320531 288.942858 
L 920.507932 288.881846 
L 920.695334 288.363241 
L 921.070137 288.180204 
L 922.194547 287.234513 
L 922.381948 286.807427 
L 922.756752 286.715908 
L 923.506358 286.349834 
L 924.255964 286.105785 
L 924.443366 285.465155 
L 928.003997 283.055168 
L 928.191398 282.780613 
L 928.3788 282.17049 
L 929.503209 281.682391 
L 929.878013 281.224798 
L 930.252816 281.13328 
L 930.440217 280.767206 
L 930.815021 280.614675 
L 931.002422 280.309613 
L 932.876438 279.272404 
L 933.438643 278.784305 
L 934.000848 278.235194 
L 934.18825 277.86912 
L 934.375651 277.258997 
L 934.750454 276.709886 
L 934.937856 276.374318 
L 935.687462 272.744084 
L 936.062266 271.98143 
L 936.249667 271.615356 
L 936.437069 269.998529 
L 936.624471 266.856394 
L 937.936282 258.284161 
L 938.311085 254.135323 
L 938.685888 253.555706 
L 939.060691 248.18662 
L 939.248093 246.783337 
L 939.622896 240.86514 
L 939.997699 239.736412 
L 940.185101 236.685796 
L 940.372503 236.136685 
L 940.747306 232.811512 
L 941.122109 223.8427 
L 941.309511 223.354601 
L 941.496912 222.500428 
L 941.684314 219.754873 
L 941.871716 219.54133 
L 942.246519 214.934899 
L 942.621322 214.721356 
L 942.996125 213.867183 
L 943.183527 213.65364 
L 943.370928 213.226554 
L 943.55833 212.341875 
L 943.933133 212.158838 
L 944.495338 210.511505 
L 944.870141 208.193036 
L 945.057543 207.76595 
L 945.244944 207.704938 
L 945.432346 207.491394 
L 945.807149 206.881271 
L 945.994551 205.874568 
L 946.181953 205.661024 
L 946.369354 205.264444 
L 946.556756 205.203432 
L 946.931559 204.623815 
L 947.306362 204.471284 
L 947.493764 204.013691 
L 947.681165 203.861161 
L 948.055969 203.342556 
L 948.430772 203.037494 
L 948.992977 202.549395 
L 949.180378 202.518889 
L 949.742583 201.939272 
L 950.304788 201.542692 
L 950.49219 201.48168 
L 951.241796 201.329149 
L 951.429198 201.146112 
L 951.804001 201.085099 
L 952.366206 200.688519 
L 953.865418 199.986878 
L 954.05282 199.559791 
L 954.989828 199.315742 
L 955.552033 198.766631 
L 955.926836 198.553088 
L 956.676443 197.729421 
L 957.426049 197.454866 
L 957.988254 197.088792 
L 958.363057 196.814236 
L 958.73786 196.539681 
L 959.112663 196.295631 
L 959.300065 195.59399 
L 960.049672 195.105891 
L 960.237073 194.831335 
L 960.611876 194.617792 
L 961.174081 194.221212 
L 962.298491 193.580583 
L 962.485892 193.428052 
L 963.048097 193.367039 
L 963.4229 192.482361 
L 963.610302 192.390842 
L 963.985105 191.902743 
L 964.734712 191.201102 
L 964.922113 191.109583 
L 965.484318 190.346929 
L 965.67172 189.736806 
L 965.859121 189.584275 
L 966.233925 189.523262 
L 966.608728 189.157188 
L 967.358334 188.791114 
L 967.733137 188.66909 
L 968.482744 187.875929 
L 968.670145 187.845423 
L 968.857547 184.21519 
L 969.23235 183.696585 
L 969.607154 183.361017 
L 969.794555 182.994943 
L 969.981957 182.964437 
L 970.35676 182.567857 
L 970.544162 181.988239 
L 971.668571 180.767993 
L 971.855973 180.432425 
L 972.230776 178.602055 
L 972.418178 178.022438 
L 972.605579 177.076747 
L 972.792981 176.802191 
L 972.980382 175.642957 
L 973.355186 174.697266 
L 973.542587 173.965118 
L 974.292194 173.110945 
L 974.666997 172.59234 
L 975.0418 172.165254 
L 975.604005 171.982217 
L 976.16621 171.433106 
L 976.728415 170.487415 
L 976.915816 170.426402 
L 977.290619 170.029822 
L 977.478021 169.846785 
L 977.852824 169.114637 
L 978.227627 168.687551 
L 978.415029 167.680847 
L 979.72684 166.735156 
L 981.038652 164.996305 
L 981.413455 164.020107 
L 981.600856 163.83707 
L 982.163061 162.525305 
L 982.350463 162.433787 
L 982.537864 161.85417 
L 982.725266 161.640626 
L 983.287471 159.932281 
L 983.849676 159.047602 
L 984.411881 158.712035 
L 984.599282 158.19343 
L 985.53629 157.186726 
L 985.723692 156.729134 
L 986.473298 154.014085 
L 986.6607 153.556492 
L 986.848101 151.970172 
L 987.035503 151.726122 
L 987.222905 150.383851 
L 987.597708 149.804234 
L 987.785109 149.255123 
L 988.159913 146.845136 
L 988.534716 145.960457 
L 988.722118 145.77742 
L 988.909519 137.815311 
L 989.096921 134.7952 
L 989.284322 116.73555 
L 989.846527 115.454291 
L 990.033929 115.271254 
L 990.408732 113.806958 
L 990.783535 112.83076 
L 991.907945 105.1127 
L 992.47015 103.556886 
L 992.657551 101.634997 
L 993.032354 100.933356 
L 993.407158 99.46906 
L 993.594559 97.577677 
L 993.781961 97.150591 
L 994.156764 95.869332 
L 994.718969 94.832122 
L 994.906371 94.710098 
L 995.843379 90.652777 
L 996.218182 89.28 
L 996.218182 89.28 
" clip-path="url(#pc4992e84dd)" style="fill: none; stroke: #1f77b4; stroke-width: 1.5; stroke-linecap: square"/>
   </g>
   <g id="patch_3">
    <path d="M 144 512.64 
L 144 69.12 
" style="fill: none; stroke: #000000; stroke-width: 0.8; stroke-linejoin: miter; stroke-linecap: square"/>
   </g>
   <g id="patch_4">
    <path d="M 1036.8 512.64 
L 1036.8 69.12 
" style="fill: none; stroke: #000000; stroke-width: 0.8; stroke-linejoin: miter; stroke-linecap: square"/>
   </g>
   <g id="patch_5">
    <path d="M 144 512.64 
L 1036.8 512.64 
" style="fill: none; stroke: #000000; stroke-width: 0.8; stroke-linejoin: miter; stroke-linecap: square"/>
   </g>
   <g id="patch_6">
    <path d="M 144 69.12 
L 1036.8 69.12 
" style="fill: none; stroke: #000000; stroke-width: 0.8; stroke-linejoin: miter; stroke-linecap: square"/>
   </g>
   <g id="text_15">
    <!-- Number of AEDs in the OpenStreetMap database in Poland from first edition, day by day. As at: 2025-12-20 -->
    <g transform="translate(144 63.12) scale(0.14 -0.14)">
     <defs>
      <path id="DejaVuSans-4e" d="M 628 4666 
L 1478 4666 
L 3547 763 
L 3547 4666 
L 4159 4666 
L 4159 0 
L 3309 0 
L 1241 3903 
L 1241 0 
L 628 0 
L 628 4666 
z
" transform="scale(0.015625)"/>
      <path id="DejaVuSans-75" d="M 544 1381 
L 544 3500 
L 1119 3500 
L 1119 1403 
Q 1119 906 1312 657 
Q 1506 409 1894 409 
Q 2359 409 2629 706 
Q 2900 1003 2900 1516 
L 2900 3500 
L 3475 3500 
L 3475 0 
L 2900 0 
L 2900 538 
Q 2691 219 2414 64 
Q 2138 -91 1772 -91 
Q 1169 -91 856 284 
Q 544 659 544 1381 
z
M 1991 3584 
L 1991 3584 
z
" transform="scale(0.015625)"/>
      <path id="DejaVuSans-6d" d="M 3328 2828 
Q 3544 3216 3844 3400 
Q 4144 3584 4550 3584 
Q 5097 3584 5394 3201 
Q 5691 2819 5691 2113 
L 5691 0 
L 5113 0 
L 5113 2094 
Q 5113 2597 4934 2840 
Q 4756 3084 4391 3084 
Q 3944 3084 3684 2787 
Q 3425 2491 3425 1978 
L 3425 0 
L 2847 0 
L 2847 2094 
Q 2847 2600 2669 2842 
Q 2491 3084 2119 3084 
Q 1678 3084 1418 2786 
Q 1159 2488 1159 1978 
L 1159 0 
L 581 0 
L 581 3500 
L 1159 3500 
L 1159 2956 
Q 1356 3278 1631 3431 
Q 1906 3584 2284 3584 
Q 2666 3584 2933 3390 
Q 3200 3197 3328 2828 
z
" transform="scale(0.015625)"/>
      <path id="DejaVuSans-62" d="M 3116 1747 
Q 3116 2381 2855 2742 
Q 2594 3103 2138 3103 
Q 1681 3103 1420 2742 
Q 1159 2381 1159 1747 
Q 1159 1113 1420 752 
Q 1681 391 2138 391 
Q 2594 391 2855 752 
Q 3116 1113 3116 1747 
z
M 1159 2969 
Q 1341 3281 1617 3432 
Q 1894 3584 2278 3584 
Q 2916 3584 3314 3078 
Q 3713 2572 3713 1747 
Q 3713 922 3314 415 
Q 2916 -91 2278 -91 
Q 1894 -91 1617 61 
Q 1341 213 1159 525 
L 1159 0 
L 581 0 
L 581 4863 
L 1159 4863 
L 1159 2969 
z
" transform="scale(0.015625)"/>
      <path id="DejaVuSans-65" d="M 3597 1894 
L 3597 1613 
L 953 1613 
Q 991 1019 1311 708 
Q 1631 397 2203 397 
Q 2534 397 2845 478 
Q 3156 559 3463 722 
L 3463 178 
Q 3153 47 2828 -22 
Q 2503 -91 2169 -91 
Q 1331 -91 842 396 
Q 353 884 353 1716 
Q 353 2575 817 3079 
Q 1281 3584 2069 3584 
Q 2775 3584 3186 3129 
Q 3597 2675 3597 1894 
z
M 3022 2063 
Q 3016 2534 2758 2815 
Q 2500 3097 2075 3097 
Q 1594 3097 1305 2825 
Q 1016 2553 972 2059 
L 3022 2063 
z
" transform="scale(0.015625)"/>
      <path id="DejaVuSans-72" d="M 2631 2963 
Q 2534 3019 2420 3045 
Q 2306 3072 2169 3072 
Q 1681 3072 1420 2755 
Q 1159 2438 1159 1844 
L 1159 0 
L 581 0 
L 581 3500 
L 1159 3500 
L 1159 2956 
Q 1341 3275 1631 3429 
Q 1922 3584 2338 3584 
Q 2397 3584 2469 3576 
Q 2541 3569 2628 3553 
L 2631 2963 
z
" transform="scale(0.015625)"/>
      <path id="DejaVuSans-20" transform="scale(0.015625)"/>
      <path id="DejaVuSans-6f" d="M 1959 3097 
Q 1497 3097 1228 2736 
Q 959 2375 959 1747 
Q 959 1119 1226 758 
Q 1494 397 1959 397 
Q 2419 397 2687 759 
Q 2956 1122 2956 1747 
Q 2956 2369 2687 2733 
Q 2419 3097 1959 3097 
z
M 1959 3584 
Q 2709 3584 3137 3096 
Q 3566 2609 3566 1747 
Q 3566 888 3137 398 
Q 2709 -91 1959 -91 
Q 1206 -91 779 398 
Q 353 888 353 1747 
Q 353 2609 779 3096 
Q 1206 3584 1959 3584 
z
" transform="scale(0.015625)"/>
      <path id="DejaVuSans-66" d="M 2375 4863 
L 2375 4384 
L 1825 4384 
Q 1516 4384 1395 4259 
Q 1275 4134 1275 3809 
L 1275 3500 
L 2222 3500 
L 2222 3053 
L 1275 3053 
L 1275 0 
L 697 0 
L 697 3053 
L 147 3053 
L 147 3500 
L 697 3500 
L 697 3744 
Q 697 4328 969 4595 
Q 1241 4863 1831 4863 
L 2375 4863 
z
" transform="scale(0.015625)"/>
      <path id="DejaVuSans-41" d="M 2188 4044 
L 1331 1722 
L 3047 1722 
L 2188 4044 
z
M 1831 4666 
L 2547 4666 
L 4325 0 
L 3669 0 
L 3244 1197 
L 1141 1197 
L 716 0 
L 50 0 
L 1831 4666 
z
" transform="scale(0.015625)"/>
      <path id="DejaVuSans-45" d="M 628 4666 
L 3578 4666 
L 3578 4134 
L 1259 4134 
L 1259 2753 
L 3481 2753 
L 3481 2222 
L 1259 2222 
L 1259 531 
L 3634 531 
L 3634 0 
L 628 0 
L 628 4666 
z
" transform="scale(0.015625)"/>
      <path id="DejaVuSans-44" d="M 1259 4147 
L 1259 519 
L 2022 519 
Q 2988 519 3436 956 
Q 3884 1394 3884 2338 
Q 3884 3275 3436 3711 
Q 2988 4147 2022 4147 
L 1259 4147 
z
M 628 4666 
L 1925 4666 
Q 3281 4666 3915 4102 
Q 4550 3538 4550 2338 
Q 4550 1131 3912 565 
Q 3275 0 1925 0 
L 628 0 
L 628 4666 
z
" transform="scale(0.015625)"/>
      <path id="DejaVuSans-73" d="M 2834 3397 
L 2834 2853 
Q 2591 2978 2328 3040 
Q 2066 3103 1784 3103 
Q 1356 3103 1142 2972 
Q 928 2841 928 2578 
Q 928 2378 1081 2264 
Q 1234 2150 1697 2047 
L 1894 2003 
Q 2506 1872 2764 1633 
Q 3022 1394 3022 966 
Q 3022 478 2636 193 
Q 2250 -91 1575 -91 
Q 1294 -91 989 -36 
Q 684 19 347 128 
L 347 722 
Q 666 556 975 473 
Q 1284 391 1588 391 
Q 1994 391 2212 530 
Q 2431 669 2431 922 
Q 2431 1156 2273 1281 
Q 2116 1406 1581 1522 
L 1381 1569 
Q 847 1681 609 1914 
Q 372 2147 372 2553 
Q 372 3047 722 3315 
Q 1072 3584 1716 3584 
Q 2034 3584 2315 3537 
Q 2597 3491 2834 3397 
z
" transform="scale(0.015625)"/>
      <path id="DejaVuSans-69" d="M 603 3500 
L 1178 3500 
L 1178 0 
L 603 0 
L 603 3500 
z
M 603 4863 
L 1178 4863 
L 1178 4134 
L 603 4134 
L 603 4863 
z
" transform="scale(0.015625)"/>
      <path id="DejaVuSans-6e" d="M 3513 2113 
L 3513 0 
L 2938 0 
L 2938 2094 
Q 2938 2591 2744 2837 
Q 2550 3084 2163 3084 
Q 1697 3084 1428 2787 
Q 1159 2491 1159 1978 
L 1159 0 
L 581 0 
L 581 3500 
L 1159 3500 
L 1159 2956 
Q 1366 3272 1645 3428 
Q 1925 3584 2291 3584 
Q 2894 3584 3203 3211 
Q 3513 2838 3513 2113 
z
" transform="scale(0.015625)"/>
      <path id="DejaVuSans-74" d="M 1172 4494 
L 1172 3500 
L 2356 3500 
L 2356 3053 
L 1172 3053 
L 1172 1153 
Q 1172 725 1289 603 
Q 1406 481 1766 481 
L 2356 481 
L 2356 0 
L 1766 0 
Q 1100 0 847 248 
Q 594 497 594 1153 
L 594 3053 
L 172 3053 
L 172 3500 
L 594 3500 
L 594 4494 
L 1172 4494 
z
" transform="scale(0.015625)"/>
      <path id="DejaVuSans-68" d="M 3513 2113 
L 3513 0 
L 2938 0 
L 2938 2094 
Q 2938 2591 2744 2837 
Q 2550 3084 2163 3084 
Q 1697 3084 1428 2787 
Q 1159 2491 1159 1978 
L 1159 0 
L 581 0 
L 581 4863 
L 1159 4863 
L 1159 2956 
Q 1366 3272 1645 3428 
Q 1925 3584 2291 3584 
Q 2894 3584 3203 3211 
Q 3513 2838 3513 2113 
z
" transform="scale(0.015625)"/>
      <path id="DejaVuSans-4f" d="M 2522 4238 
Q 1834 4238 1429 3725 
Q 1025 3213 1025 2328 
Q 1025 1447 1429 934 
Q 1834 422 2522 422 
Q 3209 422 3611 934 
Q 4013 1447 4013 2328 
Q 4013 3213 3611 3725 
Q 3209 4238 2522 4238 
z
M 2522 4750 
Q 3503 4750 4090 4092 
Q 4678 3434 4678 2328 
Q 4678 1225 4090 567 
Q 3503 -91 2522 -91 
Q 1538 -91 948 565 
Q 359 1222 359 2328 
Q 359 3434 948 4092 
Q 1538 4750 2522 4750 
z
" transform="scale(0.015625)"/>
      <path id="DejaVuSans-70" d="M 1159 525 
L 1159 -1331 
L 581 -1331 
L 581 3500 
L 1159 3500 
L 1159 2969 
Q 1341 3281 1617 3432 
Q 1894 3584 2278 3584 
Q 2916 3584 3314 3078 
Q 3713 2572 3713 1747 
Q 3713 922 3314 415 
Q 2916 -91 2278 -91 
Q 1894 -91 1617 61 
Q 1341 213 1159 525 
z
M 3116 1747 
Q 3116 2381 2855 2742 
Q 2594 3103 2138 3103 
Q 1681 3103 1420 2742 
Q 1159 2381 1159 1747 
Q 1159 1113 1420 752 
Q 1681 391 2138 391 
Q 2594 391 2855 752 
Q 3116 1113 3116 1747 
z
" transform="scale(0.015625)"/>
      <path id="DejaVuSans-53" d="M 3425 4513 
L 3425 3897 
Q 3066 4069 2747 4153 
Q 2428 4238 2131 4238 
Q 1616 4238 1336 4038 
Q 1056 3838 1056 3469 
Q 1056 3159 1242 3001 
Q 1428 2844 1947 2747 
L 2328 2669 
Q 3034 2534 3370 2195 
Q 3706 1856 3706 1288 
Q 3706 609 3251 259 
Q 2797 -91 1919 -91 
Q 1588 -91 1214 -16 
Q 841 59 441 206 
L 441 856 
Q 825 641 1194 531 
Q 1563 422 1919 422 
Q 2459 422 2753 634 
Q 3047 847 3047 1241 
Q 3047 1584 2836 1778 
Q 2625 1972 2144 2069 
L 1759 2144 
Q 1053 2284 737 2584 
Q 422 2884 422 3419 
Q 422 4038 858 4394 
Q 1294 4750 2059 4750 
Q 2388 4750 2728 4690 
Q 3069 4631 3425 4513 
z
" transform="scale(0.015625)"/>
      <path id="DejaVuSans-4d" d="M 628 4666 
L 1569 4666 
L 2759 1491 
L 3956 4666 
L 4897 4666 
L 4897 0 
L 4281 0 
L 4281 4097 
L 3078 897 
L 2444 897 
L 1241 4097 
L 1241 0 
L 628 0 
L 628 4666 
z
" transform="scale(0.015625)"/>
      <path id="DejaVuSans-61" d="M 2194 1759 
Q 1497 1759 1228 1600 
Q 959 1441 959 1056 
Q 959 750 1161 570 
Q 1363 391 1709 391 
Q 2188 391 2477 730 
Q 2766 1069 2766 1631 
L 2766 1759 
L 2194 1759 
z
M 3341 1997 
L 3341 0 
L 2766 0 
L 2766 531 
Q 2569 213 2275 61 
Q 1981 -91 1556 -91 
Q 1019 -91 701 211 
Q 384 513 384 1019 
Q 384 1609 779 1909 
Q 1175 2209 1959 2209 
L 2766 2209 
L 2766 2266 
Q 2766 2663 2505 2880 
Q 2244 3097 1772 3097 
Q 1472 3097 1187 3025 
Q 903 2953 641 2809 
L 641 3341 
Q 956 3463 1253 3523 
Q 1550 3584 1831 3584 
Q 2591 3584 2966 3190 
Q 3341 2797 3341 1997 
z
" transform="scale(0.015625)"/>
      <path id="DejaVuSans-64" d="M 2906 2969 
L 2906 4863 
L 3481 4863 
L 3481 0 
L 2906 0 
L 2906 525 
Q 2725 213 2448 61 
Q 2172 -91 1784 -91 
Q 1150 -91 751 415 
Q 353 922 353 1747 
Q 353 2572 751 3078 
Q 1150 3584 1784 3584 
Q 2172 3584 2448 3432 
Q 2725 3281 2906 2969 
z
M 947 1747 
Q 947 1113 1208 752 
Q 1469 391 1925 391 
Q 2381 391 2643 752 
Q 2906 1113 2906 1747 
Q 2906 2381 2643 2742 
Q 2381 3103 1925 3103 
Q 1469 3103 1208 2742 
Q 947 2381 947 1747 
z
" transform="scale(0.015625)"/>
      <path id="DejaVuSans-50" d="M 1259 4147 
L 1259 2394 
L 2053 2394 
Q 2494 2394 2734 2622 
Q 2975 2850 2975 3272 
Q 2975 3691 2734 3919 
Q 2494 4147 2053 4147 
L 1259 4147 
z
M 628 4666 
L 2053 4666 
Q 2838 4666 3239 4311 
Q 3641 3956 3641 3272 
Q 3641 2581 3239 2228 
Q 2838 1875 2053 1875 
L 1259 1875 
L 1259 0 
L 628 0 
L 628 4666 
z
" transform="scale(0.015625)"/>
      <path id="DejaVuSans-6c" d="M 603 4863 
L 1178 4863 
L 1178 0 
L 603 0 
L 603 4863 
z
" transform="scale(0.015625)"/>
      <path id="DejaVuSans-2c" d="M 750 794 
L 1409 794 
L 1409 256 
L 897 -744 
L 494 -744 
L 750 256 
L 750 794 
z
" transform="scale(0.015625)"/>
      <path id="DejaVuSans-79" d="M 2059 -325 
Q 1816 -950 1584 -1140 
Q 1353 -1331 966 -1331 
L 506 -1331 
L 506 -850 
L 844 -850 
Q 1081 -850 1212 -737 
Q 1344 -625 1503 -206 
L 1606 56 
L 191 3500 
L 800 3500 
L 1894 763 
L 2988 3500 
L 3597 3500 
L 2059 -325 
z
" transform="scale(0.015625)"/>
      <path id="DejaVuSans-2e" d="M 684 794 
L 1344 794 
L 1344 0 
L 684 0 
L 684 794 
z
" transform="scale(0.015625)"/>
      <path id="DejaVuSans-3a" d="M 750 794 
L 1409 794 
L 1409 0 
L 750 0 
L 750 794 
z
M 750 3309 
L 1409 3309 
L 1409 2516 
L 750 2516 
L 750 3309 
z
" transform="scale(0.015625)"/>
      <path id="DejaVuSans-35" d="M 691 4666 
L 3169 4666 
L 3169 4134 
L 1269 4134 
L 1269 2991 
Q 1406 3038 1543 3061 
Q 1681 3084 1819 3084 
Q 2600 3084 3056 2656 
Q 3513 2228 3513 1497 
Q 3513 744 3044 326 
Q 2575 -91 1722 -91 
Q 1428 -91 1123 -41 
Q 819 9 494 109 
L 494 744 
Q 775 591 1075 516 
Q 1375 441 1709 441 
Q 2250 441 2565 725 
Q 2881 1009 2881 1497 
Q 2881 1984 2565 2268 
Q 2250 2553 1709 2553 
Q 1456 2553 1204 2497 
Q 953 2441 691 2322 
L 691 4666 
z
" transform="scale(0.015625)"/>
      <path id="DejaVuSans-2d" d="M 313 2009 
L 1997 2009 
L 1997 1497 
L 313 1497 
L 313 2009 
z
" transform="scale(0.015625)"/>
     </defs>
     <use xlink:href="#DejaVuSans-4e"/>
     <use xlink:href="#DejaVuSans-75" x="74.804688"/>
     <use xlink:href="#DejaVuSans-6d" x="138.183594"/>
     <use xlink:href="#DejaVuSans-62" x="235.595703"/>
     <use xlink:href="#DejaVuSans-65" x="299.072266"/>
     <use xlink:href="#DejaVuSans-72" x="360.595703"/>
     <use xlink:href="#DejaVuSans-20" x="401.708984"/>
     <use xlink:href="#DejaVuSans-6f" x="433.496094"/>
     <use xlink:href="#DejaVuSans-66" x="494.677734"/>
     <use xlink:href="#DejaVuSans-20" x="529.882812"/>
     <use xlink:href="#DejaVuSans-41" x="561.669922"/>
     <use xlink:href="#DejaVuSans-45" x="630.078125"/>
     <use xlink:href="#DejaVuSans-44" x="693.261719"/>
     <use xlink:href="#DejaVuSans-73" x="770.263672"/>
     <use xlink:href="#DejaVuSans-20" x="822.363281"/>
     <use xlink:href="#DejaVuSans-69" x="854.150391"/>
     <use xlink:href="#DejaVuSans-6e" x="881.933594"/>
     <use xlink:href="#DejaVuSans-20" x="945.3125"/>
     <use xlink:href="#DejaVuSans-74" x="977.099609"/>
     <use xlink:href="#DejaVuSans-68" x="1016.308594"/>
     <use xlink:href="#DejaVuSans-65" x="1079.6875"/>
     <use xlink:href="#DejaVuSans-20" x="1141.210938"/>
     <use xlink:href="#DejaVuSans-4f" x="1172.998047"/>
     <use xlink:href="#DejaVuSans-70" x="1251.708984"/>
     <use xlink:href="#DejaVuSans-65" x="1315.185547"/>
     <use xlink:href="#DejaVuSans-6e" x="1376.708984"/>
     <use xlink:href="#DejaVuSans-53" x="1440.087891"/>
     <use xlink:href="#DejaVuSans-74" x="1503.564453"/>
     <use xlink:href="#DejaVuSans-72" x="1542.773438"/>
     <use xlink:href="#DejaVuSans-65" x="1581.636719"/>
     <use xlink:href="#DejaVuSans-65" x="1643.160156"/>
     <use xlink:href="#DejaVuSans-74" x="1704.683594"/>
     <use xlink:href="#DejaVuSans-4d" x="1743.892578"/>
     <use xlink:href="#DejaVuSans-61" x="1830.171875"/>
     <use xlink:href="#DejaVuSans-70" x="1891.451172"/>
     <use xlink:href="#DejaVuSans-20" x="1954.927734"/>
     <use xlink:href="#DejaVuSans-64" x="1986.714844"/>
     <use xlink:href="#DejaVuSans-61" x="2050.191406"/>
     <use xlink:href="#DejaVuSans-74" x="2111.470703"/>
     <use xlink:href="#DejaVuSans-61" x="2150.679688"/>
     <use xlink:href="#DejaVuSans-62" x="2211.958984"/>
     <use xlink:href="#DejaVuSans-61" x="2275.435547"/>
     <use xlink:href="#DejaVuSans-73" x="2336.714844"/>
     <use xlink:href="#DejaVuSans-65" x="2388.814453"/>
     <use xlink:href="#DejaVuSans-20" x="2450.337891"/>
     <use xlink:href="#DejaVuSans-69" x="2482.125"/>
     <use xlink:href="#DejaVuSans-6e" x="2509.908203"/>
     <use xlink:href="#DejaVuSans-20" x="2573.287109"/>
     <use xlink:href="#DejaVuSans-50" x="2605.074219"/>
     <use xlink:href="#DejaVuSans-6f" x="2661.751953"/>
     <use xlink:href="#DejaVuSans-6c" x="2722.933594"/>
     <use xlink:href="#DejaVuSans-61" x="2750.716797"/>
     <use xlink:href="#DejaVuSans-6e" x="2811.996094"/>
     <use xlink:href="#DejaVuSans-64" x="2875.375"/>
     <use xlink:href="#DejaVuSans-20" x="2938.851562"/>
     <use xlink:href="#DejaVuSans-66" x="2970.638672"/>
     <use xlink:href="#DejaVuSans-72" x="3005.84375"/>
     <use xlink:href="#DejaVuSans-6f" x="3044.707031"/>
     <use xlink:href="#DejaVuSans-6d" x="3105.888672"/>
     <use xlink:href="#DejaVuSans-20" x="3203.300781"/>
     <use xlink:href="#DejaVuSans-66" x="3235.087891"/>
     <use xlink:href="#DejaVuSans-69" x="3270.292969"/>
     <use xlink:href="#DejaVuSans-72" x="3298.076172"/>
     <use xlink:href="#DejaVuSans-73" x="3339.189453"/>
     <use xlink:href="#DejaVuSans-74" x="3391.289062"/>
     <use xlink:href="#DejaVuSans-20" x="3430.498047"/>
     <use xlink:href="#DejaVuSans-65" x="3462.285156"/>
     <use xlink:href="#DejaVuSans-64" x="3523.808594"/>
     <use xlink:href="#DejaVuSans-69" x="3587.285156"/>
     <use xlink:href="#DejaVuSans-74" x="3615.068359"/>
     <use xlink:href="#DejaVuSans-69" x="3654.277344"/>
     <use xlink:href="#DejaVuSans-6f" x="3682.060547"/>
     <use xlink:href="#DejaVuSans-6e" x="3743.242188"/>
     <use xlink:href="#DejaVuSans-2c" x="3806.621094"/>
     <use xlink:href="#DejaVuSans-20" x="3838.408203"/>
     <use xlink:href="#DejaVuSans-64" x="3870.195312"/>
     <use xlink:href="#DejaVuSans-61" x="3933.671875"/>
     <use xlink:href="#DejaVuSans-79" x="3994.951172"/>
     <use xlink:href="#DejaVuSans-20" x="4054.130859"/>
     <use xlink:href="#DejaVuSans-62" x="4085.917969"/>
     <use xlink:href="#DejaVuSans-79" x="4149.394531"/>
     <use xlink:href="#DejaVuSans-20" x="4208.574219"/>
     <use xlink:href="#DejaVuSans-64" x="4240.361328"/>
     <use xlink:href="#DejaVuSans-61" x="4303.837891"/>
     <use xlink:href="#DejaVuSans-79" x="4365.117188"/>
     <use xlink:href="#DejaVuSans-2e" x="4410.046875"/>
     <use xlink:href="#DejaVuSans-20" x="4441.833984"/>
     <use xlink:href="#DejaVuSans-41" x="4473.621094"/>
     <use xlink:href="#DejaVuSans-73" x="4542.029297"/>
     <use xlink:href="#DejaVuSans-20" x="4594.128906"/>
     <use xlink:href="#DejaVuSans-61" x="4625.916016"/>
     <use xlink:href="#DejaVuSans-74" x="4687.195312"/>
     <use xlink:href="#DejaVuSans-3a" x="4726.404297"/>
     <use xlink:href="#DejaVuSans-20" x="4760.095703"/>
     <use xlink:href="#DejaVuSans-32" x="4791.882812"/>
     <use xlink:href="#DejaVuSans-30" x="4855.505859"/>
     <use xlink:href="#DejaVuSans-32" x="4919.128906"/>
     <use xlink:href="#DejaVuSans-35" x="4982.751953"/>
     <use xlink:href="#DejaVuSans-2d" x="5046.375"/>
     <use xlink:href="#DejaVuSans-31" x="5082.458984"/>
     <use xlink:href="#DejaVuSans-32" x="5146.082031"/>
     <use xlink:href="#DejaVuSans-2d" x="5209.705078"/>
     <use xlink:href="#DejaVuSans-32" x="5245.789062"/>
     <use xlink:href="#DejaVuSans-30" x="5309.412109"/>
    </g>
   </g>
  </g>
 </g>
 <defs>
  <clipPath id="pc4992e84dd">
   <rect x="144" y="69.12" width="892.8" height="443.52"/>
  </clipPath>
 </defs>
</svg>
