<?xml version="1.0" encoding="utf-8" standalone="no"?>
<!DOCTYPE svg PUBLIC "-//W3C//DTD SVG 1.1//EN"
  "http://www.w3.org/Graphics/SVG/1.1/DTD/svg11.dtd">
<svg xmlns:xlink="http://www.w3.org/1999/xlink" width="1152pt" height="576pt" viewBox="0 0 1152 576" xmlns="http://www.w3.org/2000/svg" version="1.1">
 <metadata>
  <rdf:RDF xmlns:dc="http://purl.org/dc/elements/1.1/" xmlns:cc="http://creativecommons.org/ns#" xmlns:rdf="http://www.w3.org/1999/02/22-rdf-syntax-ns#">
   <cc:Work>
    <dc:type rdf:resource="http://purl.org/dc/dcmitype/StillImage"/>
    <dc:date>1980-01-01T00:00:00+00:00</dc:date>
    <dc:format>image/svg+xml</dc:format>
    <dc:creator>
     <cc:Agent>
      <dc:title>Matplotlib v3.9.1, https://matplotlib.org/</dc:title>
     </cc:Agent>
    </dc:creator>
   </cc:Work>
  </rdf:RDF>
 </metadata>
 <defs>
  <style type="text/css">*{stroke-linejoin: round; stroke-linecap: butt}</style>
 </defs>
 <g id="figure_1">
  <g id="patch_1">
   <path d="M 0 576 
L 1152 576 
L 1152 0 
L 0 0 
z
" style="fill: #ffffff"/>
  </g>
  <g id="axes_1">
   <g id="patch_2">
    <path d="M 144 512.64 
L 1036.8 512.64 
L 1036.8 69.12 
L 144 69.12 
z
" style="fill: #ffffff"/>
   </g>
   <g id="matplotlib.axis_1">
    <g id="xtick_1">
     <g id="line2d_1">
      <defs>
       <path id="me2e082d596" d="M 0 0 
L 0 3.5 
" style="stroke: #000000; stroke-width: 0.8"/>
      </defs>
      <g>
       <use xlink:href="#me2e082d596" x="176.768231" y="512.64" style="stroke: #000000; stroke-width: 0.8"/>
      </g>
     </g>
     <g id="text_1">
      <!-- 2014 -->
      <g transform="translate(164.043231 527.238438) scale(0.1 -0.1)">
       <defs>
        <path id="DejaVuSans-32" d="M 1228 531 
L 3431 531 
L 3431 0 
L 469 0 
L 469 531 
Q 828 903 1448 1529 
Q 2069 2156 2228 2338 
Q 2531 2678 2651 2914 
Q 2772 3150 2772 3378 
Q 2772 3750 2511 3984 
Q 2250 4219 1831 4219 
Q 1534 4219 1204 4116 
Q 875 4013 500 3803 
L 500 4441 
Q 881 4594 1212 4672 
Q 1544 4750 1819 4750 
Q 2544 4750 2975 4387 
Q 3406 4025 3406 3419 
Q 3406 3131 3298 2873 
Q 3191 2616 2906 2266 
Q 2828 2175 2409 1742 
Q 1991 1309 1228 531 
z
" transform="scale(0.015625)"/>
        <path id="DejaVuSans-30" d="M 2034 4250 
Q 1547 4250 1301 3770 
Q 1056 3291 1056 2328 
Q 1056 1369 1301 889 
Q 1547 409 2034 409 
Q 2525 409 2770 889 
Q 3016 1369 3016 2328 
Q 3016 3291 2770 3770 
Q 2525 4250 2034 4250 
z
M 2034 4750 
Q 2819 4750 3233 4129 
Q 3647 3509 3647 2328 
Q 3647 1150 3233 529 
Q 2819 -91 2034 -91 
Q 1250 -91 836 529 
Q 422 1150 422 2328 
Q 422 3509 836 4129 
Q 1250 4750 2034 4750 
z
" transform="scale(0.015625)"/>
        <path id="DejaVuSans-31" d="M 794 531 
L 1825 531 
L 1825 4091 
L 703 3866 
L 703 4441 
L 1819 4666 
L 2450 4666 
L 2450 531 
L 3481 531 
L 3481 0 
L 794 0 
L 794 531 
z
" transform="scale(0.015625)"/>
        <path id="DejaVuSans-34" d="M 2419 4116 
L 825 1625 
L 2419 1625 
L 2419 4116 
z
M 2253 4666 
L 3047 4666 
L 3047 1625 
L 3713 1625 
L 3713 1100 
L 3047 1100 
L 3047 0 
L 2419 0 
L 2419 1100 
L 313 1100 
L 313 1709 
L 2253 4666 
z
" transform="scale(0.015625)"/>
       </defs>
       <use xlink:href="#DejaVuSans-32"/>
       <use xlink:href="#DejaVuSans-30" x="63.623047"/>
       <use xlink:href="#DejaVuSans-31" x="127.246094"/>
       <use xlink:href="#DejaVuSans-34" x="190.869141"/>
      </g>
     </g>
    </g>
    <g id="xtick_2">
     <g id="line2d_2">
      <g>
       <use xlink:href="#me2e082d596" x="319.366196" y="512.64" style="stroke: #000000; stroke-width: 0.8"/>
      </g>
     </g>
     <g id="text_2">
      <!-- 2016 -->
      <g transform="translate(306.641196 527.238438) scale(0.1 -0.1)">
       <defs>
        <path id="DejaVuSans-36" d="M 2113 2584 
Q 1688 2584 1439 2293 
Q 1191 2003 1191 1497 
Q 1191 994 1439 701 
Q 1688 409 2113 409 
Q 2538 409 2786 701 
Q 3034 994 3034 1497 
Q 3034 2003 2786 2293 
Q 2538 2584 2113 2584 
z
M 3366 4563 
L 3366 3988 
Q 3128 4100 2886 4159 
Q 2644 4219 2406 4219 
Q 1781 4219 1451 3797 
Q 1122 3375 1075 2522 
Q 1259 2794 1537 2939 
Q 1816 3084 2150 3084 
Q 2853 3084 3261 2657 
Q 3669 2231 3669 1497 
Q 3669 778 3244 343 
Q 2819 -91 2113 -91 
Q 1303 -91 875 529 
Q 447 1150 447 2328 
Q 447 3434 972 4092 
Q 1497 4750 2381 4750 
Q 2619 4750 2861 4703 
Q 3103 4656 3366 4563 
z
" transform="scale(0.015625)"/>
       </defs>
       <use xlink:href="#DejaVuSans-32"/>
       <use xlink:href="#DejaVuSans-30" x="63.623047"/>
       <use xlink:href="#DejaVuSans-31" x="127.246094"/>
       <use xlink:href="#DejaVuSans-36" x="190.869141"/>
      </g>
     </g>
    </g>
    <g id="xtick_3">
     <g id="line2d_3">
      <g>
       <use xlink:href="#me2e082d596" x="462.159501" y="512.64" style="stroke: #000000; stroke-width: 0.8"/>
      </g>
     </g>
     <g id="text_3">
      <!-- 2018 -->
      <g transform="translate(449.434501 527.238438) scale(0.1 -0.1)">
       <defs>
        <path id="DejaVuSans-38" d="M 2034 2216 
Q 1584 2216 1326 1975 
Q 1069 1734 1069 1313 
Q 1069 891 1326 650 
Q 1584 409 2034 409 
Q 2484 409 2743 651 
Q 3003 894 3003 1313 
Q 3003 1734 2745 1975 
Q 2488 2216 2034 2216 
z
M 1403 2484 
Q 997 2584 770 2862 
Q 544 3141 544 3541 
Q 544 4100 942 4425 
Q 1341 4750 2034 4750 
Q 2731 4750 3128 4425 
Q 3525 4100 3525 3541 
Q 3525 3141 3298 2862 
Q 3072 2584 2669 2484 
Q 3125 2378 3379 2068 
Q 3634 1759 3634 1313 
Q 3634 634 3220 271 
Q 2806 -91 2034 -91 
Q 1263 -91 848 271 
Q 434 634 434 1313 
Q 434 1759 690 2068 
Q 947 2378 1403 2484 
z
M 1172 3481 
Q 1172 3119 1398 2916 
Q 1625 2713 2034 2713 
Q 2441 2713 2670 2916 
Q 2900 3119 2900 3481 
Q 2900 3844 2670 4047 
Q 2441 4250 2034 4250 
Q 1625 4250 1398 4047 
Q 1172 3844 1172 3481 
z
" transform="scale(0.015625)"/>
       </defs>
       <use xlink:href="#DejaVuSans-32"/>
       <use xlink:href="#DejaVuSans-30" x="63.623047"/>
       <use xlink:href="#DejaVuSans-31" x="127.246094"/>
       <use xlink:href="#DejaVuSans-38" x="190.869141"/>
      </g>
     </g>
    </g>
    <g id="xtick_4">
     <g id="line2d_4">
      <g>
       <use xlink:href="#me2e082d596" x="604.757466" y="512.64" style="stroke: #000000; stroke-width: 0.8"/>
      </g>
     </g>
     <g id="text_4">
      <!-- 2020 -->
      <g transform="translate(592.032466 527.238438) scale(0.1 -0.1)">
       <use xlink:href="#DejaVuSans-32"/>
       <use xlink:href="#DejaVuSans-30" x="63.623047"/>
       <use xlink:href="#DejaVuSans-32" x="127.246094"/>
       <use xlink:href="#DejaVuSans-30" x="190.869141"/>
      </g>
     </g>
    </g>
    <g id="xtick_5">
     <g id="line2d_5">
      <g>
       <use xlink:href="#me2e082d596" x="747.550771" y="512.64" style="stroke: #000000; stroke-width: 0.8"/>
      </g>
     </g>
     <g id="text_5">
      <!-- 2022 -->
      <g transform="translate(734.825771 527.238438) scale(0.1 -0.1)">
       <use xlink:href="#DejaVuSans-32"/>
       <use xlink:href="#DejaVuSans-30" x="63.623047"/>
       <use xlink:href="#DejaVuSans-32" x="127.246094"/>
       <use xlink:href="#DejaVuSans-32" x="190.869141"/>
      </g>
     </g>
    </g>
    <g id="xtick_6">
     <g id="line2d_6">
      <g>
       <use xlink:href="#me2e082d596" x="890.148736" y="512.64" style="stroke: #000000; stroke-width: 0.8"/>
      </g>
     </g>
     <g id="text_6">
      <!-- 2024 -->
      <g transform="translate(877.423736 527.238438) scale(0.1 -0.1)">
       <use xlink:href="#DejaVuSans-32"/>
       <use xlink:href="#DejaVuSans-30" x="63.623047"/>
       <use xlink:href="#DejaVuSans-32" x="127.246094"/>
       <use xlink:href="#DejaVuSans-34" x="190.869141"/>
      </g>
     </g>
    </g>
    <g id="xtick_7">
     <g id="line2d_7">
      <g>
       <use xlink:href="#me2e082d596" x="1032.942041" y="512.64" style="stroke: #000000; stroke-width: 0.8"/>
      </g>
     </g>
     <g id="text_7">
      <!-- 2026 -->
      <g transform="translate(1020.217041 527.238438) scale(0.1 -0.1)">
       <use xlink:href="#DejaVuSans-32"/>
       <use xlink:href="#DejaVuSans-30" x="63.623047"/>
       <use xlink:href="#DejaVuSans-32" x="127.246094"/>
       <use xlink:href="#DejaVuSans-36" x="190.869141"/>
      </g>
     </g>
    </g>
   </g>
   <g id="matplotlib.axis_2">
    <g id="ytick_1">
     <g id="line2d_8">
      <defs>
       <path id="meee75e53da" d="M 0 0 
L -3.5 0 
" style="stroke: #000000; stroke-width: 0.8"/>
      </defs>
      <g>
       <use xlink:href="#meee75e53da" x="144" y="492.515606" style="stroke: #000000; stroke-width: 0.8"/>
      </g>
     </g>
     <g id="text_8">
      <!-- 0 -->
      <g transform="translate(130.6375 496.314825) scale(0.1 -0.1)">
       <use xlink:href="#DejaVuSans-30"/>
      </g>
     </g>
    </g>
    <g id="ytick_2">
     <g id="line2d_9">
      <g>
       <use xlink:href="#meee75e53da" x="144" y="421.30402" style="stroke: #000000; stroke-width: 0.8"/>
      </g>
     </g>
     <g id="text_9">
      <!-- 2000 -->
      <g transform="translate(111.55 425.103239) scale(0.1 -0.1)">
       <use xlink:href="#DejaVuSans-32"/>
       <use xlink:href="#DejaVuSans-30" x="63.623047"/>
       <use xlink:href="#DejaVuSans-30" x="127.246094"/>
       <use xlink:href="#DejaVuSans-30" x="190.869141"/>
      </g>
     </g>
    </g>
    <g id="ytick_3">
     <g id="line2d_10">
      <g>
       <use xlink:href="#meee75e53da" x="144" y="350.092434" style="stroke: #000000; stroke-width: 0.8"/>
      </g>
     </g>
     <g id="text_10">
      <!-- 4000 -->
      <g transform="translate(111.55 353.891653) scale(0.1 -0.1)">
       <use xlink:href="#DejaVuSans-34"/>
       <use xlink:href="#DejaVuSans-30" x="63.623047"/>
       <use xlink:href="#DejaVuSans-30" x="127.246094"/>
       <use xlink:href="#DejaVuSans-30" x="190.869141"/>
      </g>
     </g>
    </g>
    <g id="ytick_4">
     <g id="line2d_11">
      <g>
       <use xlink:href="#meee75e53da" x="144" y="278.880848" style="stroke: #000000; stroke-width: 0.8"/>
      </g>
     </g>
     <g id="text_11">
      <!-- 6000 -->
      <g transform="translate(111.55 282.680067) scale(0.1 -0.1)">
       <use xlink:href="#DejaVuSans-36"/>
       <use xlink:href="#DejaVuSans-30" x="63.623047"/>
       <use xlink:href="#DejaVuSans-30" x="127.246094"/>
       <use xlink:href="#DejaVuSans-30" x="190.869141"/>
      </g>
     </g>
    </g>
    <g id="ytick_5">
     <g id="line2d_12">
      <g>
       <use xlink:href="#meee75e53da" x="144" y="207.669262" style="stroke: #000000; stroke-width: 0.8"/>
      </g>
     </g>
     <g id="text_12">
      <!-- 8000 -->
      <g transform="translate(111.55 211.46848) scale(0.1 -0.1)">
       <use xlink:href="#DejaVuSans-38"/>
       <use xlink:href="#DejaVuSans-30" x="63.623047"/>
       <use xlink:href="#DejaVuSans-30" x="127.246094"/>
       <use xlink:href="#DejaVuSans-30" x="190.869141"/>
      </g>
     </g>
    </g>
    <g id="ytick_6">
     <g id="line2d_13">
      <g>
       <use xlink:href="#meee75e53da" x="144" y="136.457676" style="stroke: #000000; stroke-width: 0.8"/>
      </g>
     </g>
     <g id="text_13">
      <!-- 10000 -->
      <g transform="translate(105.1875 140.256894) scale(0.1 -0.1)">
       <use xlink:href="#DejaVuSans-31"/>
       <use xlink:href="#DejaVuSans-30" x="63.623047"/>
       <use xlink:href="#DejaVuSans-30" x="127.246094"/>
       <use xlink:href="#DejaVuSans-30" x="190.869141"/>
       <use xlink:href="#DejaVuSans-30" x="254.492188"/>
      </g>
     </g>
    </g>
   </g>
   <g id="line2d_14">
    <path d="M 184.581818 492.48 
L 186.339875 492.408788 
L 308.427174 492.195154 
L 451.415819 492.017125 
L 504.548211 491.80349 
L 518.417329 491.696673 
L 551.625074 491.518644 
L 553.187791 491.447432 
L 562.173416 491.340615 
L 604.952806 491.12698 
L 611.203676 491.055768 
L 611.594355 490.770922 
L 615.696488 490.592893 
L 650.076272 490.45047 
L 653.983065 490.343652 
L 668.047522 490.201229 
L 677.814506 490.130018 
L 691.683623 489.916383 
L 695.395077 489.77396 
L 704.966721 489.560325 
L 707.701477 489.382296 
L 709.459534 489.275479 
L 710.826912 489.09745 
L 718.249819 488.883815 
L 718.445159 488.848209 
L 722.547292 488.705786 
L 728.993502 488.242911 
L 739.151165 487.99367 
L 743.839317 486.533833 
L 744.034657 486.391409 
L 745.792714 486.21338 
L 746.574073 485.643688 
L 746.769413 484.753543 
L 747.160092 484.539908 
L 747.355432 484.504302 
L 747.550771 483.293705 
L 748.722809 482.795224 
L 749.113489 482.189926 
L 749.504168 481.940685 
L 749.699508 481.370993 
L 749.894847 479.911155 
L 750.090187 479.555097 
L 750.285527 478.807375 
L 750.480866 477.596779 
L 750.871546 474.641498 
L 751.262225 473.680141 
L 751.457565 468.908965 
L 751.652904 466.986252 
L 751.848244 466.238531 
L 752.043584 462.749163 
L 752.629603 458.761314 
L 752.824943 458.654497 
L 753.215622 456.624966 
L 753.410962 455.948456 
L 753.606301 450.750011 
L 753.801641 450.287135 
L 754.19232 448.578057 
L 754.38766 448.47124 
L 754.583 447.581095 
L 754.778339 443.842487 
L 754.973679 442.916736 
L 755.169019 442.845525 
L 755.364358 440.068273 
L 755.559698 439.49858 
L 755.950377 439.320551 
L 756.731736 436.614511 
L 757.122415 435.902395 
L 757.513095 433.801653 
L 757.708435 432.98272 
L 757.903774 428.959265 
L 758.489793 424.544147 
L 759.075812 424.330512 
L 759.466492 424.081272 
L 760.24785 422.585828 
L 760.63853 422.443405 
L 761.029209 419.381307 
L 761.224549 419.345701 
L 761.615228 418.811614 
L 761.810568 417.280565 
L 762.005907 416.853296 
L 762.201247 416.710872 
L 762.591926 415.71391 
L 763.177946 415.46467 
L 763.373285 415.215429 
L 763.959304 412.972264 
L 764.154644 412.829841 
L 764.545323 412.260148 
L 765.326682 411.868485 
L 765.522022 410.408647 
L 765.717361 410.30183 
L 765.912701 410.016983 
L 766.108041 407.16852 
L 766.49872 407.061703 
L 766.889399 406.313981 
L 767.084739 405.601865 
L 767.670758 405.459442 
L 768.256777 404.355662 
L 768.452117 404.320057 
L 768.842796 403.714758 
L 769.233476 403.572335 
L 769.428815 400.296602 
L 770.600853 400.011756 
L 770.991533 399.726909 
L 771.772891 399.620092 
L 771.968231 399.406457 
L 774.312307 398.694341 
L 775.093666 398.124649 
L 776.070364 397.982225 
L 776.461044 397.697379 
L 776.851723 397.554956 
L 778.80512 397.020869 
L 779.586479 393.994377 
L 780.563177 393.851953 
L 780.758517 393.780742 
L 782.321234 393.602713 
L 782.907253 393.389078 
L 783.102593 392.78378 
L 784.079291 392.712568 
L 784.66531 392.392116 
L 786.618707 391.466365 
L 786.814047 391.217125 
L 787.595405 390.932278 
L 788.572104 390.789855 
L 788.767443 390.540615 
L 789.158123 390.505009 
L 789.353462 389.89971 
L 789.548802 389.828499 
L 789.744142 389.009566 
L 792.088218 388.475479 
L 792.674237 388.333055 
L 792.869577 387.87018 
L 794.236954 387.514122 
L 794.822973 387.300487 
L 795.604332 387.122458 
L 796.385691 386.908824 
L 797.362389 386.695189 
L 797.948408 386.51716 
L 799.315786 385.698227 
L 799.511126 384.986111 
L 800.487824 384.167178 
L 800.683164 383.81112 
L 801.659862 382.956581 
L 802.050542 382.208859 
L 802.245881 382.173253 
L 802.441221 381.461137 
L 803.22258 380.392964 
L 803.613259 380.214935 
L 804.003938 380.143723 
L 804.199278 379.823271 
L 804.589957 379.645242 
L 804.785297 379.289184 
L 805.761995 379.004338 
L 805.957335 378.683886 
L 807.324713 378.363433 
L 807.715392 378.185404 
L 807.910732 378.149799 
L 808.106072 377.97177 
L 809.08277 377.829347 
L 810.450148 377.188442 
L 811.036167 377.046019 
L 811.426846 376.227086 
L 811.817525 375.977845 
L 812.794224 375.158912 
L 812.989564 374.339979 
L 813.770922 374.090738 
L 814.94296 373.699075 
L 815.33364 373.093776 
L 815.919659 372.737718 
L 816.114998 372.702112 
L 816.505678 372.13242 
L 817.091697 371.918785 
L 817.482376 371.598333 
L 818.068395 371.313486 
L 818.459074 367.325638 
L 818.654414 366.008223 
L 818.849754 363.765058 
L 819.045094 363.480212 
L 819.826452 360.738566 
L 820.217132 360.02645 
L 820.412471 359.919633 
L 820.607811 359.670392 
L 820.803151 359.171911 
L 820.99849 357.56965 
L 821.19383 357.177987 
L 821.584509 357.035563 
L 822.756547 354.614369 
L 822.951887 354.436341 
L 823.147227 353.474984 
L 823.342566 353.118926 
L 823.733246 352.193176 
L 824.123925 351.623483 
L 824.905284 351.160608 
L 825.100624 350.946973 
L 825.295963 349.771982 
L 825.686643 349.593953 
L 826.077322 349.202289 
L 826.663341 348.383356 
L 826.858681 347.635634 
L 827.05402 347.600028 
L 827.640039 346.887912 
L 828.030719 346.816701 
L 828.226058 346.460643 
L 828.616738 346.211402 
L 828.812077 345.926556 
L 829.593436 343.113698 
L 829.788776 341.653861 
L 830.179455 340.906139 
L 830.374795 340.763716 
L 830.570135 340.443264 
L 831.156154 340.087206 
L 831.351493 339.731148 
L 831.742173 338.306916 
L 832.914211 337.666012 
L 833.30489 336.811473 
L 833.50023 336.66905 
L 834.476928 335.066789 
L 834.867607 334.853154 
L 835.648966 334.603914 
L 836.234985 333.464528 
L 837.016344 333.215288 
L 837.797703 332.289537 
L 838.188382 332.218326 
L 838.579061 331.791056 
L 839.16508 331.541816 
L 839.55576 331.470604 
L 839.751099 331.256969 
L 839.946439 330.580459 
L 840.727798 330.331219 
L 840.923138 329.975161 
L 841.118477 329.939555 
L 841.313817 329.263045 
L 841.899836 329.013804 
L 842.485855 328.871381 
L 842.876534 328.479717 
L 843.853233 327.981236 
L 844.243912 327.625178 
L 844.634591 327.375938 
L 845.025271 327.340332 
L 845.22061 326.378976 
L 845.61129 326.058523 
L 846.197309 325.773677 
L 846.783328 325.417619 
L 847.564687 325.275196 
L 847.760026 324.278234 
L 848.346045 323.957782 
L 848.541385 323.708541 
L 848.932064 323.672935 
L 849.518083 323.281272 
L 849.908763 323.21006 
L 850.104102 322.889608 
L 850.885461 322.569156 
L 851.080801 322.177492 
L 851.47148 322.141886 
L 851.86216 321.892646 
L 852.448179 321.572194 
L 852.643518 321.073712 
L 853.424877 320.682049 
L 853.620217 320.397202 
L 854.010896 320.290385 
L 854.206236 320.041144 
L 854.792255 319.720692 
L 854.987594 319.40024 
L 855.182934 319.329029 
L 855.573613 319.044182 
L 855.964293 318.866153 
L 856.159632 318.652519 
L 857.33167 318.260855 
L 857.52701 317.833585 
L 857.72235 317.726768 
L 858.699048 317.477527 
L 859.089728 317.157075 
L 859.480407 317.014652 
L 860.066426 316.836623 
L 860.261766 316.516171 
L 860.652445 316.444959 
L 860.847785 315.804055 
L 861.043124 315.661632 
L 861.433804 315.198757 
L 861.629143 314.130583 
L 862.019823 313.881342 
L 862.215162 313.738919 
L 862.410502 313.418467 
L 862.801181 313.169226 
L 863.58254 312.457111 
L 863.97322 312.279082 
L 864.168559 311.851812 
L 864.363899 311.7806 
L 864.754578 311.353331 
L 865.145258 311.10409 
L 865.731277 310.890456 
L 866.317296 310.213946 
L 866.707975 309.893493 
L 867.098654 309.466224 
L 868.270692 308.504868 
L 869.247391 308.255627 
L 869.83341 307.507905 
L 870.224089 307.080636 
L 870.810108 306.688972 
L 871.591467 306.36852 
L 871.786807 306.190491 
L 872.568165 305.870039 
L 872.958845 305.513981 
L 873.544864 305.300346 
L 874.130883 304.944288 
L 874.716902 304.695048 
L 874.912242 304.517019 
L 877.060978 303.626874 
L 877.256318 303.270816 
L 878.623695 302.701123 
L 879.209714 302.30946 
L 879.405054 302.273854 
L 879.991073 301.775373 
L 880.772432 301.561738 
L 880.967772 301.063257 
L 881.163111 299.460996 
L 881.553791 299.033727 
L 881.74913 298.998121 
L 882.921168 297.431466 
L 883.311848 296.363292 
L 883.702527 296.007234 
L 884.093206 295.757994 
L 884.483886 295.651176 
L 884.679225 295.36633 
L 885.069905 295.152695 
L 885.460584 294.796637 
L 885.851264 294.618608 
L 886.046603 294.547397 
L 886.241943 294.191339 
L 886.632622 294.048916 
L 886.827962 293.621646 
L 887.413981 293.408011 
L 887.80466 292.838319 
L 888.390679 292.375443 
L 888.781359 291.98378 
L 889.367378 291.876962 
L 889.562717 291.55651 
L 890.148736 291.342875 
L 890.539416 289.77622 
L 890.930095 289.420162 
L 892.102133 288.779258 
L 892.297473 288.209566 
L 892.688152 287.995931 
L 892.883492 287.49745 
L 893.078832 287.390632 
L 893.274171 287.07018 
L 894.446209 286.322458 
L 895.618247 285.539131 
L 896.008927 285.325496 
L 896.399606 284.435351 
L 896.594946 284.328534 
L 896.985625 284.257323 
L 897.180965 283.865659 
L 897.571644 283.68763 
L 897.962324 283.473995 
L 898.157663 282.833091 
L 898.939022 282.370215 
L 899.134362 281.729311 
L 899.91572 281.052801 
L 900.11106 281.017195 
L 900.3064 280.625532 
L 901.087758 280.091445 
L 901.283098 279.735387 
L 901.673777 279.592964 
L 901.869117 278.916454 
L 902.259797 278.809636 
L 902.455136 278.489184 
L 902.650476 278.417972 
L 902.845816 277.670251 
L 903.236495 277.563433 
L 903.627174 277.314193 
L 904.017854 276.7445 
L 904.213193 276.602077 
L 904.994552 275.39148 
L 905.189892 275.320268 
L 905.580571 274.892999 
L 906.36193 274.323306 
L 906.947949 274.03846 
L 908.706006 272.186959 
L 909.096685 272.044535 
L 909.487365 271.617266 
L 909.878044 271.474843 
L 910.073384 270.620304 
L 910.659403 270.015005 
L 910.854742 269.302889 
L 911.245422 268.911226 
L 911.440761 268.519562 
L 911.636101 268.483956 
L 912.612799 267.5226 
L 913.198819 267.166542 
L 913.394158 266.84609 
L 914.566196 266.454426 
L 915.152215 265.706704 
L 915.542895 265.030194 
L 915.933574 264.887771 
L 916.128914 264.567319 
L 916.324253 264.460502 
L 916.519593 264.211261 
L 916.714933 264.175655 
L 916.910272 263.748386 
L 917.691631 263.214299 
L 918.47299 262.644606 
L 918.66833 262.609 
L 919.840368 261.68325 
L 920.231047 261.505221 
L 920.426387 261.149163 
L 920.817066 261.077951 
L 921.403085 260.472653 
L 921.598425 260.152201 
L 922.184444 259.867354 
L 922.770463 259.475691 
L 923.161142 259.333267 
L 923.551821 258.905998 
L 924.52852 258.336305 
L 924.72386 258.087065 
L 925.505218 257.731007 
L 925.700558 256.09314 
L 926.677256 255.381024 
L 927.458615 253.956793 
L 927.653955 253.814369 
L 927.849294 253.351494 
L 928.239974 253.173465 
L 929.021332 251.927262 
L 929.412012 250.25379 
L 929.607351 249.684097 
L 929.998031 246.978057 
L 930.193371 245.909883 
L 931.170069 244.628075 
L 931.951428 241.423554 
L 932.146767 241.245525 
L 932.342107 240.747043 
L 932.537447 239.00236 
L 932.732786 238.361455 
L 932.928126 238.290244 
L 933.123466 237.506916 
L 933.709485 237.008435 
L 934.100164 235.655415 
L 935.076862 235.121328 
L 935.272202 234.76527 
L 936.248901 234.231183 
L 936.63958 233.803914 
L 936.83492 233.41225 
L 937.030259 232.415288 
L 937.225599 232.023624 
L 937.616278 231.881201 
L 938.006958 231.703172 
L 938.397637 231.418326 
L 938.788316 231.133479 
L 939.178996 231.062268 
L 939.569675 230.848633 
L 939.960354 230.599392 
L 940.155694 230.456969 
L 940.546373 230.421363 
L 943.867148 227.537294 
L 944.062488 227.430477 
L 944.257827 226.575938 
L 944.843846 225.970639 
L 945.234526 225.863822 
L 946.406564 224.831254 
L 946.797243 224.653225 
L 946.992583 224.582013 
L 947.187923 224.261561 
L 947.773942 224.047927 
L 947.969281 223.549445 
L 948.164621 223.371416 
L 948.359961 222.801724 
L 948.75064 222.552483 
L 949.336659 221.092646 
L 949.531999 220.38053 
L 950.118018 219.95326 
L 950.704037 219.134327 
L 951.094716 217.745701 
L 951.290056 217.318432 
L 951.485395 216.57071 
L 951.680735 216.499498 
L 951.876075 215.8942 
L 952.266754 215.644959 
L 953.438792 214.398757 
L 953.634132 213.900276 
L 954.024811 213.757852 
L 954.220151 213.544218 
L 954.415491 213.045736 
L 955.196849 212.725284 
L 955.392189 212.476044 
L 955.587529 212.440438 
L 955.782868 211.692716 
L 956.173548 211.443476 
L 956.368887 210.944995 
L 956.564227 210.802572 
L 956.954906 210.766966 
L 958.126945 209.841215 
L 958.712964 209.37834 
L 959.103643 208.915465 
L 959.494322 208.523801 
L 959.689662 208.132137 
L 959.885002 207.34881 
L 961.05704 206.6723 
L 961.447719 205.746549 
L 961.838398 205.56852 
L 962.033738 205.034433 
L 962.229078 204.927616 
L 963.010436 203.930653 
L 963.987135 203.289749 
L 965.159173 202.079152 
L 965.745192 201.295825 
L 966.72189 198.732208 
L 967.698589 193.498156 
L 967.893928 193.21331 
L 968.089268 192.679223 
L 968.284608 190.720904 
L 968.479947 186.982296 
L 968.675287 185.522458 
L 968.870627 183.172476 
L 969.065967 182.531572 
L 969.456646 179.861137 
L 969.847325 176.229347 
L 970.238005 171.280141 
L 970.628684 170.53242 
L 971.019363 164.158983 
L 971.214703 162.48551 
L 971.605382 155.221929 
L 971.996062 153.833303 
L 972.191401 150.201512 
L 972.386741 149.346973 
L 972.77742 145.323518 
L 973.1681 134.428146 
L 973.558779 132.754673 
L 973.754119 129.407729 
L 973.949458 129.051671 
L 974.340138 123.603984 
L 974.535478 123.497167 
L 974.730817 123.141109 
L 975.121497 121.859301 
L 975.316836 121.538848 
L 975.512176 120.93355 
L 975.707516 119.794165 
L 976.098195 119.58053 
L 976.293535 119.010837 
L 976.684214 117.194942 
L 977.074893 113.634362 
L 977.270233 112.851035 
L 977.465573 112.779823 
L 977.660912 112.459371 
L 978.637611 109.397273 
L 978.83295 109.25485 
L 979.02829 108.507128 
L 979.418969 108.15107 
L 979.614309 108.008647 
L 979.809649 107.47456 
L 980.004989 107.296531 
L 980.786347 106.085934 
L 981.372366 105.44503 
L 981.567706 105.373818 
L 982.544404 103.949587 
L 982.935084 103.771558 
L 983.521103 103.66474 
L 983.911782 103.095048 
L 984.302461 102.98823 
L 984.88848 102.240509 
L 985.669839 101.777633 
L 986.451198 100.780671 
L 986.646538 100.246584 
L 987.427896 99.997344 
L 987.818576 99.60568 
L 988.209255 98.893564 
L 988.599934 98.573112 
L 988.795274 98.323871 
L 988.990614 97.291303 
L 989.381293 96.614793 
L 989.967312 96.365553 
L 990.357991 96.045101 
L 990.748671 95.617831 
L 991.13935 95.261773 
L 991.725369 94.656475 
L 991.920709 94.478446 
L 992.116049 93.623907 
L 992.702068 93.196637 
L 993.678766 91.950434 
L 993.874106 91.879223 
L 994.850804 90.953472 
L 995.046144 90.917866 
L 995.436823 90.561809 
L 996.022842 90.276962 
L 996.218182 89.28 
L 996.218182 89.28 
" clip-path="url(#pea1acb6001)" style="fill: none; stroke: #1f77b4; stroke-width: 1.5; stroke-linecap: square"/>
   </g>
   <g id="patch_3">
    <path d="M 144 512.64 
L 144 69.12 
" style="fill: none; stroke: #000000; stroke-width: 0.8; stroke-linejoin: miter; stroke-linecap: square"/>
   </g>
   <g id="patch_4">
    <path d="M 1036.8 512.64 
L 1036.8 69.12 
" style="fill: none; stroke: #000000; stroke-width: 0.8; stroke-linejoin: miter; stroke-linecap: square"/>
   </g>
   <g id="patch_5">
    <path d="M 144 512.64 
L 1036.8 512.64 
" style="fill: none; stroke: #000000; stroke-width: 0.8; stroke-linejoin: miter; stroke-linecap: square"/>
   </g>
   <g id="patch_6">
    <path d="M 144 69.12 
L 1036.8 69.12 
" style="fill: none; stroke: #000000; stroke-width: 0.8; stroke-linejoin: miter; stroke-linecap: square"/>
   </g>
   <g id="text_14">
    <!-- Number of AEDs in the OpenStreetMap database in Poland from first edition, day by day. As at: 2025-06-27 -->
    <g transform="translate(144 63.12) scale(0.14 -0.14)">
     <defs>
      <path id="DejaVuSans-4e" d="M 628 4666 
L 1478 4666 
L 3547 763 
L 3547 4666 
L 4159 4666 
L 4159 0 
L 3309 0 
L 1241 3903 
L 1241 0 
L 628 0 
L 628 4666 
z
" transform="scale(0.015625)"/>
      <path id="DejaVuSans-75" d="M 544 1381 
L 544 3500 
L 1119 3500 
L 1119 1403 
Q 1119 906 1312 657 
Q 1506 409 1894 409 
Q 2359 409 2629 706 
Q 2900 1003 2900 1516 
L 2900 3500 
L 3475 3500 
L 3475 0 
L 2900 0 
L 2900 538 
Q 2691 219 2414 64 
Q 2138 -91 1772 -91 
Q 1169 -91 856 284 
Q 544 659 544 1381 
z
M 1991 3584 
L 1991 3584 
z
" transform="scale(0.015625)"/>
      <path id="DejaVuSans-6d" d="M 3328 2828 
Q 3544 3216 3844 3400 
Q 4144 3584 4550 3584 
Q 5097 3584 5394 3201 
Q 5691 2819 5691 2113 
L 5691 0 
L 5113 0 
L 5113 2094 
Q 5113 2597 4934 2840 
Q 4756 3084 4391 3084 
Q 3944 3084 3684 2787 
Q 3425 2491 3425 1978 
L 3425 0 
L 2847 0 
L 2847 2094 
Q 2847 2600 2669 2842 
Q 2491 3084 2119 3084 
Q 1678 3084 1418 2786 
Q 1159 2488 1159 1978 
L 1159 0 
L 581 0 
L 581 3500 
L 1159 3500 
L 1159 2956 
Q 1356 3278 1631 3431 
Q 1906 3584 2284 3584 
Q 2666 3584 2933 3390 
Q 3200 3197 3328 2828 
z
" transform="scale(0.015625)"/>
      <path id="DejaVuSans-62" d="M 3116 1747 
Q 3116 2381 2855 2742 
Q 2594 3103 2138 3103 
Q 1681 3103 1420 2742 
Q 1159 2381 1159 1747 
Q 1159 1113 1420 752 
Q 1681 391 2138 391 
Q 2594 391 2855 752 
Q 3116 1113 3116 1747 
z
M 1159 2969 
Q 1341 3281 1617 3432 
Q 1894 3584 2278 3584 
Q 2916 3584 3314 3078 
Q 3713 2572 3713 1747 
Q 3713 922 3314 415 
Q 2916 -91 2278 -91 
Q 1894 -91 1617 61 
Q 1341 213 1159 525 
L 1159 0 
L 581 0 
L 581 4863 
L 1159 4863 
L 1159 2969 
z
" transform="scale(0.015625)"/>
      <path id="DejaVuSans-65" d="M 3597 1894 
L 3597 1613 
L 953 1613 
Q 991 1019 1311 708 
Q 1631 397 2203 397 
Q 2534 397 2845 478 
Q 3156 559 3463 722 
L 3463 178 
Q 3153 47 2828 -22 
Q 2503 -91 2169 -91 
Q 1331 -91 842 396 
Q 353 884 353 1716 
Q 353 2575 817 3079 
Q 1281 3584 2069 3584 
Q 2775 3584 3186 3129 
Q 3597 2675 3597 1894 
z
M 3022 2063 
Q 3016 2534 2758 2815 
Q 2500 3097 2075 3097 
Q 1594 3097 1305 2825 
Q 1016 2553 972 2059 
L 3022 2063 
z
" transform="scale(0.015625)"/>
      <path id="DejaVuSans-72" d="M 2631 2963 
Q 2534 3019 2420 3045 
Q 2306 3072 2169 3072 
Q 1681 3072 1420 2755 
Q 1159 2438 1159 1844 
L 1159 0 
L 581 0 
L 581 3500 
L 1159 3500 
L 1159 2956 
Q 1341 3275 1631 3429 
Q 1922 3584 2338 3584 
Q 2397 3584 2469 3576 
Q 2541 3569 2628 3553 
L 2631 2963 
z
" transform="scale(0.015625)"/>
      <path id="DejaVuSans-20" transform="scale(0.015625)"/>
      <path id="DejaVuSans-6f" d="M 1959 3097 
Q 1497 3097 1228 2736 
Q 959 2375 959 1747 
Q 959 1119 1226 758 
Q 1494 397 1959 397 
Q 2419 397 2687 759 
Q 2956 1122 2956 1747 
Q 2956 2369 2687 2733 
Q 2419 3097 1959 3097 
z
M 1959 3584 
Q 2709 3584 3137 3096 
Q 3566 2609 3566 1747 
Q 3566 888 3137 398 
Q 2709 -91 1959 -91 
Q 1206 -91 779 398 
Q 353 888 353 1747 
Q 353 2609 779 3096 
Q 1206 3584 1959 3584 
z
" transform="scale(0.015625)"/>
      <path id="DejaVuSans-66" d="M 2375 4863 
L 2375 4384 
L 1825 4384 
Q 1516 4384 1395 4259 
Q 1275 4134 1275 3809 
L 1275 3500 
L 2222 3500 
L 2222 3053 
L 1275 3053 
L 1275 0 
L 697 0 
L 697 3053 
L 147 3053 
L 147 3500 
L 697 3500 
L 697 3744 
Q 697 4328 969 4595 
Q 1241 4863 1831 4863 
L 2375 4863 
z
" transform="scale(0.015625)"/>
      <path id="DejaVuSans-41" d="M 2188 4044 
L 1331 1722 
L 3047 1722 
L 2188 4044 
z
M 1831 4666 
L 2547 4666 
L 4325 0 
L 3669 0 
L 3244 1197 
L 1141 1197 
L 716 0 
L 50 0 
L 1831 4666 
z
" transform="scale(0.015625)"/>
      <path id="DejaVuSans-45" d="M 628 4666 
L 3578 4666 
L 3578 4134 
L 1259 4134 
L 1259 2753 
L 3481 2753 
L 3481 2222 
L 1259 2222 
L 1259 531 
L 3634 531 
L 3634 0 
L 628 0 
L 628 4666 
z
" transform="scale(0.015625)"/>
      <path id="DejaVuSans-44" d="M 1259 4147 
L 1259 519 
L 2022 519 
Q 2988 519 3436 956 
Q 3884 1394 3884 2338 
Q 3884 3275 3436 3711 
Q 2988 4147 2022 4147 
L 1259 4147 
z
M 628 4666 
L 1925 4666 
Q 3281 4666 3915 4102 
Q 4550 3538 4550 2338 
Q 4550 1131 3912 565 
Q 3275 0 1925 0 
L 628 0 
L 628 4666 
z
" transform="scale(0.015625)"/>
      <path id="DejaVuSans-73" d="M 2834 3397 
L 2834 2853 
Q 2591 2978 2328 3040 
Q 2066 3103 1784 3103 
Q 1356 3103 1142 2972 
Q 928 2841 928 2578 
Q 928 2378 1081 2264 
Q 1234 2150 1697 2047 
L 1894 2003 
Q 2506 1872 2764 1633 
Q 3022 1394 3022 966 
Q 3022 478 2636 193 
Q 2250 -91 1575 -91 
Q 1294 -91 989 -36 
Q 684 19 347 128 
L 347 722 
Q 666 556 975 473 
Q 1284 391 1588 391 
Q 1994 391 2212 530 
Q 2431 669 2431 922 
Q 2431 1156 2273 1281 
Q 2116 1406 1581 1522 
L 1381 1569 
Q 847 1681 609 1914 
Q 372 2147 372 2553 
Q 372 3047 722 3315 
Q 1072 3584 1716 3584 
Q 2034 3584 2315 3537 
Q 2597 3491 2834 3397 
z
" transform="scale(0.015625)"/>
      <path id="DejaVuSans-69" d="M 603 3500 
L 1178 3500 
L 1178 0 
L 603 0 
L 603 3500 
z
M 603 4863 
L 1178 4863 
L 1178 4134 
L 603 4134 
L 603 4863 
z
" transform="scale(0.015625)"/>
      <path id="DejaVuSans-6e" d="M 3513 2113 
L 3513 0 
L 2938 0 
L 2938 2094 
Q 2938 2591 2744 2837 
Q 2550 3084 2163 3084 
Q 1697 3084 1428 2787 
Q 1159 2491 1159 1978 
L 1159 0 
L 581 0 
L 581 3500 
L 1159 3500 
L 1159 2956 
Q 1366 3272 1645 3428 
Q 1925 3584 2291 3584 
Q 2894 3584 3203 3211 
Q 3513 2838 3513 2113 
z
" transform="scale(0.015625)"/>
      <path id="DejaVuSans-74" d="M 1172 4494 
L 1172 3500 
L 2356 3500 
L 2356 3053 
L 1172 3053 
L 1172 1153 
Q 1172 725 1289 603 
Q 1406 481 1766 481 
L 2356 481 
L 2356 0 
L 1766 0 
Q 1100 0 847 248 
Q 594 497 594 1153 
L 594 3053 
L 172 3053 
L 172 3500 
L 594 3500 
L 594 4494 
L 1172 4494 
z
" transform="scale(0.015625)"/>
      <path id="DejaVuSans-68" d="M 3513 2113 
L 3513 0 
L 2938 0 
L 2938 2094 
Q 2938 2591 2744 2837 
Q 2550 3084 2163 3084 
Q 1697 3084 1428 2787 
Q 1159 2491 1159 1978 
L 1159 0 
L 581 0 
L 581 4863 
L 1159 4863 
L 1159 2956 
Q 1366 3272 1645 3428 
Q 1925 3584 2291 3584 
Q 2894 3584 3203 3211 
Q 3513 2838 3513 2113 
z
" transform="scale(0.015625)"/>
      <path id="DejaVuSans-4f" d="M 2522 4238 
Q 1834 4238 1429 3725 
Q 1025 3213 1025 2328 
Q 1025 1447 1429 934 
Q 1834 422 2522 422 
Q 3209 422 3611 934 
Q 4013 1447 4013 2328 
Q 4013 3213 3611 3725 
Q 3209 4238 2522 4238 
z
M 2522 4750 
Q 3503 4750 4090 4092 
Q 4678 3434 4678 2328 
Q 4678 1225 4090 567 
Q 3503 -91 2522 -91 
Q 1538 -91 948 565 
Q 359 1222 359 2328 
Q 359 3434 948 4092 
Q 1538 4750 2522 4750 
z
" transform="scale(0.015625)"/>
      <path id="DejaVuSans-70" d="M 1159 525 
L 1159 -1331 
L 581 -1331 
L 581 3500 
L 1159 3500 
L 1159 2969 
Q 1341 3281 1617 3432 
Q 1894 3584 2278 3584 
Q 2916 3584 3314 3078 
Q 3713 2572 3713 1747 
Q 3713 922 3314 415 
Q 2916 -91 2278 -91 
Q 1894 -91 1617 61 
Q 1341 213 1159 525 
z
M 3116 1747 
Q 3116 2381 2855 2742 
Q 2594 3103 2138 3103 
Q 1681 3103 1420 2742 
Q 1159 2381 1159 1747 
Q 1159 1113 1420 752 
Q 1681 391 2138 391 
Q 2594 391 2855 752 
Q 3116 1113 3116 1747 
z
" transform="scale(0.015625)"/>
      <path id="DejaVuSans-53" d="M 3425 4513 
L 3425 3897 
Q 3066 4069 2747 4153 
Q 2428 4238 2131 4238 
Q 1616 4238 1336 4038 
Q 1056 3838 1056 3469 
Q 1056 3159 1242 3001 
Q 1428 2844 1947 2747 
L 2328 2669 
Q 3034 2534 3370 2195 
Q 3706 1856 3706 1288 
Q 3706 609 3251 259 
Q 2797 -91 1919 -91 
Q 1588 -91 1214 -16 
Q 841 59 441 206 
L 441 856 
Q 825 641 1194 531 
Q 1563 422 1919 422 
Q 2459 422 2753 634 
Q 3047 847 3047 1241 
Q 3047 1584 2836 1778 
Q 2625 1972 2144 2069 
L 1759 2144 
Q 1053 2284 737 2584 
Q 422 2884 422 3419 
Q 422 4038 858 4394 
Q 1294 4750 2059 4750 
Q 2388 4750 2728 4690 
Q 3069 4631 3425 4513 
z
" transform="scale(0.015625)"/>
      <path id="DejaVuSans-4d" d="M 628 4666 
L 1569 4666 
L 2759 1491 
L 3956 4666 
L 4897 4666 
L 4897 0 
L 4281 0 
L 4281 4097 
L 3078 897 
L 2444 897 
L 1241 4097 
L 1241 0 
L 628 0 
L 628 4666 
z
" transform="scale(0.015625)"/>
      <path id="DejaVuSans-61" d="M 2194 1759 
Q 1497 1759 1228 1600 
Q 959 1441 959 1056 
Q 959 750 1161 570 
Q 1363 391 1709 391 
Q 2188 391 2477 730 
Q 2766 1069 2766 1631 
L 2766 1759 
L 2194 1759 
z
M 3341 1997 
L 3341 0 
L 2766 0 
L 2766 531 
Q 2569 213 2275 61 
Q 1981 -91 1556 -91 
Q 1019 -91 701 211 
Q 384 513 384 1019 
Q 384 1609 779 1909 
Q 1175 2209 1959 2209 
L 2766 2209 
L 2766 2266 
Q 2766 2663 2505 2880 
Q 2244 3097 1772 3097 
Q 1472 3097 1187 3025 
Q 903 2953 641 2809 
L 641 3341 
Q 956 3463 1253 3523 
Q 1550 3584 1831 3584 
Q 2591 3584 2966 3190 
Q 3341 2797 3341 1997 
z
" transform="scale(0.015625)"/>
      <path id="DejaVuSans-64" d="M 2906 2969 
L 2906 4863 
L 3481 4863 
L 3481 0 
L 2906 0 
L 2906 525 
Q 2725 213 2448 61 
Q 2172 -91 1784 -91 
Q 1150 -91 751 415 
Q 353 922 353 1747 
Q 353 2572 751 3078 
Q 1150 3584 1784 3584 
Q 2172 3584 2448 3432 
Q 2725 3281 2906 2969 
z
M 947 1747 
Q 947 1113 1208 752 
Q 1469 391 1925 391 
Q 2381 391 2643 752 
Q 2906 1113 2906 1747 
Q 2906 2381 2643 2742 
Q 2381 3103 1925 3103 
Q 1469 3103 1208 2742 
Q 947 2381 947 1747 
z
" transform="scale(0.015625)"/>
      <path id="DejaVuSans-50" d="M 1259 4147 
L 1259 2394 
L 2053 2394 
Q 2494 2394 2734 2622 
Q 2975 2850 2975 3272 
Q 2975 3691 2734 3919 
Q 2494 4147 2053 4147 
L 1259 4147 
z
M 628 4666 
L 2053 4666 
Q 2838 4666 3239 4311 
Q 3641 3956 3641 3272 
Q 3641 2581 3239 2228 
Q 2838 1875 2053 1875 
L 1259 1875 
L 1259 0 
L 628 0 
L 628 4666 
z
" transform="scale(0.015625)"/>
      <path id="DejaVuSans-6c" d="M 603 4863 
L 1178 4863 
L 1178 0 
L 603 0 
L 603 4863 
z
" transform="scale(0.015625)"/>
      <path id="DejaVuSans-2c" d="M 750 794 
L 1409 794 
L 1409 256 
L 897 -744 
L 494 -744 
L 750 256 
L 750 794 
z
" transform="scale(0.015625)"/>
      <path id="DejaVuSans-79" d="M 2059 -325 
Q 1816 -950 1584 -1140 
Q 1353 -1331 966 -1331 
L 506 -1331 
L 506 -850 
L 844 -850 
Q 1081 -850 1212 -737 
Q 1344 -625 1503 -206 
L 1606 56 
L 191 3500 
L 800 3500 
L 1894 763 
L 2988 3500 
L 3597 3500 
L 2059 -325 
z
" transform="scale(0.015625)"/>
      <path id="DejaVuSans-2e" d="M 684 794 
L 1344 794 
L 1344 0 
L 684 0 
L 684 794 
z
" transform="scale(0.015625)"/>
      <path id="DejaVuSans-3a" d="M 750 794 
L 1409 794 
L 1409 0 
L 750 0 
L 750 794 
z
M 750 3309 
L 1409 3309 
L 1409 2516 
L 750 2516 
L 750 3309 
z
" transform="scale(0.015625)"/>
      <path id="DejaVuSans-35" d="M 691 4666 
L 3169 4666 
L 3169 4134 
L 1269 4134 
L 1269 2991 
Q 1406 3038 1543 3061 
Q 1681 3084 1819 3084 
Q 2600 3084 3056 2656 
Q 3513 2228 3513 1497 
Q 3513 744 3044 326 
Q 2575 -91 1722 -91 
Q 1428 -91 1123 -41 
Q 819 9 494 109 
L 494 744 
Q 775 591 1075 516 
Q 1375 441 1709 441 
Q 2250 441 2565 725 
Q 2881 1009 2881 1497 
Q 2881 1984 2565 2268 
Q 2250 2553 1709 2553 
Q 1456 2553 1204 2497 
Q 953 2441 691 2322 
L 691 4666 
z
" transform="scale(0.015625)"/>
      <path id="DejaVuSans-2d" d="M 313 2009 
L 1997 2009 
L 1997 1497 
L 313 1497 
L 313 2009 
z
" transform="scale(0.015625)"/>
      <path id="DejaVuSans-37" d="M 525 4666 
L 3525 4666 
L 3525 4397 
L 1831 0 
L 1172 0 
L 2766 4134 
L 525 4134 
L 525 4666 
z
" transform="scale(0.015625)"/>
     </defs>
     <use xlink:href="#DejaVuSans-4e"/>
     <use xlink:href="#DejaVuSans-75" x="74.804688"/>
     <use xlink:href="#DejaVuSans-6d" x="138.183594"/>
     <use xlink:href="#DejaVuSans-62" x="235.595703"/>
     <use xlink:href="#DejaVuSans-65" x="299.072266"/>
     <use xlink:href="#DejaVuSans-72" x="360.595703"/>
     <use xlink:href="#DejaVuSans-20" x="401.708984"/>
     <use xlink:href="#DejaVuSans-6f" x="433.496094"/>
     <use xlink:href="#DejaVuSans-66" x="494.677734"/>
     <use xlink:href="#DejaVuSans-20" x="529.882812"/>
     <use xlink:href="#DejaVuSans-41" x="561.669922"/>
     <use xlink:href="#DejaVuSans-45" x="630.078125"/>
     <use xlink:href="#DejaVuSans-44" x="693.261719"/>
     <use xlink:href="#DejaVuSans-73" x="770.263672"/>
     <use xlink:href="#DejaVuSans-20" x="822.363281"/>
     <use xlink:href="#DejaVuSans-69" x="854.150391"/>
     <use xlink:href="#DejaVuSans-6e" x="881.933594"/>
     <use xlink:href="#DejaVuSans-20" x="945.3125"/>
     <use xlink:href="#DejaVuSans-74" x="977.099609"/>
     <use xlink:href="#DejaVuSans-68" x="1016.308594"/>
     <use xlink:href="#DejaVuSans-65" x="1079.6875"/>
     <use xlink:href="#DejaVuSans-20" x="1141.210938"/>
     <use xlink:href="#DejaVuSans-4f" x="1172.998047"/>
     <use xlink:href="#DejaVuSans-70" x="1251.708984"/>
     <use xlink:href="#DejaVuSans-65" x="1315.185547"/>
     <use xlink:href="#DejaVuSans-6e" x="1376.708984"/>
     <use xlink:href="#DejaVuSans-53" x="1440.087891"/>
     <use xlink:href="#DejaVuSans-74" x="1503.564453"/>
     <use xlink:href="#DejaVuSans-72" x="1542.773438"/>
     <use xlink:href="#DejaVuSans-65" x="1581.636719"/>
     <use xlink:href="#DejaVuSans-65" x="1643.160156"/>
     <use xlink:href="#DejaVuSans-74" x="1704.683594"/>
     <use xlink:href="#DejaVuSans-4d" x="1743.892578"/>
     <use xlink:href="#DejaVuSans-61" x="1830.171875"/>
     <use xlink:href="#DejaVuSans-70" x="1891.451172"/>
     <use xlink:href="#DejaVuSans-20" x="1954.927734"/>
     <use xlink:href="#DejaVuSans-64" x="1986.714844"/>
     <use xlink:href="#DejaVuSans-61" x="2050.191406"/>
     <use xlink:href="#DejaVuSans-74" x="2111.470703"/>
     <use xlink:href="#DejaVuSans-61" x="2150.679688"/>
     <use xlink:href="#DejaVuSans-62" x="2211.958984"/>
     <use xlink:href="#DejaVuSans-61" x="2275.435547"/>
     <use xlink:href="#DejaVuSans-73" x="2336.714844"/>
     <use xlink:href="#DejaVuSans-65" x="2388.814453"/>
     <use xlink:href="#DejaVuSans-20" x="2450.337891"/>
     <use xlink:href="#DejaVuSans-69" x="2482.125"/>
     <use xlink:href="#DejaVuSans-6e" x="2509.908203"/>
     <use xlink:href="#DejaVuSans-20" x="2573.287109"/>
     <use xlink:href="#DejaVuSans-50" x="2605.074219"/>
     <use xlink:href="#DejaVuSans-6f" x="2661.751953"/>
     <use xlink:href="#DejaVuSans-6c" x="2722.933594"/>
     <use xlink:href="#DejaVuSans-61" x="2750.716797"/>
     <use xlink:href="#DejaVuSans-6e" x="2811.996094"/>
     <use xlink:href="#DejaVuSans-64" x="2875.375"/>
     <use xlink:href="#DejaVuSans-20" x="2938.851562"/>
     <use xlink:href="#DejaVuSans-66" x="2970.638672"/>
     <use xlink:href="#DejaVuSans-72" x="3005.84375"/>
     <use xlink:href="#DejaVuSans-6f" x="3044.707031"/>
     <use xlink:href="#DejaVuSans-6d" x="3105.888672"/>
     <use xlink:href="#DejaVuSans-20" x="3203.300781"/>
     <use xlink:href="#DejaVuSans-66" x="3235.087891"/>
     <use xlink:href="#DejaVuSans-69" x="3270.292969"/>
     <use xlink:href="#DejaVuSans-72" x="3298.076172"/>
     <use xlink:href="#DejaVuSans-73" x="3339.189453"/>
     <use xlink:href="#DejaVuSans-74" x="3391.289062"/>
     <use xlink:href="#DejaVuSans-20" x="3430.498047"/>
     <use xlink:href="#DejaVuSans-65" x="3462.285156"/>
     <use xlink:href="#DejaVuSans-64" x="3523.808594"/>
     <use xlink:href="#DejaVuSans-69" x="3587.285156"/>
     <use xlink:href="#DejaVuSans-74" x="3615.068359"/>
     <use xlink:href="#DejaVuSans-69" x="3654.277344"/>
     <use xlink:href="#DejaVuSans-6f" x="3682.060547"/>
     <use xlink:href="#DejaVuSans-6e" x="3743.242188"/>
     <use xlink:href="#DejaVuSans-2c" x="3806.621094"/>
     <use xlink:href="#DejaVuSans-20" x="3838.408203"/>
     <use xlink:href="#DejaVuSans-64" x="3870.195312"/>
     <use xlink:href="#DejaVuSans-61" x="3933.671875"/>
     <use xlink:href="#DejaVuSans-79" x="3994.951172"/>
     <use xlink:href="#DejaVuSans-20" x="4054.130859"/>
     <use xlink:href="#DejaVuSans-62" x="4085.917969"/>
     <use xlink:href="#DejaVuSans-79" x="4149.394531"/>
     <use xlink:href="#DejaVuSans-20" x="4208.574219"/>
     <use xlink:href="#DejaVuSans-64" x="4240.361328"/>
     <use xlink:href="#DejaVuSans-61" x="4303.837891"/>
     <use xlink:href="#DejaVuSans-79" x="4365.117188"/>
     <use xlink:href="#DejaVuSans-2e" x="4410.046875"/>
     <use xlink:href="#DejaVuSans-20" x="4441.833984"/>
     <use xlink:href="#DejaVuSans-41" x="4473.621094"/>
     <use xlink:href="#DejaVuSans-73" x="4542.029297"/>
     <use xlink:href="#DejaVuSans-20" x="4594.128906"/>
     <use xlink:href="#DejaVuSans-61" x="4625.916016"/>
     <use xlink:href="#DejaVuSans-74" x="4687.195312"/>
     <use xlink:href="#DejaVuSans-3a" x="4726.404297"/>
     <use xlink:href="#DejaVuSans-20" x="4760.095703"/>
     <use xlink:href="#DejaVuSans-32" x="4791.882812"/>
     <use xlink:href="#DejaVuSans-30" x="4855.505859"/>
     <use xlink:href="#DejaVuSans-32" x="4919.128906"/>
     <use xlink:href="#DejaVuSans-35" x="4982.751953"/>
     <use xlink:href="#DejaVuSans-2d" x="5046.375"/>
     <use xlink:href="#DejaVuSans-30" x="5082.458984"/>
     <use xlink:href="#DejaVuSans-36" x="5146.082031"/>
     <use xlink:href="#DejaVuSans-2d" x="5209.705078"/>
     <use xlink:href="#DejaVuSans-32" x="5245.789062"/>
     <use xlink:href="#DejaVuSans-37" x="5309.412109"/>
    </g>
   </g>
  </g>
 </g>
 <defs>
  <clipPath id="pea1acb6001">
   <rect x="144" y="69.12" width="892.8" height="443.52"/>
  </clipPath>
 </defs>
</svg>
