<?xml version="1.0" encoding="utf-8" standalone="no"?>
<!DOCTYPE svg PUBLIC "-//W3C//DTD SVG 1.1//EN"
  "http://www.w3.org/Graphics/SVG/1.1/DTD/svg11.dtd">
<svg xmlns:xlink="http://www.w3.org/1999/xlink" width="1152pt" height="576pt" viewBox="0 0 1152 576" xmlns="http://www.w3.org/2000/svg" version="1.1">
 <metadata>
  <rdf:RDF xmlns:dc="http://purl.org/dc/elements/1.1/" xmlns:cc="http://creativecommons.org/ns#" xmlns:rdf="http://www.w3.org/1999/02/22-rdf-syntax-ns#">
   <cc:Work>
    <dc:type rdf:resource="http://purl.org/dc/dcmitype/StillImage"/>
    <dc:date>2024-02-05T14:33:24.995748</dc:date>
    <dc:format>image/svg+xml</dc:format>
    <dc:creator>
     <cc:Agent>
      <dc:title>Matplotlib v3.5.1, https://matplotlib.org/</dc:title>
     </cc:Agent>
    </dc:creator>
   </cc:Work>
  </rdf:RDF>
 </metadata>
 <defs>
  <style type="text/css">*{stroke-linejoin: round; stroke-linecap: butt}</style>
 </defs>
 <g id="figure_1">
  <g id="patch_1">
   <path d="M 0 576 
L 1152 576 
L 1152 0 
L 0 0 
z
" style="fill: #ffffff"/>
  </g>
  <g id="axes_1">
   <g id="patch_2">
    <path d="M 144 512.64 
L 1036.8 512.64 
L 1036.8 69.12 
L 144 69.12 
z
" style="fill: #ffffff"/>
   </g>
   <g id="matplotlib.axis_1">
    <g id="xtick_1">
     <g id="line2d_1">
      <defs>
       <path id="m57076e0004" d="M 0 0 
L 0 3.5 
" style="stroke: #000000; stroke-width: 0.8"/>
      </defs>
      <g>
       <use xlink:href="#m57076e0004" x="175.679856" y="512.64" style="stroke: #000000; stroke-width: 0.8"/>
      </g>
     </g>
     <g id="text_1">
      <!-- 2014 -->
      <g transform="translate(162.954856 527.238438)scale(0.1 -0.1)">
       <defs>
        <path id="DejaVuSans-32" d="M 1228 531 
L 3431 531 
L 3431 0 
L 469 0 
L 469 531 
Q 828 903 1448 1529 
Q 2069 2156 2228 2338 
Q 2531 2678 2651 2914 
Q 2772 3150 2772 3378 
Q 2772 3750 2511 3984 
Q 2250 4219 1831 4219 
Q 1534 4219 1204 4116 
Q 875 4013 500 3803 
L 500 4441 
Q 881 4594 1212 4672 
Q 1544 4750 1819 4750 
Q 2544 4750 2975 4387 
Q 3406 4025 3406 3419 
Q 3406 3131 3298 2873 
Q 3191 2616 2906 2266 
Q 2828 2175 2409 1742 
Q 1991 1309 1228 531 
z
" transform="scale(0.015625)"/>
        <path id="DejaVuSans-30" d="M 2034 4250 
Q 1547 4250 1301 3770 
Q 1056 3291 1056 2328 
Q 1056 1369 1301 889 
Q 1547 409 2034 409 
Q 2525 409 2770 889 
Q 3016 1369 3016 2328 
Q 3016 3291 2770 3770 
Q 2525 4250 2034 4250 
z
M 2034 4750 
Q 2819 4750 3233 4129 
Q 3647 3509 3647 2328 
Q 3647 1150 3233 529 
Q 2819 -91 2034 -91 
Q 1250 -91 836 529 
Q 422 1150 422 2328 
Q 422 3509 836 4129 
Q 1250 4750 2034 4750 
z
" transform="scale(0.015625)"/>
        <path id="DejaVuSans-31" d="M 794 531 
L 1825 531 
L 1825 4091 
L 703 3866 
L 703 4441 
L 1819 4666 
L 2450 4666 
L 2450 531 
L 3481 531 
L 3481 0 
L 794 0 
L 794 531 
z
" transform="scale(0.015625)"/>
        <path id="DejaVuSans-34" d="M 2419 4116 
L 825 1625 
L 2419 1625 
L 2419 4116 
z
M 2253 4666 
L 3047 4666 
L 3047 1625 
L 3713 1625 
L 3713 1100 
L 3047 1100 
L 3047 0 
L 2419 0 
L 2419 1100 
L 313 1100 
L 313 1709 
L 2253 4666 
z
" transform="scale(0.015625)"/>
       </defs>
       <use xlink:href="#DejaVuSans-32"/>
       <use xlink:href="#DejaVuSans-30" x="63.623047"/>
       <use xlink:href="#DejaVuSans-31" x="127.246094"/>
       <use xlink:href="#DejaVuSans-34" x="190.869141"/>
      </g>
     </g>
    </g>
    <g id="xtick_2">
     <g id="line2d_2">
      <g>
       <use xlink:href="#m57076e0004" x="256.910257" y="512.64" style="stroke: #000000; stroke-width: 0.8"/>
      </g>
     </g>
     <g id="text_2">
      <!-- 2015 -->
      <g transform="translate(244.185257 527.238438)scale(0.1 -0.1)">
       <defs>
        <path id="DejaVuSans-35" d="M 691 4666 
L 3169 4666 
L 3169 4134 
L 1269 4134 
L 1269 2991 
Q 1406 3038 1543 3061 
Q 1681 3084 1819 3084 
Q 2600 3084 3056 2656 
Q 3513 2228 3513 1497 
Q 3513 744 3044 326 
Q 2575 -91 1722 -91 
Q 1428 -91 1123 -41 
Q 819 9 494 109 
L 494 744 
Q 775 591 1075 516 
Q 1375 441 1709 441 
Q 2250 441 2565 725 
Q 2881 1009 2881 1497 
Q 2881 1984 2565 2268 
Q 2250 2553 1709 2553 
Q 1456 2553 1204 2497 
Q 953 2441 691 2322 
L 691 4666 
z
" transform="scale(0.015625)"/>
       </defs>
       <use xlink:href="#DejaVuSans-32"/>
       <use xlink:href="#DejaVuSans-30" x="63.623047"/>
       <use xlink:href="#DejaVuSans-31" x="127.246094"/>
       <use xlink:href="#DejaVuSans-35" x="190.869141"/>
      </g>
     </g>
    </g>
    <g id="xtick_3">
     <g id="line2d_3">
      <g>
       <use xlink:href="#m57076e0004" x="338.140659" y="512.64" style="stroke: #000000; stroke-width: 0.8"/>
      </g>
     </g>
     <g id="text_3">
      <!-- 2016 -->
      <g transform="translate(325.415659 527.238438)scale(0.1 -0.1)">
       <defs>
        <path id="DejaVuSans-36" d="M 2113 2584 
Q 1688 2584 1439 2293 
Q 1191 2003 1191 1497 
Q 1191 994 1439 701 
Q 1688 409 2113 409 
Q 2538 409 2786 701 
Q 3034 994 3034 1497 
Q 3034 2003 2786 2293 
Q 2538 2584 2113 2584 
z
M 3366 4563 
L 3366 3988 
Q 3128 4100 2886 4159 
Q 2644 4219 2406 4219 
Q 1781 4219 1451 3797 
Q 1122 3375 1075 2522 
Q 1259 2794 1537 2939 
Q 1816 3084 2150 3084 
Q 2853 3084 3261 2657 
Q 3669 2231 3669 1497 
Q 3669 778 3244 343 
Q 2819 -91 2113 -91 
Q 1303 -91 875 529 
Q 447 1150 447 2328 
Q 447 3434 972 4092 
Q 1497 4750 2381 4750 
Q 2619 4750 2861 4703 
Q 3103 4656 3366 4563 
z
" transform="scale(0.015625)"/>
       </defs>
       <use xlink:href="#DejaVuSans-32"/>
       <use xlink:href="#DejaVuSans-30" x="63.623047"/>
       <use xlink:href="#DejaVuSans-31" x="127.246094"/>
       <use xlink:href="#DejaVuSans-36" x="190.869141"/>
      </g>
     </g>
    </g>
    <g id="xtick_4">
     <g id="line2d_4">
      <g>
       <use xlink:href="#m57076e0004" x="419.593609" y="512.64" style="stroke: #000000; stroke-width: 0.8"/>
      </g>
     </g>
     <g id="text_4">
      <!-- 2017 -->
      <g transform="translate(406.868609 527.238438)scale(0.1 -0.1)">
       <defs>
        <path id="DejaVuSans-37" d="M 525 4666 
L 3525 4666 
L 3525 4397 
L 1831 0 
L 1172 0 
L 2766 4134 
L 525 4134 
L 525 4666 
z
" transform="scale(0.015625)"/>
       </defs>
       <use xlink:href="#DejaVuSans-32"/>
       <use xlink:href="#DejaVuSans-30" x="63.623047"/>
       <use xlink:href="#DejaVuSans-31" x="127.246094"/>
       <use xlink:href="#DejaVuSans-37" x="190.869141"/>
      </g>
     </g>
    </g>
    <g id="xtick_5">
     <g id="line2d_5">
      <g>
       <use xlink:href="#m57076e0004" x="500.82401" y="512.64" style="stroke: #000000; stroke-width: 0.8"/>
      </g>
     </g>
     <g id="text_5">
      <!-- 2018 -->
      <g transform="translate(488.09901 527.238438)scale(0.1 -0.1)">
       <defs>
        <path id="DejaVuSans-38" d="M 2034 2216 
Q 1584 2216 1326 1975 
Q 1069 1734 1069 1313 
Q 1069 891 1326 650 
Q 1584 409 2034 409 
Q 2484 409 2743 651 
Q 3003 894 3003 1313 
Q 3003 1734 2745 1975 
Q 2488 2216 2034 2216 
z
M 1403 2484 
Q 997 2584 770 2862 
Q 544 3141 544 3541 
Q 544 4100 942 4425 
Q 1341 4750 2034 4750 
Q 2731 4750 3128 4425 
Q 3525 4100 3525 3541 
Q 3525 3141 3298 2862 
Q 3072 2584 2669 2484 
Q 3125 2378 3379 2068 
Q 3634 1759 3634 1313 
Q 3634 634 3220 271 
Q 2806 -91 2034 -91 
Q 1263 -91 848 271 
Q 434 634 434 1313 
Q 434 1759 690 2068 
Q 947 2378 1403 2484 
z
M 1172 3481 
Q 1172 3119 1398 2916 
Q 1625 2713 2034 2713 
Q 2441 2713 2670 2916 
Q 2900 3119 2900 3481 
Q 2900 3844 2670 4047 
Q 2441 4250 2034 4250 
Q 1625 4250 1398 4047 
Q 1172 3844 1172 3481 
z
" transform="scale(0.015625)"/>
       </defs>
       <use xlink:href="#DejaVuSans-32"/>
       <use xlink:href="#DejaVuSans-30" x="63.623047"/>
       <use xlink:href="#DejaVuSans-31" x="127.246094"/>
       <use xlink:href="#DejaVuSans-38" x="190.869141"/>
      </g>
     </g>
    </g>
    <g id="xtick_6">
     <g id="line2d_6">
      <g>
       <use xlink:href="#m57076e0004" x="582.054411" y="512.64" style="stroke: #000000; stroke-width: 0.8"/>
      </g>
     </g>
     <g id="text_6">
      <!-- 2019 -->
      <g transform="translate(569.329411 527.238438)scale(0.1 -0.1)">
       <defs>
        <path id="DejaVuSans-39" d="M 703 97 
L 703 672 
Q 941 559 1184 500 
Q 1428 441 1663 441 
Q 2288 441 2617 861 
Q 2947 1281 2994 2138 
Q 2813 1869 2534 1725 
Q 2256 1581 1919 1581 
Q 1219 1581 811 2004 
Q 403 2428 403 3163 
Q 403 3881 828 4315 
Q 1253 4750 1959 4750 
Q 2769 4750 3195 4129 
Q 3622 3509 3622 2328 
Q 3622 1225 3098 567 
Q 2575 -91 1691 -91 
Q 1453 -91 1209 -44 
Q 966 3 703 97 
z
M 1959 2075 
Q 2384 2075 2632 2365 
Q 2881 2656 2881 3163 
Q 2881 3666 2632 3958 
Q 2384 4250 1959 4250 
Q 1534 4250 1286 3958 
Q 1038 3666 1038 3163 
Q 1038 2656 1286 2365 
Q 1534 2075 1959 2075 
z
" transform="scale(0.015625)"/>
       </defs>
       <use xlink:href="#DejaVuSans-32"/>
       <use xlink:href="#DejaVuSans-30" x="63.623047"/>
       <use xlink:href="#DejaVuSans-31" x="127.246094"/>
       <use xlink:href="#DejaVuSans-39" x="190.869141"/>
      </g>
     </g>
    </g>
    <g id="xtick_7">
     <g id="line2d_7">
      <g>
       <use xlink:href="#m57076e0004" x="663.284812" y="512.64" style="stroke: #000000; stroke-width: 0.8"/>
      </g>
     </g>
     <g id="text_7">
      <!-- 2020 -->
      <g transform="translate(650.559812 527.238438)scale(0.1 -0.1)">
       <use xlink:href="#DejaVuSans-32"/>
       <use xlink:href="#DejaVuSans-30" x="63.623047"/>
       <use xlink:href="#DejaVuSans-32" x="127.246094"/>
       <use xlink:href="#DejaVuSans-30" x="190.869141"/>
      </g>
     </g>
    </g>
    <g id="xtick_8">
     <g id="line2d_8">
      <g>
       <use xlink:href="#m57076e0004" x="744.737762" y="512.64" style="stroke: #000000; stroke-width: 0.8"/>
      </g>
     </g>
     <g id="text_8">
      <!-- 2021 -->
      <g transform="translate(732.012762 527.238438)scale(0.1 -0.1)">
       <use xlink:href="#DejaVuSans-32"/>
       <use xlink:href="#DejaVuSans-30" x="63.623047"/>
       <use xlink:href="#DejaVuSans-32" x="127.246094"/>
       <use xlink:href="#DejaVuSans-31" x="190.869141"/>
      </g>
     </g>
    </g>
    <g id="xtick_9">
     <g id="line2d_9">
      <g>
       <use xlink:href="#m57076e0004" x="825.968163" y="512.64" style="stroke: #000000; stroke-width: 0.8"/>
      </g>
     </g>
     <g id="text_9">
      <!-- 2022 -->
      <g transform="translate(813.243163 527.238438)scale(0.1 -0.1)">
       <use xlink:href="#DejaVuSans-32"/>
       <use xlink:href="#DejaVuSans-30" x="63.623047"/>
       <use xlink:href="#DejaVuSans-32" x="127.246094"/>
       <use xlink:href="#DejaVuSans-32" x="190.869141"/>
      </g>
     </g>
    </g>
    <g id="xtick_10">
     <g id="line2d_10">
      <g>
       <use xlink:href="#m57076e0004" x="907.198564" y="512.64" style="stroke: #000000; stroke-width: 0.8"/>
      </g>
     </g>
     <g id="text_10">
      <!-- 2023 -->
      <g transform="translate(894.473564 527.238438)scale(0.1 -0.1)">
       <defs>
        <path id="DejaVuSans-33" d="M 2597 2516 
Q 3050 2419 3304 2112 
Q 3559 1806 3559 1356 
Q 3559 666 3084 287 
Q 2609 -91 1734 -91 
Q 1441 -91 1130 -33 
Q 819 25 488 141 
L 488 750 
Q 750 597 1062 519 
Q 1375 441 1716 441 
Q 2309 441 2620 675 
Q 2931 909 2931 1356 
Q 2931 1769 2642 2001 
Q 2353 2234 1838 2234 
L 1294 2234 
L 1294 2753 
L 1863 2753 
Q 2328 2753 2575 2939 
Q 2822 3125 2822 3475 
Q 2822 3834 2567 4026 
Q 2313 4219 1838 4219 
Q 1578 4219 1281 4162 
Q 984 4106 628 3988 
L 628 4550 
Q 988 4650 1302 4700 
Q 1616 4750 1894 4750 
Q 2613 4750 3031 4423 
Q 3450 4097 3450 3541 
Q 3450 3153 3228 2886 
Q 3006 2619 2597 2516 
z
" transform="scale(0.015625)"/>
       </defs>
       <use xlink:href="#DejaVuSans-32"/>
       <use xlink:href="#DejaVuSans-30" x="63.623047"/>
       <use xlink:href="#DejaVuSans-32" x="127.246094"/>
       <use xlink:href="#DejaVuSans-33" x="190.869141"/>
      </g>
     </g>
    </g>
    <g id="xtick_11">
     <g id="line2d_11">
      <g>
       <use xlink:href="#m57076e0004" x="988.428965" y="512.64" style="stroke: #000000; stroke-width: 0.8"/>
      </g>
     </g>
     <g id="text_11">
      <!-- 2024 -->
      <g transform="translate(975.703965 527.238438)scale(0.1 -0.1)">
       <use xlink:href="#DejaVuSans-32"/>
       <use xlink:href="#DejaVuSans-30" x="63.623047"/>
       <use xlink:href="#DejaVuSans-32" x="127.246094"/>
       <use xlink:href="#DejaVuSans-34" x="190.869141"/>
      </g>
     </g>
    </g>
   </g>
   <g id="matplotlib.axis_2">
    <g id="ytick_1">
     <g id="line2d_12">
      <defs>
       <path id="m2f92a68574" d="M 0 0 
L -3.5 0 
" style="stroke: #000000; stroke-width: 0.8"/>
      </defs>
      <g>
       <use xlink:href="#m2f92a68574" x="144" y="492.60259" style="stroke: #000000; stroke-width: 0.8"/>
      </g>
     </g>
     <g id="text_12">
      <!-- 0 -->
      <g transform="translate(130.6375 496.401809)scale(0.1 -0.1)">
       <use xlink:href="#DejaVuSans-30"/>
      </g>
     </g>
    </g>
    <g id="ytick_2">
     <g id="line2d_13">
      <g>
       <use xlink:href="#m2f92a68574" x="144" y="431.307364" style="stroke: #000000; stroke-width: 0.8"/>
      </g>
     </g>
     <g id="text_13">
      <!-- 1000 -->
      <g transform="translate(111.55 435.106583)scale(0.1 -0.1)">
       <use xlink:href="#DejaVuSans-31"/>
       <use xlink:href="#DejaVuSans-30" x="63.623047"/>
       <use xlink:href="#DejaVuSans-30" x="127.246094"/>
       <use xlink:href="#DejaVuSans-30" x="190.869141"/>
      </g>
     </g>
    </g>
    <g id="ytick_3">
     <g id="line2d_14">
      <g>
       <use xlink:href="#m2f92a68574" x="144" y="370.012137" style="stroke: #000000; stroke-width: 0.8"/>
      </g>
     </g>
     <g id="text_14">
      <!-- 2000 -->
      <g transform="translate(111.55 373.811356)scale(0.1 -0.1)">
       <use xlink:href="#DejaVuSans-32"/>
       <use xlink:href="#DejaVuSans-30" x="63.623047"/>
       <use xlink:href="#DejaVuSans-30" x="127.246094"/>
       <use xlink:href="#DejaVuSans-30" x="190.869141"/>
      </g>
     </g>
    </g>
    <g id="ytick_4">
     <g id="line2d_15">
      <g>
       <use xlink:href="#m2f92a68574" x="144" y="308.716911" style="stroke: #000000; stroke-width: 0.8"/>
      </g>
     </g>
     <g id="text_15">
      <!-- 3000 -->
      <g transform="translate(111.55 312.51613)scale(0.1 -0.1)">
       <use xlink:href="#DejaVuSans-33"/>
       <use xlink:href="#DejaVuSans-30" x="63.623047"/>
       <use xlink:href="#DejaVuSans-30" x="127.246094"/>
       <use xlink:href="#DejaVuSans-30" x="190.869141"/>
      </g>
     </g>
    </g>
    <g id="ytick_5">
     <g id="line2d_16">
      <g>
       <use xlink:href="#m2f92a68574" x="144" y="247.421684" style="stroke: #000000; stroke-width: 0.8"/>
      </g>
     </g>
     <g id="text_16">
      <!-- 4000 -->
      <g transform="translate(111.55 251.220903)scale(0.1 -0.1)">
       <use xlink:href="#DejaVuSans-34"/>
       <use xlink:href="#DejaVuSans-30" x="63.623047"/>
       <use xlink:href="#DejaVuSans-30" x="127.246094"/>
       <use xlink:href="#DejaVuSans-30" x="190.869141"/>
      </g>
     </g>
    </g>
    <g id="ytick_6">
     <g id="line2d_17">
      <g>
       <use xlink:href="#m2f92a68574" x="144" y="186.126458" style="stroke: #000000; stroke-width: 0.8"/>
      </g>
     </g>
     <g id="text_17">
      <!-- 5000 -->
      <g transform="translate(111.55 189.925677)scale(0.1 -0.1)">
       <use xlink:href="#DejaVuSans-35"/>
       <use xlink:href="#DejaVuSans-30" x="63.623047"/>
       <use xlink:href="#DejaVuSans-30" x="127.246094"/>
       <use xlink:href="#DejaVuSans-30" x="190.869141"/>
      </g>
     </g>
    </g>
    <g id="ytick_7">
     <g id="line2d_18">
      <g>
       <use xlink:href="#m2f92a68574" x="144" y="124.831231" style="stroke: #000000; stroke-width: 0.8"/>
      </g>
     </g>
     <g id="text_18">
      <!-- 6000 -->
      <g transform="translate(111.55 128.63045)scale(0.1 -0.1)">
       <use xlink:href="#DejaVuSans-36"/>
       <use xlink:href="#DejaVuSans-30" x="63.623047"/>
       <use xlink:href="#DejaVuSans-30" x="127.246094"/>
       <use xlink:href="#DejaVuSans-30" x="190.869141"/>
      </g>
     </g>
    </g>
   </g>
   <g id="line2d_19">
    <path d="M 184.581818 492.48 
L 186.58476 492.234819 
L 223.972999 492.050933 
L 228.201431 491.989638 
L 325.677912 491.805753 
L 439.623023 491.437981 
L 475.675968 491.315391 
L 488.583812 491.131505 
L 542.885779 490.886324 
L 564.918134 490.518553 
L 598.968138 490.273372 
L 604.531864 490.089486 
L 614.76912 489.844305 
L 635.021083 489.66042 
L 645.703437 489.476534 
L 646.371085 489.415239 
L 669.961283 489.231353 
L 670.62893 489.170058 
L 671.074028 488.679696 
L 677.973049 488.311925 
L 703.121091 488.189334 
L 704.678934 488.128039 
L 714.248543 488.005448 
L 714.91619 487.882858 
L 719.367171 487.698972 
L 732.720114 487.576382 
L 735.390702 487.331201 
L 737.616193 487.269906 
L 751.414233 487.147315 
L 762.319137 486.718249 
L 763.654431 486.595658 
L 770.330902 486.350477 
L 775.44953 486.166592 
L 780.345609 485.79882 
L 780.568158 485.737525 
L 783.461296 485.492344 
L 784.128943 485.001982 
L 797.036787 484.327735 
L 797.481885 484.205144 
L 799.707376 484.143849 
L 800.152474 483.714783 
L 802.377964 483.530897 
L 802.600513 483.469602 
L 809.944632 483.040535 
L 816.398554 482.856649 
L 821.739731 479.975774 
L 821.96228 479.730593 
L 823.965222 479.362822 
L 824.632869 478.320803 
L 824.855418 478.259507 
L 825.077967 476.665832 
L 825.300516 476.29806 
L 825.745614 476.17547 
L 825.968163 473.968842 
L 826.413261 473.662365 
L 826.858359 473.233299 
L 827.303457 472.988118 
L 827.748555 471.823509 
L 827.971105 471.700918 
L 828.193654 471.394442 
L 828.416203 470.107242 
L 828.638752 467.471548 
L 828.861301 466.736005 
L 829.08385 465.264919 
L 829.306399 462.874406 
L 829.528948 459.012806 
L 829.974046 456.00934 
L 830.196595 455.518978 
L 830.419144 447.121532 
L 830.641693 443.443819 
L 830.864242 441.972733 
L 831.086791 435.659325 
L 831.754438 428.487784 
L 831.976987 428.242603 
L 832.422085 424.564889 
L 832.644634 423.216394 
L 832.867183 414.02211 
L 833.089733 413.225272 
L 833.534831 409.91533 
L 833.75738 409.670149 
L 833.979929 408.137768 
L 834.202478 401.579179 
L 834.425027 399.740322 
L 834.647576 399.495141 
L 834.870125 394.407638 
L 835.092674 393.181733 
L 835.537772 392.813962 
L 836.427968 387.726458 
L 836.650517 387.236096 
L 836.873066 386.316668 
L 837.095615 383.313202 
L 837.540713 380.616212 
L 837.763262 373.138194 
L 838.208361 367.499033 
L 838.43091 364.679453 
L 838.653459 364.556862 
L 839.543655 363.698729 
L 840.433851 361.001739 
L 840.6564 360.940444 
L 840.878949 360.756558 
L 841.324047 354.810921 
L 841.546596 354.749626 
L 841.991694 353.768902 
L 842.214243 350.765436 
L 842.436792 349.907303 
L 842.659341 349.539532 
L 842.88189 348.803989 
L 843.10444 347.63938 
L 843.549538 347.394199 
L 843.772087 347.087723 
L 843.994636 346.47477 
L 844.217185 344.94239 
L 844.439734 344.881095 
L 844.662283 342.36799 
L 844.884832 342.122809 
L 845.32993 341.142086 
L 845.775028 340.83561 
L 846.220126 340.467838 
L 846.442675 337.341782 
L 846.665224 337.157896 
L 846.887773 336.667534 
L 847.110322 330.967078 
L 847.55542 330.783192 
L 848.223068 327.779726 
L 848.890715 327.411955 
L 849.558362 325.511803 
L 849.780911 325.450508 
L 850.226009 324.347194 
L 850.448558 324.285898 
L 850.671107 324.040718 
L 850.893656 318.156376 
L 851.116205 318.095081 
L 851.561303 317.8499 
L 852.22895 317.482128 
L 852.674048 316.991766 
L 853.564245 316.807881 
L 853.786794 316.378814 
L 855.789735 315.398091 
L 856.457382 315.030319 
L 856.90248 314.478662 
L 857.125029 314.110891 
L 857.792676 313.86571 
L 858.460324 313.743119 
L 858.905422 313.252758 
L 859.35052 313.007577 
L 860.908363 312.45592 
L 861.130912 312.210739 
L 861.57601 311.965558 
L 862.466206 305.958626 
L 863.133853 305.89733 
L 863.801501 305.529559 
L 864.02405 305.223083 
L 865.581893 304.916607 
L 866.026991 304.671426 
L 866.24954 304.548836 
L 866.472089 303.506817 
L 867.584834 303.384226 
L 868.029932 303.016455 
L 868.920129 302.342207 
L 869.142678 302.280912 
L 869.365227 301.974436 
L 869.587776 301.913141 
L 870.032874 301.238893 
L 870.255423 301.177598 
L 870.477972 300.932417 
L 870.700521 300.319465 
L 871.368168 299.645217 
L 871.590717 299.522627 
L 872.035815 299.461332 
L 872.480913 299.216151 
L 872.703462 299.09356 
L 872.926011 298.664494 
L 873.37111 298.603199 
L 873.593659 297.438589 
L 873.816208 297.254704 
L 874.038757 295.783618 
L 875.151502 295.415847 
L 875.5966 295.231961 
L 876.264247 295.170666 
L 876.709345 294.741599 
L 877.376992 294.496418 
L 877.599541 293.638285 
L 881.605424 291.554247 
L 882.273071 291.431657 
L 882.718169 291.186476 
L 883.385816 290.88 
L 884.498562 289.715391 
L 884.94366 289.408915 
L 885.166209 288.06042 
L 885.388758 287.753943 
L 885.833856 287.447467 
L 886.501503 285.853791 
L 887.614248 284.19882 
L 888.059346 282.850325 
L 888.281895 282.78903 
L 888.504444 281.563126 
L 889.61719 279.356497 
L 890.284837 279.172612 
L 890.507386 278.559659 
L 890.952484 278.253183 
L 891.175033 277.578936 
L 891.84268 277.027279 
L 892.287778 276.965984 
L 892.510327 276.353031 
L 892.955425 276.169146 
L 893.845622 275.86267 
L 894.29072 275.311012 
L 894.735818 275.188422 
L 894.958367 274.881946 
L 895.403465 274.69806 
L 895.626014 274.514175 
L 896.071112 274.452879 
L 897.406406 273.104384 
L 897.628955 272.920499 
L 898.074053 272.797908 
L 898.296602 272.552727 
L 898.741701 270.959051 
L 898.96425 270.836461 
L 900.076995 269.18149 
L 900.299544 269.058899 
L 900.522093 267.649109 
L 900.967191 267.526519 
L 901.412289 267.036157 
L 902.747583 266.361909 
L 903.192681 265.319891 
L 903.860329 264.706938 
L 904.082878 264.645643 
L 904.527976 263.603624 
L 904.973074 263.419739 
L 905.640721 262.622901 
L 906.308368 262.132539 
L 906.530917 256.615968 
L 906.976015 251.957531 
L 907.198564 247.973341 
L 907.421113 247.48298 
L 908.08876 243.253609 
L 908.756408 241.169571 
L 909.201506 240.372733 
L 909.424055 239.5146 
L 909.646604 236.572429 
L 909.869153 235.836887 
L 910.091702 235.775591 
L 910.314251 235.591706 
L 910.759349 233.936735 
L 910.981898 233.568963 
L 911.204447 232.343059 
L 911.426996 231.975287 
L 911.649545 231.239745 
L 911.872094 230.933268 
L 912.317192 228.358869 
L 912.76229 226.765193 
L 912.984839 226.02965 
L 914.320134 224.129498 
L 914.542683 222.045461 
L 914.765232 221.92287 
L 915.432879 220.942147 
L 916.100526 219.409766 
L 916.323075 217.999976 
L 916.545624 217.93868 
L 917.213271 216.712776 
L 917.658369 216.52889 
L 917.880918 215.915938 
L 918.103467 215.793348 
L 918.548565 214.873919 
L 919.438762 209.663825 
L 919.661311 206.966835 
L 919.88386 206.047407 
L 920.996605 204.33114 
L 921.219154 204.20855 
L 921.441703 203.473007 
L 921.886801 200.959903 
L 922.776997 200.163065 
L 923.222095 199.611408 
L 923.667193 197.956437 
L 923.889743 197.588665 
L 925.002488 194.278723 
L 925.447586 193.849656 
L 925.670135 193.788361 
L 926.337782 193.297999 
L 926.78288 191.275257 
L 927.005429 190.84619 
L 927.673076 190.355829 
L 928.118174 189.620286 
L 928.785821 188.210496 
L 929.23092 188.087905 
L 929.676018 187.229772 
L 930.343665 186.800705 
L 930.788763 186.61682 
L 931.011312 186.249048 
L 931.233861 185.023144 
L 932.124057 184.532782 
L 932.346606 183.797239 
L 932.569155 183.735944 
L 932.791704 182.448744 
L 933.459351 182.019678 
L 933.6819 181.958382 
L 934.126999 181.651906 
L 934.572097 180.732478 
L 935.017195 180.426002 
L 935.684842 179.751754 
L 936.12994 178.954916 
L 936.575038 178.464555 
L 937.020136 178.403259 
L 937.242685 176.564403 
L 937.687783 175.82886 
L 938.132881 175.522384 
L 938.577979 174.909431 
L 938.800528 174.848136 
L 939.023077 174.41907 
L 939.690725 174.235184 
L 939.913274 173.990003 
L 940.135823 172.028556 
L 940.358372 171.84467 
L 941.026019 170.618766 
L 941.471117 170.55747 
L 942.138764 169.576747 
L 942.583862 169.392861 
L 942.806411 168.841204 
L 943.251509 168.596023 
L 944.141706 167.370119 
L 944.364255 167.308823 
L 944.586804 166.941052 
L 945.254451 166.45069 
L 945.477 166.144214 
L 945.699549 165.16349 
L 946.589745 164.427948 
L 946.812294 163.692405 
L 947.257392 163.202043 
L 947.479941 162.772977 
L 948.147588 162.098729 
L 948.370137 161.547072 
L 948.592686 161.424482 
L 948.815235 160.995415 
L 949.482883 160.505053 
L 949.705432 160.014691 
L 950.15053 159.830806 
L 950.373079 159.585625 
L 950.818177 159.463034 
L 951.040726 159.217853 
L 951.263275 158.482311 
L 951.485824 158.23713 
L 951.930922 158.053244 
L 952.37602 157.808063 
L 952.598569 157.685473 
L 953.043667 157.133816 
L 953.488765 156.888635 
L 953.711314 156.82734 
L 954.156412 156.582159 
L 954.378962 155.969206 
L 954.82406 155.846616 
L 955.046609 154.743302 
L 955.269158 154.436826 
L 955.491707 153.762578 
L 955.714256 153.517397 
L 955.936805 151.188179 
L 956.159354 151.065588 
L 957.939746 147.816941 
L 958.162295 147.510465 
L 958.607393 147.203989 
L 958.829942 146.407151 
L 959.052491 146.284561 
L 959.275041 145.671608 
L 959.942688 144.936066 
L 960.165237 144.87477 
L 960.610335 144.261818 
L 961.055433 143.281095 
L 962.168178 141.258352 
L 963.058374 139.542086 
L 963.280923 139.480791 
L 963.503472 139.113019 
L 964.171119 138.990429 
L 964.616218 138.622657 
L 965.728963 136.109553 
L 966.39661 135.37401 
L 967.286806 134.577172 
L 967.509355 134.209401 
L 968.177002 133.902925 
L 969.067198 132.860906 
L 969.957395 132.186659 
L 971.07014 131.022049 
L 972.627983 130.286507 
L 973.073081 129.550964 
L 973.518179 129.121897 
L 973.740728 128.44765 
L 973.963277 128.325059 
L 974.408376 127.895993 
L 975.076023 127.466926 
L 975.521121 127.099155 
L 975.966219 126.670088 
L 976.188768 126.608793 
L 976.856415 125.689365 
L 977.301513 125.566774 
L 977.524062 125.382888 
L 977.746611 125.015117 
L 977.96916 124.156984 
L 978.191709 121.153518 
L 978.636807 120.234089 
L 978.859356 120.172794 
L 979.081905 119.621137 
L 979.527004 118.027461 
L 980.194651 117.046738 
L 980.639749 114.533633 
L 980.862298 114.104567 
L 981.307396 113.614205 
L 981.529945 113.369024 
L 981.975043 113.185138 
L 982.197592 112.572186 
L 982.420141 112.449596 
L 983.087788 111.284986 
L 983.310337 111.223691 
L 983.755435 110.733329 
L 984.200533 109.507425 
L 984.423082 109.323539 
L 984.645632 108.587996 
L 985.313279 108.15893 
L 985.535828 107.362092 
L 986.871122 105.155464 
L 987.31622 105.032873 
L 987.983867 103.868264 
L 988.206416 103.806969 
L 988.428965 103.500493 
L 988.874063 100.558322 
L 989.096612 100.497026 
L 989.319161 99.884074 
L 990.209358 99.148531 
L 990.654456 98.535579 
L 990.877005 97.554856 
L 991.322103 97.187084 
L 991.544652 96.267656 
L 991.767201 96.022475 
L 991.98975 95.286932 
L 993.325044 93.631961 
L 995.105437 91.670514 
L 995.550535 89.770362 
L 995.773084 89.525181 
L 996.218182 89.28 
L 996.218182 89.28 
" clip-path="url(#p23326cdf0d)" style="fill: none; stroke: #1f77b4; stroke-width: 1.5; stroke-linecap: square"/>
   </g>
   <g id="patch_3">
    <path d="M 144 512.64 
L 144 69.12 
" style="fill: none; stroke: #000000; stroke-width: 0.8; stroke-linejoin: miter; stroke-linecap: square"/>
   </g>
   <g id="patch_4">
    <path d="M 1036.8 512.64 
L 1036.8 69.12 
" style="fill: none; stroke: #000000; stroke-width: 0.8; stroke-linejoin: miter; stroke-linecap: square"/>
   </g>
   <g id="patch_5">
    <path d="M 144 512.64 
L 1036.8 512.64 
" style="fill: none; stroke: #000000; stroke-width: 0.8; stroke-linejoin: miter; stroke-linecap: square"/>
   </g>
   <g id="patch_6">
    <path d="M 144 69.12 
L 1036.8 69.12 
" style="fill: none; stroke: #000000; stroke-width: 0.8; stroke-linejoin: miter; stroke-linecap: square"/>
   </g>
   <g id="text_19">
    <!-- Number of AEDs in the OpenStreetMap database in Poland from first edition, day by day. As at: 2024-02-05 -->
    <g transform="translate(144 63.12)scale(0.14 -0.14)">
     <defs>
      <path id="DejaVuSans-4e" d="M 628 4666 
L 1478 4666 
L 3547 763 
L 3547 4666 
L 4159 4666 
L 4159 0 
L 3309 0 
L 1241 3903 
L 1241 0 
L 628 0 
L 628 4666 
z
" transform="scale(0.015625)"/>
      <path id="DejaVuSans-75" d="M 544 1381 
L 544 3500 
L 1119 3500 
L 1119 1403 
Q 1119 906 1312 657 
Q 1506 409 1894 409 
Q 2359 409 2629 706 
Q 2900 1003 2900 1516 
L 2900 3500 
L 3475 3500 
L 3475 0 
L 2900 0 
L 2900 538 
Q 2691 219 2414 64 
Q 2138 -91 1772 -91 
Q 1169 -91 856 284 
Q 544 659 544 1381 
z
M 1991 3584 
L 1991 3584 
z
" transform="scale(0.015625)"/>
      <path id="DejaVuSans-6d" d="M 3328 2828 
Q 3544 3216 3844 3400 
Q 4144 3584 4550 3584 
Q 5097 3584 5394 3201 
Q 5691 2819 5691 2113 
L 5691 0 
L 5113 0 
L 5113 2094 
Q 5113 2597 4934 2840 
Q 4756 3084 4391 3084 
Q 3944 3084 3684 2787 
Q 3425 2491 3425 1978 
L 3425 0 
L 2847 0 
L 2847 2094 
Q 2847 2600 2669 2842 
Q 2491 3084 2119 3084 
Q 1678 3084 1418 2786 
Q 1159 2488 1159 1978 
L 1159 0 
L 581 0 
L 581 3500 
L 1159 3500 
L 1159 2956 
Q 1356 3278 1631 3431 
Q 1906 3584 2284 3584 
Q 2666 3584 2933 3390 
Q 3200 3197 3328 2828 
z
" transform="scale(0.015625)"/>
      <path id="DejaVuSans-62" d="M 3116 1747 
Q 3116 2381 2855 2742 
Q 2594 3103 2138 3103 
Q 1681 3103 1420 2742 
Q 1159 2381 1159 1747 
Q 1159 1113 1420 752 
Q 1681 391 2138 391 
Q 2594 391 2855 752 
Q 3116 1113 3116 1747 
z
M 1159 2969 
Q 1341 3281 1617 3432 
Q 1894 3584 2278 3584 
Q 2916 3584 3314 3078 
Q 3713 2572 3713 1747 
Q 3713 922 3314 415 
Q 2916 -91 2278 -91 
Q 1894 -91 1617 61 
Q 1341 213 1159 525 
L 1159 0 
L 581 0 
L 581 4863 
L 1159 4863 
L 1159 2969 
z
" transform="scale(0.015625)"/>
      <path id="DejaVuSans-65" d="M 3597 1894 
L 3597 1613 
L 953 1613 
Q 991 1019 1311 708 
Q 1631 397 2203 397 
Q 2534 397 2845 478 
Q 3156 559 3463 722 
L 3463 178 
Q 3153 47 2828 -22 
Q 2503 -91 2169 -91 
Q 1331 -91 842 396 
Q 353 884 353 1716 
Q 353 2575 817 3079 
Q 1281 3584 2069 3584 
Q 2775 3584 3186 3129 
Q 3597 2675 3597 1894 
z
M 3022 2063 
Q 3016 2534 2758 2815 
Q 2500 3097 2075 3097 
Q 1594 3097 1305 2825 
Q 1016 2553 972 2059 
L 3022 2063 
z
" transform="scale(0.015625)"/>
      <path id="DejaVuSans-72" d="M 2631 2963 
Q 2534 3019 2420 3045 
Q 2306 3072 2169 3072 
Q 1681 3072 1420 2755 
Q 1159 2438 1159 1844 
L 1159 0 
L 581 0 
L 581 3500 
L 1159 3500 
L 1159 2956 
Q 1341 3275 1631 3429 
Q 1922 3584 2338 3584 
Q 2397 3584 2469 3576 
Q 2541 3569 2628 3553 
L 2631 2963 
z
" transform="scale(0.015625)"/>
      <path id="DejaVuSans-20" transform="scale(0.015625)"/>
      <path id="DejaVuSans-6f" d="M 1959 3097 
Q 1497 3097 1228 2736 
Q 959 2375 959 1747 
Q 959 1119 1226 758 
Q 1494 397 1959 397 
Q 2419 397 2687 759 
Q 2956 1122 2956 1747 
Q 2956 2369 2687 2733 
Q 2419 3097 1959 3097 
z
M 1959 3584 
Q 2709 3584 3137 3096 
Q 3566 2609 3566 1747 
Q 3566 888 3137 398 
Q 2709 -91 1959 -91 
Q 1206 -91 779 398 
Q 353 888 353 1747 
Q 353 2609 779 3096 
Q 1206 3584 1959 3584 
z
" transform="scale(0.015625)"/>
      <path id="DejaVuSans-66" d="M 2375 4863 
L 2375 4384 
L 1825 4384 
Q 1516 4384 1395 4259 
Q 1275 4134 1275 3809 
L 1275 3500 
L 2222 3500 
L 2222 3053 
L 1275 3053 
L 1275 0 
L 697 0 
L 697 3053 
L 147 3053 
L 147 3500 
L 697 3500 
L 697 3744 
Q 697 4328 969 4595 
Q 1241 4863 1831 4863 
L 2375 4863 
z
" transform="scale(0.015625)"/>
      <path id="DejaVuSans-41" d="M 2188 4044 
L 1331 1722 
L 3047 1722 
L 2188 4044 
z
M 1831 4666 
L 2547 4666 
L 4325 0 
L 3669 0 
L 3244 1197 
L 1141 1197 
L 716 0 
L 50 0 
L 1831 4666 
z
" transform="scale(0.015625)"/>
      <path id="DejaVuSans-45" d="M 628 4666 
L 3578 4666 
L 3578 4134 
L 1259 4134 
L 1259 2753 
L 3481 2753 
L 3481 2222 
L 1259 2222 
L 1259 531 
L 3634 531 
L 3634 0 
L 628 0 
L 628 4666 
z
" transform="scale(0.015625)"/>
      <path id="DejaVuSans-44" d="M 1259 4147 
L 1259 519 
L 2022 519 
Q 2988 519 3436 956 
Q 3884 1394 3884 2338 
Q 3884 3275 3436 3711 
Q 2988 4147 2022 4147 
L 1259 4147 
z
M 628 4666 
L 1925 4666 
Q 3281 4666 3915 4102 
Q 4550 3538 4550 2338 
Q 4550 1131 3912 565 
Q 3275 0 1925 0 
L 628 0 
L 628 4666 
z
" transform="scale(0.015625)"/>
      <path id="DejaVuSans-73" d="M 2834 3397 
L 2834 2853 
Q 2591 2978 2328 3040 
Q 2066 3103 1784 3103 
Q 1356 3103 1142 2972 
Q 928 2841 928 2578 
Q 928 2378 1081 2264 
Q 1234 2150 1697 2047 
L 1894 2003 
Q 2506 1872 2764 1633 
Q 3022 1394 3022 966 
Q 3022 478 2636 193 
Q 2250 -91 1575 -91 
Q 1294 -91 989 -36 
Q 684 19 347 128 
L 347 722 
Q 666 556 975 473 
Q 1284 391 1588 391 
Q 1994 391 2212 530 
Q 2431 669 2431 922 
Q 2431 1156 2273 1281 
Q 2116 1406 1581 1522 
L 1381 1569 
Q 847 1681 609 1914 
Q 372 2147 372 2553 
Q 372 3047 722 3315 
Q 1072 3584 1716 3584 
Q 2034 3584 2315 3537 
Q 2597 3491 2834 3397 
z
" transform="scale(0.015625)"/>
      <path id="DejaVuSans-69" d="M 603 3500 
L 1178 3500 
L 1178 0 
L 603 0 
L 603 3500 
z
M 603 4863 
L 1178 4863 
L 1178 4134 
L 603 4134 
L 603 4863 
z
" transform="scale(0.015625)"/>
      <path id="DejaVuSans-6e" d="M 3513 2113 
L 3513 0 
L 2938 0 
L 2938 2094 
Q 2938 2591 2744 2837 
Q 2550 3084 2163 3084 
Q 1697 3084 1428 2787 
Q 1159 2491 1159 1978 
L 1159 0 
L 581 0 
L 581 3500 
L 1159 3500 
L 1159 2956 
Q 1366 3272 1645 3428 
Q 1925 3584 2291 3584 
Q 2894 3584 3203 3211 
Q 3513 2838 3513 2113 
z
" transform="scale(0.015625)"/>
      <path id="DejaVuSans-74" d="M 1172 4494 
L 1172 3500 
L 2356 3500 
L 2356 3053 
L 1172 3053 
L 1172 1153 
Q 1172 725 1289 603 
Q 1406 481 1766 481 
L 2356 481 
L 2356 0 
L 1766 0 
Q 1100 0 847 248 
Q 594 497 594 1153 
L 594 3053 
L 172 3053 
L 172 3500 
L 594 3500 
L 594 4494 
L 1172 4494 
z
" transform="scale(0.015625)"/>
      <path id="DejaVuSans-68" d="M 3513 2113 
L 3513 0 
L 2938 0 
L 2938 2094 
Q 2938 2591 2744 2837 
Q 2550 3084 2163 3084 
Q 1697 3084 1428 2787 
Q 1159 2491 1159 1978 
L 1159 0 
L 581 0 
L 581 4863 
L 1159 4863 
L 1159 2956 
Q 1366 3272 1645 3428 
Q 1925 3584 2291 3584 
Q 2894 3584 3203 3211 
Q 3513 2838 3513 2113 
z
" transform="scale(0.015625)"/>
      <path id="DejaVuSans-4f" d="M 2522 4238 
Q 1834 4238 1429 3725 
Q 1025 3213 1025 2328 
Q 1025 1447 1429 934 
Q 1834 422 2522 422 
Q 3209 422 3611 934 
Q 4013 1447 4013 2328 
Q 4013 3213 3611 3725 
Q 3209 4238 2522 4238 
z
M 2522 4750 
Q 3503 4750 4090 4092 
Q 4678 3434 4678 2328 
Q 4678 1225 4090 567 
Q 3503 -91 2522 -91 
Q 1538 -91 948 565 
Q 359 1222 359 2328 
Q 359 3434 948 4092 
Q 1538 4750 2522 4750 
z
" transform="scale(0.015625)"/>
      <path id="DejaVuSans-70" d="M 1159 525 
L 1159 -1331 
L 581 -1331 
L 581 3500 
L 1159 3500 
L 1159 2969 
Q 1341 3281 1617 3432 
Q 1894 3584 2278 3584 
Q 2916 3584 3314 3078 
Q 3713 2572 3713 1747 
Q 3713 922 3314 415 
Q 2916 -91 2278 -91 
Q 1894 -91 1617 61 
Q 1341 213 1159 525 
z
M 3116 1747 
Q 3116 2381 2855 2742 
Q 2594 3103 2138 3103 
Q 1681 3103 1420 2742 
Q 1159 2381 1159 1747 
Q 1159 1113 1420 752 
Q 1681 391 2138 391 
Q 2594 391 2855 752 
Q 3116 1113 3116 1747 
z
" transform="scale(0.015625)"/>
      <path id="DejaVuSans-53" d="M 3425 4513 
L 3425 3897 
Q 3066 4069 2747 4153 
Q 2428 4238 2131 4238 
Q 1616 4238 1336 4038 
Q 1056 3838 1056 3469 
Q 1056 3159 1242 3001 
Q 1428 2844 1947 2747 
L 2328 2669 
Q 3034 2534 3370 2195 
Q 3706 1856 3706 1288 
Q 3706 609 3251 259 
Q 2797 -91 1919 -91 
Q 1588 -91 1214 -16 
Q 841 59 441 206 
L 441 856 
Q 825 641 1194 531 
Q 1563 422 1919 422 
Q 2459 422 2753 634 
Q 3047 847 3047 1241 
Q 3047 1584 2836 1778 
Q 2625 1972 2144 2069 
L 1759 2144 
Q 1053 2284 737 2584 
Q 422 2884 422 3419 
Q 422 4038 858 4394 
Q 1294 4750 2059 4750 
Q 2388 4750 2728 4690 
Q 3069 4631 3425 4513 
z
" transform="scale(0.015625)"/>
      <path id="DejaVuSans-4d" d="M 628 4666 
L 1569 4666 
L 2759 1491 
L 3956 4666 
L 4897 4666 
L 4897 0 
L 4281 0 
L 4281 4097 
L 3078 897 
L 2444 897 
L 1241 4097 
L 1241 0 
L 628 0 
L 628 4666 
z
" transform="scale(0.015625)"/>
      <path id="DejaVuSans-61" d="M 2194 1759 
Q 1497 1759 1228 1600 
Q 959 1441 959 1056 
Q 959 750 1161 570 
Q 1363 391 1709 391 
Q 2188 391 2477 730 
Q 2766 1069 2766 1631 
L 2766 1759 
L 2194 1759 
z
M 3341 1997 
L 3341 0 
L 2766 0 
L 2766 531 
Q 2569 213 2275 61 
Q 1981 -91 1556 -91 
Q 1019 -91 701 211 
Q 384 513 384 1019 
Q 384 1609 779 1909 
Q 1175 2209 1959 2209 
L 2766 2209 
L 2766 2266 
Q 2766 2663 2505 2880 
Q 2244 3097 1772 3097 
Q 1472 3097 1187 3025 
Q 903 2953 641 2809 
L 641 3341 
Q 956 3463 1253 3523 
Q 1550 3584 1831 3584 
Q 2591 3584 2966 3190 
Q 3341 2797 3341 1997 
z
" transform="scale(0.015625)"/>
      <path id="DejaVuSans-64" d="M 2906 2969 
L 2906 4863 
L 3481 4863 
L 3481 0 
L 2906 0 
L 2906 525 
Q 2725 213 2448 61 
Q 2172 -91 1784 -91 
Q 1150 -91 751 415 
Q 353 922 353 1747 
Q 353 2572 751 3078 
Q 1150 3584 1784 3584 
Q 2172 3584 2448 3432 
Q 2725 3281 2906 2969 
z
M 947 1747 
Q 947 1113 1208 752 
Q 1469 391 1925 391 
Q 2381 391 2643 752 
Q 2906 1113 2906 1747 
Q 2906 2381 2643 2742 
Q 2381 3103 1925 3103 
Q 1469 3103 1208 2742 
Q 947 2381 947 1747 
z
" transform="scale(0.015625)"/>
      <path id="DejaVuSans-50" d="M 1259 4147 
L 1259 2394 
L 2053 2394 
Q 2494 2394 2734 2622 
Q 2975 2850 2975 3272 
Q 2975 3691 2734 3919 
Q 2494 4147 2053 4147 
L 1259 4147 
z
M 628 4666 
L 2053 4666 
Q 2838 4666 3239 4311 
Q 3641 3956 3641 3272 
Q 3641 2581 3239 2228 
Q 2838 1875 2053 1875 
L 1259 1875 
L 1259 0 
L 628 0 
L 628 4666 
z
" transform="scale(0.015625)"/>
      <path id="DejaVuSans-6c" d="M 603 4863 
L 1178 4863 
L 1178 0 
L 603 0 
L 603 4863 
z
" transform="scale(0.015625)"/>
      <path id="DejaVuSans-2c" d="M 750 794 
L 1409 794 
L 1409 256 
L 897 -744 
L 494 -744 
L 750 256 
L 750 794 
z
" transform="scale(0.015625)"/>
      <path id="DejaVuSans-79" d="M 2059 -325 
Q 1816 -950 1584 -1140 
Q 1353 -1331 966 -1331 
L 506 -1331 
L 506 -850 
L 844 -850 
Q 1081 -850 1212 -737 
Q 1344 -625 1503 -206 
L 1606 56 
L 191 3500 
L 800 3500 
L 1894 763 
L 2988 3500 
L 3597 3500 
L 2059 -325 
z
" transform="scale(0.015625)"/>
      <path id="DejaVuSans-2e" d="M 684 794 
L 1344 794 
L 1344 0 
L 684 0 
L 684 794 
z
" transform="scale(0.015625)"/>
      <path id="DejaVuSans-3a" d="M 750 794 
L 1409 794 
L 1409 0 
L 750 0 
L 750 794 
z
M 750 3309 
L 1409 3309 
L 1409 2516 
L 750 2516 
L 750 3309 
z
" transform="scale(0.015625)"/>
      <path id="DejaVuSans-2d" d="M 313 2009 
L 1997 2009 
L 1997 1497 
L 313 1497 
L 313 2009 
z
" transform="scale(0.015625)"/>
     </defs>
     <use xlink:href="#DejaVuSans-4e"/>
     <use xlink:href="#DejaVuSans-75" x="74.804688"/>
     <use xlink:href="#DejaVuSans-6d" x="138.183594"/>
     <use xlink:href="#DejaVuSans-62" x="235.595703"/>
     <use xlink:href="#DejaVuSans-65" x="299.072266"/>
     <use xlink:href="#DejaVuSans-72" x="360.595703"/>
     <use xlink:href="#DejaVuSans-20" x="401.708984"/>
     <use xlink:href="#DejaVuSans-6f" x="433.496094"/>
     <use xlink:href="#DejaVuSans-66" x="494.677734"/>
     <use xlink:href="#DejaVuSans-20" x="529.882812"/>
     <use xlink:href="#DejaVuSans-41" x="561.669922"/>
     <use xlink:href="#DejaVuSans-45" x="630.078125"/>
     <use xlink:href="#DejaVuSans-44" x="693.261719"/>
     <use xlink:href="#DejaVuSans-73" x="770.263672"/>
     <use xlink:href="#DejaVuSans-20" x="822.363281"/>
     <use xlink:href="#DejaVuSans-69" x="854.150391"/>
     <use xlink:href="#DejaVuSans-6e" x="881.933594"/>
     <use xlink:href="#DejaVuSans-20" x="945.3125"/>
     <use xlink:href="#DejaVuSans-74" x="977.099609"/>
     <use xlink:href="#DejaVuSans-68" x="1016.308594"/>
     <use xlink:href="#DejaVuSans-65" x="1079.6875"/>
     <use xlink:href="#DejaVuSans-20" x="1141.210938"/>
     <use xlink:href="#DejaVuSans-4f" x="1172.998047"/>
     <use xlink:href="#DejaVuSans-70" x="1251.708984"/>
     <use xlink:href="#DejaVuSans-65" x="1315.185547"/>
     <use xlink:href="#DejaVuSans-6e" x="1376.708984"/>
     <use xlink:href="#DejaVuSans-53" x="1440.087891"/>
     <use xlink:href="#DejaVuSans-74" x="1503.564453"/>
     <use xlink:href="#DejaVuSans-72" x="1542.773438"/>
     <use xlink:href="#DejaVuSans-65" x="1581.636719"/>
     <use xlink:href="#DejaVuSans-65" x="1643.160156"/>
     <use xlink:href="#DejaVuSans-74" x="1704.683594"/>
     <use xlink:href="#DejaVuSans-4d" x="1743.892578"/>
     <use xlink:href="#DejaVuSans-61" x="1830.171875"/>
     <use xlink:href="#DejaVuSans-70" x="1891.451172"/>
     <use xlink:href="#DejaVuSans-20" x="1954.927734"/>
     <use xlink:href="#DejaVuSans-64" x="1986.714844"/>
     <use xlink:href="#DejaVuSans-61" x="2050.191406"/>
     <use xlink:href="#DejaVuSans-74" x="2111.470703"/>
     <use xlink:href="#DejaVuSans-61" x="2150.679688"/>
     <use xlink:href="#DejaVuSans-62" x="2211.958984"/>
     <use xlink:href="#DejaVuSans-61" x="2275.435547"/>
     <use xlink:href="#DejaVuSans-73" x="2336.714844"/>
     <use xlink:href="#DejaVuSans-65" x="2388.814453"/>
     <use xlink:href="#DejaVuSans-20" x="2450.337891"/>
     <use xlink:href="#DejaVuSans-69" x="2482.125"/>
     <use xlink:href="#DejaVuSans-6e" x="2509.908203"/>
     <use xlink:href="#DejaVuSans-20" x="2573.287109"/>
     <use xlink:href="#DejaVuSans-50" x="2605.074219"/>
     <use xlink:href="#DejaVuSans-6f" x="2661.751953"/>
     <use xlink:href="#DejaVuSans-6c" x="2722.933594"/>
     <use xlink:href="#DejaVuSans-61" x="2750.716797"/>
     <use xlink:href="#DejaVuSans-6e" x="2811.996094"/>
     <use xlink:href="#DejaVuSans-64" x="2875.375"/>
     <use xlink:href="#DejaVuSans-20" x="2938.851562"/>
     <use xlink:href="#DejaVuSans-66" x="2970.638672"/>
     <use xlink:href="#DejaVuSans-72" x="3005.84375"/>
     <use xlink:href="#DejaVuSans-6f" x="3044.707031"/>
     <use xlink:href="#DejaVuSans-6d" x="3105.888672"/>
     <use xlink:href="#DejaVuSans-20" x="3203.300781"/>
     <use xlink:href="#DejaVuSans-66" x="3235.087891"/>
     <use xlink:href="#DejaVuSans-69" x="3270.292969"/>
     <use xlink:href="#DejaVuSans-72" x="3298.076172"/>
     <use xlink:href="#DejaVuSans-73" x="3339.189453"/>
     <use xlink:href="#DejaVuSans-74" x="3391.289062"/>
     <use xlink:href="#DejaVuSans-20" x="3430.498047"/>
     <use xlink:href="#DejaVuSans-65" x="3462.285156"/>
     <use xlink:href="#DejaVuSans-64" x="3523.808594"/>
     <use xlink:href="#DejaVuSans-69" x="3587.285156"/>
     <use xlink:href="#DejaVuSans-74" x="3615.068359"/>
     <use xlink:href="#DejaVuSans-69" x="3654.277344"/>
     <use xlink:href="#DejaVuSans-6f" x="3682.060547"/>
     <use xlink:href="#DejaVuSans-6e" x="3743.242188"/>
     <use xlink:href="#DejaVuSans-2c" x="3806.621094"/>
     <use xlink:href="#DejaVuSans-20" x="3838.408203"/>
     <use xlink:href="#DejaVuSans-64" x="3870.195312"/>
     <use xlink:href="#DejaVuSans-61" x="3933.671875"/>
     <use xlink:href="#DejaVuSans-79" x="3994.951172"/>
     <use xlink:href="#DejaVuSans-20" x="4054.130859"/>
     <use xlink:href="#DejaVuSans-62" x="4085.917969"/>
     <use xlink:href="#DejaVuSans-79" x="4149.394531"/>
     <use xlink:href="#DejaVuSans-20" x="4208.574219"/>
     <use xlink:href="#DejaVuSans-64" x="4240.361328"/>
     <use xlink:href="#DejaVuSans-61" x="4303.837891"/>
     <use xlink:href="#DejaVuSans-79" x="4365.117188"/>
     <use xlink:href="#DejaVuSans-2e" x="4410.046875"/>
     <use xlink:href="#DejaVuSans-20" x="4441.833984"/>
     <use xlink:href="#DejaVuSans-41" x="4473.621094"/>
     <use xlink:href="#DejaVuSans-73" x="4542.029297"/>
     <use xlink:href="#DejaVuSans-20" x="4594.128906"/>
     <use xlink:href="#DejaVuSans-61" x="4625.916016"/>
     <use xlink:href="#DejaVuSans-74" x="4687.195312"/>
     <use xlink:href="#DejaVuSans-3a" x="4726.404297"/>
     <use xlink:href="#DejaVuSans-20" x="4760.095703"/>
     <use xlink:href="#DejaVuSans-32" x="4791.882812"/>
     <use xlink:href="#DejaVuSans-30" x="4855.505859"/>
     <use xlink:href="#DejaVuSans-32" x="4919.128906"/>
     <use xlink:href="#DejaVuSans-34" x="4982.751953"/>
     <use xlink:href="#DejaVuSans-2d" x="5046.375"/>
     <use xlink:href="#DejaVuSans-30" x="5082.458984"/>
     <use xlink:href="#DejaVuSans-32" x="5146.082031"/>
     <use xlink:href="#DejaVuSans-2d" x="5209.705078"/>
     <use xlink:href="#DejaVuSans-30" x="5245.789062"/>
     <use xlink:href="#DejaVuSans-35" x="5309.412109"/>
    </g>
   </g>
  </g>
 </g>
 <defs>
  <clipPath id="p23326cdf0d">
   <rect x="144" y="69.12" width="892.8" height="443.52"/>
  </clipPath>
 </defs>
</svg>
