<?xml version="1.0" encoding="utf-8" standalone="no"?>
<!DOCTYPE svg PUBLIC "-//W3C//DTD SVG 1.1//EN"
  "http://www.w3.org/Graphics/SVG/1.1/DTD/svg11.dtd">
<svg xmlns:xlink="http://www.w3.org/1999/xlink" width="1152pt" height="576pt" viewBox="0 0 1152 576" xmlns="http://www.w3.org/2000/svg" version="1.1">
 <metadata>
  <rdf:RDF xmlns:dc="http://purl.org/dc/elements/1.1/" xmlns:cc="http://creativecommons.org/ns#" xmlns:rdf="http://www.w3.org/1999/02/22-rdf-syntax-ns#">
   <cc:Work>
    <dc:type rdf:resource="http://purl.org/dc/dcmitype/StillImage"/>
    <dc:date>1980-01-01T00:00:00+00:00</dc:date>
    <dc:format>image/svg+xml</dc:format>
    <dc:creator>
     <cc:Agent>
      <dc:title>Matplotlib v3.9.1, https://matplotlib.org/</dc:title>
     </cc:Agent>
    </dc:creator>
   </cc:Work>
  </rdf:RDF>
 </metadata>
 <defs>
  <style type="text/css">*{stroke-linejoin: round; stroke-linecap: butt}</style>
 </defs>
 <g id="figure_1">
  <g id="patch_1">
   <path d="M 0 576 
L 1152 576 
L 1152 0 
L 0 0 
z
" style="fill: #ffffff"/>
  </g>
  <g id="axes_1">
   <g id="patch_2">
    <path d="M 144 512.64 
L 1036.8 512.64 
L 1036.8 69.12 
L 144 69.12 
z
" style="fill: #ffffff"/>
   </g>
   <g id="matplotlib.axis_1">
    <g id="xtick_1">
     <g id="line2d_1">
      <defs>
       <path id="me486ac9b9d" d="M 0 0 
L 0 3.5 
" style="stroke: #000000; stroke-width: 0.8"/>
      </defs>
      <g>
       <use xlink:href="#me486ac9b9d" x="176.788862" y="512.64" style="stroke: #000000; stroke-width: 0.8"/>
      </g>
     </g>
     <g id="text_1">
      <!-- 2014 -->
      <g transform="translate(164.063862 527.238438) scale(0.1 -0.1)">
       <defs>
        <path id="DejaVuSans-32" d="M 1228 531 
L 3431 531 
L 3431 0 
L 469 0 
L 469 531 
Q 828 903 1448 1529 
Q 2069 2156 2228 2338 
Q 2531 2678 2651 2914 
Q 2772 3150 2772 3378 
Q 2772 3750 2511 3984 
Q 2250 4219 1831 4219 
Q 1534 4219 1204 4116 
Q 875 4013 500 3803 
L 500 4441 
Q 881 4594 1212 4672 
Q 1544 4750 1819 4750 
Q 2544 4750 2975 4387 
Q 3406 4025 3406 3419 
Q 3406 3131 3298 2873 
Q 3191 2616 2906 2266 
Q 2828 2175 2409 1742 
Q 1991 1309 1228 531 
z
" transform="scale(0.015625)"/>
        <path id="DejaVuSans-30" d="M 2034 4250 
Q 1547 4250 1301 3770 
Q 1056 3291 1056 2328 
Q 1056 1369 1301 889 
Q 1547 409 2034 409 
Q 2525 409 2770 889 
Q 3016 1369 3016 2328 
Q 3016 3291 2770 3770 
Q 2525 4250 2034 4250 
z
M 2034 4750 
Q 2819 4750 3233 4129 
Q 3647 3509 3647 2328 
Q 3647 1150 3233 529 
Q 2819 -91 2034 -91 
Q 1250 -91 836 529 
Q 422 1150 422 2328 
Q 422 3509 836 4129 
Q 1250 4750 2034 4750 
z
" transform="scale(0.015625)"/>
        <path id="DejaVuSans-31" d="M 794 531 
L 1825 531 
L 1825 4091 
L 703 3866 
L 703 4441 
L 1819 4666 
L 2450 4666 
L 2450 531 
L 3481 531 
L 3481 0 
L 794 0 
L 794 531 
z
" transform="scale(0.015625)"/>
        <path id="DejaVuSans-34" d="M 2419 4116 
L 825 1625 
L 2419 1625 
L 2419 4116 
z
M 2253 4666 
L 3047 4666 
L 3047 1625 
L 3713 1625 
L 3713 1100 
L 3047 1100 
L 3047 0 
L 2419 0 
L 2419 1100 
L 313 1100 
L 313 1709 
L 2253 4666 
z
" transform="scale(0.015625)"/>
       </defs>
       <use xlink:href="#DejaVuSans-32"/>
       <use xlink:href="#DejaVuSans-30" x="63.623047"/>
       <use xlink:href="#DejaVuSans-31" x="127.246094"/>
       <use xlink:href="#DejaVuSans-34" x="190.869141"/>
      </g>
     </g>
    </g>
    <g id="xtick_2">
     <g id="line2d_2">
      <g>
       <use xlink:href="#me486ac9b9d" x="319.010309" y="512.64" style="stroke: #000000; stroke-width: 0.8"/>
      </g>
     </g>
     <g id="text_2">
      <!-- 2016 -->
      <g transform="translate(306.285309 527.238438) scale(0.1 -0.1)">
       <defs>
        <path id="DejaVuSans-36" d="M 2113 2584 
Q 1688 2584 1439 2293 
Q 1191 2003 1191 1497 
Q 1191 994 1439 701 
Q 1688 409 2113 409 
Q 2538 409 2786 701 
Q 3034 994 3034 1497 
Q 3034 2003 2786 2293 
Q 2538 2584 2113 2584 
z
M 3366 4563 
L 3366 3988 
Q 3128 4100 2886 4159 
Q 2644 4219 2406 4219 
Q 1781 4219 1451 3797 
Q 1122 3375 1075 2522 
Q 1259 2794 1537 2939 
Q 1816 3084 2150 3084 
Q 2853 3084 3261 2657 
Q 3669 2231 3669 1497 
Q 3669 778 3244 343 
Q 2819 -91 2113 -91 
Q 1303 -91 875 529 
Q 447 1150 447 2328 
Q 447 3434 972 4092 
Q 1497 4750 2381 4750 
Q 2619 4750 2861 4703 
Q 3103 4656 3366 4563 
z
" transform="scale(0.015625)"/>
       </defs>
       <use xlink:href="#DejaVuSans-32"/>
       <use xlink:href="#DejaVuSans-30" x="63.623047"/>
       <use xlink:href="#DejaVuSans-31" x="127.246094"/>
       <use xlink:href="#DejaVuSans-36" x="190.869141"/>
      </g>
     </g>
    </g>
    <g id="xtick_3">
     <g id="line2d_3">
      <g>
       <use xlink:href="#me486ac9b9d" x="461.426579" y="512.64" style="stroke: #000000; stroke-width: 0.8"/>
      </g>
     </g>
     <g id="text_3">
      <!-- 2018 -->
      <g transform="translate(448.701579 527.238438) scale(0.1 -0.1)">
       <defs>
        <path id="DejaVuSans-38" d="M 2034 2216 
Q 1584 2216 1326 1975 
Q 1069 1734 1069 1313 
Q 1069 891 1326 650 
Q 1584 409 2034 409 
Q 2484 409 2743 651 
Q 3003 894 3003 1313 
Q 3003 1734 2745 1975 
Q 2488 2216 2034 2216 
z
M 1403 2484 
Q 997 2584 770 2862 
Q 544 3141 544 3541 
Q 544 4100 942 4425 
Q 1341 4750 2034 4750 
Q 2731 4750 3128 4425 
Q 3525 4100 3525 3541 
Q 3525 3141 3298 2862 
Q 3072 2584 2669 2484 
Q 3125 2378 3379 2068 
Q 3634 1759 3634 1313 
Q 3634 634 3220 271 
Q 2806 -91 2034 -91 
Q 1263 -91 848 271 
Q 434 634 434 1313 
Q 434 1759 690 2068 
Q 947 2378 1403 2484 
z
M 1172 3481 
Q 1172 3119 1398 2916 
Q 1625 2713 2034 2713 
Q 2441 2713 2670 2916 
Q 2900 3119 2900 3481 
Q 2900 3844 2670 4047 
Q 2441 4250 2034 4250 
Q 1625 4250 1398 4047 
Q 1172 3844 1172 3481 
z
" transform="scale(0.015625)"/>
       </defs>
       <use xlink:href="#DejaVuSans-32"/>
       <use xlink:href="#DejaVuSans-30" x="63.623047"/>
       <use xlink:href="#DejaVuSans-31" x="127.246094"/>
       <use xlink:href="#DejaVuSans-38" x="190.869141"/>
      </g>
     </g>
    </g>
    <g id="xtick_4">
     <g id="line2d_4">
      <g>
       <use xlink:href="#me486ac9b9d" x="603.648025" y="512.64" style="stroke: #000000; stroke-width: 0.8"/>
      </g>
     </g>
     <g id="text_4">
      <!-- 2020 -->
      <g transform="translate(590.923025 527.238438) scale(0.1 -0.1)">
       <use xlink:href="#DejaVuSans-32"/>
       <use xlink:href="#DejaVuSans-30" x="63.623047"/>
       <use xlink:href="#DejaVuSans-32" x="127.246094"/>
       <use xlink:href="#DejaVuSans-30" x="190.869141"/>
      </g>
     </g>
    </g>
    <g id="xtick_5">
     <g id="line2d_5">
      <g>
       <use xlink:href="#me486ac9b9d" x="746.064295" y="512.64" style="stroke: #000000; stroke-width: 0.8"/>
      </g>
     </g>
     <g id="text_5">
      <!-- 2022 -->
      <g transform="translate(733.339295 527.238438) scale(0.1 -0.1)">
       <use xlink:href="#DejaVuSans-32"/>
       <use xlink:href="#DejaVuSans-30" x="63.623047"/>
       <use xlink:href="#DejaVuSans-32" x="127.246094"/>
       <use xlink:href="#DejaVuSans-32" x="190.869141"/>
      </g>
     </g>
    </g>
    <g id="xtick_6">
     <g id="line2d_6">
      <g>
       <use xlink:href="#me486ac9b9d" x="888.285742" y="512.64" style="stroke: #000000; stroke-width: 0.8"/>
      </g>
     </g>
     <g id="text_6">
      <!-- 2024 -->
      <g transform="translate(875.560742 527.238438) scale(0.1 -0.1)">
       <use xlink:href="#DejaVuSans-32"/>
       <use xlink:href="#DejaVuSans-30" x="63.623047"/>
       <use xlink:href="#DejaVuSans-32" x="127.246094"/>
       <use xlink:href="#DejaVuSans-34" x="190.869141"/>
      </g>
     </g>
    </g>
    <g id="xtick_7">
     <g id="line2d_7">
      <g>
       <use xlink:href="#me486ac9b9d" x="1030.702012" y="512.64" style="stroke: #000000; stroke-width: 0.8"/>
      </g>
     </g>
     <g id="text_7">
      <!-- 2026 -->
      <g transform="translate(1017.977012 527.238438) scale(0.1 -0.1)">
       <use xlink:href="#DejaVuSans-32"/>
       <use xlink:href="#DejaVuSans-30" x="63.623047"/>
       <use xlink:href="#DejaVuSans-32" x="127.246094"/>
       <use xlink:href="#DejaVuSans-36" x="190.869141"/>
      </g>
     </g>
    </g>
   </g>
   <g id="matplotlib.axis_2">
    <g id="ytick_1">
     <g id="line2d_8">
      <defs>
       <path id="m4fb75e850c" d="M 0 0 
L -3.5 0 
" style="stroke: #000000; stroke-width: 0.8"/>
      </defs>
      <g>
       <use xlink:href="#m4fb75e850c" x="144" y="492.515443" style="stroke: #000000; stroke-width: 0.8"/>
      </g>
     </g>
     <g id="text_8">
      <!-- 0 -->
      <g transform="translate(130.6375 496.314662) scale(0.1 -0.1)">
       <use xlink:href="#DejaVuSans-30"/>
      </g>
     </g>
    </g>
    <g id="ytick_2">
     <g id="line2d_9">
      <g>
       <use xlink:href="#m4fb75e850c" x="144" y="421.629367" style="stroke: #000000; stroke-width: 0.8"/>
      </g>
     </g>
     <g id="text_9">
      <!-- 2000 -->
      <g transform="translate(111.55 425.428586) scale(0.1 -0.1)">
       <use xlink:href="#DejaVuSans-32"/>
       <use xlink:href="#DejaVuSans-30" x="63.623047"/>
       <use xlink:href="#DejaVuSans-30" x="127.246094"/>
       <use xlink:href="#DejaVuSans-30" x="190.869141"/>
      </g>
     </g>
    </g>
    <g id="ytick_3">
     <g id="line2d_10">
      <g>
       <use xlink:href="#m4fb75e850c" x="144" y="350.743291" style="stroke: #000000; stroke-width: 0.8"/>
      </g>
     </g>
     <g id="text_10">
      <!-- 4000 -->
      <g transform="translate(111.55 354.54251) scale(0.1 -0.1)">
       <use xlink:href="#DejaVuSans-34"/>
       <use xlink:href="#DejaVuSans-30" x="63.623047"/>
       <use xlink:href="#DejaVuSans-30" x="127.246094"/>
       <use xlink:href="#DejaVuSans-30" x="190.869141"/>
      </g>
     </g>
    </g>
    <g id="ytick_4">
     <g id="line2d_11">
      <g>
       <use xlink:href="#m4fb75e850c" x="144" y="279.857215" style="stroke: #000000; stroke-width: 0.8"/>
      </g>
     </g>
     <g id="text_11">
      <!-- 6000 -->
      <g transform="translate(111.55 283.656434) scale(0.1 -0.1)">
       <use xlink:href="#DejaVuSans-36"/>
       <use xlink:href="#DejaVuSans-30" x="63.623047"/>
       <use xlink:href="#DejaVuSans-30" x="127.246094"/>
       <use xlink:href="#DejaVuSans-30" x="190.869141"/>
      </g>
     </g>
    </g>
    <g id="ytick_5">
     <g id="line2d_12">
      <g>
       <use xlink:href="#m4fb75e850c" x="144" y="208.971139" style="stroke: #000000; stroke-width: 0.8"/>
      </g>
     </g>
     <g id="text_12">
      <!-- 8000 -->
      <g transform="translate(111.55 212.770358) scale(0.1 -0.1)">
       <use xlink:href="#DejaVuSans-38"/>
       <use xlink:href="#DejaVuSans-30" x="63.623047"/>
       <use xlink:href="#DejaVuSans-30" x="127.246094"/>
       <use xlink:href="#DejaVuSans-30" x="190.869141"/>
      </g>
     </g>
    </g>
    <g id="ytick_6">
     <g id="line2d_13">
      <g>
       <use xlink:href="#m4fb75e850c" x="144" y="138.085063" style="stroke: #000000; stroke-width: 0.8"/>
      </g>
     </g>
     <g id="text_13">
      <!-- 10000 -->
      <g transform="translate(105.1875 141.884282) scale(0.1 -0.1)">
       <use xlink:href="#DejaVuSans-31"/>
       <use xlink:href="#DejaVuSans-30" x="63.623047"/>
       <use xlink:href="#DejaVuSans-30" x="127.246094"/>
       <use xlink:href="#DejaVuSans-30" x="190.869141"/>
       <use xlink:href="#DejaVuSans-30" x="254.492188"/>
      </g>
     </g>
    </g>
   </g>
   <g id="line2d_14">
    <path d="M 184.581818 492.48 
L 186.335233 492.409114 
L 308.10017 492.196456 
L 450.711264 492.019241 
L 503.703365 491.806582 
L 517.535862 491.700253 
L 550.655925 491.523038 
L 552.214516 491.452152 
L 561.176415 491.345823 
L 603.842849 491.133165 
L 610.077214 491.062278 
L 610.466862 490.778734 
L 614.558163 490.601519 
L 648.84717 490.459747 
L 652.743648 490.353418 
L 666.770968 490.211646 
L 676.512163 490.140759 
L 690.34466 489.928101 
L 694.046314 489.786329 
L 703.592685 489.573671 
L 707.099516 489.396456 
L 708.073635 489.32557 
L 709.437402 489.148354 
L 716.840711 488.935696 
L 717.035534 488.900253 
L 721.126836 488.758481 
L 727.556025 488.297722 
L 737.686868 488.04962 
L 742.362641 486.596456 
L 742.557465 486.454684 
L 744.31088 486.277468 
L 745.090176 485.71038 
L 745.285 484.824304 
L 745.674648 484.611646 
L 745.869471 484.576203 
L 746.064295 483.371139 
L 747.233239 482.874937 
L 747.622887 482.272405 
L 748.012534 482.024304 
L 748.207358 481.457215 
L 748.402182 480.004051 
L 748.597006 479.64962 
L 748.79183 478.905316 
L 748.986654 477.700253 
L 749.376302 474.758481 
L 749.765949 473.801519 
L 749.960773 469.052152 
L 750.155597 467.138228 
L 750.350421 466.393924 
L 750.545245 462.920506 
L 751.129717 458.950886 
L 751.324541 458.844557 
L 751.714188 456.824304 
L 751.909012 456.150886 
L 752.103836 450.976203 
L 752.29866 450.515443 
L 752.688308 448.814177 
L 752.883132 448.707848 
L 753.077956 447.821772 
L 753.27278 444.100253 
L 753.467604 443.178734 
L 753.662427 443.107848 
L 753.857251 440.343291 
L 754.052075 439.776203 
L 754.441723 439.598987 
L 755.221019 436.905316 
L 755.610666 436.196456 
L 756.000314 434.105316 
L 756.195138 433.290127 
L 756.389962 429.285063 
L 756.974434 424.890127 
L 757.558905 424.677468 
L 757.948553 424.429367 
L 758.727849 422.940759 
L 759.117497 422.798987 
L 759.507144 419.750886 
L 759.701968 419.715443 
L 760.091616 419.183797 
L 760.28644 417.659747 
L 760.481264 417.23443 
L 760.676088 417.092658 
L 760.870912 416.738228 
L 761.065736 416.135696 
L 761.650207 415.887595 
L 761.845031 415.639494 
L 762.429503 413.406582 
L 762.624327 413.26481 
L 763.013975 412.697722 
L 763.79327 412.307848 
L 763.988094 410.854684 
L 764.182918 410.748354 
L 764.377742 410.46481 
L 764.572566 407.629367 
L 764.962214 407.523038 
L 765.351861 406.778734 
L 765.546685 406.069873 
L 766.131157 405.928101 
L 766.715629 404.829367 
L 766.910453 404.793924 
L 767.3001 404.191392 
L 767.689748 404.04962 
L 767.884572 400.788861 
L 769.053515 400.505316 
L 769.443163 400.221772 
L 770.222459 400.115443 
L 770.417283 399.902785 
L 772.75517 399.193924 
L 773.534465 398.626835 
L 774.508585 398.485063 
L 774.898232 398.201519 
L 775.28788 398.059747 
L 777.236119 397.528101 
L 778.015415 394.515443 
L 778.989534 394.373671 
L 779.184358 394.302785 
L 780.742949 394.12557 
L 781.327421 393.912911 
L 781.522245 393.31038 
L 782.496365 393.239494 
L 783.080836 392.920506 
L 784.054956 392.566076 
L 784.24978 392.530633 
L 784.639427 392.140759 
L 785.029075 392.03443 
L 785.223899 391.786329 
L 786.003195 391.502785 
L 786.977314 391.361013 
L 787.172138 391.112911 
L 787.561786 391.077468 
L 787.75661 390.474937 
L 787.951434 390.404051 
L 788.146258 389.588861 
L 790.484144 389.057215 
L 791.068616 388.915443 
L 791.26344 388.490127 
L 792.627207 388.135696 
L 793.211679 387.923038 
L 793.990975 387.745823 
L 794.77027 387.533165 
L 795.74439 387.320506 
L 796.328861 387.143291 
L 797.692629 386.328101 
L 797.887453 385.619241 
L 798.861572 384.804051 
L 799.056396 384.44962 
L 800.030515 383.598987 
L 800.420163 382.854684 
L 800.614987 382.819241 
L 800.809811 382.11038 
L 801.589107 381.047089 
L 801.978754 380.869873 
L 802.368402 380.798987 
L 802.563226 380.48 
L 802.952874 380.302785 
L 803.147698 379.948354 
L 804.121817 379.66481 
L 804.316641 379.345823 
L 805.680409 379.026835 
L 806.070056 378.84962 
L 806.26488 378.814177 
L 806.459704 378.636962 
L 807.433824 378.49519 
L 808.797591 377.857215 
L 809.382063 377.715443 
L 809.77171 376.900253 
L 810.161358 376.652152 
L 811.135478 375.836962 
L 811.330302 375.021772 
L 812.109597 374.773671 
L 813.278541 374.383797 
L 813.863012 373.639494 
L 814.25266 373.426835 
L 814.447484 373.391392 
L 814.837132 372.824304 
L 815.421603 372.611646 
L 815.811251 372.292658 
L 816.395723 372.009114 
L 816.785371 368.039494 
L 816.980195 366.728101 
L 817.175019 364.530633 
L 817.369842 364.247089 
L 818.149138 361.517975 
L 818.538786 360.809114 
L 818.73361 360.702785 
L 818.928434 360.454684 
L 819.123258 359.993924 
L 819.318081 358.398987 
L 819.512905 358.009114 
L 819.902553 357.867342 
L 821.071497 355.457215 
L 821.26632 355.28 
L 821.461144 354.323038 
L 821.655968 353.968608 
L 822.045616 353.047089 
L 822.435264 352.48 
L 823.214559 352.019241 
L 823.409383 351.806582 
L 823.604207 350.636962 
L 823.993855 350.459747 
L 824.383503 350.069873 
L 824.967975 349.254684 
L 825.162798 348.51038 
L 825.357622 348.474937 
L 825.942094 347.766076 
L 826.331742 347.69519 
L 826.526566 347.340759 
L 826.916214 347.092658 
L 827.111037 346.809114 
L 827.890333 344.044557 
L 828.085157 342.591392 
L 828.474805 341.847089 
L 828.669629 341.705316 
L 828.864452 341.386329 
L 829.448924 341.031899 
L 829.643748 340.677468 
L 830.033396 339.29519 
L 831.202339 338.657215 
L 831.591987 337.806582 
L 831.786811 337.66481 
L 832.76093 336.069873 
L 833.150578 335.857215 
L 833.929874 335.609114 
L 834.514346 334.474937 
L 835.293641 334.226835 
L 836.072937 333.305316 
L 836.462585 333.23443 
L 836.852232 332.809114 
L 837.436704 332.561013 
L 837.826352 332.490127 
L 838.021176 332.277468 
L 838.216 331.604051 
L 838.995295 331.355949 
L 839.190119 331.001519 
L 839.384943 330.966076 
L 839.579767 330.328101 
L 840.164239 330.08 
L 840.74871 329.938228 
L 841.138358 329.548354 
L 842.112478 329.052152 
L 842.502125 328.697722 
L 842.891773 328.44962 
L 843.281421 328.414177 
L 843.476245 327.457215 
L 843.865893 327.138228 
L 844.450364 326.854684 
L 845.034836 326.500253 
L 845.814132 326.358481 
L 846.008956 325.366076 
L 847.762371 324.409114 
L 848.152019 324.338228 
L 848.346842 324.019241 
L 849.126138 323.700253 
L 849.320962 323.31038 
L 849.71061 323.274937 
L 850.100257 323.026835 
L 850.684729 322.707848 
L 850.879553 322.211646 
L 851.658849 321.821772 
L 851.853673 321.538228 
L 852.24332 321.431899 
L 852.438144 321.183797 
L 853.022616 320.86481 
L 853.21744 320.545823 
L 853.412264 320.474937 
L 853.801912 320.191392 
L 854.191559 320.014177 
L 854.386383 319.801519 
L 855.555327 319.411646 
L 855.750151 318.986329 
L 855.944974 318.88 
L 856.919094 318.631899 
L 857.308742 318.312911 
L 857.69839 318.171139 
L 858.282861 317.993924 
L 858.477685 317.674937 
L 858.867333 317.604051 
L 859.062157 316.966076 
L 859.256981 316.824304 
L 859.646629 316.363544 
L 859.841452 315.300253 
L 860.2311 315.052152 
L 860.425924 314.91038 
L 860.620748 314.591392 
L 861.010396 314.343291 
L 861.789691 313.63443 
L 862.179339 313.457215 
L 862.374163 313.031899 
L 862.568987 312.961013 
L 862.958635 312.535696 
L 863.348283 312.287595 
L 863.932754 312.074937 
L 864.322402 311.614177 
L 866.465465 309.735696 
L 867.439585 309.487595 
L 868.024056 308.743291 
L 868.413704 308.317975 
L 868.998176 307.963544 
L 869.777471 307.644557 
L 869.972295 307.467342 
L 870.751591 307.148354 
L 871.141239 306.793924 
L 871.72571 306.581266 
L 872.310182 306.226835 
L 872.894654 305.978734 
L 873.089478 305.801519 
L 875.23254 304.915443 
L 875.427364 304.561013 
L 876.791132 303.993924 
L 877.375603 303.604051 
L 877.960075 303.320506 
L 878.154899 303.107848 
L 878.934195 302.89519 
L 879.129018 302.398987 
L 879.323842 300.804051 
L 879.71349 300.378734 
L 879.908314 300.343291 
L 881.077257 298.783797 
L 881.466905 297.720506 
L 881.856553 297.366076 
L 882.246201 297.117975 
L 882.635849 297.011646 
L 882.830673 296.728101 
L 883.22032 296.515443 
L 883.609968 296.161013 
L 883.999616 295.983797 
L 884.19444 295.912911 
L 884.389264 295.558481 
L 884.778912 295.416709 
L 884.973735 294.991392 
L 885.558207 294.778734 
L 885.947855 294.247089 
L 886.532327 293.786329 
L 886.921974 293.396456 
L 887.506446 293.290127 
L 887.70127 292.971139 
L 888.285742 292.758481 
L 888.67539 291.198987 
L 889.065037 290.844557 
L 890.233981 290.206582 
L 890.428805 289.639494 
L 890.818452 289.426835 
L 891.013276 288.930633 
L 891.2081 288.824304 
L 891.597748 288.398987 
L 891.987396 288.115443 
L 892.377044 287.938228 
L 893.156339 287.335696 
L 893.351163 287.26481 
L 894.130459 286.768608 
L 894.520106 285.882532 
L 894.71493 285.776203 
L 895.104578 285.705316 
L 895.299402 285.315443 
L 895.68905 285.138228 
L 896.078698 284.92557 
L 896.273522 284.287595 
L 897.052817 283.826835 
L 897.247641 283.188861 
L 898.026937 282.515443 
L 898.221761 282.48 
L 898.611408 281.948354 
L 899.001056 281.629367 
L 899.19588 281.558481 
L 899.390704 281.204051 
L 899.780352 281.062278 
L 899.975176 280.388861 
L 900.364823 280.282532 
L 900.559647 279.963544 
L 900.754471 279.892658 
L 900.949295 279.148354 
L 901.338943 279.042025 
L 901.728591 278.793924 
L 902.118239 278.226835 
L 902.313062 278.085063 
L 903.092358 276.88 
L 903.287182 276.809114 
L 903.67683 276.383797 
L 904.456125 275.816709 
L 905.040597 275.533165 
L 906.794012 273.690127 
L 907.18366 273.548354 
L 907.573308 273.123038 
L 907.962956 272.981266 
L 908.157779 272.130633 
L 908.742251 271.563544 
L 908.937075 270.854684 
L 909.326723 270.46481 
L 909.521547 270.074937 
L 909.716371 270.039494 
L 910.69049 269.082532 
L 911.274962 268.728101 
L 911.469786 268.409114 
L 912.638729 268.019241 
L 913.223201 267.274937 
L 913.612849 266.601519 
L 914.002496 266.459747 
L 914.392144 266.03443 
L 914.586968 265.786329 
L 914.781792 265.750886 
L 914.976616 265.32557 
L 915.755911 264.793924 
L 916.535207 264.226835 
L 916.730031 264.191392 
L 917.70415 263.411646 
L 918.288622 263.128101 
L 918.483446 262.773671 
L 918.873094 262.702785 
L 919.457566 262.100253 
L 919.652389 261.781266 
L 920.236861 261.497722 
L 920.821333 261.107848 
L 921.210981 260.966076 
L 921.600628 260.540759 
L 922.574748 259.973671 
L 922.769572 259.72557 
L 923.548867 259.371139 
L 923.743691 257.740759 
L 924.717811 257.031899 
L 925.497106 255.614177 
L 925.69193 255.472405 
L 925.886754 255.011646 
L 926.276402 254.83443 
L 927.055698 253.593924 
L 927.445345 251.928101 
L 927.640169 251.361013 
L 928.029817 248.702785 
L 928.224641 247.639494 
L 929.198761 246.363544 
L 929.978056 243.173671 
L 930.17288 242.996456 
L 930.367704 242.500253 
L 930.562528 240.763544 
L 930.757352 240.12557 
L 930.952176 240.054684 
L 931.147 239.274937 
L 931.731471 238.778734 
L 932.121119 237.431899 
L 933.095239 236.900253 
L 933.290062 236.545823 
L 934.264182 236.014177 
L 934.65383 235.588861 
L 934.848654 235.198987 
L 935.043478 234.206582 
L 935.238301 233.816709 
L 935.627949 233.674937 
L 936.017597 233.497722 
L 936.407245 233.214177 
L 936.796893 232.930633 
L 937.18654 232.859747 
L 937.576188 232.647089 
L 937.965836 232.398987 
L 938.16066 232.257215 
L 938.550308 232.221772 
L 941.862314 229.350886 
L 942.057138 229.244557 
L 942.251962 228.393924 
L 942.836433 227.791392 
L 943.226081 227.685063 
L 944.395025 226.692658 
L 944.784672 226.515443 
L 944.979496 226.444557 
L 945.369144 226.019241 
L 945.758792 225.912911 
L 945.953616 225.416709 
L 946.14844 225.239494 
L 946.343264 224.672405 
L 946.732911 224.424304 
L 947.317383 222.971139 
L 947.512207 222.262278 
L 948.096679 221.836962 
L 948.68115 221.021772 
L 949.070798 219.639494 
L 949.265622 219.214177 
L 949.460446 218.469873 
L 949.65527 218.398987 
L 949.850094 217.796456 
L 950.239742 217.548354 
L 951.408685 216.307848 
L 951.603509 215.811646 
L 951.993157 215.669873 
L 952.187981 215.457215 
L 952.382805 214.961013 
L 953.1621 214.642025 
L 953.356924 214.393924 
L 953.551748 214.358481 
L 953.746572 213.614177 
L 954.13622 213.366076 
L 954.331044 212.869873 
L 954.525867 212.728101 
L 954.915515 212.692658 
L 956.084459 211.771139 
L 956.66893 211.31038 
L 957.058578 210.84962 
L 957.448226 210.459747 
L 957.64305 210.069873 
L 957.837874 209.290127 
L 959.006817 208.616709 
L 959.396465 207.69519 
L 959.786113 207.517975 
L 959.980937 206.986329 
L 960.17576 206.88 
L 960.955056 205.923038 
L 961.929176 205.285063 
L 963.098119 204.08 
L 963.682591 203.300253 
L 964.65671 200.783797 
L 965.63083 195.573671 
L 965.825654 195.290127 
L 966.020477 194.758481 
L 966.215301 192.809114 
L 966.410125 189.087595 
L 966.604949 187.63443 
L 966.799773 185.29519 
L 966.994597 184.657215 
L 967.384245 181.998987 
L 967.773893 178.383797 
L 968.16354 173.457215 
L 968.553188 172.712911 
L 968.942836 166.368608 
L 969.13766 164.702785 
L 969.527308 157.472405 
L 969.916955 156.090127 
L 970.111779 152.474937 
L 970.306603 151.624304 
L 970.696251 147.619241 
L 971.085899 136.809114 
L 971.475547 135.143291 
L 971.670371 131.811646 
L 971.865194 131.457215 
L 972.254842 126.03443 
L 972.449666 125.928101 
L 972.64449 125.573671 
L 973.034138 124.297722 
L 973.228962 123.978734 
L 973.423786 123.376203 
L 973.61861 122.242025 
L 974.008257 122.029367 
L 974.203081 121.462278 
L 974.592729 119.690127 
L 974.982377 116.145823 
L 975.177201 115.366076 
L 975.372025 115.29519 
L 975.566849 114.976203 
L 976.540968 111.928101 
L 976.735792 111.786329 
L 976.930616 111.042025 
L 977.320264 110.687595 
L 977.515088 110.545823 
L 977.709911 110.014177 
L 977.904735 109.836962 
L 978.684031 108.631899 
L 979.268503 107.993924 
L 979.463326 107.923038 
L 980.437446 106.505316 
L 980.827094 106.328101 
L 981.411565 106.257215 
L 981.801213 105.72557 
L 982.190861 105.619241 
L 982.775333 104.874937 
L 983.554628 104.414177 
L 984.333924 103.421772 
L 984.528748 102.890127 
L 985.308043 102.642025 
L 985.697691 102.252152 
L 986.087339 101.543291 
L 986.476987 101.224304 
L 986.671811 100.976203 
L 986.866635 99.948354 
L 987.256282 99.274937 
L 987.840754 99.026835 
L 988.230402 98.707848 
L 988.62005 98.317975 
L 989.009698 97.963544 
L 989.594169 97.396456 
L 989.788993 97.219241 
L 989.983817 96.368608 
L 990.568289 95.943291 
L 991.347584 94.986329 
L 991.737232 94.667342 
L 992.711352 93.745823 
L 993.100999 93.568608 
L 993.295823 93.391392 
L 993.880295 93.178734 
L 994.269943 91.831899 
L 994.464767 91.72557 
L 995.049238 90.768608 
L 995.63371 90.09519 
L 995.828534 89.988861 
L 996.218182 89.28 
L 996.218182 89.28 
" clip-path="url(#p5c5c7e03be)" style="fill: none; stroke: #1f77b4; stroke-width: 1.5; stroke-linecap: square"/>
   </g>
   <g id="patch_3">
    <path d="M 144 512.64 
L 144 69.12 
" style="fill: none; stroke: #000000; stroke-width: 0.8; stroke-linejoin: miter; stroke-linecap: square"/>
   </g>
   <g id="patch_4">
    <path d="M 1036.8 512.64 
L 1036.8 69.12 
" style="fill: none; stroke: #000000; stroke-width: 0.8; stroke-linejoin: miter; stroke-linecap: square"/>
   </g>
   <g id="patch_5">
    <path d="M 144 512.64 
L 1036.8 512.64 
" style="fill: none; stroke: #000000; stroke-width: 0.8; stroke-linejoin: miter; stroke-linecap: square"/>
   </g>
   <g id="patch_6">
    <path d="M 144 69.12 
L 1036.8 69.12 
" style="fill: none; stroke: #000000; stroke-width: 0.8; stroke-linejoin: miter; stroke-linecap: square"/>
   </g>
   <g id="text_14">
    <!-- Number of AEDs in the OpenStreetMap database in Poland from first edition, day by day. As at: 2025-07-08 -->
    <g transform="translate(144 63.12) scale(0.14 -0.14)">
     <defs>
      <path id="DejaVuSans-4e" d="M 628 4666 
L 1478 4666 
L 3547 763 
L 3547 4666 
L 4159 4666 
L 4159 0 
L 3309 0 
L 1241 3903 
L 1241 0 
L 628 0 
L 628 4666 
z
" transform="scale(0.015625)"/>
      <path id="DejaVuSans-75" d="M 544 1381 
L 544 3500 
L 1119 3500 
L 1119 1403 
Q 1119 906 1312 657 
Q 1506 409 1894 409 
Q 2359 409 2629 706 
Q 2900 1003 2900 1516 
L 2900 3500 
L 3475 3500 
L 3475 0 
L 2900 0 
L 2900 538 
Q 2691 219 2414 64 
Q 2138 -91 1772 -91 
Q 1169 -91 856 284 
Q 544 659 544 1381 
z
M 1991 3584 
L 1991 3584 
z
" transform="scale(0.015625)"/>
      <path id="DejaVuSans-6d" d="M 3328 2828 
Q 3544 3216 3844 3400 
Q 4144 3584 4550 3584 
Q 5097 3584 5394 3201 
Q 5691 2819 5691 2113 
L 5691 0 
L 5113 0 
L 5113 2094 
Q 5113 2597 4934 2840 
Q 4756 3084 4391 3084 
Q 3944 3084 3684 2787 
Q 3425 2491 3425 1978 
L 3425 0 
L 2847 0 
L 2847 2094 
Q 2847 2600 2669 2842 
Q 2491 3084 2119 3084 
Q 1678 3084 1418 2786 
Q 1159 2488 1159 1978 
L 1159 0 
L 581 0 
L 581 3500 
L 1159 3500 
L 1159 2956 
Q 1356 3278 1631 3431 
Q 1906 3584 2284 3584 
Q 2666 3584 2933 3390 
Q 3200 3197 3328 2828 
z
" transform="scale(0.015625)"/>
      <path id="DejaVuSans-62" d="M 3116 1747 
Q 3116 2381 2855 2742 
Q 2594 3103 2138 3103 
Q 1681 3103 1420 2742 
Q 1159 2381 1159 1747 
Q 1159 1113 1420 752 
Q 1681 391 2138 391 
Q 2594 391 2855 752 
Q 3116 1113 3116 1747 
z
M 1159 2969 
Q 1341 3281 1617 3432 
Q 1894 3584 2278 3584 
Q 2916 3584 3314 3078 
Q 3713 2572 3713 1747 
Q 3713 922 3314 415 
Q 2916 -91 2278 -91 
Q 1894 -91 1617 61 
Q 1341 213 1159 525 
L 1159 0 
L 581 0 
L 581 4863 
L 1159 4863 
L 1159 2969 
z
" transform="scale(0.015625)"/>
      <path id="DejaVuSans-65" d="M 3597 1894 
L 3597 1613 
L 953 1613 
Q 991 1019 1311 708 
Q 1631 397 2203 397 
Q 2534 397 2845 478 
Q 3156 559 3463 722 
L 3463 178 
Q 3153 47 2828 -22 
Q 2503 -91 2169 -91 
Q 1331 -91 842 396 
Q 353 884 353 1716 
Q 353 2575 817 3079 
Q 1281 3584 2069 3584 
Q 2775 3584 3186 3129 
Q 3597 2675 3597 1894 
z
M 3022 2063 
Q 3016 2534 2758 2815 
Q 2500 3097 2075 3097 
Q 1594 3097 1305 2825 
Q 1016 2553 972 2059 
L 3022 2063 
z
" transform="scale(0.015625)"/>
      <path id="DejaVuSans-72" d="M 2631 2963 
Q 2534 3019 2420 3045 
Q 2306 3072 2169 3072 
Q 1681 3072 1420 2755 
Q 1159 2438 1159 1844 
L 1159 0 
L 581 0 
L 581 3500 
L 1159 3500 
L 1159 2956 
Q 1341 3275 1631 3429 
Q 1922 3584 2338 3584 
Q 2397 3584 2469 3576 
Q 2541 3569 2628 3553 
L 2631 2963 
z
" transform="scale(0.015625)"/>
      <path id="DejaVuSans-20" transform="scale(0.015625)"/>
      <path id="DejaVuSans-6f" d="M 1959 3097 
Q 1497 3097 1228 2736 
Q 959 2375 959 1747 
Q 959 1119 1226 758 
Q 1494 397 1959 397 
Q 2419 397 2687 759 
Q 2956 1122 2956 1747 
Q 2956 2369 2687 2733 
Q 2419 3097 1959 3097 
z
M 1959 3584 
Q 2709 3584 3137 3096 
Q 3566 2609 3566 1747 
Q 3566 888 3137 398 
Q 2709 -91 1959 -91 
Q 1206 -91 779 398 
Q 353 888 353 1747 
Q 353 2609 779 3096 
Q 1206 3584 1959 3584 
z
" transform="scale(0.015625)"/>
      <path id="DejaVuSans-66" d="M 2375 4863 
L 2375 4384 
L 1825 4384 
Q 1516 4384 1395 4259 
Q 1275 4134 1275 3809 
L 1275 3500 
L 2222 3500 
L 2222 3053 
L 1275 3053 
L 1275 0 
L 697 0 
L 697 3053 
L 147 3053 
L 147 3500 
L 697 3500 
L 697 3744 
Q 697 4328 969 4595 
Q 1241 4863 1831 4863 
L 2375 4863 
z
" transform="scale(0.015625)"/>
      <path id="DejaVuSans-41" d="M 2188 4044 
L 1331 1722 
L 3047 1722 
L 2188 4044 
z
M 1831 4666 
L 2547 4666 
L 4325 0 
L 3669 0 
L 3244 1197 
L 1141 1197 
L 716 0 
L 50 0 
L 1831 4666 
z
" transform="scale(0.015625)"/>
      <path id="DejaVuSans-45" d="M 628 4666 
L 3578 4666 
L 3578 4134 
L 1259 4134 
L 1259 2753 
L 3481 2753 
L 3481 2222 
L 1259 2222 
L 1259 531 
L 3634 531 
L 3634 0 
L 628 0 
L 628 4666 
z
" transform="scale(0.015625)"/>
      <path id="DejaVuSans-44" d="M 1259 4147 
L 1259 519 
L 2022 519 
Q 2988 519 3436 956 
Q 3884 1394 3884 2338 
Q 3884 3275 3436 3711 
Q 2988 4147 2022 4147 
L 1259 4147 
z
M 628 4666 
L 1925 4666 
Q 3281 4666 3915 4102 
Q 4550 3538 4550 2338 
Q 4550 1131 3912 565 
Q 3275 0 1925 0 
L 628 0 
L 628 4666 
z
" transform="scale(0.015625)"/>
      <path id="DejaVuSans-73" d="M 2834 3397 
L 2834 2853 
Q 2591 2978 2328 3040 
Q 2066 3103 1784 3103 
Q 1356 3103 1142 2972 
Q 928 2841 928 2578 
Q 928 2378 1081 2264 
Q 1234 2150 1697 2047 
L 1894 2003 
Q 2506 1872 2764 1633 
Q 3022 1394 3022 966 
Q 3022 478 2636 193 
Q 2250 -91 1575 -91 
Q 1294 -91 989 -36 
Q 684 19 347 128 
L 347 722 
Q 666 556 975 473 
Q 1284 391 1588 391 
Q 1994 391 2212 530 
Q 2431 669 2431 922 
Q 2431 1156 2273 1281 
Q 2116 1406 1581 1522 
L 1381 1569 
Q 847 1681 609 1914 
Q 372 2147 372 2553 
Q 372 3047 722 3315 
Q 1072 3584 1716 3584 
Q 2034 3584 2315 3537 
Q 2597 3491 2834 3397 
z
" transform="scale(0.015625)"/>
      <path id="DejaVuSans-69" d="M 603 3500 
L 1178 3500 
L 1178 0 
L 603 0 
L 603 3500 
z
M 603 4863 
L 1178 4863 
L 1178 4134 
L 603 4134 
L 603 4863 
z
" transform="scale(0.015625)"/>
      <path id="DejaVuSans-6e" d="M 3513 2113 
L 3513 0 
L 2938 0 
L 2938 2094 
Q 2938 2591 2744 2837 
Q 2550 3084 2163 3084 
Q 1697 3084 1428 2787 
Q 1159 2491 1159 1978 
L 1159 0 
L 581 0 
L 581 3500 
L 1159 3500 
L 1159 2956 
Q 1366 3272 1645 3428 
Q 1925 3584 2291 3584 
Q 2894 3584 3203 3211 
Q 3513 2838 3513 2113 
z
" transform="scale(0.015625)"/>
      <path id="DejaVuSans-74" d="M 1172 4494 
L 1172 3500 
L 2356 3500 
L 2356 3053 
L 1172 3053 
L 1172 1153 
Q 1172 725 1289 603 
Q 1406 481 1766 481 
L 2356 481 
L 2356 0 
L 1766 0 
Q 1100 0 847 248 
Q 594 497 594 1153 
L 594 3053 
L 172 3053 
L 172 3500 
L 594 3500 
L 594 4494 
L 1172 4494 
z
" transform="scale(0.015625)"/>
      <path id="DejaVuSans-68" d="M 3513 2113 
L 3513 0 
L 2938 0 
L 2938 2094 
Q 2938 2591 2744 2837 
Q 2550 3084 2163 3084 
Q 1697 3084 1428 2787 
Q 1159 2491 1159 1978 
L 1159 0 
L 581 0 
L 581 4863 
L 1159 4863 
L 1159 2956 
Q 1366 3272 1645 3428 
Q 1925 3584 2291 3584 
Q 2894 3584 3203 3211 
Q 3513 2838 3513 2113 
z
" transform="scale(0.015625)"/>
      <path id="DejaVuSans-4f" d="M 2522 4238 
Q 1834 4238 1429 3725 
Q 1025 3213 1025 2328 
Q 1025 1447 1429 934 
Q 1834 422 2522 422 
Q 3209 422 3611 934 
Q 4013 1447 4013 2328 
Q 4013 3213 3611 3725 
Q 3209 4238 2522 4238 
z
M 2522 4750 
Q 3503 4750 4090 4092 
Q 4678 3434 4678 2328 
Q 4678 1225 4090 567 
Q 3503 -91 2522 -91 
Q 1538 -91 948 565 
Q 359 1222 359 2328 
Q 359 3434 948 4092 
Q 1538 4750 2522 4750 
z
" transform="scale(0.015625)"/>
      <path id="DejaVuSans-70" d="M 1159 525 
L 1159 -1331 
L 581 -1331 
L 581 3500 
L 1159 3500 
L 1159 2969 
Q 1341 3281 1617 3432 
Q 1894 3584 2278 3584 
Q 2916 3584 3314 3078 
Q 3713 2572 3713 1747 
Q 3713 922 3314 415 
Q 2916 -91 2278 -91 
Q 1894 -91 1617 61 
Q 1341 213 1159 525 
z
M 3116 1747 
Q 3116 2381 2855 2742 
Q 2594 3103 2138 3103 
Q 1681 3103 1420 2742 
Q 1159 2381 1159 1747 
Q 1159 1113 1420 752 
Q 1681 391 2138 391 
Q 2594 391 2855 752 
Q 3116 1113 3116 1747 
z
" transform="scale(0.015625)"/>
      <path id="DejaVuSans-53" d="M 3425 4513 
L 3425 3897 
Q 3066 4069 2747 4153 
Q 2428 4238 2131 4238 
Q 1616 4238 1336 4038 
Q 1056 3838 1056 3469 
Q 1056 3159 1242 3001 
Q 1428 2844 1947 2747 
L 2328 2669 
Q 3034 2534 3370 2195 
Q 3706 1856 3706 1288 
Q 3706 609 3251 259 
Q 2797 -91 1919 -91 
Q 1588 -91 1214 -16 
Q 841 59 441 206 
L 441 856 
Q 825 641 1194 531 
Q 1563 422 1919 422 
Q 2459 422 2753 634 
Q 3047 847 3047 1241 
Q 3047 1584 2836 1778 
Q 2625 1972 2144 2069 
L 1759 2144 
Q 1053 2284 737 2584 
Q 422 2884 422 3419 
Q 422 4038 858 4394 
Q 1294 4750 2059 4750 
Q 2388 4750 2728 4690 
Q 3069 4631 3425 4513 
z
" transform="scale(0.015625)"/>
      <path id="DejaVuSans-4d" d="M 628 4666 
L 1569 4666 
L 2759 1491 
L 3956 4666 
L 4897 4666 
L 4897 0 
L 4281 0 
L 4281 4097 
L 3078 897 
L 2444 897 
L 1241 4097 
L 1241 0 
L 628 0 
L 628 4666 
z
" transform="scale(0.015625)"/>
      <path id="DejaVuSans-61" d="M 2194 1759 
Q 1497 1759 1228 1600 
Q 959 1441 959 1056 
Q 959 750 1161 570 
Q 1363 391 1709 391 
Q 2188 391 2477 730 
Q 2766 1069 2766 1631 
L 2766 1759 
L 2194 1759 
z
M 3341 1997 
L 3341 0 
L 2766 0 
L 2766 531 
Q 2569 213 2275 61 
Q 1981 -91 1556 -91 
Q 1019 -91 701 211 
Q 384 513 384 1019 
Q 384 1609 779 1909 
Q 1175 2209 1959 2209 
L 2766 2209 
L 2766 2266 
Q 2766 2663 2505 2880 
Q 2244 3097 1772 3097 
Q 1472 3097 1187 3025 
Q 903 2953 641 2809 
L 641 3341 
Q 956 3463 1253 3523 
Q 1550 3584 1831 3584 
Q 2591 3584 2966 3190 
Q 3341 2797 3341 1997 
z
" transform="scale(0.015625)"/>
      <path id="DejaVuSans-64" d="M 2906 2969 
L 2906 4863 
L 3481 4863 
L 3481 0 
L 2906 0 
L 2906 525 
Q 2725 213 2448 61 
Q 2172 -91 1784 -91 
Q 1150 -91 751 415 
Q 353 922 353 1747 
Q 353 2572 751 3078 
Q 1150 3584 1784 3584 
Q 2172 3584 2448 3432 
Q 2725 3281 2906 2969 
z
M 947 1747 
Q 947 1113 1208 752 
Q 1469 391 1925 391 
Q 2381 391 2643 752 
Q 2906 1113 2906 1747 
Q 2906 2381 2643 2742 
Q 2381 3103 1925 3103 
Q 1469 3103 1208 2742 
Q 947 2381 947 1747 
z
" transform="scale(0.015625)"/>
      <path id="DejaVuSans-50" d="M 1259 4147 
L 1259 2394 
L 2053 2394 
Q 2494 2394 2734 2622 
Q 2975 2850 2975 3272 
Q 2975 3691 2734 3919 
Q 2494 4147 2053 4147 
L 1259 4147 
z
M 628 4666 
L 2053 4666 
Q 2838 4666 3239 4311 
Q 3641 3956 3641 3272 
Q 3641 2581 3239 2228 
Q 2838 1875 2053 1875 
L 1259 1875 
L 1259 0 
L 628 0 
L 628 4666 
z
" transform="scale(0.015625)"/>
      <path id="DejaVuSans-6c" d="M 603 4863 
L 1178 4863 
L 1178 0 
L 603 0 
L 603 4863 
z
" transform="scale(0.015625)"/>
      <path id="DejaVuSans-2c" d="M 750 794 
L 1409 794 
L 1409 256 
L 897 -744 
L 494 -744 
L 750 256 
L 750 794 
z
" transform="scale(0.015625)"/>
      <path id="DejaVuSans-79" d="M 2059 -325 
Q 1816 -950 1584 -1140 
Q 1353 -1331 966 -1331 
L 506 -1331 
L 506 -850 
L 844 -850 
Q 1081 -850 1212 -737 
Q 1344 -625 1503 -206 
L 1606 56 
L 191 3500 
L 800 3500 
L 1894 763 
L 2988 3500 
L 3597 3500 
L 2059 -325 
z
" transform="scale(0.015625)"/>
      <path id="DejaVuSans-2e" d="M 684 794 
L 1344 794 
L 1344 0 
L 684 0 
L 684 794 
z
" transform="scale(0.015625)"/>
      <path id="DejaVuSans-3a" d="M 750 794 
L 1409 794 
L 1409 0 
L 750 0 
L 750 794 
z
M 750 3309 
L 1409 3309 
L 1409 2516 
L 750 2516 
L 750 3309 
z
" transform="scale(0.015625)"/>
      <path id="DejaVuSans-35" d="M 691 4666 
L 3169 4666 
L 3169 4134 
L 1269 4134 
L 1269 2991 
Q 1406 3038 1543 3061 
Q 1681 3084 1819 3084 
Q 2600 3084 3056 2656 
Q 3513 2228 3513 1497 
Q 3513 744 3044 326 
Q 2575 -91 1722 -91 
Q 1428 -91 1123 -41 
Q 819 9 494 109 
L 494 744 
Q 775 591 1075 516 
Q 1375 441 1709 441 
Q 2250 441 2565 725 
Q 2881 1009 2881 1497 
Q 2881 1984 2565 2268 
Q 2250 2553 1709 2553 
Q 1456 2553 1204 2497 
Q 953 2441 691 2322 
L 691 4666 
z
" transform="scale(0.015625)"/>
      <path id="DejaVuSans-2d" d="M 313 2009 
L 1997 2009 
L 1997 1497 
L 313 1497 
L 313 2009 
z
" transform="scale(0.015625)"/>
      <path id="DejaVuSans-37" d="M 525 4666 
L 3525 4666 
L 3525 4397 
L 1831 0 
L 1172 0 
L 2766 4134 
L 525 4134 
L 525 4666 
z
" transform="scale(0.015625)"/>
     </defs>
     <use xlink:href="#DejaVuSans-4e"/>
     <use xlink:href="#DejaVuSans-75" x="74.804688"/>
     <use xlink:href="#DejaVuSans-6d" x="138.183594"/>
     <use xlink:href="#DejaVuSans-62" x="235.595703"/>
     <use xlink:href="#DejaVuSans-65" x="299.072266"/>
     <use xlink:href="#DejaVuSans-72" x="360.595703"/>
     <use xlink:href="#DejaVuSans-20" x="401.708984"/>
     <use xlink:href="#DejaVuSans-6f" x="433.496094"/>
     <use xlink:href="#DejaVuSans-66" x="494.677734"/>
     <use xlink:href="#DejaVuSans-20" x="529.882812"/>
     <use xlink:href="#DejaVuSans-41" x="561.669922"/>
     <use xlink:href="#DejaVuSans-45" x="630.078125"/>
     <use xlink:href="#DejaVuSans-44" x="693.261719"/>
     <use xlink:href="#DejaVuSans-73" x="770.263672"/>
     <use xlink:href="#DejaVuSans-20" x="822.363281"/>
     <use xlink:href="#DejaVuSans-69" x="854.150391"/>
     <use xlink:href="#DejaVuSans-6e" x="881.933594"/>
     <use xlink:href="#DejaVuSans-20" x="945.3125"/>
     <use xlink:href="#DejaVuSans-74" x="977.099609"/>
     <use xlink:href="#DejaVuSans-68" x="1016.308594"/>
     <use xlink:href="#DejaVuSans-65" x="1079.6875"/>
     <use xlink:href="#DejaVuSans-20" x="1141.210938"/>
     <use xlink:href="#DejaVuSans-4f" x="1172.998047"/>
     <use xlink:href="#DejaVuSans-70" x="1251.708984"/>
     <use xlink:href="#DejaVuSans-65" x="1315.185547"/>
     <use xlink:href="#DejaVuSans-6e" x="1376.708984"/>
     <use xlink:href="#DejaVuSans-53" x="1440.087891"/>
     <use xlink:href="#DejaVuSans-74" x="1503.564453"/>
     <use xlink:href="#DejaVuSans-72" x="1542.773438"/>
     <use xlink:href="#DejaVuSans-65" x="1581.636719"/>
     <use xlink:href="#DejaVuSans-65" x="1643.160156"/>
     <use xlink:href="#DejaVuSans-74" x="1704.683594"/>
     <use xlink:href="#DejaVuSans-4d" x="1743.892578"/>
     <use xlink:href="#DejaVuSans-61" x="1830.171875"/>
     <use xlink:href="#DejaVuSans-70" x="1891.451172"/>
     <use xlink:href="#DejaVuSans-20" x="1954.927734"/>
     <use xlink:href="#DejaVuSans-64" x="1986.714844"/>
     <use xlink:href="#DejaVuSans-61" x="2050.191406"/>
     <use xlink:href="#DejaVuSans-74" x="2111.470703"/>
     <use xlink:href="#DejaVuSans-61" x="2150.679688"/>
     <use xlink:href="#DejaVuSans-62" x="2211.958984"/>
     <use xlink:href="#DejaVuSans-61" x="2275.435547"/>
     <use xlink:href="#DejaVuSans-73" x="2336.714844"/>
     <use xlink:href="#DejaVuSans-65" x="2388.814453"/>
     <use xlink:href="#DejaVuSans-20" x="2450.337891"/>
     <use xlink:href="#DejaVuSans-69" x="2482.125"/>
     <use xlink:href="#DejaVuSans-6e" x="2509.908203"/>
     <use xlink:href="#DejaVuSans-20" x="2573.287109"/>
     <use xlink:href="#DejaVuSans-50" x="2605.074219"/>
     <use xlink:href="#DejaVuSans-6f" x="2661.751953"/>
     <use xlink:href="#DejaVuSans-6c" x="2722.933594"/>
     <use xlink:href="#DejaVuSans-61" x="2750.716797"/>
     <use xlink:href="#DejaVuSans-6e" x="2811.996094"/>
     <use xlink:href="#DejaVuSans-64" x="2875.375"/>
     <use xlink:href="#DejaVuSans-20" x="2938.851562"/>
     <use xlink:href="#DejaVuSans-66" x="2970.638672"/>
     <use xlink:href="#DejaVuSans-72" x="3005.84375"/>
     <use xlink:href="#DejaVuSans-6f" x="3044.707031"/>
     <use xlink:href="#DejaVuSans-6d" x="3105.888672"/>
     <use xlink:href="#DejaVuSans-20" x="3203.300781"/>
     <use xlink:href="#DejaVuSans-66" x="3235.087891"/>
     <use xlink:href="#DejaVuSans-69" x="3270.292969"/>
     <use xlink:href="#DejaVuSans-72" x="3298.076172"/>
     <use xlink:href="#DejaVuSans-73" x="3339.189453"/>
     <use xlink:href="#DejaVuSans-74" x="3391.289062"/>
     <use xlink:href="#DejaVuSans-20" x="3430.498047"/>
     <use xlink:href="#DejaVuSans-65" x="3462.285156"/>
     <use xlink:href="#DejaVuSans-64" x="3523.808594"/>
     <use xlink:href="#DejaVuSans-69" x="3587.285156"/>
     <use xlink:href="#DejaVuSans-74" x="3615.068359"/>
     <use xlink:href="#DejaVuSans-69" x="3654.277344"/>
     <use xlink:href="#DejaVuSans-6f" x="3682.060547"/>
     <use xlink:href="#DejaVuSans-6e" x="3743.242188"/>
     <use xlink:href="#DejaVuSans-2c" x="3806.621094"/>
     <use xlink:href="#DejaVuSans-20" x="3838.408203"/>
     <use xlink:href="#DejaVuSans-64" x="3870.195312"/>
     <use xlink:href="#DejaVuSans-61" x="3933.671875"/>
     <use xlink:href="#DejaVuSans-79" x="3994.951172"/>
     <use xlink:href="#DejaVuSans-20" x="4054.130859"/>
     <use xlink:href="#DejaVuSans-62" x="4085.917969"/>
     <use xlink:href="#DejaVuSans-79" x="4149.394531"/>
     <use xlink:href="#DejaVuSans-20" x="4208.574219"/>
     <use xlink:href="#DejaVuSans-64" x="4240.361328"/>
     <use xlink:href="#DejaVuSans-61" x="4303.837891"/>
     <use xlink:href="#DejaVuSans-79" x="4365.117188"/>
     <use xlink:href="#DejaVuSans-2e" x="4410.046875"/>
     <use xlink:href="#DejaVuSans-20" x="4441.833984"/>
     <use xlink:href="#DejaVuSans-41" x="4473.621094"/>
     <use xlink:href="#DejaVuSans-73" x="4542.029297"/>
     <use xlink:href="#DejaVuSans-20" x="4594.128906"/>
     <use xlink:href="#DejaVuSans-61" x="4625.916016"/>
     <use xlink:href="#DejaVuSans-74" x="4687.195312"/>
     <use xlink:href="#DejaVuSans-3a" x="4726.404297"/>
     <use xlink:href="#DejaVuSans-20" x="4760.095703"/>
     <use xlink:href="#DejaVuSans-32" x="4791.882812"/>
     <use xlink:href="#DejaVuSans-30" x="4855.505859"/>
     <use xlink:href="#DejaVuSans-32" x="4919.128906"/>
     <use xlink:href="#DejaVuSans-35" x="4982.751953"/>
     <use xlink:href="#DejaVuSans-2d" x="5046.375"/>
     <use xlink:href="#DejaVuSans-30" x="5082.458984"/>
     <use xlink:href="#DejaVuSans-37" x="5146.082031"/>
     <use xlink:href="#DejaVuSans-2d" x="5209.705078"/>
     <use xlink:href="#DejaVuSans-30" x="5245.789062"/>
     <use xlink:href="#DejaVuSans-38" x="5309.412109"/>
    </g>
   </g>
  </g>
 </g>
 <defs>
  <clipPath id="p5c5c7e03be">
   <rect x="144" y="69.12" width="892.8" height="443.52"/>
  </clipPath>
 </defs>
</svg>
