<?xml version="1.0" encoding="utf-8" standalone="no"?>
<!DOCTYPE svg PUBLIC "-//W3C//DTD SVG 1.1//EN"
  "http://www.w3.org/Graphics/SVG/1.1/DTD/svg11.dtd">
<svg xmlns:xlink="http://www.w3.org/1999/xlink" width="1152pt" height="576pt" viewBox="0 0 1152 576" xmlns="http://www.w3.org/2000/svg" version="1.1">
 <metadata>
  <rdf:RDF xmlns:dc="http://purl.org/dc/elements/1.1/" xmlns:cc="http://creativecommons.org/ns#" xmlns:rdf="http://www.w3.org/1999/02/22-rdf-syntax-ns#">
   <cc:Work>
    <dc:type rdf:resource="http://purl.org/dc/dcmitype/StillImage"/>
    <dc:date>1980-01-01T00:00:00+00:00</dc:date>
    <dc:format>image/svg+xml</dc:format>
    <dc:creator>
     <cc:Agent>
      <dc:title>Matplotlib v3.9.1, https://matplotlib.org/</dc:title>
     </cc:Agent>
    </dc:creator>
   </cc:Work>
  </rdf:RDF>
 </metadata>
 <defs>
  <style type="text/css">*{stroke-linejoin: round; stroke-linecap: butt}</style>
 </defs>
 <g id="figure_1">
  <g id="patch_1">
   <path d="M 0 576 
L 1152 576 
L 1152 0 
L 0 0 
z
" style="fill: #ffffff"/>
  </g>
  <g id="axes_1">
   <g id="patch_2">
    <path d="M 144 512.64 
L 1036.8 512.64 
L 1036.8 69.12 
L 144 69.12 
z
" style="fill: #ffffff"/>
   </g>
   <g id="matplotlib.axis_1">
    <g id="xtick_1">
     <g id="line2d_1">
      <defs>
       <path id="m2d4cf3a28f" d="M 0 0 
L 0 3.5 
" style="stroke: #000000; stroke-width: 0.8"/>
      </defs>
      <g>
       <use xlink:href="#m2d4cf3a28f" x="177.194912" y="512.64" style="stroke: #000000; stroke-width: 0.8"/>
      </g>
     </g>
     <g id="text_1">
      <!-- 2014 -->
      <g transform="translate(164.469912 527.238438) scale(0.1 -0.1)">
       <defs>
        <path id="DejaVuSans-32" d="M 1228 531 
L 3431 531 
L 3431 0 
L 469 0 
L 469 531 
Q 828 903 1448 1529 
Q 2069 2156 2228 2338 
Q 2531 2678 2651 2914 
Q 2772 3150 2772 3378 
Q 2772 3750 2511 3984 
Q 2250 4219 1831 4219 
Q 1534 4219 1204 4116 
Q 875 4013 500 3803 
L 500 4441 
Q 881 4594 1212 4672 
Q 1544 4750 1819 4750 
Q 2544 4750 2975 4387 
Q 3406 4025 3406 3419 
Q 3406 3131 3298 2873 
Q 3191 2616 2906 2266 
Q 2828 2175 2409 1742 
Q 1991 1309 1228 531 
z
" transform="scale(0.015625)"/>
        <path id="DejaVuSans-30" d="M 2034 4250 
Q 1547 4250 1301 3770 
Q 1056 3291 1056 2328 
Q 1056 1369 1301 889 
Q 1547 409 2034 409 
Q 2525 409 2770 889 
Q 3016 1369 3016 2328 
Q 3016 3291 2770 3770 
Q 2525 4250 2034 4250 
z
M 2034 4750 
Q 2819 4750 3233 4129 
Q 3647 3509 3647 2328 
Q 3647 1150 3233 529 
Q 2819 -91 2034 -91 
Q 1250 -91 836 529 
Q 422 1150 422 2328 
Q 422 3509 836 4129 
Q 1250 4750 2034 4750 
z
" transform="scale(0.015625)"/>
        <path id="DejaVuSans-31" d="M 794 531 
L 1825 531 
L 1825 4091 
L 703 3866 
L 703 4441 
L 1819 4666 
L 2450 4666 
L 2450 531 
L 3481 531 
L 3481 0 
L 794 0 
L 794 531 
z
" transform="scale(0.015625)"/>
        <path id="DejaVuSans-34" d="M 2419 4116 
L 825 1625 
L 2419 1625 
L 2419 4116 
z
M 2253 4666 
L 3047 4666 
L 3047 1625 
L 3713 1625 
L 3713 1100 
L 3047 1100 
L 3047 0 
L 2419 0 
L 2419 1100 
L 313 1100 
L 313 1709 
L 2253 4666 
z
" transform="scale(0.015625)"/>
       </defs>
       <use xlink:href="#DejaVuSans-32"/>
       <use xlink:href="#DejaVuSans-30" x="63.623047"/>
       <use xlink:href="#DejaVuSans-31" x="127.246094"/>
       <use xlink:href="#DejaVuSans-34" x="190.869141"/>
      </g>
     </g>
    </g>
    <g id="xtick_2">
     <g id="line2d_2">
      <g>
       <use xlink:href="#m2d4cf3a28f" x="312.005957" y="512.64" style="stroke: #000000; stroke-width: 0.8"/>
      </g>
     </g>
     <g id="text_2">
      <!-- 2016 -->
      <g transform="translate(299.280957 527.238438) scale(0.1 -0.1)">
       <defs>
        <path id="DejaVuSans-36" d="M 2113 2584 
Q 1688 2584 1439 2293 
Q 1191 2003 1191 1497 
Q 1191 994 1439 701 
Q 1688 409 2113 409 
Q 2538 409 2786 701 
Q 3034 994 3034 1497 
Q 3034 2003 2786 2293 
Q 2538 2584 2113 2584 
z
M 3366 4563 
L 3366 3988 
Q 3128 4100 2886 4159 
Q 2644 4219 2406 4219 
Q 1781 4219 1451 3797 
Q 1122 3375 1075 2522 
Q 1259 2794 1537 2939 
Q 1816 3084 2150 3084 
Q 2853 3084 3261 2657 
Q 3669 2231 3669 1497 
Q 3669 778 3244 343 
Q 2819 -91 2113 -91 
Q 1303 -91 875 529 
Q 447 1150 447 2328 
Q 447 3434 972 4092 
Q 1497 4750 2381 4750 
Q 2619 4750 2861 4703 
Q 3103 4656 3366 4563 
z
" transform="scale(0.015625)"/>
       </defs>
       <use xlink:href="#DejaVuSans-32"/>
       <use xlink:href="#DejaVuSans-30" x="63.623047"/>
       <use xlink:href="#DejaVuSans-31" x="127.246094"/>
       <use xlink:href="#DejaVuSans-36" x="190.869141"/>
      </g>
     </g>
    </g>
    <g id="xtick_3">
     <g id="line2d_3">
      <g>
       <use xlink:href="#m2d4cf3a28f" x="447.001675" y="512.64" style="stroke: #000000; stroke-width: 0.8"/>
      </g>
     </g>
     <g id="text_3">
      <!-- 2018 -->
      <g transform="translate(434.276675 527.238438) scale(0.1 -0.1)">
       <defs>
        <path id="DejaVuSans-38" d="M 2034 2216 
Q 1584 2216 1326 1975 
Q 1069 1734 1069 1313 
Q 1069 891 1326 650 
Q 1584 409 2034 409 
Q 2484 409 2743 651 
Q 3003 894 3003 1313 
Q 3003 1734 2745 1975 
Q 2488 2216 2034 2216 
z
M 1403 2484 
Q 997 2584 770 2862 
Q 544 3141 544 3541 
Q 544 4100 942 4425 
Q 1341 4750 2034 4750 
Q 2731 4750 3128 4425 
Q 3525 4100 3525 3541 
Q 3525 3141 3298 2862 
Q 3072 2584 2669 2484 
Q 3125 2378 3379 2068 
Q 3634 1759 3634 1313 
Q 3634 634 3220 271 
Q 2806 -91 2034 -91 
Q 1263 -91 848 271 
Q 434 634 434 1313 
Q 434 1759 690 2068 
Q 947 2378 1403 2484 
z
M 1172 3481 
Q 1172 3119 1398 2916 
Q 1625 2713 2034 2713 
Q 2441 2713 2670 2916 
Q 2900 3119 2900 3481 
Q 2900 3844 2670 4047 
Q 2441 4250 2034 4250 
Q 1625 4250 1398 4047 
Q 1172 3844 1172 3481 
z
" transform="scale(0.015625)"/>
       </defs>
       <use xlink:href="#DejaVuSans-32"/>
       <use xlink:href="#DejaVuSans-30" x="63.623047"/>
       <use xlink:href="#DejaVuSans-31" x="127.246094"/>
       <use xlink:href="#DejaVuSans-38" x="190.869141"/>
      </g>
     </g>
    </g>
    <g id="xtick_4">
     <g id="line2d_4">
      <g>
       <use xlink:href="#m2d4cf3a28f" x="581.812721" y="512.64" style="stroke: #000000; stroke-width: 0.8"/>
      </g>
     </g>
     <g id="text_4">
      <!-- 2020 -->
      <g transform="translate(569.087721 527.238438) scale(0.1 -0.1)">
       <use xlink:href="#DejaVuSans-32"/>
       <use xlink:href="#DejaVuSans-30" x="63.623047"/>
       <use xlink:href="#DejaVuSans-32" x="127.246094"/>
       <use xlink:href="#DejaVuSans-30" x="190.869141"/>
      </g>
     </g>
    </g>
    <g id="xtick_5">
     <g id="line2d_5">
      <g>
       <use xlink:href="#m2d4cf3a28f" x="716.808439" y="512.64" style="stroke: #000000; stroke-width: 0.8"/>
      </g>
     </g>
     <g id="text_5">
      <!-- 2022 -->
      <g transform="translate(704.083439 527.238438) scale(0.1 -0.1)">
       <use xlink:href="#DejaVuSans-32"/>
       <use xlink:href="#DejaVuSans-30" x="63.623047"/>
       <use xlink:href="#DejaVuSans-32" x="127.246094"/>
       <use xlink:href="#DejaVuSans-32" x="190.869141"/>
      </g>
     </g>
    </g>
    <g id="xtick_6">
     <g id="line2d_6">
      <g>
       <use xlink:href="#m2d4cf3a28f" x="851.619485" y="512.64" style="stroke: #000000; stroke-width: 0.8"/>
      </g>
     </g>
     <g id="text_6">
      <!-- 2024 -->
      <g transform="translate(838.894485 527.238438) scale(0.1 -0.1)">
       <use xlink:href="#DejaVuSans-32"/>
       <use xlink:href="#DejaVuSans-30" x="63.623047"/>
       <use xlink:href="#DejaVuSans-32" x="127.246094"/>
       <use xlink:href="#DejaVuSans-34" x="190.869141"/>
      </g>
     </g>
    </g>
    <g id="xtick_7">
     <g id="line2d_7">
      <g>
       <use xlink:href="#m2d4cf3a28f" x="986.615203" y="512.64" style="stroke: #000000; stroke-width: 0.8"/>
      </g>
     </g>
     <g id="text_7">
      <!-- 2026 -->
      <g transform="translate(973.890203 527.238438) scale(0.1 -0.1)">
       <use xlink:href="#DejaVuSans-32"/>
       <use xlink:href="#DejaVuSans-30" x="63.623047"/>
       <use xlink:href="#DejaVuSans-32" x="127.246094"/>
       <use xlink:href="#DejaVuSans-36" x="190.869141"/>
      </g>
     </g>
    </g>
   </g>
   <g id="matplotlib.axis_2">
    <g id="ytick_1">
     <g id="line2d_8">
      <defs>
       <path id="m271cc230df" d="M 0 0 
L -3.5 0 
" style="stroke: #000000; stroke-width: 0.8"/>
      </defs>
      <g>
       <use xlink:href="#m271cc230df" x="144" y="492.508233" style="stroke: #000000; stroke-width: 0.8"/>
      </g>
     </g>
     <g id="text_8">
      <!-- 0 -->
      <g transform="translate(130.6375 496.307452) scale(0.1 -0.1)">
       <use xlink:href="#DejaVuSans-30"/>
      </g>
     </g>
    </g>
    <g id="ytick_2">
     <g id="line2d_9">
      <g>
       <use xlink:href="#m271cc230df" x="144" y="436.041599" style="stroke: #000000; stroke-width: 0.8"/>
      </g>
     </g>
     <g id="text_9">
      <!-- 2000 -->
      <g transform="translate(111.55 439.840818) scale(0.1 -0.1)">
       <use xlink:href="#DejaVuSans-32"/>
       <use xlink:href="#DejaVuSans-30" x="63.623047"/>
       <use xlink:href="#DejaVuSans-30" x="127.246094"/>
       <use xlink:href="#DejaVuSans-30" x="190.869141"/>
      </g>
     </g>
    </g>
    <g id="ytick_3">
     <g id="line2d_10">
      <g>
       <use xlink:href="#m271cc230df" x="144" y="379.574965" style="stroke: #000000; stroke-width: 0.8"/>
      </g>
     </g>
     <g id="text_10">
      <!-- 4000 -->
      <g transform="translate(111.55 383.374184) scale(0.1 -0.1)">
       <use xlink:href="#DejaVuSans-34"/>
       <use xlink:href="#DejaVuSans-30" x="63.623047"/>
       <use xlink:href="#DejaVuSans-30" x="127.246094"/>
       <use xlink:href="#DejaVuSans-30" x="190.869141"/>
      </g>
     </g>
    </g>
    <g id="ytick_4">
     <g id="line2d_11">
      <g>
       <use xlink:href="#m271cc230df" x="144" y="323.108331" style="stroke: #000000; stroke-width: 0.8"/>
      </g>
     </g>
     <g id="text_11">
      <!-- 6000 -->
      <g transform="translate(111.55 326.90755) scale(0.1 -0.1)">
       <use xlink:href="#DejaVuSans-36"/>
       <use xlink:href="#DejaVuSans-30" x="63.623047"/>
       <use xlink:href="#DejaVuSans-30" x="127.246094"/>
       <use xlink:href="#DejaVuSans-30" x="190.869141"/>
      </g>
     </g>
    </g>
    <g id="ytick_5">
     <g id="line2d_12">
      <g>
       <use xlink:href="#m271cc230df" x="144" y="266.641697" style="stroke: #000000; stroke-width: 0.8"/>
      </g>
     </g>
     <g id="text_12">
      <!-- 8000 -->
      <g transform="translate(111.55 270.440916) scale(0.1 -0.1)">
       <use xlink:href="#DejaVuSans-38"/>
       <use xlink:href="#DejaVuSans-30" x="63.623047"/>
       <use xlink:href="#DejaVuSans-30" x="127.246094"/>
       <use xlink:href="#DejaVuSans-30" x="190.869141"/>
      </g>
     </g>
    </g>
    <g id="ytick_6">
     <g id="line2d_13">
      <g>
       <use xlink:href="#m271cc230df" x="144" y="210.175063" style="stroke: #000000; stroke-width: 0.8"/>
      </g>
     </g>
     <g id="text_13">
      <!-- 10000 -->
      <g transform="translate(105.1875 213.974282) scale(0.1 -0.1)">
       <use xlink:href="#DejaVuSans-31"/>
       <use xlink:href="#DejaVuSans-30" x="63.623047"/>
       <use xlink:href="#DejaVuSans-30" x="127.246094"/>
       <use xlink:href="#DejaVuSans-30" x="190.869141"/>
       <use xlink:href="#DejaVuSans-30" x="254.492188"/>
      </g>
     </g>
    </g>
    <g id="ytick_7">
     <g id="line2d_14">
      <g>
       <use xlink:href="#m271cc230df" x="144" y="153.708429" style="stroke: #000000; stroke-width: 0.8"/>
      </g>
     </g>
     <g id="text_14">
      <!-- 12000 -->
      <g transform="translate(105.1875 157.507648) scale(0.1 -0.1)">
       <use xlink:href="#DejaVuSans-31"/>
       <use xlink:href="#DejaVuSans-32" x="63.623047"/>
       <use xlink:href="#DejaVuSans-30" x="127.246094"/>
       <use xlink:href="#DejaVuSans-30" x="190.869141"/>
       <use xlink:href="#DejaVuSans-30" x="254.492188"/>
      </g>
     </g>
    </g>
    <g id="ytick_8">
     <g id="line2d_15">
      <g>
       <use xlink:href="#m271cc230df" x="144" y="97.241795" style="stroke: #000000; stroke-width: 0.8"/>
      </g>
     </g>
     <g id="text_15">
      <!-- 14000 -->
      <g transform="translate(105.1875 101.041014) scale(0.1 -0.1)">
       <use xlink:href="#DejaVuSans-31"/>
       <use xlink:href="#DejaVuSans-34" x="63.623047"/>
       <use xlink:href="#DejaVuSans-30" x="127.246094"/>
       <use xlink:href="#DejaVuSans-30" x="190.869141"/>
       <use xlink:href="#DejaVuSans-30" x="254.492188"/>
      </g>
     </g>
    </g>
   </g>
   <g id="line2d_16">
    <path d="M 184.581818 492.48 
L 186.243872 492.423533 
L 285.782439 492.282367 
L 452.911201 492.112967 
L 487.075644 492.000034 
L 500.187403 491.915334 
L 532.135774 491.745934 
L 535.275209 491.689467 
L 558.359293 491.576534 
L 587.906919 491.407134 
L 588.276264 491.181267 
L 592.15439 491.040101 
L 626.318833 490.898934 
L 650.880298 490.757768 
L 665.100093 490.560134 
L 692.800993 489.854302 
L 699.264536 489.487268 
L 708.867515 489.289635 
L 713.299659 488.245002 
L 713.484331 488.132069 
L 715.146385 488.047369 
L 715.885076 487.652103 
L 716.069749 487.002737 
L 716.439094 486.833337 
L 716.623767 486.805103 
L 716.808439 485.901637 
L 717.916475 485.506371 
L 718.285821 485.026404 
L 718.655166 484.885238 
L 718.839839 484.546438 
L 719.024511 483.784138 
L 719.393857 483.163005 
L 719.578529 482.344239 
L 719.763202 480.791407 
L 720.31722 479.775007 
L 720.686565 474.721244 
L 720.871238 474.184811 
L 721.240583 470.937979 
L 721.425256 470.401546 
L 721.609929 468.98988 
L 721.794601 468.90518 
L 722.348619 467.126481 
L 722.533292 463.145584 
L 722.717965 462.806784 
L 723.08731 461.705684 
L 723.271983 461.620985 
L 723.456655 461.028085 
L 723.641328 458.289453 
L 723.826001 457.640087 
L 724.010673 457.611854 
L 724.195346 455.635521 
L 724.380019 455.381421 
L 724.749364 455.240255 
L 725.488055 453.405089 
L 725.8574 452.840423 
L 726.411418 451.315824 
L 726.780763 447.080826 
L 727.150109 445.076261 
L 727.704127 444.991561 
L 728.073472 444.793928 
L 728.812163 443.692828 
L 729.181508 443.636362 
L 729.550853 441.32123 
L 729.735526 441.292996 
L 730.104871 440.89773 
L 730.289544 439.88133 
L 730.658889 439.570764 
L 730.843562 439.429597 
L 731.028235 438.949631 
L 731.582253 438.780231 
L 731.951598 438.526131 
L 732.320943 437.481498 
L 732.505616 437.396799 
L 732.874961 436.973299 
L 733.613652 436.662732 
L 733.798325 435.7028 
L 734.16767 435.505166 
L 734.352343 433.670001 
L 734.721688 433.613534 
L 735.091033 433.077101 
L 735.275706 432.540668 
L 735.829724 432.427735 
L 736.014397 432.258335 
L 736.383742 431.721902 
L 736.568415 431.693669 
L 736.93776 431.270169 
L 737.307105 431.157235 
L 737.491778 429.886736 
L 738.599814 429.74557 
L 738.969159 429.519703 
L 739.70785 429.435003 
L 739.892522 429.32207 
L 742.47794 428.672704 
L 742.847285 428.446837 
L 743.770648 428.333904 
L 744.509339 427.995104 
L 746.356066 427.656304 
L 747.094756 425.623505 
L 748.01812 425.510572 
L 748.202792 425.454105 
L 749.680174 425.312939 
L 750.418864 425.058839 
L 751.5269 424.917672 
L 753.742972 424.155373 
L 753.927645 423.985973 
L 754.666336 423.760106 
L 755.589699 423.70364 
L 755.774372 423.506007 
L 756.143717 423.477773 
L 756.32839 423.054274 
L 756.513062 422.997807 
L 756.697735 422.404907 
L 759.467825 421.896708 
L 759.652498 421.557908 
L 760.945206 421.275575 
L 761.499224 421.106175 
L 762.237915 420.965008 
L 762.976606 420.795608 
L 763.899969 420.626208 
L 765.746696 419.948609 
L 765.931368 419.383942 
L 766.854732 418.791043 
L 767.039404 418.536943 
L 767.962768 417.887577 
L 768.332113 417.294677 
L 768.516786 417.266444 
L 768.886131 416.645311 
L 769.624822 415.911244 
L 770.17884 415.826544 
L 770.548185 415.572445 
L 770.732858 415.487745 
L 770.91753 415.205411 
L 771.840894 415.007778 
L 772.025566 414.753678 
L 773.872293 414.443112 
L 774.056966 414.301945 
L 774.980329 414.189012 
L 776.088365 413.793746 
L 776.827056 413.652579 
L 777.196401 413.172613 
L 777.565746 412.974979 
L 778.48911 412.410313 
L 778.673782 411.760947 
L 779.412473 411.563313 
L 780.151164 411.28098 
L 781.813217 410.462214 
L 781.99789 410.179881 
L 782.551908 410.010481 
L 782.921253 409.812848 
L 783.475271 409.643448 
L 783.844617 406.735416 
L 784.029289 405.803717 
L 784.213962 404.109718 
L 784.398635 403.912085 
L 784.952653 402.133386 
L 785.506671 401.258153 
L 785.876016 401.032286 
L 786.060689 400.862886 
L 786.245361 400.015887 
L 786.430034 399.70532 
L 786.799379 399.62062 
L 787.353397 398.943021 
L 787.53807 398.434821 
L 788.092088 397.841921 
L 788.276761 397.079622 
L 789.200124 395.752656 
L 790.123487 395.35739 
L 790.30816 394.623323 
L 790.862178 394.369223 
L 791.600869 393.635157 
L 791.785541 393.098724 
L 791.970214 393.070491 
L 792.524232 392.534058 
L 792.893577 392.505825 
L 793.07825 392.223491 
L 793.447595 392.054091 
L 794.001613 391.602358 
L 794.370959 391.404725 
L 794.555631 390.924759 
L 795.84834 390.049526 
L 796.033013 389.964826 
L 796.402358 388.920193 
L 796.956376 388.72256 
L 797.510394 388.581393 
L 797.879739 388.073194 
L 798.249085 387.819094 
L 798.803103 387.000328 
L 800.095811 386.689761 
L 800.649829 385.927462 
L 801.38852 385.786295 
L 802.311883 385.193395 
L 802.496556 385.165162 
L 803.050574 384.769896 
L 803.419919 384.656962 
L 803.789265 384.628729 
L 803.973937 384.459329 
L 804.15861 384.007596 
L 804.897301 383.809963 
L 805.081973 383.52763 
L 805.266646 383.499396 
L 805.451319 382.991197 
L 806.190009 382.76533 
L 806.559355 382.68063 
L 806.9287 382.42653 
L 808.960099 381.692464 
L 809.144772 380.958398 
L 809.514117 380.704298 
L 810.068135 380.534898 
L 810.622153 380.252565 
L 811.360844 380.139632 
L 811.545517 379.377332 
L 812.099535 379.151466 
L 812.284207 378.982066 
L 813.022898 378.840899 
L 813.207571 378.727966 
L 813.576916 378.671499 
L 813.761589 378.445633 
L 814.315607 378.276233 
L 814.500279 378.219766 
L 814.684952 377.9092 
L 815.054297 377.880966 
L 815.423643 377.683333 
L 815.977661 377.429233 
L 816.162333 377.090433 
L 817.455042 376.751634 
L 817.639715 376.582234 
L 818.193733 376.441067 
L 818.378405 376.186967 
L 818.563078 376.158734 
L 818.932423 375.932867 
L 819.301769 375.791701 
L 819.486441 375.650534 
L 820.594477 375.424668 
L 820.77915 375.114101 
L 821.333168 374.972935 
L 821.887186 374.888235 
L 822.256531 374.634135 
L 822.810549 374.492968 
L 823.179895 374.380035 
L 823.364567 374.182402 
L 823.733913 374.125935 
L 823.918585 373.645969 
L 824.103258 373.561269 
L 825.026621 372.431936 
L 825.211294 372.347236 
L 825.395966 372.12137 
L 825.580639 372.093136 
L 826.504002 371.44377 
L 826.873348 371.330837 
L 827.05802 371.02027 
L 827.612038 370.737937 
L 827.981384 370.540304 
L 828.535402 370.399137 
L 829.643438 369.467438 
L 830.012783 369.269805 
L 830.566801 368.931005 
L 832.044182 368.451038 
L 832.782873 367.914605 
L 833.336891 367.660506 
L 834.998945 367.095839 
L 835.36829 366.869973 
L 835.922308 366.728806 
L 836.476326 366.446473 
L 837.030344 366.305306 
L 837.584362 366.07944 
L 838.692398 365.82534 
L 839.246416 365.627707 
L 839.431089 365.345374 
L 841.831834 364.526607 
L 842.201179 364.357207 
L 842.570524 364.300741 
L 842.93987 363.933708 
L 843.124542 362.747908 
L 843.493888 362.465575 
L 843.863233 362.324409 
L 844.417251 361.646809 
L 844.786596 361.392709 
L 845.155942 360.63041 
L 845.525287 360.432776 
L 845.894632 360.263377 
L 846.263978 360.178677 
L 846.633323 359.95281 
L 846.817996 359.839877 
L 847.741359 359.642244 
L 848.110704 359.303444 
L 848.664722 358.908177 
L 849.034068 358.795244 
L 849.403413 358.456444 
L 850.511449 357.750611 
L 850.880794 357.722378 
L 851.065467 357.468278 
L 851.804158 357.298878 
L 851.98883 356.734212 
L 852.358176 356.451879 
L 853.096866 356.254246 
L 853.466212 356.113079 
L 853.650884 355.717812 
L 854.02023 355.604879 
L 854.204902 355.266079 
L 854.75892 354.899046 
L 855.128266 354.729646 
L 855.497611 354.644946 
L 855.866956 354.447313 
L 856.051629 354.41908 
L 856.420974 354.221447 
L 857.159665 353.854414 
L 857.52901 353.205047 
L 859.006392 352.527448 
L 859.191064 352.019248 
L 859.745082 351.849848 
L 860.2991 351.256948 
L 860.483773 351.200482 
L 860.853118 350.946382 
L 861.037791 350.918149 
L 861.407136 350.494649 
L 861.776482 350.297016 
L 862.515172 350.014682 
L 862.699845 349.732349 
L 863.06919 349.675883 
L 863.253863 349.478249 
L 863.438536 349.450016 
L 863.623208 348.88535 
L 864.177226 348.71595 
L 864.361899 348.63125 
L 864.731244 348.264217 
L 864.915917 348.151284 
L 865.469935 347.530151 
L 866.947316 346.711384 
L 867.501334 346.570218 
L 867.686007 346.485518 
L 868.055352 346.062018 
L 868.240025 346.005551 
L 869.163388 345.299719 
L 869.717406 345.073852 
L 870.086751 344.904452 
L 870.271424 344.876219 
L 870.456097 344.311552 
L 871.010115 343.972753 
L 871.194787 343.43632 
L 871.564133 343.18222 
L 871.748805 342.956353 
L 871.933478 342.92812 
L 872.672169 342.306987 
L 873.410859 342.024654 
L 873.780205 341.770554 
L 874.888241 341.318821 
L 875.626931 340.471821 
L 876.365622 340.076555 
L 876.550295 339.878922 
L 876.734967 339.850688 
L 876.91964 339.540122 
L 879.320385 338.354323 
L 879.68973 338.156689 
L 880.059075 338.100223 
L 880.243748 337.959056 
L 880.797766 337.81789 
L 881.721129 337.196757 
L 883.013838 336.490924 
L 883.567856 336.265057 
L 885.045237 335.700391 
L 885.22991 334.683991 
L 885.783928 334.458125 
L 885.968601 334.204025 
L 886.153273 334.175792 
L 886.891964 333.131159 
L 887.076637 333.046459 
L 887.261309 332.707659 
L 887.630655 332.594726 
L 888.369345 331.663026 
L 888.738691 330.392527 
L 888.923363 329.997261 
L 889.292709 327.992695 
L 889.477381 327.145696 
L 890.400745 326.185763 
L 891.139435 323.672998 
L 891.324108 323.531831 
L 891.508781 323.164798 
L 891.693453 321.837832 
L 891.878126 321.442566 
L 892.062799 321.414332 
L 892.247471 320.793199 
L 892.801489 320.482633 
L 893.170835 319.6074 
L 895.202234 318.647467 
L 895.756252 318.054568 
L 896.125597 317.489901 
L 896.494943 317.376968 
L 896.864288 317.235801 
L 897.233633 317.038168 
L 897.602979 316.868768 
L 898.526342 316.671135 
L 898.895687 316.501735 
L 899.449705 316.445269 
L 901.111759 315.287703 
L 901.481105 315.090069 
L 901.665777 314.835969 
L 902.404468 314.58187 
L 902.589141 314.49717 
L 902.773813 313.876037 
L 903.327831 313.48077 
L 903.697177 313.424304 
L 904.435867 312.944337 
L 905.359231 312.662004 
L 905.728576 312.323204 
L 905.913249 312.294971 
L 906.467267 311.786771 
L 906.651939 311.391505 
L 907.021285 311.250338 
L 907.575303 310.318639 
L 907.759975 309.782206 
L 908.129321 309.556339 
L 908.683339 309.217539 
L 908.868011 308.96344 
L 909.237357 307.86234 
L 909.422029 307.636474 
L 909.606702 307.043574 
L 909.791374 306.987107 
L 909.976047 306.507141 
L 910.345392 306.337741 
L 911.453428 305.462508 
L 911.638101 305.067242 
L 912.007446 304.982542 
L 912.746137 304.643742 
L 913.484828 304.417875 
L 913.6695 303.824976 
L 914.408191 303.316776 
L 915.146882 303.09091 
L 915.885572 302.610943 
L 917.178281 301.679244 
L 917.362954 301.425144 
L 917.547626 300.860478 
L 918.655662 300.436978 
L 919.025008 300.013478 
L 919.394353 299.928778 
L 919.579026 299.589978 
L 919.948371 299.448812 
L 920.133044 299.166479 
L 922.164443 298.121846 
L 923.272479 296.992513 
L 923.457152 296.427847 
L 923.826497 295.94788 
L 924.01117 295.637314 
L 924.74986 292.305783 
L 925.119206 291.628183 
L 925.303878 291.289383 
L 925.488551 289.793017 
L 925.673224 286.941452 
L 926.965932 279.064357 
L 927.335278 275.224626 
L 927.704623 274.744659 
L 928.073968 269.775596 
L 928.258641 268.476863 
L 928.627986 263.056066 
L 928.997332 262.011433 
L 929.182004 259.188102 
L 929.366677 258.679902 
L 929.736022 255.60247 
L 930.105368 247.301875 
L 930.29004 246.878375 
L 930.474713 246.087843 
L 930.659386 243.546844 
L 930.844058 243.349211 
L 931.213404 239.08598 
L 931.582749 238.888347 
L 931.952094 238.097814 
L 932.136767 237.928414 
L 932.32144 237.533148 
L 932.506112 236.742615 
L 932.875458 236.573215 
L 933.429476 235.076849 
L 933.798821 232.931117 
L 933.983494 232.53585 
L 934.168166 232.479384 
L 934.352839 232.281751 
L 935.276202 230.277185 
L 935.460875 230.220718 
L 935.83022 229.684285 
L 936.199566 229.543119 
L 936.384238 229.119619 
L 936.568911 228.978452 
L 936.938256 228.554953 
L 937.307602 228.27262 
L 937.86162 227.820886 
L 938.046292 227.792653 
L 938.60031 227.25622 
L 939.154328 226.889187 
L 940.816382 226.296287 
L 941.555073 225.901021 
L 942.663109 225.449288 
L 942.847782 225.054021 
L 943.771145 224.828155 
L 944.509836 224.291722 
L 945.063854 223.783522 
L 945.433199 223.416489 
L 946.17189 223.162389 
L 946.725908 222.823589 
L 947.095253 222.56949 
L 947.464598 222.31539 
L 947.833944 222.117756 
L 948.018616 221.46839 
L 949.311325 220.593157 
L 949.865343 220.226124 
L 950.973379 219.633225 
L 951.158052 219.492058 
L 951.71207 219.435591 
L 952.081415 218.616825 
L 952.266087 218.532125 
L 952.635433 218.080392 
L 953.374123 217.431026 
L 953.558796 217.346326 
L 954.112814 216.640493 
L 954.297487 216.075827 
L 954.482159 215.93466 
L 954.851505 215.878193 
L 955.22085 215.539394 
L 955.959541 215.200594 
L 956.698231 214.861794 
L 957.067577 214.410061 
L 957.252249 214.381828 
L 957.436922 211.07853 
L 957.806267 210.626796 
L 958.175613 210.31623 
L 958.360285 209.97743 
L 958.544958 209.949197 
L 958.914303 209.582164 
L 959.098976 209.045731 
L 960.207012 207.916398 
L 960.391685 207.634065 
L 960.76103 206.052999 
L 960.945703 205.544799 
L 961.130375 204.6978 
L 961.315048 204.4437 
L 961.499721 203.370834 
L 961.869066 202.495601 
L 962.053739 201.818002 
L 962.792429 201.027469 
L 963.161775 200.575736 
L 963.53112 200.180469 
L 964.085138 200.011069 
L 964.639156 199.50287 
L 965.193174 198.627637 
L 965.377847 198.57117 
L 965.747192 198.204137 
L 965.931865 198.034737 
L 966.30121 197.357137 
L 966.670555 196.961871 
L 966.855228 196.030172 
L 968.147937 195.183172 
L 969.440645 193.573873 
L 969.809991 192.670407 
L 969.994663 192.501007 
L 970.548681 191.315208 
L 970.733354 191.230508 
L 971.656717 189.000076 
L 972.210735 188.181309 
L 972.764753 187.870743 
L 972.949426 187.390777 
L 973.872789 186.515544 
L 974.242135 185.414444 
L 974.980825 183.296946 
L 975.165498 181.828813 
L 975.350171 181.602947 
L 975.534843 180.360681 
L 975.904189 179.852481 
L 976.088861 179.400748 
L 976.458207 177.255016 
L 976.827552 176.43625 
L 977.012225 176.26685 
L 977.196897 169.067354 
L 977.38157 166.272255 
L 977.566243 149.868698 
L 978.120261 148.767599 
L 978.304933 148.598199 
L 978.674279 147.271233 
L 979.043624 146.367767 
L 980.15166 139.563538 
L 980.705678 138.180105 
L 980.890351 136.486106 
L 981.259696 135.893206 
L 981.629041 134.56624 
L 981.813714 132.900475 
L 981.998387 132.505208 
L 982.367732 131.347642 
L 982.92175 130.472409 
L 983.106423 130.38771 
L 984.029786 126.915012 
L 984.583804 125.390412 
L 984.953149 123.32938 
L 985.137822 123.272914 
L 985.322495 123.07528 
L 985.507167 123.047047 
L 985.876513 122.651781 
L 986.245858 121.663615 
L 986.615203 121.296581 
L 986.799876 120.816615 
L 987.169221 119.715516 
L 987.353894 119.574349 
L 987.723239 118.64265 
L 988.092585 116.948651 
L 988.277257 116.666317 
L 988.46193 116.609851 
L 988.831275 114.774685 
L 989.015948 114.407652 
L 989.569966 112.17722 
L 989.754639 111.866654 
L 991.047347 106.841123 
L 991.23202 106.699957 
L 991.970711 102.521426 
L 992.155383 102.408492 
L 992.340056 102.097926 
L 994.00211 96.451263 
L 994.371455 95.40663 
L 994.925473 93.486764 
L 995.110146 92.103332 
L 995.294818 91.849232 
L 996.033509 89.477633 
L 996.218182 89.28 
L 996.218182 89.28 
" clip-path="url(#p3f075d96c3)" style="fill: none; stroke: #1f77b4; stroke-width: 1.5; stroke-linecap: square"/>
   </g>
   <g id="patch_3">
    <path d="M 144 512.64 
L 144 69.12 
" style="fill: none; stroke: #000000; stroke-width: 0.8; stroke-linejoin: miter; stroke-linecap: square"/>
   </g>
   <g id="patch_4">
    <path d="M 1036.8 512.64 
L 1036.8 69.12 
" style="fill: none; stroke: #000000; stroke-width: 0.8; stroke-linejoin: miter; stroke-linecap: square"/>
   </g>
   <g id="patch_5">
    <path d="M 144 512.64 
L 1036.8 512.64 
" style="fill: none; stroke: #000000; stroke-width: 0.8; stroke-linejoin: miter; stroke-linecap: square"/>
   </g>
   <g id="patch_6">
    <path d="M 144 69.12 
L 1036.8 69.12 
" style="fill: none; stroke: #000000; stroke-width: 0.8; stroke-linejoin: miter; stroke-linecap: square"/>
   </g>
   <g id="text_16">
    <!-- Number of AEDs in the OpenStreetMap database in Poland from first edition, day by day. As at: 2026-02-22 -->
    <g transform="translate(144 63.12) scale(0.14 -0.14)">
     <defs>
      <path id="DejaVuSans-4e" d="M 628 4666 
L 1478 4666 
L 3547 763 
L 3547 4666 
L 4159 4666 
L 4159 0 
L 3309 0 
L 1241 3903 
L 1241 0 
L 628 0 
L 628 4666 
z
" transform="scale(0.015625)"/>
      <path id="DejaVuSans-75" d="M 544 1381 
L 544 3500 
L 1119 3500 
L 1119 1403 
Q 1119 906 1312 657 
Q 1506 409 1894 409 
Q 2359 409 2629 706 
Q 2900 1003 2900 1516 
L 2900 3500 
L 3475 3500 
L 3475 0 
L 2900 0 
L 2900 538 
Q 2691 219 2414 64 
Q 2138 -91 1772 -91 
Q 1169 -91 856 284 
Q 544 659 544 1381 
z
M 1991 3584 
L 1991 3584 
z
" transform="scale(0.015625)"/>
      <path id="DejaVuSans-6d" d="M 3328 2828 
Q 3544 3216 3844 3400 
Q 4144 3584 4550 3584 
Q 5097 3584 5394 3201 
Q 5691 2819 5691 2113 
L 5691 0 
L 5113 0 
L 5113 2094 
Q 5113 2597 4934 2840 
Q 4756 3084 4391 3084 
Q 3944 3084 3684 2787 
Q 3425 2491 3425 1978 
L 3425 0 
L 2847 0 
L 2847 2094 
Q 2847 2600 2669 2842 
Q 2491 3084 2119 3084 
Q 1678 3084 1418 2786 
Q 1159 2488 1159 1978 
L 1159 0 
L 581 0 
L 581 3500 
L 1159 3500 
L 1159 2956 
Q 1356 3278 1631 3431 
Q 1906 3584 2284 3584 
Q 2666 3584 2933 3390 
Q 3200 3197 3328 2828 
z
" transform="scale(0.015625)"/>
      <path id="DejaVuSans-62" d="M 3116 1747 
Q 3116 2381 2855 2742 
Q 2594 3103 2138 3103 
Q 1681 3103 1420 2742 
Q 1159 2381 1159 1747 
Q 1159 1113 1420 752 
Q 1681 391 2138 391 
Q 2594 391 2855 752 
Q 3116 1113 3116 1747 
z
M 1159 2969 
Q 1341 3281 1617 3432 
Q 1894 3584 2278 3584 
Q 2916 3584 3314 3078 
Q 3713 2572 3713 1747 
Q 3713 922 3314 415 
Q 2916 -91 2278 -91 
Q 1894 -91 1617 61 
Q 1341 213 1159 525 
L 1159 0 
L 581 0 
L 581 4863 
L 1159 4863 
L 1159 2969 
z
" transform="scale(0.015625)"/>
      <path id="DejaVuSans-65" d="M 3597 1894 
L 3597 1613 
L 953 1613 
Q 991 1019 1311 708 
Q 1631 397 2203 397 
Q 2534 397 2845 478 
Q 3156 559 3463 722 
L 3463 178 
Q 3153 47 2828 -22 
Q 2503 -91 2169 -91 
Q 1331 -91 842 396 
Q 353 884 353 1716 
Q 353 2575 817 3079 
Q 1281 3584 2069 3584 
Q 2775 3584 3186 3129 
Q 3597 2675 3597 1894 
z
M 3022 2063 
Q 3016 2534 2758 2815 
Q 2500 3097 2075 3097 
Q 1594 3097 1305 2825 
Q 1016 2553 972 2059 
L 3022 2063 
z
" transform="scale(0.015625)"/>
      <path id="DejaVuSans-72" d="M 2631 2963 
Q 2534 3019 2420 3045 
Q 2306 3072 2169 3072 
Q 1681 3072 1420 2755 
Q 1159 2438 1159 1844 
L 1159 0 
L 581 0 
L 581 3500 
L 1159 3500 
L 1159 2956 
Q 1341 3275 1631 3429 
Q 1922 3584 2338 3584 
Q 2397 3584 2469 3576 
Q 2541 3569 2628 3553 
L 2631 2963 
z
" transform="scale(0.015625)"/>
      <path id="DejaVuSans-20" transform="scale(0.015625)"/>
      <path id="DejaVuSans-6f" d="M 1959 3097 
Q 1497 3097 1228 2736 
Q 959 2375 959 1747 
Q 959 1119 1226 758 
Q 1494 397 1959 397 
Q 2419 397 2687 759 
Q 2956 1122 2956 1747 
Q 2956 2369 2687 2733 
Q 2419 3097 1959 3097 
z
M 1959 3584 
Q 2709 3584 3137 3096 
Q 3566 2609 3566 1747 
Q 3566 888 3137 398 
Q 2709 -91 1959 -91 
Q 1206 -91 779 398 
Q 353 888 353 1747 
Q 353 2609 779 3096 
Q 1206 3584 1959 3584 
z
" transform="scale(0.015625)"/>
      <path id="DejaVuSans-66" d="M 2375 4863 
L 2375 4384 
L 1825 4384 
Q 1516 4384 1395 4259 
Q 1275 4134 1275 3809 
L 1275 3500 
L 2222 3500 
L 2222 3053 
L 1275 3053 
L 1275 0 
L 697 0 
L 697 3053 
L 147 3053 
L 147 3500 
L 697 3500 
L 697 3744 
Q 697 4328 969 4595 
Q 1241 4863 1831 4863 
L 2375 4863 
z
" transform="scale(0.015625)"/>
      <path id="DejaVuSans-41" d="M 2188 4044 
L 1331 1722 
L 3047 1722 
L 2188 4044 
z
M 1831 4666 
L 2547 4666 
L 4325 0 
L 3669 0 
L 3244 1197 
L 1141 1197 
L 716 0 
L 50 0 
L 1831 4666 
z
" transform="scale(0.015625)"/>
      <path id="DejaVuSans-45" d="M 628 4666 
L 3578 4666 
L 3578 4134 
L 1259 4134 
L 1259 2753 
L 3481 2753 
L 3481 2222 
L 1259 2222 
L 1259 531 
L 3634 531 
L 3634 0 
L 628 0 
L 628 4666 
z
" transform="scale(0.015625)"/>
      <path id="DejaVuSans-44" d="M 1259 4147 
L 1259 519 
L 2022 519 
Q 2988 519 3436 956 
Q 3884 1394 3884 2338 
Q 3884 3275 3436 3711 
Q 2988 4147 2022 4147 
L 1259 4147 
z
M 628 4666 
L 1925 4666 
Q 3281 4666 3915 4102 
Q 4550 3538 4550 2338 
Q 4550 1131 3912 565 
Q 3275 0 1925 0 
L 628 0 
L 628 4666 
z
" transform="scale(0.015625)"/>
      <path id="DejaVuSans-73" d="M 2834 3397 
L 2834 2853 
Q 2591 2978 2328 3040 
Q 2066 3103 1784 3103 
Q 1356 3103 1142 2972 
Q 928 2841 928 2578 
Q 928 2378 1081 2264 
Q 1234 2150 1697 2047 
L 1894 2003 
Q 2506 1872 2764 1633 
Q 3022 1394 3022 966 
Q 3022 478 2636 193 
Q 2250 -91 1575 -91 
Q 1294 -91 989 -36 
Q 684 19 347 128 
L 347 722 
Q 666 556 975 473 
Q 1284 391 1588 391 
Q 1994 391 2212 530 
Q 2431 669 2431 922 
Q 2431 1156 2273 1281 
Q 2116 1406 1581 1522 
L 1381 1569 
Q 847 1681 609 1914 
Q 372 2147 372 2553 
Q 372 3047 722 3315 
Q 1072 3584 1716 3584 
Q 2034 3584 2315 3537 
Q 2597 3491 2834 3397 
z
" transform="scale(0.015625)"/>
      <path id="DejaVuSans-69" d="M 603 3500 
L 1178 3500 
L 1178 0 
L 603 0 
L 603 3500 
z
M 603 4863 
L 1178 4863 
L 1178 4134 
L 603 4134 
L 603 4863 
z
" transform="scale(0.015625)"/>
      <path id="DejaVuSans-6e" d="M 3513 2113 
L 3513 0 
L 2938 0 
L 2938 2094 
Q 2938 2591 2744 2837 
Q 2550 3084 2163 3084 
Q 1697 3084 1428 2787 
Q 1159 2491 1159 1978 
L 1159 0 
L 581 0 
L 581 3500 
L 1159 3500 
L 1159 2956 
Q 1366 3272 1645 3428 
Q 1925 3584 2291 3584 
Q 2894 3584 3203 3211 
Q 3513 2838 3513 2113 
z
" transform="scale(0.015625)"/>
      <path id="DejaVuSans-74" d="M 1172 4494 
L 1172 3500 
L 2356 3500 
L 2356 3053 
L 1172 3053 
L 1172 1153 
Q 1172 725 1289 603 
Q 1406 481 1766 481 
L 2356 481 
L 2356 0 
L 1766 0 
Q 1100 0 847 248 
Q 594 497 594 1153 
L 594 3053 
L 172 3053 
L 172 3500 
L 594 3500 
L 594 4494 
L 1172 4494 
z
" transform="scale(0.015625)"/>
      <path id="DejaVuSans-68" d="M 3513 2113 
L 3513 0 
L 2938 0 
L 2938 2094 
Q 2938 2591 2744 2837 
Q 2550 3084 2163 3084 
Q 1697 3084 1428 2787 
Q 1159 2491 1159 1978 
L 1159 0 
L 581 0 
L 581 4863 
L 1159 4863 
L 1159 2956 
Q 1366 3272 1645 3428 
Q 1925 3584 2291 3584 
Q 2894 3584 3203 3211 
Q 3513 2838 3513 2113 
z
" transform="scale(0.015625)"/>
      <path id="DejaVuSans-4f" d="M 2522 4238 
Q 1834 4238 1429 3725 
Q 1025 3213 1025 2328 
Q 1025 1447 1429 934 
Q 1834 422 2522 422 
Q 3209 422 3611 934 
Q 4013 1447 4013 2328 
Q 4013 3213 3611 3725 
Q 3209 4238 2522 4238 
z
M 2522 4750 
Q 3503 4750 4090 4092 
Q 4678 3434 4678 2328 
Q 4678 1225 4090 567 
Q 3503 -91 2522 -91 
Q 1538 -91 948 565 
Q 359 1222 359 2328 
Q 359 3434 948 4092 
Q 1538 4750 2522 4750 
z
" transform="scale(0.015625)"/>
      <path id="DejaVuSans-70" d="M 1159 525 
L 1159 -1331 
L 581 -1331 
L 581 3500 
L 1159 3500 
L 1159 2969 
Q 1341 3281 1617 3432 
Q 1894 3584 2278 3584 
Q 2916 3584 3314 3078 
Q 3713 2572 3713 1747 
Q 3713 922 3314 415 
Q 2916 -91 2278 -91 
Q 1894 -91 1617 61 
Q 1341 213 1159 525 
z
M 3116 1747 
Q 3116 2381 2855 2742 
Q 2594 3103 2138 3103 
Q 1681 3103 1420 2742 
Q 1159 2381 1159 1747 
Q 1159 1113 1420 752 
Q 1681 391 2138 391 
Q 2594 391 2855 752 
Q 3116 1113 3116 1747 
z
" transform="scale(0.015625)"/>
      <path id="DejaVuSans-53" d="M 3425 4513 
L 3425 3897 
Q 3066 4069 2747 4153 
Q 2428 4238 2131 4238 
Q 1616 4238 1336 4038 
Q 1056 3838 1056 3469 
Q 1056 3159 1242 3001 
Q 1428 2844 1947 2747 
L 2328 2669 
Q 3034 2534 3370 2195 
Q 3706 1856 3706 1288 
Q 3706 609 3251 259 
Q 2797 -91 1919 -91 
Q 1588 -91 1214 -16 
Q 841 59 441 206 
L 441 856 
Q 825 641 1194 531 
Q 1563 422 1919 422 
Q 2459 422 2753 634 
Q 3047 847 3047 1241 
Q 3047 1584 2836 1778 
Q 2625 1972 2144 2069 
L 1759 2144 
Q 1053 2284 737 2584 
Q 422 2884 422 3419 
Q 422 4038 858 4394 
Q 1294 4750 2059 4750 
Q 2388 4750 2728 4690 
Q 3069 4631 3425 4513 
z
" transform="scale(0.015625)"/>
      <path id="DejaVuSans-4d" d="M 628 4666 
L 1569 4666 
L 2759 1491 
L 3956 4666 
L 4897 4666 
L 4897 0 
L 4281 0 
L 4281 4097 
L 3078 897 
L 2444 897 
L 1241 4097 
L 1241 0 
L 628 0 
L 628 4666 
z
" transform="scale(0.015625)"/>
      <path id="DejaVuSans-61" d="M 2194 1759 
Q 1497 1759 1228 1600 
Q 959 1441 959 1056 
Q 959 750 1161 570 
Q 1363 391 1709 391 
Q 2188 391 2477 730 
Q 2766 1069 2766 1631 
L 2766 1759 
L 2194 1759 
z
M 3341 1997 
L 3341 0 
L 2766 0 
L 2766 531 
Q 2569 213 2275 61 
Q 1981 -91 1556 -91 
Q 1019 -91 701 211 
Q 384 513 384 1019 
Q 384 1609 779 1909 
Q 1175 2209 1959 2209 
L 2766 2209 
L 2766 2266 
Q 2766 2663 2505 2880 
Q 2244 3097 1772 3097 
Q 1472 3097 1187 3025 
Q 903 2953 641 2809 
L 641 3341 
Q 956 3463 1253 3523 
Q 1550 3584 1831 3584 
Q 2591 3584 2966 3190 
Q 3341 2797 3341 1997 
z
" transform="scale(0.015625)"/>
      <path id="DejaVuSans-64" d="M 2906 2969 
L 2906 4863 
L 3481 4863 
L 3481 0 
L 2906 0 
L 2906 525 
Q 2725 213 2448 61 
Q 2172 -91 1784 -91 
Q 1150 -91 751 415 
Q 353 922 353 1747 
Q 353 2572 751 3078 
Q 1150 3584 1784 3584 
Q 2172 3584 2448 3432 
Q 2725 3281 2906 2969 
z
M 947 1747 
Q 947 1113 1208 752 
Q 1469 391 1925 391 
Q 2381 391 2643 752 
Q 2906 1113 2906 1747 
Q 2906 2381 2643 2742 
Q 2381 3103 1925 3103 
Q 1469 3103 1208 2742 
Q 947 2381 947 1747 
z
" transform="scale(0.015625)"/>
      <path id="DejaVuSans-50" d="M 1259 4147 
L 1259 2394 
L 2053 2394 
Q 2494 2394 2734 2622 
Q 2975 2850 2975 3272 
Q 2975 3691 2734 3919 
Q 2494 4147 2053 4147 
L 1259 4147 
z
M 628 4666 
L 2053 4666 
Q 2838 4666 3239 4311 
Q 3641 3956 3641 3272 
Q 3641 2581 3239 2228 
Q 2838 1875 2053 1875 
L 1259 1875 
L 1259 0 
L 628 0 
L 628 4666 
z
" transform="scale(0.015625)"/>
      <path id="DejaVuSans-6c" d="M 603 4863 
L 1178 4863 
L 1178 0 
L 603 0 
L 603 4863 
z
" transform="scale(0.015625)"/>
      <path id="DejaVuSans-2c" d="M 750 794 
L 1409 794 
L 1409 256 
L 897 -744 
L 494 -744 
L 750 256 
L 750 794 
z
" transform="scale(0.015625)"/>
      <path id="DejaVuSans-79" d="M 2059 -325 
Q 1816 -950 1584 -1140 
Q 1353 -1331 966 -1331 
L 506 -1331 
L 506 -850 
L 844 -850 
Q 1081 -850 1212 -737 
Q 1344 -625 1503 -206 
L 1606 56 
L 191 3500 
L 800 3500 
L 1894 763 
L 2988 3500 
L 3597 3500 
L 2059 -325 
z
" transform="scale(0.015625)"/>
      <path id="DejaVuSans-2e" d="M 684 794 
L 1344 794 
L 1344 0 
L 684 0 
L 684 794 
z
" transform="scale(0.015625)"/>
      <path id="DejaVuSans-3a" d="M 750 794 
L 1409 794 
L 1409 0 
L 750 0 
L 750 794 
z
M 750 3309 
L 1409 3309 
L 1409 2516 
L 750 2516 
L 750 3309 
z
" transform="scale(0.015625)"/>
      <path id="DejaVuSans-2d" d="M 313 2009 
L 1997 2009 
L 1997 1497 
L 313 1497 
L 313 2009 
z
" transform="scale(0.015625)"/>
     </defs>
     <use xlink:href="#DejaVuSans-4e"/>
     <use xlink:href="#DejaVuSans-75" x="74.804688"/>
     <use xlink:href="#DejaVuSans-6d" x="138.183594"/>
     <use xlink:href="#DejaVuSans-62" x="235.595703"/>
     <use xlink:href="#DejaVuSans-65" x="299.072266"/>
     <use xlink:href="#DejaVuSans-72" x="360.595703"/>
     <use xlink:href="#DejaVuSans-20" x="401.708984"/>
     <use xlink:href="#DejaVuSans-6f" x="433.496094"/>
     <use xlink:href="#DejaVuSans-66" x="494.677734"/>
     <use xlink:href="#DejaVuSans-20" x="529.882812"/>
     <use xlink:href="#DejaVuSans-41" x="561.669922"/>
     <use xlink:href="#DejaVuSans-45" x="630.078125"/>
     <use xlink:href="#DejaVuSans-44" x="693.261719"/>
     <use xlink:href="#DejaVuSans-73" x="770.263672"/>
     <use xlink:href="#DejaVuSans-20" x="822.363281"/>
     <use xlink:href="#DejaVuSans-69" x="854.150391"/>
     <use xlink:href="#DejaVuSans-6e" x="881.933594"/>
     <use xlink:href="#DejaVuSans-20" x="945.3125"/>
     <use xlink:href="#DejaVuSans-74" x="977.099609"/>
     <use xlink:href="#DejaVuSans-68" x="1016.308594"/>
     <use xlink:href="#DejaVuSans-65" x="1079.6875"/>
     <use xlink:href="#DejaVuSans-20" x="1141.210938"/>
     <use xlink:href="#DejaVuSans-4f" x="1172.998047"/>
     <use xlink:href="#DejaVuSans-70" x="1251.708984"/>
     <use xlink:href="#DejaVuSans-65" x="1315.185547"/>
     <use xlink:href="#DejaVuSans-6e" x="1376.708984"/>
     <use xlink:href="#DejaVuSans-53" x="1440.087891"/>
     <use xlink:href="#DejaVuSans-74" x="1503.564453"/>
     <use xlink:href="#DejaVuSans-72" x="1542.773438"/>
     <use xlink:href="#DejaVuSans-65" x="1581.636719"/>
     <use xlink:href="#DejaVuSans-65" x="1643.160156"/>
     <use xlink:href="#DejaVuSans-74" x="1704.683594"/>
     <use xlink:href="#DejaVuSans-4d" x="1743.892578"/>
     <use xlink:href="#DejaVuSans-61" x="1830.171875"/>
     <use xlink:href="#DejaVuSans-70" x="1891.451172"/>
     <use xlink:href="#DejaVuSans-20" x="1954.927734"/>
     <use xlink:href="#DejaVuSans-64" x="1986.714844"/>
     <use xlink:href="#DejaVuSans-61" x="2050.191406"/>
     <use xlink:href="#DejaVuSans-74" x="2111.470703"/>
     <use xlink:href="#DejaVuSans-61" x="2150.679688"/>
     <use xlink:href="#DejaVuSans-62" x="2211.958984"/>
     <use xlink:href="#DejaVuSans-61" x="2275.435547"/>
     <use xlink:href="#DejaVuSans-73" x="2336.714844"/>
     <use xlink:href="#DejaVuSans-65" x="2388.814453"/>
     <use xlink:href="#DejaVuSans-20" x="2450.337891"/>
     <use xlink:href="#DejaVuSans-69" x="2482.125"/>
     <use xlink:href="#DejaVuSans-6e" x="2509.908203"/>
     <use xlink:href="#DejaVuSans-20" x="2573.287109"/>
     <use xlink:href="#DejaVuSans-50" x="2605.074219"/>
     <use xlink:href="#DejaVuSans-6f" x="2661.751953"/>
     <use xlink:href="#DejaVuSans-6c" x="2722.933594"/>
     <use xlink:href="#DejaVuSans-61" x="2750.716797"/>
     <use xlink:href="#DejaVuSans-6e" x="2811.996094"/>
     <use xlink:href="#DejaVuSans-64" x="2875.375"/>
     <use xlink:href="#DejaVuSans-20" x="2938.851562"/>
     <use xlink:href="#DejaVuSans-66" x="2970.638672"/>
     <use xlink:href="#DejaVuSans-72" x="3005.84375"/>
     <use xlink:href="#DejaVuSans-6f" x="3044.707031"/>
     <use xlink:href="#DejaVuSans-6d" x="3105.888672"/>
     <use xlink:href="#DejaVuSans-20" x="3203.300781"/>
     <use xlink:href="#DejaVuSans-66" x="3235.087891"/>
     <use xlink:href="#DejaVuSans-69" x="3270.292969"/>
     <use xlink:href="#DejaVuSans-72" x="3298.076172"/>
     <use xlink:href="#DejaVuSans-73" x="3339.189453"/>
     <use xlink:href="#DejaVuSans-74" x="3391.289062"/>
     <use xlink:href="#DejaVuSans-20" x="3430.498047"/>
     <use xlink:href="#DejaVuSans-65" x="3462.285156"/>
     <use xlink:href="#DejaVuSans-64" x="3523.808594"/>
     <use xlink:href="#DejaVuSans-69" x="3587.285156"/>
     <use xlink:href="#DejaVuSans-74" x="3615.068359"/>
     <use xlink:href="#DejaVuSans-69" x="3654.277344"/>
     <use xlink:href="#DejaVuSans-6f" x="3682.060547"/>
     <use xlink:href="#DejaVuSans-6e" x="3743.242188"/>
     <use xlink:href="#DejaVuSans-2c" x="3806.621094"/>
     <use xlink:href="#DejaVuSans-20" x="3838.408203"/>
     <use xlink:href="#DejaVuSans-64" x="3870.195312"/>
     <use xlink:href="#DejaVuSans-61" x="3933.671875"/>
     <use xlink:href="#DejaVuSans-79" x="3994.951172"/>
     <use xlink:href="#DejaVuSans-20" x="4054.130859"/>
     <use xlink:href="#DejaVuSans-62" x="4085.917969"/>
     <use xlink:href="#DejaVuSans-79" x="4149.394531"/>
     <use xlink:href="#DejaVuSans-20" x="4208.574219"/>
     <use xlink:href="#DejaVuSans-64" x="4240.361328"/>
     <use xlink:href="#DejaVuSans-61" x="4303.837891"/>
     <use xlink:href="#DejaVuSans-79" x="4365.117188"/>
     <use xlink:href="#DejaVuSans-2e" x="4410.046875"/>
     <use xlink:href="#DejaVuSans-20" x="4441.833984"/>
     <use xlink:href="#DejaVuSans-41" x="4473.621094"/>
     <use xlink:href="#DejaVuSans-73" x="4542.029297"/>
     <use xlink:href="#DejaVuSans-20" x="4594.128906"/>
     <use xlink:href="#DejaVuSans-61" x="4625.916016"/>
     <use xlink:href="#DejaVuSans-74" x="4687.195312"/>
     <use xlink:href="#DejaVuSans-3a" x="4726.404297"/>
     <use xlink:href="#DejaVuSans-20" x="4760.095703"/>
     <use xlink:href="#DejaVuSans-32" x="4791.882812"/>
     <use xlink:href="#DejaVuSans-30" x="4855.505859"/>
     <use xlink:href="#DejaVuSans-32" x="4919.128906"/>
     <use xlink:href="#DejaVuSans-36" x="4982.751953"/>
     <use xlink:href="#DejaVuSans-2d" x="5046.375"/>
     <use xlink:href="#DejaVuSans-30" x="5082.458984"/>
     <use xlink:href="#DejaVuSans-32" x="5146.082031"/>
     <use xlink:href="#DejaVuSans-2d" x="5209.705078"/>
     <use xlink:href="#DejaVuSans-32" x="5245.789062"/>
     <use xlink:href="#DejaVuSans-32" x="5309.412109"/>
    </g>
   </g>
  </g>
 </g>
 <defs>
  <clipPath id="p3f075d96c3">
   <rect x="144" y="69.12" width="892.8" height="443.52"/>
  </clipPath>
 </defs>
</svg>
