<?xml version="1.0" encoding="utf-8" standalone="no"?>
<!DOCTYPE svg PUBLIC "-//W3C//DTD SVG 1.1//EN"
  "http://www.w3.org/Graphics/SVG/1.1/DTD/svg11.dtd">
<svg xmlns:xlink="http://www.w3.org/1999/xlink" width="1152pt" height="576pt" viewBox="0 0 1152 576" xmlns="http://www.w3.org/2000/svg" version="1.1">
 <metadata>
  <rdf:RDF xmlns:dc="http://purl.org/dc/elements/1.1/" xmlns:cc="http://creativecommons.org/ns#" xmlns:rdf="http://www.w3.org/1999/02/22-rdf-syntax-ns#">
   <cc:Work>
    <dc:type rdf:resource="http://purl.org/dc/dcmitype/StillImage"/>
    <dc:date>1980-01-01T00:00:00+00:00</dc:date>
    <dc:format>image/svg+xml</dc:format>
    <dc:creator>
     <cc:Agent>
      <dc:title>Matplotlib v3.9.1, https://matplotlib.org/</dc:title>
     </cc:Agent>
    </dc:creator>
   </cc:Work>
  </rdf:RDF>
 </metadata>
 <defs>
  <style type="text/css">*{stroke-linejoin: round; stroke-linecap: butt}</style>
 </defs>
 <g id="figure_1">
  <g id="patch_1">
   <path d="M 0 576 
L 1152 576 
L 1152 0 
L 0 0 
z
" style="fill: #ffffff"/>
  </g>
  <g id="axes_1">
   <g id="patch_2">
    <path d="M 144 512.64 
L 1036.8 512.64 
L 1036.8 69.12 
L 144 69.12 
z
" style="fill: #ffffff"/>
   </g>
   <g id="matplotlib.axis_1">
    <g id="xtick_1">
     <g id="line2d_1">
      <defs>
       <path id="meb99b1c0eb" d="M 0 0 
L 0 3.5 
" style="stroke: #000000; stroke-width: 0.8"/>
      </defs>
      <g>
       <use xlink:href="#meb99b1c0eb" x="176.844579" y="512.64" style="stroke: #000000; stroke-width: 0.8"/>
      </g>
     </g>
     <g id="text_1">
      <!-- 2014 -->
      <g transform="translate(164.119579 527.238438) scale(0.1 -0.1)">
       <defs>
        <path id="DejaVuSans-32" d="M 1228 531 
L 3431 531 
L 3431 0 
L 469 0 
L 469 531 
Q 828 903 1448 1529 
Q 2069 2156 2228 2338 
Q 2531 2678 2651 2914 
Q 2772 3150 2772 3378 
Q 2772 3750 2511 3984 
Q 2250 4219 1831 4219 
Q 1534 4219 1204 4116 
Q 875 4013 500 3803 
L 500 4441 
Q 881 4594 1212 4672 
Q 1544 4750 1819 4750 
Q 2544 4750 2975 4387 
Q 3406 4025 3406 3419 
Q 3406 3131 3298 2873 
Q 3191 2616 2906 2266 
Q 2828 2175 2409 1742 
Q 1991 1309 1228 531 
z
" transform="scale(0.015625)"/>
        <path id="DejaVuSans-30" d="M 2034 4250 
Q 1547 4250 1301 3770 
Q 1056 3291 1056 2328 
Q 1056 1369 1301 889 
Q 1547 409 2034 409 
Q 2525 409 2770 889 
Q 3016 1369 3016 2328 
Q 3016 3291 2770 3770 
Q 2525 4250 2034 4250 
z
M 2034 4750 
Q 2819 4750 3233 4129 
Q 3647 3509 3647 2328 
Q 3647 1150 3233 529 
Q 2819 -91 2034 -91 
Q 1250 -91 836 529 
Q 422 1150 422 2328 
Q 422 3509 836 4129 
Q 1250 4750 2034 4750 
z
" transform="scale(0.015625)"/>
        <path id="DejaVuSans-31" d="M 794 531 
L 1825 531 
L 1825 4091 
L 703 3866 
L 703 4441 
L 1819 4666 
L 2450 4666 
L 2450 531 
L 3481 531 
L 3481 0 
L 794 0 
L 794 531 
z
" transform="scale(0.015625)"/>
        <path id="DejaVuSans-34" d="M 2419 4116 
L 825 1625 
L 2419 1625 
L 2419 4116 
z
M 2253 4666 
L 3047 4666 
L 3047 1625 
L 3713 1625 
L 3713 1100 
L 3047 1100 
L 3047 0 
L 2419 0 
L 2419 1100 
L 313 1100 
L 313 1709 
L 2253 4666 
z
" transform="scale(0.015625)"/>
       </defs>
       <use xlink:href="#DejaVuSans-32"/>
       <use xlink:href="#DejaVuSans-30" x="63.623047"/>
       <use xlink:href="#DejaVuSans-31" x="127.246094"/>
       <use xlink:href="#DejaVuSans-34" x="190.869141"/>
      </g>
     </g>
    </g>
    <g id="xtick_2">
     <g id="line2d_2">
      <g>
       <use xlink:href="#meb99b1c0eb" x="318.04919" y="512.64" style="stroke: #000000; stroke-width: 0.8"/>
      </g>
     </g>
     <g id="text_2">
      <!-- 2016 -->
      <g transform="translate(305.32419 527.238438) scale(0.1 -0.1)">
       <defs>
        <path id="DejaVuSans-36" d="M 2113 2584 
Q 1688 2584 1439 2293 
Q 1191 2003 1191 1497 
Q 1191 994 1439 701 
Q 1688 409 2113 409 
Q 2538 409 2786 701 
Q 3034 994 3034 1497 
Q 3034 2003 2786 2293 
Q 2538 2584 2113 2584 
z
M 3366 4563 
L 3366 3988 
Q 3128 4100 2886 4159 
Q 2644 4219 2406 4219 
Q 1781 4219 1451 3797 
Q 1122 3375 1075 2522 
Q 1259 2794 1537 2939 
Q 1816 3084 2150 3084 
Q 2853 3084 3261 2657 
Q 3669 2231 3669 1497 
Q 3669 778 3244 343 
Q 2819 -91 2113 -91 
Q 1303 -91 875 529 
Q 447 1150 447 2328 
Q 447 3434 972 4092 
Q 1497 4750 2381 4750 
Q 2619 4750 2861 4703 
Q 3103 4656 3366 4563 
z
" transform="scale(0.015625)"/>
       </defs>
       <use xlink:href="#DejaVuSans-32"/>
       <use xlink:href="#DejaVuSans-30" x="63.623047"/>
       <use xlink:href="#DejaVuSans-31" x="127.246094"/>
       <use xlink:href="#DejaVuSans-36" x="190.869141"/>
      </g>
     </g>
    </g>
    <g id="xtick_3">
     <g id="line2d_3">
      <g>
       <use xlink:href="#meb99b1c0eb" x="459.447231" y="512.64" style="stroke: #000000; stroke-width: 0.8"/>
      </g>
     </g>
     <g id="text_3">
      <!-- 2018 -->
      <g transform="translate(446.722231 527.238438) scale(0.1 -0.1)">
       <defs>
        <path id="DejaVuSans-38" d="M 2034 2216 
Q 1584 2216 1326 1975 
Q 1069 1734 1069 1313 
Q 1069 891 1326 650 
Q 1584 409 2034 409 
Q 2484 409 2743 651 
Q 3003 894 3003 1313 
Q 3003 1734 2745 1975 
Q 2488 2216 2034 2216 
z
M 1403 2484 
Q 997 2584 770 2862 
Q 544 3141 544 3541 
Q 544 4100 942 4425 
Q 1341 4750 2034 4750 
Q 2731 4750 3128 4425 
Q 3525 4100 3525 3541 
Q 3525 3141 3298 2862 
Q 3072 2584 2669 2484 
Q 3125 2378 3379 2068 
Q 3634 1759 3634 1313 
Q 3634 634 3220 271 
Q 2806 -91 2034 -91 
Q 1263 -91 848 271 
Q 434 634 434 1313 
Q 434 1759 690 2068 
Q 947 2378 1403 2484 
z
M 1172 3481 
Q 1172 3119 1398 2916 
Q 1625 2713 2034 2713 
Q 2441 2713 2670 2916 
Q 2900 3119 2900 3481 
Q 2900 3844 2670 4047 
Q 2441 4250 2034 4250 
Q 1625 4250 1398 4047 
Q 1172 3844 1172 3481 
z
" transform="scale(0.015625)"/>
       </defs>
       <use xlink:href="#DejaVuSans-32"/>
       <use xlink:href="#DejaVuSans-30" x="63.623047"/>
       <use xlink:href="#DejaVuSans-31" x="127.246094"/>
       <use xlink:href="#DejaVuSans-38" x="190.869141"/>
      </g>
     </g>
    </g>
    <g id="xtick_4">
     <g id="line2d_4">
      <g>
       <use xlink:href="#meb99b1c0eb" x="600.651842" y="512.64" style="stroke: #000000; stroke-width: 0.8"/>
      </g>
     </g>
     <g id="text_4">
      <!-- 2020 -->
      <g transform="translate(587.926842 527.238438) scale(0.1 -0.1)">
       <use xlink:href="#DejaVuSans-32"/>
       <use xlink:href="#DejaVuSans-30" x="63.623047"/>
       <use xlink:href="#DejaVuSans-32" x="127.246094"/>
       <use xlink:href="#DejaVuSans-30" x="190.869141"/>
      </g>
     </g>
    </g>
    <g id="xtick_5">
     <g id="line2d_5">
      <g>
       <use xlink:href="#meb99b1c0eb" x="742.049883" y="512.64" style="stroke: #000000; stroke-width: 0.8"/>
      </g>
     </g>
     <g id="text_5">
      <!-- 2022 -->
      <g transform="translate(729.324883 527.238438) scale(0.1 -0.1)">
       <use xlink:href="#DejaVuSans-32"/>
       <use xlink:href="#DejaVuSans-30" x="63.623047"/>
       <use xlink:href="#DejaVuSans-32" x="127.246094"/>
       <use xlink:href="#DejaVuSans-32" x="190.869141"/>
      </g>
     </g>
    </g>
    <g id="xtick_6">
     <g id="line2d_6">
      <g>
       <use xlink:href="#meb99b1c0eb" x="883.254493" y="512.64" style="stroke: #000000; stroke-width: 0.8"/>
      </g>
     </g>
     <g id="text_6">
      <!-- 2024 -->
      <g transform="translate(870.529493 527.238438) scale(0.1 -0.1)">
       <use xlink:href="#DejaVuSans-32"/>
       <use xlink:href="#DejaVuSans-30" x="63.623047"/>
       <use xlink:href="#DejaVuSans-32" x="127.246094"/>
       <use xlink:href="#DejaVuSans-34" x="190.869141"/>
      </g>
     </g>
    </g>
    <g id="xtick_7">
     <g id="line2d_7">
      <g>
       <use xlink:href="#meb99b1c0eb" x="1024.652535" y="512.64" style="stroke: #000000; stroke-width: 0.8"/>
      </g>
     </g>
     <g id="text_7">
      <!-- 2026 -->
      <g transform="translate(1011.927535 527.238438) scale(0.1 -0.1)">
       <use xlink:href="#DejaVuSans-32"/>
       <use xlink:href="#DejaVuSans-30" x="63.623047"/>
       <use xlink:href="#DejaVuSans-32" x="127.246094"/>
       <use xlink:href="#DejaVuSans-36" x="190.869141"/>
      </g>
     </g>
    </g>
   </g>
   <g id="matplotlib.axis_2">
    <g id="ytick_1">
     <g id="line2d_8">
      <defs>
       <path id="m89f847bc8c" d="M 0 0 
L -3.5 0 
" style="stroke: #000000; stroke-width: 0.8"/>
      </defs>
      <g>
       <use xlink:href="#m89f847bc8c" x="144" y="492.514897" style="stroke: #000000; stroke-width: 0.8"/>
      </g>
     </g>
     <g id="text_8">
      <!-- 0 -->
      <g transform="translate(130.6375 496.314116) scale(0.1 -0.1)">
       <use xlink:href="#DejaVuSans-30"/>
      </g>
     </g>
    </g>
    <g id="ytick_2">
     <g id="line2d_9">
      <g>
       <use xlink:href="#m89f847bc8c" x="144" y="422.720886" style="stroke: #000000; stroke-width: 0.8"/>
      </g>
     </g>
     <g id="text_9">
      <!-- 2000 -->
      <g transform="translate(111.55 426.520105) scale(0.1 -0.1)">
       <use xlink:href="#DejaVuSans-32"/>
       <use xlink:href="#DejaVuSans-30" x="63.623047"/>
       <use xlink:href="#DejaVuSans-30" x="127.246094"/>
       <use xlink:href="#DejaVuSans-30" x="190.869141"/>
      </g>
     </g>
    </g>
    <g id="ytick_3">
     <g id="line2d_10">
      <g>
       <use xlink:href="#m89f847bc8c" x="144" y="352.926876" style="stroke: #000000; stroke-width: 0.8"/>
      </g>
     </g>
     <g id="text_10">
      <!-- 4000 -->
      <g transform="translate(111.55 356.726094) scale(0.1 -0.1)">
       <use xlink:href="#DejaVuSans-34"/>
       <use xlink:href="#DejaVuSans-30" x="63.623047"/>
       <use xlink:href="#DejaVuSans-30" x="127.246094"/>
       <use xlink:href="#DejaVuSans-30" x="190.869141"/>
      </g>
     </g>
    </g>
    <g id="ytick_4">
     <g id="line2d_11">
      <g>
       <use xlink:href="#m89f847bc8c" x="144" y="283.132865" style="stroke: #000000; stroke-width: 0.8"/>
      </g>
     </g>
     <g id="text_11">
      <!-- 6000 -->
      <g transform="translate(111.55 286.932084) scale(0.1 -0.1)">
       <use xlink:href="#DejaVuSans-36"/>
       <use xlink:href="#DejaVuSans-30" x="63.623047"/>
       <use xlink:href="#DejaVuSans-30" x="127.246094"/>
       <use xlink:href="#DejaVuSans-30" x="190.869141"/>
      </g>
     </g>
    </g>
    <g id="ytick_5">
     <g id="line2d_12">
      <g>
       <use xlink:href="#m89f847bc8c" x="144" y="213.338854" style="stroke: #000000; stroke-width: 0.8"/>
      </g>
     </g>
     <g id="text_12">
      <!-- 8000 -->
      <g transform="translate(111.55 217.138073) scale(0.1 -0.1)">
       <use xlink:href="#DejaVuSans-38"/>
       <use xlink:href="#DejaVuSans-30" x="63.623047"/>
       <use xlink:href="#DejaVuSans-30" x="127.246094"/>
       <use xlink:href="#DejaVuSans-30" x="190.869141"/>
      </g>
     </g>
    </g>
    <g id="ytick_6">
     <g id="line2d_13">
      <g>
       <use xlink:href="#m89f847bc8c" x="144" y="143.544843" style="stroke: #000000; stroke-width: 0.8"/>
      </g>
     </g>
     <g id="text_13">
      <!-- 10000 -->
      <g transform="translate(105.1875 147.344062) scale(0.1 -0.1)">
       <use xlink:href="#DejaVuSans-31"/>
       <use xlink:href="#DejaVuSans-30" x="63.623047"/>
       <use xlink:href="#DejaVuSans-30" x="127.246094"/>
       <use xlink:href="#DejaVuSans-30" x="190.869141"/>
       <use xlink:href="#DejaVuSans-30" x="254.492188"/>
      </g>
     </g>
    </g>
    <g id="ytick_7">
     <g id="line2d_14">
      <g>
       <use xlink:href="#m89f847bc8c" x="144" y="73.750833" style="stroke: #000000; stroke-width: 0.8"/>
      </g>
     </g>
     <g id="text_14">
      <!-- 12000 -->
      <g transform="translate(105.1875 77.550051) scale(0.1 -0.1)">
       <use xlink:href="#DejaVuSans-31"/>
       <use xlink:href="#DejaVuSans-32" x="63.623047"/>
       <use xlink:href="#DejaVuSans-30" x="127.246094"/>
       <use xlink:href="#DejaVuSans-30" x="190.869141"/>
       <use xlink:href="#DejaVuSans-30" x="254.492188"/>
      </g>
     </g>
    </g>
   </g>
   <g id="line2d_15">
    <path d="M 184.581818 492.48 
L 186.322697 492.410206 
L 307.217055 492.200824 
L 448.808528 492.026339 
L 501.421752 491.816957 
L 515.155351 491.712266 
L 548.038617 491.537781 
L 549.586065 491.467987 
L 558.483889 491.363296 
L 600.845273 491.153914 
L 607.035064 491.08412 
L 607.421926 490.804944 
L 611.483976 490.630459 
L 645.527827 490.490871 
L 649.396447 490.38618 
L 665.257787 490.211695 
L 684.600884 490.03721 
L 693.69214 489.758034 
L 701.429379 489.583549 
L 704.330843 489.374167 
L 705.68486 489.199681 
L 713.228668 488.990299 
L 717.290718 488.850711 
L 723.673941 488.39705 
L 733.732351 488.152771 
L 738.374695 486.721994 
L 738.568125 486.582406 
L 740.309004 486.407921 
L 741.082728 485.849569 
L 741.276159 484.977144 
L 741.663021 484.767762 
L 741.856452 484.732865 
L 742.049883 483.546367 
L 743.210469 483.057809 
L 743.597331 482.464559 
L 743.984193 482.22028 
L 744.177624 481.661928 
L 744.371055 480.370739 
L 744.564486 480.021769 
L 744.757917 479.288932 
L 744.951348 478.102434 
L 745.144779 476.078407 
L 745.531641 474.64763 
L 745.725071 474.368454 
L 745.918502 469.692255 
L 746.111933 467.807817 
L 746.305364 467.109877 
L 746.498795 463.759765 
L 747.079088 459.8513 
L 747.272519 459.746609 
L 747.659381 457.75748 
L 747.852812 457.094437 
L 748.046243 451.999474 
L 748.239674 451.545813 
L 748.626536 449.870756 
L 748.819967 449.766065 
L 749.013398 448.89364 
L 749.206829 445.264352 
L 749.40026 444.35703 
L 749.593691 444.287236 
L 749.787122 441.635063 
L 749.980553 441.111608 
L 750.367415 440.937123 
L 751.141139 438.284951 
L 751.528001 437.587011 
L 751.914863 435.528087 
L 752.108294 434.725456 
L 752.301725 430.816992 
L 752.882018 426.489763 
L 753.46231 426.280381 
L 753.849172 426.036102 
L 754.622896 424.605325 
L 755.009758 424.465737 
L 755.39662 421.464594 
L 755.590051 421.429697 
L 755.976913 420.906242 
L 756.170344 419.405671 
L 756.363775 418.986907 
L 756.557206 418.847319 
L 756.750637 418.498349 
L 756.944068 417.9051 
L 757.524361 417.66082 
L 757.717792 417.416541 
L 758.298085 415.21803 
L 758.491516 415.078442 
L 758.878378 414.52009 
L 759.652102 414.136223 
L 759.845533 412.705446 
L 760.038964 412.600755 
L 760.232394 412.321579 
L 760.425825 409.564715 
L 760.812687 409.460024 
L 761.199549 408.727187 
L 761.39298 408.029247 
L 761.973273 407.889659 
L 762.553566 406.807852 
L 762.746997 406.772955 
L 763.133859 406.179706 
L 763.520721 406.040118 
L 763.714152 402.829593 
L 764.874738 402.550417 
L 765.2616 402.271241 
L 766.035324 402.16655 
L 766.228755 401.957168 
L 768.549926 401.259228 
L 769.32365 400.700876 
L 770.290805 400.561288 
L 770.677667 400.282112 
L 771.064529 400.142524 
L 772.998839 399.619069 
L 773.772563 396.652823 
L 774.739717 396.513235 
L 774.933148 396.443441 
L 776.480596 396.268956 
L 777.060889 396.059574 
L 777.25432 395.466325 
L 778.221475 395.396531 
L 778.801768 395.082458 
L 779.768923 394.733488 
L 779.962354 394.698591 
L 780.349216 394.314724 
L 780.736078 394.210033 
L 780.929509 393.965754 
L 781.703233 393.686578 
L 782.670387 393.54699 
L 782.863818 393.302711 
L 783.25068 393.267814 
L 783.444111 392.709462 
L 783.637542 392.639668 
L 783.830973 391.837037 
L 786.152145 391.313581 
L 786.732438 391.173993 
L 786.925869 390.755229 
L 788.279886 390.406259 
L 788.860179 390.196877 
L 789.633902 390.022392 
L 790.407626 389.81301 
L 791.374781 389.603628 
L 791.955074 389.429143 
L 793.309091 388.626512 
L 793.502522 387.928572 
L 794.469677 387.125941 
L 794.663108 386.776971 
L 795.630263 385.939443 
L 796.017125 385.206606 
L 796.210556 385.171708 
L 796.403986 384.473768 
L 797.17771 383.426858 
L 797.564572 383.252373 
L 797.951434 383.182579 
L 798.144865 382.868506 
L 798.531727 382.694021 
L 798.725158 382.345051 
L 799.692313 382.100772 
L 799.885744 381.786699 
L 801.239761 381.472626 
L 801.626623 381.298141 
L 801.820054 381.263244 
L 802.013485 381.088759 
L 802.98064 380.949171 
L 804.334656 380.321025 
L 804.914949 380.181437 
L 805.301811 379.378806 
L 805.688673 379.134527 
L 806.655828 378.366792 
L 806.849259 377.564161 
L 807.622983 377.319882 
L 808.783569 376.936015 
L 809.363862 376.203178 
L 809.750724 375.993796 
L 809.944155 375.958899 
L 810.331017 375.400547 
L 810.911309 375.191165 
L 811.298171 374.877092 
L 811.878464 374.632813 
L 812.265326 370.724348 
L 812.458757 369.468056 
L 812.652188 367.304442 
L 812.845619 367.025266 
L 813.619343 364.338196 
L 814.006205 363.640256 
L 814.199636 363.535565 
L 814.393067 363.291286 
L 814.586498 362.837625 
L 814.779929 361.26726 
L 814.97336 360.883393 
L 815.360222 360.743805 
L 816.520808 358.370808 
L 816.714239 358.196323 
L 816.90767 357.254104 
L 817.101101 356.905134 
L 817.487963 355.997812 
L 817.874825 355.43946 
L 818.648548 354.985799 
L 818.841979 354.776417 
L 819.03541 353.659713 
L 819.422272 353.485228 
L 819.809134 353.101361 
L 820.389427 352.298729 
L 820.582858 351.565892 
L 820.776289 351.530995 
L 821.356582 350.833055 
L 821.743444 350.763261 
L 821.936875 350.414291 
L 822.323737 350.204909 
L 823.290892 349.123102 
L 823.484323 348.529853 
L 825.031771 347.029282 
L 825.418632 345.668298 
L 826.579218 345.040152 
L 827.159511 344.13283 
L 828.126666 342.562465 
L 828.513528 342.353083 
L 829.287252 342.213495 
L 829.867545 341.096791 
L 830.641269 340.852512 
L 831.414993 339.94519 
L 831.801855 339.875396 
L 832.188717 339.456631 
L 832.769009 339.212352 
L 833.155871 339.177455 
L 833.349302 338.968073 
L 833.542733 338.339927 
L 834.316457 338.095648 
L 834.509888 337.746678 
L 834.703319 337.711781 
L 834.89675 337.083635 
L 835.477043 336.839356 
L 836.057336 336.699768 
L 836.444198 336.350798 
L 837.411353 335.86224 
L 837.798215 335.548167 
L 838.185077 335.303888 
L 838.571939 335.268991 
L 838.76537 334.326772 
L 839.152232 334.012699 
L 839.732524 333.733523 
L 840.312817 333.384553 
L 841.086541 333.244965 
L 841.279972 332.267848 
L 842.633989 331.604805 
L 842.82742 331.569908 
L 843.020851 331.395423 
L 843.407713 331.325629 
L 843.601144 331.011556 
L 844.374868 330.697483 
L 844.568299 330.313616 
L 844.955161 330.278719 
L 845.342023 330.03444 
L 845.922316 329.720367 
L 846.115747 329.231809 
L 846.88947 328.847942 
L 847.082901 328.568766 
L 847.469763 328.464075 
L 847.663194 328.219796 
L 848.243487 327.94062 
L 848.436918 327.626547 
L 848.630349 327.556753 
L 849.017211 327.277577 
L 849.404073 327.103092 
L 849.597504 326.89371 
L 850.75809 326.544739 
L 850.951521 326.160872 
L 851.144952 326.056181 
L 852.112107 325.811902 
L 852.498969 325.497829 
L 852.885831 325.358241 
L 853.466124 325.183756 
L 853.659555 324.869683 
L 854.046417 324.799889 
L 854.239847 324.171743 
L 854.433278 324.032155 
L 854.82014 323.578494 
L 855.013571 322.531584 
L 855.400433 322.287305 
L 855.593864 322.147717 
L 855.787295 321.868541 
L 856.174157 321.624262 
L 856.947881 320.926322 
L 857.334743 320.751837 
L 857.528174 320.333073 
L 857.721605 320.263279 
L 858.108467 319.844514 
L 858.495329 319.600235 
L 859.075622 319.42575 
L 859.462484 318.972089 
L 861.590224 317.122548 
L 862.557379 316.878269 
L 863.137672 316.145432 
L 863.524534 315.726668 
L 864.104827 315.377698 
L 864.878551 315.063625 
L 865.071982 314.88914 
L 865.845706 314.575067 
L 866.232568 314.226097 
L 866.812861 314.016715 
L 867.393154 313.667745 
L 867.973447 313.423465 
L 868.166878 313.24898 
L 870.294618 312.411452 
L 870.488049 312.062482 
L 871.842066 311.50413 
L 872.422359 311.120263 
L 873.002652 310.841087 
L 873.196083 310.631705 
L 873.969807 310.422323 
L 874.163238 309.933765 
L 874.356669 308.3634 
L 874.743531 307.944636 
L 874.936962 307.909739 
L 876.097547 306.37427 
L 876.484409 305.32736 
L 876.871271 304.97839 
L 877.258133 304.734111 
L 877.644995 304.62942 
L 877.838426 304.350244 
L 878.225288 304.140862 
L 878.61215 303.791892 
L 878.999012 303.617407 
L 879.192443 303.547613 
L 879.579305 303.128849 
L 879.772736 303.093952 
L 879.966167 302.675188 
L 880.54646 302.465806 
L 880.933322 301.942351 
L 881.513615 301.48869 
L 881.900477 301.104823 
L 882.48077 301.000132 
L 882.674201 300.686059 
L 883.254493 300.476676 
L 883.641355 298.941208 
L 884.028217 298.592238 
L 884.801941 298.313062 
L 885.188803 298.033886 
L 885.382234 297.475534 
L 885.769096 297.301049 
L 885.962527 296.812491 
L 886.155958 296.7078 
L 886.54282 296.289036 
L 886.736251 296.079654 
L 887.316544 295.870272 
L 887.703406 295.556199 
L 887.896837 295.521302 
L 888.090268 295.31192 
L 888.283699 295.277023 
L 889.057423 294.788465 
L 889.444285 293.916039 
L 889.637716 293.811348 
L 890.024578 293.741554 
L 890.218008 293.357687 
L 890.60487 293.183202 
L 890.991732 292.97382 
L 891.185163 292.345674 
L 891.958887 291.892013 
L 892.152318 291.263867 
L 892.926042 290.600824 
L 893.119473 290.565927 
L 893.506335 290.042472 
L 893.893197 289.728399 
L 894.086628 289.658605 
L 894.280059 289.309635 
L 894.666921 289.170047 
L 894.860352 288.507004 
L 895.247214 288.402313 
L 895.440645 288.08824 
L 895.634076 288.018446 
L 895.827507 287.285608 
L 896.214369 287.180917 
L 896.601231 286.936638 
L 896.988093 286.378286 
L 897.181524 286.238698 
L 897.955247 285.0522 
L 898.148678 284.982406 
L 898.53554 284.563642 
L 899.309264 284.00529 
L 899.889557 283.726114 
L 901.630436 281.91147 
L 902.017298 281.771882 
L 902.40416 281.353118 
L 902.791022 281.21353 
L 902.984453 280.376001 
L 903.564746 279.817649 
L 903.758177 279.119709 
L 904.145039 278.735842 
L 904.33847 278.351975 
L 904.531901 278.317078 
L 905.499055 277.374859 
L 906.079348 277.025889 
L 906.272779 276.746713 
L 907.433365 276.362846 
L 908.013658 275.630009 
L 908.40052 274.966966 
L 908.787382 274.827378 
L 908.980813 274.513304 
L 909.174244 274.44351 
L 909.367675 274.199231 
L 909.561106 274.164334 
L 909.754537 273.780467 
L 910.528261 273.257012 
L 911.108554 272.803351 
L 911.882277 272.419484 
L 912.46257 271.930926 
L 913.042863 271.65175 
L 913.236294 271.337677 
L 913.623156 271.267883 
L 914.203449 270.709531 
L 914.39688 270.395458 
L 914.977173 270.116282 
L 915.364035 269.802209 
L 915.944328 269.627724 
L 916.33119 269.20896 
L 917.298345 268.650608 
L 917.491776 268.406329 
L 918.2655 268.057358 
L 918.458931 266.452096 
L 919.426085 265.754156 
L 920.199809 264.358276 
L 920.39324 264.218688 
L 920.586671 263.765027 
L 920.973533 263.625439 
L 921.747257 262.438941 
L 922.134119 260.798781 
L 922.32755 260.240429 
L 922.714412 257.623154 
L 922.907843 256.576244 
L 923.874998 255.319952 
L 924.648722 252.214118 
L 924.842153 252.039633 
L 925.035584 251.551075 
L 925.229015 249.841122 
L 925.422446 249.212976 
L 925.615877 249.143182 
L 925.809308 248.375447 
L 926.3896 247.886889 
L 926.776462 246.560803 
L 927.743617 246.037348 
L 927.937048 245.688378 
L 928.904203 245.164923 
L 929.291065 244.746159 
L 929.484496 244.362292 
L 929.677927 243.385176 
L 929.871358 243.001309 
L 930.25822 242.861721 
L 930.645082 242.687236 
L 931.031944 242.40806 
L 931.418806 242.163781 
L 932.19253 241.919501 
L 932.579392 241.675222 
L 932.772823 241.535634 
L 933.159685 241.500737 
L 936.448011 238.67408 
L 936.641442 238.569389 
L 936.834873 237.731861 
L 937.415166 237.138612 
L 937.802028 237.033921 
L 938.962614 236.056805 
L 939.349476 235.88232 
L 939.542907 235.812526 
L 939.929769 235.393761 
L 940.316631 235.28907 
L 940.510062 234.800512 
L 940.703493 234.626027 
L 940.896923 234.067675 
L 941.283785 233.823396 
L 941.864078 232.532207 
L 942.057509 231.834267 
L 942.637802 231.415503 
L 943.218095 230.647769 
L 943.604957 229.286786 
L 943.798388 228.868021 
L 943.991819 228.135184 
L 944.18525 228.06539 
L 944.378681 227.472141 
L 944.765543 227.227862 
L 945.926129 226.006467 
L 946.11956 225.517909 
L 946.699853 225.203836 
L 946.893284 224.715278 
L 947.667008 224.401205 
L 947.860439 224.156926 
L 948.053869 224.122029 
L 948.2473 223.389192 
L 948.634162 223.144913 
L 948.827593 222.691252 
L 949.021024 222.551663 
L 949.407886 222.516766 
L 950.568472 221.609444 
L 951.148765 221.155783 
L 951.535627 220.702122 
L 951.922489 220.318255 
L 952.11592 219.969285 
L 952.309351 219.201551 
L 953.469937 218.538508 
L 953.856799 217.70098 
L 954.243661 217.561392 
L 954.437092 217.037937 
L 954.630523 216.933246 
L 955.404246 215.991026 
L 956.371401 215.36288 
L 957.531987 214.176382 
L 958.11228 213.408648 
L 958.305711 212.92009 
L 958.499142 212.082562 
L 958.886004 211.419519 
L 959.079435 210.965858 
L 960.04659 205.870895 
L 960.240021 205.591719 
L 960.433452 205.103161 
L 960.626883 203.218723 
L 960.820314 199.589434 
L 961.013745 198.158657 
L 961.207176 195.855454 
L 961.400607 195.262205 
L 961.787469 192.64493 
L 962.174331 189.085435 
L 962.561192 184.304546 
L 962.948054 183.571708 
L 963.334916 177.394939 
L 963.528347 175.754779 
L 963.915209 168.670687 
L 964.302071 167.309704 
L 964.495502 163.750209 
L 964.688933 162.947578 
L 965.075795 159.004217 
L 965.462657 148.395527 
L 965.849519 146.755368 
L 966.04295 143.475049 
L 966.236381 143.126079 
L 966.623243 137.786837 
L 966.816674 137.682146 
L 967.010105 137.333176 
L 967.396967 136.076884 
L 967.590398 135.762811 
L 967.783829 135.169562 
L 967.97726 134.052858 
L 968.364122 133.843476 
L 968.557553 133.285124 
L 968.944415 131.540273 
L 969.331277 128.050573 
L 969.524708 127.317736 
L 969.718138 127.247942 
L 969.911569 126.933869 
L 970.878724 123.967623 
L 971.072155 123.828035 
L 971.265586 123.095198 
L 971.652448 122.746228 
L 971.845879 122.60664 
L 972.03931 122.083185 
L 972.232741 121.9087 
L 973.006465 120.722202 
L 973.586758 120.094056 
L 973.780189 120.024262 
L 974.747344 118.733073 
L 975.134206 118.558588 
L 975.714499 118.488793 
L 976.101361 117.965338 
L 976.488223 117.860647 
L 977.068515 117.12781 
L 977.842239 116.674149 
L 978.615963 115.697033 
L 978.809394 115.173578 
L 979.583118 114.929299 
L 979.96998 114.580329 
L 980.356842 113.882389 
L 980.743704 113.568316 
L 980.937135 113.324037 
L 981.130566 112.312024 
L 981.517428 111.64898 
L 982.097721 111.404701 
L 982.484583 111.090628 
L 982.871445 110.706761 
L 983.258307 110.357791 
L 983.645169 110.008821 
L 984.032031 109.659851 
L 984.225461 108.822323 
L 984.805754 108.403559 
L 985.579478 107.46134 
L 986.159771 106.972782 
L 986.740064 106.449327 
L 987.126926 106.239945 
L 987.513788 105.925872 
L 988.094081 105.71649 
L 988.480943 104.460197 
L 988.674374 104.355506 
L 989.254667 103.448184 
L 989.83496 102.785141 
L 990.028391 102.68045 
L 990.608684 101.598643 
L 990.802115 100.621527 
L 990.995546 100.307454 
L 991.382407 100.167866 
L 991.575838 99.749102 
L 993.316717 98.388118 
L 993.703579 97.585487 
L 993.89701 97.480796 
L 994.090441 93.188465 
L 994.477303 92.455627 
L 994.864165 91.862378 
L 995.057596 91.338923 
L 995.251027 91.304026 
L 995.637889 90.640983 
L 995.83132 89.908146 
L 996.218182 89.28 
L 996.218182 89.28 
" clip-path="url(#p6272c3c045)" style="fill: none; stroke: #1f77b4; stroke-width: 1.5; stroke-linecap: square"/>
   </g>
   <g id="patch_3">
    <path d="M 144 512.64 
L 144 69.12 
" style="fill: none; stroke: #000000; stroke-width: 0.8; stroke-linejoin: miter; stroke-linecap: square"/>
   </g>
   <g id="patch_4">
    <path d="M 1036.8 512.64 
L 1036.8 69.12 
" style="fill: none; stroke: #000000; stroke-width: 0.8; stroke-linejoin: miter; stroke-linecap: square"/>
   </g>
   <g id="patch_5">
    <path d="M 144 512.64 
L 1036.8 512.64 
" style="fill: none; stroke: #000000; stroke-width: 0.8; stroke-linejoin: miter; stroke-linecap: square"/>
   </g>
   <g id="patch_6">
    <path d="M 144 69.12 
L 1036.8 69.12 
" style="fill: none; stroke: #000000; stroke-width: 0.8; stroke-linejoin: miter; stroke-linecap: square"/>
   </g>
   <g id="text_15">
    <!-- Number of AEDs in the OpenStreetMap database in Poland from first edition, day by day. As at: 2025-08-07 -->
    <g transform="translate(144 63.12) scale(0.14 -0.14)">
     <defs>
      <path id="DejaVuSans-4e" d="M 628 4666 
L 1478 4666 
L 3547 763 
L 3547 4666 
L 4159 4666 
L 4159 0 
L 3309 0 
L 1241 3903 
L 1241 0 
L 628 0 
L 628 4666 
z
" transform="scale(0.015625)"/>
      <path id="DejaVuSans-75" d="M 544 1381 
L 544 3500 
L 1119 3500 
L 1119 1403 
Q 1119 906 1312 657 
Q 1506 409 1894 409 
Q 2359 409 2629 706 
Q 2900 1003 2900 1516 
L 2900 3500 
L 3475 3500 
L 3475 0 
L 2900 0 
L 2900 538 
Q 2691 219 2414 64 
Q 2138 -91 1772 -91 
Q 1169 -91 856 284 
Q 544 659 544 1381 
z
M 1991 3584 
L 1991 3584 
z
" transform="scale(0.015625)"/>
      <path id="DejaVuSans-6d" d="M 3328 2828 
Q 3544 3216 3844 3400 
Q 4144 3584 4550 3584 
Q 5097 3584 5394 3201 
Q 5691 2819 5691 2113 
L 5691 0 
L 5113 0 
L 5113 2094 
Q 5113 2597 4934 2840 
Q 4756 3084 4391 3084 
Q 3944 3084 3684 2787 
Q 3425 2491 3425 1978 
L 3425 0 
L 2847 0 
L 2847 2094 
Q 2847 2600 2669 2842 
Q 2491 3084 2119 3084 
Q 1678 3084 1418 2786 
Q 1159 2488 1159 1978 
L 1159 0 
L 581 0 
L 581 3500 
L 1159 3500 
L 1159 2956 
Q 1356 3278 1631 3431 
Q 1906 3584 2284 3584 
Q 2666 3584 2933 3390 
Q 3200 3197 3328 2828 
z
" transform="scale(0.015625)"/>
      <path id="DejaVuSans-62" d="M 3116 1747 
Q 3116 2381 2855 2742 
Q 2594 3103 2138 3103 
Q 1681 3103 1420 2742 
Q 1159 2381 1159 1747 
Q 1159 1113 1420 752 
Q 1681 391 2138 391 
Q 2594 391 2855 752 
Q 3116 1113 3116 1747 
z
M 1159 2969 
Q 1341 3281 1617 3432 
Q 1894 3584 2278 3584 
Q 2916 3584 3314 3078 
Q 3713 2572 3713 1747 
Q 3713 922 3314 415 
Q 2916 -91 2278 -91 
Q 1894 -91 1617 61 
Q 1341 213 1159 525 
L 1159 0 
L 581 0 
L 581 4863 
L 1159 4863 
L 1159 2969 
z
" transform="scale(0.015625)"/>
      <path id="DejaVuSans-65" d="M 3597 1894 
L 3597 1613 
L 953 1613 
Q 991 1019 1311 708 
Q 1631 397 2203 397 
Q 2534 397 2845 478 
Q 3156 559 3463 722 
L 3463 178 
Q 3153 47 2828 -22 
Q 2503 -91 2169 -91 
Q 1331 -91 842 396 
Q 353 884 353 1716 
Q 353 2575 817 3079 
Q 1281 3584 2069 3584 
Q 2775 3584 3186 3129 
Q 3597 2675 3597 1894 
z
M 3022 2063 
Q 3016 2534 2758 2815 
Q 2500 3097 2075 3097 
Q 1594 3097 1305 2825 
Q 1016 2553 972 2059 
L 3022 2063 
z
" transform="scale(0.015625)"/>
      <path id="DejaVuSans-72" d="M 2631 2963 
Q 2534 3019 2420 3045 
Q 2306 3072 2169 3072 
Q 1681 3072 1420 2755 
Q 1159 2438 1159 1844 
L 1159 0 
L 581 0 
L 581 3500 
L 1159 3500 
L 1159 2956 
Q 1341 3275 1631 3429 
Q 1922 3584 2338 3584 
Q 2397 3584 2469 3576 
Q 2541 3569 2628 3553 
L 2631 2963 
z
" transform="scale(0.015625)"/>
      <path id="DejaVuSans-20" transform="scale(0.015625)"/>
      <path id="DejaVuSans-6f" d="M 1959 3097 
Q 1497 3097 1228 2736 
Q 959 2375 959 1747 
Q 959 1119 1226 758 
Q 1494 397 1959 397 
Q 2419 397 2687 759 
Q 2956 1122 2956 1747 
Q 2956 2369 2687 2733 
Q 2419 3097 1959 3097 
z
M 1959 3584 
Q 2709 3584 3137 3096 
Q 3566 2609 3566 1747 
Q 3566 888 3137 398 
Q 2709 -91 1959 -91 
Q 1206 -91 779 398 
Q 353 888 353 1747 
Q 353 2609 779 3096 
Q 1206 3584 1959 3584 
z
" transform="scale(0.015625)"/>
      <path id="DejaVuSans-66" d="M 2375 4863 
L 2375 4384 
L 1825 4384 
Q 1516 4384 1395 4259 
Q 1275 4134 1275 3809 
L 1275 3500 
L 2222 3500 
L 2222 3053 
L 1275 3053 
L 1275 0 
L 697 0 
L 697 3053 
L 147 3053 
L 147 3500 
L 697 3500 
L 697 3744 
Q 697 4328 969 4595 
Q 1241 4863 1831 4863 
L 2375 4863 
z
" transform="scale(0.015625)"/>
      <path id="DejaVuSans-41" d="M 2188 4044 
L 1331 1722 
L 3047 1722 
L 2188 4044 
z
M 1831 4666 
L 2547 4666 
L 4325 0 
L 3669 0 
L 3244 1197 
L 1141 1197 
L 716 0 
L 50 0 
L 1831 4666 
z
" transform="scale(0.015625)"/>
      <path id="DejaVuSans-45" d="M 628 4666 
L 3578 4666 
L 3578 4134 
L 1259 4134 
L 1259 2753 
L 3481 2753 
L 3481 2222 
L 1259 2222 
L 1259 531 
L 3634 531 
L 3634 0 
L 628 0 
L 628 4666 
z
" transform="scale(0.015625)"/>
      <path id="DejaVuSans-44" d="M 1259 4147 
L 1259 519 
L 2022 519 
Q 2988 519 3436 956 
Q 3884 1394 3884 2338 
Q 3884 3275 3436 3711 
Q 2988 4147 2022 4147 
L 1259 4147 
z
M 628 4666 
L 1925 4666 
Q 3281 4666 3915 4102 
Q 4550 3538 4550 2338 
Q 4550 1131 3912 565 
Q 3275 0 1925 0 
L 628 0 
L 628 4666 
z
" transform="scale(0.015625)"/>
      <path id="DejaVuSans-73" d="M 2834 3397 
L 2834 2853 
Q 2591 2978 2328 3040 
Q 2066 3103 1784 3103 
Q 1356 3103 1142 2972 
Q 928 2841 928 2578 
Q 928 2378 1081 2264 
Q 1234 2150 1697 2047 
L 1894 2003 
Q 2506 1872 2764 1633 
Q 3022 1394 3022 966 
Q 3022 478 2636 193 
Q 2250 -91 1575 -91 
Q 1294 -91 989 -36 
Q 684 19 347 128 
L 347 722 
Q 666 556 975 473 
Q 1284 391 1588 391 
Q 1994 391 2212 530 
Q 2431 669 2431 922 
Q 2431 1156 2273 1281 
Q 2116 1406 1581 1522 
L 1381 1569 
Q 847 1681 609 1914 
Q 372 2147 372 2553 
Q 372 3047 722 3315 
Q 1072 3584 1716 3584 
Q 2034 3584 2315 3537 
Q 2597 3491 2834 3397 
z
" transform="scale(0.015625)"/>
      <path id="DejaVuSans-69" d="M 603 3500 
L 1178 3500 
L 1178 0 
L 603 0 
L 603 3500 
z
M 603 4863 
L 1178 4863 
L 1178 4134 
L 603 4134 
L 603 4863 
z
" transform="scale(0.015625)"/>
      <path id="DejaVuSans-6e" d="M 3513 2113 
L 3513 0 
L 2938 0 
L 2938 2094 
Q 2938 2591 2744 2837 
Q 2550 3084 2163 3084 
Q 1697 3084 1428 2787 
Q 1159 2491 1159 1978 
L 1159 0 
L 581 0 
L 581 3500 
L 1159 3500 
L 1159 2956 
Q 1366 3272 1645 3428 
Q 1925 3584 2291 3584 
Q 2894 3584 3203 3211 
Q 3513 2838 3513 2113 
z
" transform="scale(0.015625)"/>
      <path id="DejaVuSans-74" d="M 1172 4494 
L 1172 3500 
L 2356 3500 
L 2356 3053 
L 1172 3053 
L 1172 1153 
Q 1172 725 1289 603 
Q 1406 481 1766 481 
L 2356 481 
L 2356 0 
L 1766 0 
Q 1100 0 847 248 
Q 594 497 594 1153 
L 594 3053 
L 172 3053 
L 172 3500 
L 594 3500 
L 594 4494 
L 1172 4494 
z
" transform="scale(0.015625)"/>
      <path id="DejaVuSans-68" d="M 3513 2113 
L 3513 0 
L 2938 0 
L 2938 2094 
Q 2938 2591 2744 2837 
Q 2550 3084 2163 3084 
Q 1697 3084 1428 2787 
Q 1159 2491 1159 1978 
L 1159 0 
L 581 0 
L 581 4863 
L 1159 4863 
L 1159 2956 
Q 1366 3272 1645 3428 
Q 1925 3584 2291 3584 
Q 2894 3584 3203 3211 
Q 3513 2838 3513 2113 
z
" transform="scale(0.015625)"/>
      <path id="DejaVuSans-4f" d="M 2522 4238 
Q 1834 4238 1429 3725 
Q 1025 3213 1025 2328 
Q 1025 1447 1429 934 
Q 1834 422 2522 422 
Q 3209 422 3611 934 
Q 4013 1447 4013 2328 
Q 4013 3213 3611 3725 
Q 3209 4238 2522 4238 
z
M 2522 4750 
Q 3503 4750 4090 4092 
Q 4678 3434 4678 2328 
Q 4678 1225 4090 567 
Q 3503 -91 2522 -91 
Q 1538 -91 948 565 
Q 359 1222 359 2328 
Q 359 3434 948 4092 
Q 1538 4750 2522 4750 
z
" transform="scale(0.015625)"/>
      <path id="DejaVuSans-70" d="M 1159 525 
L 1159 -1331 
L 581 -1331 
L 581 3500 
L 1159 3500 
L 1159 2969 
Q 1341 3281 1617 3432 
Q 1894 3584 2278 3584 
Q 2916 3584 3314 3078 
Q 3713 2572 3713 1747 
Q 3713 922 3314 415 
Q 2916 -91 2278 -91 
Q 1894 -91 1617 61 
Q 1341 213 1159 525 
z
M 3116 1747 
Q 3116 2381 2855 2742 
Q 2594 3103 2138 3103 
Q 1681 3103 1420 2742 
Q 1159 2381 1159 1747 
Q 1159 1113 1420 752 
Q 1681 391 2138 391 
Q 2594 391 2855 752 
Q 3116 1113 3116 1747 
z
" transform="scale(0.015625)"/>
      <path id="DejaVuSans-53" d="M 3425 4513 
L 3425 3897 
Q 3066 4069 2747 4153 
Q 2428 4238 2131 4238 
Q 1616 4238 1336 4038 
Q 1056 3838 1056 3469 
Q 1056 3159 1242 3001 
Q 1428 2844 1947 2747 
L 2328 2669 
Q 3034 2534 3370 2195 
Q 3706 1856 3706 1288 
Q 3706 609 3251 259 
Q 2797 -91 1919 -91 
Q 1588 -91 1214 -16 
Q 841 59 441 206 
L 441 856 
Q 825 641 1194 531 
Q 1563 422 1919 422 
Q 2459 422 2753 634 
Q 3047 847 3047 1241 
Q 3047 1584 2836 1778 
Q 2625 1972 2144 2069 
L 1759 2144 
Q 1053 2284 737 2584 
Q 422 2884 422 3419 
Q 422 4038 858 4394 
Q 1294 4750 2059 4750 
Q 2388 4750 2728 4690 
Q 3069 4631 3425 4513 
z
" transform="scale(0.015625)"/>
      <path id="DejaVuSans-4d" d="M 628 4666 
L 1569 4666 
L 2759 1491 
L 3956 4666 
L 4897 4666 
L 4897 0 
L 4281 0 
L 4281 4097 
L 3078 897 
L 2444 897 
L 1241 4097 
L 1241 0 
L 628 0 
L 628 4666 
z
" transform="scale(0.015625)"/>
      <path id="DejaVuSans-61" d="M 2194 1759 
Q 1497 1759 1228 1600 
Q 959 1441 959 1056 
Q 959 750 1161 570 
Q 1363 391 1709 391 
Q 2188 391 2477 730 
Q 2766 1069 2766 1631 
L 2766 1759 
L 2194 1759 
z
M 3341 1997 
L 3341 0 
L 2766 0 
L 2766 531 
Q 2569 213 2275 61 
Q 1981 -91 1556 -91 
Q 1019 -91 701 211 
Q 384 513 384 1019 
Q 384 1609 779 1909 
Q 1175 2209 1959 2209 
L 2766 2209 
L 2766 2266 
Q 2766 2663 2505 2880 
Q 2244 3097 1772 3097 
Q 1472 3097 1187 3025 
Q 903 2953 641 2809 
L 641 3341 
Q 956 3463 1253 3523 
Q 1550 3584 1831 3584 
Q 2591 3584 2966 3190 
Q 3341 2797 3341 1997 
z
" transform="scale(0.015625)"/>
      <path id="DejaVuSans-64" d="M 2906 2969 
L 2906 4863 
L 3481 4863 
L 3481 0 
L 2906 0 
L 2906 525 
Q 2725 213 2448 61 
Q 2172 -91 1784 -91 
Q 1150 -91 751 415 
Q 353 922 353 1747 
Q 353 2572 751 3078 
Q 1150 3584 1784 3584 
Q 2172 3584 2448 3432 
Q 2725 3281 2906 2969 
z
M 947 1747 
Q 947 1113 1208 752 
Q 1469 391 1925 391 
Q 2381 391 2643 752 
Q 2906 1113 2906 1747 
Q 2906 2381 2643 2742 
Q 2381 3103 1925 3103 
Q 1469 3103 1208 2742 
Q 947 2381 947 1747 
z
" transform="scale(0.015625)"/>
      <path id="DejaVuSans-50" d="M 1259 4147 
L 1259 2394 
L 2053 2394 
Q 2494 2394 2734 2622 
Q 2975 2850 2975 3272 
Q 2975 3691 2734 3919 
Q 2494 4147 2053 4147 
L 1259 4147 
z
M 628 4666 
L 2053 4666 
Q 2838 4666 3239 4311 
Q 3641 3956 3641 3272 
Q 3641 2581 3239 2228 
Q 2838 1875 2053 1875 
L 1259 1875 
L 1259 0 
L 628 0 
L 628 4666 
z
" transform="scale(0.015625)"/>
      <path id="DejaVuSans-6c" d="M 603 4863 
L 1178 4863 
L 1178 0 
L 603 0 
L 603 4863 
z
" transform="scale(0.015625)"/>
      <path id="DejaVuSans-2c" d="M 750 794 
L 1409 794 
L 1409 256 
L 897 -744 
L 494 -744 
L 750 256 
L 750 794 
z
" transform="scale(0.015625)"/>
      <path id="DejaVuSans-79" d="M 2059 -325 
Q 1816 -950 1584 -1140 
Q 1353 -1331 966 -1331 
L 506 -1331 
L 506 -850 
L 844 -850 
Q 1081 -850 1212 -737 
Q 1344 -625 1503 -206 
L 1606 56 
L 191 3500 
L 800 3500 
L 1894 763 
L 2988 3500 
L 3597 3500 
L 2059 -325 
z
" transform="scale(0.015625)"/>
      <path id="DejaVuSans-2e" d="M 684 794 
L 1344 794 
L 1344 0 
L 684 0 
L 684 794 
z
" transform="scale(0.015625)"/>
      <path id="DejaVuSans-3a" d="M 750 794 
L 1409 794 
L 1409 0 
L 750 0 
L 750 794 
z
M 750 3309 
L 1409 3309 
L 1409 2516 
L 750 2516 
L 750 3309 
z
" transform="scale(0.015625)"/>
      <path id="DejaVuSans-35" d="M 691 4666 
L 3169 4666 
L 3169 4134 
L 1269 4134 
L 1269 2991 
Q 1406 3038 1543 3061 
Q 1681 3084 1819 3084 
Q 2600 3084 3056 2656 
Q 3513 2228 3513 1497 
Q 3513 744 3044 326 
Q 2575 -91 1722 -91 
Q 1428 -91 1123 -41 
Q 819 9 494 109 
L 494 744 
Q 775 591 1075 516 
Q 1375 441 1709 441 
Q 2250 441 2565 725 
Q 2881 1009 2881 1497 
Q 2881 1984 2565 2268 
Q 2250 2553 1709 2553 
Q 1456 2553 1204 2497 
Q 953 2441 691 2322 
L 691 4666 
z
" transform="scale(0.015625)"/>
      <path id="DejaVuSans-2d" d="M 313 2009 
L 1997 2009 
L 1997 1497 
L 313 1497 
L 313 2009 
z
" transform="scale(0.015625)"/>
      <path id="DejaVuSans-37" d="M 525 4666 
L 3525 4666 
L 3525 4397 
L 1831 0 
L 1172 0 
L 2766 4134 
L 525 4134 
L 525 4666 
z
" transform="scale(0.015625)"/>
     </defs>
     <use xlink:href="#DejaVuSans-4e"/>
     <use xlink:href="#DejaVuSans-75" x="74.804688"/>
     <use xlink:href="#DejaVuSans-6d" x="138.183594"/>
     <use xlink:href="#DejaVuSans-62" x="235.595703"/>
     <use xlink:href="#DejaVuSans-65" x="299.072266"/>
     <use xlink:href="#DejaVuSans-72" x="360.595703"/>
     <use xlink:href="#DejaVuSans-20" x="401.708984"/>
     <use xlink:href="#DejaVuSans-6f" x="433.496094"/>
     <use xlink:href="#DejaVuSans-66" x="494.677734"/>
     <use xlink:href="#DejaVuSans-20" x="529.882812"/>
     <use xlink:href="#DejaVuSans-41" x="561.669922"/>
     <use xlink:href="#DejaVuSans-45" x="630.078125"/>
     <use xlink:href="#DejaVuSans-44" x="693.261719"/>
     <use xlink:href="#DejaVuSans-73" x="770.263672"/>
     <use xlink:href="#DejaVuSans-20" x="822.363281"/>
     <use xlink:href="#DejaVuSans-69" x="854.150391"/>
     <use xlink:href="#DejaVuSans-6e" x="881.933594"/>
     <use xlink:href="#DejaVuSans-20" x="945.3125"/>
     <use xlink:href="#DejaVuSans-74" x="977.099609"/>
     <use xlink:href="#DejaVuSans-68" x="1016.308594"/>
     <use xlink:href="#DejaVuSans-65" x="1079.6875"/>
     <use xlink:href="#DejaVuSans-20" x="1141.210938"/>
     <use xlink:href="#DejaVuSans-4f" x="1172.998047"/>
     <use xlink:href="#DejaVuSans-70" x="1251.708984"/>
     <use xlink:href="#DejaVuSans-65" x="1315.185547"/>
     <use xlink:href="#DejaVuSans-6e" x="1376.708984"/>
     <use xlink:href="#DejaVuSans-53" x="1440.087891"/>
     <use xlink:href="#DejaVuSans-74" x="1503.564453"/>
     <use xlink:href="#DejaVuSans-72" x="1542.773438"/>
     <use xlink:href="#DejaVuSans-65" x="1581.636719"/>
     <use xlink:href="#DejaVuSans-65" x="1643.160156"/>
     <use xlink:href="#DejaVuSans-74" x="1704.683594"/>
     <use xlink:href="#DejaVuSans-4d" x="1743.892578"/>
     <use xlink:href="#DejaVuSans-61" x="1830.171875"/>
     <use xlink:href="#DejaVuSans-70" x="1891.451172"/>
     <use xlink:href="#DejaVuSans-20" x="1954.927734"/>
     <use xlink:href="#DejaVuSans-64" x="1986.714844"/>
     <use xlink:href="#DejaVuSans-61" x="2050.191406"/>
     <use xlink:href="#DejaVuSans-74" x="2111.470703"/>
     <use xlink:href="#DejaVuSans-61" x="2150.679688"/>
     <use xlink:href="#DejaVuSans-62" x="2211.958984"/>
     <use xlink:href="#DejaVuSans-61" x="2275.435547"/>
     <use xlink:href="#DejaVuSans-73" x="2336.714844"/>
     <use xlink:href="#DejaVuSans-65" x="2388.814453"/>
     <use xlink:href="#DejaVuSans-20" x="2450.337891"/>
     <use xlink:href="#DejaVuSans-69" x="2482.125"/>
     <use xlink:href="#DejaVuSans-6e" x="2509.908203"/>
     <use xlink:href="#DejaVuSans-20" x="2573.287109"/>
     <use xlink:href="#DejaVuSans-50" x="2605.074219"/>
     <use xlink:href="#DejaVuSans-6f" x="2661.751953"/>
     <use xlink:href="#DejaVuSans-6c" x="2722.933594"/>
     <use xlink:href="#DejaVuSans-61" x="2750.716797"/>
     <use xlink:href="#DejaVuSans-6e" x="2811.996094"/>
     <use xlink:href="#DejaVuSans-64" x="2875.375"/>
     <use xlink:href="#DejaVuSans-20" x="2938.851562"/>
     <use xlink:href="#DejaVuSans-66" x="2970.638672"/>
     <use xlink:href="#DejaVuSans-72" x="3005.84375"/>
     <use xlink:href="#DejaVuSans-6f" x="3044.707031"/>
     <use xlink:href="#DejaVuSans-6d" x="3105.888672"/>
     <use xlink:href="#DejaVuSans-20" x="3203.300781"/>
     <use xlink:href="#DejaVuSans-66" x="3235.087891"/>
     <use xlink:href="#DejaVuSans-69" x="3270.292969"/>
     <use xlink:href="#DejaVuSans-72" x="3298.076172"/>
     <use xlink:href="#DejaVuSans-73" x="3339.189453"/>
     <use xlink:href="#DejaVuSans-74" x="3391.289062"/>
     <use xlink:href="#DejaVuSans-20" x="3430.498047"/>
     <use xlink:href="#DejaVuSans-65" x="3462.285156"/>
     <use xlink:href="#DejaVuSans-64" x="3523.808594"/>
     <use xlink:href="#DejaVuSans-69" x="3587.285156"/>
     <use xlink:href="#DejaVuSans-74" x="3615.068359"/>
     <use xlink:href="#DejaVuSans-69" x="3654.277344"/>
     <use xlink:href="#DejaVuSans-6f" x="3682.060547"/>
     <use xlink:href="#DejaVuSans-6e" x="3743.242188"/>
     <use xlink:href="#DejaVuSans-2c" x="3806.621094"/>
     <use xlink:href="#DejaVuSans-20" x="3838.408203"/>
     <use xlink:href="#DejaVuSans-64" x="3870.195312"/>
     <use xlink:href="#DejaVuSans-61" x="3933.671875"/>
     <use xlink:href="#DejaVuSans-79" x="3994.951172"/>
     <use xlink:href="#DejaVuSans-20" x="4054.130859"/>
     <use xlink:href="#DejaVuSans-62" x="4085.917969"/>
     <use xlink:href="#DejaVuSans-79" x="4149.394531"/>
     <use xlink:href="#DejaVuSans-20" x="4208.574219"/>
     <use xlink:href="#DejaVuSans-64" x="4240.361328"/>
     <use xlink:href="#DejaVuSans-61" x="4303.837891"/>
     <use xlink:href="#DejaVuSans-79" x="4365.117188"/>
     <use xlink:href="#DejaVuSans-2e" x="4410.046875"/>
     <use xlink:href="#DejaVuSans-20" x="4441.833984"/>
     <use xlink:href="#DejaVuSans-41" x="4473.621094"/>
     <use xlink:href="#DejaVuSans-73" x="4542.029297"/>
     <use xlink:href="#DejaVuSans-20" x="4594.128906"/>
     <use xlink:href="#DejaVuSans-61" x="4625.916016"/>
     <use xlink:href="#DejaVuSans-74" x="4687.195312"/>
     <use xlink:href="#DejaVuSans-3a" x="4726.404297"/>
     <use xlink:href="#DejaVuSans-20" x="4760.095703"/>
     <use xlink:href="#DejaVuSans-32" x="4791.882812"/>
     <use xlink:href="#DejaVuSans-30" x="4855.505859"/>
     <use xlink:href="#DejaVuSans-32" x="4919.128906"/>
     <use xlink:href="#DejaVuSans-35" x="4982.751953"/>
     <use xlink:href="#DejaVuSans-2d" x="5046.375"/>
     <use xlink:href="#DejaVuSans-30" x="5082.458984"/>
     <use xlink:href="#DejaVuSans-38" x="5146.082031"/>
     <use xlink:href="#DejaVuSans-2d" x="5209.705078"/>
     <use xlink:href="#DejaVuSans-30" x="5245.789062"/>
     <use xlink:href="#DejaVuSans-37" x="5309.412109"/>
    </g>
   </g>
  </g>
 </g>
 <defs>
  <clipPath id="p6272c3c045">
   <rect x="144" y="69.12" width="892.8" height="443.52"/>
  </clipPath>
 </defs>
</svg>
