<?xml version="1.0" encoding="utf-8" standalone="no"?>
<!DOCTYPE svg PUBLIC "-//W3C//DTD SVG 1.1//EN"
  "http://www.w3.org/Graphics/SVG/1.1/DTD/svg11.dtd">
<svg xmlns:xlink="http://www.w3.org/1999/xlink" width="1152pt" height="576pt" viewBox="0 0 1152 576" xmlns="http://www.w3.org/2000/svg" version="1.1">
 <metadata>
  <rdf:RDF xmlns:dc="http://purl.org/dc/elements/1.1/" xmlns:cc="http://creativecommons.org/ns#" xmlns:rdf="http://www.w3.org/1999/02/22-rdf-syntax-ns#">
   <cc:Work>
    <dc:type rdf:resource="http://purl.org/dc/dcmitype/StillImage"/>
    <dc:date>1980-01-01T00:00:00+00:00</dc:date>
    <dc:format>image/svg+xml</dc:format>
    <dc:creator>
     <cc:Agent>
      <dc:title>Matplotlib v3.9.1, https://matplotlib.org/</dc:title>
     </cc:Agent>
    </dc:creator>
   </cc:Work>
  </rdf:RDF>
 </metadata>
 <defs>
  <style type="text/css">*{stroke-linejoin: round; stroke-linecap: butt}</style>
 </defs>
 <g id="figure_1">
  <g id="patch_1">
   <path d="M 0 576 
L 1152 576 
L 1152 0 
L 0 0 
z
" style="fill: #ffffff"/>
  </g>
  <g id="axes_1">
   <g id="patch_2">
    <path d="M 144 512.64 
L 1036.8 512.64 
L 1036.8 69.12 
L 144 69.12 
z
" style="fill: #ffffff"/>
   </g>
   <g id="matplotlib.axis_1">
    <g id="xtick_1">
     <g id="line2d_1">
      <defs>
       <path id="mdf56dd6951" d="M 0 0 
L 0 3.5 
" style="stroke: #000000; stroke-width: 0.8"/>
      </defs>
      <g>
       <use xlink:href="#mdf56dd6951" x="177.123639" y="512.64" style="stroke: #000000; stroke-width: 0.8"/>
      </g>
     </g>
     <g id="text_1">
      <!-- 2014 -->
      <g transform="translate(164.398639 527.238438) scale(0.1 -0.1)">
       <defs>
        <path id="DejaVuSans-32" d="M 1228 531 
L 3431 531 
L 3431 0 
L 469 0 
L 469 531 
Q 828 903 1448 1529 
Q 2069 2156 2228 2338 
Q 2531 2678 2651 2914 
Q 2772 3150 2772 3378 
Q 2772 3750 2511 3984 
Q 2250 4219 1831 4219 
Q 1534 4219 1204 4116 
Q 875 4013 500 3803 
L 500 4441 
Q 881 4594 1212 4672 
Q 1544 4750 1819 4750 
Q 2544 4750 2975 4387 
Q 3406 4025 3406 3419 
Q 3406 3131 3298 2873 
Q 3191 2616 2906 2266 
Q 2828 2175 2409 1742 
Q 1991 1309 1228 531 
z
" transform="scale(0.015625)"/>
        <path id="DejaVuSans-30" d="M 2034 4250 
Q 1547 4250 1301 3770 
Q 1056 3291 1056 2328 
Q 1056 1369 1301 889 
Q 1547 409 2034 409 
Q 2525 409 2770 889 
Q 3016 1369 3016 2328 
Q 3016 3291 2770 3770 
Q 2525 4250 2034 4250 
z
M 2034 4750 
Q 2819 4750 3233 4129 
Q 3647 3509 3647 2328 
Q 3647 1150 3233 529 
Q 2819 -91 2034 -91 
Q 1250 -91 836 529 
Q 422 1150 422 2328 
Q 422 3509 836 4129 
Q 1250 4750 2034 4750 
z
" transform="scale(0.015625)"/>
        <path id="DejaVuSans-31" d="M 794 531 
L 1825 531 
L 1825 4091 
L 703 3866 
L 703 4441 
L 1819 4666 
L 2450 4666 
L 2450 531 
L 3481 531 
L 3481 0 
L 794 0 
L 794 531 
z
" transform="scale(0.015625)"/>
        <path id="DejaVuSans-34" d="M 2419 4116 
L 825 1625 
L 2419 1625 
L 2419 4116 
z
M 2253 4666 
L 3047 4666 
L 3047 1625 
L 3713 1625 
L 3713 1100 
L 3047 1100 
L 3047 0 
L 2419 0 
L 2419 1100 
L 313 1100 
L 313 1709 
L 2253 4666 
z
" transform="scale(0.015625)"/>
       </defs>
       <use xlink:href="#DejaVuSans-32"/>
       <use xlink:href="#DejaVuSans-30" x="63.623047"/>
       <use xlink:href="#DejaVuSans-31" x="127.246094"/>
       <use xlink:href="#DejaVuSans-34" x="190.869141"/>
      </g>
     </g>
    </g>
    <g id="xtick_2">
     <g id="line2d_2">
      <g>
       <use xlink:href="#mdf56dd6951" x="313.235411" y="512.64" style="stroke: #000000; stroke-width: 0.8"/>
      </g>
     </g>
     <g id="text_2">
      <!-- 2016 -->
      <g transform="translate(300.510411 527.238438) scale(0.1 -0.1)">
       <defs>
        <path id="DejaVuSans-36" d="M 2113 2584 
Q 1688 2584 1439 2293 
Q 1191 2003 1191 1497 
Q 1191 994 1439 701 
Q 1688 409 2113 409 
Q 2538 409 2786 701 
Q 3034 994 3034 1497 
Q 3034 2003 2786 2293 
Q 2538 2584 2113 2584 
z
M 3366 4563 
L 3366 3988 
Q 3128 4100 2886 4159 
Q 2644 4219 2406 4219 
Q 1781 4219 1451 3797 
Q 1122 3375 1075 2522 
Q 1259 2794 1537 2939 
Q 1816 3084 2150 3084 
Q 2853 3084 3261 2657 
Q 3669 2231 3669 1497 
Q 3669 778 3244 343 
Q 2819 -91 2113 -91 
Q 1303 -91 875 529 
Q 447 1150 447 2328 
Q 447 3434 972 4092 
Q 1497 4750 2381 4750 
Q 2619 4750 2861 4703 
Q 3103 4656 3366 4563 
z
" transform="scale(0.015625)"/>
       </defs>
       <use xlink:href="#DejaVuSans-32"/>
       <use xlink:href="#DejaVuSans-30" x="63.623047"/>
       <use xlink:href="#DejaVuSans-31" x="127.246094"/>
       <use xlink:href="#DejaVuSans-36" x="190.869141"/>
      </g>
     </g>
    </g>
    <g id="xtick_3">
     <g id="line2d_3">
      <g>
       <use xlink:href="#mdf56dd6951" x="449.533638" y="512.64" style="stroke: #000000; stroke-width: 0.8"/>
      </g>
     </g>
     <g id="text_3">
      <!-- 2018 -->
      <g transform="translate(436.808638 527.238438) scale(0.1 -0.1)">
       <defs>
        <path id="DejaVuSans-38" d="M 2034 2216 
Q 1584 2216 1326 1975 
Q 1069 1734 1069 1313 
Q 1069 891 1326 650 
Q 1584 409 2034 409 
Q 2484 409 2743 651 
Q 3003 894 3003 1313 
Q 3003 1734 2745 1975 
Q 2488 2216 2034 2216 
z
M 1403 2484 
Q 997 2584 770 2862 
Q 544 3141 544 3541 
Q 544 4100 942 4425 
Q 1341 4750 2034 4750 
Q 2731 4750 3128 4425 
Q 3525 4100 3525 3541 
Q 3525 3141 3298 2862 
Q 3072 2584 2669 2484 
Q 3125 2378 3379 2068 
Q 3634 1759 3634 1313 
Q 3634 634 3220 271 
Q 2806 -91 2034 -91 
Q 1263 -91 848 271 
Q 434 634 434 1313 
Q 434 1759 690 2068 
Q 947 2378 1403 2484 
z
M 1172 3481 
Q 1172 3119 1398 2916 
Q 1625 2713 2034 2713 
Q 2441 2713 2670 2916 
Q 2900 3119 2900 3481 
Q 2900 3844 2670 4047 
Q 2441 4250 2034 4250 
Q 1625 4250 1398 4047 
Q 1172 3844 1172 3481 
z
" transform="scale(0.015625)"/>
       </defs>
       <use xlink:href="#DejaVuSans-32"/>
       <use xlink:href="#DejaVuSans-30" x="63.623047"/>
       <use xlink:href="#DejaVuSans-31" x="127.246094"/>
       <use xlink:href="#DejaVuSans-38" x="190.869141"/>
      </g>
     </g>
    </g>
    <g id="xtick_4">
     <g id="line2d_4">
      <g>
       <use xlink:href="#mdf56dd6951" x="585.645411" y="512.64" style="stroke: #000000; stroke-width: 0.8"/>
      </g>
     </g>
     <g id="text_4">
      <!-- 2020 -->
      <g transform="translate(572.920411 527.238438) scale(0.1 -0.1)">
       <use xlink:href="#DejaVuSans-32"/>
       <use xlink:href="#DejaVuSans-30" x="63.623047"/>
       <use xlink:href="#DejaVuSans-32" x="127.246094"/>
       <use xlink:href="#DejaVuSans-30" x="190.869141"/>
      </g>
     </g>
    </g>
    <g id="xtick_5">
     <g id="line2d_5">
      <g>
       <use xlink:href="#mdf56dd6951" x="721.943638" y="512.64" style="stroke: #000000; stroke-width: 0.8"/>
      </g>
     </g>
     <g id="text_5">
      <!-- 2022 -->
      <g transform="translate(709.218638 527.238438) scale(0.1 -0.1)">
       <use xlink:href="#DejaVuSans-32"/>
       <use xlink:href="#DejaVuSans-30" x="63.623047"/>
       <use xlink:href="#DejaVuSans-32" x="127.246094"/>
       <use xlink:href="#DejaVuSans-32" x="190.869141"/>
      </g>
     </g>
    </g>
    <g id="xtick_6">
     <g id="line2d_6">
      <g>
       <use xlink:href="#mdf56dd6951" x="858.05541" y="512.64" style="stroke: #000000; stroke-width: 0.8"/>
      </g>
     </g>
     <g id="text_6">
      <!-- 2024 -->
      <g transform="translate(845.33041 527.238438) scale(0.1 -0.1)">
       <use xlink:href="#DejaVuSans-32"/>
       <use xlink:href="#DejaVuSans-30" x="63.623047"/>
       <use xlink:href="#DejaVuSans-32" x="127.246094"/>
       <use xlink:href="#DejaVuSans-34" x="190.869141"/>
      </g>
     </g>
    </g>
    <g id="xtick_7">
     <g id="line2d_7">
      <g>
       <use xlink:href="#mdf56dd6951" x="994.353637" y="512.64" style="stroke: #000000; stroke-width: 0.8"/>
      </g>
     </g>
     <g id="text_7">
      <!-- 2026 -->
      <g transform="translate(981.628637 527.238438) scale(0.1 -0.1)">
       <use xlink:href="#DejaVuSans-32"/>
       <use xlink:href="#DejaVuSans-30" x="63.623047"/>
       <use xlink:href="#DejaVuSans-32" x="127.246094"/>
       <use xlink:href="#DejaVuSans-36" x="190.869141"/>
      </g>
     </g>
    </g>
   </g>
   <g id="matplotlib.axis_2">
    <g id="ytick_1">
     <g id="line2d_8">
      <defs>
       <path id="m76b6f2c3a5" d="M 0 0 
L -3.5 0 
" style="stroke: #000000; stroke-width: 0.8"/>
      </defs>
      <g>
       <use xlink:href="#m76b6f2c3a5" x="144" y="492.509935" style="stroke: #000000; stroke-width: 0.8"/>
      </g>
     </g>
     <g id="text_8">
      <!-- 0 -->
      <g transform="translate(130.6375 496.309154) scale(0.1 -0.1)">
       <use xlink:href="#DejaVuSans-30"/>
      </g>
     </g>
    </g>
    <g id="ytick_2">
     <g id="line2d_9">
      <g>
       <use xlink:href="#m76b6f2c3a5" x="144" y="432.639121" style="stroke: #000000; stroke-width: 0.8"/>
      </g>
     </g>
     <g id="text_9">
      <!-- 2000 -->
      <g transform="translate(111.55 436.43834) scale(0.1 -0.1)">
       <use xlink:href="#DejaVuSans-32"/>
       <use xlink:href="#DejaVuSans-30" x="63.623047"/>
       <use xlink:href="#DejaVuSans-30" x="127.246094"/>
       <use xlink:href="#DejaVuSans-30" x="190.869141"/>
      </g>
     </g>
    </g>
    <g id="ytick_3">
     <g id="line2d_10">
      <g>
       <use xlink:href="#m76b6f2c3a5" x="144" y="372.768306" style="stroke: #000000; stroke-width: 0.8"/>
      </g>
     </g>
     <g id="text_10">
      <!-- 4000 -->
      <g transform="translate(111.55 376.567525) scale(0.1 -0.1)">
       <use xlink:href="#DejaVuSans-34"/>
       <use xlink:href="#DejaVuSans-30" x="63.623047"/>
       <use xlink:href="#DejaVuSans-30" x="127.246094"/>
       <use xlink:href="#DejaVuSans-30" x="190.869141"/>
      </g>
     </g>
    </g>
    <g id="ytick_4">
     <g id="line2d_11">
      <g>
       <use xlink:href="#m76b6f2c3a5" x="144" y="312.897492" style="stroke: #000000; stroke-width: 0.8"/>
      </g>
     </g>
     <g id="text_11">
      <!-- 6000 -->
      <g transform="translate(111.55 316.696711) scale(0.1 -0.1)">
       <use xlink:href="#DejaVuSans-36"/>
       <use xlink:href="#DejaVuSans-30" x="63.623047"/>
       <use xlink:href="#DejaVuSans-30" x="127.246094"/>
       <use xlink:href="#DejaVuSans-30" x="190.869141"/>
      </g>
     </g>
    </g>
    <g id="ytick_5">
     <g id="line2d_12">
      <g>
       <use xlink:href="#m76b6f2c3a5" x="144" y="253.026678" style="stroke: #000000; stroke-width: 0.8"/>
      </g>
     </g>
     <g id="text_12">
      <!-- 8000 -->
      <g transform="translate(111.55 256.825896) scale(0.1 -0.1)">
       <use xlink:href="#DejaVuSans-38"/>
       <use xlink:href="#DejaVuSans-30" x="63.623047"/>
       <use xlink:href="#DejaVuSans-30" x="127.246094"/>
       <use xlink:href="#DejaVuSans-30" x="190.869141"/>
      </g>
     </g>
    </g>
    <g id="ytick_6">
     <g id="line2d_13">
      <g>
       <use xlink:href="#m76b6f2c3a5" x="144" y="193.155863" style="stroke: #000000; stroke-width: 0.8"/>
      </g>
     </g>
     <g id="text_13">
      <!-- 10000 -->
      <g transform="translate(105.1875 196.955082) scale(0.1 -0.1)">
       <use xlink:href="#DejaVuSans-31"/>
       <use xlink:href="#DejaVuSans-30" x="63.623047"/>
       <use xlink:href="#DejaVuSans-30" x="127.246094"/>
       <use xlink:href="#DejaVuSans-30" x="190.869141"/>
       <use xlink:href="#DejaVuSans-30" x="254.492188"/>
      </g>
     </g>
    </g>
    <g id="ytick_7">
     <g id="line2d_14">
      <g>
       <use xlink:href="#m76b6f2c3a5" x="144" y="133.285049" style="stroke: #000000; stroke-width: 0.8"/>
      </g>
     </g>
     <g id="text_14">
      <!-- 12000 -->
      <g transform="translate(105.1875 137.084267) scale(0.1 -0.1)">
       <use xlink:href="#DejaVuSans-31"/>
       <use xlink:href="#DejaVuSans-32" x="63.623047"/>
       <use xlink:href="#DejaVuSans-30" x="127.246094"/>
       <use xlink:href="#DejaVuSans-30" x="190.869141"/>
       <use xlink:href="#DejaVuSans-30" x="254.492188"/>
      </g>
     </g>
    </g>
    <g id="ytick_8">
     <g id="line2d_15">
      <g>
       <use xlink:href="#m76b6f2c3a5" x="144" y="73.414234" style="stroke: #000000; stroke-width: 0.8"/>
      </g>
     </g>
     <g id="text_15">
      <!-- 14000 -->
      <g transform="translate(105.1875 77.213453) scale(0.1 -0.1)">
       <use xlink:href="#DejaVuSans-31"/>
       <use xlink:href="#DejaVuSans-34" x="63.623047"/>
       <use xlink:href="#DejaVuSans-30" x="127.246094"/>
       <use xlink:href="#DejaVuSans-30" x="190.869141"/>
       <use xlink:href="#DejaVuSans-30" x="254.492188"/>
      </g>
     </g>
    </g>
   </g>
   <g id="line2d_16">
    <path d="M 184.581818 492.48 
L 186.259909 492.420129 
L 286.758875 492.270452 
L 439.278642 492.120775 
L 489.994261 491.941163 
L 503.232529 491.851356 
L 535.489155 491.671744 
L 538.658881 491.611873 
L 561.965691 491.492132 
L 591.798409 491.312519 
L 592.171318 491.073036 
L 596.086862 490.923359 
L 630.580941 490.773682 
L 655.379387 490.624005 
L 669.736382 490.414457 
L 685.585013 489.965426 
L 686.890195 489.87562 
L 697.704555 489.636136 
L 704.230462 489.246976 
L 713.926095 489.037428 
L 718.401002 487.929818 
L 718.587457 487.810076 
L 720.265547 487.72027 
L 721.011365 487.301175 
L 721.19782 486.61266 
L 721.570729 486.433048 
L 721.757183 486.403112 
L 721.943638 485.445179 
L 723.062365 485.026084 
L 723.435273 484.517182 
L 723.808182 484.367505 
L 723.994637 484.00828 
L 724.181091 483.200024 
L 724.554 482.541445 
L 724.740455 481.673318 
L 724.926909 480.026871 
L 725.486273 478.829454 
L 725.859182 473.471016 
L 726.045636 472.902244 
L 726.418545 469.459672 
L 726.605 468.890899 
L 726.791454 467.394129 
L 726.977909 467.304323 
L 727.537272 465.358521 
L 727.723727 461.137629 
L 727.910181 460.778404 
L 728.28309 459.580987 
L 728.469545 459.491181 
L 728.655999 458.862538 
L 728.842453 455.898932 
L 729.028908 455.180483 
L 729.215362 455.150547 
L 729.401817 453.025133 
L 729.588271 452.755715 
L 729.96118 452.606038 
L 730.706998 450.660236 
L 731.079907 450.061528 
L 731.639271 448.445016 
L 732.01218 443.894834 
L 732.385089 441.76942 
L 732.944452 441.679614 
L 733.317361 441.470066 
L 734.063179 440.302585 
L 734.436088 440.242714 
L 734.808997 437.758076 
L 734.995451 437.72814 
L 735.36836 437.309044 
L 735.554815 436.23137 
L 735.927724 435.872145 
L 736.114178 435.722468 
L 736.300633 435.213566 
L 736.859996 435.033954 
L 737.232905 434.764535 
L 737.605814 433.656925 
L 737.792269 433.567119 
L 738.165178 433.118087 
L 738.910996 432.788798 
L 739.09745 431.741059 
L 739.470359 431.531511 
L 739.656813 429.555774 
L 740.029722 429.495903 
L 740.402631 428.897195 
L 740.589086 428.328422 
L 741.148449 428.208681 
L 741.334904 428.029068 
L 741.707813 427.460295 
L 741.894267 427.43036 
L 742.267176 426.981329 
L 742.640085 426.861587 
L 742.82654 425.514494 
L 743.758812 425.364817 
L 743.945267 425.334882 
L 744.318176 425.095398 
L 745.063993 425.005592 
L 745.250448 424.88585 
L 747.860811 424.197336 
L 748.23372 423.957853 
L 749.165992 423.838111 
L 749.91181 423.478886 
L 751.776355 423.119661 
L 752.522173 420.904441 
L 753.454445 420.7847 
L 753.6409 420.724829 
L 755.132536 420.575152 
L 755.878353 420.305733 
L 756.99708 420.156056 
L 758.675171 419.557348 
L 759.04808 419.407671 
L 759.234534 419.3478 
L 759.420989 419.168188 
L 760.166807 418.928704 
L 761.099079 418.868834 
L 761.285533 418.659286 
L 761.658442 418.62935 
L 761.844897 418.180319 
L 762.031351 418.120448 
L 762.217806 417.491805 
L 765.014623 416.952968 
L 765.201078 416.593743 
L 766.506259 416.294389 
L 767.065622 416.114776 
L 767.81144 415.965099 
L 768.557258 415.785487 
L 769.489531 415.605874 
L 770.981167 415.037101 
L 771.354076 414.887424 
L 771.54053 414.288716 
L 772.472802 413.630137 
L 772.659257 413.360719 
L 773.591529 412.672204 
L 773.964438 412.043561 
L 774.150893 412.013625 
L 774.523802 411.325111 
L 775.26962 410.54679 
L 775.828983 410.456984 
L 776.201892 410.187566 
L 776.388347 410.097759 
L 776.574801 409.798405 
L 777.507073 409.588857 
L 777.693528 409.319439 
L 779.558073 408.990149 
L 779.744527 408.840472 
L 780.6768 408.720731 
L 781.981981 408.211829 
L 782.541345 408.122022 
L 782.914253 407.61312 
L 783.287162 407.403573 
L 784.219435 406.804865 
L 784.405889 406.11635 
L 785.151707 405.906802 
L 785.897525 405.607448 
L 787.575616 404.739321 
L 787.76207 404.439967 
L 788.321433 404.260355 
L 789.253706 403.841259 
L 789.626615 400.757912 
L 789.813069 399.770044 
L 789.999524 397.973919 
L 790.185978 397.764372 
L 790.745342 395.878441 
L 791.304705 394.950443 
L 791.49116 394.890572 
L 791.864069 394.531348 
L 792.050523 393.633285 
L 792.236978 393.303996 
L 792.609887 393.21419 
L 793.16925 392.49574 
L 793.355705 391.956903 
L 793.915068 391.328259 
L 794.101522 390.520003 
L 795.033795 389.113039 
L 795.779613 388.813685 
L 795.966067 388.693943 
L 796.152522 387.915623 
L 796.711885 387.646204 
L 797.457703 386.867883 
L 797.644158 386.299111 
L 797.830612 386.269175 
L 798.389976 385.700402 
L 798.762885 385.670467 
L 798.949339 385.371113 
L 799.322248 385.1915 
L 799.881611 384.712534 
L 800.25452 384.502986 
L 800.440975 383.994084 
L 801.746156 383.066087 
L 801.932611 382.97628 
L 802.30552 381.86867 
L 802.864883 381.659122 
L 803.424247 381.509445 
L 803.797156 380.940673 
L 803.98361 380.850866 
L 805.102337 379.563644 
L 805.848155 379.413967 
L 806.034609 379.384031 
L 806.593973 378.54584 
L 807.339791 378.396163 
L 808.272063 377.737584 
L 808.458518 377.707649 
L 809.017881 377.288553 
L 809.39079 377.168811 
L 809.763699 377.138876 
L 809.950153 376.959263 
L 810.136608 376.450362 
L 810.882426 376.240814 
L 811.06888 375.94146 
L 811.255335 375.911524 
L 811.441789 375.372687 
L 812.187607 375.133204 
L 812.560516 375.043397 
L 812.933425 374.773979 
L 814.984425 373.995658 
L 815.170879 373.217338 
L 815.543788 372.947919 
L 816.103151 372.768306 
L 816.662515 372.468952 
L 817.408333 372.349211 
L 817.594787 371.511019 
L 819.272878 370.762634 
L 819.645787 370.702763 
L 819.832241 370.46328 
L 820.391605 370.283668 
L 820.578059 370.223797 
L 820.764514 369.894507 
L 821.137422 369.864572 
L 821.510331 369.655024 
L 822.069695 369.385605 
L 822.256149 369.026381 
L 823.001967 368.876704 
L 823.374876 368.667156 
L 823.561331 368.63722 
L 823.747785 368.457608 
L 824.307149 368.307931 
L 824.493603 368.038512 
L 824.680058 368.008577 
L 825.052967 367.769093 
L 825.425876 367.619416 
L 825.61233 367.469739 
L 826.731057 367.230256 
L 826.917511 366.900967 
L 827.476875 366.75129 
L 828.036238 366.661483 
L 828.409147 366.392065 
L 828.968511 366.242388 
L 829.34142 366.122646 
L 829.527874 365.913098 
L 829.900783 365.853227 
L 830.087238 365.344325 
L 830.273692 365.254519 
L 830.646601 364.865359 
L 830.833056 364.236715 
L 831.205965 364.027168 
L 831.392419 363.937361 
L 831.765328 363.638007 
L 832.6976 362.949493 
L 833.070509 362.829751 
L 833.256964 362.500462 
L 833.629873 362.320849 
L 834.189236 361.99156 
L 834.7486 361.841883 
L 835.867327 360.854014 
L 836.240236 360.644467 
L 836.799599 360.285242 
L 837.358962 360.135565 
L 837.918326 360.015823 
L 838.10478 359.955952 
L 839.037053 359.207567 
L 839.596416 358.938148 
L 841.274507 358.33944 
L 841.647416 358.099957 
L 842.206779 357.95028 
L 842.766142 357.650926 
L 843.325506 357.501249 
L 843.884869 357.261766 
L 844.817142 357.112088 
L 845.376505 356.752864 
L 845.56296 356.722928 
L 845.749414 356.423574 
L 848.173322 355.555447 
L 848.546231 355.375835 
L 848.91914 355.315964 
L 849.292049 354.926804 
L 849.478504 353.639581 
L 849.851413 353.340227 
L 850.224322 353.19055 
L 850.783685 352.4721 
L 851.156594 352.202682 
L 851.529503 351.394426 
L 851.902412 351.184878 
L 852.275321 351.005265 
L 852.64823 350.915459 
L 853.021139 350.675976 
L 853.207594 350.556234 
L 854.139866 350.346686 
L 854.512775 349.987462 
L 855.072138 349.568366 
L 855.445047 349.448624 
L 855.817956 349.089399 
L 856.936683 348.341014 
L 857.309592 348.311079 
L 857.496047 348.04166 
L 858.241865 347.862048 
L 858.428319 347.26334 
L 858.801228 346.963985 
L 859.547046 346.754438 
L 859.919955 346.604761 
L 860.106409 346.185665 
L 860.479318 346.065923 
L 860.665773 345.676763 
L 861.225136 345.287603 
L 861.598045 345.10799 
L 861.970954 345.018184 
L 862.343863 344.808636 
L 862.530318 344.778701 
L 862.903227 344.569153 
L 863.649045 344.179993 
L 864.021954 343.461543 
L 865.513589 342.743093 
L 865.700044 342.204256 
L 866.259407 341.994708 
L 866.818771 341.366064 
L 867.005225 341.306193 
L 867.378134 341.036775 
L 867.564589 341.006839 
L 867.937498 340.557808 
L 868.310407 340.34826 
L 869.056225 340.048906 
L 869.242679 339.749552 
L 869.615588 339.689681 
L 869.802042 339.480134 
L 869.988497 339.450198 
L 870.174951 338.85149 
L 870.734315 338.671878 
L 870.920769 338.582071 
L 871.293678 338.192911 
L 871.480133 338.07317 
L 872.039496 337.414591 
L 873.531132 336.546464 
L 874.090496 336.396787 
L 874.27695 336.30698 
L 874.649859 335.857949 
L 874.836314 335.798079 
L 875.768586 335.049693 
L 876.327949 334.81021 
L 876.700858 334.630598 
L 876.887313 334.600662 
L 877.073767 333.972019 
L 877.633131 333.612794 
L 877.819585 333.044021 
L 878.192494 332.774602 
L 878.378949 332.535119 
L 878.565403 332.505184 
L 879.311221 331.846605 
L 880.057039 331.547251 
L 880.429948 331.277832 
L 881.548675 330.798866 
L 882.294493 329.840933 
L 883.040311 329.421837 
L 883.226765 329.212289 
L 883.41322 329.182354 
L 883.599674 328.853064 
L 886.023582 327.595777 
L 886.396491 327.356294 
L 886.7694 327.296423 
L 887.142309 327.11681 
L 887.515218 326.967133 
L 888.447491 326.308554 
L 889.752672 325.560169 
L 890.312036 325.320686 
L 890.871399 325.081203 
L 891.430762 324.84172 
L 891.803671 324.721978 
L 891.990126 323.644303 
L 892.549489 323.40482 
L 892.735944 323.135401 
L 892.922398 323.105466 
L 893.481762 322.267274 
L 894.041125 321.518889 
L 894.414034 321.399148 
L 895.159852 320.411279 
L 895.532761 319.064186 
L 895.719216 318.64509 
L 896.092125 316.489741 
L 896.278579 315.591679 
L 897.210851 314.573875 
L 897.956669 311.909624 
L 898.143124 311.759947 
L 898.329578 311.370786 
L 898.516033 309.963822 
L 898.702487 309.544726 
L 898.888942 309.514791 
L 899.075396 308.856212 
L 899.63476 308.496987 
L 900.007669 307.539054 
L 902.058668 306.52125 
L 902.618031 305.892607 
L 902.99094 305.263963 
L 903.363849 305.144222 
L 903.736758 304.994545 
L 904.109667 304.784997 
L 904.482576 304.605384 
L 905.414849 304.365901 
L 905.787758 304.186289 
L 906.347121 304.126418 
L 908.025211 302.899066 
L 908.39812 302.689518 
L 908.584575 302.420099 
L 909.330393 302.150681 
L 909.516847 302.060875 
L 909.703302 301.402296 
L 910.262665 300.9832 
L 910.635574 300.923329 
L 911.381392 300.414427 
L 912.313665 300.085138 
L 912.686574 299.725913 
L 913.059482 299.666042 
L 913.618846 298.648238 
L 913.991755 298.498561 
L 914.551118 297.510693 
L 914.737573 296.94192 
L 914.924027 296.882049 
L 915.296936 296.61263 
L 915.669845 296.343212 
L 915.8563 296.073793 
L 916.229209 294.906312 
L 916.415663 294.666829 
L 916.602118 294.038185 
L 916.788572 293.978315 
L 916.975027 293.469413 
L 917.347936 293.2898 
L 918.466662 292.361803 
L 918.653117 291.942707 
L 919.026026 291.852901 
L 919.771844 291.493676 
L 920.517662 291.254193 
L 920.704116 290.625549 
L 921.449934 290.086712 
L 921.822843 290.056776 
L 922.755116 289.428133 
L 923.500934 288.919231 
L 923.873842 288.560006 
L 924.246751 288.320523 
L 924.433206 288.051104 
L 924.61966 287.452396 
L 925.738387 286.973429 
L 926.111296 286.524398 
L 926.484205 286.434592 
L 926.67066 286.075367 
L 927.043569 285.92569 
L 927.230023 285.626336 
L 929.281022 284.518726 
L 930.213295 283.620664 
L 931.145567 281.794604 
L 931.891385 278.262226 
L 932.264294 277.543776 
L 932.450749 277.184551 
L 932.637203 275.597975 
L 932.823658 272.544563 
L 934.128839 264.192584 
L 934.501748 260.121369 
L 934.874657 259.552596 
L 935.247566 254.283965 
L 935.43402 252.906936 
L 935.806929 247.159338 
L 936.179838 246.051728 
L 936.366293 243.058187 
L 936.552747 242.51935 
L 936.925656 239.25639 
L 937.298565 230.455381 
L 937.48502 229.976414 
L 937.671474 229.138223 
L 937.857929 226.444036 
L 938.044383 226.234488 
L 938.417292 221.714242 
L 938.790201 221.504694 
L 939.16311 220.666502 
L 939.349565 220.48689 
L 939.536019 220.067794 
L 939.722474 219.229603 
L 940.095382 219.04999 
L 940.654746 217.433478 
L 941.027655 215.158387 
L 941.214109 214.739292 
L 941.400564 214.679421 
L 941.587018 214.469873 
L 942.519291 212.344459 
L 942.705745 212.284588 
L 943.078654 211.715816 
L 943.451563 211.566139 
L 943.638018 211.117107 
L 943.824472 210.96743 
L 944.197381 210.458528 
L 944.57029 210.159174 
L 945.129654 209.680208 
L 945.316108 209.650272 
L 945.875471 209.0815 
L 946.434835 208.692339 
L 946.621289 208.632469 
L 947.367107 208.482792 
L 947.553562 208.303179 
L 947.926471 208.243308 
L 948.485834 207.854148 
L 949.97747 207.165634 
L 950.163925 206.746538 
L 951.096197 206.507055 
L 951.65556 205.968217 
L 952.028469 205.75867 
L 952.774287 204.980349 
L 953.520105 204.71093 
L 954.079469 204.351705 
L 954.452378 204.082287 
L 954.825287 203.812868 
L 955.198196 203.60332 
L 955.38465 202.914806 
L 956.130468 202.435839 
L 956.316922 202.166421 
L 956.689831 201.956873 
L 957.249195 201.567713 
L 958.367922 200.939069 
L 958.554376 200.789392 
L 959.11374 200.729521 
L 959.486649 199.861394 
L 959.673103 199.771588 
L 960.046012 199.292622 
L 960.79183 198.604107 
L 960.978285 198.514301 
L 961.537648 197.765916 
L 961.724102 197.167208 
L 961.910557 197.017531 
L 962.283466 196.95766 
L 962.656375 196.598435 
L 963.402193 196.23921 
L 963.775102 196.119468 
L 964.52092 195.341148 
L 964.707374 195.311212 
L 964.893829 191.778834 
L 965.266738 191.299868 
L 965.639647 190.970578 
L 965.826101 190.611353 
L 966.012556 190.581418 
L 966.385465 190.192258 
L 966.571919 189.623485 
L 967.690646 188.426069 
L 967.8771 188.096779 
L 968.250009 186.360526 
L 968.809373 184.624272 
L 968.995827 183.486727 
L 969.368736 182.558729 
L 969.555191 181.840279 
L 970.301009 181.002088 
L 970.673918 180.523121 
L 971.046827 180.104026 
L 971.60619 179.924413 
L 972.165554 179.385576 
L 972.724917 178.457578 
L 972.911371 178.397707 
L 973.28428 178.008547 
L 973.470735 177.828935 
L 973.843644 177.110485 
L 974.216553 176.691389 
L 974.403007 175.703521 
L 975.708189 174.805458 
L 977.01337 173.09914 
L 977.386279 172.141207 
L 977.572734 171.961595 
L 978.132097 170.704308 
L 978.318551 170.614501 
L 978.505006 170.045729 
L 978.69146 169.836181 
L 979.250824 168.189733 
L 979.810187 167.321607 
L 980.369551 166.992317 
L 980.556005 166.483415 
L 981.488278 165.495547 
L 981.674732 165.046516 
L 982.42055 162.4122 
L 982.607005 161.963169 
L 982.793459 160.406528 
L 982.979914 160.167044 
L 983.166368 158.849886 
L 983.539277 158.281114 
L 983.725731 157.742276 
L 984.09864 155.377379 
L 984.471549 154.509252 
L 984.658004 154.32964 
L 984.844458 146.606305 
L 985.030913 143.6427 
L 985.217367 125.980809 
L 985.776731 124.753458 
L 985.963185 124.573845 
L 986.336094 123.136946 
L 986.709003 122.179013 
L 987.82773 114.665225 
L 988.387094 113.13852 
L 988.573548 111.282524 
L 988.946457 110.653881 
L 989.319366 109.216981 
L 989.50582 107.390921 
L 989.692275 106.971826 
L 990.065184 105.714539 
L 990.624547 104.786541 
L 990.811002 104.666799 
L 991.370365 102.451579 
L 992.116183 99.727457 
L 992.302638 99.218555 
L 992.675547 96.883593 
L 993.23491 96.554304 
L 993.607819 96.135208 
L 993.794274 95.267081 
L 994.167183 94.728244 
L 994.353637 94.518696 
L 994.540091 93.979859 
L 994.726546 93.081797 
L 995.285909 92.034057 
L 995.472364 91.525156 
L 995.845273 89.699096 
L 996.031727 89.339871 
L 996.218182 89.28 
L 996.218182 89.28 
" clip-path="url(#pd263b6ff80)" style="fill: none; stroke: #1f77b4; stroke-width: 1.5; stroke-linecap: square"/>
   </g>
   <g id="patch_3">
    <path d="M 144 512.64 
L 144 69.12 
" style="fill: none; stroke: #000000; stroke-width: 0.8; stroke-linejoin: miter; stroke-linecap: square"/>
   </g>
   <g id="patch_4">
    <path d="M 1036.8 512.64 
L 1036.8 69.12 
" style="fill: none; stroke: #000000; stroke-width: 0.8; stroke-linejoin: miter; stroke-linecap: square"/>
   </g>
   <g id="patch_5">
    <path d="M 144 512.64 
L 1036.8 512.64 
" style="fill: none; stroke: #000000; stroke-width: 0.8; stroke-linejoin: miter; stroke-linecap: square"/>
   </g>
   <g id="patch_6">
    <path d="M 144 69.12 
L 1036.8 69.12 
" style="fill: none; stroke: #000000; stroke-width: 0.8; stroke-linejoin: miter; stroke-linecap: square"/>
   </g>
   <g id="text_16">
    <!-- Number of AEDs in the OpenStreetMap database in Poland from first edition, day by day. As at: 2026-01-11 -->
    <g transform="translate(144 63.12) scale(0.14 -0.14)">
     <defs>
      <path id="DejaVuSans-4e" d="M 628 4666 
L 1478 4666 
L 3547 763 
L 3547 4666 
L 4159 4666 
L 4159 0 
L 3309 0 
L 1241 3903 
L 1241 0 
L 628 0 
L 628 4666 
z
" transform="scale(0.015625)"/>
      <path id="DejaVuSans-75" d="M 544 1381 
L 544 3500 
L 1119 3500 
L 1119 1403 
Q 1119 906 1312 657 
Q 1506 409 1894 409 
Q 2359 409 2629 706 
Q 2900 1003 2900 1516 
L 2900 3500 
L 3475 3500 
L 3475 0 
L 2900 0 
L 2900 538 
Q 2691 219 2414 64 
Q 2138 -91 1772 -91 
Q 1169 -91 856 284 
Q 544 659 544 1381 
z
M 1991 3584 
L 1991 3584 
z
" transform="scale(0.015625)"/>
      <path id="DejaVuSans-6d" d="M 3328 2828 
Q 3544 3216 3844 3400 
Q 4144 3584 4550 3584 
Q 5097 3584 5394 3201 
Q 5691 2819 5691 2113 
L 5691 0 
L 5113 0 
L 5113 2094 
Q 5113 2597 4934 2840 
Q 4756 3084 4391 3084 
Q 3944 3084 3684 2787 
Q 3425 2491 3425 1978 
L 3425 0 
L 2847 0 
L 2847 2094 
Q 2847 2600 2669 2842 
Q 2491 3084 2119 3084 
Q 1678 3084 1418 2786 
Q 1159 2488 1159 1978 
L 1159 0 
L 581 0 
L 581 3500 
L 1159 3500 
L 1159 2956 
Q 1356 3278 1631 3431 
Q 1906 3584 2284 3584 
Q 2666 3584 2933 3390 
Q 3200 3197 3328 2828 
z
" transform="scale(0.015625)"/>
      <path id="DejaVuSans-62" d="M 3116 1747 
Q 3116 2381 2855 2742 
Q 2594 3103 2138 3103 
Q 1681 3103 1420 2742 
Q 1159 2381 1159 1747 
Q 1159 1113 1420 752 
Q 1681 391 2138 391 
Q 2594 391 2855 752 
Q 3116 1113 3116 1747 
z
M 1159 2969 
Q 1341 3281 1617 3432 
Q 1894 3584 2278 3584 
Q 2916 3584 3314 3078 
Q 3713 2572 3713 1747 
Q 3713 922 3314 415 
Q 2916 -91 2278 -91 
Q 1894 -91 1617 61 
Q 1341 213 1159 525 
L 1159 0 
L 581 0 
L 581 4863 
L 1159 4863 
L 1159 2969 
z
" transform="scale(0.015625)"/>
      <path id="DejaVuSans-65" d="M 3597 1894 
L 3597 1613 
L 953 1613 
Q 991 1019 1311 708 
Q 1631 397 2203 397 
Q 2534 397 2845 478 
Q 3156 559 3463 722 
L 3463 178 
Q 3153 47 2828 -22 
Q 2503 -91 2169 -91 
Q 1331 -91 842 396 
Q 353 884 353 1716 
Q 353 2575 817 3079 
Q 1281 3584 2069 3584 
Q 2775 3584 3186 3129 
Q 3597 2675 3597 1894 
z
M 3022 2063 
Q 3016 2534 2758 2815 
Q 2500 3097 2075 3097 
Q 1594 3097 1305 2825 
Q 1016 2553 972 2059 
L 3022 2063 
z
" transform="scale(0.015625)"/>
      <path id="DejaVuSans-72" d="M 2631 2963 
Q 2534 3019 2420 3045 
Q 2306 3072 2169 3072 
Q 1681 3072 1420 2755 
Q 1159 2438 1159 1844 
L 1159 0 
L 581 0 
L 581 3500 
L 1159 3500 
L 1159 2956 
Q 1341 3275 1631 3429 
Q 1922 3584 2338 3584 
Q 2397 3584 2469 3576 
Q 2541 3569 2628 3553 
L 2631 2963 
z
" transform="scale(0.015625)"/>
      <path id="DejaVuSans-20" transform="scale(0.015625)"/>
      <path id="DejaVuSans-6f" d="M 1959 3097 
Q 1497 3097 1228 2736 
Q 959 2375 959 1747 
Q 959 1119 1226 758 
Q 1494 397 1959 397 
Q 2419 397 2687 759 
Q 2956 1122 2956 1747 
Q 2956 2369 2687 2733 
Q 2419 3097 1959 3097 
z
M 1959 3584 
Q 2709 3584 3137 3096 
Q 3566 2609 3566 1747 
Q 3566 888 3137 398 
Q 2709 -91 1959 -91 
Q 1206 -91 779 398 
Q 353 888 353 1747 
Q 353 2609 779 3096 
Q 1206 3584 1959 3584 
z
" transform="scale(0.015625)"/>
      <path id="DejaVuSans-66" d="M 2375 4863 
L 2375 4384 
L 1825 4384 
Q 1516 4384 1395 4259 
Q 1275 4134 1275 3809 
L 1275 3500 
L 2222 3500 
L 2222 3053 
L 1275 3053 
L 1275 0 
L 697 0 
L 697 3053 
L 147 3053 
L 147 3500 
L 697 3500 
L 697 3744 
Q 697 4328 969 4595 
Q 1241 4863 1831 4863 
L 2375 4863 
z
" transform="scale(0.015625)"/>
      <path id="DejaVuSans-41" d="M 2188 4044 
L 1331 1722 
L 3047 1722 
L 2188 4044 
z
M 1831 4666 
L 2547 4666 
L 4325 0 
L 3669 0 
L 3244 1197 
L 1141 1197 
L 716 0 
L 50 0 
L 1831 4666 
z
" transform="scale(0.015625)"/>
      <path id="DejaVuSans-45" d="M 628 4666 
L 3578 4666 
L 3578 4134 
L 1259 4134 
L 1259 2753 
L 3481 2753 
L 3481 2222 
L 1259 2222 
L 1259 531 
L 3634 531 
L 3634 0 
L 628 0 
L 628 4666 
z
" transform="scale(0.015625)"/>
      <path id="DejaVuSans-44" d="M 1259 4147 
L 1259 519 
L 2022 519 
Q 2988 519 3436 956 
Q 3884 1394 3884 2338 
Q 3884 3275 3436 3711 
Q 2988 4147 2022 4147 
L 1259 4147 
z
M 628 4666 
L 1925 4666 
Q 3281 4666 3915 4102 
Q 4550 3538 4550 2338 
Q 4550 1131 3912 565 
Q 3275 0 1925 0 
L 628 0 
L 628 4666 
z
" transform="scale(0.015625)"/>
      <path id="DejaVuSans-73" d="M 2834 3397 
L 2834 2853 
Q 2591 2978 2328 3040 
Q 2066 3103 1784 3103 
Q 1356 3103 1142 2972 
Q 928 2841 928 2578 
Q 928 2378 1081 2264 
Q 1234 2150 1697 2047 
L 1894 2003 
Q 2506 1872 2764 1633 
Q 3022 1394 3022 966 
Q 3022 478 2636 193 
Q 2250 -91 1575 -91 
Q 1294 -91 989 -36 
Q 684 19 347 128 
L 347 722 
Q 666 556 975 473 
Q 1284 391 1588 391 
Q 1994 391 2212 530 
Q 2431 669 2431 922 
Q 2431 1156 2273 1281 
Q 2116 1406 1581 1522 
L 1381 1569 
Q 847 1681 609 1914 
Q 372 2147 372 2553 
Q 372 3047 722 3315 
Q 1072 3584 1716 3584 
Q 2034 3584 2315 3537 
Q 2597 3491 2834 3397 
z
" transform="scale(0.015625)"/>
      <path id="DejaVuSans-69" d="M 603 3500 
L 1178 3500 
L 1178 0 
L 603 0 
L 603 3500 
z
M 603 4863 
L 1178 4863 
L 1178 4134 
L 603 4134 
L 603 4863 
z
" transform="scale(0.015625)"/>
      <path id="DejaVuSans-6e" d="M 3513 2113 
L 3513 0 
L 2938 0 
L 2938 2094 
Q 2938 2591 2744 2837 
Q 2550 3084 2163 3084 
Q 1697 3084 1428 2787 
Q 1159 2491 1159 1978 
L 1159 0 
L 581 0 
L 581 3500 
L 1159 3500 
L 1159 2956 
Q 1366 3272 1645 3428 
Q 1925 3584 2291 3584 
Q 2894 3584 3203 3211 
Q 3513 2838 3513 2113 
z
" transform="scale(0.015625)"/>
      <path id="DejaVuSans-74" d="M 1172 4494 
L 1172 3500 
L 2356 3500 
L 2356 3053 
L 1172 3053 
L 1172 1153 
Q 1172 725 1289 603 
Q 1406 481 1766 481 
L 2356 481 
L 2356 0 
L 1766 0 
Q 1100 0 847 248 
Q 594 497 594 1153 
L 594 3053 
L 172 3053 
L 172 3500 
L 594 3500 
L 594 4494 
L 1172 4494 
z
" transform="scale(0.015625)"/>
      <path id="DejaVuSans-68" d="M 3513 2113 
L 3513 0 
L 2938 0 
L 2938 2094 
Q 2938 2591 2744 2837 
Q 2550 3084 2163 3084 
Q 1697 3084 1428 2787 
Q 1159 2491 1159 1978 
L 1159 0 
L 581 0 
L 581 4863 
L 1159 4863 
L 1159 2956 
Q 1366 3272 1645 3428 
Q 1925 3584 2291 3584 
Q 2894 3584 3203 3211 
Q 3513 2838 3513 2113 
z
" transform="scale(0.015625)"/>
      <path id="DejaVuSans-4f" d="M 2522 4238 
Q 1834 4238 1429 3725 
Q 1025 3213 1025 2328 
Q 1025 1447 1429 934 
Q 1834 422 2522 422 
Q 3209 422 3611 934 
Q 4013 1447 4013 2328 
Q 4013 3213 3611 3725 
Q 3209 4238 2522 4238 
z
M 2522 4750 
Q 3503 4750 4090 4092 
Q 4678 3434 4678 2328 
Q 4678 1225 4090 567 
Q 3503 -91 2522 -91 
Q 1538 -91 948 565 
Q 359 1222 359 2328 
Q 359 3434 948 4092 
Q 1538 4750 2522 4750 
z
" transform="scale(0.015625)"/>
      <path id="DejaVuSans-70" d="M 1159 525 
L 1159 -1331 
L 581 -1331 
L 581 3500 
L 1159 3500 
L 1159 2969 
Q 1341 3281 1617 3432 
Q 1894 3584 2278 3584 
Q 2916 3584 3314 3078 
Q 3713 2572 3713 1747 
Q 3713 922 3314 415 
Q 2916 -91 2278 -91 
Q 1894 -91 1617 61 
Q 1341 213 1159 525 
z
M 3116 1747 
Q 3116 2381 2855 2742 
Q 2594 3103 2138 3103 
Q 1681 3103 1420 2742 
Q 1159 2381 1159 1747 
Q 1159 1113 1420 752 
Q 1681 391 2138 391 
Q 2594 391 2855 752 
Q 3116 1113 3116 1747 
z
" transform="scale(0.015625)"/>
      <path id="DejaVuSans-53" d="M 3425 4513 
L 3425 3897 
Q 3066 4069 2747 4153 
Q 2428 4238 2131 4238 
Q 1616 4238 1336 4038 
Q 1056 3838 1056 3469 
Q 1056 3159 1242 3001 
Q 1428 2844 1947 2747 
L 2328 2669 
Q 3034 2534 3370 2195 
Q 3706 1856 3706 1288 
Q 3706 609 3251 259 
Q 2797 -91 1919 -91 
Q 1588 -91 1214 -16 
Q 841 59 441 206 
L 441 856 
Q 825 641 1194 531 
Q 1563 422 1919 422 
Q 2459 422 2753 634 
Q 3047 847 3047 1241 
Q 3047 1584 2836 1778 
Q 2625 1972 2144 2069 
L 1759 2144 
Q 1053 2284 737 2584 
Q 422 2884 422 3419 
Q 422 4038 858 4394 
Q 1294 4750 2059 4750 
Q 2388 4750 2728 4690 
Q 3069 4631 3425 4513 
z
" transform="scale(0.015625)"/>
      <path id="DejaVuSans-4d" d="M 628 4666 
L 1569 4666 
L 2759 1491 
L 3956 4666 
L 4897 4666 
L 4897 0 
L 4281 0 
L 4281 4097 
L 3078 897 
L 2444 897 
L 1241 4097 
L 1241 0 
L 628 0 
L 628 4666 
z
" transform="scale(0.015625)"/>
      <path id="DejaVuSans-61" d="M 2194 1759 
Q 1497 1759 1228 1600 
Q 959 1441 959 1056 
Q 959 750 1161 570 
Q 1363 391 1709 391 
Q 2188 391 2477 730 
Q 2766 1069 2766 1631 
L 2766 1759 
L 2194 1759 
z
M 3341 1997 
L 3341 0 
L 2766 0 
L 2766 531 
Q 2569 213 2275 61 
Q 1981 -91 1556 -91 
Q 1019 -91 701 211 
Q 384 513 384 1019 
Q 384 1609 779 1909 
Q 1175 2209 1959 2209 
L 2766 2209 
L 2766 2266 
Q 2766 2663 2505 2880 
Q 2244 3097 1772 3097 
Q 1472 3097 1187 3025 
Q 903 2953 641 2809 
L 641 3341 
Q 956 3463 1253 3523 
Q 1550 3584 1831 3584 
Q 2591 3584 2966 3190 
Q 3341 2797 3341 1997 
z
" transform="scale(0.015625)"/>
      <path id="DejaVuSans-64" d="M 2906 2969 
L 2906 4863 
L 3481 4863 
L 3481 0 
L 2906 0 
L 2906 525 
Q 2725 213 2448 61 
Q 2172 -91 1784 -91 
Q 1150 -91 751 415 
Q 353 922 353 1747 
Q 353 2572 751 3078 
Q 1150 3584 1784 3584 
Q 2172 3584 2448 3432 
Q 2725 3281 2906 2969 
z
M 947 1747 
Q 947 1113 1208 752 
Q 1469 391 1925 391 
Q 2381 391 2643 752 
Q 2906 1113 2906 1747 
Q 2906 2381 2643 2742 
Q 2381 3103 1925 3103 
Q 1469 3103 1208 2742 
Q 947 2381 947 1747 
z
" transform="scale(0.015625)"/>
      <path id="DejaVuSans-50" d="M 1259 4147 
L 1259 2394 
L 2053 2394 
Q 2494 2394 2734 2622 
Q 2975 2850 2975 3272 
Q 2975 3691 2734 3919 
Q 2494 4147 2053 4147 
L 1259 4147 
z
M 628 4666 
L 2053 4666 
Q 2838 4666 3239 4311 
Q 3641 3956 3641 3272 
Q 3641 2581 3239 2228 
Q 2838 1875 2053 1875 
L 1259 1875 
L 1259 0 
L 628 0 
L 628 4666 
z
" transform="scale(0.015625)"/>
      <path id="DejaVuSans-6c" d="M 603 4863 
L 1178 4863 
L 1178 0 
L 603 0 
L 603 4863 
z
" transform="scale(0.015625)"/>
      <path id="DejaVuSans-2c" d="M 750 794 
L 1409 794 
L 1409 256 
L 897 -744 
L 494 -744 
L 750 256 
L 750 794 
z
" transform="scale(0.015625)"/>
      <path id="DejaVuSans-79" d="M 2059 -325 
Q 1816 -950 1584 -1140 
Q 1353 -1331 966 -1331 
L 506 -1331 
L 506 -850 
L 844 -850 
Q 1081 -850 1212 -737 
Q 1344 -625 1503 -206 
L 1606 56 
L 191 3500 
L 800 3500 
L 1894 763 
L 2988 3500 
L 3597 3500 
L 2059 -325 
z
" transform="scale(0.015625)"/>
      <path id="DejaVuSans-2e" d="M 684 794 
L 1344 794 
L 1344 0 
L 684 0 
L 684 794 
z
" transform="scale(0.015625)"/>
      <path id="DejaVuSans-3a" d="M 750 794 
L 1409 794 
L 1409 0 
L 750 0 
L 750 794 
z
M 750 3309 
L 1409 3309 
L 1409 2516 
L 750 2516 
L 750 3309 
z
" transform="scale(0.015625)"/>
      <path id="DejaVuSans-2d" d="M 313 2009 
L 1997 2009 
L 1997 1497 
L 313 1497 
L 313 2009 
z
" transform="scale(0.015625)"/>
     </defs>
     <use xlink:href="#DejaVuSans-4e"/>
     <use xlink:href="#DejaVuSans-75" x="74.804688"/>
     <use xlink:href="#DejaVuSans-6d" x="138.183594"/>
     <use xlink:href="#DejaVuSans-62" x="235.595703"/>
     <use xlink:href="#DejaVuSans-65" x="299.072266"/>
     <use xlink:href="#DejaVuSans-72" x="360.595703"/>
     <use xlink:href="#DejaVuSans-20" x="401.708984"/>
     <use xlink:href="#DejaVuSans-6f" x="433.496094"/>
     <use xlink:href="#DejaVuSans-66" x="494.677734"/>
     <use xlink:href="#DejaVuSans-20" x="529.882812"/>
     <use xlink:href="#DejaVuSans-41" x="561.669922"/>
     <use xlink:href="#DejaVuSans-45" x="630.078125"/>
     <use xlink:href="#DejaVuSans-44" x="693.261719"/>
     <use xlink:href="#DejaVuSans-73" x="770.263672"/>
     <use xlink:href="#DejaVuSans-20" x="822.363281"/>
     <use xlink:href="#DejaVuSans-69" x="854.150391"/>
     <use xlink:href="#DejaVuSans-6e" x="881.933594"/>
     <use xlink:href="#DejaVuSans-20" x="945.3125"/>
     <use xlink:href="#DejaVuSans-74" x="977.099609"/>
     <use xlink:href="#DejaVuSans-68" x="1016.308594"/>
     <use xlink:href="#DejaVuSans-65" x="1079.6875"/>
     <use xlink:href="#DejaVuSans-20" x="1141.210938"/>
     <use xlink:href="#DejaVuSans-4f" x="1172.998047"/>
     <use xlink:href="#DejaVuSans-70" x="1251.708984"/>
     <use xlink:href="#DejaVuSans-65" x="1315.185547"/>
     <use xlink:href="#DejaVuSans-6e" x="1376.708984"/>
     <use xlink:href="#DejaVuSans-53" x="1440.087891"/>
     <use xlink:href="#DejaVuSans-74" x="1503.564453"/>
     <use xlink:href="#DejaVuSans-72" x="1542.773438"/>
     <use xlink:href="#DejaVuSans-65" x="1581.636719"/>
     <use xlink:href="#DejaVuSans-65" x="1643.160156"/>
     <use xlink:href="#DejaVuSans-74" x="1704.683594"/>
     <use xlink:href="#DejaVuSans-4d" x="1743.892578"/>
     <use xlink:href="#DejaVuSans-61" x="1830.171875"/>
     <use xlink:href="#DejaVuSans-70" x="1891.451172"/>
     <use xlink:href="#DejaVuSans-20" x="1954.927734"/>
     <use xlink:href="#DejaVuSans-64" x="1986.714844"/>
     <use xlink:href="#DejaVuSans-61" x="2050.191406"/>
     <use xlink:href="#DejaVuSans-74" x="2111.470703"/>
     <use xlink:href="#DejaVuSans-61" x="2150.679688"/>
     <use xlink:href="#DejaVuSans-62" x="2211.958984"/>
     <use xlink:href="#DejaVuSans-61" x="2275.435547"/>
     <use xlink:href="#DejaVuSans-73" x="2336.714844"/>
     <use xlink:href="#DejaVuSans-65" x="2388.814453"/>
     <use xlink:href="#DejaVuSans-20" x="2450.337891"/>
     <use xlink:href="#DejaVuSans-69" x="2482.125"/>
     <use xlink:href="#DejaVuSans-6e" x="2509.908203"/>
     <use xlink:href="#DejaVuSans-20" x="2573.287109"/>
     <use xlink:href="#DejaVuSans-50" x="2605.074219"/>
     <use xlink:href="#DejaVuSans-6f" x="2661.751953"/>
     <use xlink:href="#DejaVuSans-6c" x="2722.933594"/>
     <use xlink:href="#DejaVuSans-61" x="2750.716797"/>
     <use xlink:href="#DejaVuSans-6e" x="2811.996094"/>
     <use xlink:href="#DejaVuSans-64" x="2875.375"/>
     <use xlink:href="#DejaVuSans-20" x="2938.851562"/>
     <use xlink:href="#DejaVuSans-66" x="2970.638672"/>
     <use xlink:href="#DejaVuSans-72" x="3005.84375"/>
     <use xlink:href="#DejaVuSans-6f" x="3044.707031"/>
     <use xlink:href="#DejaVuSans-6d" x="3105.888672"/>
     <use xlink:href="#DejaVuSans-20" x="3203.300781"/>
     <use xlink:href="#DejaVuSans-66" x="3235.087891"/>
     <use xlink:href="#DejaVuSans-69" x="3270.292969"/>
     <use xlink:href="#DejaVuSans-72" x="3298.076172"/>
     <use xlink:href="#DejaVuSans-73" x="3339.189453"/>
     <use xlink:href="#DejaVuSans-74" x="3391.289062"/>
     <use xlink:href="#DejaVuSans-20" x="3430.498047"/>
     <use xlink:href="#DejaVuSans-65" x="3462.285156"/>
     <use xlink:href="#DejaVuSans-64" x="3523.808594"/>
     <use xlink:href="#DejaVuSans-69" x="3587.285156"/>
     <use xlink:href="#DejaVuSans-74" x="3615.068359"/>
     <use xlink:href="#DejaVuSans-69" x="3654.277344"/>
     <use xlink:href="#DejaVuSans-6f" x="3682.060547"/>
     <use xlink:href="#DejaVuSans-6e" x="3743.242188"/>
     <use xlink:href="#DejaVuSans-2c" x="3806.621094"/>
     <use xlink:href="#DejaVuSans-20" x="3838.408203"/>
     <use xlink:href="#DejaVuSans-64" x="3870.195312"/>
     <use xlink:href="#DejaVuSans-61" x="3933.671875"/>
     <use xlink:href="#DejaVuSans-79" x="3994.951172"/>
     <use xlink:href="#DejaVuSans-20" x="4054.130859"/>
     <use xlink:href="#DejaVuSans-62" x="4085.917969"/>
     <use xlink:href="#DejaVuSans-79" x="4149.394531"/>
     <use xlink:href="#DejaVuSans-20" x="4208.574219"/>
     <use xlink:href="#DejaVuSans-64" x="4240.361328"/>
     <use xlink:href="#DejaVuSans-61" x="4303.837891"/>
     <use xlink:href="#DejaVuSans-79" x="4365.117188"/>
     <use xlink:href="#DejaVuSans-2e" x="4410.046875"/>
     <use xlink:href="#DejaVuSans-20" x="4441.833984"/>
     <use xlink:href="#DejaVuSans-41" x="4473.621094"/>
     <use xlink:href="#DejaVuSans-73" x="4542.029297"/>
     <use xlink:href="#DejaVuSans-20" x="4594.128906"/>
     <use xlink:href="#DejaVuSans-61" x="4625.916016"/>
     <use xlink:href="#DejaVuSans-74" x="4687.195312"/>
     <use xlink:href="#DejaVuSans-3a" x="4726.404297"/>
     <use xlink:href="#DejaVuSans-20" x="4760.095703"/>
     <use xlink:href="#DejaVuSans-32" x="4791.882812"/>
     <use xlink:href="#DejaVuSans-30" x="4855.505859"/>
     <use xlink:href="#DejaVuSans-32" x="4919.128906"/>
     <use xlink:href="#DejaVuSans-36" x="4982.751953"/>
     <use xlink:href="#DejaVuSans-2d" x="5046.375"/>
     <use xlink:href="#DejaVuSans-30" x="5082.458984"/>
     <use xlink:href="#DejaVuSans-31" x="5146.082031"/>
     <use xlink:href="#DejaVuSans-2d" x="5209.705078"/>
     <use xlink:href="#DejaVuSans-31" x="5245.789062"/>
     <use xlink:href="#DejaVuSans-31" x="5309.412109"/>
    </g>
   </g>
  </g>
 </g>
 <defs>
  <clipPath id="pd263b6ff80">
   <rect x="144" y="69.12" width="892.8" height="443.52"/>
  </clipPath>
 </defs>
</svg>
