<?xml version="1.0" encoding="utf-8" standalone="no"?>
<!DOCTYPE svg PUBLIC "-//W3C//DTD SVG 1.1//EN"
  "http://www.w3.org/Graphics/SVG/1.1/DTD/svg11.dtd">
<svg xmlns:xlink="http://www.w3.org/1999/xlink" width="1152pt" height="576pt" viewBox="0 0 1152 576" xmlns="http://www.w3.org/2000/svg" version="1.1">
 <metadata>
  <rdf:RDF xmlns:dc="http://purl.org/dc/elements/1.1/" xmlns:cc="http://creativecommons.org/ns#" xmlns:rdf="http://www.w3.org/1999/02/22-rdf-syntax-ns#">
   <cc:Work>
    <dc:type rdf:resource="http://purl.org/dc/dcmitype/StillImage"/>
    <dc:date>1980-01-01T00:00:00+00:00</dc:date>
    <dc:format>image/svg+xml</dc:format>
    <dc:creator>
     <cc:Agent>
      <dc:title>Matplotlib v3.9.1, https://matplotlib.org/</dc:title>
     </cc:Agent>
    </dc:creator>
   </cc:Work>
  </rdf:RDF>
 </metadata>
 <defs>
  <style type="text/css">*{stroke-linejoin: round; stroke-linecap: butt}</style>
 </defs>
 <g id="figure_1">
  <g id="patch_1">
   <path d="M 0 576 
L 1152 576 
L 1152 0 
L 0 0 
z
" style="fill: #ffffff"/>
  </g>
  <g id="axes_1">
   <g id="patch_2">
    <path d="M 144 512.64 
L 1036.8 512.64 
L 1036.8 69.12 
L 144 69.12 
z
" style="fill: #ffffff"/>
   </g>
   <g id="matplotlib.axis_1">
    <g id="xtick_1">
     <g id="line2d_1">
      <defs>
       <path id="m399c4077df" d="M 0 0 
L 0 3.5 
" style="stroke: #000000; stroke-width: 0.8"/>
      </defs>
      <g>
       <use xlink:href="#m399c4077df" x="177.101299" y="512.64" style="stroke: #000000; stroke-width: 0.8"/>
      </g>
     </g>
     <g id="text_1">
      <!-- 2014 -->
      <g transform="translate(164.376299 527.238438) scale(0.1 -0.1)">
       <defs>
        <path id="DejaVuSans-32" d="M 1228 531 
L 3431 531 
L 3431 0 
L 469 0 
L 469 531 
Q 828 903 1448 1529 
Q 2069 2156 2228 2338 
Q 2531 2678 2651 2914 
Q 2772 3150 2772 3378 
Q 2772 3750 2511 3984 
Q 2250 4219 1831 4219 
Q 1534 4219 1204 4116 
Q 875 4013 500 3803 
L 500 4441 
Q 881 4594 1212 4672 
Q 1544 4750 1819 4750 
Q 2544 4750 2975 4387 
Q 3406 4025 3406 3419 
Q 3406 3131 3298 2873 
Q 3191 2616 2906 2266 
Q 2828 2175 2409 1742 
Q 1991 1309 1228 531 
z
" transform="scale(0.015625)"/>
        <path id="DejaVuSans-30" d="M 2034 4250 
Q 1547 4250 1301 3770 
Q 1056 3291 1056 2328 
Q 1056 1369 1301 889 
Q 1547 409 2034 409 
Q 2525 409 2770 889 
Q 3016 1369 3016 2328 
Q 3016 3291 2770 3770 
Q 2525 4250 2034 4250 
z
M 2034 4750 
Q 2819 4750 3233 4129 
Q 3647 3509 3647 2328 
Q 3647 1150 3233 529 
Q 2819 -91 2034 -91 
Q 1250 -91 836 529 
Q 422 1150 422 2328 
Q 422 3509 836 4129 
Q 1250 4750 2034 4750 
z
" transform="scale(0.015625)"/>
        <path id="DejaVuSans-31" d="M 794 531 
L 1825 531 
L 1825 4091 
L 703 3866 
L 703 4441 
L 1819 4666 
L 2450 4666 
L 2450 531 
L 3481 531 
L 3481 0 
L 794 0 
L 794 531 
z
" transform="scale(0.015625)"/>
        <path id="DejaVuSans-34" d="M 2419 4116 
L 825 1625 
L 2419 1625 
L 2419 4116 
z
M 2253 4666 
L 3047 4666 
L 3047 1625 
L 3713 1625 
L 3713 1100 
L 3047 1100 
L 3047 0 
L 2419 0 
L 2419 1100 
L 313 1100 
L 313 1709 
L 2253 4666 
z
" transform="scale(0.015625)"/>
       </defs>
       <use xlink:href="#DejaVuSans-32"/>
       <use xlink:href="#DejaVuSans-30" x="63.623047"/>
       <use xlink:href="#DejaVuSans-31" x="127.246094"/>
       <use xlink:href="#DejaVuSans-34" x="190.869141"/>
      </g>
     </g>
    </g>
    <g id="xtick_2">
     <g id="line2d_2">
      <g>
       <use xlink:href="#m399c4077df" x="313.620779" y="512.64" style="stroke: #000000; stroke-width: 0.8"/>
      </g>
     </g>
     <g id="text_2">
      <!-- 2016 -->
      <g transform="translate(300.895779 527.238438) scale(0.1 -0.1)">
       <defs>
        <path id="DejaVuSans-36" d="M 2113 2584 
Q 1688 2584 1439 2293 
Q 1191 2003 1191 1497 
Q 1191 994 1439 701 
Q 1688 409 2113 409 
Q 2538 409 2786 701 
Q 3034 994 3034 1497 
Q 3034 2003 2786 2293 
Q 2538 2584 2113 2584 
z
M 3366 4563 
L 3366 3988 
Q 3128 4100 2886 4159 
Q 2644 4219 2406 4219 
Q 1781 4219 1451 3797 
Q 1122 3375 1075 2522 
Q 1259 2794 1537 2939 
Q 1816 3084 2150 3084 
Q 2853 3084 3261 2657 
Q 3669 2231 3669 1497 
Q 3669 778 3244 343 
Q 2819 -91 2113 -91 
Q 1303 -91 875 529 
Q 447 1150 447 2328 
Q 447 3434 972 4092 
Q 1497 4750 2381 4750 
Q 2619 4750 2861 4703 
Q 3103 4656 3366 4563 
z
" transform="scale(0.015625)"/>
       </defs>
       <use xlink:href="#DejaVuSans-32"/>
       <use xlink:href="#DejaVuSans-30" x="63.623047"/>
       <use xlink:href="#DejaVuSans-31" x="127.246094"/>
       <use xlink:href="#DejaVuSans-36" x="190.869141"/>
      </g>
     </g>
    </g>
    <g id="xtick_3">
     <g id="line2d_3">
      <g>
       <use xlink:href="#m399c4077df" x="450.327273" y="512.64" style="stroke: #000000; stroke-width: 0.8"/>
      </g>
     </g>
     <g id="text_3">
      <!-- 2018 -->
      <g transform="translate(437.602273 527.238438) scale(0.1 -0.1)">
       <defs>
        <path id="DejaVuSans-38" d="M 2034 2216 
Q 1584 2216 1326 1975 
Q 1069 1734 1069 1313 
Q 1069 891 1326 650 
Q 1584 409 2034 409 
Q 2484 409 2743 651 
Q 3003 894 3003 1313 
Q 3003 1734 2745 1975 
Q 2488 2216 2034 2216 
z
M 1403 2484 
Q 997 2584 770 2862 
Q 544 3141 544 3541 
Q 544 4100 942 4425 
Q 1341 4750 2034 4750 
Q 2731 4750 3128 4425 
Q 3525 4100 3525 3541 
Q 3525 3141 3298 2862 
Q 3072 2584 2669 2484 
Q 3125 2378 3379 2068 
Q 3634 1759 3634 1313 
Q 3634 634 3220 271 
Q 2806 -91 2034 -91 
Q 1263 -91 848 271 
Q 434 634 434 1313 
Q 434 1759 690 2068 
Q 947 2378 1403 2484 
z
M 1172 3481 
Q 1172 3119 1398 2916 
Q 1625 2713 2034 2713 
Q 2441 2713 2670 2916 
Q 2900 3119 2900 3481 
Q 2900 3844 2670 4047 
Q 2441 4250 2034 4250 
Q 1625 4250 1398 4047 
Q 1172 3844 1172 3481 
z
" transform="scale(0.015625)"/>
       </defs>
       <use xlink:href="#DejaVuSans-32"/>
       <use xlink:href="#DejaVuSans-30" x="63.623047"/>
       <use xlink:href="#DejaVuSans-31" x="127.246094"/>
       <use xlink:href="#DejaVuSans-38" x="190.869141"/>
      </g>
     </g>
    </g>
    <g id="xtick_4">
     <g id="line2d_4">
      <g>
       <use xlink:href="#m399c4077df" x="586.846753" y="512.64" style="stroke: #000000; stroke-width: 0.8"/>
      </g>
     </g>
     <g id="text_4">
      <!-- 2020 -->
      <g transform="translate(574.121753 527.238438) scale(0.1 -0.1)">
       <use xlink:href="#DejaVuSans-32"/>
       <use xlink:href="#DejaVuSans-30" x="63.623047"/>
       <use xlink:href="#DejaVuSans-32" x="127.246094"/>
       <use xlink:href="#DejaVuSans-30" x="190.869141"/>
      </g>
     </g>
    </g>
    <g id="xtick_5">
     <g id="line2d_5">
      <g>
       <use xlink:href="#m399c4077df" x="723.553247" y="512.64" style="stroke: #000000; stroke-width: 0.8"/>
      </g>
     </g>
     <g id="text_5">
      <!-- 2022 -->
      <g transform="translate(710.828247 527.238438) scale(0.1 -0.1)">
       <use xlink:href="#DejaVuSans-32"/>
       <use xlink:href="#DejaVuSans-30" x="63.623047"/>
       <use xlink:href="#DejaVuSans-32" x="127.246094"/>
       <use xlink:href="#DejaVuSans-32" x="190.869141"/>
      </g>
     </g>
    </g>
    <g id="xtick_6">
     <g id="line2d_6">
      <g>
       <use xlink:href="#m399c4077df" x="860.072727" y="512.64" style="stroke: #000000; stroke-width: 0.8"/>
      </g>
     </g>
     <g id="text_6">
      <!-- 2024 -->
      <g transform="translate(847.347727 527.238438) scale(0.1 -0.1)">
       <use xlink:href="#DejaVuSans-32"/>
       <use xlink:href="#DejaVuSans-30" x="63.623047"/>
       <use xlink:href="#DejaVuSans-32" x="127.246094"/>
       <use xlink:href="#DejaVuSans-34" x="190.869141"/>
      </g>
     </g>
    </g>
    <g id="xtick_7">
     <g id="line2d_7">
      <g>
       <use xlink:href="#m399c4077df" x="996.779221" y="512.64" style="stroke: #000000; stroke-width: 0.8"/>
      </g>
     </g>
     <g id="text_7">
      <!-- 2026 -->
      <g transform="translate(984.054221 527.238438) scale(0.1 -0.1)">
       <use xlink:href="#DejaVuSans-32"/>
       <use xlink:href="#DejaVuSans-30" x="63.623047"/>
       <use xlink:href="#DejaVuSans-32" x="127.246094"/>
       <use xlink:href="#DejaVuSans-36" x="190.869141"/>
      </g>
     </g>
    </g>
   </g>
   <g id="matplotlib.axis_2">
    <g id="ytick_1">
     <g id="line2d_8">
      <defs>
       <path id="mfafd164b59" d="M 0 0 
L -3.5 0 
" style="stroke: #000000; stroke-width: 0.8"/>
      </defs>
      <g>
       <use xlink:href="#mfafd164b59" x="144" y="492.510234" style="stroke: #000000; stroke-width: 0.8"/>
      </g>
     </g>
     <g id="text_8">
      <!-- 0 -->
      <g transform="translate(130.6375 496.309453) scale(0.1 -0.1)">
       <use xlink:href="#DejaVuSans-30"/>
      </g>
     </g>
    </g>
    <g id="ytick_2">
     <g id="line2d_9">
      <g>
       <use xlink:href="#mfafd164b59" x="144" y="432.042328" style="stroke: #000000; stroke-width: 0.8"/>
      </g>
     </g>
     <g id="text_9">
      <!-- 2000 -->
      <g transform="translate(111.55 435.841546) scale(0.1 -0.1)">
       <use xlink:href="#DejaVuSans-32"/>
       <use xlink:href="#DejaVuSans-30" x="63.623047"/>
       <use xlink:href="#DejaVuSans-30" x="127.246094"/>
       <use xlink:href="#DejaVuSans-30" x="190.869141"/>
      </g>
     </g>
    </g>
    <g id="ytick_3">
     <g id="line2d_10">
      <g>
       <use xlink:href="#mfafd164b59" x="144" y="371.574421" style="stroke: #000000; stroke-width: 0.8"/>
      </g>
     </g>
     <g id="text_10">
      <!-- 4000 -->
      <g transform="translate(111.55 375.37364) scale(0.1 -0.1)">
       <use xlink:href="#DejaVuSans-34"/>
       <use xlink:href="#DejaVuSans-30" x="63.623047"/>
       <use xlink:href="#DejaVuSans-30" x="127.246094"/>
       <use xlink:href="#DejaVuSans-30" x="190.869141"/>
      </g>
     </g>
    </g>
    <g id="ytick_4">
     <g id="line2d_11">
      <g>
       <use xlink:href="#mfafd164b59" x="144" y="311.106515" style="stroke: #000000; stroke-width: 0.8"/>
      </g>
     </g>
     <g id="text_11">
      <!-- 6000 -->
      <g transform="translate(111.55 314.905733) scale(0.1 -0.1)">
       <use xlink:href="#DejaVuSans-36"/>
       <use xlink:href="#DejaVuSans-30" x="63.623047"/>
       <use xlink:href="#DejaVuSans-30" x="127.246094"/>
       <use xlink:href="#DejaVuSans-30" x="190.869141"/>
      </g>
     </g>
    </g>
    <g id="ytick_5">
     <g id="line2d_12">
      <g>
       <use xlink:href="#mfafd164b59" x="144" y="250.638608" style="stroke: #000000; stroke-width: 0.8"/>
      </g>
     </g>
     <g id="text_12">
      <!-- 8000 -->
      <g transform="translate(111.55 254.437827) scale(0.1 -0.1)">
       <use xlink:href="#DejaVuSans-38"/>
       <use xlink:href="#DejaVuSans-30" x="63.623047"/>
       <use xlink:href="#DejaVuSans-30" x="127.246094"/>
       <use xlink:href="#DejaVuSans-30" x="190.869141"/>
      </g>
     </g>
    </g>
    <g id="ytick_6">
     <g id="line2d_13">
      <g>
       <use xlink:href="#mfafd164b59" x="144" y="190.170702" style="stroke: #000000; stroke-width: 0.8"/>
      </g>
     </g>
     <g id="text_13">
      <!-- 10000 -->
      <g transform="translate(105.1875 193.969921) scale(0.1 -0.1)">
       <use xlink:href="#DejaVuSans-31"/>
       <use xlink:href="#DejaVuSans-30" x="63.623047"/>
       <use xlink:href="#DejaVuSans-30" x="127.246094"/>
       <use xlink:href="#DejaVuSans-30" x="190.869141"/>
       <use xlink:href="#DejaVuSans-30" x="254.492188"/>
      </g>
     </g>
    </g>
    <g id="ytick_7">
     <g id="line2d_14">
      <g>
       <use xlink:href="#mfafd164b59" x="144" y="129.702795" style="stroke: #000000; stroke-width: 0.8"/>
      </g>
     </g>
     <g id="text_14">
      <!-- 12000 -->
      <g transform="translate(105.1875 133.502014) scale(0.1 -0.1)">
       <use xlink:href="#DejaVuSans-31"/>
       <use xlink:href="#DejaVuSans-32" x="63.623047"/>
       <use xlink:href="#DejaVuSans-30" x="127.246094"/>
       <use xlink:href="#DejaVuSans-30" x="190.869141"/>
       <use xlink:href="#DejaVuSans-30" x="254.492188"/>
      </g>
     </g>
    </g>
    <g id="ytick_8">
     <g id="line2d_15">
      <g>
       <use xlink:href="#mfafd164b59" x="144" y="69.234889" style="stroke: #000000; stroke-width: 0.8"/>
      </g>
     </g>
     <g id="text_15">
      <!-- 14000 -->
      <g transform="translate(105.1875 73.034108) scale(0.1 -0.1)">
       <use xlink:href="#DejaVuSans-31"/>
       <use xlink:href="#DejaVuSans-34" x="63.623047"/>
       <use xlink:href="#DejaVuSans-30" x="127.246094"/>
       <use xlink:href="#DejaVuSans-30" x="190.869141"/>
       <use xlink:href="#DejaVuSans-30" x="254.492188"/>
      </g>
     </g>
    </g>
   </g>
   <g id="line2d_16">
    <path d="M 184.581818 492.48 
L 186.264935 492.419532 
L 287.064935 492.268362 
L 440.041558 492.117193 
L 490.909091 491.935789 
L 504.187013 491.845087 
L 536.54026 491.663683 
L 539.719481 491.603215 
L 563.096104 491.48228 
L 593.018182 491.300876 
L 593.392208 491.059004 
L 597.319481 490.907834 
L 631.916883 490.756665 
L 656.78961 490.605495 
L 671.18961 490.393857 
L 687.085714 489.940348 
L 688.394805 489.849646 
L 699.241558 489.607774 
L 705.787013 489.214733 
L 715.511688 489.003095 
L 720 487.884439 
L 720.187013 487.763503 
L 721.87013 487.672801 
L 722.618182 487.249526 
L 722.805195 486.523911 
L 723.179221 486.342507 
L 723.366234 486.312274 
L 723.553247 485.344787 
L 724.675325 484.921512 
L 725.049351 484.407534 
L 725.423377 484.256365 
L 725.61039 483.893557 
L 725.797403 483.077241 
L 726.171429 482.412094 
L 726.358442 481.535309 
L 726.545455 479.872442 
L 727.106494 478.663083 
L 727.480519 473.220972 
L 727.667532 472.646527 
L 728.041558 469.169622 
L 728.228571 468.595177 
L 728.415584 467.083479 
L 728.602597 466.992777 
L 729.163636 465.02757 
L 729.350649 460.764583 
L 729.537662 460.401776 
L 729.911688 459.192418 
L 730.098701 459.101716 
L 730.285714 458.466803 
L 730.472727 455.473641 
L 730.65974 454.748026 
L 730.846753 454.717792 
L 731.033766 452.48048 
L 731.220779 452.208374 
L 731.594805 452.057205 
L 732.342857 449.88036 
L 732.716883 449.275681 
L 733.277922 447.612813 
L 733.651948 443.017253 
L 734.025974 440.870642 
L 734.587013 440.77994 
L 734.961039 440.568302 
L 735.709091 439.389178 
L 736.083117 439.32871 
L 736.457143 436.819292 
L 736.644156 436.789058 
L 737.018182 436.365783 
L 737.205195 435.277361 
L 737.579221 434.914553 
L 737.766234 434.763383 
L 737.953247 434.249406 
L 738.514286 434.068002 
L 738.888312 433.765663 
L 739.262338 432.647007 
L 739.449351 432.556305 
L 739.823377 432.102795 
L 740.571429 431.770222 
L 740.758442 430.712034 
L 741.132468 430.500396 
L 741.319481 428.474721 
L 741.693506 428.414253 
L 742.067532 427.809574 
L 742.254545 427.235129 
L 742.815584 427.114193 
L 743.002597 426.932789 
L 743.376623 426.358344 
L 743.563636 426.32811 
L 743.937662 425.874601 
L 744.311688 425.753665 
L 744.498701 424.393137 
L 745.433766 424.211734 
L 745.620779 424.1815 
L 745.994805 423.939628 
L 746.742857 423.848926 
L 746.92987 423.697756 
L 749.548052 423.002376 
L 749.922078 422.760504 
L 750.857143 422.639568 
L 751.605195 422.276761 
L 753.475325 421.913953 
L 754.223377 419.585939 
L 755.158442 419.465003 
L 755.345455 419.404535 
L 756.841558 419.253365 
L 757.58961 418.98126 
L 758.711688 418.83009 
L 760.394805 418.225411 
L 760.768831 418.074241 
L 760.955844 418.013773 
L 761.142857 417.802136 
L 761.890909 417.560264 
L 762.825974 417.499796 
L 763.012987 417.288158 
L 763.387013 417.257924 
L 763.574026 416.774181 
L 763.761039 416.713713 
L 763.948052 416.0788 
L 766.753247 415.534589 
L 766.94026 415.171782 
L 768.249351 414.869442 
L 768.81039 414.688038 
L 769.558442 414.536869 
L 770.306494 414.355465 
L 771.241558 414.174061 
L 772.737662 413.599616 
L 773.111688 413.448446 
L 773.298701 412.843767 
L 774.233766 412.17862 
L 774.420779 411.906515 
L 775.355844 411.211134 
L 775.72987 410.576221 
L 775.916883 410.545987 
L 776.290909 409.850606 
L 777.038961 409.064523 
L 777.6 408.973821 
L 777.974026 408.671482 
L 778.161039 408.58078 
L 778.348052 408.27844 
L 779.283117 408.066803 
L 779.47013 407.794697 
L 781.34026 407.462124 
L 781.527273 407.310954 
L 782.462338 407.190018 
L 783.771429 406.676041 
L 784.332468 406.585339 
L 784.706494 406.071362 
L 785.080519 405.859724 
L 786.015584 405.255045 
L 786.202597 404.559664 
L 786.950649 404.348026 
L 787.698701 404.045687 
L 789.381818 403.168902 
L 789.568831 402.866563 
L 790.12987 402.685159 
L 791.064935 402.261884 
L 791.438961 399.147786 
L 791.625974 398.150066 
L 791.812987 396.336029 
L 792 396.124391 
L 792.561039 394.219652 
L 793.122078 393.2824 
L 793.309091 393.221932 
L 793.683117 392.859124 
L 793.87013 391.952106 
L 794.057143 391.619532 
L 794.431169 391.52883 
L 794.992208 390.803215 
L 795.179221 390.259004 
L 795.74026 389.624091 
L 795.927273 388.807774 
L 796.862338 387.326311 
L 797.61039 387.023971 
L 797.797403 386.903035 
L 797.984416 386.116953 
L 798.545455 385.844847 
L 799.293506 385.058764 
L 799.480519 384.484319 
L 799.667532 384.454085 
L 800.228571 383.87964 
L 800.602597 383.849406 
L 800.78961 383.547067 
L 801.163636 383.365663 
L 801.724675 382.851686 
L 802.098701 382.640048 
L 802.285714 382.126071 
L 803.594805 381.188818 
L 803.781818 381.098116 
L 804.155844 379.97946 
L 804.716883 379.767822 
L 805.277922 379.616653 
L 805.651948 379.042208 
L 805.838961 378.951506 
L 806.961039 377.651446 
L 807.709091 377.500276 
L 807.896104 377.470042 
L 808.457143 376.623491 
L 809.205195 376.472322 
L 810.14026 375.807175 
L 810.327273 375.776941 
L 810.888312 375.353665 
L 811.262338 375.232729 
L 811.636364 375.202496 
L 811.823377 375.021092 
L 812.01039 374.507115 
L 812.758442 374.295477 
L 812.945455 373.993137 
L 813.132468 373.962903 
L 813.319481 373.418692 
L 814.067532 373.176821 
L 814.441558 373.086119 
L 814.815584 372.814013 
L 816.872727 372.02793 
L 817.05974 371.241848 
L 817.433766 370.969742 
L 817.994805 370.788338 
L 818.555844 370.485999 
L 819.303896 370.365063 
L 819.490909 369.518512 
L 821.174026 368.762663 
L 821.548052 368.702196 
L 821.735065 368.460324 
L 822.296104 368.27892 
L 822.483117 368.218452 
L 822.67013 367.885879 
L 823.044156 367.855645 
L 823.418182 367.644007 
L 823.979221 367.371902 
L 824.166234 367.009094 
L 824.914286 366.857924 
L 825.288312 366.646287 
L 825.475325 366.616053 
L 825.662338 366.434649 
L 826.223377 366.283479 
L 826.41039 366.011374 
L 826.597403 365.98114 
L 826.971429 365.739268 
L 827.345455 365.588098 
L 827.532468 365.436929 
L 828.654545 365.164823 
L 828.841558 364.83225 
L 829.402597 364.68108 
L 829.963636 364.590378 
L 830.337662 364.318272 
L 830.898701 364.167103 
L 831.272727 364.046167 
L 831.45974 363.834529 
L 831.833766 363.774061 
L 832.020779 363.260084 
L 832.207792 363.169382 
L 832.581818 362.776341 
L 832.768831 362.141428 
L 833.142857 361.92979 
L 833.32987 361.839088 
L 833.703896 361.536749 
L 834.638961 360.841368 
L 835.012987 360.720432 
L 835.2 360.387858 
L 835.574026 360.206455 
L 836.135065 359.873881 
L 836.696104 359.722711 
L 837.257143 359.1785 
L 837.631169 358.906395 
L 838.005195 358.604055 
L 838.753247 358.090078 
L 839.314286 357.938908 
L 839.875325 357.817972 
L 840.062338 357.757504 
L 841.184416 356.820252 
L 841.558442 356.669082 
L 843.241558 356.064403 
L 843.615584 355.822531 
L 844.176623 355.671362 
L 844.737662 355.369022 
L 845.298701 355.217852 
L 845.85974 354.975981 
L 846.794805 354.824811 
L 847.355844 354.462004 
L 847.542857 354.43177 
L 847.72987 354.12943 
L 850.161039 353.252645 
L 850.535065 353.071242 
L 850.909091 353.010774 
L 851.283117 352.617732 
L 851.47013 351.317672 
L 851.844156 351.015333 
L 852.218182 350.864163 
L 852.779221 350.138548 
L 853.153247 349.866443 
L 853.527273 349.050126 
L 853.901299 348.838488 
L 854.275325 348.657085 
L 854.649351 348.566383 
L 855.023377 348.324511 
L 855.21039 348.203575 
L 856.145455 347.991938 
L 856.519481 347.62913 
L 857.080519 347.205855 
L 857.454545 347.084919 
L 857.828571 346.722112 
L 858.950649 345.966263 
L 859.324675 345.936029 
L 859.511688 345.663923 
L 860.25974 345.482519 
L 860.446753 344.87784 
L 860.820779 344.575501 
L 861.568831 344.363863 
L 861.942857 344.212693 
L 862.12987 343.789418 
L 862.503896 343.668482 
L 862.690909 343.275441 
L 863.251948 342.8824 
L 863.625974 342.700996 
L 864 342.610294 
L 864.374026 342.398656 
L 864.561039 342.368422 
L 864.935065 342.156785 
L 865.683117 341.763743 
L 866.057143 341.038128 
L 867.553247 340.312513 
L 867.74026 339.768302 
L 868.301299 339.556665 
L 868.862338 338.921752 
L 869.049351 338.861284 
L 869.423377 338.589178 
L 869.61039 338.558944 
L 869.984416 338.105435 
L 870.358442 337.893797 
L 871.106494 337.591458 
L 871.293506 337.289118 
L 871.667532 337.22865 
L 871.854545 337.017013 
L 872.041558 336.986779 
L 872.228571 336.3821 
L 872.78961 336.200696 
L 872.976623 336.109994 
L 873.163636 335.807654 
L 873.537662 335.596017 
L 874.098701 334.93087 
L 875.594805 334.054085 
L 876.155844 333.902915 
L 876.342857 333.812214 
L 876.716883 333.358704 
L 876.903896 333.298236 
L 877.838961 332.542388 
L 878.4 332.270282 
L 878.774026 332.088878 
L 878.961039 332.058644 
L 879.148052 331.423731 
L 879.709091 331.060924 
L 879.896104 330.486479 
L 880.27013 330.214373 
L 880.457143 329.972501 
L 880.644156 329.942268 
L 881.392208 329.277121 
L 882.14026 328.974781 
L 882.514286 328.702675 
L 883.636364 328.218932 
L 884.384416 327.251446 
L 885.132468 326.82817 
L 885.319481 326.616533 
L 885.506494 326.586299 
L 885.693506 326.253725 
L 888.124675 324.983899 
L 888.498701 324.742028 
L 888.872727 324.68156 
L 889.246753 324.500156 
L 889.620779 324.348986 
L 890.555844 323.683839 
L 891.864935 322.92799 
L 892.425974 322.686119 
L 892.987013 322.444247 
L 893.548052 322.202376 
L 893.922078 322.08144 
L 894.109091 320.993017 
L 894.67013 320.751146 
L 894.857143 320.47904 
L 895.044156 320.448806 
L 895.605195 319.602256 
L 895.792208 319.299916 
L 895.979221 319.209214 
L 896.166234 318.846407 
L 896.54026 318.725471 
L 897.288312 317.72775 
L 897.662338 316.367223 
L 897.849351 315.943947 
L 898.223377 313.767103 
L 898.41039 312.860084 
L 899.345455 311.83213 
L 900.093506 309.141308 
L 900.280519 308.990138 
L 900.467532 308.597097 
L 900.654545 307.176101 
L 900.841558 306.752825 
L 901.028571 306.722591 
L 901.215584 306.057445 
L 901.776623 305.694637 
L 902.150649 304.727151 
L 904.207792 303.699196 
L 904.768831 303.064283 
L 905.142857 302.42937 
L 905.516883 302.308434 
L 905.890909 302.157265 
L 906.264935 301.945627 
L 906.638961 301.764223 
L 907.574026 301.522352 
L 907.948052 301.340948 
L 908.509091 301.28048 
L 910.192208 300.040888 
L 910.566234 299.82925 
L 910.753247 299.557145 
L 911.501299 299.285039 
L 911.688312 299.194337 
L 911.875325 298.52919 
L 912.436364 298.105915 
L 912.81039 298.045447 
L 913.558442 297.53147 
L 914.493506 297.198896 
L 914.867532 296.836089 
L 915.241558 296.775621 
L 915.802597 295.747666 
L 916.176623 295.596497 
L 916.737662 294.598776 
L 916.924675 294.024331 
L 917.111688 293.963863 
L 917.485714 293.691758 
L 917.85974 293.419652 
L 918.046753 293.147546 
L 918.420779 291.968422 
L 918.607792 291.726551 
L 918.794805 291.091638 
L 918.981818 291.03117 
L 919.168831 290.517193 
L 919.542857 290.335789 
L 920.664935 289.398536 
L 920.851948 288.975261 
L 921.225974 288.884559 
L 921.974026 288.521752 
L 922.722078 288.27988 
L 922.909091 287.644967 
L 926.462338 285.286719 
L 926.649351 285.014613 
L 926.836364 284.409934 
L 927.958442 283.926191 
L 928.332468 283.472681 
L 928.706494 283.38198 
L 928.893506 283.019172 
L 929.267532 282.868002 
L 929.454545 282.565663 
L 931.324675 281.537708 
L 931.885714 281.053965 
L 932.446753 280.509754 
L 933.381818 278.665483 
L 934.12987 275.097876 
L 934.503896 274.372262 
L 934.690909 274.009454 
L 934.877922 272.407055 
L 935.064935 269.323191 
L 936.374026 260.887918 
L 936.748052 256.776101 
L 937.122078 256.201656 
L 937.496104 250.88048 
L 937.683117 249.489718 
L 938.057143 243.624331 
L 938.431169 242.505675 
L 938.618182 239.48228 
L 938.805195 238.938068 
L 939.179221 235.642567 
L 939.553247 226.753785 
L 939.74026 226.270042 
L 939.927273 225.423491 
L 940.114286 222.702436 
L 940.301299 222.490798 
L 940.675325 217.925471 
L 941.049351 217.713833 
L 941.423377 216.867283 
L 941.61039 216.655645 
L 941.797403 216.23237 
L 941.984416 215.385819 
L 942.358442 215.204415 
L 942.919481 213.571782 
L 943.293506 211.274001 
L 943.480519 210.850726 
L 943.667532 210.790258 
L 943.854545 210.57862 
L 944.228571 209.973941 
L 944.415584 208.976221 
L 944.602597 208.764583 
L 944.78961 208.371542 
L 944.976623 208.311074 
L 945.350649 207.736629 
L 945.724675 207.585459 
L 945.911688 207.13195 
L 946.098701 206.98078 
L 946.472727 206.466803 
L 946.846753 206.164463 
L 947.407792 205.68072 
L 947.594805 205.650486 
L 948.155844 205.076041 
L 948.716883 204.682999 
L 948.903896 204.622531 
L 949.651948 204.471362 
L 949.838961 204.289958 
L 950.212987 204.22949 
L 950.774026 203.836449 
L 952.27013 203.141068 
L 952.457143 202.717792 
L 953.392208 202.475921 
L 953.953247 201.93171 
L 954.327273 201.720072 
L 955.075325 200.903755 
L 955.823377 200.63165 
L 956.384416 200.268842 
L 956.758442 199.996737 
L 957.132468 199.724631 
L 957.506494 199.482759 
L 957.693506 198.787379 
L 958.441558 198.303635 
L 958.628571 198.03153 
L 959.002597 197.819892 
L 959.563636 197.426851 
L 960.685714 196.791938 
L 960.872727 196.640768 
L 961.433766 196.5803 
L 961.807792 195.703515 
L 961.994805 195.612813 
L 962.368831 195.12907 
L 963.116883 194.433689 
L 963.303896 194.342987 
L 963.864935 193.587139 
L 964.051948 192.98246 
L 964.238961 192.83129 
L 964.612987 192.770822 
L 964.987013 192.408014 
L 965.735065 192.045207 
L 966.109091 191.924271 
L 966.857143 191.138188 
L 967.044156 191.107954 
L 967.231169 187.510114 
L 967.605195 186.996137 
L 967.979221 186.663563 
L 968.166234 186.300756 
L 968.353247 186.270522 
L 968.727273 185.877481 
L 968.914286 185.303035 
L 970.036364 184.093677 
L 970.223377 183.761104 
L 970.597403 181.947067 
L 971.158442 180.193497 
L 971.345455 179.044607 
L 971.719481 178.107355 
L 971.906494 177.38174 
L 972.654545 176.535189 
L 973.028571 176.051446 
L 973.402597 175.62817 
L 973.963636 175.446767 
L 974.524675 174.902555 
L 975.085714 173.965303 
L 975.272727 173.904835 
L 975.646753 173.511794 
L 975.833766 173.33039 
L 976.207792 172.604775 
L 976.581818 172.1815 
L 976.768831 171.183779 
L 978.077922 170.246527 
L 979.387013 168.523191 
L 979.761039 167.555705 
L 979.948052 167.374301 
L 980.509091 166.074241 
L 980.696104 165.983539 
L 980.883117 165.409094 
L 981.07013 165.197457 
L 981.631169 163.504355 
L 982.192208 162.62757 
L 982.753247 162.294997 
L 982.94026 161.78102 
L 983.875325 160.783299 
L 984.062338 160.32979 
L 984.81039 157.638968 
L 984.997403 157.185459 
L 985.184416 155.613293 
L 985.371429 155.371422 
L 985.558442 154.041128 
L 985.932468 153.466683 
L 986.119481 152.922472 
L 986.493506 150.533989 
L 986.867532 149.657205 
L 987.054545 149.475801 
L 987.241558 141.645207 
L 987.428571 138.652046 
L 987.615584 120.783779 
L 988.176623 119.513953 
L 988.363636 119.332549 
L 988.737662 117.88132 
L 989.111688 116.913833 
L 990.233766 109.294877 
L 990.794805 107.752945 
L 990.981818 105.87844 
L 991.355844 105.183059 
L 991.72987 103.73183 
L 991.916883 101.857325 
L 992.103896 101.434049 
L 992.477922 100.164223 
L 993.225974 99.045567 
L 993.787013 96.77802 
L 994.722078 93.33135 
L 995.096104 90.8824 
L 995.283117 90.700996 
L 995.47013 90.338188 
L 995.657143 90.307954 
L 996.031169 89.884679 
L 996.218182 89.28 
L 996.218182 89.28 
" clip-path="url(#p4837d216c5)" style="fill: none; stroke: #1f77b4; stroke-width: 1.5; stroke-linecap: square"/>
   </g>
   <g id="patch_3">
    <path d="M 144 512.64 
L 144 69.12 
" style="fill: none; stroke: #000000; stroke-width: 0.8; stroke-linejoin: miter; stroke-linecap: square"/>
   </g>
   <g id="patch_4">
    <path d="M 1036.8 512.64 
L 1036.8 69.12 
" style="fill: none; stroke: #000000; stroke-width: 0.8; stroke-linejoin: miter; stroke-linecap: square"/>
   </g>
   <g id="patch_5">
    <path d="M 144 512.64 
L 1036.8 512.64 
" style="fill: none; stroke: #000000; stroke-width: 0.8; stroke-linejoin: miter; stroke-linecap: square"/>
   </g>
   <g id="patch_6">
    <path d="M 144 69.12 
L 1036.8 69.12 
" style="fill: none; stroke: #000000; stroke-width: 0.8; stroke-linejoin: miter; stroke-linecap: square"/>
   </g>
   <g id="text_16">
    <!-- Number of AEDs in the OpenStreetMap database in Poland from first edition, day by day. As at: 2025-12-29 -->
    <g transform="translate(144 63.12) scale(0.14 -0.14)">
     <defs>
      <path id="DejaVuSans-4e" d="M 628 4666 
L 1478 4666 
L 3547 763 
L 3547 4666 
L 4159 4666 
L 4159 0 
L 3309 0 
L 1241 3903 
L 1241 0 
L 628 0 
L 628 4666 
z
" transform="scale(0.015625)"/>
      <path id="DejaVuSans-75" d="M 544 1381 
L 544 3500 
L 1119 3500 
L 1119 1403 
Q 1119 906 1312 657 
Q 1506 409 1894 409 
Q 2359 409 2629 706 
Q 2900 1003 2900 1516 
L 2900 3500 
L 3475 3500 
L 3475 0 
L 2900 0 
L 2900 538 
Q 2691 219 2414 64 
Q 2138 -91 1772 -91 
Q 1169 -91 856 284 
Q 544 659 544 1381 
z
M 1991 3584 
L 1991 3584 
z
" transform="scale(0.015625)"/>
      <path id="DejaVuSans-6d" d="M 3328 2828 
Q 3544 3216 3844 3400 
Q 4144 3584 4550 3584 
Q 5097 3584 5394 3201 
Q 5691 2819 5691 2113 
L 5691 0 
L 5113 0 
L 5113 2094 
Q 5113 2597 4934 2840 
Q 4756 3084 4391 3084 
Q 3944 3084 3684 2787 
Q 3425 2491 3425 1978 
L 3425 0 
L 2847 0 
L 2847 2094 
Q 2847 2600 2669 2842 
Q 2491 3084 2119 3084 
Q 1678 3084 1418 2786 
Q 1159 2488 1159 1978 
L 1159 0 
L 581 0 
L 581 3500 
L 1159 3500 
L 1159 2956 
Q 1356 3278 1631 3431 
Q 1906 3584 2284 3584 
Q 2666 3584 2933 3390 
Q 3200 3197 3328 2828 
z
" transform="scale(0.015625)"/>
      <path id="DejaVuSans-62" d="M 3116 1747 
Q 3116 2381 2855 2742 
Q 2594 3103 2138 3103 
Q 1681 3103 1420 2742 
Q 1159 2381 1159 1747 
Q 1159 1113 1420 752 
Q 1681 391 2138 391 
Q 2594 391 2855 752 
Q 3116 1113 3116 1747 
z
M 1159 2969 
Q 1341 3281 1617 3432 
Q 1894 3584 2278 3584 
Q 2916 3584 3314 3078 
Q 3713 2572 3713 1747 
Q 3713 922 3314 415 
Q 2916 -91 2278 -91 
Q 1894 -91 1617 61 
Q 1341 213 1159 525 
L 1159 0 
L 581 0 
L 581 4863 
L 1159 4863 
L 1159 2969 
z
" transform="scale(0.015625)"/>
      <path id="DejaVuSans-65" d="M 3597 1894 
L 3597 1613 
L 953 1613 
Q 991 1019 1311 708 
Q 1631 397 2203 397 
Q 2534 397 2845 478 
Q 3156 559 3463 722 
L 3463 178 
Q 3153 47 2828 -22 
Q 2503 -91 2169 -91 
Q 1331 -91 842 396 
Q 353 884 353 1716 
Q 353 2575 817 3079 
Q 1281 3584 2069 3584 
Q 2775 3584 3186 3129 
Q 3597 2675 3597 1894 
z
M 3022 2063 
Q 3016 2534 2758 2815 
Q 2500 3097 2075 3097 
Q 1594 3097 1305 2825 
Q 1016 2553 972 2059 
L 3022 2063 
z
" transform="scale(0.015625)"/>
      <path id="DejaVuSans-72" d="M 2631 2963 
Q 2534 3019 2420 3045 
Q 2306 3072 2169 3072 
Q 1681 3072 1420 2755 
Q 1159 2438 1159 1844 
L 1159 0 
L 581 0 
L 581 3500 
L 1159 3500 
L 1159 2956 
Q 1341 3275 1631 3429 
Q 1922 3584 2338 3584 
Q 2397 3584 2469 3576 
Q 2541 3569 2628 3553 
L 2631 2963 
z
" transform="scale(0.015625)"/>
      <path id="DejaVuSans-20" transform="scale(0.015625)"/>
      <path id="DejaVuSans-6f" d="M 1959 3097 
Q 1497 3097 1228 2736 
Q 959 2375 959 1747 
Q 959 1119 1226 758 
Q 1494 397 1959 397 
Q 2419 397 2687 759 
Q 2956 1122 2956 1747 
Q 2956 2369 2687 2733 
Q 2419 3097 1959 3097 
z
M 1959 3584 
Q 2709 3584 3137 3096 
Q 3566 2609 3566 1747 
Q 3566 888 3137 398 
Q 2709 -91 1959 -91 
Q 1206 -91 779 398 
Q 353 888 353 1747 
Q 353 2609 779 3096 
Q 1206 3584 1959 3584 
z
" transform="scale(0.015625)"/>
      <path id="DejaVuSans-66" d="M 2375 4863 
L 2375 4384 
L 1825 4384 
Q 1516 4384 1395 4259 
Q 1275 4134 1275 3809 
L 1275 3500 
L 2222 3500 
L 2222 3053 
L 1275 3053 
L 1275 0 
L 697 0 
L 697 3053 
L 147 3053 
L 147 3500 
L 697 3500 
L 697 3744 
Q 697 4328 969 4595 
Q 1241 4863 1831 4863 
L 2375 4863 
z
" transform="scale(0.015625)"/>
      <path id="DejaVuSans-41" d="M 2188 4044 
L 1331 1722 
L 3047 1722 
L 2188 4044 
z
M 1831 4666 
L 2547 4666 
L 4325 0 
L 3669 0 
L 3244 1197 
L 1141 1197 
L 716 0 
L 50 0 
L 1831 4666 
z
" transform="scale(0.015625)"/>
      <path id="DejaVuSans-45" d="M 628 4666 
L 3578 4666 
L 3578 4134 
L 1259 4134 
L 1259 2753 
L 3481 2753 
L 3481 2222 
L 1259 2222 
L 1259 531 
L 3634 531 
L 3634 0 
L 628 0 
L 628 4666 
z
" transform="scale(0.015625)"/>
      <path id="DejaVuSans-44" d="M 1259 4147 
L 1259 519 
L 2022 519 
Q 2988 519 3436 956 
Q 3884 1394 3884 2338 
Q 3884 3275 3436 3711 
Q 2988 4147 2022 4147 
L 1259 4147 
z
M 628 4666 
L 1925 4666 
Q 3281 4666 3915 4102 
Q 4550 3538 4550 2338 
Q 4550 1131 3912 565 
Q 3275 0 1925 0 
L 628 0 
L 628 4666 
z
" transform="scale(0.015625)"/>
      <path id="DejaVuSans-73" d="M 2834 3397 
L 2834 2853 
Q 2591 2978 2328 3040 
Q 2066 3103 1784 3103 
Q 1356 3103 1142 2972 
Q 928 2841 928 2578 
Q 928 2378 1081 2264 
Q 1234 2150 1697 2047 
L 1894 2003 
Q 2506 1872 2764 1633 
Q 3022 1394 3022 966 
Q 3022 478 2636 193 
Q 2250 -91 1575 -91 
Q 1294 -91 989 -36 
Q 684 19 347 128 
L 347 722 
Q 666 556 975 473 
Q 1284 391 1588 391 
Q 1994 391 2212 530 
Q 2431 669 2431 922 
Q 2431 1156 2273 1281 
Q 2116 1406 1581 1522 
L 1381 1569 
Q 847 1681 609 1914 
Q 372 2147 372 2553 
Q 372 3047 722 3315 
Q 1072 3584 1716 3584 
Q 2034 3584 2315 3537 
Q 2597 3491 2834 3397 
z
" transform="scale(0.015625)"/>
      <path id="DejaVuSans-69" d="M 603 3500 
L 1178 3500 
L 1178 0 
L 603 0 
L 603 3500 
z
M 603 4863 
L 1178 4863 
L 1178 4134 
L 603 4134 
L 603 4863 
z
" transform="scale(0.015625)"/>
      <path id="DejaVuSans-6e" d="M 3513 2113 
L 3513 0 
L 2938 0 
L 2938 2094 
Q 2938 2591 2744 2837 
Q 2550 3084 2163 3084 
Q 1697 3084 1428 2787 
Q 1159 2491 1159 1978 
L 1159 0 
L 581 0 
L 581 3500 
L 1159 3500 
L 1159 2956 
Q 1366 3272 1645 3428 
Q 1925 3584 2291 3584 
Q 2894 3584 3203 3211 
Q 3513 2838 3513 2113 
z
" transform="scale(0.015625)"/>
      <path id="DejaVuSans-74" d="M 1172 4494 
L 1172 3500 
L 2356 3500 
L 2356 3053 
L 1172 3053 
L 1172 1153 
Q 1172 725 1289 603 
Q 1406 481 1766 481 
L 2356 481 
L 2356 0 
L 1766 0 
Q 1100 0 847 248 
Q 594 497 594 1153 
L 594 3053 
L 172 3053 
L 172 3500 
L 594 3500 
L 594 4494 
L 1172 4494 
z
" transform="scale(0.015625)"/>
      <path id="DejaVuSans-68" d="M 3513 2113 
L 3513 0 
L 2938 0 
L 2938 2094 
Q 2938 2591 2744 2837 
Q 2550 3084 2163 3084 
Q 1697 3084 1428 2787 
Q 1159 2491 1159 1978 
L 1159 0 
L 581 0 
L 581 4863 
L 1159 4863 
L 1159 2956 
Q 1366 3272 1645 3428 
Q 1925 3584 2291 3584 
Q 2894 3584 3203 3211 
Q 3513 2838 3513 2113 
z
" transform="scale(0.015625)"/>
      <path id="DejaVuSans-4f" d="M 2522 4238 
Q 1834 4238 1429 3725 
Q 1025 3213 1025 2328 
Q 1025 1447 1429 934 
Q 1834 422 2522 422 
Q 3209 422 3611 934 
Q 4013 1447 4013 2328 
Q 4013 3213 3611 3725 
Q 3209 4238 2522 4238 
z
M 2522 4750 
Q 3503 4750 4090 4092 
Q 4678 3434 4678 2328 
Q 4678 1225 4090 567 
Q 3503 -91 2522 -91 
Q 1538 -91 948 565 
Q 359 1222 359 2328 
Q 359 3434 948 4092 
Q 1538 4750 2522 4750 
z
" transform="scale(0.015625)"/>
      <path id="DejaVuSans-70" d="M 1159 525 
L 1159 -1331 
L 581 -1331 
L 581 3500 
L 1159 3500 
L 1159 2969 
Q 1341 3281 1617 3432 
Q 1894 3584 2278 3584 
Q 2916 3584 3314 3078 
Q 3713 2572 3713 1747 
Q 3713 922 3314 415 
Q 2916 -91 2278 -91 
Q 1894 -91 1617 61 
Q 1341 213 1159 525 
z
M 3116 1747 
Q 3116 2381 2855 2742 
Q 2594 3103 2138 3103 
Q 1681 3103 1420 2742 
Q 1159 2381 1159 1747 
Q 1159 1113 1420 752 
Q 1681 391 2138 391 
Q 2594 391 2855 752 
Q 3116 1113 3116 1747 
z
" transform="scale(0.015625)"/>
      <path id="DejaVuSans-53" d="M 3425 4513 
L 3425 3897 
Q 3066 4069 2747 4153 
Q 2428 4238 2131 4238 
Q 1616 4238 1336 4038 
Q 1056 3838 1056 3469 
Q 1056 3159 1242 3001 
Q 1428 2844 1947 2747 
L 2328 2669 
Q 3034 2534 3370 2195 
Q 3706 1856 3706 1288 
Q 3706 609 3251 259 
Q 2797 -91 1919 -91 
Q 1588 -91 1214 -16 
Q 841 59 441 206 
L 441 856 
Q 825 641 1194 531 
Q 1563 422 1919 422 
Q 2459 422 2753 634 
Q 3047 847 3047 1241 
Q 3047 1584 2836 1778 
Q 2625 1972 2144 2069 
L 1759 2144 
Q 1053 2284 737 2584 
Q 422 2884 422 3419 
Q 422 4038 858 4394 
Q 1294 4750 2059 4750 
Q 2388 4750 2728 4690 
Q 3069 4631 3425 4513 
z
" transform="scale(0.015625)"/>
      <path id="DejaVuSans-4d" d="M 628 4666 
L 1569 4666 
L 2759 1491 
L 3956 4666 
L 4897 4666 
L 4897 0 
L 4281 0 
L 4281 4097 
L 3078 897 
L 2444 897 
L 1241 4097 
L 1241 0 
L 628 0 
L 628 4666 
z
" transform="scale(0.015625)"/>
      <path id="DejaVuSans-61" d="M 2194 1759 
Q 1497 1759 1228 1600 
Q 959 1441 959 1056 
Q 959 750 1161 570 
Q 1363 391 1709 391 
Q 2188 391 2477 730 
Q 2766 1069 2766 1631 
L 2766 1759 
L 2194 1759 
z
M 3341 1997 
L 3341 0 
L 2766 0 
L 2766 531 
Q 2569 213 2275 61 
Q 1981 -91 1556 -91 
Q 1019 -91 701 211 
Q 384 513 384 1019 
Q 384 1609 779 1909 
Q 1175 2209 1959 2209 
L 2766 2209 
L 2766 2266 
Q 2766 2663 2505 2880 
Q 2244 3097 1772 3097 
Q 1472 3097 1187 3025 
Q 903 2953 641 2809 
L 641 3341 
Q 956 3463 1253 3523 
Q 1550 3584 1831 3584 
Q 2591 3584 2966 3190 
Q 3341 2797 3341 1997 
z
" transform="scale(0.015625)"/>
      <path id="DejaVuSans-64" d="M 2906 2969 
L 2906 4863 
L 3481 4863 
L 3481 0 
L 2906 0 
L 2906 525 
Q 2725 213 2448 61 
Q 2172 -91 1784 -91 
Q 1150 -91 751 415 
Q 353 922 353 1747 
Q 353 2572 751 3078 
Q 1150 3584 1784 3584 
Q 2172 3584 2448 3432 
Q 2725 3281 2906 2969 
z
M 947 1747 
Q 947 1113 1208 752 
Q 1469 391 1925 391 
Q 2381 391 2643 752 
Q 2906 1113 2906 1747 
Q 2906 2381 2643 2742 
Q 2381 3103 1925 3103 
Q 1469 3103 1208 2742 
Q 947 2381 947 1747 
z
" transform="scale(0.015625)"/>
      <path id="DejaVuSans-50" d="M 1259 4147 
L 1259 2394 
L 2053 2394 
Q 2494 2394 2734 2622 
Q 2975 2850 2975 3272 
Q 2975 3691 2734 3919 
Q 2494 4147 2053 4147 
L 1259 4147 
z
M 628 4666 
L 2053 4666 
Q 2838 4666 3239 4311 
Q 3641 3956 3641 3272 
Q 3641 2581 3239 2228 
Q 2838 1875 2053 1875 
L 1259 1875 
L 1259 0 
L 628 0 
L 628 4666 
z
" transform="scale(0.015625)"/>
      <path id="DejaVuSans-6c" d="M 603 4863 
L 1178 4863 
L 1178 0 
L 603 0 
L 603 4863 
z
" transform="scale(0.015625)"/>
      <path id="DejaVuSans-2c" d="M 750 794 
L 1409 794 
L 1409 256 
L 897 -744 
L 494 -744 
L 750 256 
L 750 794 
z
" transform="scale(0.015625)"/>
      <path id="DejaVuSans-79" d="M 2059 -325 
Q 1816 -950 1584 -1140 
Q 1353 -1331 966 -1331 
L 506 -1331 
L 506 -850 
L 844 -850 
Q 1081 -850 1212 -737 
Q 1344 -625 1503 -206 
L 1606 56 
L 191 3500 
L 800 3500 
L 1894 763 
L 2988 3500 
L 3597 3500 
L 2059 -325 
z
" transform="scale(0.015625)"/>
      <path id="DejaVuSans-2e" d="M 684 794 
L 1344 794 
L 1344 0 
L 684 0 
L 684 794 
z
" transform="scale(0.015625)"/>
      <path id="DejaVuSans-3a" d="M 750 794 
L 1409 794 
L 1409 0 
L 750 0 
L 750 794 
z
M 750 3309 
L 1409 3309 
L 1409 2516 
L 750 2516 
L 750 3309 
z
" transform="scale(0.015625)"/>
      <path id="DejaVuSans-35" d="M 691 4666 
L 3169 4666 
L 3169 4134 
L 1269 4134 
L 1269 2991 
Q 1406 3038 1543 3061 
Q 1681 3084 1819 3084 
Q 2600 3084 3056 2656 
Q 3513 2228 3513 1497 
Q 3513 744 3044 326 
Q 2575 -91 1722 -91 
Q 1428 -91 1123 -41 
Q 819 9 494 109 
L 494 744 
Q 775 591 1075 516 
Q 1375 441 1709 441 
Q 2250 441 2565 725 
Q 2881 1009 2881 1497 
Q 2881 1984 2565 2268 
Q 2250 2553 1709 2553 
Q 1456 2553 1204 2497 
Q 953 2441 691 2322 
L 691 4666 
z
" transform="scale(0.015625)"/>
      <path id="DejaVuSans-2d" d="M 313 2009 
L 1997 2009 
L 1997 1497 
L 313 1497 
L 313 2009 
z
" transform="scale(0.015625)"/>
      <path id="DejaVuSans-39" d="M 703 97 
L 703 672 
Q 941 559 1184 500 
Q 1428 441 1663 441 
Q 2288 441 2617 861 
Q 2947 1281 2994 2138 
Q 2813 1869 2534 1725 
Q 2256 1581 1919 1581 
Q 1219 1581 811 2004 
Q 403 2428 403 3163 
Q 403 3881 828 4315 
Q 1253 4750 1959 4750 
Q 2769 4750 3195 4129 
Q 3622 3509 3622 2328 
Q 3622 1225 3098 567 
Q 2575 -91 1691 -91 
Q 1453 -91 1209 -44 
Q 966 3 703 97 
z
M 1959 2075 
Q 2384 2075 2632 2365 
Q 2881 2656 2881 3163 
Q 2881 3666 2632 3958 
Q 2384 4250 1959 4250 
Q 1534 4250 1286 3958 
Q 1038 3666 1038 3163 
Q 1038 2656 1286 2365 
Q 1534 2075 1959 2075 
z
" transform="scale(0.015625)"/>
     </defs>
     <use xlink:href="#DejaVuSans-4e"/>
     <use xlink:href="#DejaVuSans-75" x="74.804688"/>
     <use xlink:href="#DejaVuSans-6d" x="138.183594"/>
     <use xlink:href="#DejaVuSans-62" x="235.595703"/>
     <use xlink:href="#DejaVuSans-65" x="299.072266"/>
     <use xlink:href="#DejaVuSans-72" x="360.595703"/>
     <use xlink:href="#DejaVuSans-20" x="401.708984"/>
     <use xlink:href="#DejaVuSans-6f" x="433.496094"/>
     <use xlink:href="#DejaVuSans-66" x="494.677734"/>
     <use xlink:href="#DejaVuSans-20" x="529.882812"/>
     <use xlink:href="#DejaVuSans-41" x="561.669922"/>
     <use xlink:href="#DejaVuSans-45" x="630.078125"/>
     <use xlink:href="#DejaVuSans-44" x="693.261719"/>
     <use xlink:href="#DejaVuSans-73" x="770.263672"/>
     <use xlink:href="#DejaVuSans-20" x="822.363281"/>
     <use xlink:href="#DejaVuSans-69" x="854.150391"/>
     <use xlink:href="#DejaVuSans-6e" x="881.933594"/>
     <use xlink:href="#DejaVuSans-20" x="945.3125"/>
     <use xlink:href="#DejaVuSans-74" x="977.099609"/>
     <use xlink:href="#DejaVuSans-68" x="1016.308594"/>
     <use xlink:href="#DejaVuSans-65" x="1079.6875"/>
     <use xlink:href="#DejaVuSans-20" x="1141.210938"/>
     <use xlink:href="#DejaVuSans-4f" x="1172.998047"/>
     <use xlink:href="#DejaVuSans-70" x="1251.708984"/>
     <use xlink:href="#DejaVuSans-65" x="1315.185547"/>
     <use xlink:href="#DejaVuSans-6e" x="1376.708984"/>
     <use xlink:href="#DejaVuSans-53" x="1440.087891"/>
     <use xlink:href="#DejaVuSans-74" x="1503.564453"/>
     <use xlink:href="#DejaVuSans-72" x="1542.773438"/>
     <use xlink:href="#DejaVuSans-65" x="1581.636719"/>
     <use xlink:href="#DejaVuSans-65" x="1643.160156"/>
     <use xlink:href="#DejaVuSans-74" x="1704.683594"/>
     <use xlink:href="#DejaVuSans-4d" x="1743.892578"/>
     <use xlink:href="#DejaVuSans-61" x="1830.171875"/>
     <use xlink:href="#DejaVuSans-70" x="1891.451172"/>
     <use xlink:href="#DejaVuSans-20" x="1954.927734"/>
     <use xlink:href="#DejaVuSans-64" x="1986.714844"/>
     <use xlink:href="#DejaVuSans-61" x="2050.191406"/>
     <use xlink:href="#DejaVuSans-74" x="2111.470703"/>
     <use xlink:href="#DejaVuSans-61" x="2150.679688"/>
     <use xlink:href="#DejaVuSans-62" x="2211.958984"/>
     <use xlink:href="#DejaVuSans-61" x="2275.435547"/>
     <use xlink:href="#DejaVuSans-73" x="2336.714844"/>
     <use xlink:href="#DejaVuSans-65" x="2388.814453"/>
     <use xlink:href="#DejaVuSans-20" x="2450.337891"/>
     <use xlink:href="#DejaVuSans-69" x="2482.125"/>
     <use xlink:href="#DejaVuSans-6e" x="2509.908203"/>
     <use xlink:href="#DejaVuSans-20" x="2573.287109"/>
     <use xlink:href="#DejaVuSans-50" x="2605.074219"/>
     <use xlink:href="#DejaVuSans-6f" x="2661.751953"/>
     <use xlink:href="#DejaVuSans-6c" x="2722.933594"/>
     <use xlink:href="#DejaVuSans-61" x="2750.716797"/>
     <use xlink:href="#DejaVuSans-6e" x="2811.996094"/>
     <use xlink:href="#DejaVuSans-64" x="2875.375"/>
     <use xlink:href="#DejaVuSans-20" x="2938.851562"/>
     <use xlink:href="#DejaVuSans-66" x="2970.638672"/>
     <use xlink:href="#DejaVuSans-72" x="3005.84375"/>
     <use xlink:href="#DejaVuSans-6f" x="3044.707031"/>
     <use xlink:href="#DejaVuSans-6d" x="3105.888672"/>
     <use xlink:href="#DejaVuSans-20" x="3203.300781"/>
     <use xlink:href="#DejaVuSans-66" x="3235.087891"/>
     <use xlink:href="#DejaVuSans-69" x="3270.292969"/>
     <use xlink:href="#DejaVuSans-72" x="3298.076172"/>
     <use xlink:href="#DejaVuSans-73" x="3339.189453"/>
     <use xlink:href="#DejaVuSans-74" x="3391.289062"/>
     <use xlink:href="#DejaVuSans-20" x="3430.498047"/>
     <use xlink:href="#DejaVuSans-65" x="3462.285156"/>
     <use xlink:href="#DejaVuSans-64" x="3523.808594"/>
     <use xlink:href="#DejaVuSans-69" x="3587.285156"/>
     <use xlink:href="#DejaVuSans-74" x="3615.068359"/>
     <use xlink:href="#DejaVuSans-69" x="3654.277344"/>
     <use xlink:href="#DejaVuSans-6f" x="3682.060547"/>
     <use xlink:href="#DejaVuSans-6e" x="3743.242188"/>
     <use xlink:href="#DejaVuSans-2c" x="3806.621094"/>
     <use xlink:href="#DejaVuSans-20" x="3838.408203"/>
     <use xlink:href="#DejaVuSans-64" x="3870.195312"/>
     <use xlink:href="#DejaVuSans-61" x="3933.671875"/>
     <use xlink:href="#DejaVuSans-79" x="3994.951172"/>
     <use xlink:href="#DejaVuSans-20" x="4054.130859"/>
     <use xlink:href="#DejaVuSans-62" x="4085.917969"/>
     <use xlink:href="#DejaVuSans-79" x="4149.394531"/>
     <use xlink:href="#DejaVuSans-20" x="4208.574219"/>
     <use xlink:href="#DejaVuSans-64" x="4240.361328"/>
     <use xlink:href="#DejaVuSans-61" x="4303.837891"/>
     <use xlink:href="#DejaVuSans-79" x="4365.117188"/>
     <use xlink:href="#DejaVuSans-2e" x="4410.046875"/>
     <use xlink:href="#DejaVuSans-20" x="4441.833984"/>
     <use xlink:href="#DejaVuSans-41" x="4473.621094"/>
     <use xlink:href="#DejaVuSans-73" x="4542.029297"/>
     <use xlink:href="#DejaVuSans-20" x="4594.128906"/>
     <use xlink:href="#DejaVuSans-61" x="4625.916016"/>
     <use xlink:href="#DejaVuSans-74" x="4687.195312"/>
     <use xlink:href="#DejaVuSans-3a" x="4726.404297"/>
     <use xlink:href="#DejaVuSans-20" x="4760.095703"/>
     <use xlink:href="#DejaVuSans-32" x="4791.882812"/>
     <use xlink:href="#DejaVuSans-30" x="4855.505859"/>
     <use xlink:href="#DejaVuSans-32" x="4919.128906"/>
     <use xlink:href="#DejaVuSans-35" x="4982.751953"/>
     <use xlink:href="#DejaVuSans-2d" x="5046.375"/>
     <use xlink:href="#DejaVuSans-31" x="5082.458984"/>
     <use xlink:href="#DejaVuSans-32" x="5146.082031"/>
     <use xlink:href="#DejaVuSans-2d" x="5209.705078"/>
     <use xlink:href="#DejaVuSans-32" x="5245.789062"/>
     <use xlink:href="#DejaVuSans-39" x="5309.412109"/>
    </g>
   </g>
  </g>
 </g>
 <defs>
  <clipPath id="p4837d216c5">
   <rect x="144" y="69.12" width="892.8" height="443.52"/>
  </clipPath>
 </defs>
</svg>
