<?xml version="1.0" encoding="utf-8" standalone="no"?>
<!DOCTYPE svg PUBLIC "-//W3C//DTD SVG 1.1//EN"
  "http://www.w3.org/Graphics/SVG/1.1/DTD/svg11.dtd">
<svg xmlns:xlink="http://www.w3.org/1999/xlink" width="1152pt" height="576pt" viewBox="0 0 1152 576" xmlns="http://www.w3.org/2000/svg" version="1.1">
 <metadata>
  <rdf:RDF xmlns:dc="http://purl.org/dc/elements/1.1/" xmlns:cc="http://creativecommons.org/ns#" xmlns:rdf="http://www.w3.org/1999/02/22-rdf-syntax-ns#">
   <cc:Work>
    <dc:type rdf:resource="http://purl.org/dc/dcmitype/StillImage"/>
    <dc:date>1980-01-01T00:00:00+00:00</dc:date>
    <dc:format>image/svg+xml</dc:format>
    <dc:creator>
     <cc:Agent>
      <dc:title>Matplotlib v3.9.1, https://matplotlib.org/</dc:title>
     </cc:Agent>
    </dc:creator>
   </cc:Work>
  </rdf:RDF>
 </metadata>
 <defs>
  <style type="text/css">*{stroke-linejoin: round; stroke-linecap: butt}</style>
 </defs>
 <g id="figure_1">
  <g id="patch_1">
   <path d="M 0 576 
L 1152 576 
L 1152 0 
L 0 0 
z
" style="fill: #ffffff"/>
  </g>
  <g id="axes_1">
   <g id="patch_2">
    <path d="M 144 512.64 
L 1036.8 512.64 
L 1036.8 69.12 
L 144 69.12 
z
" style="fill: #ffffff"/>
   </g>
   <g id="matplotlib.axis_1">
    <g id="xtick_1">
     <g id="line2d_1">
      <defs>
       <path id="m78a8f0b28c" d="M 0 0 
L 0 3.5 
" style="stroke: #000000; stroke-width: 0.8"/>
      </defs>
      <g>
       <use xlink:href="#m78a8f0b28c" x="177.19995" y="512.64" style="stroke: #000000; stroke-width: 0.8"/>
      </g>
     </g>
     <g id="text_1">
      <!-- 2014 -->
      <g transform="translate(164.47495 527.238438) scale(0.1 -0.1)">
       <defs>
        <path id="DejaVuSans-32" d="M 1228 531 
L 3431 531 
L 3431 0 
L 469 0 
L 469 531 
Q 828 903 1448 1529 
Q 2069 2156 2228 2338 
Q 2531 2678 2651 2914 
Q 2772 3150 2772 3378 
Q 2772 3750 2511 3984 
Q 2250 4219 1831 4219 
Q 1534 4219 1204 4116 
Q 875 4013 500 3803 
L 500 4441 
Q 881 4594 1212 4672 
Q 1544 4750 1819 4750 
Q 2544 4750 2975 4387 
Q 3406 4025 3406 3419 
Q 3406 3131 3298 2873 
Q 3191 2616 2906 2266 
Q 2828 2175 2409 1742 
Q 1991 1309 1228 531 
z
" transform="scale(0.015625)"/>
        <path id="DejaVuSans-30" d="M 2034 4250 
Q 1547 4250 1301 3770 
Q 1056 3291 1056 2328 
Q 1056 1369 1301 889 
Q 1547 409 2034 409 
Q 2525 409 2770 889 
Q 3016 1369 3016 2328 
Q 3016 3291 2770 3770 
Q 2525 4250 2034 4250 
z
M 2034 4750 
Q 2819 4750 3233 4129 
Q 3647 3509 3647 2328 
Q 3647 1150 3233 529 
Q 2819 -91 2034 -91 
Q 1250 -91 836 529 
Q 422 1150 422 2328 
Q 422 3509 836 4129 
Q 1250 4750 2034 4750 
z
" transform="scale(0.015625)"/>
        <path id="DejaVuSans-31" d="M 794 531 
L 1825 531 
L 1825 4091 
L 703 3866 
L 703 4441 
L 1819 4666 
L 2450 4666 
L 2450 531 
L 3481 531 
L 3481 0 
L 794 0 
L 794 531 
z
" transform="scale(0.015625)"/>
        <path id="DejaVuSans-34" d="M 2419 4116 
L 825 1625 
L 2419 1625 
L 2419 4116 
z
M 2253 4666 
L 3047 4666 
L 3047 1625 
L 3713 1625 
L 3713 1100 
L 3047 1100 
L 3047 0 
L 2419 0 
L 2419 1100 
L 313 1100 
L 313 1709 
L 2253 4666 
z
" transform="scale(0.015625)"/>
       </defs>
       <use xlink:href="#DejaVuSans-32"/>
       <use xlink:href="#DejaVuSans-30" x="63.623047"/>
       <use xlink:href="#DejaVuSans-31" x="127.246094"/>
       <use xlink:href="#DejaVuSans-34" x="190.869141"/>
      </g>
     </g>
    </g>
    <g id="xtick_2">
     <g id="line2d_2">
      <g>
       <use xlink:href="#m78a8f0b28c" x="311.919038" y="512.64" style="stroke: #000000; stroke-width: 0.8"/>
      </g>
     </g>
     <g id="text_2">
      <!-- 2016 -->
      <g transform="translate(299.194038 527.238438) scale(0.1 -0.1)">
       <defs>
        <path id="DejaVuSans-36" d="M 2113 2584 
Q 1688 2584 1439 2293 
Q 1191 2003 1191 1497 
Q 1191 994 1439 701 
Q 1688 409 2113 409 
Q 2538 409 2786 701 
Q 3034 994 3034 1497 
Q 3034 2003 2786 2293 
Q 2538 2584 2113 2584 
z
M 3366 4563 
L 3366 3988 
Q 3128 4100 2886 4159 
Q 2644 4219 2406 4219 
Q 1781 4219 1451 3797 
Q 1122 3375 1075 2522 
Q 1259 2794 1537 2939 
Q 1816 3084 2150 3084 
Q 2853 3084 3261 2657 
Q 3669 2231 3669 1497 
Q 3669 778 3244 343 
Q 2819 -91 2113 -91 
Q 1303 -91 875 529 
Q 447 1150 447 2328 
Q 447 3434 972 4092 
Q 1497 4750 2381 4750 
Q 2619 4750 2861 4703 
Q 3103 4656 3366 4563 
z
" transform="scale(0.015625)"/>
       </defs>
       <use xlink:href="#DejaVuSans-32"/>
       <use xlink:href="#DejaVuSans-30" x="63.623047"/>
       <use xlink:href="#DejaVuSans-31" x="127.246094"/>
       <use xlink:href="#DejaVuSans-36" x="190.869141"/>
      </g>
     </g>
    </g>
    <g id="xtick_3">
     <g id="line2d_3">
      <g>
       <use xlink:href="#m78a8f0b28c" x="446.822671" y="512.64" style="stroke: #000000; stroke-width: 0.8"/>
      </g>
     </g>
     <g id="text_3">
      <!-- 2018 -->
      <g transform="translate(434.097671 527.238438) scale(0.1 -0.1)">
       <defs>
        <path id="DejaVuSans-38" d="M 2034 2216 
Q 1584 2216 1326 1975 
Q 1069 1734 1069 1313 
Q 1069 891 1326 650 
Q 1584 409 2034 409 
Q 2484 409 2743 651 
Q 3003 894 3003 1313 
Q 3003 1734 2745 1975 
Q 2488 2216 2034 2216 
z
M 1403 2484 
Q 997 2584 770 2862 
Q 544 3141 544 3541 
Q 544 4100 942 4425 
Q 1341 4750 2034 4750 
Q 2731 4750 3128 4425 
Q 3525 4100 3525 3541 
Q 3525 3141 3298 2862 
Q 3072 2584 2669 2484 
Q 3125 2378 3379 2068 
Q 3634 1759 3634 1313 
Q 3634 634 3220 271 
Q 2806 -91 2034 -91 
Q 1263 -91 848 271 
Q 434 634 434 1313 
Q 434 1759 690 2068 
Q 947 2378 1403 2484 
z
M 1172 3481 
Q 1172 3119 1398 2916 
Q 1625 2713 2034 2713 
Q 2441 2713 2670 2916 
Q 2900 3119 2900 3481 
Q 2900 3844 2670 4047 
Q 2441 4250 2034 4250 
Q 1625 4250 1398 4047 
Q 1172 3844 1172 3481 
z
" transform="scale(0.015625)"/>
       </defs>
       <use xlink:href="#DejaVuSans-32"/>
       <use xlink:href="#DejaVuSans-30" x="63.623047"/>
       <use xlink:href="#DejaVuSans-31" x="127.246094"/>
       <use xlink:href="#DejaVuSans-38" x="190.869141"/>
      </g>
     </g>
    </g>
    <g id="xtick_4">
     <g id="line2d_4">
      <g>
       <use xlink:href="#m78a8f0b28c" x="581.541759" y="512.64" style="stroke: #000000; stroke-width: 0.8"/>
      </g>
     </g>
     <g id="text_4">
      <!-- 2020 -->
      <g transform="translate(568.816759 527.238438) scale(0.1 -0.1)">
       <use xlink:href="#DejaVuSans-32"/>
       <use xlink:href="#DejaVuSans-30" x="63.623047"/>
       <use xlink:href="#DejaVuSans-32" x="127.246094"/>
       <use xlink:href="#DejaVuSans-30" x="190.869141"/>
      </g>
     </g>
    </g>
    <g id="xtick_5">
     <g id="line2d_5">
      <g>
       <use xlink:href="#m78a8f0b28c" x="716.445393" y="512.64" style="stroke: #000000; stroke-width: 0.8"/>
      </g>
     </g>
     <g id="text_5">
      <!-- 2022 -->
      <g transform="translate(703.720393 527.238438) scale(0.1 -0.1)">
       <use xlink:href="#DejaVuSans-32"/>
       <use xlink:href="#DejaVuSans-30" x="63.623047"/>
       <use xlink:href="#DejaVuSans-32" x="127.246094"/>
       <use xlink:href="#DejaVuSans-32" x="190.869141"/>
      </g>
     </g>
    </g>
    <g id="xtick_6">
     <g id="line2d_6">
      <g>
       <use xlink:href="#m78a8f0b28c" x="851.16448" y="512.64" style="stroke: #000000; stroke-width: 0.8"/>
      </g>
     </g>
     <g id="text_6">
      <!-- 2024 -->
      <g transform="translate(838.43948 527.238438) scale(0.1 -0.1)">
       <use xlink:href="#DejaVuSans-32"/>
       <use xlink:href="#DejaVuSans-30" x="63.623047"/>
       <use xlink:href="#DejaVuSans-32" x="127.246094"/>
       <use xlink:href="#DejaVuSans-34" x="190.869141"/>
      </g>
     </g>
    </g>
    <g id="xtick_7">
     <g id="line2d_7">
      <g>
       <use xlink:href="#m78a8f0b28c" x="986.068114" y="512.64" style="stroke: #000000; stroke-width: 0.8"/>
      </g>
     </g>
     <g id="text_7">
      <!-- 2026 -->
      <g transform="translate(973.343114 527.238438) scale(0.1 -0.1)">
       <use xlink:href="#DejaVuSans-32"/>
       <use xlink:href="#DejaVuSans-30" x="63.623047"/>
       <use xlink:href="#DejaVuSans-32" x="127.246094"/>
       <use xlink:href="#DejaVuSans-36" x="190.869141"/>
      </g>
     </g>
    </g>
   </g>
   <g id="matplotlib.axis_2">
    <g id="ytick_1">
     <g id="line2d_8">
      <defs>
       <path id="m40d6cc9189" d="M 0 0 
L -3.5 0 
" style="stroke: #000000; stroke-width: 0.8"/>
      </defs>
      <g>
       <use xlink:href="#m40d6cc9189" x="144" y="492.50807" style="stroke: #000000; stroke-width: 0.8"/>
      </g>
     </g>
     <g id="text_8">
      <!-- 0 -->
      <g transform="translate(130.6375 496.307289) scale(0.1 -0.1)">
       <use xlink:href="#DejaVuSans-30"/>
      </g>
     </g>
    </g>
    <g id="ytick_2">
     <g id="line2d_9">
      <g>
       <use xlink:href="#m40d6cc9189" x="144" y="436.367719" style="stroke: #000000; stroke-width: 0.8"/>
      </g>
     </g>
     <g id="text_9">
      <!-- 2000 -->
      <g transform="translate(111.55 440.166938) scale(0.1 -0.1)">
       <use xlink:href="#DejaVuSans-32"/>
       <use xlink:href="#DejaVuSans-30" x="63.623047"/>
       <use xlink:href="#DejaVuSans-30" x="127.246094"/>
       <use xlink:href="#DejaVuSans-30" x="190.869141"/>
      </g>
     </g>
    </g>
    <g id="ytick_3">
     <g id="line2d_10">
      <g>
       <use xlink:href="#m40d6cc9189" x="144" y="380.227368" style="stroke: #000000; stroke-width: 0.8"/>
      </g>
     </g>
     <g id="text_10">
      <!-- 4000 -->
      <g transform="translate(111.55 384.026587) scale(0.1 -0.1)">
       <use xlink:href="#DejaVuSans-34"/>
       <use xlink:href="#DejaVuSans-30" x="63.623047"/>
       <use xlink:href="#DejaVuSans-30" x="127.246094"/>
       <use xlink:href="#DejaVuSans-30" x="190.869141"/>
      </g>
     </g>
    </g>
    <g id="ytick_4">
     <g id="line2d_11">
      <g>
       <use xlink:href="#m40d6cc9189" x="144" y="324.087018" style="stroke: #000000; stroke-width: 0.8"/>
      </g>
     </g>
     <g id="text_11">
      <!-- 6000 -->
      <g transform="translate(111.55 327.886236) scale(0.1 -0.1)">
       <use xlink:href="#DejaVuSans-36"/>
       <use xlink:href="#DejaVuSans-30" x="63.623047"/>
       <use xlink:href="#DejaVuSans-30" x="127.246094"/>
       <use xlink:href="#DejaVuSans-30" x="190.869141"/>
      </g>
     </g>
    </g>
    <g id="ytick_5">
     <g id="line2d_12">
      <g>
       <use xlink:href="#m40d6cc9189" x="144" y="267.946667" style="stroke: #000000; stroke-width: 0.8"/>
      </g>
     </g>
     <g id="text_12">
      <!-- 8000 -->
      <g transform="translate(111.55 271.745885) scale(0.1 -0.1)">
       <use xlink:href="#DejaVuSans-38"/>
       <use xlink:href="#DejaVuSans-30" x="63.623047"/>
       <use xlink:href="#DejaVuSans-30" x="127.246094"/>
       <use xlink:href="#DejaVuSans-30" x="190.869141"/>
      </g>
     </g>
    </g>
    <g id="ytick_6">
     <g id="line2d_13">
      <g>
       <use xlink:href="#m40d6cc9189" x="144" y="211.806316" style="stroke: #000000; stroke-width: 0.8"/>
      </g>
     </g>
     <g id="text_13">
      <!-- 10000 -->
      <g transform="translate(105.1875 215.605535) scale(0.1 -0.1)">
       <use xlink:href="#DejaVuSans-31"/>
       <use xlink:href="#DejaVuSans-30" x="63.623047"/>
       <use xlink:href="#DejaVuSans-30" x="127.246094"/>
       <use xlink:href="#DejaVuSans-30" x="190.869141"/>
       <use xlink:href="#DejaVuSans-30" x="254.492188"/>
      </g>
     </g>
    </g>
    <g id="ytick_7">
     <g id="line2d_14">
      <g>
       <use xlink:href="#m40d6cc9189" x="144" y="155.665965" style="stroke: #000000; stroke-width: 0.8"/>
      </g>
     </g>
     <g id="text_14">
      <!-- 12000 -->
      <g transform="translate(105.1875 159.465184) scale(0.1 -0.1)">
       <use xlink:href="#DejaVuSans-31"/>
       <use xlink:href="#DejaVuSans-32" x="63.623047"/>
       <use xlink:href="#DejaVuSans-30" x="127.246094"/>
       <use xlink:href="#DejaVuSans-30" x="190.869141"/>
       <use xlink:href="#DejaVuSans-30" x="254.492188"/>
      </g>
     </g>
    </g>
    <g id="ytick_8">
     <g id="line2d_15">
      <g>
       <use xlink:href="#m40d6cc9189" x="144" y="99.525614" style="stroke: #000000; stroke-width: 0.8"/>
      </g>
     </g>
     <g id="text_15">
      <!-- 14000 -->
      <g transform="translate(105.1875 103.324833) scale(0.1 -0.1)">
       <use xlink:href="#DejaVuSans-31"/>
       <use xlink:href="#DejaVuSans-34" x="63.623047"/>
       <use xlink:href="#DejaVuSans-30" x="127.246094"/>
       <use xlink:href="#DejaVuSans-30" x="190.869141"/>
       <use xlink:href="#DejaVuSans-30" x="254.492188"/>
      </g>
     </g>
    </g>
   </g>
   <g id="line2d_16">
    <path d="M 184.581818 492.48 
L 186.242738 492.42386 
L 285.713407 492.283509 
L 452.728166 492.115088 
L 486.869304 492.002807 
L 499.97212 491.918596 
L 531.898698 491.750175 
L 535.035992 491.694035 
L 558.104328 491.581754 
L 587.6318 491.413333 
L 588.000893 491.188772 
L 591.876374 491.048421 
L 626.017512 490.90807 
L 650.562222 490.767719 
L 664.772318 490.571228 
L 692.454322 489.869474 
L 698.913457 489.504561 
L 708.509885 489.30807 
L 712.939005 488.297544 
L 713.123552 488.185263 
L 714.784472 488.101053 
L 715.522659 487.70807 
L 715.707206 487.062456 
L 716.076299 486.894035 
L 716.260846 486.865965 
L 716.445393 485.967719 
L 717.552673 485.574737 
L 717.921766 485.097544 
L 718.290859 484.957193 
L 718.475406 484.620351 
L 718.659953 483.862456 
L 719.029046 483.244912 
L 719.213593 482.430877 
L 719.39814 480.887018 
L 719.95178 479.876491 
L 720.320873 474.85193 
L 720.50542 474.318596 
L 720.874513 471.118596 
L 721.05906 470.585263 
L 721.243607 469.181754 
L 721.428153 469.097544 
L 721.981793 467.357193 
L 722.16634 463.399298 
L 722.350887 463.062456 
L 722.71998 461.967719 
L 722.904527 461.883509 
L 723.089074 461.294035 
L 723.27362 458.571228 
L 723.458167 457.925614 
L 723.642714 457.897544 
L 723.82726 455.932632 
L 724.011807 455.68 
L 724.3809 455.539649 
L 725.119087 453.743158 
L 725.488181 453.181754 
L 726.041821 451.665965 
L 726.410914 447.455439 
L 726.780007 445.462456 
L 727.333648 445.378246 
L 727.702741 445.181754 
L 728.440928 444.115088 
L 728.810021 444.058947 
L 729.179114 441.813333 
L 729.548208 441.644912 
L 729.732755 441.392281 
L 729.917301 440.381754 
L 730.286395 440.072982 
L 730.470941 439.932632 
L 730.655488 439.455439 
L 731.209128 439.287018 
L 731.578222 439.034386 
L 731.947315 437.995789 
L 732.131862 437.911579 
L 732.500955 437.490526 
L 733.239142 437.181754 
L 733.423688 436.227368 
L 733.792782 436.030877 
L 733.977329 434.206316 
L 734.346422 434.150175 
L 734.715515 433.616842 
L 734.900062 433.083509 
L 735.453702 432.971228 
L 735.638249 432.802807 
L 736.007342 432.269474 
L 736.191889 432.241404 
L 736.560982 431.820351 
L 736.930076 431.70807 
L 737.114622 430.444912 
L 738.221903 430.304561 
L 738.590996 430.08 
L 739.329183 429.995789 
L 739.513729 429.883509 
L 742.097383 429.237895 
L 742.466476 429.013333 
L 743.38921 428.901053 
L 744.127397 428.564211 
L 745.972864 428.227368 
L 746.71105 426.206316 
L 747.633784 426.094035 
L 747.818331 426.037895 
L 749.294704 425.897544 
L 750.032891 425.644912 
L 751.140171 425.504561 
L 753.354731 424.746667 
L 753.539278 424.578246 
L 754.277465 424.353684 
L 755.200198 424.297544 
L 755.384745 424.101053 
L 755.753839 424.072982 
L 755.938385 423.65193 
L 756.122932 423.595789 
L 756.307479 423.006316 
L 759.075679 422.501053 
L 759.260226 422.164211 
L 760.552053 421.883509 
L 761.105693 421.715088 
L 761.843879 421.574737 
L 762.582066 421.406316 
L 763.5048 421.237895 
L 765.350267 420.564211 
L 765.534813 420.002807 
L 766.457547 419.413333 
L 766.642094 419.160702 
L 767.564827 418.515088 
L 767.93392 417.925614 
L 768.118467 417.897544 
L 768.48756 417.28 
L 769.225747 416.550175 
L 769.779387 416.465965 
L 770.148481 416.213333 
L 770.333027 416.129123 
L 770.517574 415.848421 
L 771.440308 415.65193 
L 771.624854 415.399298 
L 773.470321 415.090526 
L 773.654868 414.950175 
L 774.577601 414.837895 
L 775.684882 414.444912 
L 776.423068 414.304561 
L 776.792162 413.827368 
L 777.161255 413.630877 
L 778.083989 413.069474 
L 778.268535 412.42386 
L 779.191269 412.171228 
L 781.405829 411.132632 
L 781.590376 410.85193 
L 782.144016 410.683509 
L 782.513109 410.487018 
L 783.066749 410.318596 
L 783.435843 407.427368 
L 783.620389 406.501053 
L 783.804936 404.816842 
L 783.989483 404.620351 
L 784.543123 402.85193 
L 785.096763 401.981754 
L 785.465856 401.757193 
L 785.650403 401.588772 
L 785.83495 400.746667 
L 786.019496 400.437895 
L 786.38859 400.353684 
L 786.94223 399.68 
L 787.126777 399.174737 
L 787.680417 398.585263 
L 787.864963 397.827368 
L 788.787697 396.50807 
L 789.71043 396.115088 
L 789.894977 395.385263 
L 790.448617 395.132632 
L 791.186804 394.402807 
L 791.371351 393.869474 
L 791.740444 393.701053 
L 792.109537 393.30807 
L 792.478631 393.28 
L 792.663177 392.999298 
L 793.032271 392.830877 
L 793.585911 392.381754 
L 793.955004 392.185263 
L 794.139551 391.70807 
L 795.431378 390.837895 
L 795.615925 390.753684 
L 795.985018 389.715088 
L 796.538658 389.518596 
L 797.092298 389.378246 
L 797.461392 388.872982 
L 797.830485 388.620351 
L 798.384125 387.806316 
L 799.675952 387.497544 
L 800.229592 386.739649 
L 800.967779 386.599298 
L 801.890512 386.009825 
L 802.075059 385.981754 
L 802.628699 385.588772 
L 802.997792 385.476491 
L 803.366886 385.448421 
L 803.551432 385.28 
L 803.735979 384.830877 
L 804.474166 384.634386 
L 804.658713 384.381754 
L 804.843259 384.353684 
L 805.027806 383.848421 
L 805.765993 383.62386 
L 806.135086 383.539649 
L 806.50418 383.287018 
L 808.534193 382.557193 
L 808.71874 381.827368 
L 809.087833 381.574737 
L 809.641473 381.406316 
L 810.195113 381.125614 
L 810.9333 381.013333 
L 811.117847 380.255439 
L 811.671487 380.030877 
L 811.856034 379.862456 
L 812.594221 379.722105 
L 812.778767 379.609825 
L 813.147861 379.553684 
L 813.332407 379.329123 
L 814.070594 379.104561 
L 814.255141 378.795789 
L 814.624234 378.767719 
L 814.993328 378.571228 
L 815.546968 378.318596 
L 815.731514 377.981754 
L 817.023341 377.644912 
L 817.207888 377.476491 
L 817.761528 377.33614 
L 817.946075 377.083509 
L 818.130621 377.055439 
L 818.499715 376.830877 
L 818.868808 376.690526 
L 819.053355 376.550175 
L 820.160635 376.325614 
L 820.345182 376.016842 
L 820.898822 375.876491 
L 821.452462 375.792281 
L 821.821555 375.539649 
L 822.375195 375.399298 
L 822.744289 375.287018 
L 822.928835 375.090526 
L 823.297929 375.034386 
L 823.482476 374.557193 
L 823.667022 374.472982 
L 824.589756 373.350175 
L 824.774302 373.265965 
L 824.958849 373.041404 
L 825.327942 372.872982 
L 826.066129 372.367719 
L 826.435223 372.255439 
L 826.619769 371.946667 
L 827.173409 371.665965 
L 827.542503 371.469474 
L 828.096143 371.329123 
L 828.649783 370.90807 
L 829.018876 370.655439 
L 829.38797 370.374737 
L 830.126157 369.897544 
L 831.60253 369.420351 
L 832.340717 368.887018 
L 832.894357 368.634386 
L 834.555277 368.072982 
L 834.924371 367.848421 
L 835.478011 367.70807 
L 836.031651 367.427368 
L 836.585291 367.287018 
L 837.138931 367.062456 
L 838.246211 366.809825 
L 838.799851 366.613333 
L 838.984398 366.332632 
L 841.383505 365.546667 
L 841.752598 365.378246 
L 842.121692 365.322105 
L 842.490785 364.957193 
L 842.675332 363.778246 
L 843.044425 363.497544 
L 843.413519 363.357193 
L 843.967159 362.683509 
L 844.336252 362.430877 
L 844.705345 361.672982 
L 845.074439 361.476491 
L 845.443532 361.30807 
L 845.812626 361.22386 
L 846.181719 360.999298 
L 846.366266 360.887018 
L 847.288999 360.690526 
L 847.658093 360.353684 
L 848.211733 359.960702 
L 848.580826 359.848421 
L 848.949919 359.511579 
L 850.0572 358.809825 
L 850.426293 358.781754 
L 850.61084 358.529123 
L 851.349026 358.360702 
L 851.533573 357.799298 
L 851.902667 357.518596 
L 852.8254 357.265965 
L 853.009947 357.181754 
L 853.194493 356.788772 
L 853.563587 356.676491 
L 853.748133 356.339649 
L 854.301774 355.974737 
L 854.670867 355.806316 
L 855.03996 355.722105 
L 855.409054 355.525614 
L 855.5936 355.497544 
L 855.962694 355.301053 
L 856.700881 354.93614 
L 857.069974 354.290526 
L 858.546348 353.644912 
L 858.730894 353.139649 
L 859.284534 352.971228 
L 859.838174 352.381754 
L 860.022721 352.325614 
L 860.391814 352.072982 
L 860.576361 352.044912 
L 860.945455 351.62386 
L 861.314548 351.427368 
L 862.052735 351.146667 
L 862.237281 350.865965 
L 862.606375 350.809825 
L 862.790921 350.613333 
L 862.975468 350.585263 
L 863.160015 350.02386 
L 863.713655 349.855439 
L 863.898202 349.771228 
L 864.267295 349.434386 
L 864.451842 349.322105 
L 865.005482 348.704561 
L 866.481855 347.890526 
L 867.220042 347.665965 
L 867.589136 347.244912 
L 867.773682 347.188772 
L 868.696416 346.487018 
L 869.250056 346.262456 
L 869.619149 346.094035 
L 869.803696 346.065965 
L 869.988243 345.504561 
L 870.541883 345.167719 
L 870.726429 344.634386 
L 871.095523 344.409825 
L 871.280069 344.185263 
L 871.464616 344.157193 
L 872.202803 343.539649 
L 872.94099 343.258947 
L 873.310083 343.006316 
L 874.417363 342.557193 
L 875.15555 341.715088 
L 875.893737 341.322105 
L 876.078284 341.125614 
L 876.26283 341.097544 
L 876.447377 340.788772 
L 878.846484 339.609825 
L 879.215577 339.413333 
L 879.769217 339.216842 
L 880.322857 339.076491 
L 881.245591 338.458947 
L 882.537418 337.757193 
L 883.091058 337.532632 
L 884.567431 336.971228 
L 884.751978 335.960702 
L 885.305618 335.73614 
L 885.490165 335.483509 
L 885.674712 335.455439 
L 886.412898 334.416842 
L 886.597445 334.332632 
L 886.781992 333.995789 
L 887.151085 333.883509 
L 887.889272 332.957193 
L 888.258365 331.694035 
L 888.442912 331.301053 
L 888.812005 329.30807 
L 888.996552 328.465965 
L 889.919286 327.511579 
L 890.657472 325.013333 
L 890.842019 324.872982 
L 891.026566 324.50807 
L 891.211112 323.188772 
L 891.395659 322.795789 
L 891.580206 322.767719 
L 891.764753 322.150175 
L 892.318393 321.841404 
L 892.687486 320.971228 
L 894.7175 320.016842 
L 895.27114 319.427368 
L 895.640233 318.865965 
L 896.009327 318.753684 
L 896.37842 318.613333 
L 896.747513 318.416842 
L 897.116607 318.248421 
L 898.223887 317.967719 
L 899.515714 317.490526 
L 900.069354 316.985263 
L 900.438447 316.732632 
L 900.807541 316.620351 
L 900.992087 316.50807 
L 901.176634 316.255439 
L 901.914821 316.002807 
L 902.099367 315.918596 
L 902.283914 315.301053 
L 902.837554 314.93614 
L 903.391194 314.739649 
L 903.575741 314.543158 
L 904.129381 314.346667 
L 905.421208 313.757193 
L 905.974848 313.25193 
L 906.159395 312.858947 
L 906.528488 312.718596 
L 907.082128 311.792281 
L 907.266675 311.258947 
L 907.635768 311.034386 
L 908.189408 310.697544 
L 908.373955 310.444912 
L 908.743048 309.350175 
L 908.927595 309.125614 
L 909.112142 308.53614 
L 909.296689 308.48 
L 909.481235 308.002807 
L 909.850329 307.834386 
L 910.957609 306.964211 
L 911.142156 306.571228 
L 911.695796 306.374737 
L 912.803076 305.953684 
L 912.987622 305.925614 
L 913.172169 305.33614 
L 913.910356 304.830877 
L 914.648543 304.606316 
L 915.38673 304.129123 
L 916.678556 303.202807 
L 916.863103 302.950175 
L 917.04765 302.388772 
L 918.15493 301.967719 
L 918.524023 301.546667 
L 918.893117 301.462456 
L 919.077663 301.125614 
L 919.446757 300.985263 
L 919.631303 300.704561 
L 921.661317 299.665965 
L 922.768597 298.543158 
L 922.953144 297.981754 
L 923.322237 297.504561 
L 923.506784 297.195789 
L 924.244971 293.883509 
L 924.614064 293.209825 
L 924.798611 292.872982 
L 924.983158 291.385263 
L 925.167704 288.550175 
L 926.459531 280.718596 
L 926.828625 276.901053 
L 927.197718 276.42386 
L 927.566811 271.483509 
L 927.751358 270.192281 
L 928.120451 264.830877 
L 928.489545 263.792281 
L 928.674092 260.985263 
L 928.858638 260.48 
L 929.227732 257.420351 
L 929.596825 249.167719 
L 929.781372 248.746667 
L 929.965918 247.960702 
L 930.150465 245.434386 
L 930.335012 245.237895 
L 930.704105 240.999298 
L 931.073199 240.802807 
L 931.442292 240.016842 
L 931.626839 239.848421 
L 931.811385 239.455439 
L 931.995932 238.669474 
L 932.365025 238.501053 
L 932.918666 237.013333 
L 933.287759 234.88 
L 933.472306 234.487018 
L 933.656852 234.430877 
L 933.841399 234.234386 
L 934.764132 232.241404 
L 934.948679 232.185263 
L 935.317773 231.65193 
L 935.686866 231.511579 
L 935.871413 231.090526 
L 936.055959 230.950175 
L 936.425053 230.529123 
L 936.794146 230.248421 
L 937.347786 229.799298 
L 937.532333 229.771228 
L 938.085973 229.237895 
L 938.639613 228.872982 
L 940.300533 228.283509 
L 941.03872 227.890526 
L 942.146 227.441404 
L 942.330547 227.048421 
L 943.25328 226.82386 
L 943.991467 226.290526 
L 944.545107 225.785263 
L 944.914201 225.420351 
L 945.652387 225.195789 
L 946.206028 224.858947 
L 946.575121 224.606316 
L 946.944214 224.353684 
L 947.313308 224.157193 
L 947.497854 223.511579 
L 948.789681 222.641404 
L 949.343321 222.276491 
L 950.450602 221.687018 
L 950.635148 221.546667 
L 951.188788 221.490526 
L 951.557882 220.676491 
L 951.742428 220.592281 
L 952.111522 220.143158 
L 952.849709 219.497544 
L 953.034255 219.413333 
L 953.587895 218.711579 
L 953.772442 218.150175 
L 953.956989 218.009825 
L 954.326082 217.953684 
L 954.695175 217.616842 
L 955.433362 217.28 
L 956.171549 216.943158 
L 956.540642 216.494035 
L 956.725189 216.465965 
L 956.909736 213.181754 
L 957.278829 212.732632 
L 957.647923 212.42386 
L 957.832469 212.087018 
L 958.017016 212.058947 
L 958.386109 211.694035 
L 958.570656 211.160702 
L 959.677936 210.065965 
L 959.862483 209.785263 
L 960.231576 208.213333 
L 960.416123 207.70807 
L 960.60067 206.865965 
L 960.785216 206.613333 
L 960.969763 205.546667 
L 961.338857 204.676491 
L 961.523403 204.002807 
L 962.26159 203.216842 
L 962.630683 202.767719 
L 962.999777 202.374737 
L 963.553417 202.206316 
L 964.107057 201.701053 
L 964.660697 200.830877 
L 964.845244 200.774737 
L 965.214337 200.409825 
L 965.398884 200.241404 
L 965.767977 199.567719 
L 966.137071 199.174737 
L 966.321617 198.248421 
L 967.613444 197.406316 
L 968.905271 195.806316 
L 969.274364 194.90807 
L 969.458911 194.739649 
L 970.012551 193.560702 
L 970.197098 193.476491 
L 971.119831 191.258947 
L 971.673471 190.444912 
L 972.227111 190.13614 
L 972.411658 189.658947 
L 973.334392 188.788772 
L 973.703485 187.694035 
L 974.441672 185.588772 
L 974.626219 184.129123 
L 974.810765 183.904561 
L 974.995312 182.669474 
L 975.364405 182.164211 
L 975.548952 181.715088 
L 975.918045 179.581754 
L 976.287139 178.767719 
L 976.471685 178.599298 
L 976.656232 171.441404 
L 976.840779 168.662456 
L 977.025326 152.465965 
L 977.578966 151.371228 
L 977.763512 151.202807 
L 978.132606 149.883509 
L 978.501699 148.985263 
L 979.608979 142.220351 
L 980.162619 140.844912 
L 980.347166 139.188772 
L 980.716259 138.599298 
L 981.085353 137.28 
L 981.2699 135.62386 
L 981.454446 135.230877 
L 981.82354 134.08 
L 982.37718 133.209825 
L 982.561726 133.125614 
L 983.48446 129.672982 
L 984.0381 128.157193 
L 984.407193 126.10807 
L 984.59174 126.05193 
L 984.776287 125.855439 
L 984.960833 125.827368 
L 985.329927 125.434386 
L 985.69902 124.45193 
L 986.068114 124.087018 
L 986.25266 123.609825 
L 986.621754 122.515088 
L 986.8063 122.374737 
L 987.175394 121.448421 
L 987.544487 119.764211 
L 987.729034 119.483509 
L 987.913581 119.427368 
L 988.282674 117.602807 
L 988.467221 117.237895 
L 989.020861 115.020351 
L 989.205407 114.711579 
L 990.497234 109.743158 
L 990.681781 109.602807 
L 991.419968 105.448421 
L 991.604514 105.33614 
L 991.789061 105.027368 
L 992.711795 102.248421 
L 992.896341 101.939649 
L 993.080888 100.844912 
L 993.265435 100.50807 
L 993.634528 98.93614 
L 993.819075 98.599298 
L 994.372715 96.718596 
L 994.557262 95.343158 
L 994.741808 95.090526 
L 995.664542 92.030877 
L 996.218182 89.28 
L 996.218182 89.28 
" clip-path="url(#pf025865d59)" style="fill: none; stroke: #1f77b4; stroke-width: 1.5; stroke-linecap: square"/>
   </g>
   <g id="patch_3">
    <path d="M 144 512.64 
L 144 69.12 
" style="fill: none; stroke: #000000; stroke-width: 0.8; stroke-linejoin: miter; stroke-linecap: square"/>
   </g>
   <g id="patch_4">
    <path d="M 1036.8 512.64 
L 1036.8 69.12 
" style="fill: none; stroke: #000000; stroke-width: 0.8; stroke-linejoin: miter; stroke-linecap: square"/>
   </g>
   <g id="patch_5">
    <path d="M 144 512.64 
L 1036.8 512.64 
" style="fill: none; stroke: #000000; stroke-width: 0.8; stroke-linejoin: miter; stroke-linecap: square"/>
   </g>
   <g id="patch_6">
    <path d="M 144 69.12 
L 1036.8 69.12 
" style="fill: none; stroke: #000000; stroke-width: 0.8; stroke-linejoin: miter; stroke-linecap: square"/>
   </g>
   <g id="text_16">
    <!-- Number of AEDs in the OpenStreetMap database in Poland from first edition, day by day. As at: 2026-02-25 -->
    <g transform="translate(144 63.12) scale(0.14 -0.14)">
     <defs>
      <path id="DejaVuSans-4e" d="M 628 4666 
L 1478 4666 
L 3547 763 
L 3547 4666 
L 4159 4666 
L 4159 0 
L 3309 0 
L 1241 3903 
L 1241 0 
L 628 0 
L 628 4666 
z
" transform="scale(0.015625)"/>
      <path id="DejaVuSans-75" d="M 544 1381 
L 544 3500 
L 1119 3500 
L 1119 1403 
Q 1119 906 1312 657 
Q 1506 409 1894 409 
Q 2359 409 2629 706 
Q 2900 1003 2900 1516 
L 2900 3500 
L 3475 3500 
L 3475 0 
L 2900 0 
L 2900 538 
Q 2691 219 2414 64 
Q 2138 -91 1772 -91 
Q 1169 -91 856 284 
Q 544 659 544 1381 
z
M 1991 3584 
L 1991 3584 
z
" transform="scale(0.015625)"/>
      <path id="DejaVuSans-6d" d="M 3328 2828 
Q 3544 3216 3844 3400 
Q 4144 3584 4550 3584 
Q 5097 3584 5394 3201 
Q 5691 2819 5691 2113 
L 5691 0 
L 5113 0 
L 5113 2094 
Q 5113 2597 4934 2840 
Q 4756 3084 4391 3084 
Q 3944 3084 3684 2787 
Q 3425 2491 3425 1978 
L 3425 0 
L 2847 0 
L 2847 2094 
Q 2847 2600 2669 2842 
Q 2491 3084 2119 3084 
Q 1678 3084 1418 2786 
Q 1159 2488 1159 1978 
L 1159 0 
L 581 0 
L 581 3500 
L 1159 3500 
L 1159 2956 
Q 1356 3278 1631 3431 
Q 1906 3584 2284 3584 
Q 2666 3584 2933 3390 
Q 3200 3197 3328 2828 
z
" transform="scale(0.015625)"/>
      <path id="DejaVuSans-62" d="M 3116 1747 
Q 3116 2381 2855 2742 
Q 2594 3103 2138 3103 
Q 1681 3103 1420 2742 
Q 1159 2381 1159 1747 
Q 1159 1113 1420 752 
Q 1681 391 2138 391 
Q 2594 391 2855 752 
Q 3116 1113 3116 1747 
z
M 1159 2969 
Q 1341 3281 1617 3432 
Q 1894 3584 2278 3584 
Q 2916 3584 3314 3078 
Q 3713 2572 3713 1747 
Q 3713 922 3314 415 
Q 2916 -91 2278 -91 
Q 1894 -91 1617 61 
Q 1341 213 1159 525 
L 1159 0 
L 581 0 
L 581 4863 
L 1159 4863 
L 1159 2969 
z
" transform="scale(0.015625)"/>
      <path id="DejaVuSans-65" d="M 3597 1894 
L 3597 1613 
L 953 1613 
Q 991 1019 1311 708 
Q 1631 397 2203 397 
Q 2534 397 2845 478 
Q 3156 559 3463 722 
L 3463 178 
Q 3153 47 2828 -22 
Q 2503 -91 2169 -91 
Q 1331 -91 842 396 
Q 353 884 353 1716 
Q 353 2575 817 3079 
Q 1281 3584 2069 3584 
Q 2775 3584 3186 3129 
Q 3597 2675 3597 1894 
z
M 3022 2063 
Q 3016 2534 2758 2815 
Q 2500 3097 2075 3097 
Q 1594 3097 1305 2825 
Q 1016 2553 972 2059 
L 3022 2063 
z
" transform="scale(0.015625)"/>
      <path id="DejaVuSans-72" d="M 2631 2963 
Q 2534 3019 2420 3045 
Q 2306 3072 2169 3072 
Q 1681 3072 1420 2755 
Q 1159 2438 1159 1844 
L 1159 0 
L 581 0 
L 581 3500 
L 1159 3500 
L 1159 2956 
Q 1341 3275 1631 3429 
Q 1922 3584 2338 3584 
Q 2397 3584 2469 3576 
Q 2541 3569 2628 3553 
L 2631 2963 
z
" transform="scale(0.015625)"/>
      <path id="DejaVuSans-20" transform="scale(0.015625)"/>
      <path id="DejaVuSans-6f" d="M 1959 3097 
Q 1497 3097 1228 2736 
Q 959 2375 959 1747 
Q 959 1119 1226 758 
Q 1494 397 1959 397 
Q 2419 397 2687 759 
Q 2956 1122 2956 1747 
Q 2956 2369 2687 2733 
Q 2419 3097 1959 3097 
z
M 1959 3584 
Q 2709 3584 3137 3096 
Q 3566 2609 3566 1747 
Q 3566 888 3137 398 
Q 2709 -91 1959 -91 
Q 1206 -91 779 398 
Q 353 888 353 1747 
Q 353 2609 779 3096 
Q 1206 3584 1959 3584 
z
" transform="scale(0.015625)"/>
      <path id="DejaVuSans-66" d="M 2375 4863 
L 2375 4384 
L 1825 4384 
Q 1516 4384 1395 4259 
Q 1275 4134 1275 3809 
L 1275 3500 
L 2222 3500 
L 2222 3053 
L 1275 3053 
L 1275 0 
L 697 0 
L 697 3053 
L 147 3053 
L 147 3500 
L 697 3500 
L 697 3744 
Q 697 4328 969 4595 
Q 1241 4863 1831 4863 
L 2375 4863 
z
" transform="scale(0.015625)"/>
      <path id="DejaVuSans-41" d="M 2188 4044 
L 1331 1722 
L 3047 1722 
L 2188 4044 
z
M 1831 4666 
L 2547 4666 
L 4325 0 
L 3669 0 
L 3244 1197 
L 1141 1197 
L 716 0 
L 50 0 
L 1831 4666 
z
" transform="scale(0.015625)"/>
      <path id="DejaVuSans-45" d="M 628 4666 
L 3578 4666 
L 3578 4134 
L 1259 4134 
L 1259 2753 
L 3481 2753 
L 3481 2222 
L 1259 2222 
L 1259 531 
L 3634 531 
L 3634 0 
L 628 0 
L 628 4666 
z
" transform="scale(0.015625)"/>
      <path id="DejaVuSans-44" d="M 1259 4147 
L 1259 519 
L 2022 519 
Q 2988 519 3436 956 
Q 3884 1394 3884 2338 
Q 3884 3275 3436 3711 
Q 2988 4147 2022 4147 
L 1259 4147 
z
M 628 4666 
L 1925 4666 
Q 3281 4666 3915 4102 
Q 4550 3538 4550 2338 
Q 4550 1131 3912 565 
Q 3275 0 1925 0 
L 628 0 
L 628 4666 
z
" transform="scale(0.015625)"/>
      <path id="DejaVuSans-73" d="M 2834 3397 
L 2834 2853 
Q 2591 2978 2328 3040 
Q 2066 3103 1784 3103 
Q 1356 3103 1142 2972 
Q 928 2841 928 2578 
Q 928 2378 1081 2264 
Q 1234 2150 1697 2047 
L 1894 2003 
Q 2506 1872 2764 1633 
Q 3022 1394 3022 966 
Q 3022 478 2636 193 
Q 2250 -91 1575 -91 
Q 1294 -91 989 -36 
Q 684 19 347 128 
L 347 722 
Q 666 556 975 473 
Q 1284 391 1588 391 
Q 1994 391 2212 530 
Q 2431 669 2431 922 
Q 2431 1156 2273 1281 
Q 2116 1406 1581 1522 
L 1381 1569 
Q 847 1681 609 1914 
Q 372 2147 372 2553 
Q 372 3047 722 3315 
Q 1072 3584 1716 3584 
Q 2034 3584 2315 3537 
Q 2597 3491 2834 3397 
z
" transform="scale(0.015625)"/>
      <path id="DejaVuSans-69" d="M 603 3500 
L 1178 3500 
L 1178 0 
L 603 0 
L 603 3500 
z
M 603 4863 
L 1178 4863 
L 1178 4134 
L 603 4134 
L 603 4863 
z
" transform="scale(0.015625)"/>
      <path id="DejaVuSans-6e" d="M 3513 2113 
L 3513 0 
L 2938 0 
L 2938 2094 
Q 2938 2591 2744 2837 
Q 2550 3084 2163 3084 
Q 1697 3084 1428 2787 
Q 1159 2491 1159 1978 
L 1159 0 
L 581 0 
L 581 3500 
L 1159 3500 
L 1159 2956 
Q 1366 3272 1645 3428 
Q 1925 3584 2291 3584 
Q 2894 3584 3203 3211 
Q 3513 2838 3513 2113 
z
" transform="scale(0.015625)"/>
      <path id="DejaVuSans-74" d="M 1172 4494 
L 1172 3500 
L 2356 3500 
L 2356 3053 
L 1172 3053 
L 1172 1153 
Q 1172 725 1289 603 
Q 1406 481 1766 481 
L 2356 481 
L 2356 0 
L 1766 0 
Q 1100 0 847 248 
Q 594 497 594 1153 
L 594 3053 
L 172 3053 
L 172 3500 
L 594 3500 
L 594 4494 
L 1172 4494 
z
" transform="scale(0.015625)"/>
      <path id="DejaVuSans-68" d="M 3513 2113 
L 3513 0 
L 2938 0 
L 2938 2094 
Q 2938 2591 2744 2837 
Q 2550 3084 2163 3084 
Q 1697 3084 1428 2787 
Q 1159 2491 1159 1978 
L 1159 0 
L 581 0 
L 581 4863 
L 1159 4863 
L 1159 2956 
Q 1366 3272 1645 3428 
Q 1925 3584 2291 3584 
Q 2894 3584 3203 3211 
Q 3513 2838 3513 2113 
z
" transform="scale(0.015625)"/>
      <path id="DejaVuSans-4f" d="M 2522 4238 
Q 1834 4238 1429 3725 
Q 1025 3213 1025 2328 
Q 1025 1447 1429 934 
Q 1834 422 2522 422 
Q 3209 422 3611 934 
Q 4013 1447 4013 2328 
Q 4013 3213 3611 3725 
Q 3209 4238 2522 4238 
z
M 2522 4750 
Q 3503 4750 4090 4092 
Q 4678 3434 4678 2328 
Q 4678 1225 4090 567 
Q 3503 -91 2522 -91 
Q 1538 -91 948 565 
Q 359 1222 359 2328 
Q 359 3434 948 4092 
Q 1538 4750 2522 4750 
z
" transform="scale(0.015625)"/>
      <path id="DejaVuSans-70" d="M 1159 525 
L 1159 -1331 
L 581 -1331 
L 581 3500 
L 1159 3500 
L 1159 2969 
Q 1341 3281 1617 3432 
Q 1894 3584 2278 3584 
Q 2916 3584 3314 3078 
Q 3713 2572 3713 1747 
Q 3713 922 3314 415 
Q 2916 -91 2278 -91 
Q 1894 -91 1617 61 
Q 1341 213 1159 525 
z
M 3116 1747 
Q 3116 2381 2855 2742 
Q 2594 3103 2138 3103 
Q 1681 3103 1420 2742 
Q 1159 2381 1159 1747 
Q 1159 1113 1420 752 
Q 1681 391 2138 391 
Q 2594 391 2855 752 
Q 3116 1113 3116 1747 
z
" transform="scale(0.015625)"/>
      <path id="DejaVuSans-53" d="M 3425 4513 
L 3425 3897 
Q 3066 4069 2747 4153 
Q 2428 4238 2131 4238 
Q 1616 4238 1336 4038 
Q 1056 3838 1056 3469 
Q 1056 3159 1242 3001 
Q 1428 2844 1947 2747 
L 2328 2669 
Q 3034 2534 3370 2195 
Q 3706 1856 3706 1288 
Q 3706 609 3251 259 
Q 2797 -91 1919 -91 
Q 1588 -91 1214 -16 
Q 841 59 441 206 
L 441 856 
Q 825 641 1194 531 
Q 1563 422 1919 422 
Q 2459 422 2753 634 
Q 3047 847 3047 1241 
Q 3047 1584 2836 1778 
Q 2625 1972 2144 2069 
L 1759 2144 
Q 1053 2284 737 2584 
Q 422 2884 422 3419 
Q 422 4038 858 4394 
Q 1294 4750 2059 4750 
Q 2388 4750 2728 4690 
Q 3069 4631 3425 4513 
z
" transform="scale(0.015625)"/>
      <path id="DejaVuSans-4d" d="M 628 4666 
L 1569 4666 
L 2759 1491 
L 3956 4666 
L 4897 4666 
L 4897 0 
L 4281 0 
L 4281 4097 
L 3078 897 
L 2444 897 
L 1241 4097 
L 1241 0 
L 628 0 
L 628 4666 
z
" transform="scale(0.015625)"/>
      <path id="DejaVuSans-61" d="M 2194 1759 
Q 1497 1759 1228 1600 
Q 959 1441 959 1056 
Q 959 750 1161 570 
Q 1363 391 1709 391 
Q 2188 391 2477 730 
Q 2766 1069 2766 1631 
L 2766 1759 
L 2194 1759 
z
M 3341 1997 
L 3341 0 
L 2766 0 
L 2766 531 
Q 2569 213 2275 61 
Q 1981 -91 1556 -91 
Q 1019 -91 701 211 
Q 384 513 384 1019 
Q 384 1609 779 1909 
Q 1175 2209 1959 2209 
L 2766 2209 
L 2766 2266 
Q 2766 2663 2505 2880 
Q 2244 3097 1772 3097 
Q 1472 3097 1187 3025 
Q 903 2953 641 2809 
L 641 3341 
Q 956 3463 1253 3523 
Q 1550 3584 1831 3584 
Q 2591 3584 2966 3190 
Q 3341 2797 3341 1997 
z
" transform="scale(0.015625)"/>
      <path id="DejaVuSans-64" d="M 2906 2969 
L 2906 4863 
L 3481 4863 
L 3481 0 
L 2906 0 
L 2906 525 
Q 2725 213 2448 61 
Q 2172 -91 1784 -91 
Q 1150 -91 751 415 
Q 353 922 353 1747 
Q 353 2572 751 3078 
Q 1150 3584 1784 3584 
Q 2172 3584 2448 3432 
Q 2725 3281 2906 2969 
z
M 947 1747 
Q 947 1113 1208 752 
Q 1469 391 1925 391 
Q 2381 391 2643 752 
Q 2906 1113 2906 1747 
Q 2906 2381 2643 2742 
Q 2381 3103 1925 3103 
Q 1469 3103 1208 2742 
Q 947 2381 947 1747 
z
" transform="scale(0.015625)"/>
      <path id="DejaVuSans-50" d="M 1259 4147 
L 1259 2394 
L 2053 2394 
Q 2494 2394 2734 2622 
Q 2975 2850 2975 3272 
Q 2975 3691 2734 3919 
Q 2494 4147 2053 4147 
L 1259 4147 
z
M 628 4666 
L 2053 4666 
Q 2838 4666 3239 4311 
Q 3641 3956 3641 3272 
Q 3641 2581 3239 2228 
Q 2838 1875 2053 1875 
L 1259 1875 
L 1259 0 
L 628 0 
L 628 4666 
z
" transform="scale(0.015625)"/>
      <path id="DejaVuSans-6c" d="M 603 4863 
L 1178 4863 
L 1178 0 
L 603 0 
L 603 4863 
z
" transform="scale(0.015625)"/>
      <path id="DejaVuSans-2c" d="M 750 794 
L 1409 794 
L 1409 256 
L 897 -744 
L 494 -744 
L 750 256 
L 750 794 
z
" transform="scale(0.015625)"/>
      <path id="DejaVuSans-79" d="M 2059 -325 
Q 1816 -950 1584 -1140 
Q 1353 -1331 966 -1331 
L 506 -1331 
L 506 -850 
L 844 -850 
Q 1081 -850 1212 -737 
Q 1344 -625 1503 -206 
L 1606 56 
L 191 3500 
L 800 3500 
L 1894 763 
L 2988 3500 
L 3597 3500 
L 2059 -325 
z
" transform="scale(0.015625)"/>
      <path id="DejaVuSans-2e" d="M 684 794 
L 1344 794 
L 1344 0 
L 684 0 
L 684 794 
z
" transform="scale(0.015625)"/>
      <path id="DejaVuSans-3a" d="M 750 794 
L 1409 794 
L 1409 0 
L 750 0 
L 750 794 
z
M 750 3309 
L 1409 3309 
L 1409 2516 
L 750 2516 
L 750 3309 
z
" transform="scale(0.015625)"/>
      <path id="DejaVuSans-2d" d="M 313 2009 
L 1997 2009 
L 1997 1497 
L 313 1497 
L 313 2009 
z
" transform="scale(0.015625)"/>
      <path id="DejaVuSans-35" d="M 691 4666 
L 3169 4666 
L 3169 4134 
L 1269 4134 
L 1269 2991 
Q 1406 3038 1543 3061 
Q 1681 3084 1819 3084 
Q 2600 3084 3056 2656 
Q 3513 2228 3513 1497 
Q 3513 744 3044 326 
Q 2575 -91 1722 -91 
Q 1428 -91 1123 -41 
Q 819 9 494 109 
L 494 744 
Q 775 591 1075 516 
Q 1375 441 1709 441 
Q 2250 441 2565 725 
Q 2881 1009 2881 1497 
Q 2881 1984 2565 2268 
Q 2250 2553 1709 2553 
Q 1456 2553 1204 2497 
Q 953 2441 691 2322 
L 691 4666 
z
" transform="scale(0.015625)"/>
     </defs>
     <use xlink:href="#DejaVuSans-4e"/>
     <use xlink:href="#DejaVuSans-75" x="74.804688"/>
     <use xlink:href="#DejaVuSans-6d" x="138.183594"/>
     <use xlink:href="#DejaVuSans-62" x="235.595703"/>
     <use xlink:href="#DejaVuSans-65" x="299.072266"/>
     <use xlink:href="#DejaVuSans-72" x="360.595703"/>
     <use xlink:href="#DejaVuSans-20" x="401.708984"/>
     <use xlink:href="#DejaVuSans-6f" x="433.496094"/>
     <use xlink:href="#DejaVuSans-66" x="494.677734"/>
     <use xlink:href="#DejaVuSans-20" x="529.882812"/>
     <use xlink:href="#DejaVuSans-41" x="561.669922"/>
     <use xlink:href="#DejaVuSans-45" x="630.078125"/>
     <use xlink:href="#DejaVuSans-44" x="693.261719"/>
     <use xlink:href="#DejaVuSans-73" x="770.263672"/>
     <use xlink:href="#DejaVuSans-20" x="822.363281"/>
     <use xlink:href="#DejaVuSans-69" x="854.150391"/>
     <use xlink:href="#DejaVuSans-6e" x="881.933594"/>
     <use xlink:href="#DejaVuSans-20" x="945.3125"/>
     <use xlink:href="#DejaVuSans-74" x="977.099609"/>
     <use xlink:href="#DejaVuSans-68" x="1016.308594"/>
     <use xlink:href="#DejaVuSans-65" x="1079.6875"/>
     <use xlink:href="#DejaVuSans-20" x="1141.210938"/>
     <use xlink:href="#DejaVuSans-4f" x="1172.998047"/>
     <use xlink:href="#DejaVuSans-70" x="1251.708984"/>
     <use xlink:href="#DejaVuSans-65" x="1315.185547"/>
     <use xlink:href="#DejaVuSans-6e" x="1376.708984"/>
     <use xlink:href="#DejaVuSans-53" x="1440.087891"/>
     <use xlink:href="#DejaVuSans-74" x="1503.564453"/>
     <use xlink:href="#DejaVuSans-72" x="1542.773438"/>
     <use xlink:href="#DejaVuSans-65" x="1581.636719"/>
     <use xlink:href="#DejaVuSans-65" x="1643.160156"/>
     <use xlink:href="#DejaVuSans-74" x="1704.683594"/>
     <use xlink:href="#DejaVuSans-4d" x="1743.892578"/>
     <use xlink:href="#DejaVuSans-61" x="1830.171875"/>
     <use xlink:href="#DejaVuSans-70" x="1891.451172"/>
     <use xlink:href="#DejaVuSans-20" x="1954.927734"/>
     <use xlink:href="#DejaVuSans-64" x="1986.714844"/>
     <use xlink:href="#DejaVuSans-61" x="2050.191406"/>
     <use xlink:href="#DejaVuSans-74" x="2111.470703"/>
     <use xlink:href="#DejaVuSans-61" x="2150.679688"/>
     <use xlink:href="#DejaVuSans-62" x="2211.958984"/>
     <use xlink:href="#DejaVuSans-61" x="2275.435547"/>
     <use xlink:href="#DejaVuSans-73" x="2336.714844"/>
     <use xlink:href="#DejaVuSans-65" x="2388.814453"/>
     <use xlink:href="#DejaVuSans-20" x="2450.337891"/>
     <use xlink:href="#DejaVuSans-69" x="2482.125"/>
     <use xlink:href="#DejaVuSans-6e" x="2509.908203"/>
     <use xlink:href="#DejaVuSans-20" x="2573.287109"/>
     <use xlink:href="#DejaVuSans-50" x="2605.074219"/>
     <use xlink:href="#DejaVuSans-6f" x="2661.751953"/>
     <use xlink:href="#DejaVuSans-6c" x="2722.933594"/>
     <use xlink:href="#DejaVuSans-61" x="2750.716797"/>
     <use xlink:href="#DejaVuSans-6e" x="2811.996094"/>
     <use xlink:href="#DejaVuSans-64" x="2875.375"/>
     <use xlink:href="#DejaVuSans-20" x="2938.851562"/>
     <use xlink:href="#DejaVuSans-66" x="2970.638672"/>
     <use xlink:href="#DejaVuSans-72" x="3005.84375"/>
     <use xlink:href="#DejaVuSans-6f" x="3044.707031"/>
     <use xlink:href="#DejaVuSans-6d" x="3105.888672"/>
     <use xlink:href="#DejaVuSans-20" x="3203.300781"/>
     <use xlink:href="#DejaVuSans-66" x="3235.087891"/>
     <use xlink:href="#DejaVuSans-69" x="3270.292969"/>
     <use xlink:href="#DejaVuSans-72" x="3298.076172"/>
     <use xlink:href="#DejaVuSans-73" x="3339.189453"/>
     <use xlink:href="#DejaVuSans-74" x="3391.289062"/>
     <use xlink:href="#DejaVuSans-20" x="3430.498047"/>
     <use xlink:href="#DejaVuSans-65" x="3462.285156"/>
     <use xlink:href="#DejaVuSans-64" x="3523.808594"/>
     <use xlink:href="#DejaVuSans-69" x="3587.285156"/>
     <use xlink:href="#DejaVuSans-74" x="3615.068359"/>
     <use xlink:href="#DejaVuSans-69" x="3654.277344"/>
     <use xlink:href="#DejaVuSans-6f" x="3682.060547"/>
     <use xlink:href="#DejaVuSans-6e" x="3743.242188"/>
     <use xlink:href="#DejaVuSans-2c" x="3806.621094"/>
     <use xlink:href="#DejaVuSans-20" x="3838.408203"/>
     <use xlink:href="#DejaVuSans-64" x="3870.195312"/>
     <use xlink:href="#DejaVuSans-61" x="3933.671875"/>
     <use xlink:href="#DejaVuSans-79" x="3994.951172"/>
     <use xlink:href="#DejaVuSans-20" x="4054.130859"/>
     <use xlink:href="#DejaVuSans-62" x="4085.917969"/>
     <use xlink:href="#DejaVuSans-79" x="4149.394531"/>
     <use xlink:href="#DejaVuSans-20" x="4208.574219"/>
     <use xlink:href="#DejaVuSans-64" x="4240.361328"/>
     <use xlink:href="#DejaVuSans-61" x="4303.837891"/>
     <use xlink:href="#DejaVuSans-79" x="4365.117188"/>
     <use xlink:href="#DejaVuSans-2e" x="4410.046875"/>
     <use xlink:href="#DejaVuSans-20" x="4441.833984"/>
     <use xlink:href="#DejaVuSans-41" x="4473.621094"/>
     <use xlink:href="#DejaVuSans-73" x="4542.029297"/>
     <use xlink:href="#DejaVuSans-20" x="4594.128906"/>
     <use xlink:href="#DejaVuSans-61" x="4625.916016"/>
     <use xlink:href="#DejaVuSans-74" x="4687.195312"/>
     <use xlink:href="#DejaVuSans-3a" x="4726.404297"/>
     <use xlink:href="#DejaVuSans-20" x="4760.095703"/>
     <use xlink:href="#DejaVuSans-32" x="4791.882812"/>
     <use xlink:href="#DejaVuSans-30" x="4855.505859"/>
     <use xlink:href="#DejaVuSans-32" x="4919.128906"/>
     <use xlink:href="#DejaVuSans-36" x="4982.751953"/>
     <use xlink:href="#DejaVuSans-2d" x="5046.375"/>
     <use xlink:href="#DejaVuSans-30" x="5082.458984"/>
     <use xlink:href="#DejaVuSans-32" x="5146.082031"/>
     <use xlink:href="#DejaVuSans-2d" x="5209.705078"/>
     <use xlink:href="#DejaVuSans-32" x="5245.789062"/>
     <use xlink:href="#DejaVuSans-35" x="5309.412109"/>
    </g>
   </g>
  </g>
 </g>
 <defs>
  <clipPath id="pf025865d59">
   <rect x="144" y="69.12" width="892.8" height="443.52"/>
  </clipPath>
 </defs>
</svg>
