<?xml version="1.0" encoding="utf-8" standalone="no"?>
<!DOCTYPE svg PUBLIC "-//W3C//DTD SVG 1.1//EN"
  "http://www.w3.org/Graphics/SVG/1.1/DTD/svg11.dtd">
<svg xmlns:xlink="http://www.w3.org/1999/xlink" width="1152pt" height="576pt" viewBox="0 0 1152 576" xmlns="http://www.w3.org/2000/svg" version="1.1">
 <metadata>
  <rdf:RDF xmlns:dc="http://purl.org/dc/elements/1.1/" xmlns:cc="http://creativecommons.org/ns#" xmlns:rdf="http://www.w3.org/1999/02/22-rdf-syntax-ns#">
   <cc:Work>
    <dc:type rdf:resource="http://purl.org/dc/dcmitype/StillImage"/>
    <dc:date>1980-01-01T00:00:00+00:00</dc:date>
    <dc:format>image/svg+xml</dc:format>
    <dc:creator>
     <cc:Agent>
      <dc:title>Matplotlib v3.9.1, https://matplotlib.org/</dc:title>
     </cc:Agent>
    </dc:creator>
   </cc:Work>
  </rdf:RDF>
 </metadata>
 <defs>
  <style type="text/css">*{stroke-linejoin: round; stroke-linecap: butt}</style>
 </defs>
 <g id="figure_1">
  <g id="patch_1">
   <path d="M 0 576 
L 1152 576 
L 1152 0 
L 0 0 
z
" style="fill: #ffffff"/>
  </g>
  <g id="axes_1">
   <g id="patch_2">
    <path d="M 144 512.64 
L 1036.8 512.64 
L 1036.8 69.12 
L 144 69.12 
z
" style="fill: #ffffff"/>
   </g>
   <g id="matplotlib.axis_1">
    <g id="xtick_1">
     <g id="line2d_1">
      <defs>
       <path id="m332676ece4" d="M 0 0 
L 0 3.5 
" style="stroke: #000000; stroke-width: 0.8"/>
      </defs>
      <g>
       <use xlink:href="#m332676ece4" x="176.61288" y="512.64" style="stroke: #000000; stroke-width: 0.8"/>
      </g>
     </g>
     <g id="text_1">
      <!-- 2014 -->
      <g transform="translate(163.88788 527.238438) scale(0.1 -0.1)">
       <defs>
        <path id="DejaVuSans-32" d="M 1228 531 
L 3431 531 
L 3431 0 
L 469 0 
L 469 531 
Q 828 903 1448 1529 
Q 2069 2156 2228 2338 
Q 2531 2678 2651 2914 
Q 2772 3150 2772 3378 
Q 2772 3750 2511 3984 
Q 2250 4219 1831 4219 
Q 1534 4219 1204 4116 
Q 875 4013 500 3803 
L 500 4441 
Q 881 4594 1212 4672 
Q 1544 4750 1819 4750 
Q 2544 4750 2975 4387 
Q 3406 4025 3406 3419 
Q 3406 3131 3298 2873 
Q 3191 2616 2906 2266 
Q 2828 2175 2409 1742 
Q 1991 1309 1228 531 
z
" transform="scale(0.015625)"/>
        <path id="DejaVuSans-30" d="M 2034 4250 
Q 1547 4250 1301 3770 
Q 1056 3291 1056 2328 
Q 1056 1369 1301 889 
Q 1547 409 2034 409 
Q 2525 409 2770 889 
Q 3016 1369 3016 2328 
Q 3016 3291 2770 3770 
Q 2525 4250 2034 4250 
z
M 2034 4750 
Q 2819 4750 3233 4129 
Q 3647 3509 3647 2328 
Q 3647 1150 3233 529 
Q 2819 -91 2034 -91 
Q 1250 -91 836 529 
Q 422 1150 422 2328 
Q 422 3509 836 4129 
Q 1250 4750 2034 4750 
z
" transform="scale(0.015625)"/>
        <path id="DejaVuSans-31" d="M 794 531 
L 1825 531 
L 1825 4091 
L 703 3866 
L 703 4441 
L 1819 4666 
L 2450 4666 
L 2450 531 
L 3481 531 
L 3481 0 
L 794 0 
L 794 531 
z
" transform="scale(0.015625)"/>
        <path id="DejaVuSans-34" d="M 2419 4116 
L 825 1625 
L 2419 1625 
L 2419 4116 
z
M 2253 4666 
L 3047 4666 
L 3047 1625 
L 3713 1625 
L 3713 1100 
L 3047 1100 
L 3047 0 
L 2419 0 
L 2419 1100 
L 313 1100 
L 313 1709 
L 2253 4666 
z
" transform="scale(0.015625)"/>
       </defs>
       <use xlink:href="#DejaVuSans-32"/>
       <use xlink:href="#DejaVuSans-30" x="63.623047"/>
       <use xlink:href="#DejaVuSans-31" x="127.246094"/>
       <use xlink:href="#DejaVuSans-34" x="190.869141"/>
      </g>
     </g>
    </g>
    <g id="xtick_2">
     <g id="line2d_2">
      <g>
       <use xlink:href="#m332676ece4" x="322.046003" y="512.64" style="stroke: #000000; stroke-width: 0.8"/>
      </g>
     </g>
     <g id="text_2">
      <!-- 2016 -->
      <g transform="translate(309.321003 527.238438) scale(0.1 -0.1)">
       <defs>
        <path id="DejaVuSans-36" d="M 2113 2584 
Q 1688 2584 1439 2293 
Q 1191 2003 1191 1497 
Q 1191 994 1439 701 
Q 1688 409 2113 409 
Q 2538 409 2786 701 
Q 3034 994 3034 1497 
Q 3034 2003 2786 2293 
Q 2538 2584 2113 2584 
z
M 3366 4563 
L 3366 3988 
Q 3128 4100 2886 4159 
Q 2644 4219 2406 4219 
Q 1781 4219 1451 3797 
Q 1122 3375 1075 2522 
Q 1259 2794 1537 2939 
Q 1816 3084 2150 3084 
Q 2853 3084 3261 2657 
Q 3669 2231 3669 1497 
Q 3669 778 3244 343 
Q 2819 -91 2113 -91 
Q 1303 -91 875 529 
Q 447 1150 447 2328 
Q 447 3434 972 4092 
Q 1497 4750 2381 4750 
Q 2619 4750 2861 4703 
Q 3103 4656 3366 4563 
z
" transform="scale(0.015625)"/>
       </defs>
       <use xlink:href="#DejaVuSans-32"/>
       <use xlink:href="#DejaVuSans-30" x="63.623047"/>
       <use xlink:href="#DejaVuSans-31" x="127.246094"/>
       <use xlink:href="#DejaVuSans-36" x="190.869141"/>
      </g>
     </g>
    </g>
    <g id="xtick_3">
     <g id="line2d_3">
      <g>
       <use xlink:href="#m332676ece4" x="467.678351" y="512.64" style="stroke: #000000; stroke-width: 0.8"/>
      </g>
     </g>
     <g id="text_3">
      <!-- 2018 -->
      <g transform="translate(454.953351 527.238438) scale(0.1 -0.1)">
       <defs>
        <path id="DejaVuSans-38" d="M 2034 2216 
Q 1584 2216 1326 1975 
Q 1069 1734 1069 1313 
Q 1069 891 1326 650 
Q 1584 409 2034 409 
Q 2484 409 2743 651 
Q 3003 894 3003 1313 
Q 3003 1734 2745 1975 
Q 2488 2216 2034 2216 
z
M 1403 2484 
Q 997 2584 770 2862 
Q 544 3141 544 3541 
Q 544 4100 942 4425 
Q 1341 4750 2034 4750 
Q 2731 4750 3128 4425 
Q 3525 4100 3525 3541 
Q 3525 3141 3298 2862 
Q 3072 2584 2669 2484 
Q 3125 2378 3379 2068 
Q 3634 1759 3634 1313 
Q 3634 634 3220 271 
Q 2806 -91 2034 -91 
Q 1263 -91 848 271 
Q 434 634 434 1313 
Q 434 1759 690 2068 
Q 947 2378 1403 2484 
z
M 1172 3481 
Q 1172 3119 1398 2916 
Q 1625 2713 2034 2713 
Q 2441 2713 2670 2916 
Q 2900 3119 2900 3481 
Q 2900 3844 2670 4047 
Q 2441 4250 2034 4250 
Q 1625 4250 1398 4047 
Q 1172 3844 1172 3481 
z
" transform="scale(0.015625)"/>
       </defs>
       <use xlink:href="#DejaVuSans-32"/>
       <use xlink:href="#DejaVuSans-30" x="63.623047"/>
       <use xlink:href="#DejaVuSans-31" x="127.246094"/>
       <use xlink:href="#DejaVuSans-38" x="190.869141"/>
      </g>
     </g>
    </g>
    <g id="xtick_4">
     <g id="line2d_4">
      <g>
       <use xlink:href="#m332676ece4" x="613.111474" y="512.64" style="stroke: #000000; stroke-width: 0.8"/>
      </g>
     </g>
     <g id="text_4">
      <!-- 2020 -->
      <g transform="translate(600.386474 527.238438) scale(0.1 -0.1)">
       <use xlink:href="#DejaVuSans-32"/>
       <use xlink:href="#DejaVuSans-30" x="63.623047"/>
       <use xlink:href="#DejaVuSans-32" x="127.246094"/>
       <use xlink:href="#DejaVuSans-30" x="190.869141"/>
      </g>
     </g>
    </g>
    <g id="xtick_5">
     <g id="line2d_5">
      <g>
       <use xlink:href="#m332676ece4" x="758.743821" y="512.64" style="stroke: #000000; stroke-width: 0.8"/>
      </g>
     </g>
     <g id="text_5">
      <!-- 2022 -->
      <g transform="translate(746.018821 527.238438) scale(0.1 -0.1)">
       <use xlink:href="#DejaVuSans-32"/>
       <use xlink:href="#DejaVuSans-30" x="63.623047"/>
       <use xlink:href="#DejaVuSans-32" x="127.246094"/>
       <use xlink:href="#DejaVuSans-32" x="190.869141"/>
      </g>
     </g>
    </g>
    <g id="xtick_6">
     <g id="line2d_6">
      <g>
       <use xlink:href="#m332676ece4" x="904.176945" y="512.64" style="stroke: #000000; stroke-width: 0.8"/>
      </g>
     </g>
     <g id="text_6">
      <!-- 2024 -->
      <g transform="translate(891.451945 527.238438) scale(0.1 -0.1)">
       <use xlink:href="#DejaVuSans-32"/>
       <use xlink:href="#DejaVuSans-30" x="63.623047"/>
       <use xlink:href="#DejaVuSans-32" x="127.246094"/>
       <use xlink:href="#DejaVuSans-34" x="190.869141"/>
      </g>
     </g>
    </g>
   </g>
   <g id="matplotlib.axis_2">
    <g id="ytick_1">
     <g id="line2d_7">
      <defs>
       <path id="mfb5f75dba1" d="M 0 0 
L -3.5 0 
" style="stroke: #000000; stroke-width: 0.8"/>
      </defs>
      <g>
       <use xlink:href="#mfb5f75dba1" x="144" y="492.516685" style="stroke: #000000; stroke-width: 0.8"/>
      </g>
     </g>
     <g id="text_7">
      <!-- 0 -->
      <g transform="translate(130.6375 496.315903) scale(0.1 -0.1)">
       <use xlink:href="#DejaVuSans-30"/>
      </g>
     </g>
    </g>
    <g id="ytick_2">
     <g id="line2d_8">
      <g>
       <use xlink:href="#mfb5f75dba1" x="144" y="419.147564" style="stroke: #000000; stroke-width: 0.8"/>
      </g>
     </g>
     <g id="text_8">
      <!-- 2000 -->
      <g transform="translate(111.55 422.946783) scale(0.1 -0.1)">
       <use xlink:href="#DejaVuSans-32"/>
       <use xlink:href="#DejaVuSans-30" x="63.623047"/>
       <use xlink:href="#DejaVuSans-30" x="127.246094"/>
       <use xlink:href="#DejaVuSans-30" x="190.869141"/>
      </g>
     </g>
    </g>
    <g id="ytick_3">
     <g id="line2d_9">
      <g>
       <use xlink:href="#mfb5f75dba1" x="144" y="345.778444" style="stroke: #000000; stroke-width: 0.8"/>
      </g>
     </g>
     <g id="text_9">
      <!-- 4000 -->
      <g transform="translate(111.55 349.577663) scale(0.1 -0.1)">
       <use xlink:href="#DejaVuSans-34"/>
       <use xlink:href="#DejaVuSans-30" x="63.623047"/>
       <use xlink:href="#DejaVuSans-30" x="127.246094"/>
       <use xlink:href="#DejaVuSans-30" x="190.869141"/>
      </g>
     </g>
    </g>
    <g id="ytick_4">
     <g id="line2d_10">
      <g>
       <use xlink:href="#mfb5f75dba1" x="144" y="272.409324" style="stroke: #000000; stroke-width: 0.8"/>
      </g>
     </g>
     <g id="text_10">
      <!-- 6000 -->
      <g transform="translate(111.55 276.208543) scale(0.1 -0.1)">
       <use xlink:href="#DejaVuSans-36"/>
       <use xlink:href="#DejaVuSans-30" x="63.623047"/>
       <use xlink:href="#DejaVuSans-30" x="127.246094"/>
       <use xlink:href="#DejaVuSans-30" x="190.869141"/>
      </g>
     </g>
    </g>
    <g id="ytick_5">
     <g id="line2d_11">
      <g>
       <use xlink:href="#mfb5f75dba1" x="144" y="199.040204" style="stroke: #000000; stroke-width: 0.8"/>
      </g>
     </g>
     <g id="text_11">
      <!-- 8000 -->
      <g transform="translate(111.55 202.839423) scale(0.1 -0.1)">
       <use xlink:href="#DejaVuSans-38"/>
       <use xlink:href="#DejaVuSans-30" x="63.623047"/>
       <use xlink:href="#DejaVuSans-30" x="127.246094"/>
       <use xlink:href="#DejaVuSans-30" x="190.869141"/>
      </g>
     </g>
    </g>
    <g id="ytick_6">
     <g id="line2d_12">
      <g>
       <use xlink:href="#mfb5f75dba1" x="144" y="125.671084" style="stroke: #000000; stroke-width: 0.8"/>
      </g>
     </g>
     <g id="text_12">
      <!-- 10000 -->
      <g transform="translate(105.1875 129.470302) scale(0.1 -0.1)">
       <use xlink:href="#DejaVuSans-31"/>
       <use xlink:href="#DejaVuSans-30" x="63.623047"/>
       <use xlink:href="#DejaVuSans-30" x="127.246094"/>
       <use xlink:href="#DejaVuSans-30" x="190.869141"/>
       <use xlink:href="#DejaVuSans-30" x="254.492188"/>
      </g>
     </g>
    </g>
   </g>
   <g id="line2d_13">
    <path d="M 184.581818 492.48 
L 186.374829 492.406631 
L 377.230901 492.113154 
L 456.72106 491.966416 
L 510.909841 491.746309 
L 525.054706 491.636255 
L 558.922694 491.452832 
L 560.516481 491.379463 
L 569.68076 491.26941 
L 612.713027 491.085987 
L 613.310698 491.049302 
L 619.685848 490.975933 
L 620.084295 490.682457 
L 624.267988 490.499034 
L 659.331316 490.352296 
L 663.315785 490.242242 
L 677.659874 490.095504 
L 687.621047 490.022134 
L 701.765912 489.802027 
L 705.551158 489.655289 
L 715.313108 489.435182 
L 718.102236 489.251759 
L 719.895247 489.141705 
L 721.289811 488.958282 
L 728.860303 488.738175 
L 729.059526 488.70149 
L 733.243219 488.554752 
L 739.817593 488.041168 
L 750.177212 487.784376 
L 756.35314 485.950148 
L 756.95081 485.913464 
L 757.747704 485.326511 
L 757.946927 484.409397 
L 758.345374 484.189289 
L 758.544598 484.152605 
L 758.743821 482.90533 
L 759.939162 482.391746 
L 760.337609 481.768108 
L 760.736056 481.511317 
L 760.935279 480.924364 
L 761.134503 479.420297 
L 761.333726 479.053451 
L 761.53295 478.283075 
L 761.732173 477.0358 
L 761.931396 474.908096 
L 762.329843 473.257291 
L 762.529067 472.963814 
L 762.72829 468.048083 
L 762.927514 466.067117 
L 763.126737 465.296741 
L 763.325961 461.628285 
L 763.923631 457.48293 
L 764.122854 457.336191 
L 764.521301 455.245172 
L 764.720525 454.548165 
L 764.919748 449.192219 
L 765.118972 448.71532 
L 765.517419 446.917776 
L 765.716642 446.807723 
L 765.915866 445.890609 
L 766.115089 442.03873 
L 766.314312 441.084931 
L 766.513536 441.011562 
L 766.712759 438.113482 
L 766.911983 437.526529 
L 767.31043 437.343106 
L 768.107324 434.55508 
L 768.505771 433.784704 
L 768.904217 431.546946 
L 769.103441 430.703201 
L 769.302664 426.557846 
L 769.900335 421.935591 
L 770.498005 421.715484 
L 770.896452 421.458692 
L 771.693346 419.91794 
L 772.091793 419.771202 
L 772.49024 416.506276 
L 772.689463 416.469591 
L 773.08791 415.919323 
L 773.287133 414.341887 
L 773.486357 413.864988 
L 773.68558 413.681565 
L 774.084027 412.654397 
L 774.681698 412.360921 
L 774.880921 412.067444 
L 775.478592 409.719632 
L 775.677815 409.572894 
L 776.076262 408.985941 
L 776.873156 408.582411 
L 777.072379 407.04166 
L 777.271603 406.931606 
L 777.470826 406.638129 
L 777.67005 403.66668 
L 778.068496 403.556626 
L 778.466943 402.712881 
L 778.666167 401.97919 
L 779.263837 401.832452 
L 779.861508 400.695231 
L 780.060731 400.658546 
L 780.459178 400.034909 
L 780.857625 399.88817 
L 781.056848 396.513191 
L 782.252189 396.219714 
L 782.650636 395.926238 
L 783.44753 395.816184 
L 783.646753 395.596077 
L 786.037435 394.862386 
L 786.834329 394.275433 
L 787.830446 394.128694 
L 788.228893 393.835218 
L 788.62734 393.68848 
L 790.221127 393.248265 
L 790.619574 393.101527 
L 791.416468 389.983339 
L 792.412585 389.836601 
L 792.611809 389.763232 
L 794.205596 389.579809 
L 794.803267 389.359702 
L 795.00249 388.736064 
L 795.998608 388.662695 
L 796.596278 388.332534 
L 798.588513 387.378735 
L 798.787736 387.121943 
L 799.58463 386.791782 
L 800.580747 386.645044 
L 800.779971 386.388252 
L 801.178417 386.351568 
L 801.377641 385.691246 
L 801.576864 385.617876 
L 801.776088 384.774132 
L 804.166769 384.223863 
L 804.76444 384.077125 
L 804.963663 383.563541 
L 806.358227 383.196695 
L 806.955898 382.976588 
L 807.952015 382.683112 
L 808.151238 382.573058 
L 809.346579 382.352951 
L 810.143473 382.132843 
L 811.538037 381.289098 
L 811.737261 380.555407 
L 812.733378 379.711662 
L 812.932601 379.344817 
L 813.928719 378.464387 
L 814.327166 377.694011 
L 814.526389 377.657327 
L 814.725613 376.923636 
L 815.72173 375.639676 
L 816.3194 375.529622 
L 816.518624 375.199461 
L 816.917071 375.016039 
L 817.116294 374.649193 
L 818.112411 374.355716 
L 818.311635 374.025555 
L 819.706199 373.695394 
L 820.104646 373.511972 
L 820.303869 373.475287 
L 820.503093 373.291864 
L 821.49921 373.145126 
L 822.893774 372.484804 
L 823.491445 372.338066 
L 823.889892 371.494321 
L 824.288338 371.237529 
L 825.284456 370.393784 
L 825.483679 369.550039 
L 826.280573 369.293247 
L 827.475914 368.889717 
L 827.874361 368.26608 
L 828.472031 367.899234 
L 828.671255 367.862549 
L 829.069701 367.275596 
L 829.667372 367.055489 
L 830.065819 366.725328 
L 830.663489 366.431852 
L 830.862713 363.350348 
L 831.261159 360.635691 
L 831.460383 358.324564 
L 831.659606 358.031087 
L 832.4565 355.206376 
L 832.854947 354.472685 
L 833.054171 354.362631 
L 833.253394 354.105839 
L 833.452617 353.592255 
L 833.651841 351.94145 
L 833.851064 351.53792 
L 834.249511 351.391182 
L 834.647958 350.400699 
L 834.847182 350.180591 
L 835.046405 349.4469 
L 835.245629 349.226793 
L 835.644076 348.603155 
L 835.843299 347.612672 
L 836.042522 347.245827 
L 836.440969 346.292028 
L 836.839416 345.705075 
L 837.63631 345.191491 
L 837.835534 344.971384 
L 838.034757 343.760793 
L 838.433204 343.577371 
L 838.831651 343.17384 
L 839.429321 342.330096 
L 839.628545 341.55972 
L 839.827768 341.523035 
L 840.425438 340.789344 
L 840.823885 340.715975 
L 841.023109 340.349129 
L 841.421556 340.092337 
L 841.620779 339.798861 
L 842.417673 336.864096 
L 842.616897 335.360029 
L 842.81612 334.809761 
L 843.812237 333.819278 
L 844.011461 333.745908 
L 844.210684 333.379063 
L 844.609131 331.91168 
L 845.804472 331.251358 
L 846.202919 330.334244 
L 846.402142 330.187506 
L 847.199036 328.573385 
L 847.796706 328.20654 
L 848.5936 327.949748 
L 849.191271 326.592419 
L 849.988164 326.188889 
L 850.785058 325.198406 
L 851.183505 325.125037 
L 851.581952 324.648138 
L 852.179622 324.391346 
L 852.578069 324.317977 
L 852.777293 324.097869 
L 852.976516 323.400863 
L 853.77341 323.144071 
L 853.972634 322.777225 
L 854.171857 322.74054 
L 854.37108 322.043534 
L 854.968751 321.786742 
L 855.566421 321.640004 
L 855.964868 321.236473 
L 856.960985 320.72289 
L 857.359432 320.282675 
L 857.757879 320.025883 
L 858.156326 319.989198 
L 858.35555 318.998715 
L 858.554773 318.741923 
L 859.351667 318.375078 
L 859.949337 317.971548 
L 860.746231 317.824809 
L 860.945455 316.797642 
L 861.543125 316.430796 
L 861.742348 316.174004 
L 862.140795 316.13732 
L 862.738466 315.733789 
L 863.136913 315.66042 
L 863.336136 315.330259 
L 864.13303 315.000098 
L 864.332253 314.596568 
L 864.7307 314.559884 
L 865.129147 314.303092 
L 865.726818 313.972931 
L 865.926041 313.422662 
L 866.722935 313.019132 
L 866.922158 312.688971 
L 867.320605 312.468864 
L 867.519829 312.212072 
L 868.117499 311.881911 
L 868.316722 311.55175 
L 868.515946 311.47838 
L 868.914393 311.184904 
L 869.31284 311.001481 
L 869.512063 310.781374 
L 870.707404 310.341159 
L 870.906627 309.900944 
L 871.105851 309.790891 
L 872.101968 309.534099 
L 872.500415 309.203938 
L 872.898862 309.0572 
L 873.496532 308.873777 
L 873.695756 308.543616 
L 874.094203 308.470247 
L 874.293426 307.809924 
L 874.49265 307.663186 
L 874.891097 307.186287 
L 875.09032 306.049066 
L 875.289543 305.975696 
L 876.285661 305.021898 
L 877.082555 304.288207 
L 877.481001 304.104784 
L 877.680225 303.664569 
L 877.879448 303.5912 
L 878.277895 303.150985 
L 878.676342 302.894193 
L 879.274013 302.674086 
L 879.871683 301.977079 
L 880.27013 301.646918 
L 880.668577 301.206704 
L 881.863918 300.216221 
L 882.860035 299.959429 
L 883.457705 299.189053 
L 883.856152 298.748838 
L 884.453822 298.345308 
L 885.250716 297.978462 
L 885.44994 297.79504 
L 886.246834 297.464879 
L 886.64528 297.098033 
L 887.242951 296.877926 
L 887.840621 296.51108 
L 888.438292 296.254288 
L 888.637515 296.070865 
L 890.828973 295.153751 
L 891.028197 294.786906 
L 892.422761 294.199953 
L 893.020431 293.796423 
L 893.219655 293.759738 
L 893.817325 293.246154 
L 894.614219 293.026047 
L 894.813442 292.512463 
L 895.012666 290.824973 
L 895.411113 290.384758 
L 895.610336 290.348074 
L 896.008783 289.577698 
L 896.40723 289.02743 
L 896.805677 288.697269 
L 897.204124 287.560047 
L 897.602571 287.193202 
L 898.001018 286.93641 
L 898.399464 286.826356 
L 898.598688 286.53288 
L 898.997135 286.312772 
L 899.395582 285.945927 
L 899.794029 285.762504 
L 899.993252 285.65245 
L 900.192476 285.24892 
L 900.590922 285.102182 
L 900.790146 284.661967 
L 901.387816 284.44186 
L 901.786263 283.854907 
L 902.383934 283.378007 
L 902.782381 282.974477 
L 903.380051 282.864424 
L 903.579274 282.534263 
L 904.176945 282.314155 
L 904.575392 280.700035 
L 904.973839 280.333189 
L 906.169179 279.672867 
L 906.368403 279.085914 
L 906.76685 278.865807 
L 906.966073 278.352223 
L 907.165297 278.242169 
L 907.563743 277.728585 
L 907.96219 277.398424 
L 908.360637 277.215001 
L 909.157531 276.591364 
L 909.356755 276.517995 
L 910.352872 275.454142 
L 910.552095 274.977243 
L 910.751319 274.86719 
L 911.149766 274.79382 
L 911.348989 274.316921 
L 911.747436 274.133498 
L 912.145883 273.913391 
L 912.345106 273.253069 
L 913.142 272.77617 
L 913.341224 272.115848 
L 914.138118 271.418841 
L 914.337341 271.382156 
L 914.536564 270.978626 
L 915.333458 270.428358 
L 915.532682 270.061512 
L 915.931129 269.914774 
L 916.130352 269.181083 
L 916.528799 269.071029 
L 916.728022 268.740868 
L 916.927246 268.667499 
L 917.126469 267.897123 
L 917.524916 267.787069 
L 917.923363 267.420224 
L 918.32181 266.833271 
L 918.521034 266.686533 
L 919.317927 265.439258 
L 919.517151 265.365888 
L 919.915598 264.925674 
L 920.712492 264.338721 
L 921.310162 264.045244 
L 923.103173 262.137647 
L 923.50162 261.990909 
L 923.900067 261.550694 
L 924.298514 261.403956 
L 924.497737 260.523527 
L 925.095408 259.863204 
L 925.294631 259.129513 
L 925.693078 258.689299 
L 925.892302 258.285768 
L 926.091525 258.249084 
L 927.486089 256.855071 
L 927.685313 256.818386 
L 927.884536 256.488225 
L 929.079877 256.084695 
L 929.677547 255.277634 
L 930.075994 254.580628 
L 930.474441 254.43389 
L 930.872888 253.95699 
L 931.072111 253.700198 
L 931.271335 253.663514 
L 931.470558 253.223299 
L 932.267452 252.673031 
L 933.064346 252.086078 
L 933.263569 252.049393 
L 934.259687 251.095595 
L 934.857357 250.802118 
L 935.056581 250.435272 
L 935.455027 250.361903 
L 936.052698 249.738266 
L 936.251921 249.408105 
L 936.849592 249.114628 
L 937.447262 248.711098 
L 937.845709 248.56436 
L 938.244156 248.124145 
L 939.240273 247.537192 
L 939.439497 247.2804 
L 939.63872 247.243716 
L 940.037167 247.023608 
L 940.23639 246.87687 
L 940.435614 245.18938 
L 941.431731 244.455689 
L 942.228625 242.988307 
L 942.427848 242.841569 
L 942.627072 242.327985 
L 943.025519 242.144562 
L 943.822413 240.860602 
L 944.22086 239.136428 
L 944.420083 238.549475 
L 944.81853 235.761448 
L 945.017753 234.660912 
L 946.013871 233.340267 
L 946.810764 229.965288 
L 947.009988 229.781865 
L 947.209211 229.268281 
L 947.408435 227.470738 
L 947.607658 226.810416 
L 947.806882 226.737047 
L 948.006105 225.893302 
L 948.603776 225.379718 
L 949.002223 223.985705 
L 949.99834 223.398752 
L 950.197563 223.031906 
L 951.193681 222.408269 
L 951.592127 221.968054 
L 951.791351 221.564524 
L 951.990574 220.537356 
L 952.189798 220.133826 
L 952.588245 219.987088 
L 952.986692 219.803665 
L 953.385139 219.510188 
L 953.783585 219.216712 
L 954.779703 218.776497 
L 955.17815 218.446336 
L 955.576597 218.409652 
L 956.971161 216.978954 
L 957.568831 216.46537 
L 957.967278 216.135209 
L 958.166502 215.805048 
L 958.564948 215.694994 
L 958.764172 215.438202 
L 959.162619 215.254779 
L 959.361842 214.37435 
L 959.959513 213.750712 
L 960.35796 213.640659 
L 961.5533 212.576806 
L 961.752524 212.540122 
L 962.748641 211.733062 
L 962.947865 211.696377 
L 963.147088 211.146109 
L 963.346311 210.962686 
L 963.545535 210.375733 
L 963.943982 210.118941 
L 964.541652 208.614874 
L 964.740876 207.881183 
L 965.338546 207.440968 
L 965.936216 206.597223 
L 966.334663 205.166525 
L 966.533887 204.726311 
L 966.73311 203.955935 
L 966.932334 203.882566 
L 967.131557 203.258928 
L 967.530004 203.002136 
L 967.928451 202.488552 
L 968.127674 202.415183 
L 969.123792 201.094539 
L 969.323015 201.02117 
L 969.522239 200.801063 
L 969.721462 200.287479 
L 970.518356 199.957318 
L 970.717579 199.700526 
L 970.916803 199.663841 
L 971.116026 198.856781 
L 971.514473 198.599989 
L 971.713697 198.086405 
L 971.91292 197.939667 
L 972.311367 197.902982 
L 973.506708 196.949184 
L 974.104378 196.472285 
L 974.502825 195.995385 
L 974.901272 195.591855 
L 975.100495 195.188325 
L 975.299719 194.34458 
L 976.49506 193.647573 
L 976.893506 192.583721 
L 977.291953 192.400298 
L 977.491177 191.85003 
L 977.6904 191.739976 
L 978.487294 190.712809 
L 979.483411 190.052487 
L 980.678752 188.805212 
L 981.276423 187.924782 
L 982.27254 185.246809 
L 983.268657 179.707441 
L 983.467881 179.413964 
L 983.667104 178.863696 
L 983.866327 176.80936 
L 984.065551 172.884112 
L 984.862445 166.941214 
L 985.460115 161.548583 
L 985.858562 156.44943 
L 986.257009 155.679054 
L 986.655456 148.965779 
L 986.854679 147.241605 
L 987.253126 139.72127 
L 987.45235 138.694102 
L 987.651573 138.253888 
L 987.850797 134.512063 
L 988.05002 133.631633 
L 988.448467 129.449593 
L 988.846914 118.187433 
L 989.245361 116.463259 
L 989.444584 113.01491 
L 989.643808 112.648065 
L 990.042255 107.035327 
L 990.241478 106.925273 
L 990.440702 106.521743 
L 990.839148 105.164415 
L 991.038372 104.834253 
L 991.237595 104.210616 
L 991.436819 103.03671 
L 991.835266 102.816603 
L 992.034489 102.22965 
L 992.432936 100.322053 
L 992.831383 96.506858 
L 993.030607 95.699798 
L 993.22983 95.626429 
L 993.429053 95.259583 
L 994.425171 92.068027 
L 994.624394 91.921288 
L 994.823618 91.077543 
L 995.222065 90.710698 
L 995.421288 90.527275 
L 995.620511 89.977007 
L 996.218182 89.28 
L 996.218182 89.28 
" clip-path="url(#pe81f6fdc17)" style="fill: none; stroke: #1f77b4; stroke-width: 1.5; stroke-linecap: square"/>
   </g>
   <g id="patch_3">
    <path d="M 144 512.64 
L 144 69.12 
" style="fill: none; stroke: #000000; stroke-width: 0.8; stroke-linejoin: miter; stroke-linecap: square"/>
   </g>
   <g id="patch_4">
    <path d="M 1036.8 512.64 
L 1036.8 69.12 
" style="fill: none; stroke: #000000; stroke-width: 0.8; stroke-linejoin: miter; stroke-linecap: square"/>
   </g>
   <g id="patch_5">
    <path d="M 144 512.64 
L 1036.8 512.64 
" style="fill: none; stroke: #000000; stroke-width: 0.8; stroke-linejoin: miter; stroke-linecap: square"/>
   </g>
   <g id="patch_6">
    <path d="M 144 69.12 
L 1036.8 69.12 
" style="fill: none; stroke: #000000; stroke-width: 0.8; stroke-linejoin: miter; stroke-linecap: square"/>
   </g>
   <g id="text_13">
    <!-- Number of AEDs in the OpenStreetMap database in Poland from first edition, day by day. As at: 2025-04-07 -->
    <g transform="translate(144 63.12) scale(0.14 -0.14)">
     <defs>
      <path id="DejaVuSans-4e" d="M 628 4666 
L 1478 4666 
L 3547 763 
L 3547 4666 
L 4159 4666 
L 4159 0 
L 3309 0 
L 1241 3903 
L 1241 0 
L 628 0 
L 628 4666 
z
" transform="scale(0.015625)"/>
      <path id="DejaVuSans-75" d="M 544 1381 
L 544 3500 
L 1119 3500 
L 1119 1403 
Q 1119 906 1312 657 
Q 1506 409 1894 409 
Q 2359 409 2629 706 
Q 2900 1003 2900 1516 
L 2900 3500 
L 3475 3500 
L 3475 0 
L 2900 0 
L 2900 538 
Q 2691 219 2414 64 
Q 2138 -91 1772 -91 
Q 1169 -91 856 284 
Q 544 659 544 1381 
z
M 1991 3584 
L 1991 3584 
z
" transform="scale(0.015625)"/>
      <path id="DejaVuSans-6d" d="M 3328 2828 
Q 3544 3216 3844 3400 
Q 4144 3584 4550 3584 
Q 5097 3584 5394 3201 
Q 5691 2819 5691 2113 
L 5691 0 
L 5113 0 
L 5113 2094 
Q 5113 2597 4934 2840 
Q 4756 3084 4391 3084 
Q 3944 3084 3684 2787 
Q 3425 2491 3425 1978 
L 3425 0 
L 2847 0 
L 2847 2094 
Q 2847 2600 2669 2842 
Q 2491 3084 2119 3084 
Q 1678 3084 1418 2786 
Q 1159 2488 1159 1978 
L 1159 0 
L 581 0 
L 581 3500 
L 1159 3500 
L 1159 2956 
Q 1356 3278 1631 3431 
Q 1906 3584 2284 3584 
Q 2666 3584 2933 3390 
Q 3200 3197 3328 2828 
z
" transform="scale(0.015625)"/>
      <path id="DejaVuSans-62" d="M 3116 1747 
Q 3116 2381 2855 2742 
Q 2594 3103 2138 3103 
Q 1681 3103 1420 2742 
Q 1159 2381 1159 1747 
Q 1159 1113 1420 752 
Q 1681 391 2138 391 
Q 2594 391 2855 752 
Q 3116 1113 3116 1747 
z
M 1159 2969 
Q 1341 3281 1617 3432 
Q 1894 3584 2278 3584 
Q 2916 3584 3314 3078 
Q 3713 2572 3713 1747 
Q 3713 922 3314 415 
Q 2916 -91 2278 -91 
Q 1894 -91 1617 61 
Q 1341 213 1159 525 
L 1159 0 
L 581 0 
L 581 4863 
L 1159 4863 
L 1159 2969 
z
" transform="scale(0.015625)"/>
      <path id="DejaVuSans-65" d="M 3597 1894 
L 3597 1613 
L 953 1613 
Q 991 1019 1311 708 
Q 1631 397 2203 397 
Q 2534 397 2845 478 
Q 3156 559 3463 722 
L 3463 178 
Q 3153 47 2828 -22 
Q 2503 -91 2169 -91 
Q 1331 -91 842 396 
Q 353 884 353 1716 
Q 353 2575 817 3079 
Q 1281 3584 2069 3584 
Q 2775 3584 3186 3129 
Q 3597 2675 3597 1894 
z
M 3022 2063 
Q 3016 2534 2758 2815 
Q 2500 3097 2075 3097 
Q 1594 3097 1305 2825 
Q 1016 2553 972 2059 
L 3022 2063 
z
" transform="scale(0.015625)"/>
      <path id="DejaVuSans-72" d="M 2631 2963 
Q 2534 3019 2420 3045 
Q 2306 3072 2169 3072 
Q 1681 3072 1420 2755 
Q 1159 2438 1159 1844 
L 1159 0 
L 581 0 
L 581 3500 
L 1159 3500 
L 1159 2956 
Q 1341 3275 1631 3429 
Q 1922 3584 2338 3584 
Q 2397 3584 2469 3576 
Q 2541 3569 2628 3553 
L 2631 2963 
z
" transform="scale(0.015625)"/>
      <path id="DejaVuSans-20" transform="scale(0.015625)"/>
      <path id="DejaVuSans-6f" d="M 1959 3097 
Q 1497 3097 1228 2736 
Q 959 2375 959 1747 
Q 959 1119 1226 758 
Q 1494 397 1959 397 
Q 2419 397 2687 759 
Q 2956 1122 2956 1747 
Q 2956 2369 2687 2733 
Q 2419 3097 1959 3097 
z
M 1959 3584 
Q 2709 3584 3137 3096 
Q 3566 2609 3566 1747 
Q 3566 888 3137 398 
Q 2709 -91 1959 -91 
Q 1206 -91 779 398 
Q 353 888 353 1747 
Q 353 2609 779 3096 
Q 1206 3584 1959 3584 
z
" transform="scale(0.015625)"/>
      <path id="DejaVuSans-66" d="M 2375 4863 
L 2375 4384 
L 1825 4384 
Q 1516 4384 1395 4259 
Q 1275 4134 1275 3809 
L 1275 3500 
L 2222 3500 
L 2222 3053 
L 1275 3053 
L 1275 0 
L 697 0 
L 697 3053 
L 147 3053 
L 147 3500 
L 697 3500 
L 697 3744 
Q 697 4328 969 4595 
Q 1241 4863 1831 4863 
L 2375 4863 
z
" transform="scale(0.015625)"/>
      <path id="DejaVuSans-41" d="M 2188 4044 
L 1331 1722 
L 3047 1722 
L 2188 4044 
z
M 1831 4666 
L 2547 4666 
L 4325 0 
L 3669 0 
L 3244 1197 
L 1141 1197 
L 716 0 
L 50 0 
L 1831 4666 
z
" transform="scale(0.015625)"/>
      <path id="DejaVuSans-45" d="M 628 4666 
L 3578 4666 
L 3578 4134 
L 1259 4134 
L 1259 2753 
L 3481 2753 
L 3481 2222 
L 1259 2222 
L 1259 531 
L 3634 531 
L 3634 0 
L 628 0 
L 628 4666 
z
" transform="scale(0.015625)"/>
      <path id="DejaVuSans-44" d="M 1259 4147 
L 1259 519 
L 2022 519 
Q 2988 519 3436 956 
Q 3884 1394 3884 2338 
Q 3884 3275 3436 3711 
Q 2988 4147 2022 4147 
L 1259 4147 
z
M 628 4666 
L 1925 4666 
Q 3281 4666 3915 4102 
Q 4550 3538 4550 2338 
Q 4550 1131 3912 565 
Q 3275 0 1925 0 
L 628 0 
L 628 4666 
z
" transform="scale(0.015625)"/>
      <path id="DejaVuSans-73" d="M 2834 3397 
L 2834 2853 
Q 2591 2978 2328 3040 
Q 2066 3103 1784 3103 
Q 1356 3103 1142 2972 
Q 928 2841 928 2578 
Q 928 2378 1081 2264 
Q 1234 2150 1697 2047 
L 1894 2003 
Q 2506 1872 2764 1633 
Q 3022 1394 3022 966 
Q 3022 478 2636 193 
Q 2250 -91 1575 -91 
Q 1294 -91 989 -36 
Q 684 19 347 128 
L 347 722 
Q 666 556 975 473 
Q 1284 391 1588 391 
Q 1994 391 2212 530 
Q 2431 669 2431 922 
Q 2431 1156 2273 1281 
Q 2116 1406 1581 1522 
L 1381 1569 
Q 847 1681 609 1914 
Q 372 2147 372 2553 
Q 372 3047 722 3315 
Q 1072 3584 1716 3584 
Q 2034 3584 2315 3537 
Q 2597 3491 2834 3397 
z
" transform="scale(0.015625)"/>
      <path id="DejaVuSans-69" d="M 603 3500 
L 1178 3500 
L 1178 0 
L 603 0 
L 603 3500 
z
M 603 4863 
L 1178 4863 
L 1178 4134 
L 603 4134 
L 603 4863 
z
" transform="scale(0.015625)"/>
      <path id="DejaVuSans-6e" d="M 3513 2113 
L 3513 0 
L 2938 0 
L 2938 2094 
Q 2938 2591 2744 2837 
Q 2550 3084 2163 3084 
Q 1697 3084 1428 2787 
Q 1159 2491 1159 1978 
L 1159 0 
L 581 0 
L 581 3500 
L 1159 3500 
L 1159 2956 
Q 1366 3272 1645 3428 
Q 1925 3584 2291 3584 
Q 2894 3584 3203 3211 
Q 3513 2838 3513 2113 
z
" transform="scale(0.015625)"/>
      <path id="DejaVuSans-74" d="M 1172 4494 
L 1172 3500 
L 2356 3500 
L 2356 3053 
L 1172 3053 
L 1172 1153 
Q 1172 725 1289 603 
Q 1406 481 1766 481 
L 2356 481 
L 2356 0 
L 1766 0 
Q 1100 0 847 248 
Q 594 497 594 1153 
L 594 3053 
L 172 3053 
L 172 3500 
L 594 3500 
L 594 4494 
L 1172 4494 
z
" transform="scale(0.015625)"/>
      <path id="DejaVuSans-68" d="M 3513 2113 
L 3513 0 
L 2938 0 
L 2938 2094 
Q 2938 2591 2744 2837 
Q 2550 3084 2163 3084 
Q 1697 3084 1428 2787 
Q 1159 2491 1159 1978 
L 1159 0 
L 581 0 
L 581 4863 
L 1159 4863 
L 1159 2956 
Q 1366 3272 1645 3428 
Q 1925 3584 2291 3584 
Q 2894 3584 3203 3211 
Q 3513 2838 3513 2113 
z
" transform="scale(0.015625)"/>
      <path id="DejaVuSans-4f" d="M 2522 4238 
Q 1834 4238 1429 3725 
Q 1025 3213 1025 2328 
Q 1025 1447 1429 934 
Q 1834 422 2522 422 
Q 3209 422 3611 934 
Q 4013 1447 4013 2328 
Q 4013 3213 3611 3725 
Q 3209 4238 2522 4238 
z
M 2522 4750 
Q 3503 4750 4090 4092 
Q 4678 3434 4678 2328 
Q 4678 1225 4090 567 
Q 3503 -91 2522 -91 
Q 1538 -91 948 565 
Q 359 1222 359 2328 
Q 359 3434 948 4092 
Q 1538 4750 2522 4750 
z
" transform="scale(0.015625)"/>
      <path id="DejaVuSans-70" d="M 1159 525 
L 1159 -1331 
L 581 -1331 
L 581 3500 
L 1159 3500 
L 1159 2969 
Q 1341 3281 1617 3432 
Q 1894 3584 2278 3584 
Q 2916 3584 3314 3078 
Q 3713 2572 3713 1747 
Q 3713 922 3314 415 
Q 2916 -91 2278 -91 
Q 1894 -91 1617 61 
Q 1341 213 1159 525 
z
M 3116 1747 
Q 3116 2381 2855 2742 
Q 2594 3103 2138 3103 
Q 1681 3103 1420 2742 
Q 1159 2381 1159 1747 
Q 1159 1113 1420 752 
Q 1681 391 2138 391 
Q 2594 391 2855 752 
Q 3116 1113 3116 1747 
z
" transform="scale(0.015625)"/>
      <path id="DejaVuSans-53" d="M 3425 4513 
L 3425 3897 
Q 3066 4069 2747 4153 
Q 2428 4238 2131 4238 
Q 1616 4238 1336 4038 
Q 1056 3838 1056 3469 
Q 1056 3159 1242 3001 
Q 1428 2844 1947 2747 
L 2328 2669 
Q 3034 2534 3370 2195 
Q 3706 1856 3706 1288 
Q 3706 609 3251 259 
Q 2797 -91 1919 -91 
Q 1588 -91 1214 -16 
Q 841 59 441 206 
L 441 856 
Q 825 641 1194 531 
Q 1563 422 1919 422 
Q 2459 422 2753 634 
Q 3047 847 3047 1241 
Q 3047 1584 2836 1778 
Q 2625 1972 2144 2069 
L 1759 2144 
Q 1053 2284 737 2584 
Q 422 2884 422 3419 
Q 422 4038 858 4394 
Q 1294 4750 2059 4750 
Q 2388 4750 2728 4690 
Q 3069 4631 3425 4513 
z
" transform="scale(0.015625)"/>
      <path id="DejaVuSans-4d" d="M 628 4666 
L 1569 4666 
L 2759 1491 
L 3956 4666 
L 4897 4666 
L 4897 0 
L 4281 0 
L 4281 4097 
L 3078 897 
L 2444 897 
L 1241 4097 
L 1241 0 
L 628 0 
L 628 4666 
z
" transform="scale(0.015625)"/>
      <path id="DejaVuSans-61" d="M 2194 1759 
Q 1497 1759 1228 1600 
Q 959 1441 959 1056 
Q 959 750 1161 570 
Q 1363 391 1709 391 
Q 2188 391 2477 730 
Q 2766 1069 2766 1631 
L 2766 1759 
L 2194 1759 
z
M 3341 1997 
L 3341 0 
L 2766 0 
L 2766 531 
Q 2569 213 2275 61 
Q 1981 -91 1556 -91 
Q 1019 -91 701 211 
Q 384 513 384 1019 
Q 384 1609 779 1909 
Q 1175 2209 1959 2209 
L 2766 2209 
L 2766 2266 
Q 2766 2663 2505 2880 
Q 2244 3097 1772 3097 
Q 1472 3097 1187 3025 
Q 903 2953 641 2809 
L 641 3341 
Q 956 3463 1253 3523 
Q 1550 3584 1831 3584 
Q 2591 3584 2966 3190 
Q 3341 2797 3341 1997 
z
" transform="scale(0.015625)"/>
      <path id="DejaVuSans-64" d="M 2906 2969 
L 2906 4863 
L 3481 4863 
L 3481 0 
L 2906 0 
L 2906 525 
Q 2725 213 2448 61 
Q 2172 -91 1784 -91 
Q 1150 -91 751 415 
Q 353 922 353 1747 
Q 353 2572 751 3078 
Q 1150 3584 1784 3584 
Q 2172 3584 2448 3432 
Q 2725 3281 2906 2969 
z
M 947 1747 
Q 947 1113 1208 752 
Q 1469 391 1925 391 
Q 2381 391 2643 752 
Q 2906 1113 2906 1747 
Q 2906 2381 2643 2742 
Q 2381 3103 1925 3103 
Q 1469 3103 1208 2742 
Q 947 2381 947 1747 
z
" transform="scale(0.015625)"/>
      <path id="DejaVuSans-50" d="M 1259 4147 
L 1259 2394 
L 2053 2394 
Q 2494 2394 2734 2622 
Q 2975 2850 2975 3272 
Q 2975 3691 2734 3919 
Q 2494 4147 2053 4147 
L 1259 4147 
z
M 628 4666 
L 2053 4666 
Q 2838 4666 3239 4311 
Q 3641 3956 3641 3272 
Q 3641 2581 3239 2228 
Q 2838 1875 2053 1875 
L 1259 1875 
L 1259 0 
L 628 0 
L 628 4666 
z
" transform="scale(0.015625)"/>
      <path id="DejaVuSans-6c" d="M 603 4863 
L 1178 4863 
L 1178 0 
L 603 0 
L 603 4863 
z
" transform="scale(0.015625)"/>
      <path id="DejaVuSans-2c" d="M 750 794 
L 1409 794 
L 1409 256 
L 897 -744 
L 494 -744 
L 750 256 
L 750 794 
z
" transform="scale(0.015625)"/>
      <path id="DejaVuSans-79" d="M 2059 -325 
Q 1816 -950 1584 -1140 
Q 1353 -1331 966 -1331 
L 506 -1331 
L 506 -850 
L 844 -850 
Q 1081 -850 1212 -737 
Q 1344 -625 1503 -206 
L 1606 56 
L 191 3500 
L 800 3500 
L 1894 763 
L 2988 3500 
L 3597 3500 
L 2059 -325 
z
" transform="scale(0.015625)"/>
      <path id="DejaVuSans-2e" d="M 684 794 
L 1344 794 
L 1344 0 
L 684 0 
L 684 794 
z
" transform="scale(0.015625)"/>
      <path id="DejaVuSans-3a" d="M 750 794 
L 1409 794 
L 1409 0 
L 750 0 
L 750 794 
z
M 750 3309 
L 1409 3309 
L 1409 2516 
L 750 2516 
L 750 3309 
z
" transform="scale(0.015625)"/>
      <path id="DejaVuSans-35" d="M 691 4666 
L 3169 4666 
L 3169 4134 
L 1269 4134 
L 1269 2991 
Q 1406 3038 1543 3061 
Q 1681 3084 1819 3084 
Q 2600 3084 3056 2656 
Q 3513 2228 3513 1497 
Q 3513 744 3044 326 
Q 2575 -91 1722 -91 
Q 1428 -91 1123 -41 
Q 819 9 494 109 
L 494 744 
Q 775 591 1075 516 
Q 1375 441 1709 441 
Q 2250 441 2565 725 
Q 2881 1009 2881 1497 
Q 2881 1984 2565 2268 
Q 2250 2553 1709 2553 
Q 1456 2553 1204 2497 
Q 953 2441 691 2322 
L 691 4666 
z
" transform="scale(0.015625)"/>
      <path id="DejaVuSans-2d" d="M 313 2009 
L 1997 2009 
L 1997 1497 
L 313 1497 
L 313 2009 
z
" transform="scale(0.015625)"/>
      <path id="DejaVuSans-37" d="M 525 4666 
L 3525 4666 
L 3525 4397 
L 1831 0 
L 1172 0 
L 2766 4134 
L 525 4134 
L 525 4666 
z
" transform="scale(0.015625)"/>
     </defs>
     <use xlink:href="#DejaVuSans-4e"/>
     <use xlink:href="#DejaVuSans-75" x="74.804688"/>
     <use xlink:href="#DejaVuSans-6d" x="138.183594"/>
     <use xlink:href="#DejaVuSans-62" x="235.595703"/>
     <use xlink:href="#DejaVuSans-65" x="299.072266"/>
     <use xlink:href="#DejaVuSans-72" x="360.595703"/>
     <use xlink:href="#DejaVuSans-20" x="401.708984"/>
     <use xlink:href="#DejaVuSans-6f" x="433.496094"/>
     <use xlink:href="#DejaVuSans-66" x="494.677734"/>
     <use xlink:href="#DejaVuSans-20" x="529.882812"/>
     <use xlink:href="#DejaVuSans-41" x="561.669922"/>
     <use xlink:href="#DejaVuSans-45" x="630.078125"/>
     <use xlink:href="#DejaVuSans-44" x="693.261719"/>
     <use xlink:href="#DejaVuSans-73" x="770.263672"/>
     <use xlink:href="#DejaVuSans-20" x="822.363281"/>
     <use xlink:href="#DejaVuSans-69" x="854.150391"/>
     <use xlink:href="#DejaVuSans-6e" x="881.933594"/>
     <use xlink:href="#DejaVuSans-20" x="945.3125"/>
     <use xlink:href="#DejaVuSans-74" x="977.099609"/>
     <use xlink:href="#DejaVuSans-68" x="1016.308594"/>
     <use xlink:href="#DejaVuSans-65" x="1079.6875"/>
     <use xlink:href="#DejaVuSans-20" x="1141.210938"/>
     <use xlink:href="#DejaVuSans-4f" x="1172.998047"/>
     <use xlink:href="#DejaVuSans-70" x="1251.708984"/>
     <use xlink:href="#DejaVuSans-65" x="1315.185547"/>
     <use xlink:href="#DejaVuSans-6e" x="1376.708984"/>
     <use xlink:href="#DejaVuSans-53" x="1440.087891"/>
     <use xlink:href="#DejaVuSans-74" x="1503.564453"/>
     <use xlink:href="#DejaVuSans-72" x="1542.773438"/>
     <use xlink:href="#DejaVuSans-65" x="1581.636719"/>
     <use xlink:href="#DejaVuSans-65" x="1643.160156"/>
     <use xlink:href="#DejaVuSans-74" x="1704.683594"/>
     <use xlink:href="#DejaVuSans-4d" x="1743.892578"/>
     <use xlink:href="#DejaVuSans-61" x="1830.171875"/>
     <use xlink:href="#DejaVuSans-70" x="1891.451172"/>
     <use xlink:href="#DejaVuSans-20" x="1954.927734"/>
     <use xlink:href="#DejaVuSans-64" x="1986.714844"/>
     <use xlink:href="#DejaVuSans-61" x="2050.191406"/>
     <use xlink:href="#DejaVuSans-74" x="2111.470703"/>
     <use xlink:href="#DejaVuSans-61" x="2150.679688"/>
     <use xlink:href="#DejaVuSans-62" x="2211.958984"/>
     <use xlink:href="#DejaVuSans-61" x="2275.435547"/>
     <use xlink:href="#DejaVuSans-73" x="2336.714844"/>
     <use xlink:href="#DejaVuSans-65" x="2388.814453"/>
     <use xlink:href="#DejaVuSans-20" x="2450.337891"/>
     <use xlink:href="#DejaVuSans-69" x="2482.125"/>
     <use xlink:href="#DejaVuSans-6e" x="2509.908203"/>
     <use xlink:href="#DejaVuSans-20" x="2573.287109"/>
     <use xlink:href="#DejaVuSans-50" x="2605.074219"/>
     <use xlink:href="#DejaVuSans-6f" x="2661.751953"/>
     <use xlink:href="#DejaVuSans-6c" x="2722.933594"/>
     <use xlink:href="#DejaVuSans-61" x="2750.716797"/>
     <use xlink:href="#DejaVuSans-6e" x="2811.996094"/>
     <use xlink:href="#DejaVuSans-64" x="2875.375"/>
     <use xlink:href="#DejaVuSans-20" x="2938.851562"/>
     <use xlink:href="#DejaVuSans-66" x="2970.638672"/>
     <use xlink:href="#DejaVuSans-72" x="3005.84375"/>
     <use xlink:href="#DejaVuSans-6f" x="3044.707031"/>
     <use xlink:href="#DejaVuSans-6d" x="3105.888672"/>
     <use xlink:href="#DejaVuSans-20" x="3203.300781"/>
     <use xlink:href="#DejaVuSans-66" x="3235.087891"/>
     <use xlink:href="#DejaVuSans-69" x="3270.292969"/>
     <use xlink:href="#DejaVuSans-72" x="3298.076172"/>
     <use xlink:href="#DejaVuSans-73" x="3339.189453"/>
     <use xlink:href="#DejaVuSans-74" x="3391.289062"/>
     <use xlink:href="#DejaVuSans-20" x="3430.498047"/>
     <use xlink:href="#DejaVuSans-65" x="3462.285156"/>
     <use xlink:href="#DejaVuSans-64" x="3523.808594"/>
     <use xlink:href="#DejaVuSans-69" x="3587.285156"/>
     <use xlink:href="#DejaVuSans-74" x="3615.068359"/>
     <use xlink:href="#DejaVuSans-69" x="3654.277344"/>
     <use xlink:href="#DejaVuSans-6f" x="3682.060547"/>
     <use xlink:href="#DejaVuSans-6e" x="3743.242188"/>
     <use xlink:href="#DejaVuSans-2c" x="3806.621094"/>
     <use xlink:href="#DejaVuSans-20" x="3838.408203"/>
     <use xlink:href="#DejaVuSans-64" x="3870.195312"/>
     <use xlink:href="#DejaVuSans-61" x="3933.671875"/>
     <use xlink:href="#DejaVuSans-79" x="3994.951172"/>
     <use xlink:href="#DejaVuSans-20" x="4054.130859"/>
     <use xlink:href="#DejaVuSans-62" x="4085.917969"/>
     <use xlink:href="#DejaVuSans-79" x="4149.394531"/>
     <use xlink:href="#DejaVuSans-20" x="4208.574219"/>
     <use xlink:href="#DejaVuSans-64" x="4240.361328"/>
     <use xlink:href="#DejaVuSans-61" x="4303.837891"/>
     <use xlink:href="#DejaVuSans-79" x="4365.117188"/>
     <use xlink:href="#DejaVuSans-2e" x="4410.046875"/>
     <use xlink:href="#DejaVuSans-20" x="4441.833984"/>
     <use xlink:href="#DejaVuSans-41" x="4473.621094"/>
     <use xlink:href="#DejaVuSans-73" x="4542.029297"/>
     <use xlink:href="#DejaVuSans-20" x="4594.128906"/>
     <use xlink:href="#DejaVuSans-61" x="4625.916016"/>
     <use xlink:href="#DejaVuSans-74" x="4687.195312"/>
     <use xlink:href="#DejaVuSans-3a" x="4726.404297"/>
     <use xlink:href="#DejaVuSans-20" x="4760.095703"/>
     <use xlink:href="#DejaVuSans-32" x="4791.882812"/>
     <use xlink:href="#DejaVuSans-30" x="4855.505859"/>
     <use xlink:href="#DejaVuSans-32" x="4919.128906"/>
     <use xlink:href="#DejaVuSans-35" x="4982.751953"/>
     <use xlink:href="#DejaVuSans-2d" x="5046.375"/>
     <use xlink:href="#DejaVuSans-30" x="5082.458984"/>
     <use xlink:href="#DejaVuSans-34" x="5146.082031"/>
     <use xlink:href="#DejaVuSans-2d" x="5209.705078"/>
     <use xlink:href="#DejaVuSans-30" x="5245.789062"/>
     <use xlink:href="#DejaVuSans-37" x="5309.412109"/>
    </g>
   </g>
  </g>
 </g>
 <defs>
  <clipPath id="pe81f6fdc17">
   <rect x="144" y="69.12" width="892.8" height="443.52"/>
  </clipPath>
 </defs>
</svg>
