<?xml version="1.0" encoding="utf-8" standalone="no"?>
<!DOCTYPE svg PUBLIC "-//W3C//DTD SVG 1.1//EN"
  "http://www.w3.org/Graphics/SVG/1.1/DTD/svg11.dtd">
<svg xmlns:xlink="http://www.w3.org/1999/xlink" width="1152pt" height="576pt" viewBox="0 0 1152 576" xmlns="http://www.w3.org/2000/svg" version="1.1">
 <metadata>
  <rdf:RDF xmlns:dc="http://purl.org/dc/elements/1.1/" xmlns:cc="http://creativecommons.org/ns#" xmlns:rdf="http://www.w3.org/1999/02/22-rdf-syntax-ns#">
   <cc:Work>
    <dc:type rdf:resource="http://purl.org/dc/dcmitype/StillImage"/>
    <dc:date>1980-01-01T00:00:00+00:00</dc:date>
    <dc:format>image/svg+xml</dc:format>
    <dc:creator>
     <cc:Agent>
      <dc:title>Matplotlib v3.9.1, https://matplotlib.org/</dc:title>
     </cc:Agent>
    </dc:creator>
   </cc:Work>
  </rdf:RDF>
 </metadata>
 <defs>
  <style type="text/css">*{stroke-linejoin: round; stroke-linecap: butt}</style>
 </defs>
 <g id="figure_1">
  <g id="patch_1">
   <path d="M 0 576 
L 1152 576 
L 1152 0 
L 0 0 
z
" style="fill: #ffffff"/>
  </g>
  <g id="axes_1">
   <g id="patch_2">
    <path d="M 144 512.64 
L 1036.8 512.64 
L 1036.8 69.12 
L 144 69.12 
z
" style="fill: #ffffff"/>
   </g>
   <g id="matplotlib.axis_1">
    <g id="xtick_1">
     <g id="line2d_1">
      <defs>
       <path id="m8e920ac777" d="M 0 0 
L 0 3.5 
" style="stroke: #000000; stroke-width: 0.8"/>
      </defs>
      <g>
       <use xlink:href="#m8e920ac777" x="177.033468" y="512.64" style="stroke: #000000; stroke-width: 0.8"/>
      </g>
     </g>
     <g id="text_1">
      <!-- 2014 -->
      <g transform="translate(164.308468 527.238438) scale(0.1 -0.1)">
       <defs>
        <path id="DejaVuSans-32" d="M 1228 531 
L 3431 531 
L 3431 0 
L 469 0 
L 469 531 
Q 828 903 1448 1529 
Q 2069 2156 2228 2338 
Q 2531 2678 2651 2914 
Q 2772 3150 2772 3378 
Q 2772 3750 2511 3984 
Q 2250 4219 1831 4219 
Q 1534 4219 1204 4116 
Q 875 4013 500 3803 
L 500 4441 
Q 881 4594 1212 4672 
Q 1544 4750 1819 4750 
Q 2544 4750 2975 4387 
Q 3406 4025 3406 3419 
Q 3406 3131 3298 2873 
Q 3191 2616 2906 2266 
Q 2828 2175 2409 1742 
Q 1991 1309 1228 531 
z
" transform="scale(0.015625)"/>
        <path id="DejaVuSans-30" d="M 2034 4250 
Q 1547 4250 1301 3770 
Q 1056 3291 1056 2328 
Q 1056 1369 1301 889 
Q 1547 409 2034 409 
Q 2525 409 2770 889 
Q 3016 1369 3016 2328 
Q 3016 3291 2770 3770 
Q 2525 4250 2034 4250 
z
M 2034 4750 
Q 2819 4750 3233 4129 
Q 3647 3509 3647 2328 
Q 3647 1150 3233 529 
Q 2819 -91 2034 -91 
Q 1250 -91 836 529 
Q 422 1150 422 2328 
Q 422 3509 836 4129 
Q 1250 4750 2034 4750 
z
" transform="scale(0.015625)"/>
        <path id="DejaVuSans-31" d="M 794 531 
L 1825 531 
L 1825 4091 
L 703 3866 
L 703 4441 
L 1819 4666 
L 2450 4666 
L 2450 531 
L 3481 531 
L 3481 0 
L 794 0 
L 794 531 
z
" transform="scale(0.015625)"/>
        <path id="DejaVuSans-34" d="M 2419 4116 
L 825 1625 
L 2419 1625 
L 2419 4116 
z
M 2253 4666 
L 3047 4666 
L 3047 1625 
L 3713 1625 
L 3713 1100 
L 3047 1100 
L 3047 0 
L 2419 0 
L 2419 1100 
L 313 1100 
L 313 1709 
L 2253 4666 
z
" transform="scale(0.015625)"/>
       </defs>
       <use xlink:href="#DejaVuSans-32"/>
       <use xlink:href="#DejaVuSans-30" x="63.623047"/>
       <use xlink:href="#DejaVuSans-31" x="127.246094"/>
       <use xlink:href="#DejaVuSans-34" x="190.869141"/>
      </g>
     </g>
    </g>
    <g id="xtick_2">
     <g id="line2d_2">
      <g>
       <use xlink:href="#m8e920ac777" x="314.79086" y="512.64" style="stroke: #000000; stroke-width: 0.8"/>
      </g>
     </g>
     <g id="text_2">
      <!-- 2016 -->
      <g transform="translate(302.06586 527.238438) scale(0.1 -0.1)">
       <defs>
        <path id="DejaVuSans-36" d="M 2113 2584 
Q 1688 2584 1439 2293 
Q 1191 2003 1191 1497 
Q 1191 994 1439 701 
Q 1688 409 2113 409 
Q 2538 409 2786 701 
Q 3034 994 3034 1497 
Q 3034 2003 2786 2293 
Q 2538 2584 2113 2584 
z
M 3366 4563 
L 3366 3988 
Q 3128 4100 2886 4159 
Q 2644 4219 2406 4219 
Q 1781 4219 1451 3797 
Q 1122 3375 1075 2522 
Q 1259 2794 1537 2939 
Q 1816 3084 2150 3084 
Q 2853 3084 3261 2657 
Q 3669 2231 3669 1497 
Q 3669 778 3244 343 
Q 2819 -91 2113 -91 
Q 1303 -91 875 529 
Q 447 1150 447 2328 
Q 447 3434 972 4092 
Q 1497 4750 2381 4750 
Q 2619 4750 2861 4703 
Q 3103 4656 3366 4563 
z
" transform="scale(0.015625)"/>
       </defs>
       <use xlink:href="#DejaVuSans-32"/>
       <use xlink:href="#DejaVuSans-30" x="63.623047"/>
       <use xlink:href="#DejaVuSans-31" x="127.246094"/>
       <use xlink:href="#DejaVuSans-36" x="190.869141"/>
      </g>
     </g>
    </g>
    <g id="xtick_3">
     <g id="line2d_3">
      <g>
       <use xlink:href="#m8e920ac777" x="452.736962" y="512.64" style="stroke: #000000; stroke-width: 0.8"/>
      </g>
     </g>
     <g id="text_3">
      <!-- 2018 -->
      <g transform="translate(440.011962 527.238438) scale(0.1 -0.1)">
       <defs>
        <path id="DejaVuSans-38" d="M 2034 2216 
Q 1584 2216 1326 1975 
Q 1069 1734 1069 1313 
Q 1069 891 1326 650 
Q 1584 409 2034 409 
Q 2484 409 2743 651 
Q 3003 894 3003 1313 
Q 3003 1734 2745 1975 
Q 2488 2216 2034 2216 
z
M 1403 2484 
Q 997 2584 770 2862 
Q 544 3141 544 3541 
Q 544 4100 942 4425 
Q 1341 4750 2034 4750 
Q 2731 4750 3128 4425 
Q 3525 4100 3525 3541 
Q 3525 3141 3298 2862 
Q 3072 2584 2669 2484 
Q 3125 2378 3379 2068 
Q 3634 1759 3634 1313 
Q 3634 634 3220 271 
Q 2806 -91 2034 -91 
Q 1263 -91 848 271 
Q 434 634 434 1313 
Q 434 1759 690 2068 
Q 947 2378 1403 2484 
z
M 1172 3481 
Q 1172 3119 1398 2916 
Q 1625 2713 2034 2713 
Q 2441 2713 2670 2916 
Q 2900 3119 2900 3481 
Q 2900 3844 2670 4047 
Q 2441 4250 2034 4250 
Q 1625 4250 1398 4047 
Q 1172 3844 1172 3481 
z
" transform="scale(0.015625)"/>
       </defs>
       <use xlink:href="#DejaVuSans-32"/>
       <use xlink:href="#DejaVuSans-30" x="63.623047"/>
       <use xlink:href="#DejaVuSans-31" x="127.246094"/>
       <use xlink:href="#DejaVuSans-38" x="190.869141"/>
      </g>
     </g>
    </g>
    <g id="xtick_4">
     <g id="line2d_4">
      <g>
       <use xlink:href="#m8e920ac777" x="590.494354" y="512.64" style="stroke: #000000; stroke-width: 0.8"/>
      </g>
     </g>
     <g id="text_4">
      <!-- 2020 -->
      <g transform="translate(577.769354 527.238438) scale(0.1 -0.1)">
       <use xlink:href="#DejaVuSans-32"/>
       <use xlink:href="#DejaVuSans-30" x="63.623047"/>
       <use xlink:href="#DejaVuSans-32" x="127.246094"/>
       <use xlink:href="#DejaVuSans-30" x="190.869141"/>
      </g>
     </g>
    </g>
    <g id="xtick_5">
     <g id="line2d_5">
      <g>
       <use xlink:href="#m8e920ac777" x="728.440456" y="512.64" style="stroke: #000000; stroke-width: 0.8"/>
      </g>
     </g>
     <g id="text_5">
      <!-- 2022 -->
      <g transform="translate(715.715456 527.238438) scale(0.1 -0.1)">
       <use xlink:href="#DejaVuSans-32"/>
       <use xlink:href="#DejaVuSans-30" x="63.623047"/>
       <use xlink:href="#DejaVuSans-32" x="127.246094"/>
       <use xlink:href="#DejaVuSans-32" x="190.869141"/>
      </g>
     </g>
    </g>
    <g id="xtick_6">
     <g id="line2d_6">
      <g>
       <use xlink:href="#m8e920ac777" x="866.197848" y="512.64" style="stroke: #000000; stroke-width: 0.8"/>
      </g>
     </g>
     <g id="text_6">
      <!-- 2024 -->
      <g transform="translate(853.472848 527.238438) scale(0.1 -0.1)">
       <use xlink:href="#DejaVuSans-32"/>
       <use xlink:href="#DejaVuSans-30" x="63.623047"/>
       <use xlink:href="#DejaVuSans-32" x="127.246094"/>
       <use xlink:href="#DejaVuSans-34" x="190.869141"/>
      </g>
     </g>
    </g>
    <g id="xtick_7">
     <g id="line2d_7">
      <g>
       <use xlink:href="#m8e920ac777" x="1004.14395" y="512.64" style="stroke: #000000; stroke-width: 0.8"/>
      </g>
     </g>
     <g id="text_7">
      <!-- 2026 -->
      <g transform="translate(991.41895 527.238438) scale(0.1 -0.1)">
       <use xlink:href="#DejaVuSans-32"/>
       <use xlink:href="#DejaVuSans-30" x="63.623047"/>
       <use xlink:href="#DejaVuSans-32" x="127.246094"/>
       <use xlink:href="#DejaVuSans-36" x="190.869141"/>
      </g>
     </g>
    </g>
   </g>
   <g id="matplotlib.axis_2">
    <g id="ytick_1">
     <g id="line2d_8">
      <defs>
       <path id="mb50910e012" d="M 0 0 
L -3.5 0 
" style="stroke: #000000; stroke-width: 0.8"/>
      </defs>
      <g>
       <use xlink:href="#mb50910e012" x="144" y="492.511811" style="stroke: #000000; stroke-width: 0.8"/>
      </g>
     </g>
     <g id="text_8">
      <!-- 0 -->
      <g transform="translate(130.6375 496.311029) scale(0.1 -0.1)">
       <use xlink:href="#DejaVuSans-30"/>
      </g>
     </g>
    </g>
    <g id="ytick_2">
     <g id="line2d_9">
      <g>
       <use xlink:href="#mb50910e012" x="144" y="428.890509" style="stroke: #000000; stroke-width: 0.8"/>
      </g>
     </g>
     <g id="text_9">
      <!-- 2000 -->
      <g transform="translate(111.55 432.689728) scale(0.1 -0.1)">
       <use xlink:href="#DejaVuSans-32"/>
       <use xlink:href="#DejaVuSans-30" x="63.623047"/>
       <use xlink:href="#DejaVuSans-30" x="127.246094"/>
       <use xlink:href="#DejaVuSans-30" x="190.869141"/>
      </g>
     </g>
    </g>
    <g id="ytick_3">
     <g id="line2d_10">
      <g>
       <use xlink:href="#mb50910e012" x="144" y="365.269207" style="stroke: #000000; stroke-width: 0.8"/>
      </g>
     </g>
     <g id="text_10">
      <!-- 4000 -->
      <g transform="translate(111.55 369.068426) scale(0.1 -0.1)">
       <use xlink:href="#DejaVuSans-34"/>
       <use xlink:href="#DejaVuSans-30" x="63.623047"/>
       <use xlink:href="#DejaVuSans-30" x="127.246094"/>
       <use xlink:href="#DejaVuSans-30" x="190.869141"/>
      </g>
     </g>
    </g>
    <g id="ytick_4">
     <g id="line2d_11">
      <g>
       <use xlink:href="#mb50910e012" x="144" y="301.647905" style="stroke: #000000; stroke-width: 0.8"/>
      </g>
     </g>
     <g id="text_11">
      <!-- 6000 -->
      <g transform="translate(111.55 305.447124) scale(0.1 -0.1)">
       <use xlink:href="#DejaVuSans-36"/>
       <use xlink:href="#DejaVuSans-30" x="63.623047"/>
       <use xlink:href="#DejaVuSans-30" x="127.246094"/>
       <use xlink:href="#DejaVuSans-30" x="190.869141"/>
      </g>
     </g>
    </g>
    <g id="ytick_5">
     <g id="line2d_12">
      <g>
       <use xlink:href="#mb50910e012" x="144" y="238.026604" style="stroke: #000000; stroke-width: 0.8"/>
      </g>
     </g>
     <g id="text_12">
      <!-- 8000 -->
      <g transform="translate(111.55 241.825822) scale(0.1 -0.1)">
       <use xlink:href="#DejaVuSans-38"/>
       <use xlink:href="#DejaVuSans-30" x="63.623047"/>
       <use xlink:href="#DejaVuSans-30" x="127.246094"/>
       <use xlink:href="#DejaVuSans-30" x="190.869141"/>
      </g>
     </g>
    </g>
    <g id="ytick_6">
     <g id="line2d_13">
      <g>
       <use xlink:href="#mb50910e012" x="144" y="174.405302" style="stroke: #000000; stroke-width: 0.8"/>
      </g>
     </g>
     <g id="text_13">
      <!-- 10000 -->
      <g transform="translate(105.1875 178.204521) scale(0.1 -0.1)">
       <use xlink:href="#DejaVuSans-31"/>
       <use xlink:href="#DejaVuSans-30" x="63.623047"/>
       <use xlink:href="#DejaVuSans-30" x="127.246094"/>
       <use xlink:href="#DejaVuSans-30" x="190.869141"/>
       <use xlink:href="#DejaVuSans-30" x="254.492188"/>
      </g>
     </g>
    </g>
    <g id="ytick_7">
     <g id="line2d_14">
      <g>
       <use xlink:href="#mb50910e012" x="144" y="110.784" style="stroke: #000000; stroke-width: 0.8"/>
      </g>
     </g>
     <g id="text_14">
      <!-- 12000 -->
      <g transform="translate(105.1875 114.583219) scale(0.1 -0.1)">
       <use xlink:href="#DejaVuSans-31"/>
       <use xlink:href="#DejaVuSans-32" x="63.623047"/>
       <use xlink:href="#DejaVuSans-30" x="127.246094"/>
       <use xlink:href="#DejaVuSans-30" x="190.869141"/>
       <use xlink:href="#DejaVuSans-30" x="254.492188"/>
      </g>
     </g>
    </g>
   </g>
   <g id="line2d_15">
    <path d="M 184.581818 492.48 
L 186.280197 492.416379 
L 287.994217 492.257325 
L 442.35798 492.098272 
L 493.686762 491.907408 
L 507.085084 491.811976 
L 539.731699 491.621112 
L 542.939748 491.557491 
L 566.528342 491.430249 
L 596.721743 491.239385 
L 597.099161 490.984899 
L 601.062045 490.825846 
L 635.21833 490.698604 
L 638.048961 490.634982 
L 661.071429 490.475929 
L 675.602004 490.253254 
L 691.642248 489.776095 
L 692.963209 489.648852 
L 702.02123 489.426178 
L 704.285735 489.362556 
L 710.513124 488.949018 
L 720.325979 488.726343 
L 725.609824 487.263053 
L 726.742077 487.199432 
L 727.496912 486.754083 
L 727.685621 485.990627 
L 728.063038 485.799763 
L 728.251747 485.767953 
L 728.440456 484.750012 
L 729.572708 484.304663 
L 729.950126 483.763882 
L 730.327543 483.604828 
L 730.516252 483.223101 
L 730.704961 482.364213 
L 731.082378 481.600757 
L 731.271087 480.678249 
L 731.459796 478.928663 
L 732.025922 477.624426 
L 732.40334 471.866698 
L 732.592048 471.230485 
L 732.969466 467.57226 
L 733.158175 466.967858 
L 733.346883 465.377325 
L 733.535592 465.281893 
L 734.101718 463.214201 
L 734.290427 458.697089 
L 734.479136 458.28355 
L 734.856553 456.979314 
L 735.045262 456.883882 
L 735.233971 456.152237 
L 735.42268 452.939361 
L 735.611388 452.175905 
L 735.800097 452.144095 
L 735.988806 449.790107 
L 736.177515 449.503811 
L 736.554932 449.344757 
L 737.309767 447.02258 
L 737.687185 446.386367 
L 738.253311 444.60497 
L 738.630729 439.70613 
L 739.008146 437.447574 
L 739.574272 437.352142 
L 739.95169 437.129467 
L 740.706525 435.888852 
L 741.083942 435.825231 
L 741.46136 433.153136 
L 741.650069 433.121325 
L 742.027486 432.675976 
L 742.216195 431.467172 
L 742.404904 431.149065 
L 742.782321 430.89458 
L 742.97103 430.353799 
L 743.537156 430.162935 
L 743.914574 429.844828 
L 744.291991 428.636024 
L 744.4807 428.540592 
L 744.858118 428.063432 
L 745.612953 427.713515 
L 745.801661 426.568331 
L 746.179079 426.345657 
L 746.367788 424.214343 
L 746.745205 424.150722 
L 747.122623 423.514509 
L 747.311331 422.910107 
L 747.877458 422.782864 
L 748.066166 422.592 
L 748.443584 421.987598 
L 748.632293 421.955787 
L 749.00971 421.478627 
L 749.387128 421.351385 
L 749.575836 419.888095 
L 750.708089 419.633609 
L 751.085507 419.379124 
L 751.840342 419.283692 
L 752.02905 419.124639 
L 754.670973 418.361183 
L 755.04839 418.106698 
L 755.991934 417.979456 
L 756.746769 417.597728 
L 758.633857 417.216 
L 759.388692 414.734769 
L 760.332236 414.607527 
L 760.520944 414.543905 
L 762.030614 414.384852 
L 762.785449 414.098556 
L 763.917702 413.939503 
L 765.616081 413.30329 
L 765.993498 413.144237 
L 766.182207 413.080615 
L 766.370916 412.857941 
L 767.125751 412.603456 
L 768.069295 412.539834 
L 768.258003 412.31716 
L 768.635421 412.285349 
L 768.82413 411.776379 
L 769.012838 411.712757 
L 769.201547 411.012923 
L 771.466052 410.535763 
L 772.032179 410.408521 
L 772.220887 410.026793 
L 773.541849 409.708686 
L 774.107975 409.517822 
L 774.86281 409.358769 
L 775.617645 409.167905 
L 776.561189 408.977041 
L 778.070859 408.372639 
L 778.448276 408.213586 
L 778.636985 407.577373 
L 779.580529 406.845728 
L 779.769238 406.559432 
L 780.712781 405.795976 
L 781.090199 405.127953 
L 781.278908 405.096142 
L 781.656325 404.364497 
L 782.41116 403.53742 
L 782.977286 403.441988 
L 783.165995 403.155692 
L 783.543413 402.996639 
L 783.732121 402.678533 
L 784.675665 402.455858 
L 784.864374 402.169562 
L 786.751462 401.819645 
L 786.94017 401.660592 
L 787.883714 401.533349 
L 788.638549 401.119811 
L 789.204675 400.992568 
L 789.770802 400.897136 
L 790.148219 400.197302 
L 790.525637 399.974627 
L 791.469181 399.338414 
L 791.657889 398.606769 
L 792.412724 398.384095 
L 793.544977 398.034178 
L 793.922394 397.557018 
L 794.865938 397.079858 
L 795.054647 396.761751 
L 795.620773 396.570888 
L 796.564317 396.125538 
L 796.941734 392.817231 
L 797.130443 391.703858 
L 797.319152 389.763408 
L 797.507861 389.540734 
L 798.073987 387.536663 
L 798.640113 386.550533 
L 798.828822 386.486911 
L 799.20624 386.105183 
L 799.394948 384.832757 
L 799.583657 384.48284 
L 799.961075 384.387408 
L 800.527201 383.592142 
L 800.71591 383.01955 
L 800.904618 382.828686 
L 801.282036 382.319716 
L 801.470745 381.460828 
L 802.414288 379.902107 
L 803.169123 379.584 
L 803.357832 379.456757 
L 803.546541 378.566059 
L 804.112667 378.279763 
L 804.867502 377.420876 
L 805.056211 376.816473 
L 805.24492 376.784663 
L 805.811046 376.18026 
L 806.188464 376.14845 
L 806.377172 375.830343 
L 806.75459 375.639479 
L 807.509425 374.876024 
L 807.698134 374.812402 
L 807.886842 374.271621 
L 809.207804 373.285491 
L 809.396512 373.190059 
L 809.77393 372.013065 
L 810.340056 371.790391 
L 810.906182 371.631337 
L 811.2836 371.026935 
L 811.472309 370.931503 
L 812.604561 369.563645 
L 813.359396 369.404592 
L 813.548105 369.372781 
L 814.114231 368.450272 
L 814.869066 368.291219 
L 815.81261 367.591385 
L 816.001319 367.559574 
L 816.567445 367.114225 
L 816.944863 366.986982 
L 817.32228 366.955172 
L 817.510989 366.764308 
L 817.699698 366.223527 
L 818.454533 366.000852 
L 818.643242 365.682746 
L 818.83195 365.650935 
L 819.020659 365.078343 
L 819.586785 364.855669 
L 820.152912 364.728426 
L 820.530329 364.44213 
L 822.606125 363.583243 
L 822.794834 362.756166 
L 823.172252 362.46987 
L 823.738378 362.279006 
L 824.304504 361.960899 
L 825.059339 361.833657 
L 825.248048 360.942959 
L 826.569009 360.338556 
L 826.757718 360.306746 
L 826.946427 360.147692 
L 827.323844 360.084071 
L 827.512553 359.797775 
L 828.078679 359.606911 
L 828.267388 359.54329 
L 828.456097 359.193373 
L 828.833514 359.161562 
L 829.210932 358.938888 
L 829.777058 358.652592 
L 829.965767 358.270864 
L 830.720602 358.08 
L 830.909311 357.889136 
L 831.286728 357.825515 
L 831.475437 357.634651 
L 832.041563 357.475598 
L 832.230272 357.189302 
L 832.418981 357.157491 
L 832.796398 356.903006 
L 833.173816 356.743953 
L 833.362525 356.584899 
L 834.494777 356.298604 
L 834.683486 355.948686 
L 834.872195 355.853254 
L 835.815738 355.694201 
L 836.193156 355.407905 
L 836.570573 355.280663 
L 837.1367 355.121609 
L 837.325408 354.898935 
L 837.702826 354.835314 
L 837.891535 354.294533 
L 838.080243 354.199101 
L 838.457661 353.785562 
L 838.64637 353.117538 
L 839.023787 352.894864 
L 839.212496 352.799432 
L 839.401205 352.544947 
L 839.778622 352.322272 
L 840.533457 351.74968 
L 840.910875 351.622438 
L 841.099584 351.272521 
L 841.477001 351.081657 
L 842.043127 350.73174 
L 842.609254 350.572686 
L 842.986671 350.159148 
L 844.68505 348.854911 
L 845.251176 348.695858 
L 845.817303 348.568615 
L 846.006011 348.504994 
L 846.949555 347.646107 
L 847.515681 347.359811 
L 849.21406 346.723598 
L 849.591478 346.469112 
L 850.157604 346.310059 
L 850.72373 345.991953 
L 851.289856 345.832899 
L 851.855983 345.578414 
L 852.799527 345.419361 
L 853.365653 345.037633 
L 853.554362 345.005822 
L 853.74307 344.687716 
L 856.007575 343.828828 
L 856.951119 343.447101 
L 857.328537 343.033562 
L 857.517245 341.633893 
L 857.894663 341.315787 
L 858.27208 341.156734 
L 858.838207 340.393278 
L 859.215624 340.106982 
L 859.593042 339.216284 
L 859.781751 339.02542 
L 859.970459 338.993609 
L 860.347877 338.802746 
L 860.725294 338.707314 
L 860.914003 338.452828 
L 862.234964 338.03929 
L 862.612382 337.657562 
L 863.178508 337.212213 
L 863.555926 337.08497 
L 863.933343 336.703243 
L 865.065596 335.907976 
L 865.443013 335.876166 
L 865.631722 335.58987 
L 866.386557 335.367195 
L 866.575266 334.699172 
L 866.952683 334.381065 
L 867.707518 334.158391 
L 868.084936 333.999337 
L 868.273645 333.553988 
L 868.651062 333.426746 
L 868.839771 333.013207 
L 869.02848 332.917775 
L 869.405897 332.599669 
L 869.783315 332.408805 
L 870.160732 332.313373 
L 870.53815 332.090698 
L 870.726858 332.058888 
L 870.915567 331.868024 
L 871.104276 331.836213 
L 871.859111 331.422675 
L 872.236529 330.659219 
L 872.425237 330.563787 
L 872.802655 330.500166 
L 872.991364 330.150249 
L 873.55749 329.959385 
L 873.746199 329.863953 
L 873.934907 329.291361 
L 874.501034 329.068686 
L 875.06716 328.400663 
L 875.255869 328.337041 
L 875.633286 328.050746 
L 875.821995 328.018935 
L 876.199412 327.541775 
L 876.57683 327.28729 
L 877.331665 326.969183 
L 877.520374 326.651077 
L 877.897791 326.587456 
L 878.0865 326.364781 
L 878.275209 326.33297 
L 878.463917 325.696757 
L 879.030044 325.505893 
L 879.218753 325.410462 
L 879.59617 324.965112 
L 879.784879 324.83787 
L 880.351005 324.138036 
L 881.860675 323.215527 
L 882.426801 323.056473 
L 882.61551 322.961041 
L 882.992928 322.483882 
L 883.181636 322.42026 
L 884.12518 321.593183 
L 884.691306 321.306888 
L 885.068724 321.116024 
L 885.257433 321.084213 
L 885.446141 320.384379 
L 886.012268 320.002651 
L 886.200977 319.398249 
L 886.578394 319.111953 
L 886.767103 318.857467 
L 886.955812 318.825657 
L 887.710647 318.094012 
L 888.465482 317.775905 
L 888.842899 317.489609 
L 889.975152 316.980639 
L 890.729987 315.962698 
L 891.484822 315.517349 
L 891.67353 315.294675 
L 891.862239 315.262864 
L 892.050948 314.912947 
L 892.994492 314.372166 
L 893.371909 314.11768 
L 894.126744 313.767763 
L 894.881579 313.322414 
L 895.258997 313.258793 
L 895.636414 313.067929 
L 896.013832 312.908876 
L 896.957376 312.209041 
L 898.089628 311.66826 
L 898.467046 311.286533 
L 898.844463 311.15929 
L 899.41059 310.904805 
L 899.976716 310.65032 
L 900.354133 310.523077 
L 900.542842 309.346083 
L 901.108968 309.091598 
L 901.297677 308.805302 
L 901.486386 308.773491 
L 902.241221 307.532876 
L 902.42993 307.437444 
L 902.618638 307.055716 
L 902.996056 306.928473 
L 903.750891 305.878722 
L 904.128308 304.415432 
L 904.317017 303.970083 
L 904.694435 301.679716 
L 904.883143 300.725396 
L 905.637978 299.834698 
L 905.826687 299.643834 
L 906.581522 296.812686 
L 906.770231 296.653633 
L 906.95894 296.240095 
L 907.147649 294.713183 
L 907.336357 294.172402 
L 907.525066 294.140592 
L 907.713775 293.440757 
L 908.279901 293.05903 
L 908.657319 292.041089 
L 909.600862 291.59574 
L 909.789571 291.341254 
L 910.733115 290.959527 
L 911.299241 290.291503 
L 911.676659 289.623479 
L 912.054076 289.496237 
L 912.431494 289.337183 
L 912.808911 289.114509 
L 913.186329 288.923645 
L 914.129873 288.66916 
L 914.50729 288.478296 
L 915.073416 288.414675 
L 916.771795 287.110438 
L 917.149213 286.887763 
L 917.337921 286.601467 
L 918.092756 286.315172 
L 918.281465 286.21974 
L 918.470174 285.488095 
L 919.0363 285.042746 
L 919.413718 284.979124 
L 920.168553 284.438343 
L 921.112097 284.088426 
L 921.489514 283.706698 
L 921.866932 283.643077 
L 922.05564 283.197728 
L 922.244349 283.038675 
L 922.433058 282.561515 
L 922.810475 282.402462 
L 923.376602 281.289089 
L 923.56531 280.684686 
L 923.754019 280.621065 
L 924.131437 280.334769 
L 924.508854 280.048473 
L 924.697563 279.762178 
L 925.07498 278.521562 
L 925.263689 278.267077 
L 925.452398 277.599053 
L 925.641107 277.535432 
L 925.829815 276.994651 
L 926.207233 276.803787 
L 927.339486 275.817657 
L 927.528194 275.372308 
L 927.905612 275.276876 
L 928.660447 274.895148 
L 929.415282 274.640663 
L 929.603991 273.972639 
L 933.189457 271.459598 
L 933.378166 271.173302 
L 933.566875 270.505278 
L 934.699127 269.996308 
L 935.076545 269.519148 
L 935.453962 269.423716 
L 935.642671 269.041988 
L 936.020088 268.882935 
L 936.208797 268.564828 
L 937.907176 267.64232 
L 939.228137 266.401704 
L 939.416846 266.019976 
L 939.605555 265.383763 
L 939.982972 264.811172 
L 940.171681 264.461254 
L 940.926516 260.643976 
L 941.303934 259.84871 
L 941.492642 259.466982 
L 941.681351 257.781018 
L 941.87006 254.504521 
L 943.191021 245.374864 
L 943.568439 241.048615 
L 943.945856 240.444213 
L 944.323274 234.845538 
L 944.511982 233.382249 
L 944.8894 227.179172 
L 945.266817 226.002178 
L 945.455526 222.821112 
L 945.644235 222.248521 
L 946.021652 218.78116 
L 946.39907 209.397018 
L 946.587779 208.888047 
L 946.776487 207.997349 
L 946.965196 205.070769 
L 947.153905 204.848095 
L 947.531323 200.044686 
L 947.90874 199.822012 
L 948.286158 198.804071 
L 948.474866 198.581396 
L 948.663575 198.136047 
L 948.852284 197.213538 
L 949.229701 197.022675 
L 949.795828 195.304899 
L 950.173245 192.823669 
L 950.361954 192.37832 
L 950.550663 192.314698 
L 950.739371 192.092024 
L 951.116789 191.455811 
L 951.305498 190.406059 
L 951.494206 190.183385 
L 951.682915 189.769846 
L 951.871624 189.706225 
L 952.249041 189.101822 
L 952.626459 188.942769 
L 952.815168 188.465609 
L 953.003876 188.306556 
L 953.381294 187.765775 
L 953.570003 187.670343 
L 954.324838 186.938698 
L 954.513547 186.906888 
L 955.079673 186.302485 
L 955.834508 185.793515 
L 956.589343 185.634462 
L 956.778052 185.443598 
L 957.155469 185.379976 
L 957.532887 185.06187 
L 959.231265 184.171172 
L 959.419974 183.725822 
L 960.363518 183.471337 
L 961.118353 182.803314 
L 961.684479 182.230722 
L 962.061897 181.785373 
L 962.816732 181.499077 
L 963.382858 181.117349 
L 963.760276 180.831053 
L 964.137693 180.544757 
L 964.515111 180.258462 
L 964.703819 179.526817 
L 965.458654 179.017846 
L 965.647363 178.73155 
L 966.024781 178.508876 
L 966.402198 178.254391 
L 967.345742 177.586367 
L 967.72316 177.427314 
L 967.911868 177.26826 
L 968.477995 177.204639 
L 968.855412 176.28213 
L 969.044121 176.186698 
L 969.421538 175.677728 
L 969.987665 174.977893 
L 970.365082 174.81884 
L 970.931208 174.023574 
L 971.119917 173.35555 
L 971.308626 173.196497 
L 971.686043 173.132876 
L 972.063461 172.751148 
L 972.818296 172.36942 
L 973.195713 172.242178 
L 973.950548 171.415101 
L 974.139257 171.38329 
L 974.327966 167.597822 
L 974.705384 167.057041 
L 975.082801 166.643503 
L 975.27151 166.261775 
L 975.460219 166.229964 
L 975.837636 165.784615 
L 976.026345 165.180213 
L 976.78118 164.448568 
L 976.969889 164.257704 
L 977.347306 163.526059 
L 977.724724 161.585609 
L 977.913432 160.981207 
L 978.102141 159.931456 
L 978.29085 159.64516 
L 978.479559 158.340923 
L 978.856976 157.354793 
L 979.045685 156.559527 
L 979.80052 155.668828 
L 980.177937 155.096237 
L 980.555355 154.650888 
L 981.121481 154.460024 
L 981.687608 153.855621 
L 982.253734 152.80587 
L 982.442443 152.742249 
L 982.81986 152.32871 
L 983.008569 152.106036 
L 983.385986 151.310769 
L 983.763404 150.86542 
L 983.952113 149.783858 
L 985.273074 148.797728 
L 986.216618 147.366249 
L 986.594035 146.889089 
L 986.971453 145.553041 
L 987.160161 145.266746 
L 987.726288 143.803456 
L 987.914997 143.708024 
L 988.103705 143.103621 
L 988.292414 142.880947 
L 988.85854 141.09955 
L 989.424667 139.954367 
L 989.613375 139.827124 
L 989.802084 139.349964 
L 989.990793 139.190911 
L 990.745628 137.123219 
L 991.311754 136.073467 
L 992.066589 133.051456 
L 992.255298 132.478864 
L 992.444007 130.697467 
L 992.632715 130.379361 
L 992.821424 128.916071 
L 993.198842 128.279858 
L 993.38755 127.643645 
L 993.764968 125.130604 
L 994.142385 124.208095 
L 994.331094 124.017231 
L 994.519803 115.68284 
L 994.708512 112.533586 
L 994.897221 93.19271 
L 995.463347 91.602178 
L 995.652056 91.411314 
L 996.029473 89.629917 
L 996.218182 89.28 
L 996.218182 89.28 
" clip-path="url(#pd75e513114)" style="fill: none; stroke: #1f77b4; stroke-width: 1.5; stroke-linecap: square"/>
   </g>
   <g id="patch_3">
    <path d="M 144 512.64 
L 144 69.12 
" style="fill: none; stroke: #000000; stroke-width: 0.8; stroke-linejoin: miter; stroke-linecap: square"/>
   </g>
   <g id="patch_4">
    <path d="M 1036.8 512.64 
L 1036.8 69.12 
" style="fill: none; stroke: #000000; stroke-width: 0.8; stroke-linejoin: miter; stroke-linecap: square"/>
   </g>
   <g id="patch_5">
    <path d="M 144 512.64 
L 1036.8 512.64 
" style="fill: none; stroke: #000000; stroke-width: 0.8; stroke-linejoin: miter; stroke-linecap: square"/>
   </g>
   <g id="patch_6">
    <path d="M 144 69.12 
L 1036.8 69.12 
" style="fill: none; stroke: #000000; stroke-width: 0.8; stroke-linejoin: miter; stroke-linecap: square"/>
   </g>
   <g id="text_15">
    <!-- Number of AEDs in the OpenStreetMap database in Poland from first edition, day by day. As at: 2025-11-20 -->
    <g transform="translate(144 63.12) scale(0.14 -0.14)">
     <defs>
      <path id="DejaVuSans-4e" d="M 628 4666 
L 1478 4666 
L 3547 763 
L 3547 4666 
L 4159 4666 
L 4159 0 
L 3309 0 
L 1241 3903 
L 1241 0 
L 628 0 
L 628 4666 
z
" transform="scale(0.015625)"/>
      <path id="DejaVuSans-75" d="M 544 1381 
L 544 3500 
L 1119 3500 
L 1119 1403 
Q 1119 906 1312 657 
Q 1506 409 1894 409 
Q 2359 409 2629 706 
Q 2900 1003 2900 1516 
L 2900 3500 
L 3475 3500 
L 3475 0 
L 2900 0 
L 2900 538 
Q 2691 219 2414 64 
Q 2138 -91 1772 -91 
Q 1169 -91 856 284 
Q 544 659 544 1381 
z
M 1991 3584 
L 1991 3584 
z
" transform="scale(0.015625)"/>
      <path id="DejaVuSans-6d" d="M 3328 2828 
Q 3544 3216 3844 3400 
Q 4144 3584 4550 3584 
Q 5097 3584 5394 3201 
Q 5691 2819 5691 2113 
L 5691 0 
L 5113 0 
L 5113 2094 
Q 5113 2597 4934 2840 
Q 4756 3084 4391 3084 
Q 3944 3084 3684 2787 
Q 3425 2491 3425 1978 
L 3425 0 
L 2847 0 
L 2847 2094 
Q 2847 2600 2669 2842 
Q 2491 3084 2119 3084 
Q 1678 3084 1418 2786 
Q 1159 2488 1159 1978 
L 1159 0 
L 581 0 
L 581 3500 
L 1159 3500 
L 1159 2956 
Q 1356 3278 1631 3431 
Q 1906 3584 2284 3584 
Q 2666 3584 2933 3390 
Q 3200 3197 3328 2828 
z
" transform="scale(0.015625)"/>
      <path id="DejaVuSans-62" d="M 3116 1747 
Q 3116 2381 2855 2742 
Q 2594 3103 2138 3103 
Q 1681 3103 1420 2742 
Q 1159 2381 1159 1747 
Q 1159 1113 1420 752 
Q 1681 391 2138 391 
Q 2594 391 2855 752 
Q 3116 1113 3116 1747 
z
M 1159 2969 
Q 1341 3281 1617 3432 
Q 1894 3584 2278 3584 
Q 2916 3584 3314 3078 
Q 3713 2572 3713 1747 
Q 3713 922 3314 415 
Q 2916 -91 2278 -91 
Q 1894 -91 1617 61 
Q 1341 213 1159 525 
L 1159 0 
L 581 0 
L 581 4863 
L 1159 4863 
L 1159 2969 
z
" transform="scale(0.015625)"/>
      <path id="DejaVuSans-65" d="M 3597 1894 
L 3597 1613 
L 953 1613 
Q 991 1019 1311 708 
Q 1631 397 2203 397 
Q 2534 397 2845 478 
Q 3156 559 3463 722 
L 3463 178 
Q 3153 47 2828 -22 
Q 2503 -91 2169 -91 
Q 1331 -91 842 396 
Q 353 884 353 1716 
Q 353 2575 817 3079 
Q 1281 3584 2069 3584 
Q 2775 3584 3186 3129 
Q 3597 2675 3597 1894 
z
M 3022 2063 
Q 3016 2534 2758 2815 
Q 2500 3097 2075 3097 
Q 1594 3097 1305 2825 
Q 1016 2553 972 2059 
L 3022 2063 
z
" transform="scale(0.015625)"/>
      <path id="DejaVuSans-72" d="M 2631 2963 
Q 2534 3019 2420 3045 
Q 2306 3072 2169 3072 
Q 1681 3072 1420 2755 
Q 1159 2438 1159 1844 
L 1159 0 
L 581 0 
L 581 3500 
L 1159 3500 
L 1159 2956 
Q 1341 3275 1631 3429 
Q 1922 3584 2338 3584 
Q 2397 3584 2469 3576 
Q 2541 3569 2628 3553 
L 2631 2963 
z
" transform="scale(0.015625)"/>
      <path id="DejaVuSans-20" transform="scale(0.015625)"/>
      <path id="DejaVuSans-6f" d="M 1959 3097 
Q 1497 3097 1228 2736 
Q 959 2375 959 1747 
Q 959 1119 1226 758 
Q 1494 397 1959 397 
Q 2419 397 2687 759 
Q 2956 1122 2956 1747 
Q 2956 2369 2687 2733 
Q 2419 3097 1959 3097 
z
M 1959 3584 
Q 2709 3584 3137 3096 
Q 3566 2609 3566 1747 
Q 3566 888 3137 398 
Q 2709 -91 1959 -91 
Q 1206 -91 779 398 
Q 353 888 353 1747 
Q 353 2609 779 3096 
Q 1206 3584 1959 3584 
z
" transform="scale(0.015625)"/>
      <path id="DejaVuSans-66" d="M 2375 4863 
L 2375 4384 
L 1825 4384 
Q 1516 4384 1395 4259 
Q 1275 4134 1275 3809 
L 1275 3500 
L 2222 3500 
L 2222 3053 
L 1275 3053 
L 1275 0 
L 697 0 
L 697 3053 
L 147 3053 
L 147 3500 
L 697 3500 
L 697 3744 
Q 697 4328 969 4595 
Q 1241 4863 1831 4863 
L 2375 4863 
z
" transform="scale(0.015625)"/>
      <path id="DejaVuSans-41" d="M 2188 4044 
L 1331 1722 
L 3047 1722 
L 2188 4044 
z
M 1831 4666 
L 2547 4666 
L 4325 0 
L 3669 0 
L 3244 1197 
L 1141 1197 
L 716 0 
L 50 0 
L 1831 4666 
z
" transform="scale(0.015625)"/>
      <path id="DejaVuSans-45" d="M 628 4666 
L 3578 4666 
L 3578 4134 
L 1259 4134 
L 1259 2753 
L 3481 2753 
L 3481 2222 
L 1259 2222 
L 1259 531 
L 3634 531 
L 3634 0 
L 628 0 
L 628 4666 
z
" transform="scale(0.015625)"/>
      <path id="DejaVuSans-44" d="M 1259 4147 
L 1259 519 
L 2022 519 
Q 2988 519 3436 956 
Q 3884 1394 3884 2338 
Q 3884 3275 3436 3711 
Q 2988 4147 2022 4147 
L 1259 4147 
z
M 628 4666 
L 1925 4666 
Q 3281 4666 3915 4102 
Q 4550 3538 4550 2338 
Q 4550 1131 3912 565 
Q 3275 0 1925 0 
L 628 0 
L 628 4666 
z
" transform="scale(0.015625)"/>
      <path id="DejaVuSans-73" d="M 2834 3397 
L 2834 2853 
Q 2591 2978 2328 3040 
Q 2066 3103 1784 3103 
Q 1356 3103 1142 2972 
Q 928 2841 928 2578 
Q 928 2378 1081 2264 
Q 1234 2150 1697 2047 
L 1894 2003 
Q 2506 1872 2764 1633 
Q 3022 1394 3022 966 
Q 3022 478 2636 193 
Q 2250 -91 1575 -91 
Q 1294 -91 989 -36 
Q 684 19 347 128 
L 347 722 
Q 666 556 975 473 
Q 1284 391 1588 391 
Q 1994 391 2212 530 
Q 2431 669 2431 922 
Q 2431 1156 2273 1281 
Q 2116 1406 1581 1522 
L 1381 1569 
Q 847 1681 609 1914 
Q 372 2147 372 2553 
Q 372 3047 722 3315 
Q 1072 3584 1716 3584 
Q 2034 3584 2315 3537 
Q 2597 3491 2834 3397 
z
" transform="scale(0.015625)"/>
      <path id="DejaVuSans-69" d="M 603 3500 
L 1178 3500 
L 1178 0 
L 603 0 
L 603 3500 
z
M 603 4863 
L 1178 4863 
L 1178 4134 
L 603 4134 
L 603 4863 
z
" transform="scale(0.015625)"/>
      <path id="DejaVuSans-6e" d="M 3513 2113 
L 3513 0 
L 2938 0 
L 2938 2094 
Q 2938 2591 2744 2837 
Q 2550 3084 2163 3084 
Q 1697 3084 1428 2787 
Q 1159 2491 1159 1978 
L 1159 0 
L 581 0 
L 581 3500 
L 1159 3500 
L 1159 2956 
Q 1366 3272 1645 3428 
Q 1925 3584 2291 3584 
Q 2894 3584 3203 3211 
Q 3513 2838 3513 2113 
z
" transform="scale(0.015625)"/>
      <path id="DejaVuSans-74" d="M 1172 4494 
L 1172 3500 
L 2356 3500 
L 2356 3053 
L 1172 3053 
L 1172 1153 
Q 1172 725 1289 603 
Q 1406 481 1766 481 
L 2356 481 
L 2356 0 
L 1766 0 
Q 1100 0 847 248 
Q 594 497 594 1153 
L 594 3053 
L 172 3053 
L 172 3500 
L 594 3500 
L 594 4494 
L 1172 4494 
z
" transform="scale(0.015625)"/>
      <path id="DejaVuSans-68" d="M 3513 2113 
L 3513 0 
L 2938 0 
L 2938 2094 
Q 2938 2591 2744 2837 
Q 2550 3084 2163 3084 
Q 1697 3084 1428 2787 
Q 1159 2491 1159 1978 
L 1159 0 
L 581 0 
L 581 4863 
L 1159 4863 
L 1159 2956 
Q 1366 3272 1645 3428 
Q 1925 3584 2291 3584 
Q 2894 3584 3203 3211 
Q 3513 2838 3513 2113 
z
" transform="scale(0.015625)"/>
      <path id="DejaVuSans-4f" d="M 2522 4238 
Q 1834 4238 1429 3725 
Q 1025 3213 1025 2328 
Q 1025 1447 1429 934 
Q 1834 422 2522 422 
Q 3209 422 3611 934 
Q 4013 1447 4013 2328 
Q 4013 3213 3611 3725 
Q 3209 4238 2522 4238 
z
M 2522 4750 
Q 3503 4750 4090 4092 
Q 4678 3434 4678 2328 
Q 4678 1225 4090 567 
Q 3503 -91 2522 -91 
Q 1538 -91 948 565 
Q 359 1222 359 2328 
Q 359 3434 948 4092 
Q 1538 4750 2522 4750 
z
" transform="scale(0.015625)"/>
      <path id="DejaVuSans-70" d="M 1159 525 
L 1159 -1331 
L 581 -1331 
L 581 3500 
L 1159 3500 
L 1159 2969 
Q 1341 3281 1617 3432 
Q 1894 3584 2278 3584 
Q 2916 3584 3314 3078 
Q 3713 2572 3713 1747 
Q 3713 922 3314 415 
Q 2916 -91 2278 -91 
Q 1894 -91 1617 61 
Q 1341 213 1159 525 
z
M 3116 1747 
Q 3116 2381 2855 2742 
Q 2594 3103 2138 3103 
Q 1681 3103 1420 2742 
Q 1159 2381 1159 1747 
Q 1159 1113 1420 752 
Q 1681 391 2138 391 
Q 2594 391 2855 752 
Q 3116 1113 3116 1747 
z
" transform="scale(0.015625)"/>
      <path id="DejaVuSans-53" d="M 3425 4513 
L 3425 3897 
Q 3066 4069 2747 4153 
Q 2428 4238 2131 4238 
Q 1616 4238 1336 4038 
Q 1056 3838 1056 3469 
Q 1056 3159 1242 3001 
Q 1428 2844 1947 2747 
L 2328 2669 
Q 3034 2534 3370 2195 
Q 3706 1856 3706 1288 
Q 3706 609 3251 259 
Q 2797 -91 1919 -91 
Q 1588 -91 1214 -16 
Q 841 59 441 206 
L 441 856 
Q 825 641 1194 531 
Q 1563 422 1919 422 
Q 2459 422 2753 634 
Q 3047 847 3047 1241 
Q 3047 1584 2836 1778 
Q 2625 1972 2144 2069 
L 1759 2144 
Q 1053 2284 737 2584 
Q 422 2884 422 3419 
Q 422 4038 858 4394 
Q 1294 4750 2059 4750 
Q 2388 4750 2728 4690 
Q 3069 4631 3425 4513 
z
" transform="scale(0.015625)"/>
      <path id="DejaVuSans-4d" d="M 628 4666 
L 1569 4666 
L 2759 1491 
L 3956 4666 
L 4897 4666 
L 4897 0 
L 4281 0 
L 4281 4097 
L 3078 897 
L 2444 897 
L 1241 4097 
L 1241 0 
L 628 0 
L 628 4666 
z
" transform="scale(0.015625)"/>
      <path id="DejaVuSans-61" d="M 2194 1759 
Q 1497 1759 1228 1600 
Q 959 1441 959 1056 
Q 959 750 1161 570 
Q 1363 391 1709 391 
Q 2188 391 2477 730 
Q 2766 1069 2766 1631 
L 2766 1759 
L 2194 1759 
z
M 3341 1997 
L 3341 0 
L 2766 0 
L 2766 531 
Q 2569 213 2275 61 
Q 1981 -91 1556 -91 
Q 1019 -91 701 211 
Q 384 513 384 1019 
Q 384 1609 779 1909 
Q 1175 2209 1959 2209 
L 2766 2209 
L 2766 2266 
Q 2766 2663 2505 2880 
Q 2244 3097 1772 3097 
Q 1472 3097 1187 3025 
Q 903 2953 641 2809 
L 641 3341 
Q 956 3463 1253 3523 
Q 1550 3584 1831 3584 
Q 2591 3584 2966 3190 
Q 3341 2797 3341 1997 
z
" transform="scale(0.015625)"/>
      <path id="DejaVuSans-64" d="M 2906 2969 
L 2906 4863 
L 3481 4863 
L 3481 0 
L 2906 0 
L 2906 525 
Q 2725 213 2448 61 
Q 2172 -91 1784 -91 
Q 1150 -91 751 415 
Q 353 922 353 1747 
Q 353 2572 751 3078 
Q 1150 3584 1784 3584 
Q 2172 3584 2448 3432 
Q 2725 3281 2906 2969 
z
M 947 1747 
Q 947 1113 1208 752 
Q 1469 391 1925 391 
Q 2381 391 2643 752 
Q 2906 1113 2906 1747 
Q 2906 2381 2643 2742 
Q 2381 3103 1925 3103 
Q 1469 3103 1208 2742 
Q 947 2381 947 1747 
z
" transform="scale(0.015625)"/>
      <path id="DejaVuSans-50" d="M 1259 4147 
L 1259 2394 
L 2053 2394 
Q 2494 2394 2734 2622 
Q 2975 2850 2975 3272 
Q 2975 3691 2734 3919 
Q 2494 4147 2053 4147 
L 1259 4147 
z
M 628 4666 
L 2053 4666 
Q 2838 4666 3239 4311 
Q 3641 3956 3641 3272 
Q 3641 2581 3239 2228 
Q 2838 1875 2053 1875 
L 1259 1875 
L 1259 0 
L 628 0 
L 628 4666 
z
" transform="scale(0.015625)"/>
      <path id="DejaVuSans-6c" d="M 603 4863 
L 1178 4863 
L 1178 0 
L 603 0 
L 603 4863 
z
" transform="scale(0.015625)"/>
      <path id="DejaVuSans-2c" d="M 750 794 
L 1409 794 
L 1409 256 
L 897 -744 
L 494 -744 
L 750 256 
L 750 794 
z
" transform="scale(0.015625)"/>
      <path id="DejaVuSans-79" d="M 2059 -325 
Q 1816 -950 1584 -1140 
Q 1353 -1331 966 -1331 
L 506 -1331 
L 506 -850 
L 844 -850 
Q 1081 -850 1212 -737 
Q 1344 -625 1503 -206 
L 1606 56 
L 191 3500 
L 800 3500 
L 1894 763 
L 2988 3500 
L 3597 3500 
L 2059 -325 
z
" transform="scale(0.015625)"/>
      <path id="DejaVuSans-2e" d="M 684 794 
L 1344 794 
L 1344 0 
L 684 0 
L 684 794 
z
" transform="scale(0.015625)"/>
      <path id="DejaVuSans-3a" d="M 750 794 
L 1409 794 
L 1409 0 
L 750 0 
L 750 794 
z
M 750 3309 
L 1409 3309 
L 1409 2516 
L 750 2516 
L 750 3309 
z
" transform="scale(0.015625)"/>
      <path id="DejaVuSans-35" d="M 691 4666 
L 3169 4666 
L 3169 4134 
L 1269 4134 
L 1269 2991 
Q 1406 3038 1543 3061 
Q 1681 3084 1819 3084 
Q 2600 3084 3056 2656 
Q 3513 2228 3513 1497 
Q 3513 744 3044 326 
Q 2575 -91 1722 -91 
Q 1428 -91 1123 -41 
Q 819 9 494 109 
L 494 744 
Q 775 591 1075 516 
Q 1375 441 1709 441 
Q 2250 441 2565 725 
Q 2881 1009 2881 1497 
Q 2881 1984 2565 2268 
Q 2250 2553 1709 2553 
Q 1456 2553 1204 2497 
Q 953 2441 691 2322 
L 691 4666 
z
" transform="scale(0.015625)"/>
      <path id="DejaVuSans-2d" d="M 313 2009 
L 1997 2009 
L 1997 1497 
L 313 1497 
L 313 2009 
z
" transform="scale(0.015625)"/>
     </defs>
     <use xlink:href="#DejaVuSans-4e"/>
     <use xlink:href="#DejaVuSans-75" x="74.804688"/>
     <use xlink:href="#DejaVuSans-6d" x="138.183594"/>
     <use xlink:href="#DejaVuSans-62" x="235.595703"/>
     <use xlink:href="#DejaVuSans-65" x="299.072266"/>
     <use xlink:href="#DejaVuSans-72" x="360.595703"/>
     <use xlink:href="#DejaVuSans-20" x="401.708984"/>
     <use xlink:href="#DejaVuSans-6f" x="433.496094"/>
     <use xlink:href="#DejaVuSans-66" x="494.677734"/>
     <use xlink:href="#DejaVuSans-20" x="529.882812"/>
     <use xlink:href="#DejaVuSans-41" x="561.669922"/>
     <use xlink:href="#DejaVuSans-45" x="630.078125"/>
     <use xlink:href="#DejaVuSans-44" x="693.261719"/>
     <use xlink:href="#DejaVuSans-73" x="770.263672"/>
     <use xlink:href="#DejaVuSans-20" x="822.363281"/>
     <use xlink:href="#DejaVuSans-69" x="854.150391"/>
     <use xlink:href="#DejaVuSans-6e" x="881.933594"/>
     <use xlink:href="#DejaVuSans-20" x="945.3125"/>
     <use xlink:href="#DejaVuSans-74" x="977.099609"/>
     <use xlink:href="#DejaVuSans-68" x="1016.308594"/>
     <use xlink:href="#DejaVuSans-65" x="1079.6875"/>
     <use xlink:href="#DejaVuSans-20" x="1141.210938"/>
     <use xlink:href="#DejaVuSans-4f" x="1172.998047"/>
     <use xlink:href="#DejaVuSans-70" x="1251.708984"/>
     <use xlink:href="#DejaVuSans-65" x="1315.185547"/>
     <use xlink:href="#DejaVuSans-6e" x="1376.708984"/>
     <use xlink:href="#DejaVuSans-53" x="1440.087891"/>
     <use xlink:href="#DejaVuSans-74" x="1503.564453"/>
     <use xlink:href="#DejaVuSans-72" x="1542.773438"/>
     <use xlink:href="#DejaVuSans-65" x="1581.636719"/>
     <use xlink:href="#DejaVuSans-65" x="1643.160156"/>
     <use xlink:href="#DejaVuSans-74" x="1704.683594"/>
     <use xlink:href="#DejaVuSans-4d" x="1743.892578"/>
     <use xlink:href="#DejaVuSans-61" x="1830.171875"/>
     <use xlink:href="#DejaVuSans-70" x="1891.451172"/>
     <use xlink:href="#DejaVuSans-20" x="1954.927734"/>
     <use xlink:href="#DejaVuSans-64" x="1986.714844"/>
     <use xlink:href="#DejaVuSans-61" x="2050.191406"/>
     <use xlink:href="#DejaVuSans-74" x="2111.470703"/>
     <use xlink:href="#DejaVuSans-61" x="2150.679688"/>
     <use xlink:href="#DejaVuSans-62" x="2211.958984"/>
     <use xlink:href="#DejaVuSans-61" x="2275.435547"/>
     <use xlink:href="#DejaVuSans-73" x="2336.714844"/>
     <use xlink:href="#DejaVuSans-65" x="2388.814453"/>
     <use xlink:href="#DejaVuSans-20" x="2450.337891"/>
     <use xlink:href="#DejaVuSans-69" x="2482.125"/>
     <use xlink:href="#DejaVuSans-6e" x="2509.908203"/>
     <use xlink:href="#DejaVuSans-20" x="2573.287109"/>
     <use xlink:href="#DejaVuSans-50" x="2605.074219"/>
     <use xlink:href="#DejaVuSans-6f" x="2661.751953"/>
     <use xlink:href="#DejaVuSans-6c" x="2722.933594"/>
     <use xlink:href="#DejaVuSans-61" x="2750.716797"/>
     <use xlink:href="#DejaVuSans-6e" x="2811.996094"/>
     <use xlink:href="#DejaVuSans-64" x="2875.375"/>
     <use xlink:href="#DejaVuSans-20" x="2938.851562"/>
     <use xlink:href="#DejaVuSans-66" x="2970.638672"/>
     <use xlink:href="#DejaVuSans-72" x="3005.84375"/>
     <use xlink:href="#DejaVuSans-6f" x="3044.707031"/>
     <use xlink:href="#DejaVuSans-6d" x="3105.888672"/>
     <use xlink:href="#DejaVuSans-20" x="3203.300781"/>
     <use xlink:href="#DejaVuSans-66" x="3235.087891"/>
     <use xlink:href="#DejaVuSans-69" x="3270.292969"/>
     <use xlink:href="#DejaVuSans-72" x="3298.076172"/>
     <use xlink:href="#DejaVuSans-73" x="3339.189453"/>
     <use xlink:href="#DejaVuSans-74" x="3391.289062"/>
     <use xlink:href="#DejaVuSans-20" x="3430.498047"/>
     <use xlink:href="#DejaVuSans-65" x="3462.285156"/>
     <use xlink:href="#DejaVuSans-64" x="3523.808594"/>
     <use xlink:href="#DejaVuSans-69" x="3587.285156"/>
     <use xlink:href="#DejaVuSans-74" x="3615.068359"/>
     <use xlink:href="#DejaVuSans-69" x="3654.277344"/>
     <use xlink:href="#DejaVuSans-6f" x="3682.060547"/>
     <use xlink:href="#DejaVuSans-6e" x="3743.242188"/>
     <use xlink:href="#DejaVuSans-2c" x="3806.621094"/>
     <use xlink:href="#DejaVuSans-20" x="3838.408203"/>
     <use xlink:href="#DejaVuSans-64" x="3870.195312"/>
     <use xlink:href="#DejaVuSans-61" x="3933.671875"/>
     <use xlink:href="#DejaVuSans-79" x="3994.951172"/>
     <use xlink:href="#DejaVuSans-20" x="4054.130859"/>
     <use xlink:href="#DejaVuSans-62" x="4085.917969"/>
     <use xlink:href="#DejaVuSans-79" x="4149.394531"/>
     <use xlink:href="#DejaVuSans-20" x="4208.574219"/>
     <use xlink:href="#DejaVuSans-64" x="4240.361328"/>
     <use xlink:href="#DejaVuSans-61" x="4303.837891"/>
     <use xlink:href="#DejaVuSans-79" x="4365.117188"/>
     <use xlink:href="#DejaVuSans-2e" x="4410.046875"/>
     <use xlink:href="#DejaVuSans-20" x="4441.833984"/>
     <use xlink:href="#DejaVuSans-41" x="4473.621094"/>
     <use xlink:href="#DejaVuSans-73" x="4542.029297"/>
     <use xlink:href="#DejaVuSans-20" x="4594.128906"/>
     <use xlink:href="#DejaVuSans-61" x="4625.916016"/>
     <use xlink:href="#DejaVuSans-74" x="4687.195312"/>
     <use xlink:href="#DejaVuSans-3a" x="4726.404297"/>
     <use xlink:href="#DejaVuSans-20" x="4760.095703"/>
     <use xlink:href="#DejaVuSans-32" x="4791.882812"/>
     <use xlink:href="#DejaVuSans-30" x="4855.505859"/>
     <use xlink:href="#DejaVuSans-32" x="4919.128906"/>
     <use xlink:href="#DejaVuSans-35" x="4982.751953"/>
     <use xlink:href="#DejaVuSans-2d" x="5046.375"/>
     <use xlink:href="#DejaVuSans-31" x="5082.458984"/>
     <use xlink:href="#DejaVuSans-31" x="5146.082031"/>
     <use xlink:href="#DejaVuSans-2d" x="5209.705078"/>
     <use xlink:href="#DejaVuSans-32" x="5245.789062"/>
     <use xlink:href="#DejaVuSans-30" x="5309.412109"/>
    </g>
   </g>
  </g>
 </g>
 <defs>
  <clipPath id="pd75e513114">
   <rect x="144" y="69.12" width="892.8" height="443.52"/>
  </clipPath>
 </defs>
</svg>
