<?xml version="1.0" encoding="utf-8" standalone="no"?>
<!DOCTYPE svg PUBLIC "-//W3C//DTD SVG 1.1//EN"
  "http://www.w3.org/Graphics/SVG/1.1/DTD/svg11.dtd">
<svg xmlns:xlink="http://www.w3.org/1999/xlink" width="1152pt" height="576pt" viewBox="0 0 1152 576" xmlns="http://www.w3.org/2000/svg" version="1.1">
 <metadata>
  <rdf:RDF xmlns:dc="http://purl.org/dc/elements/1.1/" xmlns:cc="http://creativecommons.org/ns#" xmlns:rdf="http://www.w3.org/1999/02/22-rdf-syntax-ns#">
   <cc:Work>
    <dc:type rdf:resource="http://purl.org/dc/dcmitype/StillImage"/>
    <dc:date>1980-01-01T00:00:00+00:00</dc:date>
    <dc:format>image/svg+xml</dc:format>
    <dc:creator>
     <cc:Agent>
      <dc:title>Matplotlib v3.9.1, https://matplotlib.org/</dc:title>
     </cc:Agent>
    </dc:creator>
   </cc:Work>
  </rdf:RDF>
 </metadata>
 <defs>
  <style type="text/css">*{stroke-linejoin: round; stroke-linecap: butt}</style>
 </defs>
 <g id="figure_1">
  <g id="patch_1">
   <path d="M 0 576 
L 1152 576 
L 1152 0 
L 0 0 
z
" style="fill: #ffffff"/>
  </g>
  <g id="axes_1">
   <g id="patch_2">
    <path d="M 144 512.64 
L 1036.8 512.64 
L 1036.8 69.12 
L 144 69.12 
z
" style="fill: #ffffff"/>
   </g>
   <g id="matplotlib.axis_1">
    <g id="xtick_1">
     <g id="line2d_1">
      <defs>
       <path id="m292ba9a42a" d="M 0 0 
L 0 3.5 
" style="stroke: #000000; stroke-width: 0.8"/>
      </defs>
      <g>
       <use xlink:href="#m292ba9a42a" x="176.667275" y="512.64" style="stroke: #000000; stroke-width: 0.8"/>
      </g>
     </g>
     <g id="text_1">
      <!-- 2014 -->
      <g transform="translate(163.942275 527.238438) scale(0.1 -0.1)">
       <defs>
        <path id="DejaVuSans-32" d="M 1228 531 
L 3431 531 
L 3431 0 
L 469 0 
L 469 531 
Q 828 903 1448 1529 
Q 2069 2156 2228 2338 
Q 2531 2678 2651 2914 
Q 2772 3150 2772 3378 
Q 2772 3750 2511 3984 
Q 2250 4219 1831 4219 
Q 1534 4219 1204 4116 
Q 875 4013 500 3803 
L 500 4441 
Q 881 4594 1212 4672 
Q 1544 4750 1819 4750 
Q 2544 4750 2975 4387 
Q 3406 4025 3406 3419 
Q 3406 3131 3298 2873 
Q 3191 2616 2906 2266 
Q 2828 2175 2409 1742 
Q 1991 1309 1228 531 
z
" transform="scale(0.015625)"/>
        <path id="DejaVuSans-30" d="M 2034 4250 
Q 1547 4250 1301 3770 
Q 1056 3291 1056 2328 
Q 1056 1369 1301 889 
Q 1547 409 2034 409 
Q 2525 409 2770 889 
Q 3016 1369 3016 2328 
Q 3016 3291 2770 3770 
Q 2525 4250 2034 4250 
z
M 2034 4750 
Q 2819 4750 3233 4129 
Q 3647 3509 3647 2328 
Q 3647 1150 3233 529 
Q 2819 -91 2034 -91 
Q 1250 -91 836 529 
Q 422 1150 422 2328 
Q 422 3509 836 4129 
Q 1250 4750 2034 4750 
z
" transform="scale(0.015625)"/>
        <path id="DejaVuSans-31" d="M 794 531 
L 1825 531 
L 1825 4091 
L 703 3866 
L 703 4441 
L 1819 4666 
L 2450 4666 
L 2450 531 
L 3481 531 
L 3481 0 
L 794 0 
L 794 531 
z
" transform="scale(0.015625)"/>
        <path id="DejaVuSans-34" d="M 2419 4116 
L 825 1625 
L 2419 1625 
L 2419 4116 
z
M 2253 4666 
L 3047 4666 
L 3047 1625 
L 3713 1625 
L 3713 1100 
L 3047 1100 
L 3047 0 
L 2419 0 
L 2419 1100 
L 313 1100 
L 313 1709 
L 2253 4666 
z
" transform="scale(0.015625)"/>
       </defs>
       <use xlink:href="#DejaVuSans-32"/>
       <use xlink:href="#DejaVuSans-30" x="63.623047"/>
       <use xlink:href="#DejaVuSans-31" x="127.246094"/>
       <use xlink:href="#DejaVuSans-34" x="190.869141"/>
      </g>
     </g>
    </g>
    <g id="xtick_2">
     <g id="line2d_2">
      <g>
       <use xlink:href="#m292ba9a42a" x="321.107681" y="512.64" style="stroke: #000000; stroke-width: 0.8"/>
      </g>
     </g>
     <g id="text_2">
      <!-- 2016 -->
      <g transform="translate(308.382681 527.238438) scale(0.1 -0.1)">
       <defs>
        <path id="DejaVuSans-36" d="M 2113 2584 
Q 1688 2584 1439 2293 
Q 1191 2003 1191 1497 
Q 1191 994 1439 701 
Q 1688 409 2113 409 
Q 2538 409 2786 701 
Q 3034 994 3034 1497 
Q 3034 2003 2786 2293 
Q 2538 2584 2113 2584 
z
M 3366 4563 
L 3366 3988 
Q 3128 4100 2886 4159 
Q 2644 4219 2406 4219 
Q 1781 4219 1451 3797 
Q 1122 3375 1075 2522 
Q 1259 2794 1537 2939 
Q 1816 3084 2150 3084 
Q 2853 3084 3261 2657 
Q 3669 2231 3669 1497 
Q 3669 778 3244 343 
Q 2819 -91 2113 -91 
Q 1303 -91 875 529 
Q 447 1150 447 2328 
Q 447 3434 972 4092 
Q 1497 4750 2381 4750 
Q 2619 4750 2861 4703 
Q 3103 4656 3366 4563 
z
" transform="scale(0.015625)"/>
       </defs>
       <use xlink:href="#DejaVuSans-32"/>
       <use xlink:href="#DejaVuSans-30" x="63.623047"/>
       <use xlink:href="#DejaVuSans-31" x="127.246094"/>
       <use xlink:href="#DejaVuSans-36" x="190.869141"/>
      </g>
     </g>
    </g>
    <g id="xtick_3">
     <g id="line2d_3">
      <g>
       <use xlink:href="#m292ba9a42a" x="465.745951" y="512.64" style="stroke: #000000; stroke-width: 0.8"/>
      </g>
     </g>
     <g id="text_3">
      <!-- 2018 -->
      <g transform="translate(453.020951 527.238438) scale(0.1 -0.1)">
       <defs>
        <path id="DejaVuSans-38" d="M 2034 2216 
Q 1584 2216 1326 1975 
Q 1069 1734 1069 1313 
Q 1069 891 1326 650 
Q 1584 409 2034 409 
Q 2484 409 2743 651 
Q 3003 894 3003 1313 
Q 3003 1734 2745 1975 
Q 2488 2216 2034 2216 
z
M 1403 2484 
Q 997 2584 770 2862 
Q 544 3141 544 3541 
Q 544 4100 942 4425 
Q 1341 4750 2034 4750 
Q 2731 4750 3128 4425 
Q 3525 4100 3525 3541 
Q 3525 3141 3298 2862 
Q 3072 2584 2669 2484 
Q 3125 2378 3379 2068 
Q 3634 1759 3634 1313 
Q 3634 634 3220 271 
Q 2806 -91 2034 -91 
Q 1263 -91 848 271 
Q 434 634 434 1313 
Q 434 1759 690 2068 
Q 947 2378 1403 2484 
z
M 1172 3481 
Q 1172 3119 1398 2916 
Q 1625 2713 2034 2713 
Q 2441 2713 2670 2916 
Q 2900 3119 2900 3481 
Q 2900 3844 2670 4047 
Q 2441 4250 2034 4250 
Q 1625 4250 1398 4047 
Q 1172 3844 1172 3481 
z
" transform="scale(0.015625)"/>
       </defs>
       <use xlink:href="#DejaVuSans-32"/>
       <use xlink:href="#DejaVuSans-30" x="63.623047"/>
       <use xlink:href="#DejaVuSans-31" x="127.246094"/>
       <use xlink:href="#DejaVuSans-38" x="190.869141"/>
      </g>
     </g>
    </g>
    <g id="xtick_4">
     <g id="line2d_4">
      <g>
       <use xlink:href="#m292ba9a42a" x="610.186357" y="512.64" style="stroke: #000000; stroke-width: 0.8"/>
      </g>
     </g>
     <g id="text_4">
      <!-- 2020 -->
      <g transform="translate(597.461357 527.238438) scale(0.1 -0.1)">
       <use xlink:href="#DejaVuSans-32"/>
       <use xlink:href="#DejaVuSans-30" x="63.623047"/>
       <use xlink:href="#DejaVuSans-32" x="127.246094"/>
       <use xlink:href="#DejaVuSans-30" x="190.869141"/>
      </g>
     </g>
    </g>
    <g id="xtick_5">
     <g id="line2d_5">
      <g>
       <use xlink:href="#m292ba9a42a" x="754.824627" y="512.64" style="stroke: #000000; stroke-width: 0.8"/>
      </g>
     </g>
     <g id="text_5">
      <!-- 2022 -->
      <g transform="translate(742.099627 527.238438) scale(0.1 -0.1)">
       <use xlink:href="#DejaVuSans-32"/>
       <use xlink:href="#DejaVuSans-30" x="63.623047"/>
       <use xlink:href="#DejaVuSans-32" x="127.246094"/>
       <use xlink:href="#DejaVuSans-32" x="190.869141"/>
      </g>
     </g>
    </g>
    <g id="xtick_6">
     <g id="line2d_6">
      <g>
       <use xlink:href="#m292ba9a42a" x="899.265033" y="512.64" style="stroke: #000000; stroke-width: 0.8"/>
      </g>
     </g>
     <g id="text_6">
      <!-- 2024 -->
      <g transform="translate(886.540033 527.238438) scale(0.1 -0.1)">
       <use xlink:href="#DejaVuSans-32"/>
       <use xlink:href="#DejaVuSans-30" x="63.623047"/>
       <use xlink:href="#DejaVuSans-32" x="127.246094"/>
       <use xlink:href="#DejaVuSans-34" x="190.869141"/>
      </g>
     </g>
    </g>
   </g>
   <g id="matplotlib.axis_2">
    <g id="ytick_1">
     <g id="line2d_7">
      <defs>
       <path id="m081847f68b" d="M 0 0 
L -3.5 0 
" style="stroke: #000000; stroke-width: 0.8"/>
      </defs>
      <g>
       <use xlink:href="#m081847f68b" x="144" y="492.516331" style="stroke: #000000; stroke-width: 0.8"/>
      </g>
     </g>
     <g id="text_7">
      <!-- 0 -->
      <g transform="translate(130.6375 496.31555) scale(0.1 -0.1)">
       <use xlink:href="#DejaVuSans-30"/>
      </g>
     </g>
    </g>
    <g id="ytick_2">
     <g id="line2d_8">
      <g>
       <use xlink:href="#m081847f68b" x="144" y="419.85459" style="stroke: #000000; stroke-width: 0.8"/>
      </g>
     </g>
     <g id="text_8">
      <!-- 2000 -->
      <g transform="translate(111.55 423.653809) scale(0.1 -0.1)">
       <use xlink:href="#DejaVuSans-32"/>
       <use xlink:href="#DejaVuSans-30" x="63.623047"/>
       <use xlink:href="#DejaVuSans-30" x="127.246094"/>
       <use xlink:href="#DejaVuSans-30" x="190.869141"/>
      </g>
     </g>
    </g>
    <g id="ytick_3">
     <g id="line2d_9">
      <g>
       <use xlink:href="#m081847f68b" x="144" y="347.192849" style="stroke: #000000; stroke-width: 0.8"/>
      </g>
     </g>
     <g id="text_9">
      <!-- 4000 -->
      <g transform="translate(111.55 350.992068) scale(0.1 -0.1)">
       <use xlink:href="#DejaVuSans-34"/>
       <use xlink:href="#DejaVuSans-30" x="63.623047"/>
       <use xlink:href="#DejaVuSans-30" x="127.246094"/>
       <use xlink:href="#DejaVuSans-30" x="190.869141"/>
      </g>
     </g>
    </g>
    <g id="ytick_4">
     <g id="line2d_10">
      <g>
       <use xlink:href="#m081847f68b" x="144" y="274.531108" style="stroke: #000000; stroke-width: 0.8"/>
      </g>
     </g>
     <g id="text_10">
      <!-- 6000 -->
      <g transform="translate(111.55 278.330327) scale(0.1 -0.1)">
       <use xlink:href="#DejaVuSans-36"/>
       <use xlink:href="#DejaVuSans-30" x="63.623047"/>
       <use xlink:href="#DejaVuSans-30" x="127.246094"/>
       <use xlink:href="#DejaVuSans-30" x="190.869141"/>
      </g>
     </g>
    </g>
    <g id="ytick_5">
     <g id="line2d_11">
      <g>
       <use xlink:href="#m081847f68b" x="144" y="201.869367" style="stroke: #000000; stroke-width: 0.8"/>
      </g>
     </g>
     <g id="text_11">
      <!-- 8000 -->
      <g transform="translate(111.55 205.668586) scale(0.1 -0.1)">
       <use xlink:href="#DejaVuSans-38"/>
       <use xlink:href="#DejaVuSans-30" x="63.623047"/>
       <use xlink:href="#DejaVuSans-30" x="127.246094"/>
       <use xlink:href="#DejaVuSans-30" x="190.869141"/>
      </g>
     </g>
    </g>
    <g id="ytick_6">
     <g id="line2d_12">
      <g>
       <use xlink:href="#m081847f68b" x="144" y="129.207627" style="stroke: #000000; stroke-width: 0.8"/>
      </g>
     </g>
     <g id="text_12">
      <!-- 10000 -->
      <g transform="translate(105.1875 133.006845) scale(0.1 -0.1)">
       <use xlink:href="#DejaVuSans-31"/>
       <use xlink:href="#DejaVuSans-30" x="63.623047"/>
       <use xlink:href="#DejaVuSans-30" x="127.246094"/>
       <use xlink:href="#DejaVuSans-30" x="190.869141"/>
       <use xlink:href="#DejaVuSans-30" x="254.492188"/>
      </g>
     </g>
    </g>
   </g>
   <g id="line2d_13">
    <path d="M 184.581818 492.48 
L 186.36259 492.407338 
L 310.027321 492.189353 
L 454.863455 492.007699 
L 508.682346 491.789713 
L 522.730659 491.680721 
L 556.367466 491.499066 
L 557.950375 491.426405 
L 567.052099 491.317412 
L 609.79063 491.135758 
L 610.384221 491.099427 
L 616.715855 491.026765 
L 617.111582 490.736118 
L 621.266717 490.554464 
L 656.090705 490.40914 
L 660.047977 490.300148 
L 674.294154 490.154824 
L 684.187332 490.082163 
L 698.235646 489.864177 
L 701.995053 489.718854 
L 711.690368 489.500869 
L 714.460458 489.319214 
L 716.24123 489.210222 
L 717.626275 489.028567 
L 725.145091 488.810582 
L 725.342955 488.774251 
L 729.49809 488.628928 
L 736.027587 488.120296 
L 746.316493 487.865979 
L 752.450264 486.049436 
L 753.043854 486.013105 
L 753.835309 485.431811 
L 754.033172 484.523539 
L 754.428899 484.305554 
L 754.626763 484.269223 
L 754.824627 483.033974 
L 756.011808 482.525342 
L 756.407535 481.907717 
L 756.803262 481.653401 
L 757.001126 481.072107 
L 757.198989 479.582541 
L 757.396853 479.219232 
L 757.594717 478.456284 
L 757.79258 477.221034 
L 757.990444 475.113844 
L 758.386171 473.515286 
L 758.584034 473.224639 
L 758.781898 468.356302 
L 758.979762 466.394435 
L 759.177625 465.631487 
L 759.375489 462.034731 
L 759.969079 457.929342 
L 760.166943 457.784019 
L 760.56267 455.713159 
L 760.760534 455.022873 
L 760.958397 449.718566 
L 761.156261 449.246264 
L 761.551988 447.502382 
L 761.749852 447.39339 
L 761.947715 446.485118 
L 762.145579 442.670377 
L 762.343442 441.725774 
L 762.541306 441.653112 
L 762.739169 438.782974 
L 762.937033 438.20168 
L 763.33276 438.020025 
L 764.124214 435.258879 
L 764.519941 434.495931 
L 764.915669 432.316079 
L 765.113532 431.480469 
L 765.311396 427.37508 
L 765.904986 422.797391 
L 766.498577 422.579405 
L 766.894304 422.325089 
L 767.685759 420.799193 
L 768.081486 420.653869 
L 768.477213 417.456753 
L 768.675076 417.420422 
L 769.070804 416.875459 
L 769.268667 415.313231 
L 769.664394 414.695606 
L 770.060121 413.678342 
L 770.653712 413.387695 
L 770.851576 413.097048 
L 771.445166 410.808203 
L 771.64303 410.66288 
L 772.038757 410.081586 
L 772.830211 409.681946 
L 773.028075 408.192381 
L 773.225939 408.083388 
L 773.423802 407.792741 
L 773.621666 404.849941 
L 774.017393 404.740948 
L 774.41312 403.905338 
L 774.610984 403.17872 
L 775.204574 403.033397 
L 775.798165 401.90714 
L 775.996029 401.870809 
L 776.391756 401.253184 
L 776.787483 401.107861 
L 776.985346 397.765421 
L 778.172528 397.474774 
L 778.568255 397.184127 
L 779.359709 397.075134 
L 779.557573 396.857149 
L 781.931936 396.130532 
L 782.72339 395.549238 
L 783.712708 395.403914 
L 784.108435 395.113267 
L 784.504162 394.967944 
L 786.482798 394.422981 
L 787.274252 391.334857 
L 788.26357 391.189533 
L 788.461433 391.116872 
L 790.044342 390.935217 
L 790.637933 390.717232 
L 790.835796 390.099607 
L 791.825114 390.026945 
L 792.418705 389.699968 
L 794.397341 388.755365 
L 794.595204 388.501049 
L 795.386658 388.174071 
L 796.375976 388.028748 
L 796.57384 387.774431 
L 796.969567 387.738101 
L 797.167431 387.084145 
L 797.365294 387.011483 
L 797.563158 386.175873 
L 799.93752 385.63091 
L 800.531111 385.485587 
L 800.728975 384.976954 
L 802.11402 384.613646 
L 802.70761 384.39566 
L 803.499065 384.214006 
L 804.290519 383.996021 
L 805.279837 383.778036 
L 805.873428 383.596381 
L 807.258473 382.760771 
L 807.456336 382.034154 
L 808.445654 381.198544 
L 808.643518 380.835235 
L 809.632835 379.963294 
L 810.028563 379.200346 
L 810.226426 379.164015 
L 810.42429 378.437398 
L 811.215744 377.347472 
L 811.611471 377.165817 
L 812.007198 377.093156 
L 812.205062 376.766178 
L 812.600789 376.584523 
L 812.798653 376.221215 
L 813.78797 375.930568 
L 813.985834 375.60359 
L 815.370879 375.276612 
L 815.766606 375.094958 
L 815.96447 375.058627 
L 816.162333 374.876972 
L 817.151651 374.731649 
L 818.536696 374.077693 
L 819.130287 373.93237 
L 819.526014 373.09676 
L 819.921741 372.842444 
L 820.911059 372.006834 
L 821.108922 371.171224 
L 821.900377 370.916908 
L 823.087558 370.517268 
L 823.483285 369.899643 
L 824.076876 369.536334 
L 824.27474 369.500004 
L 824.670467 368.91871 
L 825.264057 368.700724 
L 825.659785 368.373747 
L 826.253375 368.0831 
L 826.649102 363.723395 
L 826.846966 362.379153 
L 827.04483 360.090308 
L 827.242693 359.799661 
L 828.034147 357.002184 
L 828.429875 356.275567 
L 828.627738 356.166574 
L 828.825602 355.912258 
L 829.023465 355.403626 
L 829.221329 353.768737 
L 829.419192 353.369097 
L 829.81492 353.223774 
L 831.002101 350.753274 
L 831.199965 350.57162 
L 831.397828 349.590687 
L 831.595692 349.227378 
L 831.991419 348.282775 
L 832.387146 347.701481 
L 833.1786 347.192849 
L 833.376464 346.974864 
L 833.574327 345.775945 
L 833.970055 345.594291 
L 834.365782 345.194651 
L 834.959372 344.359041 
L 835.157236 343.596093 
L 835.3551 343.559762 
L 835.94869 342.833145 
L 836.344417 342.760483 
L 836.542281 342.397174 
L 836.938008 342.142858 
L 837.135872 341.852211 
L 837.927326 338.945742 
L 838.125189 337.456176 
L 838.323053 336.911213 
L 839.312371 335.930279 
L 839.510234 335.857618 
L 839.708098 335.494309 
L 840.103825 334.041074 
L 841.291007 333.387118 
L 841.686734 332.515178 
L 841.884597 332.369854 
L 842.676052 330.771296 
L 843.269642 330.407987 
L 844.061097 330.153671 
L 844.654687 328.809429 
L 845.446142 328.409789 
L 846.237596 327.428856 
L 846.633323 327.356194 
L 847.02905 326.883893 
L 847.622641 326.629577 
L 848.018368 326.556915 
L 848.216232 326.33893 
L 848.414095 325.648643 
L 849.205549 325.394327 
L 849.403413 325.031018 
L 849.601277 324.994687 
L 849.79914 324.304401 
L 850.392731 324.050085 
L 850.986322 323.904761 
L 851.382049 323.505122 
L 852.371367 322.996489 
L 852.767094 322.560519 
L 853.162821 322.306203 
L 853.558548 322.269872 
L 853.756412 321.288939 
L 853.954275 321.034622 
L 854.745729 320.671314 
L 855.33932 320.271674 
L 856.130774 320.126351 
L 856.328638 319.109086 
L 856.922229 318.745778 
L 857.120092 318.491462 
L 857.515819 318.455131 
L 858.10941 318.055491 
L 858.505137 317.982829 
L 858.703001 317.655852 
L 859.494455 317.328874 
L 859.692319 316.929234 
L 860.088046 316.892903 
L 860.483773 316.638587 
L 861.077364 316.311609 
L 861.275227 315.802977 
L 862.066681 315.403338 
L 862.264545 315.07636 
L 862.660272 314.858374 
L 862.858136 314.604058 
L 863.451726 314.277081 
L 863.64959 313.950103 
L 863.847454 313.877441 
L 864.243181 313.586794 
L 864.638908 313.40514 
L 864.836771 313.187154 
L 866.023953 312.751184 
L 866.221816 312.315214 
L 866.41968 312.206221 
L 867.408998 311.951905 
L 867.804725 311.624927 
L 868.200452 311.479604 
L 868.794043 311.297949 
L 868.991906 310.970971 
L 869.387634 310.89831 
L 869.585497 310.244354 
L 869.783361 310.09903 
L 870.179088 309.626729 
L 870.376951 308.500472 
L 870.574815 308.42781 
L 871.564133 307.483208 
L 872.355587 306.75659 
L 872.751314 306.574936 
L 872.949178 306.138966 
L 873.147041 306.066304 
L 873.542768 305.630333 
L 873.938496 305.376017 
L 874.532086 305.158032 
L 875.125677 304.467746 
L 875.521404 304.140768 
L 875.917131 303.704797 
L 877.104313 302.723864 
L 878.093631 302.469548 
L 878.687221 301.706599 
L 879.082948 301.270629 
L 879.676539 300.870989 
L 880.467993 300.507681 
L 880.665857 300.326026 
L 881.457311 299.999048 
L 881.853038 299.63574 
L 882.446629 299.417755 
L 883.04022 299.054446 
L 883.633811 298.80013 
L 883.831674 298.618475 
L 886.008173 297.710204 
L 886.206037 297.346895 
L 887.591082 296.765601 
L 888.184673 296.365961 
L 888.382536 296.329631 
L 888.976127 295.820998 
L 889.767581 295.603013 
L 889.965445 295.094381 
L 890.163308 293.423161 
L 890.559036 292.98719 
L 890.756899 292.95086 
L 891.152626 292.187911 
L 891.548353 291.642948 
L 891.94408 291.31597 
L 892.339808 290.189713 
L 892.735535 289.826405 
L 893.131262 289.572089 
L 893.526989 289.463096 
L 893.724853 289.172449 
L 894.12058 288.954464 
L 894.516307 288.591155 
L 894.912034 288.409501 
L 895.109898 288.300508 
L 895.307761 287.900869 
L 895.703488 287.755545 
L 895.901352 287.319575 
L 896.494943 287.101589 
L 896.89067 286.520296 
L 897.48426 286.047994 
L 897.879988 285.648355 
L 898.473578 285.539362 
L 898.671442 285.212384 
L 899.265033 284.994399 
L 899.66076 283.395841 
L 900.056487 283.032532 
L 901.243668 282.378576 
L 901.441532 281.797282 
L 901.837259 281.579297 
L 902.035123 281.070665 
L 902.232986 280.961672 
L 902.43085 280.598364 
L 903.420168 279.980739 
L 904.211622 279.363114 
L 904.409485 279.290452 
L 905.398803 278.236857 
L 905.596667 277.764556 
L 905.79453 277.655563 
L 906.190258 277.582901 
L 906.388121 277.183262 
L 906.783848 277.001607 
L 907.179575 276.783622 
L 907.377439 276.129667 
L 908.168893 275.657365 
L 908.366757 275.00341 
L 909.158211 274.313123 
L 909.356075 274.276792 
L 909.553938 273.877153 
L 910.345392 273.33219 
L 910.543256 272.968881 
L 910.938983 272.823557 
L 911.136847 272.133271 
L 911.532574 272.024278 
L 911.730437 271.6973 
L 911.928301 271.624639 
L 912.126165 270.86169 
L 912.521892 270.752698 
L 912.917619 270.389389 
L 913.313346 269.808095 
L 913.51121 269.662772 
L 914.302664 268.427522 
L 914.500527 268.35486 
L 914.896255 267.91889 
L 915.687709 267.337596 
L 916.2813 267.046949 
L 918.062072 265.157744 
L 918.457799 265.01242 
L 918.853526 264.57645 
L 919.249253 264.431126 
L 919.447117 263.559185 
L 920.040707 262.941561 
L 920.238571 262.214943 
L 920.634298 261.815304 
L 920.832162 261.415664 
L 921.030025 261.379333 
L 922.019343 260.362069 
L 922.612934 259.99876 
L 922.810797 259.671782 
L 923.997979 259.272143 
L 924.59157 258.509194 
L 924.987297 257.818908 
L 925.383024 257.673584 
L 925.580887 257.346607 
L 925.778751 257.237614 
L 925.976615 256.983298 
L 926.174478 256.946967 
L 926.372342 256.510997 
L 927.163796 255.966034 
L 927.95525 255.38474 
L 928.153114 255.348409 
L 929.340295 254.367475 
L 929.736022 254.185821 
L 929.933886 253.822512 
L 930.329613 253.74985 
L 930.923204 253.132226 
L 931.121067 252.805248 
L 931.714658 252.514601 
L 932.308249 252.114961 
L 932.703976 251.969638 
L 933.099703 251.533667 
L 934.089021 250.952373 
L 934.286884 250.698057 
L 935.078339 250.334749 
L 935.276202 248.663529 
L 936.26552 247.936911 
L 937.056974 246.483676 
L 937.254838 246.338353 
L 937.452702 245.829721 
L 937.848429 245.648066 
L 938.639883 244.376486 
L 939.03561 242.668935 
L 939.233474 242.087641 
L 939.629201 239.326495 
L 939.827064 238.236569 
L 940.816382 236.928657 
L 941.607837 233.658879 
L 941.8057 233.477225 
L 942.003564 232.968593 
L 942.201427 231.18838 
L 942.399291 230.534424 
L 942.597154 230.461762 
L 942.795018 229.626152 
L 943.388609 229.11752 
L 943.784336 227.736947 
L 944.773654 227.155653 
L 944.971517 226.792345 
L 945.960835 226.211051 
L 946.356562 225.77508 
L 946.554426 225.375441 
L 946.752289 224.358176 
L 946.950153 223.958537 
L 947.34588 223.813213 
L 947.741607 223.631559 
L 948.137334 223.340912 
L 948.533061 223.050265 
L 949.522379 222.614294 
L 949.918106 222.287317 
L 950.313834 222.250986 
L 951.698879 220.834082 
L 952.292469 220.32545 
L 952.688196 219.998472 
L 952.88606 219.671494 
L 953.281787 219.562501 
L 953.479651 219.308185 
L 953.875378 219.126531 
L 954.073241 218.25459 
L 954.666832 217.636965 
L 955.062559 217.527973 
L 956.249741 216.474377 
L 956.447604 216.438046 
L 957.436922 215.638767 
L 957.634786 215.602436 
L 957.832649 215.057473 
L 958.030513 214.875819 
L 958.228376 214.294525 
L 958.624104 214.040209 
L 959.217694 212.550643 
L 959.415558 211.824026 
L 960.009149 211.388056 
L 960.602739 210.552445 
L 960.998466 209.135542 
L 961.19633 208.699571 
L 961.394194 207.936623 
L 961.592057 207.863961 
L 961.789921 207.246336 
L 962.185648 206.99202 
L 963.372829 205.72044 
L 963.570693 205.211808 
L 963.96642 205.066484 
L 964.164283 204.848499 
L 964.362147 204.339867 
L 965.153601 204.012889 
L 965.351465 203.758573 
L 965.549328 203.722242 
L 965.747192 202.922963 
L 966.142919 202.668647 
L 966.340783 202.160014 
L 966.538646 202.014691 
L 966.934373 201.97836 
L 968.121555 201.033757 
L 968.715146 200.561456 
L 969.110873 200.089155 
L 969.5066 199.689515 
L 969.704463 199.289876 
L 969.902327 198.490597 
L 971.089508 197.80031 
L 971.485236 196.783046 
L 971.880963 196.601391 
L 972.078826 196.056428 
L 972.27669 195.947436 
L 973.068144 194.930171 
L 974.057462 194.276216 
L 975.244643 193.040966 
L 975.838234 192.169025 
L 976.827552 189.516872 
L 977.81687 184.03091 
L 978.014733 183.740263 
L 978.212597 183.1953 
L 978.410461 181.160771 
L 978.806188 175.602148 
L 979.004051 173.204311 
L 979.201915 172.550355 
L 979.597642 169.789209 
L 979.993369 166.08346 
L 980.389096 161.033469 
L 980.784823 160.270521 
L 981.180551 153.694633 
L 981.378414 151.987082 
L 981.774141 144.539254 
L 982.169868 143.12235 
L 982.367732 139.416601 
L 982.565595 138.54466 
L 982.961323 134.439272 
L 983.35705 123.285695 
L 983.752777 121.578144 
L 983.95064 118.163042 
L 984.148504 117.799733 
L 984.544231 112.24111 
L 984.742095 112.132117 
L 984.939958 111.768809 
L 985.335685 110.424567 
L 985.533549 110.097589 
L 985.731413 109.479964 
L 985.929276 108.317376 
L 986.325003 108.099391 
L 986.522867 107.518097 
L 986.918594 105.665223 
L 987.314321 101.923143 
L 987.512185 101.123864 
L 987.710048 101.051202 
L 987.907912 100.687893 
L 988.89723 97.527108 
L 989.095093 97.381784 
L 989.292957 96.546174 
L 989.688684 96.182865 
L 989.886548 96.037542 
L 990.084411 95.492579 
L 990.282275 95.310924 
L 991.073729 94.075675 
L 991.66732 93.385388 
L 991.865183 93.312727 
L 992.854501 91.859492 
L 993.250228 91.677837 
L 993.843819 91.532514 
L 994.239546 90.95122 
L 994.635273 90.842227 
L 995.228864 90.006617 
L 996.020318 89.497985 
L 996.218182 89.28 
L 996.218182 89.28 
" clip-path="url(#p98efb767aa)" style="fill: none; stroke: #1f77b4; stroke-width: 1.5; stroke-linecap: square"/>
   </g>
   <g id="patch_3">
    <path d="M 144 512.64 
L 144 69.12 
" style="fill: none; stroke: #000000; stroke-width: 0.8; stroke-linejoin: miter; stroke-linecap: square"/>
   </g>
   <g id="patch_4">
    <path d="M 1036.8 512.64 
L 1036.8 69.12 
" style="fill: none; stroke: #000000; stroke-width: 0.8; stroke-linejoin: miter; stroke-linecap: square"/>
   </g>
   <g id="patch_5">
    <path d="M 144 512.64 
L 1036.8 512.64 
" style="fill: none; stroke: #000000; stroke-width: 0.8; stroke-linejoin: miter; stroke-linecap: square"/>
   </g>
   <g id="patch_6">
    <path d="M 144 69.12 
L 1036.8 69.12 
" style="fill: none; stroke: #000000; stroke-width: 0.8; stroke-linejoin: miter; stroke-linecap: square"/>
   </g>
   <g id="text_13">
    <!-- Number of AEDs in the OpenStreetMap database in Poland from first edition, day by day. As at: 2025-05-05 -->
    <g transform="translate(144 63.12) scale(0.14 -0.14)">
     <defs>
      <path id="DejaVuSans-4e" d="M 628 4666 
L 1478 4666 
L 3547 763 
L 3547 4666 
L 4159 4666 
L 4159 0 
L 3309 0 
L 1241 3903 
L 1241 0 
L 628 0 
L 628 4666 
z
" transform="scale(0.015625)"/>
      <path id="DejaVuSans-75" d="M 544 1381 
L 544 3500 
L 1119 3500 
L 1119 1403 
Q 1119 906 1312 657 
Q 1506 409 1894 409 
Q 2359 409 2629 706 
Q 2900 1003 2900 1516 
L 2900 3500 
L 3475 3500 
L 3475 0 
L 2900 0 
L 2900 538 
Q 2691 219 2414 64 
Q 2138 -91 1772 -91 
Q 1169 -91 856 284 
Q 544 659 544 1381 
z
M 1991 3584 
L 1991 3584 
z
" transform="scale(0.015625)"/>
      <path id="DejaVuSans-6d" d="M 3328 2828 
Q 3544 3216 3844 3400 
Q 4144 3584 4550 3584 
Q 5097 3584 5394 3201 
Q 5691 2819 5691 2113 
L 5691 0 
L 5113 0 
L 5113 2094 
Q 5113 2597 4934 2840 
Q 4756 3084 4391 3084 
Q 3944 3084 3684 2787 
Q 3425 2491 3425 1978 
L 3425 0 
L 2847 0 
L 2847 2094 
Q 2847 2600 2669 2842 
Q 2491 3084 2119 3084 
Q 1678 3084 1418 2786 
Q 1159 2488 1159 1978 
L 1159 0 
L 581 0 
L 581 3500 
L 1159 3500 
L 1159 2956 
Q 1356 3278 1631 3431 
Q 1906 3584 2284 3584 
Q 2666 3584 2933 3390 
Q 3200 3197 3328 2828 
z
" transform="scale(0.015625)"/>
      <path id="DejaVuSans-62" d="M 3116 1747 
Q 3116 2381 2855 2742 
Q 2594 3103 2138 3103 
Q 1681 3103 1420 2742 
Q 1159 2381 1159 1747 
Q 1159 1113 1420 752 
Q 1681 391 2138 391 
Q 2594 391 2855 752 
Q 3116 1113 3116 1747 
z
M 1159 2969 
Q 1341 3281 1617 3432 
Q 1894 3584 2278 3584 
Q 2916 3584 3314 3078 
Q 3713 2572 3713 1747 
Q 3713 922 3314 415 
Q 2916 -91 2278 -91 
Q 1894 -91 1617 61 
Q 1341 213 1159 525 
L 1159 0 
L 581 0 
L 581 4863 
L 1159 4863 
L 1159 2969 
z
" transform="scale(0.015625)"/>
      <path id="DejaVuSans-65" d="M 3597 1894 
L 3597 1613 
L 953 1613 
Q 991 1019 1311 708 
Q 1631 397 2203 397 
Q 2534 397 2845 478 
Q 3156 559 3463 722 
L 3463 178 
Q 3153 47 2828 -22 
Q 2503 -91 2169 -91 
Q 1331 -91 842 396 
Q 353 884 353 1716 
Q 353 2575 817 3079 
Q 1281 3584 2069 3584 
Q 2775 3584 3186 3129 
Q 3597 2675 3597 1894 
z
M 3022 2063 
Q 3016 2534 2758 2815 
Q 2500 3097 2075 3097 
Q 1594 3097 1305 2825 
Q 1016 2553 972 2059 
L 3022 2063 
z
" transform="scale(0.015625)"/>
      <path id="DejaVuSans-72" d="M 2631 2963 
Q 2534 3019 2420 3045 
Q 2306 3072 2169 3072 
Q 1681 3072 1420 2755 
Q 1159 2438 1159 1844 
L 1159 0 
L 581 0 
L 581 3500 
L 1159 3500 
L 1159 2956 
Q 1341 3275 1631 3429 
Q 1922 3584 2338 3584 
Q 2397 3584 2469 3576 
Q 2541 3569 2628 3553 
L 2631 2963 
z
" transform="scale(0.015625)"/>
      <path id="DejaVuSans-20" transform="scale(0.015625)"/>
      <path id="DejaVuSans-6f" d="M 1959 3097 
Q 1497 3097 1228 2736 
Q 959 2375 959 1747 
Q 959 1119 1226 758 
Q 1494 397 1959 397 
Q 2419 397 2687 759 
Q 2956 1122 2956 1747 
Q 2956 2369 2687 2733 
Q 2419 3097 1959 3097 
z
M 1959 3584 
Q 2709 3584 3137 3096 
Q 3566 2609 3566 1747 
Q 3566 888 3137 398 
Q 2709 -91 1959 -91 
Q 1206 -91 779 398 
Q 353 888 353 1747 
Q 353 2609 779 3096 
Q 1206 3584 1959 3584 
z
" transform="scale(0.015625)"/>
      <path id="DejaVuSans-66" d="M 2375 4863 
L 2375 4384 
L 1825 4384 
Q 1516 4384 1395 4259 
Q 1275 4134 1275 3809 
L 1275 3500 
L 2222 3500 
L 2222 3053 
L 1275 3053 
L 1275 0 
L 697 0 
L 697 3053 
L 147 3053 
L 147 3500 
L 697 3500 
L 697 3744 
Q 697 4328 969 4595 
Q 1241 4863 1831 4863 
L 2375 4863 
z
" transform="scale(0.015625)"/>
      <path id="DejaVuSans-41" d="M 2188 4044 
L 1331 1722 
L 3047 1722 
L 2188 4044 
z
M 1831 4666 
L 2547 4666 
L 4325 0 
L 3669 0 
L 3244 1197 
L 1141 1197 
L 716 0 
L 50 0 
L 1831 4666 
z
" transform="scale(0.015625)"/>
      <path id="DejaVuSans-45" d="M 628 4666 
L 3578 4666 
L 3578 4134 
L 1259 4134 
L 1259 2753 
L 3481 2753 
L 3481 2222 
L 1259 2222 
L 1259 531 
L 3634 531 
L 3634 0 
L 628 0 
L 628 4666 
z
" transform="scale(0.015625)"/>
      <path id="DejaVuSans-44" d="M 1259 4147 
L 1259 519 
L 2022 519 
Q 2988 519 3436 956 
Q 3884 1394 3884 2338 
Q 3884 3275 3436 3711 
Q 2988 4147 2022 4147 
L 1259 4147 
z
M 628 4666 
L 1925 4666 
Q 3281 4666 3915 4102 
Q 4550 3538 4550 2338 
Q 4550 1131 3912 565 
Q 3275 0 1925 0 
L 628 0 
L 628 4666 
z
" transform="scale(0.015625)"/>
      <path id="DejaVuSans-73" d="M 2834 3397 
L 2834 2853 
Q 2591 2978 2328 3040 
Q 2066 3103 1784 3103 
Q 1356 3103 1142 2972 
Q 928 2841 928 2578 
Q 928 2378 1081 2264 
Q 1234 2150 1697 2047 
L 1894 2003 
Q 2506 1872 2764 1633 
Q 3022 1394 3022 966 
Q 3022 478 2636 193 
Q 2250 -91 1575 -91 
Q 1294 -91 989 -36 
Q 684 19 347 128 
L 347 722 
Q 666 556 975 473 
Q 1284 391 1588 391 
Q 1994 391 2212 530 
Q 2431 669 2431 922 
Q 2431 1156 2273 1281 
Q 2116 1406 1581 1522 
L 1381 1569 
Q 847 1681 609 1914 
Q 372 2147 372 2553 
Q 372 3047 722 3315 
Q 1072 3584 1716 3584 
Q 2034 3584 2315 3537 
Q 2597 3491 2834 3397 
z
" transform="scale(0.015625)"/>
      <path id="DejaVuSans-69" d="M 603 3500 
L 1178 3500 
L 1178 0 
L 603 0 
L 603 3500 
z
M 603 4863 
L 1178 4863 
L 1178 4134 
L 603 4134 
L 603 4863 
z
" transform="scale(0.015625)"/>
      <path id="DejaVuSans-6e" d="M 3513 2113 
L 3513 0 
L 2938 0 
L 2938 2094 
Q 2938 2591 2744 2837 
Q 2550 3084 2163 3084 
Q 1697 3084 1428 2787 
Q 1159 2491 1159 1978 
L 1159 0 
L 581 0 
L 581 3500 
L 1159 3500 
L 1159 2956 
Q 1366 3272 1645 3428 
Q 1925 3584 2291 3584 
Q 2894 3584 3203 3211 
Q 3513 2838 3513 2113 
z
" transform="scale(0.015625)"/>
      <path id="DejaVuSans-74" d="M 1172 4494 
L 1172 3500 
L 2356 3500 
L 2356 3053 
L 1172 3053 
L 1172 1153 
Q 1172 725 1289 603 
Q 1406 481 1766 481 
L 2356 481 
L 2356 0 
L 1766 0 
Q 1100 0 847 248 
Q 594 497 594 1153 
L 594 3053 
L 172 3053 
L 172 3500 
L 594 3500 
L 594 4494 
L 1172 4494 
z
" transform="scale(0.015625)"/>
      <path id="DejaVuSans-68" d="M 3513 2113 
L 3513 0 
L 2938 0 
L 2938 2094 
Q 2938 2591 2744 2837 
Q 2550 3084 2163 3084 
Q 1697 3084 1428 2787 
Q 1159 2491 1159 1978 
L 1159 0 
L 581 0 
L 581 4863 
L 1159 4863 
L 1159 2956 
Q 1366 3272 1645 3428 
Q 1925 3584 2291 3584 
Q 2894 3584 3203 3211 
Q 3513 2838 3513 2113 
z
" transform="scale(0.015625)"/>
      <path id="DejaVuSans-4f" d="M 2522 4238 
Q 1834 4238 1429 3725 
Q 1025 3213 1025 2328 
Q 1025 1447 1429 934 
Q 1834 422 2522 422 
Q 3209 422 3611 934 
Q 4013 1447 4013 2328 
Q 4013 3213 3611 3725 
Q 3209 4238 2522 4238 
z
M 2522 4750 
Q 3503 4750 4090 4092 
Q 4678 3434 4678 2328 
Q 4678 1225 4090 567 
Q 3503 -91 2522 -91 
Q 1538 -91 948 565 
Q 359 1222 359 2328 
Q 359 3434 948 4092 
Q 1538 4750 2522 4750 
z
" transform="scale(0.015625)"/>
      <path id="DejaVuSans-70" d="M 1159 525 
L 1159 -1331 
L 581 -1331 
L 581 3500 
L 1159 3500 
L 1159 2969 
Q 1341 3281 1617 3432 
Q 1894 3584 2278 3584 
Q 2916 3584 3314 3078 
Q 3713 2572 3713 1747 
Q 3713 922 3314 415 
Q 2916 -91 2278 -91 
Q 1894 -91 1617 61 
Q 1341 213 1159 525 
z
M 3116 1747 
Q 3116 2381 2855 2742 
Q 2594 3103 2138 3103 
Q 1681 3103 1420 2742 
Q 1159 2381 1159 1747 
Q 1159 1113 1420 752 
Q 1681 391 2138 391 
Q 2594 391 2855 752 
Q 3116 1113 3116 1747 
z
" transform="scale(0.015625)"/>
      <path id="DejaVuSans-53" d="M 3425 4513 
L 3425 3897 
Q 3066 4069 2747 4153 
Q 2428 4238 2131 4238 
Q 1616 4238 1336 4038 
Q 1056 3838 1056 3469 
Q 1056 3159 1242 3001 
Q 1428 2844 1947 2747 
L 2328 2669 
Q 3034 2534 3370 2195 
Q 3706 1856 3706 1288 
Q 3706 609 3251 259 
Q 2797 -91 1919 -91 
Q 1588 -91 1214 -16 
Q 841 59 441 206 
L 441 856 
Q 825 641 1194 531 
Q 1563 422 1919 422 
Q 2459 422 2753 634 
Q 3047 847 3047 1241 
Q 3047 1584 2836 1778 
Q 2625 1972 2144 2069 
L 1759 2144 
Q 1053 2284 737 2584 
Q 422 2884 422 3419 
Q 422 4038 858 4394 
Q 1294 4750 2059 4750 
Q 2388 4750 2728 4690 
Q 3069 4631 3425 4513 
z
" transform="scale(0.015625)"/>
      <path id="DejaVuSans-4d" d="M 628 4666 
L 1569 4666 
L 2759 1491 
L 3956 4666 
L 4897 4666 
L 4897 0 
L 4281 0 
L 4281 4097 
L 3078 897 
L 2444 897 
L 1241 4097 
L 1241 0 
L 628 0 
L 628 4666 
z
" transform="scale(0.015625)"/>
      <path id="DejaVuSans-61" d="M 2194 1759 
Q 1497 1759 1228 1600 
Q 959 1441 959 1056 
Q 959 750 1161 570 
Q 1363 391 1709 391 
Q 2188 391 2477 730 
Q 2766 1069 2766 1631 
L 2766 1759 
L 2194 1759 
z
M 3341 1997 
L 3341 0 
L 2766 0 
L 2766 531 
Q 2569 213 2275 61 
Q 1981 -91 1556 -91 
Q 1019 -91 701 211 
Q 384 513 384 1019 
Q 384 1609 779 1909 
Q 1175 2209 1959 2209 
L 2766 2209 
L 2766 2266 
Q 2766 2663 2505 2880 
Q 2244 3097 1772 3097 
Q 1472 3097 1187 3025 
Q 903 2953 641 2809 
L 641 3341 
Q 956 3463 1253 3523 
Q 1550 3584 1831 3584 
Q 2591 3584 2966 3190 
Q 3341 2797 3341 1997 
z
" transform="scale(0.015625)"/>
      <path id="DejaVuSans-64" d="M 2906 2969 
L 2906 4863 
L 3481 4863 
L 3481 0 
L 2906 0 
L 2906 525 
Q 2725 213 2448 61 
Q 2172 -91 1784 -91 
Q 1150 -91 751 415 
Q 353 922 353 1747 
Q 353 2572 751 3078 
Q 1150 3584 1784 3584 
Q 2172 3584 2448 3432 
Q 2725 3281 2906 2969 
z
M 947 1747 
Q 947 1113 1208 752 
Q 1469 391 1925 391 
Q 2381 391 2643 752 
Q 2906 1113 2906 1747 
Q 2906 2381 2643 2742 
Q 2381 3103 1925 3103 
Q 1469 3103 1208 2742 
Q 947 2381 947 1747 
z
" transform="scale(0.015625)"/>
      <path id="DejaVuSans-50" d="M 1259 4147 
L 1259 2394 
L 2053 2394 
Q 2494 2394 2734 2622 
Q 2975 2850 2975 3272 
Q 2975 3691 2734 3919 
Q 2494 4147 2053 4147 
L 1259 4147 
z
M 628 4666 
L 2053 4666 
Q 2838 4666 3239 4311 
Q 3641 3956 3641 3272 
Q 3641 2581 3239 2228 
Q 2838 1875 2053 1875 
L 1259 1875 
L 1259 0 
L 628 0 
L 628 4666 
z
" transform="scale(0.015625)"/>
      <path id="DejaVuSans-6c" d="M 603 4863 
L 1178 4863 
L 1178 0 
L 603 0 
L 603 4863 
z
" transform="scale(0.015625)"/>
      <path id="DejaVuSans-2c" d="M 750 794 
L 1409 794 
L 1409 256 
L 897 -744 
L 494 -744 
L 750 256 
L 750 794 
z
" transform="scale(0.015625)"/>
      <path id="DejaVuSans-79" d="M 2059 -325 
Q 1816 -950 1584 -1140 
Q 1353 -1331 966 -1331 
L 506 -1331 
L 506 -850 
L 844 -850 
Q 1081 -850 1212 -737 
Q 1344 -625 1503 -206 
L 1606 56 
L 191 3500 
L 800 3500 
L 1894 763 
L 2988 3500 
L 3597 3500 
L 2059 -325 
z
" transform="scale(0.015625)"/>
      <path id="DejaVuSans-2e" d="M 684 794 
L 1344 794 
L 1344 0 
L 684 0 
L 684 794 
z
" transform="scale(0.015625)"/>
      <path id="DejaVuSans-3a" d="M 750 794 
L 1409 794 
L 1409 0 
L 750 0 
L 750 794 
z
M 750 3309 
L 1409 3309 
L 1409 2516 
L 750 2516 
L 750 3309 
z
" transform="scale(0.015625)"/>
      <path id="DejaVuSans-35" d="M 691 4666 
L 3169 4666 
L 3169 4134 
L 1269 4134 
L 1269 2991 
Q 1406 3038 1543 3061 
Q 1681 3084 1819 3084 
Q 2600 3084 3056 2656 
Q 3513 2228 3513 1497 
Q 3513 744 3044 326 
Q 2575 -91 1722 -91 
Q 1428 -91 1123 -41 
Q 819 9 494 109 
L 494 744 
Q 775 591 1075 516 
Q 1375 441 1709 441 
Q 2250 441 2565 725 
Q 2881 1009 2881 1497 
Q 2881 1984 2565 2268 
Q 2250 2553 1709 2553 
Q 1456 2553 1204 2497 
Q 953 2441 691 2322 
L 691 4666 
z
" transform="scale(0.015625)"/>
      <path id="DejaVuSans-2d" d="M 313 2009 
L 1997 2009 
L 1997 1497 
L 313 1497 
L 313 2009 
z
" transform="scale(0.015625)"/>
     </defs>
     <use xlink:href="#DejaVuSans-4e"/>
     <use xlink:href="#DejaVuSans-75" x="74.804688"/>
     <use xlink:href="#DejaVuSans-6d" x="138.183594"/>
     <use xlink:href="#DejaVuSans-62" x="235.595703"/>
     <use xlink:href="#DejaVuSans-65" x="299.072266"/>
     <use xlink:href="#DejaVuSans-72" x="360.595703"/>
     <use xlink:href="#DejaVuSans-20" x="401.708984"/>
     <use xlink:href="#DejaVuSans-6f" x="433.496094"/>
     <use xlink:href="#DejaVuSans-66" x="494.677734"/>
     <use xlink:href="#DejaVuSans-20" x="529.882812"/>
     <use xlink:href="#DejaVuSans-41" x="561.669922"/>
     <use xlink:href="#DejaVuSans-45" x="630.078125"/>
     <use xlink:href="#DejaVuSans-44" x="693.261719"/>
     <use xlink:href="#DejaVuSans-73" x="770.263672"/>
     <use xlink:href="#DejaVuSans-20" x="822.363281"/>
     <use xlink:href="#DejaVuSans-69" x="854.150391"/>
     <use xlink:href="#DejaVuSans-6e" x="881.933594"/>
     <use xlink:href="#DejaVuSans-20" x="945.3125"/>
     <use xlink:href="#DejaVuSans-74" x="977.099609"/>
     <use xlink:href="#DejaVuSans-68" x="1016.308594"/>
     <use xlink:href="#DejaVuSans-65" x="1079.6875"/>
     <use xlink:href="#DejaVuSans-20" x="1141.210938"/>
     <use xlink:href="#DejaVuSans-4f" x="1172.998047"/>
     <use xlink:href="#DejaVuSans-70" x="1251.708984"/>
     <use xlink:href="#DejaVuSans-65" x="1315.185547"/>
     <use xlink:href="#DejaVuSans-6e" x="1376.708984"/>
     <use xlink:href="#DejaVuSans-53" x="1440.087891"/>
     <use xlink:href="#DejaVuSans-74" x="1503.564453"/>
     <use xlink:href="#DejaVuSans-72" x="1542.773438"/>
     <use xlink:href="#DejaVuSans-65" x="1581.636719"/>
     <use xlink:href="#DejaVuSans-65" x="1643.160156"/>
     <use xlink:href="#DejaVuSans-74" x="1704.683594"/>
     <use xlink:href="#DejaVuSans-4d" x="1743.892578"/>
     <use xlink:href="#DejaVuSans-61" x="1830.171875"/>
     <use xlink:href="#DejaVuSans-70" x="1891.451172"/>
     <use xlink:href="#DejaVuSans-20" x="1954.927734"/>
     <use xlink:href="#DejaVuSans-64" x="1986.714844"/>
     <use xlink:href="#DejaVuSans-61" x="2050.191406"/>
     <use xlink:href="#DejaVuSans-74" x="2111.470703"/>
     <use xlink:href="#DejaVuSans-61" x="2150.679688"/>
     <use xlink:href="#DejaVuSans-62" x="2211.958984"/>
     <use xlink:href="#DejaVuSans-61" x="2275.435547"/>
     <use xlink:href="#DejaVuSans-73" x="2336.714844"/>
     <use xlink:href="#DejaVuSans-65" x="2388.814453"/>
     <use xlink:href="#DejaVuSans-20" x="2450.337891"/>
     <use xlink:href="#DejaVuSans-69" x="2482.125"/>
     <use xlink:href="#DejaVuSans-6e" x="2509.908203"/>
     <use xlink:href="#DejaVuSans-20" x="2573.287109"/>
     <use xlink:href="#DejaVuSans-50" x="2605.074219"/>
     <use xlink:href="#DejaVuSans-6f" x="2661.751953"/>
     <use xlink:href="#DejaVuSans-6c" x="2722.933594"/>
     <use xlink:href="#DejaVuSans-61" x="2750.716797"/>
     <use xlink:href="#DejaVuSans-6e" x="2811.996094"/>
     <use xlink:href="#DejaVuSans-64" x="2875.375"/>
     <use xlink:href="#DejaVuSans-20" x="2938.851562"/>
     <use xlink:href="#DejaVuSans-66" x="2970.638672"/>
     <use xlink:href="#DejaVuSans-72" x="3005.84375"/>
     <use xlink:href="#DejaVuSans-6f" x="3044.707031"/>
     <use xlink:href="#DejaVuSans-6d" x="3105.888672"/>
     <use xlink:href="#DejaVuSans-20" x="3203.300781"/>
     <use xlink:href="#DejaVuSans-66" x="3235.087891"/>
     <use xlink:href="#DejaVuSans-69" x="3270.292969"/>
     <use xlink:href="#DejaVuSans-72" x="3298.076172"/>
     <use xlink:href="#DejaVuSans-73" x="3339.189453"/>
     <use xlink:href="#DejaVuSans-74" x="3391.289062"/>
     <use xlink:href="#DejaVuSans-20" x="3430.498047"/>
     <use xlink:href="#DejaVuSans-65" x="3462.285156"/>
     <use xlink:href="#DejaVuSans-64" x="3523.808594"/>
     <use xlink:href="#DejaVuSans-69" x="3587.285156"/>
     <use xlink:href="#DejaVuSans-74" x="3615.068359"/>
     <use xlink:href="#DejaVuSans-69" x="3654.277344"/>
     <use xlink:href="#DejaVuSans-6f" x="3682.060547"/>
     <use xlink:href="#DejaVuSans-6e" x="3743.242188"/>
     <use xlink:href="#DejaVuSans-2c" x="3806.621094"/>
     <use xlink:href="#DejaVuSans-20" x="3838.408203"/>
     <use xlink:href="#DejaVuSans-64" x="3870.195312"/>
     <use xlink:href="#DejaVuSans-61" x="3933.671875"/>
     <use xlink:href="#DejaVuSans-79" x="3994.951172"/>
     <use xlink:href="#DejaVuSans-20" x="4054.130859"/>
     <use xlink:href="#DejaVuSans-62" x="4085.917969"/>
     <use xlink:href="#DejaVuSans-79" x="4149.394531"/>
     <use xlink:href="#DejaVuSans-20" x="4208.574219"/>
     <use xlink:href="#DejaVuSans-64" x="4240.361328"/>
     <use xlink:href="#DejaVuSans-61" x="4303.837891"/>
     <use xlink:href="#DejaVuSans-79" x="4365.117188"/>
     <use xlink:href="#DejaVuSans-2e" x="4410.046875"/>
     <use xlink:href="#DejaVuSans-20" x="4441.833984"/>
     <use xlink:href="#DejaVuSans-41" x="4473.621094"/>
     <use xlink:href="#DejaVuSans-73" x="4542.029297"/>
     <use xlink:href="#DejaVuSans-20" x="4594.128906"/>
     <use xlink:href="#DejaVuSans-61" x="4625.916016"/>
     <use xlink:href="#DejaVuSans-74" x="4687.195312"/>
     <use xlink:href="#DejaVuSans-3a" x="4726.404297"/>
     <use xlink:href="#DejaVuSans-20" x="4760.095703"/>
     <use xlink:href="#DejaVuSans-32" x="4791.882812"/>
     <use xlink:href="#DejaVuSans-30" x="4855.505859"/>
     <use xlink:href="#DejaVuSans-32" x="4919.128906"/>
     <use xlink:href="#DejaVuSans-35" x="4982.751953"/>
     <use xlink:href="#DejaVuSans-2d" x="5046.375"/>
     <use xlink:href="#DejaVuSans-30" x="5082.458984"/>
     <use xlink:href="#DejaVuSans-35" x="5146.082031"/>
     <use xlink:href="#DejaVuSans-2d" x="5209.705078"/>
     <use xlink:href="#DejaVuSans-30" x="5245.789062"/>
     <use xlink:href="#DejaVuSans-35" x="5309.412109"/>
    </g>
   </g>
  </g>
 </g>
 <defs>
  <clipPath id="p98efb767aa">
   <rect x="144" y="69.12" width="892.8" height="443.52"/>
  </clipPath>
 </defs>
</svg>
