<?xml version="1.0" encoding="utf-8" standalone="no"?>
<!DOCTYPE svg PUBLIC "-//W3C//DTD SVG 1.1//EN"
  "http://www.w3.org/Graphics/SVG/1.1/DTD/svg11.dtd">
<svg xmlns:xlink="http://www.w3.org/1999/xlink" width="1152pt" height="576pt" viewBox="0 0 1152 576" xmlns="http://www.w3.org/2000/svg" version="1.1">
 <metadata>
  <rdf:RDF xmlns:dc="http://purl.org/dc/elements/1.1/" xmlns:cc="http://creativecommons.org/ns#" xmlns:rdf="http://www.w3.org/1999/02/22-rdf-syntax-ns#">
   <cc:Work>
    <dc:type rdf:resource="http://purl.org/dc/dcmitype/StillImage"/>
    <dc:date>1980-01-01T00:00:00+00:00</dc:date>
    <dc:format>image/svg+xml</dc:format>
    <dc:creator>
     <cc:Agent>
      <dc:title>Matplotlib v3.9.1, https://matplotlib.org/</dc:title>
     </cc:Agent>
    </dc:creator>
   </cc:Work>
  </rdf:RDF>
 </metadata>
 <defs>
  <style type="text/css">*{stroke-linejoin: round; stroke-linecap: butt}</style>
 </defs>
 <g id="figure_1">
  <g id="patch_1">
   <path d="M 0 576 
L 1152 576 
L 1152 0 
L 0 0 
z
" style="fill: #ffffff"/>
  </g>
  <g id="axes_1">
   <g id="patch_2">
    <path d="M 144 512.64 
L 1036.8 512.64 
L 1036.8 69.12 
L 144 69.12 
z
" style="fill: #ffffff"/>
   </g>
   <g id="matplotlib.axis_1">
    <g id="xtick_1">
     <g id="line2d_1">
      <defs>
       <path id="m2ffa3b4082" d="M 0 0 
L 0 3.5 
" style="stroke: #000000; stroke-width: 0.8"/>
      </defs>
      <g>
       <use xlink:href="#m2ffa3b4082" x="177.244992" y="512.64" style="stroke: #000000; stroke-width: 0.8"/>
      </g>
     </g>
     <g id="text_1">
      <!-- 2014 -->
      <g transform="translate(164.519992 527.238438) scale(0.1 -0.1)">
       <defs>
        <path id="DejaVuSans-32" d="M 1228 531 
L 3431 531 
L 3431 0 
L 469 0 
L 469 531 
Q 828 903 1448 1529 
Q 2069 2156 2228 2338 
Q 2531 2678 2651 2914 
Q 2772 3150 2772 3378 
Q 2772 3750 2511 3984 
Q 2250 4219 1831 4219 
Q 1534 4219 1204 4116 
Q 875 4013 500 3803 
L 500 4441 
Q 881 4594 1212 4672 
Q 1544 4750 1819 4750 
Q 2544 4750 2975 4387 
Q 3406 4025 3406 3419 
Q 3406 3131 3298 2873 
Q 3191 2616 2906 2266 
Q 2828 2175 2409 1742 
Q 1991 1309 1228 531 
z
" transform="scale(0.015625)"/>
        <path id="DejaVuSans-30" d="M 2034 4250 
Q 1547 4250 1301 3770 
Q 1056 3291 1056 2328 
Q 1056 1369 1301 889 
Q 1547 409 2034 409 
Q 2525 409 2770 889 
Q 3016 1369 3016 2328 
Q 3016 3291 2770 3770 
Q 2525 4250 2034 4250 
z
M 2034 4750 
Q 2819 4750 3233 4129 
Q 3647 3509 3647 2328 
Q 3647 1150 3233 529 
Q 2819 -91 2034 -91 
Q 1250 -91 836 529 
Q 422 1150 422 2328 
Q 422 3509 836 4129 
Q 1250 4750 2034 4750 
z
" transform="scale(0.015625)"/>
        <path id="DejaVuSans-31" d="M 794 531 
L 1825 531 
L 1825 4091 
L 703 3866 
L 703 4441 
L 1819 4666 
L 2450 4666 
L 2450 531 
L 3481 531 
L 3481 0 
L 794 0 
L 794 531 
z
" transform="scale(0.015625)"/>
        <path id="DejaVuSans-34" d="M 2419 4116 
L 825 1625 
L 2419 1625 
L 2419 4116 
z
M 2253 4666 
L 3047 4666 
L 3047 1625 
L 3713 1625 
L 3713 1100 
L 3047 1100 
L 3047 0 
L 2419 0 
L 2419 1100 
L 313 1100 
L 313 1709 
L 2253 4666 
z
" transform="scale(0.015625)"/>
       </defs>
       <use xlink:href="#DejaVuSans-32"/>
       <use xlink:href="#DejaVuSans-30" x="63.623047"/>
       <use xlink:href="#DejaVuSans-31" x="127.246094"/>
       <use xlink:href="#DejaVuSans-34" x="190.869141"/>
      </g>
     </g>
    </g>
    <g id="xtick_2">
     <g id="line2d_2">
      <g>
       <use xlink:href="#m2ffa3b4082" x="311.142065" y="512.64" style="stroke: #000000; stroke-width: 0.8"/>
      </g>
     </g>
     <g id="text_2">
      <!-- 2016 -->
      <g transform="translate(298.417065 527.238438) scale(0.1 -0.1)">
       <defs>
        <path id="DejaVuSans-36" d="M 2113 2584 
Q 1688 2584 1439 2293 
Q 1191 2003 1191 1497 
Q 1191 994 1439 701 
Q 1688 409 2113 409 
Q 2538 409 2786 701 
Q 3034 994 3034 1497 
Q 3034 2003 2786 2293 
Q 2538 2584 2113 2584 
z
M 3366 4563 
L 3366 3988 
Q 3128 4100 2886 4159 
Q 2644 4219 2406 4219 
Q 1781 4219 1451 3797 
Q 1122 3375 1075 2522 
Q 1259 2794 1537 2939 
Q 1816 3084 2150 3084 
Q 2853 3084 3261 2657 
Q 3669 2231 3669 1497 
Q 3669 778 3244 343 
Q 2819 -91 2113 -91 
Q 1303 -91 875 529 
Q 447 1150 447 2328 
Q 447 3434 972 4092 
Q 1497 4750 2381 4750 
Q 2619 4750 2861 4703 
Q 3103 4656 3366 4563 
z
" transform="scale(0.015625)"/>
       </defs>
       <use xlink:href="#DejaVuSans-32"/>
       <use xlink:href="#DejaVuSans-30" x="63.623047"/>
       <use xlink:href="#DejaVuSans-31" x="127.246094"/>
       <use xlink:href="#DejaVuSans-36" x="190.869141"/>
      </g>
     </g>
    </g>
    <g id="xtick_3">
     <g id="line2d_3">
      <g>
       <use xlink:href="#m2ffa3b4082" x="445.222558" y="512.64" style="stroke: #000000; stroke-width: 0.8"/>
      </g>
     </g>
     <g id="text_3">
      <!-- 2018 -->
      <g transform="translate(432.497558 527.238438) scale(0.1 -0.1)">
       <defs>
        <path id="DejaVuSans-38" d="M 2034 2216 
Q 1584 2216 1326 1975 
Q 1069 1734 1069 1313 
Q 1069 891 1326 650 
Q 1584 409 2034 409 
Q 2484 409 2743 651 
Q 3003 894 3003 1313 
Q 3003 1734 2745 1975 
Q 2488 2216 2034 2216 
z
M 1403 2484 
Q 997 2584 770 2862 
Q 544 3141 544 3541 
Q 544 4100 942 4425 
Q 1341 4750 2034 4750 
Q 2731 4750 3128 4425 
Q 3525 4100 3525 3541 
Q 3525 3141 3298 2862 
Q 3072 2584 2669 2484 
Q 3125 2378 3379 2068 
Q 3634 1759 3634 1313 
Q 3634 634 3220 271 
Q 2806 -91 2034 -91 
Q 1263 -91 848 271 
Q 434 634 434 1313 
Q 434 1759 690 2068 
Q 947 2378 1403 2484 
z
M 1172 3481 
Q 1172 3119 1398 2916 
Q 1625 2713 2034 2713 
Q 2441 2713 2670 2916 
Q 2900 3119 2900 3481 
Q 2900 3844 2670 4047 
Q 2441 4250 2034 4250 
Q 1625 4250 1398 4047 
Q 1172 3844 1172 3481 
z
" transform="scale(0.015625)"/>
       </defs>
       <use xlink:href="#DejaVuSans-32"/>
       <use xlink:href="#DejaVuSans-30" x="63.623047"/>
       <use xlink:href="#DejaVuSans-31" x="127.246094"/>
       <use xlink:href="#DejaVuSans-38" x="190.869141"/>
      </g>
     </g>
    </g>
    <g id="xtick_4">
     <g id="line2d_4">
      <g>
       <use xlink:href="#m2ffa3b4082" x="579.11963" y="512.64" style="stroke: #000000; stroke-width: 0.8"/>
      </g>
     </g>
     <g id="text_4">
      <!-- 2020 -->
      <g transform="translate(566.39463 527.238438) scale(0.1 -0.1)">
       <use xlink:href="#DejaVuSans-32"/>
       <use xlink:href="#DejaVuSans-30" x="63.623047"/>
       <use xlink:href="#DejaVuSans-32" x="127.246094"/>
       <use xlink:href="#DejaVuSans-30" x="190.869141"/>
      </g>
     </g>
    </g>
    <g id="xtick_5">
     <g id="line2d_5">
      <g>
       <use xlink:href="#m2ffa3b4082" x="713.200123" y="512.64" style="stroke: #000000; stroke-width: 0.8"/>
      </g>
     </g>
     <g id="text_5">
      <!-- 2022 -->
      <g transform="translate(700.475123 527.238438) scale(0.1 -0.1)">
       <use xlink:href="#DejaVuSans-32"/>
       <use xlink:href="#DejaVuSans-30" x="63.623047"/>
       <use xlink:href="#DejaVuSans-32" x="127.246094"/>
       <use xlink:href="#DejaVuSans-32" x="190.869141"/>
      </g>
     </g>
    </g>
    <g id="xtick_6">
     <g id="line2d_6">
      <g>
       <use xlink:href="#m2ffa3b4082" x="847.097196" y="512.64" style="stroke: #000000; stroke-width: 0.8"/>
      </g>
     </g>
     <g id="text_6">
      <!-- 2024 -->
      <g transform="translate(834.372196 527.238438) scale(0.1 -0.1)">
       <use xlink:href="#DejaVuSans-32"/>
       <use xlink:href="#DejaVuSans-30" x="63.623047"/>
       <use xlink:href="#DejaVuSans-32" x="127.246094"/>
       <use xlink:href="#DejaVuSans-34" x="190.869141"/>
      </g>
     </g>
    </g>
    <g id="xtick_7">
     <g id="line2d_7">
      <g>
       <use xlink:href="#m2ffa3b4082" x="981.177689" y="512.64" style="stroke: #000000; stroke-width: 0.8"/>
      </g>
     </g>
     <g id="text_7">
      <!-- 2026 -->
      <g transform="translate(968.452689 527.238438) scale(0.1 -0.1)">
       <use xlink:href="#DejaVuSans-32"/>
       <use xlink:href="#DejaVuSans-30" x="63.623047"/>
       <use xlink:href="#DejaVuSans-32" x="127.246094"/>
       <use xlink:href="#DejaVuSans-36" x="190.869141"/>
      </g>
     </g>
    </g>
   </g>
   <g id="matplotlib.axis_2">
    <g id="ytick_1">
     <g id="line2d_8">
      <defs>
       <path id="m0fcefac2da" d="M 0 0 
L -3.5 0 
" style="stroke: #000000; stroke-width: 0.8"/>
      </defs>
      <g>
       <use xlink:href="#m0fcefac2da" x="144" y="492.506937" style="stroke: #000000; stroke-width: 0.8"/>
      </g>
     </g>
     <g id="text_8">
      <!-- 0 -->
      <g transform="translate(130.6375 496.306156) scale(0.1 -0.1)">
       <use xlink:href="#DejaVuSans-30"/>
      </g>
     </g>
    </g>
    <g id="ytick_2">
     <g id="line2d_9">
      <g>
       <use xlink:href="#m0fcefac2da" x="144" y="438.632004" style="stroke: #000000; stroke-width: 0.8"/>
      </g>
     </g>
     <g id="text_9">
      <!-- 2000 -->
      <g transform="translate(111.55 442.431223) scale(0.1 -0.1)">
       <use xlink:href="#DejaVuSans-32"/>
       <use xlink:href="#DejaVuSans-30" x="63.623047"/>
       <use xlink:href="#DejaVuSans-30" x="127.246094"/>
       <use xlink:href="#DejaVuSans-30" x="190.869141"/>
      </g>
     </g>
    </g>
    <g id="ytick_3">
     <g id="line2d_10">
      <g>
       <use xlink:href="#m0fcefac2da" x="144" y="384.757071" style="stroke: #000000; stroke-width: 0.8"/>
      </g>
     </g>
     <g id="text_10">
      <!-- 4000 -->
      <g transform="translate(111.55 388.55629) scale(0.1 -0.1)">
       <use xlink:href="#DejaVuSans-34"/>
       <use xlink:href="#DejaVuSans-30" x="63.623047"/>
       <use xlink:href="#DejaVuSans-30" x="127.246094"/>
       <use xlink:href="#DejaVuSans-30" x="190.869141"/>
      </g>
     </g>
    </g>
    <g id="ytick_4">
     <g id="line2d_11">
      <g>
       <use xlink:href="#m0fcefac2da" x="144" y="330.882138" style="stroke: #000000; stroke-width: 0.8"/>
      </g>
     </g>
     <g id="text_11">
      <!-- 6000 -->
      <g transform="translate(111.55 334.681357) scale(0.1 -0.1)">
       <use xlink:href="#DejaVuSans-36"/>
       <use xlink:href="#DejaVuSans-30" x="63.623047"/>
       <use xlink:href="#DejaVuSans-30" x="127.246094"/>
       <use xlink:href="#DejaVuSans-30" x="190.869141"/>
      </g>
     </g>
    </g>
    <g id="ytick_5">
     <g id="line2d_12">
      <g>
       <use xlink:href="#m0fcefac2da" x="144" y="277.007205" style="stroke: #000000; stroke-width: 0.8"/>
      </g>
     </g>
     <g id="text_12">
      <!-- 8000 -->
      <g transform="translate(111.55 280.806423) scale(0.1 -0.1)">
       <use xlink:href="#DejaVuSans-38"/>
       <use xlink:href="#DejaVuSans-30" x="63.623047"/>
       <use xlink:href="#DejaVuSans-30" x="127.246094"/>
       <use xlink:href="#DejaVuSans-30" x="190.869141"/>
      </g>
     </g>
    </g>
    <g id="ytick_6">
     <g id="line2d_13">
      <g>
       <use xlink:href="#m0fcefac2da" x="144" y="223.132272" style="stroke: #000000; stroke-width: 0.8"/>
      </g>
     </g>
     <g id="text_13">
      <!-- 10000 -->
      <g transform="translate(105.1875 226.93149) scale(0.1 -0.1)">
       <use xlink:href="#DejaVuSans-31"/>
       <use xlink:href="#DejaVuSans-30" x="63.623047"/>
       <use xlink:href="#DejaVuSans-30" x="127.246094"/>
       <use xlink:href="#DejaVuSans-30" x="190.869141"/>
       <use xlink:href="#DejaVuSans-30" x="254.492188"/>
      </g>
     </g>
    </g>
    <g id="ytick_7">
     <g id="line2d_14">
      <g>
       <use xlink:href="#m0fcefac2da" x="144" y="169.257338" style="stroke: #000000; stroke-width: 0.8"/>
      </g>
     </g>
     <g id="text_14">
      <!-- 12000 -->
      <g transform="translate(105.1875 173.056557) scale(0.1 -0.1)">
       <use xlink:href="#DejaVuSans-31"/>
       <use xlink:href="#DejaVuSans-32" x="63.623047"/>
       <use xlink:href="#DejaVuSans-30" x="127.246094"/>
       <use xlink:href="#DejaVuSans-30" x="190.869141"/>
       <use xlink:href="#DejaVuSans-30" x="254.492188"/>
      </g>
     </g>
    </g>
    <g id="ytick_8">
     <g id="line2d_15">
      <g>
       <use xlink:href="#m0fcefac2da" x="144" y="115.382405" style="stroke: #000000; stroke-width: 0.8"/>
      </g>
     </g>
     <g id="text_15">
      <!-- 14000 -->
      <g transform="translate(105.1875 119.181624) scale(0.1 -0.1)">
       <use xlink:href="#DejaVuSans-31"/>
       <use xlink:href="#DejaVuSans-34" x="63.623047"/>
       <use xlink:href="#DejaVuSans-30" x="127.246094"/>
       <use xlink:href="#DejaVuSans-30" x="190.869141"/>
       <use xlink:href="#DejaVuSans-30" x="254.492188"/>
      </g>
     </g>
    </g>
   </g>
   <g id="line2d_16">
    <path d="M 184.581818 492.48 
L 186.232604 492.426125 
L 285.096333 492.291438 
L 451.092018 492.129813 
L 492.361664 491.968188 
L 585.172512 491.456376 
L 585.539353 491.240877 
L 589.391186 491.106189 
L 636.346872 490.944564 
L 640.382126 490.863752 
L 661.842342 490.67519 
L 689.355439 490.001753 
L 695.775162 489.651566 
L 705.313035 489.463004 
L 709.715131 488.493255 
L 709.898552 488.385505 
L 711.549337 488.304693 
L 712.28302 487.927568 
L 712.466441 487.308006 
L 712.833282 487.146382 
L 713.016703 487.119444 
L 713.200123 486.257445 
L 714.300647 485.880321 
L 714.667488 485.422384 
L 715.03433 485.287696 
L 715.21775 484.964447 
L 715.401171 484.237135 
L 715.768012 483.644511 
L 715.951433 482.863324 
L 716.134854 481.381764 
L 716.685116 480.412015 
L 717.051957 475.617146 
L 717.235378 475.105334 
L 717.602219 472.0614 
L 717.785639 471.549588 
L 717.96906 470.202715 
L 718.152481 470.121903 
L 718.702743 468.45178 
L 718.886163 464.680534 
L 719.069584 464.357285 
L 719.436425 463.306724 
L 719.619846 463.225911 
L 719.803267 462.660224 
L 719.986687 460.074228 
L 720.170108 459.454666 
L 720.353529 459.427728 
L 720.536949 457.542106 
L 720.72037 457.299669 
L 721.087211 457.164981 
L 721.820894 455.440983 
L 722.187735 454.902234 
L 722.737997 453.447611 
L 723.104838 449.406991 
L 723.47168 447.521368 
L 724.021941 447.440556 
L 724.388783 447.251994 
L 725.122465 446.22837 
L 725.489307 446.174495 
L 725.856148 444.046435 
L 726.222989 443.88481 
L 726.40641 443.669311 
L 726.589831 442.699562 
L 726.956672 442.430187 
L 727.140092 442.2955 
L 727.323513 441.837563 
L 727.873775 441.675938 
L 728.240616 441.433501 
L 728.607458 440.436815 
L 728.790878 440.356002 
L 729.15772 439.95194 
L 729.891402 439.655628 
L 730.074823 438.739754 
L 730.441664 438.551192 
L 730.625085 436.800257 
L 730.991926 436.746382 
L 731.358767 436.23457 
L 731.542188 435.722758 
L 732.09245 435.615008 
L 732.275871 435.453383 
L 732.642712 434.941571 
L 732.826133 434.914634 
L 733.192974 434.510572 
L 733.559815 434.402822 
L 733.743236 433.190636 
L 734.84376 433.055949 
L 735.210601 432.894324 
L 735.944284 432.813511 
L 736.127704 432.705762 
L 738.695593 432.0862 
L 739.062435 431.8707 
L 739.979538 431.76295 
L 740.71322 431.439701 
L 742.547427 431.116451 
L 743.281109 429.176954 
L 744.931895 428.988391 
L 746.032419 428.799829 
L 748.050046 428.395767 
L 748.783729 428.207205 
L 749.15057 428.15333 
L 749.517411 427.857018 
L 749.884253 427.776205 
L 750.067673 427.61458 
L 750.801356 427.399081 
L 751.718459 427.345206 
L 751.90188 427.156644 
L 752.268721 427.129706 
L 752.452142 426.725644 
L 752.635562 426.671769 
L 752.818983 426.106082 
L 755.570293 425.648145 
L 755.753713 425.324896 
L 757.037658 425.055521 
L 757.58792 424.893896 
L 758.321602 424.759209 
L 759.055285 424.597584 
L 760.155809 424.382084 
L 761.072912 424.11271 
L 761.806595 423.78946 
L 761.990015 423.250711 
L 762.907119 422.685024 
L 763.090539 422.442587 
L 764.007643 421.823025 
L 764.374484 421.257338 
L 764.557904 421.230401 
L 764.924746 420.664714 
L 765.658428 419.96434 
L 766.20869 419.883528 
L 766.575532 419.64109 
L 766.758952 419.560278 
L 766.942373 419.290903 
L 767.859476 419.102341 
L 768.042897 418.859904 
L 769.877103 418.563592 
L 770.060524 418.428904 
L 771.161048 418.26728 
L 772.078151 417.970967 
L 772.811834 417.83628 
L 773.178675 417.378343 
L 773.545516 417.189781 
L 774.462619 416.677969 
L 774.64604 416.058407 
L 775.563143 415.81597 
L 777.764191 414.819284 
L 777.947612 414.549909 
L 778.497874 414.388284 
L 779.414977 414.038097 
L 779.781818 411.263538 
L 779.965239 410.374602 
L 780.148659 408.893041 
L 780.33208 408.704479 
L 780.882342 407.007418 
L 781.432604 406.172357 
L 781.799445 405.956857 
L 781.982866 405.795232 
L 782.166287 404.987108 
L 782.349707 404.744671 
L 782.716549 404.663859 
L 783.26681 404.01736 
L 783.450231 403.532485 
L 784.000493 402.966799 
L 784.183914 402.239487 
L 785.101017 400.973426 
L 786.01812 400.596301 
L 786.201541 399.895927 
L 786.751803 399.65349 
L 787.485485 398.953116 
L 787.668906 398.441304 
L 788.035747 398.279679 
L 788.402589 397.902555 
L 788.76943 397.875617 
L 788.952851 397.606243 
L 789.319692 397.444618 
L 789.869954 397.013618 
L 790.236795 396.825056 
L 790.420216 396.367119 
L 791.70416 395.532058 
L 791.887581 395.451245 
L 792.254422 394.481497 
L 792.804684 394.292934 
L 793.354946 394.158247 
L 793.721787 393.673373 
L 794.088629 393.430935 
L 794.638891 392.676686 
L 795.922835 392.380374 
L 796.473097 391.653063 
L 797.20678 391.518375 
L 798.123883 390.952688 
L 798.307304 390.925751 
L 798.857565 390.548626 
L 799.224407 390.440877 
L 799.591248 390.413939 
L 799.774669 390.252314 
L 799.958089 389.821315 
L 800.691772 389.632753 
L 800.875193 389.390315 
L 801.058613 389.363378 
L 801.242034 388.878503 
L 801.975716 388.663004 
L 802.342558 388.582191 
L 802.709399 388.339754 
L 804.727026 387.63938 
L 804.910447 386.939006 
L 805.277288 386.696569 
L 805.82755 386.534944 
L 806.377812 386.265569 
L 807.111495 386.157819 
L 807.294915 385.430508 
L 807.845177 385.215008 
L 808.028598 385.053383 
L 808.76228 384.918696 
L 808.945701 384.810946 
L 809.312542 384.784009 
L 809.495963 384.568509 
L 810.229646 384.353009 
L 810.413066 384.056697 
L 810.779908 384.029759 
L 811.330169 383.760385 
L 811.697011 383.59876 
L 811.880431 383.302448 
L 813.164376 382.979198 
L 813.347797 382.817573 
L 813.898059 382.682886 
L 814.081479 382.440449 
L 814.2649 382.413511 
L 814.631741 382.198012 
L 814.998582 382.063324 
L 815.182003 381.955575 
L 816.282527 381.740075 
L 816.465948 381.443763 
L 817.01621 381.309075 
L 817.566471 381.228263 
L 817.933313 380.985826 
L 818.483575 380.851138 
L 818.850416 380.743389 
L 819.033837 380.554826 
L 819.400678 380.500951 
L 819.584099 380.043014 
L 819.767519 379.962202 
L 820.684622 378.884703 
L 820.868043 378.803891 
L 821.051464 378.588391 
L 821.418305 378.426766 
L 822.151988 377.941892 
L 822.518829 377.834142 
L 822.70225 377.53783 
L 823.252512 377.268455 
L 823.619353 377.079893 
L 824.169615 376.945206 
L 824.719877 376.541144 
L 825.086718 376.298707 
L 825.453559 376.029332 
L 826.187242 375.571395 
L 827.838028 374.978771 
L 828.57171 374.520834 
L 829.305393 374.305334 
L 829.855655 374.062897 
L 830.589337 373.847397 
L 830.956179 373.631897 
L 831.506441 373.49721 
L 832.056703 373.227835 
L 832.606965 373.093148 
L 833.157227 372.877648 
L 834.25775 372.635211 
L 834.808012 372.446649 
L 834.991433 372.177274 
L 837.375901 371.423025 
L 837.742743 371.2614 
L 838.109584 371.207525 
L 838.476425 370.857338 
L 838.659846 369.752902 
L 839.026687 369.483528 
L 839.393529 369.34884 
L 840.127211 368.621529 
L 840.310632 368.513779 
L 840.677473 367.813405 
L 841.044314 367.624842 
L 841.411156 367.463218 
L 841.777997 367.382405 
L 842.144838 367.166905 
L 842.328259 367.059156 
L 843.245362 366.870593 
L 843.612203 366.547344 
L 844.162465 366.170219 
L 844.529307 366.062469 
L 844.896148 365.73922 
L 845.996672 365.065783 
L 846.363513 365.038846 
L 846.546934 364.796408 
L 847.280616 364.634784 
L 847.464037 364.096034 
L 847.830878 363.82666 
L 848.747982 363.584222 
L 848.931402 363.50341 
L 849.114823 363.126285 
L 849.481664 363.018536 
L 849.665085 362.722223 
L 850.215347 362.372036 
L 850.582188 362.210412 
L 850.949029 362.129599 
L 851.315871 361.941037 
L 851.499291 361.914099 
L 851.866133 361.725537 
L 852.599815 361.37535 
L 852.966656 360.755788 
L 854.434022 360.136227 
L 854.617442 359.651352 
L 855.167704 359.489727 
L 855.717966 358.924041 
L 855.901387 358.870166 
L 856.268228 358.627728 
L 856.451649 358.600791 
L 856.81849 358.196729 
L 857.185331 358.008167 
L 857.919014 357.738792 
L 858.102435 357.469417 
L 858.469276 357.415542 
L 858.652696 357.22698 
L 858.836117 357.200043 
L 859.019538 356.661293 
L 859.5698 356.499669 
L 859.75322 356.418856 
L 860.120062 356.095607 
L 860.303482 355.987857 
L 860.853744 355.395232 
L 862.321109 354.614046 
L 863.054792 354.398546 
L 863.421633 353.994484 
L 863.605054 353.940609 
L 864.522157 353.267173 
L 865.072419 353.051673 
L 865.43926 352.890048 
L 865.622681 352.863111 
L 865.806102 352.324361 
L 866.356364 352.001112 
L 866.539784 351.4893 
L 866.906626 351.2738 
L 867.090046 351.0583 
L 867.273467 351.031363 
L 868.007149 350.465676 
L 868.740832 350.223239 
L 869.107673 349.980802 
L 870.208197 349.549802 
L 870.94188 348.768616 
L 871.308721 348.687803 
L 871.675562 348.418429 
L 871.858983 348.229866 
L 872.042404 348.202929 
L 872.225824 347.906617 
L 874.610293 346.775243 
L 874.977134 346.586681 
L 875.527396 346.398119 
L 876.077658 346.263431 
L 877.361602 345.455307 
L 877.728444 345.32062 
L 878.095285 345.21287 
L 878.462126 344.889621 
L 879.929492 344.350871 
L 880.296333 344.243121 
L 880.479753 343.273373 
L 881.030015 343.057873 
L 881.213436 342.815436 
L 881.396857 342.788498 
L 882.130539 341.791812 
L 882.31396 341.710999 
L 882.497381 341.38775 
L 882.864222 341.28 
L 883.597904 340.418001 
L 883.964746 339.205815 
L 884.148166 338.828691 
L 884.515008 336.943068 
L 884.698428 336.134944 
L 885.615532 335.21907 
L 886.349214 332.821635 
L 886.532635 332.686948 
L 886.716055 332.336761 
L 886.899476 331.0707 
L 887.082897 330.693576 
L 887.266317 330.666638 
L 887.449738 330.074014 
L 888 329.777702 
L 888.366841 329.05039 
L 890.384468 328.134516 
L 890.93473 327.56883 
L 891.301572 327.057018 
L 891.668413 326.949268 
L 892.035254 326.81458 
L 895.153405 325.817894 
L 895.703667 325.33302 
L 896.253929 325.063645 
L 896.62077 324.875083 
L 896.804191 324.632646 
L 897.537874 324.390208 
L 897.721294 324.309396 
L 897.904715 323.716772 
L 898.454977 323.366585 
L 899.005239 323.178022 
L 899.188659 322.98946 
L 899.738921 322.800898 
L 901.022866 322.235211 
L 901.573128 321.750337 
L 901.756549 321.373212 
L 902.12339 321.238525 
L 902.673652 320.349588 
L 902.857072 319.837777 
L 903.223914 319.622277 
L 903.774176 319.299027 
L 903.957596 319.05659 
L 904.324438 318.006029 
L 904.507858 317.790529 
L 904.691279 317.224842 
L 904.8747 317.170967 
L 905.05812 316.71303 
L 905.424961 316.551406 
L 906.525485 315.716344 
L 906.708906 315.33922 
L 907.259168 315.177595 
L 907.992851 314.935158 
L 908.543112 314.773533 
L 908.726533 314.207846 
L 909.276795 313.992346 
L 910.927581 313.238097 
L 912.211525 312.349161 
L 912.394946 312.106724 
L 912.578367 311.621849 
L 913.678891 311.217787 
L 914.045732 310.813725 
L 914.412573 310.732913 
L 914.595994 310.409663 
L 914.962835 310.274976 
L 915.146256 310.005601 
L 917.163883 309.008915 
L 918.264407 307.931416 
L 918.447827 307.392667 
L 918.814669 306.93473 
L 918.998089 306.638418 
L 919.731772 303.486734 
L 920.098613 302.840235 
L 920.282034 302.516986 
L 920.465455 301.0893 
L 920.832296 297.318055 
L 921.015716 295.755681 
L 921.199137 295.405494 
L 921.565978 293.546809 
L 921.93282 290.906937 
L 922.299661 287.243442 
L 922.666502 286.785505 
L 923.033344 282.098386 
L 923.216764 280.859262 
L 923.583606 275.714206 
L 923.950447 274.71752 
L 924.133867 272.023773 
L 924.317288 271.538899 
L 924.684129 268.629653 
L 925.050971 260.736975 
L 925.234391 260.332913 
L 925.417812 259.578664 
L 925.601233 257.154292 
L 925.784653 256.96573 
L 926.151495 252.898172 
L 926.518336 252.70961 
L 926.885177 251.955361 
L 927.068598 251.793736 
L 927.252018 251.416611 
L 927.435439 250.662362 
L 927.80228 250.500738 
L 928.352542 249.073052 
L 928.719384 247.025804 
L 928.902804 246.64868 
L 929.086225 246.594805 
L 929.269646 246.406243 
L 929.636487 245.894431 
L 929.819908 245.059369 
L 930.003328 244.870807 
L 930.186749 244.52062 
L 930.370169 244.466745 
L 930.737011 243.981871 
L 931.103852 243.847183 
L 931.287273 243.443121 
L 932.204376 242.634997 
L 932.754638 242.203998 
L 932.938059 242.17706 
L 933.48832 241.692186 
L 934.222003 241.288124 
L 934.955686 241.153437 
L 935.139106 240.991812 
L 935.505948 240.937937 
L 936.05621 240.58775 
L 937.523575 239.968188 
L 937.706995 239.591064 
L 938.624099 239.375564 
L 939.357781 238.863752 
L 940.091464 238.190315 
L 940.274884 238.028691 
L 941.008567 237.813191 
L 942.292512 237.005067 
L 942.659353 236.816505 
L 942.842773 236.33163 
L 944.126718 235.496569 
L 944.67698 235.146382 
L 946.511186 234.41907 
L 946.878028 233.637883 
L 947.061448 233.557071 
L 947.42829 233.126072 
L 948.161972 232.50651 
L 948.345393 232.425697 
L 948.895655 231.779198 
L 949.079076 231.240449 
L 949.262496 231.105762 
L 949.629337 231.051887 
L 949.996179 230.782512 
L 950.729861 230.459262 
L 951.463544 230.136013 
L 951.830385 229.705013 
L 952.013806 229.678076 
L 952.197227 226.55333 
L 952.564068 226.12233 
L 952.930909 225.826018 
L 953.11433 225.502769 
L 953.29775 225.475831 
L 953.664592 225.125644 
L 953.848012 224.613832 
L 954.948536 223.590208 
L 955.131957 223.320834 
L 955.498798 221.812336 
L 955.682219 221.381336 
L 955.865639 220.573212 
L 956.04906 220.330775 
L 956.232481 219.307151 
L 956.599322 218.47209 
L 956.782743 217.825591 
L 957.516425 217.071342 
L 958.066687 216.45178 
L 958.433529 216.263218 
L 958.80037 216.12853 
L 959.717473 215.212656 
L 959.900894 214.835532 
L 960.084314 214.781657 
L 960.451156 214.43147 
L 960.634576 214.269845 
L 961.001418 213.623346 
L 961.368259 213.246221 
L 961.55168 212.357285 
L 962.835624 211.549161 
L 963.936148 210.229225 
L 964.119569 210.040663 
L 964.48641 209.178664 
L 964.669831 209.017039 
L 965.220092 207.885665 
L 965.403513 207.804853 
L 965.586934 207.319979 
L 965.770354 207.158354 
L 966.320616 205.703731 
L 966.870878 204.922544 
L 967.42114 204.626232 
L 967.787982 204.00667 
L 968.521664 203.333234 
L 968.888505 202.282672 
L 969.622188 200.262362 
L 969.805609 198.861614 
L 969.989029 198.646114 
L 970.17245 197.460866 
L 970.539291 196.975991 
L 970.722712 196.544992 
L 971.089553 194.497745 
L 971.456394 193.743495 
L 971.639815 193.581871 
L 971.823236 186.820567 
L 972.006656 184.23457 
L 972.190077 168.853276 
L 972.740339 167.802715 
L 972.92376 167.64109 
L 973.290601 166.375029 
L 973.657442 165.51303 
L 974.757966 159.074976 
L 975.308228 157.781978 
L 975.491649 156.300417 
L 975.85849 155.73473 
L 976.225331 154.468669 
L 976.408752 152.933234 
L 976.592173 152.556109 
L 976.959014 151.505548 
L 977.509276 150.670486 
L 977.692696 150.589674 
L 978.6098 147.330241 
L 979.160062 145.902555 
L 979.526903 144.04387 
L 979.710324 143.989995 
L 979.893744 143.801432 
L 980.077165 143.774495 
L 980.444006 143.39737 
L 980.627427 142.723934 
L 981.361109 141.673373 
L 981.727951 140.622811 
L 981.911371 140.488124 
L 982.278213 139.626125 
L 982.645054 138.063752 
L 982.828475 137.821315 
L 983.011895 137.76744 
L 983.378737 136.070379 
L 983.562157 135.720192 
L 984.112419 133.592133 
L 984.29584 133.29582 
L 985.579784 128.635639 
L 985.763205 128.527889 
L 986.496888 124.621956 
L 986.680308 124.514206 
L 986.863729 124.217894 
L 988.331094 119.934837 
L 988.697935 118.480214 
L 989.248197 117.375778 
L 989.798459 114.843656 
L 990.715562 111.961347 
L 991.265824 109.456162 
L 991.632666 107.274228 
L 991.999507 106.412229 
L 992.73319 103.880107 
L 993.283451 102.479359 
L 993.466872 100.809236 
L 993.650293 100.297424 
L 994.017134 98.330989 
L 995.117658 95.152368 
L 995.66792 92.539433 
L 995.851341 92.108434 
L 996.218182 89.28 
L 996.218182 89.28 
" clip-path="url(#p1b85a80a06)" style="fill: none; stroke: #1f77b4; stroke-width: 1.5; stroke-linecap: square"/>
   </g>
   <g id="patch_3">
    <path d="M 144 512.64 
L 144 69.12 
" style="fill: none; stroke: #000000; stroke-width: 0.8; stroke-linejoin: miter; stroke-linecap: square"/>
   </g>
   <g id="patch_4">
    <path d="M 1036.8 512.64 
L 1036.8 69.12 
" style="fill: none; stroke: #000000; stroke-width: 0.8; stroke-linejoin: miter; stroke-linecap: square"/>
   </g>
   <g id="patch_5">
    <path d="M 144 512.64 
L 1036.8 512.64 
" style="fill: none; stroke: #000000; stroke-width: 0.8; stroke-linejoin: miter; stroke-linecap: square"/>
   </g>
   <g id="patch_6">
    <path d="M 144 69.12 
L 1036.8 69.12 
" style="fill: none; stroke: #000000; stroke-width: 0.8; stroke-linejoin: miter; stroke-linecap: square"/>
   </g>
   <g id="text_16">
    <!-- Number of AEDs in the OpenStreetMap database in Poland from first edition, day by day. As at: 2026-03-24 -->
    <g transform="translate(144 63.12) scale(0.14 -0.14)">
     <defs>
      <path id="DejaVuSans-4e" d="M 628 4666 
L 1478 4666 
L 3547 763 
L 3547 4666 
L 4159 4666 
L 4159 0 
L 3309 0 
L 1241 3903 
L 1241 0 
L 628 0 
L 628 4666 
z
" transform="scale(0.015625)"/>
      <path id="DejaVuSans-75" d="M 544 1381 
L 544 3500 
L 1119 3500 
L 1119 1403 
Q 1119 906 1312 657 
Q 1506 409 1894 409 
Q 2359 409 2629 706 
Q 2900 1003 2900 1516 
L 2900 3500 
L 3475 3500 
L 3475 0 
L 2900 0 
L 2900 538 
Q 2691 219 2414 64 
Q 2138 -91 1772 -91 
Q 1169 -91 856 284 
Q 544 659 544 1381 
z
M 1991 3584 
L 1991 3584 
z
" transform="scale(0.015625)"/>
      <path id="DejaVuSans-6d" d="M 3328 2828 
Q 3544 3216 3844 3400 
Q 4144 3584 4550 3584 
Q 5097 3584 5394 3201 
Q 5691 2819 5691 2113 
L 5691 0 
L 5113 0 
L 5113 2094 
Q 5113 2597 4934 2840 
Q 4756 3084 4391 3084 
Q 3944 3084 3684 2787 
Q 3425 2491 3425 1978 
L 3425 0 
L 2847 0 
L 2847 2094 
Q 2847 2600 2669 2842 
Q 2491 3084 2119 3084 
Q 1678 3084 1418 2786 
Q 1159 2488 1159 1978 
L 1159 0 
L 581 0 
L 581 3500 
L 1159 3500 
L 1159 2956 
Q 1356 3278 1631 3431 
Q 1906 3584 2284 3584 
Q 2666 3584 2933 3390 
Q 3200 3197 3328 2828 
z
" transform="scale(0.015625)"/>
      <path id="DejaVuSans-62" d="M 3116 1747 
Q 3116 2381 2855 2742 
Q 2594 3103 2138 3103 
Q 1681 3103 1420 2742 
Q 1159 2381 1159 1747 
Q 1159 1113 1420 752 
Q 1681 391 2138 391 
Q 2594 391 2855 752 
Q 3116 1113 3116 1747 
z
M 1159 2969 
Q 1341 3281 1617 3432 
Q 1894 3584 2278 3584 
Q 2916 3584 3314 3078 
Q 3713 2572 3713 1747 
Q 3713 922 3314 415 
Q 2916 -91 2278 -91 
Q 1894 -91 1617 61 
Q 1341 213 1159 525 
L 1159 0 
L 581 0 
L 581 4863 
L 1159 4863 
L 1159 2969 
z
" transform="scale(0.015625)"/>
      <path id="DejaVuSans-65" d="M 3597 1894 
L 3597 1613 
L 953 1613 
Q 991 1019 1311 708 
Q 1631 397 2203 397 
Q 2534 397 2845 478 
Q 3156 559 3463 722 
L 3463 178 
Q 3153 47 2828 -22 
Q 2503 -91 2169 -91 
Q 1331 -91 842 396 
Q 353 884 353 1716 
Q 353 2575 817 3079 
Q 1281 3584 2069 3584 
Q 2775 3584 3186 3129 
Q 3597 2675 3597 1894 
z
M 3022 2063 
Q 3016 2534 2758 2815 
Q 2500 3097 2075 3097 
Q 1594 3097 1305 2825 
Q 1016 2553 972 2059 
L 3022 2063 
z
" transform="scale(0.015625)"/>
      <path id="DejaVuSans-72" d="M 2631 2963 
Q 2534 3019 2420 3045 
Q 2306 3072 2169 3072 
Q 1681 3072 1420 2755 
Q 1159 2438 1159 1844 
L 1159 0 
L 581 0 
L 581 3500 
L 1159 3500 
L 1159 2956 
Q 1341 3275 1631 3429 
Q 1922 3584 2338 3584 
Q 2397 3584 2469 3576 
Q 2541 3569 2628 3553 
L 2631 2963 
z
" transform="scale(0.015625)"/>
      <path id="DejaVuSans-20" transform="scale(0.015625)"/>
      <path id="DejaVuSans-6f" d="M 1959 3097 
Q 1497 3097 1228 2736 
Q 959 2375 959 1747 
Q 959 1119 1226 758 
Q 1494 397 1959 397 
Q 2419 397 2687 759 
Q 2956 1122 2956 1747 
Q 2956 2369 2687 2733 
Q 2419 3097 1959 3097 
z
M 1959 3584 
Q 2709 3584 3137 3096 
Q 3566 2609 3566 1747 
Q 3566 888 3137 398 
Q 2709 -91 1959 -91 
Q 1206 -91 779 398 
Q 353 888 353 1747 
Q 353 2609 779 3096 
Q 1206 3584 1959 3584 
z
" transform="scale(0.015625)"/>
      <path id="DejaVuSans-66" d="M 2375 4863 
L 2375 4384 
L 1825 4384 
Q 1516 4384 1395 4259 
Q 1275 4134 1275 3809 
L 1275 3500 
L 2222 3500 
L 2222 3053 
L 1275 3053 
L 1275 0 
L 697 0 
L 697 3053 
L 147 3053 
L 147 3500 
L 697 3500 
L 697 3744 
Q 697 4328 969 4595 
Q 1241 4863 1831 4863 
L 2375 4863 
z
" transform="scale(0.015625)"/>
      <path id="DejaVuSans-41" d="M 2188 4044 
L 1331 1722 
L 3047 1722 
L 2188 4044 
z
M 1831 4666 
L 2547 4666 
L 4325 0 
L 3669 0 
L 3244 1197 
L 1141 1197 
L 716 0 
L 50 0 
L 1831 4666 
z
" transform="scale(0.015625)"/>
      <path id="DejaVuSans-45" d="M 628 4666 
L 3578 4666 
L 3578 4134 
L 1259 4134 
L 1259 2753 
L 3481 2753 
L 3481 2222 
L 1259 2222 
L 1259 531 
L 3634 531 
L 3634 0 
L 628 0 
L 628 4666 
z
" transform="scale(0.015625)"/>
      <path id="DejaVuSans-44" d="M 1259 4147 
L 1259 519 
L 2022 519 
Q 2988 519 3436 956 
Q 3884 1394 3884 2338 
Q 3884 3275 3436 3711 
Q 2988 4147 2022 4147 
L 1259 4147 
z
M 628 4666 
L 1925 4666 
Q 3281 4666 3915 4102 
Q 4550 3538 4550 2338 
Q 4550 1131 3912 565 
Q 3275 0 1925 0 
L 628 0 
L 628 4666 
z
" transform="scale(0.015625)"/>
      <path id="DejaVuSans-73" d="M 2834 3397 
L 2834 2853 
Q 2591 2978 2328 3040 
Q 2066 3103 1784 3103 
Q 1356 3103 1142 2972 
Q 928 2841 928 2578 
Q 928 2378 1081 2264 
Q 1234 2150 1697 2047 
L 1894 2003 
Q 2506 1872 2764 1633 
Q 3022 1394 3022 966 
Q 3022 478 2636 193 
Q 2250 -91 1575 -91 
Q 1294 -91 989 -36 
Q 684 19 347 128 
L 347 722 
Q 666 556 975 473 
Q 1284 391 1588 391 
Q 1994 391 2212 530 
Q 2431 669 2431 922 
Q 2431 1156 2273 1281 
Q 2116 1406 1581 1522 
L 1381 1569 
Q 847 1681 609 1914 
Q 372 2147 372 2553 
Q 372 3047 722 3315 
Q 1072 3584 1716 3584 
Q 2034 3584 2315 3537 
Q 2597 3491 2834 3397 
z
" transform="scale(0.015625)"/>
      <path id="DejaVuSans-69" d="M 603 3500 
L 1178 3500 
L 1178 0 
L 603 0 
L 603 3500 
z
M 603 4863 
L 1178 4863 
L 1178 4134 
L 603 4134 
L 603 4863 
z
" transform="scale(0.015625)"/>
      <path id="DejaVuSans-6e" d="M 3513 2113 
L 3513 0 
L 2938 0 
L 2938 2094 
Q 2938 2591 2744 2837 
Q 2550 3084 2163 3084 
Q 1697 3084 1428 2787 
Q 1159 2491 1159 1978 
L 1159 0 
L 581 0 
L 581 3500 
L 1159 3500 
L 1159 2956 
Q 1366 3272 1645 3428 
Q 1925 3584 2291 3584 
Q 2894 3584 3203 3211 
Q 3513 2838 3513 2113 
z
" transform="scale(0.015625)"/>
      <path id="DejaVuSans-74" d="M 1172 4494 
L 1172 3500 
L 2356 3500 
L 2356 3053 
L 1172 3053 
L 1172 1153 
Q 1172 725 1289 603 
Q 1406 481 1766 481 
L 2356 481 
L 2356 0 
L 1766 0 
Q 1100 0 847 248 
Q 594 497 594 1153 
L 594 3053 
L 172 3053 
L 172 3500 
L 594 3500 
L 594 4494 
L 1172 4494 
z
" transform="scale(0.015625)"/>
      <path id="DejaVuSans-68" d="M 3513 2113 
L 3513 0 
L 2938 0 
L 2938 2094 
Q 2938 2591 2744 2837 
Q 2550 3084 2163 3084 
Q 1697 3084 1428 2787 
Q 1159 2491 1159 1978 
L 1159 0 
L 581 0 
L 581 4863 
L 1159 4863 
L 1159 2956 
Q 1366 3272 1645 3428 
Q 1925 3584 2291 3584 
Q 2894 3584 3203 3211 
Q 3513 2838 3513 2113 
z
" transform="scale(0.015625)"/>
      <path id="DejaVuSans-4f" d="M 2522 4238 
Q 1834 4238 1429 3725 
Q 1025 3213 1025 2328 
Q 1025 1447 1429 934 
Q 1834 422 2522 422 
Q 3209 422 3611 934 
Q 4013 1447 4013 2328 
Q 4013 3213 3611 3725 
Q 3209 4238 2522 4238 
z
M 2522 4750 
Q 3503 4750 4090 4092 
Q 4678 3434 4678 2328 
Q 4678 1225 4090 567 
Q 3503 -91 2522 -91 
Q 1538 -91 948 565 
Q 359 1222 359 2328 
Q 359 3434 948 4092 
Q 1538 4750 2522 4750 
z
" transform="scale(0.015625)"/>
      <path id="DejaVuSans-70" d="M 1159 525 
L 1159 -1331 
L 581 -1331 
L 581 3500 
L 1159 3500 
L 1159 2969 
Q 1341 3281 1617 3432 
Q 1894 3584 2278 3584 
Q 2916 3584 3314 3078 
Q 3713 2572 3713 1747 
Q 3713 922 3314 415 
Q 2916 -91 2278 -91 
Q 1894 -91 1617 61 
Q 1341 213 1159 525 
z
M 3116 1747 
Q 3116 2381 2855 2742 
Q 2594 3103 2138 3103 
Q 1681 3103 1420 2742 
Q 1159 2381 1159 1747 
Q 1159 1113 1420 752 
Q 1681 391 2138 391 
Q 2594 391 2855 752 
Q 3116 1113 3116 1747 
z
" transform="scale(0.015625)"/>
      <path id="DejaVuSans-53" d="M 3425 4513 
L 3425 3897 
Q 3066 4069 2747 4153 
Q 2428 4238 2131 4238 
Q 1616 4238 1336 4038 
Q 1056 3838 1056 3469 
Q 1056 3159 1242 3001 
Q 1428 2844 1947 2747 
L 2328 2669 
Q 3034 2534 3370 2195 
Q 3706 1856 3706 1288 
Q 3706 609 3251 259 
Q 2797 -91 1919 -91 
Q 1588 -91 1214 -16 
Q 841 59 441 206 
L 441 856 
Q 825 641 1194 531 
Q 1563 422 1919 422 
Q 2459 422 2753 634 
Q 3047 847 3047 1241 
Q 3047 1584 2836 1778 
Q 2625 1972 2144 2069 
L 1759 2144 
Q 1053 2284 737 2584 
Q 422 2884 422 3419 
Q 422 4038 858 4394 
Q 1294 4750 2059 4750 
Q 2388 4750 2728 4690 
Q 3069 4631 3425 4513 
z
" transform="scale(0.015625)"/>
      <path id="DejaVuSans-4d" d="M 628 4666 
L 1569 4666 
L 2759 1491 
L 3956 4666 
L 4897 4666 
L 4897 0 
L 4281 0 
L 4281 4097 
L 3078 897 
L 2444 897 
L 1241 4097 
L 1241 0 
L 628 0 
L 628 4666 
z
" transform="scale(0.015625)"/>
      <path id="DejaVuSans-61" d="M 2194 1759 
Q 1497 1759 1228 1600 
Q 959 1441 959 1056 
Q 959 750 1161 570 
Q 1363 391 1709 391 
Q 2188 391 2477 730 
Q 2766 1069 2766 1631 
L 2766 1759 
L 2194 1759 
z
M 3341 1997 
L 3341 0 
L 2766 0 
L 2766 531 
Q 2569 213 2275 61 
Q 1981 -91 1556 -91 
Q 1019 -91 701 211 
Q 384 513 384 1019 
Q 384 1609 779 1909 
Q 1175 2209 1959 2209 
L 2766 2209 
L 2766 2266 
Q 2766 2663 2505 2880 
Q 2244 3097 1772 3097 
Q 1472 3097 1187 3025 
Q 903 2953 641 2809 
L 641 3341 
Q 956 3463 1253 3523 
Q 1550 3584 1831 3584 
Q 2591 3584 2966 3190 
Q 3341 2797 3341 1997 
z
" transform="scale(0.015625)"/>
      <path id="DejaVuSans-64" d="M 2906 2969 
L 2906 4863 
L 3481 4863 
L 3481 0 
L 2906 0 
L 2906 525 
Q 2725 213 2448 61 
Q 2172 -91 1784 -91 
Q 1150 -91 751 415 
Q 353 922 353 1747 
Q 353 2572 751 3078 
Q 1150 3584 1784 3584 
Q 2172 3584 2448 3432 
Q 2725 3281 2906 2969 
z
M 947 1747 
Q 947 1113 1208 752 
Q 1469 391 1925 391 
Q 2381 391 2643 752 
Q 2906 1113 2906 1747 
Q 2906 2381 2643 2742 
Q 2381 3103 1925 3103 
Q 1469 3103 1208 2742 
Q 947 2381 947 1747 
z
" transform="scale(0.015625)"/>
      <path id="DejaVuSans-50" d="M 1259 4147 
L 1259 2394 
L 2053 2394 
Q 2494 2394 2734 2622 
Q 2975 2850 2975 3272 
Q 2975 3691 2734 3919 
Q 2494 4147 2053 4147 
L 1259 4147 
z
M 628 4666 
L 2053 4666 
Q 2838 4666 3239 4311 
Q 3641 3956 3641 3272 
Q 3641 2581 3239 2228 
Q 2838 1875 2053 1875 
L 1259 1875 
L 1259 0 
L 628 0 
L 628 4666 
z
" transform="scale(0.015625)"/>
      <path id="DejaVuSans-6c" d="M 603 4863 
L 1178 4863 
L 1178 0 
L 603 0 
L 603 4863 
z
" transform="scale(0.015625)"/>
      <path id="DejaVuSans-2c" d="M 750 794 
L 1409 794 
L 1409 256 
L 897 -744 
L 494 -744 
L 750 256 
L 750 794 
z
" transform="scale(0.015625)"/>
      <path id="DejaVuSans-79" d="M 2059 -325 
Q 1816 -950 1584 -1140 
Q 1353 -1331 966 -1331 
L 506 -1331 
L 506 -850 
L 844 -850 
Q 1081 -850 1212 -737 
Q 1344 -625 1503 -206 
L 1606 56 
L 191 3500 
L 800 3500 
L 1894 763 
L 2988 3500 
L 3597 3500 
L 2059 -325 
z
" transform="scale(0.015625)"/>
      <path id="DejaVuSans-2e" d="M 684 794 
L 1344 794 
L 1344 0 
L 684 0 
L 684 794 
z
" transform="scale(0.015625)"/>
      <path id="DejaVuSans-3a" d="M 750 794 
L 1409 794 
L 1409 0 
L 750 0 
L 750 794 
z
M 750 3309 
L 1409 3309 
L 1409 2516 
L 750 2516 
L 750 3309 
z
" transform="scale(0.015625)"/>
      <path id="DejaVuSans-2d" d="M 313 2009 
L 1997 2009 
L 1997 1497 
L 313 1497 
L 313 2009 
z
" transform="scale(0.015625)"/>
      <path id="DejaVuSans-33" d="M 2597 2516 
Q 3050 2419 3304 2112 
Q 3559 1806 3559 1356 
Q 3559 666 3084 287 
Q 2609 -91 1734 -91 
Q 1441 -91 1130 -33 
Q 819 25 488 141 
L 488 750 
Q 750 597 1062 519 
Q 1375 441 1716 441 
Q 2309 441 2620 675 
Q 2931 909 2931 1356 
Q 2931 1769 2642 2001 
Q 2353 2234 1838 2234 
L 1294 2234 
L 1294 2753 
L 1863 2753 
Q 2328 2753 2575 2939 
Q 2822 3125 2822 3475 
Q 2822 3834 2567 4026 
Q 2313 4219 1838 4219 
Q 1578 4219 1281 4162 
Q 984 4106 628 3988 
L 628 4550 
Q 988 4650 1302 4700 
Q 1616 4750 1894 4750 
Q 2613 4750 3031 4423 
Q 3450 4097 3450 3541 
Q 3450 3153 3228 2886 
Q 3006 2619 2597 2516 
z
" transform="scale(0.015625)"/>
     </defs>
     <use xlink:href="#DejaVuSans-4e"/>
     <use xlink:href="#DejaVuSans-75" x="74.804688"/>
     <use xlink:href="#DejaVuSans-6d" x="138.183594"/>
     <use xlink:href="#DejaVuSans-62" x="235.595703"/>
     <use xlink:href="#DejaVuSans-65" x="299.072266"/>
     <use xlink:href="#DejaVuSans-72" x="360.595703"/>
     <use xlink:href="#DejaVuSans-20" x="401.708984"/>
     <use xlink:href="#DejaVuSans-6f" x="433.496094"/>
     <use xlink:href="#DejaVuSans-66" x="494.677734"/>
     <use xlink:href="#DejaVuSans-20" x="529.882812"/>
     <use xlink:href="#DejaVuSans-41" x="561.669922"/>
     <use xlink:href="#DejaVuSans-45" x="630.078125"/>
     <use xlink:href="#DejaVuSans-44" x="693.261719"/>
     <use xlink:href="#DejaVuSans-73" x="770.263672"/>
     <use xlink:href="#DejaVuSans-20" x="822.363281"/>
     <use xlink:href="#DejaVuSans-69" x="854.150391"/>
     <use xlink:href="#DejaVuSans-6e" x="881.933594"/>
     <use xlink:href="#DejaVuSans-20" x="945.3125"/>
     <use xlink:href="#DejaVuSans-74" x="977.099609"/>
     <use xlink:href="#DejaVuSans-68" x="1016.308594"/>
     <use xlink:href="#DejaVuSans-65" x="1079.6875"/>
     <use xlink:href="#DejaVuSans-20" x="1141.210938"/>
     <use xlink:href="#DejaVuSans-4f" x="1172.998047"/>
     <use xlink:href="#DejaVuSans-70" x="1251.708984"/>
     <use xlink:href="#DejaVuSans-65" x="1315.185547"/>
     <use xlink:href="#DejaVuSans-6e" x="1376.708984"/>
     <use xlink:href="#DejaVuSans-53" x="1440.087891"/>
     <use xlink:href="#DejaVuSans-74" x="1503.564453"/>
     <use xlink:href="#DejaVuSans-72" x="1542.773438"/>
     <use xlink:href="#DejaVuSans-65" x="1581.636719"/>
     <use xlink:href="#DejaVuSans-65" x="1643.160156"/>
     <use xlink:href="#DejaVuSans-74" x="1704.683594"/>
     <use xlink:href="#DejaVuSans-4d" x="1743.892578"/>
     <use xlink:href="#DejaVuSans-61" x="1830.171875"/>
     <use xlink:href="#DejaVuSans-70" x="1891.451172"/>
     <use xlink:href="#DejaVuSans-20" x="1954.927734"/>
     <use xlink:href="#DejaVuSans-64" x="1986.714844"/>
     <use xlink:href="#DejaVuSans-61" x="2050.191406"/>
     <use xlink:href="#DejaVuSans-74" x="2111.470703"/>
     <use xlink:href="#DejaVuSans-61" x="2150.679688"/>
     <use xlink:href="#DejaVuSans-62" x="2211.958984"/>
     <use xlink:href="#DejaVuSans-61" x="2275.435547"/>
     <use xlink:href="#DejaVuSans-73" x="2336.714844"/>
     <use xlink:href="#DejaVuSans-65" x="2388.814453"/>
     <use xlink:href="#DejaVuSans-20" x="2450.337891"/>
     <use xlink:href="#DejaVuSans-69" x="2482.125"/>
     <use xlink:href="#DejaVuSans-6e" x="2509.908203"/>
     <use xlink:href="#DejaVuSans-20" x="2573.287109"/>
     <use xlink:href="#DejaVuSans-50" x="2605.074219"/>
     <use xlink:href="#DejaVuSans-6f" x="2661.751953"/>
     <use xlink:href="#DejaVuSans-6c" x="2722.933594"/>
     <use xlink:href="#DejaVuSans-61" x="2750.716797"/>
     <use xlink:href="#DejaVuSans-6e" x="2811.996094"/>
     <use xlink:href="#DejaVuSans-64" x="2875.375"/>
     <use xlink:href="#DejaVuSans-20" x="2938.851562"/>
     <use xlink:href="#DejaVuSans-66" x="2970.638672"/>
     <use xlink:href="#DejaVuSans-72" x="3005.84375"/>
     <use xlink:href="#DejaVuSans-6f" x="3044.707031"/>
     <use xlink:href="#DejaVuSans-6d" x="3105.888672"/>
     <use xlink:href="#DejaVuSans-20" x="3203.300781"/>
     <use xlink:href="#DejaVuSans-66" x="3235.087891"/>
     <use xlink:href="#DejaVuSans-69" x="3270.292969"/>
     <use xlink:href="#DejaVuSans-72" x="3298.076172"/>
     <use xlink:href="#DejaVuSans-73" x="3339.189453"/>
     <use xlink:href="#DejaVuSans-74" x="3391.289062"/>
     <use xlink:href="#DejaVuSans-20" x="3430.498047"/>
     <use xlink:href="#DejaVuSans-65" x="3462.285156"/>
     <use xlink:href="#DejaVuSans-64" x="3523.808594"/>
     <use xlink:href="#DejaVuSans-69" x="3587.285156"/>
     <use xlink:href="#DejaVuSans-74" x="3615.068359"/>
     <use xlink:href="#DejaVuSans-69" x="3654.277344"/>
     <use xlink:href="#DejaVuSans-6f" x="3682.060547"/>
     <use xlink:href="#DejaVuSans-6e" x="3743.242188"/>
     <use xlink:href="#DejaVuSans-2c" x="3806.621094"/>
     <use xlink:href="#DejaVuSans-20" x="3838.408203"/>
     <use xlink:href="#DejaVuSans-64" x="3870.195312"/>
     <use xlink:href="#DejaVuSans-61" x="3933.671875"/>
     <use xlink:href="#DejaVuSans-79" x="3994.951172"/>
     <use xlink:href="#DejaVuSans-20" x="4054.130859"/>
     <use xlink:href="#DejaVuSans-62" x="4085.917969"/>
     <use xlink:href="#DejaVuSans-79" x="4149.394531"/>
     <use xlink:href="#DejaVuSans-20" x="4208.574219"/>
     <use xlink:href="#DejaVuSans-64" x="4240.361328"/>
     <use xlink:href="#DejaVuSans-61" x="4303.837891"/>
     <use xlink:href="#DejaVuSans-79" x="4365.117188"/>
     <use xlink:href="#DejaVuSans-2e" x="4410.046875"/>
     <use xlink:href="#DejaVuSans-20" x="4441.833984"/>
     <use xlink:href="#DejaVuSans-41" x="4473.621094"/>
     <use xlink:href="#DejaVuSans-73" x="4542.029297"/>
     <use xlink:href="#DejaVuSans-20" x="4594.128906"/>
     <use xlink:href="#DejaVuSans-61" x="4625.916016"/>
     <use xlink:href="#DejaVuSans-74" x="4687.195312"/>
     <use xlink:href="#DejaVuSans-3a" x="4726.404297"/>
     <use xlink:href="#DejaVuSans-20" x="4760.095703"/>
     <use xlink:href="#DejaVuSans-32" x="4791.882812"/>
     <use xlink:href="#DejaVuSans-30" x="4855.505859"/>
     <use xlink:href="#DejaVuSans-32" x="4919.128906"/>
     <use xlink:href="#DejaVuSans-36" x="4982.751953"/>
     <use xlink:href="#DejaVuSans-2d" x="5046.375"/>
     <use xlink:href="#DejaVuSans-30" x="5082.458984"/>
     <use xlink:href="#DejaVuSans-33" x="5146.082031"/>
     <use xlink:href="#DejaVuSans-2d" x="5209.705078"/>
     <use xlink:href="#DejaVuSans-32" x="5245.789062"/>
     <use xlink:href="#DejaVuSans-34" x="5309.412109"/>
    </g>
   </g>
  </g>
 </g>
 <defs>
  <clipPath id="p1b85a80a06">
   <rect x="144" y="69.12" width="892.8" height="443.52"/>
  </clipPath>
 </defs>
</svg>
