<?xml version="1.0" encoding="utf-8" standalone="no"?>
<!DOCTYPE svg PUBLIC "-//W3C//DTD SVG 1.1//EN"
  "http://www.w3.org/Graphics/SVG/1.1/DTD/svg11.dtd">
<svg xmlns:xlink="http://www.w3.org/1999/xlink" width="1152pt" height="576pt" viewBox="0 0 1152 576" xmlns="http://www.w3.org/2000/svg" version="1.1">
 <metadata>
  <rdf:RDF xmlns:dc="http://purl.org/dc/elements/1.1/" xmlns:cc="http://creativecommons.org/ns#" xmlns:rdf="http://www.w3.org/1999/02/22-rdf-syntax-ns#">
   <cc:Work>
    <dc:type rdf:resource="http://purl.org/dc/dcmitype/StillImage"/>
    <dc:date>1980-01-01T00:00:00+00:00</dc:date>
    <dc:format>image/svg+xml</dc:format>
    <dc:creator>
     <cc:Agent>
      <dc:title>Matplotlib v3.9.1, https://matplotlib.org/</dc:title>
     </cc:Agent>
    </dc:creator>
   </cc:Work>
  </rdf:RDF>
 </metadata>
 <defs>
  <style type="text/css">*{stroke-linejoin: round; stroke-linecap: butt}</style>
 </defs>
 <g id="figure_1">
  <g id="patch_1">
   <path d="M 0 576 
L 1152 576 
L 1152 0 
L 0 0 
z
" style="fill: #ffffff"/>
  </g>
  <g id="axes_1">
   <g id="patch_2">
    <path d="M 144 512.64 
L 1036.8 512.64 
L 1036.8 69.12 
L 144 69.12 
z
" style="fill: #ffffff"/>
   </g>
   <g id="matplotlib.axis_1">
    <g id="xtick_1">
     <g id="line2d_1">
      <defs>
       <path id="mbb744abaf8" d="M 0 0 
L 0 3.5 
" style="stroke: #000000; stroke-width: 0.8"/>
      </defs>
      <g>
       <use xlink:href="#mbb744abaf8" x="176.521874" y="512.64" style="stroke: #000000; stroke-width: 0.8"/>
      </g>
     </g>
     <g id="text_1">
      <!-- 2014 -->
      <g transform="translate(163.796874 527.238438) scale(0.1 -0.1)">
       <defs>
        <path id="DejaVuSans-32" d="M 1228 531 
L 3431 531 
L 3431 0 
L 469 0 
L 469 531 
Q 828 903 1448 1529 
Q 2069 2156 2228 2338 
Q 2531 2678 2651 2914 
Q 2772 3150 2772 3378 
Q 2772 3750 2511 3984 
Q 2250 4219 1831 4219 
Q 1534 4219 1204 4116 
Q 875 4013 500 3803 
L 500 4441 
Q 881 4594 1212 4672 
Q 1544 4750 1819 4750 
Q 2544 4750 2975 4387 
Q 3406 4025 3406 3419 
Q 3406 3131 3298 2873 
Q 3191 2616 2906 2266 
Q 2828 2175 2409 1742 
Q 1991 1309 1228 531 
z
" transform="scale(0.015625)"/>
        <path id="DejaVuSans-30" d="M 2034 4250 
Q 1547 4250 1301 3770 
Q 1056 3291 1056 2328 
Q 1056 1369 1301 889 
Q 1547 409 2034 409 
Q 2525 409 2770 889 
Q 3016 1369 3016 2328 
Q 3016 3291 2770 3770 
Q 2525 4250 2034 4250 
z
M 2034 4750 
Q 2819 4750 3233 4129 
Q 3647 3509 3647 2328 
Q 3647 1150 3233 529 
Q 2819 -91 2034 -91 
Q 1250 -91 836 529 
Q 422 1150 422 2328 
Q 422 3509 836 4129 
Q 1250 4750 2034 4750 
z
" transform="scale(0.015625)"/>
        <path id="DejaVuSans-31" d="M 794 531 
L 1825 531 
L 1825 4091 
L 703 3866 
L 703 4441 
L 1819 4666 
L 2450 4666 
L 2450 531 
L 3481 531 
L 3481 0 
L 794 0 
L 794 531 
z
" transform="scale(0.015625)"/>
        <path id="DejaVuSans-34" d="M 2419 4116 
L 825 1625 
L 2419 1625 
L 2419 4116 
z
M 2253 4666 
L 3047 4666 
L 3047 1625 
L 3713 1625 
L 3713 1100 
L 3047 1100 
L 3047 0 
L 2419 0 
L 2419 1100 
L 313 1100 
L 313 1709 
L 2253 4666 
z
" transform="scale(0.015625)"/>
       </defs>
       <use xlink:href="#DejaVuSans-32"/>
       <use xlink:href="#DejaVuSans-30" x="63.623047"/>
       <use xlink:href="#DejaVuSans-31" x="127.246094"/>
       <use xlink:href="#DejaVuSans-34" x="190.869141"/>
      </g>
     </g>
    </g>
    <g id="xtick_2">
     <g id="line2d_2">
      <g>
       <use xlink:href="#mbb744abaf8" x="323.615853" y="512.64" style="stroke: #000000; stroke-width: 0.8"/>
      </g>
     </g>
     <g id="text_2">
      <!-- 2016 -->
      <g transform="translate(310.890853 527.238438) scale(0.1 -0.1)">
       <defs>
        <path id="DejaVuSans-36" d="M 2113 2584 
Q 1688 2584 1439 2293 
Q 1191 2003 1191 1497 
Q 1191 994 1439 701 
Q 1688 409 2113 409 
Q 2538 409 2786 701 
Q 3034 994 3034 1497 
Q 3034 2003 2786 2293 
Q 2538 2584 2113 2584 
z
M 3366 4563 
L 3366 3988 
Q 3128 4100 2886 4159 
Q 2644 4219 2406 4219 
Q 1781 4219 1451 3797 
Q 1122 3375 1075 2522 
Q 1259 2794 1537 2939 
Q 1816 3084 2150 3084 
Q 2853 3084 3261 2657 
Q 3669 2231 3669 1497 
Q 3669 778 3244 343 
Q 2819 -91 2113 -91 
Q 1303 -91 875 529 
Q 447 1150 447 2328 
Q 447 3434 972 4092 
Q 1497 4750 2381 4750 
Q 2619 4750 2861 4703 
Q 3103 4656 3366 4563 
z
" transform="scale(0.015625)"/>
       </defs>
       <use xlink:href="#DejaVuSans-32"/>
       <use xlink:href="#DejaVuSans-30" x="63.623047"/>
       <use xlink:href="#DejaVuSans-31" x="127.246094"/>
       <use xlink:href="#DejaVuSans-36" x="190.869141"/>
      </g>
     </g>
    </g>
    <g id="xtick_3">
     <g id="line2d_3">
      <g>
       <use xlink:href="#mbb744abaf8" x="470.91133" y="512.64" style="stroke: #000000; stroke-width: 0.8"/>
      </g>
     </g>
     <g id="text_3">
      <!-- 2018 -->
      <g transform="translate(458.18633 527.238438) scale(0.1 -0.1)">
       <defs>
        <path id="DejaVuSans-38" d="M 2034 2216 
Q 1584 2216 1326 1975 
Q 1069 1734 1069 1313 
Q 1069 891 1326 650 
Q 1584 409 2034 409 
Q 2484 409 2743 651 
Q 3003 894 3003 1313 
Q 3003 1734 2745 1975 
Q 2488 2216 2034 2216 
z
M 1403 2484 
Q 997 2584 770 2862 
Q 544 3141 544 3541 
Q 544 4100 942 4425 
Q 1341 4750 2034 4750 
Q 2731 4750 3128 4425 
Q 3525 4100 3525 3541 
Q 3525 3141 3298 2862 
Q 3072 2584 2669 2484 
Q 3125 2378 3379 2068 
Q 3634 1759 3634 1313 
Q 3634 634 3220 271 
Q 2806 -91 2034 -91 
Q 1263 -91 848 271 
Q 434 634 434 1313 
Q 434 1759 690 2068 
Q 947 2378 1403 2484 
z
M 1172 3481 
Q 1172 3119 1398 2916 
Q 1625 2713 2034 2713 
Q 2441 2713 2670 2916 
Q 2900 3119 2900 3481 
Q 2900 3844 2670 4047 
Q 2441 4250 2034 4250 
Q 1625 4250 1398 4047 
Q 1172 3844 1172 3481 
z
" transform="scale(0.015625)"/>
       </defs>
       <use xlink:href="#DejaVuSans-32"/>
       <use xlink:href="#DejaVuSans-30" x="63.623047"/>
       <use xlink:href="#DejaVuSans-31" x="127.246094"/>
       <use xlink:href="#DejaVuSans-38" x="190.869141"/>
      </g>
     </g>
    </g>
    <g id="xtick_4">
     <g id="line2d_4">
      <g>
       <use xlink:href="#mbb744abaf8" x="618.005308" y="512.64" style="stroke: #000000; stroke-width: 0.8"/>
      </g>
     </g>
     <g id="text_4">
      <!-- 2020 -->
      <g transform="translate(605.280308 527.238438) scale(0.1 -0.1)">
       <use xlink:href="#DejaVuSans-32"/>
       <use xlink:href="#DejaVuSans-30" x="63.623047"/>
       <use xlink:href="#DejaVuSans-32" x="127.246094"/>
       <use xlink:href="#DejaVuSans-30" x="190.869141"/>
      </g>
     </g>
    </g>
    <g id="xtick_5">
     <g id="line2d_5">
      <g>
       <use xlink:href="#mbb744abaf8" x="765.300785" y="512.64" style="stroke: #000000; stroke-width: 0.8"/>
      </g>
     </g>
     <g id="text_5">
      <!-- 2022 -->
      <g transform="translate(752.575785 527.238438) scale(0.1 -0.1)">
       <use xlink:href="#DejaVuSans-32"/>
       <use xlink:href="#DejaVuSans-30" x="63.623047"/>
       <use xlink:href="#DejaVuSans-32" x="127.246094"/>
       <use xlink:href="#DejaVuSans-32" x="190.869141"/>
      </g>
     </g>
    </g>
    <g id="xtick_6">
     <g id="line2d_6">
      <g>
       <use xlink:href="#mbb744abaf8" x="912.394764" y="512.64" style="stroke: #000000; stroke-width: 0.8"/>
      </g>
     </g>
     <g id="text_6">
      <!-- 2024 -->
      <g transform="translate(899.669764 527.238438) scale(0.1 -0.1)">
       <use xlink:href="#DejaVuSans-32"/>
       <use xlink:href="#DejaVuSans-30" x="63.623047"/>
       <use xlink:href="#DejaVuSans-32" x="127.246094"/>
       <use xlink:href="#DejaVuSans-34" x="190.869141"/>
      </g>
     </g>
    </g>
   </g>
   <g id="matplotlib.axis_2">
    <g id="ytick_1">
     <g id="line2d_7">
      <defs>
       <path id="md7c21dbcf3" d="M 0 0 
L -3.5 0 
" style="stroke: #000000; stroke-width: 0.8"/>
      </defs>
      <g>
       <use xlink:href="#md7c21dbcf3" x="144" y="492.521653" style="stroke: #000000; stroke-width: 0.8"/>
      </g>
     </g>
     <g id="text_7">
      <!-- 0 -->
      <g transform="translate(130.6375 496.320872) scale(0.1 -0.1)">
       <use xlink:href="#DejaVuSans-30"/>
      </g>
     </g>
    </g>
    <g id="ytick_2">
     <g id="line2d_8">
      <g>
       <use xlink:href="#md7c21dbcf3" x="144" y="409.215868" style="stroke: #000000; stroke-width: 0.8"/>
      </g>
     </g>
     <g id="text_8">
      <!-- 2000 -->
      <g transform="translate(111.55 413.015087) scale(0.1 -0.1)">
       <use xlink:href="#DejaVuSans-32"/>
       <use xlink:href="#DejaVuSans-30" x="63.623047"/>
       <use xlink:href="#DejaVuSans-30" x="127.246094"/>
       <use xlink:href="#DejaVuSans-30" x="190.869141"/>
      </g>
     </g>
    </g>
    <g id="ytick_3">
     <g id="line2d_9">
      <g>
       <use xlink:href="#md7c21dbcf3" x="144" y="325.910083" style="stroke: #000000; stroke-width: 0.8"/>
      </g>
     </g>
     <g id="text_9">
      <!-- 4000 -->
      <g transform="translate(111.55 329.709301) scale(0.1 -0.1)">
       <use xlink:href="#DejaVuSans-34"/>
       <use xlink:href="#DejaVuSans-30" x="63.623047"/>
       <use xlink:href="#DejaVuSans-30" x="127.246094"/>
       <use xlink:href="#DejaVuSans-30" x="190.869141"/>
      </g>
     </g>
    </g>
    <g id="ytick_4">
     <g id="line2d_10">
      <g>
       <use xlink:href="#md7c21dbcf3" x="144" y="242.604298" style="stroke: #000000; stroke-width: 0.8"/>
      </g>
     </g>
     <g id="text_10">
      <!-- 6000 -->
      <g transform="translate(111.55 246.403516) scale(0.1 -0.1)">
       <use xlink:href="#DejaVuSans-36"/>
       <use xlink:href="#DejaVuSans-30" x="63.623047"/>
       <use xlink:href="#DejaVuSans-30" x="127.246094"/>
       <use xlink:href="#DejaVuSans-30" x="190.869141"/>
      </g>
     </g>
    </g>
    <g id="ytick_5">
     <g id="line2d_11">
      <g>
       <use xlink:href="#md7c21dbcf3" x="144" y="159.298512" style="stroke: #000000; stroke-width: 0.8"/>
      </g>
     </g>
     <g id="text_11">
      <!-- 8000 -->
      <g transform="translate(111.55 163.097731) scale(0.1 -0.1)">
       <use xlink:href="#DejaVuSans-38"/>
       <use xlink:href="#DejaVuSans-30" x="63.623047"/>
       <use xlink:href="#DejaVuSans-30" x="127.246094"/>
       <use xlink:href="#DejaVuSans-30" x="190.869141"/>
      </g>
     </g>
    </g>
    <g id="ytick_6">
     <g id="line2d_12">
      <g>
       <use xlink:href="#md7c21dbcf3" x="144" y="75.992727" style="stroke: #000000; stroke-width: 0.8"/>
      </g>
     </g>
     <g id="text_12">
      <!-- 10000 -->
      <g transform="translate(105.1875 79.791946) scale(0.1 -0.1)">
       <use xlink:href="#DejaVuSans-31"/>
       <use xlink:href="#DejaVuSans-30" x="63.623047"/>
       <use xlink:href="#DejaVuSans-30" x="127.246094"/>
       <use xlink:href="#DejaVuSans-30" x="190.869141"/>
       <use xlink:href="#DejaVuSans-30" x="254.492188"/>
      </g>
     </g>
    </g>
   </g>
   <g id="line2d_13">
    <path d="M 184.581818 492.48 
L 186.395306 492.396694 
L 379.430965 492.063471 
L 451.970461 491.938512 
L 477.359285 491.855207 
L 512.218543 491.688595 
L 522.69647 491.563636 
L 567.227661 491.18876 
L 574.078613 491.105455 
L 600.676429 490.938843 
L 602.691415 490.89719 
L 624.654762 490.730579 
L 625.057759 490.397355 
L 629.28923 490.189091 
L 664.752984 490.022479 
L 668.782956 489.897521 
L 680.872872 489.814215 
L 685.305841 489.647603 
L 705.254202 489.439339 
L 705.455701 489.397686 
L 714.926135 489.064463 
L 721.37409 488.897851 
L 723.993572 488.73124 
L 724.195071 488.689587 
L 726.008558 488.564628 
L 727.419048 488.356364 
L 733.262508 488.189752 
L 741.725449 487.689917 
L 741.926948 487.606612 
L 744.143432 487.44 
L 750.792886 487.14843 
L 756.636346 487.023471 
L 761.472312 485.27405 
L 761.673811 485.107438 
L 763.487298 484.899174 
L 764.091794 484.27438 
L 764.293292 484.232727 
L 764.494791 483.191405 
L 764.69629 482.98314 
L 765.099287 482.899835 
L 765.300785 481.483636 
L 766.509777 480.858843 
L 766.912774 480.150744 
L 767.114273 480.067438 
L 767.315771 479.859174 
L 767.51727 479.192727 
L 767.718769 477.484959 
L 767.920267 477.026777 
L 768.121766 476.152066 
L 768.323264 474.735868 
L 768.524763 472.32 
L 768.92776 470.44562 
L 769.129259 470.112397 
L 769.330757 464.530909 
L 769.532256 462.24 
L 769.733755 461.365289 
L 769.935253 457.158347 
L 770.539749 452.45157 
L 770.741248 452.284959 
L 771.144245 449.910744 
L 771.345743 449.036033 
L 771.547242 442.913058 
L 771.748741 442.37157 
L 772.151738 440.330579 
L 772.353236 440.20562 
L 772.554735 439.164298 
L 772.756234 434.790744 
L 772.957732 433.707769 
L 773.159231 433.58281 
L 773.360729 430.250579 
L 773.562228 429.584132 
L 773.965225 429.375868 
L 774.77122 426.210248 
L 775.174217 425.335537 
L 775.577214 422.794711 
L 775.778713 421.836694 
L 775.980211 417.004959 
L 776.584707 411.631736 
L 776.786206 411.590083 
L 777.5922 411.090248 
L 778.398194 409.299174 
L 778.801192 409.132562 
L 779.204189 405.383802 
L 779.405687 405.342149 
L 779.808685 404.717355 
L 780.010183 402.926281 
L 780.211682 402.384793 
L 780.41318 402.176529 
L 780.816178 401.010248 
L 781.219175 400.843636 
L 781.420673 400.635372 
L 781.622172 400.260496 
L 782.226668 397.553058 
L 782.428166 397.386446 
L 782.831164 396.72 
L 783.234161 396.511736 
L 783.637158 396.261818 
L 783.838657 394.470744 
L 784.040155 394.345785 
L 784.241654 394.012562 
L 784.443152 390.472066 
L 784.84615 390.347107 
L 785.249147 389.389091 
L 785.450645 388.556033 
L 786.055141 388.389421 
L 786.659637 387.098182 
L 786.861136 387.056529 
L 787.264133 386.34843 
L 787.66713 386.181818 
L 787.868629 382.349752 
L 789.07762 382.016529 
L 789.480617 381.683306 
L 790.286612 381.558347 
L 790.48811 381.266777 
L 792.906094 380.433719 
L 793.712088 379.767273 
L 794.719581 379.600661 
L 795.122578 379.267438 
L 795.525576 379.100826 
L 797.137564 378.600992 
L 797.540562 378.43438 
L 798.346556 374.768926 
L 799.354049 374.602314 
L 799.555548 374.519008 
L 801.167536 374.310744 
L 801.772032 374.060826 
L 801.973531 373.352727 
L 802.981024 373.269421 
L 803.58552 372.894545 
L 804.99601 372.061488 
L 805.399007 371.853223 
L 805.600506 371.728264 
L 805.802004 371.436694 
L 806.607999 371.061818 
L 807.615492 370.895207 
L 807.81699 370.603636 
L 808.219987 370.561983 
L 808.421486 369.812231 
L 808.622985 369.728926 
L 808.824483 368.770909 
L 811.040968 368.271074 
L 811.242466 368.146116 
L 811.846962 367.979504 
L 812.048461 367.396364 
L 813.257452 367.06314 
L 815.272438 366.271736 
L 816.279931 366.146777 
L 816.884427 365.89686 
L 817.287424 365.771901 
L 818.697915 364.813884 
L 818.899413 363.980826 
L 819.906906 363.02281 
L 820.108405 362.606281 
L 821.115898 361.606612 
L 821.518895 360.690248 
L 821.720394 360.648595 
L 821.921892 359.815537 
L 822.929385 358.316033 
L 823.533881 358.191074 
L 823.73538 357.816198 
L 824.138377 357.607934 
L 824.339875 357.191405 
L 825.347368 356.858182 
L 825.548867 356.483306 
L 826.757859 356.191736 
L 827.765352 355.608595 
L 828.772845 355.400331 
L 830.183335 354.483967 
L 830.787831 354.317355 
L 831.190828 353.317686 
L 831.392326 353.23438 
L 832.399819 352.109752 
L 832.601318 352.026446 
L 832.802817 351.06843 
L 833.407312 350.901818 
L 834.414805 350.360331 
L 834.817803 350.318678 
L 835.2208 349.610579 
L 835.825296 349.19405 
L 836.026794 349.152397 
L 836.429791 348.48595 
L 837.034287 348.236033 
L 837.437284 347.861157 
L 838.04178 347.527934 
L 838.243279 343.987438 
L 838.646276 340.905124 
L 838.847775 338.280992 
L 839.049273 337.947769 
L 839.653769 335.157025 
L 840.258265 333.782479 
L 840.459763 333.657521 
L 840.661262 333.36595 
L 840.862761 332.78281 
L 841.064259 330.783471 
L 841.265758 330.325289 
L 841.668755 330.158678 
L 842.071752 329.03405 
L 842.273251 328.784132 
L 842.474749 327.951074 
L 842.676248 327.701157 
L 843.079245 326.993058 
L 843.280744 325.86843 
L 843.482242 325.451901 
L 843.88524 324.368926 
L 844.288237 323.702479 
L 845.094231 323.119339 
L 845.29573 322.869421 
L 845.497228 321.494876 
L 845.900226 321.286612 
L 846.303223 320.82843 
L 846.907719 319.870413 
L 847.109217 318.995702 
L 847.310716 318.95405 
L 847.915212 318.120992 
L 848.318209 317.996033 
L 848.519708 317.579504 
L 848.721206 317.496198 
L 849.124203 316.913058 
L 849.930198 313.497521 
L 850.131696 311.789752 
L 850.333195 311.164959 
L 851.340688 310.040331 
L 851.542187 309.957025 
L 851.743685 309.540496 
L 852.146682 307.87438 
L 853.355674 307.124628 
L 853.758671 306.083306 
L 853.96017 305.833388 
L 854.766164 304.000661 
L 855.37066 303.542479 
L 855.572159 303.500826 
L 856.176654 303.250909 
L 856.78115 301.709752 
L 857.385646 301.418182 
L 857.788643 300.96 
L 858.393139 300.126942 
L 858.796136 300.043636 
L 859.199133 299.460496 
L 859.803629 299.168926 
L 860.206626 299.08562 
L 860.408125 298.835702 
L 860.609624 298.044298 
L 861.415618 297.752727 
L 861.617117 297.336198 
L 861.818615 297.294545 
L 862.020114 296.50314 
L 862.62461 296.21157 
L 863.229105 296.044959 
L 863.632103 295.586777 
L 864.639596 295.003636 
L 865.042593 294.503802 
L 865.44559 294.212231 
L 865.848587 294.170579 
L 866.050086 292.962645 
L 866.453083 292.546116 
L 867.057579 292.212893 
L 867.259077 292.004628 
L 867.460576 291.962975 
L 867.662075 291.713058 
L 868.468069 291.46314 
L 868.669568 290.29686 
L 869.274063 289.838678 
L 869.475562 289.547107 
L 869.878559 289.505455 
L 870.080058 289.29719 
L 870.281556 289.255537 
L 870.483055 289.047273 
L 870.886052 288.963967 
L 871.087551 288.589091 
L 871.692047 288.297521 
L 871.893545 288.214215 
L 872.095044 287.756033 
L 872.498041 287.71438 
L 872.901038 287.381157 
L 873.505534 287.006281 
L 873.707033 286.381488 
L 874.513027 285.881653 
L 874.714526 285.506777 
L 875.117523 285.25686 
L 875.319021 284.965289 
L 875.923517 284.590413 
L 876.125016 284.215537 
L 876.326514 284.132231 
L 876.729512 283.799008 
L 876.93101 283.757355 
L 877.938503 283.049256 
L 878.3415 283.007603 
L 878.542999 282.840992 
L 878.744498 282.341157 
L 878.945996 282.216198 
L 879.953489 281.924628 
L 880.356486 281.549752 
L 880.759484 281.38314 
L 881.363979 281.174876 
L 881.565478 280.8 
L 881.968475 280.716694 
L 882.169974 279.966942 
L 882.371472 279.800331 
L 882.77447 279.258843 
L 882.975968 277.967603 
L 883.177467 277.884298 
L 884.18496 276.801322 
L 884.990954 275.926612 
L 885.393951 275.718347 
L 885.59545 275.218512 
L 885.796949 275.135207 
L 886.199946 274.593719 
L 886.602943 274.302149 
L 887.207439 274.052231 
L 887.811935 273.260826 
L 888.214932 272.88595 
L 888.617929 272.386116 
L 889.423923 271.428099 
L 890.028419 271.136529 
L 890.632915 270.969917 
L 890.834414 270.886612 
L 892.043405 269.262149 
L 892.8494 268.887273 
L 893.453895 268.387438 
L 894.25989 268.012562 
L 894.662887 267.596033 
L 894.864386 267.55438 
L 896.476374 266.638017 
L 896.677873 266.429752 
L 897.886865 266.013223 
L 898.088363 265.97157 
L 898.49136 265.555041 
L 898.894358 265.346777 
L 899.095856 264.888595 
L 899.901851 264.472066 
L 902.722831 262.722645 
L 902.92433 262.139504 
L 903.125828 260.223471 
L 903.528825 259.723636 
L 903.730324 259.681983 
L 904.737817 257.932562 
L 904.939316 257.76595 
L 905.342313 256.224793 
L 905.74531 255.808264 
L 906.148307 255.475041 
L 906.551305 255.350083 
L 906.752803 255.01686 
L 907.1558 254.766942 
L 907.558798 254.350413 
L 907.760296 254.30876 
L 908.163293 254.01719 
L 908.566291 253.225785 
L 908.767789 253.142479 
L 908.969288 252.642645 
L 909.573784 252.392727 
L 909.976781 251.684628 
L 910.581277 251.14314 
L 910.984274 250.643306 
L 911.58877 250.518347 
L 911.790268 250.143471 
L 912.394764 249.893554 
L 912.797761 248.060826 
L 913.200758 247.644298 
L 914.40975 246.894545 
L 914.611249 246.228099 
L 915.014246 245.978182 
L 915.215744 245.353388 
L 915.417243 245.22843 
L 915.82024 244.645289 
L 916.223237 244.270413 
L 916.626235 244.062149 
L 917.029232 243.687273 
L 917.23073 243.603967 
L 917.633728 243.270744 
L 918.036725 242.854215 
L 918.238223 242.812562 
L 918.439722 242.562645 
L 918.842719 241.521322 
L 919.044218 241.396364 
L 919.447215 241.313058 
L 919.648714 240.77157 
L 919.850212 240.729917 
L 920.454708 240.313388 
L 920.656207 239.563636 
L 921.462201 239.022149 
L 921.6637 238.272397 
L 922.469694 237.480992 
L 922.671193 237.439339 
L 922.872691 236.981157 
L 923.678686 236.314711 
L 923.880184 235.898182 
L 924.283181 235.73157 
L 924.48468 234.898512 
L 924.887677 234.773554 
L 925.089176 234.398678 
L 925.290674 234.315372 
L 925.492173 233.440661 
L 925.89517 233.315702 
L 926.298167 232.899174 
L 926.701165 232.232727 
L 926.902663 232.066116 
L 927.507159 230.733223 
L 929.925142 228.692231 
L 930.328139 228.067438 
L 930.529638 227.984132 
L 931.134134 227.192727 
L 931.335632 226.734545 
L 932.141627 226.151405 
L 932.544624 225.859835 
L 932.746123 225.776529 
L 932.947621 224.77686 
L 933.552117 223.985455 
L 933.753616 223.152397 
L 934.156613 222.652562 
L 934.358111 222.19438 
L 934.55961 222.152727 
L 935.365604 221.069752 
L 936.977593 219.820165 
L 937.582089 219.653554 
L 938.186585 218.695537 
L 938.589582 217.904132 
L 938.992579 217.737521 
L 939.395576 217.196033 
L 939.597075 216.904463 
L 939.798574 216.86281 
L 940.000072 216.362975 
L 940.806067 215.738182 
L 941.410562 215.196694 
L 942.216557 214.655207 
L 942.821053 213.947107 
L 943.425548 213.572231 
L 943.627047 213.155702 
L 944.030044 213.072397 
L 944.231543 212.864132 
L 944.433041 212.822479 
L 944.836039 211.989421 
L 945.239036 211.781157 
L 946.04503 211.156364 
L 946.448027 210.989752 
L 946.851025 210.489917 
L 947.858518 209.823471 
L 948.060016 209.531901 
L 948.261515 209.490248 
L 948.463013 209.281983 
L 948.664512 209.240331 
L 948.866011 209.073719 
L 949.067509 207.032727 
L 949.672005 206.574545 
L 949.873504 206.199669 
L 950.075002 206.158017 
L 950.880997 204.491901 
L 951.082495 204.325289 
L 951.283994 203.742149 
L 951.686991 203.533884 
L 952.492985 202.076033 
L 952.895983 200.118347 
L 953.097481 199.451901 
L 953.500478 196.286281 
L 953.701977 195.036694 
L 954.70947 193.53719 
L 955.515464 189.705124 
L 955.716963 189.49686 
L 955.918462 188.913719 
L 956.11996 186.831074 
L 956.321459 186.039669 
L 956.522957 185.956364 
L 956.724456 184.998347 
L 957.328952 184.415207 
L 957.731949 182.832397 
L 958.739442 182.16595 
L 958.940941 181.749421 
L 959.948434 181.041322 
L 960.351431 180.541488 
L 960.552929 180.083306 
L 960.754428 178.917025 
L 960.955927 178.458843 
L 961.358924 178.292231 
L 961.761921 178.083967 
L 962.164918 177.750744 
L 962.567916 177.417521 
L 963.575409 176.917686 
L 963.978406 176.54281 
L 964.381403 176.501157 
L 964.7844 176.001322 
L 964.985899 175.709752 
L 965.187397 175.626446 
L 965.590395 175.043306 
L 967.000885 173.502149 
L 967.403882 173.37719 
L 967.605381 173.08562 
L 968.008378 172.877355 
L 968.209876 171.877686 
L 968.814372 171.169587 
L 969.217369 171.044628 
L 970.426361 169.836694 
L 970.62786 169.795041 
L 971.635353 168.878678 
L 971.836851 168.837025 
L 972.03835 168.212231 
L 972.239848 168.003967 
L 972.441347 167.337521 
L 972.844344 167.04595 
L 973.44884 165.296529 
L 973.650339 164.463471 
L 974.254834 163.963636 
L 974.85933 163.00562 
L 975.262327 161.339504 
L 975.463826 160.839669 
L 975.665325 159.964959 
L 975.866823 159.881653 
L 976.068322 159.173554 
L 976.471319 158.840331 
L 977.277313 157.799008 
L 977.680311 157.299174 
L 977.881809 156.716033 
L 978.486305 156.257851 
L 978.687804 155.674711 
L 979.493798 155.299835 
L 979.695297 155.008264 
L 979.896795 154.966612 
L 980.098294 154.008595 
L 980.501291 153.717025 
L 980.70279 153.133884 
L 980.904288 152.967273 
L 981.307285 152.92562 
L 982.314778 152.009256 
L 983.120773 151.301157 
L 983.52377 150.759669 
L 983.926767 150.301488 
L 984.128266 149.801653 
L 984.329764 148.843636 
L 985.538756 148.052231 
L 985.941753 146.802645 
L 986.143252 146.719339 
L 986.34475 146.511074 
L 986.546249 145.886281 
L 986.747748 145.761322 
L 987.553742 144.595041 
L 988.561235 143.845289 
L 989.568728 142.720661 
L 990.374722 141.387769 
L 991.382215 138.305455 
L 992.389708 132.015868 
L 992.591207 131.682645 
L 992.792706 131.057851 
L 992.994204 128.683636 
L 993.195703 124.143471 
L 994.203196 115.396364 
L 994.606193 111.106116 
L 995.00919 104.858182 
L 995.412187 103.900165 
L 995.815185 95.527934 
L 996.016683 93.528595 
L 996.218182 89.28 
L 996.218182 89.28 
" clip-path="url(#p3016e6e059)" style="fill: none; stroke: #1f77b4; stroke-width: 1.5; stroke-linecap: square"/>
   </g>
   <g id="patch_3">
    <path d="M 144 512.64 
L 144 69.12 
" style="fill: none; stroke: #000000; stroke-width: 0.8; stroke-linejoin: miter; stroke-linecap: square"/>
   </g>
   <g id="patch_4">
    <path d="M 1036.8 512.64 
L 1036.8 69.12 
" style="fill: none; stroke: #000000; stroke-width: 0.8; stroke-linejoin: miter; stroke-linecap: square"/>
   </g>
   <g id="patch_5">
    <path d="M 144 512.64 
L 1036.8 512.64 
" style="fill: none; stroke: #000000; stroke-width: 0.8; stroke-linejoin: miter; stroke-linecap: square"/>
   </g>
   <g id="patch_6">
    <path d="M 144 69.12 
L 1036.8 69.12 
" style="fill: none; stroke: #000000; stroke-width: 0.8; stroke-linejoin: miter; stroke-linecap: square"/>
   </g>
   <g id="text_13">
    <!-- Number of AEDs in the OpenStreetMap database in Poland from first edition, day by day. As at: 2025-02-20 -->
    <g transform="translate(144 63.12) scale(0.14 -0.14)">
     <defs>
      <path id="DejaVuSans-4e" d="M 628 4666 
L 1478 4666 
L 3547 763 
L 3547 4666 
L 4159 4666 
L 4159 0 
L 3309 0 
L 1241 3903 
L 1241 0 
L 628 0 
L 628 4666 
z
" transform="scale(0.015625)"/>
      <path id="DejaVuSans-75" d="M 544 1381 
L 544 3500 
L 1119 3500 
L 1119 1403 
Q 1119 906 1312 657 
Q 1506 409 1894 409 
Q 2359 409 2629 706 
Q 2900 1003 2900 1516 
L 2900 3500 
L 3475 3500 
L 3475 0 
L 2900 0 
L 2900 538 
Q 2691 219 2414 64 
Q 2138 -91 1772 -91 
Q 1169 -91 856 284 
Q 544 659 544 1381 
z
M 1991 3584 
L 1991 3584 
z
" transform="scale(0.015625)"/>
      <path id="DejaVuSans-6d" d="M 3328 2828 
Q 3544 3216 3844 3400 
Q 4144 3584 4550 3584 
Q 5097 3584 5394 3201 
Q 5691 2819 5691 2113 
L 5691 0 
L 5113 0 
L 5113 2094 
Q 5113 2597 4934 2840 
Q 4756 3084 4391 3084 
Q 3944 3084 3684 2787 
Q 3425 2491 3425 1978 
L 3425 0 
L 2847 0 
L 2847 2094 
Q 2847 2600 2669 2842 
Q 2491 3084 2119 3084 
Q 1678 3084 1418 2786 
Q 1159 2488 1159 1978 
L 1159 0 
L 581 0 
L 581 3500 
L 1159 3500 
L 1159 2956 
Q 1356 3278 1631 3431 
Q 1906 3584 2284 3584 
Q 2666 3584 2933 3390 
Q 3200 3197 3328 2828 
z
" transform="scale(0.015625)"/>
      <path id="DejaVuSans-62" d="M 3116 1747 
Q 3116 2381 2855 2742 
Q 2594 3103 2138 3103 
Q 1681 3103 1420 2742 
Q 1159 2381 1159 1747 
Q 1159 1113 1420 752 
Q 1681 391 2138 391 
Q 2594 391 2855 752 
Q 3116 1113 3116 1747 
z
M 1159 2969 
Q 1341 3281 1617 3432 
Q 1894 3584 2278 3584 
Q 2916 3584 3314 3078 
Q 3713 2572 3713 1747 
Q 3713 922 3314 415 
Q 2916 -91 2278 -91 
Q 1894 -91 1617 61 
Q 1341 213 1159 525 
L 1159 0 
L 581 0 
L 581 4863 
L 1159 4863 
L 1159 2969 
z
" transform="scale(0.015625)"/>
      <path id="DejaVuSans-65" d="M 3597 1894 
L 3597 1613 
L 953 1613 
Q 991 1019 1311 708 
Q 1631 397 2203 397 
Q 2534 397 2845 478 
Q 3156 559 3463 722 
L 3463 178 
Q 3153 47 2828 -22 
Q 2503 -91 2169 -91 
Q 1331 -91 842 396 
Q 353 884 353 1716 
Q 353 2575 817 3079 
Q 1281 3584 2069 3584 
Q 2775 3584 3186 3129 
Q 3597 2675 3597 1894 
z
M 3022 2063 
Q 3016 2534 2758 2815 
Q 2500 3097 2075 3097 
Q 1594 3097 1305 2825 
Q 1016 2553 972 2059 
L 3022 2063 
z
" transform="scale(0.015625)"/>
      <path id="DejaVuSans-72" d="M 2631 2963 
Q 2534 3019 2420 3045 
Q 2306 3072 2169 3072 
Q 1681 3072 1420 2755 
Q 1159 2438 1159 1844 
L 1159 0 
L 581 0 
L 581 3500 
L 1159 3500 
L 1159 2956 
Q 1341 3275 1631 3429 
Q 1922 3584 2338 3584 
Q 2397 3584 2469 3576 
Q 2541 3569 2628 3553 
L 2631 2963 
z
" transform="scale(0.015625)"/>
      <path id="DejaVuSans-20" transform="scale(0.015625)"/>
      <path id="DejaVuSans-6f" d="M 1959 3097 
Q 1497 3097 1228 2736 
Q 959 2375 959 1747 
Q 959 1119 1226 758 
Q 1494 397 1959 397 
Q 2419 397 2687 759 
Q 2956 1122 2956 1747 
Q 2956 2369 2687 2733 
Q 2419 3097 1959 3097 
z
M 1959 3584 
Q 2709 3584 3137 3096 
Q 3566 2609 3566 1747 
Q 3566 888 3137 398 
Q 2709 -91 1959 -91 
Q 1206 -91 779 398 
Q 353 888 353 1747 
Q 353 2609 779 3096 
Q 1206 3584 1959 3584 
z
" transform="scale(0.015625)"/>
      <path id="DejaVuSans-66" d="M 2375 4863 
L 2375 4384 
L 1825 4384 
Q 1516 4384 1395 4259 
Q 1275 4134 1275 3809 
L 1275 3500 
L 2222 3500 
L 2222 3053 
L 1275 3053 
L 1275 0 
L 697 0 
L 697 3053 
L 147 3053 
L 147 3500 
L 697 3500 
L 697 3744 
Q 697 4328 969 4595 
Q 1241 4863 1831 4863 
L 2375 4863 
z
" transform="scale(0.015625)"/>
      <path id="DejaVuSans-41" d="M 2188 4044 
L 1331 1722 
L 3047 1722 
L 2188 4044 
z
M 1831 4666 
L 2547 4666 
L 4325 0 
L 3669 0 
L 3244 1197 
L 1141 1197 
L 716 0 
L 50 0 
L 1831 4666 
z
" transform="scale(0.015625)"/>
      <path id="DejaVuSans-45" d="M 628 4666 
L 3578 4666 
L 3578 4134 
L 1259 4134 
L 1259 2753 
L 3481 2753 
L 3481 2222 
L 1259 2222 
L 1259 531 
L 3634 531 
L 3634 0 
L 628 0 
L 628 4666 
z
" transform="scale(0.015625)"/>
      <path id="DejaVuSans-44" d="M 1259 4147 
L 1259 519 
L 2022 519 
Q 2988 519 3436 956 
Q 3884 1394 3884 2338 
Q 3884 3275 3436 3711 
Q 2988 4147 2022 4147 
L 1259 4147 
z
M 628 4666 
L 1925 4666 
Q 3281 4666 3915 4102 
Q 4550 3538 4550 2338 
Q 4550 1131 3912 565 
Q 3275 0 1925 0 
L 628 0 
L 628 4666 
z
" transform="scale(0.015625)"/>
      <path id="DejaVuSans-73" d="M 2834 3397 
L 2834 2853 
Q 2591 2978 2328 3040 
Q 2066 3103 1784 3103 
Q 1356 3103 1142 2972 
Q 928 2841 928 2578 
Q 928 2378 1081 2264 
Q 1234 2150 1697 2047 
L 1894 2003 
Q 2506 1872 2764 1633 
Q 3022 1394 3022 966 
Q 3022 478 2636 193 
Q 2250 -91 1575 -91 
Q 1294 -91 989 -36 
Q 684 19 347 128 
L 347 722 
Q 666 556 975 473 
Q 1284 391 1588 391 
Q 1994 391 2212 530 
Q 2431 669 2431 922 
Q 2431 1156 2273 1281 
Q 2116 1406 1581 1522 
L 1381 1569 
Q 847 1681 609 1914 
Q 372 2147 372 2553 
Q 372 3047 722 3315 
Q 1072 3584 1716 3584 
Q 2034 3584 2315 3537 
Q 2597 3491 2834 3397 
z
" transform="scale(0.015625)"/>
      <path id="DejaVuSans-69" d="M 603 3500 
L 1178 3500 
L 1178 0 
L 603 0 
L 603 3500 
z
M 603 4863 
L 1178 4863 
L 1178 4134 
L 603 4134 
L 603 4863 
z
" transform="scale(0.015625)"/>
      <path id="DejaVuSans-6e" d="M 3513 2113 
L 3513 0 
L 2938 0 
L 2938 2094 
Q 2938 2591 2744 2837 
Q 2550 3084 2163 3084 
Q 1697 3084 1428 2787 
Q 1159 2491 1159 1978 
L 1159 0 
L 581 0 
L 581 3500 
L 1159 3500 
L 1159 2956 
Q 1366 3272 1645 3428 
Q 1925 3584 2291 3584 
Q 2894 3584 3203 3211 
Q 3513 2838 3513 2113 
z
" transform="scale(0.015625)"/>
      <path id="DejaVuSans-74" d="M 1172 4494 
L 1172 3500 
L 2356 3500 
L 2356 3053 
L 1172 3053 
L 1172 1153 
Q 1172 725 1289 603 
Q 1406 481 1766 481 
L 2356 481 
L 2356 0 
L 1766 0 
Q 1100 0 847 248 
Q 594 497 594 1153 
L 594 3053 
L 172 3053 
L 172 3500 
L 594 3500 
L 594 4494 
L 1172 4494 
z
" transform="scale(0.015625)"/>
      <path id="DejaVuSans-68" d="M 3513 2113 
L 3513 0 
L 2938 0 
L 2938 2094 
Q 2938 2591 2744 2837 
Q 2550 3084 2163 3084 
Q 1697 3084 1428 2787 
Q 1159 2491 1159 1978 
L 1159 0 
L 581 0 
L 581 4863 
L 1159 4863 
L 1159 2956 
Q 1366 3272 1645 3428 
Q 1925 3584 2291 3584 
Q 2894 3584 3203 3211 
Q 3513 2838 3513 2113 
z
" transform="scale(0.015625)"/>
      <path id="DejaVuSans-4f" d="M 2522 4238 
Q 1834 4238 1429 3725 
Q 1025 3213 1025 2328 
Q 1025 1447 1429 934 
Q 1834 422 2522 422 
Q 3209 422 3611 934 
Q 4013 1447 4013 2328 
Q 4013 3213 3611 3725 
Q 3209 4238 2522 4238 
z
M 2522 4750 
Q 3503 4750 4090 4092 
Q 4678 3434 4678 2328 
Q 4678 1225 4090 567 
Q 3503 -91 2522 -91 
Q 1538 -91 948 565 
Q 359 1222 359 2328 
Q 359 3434 948 4092 
Q 1538 4750 2522 4750 
z
" transform="scale(0.015625)"/>
      <path id="DejaVuSans-70" d="M 1159 525 
L 1159 -1331 
L 581 -1331 
L 581 3500 
L 1159 3500 
L 1159 2969 
Q 1341 3281 1617 3432 
Q 1894 3584 2278 3584 
Q 2916 3584 3314 3078 
Q 3713 2572 3713 1747 
Q 3713 922 3314 415 
Q 2916 -91 2278 -91 
Q 1894 -91 1617 61 
Q 1341 213 1159 525 
z
M 3116 1747 
Q 3116 2381 2855 2742 
Q 2594 3103 2138 3103 
Q 1681 3103 1420 2742 
Q 1159 2381 1159 1747 
Q 1159 1113 1420 752 
Q 1681 391 2138 391 
Q 2594 391 2855 752 
Q 3116 1113 3116 1747 
z
" transform="scale(0.015625)"/>
      <path id="DejaVuSans-53" d="M 3425 4513 
L 3425 3897 
Q 3066 4069 2747 4153 
Q 2428 4238 2131 4238 
Q 1616 4238 1336 4038 
Q 1056 3838 1056 3469 
Q 1056 3159 1242 3001 
Q 1428 2844 1947 2747 
L 2328 2669 
Q 3034 2534 3370 2195 
Q 3706 1856 3706 1288 
Q 3706 609 3251 259 
Q 2797 -91 1919 -91 
Q 1588 -91 1214 -16 
Q 841 59 441 206 
L 441 856 
Q 825 641 1194 531 
Q 1563 422 1919 422 
Q 2459 422 2753 634 
Q 3047 847 3047 1241 
Q 3047 1584 2836 1778 
Q 2625 1972 2144 2069 
L 1759 2144 
Q 1053 2284 737 2584 
Q 422 2884 422 3419 
Q 422 4038 858 4394 
Q 1294 4750 2059 4750 
Q 2388 4750 2728 4690 
Q 3069 4631 3425 4513 
z
" transform="scale(0.015625)"/>
      <path id="DejaVuSans-4d" d="M 628 4666 
L 1569 4666 
L 2759 1491 
L 3956 4666 
L 4897 4666 
L 4897 0 
L 4281 0 
L 4281 4097 
L 3078 897 
L 2444 897 
L 1241 4097 
L 1241 0 
L 628 0 
L 628 4666 
z
" transform="scale(0.015625)"/>
      <path id="DejaVuSans-61" d="M 2194 1759 
Q 1497 1759 1228 1600 
Q 959 1441 959 1056 
Q 959 750 1161 570 
Q 1363 391 1709 391 
Q 2188 391 2477 730 
Q 2766 1069 2766 1631 
L 2766 1759 
L 2194 1759 
z
M 3341 1997 
L 3341 0 
L 2766 0 
L 2766 531 
Q 2569 213 2275 61 
Q 1981 -91 1556 -91 
Q 1019 -91 701 211 
Q 384 513 384 1019 
Q 384 1609 779 1909 
Q 1175 2209 1959 2209 
L 2766 2209 
L 2766 2266 
Q 2766 2663 2505 2880 
Q 2244 3097 1772 3097 
Q 1472 3097 1187 3025 
Q 903 2953 641 2809 
L 641 3341 
Q 956 3463 1253 3523 
Q 1550 3584 1831 3584 
Q 2591 3584 2966 3190 
Q 3341 2797 3341 1997 
z
" transform="scale(0.015625)"/>
      <path id="DejaVuSans-64" d="M 2906 2969 
L 2906 4863 
L 3481 4863 
L 3481 0 
L 2906 0 
L 2906 525 
Q 2725 213 2448 61 
Q 2172 -91 1784 -91 
Q 1150 -91 751 415 
Q 353 922 353 1747 
Q 353 2572 751 3078 
Q 1150 3584 1784 3584 
Q 2172 3584 2448 3432 
Q 2725 3281 2906 2969 
z
M 947 1747 
Q 947 1113 1208 752 
Q 1469 391 1925 391 
Q 2381 391 2643 752 
Q 2906 1113 2906 1747 
Q 2906 2381 2643 2742 
Q 2381 3103 1925 3103 
Q 1469 3103 1208 2742 
Q 947 2381 947 1747 
z
" transform="scale(0.015625)"/>
      <path id="DejaVuSans-50" d="M 1259 4147 
L 1259 2394 
L 2053 2394 
Q 2494 2394 2734 2622 
Q 2975 2850 2975 3272 
Q 2975 3691 2734 3919 
Q 2494 4147 2053 4147 
L 1259 4147 
z
M 628 4666 
L 2053 4666 
Q 2838 4666 3239 4311 
Q 3641 3956 3641 3272 
Q 3641 2581 3239 2228 
Q 2838 1875 2053 1875 
L 1259 1875 
L 1259 0 
L 628 0 
L 628 4666 
z
" transform="scale(0.015625)"/>
      <path id="DejaVuSans-6c" d="M 603 4863 
L 1178 4863 
L 1178 0 
L 603 0 
L 603 4863 
z
" transform="scale(0.015625)"/>
      <path id="DejaVuSans-2c" d="M 750 794 
L 1409 794 
L 1409 256 
L 897 -744 
L 494 -744 
L 750 256 
L 750 794 
z
" transform="scale(0.015625)"/>
      <path id="DejaVuSans-79" d="M 2059 -325 
Q 1816 -950 1584 -1140 
Q 1353 -1331 966 -1331 
L 506 -1331 
L 506 -850 
L 844 -850 
Q 1081 -850 1212 -737 
Q 1344 -625 1503 -206 
L 1606 56 
L 191 3500 
L 800 3500 
L 1894 763 
L 2988 3500 
L 3597 3500 
L 2059 -325 
z
" transform="scale(0.015625)"/>
      <path id="DejaVuSans-2e" d="M 684 794 
L 1344 794 
L 1344 0 
L 684 0 
L 684 794 
z
" transform="scale(0.015625)"/>
      <path id="DejaVuSans-3a" d="M 750 794 
L 1409 794 
L 1409 0 
L 750 0 
L 750 794 
z
M 750 3309 
L 1409 3309 
L 1409 2516 
L 750 2516 
L 750 3309 
z
" transform="scale(0.015625)"/>
      <path id="DejaVuSans-35" d="M 691 4666 
L 3169 4666 
L 3169 4134 
L 1269 4134 
L 1269 2991 
Q 1406 3038 1543 3061 
Q 1681 3084 1819 3084 
Q 2600 3084 3056 2656 
Q 3513 2228 3513 1497 
Q 3513 744 3044 326 
Q 2575 -91 1722 -91 
Q 1428 -91 1123 -41 
Q 819 9 494 109 
L 494 744 
Q 775 591 1075 516 
Q 1375 441 1709 441 
Q 2250 441 2565 725 
Q 2881 1009 2881 1497 
Q 2881 1984 2565 2268 
Q 2250 2553 1709 2553 
Q 1456 2553 1204 2497 
Q 953 2441 691 2322 
L 691 4666 
z
" transform="scale(0.015625)"/>
      <path id="DejaVuSans-2d" d="M 313 2009 
L 1997 2009 
L 1997 1497 
L 313 1497 
L 313 2009 
z
" transform="scale(0.015625)"/>
     </defs>
     <use xlink:href="#DejaVuSans-4e"/>
     <use xlink:href="#DejaVuSans-75" x="74.804688"/>
     <use xlink:href="#DejaVuSans-6d" x="138.183594"/>
     <use xlink:href="#DejaVuSans-62" x="235.595703"/>
     <use xlink:href="#DejaVuSans-65" x="299.072266"/>
     <use xlink:href="#DejaVuSans-72" x="360.595703"/>
     <use xlink:href="#DejaVuSans-20" x="401.708984"/>
     <use xlink:href="#DejaVuSans-6f" x="433.496094"/>
     <use xlink:href="#DejaVuSans-66" x="494.677734"/>
     <use xlink:href="#DejaVuSans-20" x="529.882812"/>
     <use xlink:href="#DejaVuSans-41" x="561.669922"/>
     <use xlink:href="#DejaVuSans-45" x="630.078125"/>
     <use xlink:href="#DejaVuSans-44" x="693.261719"/>
     <use xlink:href="#DejaVuSans-73" x="770.263672"/>
     <use xlink:href="#DejaVuSans-20" x="822.363281"/>
     <use xlink:href="#DejaVuSans-69" x="854.150391"/>
     <use xlink:href="#DejaVuSans-6e" x="881.933594"/>
     <use xlink:href="#DejaVuSans-20" x="945.3125"/>
     <use xlink:href="#DejaVuSans-74" x="977.099609"/>
     <use xlink:href="#DejaVuSans-68" x="1016.308594"/>
     <use xlink:href="#DejaVuSans-65" x="1079.6875"/>
     <use xlink:href="#DejaVuSans-20" x="1141.210938"/>
     <use xlink:href="#DejaVuSans-4f" x="1172.998047"/>
     <use xlink:href="#DejaVuSans-70" x="1251.708984"/>
     <use xlink:href="#DejaVuSans-65" x="1315.185547"/>
     <use xlink:href="#DejaVuSans-6e" x="1376.708984"/>
     <use xlink:href="#DejaVuSans-53" x="1440.087891"/>
     <use xlink:href="#DejaVuSans-74" x="1503.564453"/>
     <use xlink:href="#DejaVuSans-72" x="1542.773438"/>
     <use xlink:href="#DejaVuSans-65" x="1581.636719"/>
     <use xlink:href="#DejaVuSans-65" x="1643.160156"/>
     <use xlink:href="#DejaVuSans-74" x="1704.683594"/>
     <use xlink:href="#DejaVuSans-4d" x="1743.892578"/>
     <use xlink:href="#DejaVuSans-61" x="1830.171875"/>
     <use xlink:href="#DejaVuSans-70" x="1891.451172"/>
     <use xlink:href="#DejaVuSans-20" x="1954.927734"/>
     <use xlink:href="#DejaVuSans-64" x="1986.714844"/>
     <use xlink:href="#DejaVuSans-61" x="2050.191406"/>
     <use xlink:href="#DejaVuSans-74" x="2111.470703"/>
     <use xlink:href="#DejaVuSans-61" x="2150.679688"/>
     <use xlink:href="#DejaVuSans-62" x="2211.958984"/>
     <use xlink:href="#DejaVuSans-61" x="2275.435547"/>
     <use xlink:href="#DejaVuSans-73" x="2336.714844"/>
     <use xlink:href="#DejaVuSans-65" x="2388.814453"/>
     <use xlink:href="#DejaVuSans-20" x="2450.337891"/>
     <use xlink:href="#DejaVuSans-69" x="2482.125"/>
     <use xlink:href="#DejaVuSans-6e" x="2509.908203"/>
     <use xlink:href="#DejaVuSans-20" x="2573.287109"/>
     <use xlink:href="#DejaVuSans-50" x="2605.074219"/>
     <use xlink:href="#DejaVuSans-6f" x="2661.751953"/>
     <use xlink:href="#DejaVuSans-6c" x="2722.933594"/>
     <use xlink:href="#DejaVuSans-61" x="2750.716797"/>
     <use xlink:href="#DejaVuSans-6e" x="2811.996094"/>
     <use xlink:href="#DejaVuSans-64" x="2875.375"/>
     <use xlink:href="#DejaVuSans-20" x="2938.851562"/>
     <use xlink:href="#DejaVuSans-66" x="2970.638672"/>
     <use xlink:href="#DejaVuSans-72" x="3005.84375"/>
     <use xlink:href="#DejaVuSans-6f" x="3044.707031"/>
     <use xlink:href="#DejaVuSans-6d" x="3105.888672"/>
     <use xlink:href="#DejaVuSans-20" x="3203.300781"/>
     <use xlink:href="#DejaVuSans-66" x="3235.087891"/>
     <use xlink:href="#DejaVuSans-69" x="3270.292969"/>
     <use xlink:href="#DejaVuSans-72" x="3298.076172"/>
     <use xlink:href="#DejaVuSans-73" x="3339.189453"/>
     <use xlink:href="#DejaVuSans-74" x="3391.289062"/>
     <use xlink:href="#DejaVuSans-20" x="3430.498047"/>
     <use xlink:href="#DejaVuSans-65" x="3462.285156"/>
     <use xlink:href="#DejaVuSans-64" x="3523.808594"/>
     <use xlink:href="#DejaVuSans-69" x="3587.285156"/>
     <use xlink:href="#DejaVuSans-74" x="3615.068359"/>
     <use xlink:href="#DejaVuSans-69" x="3654.277344"/>
     <use xlink:href="#DejaVuSans-6f" x="3682.060547"/>
     <use xlink:href="#DejaVuSans-6e" x="3743.242188"/>
     <use xlink:href="#DejaVuSans-2c" x="3806.621094"/>
     <use xlink:href="#DejaVuSans-20" x="3838.408203"/>
     <use xlink:href="#DejaVuSans-64" x="3870.195312"/>
     <use xlink:href="#DejaVuSans-61" x="3933.671875"/>
     <use xlink:href="#DejaVuSans-79" x="3994.951172"/>
     <use xlink:href="#DejaVuSans-20" x="4054.130859"/>
     <use xlink:href="#DejaVuSans-62" x="4085.917969"/>
     <use xlink:href="#DejaVuSans-79" x="4149.394531"/>
     <use xlink:href="#DejaVuSans-20" x="4208.574219"/>
     <use xlink:href="#DejaVuSans-64" x="4240.361328"/>
     <use xlink:href="#DejaVuSans-61" x="4303.837891"/>
     <use xlink:href="#DejaVuSans-79" x="4365.117188"/>
     <use xlink:href="#DejaVuSans-2e" x="4410.046875"/>
     <use xlink:href="#DejaVuSans-20" x="4441.833984"/>
     <use xlink:href="#DejaVuSans-41" x="4473.621094"/>
     <use xlink:href="#DejaVuSans-73" x="4542.029297"/>
     <use xlink:href="#DejaVuSans-20" x="4594.128906"/>
     <use xlink:href="#DejaVuSans-61" x="4625.916016"/>
     <use xlink:href="#DejaVuSans-74" x="4687.195312"/>
     <use xlink:href="#DejaVuSans-3a" x="4726.404297"/>
     <use xlink:href="#DejaVuSans-20" x="4760.095703"/>
     <use xlink:href="#DejaVuSans-32" x="4791.882812"/>
     <use xlink:href="#DejaVuSans-30" x="4855.505859"/>
     <use xlink:href="#DejaVuSans-32" x="4919.128906"/>
     <use xlink:href="#DejaVuSans-35" x="4982.751953"/>
     <use xlink:href="#DejaVuSans-2d" x="5046.375"/>
     <use xlink:href="#DejaVuSans-30" x="5082.458984"/>
     <use xlink:href="#DejaVuSans-32" x="5146.082031"/>
     <use xlink:href="#DejaVuSans-2d" x="5209.705078"/>
     <use xlink:href="#DejaVuSans-32" x="5245.789062"/>
     <use xlink:href="#DejaVuSans-30" x="5309.412109"/>
    </g>
   </g>
  </g>
 </g>
 <defs>
  <clipPath id="p3016e6e059">
   <rect x="144" y="69.12" width="892.8" height="443.52"/>
  </clipPath>
 </defs>
</svg>
