<?xml version="1.0" encoding="utf-8" standalone="no"?>
<!DOCTYPE svg PUBLIC "-//W3C//DTD SVG 1.1//EN"
  "http://www.w3.org/Graphics/SVG/1.1/DTD/svg11.dtd">
<svg xmlns:xlink="http://www.w3.org/1999/xlink" width="1152pt" height="576pt" viewBox="0 0 1152 576" xmlns="http://www.w3.org/2000/svg" version="1.1">
 <metadata>
  <rdf:RDF xmlns:dc="http://purl.org/dc/elements/1.1/" xmlns:cc="http://creativecommons.org/ns#" xmlns:rdf="http://www.w3.org/1999/02/22-rdf-syntax-ns#">
   <cc:Work>
    <dc:type rdf:resource="http://purl.org/dc/dcmitype/StillImage"/>
    <dc:date>1980-01-01T00:00:00+00:00</dc:date>
    <dc:format>image/svg+xml</dc:format>
    <dc:creator>
     <cc:Agent>
      <dc:title>Matplotlib v3.9.1, https://matplotlib.org/</dc:title>
     </cc:Agent>
    </dc:creator>
   </cc:Work>
  </rdf:RDF>
 </metadata>
 <defs>
  <style type="text/css">*{stroke-linejoin: round; stroke-linecap: butt}</style>
 </defs>
 <g id="figure_1">
  <g id="patch_1">
   <path d="M 0 576 
L 1152 576 
L 1152 0 
L 0 0 
z
" style="fill: #ffffff"/>
  </g>
  <g id="axes_1">
   <g id="patch_2">
    <path d="M 144 512.64 
L 1036.8 512.64 
L 1036.8 69.12 
L 144 69.12 
z
" style="fill: #ffffff"/>
   </g>
   <g id="matplotlib.axis_1">
    <g id="xtick_1">
     <g id="line2d_1">
      <defs>
       <path id="m5d3d826d14" d="M 0 0 
L 0 3.5 
" style="stroke: #000000; stroke-width: 0.8"/>
      </defs>
      <g>
       <use xlink:href="#m5d3d826d14" x="176.866644" y="512.64" style="stroke: #000000; stroke-width: 0.8"/>
      </g>
     </g>
     <g id="text_1">
      <!-- 2014 -->
      <g transform="translate(164.141644 527.238438) scale(0.1 -0.1)">
       <defs>
        <path id="DejaVuSans-32" d="M 1228 531 
L 3431 531 
L 3431 0 
L 469 0 
L 469 531 
Q 828 903 1448 1529 
Q 2069 2156 2228 2338 
Q 2531 2678 2651 2914 
Q 2772 3150 2772 3378 
Q 2772 3750 2511 3984 
Q 2250 4219 1831 4219 
Q 1534 4219 1204 4116 
Q 875 4013 500 3803 
L 500 4441 
Q 881 4594 1212 4672 
Q 1544 4750 1819 4750 
Q 2544 4750 2975 4387 
Q 3406 4025 3406 3419 
Q 3406 3131 3298 2873 
Q 3191 2616 2906 2266 
Q 2828 2175 2409 1742 
Q 1991 1309 1228 531 
z
" transform="scale(0.015625)"/>
        <path id="DejaVuSans-30" d="M 2034 4250 
Q 1547 4250 1301 3770 
Q 1056 3291 1056 2328 
Q 1056 1369 1301 889 
Q 1547 409 2034 409 
Q 2525 409 2770 889 
Q 3016 1369 3016 2328 
Q 3016 3291 2770 3770 
Q 2525 4250 2034 4250 
z
M 2034 4750 
Q 2819 4750 3233 4129 
Q 3647 3509 3647 2328 
Q 3647 1150 3233 529 
Q 2819 -91 2034 -91 
Q 1250 -91 836 529 
Q 422 1150 422 2328 
Q 422 3509 836 4129 
Q 1250 4750 2034 4750 
z
" transform="scale(0.015625)"/>
        <path id="DejaVuSans-31" d="M 794 531 
L 1825 531 
L 1825 4091 
L 703 3866 
L 703 4441 
L 1819 4666 
L 2450 4666 
L 2450 531 
L 3481 531 
L 3481 0 
L 794 0 
L 794 531 
z
" transform="scale(0.015625)"/>
        <path id="DejaVuSans-34" d="M 2419 4116 
L 825 1625 
L 2419 1625 
L 2419 4116 
z
M 2253 4666 
L 3047 4666 
L 3047 1625 
L 3713 1625 
L 3713 1100 
L 3047 1100 
L 3047 0 
L 2419 0 
L 2419 1100 
L 313 1100 
L 313 1709 
L 2253 4666 
z
" transform="scale(0.015625)"/>
       </defs>
       <use xlink:href="#DejaVuSans-32"/>
       <use xlink:href="#DejaVuSans-30" x="63.623047"/>
       <use xlink:href="#DejaVuSans-31" x="127.246094"/>
       <use xlink:href="#DejaVuSans-34" x="190.869141"/>
      </g>
     </g>
    </g>
    <g id="xtick_2">
     <g id="line2d_2">
      <g>
       <use xlink:href="#m5d3d826d14" x="317.668579" y="512.64" style="stroke: #000000; stroke-width: 0.8"/>
      </g>
     </g>
     <g id="text_2">
      <!-- 2016 -->
      <g transform="translate(304.943579 527.238438) scale(0.1 -0.1)">
       <defs>
        <path id="DejaVuSans-36" d="M 2113 2584 
Q 1688 2584 1439 2293 
Q 1191 2003 1191 1497 
Q 1191 994 1439 701 
Q 1688 409 2113 409 
Q 2538 409 2786 701 
Q 3034 994 3034 1497 
Q 3034 2003 2786 2293 
Q 2538 2584 2113 2584 
z
M 3366 4563 
L 3366 3988 
Q 3128 4100 2886 4159 
Q 2644 4219 2406 4219 
Q 1781 4219 1451 3797 
Q 1122 3375 1075 2522 
Q 1259 2794 1537 2939 
Q 1816 3084 2150 3084 
Q 2853 3084 3261 2657 
Q 3669 2231 3669 1497 
Q 3669 778 3244 343 
Q 2819 -91 2113 -91 
Q 1303 -91 875 529 
Q 447 1150 447 2328 
Q 447 3434 972 4092 
Q 1497 4750 2381 4750 
Q 2619 4750 2861 4703 
Q 3103 4656 3366 4563 
z
" transform="scale(0.015625)"/>
       </defs>
       <use xlink:href="#DejaVuSans-32"/>
       <use xlink:href="#DejaVuSans-30" x="63.623047"/>
       <use xlink:href="#DejaVuSans-31" x="127.246094"/>
       <use xlink:href="#DejaVuSans-36" x="190.869141"/>
      </g>
     </g>
    </g>
    <g id="xtick_3">
     <g id="line2d_3">
      <g>
       <use xlink:href="#m5d3d826d14" x="458.663394" y="512.64" style="stroke: #000000; stroke-width: 0.8"/>
      </g>
     </g>
     <g id="text_3">
      <!-- 2018 -->
      <g transform="translate(445.938394 527.238438) scale(0.1 -0.1)">
       <defs>
        <path id="DejaVuSans-38" d="M 2034 2216 
Q 1584 2216 1326 1975 
Q 1069 1734 1069 1313 
Q 1069 891 1326 650 
Q 1584 409 2034 409 
Q 2484 409 2743 651 
Q 3003 894 3003 1313 
Q 3003 1734 2745 1975 
Q 2488 2216 2034 2216 
z
M 1403 2484 
Q 997 2584 770 2862 
Q 544 3141 544 3541 
Q 544 4100 942 4425 
Q 1341 4750 2034 4750 
Q 2731 4750 3128 4425 
Q 3525 4100 3525 3541 
Q 3525 3141 3298 2862 
Q 3072 2584 2669 2484 
Q 3125 2378 3379 2068 
Q 3634 1759 3634 1313 
Q 3634 634 3220 271 
Q 2806 -91 2034 -91 
Q 1263 -91 848 271 
Q 434 634 434 1313 
Q 434 1759 690 2068 
Q 947 2378 1403 2484 
z
M 1172 3481 
Q 1172 3119 1398 2916 
Q 1625 2713 2034 2713 
Q 2441 2713 2670 2916 
Q 2900 3119 2900 3481 
Q 2900 3844 2670 4047 
Q 2441 4250 2034 4250 
Q 1625 4250 1398 4047 
Q 1172 3844 1172 3481 
z
" transform="scale(0.015625)"/>
       </defs>
       <use xlink:href="#DejaVuSans-32"/>
       <use xlink:href="#DejaVuSans-30" x="63.623047"/>
       <use xlink:href="#DejaVuSans-31" x="127.246094"/>
       <use xlink:href="#DejaVuSans-38" x="190.869141"/>
      </g>
     </g>
    </g>
    <g id="xtick_4">
     <g id="line2d_4">
      <g>
       <use xlink:href="#m5d3d826d14" x="599.46533" y="512.64" style="stroke: #000000; stroke-width: 0.8"/>
      </g>
     </g>
     <g id="text_4">
      <!-- 2020 -->
      <g transform="translate(586.74033 527.238438) scale(0.1 -0.1)">
       <use xlink:href="#DejaVuSans-32"/>
       <use xlink:href="#DejaVuSans-30" x="63.623047"/>
       <use xlink:href="#DejaVuSans-32" x="127.246094"/>
       <use xlink:href="#DejaVuSans-30" x="190.869141"/>
      </g>
     </g>
    </g>
    <g id="xtick_5">
     <g id="line2d_5">
      <g>
       <use xlink:href="#m5d3d826d14" x="740.460145" y="512.64" style="stroke: #000000; stroke-width: 0.8"/>
      </g>
     </g>
     <g id="text_5">
      <!-- 2022 -->
      <g transform="translate(727.735145 527.238438) scale(0.1 -0.1)">
       <use xlink:href="#DejaVuSans-32"/>
       <use xlink:href="#DejaVuSans-30" x="63.623047"/>
       <use xlink:href="#DejaVuSans-32" x="127.246094"/>
       <use xlink:href="#DejaVuSans-32" x="190.869141"/>
      </g>
     </g>
    </g>
    <g id="xtick_6">
     <g id="line2d_6">
      <g>
       <use xlink:href="#m5d3d826d14" x="881.262081" y="512.64" style="stroke: #000000; stroke-width: 0.8"/>
      </g>
     </g>
     <g id="text_6">
      <!-- 2024 -->
      <g transform="translate(868.537081 527.238438) scale(0.1 -0.1)">
       <use xlink:href="#DejaVuSans-32"/>
       <use xlink:href="#DejaVuSans-30" x="63.623047"/>
       <use xlink:href="#DejaVuSans-32" x="127.246094"/>
       <use xlink:href="#DejaVuSans-34" x="190.869141"/>
      </g>
     </g>
    </g>
    <g id="xtick_7">
     <g id="line2d_7">
      <g>
       <use xlink:href="#m5d3d826d14" x="1022.256896" y="512.64" style="stroke: #000000; stroke-width: 0.8"/>
      </g>
     </g>
     <g id="text_7">
      <!-- 2026 -->
      <g transform="translate(1009.531896 527.238438) scale(0.1 -0.1)">
       <use xlink:href="#DejaVuSans-32"/>
       <use xlink:href="#DejaVuSans-30" x="63.623047"/>
       <use xlink:href="#DejaVuSans-32" x="127.246094"/>
       <use xlink:href="#DejaVuSans-36" x="190.869141"/>
      </g>
     </g>
    </g>
   </g>
   <g id="matplotlib.axis_2">
    <g id="ytick_1">
     <g id="line2d_8">
      <defs>
       <path id="m88755a8e05" d="M 0 0 
L -3.5 0 
" style="stroke: #000000; stroke-width: 0.8"/>
      </defs>
      <g>
       <use xlink:href="#m88755a8e05" x="144" y="492.514412" style="stroke: #000000; stroke-width: 0.8"/>
      </g>
     </g>
     <g id="text_8">
      <!-- 0 -->
      <g transform="translate(130.6375 496.31363) scale(0.1 -0.1)">
       <use xlink:href="#DejaVuSans-30"/>
      </g>
     </g>
    </g>
    <g id="ytick_2">
     <g id="line2d_9">
      <g>
       <use xlink:href="#m88755a8e05" x="144" y="423.691334" style="stroke: #000000; stroke-width: 0.8"/>
      </g>
     </g>
     <g id="text_9">
      <!-- 2000 -->
      <g transform="translate(111.55 427.490553) scale(0.1 -0.1)">
       <use xlink:href="#DejaVuSans-32"/>
       <use xlink:href="#DejaVuSans-30" x="63.623047"/>
       <use xlink:href="#DejaVuSans-30" x="127.246094"/>
       <use xlink:href="#DejaVuSans-30" x="190.869141"/>
      </g>
     </g>
    </g>
    <g id="ytick_3">
     <g id="line2d_10">
      <g>
       <use xlink:href="#m88755a8e05" x="144" y="354.868256" style="stroke: #000000; stroke-width: 0.8"/>
      </g>
     </g>
     <g id="text_10">
      <!-- 4000 -->
      <g transform="translate(111.55 358.667475) scale(0.1 -0.1)">
       <use xlink:href="#DejaVuSans-34"/>
       <use xlink:href="#DejaVuSans-30" x="63.623047"/>
       <use xlink:href="#DejaVuSans-30" x="127.246094"/>
       <use xlink:href="#DejaVuSans-30" x="190.869141"/>
      </g>
     </g>
    </g>
    <g id="ytick_4">
     <g id="line2d_11">
      <g>
       <use xlink:href="#m88755a8e05" x="144" y="286.045179" style="stroke: #000000; stroke-width: 0.8"/>
      </g>
     </g>
     <g id="text_11">
      <!-- 6000 -->
      <g transform="translate(111.55 289.844398) scale(0.1 -0.1)">
       <use xlink:href="#DejaVuSans-36"/>
       <use xlink:href="#DejaVuSans-30" x="63.623047"/>
       <use xlink:href="#DejaVuSans-30" x="127.246094"/>
       <use xlink:href="#DejaVuSans-30" x="190.869141"/>
      </g>
     </g>
    </g>
    <g id="ytick_5">
     <g id="line2d_12">
      <g>
       <use xlink:href="#m88755a8e05" x="144" y="217.222101" style="stroke: #000000; stroke-width: 0.8"/>
      </g>
     </g>
     <g id="text_12">
      <!-- 8000 -->
      <g transform="translate(111.55 221.02132) scale(0.1 -0.1)">
       <use xlink:href="#DejaVuSans-38"/>
       <use xlink:href="#DejaVuSans-30" x="63.623047"/>
       <use xlink:href="#DejaVuSans-30" x="127.246094"/>
       <use xlink:href="#DejaVuSans-30" x="190.869141"/>
      </g>
     </g>
    </g>
    <g id="ytick_6">
     <g id="line2d_13">
      <g>
       <use xlink:href="#m88755a8e05" x="144" y="148.399024" style="stroke: #000000; stroke-width: 0.8"/>
      </g>
     </g>
     <g id="text_13">
      <!-- 10000 -->
      <g transform="translate(105.1875 152.198242) scale(0.1 -0.1)">
       <use xlink:href="#DejaVuSans-31"/>
       <use xlink:href="#DejaVuSans-30" x="63.623047"/>
       <use xlink:href="#DejaVuSans-30" x="127.246094"/>
       <use xlink:href="#DejaVuSans-30" x="190.869141"/>
       <use xlink:href="#DejaVuSans-30" x="254.492188"/>
      </g>
     </g>
    </g>
    <g id="ytick_7">
     <g id="line2d_14">
      <g>
       <use xlink:href="#m88755a8e05" x="144" y="79.575946" style="stroke: #000000; stroke-width: 0.8"/>
      </g>
     </g>
     <g id="text_14">
      <!-- 12000 -->
      <g transform="translate(105.1875 83.375165) scale(0.1 -0.1)">
       <use xlink:href="#DejaVuSans-31"/>
       <use xlink:href="#DejaVuSans-32" x="63.623047"/>
       <use xlink:href="#DejaVuSans-30" x="127.246094"/>
       <use xlink:href="#DejaVuSans-30" x="190.869141"/>
       <use xlink:href="#DejaVuSans-30" x="254.492188"/>
      </g>
     </g>
    </g>
   </g>
   <g id="line2d_15">
    <path d="M 184.581818 492.48 
L 186.317732 492.411177 
L 306.867335 492.204708 
L 448.055029 492.03265 
L 500.518216 491.826181 
L 514.212651 491.722946 
L 547.002143 491.550888 
L 548.545178 491.482065 
L 557.417629 491.378831 
L 599.658209 491.172362 
L 605.830349 491.103538 
L 606.216108 490.828246 
L 610.266574 490.656188 
L 644.213343 490.518542 
L 648.07093 490.415308 
L 663.887038 490.24325 
L 683.174974 490.071192 
L 692.240304 489.7959 
L 699.955479 489.623842 
L 702.848669 489.417373 
L 704.198825 489.245315 
L 711.72112 489.038846 
L 715.771587 488.9012 
L 722.136606 488.45385 
L 732.166333 488.212969 
L 738.145593 486.526804 
L 738.724231 486.492392 
L 739.495748 485.941808 
L 739.688628 485.081519 
L 740.074386 484.87505 
L 740.267266 484.840638 
L 740.460145 483.670646 
L 741.617421 483.188885 
L 742.00318 482.603888 
L 742.388939 482.363008 
L 742.581818 481.846835 
L 742.774698 480.814488 
L 742.967577 480.470373 
L 743.353336 478.646561 
L 743.546215 476.650692 
L 743.931974 475.239819 
L 744.124853 474.964527 
L 744.317732 470.353381 
L 744.510612 468.495157 
L 744.703491 467.806927 
L 744.896371 464.503419 
L 745.475009 460.649327 
L 745.667888 460.546092 
L 746.053647 458.584634 
L 746.246526 457.930815 
L 746.439405 452.941142 
L 746.632285 452.493792 
L 747.018044 450.842038 
L 747.210923 450.738803 
L 747.403802 449.878515 
L 747.596682 446.334126 
L 747.789561 445.439426 
L 747.98244 445.370603 
L 748.17532 442.789738 
L 748.368199 442.273565 
L 748.753958 442.101507 
L 749.525475 439.48623 
L 749.911234 438.797999 
L 750.296993 436.767719 
L 750.489872 435.976253 
L 750.682751 432.122161 
L 751.26139 427.85513 
L 751.840028 427.648661 
L 752.225786 427.40778 
L 752.997304 425.996907 
L 753.383063 425.859261 
L 753.768821 422.899869 
L 753.961701 422.865457 
L 754.347459 422.349284 
L 754.540339 420.869588 
L 754.733218 420.456649 
L 754.926097 420.319003 
L 755.118977 420.009299 
L 755.311856 419.424303 
L 755.890494 419.183422 
L 756.083374 418.942542 
L 756.662012 416.774615 
L 756.854891 416.636969 
L 757.24065 416.086384 
L 758.012167 415.707857 
L 758.205047 414.296984 
L 758.397926 414.193749 
L 758.590805 413.918457 
L 758.783685 411.199945 
L 759.169443 411.096711 
L 759.555202 410.374068 
L 759.748082 409.685838 
L 760.32672 409.548192 
L 760.905358 408.481434 
L 761.098237 408.447022 
L 761.483996 407.862026 
L 761.869755 407.72438 
L 762.062634 404.558518 
L 763.21991 404.283226 
L 763.605669 404.007934 
L 764.377186 403.904699 
L 764.570066 403.732641 
L 766.884618 403.044411 
L 767.656135 402.493826 
L 768.620532 402.35618 
L 769.006291 402.080888 
L 769.39205 401.943241 
L 771.320843 401.427068 
L 772.092361 398.502088 
L 773.056758 398.364441 
L 773.249637 398.295618 
L 774.792672 398.123561 
L 775.37131 397.917091 
L 775.564189 397.366507 
L 776.528586 397.297684 
L 777.107224 396.98798 
L 778.071621 396.643864 
L 778.264501 396.609453 
L 778.650259 396.230926 
L 779.036018 396.127691 
L 779.228897 395.886811 
L 780.000415 395.611518 
L 780.964812 395.508284 
L 781.157691 395.267403 
L 781.54345 395.232991 
L 781.736329 394.682407 
L 781.929208 394.613584 
L 782.122088 393.822118 
L 784.43664 393.305945 
L 785.015278 393.168299 
L 785.208158 392.755361 
L 786.558313 392.411245 
L 787.136951 392.204776 
L 787.908469 392.032718 
L 788.679986 391.826249 
L 789.644383 391.61978 
L 790.223021 391.447722 
L 791.573177 390.656257 
L 791.766056 389.968026 
L 792.730453 389.176561 
L 792.923332 388.866857 
L 793.887729 388.04098 
L 794.273488 387.318337 
L 794.466367 387.283926 
L 794.852126 386.389226 
L 795.623643 385.494526 
L 796.202281 385.391291 
L 796.395161 385.081587 
L 796.780919 384.90953 
L 796.973799 384.565414 
L 797.938196 384.324534 
L 798.131075 384.01483 
L 799.481231 383.705126 
L 799.866989 383.533068 
L 800.059869 383.498657 
L 800.252748 383.326599 
L 801.217145 383.188953 
L 802.5673 382.569545 
L 803.145938 382.431899 
L 803.531697 381.640434 
L 803.917456 381.399553 
L 804.881853 380.642499 
L 805.074732 379.851034 
L 805.84625 379.610153 
L 807.003526 379.231626 
L 807.389284 378.64663 
L 808.353681 378.096045 
L 808.546561 377.75193 
L 809.125199 377.54546 
L 809.510957 377.235757 
L 810.089596 376.994876 
L 810.475354 373.140783 
L 810.668234 371.901968 
L 810.861113 369.768453 
L 811.053992 369.49316 
L 811.82551 366.843472 
L 812.211269 366.155241 
L 812.404148 366.052006 
L 812.597027 365.811126 
L 812.789907 365.363776 
L 812.982786 363.815256 
L 813.175665 363.43673 
L 813.561424 363.299083 
L 814.7187 360.959099 
L 814.91158 360.787041 
L 815.104459 359.85793 
L 815.297338 359.513814 
L 815.683097 358.619114 
L 816.068856 358.068529 
L 816.840373 357.621179 
L 817.033253 357.41471 
L 817.226132 356.313541 
L 817.611891 356.141483 
L 817.997649 355.762956 
L 818.576288 354.971491 
L 818.769167 354.248849 
L 818.962046 354.214437 
L 819.540684 353.526206 
L 819.926443 353.491795 
L 820.119323 353.147679 
L 820.505081 352.94121 
L 821.469478 351.874453 
L 821.662357 351.289456 
L 823.205392 349.80976 
L 823.591151 348.46771 
L 824.748427 347.882714 
L 825.327065 346.988014 
L 826.291462 345.439495 
L 826.677221 345.233026 
L 827.448738 345.095379 
L 828.027376 343.99421 
L 828.798894 343.753329 
L 829.570411 342.858629 
L 829.95617 342.789806 
L 830.341929 342.376868 
L 830.920567 342.135987 
L 831.306326 342.101575 
L 831.499205 341.895106 
L 831.692084 341.275699 
L 832.463602 341.034818 
L 832.656481 340.690702 
L 832.849361 340.656291 
L 833.04224 340.036883 
L 833.620878 339.796002 
L 834.199516 339.658356 
L 834.585275 339.314241 
L 835.549672 338.866891 
L 835.93543 338.557187 
L 836.321189 338.316306 
L 836.706948 338.281895 
L 836.899827 337.352783 
L 837.285586 337.043079 
L 837.864224 336.767787 
L 838.442862 336.423672 
L 839.21438 336.286025 
L 839.407259 335.322502 
L 840.757414 334.668683 
L 840.950294 334.634272 
L 841.143173 334.462214 
L 841.528932 334.393391 
L 841.721811 334.083687 
L 842.493329 333.773983 
L 842.686208 333.395456 
L 843.071967 333.361045 
L 843.457726 333.120164 
L 844.036364 332.81046 
L 844.229243 332.328698 
L 845.00076 331.950172 
L 845.19364 331.674879 
L 845.772278 331.365175 
L 846.350916 331.089883 
L 846.543795 330.780179 
L 846.736675 330.711356 
L 847.122433 330.436064 
L 847.508192 330.264006 
L 847.701072 330.057537 
L 848.858348 329.713422 
L 849.051227 329.334895 
L 849.244106 329.23166 
L 850.208503 328.990779 
L 850.594262 328.681075 
L 850.980021 328.543429 
L 851.558659 328.371372 
L 851.751538 328.061668 
L 852.137297 327.992845 
L 852.330176 327.373437 
L 852.523056 327.270202 
L 852.908814 326.822852 
L 853.101694 325.790506 
L 853.487452 325.549625 
L 853.680332 325.411979 
L 853.873211 325.136687 
L 854.25897 324.895806 
L 855.030487 324.207575 
L 855.416246 324.035518 
L 855.609125 323.622579 
L 855.802005 323.553756 
L 856.187764 323.140818 
L 856.573522 322.899937 
L 857.15216 322.727879 
L 857.537919 322.280529 
L 859.659592 320.456718 
L 860.623989 320.215837 
L 861.781265 319.011433 
L 862.167024 318.839375 
L 863.710059 318.219968 
L 864.481576 317.738206 
L 865.253094 317.394091 
L 865.638852 317.187621 
L 866.024611 317.015564 
L 866.21749 316.843506 
L 868.339163 316.017629 
L 868.532043 315.673514 
L 869.882198 315.122929 
L 870.460837 314.744402 
L 871.039475 314.46911 
L 871.232354 314.262641 
L 872.003871 314.056171 
L 872.196751 313.608821 
L 872.38963 312.060302 
L 872.775389 311.647364 
L 872.968268 311.612952 
L 874.125544 310.098844 
L 874.511303 309.066498 
L 874.897062 308.722383 
L 875.282821 308.481502 
L 875.668579 308.378267 
L 875.861459 308.102975 
L 876.247217 307.896506 
L 876.632976 307.552391 
L 877.018735 307.380333 
L 877.211614 307.31151 
L 877.597373 306.898571 
L 877.790252 306.86416 
L 877.983132 306.451221 
L 878.56177 306.244752 
L 878.947529 305.728579 
L 879.526167 305.281229 
L 879.911925 304.902702 
L 880.490563 304.833879 
L 880.683443 304.524175 
L 881.262081 304.352117 
L 881.64784 302.83801 
L 882.033598 302.493894 
L 882.805116 302.218602 
L 883.190875 301.94331 
L 883.383754 301.427137 
L 883.769513 301.28949 
L 883.962392 300.807729 
L 884.155271 300.704494 
L 884.54103 300.291556 
L 884.733909 300.085087 
L 885.312548 299.878617 
L 885.698306 299.568914 
L 885.891186 299.534502 
L 886.084065 299.328033 
L 886.276944 299.293621 
L 887.048462 298.81186 
L 887.434221 297.951571 
L 887.6271 297.848337 
L 888.012859 297.779514 
L 888.205738 297.400987 
L 888.591497 297.228929 
L 888.977255 297.02246 
L 889.170135 296.403052 
L 889.941652 295.955702 
L 890.134532 295.336294 
L 890.906049 294.682475 
L 891.098928 294.648063 
L 891.484687 294.13189 
L 891.870446 293.822187 
L 892.063325 293.753363 
L 892.256205 293.409248 
L 892.641963 293.271602 
L 892.834843 292.617783 
L 893.220601 292.514548 
L 893.413481 292.204844 
L 893.60636 292.136021 
L 893.79924 291.413379 
L 894.184998 291.310144 
L 894.570757 291.069263 
L 894.956516 290.518679 
L 895.149395 290.381033 
L 895.920913 289.21104 
L 896.113792 289.142217 
L 896.499551 288.729279 
L 897.271068 288.178694 
L 897.849706 287.903402 
L 899.58562 286.114002 
L 899.971379 285.976356 
L 900.357138 285.563417 
L 900.742897 285.425771 
L 900.935776 284.634306 
L 901.514414 284.083721 
L 901.707293 283.39549 
L 902.093052 283.016963 
L 902.285932 282.672848 
L 902.478811 282.638436 
L 903.443208 281.743736 
L 904.021846 281.399621 
L 904.407605 281.089917 
L 905.564881 280.539333 
L 906.336398 279.403752 
L 906.722157 279.266106 
L 906.915036 278.956402 
L 907.107916 278.887579 
L 907.300795 278.646698 
L 907.493674 278.612286 
L 907.686554 278.233759 
L 908.458071 277.717586 
L 909.036709 277.270236 
L 909.808227 276.891709 
L 910.386865 276.409948 
L 910.965503 276.134656 
L 911.158382 275.824952 
L 911.544141 275.756129 
L 912.122779 275.205544 
L 912.315658 274.89584 
L 912.894297 274.620548 
L 913.280055 274.310844 
L 913.858693 274.138786 
L 914.244452 273.725848 
L 914.630211 273.588202 
L 915.01597 273.450556 
L 915.401728 272.968794 
L 916.173246 272.624679 
L 916.366125 271.041748 
L 917.330522 270.353517 
L 918.102039 268.977056 
L 918.294919 268.873821 
L 918.487798 268.426471 
L 918.873557 268.288825 
L 919.645074 267.118832 
L 920.030833 265.50149 
L 920.223712 264.950906 
L 920.609471 262.37004 
L 920.802351 261.337694 
L 921.766747 260.098879 
L 922.538265 257.036252 
L 922.731144 256.864194 
L 922.924024 256.382432 
L 923.116903 254.696267 
L 923.309782 254.076859 
L 923.502662 254.008036 
L 923.695541 253.250982 
L 924.274179 252.769221 
L 924.659938 251.461582 
L 925.624335 250.945409 
L 926.010093 250.532471 
L 926.588731 250.222767 
L 926.781611 250.119532 
L 927.16737 249.706594 
L 927.360249 249.328067 
L 927.553128 248.364544 
L 927.746008 247.986017 
L 928.131766 247.848371 
L 928.517525 247.676313 
L 928.903284 247.401021 
L 929.289043 247.16014 
L 930.06056 246.919259 
L 930.446319 246.678378 
L 930.639198 246.540732 
L 931.024957 246.506321 
L 933.532389 244.200748 
L 933.918147 244.097513 
L 934.303906 243.856632 
L 934.496785 243.753398 
L 934.689665 242.927521 
L 935.268303 242.376936 
L 935.654062 242.273701 
L 936.811338 241.34459 
L 937.197096 241.172532 
L 937.389976 241.103709 
L 937.775735 240.690771 
L 938.161493 240.587536 
L 938.354373 240.105775 
L 938.547252 239.933717 
L 938.740131 239.383132 
L 939.12589 239.142251 
L 939.704528 237.869024 
L 939.897408 237.180794 
L 940.476046 236.767855 
L 941.054684 236.010801 
L 941.440442 234.668751 
L 941.633322 234.255813 
L 941.826201 233.533171 
L 942.019081 233.464348 
L 942.21196 232.879351 
L 942.597719 232.638471 
L 943.754995 231.468478 
L 943.947874 230.986717 
L 944.526512 230.711424 
L 944.719392 230.229663 
L 945.876668 229.747901 
L 946.069547 229.025259 
L 946.455306 228.784378 
L 946.648185 228.337028 
L 946.841065 228.199382 
L 947.226823 228.164971 
L 948.3841 227.270271 
L 948.962738 226.822921 
L 949.348496 226.375571 
L 949.734255 225.997044 
L 949.927134 225.652928 
L 950.120014 224.895874 
L 951.27729 224.242055 
L 951.663049 223.416178 
L 952.048807 223.278532 
L 952.241687 222.762359 
L 952.434566 222.693536 
L 953.013204 222.039717 
L 953.398963 221.695601 
L 954.749119 220.628844 
L 955.327757 220.009436 
L 955.906395 219.252382 
L 956.099274 218.77062 
L 956.292153 217.944744 
L 956.677912 217.290924 
L 956.870792 216.877986 
L 957.835188 211.888313 
L 958.028068 211.61302 
L 958.220947 211.131259 
L 958.413826 209.273036 
L 958.606706 205.694236 
L 958.799585 204.283363 
L 958.992465 202.012201 
L 959.185344 201.427205 
L 959.571103 198.84634 
L 959.956861 195.336363 
L 960.34262 190.621982 
L 960.728379 189.899339 
L 961.114138 183.808497 
L 961.307017 182.191155 
L 961.692776 175.240024 
L 962.078534 173.897974 
L 962.271414 170.387997 
L 962.464293 169.596532 
L 962.850052 165.742439 
L 963.235811 155.281331 
L 963.621569 153.663989 
L 963.814449 150.429304 
L 964.007328 150.085189 
L 964.393087 144.820224 
L 964.585966 144.716989 
L 964.778845 144.372874 
L 965.164604 143.134058 
L 965.357484 142.893177 
L 965.550363 142.308181 
L 965.743242 141.207012 
L 966.129001 141.000543 
L 966.32188 140.449958 
L 966.707639 138.729381 
L 967.093398 135.425874 
L 967.286277 134.737643 
L 967.479157 134.66882 
L 967.672036 134.359116 
L 968.636433 131.434135 
L 968.829312 131.296489 
L 969.022191 130.573847 
L 969.40795 130.229731 
L 969.60083 130.092085 
L 969.793709 129.575912 
L 969.986588 129.403854 
L 970.565226 128.577977 
L 971.143865 127.717689 
L 971.529623 127.580043 
L 972.49402 126.306816 
L 972.879779 126.134758 
L 973.458417 126.065935 
L 973.844176 125.549762 
L 974.229934 125.446527 
L 974.808572 124.758296 
L 975.58009 124.310946 
L 976.351607 123.347423 
L 976.544487 122.83125 
L 977.316004 122.59037 
L 977.701763 122.246254 
L 978.087522 121.592435 
L 978.47328 121.282731 
L 978.66616 121.04185 
L 979.051918 119.630977 
L 979.244798 119.390096 
L 979.823436 119.149216 
L 980.209195 118.839512 
L 980.594953 118.460985 
L 980.980712 118.151281 
L 981.366471 117.807166 
L 981.75223 117.46305 
L 981.945109 116.637173 
L 982.523747 116.224235 
L 983.295264 115.295123 
L 983.873903 114.813362 
L 984.452541 114.297189 
L 984.838299 114.090719 
L 985.224058 113.781016 
L 985.802696 113.574546 
L 986.188455 112.370143 
L 986.381334 112.266908 
L 986.767093 111.681912 
L 987.53861 110.7528 
L 987.73149 110.649566 
L 988.310128 109.617219 
L 988.503007 108.688108 
L 988.695887 108.378404 
L 989.081645 108.240758 
L 989.274525 107.827819 
L 991.010439 106.485769 
L 991.396198 105.694304 
L 991.589077 105.591069 
L 991.781956 101.392862 
L 992.167715 100.704631 
L 992.553474 100.154046 
L 992.746353 99.672285 
L 992.939233 99.637873 
L 993.324991 99.018465 
L 993.517871 98.295823 
L 994.675147 96.678481 
L 994.868026 96.231131 
L 995.253785 93.7535 
L 995.446664 93.030858 
L 995.639544 91.860865 
L 995.832423 91.551162 
L 996.025302 89.383235 
L 996.218182 89.28 
L 996.218182 89.28 
" clip-path="url(#pd1b3ede15c)" style="fill: none; stroke: #1f77b4; stroke-width: 1.5; stroke-linecap: square"/>
   </g>
   <g id="patch_3">
    <path d="M 144 512.64 
L 144 69.12 
" style="fill: none; stroke: #000000; stroke-width: 0.8; stroke-linejoin: miter; stroke-linecap: square"/>
   </g>
   <g id="patch_4">
    <path d="M 1036.8 512.64 
L 1036.8 69.12 
" style="fill: none; stroke: #000000; stroke-width: 0.8; stroke-linejoin: miter; stroke-linecap: square"/>
   </g>
   <g id="patch_5">
    <path d="M 144 512.64 
L 1036.8 512.64 
" style="fill: none; stroke: #000000; stroke-width: 0.8; stroke-linejoin: miter; stroke-linecap: square"/>
   </g>
   <g id="patch_6">
    <path d="M 144 69.12 
L 1036.8 69.12 
" style="fill: none; stroke: #000000; stroke-width: 0.8; stroke-linejoin: miter; stroke-linecap: square"/>
   </g>
   <g id="text_15">
    <!-- Number of AEDs in the OpenStreetMap database in Poland from first edition, day by day. As at: 2025-08-19 -->
    <g transform="translate(144 63.12) scale(0.14 -0.14)">
     <defs>
      <path id="DejaVuSans-4e" d="M 628 4666 
L 1478 4666 
L 3547 763 
L 3547 4666 
L 4159 4666 
L 4159 0 
L 3309 0 
L 1241 3903 
L 1241 0 
L 628 0 
L 628 4666 
z
" transform="scale(0.015625)"/>
      <path id="DejaVuSans-75" d="M 544 1381 
L 544 3500 
L 1119 3500 
L 1119 1403 
Q 1119 906 1312 657 
Q 1506 409 1894 409 
Q 2359 409 2629 706 
Q 2900 1003 2900 1516 
L 2900 3500 
L 3475 3500 
L 3475 0 
L 2900 0 
L 2900 538 
Q 2691 219 2414 64 
Q 2138 -91 1772 -91 
Q 1169 -91 856 284 
Q 544 659 544 1381 
z
M 1991 3584 
L 1991 3584 
z
" transform="scale(0.015625)"/>
      <path id="DejaVuSans-6d" d="M 3328 2828 
Q 3544 3216 3844 3400 
Q 4144 3584 4550 3584 
Q 5097 3584 5394 3201 
Q 5691 2819 5691 2113 
L 5691 0 
L 5113 0 
L 5113 2094 
Q 5113 2597 4934 2840 
Q 4756 3084 4391 3084 
Q 3944 3084 3684 2787 
Q 3425 2491 3425 1978 
L 3425 0 
L 2847 0 
L 2847 2094 
Q 2847 2600 2669 2842 
Q 2491 3084 2119 3084 
Q 1678 3084 1418 2786 
Q 1159 2488 1159 1978 
L 1159 0 
L 581 0 
L 581 3500 
L 1159 3500 
L 1159 2956 
Q 1356 3278 1631 3431 
Q 1906 3584 2284 3584 
Q 2666 3584 2933 3390 
Q 3200 3197 3328 2828 
z
" transform="scale(0.015625)"/>
      <path id="DejaVuSans-62" d="M 3116 1747 
Q 3116 2381 2855 2742 
Q 2594 3103 2138 3103 
Q 1681 3103 1420 2742 
Q 1159 2381 1159 1747 
Q 1159 1113 1420 752 
Q 1681 391 2138 391 
Q 2594 391 2855 752 
Q 3116 1113 3116 1747 
z
M 1159 2969 
Q 1341 3281 1617 3432 
Q 1894 3584 2278 3584 
Q 2916 3584 3314 3078 
Q 3713 2572 3713 1747 
Q 3713 922 3314 415 
Q 2916 -91 2278 -91 
Q 1894 -91 1617 61 
Q 1341 213 1159 525 
L 1159 0 
L 581 0 
L 581 4863 
L 1159 4863 
L 1159 2969 
z
" transform="scale(0.015625)"/>
      <path id="DejaVuSans-65" d="M 3597 1894 
L 3597 1613 
L 953 1613 
Q 991 1019 1311 708 
Q 1631 397 2203 397 
Q 2534 397 2845 478 
Q 3156 559 3463 722 
L 3463 178 
Q 3153 47 2828 -22 
Q 2503 -91 2169 -91 
Q 1331 -91 842 396 
Q 353 884 353 1716 
Q 353 2575 817 3079 
Q 1281 3584 2069 3584 
Q 2775 3584 3186 3129 
Q 3597 2675 3597 1894 
z
M 3022 2063 
Q 3016 2534 2758 2815 
Q 2500 3097 2075 3097 
Q 1594 3097 1305 2825 
Q 1016 2553 972 2059 
L 3022 2063 
z
" transform="scale(0.015625)"/>
      <path id="DejaVuSans-72" d="M 2631 2963 
Q 2534 3019 2420 3045 
Q 2306 3072 2169 3072 
Q 1681 3072 1420 2755 
Q 1159 2438 1159 1844 
L 1159 0 
L 581 0 
L 581 3500 
L 1159 3500 
L 1159 2956 
Q 1341 3275 1631 3429 
Q 1922 3584 2338 3584 
Q 2397 3584 2469 3576 
Q 2541 3569 2628 3553 
L 2631 2963 
z
" transform="scale(0.015625)"/>
      <path id="DejaVuSans-20" transform="scale(0.015625)"/>
      <path id="DejaVuSans-6f" d="M 1959 3097 
Q 1497 3097 1228 2736 
Q 959 2375 959 1747 
Q 959 1119 1226 758 
Q 1494 397 1959 397 
Q 2419 397 2687 759 
Q 2956 1122 2956 1747 
Q 2956 2369 2687 2733 
Q 2419 3097 1959 3097 
z
M 1959 3584 
Q 2709 3584 3137 3096 
Q 3566 2609 3566 1747 
Q 3566 888 3137 398 
Q 2709 -91 1959 -91 
Q 1206 -91 779 398 
Q 353 888 353 1747 
Q 353 2609 779 3096 
Q 1206 3584 1959 3584 
z
" transform="scale(0.015625)"/>
      <path id="DejaVuSans-66" d="M 2375 4863 
L 2375 4384 
L 1825 4384 
Q 1516 4384 1395 4259 
Q 1275 4134 1275 3809 
L 1275 3500 
L 2222 3500 
L 2222 3053 
L 1275 3053 
L 1275 0 
L 697 0 
L 697 3053 
L 147 3053 
L 147 3500 
L 697 3500 
L 697 3744 
Q 697 4328 969 4595 
Q 1241 4863 1831 4863 
L 2375 4863 
z
" transform="scale(0.015625)"/>
      <path id="DejaVuSans-41" d="M 2188 4044 
L 1331 1722 
L 3047 1722 
L 2188 4044 
z
M 1831 4666 
L 2547 4666 
L 4325 0 
L 3669 0 
L 3244 1197 
L 1141 1197 
L 716 0 
L 50 0 
L 1831 4666 
z
" transform="scale(0.015625)"/>
      <path id="DejaVuSans-45" d="M 628 4666 
L 3578 4666 
L 3578 4134 
L 1259 4134 
L 1259 2753 
L 3481 2753 
L 3481 2222 
L 1259 2222 
L 1259 531 
L 3634 531 
L 3634 0 
L 628 0 
L 628 4666 
z
" transform="scale(0.015625)"/>
      <path id="DejaVuSans-44" d="M 1259 4147 
L 1259 519 
L 2022 519 
Q 2988 519 3436 956 
Q 3884 1394 3884 2338 
Q 3884 3275 3436 3711 
Q 2988 4147 2022 4147 
L 1259 4147 
z
M 628 4666 
L 1925 4666 
Q 3281 4666 3915 4102 
Q 4550 3538 4550 2338 
Q 4550 1131 3912 565 
Q 3275 0 1925 0 
L 628 0 
L 628 4666 
z
" transform="scale(0.015625)"/>
      <path id="DejaVuSans-73" d="M 2834 3397 
L 2834 2853 
Q 2591 2978 2328 3040 
Q 2066 3103 1784 3103 
Q 1356 3103 1142 2972 
Q 928 2841 928 2578 
Q 928 2378 1081 2264 
Q 1234 2150 1697 2047 
L 1894 2003 
Q 2506 1872 2764 1633 
Q 3022 1394 3022 966 
Q 3022 478 2636 193 
Q 2250 -91 1575 -91 
Q 1294 -91 989 -36 
Q 684 19 347 128 
L 347 722 
Q 666 556 975 473 
Q 1284 391 1588 391 
Q 1994 391 2212 530 
Q 2431 669 2431 922 
Q 2431 1156 2273 1281 
Q 2116 1406 1581 1522 
L 1381 1569 
Q 847 1681 609 1914 
Q 372 2147 372 2553 
Q 372 3047 722 3315 
Q 1072 3584 1716 3584 
Q 2034 3584 2315 3537 
Q 2597 3491 2834 3397 
z
" transform="scale(0.015625)"/>
      <path id="DejaVuSans-69" d="M 603 3500 
L 1178 3500 
L 1178 0 
L 603 0 
L 603 3500 
z
M 603 4863 
L 1178 4863 
L 1178 4134 
L 603 4134 
L 603 4863 
z
" transform="scale(0.015625)"/>
      <path id="DejaVuSans-6e" d="M 3513 2113 
L 3513 0 
L 2938 0 
L 2938 2094 
Q 2938 2591 2744 2837 
Q 2550 3084 2163 3084 
Q 1697 3084 1428 2787 
Q 1159 2491 1159 1978 
L 1159 0 
L 581 0 
L 581 3500 
L 1159 3500 
L 1159 2956 
Q 1366 3272 1645 3428 
Q 1925 3584 2291 3584 
Q 2894 3584 3203 3211 
Q 3513 2838 3513 2113 
z
" transform="scale(0.015625)"/>
      <path id="DejaVuSans-74" d="M 1172 4494 
L 1172 3500 
L 2356 3500 
L 2356 3053 
L 1172 3053 
L 1172 1153 
Q 1172 725 1289 603 
Q 1406 481 1766 481 
L 2356 481 
L 2356 0 
L 1766 0 
Q 1100 0 847 248 
Q 594 497 594 1153 
L 594 3053 
L 172 3053 
L 172 3500 
L 594 3500 
L 594 4494 
L 1172 4494 
z
" transform="scale(0.015625)"/>
      <path id="DejaVuSans-68" d="M 3513 2113 
L 3513 0 
L 2938 0 
L 2938 2094 
Q 2938 2591 2744 2837 
Q 2550 3084 2163 3084 
Q 1697 3084 1428 2787 
Q 1159 2491 1159 1978 
L 1159 0 
L 581 0 
L 581 4863 
L 1159 4863 
L 1159 2956 
Q 1366 3272 1645 3428 
Q 1925 3584 2291 3584 
Q 2894 3584 3203 3211 
Q 3513 2838 3513 2113 
z
" transform="scale(0.015625)"/>
      <path id="DejaVuSans-4f" d="M 2522 4238 
Q 1834 4238 1429 3725 
Q 1025 3213 1025 2328 
Q 1025 1447 1429 934 
Q 1834 422 2522 422 
Q 3209 422 3611 934 
Q 4013 1447 4013 2328 
Q 4013 3213 3611 3725 
Q 3209 4238 2522 4238 
z
M 2522 4750 
Q 3503 4750 4090 4092 
Q 4678 3434 4678 2328 
Q 4678 1225 4090 567 
Q 3503 -91 2522 -91 
Q 1538 -91 948 565 
Q 359 1222 359 2328 
Q 359 3434 948 4092 
Q 1538 4750 2522 4750 
z
" transform="scale(0.015625)"/>
      <path id="DejaVuSans-70" d="M 1159 525 
L 1159 -1331 
L 581 -1331 
L 581 3500 
L 1159 3500 
L 1159 2969 
Q 1341 3281 1617 3432 
Q 1894 3584 2278 3584 
Q 2916 3584 3314 3078 
Q 3713 2572 3713 1747 
Q 3713 922 3314 415 
Q 2916 -91 2278 -91 
Q 1894 -91 1617 61 
Q 1341 213 1159 525 
z
M 3116 1747 
Q 3116 2381 2855 2742 
Q 2594 3103 2138 3103 
Q 1681 3103 1420 2742 
Q 1159 2381 1159 1747 
Q 1159 1113 1420 752 
Q 1681 391 2138 391 
Q 2594 391 2855 752 
Q 3116 1113 3116 1747 
z
" transform="scale(0.015625)"/>
      <path id="DejaVuSans-53" d="M 3425 4513 
L 3425 3897 
Q 3066 4069 2747 4153 
Q 2428 4238 2131 4238 
Q 1616 4238 1336 4038 
Q 1056 3838 1056 3469 
Q 1056 3159 1242 3001 
Q 1428 2844 1947 2747 
L 2328 2669 
Q 3034 2534 3370 2195 
Q 3706 1856 3706 1288 
Q 3706 609 3251 259 
Q 2797 -91 1919 -91 
Q 1588 -91 1214 -16 
Q 841 59 441 206 
L 441 856 
Q 825 641 1194 531 
Q 1563 422 1919 422 
Q 2459 422 2753 634 
Q 3047 847 3047 1241 
Q 3047 1584 2836 1778 
Q 2625 1972 2144 2069 
L 1759 2144 
Q 1053 2284 737 2584 
Q 422 2884 422 3419 
Q 422 4038 858 4394 
Q 1294 4750 2059 4750 
Q 2388 4750 2728 4690 
Q 3069 4631 3425 4513 
z
" transform="scale(0.015625)"/>
      <path id="DejaVuSans-4d" d="M 628 4666 
L 1569 4666 
L 2759 1491 
L 3956 4666 
L 4897 4666 
L 4897 0 
L 4281 0 
L 4281 4097 
L 3078 897 
L 2444 897 
L 1241 4097 
L 1241 0 
L 628 0 
L 628 4666 
z
" transform="scale(0.015625)"/>
      <path id="DejaVuSans-61" d="M 2194 1759 
Q 1497 1759 1228 1600 
Q 959 1441 959 1056 
Q 959 750 1161 570 
Q 1363 391 1709 391 
Q 2188 391 2477 730 
Q 2766 1069 2766 1631 
L 2766 1759 
L 2194 1759 
z
M 3341 1997 
L 3341 0 
L 2766 0 
L 2766 531 
Q 2569 213 2275 61 
Q 1981 -91 1556 -91 
Q 1019 -91 701 211 
Q 384 513 384 1019 
Q 384 1609 779 1909 
Q 1175 2209 1959 2209 
L 2766 2209 
L 2766 2266 
Q 2766 2663 2505 2880 
Q 2244 3097 1772 3097 
Q 1472 3097 1187 3025 
Q 903 2953 641 2809 
L 641 3341 
Q 956 3463 1253 3523 
Q 1550 3584 1831 3584 
Q 2591 3584 2966 3190 
Q 3341 2797 3341 1997 
z
" transform="scale(0.015625)"/>
      <path id="DejaVuSans-64" d="M 2906 2969 
L 2906 4863 
L 3481 4863 
L 3481 0 
L 2906 0 
L 2906 525 
Q 2725 213 2448 61 
Q 2172 -91 1784 -91 
Q 1150 -91 751 415 
Q 353 922 353 1747 
Q 353 2572 751 3078 
Q 1150 3584 1784 3584 
Q 2172 3584 2448 3432 
Q 2725 3281 2906 2969 
z
M 947 1747 
Q 947 1113 1208 752 
Q 1469 391 1925 391 
Q 2381 391 2643 752 
Q 2906 1113 2906 1747 
Q 2906 2381 2643 2742 
Q 2381 3103 1925 3103 
Q 1469 3103 1208 2742 
Q 947 2381 947 1747 
z
" transform="scale(0.015625)"/>
      <path id="DejaVuSans-50" d="M 1259 4147 
L 1259 2394 
L 2053 2394 
Q 2494 2394 2734 2622 
Q 2975 2850 2975 3272 
Q 2975 3691 2734 3919 
Q 2494 4147 2053 4147 
L 1259 4147 
z
M 628 4666 
L 2053 4666 
Q 2838 4666 3239 4311 
Q 3641 3956 3641 3272 
Q 3641 2581 3239 2228 
Q 2838 1875 2053 1875 
L 1259 1875 
L 1259 0 
L 628 0 
L 628 4666 
z
" transform="scale(0.015625)"/>
      <path id="DejaVuSans-6c" d="M 603 4863 
L 1178 4863 
L 1178 0 
L 603 0 
L 603 4863 
z
" transform="scale(0.015625)"/>
      <path id="DejaVuSans-2c" d="M 750 794 
L 1409 794 
L 1409 256 
L 897 -744 
L 494 -744 
L 750 256 
L 750 794 
z
" transform="scale(0.015625)"/>
      <path id="DejaVuSans-79" d="M 2059 -325 
Q 1816 -950 1584 -1140 
Q 1353 -1331 966 -1331 
L 506 -1331 
L 506 -850 
L 844 -850 
Q 1081 -850 1212 -737 
Q 1344 -625 1503 -206 
L 1606 56 
L 191 3500 
L 800 3500 
L 1894 763 
L 2988 3500 
L 3597 3500 
L 2059 -325 
z
" transform="scale(0.015625)"/>
      <path id="DejaVuSans-2e" d="M 684 794 
L 1344 794 
L 1344 0 
L 684 0 
L 684 794 
z
" transform="scale(0.015625)"/>
      <path id="DejaVuSans-3a" d="M 750 794 
L 1409 794 
L 1409 0 
L 750 0 
L 750 794 
z
M 750 3309 
L 1409 3309 
L 1409 2516 
L 750 2516 
L 750 3309 
z
" transform="scale(0.015625)"/>
      <path id="DejaVuSans-35" d="M 691 4666 
L 3169 4666 
L 3169 4134 
L 1269 4134 
L 1269 2991 
Q 1406 3038 1543 3061 
Q 1681 3084 1819 3084 
Q 2600 3084 3056 2656 
Q 3513 2228 3513 1497 
Q 3513 744 3044 326 
Q 2575 -91 1722 -91 
Q 1428 -91 1123 -41 
Q 819 9 494 109 
L 494 744 
Q 775 591 1075 516 
Q 1375 441 1709 441 
Q 2250 441 2565 725 
Q 2881 1009 2881 1497 
Q 2881 1984 2565 2268 
Q 2250 2553 1709 2553 
Q 1456 2553 1204 2497 
Q 953 2441 691 2322 
L 691 4666 
z
" transform="scale(0.015625)"/>
      <path id="DejaVuSans-2d" d="M 313 2009 
L 1997 2009 
L 1997 1497 
L 313 1497 
L 313 2009 
z
" transform="scale(0.015625)"/>
      <path id="DejaVuSans-39" d="M 703 97 
L 703 672 
Q 941 559 1184 500 
Q 1428 441 1663 441 
Q 2288 441 2617 861 
Q 2947 1281 2994 2138 
Q 2813 1869 2534 1725 
Q 2256 1581 1919 1581 
Q 1219 1581 811 2004 
Q 403 2428 403 3163 
Q 403 3881 828 4315 
Q 1253 4750 1959 4750 
Q 2769 4750 3195 4129 
Q 3622 3509 3622 2328 
Q 3622 1225 3098 567 
Q 2575 -91 1691 -91 
Q 1453 -91 1209 -44 
Q 966 3 703 97 
z
M 1959 2075 
Q 2384 2075 2632 2365 
Q 2881 2656 2881 3163 
Q 2881 3666 2632 3958 
Q 2384 4250 1959 4250 
Q 1534 4250 1286 3958 
Q 1038 3666 1038 3163 
Q 1038 2656 1286 2365 
Q 1534 2075 1959 2075 
z
" transform="scale(0.015625)"/>
     </defs>
     <use xlink:href="#DejaVuSans-4e"/>
     <use xlink:href="#DejaVuSans-75" x="74.804688"/>
     <use xlink:href="#DejaVuSans-6d" x="138.183594"/>
     <use xlink:href="#DejaVuSans-62" x="235.595703"/>
     <use xlink:href="#DejaVuSans-65" x="299.072266"/>
     <use xlink:href="#DejaVuSans-72" x="360.595703"/>
     <use xlink:href="#DejaVuSans-20" x="401.708984"/>
     <use xlink:href="#DejaVuSans-6f" x="433.496094"/>
     <use xlink:href="#DejaVuSans-66" x="494.677734"/>
     <use xlink:href="#DejaVuSans-20" x="529.882812"/>
     <use xlink:href="#DejaVuSans-41" x="561.669922"/>
     <use xlink:href="#DejaVuSans-45" x="630.078125"/>
     <use xlink:href="#DejaVuSans-44" x="693.261719"/>
     <use xlink:href="#DejaVuSans-73" x="770.263672"/>
     <use xlink:href="#DejaVuSans-20" x="822.363281"/>
     <use xlink:href="#DejaVuSans-69" x="854.150391"/>
     <use xlink:href="#DejaVuSans-6e" x="881.933594"/>
     <use xlink:href="#DejaVuSans-20" x="945.3125"/>
     <use xlink:href="#DejaVuSans-74" x="977.099609"/>
     <use xlink:href="#DejaVuSans-68" x="1016.308594"/>
     <use xlink:href="#DejaVuSans-65" x="1079.6875"/>
     <use xlink:href="#DejaVuSans-20" x="1141.210938"/>
     <use xlink:href="#DejaVuSans-4f" x="1172.998047"/>
     <use xlink:href="#DejaVuSans-70" x="1251.708984"/>
     <use xlink:href="#DejaVuSans-65" x="1315.185547"/>
     <use xlink:href="#DejaVuSans-6e" x="1376.708984"/>
     <use xlink:href="#DejaVuSans-53" x="1440.087891"/>
     <use xlink:href="#DejaVuSans-74" x="1503.564453"/>
     <use xlink:href="#DejaVuSans-72" x="1542.773438"/>
     <use xlink:href="#DejaVuSans-65" x="1581.636719"/>
     <use xlink:href="#DejaVuSans-65" x="1643.160156"/>
     <use xlink:href="#DejaVuSans-74" x="1704.683594"/>
     <use xlink:href="#DejaVuSans-4d" x="1743.892578"/>
     <use xlink:href="#DejaVuSans-61" x="1830.171875"/>
     <use xlink:href="#DejaVuSans-70" x="1891.451172"/>
     <use xlink:href="#DejaVuSans-20" x="1954.927734"/>
     <use xlink:href="#DejaVuSans-64" x="1986.714844"/>
     <use xlink:href="#DejaVuSans-61" x="2050.191406"/>
     <use xlink:href="#DejaVuSans-74" x="2111.470703"/>
     <use xlink:href="#DejaVuSans-61" x="2150.679688"/>
     <use xlink:href="#DejaVuSans-62" x="2211.958984"/>
     <use xlink:href="#DejaVuSans-61" x="2275.435547"/>
     <use xlink:href="#DejaVuSans-73" x="2336.714844"/>
     <use xlink:href="#DejaVuSans-65" x="2388.814453"/>
     <use xlink:href="#DejaVuSans-20" x="2450.337891"/>
     <use xlink:href="#DejaVuSans-69" x="2482.125"/>
     <use xlink:href="#DejaVuSans-6e" x="2509.908203"/>
     <use xlink:href="#DejaVuSans-20" x="2573.287109"/>
     <use xlink:href="#DejaVuSans-50" x="2605.074219"/>
     <use xlink:href="#DejaVuSans-6f" x="2661.751953"/>
     <use xlink:href="#DejaVuSans-6c" x="2722.933594"/>
     <use xlink:href="#DejaVuSans-61" x="2750.716797"/>
     <use xlink:href="#DejaVuSans-6e" x="2811.996094"/>
     <use xlink:href="#DejaVuSans-64" x="2875.375"/>
     <use xlink:href="#DejaVuSans-20" x="2938.851562"/>
     <use xlink:href="#DejaVuSans-66" x="2970.638672"/>
     <use xlink:href="#DejaVuSans-72" x="3005.84375"/>
     <use xlink:href="#DejaVuSans-6f" x="3044.707031"/>
     <use xlink:href="#DejaVuSans-6d" x="3105.888672"/>
     <use xlink:href="#DejaVuSans-20" x="3203.300781"/>
     <use xlink:href="#DejaVuSans-66" x="3235.087891"/>
     <use xlink:href="#DejaVuSans-69" x="3270.292969"/>
     <use xlink:href="#DejaVuSans-72" x="3298.076172"/>
     <use xlink:href="#DejaVuSans-73" x="3339.189453"/>
     <use xlink:href="#DejaVuSans-74" x="3391.289062"/>
     <use xlink:href="#DejaVuSans-20" x="3430.498047"/>
     <use xlink:href="#DejaVuSans-65" x="3462.285156"/>
     <use xlink:href="#DejaVuSans-64" x="3523.808594"/>
     <use xlink:href="#DejaVuSans-69" x="3587.285156"/>
     <use xlink:href="#DejaVuSans-74" x="3615.068359"/>
     <use xlink:href="#DejaVuSans-69" x="3654.277344"/>
     <use xlink:href="#DejaVuSans-6f" x="3682.060547"/>
     <use xlink:href="#DejaVuSans-6e" x="3743.242188"/>
     <use xlink:href="#DejaVuSans-2c" x="3806.621094"/>
     <use xlink:href="#DejaVuSans-20" x="3838.408203"/>
     <use xlink:href="#DejaVuSans-64" x="3870.195312"/>
     <use xlink:href="#DejaVuSans-61" x="3933.671875"/>
     <use xlink:href="#DejaVuSans-79" x="3994.951172"/>
     <use xlink:href="#DejaVuSans-20" x="4054.130859"/>
     <use xlink:href="#DejaVuSans-62" x="4085.917969"/>
     <use xlink:href="#DejaVuSans-79" x="4149.394531"/>
     <use xlink:href="#DejaVuSans-20" x="4208.574219"/>
     <use xlink:href="#DejaVuSans-64" x="4240.361328"/>
     <use xlink:href="#DejaVuSans-61" x="4303.837891"/>
     <use xlink:href="#DejaVuSans-79" x="4365.117188"/>
     <use xlink:href="#DejaVuSans-2e" x="4410.046875"/>
     <use xlink:href="#DejaVuSans-20" x="4441.833984"/>
     <use xlink:href="#DejaVuSans-41" x="4473.621094"/>
     <use xlink:href="#DejaVuSans-73" x="4542.029297"/>
     <use xlink:href="#DejaVuSans-20" x="4594.128906"/>
     <use xlink:href="#DejaVuSans-61" x="4625.916016"/>
     <use xlink:href="#DejaVuSans-74" x="4687.195312"/>
     <use xlink:href="#DejaVuSans-3a" x="4726.404297"/>
     <use xlink:href="#DejaVuSans-20" x="4760.095703"/>
     <use xlink:href="#DejaVuSans-32" x="4791.882812"/>
     <use xlink:href="#DejaVuSans-30" x="4855.505859"/>
     <use xlink:href="#DejaVuSans-32" x="4919.128906"/>
     <use xlink:href="#DejaVuSans-35" x="4982.751953"/>
     <use xlink:href="#DejaVuSans-2d" x="5046.375"/>
     <use xlink:href="#DejaVuSans-30" x="5082.458984"/>
     <use xlink:href="#DejaVuSans-38" x="5146.082031"/>
     <use xlink:href="#DejaVuSans-2d" x="5209.705078"/>
     <use xlink:href="#DejaVuSans-31" x="5245.789062"/>
     <use xlink:href="#DejaVuSans-39" x="5309.412109"/>
    </g>
   </g>
  </g>
 </g>
 <defs>
  <clipPath id="pd1b3ede15c">
   <rect x="144" y="69.12" width="892.8" height="443.52"/>
  </clipPath>
 </defs>
</svg>
