<?xml version="1.0" encoding="utf-8" standalone="no"?>
<!DOCTYPE svg PUBLIC "-//W3C//DTD SVG 1.1//EN"
  "http://www.w3.org/Graphics/SVG/1.1/DTD/svg11.dtd">
<svg xmlns:xlink="http://www.w3.org/1999/xlink" width="1152pt" height="576pt" viewBox="0 0 1152 576" xmlns="http://www.w3.org/2000/svg" version="1.1">
 <metadata>
  <rdf:RDF xmlns:dc="http://purl.org/dc/elements/1.1/" xmlns:cc="http://creativecommons.org/ns#" xmlns:rdf="http://www.w3.org/1999/02/22-rdf-syntax-ns#">
   <cc:Work>
    <dc:type rdf:resource="http://purl.org/dc/dcmitype/StillImage"/>
    <dc:date>1980-01-01T00:00:00+00:00</dc:date>
    <dc:format>image/svg+xml</dc:format>
    <dc:creator>
     <cc:Agent>
      <dc:title>Matplotlib v3.9.1, https://matplotlib.org/</dc:title>
     </cc:Agent>
    </dc:creator>
   </cc:Work>
  </rdf:RDF>
 </metadata>
 <defs>
  <style type="text/css">*{stroke-linejoin: round; stroke-linecap: butt}</style>
 </defs>
 <g id="figure_1">
  <g id="patch_1">
   <path d="M 0 576 
L 1152 576 
L 1152 0 
L 0 0 
z
" style="fill: #ffffff"/>
  </g>
  <g id="axes_1">
   <g id="patch_2">
    <path d="M 144 512.64 
L 1036.8 512.64 
L 1036.8 69.12 
L 144 69.12 
z
" style="fill: #ffffff"/>
   </g>
   <g id="matplotlib.axis_1">
    <g id="xtick_1">
     <g id="line2d_1">
      <defs>
       <path id="m371113aa84" d="M 0 0 
L 0 3.5 
" style="stroke: #000000; stroke-width: 0.8"/>
      </defs>
      <g>
       <use xlink:href="#m371113aa84" x="176.991111" y="512.64" style="stroke: #000000; stroke-width: 0.8"/>
      </g>
     </g>
     <g id="text_1">
      <!-- 2014 -->
      <g transform="translate(164.266111 527.238438) scale(0.1 -0.1)">
       <defs>
        <path id="DejaVuSans-32" d="M 1228 531 
L 3431 531 
L 3431 0 
L 469 0 
L 469 531 
Q 828 903 1448 1529 
Q 2069 2156 2228 2338 
Q 2531 2678 2651 2914 
Q 2772 3150 2772 3378 
Q 2772 3750 2511 3984 
Q 2250 4219 1831 4219 
Q 1534 4219 1204 4116 
Q 875 4013 500 3803 
L 500 4441 
Q 881 4594 1212 4672 
Q 1544 4750 1819 4750 
Q 2544 4750 2975 4387 
Q 3406 4025 3406 3419 
Q 3406 3131 3298 2873 
Q 3191 2616 2906 2266 
Q 2828 2175 2409 1742 
Q 1991 1309 1228 531 
z
" transform="scale(0.015625)"/>
        <path id="DejaVuSans-30" d="M 2034 4250 
Q 1547 4250 1301 3770 
Q 1056 3291 1056 2328 
Q 1056 1369 1301 889 
Q 1547 409 2034 409 
Q 2525 409 2770 889 
Q 3016 1369 3016 2328 
Q 3016 3291 2770 3770 
Q 2525 4250 2034 4250 
z
M 2034 4750 
Q 2819 4750 3233 4129 
Q 3647 3509 3647 2328 
Q 3647 1150 3233 529 
Q 2819 -91 2034 -91 
Q 1250 -91 836 529 
Q 422 1150 422 2328 
Q 422 3509 836 4129 
Q 1250 4750 2034 4750 
z
" transform="scale(0.015625)"/>
        <path id="DejaVuSans-31" d="M 794 531 
L 1825 531 
L 1825 4091 
L 703 3866 
L 703 4441 
L 1819 4666 
L 2450 4666 
L 2450 531 
L 3481 531 
L 3481 0 
L 794 0 
L 794 531 
z
" transform="scale(0.015625)"/>
        <path id="DejaVuSans-34" d="M 2419 4116 
L 825 1625 
L 2419 1625 
L 2419 4116 
z
M 2253 4666 
L 3047 4666 
L 3047 1625 
L 3713 1625 
L 3713 1100 
L 3047 1100 
L 3047 0 
L 2419 0 
L 2419 1100 
L 313 1100 
L 313 1709 
L 2253 4666 
z
" transform="scale(0.015625)"/>
       </defs>
       <use xlink:href="#DejaVuSans-32"/>
       <use xlink:href="#DejaVuSans-30" x="63.623047"/>
       <use xlink:href="#DejaVuSans-31" x="127.246094"/>
       <use xlink:href="#DejaVuSans-34" x="190.869141"/>
      </g>
     </g>
    </g>
    <g id="xtick_2">
     <g id="line2d_2">
      <g>
       <use xlink:href="#m371113aa84" x="315.521517" y="512.64" style="stroke: #000000; stroke-width: 0.8"/>
      </g>
     </g>
     <g id="text_2">
      <!-- 2016 -->
      <g transform="translate(302.796517 527.238438) scale(0.1 -0.1)">
       <defs>
        <path id="DejaVuSans-36" d="M 2113 2584 
Q 1688 2584 1439 2293 
Q 1191 2003 1191 1497 
Q 1191 994 1439 701 
Q 1688 409 2113 409 
Q 2538 409 2786 701 
Q 3034 994 3034 1497 
Q 3034 2003 2786 2293 
Q 2538 2584 2113 2584 
z
M 3366 4563 
L 3366 3988 
Q 3128 4100 2886 4159 
Q 2644 4219 2406 4219 
Q 1781 4219 1451 3797 
Q 1122 3375 1075 2522 
Q 1259 2794 1537 2939 
Q 1816 3084 2150 3084 
Q 2853 3084 3261 2657 
Q 3669 2231 3669 1497 
Q 3669 778 3244 343 
Q 2819 -91 2113 -91 
Q 1303 -91 875 529 
Q 447 1150 447 2328 
Q 447 3434 972 4092 
Q 1497 4750 2381 4750 
Q 2619 4750 2861 4703 
Q 3103 4656 3366 4563 
z
" transform="scale(0.015625)"/>
       </defs>
       <use xlink:href="#DejaVuSans-32"/>
       <use xlink:href="#DejaVuSans-30" x="63.623047"/>
       <use xlink:href="#DejaVuSans-31" x="127.246094"/>
       <use xlink:href="#DejaVuSans-36" x="190.869141"/>
      </g>
     </g>
    </g>
    <g id="xtick_3">
     <g id="line2d_3">
      <g>
       <use xlink:href="#m371113aa84" x="454.24169" y="512.64" style="stroke: #000000; stroke-width: 0.8"/>
      </g>
     </g>
     <g id="text_3">
      <!-- 2018 -->
      <g transform="translate(441.51669 527.238438) scale(0.1 -0.1)">
       <defs>
        <path id="DejaVuSans-38" d="M 2034 2216 
Q 1584 2216 1326 1975 
Q 1069 1734 1069 1313 
Q 1069 891 1326 650 
Q 1584 409 2034 409 
Q 2484 409 2743 651 
Q 3003 894 3003 1313 
Q 3003 1734 2745 1975 
Q 2488 2216 2034 2216 
z
M 1403 2484 
Q 997 2584 770 2862 
Q 544 3141 544 3541 
Q 544 4100 942 4425 
Q 1341 4750 2034 4750 
Q 2731 4750 3128 4425 
Q 3525 4100 3525 3541 
Q 3525 3141 3298 2862 
Q 3072 2584 2669 2484 
Q 3125 2378 3379 2068 
Q 3634 1759 3634 1313 
Q 3634 634 3220 271 
Q 2806 -91 2034 -91 
Q 1263 -91 848 271 
Q 434 634 434 1313 
Q 434 1759 690 2068 
Q 947 2378 1403 2484 
z
M 1172 3481 
Q 1172 3119 1398 2916 
Q 1625 2713 2034 2713 
Q 2441 2713 2670 2916 
Q 2900 3119 2900 3481 
Q 2900 3844 2670 4047 
Q 2441 4250 2034 4250 
Q 1625 4250 1398 4047 
Q 1172 3844 1172 3481 
z
" transform="scale(0.015625)"/>
       </defs>
       <use xlink:href="#DejaVuSans-32"/>
       <use xlink:href="#DejaVuSans-30" x="63.623047"/>
       <use xlink:href="#DejaVuSans-31" x="127.246094"/>
       <use xlink:href="#DejaVuSans-38" x="190.869141"/>
      </g>
     </g>
    </g>
    <g id="xtick_4">
     <g id="line2d_4">
      <g>
       <use xlink:href="#m371113aa84" x="592.772096" y="512.64" style="stroke: #000000; stroke-width: 0.8"/>
      </g>
     </g>
     <g id="text_4">
      <!-- 2020 -->
      <g transform="translate(580.047096 527.238438) scale(0.1 -0.1)">
       <use xlink:href="#DejaVuSans-32"/>
       <use xlink:href="#DejaVuSans-30" x="63.623047"/>
       <use xlink:href="#DejaVuSans-32" x="127.246094"/>
       <use xlink:href="#DejaVuSans-30" x="190.869141"/>
      </g>
     </g>
    </g>
    <g id="xtick_5">
     <g id="line2d_5">
      <g>
       <use xlink:href="#m371113aa84" x="731.492269" y="512.64" style="stroke: #000000; stroke-width: 0.8"/>
      </g>
     </g>
     <g id="text_5">
      <!-- 2022 -->
      <g transform="translate(718.767269 527.238438) scale(0.1 -0.1)">
       <use xlink:href="#DejaVuSans-32"/>
       <use xlink:href="#DejaVuSans-30" x="63.623047"/>
       <use xlink:href="#DejaVuSans-32" x="127.246094"/>
       <use xlink:href="#DejaVuSans-32" x="190.869141"/>
      </g>
     </g>
    </g>
    <g id="xtick_6">
     <g id="line2d_6">
      <g>
       <use xlink:href="#m371113aa84" x="870.022675" y="512.64" style="stroke: #000000; stroke-width: 0.8"/>
      </g>
     </g>
     <g id="text_6">
      <!-- 2024 -->
      <g transform="translate(857.297675 527.238438) scale(0.1 -0.1)">
       <use xlink:href="#DejaVuSans-32"/>
       <use xlink:href="#DejaVuSans-30" x="63.623047"/>
       <use xlink:href="#DejaVuSans-32" x="127.246094"/>
       <use xlink:href="#DejaVuSans-34" x="190.869141"/>
      </g>
     </g>
    </g>
    <g id="xtick_7">
     <g id="line2d_7">
      <g>
       <use xlink:href="#m371113aa84" x="1008.742849" y="512.64" style="stroke: #000000; stroke-width: 0.8"/>
      </g>
     </g>
     <g id="text_7">
      <!-- 2026 -->
      <g transform="translate(996.017849 527.238438) scale(0.1 -0.1)">
       <use xlink:href="#DejaVuSans-32"/>
       <use xlink:href="#DejaVuSans-30" x="63.623047"/>
       <use xlink:href="#DejaVuSans-32" x="127.246094"/>
       <use xlink:href="#DejaVuSans-36" x="190.869141"/>
      </g>
     </g>
    </g>
   </g>
   <g id="matplotlib.axis_2">
    <g id="ytick_1">
     <g id="line2d_8">
      <defs>
       <path id="ma1d9445f23" d="M 0 0 
L -3.5 0 
" style="stroke: #000000; stroke-width: 0.8"/>
      </defs>
      <g>
       <use xlink:href="#ma1d9445f23" x="144" y="492.512802" style="stroke: #000000; stroke-width: 0.8"/>
      </g>
     </g>
     <g id="text_8">
      <!-- 0 -->
      <g transform="translate(130.6375 496.312021) scale(0.1 -0.1)">
       <use xlink:href="#DejaVuSans-30"/>
      </g>
     </g>
    </g>
    <g id="ytick_2">
     <g id="line2d_9">
      <g>
       <use xlink:href="#ma1d9445f23" x="144" y="426.909157" style="stroke: #000000; stroke-width: 0.8"/>
      </g>
     </g>
     <g id="text_9">
      <!-- 2000 -->
      <g transform="translate(111.55 430.708376) scale(0.1 -0.1)">
       <use xlink:href="#DejaVuSans-32"/>
       <use xlink:href="#DejaVuSans-30" x="63.623047"/>
       <use xlink:href="#DejaVuSans-30" x="127.246094"/>
       <use xlink:href="#DejaVuSans-30" x="190.869141"/>
      </g>
     </g>
    </g>
    <g id="ytick_3">
     <g id="line2d_10">
      <g>
       <use xlink:href="#ma1d9445f23" x="144" y="361.305513" style="stroke: #000000; stroke-width: 0.8"/>
      </g>
     </g>
     <g id="text_10">
      <!-- 4000 -->
      <g transform="translate(111.55 365.104731) scale(0.1 -0.1)">
       <use xlink:href="#DejaVuSans-34"/>
       <use xlink:href="#DejaVuSans-30" x="63.623047"/>
       <use xlink:href="#DejaVuSans-30" x="127.246094"/>
       <use xlink:href="#DejaVuSans-30" x="190.869141"/>
      </g>
     </g>
    </g>
    <g id="ytick_4">
     <g id="line2d_11">
      <g>
       <use xlink:href="#ma1d9445f23" x="144" y="295.701868" style="stroke: #000000; stroke-width: 0.8"/>
      </g>
     </g>
     <g id="text_11">
      <!-- 6000 -->
      <g transform="translate(111.55 299.501087) scale(0.1 -0.1)">
       <use xlink:href="#DejaVuSans-36"/>
       <use xlink:href="#DejaVuSans-30" x="63.623047"/>
       <use xlink:href="#DejaVuSans-30" x="127.246094"/>
       <use xlink:href="#DejaVuSans-30" x="190.869141"/>
      </g>
     </g>
    </g>
    <g id="ytick_5">
     <g id="line2d_12">
      <g>
       <use xlink:href="#ma1d9445f23" x="144" y="230.098223" style="stroke: #000000; stroke-width: 0.8"/>
      </g>
     </g>
     <g id="text_12">
      <!-- 8000 -->
      <g transform="translate(111.55 233.897442) scale(0.1 -0.1)">
       <use xlink:href="#DejaVuSans-38"/>
       <use xlink:href="#DejaVuSans-30" x="63.623047"/>
       <use xlink:href="#DejaVuSans-30" x="127.246094"/>
       <use xlink:href="#DejaVuSans-30" x="190.869141"/>
      </g>
     </g>
    </g>
    <g id="ytick_6">
     <g id="line2d_13">
      <g>
       <use xlink:href="#ma1d9445f23" x="144" y="164.494579" style="stroke: #000000; stroke-width: 0.8"/>
      </g>
     </g>
     <g id="text_13">
      <!-- 10000 -->
      <g transform="translate(105.1875 168.293797) scale(0.1 -0.1)">
       <use xlink:href="#DejaVuSans-31"/>
       <use xlink:href="#DejaVuSans-30" x="63.623047"/>
       <use xlink:href="#DejaVuSans-30" x="127.246094"/>
       <use xlink:href="#DejaVuSans-30" x="190.869141"/>
       <use xlink:href="#DejaVuSans-30" x="254.492188"/>
      </g>
     </g>
    </g>
    <g id="ytick_7">
     <g id="line2d_14">
      <g>
       <use xlink:href="#ma1d9445f23" x="144" y="98.890934" style="stroke: #000000; stroke-width: 0.8"/>
      </g>
     </g>
     <g id="text_14">
      <!-- 12000 -->
      <g transform="translate(105.1875 102.690153) scale(0.1 -0.1)">
       <use xlink:href="#DejaVuSans-31"/>
       <use xlink:href="#DejaVuSans-32" x="63.623047"/>
       <use xlink:href="#DejaVuSans-30" x="127.246094"/>
       <use xlink:href="#DejaVuSans-30" x="190.869141"/>
       <use xlink:href="#DejaVuSans-30" x="254.492188"/>
      </g>
     </g>
    </g>
   </g>
   <g id="line2d_15">
    <path d="M 184.581818 492.48 
L 186.289727 492.414396 
L 288.574506 492.250387 
L 443.804468 492.086378 
L 495.421277 491.889567 
L 508.894782 491.791162 
L 541.155287 491.627153 
L 542.673429 491.561549 
L 551.402742 491.463144 
L 592.961864 491.266333 
L 599.034429 491.200729 
L 599.413965 490.938314 
L 603.399086 490.774305 
L 636.798198 490.643098 
L 640.593551 490.544692 
L 663.745208 490.347882 
L 677.788016 490.118269 
L 680.824299 490.019863 
L 690.122915 489.823052 
L 693.538734 489.659043 
L 694.487572 489.59344 
L 695.815946 489.429431 
L 704.924794 489.199818 
L 707.202007 489.134214 
L 713.46434 488.70779 
L 723.332259 488.478178 
L 728.645754 486.936492 
L 729.78436 486.870888 
L 730.543431 486.346059 
L 730.733199 485.558815 
L 731.112734 485.362005 
L 731.302502 485.329203 
L 731.492269 484.279544 
L 732.630876 483.820319 
L 733.010411 483.262688 
L 733.389946 483.033075 
L 733.579714 482.541048 
L 733.769482 481.622597 
L 734.149017 480.835353 
L 734.338785 479.818497 
L 734.528552 477.915991 
L 735.097855 476.505513 
L 735.287623 472.175672 
L 735.477391 470.437175 
L 735.667158 469.781139 
L 736.046694 465.418497 
L 736.236461 464.76246 
L 736.426229 463.122369 
L 736.615997 463.023964 
L 737.1853 460.859043 
L 737.375067 456.201185 
L 737.564835 455.774761 
L 737.944371 454.331481 
L 738.134138 454.233075 
L 738.323906 453.445831 
L 738.513674 450.100046 
L 738.703441 449.28 
L 738.893209 449.214396 
L 739.082977 446.787062 
L 739.272744 446.327836 
L 739.65228 446.163827 
L 740.41135 443.670888 
L 740.790886 443.014852 
L 741.170421 441.112346 
L 741.360189 440.390706 
L 741.739724 435.24082 
L 742.309027 432.71508 
L 743.068098 432.321458 
L 743.827169 430.976583 
L 744.206704 430.910979 
L 744.586239 428.090023 
L 744.776007 428.057221 
L 745.155542 427.597995 
L 745.34531 426.351526 
L 745.724845 425.859499 
L 745.914613 425.564282 
L 746.104381 425.006651 
L 746.673684 424.777039 
L 746.863451 424.547426 
L 747.432754 422.513713 
L 747.622522 422.382506 
L 748.002058 421.857677 
L 748.761128 421.496856 
L 748.950896 420.184784 
L 749.140664 420.086378 
L 749.330431 419.856765 
L 749.520199 417.331025 
L 749.899734 417.265421 
L 750.27927 416.576583 
L 750.469037 415.920547 
L 751.03834 415.789339 
L 751.607643 414.772483 
L 751.797411 414.739681 
L 752.176946 414.214852 
L 752.556482 414.083645 
L 752.746249 411.098679 
L 753.884856 410.836264 
L 754.264391 410.57385 
L 755.023462 410.475444 
L 755.213229 410.311435 
L 757.490441 409.655399 
L 758.249512 409.130569 
L 759.198351 408.999362 
L 759.957421 408.60574 
L 761.855098 408.113713 
L 762.614169 405.35836 
L 763.563007 405.227153 
L 763.752775 405.161549 
L 765.270916 404.99754 
L 765.840219 404.800729 
L 766.029987 404.2759 
L 767.168593 404.111891 
L 768.686735 403.587062 
L 769.06627 403.226241 
L 769.445805 403.127836 
L 769.635573 402.898223 
L 770.394644 402.635809 
L 771.343482 402.537403 
L 771.53325 402.30779 
L 771.912785 402.274989 
L 772.102553 401.750159 
L 772.29232 401.684556 
L 772.482088 400.962916 
L 774.7593 400.470888 
L 775.328603 400.339681 
L 775.518371 399.946059 
L 776.846745 399.618041 
L 777.416048 399.42123 
L 778.175118 399.257221 
L 778.934189 399.06041 
L 779.883028 398.863599 
L 780.452331 398.69959 
L 781.780704 397.945148 
L 781.970472 397.289112 
L 782.91931 396.53467 
L 783.109078 396.239453 
L 784.057917 395.45221 
L 784.437452 394.763371 
L 784.62722 394.730569 
L 785.006755 393.877722 
L 785.765826 393.024875 
L 786.335129 392.926469 
L 786.524896 392.631253 
L 786.904432 392.467244 
L 787.094199 392.139226 
L 788.043038 391.909613 
L 788.232805 391.614396 
L 789.561179 391.31918 
L 789.940715 391.155171 
L 790.130482 391.122369 
L 790.32025 390.95836 
L 791.269088 390.827153 
L 792.597462 390.23672 
L 793.166765 390.138314 
L 793.546301 389.416674 
L 793.925836 389.187062 
L 794.874674 388.465421 
L 795.064442 387.710979 
L 795.823513 387.481367 
L 796.962119 387.120547 
L 797.341654 386.595718 
L 798.290492 386.10369 
L 798.48026 385.775672 
L 799.049563 385.578861 
L 799.429099 385.316446 
L 799.998402 385.086834 
L 800.377937 381.478633 
L 800.567705 380.297768 
L 800.757472 378.264055 
L 800.94724 378.034442 
L 801.706311 375.508702 
L 802.085846 374.852665 
L 802.275614 374.787062 
L 802.655149 374.360638 
L 802.844917 372.884556 
L 803.034684 372.523736 
L 803.41422 372.392528 
L 804.552826 370.26041 
L 804.742594 370.096401 
L 804.932361 369.210752 
L 805.8812 367.603462 
L 806.450503 367.308246 
L 806.830038 367.01303 
L 807.019806 365.963371 
L 807.399341 365.799362 
L 807.778876 365.438542 
L 808.348179 364.6841 
L 808.537947 363.995262 
L 808.727715 363.96246 
L 809.297018 363.339226 
L 809.676553 363.306424 
L 809.866321 362.978405 
L 810.245856 362.781595 
L 811.004927 361.961549 
L 811.194695 361.863144 
L 811.384462 361.305513 
L 812.902604 359.927836 
L 813.282139 358.648565 
L 814.420745 358.090934 
L 814.800281 357.434897 
L 814.990048 357.30369 
L 815.938887 355.893212 
L 816.318422 355.696401 
L 817.077493 355.565194 
L 817.646796 354.581139 
L 818.405866 354.384328 
L 819.164937 353.531481 
L 819.544473 353.465877 
L 819.924008 353.072255 
L 820.493311 352.842642 
L 820.872846 352.809841 
L 821.062614 352.61303 
L 821.252382 352.022597 
L 822.011452 351.792984 
L 822.20122 351.464966 
L 822.390988 351.432164 
L 822.580755 350.841731 
L 823.150058 350.612118 
L 823.719361 350.480911 
L 824.098897 350.152893 
L 825.047735 349.726469 
L 825.427271 349.431253 
L 825.806806 349.20164 
L 826.186341 349.168838 
L 826.376109 348.283189 
L 826.755644 347.987973 
L 827.13518 347.889567 
L 827.89425 347.430342 
L 828.653321 347.299134 
L 828.843089 346.380683 
L 830.171463 345.757449 
L 830.36123 345.724647 
L 830.550998 345.560638 
L 830.930533 345.495034 
L 831.120301 345.199818 
L 831.879372 344.904601 
L 832.069139 344.543781 
L 832.448675 344.510979 
L 832.82821 344.281367 
L 833.397513 343.98615 
L 833.587281 343.592528 
L 834.346352 343.362916 
L 834.536119 343.100501 
L 835.105422 342.805285 
L 835.674725 342.54287 
L 835.864493 342.247654 
L 836.054261 342.214852 
L 836.433796 341.952437 
L 836.813331 341.788428 
L 837.003099 341.591617 
L 838.141705 341.263599 
L 838.331473 340.902779 
L 838.52124 340.804374 
L 839.470079 340.607563 
L 839.849614 340.312346 
L 840.22915 340.181139 
L 840.798453 340.01713 
L 840.98822 339.754715 
L 841.367756 339.689112 
L 841.557523 339.131481 
L 841.747291 339.033075 
L 842.126826 338.606651 
L 842.316594 337.917813 
L 842.696129 337.6882 
L 843.834735 336.802551 
L 844.214271 336.441731 
L 844.593806 336.310524 
L 844.783574 335.949704 
L 844.973342 335.8841 
L 845.352877 335.490478 
L 845.732412 335.260866 
L 846.301715 335.096856 
L 846.681251 334.670433 
L 848.768695 332.964738 
L 849.717534 332.735125 
L 850.85614 331.587062 
L 851.235675 331.423052 
L 852.753816 330.83262 
L 853.512887 330.373394 
L 854.271958 330.045376 
L 854.841261 329.782961 
L 855.790099 329.389339 
L 856.54917 329.192528 
L 857.118473 328.798907 
L 857.308241 328.766105 
L 857.498008 328.438087 
L 858.826382 327.913257 
L 859.775221 327.388428 
L 860.913827 326.896401 
L 861.103594 326.469977 
L 861.293362 325.026697 
L 861.672897 324.665877 
L 861.862665 324.633075 
L 863.191039 322.632164 
L 863.570574 322.008929 
L 865.088716 321.12328 
L 865.468251 320.795262 
L 866.037554 320.598451 
L 866.417089 320.204829 
L 866.986392 319.745604 
L 867.365928 319.614396 
L 867.555695 319.253576 
L 868.124998 318.892756 
L 868.884069 318.335125 
L 869.263604 318.302323 
L 869.453372 318.007107 
L 870.022675 317.8759 
L 870.402211 316.531025 
L 870.781746 316.203007 
L 871.540817 315.940592 
L 871.920352 315.678178 
L 872.11012 315.218952 
L 872.489655 315.087745 
L 872.679423 314.628519 
L 872.86919 314.530114 
L 873.248726 314.136492 
L 873.438493 313.939681 
L 874.007796 313.775672 
L 874.387332 313.480456 
L 874.577099 313.447654 
L 874.766867 313.250843 
L 874.956635 313.218041 
L 875.715706 312.758815 
L 876.095241 311.93877 
L 876.285009 311.840364 
L 876.664544 311.774761 
L 876.854312 311.413941 
L 877.233847 311.249932 
L 877.613382 311.053121 
L 877.80315 310.462688 
L 878.562221 310.036264 
L 878.751988 309.445831 
L 879.511059 308.822597 
L 879.700827 308.789795 
L 880.080362 308.297768 
L 880.459898 308.002551 
L 880.649665 307.936948 
L 880.839433 307.608929 
L 881.218968 307.477722 
L 881.408736 306.854487 
L 881.788271 306.756082 
L 881.978039 306.460866 
L 882.167807 306.395262 
L 882.357574 305.739226 
L 882.926877 305.542415 
L 883.116645 305.444009 
L 883.49618 304.91918 
L 883.685948 304.787973 
L 884.445019 303.738314 
L 884.634786 303.672711 
L 885.20409 303.147882 
L 885.583625 302.951071 
L 885.96316 302.721458 
L 886.532463 302.360638 
L 886.911999 301.86861 
L 887.101766 301.803007 
L 888.240372 300.851754 
L 888.43014 300.78615 
L 888.809675 300.392528 
L 889.189211 300.294123 
L 889.378978 299.572483 
L 889.948282 299.080456 
L 890.138049 298.424419 
L 890.517585 298.063599 
L 890.707352 297.768383 
L 890.89712 297.735581 
L 891.845958 296.882733 
L 892.035726 296.81713 
L 892.225494 296.620319 
L 892.415261 296.587517 
L 892.794797 296.292301 
L 893.933403 295.767472 
L 894.692473 294.717813 
L 895.451544 294.258588 
L 895.641312 294.028975 
L 895.83108 293.996173 
L 896.020847 293.635353 
L 896.779918 293.176128 
L 897.349221 292.749704 
L 898.108292 292.388884 
L 898.677595 291.929658 
L 899.626433 291.503235 
L 899.816201 291.470433 
L 901.334342 290.289567 
L 901.713878 290.125558 
L 902.093413 289.994351 
L 902.472948 289.600729 
L 902.852484 289.469522 
L 903.232019 289.338314 
L 903.611554 288.879089 
L 904.370625 288.583872 
L 904.560393 287.10779 
L 905.509231 286.451754 
L 906.268302 285.139681 
L 906.45807 285.041276 
L 906.647837 284.614852 
L 907.027373 284.483645 
L 907.786443 283.368383 
L 908.165979 281.859499 
L 908.355746 281.400273 
L 908.735282 279.00574 
L 908.925049 278.021686 
L 909.873888 276.84082 
L 910.632959 273.921458 
L 910.822726 273.757449 
L 911.012494 273.331025 
L 911.202262 271.756538 
L 911.392029 271.198907 
L 911.581797 271.166105 
L 911.771565 270.444465 
L 912.340868 270.018041 
L 912.720403 268.837175 
L 913.669241 268.345148 
L 914.048777 267.951526 
L 915.187383 267.164282 
L 915.377151 266.803462 
L 915.566918 265.950615 
L 915.756686 265.655399 
L 916.136221 265.524191 
L 917.274827 264.868155 
L 918.033898 264.638542 
L 918.413433 264.441731 
L 918.603201 264.310524 
L 918.982736 264.277722 
L 921.449716 262.112802 
L 921.829252 262.014396 
L 922.208787 261.784784 
L 922.398555 261.686378 
L 922.588322 260.899134 
L 923.157625 260.439909 
L 923.537161 260.341503 
L 924.675767 259.455854 
L 925.055302 259.291845 
L 925.24507 259.226241 
L 925.624605 258.83262 
L 926.004141 258.767016 
L 926.193908 258.30779 
L 926.383676 258.143781 
L 926.573444 257.618952 
L 926.952979 257.422141 
L 927.522282 256.241276 
L 927.71205 255.585239 
L 928.281353 255.191617 
L 928.850656 254.469977 
L 929.230191 253.190706 
L 929.419959 252.862688 
L 929.609726 252.17385 
L 929.799494 252.108246 
L 929.989262 251.550615 
L 930.368797 251.321002 
L 931.507403 250.20574 
L 931.697171 249.746515 
L 932.266474 249.4841 
L 932.456242 249.024875 
L 933.594848 248.565649 
L 933.784615 247.876811 
L 934.164151 247.647198 
L 934.353918 247.253576 
L 934.543686 247.122369 
L 934.923221 247.089567 
L 936.061828 246.23672 
L 936.631131 245.810296 
L 937.010666 245.383872 
L 937.390201 245.088656 
L 937.579969 244.760638 
L 937.769737 244.038998 
L 938.908343 243.448565 
L 939.287878 242.694123 
L 939.667413 242.562916 
L 939.857181 242.10369 
L 940.046949 242.038087 
L 940.80602 241.250843 
L 941.754858 240.66041 
L 943.272999 239.249932 
L 943.652535 238.49549 
L 943.842302 237.741048 
L 944.221838 237.150615 
L 944.411605 236.756993 
L 945.360444 232.066333 
L 945.739979 231.377494 
L 945.929747 229.638998 
L 946.119515 226.227608 
L 947.447888 216.419863 
L 947.827424 211.958815 
L 948.206959 211.269977 
L 948.586494 205.464055 
L 948.776262 203.922369 
L 949.155797 197.427608 
L 949.535333 196.213941 
L 949.7251 192.900957 
L 949.914868 192.310524 
L 950.294403 188.63672 
L 950.673939 178.828975 
L 950.863707 178.304146 
L 951.053474 177.385695 
L 951.243242 174.302323 
L 951.43301 174.039909 
L 951.812545 169.086834 
L 952.002313 168.988428 
L 952.19208 168.66041 
L 952.571616 167.512346 
L 952.761383 167.282733 
L 952.951151 166.725103 
L 953.140919 165.675444 
L 953.520454 165.478633 
L 953.710222 164.953804 
L 954.089757 163.313713 
L 954.469292 160.328747 
L 954.65906 159.803918 
L 954.848828 159.738314 
L 955.038595 159.443098 
L 955.987434 156.654943 
L 956.177202 156.556538 
L 956.366969 155.900501 
L 956.746505 155.572483 
L 956.936272 155.441276 
L 957.12604 154.949248 
L 957.315808 154.785239 
L 957.885111 153.997995 
L 958.454414 153.17795 
L 958.833949 153.046743 
L 959.782787 151.865877 
L 960.162323 151.701868 
L 960.731626 151.636264 
L 961.111161 151.144237 
L 961.490697 151.045831 
L 962.249767 150.389795 
L 962.439535 150.225786 
L 963.008838 149.864966 
L 963.578141 149.143326 
L 963.767909 148.651298 
L 964.526979 148.454487 
L 964.906515 148.126469 
L 965.28605 147.503235 
L 965.855353 146.978405 
L 966.234889 145.666333 
L 966.424656 145.43672 
L 967.183727 145.141503 
L 968.322333 144.091845 
L 968.891636 143.698223 
L 969.081404 142.910979 
L 969.840474 142.287745 
L 970.030242 141.926925 
L 970.409777 141.697312 
L 970.789313 141.434897 
L 971.927919 140.58205 
L 972.68699 140.188428 
L 972.876757 140.090023 
L 973.256293 138.974761 
L 973.44606 138.876355 
L 973.825596 138.318724 
L 974.394899 137.531481 
L 974.774434 137.367472 
L 975.343737 136.383417 
L 975.533505 135.661777 
L 975.723272 135.399362 
L 976.102808 135.268155 
L 976.292576 134.874533 
L 978.000485 133.595262 
L 978.38002 132.906424 
L 978.569788 132.808018 
L 978.759555 128.838998 
L 979.139091 128.215763 
L 979.518626 127.690934 
L 979.708394 127.26451 
L 979.898161 127.231708 
L 980.277697 126.772483 
L 980.467464 126.083645 
L 981.606071 124.673166 
L 981.795838 124.279544 
L 982.175374 122.049021 
L 982.365141 121.425786 
L 982.554909 120.343326 
L 982.744677 120.048109 
L 982.934444 118.473622 
L 983.31398 117.292756 
L 983.503747 116.407107 
L 984.262818 115.390251 
L 985.021889 113.848565 
L 985.591192 113.553349 
L 986.160495 112.897312 
L 986.54003 112.208474 
L 986.729798 111.749248 
L 986.919566 111.683645 
L 988.247939 109.551526 
L 988.437707 108.370661 
L 988.627475 108.206651 
L 989.00701 107.681822 
L 989.196778 107.649021 
L 989.766081 107.09139 
L 990.335384 106.041731 
L 990.714919 105.221686 
L 991.094454 104.696856 
L 991.284222 103.548793 
L 991.663758 102.531936 
L 992.233061 100.924647 
L 992.422828 100.79344 
L 992.612596 99.973394 
L 992.802364 99.710979 
L 993.751202 96.627608 
L 994.130737 96.037175 
L 994.70004 94.626697 
L 995.079576 92.724191 
L 996.028414 90.231253 
L 996.218182 89.28 
L 996.218182 89.28 
" clip-path="url(#pb0d9a99d87)" style="fill: none; stroke: #1f77b4; stroke-width: 1.5; stroke-linecap: square"/>
   </g>
   <g id="patch_3">
    <path d="M 144 512.64 
L 144 69.12 
" style="fill: none; stroke: #000000; stroke-width: 0.8; stroke-linejoin: miter; stroke-linecap: square"/>
   </g>
   <g id="patch_4">
    <path d="M 1036.8 512.64 
L 1036.8 69.12 
" style="fill: none; stroke: #000000; stroke-width: 0.8; stroke-linejoin: miter; stroke-linecap: square"/>
   </g>
   <g id="patch_5">
    <path d="M 144 512.64 
L 1036.8 512.64 
" style="fill: none; stroke: #000000; stroke-width: 0.8; stroke-linejoin: miter; stroke-linecap: square"/>
   </g>
   <g id="patch_6">
    <path d="M 144 69.12 
L 1036.8 69.12 
" style="fill: none; stroke: #000000; stroke-width: 0.8; stroke-linejoin: miter; stroke-linecap: square"/>
   </g>
   <g id="text_15">
    <!-- Number of AEDs in the OpenStreetMap database in Poland from first edition, day by day. As at: 2025-10-27 -->
    <g transform="translate(144 63.12) scale(0.14 -0.14)">
     <defs>
      <path id="DejaVuSans-4e" d="M 628 4666 
L 1478 4666 
L 3547 763 
L 3547 4666 
L 4159 4666 
L 4159 0 
L 3309 0 
L 1241 3903 
L 1241 0 
L 628 0 
L 628 4666 
z
" transform="scale(0.015625)"/>
      <path id="DejaVuSans-75" d="M 544 1381 
L 544 3500 
L 1119 3500 
L 1119 1403 
Q 1119 906 1312 657 
Q 1506 409 1894 409 
Q 2359 409 2629 706 
Q 2900 1003 2900 1516 
L 2900 3500 
L 3475 3500 
L 3475 0 
L 2900 0 
L 2900 538 
Q 2691 219 2414 64 
Q 2138 -91 1772 -91 
Q 1169 -91 856 284 
Q 544 659 544 1381 
z
M 1991 3584 
L 1991 3584 
z
" transform="scale(0.015625)"/>
      <path id="DejaVuSans-6d" d="M 3328 2828 
Q 3544 3216 3844 3400 
Q 4144 3584 4550 3584 
Q 5097 3584 5394 3201 
Q 5691 2819 5691 2113 
L 5691 0 
L 5113 0 
L 5113 2094 
Q 5113 2597 4934 2840 
Q 4756 3084 4391 3084 
Q 3944 3084 3684 2787 
Q 3425 2491 3425 1978 
L 3425 0 
L 2847 0 
L 2847 2094 
Q 2847 2600 2669 2842 
Q 2491 3084 2119 3084 
Q 1678 3084 1418 2786 
Q 1159 2488 1159 1978 
L 1159 0 
L 581 0 
L 581 3500 
L 1159 3500 
L 1159 2956 
Q 1356 3278 1631 3431 
Q 1906 3584 2284 3584 
Q 2666 3584 2933 3390 
Q 3200 3197 3328 2828 
z
" transform="scale(0.015625)"/>
      <path id="DejaVuSans-62" d="M 3116 1747 
Q 3116 2381 2855 2742 
Q 2594 3103 2138 3103 
Q 1681 3103 1420 2742 
Q 1159 2381 1159 1747 
Q 1159 1113 1420 752 
Q 1681 391 2138 391 
Q 2594 391 2855 752 
Q 3116 1113 3116 1747 
z
M 1159 2969 
Q 1341 3281 1617 3432 
Q 1894 3584 2278 3584 
Q 2916 3584 3314 3078 
Q 3713 2572 3713 1747 
Q 3713 922 3314 415 
Q 2916 -91 2278 -91 
Q 1894 -91 1617 61 
Q 1341 213 1159 525 
L 1159 0 
L 581 0 
L 581 4863 
L 1159 4863 
L 1159 2969 
z
" transform="scale(0.015625)"/>
      <path id="DejaVuSans-65" d="M 3597 1894 
L 3597 1613 
L 953 1613 
Q 991 1019 1311 708 
Q 1631 397 2203 397 
Q 2534 397 2845 478 
Q 3156 559 3463 722 
L 3463 178 
Q 3153 47 2828 -22 
Q 2503 -91 2169 -91 
Q 1331 -91 842 396 
Q 353 884 353 1716 
Q 353 2575 817 3079 
Q 1281 3584 2069 3584 
Q 2775 3584 3186 3129 
Q 3597 2675 3597 1894 
z
M 3022 2063 
Q 3016 2534 2758 2815 
Q 2500 3097 2075 3097 
Q 1594 3097 1305 2825 
Q 1016 2553 972 2059 
L 3022 2063 
z
" transform="scale(0.015625)"/>
      <path id="DejaVuSans-72" d="M 2631 2963 
Q 2534 3019 2420 3045 
Q 2306 3072 2169 3072 
Q 1681 3072 1420 2755 
Q 1159 2438 1159 1844 
L 1159 0 
L 581 0 
L 581 3500 
L 1159 3500 
L 1159 2956 
Q 1341 3275 1631 3429 
Q 1922 3584 2338 3584 
Q 2397 3584 2469 3576 
Q 2541 3569 2628 3553 
L 2631 2963 
z
" transform="scale(0.015625)"/>
      <path id="DejaVuSans-20" transform="scale(0.015625)"/>
      <path id="DejaVuSans-6f" d="M 1959 3097 
Q 1497 3097 1228 2736 
Q 959 2375 959 1747 
Q 959 1119 1226 758 
Q 1494 397 1959 397 
Q 2419 397 2687 759 
Q 2956 1122 2956 1747 
Q 2956 2369 2687 2733 
Q 2419 3097 1959 3097 
z
M 1959 3584 
Q 2709 3584 3137 3096 
Q 3566 2609 3566 1747 
Q 3566 888 3137 398 
Q 2709 -91 1959 -91 
Q 1206 -91 779 398 
Q 353 888 353 1747 
Q 353 2609 779 3096 
Q 1206 3584 1959 3584 
z
" transform="scale(0.015625)"/>
      <path id="DejaVuSans-66" d="M 2375 4863 
L 2375 4384 
L 1825 4384 
Q 1516 4384 1395 4259 
Q 1275 4134 1275 3809 
L 1275 3500 
L 2222 3500 
L 2222 3053 
L 1275 3053 
L 1275 0 
L 697 0 
L 697 3053 
L 147 3053 
L 147 3500 
L 697 3500 
L 697 3744 
Q 697 4328 969 4595 
Q 1241 4863 1831 4863 
L 2375 4863 
z
" transform="scale(0.015625)"/>
      <path id="DejaVuSans-41" d="M 2188 4044 
L 1331 1722 
L 3047 1722 
L 2188 4044 
z
M 1831 4666 
L 2547 4666 
L 4325 0 
L 3669 0 
L 3244 1197 
L 1141 1197 
L 716 0 
L 50 0 
L 1831 4666 
z
" transform="scale(0.015625)"/>
      <path id="DejaVuSans-45" d="M 628 4666 
L 3578 4666 
L 3578 4134 
L 1259 4134 
L 1259 2753 
L 3481 2753 
L 3481 2222 
L 1259 2222 
L 1259 531 
L 3634 531 
L 3634 0 
L 628 0 
L 628 4666 
z
" transform="scale(0.015625)"/>
      <path id="DejaVuSans-44" d="M 1259 4147 
L 1259 519 
L 2022 519 
Q 2988 519 3436 956 
Q 3884 1394 3884 2338 
Q 3884 3275 3436 3711 
Q 2988 4147 2022 4147 
L 1259 4147 
z
M 628 4666 
L 1925 4666 
Q 3281 4666 3915 4102 
Q 4550 3538 4550 2338 
Q 4550 1131 3912 565 
Q 3275 0 1925 0 
L 628 0 
L 628 4666 
z
" transform="scale(0.015625)"/>
      <path id="DejaVuSans-73" d="M 2834 3397 
L 2834 2853 
Q 2591 2978 2328 3040 
Q 2066 3103 1784 3103 
Q 1356 3103 1142 2972 
Q 928 2841 928 2578 
Q 928 2378 1081 2264 
Q 1234 2150 1697 2047 
L 1894 2003 
Q 2506 1872 2764 1633 
Q 3022 1394 3022 966 
Q 3022 478 2636 193 
Q 2250 -91 1575 -91 
Q 1294 -91 989 -36 
Q 684 19 347 128 
L 347 722 
Q 666 556 975 473 
Q 1284 391 1588 391 
Q 1994 391 2212 530 
Q 2431 669 2431 922 
Q 2431 1156 2273 1281 
Q 2116 1406 1581 1522 
L 1381 1569 
Q 847 1681 609 1914 
Q 372 2147 372 2553 
Q 372 3047 722 3315 
Q 1072 3584 1716 3584 
Q 2034 3584 2315 3537 
Q 2597 3491 2834 3397 
z
" transform="scale(0.015625)"/>
      <path id="DejaVuSans-69" d="M 603 3500 
L 1178 3500 
L 1178 0 
L 603 0 
L 603 3500 
z
M 603 4863 
L 1178 4863 
L 1178 4134 
L 603 4134 
L 603 4863 
z
" transform="scale(0.015625)"/>
      <path id="DejaVuSans-6e" d="M 3513 2113 
L 3513 0 
L 2938 0 
L 2938 2094 
Q 2938 2591 2744 2837 
Q 2550 3084 2163 3084 
Q 1697 3084 1428 2787 
Q 1159 2491 1159 1978 
L 1159 0 
L 581 0 
L 581 3500 
L 1159 3500 
L 1159 2956 
Q 1366 3272 1645 3428 
Q 1925 3584 2291 3584 
Q 2894 3584 3203 3211 
Q 3513 2838 3513 2113 
z
" transform="scale(0.015625)"/>
      <path id="DejaVuSans-74" d="M 1172 4494 
L 1172 3500 
L 2356 3500 
L 2356 3053 
L 1172 3053 
L 1172 1153 
Q 1172 725 1289 603 
Q 1406 481 1766 481 
L 2356 481 
L 2356 0 
L 1766 0 
Q 1100 0 847 248 
Q 594 497 594 1153 
L 594 3053 
L 172 3053 
L 172 3500 
L 594 3500 
L 594 4494 
L 1172 4494 
z
" transform="scale(0.015625)"/>
      <path id="DejaVuSans-68" d="M 3513 2113 
L 3513 0 
L 2938 0 
L 2938 2094 
Q 2938 2591 2744 2837 
Q 2550 3084 2163 3084 
Q 1697 3084 1428 2787 
Q 1159 2491 1159 1978 
L 1159 0 
L 581 0 
L 581 4863 
L 1159 4863 
L 1159 2956 
Q 1366 3272 1645 3428 
Q 1925 3584 2291 3584 
Q 2894 3584 3203 3211 
Q 3513 2838 3513 2113 
z
" transform="scale(0.015625)"/>
      <path id="DejaVuSans-4f" d="M 2522 4238 
Q 1834 4238 1429 3725 
Q 1025 3213 1025 2328 
Q 1025 1447 1429 934 
Q 1834 422 2522 422 
Q 3209 422 3611 934 
Q 4013 1447 4013 2328 
Q 4013 3213 3611 3725 
Q 3209 4238 2522 4238 
z
M 2522 4750 
Q 3503 4750 4090 4092 
Q 4678 3434 4678 2328 
Q 4678 1225 4090 567 
Q 3503 -91 2522 -91 
Q 1538 -91 948 565 
Q 359 1222 359 2328 
Q 359 3434 948 4092 
Q 1538 4750 2522 4750 
z
" transform="scale(0.015625)"/>
      <path id="DejaVuSans-70" d="M 1159 525 
L 1159 -1331 
L 581 -1331 
L 581 3500 
L 1159 3500 
L 1159 2969 
Q 1341 3281 1617 3432 
Q 1894 3584 2278 3584 
Q 2916 3584 3314 3078 
Q 3713 2572 3713 1747 
Q 3713 922 3314 415 
Q 2916 -91 2278 -91 
Q 1894 -91 1617 61 
Q 1341 213 1159 525 
z
M 3116 1747 
Q 3116 2381 2855 2742 
Q 2594 3103 2138 3103 
Q 1681 3103 1420 2742 
Q 1159 2381 1159 1747 
Q 1159 1113 1420 752 
Q 1681 391 2138 391 
Q 2594 391 2855 752 
Q 3116 1113 3116 1747 
z
" transform="scale(0.015625)"/>
      <path id="DejaVuSans-53" d="M 3425 4513 
L 3425 3897 
Q 3066 4069 2747 4153 
Q 2428 4238 2131 4238 
Q 1616 4238 1336 4038 
Q 1056 3838 1056 3469 
Q 1056 3159 1242 3001 
Q 1428 2844 1947 2747 
L 2328 2669 
Q 3034 2534 3370 2195 
Q 3706 1856 3706 1288 
Q 3706 609 3251 259 
Q 2797 -91 1919 -91 
Q 1588 -91 1214 -16 
Q 841 59 441 206 
L 441 856 
Q 825 641 1194 531 
Q 1563 422 1919 422 
Q 2459 422 2753 634 
Q 3047 847 3047 1241 
Q 3047 1584 2836 1778 
Q 2625 1972 2144 2069 
L 1759 2144 
Q 1053 2284 737 2584 
Q 422 2884 422 3419 
Q 422 4038 858 4394 
Q 1294 4750 2059 4750 
Q 2388 4750 2728 4690 
Q 3069 4631 3425 4513 
z
" transform="scale(0.015625)"/>
      <path id="DejaVuSans-4d" d="M 628 4666 
L 1569 4666 
L 2759 1491 
L 3956 4666 
L 4897 4666 
L 4897 0 
L 4281 0 
L 4281 4097 
L 3078 897 
L 2444 897 
L 1241 4097 
L 1241 0 
L 628 0 
L 628 4666 
z
" transform="scale(0.015625)"/>
      <path id="DejaVuSans-61" d="M 2194 1759 
Q 1497 1759 1228 1600 
Q 959 1441 959 1056 
Q 959 750 1161 570 
Q 1363 391 1709 391 
Q 2188 391 2477 730 
Q 2766 1069 2766 1631 
L 2766 1759 
L 2194 1759 
z
M 3341 1997 
L 3341 0 
L 2766 0 
L 2766 531 
Q 2569 213 2275 61 
Q 1981 -91 1556 -91 
Q 1019 -91 701 211 
Q 384 513 384 1019 
Q 384 1609 779 1909 
Q 1175 2209 1959 2209 
L 2766 2209 
L 2766 2266 
Q 2766 2663 2505 2880 
Q 2244 3097 1772 3097 
Q 1472 3097 1187 3025 
Q 903 2953 641 2809 
L 641 3341 
Q 956 3463 1253 3523 
Q 1550 3584 1831 3584 
Q 2591 3584 2966 3190 
Q 3341 2797 3341 1997 
z
" transform="scale(0.015625)"/>
      <path id="DejaVuSans-64" d="M 2906 2969 
L 2906 4863 
L 3481 4863 
L 3481 0 
L 2906 0 
L 2906 525 
Q 2725 213 2448 61 
Q 2172 -91 1784 -91 
Q 1150 -91 751 415 
Q 353 922 353 1747 
Q 353 2572 751 3078 
Q 1150 3584 1784 3584 
Q 2172 3584 2448 3432 
Q 2725 3281 2906 2969 
z
M 947 1747 
Q 947 1113 1208 752 
Q 1469 391 1925 391 
Q 2381 391 2643 752 
Q 2906 1113 2906 1747 
Q 2906 2381 2643 2742 
Q 2381 3103 1925 3103 
Q 1469 3103 1208 2742 
Q 947 2381 947 1747 
z
" transform="scale(0.015625)"/>
      <path id="DejaVuSans-50" d="M 1259 4147 
L 1259 2394 
L 2053 2394 
Q 2494 2394 2734 2622 
Q 2975 2850 2975 3272 
Q 2975 3691 2734 3919 
Q 2494 4147 2053 4147 
L 1259 4147 
z
M 628 4666 
L 2053 4666 
Q 2838 4666 3239 4311 
Q 3641 3956 3641 3272 
Q 3641 2581 3239 2228 
Q 2838 1875 2053 1875 
L 1259 1875 
L 1259 0 
L 628 0 
L 628 4666 
z
" transform="scale(0.015625)"/>
      <path id="DejaVuSans-6c" d="M 603 4863 
L 1178 4863 
L 1178 0 
L 603 0 
L 603 4863 
z
" transform="scale(0.015625)"/>
      <path id="DejaVuSans-2c" d="M 750 794 
L 1409 794 
L 1409 256 
L 897 -744 
L 494 -744 
L 750 256 
L 750 794 
z
" transform="scale(0.015625)"/>
      <path id="DejaVuSans-79" d="M 2059 -325 
Q 1816 -950 1584 -1140 
Q 1353 -1331 966 -1331 
L 506 -1331 
L 506 -850 
L 844 -850 
Q 1081 -850 1212 -737 
Q 1344 -625 1503 -206 
L 1606 56 
L 191 3500 
L 800 3500 
L 1894 763 
L 2988 3500 
L 3597 3500 
L 2059 -325 
z
" transform="scale(0.015625)"/>
      <path id="DejaVuSans-2e" d="M 684 794 
L 1344 794 
L 1344 0 
L 684 0 
L 684 794 
z
" transform="scale(0.015625)"/>
      <path id="DejaVuSans-3a" d="M 750 794 
L 1409 794 
L 1409 0 
L 750 0 
L 750 794 
z
M 750 3309 
L 1409 3309 
L 1409 2516 
L 750 2516 
L 750 3309 
z
" transform="scale(0.015625)"/>
      <path id="DejaVuSans-35" d="M 691 4666 
L 3169 4666 
L 3169 4134 
L 1269 4134 
L 1269 2991 
Q 1406 3038 1543 3061 
Q 1681 3084 1819 3084 
Q 2600 3084 3056 2656 
Q 3513 2228 3513 1497 
Q 3513 744 3044 326 
Q 2575 -91 1722 -91 
Q 1428 -91 1123 -41 
Q 819 9 494 109 
L 494 744 
Q 775 591 1075 516 
Q 1375 441 1709 441 
Q 2250 441 2565 725 
Q 2881 1009 2881 1497 
Q 2881 1984 2565 2268 
Q 2250 2553 1709 2553 
Q 1456 2553 1204 2497 
Q 953 2441 691 2322 
L 691 4666 
z
" transform="scale(0.015625)"/>
      <path id="DejaVuSans-2d" d="M 313 2009 
L 1997 2009 
L 1997 1497 
L 313 1497 
L 313 2009 
z
" transform="scale(0.015625)"/>
      <path id="DejaVuSans-37" d="M 525 4666 
L 3525 4666 
L 3525 4397 
L 1831 0 
L 1172 0 
L 2766 4134 
L 525 4134 
L 525 4666 
z
" transform="scale(0.015625)"/>
     </defs>
     <use xlink:href="#DejaVuSans-4e"/>
     <use xlink:href="#DejaVuSans-75" x="74.804688"/>
     <use xlink:href="#DejaVuSans-6d" x="138.183594"/>
     <use xlink:href="#DejaVuSans-62" x="235.595703"/>
     <use xlink:href="#DejaVuSans-65" x="299.072266"/>
     <use xlink:href="#DejaVuSans-72" x="360.595703"/>
     <use xlink:href="#DejaVuSans-20" x="401.708984"/>
     <use xlink:href="#DejaVuSans-6f" x="433.496094"/>
     <use xlink:href="#DejaVuSans-66" x="494.677734"/>
     <use xlink:href="#DejaVuSans-20" x="529.882812"/>
     <use xlink:href="#DejaVuSans-41" x="561.669922"/>
     <use xlink:href="#DejaVuSans-45" x="630.078125"/>
     <use xlink:href="#DejaVuSans-44" x="693.261719"/>
     <use xlink:href="#DejaVuSans-73" x="770.263672"/>
     <use xlink:href="#DejaVuSans-20" x="822.363281"/>
     <use xlink:href="#DejaVuSans-69" x="854.150391"/>
     <use xlink:href="#DejaVuSans-6e" x="881.933594"/>
     <use xlink:href="#DejaVuSans-20" x="945.3125"/>
     <use xlink:href="#DejaVuSans-74" x="977.099609"/>
     <use xlink:href="#DejaVuSans-68" x="1016.308594"/>
     <use xlink:href="#DejaVuSans-65" x="1079.6875"/>
     <use xlink:href="#DejaVuSans-20" x="1141.210938"/>
     <use xlink:href="#DejaVuSans-4f" x="1172.998047"/>
     <use xlink:href="#DejaVuSans-70" x="1251.708984"/>
     <use xlink:href="#DejaVuSans-65" x="1315.185547"/>
     <use xlink:href="#DejaVuSans-6e" x="1376.708984"/>
     <use xlink:href="#DejaVuSans-53" x="1440.087891"/>
     <use xlink:href="#DejaVuSans-74" x="1503.564453"/>
     <use xlink:href="#DejaVuSans-72" x="1542.773438"/>
     <use xlink:href="#DejaVuSans-65" x="1581.636719"/>
     <use xlink:href="#DejaVuSans-65" x="1643.160156"/>
     <use xlink:href="#DejaVuSans-74" x="1704.683594"/>
     <use xlink:href="#DejaVuSans-4d" x="1743.892578"/>
     <use xlink:href="#DejaVuSans-61" x="1830.171875"/>
     <use xlink:href="#DejaVuSans-70" x="1891.451172"/>
     <use xlink:href="#DejaVuSans-20" x="1954.927734"/>
     <use xlink:href="#DejaVuSans-64" x="1986.714844"/>
     <use xlink:href="#DejaVuSans-61" x="2050.191406"/>
     <use xlink:href="#DejaVuSans-74" x="2111.470703"/>
     <use xlink:href="#DejaVuSans-61" x="2150.679688"/>
     <use xlink:href="#DejaVuSans-62" x="2211.958984"/>
     <use xlink:href="#DejaVuSans-61" x="2275.435547"/>
     <use xlink:href="#DejaVuSans-73" x="2336.714844"/>
     <use xlink:href="#DejaVuSans-65" x="2388.814453"/>
     <use xlink:href="#DejaVuSans-20" x="2450.337891"/>
     <use xlink:href="#DejaVuSans-69" x="2482.125"/>
     <use xlink:href="#DejaVuSans-6e" x="2509.908203"/>
     <use xlink:href="#DejaVuSans-20" x="2573.287109"/>
     <use xlink:href="#DejaVuSans-50" x="2605.074219"/>
     <use xlink:href="#DejaVuSans-6f" x="2661.751953"/>
     <use xlink:href="#DejaVuSans-6c" x="2722.933594"/>
     <use xlink:href="#DejaVuSans-61" x="2750.716797"/>
     <use xlink:href="#DejaVuSans-6e" x="2811.996094"/>
     <use xlink:href="#DejaVuSans-64" x="2875.375"/>
     <use xlink:href="#DejaVuSans-20" x="2938.851562"/>
     <use xlink:href="#DejaVuSans-66" x="2970.638672"/>
     <use xlink:href="#DejaVuSans-72" x="3005.84375"/>
     <use xlink:href="#DejaVuSans-6f" x="3044.707031"/>
     <use xlink:href="#DejaVuSans-6d" x="3105.888672"/>
     <use xlink:href="#DejaVuSans-20" x="3203.300781"/>
     <use xlink:href="#DejaVuSans-66" x="3235.087891"/>
     <use xlink:href="#DejaVuSans-69" x="3270.292969"/>
     <use xlink:href="#DejaVuSans-72" x="3298.076172"/>
     <use xlink:href="#DejaVuSans-73" x="3339.189453"/>
     <use xlink:href="#DejaVuSans-74" x="3391.289062"/>
     <use xlink:href="#DejaVuSans-20" x="3430.498047"/>
     <use xlink:href="#DejaVuSans-65" x="3462.285156"/>
     <use xlink:href="#DejaVuSans-64" x="3523.808594"/>
     <use xlink:href="#DejaVuSans-69" x="3587.285156"/>
     <use xlink:href="#DejaVuSans-74" x="3615.068359"/>
     <use xlink:href="#DejaVuSans-69" x="3654.277344"/>
     <use xlink:href="#DejaVuSans-6f" x="3682.060547"/>
     <use xlink:href="#DejaVuSans-6e" x="3743.242188"/>
     <use xlink:href="#DejaVuSans-2c" x="3806.621094"/>
     <use xlink:href="#DejaVuSans-20" x="3838.408203"/>
     <use xlink:href="#DejaVuSans-64" x="3870.195312"/>
     <use xlink:href="#DejaVuSans-61" x="3933.671875"/>
     <use xlink:href="#DejaVuSans-79" x="3994.951172"/>
     <use xlink:href="#DejaVuSans-20" x="4054.130859"/>
     <use xlink:href="#DejaVuSans-62" x="4085.917969"/>
     <use xlink:href="#DejaVuSans-79" x="4149.394531"/>
     <use xlink:href="#DejaVuSans-20" x="4208.574219"/>
     <use xlink:href="#DejaVuSans-64" x="4240.361328"/>
     <use xlink:href="#DejaVuSans-61" x="4303.837891"/>
     <use xlink:href="#DejaVuSans-79" x="4365.117188"/>
     <use xlink:href="#DejaVuSans-2e" x="4410.046875"/>
     <use xlink:href="#DejaVuSans-20" x="4441.833984"/>
     <use xlink:href="#DejaVuSans-41" x="4473.621094"/>
     <use xlink:href="#DejaVuSans-73" x="4542.029297"/>
     <use xlink:href="#DejaVuSans-20" x="4594.128906"/>
     <use xlink:href="#DejaVuSans-61" x="4625.916016"/>
     <use xlink:href="#DejaVuSans-74" x="4687.195312"/>
     <use xlink:href="#DejaVuSans-3a" x="4726.404297"/>
     <use xlink:href="#DejaVuSans-20" x="4760.095703"/>
     <use xlink:href="#DejaVuSans-32" x="4791.882812"/>
     <use xlink:href="#DejaVuSans-30" x="4855.505859"/>
     <use xlink:href="#DejaVuSans-32" x="4919.128906"/>
     <use xlink:href="#DejaVuSans-35" x="4982.751953"/>
     <use xlink:href="#DejaVuSans-2d" x="5046.375"/>
     <use xlink:href="#DejaVuSans-31" x="5082.458984"/>
     <use xlink:href="#DejaVuSans-30" x="5146.082031"/>
     <use xlink:href="#DejaVuSans-2d" x="5209.705078"/>
     <use xlink:href="#DejaVuSans-32" x="5245.789062"/>
     <use xlink:href="#DejaVuSans-37" x="5309.412109"/>
    </g>
   </g>
  </g>
 </g>
 <defs>
  <clipPath id="pb0d9a99d87">
   <rect x="144" y="69.12" width="892.8" height="443.52"/>
  </clipPath>
 </defs>
</svg>
