<?xml version="1.0" encoding="utf-8" standalone="no"?>
<!DOCTYPE svg PUBLIC "-//W3C//DTD SVG 1.1//EN"
  "http://www.w3.org/Graphics/SVG/1.1/DTD/svg11.dtd">
<svg xmlns:xlink="http://www.w3.org/1999/xlink" width="1152pt" height="576pt" viewBox="0 0 1152 576" xmlns="http://www.w3.org/2000/svg" version="1.1">
 <metadata>
  <rdf:RDF xmlns:dc="http://purl.org/dc/elements/1.1/" xmlns:cc="http://creativecommons.org/ns#" xmlns:rdf="http://www.w3.org/1999/02/22-rdf-syntax-ns#">
   <cc:Work>
    <dc:type rdf:resource="http://purl.org/dc/dcmitype/StillImage"/>
    <dc:date>1980-01-01T00:00:00+00:00</dc:date>
    <dc:format>image/svg+xml</dc:format>
    <dc:creator>
     <cc:Agent>
      <dc:title>Matplotlib v3.9.1, https://matplotlib.org/</dc:title>
     </cc:Agent>
    </dc:creator>
   </cc:Work>
  </rdf:RDF>
 </metadata>
 <defs>
  <style type="text/css">*{stroke-linejoin: round; stroke-linecap: butt}</style>
 </defs>
 <g id="figure_1">
  <g id="patch_1">
   <path d="M 0 576 
L 1152 576 
L 1152 0 
L 0 0 
z
" style="fill: #ffffff"/>
  </g>
  <g id="axes_1">
   <g id="patch_2">
    <path d="M 144 512.64 
L 1036.8 512.64 
L 1036.8 69.12 
L 144 69.12 
z
" style="fill: #ffffff"/>
   </g>
   <g id="matplotlib.axis_1">
    <g id="xtick_1">
     <g id="line2d_1">
      <defs>
       <path id="m09f4f97326" d="M 0 0 
L 0 3.5 
" style="stroke: #000000; stroke-width: 0.8"/>
      </defs>
      <g>
       <use xlink:href="#m09f4f97326" x="176.422619" y="512.64" style="stroke: #000000; stroke-width: 0.8"/>
      </g>
     </g>
     <g id="text_1">
      <!-- 2014 -->
      <g transform="translate(163.697619 527.238438) scale(0.1 -0.1)">
       <defs>
        <path id="DejaVuSans-32" d="M 1228 531 
L 3431 531 
L 3431 0 
L 469 0 
L 469 531 
Q 828 903 1448 1529 
Q 2069 2156 2228 2338 
Q 2531 2678 2651 2914 
Q 2772 3150 2772 3378 
Q 2772 3750 2511 3984 
Q 2250 4219 1831 4219 
Q 1534 4219 1204 4116 
Q 875 4013 500 3803 
L 500 4441 
Q 881 4594 1212 4672 
Q 1544 4750 1819 4750 
Q 2544 4750 2975 4387 
Q 3406 4025 3406 3419 
Q 3406 3131 3298 2873 
Q 3191 2616 2906 2266 
Q 2828 2175 2409 1742 
Q 1991 1309 1228 531 
z
" transform="scale(0.015625)"/>
        <path id="DejaVuSans-30" d="M 2034 4250 
Q 1547 4250 1301 3770 
Q 1056 3291 1056 2328 
Q 1056 1369 1301 889 
Q 1547 409 2034 409 
Q 2525 409 2770 889 
Q 3016 1369 3016 2328 
Q 3016 3291 2770 3770 
Q 2525 4250 2034 4250 
z
M 2034 4750 
Q 2819 4750 3233 4129 
Q 3647 3509 3647 2328 
Q 3647 1150 3233 529 
Q 2819 -91 2034 -91 
Q 1250 -91 836 529 
Q 422 1150 422 2328 
Q 422 3509 836 4129 
Q 1250 4750 2034 4750 
z
" transform="scale(0.015625)"/>
        <path id="DejaVuSans-31" d="M 794 531 
L 1825 531 
L 1825 4091 
L 703 3866 
L 703 4441 
L 1819 4666 
L 2450 4666 
L 2450 531 
L 3481 531 
L 3481 0 
L 794 0 
L 794 531 
z
" transform="scale(0.015625)"/>
        <path id="DejaVuSans-34" d="M 2419 4116 
L 825 1625 
L 2419 1625 
L 2419 4116 
z
M 2253 4666 
L 3047 4666 
L 3047 1625 
L 3713 1625 
L 3713 1100 
L 3047 1100 
L 3047 0 
L 2419 0 
L 2419 1100 
L 313 1100 
L 313 1709 
L 2253 4666 
z
" transform="scale(0.015625)"/>
       </defs>
       <use xlink:href="#DejaVuSans-32"/>
       <use xlink:href="#DejaVuSans-30" x="63.623047"/>
       <use xlink:href="#DejaVuSans-31" x="127.246094"/>
       <use xlink:href="#DejaVuSans-34" x="190.869141"/>
      </g>
     </g>
    </g>
    <g id="xtick_2">
     <g id="line2d_2">
      <g>
       <use xlink:href="#m09f4f97326" x="325.328008" y="512.64" style="stroke: #000000; stroke-width: 0.8"/>
      </g>
     </g>
     <g id="text_2">
      <!-- 2016 -->
      <g transform="translate(312.603008 527.238438) scale(0.1 -0.1)">
       <defs>
        <path id="DejaVuSans-36" d="M 2113 2584 
Q 1688 2584 1439 2293 
Q 1191 2003 1191 1497 
Q 1191 994 1439 701 
Q 1688 409 2113 409 
Q 2538 409 2786 701 
Q 3034 994 3034 1497 
Q 3034 2003 2786 2293 
Q 2538 2584 2113 2584 
z
M 3366 4563 
L 3366 3988 
Q 3128 4100 2886 4159 
Q 2644 4219 2406 4219 
Q 1781 4219 1451 3797 
Q 1122 3375 1075 2522 
Q 1259 2794 1537 2939 
Q 1816 3084 2150 3084 
Q 2853 3084 3261 2657 
Q 3669 2231 3669 1497 
Q 3669 778 3244 343 
Q 2819 -91 2113 -91 
Q 1303 -91 875 529 
Q 447 1150 447 2328 
Q 447 3434 972 4092 
Q 1497 4750 2381 4750 
Q 2619 4750 2861 4703 
Q 3103 4656 3366 4563 
z
" transform="scale(0.015625)"/>
       </defs>
       <use xlink:href="#DejaVuSans-32"/>
       <use xlink:href="#DejaVuSans-30" x="63.623047"/>
       <use xlink:href="#DejaVuSans-31" x="127.246094"/>
       <use xlink:href="#DejaVuSans-36" x="190.869141"/>
      </g>
     </g>
    </g>
    <g id="xtick_3">
     <g id="line2d_3">
      <g>
       <use xlink:href="#m09f4f97326" x="474.437378" y="512.64" style="stroke: #000000; stroke-width: 0.8"/>
      </g>
     </g>
     <g id="text_3">
      <!-- 2018 -->
      <g transform="translate(461.712378 527.238438) scale(0.1 -0.1)">
       <defs>
        <path id="DejaVuSans-38" d="M 2034 2216 
Q 1584 2216 1326 1975 
Q 1069 1734 1069 1313 
Q 1069 891 1326 650 
Q 1584 409 2034 409 
Q 2484 409 2743 651 
Q 3003 894 3003 1313 
Q 3003 1734 2745 1975 
Q 2488 2216 2034 2216 
z
M 1403 2484 
Q 997 2584 770 2862 
Q 544 3141 544 3541 
Q 544 4100 942 4425 
Q 1341 4750 2034 4750 
Q 2731 4750 3128 4425 
Q 3525 4100 3525 3541 
Q 3525 3141 3298 2862 
Q 3072 2584 2669 2484 
Q 3125 2378 3379 2068 
Q 3634 1759 3634 1313 
Q 3634 634 3220 271 
Q 2806 -91 2034 -91 
Q 1263 -91 848 271 
Q 434 634 434 1313 
Q 434 1759 690 2068 
Q 947 2378 1403 2484 
z
M 1172 3481 
Q 1172 3119 1398 2916 
Q 1625 2713 2034 2713 
Q 2441 2713 2670 2916 
Q 2900 3119 2900 3481 
Q 2900 3844 2670 4047 
Q 2441 4250 2034 4250 
Q 1625 4250 1398 4047 
Q 1172 3844 1172 3481 
z
" transform="scale(0.015625)"/>
       </defs>
       <use xlink:href="#DejaVuSans-32"/>
       <use xlink:href="#DejaVuSans-30" x="63.623047"/>
       <use xlink:href="#DejaVuSans-31" x="127.246094"/>
       <use xlink:href="#DejaVuSans-38" x="190.869141"/>
      </g>
     </g>
    </g>
    <g id="xtick_4">
     <g id="line2d_4">
      <g>
       <use xlink:href="#m09f4f97326" x="623.342768" y="512.64" style="stroke: #000000; stroke-width: 0.8"/>
      </g>
     </g>
     <g id="text_4">
      <!-- 2020 -->
      <g transform="translate(610.617768 527.238438) scale(0.1 -0.1)">
       <use xlink:href="#DejaVuSans-32"/>
       <use xlink:href="#DejaVuSans-30" x="63.623047"/>
       <use xlink:href="#DejaVuSans-32" x="127.246094"/>
       <use xlink:href="#DejaVuSans-30" x="190.869141"/>
      </g>
     </g>
    </g>
    <g id="xtick_5">
     <g id="line2d_5">
      <g>
       <use xlink:href="#m09f4f97326" x="772.452137" y="512.64" style="stroke: #000000; stroke-width: 0.8"/>
      </g>
     </g>
     <g id="text_5">
      <!-- 2022 -->
      <g transform="translate(759.727137 527.238438) scale(0.1 -0.1)">
       <use xlink:href="#DejaVuSans-32"/>
       <use xlink:href="#DejaVuSans-30" x="63.623047"/>
       <use xlink:href="#DejaVuSans-32" x="127.246094"/>
       <use xlink:href="#DejaVuSans-32" x="190.869141"/>
      </g>
     </g>
    </g>
    <g id="xtick_6">
     <g id="line2d_6">
      <g>
       <use xlink:href="#m09f4f97326" x="921.357527" y="512.64" style="stroke: #000000; stroke-width: 0.8"/>
      </g>
     </g>
     <g id="text_6">
      <!-- 2024 -->
      <g transform="translate(908.632527 527.238438) scale(0.1 -0.1)">
       <use xlink:href="#DejaVuSans-32"/>
       <use xlink:href="#DejaVuSans-30" x="63.623047"/>
       <use xlink:href="#DejaVuSans-32" x="127.246094"/>
       <use xlink:href="#DejaVuSans-34" x="190.869141"/>
      </g>
     </g>
    </g>
   </g>
   <g id="matplotlib.axis_2">
    <g id="ytick_1">
     <g id="line2d_7">
      <defs>
       <path id="m38b8d8eea9" d="M 0 0 
L -3.5 0 
" style="stroke: #000000; stroke-width: 0.8"/>
      </defs>
      <g>
       <use xlink:href="#m38b8d8eea9" x="144" y="492.527722" style="stroke: #000000; stroke-width: 0.8"/>
      </g>
     </g>
     <g id="text_7">
      <!-- 0 -->
      <g transform="translate(130.6375 496.32694) scale(0.1 -0.1)">
       <use xlink:href="#DejaVuSans-30"/>
      </g>
     </g>
    </g>
    <g id="ytick_2">
     <g id="line2d_8">
      <g>
       <use xlink:href="#m38b8d8eea9" x="144" y="397.084474" style="stroke: #000000; stroke-width: 0.8"/>
      </g>
     </g>
     <g id="text_8">
      <!-- 2000 -->
      <g transform="translate(111.55 400.883693) scale(0.1 -0.1)">
       <use xlink:href="#DejaVuSans-32"/>
       <use xlink:href="#DejaVuSans-30" x="63.623047"/>
       <use xlink:href="#DejaVuSans-30" x="127.246094"/>
       <use xlink:href="#DejaVuSans-30" x="190.869141"/>
      </g>
     </g>
    </g>
    <g id="ytick_3">
     <g id="line2d_9">
      <g>
       <use xlink:href="#m38b8d8eea9" x="144" y="301.641226" style="stroke: #000000; stroke-width: 0.8"/>
      </g>
     </g>
     <g id="text_9">
      <!-- 4000 -->
      <g transform="translate(111.55 305.440445) scale(0.1 -0.1)">
       <use xlink:href="#DejaVuSans-34"/>
       <use xlink:href="#DejaVuSans-30" x="63.623047"/>
       <use xlink:href="#DejaVuSans-30" x="127.246094"/>
       <use xlink:href="#DejaVuSans-30" x="190.869141"/>
      </g>
     </g>
    </g>
    <g id="ytick_4">
     <g id="line2d_10">
      <g>
       <use xlink:href="#m38b8d8eea9" x="144" y="206.197978" style="stroke: #000000; stroke-width: 0.8"/>
      </g>
     </g>
     <g id="text_10">
      <!-- 6000 -->
      <g transform="translate(111.55 209.997197) scale(0.1 -0.1)">
       <use xlink:href="#DejaVuSans-36"/>
       <use xlink:href="#DejaVuSans-30" x="63.623047"/>
       <use xlink:href="#DejaVuSans-30" x="127.246094"/>
       <use xlink:href="#DejaVuSans-30" x="190.869141"/>
      </g>
     </g>
    </g>
    <g id="ytick_5">
     <g id="line2d_11">
      <g>
       <use xlink:href="#m38b8d8eea9" x="144" y="110.754731" style="stroke: #000000; stroke-width: 0.8"/>
      </g>
     </g>
     <g id="text_11">
      <!-- 8000 -->
      <g transform="translate(111.55 114.553949) scale(0.1 -0.1)">
       <use xlink:href="#DejaVuSans-38"/>
       <use xlink:href="#DejaVuSans-30" x="63.623047"/>
       <use xlink:href="#DejaVuSans-30" x="127.246094"/>
       <use xlink:href="#DejaVuSans-30" x="190.869141"/>
      </g>
     </g>
    </g>
   </g>
   <g id="line2d_12">
    <path d="M 184.581818 492.48 
L 186.417638 492.384557 
L 381.830464 492.002784 
L 504.218456 491.668732 
L 533.183614 491.334681 
L 564.392552 491.143795 
L 607.840289 490.618857 
L 629.462167 490.475692 
L 630.074107 490.42797 
L 630.482067 490.046197 
L 634.765647 489.807589 
L 667.402445 489.664424 
L 670.666124 489.521259 
L 674.745724 489.378094 
L 686.984523 489.282651 
L 691.472083 489.091765 
L 707.586502 488.900878 
L 712.889981 488.757713 
L 731.65614 487.946446 
L 731.86012 487.898724 
L 732.67604 487.851002 
L 734.1039 487.612394 
L 740.01932 487.421508 
L 746.342699 487.087457 
L 753.074039 486.419354 
L 757.765578 486.228467 
L 763.680998 486.085302 
L 768.576518 484.033273 
L 768.780498 483.842386 
L 770.616317 483.603778 
L 771.228257 482.887954 
L 771.432237 482.840232 
L 771.636217 481.647191 
L 771.840197 481.360862 
L 772.248157 481.265418 
L 772.452137 479.595162 
L 773.676017 478.831616 
L 774.083977 478.020348 
L 774.287957 477.924905 
L 774.491937 477.686297 
L 774.695917 476.922751 
L 774.899897 474.966164 
L 775.103877 474.441226 
L 775.307857 473.439072 
L 775.511837 471.816537 
L 775.715817 469.048683 
L 776.123777 466.90121 
L 776.327757 466.519437 
L 776.531737 460.124739 
L 776.735717 457.452328 
L 776.939697 456.450174 
L 777.143677 451.582568 
L 777.755617 446.142303 
L 777.959597 445.951417 
L 778.367557 443.135841 
L 778.571537 442.133687 
L 778.775517 435.118608 
L 778.979497 434.498227 
L 779.387457 432.016703 
L 779.591437 431.873538 
L 779.795417 430.680497 
L 779.999397 425.669727 
L 780.203377 424.381243 
L 780.407357 424.238078 
L 780.611337 420.372626 
L 780.815317 419.60908 
L 781.223277 419.370472 
L 782.039197 415.695907 
L 782.243177 415.314134 
L 782.447157 414.693753 
L 782.855117 411.782734 
L 783.059097 410.685137 
L 783.263077 405.149428 
L 783.875017 398.993339 
L 784.486957 398.659287 
L 784.894916 398.325236 
L 785.710836 396.273206 
L 786.118796 396.08232 
L 786.526756 391.644209 
L 786.730736 391.596487 
L 787.138696 390.880663 
L 787.342676 388.685468 
L 787.546656 388.017365 
L 787.750636 387.778757 
L 788.158596 386.442552 
L 788.566556 386.251665 
L 788.770536 386.013057 
L 788.974516 385.583563 
L 789.586456 382.481657 
L 789.790436 382.290771 
L 790.198396 381.527225 
L 790.606356 381.288616 
L 791.014316 381.002287 
L 791.218296 378.950257 
L 791.422276 378.807092 
L 791.626256 378.425319 
L 791.830236 374.321259 
L 792.238196 374.178094 
L 792.646156 373.080497 
L 792.850136 372.126065 
L 793.462076 371.935178 
L 794.074016 370.455808 
L 794.277996 370.408086 
L 794.685956 369.596819 
L 795.093916 369.405932 
L 795.297896 364.967821 
L 796.113816 364.681491 
L 796.521776 364.490605 
L 796.929736 364.108832 
L 797.745656 363.965667 
L 797.949636 363.631616 
L 799.173516 363.249843 
L 799.377495 363.011234 
L 800.193415 362.820348 
L 800.805355 362.29541 
L 801.213315 361.913637 
L 802.233215 361.722751 
L 802.641175 361.340978 
L 803.049135 361.150091 
L 804.476995 360.720597 
L 804.680975 360.52971 
L 805.088935 360.338824 
L 805.904855 355.996156 
L 806.924755 355.805269 
L 807.332715 355.471218 
L 808.760575 355.23261 
L 809.168535 355.041723 
L 809.372515 354.94628 
L 809.576495 354.135012 
L 810.596395 354.039569 
L 811.208335 353.610075 
L 811.820275 353.323745 
L 812.024255 353.276023 
L 812.228235 353.037415 
L 812.432215 352.989693 
L 812.840175 352.464756 
L 813.248135 352.273869 
L 813.452115 351.939818 
L 814.064054 351.605766 
L 814.268034 351.510323 
L 815.287934 351.319437 
L 815.491914 350.985385 
L 815.899874 350.937664 
L 816.103854 350.030953 
L 816.307834 349.93551 
L 816.511814 348.837912 
L 818.755594 348.265253 
L 818.959574 348.122088 
L 819.571514 347.931201 
L 819.775494 347.263099 
L 820.999374 346.881326 
L 823.039174 345.974615 
L 824.059074 345.83145 
L 824.467034 345.640563 
L 825.078974 345.401955 
L 826.506834 344.304358 
L 826.710814 343.302204 
L 827.526734 342.490936 
L 828.546633 340.963844 
L 828.750613 340.820679 
L 829.158573 339.96169 
L 829.362553 339.389031 
L 829.566533 339.341309 
L 829.770513 338.386877 
L 830.790413 336.668898 
L 831.402353 336.525733 
L 831.606333 336.096239 
L 832.014293 335.85763 
L 832.218273 335.332693 
L 832.830213 334.95092 
L 833.238173 334.903198 
L 833.442153 334.473703 
L 834.666033 334.139652 
L 835.277973 333.710157 
L 835.481953 333.662436 
L 835.685933 333.423828 
L 836.093893 333.376106 
L 836.297873 333.232941 
L 836.705833 333.18522 
L 837.521753 332.564838 
L 837.725733 332.32623 
L 838.133693 332.135344 
L 838.745633 331.944457 
L 839.153593 330.799138 
L 839.357573 330.703695 
L 840.377473 329.415211 
L 840.581453 329.319768 
L 840.785433 328.222171 
L 841.397373 328.031284 
L 842.417272 327.410903 
L 842.825232 327.363181 
L 843.233192 326.551914 
L 843.845132 326.074698 
L 844.049112 326.026976 
L 844.457072 325.26343 
L 845.069012 324.9771 
L 845.476972 324.547606 
L 846.088912 324.165833 
L 846.292892 320.014051 
L 846.700852 316.482651 
L 846.904832 313.428467 
L 847.108812 313.046694 
L 847.720752 309.801624 
L 848.332692 308.179089 
L 848.536672 308.035924 
L 848.740652 307.701872 
L 848.944632 307.03377 
L 849.148612 304.743132 
L 849.352592 304.218194 
L 849.760552 304.027307 
L 850.168512 302.738824 
L 850.372492 302.452494 
L 850.576472 301.498061 
L 850.780452 301.211732 
L 850.984432 300.639072 
L 851.188412 300.400464 
L 851.392392 299.11198 
L 851.596372 298.634764 
L 852.004332 297.394002 
L 852.412292 296.630456 
L 853.228212 295.962353 
L 853.432192 295.676023 
L 853.636172 294.10121 
L 854.044132 293.862601 
L 854.452092 293.337664 
L 855.064032 292.240066 
L 855.268012 291.237912 
L 855.471992 291.190191 
L 856.083932 290.235758 
L 856.491892 290.092593 
L 856.695872 289.615377 
L 856.899851 289.519934 
L 857.307811 288.851831 
L 858.123731 284.938658 
L 858.327711 282.982071 
L 858.531691 282.266247 
L 859.551591 280.977763 
L 859.755571 280.88232 
L 859.959551 280.405104 
L 860.367511 278.496239 
L 861.183431 277.875857 
L 861.591391 277.446363 
L 861.999351 276.253322 
L 862.203331 275.966993 
L 863.019251 273.867241 
L 863.631191 273.342303 
L 863.835171 273.294582 
L 864.447111 273.008252 
L 865.059051 271.19483 
L 865.670991 270.860779 
L 866.078951 270.288119 
L 866.690891 269.285965 
L 867.098851 269.190522 
L 867.506811 268.522419 
L 868.118751 268.188368 
L 868.526711 268.092925 
L 868.730691 267.806595 
L 868.934671 266.899884 
L 869.750591 266.565833 
L 869.954571 266.088616 
L 870.158551 266.040895 
L 870.362531 265.134184 
L 870.974471 264.800133 
L 871.58641 264.609246 
L 871.99437 264.084308 
L 873.01427 263.416205 
L 873.42223 262.843546 
L 873.83019 262.509495 
L 874.23815 262.461773 
L 874.44213 261.077846 
L 874.85009 260.60063 
L 875.46203 260.218857 
L 875.66601 259.980249 
L 875.86999 259.932527 
L 876.07397 259.646197 
L 876.88989 259.359867 
L 877.09387 258.023662 
L 877.70581 257.498724 
L 877.90979 257.164673 
L 878.31775 257.116951 
L 878.52173 256.878343 
L 878.72571 256.830621 
L 878.92969 256.592013 
L 879.33765 256.49657 
L 879.54163 256.067075 
L 879.94959 255.923911 
L 880.35755 255.637581 
L 880.56153 255.112643 
L 880.96949 255.064921 
L 881.37745 254.683148 
L 881.98939 254.253654 
L 882.19337 253.490108 
L 883.00929 252.917448 
L 883.21327 252.487954 
L 883.62123 252.201624 
L 883.82521 251.867572 
L 884.43715 251.438078 
L 884.64113 251.008583 
L 884.84511 250.91314 
L 885.25307 250.531367 
L 885.45705 250.483645 
L 886.476949 249.672378 
L 886.884909 249.624656 
L 887.088889 249.43377 
L 887.292869 248.86111 
L 887.496849 248.717945 
L 888.516749 248.383894 
L 888.924709 247.954399 
L 889.332669 247.763513 
L 889.944609 247.524905 
L 890.148589 247.09541 
L 890.556549 246.999967 
L 890.760529 246.140978 
L 890.964509 245.950091 
L 891.168489 245.425153 
L 891.372469 245.234267 
L 891.576449 243.754896 
L 891.780429 243.659453 
L 892.800329 242.418691 
L 893.616249 241.416537 
L 894.024209 241.177929 
L 894.228189 240.605269 
L 894.432169 240.509826 
L 894.840129 239.889445 
L 895.248089 239.555394 
L 895.860029 239.269064 
L 896.267989 238.553239 
L 897.491869 237.026147 
L 897.899829 236.453488 
L 898.103809 236.21488 
L 898.715749 235.880829 
L 899.123709 235.833107 
L 899.531669 235.594499 
L 900.755548 233.685634 
L 900.959528 233.590191 
L 901.367488 233.256139 
L 901.571468 233.208418 
L 902.183408 232.635758 
L 902.999328 232.206263 
L 903.407288 231.681326 
L 903.611268 231.633604 
L 905.039128 230.726893 
L 905.855048 230.106512 
L 906.874948 229.772461 
L 907.282908 229.295244 
L 907.690868 229.056636 
L 907.894848 228.531698 
L 908.710768 228.054482 
L 909.118728 227.863596 
L 909.526688 227.577266 
L 909.934648 227.243215 
L 910.138628 227.195493 
L 910.750568 226.52739 
L 911.362508 226.288782 
L 911.566488 226.050174 
L 911.770468 225.382071 
L 911.974448 223.139155 
L 912.382408 222.518774 
L 912.586388 222.471052 
L 913.606288 220.466744 
L 913.810268 220.275857 
L 914.218228 218.510157 
L 914.626187 218.032941 
L 915.034147 217.603447 
L 915.442107 217.460282 
L 915.646087 217.078509 
L 916.054047 216.792179 
L 916.462007 216.314963 
L 916.665987 216.267241 
L 917.073947 215.93319 
L 917.481907 214.978757 
L 917.685887 214.883314 
L 917.889867 214.310655 
L 918.501807 214.024325 
L 918.909767 213.213057 
L 919.521707 212.592676 
L 919.929667 212.020017 
L 920.541607 211.82913 
L 920.745587 211.399635 
L 921.357527 211.065584 
L 921.765487 208.965833 
L 922.173447 208.488616 
L 923.193347 207.820514 
L 923.397327 207.629627 
L 923.601307 206.866081 
L 924.009267 206.579751 
L 924.213247 205.863927 
L 924.417227 205.720762 
L 924.825187 205.004938 
L 925.233147 204.575443 
L 925.641107 204.19367 
L 926.049067 203.764176 
L 926.253047 203.668732 
L 926.661007 203.286959 
L 927.068967 202.809743 
L 927.272947 202.762022 
L 927.476927 202.475692 
L 927.884887 201.282651 
L 928.088867 201.139486 
L 928.496827 201.044043 
L 928.700807 200.423662 
L 928.904786 200.37594 
L 929.516726 199.898724 
L 929.720706 199.039735 
L 930.536626 198.419354 
L 930.740606 197.560365 
L 931.556526 196.653654 
L 931.760506 196.605932 
L 931.964486 195.36517 
L 932.780406 194.601624 
L 932.984386 194.124408 
L 933.392346 193.933521 
L 933.596326 192.979089 
L 934.004286 192.788202 
L 934.208266 192.310986 
L 934.412246 192.215543 
L 934.616226 191.165667 
L 935.024186 191.022502 
L 935.432146 190.545286 
L 935.840106 189.78174 
L 936.044086 189.590853 
L 936.656026 188.063761 
L 937.471946 187.204772 
L 937.879906 186.822999 
L 939.103786 185.67768 
L 939.511746 184.961856 
L 939.715726 184.866413 
L 940.327666 183.959702 
L 940.531646 183.434764 
L 941.347566 182.766661 
L 941.755526 182.43261 
L 941.959506 182.337167 
L 942.163486 181.144126 
L 942.775426 180.237415 
L 942.979406 179.282983 
L 943.387365 178.710323 
L 943.591345 178.185385 
L 943.795325 178.137664 
L 944.611245 176.896901 
L 945.427165 176.181077 
L 945.631145 175.751582 
L 946.855025 175.226645 
L 947.466965 174.129047 
L 947.874925 173.126893 
L 948.690845 172.220182 
L 948.894825 171.790688 
L 949.098805 171.742966 
L 949.302785 171.170307 
L 949.914725 170.788534 
L 950.526665 169.977266 
L 951.546565 169.165998 
L 952.158505 168.354731 
L 952.770445 167.925236 
L 952.974425 167.44802 
L 953.382385 167.352577 
L 953.586365 167.113969 
L 953.790345 167.066247 
L 954.198305 166.111814 
L 954.606265 165.873206 
L 955.626165 165.061939 
L 955.830145 164.918774 
L 956.238105 164.346114 
L 956.646065 164.155228 
L 957.054025 163.91662 
L 957.461985 163.248517 
L 957.665964 163.200795 
L 957.869944 162.914466 
L 958.073924 162.866744 
L 958.277904 162.628136 
L 958.481884 160.242055 
L 959.093824 159.717117 
L 959.297804 159.239901 
L 959.501784 159.192179 
L 960.113724 157.76053 
L 960.725664 156.328882 
L 961.133624 156.090273 
L 961.949544 154.372295 
L 962.357504 152.081657 
L 962.561484 151.222668 
L 962.969444 147.595824 
L 963.173424 146.116454 
L 964.193324 144.398476 
L 965.009244 139.8172 
L 965.213224 139.53087 
L 965.417204 138.862767 
L 965.621184 136.476686 
L 965.825164 135.569975 
L 966.029144 135.474532 
L 966.233124 134.376935 
L 966.845064 133.708832 
L 967.253024 131.847688 
L 968.272924 131.084143 
L 968.476904 130.606926 
L 969.496804 129.795659 
L 969.904764 129.175278 
L 970.108744 128.65034 
L 970.312724 127.314134 
L 970.516704 126.789196 
L 970.924664 126.550588 
L 972.352523 125.309826 
L 972.556503 125.262104 
L 972.964463 124.928053 
L 973.168443 124.83261 
L 973.576403 124.403115 
L 973.984363 124.355394 
L 974.392323 123.782734 
L 974.596303 123.448683 
L 974.800283 123.353239 
L 975.208243 122.685137 
L 976.432123 121.158045 
L 976.636103 120.680829 
L 977.044063 120.537664 
L 977.248043 120.203612 
L 977.656003 119.965004 
L 977.859983 118.819685 
L 978.471923 117.960696 
L 978.879883 117.817531 
L 980.103763 116.385882 
L 980.307743 116.338161 
L 981.327643 115.288285 
L 981.531623 115.240563 
L 981.735603 114.524739 
L 981.939583 114.286131 
L 982.143563 113.522585 
L 982.551523 113.140812 
L 982.755503 112.568152 
L 983.367443 110.086628 
L 983.571423 109.943463 
L 984.591323 108.416371 
L 984.999283 106.459785 
L 985.203263 105.887125 
L 985.407243 104.884971 
L 985.611223 104.789528 
L 985.815203 103.97826 
L 986.223163 103.596487 
L 987.855002 100.971798 
L 988.058982 100.876355 
L 988.262962 100.590025 
L 988.466942 99.921922 
L 989.282862 99.492428 
L 989.486842 99.158376 
L 989.690822 99.110655 
L 989.894802 98.013057 
L 990.302762 97.631284 
L 990.506742 96.91546 
L 990.710722 96.724573 
L 991.118682 96.676852 
L 992.342562 95.388368 
L 992.954502 94.720265 
L 993.362462 94.099884 
L 993.770422 93.574946 
L 993.974402 93.002287 
L 994.178382 91.809246 
L 995.402262 90.902535 
L 995.810222 89.470886 
L 996.218182 89.28 
L 996.218182 89.28 
" clip-path="url(#p59cb75e8ce)" style="fill: none; stroke: #1f77b4; stroke-width: 1.5; stroke-linecap: square"/>
   </g>
   <g id="patch_3">
    <path d="M 144 512.64 
L 144 69.12 
" style="fill: none; stroke: #000000; stroke-width: 0.8; stroke-linejoin: miter; stroke-linecap: square"/>
   </g>
   <g id="patch_4">
    <path d="M 1036.8 512.64 
L 1036.8 69.12 
" style="fill: none; stroke: #000000; stroke-width: 0.8; stroke-linejoin: miter; stroke-linecap: square"/>
   </g>
   <g id="patch_5">
    <path d="M 144 512.64 
L 1036.8 512.64 
" style="fill: none; stroke: #000000; stroke-width: 0.8; stroke-linejoin: miter; stroke-linecap: square"/>
   </g>
   <g id="patch_6">
    <path d="M 144 69.12 
L 1036.8 69.12 
" style="fill: none; stroke: #000000; stroke-width: 0.8; stroke-linejoin: miter; stroke-linecap: square"/>
   </g>
   <g id="text_12">
    <!-- Number of AEDs in the OpenStreetMap database in Poland from first edition, day by day. As at: 2025-01-02 -->
    <g transform="translate(144 63.12) scale(0.14 -0.14)">
     <defs>
      <path id="DejaVuSans-4e" d="M 628 4666 
L 1478 4666 
L 3547 763 
L 3547 4666 
L 4159 4666 
L 4159 0 
L 3309 0 
L 1241 3903 
L 1241 0 
L 628 0 
L 628 4666 
z
" transform="scale(0.015625)"/>
      <path id="DejaVuSans-75" d="M 544 1381 
L 544 3500 
L 1119 3500 
L 1119 1403 
Q 1119 906 1312 657 
Q 1506 409 1894 409 
Q 2359 409 2629 706 
Q 2900 1003 2900 1516 
L 2900 3500 
L 3475 3500 
L 3475 0 
L 2900 0 
L 2900 538 
Q 2691 219 2414 64 
Q 2138 -91 1772 -91 
Q 1169 -91 856 284 
Q 544 659 544 1381 
z
M 1991 3584 
L 1991 3584 
z
" transform="scale(0.015625)"/>
      <path id="DejaVuSans-6d" d="M 3328 2828 
Q 3544 3216 3844 3400 
Q 4144 3584 4550 3584 
Q 5097 3584 5394 3201 
Q 5691 2819 5691 2113 
L 5691 0 
L 5113 0 
L 5113 2094 
Q 5113 2597 4934 2840 
Q 4756 3084 4391 3084 
Q 3944 3084 3684 2787 
Q 3425 2491 3425 1978 
L 3425 0 
L 2847 0 
L 2847 2094 
Q 2847 2600 2669 2842 
Q 2491 3084 2119 3084 
Q 1678 3084 1418 2786 
Q 1159 2488 1159 1978 
L 1159 0 
L 581 0 
L 581 3500 
L 1159 3500 
L 1159 2956 
Q 1356 3278 1631 3431 
Q 1906 3584 2284 3584 
Q 2666 3584 2933 3390 
Q 3200 3197 3328 2828 
z
" transform="scale(0.015625)"/>
      <path id="DejaVuSans-62" d="M 3116 1747 
Q 3116 2381 2855 2742 
Q 2594 3103 2138 3103 
Q 1681 3103 1420 2742 
Q 1159 2381 1159 1747 
Q 1159 1113 1420 752 
Q 1681 391 2138 391 
Q 2594 391 2855 752 
Q 3116 1113 3116 1747 
z
M 1159 2969 
Q 1341 3281 1617 3432 
Q 1894 3584 2278 3584 
Q 2916 3584 3314 3078 
Q 3713 2572 3713 1747 
Q 3713 922 3314 415 
Q 2916 -91 2278 -91 
Q 1894 -91 1617 61 
Q 1341 213 1159 525 
L 1159 0 
L 581 0 
L 581 4863 
L 1159 4863 
L 1159 2969 
z
" transform="scale(0.015625)"/>
      <path id="DejaVuSans-65" d="M 3597 1894 
L 3597 1613 
L 953 1613 
Q 991 1019 1311 708 
Q 1631 397 2203 397 
Q 2534 397 2845 478 
Q 3156 559 3463 722 
L 3463 178 
Q 3153 47 2828 -22 
Q 2503 -91 2169 -91 
Q 1331 -91 842 396 
Q 353 884 353 1716 
Q 353 2575 817 3079 
Q 1281 3584 2069 3584 
Q 2775 3584 3186 3129 
Q 3597 2675 3597 1894 
z
M 3022 2063 
Q 3016 2534 2758 2815 
Q 2500 3097 2075 3097 
Q 1594 3097 1305 2825 
Q 1016 2553 972 2059 
L 3022 2063 
z
" transform="scale(0.015625)"/>
      <path id="DejaVuSans-72" d="M 2631 2963 
Q 2534 3019 2420 3045 
Q 2306 3072 2169 3072 
Q 1681 3072 1420 2755 
Q 1159 2438 1159 1844 
L 1159 0 
L 581 0 
L 581 3500 
L 1159 3500 
L 1159 2956 
Q 1341 3275 1631 3429 
Q 1922 3584 2338 3584 
Q 2397 3584 2469 3576 
Q 2541 3569 2628 3553 
L 2631 2963 
z
" transform="scale(0.015625)"/>
      <path id="DejaVuSans-20" transform="scale(0.015625)"/>
      <path id="DejaVuSans-6f" d="M 1959 3097 
Q 1497 3097 1228 2736 
Q 959 2375 959 1747 
Q 959 1119 1226 758 
Q 1494 397 1959 397 
Q 2419 397 2687 759 
Q 2956 1122 2956 1747 
Q 2956 2369 2687 2733 
Q 2419 3097 1959 3097 
z
M 1959 3584 
Q 2709 3584 3137 3096 
Q 3566 2609 3566 1747 
Q 3566 888 3137 398 
Q 2709 -91 1959 -91 
Q 1206 -91 779 398 
Q 353 888 353 1747 
Q 353 2609 779 3096 
Q 1206 3584 1959 3584 
z
" transform="scale(0.015625)"/>
      <path id="DejaVuSans-66" d="M 2375 4863 
L 2375 4384 
L 1825 4384 
Q 1516 4384 1395 4259 
Q 1275 4134 1275 3809 
L 1275 3500 
L 2222 3500 
L 2222 3053 
L 1275 3053 
L 1275 0 
L 697 0 
L 697 3053 
L 147 3053 
L 147 3500 
L 697 3500 
L 697 3744 
Q 697 4328 969 4595 
Q 1241 4863 1831 4863 
L 2375 4863 
z
" transform="scale(0.015625)"/>
      <path id="DejaVuSans-41" d="M 2188 4044 
L 1331 1722 
L 3047 1722 
L 2188 4044 
z
M 1831 4666 
L 2547 4666 
L 4325 0 
L 3669 0 
L 3244 1197 
L 1141 1197 
L 716 0 
L 50 0 
L 1831 4666 
z
" transform="scale(0.015625)"/>
      <path id="DejaVuSans-45" d="M 628 4666 
L 3578 4666 
L 3578 4134 
L 1259 4134 
L 1259 2753 
L 3481 2753 
L 3481 2222 
L 1259 2222 
L 1259 531 
L 3634 531 
L 3634 0 
L 628 0 
L 628 4666 
z
" transform="scale(0.015625)"/>
      <path id="DejaVuSans-44" d="M 1259 4147 
L 1259 519 
L 2022 519 
Q 2988 519 3436 956 
Q 3884 1394 3884 2338 
Q 3884 3275 3436 3711 
Q 2988 4147 2022 4147 
L 1259 4147 
z
M 628 4666 
L 1925 4666 
Q 3281 4666 3915 4102 
Q 4550 3538 4550 2338 
Q 4550 1131 3912 565 
Q 3275 0 1925 0 
L 628 0 
L 628 4666 
z
" transform="scale(0.015625)"/>
      <path id="DejaVuSans-73" d="M 2834 3397 
L 2834 2853 
Q 2591 2978 2328 3040 
Q 2066 3103 1784 3103 
Q 1356 3103 1142 2972 
Q 928 2841 928 2578 
Q 928 2378 1081 2264 
Q 1234 2150 1697 2047 
L 1894 2003 
Q 2506 1872 2764 1633 
Q 3022 1394 3022 966 
Q 3022 478 2636 193 
Q 2250 -91 1575 -91 
Q 1294 -91 989 -36 
Q 684 19 347 128 
L 347 722 
Q 666 556 975 473 
Q 1284 391 1588 391 
Q 1994 391 2212 530 
Q 2431 669 2431 922 
Q 2431 1156 2273 1281 
Q 2116 1406 1581 1522 
L 1381 1569 
Q 847 1681 609 1914 
Q 372 2147 372 2553 
Q 372 3047 722 3315 
Q 1072 3584 1716 3584 
Q 2034 3584 2315 3537 
Q 2597 3491 2834 3397 
z
" transform="scale(0.015625)"/>
      <path id="DejaVuSans-69" d="M 603 3500 
L 1178 3500 
L 1178 0 
L 603 0 
L 603 3500 
z
M 603 4863 
L 1178 4863 
L 1178 4134 
L 603 4134 
L 603 4863 
z
" transform="scale(0.015625)"/>
      <path id="DejaVuSans-6e" d="M 3513 2113 
L 3513 0 
L 2938 0 
L 2938 2094 
Q 2938 2591 2744 2837 
Q 2550 3084 2163 3084 
Q 1697 3084 1428 2787 
Q 1159 2491 1159 1978 
L 1159 0 
L 581 0 
L 581 3500 
L 1159 3500 
L 1159 2956 
Q 1366 3272 1645 3428 
Q 1925 3584 2291 3584 
Q 2894 3584 3203 3211 
Q 3513 2838 3513 2113 
z
" transform="scale(0.015625)"/>
      <path id="DejaVuSans-74" d="M 1172 4494 
L 1172 3500 
L 2356 3500 
L 2356 3053 
L 1172 3053 
L 1172 1153 
Q 1172 725 1289 603 
Q 1406 481 1766 481 
L 2356 481 
L 2356 0 
L 1766 0 
Q 1100 0 847 248 
Q 594 497 594 1153 
L 594 3053 
L 172 3053 
L 172 3500 
L 594 3500 
L 594 4494 
L 1172 4494 
z
" transform="scale(0.015625)"/>
      <path id="DejaVuSans-68" d="M 3513 2113 
L 3513 0 
L 2938 0 
L 2938 2094 
Q 2938 2591 2744 2837 
Q 2550 3084 2163 3084 
Q 1697 3084 1428 2787 
Q 1159 2491 1159 1978 
L 1159 0 
L 581 0 
L 581 4863 
L 1159 4863 
L 1159 2956 
Q 1366 3272 1645 3428 
Q 1925 3584 2291 3584 
Q 2894 3584 3203 3211 
Q 3513 2838 3513 2113 
z
" transform="scale(0.015625)"/>
      <path id="DejaVuSans-4f" d="M 2522 4238 
Q 1834 4238 1429 3725 
Q 1025 3213 1025 2328 
Q 1025 1447 1429 934 
Q 1834 422 2522 422 
Q 3209 422 3611 934 
Q 4013 1447 4013 2328 
Q 4013 3213 3611 3725 
Q 3209 4238 2522 4238 
z
M 2522 4750 
Q 3503 4750 4090 4092 
Q 4678 3434 4678 2328 
Q 4678 1225 4090 567 
Q 3503 -91 2522 -91 
Q 1538 -91 948 565 
Q 359 1222 359 2328 
Q 359 3434 948 4092 
Q 1538 4750 2522 4750 
z
" transform="scale(0.015625)"/>
      <path id="DejaVuSans-70" d="M 1159 525 
L 1159 -1331 
L 581 -1331 
L 581 3500 
L 1159 3500 
L 1159 2969 
Q 1341 3281 1617 3432 
Q 1894 3584 2278 3584 
Q 2916 3584 3314 3078 
Q 3713 2572 3713 1747 
Q 3713 922 3314 415 
Q 2916 -91 2278 -91 
Q 1894 -91 1617 61 
Q 1341 213 1159 525 
z
M 3116 1747 
Q 3116 2381 2855 2742 
Q 2594 3103 2138 3103 
Q 1681 3103 1420 2742 
Q 1159 2381 1159 1747 
Q 1159 1113 1420 752 
Q 1681 391 2138 391 
Q 2594 391 2855 752 
Q 3116 1113 3116 1747 
z
" transform="scale(0.015625)"/>
      <path id="DejaVuSans-53" d="M 3425 4513 
L 3425 3897 
Q 3066 4069 2747 4153 
Q 2428 4238 2131 4238 
Q 1616 4238 1336 4038 
Q 1056 3838 1056 3469 
Q 1056 3159 1242 3001 
Q 1428 2844 1947 2747 
L 2328 2669 
Q 3034 2534 3370 2195 
Q 3706 1856 3706 1288 
Q 3706 609 3251 259 
Q 2797 -91 1919 -91 
Q 1588 -91 1214 -16 
Q 841 59 441 206 
L 441 856 
Q 825 641 1194 531 
Q 1563 422 1919 422 
Q 2459 422 2753 634 
Q 3047 847 3047 1241 
Q 3047 1584 2836 1778 
Q 2625 1972 2144 2069 
L 1759 2144 
Q 1053 2284 737 2584 
Q 422 2884 422 3419 
Q 422 4038 858 4394 
Q 1294 4750 2059 4750 
Q 2388 4750 2728 4690 
Q 3069 4631 3425 4513 
z
" transform="scale(0.015625)"/>
      <path id="DejaVuSans-4d" d="M 628 4666 
L 1569 4666 
L 2759 1491 
L 3956 4666 
L 4897 4666 
L 4897 0 
L 4281 0 
L 4281 4097 
L 3078 897 
L 2444 897 
L 1241 4097 
L 1241 0 
L 628 0 
L 628 4666 
z
" transform="scale(0.015625)"/>
      <path id="DejaVuSans-61" d="M 2194 1759 
Q 1497 1759 1228 1600 
Q 959 1441 959 1056 
Q 959 750 1161 570 
Q 1363 391 1709 391 
Q 2188 391 2477 730 
Q 2766 1069 2766 1631 
L 2766 1759 
L 2194 1759 
z
M 3341 1997 
L 3341 0 
L 2766 0 
L 2766 531 
Q 2569 213 2275 61 
Q 1981 -91 1556 -91 
Q 1019 -91 701 211 
Q 384 513 384 1019 
Q 384 1609 779 1909 
Q 1175 2209 1959 2209 
L 2766 2209 
L 2766 2266 
Q 2766 2663 2505 2880 
Q 2244 3097 1772 3097 
Q 1472 3097 1187 3025 
Q 903 2953 641 2809 
L 641 3341 
Q 956 3463 1253 3523 
Q 1550 3584 1831 3584 
Q 2591 3584 2966 3190 
Q 3341 2797 3341 1997 
z
" transform="scale(0.015625)"/>
      <path id="DejaVuSans-64" d="M 2906 2969 
L 2906 4863 
L 3481 4863 
L 3481 0 
L 2906 0 
L 2906 525 
Q 2725 213 2448 61 
Q 2172 -91 1784 -91 
Q 1150 -91 751 415 
Q 353 922 353 1747 
Q 353 2572 751 3078 
Q 1150 3584 1784 3584 
Q 2172 3584 2448 3432 
Q 2725 3281 2906 2969 
z
M 947 1747 
Q 947 1113 1208 752 
Q 1469 391 1925 391 
Q 2381 391 2643 752 
Q 2906 1113 2906 1747 
Q 2906 2381 2643 2742 
Q 2381 3103 1925 3103 
Q 1469 3103 1208 2742 
Q 947 2381 947 1747 
z
" transform="scale(0.015625)"/>
      <path id="DejaVuSans-50" d="M 1259 4147 
L 1259 2394 
L 2053 2394 
Q 2494 2394 2734 2622 
Q 2975 2850 2975 3272 
Q 2975 3691 2734 3919 
Q 2494 4147 2053 4147 
L 1259 4147 
z
M 628 4666 
L 2053 4666 
Q 2838 4666 3239 4311 
Q 3641 3956 3641 3272 
Q 3641 2581 3239 2228 
Q 2838 1875 2053 1875 
L 1259 1875 
L 1259 0 
L 628 0 
L 628 4666 
z
" transform="scale(0.015625)"/>
      <path id="DejaVuSans-6c" d="M 603 4863 
L 1178 4863 
L 1178 0 
L 603 0 
L 603 4863 
z
" transform="scale(0.015625)"/>
      <path id="DejaVuSans-2c" d="M 750 794 
L 1409 794 
L 1409 256 
L 897 -744 
L 494 -744 
L 750 256 
L 750 794 
z
" transform="scale(0.015625)"/>
      <path id="DejaVuSans-79" d="M 2059 -325 
Q 1816 -950 1584 -1140 
Q 1353 -1331 966 -1331 
L 506 -1331 
L 506 -850 
L 844 -850 
Q 1081 -850 1212 -737 
Q 1344 -625 1503 -206 
L 1606 56 
L 191 3500 
L 800 3500 
L 1894 763 
L 2988 3500 
L 3597 3500 
L 2059 -325 
z
" transform="scale(0.015625)"/>
      <path id="DejaVuSans-2e" d="M 684 794 
L 1344 794 
L 1344 0 
L 684 0 
L 684 794 
z
" transform="scale(0.015625)"/>
      <path id="DejaVuSans-3a" d="M 750 794 
L 1409 794 
L 1409 0 
L 750 0 
L 750 794 
z
M 750 3309 
L 1409 3309 
L 1409 2516 
L 750 2516 
L 750 3309 
z
" transform="scale(0.015625)"/>
      <path id="DejaVuSans-35" d="M 691 4666 
L 3169 4666 
L 3169 4134 
L 1269 4134 
L 1269 2991 
Q 1406 3038 1543 3061 
Q 1681 3084 1819 3084 
Q 2600 3084 3056 2656 
Q 3513 2228 3513 1497 
Q 3513 744 3044 326 
Q 2575 -91 1722 -91 
Q 1428 -91 1123 -41 
Q 819 9 494 109 
L 494 744 
Q 775 591 1075 516 
Q 1375 441 1709 441 
Q 2250 441 2565 725 
Q 2881 1009 2881 1497 
Q 2881 1984 2565 2268 
Q 2250 2553 1709 2553 
Q 1456 2553 1204 2497 
Q 953 2441 691 2322 
L 691 4666 
z
" transform="scale(0.015625)"/>
      <path id="DejaVuSans-2d" d="M 313 2009 
L 1997 2009 
L 1997 1497 
L 313 1497 
L 313 2009 
z
" transform="scale(0.015625)"/>
     </defs>
     <use xlink:href="#DejaVuSans-4e"/>
     <use xlink:href="#DejaVuSans-75" x="74.804688"/>
     <use xlink:href="#DejaVuSans-6d" x="138.183594"/>
     <use xlink:href="#DejaVuSans-62" x="235.595703"/>
     <use xlink:href="#DejaVuSans-65" x="299.072266"/>
     <use xlink:href="#DejaVuSans-72" x="360.595703"/>
     <use xlink:href="#DejaVuSans-20" x="401.708984"/>
     <use xlink:href="#DejaVuSans-6f" x="433.496094"/>
     <use xlink:href="#DejaVuSans-66" x="494.677734"/>
     <use xlink:href="#DejaVuSans-20" x="529.882812"/>
     <use xlink:href="#DejaVuSans-41" x="561.669922"/>
     <use xlink:href="#DejaVuSans-45" x="630.078125"/>
     <use xlink:href="#DejaVuSans-44" x="693.261719"/>
     <use xlink:href="#DejaVuSans-73" x="770.263672"/>
     <use xlink:href="#DejaVuSans-20" x="822.363281"/>
     <use xlink:href="#DejaVuSans-69" x="854.150391"/>
     <use xlink:href="#DejaVuSans-6e" x="881.933594"/>
     <use xlink:href="#DejaVuSans-20" x="945.3125"/>
     <use xlink:href="#DejaVuSans-74" x="977.099609"/>
     <use xlink:href="#DejaVuSans-68" x="1016.308594"/>
     <use xlink:href="#DejaVuSans-65" x="1079.6875"/>
     <use xlink:href="#DejaVuSans-20" x="1141.210938"/>
     <use xlink:href="#DejaVuSans-4f" x="1172.998047"/>
     <use xlink:href="#DejaVuSans-70" x="1251.708984"/>
     <use xlink:href="#DejaVuSans-65" x="1315.185547"/>
     <use xlink:href="#DejaVuSans-6e" x="1376.708984"/>
     <use xlink:href="#DejaVuSans-53" x="1440.087891"/>
     <use xlink:href="#DejaVuSans-74" x="1503.564453"/>
     <use xlink:href="#DejaVuSans-72" x="1542.773438"/>
     <use xlink:href="#DejaVuSans-65" x="1581.636719"/>
     <use xlink:href="#DejaVuSans-65" x="1643.160156"/>
     <use xlink:href="#DejaVuSans-74" x="1704.683594"/>
     <use xlink:href="#DejaVuSans-4d" x="1743.892578"/>
     <use xlink:href="#DejaVuSans-61" x="1830.171875"/>
     <use xlink:href="#DejaVuSans-70" x="1891.451172"/>
     <use xlink:href="#DejaVuSans-20" x="1954.927734"/>
     <use xlink:href="#DejaVuSans-64" x="1986.714844"/>
     <use xlink:href="#DejaVuSans-61" x="2050.191406"/>
     <use xlink:href="#DejaVuSans-74" x="2111.470703"/>
     <use xlink:href="#DejaVuSans-61" x="2150.679688"/>
     <use xlink:href="#DejaVuSans-62" x="2211.958984"/>
     <use xlink:href="#DejaVuSans-61" x="2275.435547"/>
     <use xlink:href="#DejaVuSans-73" x="2336.714844"/>
     <use xlink:href="#DejaVuSans-65" x="2388.814453"/>
     <use xlink:href="#DejaVuSans-20" x="2450.337891"/>
     <use xlink:href="#DejaVuSans-69" x="2482.125"/>
     <use xlink:href="#DejaVuSans-6e" x="2509.908203"/>
     <use xlink:href="#DejaVuSans-20" x="2573.287109"/>
     <use xlink:href="#DejaVuSans-50" x="2605.074219"/>
     <use xlink:href="#DejaVuSans-6f" x="2661.751953"/>
     <use xlink:href="#DejaVuSans-6c" x="2722.933594"/>
     <use xlink:href="#DejaVuSans-61" x="2750.716797"/>
     <use xlink:href="#DejaVuSans-6e" x="2811.996094"/>
     <use xlink:href="#DejaVuSans-64" x="2875.375"/>
     <use xlink:href="#DejaVuSans-20" x="2938.851562"/>
     <use xlink:href="#DejaVuSans-66" x="2970.638672"/>
     <use xlink:href="#DejaVuSans-72" x="3005.84375"/>
     <use xlink:href="#DejaVuSans-6f" x="3044.707031"/>
     <use xlink:href="#DejaVuSans-6d" x="3105.888672"/>
     <use xlink:href="#DejaVuSans-20" x="3203.300781"/>
     <use xlink:href="#DejaVuSans-66" x="3235.087891"/>
     <use xlink:href="#DejaVuSans-69" x="3270.292969"/>
     <use xlink:href="#DejaVuSans-72" x="3298.076172"/>
     <use xlink:href="#DejaVuSans-73" x="3339.189453"/>
     <use xlink:href="#DejaVuSans-74" x="3391.289062"/>
     <use xlink:href="#DejaVuSans-20" x="3430.498047"/>
     <use xlink:href="#DejaVuSans-65" x="3462.285156"/>
     <use xlink:href="#DejaVuSans-64" x="3523.808594"/>
     <use xlink:href="#DejaVuSans-69" x="3587.285156"/>
     <use xlink:href="#DejaVuSans-74" x="3615.068359"/>
     <use xlink:href="#DejaVuSans-69" x="3654.277344"/>
     <use xlink:href="#DejaVuSans-6f" x="3682.060547"/>
     <use xlink:href="#DejaVuSans-6e" x="3743.242188"/>
     <use xlink:href="#DejaVuSans-2c" x="3806.621094"/>
     <use xlink:href="#DejaVuSans-20" x="3838.408203"/>
     <use xlink:href="#DejaVuSans-64" x="3870.195312"/>
     <use xlink:href="#DejaVuSans-61" x="3933.671875"/>
     <use xlink:href="#DejaVuSans-79" x="3994.951172"/>
     <use xlink:href="#DejaVuSans-20" x="4054.130859"/>
     <use xlink:href="#DejaVuSans-62" x="4085.917969"/>
     <use xlink:href="#DejaVuSans-79" x="4149.394531"/>
     <use xlink:href="#DejaVuSans-20" x="4208.574219"/>
     <use xlink:href="#DejaVuSans-64" x="4240.361328"/>
     <use xlink:href="#DejaVuSans-61" x="4303.837891"/>
     <use xlink:href="#DejaVuSans-79" x="4365.117188"/>
     <use xlink:href="#DejaVuSans-2e" x="4410.046875"/>
     <use xlink:href="#DejaVuSans-20" x="4441.833984"/>
     <use xlink:href="#DejaVuSans-41" x="4473.621094"/>
     <use xlink:href="#DejaVuSans-73" x="4542.029297"/>
     <use xlink:href="#DejaVuSans-20" x="4594.128906"/>
     <use xlink:href="#DejaVuSans-61" x="4625.916016"/>
     <use xlink:href="#DejaVuSans-74" x="4687.195312"/>
     <use xlink:href="#DejaVuSans-3a" x="4726.404297"/>
     <use xlink:href="#DejaVuSans-20" x="4760.095703"/>
     <use xlink:href="#DejaVuSans-32" x="4791.882812"/>
     <use xlink:href="#DejaVuSans-30" x="4855.505859"/>
     <use xlink:href="#DejaVuSans-32" x="4919.128906"/>
     <use xlink:href="#DejaVuSans-35" x="4982.751953"/>
     <use xlink:href="#DejaVuSans-2d" x="5046.375"/>
     <use xlink:href="#DejaVuSans-30" x="5082.458984"/>
     <use xlink:href="#DejaVuSans-31" x="5146.082031"/>
     <use xlink:href="#DejaVuSans-2d" x="5209.705078"/>
     <use xlink:href="#DejaVuSans-30" x="5245.789062"/>
     <use xlink:href="#DejaVuSans-32" x="5309.412109"/>
    </g>
   </g>
  </g>
 </g>
 <defs>
  <clipPath id="p59cb75e8ce">
   <rect x="144" y="69.12" width="892.8" height="443.52"/>
  </clipPath>
 </defs>
</svg>
