<?xml version="1.0" encoding="utf-8" standalone="no"?>
<!DOCTYPE svg PUBLIC "-//W3C//DTD SVG 1.1//EN"
  "http://www.w3.org/Graphics/SVG/1.1/DTD/svg11.dtd">
<svg xmlns:xlink="http://www.w3.org/1999/xlink" width="1152pt" height="576pt" viewBox="0 0 1152 576" xmlns="http://www.w3.org/2000/svg" version="1.1">
 <metadata>
  <rdf:RDF xmlns:dc="http://purl.org/dc/elements/1.1/" xmlns:cc="http://creativecommons.org/ns#" xmlns:rdf="http://www.w3.org/1999/02/22-rdf-syntax-ns#">
   <cc:Work>
    <dc:type rdf:resource="http://purl.org/dc/dcmitype/StillImage"/>
    <dc:date>1980-01-01T00:00:00+00:00</dc:date>
    <dc:format>image/svg+xml</dc:format>
    <dc:creator>
     <cc:Agent>
      <dc:title>Matplotlib v3.9.1, https://matplotlib.org/</dc:title>
     </cc:Agent>
    </dc:creator>
   </cc:Work>
  </rdf:RDF>
 </metadata>
 <defs>
  <style type="text/css">*{stroke-linejoin: round; stroke-linecap: butt}</style>
 </defs>
 <g id="figure_1">
  <g id="patch_1">
   <path d="M 0 576 
L 1152 576 
L 1152 0 
L 0 0 
z
" style="fill: #ffffff"/>
  </g>
  <g id="axes_1">
   <g id="patch_2">
    <path d="M 144 512.64 
L 1036.8 512.64 
L 1036.8 69.12 
L 144 69.12 
z
" style="fill: #ffffff"/>
   </g>
   <g id="matplotlib.axis_1">
    <g id="xtick_1">
     <g id="line2d_1">
      <defs>
       <path id="m731ebef6e9" d="M 0 0 
L 0 3.5 
" style="stroke: #000000; stroke-width: 0.8"/>
      </defs>
      <g>
       <use xlink:href="#m731ebef6e9" x="176.855627" y="512.64" style="stroke: #000000; stroke-width: 0.8"/>
      </g>
     </g>
     <g id="text_1">
      <!-- 2014 -->
      <g transform="translate(164.130627 527.238438) scale(0.1 -0.1)">
       <defs>
        <path id="DejaVuSans-32" d="M 1228 531 
L 3431 531 
L 3431 0 
L 469 0 
L 469 531 
Q 828 903 1448 1529 
Q 2069 2156 2228 2338 
Q 2531 2678 2651 2914 
Q 2772 3150 2772 3378 
Q 2772 3750 2511 3984 
Q 2250 4219 1831 4219 
Q 1534 4219 1204 4116 
Q 875 4013 500 3803 
L 500 4441 
Q 881 4594 1212 4672 
Q 1544 4750 1819 4750 
Q 2544 4750 2975 4387 
Q 3406 4025 3406 3419 
Q 3406 3131 3298 2873 
Q 3191 2616 2906 2266 
Q 2828 2175 2409 1742 
Q 1991 1309 1228 531 
z
" transform="scale(0.015625)"/>
        <path id="DejaVuSans-30" d="M 2034 4250 
Q 1547 4250 1301 3770 
Q 1056 3291 1056 2328 
Q 1056 1369 1301 889 
Q 1547 409 2034 409 
Q 2525 409 2770 889 
Q 3016 1369 3016 2328 
Q 3016 3291 2770 3770 
Q 2525 4250 2034 4250 
z
M 2034 4750 
Q 2819 4750 3233 4129 
Q 3647 3509 3647 2328 
Q 3647 1150 3233 529 
Q 2819 -91 2034 -91 
Q 1250 -91 836 529 
Q 422 1150 422 2328 
Q 422 3509 836 4129 
Q 1250 4750 2034 4750 
z
" transform="scale(0.015625)"/>
        <path id="DejaVuSans-31" d="M 794 531 
L 1825 531 
L 1825 4091 
L 703 3866 
L 703 4441 
L 1819 4666 
L 2450 4666 
L 2450 531 
L 3481 531 
L 3481 0 
L 794 0 
L 794 531 
z
" transform="scale(0.015625)"/>
        <path id="DejaVuSans-34" d="M 2419 4116 
L 825 1625 
L 2419 1625 
L 2419 4116 
z
M 2253 4666 
L 3047 4666 
L 3047 1625 
L 3713 1625 
L 3713 1100 
L 3047 1100 
L 3047 0 
L 2419 0 
L 2419 1100 
L 313 1100 
L 313 1709 
L 2253 4666 
z
" transform="scale(0.015625)"/>
       </defs>
       <use xlink:href="#DejaVuSans-32"/>
       <use xlink:href="#DejaVuSans-30" x="63.623047"/>
       <use xlink:href="#DejaVuSans-31" x="127.246094"/>
       <use xlink:href="#DejaVuSans-34" x="190.869141"/>
      </g>
     </g>
    </g>
    <g id="xtick_2">
     <g id="line2d_2">
      <g>
       <use xlink:href="#m731ebef6e9" x="317.858613" y="512.64" style="stroke: #000000; stroke-width: 0.8"/>
      </g>
     </g>
     <g id="text_2">
      <!-- 2016 -->
      <g transform="translate(305.133613 527.238438) scale(0.1 -0.1)">
       <defs>
        <path id="DejaVuSans-36" d="M 2113 2584 
Q 1688 2584 1439 2293 
Q 1191 2003 1191 1497 
Q 1191 994 1439 701 
Q 1688 409 2113 409 
Q 2538 409 2786 701 
Q 3034 994 3034 1497 
Q 3034 2003 2786 2293 
Q 2538 2584 2113 2584 
z
M 3366 4563 
L 3366 3988 
Q 3128 4100 2886 4159 
Q 2644 4219 2406 4219 
Q 1781 4219 1451 3797 
Q 1122 3375 1075 2522 
Q 1259 2794 1537 2939 
Q 1816 3084 2150 3084 
Q 2853 3084 3261 2657 
Q 3669 2231 3669 1497 
Q 3669 778 3244 343 
Q 2819 -91 2113 -91 
Q 1303 -91 875 529 
Q 447 1150 447 2328 
Q 447 3434 972 4092 
Q 1497 4750 2381 4750 
Q 2619 4750 2861 4703 
Q 3103 4656 3366 4563 
z
" transform="scale(0.015625)"/>
       </defs>
       <use xlink:href="#DejaVuSans-32"/>
       <use xlink:href="#DejaVuSans-30" x="63.623047"/>
       <use xlink:href="#DejaVuSans-31" x="127.246094"/>
       <use xlink:href="#DejaVuSans-36" x="190.869141"/>
      </g>
     </g>
    </g>
    <g id="xtick_3">
     <g id="line2d_3">
      <g>
       <use xlink:href="#m731ebef6e9" x="459.054753" y="512.64" style="stroke: #000000; stroke-width: 0.8"/>
      </g>
     </g>
     <g id="text_3">
      <!-- 2018 -->
      <g transform="translate(446.329753 527.238438) scale(0.1 -0.1)">
       <defs>
        <path id="DejaVuSans-38" d="M 2034 2216 
Q 1584 2216 1326 1975 
Q 1069 1734 1069 1313 
Q 1069 891 1326 650 
Q 1584 409 2034 409 
Q 2484 409 2743 651 
Q 3003 894 3003 1313 
Q 3003 1734 2745 1975 
Q 2488 2216 2034 2216 
z
M 1403 2484 
Q 997 2584 770 2862 
Q 544 3141 544 3541 
Q 544 4100 942 4425 
Q 1341 4750 2034 4750 
Q 2731 4750 3128 4425 
Q 3525 4100 3525 3541 
Q 3525 3141 3298 2862 
Q 3072 2584 2669 2484 
Q 3125 2378 3379 2068 
Q 3634 1759 3634 1313 
Q 3634 634 3220 271 
Q 2806 -91 2034 -91 
Q 1263 -91 848 271 
Q 434 634 434 1313 
Q 434 1759 690 2068 
Q 947 2378 1403 2484 
z
M 1172 3481 
Q 1172 3119 1398 2916 
Q 1625 2713 2034 2713 
Q 2441 2713 2670 2916 
Q 2900 3119 2900 3481 
Q 2900 3844 2670 4047 
Q 2441 4250 2034 4250 
Q 1625 4250 1398 4047 
Q 1172 3844 1172 3481 
z
" transform="scale(0.015625)"/>
       </defs>
       <use xlink:href="#DejaVuSans-32"/>
       <use xlink:href="#DejaVuSans-30" x="63.623047"/>
       <use xlink:href="#DejaVuSans-31" x="127.246094"/>
       <use xlink:href="#DejaVuSans-38" x="190.869141"/>
      </g>
     </g>
    </g>
    <g id="xtick_4">
     <g id="line2d_4">
      <g>
       <use xlink:href="#m731ebef6e9" x="600.057739" y="512.64" style="stroke: #000000; stroke-width: 0.8"/>
      </g>
     </g>
     <g id="text_4">
      <!-- 2020 -->
      <g transform="translate(587.332739 527.238438) scale(0.1 -0.1)">
       <use xlink:href="#DejaVuSans-32"/>
       <use xlink:href="#DejaVuSans-30" x="63.623047"/>
       <use xlink:href="#DejaVuSans-32" x="127.246094"/>
       <use xlink:href="#DejaVuSans-30" x="190.869141"/>
      </g>
     </g>
    </g>
    <g id="xtick_5">
     <g id="line2d_5">
      <g>
       <use xlink:href="#m731ebef6e9" x="741.253879" y="512.64" style="stroke: #000000; stroke-width: 0.8"/>
      </g>
     </g>
     <g id="text_5">
      <!-- 2022 -->
      <g transform="translate(728.528879 527.238438) scale(0.1 -0.1)">
       <use xlink:href="#DejaVuSans-32"/>
       <use xlink:href="#DejaVuSans-30" x="63.623047"/>
       <use xlink:href="#DejaVuSans-32" x="127.246094"/>
       <use xlink:href="#DejaVuSans-32" x="190.869141"/>
      </g>
     </g>
    </g>
    <g id="xtick_6">
     <g id="line2d_6">
      <g>
       <use xlink:href="#m731ebef6e9" x="882.256865" y="512.64" style="stroke: #000000; stroke-width: 0.8"/>
      </g>
     </g>
     <g id="text_6">
      <!-- 2024 -->
      <g transform="translate(869.531865 527.238438) scale(0.1 -0.1)">
       <use xlink:href="#DejaVuSans-32"/>
       <use xlink:href="#DejaVuSans-30" x="63.623047"/>
       <use xlink:href="#DejaVuSans-32" x="127.246094"/>
       <use xlink:href="#DejaVuSans-34" x="190.869141"/>
      </g>
     </g>
    </g>
    <g id="xtick_7">
     <g id="line2d_7">
      <g>
       <use xlink:href="#m731ebef6e9" x="1023.453005" y="512.64" style="stroke: #000000; stroke-width: 0.8"/>
      </g>
     </g>
     <g id="text_7">
      <!-- 2026 -->
      <g transform="translate(1010.728005 527.238438) scale(0.1 -0.1)">
       <use xlink:href="#DejaVuSans-32"/>
       <use xlink:href="#DejaVuSans-30" x="63.623047"/>
       <use xlink:href="#DejaVuSans-32" x="127.246094"/>
       <use xlink:href="#DejaVuSans-36" x="190.869141"/>
      </g>
     </g>
    </g>
   </g>
   <g id="matplotlib.axis_2">
    <g id="ytick_1">
     <g id="line2d_8">
      <defs>
       <path id="m802c268b0d" d="M 0 0 
L -3.5 0 
" style="stroke: #000000; stroke-width: 0.8"/>
      </defs>
      <g>
       <use xlink:href="#m802c268b0d" x="144" y="492.514801" style="stroke: #000000; stroke-width: 0.8"/>
      </g>
     </g>
     <g id="text_8">
      <!-- 0 -->
      <g transform="translate(130.6375 496.314019) scale(0.1 -0.1)">
       <use xlink:href="#DejaVuSans-30"/>
      </g>
     </g>
    </g>
    <g id="ytick_2">
     <g id="line2d_9">
      <g>
       <use xlink:href="#m802c268b0d" x="144" y="422.913558" style="stroke: #000000; stroke-width: 0.8"/>
      </g>
     </g>
     <g id="text_9">
      <!-- 2000 -->
      <g transform="translate(111.55 426.712776) scale(0.1 -0.1)">
       <use xlink:href="#DejaVuSans-32"/>
       <use xlink:href="#DejaVuSans-30" x="63.623047"/>
       <use xlink:href="#DejaVuSans-30" x="127.246094"/>
       <use xlink:href="#DejaVuSans-30" x="190.869141"/>
      </g>
     </g>
    </g>
    <g id="ytick_3">
     <g id="line2d_10">
      <g>
       <use xlink:href="#m802c268b0d" x="144" y="353.312315" style="stroke: #000000; stroke-width: 0.8"/>
      </g>
     </g>
     <g id="text_10">
      <!-- 4000 -->
      <g transform="translate(111.55 357.111534) scale(0.1 -0.1)">
       <use xlink:href="#DejaVuSans-34"/>
       <use xlink:href="#DejaVuSans-30" x="63.623047"/>
       <use xlink:href="#DejaVuSans-30" x="127.246094"/>
       <use xlink:href="#DejaVuSans-30" x="190.869141"/>
      </g>
     </g>
    </g>
    <g id="ytick_4">
     <g id="line2d_11">
      <g>
       <use xlink:href="#m802c268b0d" x="144" y="283.711072" style="stroke: #000000; stroke-width: 0.8"/>
      </g>
     </g>
     <g id="text_11">
      <!-- 6000 -->
      <g transform="translate(111.55 287.510291) scale(0.1 -0.1)">
       <use xlink:href="#DejaVuSans-36"/>
       <use xlink:href="#DejaVuSans-30" x="63.623047"/>
       <use xlink:href="#DejaVuSans-30" x="127.246094"/>
       <use xlink:href="#DejaVuSans-30" x="190.869141"/>
      </g>
     </g>
    </g>
    <g id="ytick_5">
     <g id="line2d_12">
      <g>
       <use xlink:href="#m802c268b0d" x="144" y="214.109829" style="stroke: #000000; stroke-width: 0.8"/>
      </g>
     </g>
     <g id="text_12">
      <!-- 8000 -->
      <g transform="translate(111.55 217.909048) scale(0.1 -0.1)">
       <use xlink:href="#DejaVuSans-38"/>
       <use xlink:href="#DejaVuSans-30" x="63.623047"/>
       <use xlink:href="#DejaVuSans-30" x="127.246094"/>
       <use xlink:href="#DejaVuSans-30" x="190.869141"/>
      </g>
     </g>
    </g>
    <g id="ytick_6">
     <g id="line2d_13">
      <g>
       <use xlink:href="#m802c268b0d" x="144" y="144.508586" style="stroke: #000000; stroke-width: 0.8"/>
      </g>
     </g>
     <g id="text_13">
      <!-- 10000 -->
      <g transform="translate(105.1875 148.307805) scale(0.1 -0.1)">
       <use xlink:href="#DejaVuSans-31"/>
       <use xlink:href="#DejaVuSans-30" x="63.623047"/>
       <use xlink:href="#DejaVuSans-30" x="127.246094"/>
       <use xlink:href="#DejaVuSans-30" x="190.869141"/>
       <use xlink:href="#DejaVuSans-30" x="254.492188"/>
      </g>
     </g>
    </g>
    <g id="ytick_7">
     <g id="line2d_14">
      <g>
       <use xlink:href="#m802c268b0d" x="144" y="74.907343" style="stroke: #000000; stroke-width: 0.8"/>
      </g>
     </g>
     <g id="text_14">
      <!-- 12000 -->
      <g transform="translate(105.1875 78.706562) scale(0.1 -0.1)">
       <use xlink:href="#DejaVuSans-31"/>
       <use xlink:href="#DejaVuSans-32" x="63.623047"/>
       <use xlink:href="#DejaVuSans-30" x="127.246094"/>
       <use xlink:href="#DejaVuSans-30" x="190.869141"/>
       <use xlink:href="#DejaVuSans-30" x="254.492188"/>
      </g>
     </g>
    </g>
   </g>
   <g id="line2d_15">
    <path d="M 184.581818 492.48 
L 186.320211 492.410399 
L 307.041945 492.201595 
L 448.431241 492.027592 
L 500.969339 491.818788 
L 514.683328 491.714386 
L 547.51964 491.540383 
L 549.064878 491.470782 
L 557.949998 491.36638 
L 600.250894 491.157576 
L 606.431846 491.087975 
L 606.818156 490.80957 
L 610.874406 490.635567 
L 644.869646 490.496365 
L 648.732742 490.391963 
L 664.571434 490.21796 
L 683.886911 490.043956 
L 692.965185 489.765552 
L 700.691376 489.591548 
L 703.588698 489.382745 
L 704.940781 489.208742 
L 712.473818 488.999938 
L 716.530068 488.860735 
L 722.904176 488.408327 
L 732.948224 488.164723 
L 738.936022 486.459492 
L 739.515486 486.424692 
L 740.288105 485.867882 
L 740.48126 484.997866 
L 740.86757 484.789063 
L 741.060724 484.754262 
L 741.253879 483.571041 
L 742.412808 483.083832 
L 742.799117 482.492222 
L 743.185427 482.248617 
L 743.378582 481.691807 
L 743.571736 480.404184 
L 743.764891 480.056178 
L 743.958046 479.325365 
L 744.151201 478.142144 
L 744.344356 476.123708 
L 744.730665 474.696882 
L 744.92382 474.418477 
L 745.116975 469.755194 
L 745.310129 467.875961 
L 745.503284 467.179948 
L 745.696439 463.839089 
L 746.275903 459.941419 
L 746.469058 459.837017 
L 746.855368 457.853382 
L 747.048522 457.19217 
L 747.241677 452.111279 
L 747.434832 451.658871 
L 747.821141 449.988441 
L 748.014296 449.884039 
L 748.207451 449.014024 
L 748.400606 445.394759 
L 748.593761 444.489943 
L 748.786915 444.420342 
L 748.98007 441.775495 
L 749.173225 441.253485 
L 749.559534 441.079482 
L 750.332154 438.434635 
L 750.718463 437.738622 
L 751.104773 435.685386 
L 751.297927 434.884972 
L 751.491082 430.987302 
L 752.070546 426.672025 
L 752.650011 426.463221 
L 753.03632 426.219617 
L 753.808939 424.792791 
L 754.195249 424.653589 
L 754.581559 421.660735 
L 754.774713 421.625935 
L 755.161023 421.103925 
L 755.354178 419.607499 
L 755.547332 419.189891 
L 755.740487 419.050689 
L 755.933642 418.702683 
L 756.126797 418.111072 
L 756.706261 417.867468 
L 756.899416 417.623863 
L 757.47888 415.431424 
L 757.672035 415.292222 
L 758.058345 414.735412 
L 758.830964 414.352605 
L 759.024118 412.925779 
L 759.217273 412.821378 
L 759.410428 412.542973 
L 759.603583 409.793723 
L 759.989892 409.689322 
L 760.376202 408.958509 
L 760.569357 408.262496 
L 761.148821 408.123294 
L 761.728285 407.044474 
L 761.92144 407.009674 
L 762.30775 406.418063 
L 762.694059 406.278861 
L 762.887214 403.077204 
L 764.046143 402.798799 
L 764.432452 402.520394 
L 765.205071 402.415992 
L 765.398226 402.207188 
L 767.716083 401.511176 
L 768.488702 400.954366 
L 769.454476 400.815163 
L 769.840786 400.536758 
L 770.227095 400.397556 
L 772.158643 399.875546 
L 772.931262 396.917494 
L 773.897036 396.778291 
L 774.090191 396.70869 
L 775.635429 396.534687 
L 776.214893 396.325883 
L 776.408048 395.769073 
L 777.373822 395.699472 
L 777.953286 395.386266 
L 778.91906 395.03826 
L 779.112215 395.003459 
L 779.498525 394.620653 
L 779.884834 394.516251 
L 780.077989 394.272646 
L 780.850608 393.994241 
L 781.816382 393.855039 
L 782.009537 393.611434 
L 782.395846 393.576634 
L 782.589001 393.019824 
L 782.782156 392.950223 
L 782.97531 392.149808 
L 785.293168 391.627799 
L 785.872632 391.488597 
L 786.065787 391.070989 
L 787.41787 390.722983 
L 787.997335 390.514179 
L 788.769954 390.340176 
L 789.542573 390.131372 
L 790.508347 389.922569 
L 791.087811 389.748566 
L 792.439894 388.948151 
L 792.633049 388.252139 
L 793.598823 387.451724 
L 793.791978 387.103718 
L 794.757752 386.268503 
L 795.144061 385.53769 
L 795.337216 385.50289 
L 795.530371 384.806877 
L 796.30299 383.762859 
L 796.689299 383.588856 
L 797.075609 383.519254 
L 797.268764 383.206049 
L 797.655073 383.032046 
L 797.848228 382.684039 
L 798.814002 382.440435 
L 799.007157 382.127229 
L 800.35924 381.814024 
L 800.74555 381.640021 
L 800.938705 381.60522 
L 801.131859 381.431217 
L 802.097633 381.292015 
L 803.449717 380.665603 
L 804.029181 380.526401 
L 804.41549 379.725987 
L 804.8018 379.482382 
L 805.767574 378.716769 
L 805.960729 377.916354 
L 806.733348 377.67275 
L 807.892276 377.289943 
L 808.471741 376.55913 
L 808.85805 376.350326 
L 809.051205 376.315526 
L 809.437515 375.758716 
L 810.016979 375.549912 
L 810.403288 375.236706 
L 810.982753 374.993102 
L 811.369062 371.095432 
L 811.562217 369.84261 
L 811.755372 367.684972 
L 811.948527 367.406567 
L 812.721146 364.726919 
L 813.107455 364.030906 
L 813.30061 363.926504 
L 813.493765 363.6829 
L 813.68692 363.230492 
L 813.880074 361.664464 
L 814.073229 361.281657 
L 814.459539 361.142455 
L 815.618467 358.776012 
L 815.811622 358.602009 
L 816.004777 357.662393 
L 816.197932 357.314386 
L 816.584241 356.40957 
L 816.970551 355.85276 
L 817.74317 355.400352 
L 817.936325 355.191548 
L 818.129479 354.077929 
L 818.515789 353.903925 
L 818.902099 353.521119 
L 819.481563 352.720704 
L 819.674718 351.989891 
L 819.867872 351.955091 
L 820.447337 351.259078 
L 820.833646 351.189477 
L 821.026801 350.841471 
L 821.413111 350.632667 
L 822.378885 349.553848 
L 822.572039 348.962237 
L 824.117277 347.46581 
L 824.503587 346.108586 
L 825.662516 345.482175 
L 826.24198 344.577359 
L 827.207754 343.011331 
L 827.594063 342.802527 
L 828.366683 342.663325 
L 828.946147 341.549705 
L 829.718766 341.3061 
L 830.491385 340.401284 
L 830.877695 340.331683 
L 831.264004 339.914076 
L 831.843468 339.670471 
L 832.229778 339.635671 
L 832.422933 339.426867 
L 832.616088 338.800456 
L 833.388707 338.556851 
L 833.581861 338.208845 
L 833.775016 338.174045 
L 833.968171 337.547633 
L 834.547635 337.304029 
L 835.1271 337.164827 
L 835.513409 336.81682 
L 836.479183 336.329612 
L 836.865493 336.016406 
L 837.251802 335.772802 
L 837.638112 335.738001 
L 837.831266 334.798384 
L 838.217576 334.485179 
L 838.79704 334.206774 
L 839.376505 333.858767 
L 840.149124 333.719565 
L 840.342279 332.745148 
L 841.694362 332.083936 
L 841.887517 332.049135 
L 842.080672 331.875132 
L 842.466981 331.805531 
L 842.660136 331.492325 
L 843.432755 331.17912 
L 843.62591 330.796313 
L 844.012219 330.761512 
L 844.398529 330.517908 
L 844.977993 330.204702 
L 845.171148 329.717494 
L 845.943767 329.334687 
L 846.136922 329.056282 
L 846.523231 328.95188 
L 846.716386 328.708276 
L 847.29585 328.429871 
L 847.489005 328.116665 
L 847.68216 328.047064 
L 848.06847 327.768659 
L 848.454779 327.594656 
L 848.647934 327.385852 
L 849.806863 327.037846 
L 850.000017 326.655039 
L 850.193172 326.550637 
L 851.158946 326.307033 
L 851.545256 325.993827 
L 851.931565 325.854625 
L 852.511029 325.680621 
L 852.704184 325.367416 
L 853.090494 325.297815 
L 853.283648 324.671403 
L 853.476803 324.532201 
L 853.863113 324.079793 
L 854.056268 323.035774 
L 854.442577 322.79217 
L 854.635732 322.652967 
L 854.828887 322.374562 
L 855.215196 322.130958 
L 855.987815 321.434946 
L 856.374125 321.260943 
L 856.56728 320.843335 
L 856.760434 320.773734 
L 857.146744 320.356126 
L 857.533054 320.112522 
L 858.112518 319.938519 
L 858.498827 319.486111 
L 860.62353 317.641678 
L 861.589304 317.398074 
L 862.168768 316.66726 
L 862.555078 316.249653 
L 863.134542 315.936447 
L 863.907161 315.623242 
L 864.100316 315.449239 
L 864.872935 315.136033 
L 865.259245 314.788027 
L 865.838709 314.579223 
L 866.418173 314.231217 
L 866.997637 313.987613 
L 867.190792 313.81361 
L 869.315495 312.978395 
L 869.50865 312.630388 
L 870.860733 312.073578 
L 871.440197 311.690772 
L 872.019662 311.412367 
L 872.212816 311.203563 
L 872.985436 310.994759 
L 873.17859 310.542351 
L 873.371745 308.976323 
L 873.758055 308.558716 
L 873.951209 308.523915 
L 875.110138 306.992688 
L 875.496448 305.948669 
L 875.882757 305.600663 
L 876.269067 305.357059 
L 876.655376 305.252657 
L 876.848531 304.974252 
L 877.234841 304.765448 
L 877.62115 304.417442 
L 878.00746 304.243439 
L 878.200614 304.173837 
L 878.586924 303.75623 
L 878.780079 303.721429 
L 878.973234 303.303822 
L 879.552698 303.095018 
L 879.939007 302.573009 
L 880.518472 302.120601 
L 880.904781 301.737794 
L 881.484246 301.633392 
L 881.6774 301.320186 
L 882.256865 301.111383 
L 882.643174 299.580155 
L 883.029484 299.232149 
L 883.802103 298.953744 
L 884.188412 298.675339 
L 884.381567 298.15333 
L 884.767877 298.014127 
L 884.961032 297.526919 
L 885.154186 297.422517 
L 885.540496 297.004909 
L 885.733651 296.796106 
L 886.313115 296.587302 
L 886.699425 296.274096 
L 886.892579 296.239296 
L 887.085734 296.030492 
L 887.278889 295.995691 
L 888.051508 295.508483 
L 888.437817 294.638467 
L 888.630972 294.534065 
L 889.017282 294.464464 
L 889.210437 294.081657 
L 889.596746 293.907654 
L 889.983056 293.69885 
L 890.17621 293.072439 
L 890.94883 292.620031 
L 891.141984 291.99362 
L 891.914603 291.332408 
L 892.107758 291.297607 
L 892.494068 290.775598 
L 892.880377 290.462393 
L 893.073532 290.392791 
L 893.266687 290.044785 
L 893.652996 289.905583 
L 893.846151 289.244371 
L 894.232461 289.139969 
L 894.425616 288.826763 
L 894.61877 288.757162 
L 894.811925 288.026349 
L 895.198235 287.921947 
L 895.584544 287.678343 
L 895.970854 287.121533 
L 896.164008 286.98233 
L 896.936628 285.799109 
L 897.129782 285.729508 
L 897.516092 285.311901 
L 898.288711 284.755091 
L 898.868175 284.476686 
L 900.606568 282.667053 
L 900.992878 282.527851 
L 901.379187 282.110243 
L 901.765497 281.971041 
L 901.958652 281.170627 
L 902.538116 280.613817 
L 902.731271 279.917804 
L 903.11758 279.534997 
L 903.310735 279.152191 
L 903.50389 279.11739 
L 904.469664 278.177773 
L 905.049128 277.829767 
L 905.242283 277.551362 
L 906.401212 277.168555 
L 906.980676 276.437742 
L 907.366985 275.77653 
L 907.753295 275.637328 
L 907.94645 275.324122 
L 908.139605 275.254521 
L 908.332759 275.010917 
L 908.525914 274.976116 
L 908.719069 274.593309 
L 909.491688 274.0713 
L 910.071152 273.618892 
L 910.843771 273.236085 
L 911.423236 272.748876 
L 912.0027 272.470471 
L 912.195855 272.157266 
L 912.582164 272.087664 
L 913.161629 271.530854 
L 913.354783 271.217649 
L 913.934248 270.939244 
L 914.320557 270.626038 
L 914.900022 270.452035 
L 915.286331 270.034428 
L 916.252105 269.477618 
L 916.44526 269.234013 
L 917.217879 268.886007 
L 917.411034 267.285179 
L 918.376808 266.589166 
L 919.149427 265.197141 
L 919.342581 265.09274 
L 919.535736 264.640331 
L 919.922046 264.501129 
L 920.694665 263.317908 
L 921.080974 261.682279 
L 921.274129 261.125469 
L 921.660439 258.515422 
L 921.853594 257.471403 
L 922.819367 256.218581 
L 923.591986 253.121326 
L 923.785141 252.947323 
L 923.978296 252.460114 
L 924.171451 250.754883 
L 924.364606 250.128472 
L 924.55776 250.058871 
L 924.750915 249.293257 
L 925.330379 248.806049 
L 925.716689 247.483625 
L 926.682463 246.961616 
L 926.875618 246.61361 
L 927.841392 246.0916 
L 928.227701 245.673993 
L 928.420856 245.291186 
L 928.614011 244.316769 
L 928.807165 243.933962 
L 929.193475 243.794759 
L 929.579785 243.620756 
L 929.966094 243.342351 
L 930.352404 243.098747 
L 931.125023 242.855142 
L 931.511332 242.611538 
L 931.704487 242.472336 
L 932.090797 242.437535 
L 935.181273 239.757887 
L 935.567583 239.583884 
L 935.760737 238.748669 
L 936.340202 238.157059 
L 936.726511 238.052657 
L 937.88544 237.11304 
L 938.271749 236.939037 
L 938.464904 236.869436 
L 938.851214 236.451828 
L 939.237523 236.347426 
L 939.430678 235.860218 
L 939.623833 235.686214 
L 939.816988 235.129404 
L 940.203297 234.8858 
L 940.782761 233.598177 
L 940.975916 232.902165 
L 941.555381 232.484557 
L 942.134845 231.718944 
L 942.521154 230.361719 
L 942.714309 229.944112 
L 942.907464 229.213299 
L 943.100619 229.143698 
L 943.293774 228.552087 
L 943.680083 228.308483 
L 944.839012 227.090461 
L 945.032167 226.603252 
L 945.611631 226.324847 
L 945.804786 225.837639 
L 946.577405 225.524433 
L 946.770559 225.280829 
L 946.963714 225.246028 
L 947.156869 224.515215 
L 947.543179 224.271611 
L 947.736333 223.819202 
L 947.929488 223.68 
L 948.315798 223.645199 
L 949.474726 222.740383 
L 950.054191 222.287975 
L 950.4405 221.835567 
L 950.82681 221.45276 
L 951.019965 221.104754 
L 951.213119 220.33914 
L 952.372048 219.677929 
L 952.758357 218.842714 
L 953.144667 218.703511 
L 953.337822 218.181502 
L 953.530977 218.111901 
L 954.110441 217.450689 
L 954.49675 217.102683 
L 955.848834 216.023863 
L 956.428298 215.397452 
L 957.007763 214.631838 
L 957.200917 214.14463 
L 957.394072 213.309415 
L 957.780382 212.648203 
L 957.973536 212.195795 
L 958.93931 207.149705 
L 959.132465 206.8713 
L 959.32562 206.384091 
L 959.518775 204.504858 
L 959.711929 200.885593 
L 959.905084 199.458767 
L 960.098239 197.161926 
L 960.291394 196.570316 
L 960.677703 193.960269 
L 961.064013 190.410606 
L 961.450322 185.642921 
L 961.836632 184.912108 
L 962.222941 178.752398 
L 962.416096 177.116769 
L 962.802406 170.087043 
L 963.188715 168.729819 
L 963.38187 165.180155 
L 963.575025 164.379741 
L 963.961334 160.447271 
L 964.347644 149.867882 
L 964.733954 148.232253 
L 964.927108 144.960994 
L 965.120263 144.612988 
L 965.506573 139.288493 
L 965.699727 139.184091 
L 965.892882 138.836085 
L 966.279192 137.583263 
L 966.472347 137.270057 
L 966.665501 136.678446 
L 966.858656 135.564827 
L 967.244966 135.356023 
L 967.43812 134.799213 
L 967.82443 133.059182 
L 968.210739 129.57912 
L 968.403894 128.848307 
L 968.597049 128.778705 
L 968.790204 128.4655 
L 969.755978 125.507447 
L 969.949132 125.368244 
L 970.142287 124.637431 
L 970.528597 124.289425 
L 970.721752 124.150223 
L 970.914906 123.628213 
L 971.108061 123.45421 
L 971.687525 122.618995 
L 972.26699 121.74898 
L 972.653299 121.609777 
L 973.619073 120.322154 
L 974.005383 120.148151 
L 974.584847 120.07855 
L 974.971157 119.556541 
L 975.357466 119.452139 
L 975.93693 118.721326 
L 976.70955 118.268918 
L 977.482169 117.2945 
L 977.675323 116.772491 
L 978.447943 116.528887 
L 978.834252 116.18088 
L 979.220562 115.484868 
L 979.606871 115.171662 
L 979.800026 114.928058 
L 979.993181 113.91884 
L 980.37949 113.257628 
L 980.958955 113.014024 
L 981.345264 112.700818 
L 981.731574 112.318011 
L 982.117883 111.970005 
L 982.504193 111.621999 
L 982.890502 111.273993 
L 983.083657 110.438778 
L 983.663121 110.02117 
L 984.435741 109.081554 
L 985.015205 108.594345 
L 985.594669 108.072336 
L 985.980979 107.863532 
L 986.367288 107.550326 
L 986.946753 107.341523 
L 987.333062 106.0887 
L 987.526217 105.984298 
L 988.105681 105.079482 
L 988.685146 104.41827 
L 988.8783 104.313868 
L 989.457765 103.235049 
L 989.650919 102.260632 
L 989.844074 101.947426 
L 990.230384 101.808224 
L 990.423539 101.390616 
L 992.161932 100.033392 
L 992.548241 99.232978 
L 992.741396 99.128576 
L 992.934551 94.8829 
L 993.32086 94.186888 
L 993.70717 93.595277 
L 993.900325 93.073268 
L 994.093479 93.038467 
L 994.479789 92.412056 
L 994.672944 91.681243 
L 995.831872 89.906411 
L 996.025027 89.349601 
L 996.218182 89.28 
L 996.218182 89.28 
" clip-path="url(#pf206448f3e)" style="fill: none; stroke: #1f77b4; stroke-width: 1.5; stroke-linecap: square"/>
   </g>
   <g id="patch_3">
    <path d="M 144 512.64 
L 144 69.12 
" style="fill: none; stroke: #000000; stroke-width: 0.8; stroke-linejoin: miter; stroke-linecap: square"/>
   </g>
   <g id="patch_4">
    <path d="M 1036.8 512.64 
L 1036.8 69.12 
" style="fill: none; stroke: #000000; stroke-width: 0.8; stroke-linejoin: miter; stroke-linecap: square"/>
   </g>
   <g id="patch_5">
    <path d="M 144 512.64 
L 1036.8 512.64 
" style="fill: none; stroke: #000000; stroke-width: 0.8; stroke-linejoin: miter; stroke-linecap: square"/>
   </g>
   <g id="patch_6">
    <path d="M 144 69.12 
L 1036.8 69.12 
" style="fill: none; stroke: #000000; stroke-width: 0.8; stroke-linejoin: miter; stroke-linecap: square"/>
   </g>
   <g id="text_15">
    <!-- Number of AEDs in the OpenStreetMap database in Poland from first edition, day by day. As at: 2025-08-13 -->
    <g transform="translate(144 63.12) scale(0.14 -0.14)">
     <defs>
      <path id="DejaVuSans-4e" d="M 628 4666 
L 1478 4666 
L 3547 763 
L 3547 4666 
L 4159 4666 
L 4159 0 
L 3309 0 
L 1241 3903 
L 1241 0 
L 628 0 
L 628 4666 
z
" transform="scale(0.015625)"/>
      <path id="DejaVuSans-75" d="M 544 1381 
L 544 3500 
L 1119 3500 
L 1119 1403 
Q 1119 906 1312 657 
Q 1506 409 1894 409 
Q 2359 409 2629 706 
Q 2900 1003 2900 1516 
L 2900 3500 
L 3475 3500 
L 3475 0 
L 2900 0 
L 2900 538 
Q 2691 219 2414 64 
Q 2138 -91 1772 -91 
Q 1169 -91 856 284 
Q 544 659 544 1381 
z
M 1991 3584 
L 1991 3584 
z
" transform="scale(0.015625)"/>
      <path id="DejaVuSans-6d" d="M 3328 2828 
Q 3544 3216 3844 3400 
Q 4144 3584 4550 3584 
Q 5097 3584 5394 3201 
Q 5691 2819 5691 2113 
L 5691 0 
L 5113 0 
L 5113 2094 
Q 5113 2597 4934 2840 
Q 4756 3084 4391 3084 
Q 3944 3084 3684 2787 
Q 3425 2491 3425 1978 
L 3425 0 
L 2847 0 
L 2847 2094 
Q 2847 2600 2669 2842 
Q 2491 3084 2119 3084 
Q 1678 3084 1418 2786 
Q 1159 2488 1159 1978 
L 1159 0 
L 581 0 
L 581 3500 
L 1159 3500 
L 1159 2956 
Q 1356 3278 1631 3431 
Q 1906 3584 2284 3584 
Q 2666 3584 2933 3390 
Q 3200 3197 3328 2828 
z
" transform="scale(0.015625)"/>
      <path id="DejaVuSans-62" d="M 3116 1747 
Q 3116 2381 2855 2742 
Q 2594 3103 2138 3103 
Q 1681 3103 1420 2742 
Q 1159 2381 1159 1747 
Q 1159 1113 1420 752 
Q 1681 391 2138 391 
Q 2594 391 2855 752 
Q 3116 1113 3116 1747 
z
M 1159 2969 
Q 1341 3281 1617 3432 
Q 1894 3584 2278 3584 
Q 2916 3584 3314 3078 
Q 3713 2572 3713 1747 
Q 3713 922 3314 415 
Q 2916 -91 2278 -91 
Q 1894 -91 1617 61 
Q 1341 213 1159 525 
L 1159 0 
L 581 0 
L 581 4863 
L 1159 4863 
L 1159 2969 
z
" transform="scale(0.015625)"/>
      <path id="DejaVuSans-65" d="M 3597 1894 
L 3597 1613 
L 953 1613 
Q 991 1019 1311 708 
Q 1631 397 2203 397 
Q 2534 397 2845 478 
Q 3156 559 3463 722 
L 3463 178 
Q 3153 47 2828 -22 
Q 2503 -91 2169 -91 
Q 1331 -91 842 396 
Q 353 884 353 1716 
Q 353 2575 817 3079 
Q 1281 3584 2069 3584 
Q 2775 3584 3186 3129 
Q 3597 2675 3597 1894 
z
M 3022 2063 
Q 3016 2534 2758 2815 
Q 2500 3097 2075 3097 
Q 1594 3097 1305 2825 
Q 1016 2553 972 2059 
L 3022 2063 
z
" transform="scale(0.015625)"/>
      <path id="DejaVuSans-72" d="M 2631 2963 
Q 2534 3019 2420 3045 
Q 2306 3072 2169 3072 
Q 1681 3072 1420 2755 
Q 1159 2438 1159 1844 
L 1159 0 
L 581 0 
L 581 3500 
L 1159 3500 
L 1159 2956 
Q 1341 3275 1631 3429 
Q 1922 3584 2338 3584 
Q 2397 3584 2469 3576 
Q 2541 3569 2628 3553 
L 2631 2963 
z
" transform="scale(0.015625)"/>
      <path id="DejaVuSans-20" transform="scale(0.015625)"/>
      <path id="DejaVuSans-6f" d="M 1959 3097 
Q 1497 3097 1228 2736 
Q 959 2375 959 1747 
Q 959 1119 1226 758 
Q 1494 397 1959 397 
Q 2419 397 2687 759 
Q 2956 1122 2956 1747 
Q 2956 2369 2687 2733 
Q 2419 3097 1959 3097 
z
M 1959 3584 
Q 2709 3584 3137 3096 
Q 3566 2609 3566 1747 
Q 3566 888 3137 398 
Q 2709 -91 1959 -91 
Q 1206 -91 779 398 
Q 353 888 353 1747 
Q 353 2609 779 3096 
Q 1206 3584 1959 3584 
z
" transform="scale(0.015625)"/>
      <path id="DejaVuSans-66" d="M 2375 4863 
L 2375 4384 
L 1825 4384 
Q 1516 4384 1395 4259 
Q 1275 4134 1275 3809 
L 1275 3500 
L 2222 3500 
L 2222 3053 
L 1275 3053 
L 1275 0 
L 697 0 
L 697 3053 
L 147 3053 
L 147 3500 
L 697 3500 
L 697 3744 
Q 697 4328 969 4595 
Q 1241 4863 1831 4863 
L 2375 4863 
z
" transform="scale(0.015625)"/>
      <path id="DejaVuSans-41" d="M 2188 4044 
L 1331 1722 
L 3047 1722 
L 2188 4044 
z
M 1831 4666 
L 2547 4666 
L 4325 0 
L 3669 0 
L 3244 1197 
L 1141 1197 
L 716 0 
L 50 0 
L 1831 4666 
z
" transform="scale(0.015625)"/>
      <path id="DejaVuSans-45" d="M 628 4666 
L 3578 4666 
L 3578 4134 
L 1259 4134 
L 1259 2753 
L 3481 2753 
L 3481 2222 
L 1259 2222 
L 1259 531 
L 3634 531 
L 3634 0 
L 628 0 
L 628 4666 
z
" transform="scale(0.015625)"/>
      <path id="DejaVuSans-44" d="M 1259 4147 
L 1259 519 
L 2022 519 
Q 2988 519 3436 956 
Q 3884 1394 3884 2338 
Q 3884 3275 3436 3711 
Q 2988 4147 2022 4147 
L 1259 4147 
z
M 628 4666 
L 1925 4666 
Q 3281 4666 3915 4102 
Q 4550 3538 4550 2338 
Q 4550 1131 3912 565 
Q 3275 0 1925 0 
L 628 0 
L 628 4666 
z
" transform="scale(0.015625)"/>
      <path id="DejaVuSans-73" d="M 2834 3397 
L 2834 2853 
Q 2591 2978 2328 3040 
Q 2066 3103 1784 3103 
Q 1356 3103 1142 2972 
Q 928 2841 928 2578 
Q 928 2378 1081 2264 
Q 1234 2150 1697 2047 
L 1894 2003 
Q 2506 1872 2764 1633 
Q 3022 1394 3022 966 
Q 3022 478 2636 193 
Q 2250 -91 1575 -91 
Q 1294 -91 989 -36 
Q 684 19 347 128 
L 347 722 
Q 666 556 975 473 
Q 1284 391 1588 391 
Q 1994 391 2212 530 
Q 2431 669 2431 922 
Q 2431 1156 2273 1281 
Q 2116 1406 1581 1522 
L 1381 1569 
Q 847 1681 609 1914 
Q 372 2147 372 2553 
Q 372 3047 722 3315 
Q 1072 3584 1716 3584 
Q 2034 3584 2315 3537 
Q 2597 3491 2834 3397 
z
" transform="scale(0.015625)"/>
      <path id="DejaVuSans-69" d="M 603 3500 
L 1178 3500 
L 1178 0 
L 603 0 
L 603 3500 
z
M 603 4863 
L 1178 4863 
L 1178 4134 
L 603 4134 
L 603 4863 
z
" transform="scale(0.015625)"/>
      <path id="DejaVuSans-6e" d="M 3513 2113 
L 3513 0 
L 2938 0 
L 2938 2094 
Q 2938 2591 2744 2837 
Q 2550 3084 2163 3084 
Q 1697 3084 1428 2787 
Q 1159 2491 1159 1978 
L 1159 0 
L 581 0 
L 581 3500 
L 1159 3500 
L 1159 2956 
Q 1366 3272 1645 3428 
Q 1925 3584 2291 3584 
Q 2894 3584 3203 3211 
Q 3513 2838 3513 2113 
z
" transform="scale(0.015625)"/>
      <path id="DejaVuSans-74" d="M 1172 4494 
L 1172 3500 
L 2356 3500 
L 2356 3053 
L 1172 3053 
L 1172 1153 
Q 1172 725 1289 603 
Q 1406 481 1766 481 
L 2356 481 
L 2356 0 
L 1766 0 
Q 1100 0 847 248 
Q 594 497 594 1153 
L 594 3053 
L 172 3053 
L 172 3500 
L 594 3500 
L 594 4494 
L 1172 4494 
z
" transform="scale(0.015625)"/>
      <path id="DejaVuSans-68" d="M 3513 2113 
L 3513 0 
L 2938 0 
L 2938 2094 
Q 2938 2591 2744 2837 
Q 2550 3084 2163 3084 
Q 1697 3084 1428 2787 
Q 1159 2491 1159 1978 
L 1159 0 
L 581 0 
L 581 4863 
L 1159 4863 
L 1159 2956 
Q 1366 3272 1645 3428 
Q 1925 3584 2291 3584 
Q 2894 3584 3203 3211 
Q 3513 2838 3513 2113 
z
" transform="scale(0.015625)"/>
      <path id="DejaVuSans-4f" d="M 2522 4238 
Q 1834 4238 1429 3725 
Q 1025 3213 1025 2328 
Q 1025 1447 1429 934 
Q 1834 422 2522 422 
Q 3209 422 3611 934 
Q 4013 1447 4013 2328 
Q 4013 3213 3611 3725 
Q 3209 4238 2522 4238 
z
M 2522 4750 
Q 3503 4750 4090 4092 
Q 4678 3434 4678 2328 
Q 4678 1225 4090 567 
Q 3503 -91 2522 -91 
Q 1538 -91 948 565 
Q 359 1222 359 2328 
Q 359 3434 948 4092 
Q 1538 4750 2522 4750 
z
" transform="scale(0.015625)"/>
      <path id="DejaVuSans-70" d="M 1159 525 
L 1159 -1331 
L 581 -1331 
L 581 3500 
L 1159 3500 
L 1159 2969 
Q 1341 3281 1617 3432 
Q 1894 3584 2278 3584 
Q 2916 3584 3314 3078 
Q 3713 2572 3713 1747 
Q 3713 922 3314 415 
Q 2916 -91 2278 -91 
Q 1894 -91 1617 61 
Q 1341 213 1159 525 
z
M 3116 1747 
Q 3116 2381 2855 2742 
Q 2594 3103 2138 3103 
Q 1681 3103 1420 2742 
Q 1159 2381 1159 1747 
Q 1159 1113 1420 752 
Q 1681 391 2138 391 
Q 2594 391 2855 752 
Q 3116 1113 3116 1747 
z
" transform="scale(0.015625)"/>
      <path id="DejaVuSans-53" d="M 3425 4513 
L 3425 3897 
Q 3066 4069 2747 4153 
Q 2428 4238 2131 4238 
Q 1616 4238 1336 4038 
Q 1056 3838 1056 3469 
Q 1056 3159 1242 3001 
Q 1428 2844 1947 2747 
L 2328 2669 
Q 3034 2534 3370 2195 
Q 3706 1856 3706 1288 
Q 3706 609 3251 259 
Q 2797 -91 1919 -91 
Q 1588 -91 1214 -16 
Q 841 59 441 206 
L 441 856 
Q 825 641 1194 531 
Q 1563 422 1919 422 
Q 2459 422 2753 634 
Q 3047 847 3047 1241 
Q 3047 1584 2836 1778 
Q 2625 1972 2144 2069 
L 1759 2144 
Q 1053 2284 737 2584 
Q 422 2884 422 3419 
Q 422 4038 858 4394 
Q 1294 4750 2059 4750 
Q 2388 4750 2728 4690 
Q 3069 4631 3425 4513 
z
" transform="scale(0.015625)"/>
      <path id="DejaVuSans-4d" d="M 628 4666 
L 1569 4666 
L 2759 1491 
L 3956 4666 
L 4897 4666 
L 4897 0 
L 4281 0 
L 4281 4097 
L 3078 897 
L 2444 897 
L 1241 4097 
L 1241 0 
L 628 0 
L 628 4666 
z
" transform="scale(0.015625)"/>
      <path id="DejaVuSans-61" d="M 2194 1759 
Q 1497 1759 1228 1600 
Q 959 1441 959 1056 
Q 959 750 1161 570 
Q 1363 391 1709 391 
Q 2188 391 2477 730 
Q 2766 1069 2766 1631 
L 2766 1759 
L 2194 1759 
z
M 3341 1997 
L 3341 0 
L 2766 0 
L 2766 531 
Q 2569 213 2275 61 
Q 1981 -91 1556 -91 
Q 1019 -91 701 211 
Q 384 513 384 1019 
Q 384 1609 779 1909 
Q 1175 2209 1959 2209 
L 2766 2209 
L 2766 2266 
Q 2766 2663 2505 2880 
Q 2244 3097 1772 3097 
Q 1472 3097 1187 3025 
Q 903 2953 641 2809 
L 641 3341 
Q 956 3463 1253 3523 
Q 1550 3584 1831 3584 
Q 2591 3584 2966 3190 
Q 3341 2797 3341 1997 
z
" transform="scale(0.015625)"/>
      <path id="DejaVuSans-64" d="M 2906 2969 
L 2906 4863 
L 3481 4863 
L 3481 0 
L 2906 0 
L 2906 525 
Q 2725 213 2448 61 
Q 2172 -91 1784 -91 
Q 1150 -91 751 415 
Q 353 922 353 1747 
Q 353 2572 751 3078 
Q 1150 3584 1784 3584 
Q 2172 3584 2448 3432 
Q 2725 3281 2906 2969 
z
M 947 1747 
Q 947 1113 1208 752 
Q 1469 391 1925 391 
Q 2381 391 2643 752 
Q 2906 1113 2906 1747 
Q 2906 2381 2643 2742 
Q 2381 3103 1925 3103 
Q 1469 3103 1208 2742 
Q 947 2381 947 1747 
z
" transform="scale(0.015625)"/>
      <path id="DejaVuSans-50" d="M 1259 4147 
L 1259 2394 
L 2053 2394 
Q 2494 2394 2734 2622 
Q 2975 2850 2975 3272 
Q 2975 3691 2734 3919 
Q 2494 4147 2053 4147 
L 1259 4147 
z
M 628 4666 
L 2053 4666 
Q 2838 4666 3239 4311 
Q 3641 3956 3641 3272 
Q 3641 2581 3239 2228 
Q 2838 1875 2053 1875 
L 1259 1875 
L 1259 0 
L 628 0 
L 628 4666 
z
" transform="scale(0.015625)"/>
      <path id="DejaVuSans-6c" d="M 603 4863 
L 1178 4863 
L 1178 0 
L 603 0 
L 603 4863 
z
" transform="scale(0.015625)"/>
      <path id="DejaVuSans-2c" d="M 750 794 
L 1409 794 
L 1409 256 
L 897 -744 
L 494 -744 
L 750 256 
L 750 794 
z
" transform="scale(0.015625)"/>
      <path id="DejaVuSans-79" d="M 2059 -325 
Q 1816 -950 1584 -1140 
Q 1353 -1331 966 -1331 
L 506 -1331 
L 506 -850 
L 844 -850 
Q 1081 -850 1212 -737 
Q 1344 -625 1503 -206 
L 1606 56 
L 191 3500 
L 800 3500 
L 1894 763 
L 2988 3500 
L 3597 3500 
L 2059 -325 
z
" transform="scale(0.015625)"/>
      <path id="DejaVuSans-2e" d="M 684 794 
L 1344 794 
L 1344 0 
L 684 0 
L 684 794 
z
" transform="scale(0.015625)"/>
      <path id="DejaVuSans-3a" d="M 750 794 
L 1409 794 
L 1409 0 
L 750 0 
L 750 794 
z
M 750 3309 
L 1409 3309 
L 1409 2516 
L 750 2516 
L 750 3309 
z
" transform="scale(0.015625)"/>
      <path id="DejaVuSans-35" d="M 691 4666 
L 3169 4666 
L 3169 4134 
L 1269 4134 
L 1269 2991 
Q 1406 3038 1543 3061 
Q 1681 3084 1819 3084 
Q 2600 3084 3056 2656 
Q 3513 2228 3513 1497 
Q 3513 744 3044 326 
Q 2575 -91 1722 -91 
Q 1428 -91 1123 -41 
Q 819 9 494 109 
L 494 744 
Q 775 591 1075 516 
Q 1375 441 1709 441 
Q 2250 441 2565 725 
Q 2881 1009 2881 1497 
Q 2881 1984 2565 2268 
Q 2250 2553 1709 2553 
Q 1456 2553 1204 2497 
Q 953 2441 691 2322 
L 691 4666 
z
" transform="scale(0.015625)"/>
      <path id="DejaVuSans-2d" d="M 313 2009 
L 1997 2009 
L 1997 1497 
L 313 1497 
L 313 2009 
z
" transform="scale(0.015625)"/>
      <path id="DejaVuSans-33" d="M 2597 2516 
Q 3050 2419 3304 2112 
Q 3559 1806 3559 1356 
Q 3559 666 3084 287 
Q 2609 -91 1734 -91 
Q 1441 -91 1130 -33 
Q 819 25 488 141 
L 488 750 
Q 750 597 1062 519 
Q 1375 441 1716 441 
Q 2309 441 2620 675 
Q 2931 909 2931 1356 
Q 2931 1769 2642 2001 
Q 2353 2234 1838 2234 
L 1294 2234 
L 1294 2753 
L 1863 2753 
Q 2328 2753 2575 2939 
Q 2822 3125 2822 3475 
Q 2822 3834 2567 4026 
Q 2313 4219 1838 4219 
Q 1578 4219 1281 4162 
Q 984 4106 628 3988 
L 628 4550 
Q 988 4650 1302 4700 
Q 1616 4750 1894 4750 
Q 2613 4750 3031 4423 
Q 3450 4097 3450 3541 
Q 3450 3153 3228 2886 
Q 3006 2619 2597 2516 
z
" transform="scale(0.015625)"/>
     </defs>
     <use xlink:href="#DejaVuSans-4e"/>
     <use xlink:href="#DejaVuSans-75" x="74.804688"/>
     <use xlink:href="#DejaVuSans-6d" x="138.183594"/>
     <use xlink:href="#DejaVuSans-62" x="235.595703"/>
     <use xlink:href="#DejaVuSans-65" x="299.072266"/>
     <use xlink:href="#DejaVuSans-72" x="360.595703"/>
     <use xlink:href="#DejaVuSans-20" x="401.708984"/>
     <use xlink:href="#DejaVuSans-6f" x="433.496094"/>
     <use xlink:href="#DejaVuSans-66" x="494.677734"/>
     <use xlink:href="#DejaVuSans-20" x="529.882812"/>
     <use xlink:href="#DejaVuSans-41" x="561.669922"/>
     <use xlink:href="#DejaVuSans-45" x="630.078125"/>
     <use xlink:href="#DejaVuSans-44" x="693.261719"/>
     <use xlink:href="#DejaVuSans-73" x="770.263672"/>
     <use xlink:href="#DejaVuSans-20" x="822.363281"/>
     <use xlink:href="#DejaVuSans-69" x="854.150391"/>
     <use xlink:href="#DejaVuSans-6e" x="881.933594"/>
     <use xlink:href="#DejaVuSans-20" x="945.3125"/>
     <use xlink:href="#DejaVuSans-74" x="977.099609"/>
     <use xlink:href="#DejaVuSans-68" x="1016.308594"/>
     <use xlink:href="#DejaVuSans-65" x="1079.6875"/>
     <use xlink:href="#DejaVuSans-20" x="1141.210938"/>
     <use xlink:href="#DejaVuSans-4f" x="1172.998047"/>
     <use xlink:href="#DejaVuSans-70" x="1251.708984"/>
     <use xlink:href="#DejaVuSans-65" x="1315.185547"/>
     <use xlink:href="#DejaVuSans-6e" x="1376.708984"/>
     <use xlink:href="#DejaVuSans-53" x="1440.087891"/>
     <use xlink:href="#DejaVuSans-74" x="1503.564453"/>
     <use xlink:href="#DejaVuSans-72" x="1542.773438"/>
     <use xlink:href="#DejaVuSans-65" x="1581.636719"/>
     <use xlink:href="#DejaVuSans-65" x="1643.160156"/>
     <use xlink:href="#DejaVuSans-74" x="1704.683594"/>
     <use xlink:href="#DejaVuSans-4d" x="1743.892578"/>
     <use xlink:href="#DejaVuSans-61" x="1830.171875"/>
     <use xlink:href="#DejaVuSans-70" x="1891.451172"/>
     <use xlink:href="#DejaVuSans-20" x="1954.927734"/>
     <use xlink:href="#DejaVuSans-64" x="1986.714844"/>
     <use xlink:href="#DejaVuSans-61" x="2050.191406"/>
     <use xlink:href="#DejaVuSans-74" x="2111.470703"/>
     <use xlink:href="#DejaVuSans-61" x="2150.679688"/>
     <use xlink:href="#DejaVuSans-62" x="2211.958984"/>
     <use xlink:href="#DejaVuSans-61" x="2275.435547"/>
     <use xlink:href="#DejaVuSans-73" x="2336.714844"/>
     <use xlink:href="#DejaVuSans-65" x="2388.814453"/>
     <use xlink:href="#DejaVuSans-20" x="2450.337891"/>
     <use xlink:href="#DejaVuSans-69" x="2482.125"/>
     <use xlink:href="#DejaVuSans-6e" x="2509.908203"/>
     <use xlink:href="#DejaVuSans-20" x="2573.287109"/>
     <use xlink:href="#DejaVuSans-50" x="2605.074219"/>
     <use xlink:href="#DejaVuSans-6f" x="2661.751953"/>
     <use xlink:href="#DejaVuSans-6c" x="2722.933594"/>
     <use xlink:href="#DejaVuSans-61" x="2750.716797"/>
     <use xlink:href="#DejaVuSans-6e" x="2811.996094"/>
     <use xlink:href="#DejaVuSans-64" x="2875.375"/>
     <use xlink:href="#DejaVuSans-20" x="2938.851562"/>
     <use xlink:href="#DejaVuSans-66" x="2970.638672"/>
     <use xlink:href="#DejaVuSans-72" x="3005.84375"/>
     <use xlink:href="#DejaVuSans-6f" x="3044.707031"/>
     <use xlink:href="#DejaVuSans-6d" x="3105.888672"/>
     <use xlink:href="#DejaVuSans-20" x="3203.300781"/>
     <use xlink:href="#DejaVuSans-66" x="3235.087891"/>
     <use xlink:href="#DejaVuSans-69" x="3270.292969"/>
     <use xlink:href="#DejaVuSans-72" x="3298.076172"/>
     <use xlink:href="#DejaVuSans-73" x="3339.189453"/>
     <use xlink:href="#DejaVuSans-74" x="3391.289062"/>
     <use xlink:href="#DejaVuSans-20" x="3430.498047"/>
     <use xlink:href="#DejaVuSans-65" x="3462.285156"/>
     <use xlink:href="#DejaVuSans-64" x="3523.808594"/>
     <use xlink:href="#DejaVuSans-69" x="3587.285156"/>
     <use xlink:href="#DejaVuSans-74" x="3615.068359"/>
     <use xlink:href="#DejaVuSans-69" x="3654.277344"/>
     <use xlink:href="#DejaVuSans-6f" x="3682.060547"/>
     <use xlink:href="#DejaVuSans-6e" x="3743.242188"/>
     <use xlink:href="#DejaVuSans-2c" x="3806.621094"/>
     <use xlink:href="#DejaVuSans-20" x="3838.408203"/>
     <use xlink:href="#DejaVuSans-64" x="3870.195312"/>
     <use xlink:href="#DejaVuSans-61" x="3933.671875"/>
     <use xlink:href="#DejaVuSans-79" x="3994.951172"/>
     <use xlink:href="#DejaVuSans-20" x="4054.130859"/>
     <use xlink:href="#DejaVuSans-62" x="4085.917969"/>
     <use xlink:href="#DejaVuSans-79" x="4149.394531"/>
     <use xlink:href="#DejaVuSans-20" x="4208.574219"/>
     <use xlink:href="#DejaVuSans-64" x="4240.361328"/>
     <use xlink:href="#DejaVuSans-61" x="4303.837891"/>
     <use xlink:href="#DejaVuSans-79" x="4365.117188"/>
     <use xlink:href="#DejaVuSans-2e" x="4410.046875"/>
     <use xlink:href="#DejaVuSans-20" x="4441.833984"/>
     <use xlink:href="#DejaVuSans-41" x="4473.621094"/>
     <use xlink:href="#DejaVuSans-73" x="4542.029297"/>
     <use xlink:href="#DejaVuSans-20" x="4594.128906"/>
     <use xlink:href="#DejaVuSans-61" x="4625.916016"/>
     <use xlink:href="#DejaVuSans-74" x="4687.195312"/>
     <use xlink:href="#DejaVuSans-3a" x="4726.404297"/>
     <use xlink:href="#DejaVuSans-20" x="4760.095703"/>
     <use xlink:href="#DejaVuSans-32" x="4791.882812"/>
     <use xlink:href="#DejaVuSans-30" x="4855.505859"/>
     <use xlink:href="#DejaVuSans-32" x="4919.128906"/>
     <use xlink:href="#DejaVuSans-35" x="4982.751953"/>
     <use xlink:href="#DejaVuSans-2d" x="5046.375"/>
     <use xlink:href="#DejaVuSans-30" x="5082.458984"/>
     <use xlink:href="#DejaVuSans-38" x="5146.082031"/>
     <use xlink:href="#DejaVuSans-2d" x="5209.705078"/>
     <use xlink:href="#DejaVuSans-31" x="5245.789062"/>
     <use xlink:href="#DejaVuSans-33" x="5309.412109"/>
    </g>
   </g>
  </g>
 </g>
 <defs>
  <clipPath id="pf206448f3e">
   <rect x="144" y="69.12" width="892.8" height="443.52"/>
  </clipPath>
 </defs>
</svg>
