<?xml version="1.0" encoding="utf-8" standalone="no"?>
<!DOCTYPE svg PUBLIC "-//W3C//DTD SVG 1.1//EN"
  "http://www.w3.org/Graphics/SVG/1.1/DTD/svg11.dtd">
<svg xmlns:xlink="http://www.w3.org/1999/xlink" width="1152pt" height="576pt" viewBox="0 0 1152 576" xmlns="http://www.w3.org/2000/svg" version="1.1">
 <metadata>
  <rdf:RDF xmlns:dc="http://purl.org/dc/elements/1.1/" xmlns:cc="http://creativecommons.org/ns#" xmlns:rdf="http://www.w3.org/1999/02/22-rdf-syntax-ns#">
   <cc:Work>
    <dc:type rdf:resource="http://purl.org/dc/dcmitype/StillImage"/>
    <dc:date>1980-01-01T00:00:00+00:00</dc:date>
    <dc:format>image/svg+xml</dc:format>
    <dc:creator>
     <cc:Agent>
      <dc:title>Matplotlib v3.9.1, https://matplotlib.org/</dc:title>
     </cc:Agent>
    </dc:creator>
   </cc:Work>
  </rdf:RDF>
 </metadata>
 <defs>
  <style type="text/css">*{stroke-linejoin: round; stroke-linecap: butt}</style>
 </defs>
 <g id="figure_1">
  <g id="patch_1">
   <path d="M 0 576 
L 1152 576 
L 1152 0 
L 0 0 
z
" style="fill: #ffffff"/>
  </g>
  <g id="axes_1">
   <g id="patch_2">
    <path d="M 144 512.64 
L 1036.8 512.64 
L 1036.8 69.12 
L 144 69.12 
z
" style="fill: #ffffff"/>
   </g>
   <g id="matplotlib.axis_1">
    <g id="xtick_1">
     <g id="line2d_1">
      <defs>
       <path id="m44c180713c" d="M 0 0 
L 0 3.5 
" style="stroke: #000000; stroke-width: 0.8"/>
      </defs>
      <g>
       <use xlink:href="#m44c180713c" x="176.816821" y="512.64" style="stroke: #000000; stroke-width: 0.8"/>
      </g>
     </g>
     <g id="text_1">
      <!-- 2014 -->
      <g transform="translate(164.091821 527.238438) scale(0.1 -0.1)">
       <defs>
        <path id="DejaVuSans-32" d="M 1228 531 
L 3431 531 
L 3431 0 
L 469 0 
L 469 531 
Q 828 903 1448 1529 
Q 2069 2156 2228 2338 
Q 2531 2678 2651 2914 
Q 2772 3150 2772 3378 
Q 2772 3750 2511 3984 
Q 2250 4219 1831 4219 
Q 1534 4219 1204 4116 
Q 875 4013 500 3803 
L 500 4441 
Q 881 4594 1212 4672 
Q 1544 4750 1819 4750 
Q 2544 4750 2975 4387 
Q 3406 4025 3406 3419 
Q 3406 3131 3298 2873 
Q 3191 2616 2906 2266 
Q 2828 2175 2409 1742 
Q 1991 1309 1228 531 
z
" transform="scale(0.015625)"/>
        <path id="DejaVuSans-30" d="M 2034 4250 
Q 1547 4250 1301 3770 
Q 1056 3291 1056 2328 
Q 1056 1369 1301 889 
Q 1547 409 2034 409 
Q 2525 409 2770 889 
Q 3016 1369 3016 2328 
Q 3016 3291 2770 3770 
Q 2525 4250 2034 4250 
z
M 2034 4750 
Q 2819 4750 3233 4129 
Q 3647 3509 3647 2328 
Q 3647 1150 3233 529 
Q 2819 -91 2034 -91 
Q 1250 -91 836 529 
Q 422 1150 422 2328 
Q 422 3509 836 4129 
Q 1250 4750 2034 4750 
z
" transform="scale(0.015625)"/>
        <path id="DejaVuSans-31" d="M 794 531 
L 1825 531 
L 1825 4091 
L 703 3866 
L 703 4441 
L 1819 4666 
L 2450 4666 
L 2450 531 
L 3481 531 
L 3481 0 
L 794 0 
L 794 531 
z
" transform="scale(0.015625)"/>
        <path id="DejaVuSans-34" d="M 2419 4116 
L 825 1625 
L 2419 1625 
L 2419 4116 
z
M 2253 4666 
L 3047 4666 
L 3047 1625 
L 3713 1625 
L 3713 1100 
L 3047 1100 
L 3047 0 
L 2419 0 
L 2419 1100 
L 313 1100 
L 313 1709 
L 2253 4666 
z
" transform="scale(0.015625)"/>
       </defs>
       <use xlink:href="#DejaVuSans-32"/>
       <use xlink:href="#DejaVuSans-30" x="63.623047"/>
       <use xlink:href="#DejaVuSans-31" x="127.246094"/>
       <use xlink:href="#DejaVuSans-34" x="190.869141"/>
      </g>
     </g>
    </g>
    <g id="xtick_2">
     <g id="line2d_2">
      <g>
       <use xlink:href="#m44c180713c" x="318.528025" y="512.64" style="stroke: #000000; stroke-width: 0.8"/>
      </g>
     </g>
     <g id="text_2">
      <!-- 2016 -->
      <g transform="translate(305.803025 527.238438) scale(0.1 -0.1)">
       <defs>
        <path id="DejaVuSans-36" d="M 2113 2584 
Q 1688 2584 1439 2293 
Q 1191 2003 1191 1497 
Q 1191 994 1439 701 
Q 1688 409 2113 409 
Q 2538 409 2786 701 
Q 3034 994 3034 1497 
Q 3034 2003 2786 2293 
Q 2538 2584 2113 2584 
z
M 3366 4563 
L 3366 3988 
Q 3128 4100 2886 4159 
Q 2644 4219 2406 4219 
Q 1781 4219 1451 3797 
Q 1122 3375 1075 2522 
Q 1259 2794 1537 2939 
Q 1816 3084 2150 3084 
Q 2853 3084 3261 2657 
Q 3669 2231 3669 1497 
Q 3669 778 3244 343 
Q 2819 -91 2113 -91 
Q 1303 -91 875 529 
Q 447 1150 447 2328 
Q 447 3434 972 4092 
Q 1497 4750 2381 4750 
Q 2619 4750 2861 4703 
Q 3103 4656 3366 4563 
z
" transform="scale(0.015625)"/>
       </defs>
       <use xlink:href="#DejaVuSans-32"/>
       <use xlink:href="#DejaVuSans-30" x="63.623047"/>
       <use xlink:href="#DejaVuSans-31" x="127.246094"/>
       <use xlink:href="#DejaVuSans-36" x="190.869141"/>
      </g>
     </g>
    </g>
    <g id="xtick_3">
     <g id="line2d_3">
      <g>
       <use xlink:href="#m44c180713c" x="460.433354" y="512.64" style="stroke: #000000; stroke-width: 0.8"/>
      </g>
     </g>
     <g id="text_3">
      <!-- 2018 -->
      <g transform="translate(447.708354 527.238438) scale(0.1 -0.1)">
       <defs>
        <path id="DejaVuSans-38" d="M 2034 2216 
Q 1584 2216 1326 1975 
Q 1069 1734 1069 1313 
Q 1069 891 1326 650 
Q 1584 409 2034 409 
Q 2484 409 2743 651 
Q 3003 894 3003 1313 
Q 3003 1734 2745 1975 
Q 2488 2216 2034 2216 
z
M 1403 2484 
Q 997 2584 770 2862 
Q 544 3141 544 3541 
Q 544 4100 942 4425 
Q 1341 4750 2034 4750 
Q 2731 4750 3128 4425 
Q 3525 4100 3525 3541 
Q 3525 3141 3298 2862 
Q 3072 2584 2669 2484 
Q 3125 2378 3379 2068 
Q 3634 1759 3634 1313 
Q 3634 634 3220 271 
Q 2806 -91 2034 -91 
Q 1263 -91 848 271 
Q 434 634 434 1313 
Q 434 1759 690 2068 
Q 947 2378 1403 2484 
z
M 1172 3481 
Q 1172 3119 1398 2916 
Q 1625 2713 2034 2713 
Q 2441 2713 2670 2916 
Q 2900 3119 2900 3481 
Q 2900 3844 2670 4047 
Q 2441 4250 2034 4250 
Q 1625 4250 1398 4047 
Q 1172 3844 1172 3481 
z
" transform="scale(0.015625)"/>
       </defs>
       <use xlink:href="#DejaVuSans-32"/>
       <use xlink:href="#DejaVuSans-30" x="63.623047"/>
       <use xlink:href="#DejaVuSans-31" x="127.246094"/>
       <use xlink:href="#DejaVuSans-38" x="190.869141"/>
      </g>
     </g>
    </g>
    <g id="xtick_4">
     <g id="line2d_4">
      <g>
       <use xlink:href="#m44c180713c" x="602.144559" y="512.64" style="stroke: #000000; stroke-width: 0.8"/>
      </g>
     </g>
     <g id="text_4">
      <!-- 2020 -->
      <g transform="translate(589.419559 527.238438) scale(0.1 -0.1)">
       <use xlink:href="#DejaVuSans-32"/>
       <use xlink:href="#DejaVuSans-30" x="63.623047"/>
       <use xlink:href="#DejaVuSans-32" x="127.246094"/>
       <use xlink:href="#DejaVuSans-30" x="190.869141"/>
      </g>
     </g>
    </g>
    <g id="xtick_5">
     <g id="line2d_5">
      <g>
       <use xlink:href="#m44c180713c" x="744.049888" y="512.64" style="stroke: #000000; stroke-width: 0.8"/>
      </g>
     </g>
     <g id="text_5">
      <!-- 2022 -->
      <g transform="translate(731.324888 527.238438) scale(0.1 -0.1)">
       <use xlink:href="#DejaVuSans-32"/>
       <use xlink:href="#DejaVuSans-30" x="63.623047"/>
       <use xlink:href="#DejaVuSans-32" x="127.246094"/>
       <use xlink:href="#DejaVuSans-32" x="190.869141"/>
      </g>
     </g>
    </g>
    <g id="xtick_6">
     <g id="line2d_6">
      <g>
       <use xlink:href="#m44c180713c" x="885.761092" y="512.64" style="stroke: #000000; stroke-width: 0.8"/>
      </g>
     </g>
     <g id="text_6">
      <!-- 2024 -->
      <g transform="translate(873.036092 527.238438) scale(0.1 -0.1)">
       <use xlink:href="#DejaVuSans-32"/>
       <use xlink:href="#DejaVuSans-30" x="63.623047"/>
       <use xlink:href="#DejaVuSans-32" x="127.246094"/>
       <use xlink:href="#DejaVuSans-34" x="190.869141"/>
      </g>
     </g>
    </g>
    <g id="xtick_7">
     <g id="line2d_7">
      <g>
       <use xlink:href="#m44c180713c" x="1027.666422" y="512.64" style="stroke: #000000; stroke-width: 0.8"/>
      </g>
     </g>
     <g id="text_7">
      <!-- 2026 -->
      <g transform="translate(1014.941422 527.238438) scale(0.1 -0.1)">
       <use xlink:href="#DejaVuSans-32"/>
       <use xlink:href="#DejaVuSans-30" x="63.623047"/>
       <use xlink:href="#DejaVuSans-32" x="127.246094"/>
       <use xlink:href="#DejaVuSans-36" x="190.869141"/>
      </g>
     </g>
    </g>
   </g>
   <g id="matplotlib.axis_2">
    <g id="ytick_1">
     <g id="line2d_8">
      <defs>
       <path id="mf02a29556b" d="M 0 0 
L -3.5 0 
" style="stroke: #000000; stroke-width: 0.8"/>
      </defs>
      <g>
       <use xlink:href="#mf02a29556b" x="144" y="492.515202" style="stroke: #000000; stroke-width: 0.8"/>
      </g>
     </g>
     <g id="text_8">
      <!-- 0 -->
      <g transform="translate(130.6375 496.31442) scale(0.1 -0.1)">
       <use xlink:href="#DejaVuSans-30"/>
      </g>
     </g>
    </g>
    <g id="ytick_2">
     <g id="line2d_9">
      <g>
       <use xlink:href="#mf02a29556b" x="144" y="422.111849" style="stroke: #000000; stroke-width: 0.8"/>
      </g>
     </g>
     <g id="text_9">
      <!-- 2000 -->
      <g transform="translate(111.55 425.911068) scale(0.1 -0.1)">
       <use xlink:href="#DejaVuSans-32"/>
       <use xlink:href="#DejaVuSans-30" x="63.623047"/>
       <use xlink:href="#DejaVuSans-30" x="127.246094"/>
       <use xlink:href="#DejaVuSans-30" x="190.869141"/>
      </g>
     </g>
    </g>
    <g id="ytick_3">
     <g id="line2d_10">
      <g>
       <use xlink:href="#mf02a29556b" x="144" y="351.708497" style="stroke: #000000; stroke-width: 0.8"/>
      </g>
     </g>
     <g id="text_10">
      <!-- 4000 -->
      <g transform="translate(111.55 355.507715) scale(0.1 -0.1)">
       <use xlink:href="#DejaVuSans-34"/>
       <use xlink:href="#DejaVuSans-30" x="63.623047"/>
       <use xlink:href="#DejaVuSans-30" x="127.246094"/>
       <use xlink:href="#DejaVuSans-30" x="190.869141"/>
      </g>
     </g>
    </g>
    <g id="ytick_4">
     <g id="line2d_11">
      <g>
       <use xlink:href="#mf02a29556b" x="144" y="281.305144" style="stroke: #000000; stroke-width: 0.8"/>
      </g>
     </g>
     <g id="text_11">
      <!-- 6000 -->
      <g transform="translate(111.55 285.104363) scale(0.1 -0.1)">
       <use xlink:href="#DejaVuSans-36"/>
       <use xlink:href="#DejaVuSans-30" x="63.623047"/>
       <use xlink:href="#DejaVuSans-30" x="127.246094"/>
       <use xlink:href="#DejaVuSans-30" x="190.869141"/>
      </g>
     </g>
    </g>
    <g id="ytick_5">
     <g id="line2d_12">
      <g>
       <use xlink:href="#mf02a29556b" x="144" y="210.901792" style="stroke: #000000; stroke-width: 0.8"/>
      </g>
     </g>
     <g id="text_12">
      <!-- 8000 -->
      <g transform="translate(111.55 214.70101) scale(0.1 -0.1)">
       <use xlink:href="#DejaVuSans-38"/>
       <use xlink:href="#DejaVuSans-30" x="63.623047"/>
       <use xlink:href="#DejaVuSans-30" x="127.246094"/>
       <use xlink:href="#DejaVuSans-30" x="190.869141"/>
      </g>
     </g>
    </g>
    <g id="ytick_6">
     <g id="line2d_13">
      <g>
       <use xlink:href="#mf02a29556b" x="144" y="140.498439" style="stroke: #000000; stroke-width: 0.8"/>
      </g>
     </g>
     <g id="text_13">
      <!-- 10000 -->
      <g transform="translate(105.1875 144.297658) scale(0.1 -0.1)">
       <use xlink:href="#DejaVuSans-31"/>
       <use xlink:href="#DejaVuSans-30" x="63.623047"/>
       <use xlink:href="#DejaVuSans-30" x="127.246094"/>
       <use xlink:href="#DejaVuSans-30" x="190.869141"/>
       <use xlink:href="#DejaVuSans-30" x="254.492188"/>
      </g>
     </g>
    </g>
    <g id="ytick_7">
     <g id="line2d_14">
      <g>
       <use xlink:href="#mf02a29556b" x="144" y="70.095086" style="stroke: #000000; stroke-width: 0.8"/>
      </g>
     </g>
     <g id="text_14">
      <!-- 12000 -->
      <g transform="translate(105.1875 73.894305) scale(0.1 -0.1)">
       <use xlink:href="#DejaVuSans-31"/>
       <use xlink:href="#DejaVuSans-32" x="63.623047"/>
       <use xlink:href="#DejaVuSans-30" x="127.246094"/>
       <use xlink:href="#DejaVuSans-30" x="190.869141"/>
       <use xlink:href="#DejaVuSans-30" x="254.492188"/>
      </g>
     </g>
    </g>
   </g>
   <g id="line2d_15">
    <path d="M 184.581818 492.48 
L 186.328943 492.409597 
L 307.657029 492.198387 
L 449.756483 492.022378 
L 502.558466 491.811168 
L 516.341336 491.705563 
L 549.342576 491.529555 
L 550.895575 491.459151 
L 559.825322 491.353546 
L 602.338684 491.142336 
L 608.550682 491.071933 
L 608.938932 490.79032 
L 613.015555 490.614311 
L 647.181544 490.473504 
L 651.064043 490.367899 
L 665.041038 490.227093 
L 674.747285 490.156689 
L 688.530156 489.945479 
L 692.21853 489.804673 
L 701.730652 489.593463 
L 705.224901 489.417454 
L 706.195525 489.347051 
L 707.5544 489.171042 
L 714.931147 488.959832 
L 715.125272 488.924631 
L 719.201896 488.783824 
L 725.608019 488.326202 
L 735.702516 488.07979 
L 740.361514 486.636522 
L 740.555639 486.495715 
L 742.302764 486.319707 
L 743.079263 485.75648 
L 743.273388 484.876438 
L 743.661638 484.665228 
L 743.855763 484.630026 
L 744.049888 483.433169 
L 745.214638 482.940346 
L 745.602888 482.341917 
L 745.991137 482.095506 
L 746.185262 481.532279 
L 746.379387 480.08901 
L 746.573512 479.736993 
L 746.767637 478.997758 
L 746.961762 477.800901 
L 747.155887 475.759204 
L 747.544137 474.315935 
L 747.738262 474.034322 
L 747.932387 469.317297 
L 748.126512 467.416406 
L 748.320637 466.677171 
L 748.514762 463.262609 
L 749.097136 459.320021 
L 749.291261 459.214416 
L 749.679511 457.20792 
L 749.873636 456.539089 
L 750.067761 451.399644 
L 750.261886 450.942022 
L 750.650136 449.252342 
L 750.844261 449.146737 
L 751.038386 448.266695 
L 751.232511 444.60572 
L 751.426636 443.690477 
L 751.620761 443.620073 
L 751.814886 440.874343 
L 752.00901 440.346317 
L 752.39726 440.170309 
L 753.17376 437.494982 
L 753.56201 436.790948 
L 753.95026 434.714049 
L 754.144385 433.904411 
L 754.33851 429.961823 
L 754.920885 425.596815 
L 755.503259 425.385605 
L 755.891509 425.139193 
L 756.668009 423.660723 
L 757.056259 423.519916 
L 757.444509 420.492572 
L 757.638634 420.45737 
L 758.026884 419.929345 
L 758.221008 418.415673 
L 758.415133 417.993253 
L 758.609258 417.852446 
L 758.803383 417.50043 
L 758.997508 416.902001 
L 759.579883 416.655589 
L 759.774008 416.409178 
L 760.356383 414.191472 
L 760.550508 414.050665 
L 760.938758 413.487438 
L 761.715257 413.10022 
L 761.909382 411.656951 
L 762.103507 411.551346 
L 762.297632 411.269733 
L 762.491757 408.453599 
L 762.880007 408.347994 
L 763.268257 407.608759 
L 763.462382 406.904725 
L 764.044757 406.763918 
L 764.627131 405.672666 
L 764.821256 405.637465 
L 765.209506 405.039036 
L 765.597756 404.898229 
L 765.791881 401.659675 
L 766.956631 401.378062 
L 767.344881 401.096448 
L 768.12138 400.990843 
L 768.315505 400.779633 
L 770.645004 400.0756 
L 771.421504 399.512373 
L 772.392129 399.371566 
L 772.780379 399.089953 
L 773.168629 398.949146 
L 775.109878 398.421121 
L 775.886378 395.428979 
L 776.857002 395.288172 
L 777.051127 395.217768 
L 778.604127 395.04176 
L 779.186502 394.83055 
L 779.380627 394.232122 
L 780.351251 394.161718 
L 780.933626 393.844903 
L 781.904251 393.492886 
L 782.098376 393.457685 
L 782.486626 393.070466 
L 782.874876 392.964861 
L 783.069 392.718449 
L 783.8455 392.436836 
L 784.816125 392.296029 
L 785.01025 392.049618 
L 785.3985 392.014416 
L 785.592625 391.451189 
L 785.78675 391.380786 
L 785.980875 390.571147 
L 788.310374 390.043122 
L 788.892749 389.902315 
L 789.086874 389.479895 
L 790.445748 389.127878 
L 791.028123 388.916668 
L 791.804623 388.74066 
L 792.581122 388.52945 
L 793.551747 388.31824 
L 794.134122 388.142232 
L 795.492996 387.332593 
L 795.687121 386.628559 
L 796.657746 385.818921 
L 796.851871 385.466904 
L 797.822496 384.622064 
L 798.210746 383.882829 
L 798.404871 383.847627 
L 798.598995 383.143594 
L 799.375495 382.087543 
L 799.763745 381.911535 
L 800.151995 381.841131 
L 800.34612 381.524316 
L 800.73437 381.348308 
L 800.928495 380.996291 
L 801.899119 380.714678 
L 802.093244 380.397863 
L 803.452119 380.081048 
L 803.840369 379.905039 
L 804.034494 379.869838 
L 804.228619 379.693829 
L 805.199243 379.553023 
L 806.558118 378.919392 
L 807.140493 378.778586 
L 807.528743 377.968947 
L 807.916992 377.722535 
L 808.887617 376.948098 
L 809.081742 376.13846 
L 809.858242 375.892048 
L 811.022991 375.50483 
L 811.605366 374.765595 
L 811.993616 374.554384 
L 812.187741 374.519183 
L 812.575991 373.955956 
L 813.158366 373.744746 
L 813.546616 373.427931 
L 814.12899 373.146317 
L 814.51724 369.20373 
L 814.711365 367.901268 
L 814.90549 365.718764 
L 815.099615 365.43715 
L 815.876115 362.726621 
L 816.264365 362.022588 
L 816.45849 361.916983 
L 816.652615 361.670571 
L 816.84674 361.212949 
L 817.040865 359.628874 
L 817.234989 359.241655 
L 817.623239 359.100849 
L 818.787989 356.707135 
L 818.982114 356.531126 
L 819.176239 355.580681 
L 819.370364 355.228664 
L 819.758614 354.313421 
L 820.146864 353.750194 
L 820.923363 353.292572 
L 821.117488 353.081362 
L 821.311613 351.954908 
L 821.699863 351.7789 
L 822.088113 351.391682 
L 822.670488 350.582043 
L 822.864613 349.842808 
L 823.058738 349.807606 
L 823.641112 349.103573 
L 824.029362 349.033169 
L 824.223487 348.681152 
L 824.611737 348.434741 
L 824.805862 348.153127 
L 825.582362 345.407397 
L 825.776487 343.964128 
L 826.164737 343.224893 
L 826.358862 343.084086 
L 826.552986 342.767271 
L 827.135361 342.415254 
L 827.329486 342.063237 
L 827.717736 340.690372 
L 828.882486 340.056742 
L 829.270736 339.211902 
L 829.464861 339.071095 
L 830.435485 337.487019 
L 830.823735 337.275809 
L 831.600235 337.029398 
L 832.18261 335.902944 
L 832.959109 335.656532 
L 833.735609 334.741289 
L 834.123859 334.670885 
L 834.512109 334.248465 
L 835.094484 334.002053 
L 835.482734 333.93165 
L 835.676859 333.72044 
L 835.870983 333.051608 
L 836.647483 332.805196 
L 836.841608 332.45318 
L 837.035733 332.417978 
L 837.229858 331.784348 
L 837.812233 331.537936 
L 838.394608 331.397129 
L 838.782858 331.009911 
L 839.753482 330.517087 
L 840.141732 330.165071 
L 840.529982 329.918659 
L 840.918232 329.883457 
L 841.112357 328.933012 
L 841.500607 328.616197 
L 842.082981 328.334584 
L 842.665356 327.982567 
L 843.441856 327.84176 
L 843.635981 326.856113 
L 845.383105 325.905668 
L 845.771355 325.835265 
L 845.96548 325.518449 
L 846.74198 325.201634 
L 846.936105 324.814416 
L 847.324355 324.779214 
L 847.712605 324.532803 
L 848.294979 324.215987 
L 848.489104 323.723164 
L 849.265604 323.335946 
L 849.459729 323.054332 
L 849.847979 322.948727 
L 850.042104 322.702315 
L 850.624479 322.3855 
L 850.818604 322.068685 
L 851.012729 321.998282 
L 851.400978 321.716668 
L 851.789228 321.54066 
L 851.983353 321.32945 
L 853.148103 320.977433 
L 853.342228 320.590215 
L 853.536353 320.48461 
L 854.506977 320.238198 
L 854.895227 319.921383 
L 855.283477 319.780576 
L 855.865852 319.604568 
L 856.059977 319.287753 
L 856.448227 319.217349 
L 856.642352 318.583719 
L 856.836477 318.442913 
L 857.224727 317.985291 
L 857.418852 316.92924 
L 857.807101 316.682829 
L 858.001226 316.542022 
L 858.195351 316.225207 
L 858.583601 315.978795 
L 859.360101 315.274762 
L 859.748351 315.098753 
L 859.942476 314.676333 
L 860.136601 314.60593 
L 860.524851 314.18351 
L 860.9131 313.937098 
L 861.495475 313.725888 
L 861.883725 313.268266 
L 864.019099 311.402577 
L 864.989724 311.156166 
L 865.572099 310.41693 
L 865.960349 309.99451 
L 866.542724 309.642493 
L 867.319223 309.325678 
L 867.513348 309.14967 
L 868.289848 308.832855 
L 868.678098 308.480838 
L 869.260473 308.269628 
L 869.842848 307.917611 
L 870.425222 307.6712 
L 870.619347 307.495191 
L 872.754722 306.615149 
L 872.948847 306.263133 
L 874.307721 305.699906 
L 874.890096 305.312687 
L 875.472471 305.031074 
L 875.666596 304.819864 
L 876.443095 304.608654 
L 876.63722 304.11583 
L 876.831345 302.531755 
L 877.219595 302.109335 
L 877.41372 302.074133 
L 878.57847 300.525259 
L 878.96672 299.469209 
L 879.354969 299.117192 
L 879.743219 298.870781 
L 880.131469 298.765175 
L 880.325594 298.483562 
L 880.713844 298.272352 
L 881.102094 297.920335 
L 881.490344 297.744327 
L 881.684469 297.673924 
L 882.072719 297.251503 
L 882.266844 297.216302 
L 882.460968 296.793882 
L 883.043343 296.582672 
L 883.431593 296.054646 
L 884.013968 295.597025 
L 884.402218 295.209806 
L 884.984593 295.104201 
L 885.178718 294.787386 
L 885.761092 294.576176 
L 886.149342 293.027302 
L 886.537592 292.675285 
L 887.702342 292.041655 
L 887.896467 291.478428 
L 888.284717 291.267218 
L 888.478842 290.774395 
L 888.672966 290.66879 
L 889.061216 290.24637 
L 889.449466 289.964756 
L 889.837716 289.788748 
L 890.614216 289.19032 
L 890.808341 289.119916 
L 891.584841 288.627093 
L 891.97309 287.747051 
L 892.167215 287.641446 
L 892.555465 287.571042 
L 892.74959 287.183824 
L 893.13784 287.007816 
L 893.52609 286.796606 
L 893.720215 286.162975 
L 894.496715 285.705354 
L 894.69084 285.071723 
L 895.467339 284.402892 
L 895.661464 284.36769 
L 896.049714 283.839665 
L 896.437964 283.52285 
L 896.632089 283.452446 
L 896.826214 283.10043 
L 897.214464 282.959623 
L 897.408589 282.290791 
L 897.796839 282.185186 
L 897.990963 281.868371 
L 898.185088 281.797968 
L 898.379213 281.058732 
L 898.767463 280.953127 
L 899.155713 280.706716 
L 899.543963 280.143489 
L 899.738088 280.002682 
L 900.514588 278.805825 
L 900.708713 278.735422 
L 901.096962 278.313002 
L 901.873462 277.749775 
L 902.455837 277.468161 
L 904.202961 275.637674 
L 904.591211 275.496867 
L 904.979461 275.074447 
L 905.367711 274.933641 
L 905.561836 274.0888 
L 906.144211 273.525574 
L 906.338336 272.82154 
L 906.726586 272.434322 
L 906.920711 272.047103 
L 907.114836 272.011902 
L 908.08546 271.061456 
L 908.667835 270.709439 
L 908.86196 270.392624 
L 910.02671 270.005406 
L 910.609084 269.266171 
L 910.997334 268.597339 
L 911.385584 268.456532 
L 911.773834 268.034112 
L 911.967959 267.7877 
L 912.162084 267.752499 
L 912.356209 267.330079 
L 913.132709 266.802053 
L 913.715083 266.344432 
L 914.491583 265.957213 
L 915.073958 265.46439 
L 915.656333 265.182776 
L 915.850458 264.83076 
L 916.238708 264.760356 
L 916.821082 264.197129 
L 917.015207 263.880314 
L 917.597582 263.598701 
L 918.179957 263.211482 
L 918.568207 263.070676 
L 918.956457 262.648256 
L 919.927081 262.085029 
L 920.121206 261.838617 
L 920.897706 261.4866 
L 921.091831 259.867323 
L 922.062456 259.16329 
L 922.838955 257.755223 
L 923.03308 257.614416 
L 923.227205 257.156794 
L 923.615455 256.980786 
L 924.391955 255.783929 
L 924.780205 254.12945 
L 924.97433 253.566223 
L 925.36258 250.926097 
L 925.556705 249.870047 
L 926.527329 248.602787 
L 927.303829 245.434636 
L 927.497954 245.258628 
L 927.692079 244.765804 
L 927.886204 243.040922 
L 928.080329 242.407292 
L 928.274454 242.336888 
L 928.468579 241.562452 
L 929.050953 241.069628 
L 929.439203 239.731964 
L 930.409828 239.203939 
L 930.603953 238.851922 
L 931.574578 238.323897 
L 931.962828 237.901477 
L 932.156952 237.514259 
L 932.351077 236.528612 
L 932.545202 236.141393 
L 932.933452 236.000587 
L 933.321702 235.824578 
L 933.709952 235.542965 
L 934.098202 235.261351 
L 934.486452 235.190948 
L 934.874702 234.979738 
L 935.262951 234.733326 
L 935.457076 234.59252 
L 935.845326 234.557318 
L 939.14545 231.705982 
L 939.339575 231.600377 
L 939.5337 230.755537 
L 940.116075 230.157108 
L 940.504325 230.051503 
L 941.669074 229.065856 
L 942.057324 228.889848 
L 942.251449 228.819445 
L 942.639699 228.397025 
L 943.027949 228.29142 
L 943.222074 227.798596 
L 943.416199 227.622588 
L 943.610324 227.059361 
L 943.998574 226.812949 
L 944.580948 225.510487 
L 944.775073 224.806454 
L 945.357448 224.384034 
L 945.939823 223.574395 
L 946.328073 222.20153 
L 946.522198 221.779109 
L 946.716323 221.039874 
L 946.910448 220.969471 
L 947.104573 220.371042 
L 947.492823 220.124631 
L 948.657572 218.892572 
L 948.851697 218.399749 
L 949.434072 218.082933 
L 949.628197 217.59011 
L 950.404697 217.273295 
L 950.598822 217.026883 
L 950.792946 216.991682 
L 950.987071 216.252446 
L 951.375321 216.006035 
L 951.569446 215.548413 
L 951.763571 215.407606 
L 952.151821 215.372404 
L 953.316571 214.457161 
L 953.898945 213.999539 
L 954.287195 213.541917 
L 954.675445 213.154699 
L 954.86957 212.76748 
L 955.063695 211.993043 
L 956.228445 211.324212 
L 956.616695 210.44417 
L 957.004944 210.268161 
L 957.199069 209.740136 
L 957.393194 209.634531 
L 958.169694 208.684086 
L 959.140319 208.050456 
L 960.305068 206.853599 
L 960.887443 206.079162 
L 961.858068 203.579843 
L 962.828693 198.405196 
L 963.022818 198.123583 
L 963.216942 197.595558 
L 963.411067 195.659466 
L 963.605192 191.998491 
L 963.799317 190.555223 
L 963.993442 188.231912 
L 964.187567 187.598282 
L 964.575817 184.958156 
L 964.964067 181.367585 
L 965.352317 176.509754 
L 965.740567 175.770519 
L 966.128817 169.50462 
L 966.322941 167.850141 
L 966.711191 160.704201 
L 967.099441 159.331336 
L 967.293566 155.740765 
L 967.487691 154.931126 
L 967.875941 150.953337 
L 968.264191 140.252027 
L 968.652441 138.597548 
L 968.846566 135.288591 
L 969.040691 134.936574 
L 969.42894 129.550718 
L 969.623065 129.445113 
L 969.81719 129.093096 
L 970.20544 127.825836 
L 970.399565 127.50902 
L 970.59369 126.910592 
L 970.787815 125.784138 
L 971.176065 125.572928 
L 971.37019 125.009701 
L 971.75844 123.249618 
L 972.14669 119.72945 
L 972.340815 118.955013 
L 972.534939 118.88461 
L 972.729064 118.567795 
L 973.699689 115.575652 
L 973.893814 115.434845 
L 974.087939 114.69561 
L 974.476189 114.343594 
L 974.670314 114.202787 
L 974.864439 113.674762 
L 975.058564 113.498753 
L 975.835063 112.301896 
L 976.417438 111.668266 
L 976.611563 111.597863 
L 977.582188 110.224997 
L 977.970438 110.048989 
L 978.552813 109.978586 
L 978.941062 109.450561 
L 979.329312 109.344955 
L 979.911687 108.60572 
L 980.688187 108.148098 
L 981.464687 107.162452 
L 981.658812 106.634426 
L 982.435311 106.388015 
L 982.823561 106.035998 
L 983.211811 105.331964 
L 983.600061 105.015149 
L 983.794186 104.768738 
L 983.988311 103.747889 
L 984.376561 103.079057 
L 984.958935 102.832645 
L 985.347185 102.51583 
L 985.735435 102.128612 
L 986.123685 101.776595 
L 986.70606 101.213368 
L 986.900185 101.03736 
L 987.09431 100.19252 
L 987.676685 99.7701 
L 988.453184 98.819654 
L 988.841434 98.502839 
L 989.812059 97.587596 
L 990.200309 97.411587 
L 990.394434 97.235579 
L 990.976809 97.024369 
L 991.365058 95.721907 
L 991.559183 95.616302 
L 992.141558 94.701058 
L 992.723933 94.032226 
L 992.918058 93.926621 
L 993.500433 92.800168 
L 993.888683 91.356899 
L 994.276932 91.216092 
L 994.471057 90.75847 
L 995.829932 89.843227 
L 996.218182 89.28 
L 996.218182 89.28 
" clip-path="url(#p635e284011)" style="fill: none; stroke: #1f77b4; stroke-width: 1.5; stroke-linecap: square"/>
   </g>
   <g id="patch_3">
    <path d="M 144 512.64 
L 144 69.12 
" style="fill: none; stroke: #000000; stroke-width: 0.8; stroke-linejoin: miter; stroke-linecap: square"/>
   </g>
   <g id="patch_4">
    <path d="M 1036.8 512.64 
L 1036.8 69.12 
" style="fill: none; stroke: #000000; stroke-width: 0.8; stroke-linejoin: miter; stroke-linecap: square"/>
   </g>
   <g id="patch_5">
    <path d="M 144 512.64 
L 1036.8 512.64 
" style="fill: none; stroke: #000000; stroke-width: 0.8; stroke-linejoin: miter; stroke-linecap: square"/>
   </g>
   <g id="patch_6">
    <path d="M 144 69.12 
L 1036.8 69.12 
" style="fill: none; stroke: #000000; stroke-width: 0.8; stroke-linejoin: miter; stroke-linecap: square"/>
   </g>
   <g id="text_15">
    <!-- Number of AEDs in the OpenStreetMap database in Poland from first edition, day by day. As at: 2025-07-23 -->
    <g transform="translate(144 63.12) scale(0.14 -0.14)">
     <defs>
      <path id="DejaVuSans-4e" d="M 628 4666 
L 1478 4666 
L 3547 763 
L 3547 4666 
L 4159 4666 
L 4159 0 
L 3309 0 
L 1241 3903 
L 1241 0 
L 628 0 
L 628 4666 
z
" transform="scale(0.015625)"/>
      <path id="DejaVuSans-75" d="M 544 1381 
L 544 3500 
L 1119 3500 
L 1119 1403 
Q 1119 906 1312 657 
Q 1506 409 1894 409 
Q 2359 409 2629 706 
Q 2900 1003 2900 1516 
L 2900 3500 
L 3475 3500 
L 3475 0 
L 2900 0 
L 2900 538 
Q 2691 219 2414 64 
Q 2138 -91 1772 -91 
Q 1169 -91 856 284 
Q 544 659 544 1381 
z
M 1991 3584 
L 1991 3584 
z
" transform="scale(0.015625)"/>
      <path id="DejaVuSans-6d" d="M 3328 2828 
Q 3544 3216 3844 3400 
Q 4144 3584 4550 3584 
Q 5097 3584 5394 3201 
Q 5691 2819 5691 2113 
L 5691 0 
L 5113 0 
L 5113 2094 
Q 5113 2597 4934 2840 
Q 4756 3084 4391 3084 
Q 3944 3084 3684 2787 
Q 3425 2491 3425 1978 
L 3425 0 
L 2847 0 
L 2847 2094 
Q 2847 2600 2669 2842 
Q 2491 3084 2119 3084 
Q 1678 3084 1418 2786 
Q 1159 2488 1159 1978 
L 1159 0 
L 581 0 
L 581 3500 
L 1159 3500 
L 1159 2956 
Q 1356 3278 1631 3431 
Q 1906 3584 2284 3584 
Q 2666 3584 2933 3390 
Q 3200 3197 3328 2828 
z
" transform="scale(0.015625)"/>
      <path id="DejaVuSans-62" d="M 3116 1747 
Q 3116 2381 2855 2742 
Q 2594 3103 2138 3103 
Q 1681 3103 1420 2742 
Q 1159 2381 1159 1747 
Q 1159 1113 1420 752 
Q 1681 391 2138 391 
Q 2594 391 2855 752 
Q 3116 1113 3116 1747 
z
M 1159 2969 
Q 1341 3281 1617 3432 
Q 1894 3584 2278 3584 
Q 2916 3584 3314 3078 
Q 3713 2572 3713 1747 
Q 3713 922 3314 415 
Q 2916 -91 2278 -91 
Q 1894 -91 1617 61 
Q 1341 213 1159 525 
L 1159 0 
L 581 0 
L 581 4863 
L 1159 4863 
L 1159 2969 
z
" transform="scale(0.015625)"/>
      <path id="DejaVuSans-65" d="M 3597 1894 
L 3597 1613 
L 953 1613 
Q 991 1019 1311 708 
Q 1631 397 2203 397 
Q 2534 397 2845 478 
Q 3156 559 3463 722 
L 3463 178 
Q 3153 47 2828 -22 
Q 2503 -91 2169 -91 
Q 1331 -91 842 396 
Q 353 884 353 1716 
Q 353 2575 817 3079 
Q 1281 3584 2069 3584 
Q 2775 3584 3186 3129 
Q 3597 2675 3597 1894 
z
M 3022 2063 
Q 3016 2534 2758 2815 
Q 2500 3097 2075 3097 
Q 1594 3097 1305 2825 
Q 1016 2553 972 2059 
L 3022 2063 
z
" transform="scale(0.015625)"/>
      <path id="DejaVuSans-72" d="M 2631 2963 
Q 2534 3019 2420 3045 
Q 2306 3072 2169 3072 
Q 1681 3072 1420 2755 
Q 1159 2438 1159 1844 
L 1159 0 
L 581 0 
L 581 3500 
L 1159 3500 
L 1159 2956 
Q 1341 3275 1631 3429 
Q 1922 3584 2338 3584 
Q 2397 3584 2469 3576 
Q 2541 3569 2628 3553 
L 2631 2963 
z
" transform="scale(0.015625)"/>
      <path id="DejaVuSans-20" transform="scale(0.015625)"/>
      <path id="DejaVuSans-6f" d="M 1959 3097 
Q 1497 3097 1228 2736 
Q 959 2375 959 1747 
Q 959 1119 1226 758 
Q 1494 397 1959 397 
Q 2419 397 2687 759 
Q 2956 1122 2956 1747 
Q 2956 2369 2687 2733 
Q 2419 3097 1959 3097 
z
M 1959 3584 
Q 2709 3584 3137 3096 
Q 3566 2609 3566 1747 
Q 3566 888 3137 398 
Q 2709 -91 1959 -91 
Q 1206 -91 779 398 
Q 353 888 353 1747 
Q 353 2609 779 3096 
Q 1206 3584 1959 3584 
z
" transform="scale(0.015625)"/>
      <path id="DejaVuSans-66" d="M 2375 4863 
L 2375 4384 
L 1825 4384 
Q 1516 4384 1395 4259 
Q 1275 4134 1275 3809 
L 1275 3500 
L 2222 3500 
L 2222 3053 
L 1275 3053 
L 1275 0 
L 697 0 
L 697 3053 
L 147 3053 
L 147 3500 
L 697 3500 
L 697 3744 
Q 697 4328 969 4595 
Q 1241 4863 1831 4863 
L 2375 4863 
z
" transform="scale(0.015625)"/>
      <path id="DejaVuSans-41" d="M 2188 4044 
L 1331 1722 
L 3047 1722 
L 2188 4044 
z
M 1831 4666 
L 2547 4666 
L 4325 0 
L 3669 0 
L 3244 1197 
L 1141 1197 
L 716 0 
L 50 0 
L 1831 4666 
z
" transform="scale(0.015625)"/>
      <path id="DejaVuSans-45" d="M 628 4666 
L 3578 4666 
L 3578 4134 
L 1259 4134 
L 1259 2753 
L 3481 2753 
L 3481 2222 
L 1259 2222 
L 1259 531 
L 3634 531 
L 3634 0 
L 628 0 
L 628 4666 
z
" transform="scale(0.015625)"/>
      <path id="DejaVuSans-44" d="M 1259 4147 
L 1259 519 
L 2022 519 
Q 2988 519 3436 956 
Q 3884 1394 3884 2338 
Q 3884 3275 3436 3711 
Q 2988 4147 2022 4147 
L 1259 4147 
z
M 628 4666 
L 1925 4666 
Q 3281 4666 3915 4102 
Q 4550 3538 4550 2338 
Q 4550 1131 3912 565 
Q 3275 0 1925 0 
L 628 0 
L 628 4666 
z
" transform="scale(0.015625)"/>
      <path id="DejaVuSans-73" d="M 2834 3397 
L 2834 2853 
Q 2591 2978 2328 3040 
Q 2066 3103 1784 3103 
Q 1356 3103 1142 2972 
Q 928 2841 928 2578 
Q 928 2378 1081 2264 
Q 1234 2150 1697 2047 
L 1894 2003 
Q 2506 1872 2764 1633 
Q 3022 1394 3022 966 
Q 3022 478 2636 193 
Q 2250 -91 1575 -91 
Q 1294 -91 989 -36 
Q 684 19 347 128 
L 347 722 
Q 666 556 975 473 
Q 1284 391 1588 391 
Q 1994 391 2212 530 
Q 2431 669 2431 922 
Q 2431 1156 2273 1281 
Q 2116 1406 1581 1522 
L 1381 1569 
Q 847 1681 609 1914 
Q 372 2147 372 2553 
Q 372 3047 722 3315 
Q 1072 3584 1716 3584 
Q 2034 3584 2315 3537 
Q 2597 3491 2834 3397 
z
" transform="scale(0.015625)"/>
      <path id="DejaVuSans-69" d="M 603 3500 
L 1178 3500 
L 1178 0 
L 603 0 
L 603 3500 
z
M 603 4863 
L 1178 4863 
L 1178 4134 
L 603 4134 
L 603 4863 
z
" transform="scale(0.015625)"/>
      <path id="DejaVuSans-6e" d="M 3513 2113 
L 3513 0 
L 2938 0 
L 2938 2094 
Q 2938 2591 2744 2837 
Q 2550 3084 2163 3084 
Q 1697 3084 1428 2787 
Q 1159 2491 1159 1978 
L 1159 0 
L 581 0 
L 581 3500 
L 1159 3500 
L 1159 2956 
Q 1366 3272 1645 3428 
Q 1925 3584 2291 3584 
Q 2894 3584 3203 3211 
Q 3513 2838 3513 2113 
z
" transform="scale(0.015625)"/>
      <path id="DejaVuSans-74" d="M 1172 4494 
L 1172 3500 
L 2356 3500 
L 2356 3053 
L 1172 3053 
L 1172 1153 
Q 1172 725 1289 603 
Q 1406 481 1766 481 
L 2356 481 
L 2356 0 
L 1766 0 
Q 1100 0 847 248 
Q 594 497 594 1153 
L 594 3053 
L 172 3053 
L 172 3500 
L 594 3500 
L 594 4494 
L 1172 4494 
z
" transform="scale(0.015625)"/>
      <path id="DejaVuSans-68" d="M 3513 2113 
L 3513 0 
L 2938 0 
L 2938 2094 
Q 2938 2591 2744 2837 
Q 2550 3084 2163 3084 
Q 1697 3084 1428 2787 
Q 1159 2491 1159 1978 
L 1159 0 
L 581 0 
L 581 4863 
L 1159 4863 
L 1159 2956 
Q 1366 3272 1645 3428 
Q 1925 3584 2291 3584 
Q 2894 3584 3203 3211 
Q 3513 2838 3513 2113 
z
" transform="scale(0.015625)"/>
      <path id="DejaVuSans-4f" d="M 2522 4238 
Q 1834 4238 1429 3725 
Q 1025 3213 1025 2328 
Q 1025 1447 1429 934 
Q 1834 422 2522 422 
Q 3209 422 3611 934 
Q 4013 1447 4013 2328 
Q 4013 3213 3611 3725 
Q 3209 4238 2522 4238 
z
M 2522 4750 
Q 3503 4750 4090 4092 
Q 4678 3434 4678 2328 
Q 4678 1225 4090 567 
Q 3503 -91 2522 -91 
Q 1538 -91 948 565 
Q 359 1222 359 2328 
Q 359 3434 948 4092 
Q 1538 4750 2522 4750 
z
" transform="scale(0.015625)"/>
      <path id="DejaVuSans-70" d="M 1159 525 
L 1159 -1331 
L 581 -1331 
L 581 3500 
L 1159 3500 
L 1159 2969 
Q 1341 3281 1617 3432 
Q 1894 3584 2278 3584 
Q 2916 3584 3314 3078 
Q 3713 2572 3713 1747 
Q 3713 922 3314 415 
Q 2916 -91 2278 -91 
Q 1894 -91 1617 61 
Q 1341 213 1159 525 
z
M 3116 1747 
Q 3116 2381 2855 2742 
Q 2594 3103 2138 3103 
Q 1681 3103 1420 2742 
Q 1159 2381 1159 1747 
Q 1159 1113 1420 752 
Q 1681 391 2138 391 
Q 2594 391 2855 752 
Q 3116 1113 3116 1747 
z
" transform="scale(0.015625)"/>
      <path id="DejaVuSans-53" d="M 3425 4513 
L 3425 3897 
Q 3066 4069 2747 4153 
Q 2428 4238 2131 4238 
Q 1616 4238 1336 4038 
Q 1056 3838 1056 3469 
Q 1056 3159 1242 3001 
Q 1428 2844 1947 2747 
L 2328 2669 
Q 3034 2534 3370 2195 
Q 3706 1856 3706 1288 
Q 3706 609 3251 259 
Q 2797 -91 1919 -91 
Q 1588 -91 1214 -16 
Q 841 59 441 206 
L 441 856 
Q 825 641 1194 531 
Q 1563 422 1919 422 
Q 2459 422 2753 634 
Q 3047 847 3047 1241 
Q 3047 1584 2836 1778 
Q 2625 1972 2144 2069 
L 1759 2144 
Q 1053 2284 737 2584 
Q 422 2884 422 3419 
Q 422 4038 858 4394 
Q 1294 4750 2059 4750 
Q 2388 4750 2728 4690 
Q 3069 4631 3425 4513 
z
" transform="scale(0.015625)"/>
      <path id="DejaVuSans-4d" d="M 628 4666 
L 1569 4666 
L 2759 1491 
L 3956 4666 
L 4897 4666 
L 4897 0 
L 4281 0 
L 4281 4097 
L 3078 897 
L 2444 897 
L 1241 4097 
L 1241 0 
L 628 0 
L 628 4666 
z
" transform="scale(0.015625)"/>
      <path id="DejaVuSans-61" d="M 2194 1759 
Q 1497 1759 1228 1600 
Q 959 1441 959 1056 
Q 959 750 1161 570 
Q 1363 391 1709 391 
Q 2188 391 2477 730 
Q 2766 1069 2766 1631 
L 2766 1759 
L 2194 1759 
z
M 3341 1997 
L 3341 0 
L 2766 0 
L 2766 531 
Q 2569 213 2275 61 
Q 1981 -91 1556 -91 
Q 1019 -91 701 211 
Q 384 513 384 1019 
Q 384 1609 779 1909 
Q 1175 2209 1959 2209 
L 2766 2209 
L 2766 2266 
Q 2766 2663 2505 2880 
Q 2244 3097 1772 3097 
Q 1472 3097 1187 3025 
Q 903 2953 641 2809 
L 641 3341 
Q 956 3463 1253 3523 
Q 1550 3584 1831 3584 
Q 2591 3584 2966 3190 
Q 3341 2797 3341 1997 
z
" transform="scale(0.015625)"/>
      <path id="DejaVuSans-64" d="M 2906 2969 
L 2906 4863 
L 3481 4863 
L 3481 0 
L 2906 0 
L 2906 525 
Q 2725 213 2448 61 
Q 2172 -91 1784 -91 
Q 1150 -91 751 415 
Q 353 922 353 1747 
Q 353 2572 751 3078 
Q 1150 3584 1784 3584 
Q 2172 3584 2448 3432 
Q 2725 3281 2906 2969 
z
M 947 1747 
Q 947 1113 1208 752 
Q 1469 391 1925 391 
Q 2381 391 2643 752 
Q 2906 1113 2906 1747 
Q 2906 2381 2643 2742 
Q 2381 3103 1925 3103 
Q 1469 3103 1208 2742 
Q 947 2381 947 1747 
z
" transform="scale(0.015625)"/>
      <path id="DejaVuSans-50" d="M 1259 4147 
L 1259 2394 
L 2053 2394 
Q 2494 2394 2734 2622 
Q 2975 2850 2975 3272 
Q 2975 3691 2734 3919 
Q 2494 4147 2053 4147 
L 1259 4147 
z
M 628 4666 
L 2053 4666 
Q 2838 4666 3239 4311 
Q 3641 3956 3641 3272 
Q 3641 2581 3239 2228 
Q 2838 1875 2053 1875 
L 1259 1875 
L 1259 0 
L 628 0 
L 628 4666 
z
" transform="scale(0.015625)"/>
      <path id="DejaVuSans-6c" d="M 603 4863 
L 1178 4863 
L 1178 0 
L 603 0 
L 603 4863 
z
" transform="scale(0.015625)"/>
      <path id="DejaVuSans-2c" d="M 750 794 
L 1409 794 
L 1409 256 
L 897 -744 
L 494 -744 
L 750 256 
L 750 794 
z
" transform="scale(0.015625)"/>
      <path id="DejaVuSans-79" d="M 2059 -325 
Q 1816 -950 1584 -1140 
Q 1353 -1331 966 -1331 
L 506 -1331 
L 506 -850 
L 844 -850 
Q 1081 -850 1212 -737 
Q 1344 -625 1503 -206 
L 1606 56 
L 191 3500 
L 800 3500 
L 1894 763 
L 2988 3500 
L 3597 3500 
L 2059 -325 
z
" transform="scale(0.015625)"/>
      <path id="DejaVuSans-2e" d="M 684 794 
L 1344 794 
L 1344 0 
L 684 0 
L 684 794 
z
" transform="scale(0.015625)"/>
      <path id="DejaVuSans-3a" d="M 750 794 
L 1409 794 
L 1409 0 
L 750 0 
L 750 794 
z
M 750 3309 
L 1409 3309 
L 1409 2516 
L 750 2516 
L 750 3309 
z
" transform="scale(0.015625)"/>
      <path id="DejaVuSans-35" d="M 691 4666 
L 3169 4666 
L 3169 4134 
L 1269 4134 
L 1269 2991 
Q 1406 3038 1543 3061 
Q 1681 3084 1819 3084 
Q 2600 3084 3056 2656 
Q 3513 2228 3513 1497 
Q 3513 744 3044 326 
Q 2575 -91 1722 -91 
Q 1428 -91 1123 -41 
Q 819 9 494 109 
L 494 744 
Q 775 591 1075 516 
Q 1375 441 1709 441 
Q 2250 441 2565 725 
Q 2881 1009 2881 1497 
Q 2881 1984 2565 2268 
Q 2250 2553 1709 2553 
Q 1456 2553 1204 2497 
Q 953 2441 691 2322 
L 691 4666 
z
" transform="scale(0.015625)"/>
      <path id="DejaVuSans-2d" d="M 313 2009 
L 1997 2009 
L 1997 1497 
L 313 1497 
L 313 2009 
z
" transform="scale(0.015625)"/>
      <path id="DejaVuSans-37" d="M 525 4666 
L 3525 4666 
L 3525 4397 
L 1831 0 
L 1172 0 
L 2766 4134 
L 525 4134 
L 525 4666 
z
" transform="scale(0.015625)"/>
      <path id="DejaVuSans-33" d="M 2597 2516 
Q 3050 2419 3304 2112 
Q 3559 1806 3559 1356 
Q 3559 666 3084 287 
Q 2609 -91 1734 -91 
Q 1441 -91 1130 -33 
Q 819 25 488 141 
L 488 750 
Q 750 597 1062 519 
Q 1375 441 1716 441 
Q 2309 441 2620 675 
Q 2931 909 2931 1356 
Q 2931 1769 2642 2001 
Q 2353 2234 1838 2234 
L 1294 2234 
L 1294 2753 
L 1863 2753 
Q 2328 2753 2575 2939 
Q 2822 3125 2822 3475 
Q 2822 3834 2567 4026 
Q 2313 4219 1838 4219 
Q 1578 4219 1281 4162 
Q 984 4106 628 3988 
L 628 4550 
Q 988 4650 1302 4700 
Q 1616 4750 1894 4750 
Q 2613 4750 3031 4423 
Q 3450 4097 3450 3541 
Q 3450 3153 3228 2886 
Q 3006 2619 2597 2516 
z
" transform="scale(0.015625)"/>
     </defs>
     <use xlink:href="#DejaVuSans-4e"/>
     <use xlink:href="#DejaVuSans-75" x="74.804688"/>
     <use xlink:href="#DejaVuSans-6d" x="138.183594"/>
     <use xlink:href="#DejaVuSans-62" x="235.595703"/>
     <use xlink:href="#DejaVuSans-65" x="299.072266"/>
     <use xlink:href="#DejaVuSans-72" x="360.595703"/>
     <use xlink:href="#DejaVuSans-20" x="401.708984"/>
     <use xlink:href="#DejaVuSans-6f" x="433.496094"/>
     <use xlink:href="#DejaVuSans-66" x="494.677734"/>
     <use xlink:href="#DejaVuSans-20" x="529.882812"/>
     <use xlink:href="#DejaVuSans-41" x="561.669922"/>
     <use xlink:href="#DejaVuSans-45" x="630.078125"/>
     <use xlink:href="#DejaVuSans-44" x="693.261719"/>
     <use xlink:href="#DejaVuSans-73" x="770.263672"/>
     <use xlink:href="#DejaVuSans-20" x="822.363281"/>
     <use xlink:href="#DejaVuSans-69" x="854.150391"/>
     <use xlink:href="#DejaVuSans-6e" x="881.933594"/>
     <use xlink:href="#DejaVuSans-20" x="945.3125"/>
     <use xlink:href="#DejaVuSans-74" x="977.099609"/>
     <use xlink:href="#DejaVuSans-68" x="1016.308594"/>
     <use xlink:href="#DejaVuSans-65" x="1079.6875"/>
     <use xlink:href="#DejaVuSans-20" x="1141.210938"/>
     <use xlink:href="#DejaVuSans-4f" x="1172.998047"/>
     <use xlink:href="#DejaVuSans-70" x="1251.708984"/>
     <use xlink:href="#DejaVuSans-65" x="1315.185547"/>
     <use xlink:href="#DejaVuSans-6e" x="1376.708984"/>
     <use xlink:href="#DejaVuSans-53" x="1440.087891"/>
     <use xlink:href="#DejaVuSans-74" x="1503.564453"/>
     <use xlink:href="#DejaVuSans-72" x="1542.773438"/>
     <use xlink:href="#DejaVuSans-65" x="1581.636719"/>
     <use xlink:href="#DejaVuSans-65" x="1643.160156"/>
     <use xlink:href="#DejaVuSans-74" x="1704.683594"/>
     <use xlink:href="#DejaVuSans-4d" x="1743.892578"/>
     <use xlink:href="#DejaVuSans-61" x="1830.171875"/>
     <use xlink:href="#DejaVuSans-70" x="1891.451172"/>
     <use xlink:href="#DejaVuSans-20" x="1954.927734"/>
     <use xlink:href="#DejaVuSans-64" x="1986.714844"/>
     <use xlink:href="#DejaVuSans-61" x="2050.191406"/>
     <use xlink:href="#DejaVuSans-74" x="2111.470703"/>
     <use xlink:href="#DejaVuSans-61" x="2150.679688"/>
     <use xlink:href="#DejaVuSans-62" x="2211.958984"/>
     <use xlink:href="#DejaVuSans-61" x="2275.435547"/>
     <use xlink:href="#DejaVuSans-73" x="2336.714844"/>
     <use xlink:href="#DejaVuSans-65" x="2388.814453"/>
     <use xlink:href="#DejaVuSans-20" x="2450.337891"/>
     <use xlink:href="#DejaVuSans-69" x="2482.125"/>
     <use xlink:href="#DejaVuSans-6e" x="2509.908203"/>
     <use xlink:href="#DejaVuSans-20" x="2573.287109"/>
     <use xlink:href="#DejaVuSans-50" x="2605.074219"/>
     <use xlink:href="#DejaVuSans-6f" x="2661.751953"/>
     <use xlink:href="#DejaVuSans-6c" x="2722.933594"/>
     <use xlink:href="#DejaVuSans-61" x="2750.716797"/>
     <use xlink:href="#DejaVuSans-6e" x="2811.996094"/>
     <use xlink:href="#DejaVuSans-64" x="2875.375"/>
     <use xlink:href="#DejaVuSans-20" x="2938.851562"/>
     <use xlink:href="#DejaVuSans-66" x="2970.638672"/>
     <use xlink:href="#DejaVuSans-72" x="3005.84375"/>
     <use xlink:href="#DejaVuSans-6f" x="3044.707031"/>
     <use xlink:href="#DejaVuSans-6d" x="3105.888672"/>
     <use xlink:href="#DejaVuSans-20" x="3203.300781"/>
     <use xlink:href="#DejaVuSans-66" x="3235.087891"/>
     <use xlink:href="#DejaVuSans-69" x="3270.292969"/>
     <use xlink:href="#DejaVuSans-72" x="3298.076172"/>
     <use xlink:href="#DejaVuSans-73" x="3339.189453"/>
     <use xlink:href="#DejaVuSans-74" x="3391.289062"/>
     <use xlink:href="#DejaVuSans-20" x="3430.498047"/>
     <use xlink:href="#DejaVuSans-65" x="3462.285156"/>
     <use xlink:href="#DejaVuSans-64" x="3523.808594"/>
     <use xlink:href="#DejaVuSans-69" x="3587.285156"/>
     <use xlink:href="#DejaVuSans-74" x="3615.068359"/>
     <use xlink:href="#DejaVuSans-69" x="3654.277344"/>
     <use xlink:href="#DejaVuSans-6f" x="3682.060547"/>
     <use xlink:href="#DejaVuSans-6e" x="3743.242188"/>
     <use xlink:href="#DejaVuSans-2c" x="3806.621094"/>
     <use xlink:href="#DejaVuSans-20" x="3838.408203"/>
     <use xlink:href="#DejaVuSans-64" x="3870.195312"/>
     <use xlink:href="#DejaVuSans-61" x="3933.671875"/>
     <use xlink:href="#DejaVuSans-79" x="3994.951172"/>
     <use xlink:href="#DejaVuSans-20" x="4054.130859"/>
     <use xlink:href="#DejaVuSans-62" x="4085.917969"/>
     <use xlink:href="#DejaVuSans-79" x="4149.394531"/>
     <use xlink:href="#DejaVuSans-20" x="4208.574219"/>
     <use xlink:href="#DejaVuSans-64" x="4240.361328"/>
     <use xlink:href="#DejaVuSans-61" x="4303.837891"/>
     <use xlink:href="#DejaVuSans-79" x="4365.117188"/>
     <use xlink:href="#DejaVuSans-2e" x="4410.046875"/>
     <use xlink:href="#DejaVuSans-20" x="4441.833984"/>
     <use xlink:href="#DejaVuSans-41" x="4473.621094"/>
     <use xlink:href="#DejaVuSans-73" x="4542.029297"/>
     <use xlink:href="#DejaVuSans-20" x="4594.128906"/>
     <use xlink:href="#DejaVuSans-61" x="4625.916016"/>
     <use xlink:href="#DejaVuSans-74" x="4687.195312"/>
     <use xlink:href="#DejaVuSans-3a" x="4726.404297"/>
     <use xlink:href="#DejaVuSans-20" x="4760.095703"/>
     <use xlink:href="#DejaVuSans-32" x="4791.882812"/>
     <use xlink:href="#DejaVuSans-30" x="4855.505859"/>
     <use xlink:href="#DejaVuSans-32" x="4919.128906"/>
     <use xlink:href="#DejaVuSans-35" x="4982.751953"/>
     <use xlink:href="#DejaVuSans-2d" x="5046.375"/>
     <use xlink:href="#DejaVuSans-30" x="5082.458984"/>
     <use xlink:href="#DejaVuSans-37" x="5146.082031"/>
     <use xlink:href="#DejaVuSans-2d" x="5209.705078"/>
     <use xlink:href="#DejaVuSans-32" x="5245.789062"/>
     <use xlink:href="#DejaVuSans-33" x="5309.412109"/>
    </g>
   </g>
  </g>
 </g>
 <defs>
  <clipPath id="p635e284011">
   <rect x="144" y="69.12" width="892.8" height="443.52"/>
  </clipPath>
 </defs>
</svg>
