<?xml version="1.0" encoding="utf-8" standalone="no"?>
<!DOCTYPE svg PUBLIC "-//W3C//DTD SVG 1.1//EN"
  "http://www.w3.org/Graphics/SVG/1.1/DTD/svg11.dtd">
<svg xmlns:xlink="http://www.w3.org/1999/xlink" width="1152pt" height="576pt" viewBox="0 0 1152 576" xmlns="http://www.w3.org/2000/svg" version="1.1">
 <metadata>
  <rdf:RDF xmlns:dc="http://purl.org/dc/elements/1.1/" xmlns:cc="http://creativecommons.org/ns#" xmlns:rdf="http://www.w3.org/1999/02/22-rdf-syntax-ns#">
   <cc:Work>
    <dc:type rdf:resource="http://purl.org/dc/dcmitype/StillImage"/>
    <dc:date>1980-01-01T00:00:00+00:00</dc:date>
    <dc:format>image/svg+xml</dc:format>
    <dc:creator>
     <cc:Agent>
      <dc:title>Matplotlib v3.9.1, https://matplotlib.org/</dc:title>
     </cc:Agent>
    </dc:creator>
   </cc:Work>
  </rdf:RDF>
 </metadata>
 <defs>
  <style type="text/css">*{stroke-linejoin: round; stroke-linecap: butt}</style>
 </defs>
 <g id="figure_1">
  <g id="patch_1">
   <path d="M 0 576 
L 1152 576 
L 1152 0 
L 0 0 
z
" style="fill: #ffffff"/>
  </g>
  <g id="axes_1">
   <g id="patch_2">
    <path d="M 144 512.64 
L 1036.8 512.64 
L 1036.8 69.12 
L 144 69.12 
z
" style="fill: #ffffff"/>
   </g>
   <g id="matplotlib.axis_1">
    <g id="xtick_1">
     <g id="line2d_1">
      <defs>
       <path id="md714a8d87a" d="M 0 0 
L 0 3.5 
" style="stroke: #000000; stroke-width: 0.8"/>
      </defs>
      <g>
       <use xlink:href="#md714a8d87a" x="176.736131" y="512.64" style="stroke: #000000; stroke-width: 0.8"/>
      </g>
     </g>
     <g id="text_1">
      <!-- 2014 -->
      <g transform="translate(164.011131 527.238438) scale(0.1 -0.1)">
       <defs>
        <path id="DejaVuSans-32" d="M 1228 531 
L 3431 531 
L 3431 0 
L 469 0 
L 469 531 
Q 828 903 1448 1529 
Q 2069 2156 2228 2338 
Q 2531 2678 2651 2914 
Q 2772 3150 2772 3378 
Q 2772 3750 2511 3984 
Q 2250 4219 1831 4219 
Q 1534 4219 1204 4116 
Q 875 4013 500 3803 
L 500 4441 
Q 881 4594 1212 4672 
Q 1544 4750 1819 4750 
Q 2544 4750 2975 4387 
Q 3406 4025 3406 3419 
Q 3406 3131 3298 2873 
Q 3191 2616 2906 2266 
Q 2828 2175 2409 1742 
Q 1991 1309 1228 531 
z
" transform="scale(0.015625)"/>
        <path id="DejaVuSans-30" d="M 2034 4250 
Q 1547 4250 1301 3770 
Q 1056 3291 1056 2328 
Q 1056 1369 1301 889 
Q 1547 409 2034 409 
Q 2525 409 2770 889 
Q 3016 1369 3016 2328 
Q 3016 3291 2770 3770 
Q 2525 4250 2034 4250 
z
M 2034 4750 
Q 2819 4750 3233 4129 
Q 3647 3509 3647 2328 
Q 3647 1150 3233 529 
Q 2819 -91 2034 -91 
Q 1250 -91 836 529 
Q 422 1150 422 2328 
Q 422 3509 836 4129 
Q 1250 4750 2034 4750 
z
" transform="scale(0.015625)"/>
        <path id="DejaVuSans-31" d="M 794 531 
L 1825 531 
L 1825 4091 
L 703 3866 
L 703 4441 
L 1819 4666 
L 2450 4666 
L 2450 531 
L 3481 531 
L 3481 0 
L 794 0 
L 794 531 
z
" transform="scale(0.015625)"/>
        <path id="DejaVuSans-34" d="M 2419 4116 
L 825 1625 
L 2419 1625 
L 2419 4116 
z
M 2253 4666 
L 3047 4666 
L 3047 1625 
L 3713 1625 
L 3713 1100 
L 3047 1100 
L 3047 0 
L 2419 0 
L 2419 1100 
L 313 1100 
L 313 1709 
L 2253 4666 
z
" transform="scale(0.015625)"/>
       </defs>
       <use xlink:href="#DejaVuSans-32"/>
       <use xlink:href="#DejaVuSans-30" x="63.623047"/>
       <use xlink:href="#DejaVuSans-31" x="127.246094"/>
       <use xlink:href="#DejaVuSans-34" x="190.869141"/>
      </g>
     </g>
    </g>
    <g id="xtick_2">
     <g id="line2d_2">
      <g>
       <use xlink:href="#md714a8d87a" x="319.919926" y="512.64" style="stroke: #000000; stroke-width: 0.8"/>
      </g>
     </g>
     <g id="text_2">
      <!-- 2016 -->
      <g transform="translate(307.194926 527.238438) scale(0.1 -0.1)">
       <defs>
        <path id="DejaVuSans-36" d="M 2113 2584 
Q 1688 2584 1439 2293 
Q 1191 2003 1191 1497 
Q 1191 994 1439 701 
Q 1688 409 2113 409 
Q 2538 409 2786 701 
Q 3034 994 3034 1497 
Q 3034 2003 2786 2293 
Q 2538 2584 2113 2584 
z
M 3366 4563 
L 3366 3988 
Q 3128 4100 2886 4159 
Q 2644 4219 2406 4219 
Q 1781 4219 1451 3797 
Q 1122 3375 1075 2522 
Q 1259 2794 1537 2939 
Q 1816 3084 2150 3084 
Q 2853 3084 3261 2657 
Q 3669 2231 3669 1497 
Q 3669 778 3244 343 
Q 2819 -91 2113 -91 
Q 1303 -91 875 529 
Q 447 1150 447 2328 
Q 447 3434 972 4092 
Q 1497 4750 2381 4750 
Q 2619 4750 2861 4703 
Q 3103 4656 3366 4563 
z
" transform="scale(0.015625)"/>
       </defs>
       <use xlink:href="#DejaVuSans-32"/>
       <use xlink:href="#DejaVuSans-30" x="63.623047"/>
       <use xlink:href="#DejaVuSans-31" x="127.246094"/>
       <use xlink:href="#DejaVuSans-36" x="190.869141"/>
      </g>
     </g>
    </g>
    <g id="xtick_3">
     <g id="line2d_3">
      <g>
       <use xlink:href="#md714a8d87a" x="463.299864" y="512.64" style="stroke: #000000; stroke-width: 0.8"/>
      </g>
     </g>
     <g id="text_3">
      <!-- 2018 -->
      <g transform="translate(450.574864 527.238438) scale(0.1 -0.1)">
       <defs>
        <path id="DejaVuSans-38" d="M 2034 2216 
Q 1584 2216 1326 1975 
Q 1069 1734 1069 1313 
Q 1069 891 1326 650 
Q 1584 409 2034 409 
Q 2484 409 2743 651 
Q 3003 894 3003 1313 
Q 3003 1734 2745 1975 
Q 2488 2216 2034 2216 
z
M 1403 2484 
Q 997 2584 770 2862 
Q 544 3141 544 3541 
Q 544 4100 942 4425 
Q 1341 4750 2034 4750 
Q 2731 4750 3128 4425 
Q 3525 4100 3525 3541 
Q 3525 3141 3298 2862 
Q 3072 2584 2669 2484 
Q 3125 2378 3379 2068 
Q 3634 1759 3634 1313 
Q 3634 634 3220 271 
Q 2806 -91 2034 -91 
Q 1263 -91 848 271 
Q 434 634 434 1313 
Q 434 1759 690 2068 
Q 947 2378 1403 2484 
z
M 1172 3481 
Q 1172 3119 1398 2916 
Q 1625 2713 2034 2713 
Q 2441 2713 2670 2916 
Q 2900 3119 2900 3481 
Q 2900 3844 2670 4047 
Q 2441 4250 2034 4250 
Q 1625 4250 1398 4047 
Q 1172 3844 1172 3481 
z
" transform="scale(0.015625)"/>
       </defs>
       <use xlink:href="#DejaVuSans-32"/>
       <use xlink:href="#DejaVuSans-30" x="63.623047"/>
       <use xlink:href="#DejaVuSans-31" x="127.246094"/>
       <use xlink:href="#DejaVuSans-38" x="190.869141"/>
      </g>
     </g>
    </g>
    <g id="xtick_4">
     <g id="line2d_4">
      <g>
       <use xlink:href="#md714a8d87a" x="606.483659" y="512.64" style="stroke: #000000; stroke-width: 0.8"/>
      </g>
     </g>
     <g id="text_4">
      <!-- 2020 -->
      <g transform="translate(593.758659 527.238438) scale(0.1 -0.1)">
       <use xlink:href="#DejaVuSans-32"/>
       <use xlink:href="#DejaVuSans-30" x="63.623047"/>
       <use xlink:href="#DejaVuSans-32" x="127.246094"/>
       <use xlink:href="#DejaVuSans-30" x="190.869141"/>
      </g>
     </g>
    </g>
    <g id="xtick_5">
     <g id="line2d_5">
      <g>
       <use xlink:href="#md714a8d87a" x="749.863597" y="512.64" style="stroke: #000000; stroke-width: 0.8"/>
      </g>
     </g>
     <g id="text_5">
      <!-- 2022 -->
      <g transform="translate(737.138597 527.238438) scale(0.1 -0.1)">
       <use xlink:href="#DejaVuSans-32"/>
       <use xlink:href="#DejaVuSans-30" x="63.623047"/>
       <use xlink:href="#DejaVuSans-32" x="127.246094"/>
       <use xlink:href="#DejaVuSans-32" x="190.869141"/>
      </g>
     </g>
    </g>
    <g id="xtick_6">
     <g id="line2d_6">
      <g>
       <use xlink:href="#md714a8d87a" x="893.047392" y="512.64" style="stroke: #000000; stroke-width: 0.8"/>
      </g>
     </g>
     <g id="text_6">
      <!-- 2024 -->
      <g transform="translate(880.322392 527.238438) scale(0.1 -0.1)">
       <use xlink:href="#DejaVuSans-32"/>
       <use xlink:href="#DejaVuSans-30" x="63.623047"/>
       <use xlink:href="#DejaVuSans-32" x="127.246094"/>
       <use xlink:href="#DejaVuSans-34" x="190.869141"/>
      </g>
     </g>
    </g>
    <g id="xtick_7">
     <g id="line2d_7">
      <g>
       <use xlink:href="#md714a8d87a" x="1036.42733" y="512.64" style="stroke: #000000; stroke-width: 0.8"/>
      </g>
     </g>
     <g id="text_7">
      <!-- 2026 -->
      <g transform="translate(1023.70233 527.238438) scale(0.1 -0.1)">
       <use xlink:href="#DejaVuSans-32"/>
       <use xlink:href="#DejaVuSans-30" x="63.623047"/>
       <use xlink:href="#DejaVuSans-32" x="127.246094"/>
       <use xlink:href="#DejaVuSans-36" x="190.869141"/>
      </g>
     </g>
    </g>
   </g>
   <g id="matplotlib.axis_2">
    <g id="ytick_1">
     <g id="line2d_8">
      <defs>
       <path id="maab8930819" d="M 0 0 
L -3.5 0 
" style="stroke: #000000; stroke-width: 0.8"/>
      </defs>
      <g>
       <use xlink:href="#maab8930819" x="144" y="492.51585" style="stroke: #000000; stroke-width: 0.8"/>
      </g>
     </g>
     <g id="text_8">
      <!-- 0 -->
      <g transform="translate(130.6375 496.315068) scale(0.1 -0.1)">
       <use xlink:href="#DejaVuSans-30"/>
      </g>
     </g>
    </g>
    <g id="ytick_2">
     <g id="line2d_9">
      <g>
       <use xlink:href="#maab8930819" x="144" y="420.81673" style="stroke: #000000; stroke-width: 0.8"/>
      </g>
     </g>
     <g id="text_9">
      <!-- 2000 -->
      <g transform="translate(111.55 424.615949) scale(0.1 -0.1)">
       <use xlink:href="#DejaVuSans-32"/>
       <use xlink:href="#DejaVuSans-30" x="63.623047"/>
       <use xlink:href="#DejaVuSans-30" x="127.246094"/>
       <use xlink:href="#DejaVuSans-30" x="190.869141"/>
      </g>
     </g>
    </g>
    <g id="ytick_3">
     <g id="line2d_10">
      <g>
       <use xlink:href="#maab8930819" x="144" y="349.11761" style="stroke: #000000; stroke-width: 0.8"/>
      </g>
     </g>
     <g id="text_10">
      <!-- 4000 -->
      <g transform="translate(111.55 352.916829) scale(0.1 -0.1)">
       <use xlink:href="#DejaVuSans-34"/>
       <use xlink:href="#DejaVuSans-30" x="63.623047"/>
       <use xlink:href="#DejaVuSans-30" x="127.246094"/>
       <use xlink:href="#DejaVuSans-30" x="190.869141"/>
      </g>
     </g>
    </g>
    <g id="ytick_4">
     <g id="line2d_11">
      <g>
       <use xlink:href="#maab8930819" x="144" y="277.41849" style="stroke: #000000; stroke-width: 0.8"/>
      </g>
     </g>
     <g id="text_11">
      <!-- 6000 -->
      <g transform="translate(111.55 281.217709) scale(0.1 -0.1)">
       <use xlink:href="#DejaVuSans-36"/>
       <use xlink:href="#DejaVuSans-30" x="63.623047"/>
       <use xlink:href="#DejaVuSans-30" x="127.246094"/>
       <use xlink:href="#DejaVuSans-30" x="190.869141"/>
      </g>
     </g>
    </g>
    <g id="ytick_5">
     <g id="line2d_12">
      <g>
       <use xlink:href="#maab8930819" x="144" y="205.71937" style="stroke: #000000; stroke-width: 0.8"/>
      </g>
     </g>
     <g id="text_12">
      <!-- 8000 -->
      <g transform="translate(111.55 209.518589) scale(0.1 -0.1)">
       <use xlink:href="#DejaVuSans-38"/>
       <use xlink:href="#DejaVuSans-30" x="63.623047"/>
       <use xlink:href="#DejaVuSans-30" x="127.246094"/>
       <use xlink:href="#DejaVuSans-30" x="190.869141"/>
      </g>
     </g>
    </g>
    <g id="ytick_6">
     <g id="line2d_13">
      <g>
       <use xlink:href="#maab8930819" x="144" y="134.020251" style="stroke: #000000; stroke-width: 0.8"/>
      </g>
     </g>
     <g id="text_13">
      <!-- 10000 -->
      <g transform="translate(105.1875 137.819469) scale(0.1 -0.1)">
       <use xlink:href="#DejaVuSans-31"/>
       <use xlink:href="#DejaVuSans-30" x="63.623047"/>
       <use xlink:href="#DejaVuSans-30" x="127.246094"/>
       <use xlink:href="#DejaVuSans-30" x="190.869141"/>
       <use xlink:href="#DejaVuSans-30" x="254.492188"/>
      </g>
     </g>
    </g>
   </g>
   <g id="line2d_14">
    <path d="M 184.581818 492.48 
L 186.347098 492.408301 
L 308.935964 492.193204 
L 452.512044 492.013956 
L 505.862718 491.798858 
L 519.788813 491.69131 
L 553.132985 491.512062 
L 554.702122 491.440363 
L 563.724663 491.332814 
L 606.679801 491.117717 
L 612.956351 491.046018 
L 613.348636 490.759221 
L 617.467622 490.579973 
L 651.988646 490.436575 
L 655.91149 490.329026 
L 670.033727 490.185628 
L 679.840837 490.113929 
L 693.766932 489.898832 
L 697.493633 489.755433 
L 707.1046 489.540336 
L 709.850591 489.361088 
L 711.615871 489.25354 
L 712.988866 489.074292 
L 720.442269 488.859194 
L 720.638411 488.823345 
L 724.757397 488.679947 
L 731.230089 488.213902 
L 741.429483 487.962955 
L 746.136895 486.493123 
L 746.333037 486.349725 
L 748.098317 486.170477 
L 748.882886 485.596885 
L 749.079028 484.700646 
L 749.471312 484.485548 
L 749.667455 484.449699 
L 749.863597 483.230814 
L 751.04045 482.72892 
L 751.432734 482.119477 
L 751.825019 481.86853 
L 752.021161 481.294937 
L 752.217303 479.825105 
L 752.413445 479.46661 
L 752.609587 478.713769 
L 752.80573 477.494884 
L 753.198014 474.51937 
L 753.590298 473.551432 
L 753.786441 468.747591 
L 753.982583 466.811715 
L 754.178725 466.058874 
L 754.374867 462.545617 
L 754.963294 458.530467 
L 755.159436 458.422918 
L 755.55172 456.379493 
L 755.747862 455.698352 
L 755.944005 450.464316 
L 756.140147 449.998272 
L 756.532431 448.277493 
L 756.728573 448.169944 
L 756.924715 447.273705 
L 757.120858 443.509501 
L 757.317 442.577413 
L 757.513142 442.505714 
L 757.709284 439.709448 
L 757.905426 439.135855 
L 758.297711 438.956607 
L 759.08228 436.232041 
L 759.474564 435.515049 
L 759.866848 433.399925 
L 760.06299 432.575385 
L 760.259133 428.524385 
L 760.847559 424.04319 
L 761.435986 423.828093 
L 761.82827 423.577146 
L 762.612839 422.071464 
L 763.005123 421.928066 
L 763.397408 418.809154 
L 763.59355 418.773305 
L 763.985834 418.235561 
L 764.181976 416.69403 
L 764.574261 416.084588 
L 764.966545 415.0808 
L 765.554972 414.829853 
L 765.751114 414.578906 
L 766.33954 412.320384 
L 766.535683 412.176986 
L 766.927967 411.603393 
L 767.712536 411.209048 
L 767.908678 409.739216 
L 768.10482 409.631667 
L 768.300962 409.344871 
L 768.497104 406.476906 
L 768.889389 406.369357 
L 769.281673 405.616516 
L 769.477815 404.899525 
L 770.066242 404.756127 
L 770.654668 403.644791 
L 770.850811 403.608941 
L 771.243095 402.999499 
L 771.635379 402.8561 
L 771.831522 399.557941 
L 773.008375 399.271144 
L 773.400659 398.984348 
L 774.185228 398.876799 
L 774.38137 398.661702 
L 776.735076 397.944711 
L 777.519645 397.371118 
L 778.500356 397.227719 
L 778.89264 396.940923 
L 779.284925 396.797525 
L 781.246347 396.259781 
L 782.030915 393.212569 
L 783.011626 393.06917 
L 783.207768 392.997471 
L 784.776906 392.818224 
L 785.365332 392.603126 
L 785.561475 391.993684 
L 786.542186 391.921985 
L 787.130612 391.599338 
L 789.092034 390.66725 
L 789.288176 390.416303 
L 790.072745 390.093657 
L 791.053456 389.950259 
L 791.249598 389.699312 
L 791.641882 389.663462 
L 791.838025 389.01817 
L 792.034167 388.946471 
L 792.230309 388.121931 
L 794.584015 387.584188 
L 795.172442 387.44079 
L 795.368584 386.974745 
L 796.741579 386.61625 
L 797.330006 386.401152 
L 798.114574 386.221905 
L 798.899143 386.006807 
L 799.879854 385.79171 
L 800.468281 385.612462 
L 801.841276 384.787922 
L 802.037418 384.070931 
L 803.018129 383.246391 
L 803.214271 382.887895 
L 804.194982 382.027506 
L 804.587267 381.274665 
L 804.783409 381.238816 
L 804.979551 380.521824 
L 805.76412 379.446338 
L 806.156404 379.26709 
L 806.548688 379.195391 
L 806.744831 378.872745 
L 807.137115 378.693497 
L 807.333257 378.335001 
L 808.313968 378.048205 
L 808.51011 377.725559 
L 809.883106 377.402913 
L 810.27539 377.223665 
L 810.471532 377.187815 
L 810.667674 377.008568 
L 811.648385 376.865169 
L 813.021381 376.219877 
L 813.609807 376.076479 
L 814.002091 375.251939 
L 814.394376 375.000992 
L 815.375087 374.176452 
L 815.571229 373.351913 
L 816.355798 373.100966 
L 817.532651 372.70662 
L 817.924935 372.097178 
L 818.513362 371.738682 
L 818.709504 371.702833 
L 819.101788 371.12924 
L 819.690215 370.914142 
L 820.082499 370.591496 
L 820.670926 370.3047 
L 821.06321 366.289549 
L 821.259352 364.963115 
L 821.455495 362.704593 
L 821.651637 362.417797 
L 822.436205 359.657381 
L 822.82849 358.940389 
L 823.024632 358.832841 
L 823.220774 358.581894 
L 823.416916 358.08 
L 823.613059 356.46677 
L 823.809201 356.072425 
L 824.201485 355.929026 
L 825.378338 353.491256 
L 825.57448 353.312009 
L 825.770623 352.34407 
L 825.966765 351.985575 
L 826.359049 351.053486 
L 826.751334 350.479893 
L 827.535902 350.013849 
L 827.732044 349.798752 
L 827.928187 348.615716 
L 828.320471 348.436468 
L 828.712755 348.042123 
L 829.301182 347.217583 
L 829.497324 346.464743 
L 829.693466 346.428893 
L 830.281893 345.711902 
L 830.674177 345.640203 
L 830.870319 345.281707 
L 831.262604 345.03076 
L 831.458746 344.743964 
L 832.243315 341.911848 
L 832.439457 340.442017 
L 832.831741 339.689176 
L 833.027883 339.545778 
L 833.224026 339.223132 
L 833.812452 338.864636 
L 834.008594 338.50614 
L 834.400879 337.072158 
L 835.577732 336.426866 
L 835.970016 335.566476 
L 836.166158 335.423078 
L 837.146869 333.809848 
L 837.539154 333.594751 
L 838.323722 333.343804 
L 838.912149 332.196618 
L 839.696718 331.945671 
L 840.481287 331.013582 
L 840.873571 330.941883 
L 841.265855 330.511688 
L 841.854282 330.260742 
L 842.246566 330.189042 
L 842.442708 329.973945 
L 842.638851 329.292803 
L 843.423419 329.041856 
L 843.619561 328.683361 
L 843.815704 328.647511 
L 844.011846 327.96637 
L 844.600272 327.715423 
L 845.188699 327.572025 
L 845.580983 327.177679 
L 846.561694 326.675786 
L 846.953979 326.28144 
L 847.346263 326.030493 
L 847.738547 325.994644 
L 847.93469 325.026706 
L 848.326974 324.70406 
L 848.915401 324.417263 
L 849.503827 324.058768 
L 850.288396 323.915369 
L 850.484538 322.911582 
L 851.072965 322.553086 
L 851.269107 322.302139 
L 851.661391 322.26629 
L 852.249818 321.871945 
L 852.642102 321.800245 
L 852.838244 321.477599 
L 853.622813 321.154953 
L 853.818955 320.760608 
L 854.21124 320.724759 
L 854.603524 320.473812 
L 855.19195 320.151166 
L 855.388093 319.649272 
L 856.172661 319.254927 
L 856.368804 318.96813 
L 856.761088 318.860581 
L 856.95723 318.609635 
L 857.545657 318.286989 
L 857.741799 317.964342 
L 857.937941 317.892643 
L 858.330225 317.605847 
L 858.72251 317.426599 
L 858.918652 317.211502 
L 860.095505 316.817157 
L 860.291647 316.386962 
L 860.487789 316.279413 
L 861.4685 316.028466 
L 861.860785 315.70582 
L 862.253069 315.562422 
L 862.841496 315.383174 
L 863.037638 315.060528 
L 863.429922 314.988829 
L 863.626064 314.343537 
L 863.822207 314.200139 
L 864.214491 313.734094 
L 864.410633 312.658608 
L 864.802918 312.407661 
L 864.99906 312.264262 
L 865.195202 311.941616 
L 865.587486 311.69067 
L 866.372055 310.973678 
L 866.764339 310.794431 
L 866.960482 310.364236 
L 867.156624 310.292537 
L 867.548908 309.862342 
L 867.941192 309.611395 
L 868.529619 309.396298 
L 869.118046 308.715156 
L 869.51033 308.39251 
L 869.902614 307.962315 
L 871.079467 306.994377 
L 872.060178 306.74343 
L 872.648605 305.990589 
L 873.040889 305.560395 
L 873.629316 305.16605 
L 874.413885 304.807554 
L 874.610027 304.628306 
L 875.394596 304.30566 
L 875.78688 303.947165 
L 876.375306 303.732067 
L 876.963733 303.373572 
L 877.55216 303.122625 
L 877.748302 302.943377 
L 879.905866 302.047138 
L 880.102008 301.688642 
L 881.475003 301.115049 
L 882.06343 300.720704 
L 882.259572 300.684855 
L 882.847999 300.182961 
L 883.632567 299.967863 
L 883.82871 299.46597 
L 884.024852 297.852739 
L 884.417136 297.422545 
L 884.613278 297.386695 
L 885.005563 296.633854 
L 885.397847 296.096111 
L 885.790131 295.773465 
L 886.182416 294.662129 
L 886.5747 294.303633 
L 886.966984 294.052686 
L 887.359269 293.945137 
L 887.555411 293.658341 
L 887.947695 293.443244 
L 888.33998 293.084748 
L 888.732264 292.9055 
L 888.928406 292.797951 
L 889.124549 292.439456 
L 889.516833 292.296058 
L 889.712975 291.865863 
L 890.301402 291.650766 
L 890.693686 291.077173 
L 891.282113 290.611128 
L 891.674397 290.216783 
L 892.262823 290.109234 
L 892.458966 289.786588 
L 893.047392 289.571491 
L 893.439677 287.99411 
L 893.831961 287.635615 
L 895.008814 286.990323 
L 895.204956 286.41673 
L 895.597241 286.201632 
L 895.793383 285.699739 
L 895.989525 285.59219 
L 896.185667 285.269544 
L 897.166378 284.660101 
L 897.950947 284.050659 
L 898.147089 283.97896 
L 899.1278 282.975172 
L 899.323942 282.509128 
L 899.520084 282.401579 
L 899.912369 282.32988 
L 900.108511 281.935535 
L 900.500795 281.756287 
L 900.89308 281.54119 
L 901.089222 280.895898 
L 901.873791 280.429853 
L 902.069933 279.784561 
L 902.854502 279.10342 
L 903.050644 279.06757 
L 903.246786 278.673225 
L 904.031355 278.135481 
L 904.227497 277.776986 
L 904.619781 277.633588 
L 904.815923 276.952446 
L 905.208208 276.844897 
L 905.40435 276.522251 
L 905.600492 276.450552 
L 905.796634 275.697711 
L 906.188919 275.590163 
L 906.581203 275.267517 
L 906.973487 274.693924 
L 907.16963 274.550525 
L 907.954198 273.33164 
L 908.150341 273.259941 
L 908.542625 272.829747 
L 909.327194 272.256154 
L 909.91562 271.969357 
L 911.6809 270.10518 
L 912.073184 269.961782 
L 912.465469 269.531587 
L 912.857753 269.388189 
L 913.053895 268.527799 
L 913.642322 267.918357 
L 913.838464 267.201366 
L 914.230748 266.807021 
L 914.42689 266.412675 
L 914.623033 266.376826 
L 915.603744 265.408888 
L 916.19217 265.050392 
L 916.388312 264.727746 
L 917.565165 264.333401 
L 918.153592 263.58056 
L 918.545876 262.899419 
L 918.938161 262.75602 
L 919.134303 262.433374 
L 919.330445 262.325826 
L 919.526587 262.074879 
L 919.722729 262.039029 
L 919.918872 261.608834 
L 920.70344 261.071091 
L 921.488009 260.497498 
L 921.684151 260.461648 
L 922.861004 259.52956 
L 923.253289 259.350312 
L 923.449431 258.991816 
L 923.841715 258.920117 
L 924.430142 258.310675 
L 924.626284 257.988029 
L 925.214711 257.701232 
L 925.803137 257.306887 
L 926.195422 257.163489 
L 926.587706 256.733294 
L 927.568417 256.159701 
L 927.764559 255.908754 
L 928.549128 255.550259 
L 928.74527 253.901179 
L 929.725981 253.184188 
L 930.51055 251.750205 
L 930.706692 251.606807 
L 930.902834 251.140763 
L 931.295118 250.961515 
L 932.079687 249.70678 
L 932.471972 248.021851 
L 932.668114 247.448258 
L 933.060398 244.723692 
L 933.25654 243.648205 
L 934.237251 242.357621 
L 935.02182 239.13116 
L 935.217962 238.951913 
L 935.414104 238.450019 
L 935.610246 236.69339 
L 935.806389 236.048098 
L 936.002531 235.976399 
L 936.198673 235.187709 
L 936.7871 234.685815 
L 937.179384 233.323532 
L 938.160095 232.785788 
L 938.356237 232.427293 
L 939.336948 231.8537 
L 939.729232 231.423505 
L 939.925375 231.02916 
L 940.121517 230.025372 
L 940.317659 229.631027 
L 940.709943 229.487629 
L 941.102228 229.308381 
L 941.494512 229.021584 
L 941.886796 228.734788 
L 942.279081 228.663089 
L 942.671365 228.447991 
L 943.06365 228.197045 
L 943.259792 228.053646 
L 943.652076 228.017797 
L 946.986493 225.113982 
L 947.182635 225.006434 
L 947.378778 224.146044 
L 947.967204 223.536602 
L 948.359489 223.429053 
L 949.536342 222.389416 
L 949.928626 222.210168 
L 950.124768 222.138469 
L 950.32091 221.815823 
L 950.909337 221.600726 
L 951.105479 221.098832 
L 951.301621 220.919584 
L 951.497764 220.345991 
L 951.890048 220.095044 
L 952.478474 218.625212 
L 952.674617 217.908221 
L 953.263043 217.478026 
L 953.85147 216.653486 
L 954.243754 215.255353 
L 954.439896 214.825159 
L 954.636038 214.072318 
L 954.832181 214.000619 
L 955.028323 213.391176 
L 955.420607 213.140229 
L 956.59746 211.885495 
L 956.793603 211.383601 
L 957.185887 211.240203 
L 957.382029 211.025105 
L 957.578171 210.523212 
L 958.36274 210.200565 
L 958.558882 209.949619 
L 958.755024 209.913769 
L 958.951167 209.160928 
L 959.343451 208.909981 
L 959.539593 208.408087 
L 959.735735 208.264689 
L 960.12802 208.22884 
L 961.304873 207.296751 
L 961.893299 206.830707 
L 962.285584 206.364663 
L 962.677868 205.970317 
L 962.87401 205.575972 
L 963.070152 204.787282 
L 964.247006 204.10614 
L 964.63929 203.138202 
L 965.031574 202.958954 
L 965.227717 202.421211 
L 965.423859 202.313662 
L 966.208427 201.309875 
L 967.189138 200.664583 
L 968.365991 199.445698 
L 968.954418 198.621158 
L 969.935129 196.039989 
L 970.91584 190.734254 
L 971.111982 190.447458 
L 971.308124 189.909715 
L 971.504266 187.937989 
L 971.700409 184.137935 
L 971.896551 182.668103 
L 972.092693 180.302033 
L 972.288835 179.65674 
L 972.68112 176.932174 
L 973.073404 173.275519 
L 973.465688 168.29243 
L 973.857973 167.539589 
L 974.250257 161.086668 
L 974.446399 159.401739 
L 974.838684 152.088429 
L 975.230968 150.690296 
L 975.42711 147.033641 
L 975.623252 146.173252 
L 976.015537 142.122251 
L 976.407821 131.116436 
L 976.800105 129.431507 
L 976.996248 126.061648 
L 977.19239 125.703153 
L 977.584674 120.21817 
L 977.780816 120.110621 
L 977.976959 119.752126 
L 978.369243 118.461542 
L 978.565385 118.138896 
L 978.761527 117.529453 
L 978.957669 116.382267 
L 979.349954 116.16717 
L 979.546096 115.593577 
L 979.93838 113.765249 
L 980.330665 110.180293 
L 980.526807 109.391603 
L 980.722949 109.319904 
L 980.919091 108.997258 
L 981.899802 105.878346 
L 982.095944 105.734948 
L 982.292087 104.982107 
L 982.684371 104.623612 
L 982.880513 104.480213 
L 983.076655 103.94247 
L 983.272798 103.763222 
L 984.057366 102.544337 
L 984.645793 101.899045 
L 984.841935 101.827346 
L 985.822646 100.393364 
L 986.21493 100.214116 
L 986.803357 100.106567 
L 987.195641 99.532974 
L 987.587926 99.425425 
L 988.176352 98.672585 
L 988.960921 98.20654 
L 989.74549 97.202753 
L 989.941632 96.665009 
L 990.726201 96.414062 
L 991.118485 96.019717 
L 991.510769 95.302726 
L 991.903054 94.94423 
L 992.099196 94.693284 
L 992.295338 93.653646 
L 992.687622 92.972505 
L 993.276049 92.721558 
L 993.668333 92.398912 
L 994.060618 91.968717 
L 994.452902 91.610221 
L 995.041329 91.000779 
L 995.237471 90.821531 
L 995.433613 89.961142 
L 996.218182 89.28 
L 996.218182 89.28 
" clip-path="url(#pfe42c773cc)" style="fill: none; stroke: #1f77b4; stroke-width: 1.5; stroke-linecap: square"/>
   </g>
   <g id="patch_3">
    <path d="M 144 512.64 
L 144 69.12 
" style="fill: none; stroke: #000000; stroke-width: 0.8; stroke-linejoin: miter; stroke-linecap: square"/>
   </g>
   <g id="patch_4">
    <path d="M 1036.8 512.64 
L 1036.8 69.12 
" style="fill: none; stroke: #000000; stroke-width: 0.8; stroke-linejoin: miter; stroke-linecap: square"/>
   </g>
   <g id="patch_5">
    <path d="M 144 512.64 
L 1036.8 512.64 
" style="fill: none; stroke: #000000; stroke-width: 0.8; stroke-linejoin: miter; stroke-linecap: square"/>
   </g>
   <g id="patch_6">
    <path d="M 144 69.12 
L 1036.8 69.12 
" style="fill: none; stroke: #000000; stroke-width: 0.8; stroke-linejoin: miter; stroke-linecap: square"/>
   </g>
   <g id="text_14">
    <!-- Number of AEDs in the OpenStreetMap database in Poland from first edition, day by day. As at: 2025-06-10 -->
    <g transform="translate(144 63.12) scale(0.14 -0.14)">
     <defs>
      <path id="DejaVuSans-4e" d="M 628 4666 
L 1478 4666 
L 3547 763 
L 3547 4666 
L 4159 4666 
L 4159 0 
L 3309 0 
L 1241 3903 
L 1241 0 
L 628 0 
L 628 4666 
z
" transform="scale(0.015625)"/>
      <path id="DejaVuSans-75" d="M 544 1381 
L 544 3500 
L 1119 3500 
L 1119 1403 
Q 1119 906 1312 657 
Q 1506 409 1894 409 
Q 2359 409 2629 706 
Q 2900 1003 2900 1516 
L 2900 3500 
L 3475 3500 
L 3475 0 
L 2900 0 
L 2900 538 
Q 2691 219 2414 64 
Q 2138 -91 1772 -91 
Q 1169 -91 856 284 
Q 544 659 544 1381 
z
M 1991 3584 
L 1991 3584 
z
" transform="scale(0.015625)"/>
      <path id="DejaVuSans-6d" d="M 3328 2828 
Q 3544 3216 3844 3400 
Q 4144 3584 4550 3584 
Q 5097 3584 5394 3201 
Q 5691 2819 5691 2113 
L 5691 0 
L 5113 0 
L 5113 2094 
Q 5113 2597 4934 2840 
Q 4756 3084 4391 3084 
Q 3944 3084 3684 2787 
Q 3425 2491 3425 1978 
L 3425 0 
L 2847 0 
L 2847 2094 
Q 2847 2600 2669 2842 
Q 2491 3084 2119 3084 
Q 1678 3084 1418 2786 
Q 1159 2488 1159 1978 
L 1159 0 
L 581 0 
L 581 3500 
L 1159 3500 
L 1159 2956 
Q 1356 3278 1631 3431 
Q 1906 3584 2284 3584 
Q 2666 3584 2933 3390 
Q 3200 3197 3328 2828 
z
" transform="scale(0.015625)"/>
      <path id="DejaVuSans-62" d="M 3116 1747 
Q 3116 2381 2855 2742 
Q 2594 3103 2138 3103 
Q 1681 3103 1420 2742 
Q 1159 2381 1159 1747 
Q 1159 1113 1420 752 
Q 1681 391 2138 391 
Q 2594 391 2855 752 
Q 3116 1113 3116 1747 
z
M 1159 2969 
Q 1341 3281 1617 3432 
Q 1894 3584 2278 3584 
Q 2916 3584 3314 3078 
Q 3713 2572 3713 1747 
Q 3713 922 3314 415 
Q 2916 -91 2278 -91 
Q 1894 -91 1617 61 
Q 1341 213 1159 525 
L 1159 0 
L 581 0 
L 581 4863 
L 1159 4863 
L 1159 2969 
z
" transform="scale(0.015625)"/>
      <path id="DejaVuSans-65" d="M 3597 1894 
L 3597 1613 
L 953 1613 
Q 991 1019 1311 708 
Q 1631 397 2203 397 
Q 2534 397 2845 478 
Q 3156 559 3463 722 
L 3463 178 
Q 3153 47 2828 -22 
Q 2503 -91 2169 -91 
Q 1331 -91 842 396 
Q 353 884 353 1716 
Q 353 2575 817 3079 
Q 1281 3584 2069 3584 
Q 2775 3584 3186 3129 
Q 3597 2675 3597 1894 
z
M 3022 2063 
Q 3016 2534 2758 2815 
Q 2500 3097 2075 3097 
Q 1594 3097 1305 2825 
Q 1016 2553 972 2059 
L 3022 2063 
z
" transform="scale(0.015625)"/>
      <path id="DejaVuSans-72" d="M 2631 2963 
Q 2534 3019 2420 3045 
Q 2306 3072 2169 3072 
Q 1681 3072 1420 2755 
Q 1159 2438 1159 1844 
L 1159 0 
L 581 0 
L 581 3500 
L 1159 3500 
L 1159 2956 
Q 1341 3275 1631 3429 
Q 1922 3584 2338 3584 
Q 2397 3584 2469 3576 
Q 2541 3569 2628 3553 
L 2631 2963 
z
" transform="scale(0.015625)"/>
      <path id="DejaVuSans-20" transform="scale(0.015625)"/>
      <path id="DejaVuSans-6f" d="M 1959 3097 
Q 1497 3097 1228 2736 
Q 959 2375 959 1747 
Q 959 1119 1226 758 
Q 1494 397 1959 397 
Q 2419 397 2687 759 
Q 2956 1122 2956 1747 
Q 2956 2369 2687 2733 
Q 2419 3097 1959 3097 
z
M 1959 3584 
Q 2709 3584 3137 3096 
Q 3566 2609 3566 1747 
Q 3566 888 3137 398 
Q 2709 -91 1959 -91 
Q 1206 -91 779 398 
Q 353 888 353 1747 
Q 353 2609 779 3096 
Q 1206 3584 1959 3584 
z
" transform="scale(0.015625)"/>
      <path id="DejaVuSans-66" d="M 2375 4863 
L 2375 4384 
L 1825 4384 
Q 1516 4384 1395 4259 
Q 1275 4134 1275 3809 
L 1275 3500 
L 2222 3500 
L 2222 3053 
L 1275 3053 
L 1275 0 
L 697 0 
L 697 3053 
L 147 3053 
L 147 3500 
L 697 3500 
L 697 3744 
Q 697 4328 969 4595 
Q 1241 4863 1831 4863 
L 2375 4863 
z
" transform="scale(0.015625)"/>
      <path id="DejaVuSans-41" d="M 2188 4044 
L 1331 1722 
L 3047 1722 
L 2188 4044 
z
M 1831 4666 
L 2547 4666 
L 4325 0 
L 3669 0 
L 3244 1197 
L 1141 1197 
L 716 0 
L 50 0 
L 1831 4666 
z
" transform="scale(0.015625)"/>
      <path id="DejaVuSans-45" d="M 628 4666 
L 3578 4666 
L 3578 4134 
L 1259 4134 
L 1259 2753 
L 3481 2753 
L 3481 2222 
L 1259 2222 
L 1259 531 
L 3634 531 
L 3634 0 
L 628 0 
L 628 4666 
z
" transform="scale(0.015625)"/>
      <path id="DejaVuSans-44" d="M 1259 4147 
L 1259 519 
L 2022 519 
Q 2988 519 3436 956 
Q 3884 1394 3884 2338 
Q 3884 3275 3436 3711 
Q 2988 4147 2022 4147 
L 1259 4147 
z
M 628 4666 
L 1925 4666 
Q 3281 4666 3915 4102 
Q 4550 3538 4550 2338 
Q 4550 1131 3912 565 
Q 3275 0 1925 0 
L 628 0 
L 628 4666 
z
" transform="scale(0.015625)"/>
      <path id="DejaVuSans-73" d="M 2834 3397 
L 2834 2853 
Q 2591 2978 2328 3040 
Q 2066 3103 1784 3103 
Q 1356 3103 1142 2972 
Q 928 2841 928 2578 
Q 928 2378 1081 2264 
Q 1234 2150 1697 2047 
L 1894 2003 
Q 2506 1872 2764 1633 
Q 3022 1394 3022 966 
Q 3022 478 2636 193 
Q 2250 -91 1575 -91 
Q 1294 -91 989 -36 
Q 684 19 347 128 
L 347 722 
Q 666 556 975 473 
Q 1284 391 1588 391 
Q 1994 391 2212 530 
Q 2431 669 2431 922 
Q 2431 1156 2273 1281 
Q 2116 1406 1581 1522 
L 1381 1569 
Q 847 1681 609 1914 
Q 372 2147 372 2553 
Q 372 3047 722 3315 
Q 1072 3584 1716 3584 
Q 2034 3584 2315 3537 
Q 2597 3491 2834 3397 
z
" transform="scale(0.015625)"/>
      <path id="DejaVuSans-69" d="M 603 3500 
L 1178 3500 
L 1178 0 
L 603 0 
L 603 3500 
z
M 603 4863 
L 1178 4863 
L 1178 4134 
L 603 4134 
L 603 4863 
z
" transform="scale(0.015625)"/>
      <path id="DejaVuSans-6e" d="M 3513 2113 
L 3513 0 
L 2938 0 
L 2938 2094 
Q 2938 2591 2744 2837 
Q 2550 3084 2163 3084 
Q 1697 3084 1428 2787 
Q 1159 2491 1159 1978 
L 1159 0 
L 581 0 
L 581 3500 
L 1159 3500 
L 1159 2956 
Q 1366 3272 1645 3428 
Q 1925 3584 2291 3584 
Q 2894 3584 3203 3211 
Q 3513 2838 3513 2113 
z
" transform="scale(0.015625)"/>
      <path id="DejaVuSans-74" d="M 1172 4494 
L 1172 3500 
L 2356 3500 
L 2356 3053 
L 1172 3053 
L 1172 1153 
Q 1172 725 1289 603 
Q 1406 481 1766 481 
L 2356 481 
L 2356 0 
L 1766 0 
Q 1100 0 847 248 
Q 594 497 594 1153 
L 594 3053 
L 172 3053 
L 172 3500 
L 594 3500 
L 594 4494 
L 1172 4494 
z
" transform="scale(0.015625)"/>
      <path id="DejaVuSans-68" d="M 3513 2113 
L 3513 0 
L 2938 0 
L 2938 2094 
Q 2938 2591 2744 2837 
Q 2550 3084 2163 3084 
Q 1697 3084 1428 2787 
Q 1159 2491 1159 1978 
L 1159 0 
L 581 0 
L 581 4863 
L 1159 4863 
L 1159 2956 
Q 1366 3272 1645 3428 
Q 1925 3584 2291 3584 
Q 2894 3584 3203 3211 
Q 3513 2838 3513 2113 
z
" transform="scale(0.015625)"/>
      <path id="DejaVuSans-4f" d="M 2522 4238 
Q 1834 4238 1429 3725 
Q 1025 3213 1025 2328 
Q 1025 1447 1429 934 
Q 1834 422 2522 422 
Q 3209 422 3611 934 
Q 4013 1447 4013 2328 
Q 4013 3213 3611 3725 
Q 3209 4238 2522 4238 
z
M 2522 4750 
Q 3503 4750 4090 4092 
Q 4678 3434 4678 2328 
Q 4678 1225 4090 567 
Q 3503 -91 2522 -91 
Q 1538 -91 948 565 
Q 359 1222 359 2328 
Q 359 3434 948 4092 
Q 1538 4750 2522 4750 
z
" transform="scale(0.015625)"/>
      <path id="DejaVuSans-70" d="M 1159 525 
L 1159 -1331 
L 581 -1331 
L 581 3500 
L 1159 3500 
L 1159 2969 
Q 1341 3281 1617 3432 
Q 1894 3584 2278 3584 
Q 2916 3584 3314 3078 
Q 3713 2572 3713 1747 
Q 3713 922 3314 415 
Q 2916 -91 2278 -91 
Q 1894 -91 1617 61 
Q 1341 213 1159 525 
z
M 3116 1747 
Q 3116 2381 2855 2742 
Q 2594 3103 2138 3103 
Q 1681 3103 1420 2742 
Q 1159 2381 1159 1747 
Q 1159 1113 1420 752 
Q 1681 391 2138 391 
Q 2594 391 2855 752 
Q 3116 1113 3116 1747 
z
" transform="scale(0.015625)"/>
      <path id="DejaVuSans-53" d="M 3425 4513 
L 3425 3897 
Q 3066 4069 2747 4153 
Q 2428 4238 2131 4238 
Q 1616 4238 1336 4038 
Q 1056 3838 1056 3469 
Q 1056 3159 1242 3001 
Q 1428 2844 1947 2747 
L 2328 2669 
Q 3034 2534 3370 2195 
Q 3706 1856 3706 1288 
Q 3706 609 3251 259 
Q 2797 -91 1919 -91 
Q 1588 -91 1214 -16 
Q 841 59 441 206 
L 441 856 
Q 825 641 1194 531 
Q 1563 422 1919 422 
Q 2459 422 2753 634 
Q 3047 847 3047 1241 
Q 3047 1584 2836 1778 
Q 2625 1972 2144 2069 
L 1759 2144 
Q 1053 2284 737 2584 
Q 422 2884 422 3419 
Q 422 4038 858 4394 
Q 1294 4750 2059 4750 
Q 2388 4750 2728 4690 
Q 3069 4631 3425 4513 
z
" transform="scale(0.015625)"/>
      <path id="DejaVuSans-4d" d="M 628 4666 
L 1569 4666 
L 2759 1491 
L 3956 4666 
L 4897 4666 
L 4897 0 
L 4281 0 
L 4281 4097 
L 3078 897 
L 2444 897 
L 1241 4097 
L 1241 0 
L 628 0 
L 628 4666 
z
" transform="scale(0.015625)"/>
      <path id="DejaVuSans-61" d="M 2194 1759 
Q 1497 1759 1228 1600 
Q 959 1441 959 1056 
Q 959 750 1161 570 
Q 1363 391 1709 391 
Q 2188 391 2477 730 
Q 2766 1069 2766 1631 
L 2766 1759 
L 2194 1759 
z
M 3341 1997 
L 3341 0 
L 2766 0 
L 2766 531 
Q 2569 213 2275 61 
Q 1981 -91 1556 -91 
Q 1019 -91 701 211 
Q 384 513 384 1019 
Q 384 1609 779 1909 
Q 1175 2209 1959 2209 
L 2766 2209 
L 2766 2266 
Q 2766 2663 2505 2880 
Q 2244 3097 1772 3097 
Q 1472 3097 1187 3025 
Q 903 2953 641 2809 
L 641 3341 
Q 956 3463 1253 3523 
Q 1550 3584 1831 3584 
Q 2591 3584 2966 3190 
Q 3341 2797 3341 1997 
z
" transform="scale(0.015625)"/>
      <path id="DejaVuSans-64" d="M 2906 2969 
L 2906 4863 
L 3481 4863 
L 3481 0 
L 2906 0 
L 2906 525 
Q 2725 213 2448 61 
Q 2172 -91 1784 -91 
Q 1150 -91 751 415 
Q 353 922 353 1747 
Q 353 2572 751 3078 
Q 1150 3584 1784 3584 
Q 2172 3584 2448 3432 
Q 2725 3281 2906 2969 
z
M 947 1747 
Q 947 1113 1208 752 
Q 1469 391 1925 391 
Q 2381 391 2643 752 
Q 2906 1113 2906 1747 
Q 2906 2381 2643 2742 
Q 2381 3103 1925 3103 
Q 1469 3103 1208 2742 
Q 947 2381 947 1747 
z
" transform="scale(0.015625)"/>
      <path id="DejaVuSans-50" d="M 1259 4147 
L 1259 2394 
L 2053 2394 
Q 2494 2394 2734 2622 
Q 2975 2850 2975 3272 
Q 2975 3691 2734 3919 
Q 2494 4147 2053 4147 
L 1259 4147 
z
M 628 4666 
L 2053 4666 
Q 2838 4666 3239 4311 
Q 3641 3956 3641 3272 
Q 3641 2581 3239 2228 
Q 2838 1875 2053 1875 
L 1259 1875 
L 1259 0 
L 628 0 
L 628 4666 
z
" transform="scale(0.015625)"/>
      <path id="DejaVuSans-6c" d="M 603 4863 
L 1178 4863 
L 1178 0 
L 603 0 
L 603 4863 
z
" transform="scale(0.015625)"/>
      <path id="DejaVuSans-2c" d="M 750 794 
L 1409 794 
L 1409 256 
L 897 -744 
L 494 -744 
L 750 256 
L 750 794 
z
" transform="scale(0.015625)"/>
      <path id="DejaVuSans-79" d="M 2059 -325 
Q 1816 -950 1584 -1140 
Q 1353 -1331 966 -1331 
L 506 -1331 
L 506 -850 
L 844 -850 
Q 1081 -850 1212 -737 
Q 1344 -625 1503 -206 
L 1606 56 
L 191 3500 
L 800 3500 
L 1894 763 
L 2988 3500 
L 3597 3500 
L 2059 -325 
z
" transform="scale(0.015625)"/>
      <path id="DejaVuSans-2e" d="M 684 794 
L 1344 794 
L 1344 0 
L 684 0 
L 684 794 
z
" transform="scale(0.015625)"/>
      <path id="DejaVuSans-3a" d="M 750 794 
L 1409 794 
L 1409 0 
L 750 0 
L 750 794 
z
M 750 3309 
L 1409 3309 
L 1409 2516 
L 750 2516 
L 750 3309 
z
" transform="scale(0.015625)"/>
      <path id="DejaVuSans-35" d="M 691 4666 
L 3169 4666 
L 3169 4134 
L 1269 4134 
L 1269 2991 
Q 1406 3038 1543 3061 
Q 1681 3084 1819 3084 
Q 2600 3084 3056 2656 
Q 3513 2228 3513 1497 
Q 3513 744 3044 326 
Q 2575 -91 1722 -91 
Q 1428 -91 1123 -41 
Q 819 9 494 109 
L 494 744 
Q 775 591 1075 516 
Q 1375 441 1709 441 
Q 2250 441 2565 725 
Q 2881 1009 2881 1497 
Q 2881 1984 2565 2268 
Q 2250 2553 1709 2553 
Q 1456 2553 1204 2497 
Q 953 2441 691 2322 
L 691 4666 
z
" transform="scale(0.015625)"/>
      <path id="DejaVuSans-2d" d="M 313 2009 
L 1997 2009 
L 1997 1497 
L 313 1497 
L 313 2009 
z
" transform="scale(0.015625)"/>
     </defs>
     <use xlink:href="#DejaVuSans-4e"/>
     <use xlink:href="#DejaVuSans-75" x="74.804688"/>
     <use xlink:href="#DejaVuSans-6d" x="138.183594"/>
     <use xlink:href="#DejaVuSans-62" x="235.595703"/>
     <use xlink:href="#DejaVuSans-65" x="299.072266"/>
     <use xlink:href="#DejaVuSans-72" x="360.595703"/>
     <use xlink:href="#DejaVuSans-20" x="401.708984"/>
     <use xlink:href="#DejaVuSans-6f" x="433.496094"/>
     <use xlink:href="#DejaVuSans-66" x="494.677734"/>
     <use xlink:href="#DejaVuSans-20" x="529.882812"/>
     <use xlink:href="#DejaVuSans-41" x="561.669922"/>
     <use xlink:href="#DejaVuSans-45" x="630.078125"/>
     <use xlink:href="#DejaVuSans-44" x="693.261719"/>
     <use xlink:href="#DejaVuSans-73" x="770.263672"/>
     <use xlink:href="#DejaVuSans-20" x="822.363281"/>
     <use xlink:href="#DejaVuSans-69" x="854.150391"/>
     <use xlink:href="#DejaVuSans-6e" x="881.933594"/>
     <use xlink:href="#DejaVuSans-20" x="945.3125"/>
     <use xlink:href="#DejaVuSans-74" x="977.099609"/>
     <use xlink:href="#DejaVuSans-68" x="1016.308594"/>
     <use xlink:href="#DejaVuSans-65" x="1079.6875"/>
     <use xlink:href="#DejaVuSans-20" x="1141.210938"/>
     <use xlink:href="#DejaVuSans-4f" x="1172.998047"/>
     <use xlink:href="#DejaVuSans-70" x="1251.708984"/>
     <use xlink:href="#DejaVuSans-65" x="1315.185547"/>
     <use xlink:href="#DejaVuSans-6e" x="1376.708984"/>
     <use xlink:href="#DejaVuSans-53" x="1440.087891"/>
     <use xlink:href="#DejaVuSans-74" x="1503.564453"/>
     <use xlink:href="#DejaVuSans-72" x="1542.773438"/>
     <use xlink:href="#DejaVuSans-65" x="1581.636719"/>
     <use xlink:href="#DejaVuSans-65" x="1643.160156"/>
     <use xlink:href="#DejaVuSans-74" x="1704.683594"/>
     <use xlink:href="#DejaVuSans-4d" x="1743.892578"/>
     <use xlink:href="#DejaVuSans-61" x="1830.171875"/>
     <use xlink:href="#DejaVuSans-70" x="1891.451172"/>
     <use xlink:href="#DejaVuSans-20" x="1954.927734"/>
     <use xlink:href="#DejaVuSans-64" x="1986.714844"/>
     <use xlink:href="#DejaVuSans-61" x="2050.191406"/>
     <use xlink:href="#DejaVuSans-74" x="2111.470703"/>
     <use xlink:href="#DejaVuSans-61" x="2150.679688"/>
     <use xlink:href="#DejaVuSans-62" x="2211.958984"/>
     <use xlink:href="#DejaVuSans-61" x="2275.435547"/>
     <use xlink:href="#DejaVuSans-73" x="2336.714844"/>
     <use xlink:href="#DejaVuSans-65" x="2388.814453"/>
     <use xlink:href="#DejaVuSans-20" x="2450.337891"/>
     <use xlink:href="#DejaVuSans-69" x="2482.125"/>
     <use xlink:href="#DejaVuSans-6e" x="2509.908203"/>
     <use xlink:href="#DejaVuSans-20" x="2573.287109"/>
     <use xlink:href="#DejaVuSans-50" x="2605.074219"/>
     <use xlink:href="#DejaVuSans-6f" x="2661.751953"/>
     <use xlink:href="#DejaVuSans-6c" x="2722.933594"/>
     <use xlink:href="#DejaVuSans-61" x="2750.716797"/>
     <use xlink:href="#DejaVuSans-6e" x="2811.996094"/>
     <use xlink:href="#DejaVuSans-64" x="2875.375"/>
     <use xlink:href="#DejaVuSans-20" x="2938.851562"/>
     <use xlink:href="#DejaVuSans-66" x="2970.638672"/>
     <use xlink:href="#DejaVuSans-72" x="3005.84375"/>
     <use xlink:href="#DejaVuSans-6f" x="3044.707031"/>
     <use xlink:href="#DejaVuSans-6d" x="3105.888672"/>
     <use xlink:href="#DejaVuSans-20" x="3203.300781"/>
     <use xlink:href="#DejaVuSans-66" x="3235.087891"/>
     <use xlink:href="#DejaVuSans-69" x="3270.292969"/>
     <use xlink:href="#DejaVuSans-72" x="3298.076172"/>
     <use xlink:href="#DejaVuSans-73" x="3339.189453"/>
     <use xlink:href="#DejaVuSans-74" x="3391.289062"/>
     <use xlink:href="#DejaVuSans-20" x="3430.498047"/>
     <use xlink:href="#DejaVuSans-65" x="3462.285156"/>
     <use xlink:href="#DejaVuSans-64" x="3523.808594"/>
     <use xlink:href="#DejaVuSans-69" x="3587.285156"/>
     <use xlink:href="#DejaVuSans-74" x="3615.068359"/>
     <use xlink:href="#DejaVuSans-69" x="3654.277344"/>
     <use xlink:href="#DejaVuSans-6f" x="3682.060547"/>
     <use xlink:href="#DejaVuSans-6e" x="3743.242188"/>
     <use xlink:href="#DejaVuSans-2c" x="3806.621094"/>
     <use xlink:href="#DejaVuSans-20" x="3838.408203"/>
     <use xlink:href="#DejaVuSans-64" x="3870.195312"/>
     <use xlink:href="#DejaVuSans-61" x="3933.671875"/>
     <use xlink:href="#DejaVuSans-79" x="3994.951172"/>
     <use xlink:href="#DejaVuSans-20" x="4054.130859"/>
     <use xlink:href="#DejaVuSans-62" x="4085.917969"/>
     <use xlink:href="#DejaVuSans-79" x="4149.394531"/>
     <use xlink:href="#DejaVuSans-20" x="4208.574219"/>
     <use xlink:href="#DejaVuSans-64" x="4240.361328"/>
     <use xlink:href="#DejaVuSans-61" x="4303.837891"/>
     <use xlink:href="#DejaVuSans-79" x="4365.117188"/>
     <use xlink:href="#DejaVuSans-2e" x="4410.046875"/>
     <use xlink:href="#DejaVuSans-20" x="4441.833984"/>
     <use xlink:href="#DejaVuSans-41" x="4473.621094"/>
     <use xlink:href="#DejaVuSans-73" x="4542.029297"/>
     <use xlink:href="#DejaVuSans-20" x="4594.128906"/>
     <use xlink:href="#DejaVuSans-61" x="4625.916016"/>
     <use xlink:href="#DejaVuSans-74" x="4687.195312"/>
     <use xlink:href="#DejaVuSans-3a" x="4726.404297"/>
     <use xlink:href="#DejaVuSans-20" x="4760.095703"/>
     <use xlink:href="#DejaVuSans-32" x="4791.882812"/>
     <use xlink:href="#DejaVuSans-30" x="4855.505859"/>
     <use xlink:href="#DejaVuSans-32" x="4919.128906"/>
     <use xlink:href="#DejaVuSans-35" x="4982.751953"/>
     <use xlink:href="#DejaVuSans-2d" x="5046.375"/>
     <use xlink:href="#DejaVuSans-30" x="5082.458984"/>
     <use xlink:href="#DejaVuSans-36" x="5146.082031"/>
     <use xlink:href="#DejaVuSans-2d" x="5209.705078"/>
     <use xlink:href="#DejaVuSans-31" x="5245.789062"/>
     <use xlink:href="#DejaVuSans-30" x="5309.412109"/>
    </g>
   </g>
  </g>
 </g>
 <defs>
  <clipPath id="pfe42c773cc">
   <rect x="144" y="69.12" width="892.8" height="443.52"/>
  </clipPath>
 </defs>
</svg>
