<?xml version="1.0" encoding="utf-8" standalone="no"?>
<!DOCTYPE svg PUBLIC "-//W3C//DTD SVG 1.1//EN"
  "http://www.w3.org/Graphics/SVG/1.1/DTD/svg11.dtd">
<svg xmlns:xlink="http://www.w3.org/1999/xlink" width="1152pt" height="576pt" viewBox="0 0 1152 576" xmlns="http://www.w3.org/2000/svg" version="1.1">
 <metadata>
  <rdf:RDF xmlns:dc="http://purl.org/dc/elements/1.1/" xmlns:cc="http://creativecommons.org/ns#" xmlns:rdf="http://www.w3.org/1999/02/22-rdf-syntax-ns#">
   <cc:Work>
    <dc:type rdf:resource="http://purl.org/dc/dcmitype/StillImage"/>
    <dc:date>1980-01-01T00:00:00+00:00</dc:date>
    <dc:format>image/svg+xml</dc:format>
    <dc:creator>
     <cc:Agent>
      <dc:title>Matplotlib v3.9.1, https://matplotlib.org/</dc:title>
     </cc:Agent>
    </dc:creator>
   </cc:Work>
  </rdf:RDF>
 </metadata>
 <defs>
  <style type="text/css">*{stroke-linejoin: round; stroke-linecap: butt}</style>
 </defs>
 <g id="figure_1">
  <g id="patch_1">
   <path d="M 0 576 
L 1152 576 
L 1152 0 
L 0 0 
z
" style="fill: #ffffff"/>
  </g>
  <g id="axes_1">
   <g id="patch_2">
    <path d="M 144 512.64 
L 1036.8 512.64 
L 1036.8 69.12 
L 144 69.12 
z
" style="fill: #ffffff"/>
   </g>
   <g id="matplotlib.axis_1">
    <g id="xtick_1">
     <g id="line2d_1">
      <defs>
       <path id="maab1b588d7" d="M 0 0 
L 0 3.5 
" style="stroke: #000000; stroke-width: 0.8"/>
      </defs>
      <g>
       <use xlink:href="#maab1b588d7" x="177.021163" y="512.64" style="stroke: #000000; stroke-width: 0.8"/>
      </g>
     </g>
     <g id="text_1">
      <!-- 2014 -->
      <g transform="translate(164.296163 527.238438) scale(0.1 -0.1)">
       <defs>
        <path id="DejaVuSans-32" d="M 1228 531 
L 3431 531 
L 3431 0 
L 469 0 
L 469 531 
Q 828 903 1448 1529 
Q 2069 2156 2228 2338 
Q 2531 2678 2651 2914 
Q 2772 3150 2772 3378 
Q 2772 3750 2511 3984 
Q 2250 4219 1831 4219 
Q 1534 4219 1204 4116 
Q 875 4013 500 3803 
L 500 4441 
Q 881 4594 1212 4672 
Q 1544 4750 1819 4750 
Q 2544 4750 2975 4387 
Q 3406 4025 3406 3419 
Q 3406 3131 3298 2873 
Q 3191 2616 2906 2266 
Q 2828 2175 2409 1742 
Q 1991 1309 1228 531 
z
" transform="scale(0.015625)"/>
        <path id="DejaVuSans-30" d="M 2034 4250 
Q 1547 4250 1301 3770 
Q 1056 3291 1056 2328 
Q 1056 1369 1301 889 
Q 1547 409 2034 409 
Q 2525 409 2770 889 
Q 3016 1369 3016 2328 
Q 3016 3291 2770 3770 
Q 2525 4250 2034 4250 
z
M 2034 4750 
Q 2819 4750 3233 4129 
Q 3647 3509 3647 2328 
Q 3647 1150 3233 529 
Q 2819 -91 2034 -91 
Q 1250 -91 836 529 
Q 422 1150 422 2328 
Q 422 3509 836 4129 
Q 1250 4750 2034 4750 
z
" transform="scale(0.015625)"/>
        <path id="DejaVuSans-31" d="M 794 531 
L 1825 531 
L 1825 4091 
L 703 3866 
L 703 4441 
L 1819 4666 
L 2450 4666 
L 2450 531 
L 3481 531 
L 3481 0 
L 794 0 
L 794 531 
z
" transform="scale(0.015625)"/>
        <path id="DejaVuSans-34" d="M 2419 4116 
L 825 1625 
L 2419 1625 
L 2419 4116 
z
M 2253 4666 
L 3047 4666 
L 3047 1625 
L 3713 1625 
L 3713 1100 
L 3047 1100 
L 3047 0 
L 2419 0 
L 2419 1100 
L 313 1100 
L 313 1709 
L 2253 4666 
z
" transform="scale(0.015625)"/>
       </defs>
       <use xlink:href="#DejaVuSans-32"/>
       <use xlink:href="#DejaVuSans-30" x="63.623047"/>
       <use xlink:href="#DejaVuSans-31" x="127.246094"/>
       <use xlink:href="#DejaVuSans-34" x="190.869141"/>
      </g>
     </g>
    </g>
    <g id="xtick_2">
     <g id="line2d_2">
      <g>
       <use xlink:href="#maab1b588d7" x="315.003125" y="512.64" style="stroke: #000000; stroke-width: 0.8"/>
      </g>
     </g>
     <g id="text_2">
      <!-- 2016 -->
      <g transform="translate(302.278125 527.238438) scale(0.1 -0.1)">
       <defs>
        <path id="DejaVuSans-36" d="M 2113 2584 
Q 1688 2584 1439 2293 
Q 1191 2003 1191 1497 
Q 1191 994 1439 701 
Q 1688 409 2113 409 
Q 2538 409 2786 701 
Q 3034 994 3034 1497 
Q 3034 2003 2786 2293 
Q 2538 2584 2113 2584 
z
M 3366 4563 
L 3366 3988 
Q 3128 4100 2886 4159 
Q 2644 4219 2406 4219 
Q 1781 4219 1451 3797 
Q 1122 3375 1075 2522 
Q 1259 2794 1537 2939 
Q 1816 3084 2150 3084 
Q 2853 3084 3261 2657 
Q 3669 2231 3669 1497 
Q 3669 778 3244 343 
Q 2819 -91 2113 -91 
Q 1303 -91 875 529 
Q 447 1150 447 2328 
Q 447 3434 972 4092 
Q 1497 4750 2381 4750 
Q 2619 4750 2861 4703 
Q 3103 4656 3366 4563 
z
" transform="scale(0.015625)"/>
       </defs>
       <use xlink:href="#DejaVuSans-32"/>
       <use xlink:href="#DejaVuSans-30" x="63.623047"/>
       <use xlink:href="#DejaVuSans-31" x="127.246094"/>
       <use xlink:href="#DejaVuSans-36" x="190.869141"/>
      </g>
     </g>
    </g>
    <g id="xtick_3">
     <g id="line2d_3">
      <g>
       <use xlink:href="#maab1b588d7" x="453.174103" y="512.64" style="stroke: #000000; stroke-width: 0.8"/>
      </g>
     </g>
     <g id="text_3">
      <!-- 2018 -->
      <g transform="translate(440.449103 527.238438) scale(0.1 -0.1)">
       <defs>
        <path id="DejaVuSans-38" d="M 2034 2216 
Q 1584 2216 1326 1975 
Q 1069 1734 1069 1313 
Q 1069 891 1326 650 
Q 1584 409 2034 409 
Q 2484 409 2743 651 
Q 3003 894 3003 1313 
Q 3003 1734 2745 1975 
Q 2488 2216 2034 2216 
z
M 1403 2484 
Q 997 2584 770 2862 
Q 544 3141 544 3541 
Q 544 4100 942 4425 
Q 1341 4750 2034 4750 
Q 2731 4750 3128 4425 
Q 3525 4100 3525 3541 
Q 3525 3141 3298 2862 
Q 3072 2584 2669 2484 
Q 3125 2378 3379 2068 
Q 3634 1759 3634 1313 
Q 3634 634 3220 271 
Q 2806 -91 2034 -91 
Q 1263 -91 848 271 
Q 434 634 434 1313 
Q 434 1759 690 2068 
Q 947 2378 1403 2484 
z
M 1172 3481 
Q 1172 3119 1398 2916 
Q 1625 2713 2034 2713 
Q 2441 2713 2670 2916 
Q 2900 3119 2900 3481 
Q 2900 3844 2670 4047 
Q 2441 4250 2034 4250 
Q 1625 4250 1398 4047 
Q 1172 3844 1172 3481 
z
" transform="scale(0.015625)"/>
       </defs>
       <use xlink:href="#DejaVuSans-32"/>
       <use xlink:href="#DejaVuSans-30" x="63.623047"/>
       <use xlink:href="#DejaVuSans-31" x="127.246094"/>
       <use xlink:href="#DejaVuSans-38" x="190.869141"/>
      </g>
     </g>
    </g>
    <g id="xtick_4">
     <g id="line2d_4">
      <g>
       <use xlink:href="#maab1b588d7" x="591.156066" y="512.64" style="stroke: #000000; stroke-width: 0.8"/>
      </g>
     </g>
     <g id="text_4">
      <!-- 2020 -->
      <g transform="translate(578.431066 527.238438) scale(0.1 -0.1)">
       <use xlink:href="#DejaVuSans-32"/>
       <use xlink:href="#DejaVuSans-30" x="63.623047"/>
       <use xlink:href="#DejaVuSans-32" x="127.246094"/>
       <use xlink:href="#DejaVuSans-30" x="190.869141"/>
      </g>
     </g>
    </g>
    <g id="xtick_5">
     <g id="line2d_5">
      <g>
       <use xlink:href="#maab1b588d7" x="729.327044" y="512.64" style="stroke: #000000; stroke-width: 0.8"/>
      </g>
     </g>
     <g id="text_5">
      <!-- 2022 -->
      <g transform="translate(716.602044 527.238438) scale(0.1 -0.1)">
       <use xlink:href="#DejaVuSans-32"/>
       <use xlink:href="#DejaVuSans-30" x="63.623047"/>
       <use xlink:href="#DejaVuSans-32" x="127.246094"/>
       <use xlink:href="#DejaVuSans-32" x="190.869141"/>
      </g>
     </g>
    </g>
    <g id="xtick_6">
     <g id="line2d_6">
      <g>
       <use xlink:href="#maab1b588d7" x="867.309006" y="512.64" style="stroke: #000000; stroke-width: 0.8"/>
      </g>
     </g>
     <g id="text_6">
      <!-- 2024 -->
      <g transform="translate(854.584006 527.238438) scale(0.1 -0.1)">
       <use xlink:href="#DejaVuSans-32"/>
       <use xlink:href="#DejaVuSans-30" x="63.623047"/>
       <use xlink:href="#DejaVuSans-32" x="127.246094"/>
       <use xlink:href="#DejaVuSans-34" x="190.869141"/>
      </g>
     </g>
    </g>
    <g id="xtick_7">
     <g id="line2d_7">
      <g>
       <use xlink:href="#maab1b588d7" x="1005.479985" y="512.64" style="stroke: #000000; stroke-width: 0.8"/>
      </g>
     </g>
     <g id="text_7">
      <!-- 2026 -->
      <g transform="translate(992.754985 527.238438) scale(0.1 -0.1)">
       <use xlink:href="#DejaVuSans-32"/>
       <use xlink:href="#DejaVuSans-30" x="63.623047"/>
       <use xlink:href="#DejaVuSans-32" x="127.246094"/>
       <use xlink:href="#DejaVuSans-36" x="190.869141"/>
      </g>
     </g>
    </g>
   </g>
   <g id="matplotlib.axis_2">
    <g id="ytick_1">
     <g id="line2d_8">
      <defs>
       <path id="m5537de3527" d="M 0 0 
L -3.5 0 
" style="stroke: #000000; stroke-width: 0.8"/>
      </defs>
      <g>
       <use xlink:href="#m5537de3527" x="144" y="492.512064" style="stroke: #000000; stroke-width: 0.8"/>
      </g>
     </g>
     <g id="text_8">
      <!-- 0 -->
      <g transform="translate(130.6375 496.311282) scale(0.1 -0.1)">
       <use xlink:href="#DejaVuSans-30"/>
      </g>
     </g>
    </g>
    <g id="ytick_2">
     <g id="line2d_9">
      <g>
       <use xlink:href="#m5537de3527" x="144" y="428.384827" style="stroke: #000000; stroke-width: 0.8"/>
      </g>
     </g>
     <g id="text_9">
      <!-- 2000 -->
      <g transform="translate(111.55 432.184046) scale(0.1 -0.1)">
       <use xlink:href="#DejaVuSans-32"/>
       <use xlink:href="#DejaVuSans-30" x="63.623047"/>
       <use xlink:href="#DejaVuSans-30" x="127.246094"/>
       <use xlink:href="#DejaVuSans-30" x="190.869141"/>
      </g>
     </g>
    </g>
    <g id="ytick_3">
     <g id="line2d_10">
      <g>
       <use xlink:href="#m5537de3527" x="144" y="364.25759" style="stroke: #000000; stroke-width: 0.8"/>
      </g>
     </g>
     <g id="text_10">
      <!-- 4000 -->
      <g transform="translate(111.55 368.056809) scale(0.1 -0.1)">
       <use xlink:href="#DejaVuSans-34"/>
       <use xlink:href="#DejaVuSans-30" x="63.623047"/>
       <use xlink:href="#DejaVuSans-30" x="127.246094"/>
       <use xlink:href="#DejaVuSans-30" x="190.869141"/>
      </g>
     </g>
    </g>
    <g id="ytick_4">
     <g id="line2d_11">
      <g>
       <use xlink:href="#m5537de3527" x="144" y="300.130354" style="stroke: #000000; stroke-width: 0.8"/>
      </g>
     </g>
     <g id="text_11">
      <!-- 6000 -->
      <g transform="translate(111.55 303.929573) scale(0.1 -0.1)">
       <use xlink:href="#DejaVuSans-36"/>
       <use xlink:href="#DejaVuSans-30" x="63.623047"/>
       <use xlink:href="#DejaVuSans-30" x="127.246094"/>
       <use xlink:href="#DejaVuSans-30" x="190.869141"/>
      </g>
     </g>
    </g>
    <g id="ytick_5">
     <g id="line2d_12">
      <g>
       <use xlink:href="#m5537de3527" x="144" y="236.003117" style="stroke: #000000; stroke-width: 0.8"/>
      </g>
     </g>
     <g id="text_12">
      <!-- 8000 -->
      <g transform="translate(111.55 239.802336) scale(0.1 -0.1)">
       <use xlink:href="#DejaVuSans-38"/>
       <use xlink:href="#DejaVuSans-30" x="63.623047"/>
       <use xlink:href="#DejaVuSans-30" x="127.246094"/>
       <use xlink:href="#DejaVuSans-30" x="190.869141"/>
      </g>
     </g>
    </g>
    <g id="ytick_6">
     <g id="line2d_13">
      <g>
       <use xlink:href="#m5537de3527" x="144" y="171.875881" style="stroke: #000000; stroke-width: 0.8"/>
      </g>
     </g>
     <g id="text_13">
      <!-- 10000 -->
      <g transform="translate(105.1875 175.675099) scale(0.1 -0.1)">
       <use xlink:href="#DejaVuSans-31"/>
       <use xlink:href="#DejaVuSans-30" x="63.623047"/>
       <use xlink:href="#DejaVuSans-30" x="127.246094"/>
       <use xlink:href="#DejaVuSans-30" x="190.869141"/>
       <use xlink:href="#DejaVuSans-30" x="254.492188"/>
      </g>
     </g>
    </g>
    <g id="ytick_7">
     <g id="line2d_14">
      <g>
       <use xlink:href="#m5537de3527" x="144" y="107.748644" style="stroke: #000000; stroke-width: 0.8"/>
      </g>
     </g>
     <g id="text_14">
      <!-- 12000 -->
      <g transform="translate(105.1875 111.547863) scale(0.1 -0.1)">
       <use xlink:href="#DejaVuSans-31"/>
       <use xlink:href="#DejaVuSans-32" x="63.623047"/>
       <use xlink:href="#DejaVuSans-30" x="127.246094"/>
       <use xlink:href="#DejaVuSans-30" x="190.869141"/>
       <use xlink:href="#DejaVuSans-30" x="254.492188"/>
      </g>
     </g>
    </g>
   </g>
   <g id="line2d_15">
    <path d="M 184.581818 492.48 
L 186.282966 492.415873 
L 288.162798 492.255555 
L 442.778202 492.095237 
L 494.190659 491.902855 
L 507.610823 491.806664 
L 540.310658 491.614282 
L 543.523936 491.550155 
L 567.150984 491.421901 
L 597.393606 491.229519 
L 597.771639 490.97301 
L 601.740983 490.812692 
L 635.007867 490.684437 
L 638.788195 490.588247 
L 661.848194 490.427928 
L 675.835407 490.203483 
L 678.859669 490.107292 
L 689.633603 489.882847 
L 696.249176 489.530147 
L 705.132947 489.273638 
L 711.370487 488.856811 
L 721.199339 488.632366 
L 726.491798 487.157439 
L 727.625897 487.093312 
L 728.381962 486.644421 
L 728.570979 485.874895 
L 728.949011 485.682513 
L 729.138028 485.650449 
L 729.327044 484.624414 
L 730.461142 484.175523 
L 730.839175 483.630441 
L 731.217208 483.470123 
L 731.406224 483.08536 
L 731.595241 482.219642 
L 731.973273 481.450115 
L 732.16229 480.52027 
L 732.351306 478.724708 
L 732.918355 477.378036 
L 733.107372 473.209765 
L 733.296388 471.510394 
L 733.485405 470.869121 
L 733.863437 466.764978 
L 734.052454 466.155769 
L 734.24147 464.552588 
L 734.430487 464.456398 
L 734.997536 462.372262 
L 735.186552 457.819229 
L 735.375568 457.402402 
L 735.753601 456.087793 
L 735.942618 455.991602 
L 736.131634 455.254139 
L 736.32065 452.015714 
L 736.509667 451.246187 
L 736.698683 451.18206 
L 736.8877 448.809352 
L 737.076716 448.360461 
L 737.454749 448.200143 
L 738.210814 445.763308 
L 738.588847 445.122036 
L 738.96688 443.29441 
L 739.155896 442.58901 
L 739.533929 437.555022 
L 740.100978 435.118187 
L 740.479011 435.05406 
L 740.857044 434.829614 
L 741.613109 433.54707 
L 741.991142 433.482942 
L 742.369175 430.725471 
L 742.558191 430.693408 
L 742.936224 430.244517 
L 743.12524 429.026099 
L 743.314257 428.6734 
L 743.692289 428.384827 
L 743.881306 427.839746 
L 744.448355 427.647364 
L 744.826388 427.16641 
L 745.204421 425.915928 
L 745.393437 425.787674 
L 745.77147 425.274656 
L 746.527535 424.921956 
L 746.716552 423.735602 
L 746.905568 423.671475 
L 747.094584 423.479093 
L 747.283601 421.010195 
L 747.661634 420.946068 
L 748.039666 420.272732 
L 748.228683 419.631459 
L 748.795732 419.503205 
L 749.362781 418.509233 
L 749.551797 418.477169 
L 749.92983 417.964151 
L 750.307863 417.835897 
L 750.496879 415.944143 
L 751.630978 415.687634 
L 752.00901 415.431125 
L 752.765076 415.334934 
L 752.954092 415.174616 
L 755.411305 414.437153 
L 755.978355 414.05239 
L 756.923437 413.924135 
L 757.679502 413.539372 
L 759.569666 413.090481 
L 760.325731 410.557455 
L 761.270813 410.429201 
L 761.45983 410.365074 
L 762.971961 410.204755 
L 763.53901 410.012374 
L 763.728026 409.499356 
L 764.862125 409.339038 
L 766.563272 408.665702 
L 766.941305 408.505384 
L 767.130321 408.441256 
L 767.319338 408.216811 
L 768.075403 407.960302 
L 769.020485 407.896175 
L 769.209502 407.67173 
L 769.587534 407.639666 
L 769.776551 407.126648 
L 769.965567 407.062521 
L 770.154584 406.357121 
L 772.42278 405.876167 
L 772.989829 405.747913 
L 773.178846 405.363149 
L 774.50196 405.042513 
L 775.06901 404.850131 
L 775.825075 404.689813 
L 776.581141 404.497431 
L 777.526223 404.30505 
L 778.660321 403.824095 
L 779.416387 403.439332 
L 779.605403 402.79806 
L 780.550485 402.060596 
L 780.739501 401.772024 
L 781.684583 401.002497 
L 782.062616 400.329161 
L 782.251632 400.297097 
L 782.629665 399.495507 
L 783.385731 398.661853 
L 783.95278 398.565662 
L 784.141796 398.277089 
L 784.519829 398.116771 
L 784.708845 397.796135 
L 785.653927 397.57169 
L 785.842944 397.283117 
L 787.733108 396.86629 
L 787.922124 396.705972 
L 788.867206 396.577718 
L 790.190321 396.000573 
L 790.75737 395.904382 
L 791.135402 395.198982 
L 791.513435 394.974537 
L 792.458517 394.269137 
L 792.647534 393.531674 
L 793.403599 393.307229 
L 794.537697 392.954529 
L 794.91573 392.473575 
L 795.860812 391.99262 
L 796.049829 391.671984 
L 796.616878 391.479602 
L 796.99491 391.223093 
L 797.56196 390.998648 
L 797.939992 387.599905 
L 798.129009 386.445614 
L 798.318025 384.489734 
L 798.507042 384.265288 
L 799.263107 381.79639 
L 799.64114 381.155117 
L 799.830156 381.09099 
L 800.208189 380.706227 
L 800.397205 379.263364 
L 800.586222 378.910664 
L 800.964255 378.78241 
L 802.287369 376.602083 
L 802.476386 375.736366 
L 803.421468 374.165249 
L 804.177533 373.844612 
L 804.36655 373.684294 
L 804.555566 372.690322 
L 804.933599 372.530004 
L 805.311631 372.177304 
L 805.878681 371.439841 
L 806.067697 370.798569 
L 806.256713 370.766505 
L 806.823763 370.157296 
L 807.201795 370.125233 
L 807.390812 369.804596 
L 807.768844 369.612215 
L 808.52491 368.842688 
L 808.713926 368.746497 
L 808.902943 368.201416 
L 810.226058 367.207443 
L 810.415074 367.079189 
L 810.793107 365.828708 
L 811.360156 365.604262 
L 811.927205 365.347753 
L 812.305238 364.706481 
L 812.683271 364.321718 
L 813.25032 363.359809 
L 814.573434 362.975046 
L 815.140484 362.013137 
L 815.896549 361.820755 
L 816.841631 360.987101 
L 817.030647 360.955038 
L 817.40868 360.570274 
L 817.975729 360.345829 
L 818.353762 360.313765 
L 818.542779 360.121384 
L 818.731795 359.544239 
L 819.48786 359.319793 
L 819.676877 358.999157 
L 819.865893 358.967093 
L 820.05491 358.389948 
L 820.621959 358.165503 
L 821.189008 358.037249 
L 821.567041 357.716612 
L 822.890155 357.043276 
L 823.268188 356.818831 
L 823.646221 356.786767 
L 823.835237 355.92105 
L 824.21327 355.632477 
L 824.780319 355.440095 
L 825.347368 355.119459 
L 826.103434 354.991205 
L 826.29245 354.093423 
L 827.615565 353.484215 
L 827.804581 353.452151 
L 827.993598 353.291833 
L 828.371631 353.227706 
L 828.560647 352.939133 
L 829.316713 352.650561 
L 829.505729 352.297861 
L 829.883762 352.265797 
L 830.261794 352.041352 
L 830.828844 351.752779 
L 831.01786 351.368016 
L 831.773926 351.143571 
L 831.962942 350.951189 
L 832.340975 350.887062 
L 832.529991 350.69468 
L 833.09704 350.438171 
L 833.286057 350.149598 
L 833.475073 350.117535 
L 833.853106 349.861026 
L 834.231139 349.700708 
L 834.420155 349.54039 
L 835.554253 349.219753 
L 835.74327 348.867054 
L 835.932286 348.770863 
L 836.877368 348.610545 
L 837.255401 348.321972 
L 837.633434 348.193718 
L 838.200483 348.0334 
L 838.389499 347.776891 
L 838.767532 347.712763 
L 838.956548 347.167682 
L 839.145565 347.071491 
L 839.523597 346.654664 
L 839.712614 345.981328 
L 840.090647 345.756883 
L 840.279663 345.660692 
L 840.468679 345.404183 
L 840.846712 345.179738 
L 841.602778 344.570529 
L 841.98081 344.442274 
L 842.169827 344.089575 
L 842.358843 344.025447 
L 842.736876 343.640684 
L 843.114909 343.416239 
L 843.681958 343.25592 
L 844.059991 342.839093 
L 845.761138 341.396231 
L 846.328187 341.203849 
L 846.895236 341.075594 
L 847.084253 341.011467 
L 848.218351 339.889241 
L 848.596384 339.728922 
L 850.108515 339.151777 
L 850.864581 338.702887 
L 851.620646 338.38225 
L 852.187695 338.125742 
L 854.266876 337.324151 
L 854.644908 337.195897 
L 854.833925 336.87526 
L 856.346056 336.266052 
L 857.102121 335.881288 
L 858.23622 335.400334 
L 858.425236 334.983507 
L 858.614252 333.572708 
L 858.992285 333.252072 
L 859.181302 333.220008 
L 859.370318 333.05969 
L 859.748351 332.450481 
L 860.3154 331.969527 
L 860.693433 331.071746 
L 861.260482 330.622855 
L 861.827531 330.462537 
L 862.016547 330.206028 
L 862.39458 330.013646 
L 862.772613 329.757137 
L 863.339662 329.564755 
L 863.717695 329.179992 
L 864.284744 328.731101 
L 864.662777 328.602847 
L 864.851793 328.250147 
L 865.418842 327.897447 
L 866.174908 327.352366 
L 866.552941 327.320302 
L 866.741957 327.03173 
L 867.309006 326.903475 
L 867.687039 325.62093 
L 868.065072 325.300294 
L 868.821137 325.075849 
L 869.19917 324.81934 
L 869.388186 324.370449 
L 869.766219 324.242195 
L 869.955236 323.793304 
L 870.144252 323.697113 
L 870.522285 323.31235 
L 870.711301 323.119968 
L 871.27835 322.991714 
L 871.656383 322.767268 
L 871.8454 322.735205 
L 872.034416 322.542823 
L 872.223432 322.510759 
L 872.979498 322.061869 
L 873.357531 321.260278 
L 873.546547 321.164087 
L 873.92458 321.09996 
L 874.113596 320.74726 
L 874.491629 320.586942 
L 874.869662 320.394561 
L 875.058678 319.817416 
L 875.625727 319.560907 
L 876.192776 318.855507 
L 876.381793 318.759316 
L 876.570809 318.502807 
L 876.948842 318.406616 
L 877.326875 317.925662 
L 877.704907 317.669153 
L 878.460973 317.348517 
L 878.649989 316.995817 
L 879.028022 316.899626 
L 879.406055 316.611054 
L 879.595071 315.969781 
L 880.162121 315.7774 
L 880.351137 315.681209 
L 880.72917 315.200254 
L 880.918186 315.072 
L 881.485235 314.3666 
L 883.375399 313.21231 
L 883.564415 313.148183 
L 885.265563 311.545002 
L 885.643596 311.416748 
L 886.021628 311.031984 
L 886.399661 310.967857 
L 886.588678 310.262457 
L 887.155727 309.813567 
L 887.344743 309.204358 
L 887.722776 308.883722 
L 887.911792 308.595149 
L 888.100809 308.563085 
L 888.856874 307.825622 
L 889.61294 307.504986 
L 889.990973 307.216414 
L 891.125071 306.703396 
L 891.881136 305.67736 
L 892.637202 305.228469 
L 892.826218 305.004024 
L 893.015235 304.97196 
L 893.204251 304.61926 
L 894.149333 304.074179 
L 894.527366 303.81767 
L 895.283431 303.46497 
L 896.228513 302.919889 
L 896.984579 302.631316 
L 898.118677 301.765598 
L 899.252776 301.220517 
L 899.630808 300.835753 
L 900.008841 300.707499 
L 900.57589 300.45099 
L 900.764907 300.226545 
L 901.520972 299.970036 
L 901.709989 298.623364 
L 902.655071 298.014155 
L 903.411136 296.763674 
L 903.600152 296.667483 
L 903.789169 296.28272 
L 904.167202 296.154465 
L 904.923267 295.096366 
L 905.3013 293.621439 
L 905.490316 293.172549 
L 905.868349 290.863968 
L 906.057365 289.90206 
L 907.002447 288.779833 
L 907.758513 285.926171 
L 907.947529 285.765853 
L 908.136546 285.349026 
L 908.325562 283.809972 
L 908.514578 283.264891 
L 908.703595 283.232827 
L 908.892611 282.527427 
L 909.45966 282.1106 
L 909.837693 281.084565 
L 910.782775 280.635674 
L 910.971792 280.347101 
L 911.916873 279.962338 
L 912.294906 279.609638 
L 912.483923 279.256938 
L 912.672939 278.423284 
L 912.861955 278.166775 
L 913.239988 278.038521 
L 914.374086 277.397249 
L 915.130152 277.172803 
L 916.26425 276.755976 
L 918.154414 275.28105 
L 918.343431 275.152795 
L 918.532447 274.864223 
L 919.099496 274.607714 
L 919.477529 274.447396 
L 919.666545 273.709932 
L 920.233594 273.261042 
L 920.611627 273.196915 
L 921.367693 272.651833 
L 922.312775 272.26707 
L 922.690807 271.882306 
L 923.06884 271.818179 
L 923.257857 271.369288 
L 923.446873 271.20897 
L 923.635889 270.695952 
L 924.013922 270.503571 
L 924.580971 269.381344 
L 924.769988 268.740072 
L 924.959004 268.675944 
L 925.904086 267.714036 
L 926.282119 266.463555 
L 926.471135 266.142918 
L 926.660152 265.469583 
L 926.849168 265.405455 
L 927.038184 264.860374 
L 927.416217 264.635928 
L 928.550315 263.577829 
L 928.739332 263.128938 
L 929.306381 262.872429 
L 929.495397 262.551793 
L 930.629496 262.134966 
L 930.818512 261.46163 
L 931.196545 261.237185 
L 931.385561 260.916549 
L 931.574578 260.820358 
L 931.95261 260.788294 
L 933.086709 259.95464 
L 933.653758 259.537813 
L 934.031791 259.15305 
L 934.409823 258.896541 
L 934.59884 258.575905 
L 934.787856 257.870505 
L 935.921955 257.29336 
L 936.299987 256.555897 
L 936.67802 256.427642 
L 936.867036 255.978751 
L 937.056053 255.914624 
L 937.812118 255.209225 
L 938.946217 254.535889 
L 940.269331 253.349535 
L 940.647364 252.676199 
L 940.836381 252.002863 
L 941.214413 251.425718 
L 941.40343 251.040954 
L 942.159495 247.161256 
L 942.537528 246.359666 
L 942.726544 245.942839 
L 942.915561 244.243467 
L 943.104577 240.908851 
L 944.427692 231.450083 
L 944.805725 227.089431 
L 945.183757 226.448159 
L 945.56179 220.772899 
L 945.750807 219.297972 
L 946.128839 213.045567 
L 946.506872 211.859213 
L 946.695889 208.620787 
L 946.884905 208.043642 
L 947.262938 204.452517 
L 947.64097 194.897559 
L 947.829987 194.384541 
L 948.019003 193.486759 
L 948.20802 190.504843 
L 948.397036 190.280398 
L 948.775069 185.438791 
L 948.964085 185.374664 
L 949.153102 185.054028 
L 949.531134 183.963865 
L 949.720151 183.739419 
L 949.909167 183.194338 
L 950.098184 182.168302 
L 950.476216 181.97592 
L 950.854249 180.82163 
L 951.043265 180.084167 
L 951.421298 177.294632 
L 951.610315 176.781614 
L 951.799331 176.717487 
L 951.988347 176.428915 
L 952.177364 175.851769 
L 952.36638 175.659388 
L 952.555397 174.473034 
L 952.744413 174.248588 
L 952.933429 173.831761 
L 953.122446 173.767634 
L 953.311462 173.126362 
L 953.689495 172.837789 
L 953.878511 172.741598 
L 954.067528 172.260644 
L 954.256544 172.100326 
L 954.634577 171.555245 
L 954.823593 171.459054 
L 955.579659 170.72159 
L 955.768675 170.657463 
L 956.524741 169.791746 
L 956.902773 169.503173 
L 957.09179 169.439046 
L 957.847855 169.246664 
L 958.036872 168.990155 
L 958.414905 168.893964 
L 959.17097 168.252692 
L 959.359986 168.092374 
L 959.927036 167.771738 
L 960.683101 166.713638 
L 961.439167 166.55332 
L 961.817199 166.264748 
L 962.195232 165.655539 
L 962.762281 165.142521 
L 963.329331 164.469185 
L 964.085396 164.180612 
L 964.652445 163.667594 
L 965.030478 163.379022 
L 965.408511 163.090449 
L 965.786544 162.801877 
L 965.97556 162.064414 
L 966.731626 161.519332 
L 966.920642 161.166632 
L 967.298675 160.942187 
L 967.676707 160.685678 
L 968.621789 159.980278 
L 968.999822 159.81996 
L 969.188839 159.659642 
L 969.755888 159.499324 
L 970.13392 158.473288 
L 970.322937 158.377097 
L 970.70097 157.86408 
L 971.268019 157.126616 
L 971.646052 156.966298 
L 972.213101 156.068517 
L 972.402117 155.395181 
L 972.591134 155.170736 
L 972.969166 155.074545 
L 973.158183 154.689781 
L 974.85933 153.4393 
L 975.237363 152.830091 
L 975.426379 152.733901 
L 975.615396 148.854203 
L 975.993428 148.244994 
L 976.182445 148.084676 
L 976.560478 147.379276 
L 976.749494 147.347213 
L 977.127527 146.898322 
L 977.316543 146.25705 
L 978.639658 144.557678 
L 979.017691 142.505606 
L 979.206707 141.896398 
L 979.395723 140.838298 
L 979.58474 140.549726 
L 979.773756 139.203054 
L 980.151789 138.080827 
L 980.340805 137.215109 
L 981.096871 136.285264 
L 981.852936 134.778274 
L 982.230969 134.682083 
L 982.987035 133.912557 
L 983.365068 133.239221 
L 983.554084 132.79033 
L 983.7431 132.726203 
L 985.066215 130.770322 
L 985.255231 129.648095 
L 986.767362 128.237296 
L 986.956379 128.012851 
L 987.523428 127.018879 
L 987.901461 126.537924 
L 988.090477 125.576016 
L 988.846543 123.908708 
L 989.035559 123.363626 
L 989.224576 123.267435 
L 989.413592 122.529972 
L 989.602608 122.305527 
L 990.358674 119.996946 
L 990.736707 119.227419 
L 990.925723 119.035038 
L 992.815887 114.065177 
L 993.949985 108.77468 
L 994.139002 107.203563 
L 994.517034 106.56229 
L 994.706051 105.921018 
L 995.084083 103.259738 
L 995.462116 102.329893 
L 995.651133 102.105447 
L 995.840149 93.672716 
L 996.029165 90.402227 
L 996.218182 89.28 
L 996.218182 89.28 
" clip-path="url(#pfd2a4cd17a)" style="fill: none; stroke: #1f77b4; stroke-width: 1.5; stroke-linecap: square"/>
   </g>
   <g id="patch_3">
    <path d="M 144 512.64 
L 144 69.12 
" style="fill: none; stroke: #000000; stroke-width: 0.8; stroke-linejoin: miter; stroke-linecap: square"/>
   </g>
   <g id="patch_4">
    <path d="M 1036.8 512.64 
L 1036.8 69.12 
" style="fill: none; stroke: #000000; stroke-width: 0.8; stroke-linejoin: miter; stroke-linecap: square"/>
   </g>
   <g id="patch_5">
    <path d="M 144 512.64 
L 1036.8 512.64 
" style="fill: none; stroke: #000000; stroke-width: 0.8; stroke-linejoin: miter; stroke-linecap: square"/>
   </g>
   <g id="patch_6">
    <path d="M 144 69.12 
L 1036.8 69.12 
" style="fill: none; stroke: #000000; stroke-width: 0.8; stroke-linejoin: miter; stroke-linecap: square"/>
   </g>
   <g id="text_15">
    <!-- Number of AEDs in the OpenStreetMap database in Poland from first edition, day by day. As at: 2025-11-13 -->
    <g transform="translate(144 63.12) scale(0.14 -0.14)">
     <defs>
      <path id="DejaVuSans-4e" d="M 628 4666 
L 1478 4666 
L 3547 763 
L 3547 4666 
L 4159 4666 
L 4159 0 
L 3309 0 
L 1241 3903 
L 1241 0 
L 628 0 
L 628 4666 
z
" transform="scale(0.015625)"/>
      <path id="DejaVuSans-75" d="M 544 1381 
L 544 3500 
L 1119 3500 
L 1119 1403 
Q 1119 906 1312 657 
Q 1506 409 1894 409 
Q 2359 409 2629 706 
Q 2900 1003 2900 1516 
L 2900 3500 
L 3475 3500 
L 3475 0 
L 2900 0 
L 2900 538 
Q 2691 219 2414 64 
Q 2138 -91 1772 -91 
Q 1169 -91 856 284 
Q 544 659 544 1381 
z
M 1991 3584 
L 1991 3584 
z
" transform="scale(0.015625)"/>
      <path id="DejaVuSans-6d" d="M 3328 2828 
Q 3544 3216 3844 3400 
Q 4144 3584 4550 3584 
Q 5097 3584 5394 3201 
Q 5691 2819 5691 2113 
L 5691 0 
L 5113 0 
L 5113 2094 
Q 5113 2597 4934 2840 
Q 4756 3084 4391 3084 
Q 3944 3084 3684 2787 
Q 3425 2491 3425 1978 
L 3425 0 
L 2847 0 
L 2847 2094 
Q 2847 2600 2669 2842 
Q 2491 3084 2119 3084 
Q 1678 3084 1418 2786 
Q 1159 2488 1159 1978 
L 1159 0 
L 581 0 
L 581 3500 
L 1159 3500 
L 1159 2956 
Q 1356 3278 1631 3431 
Q 1906 3584 2284 3584 
Q 2666 3584 2933 3390 
Q 3200 3197 3328 2828 
z
" transform="scale(0.015625)"/>
      <path id="DejaVuSans-62" d="M 3116 1747 
Q 3116 2381 2855 2742 
Q 2594 3103 2138 3103 
Q 1681 3103 1420 2742 
Q 1159 2381 1159 1747 
Q 1159 1113 1420 752 
Q 1681 391 2138 391 
Q 2594 391 2855 752 
Q 3116 1113 3116 1747 
z
M 1159 2969 
Q 1341 3281 1617 3432 
Q 1894 3584 2278 3584 
Q 2916 3584 3314 3078 
Q 3713 2572 3713 1747 
Q 3713 922 3314 415 
Q 2916 -91 2278 -91 
Q 1894 -91 1617 61 
Q 1341 213 1159 525 
L 1159 0 
L 581 0 
L 581 4863 
L 1159 4863 
L 1159 2969 
z
" transform="scale(0.015625)"/>
      <path id="DejaVuSans-65" d="M 3597 1894 
L 3597 1613 
L 953 1613 
Q 991 1019 1311 708 
Q 1631 397 2203 397 
Q 2534 397 2845 478 
Q 3156 559 3463 722 
L 3463 178 
Q 3153 47 2828 -22 
Q 2503 -91 2169 -91 
Q 1331 -91 842 396 
Q 353 884 353 1716 
Q 353 2575 817 3079 
Q 1281 3584 2069 3584 
Q 2775 3584 3186 3129 
Q 3597 2675 3597 1894 
z
M 3022 2063 
Q 3016 2534 2758 2815 
Q 2500 3097 2075 3097 
Q 1594 3097 1305 2825 
Q 1016 2553 972 2059 
L 3022 2063 
z
" transform="scale(0.015625)"/>
      <path id="DejaVuSans-72" d="M 2631 2963 
Q 2534 3019 2420 3045 
Q 2306 3072 2169 3072 
Q 1681 3072 1420 2755 
Q 1159 2438 1159 1844 
L 1159 0 
L 581 0 
L 581 3500 
L 1159 3500 
L 1159 2956 
Q 1341 3275 1631 3429 
Q 1922 3584 2338 3584 
Q 2397 3584 2469 3576 
Q 2541 3569 2628 3553 
L 2631 2963 
z
" transform="scale(0.015625)"/>
      <path id="DejaVuSans-20" transform="scale(0.015625)"/>
      <path id="DejaVuSans-6f" d="M 1959 3097 
Q 1497 3097 1228 2736 
Q 959 2375 959 1747 
Q 959 1119 1226 758 
Q 1494 397 1959 397 
Q 2419 397 2687 759 
Q 2956 1122 2956 1747 
Q 2956 2369 2687 2733 
Q 2419 3097 1959 3097 
z
M 1959 3584 
Q 2709 3584 3137 3096 
Q 3566 2609 3566 1747 
Q 3566 888 3137 398 
Q 2709 -91 1959 -91 
Q 1206 -91 779 398 
Q 353 888 353 1747 
Q 353 2609 779 3096 
Q 1206 3584 1959 3584 
z
" transform="scale(0.015625)"/>
      <path id="DejaVuSans-66" d="M 2375 4863 
L 2375 4384 
L 1825 4384 
Q 1516 4384 1395 4259 
Q 1275 4134 1275 3809 
L 1275 3500 
L 2222 3500 
L 2222 3053 
L 1275 3053 
L 1275 0 
L 697 0 
L 697 3053 
L 147 3053 
L 147 3500 
L 697 3500 
L 697 3744 
Q 697 4328 969 4595 
Q 1241 4863 1831 4863 
L 2375 4863 
z
" transform="scale(0.015625)"/>
      <path id="DejaVuSans-41" d="M 2188 4044 
L 1331 1722 
L 3047 1722 
L 2188 4044 
z
M 1831 4666 
L 2547 4666 
L 4325 0 
L 3669 0 
L 3244 1197 
L 1141 1197 
L 716 0 
L 50 0 
L 1831 4666 
z
" transform="scale(0.015625)"/>
      <path id="DejaVuSans-45" d="M 628 4666 
L 3578 4666 
L 3578 4134 
L 1259 4134 
L 1259 2753 
L 3481 2753 
L 3481 2222 
L 1259 2222 
L 1259 531 
L 3634 531 
L 3634 0 
L 628 0 
L 628 4666 
z
" transform="scale(0.015625)"/>
      <path id="DejaVuSans-44" d="M 1259 4147 
L 1259 519 
L 2022 519 
Q 2988 519 3436 956 
Q 3884 1394 3884 2338 
Q 3884 3275 3436 3711 
Q 2988 4147 2022 4147 
L 1259 4147 
z
M 628 4666 
L 1925 4666 
Q 3281 4666 3915 4102 
Q 4550 3538 4550 2338 
Q 4550 1131 3912 565 
Q 3275 0 1925 0 
L 628 0 
L 628 4666 
z
" transform="scale(0.015625)"/>
      <path id="DejaVuSans-73" d="M 2834 3397 
L 2834 2853 
Q 2591 2978 2328 3040 
Q 2066 3103 1784 3103 
Q 1356 3103 1142 2972 
Q 928 2841 928 2578 
Q 928 2378 1081 2264 
Q 1234 2150 1697 2047 
L 1894 2003 
Q 2506 1872 2764 1633 
Q 3022 1394 3022 966 
Q 3022 478 2636 193 
Q 2250 -91 1575 -91 
Q 1294 -91 989 -36 
Q 684 19 347 128 
L 347 722 
Q 666 556 975 473 
Q 1284 391 1588 391 
Q 1994 391 2212 530 
Q 2431 669 2431 922 
Q 2431 1156 2273 1281 
Q 2116 1406 1581 1522 
L 1381 1569 
Q 847 1681 609 1914 
Q 372 2147 372 2553 
Q 372 3047 722 3315 
Q 1072 3584 1716 3584 
Q 2034 3584 2315 3537 
Q 2597 3491 2834 3397 
z
" transform="scale(0.015625)"/>
      <path id="DejaVuSans-69" d="M 603 3500 
L 1178 3500 
L 1178 0 
L 603 0 
L 603 3500 
z
M 603 4863 
L 1178 4863 
L 1178 4134 
L 603 4134 
L 603 4863 
z
" transform="scale(0.015625)"/>
      <path id="DejaVuSans-6e" d="M 3513 2113 
L 3513 0 
L 2938 0 
L 2938 2094 
Q 2938 2591 2744 2837 
Q 2550 3084 2163 3084 
Q 1697 3084 1428 2787 
Q 1159 2491 1159 1978 
L 1159 0 
L 581 0 
L 581 3500 
L 1159 3500 
L 1159 2956 
Q 1366 3272 1645 3428 
Q 1925 3584 2291 3584 
Q 2894 3584 3203 3211 
Q 3513 2838 3513 2113 
z
" transform="scale(0.015625)"/>
      <path id="DejaVuSans-74" d="M 1172 4494 
L 1172 3500 
L 2356 3500 
L 2356 3053 
L 1172 3053 
L 1172 1153 
Q 1172 725 1289 603 
Q 1406 481 1766 481 
L 2356 481 
L 2356 0 
L 1766 0 
Q 1100 0 847 248 
Q 594 497 594 1153 
L 594 3053 
L 172 3053 
L 172 3500 
L 594 3500 
L 594 4494 
L 1172 4494 
z
" transform="scale(0.015625)"/>
      <path id="DejaVuSans-68" d="M 3513 2113 
L 3513 0 
L 2938 0 
L 2938 2094 
Q 2938 2591 2744 2837 
Q 2550 3084 2163 3084 
Q 1697 3084 1428 2787 
Q 1159 2491 1159 1978 
L 1159 0 
L 581 0 
L 581 4863 
L 1159 4863 
L 1159 2956 
Q 1366 3272 1645 3428 
Q 1925 3584 2291 3584 
Q 2894 3584 3203 3211 
Q 3513 2838 3513 2113 
z
" transform="scale(0.015625)"/>
      <path id="DejaVuSans-4f" d="M 2522 4238 
Q 1834 4238 1429 3725 
Q 1025 3213 1025 2328 
Q 1025 1447 1429 934 
Q 1834 422 2522 422 
Q 3209 422 3611 934 
Q 4013 1447 4013 2328 
Q 4013 3213 3611 3725 
Q 3209 4238 2522 4238 
z
M 2522 4750 
Q 3503 4750 4090 4092 
Q 4678 3434 4678 2328 
Q 4678 1225 4090 567 
Q 3503 -91 2522 -91 
Q 1538 -91 948 565 
Q 359 1222 359 2328 
Q 359 3434 948 4092 
Q 1538 4750 2522 4750 
z
" transform="scale(0.015625)"/>
      <path id="DejaVuSans-70" d="M 1159 525 
L 1159 -1331 
L 581 -1331 
L 581 3500 
L 1159 3500 
L 1159 2969 
Q 1341 3281 1617 3432 
Q 1894 3584 2278 3584 
Q 2916 3584 3314 3078 
Q 3713 2572 3713 1747 
Q 3713 922 3314 415 
Q 2916 -91 2278 -91 
Q 1894 -91 1617 61 
Q 1341 213 1159 525 
z
M 3116 1747 
Q 3116 2381 2855 2742 
Q 2594 3103 2138 3103 
Q 1681 3103 1420 2742 
Q 1159 2381 1159 1747 
Q 1159 1113 1420 752 
Q 1681 391 2138 391 
Q 2594 391 2855 752 
Q 3116 1113 3116 1747 
z
" transform="scale(0.015625)"/>
      <path id="DejaVuSans-53" d="M 3425 4513 
L 3425 3897 
Q 3066 4069 2747 4153 
Q 2428 4238 2131 4238 
Q 1616 4238 1336 4038 
Q 1056 3838 1056 3469 
Q 1056 3159 1242 3001 
Q 1428 2844 1947 2747 
L 2328 2669 
Q 3034 2534 3370 2195 
Q 3706 1856 3706 1288 
Q 3706 609 3251 259 
Q 2797 -91 1919 -91 
Q 1588 -91 1214 -16 
Q 841 59 441 206 
L 441 856 
Q 825 641 1194 531 
Q 1563 422 1919 422 
Q 2459 422 2753 634 
Q 3047 847 3047 1241 
Q 3047 1584 2836 1778 
Q 2625 1972 2144 2069 
L 1759 2144 
Q 1053 2284 737 2584 
Q 422 2884 422 3419 
Q 422 4038 858 4394 
Q 1294 4750 2059 4750 
Q 2388 4750 2728 4690 
Q 3069 4631 3425 4513 
z
" transform="scale(0.015625)"/>
      <path id="DejaVuSans-4d" d="M 628 4666 
L 1569 4666 
L 2759 1491 
L 3956 4666 
L 4897 4666 
L 4897 0 
L 4281 0 
L 4281 4097 
L 3078 897 
L 2444 897 
L 1241 4097 
L 1241 0 
L 628 0 
L 628 4666 
z
" transform="scale(0.015625)"/>
      <path id="DejaVuSans-61" d="M 2194 1759 
Q 1497 1759 1228 1600 
Q 959 1441 959 1056 
Q 959 750 1161 570 
Q 1363 391 1709 391 
Q 2188 391 2477 730 
Q 2766 1069 2766 1631 
L 2766 1759 
L 2194 1759 
z
M 3341 1997 
L 3341 0 
L 2766 0 
L 2766 531 
Q 2569 213 2275 61 
Q 1981 -91 1556 -91 
Q 1019 -91 701 211 
Q 384 513 384 1019 
Q 384 1609 779 1909 
Q 1175 2209 1959 2209 
L 2766 2209 
L 2766 2266 
Q 2766 2663 2505 2880 
Q 2244 3097 1772 3097 
Q 1472 3097 1187 3025 
Q 903 2953 641 2809 
L 641 3341 
Q 956 3463 1253 3523 
Q 1550 3584 1831 3584 
Q 2591 3584 2966 3190 
Q 3341 2797 3341 1997 
z
" transform="scale(0.015625)"/>
      <path id="DejaVuSans-64" d="M 2906 2969 
L 2906 4863 
L 3481 4863 
L 3481 0 
L 2906 0 
L 2906 525 
Q 2725 213 2448 61 
Q 2172 -91 1784 -91 
Q 1150 -91 751 415 
Q 353 922 353 1747 
Q 353 2572 751 3078 
Q 1150 3584 1784 3584 
Q 2172 3584 2448 3432 
Q 2725 3281 2906 2969 
z
M 947 1747 
Q 947 1113 1208 752 
Q 1469 391 1925 391 
Q 2381 391 2643 752 
Q 2906 1113 2906 1747 
Q 2906 2381 2643 2742 
Q 2381 3103 1925 3103 
Q 1469 3103 1208 2742 
Q 947 2381 947 1747 
z
" transform="scale(0.015625)"/>
      <path id="DejaVuSans-50" d="M 1259 4147 
L 1259 2394 
L 2053 2394 
Q 2494 2394 2734 2622 
Q 2975 2850 2975 3272 
Q 2975 3691 2734 3919 
Q 2494 4147 2053 4147 
L 1259 4147 
z
M 628 4666 
L 2053 4666 
Q 2838 4666 3239 4311 
Q 3641 3956 3641 3272 
Q 3641 2581 3239 2228 
Q 2838 1875 2053 1875 
L 1259 1875 
L 1259 0 
L 628 0 
L 628 4666 
z
" transform="scale(0.015625)"/>
      <path id="DejaVuSans-6c" d="M 603 4863 
L 1178 4863 
L 1178 0 
L 603 0 
L 603 4863 
z
" transform="scale(0.015625)"/>
      <path id="DejaVuSans-2c" d="M 750 794 
L 1409 794 
L 1409 256 
L 897 -744 
L 494 -744 
L 750 256 
L 750 794 
z
" transform="scale(0.015625)"/>
      <path id="DejaVuSans-79" d="M 2059 -325 
Q 1816 -950 1584 -1140 
Q 1353 -1331 966 -1331 
L 506 -1331 
L 506 -850 
L 844 -850 
Q 1081 -850 1212 -737 
Q 1344 -625 1503 -206 
L 1606 56 
L 191 3500 
L 800 3500 
L 1894 763 
L 2988 3500 
L 3597 3500 
L 2059 -325 
z
" transform="scale(0.015625)"/>
      <path id="DejaVuSans-2e" d="M 684 794 
L 1344 794 
L 1344 0 
L 684 0 
L 684 794 
z
" transform="scale(0.015625)"/>
      <path id="DejaVuSans-3a" d="M 750 794 
L 1409 794 
L 1409 0 
L 750 0 
L 750 794 
z
M 750 3309 
L 1409 3309 
L 1409 2516 
L 750 2516 
L 750 3309 
z
" transform="scale(0.015625)"/>
      <path id="DejaVuSans-35" d="M 691 4666 
L 3169 4666 
L 3169 4134 
L 1269 4134 
L 1269 2991 
Q 1406 3038 1543 3061 
Q 1681 3084 1819 3084 
Q 2600 3084 3056 2656 
Q 3513 2228 3513 1497 
Q 3513 744 3044 326 
Q 2575 -91 1722 -91 
Q 1428 -91 1123 -41 
Q 819 9 494 109 
L 494 744 
Q 775 591 1075 516 
Q 1375 441 1709 441 
Q 2250 441 2565 725 
Q 2881 1009 2881 1497 
Q 2881 1984 2565 2268 
Q 2250 2553 1709 2553 
Q 1456 2553 1204 2497 
Q 953 2441 691 2322 
L 691 4666 
z
" transform="scale(0.015625)"/>
      <path id="DejaVuSans-2d" d="M 313 2009 
L 1997 2009 
L 1997 1497 
L 313 1497 
L 313 2009 
z
" transform="scale(0.015625)"/>
      <path id="DejaVuSans-33" d="M 2597 2516 
Q 3050 2419 3304 2112 
Q 3559 1806 3559 1356 
Q 3559 666 3084 287 
Q 2609 -91 1734 -91 
Q 1441 -91 1130 -33 
Q 819 25 488 141 
L 488 750 
Q 750 597 1062 519 
Q 1375 441 1716 441 
Q 2309 441 2620 675 
Q 2931 909 2931 1356 
Q 2931 1769 2642 2001 
Q 2353 2234 1838 2234 
L 1294 2234 
L 1294 2753 
L 1863 2753 
Q 2328 2753 2575 2939 
Q 2822 3125 2822 3475 
Q 2822 3834 2567 4026 
Q 2313 4219 1838 4219 
Q 1578 4219 1281 4162 
Q 984 4106 628 3988 
L 628 4550 
Q 988 4650 1302 4700 
Q 1616 4750 1894 4750 
Q 2613 4750 3031 4423 
Q 3450 4097 3450 3541 
Q 3450 3153 3228 2886 
Q 3006 2619 2597 2516 
z
" transform="scale(0.015625)"/>
     </defs>
     <use xlink:href="#DejaVuSans-4e"/>
     <use xlink:href="#DejaVuSans-75" x="74.804688"/>
     <use xlink:href="#DejaVuSans-6d" x="138.183594"/>
     <use xlink:href="#DejaVuSans-62" x="235.595703"/>
     <use xlink:href="#DejaVuSans-65" x="299.072266"/>
     <use xlink:href="#DejaVuSans-72" x="360.595703"/>
     <use xlink:href="#DejaVuSans-20" x="401.708984"/>
     <use xlink:href="#DejaVuSans-6f" x="433.496094"/>
     <use xlink:href="#DejaVuSans-66" x="494.677734"/>
     <use xlink:href="#DejaVuSans-20" x="529.882812"/>
     <use xlink:href="#DejaVuSans-41" x="561.669922"/>
     <use xlink:href="#DejaVuSans-45" x="630.078125"/>
     <use xlink:href="#DejaVuSans-44" x="693.261719"/>
     <use xlink:href="#DejaVuSans-73" x="770.263672"/>
     <use xlink:href="#DejaVuSans-20" x="822.363281"/>
     <use xlink:href="#DejaVuSans-69" x="854.150391"/>
     <use xlink:href="#DejaVuSans-6e" x="881.933594"/>
     <use xlink:href="#DejaVuSans-20" x="945.3125"/>
     <use xlink:href="#DejaVuSans-74" x="977.099609"/>
     <use xlink:href="#DejaVuSans-68" x="1016.308594"/>
     <use xlink:href="#DejaVuSans-65" x="1079.6875"/>
     <use xlink:href="#DejaVuSans-20" x="1141.210938"/>
     <use xlink:href="#DejaVuSans-4f" x="1172.998047"/>
     <use xlink:href="#DejaVuSans-70" x="1251.708984"/>
     <use xlink:href="#DejaVuSans-65" x="1315.185547"/>
     <use xlink:href="#DejaVuSans-6e" x="1376.708984"/>
     <use xlink:href="#DejaVuSans-53" x="1440.087891"/>
     <use xlink:href="#DejaVuSans-74" x="1503.564453"/>
     <use xlink:href="#DejaVuSans-72" x="1542.773438"/>
     <use xlink:href="#DejaVuSans-65" x="1581.636719"/>
     <use xlink:href="#DejaVuSans-65" x="1643.160156"/>
     <use xlink:href="#DejaVuSans-74" x="1704.683594"/>
     <use xlink:href="#DejaVuSans-4d" x="1743.892578"/>
     <use xlink:href="#DejaVuSans-61" x="1830.171875"/>
     <use xlink:href="#DejaVuSans-70" x="1891.451172"/>
     <use xlink:href="#DejaVuSans-20" x="1954.927734"/>
     <use xlink:href="#DejaVuSans-64" x="1986.714844"/>
     <use xlink:href="#DejaVuSans-61" x="2050.191406"/>
     <use xlink:href="#DejaVuSans-74" x="2111.470703"/>
     <use xlink:href="#DejaVuSans-61" x="2150.679688"/>
     <use xlink:href="#DejaVuSans-62" x="2211.958984"/>
     <use xlink:href="#DejaVuSans-61" x="2275.435547"/>
     <use xlink:href="#DejaVuSans-73" x="2336.714844"/>
     <use xlink:href="#DejaVuSans-65" x="2388.814453"/>
     <use xlink:href="#DejaVuSans-20" x="2450.337891"/>
     <use xlink:href="#DejaVuSans-69" x="2482.125"/>
     <use xlink:href="#DejaVuSans-6e" x="2509.908203"/>
     <use xlink:href="#DejaVuSans-20" x="2573.287109"/>
     <use xlink:href="#DejaVuSans-50" x="2605.074219"/>
     <use xlink:href="#DejaVuSans-6f" x="2661.751953"/>
     <use xlink:href="#DejaVuSans-6c" x="2722.933594"/>
     <use xlink:href="#DejaVuSans-61" x="2750.716797"/>
     <use xlink:href="#DejaVuSans-6e" x="2811.996094"/>
     <use xlink:href="#DejaVuSans-64" x="2875.375"/>
     <use xlink:href="#DejaVuSans-20" x="2938.851562"/>
     <use xlink:href="#DejaVuSans-66" x="2970.638672"/>
     <use xlink:href="#DejaVuSans-72" x="3005.84375"/>
     <use xlink:href="#DejaVuSans-6f" x="3044.707031"/>
     <use xlink:href="#DejaVuSans-6d" x="3105.888672"/>
     <use xlink:href="#DejaVuSans-20" x="3203.300781"/>
     <use xlink:href="#DejaVuSans-66" x="3235.087891"/>
     <use xlink:href="#DejaVuSans-69" x="3270.292969"/>
     <use xlink:href="#DejaVuSans-72" x="3298.076172"/>
     <use xlink:href="#DejaVuSans-73" x="3339.189453"/>
     <use xlink:href="#DejaVuSans-74" x="3391.289062"/>
     <use xlink:href="#DejaVuSans-20" x="3430.498047"/>
     <use xlink:href="#DejaVuSans-65" x="3462.285156"/>
     <use xlink:href="#DejaVuSans-64" x="3523.808594"/>
     <use xlink:href="#DejaVuSans-69" x="3587.285156"/>
     <use xlink:href="#DejaVuSans-74" x="3615.068359"/>
     <use xlink:href="#DejaVuSans-69" x="3654.277344"/>
     <use xlink:href="#DejaVuSans-6f" x="3682.060547"/>
     <use xlink:href="#DejaVuSans-6e" x="3743.242188"/>
     <use xlink:href="#DejaVuSans-2c" x="3806.621094"/>
     <use xlink:href="#DejaVuSans-20" x="3838.408203"/>
     <use xlink:href="#DejaVuSans-64" x="3870.195312"/>
     <use xlink:href="#DejaVuSans-61" x="3933.671875"/>
     <use xlink:href="#DejaVuSans-79" x="3994.951172"/>
     <use xlink:href="#DejaVuSans-20" x="4054.130859"/>
     <use xlink:href="#DejaVuSans-62" x="4085.917969"/>
     <use xlink:href="#DejaVuSans-79" x="4149.394531"/>
     <use xlink:href="#DejaVuSans-20" x="4208.574219"/>
     <use xlink:href="#DejaVuSans-64" x="4240.361328"/>
     <use xlink:href="#DejaVuSans-61" x="4303.837891"/>
     <use xlink:href="#DejaVuSans-79" x="4365.117188"/>
     <use xlink:href="#DejaVuSans-2e" x="4410.046875"/>
     <use xlink:href="#DejaVuSans-20" x="4441.833984"/>
     <use xlink:href="#DejaVuSans-41" x="4473.621094"/>
     <use xlink:href="#DejaVuSans-73" x="4542.029297"/>
     <use xlink:href="#DejaVuSans-20" x="4594.128906"/>
     <use xlink:href="#DejaVuSans-61" x="4625.916016"/>
     <use xlink:href="#DejaVuSans-74" x="4687.195312"/>
     <use xlink:href="#DejaVuSans-3a" x="4726.404297"/>
     <use xlink:href="#DejaVuSans-20" x="4760.095703"/>
     <use xlink:href="#DejaVuSans-32" x="4791.882812"/>
     <use xlink:href="#DejaVuSans-30" x="4855.505859"/>
     <use xlink:href="#DejaVuSans-32" x="4919.128906"/>
     <use xlink:href="#DejaVuSans-35" x="4982.751953"/>
     <use xlink:href="#DejaVuSans-2d" x="5046.375"/>
     <use xlink:href="#DejaVuSans-31" x="5082.458984"/>
     <use xlink:href="#DejaVuSans-31" x="5146.082031"/>
     <use xlink:href="#DejaVuSans-2d" x="5209.705078"/>
     <use xlink:href="#DejaVuSans-31" x="5245.789062"/>
     <use xlink:href="#DejaVuSans-33" x="5309.412109"/>
    </g>
   </g>
  </g>
 </g>
 <defs>
  <clipPath id="pfd2a4cd17a">
   <rect x="144" y="69.12" width="892.8" height="443.52"/>
  </clipPath>
 </defs>
</svg>
