<?xml version="1.0" encoding="utf-8" standalone="no"?>
<!DOCTYPE svg PUBLIC "-//W3C//DTD SVG 1.1//EN"
  "http://www.w3.org/Graphics/SVG/1.1/DTD/svg11.dtd">
<svg xmlns:xlink="http://www.w3.org/1999/xlink" width="1152pt" height="576pt" viewBox="0 0 1152 576" xmlns="http://www.w3.org/2000/svg" version="1.1">
 <metadata>
  <rdf:RDF xmlns:dc="http://purl.org/dc/elements/1.1/" xmlns:cc="http://creativecommons.org/ns#" xmlns:rdf="http://www.w3.org/1999/02/22-rdf-syntax-ns#">
   <cc:Work>
    <dc:type rdf:resource="http://purl.org/dc/dcmitype/StillImage"/>
    <dc:date>1980-01-01T00:00:00+00:00</dc:date>
    <dc:format>image/svg+xml</dc:format>
    <dc:creator>
     <cc:Agent>
      <dc:title>Matplotlib v3.9.1, https://matplotlib.org/</dc:title>
     </cc:Agent>
    </dc:creator>
   </cc:Work>
  </rdf:RDF>
 </metadata>
 <defs>
  <style type="text/css">*{stroke-linejoin: round; stroke-linecap: butt}</style>
 </defs>
 <g id="figure_1">
  <g id="patch_1">
   <path d="M 0 576 
L 1152 576 
L 1152 0 
L 0 0 
z
" style="fill: #ffffff"/>
  </g>
  <g id="axes_1">
   <g id="patch_2">
    <path d="M 144 512.64 
L 1036.8 512.64 
L 1036.8 69.12 
L 144 69.12 
z
" style="fill: #ffffff"/>
   </g>
   <g id="matplotlib.axis_1">
    <g id="xtick_1">
     <g id="line2d_1">
      <defs>
       <path id="m7805eadda3" d="M 0 0 
L 0 3.5 
" style="stroke: #000000; stroke-width: 0.8"/>
      </defs>
      <g>
       <use xlink:href="#m7805eadda3" x="177.226708" y="512.64" style="stroke: #000000; stroke-width: 0.8"/>
      </g>
     </g>
     <g id="text_1">
      <!-- 2014 -->
      <g transform="translate(164.501708 527.238438) scale(0.1 -0.1)">
       <defs>
        <path id="DejaVuSans-32" d="M 1228 531 
L 3431 531 
L 3431 0 
L 469 0 
L 469 531 
Q 828 903 1448 1529 
Q 2069 2156 2228 2338 
Q 2531 2678 2651 2914 
Q 2772 3150 2772 3378 
Q 2772 3750 2511 3984 
Q 2250 4219 1831 4219 
Q 1534 4219 1204 4116 
Q 875 4013 500 3803 
L 500 4441 
Q 881 4594 1212 4672 
Q 1544 4750 1819 4750 
Q 2544 4750 2975 4387 
Q 3406 4025 3406 3419 
Q 3406 3131 3298 2873 
Q 3191 2616 2906 2266 
Q 2828 2175 2409 1742 
Q 1991 1309 1228 531 
z
" transform="scale(0.015625)"/>
        <path id="DejaVuSans-30" d="M 2034 4250 
Q 1547 4250 1301 3770 
Q 1056 3291 1056 2328 
Q 1056 1369 1301 889 
Q 1547 409 2034 409 
Q 2525 409 2770 889 
Q 3016 1369 3016 2328 
Q 3016 3291 2770 3770 
Q 2525 4250 2034 4250 
z
M 2034 4750 
Q 2819 4750 3233 4129 
Q 3647 3509 3647 2328 
Q 3647 1150 3233 529 
Q 2819 -91 2034 -91 
Q 1250 -91 836 529 
Q 422 1150 422 2328 
Q 422 3509 836 4129 
Q 1250 4750 2034 4750 
z
" transform="scale(0.015625)"/>
        <path id="DejaVuSans-31" d="M 794 531 
L 1825 531 
L 1825 4091 
L 703 3866 
L 703 4441 
L 1819 4666 
L 2450 4666 
L 2450 531 
L 3481 531 
L 3481 0 
L 794 0 
L 794 531 
z
" transform="scale(0.015625)"/>
        <path id="DejaVuSans-34" d="M 2419 4116 
L 825 1625 
L 2419 1625 
L 2419 4116 
z
M 2253 4666 
L 3047 4666 
L 3047 1625 
L 3713 1625 
L 3713 1100 
L 3047 1100 
L 3047 0 
L 2419 0 
L 2419 1100 
L 313 1100 
L 313 1709 
L 2253 4666 
z
" transform="scale(0.015625)"/>
       </defs>
       <use xlink:href="#DejaVuSans-32"/>
       <use xlink:href="#DejaVuSans-30" x="63.623047"/>
       <use xlink:href="#DejaVuSans-31" x="127.246094"/>
       <use xlink:href="#DejaVuSans-34" x="190.869141"/>
      </g>
     </g>
    </g>
    <g id="xtick_2">
     <g id="line2d_2">
      <g>
       <use xlink:href="#m7805eadda3" x="311.457462" y="512.64" style="stroke: #000000; stroke-width: 0.8"/>
      </g>
     </g>
     <g id="text_2">
      <!-- 2016 -->
      <g transform="translate(298.732462 527.238438) scale(0.1 -0.1)">
       <defs>
        <path id="DejaVuSans-36" d="M 2113 2584 
Q 1688 2584 1439 2293 
Q 1191 2003 1191 1497 
Q 1191 994 1439 701 
Q 1688 409 2113 409 
Q 2538 409 2786 701 
Q 3034 994 3034 1497 
Q 3034 2003 2786 2293 
Q 2538 2584 2113 2584 
z
M 3366 4563 
L 3366 3988 
Q 3128 4100 2886 4159 
Q 2644 4219 2406 4219 
Q 1781 4219 1451 3797 
Q 1122 3375 1075 2522 
Q 1259 2794 1537 2939 
Q 1816 3084 2150 3084 
Q 2853 3084 3261 2657 
Q 3669 2231 3669 1497 
Q 3669 778 3244 343 
Q 2819 -91 2113 -91 
Q 1303 -91 875 529 
Q 447 1150 447 2328 
Q 447 3434 972 4092 
Q 1497 4750 2381 4750 
Q 2619 4750 2861 4703 
Q 3103 4656 3366 4563 
z
" transform="scale(0.015625)"/>
       </defs>
       <use xlink:href="#DejaVuSans-32"/>
       <use xlink:href="#DejaVuSans-30" x="63.623047"/>
       <use xlink:href="#DejaVuSans-31" x="127.246094"/>
       <use xlink:href="#DejaVuSans-36" x="190.869141"/>
      </g>
     </g>
    </g>
    <g id="xtick_3">
     <g id="line2d_3">
      <g>
       <use xlink:href="#m7805eadda3" x="445.872093" y="512.64" style="stroke: #000000; stroke-width: 0.8"/>
      </g>
     </g>
     <g id="text_3">
      <!-- 2018 -->
      <g transform="translate(433.147093 527.238438) scale(0.1 -0.1)">
       <defs>
        <path id="DejaVuSans-38" d="M 2034 2216 
Q 1584 2216 1326 1975 
Q 1069 1734 1069 1313 
Q 1069 891 1326 650 
Q 1584 409 2034 409 
Q 2484 409 2743 651 
Q 3003 894 3003 1313 
Q 3003 1734 2745 1975 
Q 2488 2216 2034 2216 
z
M 1403 2484 
Q 997 2584 770 2862 
Q 544 3141 544 3541 
Q 544 4100 942 4425 
Q 1341 4750 2034 4750 
Q 2731 4750 3128 4425 
Q 3525 4100 3525 3541 
Q 3525 3141 3298 2862 
Q 3072 2584 2669 2484 
Q 3125 2378 3379 2068 
Q 3634 1759 3634 1313 
Q 3634 634 3220 271 
Q 2806 -91 2034 -91 
Q 1263 -91 848 271 
Q 434 634 434 1313 
Q 434 1759 690 2068 
Q 947 2378 1403 2484 
z
M 1172 3481 
Q 1172 3119 1398 2916 
Q 1625 2713 2034 2713 
Q 2441 2713 2670 2916 
Q 2900 3119 2900 3481 
Q 2900 3844 2670 4047 
Q 2441 4250 2034 4250 
Q 1625 4250 1398 4047 
Q 1172 3844 1172 3481 
z
" transform="scale(0.015625)"/>
       </defs>
       <use xlink:href="#DejaVuSans-32"/>
       <use xlink:href="#DejaVuSans-30" x="63.623047"/>
       <use xlink:href="#DejaVuSans-31" x="127.246094"/>
       <use xlink:href="#DejaVuSans-38" x="190.869141"/>
      </g>
     </g>
    </g>
    <g id="xtick_4">
     <g id="line2d_4">
      <g>
       <use xlink:href="#m7805eadda3" x="580.102846" y="512.64" style="stroke: #000000; stroke-width: 0.8"/>
      </g>
     </g>
     <g id="text_4">
      <!-- 2020 -->
      <g transform="translate(567.377846 527.238438) scale(0.1 -0.1)">
       <use xlink:href="#DejaVuSans-32"/>
       <use xlink:href="#DejaVuSans-30" x="63.623047"/>
       <use xlink:href="#DejaVuSans-32" x="127.246094"/>
       <use xlink:href="#DejaVuSans-30" x="190.869141"/>
      </g>
     </g>
    </g>
    <g id="xtick_5">
     <g id="line2d_5">
      <g>
       <use xlink:href="#m7805eadda3" x="714.517477" y="512.64" style="stroke: #000000; stroke-width: 0.8"/>
      </g>
     </g>
     <g id="text_5">
      <!-- 2022 -->
      <g transform="translate(701.792477 527.238438) scale(0.1 -0.1)">
       <use xlink:href="#DejaVuSans-32"/>
       <use xlink:href="#DejaVuSans-30" x="63.623047"/>
       <use xlink:href="#DejaVuSans-32" x="127.246094"/>
       <use xlink:href="#DejaVuSans-32" x="190.869141"/>
      </g>
     </g>
    </g>
    <g id="xtick_6">
     <g id="line2d_6">
      <g>
       <use xlink:href="#m7805eadda3" x="848.748231" y="512.64" style="stroke: #000000; stroke-width: 0.8"/>
      </g>
     </g>
     <g id="text_6">
      <!-- 2024 -->
      <g transform="translate(836.023231 527.238438) scale(0.1 -0.1)">
       <use xlink:href="#DejaVuSans-32"/>
       <use xlink:href="#DejaVuSans-30" x="63.623047"/>
       <use xlink:href="#DejaVuSans-32" x="127.246094"/>
       <use xlink:href="#DejaVuSans-34" x="190.869141"/>
      </g>
     </g>
    </g>
    <g id="xtick_7">
     <g id="line2d_7">
      <g>
       <use xlink:href="#m7805eadda3" x="983.162862" y="512.64" style="stroke: #000000; stroke-width: 0.8"/>
      </g>
     </g>
     <g id="text_7">
      <!-- 2026 -->
      <g transform="translate(970.437862 527.238438) scale(0.1 -0.1)">
       <use xlink:href="#DejaVuSans-32"/>
       <use xlink:href="#DejaVuSans-30" x="63.623047"/>
       <use xlink:href="#DejaVuSans-32" x="127.246094"/>
       <use xlink:href="#DejaVuSans-36" x="190.869141"/>
      </g>
     </g>
    </g>
   </g>
   <g id="matplotlib.axis_2">
    <g id="ytick_1">
     <g id="line2d_8">
      <defs>
       <path id="ma87a98e027" d="M 0 0 
L -3.5 0 
" style="stroke: #000000; stroke-width: 0.8"/>
      </defs>
      <g>
       <use xlink:href="#ma87a98e027" x="144" y="492.507408" style="stroke: #000000; stroke-width: 0.8"/>
      </g>
     </g>
     <g id="text_8">
      <!-- 0 -->
      <g transform="translate(130.6375 496.306627) scale(0.1 -0.1)">
       <use xlink:href="#DejaVuSans-30"/>
      </g>
     </g>
    </g>
    <g id="ytick_2">
     <g id="line2d_9">
      <g>
       <use xlink:href="#ma87a98e027" x="144" y="437.691284" style="stroke: #000000; stroke-width: 0.8"/>
      </g>
     </g>
     <g id="text_9">
      <!-- 2000 -->
      <g transform="translate(111.55 441.490503) scale(0.1 -0.1)">
       <use xlink:href="#DejaVuSans-32"/>
       <use xlink:href="#DejaVuSans-30" x="63.623047"/>
       <use xlink:href="#DejaVuSans-30" x="127.246094"/>
       <use xlink:href="#DejaVuSans-30" x="190.869141"/>
      </g>
     </g>
    </g>
    <g id="ytick_3">
     <g id="line2d_10">
      <g>
       <use xlink:href="#ma87a98e027" x="144" y="382.87516" style="stroke: #000000; stroke-width: 0.8"/>
      </g>
     </g>
     <g id="text_10">
      <!-- 4000 -->
      <g transform="translate(111.55 386.674379) scale(0.1 -0.1)">
       <use xlink:href="#DejaVuSans-34"/>
       <use xlink:href="#DejaVuSans-30" x="63.623047"/>
       <use xlink:href="#DejaVuSans-30" x="127.246094"/>
       <use xlink:href="#DejaVuSans-30" x="190.869141"/>
      </g>
     </g>
    </g>
    <g id="ytick_4">
     <g id="line2d_11">
      <g>
       <use xlink:href="#ma87a98e027" x="144" y="328.059036" style="stroke: #000000; stroke-width: 0.8"/>
      </g>
     </g>
     <g id="text_11">
      <!-- 6000 -->
      <g transform="translate(111.55 331.858255) scale(0.1 -0.1)">
       <use xlink:href="#DejaVuSans-36"/>
       <use xlink:href="#DejaVuSans-30" x="63.623047"/>
       <use xlink:href="#DejaVuSans-30" x="127.246094"/>
       <use xlink:href="#DejaVuSans-30" x="190.869141"/>
      </g>
     </g>
    </g>
    <g id="ytick_5">
     <g id="line2d_12">
      <g>
       <use xlink:href="#ma87a98e027" x="144" y="273.242912" style="stroke: #000000; stroke-width: 0.8"/>
      </g>
     </g>
     <g id="text_12">
      <!-- 8000 -->
      <g transform="translate(111.55 277.042131) scale(0.1 -0.1)">
       <use xlink:href="#DejaVuSans-38"/>
       <use xlink:href="#DejaVuSans-30" x="63.623047"/>
       <use xlink:href="#DejaVuSans-30" x="127.246094"/>
       <use xlink:href="#DejaVuSans-30" x="190.869141"/>
      </g>
     </g>
    </g>
    <g id="ytick_6">
     <g id="line2d_13">
      <g>
       <use xlink:href="#ma87a98e027" x="144" y="218.426788" style="stroke: #000000; stroke-width: 0.8"/>
      </g>
     </g>
     <g id="text_13">
      <!-- 10000 -->
      <g transform="translate(105.1875 222.226007) scale(0.1 -0.1)">
       <use xlink:href="#DejaVuSans-31"/>
       <use xlink:href="#DejaVuSans-30" x="63.623047"/>
       <use xlink:href="#DejaVuSans-30" x="127.246094"/>
       <use xlink:href="#DejaVuSans-30" x="190.869141"/>
       <use xlink:href="#DejaVuSans-30" x="254.492188"/>
      </g>
     </g>
    </g>
    <g id="ytick_7">
     <g id="line2d_14">
      <g>
       <use xlink:href="#ma87a98e027" x="144" y="163.610664" style="stroke: #000000; stroke-width: 0.8"/>
      </g>
     </g>
     <g id="text_14">
      <!-- 12000 -->
      <g transform="translate(105.1875 167.409883) scale(0.1 -0.1)">
       <use xlink:href="#DejaVuSans-31"/>
       <use xlink:href="#DejaVuSans-32" x="63.623047"/>
       <use xlink:href="#DejaVuSans-30" x="127.246094"/>
       <use xlink:href="#DejaVuSans-30" x="190.869141"/>
       <use xlink:href="#DejaVuSans-30" x="254.492188"/>
      </g>
     </g>
    </g>
    <g id="ytick_8">
     <g id="line2d_15">
      <g>
       <use xlink:href="#ma87a98e027" x="144" y="108.79454" style="stroke: #000000; stroke-width: 0.8"/>
      </g>
     </g>
     <g id="text_15">
      <!-- 14000 -->
      <g transform="translate(105.1875 112.593759) scale(0.1 -0.1)">
       <use xlink:href="#DejaVuSans-31"/>
       <use xlink:href="#DejaVuSans-34" x="63.623047"/>
       <use xlink:href="#DejaVuSans-30" x="127.246094"/>
       <use xlink:href="#DejaVuSans-30" x="190.869141"/>
       <use xlink:href="#DejaVuSans-30" x="254.492188"/>
      </g>
     </g>
    </g>
   </g>
   <g id="line2d_16">
    <path d="M 184.581818 492.48 
L 186.236718 492.425184 
L 285.346822 492.288144 
L 451.756181 492.123695 
L 493.128673 491.959247 
L 586.170812 491.438494 
L 586.538567 491.219229 
L 590.4 491.082189 
L 637.472703 490.91774 
L 641.518013 490.835516 
L 663.031709 490.64366 
L 690.613371 489.958458 
L 697.049092 489.602153 
L 706.610734 489.410297 
L 711.0238 488.423607 
L 711.207678 488.313975 
L 712.862578 488.23175 
L 713.598089 487.848038 
L 713.781966 487.217652 
L 714.149722 487.053204 
L 714.3336 487.025796 
L 714.517477 486.148738 
L 715.620744 485.765025 
L 715.988499 485.299088 
L 716.356255 485.162047 
L 716.540133 484.833151 
L 716.72401 484.093133 
L 717.091766 483.490156 
L 717.275644 482.695322 
L 717.459521 481.187878 
L 718.011155 480.201188 
L 718.37891 475.295145 
L 718.562788 474.774392 
L 718.930543 471.649873 
L 719.114421 471.12912 
L 719.298299 469.758717 
L 719.482177 469.676492 
L 720.03381 467.977193 
L 720.217688 464.112656 
L 720.401565 463.783759 
L 720.769321 462.714845 
L 720.953199 462.63262 
L 721.137076 462.057051 
L 721.320954 459.425877 
L 721.504832 458.795492 
L 721.688709 458.768084 
L 721.872587 456.849519 
L 722.056465 456.602847 
L 722.42422 456.465807 
L 723.159731 454.711691 
L 723.527487 454.163529 
L 724.07912 452.683494 
L 724.446876 448.572285 
L 724.814631 446.626312 
L 725.366264 446.544088 
L 725.73402 446.352232 
L 726.469531 445.310725 
L 726.837286 445.255909 
L 727.205042 443.090672 
L 727.572797 442.926224 
L 727.756675 442.706959 
L 727.940553 441.720269 
L 728.308308 441.446189 
L 728.492186 441.309148 
L 728.676064 440.843211 
L 729.227697 440.678763 
L 729.595452 440.43209 
L 729.963208 439.417992 
L 730.147086 439.335768 
L 730.514841 438.924647 
L 731.250352 438.623158 
L 731.43423 437.691284 
L 731.801985 437.499428 
L 731.985863 435.717904 
L 732.353619 435.663087 
L 732.721374 435.142334 
L 732.905252 434.621581 
L 733.456885 434.511949 
L 733.640763 434.347501 
L 734.008518 433.826747 
L 734.192396 433.799339 
L 734.560152 433.388218 
L 734.927907 433.278586 
L 735.111785 432.045223 
L 736.215051 431.908183 
L 736.582807 431.716327 
L 737.318318 431.634102 
L 737.502195 431.52447 
L 740.076484 430.894085 
L 740.444239 430.67482 
L 741.363628 430.565188 
L 742.099139 430.236291 
L 743.937917 429.907394 
L 744.673428 427.934014 
L 746.328327 427.742158 
L 747.431594 427.550301 
L 749.454249 427.13918 
L 750.18976 426.947324 
L 750.557515 426.892508 
L 750.925271 426.591019 
L 751.293026 426.508795 
L 751.476904 426.344346 
L 752.212415 426.125082 
L 753.131804 426.070266 
L 753.315682 425.878409 
L 753.683437 425.851001 
L 753.867315 425.43988 
L 754.051192 425.385064 
L 754.23507 424.809495 
L 756.993236 424.31615 
L 757.177114 423.987253 
L 758.464258 423.713172 
L 759.015892 423.548724 
L 759.751403 423.411684 
L 760.486914 423.247235 
L 761.59018 423.027971 
L 762.509569 422.75389 
L 763.24508 422.424994 
L 763.428957 421.876832 
L 764.348346 421.301263 
L 764.532224 421.05459 
L 765.451613 420.424205 
L 765.819368 419.848636 
L 766.003246 419.821228 
L 766.371001 419.245658 
L 767.106512 418.533049 
L 767.658146 418.450825 
L 768.025901 418.204152 
L 768.209779 418.121928 
L 768.393657 417.847847 
L 769.313045 417.655991 
L 769.496923 417.409318 
L 771.3357 417.10783 
L 771.519578 416.970789 
L 772.622845 416.778933 
L 773.542233 416.477444 
L 774.277744 416.340404 
L 774.6455 415.874467 
L 775.013255 415.68261 
L 775.932644 415.134449 
L 776.116522 414.504064 
L 777.035911 414.257391 
L 779.242443 413.243293 
L 779.426321 412.969212 
L 779.977954 412.804764 
L 780.897343 412.448459 
L 781.265099 409.625429 
L 781.448976 408.720963 
L 781.632854 407.076479 
L 781.816732 406.884622 
L 782.368365 405.157914 
L 782.919998 404.308265 
L 783.287754 404.089 
L 783.471632 403.924552 
L 783.655509 403.10231 
L 783.839387 402.855637 
L 784.207143 402.773413 
L 784.758776 402.11562 
L 784.942654 401.622274 
L 785.494287 401.046705 
L 785.678165 400.306688 
L 786.597553 399.018509 
L 787.516942 398.634796 
L 787.70082 397.922186 
L 788.252453 397.675514 
L 788.987964 396.962904 
L 789.171842 396.442151 
L 789.539597 396.277702 
L 789.907353 395.89399 
L 790.275108 395.866581 
L 790.458986 395.592501 
L 790.826741 395.428052 
L 791.378375 394.989523 
L 791.74613 394.797667 
L 791.930008 394.33173 
L 793.217152 393.48208 
L 793.40103 393.399856 
L 793.768785 392.413166 
L 794.320419 392.221309 
L 794.872052 392.084269 
L 795.239807 391.590924 
L 795.607563 391.344251 
L 796.159196 390.576826 
L 797.44634 390.275337 
L 797.997973 389.535319 
L 798.733484 389.398279 
L 799.652873 388.82271 
L 799.836751 388.795301 
L 800.388384 388.411589 
L 800.75614 388.301956 
L 801.123895 388.274548 
L 801.307773 388.1101 
L 801.491651 387.671571 
L 802.227162 387.479714 
L 802.411039 387.233042 
L 802.594917 387.205634 
L 802.778795 386.712289 
L 803.514306 386.493024 
L 803.882061 386.4108 
L 804.249817 386.164128 
L 806.272472 385.451518 
L 806.45635 384.738908 
L 806.824105 384.492236 
L 807.375738 384.327787 
L 807.927372 384.053707 
L 808.662883 383.944075 
L 808.84676 383.204057 
L 809.398394 382.984792 
L 809.582271 382.820344 
L 810.317782 382.683304 
L 810.50166 382.573671 
L 810.869415 382.546263 
L 811.053293 382.326999 
L 811.788804 382.107734 
L 811.972682 381.806246 
L 812.340437 381.778838 
L 812.892071 381.504757 
L 813.259826 381.340309 
L 813.443704 381.011412 
L 814.730848 380.682515 
L 814.914726 380.518067 
L 815.466359 380.381026 
L 815.650237 380.134354 
L 815.834115 380.106946 
L 816.20187 379.887681 
L 816.569626 379.750641 
L 816.753503 379.641009 
L 817.85677 379.421744 
L 818.040648 379.120256 
L 818.592281 378.983215 
L 819.143914 378.900991 
L 819.511669 378.654319 
L 820.063303 378.517278 
L 820.431058 378.407646 
L 820.614936 378.21579 
L 820.982691 378.160973 
L 821.166569 377.695036 
L 821.350447 377.612812 
L 822.269836 376.51649 
L 822.453713 376.434266 
L 822.637591 376.215001 
L 823.005347 376.050553 
L 823.740858 375.557208 
L 824.108613 375.447575 
L 824.292491 375.146087 
L 824.844124 374.872006 
L 825.21188 374.68015 
L 825.763513 374.543109 
L 826.315146 374.131988 
L 826.682902 373.885316 
L 827.050657 373.611235 
L 827.786168 373.145298 
L 829.25719 372.679361 
L 829.992701 372.158608 
L 830.544334 371.911935 
L 832.199234 371.363774 
L 832.566989 371.14451 
L 833.118623 371.007469 
L 833.670256 370.733389 
L 834.221889 370.596348 
L 834.773522 370.377084 
L 835.876789 370.130411 
L 836.428422 369.938555 
L 836.6123 369.664474 
L 839.00271 368.897048 
L 839.370466 368.7326 
L 839.738221 368.677784 
L 840.105977 368.321479 
L 840.289855 367.197749 
L 840.65761 366.923668 
L 841.025366 366.786628 
L 841.760877 366.04661 
L 841.944754 365.936978 
L 842.31251 365.224368 
L 842.680265 365.032512 
L 843.048021 364.868063 
L 843.415776 364.785839 
L 843.783532 364.566575 
L 843.967409 364.456942 
L 844.886798 364.265086 
L 845.254554 363.936189 
L 845.806187 363.552476 
L 846.173942 363.442844 
L 846.541698 363.113947 
L 847.644964 362.428746 
L 848.01272 362.401338 
L 848.196598 362.154665 
L 848.932109 361.990217 
L 849.115986 361.442056 
L 849.483742 361.167975 
L 850.403131 360.921302 
L 850.587008 360.839078 
L 850.770886 360.455365 
L 851.138642 360.345733 
L 851.322519 360.044244 
L 851.874152 359.68794 
L 852.241908 359.523491 
L 852.609663 359.441267 
L 852.977419 359.249411 
L 853.161297 359.222003 
L 853.529052 359.030146 
L 854.264563 358.673841 
L 854.632319 358.043456 
L 856.103341 357.41307 
L 856.287218 356.919725 
L 856.838852 356.755277 
L 857.390485 356.179708 
L 857.574363 356.124892 
L 857.942118 355.878219 
L 858.125996 355.850811 
L 858.493751 355.43969 
L 858.861507 355.247834 
L 859.597018 354.973753 
L 859.780895 354.699672 
L 860.148651 354.644856 
L 860.332529 354.453 
L 860.516406 354.425592 
L 860.700284 353.87743 
L 861.251917 353.712982 
L 861.435795 353.630758 
L 861.803551 353.301861 
L 861.987428 353.192229 
L 862.539062 352.589252 
L 864.010084 351.794418 
L 864.745595 351.575153 
L 865.11335 351.164032 
L 865.297228 351.109216 
L 866.216617 350.424015 
L 866.76825 350.20475 
L 867.136005 350.040302 
L 867.319883 350.012894 
L 867.503761 349.464733 
L 868.055394 349.135836 
L 868.239272 348.615083 
L 868.607027 348.395818 
L 868.790905 348.176554 
L 868.974783 348.149146 
L 869.710294 347.573576 
L 870.445805 347.299496 
L 870.81356 347.052823 
L 871.916827 346.614294 
L 872.652338 345.81946 
L 873.020093 345.737236 
L 873.387849 345.463155 
L 873.571726 345.271299 
L 873.755604 345.243891 
L 873.939482 344.942402 
L 876.329892 343.791264 
L 876.697648 343.599407 
L 877.249281 343.407551 
L 877.800914 343.270511 
L 879.088059 342.448269 
L 879.455814 342.311228 
L 879.82357 342.201596 
L 880.191325 341.872699 
L 881.662347 341.324538 
L 882.030103 341.214906 
L 882.21398 340.228216 
L 882.765614 340.008951 
L 882.949491 339.762279 
L 883.133369 339.734871 
L 883.86888 338.720772 
L 884.052758 338.638548 
L 884.236635 338.309651 
L 884.604391 338.200019 
L 885.339902 337.322961 
L 885.707657 336.089598 
L 885.891535 335.705885 
L 886.259291 333.787321 
L 886.443168 332.965079 
L 887.362557 332.033205 
L 888.098068 329.593888 
L 888.281946 329.456847 
L 888.465824 329.100542 
L 888.649701 327.812364 
L 888.833579 327.428651 
L 889.017457 327.401243 
L 889.201335 326.798265 
L 889.752968 326.496777 
L 890.304601 325.592311 
L 892.511134 324.441172 
L 893.062767 323.61893 
L 893.430523 323.509298 
L 893.798278 323.372257 
L 894.166034 323.180401 
L 894.533789 323.015953 
L 895.637056 322.741872 
L 896.9242 322.303343 
L 897.475833 321.809998 
L 898.027466 321.535917 
L 898.395222 321.344061 
L 898.5791 321.097388 
L 899.314611 320.850716 
L 899.498488 320.768492 
L 899.682366 320.165514 
L 900.233999 319.809209 
L 900.785632 319.617353 
L 900.96951 319.425497 
L 901.521143 319.23364 
L 902.808288 318.658071 
L 903.359921 318.164726 
L 903.543799 317.781013 
L 903.911554 317.643973 
L 904.463187 316.739506 
L 904.647065 316.218753 
L 905.014821 315.999489 
L 905.566454 315.670592 
L 905.750332 315.42392 
L 906.118087 314.355005 
L 906.301965 314.135741 
L 906.485843 313.560171 
L 906.66972 313.505355 
L 906.853598 313.039418 
L 907.221354 312.87497 
L 908.32462 312.02532 
L 908.508498 311.641607 
L 909.060131 311.449751 
L 910.163397 311.03863 
L 910.347275 311.011222 
L 910.531153 310.435652 
L 911.082786 310.216388 
L 912.737686 309.448962 
L 914.02483 308.544496 
L 914.208708 308.297823 
L 914.392586 307.804478 
L 915.495852 307.393357 
L 915.863608 306.982236 
L 916.231363 306.900012 
L 916.415241 306.571115 
L 916.782996 306.434075 
L 916.966874 306.159995 
L 918.989529 305.145896 
L 920.092796 304.049574 
L 920.276673 303.501413 
L 920.644429 303.035475 
L 920.828307 302.733987 
L 921.563818 299.527244 
L 921.931573 298.86945 
L 922.115451 298.540553 
L 922.299329 297.087926 
L 922.667084 293.223389 
L 922.850962 291.606314 
L 923.03484 291.250009 
L 923.402595 289.358853 
L 923.770351 286.672862 
L 924.138106 282.945366 
L 924.505862 282.479429 
L 924.873617 277.710426 
L 925.057495 276.449655 
L 925.42525 271.214716 
L 925.793006 270.200617 
L 925.976883 267.459811 
L 926.160761 266.966466 
L 926.528517 263.978987 
L 926.896272 255.921017 
L 927.08015 255.509896 
L 927.264028 254.74247 
L 927.447905 252.275745 
L 927.631783 252.083888 
L 927.999539 247.945271 
L 928.367294 247.753414 
L 928.73505 246.985989 
L 928.918927 246.82154 
L 929.102805 246.437827 
L 929.286683 245.670402 
L 929.654438 245.505953 
L 930.206072 244.053326 
L 930.573827 241.970313 
L 930.757705 241.586601 
L 930.941583 241.531784 
L 931.12546 241.339928 
L 931.493216 240.819175 
L 931.677094 239.969525 
L 931.860971 239.777668 
L 932.044849 239.421364 
L 932.228727 239.366547 
L 932.596482 238.873202 
L 932.964238 238.736162 
L 933.148116 238.325041 
L 934.067504 237.502799 
L 934.619137 237.06427 
L 934.803015 237.036862 
L 935.354648 236.543517 
L 936.090159 236.132396 
L 936.82567 235.995356 
L 937.009548 235.830907 
L 937.377304 235.776091 
L 937.928937 235.419787 
L 939.399959 234.789401 
L 939.583837 234.405688 
L 940.503225 234.186424 
L 941.238736 233.665671 
L 941.974247 232.980469 
L 942.158125 232.816021 
L 942.893636 232.596756 
L 944.18078 231.774514 
L 944.548536 231.582658 
L 944.732413 230.952272 
L 946.019558 230.102623 
L 946.571191 229.746318 
L 948.409968 229.0063 
L 948.777724 228.211466 
L 948.961602 228.129242 
L 949.329357 227.690713 
L 950.064868 227.060328 
L 950.248746 226.978103 
L 950.800379 226.32031 
L 950.984257 225.772149 
L 951.168134 225.635108 
L 951.53589 225.580292 
L 951.903645 225.306212 
L 952.639156 224.977315 
L 953.374667 224.648418 
L 953.742423 224.209889 
L 953.926301 224.182481 
L 954.110178 221.003146 
L 954.477934 220.564617 
L 954.845689 220.263128 
L 955.029567 219.934232 
L 955.213445 219.906823 
L 955.5812 219.550519 
L 955.765078 219.029765 
L 956.868345 217.988259 
L 957.052222 217.714179 
L 957.419978 216.179327 
L 957.603856 215.685982 
L 957.787733 214.86374 
L 957.971611 214.617068 
L 958.155489 213.575561 
L 958.523244 212.725911 
L 958.707122 212.068118 
L 959.442633 211.300692 
L 959.994266 210.670307 
L 960.362022 210.47845 
L 960.729777 210.34141 
L 961.649166 209.409536 
L 961.833044 209.025823 
L 962.016921 208.971007 
L 962.384677 208.614702 
L 962.568555 208.450254 
L 962.93631 207.79246 
L 963.304066 207.408747 
L 963.487943 206.504281 
L 964.775088 205.682039 
L 965.878354 204.339044 
L 966.062232 204.147188 
L 966.429987 203.27013 
L 966.613865 203.105681 
L 967.165498 201.954543 
L 967.349376 201.872319 
L 967.533254 201.378974 
L 967.717131 201.214525 
L 968.268765 199.73449 
L 968.820398 198.939656 
L 969.372031 198.638167 
L 969.739787 198.007782 
L 970.475298 197.32258 
L 970.843053 196.253666 
L 971.578564 194.198061 
L 971.762442 192.772842 
L 971.94632 192.553578 
L 972.130197 191.347623 
L 972.497953 190.854278 
L 972.681831 190.415749 
L 973.049586 188.332736 
L 973.417342 187.537902 
L 973.601219 187.373454 
L 973.785097 180.411806 
L 973.968975 177.780632 
L 974.152852 162.075813 
L 974.704486 161.006898 
L 974.888363 160.84245 
L 975.256119 159.554271 
L 975.623874 158.677213 
L 976.727141 152.099278 
L 977.278774 150.783691 
L 977.462652 149.221432 
L 977.830407 148.645862 
L 978.198163 147.357683 
L 978.382041 145.768016 
L 978.565918 145.384303 
L 978.933674 144.28798 
L 979.485307 143.438331 
L 979.669185 143.356106 
L 980.588574 140.039731 
L 981.140207 138.587104 
L 981.507962 136.668539 
L 981.69184 136.613723 
L 981.875718 136.421867 
L 982.059596 136.394459 
L 982.427351 136.010746 
L 982.611229 135.325544 
L 983.34674 134.25663 
L 983.714495 133.187715 
L 983.898373 133.050675 
L 984.266128 132.173617 
L 984.633884 130.556541 
L 984.817762 130.309869 
L 985.001639 130.255053 
L 985.369395 128.500937 
L 985.553273 128.144632 
L 986.104906 125.979395 
L 986.288784 125.677906 
L 987.575928 120.936312 
L 987.759806 120.826679 
L 988.495317 116.85251 
L 988.679194 116.742878 
L 988.863072 116.441389 
L 990.334094 112.083508 
L 990.701849 110.603472 
L 991.253483 109.479742 
L 991.805116 106.903384 
L 992.724505 103.970721 
L 993.276138 101.394363 
L 993.643893 99.17431 
L 994.011649 98.297252 
L 994.74716 95.720895 
L 995.114915 94.597164 
L 995.298793 94.240859 
L 995.482671 92.404519 
L 995.666549 91.883766 
L 996.034304 89.773345 
L 996.218182 89.28 
L 996.218182 89.28 
" clip-path="url(#p574880d51b)" style="fill: none; stroke: #1f77b4; stroke-width: 1.5; stroke-linecap: square"/>
   </g>
   <g id="patch_3">
    <path d="M 144 512.64 
L 144 69.12 
" style="fill: none; stroke: #000000; stroke-width: 0.8; stroke-linejoin: miter; stroke-linecap: square"/>
   </g>
   <g id="patch_4">
    <path d="M 1036.8 512.64 
L 1036.8 69.12 
" style="fill: none; stroke: #000000; stroke-width: 0.8; stroke-linejoin: miter; stroke-linecap: square"/>
   </g>
   <g id="patch_5">
    <path d="M 144 512.64 
L 1036.8 512.64 
" style="fill: none; stroke: #000000; stroke-width: 0.8; stroke-linejoin: miter; stroke-linecap: square"/>
   </g>
   <g id="patch_6">
    <path d="M 144 69.12 
L 1036.8 69.12 
" style="fill: none; stroke: #000000; stroke-width: 0.8; stroke-linejoin: miter; stroke-linecap: square"/>
   </g>
   <g id="text_16">
    <!-- Number of AEDs in the OpenStreetMap database in Poland from first edition, day by day. As at: 2026-03-13 -->
    <g transform="translate(144 63.12) scale(0.14 -0.14)">
     <defs>
      <path id="DejaVuSans-4e" d="M 628 4666 
L 1478 4666 
L 3547 763 
L 3547 4666 
L 4159 4666 
L 4159 0 
L 3309 0 
L 1241 3903 
L 1241 0 
L 628 0 
L 628 4666 
z
" transform="scale(0.015625)"/>
      <path id="DejaVuSans-75" d="M 544 1381 
L 544 3500 
L 1119 3500 
L 1119 1403 
Q 1119 906 1312 657 
Q 1506 409 1894 409 
Q 2359 409 2629 706 
Q 2900 1003 2900 1516 
L 2900 3500 
L 3475 3500 
L 3475 0 
L 2900 0 
L 2900 538 
Q 2691 219 2414 64 
Q 2138 -91 1772 -91 
Q 1169 -91 856 284 
Q 544 659 544 1381 
z
M 1991 3584 
L 1991 3584 
z
" transform="scale(0.015625)"/>
      <path id="DejaVuSans-6d" d="M 3328 2828 
Q 3544 3216 3844 3400 
Q 4144 3584 4550 3584 
Q 5097 3584 5394 3201 
Q 5691 2819 5691 2113 
L 5691 0 
L 5113 0 
L 5113 2094 
Q 5113 2597 4934 2840 
Q 4756 3084 4391 3084 
Q 3944 3084 3684 2787 
Q 3425 2491 3425 1978 
L 3425 0 
L 2847 0 
L 2847 2094 
Q 2847 2600 2669 2842 
Q 2491 3084 2119 3084 
Q 1678 3084 1418 2786 
Q 1159 2488 1159 1978 
L 1159 0 
L 581 0 
L 581 3500 
L 1159 3500 
L 1159 2956 
Q 1356 3278 1631 3431 
Q 1906 3584 2284 3584 
Q 2666 3584 2933 3390 
Q 3200 3197 3328 2828 
z
" transform="scale(0.015625)"/>
      <path id="DejaVuSans-62" d="M 3116 1747 
Q 3116 2381 2855 2742 
Q 2594 3103 2138 3103 
Q 1681 3103 1420 2742 
Q 1159 2381 1159 1747 
Q 1159 1113 1420 752 
Q 1681 391 2138 391 
Q 2594 391 2855 752 
Q 3116 1113 3116 1747 
z
M 1159 2969 
Q 1341 3281 1617 3432 
Q 1894 3584 2278 3584 
Q 2916 3584 3314 3078 
Q 3713 2572 3713 1747 
Q 3713 922 3314 415 
Q 2916 -91 2278 -91 
Q 1894 -91 1617 61 
Q 1341 213 1159 525 
L 1159 0 
L 581 0 
L 581 4863 
L 1159 4863 
L 1159 2969 
z
" transform="scale(0.015625)"/>
      <path id="DejaVuSans-65" d="M 3597 1894 
L 3597 1613 
L 953 1613 
Q 991 1019 1311 708 
Q 1631 397 2203 397 
Q 2534 397 2845 478 
Q 3156 559 3463 722 
L 3463 178 
Q 3153 47 2828 -22 
Q 2503 -91 2169 -91 
Q 1331 -91 842 396 
Q 353 884 353 1716 
Q 353 2575 817 3079 
Q 1281 3584 2069 3584 
Q 2775 3584 3186 3129 
Q 3597 2675 3597 1894 
z
M 3022 2063 
Q 3016 2534 2758 2815 
Q 2500 3097 2075 3097 
Q 1594 3097 1305 2825 
Q 1016 2553 972 2059 
L 3022 2063 
z
" transform="scale(0.015625)"/>
      <path id="DejaVuSans-72" d="M 2631 2963 
Q 2534 3019 2420 3045 
Q 2306 3072 2169 3072 
Q 1681 3072 1420 2755 
Q 1159 2438 1159 1844 
L 1159 0 
L 581 0 
L 581 3500 
L 1159 3500 
L 1159 2956 
Q 1341 3275 1631 3429 
Q 1922 3584 2338 3584 
Q 2397 3584 2469 3576 
Q 2541 3569 2628 3553 
L 2631 2963 
z
" transform="scale(0.015625)"/>
      <path id="DejaVuSans-20" transform="scale(0.015625)"/>
      <path id="DejaVuSans-6f" d="M 1959 3097 
Q 1497 3097 1228 2736 
Q 959 2375 959 1747 
Q 959 1119 1226 758 
Q 1494 397 1959 397 
Q 2419 397 2687 759 
Q 2956 1122 2956 1747 
Q 2956 2369 2687 2733 
Q 2419 3097 1959 3097 
z
M 1959 3584 
Q 2709 3584 3137 3096 
Q 3566 2609 3566 1747 
Q 3566 888 3137 398 
Q 2709 -91 1959 -91 
Q 1206 -91 779 398 
Q 353 888 353 1747 
Q 353 2609 779 3096 
Q 1206 3584 1959 3584 
z
" transform="scale(0.015625)"/>
      <path id="DejaVuSans-66" d="M 2375 4863 
L 2375 4384 
L 1825 4384 
Q 1516 4384 1395 4259 
Q 1275 4134 1275 3809 
L 1275 3500 
L 2222 3500 
L 2222 3053 
L 1275 3053 
L 1275 0 
L 697 0 
L 697 3053 
L 147 3053 
L 147 3500 
L 697 3500 
L 697 3744 
Q 697 4328 969 4595 
Q 1241 4863 1831 4863 
L 2375 4863 
z
" transform="scale(0.015625)"/>
      <path id="DejaVuSans-41" d="M 2188 4044 
L 1331 1722 
L 3047 1722 
L 2188 4044 
z
M 1831 4666 
L 2547 4666 
L 4325 0 
L 3669 0 
L 3244 1197 
L 1141 1197 
L 716 0 
L 50 0 
L 1831 4666 
z
" transform="scale(0.015625)"/>
      <path id="DejaVuSans-45" d="M 628 4666 
L 3578 4666 
L 3578 4134 
L 1259 4134 
L 1259 2753 
L 3481 2753 
L 3481 2222 
L 1259 2222 
L 1259 531 
L 3634 531 
L 3634 0 
L 628 0 
L 628 4666 
z
" transform="scale(0.015625)"/>
      <path id="DejaVuSans-44" d="M 1259 4147 
L 1259 519 
L 2022 519 
Q 2988 519 3436 956 
Q 3884 1394 3884 2338 
Q 3884 3275 3436 3711 
Q 2988 4147 2022 4147 
L 1259 4147 
z
M 628 4666 
L 1925 4666 
Q 3281 4666 3915 4102 
Q 4550 3538 4550 2338 
Q 4550 1131 3912 565 
Q 3275 0 1925 0 
L 628 0 
L 628 4666 
z
" transform="scale(0.015625)"/>
      <path id="DejaVuSans-73" d="M 2834 3397 
L 2834 2853 
Q 2591 2978 2328 3040 
Q 2066 3103 1784 3103 
Q 1356 3103 1142 2972 
Q 928 2841 928 2578 
Q 928 2378 1081 2264 
Q 1234 2150 1697 2047 
L 1894 2003 
Q 2506 1872 2764 1633 
Q 3022 1394 3022 966 
Q 3022 478 2636 193 
Q 2250 -91 1575 -91 
Q 1294 -91 989 -36 
Q 684 19 347 128 
L 347 722 
Q 666 556 975 473 
Q 1284 391 1588 391 
Q 1994 391 2212 530 
Q 2431 669 2431 922 
Q 2431 1156 2273 1281 
Q 2116 1406 1581 1522 
L 1381 1569 
Q 847 1681 609 1914 
Q 372 2147 372 2553 
Q 372 3047 722 3315 
Q 1072 3584 1716 3584 
Q 2034 3584 2315 3537 
Q 2597 3491 2834 3397 
z
" transform="scale(0.015625)"/>
      <path id="DejaVuSans-69" d="M 603 3500 
L 1178 3500 
L 1178 0 
L 603 0 
L 603 3500 
z
M 603 4863 
L 1178 4863 
L 1178 4134 
L 603 4134 
L 603 4863 
z
" transform="scale(0.015625)"/>
      <path id="DejaVuSans-6e" d="M 3513 2113 
L 3513 0 
L 2938 0 
L 2938 2094 
Q 2938 2591 2744 2837 
Q 2550 3084 2163 3084 
Q 1697 3084 1428 2787 
Q 1159 2491 1159 1978 
L 1159 0 
L 581 0 
L 581 3500 
L 1159 3500 
L 1159 2956 
Q 1366 3272 1645 3428 
Q 1925 3584 2291 3584 
Q 2894 3584 3203 3211 
Q 3513 2838 3513 2113 
z
" transform="scale(0.015625)"/>
      <path id="DejaVuSans-74" d="M 1172 4494 
L 1172 3500 
L 2356 3500 
L 2356 3053 
L 1172 3053 
L 1172 1153 
Q 1172 725 1289 603 
Q 1406 481 1766 481 
L 2356 481 
L 2356 0 
L 1766 0 
Q 1100 0 847 248 
Q 594 497 594 1153 
L 594 3053 
L 172 3053 
L 172 3500 
L 594 3500 
L 594 4494 
L 1172 4494 
z
" transform="scale(0.015625)"/>
      <path id="DejaVuSans-68" d="M 3513 2113 
L 3513 0 
L 2938 0 
L 2938 2094 
Q 2938 2591 2744 2837 
Q 2550 3084 2163 3084 
Q 1697 3084 1428 2787 
Q 1159 2491 1159 1978 
L 1159 0 
L 581 0 
L 581 4863 
L 1159 4863 
L 1159 2956 
Q 1366 3272 1645 3428 
Q 1925 3584 2291 3584 
Q 2894 3584 3203 3211 
Q 3513 2838 3513 2113 
z
" transform="scale(0.015625)"/>
      <path id="DejaVuSans-4f" d="M 2522 4238 
Q 1834 4238 1429 3725 
Q 1025 3213 1025 2328 
Q 1025 1447 1429 934 
Q 1834 422 2522 422 
Q 3209 422 3611 934 
Q 4013 1447 4013 2328 
Q 4013 3213 3611 3725 
Q 3209 4238 2522 4238 
z
M 2522 4750 
Q 3503 4750 4090 4092 
Q 4678 3434 4678 2328 
Q 4678 1225 4090 567 
Q 3503 -91 2522 -91 
Q 1538 -91 948 565 
Q 359 1222 359 2328 
Q 359 3434 948 4092 
Q 1538 4750 2522 4750 
z
" transform="scale(0.015625)"/>
      <path id="DejaVuSans-70" d="M 1159 525 
L 1159 -1331 
L 581 -1331 
L 581 3500 
L 1159 3500 
L 1159 2969 
Q 1341 3281 1617 3432 
Q 1894 3584 2278 3584 
Q 2916 3584 3314 3078 
Q 3713 2572 3713 1747 
Q 3713 922 3314 415 
Q 2916 -91 2278 -91 
Q 1894 -91 1617 61 
Q 1341 213 1159 525 
z
M 3116 1747 
Q 3116 2381 2855 2742 
Q 2594 3103 2138 3103 
Q 1681 3103 1420 2742 
Q 1159 2381 1159 1747 
Q 1159 1113 1420 752 
Q 1681 391 2138 391 
Q 2594 391 2855 752 
Q 3116 1113 3116 1747 
z
" transform="scale(0.015625)"/>
      <path id="DejaVuSans-53" d="M 3425 4513 
L 3425 3897 
Q 3066 4069 2747 4153 
Q 2428 4238 2131 4238 
Q 1616 4238 1336 4038 
Q 1056 3838 1056 3469 
Q 1056 3159 1242 3001 
Q 1428 2844 1947 2747 
L 2328 2669 
Q 3034 2534 3370 2195 
Q 3706 1856 3706 1288 
Q 3706 609 3251 259 
Q 2797 -91 1919 -91 
Q 1588 -91 1214 -16 
Q 841 59 441 206 
L 441 856 
Q 825 641 1194 531 
Q 1563 422 1919 422 
Q 2459 422 2753 634 
Q 3047 847 3047 1241 
Q 3047 1584 2836 1778 
Q 2625 1972 2144 2069 
L 1759 2144 
Q 1053 2284 737 2584 
Q 422 2884 422 3419 
Q 422 4038 858 4394 
Q 1294 4750 2059 4750 
Q 2388 4750 2728 4690 
Q 3069 4631 3425 4513 
z
" transform="scale(0.015625)"/>
      <path id="DejaVuSans-4d" d="M 628 4666 
L 1569 4666 
L 2759 1491 
L 3956 4666 
L 4897 4666 
L 4897 0 
L 4281 0 
L 4281 4097 
L 3078 897 
L 2444 897 
L 1241 4097 
L 1241 0 
L 628 0 
L 628 4666 
z
" transform="scale(0.015625)"/>
      <path id="DejaVuSans-61" d="M 2194 1759 
Q 1497 1759 1228 1600 
Q 959 1441 959 1056 
Q 959 750 1161 570 
Q 1363 391 1709 391 
Q 2188 391 2477 730 
Q 2766 1069 2766 1631 
L 2766 1759 
L 2194 1759 
z
M 3341 1997 
L 3341 0 
L 2766 0 
L 2766 531 
Q 2569 213 2275 61 
Q 1981 -91 1556 -91 
Q 1019 -91 701 211 
Q 384 513 384 1019 
Q 384 1609 779 1909 
Q 1175 2209 1959 2209 
L 2766 2209 
L 2766 2266 
Q 2766 2663 2505 2880 
Q 2244 3097 1772 3097 
Q 1472 3097 1187 3025 
Q 903 2953 641 2809 
L 641 3341 
Q 956 3463 1253 3523 
Q 1550 3584 1831 3584 
Q 2591 3584 2966 3190 
Q 3341 2797 3341 1997 
z
" transform="scale(0.015625)"/>
      <path id="DejaVuSans-64" d="M 2906 2969 
L 2906 4863 
L 3481 4863 
L 3481 0 
L 2906 0 
L 2906 525 
Q 2725 213 2448 61 
Q 2172 -91 1784 -91 
Q 1150 -91 751 415 
Q 353 922 353 1747 
Q 353 2572 751 3078 
Q 1150 3584 1784 3584 
Q 2172 3584 2448 3432 
Q 2725 3281 2906 2969 
z
M 947 1747 
Q 947 1113 1208 752 
Q 1469 391 1925 391 
Q 2381 391 2643 752 
Q 2906 1113 2906 1747 
Q 2906 2381 2643 2742 
Q 2381 3103 1925 3103 
Q 1469 3103 1208 2742 
Q 947 2381 947 1747 
z
" transform="scale(0.015625)"/>
      <path id="DejaVuSans-50" d="M 1259 4147 
L 1259 2394 
L 2053 2394 
Q 2494 2394 2734 2622 
Q 2975 2850 2975 3272 
Q 2975 3691 2734 3919 
Q 2494 4147 2053 4147 
L 1259 4147 
z
M 628 4666 
L 2053 4666 
Q 2838 4666 3239 4311 
Q 3641 3956 3641 3272 
Q 3641 2581 3239 2228 
Q 2838 1875 2053 1875 
L 1259 1875 
L 1259 0 
L 628 0 
L 628 4666 
z
" transform="scale(0.015625)"/>
      <path id="DejaVuSans-6c" d="M 603 4863 
L 1178 4863 
L 1178 0 
L 603 0 
L 603 4863 
z
" transform="scale(0.015625)"/>
      <path id="DejaVuSans-2c" d="M 750 794 
L 1409 794 
L 1409 256 
L 897 -744 
L 494 -744 
L 750 256 
L 750 794 
z
" transform="scale(0.015625)"/>
      <path id="DejaVuSans-79" d="M 2059 -325 
Q 1816 -950 1584 -1140 
Q 1353 -1331 966 -1331 
L 506 -1331 
L 506 -850 
L 844 -850 
Q 1081 -850 1212 -737 
Q 1344 -625 1503 -206 
L 1606 56 
L 191 3500 
L 800 3500 
L 1894 763 
L 2988 3500 
L 3597 3500 
L 2059 -325 
z
" transform="scale(0.015625)"/>
      <path id="DejaVuSans-2e" d="M 684 794 
L 1344 794 
L 1344 0 
L 684 0 
L 684 794 
z
" transform="scale(0.015625)"/>
      <path id="DejaVuSans-3a" d="M 750 794 
L 1409 794 
L 1409 0 
L 750 0 
L 750 794 
z
M 750 3309 
L 1409 3309 
L 1409 2516 
L 750 2516 
L 750 3309 
z
" transform="scale(0.015625)"/>
      <path id="DejaVuSans-2d" d="M 313 2009 
L 1997 2009 
L 1997 1497 
L 313 1497 
L 313 2009 
z
" transform="scale(0.015625)"/>
      <path id="DejaVuSans-33" d="M 2597 2516 
Q 3050 2419 3304 2112 
Q 3559 1806 3559 1356 
Q 3559 666 3084 287 
Q 2609 -91 1734 -91 
Q 1441 -91 1130 -33 
Q 819 25 488 141 
L 488 750 
Q 750 597 1062 519 
Q 1375 441 1716 441 
Q 2309 441 2620 675 
Q 2931 909 2931 1356 
Q 2931 1769 2642 2001 
Q 2353 2234 1838 2234 
L 1294 2234 
L 1294 2753 
L 1863 2753 
Q 2328 2753 2575 2939 
Q 2822 3125 2822 3475 
Q 2822 3834 2567 4026 
Q 2313 4219 1838 4219 
Q 1578 4219 1281 4162 
Q 984 4106 628 3988 
L 628 4550 
Q 988 4650 1302 4700 
Q 1616 4750 1894 4750 
Q 2613 4750 3031 4423 
Q 3450 4097 3450 3541 
Q 3450 3153 3228 2886 
Q 3006 2619 2597 2516 
z
" transform="scale(0.015625)"/>
     </defs>
     <use xlink:href="#DejaVuSans-4e"/>
     <use xlink:href="#DejaVuSans-75" x="74.804688"/>
     <use xlink:href="#DejaVuSans-6d" x="138.183594"/>
     <use xlink:href="#DejaVuSans-62" x="235.595703"/>
     <use xlink:href="#DejaVuSans-65" x="299.072266"/>
     <use xlink:href="#DejaVuSans-72" x="360.595703"/>
     <use xlink:href="#DejaVuSans-20" x="401.708984"/>
     <use xlink:href="#DejaVuSans-6f" x="433.496094"/>
     <use xlink:href="#DejaVuSans-66" x="494.677734"/>
     <use xlink:href="#DejaVuSans-20" x="529.882812"/>
     <use xlink:href="#DejaVuSans-41" x="561.669922"/>
     <use xlink:href="#DejaVuSans-45" x="630.078125"/>
     <use xlink:href="#DejaVuSans-44" x="693.261719"/>
     <use xlink:href="#DejaVuSans-73" x="770.263672"/>
     <use xlink:href="#DejaVuSans-20" x="822.363281"/>
     <use xlink:href="#DejaVuSans-69" x="854.150391"/>
     <use xlink:href="#DejaVuSans-6e" x="881.933594"/>
     <use xlink:href="#DejaVuSans-20" x="945.3125"/>
     <use xlink:href="#DejaVuSans-74" x="977.099609"/>
     <use xlink:href="#DejaVuSans-68" x="1016.308594"/>
     <use xlink:href="#DejaVuSans-65" x="1079.6875"/>
     <use xlink:href="#DejaVuSans-20" x="1141.210938"/>
     <use xlink:href="#DejaVuSans-4f" x="1172.998047"/>
     <use xlink:href="#DejaVuSans-70" x="1251.708984"/>
     <use xlink:href="#DejaVuSans-65" x="1315.185547"/>
     <use xlink:href="#DejaVuSans-6e" x="1376.708984"/>
     <use xlink:href="#DejaVuSans-53" x="1440.087891"/>
     <use xlink:href="#DejaVuSans-74" x="1503.564453"/>
     <use xlink:href="#DejaVuSans-72" x="1542.773438"/>
     <use xlink:href="#DejaVuSans-65" x="1581.636719"/>
     <use xlink:href="#DejaVuSans-65" x="1643.160156"/>
     <use xlink:href="#DejaVuSans-74" x="1704.683594"/>
     <use xlink:href="#DejaVuSans-4d" x="1743.892578"/>
     <use xlink:href="#DejaVuSans-61" x="1830.171875"/>
     <use xlink:href="#DejaVuSans-70" x="1891.451172"/>
     <use xlink:href="#DejaVuSans-20" x="1954.927734"/>
     <use xlink:href="#DejaVuSans-64" x="1986.714844"/>
     <use xlink:href="#DejaVuSans-61" x="2050.191406"/>
     <use xlink:href="#DejaVuSans-74" x="2111.470703"/>
     <use xlink:href="#DejaVuSans-61" x="2150.679688"/>
     <use xlink:href="#DejaVuSans-62" x="2211.958984"/>
     <use xlink:href="#DejaVuSans-61" x="2275.435547"/>
     <use xlink:href="#DejaVuSans-73" x="2336.714844"/>
     <use xlink:href="#DejaVuSans-65" x="2388.814453"/>
     <use xlink:href="#DejaVuSans-20" x="2450.337891"/>
     <use xlink:href="#DejaVuSans-69" x="2482.125"/>
     <use xlink:href="#DejaVuSans-6e" x="2509.908203"/>
     <use xlink:href="#DejaVuSans-20" x="2573.287109"/>
     <use xlink:href="#DejaVuSans-50" x="2605.074219"/>
     <use xlink:href="#DejaVuSans-6f" x="2661.751953"/>
     <use xlink:href="#DejaVuSans-6c" x="2722.933594"/>
     <use xlink:href="#DejaVuSans-61" x="2750.716797"/>
     <use xlink:href="#DejaVuSans-6e" x="2811.996094"/>
     <use xlink:href="#DejaVuSans-64" x="2875.375"/>
     <use xlink:href="#DejaVuSans-20" x="2938.851562"/>
     <use xlink:href="#DejaVuSans-66" x="2970.638672"/>
     <use xlink:href="#DejaVuSans-72" x="3005.84375"/>
     <use xlink:href="#DejaVuSans-6f" x="3044.707031"/>
     <use xlink:href="#DejaVuSans-6d" x="3105.888672"/>
     <use xlink:href="#DejaVuSans-20" x="3203.300781"/>
     <use xlink:href="#DejaVuSans-66" x="3235.087891"/>
     <use xlink:href="#DejaVuSans-69" x="3270.292969"/>
     <use xlink:href="#DejaVuSans-72" x="3298.076172"/>
     <use xlink:href="#DejaVuSans-73" x="3339.189453"/>
     <use xlink:href="#DejaVuSans-74" x="3391.289062"/>
     <use xlink:href="#DejaVuSans-20" x="3430.498047"/>
     <use xlink:href="#DejaVuSans-65" x="3462.285156"/>
     <use xlink:href="#DejaVuSans-64" x="3523.808594"/>
     <use xlink:href="#DejaVuSans-69" x="3587.285156"/>
     <use xlink:href="#DejaVuSans-74" x="3615.068359"/>
     <use xlink:href="#DejaVuSans-69" x="3654.277344"/>
     <use xlink:href="#DejaVuSans-6f" x="3682.060547"/>
     <use xlink:href="#DejaVuSans-6e" x="3743.242188"/>
     <use xlink:href="#DejaVuSans-2c" x="3806.621094"/>
     <use xlink:href="#DejaVuSans-20" x="3838.408203"/>
     <use xlink:href="#DejaVuSans-64" x="3870.195312"/>
     <use xlink:href="#DejaVuSans-61" x="3933.671875"/>
     <use xlink:href="#DejaVuSans-79" x="3994.951172"/>
     <use xlink:href="#DejaVuSans-20" x="4054.130859"/>
     <use xlink:href="#DejaVuSans-62" x="4085.917969"/>
     <use xlink:href="#DejaVuSans-79" x="4149.394531"/>
     <use xlink:href="#DejaVuSans-20" x="4208.574219"/>
     <use xlink:href="#DejaVuSans-64" x="4240.361328"/>
     <use xlink:href="#DejaVuSans-61" x="4303.837891"/>
     <use xlink:href="#DejaVuSans-79" x="4365.117188"/>
     <use xlink:href="#DejaVuSans-2e" x="4410.046875"/>
     <use xlink:href="#DejaVuSans-20" x="4441.833984"/>
     <use xlink:href="#DejaVuSans-41" x="4473.621094"/>
     <use xlink:href="#DejaVuSans-73" x="4542.029297"/>
     <use xlink:href="#DejaVuSans-20" x="4594.128906"/>
     <use xlink:href="#DejaVuSans-61" x="4625.916016"/>
     <use xlink:href="#DejaVuSans-74" x="4687.195312"/>
     <use xlink:href="#DejaVuSans-3a" x="4726.404297"/>
     <use xlink:href="#DejaVuSans-20" x="4760.095703"/>
     <use xlink:href="#DejaVuSans-32" x="4791.882812"/>
     <use xlink:href="#DejaVuSans-30" x="4855.505859"/>
     <use xlink:href="#DejaVuSans-32" x="4919.128906"/>
     <use xlink:href="#DejaVuSans-36" x="4982.751953"/>
     <use xlink:href="#DejaVuSans-2d" x="5046.375"/>
     <use xlink:href="#DejaVuSans-30" x="5082.458984"/>
     <use xlink:href="#DejaVuSans-33" x="5146.082031"/>
     <use xlink:href="#DejaVuSans-2d" x="5209.705078"/>
     <use xlink:href="#DejaVuSans-31" x="5245.789062"/>
     <use xlink:href="#DejaVuSans-33" x="5309.412109"/>
    </g>
   </g>
  </g>
 </g>
 <defs>
  <clipPath id="p574880d51b">
   <rect x="144" y="69.12" width="892.8" height="443.52"/>
  </clipPath>
 </defs>
</svg>
