<?xml version="1.0" encoding="utf-8" standalone="no"?>
<!DOCTYPE svg PUBLIC "-//W3C//DTD SVG 1.1//EN"
  "http://www.w3.org/Graphics/SVG/1.1/DTD/svg11.dtd">
<svg xmlns:xlink="http://www.w3.org/1999/xlink" width="1152pt" height="576pt" viewBox="0 0 1152 576" xmlns="http://www.w3.org/2000/svg" version="1.1">
 <metadata>
  <rdf:RDF xmlns:dc="http://purl.org/dc/elements/1.1/" xmlns:cc="http://creativecommons.org/ns#" xmlns:rdf="http://www.w3.org/1999/02/22-rdf-syntax-ns#">
   <cc:Work>
    <dc:type rdf:resource="http://purl.org/dc/dcmitype/StillImage"/>
    <dc:date>1980-01-01T00:00:00+00:00</dc:date>
    <dc:format>image/svg+xml</dc:format>
    <dc:creator>
     <cc:Agent>
      <dc:title>Matplotlib v3.9.1, https://matplotlib.org/</dc:title>
     </cc:Agent>
    </dc:creator>
   </cc:Work>
  </rdf:RDF>
 </metadata>
 <defs>
  <style type="text/css">*{stroke-linejoin: round; stroke-linecap: butt}</style>
 </defs>
 <g id="figure_1">
  <g id="patch_1">
   <path d="M 0 576 
L 1152 576 
L 1152 0 
L 0 0 
z
" style="fill: #ffffff"/>
  </g>
  <g id="axes_1">
   <g id="patch_2">
    <path d="M 144 512.64 
L 1036.8 512.64 
L 1036.8 69.12 
L 144 69.12 
z
" style="fill: #ffffff"/>
   </g>
   <g id="matplotlib.axis_1">
    <g id="xtick_1">
     <g id="line2d_1">
      <defs>
       <path id="ma9f02b84e8" d="M 0 0 
L 0 3.5 
" style="stroke: #000000; stroke-width: 0.8"/>
      </defs>
      <g>
       <use xlink:href="#ma9f02b84e8" x="176.98756" y="512.64" style="stroke: #000000; stroke-width: 0.8"/>
      </g>
     </g>
     <g id="text_1">
      <!-- 2014 -->
      <g transform="translate(164.26256 527.238438) scale(0.1 -0.1)">
       <defs>
        <path id="DejaVuSans-32" d="M 1228 531 
L 3431 531 
L 3431 0 
L 469 0 
L 469 531 
Q 828 903 1448 1529 
Q 2069 2156 2228 2338 
Q 2531 2678 2651 2914 
Q 2772 3150 2772 3378 
Q 2772 3750 2511 3984 
Q 2250 4219 1831 4219 
Q 1534 4219 1204 4116 
Q 875 4013 500 3803 
L 500 4441 
Q 881 4594 1212 4672 
Q 1544 4750 1819 4750 
Q 2544 4750 2975 4387 
Q 3406 4025 3406 3419 
Q 3406 3131 3298 2873 
Q 3191 2616 2906 2266 
Q 2828 2175 2409 1742 
Q 1991 1309 1228 531 
z
" transform="scale(0.015625)"/>
        <path id="DejaVuSans-30" d="M 2034 4250 
Q 1547 4250 1301 3770 
Q 1056 3291 1056 2328 
Q 1056 1369 1301 889 
Q 1547 409 2034 409 
Q 2525 409 2770 889 
Q 3016 1369 3016 2328 
Q 3016 3291 2770 3770 
Q 2525 4250 2034 4250 
z
M 2034 4750 
Q 2819 4750 3233 4129 
Q 3647 3509 3647 2328 
Q 3647 1150 3233 529 
Q 2819 -91 2034 -91 
Q 1250 -91 836 529 
Q 422 1150 422 2328 
Q 422 3509 836 4129 
Q 1250 4750 2034 4750 
z
" transform="scale(0.015625)"/>
        <path id="DejaVuSans-31" d="M 794 531 
L 1825 531 
L 1825 4091 
L 703 3866 
L 703 4441 
L 1819 4666 
L 2450 4666 
L 2450 531 
L 3481 531 
L 3481 0 
L 794 0 
L 794 531 
z
" transform="scale(0.015625)"/>
        <path id="DejaVuSans-34" d="M 2419 4116 
L 825 1625 
L 2419 1625 
L 2419 4116 
z
M 2253 4666 
L 3047 4666 
L 3047 1625 
L 3713 1625 
L 3713 1100 
L 3047 1100 
L 3047 0 
L 2419 0 
L 2419 1100 
L 313 1100 
L 313 1709 
L 2253 4666 
z
" transform="scale(0.015625)"/>
       </defs>
       <use xlink:href="#DejaVuSans-32"/>
       <use xlink:href="#DejaVuSans-30" x="63.623047"/>
       <use xlink:href="#DejaVuSans-31" x="127.246094"/>
       <use xlink:href="#DejaVuSans-34" x="190.869141"/>
      </g>
     </g>
    </g>
    <g id="xtick_2">
     <g id="line2d_2">
      <g>
       <use xlink:href="#ma9f02b84e8" x="315.582775" y="512.64" style="stroke: #000000; stroke-width: 0.8"/>
      </g>
     </g>
     <g id="text_2">
      <!-- 2016 -->
      <g transform="translate(302.857775 527.238438) scale(0.1 -0.1)">
       <defs>
        <path id="DejaVuSans-36" d="M 2113 2584 
Q 1688 2584 1439 2293 
Q 1191 2003 1191 1497 
Q 1191 994 1439 701 
Q 1688 409 2113 409 
Q 2538 409 2786 701 
Q 3034 994 3034 1497 
Q 3034 2003 2786 2293 
Q 2538 2584 2113 2584 
z
M 3366 4563 
L 3366 3988 
Q 3128 4100 2886 4159 
Q 2644 4219 2406 4219 
Q 1781 4219 1451 3797 
Q 1122 3375 1075 2522 
Q 1259 2794 1537 2939 
Q 1816 3084 2150 3084 
Q 2853 3084 3261 2657 
Q 3669 2231 3669 1497 
Q 3669 778 3244 343 
Q 2819 -91 2113 -91 
Q 1303 -91 875 529 
Q 447 1150 447 2328 
Q 447 3434 972 4092 
Q 1497 4750 2381 4750 
Q 2619 4750 2861 4703 
Q 3103 4656 3366 4563 
z
" transform="scale(0.015625)"/>
       </defs>
       <use xlink:href="#DejaVuSans-32"/>
       <use xlink:href="#DejaVuSans-30" x="63.623047"/>
       <use xlink:href="#DejaVuSans-31" x="127.246094"/>
       <use xlink:href="#DejaVuSans-36" x="190.869141"/>
      </g>
     </g>
    </g>
    <g id="xtick_3">
     <g id="line2d_3">
      <g>
       <use xlink:href="#ma9f02b84e8" x="454.367847" y="512.64" style="stroke: #000000; stroke-width: 0.8"/>
      </g>
     </g>
     <g id="text_3">
      <!-- 2018 -->
      <g transform="translate(441.642847 527.238438) scale(0.1 -0.1)">
       <defs>
        <path id="DejaVuSans-38" d="M 2034 2216 
Q 1584 2216 1326 1975 
Q 1069 1734 1069 1313 
Q 1069 891 1326 650 
Q 1584 409 2034 409 
Q 2484 409 2743 651 
Q 3003 894 3003 1313 
Q 3003 1734 2745 1975 
Q 2488 2216 2034 2216 
z
M 1403 2484 
Q 997 2584 770 2862 
Q 544 3141 544 3541 
Q 544 4100 942 4425 
Q 1341 4750 2034 4750 
Q 2731 4750 3128 4425 
Q 3525 4100 3525 3541 
Q 3525 3141 3298 2862 
Q 3072 2584 2669 2484 
Q 3125 2378 3379 2068 
Q 3634 1759 3634 1313 
Q 3634 634 3220 271 
Q 2806 -91 2034 -91 
Q 1263 -91 848 271 
Q 434 634 434 1313 
Q 434 1759 690 2068 
Q 947 2378 1403 2484 
z
M 1172 3481 
Q 1172 3119 1398 2916 
Q 1625 2713 2034 2713 
Q 2441 2713 2670 2916 
Q 2900 3119 2900 3481 
Q 2900 3844 2670 4047 
Q 2441 4250 2034 4250 
Q 1625 4250 1398 4047 
Q 1172 3844 1172 3481 
z
" transform="scale(0.015625)"/>
       </defs>
       <use xlink:href="#DejaVuSans-32"/>
       <use xlink:href="#DejaVuSans-30" x="63.623047"/>
       <use xlink:href="#DejaVuSans-31" x="127.246094"/>
       <use xlink:href="#DejaVuSans-38" x="190.869141"/>
      </g>
     </g>
    </g>
    <g id="xtick_4">
     <g id="line2d_4">
      <g>
       <use xlink:href="#ma9f02b84e8" x="592.963062" y="512.64" style="stroke: #000000; stroke-width: 0.8"/>
      </g>
     </g>
     <g id="text_4">
      <!-- 2020 -->
      <g transform="translate(580.238062 527.238438) scale(0.1 -0.1)">
       <use xlink:href="#DejaVuSans-32"/>
       <use xlink:href="#DejaVuSans-30" x="63.623047"/>
       <use xlink:href="#DejaVuSans-32" x="127.246094"/>
       <use xlink:href="#DejaVuSans-30" x="190.869141"/>
      </g>
     </g>
    </g>
    <g id="xtick_5">
     <g id="line2d_5">
      <g>
       <use xlink:href="#ma9f02b84e8" x="731.748134" y="512.64" style="stroke: #000000; stroke-width: 0.8"/>
      </g>
     </g>
     <g id="text_5">
      <!-- 2022 -->
      <g transform="translate(719.023134 527.238438) scale(0.1 -0.1)">
       <use xlink:href="#DejaVuSans-32"/>
       <use xlink:href="#DejaVuSans-30" x="63.623047"/>
       <use xlink:href="#DejaVuSans-32" x="127.246094"/>
       <use xlink:href="#DejaVuSans-32" x="190.869141"/>
      </g>
     </g>
    </g>
    <g id="xtick_6">
     <g id="line2d_6">
      <g>
       <use xlink:href="#ma9f02b84e8" x="870.343349" y="512.64" style="stroke: #000000; stroke-width: 0.8"/>
      </g>
     </g>
     <g id="text_6">
      <!-- 2024 -->
      <g transform="translate(857.618349 527.238438) scale(0.1 -0.1)">
       <use xlink:href="#DejaVuSans-32"/>
       <use xlink:href="#DejaVuSans-30" x="63.623047"/>
       <use xlink:href="#DejaVuSans-32" x="127.246094"/>
       <use xlink:href="#DejaVuSans-34" x="190.869141"/>
      </g>
     </g>
    </g>
    <g id="xtick_7">
     <g id="line2d_7">
      <g>
       <use xlink:href="#ma9f02b84e8" x="1009.128421" y="512.64" style="stroke: #000000; stroke-width: 0.8"/>
      </g>
     </g>
     <g id="text_7">
      <!-- 2026 -->
      <g transform="translate(996.403421 527.238438) scale(0.1 -0.1)">
       <use xlink:href="#DejaVuSans-32"/>
       <use xlink:href="#DejaVuSans-30" x="63.623047"/>
       <use xlink:href="#DejaVuSans-32" x="127.246094"/>
       <use xlink:href="#DejaVuSans-36" x="190.869141"/>
      </g>
     </g>
    </g>
   </g>
   <g id="matplotlib.axis_2">
    <g id="ytick_1">
     <g id="line2d_8">
      <defs>
       <path id="md167678dc7" d="M 0 0 
L -3.5 0 
" style="stroke: #000000; stroke-width: 0.8"/>
      </defs>
      <g>
       <use xlink:href="#md167678dc7" x="144" y="492.512917" style="stroke: #000000; stroke-width: 0.8"/>
      </g>
     </g>
     <g id="text_8">
      <!-- 0 -->
      <g transform="translate(130.6375 496.312136) scale(0.1 -0.1)">
       <use xlink:href="#DejaVuSans-30"/>
      </g>
     </g>
    </g>
    <g id="ytick_2">
     <g id="line2d_9">
      <g>
       <use xlink:href="#md167678dc7" x="144" y="426.678971" style="stroke: #000000; stroke-width: 0.8"/>
      </g>
     </g>
     <g id="text_9">
      <!-- 2000 -->
      <g transform="translate(111.55 430.47819) scale(0.1 -0.1)">
       <use xlink:href="#DejaVuSans-32"/>
       <use xlink:href="#DejaVuSans-30" x="63.623047"/>
       <use xlink:href="#DejaVuSans-30" x="127.246094"/>
       <use xlink:href="#DejaVuSans-30" x="190.869141"/>
      </g>
     </g>
    </g>
    <g id="ytick_3">
     <g id="line2d_10">
      <g>
       <use xlink:href="#md167678dc7" x="144" y="360.845026" style="stroke: #000000; stroke-width: 0.8"/>
      </g>
     </g>
     <g id="text_10">
      <!-- 4000 -->
      <g transform="translate(111.55 364.644244) scale(0.1 -0.1)">
       <use xlink:href="#DejaVuSans-34"/>
       <use xlink:href="#DejaVuSans-30" x="63.623047"/>
       <use xlink:href="#DejaVuSans-30" x="127.246094"/>
       <use xlink:href="#DejaVuSans-30" x="190.869141"/>
      </g>
     </g>
    </g>
    <g id="ytick_4">
     <g id="line2d_11">
      <g>
       <use xlink:href="#md167678dc7" x="144" y="295.01108" style="stroke: #000000; stroke-width: 0.8"/>
      </g>
     </g>
     <g id="text_11">
      <!-- 6000 -->
      <g transform="translate(111.55 298.810299) scale(0.1 -0.1)">
       <use xlink:href="#DejaVuSans-36"/>
       <use xlink:href="#DejaVuSans-30" x="63.623047"/>
       <use xlink:href="#DejaVuSans-30" x="127.246094"/>
       <use xlink:href="#DejaVuSans-30" x="190.869141"/>
      </g>
     </g>
    </g>
    <g id="ytick_5">
     <g id="line2d_12">
      <g>
       <use xlink:href="#md167678dc7" x="144" y="229.177134" style="stroke: #000000; stroke-width: 0.8"/>
      </g>
     </g>
     <g id="text_12">
      <!-- 8000 -->
      <g transform="translate(111.55 232.976353) scale(0.1 -0.1)">
       <use xlink:href="#DejaVuSans-38"/>
       <use xlink:href="#DejaVuSans-30" x="63.623047"/>
       <use xlink:href="#DejaVuSans-30" x="127.246094"/>
       <use xlink:href="#DejaVuSans-30" x="190.869141"/>
      </g>
     </g>
    </g>
    <g id="ytick_6">
     <g id="line2d_13">
      <g>
       <use xlink:href="#md167678dc7" x="144" y="163.343189" style="stroke: #000000; stroke-width: 0.8"/>
      </g>
     </g>
     <g id="text_13">
      <!-- 10000 -->
      <g transform="translate(105.1875 167.142408) scale(0.1 -0.1)">
       <use xlink:href="#DejaVuSans-31"/>
       <use xlink:href="#DejaVuSans-30" x="63.623047"/>
       <use xlink:href="#DejaVuSans-30" x="127.246094"/>
       <use xlink:href="#DejaVuSans-30" x="190.869141"/>
       <use xlink:href="#DejaVuSans-30" x="254.492188"/>
      </g>
     </g>
    </g>
    <g id="ytick_7">
     <g id="line2d_14">
      <g>
       <use xlink:href="#md167678dc7" x="144" y="97.509243" style="stroke: #000000; stroke-width: 0.8"/>
      </g>
     </g>
     <g id="text_14">
      <!-- 12000 -->
      <g transform="translate(105.1875 101.308462) scale(0.1 -0.1)">
       <use xlink:href="#DejaVuSans-31"/>
       <use xlink:href="#DejaVuSans-32" x="63.623047"/>
       <use xlink:href="#DejaVuSans-30" x="127.246094"/>
       <use xlink:href="#DejaVuSans-30" x="190.869141"/>
       <use xlink:href="#DejaVuSans-30" x="254.492188"/>
      </g>
     </g>
    </g>
   </g>
   <g id="line2d_15">
    <path d="M 184.581818 492.48 
L 186.290526 492.414166 
L 288.623158 492.249581 
L 443.925742 492.084996 
L 495.566699 491.887494 
L 509.046507 491.788744 
L 541.322105 491.624159 
L 542.840957 491.558325 
L 551.574354 491.459574 
L 593.152919 491.262072 
L 599.228325 491.196238 
L 599.608038 490.932902 
L 603.595024 490.768317 
L 637.009761 490.63665 
L 640.80689 490.537899 
L 663.969378 490.340397 
L 678.018756 490.109978 
L 681.056459 490.011227 
L 690.359426 489.813725 
L 693.776842 489.64914 
L 694.726124 489.583306 
L 696.05512 489.418722 
L 705.16823 489.188303 
L 707.446507 489.122469 
L 713.71177 488.694548 
L 723.584306 488.464129 
L 728.900287 486.917032 
L 730.039426 486.851198 
L 730.798852 486.324526 
L 730.988708 485.534519 
L 731.368421 485.337017 
L 731.558278 485.3041 
L 731.748134 484.250757 
L 732.887273 483.789919 
L 733.266986 483.230331 
L 733.646699 482.999912 
L 733.836555 482.506157 
L 734.026411 481.584482 
L 734.406124 480.794475 
L 734.595981 479.774048 
L 734.785837 477.864864 
L 735.355407 476.449434 
L 735.545263 472.104394 
L 735.73512 470.359794 
L 735.924976 469.701455 
L 736.304689 465.323497 
L 736.494545 464.665158 
L 736.684402 463.019309 
L 736.874258 462.920558 
L 737.443828 460.748038 
L 737.633684 456.073828 
L 737.823541 455.645907 
L 738.203254 454.197561 
L 738.39311 454.09881 
L 738.582967 453.275885 
L 738.772823 449.918354 
L 738.962679 449.09543 
L 739.152536 449.029596 
L 739.342392 446.59374 
L 739.532249 446.132902 
L 739.911962 445.968317 
L 740.671388 443.466627 
L 741.0511 442.808288 
L 741.430813 440.899104 
L 741.62067 440.17493 
L 742.000383 435.006965 
L 742.569952 432.472359 
L 743.329378 432.077355 
L 744.088804 430.727759 
L 744.468517 430.661925 
L 744.84823 427.831065 
L 745.038086 427.798148 
L 745.417799 427.337311 
L 745.607656 426.086466 
L 745.987368 425.592711 
L 746.177225 425.296458 
L 746.367081 424.73687 
L 746.936651 424.506451 
L 747.126507 424.276032 
L 747.696077 422.23518 
L 747.885933 422.103512 
L 748.265646 421.576841 
L 749.025072 421.214754 
L 749.214928 419.898075 
L 749.404785 419.799324 
L 749.594641 419.568905 
L 749.784498 417.034298 
L 750.164211 416.968464 
L 750.543923 416.277208 
L 750.73378 415.618868 
L 751.303349 415.487201 
L 751.872919 414.466774 
L 752.062775 414.433857 
L 752.442488 413.907186 
L 752.822201 413.775518 
L 753.012057 410.780073 
L 754.151196 410.516738 
L 754.530909 410.253402 
L 755.290335 410.154651 
L 755.480191 409.990066 
L 757.758469 409.331727 
L 758.517895 408.805055 
L 759.467177 408.673387 
L 760.226603 408.278384 
L 762.125167 407.784629 
L 762.884593 405.019603 
L 763.833876 404.887935 
L 764.023732 404.822101 
L 765.542584 404.657517 
L 766.112153 404.460015 
L 766.30201 403.933343 
L 767.441148 403.768758 
L 768.96 403.242087 
L 769.339713 402.88 
L 769.719426 402.781249 
L 769.909282 402.55083 
L 770.668708 402.287494 
L 771.61799 402.188744 
L 771.807847 401.958325 
L 772.18756 401.925408 
L 772.377416 401.398736 
L 772.567273 401.332902 
L 772.757129 400.608729 
L 775.035407 400.114974 
L 775.604976 399.983306 
L 775.794833 399.588303 
L 777.123828 399.259133 
L 777.693397 399.061631 
L 778.452823 398.897046 
L 779.212249 398.699544 
L 780.161531 398.502043 
L 780.7311 398.337458 
L 782.060096 397.580367 
L 782.249952 396.922028 
L 783.199234 396.164938 
L 783.389091 395.868685 
L 784.338373 395.078677 
L 784.718086 394.387421 
L 784.907943 394.354504 
L 785.287656 393.498663 
L 786.047081 392.642821 
L 786.616651 392.544071 
L 786.806507 392.247818 
L 787.18622 392.083233 
L 787.376077 391.754063 
L 788.325359 391.523644 
L 788.515215 391.227392 
L 789.844211 390.931139 
L 790.223923 390.766554 
L 790.41378 390.733637 
L 790.603636 390.569052 
L 791.552919 390.437384 
L 792.881914 389.844879 
L 793.451483 389.746128 
L 793.831196 389.021954 
L 794.210909 388.791536 
L 795.160191 388.067362 
L 795.350048 387.310272 
L 796.109474 387.079853 
L 797.248612 386.717766 
L 797.628325 386.191095 
L 798.577608 385.69734 
L 798.767464 385.36817 
L 799.337033 385.170669 
L 799.716746 384.907333 
L 800.286316 384.676914 
L 800.666029 381.056047 
L 800.855885 379.871036 
L 801.045742 377.830184 
L 801.235598 377.599765 
L 801.995024 375.065158 
L 802.374737 374.406819 
L 802.564593 374.340985 
L 802.944306 373.913064 
L 803.134163 372.4318 
L 803.324019 372.069713 
L 803.703732 371.938046 
L 804.842871 369.798442 
L 805.032727 369.633857 
L 805.222584 368.745099 
L 806.171866 367.132168 
L 806.741435 366.835915 
L 807.121148 366.539662 
L 807.311005 365.486319 
L 807.690718 365.321734 
L 808.070431 364.959647 
L 808.64 364.202557 
L 808.829856 363.511301 
L 809.019713 363.478384 
L 809.589282 362.852961 
L 809.968995 362.820044 
L 810.158852 362.490874 
L 810.538565 362.293373 
L 811.29799 361.470448 
L 811.487847 361.371697 
L 811.677703 360.812109 
L 813.196555 359.429596 
L 813.576268 358.145834 
L 814.715407 357.586245 
L 815.09512 356.927906 
L 815.284976 356.796238 
L 816.234258 355.380808 
L 816.613971 355.183306 
L 817.373397 355.051639 
L 817.942967 354.064129 
L 818.702392 353.866627 
L 819.461818 353.010786 
L 819.841531 352.944952 
L 820.221244 352.549949 
L 820.790813 352.31953 
L 821.170526 352.286613 
L 821.360383 352.089111 
L 821.550239 351.496605 
L 822.309665 351.266187 
L 822.499522 350.937017 
L 822.689378 350.9041 
L 822.879234 350.311594 
L 823.448804 350.081176 
L 824.018373 349.949508 
L 824.398086 349.620338 
L 825.347368 349.192417 
L 825.727081 348.896165 
L 826.106794 348.665746 
L 826.486507 348.632829 
L 826.676364 347.744071 
L 827.056077 347.447818 
L 827.435789 347.349067 
L 828.195215 346.888229 
L 828.954641 346.756561 
L 829.144498 345.834886 
L 830.473493 345.209464 
L 830.663349 345.176547 
L 830.853206 345.011962 
L 831.232919 344.946128 
L 831.422775 344.649875 
L 832.182201 344.353622 
L 832.372057 343.991536 
L 832.75177 343.958619 
L 833.131483 343.7282 
L 833.701053 343.431947 
L 833.890909 343.036943 
L 834.650335 342.806525 
L 834.840191 342.543189 
L 835.409761 342.246936 
L 835.97933 341.9836 
L 836.169187 341.687348 
L 836.359043 341.654431 
L 836.738756 341.391095 
L 837.118469 341.22651 
L 837.308325 341.029008 
L 838.447464 340.699838 
L 838.637321 340.337752 
L 838.827177 340.239001 
L 839.776459 340.041499 
L 840.156172 339.745246 
L 840.535885 339.613578 
L 841.105455 339.448993 
L 841.295311 339.185658 
L 841.675024 339.119824 
L 841.86488 338.560235 
L 842.054737 338.461484 
L 842.43445 338.033564 
L 842.624306 337.342307 
L 843.004019 337.111888 
L 844.143158 336.22313 
L 844.522871 335.861043 
L 844.902584 335.729375 
L 845.09244 335.367289 
L 845.282297 335.301455 
L 845.66201 334.906451 
L 846.041722 334.676032 
L 846.611292 334.511447 
L 846.991005 334.083527 
L 849.079426 332.371844 
L 850.028708 332.141425 
L 851.167847 330.989331 
L 851.54756 330.824747 
L 853.066411 330.232241 
L 853.825837 329.771403 
L 854.585263 329.442234 
L 855.154833 329.178898 
L 856.104115 328.783894 
L 856.863541 328.586392 
L 857.43311 328.191389 
L 857.622967 328.158472 
L 857.812823 327.829302 
L 859.141818 327.30263 
L 860.0911 326.775959 
L 861.230239 326.282204 
L 861.420096 325.854284 
L 861.609952 324.405937 
L 861.989665 324.04385 
L 862.179522 324.010933 
L 863.508517 322.002998 
L 863.88823 321.377575 
L 865.407081 320.488817 
L 865.786794 320.159647 
L 866.356364 319.962145 
L 866.736077 319.567142 
L 867.305646 319.106304 
L 867.685359 318.974636 
L 867.875215 318.61255 
L 868.444785 318.250463 
L 869.204211 317.690874 
L 869.583923 317.657957 
L 869.77378 317.361705 
L 870.343349 317.230037 
L 870.723062 315.880441 
L 871.102775 315.551271 
L 871.862201 315.287935 
L 872.241914 315.0246 
L 872.43177 314.563762 
L 872.811483 314.432094 
L 873.00134 313.971256 
L 873.191196 313.872506 
L 873.570909 313.477502 
L 873.760766 313.28 
L 874.330335 313.115415 
L 874.710048 312.819162 
L 874.899904 312.786245 
L 875.089761 312.588744 
L 875.279617 312.555827 
L 876.039043 312.094989 
L 876.418756 311.272065 
L 876.608612 311.173314 
L 876.988325 311.10748 
L 877.178182 310.745393 
L 877.557895 310.580808 
L 877.937608 310.383306 
L 878.127464 309.790801 
L 878.88689 309.36288 
L 879.076746 308.770375 
L 879.836172 308.144952 
L 880.026029 308.112035 
L 880.405742 307.618281 
L 880.785455 307.322028 
L 880.975311 307.256194 
L 881.165167 306.927024 
L 881.54488 306.795356 
L 881.734737 306.169934 
L 882.11445 306.071183 
L 882.304306 305.77493 
L 882.494163 305.709096 
L 882.684019 305.050757 
L 883.253589 304.853255 
L 883.443445 304.754504 
L 883.823158 304.227832 
L 884.013014 304.096165 
L 884.77244 303.042821 
L 884.962297 302.976988 
L 885.531866 302.450316 
L 885.911579 302.252814 
L 886.291292 302.022395 
L 886.860861 301.660309 
L 887.240574 301.166554 
L 887.430431 301.10072 
L 888.569569 300.146128 
L 888.759426 300.080294 
L 889.139139 299.68529 
L 889.518852 299.586539 
L 889.708708 298.862366 
L 890.278278 298.368611 
L 890.468134 297.710272 
L 890.847847 297.348185 
L 891.037703 297.051932 
L 891.22756 297.019015 
L 892.176842 296.163174 
L 892.366699 296.09734 
L 892.556555 295.899838 
L 892.746411 295.866921 
L 893.126124 295.570669 
L 894.265263 295.043997 
L 895.024689 293.990654 
L 895.784115 293.529816 
L 895.973971 293.299398 
L 896.163828 293.266481 
L 896.353684 292.904394 
L 897.11311 292.443556 
L 897.682679 292.015636 
L 898.442105 291.653549 
L 899.011675 291.192711 
L 899.960957 290.764791 
L 900.150813 290.731874 
L 901.669665 289.546863 
L 902.049378 289.382278 
L 902.429091 289.25061 
L 902.808804 288.855606 
L 903.188517 288.723938 
L 903.56823 288.59227 
L 903.947943 288.131433 
L 904.707368 287.83518 
L 904.897225 286.353916 
L 905.846507 285.695577 
L 906.605933 284.378898 
L 906.795789 284.280147 
L 906.985646 283.852226 
L 907.365359 283.720558 
L 908.124785 282.601381 
L 908.504498 281.087201 
L 908.694354 280.626363 
L 909.074067 278.223424 
L 909.263923 277.235915 
L 910.213206 276.050904 
L 910.972632 273.121293 
L 911.162488 272.956708 
L 911.352344 272.528788 
L 911.542201 270.948773 
L 911.732057 270.389184 
L 911.921914 270.356267 
L 912.11177 269.632094 
L 912.68134 269.204173 
L 913.061053 268.019162 
L 914.010335 267.525408 
L 914.390048 267.130404 
L 915.529187 266.340397 
L 915.719043 265.97831 
L 915.9089 265.122469 
L 916.098756 264.793299 
L 916.478469 264.661631 
L 917.617608 264.003292 
L 918.377033 263.772873 
L 918.756746 263.575371 
L 918.946603 263.443703 
L 919.326316 263.410786 
L 921.79445 261.238266 
L 922.174163 261.139515 
L 922.553876 260.909096 
L 922.743732 260.810345 
L 922.933589 260.020338 
L 923.503158 259.5595 
L 923.882871 259.460749 
L 925.02201 258.571991 
L 925.401722 258.407406 
L 925.591579 258.341572 
L 925.971292 257.946569 
L 926.351005 257.880735 
L 926.540861 257.419897 
L 926.730718 257.255312 
L 926.920574 256.728641 
L 927.300287 256.531139 
L 927.869856 255.346128 
L 928.059713 254.687788 
L 928.629282 254.292785 
L 929.198852 253.568611 
L 929.578565 252.284849 
L 929.768421 251.95568 
L 929.958278 251.264423 
L 930.148134 251.198589 
L 930.33799 250.639001 
L 930.717703 250.408582 
L 931.856842 249.289405 
L 932.046699 248.828567 
L 932.616268 248.565231 
L 932.806124 248.104394 
L 933.945263 247.643556 
L 934.13512 246.9523 
L 934.514833 246.721881 
L 934.704689 246.326877 
L 934.894545 246.195209 
L 935.274258 246.162292 
L 936.413397 245.306451 
L 936.982967 244.87853 
L 937.362679 244.45061 
L 937.742392 244.154357 
L 937.932249 243.825187 
L 938.122105 243.101014 
L 939.261244 242.508508 
L 939.640957 241.751418 
L 940.02067 241.61975 
L 940.210526 241.158913 
L 940.400383 241.093079 
L 941.159809 240.303071 
L 942.109091 239.710566 
L 943.627943 238.262219 
L 944.007656 237.505129 
L 944.197512 236.748038 
L 944.577225 236.155533 
L 944.767081 235.760529 
L 945.716364 231.053402 
L 946.096077 230.362145 
L 946.285933 228.617546 
L 946.475789 225.194181 
L 947.804785 215.352006 
L 948.184498 210.875298 
L 948.564211 210.184041 
L 948.943923 204.357737 
L 949.13378 202.810639 
L 949.513493 196.260162 
L 949.893206 195.042234 
L 950.083062 191.717619 
L 950.272919 191.125114 
L 950.652632 187.438413 
L 951.032344 177.596238 
L 951.222201 177.069566 
L 951.412057 176.147891 
L 951.601914 173.053696 
L 951.79177 172.79036 
L 952.171483 167.819897 
L 952.36134 167.721146 
L 952.551196 167.391976 
L 952.930909 166.239882 
L 953.120766 166.009464 
L 953.310622 165.449875 
L 953.500478 164.396532 
L 953.880191 164.19903 
L 954.070048 163.672359 
L 954.449761 162.02651 
L 954.829474 158.965231 
L 955.01933 158.43856 
L 955.209187 158.372726 
L 955.399043 158.076473 
L 956.348325 155.27853 
L 956.538182 155.17978 
L 956.728038 154.52144 
L 957.107751 154.19227 
L 957.297608 154.060602 
L 957.487464 153.566848 
L 957.677321 153.402263 
L 958.24689 152.612256 
L 958.816459 151.789331 
L 959.196172 151.657663 
L 960.145455 150.472652 
L 960.525167 150.308068 
L 961.094737 150.242234 
L 961.47445 149.748479 
L 961.854163 149.649728 
L 962.613589 148.991389 
L 962.803445 148.826804 
L 963.373014 148.464717 
L 963.942584 147.740544 
L 964.13244 147.246789 
L 964.891866 147.049287 
L 965.271579 146.720118 
L 965.651292 146.094695 
L 966.220861 145.568024 
L 966.600574 144.251345 
L 966.790431 144.020926 
L 967.549856 143.724673 
L 968.688995 142.67133 
L 969.258565 142.276326 
L 969.448421 141.486319 
L 970.207847 140.860896 
L 970.397703 140.49881 
L 970.777416 140.268391 
L 971.157129 140.005055 
L 972.296268 139.149214 
L 973.055694 138.75421 
L 973.24555 138.655459 
L 973.625263 137.536282 
L 973.81512 137.437531 
L 974.194833 136.877943 
L 974.764402 136.087935 
L 975.144115 135.92335 
L 975.713684 134.935841 
L 975.903541 134.211668 
L 976.093397 133.948332 
L 976.47311 133.816664 
L 976.662967 133.421661 
L 978.371675 132.137899 
L 978.751388 131.446642 
L 978.941244 131.347891 
L 979.1311 127.364938 
L 979.510813 126.706598 
L 979.890526 126.179927 
L 980.080383 125.752006 
L 980.270239 125.719089 
L 980.649952 125.225334 
L 980.839809 124.534078 
L 981.978947 123.118648 
L 982.168804 122.723644 
L 982.548517 120.48529 
L 982.738373 119.859868 
L 982.92823 118.773608 
L 983.118086 118.477355 
L 983.307943 116.864423 
L 983.687656 115.679412 
L 983.877512 114.72482 
L 984.636938 113.704394 
L 985.396364 112.157296 
L 985.965933 111.861043 
L 986.535502 111.202704 
L 986.915215 110.511447 
L 987.105072 110.05061 
L 987.294928 109.984776 
L 988.623923 107.845173 
L 988.81378 106.660162 
L 989.003636 106.495577 
L 989.383349 105.968905 
L 989.573206 105.935988 
L 990.142775 105.3764 
L 990.712344 104.323057 
L 991.092057 103.500132 
L 991.47177 102.973461 
L 991.661627 101.821367 
L 992.04134 100.80094 
L 992.610909 99.155092 
L 992.800766 99.023424 
L 992.990622 98.2005 
L 993.180478 97.937164 
L 994.129761 94.842968 
L 994.509474 94.250463 
L 995.079043 92.802116 
L 995.648612 90.36626 
L 996.218182 89.28 
L 996.218182 89.28 
" clip-path="url(#p9df16c3fff)" style="fill: none; stroke: #1f77b4; stroke-width: 1.5; stroke-linecap: square"/>
   </g>
   <g id="patch_3">
    <path d="M 144 512.64 
L 144 69.12 
" style="fill: none; stroke: #000000; stroke-width: 0.8; stroke-linejoin: miter; stroke-linecap: square"/>
   </g>
   <g id="patch_4">
    <path d="M 1036.8 512.64 
L 1036.8 69.12 
" style="fill: none; stroke: #000000; stroke-width: 0.8; stroke-linejoin: miter; stroke-linecap: square"/>
   </g>
   <g id="patch_5">
    <path d="M 144 512.64 
L 1036.8 512.64 
" style="fill: none; stroke: #000000; stroke-width: 0.8; stroke-linejoin: miter; stroke-linecap: square"/>
   </g>
   <g id="patch_6">
    <path d="M 144 69.12 
L 1036.8 69.12 
" style="fill: none; stroke: #000000; stroke-width: 0.8; stroke-linejoin: miter; stroke-linecap: square"/>
   </g>
   <g id="text_15">
    <!-- Number of AEDs in the OpenStreetMap database in Poland from first edition, day by day. As at: 2025-10-25 -->
    <g transform="translate(144 63.12) scale(0.14 -0.14)">
     <defs>
      <path id="DejaVuSans-4e" d="M 628 4666 
L 1478 4666 
L 3547 763 
L 3547 4666 
L 4159 4666 
L 4159 0 
L 3309 0 
L 1241 3903 
L 1241 0 
L 628 0 
L 628 4666 
z
" transform="scale(0.015625)"/>
      <path id="DejaVuSans-75" d="M 544 1381 
L 544 3500 
L 1119 3500 
L 1119 1403 
Q 1119 906 1312 657 
Q 1506 409 1894 409 
Q 2359 409 2629 706 
Q 2900 1003 2900 1516 
L 2900 3500 
L 3475 3500 
L 3475 0 
L 2900 0 
L 2900 538 
Q 2691 219 2414 64 
Q 2138 -91 1772 -91 
Q 1169 -91 856 284 
Q 544 659 544 1381 
z
M 1991 3584 
L 1991 3584 
z
" transform="scale(0.015625)"/>
      <path id="DejaVuSans-6d" d="M 3328 2828 
Q 3544 3216 3844 3400 
Q 4144 3584 4550 3584 
Q 5097 3584 5394 3201 
Q 5691 2819 5691 2113 
L 5691 0 
L 5113 0 
L 5113 2094 
Q 5113 2597 4934 2840 
Q 4756 3084 4391 3084 
Q 3944 3084 3684 2787 
Q 3425 2491 3425 1978 
L 3425 0 
L 2847 0 
L 2847 2094 
Q 2847 2600 2669 2842 
Q 2491 3084 2119 3084 
Q 1678 3084 1418 2786 
Q 1159 2488 1159 1978 
L 1159 0 
L 581 0 
L 581 3500 
L 1159 3500 
L 1159 2956 
Q 1356 3278 1631 3431 
Q 1906 3584 2284 3584 
Q 2666 3584 2933 3390 
Q 3200 3197 3328 2828 
z
" transform="scale(0.015625)"/>
      <path id="DejaVuSans-62" d="M 3116 1747 
Q 3116 2381 2855 2742 
Q 2594 3103 2138 3103 
Q 1681 3103 1420 2742 
Q 1159 2381 1159 1747 
Q 1159 1113 1420 752 
Q 1681 391 2138 391 
Q 2594 391 2855 752 
Q 3116 1113 3116 1747 
z
M 1159 2969 
Q 1341 3281 1617 3432 
Q 1894 3584 2278 3584 
Q 2916 3584 3314 3078 
Q 3713 2572 3713 1747 
Q 3713 922 3314 415 
Q 2916 -91 2278 -91 
Q 1894 -91 1617 61 
Q 1341 213 1159 525 
L 1159 0 
L 581 0 
L 581 4863 
L 1159 4863 
L 1159 2969 
z
" transform="scale(0.015625)"/>
      <path id="DejaVuSans-65" d="M 3597 1894 
L 3597 1613 
L 953 1613 
Q 991 1019 1311 708 
Q 1631 397 2203 397 
Q 2534 397 2845 478 
Q 3156 559 3463 722 
L 3463 178 
Q 3153 47 2828 -22 
Q 2503 -91 2169 -91 
Q 1331 -91 842 396 
Q 353 884 353 1716 
Q 353 2575 817 3079 
Q 1281 3584 2069 3584 
Q 2775 3584 3186 3129 
Q 3597 2675 3597 1894 
z
M 3022 2063 
Q 3016 2534 2758 2815 
Q 2500 3097 2075 3097 
Q 1594 3097 1305 2825 
Q 1016 2553 972 2059 
L 3022 2063 
z
" transform="scale(0.015625)"/>
      <path id="DejaVuSans-72" d="M 2631 2963 
Q 2534 3019 2420 3045 
Q 2306 3072 2169 3072 
Q 1681 3072 1420 2755 
Q 1159 2438 1159 1844 
L 1159 0 
L 581 0 
L 581 3500 
L 1159 3500 
L 1159 2956 
Q 1341 3275 1631 3429 
Q 1922 3584 2338 3584 
Q 2397 3584 2469 3576 
Q 2541 3569 2628 3553 
L 2631 2963 
z
" transform="scale(0.015625)"/>
      <path id="DejaVuSans-20" transform="scale(0.015625)"/>
      <path id="DejaVuSans-6f" d="M 1959 3097 
Q 1497 3097 1228 2736 
Q 959 2375 959 1747 
Q 959 1119 1226 758 
Q 1494 397 1959 397 
Q 2419 397 2687 759 
Q 2956 1122 2956 1747 
Q 2956 2369 2687 2733 
Q 2419 3097 1959 3097 
z
M 1959 3584 
Q 2709 3584 3137 3096 
Q 3566 2609 3566 1747 
Q 3566 888 3137 398 
Q 2709 -91 1959 -91 
Q 1206 -91 779 398 
Q 353 888 353 1747 
Q 353 2609 779 3096 
Q 1206 3584 1959 3584 
z
" transform="scale(0.015625)"/>
      <path id="DejaVuSans-66" d="M 2375 4863 
L 2375 4384 
L 1825 4384 
Q 1516 4384 1395 4259 
Q 1275 4134 1275 3809 
L 1275 3500 
L 2222 3500 
L 2222 3053 
L 1275 3053 
L 1275 0 
L 697 0 
L 697 3053 
L 147 3053 
L 147 3500 
L 697 3500 
L 697 3744 
Q 697 4328 969 4595 
Q 1241 4863 1831 4863 
L 2375 4863 
z
" transform="scale(0.015625)"/>
      <path id="DejaVuSans-41" d="M 2188 4044 
L 1331 1722 
L 3047 1722 
L 2188 4044 
z
M 1831 4666 
L 2547 4666 
L 4325 0 
L 3669 0 
L 3244 1197 
L 1141 1197 
L 716 0 
L 50 0 
L 1831 4666 
z
" transform="scale(0.015625)"/>
      <path id="DejaVuSans-45" d="M 628 4666 
L 3578 4666 
L 3578 4134 
L 1259 4134 
L 1259 2753 
L 3481 2753 
L 3481 2222 
L 1259 2222 
L 1259 531 
L 3634 531 
L 3634 0 
L 628 0 
L 628 4666 
z
" transform="scale(0.015625)"/>
      <path id="DejaVuSans-44" d="M 1259 4147 
L 1259 519 
L 2022 519 
Q 2988 519 3436 956 
Q 3884 1394 3884 2338 
Q 3884 3275 3436 3711 
Q 2988 4147 2022 4147 
L 1259 4147 
z
M 628 4666 
L 1925 4666 
Q 3281 4666 3915 4102 
Q 4550 3538 4550 2338 
Q 4550 1131 3912 565 
Q 3275 0 1925 0 
L 628 0 
L 628 4666 
z
" transform="scale(0.015625)"/>
      <path id="DejaVuSans-73" d="M 2834 3397 
L 2834 2853 
Q 2591 2978 2328 3040 
Q 2066 3103 1784 3103 
Q 1356 3103 1142 2972 
Q 928 2841 928 2578 
Q 928 2378 1081 2264 
Q 1234 2150 1697 2047 
L 1894 2003 
Q 2506 1872 2764 1633 
Q 3022 1394 3022 966 
Q 3022 478 2636 193 
Q 2250 -91 1575 -91 
Q 1294 -91 989 -36 
Q 684 19 347 128 
L 347 722 
Q 666 556 975 473 
Q 1284 391 1588 391 
Q 1994 391 2212 530 
Q 2431 669 2431 922 
Q 2431 1156 2273 1281 
Q 2116 1406 1581 1522 
L 1381 1569 
Q 847 1681 609 1914 
Q 372 2147 372 2553 
Q 372 3047 722 3315 
Q 1072 3584 1716 3584 
Q 2034 3584 2315 3537 
Q 2597 3491 2834 3397 
z
" transform="scale(0.015625)"/>
      <path id="DejaVuSans-69" d="M 603 3500 
L 1178 3500 
L 1178 0 
L 603 0 
L 603 3500 
z
M 603 4863 
L 1178 4863 
L 1178 4134 
L 603 4134 
L 603 4863 
z
" transform="scale(0.015625)"/>
      <path id="DejaVuSans-6e" d="M 3513 2113 
L 3513 0 
L 2938 0 
L 2938 2094 
Q 2938 2591 2744 2837 
Q 2550 3084 2163 3084 
Q 1697 3084 1428 2787 
Q 1159 2491 1159 1978 
L 1159 0 
L 581 0 
L 581 3500 
L 1159 3500 
L 1159 2956 
Q 1366 3272 1645 3428 
Q 1925 3584 2291 3584 
Q 2894 3584 3203 3211 
Q 3513 2838 3513 2113 
z
" transform="scale(0.015625)"/>
      <path id="DejaVuSans-74" d="M 1172 4494 
L 1172 3500 
L 2356 3500 
L 2356 3053 
L 1172 3053 
L 1172 1153 
Q 1172 725 1289 603 
Q 1406 481 1766 481 
L 2356 481 
L 2356 0 
L 1766 0 
Q 1100 0 847 248 
Q 594 497 594 1153 
L 594 3053 
L 172 3053 
L 172 3500 
L 594 3500 
L 594 4494 
L 1172 4494 
z
" transform="scale(0.015625)"/>
      <path id="DejaVuSans-68" d="M 3513 2113 
L 3513 0 
L 2938 0 
L 2938 2094 
Q 2938 2591 2744 2837 
Q 2550 3084 2163 3084 
Q 1697 3084 1428 2787 
Q 1159 2491 1159 1978 
L 1159 0 
L 581 0 
L 581 4863 
L 1159 4863 
L 1159 2956 
Q 1366 3272 1645 3428 
Q 1925 3584 2291 3584 
Q 2894 3584 3203 3211 
Q 3513 2838 3513 2113 
z
" transform="scale(0.015625)"/>
      <path id="DejaVuSans-4f" d="M 2522 4238 
Q 1834 4238 1429 3725 
Q 1025 3213 1025 2328 
Q 1025 1447 1429 934 
Q 1834 422 2522 422 
Q 3209 422 3611 934 
Q 4013 1447 4013 2328 
Q 4013 3213 3611 3725 
Q 3209 4238 2522 4238 
z
M 2522 4750 
Q 3503 4750 4090 4092 
Q 4678 3434 4678 2328 
Q 4678 1225 4090 567 
Q 3503 -91 2522 -91 
Q 1538 -91 948 565 
Q 359 1222 359 2328 
Q 359 3434 948 4092 
Q 1538 4750 2522 4750 
z
" transform="scale(0.015625)"/>
      <path id="DejaVuSans-70" d="M 1159 525 
L 1159 -1331 
L 581 -1331 
L 581 3500 
L 1159 3500 
L 1159 2969 
Q 1341 3281 1617 3432 
Q 1894 3584 2278 3584 
Q 2916 3584 3314 3078 
Q 3713 2572 3713 1747 
Q 3713 922 3314 415 
Q 2916 -91 2278 -91 
Q 1894 -91 1617 61 
Q 1341 213 1159 525 
z
M 3116 1747 
Q 3116 2381 2855 2742 
Q 2594 3103 2138 3103 
Q 1681 3103 1420 2742 
Q 1159 2381 1159 1747 
Q 1159 1113 1420 752 
Q 1681 391 2138 391 
Q 2594 391 2855 752 
Q 3116 1113 3116 1747 
z
" transform="scale(0.015625)"/>
      <path id="DejaVuSans-53" d="M 3425 4513 
L 3425 3897 
Q 3066 4069 2747 4153 
Q 2428 4238 2131 4238 
Q 1616 4238 1336 4038 
Q 1056 3838 1056 3469 
Q 1056 3159 1242 3001 
Q 1428 2844 1947 2747 
L 2328 2669 
Q 3034 2534 3370 2195 
Q 3706 1856 3706 1288 
Q 3706 609 3251 259 
Q 2797 -91 1919 -91 
Q 1588 -91 1214 -16 
Q 841 59 441 206 
L 441 856 
Q 825 641 1194 531 
Q 1563 422 1919 422 
Q 2459 422 2753 634 
Q 3047 847 3047 1241 
Q 3047 1584 2836 1778 
Q 2625 1972 2144 2069 
L 1759 2144 
Q 1053 2284 737 2584 
Q 422 2884 422 3419 
Q 422 4038 858 4394 
Q 1294 4750 2059 4750 
Q 2388 4750 2728 4690 
Q 3069 4631 3425 4513 
z
" transform="scale(0.015625)"/>
      <path id="DejaVuSans-4d" d="M 628 4666 
L 1569 4666 
L 2759 1491 
L 3956 4666 
L 4897 4666 
L 4897 0 
L 4281 0 
L 4281 4097 
L 3078 897 
L 2444 897 
L 1241 4097 
L 1241 0 
L 628 0 
L 628 4666 
z
" transform="scale(0.015625)"/>
      <path id="DejaVuSans-61" d="M 2194 1759 
Q 1497 1759 1228 1600 
Q 959 1441 959 1056 
Q 959 750 1161 570 
Q 1363 391 1709 391 
Q 2188 391 2477 730 
Q 2766 1069 2766 1631 
L 2766 1759 
L 2194 1759 
z
M 3341 1997 
L 3341 0 
L 2766 0 
L 2766 531 
Q 2569 213 2275 61 
Q 1981 -91 1556 -91 
Q 1019 -91 701 211 
Q 384 513 384 1019 
Q 384 1609 779 1909 
Q 1175 2209 1959 2209 
L 2766 2209 
L 2766 2266 
Q 2766 2663 2505 2880 
Q 2244 3097 1772 3097 
Q 1472 3097 1187 3025 
Q 903 2953 641 2809 
L 641 3341 
Q 956 3463 1253 3523 
Q 1550 3584 1831 3584 
Q 2591 3584 2966 3190 
Q 3341 2797 3341 1997 
z
" transform="scale(0.015625)"/>
      <path id="DejaVuSans-64" d="M 2906 2969 
L 2906 4863 
L 3481 4863 
L 3481 0 
L 2906 0 
L 2906 525 
Q 2725 213 2448 61 
Q 2172 -91 1784 -91 
Q 1150 -91 751 415 
Q 353 922 353 1747 
Q 353 2572 751 3078 
Q 1150 3584 1784 3584 
Q 2172 3584 2448 3432 
Q 2725 3281 2906 2969 
z
M 947 1747 
Q 947 1113 1208 752 
Q 1469 391 1925 391 
Q 2381 391 2643 752 
Q 2906 1113 2906 1747 
Q 2906 2381 2643 2742 
Q 2381 3103 1925 3103 
Q 1469 3103 1208 2742 
Q 947 2381 947 1747 
z
" transform="scale(0.015625)"/>
      <path id="DejaVuSans-50" d="M 1259 4147 
L 1259 2394 
L 2053 2394 
Q 2494 2394 2734 2622 
Q 2975 2850 2975 3272 
Q 2975 3691 2734 3919 
Q 2494 4147 2053 4147 
L 1259 4147 
z
M 628 4666 
L 2053 4666 
Q 2838 4666 3239 4311 
Q 3641 3956 3641 3272 
Q 3641 2581 3239 2228 
Q 2838 1875 2053 1875 
L 1259 1875 
L 1259 0 
L 628 0 
L 628 4666 
z
" transform="scale(0.015625)"/>
      <path id="DejaVuSans-6c" d="M 603 4863 
L 1178 4863 
L 1178 0 
L 603 0 
L 603 4863 
z
" transform="scale(0.015625)"/>
      <path id="DejaVuSans-2c" d="M 750 794 
L 1409 794 
L 1409 256 
L 897 -744 
L 494 -744 
L 750 256 
L 750 794 
z
" transform="scale(0.015625)"/>
      <path id="DejaVuSans-79" d="M 2059 -325 
Q 1816 -950 1584 -1140 
Q 1353 -1331 966 -1331 
L 506 -1331 
L 506 -850 
L 844 -850 
Q 1081 -850 1212 -737 
Q 1344 -625 1503 -206 
L 1606 56 
L 191 3500 
L 800 3500 
L 1894 763 
L 2988 3500 
L 3597 3500 
L 2059 -325 
z
" transform="scale(0.015625)"/>
      <path id="DejaVuSans-2e" d="M 684 794 
L 1344 794 
L 1344 0 
L 684 0 
L 684 794 
z
" transform="scale(0.015625)"/>
      <path id="DejaVuSans-3a" d="M 750 794 
L 1409 794 
L 1409 0 
L 750 0 
L 750 794 
z
M 750 3309 
L 1409 3309 
L 1409 2516 
L 750 2516 
L 750 3309 
z
" transform="scale(0.015625)"/>
      <path id="DejaVuSans-35" d="M 691 4666 
L 3169 4666 
L 3169 4134 
L 1269 4134 
L 1269 2991 
Q 1406 3038 1543 3061 
Q 1681 3084 1819 3084 
Q 2600 3084 3056 2656 
Q 3513 2228 3513 1497 
Q 3513 744 3044 326 
Q 2575 -91 1722 -91 
Q 1428 -91 1123 -41 
Q 819 9 494 109 
L 494 744 
Q 775 591 1075 516 
Q 1375 441 1709 441 
Q 2250 441 2565 725 
Q 2881 1009 2881 1497 
Q 2881 1984 2565 2268 
Q 2250 2553 1709 2553 
Q 1456 2553 1204 2497 
Q 953 2441 691 2322 
L 691 4666 
z
" transform="scale(0.015625)"/>
      <path id="DejaVuSans-2d" d="M 313 2009 
L 1997 2009 
L 1997 1497 
L 313 1497 
L 313 2009 
z
" transform="scale(0.015625)"/>
     </defs>
     <use xlink:href="#DejaVuSans-4e"/>
     <use xlink:href="#DejaVuSans-75" x="74.804688"/>
     <use xlink:href="#DejaVuSans-6d" x="138.183594"/>
     <use xlink:href="#DejaVuSans-62" x="235.595703"/>
     <use xlink:href="#DejaVuSans-65" x="299.072266"/>
     <use xlink:href="#DejaVuSans-72" x="360.595703"/>
     <use xlink:href="#DejaVuSans-20" x="401.708984"/>
     <use xlink:href="#DejaVuSans-6f" x="433.496094"/>
     <use xlink:href="#DejaVuSans-66" x="494.677734"/>
     <use xlink:href="#DejaVuSans-20" x="529.882812"/>
     <use xlink:href="#DejaVuSans-41" x="561.669922"/>
     <use xlink:href="#DejaVuSans-45" x="630.078125"/>
     <use xlink:href="#DejaVuSans-44" x="693.261719"/>
     <use xlink:href="#DejaVuSans-73" x="770.263672"/>
     <use xlink:href="#DejaVuSans-20" x="822.363281"/>
     <use xlink:href="#DejaVuSans-69" x="854.150391"/>
     <use xlink:href="#DejaVuSans-6e" x="881.933594"/>
     <use xlink:href="#DejaVuSans-20" x="945.3125"/>
     <use xlink:href="#DejaVuSans-74" x="977.099609"/>
     <use xlink:href="#DejaVuSans-68" x="1016.308594"/>
     <use xlink:href="#DejaVuSans-65" x="1079.6875"/>
     <use xlink:href="#DejaVuSans-20" x="1141.210938"/>
     <use xlink:href="#DejaVuSans-4f" x="1172.998047"/>
     <use xlink:href="#DejaVuSans-70" x="1251.708984"/>
     <use xlink:href="#DejaVuSans-65" x="1315.185547"/>
     <use xlink:href="#DejaVuSans-6e" x="1376.708984"/>
     <use xlink:href="#DejaVuSans-53" x="1440.087891"/>
     <use xlink:href="#DejaVuSans-74" x="1503.564453"/>
     <use xlink:href="#DejaVuSans-72" x="1542.773438"/>
     <use xlink:href="#DejaVuSans-65" x="1581.636719"/>
     <use xlink:href="#DejaVuSans-65" x="1643.160156"/>
     <use xlink:href="#DejaVuSans-74" x="1704.683594"/>
     <use xlink:href="#DejaVuSans-4d" x="1743.892578"/>
     <use xlink:href="#DejaVuSans-61" x="1830.171875"/>
     <use xlink:href="#DejaVuSans-70" x="1891.451172"/>
     <use xlink:href="#DejaVuSans-20" x="1954.927734"/>
     <use xlink:href="#DejaVuSans-64" x="1986.714844"/>
     <use xlink:href="#DejaVuSans-61" x="2050.191406"/>
     <use xlink:href="#DejaVuSans-74" x="2111.470703"/>
     <use xlink:href="#DejaVuSans-61" x="2150.679688"/>
     <use xlink:href="#DejaVuSans-62" x="2211.958984"/>
     <use xlink:href="#DejaVuSans-61" x="2275.435547"/>
     <use xlink:href="#DejaVuSans-73" x="2336.714844"/>
     <use xlink:href="#DejaVuSans-65" x="2388.814453"/>
     <use xlink:href="#DejaVuSans-20" x="2450.337891"/>
     <use xlink:href="#DejaVuSans-69" x="2482.125"/>
     <use xlink:href="#DejaVuSans-6e" x="2509.908203"/>
     <use xlink:href="#DejaVuSans-20" x="2573.287109"/>
     <use xlink:href="#DejaVuSans-50" x="2605.074219"/>
     <use xlink:href="#DejaVuSans-6f" x="2661.751953"/>
     <use xlink:href="#DejaVuSans-6c" x="2722.933594"/>
     <use xlink:href="#DejaVuSans-61" x="2750.716797"/>
     <use xlink:href="#DejaVuSans-6e" x="2811.996094"/>
     <use xlink:href="#DejaVuSans-64" x="2875.375"/>
     <use xlink:href="#DejaVuSans-20" x="2938.851562"/>
     <use xlink:href="#DejaVuSans-66" x="2970.638672"/>
     <use xlink:href="#DejaVuSans-72" x="3005.84375"/>
     <use xlink:href="#DejaVuSans-6f" x="3044.707031"/>
     <use xlink:href="#DejaVuSans-6d" x="3105.888672"/>
     <use xlink:href="#DejaVuSans-20" x="3203.300781"/>
     <use xlink:href="#DejaVuSans-66" x="3235.087891"/>
     <use xlink:href="#DejaVuSans-69" x="3270.292969"/>
     <use xlink:href="#DejaVuSans-72" x="3298.076172"/>
     <use xlink:href="#DejaVuSans-73" x="3339.189453"/>
     <use xlink:href="#DejaVuSans-74" x="3391.289062"/>
     <use xlink:href="#DejaVuSans-20" x="3430.498047"/>
     <use xlink:href="#DejaVuSans-65" x="3462.285156"/>
     <use xlink:href="#DejaVuSans-64" x="3523.808594"/>
     <use xlink:href="#DejaVuSans-69" x="3587.285156"/>
     <use xlink:href="#DejaVuSans-74" x="3615.068359"/>
     <use xlink:href="#DejaVuSans-69" x="3654.277344"/>
     <use xlink:href="#DejaVuSans-6f" x="3682.060547"/>
     <use xlink:href="#DejaVuSans-6e" x="3743.242188"/>
     <use xlink:href="#DejaVuSans-2c" x="3806.621094"/>
     <use xlink:href="#DejaVuSans-20" x="3838.408203"/>
     <use xlink:href="#DejaVuSans-64" x="3870.195312"/>
     <use xlink:href="#DejaVuSans-61" x="3933.671875"/>
     <use xlink:href="#DejaVuSans-79" x="3994.951172"/>
     <use xlink:href="#DejaVuSans-20" x="4054.130859"/>
     <use xlink:href="#DejaVuSans-62" x="4085.917969"/>
     <use xlink:href="#DejaVuSans-79" x="4149.394531"/>
     <use xlink:href="#DejaVuSans-20" x="4208.574219"/>
     <use xlink:href="#DejaVuSans-64" x="4240.361328"/>
     <use xlink:href="#DejaVuSans-61" x="4303.837891"/>
     <use xlink:href="#DejaVuSans-79" x="4365.117188"/>
     <use xlink:href="#DejaVuSans-2e" x="4410.046875"/>
     <use xlink:href="#DejaVuSans-20" x="4441.833984"/>
     <use xlink:href="#DejaVuSans-41" x="4473.621094"/>
     <use xlink:href="#DejaVuSans-73" x="4542.029297"/>
     <use xlink:href="#DejaVuSans-20" x="4594.128906"/>
     <use xlink:href="#DejaVuSans-61" x="4625.916016"/>
     <use xlink:href="#DejaVuSans-74" x="4687.195312"/>
     <use xlink:href="#DejaVuSans-3a" x="4726.404297"/>
     <use xlink:href="#DejaVuSans-20" x="4760.095703"/>
     <use xlink:href="#DejaVuSans-32" x="4791.882812"/>
     <use xlink:href="#DejaVuSans-30" x="4855.505859"/>
     <use xlink:href="#DejaVuSans-32" x="4919.128906"/>
     <use xlink:href="#DejaVuSans-35" x="4982.751953"/>
     <use xlink:href="#DejaVuSans-2d" x="5046.375"/>
     <use xlink:href="#DejaVuSans-31" x="5082.458984"/>
     <use xlink:href="#DejaVuSans-30" x="5146.082031"/>
     <use xlink:href="#DejaVuSans-2d" x="5209.705078"/>
     <use xlink:href="#DejaVuSans-32" x="5245.789062"/>
     <use xlink:href="#DejaVuSans-35" x="5309.412109"/>
    </g>
   </g>
  </g>
 </g>
 <defs>
  <clipPath id="p9df16c3fff">
   <rect x="144" y="69.12" width="892.8" height="443.52"/>
  </clipPath>
 </defs>
</svg>
