<?xml version="1.0" encoding="utf-8" standalone="no"?>
<!DOCTYPE svg PUBLIC "-//W3C//DTD SVG 1.1//EN"
  "http://www.w3.org/Graphics/SVG/1.1/DTD/svg11.dtd">
<svg xmlns:xlink="http://www.w3.org/1999/xlink" width="1152pt" height="576pt" viewBox="0 0 1152 576" xmlns="http://www.w3.org/2000/svg" version="1.1">
 <metadata>
  <rdf:RDF xmlns:dc="http://purl.org/dc/elements/1.1/" xmlns:cc="http://creativecommons.org/ns#" xmlns:rdf="http://www.w3.org/1999/02/22-rdf-syntax-ns#">
   <cc:Work>
    <dc:type rdf:resource="http://purl.org/dc/dcmitype/StillImage"/>
    <dc:date>1980-01-01T00:00:00+00:00</dc:date>
    <dc:format>image/svg+xml</dc:format>
    <dc:creator>
     <cc:Agent>
      <dc:title>Matplotlib v3.9.1, https://matplotlib.org/</dc:title>
     </cc:Agent>
    </dc:creator>
   </cc:Work>
  </rdf:RDF>
 </metadata>
 <defs>
  <style type="text/css">*{stroke-linejoin: round; stroke-linecap: butt}</style>
 </defs>
 <g id="figure_1">
  <g id="patch_1">
   <path d="M 0 576 
L 1152 576 
L 1152 0 
L 0 0 
z
" style="fill: #ffffff"/>
  </g>
  <g id="axes_1">
   <g id="patch_2">
    <path d="M 144 512.64 
L 1036.8 512.64 
L 1036.8 69.12 
L 144 69.12 
z
" style="fill: #ffffff"/>
   </g>
   <g id="matplotlib.axis_1">
    <g id="xtick_1">
     <g id="line2d_1">
      <defs>
       <path id="mc69846b117" d="M 0 0 
L 0 3.5 
" style="stroke: #000000; stroke-width: 0.8"/>
      </defs>
      <g>
       <use xlink:href="#mc69846b117" x="176.822388" y="512.64" style="stroke: #000000; stroke-width: 0.8"/>
      </g>
     </g>
     <g id="text_1">
      <!-- 2014 -->
      <g transform="translate(164.097388 527.238438) scale(0.1 -0.1)">
       <defs>
        <path id="DejaVuSans-32" d="M 1228 531 
L 3431 531 
L 3431 0 
L 469 0 
L 469 531 
Q 828 903 1448 1529 
Q 2069 2156 2228 2338 
Q 2531 2678 2651 2914 
Q 2772 3150 2772 3378 
Q 2772 3750 2511 3984 
Q 2250 4219 1831 4219 
Q 1534 4219 1204 4116 
Q 875 4013 500 3803 
L 500 4441 
Q 881 4594 1212 4672 
Q 1544 4750 1819 4750 
Q 2544 4750 2975 4387 
Q 3406 4025 3406 3419 
Q 3406 3131 3298 2873 
Q 3191 2616 2906 2266 
Q 2828 2175 2409 1742 
Q 1991 1309 1228 531 
z
" transform="scale(0.015625)"/>
        <path id="DejaVuSans-30" d="M 2034 4250 
Q 1547 4250 1301 3770 
Q 1056 3291 1056 2328 
Q 1056 1369 1301 889 
Q 1547 409 2034 409 
Q 2525 409 2770 889 
Q 3016 1369 3016 2328 
Q 3016 3291 2770 3770 
Q 2525 4250 2034 4250 
z
M 2034 4750 
Q 2819 4750 3233 4129 
Q 3647 3509 3647 2328 
Q 3647 1150 3233 529 
Q 2819 -91 2034 -91 
Q 1250 -91 836 529 
Q 422 1150 422 2328 
Q 422 3509 836 4129 
Q 1250 4750 2034 4750 
z
" transform="scale(0.015625)"/>
        <path id="DejaVuSans-31" d="M 794 531 
L 1825 531 
L 1825 4091 
L 703 3866 
L 703 4441 
L 1819 4666 
L 2450 4666 
L 2450 531 
L 3481 531 
L 3481 0 
L 794 0 
L 794 531 
z
" transform="scale(0.015625)"/>
        <path id="DejaVuSans-34" d="M 2419 4116 
L 825 1625 
L 2419 1625 
L 2419 4116 
z
M 2253 4666 
L 3047 4666 
L 3047 1625 
L 3713 1625 
L 3713 1100 
L 3047 1100 
L 3047 0 
L 2419 0 
L 2419 1100 
L 313 1100 
L 313 1709 
L 2253 4666 
z
" transform="scale(0.015625)"/>
       </defs>
       <use xlink:href="#DejaVuSans-32"/>
       <use xlink:href="#DejaVuSans-30" x="63.623047"/>
       <use xlink:href="#DejaVuSans-31" x="127.246094"/>
       <use xlink:href="#DejaVuSans-34" x="190.869141"/>
      </g>
     </g>
    </g>
    <g id="xtick_2">
     <g id="line2d_2">
      <g>
       <use xlink:href="#mc69846b117" x="318.431983" y="512.64" style="stroke: #000000; stroke-width: 0.8"/>
      </g>
     </g>
     <g id="text_2">
      <!-- 2016 -->
      <g transform="translate(305.706983 527.238438) scale(0.1 -0.1)">
       <defs>
        <path id="DejaVuSans-36" d="M 2113 2584 
Q 1688 2584 1439 2293 
Q 1191 2003 1191 1497 
Q 1191 994 1439 701 
Q 1688 409 2113 409 
Q 2538 409 2786 701 
Q 3034 994 3034 1497 
Q 3034 2003 2786 2293 
Q 2538 2584 2113 2584 
z
M 3366 4563 
L 3366 3988 
Q 3128 4100 2886 4159 
Q 2644 4219 2406 4219 
Q 1781 4219 1451 3797 
Q 1122 3375 1075 2522 
Q 1259 2794 1537 2939 
Q 1816 3084 2150 3084 
Q 2853 3084 3261 2657 
Q 3669 2231 3669 1497 
Q 3669 778 3244 343 
Q 2819 -91 2113 -91 
Q 1303 -91 875 529 
Q 447 1150 447 2328 
Q 447 3434 972 4092 
Q 1497 4750 2381 4750 
Q 2619 4750 2861 4703 
Q 3103 4656 3366 4563 
z
" transform="scale(0.015625)"/>
       </defs>
       <use xlink:href="#DejaVuSans-32"/>
       <use xlink:href="#DejaVuSans-30" x="63.623047"/>
       <use xlink:href="#DejaVuSans-31" x="127.246094"/>
       <use xlink:href="#DejaVuSans-36" x="190.869141"/>
      </g>
     </g>
    </g>
    <g id="xtick_3">
     <g id="line2d_3">
      <g>
       <use xlink:href="#mc69846b117" x="460.235564" y="512.64" style="stroke: #000000; stroke-width: 0.8"/>
      </g>
     </g>
     <g id="text_3">
      <!-- 2018 -->
      <g transform="translate(447.510564 527.238438) scale(0.1 -0.1)">
       <defs>
        <path id="DejaVuSans-38" d="M 2034 2216 
Q 1584 2216 1326 1975 
Q 1069 1734 1069 1313 
Q 1069 891 1326 650 
Q 1584 409 2034 409 
Q 2484 409 2743 651 
Q 3003 894 3003 1313 
Q 3003 1734 2745 1975 
Q 2488 2216 2034 2216 
z
M 1403 2484 
Q 997 2584 770 2862 
Q 544 3141 544 3541 
Q 544 4100 942 4425 
Q 1341 4750 2034 4750 
Q 2731 4750 3128 4425 
Q 3525 4100 3525 3541 
Q 3525 3141 3298 2862 
Q 3072 2584 2669 2484 
Q 3125 2378 3379 2068 
Q 3634 1759 3634 1313 
Q 3634 634 3220 271 
Q 2806 -91 2034 -91 
Q 1263 -91 848 271 
Q 434 634 434 1313 
Q 434 1759 690 2068 
Q 947 2378 1403 2484 
z
M 1172 3481 
Q 1172 3119 1398 2916 
Q 1625 2713 2034 2713 
Q 2441 2713 2670 2916 
Q 2900 3119 2900 3481 
Q 2900 3844 2670 4047 
Q 2441 4250 2034 4250 
Q 1625 4250 1398 4047 
Q 1172 3844 1172 3481 
z
" transform="scale(0.015625)"/>
       </defs>
       <use xlink:href="#DejaVuSans-32"/>
       <use xlink:href="#DejaVuSans-30" x="63.623047"/>
       <use xlink:href="#DejaVuSans-31" x="127.246094"/>
       <use xlink:href="#DejaVuSans-38" x="190.869141"/>
      </g>
     </g>
    </g>
    <g id="xtick_4">
     <g id="line2d_4">
      <g>
       <use xlink:href="#mc69846b117" x="601.845159" y="512.64" style="stroke: #000000; stroke-width: 0.8"/>
      </g>
     </g>
     <g id="text_4">
      <!-- 2020 -->
      <g transform="translate(589.120159 527.238438) scale(0.1 -0.1)">
       <use xlink:href="#DejaVuSans-32"/>
       <use xlink:href="#DejaVuSans-30" x="63.623047"/>
       <use xlink:href="#DejaVuSans-32" x="127.246094"/>
       <use xlink:href="#DejaVuSans-30" x="190.869141"/>
      </g>
     </g>
    </g>
    <g id="xtick_5">
     <g id="line2d_5">
      <g>
       <use xlink:href="#mc69846b117" x="743.64874" y="512.64" style="stroke: #000000; stroke-width: 0.8"/>
      </g>
     </g>
     <g id="text_5">
      <!-- 2022 -->
      <g transform="translate(730.92374 527.238438) scale(0.1 -0.1)">
       <use xlink:href="#DejaVuSans-32"/>
       <use xlink:href="#DejaVuSans-30" x="63.623047"/>
       <use xlink:href="#DejaVuSans-32" x="127.246094"/>
       <use xlink:href="#DejaVuSans-32" x="190.869141"/>
      </g>
     </g>
    </g>
    <g id="xtick_6">
     <g id="line2d_6">
      <g>
       <use xlink:href="#mc69846b117" x="885.258335" y="512.64" style="stroke: #000000; stroke-width: 0.8"/>
      </g>
     </g>
     <g id="text_6">
      <!-- 2024 -->
      <g transform="translate(872.533335 527.238438) scale(0.1 -0.1)">
       <use xlink:href="#DejaVuSans-32"/>
       <use xlink:href="#DejaVuSans-30" x="63.623047"/>
       <use xlink:href="#DejaVuSans-32" x="127.246094"/>
       <use xlink:href="#DejaVuSans-34" x="190.869141"/>
      </g>
     </g>
    </g>
    <g id="xtick_7">
     <g id="line2d_7">
      <g>
       <use xlink:href="#mc69846b117" x="1027.061916" y="512.64" style="stroke: #000000; stroke-width: 0.8"/>
      </g>
     </g>
     <g id="text_7">
      <!-- 2026 -->
      <g transform="translate(1014.336916 527.238438) scale(0.1 -0.1)">
       <use xlink:href="#DejaVuSans-32"/>
       <use xlink:href="#DejaVuSans-30" x="63.623047"/>
       <use xlink:href="#DejaVuSans-32" x="127.246094"/>
       <use xlink:href="#DejaVuSans-36" x="190.869141"/>
      </g>
     </g>
    </g>
   </g>
   <g id="matplotlib.axis_2">
    <g id="ytick_1">
     <g id="line2d_8">
      <defs>
       <path id="m6aa707b250" d="M 0 0 
L -3.5 0 
" style="stroke: #000000; stroke-width: 0.8"/>
      </defs>
      <g>
       <use xlink:href="#m6aa707b250" x="144" y="492.515131" style="stroke: #000000; stroke-width: 0.8"/>
      </g>
     </g>
     <g id="text_8">
      <!-- 0 -->
      <g transform="translate(130.6375 496.31435) scale(0.1 -0.1)">
       <use xlink:href="#DejaVuSans-30"/>
      </g>
     </g>
    </g>
    <g id="ytick_2">
     <g id="line2d_9">
      <g>
       <use xlink:href="#m6aa707b250" x="144" y="422.252867" style="stroke: #000000; stroke-width: 0.8"/>
      </g>
     </g>
     <g id="text_9">
      <!-- 2000 -->
      <g transform="translate(111.55 426.052086) scale(0.1 -0.1)">
       <use xlink:href="#DejaVuSans-32"/>
       <use xlink:href="#DejaVuSans-30" x="63.623047"/>
       <use xlink:href="#DejaVuSans-30" x="127.246094"/>
       <use xlink:href="#DejaVuSans-30" x="190.869141"/>
      </g>
     </g>
    </g>
    <g id="ytick_3">
     <g id="line2d_10">
      <g>
       <use xlink:href="#m6aa707b250" x="144" y="351.990604" style="stroke: #000000; stroke-width: 0.8"/>
      </g>
     </g>
     <g id="text_10">
      <!-- 4000 -->
      <g transform="translate(111.55 355.789823) scale(0.1 -0.1)">
       <use xlink:href="#DejaVuSans-34"/>
       <use xlink:href="#DejaVuSans-30" x="63.623047"/>
       <use xlink:href="#DejaVuSans-30" x="127.246094"/>
       <use xlink:href="#DejaVuSans-30" x="190.869141"/>
      </g>
     </g>
    </g>
    <g id="ytick_4">
     <g id="line2d_11">
      <g>
       <use xlink:href="#m6aa707b250" x="144" y="281.72834" style="stroke: #000000; stroke-width: 0.8"/>
      </g>
     </g>
     <g id="text_11">
      <!-- 6000 -->
      <g transform="translate(111.55 285.527559) scale(0.1 -0.1)">
       <use xlink:href="#DejaVuSans-36"/>
       <use xlink:href="#DejaVuSans-30" x="63.623047"/>
       <use xlink:href="#DejaVuSans-30" x="127.246094"/>
       <use xlink:href="#DejaVuSans-30" x="190.869141"/>
      </g>
     </g>
    </g>
    <g id="ytick_5">
     <g id="line2d_12">
      <g>
       <use xlink:href="#m6aa707b250" x="144" y="211.466077" style="stroke: #000000; stroke-width: 0.8"/>
      </g>
     </g>
     <g id="text_12">
      <!-- 8000 -->
      <g transform="translate(111.55 215.265295) scale(0.1 -0.1)">
       <use xlink:href="#DejaVuSans-38"/>
       <use xlink:href="#DejaVuSans-30" x="63.623047"/>
       <use xlink:href="#DejaVuSans-30" x="127.246094"/>
       <use xlink:href="#DejaVuSans-30" x="190.869141"/>
      </g>
     </g>
    </g>
    <g id="ytick_6">
     <g id="line2d_13">
      <g>
       <use xlink:href="#m6aa707b250" x="144" y="141.203813" style="stroke: #000000; stroke-width: 0.8"/>
      </g>
     </g>
     <g id="text_13">
      <!-- 10000 -->
      <g transform="translate(105.1875 145.003032) scale(0.1 -0.1)">
       <use xlink:href="#DejaVuSans-31"/>
       <use xlink:href="#DejaVuSans-30" x="63.623047"/>
       <use xlink:href="#DejaVuSans-30" x="127.246094"/>
       <use xlink:href="#DejaVuSans-30" x="190.869141"/>
       <use xlink:href="#DejaVuSans-30" x="254.492188"/>
      </g>
     </g>
    </g>
    <g id="ytick_7">
     <g id="line2d_14">
      <g>
       <use xlink:href="#m6aa707b250" x="144" y="70.941549" style="stroke: #000000; stroke-width: 0.8"/>
      </g>
     </g>
     <g id="text_14">
      <!-- 12000 -->
      <g transform="translate(105.1875 74.740768) scale(0.1 -0.1)">
       <use xlink:href="#DejaVuSans-31"/>
       <use xlink:href="#DejaVuSans-32" x="63.623047"/>
       <use xlink:href="#DejaVuSans-30" x="127.246094"/>
       <use xlink:href="#DejaVuSans-30" x="190.869141"/>
       <use xlink:href="#DejaVuSans-30" x="254.492188"/>
      </g>
     </g>
    </g>
   </g>
   <g id="line2d_15">
    <path d="M 184.581818 492.48 
L 186.32769 492.409738 
L 307.568782 492.198951 
L 449.566348 492.023295 
L 502.330471 491.812508 
L 516.103459 491.707115 
L 549.081036 491.531459 
L 550.632922 491.461197 
L 559.556266 491.355804 
L 602.039145 491.145017 
L 608.246689 491.074755 
L 608.63466 490.793706 
L 612.708361 490.61805 
L 646.849852 490.477525 
L 650.729567 490.372132 
L 664.696541 490.231608 
L 674.395828 490.161345 
L 688.168816 489.950559 
L 691.854545 489.810034 
L 701.359847 489.599247 
L 704.85159 489.423592 
L 705.821519 489.353329 
L 707.179419 489.177674 
L 714.744864 488.966887 
L 718.818564 488.826362 
L 725.220094 488.369658 
L 735.307353 488.12374 
L 739.963011 486.683363 
L 740.156996 486.542839 
L 741.902868 486.367183 
L 742.678811 485.805085 
L 742.872797 484.926807 
L 743.260768 484.71602 
L 743.454754 484.680889 
L 743.64874 483.48643 
L 744.812654 482.994594 
L 745.200626 482.397365 
L 745.588597 482.151447 
L 745.782583 481.589349 
L 745.976569 480.148973 
L 746.170554 479.797661 
L 746.36454 479.059908 
L 746.558526 477.865449 
L 746.752512 475.827844 
L 747.140483 474.387467 
L 747.334469 474.106418 
L 747.528455 469.398846 
L 747.72244 467.501765 
L 747.916426 466.764012 
L 748.110412 463.356292 
L 748.692369 459.421605 
L 748.886355 459.316212 
L 749.274326 457.313737 
L 749.468312 456.646246 
L 749.662298 451.5171 
L 749.856284 451.060396 
L 750.244255 449.374101 
L 750.438241 449.268708 
L 750.632227 448.39043 
L 750.826212 444.736792 
L 751.020198 443.823382 
L 751.214184 443.75312 
L 751.40817 441.012892 
L 751.602155 440.485925 
L 751.990127 440.310269 
L 752.76607 437.640303 
L 753.154041 436.937681 
L 753.542013 434.864944 
L 753.735999 434.056928 
L 753.929984 430.122241 
L 754.511942 425.765981 
L 755.093899 425.555194 
L 755.48187 425.309276 
L 756.257813 423.833768 
L 756.645785 423.693244 
L 757.033756 420.671967 
L 757.227742 420.636835 
L 757.615714 420.109868 
L 757.809699 418.59923 
L 758.003685 418.177656 
L 758.197671 418.037132 
L 758.391657 417.68582 
L 758.585642 417.088591 
L 759.1676 416.842673 
L 759.361585 416.596755 
L 759.943542 414.383494 
L 760.137528 414.242969 
L 760.5255 413.680871 
L 761.301443 413.294429 
L 761.495428 411.854052 
L 761.689414 411.748659 
L 761.8834 411.46761 
L 762.077386 408.657119 
L 762.465357 408.551726 
L 762.853329 407.813972 
L 763.047314 407.11135 
L 763.629272 406.970825 
L 764.211229 405.88176 
L 764.405215 405.846629 
L 764.793186 405.2494 
L 765.181158 405.108875 
L 765.375143 401.876811 
L 766.539058 401.595762 
L 766.927029 401.314713 
L 767.702972 401.20932 
L 767.896958 400.998533 
L 770.224787 400.29591 
L 771.00073 399.733812 
L 771.970659 399.593287 
L 772.35863 399.312238 
L 772.746602 399.171714 
L 774.686459 398.644747 
L 775.462402 395.658601 
L 776.432331 395.518076 
L 776.626317 395.447814 
L 778.178203 395.272158 
L 778.76016 395.061371 
L 778.954146 394.464142 
L 779.924074 394.39388 
L 780.506032 394.0777 
L 781.47596 393.726388 
L 781.669946 393.691257 
L 782.057918 393.304815 
L 782.445889 393.199421 
L 782.639875 392.953504 
L 783.415818 392.672454 
L 784.385747 392.53193 
L 784.579732 392.286012 
L 784.967704 392.250881 
L 785.16169 391.688783 
L 785.355675 391.618521 
L 785.549661 390.810504 
L 787.87749 390.283538 
L 788.459447 390.143013 
L 788.653433 389.721439 
L 790.011333 389.370128 
L 790.59329 389.159341 
L 791.369233 388.983686 
L 792.145176 388.772899 
L 793.115105 388.562112 
L 793.697062 388.386456 
L 795.054963 387.57844 
L 795.248948 386.875818 
L 796.218877 386.067802 
L 796.412863 385.71649 
L 797.382792 384.873343 
L 797.770763 384.135589 
L 797.964749 384.100458 
L 798.158735 383.397836 
L 798.934678 382.343902 
L 799.322649 382.168246 
L 799.710621 382.097984 
L 799.904606 381.781804 
L 800.292578 381.606148 
L 800.486564 381.254837 
L 801.456492 381.008919 
L 801.650478 380.692739 
L 803.008378 380.376558 
L 803.39635 380.200903 
L 803.590335 380.165772 
L 803.784321 379.990116 
L 804.75425 379.849591 
L 806.11215 379.217231 
L 806.694107 379.076706 
L 807.082079 378.26869 
L 807.47005 378.022773 
L 808.439979 377.249888 
L 808.633965 376.441872 
L 809.409908 376.195954 
L 810.573822 375.809511 
L 811.15578 375.071757 
L 811.543751 374.860971 
L 811.737737 374.82584 
L 812.125708 374.263741 
L 812.707666 374.052955 
L 813.095637 373.736774 
L 813.677594 373.455725 
L 814.065566 369.521039 
L 814.259552 368.221187 
L 814.453537 366.043057 
L 814.647523 365.762007 
L 815.423466 363.05691 
L 815.811438 362.354288 
L 816.005423 362.248894 
L 816.199409 362.002976 
L 816.393395 361.546272 
L 816.58738 359.965371 
L 816.781366 359.578928 
L 817.169338 359.438404 
L 818.333252 357.049487 
L 818.527238 356.873831 
L 818.721224 355.925291 
L 818.915209 355.573979 
L 819.303181 354.66057 
L 819.691152 354.098472 
L 820.467095 353.641767 
L 820.661081 353.43098 
L 820.855067 352.306784 
L 821.243038 352.131128 
L 821.63101 351.744686 
L 822.212967 350.93667 
L 822.406953 350.198916 
L 822.600939 350.163785 
L 823.182896 349.461162 
L 823.570867 349.3909 
L 823.764853 349.039589 
L 824.152825 348.793671 
L 824.34681 348.512622 
L 825.122753 345.772393 
L 825.316739 344.332017 
L 825.704711 343.594263 
L 825.898696 343.453739 
L 826.092682 343.137559 
L 826.674639 342.786247 
L 826.868625 342.434936 
L 827.256597 341.064822 
L 828.420511 340.432461 
L 828.808483 339.589314 
L 829.002468 339.44879 
L 829.972397 337.867889 
L 830.360369 337.657102 
L 831.136311 337.411184 
L 831.718269 336.286988 
L 832.494212 336.04107 
L 833.270155 335.127661 
L 833.658126 335.057398 
L 834.046098 334.635825 
L 834.628055 334.389907 
L 835.016026 334.319645 
L 835.210012 334.108858 
L 835.403998 333.441366 
L 836.179941 333.195448 
L 836.373927 332.844137 
L 836.567912 332.809006 
L 836.761898 332.176645 
L 837.343855 331.930728 
L 837.925813 331.790203 
L 838.313784 331.403761 
L 839.283713 330.911925 
L 839.671684 330.560613 
L 840.059656 330.314695 
L 840.447627 330.279564 
L 840.641613 329.331024 
L 841.029585 329.014844 
L 841.611542 328.733795 
L 842.193499 328.382483 
L 842.969442 328.241959 
L 843.163428 327.258287 
L 844.909299 326.309746 
L 845.297271 326.239484 
L 845.491257 325.923304 
L 846.2672 325.607124 
L 846.461185 325.220681 
L 846.849157 325.18555 
L 847.237128 324.939632 
L 847.819086 324.623452 
L 848.013071 324.131616 
L 848.789014 323.745174 
L 848.983 323.464125 
L 849.370972 323.358731 
L 849.564957 323.112813 
L 850.146915 322.796633 
L 850.3409 322.480453 
L 850.534886 322.410191 
L 850.922858 322.129142 
L 851.310829 321.953486 
L 851.504815 321.742699 
L 852.668729 321.391388 
L 852.862715 321.004946 
L 853.056701 320.899552 
L 854.02663 320.653634 
L 854.414601 320.337454 
L 854.802573 320.19693 
L 855.38453 320.021274 
L 855.578516 319.705094 
L 855.966487 319.634831 
L 856.160473 319.002471 
L 856.354459 318.861947 
L 856.74243 318.405242 
L 856.936416 317.351308 
L 857.324387 317.10539 
L 857.518373 316.964865 
L 857.712359 316.648685 
L 858.10033 316.402767 
L 858.876273 315.700145 
L 859.264245 315.524489 
L 859.45823 315.102915 
L 859.652216 315.032653 
L 860.040188 314.61108 
L 860.428159 314.365162 
L 861.010116 314.154375 
L 861.398088 313.69767 
L 863.531931 311.83572 
L 864.50186 311.589802 
L 865.083817 310.852048 
L 865.471789 310.430475 
L 866.053746 310.079164 
L 866.829689 309.762983 
L 867.023675 309.587328 
L 867.799618 309.271148 
L 868.187589 308.919836 
L 868.769546 308.709049 
L 869.351504 308.357738 
L 869.933461 308.11182 
L 870.127447 307.936165 
L 872.26129 307.057886 
L 872.455276 306.706575 
L 873.813176 306.144477 
L 874.395133 305.758034 
L 874.97709 305.476985 
L 875.171076 305.266198 
L 875.947019 305.055412 
L 876.141005 304.563576 
L 876.33499 302.982675 
L 876.722962 302.561101 
L 876.916948 302.52597 
L 878.080862 300.9802 
L 878.468834 299.926266 
L 878.856805 299.574955 
L 879.244777 299.329037 
L 879.632748 299.223644 
L 879.826734 298.942595 
L 880.214705 298.731808 
L 880.602677 298.380497 
L 880.990648 298.204841 
L 881.184634 298.134579 
L 881.572606 297.713005 
L 881.766591 297.677874 
L 881.960577 297.2563 
L 882.542534 297.045514 
L 882.930506 296.518547 
L 883.512463 296.061842 
L 883.900435 295.675399 
L 884.482392 295.570006 
L 884.676378 295.253826 
L 885.258335 295.043039 
L 885.646306 293.497269 
L 886.034278 293.145958 
L 887.198192 292.513598 
L 887.392178 291.9515 
L 887.780149 291.740713 
L 887.974135 291.248877 
L 888.168121 291.143483 
L 888.556092 290.72191 
L 888.944064 290.440861 
L 889.332035 290.265205 
L 890.107978 289.667976 
L 890.301964 289.597714 
L 891.077907 289.105878 
L 891.465879 288.2276 
L 891.659864 288.122206 
L 892.047836 288.051944 
L 892.241822 287.665501 
L 892.629793 287.489846 
L 893.017765 287.279059 
L 893.21175 286.646699 
L 893.987693 286.189994 
L 894.181679 285.557634 
L 894.957622 284.890142 
L 895.151608 284.855011 
L 895.539579 284.328044 
L 895.927551 284.011864 
L 896.121537 283.941601 
L 896.315522 283.59029 
L 896.703494 283.449766 
L 896.89748 282.782274 
L 897.285451 282.676881 
L 897.479437 282.360701 
L 897.673423 282.290438 
L 897.867408 281.552684 
L 898.25538 281.447291 
L 898.643351 281.201373 
L 899.031323 280.639275 
L 899.225309 280.498751 
L 900.001252 279.304292 
L 900.195237 279.23403 
L 900.583209 278.812456 
L 901.359152 278.250358 
L 901.941109 277.969309 
L 903.686981 276.14249 
L 904.074952 276.001966 
L 904.462924 275.580392 
L 904.850895 275.439868 
L 905.044881 274.59672 
L 905.626838 274.034622 
L 905.820824 273.332 
L 906.208795 272.945557 
L 906.402781 272.559115 
L 906.596767 272.523984 
L 907.566696 271.575443 
L 908.148653 271.224132 
L 908.342639 270.907952 
L 909.506553 270.521509 
L 910.08851 269.783755 
L 910.476482 269.116264 
L 910.864453 268.975739 
L 911.252425 268.554166 
L 911.446411 268.308248 
L 911.640396 268.273117 
L 911.834382 267.851543 
L 912.610325 267.324576 
L 913.192282 266.867871 
L 913.968225 266.481429 
L 914.550183 265.989593 
L 915.13214 265.708544 
L 915.326125 265.357233 
L 915.714097 265.28697 
L 916.296054 264.724872 
L 916.49004 264.408692 
L 917.071997 264.127643 
L 917.653954 263.741201 
L 918.041926 263.600676 
L 918.429897 263.179103 
L 919.399826 262.617004 
L 919.593812 262.371087 
L 920.369755 262.019775 
L 920.563741 260.403743 
L 921.533669 259.701121 
L 922.309612 258.295875 
L 922.503598 258.155351 
L 922.697584 257.698646 
L 923.085555 257.52299 
L 923.861498 256.328532 
L 924.24947 254.677369 
L 924.443456 254.115271 
L 924.831427 251.480436 
L 925.025413 250.426502 
L 925.995342 249.161781 
L 926.771285 245.999979 
L 926.96527 245.824323 
L 927.159256 245.332488 
L 927.353242 243.611062 
L 927.547228 242.978702 
L 927.741213 242.908439 
L 927.935199 242.135555 
L 928.517156 241.643719 
L 928.905128 240.308736 
L 929.875056 239.781769 
L 930.069042 239.430457 
L 931.038971 238.90349 
L 931.426942 238.481917 
L 931.620928 238.095474 
L 931.814914 237.111803 
L 932.0089 236.72536 
L 932.396871 236.584836 
L 932.784843 236.40918 
L 933.172814 236.128131 
L 933.560786 235.847082 
L 933.948757 235.77682 
L 934.336729 235.566033 
L 934.7247 235.320115 
L 934.918686 235.17959 
L 935.306657 235.144459 
L 938.604415 232.298838 
L 938.798401 232.193444 
L 938.992387 231.350297 
L 939.574344 230.753068 
L 939.962315 230.647674 
L 941.12623 229.664003 
L 941.514201 229.488347 
L 941.708187 229.418085 
L 942.096159 228.996511 
L 942.48413 228.891118 
L 942.678116 228.399282 
L 942.872102 228.223626 
L 943.066087 227.661528 
L 943.454059 227.41561 
L 944.036016 226.115758 
L 944.230002 225.413136 
L 944.811959 224.991562 
L 945.393916 224.183546 
L 945.781888 222.813432 
L 945.975873 222.391858 
L 946.169859 221.654105 
L 946.363845 221.583842 
L 946.557831 220.986613 
L 946.945802 220.740695 
L 948.109717 219.511106 
L 948.303702 219.01927 
L 948.88566 218.70309 
L 949.079645 218.211254 
L 949.855588 217.895074 
L 950.049574 217.649156 
L 950.24356 217.614025 
L 950.437546 216.876271 
L 950.825517 216.630353 
L 951.019503 216.173648 
L 951.213489 216.033124 
L 951.60146 215.997993 
L 952.765375 215.084583 
L 953.347332 214.627878 
L 953.735303 214.171174 
L 954.123275 213.784731 
L 954.317261 213.398289 
L 954.511246 212.625404 
L 955.675161 211.957912 
L 956.063132 211.079634 
L 956.451104 210.903978 
L 956.64509 210.377011 
L 956.839075 210.271618 
L 957.615018 209.323077 
L 958.584947 208.690717 
L 959.748861 207.496259 
L 960.330819 206.723374 
L 960.524804 206.231538 
L 960.71879 205.388391 
L 961.106762 204.720899 
L 961.300747 204.264194 
L 962.270676 199.099918 
L 962.464662 198.818869 
L 962.658648 198.291902 
L 962.852633 196.394821 
L 963.046619 192.741183 
L 963.240605 191.300807 
L 963.434591 188.982152 
L 963.628576 188.349792 
L 964.016548 185.714957 
L 964.404519 182.131581 
L 964.792491 177.283485 
L 965.180462 176.545731 
L 965.568434 170.29239 
L 965.76242 168.641227 
L 966.150391 161.509607 
L 966.538363 160.139493 
L 966.732348 156.556117 
L 966.926334 155.748101 
L 967.314306 151.778284 
L 967.702277 141.098419 
L 968.090249 139.447256 
L 968.284234 136.14493 
L 968.47822 135.793619 
L 968.866192 130.418555 
L 969.060177 130.313162 
L 969.254163 129.961851 
L 969.642135 128.69713 
L 969.83612 128.38095 
L 970.030106 127.78372 
L 970.224092 126.659524 
L 970.612063 126.448737 
L 970.806049 125.886639 
L 971.194021 124.130083 
L 971.581992 120.61697 
L 971.775978 119.844085 
L 971.969963 119.773822 
L 972.163949 119.457642 
L 973.133878 116.471496 
L 973.327864 116.330972 
L 973.521849 115.593218 
L 973.909821 115.241906 
L 974.103807 115.101382 
L 974.297792 114.574415 
L 974.491778 114.398759 
L 975.267721 113.204301 
L 975.849678 112.57194 
L 976.043664 112.501678 
L 977.013593 111.131564 
L 977.401564 110.955908 
L 977.983522 110.885646 
L 978.371493 110.358679 
L 978.759465 110.253286 
L 979.341422 109.515532 
L 980.117365 109.058827 
L 980.893308 108.075156 
L 981.087294 107.548189 
L 981.863237 107.302271 
L 982.251208 106.950959 
L 982.63918 106.248337 
L 983.027151 105.932156 
L 983.221137 105.686239 
L 983.415123 104.667436 
L 983.803094 103.999944 
L 984.385051 103.754026 
L 984.773023 103.437846 
L 985.160994 103.051404 
L 985.548966 102.700092 
L 986.130923 102.137994 
L 986.324909 101.962339 
L 986.518894 101.119191 
L 987.100852 100.697618 
L 987.876795 99.749077 
L 988.264766 99.432897 
L 989.234695 98.519488 
L 989.622666 98.343832 
L 989.816652 98.168176 
L 990.398609 97.95739 
L 990.786581 96.657538 
L 990.980567 96.552144 
L 991.562524 95.638735 
L 992.144481 94.971243 
L 992.338467 94.86585 
L 992.920424 93.741654 
L 993.308396 92.336408 
L 993.696367 92.195884 
L 993.890353 91.739179 
L 995.248253 90.82577 
L 996.024196 89.455656 
L 996.218182 89.28 
L 996.218182 89.28 
" clip-path="url(#paf2fd2cd51)" style="fill: none; stroke: #1f77b4; stroke-width: 1.5; stroke-linecap: square"/>
   </g>
   <g id="patch_3">
    <path d="M 144 512.64 
L 144 69.12 
" style="fill: none; stroke: #000000; stroke-width: 0.8; stroke-linejoin: miter; stroke-linecap: square"/>
   </g>
   <g id="patch_4">
    <path d="M 1036.8 512.64 
L 1036.8 69.12 
" style="fill: none; stroke: #000000; stroke-width: 0.8; stroke-linejoin: miter; stroke-linecap: square"/>
   </g>
   <g id="patch_5">
    <path d="M 144 512.64 
L 1036.8 512.64 
" style="fill: none; stroke: #000000; stroke-width: 0.8; stroke-linejoin: miter; stroke-linecap: square"/>
   </g>
   <g id="patch_6">
    <path d="M 144 69.12 
L 1036.8 69.12 
" style="fill: none; stroke: #000000; stroke-width: 0.8; stroke-linejoin: miter; stroke-linecap: square"/>
   </g>
   <g id="text_15">
    <!-- Number of AEDs in the OpenStreetMap database in Poland from first edition, day by day. As at: 2025-07-26 -->
    <g transform="translate(144 63.12) scale(0.14 -0.14)">
     <defs>
      <path id="DejaVuSans-4e" d="M 628 4666 
L 1478 4666 
L 3547 763 
L 3547 4666 
L 4159 4666 
L 4159 0 
L 3309 0 
L 1241 3903 
L 1241 0 
L 628 0 
L 628 4666 
z
" transform="scale(0.015625)"/>
      <path id="DejaVuSans-75" d="M 544 1381 
L 544 3500 
L 1119 3500 
L 1119 1403 
Q 1119 906 1312 657 
Q 1506 409 1894 409 
Q 2359 409 2629 706 
Q 2900 1003 2900 1516 
L 2900 3500 
L 3475 3500 
L 3475 0 
L 2900 0 
L 2900 538 
Q 2691 219 2414 64 
Q 2138 -91 1772 -91 
Q 1169 -91 856 284 
Q 544 659 544 1381 
z
M 1991 3584 
L 1991 3584 
z
" transform="scale(0.015625)"/>
      <path id="DejaVuSans-6d" d="M 3328 2828 
Q 3544 3216 3844 3400 
Q 4144 3584 4550 3584 
Q 5097 3584 5394 3201 
Q 5691 2819 5691 2113 
L 5691 0 
L 5113 0 
L 5113 2094 
Q 5113 2597 4934 2840 
Q 4756 3084 4391 3084 
Q 3944 3084 3684 2787 
Q 3425 2491 3425 1978 
L 3425 0 
L 2847 0 
L 2847 2094 
Q 2847 2600 2669 2842 
Q 2491 3084 2119 3084 
Q 1678 3084 1418 2786 
Q 1159 2488 1159 1978 
L 1159 0 
L 581 0 
L 581 3500 
L 1159 3500 
L 1159 2956 
Q 1356 3278 1631 3431 
Q 1906 3584 2284 3584 
Q 2666 3584 2933 3390 
Q 3200 3197 3328 2828 
z
" transform="scale(0.015625)"/>
      <path id="DejaVuSans-62" d="M 3116 1747 
Q 3116 2381 2855 2742 
Q 2594 3103 2138 3103 
Q 1681 3103 1420 2742 
Q 1159 2381 1159 1747 
Q 1159 1113 1420 752 
Q 1681 391 2138 391 
Q 2594 391 2855 752 
Q 3116 1113 3116 1747 
z
M 1159 2969 
Q 1341 3281 1617 3432 
Q 1894 3584 2278 3584 
Q 2916 3584 3314 3078 
Q 3713 2572 3713 1747 
Q 3713 922 3314 415 
Q 2916 -91 2278 -91 
Q 1894 -91 1617 61 
Q 1341 213 1159 525 
L 1159 0 
L 581 0 
L 581 4863 
L 1159 4863 
L 1159 2969 
z
" transform="scale(0.015625)"/>
      <path id="DejaVuSans-65" d="M 3597 1894 
L 3597 1613 
L 953 1613 
Q 991 1019 1311 708 
Q 1631 397 2203 397 
Q 2534 397 2845 478 
Q 3156 559 3463 722 
L 3463 178 
Q 3153 47 2828 -22 
Q 2503 -91 2169 -91 
Q 1331 -91 842 396 
Q 353 884 353 1716 
Q 353 2575 817 3079 
Q 1281 3584 2069 3584 
Q 2775 3584 3186 3129 
Q 3597 2675 3597 1894 
z
M 3022 2063 
Q 3016 2534 2758 2815 
Q 2500 3097 2075 3097 
Q 1594 3097 1305 2825 
Q 1016 2553 972 2059 
L 3022 2063 
z
" transform="scale(0.015625)"/>
      <path id="DejaVuSans-72" d="M 2631 2963 
Q 2534 3019 2420 3045 
Q 2306 3072 2169 3072 
Q 1681 3072 1420 2755 
Q 1159 2438 1159 1844 
L 1159 0 
L 581 0 
L 581 3500 
L 1159 3500 
L 1159 2956 
Q 1341 3275 1631 3429 
Q 1922 3584 2338 3584 
Q 2397 3584 2469 3576 
Q 2541 3569 2628 3553 
L 2631 2963 
z
" transform="scale(0.015625)"/>
      <path id="DejaVuSans-20" transform="scale(0.015625)"/>
      <path id="DejaVuSans-6f" d="M 1959 3097 
Q 1497 3097 1228 2736 
Q 959 2375 959 1747 
Q 959 1119 1226 758 
Q 1494 397 1959 397 
Q 2419 397 2687 759 
Q 2956 1122 2956 1747 
Q 2956 2369 2687 2733 
Q 2419 3097 1959 3097 
z
M 1959 3584 
Q 2709 3584 3137 3096 
Q 3566 2609 3566 1747 
Q 3566 888 3137 398 
Q 2709 -91 1959 -91 
Q 1206 -91 779 398 
Q 353 888 353 1747 
Q 353 2609 779 3096 
Q 1206 3584 1959 3584 
z
" transform="scale(0.015625)"/>
      <path id="DejaVuSans-66" d="M 2375 4863 
L 2375 4384 
L 1825 4384 
Q 1516 4384 1395 4259 
Q 1275 4134 1275 3809 
L 1275 3500 
L 2222 3500 
L 2222 3053 
L 1275 3053 
L 1275 0 
L 697 0 
L 697 3053 
L 147 3053 
L 147 3500 
L 697 3500 
L 697 3744 
Q 697 4328 969 4595 
Q 1241 4863 1831 4863 
L 2375 4863 
z
" transform="scale(0.015625)"/>
      <path id="DejaVuSans-41" d="M 2188 4044 
L 1331 1722 
L 3047 1722 
L 2188 4044 
z
M 1831 4666 
L 2547 4666 
L 4325 0 
L 3669 0 
L 3244 1197 
L 1141 1197 
L 716 0 
L 50 0 
L 1831 4666 
z
" transform="scale(0.015625)"/>
      <path id="DejaVuSans-45" d="M 628 4666 
L 3578 4666 
L 3578 4134 
L 1259 4134 
L 1259 2753 
L 3481 2753 
L 3481 2222 
L 1259 2222 
L 1259 531 
L 3634 531 
L 3634 0 
L 628 0 
L 628 4666 
z
" transform="scale(0.015625)"/>
      <path id="DejaVuSans-44" d="M 1259 4147 
L 1259 519 
L 2022 519 
Q 2988 519 3436 956 
Q 3884 1394 3884 2338 
Q 3884 3275 3436 3711 
Q 2988 4147 2022 4147 
L 1259 4147 
z
M 628 4666 
L 1925 4666 
Q 3281 4666 3915 4102 
Q 4550 3538 4550 2338 
Q 4550 1131 3912 565 
Q 3275 0 1925 0 
L 628 0 
L 628 4666 
z
" transform="scale(0.015625)"/>
      <path id="DejaVuSans-73" d="M 2834 3397 
L 2834 2853 
Q 2591 2978 2328 3040 
Q 2066 3103 1784 3103 
Q 1356 3103 1142 2972 
Q 928 2841 928 2578 
Q 928 2378 1081 2264 
Q 1234 2150 1697 2047 
L 1894 2003 
Q 2506 1872 2764 1633 
Q 3022 1394 3022 966 
Q 3022 478 2636 193 
Q 2250 -91 1575 -91 
Q 1294 -91 989 -36 
Q 684 19 347 128 
L 347 722 
Q 666 556 975 473 
Q 1284 391 1588 391 
Q 1994 391 2212 530 
Q 2431 669 2431 922 
Q 2431 1156 2273 1281 
Q 2116 1406 1581 1522 
L 1381 1569 
Q 847 1681 609 1914 
Q 372 2147 372 2553 
Q 372 3047 722 3315 
Q 1072 3584 1716 3584 
Q 2034 3584 2315 3537 
Q 2597 3491 2834 3397 
z
" transform="scale(0.015625)"/>
      <path id="DejaVuSans-69" d="M 603 3500 
L 1178 3500 
L 1178 0 
L 603 0 
L 603 3500 
z
M 603 4863 
L 1178 4863 
L 1178 4134 
L 603 4134 
L 603 4863 
z
" transform="scale(0.015625)"/>
      <path id="DejaVuSans-6e" d="M 3513 2113 
L 3513 0 
L 2938 0 
L 2938 2094 
Q 2938 2591 2744 2837 
Q 2550 3084 2163 3084 
Q 1697 3084 1428 2787 
Q 1159 2491 1159 1978 
L 1159 0 
L 581 0 
L 581 3500 
L 1159 3500 
L 1159 2956 
Q 1366 3272 1645 3428 
Q 1925 3584 2291 3584 
Q 2894 3584 3203 3211 
Q 3513 2838 3513 2113 
z
" transform="scale(0.015625)"/>
      <path id="DejaVuSans-74" d="M 1172 4494 
L 1172 3500 
L 2356 3500 
L 2356 3053 
L 1172 3053 
L 1172 1153 
Q 1172 725 1289 603 
Q 1406 481 1766 481 
L 2356 481 
L 2356 0 
L 1766 0 
Q 1100 0 847 248 
Q 594 497 594 1153 
L 594 3053 
L 172 3053 
L 172 3500 
L 594 3500 
L 594 4494 
L 1172 4494 
z
" transform="scale(0.015625)"/>
      <path id="DejaVuSans-68" d="M 3513 2113 
L 3513 0 
L 2938 0 
L 2938 2094 
Q 2938 2591 2744 2837 
Q 2550 3084 2163 3084 
Q 1697 3084 1428 2787 
Q 1159 2491 1159 1978 
L 1159 0 
L 581 0 
L 581 4863 
L 1159 4863 
L 1159 2956 
Q 1366 3272 1645 3428 
Q 1925 3584 2291 3584 
Q 2894 3584 3203 3211 
Q 3513 2838 3513 2113 
z
" transform="scale(0.015625)"/>
      <path id="DejaVuSans-4f" d="M 2522 4238 
Q 1834 4238 1429 3725 
Q 1025 3213 1025 2328 
Q 1025 1447 1429 934 
Q 1834 422 2522 422 
Q 3209 422 3611 934 
Q 4013 1447 4013 2328 
Q 4013 3213 3611 3725 
Q 3209 4238 2522 4238 
z
M 2522 4750 
Q 3503 4750 4090 4092 
Q 4678 3434 4678 2328 
Q 4678 1225 4090 567 
Q 3503 -91 2522 -91 
Q 1538 -91 948 565 
Q 359 1222 359 2328 
Q 359 3434 948 4092 
Q 1538 4750 2522 4750 
z
" transform="scale(0.015625)"/>
      <path id="DejaVuSans-70" d="M 1159 525 
L 1159 -1331 
L 581 -1331 
L 581 3500 
L 1159 3500 
L 1159 2969 
Q 1341 3281 1617 3432 
Q 1894 3584 2278 3584 
Q 2916 3584 3314 3078 
Q 3713 2572 3713 1747 
Q 3713 922 3314 415 
Q 2916 -91 2278 -91 
Q 1894 -91 1617 61 
Q 1341 213 1159 525 
z
M 3116 1747 
Q 3116 2381 2855 2742 
Q 2594 3103 2138 3103 
Q 1681 3103 1420 2742 
Q 1159 2381 1159 1747 
Q 1159 1113 1420 752 
Q 1681 391 2138 391 
Q 2594 391 2855 752 
Q 3116 1113 3116 1747 
z
" transform="scale(0.015625)"/>
      <path id="DejaVuSans-53" d="M 3425 4513 
L 3425 3897 
Q 3066 4069 2747 4153 
Q 2428 4238 2131 4238 
Q 1616 4238 1336 4038 
Q 1056 3838 1056 3469 
Q 1056 3159 1242 3001 
Q 1428 2844 1947 2747 
L 2328 2669 
Q 3034 2534 3370 2195 
Q 3706 1856 3706 1288 
Q 3706 609 3251 259 
Q 2797 -91 1919 -91 
Q 1588 -91 1214 -16 
Q 841 59 441 206 
L 441 856 
Q 825 641 1194 531 
Q 1563 422 1919 422 
Q 2459 422 2753 634 
Q 3047 847 3047 1241 
Q 3047 1584 2836 1778 
Q 2625 1972 2144 2069 
L 1759 2144 
Q 1053 2284 737 2584 
Q 422 2884 422 3419 
Q 422 4038 858 4394 
Q 1294 4750 2059 4750 
Q 2388 4750 2728 4690 
Q 3069 4631 3425 4513 
z
" transform="scale(0.015625)"/>
      <path id="DejaVuSans-4d" d="M 628 4666 
L 1569 4666 
L 2759 1491 
L 3956 4666 
L 4897 4666 
L 4897 0 
L 4281 0 
L 4281 4097 
L 3078 897 
L 2444 897 
L 1241 4097 
L 1241 0 
L 628 0 
L 628 4666 
z
" transform="scale(0.015625)"/>
      <path id="DejaVuSans-61" d="M 2194 1759 
Q 1497 1759 1228 1600 
Q 959 1441 959 1056 
Q 959 750 1161 570 
Q 1363 391 1709 391 
Q 2188 391 2477 730 
Q 2766 1069 2766 1631 
L 2766 1759 
L 2194 1759 
z
M 3341 1997 
L 3341 0 
L 2766 0 
L 2766 531 
Q 2569 213 2275 61 
Q 1981 -91 1556 -91 
Q 1019 -91 701 211 
Q 384 513 384 1019 
Q 384 1609 779 1909 
Q 1175 2209 1959 2209 
L 2766 2209 
L 2766 2266 
Q 2766 2663 2505 2880 
Q 2244 3097 1772 3097 
Q 1472 3097 1187 3025 
Q 903 2953 641 2809 
L 641 3341 
Q 956 3463 1253 3523 
Q 1550 3584 1831 3584 
Q 2591 3584 2966 3190 
Q 3341 2797 3341 1997 
z
" transform="scale(0.015625)"/>
      <path id="DejaVuSans-64" d="M 2906 2969 
L 2906 4863 
L 3481 4863 
L 3481 0 
L 2906 0 
L 2906 525 
Q 2725 213 2448 61 
Q 2172 -91 1784 -91 
Q 1150 -91 751 415 
Q 353 922 353 1747 
Q 353 2572 751 3078 
Q 1150 3584 1784 3584 
Q 2172 3584 2448 3432 
Q 2725 3281 2906 2969 
z
M 947 1747 
Q 947 1113 1208 752 
Q 1469 391 1925 391 
Q 2381 391 2643 752 
Q 2906 1113 2906 1747 
Q 2906 2381 2643 2742 
Q 2381 3103 1925 3103 
Q 1469 3103 1208 2742 
Q 947 2381 947 1747 
z
" transform="scale(0.015625)"/>
      <path id="DejaVuSans-50" d="M 1259 4147 
L 1259 2394 
L 2053 2394 
Q 2494 2394 2734 2622 
Q 2975 2850 2975 3272 
Q 2975 3691 2734 3919 
Q 2494 4147 2053 4147 
L 1259 4147 
z
M 628 4666 
L 2053 4666 
Q 2838 4666 3239 4311 
Q 3641 3956 3641 3272 
Q 3641 2581 3239 2228 
Q 2838 1875 2053 1875 
L 1259 1875 
L 1259 0 
L 628 0 
L 628 4666 
z
" transform="scale(0.015625)"/>
      <path id="DejaVuSans-6c" d="M 603 4863 
L 1178 4863 
L 1178 0 
L 603 0 
L 603 4863 
z
" transform="scale(0.015625)"/>
      <path id="DejaVuSans-2c" d="M 750 794 
L 1409 794 
L 1409 256 
L 897 -744 
L 494 -744 
L 750 256 
L 750 794 
z
" transform="scale(0.015625)"/>
      <path id="DejaVuSans-79" d="M 2059 -325 
Q 1816 -950 1584 -1140 
Q 1353 -1331 966 -1331 
L 506 -1331 
L 506 -850 
L 844 -850 
Q 1081 -850 1212 -737 
Q 1344 -625 1503 -206 
L 1606 56 
L 191 3500 
L 800 3500 
L 1894 763 
L 2988 3500 
L 3597 3500 
L 2059 -325 
z
" transform="scale(0.015625)"/>
      <path id="DejaVuSans-2e" d="M 684 794 
L 1344 794 
L 1344 0 
L 684 0 
L 684 794 
z
" transform="scale(0.015625)"/>
      <path id="DejaVuSans-3a" d="M 750 794 
L 1409 794 
L 1409 0 
L 750 0 
L 750 794 
z
M 750 3309 
L 1409 3309 
L 1409 2516 
L 750 2516 
L 750 3309 
z
" transform="scale(0.015625)"/>
      <path id="DejaVuSans-35" d="M 691 4666 
L 3169 4666 
L 3169 4134 
L 1269 4134 
L 1269 2991 
Q 1406 3038 1543 3061 
Q 1681 3084 1819 3084 
Q 2600 3084 3056 2656 
Q 3513 2228 3513 1497 
Q 3513 744 3044 326 
Q 2575 -91 1722 -91 
Q 1428 -91 1123 -41 
Q 819 9 494 109 
L 494 744 
Q 775 591 1075 516 
Q 1375 441 1709 441 
Q 2250 441 2565 725 
Q 2881 1009 2881 1497 
Q 2881 1984 2565 2268 
Q 2250 2553 1709 2553 
Q 1456 2553 1204 2497 
Q 953 2441 691 2322 
L 691 4666 
z
" transform="scale(0.015625)"/>
      <path id="DejaVuSans-2d" d="M 313 2009 
L 1997 2009 
L 1997 1497 
L 313 1497 
L 313 2009 
z
" transform="scale(0.015625)"/>
      <path id="DejaVuSans-37" d="M 525 4666 
L 3525 4666 
L 3525 4397 
L 1831 0 
L 1172 0 
L 2766 4134 
L 525 4134 
L 525 4666 
z
" transform="scale(0.015625)"/>
     </defs>
     <use xlink:href="#DejaVuSans-4e"/>
     <use xlink:href="#DejaVuSans-75" x="74.804688"/>
     <use xlink:href="#DejaVuSans-6d" x="138.183594"/>
     <use xlink:href="#DejaVuSans-62" x="235.595703"/>
     <use xlink:href="#DejaVuSans-65" x="299.072266"/>
     <use xlink:href="#DejaVuSans-72" x="360.595703"/>
     <use xlink:href="#DejaVuSans-20" x="401.708984"/>
     <use xlink:href="#DejaVuSans-6f" x="433.496094"/>
     <use xlink:href="#DejaVuSans-66" x="494.677734"/>
     <use xlink:href="#DejaVuSans-20" x="529.882812"/>
     <use xlink:href="#DejaVuSans-41" x="561.669922"/>
     <use xlink:href="#DejaVuSans-45" x="630.078125"/>
     <use xlink:href="#DejaVuSans-44" x="693.261719"/>
     <use xlink:href="#DejaVuSans-73" x="770.263672"/>
     <use xlink:href="#DejaVuSans-20" x="822.363281"/>
     <use xlink:href="#DejaVuSans-69" x="854.150391"/>
     <use xlink:href="#DejaVuSans-6e" x="881.933594"/>
     <use xlink:href="#DejaVuSans-20" x="945.3125"/>
     <use xlink:href="#DejaVuSans-74" x="977.099609"/>
     <use xlink:href="#DejaVuSans-68" x="1016.308594"/>
     <use xlink:href="#DejaVuSans-65" x="1079.6875"/>
     <use xlink:href="#DejaVuSans-20" x="1141.210938"/>
     <use xlink:href="#DejaVuSans-4f" x="1172.998047"/>
     <use xlink:href="#DejaVuSans-70" x="1251.708984"/>
     <use xlink:href="#DejaVuSans-65" x="1315.185547"/>
     <use xlink:href="#DejaVuSans-6e" x="1376.708984"/>
     <use xlink:href="#DejaVuSans-53" x="1440.087891"/>
     <use xlink:href="#DejaVuSans-74" x="1503.564453"/>
     <use xlink:href="#DejaVuSans-72" x="1542.773438"/>
     <use xlink:href="#DejaVuSans-65" x="1581.636719"/>
     <use xlink:href="#DejaVuSans-65" x="1643.160156"/>
     <use xlink:href="#DejaVuSans-74" x="1704.683594"/>
     <use xlink:href="#DejaVuSans-4d" x="1743.892578"/>
     <use xlink:href="#DejaVuSans-61" x="1830.171875"/>
     <use xlink:href="#DejaVuSans-70" x="1891.451172"/>
     <use xlink:href="#DejaVuSans-20" x="1954.927734"/>
     <use xlink:href="#DejaVuSans-64" x="1986.714844"/>
     <use xlink:href="#DejaVuSans-61" x="2050.191406"/>
     <use xlink:href="#DejaVuSans-74" x="2111.470703"/>
     <use xlink:href="#DejaVuSans-61" x="2150.679688"/>
     <use xlink:href="#DejaVuSans-62" x="2211.958984"/>
     <use xlink:href="#DejaVuSans-61" x="2275.435547"/>
     <use xlink:href="#DejaVuSans-73" x="2336.714844"/>
     <use xlink:href="#DejaVuSans-65" x="2388.814453"/>
     <use xlink:href="#DejaVuSans-20" x="2450.337891"/>
     <use xlink:href="#DejaVuSans-69" x="2482.125"/>
     <use xlink:href="#DejaVuSans-6e" x="2509.908203"/>
     <use xlink:href="#DejaVuSans-20" x="2573.287109"/>
     <use xlink:href="#DejaVuSans-50" x="2605.074219"/>
     <use xlink:href="#DejaVuSans-6f" x="2661.751953"/>
     <use xlink:href="#DejaVuSans-6c" x="2722.933594"/>
     <use xlink:href="#DejaVuSans-61" x="2750.716797"/>
     <use xlink:href="#DejaVuSans-6e" x="2811.996094"/>
     <use xlink:href="#DejaVuSans-64" x="2875.375"/>
     <use xlink:href="#DejaVuSans-20" x="2938.851562"/>
     <use xlink:href="#DejaVuSans-66" x="2970.638672"/>
     <use xlink:href="#DejaVuSans-72" x="3005.84375"/>
     <use xlink:href="#DejaVuSans-6f" x="3044.707031"/>
     <use xlink:href="#DejaVuSans-6d" x="3105.888672"/>
     <use xlink:href="#DejaVuSans-20" x="3203.300781"/>
     <use xlink:href="#DejaVuSans-66" x="3235.087891"/>
     <use xlink:href="#DejaVuSans-69" x="3270.292969"/>
     <use xlink:href="#DejaVuSans-72" x="3298.076172"/>
     <use xlink:href="#DejaVuSans-73" x="3339.189453"/>
     <use xlink:href="#DejaVuSans-74" x="3391.289062"/>
     <use xlink:href="#DejaVuSans-20" x="3430.498047"/>
     <use xlink:href="#DejaVuSans-65" x="3462.285156"/>
     <use xlink:href="#DejaVuSans-64" x="3523.808594"/>
     <use xlink:href="#DejaVuSans-69" x="3587.285156"/>
     <use xlink:href="#DejaVuSans-74" x="3615.068359"/>
     <use xlink:href="#DejaVuSans-69" x="3654.277344"/>
     <use xlink:href="#DejaVuSans-6f" x="3682.060547"/>
     <use xlink:href="#DejaVuSans-6e" x="3743.242188"/>
     <use xlink:href="#DejaVuSans-2c" x="3806.621094"/>
     <use xlink:href="#DejaVuSans-20" x="3838.408203"/>
     <use xlink:href="#DejaVuSans-64" x="3870.195312"/>
     <use xlink:href="#DejaVuSans-61" x="3933.671875"/>
     <use xlink:href="#DejaVuSans-79" x="3994.951172"/>
     <use xlink:href="#DejaVuSans-20" x="4054.130859"/>
     <use xlink:href="#DejaVuSans-62" x="4085.917969"/>
     <use xlink:href="#DejaVuSans-79" x="4149.394531"/>
     <use xlink:href="#DejaVuSans-20" x="4208.574219"/>
     <use xlink:href="#DejaVuSans-64" x="4240.361328"/>
     <use xlink:href="#DejaVuSans-61" x="4303.837891"/>
     <use xlink:href="#DejaVuSans-79" x="4365.117188"/>
     <use xlink:href="#DejaVuSans-2e" x="4410.046875"/>
     <use xlink:href="#DejaVuSans-20" x="4441.833984"/>
     <use xlink:href="#DejaVuSans-41" x="4473.621094"/>
     <use xlink:href="#DejaVuSans-73" x="4542.029297"/>
     <use xlink:href="#DejaVuSans-20" x="4594.128906"/>
     <use xlink:href="#DejaVuSans-61" x="4625.916016"/>
     <use xlink:href="#DejaVuSans-74" x="4687.195312"/>
     <use xlink:href="#DejaVuSans-3a" x="4726.404297"/>
     <use xlink:href="#DejaVuSans-20" x="4760.095703"/>
     <use xlink:href="#DejaVuSans-32" x="4791.882812"/>
     <use xlink:href="#DejaVuSans-30" x="4855.505859"/>
     <use xlink:href="#DejaVuSans-32" x="4919.128906"/>
     <use xlink:href="#DejaVuSans-35" x="4982.751953"/>
     <use xlink:href="#DejaVuSans-2d" x="5046.375"/>
     <use xlink:href="#DejaVuSans-30" x="5082.458984"/>
     <use xlink:href="#DejaVuSans-37" x="5146.082031"/>
     <use xlink:href="#DejaVuSans-2d" x="5209.705078"/>
     <use xlink:href="#DejaVuSans-32" x="5245.789062"/>
     <use xlink:href="#DejaVuSans-36" x="5309.412109"/>
    </g>
   </g>
  </g>
 </g>
 <defs>
  <clipPath id="paf2fd2cd51">
   <rect x="144" y="69.12" width="892.8" height="443.52"/>
  </clipPath>
 </defs>
</svg>
