<?xml version="1.0" encoding="utf-8" standalone="no"?>
<!DOCTYPE svg PUBLIC "-//W3C//DTD SVG 1.1//EN"
  "http://www.w3.org/Graphics/SVG/1.1/DTD/svg11.dtd">
<svg xmlns:xlink="http://www.w3.org/1999/xlink" width="1152pt" height="576pt" viewBox="0 0 1152 576" xmlns="http://www.w3.org/2000/svg" version="1.1">
 <metadata>
  <rdf:RDF xmlns:dc="http://purl.org/dc/elements/1.1/" xmlns:cc="http://creativecommons.org/ns#" xmlns:rdf="http://www.w3.org/1999/02/22-rdf-syntax-ns#">
   <cc:Work>
    <dc:type rdf:resource="http://purl.org/dc/dcmitype/StillImage"/>
    <dc:date>1980-01-01T00:00:00+00:00</dc:date>
    <dc:format>image/svg+xml</dc:format>
    <dc:creator>
     <cc:Agent>
      <dc:title>Matplotlib v3.9.1, https://matplotlib.org/</dc:title>
     </cc:Agent>
    </dc:creator>
   </cc:Work>
  </rdf:RDF>
 </metadata>
 <defs>
  <style type="text/css">*{stroke-linejoin: round; stroke-linecap: butt}</style>
 </defs>
 <g id="figure_1">
  <g id="patch_1">
   <path d="M 0 576 
L 1152 576 
L 1152 0 
L 0 0 
z
" style="fill: #ffffff"/>
  </g>
  <g id="axes_1">
   <g id="patch_2">
    <path d="M 144 512.64 
L 1036.8 512.64 
L 1036.8 69.12 
L 144 69.12 
z
" style="fill: #ffffff"/>
   </g>
   <g id="matplotlib.axis_1">
    <g id="xtick_1">
     <g id="line2d_1">
      <defs>
       <path id="me51c180a3e" d="M 0 0 
L 0 3.5 
" style="stroke: #000000; stroke-width: 0.8"/>
      </defs>
      <g>
       <use xlink:href="#me51c180a3e" x="177.022923" y="512.64" style="stroke: #000000; stroke-width: 0.8"/>
      </g>
     </g>
     <g id="text_1">
      <!-- 2014 -->
      <g transform="translate(164.297923 527.238438) scale(0.1 -0.1)">
       <defs>
        <path id="DejaVuSans-32" d="M 1228 531 
L 3431 531 
L 3431 0 
L 469 0 
L 469 531 
Q 828 903 1448 1529 
Q 2069 2156 2228 2338 
Q 2531 2678 2651 2914 
Q 2772 3150 2772 3378 
Q 2772 3750 2511 3984 
Q 2250 4219 1831 4219 
Q 1534 4219 1204 4116 
Q 875 4013 500 3803 
L 500 4441 
Q 881 4594 1212 4672 
Q 1544 4750 1819 4750 
Q 2544 4750 2975 4387 
Q 3406 4025 3406 3419 
Q 3406 3131 3298 2873 
Q 3191 2616 2906 2266 
Q 2828 2175 2409 1742 
Q 1991 1309 1228 531 
z
" transform="scale(0.015625)"/>
        <path id="DejaVuSans-30" d="M 2034 4250 
Q 1547 4250 1301 3770 
Q 1056 3291 1056 2328 
Q 1056 1369 1301 889 
Q 1547 409 2034 409 
Q 2525 409 2770 889 
Q 3016 1369 3016 2328 
Q 3016 3291 2770 3770 
Q 2525 4250 2034 4250 
z
M 2034 4750 
Q 2819 4750 3233 4129 
Q 3647 3509 3647 2328 
Q 3647 1150 3233 529 
Q 2819 -91 2034 -91 
Q 1250 -91 836 529 
Q 422 1150 422 2328 
Q 422 3509 836 4129 
Q 1250 4750 2034 4750 
z
" transform="scale(0.015625)"/>
        <path id="DejaVuSans-31" d="M 794 531 
L 1825 531 
L 1825 4091 
L 703 3866 
L 703 4441 
L 1819 4666 
L 2450 4666 
L 2450 531 
L 3481 531 
L 3481 0 
L 794 0 
L 794 531 
z
" transform="scale(0.015625)"/>
        <path id="DejaVuSans-34" d="M 2419 4116 
L 825 1625 
L 2419 1625 
L 2419 4116 
z
M 2253 4666 
L 3047 4666 
L 3047 1625 
L 3713 1625 
L 3713 1100 
L 3047 1100 
L 3047 0 
L 2419 0 
L 2419 1100 
L 313 1100 
L 313 1709 
L 2253 4666 
z
" transform="scale(0.015625)"/>
       </defs>
       <use xlink:href="#DejaVuSans-32"/>
       <use xlink:href="#DejaVuSans-30" x="63.623047"/>
       <use xlink:href="#DejaVuSans-31" x="127.246094"/>
       <use xlink:href="#DejaVuSans-34" x="190.869141"/>
      </g>
     </g>
    </g>
    <g id="xtick_2">
     <g id="line2d_2">
      <g>
       <use xlink:href="#me51c180a3e" x="314.972759" y="512.64" style="stroke: #000000; stroke-width: 0.8"/>
      </g>
     </g>
     <g id="text_2">
      <!-- 2016 -->
      <g transform="translate(302.247759 527.238438) scale(0.1 -0.1)">
       <defs>
        <path id="DejaVuSans-36" d="M 2113 2584 
Q 1688 2584 1439 2293 
Q 1191 2003 1191 1497 
Q 1191 994 1439 701 
Q 1688 409 2113 409 
Q 2538 409 2786 701 
Q 3034 994 3034 1497 
Q 3034 2003 2786 2293 
Q 2538 2584 2113 2584 
z
M 3366 4563 
L 3366 3988 
Q 3128 4100 2886 4159 
Q 2644 4219 2406 4219 
Q 1781 4219 1451 3797 
Q 1122 3375 1075 2522 
Q 1259 2794 1537 2939 
Q 1816 3084 2150 3084 
Q 2853 3084 3261 2657 
Q 3669 2231 3669 1497 
Q 3669 778 3244 343 
Q 2819 -91 2113 -91 
Q 1303 -91 875 529 
Q 447 1150 447 2328 
Q 447 3434 972 4092 
Q 1497 4750 2381 4750 
Q 2619 4750 2861 4703 
Q 3103 4656 3366 4563 
z
" transform="scale(0.015625)"/>
       </defs>
       <use xlink:href="#DejaVuSans-32"/>
       <use xlink:href="#DejaVuSans-30" x="63.623047"/>
       <use xlink:href="#DejaVuSans-31" x="127.246094"/>
       <use xlink:href="#DejaVuSans-36" x="190.869141"/>
      </g>
     </g>
    </g>
    <g id="xtick_3">
     <g id="line2d_3">
      <g>
       <use xlink:href="#me51c180a3e" x="453.111567" y="512.64" style="stroke: #000000; stroke-width: 0.8"/>
      </g>
     </g>
     <g id="text_3">
      <!-- 2018 -->
      <g transform="translate(440.386567 527.238438) scale(0.1 -0.1)">
       <defs>
        <path id="DejaVuSans-38" d="M 2034 2216 
Q 1584 2216 1326 1975 
Q 1069 1734 1069 1313 
Q 1069 891 1326 650 
Q 1584 409 2034 409 
Q 2484 409 2743 651 
Q 3003 894 3003 1313 
Q 3003 1734 2745 1975 
Q 2488 2216 2034 2216 
z
M 1403 2484 
Q 997 2584 770 2862 
Q 544 3141 544 3541 
Q 544 4100 942 4425 
Q 1341 4750 2034 4750 
Q 2731 4750 3128 4425 
Q 3525 4100 3525 3541 
Q 3525 3141 3298 2862 
Q 3072 2584 2669 2484 
Q 3125 2378 3379 2068 
Q 3634 1759 3634 1313 
Q 3634 634 3220 271 
Q 2806 -91 2034 -91 
Q 1263 -91 848 271 
Q 434 634 434 1313 
Q 434 1759 690 2068 
Q 947 2378 1403 2484 
z
M 1172 3481 
Q 1172 3119 1398 2916 
Q 1625 2713 2034 2713 
Q 2441 2713 2670 2916 
Q 2900 3119 2900 3481 
Q 2900 3844 2670 4047 
Q 2441 4250 2034 4250 
Q 1625 4250 1398 4047 
Q 1172 3844 1172 3481 
z
" transform="scale(0.015625)"/>
       </defs>
       <use xlink:href="#DejaVuSans-32"/>
       <use xlink:href="#DejaVuSans-30" x="63.623047"/>
       <use xlink:href="#DejaVuSans-31" x="127.246094"/>
       <use xlink:href="#DejaVuSans-38" x="190.869141"/>
      </g>
     </g>
    </g>
    <g id="xtick_4">
     <g id="line2d_4">
      <g>
       <use xlink:href="#me51c180a3e" x="591.061403" y="512.64" style="stroke: #000000; stroke-width: 0.8"/>
      </g>
     </g>
     <g id="text_4">
      <!-- 2020 -->
      <g transform="translate(578.336403 527.238438) scale(0.1 -0.1)">
       <use xlink:href="#DejaVuSans-32"/>
       <use xlink:href="#DejaVuSans-30" x="63.623047"/>
       <use xlink:href="#DejaVuSans-32" x="127.246094"/>
       <use xlink:href="#DejaVuSans-30" x="190.869141"/>
      </g>
     </g>
    </g>
    <g id="xtick_5">
     <g id="line2d_5">
      <g>
       <use xlink:href="#me51c180a3e" x="729.200212" y="512.64" style="stroke: #000000; stroke-width: 0.8"/>
      </g>
     </g>
     <g id="text_5">
      <!-- 2022 -->
      <g transform="translate(716.475212 527.238438) scale(0.1 -0.1)">
       <use xlink:href="#DejaVuSans-32"/>
       <use xlink:href="#DejaVuSans-30" x="63.623047"/>
       <use xlink:href="#DejaVuSans-32" x="127.246094"/>
       <use xlink:href="#DejaVuSans-32" x="190.869141"/>
      </g>
     </g>
    </g>
    <g id="xtick_6">
     <g id="line2d_6">
      <g>
       <use xlink:href="#me51c180a3e" x="867.150048" y="512.64" style="stroke: #000000; stroke-width: 0.8"/>
      </g>
     </g>
     <g id="text_6">
      <!-- 2024 -->
      <g transform="translate(854.425048 527.238438) scale(0.1 -0.1)">
       <use xlink:href="#DejaVuSans-32"/>
       <use xlink:href="#DejaVuSans-30" x="63.623047"/>
       <use xlink:href="#DejaVuSans-32" x="127.246094"/>
       <use xlink:href="#DejaVuSans-34" x="190.869141"/>
      </g>
     </g>
    </g>
    <g id="xtick_7">
     <g id="line2d_7">
      <g>
       <use xlink:href="#me51c180a3e" x="1005.288856" y="512.64" style="stroke: #000000; stroke-width: 0.8"/>
      </g>
     </g>
     <g id="text_7">
      <!-- 2026 -->
      <g transform="translate(992.563856 527.238438) scale(0.1 -0.1)">
       <use xlink:href="#DejaVuSans-32"/>
       <use xlink:href="#DejaVuSans-30" x="63.623047"/>
       <use xlink:href="#DejaVuSans-32" x="127.246094"/>
       <use xlink:href="#DejaVuSans-36" x="190.869141"/>
      </g>
     </g>
    </g>
   </g>
   <g id="matplotlib.axis_2">
    <g id="ytick_1">
     <g id="line2d_8">
      <defs>
       <path id="m1a50539032" d="M 0 0 
L -3.5 0 
" style="stroke: #000000; stroke-width: 0.8"/>
      </defs>
      <g>
       <use xlink:href="#m1a50539032" x="144" y="492.511967" style="stroke: #000000; stroke-width: 0.8"/>
      </g>
     </g>
     <g id="text_8">
      <!-- 0 -->
      <g transform="translate(130.6375 496.311186) scale(0.1 -0.1)">
       <use xlink:href="#DejaVuSans-30"/>
      </g>
     </g>
    </g>
    <g id="ytick_2">
     <g id="line2d_9">
      <g>
       <use xlink:href="#m1a50539032" x="144" y="428.577931" style="stroke: #000000; stroke-width: 0.8"/>
      </g>
     </g>
     <g id="text_9">
      <!-- 2000 -->
      <g transform="translate(111.55 432.377149) scale(0.1 -0.1)">
       <use xlink:href="#DejaVuSans-32"/>
       <use xlink:href="#DejaVuSans-30" x="63.623047"/>
       <use xlink:href="#DejaVuSans-30" x="127.246094"/>
       <use xlink:href="#DejaVuSans-30" x="190.869141"/>
      </g>
     </g>
    </g>
    <g id="ytick_3">
     <g id="line2d_10">
      <g>
       <use xlink:href="#m1a50539032" x="144" y="364.643894" style="stroke: #000000; stroke-width: 0.8"/>
      </g>
     </g>
     <g id="text_10">
      <!-- 4000 -->
      <g transform="translate(111.55 368.443113) scale(0.1 -0.1)">
       <use xlink:href="#DejaVuSans-34"/>
       <use xlink:href="#DejaVuSans-30" x="63.623047"/>
       <use xlink:href="#DejaVuSans-30" x="127.246094"/>
       <use xlink:href="#DejaVuSans-30" x="190.869141"/>
      </g>
     </g>
    </g>
    <g id="ytick_4">
     <g id="line2d_11">
      <g>
       <use xlink:href="#m1a50539032" x="144" y="300.709858" style="stroke: #000000; stroke-width: 0.8"/>
      </g>
     </g>
     <g id="text_11">
      <!-- 6000 -->
      <g transform="translate(111.55 304.509077) scale(0.1 -0.1)">
       <use xlink:href="#DejaVuSans-36"/>
       <use xlink:href="#DejaVuSans-30" x="63.623047"/>
       <use xlink:href="#DejaVuSans-30" x="127.246094"/>
       <use xlink:href="#DejaVuSans-30" x="190.869141"/>
      </g>
     </g>
    </g>
    <g id="ytick_5">
     <g id="line2d_12">
      <g>
       <use xlink:href="#m1a50539032" x="144" y="236.775822" style="stroke: #000000; stroke-width: 0.8"/>
      </g>
     </g>
     <g id="text_12">
      <!-- 8000 -->
      <g transform="translate(111.55 240.575041) scale(0.1 -0.1)">
       <use xlink:href="#DejaVuSans-38"/>
       <use xlink:href="#DejaVuSans-30" x="63.623047"/>
       <use xlink:href="#DejaVuSans-30" x="127.246094"/>
       <use xlink:href="#DejaVuSans-30" x="190.869141"/>
      </g>
     </g>
    </g>
    <g id="ytick_6">
     <g id="line2d_13">
      <g>
       <use xlink:href="#m1a50539032" x="144" y="172.841785" style="stroke: #000000; stroke-width: 0.8"/>
      </g>
     </g>
     <g id="text_13">
      <!-- 10000 -->
      <g transform="translate(105.1875 176.641004) scale(0.1 -0.1)">
       <use xlink:href="#DejaVuSans-31"/>
       <use xlink:href="#DejaVuSans-30" x="63.623047"/>
       <use xlink:href="#DejaVuSans-30" x="127.246094"/>
       <use xlink:href="#DejaVuSans-30" x="190.869141"/>
       <use xlink:href="#DejaVuSans-30" x="254.492188"/>
      </g>
     </g>
    </g>
    <g id="ytick_7">
     <g id="line2d_14">
      <g>
       <use xlink:href="#m1a50539032" x="144" y="108.907749" style="stroke: #000000; stroke-width: 0.8"/>
      </g>
     </g>
     <g id="text_14">
      <!-- 12000 -->
      <g transform="translate(105.1875 112.706968) scale(0.1 -0.1)">
       <use xlink:href="#DejaVuSans-31"/>
       <use xlink:href="#DejaVuSans-32" x="63.623047"/>
       <use xlink:href="#DejaVuSans-30" x="127.246094"/>
       <use xlink:href="#DejaVuSans-30" x="190.869141"/>
       <use xlink:href="#DejaVuSans-30" x="254.492188"/>
      </g>
     </g>
    </g>
   </g>
   <g id="line2d_15">
    <path d="M 184.581818 492.48 
L 186.28257 492.416066 
L 288.138681 492.256231 
L 442.718087 492.096396 
L 494.118573 491.904594 
L 507.535612 491.808693 
L 540.227834 491.616891 
L 543.440364 491.552956 
L 567.061911 491.425088 
L 597.297492 491.233286 
L 597.675437 490.97755 
L 601.643856 490.817715 
L 635.847857 490.689847 
L 638.682443 490.625913 
L 661.737073 490.466078 
L 676.287946 490.242309 
L 692.350598 489.762803 
L 693.673405 489.634935 
L 702.744079 489.411166 
L 705.011747 489.347232 
L 711.247836 488.931661 
L 721.074399 488.707892 
L 726.365626 487.237409 
L 727.49946 487.173475 
L 728.25535 486.725937 
L 728.444322 485.958728 
L 728.822267 485.766926 
L 729.011239 485.734959 
L 729.200212 484.712015 
L 730.334046 484.264476 
L 730.711991 483.721037 
L 731.089935 483.561202 
L 731.278908 483.177598 
L 731.46788 482.314488 
L 731.845825 481.54728 
L 732.034797 480.620236 
L 732.22377 478.86205 
L 732.790687 477.519436 
L 733.168632 471.733405 
L 733.357604 471.094065 
L 733.735549 467.28999 
L 733.924521 466.682616 
L 734.113493 465.084265 
L 734.302466 464.988364 
L 734.869383 462.910508 
L 735.058355 458.371192 
L 735.247328 457.95562 
L 735.625273 456.644973 
L 735.814245 456.549072 
L 736.003217 455.81383 
L 736.19219 452.585161 
L 736.381162 451.817953 
L 736.570134 451.785986 
L 736.759107 449.420427 
L 736.948079 449.132723 
L 737.326024 448.972888 
L 738.081913 446.639296 
L 738.459858 445.999956 
L 739.026775 444.209803 
L 739.40472 439.286882 
L 739.782665 437.017223 
L 740.349582 436.921322 
L 740.727527 436.697553 
L 741.483416 435.45084 
L 741.861361 435.386906 
L 742.239306 432.701676 
L 742.428278 432.669709 
L 742.806223 432.222171 
L 742.995195 431.007424 
L 743.184168 430.687754 
L 743.562112 430.432018 
L 743.751085 429.888578 
L 744.318002 429.696776 
L 744.695947 429.377106 
L 745.073891 428.162359 
L 745.262864 428.066458 
L 745.640809 427.586953 
L 746.396698 427.235316 
L 746.58567 426.052536 
L 746.963615 425.828767 
L 747.152588 423.686977 
L 747.530532 423.623043 
L 747.908477 422.951736 
L 748.097449 422.344362 
L 748.664367 422.216494 
L 748.853339 422.024692 
L 749.231284 421.417319 
L 749.420256 421.385352 
L 749.798201 420.905846 
L 750.176146 420.777978 
L 750.365118 419.307495 
L 751.498952 419.051759 
L 751.876897 418.796023 
L 752.632787 418.700122 
L 752.821759 418.540287 
L 755.2784 417.837013 
L 755.845317 417.453408 
L 756.790179 417.32554 
L 757.546068 416.941936 
L 759.435792 416.558332 
L 760.191682 414.032937 
L 761.136544 413.905069 
L 761.325516 413.841135 
L 762.837295 413.6813 
L 763.593184 413.393597 
L 764.727019 413.233762 
L 766.42777 412.594422 
L 766.805715 412.434587 
L 766.994687 412.370653 
L 767.18366 412.146883 
L 767.939549 411.891147 
L 768.884411 411.827213 
L 769.073383 411.603444 
L 769.451328 411.571477 
L 769.640301 411.060005 
L 769.829273 410.996071 
L 770.018245 410.292796 
L 772.285914 409.813291 
L 772.852831 409.685423 
L 773.041803 409.301819 
L 774.36461 408.982149 
L 774.931527 408.790346 
L 775.687417 408.630511 
L 776.443306 408.438709 
L 777.388168 408.246907 
L 778.899947 407.639534 
L 779.277892 407.479699 
L 779.466864 406.840358 
L 780.411726 406.105117 
L 780.600698 405.817414 
L 781.54556 405.050205 
L 781.923505 404.378898 
L 782.112478 404.346931 
L 782.490422 403.579723 
L 783.246312 402.74858 
L 783.813229 402.652679 
L 784.002201 402.364976 
L 784.380146 402.205141 
L 784.569118 401.885471 
L 785.51398 401.661701 
L 785.702953 401.373998 
L 787.592676 401.022361 
L 787.781649 400.862526 
L 788.726511 400.734658 
L 789.4824 400.319087 
L 790.049317 400.191219 
L 790.616235 400.095318 
L 790.994179 399.392043 
L 791.372124 399.168274 
L 792.316986 398.528934 
L 792.505958 397.793692 
L 793.261848 397.569923 
L 794.395682 397.218286 
L 794.773627 396.738781 
L 795.718489 396.259275 
L 795.907461 395.939605 
L 796.474378 395.747803 
L 797.41924 395.300265 
L 797.797185 391.975695 
L 797.986157 390.856849 
L 798.17513 388.906861 
L 798.364102 388.683092 
L 798.931019 386.66917 
L 799.497936 385.678192 
L 799.686909 385.614258 
L 800.064853 385.230654 
L 800.253826 383.951973 
L 800.442798 383.600336 
L 800.820743 383.504435 
L 801.38766 382.70526 
L 801.576632 382.129853 
L 801.765605 381.938051 
L 802.14355 381.426579 
L 802.332522 380.563469 
L 803.277384 378.997086 
L 804.033273 378.677415 
L 804.222246 378.549547 
L 804.411218 377.654471 
L 804.978135 377.366768 
L 805.734025 376.503658 
L 805.922997 375.896285 
L 806.11197 375.864318 
L 806.678887 375.256944 
L 807.056831 375.224977 
L 807.245804 374.905307 
L 807.623749 374.713505 
L 808.379638 373.946297 
L 808.56861 373.882363 
L 808.757583 373.338923 
L 810.080389 372.347946 
L 810.269362 372.252045 
L 810.647307 371.069265 
L 811.214224 370.845496 
L 811.781141 370.685661 
L 812.159086 370.078287 
L 812.53703 369.694683 
L 813.103948 368.76764 
L 814.426754 368.384036 
L 814.993671 367.456992 
L 815.749561 367.26519 
L 816.694423 366.561915 
L 816.883395 366.529948 
L 817.450312 366.08241 
L 817.828257 365.954542 
L 818.206202 365.922575 
L 818.395174 365.730773 
L 818.584146 365.187334 
L 819.340036 364.963565 
L 819.529008 364.643894 
L 819.717981 364.611927 
L 819.906953 364.036521 
L 820.47387 363.812752 
L 821.040787 363.684884 
L 821.418732 363.397181 
L 823.497428 362.534071 
L 823.686401 361.702929 
L 824.064345 361.415226 
L 824.631263 361.223423 
L 825.19818 360.903753 
L 825.954069 360.775885 
L 826.143042 359.880809 
L 827.465848 359.273435 
L 827.654821 359.241468 
L 827.843793 359.081633 
L 828.221738 359.017699 
L 828.41071 358.729996 
L 828.977627 358.538194 
L 829.1666 358.47426 
L 829.355572 358.122623 
L 829.733517 358.090656 
L 830.111462 357.866887 
L 830.678379 357.579183 
L 830.867351 357.195579 
L 831.623241 357.003777 
L 831.812213 356.811975 
L 832.190158 356.748041 
L 832.37913 356.556239 
L 832.946047 356.396404 
L 833.13502 356.108701 
L 833.323992 356.076734 
L 833.701937 355.820997 
L 834.079881 355.661162 
L 834.268854 355.501327 
L 835.402688 355.213624 
L 835.59166 354.861987 
L 835.780633 354.766086 
L 836.725495 354.606251 
L 837.10344 354.318548 
L 837.481384 354.190679 
L 838.048301 354.030844 
L 838.237274 353.807075 
L 838.615219 353.743141 
L 838.804191 353.199702 
L 838.993163 353.103801 
L 839.371108 352.68823 
L 839.56008 352.016922 
L 839.938025 351.793153 
L 840.126998 351.697252 
L 840.31597 351.441516 
L 840.693915 351.217747 
L 841.449804 350.64234 
L 841.827749 350.514472 
L 842.016721 350.162835 
L 842.394666 349.971033 
L 842.961583 349.619396 
L 843.5285 349.459561 
L 843.906445 349.04399 
L 845.607197 347.733342 
L 846.174114 347.573507 
L 846.741031 347.445639 
L 846.930003 347.381705 
L 847.874865 346.518595 
L 848.441782 346.230892 
L 850.142534 345.591552 
L 850.520478 345.335815 
L 851.087395 345.17598 
L 851.654313 344.85631 
L 852.22123 344.696475 
L 852.788147 344.440739 
L 853.733009 344.280904 
L 854.299926 343.8973 
L 854.488898 343.865333 
L 854.677871 343.545662 
L 856.18965 342.970256 
L 856.567594 342.746487 
L 857.134512 342.522718 
L 857.512456 342.330916 
L 858.079373 342.203048 
L 858.268346 341.787476 
L 858.457318 340.380928 
L 858.835263 340.061257 
L 859.024235 340.02929 
L 859.213208 339.869455 
L 859.780125 339.102247 
L 860.15807 338.814544 
L 860.536014 337.919467 
L 860.913959 337.663731 
L 861.291904 337.471929 
L 861.669849 337.376028 
L 861.858821 337.120292 
L 863.181628 336.704721 
L 863.559572 336.321116 
L 864.12649 335.873578 
L 864.504434 335.74571 
L 864.882379 335.362106 
L 866.016213 334.56293 
L 866.394158 334.530963 
L 866.58313 334.24326 
L 867.150048 334.115392 
L 867.33902 333.987524 
L 867.527992 333.316217 
L 867.905937 332.996546 
L 868.661827 332.772777 
L 869.039771 332.580975 
L 869.228744 332.133437 
L 869.606689 332.005569 
L 869.795661 331.558031 
L 869.984633 331.46213 
L 870.362578 331.078525 
L 870.55155 330.886723 
L 871.118468 330.758855 
L 871.496412 330.535086 
L 871.685385 330.503119 
L 871.874357 330.311317 
L 872.063329 330.27935 
L 872.819219 329.863779 
L 873.197164 329.09657 
L 873.386136 329.000669 
L 873.764081 328.936735 
L 873.953053 328.585098 
L 874.51997 328.393296 
L 874.708943 328.297395 
L 874.897915 327.721988 
L 875.464832 327.498219 
L 876.031749 326.826912 
L 876.220722 326.762978 
L 876.598667 326.475275 
L 876.787639 326.443308 
L 877.165584 325.963802 
L 877.543528 325.708066 
L 878.299418 325.388396 
L 878.48839 325.036759 
L 878.866335 324.972825 
L 879.055307 324.749056 
L 879.24428 324.717089 
L 879.433252 324.077748 
L 880.000169 323.885946 
L 880.189142 323.790045 
L 880.567086 323.342507 
L 880.756059 323.214639 
L 881.322976 322.511364 
L 882.834755 321.584321 
L 883.401672 321.424486 
L 883.590645 321.328585 
L 883.968589 320.84908 
L 884.157562 320.785145 
L 885.102424 319.954003 
L 885.669341 319.6663 
L 886.047285 319.474498 
L 886.236258 319.442531 
L 886.42523 318.739256 
L 886.992147 318.355652 
L 887.18112 317.748279 
L 887.559064 317.460576 
L 887.748037 317.204839 
L 887.937009 317.172872 
L 888.692899 316.437631 
L 889.448788 316.117961 
L 889.826733 315.830258 
L 890.960567 315.318785 
L 891.716457 314.295841 
L 892.472346 313.848303 
L 892.661319 313.624533 
L 892.850291 313.592566 
L 893.039263 313.240929 
L 893.984125 312.69749 
L 894.36207 312.441754 
L 895.11796 312.090117 
L 895.873849 311.642578 
L 896.251794 311.578644 
L 896.629739 311.386842 
L 897.007683 311.227007 
L 897.952545 310.523733 
L 899.08638 309.980293 
L 899.464324 309.596689 
L 899.842269 309.468821 
L 900.409186 309.213085 
L 900.976103 308.957349 
L 901.354048 308.829481 
L 901.54302 307.614734 
L 902.109938 307.358998 
L 902.29891 307.071295 
L 902.487882 307.039328 
L 903.243772 305.792614 
L 903.432744 305.696713 
L 903.621717 305.313109 
L 903.999661 305.185241 
L 904.755551 304.130329 
L 905.133496 302.659846 
L 905.322468 302.212308 
L 905.700413 299.910683 
L 905.889385 298.951672 
L 906.645275 298.056596 
L 906.834247 297.864793 
L 907.590137 295.019729 
L 907.779109 294.859894 
L 907.968081 294.444323 
L 908.157054 292.909906 
L 908.346026 292.366466 
L 908.534998 292.334499 
L 908.723971 291.631225 
L 909.290888 291.215654 
L 909.668833 290.192709 
L 910.613695 289.745171 
L 910.802667 289.457468 
L 911.747529 289.073863 
L 912.314446 288.402556 
L 912.692391 287.731249 
L 913.070335 287.603381 
L 913.44828 287.443546 
L 913.826225 287.219776 
L 914.20417 287.027974 
L 915.149032 286.772238 
L 915.526976 286.580436 
L 916.093894 286.516502 
L 917.794645 285.205854 
L 918.17259 284.982085 
L 918.361562 284.694382 
L 919.117452 284.406679 
L 919.306424 284.310778 
L 919.495396 283.575536 
L 920.062313 283.127998 
L 920.440258 283.064064 
L 921.196148 282.520625 
L 922.14101 282.168988 
L 922.518954 281.785383 
L 922.896899 281.721449 
L 923.085872 281.273911 
L 923.274844 281.114076 
L 923.463816 280.634571 
L 923.841761 280.474736 
L 924.408678 279.35589 
L 924.597651 278.748517 
L 924.786623 278.684583 
L 925.164568 278.396879 
L 925.542512 278.109176 
L 925.731485 277.821473 
L 926.10943 276.574759 
L 926.298402 276.319023 
L 926.487374 275.647716 
L 926.676347 275.583782 
L 926.865319 275.040343 
L 927.432236 274.656738 
L 928.755043 273.346091 
L 929.510932 272.994453 
L 930.266822 272.674783 
L 930.455794 272.642816 
L 930.644767 271.971509 
L 934.235242 269.446114 
L 934.424214 269.158411 
L 934.613187 268.487104 
L 935.747021 267.975631 
L 936.124966 267.496126 
L 936.50291 267.400225 
L 936.691883 267.016621 
L 937.069827 266.824819 
L 937.2588 266.505149 
L 938.959551 265.578105 
L 940.282358 264.331391 
L 940.47133 263.947787 
L 940.660303 263.308447 
L 941.038247 262.733041 
L 941.22722 262.381403 
L 941.983109 258.545361 
L 942.361054 257.746186 
L 942.550026 257.362581 
L 942.738999 255.66833 
L 942.927971 252.375727 
L 944.250778 243.201192 
L 944.628723 238.853678 
L 945.006667 238.246305 
L 945.384612 232.620109 
L 945.573585 231.149627 
L 945.951529 224.916058 
L 946.329474 223.733278 
L 946.518446 220.536577 
L 946.707419 219.96117 
L 947.085364 216.476765 
L 947.463308 207.046495 
L 947.652281 206.535023 
L 947.841253 205.639946 
L 948.030225 202.667013 
L 948.219198 202.443244 
L 948.597143 197.616225 
L 948.975087 197.392455 
L 949.353032 196.369511 
L 949.542004 196.145742 
L 949.730977 195.698203 
L 949.919949 194.77116 
L 950.297894 194.579358 
L 950.864811 192.853139 
L 951.242756 190.327744 
L 951.431728 189.880206 
L 951.620701 189.816272 
L 951.809673 189.592503 
L 952.187618 188.953163 
L 952.37659 187.898251 
L 952.565562 187.674482 
L 952.754535 187.258911 
L 952.943507 187.194977 
L 953.321452 186.587603 
L 953.699397 186.427768 
L 953.888369 185.948263 
L 954.077342 185.788428 
L 954.455286 185.244989 
L 954.644259 185.149087 
L 955.400148 184.413846 
L 955.589121 184.381879 
L 956.156038 183.774506 
L 956.911927 183.263033 
L 957.667817 183.103198 
L 957.856789 182.911396 
L 958.234734 182.847462 
L 958.801651 182.399924 
L 960.31343 181.600748 
L 960.502402 181.15321 
L 961.447264 180.897474 
L 962.203154 180.226167 
L 962.770071 179.65076 
L 963.148016 179.203222 
L 963.903905 178.915519 
L 964.470822 178.531915 
L 964.848767 178.244212 
L 965.226712 177.956508 
L 965.604657 177.668805 
L 965.793629 176.933564 
L 966.549518 176.422091 
L 966.738491 176.134388 
L 967.116436 175.910619 
L 967.49438 175.654883 
L 968.439242 174.983576 
L 968.817187 174.823741 
L 969.006159 174.663905 
L 969.573077 174.599971 
L 969.951021 173.672928 
L 970.139994 173.577027 
L 970.517938 173.065555 
L 971.084856 172.36228 
L 971.4628 172.202445 
L 972.029717 171.40327 
L 972.21869 170.731962 
L 972.407662 170.572127 
L 972.785607 170.508193 
L 973.163552 170.124589 
L 973.919441 169.740985 
L 974.297386 169.613117 
L 975.053275 168.781974 
L 975.242248 168.750007 
L 975.43122 164.945932 
L 975.809165 164.402493 
L 976.18711 163.986921 
L 976.376082 163.603317 
L 976.565055 163.57135 
L 976.942999 163.123812 
L 977.131972 162.516439 
L 977.887861 161.781197 
L 978.076834 161.589395 
L 978.454778 160.854154 
L 978.832723 158.872199 
L 979.021695 158.264825 
L 979.210668 157.209914 
L 979.39964 156.92221 
L 979.588613 155.611563 
L 979.966557 154.620585 
L 980.15553 153.82141 
L 980.911419 152.926333 
L 981.289364 152.350927 
L 981.667309 151.903389 
L 982.234226 151.711586 
L 982.801143 151.104213 
L 983.36806 150.049302 
L 983.557032 149.985367 
L 983.934977 149.569796 
L 984.12395 149.346027 
L 984.501894 148.546852 
L 984.879839 148.099313 
L 985.068812 147.012435 
L 986.391618 146.021457 
L 987.33648 144.582941 
L 987.714425 144.103436 
L 987.903397 143.144426 
L 989.415176 140.075592 
L 989.982093 138.285439 
L 990.54901 137.134626 
L 990.737983 137.006758 
L 990.926955 136.527253 
L 991.115928 136.367418 
L 991.871817 134.289562 
L 992.438734 133.23465 
L 993.194624 130.197783 
L 993.383596 129.622377 
L 993.572569 127.76829 
L 993.761541 127.44862 
L 993.950513 125.978137 
L 994.328458 125.338796 
L 994.51743 124.699456 
L 994.895375 122.142095 
L 995.27332 121.215051 
L 995.462292 120.991282 
L 995.651265 112.615923 
L 995.840237 109.451188 
L 996.029209 89.823439 
L 996.218182 89.28 
L 996.218182 89.28 
" clip-path="url(#pa55cab07f4)" style="fill: none; stroke: #1f77b4; stroke-width: 1.5; stroke-linecap: square"/>
   </g>
   <g id="patch_3">
    <path d="M 144 512.64 
L 144 69.12 
" style="fill: none; stroke: #000000; stroke-width: 0.8; stroke-linejoin: miter; stroke-linecap: square"/>
   </g>
   <g id="patch_4">
    <path d="M 1036.8 512.64 
L 1036.8 69.12 
" style="fill: none; stroke: #000000; stroke-width: 0.8; stroke-linejoin: miter; stroke-linecap: square"/>
   </g>
   <g id="patch_5">
    <path d="M 144 512.64 
L 1036.8 512.64 
" style="fill: none; stroke: #000000; stroke-width: 0.8; stroke-linejoin: miter; stroke-linecap: square"/>
   </g>
   <g id="patch_6">
    <path d="M 144 69.12 
L 1036.8 69.12 
" style="fill: none; stroke: #000000; stroke-width: 0.8; stroke-linejoin: miter; stroke-linecap: square"/>
   </g>
   <g id="text_15">
    <!-- Number of AEDs in the OpenStreetMap database in Poland from first edition, day by day. As at: 2025-11-14 -->
    <g transform="translate(144 63.12) scale(0.14 -0.14)">
     <defs>
      <path id="DejaVuSans-4e" d="M 628 4666 
L 1478 4666 
L 3547 763 
L 3547 4666 
L 4159 4666 
L 4159 0 
L 3309 0 
L 1241 3903 
L 1241 0 
L 628 0 
L 628 4666 
z
" transform="scale(0.015625)"/>
      <path id="DejaVuSans-75" d="M 544 1381 
L 544 3500 
L 1119 3500 
L 1119 1403 
Q 1119 906 1312 657 
Q 1506 409 1894 409 
Q 2359 409 2629 706 
Q 2900 1003 2900 1516 
L 2900 3500 
L 3475 3500 
L 3475 0 
L 2900 0 
L 2900 538 
Q 2691 219 2414 64 
Q 2138 -91 1772 -91 
Q 1169 -91 856 284 
Q 544 659 544 1381 
z
M 1991 3584 
L 1991 3584 
z
" transform="scale(0.015625)"/>
      <path id="DejaVuSans-6d" d="M 3328 2828 
Q 3544 3216 3844 3400 
Q 4144 3584 4550 3584 
Q 5097 3584 5394 3201 
Q 5691 2819 5691 2113 
L 5691 0 
L 5113 0 
L 5113 2094 
Q 5113 2597 4934 2840 
Q 4756 3084 4391 3084 
Q 3944 3084 3684 2787 
Q 3425 2491 3425 1978 
L 3425 0 
L 2847 0 
L 2847 2094 
Q 2847 2600 2669 2842 
Q 2491 3084 2119 3084 
Q 1678 3084 1418 2786 
Q 1159 2488 1159 1978 
L 1159 0 
L 581 0 
L 581 3500 
L 1159 3500 
L 1159 2956 
Q 1356 3278 1631 3431 
Q 1906 3584 2284 3584 
Q 2666 3584 2933 3390 
Q 3200 3197 3328 2828 
z
" transform="scale(0.015625)"/>
      <path id="DejaVuSans-62" d="M 3116 1747 
Q 3116 2381 2855 2742 
Q 2594 3103 2138 3103 
Q 1681 3103 1420 2742 
Q 1159 2381 1159 1747 
Q 1159 1113 1420 752 
Q 1681 391 2138 391 
Q 2594 391 2855 752 
Q 3116 1113 3116 1747 
z
M 1159 2969 
Q 1341 3281 1617 3432 
Q 1894 3584 2278 3584 
Q 2916 3584 3314 3078 
Q 3713 2572 3713 1747 
Q 3713 922 3314 415 
Q 2916 -91 2278 -91 
Q 1894 -91 1617 61 
Q 1341 213 1159 525 
L 1159 0 
L 581 0 
L 581 4863 
L 1159 4863 
L 1159 2969 
z
" transform="scale(0.015625)"/>
      <path id="DejaVuSans-65" d="M 3597 1894 
L 3597 1613 
L 953 1613 
Q 991 1019 1311 708 
Q 1631 397 2203 397 
Q 2534 397 2845 478 
Q 3156 559 3463 722 
L 3463 178 
Q 3153 47 2828 -22 
Q 2503 -91 2169 -91 
Q 1331 -91 842 396 
Q 353 884 353 1716 
Q 353 2575 817 3079 
Q 1281 3584 2069 3584 
Q 2775 3584 3186 3129 
Q 3597 2675 3597 1894 
z
M 3022 2063 
Q 3016 2534 2758 2815 
Q 2500 3097 2075 3097 
Q 1594 3097 1305 2825 
Q 1016 2553 972 2059 
L 3022 2063 
z
" transform="scale(0.015625)"/>
      <path id="DejaVuSans-72" d="M 2631 2963 
Q 2534 3019 2420 3045 
Q 2306 3072 2169 3072 
Q 1681 3072 1420 2755 
Q 1159 2438 1159 1844 
L 1159 0 
L 581 0 
L 581 3500 
L 1159 3500 
L 1159 2956 
Q 1341 3275 1631 3429 
Q 1922 3584 2338 3584 
Q 2397 3584 2469 3576 
Q 2541 3569 2628 3553 
L 2631 2963 
z
" transform="scale(0.015625)"/>
      <path id="DejaVuSans-20" transform="scale(0.015625)"/>
      <path id="DejaVuSans-6f" d="M 1959 3097 
Q 1497 3097 1228 2736 
Q 959 2375 959 1747 
Q 959 1119 1226 758 
Q 1494 397 1959 397 
Q 2419 397 2687 759 
Q 2956 1122 2956 1747 
Q 2956 2369 2687 2733 
Q 2419 3097 1959 3097 
z
M 1959 3584 
Q 2709 3584 3137 3096 
Q 3566 2609 3566 1747 
Q 3566 888 3137 398 
Q 2709 -91 1959 -91 
Q 1206 -91 779 398 
Q 353 888 353 1747 
Q 353 2609 779 3096 
Q 1206 3584 1959 3584 
z
" transform="scale(0.015625)"/>
      <path id="DejaVuSans-66" d="M 2375 4863 
L 2375 4384 
L 1825 4384 
Q 1516 4384 1395 4259 
Q 1275 4134 1275 3809 
L 1275 3500 
L 2222 3500 
L 2222 3053 
L 1275 3053 
L 1275 0 
L 697 0 
L 697 3053 
L 147 3053 
L 147 3500 
L 697 3500 
L 697 3744 
Q 697 4328 969 4595 
Q 1241 4863 1831 4863 
L 2375 4863 
z
" transform="scale(0.015625)"/>
      <path id="DejaVuSans-41" d="M 2188 4044 
L 1331 1722 
L 3047 1722 
L 2188 4044 
z
M 1831 4666 
L 2547 4666 
L 4325 0 
L 3669 0 
L 3244 1197 
L 1141 1197 
L 716 0 
L 50 0 
L 1831 4666 
z
" transform="scale(0.015625)"/>
      <path id="DejaVuSans-45" d="M 628 4666 
L 3578 4666 
L 3578 4134 
L 1259 4134 
L 1259 2753 
L 3481 2753 
L 3481 2222 
L 1259 2222 
L 1259 531 
L 3634 531 
L 3634 0 
L 628 0 
L 628 4666 
z
" transform="scale(0.015625)"/>
      <path id="DejaVuSans-44" d="M 1259 4147 
L 1259 519 
L 2022 519 
Q 2988 519 3436 956 
Q 3884 1394 3884 2338 
Q 3884 3275 3436 3711 
Q 2988 4147 2022 4147 
L 1259 4147 
z
M 628 4666 
L 1925 4666 
Q 3281 4666 3915 4102 
Q 4550 3538 4550 2338 
Q 4550 1131 3912 565 
Q 3275 0 1925 0 
L 628 0 
L 628 4666 
z
" transform="scale(0.015625)"/>
      <path id="DejaVuSans-73" d="M 2834 3397 
L 2834 2853 
Q 2591 2978 2328 3040 
Q 2066 3103 1784 3103 
Q 1356 3103 1142 2972 
Q 928 2841 928 2578 
Q 928 2378 1081 2264 
Q 1234 2150 1697 2047 
L 1894 2003 
Q 2506 1872 2764 1633 
Q 3022 1394 3022 966 
Q 3022 478 2636 193 
Q 2250 -91 1575 -91 
Q 1294 -91 989 -36 
Q 684 19 347 128 
L 347 722 
Q 666 556 975 473 
Q 1284 391 1588 391 
Q 1994 391 2212 530 
Q 2431 669 2431 922 
Q 2431 1156 2273 1281 
Q 2116 1406 1581 1522 
L 1381 1569 
Q 847 1681 609 1914 
Q 372 2147 372 2553 
Q 372 3047 722 3315 
Q 1072 3584 1716 3584 
Q 2034 3584 2315 3537 
Q 2597 3491 2834 3397 
z
" transform="scale(0.015625)"/>
      <path id="DejaVuSans-69" d="M 603 3500 
L 1178 3500 
L 1178 0 
L 603 0 
L 603 3500 
z
M 603 4863 
L 1178 4863 
L 1178 4134 
L 603 4134 
L 603 4863 
z
" transform="scale(0.015625)"/>
      <path id="DejaVuSans-6e" d="M 3513 2113 
L 3513 0 
L 2938 0 
L 2938 2094 
Q 2938 2591 2744 2837 
Q 2550 3084 2163 3084 
Q 1697 3084 1428 2787 
Q 1159 2491 1159 1978 
L 1159 0 
L 581 0 
L 581 3500 
L 1159 3500 
L 1159 2956 
Q 1366 3272 1645 3428 
Q 1925 3584 2291 3584 
Q 2894 3584 3203 3211 
Q 3513 2838 3513 2113 
z
" transform="scale(0.015625)"/>
      <path id="DejaVuSans-74" d="M 1172 4494 
L 1172 3500 
L 2356 3500 
L 2356 3053 
L 1172 3053 
L 1172 1153 
Q 1172 725 1289 603 
Q 1406 481 1766 481 
L 2356 481 
L 2356 0 
L 1766 0 
Q 1100 0 847 248 
Q 594 497 594 1153 
L 594 3053 
L 172 3053 
L 172 3500 
L 594 3500 
L 594 4494 
L 1172 4494 
z
" transform="scale(0.015625)"/>
      <path id="DejaVuSans-68" d="M 3513 2113 
L 3513 0 
L 2938 0 
L 2938 2094 
Q 2938 2591 2744 2837 
Q 2550 3084 2163 3084 
Q 1697 3084 1428 2787 
Q 1159 2491 1159 1978 
L 1159 0 
L 581 0 
L 581 4863 
L 1159 4863 
L 1159 2956 
Q 1366 3272 1645 3428 
Q 1925 3584 2291 3584 
Q 2894 3584 3203 3211 
Q 3513 2838 3513 2113 
z
" transform="scale(0.015625)"/>
      <path id="DejaVuSans-4f" d="M 2522 4238 
Q 1834 4238 1429 3725 
Q 1025 3213 1025 2328 
Q 1025 1447 1429 934 
Q 1834 422 2522 422 
Q 3209 422 3611 934 
Q 4013 1447 4013 2328 
Q 4013 3213 3611 3725 
Q 3209 4238 2522 4238 
z
M 2522 4750 
Q 3503 4750 4090 4092 
Q 4678 3434 4678 2328 
Q 4678 1225 4090 567 
Q 3503 -91 2522 -91 
Q 1538 -91 948 565 
Q 359 1222 359 2328 
Q 359 3434 948 4092 
Q 1538 4750 2522 4750 
z
" transform="scale(0.015625)"/>
      <path id="DejaVuSans-70" d="M 1159 525 
L 1159 -1331 
L 581 -1331 
L 581 3500 
L 1159 3500 
L 1159 2969 
Q 1341 3281 1617 3432 
Q 1894 3584 2278 3584 
Q 2916 3584 3314 3078 
Q 3713 2572 3713 1747 
Q 3713 922 3314 415 
Q 2916 -91 2278 -91 
Q 1894 -91 1617 61 
Q 1341 213 1159 525 
z
M 3116 1747 
Q 3116 2381 2855 2742 
Q 2594 3103 2138 3103 
Q 1681 3103 1420 2742 
Q 1159 2381 1159 1747 
Q 1159 1113 1420 752 
Q 1681 391 2138 391 
Q 2594 391 2855 752 
Q 3116 1113 3116 1747 
z
" transform="scale(0.015625)"/>
      <path id="DejaVuSans-53" d="M 3425 4513 
L 3425 3897 
Q 3066 4069 2747 4153 
Q 2428 4238 2131 4238 
Q 1616 4238 1336 4038 
Q 1056 3838 1056 3469 
Q 1056 3159 1242 3001 
Q 1428 2844 1947 2747 
L 2328 2669 
Q 3034 2534 3370 2195 
Q 3706 1856 3706 1288 
Q 3706 609 3251 259 
Q 2797 -91 1919 -91 
Q 1588 -91 1214 -16 
Q 841 59 441 206 
L 441 856 
Q 825 641 1194 531 
Q 1563 422 1919 422 
Q 2459 422 2753 634 
Q 3047 847 3047 1241 
Q 3047 1584 2836 1778 
Q 2625 1972 2144 2069 
L 1759 2144 
Q 1053 2284 737 2584 
Q 422 2884 422 3419 
Q 422 4038 858 4394 
Q 1294 4750 2059 4750 
Q 2388 4750 2728 4690 
Q 3069 4631 3425 4513 
z
" transform="scale(0.015625)"/>
      <path id="DejaVuSans-4d" d="M 628 4666 
L 1569 4666 
L 2759 1491 
L 3956 4666 
L 4897 4666 
L 4897 0 
L 4281 0 
L 4281 4097 
L 3078 897 
L 2444 897 
L 1241 4097 
L 1241 0 
L 628 0 
L 628 4666 
z
" transform="scale(0.015625)"/>
      <path id="DejaVuSans-61" d="M 2194 1759 
Q 1497 1759 1228 1600 
Q 959 1441 959 1056 
Q 959 750 1161 570 
Q 1363 391 1709 391 
Q 2188 391 2477 730 
Q 2766 1069 2766 1631 
L 2766 1759 
L 2194 1759 
z
M 3341 1997 
L 3341 0 
L 2766 0 
L 2766 531 
Q 2569 213 2275 61 
Q 1981 -91 1556 -91 
Q 1019 -91 701 211 
Q 384 513 384 1019 
Q 384 1609 779 1909 
Q 1175 2209 1959 2209 
L 2766 2209 
L 2766 2266 
Q 2766 2663 2505 2880 
Q 2244 3097 1772 3097 
Q 1472 3097 1187 3025 
Q 903 2953 641 2809 
L 641 3341 
Q 956 3463 1253 3523 
Q 1550 3584 1831 3584 
Q 2591 3584 2966 3190 
Q 3341 2797 3341 1997 
z
" transform="scale(0.015625)"/>
      <path id="DejaVuSans-64" d="M 2906 2969 
L 2906 4863 
L 3481 4863 
L 3481 0 
L 2906 0 
L 2906 525 
Q 2725 213 2448 61 
Q 2172 -91 1784 -91 
Q 1150 -91 751 415 
Q 353 922 353 1747 
Q 353 2572 751 3078 
Q 1150 3584 1784 3584 
Q 2172 3584 2448 3432 
Q 2725 3281 2906 2969 
z
M 947 1747 
Q 947 1113 1208 752 
Q 1469 391 1925 391 
Q 2381 391 2643 752 
Q 2906 1113 2906 1747 
Q 2906 2381 2643 2742 
Q 2381 3103 1925 3103 
Q 1469 3103 1208 2742 
Q 947 2381 947 1747 
z
" transform="scale(0.015625)"/>
      <path id="DejaVuSans-50" d="M 1259 4147 
L 1259 2394 
L 2053 2394 
Q 2494 2394 2734 2622 
Q 2975 2850 2975 3272 
Q 2975 3691 2734 3919 
Q 2494 4147 2053 4147 
L 1259 4147 
z
M 628 4666 
L 2053 4666 
Q 2838 4666 3239 4311 
Q 3641 3956 3641 3272 
Q 3641 2581 3239 2228 
Q 2838 1875 2053 1875 
L 1259 1875 
L 1259 0 
L 628 0 
L 628 4666 
z
" transform="scale(0.015625)"/>
      <path id="DejaVuSans-6c" d="M 603 4863 
L 1178 4863 
L 1178 0 
L 603 0 
L 603 4863 
z
" transform="scale(0.015625)"/>
      <path id="DejaVuSans-2c" d="M 750 794 
L 1409 794 
L 1409 256 
L 897 -744 
L 494 -744 
L 750 256 
L 750 794 
z
" transform="scale(0.015625)"/>
      <path id="DejaVuSans-79" d="M 2059 -325 
Q 1816 -950 1584 -1140 
Q 1353 -1331 966 -1331 
L 506 -1331 
L 506 -850 
L 844 -850 
Q 1081 -850 1212 -737 
Q 1344 -625 1503 -206 
L 1606 56 
L 191 3500 
L 800 3500 
L 1894 763 
L 2988 3500 
L 3597 3500 
L 2059 -325 
z
" transform="scale(0.015625)"/>
      <path id="DejaVuSans-2e" d="M 684 794 
L 1344 794 
L 1344 0 
L 684 0 
L 684 794 
z
" transform="scale(0.015625)"/>
      <path id="DejaVuSans-3a" d="M 750 794 
L 1409 794 
L 1409 0 
L 750 0 
L 750 794 
z
M 750 3309 
L 1409 3309 
L 1409 2516 
L 750 2516 
L 750 3309 
z
" transform="scale(0.015625)"/>
      <path id="DejaVuSans-35" d="M 691 4666 
L 3169 4666 
L 3169 4134 
L 1269 4134 
L 1269 2991 
Q 1406 3038 1543 3061 
Q 1681 3084 1819 3084 
Q 2600 3084 3056 2656 
Q 3513 2228 3513 1497 
Q 3513 744 3044 326 
Q 2575 -91 1722 -91 
Q 1428 -91 1123 -41 
Q 819 9 494 109 
L 494 744 
Q 775 591 1075 516 
Q 1375 441 1709 441 
Q 2250 441 2565 725 
Q 2881 1009 2881 1497 
Q 2881 1984 2565 2268 
Q 2250 2553 1709 2553 
Q 1456 2553 1204 2497 
Q 953 2441 691 2322 
L 691 4666 
z
" transform="scale(0.015625)"/>
      <path id="DejaVuSans-2d" d="M 313 2009 
L 1997 2009 
L 1997 1497 
L 313 1497 
L 313 2009 
z
" transform="scale(0.015625)"/>
     </defs>
     <use xlink:href="#DejaVuSans-4e"/>
     <use xlink:href="#DejaVuSans-75" x="74.804688"/>
     <use xlink:href="#DejaVuSans-6d" x="138.183594"/>
     <use xlink:href="#DejaVuSans-62" x="235.595703"/>
     <use xlink:href="#DejaVuSans-65" x="299.072266"/>
     <use xlink:href="#DejaVuSans-72" x="360.595703"/>
     <use xlink:href="#DejaVuSans-20" x="401.708984"/>
     <use xlink:href="#DejaVuSans-6f" x="433.496094"/>
     <use xlink:href="#DejaVuSans-66" x="494.677734"/>
     <use xlink:href="#DejaVuSans-20" x="529.882812"/>
     <use xlink:href="#DejaVuSans-41" x="561.669922"/>
     <use xlink:href="#DejaVuSans-45" x="630.078125"/>
     <use xlink:href="#DejaVuSans-44" x="693.261719"/>
     <use xlink:href="#DejaVuSans-73" x="770.263672"/>
     <use xlink:href="#DejaVuSans-20" x="822.363281"/>
     <use xlink:href="#DejaVuSans-69" x="854.150391"/>
     <use xlink:href="#DejaVuSans-6e" x="881.933594"/>
     <use xlink:href="#DejaVuSans-20" x="945.3125"/>
     <use xlink:href="#DejaVuSans-74" x="977.099609"/>
     <use xlink:href="#DejaVuSans-68" x="1016.308594"/>
     <use xlink:href="#DejaVuSans-65" x="1079.6875"/>
     <use xlink:href="#DejaVuSans-20" x="1141.210938"/>
     <use xlink:href="#DejaVuSans-4f" x="1172.998047"/>
     <use xlink:href="#DejaVuSans-70" x="1251.708984"/>
     <use xlink:href="#DejaVuSans-65" x="1315.185547"/>
     <use xlink:href="#DejaVuSans-6e" x="1376.708984"/>
     <use xlink:href="#DejaVuSans-53" x="1440.087891"/>
     <use xlink:href="#DejaVuSans-74" x="1503.564453"/>
     <use xlink:href="#DejaVuSans-72" x="1542.773438"/>
     <use xlink:href="#DejaVuSans-65" x="1581.636719"/>
     <use xlink:href="#DejaVuSans-65" x="1643.160156"/>
     <use xlink:href="#DejaVuSans-74" x="1704.683594"/>
     <use xlink:href="#DejaVuSans-4d" x="1743.892578"/>
     <use xlink:href="#DejaVuSans-61" x="1830.171875"/>
     <use xlink:href="#DejaVuSans-70" x="1891.451172"/>
     <use xlink:href="#DejaVuSans-20" x="1954.927734"/>
     <use xlink:href="#DejaVuSans-64" x="1986.714844"/>
     <use xlink:href="#DejaVuSans-61" x="2050.191406"/>
     <use xlink:href="#DejaVuSans-74" x="2111.470703"/>
     <use xlink:href="#DejaVuSans-61" x="2150.679688"/>
     <use xlink:href="#DejaVuSans-62" x="2211.958984"/>
     <use xlink:href="#DejaVuSans-61" x="2275.435547"/>
     <use xlink:href="#DejaVuSans-73" x="2336.714844"/>
     <use xlink:href="#DejaVuSans-65" x="2388.814453"/>
     <use xlink:href="#DejaVuSans-20" x="2450.337891"/>
     <use xlink:href="#DejaVuSans-69" x="2482.125"/>
     <use xlink:href="#DejaVuSans-6e" x="2509.908203"/>
     <use xlink:href="#DejaVuSans-20" x="2573.287109"/>
     <use xlink:href="#DejaVuSans-50" x="2605.074219"/>
     <use xlink:href="#DejaVuSans-6f" x="2661.751953"/>
     <use xlink:href="#DejaVuSans-6c" x="2722.933594"/>
     <use xlink:href="#DejaVuSans-61" x="2750.716797"/>
     <use xlink:href="#DejaVuSans-6e" x="2811.996094"/>
     <use xlink:href="#DejaVuSans-64" x="2875.375"/>
     <use xlink:href="#DejaVuSans-20" x="2938.851562"/>
     <use xlink:href="#DejaVuSans-66" x="2970.638672"/>
     <use xlink:href="#DejaVuSans-72" x="3005.84375"/>
     <use xlink:href="#DejaVuSans-6f" x="3044.707031"/>
     <use xlink:href="#DejaVuSans-6d" x="3105.888672"/>
     <use xlink:href="#DejaVuSans-20" x="3203.300781"/>
     <use xlink:href="#DejaVuSans-66" x="3235.087891"/>
     <use xlink:href="#DejaVuSans-69" x="3270.292969"/>
     <use xlink:href="#DejaVuSans-72" x="3298.076172"/>
     <use xlink:href="#DejaVuSans-73" x="3339.189453"/>
     <use xlink:href="#DejaVuSans-74" x="3391.289062"/>
     <use xlink:href="#DejaVuSans-20" x="3430.498047"/>
     <use xlink:href="#DejaVuSans-65" x="3462.285156"/>
     <use xlink:href="#DejaVuSans-64" x="3523.808594"/>
     <use xlink:href="#DejaVuSans-69" x="3587.285156"/>
     <use xlink:href="#DejaVuSans-74" x="3615.068359"/>
     <use xlink:href="#DejaVuSans-69" x="3654.277344"/>
     <use xlink:href="#DejaVuSans-6f" x="3682.060547"/>
     <use xlink:href="#DejaVuSans-6e" x="3743.242188"/>
     <use xlink:href="#DejaVuSans-2c" x="3806.621094"/>
     <use xlink:href="#DejaVuSans-20" x="3838.408203"/>
     <use xlink:href="#DejaVuSans-64" x="3870.195312"/>
     <use xlink:href="#DejaVuSans-61" x="3933.671875"/>
     <use xlink:href="#DejaVuSans-79" x="3994.951172"/>
     <use xlink:href="#DejaVuSans-20" x="4054.130859"/>
     <use xlink:href="#DejaVuSans-62" x="4085.917969"/>
     <use xlink:href="#DejaVuSans-79" x="4149.394531"/>
     <use xlink:href="#DejaVuSans-20" x="4208.574219"/>
     <use xlink:href="#DejaVuSans-64" x="4240.361328"/>
     <use xlink:href="#DejaVuSans-61" x="4303.837891"/>
     <use xlink:href="#DejaVuSans-79" x="4365.117188"/>
     <use xlink:href="#DejaVuSans-2e" x="4410.046875"/>
     <use xlink:href="#DejaVuSans-20" x="4441.833984"/>
     <use xlink:href="#DejaVuSans-41" x="4473.621094"/>
     <use xlink:href="#DejaVuSans-73" x="4542.029297"/>
     <use xlink:href="#DejaVuSans-20" x="4594.128906"/>
     <use xlink:href="#DejaVuSans-61" x="4625.916016"/>
     <use xlink:href="#DejaVuSans-74" x="4687.195312"/>
     <use xlink:href="#DejaVuSans-3a" x="4726.404297"/>
     <use xlink:href="#DejaVuSans-20" x="4760.095703"/>
     <use xlink:href="#DejaVuSans-32" x="4791.882812"/>
     <use xlink:href="#DejaVuSans-30" x="4855.505859"/>
     <use xlink:href="#DejaVuSans-32" x="4919.128906"/>
     <use xlink:href="#DejaVuSans-35" x="4982.751953"/>
     <use xlink:href="#DejaVuSans-2d" x="5046.375"/>
     <use xlink:href="#DejaVuSans-31" x="5082.458984"/>
     <use xlink:href="#DejaVuSans-31" x="5146.082031"/>
     <use xlink:href="#DejaVuSans-2d" x="5209.705078"/>
     <use xlink:href="#DejaVuSans-31" x="5245.789062"/>
     <use xlink:href="#DejaVuSans-34" x="5309.412109"/>
    </g>
   </g>
  </g>
 </g>
 <defs>
  <clipPath id="pa55cab07f4">
   <rect x="144" y="69.12" width="892.8" height="443.52"/>
  </clipPath>
 </defs>
</svg>
