<?xml version="1.0" encoding="utf-8" standalone="no"?>
<!DOCTYPE svg PUBLIC "-//W3C//DTD SVG 1.1//EN"
  "http://www.w3.org/Graphics/SVG/1.1/DTD/svg11.dtd">
<svg xmlns:xlink="http://www.w3.org/1999/xlink" width="1152pt" height="576pt" viewBox="0 0 1152 576" xmlns="http://www.w3.org/2000/svg" version="1.1">
 <metadata>
  <rdf:RDF xmlns:dc="http://purl.org/dc/elements/1.1/" xmlns:cc="http://creativecommons.org/ns#" xmlns:rdf="http://www.w3.org/1999/02/22-rdf-syntax-ns#">
   <cc:Work>
    <dc:type rdf:resource="http://purl.org/dc/dcmitype/StillImage"/>
    <dc:date>1980-01-01T00:00:00+00:00</dc:date>
    <dc:format>image/svg+xml</dc:format>
    <dc:creator>
     <cc:Agent>
      <dc:title>Matplotlib v3.9.1, https://matplotlib.org/</dc:title>
     </cc:Agent>
    </dc:creator>
   </cc:Work>
  </rdf:RDF>
 </metadata>
 <defs>
  <style type="text/css">*{stroke-linejoin: round; stroke-linecap: butt}</style>
 </defs>
 <g id="figure_1">
  <g id="patch_1">
   <path d="M 0 576 
L 1152 576 
L 1152 0 
L 0 0 
z
" style="fill: #ffffff"/>
  </g>
  <g id="axes_1">
   <g id="patch_2">
    <path d="M 144 512.64 
L 1036.8 512.64 
L 1036.8 69.12 
L 144 69.12 
z
" style="fill: #ffffff"/>
   </g>
   <g id="matplotlib.axis_1">
    <g id="xtick_1">
     <g id="line2d_1">
      <defs>
       <path id="mb6ec4b02eb" d="M 0 0 
L 0 3.5 
" style="stroke: #000000; stroke-width: 0.8"/>
      </defs>
      <g>
       <use xlink:href="#mb6ec4b02eb" x="177.082291" y="512.64" style="stroke: #000000; stroke-width: 0.8"/>
      </g>
     </g>
     <g id="text_1">
      <!-- 2014 -->
      <g transform="translate(164.357291 527.238438) scale(0.1 -0.1)">
       <defs>
        <path id="DejaVuSans-32" d="M 1228 531 
L 3431 531 
L 3431 0 
L 469 0 
L 469 531 
Q 828 903 1448 1529 
Q 2069 2156 2228 2338 
Q 2531 2678 2651 2914 
Q 2772 3150 2772 3378 
Q 2772 3750 2511 3984 
Q 2250 4219 1831 4219 
Q 1534 4219 1204 4116 
Q 875 4013 500 3803 
L 500 4441 
Q 881 4594 1212 4672 
Q 1544 4750 1819 4750 
Q 2544 4750 2975 4387 
Q 3406 4025 3406 3419 
Q 3406 3131 3298 2873 
Q 3191 2616 2906 2266 
Q 2828 2175 2409 1742 
Q 1991 1309 1228 531 
z
" transform="scale(0.015625)"/>
        <path id="DejaVuSans-30" d="M 2034 4250 
Q 1547 4250 1301 3770 
Q 1056 3291 1056 2328 
Q 1056 1369 1301 889 
Q 1547 409 2034 409 
Q 2525 409 2770 889 
Q 3016 1369 3016 2328 
Q 3016 3291 2770 3770 
Q 2525 4250 2034 4250 
z
M 2034 4750 
Q 2819 4750 3233 4129 
Q 3647 3509 3647 2328 
Q 3647 1150 3233 529 
Q 2819 -91 2034 -91 
Q 1250 -91 836 529 
Q 422 1150 422 2328 
Q 422 3509 836 4129 
Q 1250 4750 2034 4750 
z
" transform="scale(0.015625)"/>
        <path id="DejaVuSans-31" d="M 794 531 
L 1825 531 
L 1825 4091 
L 703 3866 
L 703 4441 
L 1819 4666 
L 2450 4666 
L 2450 531 
L 3481 531 
L 3481 0 
L 794 0 
L 794 531 
z
" transform="scale(0.015625)"/>
        <path id="DejaVuSans-34" d="M 2419 4116 
L 825 1625 
L 2419 1625 
L 2419 4116 
z
M 2253 4666 
L 3047 4666 
L 3047 1625 
L 3713 1625 
L 3713 1100 
L 3047 1100 
L 3047 0 
L 2419 0 
L 2419 1100 
L 313 1100 
L 313 1709 
L 2253 4666 
z
" transform="scale(0.015625)"/>
       </defs>
       <use xlink:href="#DejaVuSans-32"/>
       <use xlink:href="#DejaVuSans-30" x="63.623047"/>
       <use xlink:href="#DejaVuSans-31" x="127.246094"/>
       <use xlink:href="#DejaVuSans-34" x="190.869141"/>
      </g>
     </g>
    </g>
    <g id="xtick_2">
     <g id="line2d_2">
      <g>
       <use xlink:href="#mb6ec4b02eb" x="313.948668" y="512.64" style="stroke: #000000; stroke-width: 0.8"/>
      </g>
     </g>
     <g id="text_2">
      <!-- 2016 -->
      <g transform="translate(301.223668 527.238438) scale(0.1 -0.1)">
       <defs>
        <path id="DejaVuSans-36" d="M 2113 2584 
Q 1688 2584 1439 2293 
Q 1191 2003 1191 1497 
Q 1191 994 1439 701 
Q 1688 409 2113 409 
Q 2538 409 2786 701 
Q 3034 994 3034 1497 
Q 3034 2003 2786 2293 
Q 2538 2584 2113 2584 
z
M 3366 4563 
L 3366 3988 
Q 3128 4100 2886 4159 
Q 2644 4219 2406 4219 
Q 1781 4219 1451 3797 
Q 1122 3375 1075 2522 
Q 1259 2794 1537 2939 
Q 1816 3084 2150 3084 
Q 2853 3084 3261 2657 
Q 3669 2231 3669 1497 
Q 3669 778 3244 343 
Q 2819 -91 2113 -91 
Q 1303 -91 875 529 
Q 447 1150 447 2328 
Q 447 3434 972 4092 
Q 1497 4750 2381 4750 
Q 2619 4750 2861 4703 
Q 3103 4656 3366 4563 
z
" transform="scale(0.015625)"/>
       </defs>
       <use xlink:href="#DejaVuSans-32"/>
       <use xlink:href="#DejaVuSans-30" x="63.623047"/>
       <use xlink:href="#DejaVuSans-31" x="127.246094"/>
       <use xlink:href="#DejaVuSans-36" x="190.869141"/>
      </g>
     </g>
    </g>
    <g id="xtick_3">
     <g id="line2d_3">
      <g>
       <use xlink:href="#mb6ec4b02eb" x="451.002533" y="512.64" style="stroke: #000000; stroke-width: 0.8"/>
      </g>
     </g>
     <g id="text_3">
      <!-- 2018 -->
      <g transform="translate(438.277533 527.238438) scale(0.1 -0.1)">
       <defs>
        <path id="DejaVuSans-38" d="M 2034 2216 
Q 1584 2216 1326 1975 
Q 1069 1734 1069 1313 
Q 1069 891 1326 650 
Q 1584 409 2034 409 
Q 2484 409 2743 651 
Q 3003 894 3003 1313 
Q 3003 1734 2745 1975 
Q 2488 2216 2034 2216 
z
M 1403 2484 
Q 997 2584 770 2862 
Q 544 3141 544 3541 
Q 544 4100 942 4425 
Q 1341 4750 2034 4750 
Q 2731 4750 3128 4425 
Q 3525 4100 3525 3541 
Q 3525 3141 3298 2862 
Q 3072 2584 2669 2484 
Q 3125 2378 3379 2068 
Q 3634 1759 3634 1313 
Q 3634 634 3220 271 
Q 2806 -91 2034 -91 
Q 1263 -91 848 271 
Q 434 634 434 1313 
Q 434 1759 690 2068 
Q 947 2378 1403 2484 
z
M 1172 3481 
Q 1172 3119 1398 2916 
Q 1625 2713 2034 2713 
Q 2441 2713 2670 2916 
Q 2900 3119 2900 3481 
Q 2900 3844 2670 4047 
Q 2441 4250 2034 4250 
Q 1625 4250 1398 4047 
Q 1172 3844 1172 3481 
z
" transform="scale(0.015625)"/>
       </defs>
       <use xlink:href="#DejaVuSans-32"/>
       <use xlink:href="#DejaVuSans-30" x="63.623047"/>
       <use xlink:href="#DejaVuSans-31" x="127.246094"/>
       <use xlink:href="#DejaVuSans-38" x="190.869141"/>
      </g>
     </g>
    </g>
    <g id="xtick_4">
     <g id="line2d_4">
      <g>
       <use xlink:href="#mb6ec4b02eb" x="587.868909" y="512.64" style="stroke: #000000; stroke-width: 0.8"/>
      </g>
     </g>
     <g id="text_4">
      <!-- 2020 -->
      <g transform="translate(575.143909 527.238438) scale(0.1 -0.1)">
       <use xlink:href="#DejaVuSans-32"/>
       <use xlink:href="#DejaVuSans-30" x="63.623047"/>
       <use xlink:href="#DejaVuSans-32" x="127.246094"/>
       <use xlink:href="#DejaVuSans-30" x="190.869141"/>
      </g>
     </g>
    </g>
    <g id="xtick_5">
     <g id="line2d_5">
      <g>
       <use xlink:href="#mb6ec4b02eb" x="724.922775" y="512.64" style="stroke: #000000; stroke-width: 0.8"/>
      </g>
     </g>
     <g id="text_5">
      <!-- 2022 -->
      <g transform="translate(712.197775 527.238438) scale(0.1 -0.1)">
       <use xlink:href="#DejaVuSans-32"/>
       <use xlink:href="#DejaVuSans-30" x="63.623047"/>
       <use xlink:href="#DejaVuSans-32" x="127.246094"/>
       <use xlink:href="#DejaVuSans-32" x="190.869141"/>
      </g>
     </g>
    </g>
    <g id="xtick_6">
     <g id="line2d_6">
      <g>
       <use xlink:href="#mb6ec4b02eb" x="861.789151" y="512.64" style="stroke: #000000; stroke-width: 0.8"/>
      </g>
     </g>
     <g id="text_6">
      <!-- 2024 -->
      <g transform="translate(849.064151 527.238438) scale(0.1 -0.1)">
       <use xlink:href="#DejaVuSans-32"/>
       <use xlink:href="#DejaVuSans-30" x="63.623047"/>
       <use xlink:href="#DejaVuSans-32" x="127.246094"/>
       <use xlink:href="#DejaVuSans-34" x="190.869141"/>
      </g>
     </g>
    </g>
    <g id="xtick_7">
     <g id="line2d_7">
      <g>
       <use xlink:href="#mb6ec4b02eb" x="998.843016" y="512.64" style="stroke: #000000; stroke-width: 0.8"/>
      </g>
     </g>
     <g id="text_7">
      <!-- 2026 -->
      <g transform="translate(986.118016 527.238438) scale(0.1 -0.1)">
       <use xlink:href="#DejaVuSans-32"/>
       <use xlink:href="#DejaVuSans-30" x="63.623047"/>
       <use xlink:href="#DejaVuSans-32" x="127.246094"/>
       <use xlink:href="#DejaVuSans-36" x="190.869141"/>
      </g>
     </g>
    </g>
   </g>
   <g id="matplotlib.axis_2">
    <g id="ytick_1">
     <g id="line2d_8">
      <defs>
       <path id="mf01b49d09b" d="M 0 0 
L -3.5 0 
" style="stroke: #000000; stroke-width: 0.8"/>
      </defs>
      <g>
       <use xlink:href="#mf01b49d09b" x="144" y="492.51062" style="stroke: #000000; stroke-width: 0.8"/>
      </g>
     </g>
     <g id="text_8">
      <!-- 0 -->
      <g transform="translate(130.6375 496.309838) scale(0.1 -0.1)">
       <use xlink:href="#DejaVuSans-30"/>
      </g>
     </g>
    </g>
    <g id="ytick_2">
     <g id="line2d_9">
      <g>
       <use xlink:href="#mf01b49d09b" x="144" y="431.271252" style="stroke: #000000; stroke-width: 0.8"/>
      </g>
     </g>
     <g id="text_9">
      <!-- 2000 -->
      <g transform="translate(111.55 435.07047) scale(0.1 -0.1)">
       <use xlink:href="#DejaVuSans-32"/>
       <use xlink:href="#DejaVuSans-30" x="63.623047"/>
       <use xlink:href="#DejaVuSans-30" x="127.246094"/>
       <use xlink:href="#DejaVuSans-30" x="190.869141"/>
      </g>
     </g>
    </g>
    <g id="ytick_3">
     <g id="line2d_10">
      <g>
       <use xlink:href="#mf01b49d09b" x="144" y="370.031883" style="stroke: #000000; stroke-width: 0.8"/>
      </g>
     </g>
     <g id="text_10">
      <!-- 4000 -->
      <g transform="translate(111.55 373.831102) scale(0.1 -0.1)">
       <use xlink:href="#DejaVuSans-34"/>
       <use xlink:href="#DejaVuSans-30" x="63.623047"/>
       <use xlink:href="#DejaVuSans-30" x="127.246094"/>
       <use xlink:href="#DejaVuSans-30" x="190.869141"/>
      </g>
     </g>
    </g>
    <g id="ytick_4">
     <g id="line2d_11">
      <g>
       <use xlink:href="#mf01b49d09b" x="144" y="308.792515" style="stroke: #000000; stroke-width: 0.8"/>
      </g>
     </g>
     <g id="text_11">
      <!-- 6000 -->
      <g transform="translate(111.55 312.591734) scale(0.1 -0.1)">
       <use xlink:href="#DejaVuSans-36"/>
       <use xlink:href="#DejaVuSans-30" x="63.623047"/>
       <use xlink:href="#DejaVuSans-30" x="127.246094"/>
       <use xlink:href="#DejaVuSans-30" x="190.869141"/>
      </g>
     </g>
    </g>
    <g id="ytick_5">
     <g id="line2d_12">
      <g>
       <use xlink:href="#mf01b49d09b" x="144" y="247.553147" style="stroke: #000000; stroke-width: 0.8"/>
      </g>
     </g>
     <g id="text_12">
      <!-- 8000 -->
      <g transform="translate(111.55 251.352366) scale(0.1 -0.1)">
       <use xlink:href="#DejaVuSans-38"/>
       <use xlink:href="#DejaVuSans-30" x="63.623047"/>
       <use xlink:href="#DejaVuSans-30" x="127.246094"/>
       <use xlink:href="#DejaVuSans-30" x="190.869141"/>
      </g>
     </g>
    </g>
    <g id="ytick_6">
     <g id="line2d_13">
      <g>
       <use xlink:href="#mf01b49d09b" x="144" y="186.313779" style="stroke: #000000; stroke-width: 0.8"/>
      </g>
     </g>
     <g id="text_13">
      <!-- 10000 -->
      <g transform="translate(105.1875 190.112998) scale(0.1 -0.1)">
       <use xlink:href="#DejaVuSans-31"/>
       <use xlink:href="#DejaVuSans-30" x="63.623047"/>
       <use xlink:href="#DejaVuSans-30" x="127.246094"/>
       <use xlink:href="#DejaVuSans-30" x="190.869141"/>
       <use xlink:href="#DejaVuSans-30" x="254.492188"/>
      </g>
     </g>
    </g>
    <g id="ytick_7">
     <g id="line2d_14">
      <g>
       <use xlink:href="#mf01b49d09b" x="144" y="125.074411" style="stroke: #000000; stroke-width: 0.8"/>
      </g>
     </g>
     <g id="text_14">
      <!-- 12000 -->
      <g transform="translate(105.1875 128.873629) scale(0.1 -0.1)">
       <use xlink:href="#DejaVuSans-31"/>
       <use xlink:href="#DejaVuSans-32" x="63.623047"/>
       <use xlink:href="#DejaVuSans-30" x="127.246094"/>
       <use xlink:href="#DejaVuSans-30" x="190.869141"/>
       <use xlink:href="#DejaVuSans-30" x="254.492188"/>
      </g>
     </g>
    </g>
   </g>
   <g id="line2d_15">
    <path d="M 184.581818 492.48 
L 186.269212 492.418761 
L 287.325345 492.265662 
L 440.690682 492.112564 
L 491.687469 491.928846 
L 504.999131 491.836987 
L 537.434587 491.653269 
L 540.621886 491.592029 
L 564.05791 491.46955 
L 594.05602 491.285832 
L 594.430996 491.040875 
L 598.368248 490.887776 
L 633.053563 490.734678 
L 657.989492 490.58158 
L 672.426082 490.367242 
L 688.362578 489.907947 
L 689.674995 489.816087 
L 700.54931 489.57113 
L 707.111397 489.173074 
L 716.860782 488.958736 
L 721.360499 487.825808 
L 721.547987 487.703329 
L 723.235381 487.61147 
L 723.985334 487.182795 
L 724.172822 486.447922 
L 724.547798 486.264204 
L 724.735286 486.233584 
L 724.922775 485.253755 
L 726.047704 484.825079 
L 726.42268 484.304544 
L 726.797656 484.151446 
L 726.985145 483.78401 
L 727.172633 482.957278 
L 727.360121 482.712321 
L 727.547609 482.283645 
L 727.735097 481.395674 
L 727.922586 479.711592 
L 728.48505 478.486804 
L 728.860026 472.944642 
L 729.047515 472.362868 
L 729.422491 468.841604 
L 729.609979 468.25983 
L 729.797467 466.728846 
L 729.984956 466.636987 
L 730.54742 464.646707 
L 730.734908 460.329332 
L 730.922397 459.961896 
L 731.297373 458.737108 
L 731.484861 458.645249 
L 731.672349 457.971616 
L 731.859837 454.909648 
L 732.047326 454.174775 
L 732.234814 454.144156 
L 732.422302 451.878299 
L 732.60979 451.602722 
L 732.984767 451.449623 
L 733.734719 449.245006 
L 734.109696 448.632612 
L 734.67216 446.94853 
L 735.047137 442.294338 
L 735.422113 440.12034 
L 735.984578 440.028481 
L 736.359554 439.814143 
L 737.109507 438.619976 
L 737.484483 438.558736 
L 737.859459 435.986683 
L 738.046948 435.956063 
L 738.421924 435.527388 
L 738.609412 434.425079 
L 738.984389 434.057643 
L 739.171877 433.904544 
L 739.359365 433.38401 
L 739.92183 433.200292 
L 740.296806 432.894095 
L 740.671782 431.761166 
L 740.85927 431.669307 
L 741.234247 431.210012 
L 741.9842 430.873196 
L 742.171688 429.770887 
L 742.546664 429.556549 
L 742.734152 427.50503 
L 743.109129 427.443791 
L 743.484105 426.831397 
L 743.671593 426.249623 
L 744.234058 426.127145 
L 744.421546 425.943426 
L 744.796522 425.361652 
L 744.984011 425.331033 
L 745.358987 424.871738 
L 745.733963 424.749259 
L 745.921452 423.340753 
L 747.046381 423.095796 
L 747.421357 422.850838 
L 748.17131 422.758979 
L 748.358798 422.605881 
L 750.983633 421.901628 
L 751.358609 421.656671 
L 752.29605 421.534192 
L 753.046003 421.166756 
L 754.920885 420.79932 
L 755.670837 418.410984 
L 756.608278 418.288505 
L 756.795766 418.227266 
L 758.295672 418.074168 
L 759.045625 417.798591 
L 760.170554 417.645492 
L 761.857947 417.033098 
L 762.232924 416.88 
L 762.420412 416.818761 
L 762.6079 416.604423 
L 763.357853 416.359465 
L 764.295294 416.298226 
L 764.482782 416.083888 
L 764.857758 416.053269 
L 765.045247 415.563354 
L 765.232735 415.502114 
L 765.420223 414.859101 
L 768.232546 414.307947 
L 768.420034 413.94051 
L 769.732451 413.634313 
L 770.294916 413.450595 
L 771.044869 413.297497 
L 771.794821 413.113779 
L 772.732262 412.930061 
L 774.232168 412.348287 
L 774.607144 412.195188 
L 774.794632 411.582795 
L 775.732073 410.909162 
L 775.919562 410.633584 
L 776.857002 409.929332 
L 777.231979 409.286318 
L 777.419467 409.255699 
L 777.794443 408.551446 
L 778.544396 407.755334 
L 779.106861 407.663475 
L 779.294349 407.418518 
L 779.669325 407.265419 
L 779.856813 406.959222 
L 780.794254 406.744885 
L 780.981743 406.469307 
L 782.856624 406.132491 
L 783.044113 405.979392 
L 783.981554 405.856914 
L 785.293971 405.336379 
L 785.856435 405.24452 
L 786.231412 404.723985 
L 786.606388 404.509648 
L 787.543829 403.897254 
L 787.731317 403.193001 
L 788.48127 402.978663 
L 789.231223 402.672467 
L 790.918617 401.784496 
L 791.106105 401.478299 
L 791.668569 401.294581 
L 792.60601 400.865905 
L 792.980987 397.712078 
L 793.168475 396.701628 
L 793.355963 394.864447 
L 793.543451 394.650109 
L 794.105916 392.721069 
L 794.66838 391.771859 
L 794.855868 391.71062 
L 795.230845 391.343183 
L 795.418333 390.424593 
L 795.605821 390.087776 
L 795.980798 389.995917 
L 796.543262 389.261045 
L 796.73075 388.709891 
L 797.293215 388.066877 
L 797.480703 387.240146 
L 798.418144 385.739781 
L 799.168097 385.433584 
L 799.355585 385.311106 
L 799.543073 384.453755 
L 800.105538 384.178177 
L 800.85549 383.351446 
L 801.042979 382.769672 
L 801.230467 382.739052 
L 801.792931 382.157278 
L 802.167908 382.126659 
L 802.355396 381.820462 
L 802.730372 381.636744 
L 803.292837 381.116209 
L 803.667813 380.901871 
L 803.855301 380.381337 
L 805.167719 379.432126 
L 805.355207 379.340267 
L 805.730183 378.207339 
L 806.292648 377.993001 
L 806.855112 377.839903 
L 807.230089 377.258129 
L 807.417577 377.16627 
L 808.542506 375.849623 
L 809.292459 375.696525 
L 809.479947 375.665905 
L 809.854923 374.931033 
L 810.2299 374.777934 
L 810.979853 374.502357 
L 811.729805 373.981823 
L 811.917294 373.951203 
L 812.479758 373.522527 
L 812.854734 373.400049 
L 813.229711 373.369429 
L 813.417199 373.185711 
L 813.604687 372.665176 
L 814.35464 372.450838 
L 814.542128 372.144642 
L 814.729616 372.114022 
L 814.917105 371.562868 
L 815.667057 371.31791 
L 816.042034 371.226051 
L 816.41701 370.950474 
L 818.47938 370.154362 
L 818.666868 369.35825 
L 819.041845 369.082673 
L 819.604309 368.898955 
L 820.166774 368.592758 
L 820.916727 368.470279 
L 821.104215 367.612928 
L 822.791608 366.847436 
L 823.166585 366.786197 
L 823.354073 366.541239 
L 823.916538 366.357521 
L 824.104026 366.296282 
L 824.291514 365.959465 
L 824.66649 365.928846 
L 825.041467 365.714508 
L 825.603931 365.438931 
L 825.791419 365.071495 
L 826.541372 364.918396 
L 826.916349 364.704058 
L 827.103837 364.673439 
L 827.291325 364.489721 
L 827.853789 364.336622 
L 828.041278 364.061045 
L 828.228766 364.030425 
L 828.603742 363.785468 
L 828.978719 363.632369 
L 829.166207 363.479271 
L 830.291136 363.203694 
L 830.478624 362.866877 
L 831.041089 362.713779 
L 831.603553 362.62192 
L 831.97853 362.346343 
L 832.540994 362.193244 
L 832.915971 362.070765 
L 833.103459 361.856428 
L 833.478435 361.795188 
L 833.665923 361.274654 
L 833.853411 361.182795 
L 834.228388 360.784739 
L 834.415876 360.141725 
L 834.790852 359.927388 
L 834.978341 359.835529 
L 835.165829 359.590571 
L 835.540805 359.376233 
L 836.290758 358.825079 
L 836.665734 358.7026 
L 836.853222 358.365784 
L 837.228199 358.182066 
L 837.790663 357.845249 
L 838.353128 357.692151 
L 838.728104 357.294095 
L 840.415498 356.038688 
L 840.977963 355.885589 
L 841.540427 355.763111 
L 841.727915 355.701871 
L 842.852844 354.752661 
L 843.227821 354.599563 
L 844.915215 353.987169 
L 845.290191 353.742211 
L 845.852655 353.589113 
L 846.41512 353.282916 
L 846.977585 353.129818 
L 847.540049 352.88486 
L 848.47749 352.731762 
L 849.039955 352.364326 
L 849.227443 352.333706 
L 849.414931 352.027509 
L 851.852277 351.139538 
L 852.227254 350.95582 
L 852.60223 350.894581 
L 852.977207 350.496525 
L 853.164695 349.179878 
L 853.539671 348.873682 
L 853.914648 348.720583 
L 854.477112 347.985711 
L 854.852088 347.710134 
L 855.227065 346.883402 
L 855.602041 346.669064 
L 855.977018 346.485346 
L 856.351994 346.393487 
L 856.72697 346.14853 
L 856.914459 346.026051 
L 857.851899 345.811713 
L 858.226876 345.444277 
L 858.78934 345.015601 
L 859.164317 344.893123 
L 859.539293 344.525687 
L 860.664222 343.760194 
L 861.039199 343.729575 
L 861.226687 343.453998 
L 861.97664 343.23966 
L 862.164128 342.627266 
L 862.539104 342.321069 
L 863.289057 342.106731 
L 863.664033 341.953633 
L 863.851521 341.524957 
L 864.226498 341.402479 
L 864.413986 341.004423 
L 864.976451 340.606367 
L 865.351427 340.422649 
L 865.726403 340.33079 
L 866.10138 340.116452 
L 866.288868 340.085832 
L 866.663844 339.871495 
L 867.413797 339.473439 
L 867.788773 338.738566 
L 869.288679 338.003694 
L 869.476167 337.452539 
L 870.038632 337.238202 
L 870.601096 336.595188 
L 870.788584 336.533949 
L 871.163561 336.258372 
L 871.351049 336.227752 
L 871.726025 335.768457 
L 872.101002 335.554119 
L 872.850954 335.247922 
L 873.038443 334.941725 
L 873.413419 334.880486 
L 873.600907 334.666148 
L 873.788395 334.635529 
L 873.975884 334.023135 
L 874.538348 333.839417 
L 874.725836 333.747558 
L 874.913325 333.441361 
L 875.288301 333.227023 
L 875.850765 332.55339 
L 877.350671 331.665419 
L 877.913136 331.512321 
L 878.100624 331.420462 
L 878.4756 330.961166 
L 878.663088 330.899927 
L 879.600529 330.103815 
L 880.162994 329.828238 
L 880.53797 329.64452 
L 880.725458 329.6139 
L 880.912947 328.970887 
L 881.475411 328.603451 
L 881.662899 328.021677 
L 882.037876 327.7461 
L 882.225364 327.501142 
L 882.412852 327.470522 
L 883.162805 326.796889 
L 883.912758 326.490693 
L 884.287734 326.215115 
L 885.412663 325.7252 
L 886.162616 324.745371 
L 886.912569 324.316695 
L 887.100057 324.102357 
L 887.287545 324.071738 
L 887.475033 323.734921 
L 889.91238 322.448894 
L 890.287356 322.203937 
L 890.662332 322.142697 
L 891.037309 321.958979 
L 891.412285 321.805881 
L 892.349726 321.132248 
L 893.662143 320.366756 
L 894.224608 320.121798 
L 894.787072 319.876841 
L 895.349537 319.631883 
L 895.724513 319.509405 
L 895.912002 318.407096 
L 896.474466 318.162139 
L 896.661954 317.886561 
L 896.849442 317.855942 
L 897.411907 316.998591 
L 897.599395 316.692394 
L 897.786883 316.600535 
L 897.974372 316.233098 
L 898.349348 316.11062 
L 899.099301 315.10017 
L 899.474277 313.722284 
L 899.661765 313.293609 
L 900.036742 311.088991 
L 900.22423 310.170401 
L 900.974183 309.31305 
L 901.161671 309.129332 
L 901.911624 306.40418 
L 902.099112 306.251081 
L 902.2866 305.853026 
L 902.474088 304.4139 
L 902.661576 303.954605 
L 902.849064 303.923985 
L 903.036553 303.250352 
L 903.599017 302.882916 
L 903.973994 301.903086 
L 906.036364 300.862017 
L 906.598828 300.219004 
L 906.973805 299.57599 
L 907.348781 299.453512 
L 907.723757 299.300413 
L 908.098734 299.086075 
L 908.47371 298.902357 
L 909.411151 298.6574 
L 909.786127 298.473682 
L 910.348592 298.412442 
L 912.035986 297.157035 
L 912.410962 296.942697 
L 912.59845 296.66712 
L 913.348403 296.391543 
L 913.535891 296.299684 
L 913.723379 295.626051 
L 914.285844 295.197375 
L 914.66082 295.136136 
L 915.410773 294.615601 
L 916.348214 294.278785 
L 916.72319 293.911349 
L 917.098167 293.850109 
L 917.660631 292.80904 
L 918.035608 292.655942 
L 918.598072 291.614872 
L 918.78556 291.033098 
L 918.973049 290.971859 
L 919.348025 290.696282 
L 919.723001 290.420705 
L 919.91049 290.145128 
L 920.285466 288.95096 
L 920.472954 288.706002 
L 920.660442 288.062989 
L 920.84793 288.00175 
L 921.035419 287.481215 
L 921.410395 287.297497 
L 922.535324 286.348287 
L 922.722812 285.919611 
L 923.097789 285.827752 
L 923.847741 285.460316 
L 924.597694 285.215358 
L 924.785182 284.572345 
L 928.347458 282.15339 
L 928.534946 281.877813 
L 928.722434 281.265419 
L 929.847363 280.775504 
L 930.22234 280.316209 
L 930.597316 280.22435 
L 930.784804 279.856914 
L 931.159781 279.703815 
L 931.347269 279.397618 
L 933.222151 278.356549 
L 933.784615 277.866634 
L 934.34708 277.31548 
L 934.534568 276.948044 
L 934.722056 276.33565 
L 935.097033 275.784496 
L 935.284521 275.447679 
L 936.034474 271.803937 
L 936.40945 271.038445 
L 936.596938 270.671009 
L 936.784426 269.048165 
L 936.971915 265.894338 
L 938.284332 257.228967 
L 938.659308 253.06469 
L 939.034285 252.482916 
L 939.409261 247.093852 
L 939.596749 245.685346 
L 939.971726 239.745128 
L 940.346702 238.612199 
L 940.53419 235.550231 
L 940.721678 234.999077 
L 941.096655 231.661531 
L 941.471631 222.659344 
L 941.659119 222.169429 
L 941.846607 221.312078 
L 942.034096 218.556306 
L 942.221584 218.341968 
L 942.59656 213.718396 
L 942.971537 213.504058 
L 943.346513 212.646707 
L 943.534001 212.432369 
L 943.721489 212.003694 
L 943.908978 211.115723 
L 944.283954 210.932005 
L 944.846418 209.278542 
L 945.221395 206.951446 
L 945.408883 206.52277 
L 945.596371 206.461531 
L 945.783859 206.247193 
L 946.158836 205.6348 
L 946.346324 204.62435 
L 946.533812 204.410012 
L 946.7213 204.011956 
L 946.908789 203.950717 
L 947.283765 203.368943 
L 947.658741 203.215844 
L 947.846229 202.756549 
L 948.033718 202.603451 
L 948.408694 202.082916 
L 948.78367 201.776719 
L 949.346135 201.286804 
L 949.533623 201.256185 
L 950.096088 200.674411 
L 950.658552 200.276355 
L 950.84604 200.215115 
L 951.595993 200.062017 
L 951.783481 199.878299 
L 952.158458 199.81706 
L 952.720922 199.419004 
L 954.220828 198.714751 
L 954.408316 198.286075 
L 955.345757 198.041118 
L 955.908222 197.489964 
L 956.283198 197.275626 
L 957.033151 196.448894 
L 957.783103 196.173317 
L 958.345568 195.805881 
L 958.720544 195.530304 
L 959.095521 195.254727 
L 959.470497 195.009769 
L 959.657985 194.305516 
L 960.407938 193.815601 
L 960.595426 193.540024 
L 960.970403 193.325687 
L 961.532867 192.927631 
L 962.657796 192.284617 
L 962.845284 192.131519 
L 963.407749 192.070279 
L 963.782725 191.182309 
L 963.970214 191.09045 
L 964.34519 190.600535 
L 965.095143 189.896282 
L 965.282631 189.804423 
L 965.845095 189.038931 
L 966.032584 188.426537 
L 966.220072 188.273439 
L 966.595048 188.212199 
L 966.970025 187.844763 
L 967.719977 187.477327 
L 968.094954 187.354848 
L 968.844906 186.558736 
L 969.032395 186.528117 
L 969.219883 182.884374 
L 969.594859 182.36384 
L 969.969836 182.027023 
L 970.157324 181.659587 
L 970.344812 181.628967 
L 970.719788 181.230911 
L 970.907277 180.649137 
L 972.032206 179.42435 
L 972.219694 179.087533 
L 972.59467 177.250352 
L 972.782158 176.668578 
L 972.969647 175.719368 
L 973.157135 175.443791 
L 973.344623 174.249623 
L 973.719599 173.300413 
L 973.907088 172.565541 
L 974.65704 171.70819 
L 975.032017 171.187655 
L 975.406993 170.758979 
L 975.969458 170.575261 
L 976.531922 170.024107 
L 977.094387 169.074897 
L 977.281875 169.013657 
L 977.656851 168.615601 
L 977.844339 168.431883 
L 978.219316 167.697011 
L 978.594292 167.268335 
L 978.78178 166.257886 
L 980.094198 165.308676 
L 981.406615 163.563354 
L 981.781591 162.583524 
L 981.96908 162.399806 
L 982.531544 161.083159 
L 982.719032 160.9913 
L 982.906521 160.409526 
L 983.094009 160.195188 
L 983.656473 158.480486 
L 984.218938 157.592515 
L 984.781402 157.255699 
L 984.968891 156.735164 
L 985.906332 155.724714 
L 986.09382 155.265419 
L 986.843772 152.540267 
L 987.031261 152.080972 
L 987.218749 150.488748 
L 987.406237 150.243791 
L 987.593725 148.865905 
L 987.968702 148.284131 
L 988.15619 147.732977 
L 988.531166 145.314022 
L 988.906143 144.426051 
L 989.093631 144.242333 
L 989.281119 136.250595 
L 989.468607 133.219247 
L 989.656095 115.092394 
L 990.21856 113.806367 
L 990.406048 113.622649 
L 990.781024 112.152904 
L 991.156001 111.173074 
L 992.28093 103.426294 
L 992.843394 101.86469 
L 993.030883 99.93565 
L 993.405859 99.231397 
L 993.780835 97.761652 
L 993.968324 95.863232 
L 994.155812 95.434557 
L 994.530788 94.14853 
L 995.093253 93.076841 
L 995.280741 92.954362 
L 996.030694 89.831154 
L 996.218182 89.28 
L 996.218182 89.28 
" clip-path="url(#pbc7583a621)" style="fill: none; stroke: #1f77b4; stroke-width: 1.5; stroke-linecap: square"/>
   </g>
   <g id="patch_3">
    <path d="M 144 512.64 
L 144 69.12 
" style="fill: none; stroke: #000000; stroke-width: 0.8; stroke-linejoin: miter; stroke-linecap: square"/>
   </g>
   <g id="patch_4">
    <path d="M 1036.8 512.64 
L 1036.8 69.12 
" style="fill: none; stroke: #000000; stroke-width: 0.8; stroke-linejoin: miter; stroke-linecap: square"/>
   </g>
   <g id="patch_5">
    <path d="M 144 512.64 
L 1036.8 512.64 
" style="fill: none; stroke: #000000; stroke-width: 0.8; stroke-linejoin: miter; stroke-linecap: square"/>
   </g>
   <g id="patch_6">
    <path d="M 144 69.12 
L 1036.8 69.12 
" style="fill: none; stroke: #000000; stroke-width: 0.8; stroke-linejoin: miter; stroke-linecap: square"/>
   </g>
   <g id="text_15">
    <!-- Number of AEDs in the OpenStreetMap database in Poland from first edition, day by day. As at: 2025-12-18 -->
    <g transform="translate(144 63.12) scale(0.14 -0.14)">
     <defs>
      <path id="DejaVuSans-4e" d="M 628 4666 
L 1478 4666 
L 3547 763 
L 3547 4666 
L 4159 4666 
L 4159 0 
L 3309 0 
L 1241 3903 
L 1241 0 
L 628 0 
L 628 4666 
z
" transform="scale(0.015625)"/>
      <path id="DejaVuSans-75" d="M 544 1381 
L 544 3500 
L 1119 3500 
L 1119 1403 
Q 1119 906 1312 657 
Q 1506 409 1894 409 
Q 2359 409 2629 706 
Q 2900 1003 2900 1516 
L 2900 3500 
L 3475 3500 
L 3475 0 
L 2900 0 
L 2900 538 
Q 2691 219 2414 64 
Q 2138 -91 1772 -91 
Q 1169 -91 856 284 
Q 544 659 544 1381 
z
M 1991 3584 
L 1991 3584 
z
" transform="scale(0.015625)"/>
      <path id="DejaVuSans-6d" d="M 3328 2828 
Q 3544 3216 3844 3400 
Q 4144 3584 4550 3584 
Q 5097 3584 5394 3201 
Q 5691 2819 5691 2113 
L 5691 0 
L 5113 0 
L 5113 2094 
Q 5113 2597 4934 2840 
Q 4756 3084 4391 3084 
Q 3944 3084 3684 2787 
Q 3425 2491 3425 1978 
L 3425 0 
L 2847 0 
L 2847 2094 
Q 2847 2600 2669 2842 
Q 2491 3084 2119 3084 
Q 1678 3084 1418 2786 
Q 1159 2488 1159 1978 
L 1159 0 
L 581 0 
L 581 3500 
L 1159 3500 
L 1159 2956 
Q 1356 3278 1631 3431 
Q 1906 3584 2284 3584 
Q 2666 3584 2933 3390 
Q 3200 3197 3328 2828 
z
" transform="scale(0.015625)"/>
      <path id="DejaVuSans-62" d="M 3116 1747 
Q 3116 2381 2855 2742 
Q 2594 3103 2138 3103 
Q 1681 3103 1420 2742 
Q 1159 2381 1159 1747 
Q 1159 1113 1420 752 
Q 1681 391 2138 391 
Q 2594 391 2855 752 
Q 3116 1113 3116 1747 
z
M 1159 2969 
Q 1341 3281 1617 3432 
Q 1894 3584 2278 3584 
Q 2916 3584 3314 3078 
Q 3713 2572 3713 1747 
Q 3713 922 3314 415 
Q 2916 -91 2278 -91 
Q 1894 -91 1617 61 
Q 1341 213 1159 525 
L 1159 0 
L 581 0 
L 581 4863 
L 1159 4863 
L 1159 2969 
z
" transform="scale(0.015625)"/>
      <path id="DejaVuSans-65" d="M 3597 1894 
L 3597 1613 
L 953 1613 
Q 991 1019 1311 708 
Q 1631 397 2203 397 
Q 2534 397 2845 478 
Q 3156 559 3463 722 
L 3463 178 
Q 3153 47 2828 -22 
Q 2503 -91 2169 -91 
Q 1331 -91 842 396 
Q 353 884 353 1716 
Q 353 2575 817 3079 
Q 1281 3584 2069 3584 
Q 2775 3584 3186 3129 
Q 3597 2675 3597 1894 
z
M 3022 2063 
Q 3016 2534 2758 2815 
Q 2500 3097 2075 3097 
Q 1594 3097 1305 2825 
Q 1016 2553 972 2059 
L 3022 2063 
z
" transform="scale(0.015625)"/>
      <path id="DejaVuSans-72" d="M 2631 2963 
Q 2534 3019 2420 3045 
Q 2306 3072 2169 3072 
Q 1681 3072 1420 2755 
Q 1159 2438 1159 1844 
L 1159 0 
L 581 0 
L 581 3500 
L 1159 3500 
L 1159 2956 
Q 1341 3275 1631 3429 
Q 1922 3584 2338 3584 
Q 2397 3584 2469 3576 
Q 2541 3569 2628 3553 
L 2631 2963 
z
" transform="scale(0.015625)"/>
      <path id="DejaVuSans-20" transform="scale(0.015625)"/>
      <path id="DejaVuSans-6f" d="M 1959 3097 
Q 1497 3097 1228 2736 
Q 959 2375 959 1747 
Q 959 1119 1226 758 
Q 1494 397 1959 397 
Q 2419 397 2687 759 
Q 2956 1122 2956 1747 
Q 2956 2369 2687 2733 
Q 2419 3097 1959 3097 
z
M 1959 3584 
Q 2709 3584 3137 3096 
Q 3566 2609 3566 1747 
Q 3566 888 3137 398 
Q 2709 -91 1959 -91 
Q 1206 -91 779 398 
Q 353 888 353 1747 
Q 353 2609 779 3096 
Q 1206 3584 1959 3584 
z
" transform="scale(0.015625)"/>
      <path id="DejaVuSans-66" d="M 2375 4863 
L 2375 4384 
L 1825 4384 
Q 1516 4384 1395 4259 
Q 1275 4134 1275 3809 
L 1275 3500 
L 2222 3500 
L 2222 3053 
L 1275 3053 
L 1275 0 
L 697 0 
L 697 3053 
L 147 3053 
L 147 3500 
L 697 3500 
L 697 3744 
Q 697 4328 969 4595 
Q 1241 4863 1831 4863 
L 2375 4863 
z
" transform="scale(0.015625)"/>
      <path id="DejaVuSans-41" d="M 2188 4044 
L 1331 1722 
L 3047 1722 
L 2188 4044 
z
M 1831 4666 
L 2547 4666 
L 4325 0 
L 3669 0 
L 3244 1197 
L 1141 1197 
L 716 0 
L 50 0 
L 1831 4666 
z
" transform="scale(0.015625)"/>
      <path id="DejaVuSans-45" d="M 628 4666 
L 3578 4666 
L 3578 4134 
L 1259 4134 
L 1259 2753 
L 3481 2753 
L 3481 2222 
L 1259 2222 
L 1259 531 
L 3634 531 
L 3634 0 
L 628 0 
L 628 4666 
z
" transform="scale(0.015625)"/>
      <path id="DejaVuSans-44" d="M 1259 4147 
L 1259 519 
L 2022 519 
Q 2988 519 3436 956 
Q 3884 1394 3884 2338 
Q 3884 3275 3436 3711 
Q 2988 4147 2022 4147 
L 1259 4147 
z
M 628 4666 
L 1925 4666 
Q 3281 4666 3915 4102 
Q 4550 3538 4550 2338 
Q 4550 1131 3912 565 
Q 3275 0 1925 0 
L 628 0 
L 628 4666 
z
" transform="scale(0.015625)"/>
      <path id="DejaVuSans-73" d="M 2834 3397 
L 2834 2853 
Q 2591 2978 2328 3040 
Q 2066 3103 1784 3103 
Q 1356 3103 1142 2972 
Q 928 2841 928 2578 
Q 928 2378 1081 2264 
Q 1234 2150 1697 2047 
L 1894 2003 
Q 2506 1872 2764 1633 
Q 3022 1394 3022 966 
Q 3022 478 2636 193 
Q 2250 -91 1575 -91 
Q 1294 -91 989 -36 
Q 684 19 347 128 
L 347 722 
Q 666 556 975 473 
Q 1284 391 1588 391 
Q 1994 391 2212 530 
Q 2431 669 2431 922 
Q 2431 1156 2273 1281 
Q 2116 1406 1581 1522 
L 1381 1569 
Q 847 1681 609 1914 
Q 372 2147 372 2553 
Q 372 3047 722 3315 
Q 1072 3584 1716 3584 
Q 2034 3584 2315 3537 
Q 2597 3491 2834 3397 
z
" transform="scale(0.015625)"/>
      <path id="DejaVuSans-69" d="M 603 3500 
L 1178 3500 
L 1178 0 
L 603 0 
L 603 3500 
z
M 603 4863 
L 1178 4863 
L 1178 4134 
L 603 4134 
L 603 4863 
z
" transform="scale(0.015625)"/>
      <path id="DejaVuSans-6e" d="M 3513 2113 
L 3513 0 
L 2938 0 
L 2938 2094 
Q 2938 2591 2744 2837 
Q 2550 3084 2163 3084 
Q 1697 3084 1428 2787 
Q 1159 2491 1159 1978 
L 1159 0 
L 581 0 
L 581 3500 
L 1159 3500 
L 1159 2956 
Q 1366 3272 1645 3428 
Q 1925 3584 2291 3584 
Q 2894 3584 3203 3211 
Q 3513 2838 3513 2113 
z
" transform="scale(0.015625)"/>
      <path id="DejaVuSans-74" d="M 1172 4494 
L 1172 3500 
L 2356 3500 
L 2356 3053 
L 1172 3053 
L 1172 1153 
Q 1172 725 1289 603 
Q 1406 481 1766 481 
L 2356 481 
L 2356 0 
L 1766 0 
Q 1100 0 847 248 
Q 594 497 594 1153 
L 594 3053 
L 172 3053 
L 172 3500 
L 594 3500 
L 594 4494 
L 1172 4494 
z
" transform="scale(0.015625)"/>
      <path id="DejaVuSans-68" d="M 3513 2113 
L 3513 0 
L 2938 0 
L 2938 2094 
Q 2938 2591 2744 2837 
Q 2550 3084 2163 3084 
Q 1697 3084 1428 2787 
Q 1159 2491 1159 1978 
L 1159 0 
L 581 0 
L 581 4863 
L 1159 4863 
L 1159 2956 
Q 1366 3272 1645 3428 
Q 1925 3584 2291 3584 
Q 2894 3584 3203 3211 
Q 3513 2838 3513 2113 
z
" transform="scale(0.015625)"/>
      <path id="DejaVuSans-4f" d="M 2522 4238 
Q 1834 4238 1429 3725 
Q 1025 3213 1025 2328 
Q 1025 1447 1429 934 
Q 1834 422 2522 422 
Q 3209 422 3611 934 
Q 4013 1447 4013 2328 
Q 4013 3213 3611 3725 
Q 3209 4238 2522 4238 
z
M 2522 4750 
Q 3503 4750 4090 4092 
Q 4678 3434 4678 2328 
Q 4678 1225 4090 567 
Q 3503 -91 2522 -91 
Q 1538 -91 948 565 
Q 359 1222 359 2328 
Q 359 3434 948 4092 
Q 1538 4750 2522 4750 
z
" transform="scale(0.015625)"/>
      <path id="DejaVuSans-70" d="M 1159 525 
L 1159 -1331 
L 581 -1331 
L 581 3500 
L 1159 3500 
L 1159 2969 
Q 1341 3281 1617 3432 
Q 1894 3584 2278 3584 
Q 2916 3584 3314 3078 
Q 3713 2572 3713 1747 
Q 3713 922 3314 415 
Q 2916 -91 2278 -91 
Q 1894 -91 1617 61 
Q 1341 213 1159 525 
z
M 3116 1747 
Q 3116 2381 2855 2742 
Q 2594 3103 2138 3103 
Q 1681 3103 1420 2742 
Q 1159 2381 1159 1747 
Q 1159 1113 1420 752 
Q 1681 391 2138 391 
Q 2594 391 2855 752 
Q 3116 1113 3116 1747 
z
" transform="scale(0.015625)"/>
      <path id="DejaVuSans-53" d="M 3425 4513 
L 3425 3897 
Q 3066 4069 2747 4153 
Q 2428 4238 2131 4238 
Q 1616 4238 1336 4038 
Q 1056 3838 1056 3469 
Q 1056 3159 1242 3001 
Q 1428 2844 1947 2747 
L 2328 2669 
Q 3034 2534 3370 2195 
Q 3706 1856 3706 1288 
Q 3706 609 3251 259 
Q 2797 -91 1919 -91 
Q 1588 -91 1214 -16 
Q 841 59 441 206 
L 441 856 
Q 825 641 1194 531 
Q 1563 422 1919 422 
Q 2459 422 2753 634 
Q 3047 847 3047 1241 
Q 3047 1584 2836 1778 
Q 2625 1972 2144 2069 
L 1759 2144 
Q 1053 2284 737 2584 
Q 422 2884 422 3419 
Q 422 4038 858 4394 
Q 1294 4750 2059 4750 
Q 2388 4750 2728 4690 
Q 3069 4631 3425 4513 
z
" transform="scale(0.015625)"/>
      <path id="DejaVuSans-4d" d="M 628 4666 
L 1569 4666 
L 2759 1491 
L 3956 4666 
L 4897 4666 
L 4897 0 
L 4281 0 
L 4281 4097 
L 3078 897 
L 2444 897 
L 1241 4097 
L 1241 0 
L 628 0 
L 628 4666 
z
" transform="scale(0.015625)"/>
      <path id="DejaVuSans-61" d="M 2194 1759 
Q 1497 1759 1228 1600 
Q 959 1441 959 1056 
Q 959 750 1161 570 
Q 1363 391 1709 391 
Q 2188 391 2477 730 
Q 2766 1069 2766 1631 
L 2766 1759 
L 2194 1759 
z
M 3341 1997 
L 3341 0 
L 2766 0 
L 2766 531 
Q 2569 213 2275 61 
Q 1981 -91 1556 -91 
Q 1019 -91 701 211 
Q 384 513 384 1019 
Q 384 1609 779 1909 
Q 1175 2209 1959 2209 
L 2766 2209 
L 2766 2266 
Q 2766 2663 2505 2880 
Q 2244 3097 1772 3097 
Q 1472 3097 1187 3025 
Q 903 2953 641 2809 
L 641 3341 
Q 956 3463 1253 3523 
Q 1550 3584 1831 3584 
Q 2591 3584 2966 3190 
Q 3341 2797 3341 1997 
z
" transform="scale(0.015625)"/>
      <path id="DejaVuSans-64" d="M 2906 2969 
L 2906 4863 
L 3481 4863 
L 3481 0 
L 2906 0 
L 2906 525 
Q 2725 213 2448 61 
Q 2172 -91 1784 -91 
Q 1150 -91 751 415 
Q 353 922 353 1747 
Q 353 2572 751 3078 
Q 1150 3584 1784 3584 
Q 2172 3584 2448 3432 
Q 2725 3281 2906 2969 
z
M 947 1747 
Q 947 1113 1208 752 
Q 1469 391 1925 391 
Q 2381 391 2643 752 
Q 2906 1113 2906 1747 
Q 2906 2381 2643 2742 
Q 2381 3103 1925 3103 
Q 1469 3103 1208 2742 
Q 947 2381 947 1747 
z
" transform="scale(0.015625)"/>
      <path id="DejaVuSans-50" d="M 1259 4147 
L 1259 2394 
L 2053 2394 
Q 2494 2394 2734 2622 
Q 2975 2850 2975 3272 
Q 2975 3691 2734 3919 
Q 2494 4147 2053 4147 
L 1259 4147 
z
M 628 4666 
L 2053 4666 
Q 2838 4666 3239 4311 
Q 3641 3956 3641 3272 
Q 3641 2581 3239 2228 
Q 2838 1875 2053 1875 
L 1259 1875 
L 1259 0 
L 628 0 
L 628 4666 
z
" transform="scale(0.015625)"/>
      <path id="DejaVuSans-6c" d="M 603 4863 
L 1178 4863 
L 1178 0 
L 603 0 
L 603 4863 
z
" transform="scale(0.015625)"/>
      <path id="DejaVuSans-2c" d="M 750 794 
L 1409 794 
L 1409 256 
L 897 -744 
L 494 -744 
L 750 256 
L 750 794 
z
" transform="scale(0.015625)"/>
      <path id="DejaVuSans-79" d="M 2059 -325 
Q 1816 -950 1584 -1140 
Q 1353 -1331 966 -1331 
L 506 -1331 
L 506 -850 
L 844 -850 
Q 1081 -850 1212 -737 
Q 1344 -625 1503 -206 
L 1606 56 
L 191 3500 
L 800 3500 
L 1894 763 
L 2988 3500 
L 3597 3500 
L 2059 -325 
z
" transform="scale(0.015625)"/>
      <path id="DejaVuSans-2e" d="M 684 794 
L 1344 794 
L 1344 0 
L 684 0 
L 684 794 
z
" transform="scale(0.015625)"/>
      <path id="DejaVuSans-3a" d="M 750 794 
L 1409 794 
L 1409 0 
L 750 0 
L 750 794 
z
M 750 3309 
L 1409 3309 
L 1409 2516 
L 750 2516 
L 750 3309 
z
" transform="scale(0.015625)"/>
      <path id="DejaVuSans-35" d="M 691 4666 
L 3169 4666 
L 3169 4134 
L 1269 4134 
L 1269 2991 
Q 1406 3038 1543 3061 
Q 1681 3084 1819 3084 
Q 2600 3084 3056 2656 
Q 3513 2228 3513 1497 
Q 3513 744 3044 326 
Q 2575 -91 1722 -91 
Q 1428 -91 1123 -41 
Q 819 9 494 109 
L 494 744 
Q 775 591 1075 516 
Q 1375 441 1709 441 
Q 2250 441 2565 725 
Q 2881 1009 2881 1497 
Q 2881 1984 2565 2268 
Q 2250 2553 1709 2553 
Q 1456 2553 1204 2497 
Q 953 2441 691 2322 
L 691 4666 
z
" transform="scale(0.015625)"/>
      <path id="DejaVuSans-2d" d="M 313 2009 
L 1997 2009 
L 1997 1497 
L 313 1497 
L 313 2009 
z
" transform="scale(0.015625)"/>
     </defs>
     <use xlink:href="#DejaVuSans-4e"/>
     <use xlink:href="#DejaVuSans-75" x="74.804688"/>
     <use xlink:href="#DejaVuSans-6d" x="138.183594"/>
     <use xlink:href="#DejaVuSans-62" x="235.595703"/>
     <use xlink:href="#DejaVuSans-65" x="299.072266"/>
     <use xlink:href="#DejaVuSans-72" x="360.595703"/>
     <use xlink:href="#DejaVuSans-20" x="401.708984"/>
     <use xlink:href="#DejaVuSans-6f" x="433.496094"/>
     <use xlink:href="#DejaVuSans-66" x="494.677734"/>
     <use xlink:href="#DejaVuSans-20" x="529.882812"/>
     <use xlink:href="#DejaVuSans-41" x="561.669922"/>
     <use xlink:href="#DejaVuSans-45" x="630.078125"/>
     <use xlink:href="#DejaVuSans-44" x="693.261719"/>
     <use xlink:href="#DejaVuSans-73" x="770.263672"/>
     <use xlink:href="#DejaVuSans-20" x="822.363281"/>
     <use xlink:href="#DejaVuSans-69" x="854.150391"/>
     <use xlink:href="#DejaVuSans-6e" x="881.933594"/>
     <use xlink:href="#DejaVuSans-20" x="945.3125"/>
     <use xlink:href="#DejaVuSans-74" x="977.099609"/>
     <use xlink:href="#DejaVuSans-68" x="1016.308594"/>
     <use xlink:href="#DejaVuSans-65" x="1079.6875"/>
     <use xlink:href="#DejaVuSans-20" x="1141.210938"/>
     <use xlink:href="#DejaVuSans-4f" x="1172.998047"/>
     <use xlink:href="#DejaVuSans-70" x="1251.708984"/>
     <use xlink:href="#DejaVuSans-65" x="1315.185547"/>
     <use xlink:href="#DejaVuSans-6e" x="1376.708984"/>
     <use xlink:href="#DejaVuSans-53" x="1440.087891"/>
     <use xlink:href="#DejaVuSans-74" x="1503.564453"/>
     <use xlink:href="#DejaVuSans-72" x="1542.773438"/>
     <use xlink:href="#DejaVuSans-65" x="1581.636719"/>
     <use xlink:href="#DejaVuSans-65" x="1643.160156"/>
     <use xlink:href="#DejaVuSans-74" x="1704.683594"/>
     <use xlink:href="#DejaVuSans-4d" x="1743.892578"/>
     <use xlink:href="#DejaVuSans-61" x="1830.171875"/>
     <use xlink:href="#DejaVuSans-70" x="1891.451172"/>
     <use xlink:href="#DejaVuSans-20" x="1954.927734"/>
     <use xlink:href="#DejaVuSans-64" x="1986.714844"/>
     <use xlink:href="#DejaVuSans-61" x="2050.191406"/>
     <use xlink:href="#DejaVuSans-74" x="2111.470703"/>
     <use xlink:href="#DejaVuSans-61" x="2150.679688"/>
     <use xlink:href="#DejaVuSans-62" x="2211.958984"/>
     <use xlink:href="#DejaVuSans-61" x="2275.435547"/>
     <use xlink:href="#DejaVuSans-73" x="2336.714844"/>
     <use xlink:href="#DejaVuSans-65" x="2388.814453"/>
     <use xlink:href="#DejaVuSans-20" x="2450.337891"/>
     <use xlink:href="#DejaVuSans-69" x="2482.125"/>
     <use xlink:href="#DejaVuSans-6e" x="2509.908203"/>
     <use xlink:href="#DejaVuSans-20" x="2573.287109"/>
     <use xlink:href="#DejaVuSans-50" x="2605.074219"/>
     <use xlink:href="#DejaVuSans-6f" x="2661.751953"/>
     <use xlink:href="#DejaVuSans-6c" x="2722.933594"/>
     <use xlink:href="#DejaVuSans-61" x="2750.716797"/>
     <use xlink:href="#DejaVuSans-6e" x="2811.996094"/>
     <use xlink:href="#DejaVuSans-64" x="2875.375"/>
     <use xlink:href="#DejaVuSans-20" x="2938.851562"/>
     <use xlink:href="#DejaVuSans-66" x="2970.638672"/>
     <use xlink:href="#DejaVuSans-72" x="3005.84375"/>
     <use xlink:href="#DejaVuSans-6f" x="3044.707031"/>
     <use xlink:href="#DejaVuSans-6d" x="3105.888672"/>
     <use xlink:href="#DejaVuSans-20" x="3203.300781"/>
     <use xlink:href="#DejaVuSans-66" x="3235.087891"/>
     <use xlink:href="#DejaVuSans-69" x="3270.292969"/>
     <use xlink:href="#DejaVuSans-72" x="3298.076172"/>
     <use xlink:href="#DejaVuSans-73" x="3339.189453"/>
     <use xlink:href="#DejaVuSans-74" x="3391.289062"/>
     <use xlink:href="#DejaVuSans-20" x="3430.498047"/>
     <use xlink:href="#DejaVuSans-65" x="3462.285156"/>
     <use xlink:href="#DejaVuSans-64" x="3523.808594"/>
     <use xlink:href="#DejaVuSans-69" x="3587.285156"/>
     <use xlink:href="#DejaVuSans-74" x="3615.068359"/>
     <use xlink:href="#DejaVuSans-69" x="3654.277344"/>
     <use xlink:href="#DejaVuSans-6f" x="3682.060547"/>
     <use xlink:href="#DejaVuSans-6e" x="3743.242188"/>
     <use xlink:href="#DejaVuSans-2c" x="3806.621094"/>
     <use xlink:href="#DejaVuSans-20" x="3838.408203"/>
     <use xlink:href="#DejaVuSans-64" x="3870.195312"/>
     <use xlink:href="#DejaVuSans-61" x="3933.671875"/>
     <use xlink:href="#DejaVuSans-79" x="3994.951172"/>
     <use xlink:href="#DejaVuSans-20" x="4054.130859"/>
     <use xlink:href="#DejaVuSans-62" x="4085.917969"/>
     <use xlink:href="#DejaVuSans-79" x="4149.394531"/>
     <use xlink:href="#DejaVuSans-20" x="4208.574219"/>
     <use xlink:href="#DejaVuSans-64" x="4240.361328"/>
     <use xlink:href="#DejaVuSans-61" x="4303.837891"/>
     <use xlink:href="#DejaVuSans-79" x="4365.117188"/>
     <use xlink:href="#DejaVuSans-2e" x="4410.046875"/>
     <use xlink:href="#DejaVuSans-20" x="4441.833984"/>
     <use xlink:href="#DejaVuSans-41" x="4473.621094"/>
     <use xlink:href="#DejaVuSans-73" x="4542.029297"/>
     <use xlink:href="#DejaVuSans-20" x="4594.128906"/>
     <use xlink:href="#DejaVuSans-61" x="4625.916016"/>
     <use xlink:href="#DejaVuSans-74" x="4687.195312"/>
     <use xlink:href="#DejaVuSans-3a" x="4726.404297"/>
     <use xlink:href="#DejaVuSans-20" x="4760.095703"/>
     <use xlink:href="#DejaVuSans-32" x="4791.882812"/>
     <use xlink:href="#DejaVuSans-30" x="4855.505859"/>
     <use xlink:href="#DejaVuSans-32" x="4919.128906"/>
     <use xlink:href="#DejaVuSans-35" x="4982.751953"/>
     <use xlink:href="#DejaVuSans-2d" x="5046.375"/>
     <use xlink:href="#DejaVuSans-31" x="5082.458984"/>
     <use xlink:href="#DejaVuSans-32" x="5146.082031"/>
     <use xlink:href="#DejaVuSans-2d" x="5209.705078"/>
     <use xlink:href="#DejaVuSans-31" x="5245.789062"/>
     <use xlink:href="#DejaVuSans-38" x="5309.412109"/>
    </g>
   </g>
  </g>
 </g>
 <defs>
  <clipPath id="pbc7583a621">
   <rect x="144" y="69.12" width="892.8" height="443.52"/>
  </clipPath>
 </defs>
</svg>
