<?xml version="1.0" encoding="utf-8" standalone="no"?>
<!DOCTYPE svg PUBLIC "-//W3C//DTD SVG 1.1//EN"
  "http://www.w3.org/Graphics/SVG/1.1/DTD/svg11.dtd">
<svg xmlns:xlink="http://www.w3.org/1999/xlink" width="1152pt" height="576pt" viewBox="0 0 1152 576" xmlns="http://www.w3.org/2000/svg" version="1.1">
 <metadata>
  <rdf:RDF xmlns:dc="http://purl.org/dc/elements/1.1/" xmlns:cc="http://creativecommons.org/ns#" xmlns:rdf="http://www.w3.org/1999/02/22-rdf-syntax-ns#">
   <cc:Work>
    <dc:type rdf:resource="http://purl.org/dc/dcmitype/StillImage"/>
    <dc:date>1980-01-01T00:00:00+00:00</dc:date>
    <dc:format>image/svg+xml</dc:format>
    <dc:creator>
     <cc:Agent>
      <dc:title>Matplotlib v3.9.1, https://matplotlib.org/</dc:title>
     </cc:Agent>
    </dc:creator>
   </cc:Work>
  </rdf:RDF>
 </metadata>
 <defs>
  <style type="text/css">*{stroke-linejoin: round; stroke-linecap: butt}</style>
 </defs>
 <g id="figure_1">
  <g id="patch_1">
   <path d="M 0 576 
L 1152 576 
L 1152 0 
L 0 0 
z
" style="fill: #ffffff"/>
  </g>
  <g id="axes_1">
   <g id="patch_2">
    <path d="M 144 512.64 
L 1036.8 512.64 
L 1036.8 69.12 
L 144 69.12 
z
" style="fill: #ffffff"/>
   </g>
   <g id="matplotlib.axis_1">
    <g id="xtick_1">
     <g id="line2d_1">
      <defs>
       <path id="m930112cb23" d="M 0 0 
L 0 3.5 
" style="stroke: #000000; stroke-width: 0.8"/>
      </defs>
      <g>
       <use xlink:href="#m930112cb23" x="177.284571" y="512.64" style="stroke: #000000; stroke-width: 0.8"/>
      </g>
     </g>
     <g id="text_1">
      <!-- 2014 -->
      <g transform="translate(164.559571 527.238438) scale(0.1 -0.1)">
       <defs>
        <path id="DejaVuSans-32" d="M 1228 531 
L 3431 531 
L 3431 0 
L 469 0 
L 469 531 
Q 828 903 1448 1529 
Q 2069 2156 2228 2338 
Q 2531 2678 2651 2914 
Q 2772 3150 2772 3378 
Q 2772 3750 2511 3984 
Q 2250 4219 1831 4219 
Q 1534 4219 1204 4116 
Q 875 4013 500 3803 
L 500 4441 
Q 881 4594 1212 4672 
Q 1544 4750 1819 4750 
Q 2544 4750 2975 4387 
Q 3406 4025 3406 3419 
Q 3406 3131 3298 2873 
Q 3191 2616 2906 2266 
Q 2828 2175 2409 1742 
Q 1991 1309 1228 531 
z
" transform="scale(0.015625)"/>
        <path id="DejaVuSans-30" d="M 2034 4250 
Q 1547 4250 1301 3770 
Q 1056 3291 1056 2328 
Q 1056 1369 1301 889 
Q 1547 409 2034 409 
Q 2525 409 2770 889 
Q 3016 1369 3016 2328 
Q 3016 3291 2770 3770 
Q 2525 4250 2034 4250 
z
M 2034 4750 
Q 2819 4750 3233 4129 
Q 3647 3509 3647 2328 
Q 3647 1150 3233 529 
Q 2819 -91 2034 -91 
Q 1250 -91 836 529 
Q 422 1150 422 2328 
Q 422 3509 836 4129 
Q 1250 4750 2034 4750 
z
" transform="scale(0.015625)"/>
        <path id="DejaVuSans-31" d="M 794 531 
L 1825 531 
L 1825 4091 
L 703 3866 
L 703 4441 
L 1819 4666 
L 2450 4666 
L 2450 531 
L 3481 531 
L 3481 0 
L 794 0 
L 794 531 
z
" transform="scale(0.015625)"/>
        <path id="DejaVuSans-34" d="M 2419 4116 
L 825 1625 
L 2419 1625 
L 2419 4116 
z
M 2253 4666 
L 3047 4666 
L 3047 1625 
L 3713 1625 
L 3713 1100 
L 3047 1100 
L 3047 0 
L 2419 0 
L 2419 1100 
L 313 1100 
L 313 1709 
L 2253 4666 
z
" transform="scale(0.015625)"/>
       </defs>
       <use xlink:href="#DejaVuSans-32"/>
       <use xlink:href="#DejaVuSans-30" x="63.623047"/>
       <use xlink:href="#DejaVuSans-31" x="127.246094"/>
       <use xlink:href="#DejaVuSans-34" x="190.869141"/>
      </g>
     </g>
    </g>
    <g id="xtick_2">
     <g id="line2d_2">
      <g>
       <use xlink:href="#m930112cb23" x="310.459339" y="512.64" style="stroke: #000000; stroke-width: 0.8"/>
      </g>
     </g>
     <g id="text_2">
      <!-- 2016 -->
      <g transform="translate(297.734339 527.238438) scale(0.1 -0.1)">
       <defs>
        <path id="DejaVuSans-36" d="M 2113 2584 
Q 1688 2584 1439 2293 
Q 1191 2003 1191 1497 
Q 1191 994 1439 701 
Q 1688 409 2113 409 
Q 2538 409 2786 701 
Q 3034 994 3034 1497 
Q 3034 2003 2786 2293 
Q 2538 2584 2113 2584 
z
M 3366 4563 
L 3366 3988 
Q 3128 4100 2886 4159 
Q 2644 4219 2406 4219 
Q 1781 4219 1451 3797 
Q 1122 3375 1075 2522 
Q 1259 2794 1537 2939 
Q 1816 3084 2150 3084 
Q 2853 3084 3261 2657 
Q 3669 2231 3669 1497 
Q 3669 778 3244 343 
Q 2819 -91 2113 -91 
Q 1303 -91 875 529 
Q 447 1150 447 2328 
Q 447 3434 972 4092 
Q 1497 4750 2381 4750 
Q 2619 4750 2861 4703 
Q 3103 4656 3366 4563 
z
" transform="scale(0.015625)"/>
       </defs>
       <use xlink:href="#DejaVuSans-32"/>
       <use xlink:href="#DejaVuSans-30" x="63.623047"/>
       <use xlink:href="#DejaVuSans-31" x="127.246094"/>
       <use xlink:href="#DejaVuSans-36" x="190.869141"/>
      </g>
     </g>
    </g>
    <g id="xtick_3">
     <g id="line2d_3">
      <g>
       <use xlink:href="#m930112cb23" x="443.816539" y="512.64" style="stroke: #000000; stroke-width: 0.8"/>
      </g>
     </g>
     <g id="text_3">
      <!-- 2018 -->
      <g transform="translate(431.091539 527.238438) scale(0.1 -0.1)">
       <defs>
        <path id="DejaVuSans-38" d="M 2034 2216 
Q 1584 2216 1326 1975 
Q 1069 1734 1069 1313 
Q 1069 891 1326 650 
Q 1584 409 2034 409 
Q 2484 409 2743 651 
Q 3003 894 3003 1313 
Q 3003 1734 2745 1975 
Q 2488 2216 2034 2216 
z
M 1403 2484 
Q 997 2584 770 2862 
Q 544 3141 544 3541 
Q 544 4100 942 4425 
Q 1341 4750 2034 4750 
Q 2731 4750 3128 4425 
Q 3525 4100 3525 3541 
Q 3525 3141 3298 2862 
Q 3072 2584 2669 2484 
Q 3125 2378 3379 2068 
Q 3634 1759 3634 1313 
Q 3634 634 3220 271 
Q 2806 -91 2034 -91 
Q 1263 -91 848 271 
Q 434 634 434 1313 
Q 434 1759 690 2068 
Q 947 2378 1403 2484 
z
M 1172 3481 
Q 1172 3119 1398 2916 
Q 1625 2713 2034 2713 
Q 2441 2713 2670 2916 
Q 2900 3119 2900 3481 
Q 2900 3844 2670 4047 
Q 2441 4250 2034 4250 
Q 1625 4250 1398 4047 
Q 1172 3844 1172 3481 
z
" transform="scale(0.015625)"/>
       </defs>
       <use xlink:href="#DejaVuSans-32"/>
       <use xlink:href="#DejaVuSans-30" x="63.623047"/>
       <use xlink:href="#DejaVuSans-31" x="127.246094"/>
       <use xlink:href="#DejaVuSans-38" x="190.869141"/>
      </g>
     </g>
    </g>
    <g id="xtick_4">
     <g id="line2d_4">
      <g>
       <use xlink:href="#m930112cb23" x="576.991308" y="512.64" style="stroke: #000000; stroke-width: 0.8"/>
      </g>
     </g>
     <g id="text_4">
      <!-- 2020 -->
      <g transform="translate(564.266308 527.238438) scale(0.1 -0.1)">
       <use xlink:href="#DejaVuSans-32"/>
       <use xlink:href="#DejaVuSans-30" x="63.623047"/>
       <use xlink:href="#DejaVuSans-32" x="127.246094"/>
       <use xlink:href="#DejaVuSans-30" x="190.869141"/>
      </g>
     </g>
    </g>
    <g id="xtick_5">
     <g id="line2d_5">
      <g>
       <use xlink:href="#m930112cb23" x="710.348507" y="512.64" style="stroke: #000000; stroke-width: 0.8"/>
      </g>
     </g>
     <g id="text_5">
      <!-- 2022 -->
      <g transform="translate(697.623507 527.238438) scale(0.1 -0.1)">
       <use xlink:href="#DejaVuSans-32"/>
       <use xlink:href="#DejaVuSans-30" x="63.623047"/>
       <use xlink:href="#DejaVuSans-32" x="127.246094"/>
       <use xlink:href="#DejaVuSans-32" x="190.869141"/>
      </g>
     </g>
    </g>
    <g id="xtick_6">
     <g id="line2d_6">
      <g>
       <use xlink:href="#m930112cb23" x="843.523276" y="512.64" style="stroke: #000000; stroke-width: 0.8"/>
      </g>
     </g>
     <g id="text_6">
      <!-- 2024 -->
      <g transform="translate(830.798276 527.238438) scale(0.1 -0.1)">
       <use xlink:href="#DejaVuSans-32"/>
       <use xlink:href="#DejaVuSans-30" x="63.623047"/>
       <use xlink:href="#DejaVuSans-32" x="127.246094"/>
       <use xlink:href="#DejaVuSans-34" x="190.869141"/>
      </g>
     </g>
    </g>
    <g id="xtick_7">
     <g id="line2d_7">
      <g>
       <use xlink:href="#m930112cb23" x="976.880476" y="512.64" style="stroke: #000000; stroke-width: 0.8"/>
      </g>
     </g>
     <g id="text_7">
      <!-- 2026 -->
      <g transform="translate(964.155476 527.238438) scale(0.1 -0.1)">
       <use xlink:href="#DejaVuSans-32"/>
       <use xlink:href="#DejaVuSans-30" x="63.623047"/>
       <use xlink:href="#DejaVuSans-32" x="127.246094"/>
       <use xlink:href="#DejaVuSans-36" x="190.869141"/>
      </g>
     </g>
    </g>
   </g>
   <g id="matplotlib.axis_2">
    <g id="ytick_1">
     <g id="line2d_8">
      <defs>
       <path id="ma08a9d709a" d="M 0 0 
L -3.5 0 
" style="stroke: #000000; stroke-width: 0.8"/>
      </defs>
      <g>
       <use xlink:href="#ma08a9d709a" x="144" y="492.505889" style="stroke: #000000; stroke-width: 0.8"/>
      </g>
     </g>
     <g id="text_8">
      <!-- 0 -->
      <g transform="translate(130.6375 496.305108) scale(0.1 -0.1)">
       <use xlink:href="#DejaVuSans-30"/>
      </g>
     </g>
    </g>
    <g id="ytick_2">
     <g id="line2d_9">
      <g>
       <use xlink:href="#ma08a9d709a" x="144" y="440.727284" style="stroke: #000000; stroke-width: 0.8"/>
      </g>
     </g>
     <g id="text_9">
      <!-- 2000 -->
      <g transform="translate(111.55 444.526503) scale(0.1 -0.1)">
       <use xlink:href="#DejaVuSans-32"/>
       <use xlink:href="#DejaVuSans-30" x="63.623047"/>
       <use xlink:href="#DejaVuSans-30" x="127.246094"/>
       <use xlink:href="#DejaVuSans-30" x="190.869141"/>
      </g>
     </g>
    </g>
    <g id="ytick_3">
     <g id="line2d_10">
      <g>
       <use xlink:href="#ma08a9d709a" x="144" y="388.948679" style="stroke: #000000; stroke-width: 0.8"/>
      </g>
     </g>
     <g id="text_10">
      <!-- 4000 -->
      <g transform="translate(111.55 392.747897) scale(0.1 -0.1)">
       <use xlink:href="#DejaVuSans-34"/>
       <use xlink:href="#DejaVuSans-30" x="63.623047"/>
       <use xlink:href="#DejaVuSans-30" x="127.246094"/>
       <use xlink:href="#DejaVuSans-30" x="190.869141"/>
      </g>
     </g>
    </g>
    <g id="ytick_4">
     <g id="line2d_11">
      <g>
       <use xlink:href="#ma08a9d709a" x="144" y="337.170073" style="stroke: #000000; stroke-width: 0.8"/>
      </g>
     </g>
     <g id="text_11">
      <!-- 6000 -->
      <g transform="translate(111.55 340.969292) scale(0.1 -0.1)">
       <use xlink:href="#DejaVuSans-36"/>
       <use xlink:href="#DejaVuSans-30" x="63.623047"/>
       <use xlink:href="#DejaVuSans-30" x="127.246094"/>
       <use xlink:href="#DejaVuSans-30" x="190.869141"/>
      </g>
     </g>
    </g>
    <g id="ytick_5">
     <g id="line2d_12">
      <g>
       <use xlink:href="#ma08a9d709a" x="144" y="285.391468" style="stroke: #000000; stroke-width: 0.8"/>
      </g>
     </g>
     <g id="text_12">
      <!-- 8000 -->
      <g transform="translate(111.55 289.190687) scale(0.1 -0.1)">
       <use xlink:href="#DejaVuSans-38"/>
       <use xlink:href="#DejaVuSans-30" x="63.623047"/>
       <use xlink:href="#DejaVuSans-30" x="127.246094"/>
       <use xlink:href="#DejaVuSans-30" x="190.869141"/>
      </g>
     </g>
    </g>
    <g id="ytick_6">
     <g id="line2d_13">
      <g>
       <use xlink:href="#ma08a9d709a" x="144" y="233.612862" style="stroke: #000000; stroke-width: 0.8"/>
      </g>
     </g>
     <g id="text_13">
      <!-- 10000 -->
      <g transform="translate(105.1875 237.412081) scale(0.1 -0.1)">
       <use xlink:href="#DejaVuSans-31"/>
       <use xlink:href="#DejaVuSans-30" x="63.623047"/>
       <use xlink:href="#DejaVuSans-30" x="127.246094"/>
       <use xlink:href="#DejaVuSans-30" x="190.869141"/>
       <use xlink:href="#DejaVuSans-30" x="254.492188"/>
      </g>
     </g>
    </g>
    <g id="ytick_7">
     <g id="line2d_14">
      <g>
       <use xlink:href="#ma08a9d709a" x="144" y="181.834257" style="stroke: #000000; stroke-width: 0.8"/>
      </g>
     </g>
     <g id="text_14">
      <!-- 12000 -->
      <g transform="translate(105.1875 185.633476) scale(0.1 -0.1)">
       <use xlink:href="#DejaVuSans-31"/>
       <use xlink:href="#DejaVuSans-32" x="63.623047"/>
       <use xlink:href="#DejaVuSans-30" x="127.246094"/>
       <use xlink:href="#DejaVuSans-30" x="190.869141"/>
       <use xlink:href="#DejaVuSans-30" x="254.492188"/>
      </g>
     </g>
    </g>
    <g id="ytick_8">
     <g id="line2d_15">
      <g>
       <use xlink:href="#ma08a9d709a" x="144" y="130.055652" style="stroke: #000000; stroke-width: 0.8"/>
      </g>
     </g>
     <g id="text_15">
      <!-- 14000 -->
      <g transform="translate(105.1875 133.85487) scale(0.1 -0.1)">
       <use xlink:href="#DejaVuSans-31"/>
       <use xlink:href="#DejaVuSans-34" x="63.623047"/>
       <use xlink:href="#DejaVuSans-30" x="127.246094"/>
       <use xlink:href="#DejaVuSans-30" x="190.869141"/>
       <use xlink:href="#DejaVuSans-30" x="254.492188"/>
      </g>
     </g>
    </g>
    <g id="ytick_9">
     <g id="line2d_16">
      <g>
       <use xlink:href="#ma08a9d709a" x="144" y="78.277046" style="stroke: #000000; stroke-width: 0.8"/>
      </g>
     </g>
     <g id="text_16">
      <!-- 16000 -->
      <g transform="translate(105.1875 82.076265) scale(0.1 -0.1)">
       <use xlink:href="#DejaVuSans-31"/>
       <use xlink:href="#DejaVuSans-36" x="63.623047"/>
       <use xlink:href="#DejaVuSans-30" x="127.246094"/>
       <use xlink:href="#DejaVuSans-30" x="190.869141"/>
       <use xlink:href="#DejaVuSans-30" x="254.492188"/>
      </g>
     </g>
    </g>
   </g>
   <g id="line2d_17">
    <path d="M 184.581818 492.48 
L 186.223699 492.428221 
L 284.55411 492.298775 
L 449.654337 492.143439 
L 490.701355 491.988103 
L 583.011537 491.496206 
L 583.376399 491.289092 
L 587.207454 491.159646 
L 620.957224 491.030199 
L 658.173187 490.797195 
L 689.004058 489.994627 
L 689.186489 489.942848 
L 695.38915 489.761623 
L 697.213462 489.683955 
L 702.503966 489.606287 
L 708.159333 488.518937 
L 708.706627 488.493047 
L 709.436351 488.130597 
L 709.618783 487.535143 
L 709.983645 487.379807 
L 710.166076 487.353918 
L 710.348507 486.52546 
L 711.443094 486.16301 
L 711.807957 485.748781 
L 712.172819 485.619335 
L 712.35525 485.308663 
L 712.537682 484.635541 
L 712.902544 484.065977 
L 713.084975 483.315187 
L 713.267406 481.943054 
L 713.8147 481.036928 
L 714.179562 476.428632 
L 714.361994 475.936736 
L 714.726856 473.011244 
L 714.909287 472.519348 
L 715.091718 471.224882 
L 715.274149 471.147215 
L 715.821443 469.542078 
L 716.003874 465.943465 
L 716.186305 465.632793 
L 716.551168 464.62311 
L 716.733599 464.545442 
L 716.91603 464.001767 
L 717.098461 461.516394 
L 717.280893 460.92094 
L 717.463324 460.895051 
L 717.645755 459.0828 
L 717.828186 458.849796 
L 718.193048 458.720349 
L 718.922773 457.063434 
L 719.287636 456.545648 
L 719.834929 455.147626 
L 720.199792 451.290119 
L 720.564654 449.477868 
L 721.111948 449.4002 
L 721.47681 449.218975 
L 722.206535 448.235182 
L 722.571397 448.183403 
L 722.936259 446.138148 
L 723.301122 445.982812 
L 723.483553 445.775698 
L 723.665984 444.843683 
L 724.395709 444.015225 
L 724.943003 443.85989 
L 725.307865 443.626886 
L 725.672727 442.668982 
L 725.855158 442.591314 
L 726.220021 442.202974 
L 726.949746 441.918192 
L 727.132177 441.037956 
L 727.497039 440.85673 
L 727.67947 439.173926 
L 728.044333 439.122147 
L 728.409195 438.63025 
L 728.591626 438.138354 
L 729.13892 438.034796 
L 729.321351 437.879461 
L 729.686213 437.387564 
L 729.868645 437.361675 
L 730.233507 436.973335 
L 730.598369 436.869778 
L 730.780801 435.704759 
L 731.875388 435.575313 
L 732.24025 435.419977 
L 732.969975 435.342309 
L 733.152406 435.238752 
L 735.706443 434.643298 
L 736.071305 434.436183 
L 736.983461 434.332626 
L 737.713186 434.021955 
L 739.537498 433.711283 
L 740.267222 431.847253 
L 741.909103 431.666028 
L 743.00369 431.484803 
L 745.010433 431.096463 
L 745.922589 430.889349 
L 746.105021 430.86346 
L 746.469883 430.578677 
L 746.834745 430.501009 
L 747.017176 430.345674 
L 747.746901 430.138559 
L 748.659057 430.086781 
L 748.841488 429.905555 
L 749.206351 429.879666 
L 749.388782 429.491327 
L 749.571213 429.439548 
L 749.753644 428.895873 
L 752.490112 428.507533 
L 752.672543 428.196861 
L 753.949562 427.937968 
L 754.496855 427.782633 
L 755.22658 427.653186 
L 755.956305 427.49785 
L 757.050892 427.290736 
L 757.963048 427.031843 
L 758.692773 426.721171 
L 758.875204 426.203385 
L 759.78736 425.65971 
L 759.969791 425.426706 
L 760.881947 424.857141 
L 761.246809 424.313466 
L 761.42924 424.287577 
L 761.794103 423.743901 
L 762.523828 423.07078 
L 763.071121 422.993112 
L 763.435984 422.760108 
L 763.618415 422.68244 
L 763.800846 422.423547 
L 764.713002 422.242322 
L 764.895433 422.009318 
L 766.719745 421.724536 
L 766.902176 421.595089 
L 767.996763 421.439753 
L 768.908919 421.154971 
L 769.638644 421.025525 
L 770.003506 420.585406 
L 770.368369 420.404181 
L 771.280525 419.912285 
L 771.462956 419.316831 
L 772.375112 419.083827 
L 774.564286 418.125923 
L 774.746717 417.86703 
L 775.294011 417.711694 
L 776.206167 417.375133 
L 776.571029 414.734424 
L 776.75346 413.931856 
L 776.935892 412.507944 
L 777.118323 412.326719 
L 777.848048 410.41091 
L 778.21291 409.893124 
L 778.577772 409.68601 
L 778.760204 409.530674 
L 778.942635 408.779884 
L 779.125066 408.546881 
L 779.489928 408.469213 
L 780.037222 407.84787 
L 780.219653 407.381862 
L 780.766947 406.838187 
L 780.949378 406.139176 
L 781.861534 404.922378 
L 782.77369 404.559928 
L 782.956121 403.886806 
L 783.503414 403.653802 
L 784.233139 402.980681 
L 784.41557 402.488784 
L 784.780433 402.333448 
L 785.145295 401.970998 
L 785.510158 401.945109 
L 785.692589 401.686215 
L 786.057451 401.53088 
L 786.604745 401.116651 
L 786.969607 400.935426 
L 787.152038 400.495308 
L 788.429057 399.718628 
L 788.611488 399.640961 
L 788.97635 398.708946 
L 789.523644 398.527721 
L 790.070937 398.398274 
L 790.4358 397.932267 
L 790.800662 397.699263 
L 791.347956 396.974362 
L 792.624974 396.68958 
L 793.172268 395.990569 
L 793.901992 395.861122 
L 794.814148 395.317447 
L 794.996579 395.291558 
L 795.543873 394.929107 
L 795.908735 394.82555 
L 796.273598 394.799661 
L 796.456029 394.644325 
L 796.63846 394.230096 
L 797.368185 394.048871 
L 797.550616 393.815867 
L 797.733047 393.789978 
L 797.915478 393.323971 
L 798.645203 393.116856 
L 799.010066 393.039188 
L 799.374928 392.806185 
L 801.381671 392.133063 
L 801.564102 391.459941 
L 801.928965 391.226937 
L 802.476258 391.071601 
L 803.023552 390.812708 
L 803.753277 390.709151 
L 803.935708 390.036029 
L 804.483001 389.828915 
L 804.665432 389.673579 
L 805.395157 389.544133 
L 805.577588 389.440575 
L 805.942451 389.414686 
L 806.124882 389.207572 
L 806.854607 389.000457 
L 807.037038 388.715675 
L 807.4019 388.689786 
L 807.949194 388.430893 
L 808.314056 388.275557 
L 808.496487 387.990774 
L 809.773506 387.680103 
L 809.955937 387.524767 
L 810.503231 387.39532 
L 810.685662 387.162317 
L 810.868093 387.136427 
L 811.232955 386.929313 
L 811.597818 386.799866 
L 811.780249 386.696309 
L 812.874836 386.489195 
L 813.057267 386.204412 
L 813.604561 386.074966 
L 814.151854 385.997298 
L 814.516717 385.764294 
L 815.06401 385.634848 
L 815.428873 385.531291 
L 815.611304 385.350065 
L 815.976166 385.298287 
L 816.158597 384.858169 
L 816.341029 384.780501 
L 817.253185 383.744929 
L 817.435616 383.667261 
L 817.618047 383.460146 
L 817.982909 383.304811 
L 818.712634 382.838803 
L 819.077496 382.735246 
L 819.259928 382.450464 
L 819.807221 382.191571 
L 820.172084 382.010345 
L 820.901808 381.751452 
L 821.631533 381.311334 
L 821.996396 381.052441 
L 822.72612 380.612323 
L 824.18557 380.223984 
L 824.915295 379.732087 
L 825.462588 379.499083 
L 827.104469 378.981297 
L 827.469331 378.774183 
L 828.016625 378.644736 
L 828.563918 378.385843 
L 829.111212 378.256397 
L 829.658505 378.049282 
L 830.753093 377.816278 
L 831.300386 377.635053 
L 831.482817 377.37616 
L 833.854423 376.65126 
L 834.219285 376.495924 
L 834.584148 376.444145 
L 834.94901 376.107584 
L 835.131441 375.046123 
L 835.496304 374.78723 
L 835.861166 374.657783 
L 836.590891 373.984662 
L 836.773322 373.881104 
L 837.138184 373.207983 
L 837.503047 373.026757 
L 837.867909 372.871422 
L 838.232771 372.793754 
L 838.597634 372.586639 
L 838.780065 372.483082 
L 839.692221 372.301857 
L 840.057083 371.991185 
L 840.604377 371.628735 
L 840.969239 371.525178 
L 841.334102 371.214506 
L 842.428689 370.567274 
L 842.793551 370.541384 
L 842.975982 370.308381 
L 843.705707 370.153045 
L 843.888138 369.635259 
L 844.253001 369.376366 
L 845.165157 369.143362 
L 845.347588 369.065694 
L 845.530019 368.703244 
L 845.894881 368.599687 
L 846.077313 368.314904 
L 846.624606 367.978343 
L 846.989469 367.823008 
L 847.354331 367.74534 
L 847.719193 367.564115 
L 847.901624 367.538225 
L 848.266487 367.357 
L 848.996212 367.020439 
L 849.361074 366.424985 
L 850.820524 365.829531 
L 851.002955 365.363524 
L 851.550248 365.208188 
L 852.097542 364.664513 
L 852.279973 364.612734 
L 852.644835 364.37973 
L 852.827267 364.353841 
L 853.192129 363.965501 
L 853.556991 363.784276 
L 854.286716 363.525383 
L 854.469147 363.26649 
L 854.83401 363.214712 
L 855.198872 363.007597 
L 855.381303 362.489811 
L 855.928597 362.334475 
L 856.111028 362.256807 
L 856.47589 361.946136 
L 856.658322 361.842579 
L 857.205615 361.273014 
L 858.665065 360.522224 
L 859.394789 360.31511 
L 859.759652 359.92677 
L 859.942083 359.874992 
L 860.854239 359.227759 
L 861.401533 359.020645 
L 861.766395 358.865309 
L 861.948826 358.83942 
L 862.131257 358.321633 
L 862.678551 358.010962 
L 862.860982 357.519065 
L 863.225844 357.311951 
L 863.408276 357.104836 
L 863.590707 357.078947 
L 864.320432 356.561161 
L 865.050156 356.328157 
L 865.415019 356.095153 
L 866.509606 355.680925 
L 867.239331 354.930135 
L 867.604193 354.852467 
L 867.969055 354.593574 
L 868.69878 354.024009 
L 869.246074 353.791006 
L 869.975798 353.402666 
L 870.340661 353.273219 
L 871.80011 352.703655 
L 872.347404 352.574208 
L 873.624422 351.797529 
L 873.989285 351.668083 
L 874.354147 351.564525 
L 874.719009 351.253854 
L 876.178459 350.736068 
L 876.543321 350.632511 
L 876.725752 349.700496 
L 877.273046 349.493381 
L 877.455477 349.260378 
L 877.637908 349.234488 
L 878.367633 348.276584 
L 878.550064 348.198916 
L 878.732496 347.888245 
L 879.097358 347.784687 
L 879.827083 346.95623 
L 880.191945 345.791211 
L 880.374376 345.428761 
L 880.739239 343.61651 
L 880.92167 342.83983 
L 881.833826 341.959594 
L 882.563551 339.681336 
L 882.745982 339.551889 
L 882.928413 339.215328 
L 883.110844 337.998531 
L 883.293275 337.636081 
L 883.475706 337.610191 
L 883.658138 337.040627 
L 884.205431 336.755844 
L 884.570294 336.056833 
L 886.577037 335.202486 
L 887.12433 334.658811 
L 887.489193 334.166914 
L 887.854055 334.063357 
L 888.218917 333.93391 
L 891.320248 333.001895 
L 891.867541 332.535888 
L 892.414835 332.276995 
L 892.779697 332.09577 
L 892.962128 331.862766 
L 893.691853 331.629762 
L 893.874284 331.552095 
L 894.056716 331.008419 
L 894.604009 330.697748 
L 895.151303 330.516522 
L 895.516165 330.309408 
L 896.063459 330.076404 
L 896.610752 329.946958 
L 896.975615 329.636286 
L 897.158046 329.610397 
L 897.705339 329.196168 
L 897.88777 328.833718 
L 898.252633 328.704271 
L 898.799926 327.849924 
L 898.982358 327.358027 
L 899.34722 327.150913 
L 899.894514 326.840241 
L 900.076945 326.607238 
L 900.441807 325.597555 
L 900.624238 325.39044 
L 900.80667 324.846765 
L 900.989101 324.794987 
L 901.171532 324.354868 
L 901.536394 324.199533 
L 902.630981 323.396964 
L 902.813413 323.034514 
L 903.725569 322.80151 
L 904.637725 322.516728 
L 904.820156 321.973053 
L 905.185018 321.817717 
L 906.097174 321.584713 
L 906.279605 321.507045 
L 907.00933 321.066927 
L 908.286348 320.21258 
L 908.46878 320.005466 
L 908.651211 319.539458 
L 909.745798 319.151119 
L 910.11066 318.762779 
L 910.475523 318.685111 
L 910.657954 318.374439 
L 911.022816 318.244993 
L 911.205247 318.011989 
L 913.21199 317.079974 
L 914.306578 316.044402 
L 914.489009 315.526616 
L 915.036302 314.827605 
L 915.766027 311.798557 
L 916.130889 311.177213 
L 916.313321 310.866542 
L 916.495752 309.494409 
L 916.860614 305.869906 
L 917.043045 304.368327 
L 917.225477 304.031766 
L 917.590339 302.245404 
L 917.955201 299.734142 
L 918.320064 296.264975 
L 918.684926 295.824857 
L 919.049789 291.346007 
L 919.23222 290.1551 
L 919.597082 285.236132 
L 919.961944 284.278228 
L 920.144376 281.689298 
L 920.326807 281.22329 
L 920.691669 278.453135 
L 921.056532 270.893458 
L 921.238963 270.505119 
L 921.421394 269.780218 
L 921.603825 267.450181 
L 921.786256 267.268956 
L 922.151119 263.385561 
L 922.515981 263.204335 
L 922.880843 262.479435 
L 923.063275 262.324099 
L 923.245706 261.961649 
L 923.428137 261.236748 
L 923.792999 261.081413 
L 924.340293 259.70928 
L 924.705155 257.741693 
L 924.887587 257.379242 
L 925.070018 257.327464 
L 925.617311 256.654342 
L 925.799743 255.851773 
L 928.53621 253.185175 
L 928.901073 253.107507 
L 929.448366 252.6415 
L 930.178091 252.25316 
L 930.907816 252.123714 
L 931.090247 251.968378 
L 931.455109 251.916599 
L 932.002403 251.580039 
L 933.461853 251.010474 
L 933.644284 250.648024 
L 934.55644 250.440909 
L 935.286164 249.949012 
L 936.015889 249.30178 
L 936.19832 249.146444 
L 936.928045 248.991108 
L 938.022632 248.317986 
L 938.569926 248.059093 
L 938.752357 247.593086 
L 940.029375 246.790518 
L 940.394238 246.583403 
L 941.853687 245.832613 
L 942.400981 245.780835 
L 942.765843 245.030045 
L 942.948274 244.952377 
L 943.313137 244.538148 
L 944.042862 243.942694 
L 944.225293 243.865026 
L 944.772586 243.243683 
L 944.955017 242.725897 
L 945.137449 242.62234 
L 945.502311 242.570561 
L 945.867173 242.311668 
L 946.596898 242.000997 
L 947.326623 241.690325 
L 947.691485 241.276096 
L 947.873917 241.250207 
L 948.056348 238.557719 
L 948.42121 238.14349 
L 948.786072 237.858708 
L 948.968504 237.548036 
L 949.150935 237.522147 
L 949.515797 237.185586 
L 949.698228 236.693689 
L 950.792816 235.709896 
L 950.975247 235.451003 
L 951.340109 234.001202 
L 951.52254 233.586973 
L 951.704971 232.810294 
L 951.887403 232.57729 
L 952.069834 231.619386 
L 952.434696 230.816818 
L 952.617127 230.195475 
L 953.346852 229.470574 
L 953.894146 228.87512 
L 954.259008 228.693895 
L 954.623871 228.564448 
L 955.536026 227.684212 
L 955.718458 227.321762 
L 955.900889 227.269983 
L 956.265751 226.959312 
L 956.448182 226.803976 
L 956.995476 225.949629 
L 957.177907 225.846072 
L 957.360338 224.991725 
L 958.637357 224.215046 
L 959.731944 222.972359 
L 959.914375 222.791134 
L 960.279237 221.962676 
L 960.461669 221.80734 
L 961.008962 220.745879 
L 961.191393 220.668211 
L 961.373825 220.202204 
L 961.556256 220.046868 
L 962.103549 218.648846 
L 962.650843 217.923945 
L 963.198136 217.639163 
L 963.562999 217.043709 
L 964.292724 216.396476 
L 964.657586 215.386793 
L 965.387311 213.445096 
L 965.569742 212.098852 
L 965.752173 211.891738 
L 965.934604 210.752608 
L 966.299467 210.286601 
L 966.481898 209.872372 
L 966.84676 207.904785 
L 967.211623 207.205774 
L 967.394054 207.050438 
L 967.576485 200.604002 
L 967.758916 198.144518 
L 967.941347 183.620619 
L 968.488641 182.636825 
L 968.671072 182.48149 
L 969.035935 181.264692 
L 969.400797 180.462124 
L 970.495384 174.30047 
L 971.042678 173.057783 
L 971.225109 171.633872 
L 971.589971 171.219643 
L 971.954834 170.028735 
L 972.137265 168.553045 
L 972.319696 168.190595 
L 972.684558 167.180912 
L 973.231852 166.430122 
L 973.414283 166.352454 
L 974.326439 163.245738 
L 974.873733 161.899494 
L 975.238595 160.139021 
L 975.785889 159.906018 
L 976.150751 159.543567 
L 976.333182 158.896335 
L 977.062907 157.886652 
L 977.427769 156.876969 
L 977.6102 156.747523 
L 977.975063 155.944954 
L 978.339925 154.495153 
L 978.522356 154.288039 
L 978.704788 154.26215 
L 979.06965 152.657013 
L 979.252081 152.320452 
L 979.799375 150.301086 
L 979.981806 150.042193 
L 981.076393 145.692791 
L 981.441255 145.511565 
L 982.17098 141.783506 
L 982.353411 141.679949 
L 982.535843 141.395166 
L 985.089879 133.913158 
L 985.27231 132.670471 
L 985.454742 132.437468 
L 986.549329 129.02008 
L 987.096622 125.913363 
L 987.643916 124.489452 
L 988.920934 120.994396 
L 989.103365 119.389259 
L 989.285797 118.897362 
L 989.650659 117.033332 
L 990.015521 116.178985 
L 990.197953 115.920092 
L 990.745246 114.081952 
L 991.29254 111.674247 
L 991.474971 111.260018 
L 992.204696 106.936504 
L 992.387127 106.263383 
L 992.93442 105.745597 
L 993.299283 104.036903 
L 994.029008 101.52564 
L 994.211439 98.884931 
L 994.576301 98.211809 
L 994.758732 97.43513 
L 994.941163 95.829994 
L 995.123595 92.826834 
L 995.853319 90.678022 
L 996.218182 89.28 
L 996.218182 89.28 
" clip-path="url(#pfdd558bfcf)" style="fill: none; stroke: #1f77b4; stroke-width: 1.5; stroke-linecap: square"/>
   </g>
   <g id="patch_3">
    <path d="M 144 512.64 
L 144 69.12 
" style="fill: none; stroke: #000000; stroke-width: 0.8; stroke-linejoin: miter; stroke-linecap: square"/>
   </g>
   <g id="patch_4">
    <path d="M 1036.8 512.64 
L 1036.8 69.12 
" style="fill: none; stroke: #000000; stroke-width: 0.8; stroke-linejoin: miter; stroke-linecap: square"/>
   </g>
   <g id="patch_5">
    <path d="M 144 512.64 
L 1036.8 512.64 
" style="fill: none; stroke: #000000; stroke-width: 0.8; stroke-linejoin: miter; stroke-linecap: square"/>
   </g>
   <g id="patch_6">
    <path d="M 144 69.12 
L 1036.8 69.12 
" style="fill: none; stroke: #000000; stroke-width: 0.8; stroke-linejoin: miter; stroke-linecap: square"/>
   </g>
   <g id="text_17">
    <!-- Number of AEDs in the OpenStreetMap database in Poland from first edition, day by day. As at: 2026-04-17 -->
    <g transform="translate(144 63.12) scale(0.14 -0.14)">
     <defs>
      <path id="DejaVuSans-4e" d="M 628 4666 
L 1478 4666 
L 3547 763 
L 3547 4666 
L 4159 4666 
L 4159 0 
L 3309 0 
L 1241 3903 
L 1241 0 
L 628 0 
L 628 4666 
z
" transform="scale(0.015625)"/>
      <path id="DejaVuSans-75" d="M 544 1381 
L 544 3500 
L 1119 3500 
L 1119 1403 
Q 1119 906 1312 657 
Q 1506 409 1894 409 
Q 2359 409 2629 706 
Q 2900 1003 2900 1516 
L 2900 3500 
L 3475 3500 
L 3475 0 
L 2900 0 
L 2900 538 
Q 2691 219 2414 64 
Q 2138 -91 1772 -91 
Q 1169 -91 856 284 
Q 544 659 544 1381 
z
M 1991 3584 
L 1991 3584 
z
" transform="scale(0.015625)"/>
      <path id="DejaVuSans-6d" d="M 3328 2828 
Q 3544 3216 3844 3400 
Q 4144 3584 4550 3584 
Q 5097 3584 5394 3201 
Q 5691 2819 5691 2113 
L 5691 0 
L 5113 0 
L 5113 2094 
Q 5113 2597 4934 2840 
Q 4756 3084 4391 3084 
Q 3944 3084 3684 2787 
Q 3425 2491 3425 1978 
L 3425 0 
L 2847 0 
L 2847 2094 
Q 2847 2600 2669 2842 
Q 2491 3084 2119 3084 
Q 1678 3084 1418 2786 
Q 1159 2488 1159 1978 
L 1159 0 
L 581 0 
L 581 3500 
L 1159 3500 
L 1159 2956 
Q 1356 3278 1631 3431 
Q 1906 3584 2284 3584 
Q 2666 3584 2933 3390 
Q 3200 3197 3328 2828 
z
" transform="scale(0.015625)"/>
      <path id="DejaVuSans-62" d="M 3116 1747 
Q 3116 2381 2855 2742 
Q 2594 3103 2138 3103 
Q 1681 3103 1420 2742 
Q 1159 2381 1159 1747 
Q 1159 1113 1420 752 
Q 1681 391 2138 391 
Q 2594 391 2855 752 
Q 3116 1113 3116 1747 
z
M 1159 2969 
Q 1341 3281 1617 3432 
Q 1894 3584 2278 3584 
Q 2916 3584 3314 3078 
Q 3713 2572 3713 1747 
Q 3713 922 3314 415 
Q 2916 -91 2278 -91 
Q 1894 -91 1617 61 
Q 1341 213 1159 525 
L 1159 0 
L 581 0 
L 581 4863 
L 1159 4863 
L 1159 2969 
z
" transform="scale(0.015625)"/>
      <path id="DejaVuSans-65" d="M 3597 1894 
L 3597 1613 
L 953 1613 
Q 991 1019 1311 708 
Q 1631 397 2203 397 
Q 2534 397 2845 478 
Q 3156 559 3463 722 
L 3463 178 
Q 3153 47 2828 -22 
Q 2503 -91 2169 -91 
Q 1331 -91 842 396 
Q 353 884 353 1716 
Q 353 2575 817 3079 
Q 1281 3584 2069 3584 
Q 2775 3584 3186 3129 
Q 3597 2675 3597 1894 
z
M 3022 2063 
Q 3016 2534 2758 2815 
Q 2500 3097 2075 3097 
Q 1594 3097 1305 2825 
Q 1016 2553 972 2059 
L 3022 2063 
z
" transform="scale(0.015625)"/>
      <path id="DejaVuSans-72" d="M 2631 2963 
Q 2534 3019 2420 3045 
Q 2306 3072 2169 3072 
Q 1681 3072 1420 2755 
Q 1159 2438 1159 1844 
L 1159 0 
L 581 0 
L 581 3500 
L 1159 3500 
L 1159 2956 
Q 1341 3275 1631 3429 
Q 1922 3584 2338 3584 
Q 2397 3584 2469 3576 
Q 2541 3569 2628 3553 
L 2631 2963 
z
" transform="scale(0.015625)"/>
      <path id="DejaVuSans-20" transform="scale(0.015625)"/>
      <path id="DejaVuSans-6f" d="M 1959 3097 
Q 1497 3097 1228 2736 
Q 959 2375 959 1747 
Q 959 1119 1226 758 
Q 1494 397 1959 397 
Q 2419 397 2687 759 
Q 2956 1122 2956 1747 
Q 2956 2369 2687 2733 
Q 2419 3097 1959 3097 
z
M 1959 3584 
Q 2709 3584 3137 3096 
Q 3566 2609 3566 1747 
Q 3566 888 3137 398 
Q 2709 -91 1959 -91 
Q 1206 -91 779 398 
Q 353 888 353 1747 
Q 353 2609 779 3096 
Q 1206 3584 1959 3584 
z
" transform="scale(0.015625)"/>
      <path id="DejaVuSans-66" d="M 2375 4863 
L 2375 4384 
L 1825 4384 
Q 1516 4384 1395 4259 
Q 1275 4134 1275 3809 
L 1275 3500 
L 2222 3500 
L 2222 3053 
L 1275 3053 
L 1275 0 
L 697 0 
L 697 3053 
L 147 3053 
L 147 3500 
L 697 3500 
L 697 3744 
Q 697 4328 969 4595 
Q 1241 4863 1831 4863 
L 2375 4863 
z
" transform="scale(0.015625)"/>
      <path id="DejaVuSans-41" d="M 2188 4044 
L 1331 1722 
L 3047 1722 
L 2188 4044 
z
M 1831 4666 
L 2547 4666 
L 4325 0 
L 3669 0 
L 3244 1197 
L 1141 1197 
L 716 0 
L 50 0 
L 1831 4666 
z
" transform="scale(0.015625)"/>
      <path id="DejaVuSans-45" d="M 628 4666 
L 3578 4666 
L 3578 4134 
L 1259 4134 
L 1259 2753 
L 3481 2753 
L 3481 2222 
L 1259 2222 
L 1259 531 
L 3634 531 
L 3634 0 
L 628 0 
L 628 4666 
z
" transform="scale(0.015625)"/>
      <path id="DejaVuSans-44" d="M 1259 4147 
L 1259 519 
L 2022 519 
Q 2988 519 3436 956 
Q 3884 1394 3884 2338 
Q 3884 3275 3436 3711 
Q 2988 4147 2022 4147 
L 1259 4147 
z
M 628 4666 
L 1925 4666 
Q 3281 4666 3915 4102 
Q 4550 3538 4550 2338 
Q 4550 1131 3912 565 
Q 3275 0 1925 0 
L 628 0 
L 628 4666 
z
" transform="scale(0.015625)"/>
      <path id="DejaVuSans-73" d="M 2834 3397 
L 2834 2853 
Q 2591 2978 2328 3040 
Q 2066 3103 1784 3103 
Q 1356 3103 1142 2972 
Q 928 2841 928 2578 
Q 928 2378 1081 2264 
Q 1234 2150 1697 2047 
L 1894 2003 
Q 2506 1872 2764 1633 
Q 3022 1394 3022 966 
Q 3022 478 2636 193 
Q 2250 -91 1575 -91 
Q 1294 -91 989 -36 
Q 684 19 347 128 
L 347 722 
Q 666 556 975 473 
Q 1284 391 1588 391 
Q 1994 391 2212 530 
Q 2431 669 2431 922 
Q 2431 1156 2273 1281 
Q 2116 1406 1581 1522 
L 1381 1569 
Q 847 1681 609 1914 
Q 372 2147 372 2553 
Q 372 3047 722 3315 
Q 1072 3584 1716 3584 
Q 2034 3584 2315 3537 
Q 2597 3491 2834 3397 
z
" transform="scale(0.015625)"/>
      <path id="DejaVuSans-69" d="M 603 3500 
L 1178 3500 
L 1178 0 
L 603 0 
L 603 3500 
z
M 603 4863 
L 1178 4863 
L 1178 4134 
L 603 4134 
L 603 4863 
z
" transform="scale(0.015625)"/>
      <path id="DejaVuSans-6e" d="M 3513 2113 
L 3513 0 
L 2938 0 
L 2938 2094 
Q 2938 2591 2744 2837 
Q 2550 3084 2163 3084 
Q 1697 3084 1428 2787 
Q 1159 2491 1159 1978 
L 1159 0 
L 581 0 
L 581 3500 
L 1159 3500 
L 1159 2956 
Q 1366 3272 1645 3428 
Q 1925 3584 2291 3584 
Q 2894 3584 3203 3211 
Q 3513 2838 3513 2113 
z
" transform="scale(0.015625)"/>
      <path id="DejaVuSans-74" d="M 1172 4494 
L 1172 3500 
L 2356 3500 
L 2356 3053 
L 1172 3053 
L 1172 1153 
Q 1172 725 1289 603 
Q 1406 481 1766 481 
L 2356 481 
L 2356 0 
L 1766 0 
Q 1100 0 847 248 
Q 594 497 594 1153 
L 594 3053 
L 172 3053 
L 172 3500 
L 594 3500 
L 594 4494 
L 1172 4494 
z
" transform="scale(0.015625)"/>
      <path id="DejaVuSans-68" d="M 3513 2113 
L 3513 0 
L 2938 0 
L 2938 2094 
Q 2938 2591 2744 2837 
Q 2550 3084 2163 3084 
Q 1697 3084 1428 2787 
Q 1159 2491 1159 1978 
L 1159 0 
L 581 0 
L 581 4863 
L 1159 4863 
L 1159 2956 
Q 1366 3272 1645 3428 
Q 1925 3584 2291 3584 
Q 2894 3584 3203 3211 
Q 3513 2838 3513 2113 
z
" transform="scale(0.015625)"/>
      <path id="DejaVuSans-4f" d="M 2522 4238 
Q 1834 4238 1429 3725 
Q 1025 3213 1025 2328 
Q 1025 1447 1429 934 
Q 1834 422 2522 422 
Q 3209 422 3611 934 
Q 4013 1447 4013 2328 
Q 4013 3213 3611 3725 
Q 3209 4238 2522 4238 
z
M 2522 4750 
Q 3503 4750 4090 4092 
Q 4678 3434 4678 2328 
Q 4678 1225 4090 567 
Q 3503 -91 2522 -91 
Q 1538 -91 948 565 
Q 359 1222 359 2328 
Q 359 3434 948 4092 
Q 1538 4750 2522 4750 
z
" transform="scale(0.015625)"/>
      <path id="DejaVuSans-70" d="M 1159 525 
L 1159 -1331 
L 581 -1331 
L 581 3500 
L 1159 3500 
L 1159 2969 
Q 1341 3281 1617 3432 
Q 1894 3584 2278 3584 
Q 2916 3584 3314 3078 
Q 3713 2572 3713 1747 
Q 3713 922 3314 415 
Q 2916 -91 2278 -91 
Q 1894 -91 1617 61 
Q 1341 213 1159 525 
z
M 3116 1747 
Q 3116 2381 2855 2742 
Q 2594 3103 2138 3103 
Q 1681 3103 1420 2742 
Q 1159 2381 1159 1747 
Q 1159 1113 1420 752 
Q 1681 391 2138 391 
Q 2594 391 2855 752 
Q 3116 1113 3116 1747 
z
" transform="scale(0.015625)"/>
      <path id="DejaVuSans-53" d="M 3425 4513 
L 3425 3897 
Q 3066 4069 2747 4153 
Q 2428 4238 2131 4238 
Q 1616 4238 1336 4038 
Q 1056 3838 1056 3469 
Q 1056 3159 1242 3001 
Q 1428 2844 1947 2747 
L 2328 2669 
Q 3034 2534 3370 2195 
Q 3706 1856 3706 1288 
Q 3706 609 3251 259 
Q 2797 -91 1919 -91 
Q 1588 -91 1214 -16 
Q 841 59 441 206 
L 441 856 
Q 825 641 1194 531 
Q 1563 422 1919 422 
Q 2459 422 2753 634 
Q 3047 847 3047 1241 
Q 3047 1584 2836 1778 
Q 2625 1972 2144 2069 
L 1759 2144 
Q 1053 2284 737 2584 
Q 422 2884 422 3419 
Q 422 4038 858 4394 
Q 1294 4750 2059 4750 
Q 2388 4750 2728 4690 
Q 3069 4631 3425 4513 
z
" transform="scale(0.015625)"/>
      <path id="DejaVuSans-4d" d="M 628 4666 
L 1569 4666 
L 2759 1491 
L 3956 4666 
L 4897 4666 
L 4897 0 
L 4281 0 
L 4281 4097 
L 3078 897 
L 2444 897 
L 1241 4097 
L 1241 0 
L 628 0 
L 628 4666 
z
" transform="scale(0.015625)"/>
      <path id="DejaVuSans-61" d="M 2194 1759 
Q 1497 1759 1228 1600 
Q 959 1441 959 1056 
Q 959 750 1161 570 
Q 1363 391 1709 391 
Q 2188 391 2477 730 
Q 2766 1069 2766 1631 
L 2766 1759 
L 2194 1759 
z
M 3341 1997 
L 3341 0 
L 2766 0 
L 2766 531 
Q 2569 213 2275 61 
Q 1981 -91 1556 -91 
Q 1019 -91 701 211 
Q 384 513 384 1019 
Q 384 1609 779 1909 
Q 1175 2209 1959 2209 
L 2766 2209 
L 2766 2266 
Q 2766 2663 2505 2880 
Q 2244 3097 1772 3097 
Q 1472 3097 1187 3025 
Q 903 2953 641 2809 
L 641 3341 
Q 956 3463 1253 3523 
Q 1550 3584 1831 3584 
Q 2591 3584 2966 3190 
Q 3341 2797 3341 1997 
z
" transform="scale(0.015625)"/>
      <path id="DejaVuSans-64" d="M 2906 2969 
L 2906 4863 
L 3481 4863 
L 3481 0 
L 2906 0 
L 2906 525 
Q 2725 213 2448 61 
Q 2172 -91 1784 -91 
Q 1150 -91 751 415 
Q 353 922 353 1747 
Q 353 2572 751 3078 
Q 1150 3584 1784 3584 
Q 2172 3584 2448 3432 
Q 2725 3281 2906 2969 
z
M 947 1747 
Q 947 1113 1208 752 
Q 1469 391 1925 391 
Q 2381 391 2643 752 
Q 2906 1113 2906 1747 
Q 2906 2381 2643 2742 
Q 2381 3103 1925 3103 
Q 1469 3103 1208 2742 
Q 947 2381 947 1747 
z
" transform="scale(0.015625)"/>
      <path id="DejaVuSans-50" d="M 1259 4147 
L 1259 2394 
L 2053 2394 
Q 2494 2394 2734 2622 
Q 2975 2850 2975 3272 
Q 2975 3691 2734 3919 
Q 2494 4147 2053 4147 
L 1259 4147 
z
M 628 4666 
L 2053 4666 
Q 2838 4666 3239 4311 
Q 3641 3956 3641 3272 
Q 3641 2581 3239 2228 
Q 2838 1875 2053 1875 
L 1259 1875 
L 1259 0 
L 628 0 
L 628 4666 
z
" transform="scale(0.015625)"/>
      <path id="DejaVuSans-6c" d="M 603 4863 
L 1178 4863 
L 1178 0 
L 603 0 
L 603 4863 
z
" transform="scale(0.015625)"/>
      <path id="DejaVuSans-2c" d="M 750 794 
L 1409 794 
L 1409 256 
L 897 -744 
L 494 -744 
L 750 256 
L 750 794 
z
" transform="scale(0.015625)"/>
      <path id="DejaVuSans-79" d="M 2059 -325 
Q 1816 -950 1584 -1140 
Q 1353 -1331 966 -1331 
L 506 -1331 
L 506 -850 
L 844 -850 
Q 1081 -850 1212 -737 
Q 1344 -625 1503 -206 
L 1606 56 
L 191 3500 
L 800 3500 
L 1894 763 
L 2988 3500 
L 3597 3500 
L 2059 -325 
z
" transform="scale(0.015625)"/>
      <path id="DejaVuSans-2e" d="M 684 794 
L 1344 794 
L 1344 0 
L 684 0 
L 684 794 
z
" transform="scale(0.015625)"/>
      <path id="DejaVuSans-3a" d="M 750 794 
L 1409 794 
L 1409 0 
L 750 0 
L 750 794 
z
M 750 3309 
L 1409 3309 
L 1409 2516 
L 750 2516 
L 750 3309 
z
" transform="scale(0.015625)"/>
      <path id="DejaVuSans-2d" d="M 313 2009 
L 1997 2009 
L 1997 1497 
L 313 1497 
L 313 2009 
z
" transform="scale(0.015625)"/>
      <path id="DejaVuSans-37" d="M 525 4666 
L 3525 4666 
L 3525 4397 
L 1831 0 
L 1172 0 
L 2766 4134 
L 525 4134 
L 525 4666 
z
" transform="scale(0.015625)"/>
     </defs>
     <use xlink:href="#DejaVuSans-4e"/>
     <use xlink:href="#DejaVuSans-75" x="74.804688"/>
     <use xlink:href="#DejaVuSans-6d" x="138.183594"/>
     <use xlink:href="#DejaVuSans-62" x="235.595703"/>
     <use xlink:href="#DejaVuSans-65" x="299.072266"/>
     <use xlink:href="#DejaVuSans-72" x="360.595703"/>
     <use xlink:href="#DejaVuSans-20" x="401.708984"/>
     <use xlink:href="#DejaVuSans-6f" x="433.496094"/>
     <use xlink:href="#DejaVuSans-66" x="494.677734"/>
     <use xlink:href="#DejaVuSans-20" x="529.882812"/>
     <use xlink:href="#DejaVuSans-41" x="561.669922"/>
     <use xlink:href="#DejaVuSans-45" x="630.078125"/>
     <use xlink:href="#DejaVuSans-44" x="693.261719"/>
     <use xlink:href="#DejaVuSans-73" x="770.263672"/>
     <use xlink:href="#DejaVuSans-20" x="822.363281"/>
     <use xlink:href="#DejaVuSans-69" x="854.150391"/>
     <use xlink:href="#DejaVuSans-6e" x="881.933594"/>
     <use xlink:href="#DejaVuSans-20" x="945.3125"/>
     <use xlink:href="#DejaVuSans-74" x="977.099609"/>
     <use xlink:href="#DejaVuSans-68" x="1016.308594"/>
     <use xlink:href="#DejaVuSans-65" x="1079.6875"/>
     <use xlink:href="#DejaVuSans-20" x="1141.210938"/>
     <use xlink:href="#DejaVuSans-4f" x="1172.998047"/>
     <use xlink:href="#DejaVuSans-70" x="1251.708984"/>
     <use xlink:href="#DejaVuSans-65" x="1315.185547"/>
     <use xlink:href="#DejaVuSans-6e" x="1376.708984"/>
     <use xlink:href="#DejaVuSans-53" x="1440.087891"/>
     <use xlink:href="#DejaVuSans-74" x="1503.564453"/>
     <use xlink:href="#DejaVuSans-72" x="1542.773438"/>
     <use xlink:href="#DejaVuSans-65" x="1581.636719"/>
     <use xlink:href="#DejaVuSans-65" x="1643.160156"/>
     <use xlink:href="#DejaVuSans-74" x="1704.683594"/>
     <use xlink:href="#DejaVuSans-4d" x="1743.892578"/>
     <use xlink:href="#DejaVuSans-61" x="1830.171875"/>
     <use xlink:href="#DejaVuSans-70" x="1891.451172"/>
     <use xlink:href="#DejaVuSans-20" x="1954.927734"/>
     <use xlink:href="#DejaVuSans-64" x="1986.714844"/>
     <use xlink:href="#DejaVuSans-61" x="2050.191406"/>
     <use xlink:href="#DejaVuSans-74" x="2111.470703"/>
     <use xlink:href="#DejaVuSans-61" x="2150.679688"/>
     <use xlink:href="#DejaVuSans-62" x="2211.958984"/>
     <use xlink:href="#DejaVuSans-61" x="2275.435547"/>
     <use xlink:href="#DejaVuSans-73" x="2336.714844"/>
     <use xlink:href="#DejaVuSans-65" x="2388.814453"/>
     <use xlink:href="#DejaVuSans-20" x="2450.337891"/>
     <use xlink:href="#DejaVuSans-69" x="2482.125"/>
     <use xlink:href="#DejaVuSans-6e" x="2509.908203"/>
     <use xlink:href="#DejaVuSans-20" x="2573.287109"/>
     <use xlink:href="#DejaVuSans-50" x="2605.074219"/>
     <use xlink:href="#DejaVuSans-6f" x="2661.751953"/>
     <use xlink:href="#DejaVuSans-6c" x="2722.933594"/>
     <use xlink:href="#DejaVuSans-61" x="2750.716797"/>
     <use xlink:href="#DejaVuSans-6e" x="2811.996094"/>
     <use xlink:href="#DejaVuSans-64" x="2875.375"/>
     <use xlink:href="#DejaVuSans-20" x="2938.851562"/>
     <use xlink:href="#DejaVuSans-66" x="2970.638672"/>
     <use xlink:href="#DejaVuSans-72" x="3005.84375"/>
     <use xlink:href="#DejaVuSans-6f" x="3044.707031"/>
     <use xlink:href="#DejaVuSans-6d" x="3105.888672"/>
     <use xlink:href="#DejaVuSans-20" x="3203.300781"/>
     <use xlink:href="#DejaVuSans-66" x="3235.087891"/>
     <use xlink:href="#DejaVuSans-69" x="3270.292969"/>
     <use xlink:href="#DejaVuSans-72" x="3298.076172"/>
     <use xlink:href="#DejaVuSans-73" x="3339.189453"/>
     <use xlink:href="#DejaVuSans-74" x="3391.289062"/>
     <use xlink:href="#DejaVuSans-20" x="3430.498047"/>
     <use xlink:href="#DejaVuSans-65" x="3462.285156"/>
     <use xlink:href="#DejaVuSans-64" x="3523.808594"/>
     <use xlink:href="#DejaVuSans-69" x="3587.285156"/>
     <use xlink:href="#DejaVuSans-74" x="3615.068359"/>
     <use xlink:href="#DejaVuSans-69" x="3654.277344"/>
     <use xlink:href="#DejaVuSans-6f" x="3682.060547"/>
     <use xlink:href="#DejaVuSans-6e" x="3743.242188"/>
     <use xlink:href="#DejaVuSans-2c" x="3806.621094"/>
     <use xlink:href="#DejaVuSans-20" x="3838.408203"/>
     <use xlink:href="#DejaVuSans-64" x="3870.195312"/>
     <use xlink:href="#DejaVuSans-61" x="3933.671875"/>
     <use xlink:href="#DejaVuSans-79" x="3994.951172"/>
     <use xlink:href="#DejaVuSans-20" x="4054.130859"/>
     <use xlink:href="#DejaVuSans-62" x="4085.917969"/>
     <use xlink:href="#DejaVuSans-79" x="4149.394531"/>
     <use xlink:href="#DejaVuSans-20" x="4208.574219"/>
     <use xlink:href="#DejaVuSans-64" x="4240.361328"/>
     <use xlink:href="#DejaVuSans-61" x="4303.837891"/>
     <use xlink:href="#DejaVuSans-79" x="4365.117188"/>
     <use xlink:href="#DejaVuSans-2e" x="4410.046875"/>
     <use xlink:href="#DejaVuSans-20" x="4441.833984"/>
     <use xlink:href="#DejaVuSans-41" x="4473.621094"/>
     <use xlink:href="#DejaVuSans-73" x="4542.029297"/>
     <use xlink:href="#DejaVuSans-20" x="4594.128906"/>
     <use xlink:href="#DejaVuSans-61" x="4625.916016"/>
     <use xlink:href="#DejaVuSans-74" x="4687.195312"/>
     <use xlink:href="#DejaVuSans-3a" x="4726.404297"/>
     <use xlink:href="#DejaVuSans-20" x="4760.095703"/>
     <use xlink:href="#DejaVuSans-32" x="4791.882812"/>
     <use xlink:href="#DejaVuSans-30" x="4855.505859"/>
     <use xlink:href="#DejaVuSans-32" x="4919.128906"/>
     <use xlink:href="#DejaVuSans-36" x="4982.751953"/>
     <use xlink:href="#DejaVuSans-2d" x="5046.375"/>
     <use xlink:href="#DejaVuSans-30" x="5082.458984"/>
     <use xlink:href="#DejaVuSans-34" x="5146.082031"/>
     <use xlink:href="#DejaVuSans-2d" x="5209.705078"/>
     <use xlink:href="#DejaVuSans-31" x="5245.789062"/>
     <use xlink:href="#DejaVuSans-37" x="5309.412109"/>
    </g>
   </g>
  </g>
 </g>
 <defs>
  <clipPath id="pfdd558bfcf">
   <rect x="144" y="69.12" width="892.8" height="443.52"/>
  </clipPath>
 </defs>
</svg>
