<?xml version="1.0" encoding="utf-8" standalone="no"?>
<!DOCTYPE svg PUBLIC "-//W3C//DTD SVG 1.1//EN"
  "http://www.w3.org/Graphics/SVG/1.1/DTD/svg11.dtd">
<svg xmlns:xlink="http://www.w3.org/1999/xlink" width="1152pt" height="576pt" viewBox="0 0 1152 576" xmlns="http://www.w3.org/2000/svg" version="1.1">
 <metadata>
  <rdf:RDF xmlns:dc="http://purl.org/dc/elements/1.1/" xmlns:cc="http://creativecommons.org/ns#" xmlns:rdf="http://www.w3.org/1999/02/22-rdf-syntax-ns#">
   <cc:Work>
    <dc:type rdf:resource="http://purl.org/dc/dcmitype/StillImage"/>
    <dc:date>1980-01-01T00:00:00+00:00</dc:date>
    <dc:format>image/svg+xml</dc:format>
    <dc:creator>
     <cc:Agent>
      <dc:title>Matplotlib v3.9.1, https://matplotlib.org/</dc:title>
     </cc:Agent>
    </dc:creator>
   </cc:Work>
  </rdf:RDF>
 </metadata>
 <defs>
  <style type="text/css">*{stroke-linejoin: round; stroke-linecap: butt}</style>
 </defs>
 <g id="figure_1">
  <g id="patch_1">
   <path d="M 0 576 
L 1152 576 
L 1152 0 
L 0 0 
z
" style="fill: #ffffff"/>
  </g>
  <g id="axes_1">
   <g id="patch_2">
    <path d="M 144 512.64 
L 1036.8 512.64 
L 1036.8 69.12 
L 144 69.12 
z
" style="fill: #ffffff"/>
   </g>
   <g id="matplotlib.axis_1">
    <g id="xtick_1">
     <g id="line2d_1">
      <defs>
       <path id="m6769a03e5a" d="M 0 0 
L 0 3.5 
" style="stroke: #000000; stroke-width: 0.8"/>
      </defs>
      <g>
       <use xlink:href="#m6769a03e5a" x="176.895868" y="512.64" style="stroke: #000000; stroke-width: 0.8"/>
      </g>
     </g>
     <g id="text_1">
      <!-- 2014 -->
      <g transform="translate(164.170868 527.238438) scale(0.1 -0.1)">
       <defs>
        <path id="DejaVuSans-32" d="M 1228 531 
L 3431 531 
L 3431 0 
L 469 0 
L 469 531 
Q 828 903 1448 1529 
Q 2069 2156 2228 2338 
Q 2531 2678 2651 2914 
Q 2772 3150 2772 3378 
Q 2772 3750 2511 3984 
Q 2250 4219 1831 4219 
Q 1534 4219 1204 4116 
Q 875 4013 500 3803 
L 500 4441 
Q 881 4594 1212 4672 
Q 1544 4750 1819 4750 
Q 2544 4750 2975 4387 
Q 3406 4025 3406 3419 
Q 3406 3131 3298 2873 
Q 3191 2616 2906 2266 
Q 2828 2175 2409 1742 
Q 1991 1309 1228 531 
z
" transform="scale(0.015625)"/>
        <path id="DejaVuSans-30" d="M 2034 4250 
Q 1547 4250 1301 3770 
Q 1056 3291 1056 2328 
Q 1056 1369 1301 889 
Q 1547 409 2034 409 
Q 2525 409 2770 889 
Q 3016 1369 3016 2328 
Q 3016 3291 2770 3770 
Q 2525 4250 2034 4250 
z
M 2034 4750 
Q 2819 4750 3233 4129 
Q 3647 3509 3647 2328 
Q 3647 1150 3233 529 
Q 2819 -91 2034 -91 
Q 1250 -91 836 529 
Q 422 1150 422 2328 
Q 422 3509 836 4129 
Q 1250 4750 2034 4750 
z
" transform="scale(0.015625)"/>
        <path id="DejaVuSans-31" d="M 794 531 
L 1825 531 
L 1825 4091 
L 703 3866 
L 703 4441 
L 1819 4666 
L 2450 4666 
L 2450 531 
L 3481 531 
L 3481 0 
L 794 0 
L 794 531 
z
" transform="scale(0.015625)"/>
        <path id="DejaVuSans-34" d="M 2419 4116 
L 825 1625 
L 2419 1625 
L 2419 4116 
z
M 2253 4666 
L 3047 4666 
L 3047 1625 
L 3713 1625 
L 3713 1100 
L 3047 1100 
L 3047 0 
L 2419 0 
L 2419 1100 
L 313 1100 
L 313 1709 
L 2253 4666 
z
" transform="scale(0.015625)"/>
       </defs>
       <use xlink:href="#DejaVuSans-32"/>
       <use xlink:href="#DejaVuSans-30" x="63.623047"/>
       <use xlink:href="#DejaVuSans-31" x="127.246094"/>
       <use xlink:href="#DejaVuSans-34" x="190.869141"/>
      </g>
     </g>
    </g>
    <g id="xtick_2">
     <g id="line2d_2">
      <g>
       <use xlink:href="#m6769a03e5a" x="317.164463" y="512.64" style="stroke: #000000; stroke-width: 0.8"/>
      </g>
     </g>
     <g id="text_2">
      <!-- 2016 -->
      <g transform="translate(304.439463 527.238438) scale(0.1 -0.1)">
       <defs>
        <path id="DejaVuSans-36" d="M 2113 2584 
Q 1688 2584 1439 2293 
Q 1191 2003 1191 1497 
Q 1191 994 1439 701 
Q 1688 409 2113 409 
Q 2538 409 2786 701 
Q 3034 994 3034 1497 
Q 3034 2003 2786 2293 
Q 2538 2584 2113 2584 
z
M 3366 4563 
L 3366 3988 
Q 3128 4100 2886 4159 
Q 2644 4219 2406 4219 
Q 1781 4219 1451 3797 
Q 1122 3375 1075 2522 
Q 1259 2794 1537 2939 
Q 1816 3084 2150 3084 
Q 2853 3084 3261 2657 
Q 3669 2231 3669 1497 
Q 3669 778 3244 343 
Q 2819 -91 2113 -91 
Q 1303 -91 875 529 
Q 447 1150 447 2328 
Q 447 3434 972 4092 
Q 1497 4750 2381 4750 
Q 2619 4750 2861 4703 
Q 3103 4656 3366 4563 
z
" transform="scale(0.015625)"/>
       </defs>
       <use xlink:href="#DejaVuSans-32"/>
       <use xlink:href="#DejaVuSans-30" x="63.623047"/>
       <use xlink:href="#DejaVuSans-31" x="127.246094"/>
       <use xlink:href="#DejaVuSans-36" x="190.869141"/>
      </g>
     </g>
    </g>
    <g id="xtick_3">
     <g id="line2d_3">
      <g>
       <use xlink:href="#m6769a03e5a" x="457.625207" y="512.64" style="stroke: #000000; stroke-width: 0.8"/>
      </g>
     </g>
     <g id="text_3">
      <!-- 2018 -->
      <g transform="translate(444.900207 527.238438) scale(0.1 -0.1)">
       <defs>
        <path id="DejaVuSans-38" d="M 2034 2216 
Q 1584 2216 1326 1975 
Q 1069 1734 1069 1313 
Q 1069 891 1326 650 
Q 1584 409 2034 409 
Q 2484 409 2743 651 
Q 3003 894 3003 1313 
Q 3003 1734 2745 1975 
Q 2488 2216 2034 2216 
z
M 1403 2484 
Q 997 2584 770 2862 
Q 544 3141 544 3541 
Q 544 4100 942 4425 
Q 1341 4750 2034 4750 
Q 2731 4750 3128 4425 
Q 3525 4100 3525 3541 
Q 3525 3141 3298 2862 
Q 3072 2584 2669 2484 
Q 3125 2378 3379 2068 
Q 3634 1759 3634 1313 
Q 3634 634 3220 271 
Q 2806 -91 2034 -91 
Q 1263 -91 848 271 
Q 434 634 434 1313 
Q 434 1759 690 2068 
Q 947 2378 1403 2484 
z
M 1172 3481 
Q 1172 3119 1398 2916 
Q 1625 2713 2034 2713 
Q 2441 2713 2670 2916 
Q 2900 3119 2900 3481 
Q 2900 3844 2670 4047 
Q 2441 4250 2034 4250 
Q 1625 4250 1398 4047 
Q 1172 3844 1172 3481 
z
" transform="scale(0.015625)"/>
       </defs>
       <use xlink:href="#DejaVuSans-32"/>
       <use xlink:href="#DejaVuSans-30" x="63.623047"/>
       <use xlink:href="#DejaVuSans-31" x="127.246094"/>
       <use xlink:href="#DejaVuSans-38" x="190.869141"/>
      </g>
     </g>
    </g>
    <g id="xtick_4">
     <g id="line2d_4">
      <g>
       <use xlink:href="#m6769a03e5a" x="597.893802" y="512.64" style="stroke: #000000; stroke-width: 0.8"/>
      </g>
     </g>
     <g id="text_4">
      <!-- 2020 -->
      <g transform="translate(585.168802 527.238438) scale(0.1 -0.1)">
       <use xlink:href="#DejaVuSans-32"/>
       <use xlink:href="#DejaVuSans-30" x="63.623047"/>
       <use xlink:href="#DejaVuSans-32" x="127.246094"/>
       <use xlink:href="#DejaVuSans-30" x="190.869141"/>
      </g>
     </g>
    </g>
    <g id="xtick_5">
     <g id="line2d_5">
      <g>
       <use xlink:href="#m6769a03e5a" x="738.354545" y="512.64" style="stroke: #000000; stroke-width: 0.8"/>
      </g>
     </g>
     <g id="text_5">
      <!-- 2022 -->
      <g transform="translate(725.629545 527.238438) scale(0.1 -0.1)">
       <use xlink:href="#DejaVuSans-32"/>
       <use xlink:href="#DejaVuSans-30" x="63.623047"/>
       <use xlink:href="#DejaVuSans-32" x="127.246094"/>
       <use xlink:href="#DejaVuSans-32" x="190.869141"/>
      </g>
     </g>
    </g>
    <g id="xtick_6">
     <g id="line2d_6">
      <g>
       <use xlink:href="#m6769a03e5a" x="878.62314" y="512.64" style="stroke: #000000; stroke-width: 0.8"/>
      </g>
     </g>
     <g id="text_6">
      <!-- 2024 -->
      <g transform="translate(865.89814 527.238438) scale(0.1 -0.1)">
       <use xlink:href="#DejaVuSans-32"/>
       <use xlink:href="#DejaVuSans-30" x="63.623047"/>
       <use xlink:href="#DejaVuSans-32" x="127.246094"/>
       <use xlink:href="#DejaVuSans-34" x="190.869141"/>
      </g>
     </g>
    </g>
    <g id="xtick_7">
     <g id="line2d_7">
      <g>
       <use xlink:href="#m6769a03e5a" x="1019.083884" y="512.64" style="stroke: #000000; stroke-width: 0.8"/>
      </g>
     </g>
     <g id="text_7">
      <!-- 2026 -->
      <g transform="translate(1006.358884 527.238438) scale(0.1 -0.1)">
       <use xlink:href="#DejaVuSans-32"/>
       <use xlink:href="#DejaVuSans-30" x="63.623047"/>
       <use xlink:href="#DejaVuSans-32" x="127.246094"/>
       <use xlink:href="#DejaVuSans-36" x="190.869141"/>
      </g>
     </g>
    </g>
   </g>
   <g id="matplotlib.axis_2">
    <g id="ytick_1">
     <g id="line2d_8">
      <defs>
       <path id="m301b954c02" d="M 0 0 
L -3.5 0 
" style="stroke: #000000; stroke-width: 0.8"/>
      </defs>
      <g>
       <use xlink:href="#m301b954c02" x="144" y="492.514071" style="stroke: #000000; stroke-width: 0.8"/>
      </g>
     </g>
     <g id="text_8">
      <!-- 0 -->
      <g transform="translate(130.6375 496.31329) scale(0.1 -0.1)">
       <use xlink:href="#DejaVuSans-30"/>
      </g>
     </g>
    </g>
    <g id="ytick_2">
     <g id="line2d_9">
      <g>
       <use xlink:href="#m301b954c02" x="144" y="424.371431" style="stroke: #000000; stroke-width: 0.8"/>
      </g>
     </g>
     <g id="text_9">
      <!-- 2000 -->
      <g transform="translate(111.55 428.17065) scale(0.1 -0.1)">
       <use xlink:href="#DejaVuSans-32"/>
       <use xlink:href="#DejaVuSans-30" x="63.623047"/>
       <use xlink:href="#DejaVuSans-30" x="127.246094"/>
       <use xlink:href="#DejaVuSans-30" x="190.869141"/>
      </g>
     </g>
    </g>
    <g id="ytick_3">
     <g id="line2d_10">
      <g>
       <use xlink:href="#m301b954c02" x="144" y="356.228792" style="stroke: #000000; stroke-width: 0.8"/>
      </g>
     </g>
     <g id="text_10">
      <!-- 4000 -->
      <g transform="translate(111.55 360.02801) scale(0.1 -0.1)">
       <use xlink:href="#DejaVuSans-34"/>
       <use xlink:href="#DejaVuSans-30" x="63.623047"/>
       <use xlink:href="#DejaVuSans-30" x="127.246094"/>
       <use xlink:href="#DejaVuSans-30" x="190.869141"/>
      </g>
     </g>
    </g>
    <g id="ytick_4">
     <g id="line2d_11">
      <g>
       <use xlink:href="#m301b954c02" x="144" y="288.086152" style="stroke: #000000; stroke-width: 0.8"/>
      </g>
     </g>
     <g id="text_11">
      <!-- 6000 -->
      <g transform="translate(111.55 291.885371) scale(0.1 -0.1)">
       <use xlink:href="#DejaVuSans-36"/>
       <use xlink:href="#DejaVuSans-30" x="63.623047"/>
       <use xlink:href="#DejaVuSans-30" x="127.246094"/>
       <use xlink:href="#DejaVuSans-30" x="190.869141"/>
      </g>
     </g>
    </g>
    <g id="ytick_5">
     <g id="line2d_12">
      <g>
       <use xlink:href="#m301b954c02" x="144" y="219.943512" style="stroke: #000000; stroke-width: 0.8"/>
      </g>
     </g>
     <g id="text_12">
      <!-- 8000 -->
      <g transform="translate(111.55 223.742731) scale(0.1 -0.1)">
       <use xlink:href="#DejaVuSans-38"/>
       <use xlink:href="#DejaVuSans-30" x="63.623047"/>
       <use xlink:href="#DejaVuSans-30" x="127.246094"/>
       <use xlink:href="#DejaVuSans-30" x="190.869141"/>
      </g>
     </g>
    </g>
    <g id="ytick_6">
     <g id="line2d_13">
      <g>
       <use xlink:href="#m301b954c02" x="144" y="151.800872" style="stroke: #000000; stroke-width: 0.8"/>
      </g>
     </g>
     <g id="text_13">
      <!-- 10000 -->
      <g transform="translate(105.1875 155.600091) scale(0.1 -0.1)">
       <use xlink:href="#DejaVuSans-31"/>
       <use xlink:href="#DejaVuSans-30" x="63.623047"/>
       <use xlink:href="#DejaVuSans-30" x="127.246094"/>
       <use xlink:href="#DejaVuSans-30" x="190.869141"/>
       <use xlink:href="#DejaVuSans-30" x="254.492188"/>
      </g>
     </g>
    </g>
    <g id="ytick_7">
     <g id="line2d_14">
      <g>
       <use xlink:href="#m301b954c02" x="144" y="83.658232" style="stroke: #000000; stroke-width: 0.8"/>
      </g>
     </g>
     <g id="text_14">
      <!-- 12000 -->
      <g transform="translate(105.1875 87.457451) scale(0.1 -0.1)">
       <use xlink:href="#DejaVuSans-31"/>
       <use xlink:href="#DejaVuSans-32" x="63.623047"/>
       <use xlink:href="#DejaVuSans-30" x="127.246094"/>
       <use xlink:href="#DejaVuSans-30" x="190.869141"/>
       <use xlink:href="#DejaVuSans-30" x="254.492188"/>
      </g>
     </g>
    </g>
   </g>
   <g id="line2d_15">
    <path d="M 184.581818 492.48 
L 186.311157 492.411857 
L 306.404132 492.207429 
L 447.057025 492.037073 
L 499.321488 491.832645 
L 512.96405 491.730431 
L 545.629339 491.560074 
L 547.166529 491.491932 
L 556.005372 491.389718 
L 598.08595 491.18529 
L 604.234711 491.117147 
L 604.619008 490.844577 
L 608.654132 490.67422 
L 642.472314 490.537935 
L 646.315289 490.435721 
L 662.071488 490.265364 
L 681.286364 490.095008 
L 690.317355 489.822437 
L 698.003306 489.65208 
L 700.885537 489.447653 
L 702.230579 489.277296 
L 709.72438 489.072868 
L 713.759504 488.936583 
L 720.100413 488.493656 
L 730.092149 488.255156 
L 736.04876 486.585662 
L 736.625207 486.55159 
L 737.393802 486.006449 
L 737.58595 485.154666 
L 737.970248 484.950238 
L 738.162397 484.916167 
L 738.354545 483.757742 
L 739.507438 483.280744 
L 739.891736 482.701531 
L 740.276033 482.463032 
L 740.468182 481.951962 
L 740.660331 480.963894 
L 740.852479 480.623181 
L 741.236777 478.817401 
L 741.428926 476.841264 
L 741.813223 475.44434 
L 742.005372 475.171769 
L 742.197521 470.606213 
L 742.389669 468.766361 
L 742.581818 468.084935 
L 742.773967 464.814088 
L 743.350413 461.066243 
L 743.542562 460.964029 
L 743.92686 459.021964 
L 744.119008 458.374609 
L 744.311157 453.434267 
L 744.503306 452.99134 
L 744.887603 451.355917 
L 745.079752 451.253703 
L 745.271901 450.40192 
L 745.46405 446.892574 
L 745.656198 446.00672 
L 745.848347 445.938577 
L 746.040496 443.383228 
L 746.232645 442.872158 
L 746.616942 442.701802 
L 747.385537 440.112381 
L 747.769835 439.430955 
L 748.154132 437.420747 
L 748.346281 436.637107 
L 748.730579 431.253838 
L 749.307025 428.596275 
L 750.07562 428.187419 
L 750.844215 426.790495 
L 751.228512 426.65421 
L 751.61281 423.724076 
L 751.804959 423.690005 
L 752.189256 423.213007 
L 752.381405 421.782011 
L 752.573554 421.373155 
L 752.765702 421.23687 
L 752.957851 420.930228 
L 753.15 420.351016 
L 753.726446 420.112516 
L 753.918595 419.874017 
L 754.495041 417.727524 
L 754.68719 417.591239 
L 755.071488 417.046098 
L 755.840083 416.671313 
L 756.032231 415.274389 
L 756.22438 415.172175 
L 756.416529 414.933676 
L 756.608678 412.276113 
L 756.992975 412.173899 
L 757.377273 411.458401 
L 757.569421 410.776975 
L 758.145868 410.64069 
L 758.722314 409.584479 
L 758.914463 409.550407 
L 759.29876 408.971195 
L 759.683058 408.83491 
L 759.875207 405.734419 
L 761.028099 405.461849 
L 761.412397 405.189278 
L 762.180992 405.087064 
L 762.37314 404.916708 
L 764.678926 404.235281 
L 765.447521 403.69014 
L 766.408264 403.553855 
L 766.792562 403.281284 
L 767.17686 403.144999 
L 769.098347 402.633929 
L 769.866942 399.737867 
L 770.827686 399.601582 
L 771.019835 399.533439 
L 772.557025 399.363083 
L 773.133471 399.158655 
L 773.32562 398.613514 
L 774.286364 398.545371 
L 774.86281 398.238729 
L 775.823554 397.898016 
L 776.015702 397.863945 
L 776.4 397.48916 
L 776.784298 397.386946 
L 776.976446 397.148447 
L 777.745041 396.875876 
L 778.705785 396.773662 
L 778.897934 396.535163 
L 779.282231 396.501092 
L 779.47438 395.955951 
L 779.666529 395.887808 
L 779.858678 395.104168 
L 782.164463 394.593098 
L 782.740909 394.456813 
L 782.933058 394.047957 
L 784.278099 393.707244 
L 784.854545 393.502816 
L 785.62314 393.332459 
L 786.391736 393.128031 
L 787.352479 392.923603 
L 787.928926 392.753247 
L 789.273967 391.969606 
L 789.466116 391.28818 
L 790.42686 390.504539 
L 790.619008 390.197898 
L 791.579752 389.380186 
L 791.96405 388.664688 
L 792.156198 388.630617 
L 792.540496 387.744763 
L 793.309091 386.858908 
L 793.885537 386.756694 
L 794.077686 386.450052 
L 794.461983 386.279696 
L 794.654132 385.938983 
L 795.614876 385.700483 
L 795.807025 385.393841 
L 797.152066 385.0872 
L 797.536364 384.916843 
L 797.728512 384.882772 
L 797.920661 384.712415 
L 798.881405 384.57613 
L 800.226446 383.962846 
L 800.802893 383.826561 
L 801.18719 383.076992 
L 801.571488 382.838492 
L 802.532231 382.088923 
L 802.72438 381.305283 
L 803.492975 381.066784 
L 804.645868 380.691999 
L 805.030165 380.112787 
L 805.990909 379.567646 
L 806.183058 379.226933 
L 806.759504 379.022505 
L 807.143802 378.749934 
L 807.720248 378.511435 
L 808.104545 374.695447 
L 808.296694 373.468879 
L 808.488843 371.356458 
L 808.680992 371.083887 
L 809.449587 368.460395 
L 809.833884 367.778969 
L 810.026033 367.676755 
L 810.218182 367.438256 
L 810.410331 366.995329 
L 810.602479 365.462119 
L 810.794628 365.087335 
L 811.178926 364.95105 
L 812.331818 362.6342 
L 812.523967 362.463843 
L 812.716116 361.543918 
L 812.908264 361.203204 
L 813.292562 360.31735 
L 813.67686 359.772209 
L 814.445455 359.329282 
L 814.637603 359.124854 
L 814.829752 358.034572 
L 815.21405 357.864215 
L 815.598347 357.48943 
L 816.174793 356.70579 
L 816.366942 355.990292 
L 816.559091 355.956221 
L 817.135537 355.274795 
L 817.519835 355.240723 
L 817.711983 354.90001 
L 818.096281 354.695582 
L 819.057025 353.639371 
L 819.249174 353.060159 
L 820.786364 351.595092 
L 821.170661 350.266311 
L 822.323554 349.687098 
L 822.9 348.801244 
L 824.052893 347.165821 
L 824.821488 346.995464 
L 825.013636 346.961393 
L 825.590083 345.87111 
L 826.358678 345.632611 
L 827.127273 344.746757 
L 827.51157 344.678614 
L 827.895868 344.269758 
L 828.472314 344.031259 
L 828.856612 343.997188 
L 829.04876 343.79276 
L 829.240909 343.179476 
L 830.009504 342.940977 
L 830.201653 342.600264 
L 830.393802 342.566192 
L 830.58595 341.952909 
L 831.162397 341.714409 
L 831.738843 341.578124 
L 832.12314 341.237411 
L 833.083884 340.794484 
L 833.468182 340.487842 
L 833.852479 340.249343 
L 834.236777 340.215271 
L 834.428926 339.295346 
L 834.813223 338.988704 
L 835.389669 338.716133 
L 835.966116 338.37542 
L 836.734711 338.239135 
L 836.92686 337.285138 
L 838.271901 336.637783 
L 838.46405 336.603711 
L 838.656198 336.433355 
L 839.040496 336.365212 
L 839.232645 336.05857 
L 840.00124 335.751928 
L 840.193388 335.377144 
L 840.577686 335.343073 
L 840.961983 335.104573 
L 841.53843 334.797931 
L 841.730579 334.320933 
L 842.499174 333.946148 
L 842.691322 333.673578 
L 843.267769 333.366936 
L 843.844215 333.094365 
L 844.036364 332.787724 
L 844.228512 332.753652 
L 844.61281 332.481082 
L 844.997107 332.310725 
L 845.189256 332.106297 
L 846.342149 331.765584 
L 846.534298 331.390799 
L 846.726446 331.288585 
L 847.68719 331.050086 
L 848.071488 330.743444 
L 848.455785 330.607159 
L 849.032231 330.436802 
L 849.22438 330.130161 
L 849.608678 330.062018 
L 849.800826 329.448734 
L 849.992975 329.34652 
L 850.377273 328.903593 
L 850.569421 327.881453 
L 850.953719 327.642954 
L 851.145868 327.506669 
L 851.338017 327.234098 
L 851.722314 326.995599 
L 852.490909 326.314173 
L 852.875207 326.143816 
L 853.067355 325.73496 
L 853.259504 325.666818 
L 853.643802 325.257962 
L 854.028099 325.019463 
L 854.604545 324.849106 
L 854.988843 324.406179 
L 857.102479 322.600399 
L 858.063223 322.3619 
L 859.216116 321.169403 
L 859.600413 320.999047 
L 861.137603 320.385763 
L 861.906198 319.908765 
L 862.674793 319.568051 
L 863.059091 319.363623 
L 865.172727 318.51184 
L 865.557025 318.273341 
L 865.749174 318.23927 
L 865.941322 317.898557 
L 867.286364 317.353416 
L 867.86281 316.978631 
L 868.439256 316.706061 
L 868.631405 316.501633 
L 869.4 316.297205 
L 869.592149 315.854278 
L 869.784298 314.355139 
L 870.168595 313.980355 
L 870.360744 313.946284 
L 871.513636 312.447146 
L 871.897934 311.425006 
L 872.282231 311.084293 
L 872.666529 310.845793 
L 873.050826 310.74358 
L 873.242975 310.471009 
L 873.627273 310.266581 
L 874.01157 309.925868 
L 874.395868 309.755511 
L 874.588017 309.687369 
L 874.972314 309.278513 
L 875.164463 309.244441 
L 875.356612 308.835586 
L 875.933058 308.631158 
L 876.317355 308.120088 
L 876.893802 307.677161 
L 877.278099 307.302376 
L 877.854545 307.234234 
L 878.046694 306.927592 
L 878.62314 306.757235 
L 879.007438 305.258097 
L 879.391736 304.917384 
L 880.160331 304.644813 
L 880.544628 304.372243 
L 880.736777 303.861173 
L 881.121074 303.724888 
L 881.313223 303.247889 
L 881.505372 303.145675 
L 881.889669 302.736819 
L 882.081818 302.532391 
L 882.658264 302.327963 
L 883.042562 302.021322 
L 883.234711 301.98725 
L 883.42686 301.782822 
L 883.619008 301.748751 
L 884.387603 301.271753 
L 884.771901 300.41997 
L 884.96405 300.317756 
L 885.348347 300.249613 
L 885.540496 299.874828 
L 885.924793 299.704472 
L 886.309091 299.500044 
L 886.50124 298.88676 
L 887.269835 298.443833 
L 887.461983 297.830549 
L 888.230579 297.183194 
L 888.422727 297.149123 
L 888.807025 296.638053 
L 889.191322 296.331411 
L 889.383471 296.263269 
L 889.57562 295.922555 
L 889.959917 295.78627 
L 890.152066 295.138915 
L 890.536364 295.036701 
L 890.728512 294.730059 
L 890.920661 294.661917 
L 891.11281 293.946419 
L 891.497107 293.844205 
L 891.881405 293.605706 
L 892.265702 293.060564 
L 892.457851 292.924279 
L 893.226446 291.799926 
L 893.418595 291.731783 
L 893.802893 291.322927 
L 894.571488 290.777786 
L 895.147934 290.505215 
L 896.877273 288.801649 
L 897.26157 288.665364 
L 897.645868 288.256508 
L 898.030165 288.154294 
L 898.222314 287.370654 
L 898.79876 286.825513 
L 898.990909 286.144087 
L 899.375207 285.769302 
L 899.567355 285.428589 
L 899.759504 285.394517 
L 900.720248 284.508663 
L 901.296694 284.16795 
L 901.680992 283.861308 
L 902.833884 283.316167 
L 903.602479 282.191813 
L 903.986777 282.055528 
L 904.178926 281.748886 
L 904.371074 281.680744 
L 904.563223 281.442244 
L 904.755372 281.408173 
L 904.947521 281.033389 
L 905.716116 280.522319 
L 906.292562 280.079392 
L 907.061157 279.704607 
L 907.637603 279.227609 
L 908.21405 278.955038 
L 908.406198 278.648396 
L 908.790496 278.580254 
L 909.366942 278.035112 
L 909.559091 277.728471 
L 910.135537 277.4559 
L 910.519835 277.149258 
L 911.096281 276.978901 
L 911.480579 276.570046 
L 911.864876 276.43376 
L 912.249174 276.297475 
L 912.633471 275.820477 
L 913.402066 275.513835 
L 913.594215 273.946554 
L 914.554959 273.265128 
L 915.323554 271.902275 
L 915.515702 271.800061 
L 915.707851 271.357134 
L 916.092149 271.220848 
L 916.860744 270.062424 
L 917.245041 268.461071 
L 917.43719 267.950002 
L 917.821488 265.394653 
L 918.013636 264.372513 
L 918.97438 263.145946 
L 919.742975 260.113598 
L 919.935124 259.943242 
L 920.127273 259.466243 
L 920.319421 257.83082 
L 920.51157 257.217536 
L 920.703719 257.149393 
L 920.895868 256.399824 
L 921.472314 255.922826 
L 921.856612 254.628116 
L 922.817355 254.117046 
L 923.201653 253.70819 
L 923.778099 253.401548 
L 923.970248 253.299334 
L 924.354545 252.890478 
L 924.546694 252.515694 
L 924.738843 251.561697 
L 924.930992 251.186912 
L 925.315289 251.050627 
L 925.699587 250.88027 
L 926.083884 250.6077 
L 926.468182 250.369201 
L 927.236777 250.130701 
L 927.621074 249.892202 
L 927.813223 249.755917 
L 928.197521 249.721846 
L 930.695455 247.439067 
L 931.079752 247.336853 
L 931.46405 247.098354 
L 931.656198 246.99614 
L 931.848347 246.178428 
L 932.424793 245.633287 
L 932.809091 245.531073 
L 933.961983 244.611148 
L 934.346281 244.440791 
L 934.53843 244.372648 
L 934.922727 243.963792 
L 935.307025 243.89565 
L 935.499174 243.418651 
L 935.691322 243.248295 
L 935.883471 242.703154 
L 936.267769 242.464654 
L 936.844215 241.204016 
L 937.036364 240.522589 
L 937.61281 240.113733 
L 938.189256 239.364164 
L 938.573554 238.035383 
L 938.765702 237.626527 
L 938.957851 236.911029 
L 939.15 236.842887 
L 939.342149 236.263674 
L 939.726446 236.025175 
L 940.879339 234.86675 
L 941.071488 234.389752 
L 941.647934 234.117181 
L 941.840083 233.640183 
L 942.992975 233.163184 
L 943.185124 232.447686 
L 943.569421 232.209187 
L 943.76157 231.76626 
L 943.953719 231.629975 
L 944.338017 231.595903 
L 945.490909 230.710049 
L 946.067355 230.267122 
L 946.451653 229.824195 
L 946.83595 229.483481 
L 947.028099 229.142768 
L 947.220248 228.393199 
L 948.37314 227.745844 
L 948.757438 226.928132 
L 949.141736 226.791847 
L 949.333884 226.280777 
L 949.526033 226.212635 
L 949.910331 225.599351 
L 951.639669 224.406855 
L 952.984711 222.873645 
L 953.17686 222.396647 
L 953.369008 221.578935 
L 953.753306 220.93158 
L 953.945455 220.522724 
L 954.906198 215.582383 
L 955.290496 214.866885 
L 955.482645 213.027034 
L 955.674793 209.483617 
L 955.866942 208.086693 
L 956.059091 205.837985 
L 956.25124 205.258773 
L 956.635537 202.703424 
L 957.019835 199.228149 
L 957.404132 194.560379 
L 957.78843 193.844881 
L 958.172727 187.814257 
L 958.364876 186.212905 
L 958.749174 179.330499 
L 958.941322 178.410573 
L 959.133471 178.035788 
L 959.32562 174.560514 
L 959.517769 173.776873 
L 959.902066 169.960886 
L 960.286364 159.705418 
L 960.670661 158.104066 
L 960.86281 154.901362 
L 961.054959 154.59472 
L 961.439256 149.41588 
L 961.631405 149.313666 
L 961.823554 148.972953 
L 962.207851 147.746385 
L 962.4 147.507886 
L 962.592149 146.928673 
L 962.784298 145.838391 
L 963.168595 145.633963 
L 963.360744 145.088822 
L 963.745041 143.385256 
L 964.129339 140.114409 
L 964.321488 139.432983 
L 964.513636 139.36484 
L 964.705785 139.058198 
L 965.666529 136.162136 
L 965.858678 136.059922 
L 966.050826 135.378496 
L 966.435124 135.037783 
L 966.627273 134.901497 
L 966.819421 134.390428 
L 967.01157 134.220071 
L 967.588017 133.402359 
L 968.164463 132.550576 
L 968.54876 132.414291 
L 969.509504 131.153652 
L 969.893802 130.983296 
L 970.470248 130.915153 
L 970.854545 130.404083 
L 971.238843 130.301869 
L 971.815289 129.654514 
L 972.583884 129.211587 
L 973.352479 128.25759 
L 973.544628 127.74652 
L 974.313223 127.508021 
L 974.697521 127.167308 
L 975.081818 126.519953 
L 975.466116 126.213311 
L 975.658264 125.974812 
L 976.042562 124.577887 
L 976.234711 124.339388 
L 976.811157 124.100889 
L 977.195455 123.794247 
L 977.579752 123.419463 
L 977.96405 123.112821 
L 978.540496 122.635822 
L 978.732645 122.465466 
L 978.924793 121.647754 
L 979.50124 121.238898 
L 980.269835 120.318972 
L 980.846281 119.841974 
L 981.422727 119.330904 
L 981.807025 119.126476 
L 982.191322 118.819834 
L 982.767769 118.615406 
L 983.152066 117.42291 
L 983.344215 117.320696 
L 983.728512 116.741484 
L 984.497107 115.821558 
L 984.689256 115.719344 
L 985.265702 114.697205 
L 985.457851 113.777279 
L 985.65 113.470637 
L 986.034298 113.334352 
L 986.226446 112.925496 
L 987.955785 111.596715 
L 988.340083 110.847146 
L 988.532231 110.744932 
L 988.72438 106.622302 
L 989.108678 105.940875 
L 989.492975 105.395734 
L 989.685124 104.952807 
L 989.877273 104.918736 
L 990.26157 104.373595 
L 990.453719 103.658097 
L 991.606612 102.158959 
L 991.79876 101.750103 
L 992.183058 99.365111 
L 992.375207 98.649613 
L 992.567355 97.491188 
L 992.759504 97.184546 
L 992.951653 95.242481 
L 993.33595 93.981842 
L 993.528099 92.959703 
L 994.296694 91.86942 
L 995.065289 90.165854 
L 995.449587 90.029569 
L 996.218182 89.28 
L 996.218182 89.28 
" clip-path="url(#p935951ace0)" style="fill: none; stroke: #1f77b4; stroke-width: 1.5; stroke-linecap: square"/>
   </g>
   <g id="patch_3">
    <path d="M 144 512.64 
L 144 69.12 
" style="fill: none; stroke: #000000; stroke-width: 0.8; stroke-linejoin: miter; stroke-linecap: square"/>
   </g>
   <g id="patch_4">
    <path d="M 1036.8 512.64 
L 1036.8 69.12 
" style="fill: none; stroke: #000000; stroke-width: 0.8; stroke-linejoin: miter; stroke-linecap: square"/>
   </g>
   <g id="patch_5">
    <path d="M 144 512.64 
L 1036.8 512.64 
" style="fill: none; stroke: #000000; stroke-width: 0.8; stroke-linejoin: miter; stroke-linecap: square"/>
   </g>
   <g id="patch_6">
    <path d="M 144 69.12 
L 1036.8 69.12 
" style="fill: none; stroke: #000000; stroke-width: 0.8; stroke-linejoin: miter; stroke-linecap: square"/>
   </g>
   <g id="text_15">
    <!-- Number of AEDs in the OpenStreetMap database in Poland from first edition, day by day. As at: 2025-09-04 -->
    <g transform="translate(144 63.12) scale(0.14 -0.14)">
     <defs>
      <path id="DejaVuSans-4e" d="M 628 4666 
L 1478 4666 
L 3547 763 
L 3547 4666 
L 4159 4666 
L 4159 0 
L 3309 0 
L 1241 3903 
L 1241 0 
L 628 0 
L 628 4666 
z
" transform="scale(0.015625)"/>
      <path id="DejaVuSans-75" d="M 544 1381 
L 544 3500 
L 1119 3500 
L 1119 1403 
Q 1119 906 1312 657 
Q 1506 409 1894 409 
Q 2359 409 2629 706 
Q 2900 1003 2900 1516 
L 2900 3500 
L 3475 3500 
L 3475 0 
L 2900 0 
L 2900 538 
Q 2691 219 2414 64 
Q 2138 -91 1772 -91 
Q 1169 -91 856 284 
Q 544 659 544 1381 
z
M 1991 3584 
L 1991 3584 
z
" transform="scale(0.015625)"/>
      <path id="DejaVuSans-6d" d="M 3328 2828 
Q 3544 3216 3844 3400 
Q 4144 3584 4550 3584 
Q 5097 3584 5394 3201 
Q 5691 2819 5691 2113 
L 5691 0 
L 5113 0 
L 5113 2094 
Q 5113 2597 4934 2840 
Q 4756 3084 4391 3084 
Q 3944 3084 3684 2787 
Q 3425 2491 3425 1978 
L 3425 0 
L 2847 0 
L 2847 2094 
Q 2847 2600 2669 2842 
Q 2491 3084 2119 3084 
Q 1678 3084 1418 2786 
Q 1159 2488 1159 1978 
L 1159 0 
L 581 0 
L 581 3500 
L 1159 3500 
L 1159 2956 
Q 1356 3278 1631 3431 
Q 1906 3584 2284 3584 
Q 2666 3584 2933 3390 
Q 3200 3197 3328 2828 
z
" transform="scale(0.015625)"/>
      <path id="DejaVuSans-62" d="M 3116 1747 
Q 3116 2381 2855 2742 
Q 2594 3103 2138 3103 
Q 1681 3103 1420 2742 
Q 1159 2381 1159 1747 
Q 1159 1113 1420 752 
Q 1681 391 2138 391 
Q 2594 391 2855 752 
Q 3116 1113 3116 1747 
z
M 1159 2969 
Q 1341 3281 1617 3432 
Q 1894 3584 2278 3584 
Q 2916 3584 3314 3078 
Q 3713 2572 3713 1747 
Q 3713 922 3314 415 
Q 2916 -91 2278 -91 
Q 1894 -91 1617 61 
Q 1341 213 1159 525 
L 1159 0 
L 581 0 
L 581 4863 
L 1159 4863 
L 1159 2969 
z
" transform="scale(0.015625)"/>
      <path id="DejaVuSans-65" d="M 3597 1894 
L 3597 1613 
L 953 1613 
Q 991 1019 1311 708 
Q 1631 397 2203 397 
Q 2534 397 2845 478 
Q 3156 559 3463 722 
L 3463 178 
Q 3153 47 2828 -22 
Q 2503 -91 2169 -91 
Q 1331 -91 842 396 
Q 353 884 353 1716 
Q 353 2575 817 3079 
Q 1281 3584 2069 3584 
Q 2775 3584 3186 3129 
Q 3597 2675 3597 1894 
z
M 3022 2063 
Q 3016 2534 2758 2815 
Q 2500 3097 2075 3097 
Q 1594 3097 1305 2825 
Q 1016 2553 972 2059 
L 3022 2063 
z
" transform="scale(0.015625)"/>
      <path id="DejaVuSans-72" d="M 2631 2963 
Q 2534 3019 2420 3045 
Q 2306 3072 2169 3072 
Q 1681 3072 1420 2755 
Q 1159 2438 1159 1844 
L 1159 0 
L 581 0 
L 581 3500 
L 1159 3500 
L 1159 2956 
Q 1341 3275 1631 3429 
Q 1922 3584 2338 3584 
Q 2397 3584 2469 3576 
Q 2541 3569 2628 3553 
L 2631 2963 
z
" transform="scale(0.015625)"/>
      <path id="DejaVuSans-20" transform="scale(0.015625)"/>
      <path id="DejaVuSans-6f" d="M 1959 3097 
Q 1497 3097 1228 2736 
Q 959 2375 959 1747 
Q 959 1119 1226 758 
Q 1494 397 1959 397 
Q 2419 397 2687 759 
Q 2956 1122 2956 1747 
Q 2956 2369 2687 2733 
Q 2419 3097 1959 3097 
z
M 1959 3584 
Q 2709 3584 3137 3096 
Q 3566 2609 3566 1747 
Q 3566 888 3137 398 
Q 2709 -91 1959 -91 
Q 1206 -91 779 398 
Q 353 888 353 1747 
Q 353 2609 779 3096 
Q 1206 3584 1959 3584 
z
" transform="scale(0.015625)"/>
      <path id="DejaVuSans-66" d="M 2375 4863 
L 2375 4384 
L 1825 4384 
Q 1516 4384 1395 4259 
Q 1275 4134 1275 3809 
L 1275 3500 
L 2222 3500 
L 2222 3053 
L 1275 3053 
L 1275 0 
L 697 0 
L 697 3053 
L 147 3053 
L 147 3500 
L 697 3500 
L 697 3744 
Q 697 4328 969 4595 
Q 1241 4863 1831 4863 
L 2375 4863 
z
" transform="scale(0.015625)"/>
      <path id="DejaVuSans-41" d="M 2188 4044 
L 1331 1722 
L 3047 1722 
L 2188 4044 
z
M 1831 4666 
L 2547 4666 
L 4325 0 
L 3669 0 
L 3244 1197 
L 1141 1197 
L 716 0 
L 50 0 
L 1831 4666 
z
" transform="scale(0.015625)"/>
      <path id="DejaVuSans-45" d="M 628 4666 
L 3578 4666 
L 3578 4134 
L 1259 4134 
L 1259 2753 
L 3481 2753 
L 3481 2222 
L 1259 2222 
L 1259 531 
L 3634 531 
L 3634 0 
L 628 0 
L 628 4666 
z
" transform="scale(0.015625)"/>
      <path id="DejaVuSans-44" d="M 1259 4147 
L 1259 519 
L 2022 519 
Q 2988 519 3436 956 
Q 3884 1394 3884 2338 
Q 3884 3275 3436 3711 
Q 2988 4147 2022 4147 
L 1259 4147 
z
M 628 4666 
L 1925 4666 
Q 3281 4666 3915 4102 
Q 4550 3538 4550 2338 
Q 4550 1131 3912 565 
Q 3275 0 1925 0 
L 628 0 
L 628 4666 
z
" transform="scale(0.015625)"/>
      <path id="DejaVuSans-73" d="M 2834 3397 
L 2834 2853 
Q 2591 2978 2328 3040 
Q 2066 3103 1784 3103 
Q 1356 3103 1142 2972 
Q 928 2841 928 2578 
Q 928 2378 1081 2264 
Q 1234 2150 1697 2047 
L 1894 2003 
Q 2506 1872 2764 1633 
Q 3022 1394 3022 966 
Q 3022 478 2636 193 
Q 2250 -91 1575 -91 
Q 1294 -91 989 -36 
Q 684 19 347 128 
L 347 722 
Q 666 556 975 473 
Q 1284 391 1588 391 
Q 1994 391 2212 530 
Q 2431 669 2431 922 
Q 2431 1156 2273 1281 
Q 2116 1406 1581 1522 
L 1381 1569 
Q 847 1681 609 1914 
Q 372 2147 372 2553 
Q 372 3047 722 3315 
Q 1072 3584 1716 3584 
Q 2034 3584 2315 3537 
Q 2597 3491 2834 3397 
z
" transform="scale(0.015625)"/>
      <path id="DejaVuSans-69" d="M 603 3500 
L 1178 3500 
L 1178 0 
L 603 0 
L 603 3500 
z
M 603 4863 
L 1178 4863 
L 1178 4134 
L 603 4134 
L 603 4863 
z
" transform="scale(0.015625)"/>
      <path id="DejaVuSans-6e" d="M 3513 2113 
L 3513 0 
L 2938 0 
L 2938 2094 
Q 2938 2591 2744 2837 
Q 2550 3084 2163 3084 
Q 1697 3084 1428 2787 
Q 1159 2491 1159 1978 
L 1159 0 
L 581 0 
L 581 3500 
L 1159 3500 
L 1159 2956 
Q 1366 3272 1645 3428 
Q 1925 3584 2291 3584 
Q 2894 3584 3203 3211 
Q 3513 2838 3513 2113 
z
" transform="scale(0.015625)"/>
      <path id="DejaVuSans-74" d="M 1172 4494 
L 1172 3500 
L 2356 3500 
L 2356 3053 
L 1172 3053 
L 1172 1153 
Q 1172 725 1289 603 
Q 1406 481 1766 481 
L 2356 481 
L 2356 0 
L 1766 0 
Q 1100 0 847 248 
Q 594 497 594 1153 
L 594 3053 
L 172 3053 
L 172 3500 
L 594 3500 
L 594 4494 
L 1172 4494 
z
" transform="scale(0.015625)"/>
      <path id="DejaVuSans-68" d="M 3513 2113 
L 3513 0 
L 2938 0 
L 2938 2094 
Q 2938 2591 2744 2837 
Q 2550 3084 2163 3084 
Q 1697 3084 1428 2787 
Q 1159 2491 1159 1978 
L 1159 0 
L 581 0 
L 581 4863 
L 1159 4863 
L 1159 2956 
Q 1366 3272 1645 3428 
Q 1925 3584 2291 3584 
Q 2894 3584 3203 3211 
Q 3513 2838 3513 2113 
z
" transform="scale(0.015625)"/>
      <path id="DejaVuSans-4f" d="M 2522 4238 
Q 1834 4238 1429 3725 
Q 1025 3213 1025 2328 
Q 1025 1447 1429 934 
Q 1834 422 2522 422 
Q 3209 422 3611 934 
Q 4013 1447 4013 2328 
Q 4013 3213 3611 3725 
Q 3209 4238 2522 4238 
z
M 2522 4750 
Q 3503 4750 4090 4092 
Q 4678 3434 4678 2328 
Q 4678 1225 4090 567 
Q 3503 -91 2522 -91 
Q 1538 -91 948 565 
Q 359 1222 359 2328 
Q 359 3434 948 4092 
Q 1538 4750 2522 4750 
z
" transform="scale(0.015625)"/>
      <path id="DejaVuSans-70" d="M 1159 525 
L 1159 -1331 
L 581 -1331 
L 581 3500 
L 1159 3500 
L 1159 2969 
Q 1341 3281 1617 3432 
Q 1894 3584 2278 3584 
Q 2916 3584 3314 3078 
Q 3713 2572 3713 1747 
Q 3713 922 3314 415 
Q 2916 -91 2278 -91 
Q 1894 -91 1617 61 
Q 1341 213 1159 525 
z
M 3116 1747 
Q 3116 2381 2855 2742 
Q 2594 3103 2138 3103 
Q 1681 3103 1420 2742 
Q 1159 2381 1159 1747 
Q 1159 1113 1420 752 
Q 1681 391 2138 391 
Q 2594 391 2855 752 
Q 3116 1113 3116 1747 
z
" transform="scale(0.015625)"/>
      <path id="DejaVuSans-53" d="M 3425 4513 
L 3425 3897 
Q 3066 4069 2747 4153 
Q 2428 4238 2131 4238 
Q 1616 4238 1336 4038 
Q 1056 3838 1056 3469 
Q 1056 3159 1242 3001 
Q 1428 2844 1947 2747 
L 2328 2669 
Q 3034 2534 3370 2195 
Q 3706 1856 3706 1288 
Q 3706 609 3251 259 
Q 2797 -91 1919 -91 
Q 1588 -91 1214 -16 
Q 841 59 441 206 
L 441 856 
Q 825 641 1194 531 
Q 1563 422 1919 422 
Q 2459 422 2753 634 
Q 3047 847 3047 1241 
Q 3047 1584 2836 1778 
Q 2625 1972 2144 2069 
L 1759 2144 
Q 1053 2284 737 2584 
Q 422 2884 422 3419 
Q 422 4038 858 4394 
Q 1294 4750 2059 4750 
Q 2388 4750 2728 4690 
Q 3069 4631 3425 4513 
z
" transform="scale(0.015625)"/>
      <path id="DejaVuSans-4d" d="M 628 4666 
L 1569 4666 
L 2759 1491 
L 3956 4666 
L 4897 4666 
L 4897 0 
L 4281 0 
L 4281 4097 
L 3078 897 
L 2444 897 
L 1241 4097 
L 1241 0 
L 628 0 
L 628 4666 
z
" transform="scale(0.015625)"/>
      <path id="DejaVuSans-61" d="M 2194 1759 
Q 1497 1759 1228 1600 
Q 959 1441 959 1056 
Q 959 750 1161 570 
Q 1363 391 1709 391 
Q 2188 391 2477 730 
Q 2766 1069 2766 1631 
L 2766 1759 
L 2194 1759 
z
M 3341 1997 
L 3341 0 
L 2766 0 
L 2766 531 
Q 2569 213 2275 61 
Q 1981 -91 1556 -91 
Q 1019 -91 701 211 
Q 384 513 384 1019 
Q 384 1609 779 1909 
Q 1175 2209 1959 2209 
L 2766 2209 
L 2766 2266 
Q 2766 2663 2505 2880 
Q 2244 3097 1772 3097 
Q 1472 3097 1187 3025 
Q 903 2953 641 2809 
L 641 3341 
Q 956 3463 1253 3523 
Q 1550 3584 1831 3584 
Q 2591 3584 2966 3190 
Q 3341 2797 3341 1997 
z
" transform="scale(0.015625)"/>
      <path id="DejaVuSans-64" d="M 2906 2969 
L 2906 4863 
L 3481 4863 
L 3481 0 
L 2906 0 
L 2906 525 
Q 2725 213 2448 61 
Q 2172 -91 1784 -91 
Q 1150 -91 751 415 
Q 353 922 353 1747 
Q 353 2572 751 3078 
Q 1150 3584 1784 3584 
Q 2172 3584 2448 3432 
Q 2725 3281 2906 2969 
z
M 947 1747 
Q 947 1113 1208 752 
Q 1469 391 1925 391 
Q 2381 391 2643 752 
Q 2906 1113 2906 1747 
Q 2906 2381 2643 2742 
Q 2381 3103 1925 3103 
Q 1469 3103 1208 2742 
Q 947 2381 947 1747 
z
" transform="scale(0.015625)"/>
      <path id="DejaVuSans-50" d="M 1259 4147 
L 1259 2394 
L 2053 2394 
Q 2494 2394 2734 2622 
Q 2975 2850 2975 3272 
Q 2975 3691 2734 3919 
Q 2494 4147 2053 4147 
L 1259 4147 
z
M 628 4666 
L 2053 4666 
Q 2838 4666 3239 4311 
Q 3641 3956 3641 3272 
Q 3641 2581 3239 2228 
Q 2838 1875 2053 1875 
L 1259 1875 
L 1259 0 
L 628 0 
L 628 4666 
z
" transform="scale(0.015625)"/>
      <path id="DejaVuSans-6c" d="M 603 4863 
L 1178 4863 
L 1178 0 
L 603 0 
L 603 4863 
z
" transform="scale(0.015625)"/>
      <path id="DejaVuSans-2c" d="M 750 794 
L 1409 794 
L 1409 256 
L 897 -744 
L 494 -744 
L 750 256 
L 750 794 
z
" transform="scale(0.015625)"/>
      <path id="DejaVuSans-79" d="M 2059 -325 
Q 1816 -950 1584 -1140 
Q 1353 -1331 966 -1331 
L 506 -1331 
L 506 -850 
L 844 -850 
Q 1081 -850 1212 -737 
Q 1344 -625 1503 -206 
L 1606 56 
L 191 3500 
L 800 3500 
L 1894 763 
L 2988 3500 
L 3597 3500 
L 2059 -325 
z
" transform="scale(0.015625)"/>
      <path id="DejaVuSans-2e" d="M 684 794 
L 1344 794 
L 1344 0 
L 684 0 
L 684 794 
z
" transform="scale(0.015625)"/>
      <path id="DejaVuSans-3a" d="M 750 794 
L 1409 794 
L 1409 0 
L 750 0 
L 750 794 
z
M 750 3309 
L 1409 3309 
L 1409 2516 
L 750 2516 
L 750 3309 
z
" transform="scale(0.015625)"/>
      <path id="DejaVuSans-35" d="M 691 4666 
L 3169 4666 
L 3169 4134 
L 1269 4134 
L 1269 2991 
Q 1406 3038 1543 3061 
Q 1681 3084 1819 3084 
Q 2600 3084 3056 2656 
Q 3513 2228 3513 1497 
Q 3513 744 3044 326 
Q 2575 -91 1722 -91 
Q 1428 -91 1123 -41 
Q 819 9 494 109 
L 494 744 
Q 775 591 1075 516 
Q 1375 441 1709 441 
Q 2250 441 2565 725 
Q 2881 1009 2881 1497 
Q 2881 1984 2565 2268 
Q 2250 2553 1709 2553 
Q 1456 2553 1204 2497 
Q 953 2441 691 2322 
L 691 4666 
z
" transform="scale(0.015625)"/>
      <path id="DejaVuSans-2d" d="M 313 2009 
L 1997 2009 
L 1997 1497 
L 313 1497 
L 313 2009 
z
" transform="scale(0.015625)"/>
      <path id="DejaVuSans-39" d="M 703 97 
L 703 672 
Q 941 559 1184 500 
Q 1428 441 1663 441 
Q 2288 441 2617 861 
Q 2947 1281 2994 2138 
Q 2813 1869 2534 1725 
Q 2256 1581 1919 1581 
Q 1219 1581 811 2004 
Q 403 2428 403 3163 
Q 403 3881 828 4315 
Q 1253 4750 1959 4750 
Q 2769 4750 3195 4129 
Q 3622 3509 3622 2328 
Q 3622 1225 3098 567 
Q 2575 -91 1691 -91 
Q 1453 -91 1209 -44 
Q 966 3 703 97 
z
M 1959 2075 
Q 2384 2075 2632 2365 
Q 2881 2656 2881 3163 
Q 2881 3666 2632 3958 
Q 2384 4250 1959 4250 
Q 1534 4250 1286 3958 
Q 1038 3666 1038 3163 
Q 1038 2656 1286 2365 
Q 1534 2075 1959 2075 
z
" transform="scale(0.015625)"/>
     </defs>
     <use xlink:href="#DejaVuSans-4e"/>
     <use xlink:href="#DejaVuSans-75" x="74.804688"/>
     <use xlink:href="#DejaVuSans-6d" x="138.183594"/>
     <use xlink:href="#DejaVuSans-62" x="235.595703"/>
     <use xlink:href="#DejaVuSans-65" x="299.072266"/>
     <use xlink:href="#DejaVuSans-72" x="360.595703"/>
     <use xlink:href="#DejaVuSans-20" x="401.708984"/>
     <use xlink:href="#DejaVuSans-6f" x="433.496094"/>
     <use xlink:href="#DejaVuSans-66" x="494.677734"/>
     <use xlink:href="#DejaVuSans-20" x="529.882812"/>
     <use xlink:href="#DejaVuSans-41" x="561.669922"/>
     <use xlink:href="#DejaVuSans-45" x="630.078125"/>
     <use xlink:href="#DejaVuSans-44" x="693.261719"/>
     <use xlink:href="#DejaVuSans-73" x="770.263672"/>
     <use xlink:href="#DejaVuSans-20" x="822.363281"/>
     <use xlink:href="#DejaVuSans-69" x="854.150391"/>
     <use xlink:href="#DejaVuSans-6e" x="881.933594"/>
     <use xlink:href="#DejaVuSans-20" x="945.3125"/>
     <use xlink:href="#DejaVuSans-74" x="977.099609"/>
     <use xlink:href="#DejaVuSans-68" x="1016.308594"/>
     <use xlink:href="#DejaVuSans-65" x="1079.6875"/>
     <use xlink:href="#DejaVuSans-20" x="1141.210938"/>
     <use xlink:href="#DejaVuSans-4f" x="1172.998047"/>
     <use xlink:href="#DejaVuSans-70" x="1251.708984"/>
     <use xlink:href="#DejaVuSans-65" x="1315.185547"/>
     <use xlink:href="#DejaVuSans-6e" x="1376.708984"/>
     <use xlink:href="#DejaVuSans-53" x="1440.087891"/>
     <use xlink:href="#DejaVuSans-74" x="1503.564453"/>
     <use xlink:href="#DejaVuSans-72" x="1542.773438"/>
     <use xlink:href="#DejaVuSans-65" x="1581.636719"/>
     <use xlink:href="#DejaVuSans-65" x="1643.160156"/>
     <use xlink:href="#DejaVuSans-74" x="1704.683594"/>
     <use xlink:href="#DejaVuSans-4d" x="1743.892578"/>
     <use xlink:href="#DejaVuSans-61" x="1830.171875"/>
     <use xlink:href="#DejaVuSans-70" x="1891.451172"/>
     <use xlink:href="#DejaVuSans-20" x="1954.927734"/>
     <use xlink:href="#DejaVuSans-64" x="1986.714844"/>
     <use xlink:href="#DejaVuSans-61" x="2050.191406"/>
     <use xlink:href="#DejaVuSans-74" x="2111.470703"/>
     <use xlink:href="#DejaVuSans-61" x="2150.679688"/>
     <use xlink:href="#DejaVuSans-62" x="2211.958984"/>
     <use xlink:href="#DejaVuSans-61" x="2275.435547"/>
     <use xlink:href="#DejaVuSans-73" x="2336.714844"/>
     <use xlink:href="#DejaVuSans-65" x="2388.814453"/>
     <use xlink:href="#DejaVuSans-20" x="2450.337891"/>
     <use xlink:href="#DejaVuSans-69" x="2482.125"/>
     <use xlink:href="#DejaVuSans-6e" x="2509.908203"/>
     <use xlink:href="#DejaVuSans-20" x="2573.287109"/>
     <use xlink:href="#DejaVuSans-50" x="2605.074219"/>
     <use xlink:href="#DejaVuSans-6f" x="2661.751953"/>
     <use xlink:href="#DejaVuSans-6c" x="2722.933594"/>
     <use xlink:href="#DejaVuSans-61" x="2750.716797"/>
     <use xlink:href="#DejaVuSans-6e" x="2811.996094"/>
     <use xlink:href="#DejaVuSans-64" x="2875.375"/>
     <use xlink:href="#DejaVuSans-20" x="2938.851562"/>
     <use xlink:href="#DejaVuSans-66" x="2970.638672"/>
     <use xlink:href="#DejaVuSans-72" x="3005.84375"/>
     <use xlink:href="#DejaVuSans-6f" x="3044.707031"/>
     <use xlink:href="#DejaVuSans-6d" x="3105.888672"/>
     <use xlink:href="#DejaVuSans-20" x="3203.300781"/>
     <use xlink:href="#DejaVuSans-66" x="3235.087891"/>
     <use xlink:href="#DejaVuSans-69" x="3270.292969"/>
     <use xlink:href="#DejaVuSans-72" x="3298.076172"/>
     <use xlink:href="#DejaVuSans-73" x="3339.189453"/>
     <use xlink:href="#DejaVuSans-74" x="3391.289062"/>
     <use xlink:href="#DejaVuSans-20" x="3430.498047"/>
     <use xlink:href="#DejaVuSans-65" x="3462.285156"/>
     <use xlink:href="#DejaVuSans-64" x="3523.808594"/>
     <use xlink:href="#DejaVuSans-69" x="3587.285156"/>
     <use xlink:href="#DejaVuSans-74" x="3615.068359"/>
     <use xlink:href="#DejaVuSans-69" x="3654.277344"/>
     <use xlink:href="#DejaVuSans-6f" x="3682.060547"/>
     <use xlink:href="#DejaVuSans-6e" x="3743.242188"/>
     <use xlink:href="#DejaVuSans-2c" x="3806.621094"/>
     <use xlink:href="#DejaVuSans-20" x="3838.408203"/>
     <use xlink:href="#DejaVuSans-64" x="3870.195312"/>
     <use xlink:href="#DejaVuSans-61" x="3933.671875"/>
     <use xlink:href="#DejaVuSans-79" x="3994.951172"/>
     <use xlink:href="#DejaVuSans-20" x="4054.130859"/>
     <use xlink:href="#DejaVuSans-62" x="4085.917969"/>
     <use xlink:href="#DejaVuSans-79" x="4149.394531"/>
     <use xlink:href="#DejaVuSans-20" x="4208.574219"/>
     <use xlink:href="#DejaVuSans-64" x="4240.361328"/>
     <use xlink:href="#DejaVuSans-61" x="4303.837891"/>
     <use xlink:href="#DejaVuSans-79" x="4365.117188"/>
     <use xlink:href="#DejaVuSans-2e" x="4410.046875"/>
     <use xlink:href="#DejaVuSans-20" x="4441.833984"/>
     <use xlink:href="#DejaVuSans-41" x="4473.621094"/>
     <use xlink:href="#DejaVuSans-73" x="4542.029297"/>
     <use xlink:href="#DejaVuSans-20" x="4594.128906"/>
     <use xlink:href="#DejaVuSans-61" x="4625.916016"/>
     <use xlink:href="#DejaVuSans-74" x="4687.195312"/>
     <use xlink:href="#DejaVuSans-3a" x="4726.404297"/>
     <use xlink:href="#DejaVuSans-20" x="4760.095703"/>
     <use xlink:href="#DejaVuSans-32" x="4791.882812"/>
     <use xlink:href="#DejaVuSans-30" x="4855.505859"/>
     <use xlink:href="#DejaVuSans-32" x="4919.128906"/>
     <use xlink:href="#DejaVuSans-35" x="4982.751953"/>
     <use xlink:href="#DejaVuSans-2d" x="5046.375"/>
     <use xlink:href="#DejaVuSans-30" x="5082.458984"/>
     <use xlink:href="#DejaVuSans-39" x="5146.082031"/>
     <use xlink:href="#DejaVuSans-2d" x="5209.705078"/>
     <use xlink:href="#DejaVuSans-30" x="5245.789062"/>
     <use xlink:href="#DejaVuSans-34" x="5309.412109"/>
    </g>
   </g>
  </g>
 </g>
 <defs>
  <clipPath id="p935951ace0">
   <rect x="144" y="69.12" width="892.8" height="443.52"/>
  </clipPath>
 </defs>
</svg>
