<?xml version="1.0" encoding="utf-8" standalone="no"?>
<!DOCTYPE svg PUBLIC "-//W3C//DTD SVG 1.1//EN"
  "http://www.w3.org/Graphics/SVG/1.1/DTD/svg11.dtd">
<svg xmlns:xlink="http://www.w3.org/1999/xlink" width="1152pt" height="576pt" viewBox="0 0 1152 576" xmlns="http://www.w3.org/2000/svg" version="1.1">
 <metadata>
  <rdf:RDF xmlns:dc="http://purl.org/dc/elements/1.1/" xmlns:cc="http://creativecommons.org/ns#" xmlns:rdf="http://www.w3.org/1999/02/22-rdf-syntax-ns#">
   <cc:Work>
    <dc:type rdf:resource="http://purl.org/dc/dcmitype/StillImage"/>
    <dc:date>1980-01-01T00:00:00+00:00</dc:date>
    <dc:format>image/svg+xml</dc:format>
    <dc:creator>
     <cc:Agent>
      <dc:title>Matplotlib v3.9.1, https://matplotlib.org/</dc:title>
     </cc:Agent>
    </dc:creator>
   </cc:Work>
  </rdf:RDF>
 </metadata>
 <defs>
  <style type="text/css">*{stroke-linejoin: round; stroke-linecap: butt}</style>
 </defs>
 <g id="figure_1">
  <g id="patch_1">
   <path d="M 0 576 
L 1152 576 
L 1152 0 
L 0 0 
z
" style="fill: #ffffff"/>
  </g>
  <g id="axes_1">
   <g id="patch_2">
    <path d="M 144 512.64 
L 1036.8 512.64 
L 1036.8 69.12 
L 144 69.12 
z
" style="fill: #ffffff"/>
   </g>
   <g id="matplotlib.axis_1">
    <g id="xtick_1">
     <g id="line2d_1">
      <defs>
       <path id="m9e2e4d643e" d="M 0 0 
L 0 3.5 
" style="stroke: #000000; stroke-width: 0.8"/>
      </defs>
      <g>
       <use xlink:href="#m9e2e4d643e" x="177.243334" y="512.64" style="stroke: #000000; stroke-width: 0.8"/>
      </g>
     </g>
     <g id="text_1">
      <!-- 2014 -->
      <g transform="translate(164.518334 527.238438) scale(0.1 -0.1)">
       <defs>
        <path id="DejaVuSans-32" d="M 1228 531 
L 3431 531 
L 3431 0 
L 469 0 
L 469 531 
Q 828 903 1448 1529 
Q 2069 2156 2228 2338 
Q 2531 2678 2651 2914 
Q 2772 3150 2772 3378 
Q 2772 3750 2511 3984 
Q 2250 4219 1831 4219 
Q 1534 4219 1204 4116 
Q 875 4013 500 3803 
L 500 4441 
Q 881 4594 1212 4672 
Q 1544 4750 1819 4750 
Q 2544 4750 2975 4387 
Q 3406 4025 3406 3419 
Q 3406 3131 3298 2873 
Q 3191 2616 2906 2266 
Q 2828 2175 2409 1742 
Q 1991 1309 1228 531 
z
" transform="scale(0.015625)"/>
        <path id="DejaVuSans-30" d="M 2034 4250 
Q 1547 4250 1301 3770 
Q 1056 3291 1056 2328 
Q 1056 1369 1301 889 
Q 1547 409 2034 409 
Q 2525 409 2770 889 
Q 3016 1369 3016 2328 
Q 3016 3291 2770 3770 
Q 2525 4250 2034 4250 
z
M 2034 4750 
Q 2819 4750 3233 4129 
Q 3647 3509 3647 2328 
Q 3647 1150 3233 529 
Q 2819 -91 2034 -91 
Q 1250 -91 836 529 
Q 422 1150 422 2328 
Q 422 3509 836 4129 
Q 1250 4750 2034 4750 
z
" transform="scale(0.015625)"/>
        <path id="DejaVuSans-31" d="M 794 531 
L 1825 531 
L 1825 4091 
L 703 3866 
L 703 4441 
L 1819 4666 
L 2450 4666 
L 2450 531 
L 3481 531 
L 3481 0 
L 794 0 
L 794 531 
z
" transform="scale(0.015625)"/>
        <path id="DejaVuSans-34" d="M 2419 4116 
L 825 1625 
L 2419 1625 
L 2419 4116 
z
M 2253 4666 
L 3047 4666 
L 3047 1625 
L 3713 1625 
L 3713 1100 
L 3047 1100 
L 3047 0 
L 2419 0 
L 2419 1100 
L 313 1100 
L 313 1709 
L 2253 4666 
z
" transform="scale(0.015625)"/>
       </defs>
       <use xlink:href="#DejaVuSans-32"/>
       <use xlink:href="#DejaVuSans-30" x="63.623047"/>
       <use xlink:href="#DejaVuSans-31" x="127.246094"/>
       <use xlink:href="#DejaVuSans-34" x="190.869141"/>
      </g>
     </g>
    </g>
    <g id="xtick_2">
     <g id="line2d_2">
      <g>
       <use xlink:href="#m9e2e4d643e" x="311.170672" y="512.64" style="stroke: #000000; stroke-width: 0.8"/>
      </g>
     </g>
     <g id="text_2">
      <!-- 2016 -->
      <g transform="translate(298.445672 527.238438) scale(0.1 -0.1)">
       <defs>
        <path id="DejaVuSans-36" d="M 2113 2584 
Q 1688 2584 1439 2293 
Q 1191 2003 1191 1497 
Q 1191 994 1439 701 
Q 1688 409 2113 409 
Q 2538 409 2786 701 
Q 3034 994 3034 1497 
Q 3034 2003 2786 2293 
Q 2538 2584 2113 2584 
z
M 3366 4563 
L 3366 3988 
Q 3128 4100 2886 4159 
Q 2644 4219 2406 4219 
Q 1781 4219 1451 3797 
Q 1122 3375 1075 2522 
Q 1259 2794 1537 2939 
Q 1816 3084 2150 3084 
Q 2853 3084 3261 2657 
Q 3669 2231 3669 1497 
Q 3669 778 3244 343 
Q 2819 -91 2113 -91 
Q 1303 -91 875 529 
Q 447 1150 447 2328 
Q 447 3434 972 4092 
Q 1497 4750 2381 4750 
Q 2619 4750 2861 4703 
Q 3103 4656 3366 4563 
z
" transform="scale(0.015625)"/>
       </defs>
       <use xlink:href="#DejaVuSans-32"/>
       <use xlink:href="#DejaVuSans-30" x="63.623047"/>
       <use xlink:href="#DejaVuSans-31" x="127.246094"/>
       <use xlink:href="#DejaVuSans-36" x="190.869141"/>
      </g>
     </g>
    </g>
    <g id="xtick_3">
     <g id="line2d_3">
      <g>
       <use xlink:href="#m9e2e4d643e" x="445.281473" y="512.64" style="stroke: #000000; stroke-width: 0.8"/>
      </g>
     </g>
     <g id="text_3">
      <!-- 2018 -->
      <g transform="translate(432.556473 527.238438) scale(0.1 -0.1)">
       <defs>
        <path id="DejaVuSans-38" d="M 2034 2216 
Q 1584 2216 1326 1975 
Q 1069 1734 1069 1313 
Q 1069 891 1326 650 
Q 1584 409 2034 409 
Q 2484 409 2743 651 
Q 3003 894 3003 1313 
Q 3003 1734 2745 1975 
Q 2488 2216 2034 2216 
z
M 1403 2484 
Q 997 2584 770 2862 
Q 544 3141 544 3541 
Q 544 4100 942 4425 
Q 1341 4750 2034 4750 
Q 2731 4750 3128 4425 
Q 3525 4100 3525 3541 
Q 3525 3141 3298 2862 
Q 3072 2584 2669 2484 
Q 3125 2378 3379 2068 
Q 3634 1759 3634 1313 
Q 3634 634 3220 271 
Q 2806 -91 2034 -91 
Q 1263 -91 848 271 
Q 434 634 434 1313 
Q 434 1759 690 2068 
Q 947 2378 1403 2484 
z
M 1172 3481 
Q 1172 3119 1398 2916 
Q 1625 2713 2034 2713 
Q 2441 2713 2670 2916 
Q 2900 3119 2900 3481 
Q 2900 3844 2670 4047 
Q 2441 4250 2034 4250 
Q 1625 4250 1398 4047 
Q 1172 3844 1172 3481 
z
" transform="scale(0.015625)"/>
       </defs>
       <use xlink:href="#DejaVuSans-32"/>
       <use xlink:href="#DejaVuSans-30" x="63.623047"/>
       <use xlink:href="#DejaVuSans-31" x="127.246094"/>
       <use xlink:href="#DejaVuSans-38" x="190.869141"/>
      </g>
     </g>
    </g>
    <g id="xtick_4">
     <g id="line2d_4">
      <g>
       <use xlink:href="#m9e2e4d643e" x="579.208811" y="512.64" style="stroke: #000000; stroke-width: 0.8"/>
      </g>
     </g>
     <g id="text_4">
      <!-- 2020 -->
      <g transform="translate(566.483811 527.238438) scale(0.1 -0.1)">
       <use xlink:href="#DejaVuSans-32"/>
       <use xlink:href="#DejaVuSans-30" x="63.623047"/>
       <use xlink:href="#DejaVuSans-32" x="127.246094"/>
       <use xlink:href="#DejaVuSans-30" x="190.869141"/>
      </g>
     </g>
    </g>
    <g id="xtick_5">
     <g id="line2d_5">
      <g>
       <use xlink:href="#m9e2e4d643e" x="713.319612" y="512.64" style="stroke: #000000; stroke-width: 0.8"/>
      </g>
     </g>
     <g id="text_5">
      <!-- 2022 -->
      <g transform="translate(700.594612 527.238438) scale(0.1 -0.1)">
       <use xlink:href="#DejaVuSans-32"/>
       <use xlink:href="#DejaVuSans-30" x="63.623047"/>
       <use xlink:href="#DejaVuSans-32" x="127.246094"/>
       <use xlink:href="#DejaVuSans-32" x="190.869141"/>
      </g>
     </g>
    </g>
    <g id="xtick_6">
     <g id="line2d_6">
      <g>
       <use xlink:href="#m9e2e4d643e" x="847.246951" y="512.64" style="stroke: #000000; stroke-width: 0.8"/>
      </g>
     </g>
     <g id="text_6">
      <!-- 2024 -->
      <g transform="translate(834.521951 527.238438) scale(0.1 -0.1)">
       <use xlink:href="#DejaVuSans-32"/>
       <use xlink:href="#DejaVuSans-30" x="63.623047"/>
       <use xlink:href="#DejaVuSans-32" x="127.246094"/>
       <use xlink:href="#DejaVuSans-34" x="190.869141"/>
      </g>
     </g>
    </g>
    <g id="xtick_7">
     <g id="line2d_7">
      <g>
       <use xlink:href="#m9e2e4d643e" x="981.357751" y="512.64" style="stroke: #000000; stroke-width: 0.8"/>
      </g>
     </g>
     <g id="text_7">
      <!-- 2026 -->
      <g transform="translate(968.632751 527.238438) scale(0.1 -0.1)">
       <use xlink:href="#DejaVuSans-32"/>
       <use xlink:href="#DejaVuSans-30" x="63.623047"/>
       <use xlink:href="#DejaVuSans-32" x="127.246094"/>
       <use xlink:href="#DejaVuSans-36" x="190.869141"/>
      </g>
     </g>
    </g>
   </g>
   <g id="matplotlib.axis_2">
    <g id="ytick_1">
     <g id="line2d_8">
      <defs>
       <path id="meb738c9228" d="M 0 0 
L -3.5 0 
" style="stroke: #000000; stroke-width: 0.8"/>
      </defs>
      <g>
       <use xlink:href="#meb738c9228" x="144" y="492.507053" style="stroke: #000000; stroke-width: 0.8"/>
      </g>
     </g>
     <g id="text_8">
      <!-- 0 -->
      <g transform="translate(130.6375 496.306272) scale(0.1 -0.1)">
       <use xlink:href="#DejaVuSans-30"/>
      </g>
     </g>
    </g>
    <g id="ytick_2">
     <g id="line2d_9">
      <g>
       <use xlink:href="#meb738c9228" x="144" y="438.400773" style="stroke: #000000; stroke-width: 0.8"/>
      </g>
     </g>
     <g id="text_9">
      <!-- 2000 -->
      <g transform="translate(111.55 442.199992) scale(0.1 -0.1)">
       <use xlink:href="#DejaVuSans-32"/>
       <use xlink:href="#DejaVuSans-30" x="63.623047"/>
       <use xlink:href="#DejaVuSans-30" x="127.246094"/>
       <use xlink:href="#DejaVuSans-30" x="190.869141"/>
      </g>
     </g>
    </g>
    <g id="ytick_3">
     <g id="line2d_10">
      <g>
       <use xlink:href="#meb738c9228" x="144" y="384.294493" style="stroke: #000000; stroke-width: 0.8"/>
      </g>
     </g>
     <g id="text_10">
      <!-- 4000 -->
      <g transform="translate(111.55 388.093712) scale(0.1 -0.1)">
       <use xlink:href="#DejaVuSans-34"/>
       <use xlink:href="#DejaVuSans-30" x="63.623047"/>
       <use xlink:href="#DejaVuSans-30" x="127.246094"/>
       <use xlink:href="#DejaVuSans-30" x="190.869141"/>
      </g>
     </g>
    </g>
    <g id="ytick_4">
     <g id="line2d_11">
      <g>
       <use xlink:href="#meb738c9228" x="144" y="330.188213" style="stroke: #000000; stroke-width: 0.8"/>
      </g>
     </g>
     <g id="text_11">
      <!-- 6000 -->
      <g transform="translate(111.55 333.987431) scale(0.1 -0.1)">
       <use xlink:href="#DejaVuSans-36"/>
       <use xlink:href="#DejaVuSans-30" x="63.623047"/>
       <use xlink:href="#DejaVuSans-30" x="127.246094"/>
       <use xlink:href="#DejaVuSans-30" x="190.869141"/>
      </g>
     </g>
    </g>
    <g id="ytick_5">
     <g id="line2d_12">
      <g>
       <use xlink:href="#meb738c9228" x="144" y="276.081932" style="stroke: #000000; stroke-width: 0.8"/>
      </g>
     </g>
     <g id="text_12">
      <!-- 8000 -->
      <g transform="translate(111.55 279.881151) scale(0.1 -0.1)">
       <use xlink:href="#DejaVuSans-38"/>
       <use xlink:href="#DejaVuSans-30" x="63.623047"/>
       <use xlink:href="#DejaVuSans-30" x="127.246094"/>
       <use xlink:href="#DejaVuSans-30" x="190.869141"/>
      </g>
     </g>
    </g>
    <g id="ytick_6">
     <g id="line2d_13">
      <g>
       <use xlink:href="#meb738c9228" x="144" y="221.975652" style="stroke: #000000; stroke-width: 0.8"/>
      </g>
     </g>
     <g id="text_13">
      <!-- 10000 -->
      <g transform="translate(105.1875 225.774871) scale(0.1 -0.1)">
       <use xlink:href="#DejaVuSans-31"/>
       <use xlink:href="#DejaVuSans-30" x="63.623047"/>
       <use xlink:href="#DejaVuSans-30" x="127.246094"/>
       <use xlink:href="#DejaVuSans-30" x="190.869141"/>
       <use xlink:href="#DejaVuSans-30" x="254.492188"/>
      </g>
     </g>
    </g>
    <g id="ytick_7">
     <g id="line2d_14">
      <g>
       <use xlink:href="#meb738c9228" x="144" y="167.869372" style="stroke: #000000; stroke-width: 0.8"/>
      </g>
     </g>
     <g id="text_14">
      <!-- 12000 -->
      <g transform="translate(105.1875 171.668591) scale(0.1 -0.1)">
       <use xlink:href="#DejaVuSans-31"/>
       <use xlink:href="#DejaVuSans-32" x="63.623047"/>
       <use xlink:href="#DejaVuSans-30" x="127.246094"/>
       <use xlink:href="#DejaVuSans-30" x="190.869141"/>
       <use xlink:href="#DejaVuSans-30" x="254.492188"/>
      </g>
     </g>
    </g>
    <g id="ytick_8">
     <g id="line2d_15">
      <g>
       <use xlink:href="#meb738c9228" x="144" y="113.763092" style="stroke: #000000; stroke-width: 0.8"/>
      </g>
     </g>
     <g id="text_15">
      <!-- 14000 -->
      <g transform="translate(105.1875 117.562311) scale(0.1 -0.1)">
       <use xlink:href="#DejaVuSans-31"/>
       <use xlink:href="#DejaVuSans-34" x="63.623047"/>
       <use xlink:href="#DejaVuSans-30" x="127.246094"/>
       <use xlink:href="#DejaVuSans-30" x="190.869141"/>
       <use xlink:href="#DejaVuSans-30" x="254.492188"/>
      </g>
     </g>
    </g>
   </g>
   <g id="line2d_16">
    <path d="M 184.581818 492.48 
L 186.232977 492.425894 
L 285.119053 492.290628 
L 451.15226 492.128309 
L 492.431235 491.96599 
L 585.263061 491.451981 
L 585.629985 491.235556 
L 589.482689 491.10029 
L 636.448989 490.937971 
L 640.485155 490.856812 
L 661.950222 490.66744 
L 689.469538 489.991111 
L 695.890712 489.63942 
L 705.430741 489.450048 
L 709.833832 488.476135 
L 710.017294 488.367923 
L 711.668453 488.286763 
L 712.402301 487.908019 
L 712.585764 487.285797 
L 712.952688 487.123478 
L 713.13615 487.096425 
L 713.319612 486.230725 
L 714.420385 485.851981 
L 714.787309 485.392077 
L 715.154233 485.256812 
L 715.337695 484.932174 
L 715.521157 484.201739 
L 715.888082 483.60657 
L 716.071544 482.822029 
L 716.255006 481.334106 
L 716.805392 480.360193 
L 717.172316 475.544734 
L 717.355778 475.030725 
L 717.722703 471.97372 
L 717.906165 471.45971 
L 718.089627 470.107053 
L 718.273089 470.025894 
L 718.823475 468.348599 
L 719.006937 464.561159 
L 719.190399 464.236522 
L 719.557324 463.181449 
L 719.740786 463.10029 
L 719.924248 462.532174 
L 720.10771 459.935072 
L 720.291172 459.31285 
L 720.474634 459.285797 
L 720.658096 457.392077 
L 720.841558 457.148599 
L 721.208483 457.013333 
L 721.942331 455.281932 
L 722.309255 454.74087 
L 722.859642 453.28 
L 723.226566 449.222029 
L 723.59349 447.328309 
L 724.143876 447.24715 
L 724.510801 447.057778 
L 725.244649 446.029758 
L 725.611573 445.975652 
L 725.978497 443.838454 
L 726.345422 443.676135 
L 726.528884 443.45971 
L 726.712346 442.485797 
L 727.07927 442.215266 
L 727.262732 442.08 
L 727.446194 441.620097 
L 727.996581 441.457778 
L 728.363505 441.2143 
L 728.730429 440.213333 
L 728.913891 440.132174 
L 729.280815 439.726377 
L 730.014664 439.428792 
L 730.198126 438.508986 
L 730.56505 438.319614 
L 730.748512 436.561159 
L 731.115436 436.507053 
L 731.482361 435.993043 
L 731.665823 435.479034 
L 732.216209 435.370821 
L 732.399671 435.208502 
L 732.766595 434.694493 
L 732.950058 434.66744 
L 733.316982 434.261643 
L 733.683906 434.15343 
L 733.867368 432.936039 
L 734.968141 432.800773 
L 735.335065 432.638454 
L 736.068913 432.557295 
L 736.252375 432.449082 
L 738.820845 431.82686 
L 739.187769 431.610435 
L 740.10508 431.502222 
L 740.838928 431.177585 
L 742.673549 430.852947 
L 743.407398 428.905121 
L 745.058557 428.715749 
L 746.159329 428.526377 
L 748.177412 428.12058 
L 748.911261 427.931208 
L 749.278185 427.877101 
L 749.645109 427.579517 
L 750.012034 427.498357 
L 750.195496 427.336039 
L 750.929344 427.119614 
L 751.846655 427.065507 
L 752.030117 426.876135 
L 752.397041 426.849082 
L 752.580503 426.443285 
L 752.763965 426.389179 
L 752.947427 425.821063 
L 755.699359 425.361159 
L 755.882821 425.036522 
L 757.167056 424.76599 
L 757.717442 424.603671 
L 758.45129 424.468406 
L 759.185139 424.306087 
L 760.285912 424.089662 
L 761.203222 423.81913 
L 761.937071 423.494493 
L 762.120533 422.95343 
L 763.037843 422.385314 
L 763.221305 422.141836 
L 764.138616 421.519614 
L 764.50554 420.951498 
L 764.689002 420.924444 
L 765.055926 420.356329 
L 765.789775 419.652947 
L 766.340161 419.571787 
L 766.707085 419.328309 
L 766.890547 419.24715 
L 767.07401 418.976618 
L 767.99132 418.787246 
L 768.174782 418.543768 
L 770.009403 418.246184 
L 770.192865 418.110918 
L 771.293638 417.948599 
L 772.210949 417.651014 
L 772.944797 417.515749 
L 773.311721 417.055845 
L 773.678645 416.866473 
L 774.595956 416.352464 
L 774.779418 415.730242 
L 775.696729 415.486763 
L 777.898274 414.485797 
L 778.081736 414.215266 
L 778.632122 414.052947 
L 779.549433 413.701256 
L 779.916357 410.914783 
L 780.099819 410.022029 
L 780.283281 408.398841 
L 780.466743 408.209469 
L 781.01713 406.505121 
L 781.567516 405.666473 
L 781.93444 405.450048 
L 782.117902 405.287729 
L 782.301364 404.476135 
L 782.484827 404.232657 
L 782.851751 404.151498 
L 783.402137 403.502222 
L 783.585599 403.015266 
L 784.135986 402.44715 
L 784.319448 401.716715 
L 785.236758 400.445217 
L 786.154069 400.066473 
L 786.337531 399.363092 
L 786.887917 399.119614 
L 787.621766 398.416232 
L 787.805228 397.902222 
L 788.172152 397.739903 
L 788.539076 397.361159 
L 788.906 397.334106 
L 789.089462 397.063575 
L 789.456387 396.901256 
L 790.006773 396.468406 
L 790.373697 396.279034 
L 790.557159 395.81913 
L 791.841394 394.980483 
L 792.024856 394.899324 
L 792.39178 393.925411 
L 792.942167 393.736039 
L 793.492553 393.600773 
L 793.859477 393.113816 
L 794.226401 392.870338 
L 794.776788 392.11285 
L 796.061023 391.815266 
L 796.611409 391.084831 
L 797.345257 390.949565 
L 798.262568 390.381449 
L 798.44603 390.354396 
L 798.996416 389.975652 
L 799.36334 389.86744 
L 799.730265 389.840386 
L 799.913727 389.678068 
L 800.097189 389.245217 
L 800.831037 389.055845 
L 801.014499 388.812367 
L 801.197962 388.785314 
L 801.381424 388.298357 
L 802.115272 388.081932 
L 802.482196 388.000773 
L 802.84912 387.757295 
L 804.867204 387.053913 
L 805.050666 386.350531 
L 805.41759 386.107053 
L 805.967976 385.944734 
L 806.518363 385.674203 
L 807.252211 385.56599 
L 807.435673 384.835556 
L 807.98606 384.61913 
L 808.169522 384.456812 
L 808.90337 384.321546 
L 809.086832 384.213333 
L 809.453756 384.18628 
L 809.637218 383.969855 
L 810.371067 383.75343 
L 810.554529 383.455845 
L 810.921453 383.428792 
L 811.47184 383.158261 
L 811.838764 382.995942 
L 812.022226 382.698357 
L 813.306461 382.37372 
L 813.489923 382.211401 
L 814.040309 382.076135 
L 814.223771 381.832657 
L 814.407233 381.805604 
L 814.774157 381.589179 
L 815.141082 381.453913 
L 815.324544 381.3457 
L 816.425316 381.129275 
L 816.608779 380.831691 
L 817.159165 380.696425 
L 817.709551 380.615266 
L 818.076475 380.371787 
L 818.626862 380.236522 
L 818.993786 380.128309 
L 819.177248 379.938937 
L 819.544172 379.884831 
L 819.727634 379.424928 
L 819.911096 379.343768 
L 820.828407 378.261643 
L 821.011869 378.180483 
L 821.195331 377.964058 
L 821.562255 377.801739 
L 822.296104 377.314783 
L 822.663028 377.20657 
L 822.84649 376.908986 
L 823.396877 376.638454 
L 823.763801 376.449082 
L 824.314187 376.313816 
L 824.864573 375.908019 
L 825.231498 375.664541 
L 825.598422 375.39401 
L 826.33227 374.934106 
L 827.983429 374.338937 
L 828.717278 373.879034 
L 829.451126 373.662609 
L 830.001512 373.41913 
L 830.735361 373.202705 
L 831.102285 372.98628 
L 831.652671 372.851014 
L 832.203058 372.580483 
L 832.753444 372.445217 
L 833.30383 372.228792 
L 834.404603 371.985314 
L 834.954989 371.795942 
L 835.138451 371.525411 
L 837.523459 370.767923 
L 837.890383 370.605604 
L 838.257307 370.551498 
L 838.624231 370.199807 
L 838.807694 369.090628 
L 839.174618 368.820097 
L 839.541542 368.684831 
L 840.27539 367.954396 
L 840.458853 367.846184 
L 840.825777 367.142802 
L 841.192701 366.95343 
L 841.559625 366.791111 
L 841.926549 366.709952 
L 842.293474 366.493527 
L 842.476936 366.385314 
L 843.394246 366.195942 
L 843.76117 365.871304 
L 844.311557 365.49256 
L 844.678481 365.384348 
L 845.045405 365.05971 
L 846.146178 364.383382 
L 846.513102 364.356329 
L 846.696564 364.11285 
L 847.430413 363.950531 
L 847.613875 363.409469 
L 847.980799 363.138937 
L 848.898109 362.895459 
L 849.081572 362.8143 
L 849.265034 362.435556 
L 849.631958 362.327343 
L 849.81542 362.029758 
L 850.365806 361.678068 
L 850.732731 361.515749 
L 851.099655 361.434589 
L 851.466579 361.245217 
L 851.650041 361.218164 
L 852.016965 361.028792 
L 852.750814 360.677101 
L 853.117738 360.054879 
L 854.585435 359.432657 
L 854.768897 358.9457 
L 855.319283 358.783382 
L 855.86967 358.215266 
L 856.053132 358.161159 
L 856.420056 357.917681 
L 856.603518 357.890628 
L 856.970442 357.484831 
L 857.337366 357.295459 
L 858.071215 357.024928 
L 858.254677 356.754396 
L 858.621601 356.70029 
L 858.805063 356.510918 
L 858.988525 356.483865 
L 859.171988 355.942802 
L 859.722374 355.780483 
L 859.905836 355.699324 
L 860.27276 355.374686 
L 860.456222 355.266473 
L 861.006609 354.671304 
L 862.474305 353.886763 
L 863.208154 353.670338 
L 863.575078 353.264541 
L 863.75854 353.210435 
L 864.675851 352.534106 
L 865.226237 352.317681 
L 865.593161 352.155362 
L 865.776623 352.128309 
L 865.960085 351.587246 
L 866.510472 351.262609 
L 866.693934 350.748599 
L 867.060858 350.532174 
L 867.24432 350.315749 
L 867.427782 350.288696 
L 868.161631 349.72058 
L 868.895479 349.450048 
L 869.262403 349.20657 
L 870.363176 348.77372 
L 871.097024 347.989179 
L 871.463949 347.908019 
L 871.830873 347.637488 
L 872.014335 347.448116 
L 872.197797 347.421063 
L 872.381259 347.123478 
L 874.766267 345.987246 
L 875.133191 345.797874 
L 875.683577 345.608502 
L 876.233964 345.473237 
L 877.518198 344.661643 
L 877.885122 344.526377 
L 878.252047 344.418164 
L 878.618971 344.093527 
L 880.086668 343.552464 
L 880.453592 343.444251 
L 880.637054 342.470338 
L 881.18744 342.253913 
L 881.370903 342.010435 
L 881.554365 341.983382 
L 882.288213 340.982415 
L 882.471675 340.901256 
L 882.655137 340.576618 
L 883.022061 340.468406 
L 883.75591 339.602705 
L 884.122834 338.385314 
L 884.306296 338.00657 
L 884.67322 336.11285 
L 884.856683 335.301256 
L 885.773993 334.381449 
L 886.507842 331.97372 
L 886.691304 331.838454 
L 886.874766 331.486763 
L 887.058228 330.215266 
L 887.24169 329.836522 
L 887.425152 329.809469 
L 887.608614 329.2143 
L 888.159 328.916715 
L 888.525925 328.18628 
L 890.544008 327.266473 
L 891.094394 326.698357 
L 891.461318 326.157295 
L 891.828243 326.049082 
L 892.195167 325.913816 
L 892.562091 325.724444 
L 892.929015 325.562126 
L 894.763636 325.210435 
L 896.414795 324.128309 
L 896.78172 323.938937 
L 896.965182 323.695459 
L 897.69903 323.451981 
L 897.882492 323.370821 
L 898.065954 322.775652 
L 898.616341 322.423961 
L 899.166727 322.234589 
L 899.350189 322.045217 
L 899.900575 321.855845 
L 901.18481 321.287729 
L 901.735196 320.800773 
L 901.918659 320.422029 
L 902.285583 320.286763 
L 902.835969 319.39401 
L 903.019431 318.88 
L 903.386355 318.663575 
L 903.936742 318.338937 
L 904.120204 318.095459 
L 904.487128 317.040386 
L 904.67059 316.823961 
L 904.854052 316.255845 
L 905.037514 316.201739 
L 905.220976 315.741836 
L 905.587901 315.579517 
L 906.688673 314.74087 
L 906.872135 314.362126 
L 907.422522 314.172754 
L 908.15637 313.929275 
L 908.706757 313.766957 
L 908.890219 313.198841 
L 909.440605 312.982415 
L 911.091764 312.224928 
L 912.375999 311.332174 
L 912.559461 311.088696 
L 912.742923 310.601739 
L 913.843696 310.195942 
L 914.21062 309.790145 
L 914.577544 309.708986 
L 914.761006 309.384348 
L 915.12793 309.249082 
L 915.311392 308.978551 
L 917.329476 307.977585 
L 918.430248 306.895459 
L 918.61371 306.354396 
L 918.980635 305.894493 
L 919.164097 305.596908 
L 919.897945 302.431691 
L 920.264869 301.782415 
L 920.448331 301.457778 
L 920.631794 300.023961 
L 920.998718 296.236522 
L 921.18218 294.640386 
L 921.365642 294.288696 
L 921.732566 292.422029 
L 922.09949 289.770821 
L 922.466415 286.091594 
L 922.833339 285.631691 
L 923.200263 280.924444 
L 923.383725 279.68 
L 923.750649 274.51285 
L 924.117574 273.511884 
L 924.301036 270.80657 
L 924.484498 270.319614 
L 924.851422 267.397874 
L 925.218346 259.471304 
L 925.401808 259.065507 
L 925.58527 258.308019 
L 925.768733 255.873237 
L 925.952195 255.683865 
L 926.319119 251.598841 
L 926.686043 251.409469 
L 927.052967 250.651981 
L 927.236429 250.489662 
L 927.419892 250.110918 
L 927.603354 249.35343 
L 927.970278 249.191111 
L 928.520664 247.757295 
L 928.887588 245.701256 
L 929.07105 245.322512 
L 929.254513 245.268406 
L 929.437975 245.079034 
L 929.804899 244.565024 
L 929.988361 243.726377 
L 930.171823 243.537005 
L 930.355285 243.185314 
L 930.538747 243.131208 
L 930.905672 242.644251 
L 931.272596 242.508986 
L 931.456058 242.103188 
L 932.373368 241.291594 
L 932.923755 240.858744 
L 933.107217 240.831691 
L 933.657603 240.344734 
L 934.391452 239.938937 
L 935.1253 239.803671 
L 935.308762 239.641353 
L 935.675686 239.587246 
L 936.226073 239.235556 
L 937.69377 238.613333 
L 937.877232 238.234589 
L 938.794542 238.018164 
L 939.528391 237.504155 
L 940.262239 236.827826 
L 940.445701 236.665507 
L 941.17955 236.449082 
L 942.463784 235.637488 
L 942.830709 235.448116 
L 943.014171 234.961159 
L 944.298405 234.122512 
L 944.848792 233.770821 
L 946.683413 233.040386 
L 947.050337 232.255845 
L 947.233799 232.174686 
L 947.600723 231.741836 
L 948.334572 231.119614 
L 948.518034 231.038454 
L 949.06842 230.389179 
L 949.251882 229.848116 
L 949.435344 229.71285 
L 949.802269 229.658744 
L 950.169193 229.388213 
L 950.903041 229.063575 
L 951.63689 228.738937 
L 952.003814 228.306087 
L 952.187276 228.279034 
L 952.370738 225.14087 
L 952.737662 224.708019 
L 953.104587 224.410435 
L 953.288049 224.085797 
L 953.471511 224.058744 
L 953.838435 223.707053 
L 954.021897 223.193043 
L 955.12267 222.165024 
L 955.306132 221.894493 
L 955.673056 220.379517 
L 955.856518 219.946667 
L 956.03998 219.135072 
L 956.223442 218.891594 
L 956.406904 217.863575 
L 956.773829 217.024928 
L 956.957291 216.375652 
L 957.691139 215.618164 
L 958.241526 214.995942 
L 958.60845 214.80657 
L 958.975374 214.671304 
L 959.892685 213.751498 
L 960.076147 213.372754 
L 960.259609 213.318647 
L 960.626533 212.966957 
L 960.809995 212.804638 
L 961.176919 212.155362 
L 961.543843 211.776618 
L 961.727306 210.883865 
L 963.01154 210.072271 
L 964.112313 208.746667 
L 964.295775 208.557295 
L 964.662699 207.691594 
L 964.846161 207.529275 
L 965.396548 206.393043 
L 965.58001 206.311884 
L 965.763472 205.824928 
L 965.946934 205.662609 
L 966.49732 204.201739 
L 967.047707 203.417198 
L 967.598093 203.119614 
L 967.965017 202.497391 
L 968.698866 201.821063 
L 969.06579 200.76599 
L 969.799638 198.737005 
L 969.9831 197.330242 
L 970.166563 197.113816 
L 970.350025 195.923478 
L 970.716949 195.436522 
L 970.900411 195.003671 
L 971.267335 192.947633 
L 971.634259 192.190145 
L 971.817722 192.027826 
L 972.001184 185.237488 
L 972.184646 182.640386 
L 972.368108 167.138937 
L 972.918494 166.083865 
L 973.101956 165.921546 
L 973.46888 164.650048 
L 973.835805 163.784348 
L 974.936577 157.318647 
L 975.486964 156.020097 
L 975.670426 154.532174 
L 976.03735 153.964058 
L 976.404274 152.69256 
L 976.587736 151.123478 
L 976.771198 150.744734 
L 977.138123 149.689662 
L 977.688509 148.851014 
L 977.871971 148.769855 
L 978.789282 145.496425 
L 979.339668 144.062609 
L 979.706592 142.195942 
L 979.890054 142.141836 
L 980.073516 141.952464 
L 980.256978 141.925411 
L 980.623903 141.546667 
L 980.807365 140.870338 
L 981.541213 139.815266 
L 981.908137 138.760193 
L 982.0916 138.624928 
L 982.458524 137.759227 
L 982.825448 136.190145 
L 983.00891 135.946667 
L 983.192372 135.89256 
L 983.559296 134.188213 
L 983.742759 133.836522 
L 984.293145 131.699324 
L 984.476607 131.401739 
L 985.760842 126.721546 
L 985.944304 126.613333 
L 986.678152 122.690628 
L 986.861614 122.582415 
L 987.045076 122.284831 
L 988.512773 117.983382 
L 988.879698 116.522512 
L 989.430084 115.413333 
L 989.98047 112.870338 
L 990.897781 109.975652 
L 991.448167 107.432657 
L 991.815091 105.241353 
L 992.182015 104.375652 
L 992.915864 101.832657 
L 993.46625 100.425894 
L 993.649712 98.66744 
L 993.833174 98.15343 
L 994.200099 96.178551 
L 994.567023 95.177585 
L 994.750485 94.907053 
L 995.300871 92.905121 
L 995.851258 90.253913 
L 996.218182 89.28 
L 996.218182 89.28 
" clip-path="url(#pddc0da28d8)" style="fill: none; stroke: #1f77b4; stroke-width: 1.5; stroke-linecap: square"/>
   </g>
   <g id="patch_3">
    <path d="M 144 512.64 
L 144 69.12 
" style="fill: none; stroke: #000000; stroke-width: 0.8; stroke-linejoin: miter; stroke-linecap: square"/>
   </g>
   <g id="patch_4">
    <path d="M 1036.8 512.64 
L 1036.8 69.12 
" style="fill: none; stroke: #000000; stroke-width: 0.8; stroke-linejoin: miter; stroke-linecap: square"/>
   </g>
   <g id="patch_5">
    <path d="M 144 512.64 
L 1036.8 512.64 
" style="fill: none; stroke: #000000; stroke-width: 0.8; stroke-linejoin: miter; stroke-linecap: square"/>
   </g>
   <g id="patch_6">
    <path d="M 144 69.12 
L 1036.8 69.12 
" style="fill: none; stroke: #000000; stroke-width: 0.8; stroke-linejoin: miter; stroke-linecap: square"/>
   </g>
   <g id="text_16">
    <!-- Number of AEDs in the OpenStreetMap database in Poland from first edition, day by day. As at: 2026-03-23 -->
    <g transform="translate(144 63.12) scale(0.14 -0.14)">
     <defs>
      <path id="DejaVuSans-4e" d="M 628 4666 
L 1478 4666 
L 3547 763 
L 3547 4666 
L 4159 4666 
L 4159 0 
L 3309 0 
L 1241 3903 
L 1241 0 
L 628 0 
L 628 4666 
z
" transform="scale(0.015625)"/>
      <path id="DejaVuSans-75" d="M 544 1381 
L 544 3500 
L 1119 3500 
L 1119 1403 
Q 1119 906 1312 657 
Q 1506 409 1894 409 
Q 2359 409 2629 706 
Q 2900 1003 2900 1516 
L 2900 3500 
L 3475 3500 
L 3475 0 
L 2900 0 
L 2900 538 
Q 2691 219 2414 64 
Q 2138 -91 1772 -91 
Q 1169 -91 856 284 
Q 544 659 544 1381 
z
M 1991 3584 
L 1991 3584 
z
" transform="scale(0.015625)"/>
      <path id="DejaVuSans-6d" d="M 3328 2828 
Q 3544 3216 3844 3400 
Q 4144 3584 4550 3584 
Q 5097 3584 5394 3201 
Q 5691 2819 5691 2113 
L 5691 0 
L 5113 0 
L 5113 2094 
Q 5113 2597 4934 2840 
Q 4756 3084 4391 3084 
Q 3944 3084 3684 2787 
Q 3425 2491 3425 1978 
L 3425 0 
L 2847 0 
L 2847 2094 
Q 2847 2600 2669 2842 
Q 2491 3084 2119 3084 
Q 1678 3084 1418 2786 
Q 1159 2488 1159 1978 
L 1159 0 
L 581 0 
L 581 3500 
L 1159 3500 
L 1159 2956 
Q 1356 3278 1631 3431 
Q 1906 3584 2284 3584 
Q 2666 3584 2933 3390 
Q 3200 3197 3328 2828 
z
" transform="scale(0.015625)"/>
      <path id="DejaVuSans-62" d="M 3116 1747 
Q 3116 2381 2855 2742 
Q 2594 3103 2138 3103 
Q 1681 3103 1420 2742 
Q 1159 2381 1159 1747 
Q 1159 1113 1420 752 
Q 1681 391 2138 391 
Q 2594 391 2855 752 
Q 3116 1113 3116 1747 
z
M 1159 2969 
Q 1341 3281 1617 3432 
Q 1894 3584 2278 3584 
Q 2916 3584 3314 3078 
Q 3713 2572 3713 1747 
Q 3713 922 3314 415 
Q 2916 -91 2278 -91 
Q 1894 -91 1617 61 
Q 1341 213 1159 525 
L 1159 0 
L 581 0 
L 581 4863 
L 1159 4863 
L 1159 2969 
z
" transform="scale(0.015625)"/>
      <path id="DejaVuSans-65" d="M 3597 1894 
L 3597 1613 
L 953 1613 
Q 991 1019 1311 708 
Q 1631 397 2203 397 
Q 2534 397 2845 478 
Q 3156 559 3463 722 
L 3463 178 
Q 3153 47 2828 -22 
Q 2503 -91 2169 -91 
Q 1331 -91 842 396 
Q 353 884 353 1716 
Q 353 2575 817 3079 
Q 1281 3584 2069 3584 
Q 2775 3584 3186 3129 
Q 3597 2675 3597 1894 
z
M 3022 2063 
Q 3016 2534 2758 2815 
Q 2500 3097 2075 3097 
Q 1594 3097 1305 2825 
Q 1016 2553 972 2059 
L 3022 2063 
z
" transform="scale(0.015625)"/>
      <path id="DejaVuSans-72" d="M 2631 2963 
Q 2534 3019 2420 3045 
Q 2306 3072 2169 3072 
Q 1681 3072 1420 2755 
Q 1159 2438 1159 1844 
L 1159 0 
L 581 0 
L 581 3500 
L 1159 3500 
L 1159 2956 
Q 1341 3275 1631 3429 
Q 1922 3584 2338 3584 
Q 2397 3584 2469 3576 
Q 2541 3569 2628 3553 
L 2631 2963 
z
" transform="scale(0.015625)"/>
      <path id="DejaVuSans-20" transform="scale(0.015625)"/>
      <path id="DejaVuSans-6f" d="M 1959 3097 
Q 1497 3097 1228 2736 
Q 959 2375 959 1747 
Q 959 1119 1226 758 
Q 1494 397 1959 397 
Q 2419 397 2687 759 
Q 2956 1122 2956 1747 
Q 2956 2369 2687 2733 
Q 2419 3097 1959 3097 
z
M 1959 3584 
Q 2709 3584 3137 3096 
Q 3566 2609 3566 1747 
Q 3566 888 3137 398 
Q 2709 -91 1959 -91 
Q 1206 -91 779 398 
Q 353 888 353 1747 
Q 353 2609 779 3096 
Q 1206 3584 1959 3584 
z
" transform="scale(0.015625)"/>
      <path id="DejaVuSans-66" d="M 2375 4863 
L 2375 4384 
L 1825 4384 
Q 1516 4384 1395 4259 
Q 1275 4134 1275 3809 
L 1275 3500 
L 2222 3500 
L 2222 3053 
L 1275 3053 
L 1275 0 
L 697 0 
L 697 3053 
L 147 3053 
L 147 3500 
L 697 3500 
L 697 3744 
Q 697 4328 969 4595 
Q 1241 4863 1831 4863 
L 2375 4863 
z
" transform="scale(0.015625)"/>
      <path id="DejaVuSans-41" d="M 2188 4044 
L 1331 1722 
L 3047 1722 
L 2188 4044 
z
M 1831 4666 
L 2547 4666 
L 4325 0 
L 3669 0 
L 3244 1197 
L 1141 1197 
L 716 0 
L 50 0 
L 1831 4666 
z
" transform="scale(0.015625)"/>
      <path id="DejaVuSans-45" d="M 628 4666 
L 3578 4666 
L 3578 4134 
L 1259 4134 
L 1259 2753 
L 3481 2753 
L 3481 2222 
L 1259 2222 
L 1259 531 
L 3634 531 
L 3634 0 
L 628 0 
L 628 4666 
z
" transform="scale(0.015625)"/>
      <path id="DejaVuSans-44" d="M 1259 4147 
L 1259 519 
L 2022 519 
Q 2988 519 3436 956 
Q 3884 1394 3884 2338 
Q 3884 3275 3436 3711 
Q 2988 4147 2022 4147 
L 1259 4147 
z
M 628 4666 
L 1925 4666 
Q 3281 4666 3915 4102 
Q 4550 3538 4550 2338 
Q 4550 1131 3912 565 
Q 3275 0 1925 0 
L 628 0 
L 628 4666 
z
" transform="scale(0.015625)"/>
      <path id="DejaVuSans-73" d="M 2834 3397 
L 2834 2853 
Q 2591 2978 2328 3040 
Q 2066 3103 1784 3103 
Q 1356 3103 1142 2972 
Q 928 2841 928 2578 
Q 928 2378 1081 2264 
Q 1234 2150 1697 2047 
L 1894 2003 
Q 2506 1872 2764 1633 
Q 3022 1394 3022 966 
Q 3022 478 2636 193 
Q 2250 -91 1575 -91 
Q 1294 -91 989 -36 
Q 684 19 347 128 
L 347 722 
Q 666 556 975 473 
Q 1284 391 1588 391 
Q 1994 391 2212 530 
Q 2431 669 2431 922 
Q 2431 1156 2273 1281 
Q 2116 1406 1581 1522 
L 1381 1569 
Q 847 1681 609 1914 
Q 372 2147 372 2553 
Q 372 3047 722 3315 
Q 1072 3584 1716 3584 
Q 2034 3584 2315 3537 
Q 2597 3491 2834 3397 
z
" transform="scale(0.015625)"/>
      <path id="DejaVuSans-69" d="M 603 3500 
L 1178 3500 
L 1178 0 
L 603 0 
L 603 3500 
z
M 603 4863 
L 1178 4863 
L 1178 4134 
L 603 4134 
L 603 4863 
z
" transform="scale(0.015625)"/>
      <path id="DejaVuSans-6e" d="M 3513 2113 
L 3513 0 
L 2938 0 
L 2938 2094 
Q 2938 2591 2744 2837 
Q 2550 3084 2163 3084 
Q 1697 3084 1428 2787 
Q 1159 2491 1159 1978 
L 1159 0 
L 581 0 
L 581 3500 
L 1159 3500 
L 1159 2956 
Q 1366 3272 1645 3428 
Q 1925 3584 2291 3584 
Q 2894 3584 3203 3211 
Q 3513 2838 3513 2113 
z
" transform="scale(0.015625)"/>
      <path id="DejaVuSans-74" d="M 1172 4494 
L 1172 3500 
L 2356 3500 
L 2356 3053 
L 1172 3053 
L 1172 1153 
Q 1172 725 1289 603 
Q 1406 481 1766 481 
L 2356 481 
L 2356 0 
L 1766 0 
Q 1100 0 847 248 
Q 594 497 594 1153 
L 594 3053 
L 172 3053 
L 172 3500 
L 594 3500 
L 594 4494 
L 1172 4494 
z
" transform="scale(0.015625)"/>
      <path id="DejaVuSans-68" d="M 3513 2113 
L 3513 0 
L 2938 0 
L 2938 2094 
Q 2938 2591 2744 2837 
Q 2550 3084 2163 3084 
Q 1697 3084 1428 2787 
Q 1159 2491 1159 1978 
L 1159 0 
L 581 0 
L 581 4863 
L 1159 4863 
L 1159 2956 
Q 1366 3272 1645 3428 
Q 1925 3584 2291 3584 
Q 2894 3584 3203 3211 
Q 3513 2838 3513 2113 
z
" transform="scale(0.015625)"/>
      <path id="DejaVuSans-4f" d="M 2522 4238 
Q 1834 4238 1429 3725 
Q 1025 3213 1025 2328 
Q 1025 1447 1429 934 
Q 1834 422 2522 422 
Q 3209 422 3611 934 
Q 4013 1447 4013 2328 
Q 4013 3213 3611 3725 
Q 3209 4238 2522 4238 
z
M 2522 4750 
Q 3503 4750 4090 4092 
Q 4678 3434 4678 2328 
Q 4678 1225 4090 567 
Q 3503 -91 2522 -91 
Q 1538 -91 948 565 
Q 359 1222 359 2328 
Q 359 3434 948 4092 
Q 1538 4750 2522 4750 
z
" transform="scale(0.015625)"/>
      <path id="DejaVuSans-70" d="M 1159 525 
L 1159 -1331 
L 581 -1331 
L 581 3500 
L 1159 3500 
L 1159 2969 
Q 1341 3281 1617 3432 
Q 1894 3584 2278 3584 
Q 2916 3584 3314 3078 
Q 3713 2572 3713 1747 
Q 3713 922 3314 415 
Q 2916 -91 2278 -91 
Q 1894 -91 1617 61 
Q 1341 213 1159 525 
z
M 3116 1747 
Q 3116 2381 2855 2742 
Q 2594 3103 2138 3103 
Q 1681 3103 1420 2742 
Q 1159 2381 1159 1747 
Q 1159 1113 1420 752 
Q 1681 391 2138 391 
Q 2594 391 2855 752 
Q 3116 1113 3116 1747 
z
" transform="scale(0.015625)"/>
      <path id="DejaVuSans-53" d="M 3425 4513 
L 3425 3897 
Q 3066 4069 2747 4153 
Q 2428 4238 2131 4238 
Q 1616 4238 1336 4038 
Q 1056 3838 1056 3469 
Q 1056 3159 1242 3001 
Q 1428 2844 1947 2747 
L 2328 2669 
Q 3034 2534 3370 2195 
Q 3706 1856 3706 1288 
Q 3706 609 3251 259 
Q 2797 -91 1919 -91 
Q 1588 -91 1214 -16 
Q 841 59 441 206 
L 441 856 
Q 825 641 1194 531 
Q 1563 422 1919 422 
Q 2459 422 2753 634 
Q 3047 847 3047 1241 
Q 3047 1584 2836 1778 
Q 2625 1972 2144 2069 
L 1759 2144 
Q 1053 2284 737 2584 
Q 422 2884 422 3419 
Q 422 4038 858 4394 
Q 1294 4750 2059 4750 
Q 2388 4750 2728 4690 
Q 3069 4631 3425 4513 
z
" transform="scale(0.015625)"/>
      <path id="DejaVuSans-4d" d="M 628 4666 
L 1569 4666 
L 2759 1491 
L 3956 4666 
L 4897 4666 
L 4897 0 
L 4281 0 
L 4281 4097 
L 3078 897 
L 2444 897 
L 1241 4097 
L 1241 0 
L 628 0 
L 628 4666 
z
" transform="scale(0.015625)"/>
      <path id="DejaVuSans-61" d="M 2194 1759 
Q 1497 1759 1228 1600 
Q 959 1441 959 1056 
Q 959 750 1161 570 
Q 1363 391 1709 391 
Q 2188 391 2477 730 
Q 2766 1069 2766 1631 
L 2766 1759 
L 2194 1759 
z
M 3341 1997 
L 3341 0 
L 2766 0 
L 2766 531 
Q 2569 213 2275 61 
Q 1981 -91 1556 -91 
Q 1019 -91 701 211 
Q 384 513 384 1019 
Q 384 1609 779 1909 
Q 1175 2209 1959 2209 
L 2766 2209 
L 2766 2266 
Q 2766 2663 2505 2880 
Q 2244 3097 1772 3097 
Q 1472 3097 1187 3025 
Q 903 2953 641 2809 
L 641 3341 
Q 956 3463 1253 3523 
Q 1550 3584 1831 3584 
Q 2591 3584 2966 3190 
Q 3341 2797 3341 1997 
z
" transform="scale(0.015625)"/>
      <path id="DejaVuSans-64" d="M 2906 2969 
L 2906 4863 
L 3481 4863 
L 3481 0 
L 2906 0 
L 2906 525 
Q 2725 213 2448 61 
Q 2172 -91 1784 -91 
Q 1150 -91 751 415 
Q 353 922 353 1747 
Q 353 2572 751 3078 
Q 1150 3584 1784 3584 
Q 2172 3584 2448 3432 
Q 2725 3281 2906 2969 
z
M 947 1747 
Q 947 1113 1208 752 
Q 1469 391 1925 391 
Q 2381 391 2643 752 
Q 2906 1113 2906 1747 
Q 2906 2381 2643 2742 
Q 2381 3103 1925 3103 
Q 1469 3103 1208 2742 
Q 947 2381 947 1747 
z
" transform="scale(0.015625)"/>
      <path id="DejaVuSans-50" d="M 1259 4147 
L 1259 2394 
L 2053 2394 
Q 2494 2394 2734 2622 
Q 2975 2850 2975 3272 
Q 2975 3691 2734 3919 
Q 2494 4147 2053 4147 
L 1259 4147 
z
M 628 4666 
L 2053 4666 
Q 2838 4666 3239 4311 
Q 3641 3956 3641 3272 
Q 3641 2581 3239 2228 
Q 2838 1875 2053 1875 
L 1259 1875 
L 1259 0 
L 628 0 
L 628 4666 
z
" transform="scale(0.015625)"/>
      <path id="DejaVuSans-6c" d="M 603 4863 
L 1178 4863 
L 1178 0 
L 603 0 
L 603 4863 
z
" transform="scale(0.015625)"/>
      <path id="DejaVuSans-2c" d="M 750 794 
L 1409 794 
L 1409 256 
L 897 -744 
L 494 -744 
L 750 256 
L 750 794 
z
" transform="scale(0.015625)"/>
      <path id="DejaVuSans-79" d="M 2059 -325 
Q 1816 -950 1584 -1140 
Q 1353 -1331 966 -1331 
L 506 -1331 
L 506 -850 
L 844 -850 
Q 1081 -850 1212 -737 
Q 1344 -625 1503 -206 
L 1606 56 
L 191 3500 
L 800 3500 
L 1894 763 
L 2988 3500 
L 3597 3500 
L 2059 -325 
z
" transform="scale(0.015625)"/>
      <path id="DejaVuSans-2e" d="M 684 794 
L 1344 794 
L 1344 0 
L 684 0 
L 684 794 
z
" transform="scale(0.015625)"/>
      <path id="DejaVuSans-3a" d="M 750 794 
L 1409 794 
L 1409 0 
L 750 0 
L 750 794 
z
M 750 3309 
L 1409 3309 
L 1409 2516 
L 750 2516 
L 750 3309 
z
" transform="scale(0.015625)"/>
      <path id="DejaVuSans-2d" d="M 313 2009 
L 1997 2009 
L 1997 1497 
L 313 1497 
L 313 2009 
z
" transform="scale(0.015625)"/>
      <path id="DejaVuSans-33" d="M 2597 2516 
Q 3050 2419 3304 2112 
Q 3559 1806 3559 1356 
Q 3559 666 3084 287 
Q 2609 -91 1734 -91 
Q 1441 -91 1130 -33 
Q 819 25 488 141 
L 488 750 
Q 750 597 1062 519 
Q 1375 441 1716 441 
Q 2309 441 2620 675 
Q 2931 909 2931 1356 
Q 2931 1769 2642 2001 
Q 2353 2234 1838 2234 
L 1294 2234 
L 1294 2753 
L 1863 2753 
Q 2328 2753 2575 2939 
Q 2822 3125 2822 3475 
Q 2822 3834 2567 4026 
Q 2313 4219 1838 4219 
Q 1578 4219 1281 4162 
Q 984 4106 628 3988 
L 628 4550 
Q 988 4650 1302 4700 
Q 1616 4750 1894 4750 
Q 2613 4750 3031 4423 
Q 3450 4097 3450 3541 
Q 3450 3153 3228 2886 
Q 3006 2619 2597 2516 
z
" transform="scale(0.015625)"/>
     </defs>
     <use xlink:href="#DejaVuSans-4e"/>
     <use xlink:href="#DejaVuSans-75" x="74.804688"/>
     <use xlink:href="#DejaVuSans-6d" x="138.183594"/>
     <use xlink:href="#DejaVuSans-62" x="235.595703"/>
     <use xlink:href="#DejaVuSans-65" x="299.072266"/>
     <use xlink:href="#DejaVuSans-72" x="360.595703"/>
     <use xlink:href="#DejaVuSans-20" x="401.708984"/>
     <use xlink:href="#DejaVuSans-6f" x="433.496094"/>
     <use xlink:href="#DejaVuSans-66" x="494.677734"/>
     <use xlink:href="#DejaVuSans-20" x="529.882812"/>
     <use xlink:href="#DejaVuSans-41" x="561.669922"/>
     <use xlink:href="#DejaVuSans-45" x="630.078125"/>
     <use xlink:href="#DejaVuSans-44" x="693.261719"/>
     <use xlink:href="#DejaVuSans-73" x="770.263672"/>
     <use xlink:href="#DejaVuSans-20" x="822.363281"/>
     <use xlink:href="#DejaVuSans-69" x="854.150391"/>
     <use xlink:href="#DejaVuSans-6e" x="881.933594"/>
     <use xlink:href="#DejaVuSans-20" x="945.3125"/>
     <use xlink:href="#DejaVuSans-74" x="977.099609"/>
     <use xlink:href="#DejaVuSans-68" x="1016.308594"/>
     <use xlink:href="#DejaVuSans-65" x="1079.6875"/>
     <use xlink:href="#DejaVuSans-20" x="1141.210938"/>
     <use xlink:href="#DejaVuSans-4f" x="1172.998047"/>
     <use xlink:href="#DejaVuSans-70" x="1251.708984"/>
     <use xlink:href="#DejaVuSans-65" x="1315.185547"/>
     <use xlink:href="#DejaVuSans-6e" x="1376.708984"/>
     <use xlink:href="#DejaVuSans-53" x="1440.087891"/>
     <use xlink:href="#DejaVuSans-74" x="1503.564453"/>
     <use xlink:href="#DejaVuSans-72" x="1542.773438"/>
     <use xlink:href="#DejaVuSans-65" x="1581.636719"/>
     <use xlink:href="#DejaVuSans-65" x="1643.160156"/>
     <use xlink:href="#DejaVuSans-74" x="1704.683594"/>
     <use xlink:href="#DejaVuSans-4d" x="1743.892578"/>
     <use xlink:href="#DejaVuSans-61" x="1830.171875"/>
     <use xlink:href="#DejaVuSans-70" x="1891.451172"/>
     <use xlink:href="#DejaVuSans-20" x="1954.927734"/>
     <use xlink:href="#DejaVuSans-64" x="1986.714844"/>
     <use xlink:href="#DejaVuSans-61" x="2050.191406"/>
     <use xlink:href="#DejaVuSans-74" x="2111.470703"/>
     <use xlink:href="#DejaVuSans-61" x="2150.679688"/>
     <use xlink:href="#DejaVuSans-62" x="2211.958984"/>
     <use xlink:href="#DejaVuSans-61" x="2275.435547"/>
     <use xlink:href="#DejaVuSans-73" x="2336.714844"/>
     <use xlink:href="#DejaVuSans-65" x="2388.814453"/>
     <use xlink:href="#DejaVuSans-20" x="2450.337891"/>
     <use xlink:href="#DejaVuSans-69" x="2482.125"/>
     <use xlink:href="#DejaVuSans-6e" x="2509.908203"/>
     <use xlink:href="#DejaVuSans-20" x="2573.287109"/>
     <use xlink:href="#DejaVuSans-50" x="2605.074219"/>
     <use xlink:href="#DejaVuSans-6f" x="2661.751953"/>
     <use xlink:href="#DejaVuSans-6c" x="2722.933594"/>
     <use xlink:href="#DejaVuSans-61" x="2750.716797"/>
     <use xlink:href="#DejaVuSans-6e" x="2811.996094"/>
     <use xlink:href="#DejaVuSans-64" x="2875.375"/>
     <use xlink:href="#DejaVuSans-20" x="2938.851562"/>
     <use xlink:href="#DejaVuSans-66" x="2970.638672"/>
     <use xlink:href="#DejaVuSans-72" x="3005.84375"/>
     <use xlink:href="#DejaVuSans-6f" x="3044.707031"/>
     <use xlink:href="#DejaVuSans-6d" x="3105.888672"/>
     <use xlink:href="#DejaVuSans-20" x="3203.300781"/>
     <use xlink:href="#DejaVuSans-66" x="3235.087891"/>
     <use xlink:href="#DejaVuSans-69" x="3270.292969"/>
     <use xlink:href="#DejaVuSans-72" x="3298.076172"/>
     <use xlink:href="#DejaVuSans-73" x="3339.189453"/>
     <use xlink:href="#DejaVuSans-74" x="3391.289062"/>
     <use xlink:href="#DejaVuSans-20" x="3430.498047"/>
     <use xlink:href="#DejaVuSans-65" x="3462.285156"/>
     <use xlink:href="#DejaVuSans-64" x="3523.808594"/>
     <use xlink:href="#DejaVuSans-69" x="3587.285156"/>
     <use xlink:href="#DejaVuSans-74" x="3615.068359"/>
     <use xlink:href="#DejaVuSans-69" x="3654.277344"/>
     <use xlink:href="#DejaVuSans-6f" x="3682.060547"/>
     <use xlink:href="#DejaVuSans-6e" x="3743.242188"/>
     <use xlink:href="#DejaVuSans-2c" x="3806.621094"/>
     <use xlink:href="#DejaVuSans-20" x="3838.408203"/>
     <use xlink:href="#DejaVuSans-64" x="3870.195312"/>
     <use xlink:href="#DejaVuSans-61" x="3933.671875"/>
     <use xlink:href="#DejaVuSans-79" x="3994.951172"/>
     <use xlink:href="#DejaVuSans-20" x="4054.130859"/>
     <use xlink:href="#DejaVuSans-62" x="4085.917969"/>
     <use xlink:href="#DejaVuSans-79" x="4149.394531"/>
     <use xlink:href="#DejaVuSans-20" x="4208.574219"/>
     <use xlink:href="#DejaVuSans-64" x="4240.361328"/>
     <use xlink:href="#DejaVuSans-61" x="4303.837891"/>
     <use xlink:href="#DejaVuSans-79" x="4365.117188"/>
     <use xlink:href="#DejaVuSans-2e" x="4410.046875"/>
     <use xlink:href="#DejaVuSans-20" x="4441.833984"/>
     <use xlink:href="#DejaVuSans-41" x="4473.621094"/>
     <use xlink:href="#DejaVuSans-73" x="4542.029297"/>
     <use xlink:href="#DejaVuSans-20" x="4594.128906"/>
     <use xlink:href="#DejaVuSans-61" x="4625.916016"/>
     <use xlink:href="#DejaVuSans-74" x="4687.195312"/>
     <use xlink:href="#DejaVuSans-3a" x="4726.404297"/>
     <use xlink:href="#DejaVuSans-20" x="4760.095703"/>
     <use xlink:href="#DejaVuSans-32" x="4791.882812"/>
     <use xlink:href="#DejaVuSans-30" x="4855.505859"/>
     <use xlink:href="#DejaVuSans-32" x="4919.128906"/>
     <use xlink:href="#DejaVuSans-36" x="4982.751953"/>
     <use xlink:href="#DejaVuSans-2d" x="5046.375"/>
     <use xlink:href="#DejaVuSans-30" x="5082.458984"/>
     <use xlink:href="#DejaVuSans-33" x="5146.082031"/>
     <use xlink:href="#DejaVuSans-2d" x="5209.705078"/>
     <use xlink:href="#DejaVuSans-32" x="5245.789062"/>
     <use xlink:href="#DejaVuSans-33" x="5309.412109"/>
    </g>
   </g>
  </g>
 </g>
 <defs>
  <clipPath id="pddc0da28d8">
   <rect x="144" y="69.12" width="892.8" height="443.52"/>
  </clipPath>
 </defs>
</svg>
