<?xml version="1.0" encoding="utf-8" standalone="no"?>
<!DOCTYPE svg PUBLIC "-//W3C//DTD SVG 1.1//EN"
  "http://www.w3.org/Graphics/SVG/1.1/DTD/svg11.dtd">
<svg xmlns:xlink="http://www.w3.org/1999/xlink" width="1152pt" height="576pt" viewBox="0 0 1152 576" xmlns="http://www.w3.org/2000/svg" version="1.1">
 <metadata>
  <rdf:RDF xmlns:dc="http://purl.org/dc/elements/1.1/" xmlns:cc="http://creativecommons.org/ns#" xmlns:rdf="http://www.w3.org/1999/02/22-rdf-syntax-ns#">
   <cc:Work>
    <dc:type rdf:resource="http://purl.org/dc/dcmitype/StillImage"/>
    <dc:date>1980-01-01T00:00:00+00:00</dc:date>
    <dc:format>image/svg+xml</dc:format>
    <dc:creator>
     <cc:Agent>
      <dc:title>Matplotlib v3.9.1, https://matplotlib.org/</dc:title>
     </cc:Agent>
    </dc:creator>
   </cc:Work>
  </rdf:RDF>
 </metadata>
 <defs>
  <style type="text/css">*{stroke-linejoin: round; stroke-linecap: butt}</style>
 </defs>
 <g id="figure_1">
  <g id="patch_1">
   <path d="M 0 576 
L 1152 576 
L 1152 0 
L 0 0 
z
" style="fill: #ffffff"/>
  </g>
  <g id="axes_1">
   <g id="patch_2">
    <path d="M 144 512.64 
L 1036.8 512.64 
L 1036.8 69.12 
L 144 69.12 
z
" style="fill: #ffffff"/>
   </g>
   <g id="matplotlib.axis_1">
    <g id="xtick_1">
     <g id="line2d_1">
      <defs>
       <path id="m8686080b7a" d="M 0 0 
L 0 3.5 
" style="stroke: #000000; stroke-width: 0.8"/>
      </defs>
      <g>
       <use xlink:href="#m8686080b7a" x="177.078824" y="512.64" style="stroke: #000000; stroke-width: 0.8"/>
      </g>
     </g>
     <g id="text_1">
      <!-- 2014 -->
      <g transform="translate(164.353824 527.238438) scale(0.1 -0.1)">
       <defs>
        <path id="DejaVuSans-32" d="M 1228 531 
L 3431 531 
L 3431 0 
L 469 0 
L 469 531 
Q 828 903 1448 1529 
Q 2069 2156 2228 2338 
Q 2531 2678 2651 2914 
Q 2772 3150 2772 3378 
Q 2772 3750 2511 3984 
Q 2250 4219 1831 4219 
Q 1534 4219 1204 4116 
Q 875 4013 500 3803 
L 500 4441 
Q 881 4594 1212 4672 
Q 1544 4750 1819 4750 
Q 2544 4750 2975 4387 
Q 3406 4025 3406 3419 
Q 3406 3131 3298 2873 
Q 3191 2616 2906 2266 
Q 2828 2175 2409 1742 
Q 1991 1309 1228 531 
z
" transform="scale(0.015625)"/>
        <path id="DejaVuSans-30" d="M 2034 4250 
Q 1547 4250 1301 3770 
Q 1056 3291 1056 2328 
Q 1056 1369 1301 889 
Q 1547 409 2034 409 
Q 2525 409 2770 889 
Q 3016 1369 3016 2328 
Q 3016 3291 2770 3770 
Q 2525 4250 2034 4250 
z
M 2034 4750 
Q 2819 4750 3233 4129 
Q 3647 3509 3647 2328 
Q 3647 1150 3233 529 
Q 2819 -91 2034 -91 
Q 1250 -91 836 529 
Q 422 1150 422 2328 
Q 422 3509 836 4129 
Q 1250 4750 2034 4750 
z
" transform="scale(0.015625)"/>
        <path id="DejaVuSans-31" d="M 794 531 
L 1825 531 
L 1825 4091 
L 703 3866 
L 703 4441 
L 1819 4666 
L 2450 4666 
L 2450 531 
L 3481 531 
L 3481 0 
L 794 0 
L 794 531 
z
" transform="scale(0.015625)"/>
        <path id="DejaVuSans-34" d="M 2419 4116 
L 825 1625 
L 2419 1625 
L 2419 4116 
z
M 2253 4666 
L 3047 4666 
L 3047 1625 
L 3713 1625 
L 3713 1100 
L 3047 1100 
L 3047 0 
L 2419 0 
L 2419 1100 
L 313 1100 
L 313 1709 
L 2253 4666 
z
" transform="scale(0.015625)"/>
       </defs>
       <use xlink:href="#DejaVuSans-32"/>
       <use xlink:href="#DejaVuSans-30" x="63.623047"/>
       <use xlink:href="#DejaVuSans-31" x="127.246094"/>
       <use xlink:href="#DejaVuSans-34" x="190.869141"/>
      </g>
     </g>
    </g>
    <g id="xtick_2">
     <g id="line2d_2">
      <g>
       <use xlink:href="#m8686080b7a" x="314.008463" y="512.64" style="stroke: #000000; stroke-width: 0.8"/>
      </g>
     </g>
     <g id="text_2">
      <!-- 2016 -->
      <g transform="translate(301.283463 527.238438) scale(0.1 -0.1)">
       <defs>
        <path id="DejaVuSans-36" d="M 2113 2584 
Q 1688 2584 1439 2293 
Q 1191 2003 1191 1497 
Q 1191 994 1439 701 
Q 1688 409 2113 409 
Q 2538 409 2786 701 
Q 3034 994 3034 1497 
Q 3034 2003 2786 2293 
Q 2538 2584 2113 2584 
z
M 3366 4563 
L 3366 3988 
Q 3128 4100 2886 4159 
Q 2644 4219 2406 4219 
Q 1781 4219 1451 3797 
Q 1122 3375 1075 2522 
Q 1259 2794 1537 2939 
Q 1816 3084 2150 3084 
Q 2853 3084 3261 2657 
Q 3669 2231 3669 1497 
Q 3669 778 3244 343 
Q 2819 -91 2113 -91 
Q 1303 -91 875 529 
Q 447 1150 447 2328 
Q 447 3434 972 4092 
Q 1497 4750 2381 4750 
Q 2619 4750 2861 4703 
Q 3103 4656 3366 4563 
z
" transform="scale(0.015625)"/>
       </defs>
       <use xlink:href="#DejaVuSans-32"/>
       <use xlink:href="#DejaVuSans-30" x="63.623047"/>
       <use xlink:href="#DejaVuSans-31" x="127.246094"/>
       <use xlink:href="#DejaVuSans-36" x="190.869141"/>
      </g>
     </g>
    </g>
    <g id="xtick_3">
     <g id="line2d_3">
      <g>
       <use xlink:href="#m8686080b7a" x="451.125676" y="512.64" style="stroke: #000000; stroke-width: 0.8"/>
      </g>
     </g>
     <g id="text_3">
      <!-- 2018 -->
      <g transform="translate(438.400676 527.238438) scale(0.1 -0.1)">
       <defs>
        <path id="DejaVuSans-38" d="M 2034 2216 
Q 1584 2216 1326 1975 
Q 1069 1734 1069 1313 
Q 1069 891 1326 650 
Q 1584 409 2034 409 
Q 2484 409 2743 651 
Q 3003 894 3003 1313 
Q 3003 1734 2745 1975 
Q 2488 2216 2034 2216 
z
M 1403 2484 
Q 997 2584 770 2862 
Q 544 3141 544 3541 
Q 544 4100 942 4425 
Q 1341 4750 2034 4750 
Q 2731 4750 3128 4425 
Q 3525 4100 3525 3541 
Q 3525 3141 3298 2862 
Q 3072 2584 2669 2484 
Q 3125 2378 3379 2068 
Q 3634 1759 3634 1313 
Q 3634 634 3220 271 
Q 2806 -91 2034 -91 
Q 1263 -91 848 271 
Q 434 634 434 1313 
Q 434 1759 690 2068 
Q 947 2378 1403 2484 
z
M 1172 3481 
Q 1172 3119 1398 2916 
Q 1625 2713 2034 2713 
Q 2441 2713 2670 2916 
Q 2900 3119 2900 3481 
Q 2900 3844 2670 4047 
Q 2441 4250 2034 4250 
Q 1625 4250 1398 4047 
Q 1172 3844 1172 3481 
z
" transform="scale(0.015625)"/>
       </defs>
       <use xlink:href="#DejaVuSans-32"/>
       <use xlink:href="#DejaVuSans-30" x="63.623047"/>
       <use xlink:href="#DejaVuSans-31" x="127.246094"/>
       <use xlink:href="#DejaVuSans-38" x="190.869141"/>
      </g>
     </g>
    </g>
    <g id="xtick_4">
     <g id="line2d_4">
      <g>
       <use xlink:href="#m8686080b7a" x="588.055314" y="512.64" style="stroke: #000000; stroke-width: 0.8"/>
      </g>
     </g>
     <g id="text_4">
      <!-- 2020 -->
      <g transform="translate(575.330314 527.238438) scale(0.1 -0.1)">
       <use xlink:href="#DejaVuSans-32"/>
       <use xlink:href="#DejaVuSans-30" x="63.623047"/>
       <use xlink:href="#DejaVuSans-32" x="127.246094"/>
       <use xlink:href="#DejaVuSans-30" x="190.869141"/>
      </g>
     </g>
    </g>
    <g id="xtick_5">
     <g id="line2d_5">
      <g>
       <use xlink:href="#m8686080b7a" x="725.172528" y="512.64" style="stroke: #000000; stroke-width: 0.8"/>
      </g>
     </g>
     <g id="text_5">
      <!-- 2022 -->
      <g transform="translate(712.447528 527.238438) scale(0.1 -0.1)">
       <use xlink:href="#DejaVuSans-32"/>
       <use xlink:href="#DejaVuSans-30" x="63.623047"/>
       <use xlink:href="#DejaVuSans-32" x="127.246094"/>
       <use xlink:href="#DejaVuSans-32" x="190.869141"/>
      </g>
     </g>
    </g>
    <g id="xtick_6">
     <g id="line2d_6">
      <g>
       <use xlink:href="#m8686080b7a" x="862.102166" y="512.64" style="stroke: #000000; stroke-width: 0.8"/>
      </g>
     </g>
     <g id="text_6">
      <!-- 2024 -->
      <g transform="translate(849.377166 527.238438) scale(0.1 -0.1)">
       <use xlink:href="#DejaVuSans-32"/>
       <use xlink:href="#DejaVuSans-30" x="63.623047"/>
       <use xlink:href="#DejaVuSans-32" x="127.246094"/>
       <use xlink:href="#DejaVuSans-34" x="190.869141"/>
      </g>
     </g>
    </g>
    <g id="xtick_7">
     <g id="line2d_7">
      <g>
       <use xlink:href="#m8686080b7a" x="999.219379" y="512.64" style="stroke: #000000; stroke-width: 0.8"/>
      </g>
     </g>
     <g id="text_7">
      <!-- 2026 -->
      <g transform="translate(986.494379 527.238438) scale(0.1 -0.1)">
       <use xlink:href="#DejaVuSans-32"/>
       <use xlink:href="#DejaVuSans-30" x="63.623047"/>
       <use xlink:href="#DejaVuSans-32" x="127.246094"/>
       <use xlink:href="#DejaVuSans-36" x="190.869141"/>
      </g>
     </g>
    </g>
   </g>
   <g id="matplotlib.axis_2">
    <g id="ytick_1">
     <g id="line2d_8">
      <defs>
       <path id="me89d380484" d="M 0 0 
L -3.5 0 
" style="stroke: #000000; stroke-width: 0.8"/>
      </defs>
      <g>
       <use xlink:href="#me89d380484" x="144" y="492.510725" style="stroke: #000000; stroke-width: 0.8"/>
      </g>
     </g>
     <g id="text_8">
      <!-- 0 -->
      <g transform="translate(130.6375 496.309943) scale(0.1 -0.1)">
       <use xlink:href="#DejaVuSans-30"/>
      </g>
     </g>
    </g>
    <g id="ytick_2">
     <g id="line2d_9">
      <g>
       <use xlink:href="#me89d380484" x="144" y="431.061361" style="stroke: #000000; stroke-width: 0.8"/>
      </g>
     </g>
     <g id="text_9">
      <!-- 2000 -->
      <g transform="translate(111.55 434.86058) scale(0.1 -0.1)">
       <use xlink:href="#DejaVuSans-32"/>
       <use xlink:href="#DejaVuSans-30" x="63.623047"/>
       <use xlink:href="#DejaVuSans-30" x="127.246094"/>
       <use xlink:href="#DejaVuSans-30" x="190.869141"/>
      </g>
     </g>
    </g>
    <g id="ytick_3">
     <g id="line2d_10">
      <g>
       <use xlink:href="#me89d380484" x="144" y="369.611997" style="stroke: #000000; stroke-width: 0.8"/>
      </g>
     </g>
     <g id="text_10">
      <!-- 4000 -->
      <g transform="translate(111.55 373.411216) scale(0.1 -0.1)">
       <use xlink:href="#DejaVuSans-34"/>
       <use xlink:href="#DejaVuSans-30" x="63.623047"/>
       <use xlink:href="#DejaVuSans-30" x="127.246094"/>
       <use xlink:href="#DejaVuSans-30" x="190.869141"/>
      </g>
     </g>
    </g>
    <g id="ytick_4">
     <g id="line2d_11">
      <g>
       <use xlink:href="#me89d380484" x="144" y="308.162634" style="stroke: #000000; stroke-width: 0.8"/>
      </g>
     </g>
     <g id="text_11">
      <!-- 6000 -->
      <g transform="translate(111.55 311.961852) scale(0.1 -0.1)">
       <use xlink:href="#DejaVuSans-36"/>
       <use xlink:href="#DejaVuSans-30" x="63.623047"/>
       <use xlink:href="#DejaVuSans-30" x="127.246094"/>
       <use xlink:href="#DejaVuSans-30" x="190.869141"/>
      </g>
     </g>
    </g>
    <g id="ytick_5">
     <g id="line2d_12">
      <g>
       <use xlink:href="#me89d380484" x="144" y="246.71327" style="stroke: #000000; stroke-width: 0.8"/>
      </g>
     </g>
     <g id="text_12">
      <!-- 8000 -->
      <g transform="translate(111.55 250.512489) scale(0.1 -0.1)">
       <use xlink:href="#DejaVuSans-38"/>
       <use xlink:href="#DejaVuSans-30" x="63.623047"/>
       <use xlink:href="#DejaVuSans-30" x="127.246094"/>
       <use xlink:href="#DejaVuSans-30" x="190.869141"/>
      </g>
     </g>
    </g>
    <g id="ytick_6">
     <g id="line2d_13">
      <g>
       <use xlink:href="#me89d380484" x="144" y="185.263906" style="stroke: #000000; stroke-width: 0.8"/>
      </g>
     </g>
     <g id="text_13">
      <!-- 10000 -->
      <g transform="translate(105.1875 189.063125) scale(0.1 -0.1)">
       <use xlink:href="#DejaVuSans-31"/>
       <use xlink:href="#DejaVuSans-30" x="63.623047"/>
       <use xlink:href="#DejaVuSans-30" x="127.246094"/>
       <use xlink:href="#DejaVuSans-30" x="190.869141"/>
       <use xlink:href="#DejaVuSans-30" x="254.492188"/>
      </g>
     </g>
    </g>
    <g id="ytick_7">
     <g id="line2d_14">
      <g>
       <use xlink:href="#me89d380484" x="144" y="123.814542" style="stroke: #000000; stroke-width: 0.8"/>
      </g>
     </g>
     <g id="text_14">
      <!-- 12000 -->
      <g transform="translate(105.1875 127.613761) scale(0.1 -0.1)">
       <use xlink:href="#DejaVuSans-31"/>
       <use xlink:href="#DejaVuSans-32" x="63.623047"/>
       <use xlink:href="#DejaVuSans-30" x="127.246094"/>
       <use xlink:href="#DejaVuSans-30" x="190.869141"/>
       <use xlink:href="#DejaVuSans-30" x="254.492188"/>
      </g>
     </g>
    </g>
   </g>
   <g id="line2d_15">
    <path d="M 184.581818 492.48 
L 186.269992 492.418551 
L 287.372834 492.264927 
L 440.809059 492.111304 
L 491.829418 491.926956 
L 505.147232 491.834782 
L 537.597681 491.650434 
L 540.786453 491.588984 
L 564.233309 491.466085 
L 594.245284 491.281737 
L 594.620434 491.03594 
L 598.559506 490.882317 
L 633.260853 490.728693 
L 658.208307 490.57507 
L 672.65157 490.359997 
L 688.595432 489.899127 
L 689.908456 489.806953 
L 700.787798 489.561155 
L 707.352917 489.161734 
L 717.106809 488.946662 
L 721.608606 487.809848 
L 721.79618 487.68695 
L 723.484354 487.594776 
L 724.234653 487.16463 
L 724.422228 486.427238 
L 724.797378 486.24289 
L 724.984953 486.212165 
L 725.172528 485.228975 
L 726.297977 484.79883 
L 726.673126 484.27651 
L 727.048276 484.122887 
L 727.235851 483.75419 
L 727.423426 482.924624 
L 727.611001 482.678826 
L 727.798576 482.248681 
L 727.98615 481.357665 
L 728.173725 479.667808 
L 728.73645 478.43882 
L 729.111599 472.877653 
L 729.299174 472.293884 
L 729.674324 468.760546 
L 729.861899 468.176777 
L 730.049474 466.640543 
L 730.237049 466.548369 
L 730.799773 464.551264 
L 730.987348 460.219084 
L 731.174923 459.850388 
L 731.550072 458.621401 
L 731.737647 458.529227 
L 731.925222 457.853284 
L 732.112797 454.780815 
L 732.300372 454.043423 
L 732.487947 454.012698 
L 732.675522 451.739072 
L 732.863096 451.46255 
L 733.238246 451.308926 
L 733.988545 449.096749 
L 734.363695 448.482256 
L 734.92642 446.792398 
L 735.301569 442.122246 
L 735.676719 439.940794 
L 736.239444 439.84862 
L 736.614593 439.633547 
L 737.364893 438.435285 
L 737.740042 438.373835 
L 738.115192 435.792962 
L 738.302767 435.762237 
L 738.677917 435.332092 
L 738.865492 434.226003 
L 739.240641 433.857307 
L 739.428216 433.703684 
L 739.615791 433.181364 
L 740.178515 432.997016 
L 740.553665 432.689769 
L 740.928815 431.552956 
L 741.11639 431.460782 
L 741.491539 430.999912 
L 742.241839 430.66194 
L 742.429414 429.555852 
L 742.804563 429.340779 
L 742.992138 427.282225 
L 743.367288 427.220776 
L 743.742438 426.606282 
L 743.930012 426.022513 
L 744.492737 425.899614 
L 744.680312 425.715266 
L 745.055461 425.131497 
L 745.243036 425.100773 
L 745.618186 424.639902 
L 745.993336 424.517004 
L 746.180911 423.103668 
L 747.30636 422.857871 
L 747.681509 422.612073 
L 748.431809 422.519899 
L 748.619384 422.366276 
L 751.245431 421.659608 
L 751.620581 421.413811 
L 752.558455 421.290912 
L 753.308755 420.922216 
L 755.184503 420.55352 
L 755.934803 418.156995 
L 756.872677 418.034096 
L 757.060252 417.972646 
L 758.56085 417.819023 
L 759.31115 417.542501 
L 760.436599 417.388878 
L 762.124773 416.774384 
L 762.499922 416.62076 
L 762.687497 416.559311 
L 762.875072 416.344238 
L 763.625371 416.098441 
L 764.563246 416.036992 
L 764.75082 415.821919 
L 765.12597 415.791194 
L 765.313545 415.299599 
L 765.50112 415.23815 
L 765.688695 414.592931 
L 768.502317 414.039887 
L 768.689892 413.671191 
L 770.002916 413.363944 
L 770.565641 413.179596 
L 771.31594 413.025973 
L 772.066239 412.841625 
L 773.004114 412.657277 
L 774.504712 412.073508 
L 774.879862 411.919884 
L 775.067437 411.305391 
L 776.005311 410.629448 
L 776.192886 410.352925 
L 777.13076 409.646258 
L 777.50591 409.001039 
L 777.693485 408.970315 
L 778.068635 408.263647 
L 778.818934 407.464805 
L 779.381659 407.372631 
L 779.569233 407.126834 
L 779.944383 406.97321 
L 780.131958 406.665964 
L 781.069832 406.450891 
L 781.257407 406.174369 
L 783.133155 405.836397 
L 783.32073 405.682774 
L 784.258605 405.559875 
L 785.571628 405.037555 
L 786.134353 404.945381 
L 786.509503 404.423062 
L 786.884652 404.207989 
L 787.822527 403.593495 
L 788.010101 402.886828 
L 788.760401 402.671755 
L 789.5107 402.364508 
L 791.198874 401.473492 
L 791.386449 401.166246 
L 791.949173 400.981897 
L 792.887048 400.551752 
L 793.262197 397.38711 
L 793.449772 396.373195 
L 793.637347 394.529714 
L 793.824922 394.314641 
L 794.387646 392.378987 
L 794.950371 391.426521 
L 795.137946 391.365072 
L 795.513095 390.996376 
L 795.70067 390.074635 
L 795.888245 389.736664 
L 796.263395 389.64449 
L 796.826119 388.907097 
L 797.013694 388.354053 
L 797.576419 387.708835 
L 797.763994 386.879268 
L 798.701868 385.373759 
L 799.452167 385.066512 
L 799.639742 384.943614 
L 799.827317 384.083322 
L 800.390041 383.8068 
L 801.140341 382.977234 
L 801.327916 382.393465 
L 801.51549 382.36274 
L 802.078215 381.778971 
L 802.453365 381.748247 
L 802.64094 381.441 
L 803.016089 381.256652 
L 803.578814 380.734332 
L 803.953963 380.519259 
L 804.141538 379.99694 
L 805.454562 379.044475 
L 805.642137 378.952301 
L 806.017287 377.815487 
L 806.580011 377.600415 
L 807.142736 377.446791 
L 807.517886 376.863022 
L 807.70546 376.770848 
L 808.83091 375.449687 
L 809.581209 375.296063 
L 809.768784 375.265339 
L 810.143933 374.527946 
L 810.519083 374.374323 
L 811.269383 374.097801 
L 812.019682 373.575481 
L 812.207257 373.544757 
L 812.769981 373.114611 
L 813.145131 372.991712 
L 813.520281 372.960988 
L 813.707856 372.776639 
L 813.89543 372.25432 
L 814.64573 372.039247 
L 814.833305 371.732 
L 815.020879 371.701276 
L 815.208454 371.148231 
L 815.958754 370.902434 
L 816.333903 370.81026 
L 816.709053 370.533738 
L 818.772376 369.734896 
L 818.959951 368.936054 
L 819.335101 368.659532 
L 819.897825 368.475184 
L 820.46055 368.167937 
L 821.210849 368.045038 
L 821.398424 367.184747 
L 823.086598 366.41663 
L 823.461748 366.355181 
L 823.649322 366.109384 
L 824.212047 365.925035 
L 824.399622 365.863586 
L 824.587197 365.525615 
L 824.962346 365.49489 
L 825.337496 365.279817 
L 825.900221 365.003295 
L 826.087795 364.634599 
L 826.838095 364.480975 
L 827.213245 364.265903 
L 827.400819 364.235178 
L 827.588394 364.05083 
L 828.151119 363.897206 
L 828.338694 363.620684 
L 828.526268 363.58996 
L 828.901418 363.344162 
L 829.276568 363.190539 
L 829.464143 363.036915 
L 830.589592 362.760393 
L 830.777167 362.422422 
L 831.339891 362.268798 
L 831.902616 362.176624 
L 832.277765 361.900102 
L 832.84049 361.746479 
L 833.21564 361.62358 
L 833.403214 361.408507 
L 833.778364 361.347058 
L 833.965939 360.824738 
L 834.153514 360.732564 
L 834.528664 360.333143 
L 834.716238 359.687925 
L 835.091388 359.472852 
L 835.278963 359.380678 
L 835.466538 359.134881 
L 835.841688 358.919808 
L 836.591987 358.366764 
L 836.967137 358.243865 
L 837.154711 357.905893 
L 837.529861 357.721545 
L 838.092586 357.383574 
L 838.65531 357.22995 
L 839.03046 356.83053 
L 840.718634 355.570818 
L 841.281358 355.417194 
L 841.844083 355.294296 
L 842.031657 355.232846 
L 843.157107 354.280381 
L 843.532256 354.126758 
L 845.22043 353.512264 
L 845.59558 353.266467 
L 846.158304 353.112843 
L 846.721029 352.805596 
L 847.283753 352.651973 
L 847.846478 352.406175 
L 848.784352 352.252552 
L 849.347076 351.883856 
L 849.534651 351.853131 
L 849.722226 351.545884 
L 851.973124 350.716318 
L 853.286148 349.978926 
L 853.473723 348.657764 
L 853.848873 348.350517 
L 854.224023 348.196894 
L 854.786747 347.459502 
L 855.161897 347.18298 
L 855.537046 346.353413 
L 855.912196 346.13834 
L 856.287346 345.953992 
L 856.662496 345.861818 
L 857.037645 345.616021 
L 857.22522 345.493122 
L 858.163094 345.278049 
L 858.538244 344.909353 
L 859.100969 344.479207 
L 859.476118 344.356309 
L 859.851268 343.987613 
L 860.976717 343.219496 
L 861.351867 343.188771 
L 861.539442 342.912249 
L 862.289741 342.697176 
L 862.477316 342.082682 
L 862.852465 341.775435 
L 863.602765 341.560363 
L 863.977915 341.406739 
L 864.165489 340.976594 
L 864.540639 340.853695 
L 864.728214 340.454274 
L 865.290939 340.054853 
L 865.666088 339.870505 
L 866.041238 339.778331 
L 866.416388 339.563258 
L 866.603962 339.532534 
L 866.979112 339.317461 
L 867.729412 338.91804 
L 868.104561 338.180648 
L 869.60516 337.443255 
L 869.792735 336.890211 
L 870.355459 336.675138 
L 870.918184 336.02992 
L 871.105759 335.968471 
L 871.480908 335.691948 
L 871.668483 335.661224 
L 872.043633 335.200354 
L 872.418783 334.985281 
L 873.169082 334.678034 
L 873.356657 334.370787 
L 873.731807 334.309338 
L 873.919381 334.094265 
L 874.106956 334.06354 
L 874.294531 333.449047 
L 874.857256 333.264699 
L 875.044831 333.172525 
L 875.232405 332.865278 
L 875.607555 332.650205 
L 876.17028 331.974262 
L 877.670878 331.083246 
L 878.233603 330.929623 
L 878.421178 330.837449 
L 878.796327 330.376579 
L 878.983902 330.315129 
L 879.921777 329.516287 
L 880.484501 329.239765 
L 880.859651 329.055417 
L 881.047226 329.024693 
L 881.234801 328.379474 
L 881.797525 328.010778 
L 881.9851 327.427009 
L 882.36025 327.150487 
L 882.547824 326.904689 
L 882.735399 326.873965 
L 883.485699 326.198022 
L 884.235998 325.890775 
L 884.611148 325.614253 
L 885.736597 325.122658 
L 886.486896 324.139468 
L 887.237196 323.709323 
L 887.42477 323.49425 
L 887.612345 323.463525 
L 887.79992 323.125554 
L 890.238393 321.835117 
L 890.613543 321.58932 
L 890.988693 321.52787 
L 891.363842 321.343522 
L 891.738992 321.189899 
L 892.676866 320.513956 
L 893.98989 319.745839 
L 894.552615 319.500041 
L 895.115339 319.254244 
L 895.678064 319.008446 
L 896.053213 318.885548 
L 896.240788 317.779459 
L 896.803513 317.533662 
L 896.991088 317.257139 
L 897.178663 317.226415 
L 897.741387 316.366124 
L 897.928962 316.058877 
L 898.116537 315.966703 
L 898.304112 315.598007 
L 898.679261 315.475108 
L 899.429561 314.461193 
L 899.80471 313.078583 
L 899.992285 312.648437 
L 900.367435 310.43626 
L 900.55501 309.51452 
L 901.305309 308.654228 
L 901.492884 308.46988 
L 902.243183 305.735384 
L 902.430758 305.58176 
L 902.618333 305.182339 
L 902.805908 303.738279 
L 902.993483 303.277409 
L 903.181058 303.246684 
L 903.368632 302.570741 
L 903.931357 302.202045 
L 904.306507 301.218855 
L 906.36983 300.174216 
L 906.932555 299.528998 
L 907.307704 298.88378 
L 907.682854 298.760881 
L 908.058004 298.607257 
L 908.433153 298.392185 
L 908.808303 298.207837 
L 909.746177 297.962039 
L 910.121327 297.777691 
L 910.684052 297.716242 
L 912.372225 296.45653 
L 912.747375 296.241457 
L 912.93495 295.964935 
L 913.685249 295.688413 
L 913.872824 295.596239 
L 914.060399 294.920296 
L 914.623123 294.49015 
L 914.998273 294.428701 
L 915.748572 293.906381 
L 916.686447 293.56841 
L 917.061596 293.199713 
L 917.436746 293.138264 
L 917.999471 292.093625 
L 918.37462 291.940002 
L 918.937345 290.895362 
L 919.12492 290.311593 
L 919.312494 290.250144 
L 919.687644 289.973622 
L 920.062794 289.6971 
L 920.250369 289.420578 
L 920.625518 288.222315 
L 920.813093 287.976518 
L 921.000668 287.331299 
L 921.188243 287.26985 
L 921.375818 286.74753 
L 921.750967 286.563182 
L 922.876417 285.610717 
L 923.063991 285.180572 
L 923.439141 285.088397 
L 924.189441 284.719701 
L 924.93974 284.473904 
L 925.127315 283.828686 
L 928.691237 281.401436 
L 928.878812 281.124914 
L 929.066387 280.51042 
L 930.191836 280.018825 
L 930.566985 279.557955 
L 930.942135 279.465781 
L 931.12971 279.097085 
L 931.50486 278.943461 
L 931.692434 278.636214 
L 933.568183 277.591575 
L 934.130907 277.09998 
L 934.693632 276.546936 
L 934.881207 276.17824 
L 935.068782 275.563746 
L 935.443931 275.010702 
L 935.631506 274.67273 
L 936.381806 271.016493 
L 936.756955 270.248376 
L 936.94453 269.87968 
L 937.132105 268.251272 
L 937.31968 265.08663 
L 938.632704 256.36082 
L 939.007853 252.182263 
L 939.383003 251.598494 
L 939.758153 246.19095 
L 939.945728 244.777615 
L 940.320877 238.817027 
L 940.696027 237.680213 
L 940.883602 234.607745 
L 941.071177 234.054701 
L 941.446326 230.705711 
L 941.821476 221.672654 
L 942.009051 221.181059 
L 942.196626 220.320768 
L 942.384201 217.555547 
L 942.571776 217.340474 
L 942.946925 212.701047 
L 943.322075 212.485974 
L 943.697225 211.625683 
L 943.884799 211.41061 
L 944.072374 210.980465 
L 944.259949 210.089449 
L 944.635099 209.905101 
L 945.197823 208.245968 
L 945.572973 205.910892 
L 945.760548 205.480747 
L 945.948123 205.419297 
L 946.135698 205.204225 
L 946.510847 204.589731 
L 946.698422 203.575817 
L 946.885997 203.360744 
L 947.073572 202.961323 
L 947.261147 202.899874 
L 947.636296 202.316105 
L 948.011446 202.162481 
L 948.199021 201.701611 
L 948.386596 201.547988 
L 948.761745 201.025668 
L 949.136895 200.718421 
L 949.69962 200.226826 
L 949.887195 200.196102 
L 950.449919 199.612333 
L 951.012644 199.212912 
L 951.200219 199.151462 
L 951.950518 198.997839 
L 952.138093 198.813491 
L 952.513242 198.752041 
L 953.075967 198.352621 
L 954.576566 197.645953 
L 954.764141 197.215807 
L 955.702015 196.97001 
L 956.264739 196.416966 
L 956.639889 196.201893 
L 957.390188 195.372326 
L 958.140488 195.095804 
L 958.703212 194.727108 
L 959.078362 194.450586 
L 959.453512 194.174064 
L 959.828661 193.928266 
L 960.016236 193.221599 
L 960.766536 192.730004 
L 960.954111 192.453482 
L 961.32926 192.238409 
L 961.891985 191.838988 
L 963.017434 191.19377 
L 963.205009 191.040146 
L 963.767733 190.978697 
L 964.142883 190.087681 
L 964.330458 189.995507 
L 964.705607 189.503912 
L 965.455907 188.797245 
L 965.643482 188.70507 
L 966.206206 187.936953 
L 966.393781 187.291735 
L 966.581356 187.138112 
L 966.956506 187.076662 
L 967.331655 186.707966 
L 968.081955 186.33927 
L 968.457104 186.216371 
L 969.207404 185.41753 
L 969.394979 185.386805 
L 969.582554 181.730568 
L 969.957703 181.208248 
L 970.332853 180.870277 
L 970.520428 180.50158 
L 970.708003 180.470856 
L 971.083152 180.071435 
L 971.270727 179.487666 
L 972.396176 178.258679 
L 972.583751 177.920707 
L 972.958901 176.077226 
L 973.146476 175.493457 
L 973.33405 174.540992 
L 973.521625 174.26447 
L 973.7092 173.066207 
L 974.08435 172.113742 
L 974.271925 171.37635 
L 975.022224 170.516059 
L 975.397374 169.993739 
L 975.772523 169.563594 
L 976.335248 169.379246 
L 976.897973 168.826201 
L 977.460697 167.873736 
L 977.648272 167.812287 
L 978.023422 167.412866 
L 978.210996 167.228518 
L 978.586146 166.491126 
L 978.961296 166.06098 
L 979.148871 165.047065 
L 980.461895 164.0946 
L 981.774919 162.343293 
L 982.150068 161.360104 
L 982.337643 161.175756 
L 982.900368 159.854594 
L 983.087943 159.76242 
L 983.275517 159.178651 
L 983.463092 158.963578 
L 984.025817 157.242996 
L 984.588541 156.321256 
L 985.151266 155.983284 
L 985.338841 155.460965 
L 986.276715 154.44705 
L 986.46429 153.98618 
L 987.214589 151.251683 
L 987.402164 150.790813 
L 987.589739 149.19313 
L 987.777314 148.916607 
L 987.964889 147.533997 
L 988.340038 146.950228 
L 988.527613 146.397184 
L 988.902763 143.969934 
L 989.277912 143.078918 
L 989.465487 142.89457 
L 989.653062 134.875428 
L 989.840637 131.833684 
L 990.028212 113.613948 
L 990.590936 112.323511 
L 990.778511 112.139163 
L 991.153661 110.664379 
L 991.528811 109.681189 
L 992.65426 101.846395 
L 993.216984 100.279436 
L 993.404559 98.343781 
L 993.779709 97.637113 
L 994.154858 96.100879 
L 994.342433 94.195949 
L 994.530008 93.765804 
L 994.905158 92.475367 
L 995.467882 91.369278 
L 995.655457 91.24638 
L 996.030607 89.556522 
L 996.218182 89.28 
L 996.218182 89.28 
" clip-path="url(#p0f98e75d10)" style="fill: none; stroke: #1f77b4; stroke-width: 1.5; stroke-linecap: square"/>
   </g>
   <g id="patch_3">
    <path d="M 144 512.64 
L 144 69.12 
" style="fill: none; stroke: #000000; stroke-width: 0.8; stroke-linejoin: miter; stroke-linecap: square"/>
   </g>
   <g id="patch_4">
    <path d="M 1036.8 512.64 
L 1036.8 69.12 
" style="fill: none; stroke: #000000; stroke-width: 0.8; stroke-linejoin: miter; stroke-linecap: square"/>
   </g>
   <g id="patch_5">
    <path d="M 144 512.64 
L 1036.8 512.64 
" style="fill: none; stroke: #000000; stroke-width: 0.8; stroke-linejoin: miter; stroke-linecap: square"/>
   </g>
   <g id="patch_6">
    <path d="M 144 69.12 
L 1036.8 69.12 
" style="fill: none; stroke: #000000; stroke-width: 0.8; stroke-linejoin: miter; stroke-linecap: square"/>
   </g>
   <g id="text_15">
    <!-- Number of AEDs in the OpenStreetMap database in Poland from first edition, day by day. As at: 2025-12-16 -->
    <g transform="translate(144 63.12) scale(0.14 -0.14)">
     <defs>
      <path id="DejaVuSans-4e" d="M 628 4666 
L 1478 4666 
L 3547 763 
L 3547 4666 
L 4159 4666 
L 4159 0 
L 3309 0 
L 1241 3903 
L 1241 0 
L 628 0 
L 628 4666 
z
" transform="scale(0.015625)"/>
      <path id="DejaVuSans-75" d="M 544 1381 
L 544 3500 
L 1119 3500 
L 1119 1403 
Q 1119 906 1312 657 
Q 1506 409 1894 409 
Q 2359 409 2629 706 
Q 2900 1003 2900 1516 
L 2900 3500 
L 3475 3500 
L 3475 0 
L 2900 0 
L 2900 538 
Q 2691 219 2414 64 
Q 2138 -91 1772 -91 
Q 1169 -91 856 284 
Q 544 659 544 1381 
z
M 1991 3584 
L 1991 3584 
z
" transform="scale(0.015625)"/>
      <path id="DejaVuSans-6d" d="M 3328 2828 
Q 3544 3216 3844 3400 
Q 4144 3584 4550 3584 
Q 5097 3584 5394 3201 
Q 5691 2819 5691 2113 
L 5691 0 
L 5113 0 
L 5113 2094 
Q 5113 2597 4934 2840 
Q 4756 3084 4391 3084 
Q 3944 3084 3684 2787 
Q 3425 2491 3425 1978 
L 3425 0 
L 2847 0 
L 2847 2094 
Q 2847 2600 2669 2842 
Q 2491 3084 2119 3084 
Q 1678 3084 1418 2786 
Q 1159 2488 1159 1978 
L 1159 0 
L 581 0 
L 581 3500 
L 1159 3500 
L 1159 2956 
Q 1356 3278 1631 3431 
Q 1906 3584 2284 3584 
Q 2666 3584 2933 3390 
Q 3200 3197 3328 2828 
z
" transform="scale(0.015625)"/>
      <path id="DejaVuSans-62" d="M 3116 1747 
Q 3116 2381 2855 2742 
Q 2594 3103 2138 3103 
Q 1681 3103 1420 2742 
Q 1159 2381 1159 1747 
Q 1159 1113 1420 752 
Q 1681 391 2138 391 
Q 2594 391 2855 752 
Q 3116 1113 3116 1747 
z
M 1159 2969 
Q 1341 3281 1617 3432 
Q 1894 3584 2278 3584 
Q 2916 3584 3314 3078 
Q 3713 2572 3713 1747 
Q 3713 922 3314 415 
Q 2916 -91 2278 -91 
Q 1894 -91 1617 61 
Q 1341 213 1159 525 
L 1159 0 
L 581 0 
L 581 4863 
L 1159 4863 
L 1159 2969 
z
" transform="scale(0.015625)"/>
      <path id="DejaVuSans-65" d="M 3597 1894 
L 3597 1613 
L 953 1613 
Q 991 1019 1311 708 
Q 1631 397 2203 397 
Q 2534 397 2845 478 
Q 3156 559 3463 722 
L 3463 178 
Q 3153 47 2828 -22 
Q 2503 -91 2169 -91 
Q 1331 -91 842 396 
Q 353 884 353 1716 
Q 353 2575 817 3079 
Q 1281 3584 2069 3584 
Q 2775 3584 3186 3129 
Q 3597 2675 3597 1894 
z
M 3022 2063 
Q 3016 2534 2758 2815 
Q 2500 3097 2075 3097 
Q 1594 3097 1305 2825 
Q 1016 2553 972 2059 
L 3022 2063 
z
" transform="scale(0.015625)"/>
      <path id="DejaVuSans-72" d="M 2631 2963 
Q 2534 3019 2420 3045 
Q 2306 3072 2169 3072 
Q 1681 3072 1420 2755 
Q 1159 2438 1159 1844 
L 1159 0 
L 581 0 
L 581 3500 
L 1159 3500 
L 1159 2956 
Q 1341 3275 1631 3429 
Q 1922 3584 2338 3584 
Q 2397 3584 2469 3576 
Q 2541 3569 2628 3553 
L 2631 2963 
z
" transform="scale(0.015625)"/>
      <path id="DejaVuSans-20" transform="scale(0.015625)"/>
      <path id="DejaVuSans-6f" d="M 1959 3097 
Q 1497 3097 1228 2736 
Q 959 2375 959 1747 
Q 959 1119 1226 758 
Q 1494 397 1959 397 
Q 2419 397 2687 759 
Q 2956 1122 2956 1747 
Q 2956 2369 2687 2733 
Q 2419 3097 1959 3097 
z
M 1959 3584 
Q 2709 3584 3137 3096 
Q 3566 2609 3566 1747 
Q 3566 888 3137 398 
Q 2709 -91 1959 -91 
Q 1206 -91 779 398 
Q 353 888 353 1747 
Q 353 2609 779 3096 
Q 1206 3584 1959 3584 
z
" transform="scale(0.015625)"/>
      <path id="DejaVuSans-66" d="M 2375 4863 
L 2375 4384 
L 1825 4384 
Q 1516 4384 1395 4259 
Q 1275 4134 1275 3809 
L 1275 3500 
L 2222 3500 
L 2222 3053 
L 1275 3053 
L 1275 0 
L 697 0 
L 697 3053 
L 147 3053 
L 147 3500 
L 697 3500 
L 697 3744 
Q 697 4328 969 4595 
Q 1241 4863 1831 4863 
L 2375 4863 
z
" transform="scale(0.015625)"/>
      <path id="DejaVuSans-41" d="M 2188 4044 
L 1331 1722 
L 3047 1722 
L 2188 4044 
z
M 1831 4666 
L 2547 4666 
L 4325 0 
L 3669 0 
L 3244 1197 
L 1141 1197 
L 716 0 
L 50 0 
L 1831 4666 
z
" transform="scale(0.015625)"/>
      <path id="DejaVuSans-45" d="M 628 4666 
L 3578 4666 
L 3578 4134 
L 1259 4134 
L 1259 2753 
L 3481 2753 
L 3481 2222 
L 1259 2222 
L 1259 531 
L 3634 531 
L 3634 0 
L 628 0 
L 628 4666 
z
" transform="scale(0.015625)"/>
      <path id="DejaVuSans-44" d="M 1259 4147 
L 1259 519 
L 2022 519 
Q 2988 519 3436 956 
Q 3884 1394 3884 2338 
Q 3884 3275 3436 3711 
Q 2988 4147 2022 4147 
L 1259 4147 
z
M 628 4666 
L 1925 4666 
Q 3281 4666 3915 4102 
Q 4550 3538 4550 2338 
Q 4550 1131 3912 565 
Q 3275 0 1925 0 
L 628 0 
L 628 4666 
z
" transform="scale(0.015625)"/>
      <path id="DejaVuSans-73" d="M 2834 3397 
L 2834 2853 
Q 2591 2978 2328 3040 
Q 2066 3103 1784 3103 
Q 1356 3103 1142 2972 
Q 928 2841 928 2578 
Q 928 2378 1081 2264 
Q 1234 2150 1697 2047 
L 1894 2003 
Q 2506 1872 2764 1633 
Q 3022 1394 3022 966 
Q 3022 478 2636 193 
Q 2250 -91 1575 -91 
Q 1294 -91 989 -36 
Q 684 19 347 128 
L 347 722 
Q 666 556 975 473 
Q 1284 391 1588 391 
Q 1994 391 2212 530 
Q 2431 669 2431 922 
Q 2431 1156 2273 1281 
Q 2116 1406 1581 1522 
L 1381 1569 
Q 847 1681 609 1914 
Q 372 2147 372 2553 
Q 372 3047 722 3315 
Q 1072 3584 1716 3584 
Q 2034 3584 2315 3537 
Q 2597 3491 2834 3397 
z
" transform="scale(0.015625)"/>
      <path id="DejaVuSans-69" d="M 603 3500 
L 1178 3500 
L 1178 0 
L 603 0 
L 603 3500 
z
M 603 4863 
L 1178 4863 
L 1178 4134 
L 603 4134 
L 603 4863 
z
" transform="scale(0.015625)"/>
      <path id="DejaVuSans-6e" d="M 3513 2113 
L 3513 0 
L 2938 0 
L 2938 2094 
Q 2938 2591 2744 2837 
Q 2550 3084 2163 3084 
Q 1697 3084 1428 2787 
Q 1159 2491 1159 1978 
L 1159 0 
L 581 0 
L 581 3500 
L 1159 3500 
L 1159 2956 
Q 1366 3272 1645 3428 
Q 1925 3584 2291 3584 
Q 2894 3584 3203 3211 
Q 3513 2838 3513 2113 
z
" transform="scale(0.015625)"/>
      <path id="DejaVuSans-74" d="M 1172 4494 
L 1172 3500 
L 2356 3500 
L 2356 3053 
L 1172 3053 
L 1172 1153 
Q 1172 725 1289 603 
Q 1406 481 1766 481 
L 2356 481 
L 2356 0 
L 1766 0 
Q 1100 0 847 248 
Q 594 497 594 1153 
L 594 3053 
L 172 3053 
L 172 3500 
L 594 3500 
L 594 4494 
L 1172 4494 
z
" transform="scale(0.015625)"/>
      <path id="DejaVuSans-68" d="M 3513 2113 
L 3513 0 
L 2938 0 
L 2938 2094 
Q 2938 2591 2744 2837 
Q 2550 3084 2163 3084 
Q 1697 3084 1428 2787 
Q 1159 2491 1159 1978 
L 1159 0 
L 581 0 
L 581 4863 
L 1159 4863 
L 1159 2956 
Q 1366 3272 1645 3428 
Q 1925 3584 2291 3584 
Q 2894 3584 3203 3211 
Q 3513 2838 3513 2113 
z
" transform="scale(0.015625)"/>
      <path id="DejaVuSans-4f" d="M 2522 4238 
Q 1834 4238 1429 3725 
Q 1025 3213 1025 2328 
Q 1025 1447 1429 934 
Q 1834 422 2522 422 
Q 3209 422 3611 934 
Q 4013 1447 4013 2328 
Q 4013 3213 3611 3725 
Q 3209 4238 2522 4238 
z
M 2522 4750 
Q 3503 4750 4090 4092 
Q 4678 3434 4678 2328 
Q 4678 1225 4090 567 
Q 3503 -91 2522 -91 
Q 1538 -91 948 565 
Q 359 1222 359 2328 
Q 359 3434 948 4092 
Q 1538 4750 2522 4750 
z
" transform="scale(0.015625)"/>
      <path id="DejaVuSans-70" d="M 1159 525 
L 1159 -1331 
L 581 -1331 
L 581 3500 
L 1159 3500 
L 1159 2969 
Q 1341 3281 1617 3432 
Q 1894 3584 2278 3584 
Q 2916 3584 3314 3078 
Q 3713 2572 3713 1747 
Q 3713 922 3314 415 
Q 2916 -91 2278 -91 
Q 1894 -91 1617 61 
Q 1341 213 1159 525 
z
M 3116 1747 
Q 3116 2381 2855 2742 
Q 2594 3103 2138 3103 
Q 1681 3103 1420 2742 
Q 1159 2381 1159 1747 
Q 1159 1113 1420 752 
Q 1681 391 2138 391 
Q 2594 391 2855 752 
Q 3116 1113 3116 1747 
z
" transform="scale(0.015625)"/>
      <path id="DejaVuSans-53" d="M 3425 4513 
L 3425 3897 
Q 3066 4069 2747 4153 
Q 2428 4238 2131 4238 
Q 1616 4238 1336 4038 
Q 1056 3838 1056 3469 
Q 1056 3159 1242 3001 
Q 1428 2844 1947 2747 
L 2328 2669 
Q 3034 2534 3370 2195 
Q 3706 1856 3706 1288 
Q 3706 609 3251 259 
Q 2797 -91 1919 -91 
Q 1588 -91 1214 -16 
Q 841 59 441 206 
L 441 856 
Q 825 641 1194 531 
Q 1563 422 1919 422 
Q 2459 422 2753 634 
Q 3047 847 3047 1241 
Q 3047 1584 2836 1778 
Q 2625 1972 2144 2069 
L 1759 2144 
Q 1053 2284 737 2584 
Q 422 2884 422 3419 
Q 422 4038 858 4394 
Q 1294 4750 2059 4750 
Q 2388 4750 2728 4690 
Q 3069 4631 3425 4513 
z
" transform="scale(0.015625)"/>
      <path id="DejaVuSans-4d" d="M 628 4666 
L 1569 4666 
L 2759 1491 
L 3956 4666 
L 4897 4666 
L 4897 0 
L 4281 0 
L 4281 4097 
L 3078 897 
L 2444 897 
L 1241 4097 
L 1241 0 
L 628 0 
L 628 4666 
z
" transform="scale(0.015625)"/>
      <path id="DejaVuSans-61" d="M 2194 1759 
Q 1497 1759 1228 1600 
Q 959 1441 959 1056 
Q 959 750 1161 570 
Q 1363 391 1709 391 
Q 2188 391 2477 730 
Q 2766 1069 2766 1631 
L 2766 1759 
L 2194 1759 
z
M 3341 1997 
L 3341 0 
L 2766 0 
L 2766 531 
Q 2569 213 2275 61 
Q 1981 -91 1556 -91 
Q 1019 -91 701 211 
Q 384 513 384 1019 
Q 384 1609 779 1909 
Q 1175 2209 1959 2209 
L 2766 2209 
L 2766 2266 
Q 2766 2663 2505 2880 
Q 2244 3097 1772 3097 
Q 1472 3097 1187 3025 
Q 903 2953 641 2809 
L 641 3341 
Q 956 3463 1253 3523 
Q 1550 3584 1831 3584 
Q 2591 3584 2966 3190 
Q 3341 2797 3341 1997 
z
" transform="scale(0.015625)"/>
      <path id="DejaVuSans-64" d="M 2906 2969 
L 2906 4863 
L 3481 4863 
L 3481 0 
L 2906 0 
L 2906 525 
Q 2725 213 2448 61 
Q 2172 -91 1784 -91 
Q 1150 -91 751 415 
Q 353 922 353 1747 
Q 353 2572 751 3078 
Q 1150 3584 1784 3584 
Q 2172 3584 2448 3432 
Q 2725 3281 2906 2969 
z
M 947 1747 
Q 947 1113 1208 752 
Q 1469 391 1925 391 
Q 2381 391 2643 752 
Q 2906 1113 2906 1747 
Q 2906 2381 2643 2742 
Q 2381 3103 1925 3103 
Q 1469 3103 1208 2742 
Q 947 2381 947 1747 
z
" transform="scale(0.015625)"/>
      <path id="DejaVuSans-50" d="M 1259 4147 
L 1259 2394 
L 2053 2394 
Q 2494 2394 2734 2622 
Q 2975 2850 2975 3272 
Q 2975 3691 2734 3919 
Q 2494 4147 2053 4147 
L 1259 4147 
z
M 628 4666 
L 2053 4666 
Q 2838 4666 3239 4311 
Q 3641 3956 3641 3272 
Q 3641 2581 3239 2228 
Q 2838 1875 2053 1875 
L 1259 1875 
L 1259 0 
L 628 0 
L 628 4666 
z
" transform="scale(0.015625)"/>
      <path id="DejaVuSans-6c" d="M 603 4863 
L 1178 4863 
L 1178 0 
L 603 0 
L 603 4863 
z
" transform="scale(0.015625)"/>
      <path id="DejaVuSans-2c" d="M 750 794 
L 1409 794 
L 1409 256 
L 897 -744 
L 494 -744 
L 750 256 
L 750 794 
z
" transform="scale(0.015625)"/>
      <path id="DejaVuSans-79" d="M 2059 -325 
Q 1816 -950 1584 -1140 
Q 1353 -1331 966 -1331 
L 506 -1331 
L 506 -850 
L 844 -850 
Q 1081 -850 1212 -737 
Q 1344 -625 1503 -206 
L 1606 56 
L 191 3500 
L 800 3500 
L 1894 763 
L 2988 3500 
L 3597 3500 
L 2059 -325 
z
" transform="scale(0.015625)"/>
      <path id="DejaVuSans-2e" d="M 684 794 
L 1344 794 
L 1344 0 
L 684 0 
L 684 794 
z
" transform="scale(0.015625)"/>
      <path id="DejaVuSans-3a" d="M 750 794 
L 1409 794 
L 1409 0 
L 750 0 
L 750 794 
z
M 750 3309 
L 1409 3309 
L 1409 2516 
L 750 2516 
L 750 3309 
z
" transform="scale(0.015625)"/>
      <path id="DejaVuSans-35" d="M 691 4666 
L 3169 4666 
L 3169 4134 
L 1269 4134 
L 1269 2991 
Q 1406 3038 1543 3061 
Q 1681 3084 1819 3084 
Q 2600 3084 3056 2656 
Q 3513 2228 3513 1497 
Q 3513 744 3044 326 
Q 2575 -91 1722 -91 
Q 1428 -91 1123 -41 
Q 819 9 494 109 
L 494 744 
Q 775 591 1075 516 
Q 1375 441 1709 441 
Q 2250 441 2565 725 
Q 2881 1009 2881 1497 
Q 2881 1984 2565 2268 
Q 2250 2553 1709 2553 
Q 1456 2553 1204 2497 
Q 953 2441 691 2322 
L 691 4666 
z
" transform="scale(0.015625)"/>
      <path id="DejaVuSans-2d" d="M 313 2009 
L 1997 2009 
L 1997 1497 
L 313 1497 
L 313 2009 
z
" transform="scale(0.015625)"/>
     </defs>
     <use xlink:href="#DejaVuSans-4e"/>
     <use xlink:href="#DejaVuSans-75" x="74.804688"/>
     <use xlink:href="#DejaVuSans-6d" x="138.183594"/>
     <use xlink:href="#DejaVuSans-62" x="235.595703"/>
     <use xlink:href="#DejaVuSans-65" x="299.072266"/>
     <use xlink:href="#DejaVuSans-72" x="360.595703"/>
     <use xlink:href="#DejaVuSans-20" x="401.708984"/>
     <use xlink:href="#DejaVuSans-6f" x="433.496094"/>
     <use xlink:href="#DejaVuSans-66" x="494.677734"/>
     <use xlink:href="#DejaVuSans-20" x="529.882812"/>
     <use xlink:href="#DejaVuSans-41" x="561.669922"/>
     <use xlink:href="#DejaVuSans-45" x="630.078125"/>
     <use xlink:href="#DejaVuSans-44" x="693.261719"/>
     <use xlink:href="#DejaVuSans-73" x="770.263672"/>
     <use xlink:href="#DejaVuSans-20" x="822.363281"/>
     <use xlink:href="#DejaVuSans-69" x="854.150391"/>
     <use xlink:href="#DejaVuSans-6e" x="881.933594"/>
     <use xlink:href="#DejaVuSans-20" x="945.3125"/>
     <use xlink:href="#DejaVuSans-74" x="977.099609"/>
     <use xlink:href="#DejaVuSans-68" x="1016.308594"/>
     <use xlink:href="#DejaVuSans-65" x="1079.6875"/>
     <use xlink:href="#DejaVuSans-20" x="1141.210938"/>
     <use xlink:href="#DejaVuSans-4f" x="1172.998047"/>
     <use xlink:href="#DejaVuSans-70" x="1251.708984"/>
     <use xlink:href="#DejaVuSans-65" x="1315.185547"/>
     <use xlink:href="#DejaVuSans-6e" x="1376.708984"/>
     <use xlink:href="#DejaVuSans-53" x="1440.087891"/>
     <use xlink:href="#DejaVuSans-74" x="1503.564453"/>
     <use xlink:href="#DejaVuSans-72" x="1542.773438"/>
     <use xlink:href="#DejaVuSans-65" x="1581.636719"/>
     <use xlink:href="#DejaVuSans-65" x="1643.160156"/>
     <use xlink:href="#DejaVuSans-74" x="1704.683594"/>
     <use xlink:href="#DejaVuSans-4d" x="1743.892578"/>
     <use xlink:href="#DejaVuSans-61" x="1830.171875"/>
     <use xlink:href="#DejaVuSans-70" x="1891.451172"/>
     <use xlink:href="#DejaVuSans-20" x="1954.927734"/>
     <use xlink:href="#DejaVuSans-64" x="1986.714844"/>
     <use xlink:href="#DejaVuSans-61" x="2050.191406"/>
     <use xlink:href="#DejaVuSans-74" x="2111.470703"/>
     <use xlink:href="#DejaVuSans-61" x="2150.679688"/>
     <use xlink:href="#DejaVuSans-62" x="2211.958984"/>
     <use xlink:href="#DejaVuSans-61" x="2275.435547"/>
     <use xlink:href="#DejaVuSans-73" x="2336.714844"/>
     <use xlink:href="#DejaVuSans-65" x="2388.814453"/>
     <use xlink:href="#DejaVuSans-20" x="2450.337891"/>
     <use xlink:href="#DejaVuSans-69" x="2482.125"/>
     <use xlink:href="#DejaVuSans-6e" x="2509.908203"/>
     <use xlink:href="#DejaVuSans-20" x="2573.287109"/>
     <use xlink:href="#DejaVuSans-50" x="2605.074219"/>
     <use xlink:href="#DejaVuSans-6f" x="2661.751953"/>
     <use xlink:href="#DejaVuSans-6c" x="2722.933594"/>
     <use xlink:href="#DejaVuSans-61" x="2750.716797"/>
     <use xlink:href="#DejaVuSans-6e" x="2811.996094"/>
     <use xlink:href="#DejaVuSans-64" x="2875.375"/>
     <use xlink:href="#DejaVuSans-20" x="2938.851562"/>
     <use xlink:href="#DejaVuSans-66" x="2970.638672"/>
     <use xlink:href="#DejaVuSans-72" x="3005.84375"/>
     <use xlink:href="#DejaVuSans-6f" x="3044.707031"/>
     <use xlink:href="#DejaVuSans-6d" x="3105.888672"/>
     <use xlink:href="#DejaVuSans-20" x="3203.300781"/>
     <use xlink:href="#DejaVuSans-66" x="3235.087891"/>
     <use xlink:href="#DejaVuSans-69" x="3270.292969"/>
     <use xlink:href="#DejaVuSans-72" x="3298.076172"/>
     <use xlink:href="#DejaVuSans-73" x="3339.189453"/>
     <use xlink:href="#DejaVuSans-74" x="3391.289062"/>
     <use xlink:href="#DejaVuSans-20" x="3430.498047"/>
     <use xlink:href="#DejaVuSans-65" x="3462.285156"/>
     <use xlink:href="#DejaVuSans-64" x="3523.808594"/>
     <use xlink:href="#DejaVuSans-69" x="3587.285156"/>
     <use xlink:href="#DejaVuSans-74" x="3615.068359"/>
     <use xlink:href="#DejaVuSans-69" x="3654.277344"/>
     <use xlink:href="#DejaVuSans-6f" x="3682.060547"/>
     <use xlink:href="#DejaVuSans-6e" x="3743.242188"/>
     <use xlink:href="#DejaVuSans-2c" x="3806.621094"/>
     <use xlink:href="#DejaVuSans-20" x="3838.408203"/>
     <use xlink:href="#DejaVuSans-64" x="3870.195312"/>
     <use xlink:href="#DejaVuSans-61" x="3933.671875"/>
     <use xlink:href="#DejaVuSans-79" x="3994.951172"/>
     <use xlink:href="#DejaVuSans-20" x="4054.130859"/>
     <use xlink:href="#DejaVuSans-62" x="4085.917969"/>
     <use xlink:href="#DejaVuSans-79" x="4149.394531"/>
     <use xlink:href="#DejaVuSans-20" x="4208.574219"/>
     <use xlink:href="#DejaVuSans-64" x="4240.361328"/>
     <use xlink:href="#DejaVuSans-61" x="4303.837891"/>
     <use xlink:href="#DejaVuSans-79" x="4365.117188"/>
     <use xlink:href="#DejaVuSans-2e" x="4410.046875"/>
     <use xlink:href="#DejaVuSans-20" x="4441.833984"/>
     <use xlink:href="#DejaVuSans-41" x="4473.621094"/>
     <use xlink:href="#DejaVuSans-73" x="4542.029297"/>
     <use xlink:href="#DejaVuSans-20" x="4594.128906"/>
     <use xlink:href="#DejaVuSans-61" x="4625.916016"/>
     <use xlink:href="#DejaVuSans-74" x="4687.195312"/>
     <use xlink:href="#DejaVuSans-3a" x="4726.404297"/>
     <use xlink:href="#DejaVuSans-20" x="4760.095703"/>
     <use xlink:href="#DejaVuSans-32" x="4791.882812"/>
     <use xlink:href="#DejaVuSans-30" x="4855.505859"/>
     <use xlink:href="#DejaVuSans-32" x="4919.128906"/>
     <use xlink:href="#DejaVuSans-35" x="4982.751953"/>
     <use xlink:href="#DejaVuSans-2d" x="5046.375"/>
     <use xlink:href="#DejaVuSans-31" x="5082.458984"/>
     <use xlink:href="#DejaVuSans-32" x="5146.082031"/>
     <use xlink:href="#DejaVuSans-2d" x="5209.705078"/>
     <use xlink:href="#DejaVuSans-31" x="5245.789062"/>
     <use xlink:href="#DejaVuSans-36" x="5309.412109"/>
    </g>
   </g>
  </g>
 </g>
 <defs>
  <clipPath id="p0f98e75d10">
   <rect x="144" y="69.12" width="892.8" height="443.52"/>
  </clipPath>
 </defs>
</svg>
