<?xml version="1.0" encoding="utf-8" standalone="no"?>
<!DOCTYPE svg PUBLIC "-//W3C//DTD SVG 1.1//EN"
  "http://www.w3.org/Graphics/SVG/1.1/DTD/svg11.dtd">
<svg xmlns:xlink="http://www.w3.org/1999/xlink" width="1152pt" height="576pt" viewBox="0 0 1152 576" xmlns="http://www.w3.org/2000/svg" version="1.1">
 <metadata>
  <rdf:RDF xmlns:dc="http://purl.org/dc/elements/1.1/" xmlns:cc="http://creativecommons.org/ns#" xmlns:rdf="http://www.w3.org/1999/02/22-rdf-syntax-ns#">
   <cc:Work>
    <dc:type rdf:resource="http://purl.org/dc/dcmitype/StillImage"/>
    <dc:date>1980-01-01T00:00:00+00:00</dc:date>
    <dc:format>image/svg+xml</dc:format>
    <dc:creator>
     <cc:Agent>
      <dc:title>Matplotlib v3.9.1, https://matplotlib.org/</dc:title>
     </cc:Agent>
    </dc:creator>
   </cc:Work>
  </rdf:RDF>
 </metadata>
 <defs>
  <style type="text/css">*{stroke-linejoin: round; stroke-linecap: butt}</style>
 </defs>
 <g id="figure_1">
  <g id="patch_1">
   <path d="M 0 576 
L 1152 576 
L 1152 0 
L 0 0 
z
" style="fill: #ffffff"/>
  </g>
  <g id="axes_1">
   <g id="patch_2">
    <path d="M 144 512.64 
L 1036.8 512.64 
L 1036.8 69.12 
L 144 69.12 
z
" style="fill: #ffffff"/>
   </g>
   <g id="matplotlib.axis_1">
    <g id="xtick_1">
     <g id="line2d_1">
      <defs>
       <path id="m8f041d08ff" d="M 0 0 
L 0 3.5 
" style="stroke: #000000; stroke-width: 0.8"/>
      </defs>
      <g>
       <use xlink:href="#m8f041d08ff" x="176.884935" y="512.64" style="stroke: #000000; stroke-width: 0.8"/>
      </g>
     </g>
     <g id="text_1">
      <!-- 2014 -->
      <g transform="translate(164.159935 527.238438) scale(0.1 -0.1)">
       <defs>
        <path id="DejaVuSans-32" d="M 1228 531 
L 3431 531 
L 3431 0 
L 469 0 
L 469 531 
Q 828 903 1448 1529 
Q 2069 2156 2228 2338 
Q 2531 2678 2651 2914 
Q 2772 3150 2772 3378 
Q 2772 3750 2511 3984 
Q 2250 4219 1831 4219 
Q 1534 4219 1204 4116 
Q 875 4013 500 3803 
L 500 4441 
Q 881 4594 1212 4672 
Q 1544 4750 1819 4750 
Q 2544 4750 2975 4387 
Q 3406 4025 3406 3419 
Q 3406 3131 3298 2873 
Q 3191 2616 2906 2266 
Q 2828 2175 2409 1742 
Q 1991 1309 1228 531 
z
" transform="scale(0.015625)"/>
        <path id="DejaVuSans-30" d="M 2034 4250 
Q 1547 4250 1301 3770 
Q 1056 3291 1056 2328 
Q 1056 1369 1301 889 
Q 1547 409 2034 409 
Q 2525 409 2770 889 
Q 3016 1369 3016 2328 
Q 3016 3291 2770 3770 
Q 2525 4250 2034 4250 
z
M 2034 4750 
Q 2819 4750 3233 4129 
Q 3647 3509 3647 2328 
Q 3647 1150 3233 529 
Q 2819 -91 2034 -91 
Q 1250 -91 836 529 
Q 422 1150 422 2328 
Q 422 3509 836 4129 
Q 1250 4750 2034 4750 
z
" transform="scale(0.015625)"/>
        <path id="DejaVuSans-31" d="M 794 531 
L 1825 531 
L 1825 4091 
L 703 3866 
L 703 4441 
L 1819 4666 
L 2450 4666 
L 2450 531 
L 3481 531 
L 3481 0 
L 794 0 
L 794 531 
z
" transform="scale(0.015625)"/>
        <path id="DejaVuSans-34" d="M 2419 4116 
L 825 1625 
L 2419 1625 
L 2419 4116 
z
M 2253 4666 
L 3047 4666 
L 3047 1625 
L 3713 1625 
L 3713 1100 
L 3047 1100 
L 3047 0 
L 2419 0 
L 2419 1100 
L 313 1100 
L 313 1709 
L 2253 4666 
z
" transform="scale(0.015625)"/>
       </defs>
       <use xlink:href="#DejaVuSans-32"/>
       <use xlink:href="#DejaVuSans-30" x="63.623047"/>
       <use xlink:href="#DejaVuSans-31" x="127.246094"/>
       <use xlink:href="#DejaVuSans-34" x="190.869141"/>
      </g>
     </g>
    </g>
    <g id="xtick_2">
     <g id="line2d_2">
      <g>
       <use xlink:href="#m8f041d08ff" x="317.353058" y="512.64" style="stroke: #000000; stroke-width: 0.8"/>
      </g>
     </g>
     <g id="text_2">
      <!-- 2016 -->
      <g transform="translate(304.628058 527.238438) scale(0.1 -0.1)">
       <defs>
        <path id="DejaVuSans-36" d="M 2113 2584 
Q 1688 2584 1439 2293 
Q 1191 2003 1191 1497 
Q 1191 994 1439 701 
Q 1688 409 2113 409 
Q 2538 409 2786 701 
Q 3034 994 3034 1497 
Q 3034 2003 2786 2293 
Q 2538 2584 2113 2584 
z
M 3366 4563 
L 3366 3988 
Q 3128 4100 2886 4159 
Q 2644 4219 2406 4219 
Q 1781 4219 1451 3797 
Q 1122 3375 1075 2522 
Q 1259 2794 1537 2939 
Q 1816 3084 2150 3084 
Q 2853 3084 3261 2657 
Q 3669 2231 3669 1497 
Q 3669 778 3244 343 
Q 2819 -91 2113 -91 
Q 1303 -91 875 529 
Q 447 1150 447 2328 
Q 447 3434 972 4092 
Q 1497 4750 2381 4750 
Q 2619 4750 2861 4703 
Q 3103 4656 3366 4563 
z
" transform="scale(0.015625)"/>
       </defs>
       <use xlink:href="#DejaVuSans-32"/>
       <use xlink:href="#DejaVuSans-30" x="63.623047"/>
       <use xlink:href="#DejaVuSans-31" x="127.246094"/>
       <use xlink:href="#DejaVuSans-36" x="190.869141"/>
      </g>
     </g>
    </g>
    <g id="xtick_3">
     <g id="line2d_3">
      <g>
       <use xlink:href="#m8f041d08ff" x="458.013604" y="512.64" style="stroke: #000000; stroke-width: 0.8"/>
      </g>
     </g>
     <g id="text_3">
      <!-- 2018 -->
      <g transform="translate(445.288604 527.238438) scale(0.1 -0.1)">
       <defs>
        <path id="DejaVuSans-38" d="M 2034 2216 
Q 1584 2216 1326 1975 
Q 1069 1734 1069 1313 
Q 1069 891 1326 650 
Q 1584 409 2034 409 
Q 2484 409 2743 651 
Q 3003 894 3003 1313 
Q 3003 1734 2745 1975 
Q 2488 2216 2034 2216 
z
M 1403 2484 
Q 997 2584 770 2862 
Q 544 3141 544 3541 
Q 544 4100 942 4425 
Q 1341 4750 2034 4750 
Q 2731 4750 3128 4425 
Q 3525 4100 3525 3541 
Q 3525 3141 3298 2862 
Q 3072 2584 2669 2484 
Q 3125 2378 3379 2068 
Q 3634 1759 3634 1313 
Q 3634 634 3220 271 
Q 2806 -91 2034 -91 
Q 1263 -91 848 271 
Q 434 634 434 1313 
Q 434 1759 690 2068 
Q 947 2378 1403 2484 
z
M 1172 3481 
Q 1172 3119 1398 2916 
Q 1625 2713 2034 2713 
Q 2441 2713 2670 2916 
Q 2900 3119 2900 3481 
Q 2900 3844 2670 4047 
Q 2441 4250 2034 4250 
Q 1625 4250 1398 4047 
Q 1172 3844 1172 3481 
z
" transform="scale(0.015625)"/>
       </defs>
       <use xlink:href="#DejaVuSans-32"/>
       <use xlink:href="#DejaVuSans-30" x="63.623047"/>
       <use xlink:href="#DejaVuSans-31" x="127.246094"/>
       <use xlink:href="#DejaVuSans-38" x="190.869141"/>
      </g>
     </g>
    </g>
    <g id="xtick_4">
     <g id="line2d_4">
      <g>
       <use xlink:href="#m8f041d08ff" x="598.481728" y="512.64" style="stroke: #000000; stroke-width: 0.8"/>
      </g>
     </g>
     <g id="text_4">
      <!-- 2020 -->
      <g transform="translate(585.756728 527.238438) scale(0.1 -0.1)">
       <use xlink:href="#DejaVuSans-32"/>
       <use xlink:href="#DejaVuSans-30" x="63.623047"/>
       <use xlink:href="#DejaVuSans-32" x="127.246094"/>
       <use xlink:href="#DejaVuSans-30" x="190.869141"/>
      </g>
     </g>
    </g>
    <g id="xtick_5">
     <g id="line2d_5">
      <g>
       <use xlink:href="#m8f041d08ff" x="739.142273" y="512.64" style="stroke: #000000; stroke-width: 0.8"/>
      </g>
     </g>
     <g id="text_5">
      <!-- 2022 -->
      <g transform="translate(726.417273 527.238438) scale(0.1 -0.1)">
       <use xlink:href="#DejaVuSans-32"/>
       <use xlink:href="#DejaVuSans-30" x="63.623047"/>
       <use xlink:href="#DejaVuSans-32" x="127.246094"/>
       <use xlink:href="#DejaVuSans-32" x="190.869141"/>
      </g>
     </g>
    </g>
    <g id="xtick_6">
     <g id="line2d_6">
      <g>
       <use xlink:href="#m8f041d08ff" x="879.610397" y="512.64" style="stroke: #000000; stroke-width: 0.8"/>
      </g>
     </g>
     <g id="text_6">
      <!-- 2024 -->
      <g transform="translate(866.885397 527.238438) scale(0.1 -0.1)">
       <use xlink:href="#DejaVuSans-32"/>
       <use xlink:href="#DejaVuSans-30" x="63.623047"/>
       <use xlink:href="#DejaVuSans-32" x="127.246094"/>
       <use xlink:href="#DejaVuSans-34" x="190.869141"/>
      </g>
     </g>
    </g>
    <g id="xtick_7">
     <g id="line2d_7">
      <g>
       <use xlink:href="#m8f041d08ff" x="1020.270943" y="512.64" style="stroke: #000000; stroke-width: 0.8"/>
      </g>
     </g>
     <g id="text_7">
      <!-- 2026 -->
      <g transform="translate(1007.545943 527.238438) scale(0.1 -0.1)">
       <use xlink:href="#DejaVuSans-32"/>
       <use xlink:href="#DejaVuSans-30" x="63.623047"/>
       <use xlink:href="#DejaVuSans-32" x="127.246094"/>
       <use xlink:href="#DejaVuSans-36" x="190.869141"/>
      </g>
     </g>
    </g>
   </g>
   <g id="matplotlib.axis_2">
    <g id="ytick_1">
     <g id="line2d_8">
      <defs>
       <path id="m14e2a1337b" d="M 0 0 
L -3.5 0 
" style="stroke: #000000; stroke-width: 0.8"/>
      </defs>
      <g>
       <use xlink:href="#m14e2a1337b" x="144" y="492.514138" style="stroke: #000000; stroke-width: 0.8"/>
      </g>
     </g>
     <g id="text_8">
      <!-- 0 -->
      <g transform="translate(130.6375 496.313356) scale(0.1 -0.1)">
       <use xlink:href="#DejaVuSans-30"/>
      </g>
     </g>
    </g>
    <g id="ytick_2">
     <g id="line2d_9">
      <g>
       <use xlink:href="#m14e2a1337b" x="144" y="424.238801" style="stroke: #000000; stroke-width: 0.8"/>
      </g>
     </g>
     <g id="text_9">
      <!-- 2000 -->
      <g transform="translate(111.55 428.03802) scale(0.1 -0.1)">
       <use xlink:href="#DejaVuSans-32"/>
       <use xlink:href="#DejaVuSans-30" x="63.623047"/>
       <use xlink:href="#DejaVuSans-30" x="127.246094"/>
       <use xlink:href="#DejaVuSans-30" x="190.869141"/>
      </g>
     </g>
    </g>
    <g id="ytick_3">
     <g id="line2d_10">
      <g>
       <use xlink:href="#m14e2a1337b" x="144" y="355.963465" style="stroke: #000000; stroke-width: 0.8"/>
      </g>
     </g>
     <g id="text_10">
      <!-- 4000 -->
      <g transform="translate(111.55 359.762683) scale(0.1 -0.1)">
       <use xlink:href="#DejaVuSans-34"/>
       <use xlink:href="#DejaVuSans-30" x="63.623047"/>
       <use xlink:href="#DejaVuSans-30" x="127.246094"/>
       <use xlink:href="#DejaVuSans-30" x="190.869141"/>
      </g>
     </g>
    </g>
    <g id="ytick_4">
     <g id="line2d_11">
      <g>
       <use xlink:href="#m14e2a1337b" x="144" y="287.688128" style="stroke: #000000; stroke-width: 0.8"/>
      </g>
     </g>
     <g id="text_11">
      <!-- 6000 -->
      <g transform="translate(111.55 291.487347) scale(0.1 -0.1)">
       <use xlink:href="#DejaVuSans-36"/>
       <use xlink:href="#DejaVuSans-30" x="63.623047"/>
       <use xlink:href="#DejaVuSans-30" x="127.246094"/>
       <use xlink:href="#DejaVuSans-30" x="190.869141"/>
      </g>
     </g>
    </g>
    <g id="ytick_5">
     <g id="line2d_12">
      <g>
       <use xlink:href="#m14e2a1337b" x="144" y="219.412791" style="stroke: #000000; stroke-width: 0.8"/>
      </g>
     </g>
     <g id="text_12">
      <!-- 8000 -->
      <g transform="translate(111.55 223.21201) scale(0.1 -0.1)">
       <use xlink:href="#DejaVuSans-38"/>
       <use xlink:href="#DejaVuSans-30" x="63.623047"/>
       <use xlink:href="#DejaVuSans-30" x="127.246094"/>
       <use xlink:href="#DejaVuSans-30" x="190.869141"/>
      </g>
     </g>
    </g>
    <g id="ytick_6">
     <g id="line2d_13">
      <g>
       <use xlink:href="#m14e2a1337b" x="144" y="151.137455" style="stroke: #000000; stroke-width: 0.8"/>
      </g>
     </g>
     <g id="text_13">
      <!-- 10000 -->
      <g transform="translate(105.1875 154.936674) scale(0.1 -0.1)">
       <use xlink:href="#DejaVuSans-31"/>
       <use xlink:href="#DejaVuSans-30" x="63.623047"/>
       <use xlink:href="#DejaVuSans-30" x="127.246094"/>
       <use xlink:href="#DejaVuSans-30" x="190.869141"/>
       <use xlink:href="#DejaVuSans-30" x="254.492188"/>
      </g>
     </g>
    </g>
    <g id="ytick_7">
     <g id="line2d_14">
      <g>
       <use xlink:href="#m14e2a1337b" x="144" y="82.862118" style="stroke: #000000; stroke-width: 0.8"/>
      </g>
     </g>
     <g id="text_14">
      <!-- 12000 -->
      <g transform="translate(105.1875 86.661337) scale(0.1 -0.1)">
       <use xlink:href="#DejaVuSans-31"/>
       <use xlink:href="#DejaVuSans-32" x="63.623047"/>
       <use xlink:href="#DejaVuSans-30" x="127.246094"/>
       <use xlink:href="#DejaVuSans-30" x="190.869141"/>
       <use xlink:href="#DejaVuSans-30" x="254.492188"/>
      </g>
     </g>
    </g>
   </g>
   <g id="line2d_15">
    <path d="M 184.581818 492.48 
L 186.313617 492.411725 
L 306.577421 492.206899 
L 447.430389 492.03621 
L 499.769197 491.831384 
L 513.431165 491.728971 
L 546.14292 491.558283 
L 547.682297 491.490008 
L 556.533713 491.387595 
L 598.67415 491.182769 
L 604.831657 491.114493 
L 605.216501 490.841392 
L 609.257365 490.670704 
L 643.123652 490.534153 
L 646.972094 490.43174 
L 662.750705 490.261052 
L 681.992913 490.090363 
L 691.036752 489.817262 
L 698.733635 489.646574 
L 701.619966 489.441748 
L 702.966921 489.271059 
L 710.471382 489.066233 
L 714.512246 488.929682 
L 720.862175 488.485893 
L 730.868124 488.246929 
L 736.833208 486.574183 
L 737.410475 486.540046 
L 738.180163 485.993843 
L 738.372585 485.140401 
L 738.757429 484.935575 
L 738.949851 484.901438 
L 739.142273 483.740757 
L 740.296806 483.26283 
L 740.68165 482.682489 
L 741.066494 482.443526 
L 741.258916 481.931461 
L 741.451338 480.941468 
L 741.643761 480.600091 
L 742.028605 478.790795 
L 742.221027 476.81081 
L 742.605871 475.411166 
L 742.798293 475.138065 
L 742.990715 470.563617 
L 743.183137 468.720183 
L 743.375559 468.03743 
L 743.567981 464.760213 
L 744.145248 461.00507 
L 744.33767 460.902657 
L 744.722514 458.95681 
L 744.914936 458.308194 
L 745.107358 453.358232 
L 745.29978 452.914442 
L 745.684624 451.275834 
L 745.877046 451.173421 
L 746.069469 450.31998 
L 746.261891 446.8038 
L 746.454313 445.91622 
L 746.646735 445.847945 
L 746.839157 443.28762 
L 747.031579 442.775555 
L 747.416423 442.604867 
L 748.186111 440.010404 
L 748.570956 439.32765 
L 748.9558 437.313528 
L 749.148222 436.528362 
L 749.533066 431.13461 
L 750.110332 428.471872 
L 750.880021 428.06222 
L 751.649709 426.662576 
L 752.034553 426.526025 
L 752.419397 423.590185 
L 752.611819 423.556048 
L 752.996664 423.07812 
L 753.189086 421.644338 
L 753.381508 421.234686 
L 753.57393 421.098136 
L 753.766352 420.790897 
L 753.958774 420.210556 
L 754.53604 419.971593 
L 754.728462 419.732629 
L 755.305729 417.581956 
L 755.498151 417.445405 
L 755.882995 416.899202 
L 756.652683 416.523688 
L 756.845105 415.124044 
L 757.037527 415.021631 
L 757.22995 414.782667 
L 757.422372 412.119929 
L 757.807216 412.017516 
L 758.19206 411.300625 
L 758.384482 410.617871 
L 758.961748 410.481321 
L 759.539015 409.423053 
L 759.731437 409.388915 
L 760.116281 408.808575 
L 760.501125 408.672024 
L 760.693547 405.565497 
L 761.84808 405.292395 
L 762.232924 405.019294 
L 763.002612 404.916881 
L 763.195034 404.746193 
L 765.504099 404.063439 
L 766.273788 403.517236 
L 767.235898 403.380686 
L 767.620742 403.107584 
L 768.005586 402.971034 
L 769.929807 402.458969 
L 770.699496 399.557267 
L 771.661606 399.420716 
L 771.854028 399.352441 
L 773.393405 399.181753 
L 773.970671 398.976927 
L 774.163093 398.430724 
L 775.125204 398.362449 
L 775.70247 398.05521 
L 776.66458 397.713833 
L 776.857002 397.679695 
L 777.241847 397.304181 
L 777.626691 397.201768 
L 777.819113 396.962804 
L 778.588801 396.689703 
L 779.550912 396.58729 
L 779.743334 396.348326 
L 780.128178 396.314188 
L 780.3206 395.767986 
L 780.513022 395.69971 
L 780.705444 394.914544 
L 783.014509 394.402479 
L 783.591776 394.265928 
L 783.784198 393.856276 
L 785.131152 393.5149 
L 785.708418 393.310074 
L 786.478107 393.139385 
L 787.247795 392.934559 
L 788.209906 392.729733 
L 788.787172 392.559045 
L 790.134126 391.773879 
L 790.326549 391.091125 
L 791.288659 390.305959 
L 791.481081 389.99872 
L 792.443192 389.179416 
L 792.828036 388.462525 
L 793.020458 388.428387 
L 793.405302 387.540808 
L 794.17499 386.653228 
L 794.752257 386.550815 
L 794.944679 386.243576 
L 795.329523 386.072888 
L 795.521945 385.731511 
L 796.484055 385.492548 
L 796.676477 385.185309 
L 798.023432 384.87807 
L 798.408276 384.707381 
L 798.600698 384.673244 
L 798.79312 384.502555 
L 799.755231 384.366005 
L 801.102185 383.751527 
L 801.679452 383.614976 
L 802.064296 382.863947 
L 802.44914 382.624983 
L 803.41125 381.873955 
L 803.603673 381.088788 
L 804.373361 380.849825 
L 805.527893 380.47431 
L 805.912738 379.89397 
L 806.874848 379.347767 
L 807.06727 379.006391 
L 807.644536 378.801565 
L 808.029381 378.494326 
L 808.606647 378.255362 
L 808.991491 374.431943 
L 809.183913 373.202987 
L 809.376335 371.086452 
L 809.568757 370.81335 
L 810.338446 368.18475 
L 810.72329 367.501996 
L 810.915712 367.399583 
L 811.108134 367.16062 
L 811.300556 366.71683 
L 811.492978 365.180635 
L 811.6854 364.805121 
L 812.070244 364.66857 
L 813.224777 362.347209 
L 813.417199 362.17652 
L 813.609621 361.254803 
L 813.802043 360.913426 
L 814.186887 360.025847 
L 814.571732 359.479644 
L 815.34142 359.035855 
L 815.533842 358.831029 
L 815.726264 357.738623 
L 816.111108 357.567935 
L 816.495952 357.192421 
L 817.073219 356.407254 
L 817.265641 355.690363 
L 817.458063 355.656226 
L 818.035329 354.973472 
L 818.420173 354.939335 
L 818.612595 354.597958 
L 818.99744 354.393132 
L 819.95955 353.334864 
L 820.151972 352.754524 
L 821.691349 351.286604 
L 822.076193 349.955235 
L 823.230725 349.374895 
L 823.807992 348.487315 
L 824.962524 346.848707 
L 825.732213 346.678019 
L 825.924635 346.643881 
L 826.501901 345.551476 
L 827.271589 345.312512 
L 828.041278 344.424933 
L 828.426122 344.356657 
L 828.810966 343.947005 
L 829.388232 343.708042 
L 829.773076 343.673904 
L 829.965499 343.469078 
L 830.157921 342.8546 
L 830.927609 342.615636 
L 831.120031 342.27426 
L 831.312453 342.240122 
L 831.504875 341.625644 
L 832.082141 341.38668 
L 832.659408 341.25013 
L 833.044252 340.908753 
L 834.006362 340.464963 
L 834.391207 340.157724 
L 834.776051 339.91876 
L 835.160895 339.884623 
L 835.353317 338.962906 
L 835.738161 338.655667 
L 836.315427 338.382565 
L 836.892694 338.041189 
L 837.662382 337.904638 
L 837.854804 336.948783 
L 839.201759 336.300168 
L 839.394181 336.26603 
L 839.586603 336.095342 
L 839.971447 336.027066 
L 840.163869 335.719827 
L 840.933557 335.412588 
L 841.12598 335.037074 
L 841.510824 335.002936 
L 841.895668 334.763973 
L 842.472934 334.456734 
L 842.665356 333.978806 
L 843.435045 333.603292 
L 843.627467 333.330191 
L 844.204733 333.022951 
L 844.781999 332.74985 
L 844.974421 332.442611 
L 845.166843 332.408473 
L 845.551688 332.135372 
L 845.936532 331.964684 
L 846.128954 331.759858 
L 847.283486 331.418481 
L 847.475908 331.042967 
L 847.668331 330.940554 
L 848.630441 330.70159 
L 849.015285 330.394351 
L 849.400129 330.2578 
L 849.977396 330.087112 
L 850.169818 329.779873 
L 850.554662 329.711598 
L 850.747084 329.09712 
L 850.939506 328.994707 
L 851.32435 328.550917 
L 851.516772 327.526787 
L 851.901616 327.287823 
L 852.094039 327.151273 
L 852.286461 326.878171 
L 852.671305 326.639208 
L 853.440993 325.956454 
L 853.825837 325.785766 
L 854.018259 325.376114 
L 854.210681 325.307838 
L 854.595526 324.898186 
L 854.98037 324.659223 
L 855.557636 324.488534 
L 855.94248 324.044745 
L 858.059123 322.235448 
L 859.021234 321.996485 
L 860.175766 320.801666 
L 860.56061 320.630978 
L 862.099987 320.0165 
L 862.869675 319.538573 
L 863.639364 319.197196 
L 864.024208 318.99237 
L 866.140851 318.138928 
L 866.525695 317.899964 
L 866.718117 317.865827 
L 866.910539 317.52445 
L 868.257494 316.978247 
L 868.83476 316.602733 
L 869.412026 316.329632 
L 869.604448 316.124806 
L 870.374137 315.91998 
L 870.566559 315.47619 
L 870.758981 313.974133 
L 871.143825 313.598618 
L 871.336247 313.564481 
L 872.49078 312.062423 
L 872.875624 311.038293 
L 873.260468 310.696916 
L 873.645312 310.457953 
L 874.030156 310.35554 
L 874.222579 310.082438 
L 874.607423 309.877612 
L 874.992267 309.536236 
L 875.377111 309.365547 
L 875.569533 309.297272 
L 875.954377 308.88762 
L 876.146799 308.853482 
L 876.339222 308.44383 
L 876.916488 308.239004 
L 877.301332 307.726939 
L 877.878598 307.28315 
L 878.263442 306.907635 
L 878.840709 306.83936 
L 879.033131 306.532121 
L 879.610397 306.361433 
L 879.995241 304.859375 
L 880.380085 304.517998 
L 881.149774 304.244897 
L 881.534618 303.971796 
L 881.72704 303.459731 
L 882.111884 303.32318 
L 882.304306 302.845253 
L 882.496728 302.74284 
L 882.881572 302.333188 
L 883.073995 302.128362 
L 883.651261 301.923536 
L 884.036105 301.616297 
L 884.228527 301.582159 
L 884.420949 301.377333 
L 884.613371 301.343195 
L 885.38306 300.865268 
L 885.767904 300.011826 
L 885.960326 299.909413 
L 886.34517 299.841138 
L 886.537592 299.465624 
L 886.922436 299.294935 
L 887.30728 299.090109 
L 887.499703 298.475631 
L 888.269391 298.031842 
L 888.461813 297.417363 
L 889.231501 296.768748 
L 889.423923 296.73461 
L 889.808768 296.222545 
L 890.193612 295.915306 
L 890.386034 295.847031 
L 890.578456 295.505654 
L 890.9633 295.369103 
L 891.155722 294.720488 
L 891.540566 294.618075 
L 891.732988 294.310836 
L 891.925411 294.24256 
L 892.117833 293.525669 
L 892.502677 293.423256 
L 892.887521 293.184293 
L 893.272365 292.63809 
L 893.464787 292.501539 
L 894.234476 291.374996 
L 894.426898 291.306721 
L 894.811742 290.897069 
L 895.58143 290.350866 
L 896.158696 290.077765 
L 897.890495 288.370881 
L 898.275339 288.234331 
L 898.660184 287.824679 
L 899.045028 287.722266 
L 899.23745 286.937099 
L 899.814716 286.390897 
L 900.007138 285.708143 
L 900.391982 285.332629 
L 900.584405 284.991252 
L 900.776827 284.957115 
L 901.738937 284.069535 
L 902.316203 283.728158 
L 902.701047 283.420919 
L 903.85558 282.874717 
L 904.625268 281.748174 
L 905.010113 281.611623 
L 905.202535 281.304384 
L 905.394957 281.236109 
L 905.587379 280.997145 
L 905.779801 280.963007 
L 905.972223 280.587493 
L 906.741911 280.075428 
L 907.319178 279.631638 
L 908.088866 279.256124 
L 908.666132 278.778197 
L 909.243398 278.505095 
L 909.435821 278.197856 
L 909.820665 278.129581 
L 910.397931 277.583378 
L 910.590353 277.276139 
L 911.167619 277.003038 
L 911.552463 276.695799 
L 912.12973 276.52511 
L 912.514574 276.115458 
L 912.899418 275.978908 
L 913.284262 275.842357 
L 913.669106 275.36443 
L 914.438795 275.057191 
L 914.631217 273.486858 
L 915.593327 272.804105 
L 916.363016 271.438598 
L 916.555438 271.336185 
L 916.74786 270.892395 
L 917.132704 270.755845 
L 917.902392 269.595164 
L 918.287237 267.990693 
L 918.479659 267.478628 
L 918.864503 264.918303 
L 919.056925 263.894173 
L 920.019035 262.665217 
L 920.788724 259.626965 
L 920.981146 259.456276 
L 921.173568 258.978349 
L 921.36599 257.339741 
L 921.558412 256.725263 
L 921.750834 256.656988 
L 921.943256 255.905959 
L 922.520522 255.428031 
L 922.905367 254.1308 
L 923.867477 253.618735 
L 924.252321 253.209083 
L 924.829587 252.901844 
L 925.02201 252.799431 
L 925.406854 252.389779 
L 925.599276 252.014265 
L 925.791698 251.05841 
L 925.98412 250.682896 
L 926.368964 250.546345 
L 926.753808 250.375657 
L 927.138653 250.102555 
L 927.523497 249.863592 
L 928.293185 249.624628 
L 928.678029 249.385664 
L 928.870451 249.249114 
L 929.255295 249.214976 
L 931.756783 246.927752 
L 932.141627 246.825339 
L 932.526471 246.586375 
L 932.718893 246.483962 
L 932.911315 245.664658 
L 933.488581 245.118456 
L 933.873426 245.016043 
L 935.027958 244.094326 
L 935.412802 243.923637 
L 935.605224 243.855362 
L 935.990069 243.44571 
L 936.374913 243.377435 
L 936.567335 242.899507 
L 936.759757 242.728819 
L 936.952179 242.182616 
L 937.337023 241.943653 
L 937.914289 240.680559 
L 938.106711 239.997805 
L 938.683978 239.588153 
L 939.261244 238.837125 
L 939.646088 237.505756 
L 939.83851 237.096104 
L 940.030932 236.379213 
L 940.223354 236.310937 
L 940.415777 235.730597 
L 940.800621 235.491633 
L 941.955153 234.330953 
L 942.147575 233.853025 
L 942.724842 233.579924 
L 942.917264 233.101996 
L 944.071796 232.624069 
L 944.264218 231.907178 
L 944.649062 231.668214 
L 944.841485 231.224425 
L 945.033907 231.087874 
L 945.418751 231.053736 
L 946.573283 230.166157 
L 947.15055 229.722367 
L 947.535394 229.278578 
L 947.920238 228.937201 
L 948.11266 228.595824 
L 948.305082 227.844796 
L 949.459615 227.19618 
L 949.844459 226.376876 
L 950.229303 226.240325 
L 950.421725 225.72826 
L 950.614147 225.659985 
L 950.998991 225.045507 
L 952.73079 223.850688 
L 954.077745 222.280356 
L 954.270167 221.802428 
L 954.462589 220.983124 
L 954.847433 220.334509 
L 955.039855 219.924856 
L 956.001966 214.974895 
L 956.38681 214.258004 
L 956.579232 212.414569 
L 956.771654 208.864252 
L 956.964076 207.464608 
L 957.156498 205.211521 
L 957.34892 204.631181 
L 957.733764 202.070856 
L 958.118609 198.588814 
L 958.503453 193.911953 
L 958.888297 193.195062 
L 959.273141 187.152695 
L 959.465563 185.548225 
L 959.850407 178.652416 
L 960.042829 177.730699 
L 960.235252 177.355184 
L 960.427674 173.873142 
L 960.620096 173.087976 
L 961.00494 169.264557 
L 961.389784 158.989119 
L 961.774628 157.384648 
L 961.96705 154.175707 
L 962.159472 153.868468 
L 962.544317 148.679543 
L 962.736739 148.57713 
L 962.929161 148.235753 
L 963.314005 147.006797 
L 963.506427 146.767833 
L 963.698849 146.187493 
L 963.891271 145.095088 
L 964.276115 144.890262 
L 964.468537 144.344059 
L 964.853382 142.637176 
L 965.238226 139.359959 
L 965.430648 138.677206 
L 965.62307 138.608931 
L 965.815492 138.301692 
L 966.777602 135.39999 
L 966.970025 135.297577 
L 967.162447 134.614823 
L 967.547291 134.273447 
L 967.739713 134.136896 
L 967.932135 133.624831 
L 968.124557 133.454143 
L 968.701823 132.634839 
L 969.27909 131.781397 
L 969.663934 131.644846 
L 970.626044 130.381753 
L 971.010888 130.211064 
L 971.588155 130.142789 
L 971.972999 129.630724 
L 972.357843 129.528311 
L 972.935109 128.879695 
L 973.704798 128.435906 
L 974.474486 127.480051 
L 974.666908 126.967986 
L 975.436596 126.729022 
L 975.821441 126.387645 
L 976.206285 125.73903 
L 976.591129 125.431791 
L 976.783551 125.192827 
L 977.168395 123.793183 
L 977.360817 123.554219 
L 977.938084 123.315255 
L 978.322928 123.008016 
L 978.707772 122.632502 
L 979.092616 122.325263 
L 979.669882 121.847336 
L 979.862304 121.676647 
L 980.054726 120.857343 
L 980.631993 120.447691 
L 981.401681 119.525974 
L 981.978947 119.048047 
L 982.556214 118.535982 
L 982.941058 118.331156 
L 983.325902 118.023917 
L 983.903168 117.819091 
L 984.288012 116.624272 
L 984.480435 116.521859 
L 984.865279 115.941519 
L 985.634967 115.019802 
L 985.827389 114.917389 
L 986.404655 113.893259 
L 986.597077 112.971542 
L 986.7895 112.664303 
L 987.174344 112.527752 
L 987.366766 112.1181 
L 989.098565 110.786731 
L 989.483409 110.035702 
L 989.675831 109.933289 
L 989.868253 105.802631 
L 990.253097 105.119878 
L 990.637941 104.573675 
L 990.830363 104.129886 
L 991.022785 104.095748 
L 991.40763 103.549545 
L 991.600052 102.832654 
L 992.754584 101.330597 
L 992.947006 100.920945 
L 993.331851 98.531308 
L 993.524273 97.814417 
L 993.716695 96.653736 
L 993.909117 96.346497 
L 994.101539 94.40065 
L 994.486383 93.137557 
L 994.678805 92.113426 
L 995.448493 90.986883 
L 996.218182 89.28 
L 996.218182 89.28 
" clip-path="url(#p093f53e3cf)" style="fill: none; stroke: #1f77b4; stroke-width: 1.5; stroke-linecap: square"/>
   </g>
   <g id="patch_3">
    <path d="M 144 512.64 
L 144 69.12 
" style="fill: none; stroke: #000000; stroke-width: 0.8; stroke-linejoin: miter; stroke-linecap: square"/>
   </g>
   <g id="patch_4">
    <path d="M 1036.8 512.64 
L 1036.8 69.12 
" style="fill: none; stroke: #000000; stroke-width: 0.8; stroke-linejoin: miter; stroke-linecap: square"/>
   </g>
   <g id="patch_5">
    <path d="M 144 512.64 
L 1036.8 512.64 
" style="fill: none; stroke: #000000; stroke-width: 0.8; stroke-linejoin: miter; stroke-linecap: square"/>
   </g>
   <g id="patch_6">
    <path d="M 144 69.12 
L 1036.8 69.12 
" style="fill: none; stroke: #000000; stroke-width: 0.8; stroke-linejoin: miter; stroke-linecap: square"/>
   </g>
   <g id="text_15">
    <!-- Number of AEDs in the OpenStreetMap database in Poland from first edition, day by day. As at: 2025-08-29 -->
    <g transform="translate(144 63.12) scale(0.14 -0.14)">
     <defs>
      <path id="DejaVuSans-4e" d="M 628 4666 
L 1478 4666 
L 3547 763 
L 3547 4666 
L 4159 4666 
L 4159 0 
L 3309 0 
L 1241 3903 
L 1241 0 
L 628 0 
L 628 4666 
z
" transform="scale(0.015625)"/>
      <path id="DejaVuSans-75" d="M 544 1381 
L 544 3500 
L 1119 3500 
L 1119 1403 
Q 1119 906 1312 657 
Q 1506 409 1894 409 
Q 2359 409 2629 706 
Q 2900 1003 2900 1516 
L 2900 3500 
L 3475 3500 
L 3475 0 
L 2900 0 
L 2900 538 
Q 2691 219 2414 64 
Q 2138 -91 1772 -91 
Q 1169 -91 856 284 
Q 544 659 544 1381 
z
M 1991 3584 
L 1991 3584 
z
" transform="scale(0.015625)"/>
      <path id="DejaVuSans-6d" d="M 3328 2828 
Q 3544 3216 3844 3400 
Q 4144 3584 4550 3584 
Q 5097 3584 5394 3201 
Q 5691 2819 5691 2113 
L 5691 0 
L 5113 0 
L 5113 2094 
Q 5113 2597 4934 2840 
Q 4756 3084 4391 3084 
Q 3944 3084 3684 2787 
Q 3425 2491 3425 1978 
L 3425 0 
L 2847 0 
L 2847 2094 
Q 2847 2600 2669 2842 
Q 2491 3084 2119 3084 
Q 1678 3084 1418 2786 
Q 1159 2488 1159 1978 
L 1159 0 
L 581 0 
L 581 3500 
L 1159 3500 
L 1159 2956 
Q 1356 3278 1631 3431 
Q 1906 3584 2284 3584 
Q 2666 3584 2933 3390 
Q 3200 3197 3328 2828 
z
" transform="scale(0.015625)"/>
      <path id="DejaVuSans-62" d="M 3116 1747 
Q 3116 2381 2855 2742 
Q 2594 3103 2138 3103 
Q 1681 3103 1420 2742 
Q 1159 2381 1159 1747 
Q 1159 1113 1420 752 
Q 1681 391 2138 391 
Q 2594 391 2855 752 
Q 3116 1113 3116 1747 
z
M 1159 2969 
Q 1341 3281 1617 3432 
Q 1894 3584 2278 3584 
Q 2916 3584 3314 3078 
Q 3713 2572 3713 1747 
Q 3713 922 3314 415 
Q 2916 -91 2278 -91 
Q 1894 -91 1617 61 
Q 1341 213 1159 525 
L 1159 0 
L 581 0 
L 581 4863 
L 1159 4863 
L 1159 2969 
z
" transform="scale(0.015625)"/>
      <path id="DejaVuSans-65" d="M 3597 1894 
L 3597 1613 
L 953 1613 
Q 991 1019 1311 708 
Q 1631 397 2203 397 
Q 2534 397 2845 478 
Q 3156 559 3463 722 
L 3463 178 
Q 3153 47 2828 -22 
Q 2503 -91 2169 -91 
Q 1331 -91 842 396 
Q 353 884 353 1716 
Q 353 2575 817 3079 
Q 1281 3584 2069 3584 
Q 2775 3584 3186 3129 
Q 3597 2675 3597 1894 
z
M 3022 2063 
Q 3016 2534 2758 2815 
Q 2500 3097 2075 3097 
Q 1594 3097 1305 2825 
Q 1016 2553 972 2059 
L 3022 2063 
z
" transform="scale(0.015625)"/>
      <path id="DejaVuSans-72" d="M 2631 2963 
Q 2534 3019 2420 3045 
Q 2306 3072 2169 3072 
Q 1681 3072 1420 2755 
Q 1159 2438 1159 1844 
L 1159 0 
L 581 0 
L 581 3500 
L 1159 3500 
L 1159 2956 
Q 1341 3275 1631 3429 
Q 1922 3584 2338 3584 
Q 2397 3584 2469 3576 
Q 2541 3569 2628 3553 
L 2631 2963 
z
" transform="scale(0.015625)"/>
      <path id="DejaVuSans-20" transform="scale(0.015625)"/>
      <path id="DejaVuSans-6f" d="M 1959 3097 
Q 1497 3097 1228 2736 
Q 959 2375 959 1747 
Q 959 1119 1226 758 
Q 1494 397 1959 397 
Q 2419 397 2687 759 
Q 2956 1122 2956 1747 
Q 2956 2369 2687 2733 
Q 2419 3097 1959 3097 
z
M 1959 3584 
Q 2709 3584 3137 3096 
Q 3566 2609 3566 1747 
Q 3566 888 3137 398 
Q 2709 -91 1959 -91 
Q 1206 -91 779 398 
Q 353 888 353 1747 
Q 353 2609 779 3096 
Q 1206 3584 1959 3584 
z
" transform="scale(0.015625)"/>
      <path id="DejaVuSans-66" d="M 2375 4863 
L 2375 4384 
L 1825 4384 
Q 1516 4384 1395 4259 
Q 1275 4134 1275 3809 
L 1275 3500 
L 2222 3500 
L 2222 3053 
L 1275 3053 
L 1275 0 
L 697 0 
L 697 3053 
L 147 3053 
L 147 3500 
L 697 3500 
L 697 3744 
Q 697 4328 969 4595 
Q 1241 4863 1831 4863 
L 2375 4863 
z
" transform="scale(0.015625)"/>
      <path id="DejaVuSans-41" d="M 2188 4044 
L 1331 1722 
L 3047 1722 
L 2188 4044 
z
M 1831 4666 
L 2547 4666 
L 4325 0 
L 3669 0 
L 3244 1197 
L 1141 1197 
L 716 0 
L 50 0 
L 1831 4666 
z
" transform="scale(0.015625)"/>
      <path id="DejaVuSans-45" d="M 628 4666 
L 3578 4666 
L 3578 4134 
L 1259 4134 
L 1259 2753 
L 3481 2753 
L 3481 2222 
L 1259 2222 
L 1259 531 
L 3634 531 
L 3634 0 
L 628 0 
L 628 4666 
z
" transform="scale(0.015625)"/>
      <path id="DejaVuSans-44" d="M 1259 4147 
L 1259 519 
L 2022 519 
Q 2988 519 3436 956 
Q 3884 1394 3884 2338 
Q 3884 3275 3436 3711 
Q 2988 4147 2022 4147 
L 1259 4147 
z
M 628 4666 
L 1925 4666 
Q 3281 4666 3915 4102 
Q 4550 3538 4550 2338 
Q 4550 1131 3912 565 
Q 3275 0 1925 0 
L 628 0 
L 628 4666 
z
" transform="scale(0.015625)"/>
      <path id="DejaVuSans-73" d="M 2834 3397 
L 2834 2853 
Q 2591 2978 2328 3040 
Q 2066 3103 1784 3103 
Q 1356 3103 1142 2972 
Q 928 2841 928 2578 
Q 928 2378 1081 2264 
Q 1234 2150 1697 2047 
L 1894 2003 
Q 2506 1872 2764 1633 
Q 3022 1394 3022 966 
Q 3022 478 2636 193 
Q 2250 -91 1575 -91 
Q 1294 -91 989 -36 
Q 684 19 347 128 
L 347 722 
Q 666 556 975 473 
Q 1284 391 1588 391 
Q 1994 391 2212 530 
Q 2431 669 2431 922 
Q 2431 1156 2273 1281 
Q 2116 1406 1581 1522 
L 1381 1569 
Q 847 1681 609 1914 
Q 372 2147 372 2553 
Q 372 3047 722 3315 
Q 1072 3584 1716 3584 
Q 2034 3584 2315 3537 
Q 2597 3491 2834 3397 
z
" transform="scale(0.015625)"/>
      <path id="DejaVuSans-69" d="M 603 3500 
L 1178 3500 
L 1178 0 
L 603 0 
L 603 3500 
z
M 603 4863 
L 1178 4863 
L 1178 4134 
L 603 4134 
L 603 4863 
z
" transform="scale(0.015625)"/>
      <path id="DejaVuSans-6e" d="M 3513 2113 
L 3513 0 
L 2938 0 
L 2938 2094 
Q 2938 2591 2744 2837 
Q 2550 3084 2163 3084 
Q 1697 3084 1428 2787 
Q 1159 2491 1159 1978 
L 1159 0 
L 581 0 
L 581 3500 
L 1159 3500 
L 1159 2956 
Q 1366 3272 1645 3428 
Q 1925 3584 2291 3584 
Q 2894 3584 3203 3211 
Q 3513 2838 3513 2113 
z
" transform="scale(0.015625)"/>
      <path id="DejaVuSans-74" d="M 1172 4494 
L 1172 3500 
L 2356 3500 
L 2356 3053 
L 1172 3053 
L 1172 1153 
Q 1172 725 1289 603 
Q 1406 481 1766 481 
L 2356 481 
L 2356 0 
L 1766 0 
Q 1100 0 847 248 
Q 594 497 594 1153 
L 594 3053 
L 172 3053 
L 172 3500 
L 594 3500 
L 594 4494 
L 1172 4494 
z
" transform="scale(0.015625)"/>
      <path id="DejaVuSans-68" d="M 3513 2113 
L 3513 0 
L 2938 0 
L 2938 2094 
Q 2938 2591 2744 2837 
Q 2550 3084 2163 3084 
Q 1697 3084 1428 2787 
Q 1159 2491 1159 1978 
L 1159 0 
L 581 0 
L 581 4863 
L 1159 4863 
L 1159 2956 
Q 1366 3272 1645 3428 
Q 1925 3584 2291 3584 
Q 2894 3584 3203 3211 
Q 3513 2838 3513 2113 
z
" transform="scale(0.015625)"/>
      <path id="DejaVuSans-4f" d="M 2522 4238 
Q 1834 4238 1429 3725 
Q 1025 3213 1025 2328 
Q 1025 1447 1429 934 
Q 1834 422 2522 422 
Q 3209 422 3611 934 
Q 4013 1447 4013 2328 
Q 4013 3213 3611 3725 
Q 3209 4238 2522 4238 
z
M 2522 4750 
Q 3503 4750 4090 4092 
Q 4678 3434 4678 2328 
Q 4678 1225 4090 567 
Q 3503 -91 2522 -91 
Q 1538 -91 948 565 
Q 359 1222 359 2328 
Q 359 3434 948 4092 
Q 1538 4750 2522 4750 
z
" transform="scale(0.015625)"/>
      <path id="DejaVuSans-70" d="M 1159 525 
L 1159 -1331 
L 581 -1331 
L 581 3500 
L 1159 3500 
L 1159 2969 
Q 1341 3281 1617 3432 
Q 1894 3584 2278 3584 
Q 2916 3584 3314 3078 
Q 3713 2572 3713 1747 
Q 3713 922 3314 415 
Q 2916 -91 2278 -91 
Q 1894 -91 1617 61 
Q 1341 213 1159 525 
z
M 3116 1747 
Q 3116 2381 2855 2742 
Q 2594 3103 2138 3103 
Q 1681 3103 1420 2742 
Q 1159 2381 1159 1747 
Q 1159 1113 1420 752 
Q 1681 391 2138 391 
Q 2594 391 2855 752 
Q 3116 1113 3116 1747 
z
" transform="scale(0.015625)"/>
      <path id="DejaVuSans-53" d="M 3425 4513 
L 3425 3897 
Q 3066 4069 2747 4153 
Q 2428 4238 2131 4238 
Q 1616 4238 1336 4038 
Q 1056 3838 1056 3469 
Q 1056 3159 1242 3001 
Q 1428 2844 1947 2747 
L 2328 2669 
Q 3034 2534 3370 2195 
Q 3706 1856 3706 1288 
Q 3706 609 3251 259 
Q 2797 -91 1919 -91 
Q 1588 -91 1214 -16 
Q 841 59 441 206 
L 441 856 
Q 825 641 1194 531 
Q 1563 422 1919 422 
Q 2459 422 2753 634 
Q 3047 847 3047 1241 
Q 3047 1584 2836 1778 
Q 2625 1972 2144 2069 
L 1759 2144 
Q 1053 2284 737 2584 
Q 422 2884 422 3419 
Q 422 4038 858 4394 
Q 1294 4750 2059 4750 
Q 2388 4750 2728 4690 
Q 3069 4631 3425 4513 
z
" transform="scale(0.015625)"/>
      <path id="DejaVuSans-4d" d="M 628 4666 
L 1569 4666 
L 2759 1491 
L 3956 4666 
L 4897 4666 
L 4897 0 
L 4281 0 
L 4281 4097 
L 3078 897 
L 2444 897 
L 1241 4097 
L 1241 0 
L 628 0 
L 628 4666 
z
" transform="scale(0.015625)"/>
      <path id="DejaVuSans-61" d="M 2194 1759 
Q 1497 1759 1228 1600 
Q 959 1441 959 1056 
Q 959 750 1161 570 
Q 1363 391 1709 391 
Q 2188 391 2477 730 
Q 2766 1069 2766 1631 
L 2766 1759 
L 2194 1759 
z
M 3341 1997 
L 3341 0 
L 2766 0 
L 2766 531 
Q 2569 213 2275 61 
Q 1981 -91 1556 -91 
Q 1019 -91 701 211 
Q 384 513 384 1019 
Q 384 1609 779 1909 
Q 1175 2209 1959 2209 
L 2766 2209 
L 2766 2266 
Q 2766 2663 2505 2880 
Q 2244 3097 1772 3097 
Q 1472 3097 1187 3025 
Q 903 2953 641 2809 
L 641 3341 
Q 956 3463 1253 3523 
Q 1550 3584 1831 3584 
Q 2591 3584 2966 3190 
Q 3341 2797 3341 1997 
z
" transform="scale(0.015625)"/>
      <path id="DejaVuSans-64" d="M 2906 2969 
L 2906 4863 
L 3481 4863 
L 3481 0 
L 2906 0 
L 2906 525 
Q 2725 213 2448 61 
Q 2172 -91 1784 -91 
Q 1150 -91 751 415 
Q 353 922 353 1747 
Q 353 2572 751 3078 
Q 1150 3584 1784 3584 
Q 2172 3584 2448 3432 
Q 2725 3281 2906 2969 
z
M 947 1747 
Q 947 1113 1208 752 
Q 1469 391 1925 391 
Q 2381 391 2643 752 
Q 2906 1113 2906 1747 
Q 2906 2381 2643 2742 
Q 2381 3103 1925 3103 
Q 1469 3103 1208 2742 
Q 947 2381 947 1747 
z
" transform="scale(0.015625)"/>
      <path id="DejaVuSans-50" d="M 1259 4147 
L 1259 2394 
L 2053 2394 
Q 2494 2394 2734 2622 
Q 2975 2850 2975 3272 
Q 2975 3691 2734 3919 
Q 2494 4147 2053 4147 
L 1259 4147 
z
M 628 4666 
L 2053 4666 
Q 2838 4666 3239 4311 
Q 3641 3956 3641 3272 
Q 3641 2581 3239 2228 
Q 2838 1875 2053 1875 
L 1259 1875 
L 1259 0 
L 628 0 
L 628 4666 
z
" transform="scale(0.015625)"/>
      <path id="DejaVuSans-6c" d="M 603 4863 
L 1178 4863 
L 1178 0 
L 603 0 
L 603 4863 
z
" transform="scale(0.015625)"/>
      <path id="DejaVuSans-2c" d="M 750 794 
L 1409 794 
L 1409 256 
L 897 -744 
L 494 -744 
L 750 256 
L 750 794 
z
" transform="scale(0.015625)"/>
      <path id="DejaVuSans-79" d="M 2059 -325 
Q 1816 -950 1584 -1140 
Q 1353 -1331 966 -1331 
L 506 -1331 
L 506 -850 
L 844 -850 
Q 1081 -850 1212 -737 
Q 1344 -625 1503 -206 
L 1606 56 
L 191 3500 
L 800 3500 
L 1894 763 
L 2988 3500 
L 3597 3500 
L 2059 -325 
z
" transform="scale(0.015625)"/>
      <path id="DejaVuSans-2e" d="M 684 794 
L 1344 794 
L 1344 0 
L 684 0 
L 684 794 
z
" transform="scale(0.015625)"/>
      <path id="DejaVuSans-3a" d="M 750 794 
L 1409 794 
L 1409 0 
L 750 0 
L 750 794 
z
M 750 3309 
L 1409 3309 
L 1409 2516 
L 750 2516 
L 750 3309 
z
" transform="scale(0.015625)"/>
      <path id="DejaVuSans-35" d="M 691 4666 
L 3169 4666 
L 3169 4134 
L 1269 4134 
L 1269 2991 
Q 1406 3038 1543 3061 
Q 1681 3084 1819 3084 
Q 2600 3084 3056 2656 
Q 3513 2228 3513 1497 
Q 3513 744 3044 326 
Q 2575 -91 1722 -91 
Q 1428 -91 1123 -41 
Q 819 9 494 109 
L 494 744 
Q 775 591 1075 516 
Q 1375 441 1709 441 
Q 2250 441 2565 725 
Q 2881 1009 2881 1497 
Q 2881 1984 2565 2268 
Q 2250 2553 1709 2553 
Q 1456 2553 1204 2497 
Q 953 2441 691 2322 
L 691 4666 
z
" transform="scale(0.015625)"/>
      <path id="DejaVuSans-2d" d="M 313 2009 
L 1997 2009 
L 1997 1497 
L 313 1497 
L 313 2009 
z
" transform="scale(0.015625)"/>
      <path id="DejaVuSans-39" d="M 703 97 
L 703 672 
Q 941 559 1184 500 
Q 1428 441 1663 441 
Q 2288 441 2617 861 
Q 2947 1281 2994 2138 
Q 2813 1869 2534 1725 
Q 2256 1581 1919 1581 
Q 1219 1581 811 2004 
Q 403 2428 403 3163 
Q 403 3881 828 4315 
Q 1253 4750 1959 4750 
Q 2769 4750 3195 4129 
Q 3622 3509 3622 2328 
Q 3622 1225 3098 567 
Q 2575 -91 1691 -91 
Q 1453 -91 1209 -44 
Q 966 3 703 97 
z
M 1959 2075 
Q 2384 2075 2632 2365 
Q 2881 2656 2881 3163 
Q 2881 3666 2632 3958 
Q 2384 4250 1959 4250 
Q 1534 4250 1286 3958 
Q 1038 3666 1038 3163 
Q 1038 2656 1286 2365 
Q 1534 2075 1959 2075 
z
" transform="scale(0.015625)"/>
     </defs>
     <use xlink:href="#DejaVuSans-4e"/>
     <use xlink:href="#DejaVuSans-75" x="74.804688"/>
     <use xlink:href="#DejaVuSans-6d" x="138.183594"/>
     <use xlink:href="#DejaVuSans-62" x="235.595703"/>
     <use xlink:href="#DejaVuSans-65" x="299.072266"/>
     <use xlink:href="#DejaVuSans-72" x="360.595703"/>
     <use xlink:href="#DejaVuSans-20" x="401.708984"/>
     <use xlink:href="#DejaVuSans-6f" x="433.496094"/>
     <use xlink:href="#DejaVuSans-66" x="494.677734"/>
     <use xlink:href="#DejaVuSans-20" x="529.882812"/>
     <use xlink:href="#DejaVuSans-41" x="561.669922"/>
     <use xlink:href="#DejaVuSans-45" x="630.078125"/>
     <use xlink:href="#DejaVuSans-44" x="693.261719"/>
     <use xlink:href="#DejaVuSans-73" x="770.263672"/>
     <use xlink:href="#DejaVuSans-20" x="822.363281"/>
     <use xlink:href="#DejaVuSans-69" x="854.150391"/>
     <use xlink:href="#DejaVuSans-6e" x="881.933594"/>
     <use xlink:href="#DejaVuSans-20" x="945.3125"/>
     <use xlink:href="#DejaVuSans-74" x="977.099609"/>
     <use xlink:href="#DejaVuSans-68" x="1016.308594"/>
     <use xlink:href="#DejaVuSans-65" x="1079.6875"/>
     <use xlink:href="#DejaVuSans-20" x="1141.210938"/>
     <use xlink:href="#DejaVuSans-4f" x="1172.998047"/>
     <use xlink:href="#DejaVuSans-70" x="1251.708984"/>
     <use xlink:href="#DejaVuSans-65" x="1315.185547"/>
     <use xlink:href="#DejaVuSans-6e" x="1376.708984"/>
     <use xlink:href="#DejaVuSans-53" x="1440.087891"/>
     <use xlink:href="#DejaVuSans-74" x="1503.564453"/>
     <use xlink:href="#DejaVuSans-72" x="1542.773438"/>
     <use xlink:href="#DejaVuSans-65" x="1581.636719"/>
     <use xlink:href="#DejaVuSans-65" x="1643.160156"/>
     <use xlink:href="#DejaVuSans-74" x="1704.683594"/>
     <use xlink:href="#DejaVuSans-4d" x="1743.892578"/>
     <use xlink:href="#DejaVuSans-61" x="1830.171875"/>
     <use xlink:href="#DejaVuSans-70" x="1891.451172"/>
     <use xlink:href="#DejaVuSans-20" x="1954.927734"/>
     <use xlink:href="#DejaVuSans-64" x="1986.714844"/>
     <use xlink:href="#DejaVuSans-61" x="2050.191406"/>
     <use xlink:href="#DejaVuSans-74" x="2111.470703"/>
     <use xlink:href="#DejaVuSans-61" x="2150.679688"/>
     <use xlink:href="#DejaVuSans-62" x="2211.958984"/>
     <use xlink:href="#DejaVuSans-61" x="2275.435547"/>
     <use xlink:href="#DejaVuSans-73" x="2336.714844"/>
     <use xlink:href="#DejaVuSans-65" x="2388.814453"/>
     <use xlink:href="#DejaVuSans-20" x="2450.337891"/>
     <use xlink:href="#DejaVuSans-69" x="2482.125"/>
     <use xlink:href="#DejaVuSans-6e" x="2509.908203"/>
     <use xlink:href="#DejaVuSans-20" x="2573.287109"/>
     <use xlink:href="#DejaVuSans-50" x="2605.074219"/>
     <use xlink:href="#DejaVuSans-6f" x="2661.751953"/>
     <use xlink:href="#DejaVuSans-6c" x="2722.933594"/>
     <use xlink:href="#DejaVuSans-61" x="2750.716797"/>
     <use xlink:href="#DejaVuSans-6e" x="2811.996094"/>
     <use xlink:href="#DejaVuSans-64" x="2875.375"/>
     <use xlink:href="#DejaVuSans-20" x="2938.851562"/>
     <use xlink:href="#DejaVuSans-66" x="2970.638672"/>
     <use xlink:href="#DejaVuSans-72" x="3005.84375"/>
     <use xlink:href="#DejaVuSans-6f" x="3044.707031"/>
     <use xlink:href="#DejaVuSans-6d" x="3105.888672"/>
     <use xlink:href="#DejaVuSans-20" x="3203.300781"/>
     <use xlink:href="#DejaVuSans-66" x="3235.087891"/>
     <use xlink:href="#DejaVuSans-69" x="3270.292969"/>
     <use xlink:href="#DejaVuSans-72" x="3298.076172"/>
     <use xlink:href="#DejaVuSans-73" x="3339.189453"/>
     <use xlink:href="#DejaVuSans-74" x="3391.289062"/>
     <use xlink:href="#DejaVuSans-20" x="3430.498047"/>
     <use xlink:href="#DejaVuSans-65" x="3462.285156"/>
     <use xlink:href="#DejaVuSans-64" x="3523.808594"/>
     <use xlink:href="#DejaVuSans-69" x="3587.285156"/>
     <use xlink:href="#DejaVuSans-74" x="3615.068359"/>
     <use xlink:href="#DejaVuSans-69" x="3654.277344"/>
     <use xlink:href="#DejaVuSans-6f" x="3682.060547"/>
     <use xlink:href="#DejaVuSans-6e" x="3743.242188"/>
     <use xlink:href="#DejaVuSans-2c" x="3806.621094"/>
     <use xlink:href="#DejaVuSans-20" x="3838.408203"/>
     <use xlink:href="#DejaVuSans-64" x="3870.195312"/>
     <use xlink:href="#DejaVuSans-61" x="3933.671875"/>
     <use xlink:href="#DejaVuSans-79" x="3994.951172"/>
     <use xlink:href="#DejaVuSans-20" x="4054.130859"/>
     <use xlink:href="#DejaVuSans-62" x="4085.917969"/>
     <use xlink:href="#DejaVuSans-79" x="4149.394531"/>
     <use xlink:href="#DejaVuSans-20" x="4208.574219"/>
     <use xlink:href="#DejaVuSans-64" x="4240.361328"/>
     <use xlink:href="#DejaVuSans-61" x="4303.837891"/>
     <use xlink:href="#DejaVuSans-79" x="4365.117188"/>
     <use xlink:href="#DejaVuSans-2e" x="4410.046875"/>
     <use xlink:href="#DejaVuSans-20" x="4441.833984"/>
     <use xlink:href="#DejaVuSans-41" x="4473.621094"/>
     <use xlink:href="#DejaVuSans-73" x="4542.029297"/>
     <use xlink:href="#DejaVuSans-20" x="4594.128906"/>
     <use xlink:href="#DejaVuSans-61" x="4625.916016"/>
     <use xlink:href="#DejaVuSans-74" x="4687.195312"/>
     <use xlink:href="#DejaVuSans-3a" x="4726.404297"/>
     <use xlink:href="#DejaVuSans-20" x="4760.095703"/>
     <use xlink:href="#DejaVuSans-32" x="4791.882812"/>
     <use xlink:href="#DejaVuSans-30" x="4855.505859"/>
     <use xlink:href="#DejaVuSans-32" x="4919.128906"/>
     <use xlink:href="#DejaVuSans-35" x="4982.751953"/>
     <use xlink:href="#DejaVuSans-2d" x="5046.375"/>
     <use xlink:href="#DejaVuSans-30" x="5082.458984"/>
     <use xlink:href="#DejaVuSans-38" x="5146.082031"/>
     <use xlink:href="#DejaVuSans-2d" x="5209.705078"/>
     <use xlink:href="#DejaVuSans-32" x="5245.789062"/>
     <use xlink:href="#DejaVuSans-39" x="5309.412109"/>
    </g>
   </g>
  </g>
 </g>
 <defs>
  <clipPath id="p093f53e3cf">
   <rect x="144" y="69.12" width="892.8" height="443.52"/>
  </clipPath>
 </defs>
</svg>
