<?xml version="1.0" encoding="utf-8" standalone="no"?>
<!DOCTYPE svg PUBLIC "-//W3C//DTD SVG 1.1//EN"
  "http://www.w3.org/Graphics/SVG/1.1/DTD/svg11.dtd">
<svg xmlns:xlink="http://www.w3.org/1999/xlink" width="1152pt" height="576pt" viewBox="0 0 1152 576" xmlns="http://www.w3.org/2000/svg" version="1.1">
 <metadata>
  <rdf:RDF xmlns:dc="http://purl.org/dc/elements/1.1/" xmlns:cc="http://creativecommons.org/ns#" xmlns:rdf="http://www.w3.org/1999/02/22-rdf-syntax-ns#">
   <cc:Work>
    <dc:type rdf:resource="http://purl.org/dc/dcmitype/StillImage"/>
    <dc:date>1980-01-01T00:00:00+00:00</dc:date>
    <dc:format>image/svg+xml</dc:format>
    <dc:creator>
     <cc:Agent>
      <dc:title>Matplotlib v3.9.1, https://matplotlib.org/</dc:title>
     </cc:Agent>
    </dc:creator>
   </cc:Work>
  </rdf:RDF>
 </metadata>
 <defs>
  <style type="text/css">*{stroke-linejoin: round; stroke-linecap: butt}</style>
 </defs>
 <g id="figure_1">
  <g id="patch_1">
   <path d="M 0 576 
L 1152 576 
L 1152 0 
L 0 0 
z
" style="fill: #ffffff"/>
  </g>
  <g id="axes_1">
   <g id="patch_2">
    <path d="M 144 512.64 
L 1036.8 512.64 
L 1036.8 69.12 
L 144 69.12 
z
" style="fill: #ffffff"/>
   </g>
   <g id="matplotlib.axis_1">
    <g id="xtick_1">
     <g id="line2d_1">
      <defs>
       <path id="m11a145536c" d="M 0 0 
L 0 3.5 
" style="stroke: #000000; stroke-width: 0.8"/>
      </defs>
      <g>
       <use xlink:href="#m11a145536c" x="176.483675" y="512.64" style="stroke: #000000; stroke-width: 0.8"/>
      </g>
     </g>
     <g id="text_1">
      <!-- 2014 -->
      <g transform="translate(163.758675 527.238438) scale(0.1 -0.1)">
       <defs>
        <path id="DejaVuSans-32" d="M 1228 531 
L 3431 531 
L 3431 0 
L 469 0 
L 469 531 
Q 828 903 1448 1529 
Q 2069 2156 2228 2338 
Q 2531 2678 2651 2914 
Q 2772 3150 2772 3378 
Q 2772 3750 2511 3984 
Q 2250 4219 1831 4219 
Q 1534 4219 1204 4116 
Q 875 4013 500 3803 
L 500 4441 
Q 881 4594 1212 4672 
Q 1544 4750 1819 4750 
Q 2544 4750 2975 4387 
Q 3406 4025 3406 3419 
Q 3406 3131 3298 2873 
Q 3191 2616 2906 2266 
Q 2828 2175 2409 1742 
Q 1991 1309 1228 531 
z
" transform="scale(0.015625)"/>
        <path id="DejaVuSans-30" d="M 2034 4250 
Q 1547 4250 1301 3770 
Q 1056 3291 1056 2328 
Q 1056 1369 1301 889 
Q 1547 409 2034 409 
Q 2525 409 2770 889 
Q 3016 1369 3016 2328 
Q 3016 3291 2770 3770 
Q 2525 4250 2034 4250 
z
M 2034 4750 
Q 2819 4750 3233 4129 
Q 3647 3509 3647 2328 
Q 3647 1150 3233 529 
Q 2819 -91 2034 -91 
Q 1250 -91 836 529 
Q 422 1150 422 2328 
Q 422 3509 836 4129 
Q 1250 4750 2034 4750 
z
" transform="scale(0.015625)"/>
        <path id="DejaVuSans-31" d="M 794 531 
L 1825 531 
L 1825 4091 
L 703 3866 
L 703 4441 
L 1819 4666 
L 2450 4666 
L 2450 531 
L 3481 531 
L 3481 0 
L 794 0 
L 794 531 
z
" transform="scale(0.015625)"/>
        <path id="DejaVuSans-34" d="M 2419 4116 
L 825 1625 
L 2419 1625 
L 2419 4116 
z
M 2253 4666 
L 3047 4666 
L 3047 1625 
L 3713 1625 
L 3713 1100 
L 3047 1100 
L 3047 0 
L 2419 0 
L 2419 1100 
L 313 1100 
L 313 1709 
L 2253 4666 
z
" transform="scale(0.015625)"/>
       </defs>
       <use xlink:href="#DejaVuSans-32"/>
       <use xlink:href="#DejaVuSans-30" x="63.623047"/>
       <use xlink:href="#DejaVuSans-31" x="127.246094"/>
       <use xlink:href="#DejaVuSans-34" x="190.869141"/>
      </g>
     </g>
    </g>
    <g id="xtick_2">
     <g id="line2d_2">
      <g>
       <use xlink:href="#m11a145536c" x="324.274782" y="512.64" style="stroke: #000000; stroke-width: 0.8"/>
      </g>
     </g>
     <g id="text_2">
      <!-- 2016 -->
      <g transform="translate(311.549782 527.238438) scale(0.1 -0.1)">
       <defs>
        <path id="DejaVuSans-36" d="M 2113 2584 
Q 1688 2584 1439 2293 
Q 1191 2003 1191 1497 
Q 1191 994 1439 701 
Q 1688 409 2113 409 
Q 2538 409 2786 701 
Q 3034 994 3034 1497 
Q 3034 2003 2786 2293 
Q 2538 2584 2113 2584 
z
M 3366 4563 
L 3366 3988 
Q 3128 4100 2886 4159 
Q 2644 4219 2406 4219 
Q 1781 4219 1451 3797 
Q 1122 3375 1075 2522 
Q 1259 2794 1537 2939 
Q 1816 3084 2150 3084 
Q 2853 3084 3261 2657 
Q 3669 2231 3669 1497 
Q 3669 778 3244 343 
Q 2819 -91 2113 -91 
Q 1303 -91 875 529 
Q 447 1150 447 2328 
Q 447 3434 972 4092 
Q 1497 4750 2381 4750 
Q 2619 4750 2861 4703 
Q 3103 4656 3366 4563 
z
" transform="scale(0.015625)"/>
       </defs>
       <use xlink:href="#DejaVuSans-32"/>
       <use xlink:href="#DejaVuSans-30" x="63.623047"/>
       <use xlink:href="#DejaVuSans-31" x="127.246094"/>
       <use xlink:href="#DejaVuSans-36" x="190.869141"/>
      </g>
     </g>
    </g>
    <g id="xtick_3">
     <g id="line2d_3">
      <g>
       <use xlink:href="#m11a145536c" x="472.268342" y="512.64" style="stroke: #000000; stroke-width: 0.8"/>
      </g>
     </g>
     <g id="text_3">
      <!-- 2018 -->
      <g transform="translate(459.543342 527.238438) scale(0.1 -0.1)">
       <defs>
        <path id="DejaVuSans-38" d="M 2034 2216 
Q 1584 2216 1326 1975 
Q 1069 1734 1069 1313 
Q 1069 891 1326 650 
Q 1584 409 2034 409 
Q 2484 409 2743 651 
Q 3003 894 3003 1313 
Q 3003 1734 2745 1975 
Q 2488 2216 2034 2216 
z
M 1403 2484 
Q 997 2584 770 2862 
Q 544 3141 544 3541 
Q 544 4100 942 4425 
Q 1341 4750 2034 4750 
Q 2731 4750 3128 4425 
Q 3525 4100 3525 3541 
Q 3525 3141 3298 2862 
Q 3072 2584 2669 2484 
Q 3125 2378 3379 2068 
Q 3634 1759 3634 1313 
Q 3634 634 3220 271 
Q 2806 -91 2034 -91 
Q 1263 -91 848 271 
Q 434 634 434 1313 
Q 434 1759 690 2068 
Q 947 2378 1403 2484 
z
M 1172 3481 
Q 1172 3119 1398 2916 
Q 1625 2713 2034 2713 
Q 2441 2713 2670 2916 
Q 2900 3119 2900 3481 
Q 2900 3844 2670 4047 
Q 2441 4250 2034 4250 
Q 1625 4250 1398 4047 
Q 1172 3844 1172 3481 
z
" transform="scale(0.015625)"/>
       </defs>
       <use xlink:href="#DejaVuSans-32"/>
       <use xlink:href="#DejaVuSans-30" x="63.623047"/>
       <use xlink:href="#DejaVuSans-31" x="127.246094"/>
       <use xlink:href="#DejaVuSans-38" x="190.869141"/>
      </g>
     </g>
    </g>
    <g id="xtick_4">
     <g id="line2d_4">
      <g>
       <use xlink:href="#m11a145536c" x="620.059448" y="512.64" style="stroke: #000000; stroke-width: 0.8"/>
      </g>
     </g>
     <g id="text_4">
      <!-- 2020 -->
      <g transform="translate(607.334448 527.238438) scale(0.1 -0.1)">
       <use xlink:href="#DejaVuSans-32"/>
       <use xlink:href="#DejaVuSans-30" x="63.623047"/>
       <use xlink:href="#DejaVuSans-32" x="127.246094"/>
       <use xlink:href="#DejaVuSans-30" x="190.869141"/>
      </g>
     </g>
    </g>
    <g id="xtick_5">
     <g id="line2d_5">
      <g>
       <use xlink:href="#m11a145536c" x="768.053008" y="512.64" style="stroke: #000000; stroke-width: 0.8"/>
      </g>
     </g>
     <g id="text_5">
      <!-- 2022 -->
      <g transform="translate(755.328008 527.238438) scale(0.1 -0.1)">
       <use xlink:href="#DejaVuSans-32"/>
       <use xlink:href="#DejaVuSans-30" x="63.623047"/>
       <use xlink:href="#DejaVuSans-32" x="127.246094"/>
       <use xlink:href="#DejaVuSans-32" x="190.869141"/>
      </g>
     </g>
    </g>
    <g id="xtick_6">
     <g id="line2d_6">
      <g>
       <use xlink:href="#m11a145536c" x="915.844114" y="512.64" style="stroke: #000000; stroke-width: 0.8"/>
      </g>
     </g>
     <g id="text_6">
      <!-- 2024 -->
      <g transform="translate(903.119114 527.238438) scale(0.1 -0.1)">
       <use xlink:href="#DejaVuSans-32"/>
       <use xlink:href="#DejaVuSans-30" x="63.623047"/>
       <use xlink:href="#DejaVuSans-32" x="127.246094"/>
       <use xlink:href="#DejaVuSans-34" x="190.869141"/>
      </g>
     </g>
    </g>
   </g>
   <g id="matplotlib.axis_2">
    <g id="ytick_1">
     <g id="line2d_7">
      <defs>
       <path id="me926b766e1" d="M 0 0 
L -3.5 0 
" style="stroke: #000000; stroke-width: 0.8"/>
      </defs>
      <g>
       <use xlink:href="#me926b766e1" x="144" y="492.526027" style="stroke: #000000; stroke-width: 0.8"/>
      </g>
     </g>
     <g id="text_7">
      <!-- 0 -->
      <g transform="translate(130.6375 496.325246) scale(0.1 -0.1)">
       <use xlink:href="#DejaVuSans-30"/>
      </g>
     </g>
    </g>
    <g id="ytick_2">
     <g id="line2d_8">
      <g>
       <use xlink:href="#me926b766e1" x="144" y="400.471233" style="stroke: #000000; stroke-width: 0.8"/>
      </g>
     </g>
     <g id="text_8">
      <!-- 2000 -->
      <g transform="translate(111.55 404.270452) scale(0.1 -0.1)">
       <use xlink:href="#DejaVuSans-32"/>
       <use xlink:href="#DejaVuSans-30" x="63.623047"/>
       <use xlink:href="#DejaVuSans-30" x="127.246094"/>
       <use xlink:href="#DejaVuSans-30" x="190.869141"/>
      </g>
     </g>
    </g>
    <g id="ytick_3">
     <g id="line2d_9">
      <g>
       <use xlink:href="#me926b766e1" x="144" y="308.416438" style="stroke: #000000; stroke-width: 0.8"/>
      </g>
     </g>
     <g id="text_9">
      <!-- 4000 -->
      <g transform="translate(111.55 312.215657) scale(0.1 -0.1)">
       <use xlink:href="#DejaVuSans-34"/>
       <use xlink:href="#DejaVuSans-30" x="63.623047"/>
       <use xlink:href="#DejaVuSans-30" x="127.246094"/>
       <use xlink:href="#DejaVuSans-30" x="190.869141"/>
      </g>
     </g>
    </g>
    <g id="ytick_4">
     <g id="line2d_10">
      <g>
       <use xlink:href="#me926b766e1" x="144" y="216.361644" style="stroke: #000000; stroke-width: 0.8"/>
      </g>
     </g>
     <g id="text_10">
      <!-- 6000 -->
      <g transform="translate(111.55 220.160863) scale(0.1 -0.1)">
       <use xlink:href="#DejaVuSans-36"/>
       <use xlink:href="#DejaVuSans-30" x="63.623047"/>
       <use xlink:href="#DejaVuSans-30" x="127.246094"/>
       <use xlink:href="#DejaVuSans-30" x="190.869141"/>
      </g>
     </g>
    </g>
    <g id="ytick_5">
     <g id="line2d_11">
      <g>
       <use xlink:href="#me926b766e1" x="144" y="124.306849" style="stroke: #000000; stroke-width: 0.8"/>
      </g>
     </g>
     <g id="text_11">
      <!-- 8000 -->
      <g transform="translate(111.55 128.106068) scale(0.1 -0.1)">
       <use xlink:href="#DejaVuSans-38"/>
       <use xlink:href="#DejaVuSans-30" x="63.623047"/>
       <use xlink:href="#DejaVuSans-30" x="127.246094"/>
       <use xlink:href="#DejaVuSans-30" x="190.869141"/>
      </g>
     </g>
    </g>
   </g>
   <g id="line2d_12">
    <path d="M 184.581818 492.48 
L 186.4039 492.387945 
L 400.397324 491.973699 
L 453.237706 491.835616 
L 478.746856 491.743562 
L 510.532066 491.605479 
L 530.57497 491.375342 
L 561.550366 491.191233 
L 604.672977 490.684932 
L 626.133055 490.546849 
L 626.740416 490.500822 
L 627.145323 490.132603 
L 631.396848 489.902466 
L 666.421316 489.764384 
L 668.850759 489.626301 
L 671.077748 489.580274 
L 683.224962 489.488219 
L 687.678941 489.30411 
L 703.672773 489.12 
L 710.151287 488.93589 
L 713.997905 488.751781 
L 723.108315 488.521644 
L 728.574562 488.107397 
L 729.991737 487.87726 
L 735.86289 487.693151 
L 742.138951 487.370959 
L 748.819919 486.726575 
L 753.476351 486.542466 
L 759.347504 486.404384 
L 764.20639 484.425205 
L 764.408844 484.241096 
L 766.230926 484.010959 
L 766.838287 483.320548 
L 767.04074 483.274521 
L 767.243194 482.123836 
L 767.445647 481.893699 
L 767.850554 481.801644 
L 768.053008 480.236712 
L 769.267729 479.500274 
L 769.672637 478.717808 
L 769.87509 478.625753 
L 770.077544 478.395616 
L 770.279997 477.659178 
L 770.482451 475.772055 
L 770.684904 475.265753 
L 770.887358 474.299178 
L 771.089812 472.734247 
L 771.292265 470.064658 
L 771.697172 467.993425 
L 771.899626 467.625205 
L 772.102079 461.457534 
L 772.304533 458.88 
L 772.506987 457.913425 
L 772.70944 453.264658 
L 773.316801 448.017534 
L 773.519254 447.833425 
L 773.924162 445.209863 
L 774.126615 444.243288 
L 774.329069 437.47726 
L 774.531522 436.878904 
L 774.936429 434.623562 
L 775.138883 434.485479 
L 775.341337 433.334795 
L 775.54379 428.501918 
L 775.746244 427.305205 
L 775.948697 427.167123 
L 776.151151 423.438904 
L 776.353604 422.702466 
L 776.758512 422.472329 
L 777.568326 418.974247 
L 777.973233 418.007671 
L 778.37814 415.2 
L 778.580594 414.14137 
L 778.783047 408.802192 
L 779.390408 402.864658 
L 779.592862 402.81863 
L 780.402676 402.266301 
L 781.21249 400.287123 
L 781.617397 400.103014 
L 782.022304 395.914521 
L 782.224758 395.868493 
L 782.629665 395.178082 
L 782.832119 393.060822 
L 783.034572 392.416438 
L 783.237026 392.186301 
L 783.641933 390.897534 
L 784.04684 390.713425 
L 784.249294 390.483288 
L 784.451747 390.069041 
L 785.059108 387.07726 
L 785.261561 386.893151 
L 785.666469 386.156712 
L 786.071376 385.926575 
L 786.476283 385.650411 
L 786.678736 383.671233 
L 786.88119 383.533151 
L 787.083644 383.164932 
L 787.286097 379.252603 
L 787.691004 379.114521 
L 788.095911 378.05589 
L 788.298365 377.135342 
L 788.905726 376.951233 
L 789.513086 375.524384 
L 789.71554 375.478356 
L 790.120447 374.69589 
L 790.525354 374.511781 
L 790.727808 370.231233 
L 791.537622 369.955068 
L 792.144983 369.586849 
L 792.347436 369.448767 
L 793.157251 369.310685 
L 793.359704 368.988493 
L 795.789147 368.067945 
L 796.598961 367.331507 
L 797.611229 367.147397 
L 798.016136 366.779178 
L 798.421044 366.595068 
L 799.838219 366.180822 
L 800.040672 365.996712 
L 800.445579 365.812603 
L 801.255394 361.670137 
L 802.267661 361.486027 
L 802.672569 361.163836 
L 804.089744 360.933699 
L 804.494651 360.749589 
L 804.697104 360.657534 
L 804.899558 359.875068 
L 805.911826 359.783014 
L 806.519186 359.368767 
L 807.126547 359.092603 
L 807.329001 359.046575 
L 807.531454 358.816438 
L 807.733908 358.770411 
L 808.138815 358.26411 
L 808.543722 358.08 
L 808.746176 357.757808 
L 809.353536 357.435616 
L 809.55599 357.343562 
L 810.568258 357.159452 
L 810.770711 356.83726 
L 811.175618 356.791233 
L 811.378072 355.916712 
L 811.580526 355.824658 
L 811.782979 354.766027 
L 814.009968 354.213699 
L 814.212422 354.075616 
L 814.819783 353.891507 
L 815.022236 353.247123 
L 816.236958 352.878904 
L 818.261493 352.004384 
L 819.273761 351.866301 
L 819.678668 351.682192 
L 820.286029 351.452055 
L 821.703204 350.393425 
L 821.905658 349.426849 
L 822.715472 348.644384 
L 823.72774 347.217534 
L 823.930193 347.079452 
L 824.335101 346.250959 
L 824.537554 345.69863 
L 824.740008 345.652603 
L 824.942461 344.732055 
L 825.954729 343.075068 
L 826.56209 342.936986 
L 826.764543 342.52274 
L 827.169451 342.292603 
L 827.371904 341.832329 
L 827.979265 341.46411 
L 828.384172 341.418082 
L 828.586626 341.003836 
L 829.801347 340.681644 
L 830.408708 340.267397 
L 830.611161 340.22137 
L 830.813615 339.991233 
L 831.218522 339.945205 
L 831.420976 339.807123 
L 831.825883 339.761096 
L 832.635697 339.16274 
L 832.838151 338.932603 
L 833.243058 338.748493 
L 833.850418 338.564384 
L 834.255326 337.459726 
L 834.457779 337.367671 
L 835.470047 336.124932 
L 835.672501 336.032877 
L 835.874954 334.974247 
L 836.482315 334.790137 
L 837.494583 334.191781 
L 837.89949 334.145753 
L 838.304397 333.363288 
L 838.911758 332.903014 
L 839.114211 332.856986 
L 839.519118 332.120548 
L 840.126479 331.844384 
L 840.531386 331.430137 
L 841.138747 331.061918 
L 841.3412 327.149589 
L 841.746108 323.743562 
L 841.948561 320.843836 
L 842.151015 320.475616 
L 842.758375 317.345753 
L 843.365736 315.826849 
L 843.56819 315.688767 
L 843.770643 315.366575 
L 843.973097 314.722192 
L 844.17555 312.512877 
L 844.378004 312.006575 
L 844.782911 311.822466 
L 845.187818 310.579726 
L 845.390272 310.303562 
L 845.592725 309.383014 
L 845.795179 309.106849 
L 846.200086 308.324384 
L 846.40254 307.081644 
L 846.604993 306.62137 
L 847.0099 305.424658 
L 847.414808 304.688219 
L 848.224622 304.043836 
L 848.427075 303.767671 
L 848.629529 302.248767 
L 849.034436 302.01863 
L 849.439343 301.512329 
L 850.046704 300.453699 
L 850.249158 299.487123 
L 850.451611 299.441096 
L 851.058972 298.520548 
L 851.463879 298.382466 
L 851.666333 297.922192 
L 851.868786 297.830137 
L 852.273693 297.185753 
L 853.083508 293.411507 
L 853.285961 291.524384 
L 853.488415 290.833973 
L 854.500683 289.591233 
L 854.703136 289.499178 
L 854.90559 289.038904 
L 855.310497 287.197808 
L 856.120311 286.599452 
L 856.525218 286.185205 
L 856.930125 285.034521 
L 857.132579 284.758356 
L 857.942393 282.733151 
L 858.549754 282.226849 
L 858.752208 282.180822 
L 859.359568 281.904658 
L 859.966929 280.155616 
L 860.57429 279.833425 
L 860.979197 279.281096 
L 861.586558 278.314521 
L 861.991465 278.222466 
L 862.396372 277.578082 
L 863.003733 277.25589 
L 863.40864 277.163836 
L 863.611093 276.887671 
L 863.813547 276.013151 
L 864.623361 275.690959 
L 864.825815 275.230685 
L 865.028268 275.184658 
L 865.230722 274.310137 
L 865.838082 273.987945 
L 866.445443 273.803836 
L 866.85035 273.297534 
L 867.862618 272.653151 
L 868.267525 272.100822 
L 868.672432 271.77863 
L 869.07734 271.732603 
L 869.279793 270.397808 
L 869.6847 269.937534 
L 870.292061 269.569315 
L 870.494515 269.339178 
L 870.696968 269.293151 
L 870.899422 269.016986 
L 871.709236 268.740822 
L 871.91169 267.452055 
L 872.51905 266.945753 
L 872.721504 266.623562 
L 873.126411 266.577534 
L 873.328865 266.347397 
L 873.531318 266.30137 
L 873.733772 266.071233 
L 874.138679 265.979178 
L 874.341132 265.564932 
L 874.948493 265.24274 
L 875.150947 265.150685 
L 875.3534 264.644384 
L 875.758307 264.598356 
L 876.163215 264.230137 
L 876.770575 263.81589 
L 876.973029 263.079452 
L 877.782843 262.527123 
L 877.985297 262.112877 
L 878.390204 261.836712 
L 878.592657 261.514521 
L 879.200018 261.100274 
L 879.402472 260.686027 
L 879.604925 260.593973 
L 880.009832 260.225753 
L 880.212286 260.179726 
L 881.224554 259.39726 
L 881.629461 259.351233 
L 881.831915 259.167123 
L 882.034368 258.614795 
L 882.236822 258.476712 
L 883.24909 258.154521 
L 883.653997 257.740274 
L 884.058904 257.556164 
L 884.666265 257.326027 
L 884.868718 256.911781 
L 885.273625 256.819726 
L 885.476079 255.991233 
L 885.678532 255.807123 
L 885.880986 255.346849 
L 886.08344 255.16274 
L 886.285893 253.73589 
L 886.488347 253.643836 
L 887.500615 252.447123 
L 888.310429 251.480548 
L 888.715336 251.250411 
L 888.91779 250.698082 
L 889.120243 250.606027 
L 889.52515 250.007671 
L 889.930057 249.685479 
L 890.537418 249.409315 
L 890.942325 248.718904 
L 892.157047 247.246027 
L 892.561954 246.693699 
L 892.764407 246.463562 
L 893.371768 246.14137 
L 893.776675 246.095342 
L 894.181582 245.865205 
L 895.396304 244.070137 
L 895.598757 243.978082 
L 896.003664 243.65589 
L 896.206118 243.609863 
L 896.813479 243.057534 
L 897.623293 242.643288 
L 898.0282 242.136986 
L 898.230654 242.090959 
L 899.647829 241.216438 
L 900.457643 240.618082 
L 901.469911 240.29589 
L 901.874818 239.835616 
L 902.279725 239.605479 
L 902.482179 239.099178 
L 903.291993 238.638904 
L 903.6969 238.454795 
L 904.101807 238.17863 
L 904.506714 237.856438 
L 904.709168 237.810411 
L 905.316529 237.166027 
L 905.923889 236.93589 
L 906.126343 236.705753 
L 906.328797 236.06137 
L 906.53125 233.94411 
L 906.936157 233.391781 
L 907.138611 233.345753 
L 908.150879 231.412603 
L 908.353332 231.228493 
L 908.758239 229.525479 
L 909.163147 229.065205 
L 909.568054 228.696986 
L 909.972961 228.558904 
L 910.175414 228.190685 
L 910.580322 227.914521 
L 910.985229 227.454247 
L 911.187682 227.408219 
L 911.592589 227.086027 
L 911.997497 226.165479 
L 912.19995 226.073425 
L 912.402404 225.521096 
L 913.009764 225.244932 
L 913.414672 224.462466 
L 914.022032 223.86411 
L 914.426939 223.311781 
L 915.0343 223.173699 
L 915.236754 222.759452 
L 915.844114 222.43726 
L 916.249022 220.412055 
L 916.653929 219.951781 
L 917.666197 219.307397 
L 917.86865 219.123288 
L 918.071104 218.386849 
L 918.476011 218.110685 
L 918.678464 217.420274 
L 918.880918 217.282192 
L 919.285825 216.591781 
L 919.690732 216.177534 
L 919.893186 216.085479 
L 920.500546 215.441096 
L 920.703 215.349041 
L 921.107907 214.980822 
L 921.512814 214.520548 
L 921.715268 214.474521 
L 921.917721 214.198356 
L 922.322629 213.047671 
L 922.525082 212.909589 
L 922.929989 212.817534 
L 923.132443 212.219178 
L 923.334896 212.173151 
L 923.942257 211.712877 
L 924.144711 210.884384 
L 924.954525 210.286027 
L 925.156979 209.457534 
L 925.966793 208.583014 
L 926.169246 208.536986 
L 926.3717 207.340274 
L 927.181514 206.603836 
L 927.383968 206.143562 
L 927.788875 205.959452 
L 927.991329 205.038904 
L 928.396236 204.900822 
L 928.598689 204.440548 
L 928.801143 204.348493 
L 929.003596 203.33589 
L 929.408504 203.197808 
L 929.813411 202.737534 
L 930.218318 202.001096 
L 930.420771 201.816986 
L 931.028132 200.34411 
L 931.837946 199.515616 
L 932.242854 199.147397 
L 933.457575 198.04274 
L 933.862482 197.352329 
L 934.064936 197.260274 
L 934.672296 196.385753 
L 934.87475 195.879452 
L 935.684564 195.235068 
L 936.089471 194.912877 
L 936.291925 194.820822 
L 936.494379 193.716164 
L 937.101739 192.841644 
L 937.304193 191.921096 
L 937.7091 191.368767 
L 937.911554 190.862466 
L 938.114007 190.816438 
L 938.923821 189.619726 
L 940.54345 188.238904 
L 941.150811 188.054795 
L 941.758171 186.996164 
L 942.163079 186.029589 
L 942.567986 185.845479 
L 943.175346 184.832877 
L 943.3778 184.786849 
L 943.580254 184.234521 
L 944.187614 183.866301 
L 944.794975 183.083836 
L 945.807243 182.347397 
L 946.414604 181.564932 
L 947.021964 181.150685 
L 947.224418 180.690411 
L 947.629325 180.598356 
L 947.831778 180.368219 
L 948.034232 180.322192 
L 948.439139 179.401644 
L 948.844046 179.171507 
L 949.856314 178.389041 
L 950.058768 178.250959 
L 950.463675 177.69863 
L 950.868582 177.514521 
L 951.273489 177.284384 
L 951.678396 176.64 
L 951.88085 176.593973 
L 952.083303 176.363836 
L 952.285757 176.317808 
L 952.488211 176.133699 
L 952.690664 173.878356 
L 953.298025 173.372055 
L 953.500478 172.957808 
L 953.702932 172.911781 
L 954.512746 171.070685 
L 954.7152 170.840548 
L 954.917653 170.196164 
L 955.322561 169.966027 
L 956.132375 168.309041 
L 956.537282 166.099726 
L 956.739736 165.271233 
L 957.144643 161.773151 
L 957.347096 160.346301 
L 958.359364 158.689315 
L 959.169178 154.36274 
L 959.371632 154.086575 
L 959.574086 153.442192 
L 959.776539 151.140822 
L 959.978993 150.266301 
L 960.181446 150.174247 
L 960.3839 149.115616 
L 960.991261 148.471233 
L 961.396168 146.722192 
L 962.408436 145.985753 
L 962.610889 145.525479 
L 963.623157 144.743014 
L 964.028064 144.190685 
L 964.230518 143.684384 
L 964.432971 142.395616 
L 964.635425 141.889315 
L 965.040332 141.659178 
L 965.445239 141.429041 
L 965.850146 141.060822 
L 966.255053 140.600548 
L 967.267321 140.048219 
L 967.672228 139.633973 
L 968.077136 139.587945 
L 968.482043 139.035616 
L 968.684496 138.713425 
L 968.88695 138.62137 
L 969.291857 137.976986 
L 970.506578 136.596164 
L 970.709032 136.13589 
L 971.113939 135.997808 
L 971.316393 135.675616 
L 971.7213 135.445479 
L 971.923753 134.340822 
L 972.531114 133.558356 
L 972.936021 133.420274 
L 974.150743 132.085479 
L 974.353196 132.039452 
L 975.365464 131.026849 
L 975.567918 130.980822 
L 975.770371 130.290411 
L 975.972825 130.060274 
L 976.175278 129.323836 
L 976.580185 129.001644 
L 977.187546 127.068493 
L 977.39 126.147945 
L 977.592453 126.009863 
L 978.604721 124.536986 
L 979.009628 122.69589 
L 979.212082 122.143562 
L 979.414535 121.176986 
L 979.616989 121.084932 
L 979.819443 120.302466 
L 980.22435 119.934247 
L 981.034164 118.783562 
L 981.439071 118.231233 
L 981.641525 117.586849 
L 982.248885 117.080548 
L 982.451339 116.436164 
L 983.261153 116.021918 
L 983.463607 115.699726 
L 983.66606 115.653699 
L 983.868514 114.595068 
L 984.273421 114.226849 
L 984.475875 113.582466 
L 984.678328 113.398356 
L 985.083235 113.352329 
L 986.297957 112.109589 
L 986.905318 111.511233 
L 987.310225 110.912877 
L 987.715132 110.406575 
L 987.917585 109.854247 
L 988.120039 108.795616 
L 989.33476 107.921096 
L 989.739668 106.540274 
L 989.942121 106.448219 
L 990.144575 106.218082 
L 990.347028 105.527671 
L 990.549482 105.389589 
L 991.359296 104.100822 
L 992.16911 103.456438 
L 992.776471 102.812055 
L 993.586285 101.707397 
L 993.991193 100.786849 
L 994.3961 99.498082 
L 994.598553 98.255342 
L 995.00346 97.288767 
L 995.205914 96.552329 
L 996.218182 89.28 
L 996.218182 89.28 
" clip-path="url(#p82bc3c9a62)" style="fill: none; stroke: #1f77b4; stroke-width: 1.5; stroke-linecap: square"/>
   </g>
   <g id="patch_3">
    <path d="M 144 512.64 
L 144 69.12 
" style="fill: none; stroke: #000000; stroke-width: 0.8; stroke-linejoin: miter; stroke-linecap: square"/>
   </g>
   <g id="patch_4">
    <path d="M 1036.8 512.64 
L 1036.8 69.12 
" style="fill: none; stroke: #000000; stroke-width: 0.8; stroke-linejoin: miter; stroke-linecap: square"/>
   </g>
   <g id="patch_5">
    <path d="M 144 512.64 
L 1036.8 512.64 
" style="fill: none; stroke: #000000; stroke-width: 0.8; stroke-linejoin: miter; stroke-linecap: square"/>
   </g>
   <g id="patch_6">
    <path d="M 144 69.12 
L 1036.8 69.12 
" style="fill: none; stroke: #000000; stroke-width: 0.8; stroke-linejoin: miter; stroke-linecap: square"/>
   </g>
   <g id="text_12">
    <!-- Number of AEDs in the OpenStreetMap database in Poland from first edition, day by day. As at: 2025-02-01 -->
    <g transform="translate(144 63.12) scale(0.14 -0.14)">
     <defs>
      <path id="DejaVuSans-4e" d="M 628 4666 
L 1478 4666 
L 3547 763 
L 3547 4666 
L 4159 4666 
L 4159 0 
L 3309 0 
L 1241 3903 
L 1241 0 
L 628 0 
L 628 4666 
z
" transform="scale(0.015625)"/>
      <path id="DejaVuSans-75" d="M 544 1381 
L 544 3500 
L 1119 3500 
L 1119 1403 
Q 1119 906 1312 657 
Q 1506 409 1894 409 
Q 2359 409 2629 706 
Q 2900 1003 2900 1516 
L 2900 3500 
L 3475 3500 
L 3475 0 
L 2900 0 
L 2900 538 
Q 2691 219 2414 64 
Q 2138 -91 1772 -91 
Q 1169 -91 856 284 
Q 544 659 544 1381 
z
M 1991 3584 
L 1991 3584 
z
" transform="scale(0.015625)"/>
      <path id="DejaVuSans-6d" d="M 3328 2828 
Q 3544 3216 3844 3400 
Q 4144 3584 4550 3584 
Q 5097 3584 5394 3201 
Q 5691 2819 5691 2113 
L 5691 0 
L 5113 0 
L 5113 2094 
Q 5113 2597 4934 2840 
Q 4756 3084 4391 3084 
Q 3944 3084 3684 2787 
Q 3425 2491 3425 1978 
L 3425 0 
L 2847 0 
L 2847 2094 
Q 2847 2600 2669 2842 
Q 2491 3084 2119 3084 
Q 1678 3084 1418 2786 
Q 1159 2488 1159 1978 
L 1159 0 
L 581 0 
L 581 3500 
L 1159 3500 
L 1159 2956 
Q 1356 3278 1631 3431 
Q 1906 3584 2284 3584 
Q 2666 3584 2933 3390 
Q 3200 3197 3328 2828 
z
" transform="scale(0.015625)"/>
      <path id="DejaVuSans-62" d="M 3116 1747 
Q 3116 2381 2855 2742 
Q 2594 3103 2138 3103 
Q 1681 3103 1420 2742 
Q 1159 2381 1159 1747 
Q 1159 1113 1420 752 
Q 1681 391 2138 391 
Q 2594 391 2855 752 
Q 3116 1113 3116 1747 
z
M 1159 2969 
Q 1341 3281 1617 3432 
Q 1894 3584 2278 3584 
Q 2916 3584 3314 3078 
Q 3713 2572 3713 1747 
Q 3713 922 3314 415 
Q 2916 -91 2278 -91 
Q 1894 -91 1617 61 
Q 1341 213 1159 525 
L 1159 0 
L 581 0 
L 581 4863 
L 1159 4863 
L 1159 2969 
z
" transform="scale(0.015625)"/>
      <path id="DejaVuSans-65" d="M 3597 1894 
L 3597 1613 
L 953 1613 
Q 991 1019 1311 708 
Q 1631 397 2203 397 
Q 2534 397 2845 478 
Q 3156 559 3463 722 
L 3463 178 
Q 3153 47 2828 -22 
Q 2503 -91 2169 -91 
Q 1331 -91 842 396 
Q 353 884 353 1716 
Q 353 2575 817 3079 
Q 1281 3584 2069 3584 
Q 2775 3584 3186 3129 
Q 3597 2675 3597 1894 
z
M 3022 2063 
Q 3016 2534 2758 2815 
Q 2500 3097 2075 3097 
Q 1594 3097 1305 2825 
Q 1016 2553 972 2059 
L 3022 2063 
z
" transform="scale(0.015625)"/>
      <path id="DejaVuSans-72" d="M 2631 2963 
Q 2534 3019 2420 3045 
Q 2306 3072 2169 3072 
Q 1681 3072 1420 2755 
Q 1159 2438 1159 1844 
L 1159 0 
L 581 0 
L 581 3500 
L 1159 3500 
L 1159 2956 
Q 1341 3275 1631 3429 
Q 1922 3584 2338 3584 
Q 2397 3584 2469 3576 
Q 2541 3569 2628 3553 
L 2631 2963 
z
" transform="scale(0.015625)"/>
      <path id="DejaVuSans-20" transform="scale(0.015625)"/>
      <path id="DejaVuSans-6f" d="M 1959 3097 
Q 1497 3097 1228 2736 
Q 959 2375 959 1747 
Q 959 1119 1226 758 
Q 1494 397 1959 397 
Q 2419 397 2687 759 
Q 2956 1122 2956 1747 
Q 2956 2369 2687 2733 
Q 2419 3097 1959 3097 
z
M 1959 3584 
Q 2709 3584 3137 3096 
Q 3566 2609 3566 1747 
Q 3566 888 3137 398 
Q 2709 -91 1959 -91 
Q 1206 -91 779 398 
Q 353 888 353 1747 
Q 353 2609 779 3096 
Q 1206 3584 1959 3584 
z
" transform="scale(0.015625)"/>
      <path id="DejaVuSans-66" d="M 2375 4863 
L 2375 4384 
L 1825 4384 
Q 1516 4384 1395 4259 
Q 1275 4134 1275 3809 
L 1275 3500 
L 2222 3500 
L 2222 3053 
L 1275 3053 
L 1275 0 
L 697 0 
L 697 3053 
L 147 3053 
L 147 3500 
L 697 3500 
L 697 3744 
Q 697 4328 969 4595 
Q 1241 4863 1831 4863 
L 2375 4863 
z
" transform="scale(0.015625)"/>
      <path id="DejaVuSans-41" d="M 2188 4044 
L 1331 1722 
L 3047 1722 
L 2188 4044 
z
M 1831 4666 
L 2547 4666 
L 4325 0 
L 3669 0 
L 3244 1197 
L 1141 1197 
L 716 0 
L 50 0 
L 1831 4666 
z
" transform="scale(0.015625)"/>
      <path id="DejaVuSans-45" d="M 628 4666 
L 3578 4666 
L 3578 4134 
L 1259 4134 
L 1259 2753 
L 3481 2753 
L 3481 2222 
L 1259 2222 
L 1259 531 
L 3634 531 
L 3634 0 
L 628 0 
L 628 4666 
z
" transform="scale(0.015625)"/>
      <path id="DejaVuSans-44" d="M 1259 4147 
L 1259 519 
L 2022 519 
Q 2988 519 3436 956 
Q 3884 1394 3884 2338 
Q 3884 3275 3436 3711 
Q 2988 4147 2022 4147 
L 1259 4147 
z
M 628 4666 
L 1925 4666 
Q 3281 4666 3915 4102 
Q 4550 3538 4550 2338 
Q 4550 1131 3912 565 
Q 3275 0 1925 0 
L 628 0 
L 628 4666 
z
" transform="scale(0.015625)"/>
      <path id="DejaVuSans-73" d="M 2834 3397 
L 2834 2853 
Q 2591 2978 2328 3040 
Q 2066 3103 1784 3103 
Q 1356 3103 1142 2972 
Q 928 2841 928 2578 
Q 928 2378 1081 2264 
Q 1234 2150 1697 2047 
L 1894 2003 
Q 2506 1872 2764 1633 
Q 3022 1394 3022 966 
Q 3022 478 2636 193 
Q 2250 -91 1575 -91 
Q 1294 -91 989 -36 
Q 684 19 347 128 
L 347 722 
Q 666 556 975 473 
Q 1284 391 1588 391 
Q 1994 391 2212 530 
Q 2431 669 2431 922 
Q 2431 1156 2273 1281 
Q 2116 1406 1581 1522 
L 1381 1569 
Q 847 1681 609 1914 
Q 372 2147 372 2553 
Q 372 3047 722 3315 
Q 1072 3584 1716 3584 
Q 2034 3584 2315 3537 
Q 2597 3491 2834 3397 
z
" transform="scale(0.015625)"/>
      <path id="DejaVuSans-69" d="M 603 3500 
L 1178 3500 
L 1178 0 
L 603 0 
L 603 3500 
z
M 603 4863 
L 1178 4863 
L 1178 4134 
L 603 4134 
L 603 4863 
z
" transform="scale(0.015625)"/>
      <path id="DejaVuSans-6e" d="M 3513 2113 
L 3513 0 
L 2938 0 
L 2938 2094 
Q 2938 2591 2744 2837 
Q 2550 3084 2163 3084 
Q 1697 3084 1428 2787 
Q 1159 2491 1159 1978 
L 1159 0 
L 581 0 
L 581 3500 
L 1159 3500 
L 1159 2956 
Q 1366 3272 1645 3428 
Q 1925 3584 2291 3584 
Q 2894 3584 3203 3211 
Q 3513 2838 3513 2113 
z
" transform="scale(0.015625)"/>
      <path id="DejaVuSans-74" d="M 1172 4494 
L 1172 3500 
L 2356 3500 
L 2356 3053 
L 1172 3053 
L 1172 1153 
Q 1172 725 1289 603 
Q 1406 481 1766 481 
L 2356 481 
L 2356 0 
L 1766 0 
Q 1100 0 847 248 
Q 594 497 594 1153 
L 594 3053 
L 172 3053 
L 172 3500 
L 594 3500 
L 594 4494 
L 1172 4494 
z
" transform="scale(0.015625)"/>
      <path id="DejaVuSans-68" d="M 3513 2113 
L 3513 0 
L 2938 0 
L 2938 2094 
Q 2938 2591 2744 2837 
Q 2550 3084 2163 3084 
Q 1697 3084 1428 2787 
Q 1159 2491 1159 1978 
L 1159 0 
L 581 0 
L 581 4863 
L 1159 4863 
L 1159 2956 
Q 1366 3272 1645 3428 
Q 1925 3584 2291 3584 
Q 2894 3584 3203 3211 
Q 3513 2838 3513 2113 
z
" transform="scale(0.015625)"/>
      <path id="DejaVuSans-4f" d="M 2522 4238 
Q 1834 4238 1429 3725 
Q 1025 3213 1025 2328 
Q 1025 1447 1429 934 
Q 1834 422 2522 422 
Q 3209 422 3611 934 
Q 4013 1447 4013 2328 
Q 4013 3213 3611 3725 
Q 3209 4238 2522 4238 
z
M 2522 4750 
Q 3503 4750 4090 4092 
Q 4678 3434 4678 2328 
Q 4678 1225 4090 567 
Q 3503 -91 2522 -91 
Q 1538 -91 948 565 
Q 359 1222 359 2328 
Q 359 3434 948 4092 
Q 1538 4750 2522 4750 
z
" transform="scale(0.015625)"/>
      <path id="DejaVuSans-70" d="M 1159 525 
L 1159 -1331 
L 581 -1331 
L 581 3500 
L 1159 3500 
L 1159 2969 
Q 1341 3281 1617 3432 
Q 1894 3584 2278 3584 
Q 2916 3584 3314 3078 
Q 3713 2572 3713 1747 
Q 3713 922 3314 415 
Q 2916 -91 2278 -91 
Q 1894 -91 1617 61 
Q 1341 213 1159 525 
z
M 3116 1747 
Q 3116 2381 2855 2742 
Q 2594 3103 2138 3103 
Q 1681 3103 1420 2742 
Q 1159 2381 1159 1747 
Q 1159 1113 1420 752 
Q 1681 391 2138 391 
Q 2594 391 2855 752 
Q 3116 1113 3116 1747 
z
" transform="scale(0.015625)"/>
      <path id="DejaVuSans-53" d="M 3425 4513 
L 3425 3897 
Q 3066 4069 2747 4153 
Q 2428 4238 2131 4238 
Q 1616 4238 1336 4038 
Q 1056 3838 1056 3469 
Q 1056 3159 1242 3001 
Q 1428 2844 1947 2747 
L 2328 2669 
Q 3034 2534 3370 2195 
Q 3706 1856 3706 1288 
Q 3706 609 3251 259 
Q 2797 -91 1919 -91 
Q 1588 -91 1214 -16 
Q 841 59 441 206 
L 441 856 
Q 825 641 1194 531 
Q 1563 422 1919 422 
Q 2459 422 2753 634 
Q 3047 847 3047 1241 
Q 3047 1584 2836 1778 
Q 2625 1972 2144 2069 
L 1759 2144 
Q 1053 2284 737 2584 
Q 422 2884 422 3419 
Q 422 4038 858 4394 
Q 1294 4750 2059 4750 
Q 2388 4750 2728 4690 
Q 3069 4631 3425 4513 
z
" transform="scale(0.015625)"/>
      <path id="DejaVuSans-4d" d="M 628 4666 
L 1569 4666 
L 2759 1491 
L 3956 4666 
L 4897 4666 
L 4897 0 
L 4281 0 
L 4281 4097 
L 3078 897 
L 2444 897 
L 1241 4097 
L 1241 0 
L 628 0 
L 628 4666 
z
" transform="scale(0.015625)"/>
      <path id="DejaVuSans-61" d="M 2194 1759 
Q 1497 1759 1228 1600 
Q 959 1441 959 1056 
Q 959 750 1161 570 
Q 1363 391 1709 391 
Q 2188 391 2477 730 
Q 2766 1069 2766 1631 
L 2766 1759 
L 2194 1759 
z
M 3341 1997 
L 3341 0 
L 2766 0 
L 2766 531 
Q 2569 213 2275 61 
Q 1981 -91 1556 -91 
Q 1019 -91 701 211 
Q 384 513 384 1019 
Q 384 1609 779 1909 
Q 1175 2209 1959 2209 
L 2766 2209 
L 2766 2266 
Q 2766 2663 2505 2880 
Q 2244 3097 1772 3097 
Q 1472 3097 1187 3025 
Q 903 2953 641 2809 
L 641 3341 
Q 956 3463 1253 3523 
Q 1550 3584 1831 3584 
Q 2591 3584 2966 3190 
Q 3341 2797 3341 1997 
z
" transform="scale(0.015625)"/>
      <path id="DejaVuSans-64" d="M 2906 2969 
L 2906 4863 
L 3481 4863 
L 3481 0 
L 2906 0 
L 2906 525 
Q 2725 213 2448 61 
Q 2172 -91 1784 -91 
Q 1150 -91 751 415 
Q 353 922 353 1747 
Q 353 2572 751 3078 
Q 1150 3584 1784 3584 
Q 2172 3584 2448 3432 
Q 2725 3281 2906 2969 
z
M 947 1747 
Q 947 1113 1208 752 
Q 1469 391 1925 391 
Q 2381 391 2643 752 
Q 2906 1113 2906 1747 
Q 2906 2381 2643 2742 
Q 2381 3103 1925 3103 
Q 1469 3103 1208 2742 
Q 947 2381 947 1747 
z
" transform="scale(0.015625)"/>
      <path id="DejaVuSans-50" d="M 1259 4147 
L 1259 2394 
L 2053 2394 
Q 2494 2394 2734 2622 
Q 2975 2850 2975 3272 
Q 2975 3691 2734 3919 
Q 2494 4147 2053 4147 
L 1259 4147 
z
M 628 4666 
L 2053 4666 
Q 2838 4666 3239 4311 
Q 3641 3956 3641 3272 
Q 3641 2581 3239 2228 
Q 2838 1875 2053 1875 
L 1259 1875 
L 1259 0 
L 628 0 
L 628 4666 
z
" transform="scale(0.015625)"/>
      <path id="DejaVuSans-6c" d="M 603 4863 
L 1178 4863 
L 1178 0 
L 603 0 
L 603 4863 
z
" transform="scale(0.015625)"/>
      <path id="DejaVuSans-2c" d="M 750 794 
L 1409 794 
L 1409 256 
L 897 -744 
L 494 -744 
L 750 256 
L 750 794 
z
" transform="scale(0.015625)"/>
      <path id="DejaVuSans-79" d="M 2059 -325 
Q 1816 -950 1584 -1140 
Q 1353 -1331 966 -1331 
L 506 -1331 
L 506 -850 
L 844 -850 
Q 1081 -850 1212 -737 
Q 1344 -625 1503 -206 
L 1606 56 
L 191 3500 
L 800 3500 
L 1894 763 
L 2988 3500 
L 3597 3500 
L 2059 -325 
z
" transform="scale(0.015625)"/>
      <path id="DejaVuSans-2e" d="M 684 794 
L 1344 794 
L 1344 0 
L 684 0 
L 684 794 
z
" transform="scale(0.015625)"/>
      <path id="DejaVuSans-3a" d="M 750 794 
L 1409 794 
L 1409 0 
L 750 0 
L 750 794 
z
M 750 3309 
L 1409 3309 
L 1409 2516 
L 750 2516 
L 750 3309 
z
" transform="scale(0.015625)"/>
      <path id="DejaVuSans-35" d="M 691 4666 
L 3169 4666 
L 3169 4134 
L 1269 4134 
L 1269 2991 
Q 1406 3038 1543 3061 
Q 1681 3084 1819 3084 
Q 2600 3084 3056 2656 
Q 3513 2228 3513 1497 
Q 3513 744 3044 326 
Q 2575 -91 1722 -91 
Q 1428 -91 1123 -41 
Q 819 9 494 109 
L 494 744 
Q 775 591 1075 516 
Q 1375 441 1709 441 
Q 2250 441 2565 725 
Q 2881 1009 2881 1497 
Q 2881 1984 2565 2268 
Q 2250 2553 1709 2553 
Q 1456 2553 1204 2497 
Q 953 2441 691 2322 
L 691 4666 
z
" transform="scale(0.015625)"/>
      <path id="DejaVuSans-2d" d="M 313 2009 
L 1997 2009 
L 1997 1497 
L 313 1497 
L 313 2009 
z
" transform="scale(0.015625)"/>
     </defs>
     <use xlink:href="#DejaVuSans-4e"/>
     <use xlink:href="#DejaVuSans-75" x="74.804688"/>
     <use xlink:href="#DejaVuSans-6d" x="138.183594"/>
     <use xlink:href="#DejaVuSans-62" x="235.595703"/>
     <use xlink:href="#DejaVuSans-65" x="299.072266"/>
     <use xlink:href="#DejaVuSans-72" x="360.595703"/>
     <use xlink:href="#DejaVuSans-20" x="401.708984"/>
     <use xlink:href="#DejaVuSans-6f" x="433.496094"/>
     <use xlink:href="#DejaVuSans-66" x="494.677734"/>
     <use xlink:href="#DejaVuSans-20" x="529.882812"/>
     <use xlink:href="#DejaVuSans-41" x="561.669922"/>
     <use xlink:href="#DejaVuSans-45" x="630.078125"/>
     <use xlink:href="#DejaVuSans-44" x="693.261719"/>
     <use xlink:href="#DejaVuSans-73" x="770.263672"/>
     <use xlink:href="#DejaVuSans-20" x="822.363281"/>
     <use xlink:href="#DejaVuSans-69" x="854.150391"/>
     <use xlink:href="#DejaVuSans-6e" x="881.933594"/>
     <use xlink:href="#DejaVuSans-20" x="945.3125"/>
     <use xlink:href="#DejaVuSans-74" x="977.099609"/>
     <use xlink:href="#DejaVuSans-68" x="1016.308594"/>
     <use xlink:href="#DejaVuSans-65" x="1079.6875"/>
     <use xlink:href="#DejaVuSans-20" x="1141.210938"/>
     <use xlink:href="#DejaVuSans-4f" x="1172.998047"/>
     <use xlink:href="#DejaVuSans-70" x="1251.708984"/>
     <use xlink:href="#DejaVuSans-65" x="1315.185547"/>
     <use xlink:href="#DejaVuSans-6e" x="1376.708984"/>
     <use xlink:href="#DejaVuSans-53" x="1440.087891"/>
     <use xlink:href="#DejaVuSans-74" x="1503.564453"/>
     <use xlink:href="#DejaVuSans-72" x="1542.773438"/>
     <use xlink:href="#DejaVuSans-65" x="1581.636719"/>
     <use xlink:href="#DejaVuSans-65" x="1643.160156"/>
     <use xlink:href="#DejaVuSans-74" x="1704.683594"/>
     <use xlink:href="#DejaVuSans-4d" x="1743.892578"/>
     <use xlink:href="#DejaVuSans-61" x="1830.171875"/>
     <use xlink:href="#DejaVuSans-70" x="1891.451172"/>
     <use xlink:href="#DejaVuSans-20" x="1954.927734"/>
     <use xlink:href="#DejaVuSans-64" x="1986.714844"/>
     <use xlink:href="#DejaVuSans-61" x="2050.191406"/>
     <use xlink:href="#DejaVuSans-74" x="2111.470703"/>
     <use xlink:href="#DejaVuSans-61" x="2150.679688"/>
     <use xlink:href="#DejaVuSans-62" x="2211.958984"/>
     <use xlink:href="#DejaVuSans-61" x="2275.435547"/>
     <use xlink:href="#DejaVuSans-73" x="2336.714844"/>
     <use xlink:href="#DejaVuSans-65" x="2388.814453"/>
     <use xlink:href="#DejaVuSans-20" x="2450.337891"/>
     <use xlink:href="#DejaVuSans-69" x="2482.125"/>
     <use xlink:href="#DejaVuSans-6e" x="2509.908203"/>
     <use xlink:href="#DejaVuSans-20" x="2573.287109"/>
     <use xlink:href="#DejaVuSans-50" x="2605.074219"/>
     <use xlink:href="#DejaVuSans-6f" x="2661.751953"/>
     <use xlink:href="#DejaVuSans-6c" x="2722.933594"/>
     <use xlink:href="#DejaVuSans-61" x="2750.716797"/>
     <use xlink:href="#DejaVuSans-6e" x="2811.996094"/>
     <use xlink:href="#DejaVuSans-64" x="2875.375"/>
     <use xlink:href="#DejaVuSans-20" x="2938.851562"/>
     <use xlink:href="#DejaVuSans-66" x="2970.638672"/>
     <use xlink:href="#DejaVuSans-72" x="3005.84375"/>
     <use xlink:href="#DejaVuSans-6f" x="3044.707031"/>
     <use xlink:href="#DejaVuSans-6d" x="3105.888672"/>
     <use xlink:href="#DejaVuSans-20" x="3203.300781"/>
     <use xlink:href="#DejaVuSans-66" x="3235.087891"/>
     <use xlink:href="#DejaVuSans-69" x="3270.292969"/>
     <use xlink:href="#DejaVuSans-72" x="3298.076172"/>
     <use xlink:href="#DejaVuSans-73" x="3339.189453"/>
     <use xlink:href="#DejaVuSans-74" x="3391.289062"/>
     <use xlink:href="#DejaVuSans-20" x="3430.498047"/>
     <use xlink:href="#DejaVuSans-65" x="3462.285156"/>
     <use xlink:href="#DejaVuSans-64" x="3523.808594"/>
     <use xlink:href="#DejaVuSans-69" x="3587.285156"/>
     <use xlink:href="#DejaVuSans-74" x="3615.068359"/>
     <use xlink:href="#DejaVuSans-69" x="3654.277344"/>
     <use xlink:href="#DejaVuSans-6f" x="3682.060547"/>
     <use xlink:href="#DejaVuSans-6e" x="3743.242188"/>
     <use xlink:href="#DejaVuSans-2c" x="3806.621094"/>
     <use xlink:href="#DejaVuSans-20" x="3838.408203"/>
     <use xlink:href="#DejaVuSans-64" x="3870.195312"/>
     <use xlink:href="#DejaVuSans-61" x="3933.671875"/>
     <use xlink:href="#DejaVuSans-79" x="3994.951172"/>
     <use xlink:href="#DejaVuSans-20" x="4054.130859"/>
     <use xlink:href="#DejaVuSans-62" x="4085.917969"/>
     <use xlink:href="#DejaVuSans-79" x="4149.394531"/>
     <use xlink:href="#DejaVuSans-20" x="4208.574219"/>
     <use xlink:href="#DejaVuSans-64" x="4240.361328"/>
     <use xlink:href="#DejaVuSans-61" x="4303.837891"/>
     <use xlink:href="#DejaVuSans-79" x="4365.117188"/>
     <use xlink:href="#DejaVuSans-2e" x="4410.046875"/>
     <use xlink:href="#DejaVuSans-20" x="4441.833984"/>
     <use xlink:href="#DejaVuSans-41" x="4473.621094"/>
     <use xlink:href="#DejaVuSans-73" x="4542.029297"/>
     <use xlink:href="#DejaVuSans-20" x="4594.128906"/>
     <use xlink:href="#DejaVuSans-61" x="4625.916016"/>
     <use xlink:href="#DejaVuSans-74" x="4687.195312"/>
     <use xlink:href="#DejaVuSans-3a" x="4726.404297"/>
     <use xlink:href="#DejaVuSans-20" x="4760.095703"/>
     <use xlink:href="#DejaVuSans-32" x="4791.882812"/>
     <use xlink:href="#DejaVuSans-30" x="4855.505859"/>
     <use xlink:href="#DejaVuSans-32" x="4919.128906"/>
     <use xlink:href="#DejaVuSans-35" x="4982.751953"/>
     <use xlink:href="#DejaVuSans-2d" x="5046.375"/>
     <use xlink:href="#DejaVuSans-30" x="5082.458984"/>
     <use xlink:href="#DejaVuSans-32" x="5146.082031"/>
     <use xlink:href="#DejaVuSans-2d" x="5209.705078"/>
     <use xlink:href="#DejaVuSans-30" x="5245.789062"/>
     <use xlink:href="#DejaVuSans-31" x="5309.412109"/>
    </g>
   </g>
  </g>
 </g>
 <defs>
  <clipPath id="p82bc3c9a62">
   <rect x="144" y="69.12" width="892.8" height="443.52"/>
  </clipPath>
 </defs>
</svg>
