<?xml version="1.0" encoding="utf-8" standalone="no"?>
<!DOCTYPE svg PUBLIC "-//W3C//DTD SVG 1.1//EN"
  "http://www.w3.org/Graphics/SVG/1.1/DTD/svg11.dtd">
<svg xmlns:xlink="http://www.w3.org/1999/xlink" width="1152pt" height="576pt" viewBox="0 0 1152 576" xmlns="http://www.w3.org/2000/svg" version="1.1">
 <metadata>
  <rdf:RDF xmlns:dc="http://purl.org/dc/elements/1.1/" xmlns:cc="http://creativecommons.org/ns#" xmlns:rdf="http://www.w3.org/1999/02/22-rdf-syntax-ns#">
   <cc:Work>
    <dc:type rdf:resource="http://purl.org/dc/dcmitype/StillImage"/>
    <dc:date>1980-01-01T00:00:00+00:00</dc:date>
    <dc:format>image/svg+xml</dc:format>
    <dc:creator>
     <cc:Agent>
      <dc:title>Matplotlib v3.9.1, https://matplotlib.org/</dc:title>
     </cc:Agent>
    </dc:creator>
   </cc:Work>
  </rdf:RDF>
 </metadata>
 <defs>
  <style type="text/css">*{stroke-linejoin: round; stroke-linecap: butt}</style>
 </defs>
 <g id="figure_1">
  <g id="patch_1">
   <path d="M 0 576 
L 1152 576 
L 1152 0 
L 0 0 
z
" style="fill: #ffffff"/>
  </g>
  <g id="axes_1">
   <g id="patch_2">
    <path d="M 144 512.64 
L 1036.8 512.64 
L 1036.8 69.12 
L 144 69.12 
z
" style="fill: #ffffff"/>
   </g>
   <g id="matplotlib.axis_1">
    <g id="xtick_1">
     <g id="line2d_1">
      <defs>
       <path id="m52ea1c3beb" d="M 0 0 
L 0 3.5 
" style="stroke: #000000; stroke-width: 0.8"/>
      </defs>
      <g>
       <use xlink:href="#m52ea1c3beb" x="176.93389" y="512.64" style="stroke: #000000; stroke-width: 0.8"/>
      </g>
     </g>
     <g id="text_1">
      <!-- 2014 -->
      <g transform="translate(164.20889 527.238438) scale(0.1 -0.1)">
       <defs>
        <path id="DejaVuSans-32" d="M 1228 531 
L 3431 531 
L 3431 0 
L 469 0 
L 469 531 
Q 828 903 1448 1529 
Q 2069 2156 2228 2338 
Q 2531 2678 2651 2914 
Q 2772 3150 2772 3378 
Q 2772 3750 2511 3984 
Q 2250 4219 1831 4219 
Q 1534 4219 1204 4116 
Q 875 4013 500 3803 
L 500 4441 
Q 881 4594 1212 4672 
Q 1544 4750 1819 4750 
Q 2544 4750 2975 4387 
Q 3406 4025 3406 3419 
Q 3406 3131 3298 2873 
Q 3191 2616 2906 2266 
Q 2828 2175 2409 1742 
Q 1991 1309 1228 531 
z
" transform="scale(0.015625)"/>
        <path id="DejaVuSans-30" d="M 2034 4250 
Q 1547 4250 1301 3770 
Q 1056 3291 1056 2328 
Q 1056 1369 1301 889 
Q 1547 409 2034 409 
Q 2525 409 2770 889 
Q 3016 1369 3016 2328 
Q 3016 3291 2770 3770 
Q 2525 4250 2034 4250 
z
M 2034 4750 
Q 2819 4750 3233 4129 
Q 3647 3509 3647 2328 
Q 3647 1150 3233 529 
Q 2819 -91 2034 -91 
Q 1250 -91 836 529 
Q 422 1150 422 2328 
Q 422 3509 836 4129 
Q 1250 4750 2034 4750 
z
" transform="scale(0.015625)"/>
        <path id="DejaVuSans-31" d="M 794 531 
L 1825 531 
L 1825 4091 
L 703 3866 
L 703 4441 
L 1819 4666 
L 2450 4666 
L 2450 531 
L 3481 531 
L 3481 0 
L 794 0 
L 794 531 
z
" transform="scale(0.015625)"/>
        <path id="DejaVuSans-34" d="M 2419 4116 
L 825 1625 
L 2419 1625 
L 2419 4116 
z
M 2253 4666 
L 3047 4666 
L 3047 1625 
L 3713 1625 
L 3713 1100 
L 3047 1100 
L 3047 0 
L 2419 0 
L 2419 1100 
L 313 1100 
L 313 1709 
L 2253 4666 
z
" transform="scale(0.015625)"/>
       </defs>
       <use xlink:href="#DejaVuSans-32"/>
       <use xlink:href="#DejaVuSans-30" x="63.623047"/>
       <use xlink:href="#DejaVuSans-31" x="127.246094"/>
       <use xlink:href="#DejaVuSans-34" x="190.869141"/>
      </g>
     </g>
    </g>
    <g id="xtick_2">
     <g id="line2d_2">
      <g>
       <use xlink:href="#m52ea1c3beb" x="316.508577" y="512.64" style="stroke: #000000; stroke-width: 0.8"/>
      </g>
     </g>
     <g id="text_2">
      <!-- 2016 -->
      <g transform="translate(303.783577 527.238438) scale(0.1 -0.1)">
       <defs>
        <path id="DejaVuSans-36" d="M 2113 2584 
Q 1688 2584 1439 2293 
Q 1191 2003 1191 1497 
Q 1191 994 1439 701 
Q 1688 409 2113 409 
Q 2538 409 2786 701 
Q 3034 994 3034 1497 
Q 3034 2003 2786 2293 
Q 2538 2584 2113 2584 
z
M 3366 4563 
L 3366 3988 
Q 3128 4100 2886 4159 
Q 2644 4219 2406 4219 
Q 1781 4219 1451 3797 
Q 1122 3375 1075 2522 
Q 1259 2794 1537 2939 
Q 1816 3084 2150 3084 
Q 2853 3084 3261 2657 
Q 3669 2231 3669 1497 
Q 3669 778 3244 343 
Q 2819 -91 2113 -91 
Q 1303 -91 875 529 
Q 447 1150 447 2328 
Q 447 3434 972 4092 
Q 1497 4750 2381 4750 
Q 2619 4750 2861 4703 
Q 3103 4656 3366 4563 
z
" transform="scale(0.015625)"/>
       </defs>
       <use xlink:href="#DejaVuSans-32"/>
       <use xlink:href="#DejaVuSans-30" x="63.623047"/>
       <use xlink:href="#DejaVuSans-31" x="127.246094"/>
       <use xlink:href="#DejaVuSans-36" x="190.869141"/>
      </g>
     </g>
    </g>
    <g id="xtick_3">
     <g id="line2d_3">
      <g>
       <use xlink:href="#m52ea1c3beb" x="456.274462" y="512.64" style="stroke: #000000; stroke-width: 0.8"/>
      </g>
     </g>
     <g id="text_3">
      <!-- 2018 -->
      <g transform="translate(443.549462 527.238438) scale(0.1 -0.1)">
       <defs>
        <path id="DejaVuSans-38" d="M 2034 2216 
Q 1584 2216 1326 1975 
Q 1069 1734 1069 1313 
Q 1069 891 1326 650 
Q 1584 409 2034 409 
Q 2484 409 2743 651 
Q 3003 894 3003 1313 
Q 3003 1734 2745 1975 
Q 2488 2216 2034 2216 
z
M 1403 2484 
Q 997 2584 770 2862 
Q 544 3141 544 3541 
Q 544 4100 942 4425 
Q 1341 4750 2034 4750 
Q 2731 4750 3128 4425 
Q 3525 4100 3525 3541 
Q 3525 3141 3298 2862 
Q 3072 2584 2669 2484 
Q 3125 2378 3379 2068 
Q 3634 1759 3634 1313 
Q 3634 634 3220 271 
Q 2806 -91 2034 -91 
Q 1263 -91 848 271 
Q 434 634 434 1313 
Q 434 1759 690 2068 
Q 947 2378 1403 2484 
z
M 1172 3481 
Q 1172 3119 1398 2916 
Q 1625 2713 2034 2713 
Q 2441 2713 2670 2916 
Q 2900 3119 2900 3481 
Q 2900 3844 2670 4047 
Q 2441 4250 2034 4250 
Q 1625 4250 1398 4047 
Q 1172 3844 1172 3481 
z
" transform="scale(0.015625)"/>
       </defs>
       <use xlink:href="#DejaVuSans-32"/>
       <use xlink:href="#DejaVuSans-30" x="63.623047"/>
       <use xlink:href="#DejaVuSans-31" x="127.246094"/>
       <use xlink:href="#DejaVuSans-38" x="190.869141"/>
      </g>
     </g>
    </g>
    <g id="xtick_4">
     <g id="line2d_4">
      <g>
       <use xlink:href="#m52ea1c3beb" x="595.849149" y="512.64" style="stroke: #000000; stroke-width: 0.8"/>
      </g>
     </g>
     <g id="text_4">
      <!-- 2020 -->
      <g transform="translate(583.124149 527.238438) scale(0.1 -0.1)">
       <use xlink:href="#DejaVuSans-32"/>
       <use xlink:href="#DejaVuSans-30" x="63.623047"/>
       <use xlink:href="#DejaVuSans-32" x="127.246094"/>
       <use xlink:href="#DejaVuSans-30" x="190.869141"/>
      </g>
     </g>
    </g>
    <g id="xtick_5">
     <g id="line2d_5">
      <g>
       <use xlink:href="#m52ea1c3beb" x="735.615034" y="512.64" style="stroke: #000000; stroke-width: 0.8"/>
      </g>
     </g>
     <g id="text_5">
      <!-- 2022 -->
      <g transform="translate(722.890034 527.238438) scale(0.1 -0.1)">
       <use xlink:href="#DejaVuSans-32"/>
       <use xlink:href="#DejaVuSans-30" x="63.623047"/>
       <use xlink:href="#DejaVuSans-32" x="127.246094"/>
       <use xlink:href="#DejaVuSans-32" x="190.869141"/>
      </g>
     </g>
    </g>
    <g id="xtick_6">
     <g id="line2d_6">
      <g>
       <use xlink:href="#m52ea1c3beb" x="875.189721" y="512.64" style="stroke: #000000; stroke-width: 0.8"/>
      </g>
     </g>
     <g id="text_6">
      <!-- 2024 -->
      <g transform="translate(862.464721 527.238438) scale(0.1 -0.1)">
       <use xlink:href="#DejaVuSans-32"/>
       <use xlink:href="#DejaVuSans-30" x="63.623047"/>
       <use xlink:href="#DejaVuSans-32" x="127.246094"/>
       <use xlink:href="#DejaVuSans-34" x="190.869141"/>
      </g>
     </g>
    </g>
    <g id="xtick_7">
     <g id="line2d_7">
      <g>
       <use xlink:href="#m52ea1c3beb" x="1014.955606" y="512.64" style="stroke: #000000; stroke-width: 0.8"/>
      </g>
     </g>
     <g id="text_7">
      <!-- 2026 -->
      <g transform="translate(1002.230606 527.238438) scale(0.1 -0.1)">
       <use xlink:href="#DejaVuSans-32"/>
       <use xlink:href="#DejaVuSans-30" x="63.623047"/>
       <use xlink:href="#DejaVuSans-32" x="127.246094"/>
       <use xlink:href="#DejaVuSans-36" x="190.869141"/>
      </g>
     </g>
    </g>
   </g>
   <g id="matplotlib.axis_2">
    <g id="ytick_1">
     <g id="line2d_8">
      <defs>
       <path id="m25a3720a37" d="M 0 0 
L -3.5 0 
" style="stroke: #000000; stroke-width: 0.8"/>
      </defs>
      <g>
       <use xlink:href="#m25a3720a37" x="144" y="492.513726" style="stroke: #000000; stroke-width: 0.8"/>
      </g>
     </g>
     <g id="text_8">
      <!-- 0 -->
      <g transform="translate(130.6375 496.312945) scale(0.1 -0.1)">
       <use xlink:href="#DejaVuSans-30"/>
      </g>
     </g>
    </g>
    <g id="ytick_2">
     <g id="line2d_9">
      <g>
       <use xlink:href="#m25a3720a37" x="144" y="425.060778" style="stroke: #000000; stroke-width: 0.8"/>
      </g>
     </g>
     <g id="text_9">
      <!-- 2000 -->
      <g transform="translate(111.55 428.859997) scale(0.1 -0.1)">
       <use xlink:href="#DejaVuSans-32"/>
       <use xlink:href="#DejaVuSans-30" x="63.623047"/>
       <use xlink:href="#DejaVuSans-30" x="127.246094"/>
       <use xlink:href="#DejaVuSans-30" x="190.869141"/>
      </g>
     </g>
    </g>
    <g id="ytick_3">
     <g id="line2d_10">
      <g>
       <use xlink:href="#m25a3720a37" x="144" y="357.607829" style="stroke: #000000; stroke-width: 0.8"/>
      </g>
     </g>
     <g id="text_10">
      <!-- 4000 -->
      <g transform="translate(111.55 361.407048) scale(0.1 -0.1)">
       <use xlink:href="#DejaVuSans-34"/>
       <use xlink:href="#DejaVuSans-30" x="63.623047"/>
       <use xlink:href="#DejaVuSans-30" x="127.246094"/>
       <use xlink:href="#DejaVuSans-30" x="190.869141"/>
      </g>
     </g>
    </g>
    <g id="ytick_4">
     <g id="line2d_11">
      <g>
       <use xlink:href="#m25a3720a37" x="144" y="290.154881" style="stroke: #000000; stroke-width: 0.8"/>
      </g>
     </g>
     <g id="text_11">
      <!-- 6000 -->
      <g transform="translate(111.55 293.9541) scale(0.1 -0.1)">
       <use xlink:href="#DejaVuSans-36"/>
       <use xlink:href="#DejaVuSans-30" x="63.623047"/>
       <use xlink:href="#DejaVuSans-30" x="127.246094"/>
       <use xlink:href="#DejaVuSans-30" x="190.869141"/>
      </g>
     </g>
    </g>
    <g id="ytick_5">
     <g id="line2d_12">
      <g>
       <use xlink:href="#m25a3720a37" x="144" y="222.701932" style="stroke: #000000; stroke-width: 0.8"/>
      </g>
     </g>
     <g id="text_12">
      <!-- 8000 -->
      <g transform="translate(111.55 226.501151) scale(0.1 -0.1)">
       <use xlink:href="#DejaVuSans-38"/>
       <use xlink:href="#DejaVuSans-30" x="63.623047"/>
       <use xlink:href="#DejaVuSans-30" x="127.246094"/>
       <use xlink:href="#DejaVuSans-30" x="190.869141"/>
      </g>
     </g>
    </g>
    <g id="ytick_6">
     <g id="line2d_13">
      <g>
       <use xlink:href="#m25a3720a37" x="144" y="155.248984" style="stroke: #000000; stroke-width: 0.8"/>
      </g>
     </g>
     <g id="text_13">
      <!-- 10000 -->
      <g transform="translate(105.1875 159.048202) scale(0.1 -0.1)">
       <use xlink:href="#DejaVuSans-31"/>
       <use xlink:href="#DejaVuSans-30" x="63.623047"/>
       <use xlink:href="#DejaVuSans-30" x="127.246094"/>
       <use xlink:href="#DejaVuSans-30" x="190.869141"/>
       <use xlink:href="#DejaVuSans-30" x="254.492188"/>
      </g>
     </g>
    </g>
    <g id="ytick_7">
     <g id="line2d_14">
      <g>
       <use xlink:href="#m25a3720a37" x="144" y="87.796035" style="stroke: #000000; stroke-width: 0.8"/>
      </g>
     </g>
     <g id="text_14">
      <!-- 12000 -->
      <g transform="translate(105.1875 91.595254) scale(0.1 -0.1)">
       <use xlink:href="#DejaVuSans-31"/>
       <use xlink:href="#DejaVuSans-32" x="63.623047"/>
       <use xlink:href="#DejaVuSans-30" x="127.246094"/>
       <use xlink:href="#DejaVuSans-30" x="190.869141"/>
       <use xlink:href="#DejaVuSans-30" x="254.492188"/>
      </g>
     </g>
    </g>
   </g>
   <g id="line2d_15">
    <path d="M 184.581818 492.48 
L 186.302602 492.412547 
L 305.801478 492.210188 
L 445.758561 492.041556 
L 497.764472 491.839197 
L 511.339544 491.738018 
L 543.843238 491.569385 
L 545.372824 491.501932 
L 554.167941 491.400753 
L 596.040347 491.198394 
L 602.158689 491.130941 
L 602.541086 490.861129 
L 606.556248 490.692497 
L 640.207131 490.557591 
L 644.031095 490.456412 
L 667.357276 490.254053 
L 681.505943 490.017967 
L 684.565114 489.916788 
L 693.933826 489.714429 
L 697.375394 489.545797 
L 698.331385 489.478344 
L 699.669772 489.309711 
L 707.126502 489.107353 
L 711.141664 488.972447 
L 717.451205 488.534003 
L 727.393511 488.297917 
L 733.320655 486.64532 
L 733.89425 486.611593 
L 734.659043 486.07197 
L 734.850241 485.262535 
L 735.232637 485.060176 
L 735.423836 485.026449 
L 735.615034 483.913476 
L 736.762223 483.441305 
L 737.144619 482.867955 
L 737.527016 482.63187 
L 737.718214 482.125972 
L 737.909412 481.147905 
L 738.10061 480.81064 
L 738.483007 479.023137 
L 738.674205 477.067001 
L 739.056601 475.684216 
L 739.2478 475.414404 
L 739.438998 470.895056 
L 739.630196 469.073827 
L 739.821394 468.399297 
L 740.012592 465.161556 
L 740.586187 461.451644 
L 740.777385 461.350464 
L 741.159782 459.428055 
L 741.35098 458.787252 
L 741.542178 453.93064 
L 741.733376 453.492196 
L 742.115773 451.974504 
L 742.306971 451.873325 
L 742.498169 451.030163 
L 742.689367 447.556336 
L 742.880565 446.679448 
L 743.071764 446.611995 
L 743.262962 444.116236 
L 743.45416 443.610339 
L 743.836556 443.441706 
L 744.601349 440.878494 
L 744.983746 440.203965 
L 745.366142 438.247829 
L 745.55734 437.47212 
L 745.939737 432.177064 
L 746.513331 429.580125 
L 747.278124 429.175408 
L 748.042917 427.792622 
L 748.425313 427.725169 
L 748.80771 424.824693 
L 748.998908 424.790966 
L 749.381304 424.318795 
L 749.572502 422.969737 
L 749.763701 422.565019 
L 749.954899 422.430113 
L 750.146097 422.126575 
L 750.337295 421.553225 
L 750.91089 421.317139 
L 751.102088 421.081054 
L 751.675683 418.990013 
L 751.866881 418.855107 
L 752.249277 418.315483 
L 753.01407 417.944492 
L 753.205268 416.561706 
L 753.396466 416.460527 
L 753.587665 416.224442 
L 753.778863 413.593777 
L 754.161259 413.526324 
L 754.543656 412.818068 
L 754.734854 412.143538 
L 755.308448 412.008632 
L 755.882043 410.963112 
L 756.073241 410.929385 
L 756.455638 410.356035 
L 756.838034 410.221129 
L 757.029232 407.15202 
L 758.176421 406.882208 
L 758.558818 406.612396 
L 759.323611 406.511217 
L 759.514809 406.342585 
L 761.809187 405.668055 
L 762.57398 405.128432 
L 763.529971 404.993526 
L 764.294764 404.588808 
L 766.206746 404.082911 
L 766.971539 401.216161 
L 767.92753 401.081255 
L 768.118728 401.013802 
L 769.648314 400.845169 
L 770.221908 400.642811 
L 770.413106 400.103187 
L 771.369097 400.035734 
L 771.942692 399.732196 
L 772.898683 399.394931 
L 773.089881 399.361205 
L 773.472278 398.990213 
L 773.854674 398.889034 
L 774.045872 398.652949 
L 774.810665 398.383137 
L 775.766656 398.281957 
L 775.957854 398.045872 
L 776.340251 398.012146 
L 776.531449 397.472522 
L 776.722647 397.405069 
L 776.913845 396.62936 
L 779.208224 396.123463 
L 779.781818 395.988557 
L 779.973016 395.583839 
L 781.311404 395.246575 
L 781.884998 395.044216 
L 782.649791 394.875583 
L 783.414584 394.673225 
L 784.370575 394.470866 
L 784.94417 394.302233 
L 786.282557 393.526524 
L 786.473755 392.851995 
L 787.429746 392.076286 
L 787.620944 391.772748 
L 788.576935 390.963312 
L 788.959332 390.255056 
L 789.15053 390.22133 
L 789.532926 389.344442 
L 790.297719 388.467553 
L 790.871314 388.366374 
L 791.062512 388.062836 
L 791.444908 387.894203 
L 791.636107 387.556939 
L 792.592098 387.320853 
L 792.783296 387.017315 
L 794.121683 386.713777 
L 794.50408 386.545144 
L 794.695278 386.511418 
L 794.886476 386.342785 
L 795.842467 386.20788 
L 797.180854 385.600803 
L 797.754449 385.499624 
L 798.136845 384.757641 
L 798.519242 384.521556 
L 799.475233 383.779573 
L 799.666431 383.003864 
L 800.431224 382.767779 
L 801.578413 382.396788 
L 801.96081 381.823438 
L 802.916801 381.283814 
L 803.107999 380.94655 
L 803.681593 380.744191 
L 804.06399 380.474379 
L 804.637584 380.238294 
L 805.019981 376.494655 
L 805.211179 375.280502 
L 805.402377 373.18946 
L 805.593575 372.919649 
L 806.358368 370.32271 
L 806.740765 369.648181 
L 806.931963 369.580728 
L 807.123161 369.344642 
L 807.314359 368.906198 
L 807.505557 367.388507 
L 807.696756 367.017516 
L 808.079152 366.88261 
L 809.226341 364.58921 
L 809.417539 364.420577 
L 809.608738 363.509962 
L 810.564729 361.823639 
L 811.329521 361.385194 
L 811.52072 361.182836 
L 811.711918 360.103588 
L 812.094314 359.934956 
L 812.476711 359.563965 
L 813.050305 358.788256 
L 813.241503 358.08 
L 813.432702 358.046274 
L 814.006296 357.371744 
L 814.388693 357.338018 
L 814.579891 357.000753 
L 814.962287 356.798394 
L 815.918278 355.752873 
L 816.109476 355.179523 
L 817.639062 353.729285 
L 818.021458 352.413952 
L 819.168648 351.840602 
L 819.742242 350.963714 
L 820.698233 349.513476 
L 821.08063 349.311117 
L 821.845422 349.176211 
L 822.419017 348.096964 
L 823.18381 347.860878 
L 823.948603 346.98399 
L 824.330999 346.916537 
L 824.713395 346.511819 
L 825.28699 346.275734 
L 825.669386 346.242008 
L 825.860585 346.039649 
L 826.051783 345.432572 
L 826.816576 345.196487 
L 827.007774 344.859222 
L 827.198972 344.825496 
L 827.39017 344.218419 
L 827.963765 343.982334 
L 828.537359 343.847428 
L 828.919756 343.510163 
L 829.875747 343.071719 
L 830.258143 342.768181 
L 830.64054 342.532095 
L 831.022936 342.498369 
L 831.214134 341.587754 
L 831.596531 341.284216 
L 832.170125 341.014404 
L 832.74372 340.677139 
L 833.508513 340.542233 
L 833.699711 339.597892 
L 835.038098 338.957089 
L 835.229296 338.923363 
L 835.420495 338.75473 
L 835.802891 338.687277 
L 835.994089 338.383739 
L 836.758882 338.080201 
L 836.95008 337.70921 
L 837.332477 337.675483 
L 837.714873 337.439398 
L 838.288468 337.135859 
L 838.479666 336.663689 
L 839.244459 336.292698 
L 839.435657 336.022886 
L 840.009252 335.719348 
L 840.582846 335.449536 
L 840.774044 335.145997 
L 840.965243 335.112271 
L 841.347639 334.842459 
L 841.730035 334.673827 
L 841.921234 334.471468 
L 843.068423 334.134203 
L 843.259621 333.763212 
L 843.450819 333.662033 
L 844.40681 333.425947 
L 844.789207 333.122409 
L 845.171603 332.987503 
L 845.745198 332.818871 
L 845.936396 332.515332 
L 846.318792 332.44788 
L 846.50999 331.840803 
L 846.701189 331.739624 
L 847.083585 331.301179 
L 847.274783 330.592923 
L 847.65718 330.356838 
L 848.804369 329.412497 
L 849.186765 329.041506 
L 849.569162 328.9066 
L 849.76036 328.501882 
L 849.951558 328.434429 
L 850.333954 328.029711 
L 850.716351 327.793626 
L 851.289945 327.624994 
L 851.672342 327.18655 
L 853.775522 325.399046 
L 854.731513 325.162961 
L 855.878702 323.982535 
L 856.261099 323.813902 
L 857.790684 323.206826 
L 858.555477 322.734655 
L 859.32027 322.39739 
L 859.893864 322.127578 
L 860.849855 321.722861 
L 861.614648 321.520502 
L 862.188243 321.115784 
L 862.379441 321.082058 
L 862.570639 320.744793 
L 863.909027 320.205169 
L 864.865018 319.665546 
L 866.012207 319.159649 
L 866.203405 318.721205 
L 866.394603 317.23724 
L 866.777 316.866248 
L 866.968198 316.832522 
L 868.115387 315.348557 
L 868.497783 314.336763 
L 868.88018 313.999498 
L 869.262576 313.763413 
L 869.644973 313.662233 
L 869.836171 313.392422 
L 870.218567 313.190063 
L 870.600964 312.852798 
L 870.98336 312.684166 
L 871.174558 312.616713 
L 871.556955 312.211995 
L 871.748153 312.178269 
L 871.939351 311.773551 
L 872.512946 311.571192 
L 872.895342 311.065295 
L 874.042531 310.222133 
L 874.424928 310.188407 
L 874.616126 309.884868 
L 875.189721 309.716236 
L 875.572117 308.265997 
L 875.954513 307.928733 
L 876.719306 307.658921 
L 877.101703 307.389109 
L 877.292901 306.916939 
L 877.675297 306.782033 
L 877.866495 306.309862 
L 878.057694 306.208683 
L 878.44009 305.803965 
L 878.631288 305.601606 
L 879.204883 305.432974 
L 879.587279 305.129435 
L 879.778477 305.095709 
L 879.969676 304.89335 
L 880.160874 304.859624 
L 880.925667 304.387453 
L 881.308063 303.544291 
L 881.499261 303.443112 
L 881.881658 303.375659 
L 882.072856 303.004668 
L 882.455252 302.836035 
L 882.837649 302.633676 
L 883.028847 302.0266 
L 883.79364 301.588156 
L 883.984838 300.981079 
L 884.749631 300.340276 
L 884.940829 300.30655 
L 885.323225 299.800652 
L 885.705622 299.497114 
L 885.89682 299.429661 
L 886.088018 299.092396 
L 886.470414 298.957491 
L 886.661613 298.316688 
L 887.044009 298.215508 
L 887.235207 297.91197 
L 887.426405 297.844517 
L 887.617604 297.169987 
L 888.191198 296.967629 
L 888.382396 296.866449 
L 888.764793 296.326826 
L 888.955991 296.19192 
L 889.720784 295.078946 
L 889.911982 295.011493 
L 890.294378 294.606775 
L 891.059171 294.067152 
L 891.632766 293.79734 
L 893.35355 292.111016 
L 893.735946 291.97611 
L 894.118342 291.571393 
L 894.500739 291.470213 
L 894.691937 290.694504 
L 895.265532 290.188607 
L 895.45673 289.514078 
L 895.839126 289.143087 
L 896.030324 288.805822 
L 896.221523 288.772095 
L 897.177514 287.895207 
L 897.368712 287.827754 
L 897.55991 287.625395 
L 897.751108 287.591669 
L 898.133505 287.28813 
L 899.280694 286.748507 
L 900.045487 285.635533 
L 900.427883 285.500627 
L 900.619081 285.197089 
L 900.810279 285.129636 
L 901.001478 284.893551 
L 901.192676 284.859824 
L 901.383874 284.488833 
L 902.148667 284.016662 
L 902.722261 283.578218 
L 903.487054 283.207227 
L 904.060649 282.735056 
L 904.634243 282.465245 
L 904.825442 282.161706 
L 905.207838 282.094253 
L 905.781433 281.55463 
L 905.972631 281.251092 
L 906.546226 280.98128 
L 906.928622 280.677742 
L 907.502217 280.509109 
L 907.884613 280.104391 
L 908.267009 279.969486 
L 908.649406 279.83458 
L 909.031802 279.362409 
L 909.796595 279.058871 
L 909.987793 277.507453 
L 910.943784 276.832923 
L 911.708577 275.483864 
L 911.899775 275.382685 
L 912.090973 274.944241 
L 912.47337 274.809335 
L 913.238163 273.662635 
L 913.620559 272.077491 
L 913.811757 271.60532 
L 914.194154 269.075834 
L 914.385352 268.06404 
L 915.341343 266.849887 
L 916.106136 263.848231 
L 916.297334 263.679598 
L 916.488532 263.207428 
L 916.67973 261.588557 
L 916.870928 260.981481 
L 917.062127 260.947754 
L 917.253325 260.205772 
L 917.826919 259.767327 
L 918.209316 258.519448 
L 919.165307 258.013551 
L 919.547703 257.608833 
L 920.694892 256.799398 
L 920.886091 256.428407 
L 921.268487 255.180527 
L 921.650883 255.045621 
L 922.798073 254.371092 
L 923.562865 254.135006 
L 923.945262 253.898921 
L 924.13646 253.764015 
L 924.518856 253.730289 
L 927.004433 251.470615 
L 927.386829 251.369435 
L 927.769226 251.13335 
L 927.960424 251.032171 
L 928.151622 250.222735 
L 928.725217 249.683112 
L 929.107613 249.581932 
L 930.254802 248.671317 
L 930.637199 248.502685 
L 930.828397 248.435232 
L 931.210793 248.030514 
L 931.59319 247.963061 
L 931.784388 247.490891 
L 931.975586 247.322258 
L 932.166784 246.782635 
L 932.549181 246.54655 
L 933.122775 245.29867 
L 933.313974 244.624141 
L 933.887568 244.219423 
L 934.461163 243.47744 
L 934.843559 242.162108 
L 935.034757 241.824843 
L 935.225956 241.116587 
L 935.417154 241.049134 
L 935.608352 240.475784 
L 935.990748 240.239699 
L 937.137938 239.092999 
L 937.329136 238.620828 
L 937.90273 238.351016 
L 938.093929 237.878846 
L 939.241118 237.406675 
L 939.432316 236.698419 
L 939.814712 236.462334 
L 940.005911 236.02389 
L 940.197109 235.888984 
L 940.579505 235.855257 
L 941.726695 234.978369 
L 942.300289 234.539925 
L 942.682686 234.101481 
L 943.065082 233.764216 
L 943.25628 233.426951 
L 943.447478 232.684969 
L 944.594668 232.044166 
L 944.977064 231.23473 
L 945.35946 231.099824 
L 945.550659 230.627654 
L 945.741857 230.560201 
L 946.124253 229.953124 
L 947.845037 228.772698 
L 948.992226 227.625997 
L 949.374623 226.816562 
L 949.565821 226.007127 
L 949.948217 225.366324 
L 950.139415 224.961606 
L 951.095406 220.104994 
L 951.477803 219.396738 
L 951.669001 217.609235 
L 951.860199 214.101681 
L 952.051397 212.718896 
L 952.242596 210.492949 
L 952.433794 209.919598 
L 952.81619 207.423839 
L 953.198587 203.983739 
L 953.580983 199.363212 
L 953.963379 198.654956 
L 954.345776 192.68537 
L 954.536974 191.100226 
L 954.91937 184.354931 
L 955.301767 183.073325 
L 955.492965 179.633225 
L 955.684163 178.857516 
L 956.06656 175.080151 
L 956.448956 164.962208 
L 956.640154 164.388858 
L 956.831352 163.444517 
L 957.022551 160.274228 
L 957.213749 160.004417 
L 957.596145 154.911719 
L 957.787343 154.81054 
L 957.978542 154.473275 
L 958.360938 153.259122 
L 958.552136 153.023036 
L 958.743334 152.449686 
L 958.934533 151.370439 
L 959.316929 151.16808 
L 959.508127 150.628457 
L 959.890524 148.942133 
L 960.27292 145.738118 
L 960.464118 145.097315 
L 960.655316 145.029862 
L 960.846515 144.726324 
L 961.802506 141.859573 
L 961.993704 141.758394 
L 962.184902 141.083864 
L 962.567298 140.7466 
L 962.758497 140.611694 
L 962.949695 140.105797 
L 963.140893 139.937164 
L 963.714488 139.127729 
L 964.288082 138.284567 
L 964.670479 138.149661 
L 965.62647 136.935508 
L 966.008866 136.766876 
L 966.582461 136.699423 
L 966.964857 136.193526 
L 967.347253 136.092346 
L 967.920848 135.48527 
L 968.685641 135.046826 
L 969.450434 134.102484 
L 969.641632 133.596587 
L 970.406425 133.360502 
L 970.788821 133.023237 
L 971.171217 132.382434 
L 971.744812 131.842811 
L 972.127208 130.460025 
L 972.318407 130.22394 
L 973.083199 129.920402 
L 974.230389 128.841154 
L 974.612785 128.571343 
L 974.803983 128.40271 
L 974.995181 127.593275 
L 975.759974 126.952472 
L 975.951173 126.581481 
L 976.333569 126.311669 
L 976.715965 126.041857 
L 977.863155 125.164969 
L 978.627947 124.760251 
L 978.819146 124.659072 
L 979.201542 123.478645 
L 979.39274 123.377465 
L 979.775137 122.804115 
L 980.348731 121.99468 
L 980.731128 121.826048 
L 981.304722 120.814253 
L 981.49592 119.903639 
L 981.687119 119.6001 
L 982.069515 119.465194 
L 982.260713 119.060477 
L 983.981497 117.745144 
L 984.363893 117.003162 
L 984.555092 116.901982 
L 984.74629 112.821079 
L 985.128686 112.14655 
L 985.511083 111.606926 
L 985.702281 111.168482 
L 985.893479 111.134755 
L 986.275875 110.595132 
L 986.467074 109.886876 
L 987.614263 108.402911 
L 987.805461 107.998193 
L 988.187857 105.63734 
L 988.379056 104.996537 
L 988.570254 103.883563 
L 988.761452 103.580025 
L 988.95265 101.893701 
L 989.335047 100.645822 
L 989.526245 99.667754 
L 990.291038 98.622233 
L 991.05583 96.969636 
L 991.629425 96.666098 
L 992.20302 95.991568 
L 992.394218 95.451945 
L 992.585416 95.249586 
L 992.776614 94.777415 
L 992.967812 94.709962 
L 993.732605 93.360903 
L 994.115002 92.585194 
L 994.3062 92.416562 
L 994.497398 91.202409 
L 994.688596 91.033777 
L 995.070993 90.494153 
L 995.453389 90.224341 
L 996.026984 89.381179 
L 996.218182 89.28 
L 996.218182 89.28 
" clip-path="url(#p1e61cde792)" style="fill: none; stroke: #1f77b4; stroke-width: 1.5; stroke-linecap: square"/>
   </g>
   <g id="patch_3">
    <path d="M 144 512.64 
L 144 69.12 
" style="fill: none; stroke: #000000; stroke-width: 0.8; stroke-linejoin: miter; stroke-linecap: square"/>
   </g>
   <g id="patch_4">
    <path d="M 1036.8 512.64 
L 1036.8 69.12 
" style="fill: none; stroke: #000000; stroke-width: 0.8; stroke-linejoin: miter; stroke-linecap: square"/>
   </g>
   <g id="patch_5">
    <path d="M 144 512.64 
L 1036.8 512.64 
" style="fill: none; stroke: #000000; stroke-width: 0.8; stroke-linejoin: miter; stroke-linecap: square"/>
   </g>
   <g id="patch_6">
    <path d="M 144 69.12 
L 1036.8 69.12 
" style="fill: none; stroke: #000000; stroke-width: 0.8; stroke-linejoin: miter; stroke-linecap: square"/>
   </g>
   <g id="text_15">
    <!-- Number of AEDs in the OpenStreetMap database in Poland from first edition, day by day. As at: 2025-09-25 -->
    <g transform="translate(144 63.12) scale(0.14 -0.14)">
     <defs>
      <path id="DejaVuSans-4e" d="M 628 4666 
L 1478 4666 
L 3547 763 
L 3547 4666 
L 4159 4666 
L 4159 0 
L 3309 0 
L 1241 3903 
L 1241 0 
L 628 0 
L 628 4666 
z
" transform="scale(0.015625)"/>
      <path id="DejaVuSans-75" d="M 544 1381 
L 544 3500 
L 1119 3500 
L 1119 1403 
Q 1119 906 1312 657 
Q 1506 409 1894 409 
Q 2359 409 2629 706 
Q 2900 1003 2900 1516 
L 2900 3500 
L 3475 3500 
L 3475 0 
L 2900 0 
L 2900 538 
Q 2691 219 2414 64 
Q 2138 -91 1772 -91 
Q 1169 -91 856 284 
Q 544 659 544 1381 
z
M 1991 3584 
L 1991 3584 
z
" transform="scale(0.015625)"/>
      <path id="DejaVuSans-6d" d="M 3328 2828 
Q 3544 3216 3844 3400 
Q 4144 3584 4550 3584 
Q 5097 3584 5394 3201 
Q 5691 2819 5691 2113 
L 5691 0 
L 5113 0 
L 5113 2094 
Q 5113 2597 4934 2840 
Q 4756 3084 4391 3084 
Q 3944 3084 3684 2787 
Q 3425 2491 3425 1978 
L 3425 0 
L 2847 0 
L 2847 2094 
Q 2847 2600 2669 2842 
Q 2491 3084 2119 3084 
Q 1678 3084 1418 2786 
Q 1159 2488 1159 1978 
L 1159 0 
L 581 0 
L 581 3500 
L 1159 3500 
L 1159 2956 
Q 1356 3278 1631 3431 
Q 1906 3584 2284 3584 
Q 2666 3584 2933 3390 
Q 3200 3197 3328 2828 
z
" transform="scale(0.015625)"/>
      <path id="DejaVuSans-62" d="M 3116 1747 
Q 3116 2381 2855 2742 
Q 2594 3103 2138 3103 
Q 1681 3103 1420 2742 
Q 1159 2381 1159 1747 
Q 1159 1113 1420 752 
Q 1681 391 2138 391 
Q 2594 391 2855 752 
Q 3116 1113 3116 1747 
z
M 1159 2969 
Q 1341 3281 1617 3432 
Q 1894 3584 2278 3584 
Q 2916 3584 3314 3078 
Q 3713 2572 3713 1747 
Q 3713 922 3314 415 
Q 2916 -91 2278 -91 
Q 1894 -91 1617 61 
Q 1341 213 1159 525 
L 1159 0 
L 581 0 
L 581 4863 
L 1159 4863 
L 1159 2969 
z
" transform="scale(0.015625)"/>
      <path id="DejaVuSans-65" d="M 3597 1894 
L 3597 1613 
L 953 1613 
Q 991 1019 1311 708 
Q 1631 397 2203 397 
Q 2534 397 2845 478 
Q 3156 559 3463 722 
L 3463 178 
Q 3153 47 2828 -22 
Q 2503 -91 2169 -91 
Q 1331 -91 842 396 
Q 353 884 353 1716 
Q 353 2575 817 3079 
Q 1281 3584 2069 3584 
Q 2775 3584 3186 3129 
Q 3597 2675 3597 1894 
z
M 3022 2063 
Q 3016 2534 2758 2815 
Q 2500 3097 2075 3097 
Q 1594 3097 1305 2825 
Q 1016 2553 972 2059 
L 3022 2063 
z
" transform="scale(0.015625)"/>
      <path id="DejaVuSans-72" d="M 2631 2963 
Q 2534 3019 2420 3045 
Q 2306 3072 2169 3072 
Q 1681 3072 1420 2755 
Q 1159 2438 1159 1844 
L 1159 0 
L 581 0 
L 581 3500 
L 1159 3500 
L 1159 2956 
Q 1341 3275 1631 3429 
Q 1922 3584 2338 3584 
Q 2397 3584 2469 3576 
Q 2541 3569 2628 3553 
L 2631 2963 
z
" transform="scale(0.015625)"/>
      <path id="DejaVuSans-20" transform="scale(0.015625)"/>
      <path id="DejaVuSans-6f" d="M 1959 3097 
Q 1497 3097 1228 2736 
Q 959 2375 959 1747 
Q 959 1119 1226 758 
Q 1494 397 1959 397 
Q 2419 397 2687 759 
Q 2956 1122 2956 1747 
Q 2956 2369 2687 2733 
Q 2419 3097 1959 3097 
z
M 1959 3584 
Q 2709 3584 3137 3096 
Q 3566 2609 3566 1747 
Q 3566 888 3137 398 
Q 2709 -91 1959 -91 
Q 1206 -91 779 398 
Q 353 888 353 1747 
Q 353 2609 779 3096 
Q 1206 3584 1959 3584 
z
" transform="scale(0.015625)"/>
      <path id="DejaVuSans-66" d="M 2375 4863 
L 2375 4384 
L 1825 4384 
Q 1516 4384 1395 4259 
Q 1275 4134 1275 3809 
L 1275 3500 
L 2222 3500 
L 2222 3053 
L 1275 3053 
L 1275 0 
L 697 0 
L 697 3053 
L 147 3053 
L 147 3500 
L 697 3500 
L 697 3744 
Q 697 4328 969 4595 
Q 1241 4863 1831 4863 
L 2375 4863 
z
" transform="scale(0.015625)"/>
      <path id="DejaVuSans-41" d="M 2188 4044 
L 1331 1722 
L 3047 1722 
L 2188 4044 
z
M 1831 4666 
L 2547 4666 
L 4325 0 
L 3669 0 
L 3244 1197 
L 1141 1197 
L 716 0 
L 50 0 
L 1831 4666 
z
" transform="scale(0.015625)"/>
      <path id="DejaVuSans-45" d="M 628 4666 
L 3578 4666 
L 3578 4134 
L 1259 4134 
L 1259 2753 
L 3481 2753 
L 3481 2222 
L 1259 2222 
L 1259 531 
L 3634 531 
L 3634 0 
L 628 0 
L 628 4666 
z
" transform="scale(0.015625)"/>
      <path id="DejaVuSans-44" d="M 1259 4147 
L 1259 519 
L 2022 519 
Q 2988 519 3436 956 
Q 3884 1394 3884 2338 
Q 3884 3275 3436 3711 
Q 2988 4147 2022 4147 
L 1259 4147 
z
M 628 4666 
L 1925 4666 
Q 3281 4666 3915 4102 
Q 4550 3538 4550 2338 
Q 4550 1131 3912 565 
Q 3275 0 1925 0 
L 628 0 
L 628 4666 
z
" transform="scale(0.015625)"/>
      <path id="DejaVuSans-73" d="M 2834 3397 
L 2834 2853 
Q 2591 2978 2328 3040 
Q 2066 3103 1784 3103 
Q 1356 3103 1142 2972 
Q 928 2841 928 2578 
Q 928 2378 1081 2264 
Q 1234 2150 1697 2047 
L 1894 2003 
Q 2506 1872 2764 1633 
Q 3022 1394 3022 966 
Q 3022 478 2636 193 
Q 2250 -91 1575 -91 
Q 1294 -91 989 -36 
Q 684 19 347 128 
L 347 722 
Q 666 556 975 473 
Q 1284 391 1588 391 
Q 1994 391 2212 530 
Q 2431 669 2431 922 
Q 2431 1156 2273 1281 
Q 2116 1406 1581 1522 
L 1381 1569 
Q 847 1681 609 1914 
Q 372 2147 372 2553 
Q 372 3047 722 3315 
Q 1072 3584 1716 3584 
Q 2034 3584 2315 3537 
Q 2597 3491 2834 3397 
z
" transform="scale(0.015625)"/>
      <path id="DejaVuSans-69" d="M 603 3500 
L 1178 3500 
L 1178 0 
L 603 0 
L 603 3500 
z
M 603 4863 
L 1178 4863 
L 1178 4134 
L 603 4134 
L 603 4863 
z
" transform="scale(0.015625)"/>
      <path id="DejaVuSans-6e" d="M 3513 2113 
L 3513 0 
L 2938 0 
L 2938 2094 
Q 2938 2591 2744 2837 
Q 2550 3084 2163 3084 
Q 1697 3084 1428 2787 
Q 1159 2491 1159 1978 
L 1159 0 
L 581 0 
L 581 3500 
L 1159 3500 
L 1159 2956 
Q 1366 3272 1645 3428 
Q 1925 3584 2291 3584 
Q 2894 3584 3203 3211 
Q 3513 2838 3513 2113 
z
" transform="scale(0.015625)"/>
      <path id="DejaVuSans-74" d="M 1172 4494 
L 1172 3500 
L 2356 3500 
L 2356 3053 
L 1172 3053 
L 1172 1153 
Q 1172 725 1289 603 
Q 1406 481 1766 481 
L 2356 481 
L 2356 0 
L 1766 0 
Q 1100 0 847 248 
Q 594 497 594 1153 
L 594 3053 
L 172 3053 
L 172 3500 
L 594 3500 
L 594 4494 
L 1172 4494 
z
" transform="scale(0.015625)"/>
      <path id="DejaVuSans-68" d="M 3513 2113 
L 3513 0 
L 2938 0 
L 2938 2094 
Q 2938 2591 2744 2837 
Q 2550 3084 2163 3084 
Q 1697 3084 1428 2787 
Q 1159 2491 1159 1978 
L 1159 0 
L 581 0 
L 581 4863 
L 1159 4863 
L 1159 2956 
Q 1366 3272 1645 3428 
Q 1925 3584 2291 3584 
Q 2894 3584 3203 3211 
Q 3513 2838 3513 2113 
z
" transform="scale(0.015625)"/>
      <path id="DejaVuSans-4f" d="M 2522 4238 
Q 1834 4238 1429 3725 
Q 1025 3213 1025 2328 
Q 1025 1447 1429 934 
Q 1834 422 2522 422 
Q 3209 422 3611 934 
Q 4013 1447 4013 2328 
Q 4013 3213 3611 3725 
Q 3209 4238 2522 4238 
z
M 2522 4750 
Q 3503 4750 4090 4092 
Q 4678 3434 4678 2328 
Q 4678 1225 4090 567 
Q 3503 -91 2522 -91 
Q 1538 -91 948 565 
Q 359 1222 359 2328 
Q 359 3434 948 4092 
Q 1538 4750 2522 4750 
z
" transform="scale(0.015625)"/>
      <path id="DejaVuSans-70" d="M 1159 525 
L 1159 -1331 
L 581 -1331 
L 581 3500 
L 1159 3500 
L 1159 2969 
Q 1341 3281 1617 3432 
Q 1894 3584 2278 3584 
Q 2916 3584 3314 3078 
Q 3713 2572 3713 1747 
Q 3713 922 3314 415 
Q 2916 -91 2278 -91 
Q 1894 -91 1617 61 
Q 1341 213 1159 525 
z
M 3116 1747 
Q 3116 2381 2855 2742 
Q 2594 3103 2138 3103 
Q 1681 3103 1420 2742 
Q 1159 2381 1159 1747 
Q 1159 1113 1420 752 
Q 1681 391 2138 391 
Q 2594 391 2855 752 
Q 3116 1113 3116 1747 
z
" transform="scale(0.015625)"/>
      <path id="DejaVuSans-53" d="M 3425 4513 
L 3425 3897 
Q 3066 4069 2747 4153 
Q 2428 4238 2131 4238 
Q 1616 4238 1336 4038 
Q 1056 3838 1056 3469 
Q 1056 3159 1242 3001 
Q 1428 2844 1947 2747 
L 2328 2669 
Q 3034 2534 3370 2195 
Q 3706 1856 3706 1288 
Q 3706 609 3251 259 
Q 2797 -91 1919 -91 
Q 1588 -91 1214 -16 
Q 841 59 441 206 
L 441 856 
Q 825 641 1194 531 
Q 1563 422 1919 422 
Q 2459 422 2753 634 
Q 3047 847 3047 1241 
Q 3047 1584 2836 1778 
Q 2625 1972 2144 2069 
L 1759 2144 
Q 1053 2284 737 2584 
Q 422 2884 422 3419 
Q 422 4038 858 4394 
Q 1294 4750 2059 4750 
Q 2388 4750 2728 4690 
Q 3069 4631 3425 4513 
z
" transform="scale(0.015625)"/>
      <path id="DejaVuSans-4d" d="M 628 4666 
L 1569 4666 
L 2759 1491 
L 3956 4666 
L 4897 4666 
L 4897 0 
L 4281 0 
L 4281 4097 
L 3078 897 
L 2444 897 
L 1241 4097 
L 1241 0 
L 628 0 
L 628 4666 
z
" transform="scale(0.015625)"/>
      <path id="DejaVuSans-61" d="M 2194 1759 
Q 1497 1759 1228 1600 
Q 959 1441 959 1056 
Q 959 750 1161 570 
Q 1363 391 1709 391 
Q 2188 391 2477 730 
Q 2766 1069 2766 1631 
L 2766 1759 
L 2194 1759 
z
M 3341 1997 
L 3341 0 
L 2766 0 
L 2766 531 
Q 2569 213 2275 61 
Q 1981 -91 1556 -91 
Q 1019 -91 701 211 
Q 384 513 384 1019 
Q 384 1609 779 1909 
Q 1175 2209 1959 2209 
L 2766 2209 
L 2766 2266 
Q 2766 2663 2505 2880 
Q 2244 3097 1772 3097 
Q 1472 3097 1187 3025 
Q 903 2953 641 2809 
L 641 3341 
Q 956 3463 1253 3523 
Q 1550 3584 1831 3584 
Q 2591 3584 2966 3190 
Q 3341 2797 3341 1997 
z
" transform="scale(0.015625)"/>
      <path id="DejaVuSans-64" d="M 2906 2969 
L 2906 4863 
L 3481 4863 
L 3481 0 
L 2906 0 
L 2906 525 
Q 2725 213 2448 61 
Q 2172 -91 1784 -91 
Q 1150 -91 751 415 
Q 353 922 353 1747 
Q 353 2572 751 3078 
Q 1150 3584 1784 3584 
Q 2172 3584 2448 3432 
Q 2725 3281 2906 2969 
z
M 947 1747 
Q 947 1113 1208 752 
Q 1469 391 1925 391 
Q 2381 391 2643 752 
Q 2906 1113 2906 1747 
Q 2906 2381 2643 2742 
Q 2381 3103 1925 3103 
Q 1469 3103 1208 2742 
Q 947 2381 947 1747 
z
" transform="scale(0.015625)"/>
      <path id="DejaVuSans-50" d="M 1259 4147 
L 1259 2394 
L 2053 2394 
Q 2494 2394 2734 2622 
Q 2975 2850 2975 3272 
Q 2975 3691 2734 3919 
Q 2494 4147 2053 4147 
L 1259 4147 
z
M 628 4666 
L 2053 4666 
Q 2838 4666 3239 4311 
Q 3641 3956 3641 3272 
Q 3641 2581 3239 2228 
Q 2838 1875 2053 1875 
L 1259 1875 
L 1259 0 
L 628 0 
L 628 4666 
z
" transform="scale(0.015625)"/>
      <path id="DejaVuSans-6c" d="M 603 4863 
L 1178 4863 
L 1178 0 
L 603 0 
L 603 4863 
z
" transform="scale(0.015625)"/>
      <path id="DejaVuSans-2c" d="M 750 794 
L 1409 794 
L 1409 256 
L 897 -744 
L 494 -744 
L 750 256 
L 750 794 
z
" transform="scale(0.015625)"/>
      <path id="DejaVuSans-79" d="M 2059 -325 
Q 1816 -950 1584 -1140 
Q 1353 -1331 966 -1331 
L 506 -1331 
L 506 -850 
L 844 -850 
Q 1081 -850 1212 -737 
Q 1344 -625 1503 -206 
L 1606 56 
L 191 3500 
L 800 3500 
L 1894 763 
L 2988 3500 
L 3597 3500 
L 2059 -325 
z
" transform="scale(0.015625)"/>
      <path id="DejaVuSans-2e" d="M 684 794 
L 1344 794 
L 1344 0 
L 684 0 
L 684 794 
z
" transform="scale(0.015625)"/>
      <path id="DejaVuSans-3a" d="M 750 794 
L 1409 794 
L 1409 0 
L 750 0 
L 750 794 
z
M 750 3309 
L 1409 3309 
L 1409 2516 
L 750 2516 
L 750 3309 
z
" transform="scale(0.015625)"/>
      <path id="DejaVuSans-35" d="M 691 4666 
L 3169 4666 
L 3169 4134 
L 1269 4134 
L 1269 2991 
Q 1406 3038 1543 3061 
Q 1681 3084 1819 3084 
Q 2600 3084 3056 2656 
Q 3513 2228 3513 1497 
Q 3513 744 3044 326 
Q 2575 -91 1722 -91 
Q 1428 -91 1123 -41 
Q 819 9 494 109 
L 494 744 
Q 775 591 1075 516 
Q 1375 441 1709 441 
Q 2250 441 2565 725 
Q 2881 1009 2881 1497 
Q 2881 1984 2565 2268 
Q 2250 2553 1709 2553 
Q 1456 2553 1204 2497 
Q 953 2441 691 2322 
L 691 4666 
z
" transform="scale(0.015625)"/>
      <path id="DejaVuSans-2d" d="M 313 2009 
L 1997 2009 
L 1997 1497 
L 313 1497 
L 313 2009 
z
" transform="scale(0.015625)"/>
      <path id="DejaVuSans-39" d="M 703 97 
L 703 672 
Q 941 559 1184 500 
Q 1428 441 1663 441 
Q 2288 441 2617 861 
Q 2947 1281 2994 2138 
Q 2813 1869 2534 1725 
Q 2256 1581 1919 1581 
Q 1219 1581 811 2004 
Q 403 2428 403 3163 
Q 403 3881 828 4315 
Q 1253 4750 1959 4750 
Q 2769 4750 3195 4129 
Q 3622 3509 3622 2328 
Q 3622 1225 3098 567 
Q 2575 -91 1691 -91 
Q 1453 -91 1209 -44 
Q 966 3 703 97 
z
M 1959 2075 
Q 2384 2075 2632 2365 
Q 2881 2656 2881 3163 
Q 2881 3666 2632 3958 
Q 2384 4250 1959 4250 
Q 1534 4250 1286 3958 
Q 1038 3666 1038 3163 
Q 1038 2656 1286 2365 
Q 1534 2075 1959 2075 
z
" transform="scale(0.015625)"/>
     </defs>
     <use xlink:href="#DejaVuSans-4e"/>
     <use xlink:href="#DejaVuSans-75" x="74.804688"/>
     <use xlink:href="#DejaVuSans-6d" x="138.183594"/>
     <use xlink:href="#DejaVuSans-62" x="235.595703"/>
     <use xlink:href="#DejaVuSans-65" x="299.072266"/>
     <use xlink:href="#DejaVuSans-72" x="360.595703"/>
     <use xlink:href="#DejaVuSans-20" x="401.708984"/>
     <use xlink:href="#DejaVuSans-6f" x="433.496094"/>
     <use xlink:href="#DejaVuSans-66" x="494.677734"/>
     <use xlink:href="#DejaVuSans-20" x="529.882812"/>
     <use xlink:href="#DejaVuSans-41" x="561.669922"/>
     <use xlink:href="#DejaVuSans-45" x="630.078125"/>
     <use xlink:href="#DejaVuSans-44" x="693.261719"/>
     <use xlink:href="#DejaVuSans-73" x="770.263672"/>
     <use xlink:href="#DejaVuSans-20" x="822.363281"/>
     <use xlink:href="#DejaVuSans-69" x="854.150391"/>
     <use xlink:href="#DejaVuSans-6e" x="881.933594"/>
     <use xlink:href="#DejaVuSans-20" x="945.3125"/>
     <use xlink:href="#DejaVuSans-74" x="977.099609"/>
     <use xlink:href="#DejaVuSans-68" x="1016.308594"/>
     <use xlink:href="#DejaVuSans-65" x="1079.6875"/>
     <use xlink:href="#DejaVuSans-20" x="1141.210938"/>
     <use xlink:href="#DejaVuSans-4f" x="1172.998047"/>
     <use xlink:href="#DejaVuSans-70" x="1251.708984"/>
     <use xlink:href="#DejaVuSans-65" x="1315.185547"/>
     <use xlink:href="#DejaVuSans-6e" x="1376.708984"/>
     <use xlink:href="#DejaVuSans-53" x="1440.087891"/>
     <use xlink:href="#DejaVuSans-74" x="1503.564453"/>
     <use xlink:href="#DejaVuSans-72" x="1542.773438"/>
     <use xlink:href="#DejaVuSans-65" x="1581.636719"/>
     <use xlink:href="#DejaVuSans-65" x="1643.160156"/>
     <use xlink:href="#DejaVuSans-74" x="1704.683594"/>
     <use xlink:href="#DejaVuSans-4d" x="1743.892578"/>
     <use xlink:href="#DejaVuSans-61" x="1830.171875"/>
     <use xlink:href="#DejaVuSans-70" x="1891.451172"/>
     <use xlink:href="#DejaVuSans-20" x="1954.927734"/>
     <use xlink:href="#DejaVuSans-64" x="1986.714844"/>
     <use xlink:href="#DejaVuSans-61" x="2050.191406"/>
     <use xlink:href="#DejaVuSans-74" x="2111.470703"/>
     <use xlink:href="#DejaVuSans-61" x="2150.679688"/>
     <use xlink:href="#DejaVuSans-62" x="2211.958984"/>
     <use xlink:href="#DejaVuSans-61" x="2275.435547"/>
     <use xlink:href="#DejaVuSans-73" x="2336.714844"/>
     <use xlink:href="#DejaVuSans-65" x="2388.814453"/>
     <use xlink:href="#DejaVuSans-20" x="2450.337891"/>
     <use xlink:href="#DejaVuSans-69" x="2482.125"/>
     <use xlink:href="#DejaVuSans-6e" x="2509.908203"/>
     <use xlink:href="#DejaVuSans-20" x="2573.287109"/>
     <use xlink:href="#DejaVuSans-50" x="2605.074219"/>
     <use xlink:href="#DejaVuSans-6f" x="2661.751953"/>
     <use xlink:href="#DejaVuSans-6c" x="2722.933594"/>
     <use xlink:href="#DejaVuSans-61" x="2750.716797"/>
     <use xlink:href="#DejaVuSans-6e" x="2811.996094"/>
     <use xlink:href="#DejaVuSans-64" x="2875.375"/>
     <use xlink:href="#DejaVuSans-20" x="2938.851562"/>
     <use xlink:href="#DejaVuSans-66" x="2970.638672"/>
     <use xlink:href="#DejaVuSans-72" x="3005.84375"/>
     <use xlink:href="#DejaVuSans-6f" x="3044.707031"/>
     <use xlink:href="#DejaVuSans-6d" x="3105.888672"/>
     <use xlink:href="#DejaVuSans-20" x="3203.300781"/>
     <use xlink:href="#DejaVuSans-66" x="3235.087891"/>
     <use xlink:href="#DejaVuSans-69" x="3270.292969"/>
     <use xlink:href="#DejaVuSans-72" x="3298.076172"/>
     <use xlink:href="#DejaVuSans-73" x="3339.189453"/>
     <use xlink:href="#DejaVuSans-74" x="3391.289062"/>
     <use xlink:href="#DejaVuSans-20" x="3430.498047"/>
     <use xlink:href="#DejaVuSans-65" x="3462.285156"/>
     <use xlink:href="#DejaVuSans-64" x="3523.808594"/>
     <use xlink:href="#DejaVuSans-69" x="3587.285156"/>
     <use xlink:href="#DejaVuSans-74" x="3615.068359"/>
     <use xlink:href="#DejaVuSans-69" x="3654.277344"/>
     <use xlink:href="#DejaVuSans-6f" x="3682.060547"/>
     <use xlink:href="#DejaVuSans-6e" x="3743.242188"/>
     <use xlink:href="#DejaVuSans-2c" x="3806.621094"/>
     <use xlink:href="#DejaVuSans-20" x="3838.408203"/>
     <use xlink:href="#DejaVuSans-64" x="3870.195312"/>
     <use xlink:href="#DejaVuSans-61" x="3933.671875"/>
     <use xlink:href="#DejaVuSans-79" x="3994.951172"/>
     <use xlink:href="#DejaVuSans-20" x="4054.130859"/>
     <use xlink:href="#DejaVuSans-62" x="4085.917969"/>
     <use xlink:href="#DejaVuSans-79" x="4149.394531"/>
     <use xlink:href="#DejaVuSans-20" x="4208.574219"/>
     <use xlink:href="#DejaVuSans-64" x="4240.361328"/>
     <use xlink:href="#DejaVuSans-61" x="4303.837891"/>
     <use xlink:href="#DejaVuSans-79" x="4365.117188"/>
     <use xlink:href="#DejaVuSans-2e" x="4410.046875"/>
     <use xlink:href="#DejaVuSans-20" x="4441.833984"/>
     <use xlink:href="#DejaVuSans-41" x="4473.621094"/>
     <use xlink:href="#DejaVuSans-73" x="4542.029297"/>
     <use xlink:href="#DejaVuSans-20" x="4594.128906"/>
     <use xlink:href="#DejaVuSans-61" x="4625.916016"/>
     <use xlink:href="#DejaVuSans-74" x="4687.195312"/>
     <use xlink:href="#DejaVuSans-3a" x="4726.404297"/>
     <use xlink:href="#DejaVuSans-20" x="4760.095703"/>
     <use xlink:href="#DejaVuSans-32" x="4791.882812"/>
     <use xlink:href="#DejaVuSans-30" x="4855.505859"/>
     <use xlink:href="#DejaVuSans-32" x="4919.128906"/>
     <use xlink:href="#DejaVuSans-35" x="4982.751953"/>
     <use xlink:href="#DejaVuSans-2d" x="5046.375"/>
     <use xlink:href="#DejaVuSans-30" x="5082.458984"/>
     <use xlink:href="#DejaVuSans-39" x="5146.082031"/>
     <use xlink:href="#DejaVuSans-2d" x="5209.705078"/>
     <use xlink:href="#DejaVuSans-32" x="5245.789062"/>
     <use xlink:href="#DejaVuSans-35" x="5309.412109"/>
    </g>
   </g>
  </g>
 </g>
 <defs>
  <clipPath id="p1e61cde792">
   <rect x="144" y="69.12" width="892.8" height="443.52"/>
  </clipPath>
 </defs>
</svg>
