<?xml version="1.0" encoding="utf-8" standalone="no"?>
<!DOCTYPE svg PUBLIC "-//W3C//DTD SVG 1.1//EN"
  "http://www.w3.org/Graphics/SVG/1.1/DTD/svg11.dtd">
<svg xmlns:xlink="http://www.w3.org/1999/xlink" width="1152pt" height="576pt" viewBox="0 0 1152 576" xmlns="http://www.w3.org/2000/svg" version="1.1">
 <metadata>
  <rdf:RDF xmlns:dc="http://purl.org/dc/elements/1.1/" xmlns:cc="http://creativecommons.org/ns#" xmlns:rdf="http://www.w3.org/1999/02/22-rdf-syntax-ns#">
   <cc:Work>
    <dc:type rdf:resource="http://purl.org/dc/dcmitype/StillImage"/>
    <dc:date>1980-01-01T00:00:00+00:00</dc:date>
    <dc:format>image/svg+xml</dc:format>
    <dc:creator>
     <cc:Agent>
      <dc:title>Matplotlib v3.9.1, https://matplotlib.org/</dc:title>
     </cc:Agent>
    </dc:creator>
   </cc:Work>
  </rdf:RDF>
 </metadata>
 <defs>
  <style type="text/css">*{stroke-linejoin: round; stroke-linecap: butt}</style>
 </defs>
 <g id="figure_1">
  <g id="patch_1">
   <path d="M 0 576 
L 1152 576 
L 1152 0 
L 0 0 
z
" style="fill: #ffffff"/>
  </g>
  <g id="axes_1">
   <g id="patch_2">
    <path d="M 144 512.64 
L 1036.8 512.64 
L 1036.8 69.12 
L 144 69.12 
z
" style="fill: #ffffff"/>
   </g>
   <g id="matplotlib.axis_1">
    <g id="xtick_1">
     <g id="line2d_1">
      <defs>
       <path id="mc7545b2e06" d="M 0 0 
L 0 3.5 
" style="stroke: #000000; stroke-width: 0.8"/>
      </defs>
      <g>
       <use xlink:href="#mc7545b2e06" x="176.647934" y="512.64" style="stroke: #000000; stroke-width: 0.8"/>
      </g>
     </g>
     <g id="text_1">
      <!-- 2014 -->
      <g transform="translate(163.922934 527.238438) scale(0.1 -0.1)">
       <defs>
        <path id="DejaVuSans-32" d="M 1228 531 
L 3431 531 
L 3431 0 
L 469 0 
L 469 531 
Q 828 903 1448 1529 
Q 2069 2156 2228 2338 
Q 2531 2678 2651 2914 
Q 2772 3150 2772 3378 
Q 2772 3750 2511 3984 
Q 2250 4219 1831 4219 
Q 1534 4219 1204 4116 
Q 875 4013 500 3803 
L 500 4441 
Q 881 4594 1212 4672 
Q 1544 4750 1819 4750 
Q 2544 4750 2975 4387 
Q 3406 4025 3406 3419 
Q 3406 3131 3298 2873 
Q 3191 2616 2906 2266 
Q 2828 2175 2409 1742 
Q 1991 1309 1228 531 
z
" transform="scale(0.015625)"/>
        <path id="DejaVuSans-30" d="M 2034 4250 
Q 1547 4250 1301 3770 
Q 1056 3291 1056 2328 
Q 1056 1369 1301 889 
Q 1547 409 2034 409 
Q 2525 409 2770 889 
Q 3016 1369 3016 2328 
Q 3016 3291 2770 3770 
Q 2525 4250 2034 4250 
z
M 2034 4750 
Q 2819 4750 3233 4129 
Q 3647 3509 3647 2328 
Q 3647 1150 3233 529 
Q 2819 -91 2034 -91 
Q 1250 -91 836 529 
Q 422 1150 422 2328 
Q 422 3509 836 4129 
Q 1250 4750 2034 4750 
z
" transform="scale(0.015625)"/>
        <path id="DejaVuSans-31" d="M 794 531 
L 1825 531 
L 1825 4091 
L 703 3866 
L 703 4441 
L 1819 4666 
L 2450 4666 
L 2450 531 
L 3481 531 
L 3481 0 
L 794 0 
L 794 531 
z
" transform="scale(0.015625)"/>
        <path id="DejaVuSans-34" d="M 2419 4116 
L 825 1625 
L 2419 1625 
L 2419 4116 
z
M 2253 4666 
L 3047 4666 
L 3047 1625 
L 3713 1625 
L 3713 1100 
L 3047 1100 
L 3047 0 
L 2419 0 
L 2419 1100 
L 313 1100 
L 313 1709 
L 2253 4666 
z
" transform="scale(0.015625)"/>
       </defs>
       <use xlink:href="#DejaVuSans-32"/>
       <use xlink:href="#DejaVuSans-30" x="63.623047"/>
       <use xlink:href="#DejaVuSans-31" x="127.246094"/>
       <use xlink:href="#DejaVuSans-34" x="190.869141"/>
      </g>
     </g>
    </g>
    <g id="xtick_2">
     <g id="line2d_2">
      <g>
       <use xlink:href="#mc7545b2e06" x="321.441322" y="512.64" style="stroke: #000000; stroke-width: 0.8"/>
      </g>
     </g>
     <g id="text_2">
      <!-- 2016 -->
      <g transform="translate(308.716322 527.238438) scale(0.1 -0.1)">
       <defs>
        <path id="DejaVuSans-36" d="M 2113 2584 
Q 1688 2584 1439 2293 
Q 1191 2003 1191 1497 
Q 1191 994 1439 701 
Q 1688 409 2113 409 
Q 2538 409 2786 701 
Q 3034 994 3034 1497 
Q 3034 2003 2786 2293 
Q 2538 2584 2113 2584 
z
M 3366 4563 
L 3366 3988 
Q 3128 4100 2886 4159 
Q 2644 4219 2406 4219 
Q 1781 4219 1451 3797 
Q 1122 3375 1075 2522 
Q 1259 2794 1537 2939 
Q 1816 3084 2150 3084 
Q 2853 3084 3261 2657 
Q 3669 2231 3669 1497 
Q 3669 778 3244 343 
Q 2819 -91 2113 -91 
Q 1303 -91 875 529 
Q 447 1150 447 2328 
Q 447 3434 972 4092 
Q 1497 4750 2381 4750 
Q 2619 4750 2861 4703 
Q 3103 4656 3366 4563 
z
" transform="scale(0.015625)"/>
       </defs>
       <use xlink:href="#DejaVuSans-32"/>
       <use xlink:href="#DejaVuSans-30" x="63.623047"/>
       <use xlink:href="#DejaVuSans-31" x="127.246094"/>
       <use xlink:href="#DejaVuSans-36" x="190.869141"/>
      </g>
     </g>
    </g>
    <g id="xtick_3">
     <g id="line2d_3">
      <g>
       <use xlink:href="#mc7545b2e06" x="466.433058" y="512.64" style="stroke: #000000; stroke-width: 0.8"/>
      </g>
     </g>
     <g id="text_3">
      <!-- 2018 -->
      <g transform="translate(453.708058 527.238438) scale(0.1 -0.1)">
       <defs>
        <path id="DejaVuSans-38" d="M 2034 2216 
Q 1584 2216 1326 1975 
Q 1069 1734 1069 1313 
Q 1069 891 1326 650 
Q 1584 409 2034 409 
Q 2484 409 2743 651 
Q 3003 894 3003 1313 
Q 3003 1734 2745 1975 
Q 2488 2216 2034 2216 
z
M 1403 2484 
Q 997 2584 770 2862 
Q 544 3141 544 3541 
Q 544 4100 942 4425 
Q 1341 4750 2034 4750 
Q 2731 4750 3128 4425 
Q 3525 4100 3525 3541 
Q 3525 3141 3298 2862 
Q 3072 2584 2669 2484 
Q 3125 2378 3379 2068 
Q 3634 1759 3634 1313 
Q 3634 634 3220 271 
Q 2806 -91 2034 -91 
Q 1263 -91 848 271 
Q 434 634 434 1313 
Q 434 1759 690 2068 
Q 947 2378 1403 2484 
z
M 1172 3481 
Q 1172 3119 1398 2916 
Q 1625 2713 2034 2713 
Q 2441 2713 2670 2916 
Q 2900 3119 2900 3481 
Q 2900 3844 2670 4047 
Q 2441 4250 2034 4250 
Q 1625 4250 1398 4047 
Q 1172 3844 1172 3481 
z
" transform="scale(0.015625)"/>
       </defs>
       <use xlink:href="#DejaVuSans-32"/>
       <use xlink:href="#DejaVuSans-30" x="63.623047"/>
       <use xlink:href="#DejaVuSans-31" x="127.246094"/>
       <use xlink:href="#DejaVuSans-38" x="190.869141"/>
      </g>
     </g>
    </g>
    <g id="xtick_4">
     <g id="line2d_4">
      <g>
       <use xlink:href="#mc7545b2e06" x="611.226446" y="512.64" style="stroke: #000000; stroke-width: 0.8"/>
      </g>
     </g>
     <g id="text_4">
      <!-- 2020 -->
      <g transform="translate(598.501446 527.238438) scale(0.1 -0.1)">
       <use xlink:href="#DejaVuSans-32"/>
       <use xlink:href="#DejaVuSans-30" x="63.623047"/>
       <use xlink:href="#DejaVuSans-32" x="127.246094"/>
       <use xlink:href="#DejaVuSans-30" x="190.869141"/>
      </g>
     </g>
    </g>
    <g id="xtick_5">
     <g id="line2d_5">
      <g>
       <use xlink:href="#mc7545b2e06" x="756.218182" y="512.64" style="stroke: #000000; stroke-width: 0.8"/>
      </g>
     </g>
     <g id="text_5">
      <!-- 2022 -->
      <g transform="translate(743.493182 527.238438) scale(0.1 -0.1)">
       <use xlink:href="#DejaVuSans-32"/>
       <use xlink:href="#DejaVuSans-30" x="63.623047"/>
       <use xlink:href="#DejaVuSans-32" x="127.246094"/>
       <use xlink:href="#DejaVuSans-32" x="190.869141"/>
      </g>
     </g>
    </g>
    <g id="xtick_6">
     <g id="line2d_6">
      <g>
       <use xlink:href="#mc7545b2e06" x="901.01157" y="512.64" style="stroke: #000000; stroke-width: 0.8"/>
      </g>
     </g>
     <g id="text_6">
      <!-- 2024 -->
      <g transform="translate(888.28657 527.238438) scale(0.1 -0.1)">
       <use xlink:href="#DejaVuSans-32"/>
       <use xlink:href="#DejaVuSans-30" x="63.623047"/>
       <use xlink:href="#DejaVuSans-32" x="127.246094"/>
       <use xlink:href="#DejaVuSans-34" x="190.869141"/>
      </g>
     </g>
    </g>
   </g>
   <g id="matplotlib.axis_2">
    <g id="ytick_1">
     <g id="line2d_7">
      <defs>
       <path id="m2500b49fb9" d="M 0 0 
L -3.5 0 
" style="stroke: #000000; stroke-width: 0.8"/>
      </defs>
      <g>
       <use xlink:href="#m2500b49fb9" x="144" y="492.516439" style="stroke: #000000; stroke-width: 0.8"/>
      </g>
     </g>
     <g id="text_7">
      <!-- 0 -->
      <g transform="translate(130.6375 496.315658) scale(0.1 -0.1)">
       <use xlink:href="#DejaVuSans-30"/>
      </g>
     </g>
    </g>
    <g id="ytick_2">
     <g id="line2d_8">
      <g>
       <use xlink:href="#m2500b49fb9" x="144" y="419.637994" style="stroke: #000000; stroke-width: 0.8"/>
      </g>
     </g>
     <g id="text_8">
      <!-- 2000 -->
      <g transform="translate(111.55 423.437212) scale(0.1 -0.1)">
       <use xlink:href="#DejaVuSans-32"/>
       <use xlink:href="#DejaVuSans-30" x="63.623047"/>
       <use xlink:href="#DejaVuSans-30" x="127.246094"/>
       <use xlink:href="#DejaVuSans-30" x="190.869141"/>
      </g>
     </g>
    </g>
    <g id="ytick_3">
     <g id="line2d_9">
      <g>
       <use xlink:href="#m2500b49fb9" x="144" y="346.759548" style="stroke: #000000; stroke-width: 0.8"/>
      </g>
     </g>
     <g id="text_9">
      <!-- 4000 -->
      <g transform="translate(111.55 350.558767) scale(0.1 -0.1)">
       <use xlink:href="#DejaVuSans-34"/>
       <use xlink:href="#DejaVuSans-30" x="63.623047"/>
       <use xlink:href="#DejaVuSans-30" x="127.246094"/>
       <use xlink:href="#DejaVuSans-30" x="190.869141"/>
      </g>
     </g>
    </g>
    <g id="ytick_4">
     <g id="line2d_10">
      <g>
       <use xlink:href="#m2500b49fb9" x="144" y="273.881103" style="stroke: #000000; stroke-width: 0.8"/>
      </g>
     </g>
     <g id="text_10">
      <!-- 6000 -->
      <g transform="translate(111.55 277.680321) scale(0.1 -0.1)">
       <use xlink:href="#DejaVuSans-36"/>
       <use xlink:href="#DejaVuSans-30" x="63.623047"/>
       <use xlink:href="#DejaVuSans-30" x="127.246094"/>
       <use xlink:href="#DejaVuSans-30" x="190.869141"/>
      </g>
     </g>
    </g>
    <g id="ytick_5">
     <g id="line2d_11">
      <g>
       <use xlink:href="#m2500b49fb9" x="144" y="201.002657" style="stroke: #000000; stroke-width: 0.8"/>
      </g>
     </g>
     <g id="text_11">
      <!-- 8000 -->
      <g transform="translate(111.55 204.801876) scale(0.1 -0.1)">
       <use xlink:href="#DejaVuSans-38"/>
       <use xlink:href="#DejaVuSans-30" x="63.623047"/>
       <use xlink:href="#DejaVuSans-30" x="127.246094"/>
       <use xlink:href="#DejaVuSans-30" x="190.869141"/>
      </g>
     </g>
    </g>
    <g id="ytick_6">
     <g id="line2d_12">
      <g>
       <use xlink:href="#m2500b49fb9" x="144" y="128.124211" style="stroke: #000000; stroke-width: 0.8"/>
      </g>
     </g>
     <g id="text_12">
      <!-- 10000 -->
      <g transform="translate(105.1875 131.92343) scale(0.1 -0.1)">
       <use xlink:href="#DejaVuSans-31"/>
       <use xlink:href="#DejaVuSans-30" x="63.623047"/>
       <use xlink:href="#DejaVuSans-30" x="127.246094"/>
       <use xlink:href="#DejaVuSans-30" x="190.869141"/>
       <use xlink:href="#DejaVuSans-30" x="254.492188"/>
      </g>
     </g>
    </g>
   </g>
   <g id="line2d_13">
    <path d="M 184.581818 492.48 
L 186.366942 492.407122 
L 310.333884 492.188486 
L 455.523967 492.00629 
L 509.47438 491.787655 
L 523.557025 491.678337 
L 557.276033 491.496141 
L 558.86281 491.423263 
L 567.986777 491.313945 
L 610.829752 491.131749 
L 611.424793 491.09531 
L 617.771901 491.022431 
L 618.168595 490.730917 
L 622.333884 490.548721 
L 657.242975 490.402964 
L 661.209917 490.293647 
L 675.490909 490.14789 
L 685.408264 490.075011 
L 699.490909 489.856376 
L 703.259504 489.710619 
L 712.978512 489.491984 
L 715.755372 489.309788 
L 717.540496 489.20047 
L 718.928926 489.018274 
L 726.466116 488.799638 
L 726.664463 488.763199 
L 730.829752 488.617442 
L 737.375207 488.107293 
L 747.689256 487.852219 
L 753.838017 486.030258 
L 754.433058 485.993818 
L 755.226446 485.410791 
L 755.424793 484.49981 
L 755.821488 484.281175 
L 756.019835 484.244736 
L 756.218182 483.005802 
L 757.408264 482.495653 
L 757.804959 481.876186 
L 758.201653 481.621112 
L 758.4 481.038084 
L 758.598347 479.544076 
L 758.796694 479.179684 
L 758.995041 478.41446 
L 759.193388 477.175526 
L 759.391736 475.062052 
L 759.78843 473.458726 
L 759.986777 473.167212 
L 760.185124 468.284356 
L 760.383471 466.316638 
L 760.581818 465.551414 
L 760.780165 461.907492 
L 761.375207 457.78986 
L 761.573554 457.644103 
L 761.970248 455.567067 
L 762.168595 454.874722 
L 762.366942 449.554596 
L 762.565289 449.080886 
L 762.961983 447.295364 
L 763.160331 447.186046 
L 763.358678 446.275066 
L 763.557025 442.448947 
L 763.755372 441.501527 
L 763.953719 441.428649 
L 764.152066 438.54995 
L 764.350413 437.966923 
L 764.747107 437.784727 
L 765.540496 435.015346 
L 765.93719 434.250122 
L 766.333884 432.027329 
L 766.532231 431.189227 
L 766.730579 427.071595 
L 767.32562 422.480253 
L 767.920661 422.261618 
L 768.317355 422.006543 
L 769.110744 420.476096 
L 769.507438 420.330339 
L 769.904132 417.087248 
L 770.102479 417.050809 
L 770.499174 416.504221 
L 770.697521 414.937334 
L 771.094215 414.317867 
L 771.490909 413.297569 
L 772.08595 413.006055 
L 772.284298 412.714541 
L 772.879339 410.41887 
L 773.077686 410.273113 
L 773.47438 409.690086 
L 774.267769 409.289254 
L 774.466116 407.758807 
L 774.664463 407.649489 
L 774.86281 407.357976 
L 775.061157 404.406399 
L 775.457851 404.297081 
L 775.854545 403.458979 
L 776.052893 402.730194 
L 776.647934 402.584437 
L 777.242975 401.454822 
L 777.441322 401.418382 
L 777.838017 400.798915 
L 778.234711 400.653159 
L 778.433058 397.30075 
L 779.62314 397.009236 
L 780.019835 396.717723 
L 780.813223 396.608405 
L 781.01157 396.38977 
L 783.391736 395.660985 
L 784.185124 395.077958 
L 785.17686 394.932201 
L 785.573554 394.640687 
L 785.970248 394.49493 
L 787.953719 393.948342 
L 788.747107 390.851008 
L 789.738843 390.705251 
L 789.93719 390.632372 
L 791.523967 390.450176 
L 792.119008 390.231541 
L 792.317355 389.612074 
L 793.309091 389.539196 
L 793.904132 389.211243 
L 795.887603 388.263823 
L 796.08595 388.008748 
L 796.879339 387.680795 
L 797.871074 387.535038 
L 798.069421 387.279964 
L 798.466116 387.243525 
L 798.664463 386.587619 
L 798.86281 386.51474 
L 799.061157 385.676638 
L 801.441322 385.13005 
L 802.036364 384.984293 
L 802.234711 384.474144 
L 803.62314 384.109751 
L 804.218182 383.891116 
L 805.01157 383.70892 
L 805.804959 383.490285 
L 806.796694 383.271649 
L 807.391736 383.089453 
L 808.780165 382.251351 
L 808.978512 381.522567 
L 809.970248 380.684465 
L 810.168595 380.320072 
L 811.160331 379.445531 
L 811.557025 378.680307 
L 811.755372 378.643868 
L 811.953719 377.915084 
L 812.747107 376.821907 
L 813.143802 376.639711 
L 813.540496 376.566832 
L 813.738843 376.238879 
L 814.135537 376.056683 
L 814.333884 375.692291 
L 815.32562 375.400777 
L 815.523967 375.072824 
L 816.912397 374.744871 
L 817.309091 374.562675 
L 817.507438 374.526236 
L 817.705785 374.34404 
L 818.697521 374.198283 
L 820.08595 373.542377 
L 820.680992 373.39662 
L 821.077686 372.558518 
L 821.47438 372.303443 
L 822.466116 371.465341 
L 822.664463 370.627239 
L 823.457851 370.372164 
L 824.647934 369.971333 
L 825.044628 369.351866 
L 825.639669 368.987474 
L 825.838017 368.951035 
L 826.234711 368.368007 
L 826.829752 368.149372 
L 827.226446 367.821419 
L 827.821488 367.529905 
L 828.218182 363.120759 
L 828.416529 361.772508 
L 828.614876 359.476837 
L 828.813223 359.185323 
L 829.606612 356.379503 
L 830.003306 355.650718 
L 830.201653 355.541401 
L 830.4 355.286326 
L 830.598347 354.776177 
L 830.796694 353.136412 
L 830.995041 352.735581 
L 831.391736 352.589824 
L 832.581818 350.111957 
L 832.780165 349.929761 
L 832.978512 348.945901 
L 833.17686 348.581509 
L 833.573554 347.634089 
L 833.970248 347.051062 
L 834.763636 346.540913 
L 834.961983 346.322277 
L 835.160331 345.119783 
L 835.557025 344.937587 
L 835.953719 344.536756 
L 836.54876 343.698653 
L 836.747107 342.93343 
L 836.945455 342.896991 
L 837.540496 342.168206 
L 837.93719 342.095328 
L 838.135537 341.730935 
L 838.532231 341.475861 
L 838.730579 341.184347 
L 839.523967 338.269209 
L 839.722314 336.775201 
L 839.920661 336.228613 
L 840.912397 335.244754 
L 841.110744 335.171875 
L 841.309091 334.807483 
L 841.705785 333.349914 
L 842.895868 332.694008 
L 843.292562 331.819467 
L 843.490909 331.67371 
L 844.284298 330.070384 
L 844.879339 329.705992 
L 845.672727 329.450917 
L 846.267769 328.102666 
L 847.061157 327.701835 
L 847.854545 326.717976 
L 848.25124 326.645097 
L 848.647934 326.171387 
L 849.242975 325.916313 
L 849.639669 325.843434 
L 849.838017 325.624799 
L 850.036364 324.932454 
L 850.829752 324.677379 
L 851.028099 324.312987 
L 851.226446 324.276548 
L 851.424793 323.584202 
L 852.019835 323.329128 
L 852.614876 323.183371 
L 853.01157 322.78254 
L 854.003306 322.27239 
L 854.4 321.83512 
L 854.796694 321.580045 
L 855.193388 321.543606 
L 855.391736 320.559747 
L 855.590083 320.304672 
L 856.383471 319.94028 
L 856.978512 319.539449 
L 857.771901 319.393692 
L 857.970248 318.373394 
L 858.565289 318.009001 
L 858.763636 317.753927 
L 859.160331 317.717488 
L 859.755372 317.316656 
L 860.152066 317.243778 
L 860.350413 316.915825 
L 861.143802 316.587872 
L 861.342149 316.18704 
L 861.738843 316.150601 
L 862.135537 315.895526 
L 862.730579 315.567573 
L 862.928926 315.057424 
L 863.722314 314.656593 
L 863.920661 314.32864 
L 864.317355 314.110005 
L 864.515702 313.85493 
L 865.110744 313.526977 
L 865.309091 313.199024 
L 865.507438 313.126146 
L 865.904132 312.834632 
L 866.300826 312.652436 
L 866.499174 312.4338 
L 867.689256 311.99653 
L 867.887603 311.559259 
L 868.08595 311.449941 
L 869.077686 311.194867 
L 869.47438 310.866914 
L 869.871074 310.721157 
L 870.466116 310.538961 
L 870.664463 310.211008 
L 871.061157 310.138129 
L 871.259504 309.482223 
L 871.457851 309.336466 
L 871.854545 308.862756 
L 872.052893 307.733141 
L 872.25124 307.660262 
L 873.242975 306.712842 
L 874.036364 305.984058 
L 874.433058 305.801862 
L 874.631405 305.364591 
L 874.829752 305.291713 
L 875.226446 304.854442 
L 875.62314 304.599367 
L 876.218182 304.380732 
L 876.813223 303.688387 
L 877.209917 303.360434 
L 877.606612 302.923163 
L 878.796694 301.939304 
L 879.78843 301.68423 
L 880.383471 300.919006 
L 880.780165 300.481735 
L 881.375207 300.080904 
L 882.168595 299.716512 
L 882.366942 299.534315 
L 883.160331 299.206362 
L 883.557025 298.84197 
L 884.152066 298.623335 
L 884.747107 298.258943 
L 885.342149 298.003868 
L 885.540496 297.821672 
L 887.722314 296.910691 
L 887.920661 296.546299 
L 889.309091 295.963272 
L 889.904132 295.56244 
L 890.102479 295.526001 
L 890.697521 295.015852 
L 891.490909 294.797216 
L 891.689256 294.287067 
L 891.887603 292.610863 
L 892.284298 292.173592 
L 892.482645 292.137153 
L 892.879339 291.37193 
L 893.276033 290.825341 
L 893.672727 290.497388 
L 894.069421 289.367772 
L 894.466116 289.00338 
L 894.86281 288.748305 
L 895.259504 288.638988 
L 895.457851 288.347474 
L 895.854545 288.128839 
L 896.25124 287.764446 
L 896.647934 287.58225 
L 896.846281 287.472933 
L 897.044628 287.072101 
L 897.441322 286.926344 
L 897.639669 286.489074 
L 898.234711 286.270438 
L 898.631405 285.687411 
L 899.226446 285.213701 
L 899.62314 284.812869 
L 900.218182 284.703552 
L 900.416529 284.375599 
L 901.01157 284.156963 
L 901.408264 282.553638 
L 901.804959 282.189245 
L 902.995041 281.533339 
L 903.193388 280.950312 
L 903.590083 280.731676 
L 903.78843 280.221527 
L 903.986777 280.11221 
L 904.185124 279.747817 
L 905.17686 279.128351 
L 905.970248 278.508884 
L 906.168595 278.436005 
L 907.160331 277.379268 
L 907.358678 276.905558 
L 907.557025 276.79624 
L 907.953719 276.723362 
L 908.152066 276.322531 
L 908.54876 276.140334 
L 908.945455 275.921699 
L 909.143802 275.265793 
L 909.93719 274.792083 
L 910.135537 274.136177 
L 910.928926 273.443832 
L 911.127273 273.407393 
L 911.32562 273.006561 
L 912.119008 272.459973 
L 912.317355 272.095581 
L 912.71405 271.949824 
L 912.912397 271.257479 
L 913.309091 271.148161 
L 913.507438 270.820208 
L 913.705785 270.747329 
L 913.904132 269.982106 
L 914.300826 269.872788 
L 914.697521 269.508396 
L 915.094215 268.925368 
L 915.292562 268.779611 
L 916.08595 267.540678 
L 916.284298 267.467799 
L 916.680992 267.030529 
L 917.47438 266.447501 
L 918.069421 266.155987 
L 919.854545 264.261148 
L 920.25124 264.115391 
L 920.647934 263.67812 
L 921.044628 263.532363 
L 921.242975 262.657822 
L 921.838017 262.001916 
L 922.036364 261.273131 
L 922.433058 260.8723 
L 922.631405 260.471469 
L 922.829752 260.435029 
L 923.821488 259.414731 
L 924.416529 259.050339 
L 924.614876 258.722386 
L 925.804959 258.321554 
L 926.4 257.556331 
L 926.796694 256.863986 
L 927.193388 256.718229 
L 927.391736 256.390276 
L 927.590083 256.280958 
L 927.78843 256.025883 
L 927.986777 255.989444 
L 928.185124 255.552174 
L 928.978512 255.005585 
L 929.771901 254.422558 
L 929.970248 254.386118 
L 931.160331 253.402259 
L 931.557025 253.220063 
L 931.755372 252.855671 
L 932.152066 252.782793 
L 932.747107 252.163326 
L 932.945455 251.835373 
L 933.540496 251.543859 
L 934.135537 251.143028 
L 934.532231 250.997271 
L 934.928926 250.56 
L 935.920661 249.976972 
L 936.119008 249.721898 
L 936.317355 249.685459 
L 936.71405 249.466823 
L 936.912397 249.321066 
L 937.110744 247.644862 
L 938.102479 246.916078 
L 938.895868 245.458509 
L 939.094215 245.312752 
L 939.292562 244.802603 
L 939.689256 244.620407 
L 940.482645 243.345034 
L 940.879339 241.63239 
L 941.077686 241.049363 
L 941.47438 238.279982 
L 941.672727 237.186805 
L 942.664463 235.874993 
L 943.457851 232.559024 
L 943.656198 232.376828 
L 943.854545 231.866679 
L 944.052893 230.081157 
L 944.25124 229.425251 
L 944.449587 229.352372 
L 944.647934 228.51427 
L 945.242975 228.004121 
L 945.639669 226.619431 
L 946.631405 226.036403 
L 946.829752 225.672011 
L 947.821488 225.052544 
L 948.218182 224.615273 
L 948.416529 224.214442 
L 948.614876 223.194144 
L 948.813223 222.793312 
L 949.209917 222.647555 
L 949.606612 222.465359 
L 950.003306 222.173845 
L 950.4 221.882332 
L 951.391736 221.445061 
L 951.78843 221.117108 
L 952.185124 221.080669 
L 953.573554 219.659539 
L 954.168595 219.14939 
L 954.565289 218.821437 
L 954.763636 218.493484 
L 955.160331 218.384166 
L 955.358678 218.129092 
L 955.755372 217.946896 
L 955.953719 217.072354 
L 956.54876 216.452887 
L 956.945455 216.34357 
L 958.135537 215.286832 
L 958.333884 215.250393 
L 959.32562 214.44873 
L 959.523967 214.412291 
L 959.722314 213.865703 
L 959.920661 213.683507 
L 960.119008 213.100479 
L 960.515702 212.845404 
L 961.110744 211.351396 
L 961.309091 210.622612 
L 961.904132 210.185341 
L 962.499174 209.347239 
L 962.895868 207.926109 
L 963.094215 207.488839 
L 963.292562 206.723615 
L 963.490909 206.650737 
L 963.689256 206.03127 
L 964.08595 205.776195 
L 965.276033 204.500822 
L 965.47438 203.990673 
L 965.871074 203.844916 
L 966.069421 203.626281 
L 966.267769 203.116132 
L 967.061157 202.788179 
L 967.259504 202.533104 
L 967.457851 202.496665 
L 967.656198 201.695002 
L 968.052893 201.439928 
L 968.25124 200.929779 
L 968.449587 200.784022 
L 968.846281 200.747582 
L 970.036364 199.800163 
L 970.631405 199.326453 
L 971.028099 198.852743 
L 971.424793 198.451911 
L 971.62314 198.05108 
L 971.821488 197.249417 
L 973.01157 196.557072 
L 973.408264 195.536774 
L 973.804959 195.354577 
L 974.003306 194.807989 
L 974.201653 194.698671 
L 974.995041 193.678373 
L 975.986777 193.022467 
L 977.17686 191.783534 
L 977.771901 190.908992 
L 978.763636 188.248929 
L 979.755372 182.746606 
L 979.953719 182.455093 
L 980.152066 181.908504 
L 980.350413 179.867908 
L 980.747107 174.256268 
L 980.945455 171.851279 
L 981.143802 171.195373 
L 981.540496 168.425992 
L 981.93719 164.709191 
L 982.333884 159.644139 
L 982.730579 158.878915 
L 983.127273 152.246977 
L 983.32562 150.534333 
L 983.722314 143.064293 
L 983.920661 142.043995 
L 984.119008 141.606724 
L 984.317355 137.889923 
L 984.515702 137.015382 
L 984.912397 132.86131 
L 985.309091 121.674469 
L 985.705785 119.961826 
L 985.904132 116.536539 
L 986.102479 116.172146 
L 986.499174 110.596945 
L 986.697521 110.487628 
L 986.895868 110.086796 
L 987.292562 108.738545 
L 987.490909 108.410592 
L 987.689256 107.791125 
L 987.887603 106.62507 
L 988.284298 106.406435 
L 988.482645 105.823407 
L 988.879339 103.965007 
L 989.276033 100.211767 
L 989.47438 99.410104 
L 989.672727 99.337225 
L 989.871074 98.972833 
L 990.86281 95.802621 
L 991.061157 95.656864 
L 991.259504 94.818762 
L 991.656198 94.45437 
L 991.854545 94.308613 
L 992.052893 93.762024 
L 992.25124 93.579828 
L 993.044628 92.340895 
L 993.639669 91.648549 
L 993.838017 91.575671 
L 994.829752 90.081663 
L 995.226446 89.863028 
L 995.821488 89.717271 
L 996.218182 89.28 
L 996.218182 89.28 
" clip-path="url(#pcef9444ce9)" style="fill: none; stroke: #1f77b4; stroke-width: 1.5; stroke-linecap: square"/>
   </g>
   <g id="patch_3">
    <path d="M 144 512.64 
L 144 69.12 
" style="fill: none; stroke: #000000; stroke-width: 0.8; stroke-linejoin: miter; stroke-linecap: square"/>
   </g>
   <g id="patch_4">
    <path d="M 1036.8 512.64 
L 1036.8 69.12 
" style="fill: none; stroke: #000000; stroke-width: 0.8; stroke-linejoin: miter; stroke-linecap: square"/>
   </g>
   <g id="patch_5">
    <path d="M 144 512.64 
L 1036.8 512.64 
" style="fill: none; stroke: #000000; stroke-width: 0.8; stroke-linejoin: miter; stroke-linecap: square"/>
   </g>
   <g id="patch_6">
    <path d="M 144 69.12 
L 1036.8 69.12 
" style="fill: none; stroke: #000000; stroke-width: 0.8; stroke-linejoin: miter; stroke-linecap: square"/>
   </g>
   <g id="text_13">
    <!-- Number of AEDs in the OpenStreetMap database in Poland from first edition, day by day. As at: 2025-04-25 -->
    <g transform="translate(144 63.12) scale(0.14 -0.14)">
     <defs>
      <path id="DejaVuSans-4e" d="M 628 4666 
L 1478 4666 
L 3547 763 
L 3547 4666 
L 4159 4666 
L 4159 0 
L 3309 0 
L 1241 3903 
L 1241 0 
L 628 0 
L 628 4666 
z
" transform="scale(0.015625)"/>
      <path id="DejaVuSans-75" d="M 544 1381 
L 544 3500 
L 1119 3500 
L 1119 1403 
Q 1119 906 1312 657 
Q 1506 409 1894 409 
Q 2359 409 2629 706 
Q 2900 1003 2900 1516 
L 2900 3500 
L 3475 3500 
L 3475 0 
L 2900 0 
L 2900 538 
Q 2691 219 2414 64 
Q 2138 -91 1772 -91 
Q 1169 -91 856 284 
Q 544 659 544 1381 
z
M 1991 3584 
L 1991 3584 
z
" transform="scale(0.015625)"/>
      <path id="DejaVuSans-6d" d="M 3328 2828 
Q 3544 3216 3844 3400 
Q 4144 3584 4550 3584 
Q 5097 3584 5394 3201 
Q 5691 2819 5691 2113 
L 5691 0 
L 5113 0 
L 5113 2094 
Q 5113 2597 4934 2840 
Q 4756 3084 4391 3084 
Q 3944 3084 3684 2787 
Q 3425 2491 3425 1978 
L 3425 0 
L 2847 0 
L 2847 2094 
Q 2847 2600 2669 2842 
Q 2491 3084 2119 3084 
Q 1678 3084 1418 2786 
Q 1159 2488 1159 1978 
L 1159 0 
L 581 0 
L 581 3500 
L 1159 3500 
L 1159 2956 
Q 1356 3278 1631 3431 
Q 1906 3584 2284 3584 
Q 2666 3584 2933 3390 
Q 3200 3197 3328 2828 
z
" transform="scale(0.015625)"/>
      <path id="DejaVuSans-62" d="M 3116 1747 
Q 3116 2381 2855 2742 
Q 2594 3103 2138 3103 
Q 1681 3103 1420 2742 
Q 1159 2381 1159 1747 
Q 1159 1113 1420 752 
Q 1681 391 2138 391 
Q 2594 391 2855 752 
Q 3116 1113 3116 1747 
z
M 1159 2969 
Q 1341 3281 1617 3432 
Q 1894 3584 2278 3584 
Q 2916 3584 3314 3078 
Q 3713 2572 3713 1747 
Q 3713 922 3314 415 
Q 2916 -91 2278 -91 
Q 1894 -91 1617 61 
Q 1341 213 1159 525 
L 1159 0 
L 581 0 
L 581 4863 
L 1159 4863 
L 1159 2969 
z
" transform="scale(0.015625)"/>
      <path id="DejaVuSans-65" d="M 3597 1894 
L 3597 1613 
L 953 1613 
Q 991 1019 1311 708 
Q 1631 397 2203 397 
Q 2534 397 2845 478 
Q 3156 559 3463 722 
L 3463 178 
Q 3153 47 2828 -22 
Q 2503 -91 2169 -91 
Q 1331 -91 842 396 
Q 353 884 353 1716 
Q 353 2575 817 3079 
Q 1281 3584 2069 3584 
Q 2775 3584 3186 3129 
Q 3597 2675 3597 1894 
z
M 3022 2063 
Q 3016 2534 2758 2815 
Q 2500 3097 2075 3097 
Q 1594 3097 1305 2825 
Q 1016 2553 972 2059 
L 3022 2063 
z
" transform="scale(0.015625)"/>
      <path id="DejaVuSans-72" d="M 2631 2963 
Q 2534 3019 2420 3045 
Q 2306 3072 2169 3072 
Q 1681 3072 1420 2755 
Q 1159 2438 1159 1844 
L 1159 0 
L 581 0 
L 581 3500 
L 1159 3500 
L 1159 2956 
Q 1341 3275 1631 3429 
Q 1922 3584 2338 3584 
Q 2397 3584 2469 3576 
Q 2541 3569 2628 3553 
L 2631 2963 
z
" transform="scale(0.015625)"/>
      <path id="DejaVuSans-20" transform="scale(0.015625)"/>
      <path id="DejaVuSans-6f" d="M 1959 3097 
Q 1497 3097 1228 2736 
Q 959 2375 959 1747 
Q 959 1119 1226 758 
Q 1494 397 1959 397 
Q 2419 397 2687 759 
Q 2956 1122 2956 1747 
Q 2956 2369 2687 2733 
Q 2419 3097 1959 3097 
z
M 1959 3584 
Q 2709 3584 3137 3096 
Q 3566 2609 3566 1747 
Q 3566 888 3137 398 
Q 2709 -91 1959 -91 
Q 1206 -91 779 398 
Q 353 888 353 1747 
Q 353 2609 779 3096 
Q 1206 3584 1959 3584 
z
" transform="scale(0.015625)"/>
      <path id="DejaVuSans-66" d="M 2375 4863 
L 2375 4384 
L 1825 4384 
Q 1516 4384 1395 4259 
Q 1275 4134 1275 3809 
L 1275 3500 
L 2222 3500 
L 2222 3053 
L 1275 3053 
L 1275 0 
L 697 0 
L 697 3053 
L 147 3053 
L 147 3500 
L 697 3500 
L 697 3744 
Q 697 4328 969 4595 
Q 1241 4863 1831 4863 
L 2375 4863 
z
" transform="scale(0.015625)"/>
      <path id="DejaVuSans-41" d="M 2188 4044 
L 1331 1722 
L 3047 1722 
L 2188 4044 
z
M 1831 4666 
L 2547 4666 
L 4325 0 
L 3669 0 
L 3244 1197 
L 1141 1197 
L 716 0 
L 50 0 
L 1831 4666 
z
" transform="scale(0.015625)"/>
      <path id="DejaVuSans-45" d="M 628 4666 
L 3578 4666 
L 3578 4134 
L 1259 4134 
L 1259 2753 
L 3481 2753 
L 3481 2222 
L 1259 2222 
L 1259 531 
L 3634 531 
L 3634 0 
L 628 0 
L 628 4666 
z
" transform="scale(0.015625)"/>
      <path id="DejaVuSans-44" d="M 1259 4147 
L 1259 519 
L 2022 519 
Q 2988 519 3436 956 
Q 3884 1394 3884 2338 
Q 3884 3275 3436 3711 
Q 2988 4147 2022 4147 
L 1259 4147 
z
M 628 4666 
L 1925 4666 
Q 3281 4666 3915 4102 
Q 4550 3538 4550 2338 
Q 4550 1131 3912 565 
Q 3275 0 1925 0 
L 628 0 
L 628 4666 
z
" transform="scale(0.015625)"/>
      <path id="DejaVuSans-73" d="M 2834 3397 
L 2834 2853 
Q 2591 2978 2328 3040 
Q 2066 3103 1784 3103 
Q 1356 3103 1142 2972 
Q 928 2841 928 2578 
Q 928 2378 1081 2264 
Q 1234 2150 1697 2047 
L 1894 2003 
Q 2506 1872 2764 1633 
Q 3022 1394 3022 966 
Q 3022 478 2636 193 
Q 2250 -91 1575 -91 
Q 1294 -91 989 -36 
Q 684 19 347 128 
L 347 722 
Q 666 556 975 473 
Q 1284 391 1588 391 
Q 1994 391 2212 530 
Q 2431 669 2431 922 
Q 2431 1156 2273 1281 
Q 2116 1406 1581 1522 
L 1381 1569 
Q 847 1681 609 1914 
Q 372 2147 372 2553 
Q 372 3047 722 3315 
Q 1072 3584 1716 3584 
Q 2034 3584 2315 3537 
Q 2597 3491 2834 3397 
z
" transform="scale(0.015625)"/>
      <path id="DejaVuSans-69" d="M 603 3500 
L 1178 3500 
L 1178 0 
L 603 0 
L 603 3500 
z
M 603 4863 
L 1178 4863 
L 1178 4134 
L 603 4134 
L 603 4863 
z
" transform="scale(0.015625)"/>
      <path id="DejaVuSans-6e" d="M 3513 2113 
L 3513 0 
L 2938 0 
L 2938 2094 
Q 2938 2591 2744 2837 
Q 2550 3084 2163 3084 
Q 1697 3084 1428 2787 
Q 1159 2491 1159 1978 
L 1159 0 
L 581 0 
L 581 3500 
L 1159 3500 
L 1159 2956 
Q 1366 3272 1645 3428 
Q 1925 3584 2291 3584 
Q 2894 3584 3203 3211 
Q 3513 2838 3513 2113 
z
" transform="scale(0.015625)"/>
      <path id="DejaVuSans-74" d="M 1172 4494 
L 1172 3500 
L 2356 3500 
L 2356 3053 
L 1172 3053 
L 1172 1153 
Q 1172 725 1289 603 
Q 1406 481 1766 481 
L 2356 481 
L 2356 0 
L 1766 0 
Q 1100 0 847 248 
Q 594 497 594 1153 
L 594 3053 
L 172 3053 
L 172 3500 
L 594 3500 
L 594 4494 
L 1172 4494 
z
" transform="scale(0.015625)"/>
      <path id="DejaVuSans-68" d="M 3513 2113 
L 3513 0 
L 2938 0 
L 2938 2094 
Q 2938 2591 2744 2837 
Q 2550 3084 2163 3084 
Q 1697 3084 1428 2787 
Q 1159 2491 1159 1978 
L 1159 0 
L 581 0 
L 581 4863 
L 1159 4863 
L 1159 2956 
Q 1366 3272 1645 3428 
Q 1925 3584 2291 3584 
Q 2894 3584 3203 3211 
Q 3513 2838 3513 2113 
z
" transform="scale(0.015625)"/>
      <path id="DejaVuSans-4f" d="M 2522 4238 
Q 1834 4238 1429 3725 
Q 1025 3213 1025 2328 
Q 1025 1447 1429 934 
Q 1834 422 2522 422 
Q 3209 422 3611 934 
Q 4013 1447 4013 2328 
Q 4013 3213 3611 3725 
Q 3209 4238 2522 4238 
z
M 2522 4750 
Q 3503 4750 4090 4092 
Q 4678 3434 4678 2328 
Q 4678 1225 4090 567 
Q 3503 -91 2522 -91 
Q 1538 -91 948 565 
Q 359 1222 359 2328 
Q 359 3434 948 4092 
Q 1538 4750 2522 4750 
z
" transform="scale(0.015625)"/>
      <path id="DejaVuSans-70" d="M 1159 525 
L 1159 -1331 
L 581 -1331 
L 581 3500 
L 1159 3500 
L 1159 2969 
Q 1341 3281 1617 3432 
Q 1894 3584 2278 3584 
Q 2916 3584 3314 3078 
Q 3713 2572 3713 1747 
Q 3713 922 3314 415 
Q 2916 -91 2278 -91 
Q 1894 -91 1617 61 
Q 1341 213 1159 525 
z
M 3116 1747 
Q 3116 2381 2855 2742 
Q 2594 3103 2138 3103 
Q 1681 3103 1420 2742 
Q 1159 2381 1159 1747 
Q 1159 1113 1420 752 
Q 1681 391 2138 391 
Q 2594 391 2855 752 
Q 3116 1113 3116 1747 
z
" transform="scale(0.015625)"/>
      <path id="DejaVuSans-53" d="M 3425 4513 
L 3425 3897 
Q 3066 4069 2747 4153 
Q 2428 4238 2131 4238 
Q 1616 4238 1336 4038 
Q 1056 3838 1056 3469 
Q 1056 3159 1242 3001 
Q 1428 2844 1947 2747 
L 2328 2669 
Q 3034 2534 3370 2195 
Q 3706 1856 3706 1288 
Q 3706 609 3251 259 
Q 2797 -91 1919 -91 
Q 1588 -91 1214 -16 
Q 841 59 441 206 
L 441 856 
Q 825 641 1194 531 
Q 1563 422 1919 422 
Q 2459 422 2753 634 
Q 3047 847 3047 1241 
Q 3047 1584 2836 1778 
Q 2625 1972 2144 2069 
L 1759 2144 
Q 1053 2284 737 2584 
Q 422 2884 422 3419 
Q 422 4038 858 4394 
Q 1294 4750 2059 4750 
Q 2388 4750 2728 4690 
Q 3069 4631 3425 4513 
z
" transform="scale(0.015625)"/>
      <path id="DejaVuSans-4d" d="M 628 4666 
L 1569 4666 
L 2759 1491 
L 3956 4666 
L 4897 4666 
L 4897 0 
L 4281 0 
L 4281 4097 
L 3078 897 
L 2444 897 
L 1241 4097 
L 1241 0 
L 628 0 
L 628 4666 
z
" transform="scale(0.015625)"/>
      <path id="DejaVuSans-61" d="M 2194 1759 
Q 1497 1759 1228 1600 
Q 959 1441 959 1056 
Q 959 750 1161 570 
Q 1363 391 1709 391 
Q 2188 391 2477 730 
Q 2766 1069 2766 1631 
L 2766 1759 
L 2194 1759 
z
M 3341 1997 
L 3341 0 
L 2766 0 
L 2766 531 
Q 2569 213 2275 61 
Q 1981 -91 1556 -91 
Q 1019 -91 701 211 
Q 384 513 384 1019 
Q 384 1609 779 1909 
Q 1175 2209 1959 2209 
L 2766 2209 
L 2766 2266 
Q 2766 2663 2505 2880 
Q 2244 3097 1772 3097 
Q 1472 3097 1187 3025 
Q 903 2953 641 2809 
L 641 3341 
Q 956 3463 1253 3523 
Q 1550 3584 1831 3584 
Q 2591 3584 2966 3190 
Q 3341 2797 3341 1997 
z
" transform="scale(0.015625)"/>
      <path id="DejaVuSans-64" d="M 2906 2969 
L 2906 4863 
L 3481 4863 
L 3481 0 
L 2906 0 
L 2906 525 
Q 2725 213 2448 61 
Q 2172 -91 1784 -91 
Q 1150 -91 751 415 
Q 353 922 353 1747 
Q 353 2572 751 3078 
Q 1150 3584 1784 3584 
Q 2172 3584 2448 3432 
Q 2725 3281 2906 2969 
z
M 947 1747 
Q 947 1113 1208 752 
Q 1469 391 1925 391 
Q 2381 391 2643 752 
Q 2906 1113 2906 1747 
Q 2906 2381 2643 2742 
Q 2381 3103 1925 3103 
Q 1469 3103 1208 2742 
Q 947 2381 947 1747 
z
" transform="scale(0.015625)"/>
      <path id="DejaVuSans-50" d="M 1259 4147 
L 1259 2394 
L 2053 2394 
Q 2494 2394 2734 2622 
Q 2975 2850 2975 3272 
Q 2975 3691 2734 3919 
Q 2494 4147 2053 4147 
L 1259 4147 
z
M 628 4666 
L 2053 4666 
Q 2838 4666 3239 4311 
Q 3641 3956 3641 3272 
Q 3641 2581 3239 2228 
Q 2838 1875 2053 1875 
L 1259 1875 
L 1259 0 
L 628 0 
L 628 4666 
z
" transform="scale(0.015625)"/>
      <path id="DejaVuSans-6c" d="M 603 4863 
L 1178 4863 
L 1178 0 
L 603 0 
L 603 4863 
z
" transform="scale(0.015625)"/>
      <path id="DejaVuSans-2c" d="M 750 794 
L 1409 794 
L 1409 256 
L 897 -744 
L 494 -744 
L 750 256 
L 750 794 
z
" transform="scale(0.015625)"/>
      <path id="DejaVuSans-79" d="M 2059 -325 
Q 1816 -950 1584 -1140 
Q 1353 -1331 966 -1331 
L 506 -1331 
L 506 -850 
L 844 -850 
Q 1081 -850 1212 -737 
Q 1344 -625 1503 -206 
L 1606 56 
L 191 3500 
L 800 3500 
L 1894 763 
L 2988 3500 
L 3597 3500 
L 2059 -325 
z
" transform="scale(0.015625)"/>
      <path id="DejaVuSans-2e" d="M 684 794 
L 1344 794 
L 1344 0 
L 684 0 
L 684 794 
z
" transform="scale(0.015625)"/>
      <path id="DejaVuSans-3a" d="M 750 794 
L 1409 794 
L 1409 0 
L 750 0 
L 750 794 
z
M 750 3309 
L 1409 3309 
L 1409 2516 
L 750 2516 
L 750 3309 
z
" transform="scale(0.015625)"/>
      <path id="DejaVuSans-35" d="M 691 4666 
L 3169 4666 
L 3169 4134 
L 1269 4134 
L 1269 2991 
Q 1406 3038 1543 3061 
Q 1681 3084 1819 3084 
Q 2600 3084 3056 2656 
Q 3513 2228 3513 1497 
Q 3513 744 3044 326 
Q 2575 -91 1722 -91 
Q 1428 -91 1123 -41 
Q 819 9 494 109 
L 494 744 
Q 775 591 1075 516 
Q 1375 441 1709 441 
Q 2250 441 2565 725 
Q 2881 1009 2881 1497 
Q 2881 1984 2565 2268 
Q 2250 2553 1709 2553 
Q 1456 2553 1204 2497 
Q 953 2441 691 2322 
L 691 4666 
z
" transform="scale(0.015625)"/>
      <path id="DejaVuSans-2d" d="M 313 2009 
L 1997 2009 
L 1997 1497 
L 313 1497 
L 313 2009 
z
" transform="scale(0.015625)"/>
     </defs>
     <use xlink:href="#DejaVuSans-4e"/>
     <use xlink:href="#DejaVuSans-75" x="74.804688"/>
     <use xlink:href="#DejaVuSans-6d" x="138.183594"/>
     <use xlink:href="#DejaVuSans-62" x="235.595703"/>
     <use xlink:href="#DejaVuSans-65" x="299.072266"/>
     <use xlink:href="#DejaVuSans-72" x="360.595703"/>
     <use xlink:href="#DejaVuSans-20" x="401.708984"/>
     <use xlink:href="#DejaVuSans-6f" x="433.496094"/>
     <use xlink:href="#DejaVuSans-66" x="494.677734"/>
     <use xlink:href="#DejaVuSans-20" x="529.882812"/>
     <use xlink:href="#DejaVuSans-41" x="561.669922"/>
     <use xlink:href="#DejaVuSans-45" x="630.078125"/>
     <use xlink:href="#DejaVuSans-44" x="693.261719"/>
     <use xlink:href="#DejaVuSans-73" x="770.263672"/>
     <use xlink:href="#DejaVuSans-20" x="822.363281"/>
     <use xlink:href="#DejaVuSans-69" x="854.150391"/>
     <use xlink:href="#DejaVuSans-6e" x="881.933594"/>
     <use xlink:href="#DejaVuSans-20" x="945.3125"/>
     <use xlink:href="#DejaVuSans-74" x="977.099609"/>
     <use xlink:href="#DejaVuSans-68" x="1016.308594"/>
     <use xlink:href="#DejaVuSans-65" x="1079.6875"/>
     <use xlink:href="#DejaVuSans-20" x="1141.210938"/>
     <use xlink:href="#DejaVuSans-4f" x="1172.998047"/>
     <use xlink:href="#DejaVuSans-70" x="1251.708984"/>
     <use xlink:href="#DejaVuSans-65" x="1315.185547"/>
     <use xlink:href="#DejaVuSans-6e" x="1376.708984"/>
     <use xlink:href="#DejaVuSans-53" x="1440.087891"/>
     <use xlink:href="#DejaVuSans-74" x="1503.564453"/>
     <use xlink:href="#DejaVuSans-72" x="1542.773438"/>
     <use xlink:href="#DejaVuSans-65" x="1581.636719"/>
     <use xlink:href="#DejaVuSans-65" x="1643.160156"/>
     <use xlink:href="#DejaVuSans-74" x="1704.683594"/>
     <use xlink:href="#DejaVuSans-4d" x="1743.892578"/>
     <use xlink:href="#DejaVuSans-61" x="1830.171875"/>
     <use xlink:href="#DejaVuSans-70" x="1891.451172"/>
     <use xlink:href="#DejaVuSans-20" x="1954.927734"/>
     <use xlink:href="#DejaVuSans-64" x="1986.714844"/>
     <use xlink:href="#DejaVuSans-61" x="2050.191406"/>
     <use xlink:href="#DejaVuSans-74" x="2111.470703"/>
     <use xlink:href="#DejaVuSans-61" x="2150.679688"/>
     <use xlink:href="#DejaVuSans-62" x="2211.958984"/>
     <use xlink:href="#DejaVuSans-61" x="2275.435547"/>
     <use xlink:href="#DejaVuSans-73" x="2336.714844"/>
     <use xlink:href="#DejaVuSans-65" x="2388.814453"/>
     <use xlink:href="#DejaVuSans-20" x="2450.337891"/>
     <use xlink:href="#DejaVuSans-69" x="2482.125"/>
     <use xlink:href="#DejaVuSans-6e" x="2509.908203"/>
     <use xlink:href="#DejaVuSans-20" x="2573.287109"/>
     <use xlink:href="#DejaVuSans-50" x="2605.074219"/>
     <use xlink:href="#DejaVuSans-6f" x="2661.751953"/>
     <use xlink:href="#DejaVuSans-6c" x="2722.933594"/>
     <use xlink:href="#DejaVuSans-61" x="2750.716797"/>
     <use xlink:href="#DejaVuSans-6e" x="2811.996094"/>
     <use xlink:href="#DejaVuSans-64" x="2875.375"/>
     <use xlink:href="#DejaVuSans-20" x="2938.851562"/>
     <use xlink:href="#DejaVuSans-66" x="2970.638672"/>
     <use xlink:href="#DejaVuSans-72" x="3005.84375"/>
     <use xlink:href="#DejaVuSans-6f" x="3044.707031"/>
     <use xlink:href="#DejaVuSans-6d" x="3105.888672"/>
     <use xlink:href="#DejaVuSans-20" x="3203.300781"/>
     <use xlink:href="#DejaVuSans-66" x="3235.087891"/>
     <use xlink:href="#DejaVuSans-69" x="3270.292969"/>
     <use xlink:href="#DejaVuSans-72" x="3298.076172"/>
     <use xlink:href="#DejaVuSans-73" x="3339.189453"/>
     <use xlink:href="#DejaVuSans-74" x="3391.289062"/>
     <use xlink:href="#DejaVuSans-20" x="3430.498047"/>
     <use xlink:href="#DejaVuSans-65" x="3462.285156"/>
     <use xlink:href="#DejaVuSans-64" x="3523.808594"/>
     <use xlink:href="#DejaVuSans-69" x="3587.285156"/>
     <use xlink:href="#DejaVuSans-74" x="3615.068359"/>
     <use xlink:href="#DejaVuSans-69" x="3654.277344"/>
     <use xlink:href="#DejaVuSans-6f" x="3682.060547"/>
     <use xlink:href="#DejaVuSans-6e" x="3743.242188"/>
     <use xlink:href="#DejaVuSans-2c" x="3806.621094"/>
     <use xlink:href="#DejaVuSans-20" x="3838.408203"/>
     <use xlink:href="#DejaVuSans-64" x="3870.195312"/>
     <use xlink:href="#DejaVuSans-61" x="3933.671875"/>
     <use xlink:href="#DejaVuSans-79" x="3994.951172"/>
     <use xlink:href="#DejaVuSans-20" x="4054.130859"/>
     <use xlink:href="#DejaVuSans-62" x="4085.917969"/>
     <use xlink:href="#DejaVuSans-79" x="4149.394531"/>
     <use xlink:href="#DejaVuSans-20" x="4208.574219"/>
     <use xlink:href="#DejaVuSans-64" x="4240.361328"/>
     <use xlink:href="#DejaVuSans-61" x="4303.837891"/>
     <use xlink:href="#DejaVuSans-79" x="4365.117188"/>
     <use xlink:href="#DejaVuSans-2e" x="4410.046875"/>
     <use xlink:href="#DejaVuSans-20" x="4441.833984"/>
     <use xlink:href="#DejaVuSans-41" x="4473.621094"/>
     <use xlink:href="#DejaVuSans-73" x="4542.029297"/>
     <use xlink:href="#DejaVuSans-20" x="4594.128906"/>
     <use xlink:href="#DejaVuSans-61" x="4625.916016"/>
     <use xlink:href="#DejaVuSans-74" x="4687.195312"/>
     <use xlink:href="#DejaVuSans-3a" x="4726.404297"/>
     <use xlink:href="#DejaVuSans-20" x="4760.095703"/>
     <use xlink:href="#DejaVuSans-32" x="4791.882812"/>
     <use xlink:href="#DejaVuSans-30" x="4855.505859"/>
     <use xlink:href="#DejaVuSans-32" x="4919.128906"/>
     <use xlink:href="#DejaVuSans-35" x="4982.751953"/>
     <use xlink:href="#DejaVuSans-2d" x="5046.375"/>
     <use xlink:href="#DejaVuSans-30" x="5082.458984"/>
     <use xlink:href="#DejaVuSans-34" x="5146.082031"/>
     <use xlink:href="#DejaVuSans-2d" x="5209.705078"/>
     <use xlink:href="#DejaVuSans-32" x="5245.789062"/>
     <use xlink:href="#DejaVuSans-35" x="5309.412109"/>
    </g>
   </g>
  </g>
 </g>
 <defs>
  <clipPath id="pcef9444ce9">
   <rect x="144" y="69.12" width="892.8" height="443.52"/>
  </clipPath>
 </defs>
</svg>
