<?xml version="1.0" encoding="utf-8" standalone="no"?>
<!DOCTYPE svg PUBLIC "-//W3C//DTD SVG 1.1//EN"
  "http://www.w3.org/Graphics/SVG/1.1/DTD/svg11.dtd">
<svg xmlns:xlink="http://www.w3.org/1999/xlink" width="1152pt" height="576pt" viewBox="0 0 1152 576" xmlns="http://www.w3.org/2000/svg" version="1.1">
 <metadata>
  <rdf:RDF xmlns:dc="http://purl.org/dc/elements/1.1/" xmlns:cc="http://creativecommons.org/ns#" xmlns:rdf="http://www.w3.org/1999/02/22-rdf-syntax-ns#">
   <cc:Work>
    <dc:type rdf:resource="http://purl.org/dc/dcmitype/StillImage"/>
    <dc:date>1980-01-01T00:00:00+00:00</dc:date>
    <dc:format>image/svg+xml</dc:format>
    <dc:creator>
     <cc:Agent>
      <dc:title>Matplotlib v3.9.1, https://matplotlib.org/</dc:title>
     </cc:Agent>
    </dc:creator>
   </cc:Work>
  </rdf:RDF>
 </metadata>
 <defs>
  <style type="text/css">*{stroke-linejoin: round; stroke-linecap: butt}</style>
 </defs>
 <g id="figure_1">
  <g id="patch_1">
   <path d="M 0 576 
L 1152 576 
L 1152 0 
L 0 0 
z
" style="fill: #ffffff"/>
  </g>
  <g id="axes_1">
   <g id="patch_2">
    <path d="M 144 512.64 
L 1036.8 512.64 
L 1036.8 69.12 
L 144 69.12 
z
" style="fill: #ffffff"/>
   </g>
   <g id="matplotlib.axis_1">
    <g id="xtick_1">
     <g id="line2d_1">
      <defs>
       <path id="ma64f33b582" d="M 0 0 
L 0 3.5 
" style="stroke: #000000; stroke-width: 0.8"/>
      </defs>
      <g>
       <use xlink:href="#ma64f33b582" x="176.601126" y="512.64" style="stroke: #000000; stroke-width: 0.8"/>
      </g>
     </g>
     <g id="text_1">
      <!-- 2014 -->
      <g transform="translate(163.876126 527.238438) scale(0.1 -0.1)">
       <defs>
        <path id="DejaVuSans-32" d="M 1228 531 
L 3431 531 
L 3431 0 
L 469 0 
L 469 531 
Q 828 903 1448 1529 
Q 2069 2156 2228 2338 
Q 2531 2678 2651 2914 
Q 2772 3150 2772 3378 
Q 2772 3750 2511 3984 
Q 2250 4219 1831 4219 
Q 1534 4219 1204 4116 
Q 875 4013 500 3803 
L 500 4441 
Q 881 4594 1212 4672 
Q 1544 4750 1819 4750 
Q 2544 4750 2975 4387 
Q 3406 4025 3406 3419 
Q 3406 3131 3298 2873 
Q 3191 2616 2906 2266 
Q 2828 2175 2409 1742 
Q 1991 1309 1228 531 
z
" transform="scale(0.015625)"/>
        <path id="DejaVuSans-30" d="M 2034 4250 
Q 1547 4250 1301 3770 
Q 1056 3291 1056 2328 
Q 1056 1369 1301 889 
Q 1547 409 2034 409 
Q 2525 409 2770 889 
Q 3016 1369 3016 2328 
Q 3016 3291 2770 3770 
Q 2525 4250 2034 4250 
z
M 2034 4750 
Q 2819 4750 3233 4129 
Q 3647 3509 3647 2328 
Q 3647 1150 3233 529 
Q 2819 -91 2034 -91 
Q 1250 -91 836 529 
Q 422 1150 422 2328 
Q 422 3509 836 4129 
Q 1250 4750 2034 4750 
z
" transform="scale(0.015625)"/>
        <path id="DejaVuSans-31" d="M 794 531 
L 1825 531 
L 1825 4091 
L 703 3866 
L 703 4441 
L 1819 4666 
L 2450 4666 
L 2450 531 
L 3481 531 
L 3481 0 
L 794 0 
L 794 531 
z
" transform="scale(0.015625)"/>
        <path id="DejaVuSans-34" d="M 2419 4116 
L 825 1625 
L 2419 1625 
L 2419 4116 
z
M 2253 4666 
L 3047 4666 
L 3047 1625 
L 3713 1625 
L 3713 1100 
L 3047 1100 
L 3047 0 
L 2419 0 
L 2419 1100 
L 313 1100 
L 313 1709 
L 2253 4666 
z
" transform="scale(0.015625)"/>
       </defs>
       <use xlink:href="#DejaVuSans-32"/>
       <use xlink:href="#DejaVuSans-30" x="63.623047"/>
       <use xlink:href="#DejaVuSans-31" x="127.246094"/>
       <use xlink:href="#DejaVuSans-34" x="190.869141"/>
      </g>
     </g>
    </g>
    <g id="xtick_2">
     <g id="line2d_2">
      <g>
       <use xlink:href="#ma64f33b582" x="322.248753" y="512.64" style="stroke: #000000; stroke-width: 0.8"/>
      </g>
     </g>
     <g id="text_2">
      <!-- 2016 -->
      <g transform="translate(309.523753 527.238438) scale(0.1 -0.1)">
       <defs>
        <path id="DejaVuSans-36" d="M 2113 2584 
Q 1688 2584 1439 2293 
Q 1191 2003 1191 1497 
Q 1191 994 1439 701 
Q 1688 409 2113 409 
Q 2538 409 2786 701 
Q 3034 994 3034 1497 
Q 3034 2003 2786 2293 
Q 2538 2584 2113 2584 
z
M 3366 4563 
L 3366 3988 
Q 3128 4100 2886 4159 
Q 2644 4219 2406 4219 
Q 1781 4219 1451 3797 
Q 1122 3375 1075 2522 
Q 1259 2794 1537 2939 
Q 1816 3084 2150 3084 
Q 2853 3084 3261 2657 
Q 3669 2231 3669 1497 
Q 3669 778 3244 343 
Q 2819 -91 2113 -91 
Q 1303 -91 875 529 
Q 447 1150 447 2328 
Q 447 3434 972 4092 
Q 1497 4750 2381 4750 
Q 2619 4750 2861 4703 
Q 3103 4656 3366 4563 
z
" transform="scale(0.015625)"/>
       </defs>
       <use xlink:href="#DejaVuSans-32"/>
       <use xlink:href="#DejaVuSans-30" x="63.623047"/>
       <use xlink:href="#DejaVuSans-31" x="127.246094"/>
       <use xlink:href="#DejaVuSans-36" x="190.869141"/>
      </g>
     </g>
    </g>
    <g id="xtick_3">
     <g id="line2d_3">
      <g>
       <use xlink:href="#ma64f33b582" x="468.095897" y="512.64" style="stroke: #000000; stroke-width: 0.8"/>
      </g>
     </g>
     <g id="text_3">
      <!-- 2018 -->
      <g transform="translate(455.370897 527.238438) scale(0.1 -0.1)">
       <defs>
        <path id="DejaVuSans-38" d="M 2034 2216 
Q 1584 2216 1326 1975 
Q 1069 1734 1069 1313 
Q 1069 891 1326 650 
Q 1584 409 2034 409 
Q 2484 409 2743 651 
Q 3003 894 3003 1313 
Q 3003 1734 2745 1975 
Q 2488 2216 2034 2216 
z
M 1403 2484 
Q 997 2584 770 2862 
Q 544 3141 544 3541 
Q 544 4100 942 4425 
Q 1341 4750 2034 4750 
Q 2731 4750 3128 4425 
Q 3525 4100 3525 3541 
Q 3525 3141 3298 2862 
Q 3072 2584 2669 2484 
Q 3125 2378 3379 2068 
Q 3634 1759 3634 1313 
Q 3634 634 3220 271 
Q 2806 -91 2034 -91 
Q 1263 -91 848 271 
Q 434 634 434 1313 
Q 434 1759 690 2068 
Q 947 2378 1403 2484 
z
M 1172 3481 
Q 1172 3119 1398 2916 
Q 1625 2713 2034 2713 
Q 2441 2713 2670 2916 
Q 2900 3119 2900 3481 
Q 2900 3844 2670 4047 
Q 2441 4250 2034 4250 
Q 1625 4250 1398 4047 
Q 1172 3844 1172 3481 
z
" transform="scale(0.015625)"/>
       </defs>
       <use xlink:href="#DejaVuSans-32"/>
       <use xlink:href="#DejaVuSans-30" x="63.623047"/>
       <use xlink:href="#DejaVuSans-31" x="127.246094"/>
       <use xlink:href="#DejaVuSans-38" x="190.869141"/>
      </g>
     </g>
    </g>
    <g id="xtick_4">
     <g id="line2d_4">
      <g>
       <use xlink:href="#ma64f33b582" x="613.743524" y="512.64" style="stroke: #000000; stroke-width: 0.8"/>
      </g>
     </g>
     <g id="text_4">
      <!-- 2020 -->
      <g transform="translate(601.018524 527.238438) scale(0.1 -0.1)">
       <use xlink:href="#DejaVuSans-32"/>
       <use xlink:href="#DejaVuSans-30" x="63.623047"/>
       <use xlink:href="#DejaVuSans-32" x="127.246094"/>
       <use xlink:href="#DejaVuSans-30" x="190.869141"/>
      </g>
     </g>
    </g>
    <g id="xtick_5">
     <g id="line2d_5">
      <g>
       <use xlink:href="#ma64f33b582" x="759.590668" y="512.64" style="stroke: #000000; stroke-width: 0.8"/>
      </g>
     </g>
     <g id="text_5">
      <!-- 2022 -->
      <g transform="translate(746.865668 527.238438) scale(0.1 -0.1)">
       <use xlink:href="#DejaVuSans-32"/>
       <use xlink:href="#DejaVuSans-30" x="63.623047"/>
       <use xlink:href="#DejaVuSans-32" x="127.246094"/>
       <use xlink:href="#DejaVuSans-32" x="190.869141"/>
      </g>
     </g>
    </g>
    <g id="xtick_6">
     <g id="line2d_6">
      <g>
       <use xlink:href="#ma64f33b582" x="905.238294" y="512.64" style="stroke: #000000; stroke-width: 0.8"/>
      </g>
     </g>
     <g id="text_6">
      <!-- 2024 -->
      <g transform="translate(892.513294 527.238438) scale(0.1 -0.1)">
       <use xlink:href="#DejaVuSans-32"/>
       <use xlink:href="#DejaVuSans-30" x="63.623047"/>
       <use xlink:href="#DejaVuSans-32" x="127.246094"/>
       <use xlink:href="#DejaVuSans-34" x="190.869141"/>
      </g>
     </g>
    </g>
   </g>
   <g id="matplotlib.axis_2">
    <g id="ytick_1">
     <g id="line2d_7">
      <defs>
       <path id="m9923481894" d="M 0 0 
L -3.5 0 
" style="stroke: #000000; stroke-width: 0.8"/>
      </defs>
      <g>
       <use xlink:href="#m9923481894" x="144" y="492.516795" style="stroke: #000000; stroke-width: 0.8"/>
      </g>
     </g>
     <g id="text_7">
      <!-- 0 -->
      <g transform="translate(130.6375 496.316014) scale(0.1 -0.1)">
       <use xlink:href="#DejaVuSans-30"/>
      </g>
     </g>
    </g>
    <g id="ytick_2">
     <g id="line2d_8">
      <g>
       <use xlink:href="#m9923481894" x="144" y="418.926724" style="stroke: #000000; stroke-width: 0.8"/>
      </g>
     </g>
     <g id="text_8">
      <!-- 2000 -->
      <g transform="translate(111.55 422.725943) scale(0.1 -0.1)">
       <use xlink:href="#DejaVuSans-32"/>
       <use xlink:href="#DejaVuSans-30" x="63.623047"/>
       <use xlink:href="#DejaVuSans-30" x="127.246094"/>
       <use xlink:href="#DejaVuSans-30" x="190.869141"/>
      </g>
     </g>
    </g>
    <g id="ytick_3">
     <g id="line2d_9">
      <g>
       <use xlink:href="#m9923481894" x="144" y="345.336653" style="stroke: #000000; stroke-width: 0.8"/>
      </g>
     </g>
     <g id="text_9">
      <!-- 4000 -->
      <g transform="translate(111.55 349.135871) scale(0.1 -0.1)">
       <use xlink:href="#DejaVuSans-34"/>
       <use xlink:href="#DejaVuSans-30" x="63.623047"/>
       <use xlink:href="#DejaVuSans-30" x="127.246094"/>
       <use xlink:href="#DejaVuSans-30" x="190.869141"/>
      </g>
     </g>
    </g>
    <g id="ytick_4">
     <g id="line2d_10">
      <g>
       <use xlink:href="#m9923481894" x="144" y="271.746581" style="stroke: #000000; stroke-width: 0.8"/>
      </g>
     </g>
     <g id="text_10">
      <!-- 6000 -->
      <g transform="translate(111.55 275.5458) scale(0.1 -0.1)">
       <use xlink:href="#DejaVuSans-36"/>
       <use xlink:href="#DejaVuSans-30" x="63.623047"/>
       <use xlink:href="#DejaVuSans-30" x="127.246094"/>
       <use xlink:href="#DejaVuSans-30" x="190.869141"/>
      </g>
     </g>
    </g>
    <g id="ytick_5">
     <g id="line2d_11">
      <g>
       <use xlink:href="#m9923481894" x="144" y="198.15651" style="stroke: #000000; stroke-width: 0.8"/>
      </g>
     </g>
     <g id="text_11">
      <!-- 8000 -->
      <g transform="translate(111.55 201.955729) scale(0.1 -0.1)">
       <use xlink:href="#DejaVuSans-38"/>
       <use xlink:href="#DejaVuSans-30" x="63.623047"/>
       <use xlink:href="#DejaVuSans-30" x="127.246094"/>
       <use xlink:href="#DejaVuSans-30" x="190.869141"/>
      </g>
     </g>
    </g>
    <g id="ytick_6">
     <g id="line2d_12">
      <g>
       <use xlink:href="#m9923481894" x="144" y="124.566439" style="stroke: #000000; stroke-width: 0.8"/>
      </g>
     </g>
     <g id="text_12">
      <!-- 10000 -->
      <g transform="translate(105.1875 128.365658) scale(0.1 -0.1)">
       <use xlink:href="#DejaVuSans-31"/>
       <use xlink:href="#DejaVuSans-30" x="63.623047"/>
       <use xlink:href="#DejaVuSans-30" x="127.246094"/>
       <use xlink:href="#DejaVuSans-30" x="190.869141"/>
       <use xlink:href="#DejaVuSans-30" x="254.492188"/>
      </g>
     </g>
    </g>
   </g>
   <g id="line2d_13">
    <path d="M 184.581818 492.48 
L 186.377474 492.40641 
L 377.515044 492.11205 
L 457.122446 491.96487 
L 511.39115 491.744099 
L 525.556879 491.633714 
L 559.474819 491.449739 
L 561.070957 491.376149 
L 570.248753 491.265764 
L 613.344489 491.081789 
L 613.943041 491.044994 
L 620.327595 490.971404 
L 620.726629 490.677043 
L 624.916492 490.493068 
L 660.031537 490.345888 
L 664.021883 490.235503 
L 678.387128 490.088323 
L 688.362993 490.014733 
L 702.528721 489.793962 
L 706.319549 489.646782 
L 716.095897 489.426012 
L 718.889139 489.242037 
L 720.684795 489.131652 
L 722.081416 488.947677 
L 729.663073 488.726906 
L 729.862591 488.690111 
L 734.052454 488.542931 
L 740.636525 488.027801 
L 751.011424 487.770235 
L 757.19646 485.930484 
L 757.795012 485.893689 
L 758.593081 485.304968 
L 758.792599 484.385092 
L 759.191633 484.164322 
L 759.39115 484.127527 
L 759.590668 482.876496 
L 760.787772 482.361365 
L 761.186806 481.73585 
L 761.585841 481.478284 
L 761.785358 480.889564 
L 761.984875 479.380967 
L 762.184393 479.013017 
L 762.38391 478.240321 
L 762.583427 476.98929 
L 762.782944 474.855178 
L 763.181979 473.199401 
L 763.381496 472.905041 
L 763.581014 467.974506 
L 763.780531 465.987574 
L 763.980048 465.214879 
L 764.179566 461.535375 
L 764.778117 457.377536 
L 764.977635 457.230356 
L 765.376669 455.133039 
L 765.576187 454.433933 
L 765.775704 449.025063 
L 765.975221 448.546728 
L 766.374256 446.743771 
L 766.573773 446.633386 
L 766.77329 445.71351 
L 766.972808 441.850031 
L 767.172325 440.89336 
L 767.371842 440.81977 
L 767.57136 437.912962 
L 767.770877 437.324242 
L 768.169912 437.140266 
L 768.967981 434.343844 
L 769.367015 433.571148 
L 769.76605 431.326651 
L 769.965567 430.480365 
L 770.165084 426.322526 
L 770.763636 421.686352 
L 771.362188 421.465581 
L 771.761223 421.208016 
L 772.559292 419.662625 
L 772.958327 419.515444 
L 773.357361 416.240686 
L 773.556879 416.203891 
L 773.955913 415.651966 
L 774.15543 414.069779 
L 774.354948 413.591444 
L 774.554465 413.407469 
L 774.9535 412.377208 
L 775.552051 412.082847 
L 775.751569 411.788487 
L 776.350121 409.39681 
L 776.549638 409.249629 
L 776.948673 408.660909 
L 777.746742 408.256164 
L 777.946259 406.710772 
L 778.145776 406.600387 
L 778.345294 406.306027 
L 778.544811 403.288834 
L 778.943846 403.178449 
L 779.34288 402.332163 
L 779.542397 401.596262 
L 780.140949 401.449082 
L 780.739501 400.308436 
L 780.939019 400.271641 
L 781.338053 399.646125 
L 781.737088 399.498945 
L 781.936605 396.113802 
L 783.133709 395.819442 
L 783.532743 395.525081 
L 784.330813 395.414696 
L 784.53033 395.193926 
L 786.924537 394.458025 
L 787.722607 393.869305 
L 788.720193 393.722124 
L 789.119228 393.427764 
L 789.518262 393.280584 
L 791.114401 392.839044 
L 791.513435 392.691863 
L 792.311504 389.564285 
L 793.309091 389.417105 
L 793.508608 389.343515 
L 795.104747 389.15954 
L 795.703298 388.93877 
L 795.902816 388.313254 
L 796.900402 388.239664 
L 797.498954 387.908509 
L 799.494127 386.951838 
L 799.693644 386.694273 
L 800.491714 386.363117 
L 801.4893 386.215937 
L 801.688817 385.958372 
L 802.087852 385.921577 
L 802.287369 385.259266 
L 802.486887 385.185676 
L 802.686404 384.33939 
L 805.080611 383.787465 
L 805.679163 383.640285 
L 805.878681 383.125154 
L 807.275302 382.757204 
L 807.873854 382.536434 
L 808.87144 382.242073 
L 809.070957 382.131688 
L 810.268061 381.910918 
L 811.06613 381.690148 
L 812.462751 380.843862 
L 812.662269 380.107961 
L 813.659855 379.261675 
L 813.859372 378.893725 
L 814.856959 378.010644 
L 815.255994 377.237949 
L 815.455511 377.201153 
L 815.655028 376.465253 
L 816.652615 375.177427 
L 817.251167 375.067041 
L 817.450684 374.735886 
L 817.849718 374.551911 
L 818.049236 374.183961 
L 819.046822 373.8896 
L 819.24634 373.558445 
L 820.642961 373.22729 
L 821.041995 373.043314 
L 821.241512 373.006519 
L 821.44103 372.822544 
L 822.438616 372.675364 
L 823.835237 372.013053 
L 824.433789 371.865873 
L 824.832824 371.019588 
L 825.231858 370.762022 
L 826.229445 369.915736 
L 826.428962 369.069451 
L 827.227031 368.811885 
L 828.424135 368.40714 
L 828.82317 367.781624 
L 829.421722 367.413674 
L 829.621239 367.376879 
L 830.020274 366.788158 
L 830.618825 366.567388 
L 831.01786 366.236233 
L 831.616412 365.941873 
L 831.815929 362.85109 
L 832.214964 360.128257 
L 832.414481 357.81017 
L 832.613998 357.515809 
L 833.412068 354.682592 
L 833.811102 353.946691 
L 834.010619 353.836306 
L 834.210137 353.578741 
L 834.409654 353.06361 
L 834.609171 351.371039 
L 834.808689 350.966293 
L 835.207723 350.819113 
L 835.606758 349.825647 
L 835.806275 349.604877 
L 836.005792 348.868976 
L 836.20531 348.648206 
L 836.604344 348.02269 
L 836.803862 347.029224 
L 837.003379 346.661274 
L 837.402414 345.704603 
L 837.801448 345.115882 
L 838.599517 344.600752 
L 838.799035 344.379982 
L 838.998552 343.165746 
L 839.397586 342.98177 
L 839.796621 342.577025 
L 840.395173 341.730739 
L 840.59469 340.958043 
L 840.794208 340.921248 
L 841.392759 340.185348 
L 841.791794 340.111758 
L 841.991311 339.743807 
L 842.390346 339.486242 
L 842.589863 339.191882 
L 843.387932 336.211484 
L 843.58745 334.702887 
L 843.786967 334.150962 
L 844.784553 333.157496 
L 844.984071 333.083906 
L 845.183588 332.715955 
L 845.582623 331.244154 
L 846.779726 330.581843 
L 847.178761 329.661968 
L 847.378278 329.514787 
L 848.176348 327.895806 
L 848.774899 327.527855 
L 849.572969 327.27029 
L 850.171521 325.908874 
L 850.96959 325.504128 
L 851.767659 324.510663 
L 852.166693 324.437072 
L 852.565728 323.958737 
L 853.16428 323.701172 
L 853.563315 323.627582 
L 853.762832 323.406811 
L 853.962349 322.707706 
L 854.760418 322.450141 
L 854.959936 322.08219 
L 855.159453 322.045395 
L 855.35897 321.346289 
L 855.957522 321.088724 
L 856.556074 320.941544 
L 856.955109 320.536799 
L 857.952695 320.021668 
L 858.35173 319.580128 
L 858.750764 319.322563 
L 859.149799 319.285767 
L 859.349316 318.292302 
L 859.548833 318.034736 
L 860.346903 317.666786 
L 860.945455 317.262041 
L 861.743524 317.11486 
L 861.943041 316.084599 
L 862.541593 315.716649 
L 862.74111 315.459084 
L 863.140145 315.422289 
L 863.738697 315.017543 
L 864.137731 314.943953 
L 864.337249 314.612798 
L 865.135318 314.281643 
L 865.334835 313.876897 
L 865.73387 313.840102 
L 866.132904 313.582537 
L 866.731456 313.251382 
L 866.930973 312.699456 
L 867.729043 312.294711 
L 867.92856 311.963555 
L 868.327595 311.742785 
L 868.527112 311.48522 
L 869.125664 311.154065 
L 869.325181 310.822909 
L 869.524698 310.749319 
L 869.923733 310.454959 
L 870.322767 310.270984 
L 870.522285 310.050214 
L 871.719389 309.608673 
L 871.918906 309.167133 
L 872.118423 309.056748 
L 873.11601 308.799182 
L 873.515044 308.468027 
L 873.914079 308.320847 
L 874.512631 308.136872 
L 874.712148 307.805716 
L 875.111183 307.732126 
L 875.3107 307.069816 
L 875.510217 306.922636 
L 875.909252 306.4443 
L 876.108769 305.303654 
L 876.308286 305.230064 
L 877.305873 304.273393 
L 878.103942 303.537492 
L 878.502977 303.353517 
L 878.702494 302.911977 
L 878.902011 302.838387 
L 879.301046 302.396846 
L 879.70008 302.139281 
L 880.298632 301.918511 
L 880.897184 301.219405 
L 881.296219 300.88825 
L 881.695253 300.446709 
L 882.892357 299.453243 
L 883.889944 299.195678 
L 884.488496 298.422982 
L 884.88753 297.981442 
L 885.486082 297.576696 
L 886.284151 297.208746 
L 886.483669 297.024771 
L 887.281738 296.693616 
L 887.680772 296.325665 
L 888.279324 296.104895 
L 888.877876 295.736945 
L 889.476428 295.479379 
L 889.675945 295.295404 
L 891.471601 294.522709 
L 891.870636 294.338733 
L 892.070153 293.970783 
L 893.466774 293.382062 
L 894.065326 292.977317 
L 894.264843 292.940522 
L 894.863395 292.425391 
L 895.661464 292.204621 
L 895.860981 291.689491 
L 896.060499 289.996919 
L 896.459533 289.555379 
L 896.659051 289.518584 
L 897.058085 288.745888 
L 897.45712 288.193962 
L 897.856154 287.862807 
L 898.255189 286.722161 
L 898.654224 286.354211 
L 899.053258 286.096645 
L 899.452293 285.98626 
L 899.65181 285.6919 
L 900.050845 285.47113 
L 900.449879 285.103179 
L 900.848914 284.919204 
L 901.048431 284.808819 
L 901.247949 284.404074 
L 901.646983 284.256894 
L 901.8465 283.815353 
L 902.445052 283.594583 
L 902.844087 283.005862 
L 903.442639 282.527527 
L 903.841673 282.122782 
L 904.440225 282.012396 
L 904.639743 281.681241 
L 905.238294 281.460471 
L 905.637329 279.841489 
L 906.036364 279.473539 
L 907.233467 278.811228 
L 907.432985 278.222508 
L 907.832019 278.001738 
L 908.031537 277.486607 
L 908.231054 277.376222 
L 908.630088 276.861091 
L 909.029123 276.529936 
L 909.428158 276.345961 
L 910.226227 275.720445 
L 910.425744 275.646855 
L 911.423331 274.579799 
L 911.622848 274.101464 
L 911.822365 273.991079 
L 912.2214 273.917489 
L 912.420917 273.439153 
L 912.819952 273.255178 
L 913.218986 273.034408 
L 913.418504 272.372097 
L 914.216573 271.893762 
L 914.41609 271.231451 
L 915.214159 270.532345 
L 915.413677 270.49555 
L 915.613194 270.090805 
L 916.411263 269.538879 
L 916.61078 269.170929 
L 917.009815 269.023749 
L 917.209332 268.287848 
L 917.608367 268.177463 
L 917.807884 267.846308 
L 918.007401 267.772718 
L 918.206919 267.000022 
L 918.605953 266.889637 
L 919.004988 266.521686 
L 919.404023 265.932966 
L 919.60354 265.785786 
L 920.401609 264.534755 
L 920.601126 264.461164 
L 921.000161 264.019624 
L 921.79823 263.430903 
L 922.396782 263.136543 
L 924.192438 261.223201 
L 924.591472 261.076021 
L 924.990507 260.634481 
L 925.389541 260.487301 
L 925.589059 259.60422 
L 926.187611 258.941909 
L 926.387128 258.206008 
L 926.786163 257.764468 
L 926.98568 257.359723 
L 927.185197 257.322928 
L 928.581818 255.924716 
L 928.781335 255.887921 
L 928.980853 255.556766 
L 930.177957 255.15202 
L 930.776508 254.34253 
L 931.175543 253.643424 
L 931.574578 253.496244 
L 931.973612 253.017908 
L 932.17313 252.760343 
L 932.372647 252.723548 
L 932.572164 252.282008 
L 933.370233 251.730082 
L 934.168302 251.141362 
L 934.36782 251.104567 
L 935.365406 250.147896 
L 935.963958 249.81674 
L 936.163475 249.44879 
L 936.56251 249.3752 
L 937.161062 248.749684 
L 937.360579 248.418529 
L 937.959131 248.124169 
L 938.557683 247.719423 
L 938.956718 247.572243 
L 939.355752 247.130703 
L 940.353339 246.541982 
L 940.552856 246.284417 
L 940.752373 246.247622 
L 941.151408 246.026852 
L 941.350925 245.879671 
L 941.550442 244.1871 
L 942.548029 243.451199 
L 943.346098 241.979398 
L 943.545615 241.832218 
L 943.745133 241.317087 
L 944.144167 241.133112 
L 944.942237 239.845286 
L 945.341271 238.115919 
L 945.540788 237.527198 
L 945.939823 234.730776 
L 946.13934 233.626925 
L 947.136927 232.302303 
L 947.934996 228.91716 
L 948.134513 228.733185 
L 948.334031 228.218054 
L 948.533548 226.415098 
L 948.733065 225.715992 
L 948.932582 225.642402 
L 949.1321 224.796116 
L 949.730652 224.280986 
L 950.129686 222.882774 
L 951.127273 222.294054 
L 951.32679 221.926103 
L 952.324377 221.300588 
L 952.723411 220.859047 
L 952.922928 220.454302 
L 953.122446 219.424041 
L 953.321963 219.019295 
L 953.720998 218.872115 
L 954.120032 218.68814 
L 954.519067 218.39378 
L 954.918101 218.09942 
L 955.915688 217.657879 
L 956.314722 217.326724 
L 956.713757 217.289929 
L 958.110378 215.854922 
L 958.70893 215.339792 
L 959.107965 215.008637 
L 959.307482 214.677481 
L 959.706516 214.567096 
L 959.906034 214.309531 
L 960.305068 214.125556 
L 960.504586 213.242475 
L 961.103138 212.616959 
L 961.502172 212.506574 
L 962.699276 211.439518 
L 962.898793 211.402723 
L 963.89638 210.593232 
L 964.095897 210.556437 
L 964.295414 210.004512 
L 964.494932 209.820537 
L 964.694449 209.231816 
L 965.093484 208.974251 
L 965.692035 207.465654 
L 965.891553 206.729754 
L 966.490105 206.288213 
L 967.088656 205.441927 
L 967.487691 204.006921 
L 967.687208 203.565381 
L 967.886726 202.792685 
L 968.086243 202.719095 
L 968.28576 202.093579 
L 968.684795 201.836014 
L 969.482864 200.916138 
L 969.881899 200.474598 
L 970.081416 199.959467 
L 970.480451 199.812287 
L 970.679968 199.591517 
L 970.879485 199.076386 
L 971.677554 198.745231 
L 971.877072 198.487666 
L 972.076589 198.450871 
L 972.276106 197.604585 
L 972.675141 197.34702 
L 972.874658 196.831889 
L 973.074175 196.684709 
L 973.47321 196.647914 
L 974.670314 195.691243 
L 975.268866 195.212907 
L 975.6679 194.734572 
L 976.066935 194.329827 
L 976.266452 193.925081 
L 976.465969 193.078795 
L 977.663073 192.37969 
L 978.062108 191.312634 
L 978.461142 191.128659 
L 978.66066 190.576733 
L 978.860177 190.466348 
L 979.658246 189.436087 
L 980.655833 188.773776 
L 981.852936 187.522745 
L 982.451488 186.639664 
L 983.449075 183.953627 
L 984.446661 178.397576 
L 984.646179 178.103216 
L 984.845696 177.55129 
L 985.045213 175.490768 
L 985.24473 171.516905 
L 986.0428 165.556109 
L 986.641352 160.147239 
L 987.040386 154.995934 
L 987.439421 154.223238 
L 987.838455 147.489746 
L 988.037973 145.76038 
L 988.437007 138.217397 
L 988.636525 137.187136 
L 988.836042 136.745596 
L 989.035559 132.992502 
L 989.235076 132.109421 
L 989.634111 127.914787 
L 990.033146 116.618711 
L 990.43218 114.889345 
L 990.631698 111.430611 
L 990.831215 111.062661 
L 991.230249 105.396226 
L 991.429767 105.28584 
L 991.629284 104.881095 
L 992.028319 103.519679 
L 992.227836 103.188523 
L 992.427353 102.563008 
L 992.62687 101.385567 
L 993.025905 101.164796 
L 993.225422 100.539281 
L 993.624457 98.625939 
L 994.023492 94.799255 
L 994.223009 93.989765 
L 994.422526 93.916174 
L 994.622043 93.511429 
L 995.61963 90.310261 
L 995.819147 90.163081 
L 996.018665 89.316795 
L 996.218182 89.28 
L 996.218182 89.28 
" clip-path="url(#pc20313df7f)" style="fill: none; stroke: #1f77b4; stroke-width: 1.5; stroke-linecap: square"/>
   </g>
   <g id="patch_3">
    <path d="M 144 512.64 
L 144 69.12 
" style="fill: none; stroke: #000000; stroke-width: 0.8; stroke-linejoin: miter; stroke-linecap: square"/>
   </g>
   <g id="patch_4">
    <path d="M 1036.8 512.64 
L 1036.8 69.12 
" style="fill: none; stroke: #000000; stroke-width: 0.8; stroke-linejoin: miter; stroke-linecap: square"/>
   </g>
   <g id="patch_5">
    <path d="M 144 512.64 
L 1036.8 512.64 
" style="fill: none; stroke: #000000; stroke-width: 0.8; stroke-linejoin: miter; stroke-linecap: square"/>
   </g>
   <g id="patch_6">
    <path d="M 144 69.12 
L 1036.8 69.12 
" style="fill: none; stroke: #000000; stroke-width: 0.8; stroke-linejoin: miter; stroke-linecap: square"/>
   </g>
   <g id="text_13">
    <!-- Number of AEDs in the OpenStreetMap database in Poland from first edition, day by day. As at: 2025-04-01 -->
    <g transform="translate(144 63.12) scale(0.14 -0.14)">
     <defs>
      <path id="DejaVuSans-4e" d="M 628 4666 
L 1478 4666 
L 3547 763 
L 3547 4666 
L 4159 4666 
L 4159 0 
L 3309 0 
L 1241 3903 
L 1241 0 
L 628 0 
L 628 4666 
z
" transform="scale(0.015625)"/>
      <path id="DejaVuSans-75" d="M 544 1381 
L 544 3500 
L 1119 3500 
L 1119 1403 
Q 1119 906 1312 657 
Q 1506 409 1894 409 
Q 2359 409 2629 706 
Q 2900 1003 2900 1516 
L 2900 3500 
L 3475 3500 
L 3475 0 
L 2900 0 
L 2900 538 
Q 2691 219 2414 64 
Q 2138 -91 1772 -91 
Q 1169 -91 856 284 
Q 544 659 544 1381 
z
M 1991 3584 
L 1991 3584 
z
" transform="scale(0.015625)"/>
      <path id="DejaVuSans-6d" d="M 3328 2828 
Q 3544 3216 3844 3400 
Q 4144 3584 4550 3584 
Q 5097 3584 5394 3201 
Q 5691 2819 5691 2113 
L 5691 0 
L 5113 0 
L 5113 2094 
Q 5113 2597 4934 2840 
Q 4756 3084 4391 3084 
Q 3944 3084 3684 2787 
Q 3425 2491 3425 1978 
L 3425 0 
L 2847 0 
L 2847 2094 
Q 2847 2600 2669 2842 
Q 2491 3084 2119 3084 
Q 1678 3084 1418 2786 
Q 1159 2488 1159 1978 
L 1159 0 
L 581 0 
L 581 3500 
L 1159 3500 
L 1159 2956 
Q 1356 3278 1631 3431 
Q 1906 3584 2284 3584 
Q 2666 3584 2933 3390 
Q 3200 3197 3328 2828 
z
" transform="scale(0.015625)"/>
      <path id="DejaVuSans-62" d="M 3116 1747 
Q 3116 2381 2855 2742 
Q 2594 3103 2138 3103 
Q 1681 3103 1420 2742 
Q 1159 2381 1159 1747 
Q 1159 1113 1420 752 
Q 1681 391 2138 391 
Q 2594 391 2855 752 
Q 3116 1113 3116 1747 
z
M 1159 2969 
Q 1341 3281 1617 3432 
Q 1894 3584 2278 3584 
Q 2916 3584 3314 3078 
Q 3713 2572 3713 1747 
Q 3713 922 3314 415 
Q 2916 -91 2278 -91 
Q 1894 -91 1617 61 
Q 1341 213 1159 525 
L 1159 0 
L 581 0 
L 581 4863 
L 1159 4863 
L 1159 2969 
z
" transform="scale(0.015625)"/>
      <path id="DejaVuSans-65" d="M 3597 1894 
L 3597 1613 
L 953 1613 
Q 991 1019 1311 708 
Q 1631 397 2203 397 
Q 2534 397 2845 478 
Q 3156 559 3463 722 
L 3463 178 
Q 3153 47 2828 -22 
Q 2503 -91 2169 -91 
Q 1331 -91 842 396 
Q 353 884 353 1716 
Q 353 2575 817 3079 
Q 1281 3584 2069 3584 
Q 2775 3584 3186 3129 
Q 3597 2675 3597 1894 
z
M 3022 2063 
Q 3016 2534 2758 2815 
Q 2500 3097 2075 3097 
Q 1594 3097 1305 2825 
Q 1016 2553 972 2059 
L 3022 2063 
z
" transform="scale(0.015625)"/>
      <path id="DejaVuSans-72" d="M 2631 2963 
Q 2534 3019 2420 3045 
Q 2306 3072 2169 3072 
Q 1681 3072 1420 2755 
Q 1159 2438 1159 1844 
L 1159 0 
L 581 0 
L 581 3500 
L 1159 3500 
L 1159 2956 
Q 1341 3275 1631 3429 
Q 1922 3584 2338 3584 
Q 2397 3584 2469 3576 
Q 2541 3569 2628 3553 
L 2631 2963 
z
" transform="scale(0.015625)"/>
      <path id="DejaVuSans-20" transform="scale(0.015625)"/>
      <path id="DejaVuSans-6f" d="M 1959 3097 
Q 1497 3097 1228 2736 
Q 959 2375 959 1747 
Q 959 1119 1226 758 
Q 1494 397 1959 397 
Q 2419 397 2687 759 
Q 2956 1122 2956 1747 
Q 2956 2369 2687 2733 
Q 2419 3097 1959 3097 
z
M 1959 3584 
Q 2709 3584 3137 3096 
Q 3566 2609 3566 1747 
Q 3566 888 3137 398 
Q 2709 -91 1959 -91 
Q 1206 -91 779 398 
Q 353 888 353 1747 
Q 353 2609 779 3096 
Q 1206 3584 1959 3584 
z
" transform="scale(0.015625)"/>
      <path id="DejaVuSans-66" d="M 2375 4863 
L 2375 4384 
L 1825 4384 
Q 1516 4384 1395 4259 
Q 1275 4134 1275 3809 
L 1275 3500 
L 2222 3500 
L 2222 3053 
L 1275 3053 
L 1275 0 
L 697 0 
L 697 3053 
L 147 3053 
L 147 3500 
L 697 3500 
L 697 3744 
Q 697 4328 969 4595 
Q 1241 4863 1831 4863 
L 2375 4863 
z
" transform="scale(0.015625)"/>
      <path id="DejaVuSans-41" d="M 2188 4044 
L 1331 1722 
L 3047 1722 
L 2188 4044 
z
M 1831 4666 
L 2547 4666 
L 4325 0 
L 3669 0 
L 3244 1197 
L 1141 1197 
L 716 0 
L 50 0 
L 1831 4666 
z
" transform="scale(0.015625)"/>
      <path id="DejaVuSans-45" d="M 628 4666 
L 3578 4666 
L 3578 4134 
L 1259 4134 
L 1259 2753 
L 3481 2753 
L 3481 2222 
L 1259 2222 
L 1259 531 
L 3634 531 
L 3634 0 
L 628 0 
L 628 4666 
z
" transform="scale(0.015625)"/>
      <path id="DejaVuSans-44" d="M 1259 4147 
L 1259 519 
L 2022 519 
Q 2988 519 3436 956 
Q 3884 1394 3884 2338 
Q 3884 3275 3436 3711 
Q 2988 4147 2022 4147 
L 1259 4147 
z
M 628 4666 
L 1925 4666 
Q 3281 4666 3915 4102 
Q 4550 3538 4550 2338 
Q 4550 1131 3912 565 
Q 3275 0 1925 0 
L 628 0 
L 628 4666 
z
" transform="scale(0.015625)"/>
      <path id="DejaVuSans-73" d="M 2834 3397 
L 2834 2853 
Q 2591 2978 2328 3040 
Q 2066 3103 1784 3103 
Q 1356 3103 1142 2972 
Q 928 2841 928 2578 
Q 928 2378 1081 2264 
Q 1234 2150 1697 2047 
L 1894 2003 
Q 2506 1872 2764 1633 
Q 3022 1394 3022 966 
Q 3022 478 2636 193 
Q 2250 -91 1575 -91 
Q 1294 -91 989 -36 
Q 684 19 347 128 
L 347 722 
Q 666 556 975 473 
Q 1284 391 1588 391 
Q 1994 391 2212 530 
Q 2431 669 2431 922 
Q 2431 1156 2273 1281 
Q 2116 1406 1581 1522 
L 1381 1569 
Q 847 1681 609 1914 
Q 372 2147 372 2553 
Q 372 3047 722 3315 
Q 1072 3584 1716 3584 
Q 2034 3584 2315 3537 
Q 2597 3491 2834 3397 
z
" transform="scale(0.015625)"/>
      <path id="DejaVuSans-69" d="M 603 3500 
L 1178 3500 
L 1178 0 
L 603 0 
L 603 3500 
z
M 603 4863 
L 1178 4863 
L 1178 4134 
L 603 4134 
L 603 4863 
z
" transform="scale(0.015625)"/>
      <path id="DejaVuSans-6e" d="M 3513 2113 
L 3513 0 
L 2938 0 
L 2938 2094 
Q 2938 2591 2744 2837 
Q 2550 3084 2163 3084 
Q 1697 3084 1428 2787 
Q 1159 2491 1159 1978 
L 1159 0 
L 581 0 
L 581 3500 
L 1159 3500 
L 1159 2956 
Q 1366 3272 1645 3428 
Q 1925 3584 2291 3584 
Q 2894 3584 3203 3211 
Q 3513 2838 3513 2113 
z
" transform="scale(0.015625)"/>
      <path id="DejaVuSans-74" d="M 1172 4494 
L 1172 3500 
L 2356 3500 
L 2356 3053 
L 1172 3053 
L 1172 1153 
Q 1172 725 1289 603 
Q 1406 481 1766 481 
L 2356 481 
L 2356 0 
L 1766 0 
Q 1100 0 847 248 
Q 594 497 594 1153 
L 594 3053 
L 172 3053 
L 172 3500 
L 594 3500 
L 594 4494 
L 1172 4494 
z
" transform="scale(0.015625)"/>
      <path id="DejaVuSans-68" d="M 3513 2113 
L 3513 0 
L 2938 0 
L 2938 2094 
Q 2938 2591 2744 2837 
Q 2550 3084 2163 3084 
Q 1697 3084 1428 2787 
Q 1159 2491 1159 1978 
L 1159 0 
L 581 0 
L 581 4863 
L 1159 4863 
L 1159 2956 
Q 1366 3272 1645 3428 
Q 1925 3584 2291 3584 
Q 2894 3584 3203 3211 
Q 3513 2838 3513 2113 
z
" transform="scale(0.015625)"/>
      <path id="DejaVuSans-4f" d="M 2522 4238 
Q 1834 4238 1429 3725 
Q 1025 3213 1025 2328 
Q 1025 1447 1429 934 
Q 1834 422 2522 422 
Q 3209 422 3611 934 
Q 4013 1447 4013 2328 
Q 4013 3213 3611 3725 
Q 3209 4238 2522 4238 
z
M 2522 4750 
Q 3503 4750 4090 4092 
Q 4678 3434 4678 2328 
Q 4678 1225 4090 567 
Q 3503 -91 2522 -91 
Q 1538 -91 948 565 
Q 359 1222 359 2328 
Q 359 3434 948 4092 
Q 1538 4750 2522 4750 
z
" transform="scale(0.015625)"/>
      <path id="DejaVuSans-70" d="M 1159 525 
L 1159 -1331 
L 581 -1331 
L 581 3500 
L 1159 3500 
L 1159 2969 
Q 1341 3281 1617 3432 
Q 1894 3584 2278 3584 
Q 2916 3584 3314 3078 
Q 3713 2572 3713 1747 
Q 3713 922 3314 415 
Q 2916 -91 2278 -91 
Q 1894 -91 1617 61 
Q 1341 213 1159 525 
z
M 3116 1747 
Q 3116 2381 2855 2742 
Q 2594 3103 2138 3103 
Q 1681 3103 1420 2742 
Q 1159 2381 1159 1747 
Q 1159 1113 1420 752 
Q 1681 391 2138 391 
Q 2594 391 2855 752 
Q 3116 1113 3116 1747 
z
" transform="scale(0.015625)"/>
      <path id="DejaVuSans-53" d="M 3425 4513 
L 3425 3897 
Q 3066 4069 2747 4153 
Q 2428 4238 2131 4238 
Q 1616 4238 1336 4038 
Q 1056 3838 1056 3469 
Q 1056 3159 1242 3001 
Q 1428 2844 1947 2747 
L 2328 2669 
Q 3034 2534 3370 2195 
Q 3706 1856 3706 1288 
Q 3706 609 3251 259 
Q 2797 -91 1919 -91 
Q 1588 -91 1214 -16 
Q 841 59 441 206 
L 441 856 
Q 825 641 1194 531 
Q 1563 422 1919 422 
Q 2459 422 2753 634 
Q 3047 847 3047 1241 
Q 3047 1584 2836 1778 
Q 2625 1972 2144 2069 
L 1759 2144 
Q 1053 2284 737 2584 
Q 422 2884 422 3419 
Q 422 4038 858 4394 
Q 1294 4750 2059 4750 
Q 2388 4750 2728 4690 
Q 3069 4631 3425 4513 
z
" transform="scale(0.015625)"/>
      <path id="DejaVuSans-4d" d="M 628 4666 
L 1569 4666 
L 2759 1491 
L 3956 4666 
L 4897 4666 
L 4897 0 
L 4281 0 
L 4281 4097 
L 3078 897 
L 2444 897 
L 1241 4097 
L 1241 0 
L 628 0 
L 628 4666 
z
" transform="scale(0.015625)"/>
      <path id="DejaVuSans-61" d="M 2194 1759 
Q 1497 1759 1228 1600 
Q 959 1441 959 1056 
Q 959 750 1161 570 
Q 1363 391 1709 391 
Q 2188 391 2477 730 
Q 2766 1069 2766 1631 
L 2766 1759 
L 2194 1759 
z
M 3341 1997 
L 3341 0 
L 2766 0 
L 2766 531 
Q 2569 213 2275 61 
Q 1981 -91 1556 -91 
Q 1019 -91 701 211 
Q 384 513 384 1019 
Q 384 1609 779 1909 
Q 1175 2209 1959 2209 
L 2766 2209 
L 2766 2266 
Q 2766 2663 2505 2880 
Q 2244 3097 1772 3097 
Q 1472 3097 1187 3025 
Q 903 2953 641 2809 
L 641 3341 
Q 956 3463 1253 3523 
Q 1550 3584 1831 3584 
Q 2591 3584 2966 3190 
Q 3341 2797 3341 1997 
z
" transform="scale(0.015625)"/>
      <path id="DejaVuSans-64" d="M 2906 2969 
L 2906 4863 
L 3481 4863 
L 3481 0 
L 2906 0 
L 2906 525 
Q 2725 213 2448 61 
Q 2172 -91 1784 -91 
Q 1150 -91 751 415 
Q 353 922 353 1747 
Q 353 2572 751 3078 
Q 1150 3584 1784 3584 
Q 2172 3584 2448 3432 
Q 2725 3281 2906 2969 
z
M 947 1747 
Q 947 1113 1208 752 
Q 1469 391 1925 391 
Q 2381 391 2643 752 
Q 2906 1113 2906 1747 
Q 2906 2381 2643 2742 
Q 2381 3103 1925 3103 
Q 1469 3103 1208 2742 
Q 947 2381 947 1747 
z
" transform="scale(0.015625)"/>
      <path id="DejaVuSans-50" d="M 1259 4147 
L 1259 2394 
L 2053 2394 
Q 2494 2394 2734 2622 
Q 2975 2850 2975 3272 
Q 2975 3691 2734 3919 
Q 2494 4147 2053 4147 
L 1259 4147 
z
M 628 4666 
L 2053 4666 
Q 2838 4666 3239 4311 
Q 3641 3956 3641 3272 
Q 3641 2581 3239 2228 
Q 2838 1875 2053 1875 
L 1259 1875 
L 1259 0 
L 628 0 
L 628 4666 
z
" transform="scale(0.015625)"/>
      <path id="DejaVuSans-6c" d="M 603 4863 
L 1178 4863 
L 1178 0 
L 603 0 
L 603 4863 
z
" transform="scale(0.015625)"/>
      <path id="DejaVuSans-2c" d="M 750 794 
L 1409 794 
L 1409 256 
L 897 -744 
L 494 -744 
L 750 256 
L 750 794 
z
" transform="scale(0.015625)"/>
      <path id="DejaVuSans-79" d="M 2059 -325 
Q 1816 -950 1584 -1140 
Q 1353 -1331 966 -1331 
L 506 -1331 
L 506 -850 
L 844 -850 
Q 1081 -850 1212 -737 
Q 1344 -625 1503 -206 
L 1606 56 
L 191 3500 
L 800 3500 
L 1894 763 
L 2988 3500 
L 3597 3500 
L 2059 -325 
z
" transform="scale(0.015625)"/>
      <path id="DejaVuSans-2e" d="M 684 794 
L 1344 794 
L 1344 0 
L 684 0 
L 684 794 
z
" transform="scale(0.015625)"/>
      <path id="DejaVuSans-3a" d="M 750 794 
L 1409 794 
L 1409 0 
L 750 0 
L 750 794 
z
M 750 3309 
L 1409 3309 
L 1409 2516 
L 750 2516 
L 750 3309 
z
" transform="scale(0.015625)"/>
      <path id="DejaVuSans-35" d="M 691 4666 
L 3169 4666 
L 3169 4134 
L 1269 4134 
L 1269 2991 
Q 1406 3038 1543 3061 
Q 1681 3084 1819 3084 
Q 2600 3084 3056 2656 
Q 3513 2228 3513 1497 
Q 3513 744 3044 326 
Q 2575 -91 1722 -91 
Q 1428 -91 1123 -41 
Q 819 9 494 109 
L 494 744 
Q 775 591 1075 516 
Q 1375 441 1709 441 
Q 2250 441 2565 725 
Q 2881 1009 2881 1497 
Q 2881 1984 2565 2268 
Q 2250 2553 1709 2553 
Q 1456 2553 1204 2497 
Q 953 2441 691 2322 
L 691 4666 
z
" transform="scale(0.015625)"/>
      <path id="DejaVuSans-2d" d="M 313 2009 
L 1997 2009 
L 1997 1497 
L 313 1497 
L 313 2009 
z
" transform="scale(0.015625)"/>
     </defs>
     <use xlink:href="#DejaVuSans-4e"/>
     <use xlink:href="#DejaVuSans-75" x="74.804688"/>
     <use xlink:href="#DejaVuSans-6d" x="138.183594"/>
     <use xlink:href="#DejaVuSans-62" x="235.595703"/>
     <use xlink:href="#DejaVuSans-65" x="299.072266"/>
     <use xlink:href="#DejaVuSans-72" x="360.595703"/>
     <use xlink:href="#DejaVuSans-20" x="401.708984"/>
     <use xlink:href="#DejaVuSans-6f" x="433.496094"/>
     <use xlink:href="#DejaVuSans-66" x="494.677734"/>
     <use xlink:href="#DejaVuSans-20" x="529.882812"/>
     <use xlink:href="#DejaVuSans-41" x="561.669922"/>
     <use xlink:href="#DejaVuSans-45" x="630.078125"/>
     <use xlink:href="#DejaVuSans-44" x="693.261719"/>
     <use xlink:href="#DejaVuSans-73" x="770.263672"/>
     <use xlink:href="#DejaVuSans-20" x="822.363281"/>
     <use xlink:href="#DejaVuSans-69" x="854.150391"/>
     <use xlink:href="#DejaVuSans-6e" x="881.933594"/>
     <use xlink:href="#DejaVuSans-20" x="945.3125"/>
     <use xlink:href="#DejaVuSans-74" x="977.099609"/>
     <use xlink:href="#DejaVuSans-68" x="1016.308594"/>
     <use xlink:href="#DejaVuSans-65" x="1079.6875"/>
     <use xlink:href="#DejaVuSans-20" x="1141.210938"/>
     <use xlink:href="#DejaVuSans-4f" x="1172.998047"/>
     <use xlink:href="#DejaVuSans-70" x="1251.708984"/>
     <use xlink:href="#DejaVuSans-65" x="1315.185547"/>
     <use xlink:href="#DejaVuSans-6e" x="1376.708984"/>
     <use xlink:href="#DejaVuSans-53" x="1440.087891"/>
     <use xlink:href="#DejaVuSans-74" x="1503.564453"/>
     <use xlink:href="#DejaVuSans-72" x="1542.773438"/>
     <use xlink:href="#DejaVuSans-65" x="1581.636719"/>
     <use xlink:href="#DejaVuSans-65" x="1643.160156"/>
     <use xlink:href="#DejaVuSans-74" x="1704.683594"/>
     <use xlink:href="#DejaVuSans-4d" x="1743.892578"/>
     <use xlink:href="#DejaVuSans-61" x="1830.171875"/>
     <use xlink:href="#DejaVuSans-70" x="1891.451172"/>
     <use xlink:href="#DejaVuSans-20" x="1954.927734"/>
     <use xlink:href="#DejaVuSans-64" x="1986.714844"/>
     <use xlink:href="#DejaVuSans-61" x="2050.191406"/>
     <use xlink:href="#DejaVuSans-74" x="2111.470703"/>
     <use xlink:href="#DejaVuSans-61" x="2150.679688"/>
     <use xlink:href="#DejaVuSans-62" x="2211.958984"/>
     <use xlink:href="#DejaVuSans-61" x="2275.435547"/>
     <use xlink:href="#DejaVuSans-73" x="2336.714844"/>
     <use xlink:href="#DejaVuSans-65" x="2388.814453"/>
     <use xlink:href="#DejaVuSans-20" x="2450.337891"/>
     <use xlink:href="#DejaVuSans-69" x="2482.125"/>
     <use xlink:href="#DejaVuSans-6e" x="2509.908203"/>
     <use xlink:href="#DejaVuSans-20" x="2573.287109"/>
     <use xlink:href="#DejaVuSans-50" x="2605.074219"/>
     <use xlink:href="#DejaVuSans-6f" x="2661.751953"/>
     <use xlink:href="#DejaVuSans-6c" x="2722.933594"/>
     <use xlink:href="#DejaVuSans-61" x="2750.716797"/>
     <use xlink:href="#DejaVuSans-6e" x="2811.996094"/>
     <use xlink:href="#DejaVuSans-64" x="2875.375"/>
     <use xlink:href="#DejaVuSans-20" x="2938.851562"/>
     <use xlink:href="#DejaVuSans-66" x="2970.638672"/>
     <use xlink:href="#DejaVuSans-72" x="3005.84375"/>
     <use xlink:href="#DejaVuSans-6f" x="3044.707031"/>
     <use xlink:href="#DejaVuSans-6d" x="3105.888672"/>
     <use xlink:href="#DejaVuSans-20" x="3203.300781"/>
     <use xlink:href="#DejaVuSans-66" x="3235.087891"/>
     <use xlink:href="#DejaVuSans-69" x="3270.292969"/>
     <use xlink:href="#DejaVuSans-72" x="3298.076172"/>
     <use xlink:href="#DejaVuSans-73" x="3339.189453"/>
     <use xlink:href="#DejaVuSans-74" x="3391.289062"/>
     <use xlink:href="#DejaVuSans-20" x="3430.498047"/>
     <use xlink:href="#DejaVuSans-65" x="3462.285156"/>
     <use xlink:href="#DejaVuSans-64" x="3523.808594"/>
     <use xlink:href="#DejaVuSans-69" x="3587.285156"/>
     <use xlink:href="#DejaVuSans-74" x="3615.068359"/>
     <use xlink:href="#DejaVuSans-69" x="3654.277344"/>
     <use xlink:href="#DejaVuSans-6f" x="3682.060547"/>
     <use xlink:href="#DejaVuSans-6e" x="3743.242188"/>
     <use xlink:href="#DejaVuSans-2c" x="3806.621094"/>
     <use xlink:href="#DejaVuSans-20" x="3838.408203"/>
     <use xlink:href="#DejaVuSans-64" x="3870.195312"/>
     <use xlink:href="#DejaVuSans-61" x="3933.671875"/>
     <use xlink:href="#DejaVuSans-79" x="3994.951172"/>
     <use xlink:href="#DejaVuSans-20" x="4054.130859"/>
     <use xlink:href="#DejaVuSans-62" x="4085.917969"/>
     <use xlink:href="#DejaVuSans-79" x="4149.394531"/>
     <use xlink:href="#DejaVuSans-20" x="4208.574219"/>
     <use xlink:href="#DejaVuSans-64" x="4240.361328"/>
     <use xlink:href="#DejaVuSans-61" x="4303.837891"/>
     <use xlink:href="#DejaVuSans-79" x="4365.117188"/>
     <use xlink:href="#DejaVuSans-2e" x="4410.046875"/>
     <use xlink:href="#DejaVuSans-20" x="4441.833984"/>
     <use xlink:href="#DejaVuSans-41" x="4473.621094"/>
     <use xlink:href="#DejaVuSans-73" x="4542.029297"/>
     <use xlink:href="#DejaVuSans-20" x="4594.128906"/>
     <use xlink:href="#DejaVuSans-61" x="4625.916016"/>
     <use xlink:href="#DejaVuSans-74" x="4687.195312"/>
     <use xlink:href="#DejaVuSans-3a" x="4726.404297"/>
     <use xlink:href="#DejaVuSans-20" x="4760.095703"/>
     <use xlink:href="#DejaVuSans-32" x="4791.882812"/>
     <use xlink:href="#DejaVuSans-30" x="4855.505859"/>
     <use xlink:href="#DejaVuSans-32" x="4919.128906"/>
     <use xlink:href="#DejaVuSans-35" x="4982.751953"/>
     <use xlink:href="#DejaVuSans-2d" x="5046.375"/>
     <use xlink:href="#DejaVuSans-30" x="5082.458984"/>
     <use xlink:href="#DejaVuSans-34" x="5146.082031"/>
     <use xlink:href="#DejaVuSans-2d" x="5209.705078"/>
     <use xlink:href="#DejaVuSans-30" x="5245.789062"/>
     <use xlink:href="#DejaVuSans-31" x="5309.412109"/>
    </g>
   </g>
  </g>
 </g>
 <defs>
  <clipPath id="pc20313df7f">
   <rect x="144" y="69.12" width="892.8" height="443.52"/>
  </clipPath>
 </defs>
</svg>
