<?xml version="1.0" encoding="utf-8" standalone="no"?>
<!DOCTYPE svg PUBLIC "-//W3C//DTD SVG 1.1//EN"
  "http://www.w3.org/Graphics/SVG/1.1/DTD/svg11.dtd">
<svg xmlns:xlink="http://www.w3.org/1999/xlink" width="1152pt" height="576pt" viewBox="0 0 1152 576" xmlns="http://www.w3.org/2000/svg" version="1.1">
 <metadata>
  <rdf:RDF xmlns:dc="http://purl.org/dc/elements/1.1/" xmlns:cc="http://creativecommons.org/ns#" xmlns:rdf="http://www.w3.org/1999/02/22-rdf-syntax-ns#">
   <cc:Work>
    <dc:type rdf:resource="http://purl.org/dc/dcmitype/StillImage"/>
    <dc:date>1980-01-01T00:00:00+00:00</dc:date>
    <dc:format>image/svg+xml</dc:format>
    <dc:creator>
     <cc:Agent>
      <dc:title>Matplotlib v3.9.1, https://matplotlib.org/</dc:title>
     </cc:Agent>
    </dc:creator>
   </cc:Work>
  </rdf:RDF>
 </metadata>
 <defs>
  <style type="text/css">*{stroke-linejoin: round; stroke-linecap: butt}</style>
 </defs>
 <g id="figure_1">
  <g id="patch_1">
   <path d="M 0 576 
L 1152 576 
L 1152 0 
L 0 0 
z
" style="fill: #ffffff"/>
  </g>
  <g id="axes_1">
   <g id="patch_2">
    <path d="M 144 512.64 
L 1036.8 512.64 
L 1036.8 69.12 
L 144 69.12 
z
" style="fill: #ffffff"/>
   </g>
   <g id="matplotlib.axis_1">
    <g id="xtick_1">
     <g id="line2d_1">
      <defs>
       <path id="m34ee241566" d="M 0 0 
L 0 3.5 
" style="stroke: #000000; stroke-width: 0.8"/>
      </defs>
      <g>
       <use xlink:href="#m34ee241566" x="176.879456" y="512.64" style="stroke: #000000; stroke-width: 0.8"/>
      </g>
     </g>
     <g id="text_1">
      <!-- 2014 -->
      <g transform="translate(164.154456 527.238438) scale(0.1 -0.1)">
       <defs>
        <path id="DejaVuSans-32" d="M 1228 531 
L 3431 531 
L 3431 0 
L 469 0 
L 469 531 
Q 828 903 1448 1529 
Q 2069 2156 2228 2338 
Q 2531 2678 2651 2914 
Q 2772 3150 2772 3378 
Q 2772 3750 2511 3984 
Q 2250 4219 1831 4219 
Q 1534 4219 1204 4116 
Q 875 4013 500 3803 
L 500 4441 
Q 881 4594 1212 4672 
Q 1544 4750 1819 4750 
Q 2544 4750 2975 4387 
Q 3406 4025 3406 3419 
Q 3406 3131 3298 2873 
Q 3191 2616 2906 2266 
Q 2828 2175 2409 1742 
Q 1991 1309 1228 531 
z
" transform="scale(0.015625)"/>
        <path id="DejaVuSans-30" d="M 2034 4250 
Q 1547 4250 1301 3770 
Q 1056 3291 1056 2328 
Q 1056 1369 1301 889 
Q 1547 409 2034 409 
Q 2525 409 2770 889 
Q 3016 1369 3016 2328 
Q 3016 3291 2770 3770 
Q 2525 4250 2034 4250 
z
M 2034 4750 
Q 2819 4750 3233 4129 
Q 3647 3509 3647 2328 
Q 3647 1150 3233 529 
Q 2819 -91 2034 -91 
Q 1250 -91 836 529 
Q 422 1150 422 2328 
Q 422 3509 836 4129 
Q 1250 4750 2034 4750 
z
" transform="scale(0.015625)"/>
        <path id="DejaVuSans-31" d="M 794 531 
L 1825 531 
L 1825 4091 
L 703 3866 
L 703 4441 
L 1819 4666 
L 2450 4666 
L 2450 531 
L 3481 531 
L 3481 0 
L 794 0 
L 794 531 
z
" transform="scale(0.015625)"/>
        <path id="DejaVuSans-34" d="M 2419 4116 
L 825 1625 
L 2419 1625 
L 2419 4116 
z
M 2253 4666 
L 3047 4666 
L 3047 1625 
L 3713 1625 
L 3713 1100 
L 3047 1100 
L 3047 0 
L 2419 0 
L 2419 1100 
L 313 1100 
L 313 1709 
L 2253 4666 
z
" transform="scale(0.015625)"/>
       </defs>
       <use xlink:href="#DejaVuSans-32"/>
       <use xlink:href="#DejaVuSans-30" x="63.623047"/>
       <use xlink:href="#DejaVuSans-31" x="127.246094"/>
       <use xlink:href="#DejaVuSans-34" x="190.869141"/>
      </g>
     </g>
    </g>
    <g id="xtick_2">
     <g id="line2d_2">
      <g>
       <use xlink:href="#m34ee241566" x="317.447557" y="512.64" style="stroke: #000000; stroke-width: 0.8"/>
      </g>
     </g>
     <g id="text_2">
      <!-- 2016 -->
      <g transform="translate(304.722557 527.238438) scale(0.1 -0.1)">
       <defs>
        <path id="DejaVuSans-36" d="M 2113 2584 
Q 1688 2584 1439 2293 
Q 1191 2003 1191 1497 
Q 1191 994 1439 701 
Q 1688 409 2113 409 
Q 2538 409 2786 701 
Q 3034 994 3034 1497 
Q 3034 2003 2786 2293 
Q 2538 2584 2113 2584 
z
M 3366 4563 
L 3366 3988 
Q 3128 4100 2886 4159 
Q 2644 4219 2406 4219 
Q 1781 4219 1451 3797 
Q 1122 3375 1075 2522 
Q 1259 2794 1537 2939 
Q 1816 3084 2150 3084 
Q 2853 3084 3261 2657 
Q 3669 2231 3669 1497 
Q 3669 778 3244 343 
Q 2819 -91 2113 -91 
Q 1303 -91 875 529 
Q 447 1150 447 2328 
Q 447 3434 972 4092 
Q 1497 4750 2381 4750 
Q 2619 4750 2861 4703 
Q 3103 4656 3366 4563 
z
" transform="scale(0.015625)"/>
       </defs>
       <use xlink:href="#DejaVuSans-32"/>
       <use xlink:href="#DejaVuSans-30" x="63.623047"/>
       <use xlink:href="#DejaVuSans-31" x="127.246094"/>
       <use xlink:href="#DejaVuSans-36" x="190.869141"/>
      </g>
     </g>
    </g>
    <g id="xtick_3">
     <g id="line2d_3">
      <g>
       <use xlink:href="#m34ee241566" x="458.208217" y="512.64" style="stroke: #000000; stroke-width: 0.8"/>
      </g>
     </g>
     <g id="text_3">
      <!-- 2018 -->
      <g transform="translate(445.483217 527.238438) scale(0.1 -0.1)">
       <defs>
        <path id="DejaVuSans-38" d="M 2034 2216 
Q 1584 2216 1326 1975 
Q 1069 1734 1069 1313 
Q 1069 891 1326 650 
Q 1584 409 2034 409 
Q 2484 409 2743 651 
Q 3003 894 3003 1313 
Q 3003 1734 2745 1975 
Q 2488 2216 2034 2216 
z
M 1403 2484 
Q 997 2584 770 2862 
Q 544 3141 544 3541 
Q 544 4100 942 4425 
Q 1341 4750 2034 4750 
Q 2731 4750 3128 4425 
Q 3525 4100 3525 3541 
Q 3525 3141 3298 2862 
Q 3072 2584 2669 2484 
Q 3125 2378 3379 2068 
Q 3634 1759 3634 1313 
Q 3634 634 3220 271 
Q 2806 -91 2034 -91 
Q 1263 -91 848 271 
Q 434 634 434 1313 
Q 434 1759 690 2068 
Q 947 2378 1403 2484 
z
M 1172 3481 
Q 1172 3119 1398 2916 
Q 1625 2713 2034 2713 
Q 2441 2713 2670 2916 
Q 2900 3119 2900 3481 
Q 2900 3844 2670 4047 
Q 2441 4250 2034 4250 
Q 1625 4250 1398 4047 
Q 1172 3844 1172 3481 
z
" transform="scale(0.015625)"/>
       </defs>
       <use xlink:href="#DejaVuSans-32"/>
       <use xlink:href="#DejaVuSans-30" x="63.623047"/>
       <use xlink:href="#DejaVuSans-31" x="127.246094"/>
       <use xlink:href="#DejaVuSans-38" x="190.869141"/>
      </g>
     </g>
    </g>
    <g id="xtick_4">
     <g id="line2d_4">
      <g>
       <use xlink:href="#m34ee241566" x="598.776318" y="512.64" style="stroke: #000000; stroke-width: 0.8"/>
      </g>
     </g>
     <g id="text_4">
      <!-- 2020 -->
      <g transform="translate(586.051318 527.238438) scale(0.1 -0.1)">
       <use xlink:href="#DejaVuSans-32"/>
       <use xlink:href="#DejaVuSans-30" x="63.623047"/>
       <use xlink:href="#DejaVuSans-32" x="127.246094"/>
       <use xlink:href="#DejaVuSans-30" x="190.869141"/>
      </g>
     </g>
    </g>
    <g id="xtick_5">
     <g id="line2d_5">
      <g>
       <use xlink:href="#m34ee241566" x="739.536978" y="512.64" style="stroke: #000000; stroke-width: 0.8"/>
      </g>
     </g>
     <g id="text_5">
      <!-- 2022 -->
      <g transform="translate(726.811978 527.238438) scale(0.1 -0.1)">
       <use xlink:href="#DejaVuSans-32"/>
       <use xlink:href="#DejaVuSans-30" x="63.623047"/>
       <use xlink:href="#DejaVuSans-32" x="127.246094"/>
       <use xlink:href="#DejaVuSans-32" x="190.869141"/>
      </g>
     </g>
    </g>
    <g id="xtick_6">
     <g id="line2d_6">
      <g>
       <use xlink:href="#m34ee241566" x="880.105079" y="512.64" style="stroke: #000000; stroke-width: 0.8"/>
      </g>
     </g>
     <g id="text_6">
      <!-- 2024 -->
      <g transform="translate(867.380079 527.238438) scale(0.1 -0.1)">
       <use xlink:href="#DejaVuSans-32"/>
       <use xlink:href="#DejaVuSans-30" x="63.623047"/>
       <use xlink:href="#DejaVuSans-32" x="127.246094"/>
       <use xlink:href="#DejaVuSans-34" x="190.869141"/>
      </g>
     </g>
    </g>
    <g id="xtick_7">
     <g id="line2d_7">
      <g>
       <use xlink:href="#m34ee241566" x="1020.865739" y="512.64" style="stroke: #000000; stroke-width: 0.8"/>
      </g>
     </g>
     <g id="text_7">
      <!-- 2026 -->
      <g transform="translate(1008.140739 527.238438) scale(0.1 -0.1)">
       <use xlink:href="#DejaVuSans-32"/>
       <use xlink:href="#DejaVuSans-30" x="63.623047"/>
       <use xlink:href="#DejaVuSans-32" x="127.246094"/>
       <use xlink:href="#DejaVuSans-36" x="190.869141"/>
      </g>
     </g>
    </g>
   </g>
   <g id="matplotlib.axis_2">
    <g id="ytick_1">
     <g id="line2d_8">
      <defs>
       <path id="mf4607d79e2" d="M 0 0 
L -3.5 0 
" style="stroke: #000000; stroke-width: 0.8"/>
      </defs>
      <g>
       <use xlink:href="#mf4607d79e2" x="144" y="492.514239" style="stroke: #000000; stroke-width: 0.8"/>
      </g>
     </g>
     <g id="text_8">
      <!-- 0 -->
      <g transform="translate(130.6375 496.313458) scale(0.1 -0.1)">
       <use xlink:href="#DejaVuSans-30"/>
      </g>
     </g>
    </g>
    <g id="ytick_2">
     <g id="line2d_9">
      <g>
       <use xlink:href="#mf4607d79e2" x="144" y="424.035978" style="stroke: #000000; stroke-width: 0.8"/>
      </g>
     </g>
     <g id="text_9">
      <!-- 2000 -->
      <g transform="translate(111.55 427.835197) scale(0.1 -0.1)">
       <use xlink:href="#DejaVuSans-32"/>
       <use xlink:href="#DejaVuSans-30" x="63.623047"/>
       <use xlink:href="#DejaVuSans-30" x="127.246094"/>
       <use xlink:href="#DejaVuSans-30" x="190.869141"/>
      </g>
     </g>
    </g>
    <g id="ytick_3">
     <g id="line2d_10">
      <g>
       <use xlink:href="#mf4607d79e2" x="144" y="355.557717" style="stroke: #000000; stroke-width: 0.8"/>
      </g>
     </g>
     <g id="text_10">
      <!-- 4000 -->
      <g transform="translate(111.55 359.356936) scale(0.1 -0.1)">
       <use xlink:href="#DejaVuSans-34"/>
       <use xlink:href="#DejaVuSans-30" x="63.623047"/>
       <use xlink:href="#DejaVuSans-30" x="127.246094"/>
       <use xlink:href="#DejaVuSans-30" x="190.869141"/>
      </g>
     </g>
    </g>
    <g id="ytick_4">
     <g id="line2d_11">
      <g>
       <use xlink:href="#mf4607d79e2" x="144" y="287.079457" style="stroke: #000000; stroke-width: 0.8"/>
      </g>
     </g>
     <g id="text_11">
      <!-- 6000 -->
      <g transform="translate(111.55 290.878675) scale(0.1 -0.1)">
       <use xlink:href="#DejaVuSans-36"/>
       <use xlink:href="#DejaVuSans-30" x="63.623047"/>
       <use xlink:href="#DejaVuSans-30" x="127.246094"/>
       <use xlink:href="#DejaVuSans-30" x="190.869141"/>
      </g>
     </g>
    </g>
    <g id="ytick_5">
     <g id="line2d_12">
      <g>
       <use xlink:href="#mf4607d79e2" x="144" y="218.601196" style="stroke: #000000; stroke-width: 0.8"/>
      </g>
     </g>
     <g id="text_12">
      <!-- 8000 -->
      <g transform="translate(111.55 222.400414) scale(0.1 -0.1)">
       <use xlink:href="#DejaVuSans-38"/>
       <use xlink:href="#DejaVuSans-30" x="63.623047"/>
       <use xlink:href="#DejaVuSans-30" x="127.246094"/>
       <use xlink:href="#DejaVuSans-30" x="190.869141"/>
      </g>
     </g>
    </g>
    <g id="ytick_6">
     <g id="line2d_13">
      <g>
       <use xlink:href="#mf4607d79e2" x="144" y="150.122935" style="stroke: #000000; stroke-width: 0.8"/>
      </g>
     </g>
     <g id="text_13">
      <!-- 10000 -->
      <g transform="translate(105.1875 153.922154) scale(0.1 -0.1)">
       <use xlink:href="#DejaVuSans-31"/>
       <use xlink:href="#DejaVuSans-30" x="63.623047"/>
       <use xlink:href="#DejaVuSans-30" x="127.246094"/>
       <use xlink:href="#DejaVuSans-30" x="190.869141"/>
       <use xlink:href="#DejaVuSans-30" x="254.492188"/>
      </g>
     </g>
    </g>
    <g id="ytick_7">
     <g id="line2d_14">
      <g>
       <use xlink:href="#mf4607d79e2" x="144" y="81.644674" style="stroke: #000000; stroke-width: 0.8"/>
      </g>
     </g>
     <g id="text_14">
      <!-- 12000 -->
      <g transform="translate(105.1875 85.443893) scale(0.1 -0.1)">
       <use xlink:href="#DejaVuSans-31"/>
       <use xlink:href="#DejaVuSans-32" x="63.623047"/>
       <use xlink:href="#DejaVuSans-30" x="127.246094"/>
       <use xlink:href="#DejaVuSans-30" x="190.869141"/>
       <use xlink:href="#DejaVuSans-30" x="254.492188"/>
      </g>
     </g>
    </g>
   </g>
   <g id="line2d_15">
    <path d="M 184.581818 492.48 
L 186.31485 492.411522 
L 306.664251 492.206087 
L 447.61747 492.034891 
L 499.99353 491.829457 
L 513.665222 491.726739 
L 546.400259 491.555543 
L 547.940731 491.487065 
L 556.798447 491.384348 
L 598.968877 491.178913 
L 605.130767 491.110435 
L 605.515885 490.836522 
L 609.559625 490.665326 
L 643.450016 490.52837 
L 647.301197 490.425652 
L 663.091038 490.254457 
L 682.346943 490.083261 
L 691.397218 489.809348 
L 699.099579 489.638152 
L 701.987965 489.432717 
L 703.335878 489.261522 
L 710.845681 489.056087 
L 714.889421 488.91913 
L 721.243869 488.474022 
L 731.25694 488.234348 
L 737.22627 486.55663 
L 737.803947 486.522391 
L 738.574183 485.974565 
L 738.766742 485.118587 
L 739.15186 484.913152 
L 739.344419 484.878913 
L 739.536978 483.714783 
L 740.692333 483.235435 
L 741.077451 482.65337 
L 741.462569 482.413696 
L 741.655128 481.900109 
L 741.847687 480.907174 
L 742.040246 480.564783 
L 742.425364 478.750109 
L 742.617923 476.764239 
L 743.003041 475.360435 
L 743.1956 475.086522 
L 743.388159 470.498478 
L 743.580718 468.649565 
L 743.773277 467.964783 
L 743.965836 464.677826 
L 744.543513 460.877283 
L 744.736072 460.774565 
L 745.121191 458.822935 
L 745.31375 458.172391 
L 745.506309 453.207717 
L 745.698868 452.762609 
L 746.083986 451.11913 
L 746.276545 451.016413 
L 746.469104 450.160435 
L 746.661663 446.633804 
L 746.854222 445.743587 
L 747.046781 445.675109 
L 747.23934 443.107174 
L 747.431899 442.593587 
L 747.817017 442.422391 
L 748.587253 439.820217 
L 748.972371 439.135435 
L 749.357489 437.115326 
L 749.550049 436.327826 
L 749.935167 430.918043 
L 750.512844 428.247391 
L 751.28308 427.836522 
L 752.053316 426.432717 
L 752.438434 426.295761 
L 752.823552 423.351196 
L 753.016111 423.316957 
L 753.401229 422.837609 
L 753.593788 421.399565 
L 753.786347 420.988696 
L 753.978907 420.851739 
L 754.171466 420.543587 
L 754.364025 419.961522 
L 754.941702 419.721848 
L 755.134261 419.482174 
L 755.711938 417.325109 
L 755.904497 417.188152 
L 756.289615 416.640326 
L 757.059851 416.263696 
L 757.25241 414.859891 
L 757.444969 414.757174 
L 757.637528 414.5175 
L 757.830087 411.846848 
L 758.215205 411.74413 
L 758.600324 411.025109 
L 758.792883 410.340326 
L 759.37056 410.20337 
L 759.948237 409.141957 
L 760.140796 409.107717 
L 760.525914 408.525652 
L 760.911032 408.388696 
L 761.103591 405.272935 
L 762.258945 404.999022 
L 762.644063 404.725109 
L 763.4143 404.622391 
L 763.606859 404.451196 
L 765.917567 403.766413 
L 766.687803 403.218587 
L 767.650599 403.08163 
L 768.035717 402.807717 
L 768.420835 402.670761 
L 770.346425 402.157174 
L 771.116661 399.246848 
L 772.079456 399.109891 
L 772.272016 399.041413 
L 773.812488 398.870217 
L 774.390165 398.664783 
L 774.582724 398.116957 
L 775.545519 398.048478 
L 776.123196 397.740326 
L 777.085992 397.397935 
L 777.278551 397.363696 
L 777.663669 396.987065 
L 778.048787 396.884348 
L 778.241346 396.644674 
L 779.011582 396.370761 
L 779.974377 396.268043 
L 780.166936 396.02837 
L 780.552054 395.99413 
L 780.744613 395.446304 
L 780.937172 395.377826 
L 781.129731 394.590326 
L 783.44044 394.076739 
L 784.018117 393.939783 
L 784.210676 393.528913 
L 785.558589 393.186522 
L 786.136267 392.981087 
L 786.906503 392.809891 
L 787.676739 392.604457 
L 788.639534 392.399022 
L 789.217211 392.227826 
L 790.565125 391.440326 
L 790.757684 390.755543 
L 791.720479 389.968043 
L 791.913038 389.659891 
L 792.875833 388.838152 
L 793.260951 388.11913 
L 793.45351 388.084891 
L 793.838628 387.194674 
L 794.608864 386.304457 
L 795.186542 386.201739 
L 795.379101 385.893587 
L 795.764219 385.722391 
L 795.956778 385.38 
L 796.919573 385.140326 
L 797.112132 384.832174 
L 798.460045 384.524022 
L 798.845163 384.352826 
L 799.037722 384.318587 
L 799.230281 384.147391 
L 800.193077 384.010435 
L 801.54099 383.39413 
L 802.118667 383.257174 
L 802.503785 382.503913 
L 802.888903 382.264239 
L 803.851698 381.510978 
L 804.044258 380.723478 
L 804.814494 380.483804 
L 805.969848 380.107174 
L 806.354966 379.525109 
L 807.317761 378.977283 
L 807.51032 378.634891 
L 808.087997 378.429457 
L 808.473115 378.121304 
L 809.050793 377.88163 
L 809.435911 374.046848 
L 809.62847 372.814239 
L 809.821029 370.691413 
L 810.013588 370.4175 
L 810.783824 367.781087 
L 811.168942 367.096304 
L 811.361501 366.993587 
L 811.55406 366.753913 
L 811.746619 366.308804 
L 811.939178 364.768043 
L 812.131737 364.391413 
L 812.516855 364.254457 
L 813.67221 361.926196 
L 813.864769 361.755 
L 814.057328 360.830543 
L 814.249887 360.488152 
L 814.635005 359.597935 
L 815.020123 359.050109 
L 815.790359 358.605 
L 815.982918 358.399565 
L 816.175477 357.303913 
L 816.560595 357.132717 
L 816.945713 356.756087 
L 817.52339 355.968587 
L 817.71595 355.249565 
L 817.908509 355.215326 
L 818.486186 354.530543 
L 818.871304 354.496304 
L 819.063863 354.153913 
L 819.448981 353.948478 
L 820.411776 352.887065 
L 820.604335 352.305 
L 822.144808 350.832717 
L 822.529926 349.497391 
L 823.68528 348.915326 
L 824.262957 348.025109 
L 825.418311 346.38163 
L 826.188547 346.210435 
L 826.381106 346.176196 
L 826.958784 345.080543 
L 827.72902 344.84087 
L 828.499256 343.950652 
L 828.884374 343.882174 
L 829.269492 343.471304 
L 829.847169 343.23163 
L 830.232287 343.197391 
L 830.424846 342.991957 
L 830.617405 342.375652 
L 831.387642 342.135978 
L 831.580201 341.793587 
L 831.77276 341.759348 
L 831.965319 341.143043 
L 832.542996 340.90337 
L 833.120673 340.766413 
L 833.505791 340.424022 
L 834.468586 339.978913 
L 834.853704 339.670761 
L 835.238822 339.431087 
L 835.62394 339.396848 
L 835.8165 338.472391 
L 836.201618 338.164239 
L 836.779295 337.890326 
L 837.356972 337.547935 
L 838.127208 337.410978 
L 838.319767 336.452283 
L 839.66768 335.801739 
L 839.860239 335.7675 
L 840.052798 335.596304 
L 840.437917 335.527826 
L 840.630476 335.219674 
L 841.400712 334.911522 
L 841.593271 334.534891 
L 841.978389 334.500652 
L 842.363507 334.260978 
L 842.941184 333.952826 
L 843.133743 333.473478 
L 843.903979 333.096848 
L 844.096538 332.822935 
L 844.674215 332.514783 
L 845.251893 332.24087 
L 845.444452 331.932717 
L 845.637011 331.898478 
L 846.022129 331.624565 
L 846.407247 331.45337 
L 846.599806 331.247935 
L 847.75516 330.905543 
L 847.947719 330.528913 
L 848.140278 330.426196 
L 849.103073 330.186522 
L 849.488192 329.87837 
L 849.87331 329.741413 
L 850.450987 329.570217 
L 850.643546 329.262065 
L 851.028664 329.193587 
L 851.221223 328.577283 
L 851.413782 328.474565 
L 851.7989 328.029457 
L 851.991459 327.002283 
L 852.376577 326.762609 
L 852.569136 326.625652 
L 852.761695 326.351739 
L 853.146813 326.112065 
L 853.917049 325.427283 
L 854.302168 325.256087 
L 854.494727 324.845217 
L 854.687286 324.776739 
L 855.072404 324.36587 
L 855.457522 324.126196 
L 856.035199 323.955 
L 856.420317 323.509891 
L 858.538467 321.695217 
L 859.501262 321.455543 
L 860.656616 320.257174 
L 861.041734 320.085978 
L 862.582206 319.469674 
L 863.352443 318.990326 
L 864.122679 318.647935 
L 864.507797 318.4425 
L 866.625946 317.586522 
L 867.011064 317.346848 
L 867.203623 317.312609 
L 867.396182 316.970217 
L 868.744096 316.422391 
L 869.321773 316.045761 
L 869.89945 315.771848 
L 870.092009 315.566413 
L 870.862245 315.360978 
L 871.054804 314.91587 
L 871.247363 313.409348 
L 871.632481 313.032717 
L 871.82504 312.998478 
L 872.980395 311.491957 
L 873.365513 310.464783 
L 873.750631 310.122391 
L 874.135749 309.882717 
L 874.520867 309.78 
L 874.713426 309.506087 
L 875.098544 309.300652 
L 875.483662 308.958261 
L 875.86878 308.787065 
L 876.061339 308.718587 
L 876.446457 308.307717 
L 876.639016 308.273478 
L 876.831576 307.862609 
L 877.409253 307.657174 
L 877.794371 307.143587 
L 878.372048 306.698478 
L 878.757166 306.321848 
L 879.334843 306.25337 
L 879.527402 305.945217 
L 880.105079 305.774022 
L 880.490197 304.2675 
L 880.875315 303.925109 
L 881.645552 303.651196 
L 882.03067 303.377283 
L 882.223229 302.863696 
L 882.608347 302.726739 
L 882.800906 302.247391 
L 882.993465 302.144674 
L 883.378583 301.733804 
L 883.571142 301.52837 
L 884.148819 301.322935 
L 884.533937 301.014783 
L 884.726496 300.980543 
L 884.919055 300.775109 
L 885.111614 300.74087 
L 885.881851 300.261522 
L 886.266969 299.405543 
L 886.459528 299.302826 
L 886.844646 299.234348 
L 887.037205 298.857717 
L 887.422323 298.686522 
L 887.807441 298.481087 
L 888 297.864783 
L 888.770236 297.419674 
L 888.962795 296.80337 
L 889.733031 296.152826 
L 889.92559 296.118587 
L 890.310709 295.605 
L 890.695827 295.296848 
L 890.888386 295.22837 
L 891.080945 294.885978 
L 891.466063 294.749022 
L 891.658622 294.098478 
L 892.04374 293.995761 
L 892.236299 293.687609 
L 892.428858 293.61913 
L 892.621417 292.900109 
L 893.006535 292.797391 
L 893.391653 292.557717 
L 893.776771 292.009891 
L 893.96933 291.872935 
L 894.739566 290.743043 
L 894.932126 290.674565 
L 895.317244 290.263696 
L 896.08748 289.71587 
L 896.665157 289.441957 
L 898.398188 287.73 
L 898.783306 287.593043 
L 899.168424 287.182174 
L 899.553543 287.079457 
L 899.746102 286.291957 
L 900.323779 285.74413 
L 900.516338 285.059348 
L 900.901456 284.682717 
L 901.094015 284.340326 
L 901.286574 284.306087 
L 902.249369 283.41587 
L 902.827046 283.073478 
L 903.212164 282.765326 
L 904.367519 282.2175 
L 905.137755 281.087609 
L 905.522873 280.950652 
L 905.715432 280.6425 
L 905.907991 280.574022 
L 906.10055 280.334348 
L 906.293109 280.300109 
L 906.485668 279.923478 
L 907.255904 279.409891 
L 907.833581 278.964783 
L 908.603818 278.588152 
L 909.181495 278.108804 
L 909.759172 277.834891 
L 909.951731 277.526739 
L 910.336849 277.458261 
L 910.914526 276.910435 
L 911.107085 276.602283 
L 911.684762 276.32837 
L 912.06988 276.020217 
L 912.647557 275.849022 
L 913.032676 275.438152 
L 913.417794 275.301196 
L 913.802912 275.164239 
L 914.18803 274.684891 
L 914.958266 274.3425 
L 915.150825 272.7675 
L 916.11362 272.082717 
L 916.883856 270.713152 
L 917.076415 270.610435 
L 917.268974 270.165326 
L 917.654093 270.02837 
L 918.424329 268.864239 
L 918.809447 267.255 
L 919.002006 266.741413 
L 919.387124 264.173478 
L 919.579683 263.146304 
L 920.542478 261.913696 
L 921.312714 258.866413 
L 921.505273 258.695217 
L 921.697832 258.21587 
L 921.890391 256.572391 
L 922.082951 255.956087 
L 922.27551 255.887609 
L 922.468069 255.134348 
L 923.045746 254.655 
L 923.430864 253.353913 
L 924.393659 252.840326 
L 924.778777 252.429457 
L 925.356454 252.121304 
L 925.549013 252.018587 
L 925.934131 251.607717 
L 926.12669 251.231087 
L 926.319249 250.272391 
L 926.511808 249.895761 
L 926.896927 249.758804 
L 927.282045 249.587609 
L 927.667163 249.313696 
L 928.052281 249.074022 
L 928.822517 248.834348 
L 929.207635 248.594674 
L 929.400194 248.457717 
L 929.785312 248.423478 
L 932.28858 246.129457 
L 932.673698 246.026739 
L 933.058816 245.787065 
L 933.251375 245.684348 
L 933.443934 244.862609 
L 934.021611 244.314783 
L 934.406729 244.212065 
L 935.562083 243.287609 
L 935.947202 243.116413 
L 936.139761 243.047935 
L 936.524879 242.637065 
L 936.909997 242.534348 
L 937.102556 242.055 
L 937.295115 241.883804 
L 937.487674 241.335978 
L 937.872792 241.096304 
L 938.450469 239.829457 
L 938.643028 239.144674 
L 939.220705 238.733804 
L 939.798382 237.980543 
L 940.1835 236.645217 
L 940.37606 236.234348 
L 940.568619 235.515326 
L 940.761178 235.446848 
L 940.953737 234.864783 
L 941.338855 234.625109 
L 942.494209 233.460978 
L 942.686768 232.98163 
L 943.264445 232.707717 
L 943.457004 232.22837 
L 944.612358 231.749022 
L 944.804918 231.03 
L 945.190036 230.790326 
L 945.382595 230.345217 
L 945.575154 230.208261 
L 945.960272 230.174022 
L 947.115626 229.283804 
L 947.693303 228.838696 
L 948.078421 228.393587 
L 948.463539 228.051196 
L 948.656098 227.708804 
L 948.848657 226.955543 
L 950.004012 226.305 
L 950.38913 225.483261 
L 950.774248 225.346304 
L 950.966807 224.832717 
L 951.159366 224.764239 
L 951.544484 224.147935 
L 953.277515 222.949565 
L 954.625429 221.374565 
L 954.817988 220.895217 
L 955.010547 220.073478 
L 955.395665 219.422935 
L 955.588224 219.012065 
L 956.551019 214.047391 
L 956.936137 213.32837 
L 957.128696 211.479457 
L 957.321255 207.918587 
L 957.513814 206.514783 
L 957.706373 204.255 
L 957.898932 203.672935 
L 958.28405 201.105 
L 958.669169 197.612609 
L 959.054287 192.921848 
L 959.439405 192.202826 
L 959.824523 186.1425 
L 960.017082 184.533261 
L 960.4022 177.616957 
L 960.594759 176.6925 
L 960.787318 176.31587 
L 960.979877 172.823478 
L 961.172436 172.035978 
L 961.557554 168.201196 
L 961.942672 157.895217 
L 962.32779 156.285978 
L 962.520349 153.0675 
L 962.712908 152.759348 
L 963.098027 147.555 
L 963.290586 147.452283 
L 963.483145 147.109891 
L 963.868263 145.877283 
L 964.060822 145.637609 
L 964.253381 145.055543 
L 964.44594 143.959891 
L 964.831058 143.754457 
L 965.023617 143.20663 
L 965.408735 141.494674 
L 965.793853 138.207717 
L 965.986412 137.522935 
L 966.178971 137.454457 
L 966.37153 137.146304 
L 967.334325 134.235978 
L 967.526885 134.133261 
L 967.719444 133.448478 
L 968.104562 133.106087 
L 968.297121 132.96913 
L 968.48968 132.455543 
L 968.682239 132.284348 
L 969.259916 131.462609 
L 969.837593 130.60663 
L 970.222711 130.469674 
L 971.185506 129.202826 
L 971.570624 129.03163 
L 972.148302 128.963152 
L 972.53342 128.449565 
L 972.918538 128.346848 
L 973.496215 127.696304 
L 974.266451 127.251196 
L 975.036687 126.2925 
L 975.229246 125.778913 
L 975.999482 125.539239 
L 976.3846 125.196848 
L 976.769719 124.546304 
L 977.154837 124.238152 
L 977.347396 123.998478 
L 977.732514 122.594674 
L 977.925073 122.355 
L 978.50275 122.115326 
L 978.887868 121.807174 
L 979.272986 121.430543 
L 979.658104 121.122391 
L 980.235781 120.643043 
L 980.42834 120.471848 
L 980.620899 119.650109 
L 981.198577 119.239239 
L 981.968813 118.314783 
L 982.54649 117.835435 
L 983.124167 117.321848 
L 983.509285 117.116413 
L 983.894403 116.808261 
L 984.47208 116.602826 
L 984.857198 115.404457 
L 985.049757 115.301739 
L 985.434875 114.719674 
L 986.205112 113.795217 
L 986.397671 113.6925 
L 986.975348 112.665326 
L 987.167907 111.74087 
L 987.360466 111.432717 
L 987.745584 111.295761 
L 987.938143 110.884891 
L 989.671174 109.549565 
L 990.056292 108.796304 
L 990.248852 108.693587 
L 990.441411 104.550652 
L 990.826529 103.86587 
L 991.211647 103.318043 
L 991.404206 102.872935 
L 991.596765 102.838696 
L 991.981883 102.25663 
L 992.174442 101.537609 
L 993.329796 99.996848 
L 993.522355 99.551739 
L 993.907473 97.155 
L 994.100032 96.435978 
L 994.292591 95.271848 
L 994.48515 94.963696 
L 994.677709 92.943587 
L 995.062828 91.676739 
L 995.255387 90.649565 
L 996.218182 89.28 
L 996.218182 89.28 
" clip-path="url(#pf1999ecc03)" style="fill: none; stroke: #1f77b4; stroke-width: 1.5; stroke-linecap: square"/>
   </g>
   <g id="patch_3">
    <path d="M 144 512.64 
L 144 69.12 
" style="fill: none; stroke: #000000; stroke-width: 0.8; stroke-linejoin: miter; stroke-linecap: square"/>
   </g>
   <g id="patch_4">
    <path d="M 1036.8 512.64 
L 1036.8 69.12 
" style="fill: none; stroke: #000000; stroke-width: 0.8; stroke-linejoin: miter; stroke-linecap: square"/>
   </g>
   <g id="patch_5">
    <path d="M 144 512.64 
L 1036.8 512.64 
" style="fill: none; stroke: #000000; stroke-width: 0.8; stroke-linejoin: miter; stroke-linecap: square"/>
   </g>
   <g id="patch_6">
    <path d="M 144 69.12 
L 1036.8 69.12 
" style="fill: none; stroke: #000000; stroke-width: 0.8; stroke-linejoin: miter; stroke-linecap: square"/>
   </g>
   <g id="text_15">
    <!-- Number of AEDs in the OpenStreetMap database in Poland from first edition, day by day. As at: 2025-08-26 -->
    <g transform="translate(144 63.12) scale(0.14 -0.14)">
     <defs>
      <path id="DejaVuSans-4e" d="M 628 4666 
L 1478 4666 
L 3547 763 
L 3547 4666 
L 4159 4666 
L 4159 0 
L 3309 0 
L 1241 3903 
L 1241 0 
L 628 0 
L 628 4666 
z
" transform="scale(0.015625)"/>
      <path id="DejaVuSans-75" d="M 544 1381 
L 544 3500 
L 1119 3500 
L 1119 1403 
Q 1119 906 1312 657 
Q 1506 409 1894 409 
Q 2359 409 2629 706 
Q 2900 1003 2900 1516 
L 2900 3500 
L 3475 3500 
L 3475 0 
L 2900 0 
L 2900 538 
Q 2691 219 2414 64 
Q 2138 -91 1772 -91 
Q 1169 -91 856 284 
Q 544 659 544 1381 
z
M 1991 3584 
L 1991 3584 
z
" transform="scale(0.015625)"/>
      <path id="DejaVuSans-6d" d="M 3328 2828 
Q 3544 3216 3844 3400 
Q 4144 3584 4550 3584 
Q 5097 3584 5394 3201 
Q 5691 2819 5691 2113 
L 5691 0 
L 5113 0 
L 5113 2094 
Q 5113 2597 4934 2840 
Q 4756 3084 4391 3084 
Q 3944 3084 3684 2787 
Q 3425 2491 3425 1978 
L 3425 0 
L 2847 0 
L 2847 2094 
Q 2847 2600 2669 2842 
Q 2491 3084 2119 3084 
Q 1678 3084 1418 2786 
Q 1159 2488 1159 1978 
L 1159 0 
L 581 0 
L 581 3500 
L 1159 3500 
L 1159 2956 
Q 1356 3278 1631 3431 
Q 1906 3584 2284 3584 
Q 2666 3584 2933 3390 
Q 3200 3197 3328 2828 
z
" transform="scale(0.015625)"/>
      <path id="DejaVuSans-62" d="M 3116 1747 
Q 3116 2381 2855 2742 
Q 2594 3103 2138 3103 
Q 1681 3103 1420 2742 
Q 1159 2381 1159 1747 
Q 1159 1113 1420 752 
Q 1681 391 2138 391 
Q 2594 391 2855 752 
Q 3116 1113 3116 1747 
z
M 1159 2969 
Q 1341 3281 1617 3432 
Q 1894 3584 2278 3584 
Q 2916 3584 3314 3078 
Q 3713 2572 3713 1747 
Q 3713 922 3314 415 
Q 2916 -91 2278 -91 
Q 1894 -91 1617 61 
Q 1341 213 1159 525 
L 1159 0 
L 581 0 
L 581 4863 
L 1159 4863 
L 1159 2969 
z
" transform="scale(0.015625)"/>
      <path id="DejaVuSans-65" d="M 3597 1894 
L 3597 1613 
L 953 1613 
Q 991 1019 1311 708 
Q 1631 397 2203 397 
Q 2534 397 2845 478 
Q 3156 559 3463 722 
L 3463 178 
Q 3153 47 2828 -22 
Q 2503 -91 2169 -91 
Q 1331 -91 842 396 
Q 353 884 353 1716 
Q 353 2575 817 3079 
Q 1281 3584 2069 3584 
Q 2775 3584 3186 3129 
Q 3597 2675 3597 1894 
z
M 3022 2063 
Q 3016 2534 2758 2815 
Q 2500 3097 2075 3097 
Q 1594 3097 1305 2825 
Q 1016 2553 972 2059 
L 3022 2063 
z
" transform="scale(0.015625)"/>
      <path id="DejaVuSans-72" d="M 2631 2963 
Q 2534 3019 2420 3045 
Q 2306 3072 2169 3072 
Q 1681 3072 1420 2755 
Q 1159 2438 1159 1844 
L 1159 0 
L 581 0 
L 581 3500 
L 1159 3500 
L 1159 2956 
Q 1341 3275 1631 3429 
Q 1922 3584 2338 3584 
Q 2397 3584 2469 3576 
Q 2541 3569 2628 3553 
L 2631 2963 
z
" transform="scale(0.015625)"/>
      <path id="DejaVuSans-20" transform="scale(0.015625)"/>
      <path id="DejaVuSans-6f" d="M 1959 3097 
Q 1497 3097 1228 2736 
Q 959 2375 959 1747 
Q 959 1119 1226 758 
Q 1494 397 1959 397 
Q 2419 397 2687 759 
Q 2956 1122 2956 1747 
Q 2956 2369 2687 2733 
Q 2419 3097 1959 3097 
z
M 1959 3584 
Q 2709 3584 3137 3096 
Q 3566 2609 3566 1747 
Q 3566 888 3137 398 
Q 2709 -91 1959 -91 
Q 1206 -91 779 398 
Q 353 888 353 1747 
Q 353 2609 779 3096 
Q 1206 3584 1959 3584 
z
" transform="scale(0.015625)"/>
      <path id="DejaVuSans-66" d="M 2375 4863 
L 2375 4384 
L 1825 4384 
Q 1516 4384 1395 4259 
Q 1275 4134 1275 3809 
L 1275 3500 
L 2222 3500 
L 2222 3053 
L 1275 3053 
L 1275 0 
L 697 0 
L 697 3053 
L 147 3053 
L 147 3500 
L 697 3500 
L 697 3744 
Q 697 4328 969 4595 
Q 1241 4863 1831 4863 
L 2375 4863 
z
" transform="scale(0.015625)"/>
      <path id="DejaVuSans-41" d="M 2188 4044 
L 1331 1722 
L 3047 1722 
L 2188 4044 
z
M 1831 4666 
L 2547 4666 
L 4325 0 
L 3669 0 
L 3244 1197 
L 1141 1197 
L 716 0 
L 50 0 
L 1831 4666 
z
" transform="scale(0.015625)"/>
      <path id="DejaVuSans-45" d="M 628 4666 
L 3578 4666 
L 3578 4134 
L 1259 4134 
L 1259 2753 
L 3481 2753 
L 3481 2222 
L 1259 2222 
L 1259 531 
L 3634 531 
L 3634 0 
L 628 0 
L 628 4666 
z
" transform="scale(0.015625)"/>
      <path id="DejaVuSans-44" d="M 1259 4147 
L 1259 519 
L 2022 519 
Q 2988 519 3436 956 
Q 3884 1394 3884 2338 
Q 3884 3275 3436 3711 
Q 2988 4147 2022 4147 
L 1259 4147 
z
M 628 4666 
L 1925 4666 
Q 3281 4666 3915 4102 
Q 4550 3538 4550 2338 
Q 4550 1131 3912 565 
Q 3275 0 1925 0 
L 628 0 
L 628 4666 
z
" transform="scale(0.015625)"/>
      <path id="DejaVuSans-73" d="M 2834 3397 
L 2834 2853 
Q 2591 2978 2328 3040 
Q 2066 3103 1784 3103 
Q 1356 3103 1142 2972 
Q 928 2841 928 2578 
Q 928 2378 1081 2264 
Q 1234 2150 1697 2047 
L 1894 2003 
Q 2506 1872 2764 1633 
Q 3022 1394 3022 966 
Q 3022 478 2636 193 
Q 2250 -91 1575 -91 
Q 1294 -91 989 -36 
Q 684 19 347 128 
L 347 722 
Q 666 556 975 473 
Q 1284 391 1588 391 
Q 1994 391 2212 530 
Q 2431 669 2431 922 
Q 2431 1156 2273 1281 
Q 2116 1406 1581 1522 
L 1381 1569 
Q 847 1681 609 1914 
Q 372 2147 372 2553 
Q 372 3047 722 3315 
Q 1072 3584 1716 3584 
Q 2034 3584 2315 3537 
Q 2597 3491 2834 3397 
z
" transform="scale(0.015625)"/>
      <path id="DejaVuSans-69" d="M 603 3500 
L 1178 3500 
L 1178 0 
L 603 0 
L 603 3500 
z
M 603 4863 
L 1178 4863 
L 1178 4134 
L 603 4134 
L 603 4863 
z
" transform="scale(0.015625)"/>
      <path id="DejaVuSans-6e" d="M 3513 2113 
L 3513 0 
L 2938 0 
L 2938 2094 
Q 2938 2591 2744 2837 
Q 2550 3084 2163 3084 
Q 1697 3084 1428 2787 
Q 1159 2491 1159 1978 
L 1159 0 
L 581 0 
L 581 3500 
L 1159 3500 
L 1159 2956 
Q 1366 3272 1645 3428 
Q 1925 3584 2291 3584 
Q 2894 3584 3203 3211 
Q 3513 2838 3513 2113 
z
" transform="scale(0.015625)"/>
      <path id="DejaVuSans-74" d="M 1172 4494 
L 1172 3500 
L 2356 3500 
L 2356 3053 
L 1172 3053 
L 1172 1153 
Q 1172 725 1289 603 
Q 1406 481 1766 481 
L 2356 481 
L 2356 0 
L 1766 0 
Q 1100 0 847 248 
Q 594 497 594 1153 
L 594 3053 
L 172 3053 
L 172 3500 
L 594 3500 
L 594 4494 
L 1172 4494 
z
" transform="scale(0.015625)"/>
      <path id="DejaVuSans-68" d="M 3513 2113 
L 3513 0 
L 2938 0 
L 2938 2094 
Q 2938 2591 2744 2837 
Q 2550 3084 2163 3084 
Q 1697 3084 1428 2787 
Q 1159 2491 1159 1978 
L 1159 0 
L 581 0 
L 581 4863 
L 1159 4863 
L 1159 2956 
Q 1366 3272 1645 3428 
Q 1925 3584 2291 3584 
Q 2894 3584 3203 3211 
Q 3513 2838 3513 2113 
z
" transform="scale(0.015625)"/>
      <path id="DejaVuSans-4f" d="M 2522 4238 
Q 1834 4238 1429 3725 
Q 1025 3213 1025 2328 
Q 1025 1447 1429 934 
Q 1834 422 2522 422 
Q 3209 422 3611 934 
Q 4013 1447 4013 2328 
Q 4013 3213 3611 3725 
Q 3209 4238 2522 4238 
z
M 2522 4750 
Q 3503 4750 4090 4092 
Q 4678 3434 4678 2328 
Q 4678 1225 4090 567 
Q 3503 -91 2522 -91 
Q 1538 -91 948 565 
Q 359 1222 359 2328 
Q 359 3434 948 4092 
Q 1538 4750 2522 4750 
z
" transform="scale(0.015625)"/>
      <path id="DejaVuSans-70" d="M 1159 525 
L 1159 -1331 
L 581 -1331 
L 581 3500 
L 1159 3500 
L 1159 2969 
Q 1341 3281 1617 3432 
Q 1894 3584 2278 3584 
Q 2916 3584 3314 3078 
Q 3713 2572 3713 1747 
Q 3713 922 3314 415 
Q 2916 -91 2278 -91 
Q 1894 -91 1617 61 
Q 1341 213 1159 525 
z
M 3116 1747 
Q 3116 2381 2855 2742 
Q 2594 3103 2138 3103 
Q 1681 3103 1420 2742 
Q 1159 2381 1159 1747 
Q 1159 1113 1420 752 
Q 1681 391 2138 391 
Q 2594 391 2855 752 
Q 3116 1113 3116 1747 
z
" transform="scale(0.015625)"/>
      <path id="DejaVuSans-53" d="M 3425 4513 
L 3425 3897 
Q 3066 4069 2747 4153 
Q 2428 4238 2131 4238 
Q 1616 4238 1336 4038 
Q 1056 3838 1056 3469 
Q 1056 3159 1242 3001 
Q 1428 2844 1947 2747 
L 2328 2669 
Q 3034 2534 3370 2195 
Q 3706 1856 3706 1288 
Q 3706 609 3251 259 
Q 2797 -91 1919 -91 
Q 1588 -91 1214 -16 
Q 841 59 441 206 
L 441 856 
Q 825 641 1194 531 
Q 1563 422 1919 422 
Q 2459 422 2753 634 
Q 3047 847 3047 1241 
Q 3047 1584 2836 1778 
Q 2625 1972 2144 2069 
L 1759 2144 
Q 1053 2284 737 2584 
Q 422 2884 422 3419 
Q 422 4038 858 4394 
Q 1294 4750 2059 4750 
Q 2388 4750 2728 4690 
Q 3069 4631 3425 4513 
z
" transform="scale(0.015625)"/>
      <path id="DejaVuSans-4d" d="M 628 4666 
L 1569 4666 
L 2759 1491 
L 3956 4666 
L 4897 4666 
L 4897 0 
L 4281 0 
L 4281 4097 
L 3078 897 
L 2444 897 
L 1241 4097 
L 1241 0 
L 628 0 
L 628 4666 
z
" transform="scale(0.015625)"/>
      <path id="DejaVuSans-61" d="M 2194 1759 
Q 1497 1759 1228 1600 
Q 959 1441 959 1056 
Q 959 750 1161 570 
Q 1363 391 1709 391 
Q 2188 391 2477 730 
Q 2766 1069 2766 1631 
L 2766 1759 
L 2194 1759 
z
M 3341 1997 
L 3341 0 
L 2766 0 
L 2766 531 
Q 2569 213 2275 61 
Q 1981 -91 1556 -91 
Q 1019 -91 701 211 
Q 384 513 384 1019 
Q 384 1609 779 1909 
Q 1175 2209 1959 2209 
L 2766 2209 
L 2766 2266 
Q 2766 2663 2505 2880 
Q 2244 3097 1772 3097 
Q 1472 3097 1187 3025 
Q 903 2953 641 2809 
L 641 3341 
Q 956 3463 1253 3523 
Q 1550 3584 1831 3584 
Q 2591 3584 2966 3190 
Q 3341 2797 3341 1997 
z
" transform="scale(0.015625)"/>
      <path id="DejaVuSans-64" d="M 2906 2969 
L 2906 4863 
L 3481 4863 
L 3481 0 
L 2906 0 
L 2906 525 
Q 2725 213 2448 61 
Q 2172 -91 1784 -91 
Q 1150 -91 751 415 
Q 353 922 353 1747 
Q 353 2572 751 3078 
Q 1150 3584 1784 3584 
Q 2172 3584 2448 3432 
Q 2725 3281 2906 2969 
z
M 947 1747 
Q 947 1113 1208 752 
Q 1469 391 1925 391 
Q 2381 391 2643 752 
Q 2906 1113 2906 1747 
Q 2906 2381 2643 2742 
Q 2381 3103 1925 3103 
Q 1469 3103 1208 2742 
Q 947 2381 947 1747 
z
" transform="scale(0.015625)"/>
      <path id="DejaVuSans-50" d="M 1259 4147 
L 1259 2394 
L 2053 2394 
Q 2494 2394 2734 2622 
Q 2975 2850 2975 3272 
Q 2975 3691 2734 3919 
Q 2494 4147 2053 4147 
L 1259 4147 
z
M 628 4666 
L 2053 4666 
Q 2838 4666 3239 4311 
Q 3641 3956 3641 3272 
Q 3641 2581 3239 2228 
Q 2838 1875 2053 1875 
L 1259 1875 
L 1259 0 
L 628 0 
L 628 4666 
z
" transform="scale(0.015625)"/>
      <path id="DejaVuSans-6c" d="M 603 4863 
L 1178 4863 
L 1178 0 
L 603 0 
L 603 4863 
z
" transform="scale(0.015625)"/>
      <path id="DejaVuSans-2c" d="M 750 794 
L 1409 794 
L 1409 256 
L 897 -744 
L 494 -744 
L 750 256 
L 750 794 
z
" transform="scale(0.015625)"/>
      <path id="DejaVuSans-79" d="M 2059 -325 
Q 1816 -950 1584 -1140 
Q 1353 -1331 966 -1331 
L 506 -1331 
L 506 -850 
L 844 -850 
Q 1081 -850 1212 -737 
Q 1344 -625 1503 -206 
L 1606 56 
L 191 3500 
L 800 3500 
L 1894 763 
L 2988 3500 
L 3597 3500 
L 2059 -325 
z
" transform="scale(0.015625)"/>
      <path id="DejaVuSans-2e" d="M 684 794 
L 1344 794 
L 1344 0 
L 684 0 
L 684 794 
z
" transform="scale(0.015625)"/>
      <path id="DejaVuSans-3a" d="M 750 794 
L 1409 794 
L 1409 0 
L 750 0 
L 750 794 
z
M 750 3309 
L 1409 3309 
L 1409 2516 
L 750 2516 
L 750 3309 
z
" transform="scale(0.015625)"/>
      <path id="DejaVuSans-35" d="M 691 4666 
L 3169 4666 
L 3169 4134 
L 1269 4134 
L 1269 2991 
Q 1406 3038 1543 3061 
Q 1681 3084 1819 3084 
Q 2600 3084 3056 2656 
Q 3513 2228 3513 1497 
Q 3513 744 3044 326 
Q 2575 -91 1722 -91 
Q 1428 -91 1123 -41 
Q 819 9 494 109 
L 494 744 
Q 775 591 1075 516 
Q 1375 441 1709 441 
Q 2250 441 2565 725 
Q 2881 1009 2881 1497 
Q 2881 1984 2565 2268 
Q 2250 2553 1709 2553 
Q 1456 2553 1204 2497 
Q 953 2441 691 2322 
L 691 4666 
z
" transform="scale(0.015625)"/>
      <path id="DejaVuSans-2d" d="M 313 2009 
L 1997 2009 
L 1997 1497 
L 313 1497 
L 313 2009 
z
" transform="scale(0.015625)"/>
     </defs>
     <use xlink:href="#DejaVuSans-4e"/>
     <use xlink:href="#DejaVuSans-75" x="74.804688"/>
     <use xlink:href="#DejaVuSans-6d" x="138.183594"/>
     <use xlink:href="#DejaVuSans-62" x="235.595703"/>
     <use xlink:href="#DejaVuSans-65" x="299.072266"/>
     <use xlink:href="#DejaVuSans-72" x="360.595703"/>
     <use xlink:href="#DejaVuSans-20" x="401.708984"/>
     <use xlink:href="#DejaVuSans-6f" x="433.496094"/>
     <use xlink:href="#DejaVuSans-66" x="494.677734"/>
     <use xlink:href="#DejaVuSans-20" x="529.882812"/>
     <use xlink:href="#DejaVuSans-41" x="561.669922"/>
     <use xlink:href="#DejaVuSans-45" x="630.078125"/>
     <use xlink:href="#DejaVuSans-44" x="693.261719"/>
     <use xlink:href="#DejaVuSans-73" x="770.263672"/>
     <use xlink:href="#DejaVuSans-20" x="822.363281"/>
     <use xlink:href="#DejaVuSans-69" x="854.150391"/>
     <use xlink:href="#DejaVuSans-6e" x="881.933594"/>
     <use xlink:href="#DejaVuSans-20" x="945.3125"/>
     <use xlink:href="#DejaVuSans-74" x="977.099609"/>
     <use xlink:href="#DejaVuSans-68" x="1016.308594"/>
     <use xlink:href="#DejaVuSans-65" x="1079.6875"/>
     <use xlink:href="#DejaVuSans-20" x="1141.210938"/>
     <use xlink:href="#DejaVuSans-4f" x="1172.998047"/>
     <use xlink:href="#DejaVuSans-70" x="1251.708984"/>
     <use xlink:href="#DejaVuSans-65" x="1315.185547"/>
     <use xlink:href="#DejaVuSans-6e" x="1376.708984"/>
     <use xlink:href="#DejaVuSans-53" x="1440.087891"/>
     <use xlink:href="#DejaVuSans-74" x="1503.564453"/>
     <use xlink:href="#DejaVuSans-72" x="1542.773438"/>
     <use xlink:href="#DejaVuSans-65" x="1581.636719"/>
     <use xlink:href="#DejaVuSans-65" x="1643.160156"/>
     <use xlink:href="#DejaVuSans-74" x="1704.683594"/>
     <use xlink:href="#DejaVuSans-4d" x="1743.892578"/>
     <use xlink:href="#DejaVuSans-61" x="1830.171875"/>
     <use xlink:href="#DejaVuSans-70" x="1891.451172"/>
     <use xlink:href="#DejaVuSans-20" x="1954.927734"/>
     <use xlink:href="#DejaVuSans-64" x="1986.714844"/>
     <use xlink:href="#DejaVuSans-61" x="2050.191406"/>
     <use xlink:href="#DejaVuSans-74" x="2111.470703"/>
     <use xlink:href="#DejaVuSans-61" x="2150.679688"/>
     <use xlink:href="#DejaVuSans-62" x="2211.958984"/>
     <use xlink:href="#DejaVuSans-61" x="2275.435547"/>
     <use xlink:href="#DejaVuSans-73" x="2336.714844"/>
     <use xlink:href="#DejaVuSans-65" x="2388.814453"/>
     <use xlink:href="#DejaVuSans-20" x="2450.337891"/>
     <use xlink:href="#DejaVuSans-69" x="2482.125"/>
     <use xlink:href="#DejaVuSans-6e" x="2509.908203"/>
     <use xlink:href="#DejaVuSans-20" x="2573.287109"/>
     <use xlink:href="#DejaVuSans-50" x="2605.074219"/>
     <use xlink:href="#DejaVuSans-6f" x="2661.751953"/>
     <use xlink:href="#DejaVuSans-6c" x="2722.933594"/>
     <use xlink:href="#DejaVuSans-61" x="2750.716797"/>
     <use xlink:href="#DejaVuSans-6e" x="2811.996094"/>
     <use xlink:href="#DejaVuSans-64" x="2875.375"/>
     <use xlink:href="#DejaVuSans-20" x="2938.851562"/>
     <use xlink:href="#DejaVuSans-66" x="2970.638672"/>
     <use xlink:href="#DejaVuSans-72" x="3005.84375"/>
     <use xlink:href="#DejaVuSans-6f" x="3044.707031"/>
     <use xlink:href="#DejaVuSans-6d" x="3105.888672"/>
     <use xlink:href="#DejaVuSans-20" x="3203.300781"/>
     <use xlink:href="#DejaVuSans-66" x="3235.087891"/>
     <use xlink:href="#DejaVuSans-69" x="3270.292969"/>
     <use xlink:href="#DejaVuSans-72" x="3298.076172"/>
     <use xlink:href="#DejaVuSans-73" x="3339.189453"/>
     <use xlink:href="#DejaVuSans-74" x="3391.289062"/>
     <use xlink:href="#DejaVuSans-20" x="3430.498047"/>
     <use xlink:href="#DejaVuSans-65" x="3462.285156"/>
     <use xlink:href="#DejaVuSans-64" x="3523.808594"/>
     <use xlink:href="#DejaVuSans-69" x="3587.285156"/>
     <use xlink:href="#DejaVuSans-74" x="3615.068359"/>
     <use xlink:href="#DejaVuSans-69" x="3654.277344"/>
     <use xlink:href="#DejaVuSans-6f" x="3682.060547"/>
     <use xlink:href="#DejaVuSans-6e" x="3743.242188"/>
     <use xlink:href="#DejaVuSans-2c" x="3806.621094"/>
     <use xlink:href="#DejaVuSans-20" x="3838.408203"/>
     <use xlink:href="#DejaVuSans-64" x="3870.195312"/>
     <use xlink:href="#DejaVuSans-61" x="3933.671875"/>
     <use xlink:href="#DejaVuSans-79" x="3994.951172"/>
     <use xlink:href="#DejaVuSans-20" x="4054.130859"/>
     <use xlink:href="#DejaVuSans-62" x="4085.917969"/>
     <use xlink:href="#DejaVuSans-79" x="4149.394531"/>
     <use xlink:href="#DejaVuSans-20" x="4208.574219"/>
     <use xlink:href="#DejaVuSans-64" x="4240.361328"/>
     <use xlink:href="#DejaVuSans-61" x="4303.837891"/>
     <use xlink:href="#DejaVuSans-79" x="4365.117188"/>
     <use xlink:href="#DejaVuSans-2e" x="4410.046875"/>
     <use xlink:href="#DejaVuSans-20" x="4441.833984"/>
     <use xlink:href="#DejaVuSans-41" x="4473.621094"/>
     <use xlink:href="#DejaVuSans-73" x="4542.029297"/>
     <use xlink:href="#DejaVuSans-20" x="4594.128906"/>
     <use xlink:href="#DejaVuSans-61" x="4625.916016"/>
     <use xlink:href="#DejaVuSans-74" x="4687.195312"/>
     <use xlink:href="#DejaVuSans-3a" x="4726.404297"/>
     <use xlink:href="#DejaVuSans-20" x="4760.095703"/>
     <use xlink:href="#DejaVuSans-32" x="4791.882812"/>
     <use xlink:href="#DejaVuSans-30" x="4855.505859"/>
     <use xlink:href="#DejaVuSans-32" x="4919.128906"/>
     <use xlink:href="#DejaVuSans-35" x="4982.751953"/>
     <use xlink:href="#DejaVuSans-2d" x="5046.375"/>
     <use xlink:href="#DejaVuSans-30" x="5082.458984"/>
     <use xlink:href="#DejaVuSans-38" x="5146.082031"/>
     <use xlink:href="#DejaVuSans-2d" x="5209.705078"/>
     <use xlink:href="#DejaVuSans-32" x="5245.789062"/>
     <use xlink:href="#DejaVuSans-36" x="5309.412109"/>
    </g>
   </g>
  </g>
 </g>
 <defs>
  <clipPath id="pf1999ecc03">
   <rect x="144" y="69.12" width="892.8" height="443.52"/>
  </clipPath>
 </defs>
</svg>
